<svg version="1.1" xmlns="http://www.w3.org/2000/svg" xmlns:xlink="http://www.w3.org/1999/xlink" width="362.67672" height="556.10188" viewBox="0,0,362.67672,556.10188"><defs><linearGradient x1="301.13179" y1="213.79767" x2="364.0614" y2="289.62359" gradientUnits="userSpaceOnUse" id="color-1"><stop offset="0" stop-color="#0080b4" stop-opacity="0"/><stop offset="1" stop-color="#0080b4"/></linearGradient></defs><g transform="translate(-223.08819,-1.85584)"><g data-paper-data="{&quot;isPaintingLayer&quot;:true}" fill-rule="nonzero" stroke-width="5" stroke-linejoin="miter" stroke-miterlimit="10" stroke-dasharray="" stroke-dashoffset="0" style="mix-blend-mode: normal"><g data-paper-data="{&quot;index&quot;:null}"><path d="M566.20107,426.40235c16.31048,26.58466 4.53129,54.70342 -10.1298,63.69843c-6.04962,3.71162 -18.73189,7.74059 -32.30178,0.739c-19.31633,-9.96659 -40.76948,-34.78291 -50.34973,-50.39789c-16.31048,-26.58466 -28.19558,-33.16483 -13.53449,-42.15984c14.66109,-8.99501 90.00534,1.53566 106.31582,28.12032z" fill="#ffffff" stroke="#000000" stroke-linecap="butt"/><path d="M570.97856,424.22816c7.85945,12.81022 20.51026,49.594 3.55838,59.99449c-7.76533,4.76426 -34.25025,19.08599 -49.44016,15.37815c-17.97002,-4.38647 -24.55227,-27.88678 -28.81146,-34.82889c-7.36665,-12.00699 29.71577,33.52096 44.45779,22.83659c0.3082,-0.22335 44.84295,-16.04423 25.68511,-38.70377c-3.61951,-4.28108 -15.43758,-15.29875 -18.40568,-17.74169c-18.04027,-14.84843 -81.64728,-34.20619 -81.01979,-34.59118c16.95187,-10.40047 96.11638,14.8461 103.97583,27.65632z" fill="#c7c7c7" stroke="none" stroke-linecap="butt"/><path d="M567.55418,424.8856c8.02853,13.0858 21.36481,32.98062 13.11214,47.47862c-8.51316,14.95563 -38.86447,24.38335 -46.30893,28.95075c-14.66109,8.99501 -45.59686,-34.38005 -61.90734,-60.96471c-16.31048,-26.58466 -28.19558,-33.16483 -13.53449,-42.15984c14.66109,-8.99501 92.32813,0.11055 108.63861,26.69521z" fill="none" stroke="#000000" stroke-linecap="butt"/><path d="M546.61322,412.05894l-21.17006,13.88307l-48.43427,17.08874" fill="none" stroke="#000000" stroke-linecap="round"/></g><g data-paper-data="{&quot;index&quot;:null}"><path d="M429.2738,414.22031c14.66109,-8.99501 15.14272,4.58152 31.4532,31.16618c9.58027,15.615 21.98442,45.98314 22.11832,67.71873c0.09406,15.26941 -9.24339,24.7502 -15.29301,28.46182c-14.66109,8.99501 -45.06511,6.75691 -61.37559,-19.82775c-16.31048,-26.58466 8.436,-98.52397 23.09709,-107.51898z" fill="#ffffff" stroke="#000000" stroke-linecap="butt"/><path d="M424.52464,419.79065c0.62749,-0.38498 -10.93222,65.08982 -5.86813,87.89949c0.83317,3.75279 5.30116,19.27998 7.47788,24.44622c11.52129,27.34479 45.80171,-5.18977 46.14046,-5.36332c16.2038,-8.30178 -7.58374,-61.98657 -0.21709,-49.97958c4.25919,6.94211 22.22734,23.45686 17.99656,41.46415c-3.57624,15.22143 -28.34277,32.34399 -36.1081,37.10825c-16.95189,10.40049 -44.01274,-17.5423 -51.8722,-30.35252c-7.85945,-12.81022 5.49874,-94.82223 22.45061,-105.2227z" fill="#c7c7c7" stroke="none" stroke-linecap="butt"/><path d="M429.63142,413.31432c14.66109,-8.99501 15.14272,4.58152 31.4532,31.16618c16.31048,26.58466 40.96344,73.81441 26.30236,82.80942c-7.44444,4.56738 -29.59969,27.35402 -46.78929,28.1678c-16.66362,0.78888 -28.35764,-20.11351 -36.38616,-33.19931c-16.31048,-26.58466 10.75879,-99.94907 25.41988,-108.94408z" fill="none" stroke="#000000" stroke-linecap="butt"/><path d="M461.40889,449.75906l-37.17735,35.43654l-21.96759,12.58316" fill="none" stroke="#000000" stroke-linecap="round"/></g><g data-paper-data="{&quot;index&quot;:null}"><path d="M556.31008,336.19345c6.6421,31.59391 -38.52329,28.21664 -64.71514,33.72305c-26.19183,5.50641 -52.80901,-15.64168 -59.45112,-47.23558c-6.6421,-31.59391 -19.34621,-41.42983 6.84562,-46.93623c26.19185,-5.50641 110.67854,28.85486 117.32064,60.44877z" fill="#ffffff" stroke="#000000" stroke-linecap="butt"/><path d="M559.07927,330.5783c3.2006,15.224 -18.7551,32.7268 -49.03939,39.09359c-30.28433,6.36679 -57.4292,-0.8134 -60.6298,-16.03741c-2.99992,-14.26944 28.63403,-0.36838 55.97853,-7.59545c0.74933,-0.19805 48.90389,0.07595 37.59691,-13.76013c-16.29527,-19.94016 -94.03508,-56.2332 -92.91406,-56.46888c30.2843,-6.36678 105.80723,39.5443 109.00783,54.76831z" fill="#c7c7c7" stroke="none" stroke-linecap="butt"/><path d="M554.99984,335.8499c6.6421,31.59391 -38.52329,28.21664 -64.71514,33.72305c-26.19183,5.50641 -52.80901,-15.64168 -59.45112,-47.23558c-6.6421,-31.59391 -19.34621,-41.42983 6.84562,-46.93623c26.19185,-5.50641 110.67854,28.85486 117.32064,60.44877z" fill="none" stroke="#000000" stroke-linecap="butt"/><path d="M525.04829,307.09189l-10.67381,14.00514l-70.26438,19.10501" fill="none" stroke="#000000" stroke-linecap="round"/></g><g><path d="M348.88028,343.1014c22.81298,-13.99644 20.34146,1.87905 37.22467,29.39721c16.88321,27.51817 12.07617,61.17242 -10.73681,75.16886c-22.81298,13.99644 -53.30683,47.48444 -70.19004,19.96628c-16.88321,-27.51817 20.8892,-110.53591 43.70218,-124.53235z" fill="#ffffff" stroke="#000000" stroke-linecap="butt"/><path d="M299.30788,465.45689c-8.13543,-13.26005 15.18827,-98.50995 41.56578,-114.69333c0.97638,-0.59904 -30.56677,79.18625 -28.70454,104.87045c1.29215,17.82177 36.09005,-15.46551 36.77055,-15.83651c24.83273,-13.53832 38.2643,-45.37446 45.88963,-32.94583c8.13543,13.26005 -6.65271,37.12868 -33.03021,53.31206c-26.37751,16.18338 -54.35579,18.55323 -62.49123,5.29318z" fill="#c7c7c7" stroke="none" stroke-linecap="butt"/><path d="M349.59616,341.9515c22.81298,-13.99644 20.34146,1.87905 37.22467,29.39721c16.88321,27.51817 12.07617,61.17242 -10.73681,75.16886c-22.81298,13.99644 -53.30683,47.48444 -70.19004,19.96628c-16.88321,-27.51817 20.8892,-110.53591 43.70218,-124.53235z" fill="none" stroke="#000000" stroke-linecap="butt"/><path d="M389.45019,393.45072l-64.17735,34.39989l-17.37822,-2.84104" fill="none" stroke="#000000" stroke-linecap="round"/></g><g><path d="M358.84151,287.11211c18.95857,-15.56511 91.43054,5.98741 121.36345,42.44616c29.93291,36.45876 5.99179,74.0176 -12.96677,89.58272c-18.95854,15.5651 -62.85845,34.96723 -92.79135,-1.49152c-29.93292,-36.45877 -34.56388,-114.97224 -15.60532,-130.53736z" fill="#ffffff" stroke="#000000" stroke-linecap="butt"/><path d="M354.2531,327.8117c5.48034,-4.4994 5.91236,29.44175 18.10552,53.49654c12.8929,25.43521 37.7383,41.24391 50.15083,43.04824c14.90338,2.16641 34.49966,-13.20338 45.82568,-29.89392c15.77861,-23.25207 21.11827,-50.13567 25.15622,-45.21738c11.6335,14.16979 -1.57407,44.24296 -29.49994,67.1703c-27.92587,22.92734 -59.99507,30.02673 -71.62857,15.85695c-11.6335,-14.16979 -66.03561,-81.53336 -38.10974,-104.46071z" fill="#c7c7c7" stroke="none" stroke-linecap="butt"/><path d="M358.84151,287.11211c18.95857,-15.56511 91.43053,5.98739 121.36345,42.44616c29.93292,36.45877 5.99179,74.0176 -12.96677,89.58272c-18.95857,15.56511 -62.85843,34.96725 -92.79135,-1.49152c-29.93292,-36.45877 -34.56388,-114.97224 -15.60532,-130.53736z" fill="none" stroke="#000000" stroke-linecap="butt"/><path d="M368.96756,406.36059l103.439,-78.60921" fill="none" stroke="#000000" stroke-linecap="round"/></g><g><path d="M276.62165,68.03153c9.52432,-17.11557 46.01128,-28.66578 57.33135,-32.82292c20.09906,-7.38108 20.70584,24.84202 29.08646,47.66283c8.38063,22.82084 -1.11904,47.30431 -21.21812,54.6854c-20.09906,7.38108 -43.18643,-5.13529 -51.56704,-27.9561c-3.66055,-9.96782 -21.019,-28.29568 -13.63265,-41.56922z" fill="#bd0000" stroke="#000000" stroke-linecap="butt"/><path d="M290.36004,108.4634c-3.66055,-9.96782 -21.019,-28.29568 -13.63265,-41.56922c9.52431,-17.11555 46.01126,-28.66577 57.33133,-32.82292c20.09906,-7.38108 20.70584,24.84202 29.08646,47.66283c8.38061,22.82081 -1.11906,47.3043 -21.21814,54.68538c-20.09908,7.3811 -43.18643,-5.13529 -51.56704,-27.9561z" fill="none" stroke="#000000" stroke-linecap="butt"/><path d="M324.58131,83.13825c10.89346,-3.98045 20.27061,17.10761 24.48069,28.62954c4.2101,11.52192 1.65884,9.11461 -9.23464,13.09504c-10.89346,3.98045 -13.89791,9.54172 -18.10799,-1.9802c-4.2101,-11.52192 -8.03154,-35.76394 2.86193,-39.74438z" fill="#3b3b3b" stroke="#000000" stroke-linecap="butt"/><path d="M306.2691,117.95471c27.46064,-22.7902 65.42573,-22.34324 84.7974,0.9983c19.37167,23.34154 12.81426,60.73871 -14.64638,83.52891c-27.46064,22.7902 -65.42573,22.34324 -84.7974,-0.9983c-19.37167,-23.34154 -12.81428,-60.7387 14.64638,-83.52891z" fill="#f1f1f1" stroke="#000000" stroke-linecap="butt"/><path d="M324.86786,177.04156c-9.97071,-12.01403 -52.9254,1.93953 -36.79228,-11.44972c5.20048,-4.31599 17.2691,-19.60209 31.26787,-26.30261c7.44941,-3.56566 34.81334,-7.39421 38.80967,-13.86809c1.40196,-2.27112 -1.82513,-19.32515 -23.52059,-12.47202c-8.19379,2.58826 -40.55154,33.87866 -44.89022,33.77738c-8.263,-0.19295 17.86404,-24.74581 17.03245,-26.25918c-2.78005,-5.05937 43.89891,-18.44813 49.01918,-18.60101c8.32327,-0.24852 36.1151,23.1607 38.46047,25.9867c9.97071,12.01403 -5.9882,33.30925 -22.12133,46.6985c-16.13313,13.38924 -37.2945,14.50407 -47.26521,2.49003z" fill="#cfcfcf" stroke="none" stroke-linecap="butt"/><path d="M306.2691,117.95467c27.46066,-22.79021 65.42576,-22.34324 84.79744,0.99831c19.37168,23.34157 12.81425,60.73875 -14.64639,83.52895c-27.46066,22.79021 -65.42576,22.34324 -84.79744,-0.99831c-19.37168,-23.34157 -12.81425,-60.73875 14.64639,-83.52895z" fill="none" stroke="#000000" stroke-linecap="butt"/><path d="M250.63393,252.04304c-15.09851,-18.19267 15.29373,-63.07395 50.13441,-91.98901c18.04181,-14.9733 37.23203,-19.25439 55.94759,-24.35159c17.42627,-4.74606 34.7594,-11.16202 42.03934,-2.39017c3.83513,4.62109 15.62904,11.87282 30.84277,21.53758c14.75474,9.3732 25.37114,28.29443 29.38353,45.0478c8.13811,33.97992 -27.64269,85.85628 -45.05076,100.30362c-20.29446,16.84282 -86.30829,37.25534 -120.86987,18.01744c-6.31674,-3.51609 -14.58106,-2.0061 -21.38512,-9.63164c-9.32865,-10.45494 -16.56332,-31.07832 -18.21528,-41.40839c-1.86834,-11.68325 1.22603,-16.57599 -1.26648,-19.5793z" fill="#ffffff" stroke="none" stroke-linecap="butt"/><path d="M268.89039,304.58182c-8.99029,-10.83267 -26.40756,-35.97104 -19.90046,-53.03914c6.07063,-15.92326 35.16033,-23.65166 52.14186,-37.745c5.24849,-4.35584 21.85425,-26.92589 34.7542,-37.13565c12.30805,-9.7413 20.76716,-6.98901 32.10842,-16.93444c7.83382,-6.86966 10.12898,-20.71531 15.88212,-23.08111c35.70804,-14.68385 49.13877,21.69347 59.74233,34.47003c17.37753,20.93875 -8.25758,77.1771 -43.44155,106.37705c-27.59816,22.90433 -81.58898,47.49353 -112.14548,43.44781c-8.39896,-1.11203 -15.39478,-11.84509 -19.14145,-16.35956z" fill="url(#color-1)" stroke="none" stroke-linecap="butt"/><path d="M333.21885,332.16511c-3.70341,-4.46235 56.6047,-25.98526 71.53643,-38.37743c5.81666,-4.82738 22.91285,-25.79955 32.86017,-43.17318c15.58801,-27.22549 19.99842,-61.97465 22.25917,-59.2506c2.22646,2.68274 4.31381,24.78089 -8.61041,54.63099c-8.57328,19.80108 -31.46811,50.00464 -37.42292,54.94668c-14.93173,12.39217 -76.91901,35.6859 -80.62241,31.22356z" fill="#c7c7c7" stroke="none" stroke-linecap="butt"/><path d="M276.32724,224.71461c12.8482,-12.41009 25.44803,-35.0767 43.47064,-50.03404c18.45393,-15.31533 31.0225,-18.80327 41.13317,-25.29947c8.88406,-5.70811 16.18074,-15.67095 19.64501,-11.49675c7.40682,8.92471 -17.23453,17.45215 -51.9036,46.22479c-17.3575,14.40537 -23.68896,25.79748 -36.8489,37.81241c-13.12514,11.98316 -33.09683,24.61416 -36.79533,20.15773c-3.55641,-4.28524 9.43183,-5.90218 21.29901,-17.36467z" fill="#c7c7c7" stroke="none" stroke-linecap="butt"/><path d="M295.74319,163.96717c47.88451,-39.74042 111.99039,-41.48629 143.18448,-3.89954c31.19409,37.58677 17.66383,100.27284 -30.22067,140.01326c-47.88451,39.74042 -111.99039,41.48629 -143.18448,3.89954c-31.19409,-37.58677 -17.66383,-100.27284 30.22067,-140.01326z" fill="none" stroke="#000000" stroke-linecap="butt"/><path d="M453.36654,183.78906l-22.88673,67.27632l-59.66629,49.51838l-73.978,18.3619" fill="none" stroke="#000000" stroke-linecap="round"/><path d="M384.52019,130.52677l-18.68388,34.39918l-14.2696,-0.75268l-50.96495,42.29695l-5.10334,17.88031l-39.44769,23.29202" fill="none" stroke="#000000" stroke-linecap="round"/><path d="M356.06471,225.42621c9.78287,-8.11902 19.87848,-12.09203 22.54921,-8.87398c2.67072,3.21805 -3.09478,12.40854 -12.87765,20.52756c-9.78287,8.11902 -19.87848,12.09203 -22.54921,8.87398c-2.67072,-3.21805 3.09478,-12.40854 12.87765,-20.52756z" fill="#008bb7" stroke="none" stroke-linecap="butt"/><path d="M342.90645,244.71155c-1.53377,-1.84809 -1.27897,-4.58962 0.56913,-6.12339c1.84809,-1.53377 4.58962,-1.27897 6.12339,0.56913c1.53377,1.84809 1.27897,4.58962 -0.56913,6.12339c-1.84809,1.53377 -4.58962,1.27897 -6.12339,-0.56913z" fill="#000000" stroke="none" stroke-linecap="butt"/><path d="M370.86315,223.01664c-1.53377,-1.84809 -1.27897,-4.58962 0.56913,-6.12339c1.84809,-1.53377 4.58962,-1.27897 6.12339,0.56913c1.53377,1.84809 1.27897,4.58962 -0.56913,6.12339c-1.84809,1.53377 -4.58962,1.27897 -6.12339,-0.56913z" fill="#000000" stroke="none" stroke-linecap="butt"/><path d="M315.3701,241.97095c4.66142,-3.86862 8.53005,0.7928 8.53005,0.7928l3.0949,3.72915c1.69493,2.19309 4.14939,3.9702 5.08478,6.5793c1.39747,3.89809 1.18794,7.81824 0.37251,11.70824c3.4613,0.48585 10.79093,1.47519 12.64638,1.20112c7.99797,-1.18146 14.04238,-7.61623 20.2428,-12.20901c6.94754,-5.14616 13.84166,-10.24582 20.52537,-15.73233c3.16971,-2.60197 6.90264,-4.91478 9.02511,-8.59482c2.66942,-4.62842 2.06748,-10.12909 1.17883,-15.08345l-1.2496,-1.60908c0,0 -2.18922,-3.75728 1.56805,-5.94649c3.75728,-2.18922 5.94649,1.56805 5.94649,1.56805l2.30146,4.48547c1.20112,6.98613 1.54951,14.3998 -2.15999,20.84031c-2.96766,5.1525 -6.43771,7.21926 -11.08224,11.05411c-6.78246,5.60007 -13.81103,10.77315 -20.87682,16.00689c-7.73414,5.72883 -14.32857,12.24308 -24.26511,13.84045c-3.26811,0.52538 -12.63006,-0.89373 -16.16455,-1.37474c-0.55852,1.82781 -1.0885,3.63996 -1.4801,5.43074c0,0 -1.30441,5.91554 -7.21995,4.61114c-5.91554,-1.30441 -4.61114,-7.21995 -4.61114,-7.21995c1.80478,-8.12373 7.04167,-15.29016 0.89489,-21.81874l-3.0949,-3.72915c0,0 -3.86862,-4.66142 0.7928,-8.53005z" fill="#000000" stroke="none" stroke-linecap="butt"/><path d="M308.49046,57.63065c10.81263,-8.97364 25.58242,-9.01331 32.98924,-0.08859c7.40682,8.92471 4.64587,23.4342 -6.16677,32.40784c-10.81263,8.97364 -25.58242,9.01331 -32.98924,0.08859c-7.40682,-8.92471 -4.64587,-23.4342 6.16677,-32.40784z" fill="#e60000" stroke="none" stroke-linecap="butt"/><path d="M247.31766,119.00635c-4.30037,-6.64817 -36.67836,-29.42139 -18.98108,-40.86888c8.09645,-5.23721 15.01797,5.20735 31.6816,5.25938c19.75974,0.06171 49.05401,-9.45221 51.38697,-5.84557c2.64322,4.08627 -16.49458,13.18664 -25.75602,30.24624c-5.80641,10.69548 0.13651,30.81519 -6.68318,35.22651c-17.69724,11.4475 -27.34788,-17.36953 -31.64825,-24.01771z" fill="#e60000" stroke="none" stroke-linecap="butt"/><path d="M377.12604,36.78576c4.61559,6.41431 26.50575,27.2482 13.29877,35.66421c-5.08933,3.24311 -20.53934,-10.68652 -30.63095,-11.14063c-16.09636,-0.72433 -27.65751,9.896 -30.49448,5.95344c-2.50398,-3.47978 11.52833,-21.78244 15.61719,-37.13008c3.44817,-12.94283 -3.76846,-23.14823 2.27369,-26.99853c13.20696,-8.41599 25.32017,27.2373 29.93577,33.65159z" data-paper-data="{&quot;index&quot;:null}" fill="#e60000" stroke="none" stroke-linecap="butt"/></g></g></g></svg>