<svg version="1.1" xmlns="http://www.w3.org/2000/svg" xmlns:xlink="http://www.w3.org/1999/xlink" width="369.64352" height="311.64452" viewBox="0,0,369.64352,311.64452"><g transform="translate(42.82176,-134.95349)"><g data-paper-data="{&quot;isPaintingLayer&quot;:true}" fill-rule="nonzero" stroke-width="7" stroke-linejoin="miter" stroke-miterlimit="10" stroke-dasharray="" stroke-dashoffset="0" style="mix-blend-mode: normal"><g><path d="M54.7257,380.95778c4.29292,-12.94242 34.65619,-79.42458 64.6133,-102.61642c14.19302,-10.9878 27.94729,5.24497 39.43881,9.05664c35.74655,11.8569 31.72443,117.42317 25.39762,136.49743c-6.3268,19.07424 -40.43402,24.92506 -76.18057,13.06816c-35.74655,-11.8569 -59.59598,-36.93157 -53.26918,-56.00581z" fill="#737373" stroke="#000000" stroke-linecap="butt"/><path d="M58.91882,387.4085c1.36261,-4.10803 38.06454,-100.84869 57.67331,-105.08142c17.28932,-3.73205 -29.15869,22.81725 -16.3842,46.79423c6.71312,12.60014 55.93347,27.95275 79.86983,35.44051c13.49677,4.22206 6.62635,3.40384 9.86692,4.42431c0.13397,0.04219 3.01293,5.43555 -5.20111,3.72642c-21.62164,-4.49893 -72.54472,-18.86331 -96.49621,-14.87771c-31.31047,5.21017 -26.6339,32.7393 -26.16999,32.89318c10.82802,3.59158 28.25606,20.35062 45.58092,24.4583c36.25266,8.59543 74.99714,4.98741 72.52369,12.44443c-3.65549,11.02069 -33.76453,10.95065 -67.25045,-0.15641c-33.48592,-11.10706 -57.66824,-29.04513 -54.01275,-40.06582z" fill="#484848" stroke="none" stroke-linecap="butt"/><path d="M121.18845,273.27529c13.89253,-11.08745 27.10164,4.96448 38.22978,8.65561c34.61623,11.48198 29.71121,116.7554 23.3844,135.82966c-6.32681,19.07426 -39.5177,25.229 -74.13393,13.74702c-34.61623,-11.48198 -57.54935,-36.25269 -51.22254,-55.32696c4.29292,-12.94242 34.41942,-79.50312 63.74229,-102.90533z" fill="none" stroke="#000000" stroke-linecap="butt"/><path d="M183.34126,378.46654l-106.08566,-36.32384" fill="none" stroke="#000000" stroke-linecap="round"/><path d="M88.81339,312.57675l21.64681,-1.90713l10.41296,9.70139" fill="none" stroke="#000000" stroke-linecap="round"/><path d="M185.60848,397.26683l-21.98372,4.63514l-16.73014,-16.34037" fill="none" stroke="#000000" stroke-linecap="round"/></g><g data-paper-data="{&quot;index&quot;:null}" stroke-linecap="butt"><path d="M322.60301,363.21671c0,21.73363 -18.22197,39.3522 -40.69988,39.3522c-22.47791,0 -40.69988,-17.61857 -40.69988,-39.3522c0,-21.73363 18.22197,-39.3522 40.69988,-39.3522c22.47791,0 40.69988,17.61857 40.69988,39.3522z" fill="#737373" stroke="#000000"/><path d="M322.56204,378.60666c0,13.09971 -18.02083,23.71914 -40.25064,23.71914c-22.22983,0 -40.25066,-10.61942 -40.25066,-23.71914c0,-13.09971 -7.85459,-44.56321 14.37524,-44.56321c8.47092,0 -2.47578,14.68107 -2.02736,28.81478c0.27879,8.78675 10.25329,17.36198 15.93206,22.06652c4.32109,3.5798 17.62858,8.44804 28.9615,5.52531c12.68515,-3.27147 23.25989,-14.48655 23.25989,-11.8434z" fill="#484848" stroke="none"/><path d="M323.32176,363.93546c0,21.73363 -18.22197,39.3522 -40.69988,39.3522c-22.47791,0 -40.69988,-17.61857 -40.69988,-39.3522c0,-21.73363 18.22197,-39.3522 40.69988,-39.3522c22.47791,0 40.69988,17.61857 40.69988,39.3522z" fill="none" stroke="#000000"/></g><path d="M68.71091,237.5595z" fill="#ffffff" stroke="#000000" stroke-linecap="butt"/><g stroke-linecap="butt"><path d="M2.09688,284.92718c22.47791,0 40.69988,17.61857 40.69988,39.3522c0,21.73363 -18.22197,39.3522 -40.69988,39.3522c-22.47791,0 -40.69988,-17.61857 -40.69988,-39.3522c0,-21.73363 18.22197,-39.3522 40.69988,-39.3522z" fill="#737373" stroke="#000000"/><path d="M-38.56201,339.66931c0,-2.64315 10.57475,8.57192 23.25989,11.8434c11.33292,2.92274 24.64039,-1.94551 28.9615,-5.52531c5.67875,-4.70454 15.65325,-13.27974 15.93204,-22.06652c0.44842,-14.13369 -10.49828,-28.81478 -2.02736,-28.81478c22.22983,0 14.37524,31.46352 14.37524,44.56323c0,13.09971 -18.02083,23.71914 -40.25066,23.71914c-22.22983,0 -40.25066,-10.61942 -40.25066,-23.71914z" fill="#484848" stroke="none"/><path d="M1.37812,285.64593c22.47791,0 40.69988,17.61857 40.69988,39.3522c0,21.73363 -18.22197,39.3522 -40.69988,39.3522c-22.47791,0 -40.69988,-17.61857 -40.69988,-39.3522c0,-21.73363 18.22197,-39.3522 40.69988,-39.3522z" fill="none" stroke="#000000"/></g><g><path d="M190.14636,140.48186c47.30282,10.15053 77.67388,55.54578 67.83567,101.39312c-9.8382,45.84734 -56.16015,74.78533 -103.46297,64.6348c-47.30282,-10.15053 -77.67388,-55.54578 -67.83567,-101.39312c9.8382,-45.84734 56.16015,-74.78533 103.46297,-64.6348z" fill="#737373" stroke="#000000" stroke-linecap="butt"/><path d="M211.48785,282.3552c31.80292,-8.29567 28.30089,-57.55628 44.03814,-54.17928c7.8047,1.67478 7.73489,6.42025 7.54006,11.36478c-0.68441,17.37002 -36.93459,48.53765 -38.90384,57.71464c-0.55088,2.56717 -13.43296,1.73797 -16.40404,3.48524c-10.67315,6.27682 -24.39983,10.0882 -51.95241,4.1758c-25.28386,-5.42557 -43.07452,-19.03839 -51.85853,-28.39199c-3.4528,-3.67669 -8.05045,-3.31333 -7.33662,-6.63986c1.39951,-6.52189 75.50025,22.74198 114.87724,12.47066z" fill="#484848" stroke="none" stroke-linecap="butt"/><path d="M190.56033,141.12204c47.30282,10.15053 77.67388,55.54578 67.83567,101.39312c-9.8382,45.84734 -56.16015,74.78533 -103.46297,64.6348c-47.30282,-10.15053 -77.67388,-55.54578 -67.83567,-101.39312c9.8382,-45.84734 56.16015,-74.78533 103.46297,-64.6348z" fill="none" stroke="#000000" stroke-linecap="butt"/><path d="M174.76396,206.59331c23.28753,4.99718 39.73521,20.37516 36.7369,34.34769c-2.99831,13.97253 -24.30721,21.24847 -47.59474,16.25129c-23.28753,-4.99718 -39.73521,-20.37516 -36.7369,-34.34769c2.99831,-13.97253 24.30721,-21.24847 47.59474,-16.25129z" fill="#484848" stroke="none" stroke-linecap="butt"/><path d="M143.74355,194.42333c8.44172,1.81148 12.70259,15.31488 9.51688,30.16068c-3.1857,14.8458 -12.61161,25.41221 -21.05334,23.60074c-8.44172,-1.81148 -12.70259,-15.31488 -9.51688,-30.16068c3.1857,-14.8458 12.61161,-25.41221 21.05334,-23.60074z" fill="#000000" stroke="#000000" stroke-linecap="butt"/><path d="M204.99155,226.31196c10.33385,2.2175 17.36918,10.26856 15.71387,17.98257c-1.65532,7.714 -11.37445,12.16979 -21.7083,9.95229c-10.33385,-2.2175 -17.36918,-10.26856 -15.71387,-17.98257c1.65532,-7.714 11.37445,-12.16979 21.7083,-9.95229z" fill="#ffffff" stroke="#000000" stroke-linecap="butt"/><path d="M103.76129,172.04737l22.62569,7.61187l-0.91147,27.37156" fill="none" stroke="#000000" stroke-linecap="round"/><path d="M121.4927,260.00916l-0.70571,10.14031" fill="none" stroke="#000000" stroke-linecap="round"/><path d="M154.4743,260.47044l-1.05562,4.91934" fill="none" stroke="#000000" stroke-linecap="round"/><path d="M201.00455,280.01179l1.05562,-4.91934" fill="none" stroke="#000000" stroke-linecap="round"/></g></g></g></svg>