<svg version="1.1" xmlns="http://www.w3.org/2000/svg" xmlns:xlink="http://www.w3.org/1999/xlink" width="128.66742" height="219.69074" viewBox="0,0,128.66742,219.69074"><defs><linearGradient x1="226.88086" y1="132.47172" x2="226.88086" y2="173.13839" gradientUnits="userSpaceOnUse" id="color-1"><stop offset="0" stop-color="#0080b4" stop-opacity="0"/><stop offset="1" stop-color="#0080b4"/></linearGradient></defs><g transform="translate(-175.66629,-70.15463)"><g data-paper-data="{&quot;isPaintingLayer&quot;:true}" fill-rule="nonzero" stroke-linejoin="miter" stroke-miterlimit="10" stroke-dasharray="" stroke-dashoffset="0" style="mix-blend-mode: normal"><g data-paper-data="{&quot;index&quot;:null}"><path d="M275.18389,267.70679c0,12.87188 -10.21223,20.22104 -17.3109,20.22104c-2.92913,0 -8.25993,-1.31984 -11.52233,-6.71148c-4.64392,-7.67485 -6.83461,-21.03458 -6.83461,-28.59511c0,-12.87188 -2.76069,-17.75166 4.33798,-17.75166c7.09867,0 31.32986,19.96534 31.32986,32.83722z" fill="#ffffff" stroke="#000000" stroke-width="0" stroke-linecap="butt"/><path d="M277.33371,267.97306c0,6.20251 -3.48856,21.87231 -11.6964,21.87231c-3.75985,0 -16.16743,-0.67806 -20.71057,-5.26069c-5.37464,-5.42136 -2.6182,-15.10869 -2.6182,-18.46995c0,-5.8136 3.21859,18.20503 10.71033,17.62823c0.15662,-0.01205 19.23716,4.0342 17.38841,-8.07146c-0.34929,-2.28713 -2.12869,-8.71343 -2.64554,-10.21337c-3.14143,-9.11674 -21.33871,-29.65404 -21.03489,-29.65404c8.20783,0 30.60686,25.96647 30.60686,32.16898z" fill="#c7c7c7" stroke="none" stroke-width="0" stroke-linecap="butt"/><path d="M275.98722,267.46527c0,6.33594 0.39758,16.21263 -5.63446,19.5315c-6.22244,3.42363 -18.93387,0.18955 -22.53836,0.18955c-7.09867,0 -8.61969,-21.93472 -8.61969,-34.8066c0,-12.87188 -2.76069,-17.75166 4.33798,-17.75166c7.09867,0 32.45452,19.96534 32.45452,32.83722z" fill="none" stroke="#000000" stroke-width="4" stroke-linecap="butt"/><path d="M271.38907,258.4337l-10.44329,0.3147l-20.72591,-4.44186" fill="none" stroke="#000000" stroke-width="4" stroke-linecap="round"/></g><g data-paper-data="{&quot;index&quot;:null}"><path d="M229.64597,233.86957c7.09867,0 4.33798,4.87978 4.33798,17.75166c0,7.56054 -2.19069,20.92027 -6.83461,28.59512c-3.26239,5.39164 -8.5932,6.71148 -11.52233,6.71148c-7.09867,0 -17.3109,-7.34916 -17.3109,-20.22104c0,-12.87188 24.23119,-32.83722 31.32986,-32.83722z" fill="#ffffff" stroke="#000000" stroke-width="0" stroke-linecap="butt"/><path d="M226.77315,234.80408c0.30382,0 -17.89346,20.53731 -21.03489,29.65404c-0.51685,1.49994 -2.29625,7.92625 -2.64553,10.21337c-1.84875,12.10566 17.23179,8.05941 17.38841,8.07147c7.49174,0.57681 10.71033,-23.44183 10.71033,-17.62823c0,3.36126 2.75643,13.0486 -2.61821,18.46995c-4.54314,4.58263 -16.95072,5.26069 -20.71057,5.26069c-8.20784,0 -11.6964,-15.6698 -11.6964,-21.87231c0,-6.20251 22.39903,-32.16898 30.60686,-32.16898z" fill="#c7c7c7" stroke="none" stroke-width="0" stroke-linecap="butt"/><path d="M229.9673,233.62805c7.09867,0 4.33798,4.87978 4.33798,17.75166c0,12.87188 -1.52102,34.8066 -8.61969,34.8066c-3.60448,0 -16.31592,3.23409 -22.53836,-0.18954c-6.03204,-3.31887 -5.63446,-13.19556 -5.63446,-19.5315c0,-12.87188 25.35585,-32.83722 32.45452,-32.83722z" fill="none" stroke="#000000" stroke-width="4" stroke-linecap="butt"/><path d="M233.28012,253.30654l-20.72591,4.44186l-10.44329,-0.3147" fill="none" stroke="#000000" stroke-width="4" stroke-linecap="round"/></g><g data-paper-data="{&quot;index&quot;:null}"><path d="M302.73854,223.25305c0,13.32387 -17.9543,8.125 -29,8.125c-11.04569,0 -20,-10.80113 -20,-24.125c0,-13.32387 -4.29569,-18.375 6.75,-18.375c11.0457,0 42.25,21.05113 42.25,34.375z" fill="#ffffff" stroke="#000000" stroke-width="0" stroke-linecap="butt"/><path d="M304.33371,221.22037c0,6.42031 -10.35342,11.625 -23.125,11.625c-12.77159,0 -23.125,-5.20469 -23.125,-11.625c0,-6.01775 11.59577,2.28247 23.25309,1.68541c0.31945,-0.01636 19.74448,4.18299 16.35269,-2.36507c-4.88814,-9.43687 -33.20354,-30.69533 -32.73078,-30.69533c12.77158,0 39.375,24.95469 39.375,31.375z" fill="#c7c7c7" stroke="none" stroke-width="0" stroke-linecap="butt"/><path d="M302.23854,223.00305c0,13.32387 -17.9543,8.125 -29,8.125c-11.04569,0 -20,-10.80113 -20,-24.125c0,-13.32387 -4.29569,-18.375 6.75,-18.375c11.0457,0 42.25,21.05113 42.25,34.375z" fill="none" stroke="#000000" stroke-width="4" stroke-linecap="butt"/><path d="M292.58371,208.84537l-5.5,4.75l-30,1.75" fill="none" stroke="#000000" stroke-width="4" stroke-linecap="round"/></g><g><path d="M219.51146,188.12805c11.04569,0 6.75,5.05113 6.75,18.375c0,13.32387 -8.95431,24.125 -20,24.125c-11.04569,0 -29,5.19887 -29,-8.125c0,-13.32387 31.20431,-34.375 42.25,-34.375z" fill="#ffffff" stroke="#000000" stroke-width="0" stroke-linecap="butt"/><path d="M175.6663,220.47037c0,-6.42031 26.60342,-31.375 39.375,-31.375c0.47275,0 -27.84265,21.25846 -32.73079,30.69533c-3.39179,6.54806 16.03324,2.34871 16.35269,2.36507c11.65731,0.59706 23.25309,-7.70315 23.25309,-1.6854c0,6.42031 -10.35342,11.625 -23.125,11.625c-12.77158,0 -23.125,-5.20469 -23.125,-11.625z" fill="#c7c7c7" stroke="none" stroke-width="0" stroke-linecap="butt"/><path d="M220.01146,187.87805c11.04569,0 6.75,5.05113 6.75,18.375c0,13.32387 -8.95431,24.125 -20,24.125c-11.04569,0 -29,5.19887 -29,-8.125c0,-13.32387 31.20431,-34.375 42.25,-34.375z" fill="none" stroke="#000000" stroke-width="4" stroke-linecap="butt"/><path d="M222.91629,214.59537l-30,-1.75l-5.5,-4.75" fill="none" stroke="#000000" stroke-width="4" stroke-linecap="round"/></g><g><path d="M237.60065,173.31965c10.12338,0 27.59571,25.8534 27.59571,45.32143c0,19.46803 -17.47233,25.17857 -27.59571,25.17857c-10.12337,0 -29.20714,-5.30768 -29.20714,-24.77571c0,-19.46804 19.08376,-45.72429 29.20714,-45.72429z" fill="#ffffff" stroke="#000000" stroke-width="0" stroke-linecap="butt"/><path d="M225.47878,185.10003c2.92636,0 -5.82426,10.93937 -8.2344,21.80526c-2.54845,11.48945 1.23657,23.03841 4.72329,26.8645c4.18641,4.59388 14.46205,4.82319 22.4456,2.46542c11.12211,-3.28467 19.86551,-10.46142 19.86551,-7.83518c0,7.5663 -12.08831,13.7 -27,13.7c-14.91169,0 -27,-6.1337 -27,-13.7c0,-7.5663 0.28831,-43.3 15.2,-43.3z" fill="#c7c7c7" stroke="none" stroke-width="0" stroke-linecap="butt"/><path d="M237.60065,173.31965c10.12338,0 27.59571,25.85339 27.59571,45.32143c0,19.46804 -17.47233,25.17857 -27.59571,25.17857c-10.12338,0 -29.20714,-5.30767 -29.20714,-24.77571c0,-19.46804 19.08376,-45.72429 29.20714,-45.72429z" fill="none" stroke="#000000" stroke-width="4" stroke-linecap="butt"/><path d="M263.18208,216.02251l-53.58,-2.01429" fill="none" stroke="#000000" stroke-width="4" stroke-linecap="round"/></g><g><path d="M257.51582,79.71961c7.53578,-2.92525 22.16746,3.02334 26.85814,4.6867c8.32841,2.95334 0.02823,13.34661 -3.32504,22.80283c-3.35327,9.45623 -12.82314,14.72786 -21.15156,11.77452c-8.32841,-2.95334 -12.36157,-13.01328 -9.0083,-22.4695c1.46466,-4.13035 0.78258,-14.52595 6.62676,-16.79455z" fill="#bd0000" stroke="#000000" stroke-width="0" stroke-linecap="butt"/><path d="M251.22241,96.18083c1.46466,-4.13035 0.78258,-14.52595 6.62676,-16.79455c7.53577,-2.92525 22.16745,3.02334 26.85813,4.6867c8.32841,2.95334 0.02823,13.34661 -3.32504,22.80283c-3.35327,9.45622 -12.82314,14.72785 -21.15156,11.77451c-8.32842,-2.95334 -12.36157,-13.01328 -9.0083,-22.4695z" fill="none" stroke="#000000" stroke-width="4" stroke-linecap="butt"/><path d="M268.76515,97.15765c4.50863,1.60703 1.92853,10.77562 0.22878,15.54436c-1.69974,4.76874 -1.87548,3.33181 -6.38411,1.72477c-4.50863,-1.60703 -6.92853,-0.63276 -5.22878,-5.4015c1.69974,-4.76874 6.87548,-13.47467 11.38411,-11.86763z" fill="#3b3b3b" stroke="#000000" stroke-width="2.5" stroke-linecap="butt"/><path d="M253.7732,103.38813c14.72759,0 26.66666,10.14821 26.66666,22.66666c0,12.51845 -11.93907,22.66666 -26.66666,22.66666c-14.72759,0 -26.66666,-10.14821 -26.66666,-22.66666c0,-12.51845 11.93906,-22.66666 26.66666,-22.66666z" fill="#f1f1f1" stroke="#000000" stroke-width="0" stroke-linecap="butt"/><path d="M244.10653,127.05479c0,-6.44332 -17.31913,-13.33333 -8.66667,-13.33333c2.7891,0 10.65071,-1.67366 16.86243,-0.11201c3.30555,0.83103 13.0048,6.82734 15.98023,5.82467c1.04382,-0.35175 4.51381,-6.61828 -4.18243,-10.16004c-3.28434,-1.33762 -21.8075,0.07115 -23.15867,-1.10454c-2.57329,-2.23911 12.19535,-3.15039 12.33013,-3.85018c0.45059,-2.33947 18.8036,5.7115 20.46998,7.01247c2.70879,2.1148 5.36501,16.874 5.36501,18.38963c0,6.44332 -10.68087,9 -19.33333,9c-8.65246,0 -15.66667,-5.22335 -15.66667,-11.66667z" fill="#cfcfcf" stroke="none" stroke-width="0" stroke-linecap="butt"/><path d="M253.77321,103.38812c14.7276,0 26.66667,10.14822 26.66667,22.66667c0,12.51846 -11.93908,22.66667 -26.66667,22.66667c-14.7276,0 -26.66667,-10.14822 -26.66667,-22.66667c0,-12.51846 11.93908,-22.66667 26.66667,-22.66667z" fill="none" stroke="#000000" stroke-width="4" stroke-linecap="butt"/><path d="M200.76372,131.30814c0,-9.75703 21.48103,-16 40.16666,-16c9.67611,0 16.89885,3.69829 24.18594,7.0123c6.78509,3.08571 13.98073,5.61655 13.98073,10.32103c0,2.47836 1.83418,7.88981 4.11843,14.96893c2.21533,6.86555 0.59989,15.67263 -2.54146,22.05065c-6.37143,12.93619 -31.40741,19.98041 -40.74364,19.98041c-10.88425,0 -37.2288,-10.91637 -43.13436,-26.13512c-1.07934,-2.7815 -4.10188,-4.48015 -4.25288,-8.69516c-0.20702,-5.77896 2.93101,-14.2353 5.12903,-17.9513c2.48595,-4.20277 4.75821,-4.94103 4.75821,-6.55175z" fill="#ffffff" stroke="none" stroke-width="0" stroke-linecap="butt"/><path d="M192.71419,152.80505c0,-5.80974 1.09425,-18.38371 7.65931,-22.08912c6.12471,-3.45687 17.39989,1.75579 26.50736,1.75579c2.81485,0 14.03715,-2.79105 20.82482,-2.63347c6.47623,0.15035 8.43725,3.25394 14.66025,3.08465c4.29845,-0.11693 8.67657,-3.90908 11.12718,-3.14408c15.21023,4.74812 9.88775,19.84062 9.88775,26.6929c0,11.22979 -22.9636,22.33333 -41.83333,22.33333c-14.80134,0 -38.42848,-6.4211 -47.06624,-15.75955c-2.37423,-2.56683 -1.76709,-7.81926 -1.76709,-10.24045z" fill="url(#color-1)" stroke="none" stroke-width="0" stroke-linecap="butt"/><path d="M205.87349,178.51962c0,-2.39323 24.8252,6.66667 32.83333,6.66667c3.11957,0 14.07647,-2.15434 21.8146,-5.05006c12.12609,-4.53776 22.6854,-14.41089 22.6854,-12.94994c0,1.4388 -5.1614,9.00683 -17.13329,15.08019c-7.94156,4.02877 -23.17304,7.58648 -26.36671,7.58648c-8.00813,0 -33.83333,-8.9401 -33.83333,-11.33333z" fill="#c7c7c7" stroke="none" stroke-width="0" stroke-linecap="butt"/><path d="M216.12616,129.40109c7.35117,-0.55483 17.32672,-4.43237 26.99253,-4.43237c9.89714,0 14.80794,2.20494 19.73104,2.80671c4.32584,0.52876 9.26896,-0.71207 9.26896,1.52662c0,4.78647 -10.07308,1 -28.66667,1c-9.30911,0 -14.3224,1.94913 -21.66842,2.29631c-7.32659,0.34626 -16.99825,-0.90625 -16.99825,-3.29631c0,-2.29824 4.55095,0.6115 11.34081,0.09904z" fill="#c7c7c7" stroke="none" stroke-width="0" stroke-linecap="butt"/><path d="M238.30313,115.22641c25.68124,0 46.5,16.34161 46.5,36.5c0,20.15839 -20.81876,36.5 -46.5,36.5c-25.68124,0 -46.5,-16.34161 -46.5,-36.5c0,-20.15839 20.81876,-36.5 46.5,-36.5z" fill="none" stroke="#000000" stroke-width="4" stroke-linecap="butt"/><path d="M283.13646,163.06539l-25,15.33333h-32l-28.33333,-13.66667" fill="none" stroke="#000000" stroke-width="4" stroke-linecap="round"/><path d="M275.31046,128.00498l-15,6l-4.33333,-4h-27.33333l-6.33333,4.33333l-18.66667,-3" fill="none" stroke="#000000" stroke-width="4" stroke-linecap="round"/><path d="M241.26146,150.64308c5.24671,0 9.5,1.39911 9.5,3.125c0,1.72589 -4.25329,3.125 -9.5,3.125c-5.24671,0 -9.5,-1.39911 -9.5,-3.125c0,-1.72589 4.25329,-3.125 9.5,-3.125z" fill="#008bb7" stroke="none" stroke-width="0" stroke-linecap="butt"/><path d="M231.99975,153.29962c0,-0.99116 0.80349,-1.79465 1.79465,-1.79465c0.99116,0 1.79465,0.80349 1.79465,1.79465c0,0.99116 -0.80349,1.79465 -1.79465,1.79465c-0.99116,0 -1.79465,-0.80349 -1.79465,-1.79465z" fill="#000000" stroke="none" stroke-width="0.5" stroke-linecap="butt"/><path d="M246.5962,153.7782c0,-0.99116 0.80349,-1.79465 1.79465,-1.79465c0.99116,0 1.79465,0.80349 1.79465,1.79465c0,0.99116 -0.80349,1.79465 -1.79465,1.79465c-0.99116,0 -1.79465,-0.80349 -1.79465,-1.79465z" fill="#000000" stroke="none" stroke-width="0.5" stroke-linecap="butt"/><path d="M223.97714,145.17165c2.5,0 2.5,2.5 2.5,2.5v2c-0.03975,1.1432 0.27135,2.35448 -0.11926,3.42961c-0.58359,1.60627 -1.68335,2.796 -2.96758,3.81646c0.97118,1.06657 3.03815,3.3126 3.69964,3.71459c2.85137,1.73278 6.46692,1.28233 9.64653,1.45798c3.56273,0.19682 7.09624,0.39433 10.66489,0.41353c1.69242,0.0091 3.48749,0.25847 5.13147,-0.35082c2.06764,-0.76632 3.32626,-2.67186 4.34984,-4.47947l0.02725,-0.84036c0,0 0.29504,-1.77023 2.06526,-1.47519c1.77023,0.29504 1.47519,2.06526 1.47519,2.06526l-0.45132,2.03107c-1.45985,2.53521 -3.30319,4.98145 -6.17874,6.04912c-2.30048,0.85415 -3.94722,0.59592 -6.43295,0.58965c-3.62994,-0.00916 -7.2255,-0.21879 -10.84887,-0.41896c-3.96611,-0.2191 -7.77728,0.11162 -11.35392,-2.00001c-1.17635,-0.69451 -3.77547,-3.61267 -4.77117,-4.69699c-0.65912,0.43327 -1.30505,0.86908 -1.9014,1.33458c0,0 -1.97338,1.53485 -3.50823,-0.43853c-1.53485,-1.97338 0.43853,-3.50823 0.43853,-3.50823c2.71429,-2.10424 6.26623,-2.99988 6.03485,-6.69329v-2c0,0 0,-2.5 2.5,-2.5z" fill="#000000" stroke="none" stroke-width="0.5" stroke-linecap="butt"/><path d="M270.37796,84.81602c5.79899,0 10.5,3.8802 10.5,8.66667c0,4.78647 -4.70101,8.66667 -10.5,8.66667c-5.79899,0 -10.5,-3.8802 -10.5,-8.66667c0,-4.78647 4.70101,-8.66667 10.5,-8.66667z" fill="#e60000" stroke="none" stroke-width="0" stroke-linecap="butt"/><path d="M234.77435,88.18458c0.38652,-3.24474 -3.89379,-19.01071 4.74363,-17.9818c3.9516,0.47072 3.3969,5.61195 8.67518,10.02042c6.25899,5.22757 18.06974,9.9271 17.86005,11.68738c-0.23757,1.99437 -8.71385,-0.15961 -16.15139,2.81715c-4.66294,1.86628 -8.07845,9.8222 -11.4069,9.42571c-8.63741,-1.0289 -4.10708,-12.72412 -3.72056,-15.96886z" fill="#e60000" stroke="none" stroke-width="0" stroke-linecap="butt"/><path d="M297.66908,96.28608c-0.22478,3.25355 1.23597,15.63941 -5.17644,14.83125c-2.47103,-0.31143 -3.70625,-8.80725 -6.79143,-11.61126c-4.92094,-4.47247 -11.39165,-4.1468 -11.25349,-6.14659c0.12194,-1.76506 9.40223,-3.87916 14.74586,-7.67555c4.50634,-3.20154 4.90428,-8.3446 7.83794,-7.97487c6.4124,0.80816 0.86233,15.32347 0.63756,18.57702z" data-paper-data="{&quot;index&quot;:null}" fill="#e60000" stroke="none" stroke-width="0" stroke-linecap="butt"/></g></g></g></svg>