<svg version="1.1" xmlns="http://www.w3.org/2000/svg" xmlns:xlink="http://www.w3.org/1999/xlink" width="527.57076" height="588.70566" viewBox="0,0,527.57076,588.70566"><g transform="translate(-90.10113,53.34312)"><g data-paper-data="{&quot;isPaintingLayer&quot;:true}" fill-rule="nonzero" stroke-width="5.5" stroke-linejoin="miter" stroke-miterlimit="10" stroke-dasharray="" stroke-dashoffset="0" style="mix-blend-mode: normal"><g data-paper-data="{&quot;index&quot;:null}" stroke-linecap="butt"><path d="M136.09321,382.83592c22.62817,-11.66104 44.94651,-13.40146 49.84946,-3.88733c4.90294,9.51413 -10.5013,124.15547 -33.12947,135.81651c-22.62817,11.66104 -54.67957,5.36733 -59.58251,-4.1468c-4.90294,-9.51413 20.23436,-116.12134 42.86253,-127.78238z" fill="#840000" stroke="#000000"/><path d="M141.21757,495.56422c8.02687,-4.1365 23.30676,-17.04741 30.91354,-37.93355c14.75159,-40.50373 20.24437,-97.9392 25.36172,-88.00903c7.75616,15.05076 -11.49893,118.71416 -35.09202,130.87245c-23.59309,12.15829 -52.68931,11.71128 -60.44547,-3.33947c-7.75616,-15.05076 15.66914,10.56789 39.26223,-1.5904z" fill="#430000" stroke="none"/><path d="M135.71365,382.09939c22.62817,-11.66104 44.9465,-13.40148 49.84944,-3.88735c4.90294,9.51413 -10.50129,124.15547 -33.12945,135.81651c-22.62817,11.66104 -54.67957,5.36733 -59.58251,-4.1468c-4.90294,-9.51413 20.23436,-116.12133 42.86253,-127.78236z" fill="none" stroke="#000000"/></g><g data-paper-data="{&quot;index&quot;:null}" stroke-linecap="butt"><path d="M612.87157,508.39363c-4.90294,9.51413 -36.95435,15.80783 -59.58251,4.1468c-22.62817,-11.66104 -38.03242,-126.30238 -33.12947,-135.81651c4.90294,-9.51413 27.22129,-7.7737 49.84946,3.88733c22.62817,11.66104 47.76547,118.26825 42.86253,127.78238z" fill="#840000" stroke="#000000"/><path d="M616.15893,505.44046c-7.75616,15.05076 -36.85238,15.49776 -60.44547,3.33947c-23.59309,-12.15829 -42.84818,-115.82169 -35.09202,-130.87245c5.11735,-9.93018 10.61013,47.5053 25.36172,88.00903c7.60678,20.88614 22.88667,33.79704 30.91354,37.93355c23.59309,12.15829 47.01839,-13.46036 39.26223,1.5904z" fill="#430000" stroke="none"/><path d="M613.25113,507.65708c-4.90294,9.51413 -36.95435,15.80783 -59.58251,4.1468c-22.62817,-11.66104 -38.0324,-126.30238 -33.12945,-135.81651c4.90294,-9.51413 27.22127,-7.77369 49.84944,3.88735c22.62817,11.66104 47.76547,118.26824 42.86253,127.78236z" fill="none" stroke="#000000"/></g><g stroke-linecap="butt"><path d="M238.69814,465.13373c0,-45.17673 6.6181,-152.55188 35.74509,-198.82492c20.69073,-32.87061 60.31687,-13.95981 83.01847,-13.95981c29.13943,0 57.41169,-22.41116 72.41896,25.49873c13.14322,41.95904 27.45044,143.11242 27.45044,179.18845c0,77.26853 -45.20994,75.12694 -99.86937,75.12694c-54.6594,0 -118.76356,10.23914 -118.76356,-67.02943z" fill="#840000" stroke="#000000"/><path d="M259.3654,465.97186c0,-44.38563 9.53272,-128.8118 33.03218,-171.69849c14.51562,-26.49111 39.36816,-24.89121 55.59066,-24.89121c19.23378,0 41.54647,-4.38897 57.2539,26.02863c18.98852,36.77144 29.56946,112.37048 29.56946,151.66685c0,71.80263 -44.33807,82.32475 -86.82336,82.32475c-42.48529,0 -88.62284,8.37207 -88.62284,-63.43056z" fill="#7d3c3c" stroke="#000000"/><path d="M272.97379,358.76087c0,-21.47675 23.98322,-87.57386 62.18089,-88.6941c1.28633,-0.03775 31.23657,-15.97628 32.53983,-15.97628c40.00391,0 50.14627,50.63149 50.14627,72.83147c0,22.19997 -51.53289,-19.50131 -91.53681,-19.50131c-40.00391,0 -53.33016,73.5402 -53.33016,51.34023z" fill="#5c2c2c" stroke="none"/><path d="M243.17372,499.25423c0,-19.37924 -6.45066,-233.02852 52.18399,-233.02852c10.83632,0 -11.37264,36.90756 -22.60094,83.44526c-13.6947,56.76013 -17.19639,126.96843 -1.52675,151.0061c40.99997,62.89519 184.27854,-12.85239 184.27854,-1.42284c0,19.37924 -47.53279,35.08922 -106.16744,35.08922c-58.63465,0 -106.16744,-15.70998 -106.16744,-35.08922z" fill="#430000" stroke="none"/><path d="M265.49248,488.62603c0,-12.74852 34.22315,-7.16377 78.40329,-7.16377c44.18014,0 87.15897,-27.07599 87.15897,-14.3275c0,6.15992 -3.66652,29.24625 -19.02216,42.4135c-16.42422,14.08353 -45.30397,18.08039 -68.13681,18.08039c-24.59468,0 -50.0835,-0.97253 -64.32032,-10.3857c-11.33721,-7.49596 -14.08297,-22.96542 -14.08297,-28.61696z" fill="#5c2c2c" stroke="none"/><path d="M292.81698,293.58545c14.51559,-26.49111 39.36813,-24.89121 55.59063,-24.89121c19.23381,0 41.5465,-4.38897 57.25393,26.02863c18.98848,36.77144 29.56943,112.37051 29.56943,151.66688c0,71.8026 -44.33807,82.32475 -86.82336,82.32475c-42.48529,0 -88.62281,8.37204 -88.62281,-63.43056c0,-44.3856 9.53272,-128.8118 33.03218,-171.69849z" fill="none" stroke="#000000"/><path d="M276.76579,265.93213c20.69073,-32.87064 60.31684,-13.95984 83.01847,-13.95984c29.13943,0 57.41169,-22.4112 72.41896,25.49873c13.14322,41.95904 27.45041,143.11245 27.45041,179.18848c0,77.26853 -45.20994,75.12694 -99.86937,75.12694c-54.6594,0 -118.76356,10.23914 -118.76356,-67.02943c0,-45.17669 6.6181,-152.55184 35.74509,-198.82489z" fill="none" stroke="#000000"/></g><g><path d="M266.35638,14.24029c29.50015,3.16605 51.08416,27.44818 48.20924,54.23567c-2.87492,26.78746 -29.12009,45.93643 -58.62024,42.77038c-29.50011,-3.16605 -51.08413,-27.44818 -48.20921,-54.23566c2.87492,-26.7875 29.12006,-45.93644 58.62021,-42.77038z" fill="#840000" stroke="#000000" stroke-linecap="butt"/><path d="M226.25187,47.24499c-8.05322,21.45546 2.11435,47.00716 15.02737,48.39303c26.25749,2.81804 72.28242,-34.14661 70.01424,-13.01252c-2.26818,21.13408 -25.39281,35.98218 -51.65031,33.16415c-17.77567,-1.90774 -46.17827,-20.61859 -53.37951,-44.96283c-1.92888,-6.52061 7.98671,-36.25342 23.39708,-48.2471c12.04225,-9.37233 30.19616,-1.6795 30.51755,-4.67414c1.15272,-10.74066 -25.60415,7.16708 -33.92645,29.33941z" fill="#430000" stroke="none" stroke-linecap="butt"/><path d="M266.5951,15.19335c29.50015,3.16605 51.08415,27.44821 48.20924,54.23567c-2.87492,26.7875 -29.12009,45.93643 -58.62024,42.77038c-29.50015,-3.16605 -51.08415,-27.44821 -48.20924,-54.23567c2.87492,-26.7875 29.12009,-45.93643 58.62024,-42.77038z" fill="none" stroke="#000000" stroke-linecap="butt"/><path d="M250.23248,219.97445c13.90669,-10.72554 63.94123,-2.64141 99.62601,1.18839c31.44846,3.37515 61.14377,-2.07711 74.79588,9.34025c6.73204,5.63006 7.33405,26.72791 6.68896,32.73864c-1.95329,18.20005 -41.60218,28.86879 -88.55831,23.82931c-46.95613,-5.03948 -83.43812,-23.87883 -81.48483,-42.07889c0.46887,-4.36872 -15.46025,-21.62994 -11.0677,-25.0177z" fill="#000000" stroke="none" stroke-linecap="butt"/><g stroke-linecap="butt"><path d="M231.12547,226.82485c1.19744,-11.1573 10.33105,-19.32601 20.4005,-18.24532c2.52343,0.27082 -7.09114,7.28404 -4.29528,13.17059c4.74345,9.98705 22.6397,22.48927 32.1879,35.14923c7.28114,9.6541 31.44821,16.36399 31.05997,19.98145c-0.24886,2.31874 89.97559,2.67537 87.06481,7.46769c-0.25515,0.42009 20.10632,-7.74259 29.74193,-20.49094c6.00009,-7.93838 1.93141,-23.00638 4.19268,-22.53627c6.66812,1.38635 19.94366,-3.82418 18.78785,9.40194c-0.46148,5.2808 -14.28042,16.3517 -17.99197,24.54691c-5.1114,11.28608 -0.79115,19.37693 -4.20958,19.83758c-30.16063,4.0643 -134.22431,3.60797 -138.83343,1.02254c-15.19861,-8.5255 -36.65273,-46.56833 -42.04121,-47.14664c-10.06945,-1.08069 -17.26163,-11.00153 -16.0642,-22.15883z" fill="#840000" stroke="#000000"/><path d="M236.17038,214.9624c0.24148,-2.25007 9.72343,22.68964 30.35722,41.66515c16.9185,15.55882 39.68034,31.68551 48.95627,32.68103c20.5888,2.20966 113.61778,-0.69843 113.17829,3.39657c-0.43949,4.095 -89.35442,7.4937 -109.94321,5.28404c-5.52037,-0.59246 -15.70128,1.36579 -29.72319,-7.86304c-11.37463,-7.48643 -20.87645,-21.17542 -31.83446,-32.77945c-5.8384,-6.18259 -14.84004,-11.17325 -18.66703,-15.64784c-13.15956,-15.3865 -2.49901,-25.10462 -2.32388,-26.73644z" fill="#430000" stroke="none"/><path d="M231.62574,226.0452c1.19744,-11.1573 10.33105,-19.32601 20.4005,-18.24532c2.52343,0.27082 -7.09114,7.28404 -4.29528,13.17059c4.74345,9.98705 22.6397,22.48927 32.1879,35.14923c7.28117,9.65413 31.44823,16.36402 31.06,19.98146c-0.24885,2.31871 89.97559,2.67533 87.06481,7.46766c-0.25516,0.42012 20.10632,-7.74259 29.74193,-20.49091c6.00008,-7.93834 1.93141,-23.00635 4.19268,-22.53623c6.66812,1.38635 19.94369,-3.82418 18.78785,9.40194c-0.46148,5.2808 -14.28042,16.3517 -17.99197,24.54691c-5.1114,11.28608 -0.79115,19.37693 -4.20958,19.83758c-30.16062,4.06427 -134.22431,3.60797 -138.83342,1.02251c-15.19858,-8.52553 -36.6527,-46.56832 -42.04118,-47.14663c-10.06945,-1.08069 -17.26163,-11.00153 -16.0642,-22.15883z" fill="none" stroke="#000000"/></g><path d="M253.12811,235.61121l1.98942,-18.53668l177.12827,19.00998l-1.98942,18.53668z" fill="#ffffff" stroke="#000000" stroke-linecap="butt"/><path d="M253.12808,235.61117l1.98942,-18.53668l177.12827,19.00998l-1.98942,18.53668z" fill="none" stroke="#000000" stroke-linecap="butt"/><path d="M365.59106,57.01086c59.15017,6.34819 102.27129,56.49428 96.31376,112.0044c-3.0276,28.21009 -0.50057,56.76549 -21.91702,66.36926c-20.72556,9.29395 -64.96354,0.14054 -94.05375,-2.98151c-27.36146,-2.93652 -80.12828,-1.14488 -97.7997,-13.12644c-20.53079,-13.92028 -3.6329,-43.41764 -0.43118,-73.25012c5.95753,-55.51012 58.73775,-95.36377 117.88788,-89.01559z" fill="#840000" stroke="#000000" stroke-linecap="butt"/><path d="M355.27001,142.26582c30.48507,3.27176 54.01053,16.9896 52.54556,30.63962c-1.46496,13.65001 -27.36559,22.06329 -57.85067,18.79154c-30.48507,-3.27176 -107.33001,2.28823 -105.86504,-11.36178c0.46162,-4.30117 -0.52719,-54.4965 21.90662,-87.88269c10.37038,-15.43328 46.00164,-26.73888 52.74058,-29.2202c10.17835,-3.74774 -47.927,35.3227 -60.39728,71.44346c-6.94245,20.10906 28.32963,40.30381 30.07829,49.28913c2.14628,11.02862 23.47224,-25.91944 42.25402,-40.65846c5.79888,-4.55066 23.17301,-1.19247 24.588,-1.04061z" fill="#430000" stroke="none" stroke-linecap="butt"/><path d="M365.67948,56.18701c59.15017,6.34819 102.27129,56.49428 96.31376,112.0044c-3.0276,28.21009 -0.50057,56.76549 -21.91702,66.36926c-20.72556,9.29395 -64.96354,0.14054 -94.05375,-2.98151c-27.36146,-2.93652 -80.12828,-1.14488 -97.7997,-13.12644c-20.53079,-13.92028 -3.6329,-43.41764 -0.43118,-73.25012c5.95753,-55.51012 58.73775,-95.36377 117.88788,-89.01559z" fill="none" stroke="#000000" stroke-linecap="butt"/><path d="M278.99845,126.92993c22.97758,2.46603 68.39856,11.04593 66.71385,26.74348c-1.68471,15.69755 8.36304,33.81455 -14.61454,31.34852c-22.97758,-2.46603 -75.31496,-0.95477 -73.63025,-16.65233c1.68471,-15.69755 -1.44662,-43.90571 21.53095,-41.43968z" fill="#000000" stroke="#000000" stroke-linecap="butt"/><path d="M444.89627,190.98509c-1.68471,15.69755 -52.50946,3.11461 -75.48704,0.64858c-22.97758,-2.46603 -9.31419,-18.03827 -7.62948,-33.73582c1.68471,-15.69755 47.89194,-14.44361 70.86952,-11.97758c22.97758,2.46603 13.93171,29.36728 12.247,45.06484z" data-paper-data="{&quot;index&quot;:null}" fill="#000000" stroke="#000000" stroke-linecap="butt"/><path d="M255.45213,178.87342c18.37171,-3.49808 58.86011,4.83048 90.01176,8.17378c33.42943,3.58775 73.25855,3.57887 90.09946,11.55355c10.20685,4.83323 4.27118,25.37862 3.75522,30.18623c-1.3673,12.74006 -45.11599,10.15815 -98.80612,4.39595c-23.8092,-2.55528 -64.79197,-4.84136 -81.33198,-10.02702c-20.75798,-6.50809 -14.16786,-16.38383 -13.4069,-23.47423c0.57398,-5.34812 -3.61354,-18.27736 9.67855,-20.80826z" fill="#7d3c3c" stroke="#000000" stroke-linecap="butt"/><path d="M286.93191,178.71409c8.99281,0.96514 -11.25312,1.67787 -22.17894,8.02026c-10.76657,6.24997 -12.2332,18.11406 -1.24077,21.29219c46.1449,13.34141 176.88216,16.08774 176.37073,20.8531c-0.7569,7.05254 -46.00148,7.97977 -101.05663,2.07107c-55.05513,-5.9087 -99.07256,-16.41582 -98.31566,-23.46835c0.7569,-7.05254 -8.63385,-34.67695 46.42127,-28.76826z" fill="#5c2c2c" stroke="none" stroke-linecap="butt"/><path d="M257.27667,177.40255c18.37171,-3.49808 58.86011,4.83048 90.01176,8.17378c33.42943,3.58775 73.25855,3.57887 90.09946,11.55355c10.20685,4.83323 4.27118,25.37862 3.75522,30.18623c-1.3673,12.74002 -45.11599,10.15815 -98.80612,4.39595c-23.8092,-2.55528 -64.79197,-4.84136 -81.33198,-10.02702c-20.75798,-6.50809 -14.16786,-16.38383 -13.4069,-23.47423c0.57398,-5.34812 -3.61354,-18.27736 9.67855,-20.80826z" fill="none" stroke="#000000" stroke-linecap="butt"/><path d="M324.56134,155.78584c1.64771,0.17684 1.47087,1.82455 1.47087,1.82455c-0.29473,2.7462 -0.76629,7.14004 -1.06102,9.88623c0,0 -0.17684,1.64771 -1.82455,1.47087c-1.64771,-0.17684 -1.47087,-1.82455 -1.47087,-1.82455c0.29473,-2.7462 0.58945,-5.49233 0.88419,-8.23853l0.17684,-1.64771c0,0 0.17684,-1.64771 1.82455,-1.47087z" fill="#ffffff" stroke="none" stroke-linecap="butt"/><path d="M381.76083,158.5913c1.64771,0.17684 1.47087,1.82455 1.47087,1.82455l-0.08842,0.82385c-0.50257,4.68275 -1.9144,9.42253 -2.32696,13.91707c0,0 -0.17684,1.64771 -1.82455,1.47087c-1.64771,-0.17684 -1.47087,-1.82455 -1.47087,-1.82455c0.54379,-4.58542 1.816,-9.15609 2.32696,-13.91707l0.08842,-0.82385c0,0 0.17684,-1.64771 1.82455,-1.47087z" fill="#ffffff" stroke="none" stroke-linecap="butt"/><path d="M318.16022,175.51572c-0.73349,-0.07872 -0.55665,-1.72643 -0.55665,-1.72643l0.17684,-1.64771c0.29761,-1.82382 -1.8616,-4.86398 -2.41516,-6.58077c-0.1367,-0.42398 -0.14827,-0.83452 -0.10518,-1.1898c0.03328,-0.35636 0.13171,-0.75511 0.35526,-1.14038c0.05848,-0.10082 0.11494,-0.1824 0.16919,-0.24741c-0.26087,0.04251 -0.60378,-0.1024 -0.3959,-1.3654c0.34729,-2.11008 1.17585,-2.03753 1.74413,-3.28368c0.92319,-2.02451 0.16392,-6.05883 2.04703,-9.30441c0,0 0.6437,-1.10942 1.03733,0.11133c0.39362,1.22075 -0.25009,2.33022 -0.25009,2.33022c-1.88815,3.2543 -2.39638,9.62601 -3.00446,12.71775c1.03151,2.53036 2.60765,4.2021 2.28484,8.11006l-0.17684,1.64771c0,0 -0.17684,1.64771 -0.91033,1.56899z" fill="#ffffff" stroke="none" stroke-linecap="butt"/><path d="M324.77897,174.97605l0.17684,-1.64771c0.51385,-3.88746 2.40883,-5.18663 3.95378,-7.44052c0.06184,-3.1504 0.91731,-9.48482 -0.23727,-13.06566c0,0 -0.39362,-1.22079 0.25009,-2.33022c0.64371,-1.10946 1.03729,0.11133 1.03729,0.11133c1.15147,3.57129 -0.44657,7.35258 0.02599,9.52689c0.29086,1.33836 1.11598,1.44332 1.0076,3.57904c-0.06486,1.27835 -0.43071,1.34715 -0.67662,1.2503c0.03922,0.07501 0.07704,0.16673 0.11283,0.27768c0.1367,0.42398 0.1483,0.83452 0.10517,1.18984c-0.03325,0.35637 -0.13171,0.75511 -0.35526,1.14042c-0.90525,1.56023 -3.66039,4.07296 -3.75658,5.9184l-0.17684,1.64771c0,0 -0.17684,1.64771 -0.91033,1.56899c-0.73349,-0.07872 -0.55665,-1.72643 -0.55665,-1.72643z" data-paper-data="{&quot;index&quot;:null}" fill="#ffffff" stroke="none" stroke-linecap="butt"/><path d="M373.59343,183.13167c-0.73349,-0.07872 -0.55665,-1.72643 -0.55665,-1.72643l0.17684,-1.64771c0.29761,-1.82382 -1.86157,-4.86397 -2.41514,-6.58074c-0.1367,-0.42398 -0.1483,-0.83452 -0.10517,-1.18984c0.03325,-0.35637 0.13171,-0.75511 0.35526,-1.14042c0.05852,-0.10082 0.11491,-0.18244 0.16919,-0.24741c-0.2609,0.0425 -0.60378,-0.10236 -0.3959,-1.3654c0.34729,-2.11008 1.17588,-2.03756 1.74414,-3.28371c0.92319,-2.02451 0.16392,-6.05883 2.04703,-9.30441c0,0 0.64371,-1.10946 1.03729,0.11133c0.39362,1.22079 -0.25009,2.33022 -0.25009,2.33022c-1.88815,3.2543 -2.39638,9.62598 -3.00446,12.71775c1.03151,2.53036 2.60765,4.20207 2.28487,8.11007l-0.17684,1.64771c0,0 -0.17684,1.64771 -0.91033,1.56899z" data-paper-data="{&quot;index&quot;:null}" fill="#ffffff" stroke="none" stroke-linecap="butt"/><path d="M382.68373,182.85726l0.17684,-1.64771c0.51385,-3.88746 2.40883,-5.18663 3.95378,-7.44052c0.06184,-3.1504 0.91731,-9.48482 -0.23727,-13.06566c0,0 -0.39362,-1.22079 0.25009,-2.33022c0.64371,-1.10946 1.03729,0.11133 1.03729,0.11133c1.15147,3.57129 -0.44657,7.35258 0.02599,9.52689c0.29086,1.33836 1.11598,1.44332 1.0076,3.57904c-0.06486,1.27835 -0.43071,1.34715 -0.67662,1.2503c0.03922,0.07501 0.07704,0.16673 0.11283,0.27768c0.1367,0.42398 0.1483,0.83452 0.10517,1.18984c-0.03325,0.35637 -0.13171,0.75511 -0.35526,1.14042c-0.90525,1.56023 -3.66039,4.07296 -3.75658,5.9184l-0.17684,1.64771c0,0 -0.17684,1.64771 -0.91033,1.56899c-0.73349,-0.07872 -0.55665,-1.72643 -0.55665,-1.72643z" data-paper-data="{&quot;index&quot;:null}" fill="#ffffff" stroke="none" stroke-linecap="butt"/><path d="M350.98152,182.25928c17.1763,1.84342 30.50664,8.87057 29.77415,15.69558c-0.73248,6.82503 -15.25041,10.8634 -32.42671,9.01998c-17.1763,-1.84342 -30.50664,-8.87057 -29.77415,-15.69558c0.73248,-6.82503 15.25041,-10.8634 32.42671,-9.01998z" fill="#000000" stroke="#000000" stroke-linecap="butt"/><path d="M286.95232,227.15785l-0.88419,8.23853" fill="none" stroke="#000000" stroke-linecap="round"/><path d="M335.23403,243.17303l1.14944,-10.71009" fill="none" stroke="#000000" stroke-linecap="round"/><path d="M371.3067,248.71116l2.69469,-13.46094" fill="none" stroke="#000000" stroke-linecap="round"/><path d="M410.89583,252.54332l3.41608,-16.30021" fill="none" stroke="#000000" stroke-linecap="round"/><g stroke-linecap="butt"><path d="M384.38736,50.06571c2.93443,-4.61355 15.94576,-14.47671 22.94115,-30.38248c12.52799,-28.48556 21.65686,-67.76673 32.08227,-69.93941c21.98477,-4.5817 56.92998,43.33282 68.96225,50.98589c4.15236,2.64107 33.50713,-2.75761 33.72885,2.33738c0.44119,10.13728 -21.9814,25.3092 -36.983,42.26737c-15.45232,17.4676 -23.61482,36.75421 -31.45275,49.07713c-19.27175,30.29926 -39.02746,16.29639 -59.95162,2.98767c-20.92415,-13.30873 -48.5989,-17.03431 -29.32716,-47.33357z" fill="#410000" stroke="#000000"/><path d="M406.20706,25.59127c5.96298,-9.3751 18.96802,-89.17972 40.43565,-75.52529c13.16197,8.37166 -27.57712,50.12207 -20.64012,83.1876c4.37748,20.86544 60.25262,38.15756 57.9456,41.78471c-5.96302,9.37509 -28.19993,5.90605 -49.66756,-7.74838c-21.46763,-13.65442 -34.03661,-32.32355 -28.0736,-41.69864z" fill="#170000" stroke="none"/><path d="M384.31245,49.72877c2.9344,-4.61355 15.94573,-14.47668 22.94111,-30.38248c12.52799,-28.48556 21.65686,-67.76673 32.08227,-69.93941c21.98474,-4.5817 56.92998,43.33282 68.96225,50.98589c4.15236,2.64107 33.5071,-2.75761 33.72882,2.33737c0.44122,10.13728 -21.98136,25.3092 -36.983,42.26737c-15.45232,17.46763 -23.61482,36.75421 -31.45275,49.07713c-19.27175,30.29926 -39.02746,16.29639 -59.95162,2.98767c-20.92415,-13.30876 -48.5989,-17.03431 -29.32716,-47.33357z" fill="none" stroke="#000000"/><path d="M483.06135,119.66097c-5.01261,7.88088 -4.58168,24.30877 -23.10072,18.2729c-11.03849,-3.59777 -38.68854,-25.5848 -50.98028,-33.40292c-14.02401,-8.91991 -41.33572,-24.62643 -49.54458,-34.19884c-11.0568,-12.89341 -0.15587,-19.26262 4.43566,-26.48149c4.16406,-6.5468 12.45246,-17.02818 26.6676,-13.82195c13.09647,2.95394 31.63075,18.9135 47.41339,28.95201c14.35788,9.13228 46.10118,23.51755 54.33388,33.29356c10.63959,12.63412 -4.7146,20.29546 -9.22496,27.38673z" data-paper-data="{&quot;index&quot;:null}" fill="#410000" stroke="#000000"/><path d="M395.86816,34.21976c9.26026,1.87998 60.7036,32.68868 82.11867,49.11976c17.40512,13.35439 14.28491,15.41584 19.02203,18.42888c2.09283,1.33112 0.57215,18.77386 -7.53877,13.50413c-10.77958,-7.00356 -4.83441,-16.35671 -21.22024,-29.96774c-17.95603,-14.91536 -65.63501,-38.59715 -76.50231,-40.1614c-6.90372,-0.99373 -12.62658,1.18377 -16.81405,4.35056c-5.42667,4.10394 -8.27481,9.86926 -7.77285,12.54703c2.66284,14.20566 108.63962,69.26894 105.5933,74.05842c-5.8766,9.23924 -52.84137,-20.47889 -78.52098,-36.81235c-25.67962,-16.33346 -41.73314,-37.0642 -35.85657,-46.30345c3.45873,-5.43786 13.47871,-23.63885 37.49179,-18.76382z" fill="#170000" stroke="none"/><path d="M483.22199,120.38307c-5.01261,7.88088 -4.58165,24.30877 -23.10072,18.2729c-11.03849,-3.59774 -38.68854,-25.5848 -50.98031,-33.40293c-14.02401,-8.91991 -41.33569,-24.62642 -49.54458,-34.19884c-11.0568,-12.89341 -0.15587,-19.26262 4.43566,-26.48149c4.16406,-6.54677 12.4525,-17.02818 26.6676,-13.82195c13.09648,2.95391 31.63075,18.9135 47.41339,28.95201c14.35788,9.13228 46.10118,23.51755 54.33387,33.2936c10.63959,12.63412 -4.7146,20.29546 -9.22496,27.38673z" data-paper-data="{&quot;index&quot;:null}" fill="none" stroke="#000000"/></g></g><g stroke-linecap="butt"><path d="M222.49949,282.64847c25.45611,0 46.09235,8.6766 46.09235,19.37974c0,10.70315 -66.20833,105.55243 -91.66444,105.55243c-25.45611,0 -51.06385,-20.27677 -51.06385,-30.97991c0,-10.70315 71.17983,-93.95226 96.63594,-93.95226z" fill="#840000" stroke="#000000"/><path d="M159.92327,389.04141c9.03002,0 28.52673,-4.47714 44.85607,-19.55847c31.66692,-29.24666 62.85979,-77.78542 62.85979,-66.61422c0,16.93172 -64.60257,100.25861 -91.14419,100.25861c-26.54162,0 -52.20076,-13.72587 -52.20076,-30.65759c0,-16.93172 9.08747,16.57167 35.62909,16.57167z" fill="#430000" stroke="none"/><path d="M222.49949,281.81989c25.45611,0 46.09235,8.6766 46.09235,19.37974c0,10.70315 -66.20833,105.55243 -91.66444,105.55243c-25.45611,0 -51.06385,-20.27677 -51.06385,-30.97991c0,-10.70315 71.17983,-93.95226 96.63594,-93.95226z" fill="none" stroke="#000000"/></g><g data-paper-data="{&quot;index&quot;:null}" stroke-linecap="butt"><path d="M578.15314,372.71889c0,10.70315 -25.60774,30.97991 -51.06385,30.97991c-25.45611,0 -91.66444,-94.84928 -91.66444,-105.55243c0,-10.70315 20.63624,-19.37974 46.09235,-19.37974c25.45611,0 96.63594,83.24911 96.63594,93.95226z" fill="#840000" stroke="#000000"/><path d="M579.72251,368.5879c0,16.93172 -25.65914,30.65759 -52.20076,30.65759c-26.54162,0 -91.14419,-83.32689 -91.14419,-100.25861c0,-11.1712 31.19287,37.36756 62.85979,66.61422c16.32934,15.08133 35.82605,19.55847 44.85607,19.55847c26.54162,0 35.62909,-33.50339 35.62909,-16.57167z" fill="#430000" stroke="none"/><path d="M578.15314,371.8903c0,10.70315 -25.60774,30.97991 -51.06385,30.97991c-25.45611,0 -91.66444,-94.84928 -91.66444,-105.55243c0,-10.70315 20.63624,-19.37974 46.09235,-19.37974c25.45611,0 96.63594,83.24911 96.63594,93.95226z" fill="none" stroke="#000000"/></g></g></g></svg>