<svg version="1.1" xmlns="http://www.w3.org/2000/svg" xmlns:xlink="http://www.w3.org/1999/xlink" width="355.08498" height="554.61589" viewBox="0,0,355.08498,554.61589"><defs><linearGradient x1="297.12961" y1="209.9999" x2="353.05422" y2="291.13031" gradientUnits="userSpaceOnUse" id="color-1"><stop offset="0" stop-color="#0080b4" stop-opacity="0"/><stop offset="1" stop-color="#0080b4"/></linearGradient></defs><g transform="translate(-230.67993,-3.34183)"><g data-paper-data="{&quot;isPaintingLayer&quot;:true}" fill-rule="nonzero" stroke-width="5" stroke-linejoin="miter" stroke-miterlimit="10" stroke-dasharray="" stroke-dashoffset="0" style="mix-blend-mode: normal"><g data-paper-data="{&quot;index&quot;:null}"><path d="M566.20107,426.40235c16.31048,26.58466 4.53129,54.70342 -10.1298,63.69843c-6.04962,3.71162 -18.73189,7.74059 -32.30178,0.739c-19.31633,-9.96659 -40.76948,-34.78291 -50.34973,-50.39789c-16.31048,-26.58466 -28.19558,-33.16483 -13.53449,-42.15984c14.66109,-8.99501 90.00534,1.53566 106.31582,28.12032z" fill="#ffffff" stroke="#000000" stroke-linecap="butt"/><path d="M570.97856,424.22816c7.85945,12.81022 20.51026,49.594 3.55838,59.99449c-7.76533,4.76426 -34.25025,19.08599 -49.44016,15.37815c-17.97002,-4.38647 -24.55227,-27.88678 -28.81146,-34.82889c-7.36665,-12.00699 29.71577,33.52096 44.45779,22.83659c0.3082,-0.22335 44.84295,-16.04423 25.68511,-38.70377c-3.61951,-4.28108 -15.43758,-15.29875 -18.40568,-17.74169c-18.04027,-14.84843 -81.64728,-34.20619 -81.01979,-34.59118c16.95187,-10.40047 96.11638,14.8461 103.97583,27.65632z" fill="#c7c7c7" stroke="none" stroke-linecap="butt"/><path d="M567.55418,424.8856c8.02853,13.0858 21.36481,32.98062 13.11214,47.47862c-8.51316,14.95563 -38.86447,24.38335 -46.30893,28.95075c-14.66109,8.99501 -45.59686,-34.38005 -61.90734,-60.96471c-16.31048,-26.58466 -28.19558,-33.16483 -13.53449,-42.15984c14.66109,-8.99501 92.32813,0.11055 108.63861,26.69521z" fill="none" stroke="#000000" stroke-linecap="butt"/><path d="M546.61322,412.05894l-21.17006,13.88307l-48.43427,17.08874" fill="none" stroke="#000000" stroke-linecap="round"/></g><g data-paper-data="{&quot;index&quot;:null}"><path d="M429.2738,414.22031c14.66109,-8.99501 15.14272,4.58152 31.4532,31.16618c9.58027,15.615 21.98442,45.98314 22.11832,67.71873c0.09406,15.26941 -9.24339,24.7502 -15.29301,28.46182c-14.66109,8.99501 -45.06511,6.75691 -61.37559,-19.82775c-16.31048,-26.58466 8.436,-98.52397 23.09709,-107.51898z" fill="#ffffff" stroke="#000000" stroke-linecap="butt"/><path d="M424.52464,419.79065c0.62749,-0.38498 -10.93222,65.08982 -5.86813,87.89949c0.83317,3.75279 5.30116,19.27998 7.47788,24.44622c11.52129,27.34479 45.80171,-5.18977 46.14046,-5.36332c16.2038,-8.30178 -7.58374,-61.98657 -0.21709,-49.97958c4.25919,6.94211 22.22734,23.45686 17.99656,41.46415c-3.57624,15.22143 -28.34277,32.34399 -36.1081,37.10825c-16.95189,10.40049 -44.01274,-17.5423 -51.8722,-30.35252c-7.85945,-12.81022 5.49874,-94.82223 22.45061,-105.2227z" fill="#c7c7c7" stroke="none" stroke-linecap="butt"/><path d="M429.63142,413.31432c14.66109,-8.99501 15.14272,4.58152 31.4532,31.16618c16.31048,26.58466 40.96344,73.81441 26.30236,82.80942c-7.44444,4.56738 -29.59969,27.35402 -46.78929,28.1678c-16.66362,0.78888 -28.35764,-20.11351 -36.38616,-33.19931c-16.31048,-26.58466 10.75879,-99.94907 25.41988,-108.94408z" fill="none" stroke="#000000" stroke-linecap="butt"/><path d="M461.40889,449.75906l-37.17735,35.43654l-21.96759,12.58316" fill="none" stroke="#000000" stroke-linecap="round"/></g><g data-paper-data="{&quot;index&quot;:null}"><path d="M566.35,342.19946c7.65725,31.59391 -44.41103,28.21664 -74.60594,33.72305c-30.19488,5.50641 -60.88012,-15.64168 -68.53738,-47.23558c-7.65725,-31.59391 -22.30301,-41.42983 7.89188,-46.93623c30.1949,-5.50641 127.59419,28.85486 135.25144,60.44877z" fill="#ffffff" stroke="#000000" stroke-linecap="butt"/><path d="M569.54242,336.58431c3.68977,15.224 -21.62155,32.7268 -56.53437,39.09359c-34.91286,6.36679 -66.20644,-0.8134 -69.89621,-16.03741c-3.45842,-14.26944 33.01034,-0.36838 64.53406,-7.59545c0.86385,-0.19805 56.37816,0.07595 43.34307,-13.76013c-18.78577,-19.94016 -108.40702,-56.2332 -107.11466,-56.46888c34.91283,-6.36678 121.97837,39.5443 125.66814,54.76831z" fill="#c7c7c7" stroke="none" stroke-linecap="butt"/><path d="M564.8395,341.85591c7.65725,31.59391 -44.41103,28.21664 -74.60594,33.72305c-30.19488,5.50641 -60.88012,-15.64168 -68.53738,-47.23558c-7.65725,-31.59391 -22.30301,-41.42983 7.89188,-46.93623c30.1949,-5.50641 127.59419,28.85486 135.25144,60.44877z" fill="none" stroke="#000000" stroke-linecap="butt"/><path d="M530.31028,313.0979l-12.30515,14.00514l-81.0033,19.10501" fill="none" stroke="#000000" stroke-linecap="round"/></g><g><path d="M330.86226,331.08939c22.81298,-13.99644 20.34146,1.87905 37.22467,29.39721c16.88321,27.51817 12.07617,61.17242 -10.73681,75.16886c-22.81298,13.99644 -53.30683,47.48444 -70.19004,19.96628c-16.88321,-27.51817 20.8892,-110.53591 43.70218,-124.53235z" fill="#ffffff" stroke="#000000" stroke-linecap="butt"/><path d="M281.28986,453.44488c-8.13543,-13.26005 15.18827,-98.50995 41.56578,-114.69333c0.97638,-0.59904 -30.56677,79.18625 -28.70454,104.87045c1.29215,17.82177 36.09005,-15.46551 36.77055,-15.83651c24.83273,-13.53832 38.2643,-45.37446 45.88963,-32.94583c8.13543,13.26005 -6.65271,37.12868 -33.03021,53.31206c-26.37751,16.18338 -54.35579,18.55323 -62.49123,5.29318z" fill="#c7c7c7" stroke="none" stroke-linecap="butt"/><path d="M331.57814,329.93949c22.81298,-13.99644 20.34146,1.87905 37.22467,29.39721c16.88321,27.51817 12.07617,61.17242 -10.73681,75.16886c-22.81298,13.99644 -53.30683,47.48444 -70.19004,19.96628c-16.88321,-27.51817 20.8892,-110.53591 43.70218,-124.53235z" fill="none" stroke="#000000" stroke-linecap="butt"/><path d="M371.43217,381.43871l-64.17735,34.39989l-17.37822,-2.84104" fill="none" stroke="#000000" stroke-linecap="round"/></g><g><path d="M358.84151,287.11211c18.95857,-15.56511 91.43054,5.98741 121.36345,42.44616c29.93291,36.45876 5.99179,74.0176 -12.96677,89.58272c-18.95854,15.5651 -62.85845,34.96723 -92.79135,-1.49152c-29.93292,-36.45877 -34.56388,-114.97224 -15.60532,-130.53736z" fill="#ffffff" stroke="#000000" stroke-linecap="butt"/><path d="M354.2531,327.8117c5.48034,-4.4994 5.91236,29.44175 18.10552,53.49654c12.8929,25.43521 37.7383,41.24391 50.15083,43.04824c14.90338,2.16641 34.49966,-13.20338 45.82568,-29.89392c15.77861,-23.25207 21.11827,-50.13567 25.15622,-45.21738c11.6335,14.16979 -1.57407,44.24296 -29.49994,67.1703c-27.92587,22.92734 -59.99507,30.02673 -71.62857,15.85695c-11.6335,-14.16979 -66.03561,-81.53336 -38.10974,-104.46071z" fill="#c7c7c7" stroke="none" stroke-linecap="butt"/><path d="M358.84151,287.11211c18.95857,-15.56511 91.43053,5.98739 121.36345,42.44616c29.93292,36.45877 5.99179,74.0176 -12.96677,89.58272c-18.95857,15.56511 -62.85843,34.96725 -92.79135,-1.49152c-29.93292,-36.45877 -34.56388,-114.97224 -15.60532,-130.53736z" fill="none" stroke="#000000" stroke-linecap="butt"/><path d="M472.40656,327.75138l-103.439,78.60921" fill="none" stroke="#000000" stroke-linecap="round"/></g><g><path d="M285.70222,62.62985c11.01116,-16.19907 48.38198,-24.45298 60.02738,-27.58517c20.67668,-5.56125 18.41052,26.58779 24.72487,50.06444c6.31436,23.47668 -5.3286,47.01655 -26.00531,52.57781c-20.67668,5.56125 -42.55726,-8.96205 -48.8716,-32.4387c-2.75803,-10.25428 -18.41476,-30.05562 -9.87533,-42.61839z" fill="#bd0000" stroke="#000000" stroke-linecap="butt"/><path d="M295.7842,104.12484c-2.75803,-10.25428 -18.41476,-30.05562 -9.87533,-42.61839c11.01115,-16.19905 48.38196,-24.45297 60.02736,-27.58517c20.67668,-5.56125 18.41052,26.58779 24.72487,50.06444c6.31434,23.47665 -5.32863,47.01654 -26.00532,52.57779c-20.6767,5.56126 -42.55726,-8.96205 -48.8716,-32.4387z" fill="none" stroke="#000000" stroke-linecap="butt"/><path d="M332.12545,81.9489c11.20474,-2.9942 18.66602,18.84537 21.83295,30.69653c3.16696,11.85116 0.84029,9.22615 -10.36447,12.22033c-11.20474,2.9942 -14.69266,8.26571 -17.85959,-3.58545c-3.16696,-11.85116 -4.81365,-36.33723 6.3911,-39.33142z" fill="#3b3b3b" stroke="#000000" stroke-linecap="butt"/><path d="M310.78449,114.99563c29.38168,-20.25332 67.15602,-16.42608 84.37133,8.54835c17.21532,24.97443 7.35252,61.63876 -22.02916,81.89207c-29.38168,20.25332 -67.15602,16.42608 -84.37133,-8.54835c-17.21532,-24.97443 -7.35254,-61.63875 22.02916,-81.89207z" fill="#f1f1f1" stroke="#000000" stroke-linecap="butt"/><path d="M324.04567,175.50441c-8.86082,-12.85449 -52.88775,-2.78294 -35.62603,-14.68177c5.56429,-3.83556 18.94665,-17.98577 33.48668,-23.4126c7.73743,-2.88787 35.33363,-4.26353 39.89078,-10.35566c1.59871,-2.1372 -0.09633,-19.41091 -22.31603,-14.51772c-8.39178,1.84804 -43.40833,30.13151 -47.72074,29.64413c-8.21296,-0.92828 19.99745,-23.05604 19.30398,-24.63747c-2.3183,-5.28691 45.36779,-14.46414 50.48132,-14.16027c8.31232,0.49393 33.90829,26.28586 35.99259,29.30956c8.86082,12.85449 -8.93168,32.64338 -26.19342,44.5422c-17.26174,11.89882 -38.4383,11.1241 -47.29911,-1.7304z" fill="#cfcfcf" stroke="none" stroke-linecap="butt"/><path d="M310.78449,114.99559c29.38171,-20.25332 67.15605,-16.42608 84.37137,8.54836c17.21532,24.97446 7.3525,61.6388 -22.02918,81.89211c-29.38171,20.25332 -67.15605,16.42608 -84.37137,-8.54836c-17.21532,-24.97446 -7.3525,-61.6388 22.02918,-81.89211z" fill="none" stroke="#000000" stroke-linecap="butt"/><path d="M243.42551,243.5947c-13.41782,-19.46536 20.85175,-61.46077 58.12975,-87.15715c19.30394,-13.30655 38.79925,-15.86109 57.89447,-19.27079c17.77978,-3.1748 35.61555,-8.02117 42.08512,1.36433c3.40822,4.94436 14.50924,13.2179 28.80151,24.19952c13.86108,10.65034 22.74971,30.44207 25.2537,47.48627c5.07872,34.5698 -35.18114,83.05243 -53.80701,95.89157c-21.71419,14.96796 -89.28397,29.41861 -121.99437,7.17834c-5.9784,-4.06482 -14.34438,-3.29705 -20.44208,-11.4984c-8.36021,-11.2444 -13.72892,-32.43027 -14.45407,-42.86643c-0.82014,-11.80324 2.6978,-16.40087 0.48274,-19.61427z" fill="#ffffff" stroke="none" stroke-linecap="butt"/><path d="M256.92907,297.55095c-7.98954,-11.59048 -23.09816,-38.18049 -15.09645,-54.60106c7.46499,-15.31916 37.12751,-20.42544 55.297,-32.94998c5.61566,-3.87098 24.166,-24.87199 37.92418,-33.892c13.1269,-8.60613 21.3072,-5.11122 33.48934,-14.00679c8.41464,-6.14448 11.93409,-19.73063 17.87511,-21.57452c36.87415,-11.44449 47.01089,25.98466 56.43411,39.65501c15.44316,22.40355 -15.09992,76.13464 -52.74524,102.08421c-29.52882,20.35474 -85.49547,40.03651 -115.57008,33.2848c-8.26651,-1.85582 -14.27838,-13.16941 -17.60799,-17.9997z" fill="url(#color-1)" stroke="none" stroke-linecap="butt"/><path d="M318.54456,330.75514c-3.29117,-4.77451 58.6945,-20.83943 74.67079,-31.85217c6.22357,-4.29002 25.12005,-23.65583 36.57552,-40.07425c17.95137,-25.72862 25.43981,-59.94673 27.4489,-57.03211c1.97862,2.87042 2.0891,25.06665 -13.44287,53.64675c-10.30314,18.95863 -35.79757,47.00255 -42.16896,51.39447c-15.97629,11.01274 -79.79221,28.69184 -83.08336,23.91732z" fill="#c7c7c7" stroke="none" stroke-linecap="butt"/><path d="M271.45117,218.66377c13.90264,-11.21619 28.4716,-32.67026 47.75499,-45.96262c19.7449,-13.6105 32.57421,-15.96493 43.22339,-21.53461c9.35723,-4.894 17.51243,-14.16722 20.59108,-9.701c6.58234,9.54905 -18.7207,15.84745 -55.81509,41.41727c-18.57176,12.80184 -25.8929,23.58463 -40.07084,34.37946c-14.14045,10.76629 -35.15795,21.56793 -38.44475,16.79975c-3.16053,-4.58502 9.92012,-5.03849 22.76123,-15.39825z" fill="#c7c7c7" stroke="none" stroke-linecap="butt"/><path d="M296.20149,159.88747c51.23433,-35.31672 115.24087,-31.3449 142.96259,8.87129c27.72172,40.21619 8.66099,101.44772 -42.57334,136.76444c-51.23433,35.31672 -115.24087,31.3449 -142.96259,-8.87129c-27.72172,-40.21619 -8.66099,-101.44772 42.57334,-136.76444z" fill="none" stroke="#000000" stroke-linecap="butt"/><path d="M451.43237,193.67214l-28.78892,64.97002l-63.84032,44.00625l-75.31961,11.6987" fill="none" stroke="#000000" stroke-linecap="round"/><path d="M387.60451,134.48857l-21.67399,32.598l-14.14582,-2.02087l-54.53026,37.58867l-6.67589,17.3546l-41.36578,19.6853" fill="none" stroke="#000000" stroke-linecap="round"/><path d="M350.80823,226.47579c10.46724,-7.21525 20.87664,-10.27311 23.25008,-6.82995c2.37343,3.44317 -4.18787,12.08351 -14.65511,19.29876c-10.46724,7.21525 -20.87664,10.27311 -23.25008,6.82995c-2.37343,-3.44317 4.18787,-12.08351 14.65511,-19.29876z" fill="#008bb7" stroke="none" stroke-linecap="butt"/><path d="M335.98429,244.51229c-1.36303,-1.97737 -0.86503,-4.68531 1.11236,-6.04835c1.97737,-1.36303 4.68531,-0.86503 6.04835,1.11236c1.36303,1.97737 0.86503,4.68531 -1.11236,6.04835c-1.97737,1.36303 -4.68531,0.86503 -6.04835,-1.11236z" fill="#000000" stroke="none" stroke-linecap="butt"/><path d="M365.76248,225.3941c-1.36303,-1.97737 -0.86503,-4.68531 1.11236,-6.04835c1.97737,-1.36303 4.68531,-0.86503 6.04835,1.11236c1.36303,1.97737 0.86503,4.68531 -1.11236,6.04835c-1.97737,1.36303 -4.68531,0.86503 -6.04835,-1.11236z" fill="#000000" stroke="none" stroke-linecap="butt"/><path d="M308.80155,239.32956c4.98752,-3.43798 8.42551,1.54954 8.42551,1.54954l2.75039,3.99003c1.49282,2.33536 3.77921,4.32406 4.47846,7.00611c1.04466,4.00708 0.48674,7.89298 -0.67198,11.69488c3.40425,0.79226 10.61662,2.43062 12.4891,2.32292c8.07142,-0.46427 14.66503,-6.33501 21.24994,-10.35717c7.37835,-4.5068 14.69935,-8.97203 21.84525,-13.84132c3.3889,-2.30925 7.31302,-4.28033 9.75488,-7.75666c3.07112,-4.37222 2.96159,-9.90464 2.51782,-14.91847l-1.10129,-1.714c0,0 -1.8458,-3.93737 2.09155,-5.78316c3.93737,-1.8458 5.78316,2.09155 5.78316,2.09155l1.89273,4.67266c0.574,7.06535 0.26057,14.48058 -4.00792,20.56503c-3.41486,4.86765 -7.05523,6.61707 -12.02291,10.02292c-7.25436,4.9736 -14.71582,9.49999 -22.21976,14.08348c-8.21374,5.01708 -15.36226,10.91797 -25.40159,11.62381c-3.30191,0.23216 -12.50023,-2.0153 -15.97781,-2.80926c-0.71913,1.77078 -1.40843,3.52852 -1.95801,5.2773c0,0 -1.82619,5.77582 -7.60202,3.94964c-5.77582,-1.82619 -3.94964,-7.60202 -3.94964,-7.60202c2.52129,-7.93065 8.37577,-14.60207 2.83501,-21.65228l-2.75039,-3.99003c0,0 -3.43798,-4.98752 1.54954,-8.42551z" fill="#000000" stroke="none" stroke-linecap="butt"/><path d="M318.37088,55.1093c11.56904,-7.97474 26.28365,-6.69852 32.86597,2.85054c6.58234,9.54905 2.53981,23.7549 -9.02925,31.72964c-11.56904,7.97474 -26.28365,6.69852 -32.86597,-2.85054c-6.58234,-9.54905 -2.53981,-23.7549 9.02925,-31.72964z" fill="#e60000" stroke="none" stroke-linecap="butt"/><path d="M251.97374,110.79152c-3.69104,-7.00482 -33.91159,-32.57184 -15.26489,-42.39729c8.5308,-4.49513 14.49437,6.52449 31.08711,8.06076c19.67568,1.82173 49.70101,-5.04475 51.70341,-1.24462c2.26869,4.30549 -17.60371,11.66482 -28.34805,27.83156c-6.73611,10.13571 -2.60914,30.70484 -9.7947,34.4911c-18.64666,9.82546 -25.69182,-19.73671 -29.38285,-26.74154z" fill="#e60000" stroke="none" stroke-linecap="butt"/><path d="M388.5905,40.46155c4.02583,6.79998 23.97301,29.50108 10.06882,36.70711c-5.358,2.77684 -19.50569,-12.47374 -29.51673,-13.82504c-15.96784,-2.15536 -28.42911,7.39283 -30.90359,3.21323c-2.18403,-3.68901 13.42294,-20.66885 18.86277,-35.59123c4.58745,-12.5842 -1.69136,-23.3919 4.66976,-26.68865c13.90417,-7.20601 22.79312,29.38461 26.81897,36.18457z" data-paper-data="{&quot;index&quot;:null}" fill="#e60000" stroke="none" stroke-linecap="butt"/></g></g></g></svg>