<svg version="1.1" xmlns="http://www.w3.org/2000/svg" xmlns:xlink="http://www.w3.org/1999/xlink" width="149.72678" height="274.73281" viewBox="0,0,149.72678,274.73281"><g transform="translate(-166.98819,-65.25103)"><g data-paper-data="{&quot;isPaintingLayer&quot;:true}" fill-rule="nonzero" stroke-linejoin="miter" stroke-miterlimit="10" stroke-dasharray="" stroke-dashoffset="0" style="mix-blend-mode: normal"><g data-paper-data="{&quot;index&quot;:null}" stroke-width="3" stroke-linecap="butt"><g data-paper-data="{&quot;index&quot;:null}"><g><g><path d="M288.52031,178.38311l-24.33023,-37.01561l9.75787,-12.23598l24.33021,37.01563z" fill="#252525" stroke="#000000"/><path d="M288.52031,178.38311l-24.33023,-37.01561l9.75787,-12.23598l24.33021,37.01563z" fill="#252525" stroke="#000000"/><path d="M266.00648,143.95554c-1.76849,-2.69055 8.76474,12.88284 13.29136,18.11184c4.31754,4.98748 2.58238,-0.39597 3.25221,-1.23589c0.65119,-0.81658 8.14829,2.91754 4.99106,-6.3225c-1.91721,-5.61092 -15.9688,-26.72464 -14.25409,-25.70138c1.41113,0.84212 23.94316,35.93944 24.7627,37.18626c0.97871,1.48901 -0.28554,0.44205 -0.86887,1.43325c-1.47609,2.50818 -5.23706,5.93818 -6.22048,7.17135c-0.88179,1.10572 2.82157,9.89363 -5.35994,-0.9172c-4.54885,-6.01072 -18.3593,-27.84733 -19.59396,-29.72571z" fill="#141414" stroke="none"/><path d="M288.52031,178.38311l-24.33023,-37.01561l9.75787,-12.23598l24.33021,37.01563z" fill="none" stroke="#000000"/><path d="M288.52031,178.38311l-24.33023,-37.01561l9.75787,-12.23598l24.33021,37.01563z" fill="none" stroke="#000000"/></g><g><path d="M275.36836,164.47479l-4.92613,-7.49453l14.25613,-17.87659l4.92613,7.49453z" fill="#252525" stroke="#000000"/><path d="M275.36836,164.47479l-4.92613,-7.49453l14.25613,-17.87659l4.92613,7.49453z" fill="#252525" stroke="#000000"/><path d="M270.88951,157.40456c-0.35806,-0.54476 1.97942,2.35153 3.64765,2.46762c1.59116,0.11072 2.484,-2.53936 3.46259,-3.76647c0.95138,-1.19299 5.94823,-4.79938 7.32086,-9.19301c0.83353,-2.66799 -2.13128,-6.79266 -1.06517,-7.48701c0.87737,-0.57142 5.06875,6.99952 5.23467,7.25196c0.69958,1.06435 -6.95236,10.76874 -8.95694,13.28239c-1.28829,1.61548 -3.23976,4.67356 -5.63831,3.41519c-1.33356,-0.69965 -3.75539,-5.59037 -4.00537,-5.97067z" fill="#141414" stroke="none"/><path d="M275.36836,164.47479l-4.92613,-7.49453l14.25613,-17.87659l4.92613,7.49453z" fill="none" stroke="#000000"/><path d="M275.36836,164.47479l-4.92613,-7.49453l14.25613,-17.87659l4.92613,7.49453z" fill="none" stroke="#000000"/></g><g><path d="M282.33252,177.42143l-4.92613,-7.49454l16.10657,-20.19698l4.92613,7.49455z" fill="#252525" stroke="#000000"/><path d="M282.33252,177.42143l-4.92613,-7.49454l16.10657,-20.19698l4.92613,7.49455z" fill="#252525" stroke="#000000"/><path d="M277.86565,170.33615c-0.35807,-0.54476 2.01027,2.31283 3.79177,2.28689c1.69921,-0.02476 2.77949,-2.90991 3.8851,-4.29632c1.07489,-1.34785 6.59594,-5.61156 8.27173,-10.38532c1.01759,-2.89882 -1.96526,-7.00088 -0.79081,-7.83107c0.96652,-0.68321 5.10206,6.95777 5.26799,7.21021c0.69958,1.06434 -7.95069,12.0206 -10.21546,14.86053c-1.45551,1.82515 -3.68884,5.23671 -6.1992,4.11855c-1.39574,-0.6217 -3.76115,-5.58314 -4.01111,-5.96344z" fill="#141414" stroke="none"/><path d="M282.33252,177.42143l-4.92613,-7.49454l16.10657,-20.19698l4.92613,7.49455z" fill="none" stroke="#000000"/><path d="M282.33252,177.42143l-4.92613,-7.49454l16.10657,-20.19698l4.92613,7.49455z" fill="none" stroke="#000000"/></g></g><g><path d="M264.92443,151.17822l-5.65781,-8.60772l16.63526,-20.85996l5.65783,8.60771z" fill="#252525" stroke="#000000"/><path d="M264.92443,151.17822l-5.65781,-8.60772l16.63526,-20.85996l5.65783,8.60771z" fill="#252525" stroke="#000000"/><path d="M263.99184,145.86429c1.84278,0.10801 2.89471,-2.96894 4.03663,-4.40084c1.11017,-1.3921 6.92334,-5.6271 8.54271,-10.72707c0.98335,-3.09692 -2.42438,-7.83105 -1.1846,-8.64773c1.02031,-0.67209 5.82633,8.03329 6.0169,8.32322c0.8035,1.22244 -8.12617,12.54526 -10.46528,15.47841c-1.5033,1.88507 -3.78447,5.44734 -6.55509,4.0219c-1.54044,-0.79254 -4.314,-6.41966 -4.6011,-6.85647c-0.41126,-0.62566 2.27779,2.69534 4.20981,2.80859z" fill="#141414" stroke="none"/><path d="M264.92443,151.17822l-5.65781,-8.60772l16.63526,-20.85996l5.65783,8.60771z" fill="none" stroke="#000000"/><path d="M264.92443,151.17822l-5.65781,-8.60772l16.63526,-20.85996l5.65783,8.60771z" fill="none" stroke="#000000"/></g></g><g data-paper-data="{&quot;index&quot;:null}"><g><g><path d="M299.87709,175.07362l-4.06867,49.73781l-10.64898,-1.7778l4.06867,-49.7378z" fill="#252525" stroke="#000000"/><path d="M299.87709,175.07362l-4.06867,49.73781l-10.64898,-1.7778l4.06867,-49.7378z" fill="#252525" stroke="#000000"/><path d="M285.52159,219.4611c0.20647,-2.52397 2.24106,-31.41875 3.30468,-39.98798c1.91303,-15.41254 2.34379,-5.31186 3.30611,-5.15121c1.07323,0.17917 4.74943,-0.16737 6.57915,0.62881c0.72308,0.31463 1.22632,-1.56672 1.06266,0.43405c-0.13705,1.67535 -3.63283,48.39294 -4.30325,50.23097c-0.81466,2.23344 1.62311,-26.28007 1.04666,-32.36069c-0.94929,-10.01351 -4.75747,-0.84195 -5.46815,-0.9606c-0.73099,-0.12202 -1.35434,-5.87018 -2.60283,1.68762c-1.30894,7.9238 -3.22078,29.09432 -2.92505,25.47902z" fill="#141414" stroke="none"/><path d="M299.87709,175.07362l-4.06867,49.73781l-10.64898,-1.7778l4.06867,-49.7378z" fill="none" stroke="#000000"/><path d="M299.87709,175.07362l-4.06867,49.73781l-10.64898,-1.7778l4.06867,-49.7378z" fill="none" stroke="#000000"/></g><g><path d="M300.55543,197.88514l-0.82378,10.07039l-15.55802,-2.59735l0.82378,-10.07039z" fill="#252525" stroke="#000000"/><path d="M300.55543,197.88514l-0.82378,10.07039l-15.55802,-2.59735l0.82378,-10.07039z" fill="#252525" stroke="#000000"/><path d="M285.96986,199.6649c-1.08539,1.46737 -1.69601,5.71644 -1.63614,4.98445c0.04181,-0.51102 0.04518,-6.42954 0.71078,-8.08939c1.19713,-2.98538 3.53026,-2.13965 4.9362,-1.90492c2.18764,0.36522 10.57473,1.84691 10.45774,3.27707c-0.02775,0.33921 -0.33101,9.86562 -1.11246,10.12997c-0.94954,0.32122 -0.32524,-5.43006 -1.77522,-6.88379c-2.38781,-2.39398 -6.95546,-1.17085 -7.99373,-1.34419c-1.06796,-0.17828 -2.55193,-1.56877 -3.58719,-0.16919z" fill="#141414" stroke="none"/><path d="M300.55543,197.88514l-0.82378,10.07039l-15.55802,-2.59735l0.82378,-10.07039z" fill="none" stroke="#000000"/><path d="M300.55543,197.88514l-0.82378,10.07039l-15.55802,-2.59735l0.82378,-10.07039z" fill="none" stroke="#000000"/></g><g><path d="M302.95648,182.09914l-0.82378,10.0704l-17.57745,-2.93448l0.82378,-10.0704z" fill="#252525" stroke="#000000"/><path d="M302.95648,182.09914l-0.82378,10.0704l-17.57745,-2.93448l0.82378,-10.0704z" fill="#252525" stroke="#000000"/><path d="M284.72839,188.52837c0.0418,-0.51103 -0.01639,-6.43982 0.71705,-8.08834c1.31916,-2.96499 3.9599,-2.06791 5.54834,-1.80272c2.4716,0.41263 11.94819,2.07621 11.8312,3.50637c-0.02774,0.3392 -0.27007,9.87581 -1.1488,10.12391c-1.06775,0.30148 -0.42376,-5.44653 -2.07463,-6.93379c-2.71863,-2.44921 -7.85838,-1.32158 -9.03142,-1.51741c-1.20658,-0.20143 -2.89513,-1.62609 -4.0483,-0.24619c-1.209,1.44676 -1.8533,5.69019 -1.79343,4.9582z" fill="#141414" stroke="none"/><path d="M302.95648,182.09914l-0.82378,10.0704l-17.57745,-2.93448l0.82378,-10.0704z" fill="none" stroke="#000000"/><path d="M302.95648,182.09914l-0.82378,10.0704l-17.57745,-2.93448l0.82378,-10.0704z" fill="none" stroke="#000000"/></g></g><g><path d="M300.54207,217.58903l-0.94615,11.56618l-18.15443,-3.03084l0.94614,-11.56618z" fill="#252525" stroke="#000000"/><path d="M300.54207,217.58903l-0.94615,11.56618l-18.15443,-3.03084l0.94614,-11.56618z" fill="#252525" stroke="#000000"/><path d="M283.52859,219.58944c-1.26408,1.6824 -1.97017,6.56179 -1.9014,5.72108c0.04801,-0.58694 0.04318,-7.38599 0.81724,-9.29077c1.39221,-3.4259 4.11536,-2.44731 5.75594,-2.17342c2.55272,0.42617 12.33962,2.15367 12.20525,3.79625c-0.03187,0.38959 -0.37156,11.33243 -1.28282,11.63375c-1.1073,0.36613 -0.38748,-6.23896 -2.08123,-7.91334c-2.78925,-2.75738 -8.11624,-1.36607 -9.3278,-1.56834c-1.24619,-0.20803 -2.97949,-1.8099 -4.18518,-0.2052z" fill="#141414" stroke="none"/><path d="M300.54207,217.58903l-0.94615,11.56618l-18.15443,-3.03084l0.94614,-11.56618z" fill="none" stroke="#000000"/><path d="M300.54207,217.58903l-0.94615,11.56618l-18.15443,-3.03084l0.94614,-11.56618z" fill="none" stroke="#000000"/></g></g></g><g stroke-width="3" stroke-linecap="butt"><g data-paper-data="{&quot;index&quot;:null}"><g><g><path d="M184.89411,168.14715l24.33022,-37.01563l9.75787,12.23598l-24.33022,37.01561z" fill="#252525" stroke="#000000"/><path d="M184.89411,168.14715l24.33022,-37.01563l9.75787,12.23598l-24.33022,37.01561z" fill="#252525" stroke="#000000"/><path d="M217.16582,145.95556c-1.23466,1.87838 -15.04511,23.71499 -19.59395,29.72571c-8.1815,10.81083 -4.47815,2.02292 -5.35994,0.9172c-0.98342,-1.23317 -4.7444,-4.66317 -6.22049,-7.17135c-0.58333,-0.9912 -1.84757,0.05576 -0.86886,-1.43325c0.81953,-1.24682 23.35156,-36.34414 24.7627,-37.18626c1.7147,-1.02326 -12.33689,20.09046 -14.25409,25.70138c-3.15724,9.24004 4.33987,5.50592 4.99106,6.3225c0.66983,0.83992 -1.06533,6.22337 3.25221,1.23589c4.52662,-5.229 15.05984,-20.80239 13.29136,-18.11184z" fill="#141414" stroke="none"/><path d="M184.89411,168.14715l24.33022,-37.01563l9.75787,12.23598l-24.33022,37.01561z" fill="none" stroke="#000000"/><path d="M184.89411,168.14715l24.33022,-37.01563l9.75787,12.23598l-24.33022,37.01561z" fill="none" stroke="#000000"/></g><g><path d="M193.54778,148.5982l4.92613,-7.49453l14.25613,17.87659l-4.92613,7.49453z" fill="#252525" stroke="#000000"/><path d="M193.54778,148.5982l4.92613,-7.49453l14.25613,17.87659l-4.92613,7.49453z" fill="#252525" stroke="#000000"/><path d="M212.28278,159.40456c-0.24998,0.3803 -2.67181,5.27102 -4.00537,5.97067c-2.39855,1.25837 -4.35002,-1.79971 -5.63831,-3.41519c-2.00458,-2.51365 -9.65652,-12.21804 -8.95694,-13.28239c0.16592,-0.25244 4.3573,-7.82338 5.23468,-7.25196c1.06611,0.69435 -1.89869,4.81902 -1.06516,7.48701c1.37263,4.39363 6.36948,8.00002 7.32086,9.19301c0.97859,1.22711 1.87142,3.87719 3.46259,3.76647c1.66822,-0.11609 4.00571,-3.01238 3.64765,-2.46762z" fill="#141414" stroke="none"/><path d="M193.54778,148.5982l4.92613,-7.49453l14.25613,17.87659l-4.92613,7.49453z" fill="none" stroke="#000000"/><path d="M193.54778,148.5982l4.92613,-7.49453l14.25613,17.87659l-4.92613,7.49453z" fill="none" stroke="#000000"/></g><g><path d="M184.73319,159.22446l4.92613,-7.49455l16.10658,20.19698l-4.92613,7.49454z" fill="#252525" stroke="#000000"/><path d="M184.73319,159.22446l4.92613,-7.49455l16.10658,20.19698l-4.92613,7.49454z" fill="#252525" stroke="#000000"/><path d="M205.30663,172.33618c-0.24996,0.3803 -2.61538,5.34174 -4.01111,5.96344c-2.51036,1.11816 -4.74369,-2.2934 -6.1992,-4.11855c-2.26478,-2.83993 -10.91505,-13.79619 -10.21546,-14.86053c0.16593,-0.25244 4.30146,-7.89342 5.26798,-7.21021c1.17445,0.83019 -1.8084,4.93225 -0.79081,7.83107c1.67579,4.77376 7.19683,9.03747 8.27172,10.38532c1.10562,1.38641 2.18589,4.27156 3.88511,4.29632c1.7815,0.02594 4.14984,-2.83165 3.79177,-2.28689z" fill="#141414" stroke="none"/><path d="M184.73319,159.22446l4.92613,-7.49455l16.10658,20.19698l-4.92613,7.49454z" fill="none" stroke="#000000"/><path d="M184.73319,159.22446l4.92613,-7.49455l16.10658,20.19698l-4.92613,7.49454z" fill="none" stroke="#000000"/></g></g><g><path d="M201.61257,132.31825l5.65782,-8.60771l16.63526,20.85996l-5.65782,8.60772z" fill="#252525" stroke="#000000"/><path d="M201.61257,132.31825l5.65782,-8.60771l16.63526,20.85996l-5.65782,8.60772z" fill="#252525" stroke="#000000"/><path d="M219.18045,147.8643c1.93202,-0.11325 4.62108,-3.43425 4.20982,-2.80859c-0.2871,0.43681 -3.06066,6.06393 -4.60111,6.85647c-2.77061,1.42544 -5.05179,-2.13683 -6.55508,-4.0219c-2.33911,-2.93315 -11.26878,-14.25597 -10.46528,-15.47841c0.19057,-0.28993 4.9966,-8.99531 6.0169,-8.32322c1.23979,0.81668 -2.16794,5.55081 -1.18459,8.64773c1.61937,5.09997 7.43253,9.33497 8.5427,10.72707c1.14192,1.4319 2.19385,4.50885 4.03663,4.40084z" fill="#141414" stroke="none"/><path d="M201.61257,132.31825l5.65782,-8.60771l16.63526,20.85996l-5.65782,8.60772z" fill="none" stroke="#000000"/><path d="M201.61257,132.31825l5.65782,-8.60771l16.63526,20.85996l-5.65782,8.60772z" fill="none" stroke="#000000"/></g></g><g data-paper-data="{&quot;index&quot;:null}"><g><g><path d="M193.94417,175.29583l4.06867,49.7378l-10.64898,1.7778l-4.06866,-49.73781z" fill="#252525" stroke="#000000"/><path d="M193.94417,175.29583l4.06867,49.7378l-10.64898,1.7778l-4.06866,-49.73781z" fill="#252525" stroke="#000000"/><path d="M197.6507,221.46109c0.29574,3.6153 -1.6161,-17.55522 -2.92504,-25.47902c-1.24849,-7.5578 -1.87184,-1.80964 -2.60283,-1.68762c-0.71067,0.11865 -4.51886,-9.05291 -5.46814,0.9606c-0.57645,6.08062 1.86132,34.59413 1.04666,32.36069c-0.67042,-1.83803 -4.1662,-48.55562 -4.30325,-50.23097c-0.16366,-2.00077 0.33958,-0.11942 1.06266,-0.43405c1.82972,-0.79618 5.50592,-0.44964 6.57915,-0.62881c0.96232,-0.16065 1.39308,-10.26133 3.30612,5.15121c1.06362,8.56923 3.09821,37.46401 3.30468,39.98798z" fill="#141414" stroke="none"/><path d="M193.94417,175.29583l4.06867,49.7378l-10.64898,1.7778l-4.06866,-49.73781z" fill="none" stroke="#000000"/><path d="M193.94417,175.29583l4.06867,49.7378l-10.64898,1.7778l-4.06866,-49.73781z" fill="none" stroke="#000000"/></g><g><path d="M198.17488,197.28779l0.82377,10.07039l-15.55803,2.59735l-0.82378,-10.07039z" fill="#252525" stroke="#000000"/><path d="M198.17488,197.28779l0.82377,10.07039l-15.55803,2.59735l-0.82378,-10.07039z" fill="#252525" stroke="#000000"/><path d="M197.20243,201.66491c-1.03526,-1.39958 -2.51923,-0.00909 -3.58719,0.16919c-1.03828,0.17334 -5.60592,-1.04979 -7.99373,1.34419c-1.44997,1.45373 -0.82568,7.20501 -1.77522,6.88379c-0.78144,-0.26435 -1.0847,-9.79076 -1.11245,-10.12997c-0.11699,-1.43016 8.2701,-2.91185 10.45774,-3.27707c1.40594,-0.23473 3.73908,-1.08046 4.93621,1.90492c0.66559,1.65985 0.66897,7.57837 0.71078,8.08939c0.05987,0.73199 -0.55075,-3.51708 -1.63614,-4.98445z" fill="#141414" stroke="none"/><path d="M198.17488,197.28779l0.82377,10.07039l-15.55803,2.59735l-0.82378,-10.07039z" fill="none" stroke="#000000"/><path d="M198.17488,197.28779l0.82377,10.07039l-15.55803,2.59735l-0.82378,-10.07039z" fill="none" stroke="#000000"/></g><g><path d="M197.79326,181.16466l0.82378,10.0704l-17.57745,2.93448l-0.82378,-10.0704z" fill="#252525" stroke="#000000"/><path d="M197.79326,181.16466l0.82378,10.0704l-17.57745,2.93448l-0.82378,-10.0704z" fill="#252525" stroke="#000000"/><path d="M198.44388,190.5284c0.05987,0.73199 -0.58443,-3.51144 -1.79343,-4.9582c-1.15317,-1.3799 -2.84171,0.04476 -4.0483,0.24619c-1.17305,0.19583 -6.31279,-0.9318 -9.03142,1.51741c-1.65087,1.48726 -1.00688,7.23527 -2.07463,6.93379c-0.87872,-0.2481 -1.12105,-9.78471 -1.14879,-10.12391c-0.11699,-1.43016 9.3596,-3.09374 11.83119,-3.50637c1.58843,-0.26519 4.22918,-1.16227 5.54834,1.80272c0.73344,1.64852 0.67525,7.57731 0.71705,8.08834z" fill="#141414" stroke="none"/><path d="M197.79326,181.16466l0.82378,10.0704l-17.57745,2.93448l-0.82378,-10.0704z" fill="none" stroke="#000000"/><path d="M197.79326,181.16466l0.82378,10.0704l-17.57745,2.93448l-0.82378,-10.0704z" fill="none" stroke="#000000"/></g></g><g><path d="M200.78465,216.55819l0.94614,11.56618l-18.15443,3.03084l-0.94615,-11.56618z" fill="#252525" stroke="#000000"/><path d="M200.78465,216.55819l0.94614,11.56618l-18.15443,3.03084l-0.94615,-11.56618z" fill="#252525" stroke="#000000"/><path d="M199.64368,221.58945c-1.20569,-1.6047 -2.939,-0.00283 -4.18519,0.2052c-1.21156,0.20227 -6.53855,-1.18904 -9.3278,1.56834c-1.69374,1.67438 -0.97393,8.27947 -2.08122,7.91334c-0.91126,-0.30132 -1.25095,-11.24416 -1.28282,-11.63375c-0.13437,-1.64258 9.65253,-3.37008 12.20525,-3.79625c1.64058,-0.27389 4.36373,-1.25248 5.75594,2.17342c0.77406,1.90478 0.76923,8.70383 0.81723,9.29077c0.06877,0.84071 -0.63731,-4.03868 -1.90139,-5.72108z" fill="#141414" stroke="none"/><path d="M200.78465,216.55819l0.94614,11.56618l-18.15443,3.03084l-0.94615,-11.56618z" fill="none" stroke="#000000"/><path d="M200.78465,216.55819l0.94614,11.56618l-18.15443,3.03084l-0.94615,-11.56618z" fill="none" stroke="#000000"/></g></g></g><g data-paper-data="{&quot;index&quot;:null}" stroke-linecap="butt"><g data-paper-data="{&quot;index&quot;:null}" stroke-width="3"><g><g><path d="M271.28238,257.71921l-2.08348,50.17162l-18.16053,-0.02909l2.08348,-50.17163z" fill="#252525" stroke="#000000"/><path d="M271.28238,257.71921l-2.08348,50.17162l-18.16053,-0.02909l2.08348,-50.17163z" fill="#252525" stroke="#000000"/><path d="M251.30609,304.24662c0.10573,-2.54598 0.76021,-31.639 1.73177,-40.34224c1.74747,-15.65357 3.44784,-5.67023 5.08896,-5.66761c1.83027,0.00293 8.0071,-0.94283 11.17472,-0.4494c1.2518,0.195 1.92076,-1.75986 1.83695,0.25835c-0.07018,1.68996 -1.47673,48.76177 -2.43227,50.70083c-1.16111,2.3562 0.21116,-26.42321 -1.34819,-32.38136c-2.56792,-9.81183 -8.11787,-0.06048 -9.32983,-0.06243c-1.24661,-0.00198 -2.8532,-5.62155 -4.23446,2.10518c-1.44814,8.10091 -2.6391,29.4855 -2.48766,25.83867z" fill="#141414" stroke="none"/><path d="M271.28238,257.71921l-2.08348,50.17162l-18.16053,-0.02909l2.08348,-50.17163z" fill="none" stroke="#000000"/><path d="M271.28238,257.71921l-2.08348,50.17162l-18.16053,-0.02909l2.08348,-50.17163z" fill="none" stroke="#000000"/></g><g><path d="M274.62501,280.31382l-0.42184,10.15822l-26.5323,-0.0425l0.42183,-10.15823z" fill="#252525" stroke="#000000"/><path d="M274.62501,280.31382l-0.42184,10.15822l-26.5323,-0.0425l0.42183,-10.15823z" fill="#252525" stroke="#000000"/><path d="M250.15699,284.46916c-1.69225,1.63794 -2.31458,5.96706 -2.28393,5.22869c0.02141,-0.51549 -0.54284,-6.40705 0.42171,-8.16796c1.73483,-3.16716 5.75763,-2.70668 8.15529,-2.70283c3.73074,0.00597 18.04174,0.11001 17.98184,1.55264c-0.01421,0.34216 0.39088,9.87386 -0.90375,10.2647c-1.57313,0.47492 -1.07235,-5.35167 -3.66179,-6.56166c-4.26426,-1.99259 -11.86261,-0.02863 -13.63326,-0.03146c-1.82128,-0.00291 -4.46204,-1.14441 -6.07613,0.41788z" fill="#141414" stroke="none"/><path d="M274.62501,280.31382l-0.42184,10.15822l-26.5323,-0.0425l0.42183,-10.15823z" fill="none" stroke="#000000"/><path d="M274.62501,280.31382l-0.42184,10.15822l-26.5323,-0.0425l0.42183,-10.15823z" fill="none" stroke="#000000"/></g><g><path d="M277.16093,264.20877l-0.42184,10.15823l-29.97619,-0.04801l0.42184,-10.15823z" fill="#252525" stroke="#000000"/><path d="M277.16093,264.20877l-0.42184,10.15823l-29.97619,-0.04801l0.42184,-10.15823z" fill="#252525" stroke="#000000"/><path d="M246.98737,273.58729c0.0214,-0.51547 -0.64784,-6.4072 0.43241,-8.16793c1.94293,-3.16681 6.49033,-2.7055 9.19921,-2.70115c4.215,0.00675 20.384,0.11377 20.3241,1.5564c-0.01422,0.34216 0.49481,9.87405 -0.96573,10.26462c-1.77473,0.47458 -1.24037,-5.35197 -4.1724,-6.56249c-4.82845,-1.9935 -13.40242,-0.03108 -15.40291,-0.03428c-2.05768,-0.00329 -5.04734,-1.14536 -6.8625,0.4166c-1.90304,1.63762 -2.58283,5.96663 -2.55217,5.22827z" fill="#141414" stroke="none"/><path d="M277.16093,264.20877l-0.42184,10.15823l-29.97619,-0.04801l0.42184,-10.15823z" fill="none" stroke="#000000"/><path d="M277.16093,264.20877l-0.42184,10.15823l-29.97619,-0.04801l0.42184,-10.15823z" fill="none" stroke="#000000"/></g></g><g><path d="M276.49993,299.92832l-0.48451,11.66706l-30.96016,-0.04962l0.4845,-11.66706z" fill="#252525" stroke="#000000"/><path d="M276.49993,299.92832l-0.48451,11.66706l-30.96016,-0.04962l0.4845,-11.66706z" fill="#252525" stroke="#000000"/><path d="M247.95168,304.70011c-1.97339,1.88118 -2.6963,6.8533 -2.66108,6.00525c0.02457,-0.59206 -0.63832,-7.35873 0.48586,-9.38116c2.02195,-3.63752 6.71642,-3.10854 9.51422,-3.10406c4.35336,0.00698 21.05273,0.12689 20.98392,1.7838c-0.01632,0.39299 0.46363,11.34049 -1.04674,11.78933c-1.8353,0.54541 -1.25538,-6.14663 -4.27787,-7.53641c-4.97741,-2.28869 -13.84232,-0.03322 -15.90848,-0.03654c-2.12522,-0.0034 -5.20756,-1.31453 -7.0898,0.47977z" fill="#141414" stroke="none"/><path d="M276.49993,299.92832l-0.48451,11.66706l-30.96016,-0.04962l0.4845,-11.66706z" fill="none" stroke="#000000"/><path d="M276.49993,299.92832l-0.48451,11.66706l-30.96016,-0.04962l0.4845,-11.66706z" fill="none" stroke="#000000"/></g></g><g data-paper-data="{&quot;index&quot;:null}" stroke-width="3"><g><g><path d="M254.65061,265.31109l-10.72053,-48.86034l17.79739,-3.88203l10.72052,48.86035z" fill="#252525" stroke="#000000"/><path d="M254.65061,265.31109l-10.72053,-48.86034l17.79739,-3.88203l10.72052,48.86035z" fill="#252525" stroke="#000000"/><path d="M244.81785,219.94643c-0.77923,-3.55151 4.08711,17.2099 6.90789,24.86318c2.69049,7.29979 3.2934,1.43668 4.51508,1.17021c1.18771,-0.25908 8.3149,8.1457 9.13505,-2.04103c0.49802,-6.1858 -5.82513,-34.17543 -4.27937,-32.10643c1.27209,1.70272 10.79287,47.66058 11.15398,49.30637c0.43124,1.96548 -0.56266,0.18642 -1.75604,0.64366c-3.0198,1.15701 -9.23843,1.53828 -11.03211,1.92952c-1.60829,0.3508 -1.54834,10.52199 -5.96893,-4.4896c-2.4578,-8.34632 -8.13155,-36.79643 -8.67558,-39.27588z" fill="#141414" stroke="none"/><path d="M254.65061,265.31109l-10.72053,-48.86034l17.79739,-3.88203l10.72052,48.86035z" fill="none" stroke="#000000"/><path d="M254.65061,265.31109l-10.72053,-48.86034l17.79739,-3.88203l10.72052,48.86035z" fill="none" stroke="#000000"/></g><g><path d="M245.81479,244.1882l-2.17057,-9.89273l26.00176,-5.67157l2.17058,9.89273z" fill="#252525" stroke="#000000"/><path d="M245.81479,244.1882l-2.17057,-9.89273l26.00176,-5.67157l2.17058,9.89273z" fill="#252525" stroke="#000000"/><path d="M243.96897,234.97159c-0.15777,-0.71908 1.2011,3.40299 3.14329,4.65349c1.85248,1.19274 4.24374,-0.48932 6.02859,-0.87864c1.73523,-0.37849 9.52347,-0.06084 13.35898,-2.92372c2.32909,-1.73846 0.83037,-7.35785 2.45461,-7.22496c1.33669,0.10937 2.58829,9.56189 2.6614,9.89511c0.30825,1.40492 -13.70255,4.54378 -17.3587,5.34126c-2.34972,0.51254 -6.21355,1.81862 -8.462,-0.92556c-1.2501,-1.52574 -1.71604,-7.43497 -1.82619,-7.93698z" fill="#141414" stroke="none"/><path d="M245.81479,244.1882l-2.17057,-9.89273l26.00176,-5.67157l2.17058,9.89273z" fill="none" stroke="#000000"/><path d="M245.81479,244.1882l-2.17057,-9.89273l26.00176,-5.67157l2.17058,9.89273z" fill="none" stroke="#000000"/></g><g><path d="M247.71135,260.21231l-2.17058,-9.89274l29.37679,-6.40775l2.17057,9.89274z" fill="#252525" stroke="#000000"/><path d="M247.71135,260.21231l-2.17058,-9.89274l29.37679,-6.40775l2.17057,9.89274z" fill="#252525" stroke="#000000"/><path d="M245.88739,250.99094c-0.15777,-0.71907 1.25738,3.39071 3.40616,4.59615c2.04954,1.14976 4.78271,-0.6069 6.79924,-1.04676c1.96049,-0.42761 10.70481,-0.31849 15.09324,-3.30198c2.66482,-1.8117 1.13318,-7.42392 2.95502,-7.33413c1.4993,0.07389 2.64903,9.54865 2.72215,9.88187c0.30826,1.40492 -15.5234,4.94094 -19.65412,5.84195c-2.6547,0.57905 -7.03263,1.99728 -9.48502,-0.7024c-1.36349,-1.50101 -1.72654,-7.43268 -1.83668,-7.93467z" fill="#141414" stroke="none"/><path d="M247.71135,260.21231l-2.17058,-9.89274l29.37679,-6.40775l2.17057,9.89274z" fill="none" stroke="#000000"/><path d="M247.71135,260.21231l-2.17058,-9.89274l29.37679,-6.40775l2.17057,9.89274z" fill="none" stroke="#000000"/></g></g><g><path d="M239.9207,225.46222l-2.49298,-11.36213l30.34108,-6.61811l2.49299,11.36212z" fill="#252525" stroke="#000000"/><path d="M239.9207,225.46222l-2.49298,-11.36213l30.34108,-6.61811l2.49299,11.36212z" fill="#252525" stroke="#000000"/><path d="M241.45116,220.21255c2.15548,1.36382 4.95027,-0.57864 7.03299,-1.03292c2.02484,-0.44167 11.10507,-0.1063 15.58845,-3.41148c2.7225,-2.00704 0.99651,-8.46008 2.88995,-8.31355c1.55822,0.1206 2.98131,10.98028 3.06529,11.36299c0.35404,1.61361 -15.99529,5.27484 -20.26159,6.20542c-2.74186,0.59806 -7.25227,2.11398 -9.86352,-1.03149c-1.45183,-1.74886 -1.97243,-8.53896 -2.09893,-9.11554c-0.18122,-0.82587 1.38747,3.90672 3.64734,5.33658z" fill="#141414" stroke="none"/><path d="M239.9207,225.46222l-2.49298,-11.36213l30.34108,-6.61811l2.49299,11.36212z" fill="none" stroke="#000000"/><path d="M239.9207,225.46222l-2.49298,-11.36213l30.34108,-6.61811l2.49299,11.36212z" fill="none" stroke="#000000"/></g></g><g><path d="M308.09399,319.07107c0,4.41177 3.52492,10.63479 -1.52412,13.68555c-5.85665,3.53875 -20.97136,3.56864 -30.45656,3.56864c-8.8524,0 -20.16172,-0.62173 -25.95233,-3.75733c-5.76291,-3.12061 -6.02833,-8.74367 -6.02833,-13.49685c0,-9.52922 14.31823,-17.25417 31.98066,-17.25417c17.66244,0 31.98068,7.72495 31.98068,17.25417z" fill="#00ffe6" stroke="#000000" stroke-width="0"/><path d="M308.73792,328.20816c0,5.09843 -14.51504,9.23153 -32.42027,9.23153c-17.90522,0 -32.42027,-4.13309 -32.42027,-9.23153c0,-5.09843 -2.62923,-22.85904 15.27598,-22.85904c3.05013,0 -4.0534,4.36168 -8.21193,9.76273c-3.81302,4.9523 -4.76499,10.91847 -1.32161,12.22351c7.68276,2.91177 27.19596,4.98165 40.42027,4.01952c12.33112,-0.89715 18.67781,-4.8035 18.67781,-3.14672z" fill="#00d6c0" stroke="none" stroke-width="0"/><path d="M307.41913,319.52612c0,4.41177 3.52494,10.63479 -1.5241,13.68555c-5.85665,3.53875 -20.97136,3.56862 -30.45656,3.56862c-8.8524,0 -20.16172,-0.62172 -25.95234,-3.75733c-5.7629,-3.12061 -6.02833,-8.74367 -6.02833,-13.49685c0,-9.52922 14.31823,-17.25417 31.98068,-17.25417c17.66243,0 31.98067,7.72495 31.98067,17.25417z" fill="none" stroke="#000000" stroke-width="3.5"/></g></g><g stroke-linecap="butt"><g data-paper-data="{&quot;index&quot;:null}" stroke-width="3"><g><g><path d="M224.59892,259.14367l2.08348,50.17163l-18.16054,0.02909l-2.08347,-50.17163z" fill="#252525" stroke="#000000"/><path d="M224.59892,259.14367l2.08348,50.17163l-18.16054,0.02909l-2.08347,-50.17163z" fill="#252525" stroke="#000000"/><path d="M226.41469,305.70016c0.15144,3.64682 -1.03952,-17.73777 -2.48766,-25.83868c-1.38125,-7.72673 -2.98785,-2.10716 -4.23446,-2.10518c-1.21196,0.00195 -6.76191,-9.74939 -9.32984,0.06244c-1.55935,5.95815 -0.18708,34.73756 -1.34819,32.38136c-0.95554,-1.93906 -2.36208,-49.01087 -2.43227,-50.70083c-0.08381,-2.01822 0.58515,-0.06336 1.83695,-0.25835c3.16762,-0.49343 9.34446,0.45233 11.17473,0.4494c1.64112,-0.00262 3.34149,-9.98597 5.08896,5.6676c0.97157,8.70325 1.62604,37.79626 1.73178,40.34224z" fill="#141414" stroke="none"/><path d="M224.59892,259.14367l2.08348,50.17163l-18.16054,0.02909l-2.08347,-50.17163z" fill="none" stroke="#000000"/><path d="M224.59892,259.14367l2.08348,50.17163l-18.16054,0.02909l-2.08347,-50.17163z" fill="none" stroke="#000000"/></g><g><path d="M229.62807,281.72488l0.42184,10.15822l-26.5323,0.0425l-0.42184,-10.15822z" fill="#252525" stroke="#000000"/><path d="M229.62807,281.72488l0.42184,10.15822l-26.5323,0.0425l-0.42184,-10.15822z" fill="#252525" stroke="#000000"/><path d="M227.5638,285.92272c-1.61408,-1.56228 -4.25485,-0.4208 -6.07613,-0.41788c-1.77065,0.00283 -9.369,-1.96112 -13.63326,0.03147c-2.58944,1.20999 -2.08865,7.03657 -3.66178,6.56165c-1.29463,-0.39084 -0.88954,-9.92254 -0.90375,-10.2647c-0.05991,-1.44263 14.25109,-1.54667 17.98183,-1.55264c2.39766,-0.00386 6.42046,-0.46433 8.15529,2.70283c0.96456,1.76092 0.4003,7.65248 0.42171,8.16796c0.03066,0.73837 -0.59168,-3.59075 -2.28393,-5.22869z" fill="#141414" stroke="none"/><path d="M229.62807,281.72488l0.42184,10.15822l-26.5323,0.0425l-0.42184,-10.15822z" fill="none" stroke="#000000"/><path d="M229.62807,281.72488l0.42184,10.15822l-26.5323,0.0425l-0.42184,-10.15822z" fill="none" stroke="#000000"/></g><g><path d="M230.53604,265.61431l0.42184,10.15823l-29.9762,0.04801l-0.42184,-10.15823z" fill="#252525" stroke="#000000"/><path d="M230.53604,265.61431l0.42184,10.15823l-29.9762,0.04801l-0.42184,-10.15823z" fill="#252525" stroke="#000000"/><path d="M230.7334,275.04086c0.03066,0.73837 -0.64912,-3.59064 -2.55217,-5.22826c-1.81516,-1.56196 -4.80482,-0.4199 -6.8625,-0.4166c-2.00049,0.0032 -10.57446,-1.95922 -15.40291,0.03428c-2.93203,1.21053 -2.39766,7.03708 -4.1724,6.56249c-1.46054,-0.39057 -0.95152,-9.92246 -0.96573,-10.26462c-0.05991,-1.44263 16.1091,-1.54964 20.3241,-1.5564c2.70887,-0.00434 7.25627,-0.46566 9.1992,2.70116c1.08025,1.76073 0.41101,7.65246 0.43241,8.16793z" fill="#141414" stroke="none"/><path d="M230.53604,265.61431l0.42184,10.15823l-29.9762,0.04801l-0.42184,-10.15823z" fill="none" stroke="#000000"/><path d="M230.53604,265.61431l0.42184,10.15823l-29.9762,0.04801l-0.42184,-10.15823z" fill="none" stroke="#000000"/></g></g><g><path d="M232.18103,301.33225l0.4845,11.66706l-30.96017,0.04962l-0.48451,-11.66706z" fill="#252525" stroke="#000000"/><path d="M232.18103,301.33225l0.4845,11.66706l-30.96017,0.04962l-0.48451,-11.66706z" fill="#252525" stroke="#000000"/><path d="M229.76908,306.15365c-1.88224,-1.7943 -4.96459,-0.48316 -7.08981,-0.47977c-2.06616,0.00332 -10.93107,-2.25216 -15.90847,0.03654c-3.02249,1.38978 -2.44257,8.08181 -4.27787,7.5364c-1.51037,-0.44885 -1.03042,-11.39635 -1.04675,-11.78934c-0.06881,-1.65691 16.63056,-1.77682 20.98391,-1.7838c2.79781,-0.00448 7.49227,-0.53346 9.51423,3.10406c1.12418,2.02243 0.46128,8.78911 0.48586,9.38117c0.03522,0.84804 -0.68769,-4.12408 -2.66109,-6.00526z" fill="#141414" stroke="none"/><path d="M232.18103,301.33225l0.4845,11.66706l-30.96017,0.04962l-0.48451,-11.66706z" fill="none" stroke="#000000"/><path d="M232.18103,301.33225l0.4845,11.66706l-30.96017,0.04962l-0.48451,-11.66706z" fill="none" stroke="#000000"/></g></g><g data-paper-data="{&quot;index&quot;:null}" stroke-width="3"><g><g><path d="M205.27278,262.88262l10.72052,-48.86035l17.7974,3.88203l-10.72053,48.86034z" fill="#252525" stroke="#000000"/><path d="M205.27278,262.88262l10.72052,-48.86035l17.7974,3.88203l-10.72053,48.86034z" fill="#252525" stroke="#000000"/><path d="M232.90294,221.39997c-0.54402,2.47945 -6.21778,30.92956 -8.67558,39.27588c-4.42059,15.01159 -4.36063,4.8404 -5.96892,4.4896c-1.79367,-0.39124 -8.01231,-0.77251 -11.03211,-1.92952c-1.19339,-0.45723 -2.18728,1.32182 -1.75604,-0.64366c0.36111,-1.64579 9.88188,-47.60365 11.15398,-49.30637c1.54576,-2.069 -4.7774,25.92064 -4.27937,32.10643c0.82015,10.18674 7.94734,1.78195 9.13506,2.04103c1.22169,0.26647 1.82459,6.12957 4.51509,-1.17021c2.82078,-7.65328 7.68713,-28.41469 6.90789,-24.86318z" fill="#141414" stroke="none"/><path d="M205.27278,262.88262l10.72052,-48.86035l17.7974,3.88203l-10.72053,48.86034z" fill="none" stroke="#000000"/><path d="M205.27278,262.88262l10.72052,-48.86035l17.7974,3.88203l-10.72053,48.86034z" fill="none" stroke="#000000"/></g><g><path d="M205.90423,239.97017l2.17057,-9.89273l26.00176,5.67158l-2.17057,9.89273z" fill="#252525" stroke="#000000"/><path d="M205.90423,239.97017l2.17057,-9.89273l26.00176,5.67158l-2.17057,9.89273z" fill="#252525" stroke="#000000"/><path d="M233.75181,236.42515c-0.11015,0.502 -0.57609,6.41123 -1.82619,7.93697c-2.24845,2.74418 -6.11228,1.4381 -8.462,0.92556c-3.65614,-0.79748 -17.66694,-3.93634 -17.35869,-5.34126c0.07311,-0.33322 1.32471,-9.78574 2.6614,-9.89511c1.62425,-0.13288 0.12552,5.4865 2.45462,7.22496c3.83551,2.86288 11.62374,2.54523 13.35898,2.92373c1.78486,0.38932 4.17611,2.07137 6.02859,0.87863c1.94219,-1.25049 3.30106,-5.37256 3.14329,-4.65348z" fill="#141414" stroke="none"/><path d="M205.90423,239.97017l2.17057,-9.89273l26.00176,5.67158l-2.17057,9.89273z" fill="none" stroke="#000000"/><path d="M205.90423,239.97017l2.17057,-9.89273l26.00176,5.67158l-2.17057,9.89273z" fill="none" stroke="#000000"/></g><g><path d="M200.63264,255.25812l2.17057,-9.89274l29.37679,6.40775l-2.17058,9.89274z" fill="#252525" stroke="#000000"/><path d="M200.63264,255.25812l2.17057,-9.89274l29.37679,6.40775l-2.17058,9.89274z" fill="#252525" stroke="#000000"/><path d="M231.83339,252.44451c-0.11014,0.502 -0.47319,6.43366 -1.83668,7.93467c-2.45238,2.69969 -6.83031,1.28145 -9.48501,0.7024c-4.13072,-0.901 -19.96238,-4.43703 -19.65412,-5.84194c0.07312,-0.33322 1.22285,-9.80798 2.72214,-9.88187c1.82183,-0.08979 0.2902,5.52243 2.95502,7.33413c4.38843,2.98349 13.13276,2.87437 15.09324,3.30198c2.01654,0.43985 4.7497,2.19651 6.79924,1.04675c2.14878,-1.20544 3.56393,-5.31522 3.40616,-4.59614z" fill="#141414" stroke="none"/><path d="M200.63264,255.25812l2.17057,-9.89274l29.37679,6.40775l-2.17058,9.89274z" fill="none" stroke="#000000"/><path d="M200.63264,255.25812l2.17057,-9.89274l29.37679,6.40775l-2.17058,9.89274z" fill="none" stroke="#000000"/></g></g><g><path d="M207.45899,220.29765l2.49299,-11.36212l30.34108,6.61811l-2.49298,11.36213z" fill="#252525" stroke="#000000"/><path d="M207.45899,220.29765l2.49299,-11.36212l30.34108,6.61811l-2.49298,11.36213z" fill="#252525" stroke="#000000"/><path d="M236.26965,221.6661c2.25988,-1.42986 3.82855,-6.16245 3.64734,-5.33657c-0.1265,0.57658 -0.6471,7.36668 -2.09893,9.11554c-2.61126,3.14547 -7.12167,1.62955 -9.86353,1.03149c-4.2663,-0.93058 -20.61563,-4.59181 -20.26159,-6.20541c0.08397,-0.38271 1.50706,-11.24239 3.06529,-11.36299c1.89344,-0.14654 0.16745,6.30651 2.88995,8.31354c4.48338,3.30519 13.56361,2.96981 15.58845,3.41148c2.08273,0.45428 4.87751,2.39674 7.03299,1.03292z" fill="#141414" stroke="none"/><path d="M207.45899,220.29765l2.49299,-11.36212l30.34108,6.61811l-2.49298,11.36213z" fill="none" stroke="#000000"/><path d="M207.45899,220.29765l2.49299,-11.36212l30.34108,6.61811l-2.49298,11.36213z" fill="none" stroke="#000000"/></g></g><g><path d="M169.62679,320.52464c0,-9.52922 14.31824,-17.25417 31.98067,-17.25417c17.66243,0 31.98066,7.72495 31.98066,17.25417c0,4.75318 -0.26542,10.37624 -6.02833,13.49684c-5.79061,3.1356 -17.09994,3.75733 -25.95233,3.75733c-9.48521,0 -24.59991,-0.02989 -30.45656,-3.56864c-5.04903,-3.05076 -1.52411,-9.27379 -1.52411,-13.68555z" fill="#00ffe6" stroke="#000000" stroke-width="0"/><path d="M168.98287,329.66171c0,-1.65678 6.34669,2.24958 18.67781,3.14672c13.22431,0.96213 32.73751,-1.10775 40.42027,-4.01952c3.44338,-1.30504 2.49141,-7.27121 -1.3216,-12.22351c-4.15852,-5.40105 -11.26206,-9.76272 -8.21193,-9.76272c17.90521,0 15.27599,17.7606 15.27599,22.85904c0,5.09844 -14.51505,9.23154 -32.42027,9.23154c-17.90522,0 -32.42027,-4.1331 -32.42027,-9.23154z" fill="#00d6c0" stroke="none" stroke-width="0"/><path d="M170.30163,320.97967c0,-9.52922 14.31824,-17.25417 31.98067,-17.25417c17.66244,0 31.98067,7.72496 31.98067,17.25417c0,4.75318 -0.26543,10.37624 -6.02833,13.49684c-5.79061,3.13561 -17.09993,3.75733 -25.95233,3.75733c-9.48521,0 -24.59991,-0.02988 -30.45656,-3.56863c-5.04903,-3.05076 -1.5241,-9.27379 -1.5241,-13.68555z" fill="none" stroke="#000000" stroke-width="3.5"/></g></g><g><path d="M205.44756,191.33773c0,-14.04759 10.897,-44.58531 20.53536,-56.87797c6.15797,-7.85381 10.2275,-1.13883 15.74782,-1.13883c6.19508,0 13.41518,-3.70825 19.30559,6.61822c7.57383,13.27766 13.10739,42.45905 13.10739,55.4096c0,23.02261 -18.25233,21.34444 -32.41298,21.34444c-14.16064,0 -36.28319,-2.33286 -36.28319,-25.35548z" fill="#00ffe6" stroke="#000000" stroke-width="0" stroke-linecap="butt"/><path d="M240.90277,126.3237c11.8896,0 22.0118,5.52833 22.0118,14.46838c0,0.39766 6.87167,7.61196 -1.78311,10.00038c-3.74784,1.03427 -10.10683,-4.35859 -17.06398,-4.17871c-8.57658,0.22173 -17.81081,6.08333 -21.15126,8.78243c-14.35544,11.59927 -13.53734,29.59385 -11.79017,32.01902c2.86141,3.97179 2.06949,12.80615 7.37319,15.68669c20.41733,11.08905 57.62794,9.17261 49.97875,9.17261c-6.27847,0 -44.72378,10.68136 -56.55343,-4.07994c-3.62653,-4.52526 -6.59197,-12.60499 -5.74484,-20.68559c1.62247,-15.47642 10.77615,-32.4849 10.77615,-35.25678c0,-8.94005 12.0573,-25.92849 23.9469,-25.92849z" fill="#00d6c0" stroke="none" stroke-width="0" stroke-linecap="butt"/><path d="M226.1225,134.05208c6.15797,-7.8538 11.15352,-7.41035 16.67383,-7.41035c6.19508,0 12.48917,2.56328 18.37958,12.88975c7.57383,13.27766 13.10739,42.45905 13.10739,55.4096c0,23.02261 -18.25234,21.34445 -32.41298,21.34445c-14.16064,0 -36.28318,-2.33287 -36.28318,-25.35548c0,-14.04759 10.89701,-44.58531 20.53536,-56.87797z" fill="none" stroke="#000000" stroke-width="3.5" stroke-linecap="butt"/><path d="M271.86442,176.17515l-10.40118,1.14601l-10.40118,3.15153l-13.30383,0.573l-13.54572,-1.14601l-7.25664,-4.29754l-8.46607,-0.8595" fill="none" stroke="#000000" stroke-width="3.5" stroke-linecap="round"/><g stroke-linecap="butt"><path d="M267.07007,144.45889c0,3.00639 -0.14745,19.76868 -6.89381,19.76868c-6.74635,0 -17.53687,-16.7623 -17.53687,-19.76868c0,-3.00639 10.79052,-17.47666 17.53687,-17.47666c6.74635,0 6.89381,14.47027 6.89381,17.47666z" data-paper-data="{&quot;index&quot;:null}" fill="#ff0000" stroke="#000000" stroke-width="0"/><path d="M267.41428,149.065c0,4.0349 -1.48693,14.18188 -7.49852,14.18188c-6.01159,0 -14.27138,-10.14698 -14.27138,-14.18188c0,-2.40829 11.54468,14.41849 15.8902,8.97295c1.86277,-2.33432 3.36792,-9.16239 2.89448,-17.39861c-0.27253,-4.741 -2.97978,-13.20529 -2.09442,-13.20529c6.01159,0 5.07964,17.59606 5.07964,21.63095z" data-paper-data="{&quot;index&quot;:null}" fill="#bf0000" stroke="none" stroke-width="0"/><path d="M266.93049,144.62421c0,3.00639 -0.14745,19.76868 -6.89381,19.76868c-6.74634,0 -17.53687,-16.76229 -17.53687,-19.76868c0,-3.00639 10.79052,-17.47666 17.53687,-17.47666c6.74635,0 6.89381,14.47027 6.89381,17.47666z" data-paper-data="{&quot;index&quot;:null}" fill="none" stroke="#000000" stroke-width="3.5"/><path d="M222.35438,127.14755c6.74635,0 17.53688,14.47027 17.53688,17.47666c0,3.00639 -10.79053,19.76868 -17.53688,19.76868c-6.74635,0 -6.89381,-16.76229 -6.89381,-19.76868c0,-3.00638 0.14745,-17.47666 6.89381,-17.47666z" fill="#ff0000" stroke="#000000" stroke-width="0"/><path d="M220.19603,127.59937c0.88538,0 -1.82188,8.46429 -2.09441,13.20529c-0.47344,8.23622 1.0317,15.06429 2.89448,17.39861c4.34552,5.44554 15.8902,-11.38124 15.8902,-8.97295c0,4.03489 -8.25979,14.18188 -14.27138,14.18188c-6.0116,0 -7.49853,-10.14699 -7.49853,-14.18188c0,-4.0349 -0.93195,-21.63095 5.07964,-21.63095z" fill="#bf0000" stroke="none" stroke-width="0"/><path d="M222.49396,127.31288c6.74634,0 17.53687,14.47027 17.53687,17.47666c0,3.00639 -10.79053,19.76868 -17.53687,19.76868c-6.74635,0 -6.89381,-16.76229 -6.89381,-19.76868c0,-3.00638 0.14746,-17.47666 6.89381,-17.47666z" fill="none" stroke="#000000" stroke-width="3.5"/><path d="M242.12116,136.02913c4.3417,0 7.86135,4.29709 7.86135,9.59784c0,5.30074 -3.51964,9.59784 -7.86135,9.59784c-4.3417,0 -7.86135,-4.29709 -7.86135,-9.59784c0,-5.30073 3.51965,-9.59784 7.86135,-9.59784z" fill="#ff0000" stroke="#000000" stroke-width="0"/><path d="M234.46741,147.65457c0,-3.95579 0.56285,-11.4601 4.83776,-11.4601c1.33992,0 -2.18506,7.88185 -1.91874,11.43293c0.19641,2.61896 4.10978,4.36035 5.04491,5.49202c1.84223,2.22942 7.51689,-7.2663 7.51689,-5.46484c0,3.95578 -3.4655,7.16256 -7.74041,7.16256c-4.27491,0 -7.74041,-3.20679 -7.74041,-7.16256z" fill="#bf0000" stroke="none" stroke-width="0"/><path d="M242.01885,136.19445c4.3417,0 7.86135,4.29709 7.86135,9.59784c0,5.30074 -3.51965,9.59784 -7.86135,9.59784c-4.3417,0 -7.86135,-4.29709 -7.86135,-9.59784c0,-5.30074 3.51965,-9.59784 7.86135,-9.59784z" fill="none" stroke="#000000" stroke-width="3.5"/></g></g><path d="M211.22052,114.17372c0,-2.2349 13.04963,13.54746 31.3175,13.54746c18.26787,0 32.1972,-15.07859 32.1972,-12.84369c0,2.2349 -13.04963,16.53846 -31.3175,16.53846c-18.26787,0 -32.1972,-15.00732 -32.1972,-17.24222z" fill="#00d6c0" stroke="none" stroke-width="0" stroke-linecap="butt"/><g><path d="M180.52416,239.62136c-0.77896,-9.4661 5.58262,-17.71537 14.20899,-18.42522c8.62637,-0.70986 16.2509,6.38848 17.02987,15.85458c0.77897,9.46611 -5.58263,17.71537 -14.209,18.42523c-8.62638,0.70987 -16.2509,-6.38848 -17.02987,-15.85458z" fill="#00ffe6" stroke="#000000" stroke-width="0" stroke-linecap="butt"/><path d="M182.39513,245.96663c-0.43974,-5.34377 -4.57224,-19.66295 3.06172,-20.29114c1.28077,-0.1054 -1.11607,6.22214 0.22179,12.39094c1.26902,5.85142 6.25859,11.53037 7.97271,12.50747c7.2499,4.13267 16.09281,-10.479 16.38879,-6.88217c0.43973,5.34376 -5.39233,10.185 -13.02629,10.81319c-7.63396,0.62819 -14.17899,-3.19454 -14.61872,-8.53831z" fill="#00d6c0" stroke="none" stroke-width="0" stroke-linecap="butt"/><path d="M194.7727,222.09095c8.62638,-0.70987 16.25091,6.38848 17.02987,15.85458c0.77897,9.46611 -5.58261,17.71537 -14.20899,18.42522c-8.62638,0.70987 -16.2509,-6.38848 -17.02987,-15.85458c-0.77897,-9.46611 5.58261,-17.71536 14.20899,-18.42522z" fill="none" stroke="#000000" stroke-width="3.5" stroke-linecap="butt"/><g><path d="M180.24342,261.88906c2.80689,6.63054 2.45197,13.11915 -0.79278,14.49273c-3.24473,1.37359 -8.15053,-2.888 -10.95742,-9.51854c-1.49501,-3.53157 0.20286,-16.86463 4.64748,-20.61778c3.90016,-3.29339 10.41745,2.79418 11.93396,2.15219c3.24473,-1.37359 -7.63815,6.86088 -4.83125,13.49139z" fill="#00ffe6" stroke="#000000" stroke-width="0" stroke-linecap="butt"/><path d="M180.05976,269.72311c1.16456,2.75096 0.0339,5.413 -1.80007,6.18938c-1.83397,0.77638 -4.26477,-0.82434 -5.42933,-3.57531c-1.16456,-2.75096 5.11192,-25.50822 6.94591,-26.2846c0.673,-0.2849 4.82879,0.1389 4.06835,3.75449c-1.42869,6.79302 -4.52207,18.17458 -3.78487,19.91604z" fill="#00d6c0" stroke="none" stroke-width="0" stroke-linecap="butt"/><path d="M180.48837,261.67083c2.8069,6.63052 2.45197,13.11915 -0.79277,14.49273c-3.24472,1.37358 -8.15053,-2.88801 -10.95741,-9.51854c-1.49501,-3.53157 0.20286,-16.86463 4.64747,-20.61778c3.90016,-3.29339 10.41745,2.79418 11.93396,2.15219c3.24472,-1.37358 -7.63815,6.86088 -4.83126,13.49139z" fill="none" stroke="#000000" stroke-width="3.5" stroke-linecap="butt"/><path d="M168.84351,259.06689l10.37591,1.02946" fill="none" stroke="#000000" stroke-width="3.5" stroke-linecap="round"/></g><g><path d="M196.35444,263.02453c4.08701,5.92781 5.04859,12.35458 2.14774,14.35461c-2.90085,2.00003 -8.56561,-1.18406 -12.65262,-7.11187c-2.17683,-3.15729 -3.20411,-16.55871 0.39182,-21.13145c3.15544,-4.01259 10.76697,0.63476 12.12276,-0.3c2.90085,-2.00003 -6.09672,8.26092 -2.00971,14.18872z" fill="#00ffe6" stroke="#000000" stroke-width="0" stroke-linecap="butt"/><path d="M197.75522,270.73452c1.69567,2.45941 1.12539,5.29482 -0.51421,6.42528c-1.6396,1.13045 -4.34338,0.05312 -6.03906,-2.40629c-1.69567,-2.45941 -0.14004,-26.01503 1.49958,-27.14548c0.60168,-0.41483 4.75751,-0.83828 4.74224,2.85639c-0.02868,6.94158 -0.76197,18.71321 0.31145,20.2701z" fill="#00d6c0" stroke="none" stroke-width="0" stroke-linecap="butt"/><path d="M196.55031,262.76136c4.08701,5.9278 5.04859,12.35458 2.14775,14.35461c-2.90084,2.00002 -8.56562,-1.18407 -12.65262,-7.11187c-2.17683,-3.15729 -3.20411,-16.55871 0.39182,-21.13145c3.15544,-4.01259 10.76697,0.63476 12.12276,-0.3c2.90084,-2.00002 -6.09672,8.26092 -2.00971,14.18872z" fill="none" stroke="#000000" stroke-width="3.5" stroke-linecap="butt"/><path d="M184.61955,262.56057l10.37022,-1.08528" fill="none" stroke="#000000" stroke-width="3.5" stroke-linecap="round"/></g><g><path d="M210.80466,259.5404c6.0156,3.95666 9.32257,9.55059 7.38633,12.49439c-1.93624,2.9438 -8.38246,2.12273 -14.39806,-1.83394c-3.20403,-2.1074 -9.19376,-14.13973 -7.58055,-19.72885c1.41561,-4.90446 10.21587,-3.45925 11.12083,-4.83512c1.93624,-2.9438 -2.54415,9.94686 3.47144,13.90352z" fill="#00ffe6" stroke="#000000" stroke-width="0" stroke-linecap="butt"/><path d="M215.001,266.15832c2.49584,1.64159 3.03325,4.48343 1.93886,6.14731c-1.09439,1.66389 -4.00485,1.68196 -6.50068,0.04037c-2.49584,-1.64159 -9.90919,-24.05429 -8.81479,-25.71819c0.40161,-0.61059 4.09345,-2.56521 5.46817,0.86422c2.58286,6.44322 6.32848,17.6271 7.90843,18.66629z" fill="#00d6c0" stroke="none" stroke-width="0" stroke-linecap="butt"/><path d="M210.88723,259.2229c6.01559,3.95665 9.32257,9.55059 7.38633,12.49438c-1.93623,2.9438 -8.38246,2.12271 -14.39806,-1.83394c-3.20403,-2.1074 -9.19375,-14.13973 -7.58054,-19.72884c1.41561,-4.90446 10.21587,-3.45925 11.12083,-4.83512c1.93623,-2.9438 -2.54415,9.94686 3.47144,13.90352z" fill="none" stroke="#000000" stroke-width="3.5" stroke-linecap="butt"/><path d="M199.75606,263.52178l9.20164,-4.90398" fill="none" stroke="#000000" stroke-width="3.5" stroke-linecap="round"/></g><g><path d="M216.4601,248.07281c0.33115,-7.19255 -12.73317,-11.13802 -9.21341,-10.97597c1.64506,0.07573 5.64441,-7.89537 10.44517,-6.16034c5.47094,1.97725 11.69078,13.89224 11.51441,17.72315c-0.33115,7.19256 -3.45292,12.8919 -6.97269,12.72985c-3.51977,-0.16205 -6.10465,-6.12413 -5.7735,-13.31669z" fill="#00ffe6" stroke="#000000" stroke-width="0" stroke-linecap="butt"/><path d="M208.88944,237.99172c-1.96804,-3.12693 1.78235,-4.96674 2.5124,-4.93313c1.98944,0.09159 15.77415,19.25586 15.63676,22.24c-0.13739,2.98414 -1.86153,5.32902 -3.85096,5.23742c-1.98943,-0.0916 -3.97371,-2.19574 -3.83632,-5.17988c0.08697,-1.88907 -6.76433,-11.48952 -10.46188,-17.36442z" fill="#00d6c0" stroke="none" stroke-width="0" stroke-linecap="butt"/><path d="M206.94123,236.97718c1.64506,0.07573 5.64441,-7.89537 10.44517,-6.16034c5.47094,1.97725 11.69078,13.89224 11.51441,17.72315c-0.33115,7.19255 -3.45293,12.8919 -6.97269,12.72985c-3.51976,-0.16205 -6.10464,-6.12414 -5.77349,-13.3167c0.33115,-7.19255 -12.73316,-11.13802 -9.21341,-10.97597z" fill="none" stroke="#000000" stroke-width="3.5" stroke-linecap="butt"/><path d="M216.79824,246.03611l9.37364,-4.56664" fill="none" stroke="#000000" stroke-width="3.5" stroke-linecap="round"/></g></g><g data-paper-data="{&quot;index&quot;:null}"><path d="M302.64813,237.62137c-0.77897,9.4661 -8.40349,16.56445 -17.02987,15.85458c-8.62637,-0.70986 -14.98797,-8.95912 -14.209,-18.42523c0.77897,-9.4661 8.4035,-16.56444 17.02987,-15.85458c8.62637,0.70985 14.98795,8.95912 14.20899,18.42522z" fill="#00ffe6" stroke="#000000" stroke-width="0" stroke-linecap="butt"/><path d="M300.77715,243.96661c-0.43973,5.34377 -6.98476,9.1665 -14.61872,8.53831c-7.63396,-0.62819 -13.46602,-5.46943 -13.02629,-10.81319c0.29598,-3.59683 9.13889,11.01484 16.38879,6.88217c1.71412,-0.9771 6.70369,-6.65605 7.97271,-12.50747c1.33786,-6.1688 -1.05898,-12.49634 0.22179,-12.39094c7.63396,0.62819 3.50146,14.94737 3.06172,20.29114z" fill="#00d6c0" stroke="none" stroke-width="0" stroke-linecap="butt"/><path d="M302.60857,238.51617c-0.77897,9.4661 -8.40349,16.56445 -17.02987,15.85458c-8.62638,-0.70985 -14.98796,-8.95911 -14.20899,-18.42522c0.77896,-9.4661 8.40349,-16.56445 17.02987,-15.85458c8.62638,0.70986 14.98796,8.95911 14.20899,18.42522z" fill="none" stroke="#000000" stroke-width="3.5" stroke-linecap="butt"/><g><path d="M302.92887,259.88905c2.8069,-6.63051 -8.07598,-14.86498 -4.83125,-13.49139c1.51651,0.64199 8.0338,-5.44558 11.93396,-2.15219c4.44462,3.75315 6.14249,17.08621 4.64748,20.61778c-2.80689,6.63054 -7.71269,10.89213 -10.95742,9.51854c-3.24475,-1.37358 -3.59967,-7.86219 -0.79278,-14.49273z" fill="#00ffe6" stroke="#000000" stroke-width="0" stroke-linecap="butt"/><path d="M303.11253,267.72311c0.7372,-1.74146 -2.35618,-13.12302 -3.78487,-19.91604c-0.76044,-3.61559 3.39535,-4.03939 4.06835,-3.75449c1.83399,0.77638 8.11047,23.53364 6.94591,26.2846c-1.16456,2.75097 -3.59536,4.35169 -5.42933,3.57531c-1.83397,-0.77638 -2.96463,-3.43842 -1.80007,-6.18938z" fill="#00d6c0" stroke="none" stroke-width="0" stroke-linecap="butt"/><path d="M302.68392,259.67082c2.80689,-6.63051 -8.07598,-14.86497 -4.83126,-13.49139c1.51651,0.64199 8.0338,-5.44558 11.93396,-2.15219c4.44461,3.75315 6.14248,17.08621 4.64747,20.61778c-2.80688,6.63053 -7.71269,10.89212 -10.95741,9.51854c-3.24474,-1.37358 -3.59967,-7.86221 -0.79277,-14.49273z" fill="none" stroke="#000000" stroke-width="3.5" stroke-linecap="butt"/><path d="M314.32877,257.06689l-10.37591,1.02946" fill="none" stroke="#000000" stroke-width="3.5" stroke-linecap="round"/></g><g><path d="M286.81785,261.02454c4.08701,-5.9278 -4.91056,-16.18875 -2.00971,-14.18872c1.35579,0.93476 8.96732,-3.71259 12.12276,0.3c3.59593,4.57274 2.56865,17.97416 0.39182,21.13145c-4.08701,5.92781 -9.75177,9.1119 -12.65262,7.11187c-2.90085,-2.00003 -1.93927,-8.4268 2.14774,-14.35461z" fill="#00ffe6" stroke="#000000" stroke-width="0" stroke-linecap="butt"/><path d="M285.72851,248.46442c-0.01527,-3.69467 4.14056,-3.27122 4.74224,-2.85639c1.63962,1.13045 3.19525,24.68607 1.49958,27.14548c-1.69568,2.45941 -4.39946,3.53674 -6.03906,2.40629c-1.6396,-1.13046 -2.20988,-3.96587 -0.51421,-6.42528c1.07342,-1.55689 0.34013,-13.32852 0.31145,-20.2701z" fill="#00d6c0" stroke="none" stroke-width="0" stroke-linecap="butt"/><path d="M286.62197,260.76137c4.08701,-5.9278 -4.91055,-16.18874 -2.00971,-14.18872c1.35579,0.93476 8.96732,-3.71259 12.12276,0.3c3.59593,4.57274 2.56865,17.97416 0.39182,21.13145c-4.087,5.9278 -9.75178,9.11189 -12.65262,7.11187c-2.90084,-2.00003 -1.93926,-8.42681 2.14775,-14.35461z" fill="none" stroke="#000000" stroke-width="3.5" stroke-linecap="butt"/><path d="M298.55273,260.56057l-10.37022,-1.08528" fill="none" stroke="#000000" stroke-width="3.5" stroke-linecap="round"/></g><g><path d="M272.36763,257.5404c6.01559,-3.95666 1.5352,-16.84732 3.47144,-13.90352c0.90496,1.37587 9.70522,-0.06934 11.12083,4.83512c1.61321,5.58912 -4.37652,17.62145 -7.58055,19.72885c-6.0156,3.95667 -12.46182,4.77774 -14.39806,1.83394c-1.93624,-2.9438 1.37073,-8.53773 7.38633,-12.49439z" fill="#00ffe6" stroke="#000000" stroke-width="0" stroke-linecap="butt"/><path d="M268.17129,264.15832c1.57995,-1.03919 5.32557,-12.22307 7.90843,-18.66629c1.37472,-3.42943 5.06656,-1.47481 5.46817,-0.86422c1.0944,1.6639 -6.31895,24.0766 -8.81479,25.71819c-2.49583,1.64159 -5.40629,1.62352 -6.50068,-0.04037c-1.09439,-1.66388 -0.55698,-4.50572 1.93886,-6.14731z" fill="#00d6c0" stroke="none" stroke-width="0" stroke-linecap="butt"/><path d="M275.75649,243.31938c0.90496,1.37587 9.70522,-0.06934 11.12083,4.83512c1.61321,5.58911 -4.37651,17.62144 -7.58054,19.72884c-6.0156,3.95665 -12.46183,4.77774 -14.39806,1.83394c-1.93624,-2.94379 1.37074,-8.53773 7.38633,-12.49438c6.01559,-3.95666 1.53521,-16.84732 3.47144,-13.90352z" fill="none" stroke="#000000" stroke-width="3.5" stroke-linecap="butt"/><path d="M274.21458,256.6178l9.20164,4.90398" fill="none" stroke="#000000" stroke-width="3.5" stroke-linecap="round"/></g><g><path d="M266.7122,246.07281c0.33115,7.19256 -2.25373,13.15464 -5.7735,13.31669c-3.51977,0.16205 -6.64154,-5.53729 -6.97269,-12.72985c-0.17637,-3.83091 6.04347,-15.7459 11.51441,-17.72315c4.80076,-1.73503 8.80011,6.23607 10.44517,6.16034c3.51976,-0.16205 -9.54456,3.78342 -9.21341,10.97597z" fill="#00ffe6" stroke="#000000" stroke-width="0" stroke-linecap="butt"/><path d="M274.28284,235.99171c-3.69755,5.8749 -10.54885,15.47535 -10.46188,17.36442c0.13739,2.98414 -1.84689,5.08828 -3.83632,5.17988c-1.98943,0.0916 -3.71357,-2.25328 -3.85096,-5.23742c-0.13739,-2.98414 13.64732,-22.14841 15.63676,-22.24c0.73005,-0.03361 4.48044,1.8062 2.5124,4.93313z" fill="#00d6c0" stroke="none" stroke-width="0" stroke-linecap="butt"/><path d="M276.23106,234.97717c3.51975,-0.16205 -9.54456,3.78342 -9.21341,10.97597c0.33115,7.19256 -2.25373,13.15465 -5.77349,13.3167c-3.51976,0.16205 -6.64154,-5.5373 -6.97269,-12.72985c-0.17637,-3.83091 6.04347,-15.7459 11.51441,-17.72315c4.80076,-1.73503 8.80011,6.23607 10.44517,6.16034z" fill="none" stroke="#000000" stroke-width="3.5" stroke-linecap="butt"/><path d="M257.0004,239.46947l9.37364,4.56664" fill="none" stroke="#000000" stroke-width="3.5" stroke-linecap="round"/></g></g><g stroke-linecap="butt"><path d="M205.87431,100.06363c0,-17.92778 16.22692,-32.46112 36.24385,-32.46112c20.01693,0 36.24385,14.53333 36.24385,32.46111c0,17.92778 -16.22692,32.46112 -36.24385,32.46112c-20.01693,0 -36.24385,-14.53334 -36.24385,-32.46112z" fill="#00ffe6" stroke="#000000" stroke-width="0"/><path d="M242.74827,67.00103c20.01693,0 36.24385,14.53334 36.24385,32.46112c0,17.92778 -16.22693,32.46112 -36.24385,32.46112c-20.01693,0 -36.24385,-14.53334 -36.24385,-32.46112c0,-17.92778 16.22693,-32.46112 36.24385,-32.46112z" fill="none" stroke="#000000" stroke-width="3.5"/><path d="M212.92182,79.19141c6.30926,-7.86573 17.53943,-12.13533 28.8785,-12.13533c11.02678,0 22.71091,4.23255 29.64032,11.74193c5.83274,6.32091 7.83512,15.42508 7.83512,21.68686c0,13.70091 -17.167,16.18658 -37.47544,16.18658c-20.30844,0 -35.18821,-2.30973 -35.18821,-16.01064c0,-6.0511 1.319,-15.2475 6.30971,-21.4694z" fill="#00ffe6" stroke="#000000" stroke-width="0"/><path d="M242.59154,91.17535c12.92346,0 23.4,5.23827 23.4,11.7c0,6.46173 -10.47654,11.7 -23.4,11.7c-12.92346,0 -23.4,-5.23827 -23.4,-11.7c0,-6.46173 10.47654,-11.7 23.4,-11.7z" fill="#00d6c0" stroke="none" stroke-width="0"/><path d="M208.17664,107.51756c0,-1.01893 -2.52638,-3.72375 -2.50675,-7.02074c0.04195,-7.04325 3.55213,-17.41594 10.81054,-24.23767c4.48937,-4.21929 17.37789,-7.99882 25.36346,-8.51137c3.31842,-0.213 3.60681,2.03043 5.56759,2.03043c3.40438,0 -17.0572,1.1097 -26.96858,9.59906c-11.12255,9.52675 -11.78775,26.65874 -6.00641,28.83751c6.28314,2.36788 18.90955,4.6679 30.04835,3.55195c17.44437,-1.74768 33.54037,-8.03983 33.54037,-6.18452c0,1.43178 -6.06366,2.0032 -7.23737,4.33415c-1.89815,3.76966 -0.16107,9.44885 -7.72824,10.68656c-4.42528,0.72381 -16.18053,-3.84845 -20.92637,-3.84845c-5.63386,0 -11.42216,5.58938 -16.25156,4.8673c-4.88344,-0.73016 -6.38844,-5.74408 -9.45363,-8.39757c-3.52336,-3.05011 -8.25142,-3.83819 -8.25142,-5.70662z" fill="#00d6c0" stroke="none" stroke-width="0"/><path d="M206.53847,100.76309c0,-6.0511 1.31899,-15.2475 6.3097,-21.4694c6.30926,-7.86572 17.53943,-12.13533 28.8785,-12.13533c11.02679,0 22.71091,4.23255 29.64032,11.74193c5.83273,6.32092 7.83511,15.42509 7.83511,21.68687c0,3.38658 -5.83192,5.33541 -8.48382,9.35579c-2.53874,3.84882 -1.82897,9.8189 -4.98285,10.97653c-6.87985,2.52527 -13.52579,-4.14576 -24.00877,-4.14576c-5.68672,0 -11.28112,6.15223 -15.90901,5.59062c-3.56338,-0.43242 -8.05481,-7.99173 -10.7308,-9.7621c-6.25999,-4.14146 -8.54839,-4.92877 -8.54839,-11.83915z" fill="none" stroke="#000000" stroke-width="3.5"/><path d="M228.43781,86.77535c5.49729,0 9.95373,5.99938 9.95373,13.4c0,7.40062 -4.45644,13.4 -9.95373,13.4c-5.4973,0 -12.84627,-3.39938 -12.84627,-10.8c0,-7.40062 7.34898,-16 12.84627,-16z" fill="#820000" stroke="#000000" stroke-width="3.5"/><path d="M271.19154,102.77535c0,7.40062 -7.09112,10.8 -12.39552,10.8c-5.30441,0 -9.60448,-5.99939 -9.60448,-13.4c0,-7.40062 4.30007,-13.4 9.60448,-13.4c5.30441,0 12.39552,8.59938 12.39552,16z" data-paper-data="{&quot;index&quot;:null}" fill="#820000" stroke="#000000" stroke-width="3.5"/></g></g></g></svg>