<svg version="1.1" xmlns="http://www.w3.org/2000/svg" xmlns:xlink="http://www.w3.org/1999/xlink" width="246.94565" height="332.38895" viewBox="0,0,246.94565,332.38895"><g transform="translate(-111.48653,-19.09977)"><g data-paper-data="{&quot;isPaintingLayer&quot;:true}" fill-rule="nonzero" stroke-linejoin="miter" stroke-miterlimit="10" stroke-dasharray="" stroke-dashoffset="0" style="mix-blend-mode: normal"><g><path d="M308.68266,203.37414l-45.72283,-59.90731l16.33512,-13.31764l45.72283,59.90731z" data-paper-data="{&quot;index&quot;:null}" fill="#1b1b1b" stroke="#000000" stroke-width="2.5" stroke-linecap="butt"/><g data-paper-data="{&quot;index&quot;:null}"><g stroke-linecap="butt"><path d="M322.80448,181.85608c2.83097,7.00035 1.76058,22.86403 -4.6349,25.45038c-6.39548,2.58636 -48.11684,-52.72259 -50.94779,-59.72292c-1.81816,-4.49589 -4.65196,-8.88374 -2.33767,-12.43796c1.28918,-1.97988 6.50372,-3.99499 8.79178,-4.92029c3.31914,-1.34228 8.65029,24.91822 20.15335,37.8209c10.66154,11.95877 27.61351,10.44263 28.97525,13.8099z" fill="#840000" stroke="#000000" stroke-width="0"/><path d="M322.10615,178.99478c4.4784,11.0741 1.6624,22.65844 -5.00577,25.35508c-6.66818,2.69664 -44.93848,-45.23928 -49.4169,-56.31339c-2.95477,-7.30647 17.72042,21.27088 33.41196,37.18216c8.0915,8.20478 14.17394,9.15216 16.4426,8.23471c6.66818,-2.69664 0.08969,-25.53266 4.56809,-14.45855z" fill="#430000" stroke="none" stroke-width="0"/><path d="M322.58535,181.31413c2.83097,7.00035 1.76058,22.86403 -4.6349,25.45038c-6.39547,2.58635 -48.11684,-52.72259 -50.94779,-59.72292c-1.53327,-3.79141 -9.41799,-7.37829 -7.947,-10.67585c1.24498,-2.79092 11.46945,-5.49681 14.40111,-6.68239c3.50738,-1.4184 9.42243,25.72306 21.44352,39.41429c9.89857,11.2738 26.40665,9.05527 27.68507,12.21651z" fill="none" stroke="#000000" stroke-width="3"/></g><path d="M294.20199,167.47982l-5.16656,7.70065" fill="none" stroke="#000000" stroke-width="3" stroke-linecap="round"/></g></g><path d="M196.55582,311.44589l19.9282,-68.46429l20.13656,5.86124l-19.9282,68.46429z" fill="#1b1b1b" stroke="#000000" stroke-width="2.5" stroke-linecap="butt"/><g data-paper-data="{&quot;index&quot;:null}"><g stroke-linecap="butt"><path d="M269.71205,219.05321c9.05289,1.87604 25.48505,76.70384 24.34319,85.64984c-1.14186,8.946 -18.69738,24.82654 -27.75028,22.9505c-9.05291,-1.87605 -16.19401,-86.85306 -15.05215,-95.79906c0.56671,-4.43994 -1.83583,-10.12532 1.4654,-12.44459c3.35038,-2.35381 12.43392,-1.30164 16.99382,-0.35668z" fill="#840000" stroke="#000000" stroke-width="0"/><path d="M280.61544,312.5912c9.43894,1.95605 16.24499,-25.37733 14.43863,-11.22532c-1.80635,14.15202 -19.50113,30.01898 -28.94006,28.06293c-9.43895,-1.95605 -16.41841,-82.64962 -14.61206,-96.80162c1.19179,-9.33722 7.10652,33.53171 15.24798,60.31071c4.19824,13.80884 10.65415,18.9878 13.86549,19.65329z" fill="#430000" stroke="none" stroke-width="0"/><path d="M269.80043,218.36062c9.05289,1.87604 25.48505,76.70384 24.34319,85.64984c-1.14186,8.946 -18.97066,26.19296 -28.02357,24.31691c-9.05291,-1.87605 -15.92072,-88.21947 -14.77887,-97.16547c0.60587,-4.74666 -2.49797,-11.53655 1.17213,-13.81702c3.2469,-2.01751 13.03758,0.13512 17.2871,1.01576z" fill="none" stroke="#000000" stroke-width="3"/></g><path d="M254.7352,276.17889l31.95867,-16.03198" fill="none" stroke="#000000" stroke-width="3" stroke-linecap="round"/></g><g><g stroke-linecap="butt"><path d="M221.48967,209.94013c4.55991,-0.94495 13.64345,-1.99711 16.99382,0.35668c3.30123,2.31927 0.89869,8.00464 1.46541,12.44459c0.60866,4.76861 -1.13616,31.14032 -4.26952,55.01356c-2.74487,20.91342 -6.55533,39.90948 -10.78264,40.7855c-3.22292,0.66789 1.51989,-29.85954 -0.81402,-48.72951c-0.15895,-1.28515 -3.11228,-3.97798 -3.48856,-5.04044c-2.2994,-6.49251 -5.37054,-7.53414 -7.01242,-9.01511c-5.22581,-4.71362 -15.89679,44.05331 -16.43527,39.83456c-1.14186,-8.946 15.2903,-83.7738 24.34319,-85.64984z" fill="#840000" stroke="#000000" stroke-width="0"/><path d="M227.36409,319.49326c3.21134,-0.66549 -7.11055,-21.85963 -2.91231,-35.66847c8.14146,-26.77899 14.0562,-69.64792 15.248,-60.31071c1.80635,14.15201 -5.17312,94.84558 -14.61206,96.80162c-9.43894,1.95605 3.75269,0.9603 1.94633,-13.19171c-1.80635,-14.15201 -9.1089,14.32529 0.33004,12.36926z" fill="#430000" stroke="none" stroke-width="0"/><path d="M221.40127,209.24757c4.24952,-0.88064 14.0402,-3.03327 17.2871,-1.01575c3.67009,2.28047 0.56627,9.07036 1.17213,13.81703c0.64454,5.04973 -1.26299,34.76009 -4.67502,60.01929c-2.63266,19.48952 -6.16101,36.32909 -10.10384,37.14618c-2.2808,0.47265 0.98236,-49.45796 -2.00534,-50.97439c-3.96987,-2.01495 -7.51957,-19.5704 -12.41339,-12.4089c-6.0418,8.84144 -13.13291,42.7637 -13.60483,39.06638c-1.14186,-8.946 15.2903,-83.7738 24.34319,-85.64984z" fill="none" stroke="#000000" stroke-width="3"/></g><path d="M204.50783,251.03385l31.95867,16.03198" fill="none" stroke="#000000" stroke-width="3" stroke-linecap="round"/></g><g><g stroke-linecap="butt"><path d="M212.54272,132.40457c3.5976,1.49002 10.41952,5.06 11.79742,8.36419c1.35771,3.25571 -2.69136,6.23077 -4.13624,9.71935c-2.91126,7.02909 -47.28676,61.62563 -54.42916,58.66745c-7.14241,-2.95818 -8.81209,-19.25036 -5.90084,-26.27945c2.91126,-7.02909 45.52642,-53.42974 52.66881,-50.47156z" fill="#840000" stroke="#000000" stroke-width="0"/><path d="M166.04643,195.00429c2.53362,1.04936 9.22172,0.37474 17.90549,-7.63204c16.84009,-15.52728 38.79461,-43.77932 35.75606,-36.44286c-4.60541,11.11958 -45.84368,59.41584 -53.29067,56.33151c-7.44697,-3.08433 -10.46553,-16.16053 -5.86012,-27.28009c4.60541,-11.11958 -1.95774,11.93916 5.48923,15.02348z" fill="#430000" stroke="none" stroke-width="0"/><path d="M212.76809,131.8604c3.35272,1.3886 11.12856,4.4982 12.57335,7.50928c1.6331,3.40352 -3.36748,6.84467 -4.91216,10.57424c-2.91126,7.02909 -47.28676,61.62563 -54.42916,58.66745c-7.14241,-2.95818 -8.81209,-19.25036 -5.90084,-26.27945c2.91126,-7.02909 45.52642,-53.42974 52.66881,-50.47156z" fill="none" stroke="#000000" stroke-width="3"/></g><path d="M183.54574,154.0911l13.4163,23.59012" fill="none" stroke="#000000" stroke-width="3" stroke-linecap="round"/></g><g><path d="M139.03192,193.3277c4.89958,-7.97239 14.76108,-10.81576 22.02624,-6.3508c7.26517,4.46493 9.18285,14.54741 4.28327,22.51981c-4.89958,7.9724 -14.76109,10.81575 -22.02625,6.3508c-7.26518,-4.46494 -9.18285,-14.54741 -4.28327,-22.51981z" fill="#840000" stroke="#000000" stroke-width="0" stroke-linecap="butt"/><path d="M136.81892,199.45802c2.76589,-4.50055 7.83108,-18.28237 14.26044,-14.33108c1.07868,0.66292 -4.51361,4.29122 -7.04715,9.97059c-2.40319,5.38717 -1.75084,12.80626 -0.95903,14.58155c3.34898,7.50862 18.89019,1.05853 17.02849,4.08779c-2.7659,4.50053 -10.22012,4.94581 -16.64947,0.99453c-6.42935,-3.95128 -9.39918,-10.80284 -6.63328,-15.3034z" fill="#430000" stroke="none" stroke-width="0" stroke-linecap="butt"/><path d="M160.56795,187.71061c7.26518,4.46494 9.18285,14.54741 4.28327,22.51981c-4.89958,7.9724 -14.76107,10.81576 -22.02624,6.3508c-7.26518,-4.46494 -9.18285,-14.54741 -4.28327,-22.51981c4.89958,-7.9724 14.76107,-10.81576 22.02624,-6.3508z" fill="none" stroke="#000000" stroke-width="3.5" stroke-linecap="butt"/><g><path d="M159.17642,225.79003c3.7142,-6.04358 -5.66911,-15.67313 -2.71161,-13.85555c1.38228,0.8495 8.63035,-4.11675 11.94249,-0.33227c3.77452,4.31278 3.45743,17.55092 1.47916,20.76989c-3.71421,6.0436 -9.12267,9.46945 -12.08019,7.65186c-2.95751,-1.81759 -2.34408,-8.19033 1.37012,-14.23393z" fill="#840000" stroke="#000000" stroke-width="0" stroke-linecap="butt"/><path d="M157.45462,213.48914c-0.20625,-3.63421 3.90439,-3.43271 4.51781,-3.05571c1.67164,1.02733 4.4213,24.122 2.88029,26.62945c-1.541,2.50745 -4.14535,3.70731 -5.81698,2.67998c-1.67163,-1.02733 -2.37945,-3.78743 -0.83844,-6.29489c0.97551,-1.5873 -0.35519,-13.13085 -0.74267,-19.95883z" fill="#430000" stroke="none" stroke-width="0" stroke-linecap="butt"/><path d="M156.25847,211.6857c1.38228,0.8495 8.63035,-4.11675 11.94249,-0.33227c3.77452,4.31278 3.45743,17.55092 1.47916,20.76989c-3.7142,6.04358 -9.12269,9.46944 -12.08019,7.65186c-2.9575,-1.81758 -2.34407,-8.19034 1.37013,-14.23393c3.7142,-6.04358 -5.6691,-15.67313 -2.71161,-13.85555z" fill="none" stroke="#000000" stroke-width="3.5" stroke-linecap="butt"/><path d="M160.43886,224.19517l10.2589,0.53103" fill="none" stroke="#000000" stroke-width="3.5" stroke-linecap="round"/></g><g data-paper-data="{&quot;index&quot;:null}"><path d="M125.82798,210.84982c-1.63594,6.90247 -5.70037,11.84904 -9.07819,11.04846c-3.37781,-0.80057 -4.78986,-7.04509 -3.15392,-13.94757c0.87134,-3.67642 9.99235,-13.2762 15.71031,-13.6661c5.01752,-0.34213 6.64503,8.29207 8.22373,8.66624c3.37781,0.80057 -10.06602,0.99649 -11.70195,7.89894z" fill="#840000" stroke="#000000" stroke-width="0" stroke-linecap="butt"/><path d="M121.11524,216.96481c-0.67874,2.8638 -3.12858,4.31895 -5.03777,3.86646c-1.90919,-0.45249 -2.90668,-3.14087 -2.22793,-6.00466c0.67874,-2.8638 18.93008,-17.2795 20.83928,-16.82701c0.7006,0.16605 3.75422,2.92526 1.04254,5.3536c-5.09471,4.56239 -14.18645,11.79872 -14.61612,13.6116z" fill="#430000" stroke="none" stroke-width="0" stroke-linecap="butt"/><path d="M126.14974,210.81928c-1.63593,6.90247 -5.70037,11.84904 -9.07818,11.04847c-3.37779,-0.80056 -4.78986,-7.0451 -3.15392,-13.94757c0.87134,-3.67642 9.99235,-13.2762 15.71031,-13.6661c5.01752,-0.34213 6.64503,8.29207 8.22373,8.66624c3.37779,0.80056 -10.06602,0.99649 -11.70195,7.89894z" fill="none" stroke="#000000" stroke-width="3.5" stroke-linecap="butt"/><path d="M118.41898,201.96277l7.64077,6.86627" fill="none" stroke="#000000" stroke-width="3.5" stroke-linecap="round"/></g><g data-paper-data="{&quot;index&quot;:null}"><path d="M137.96198,221.14355c-0.20958,7.0906 -3.19234,12.75551 -6.66221,12.65294c-3.46986,-0.10256 -6.11285,-5.93374 -5.90328,-13.02434c0.11162,-3.7766 7.10808,-15.01932 12.62977,-16.55491c4.84529,-1.34747 8.18146,6.78075 9.80319,6.82869c3.46986,0.10256 -9.65792,3.00701 -9.8675,10.0976z" fill="#840000" stroke="#000000" stroke-width="0" stroke-linecap="butt"/><path d="M134.58,228.08367c-0.08694,2.94184 -2.19279,4.86137 -4.15401,4.80343c-1.96122,-0.05797 -3.48062,-2.48978 -3.39368,-5.43162c0.08694,-2.94184 15.05423,-20.74365 17.01546,-20.68568c0.71971,0.02127 4.26726,2.1076 2.10131,5.03313c-4.06938,5.49652 -11.51404,14.41847 -11.56908,16.28075z" fill="#430000" stroke="none" stroke-width="0" stroke-linecap="butt"/><path d="M138.27098,221.04869c-0.20957,7.09058 -3.19234,12.75551 -6.6622,12.65294c-3.46985,-0.10256 -6.11285,-5.93375 -5.90328,-13.02434c0.11162,-3.7766 7.10808,-15.01932 12.62977,-16.55491c4.84529,-1.34747 8.18146,6.78075 9.80319,6.82869c3.46985,0.10256 -9.65792,3.00701 -9.8675,10.0976z" fill="none" stroke="#000000" stroke-width="3.5" stroke-linecap="butt"/><path d="M137.78124,219.11757l-8.86904,-5.18336" fill="none" stroke="#000000" stroke-width="3.5" stroke-linecap="round"/></g><g data-paper-data="{&quot;index&quot;:null}"><path d="M148.75745,227.27503c2.47125,6.64931 1.83678,13.01999 -1.41714,14.22933c-3.25392,1.20933 -7.89508,-3.20061 -10.36632,-9.84992c-1.31624,-3.54157 0.94075,-16.58975 5.4802,-20.08839c3.98338,-3.07006 10.13036,3.20788 11.65118,2.64267c3.25392,-1.20933 -7.81917,6.41702 -5.34791,13.06632z" fill="#840000" stroke="#000000" stroke-width="0" stroke-linecap="butt"/><path d="M148.2324,234.97749c1.02531,2.75876 -0.2045,5.32912 -2.04367,6.01266c-1.83917,0.68354 -4.16129,-0.99875 -5.18659,-3.7575c-1.02531,-2.75876 6.15222,-24.8813 7.9914,-25.56484c0.67492,-0.25083 4.74654,0.34889 3.83921,3.87406c-1.70468,6.6231 -5.24941,17.68923 -4.60037,19.43561z" fill="#430000" stroke="none" stroke-width="0" stroke-linecap="butt"/><path d="M149.0081,227.071c2.47126,6.64929 1.83678,13.01999 -1.41712,14.22932c-3.25391,1.20934 -7.89507,-3.20063 -10.36632,-9.84992c-1.31624,-3.54157 0.94075,-16.58975 5.4802,-20.08839c3.98338,-3.07006 10.13036,3.20788 11.65118,2.64267c3.25391,-1.20934 -7.81917,6.41702 -5.34791,13.06632z" fill="none" stroke="#000000" stroke-width="3.5" stroke-linecap="butt"/><path d="M137.66132,223.99642l10.16703,1.46918" fill="none" stroke="#000000" stroke-width="3.5" stroke-linecap="round"/></g></g><g data-paper-data="{&quot;index&quot;:null}"><path d="M336.79005,206.34423c2.41251,9.04128 -2.31098,18.15294 -10.55022,20.35144c-8.23923,2.19851 -16.8742,-3.34867 -19.28671,-12.38996c-2.41251,-9.04128 2.31099,-18.15294 10.55022,-20.35144c8.23923,-2.19851 16.87419,3.34868 19.2867,12.38996z" fill="#840000" stroke="#000000" stroke-width="0" stroke-linecap="butt"/><path d="M337.15566,212.8515c1.36191,5.10395 -3.44487,10.81873 -10.73624,12.76431c-7.29136,1.94558 -14.30621,-0.6148 -15.66812,-5.71874c-0.91669,-3.43541 12.12792,7.19338 17.48607,0.95757c1.26685,-1.47436 4.01557,-8.39627 3.25499,-14.24593c-0.80183,-6.16694 -5.12154,-11.24418 -3.89824,-11.57059c7.29136,-1.94558 8.19964,12.70944 9.56154,17.8134z" fill="#430000" stroke="none" stroke-width="0" stroke-linecap="butt"/><path d="M337.04973,207.18762c2.41251,9.04128 -2.31098,18.15294 -10.55022,20.35144c-8.23924,2.19851 -16.87419,-3.34867 -19.2867,-12.38996c-2.41251,-9.04128 2.31098,-18.15294 10.55022,-20.35144c8.23924,-2.19851 16.87419,3.34867 19.2867,12.38996z" fill="none" stroke="#000000" stroke-width="3.5" stroke-linecap="butt"/><g><path d="M308.19629,231.68197c1.82884,6.85389 0.59244,13.13556 -2.7616,14.03052c-3.35403,0.89496 -7.55557,-3.93568 -9.38441,-10.78957c-0.97408,-3.65053 2.51145,-16.42551 7.36254,-19.4774c4.25684,-2.67803 9.78007,4.15512 11.34767,3.73684c3.35403,-0.89496 -8.39306,5.64572 -6.56422,12.4996z" fill="#840000" stroke="#000000" stroke-width="0" stroke-linecap="butt"/><path d="M306.94241,239.29978c0.75878,2.84363 -0.70949,5.28563 -2.60524,5.7915c-1.89575,0.50585 -4.04767,-1.38929 -4.80645,-4.23292c-0.75878,-2.84363 8.48655,-24.18486 10.38231,-24.69071c0.69568,-0.18563 4.69198,0.79793 3.45408,4.22104c-2.32575,6.43136 -6.90504,17.11098 -6.42471,18.9111z" fill="#430000" stroke="none" stroke-width="0" stroke-linecap="butt"/><path d="M308.46522,231.50264c1.82884,6.85387 0.59244,13.13556 -2.76159,14.03052c-3.35402,0.89496 -7.55557,-3.93569 -9.38441,-10.78957c-0.97408,-3.65053 2.51145,-16.42551 7.36254,-19.4774c4.25684,-2.67803 9.78007,4.15512 11.34767,3.73684c3.35402,-0.89496 -8.39306,5.64572 -6.56422,12.4996z" fill="none" stroke="#000000" stroke-width="3.5" stroke-linecap="butt"/><path d="M297.46155,227.36475l9.98164,2.42775" fill="none" stroke="#000000" stroke-width="3.5" stroke-linecap="round"/></g><g data-paper-data="{&quot;index&quot;:null}"><path d="M344.42585,226.91272c0.40832,-7.08192 -12.41689,-11.11786 -8.95127,-10.91804c1.61975,0.09339 5.65065,-7.71367 10.36029,-5.94962c5.36709,2.0103 11.35855,13.81926 11.14109,17.59124c-0.40832,7.08192 -3.54876,12.66097 -7.01437,12.46116c-3.46563,-0.19981 -5.94406,-6.10282 -5.53576,-13.18474z" fill="#840000" stroke="#000000" stroke-width="0" stroke-linecap="butt"/><path d="M337.08272,216.89503c-1.90312,-3.10293 1.81254,-4.8726 2.53136,-4.83116c1.95884,0.11294 15.32005,19.14979 15.15065,22.08804c-0.16941,2.93825 -1.89469,5.22861 -3.85351,5.11567c-1.95883,-0.11294 -3.88963,-2.20846 -3.72022,-5.1467c0.10724,-1.86001 -6.5327,-11.39602 -10.10828,-17.22583z" fill="#430000" stroke="none" stroke-width="0" stroke-linecap="butt"/><path d="M335.17504,215.87331c1.61976,0.09339 5.65065,-7.71367 10.3603,-5.94962c5.36709,2.0103 11.35855,13.81926 11.14109,17.59126c-0.40832,7.08192 -3.54876,12.66096 -7.01438,12.46115c-3.46561,-0.19981 -5.94405,-6.10283 -5.53573,-13.18474c0.40831,-7.08192 -12.41689,-11.11786 -8.95127,-10.91804z" fill="none" stroke="#000000" stroke-width="3.5" stroke-linecap="butt"/><path d="M354.06872,220.51835l-9.2865,4.39183" fill="none" stroke="#000000" stroke-width="3.5" stroke-linecap="round"/></g><g data-paper-data="{&quot;index&quot;:null}"><path d="M329.85308,233.30242c1.82884,-6.85387 -9.91825,-13.39456 -6.56422,-12.4996c1.5676,0.41828 7.09083,-6.41488 11.34767,-3.73684c4.85109,3.05188 8.33662,15.82686 7.36254,19.4774c-1.82884,6.85389 -6.03037,11.68453 -9.38441,10.78957c-3.35403,-0.89496 -4.59044,-7.17664 -2.7616,-14.03052z" fill="#840000" stroke="#000000" stroke-width="0" stroke-linecap="butt"/><path d="M324.68224,222.00915c-1.23789,-3.4231 2.75841,-4.40668 3.45408,-4.22105c1.89576,0.50585 11.14109,21.84708 10.38231,24.69071c-0.75878,2.84363 -2.9107,4.73877 -4.80645,4.23292c-1.89575,-0.50585 -3.36402,-2.94787 -2.60524,-5.7915c0.48033,-1.80012 -4.09896,-12.47974 -6.4247,-18.9111z" fill="#430000" stroke="none" stroke-width="0" stroke-linecap="butt"/><path d="M323.01995,220.62352c1.5676,0.41828 7.09083,-6.41488 11.34767,-3.73684c4.85109,3.05188 8.33662,15.82686 7.36254,19.4774c-1.82884,6.85387 -6.03039,11.68453 -9.38441,10.78957c-3.35402,-0.89496 -4.59043,-7.17665 -2.76159,-14.03052c1.82884,-6.85387 -9.91824,-13.39456 -6.56422,-12.4996z" fill="none" stroke="#000000" stroke-width="3.5" stroke-linecap="butt"/><path d="M340.58779,228.9852l-9.98164,2.42775" fill="none" stroke="#000000" stroke-width="3.5" stroke-linecap="round"/></g><g data-paper-data="{&quot;index&quot;:null}"><path d="M317.75423,236.08725c4.27118,-5.66368 -4.15558,-16.14054 -1.38397,-14.05039c1.29539,0.97688 8.9822,-3.27882 11.9201,0.80299c3.34804,4.65164 1.77561,17.79989 -0.49931,20.81649c-4.27118,5.6637 -9.98046,8.56061 -12.75207,6.47047c-2.77161,-2.09015 -1.55594,-8.37588 2.71523,-14.03957z" fill="#840000" stroke="#000000" stroke-width="0" stroke-linecap="butt"/><path d="M317.20799,223.67847c0.1397,-3.63738 4.21263,-3.04653 4.78751,-2.613c1.56656,1.18139 2.11129,24.43279 0.33921,26.78261c-1.77208,2.34983 -4.47858,3.29703 -6.04513,2.11564c-1.56655,-1.18139 -2.00915,-3.99623 -0.23706,-6.34606c1.12179,-1.48752 0.89301,-13.10526 1.15548,-19.93919z" fill="#430000" stroke="none" stroke-width="0" stroke-linecap="butt"/><path d="M316.18848,221.7696c1.29539,0.97688 8.98219,-3.27882 11.9201,0.80299c3.34803,4.65164 1.77561,17.79989 -0.49931,20.81649c-4.27118,5.66368 -9.98047,8.56061 -12.75207,6.47047c-2.77159,-2.09015 -1.55593,-8.37589 2.71525,-14.03957c4.27118,-5.66368 -4.15557,-16.14053 -1.38397,-14.05039z" fill="none" stroke="#000000" stroke-width="3.5" stroke-linecap="butt"/><path d="M329.32453,236.12202l-10.16216,-1.50257" fill="none" stroke="#000000" stroke-width="3.5" stroke-linecap="round"/></g></g><g stroke-linecap="butt"><path d="M241.12722,219.4639l-8.35959,-55.81182l26.02038,-3.89737l8.35959,55.81182z" fill="#1b1b1b" stroke="#000000" stroke-width="2.5"/><g><path d="M214.51491,223.0231l-2.88067,-19.23245l63.35395,-9.48927l2.88067,19.23245z" fill="#1b1b1b" stroke="#000000" stroke-width="2.5"/><g><path d="M212.78904,207.81344c-2.30974,-15.42071 -5.54045,-52.41069 2.03602,-69.69478c5.38204,-12.27796 19.87495,-7.84887 27.62395,-9.00953c9.9465,-1.4898 18.4512,-10.58514 26.02329,5.00124c6.63157,13.6504 16.68686,47.44679 18.53131,59.76105c3.9505,26.37498 -11.59105,27.9554 -30.24859,30.74996c-12.96486,1.9419 -8.02591,-49.23959 -16.85171,-55.91305c-3.87527,-2.9302 -25.90891,47.15247 -27.11425,39.10511z" fill="#840000" stroke="#000000" stroke-width="0"/><path d="M241.12566,166.07606c-0.5014,-3.34753 -4.53539,-2.87318 -9.18551,5.2199c-3.42482,5.96054 -12.91032,30.04638 -14.62732,29.62788c-6.50298,-1.58507 1.47818,-44.41481 5.07053,-54.17764c3.60039,-9.78465 12.16539,-10.50918 17.70281,-11.33858c6.56529,-0.98336 13.95715,-3.62228 20.8739,5.95745c8.36158,11.58081 15.83843,36.84494 17.84752,50.25843c3.67104,24.50924 -10.92544,30.36773 -25.42744,32.53987c-2.70589,0.40529 1.40085,-4.42987 0.4298,-4.41275c-4.23324,0.07464 -0.73065,0.39055 -3.71672,-19.54557z" fill="#7d3c3c" stroke="#000000" stroke-width="0"/><path d="M215.41712,204.18706c-0.53223,-3.55335 -0.65606,-19.71428 2.72448,-35.02116c1.95477,-8.85106 2.52212,-18.61116 5.9794,-24.7997c2.89898,-5.18917 8.56872,-7.51993 11.61951,-8.06877c0.43714,-0.07865 9.84553,-7.05039 10.29039,-7.11703c13.65501,-2.04528 19.70565,14.71883 20.84066,22.2966c1.13501,7.57777 -18.58736,-4.0219 -32.24237,-1.97663c-9.51705,1.42548 -10.92833,11.32806 -12.41882,16.48428c-0.64805,2.24189 -5.51336,28.2132 -5.85731,25.91686z" fill="#5c2c2c" stroke="none" stroke-width="0"/><path d="M215.19567,210.87853c-0.9908,-6.61495 -13.25033,-70.85973 6.76411,-73.85752c3.69889,-0.55403 -1.995,13.17954 -3.44836,29.63887c-0.70302,7.96168 -6.13282,35.69321 -2.37594,33.87043c2.69331,-1.30676 12.07418,-18.82783 15.39506,-25.01425c3.72681,-6.94262 5.34815,-15.17679 7.44693,-12.81437c5.1086,5.75033 6.64831,31.93302 11.45218,45.50601c1.41962,4.01103 4.75949,4.91645 6.52016,6.3693c12.35342,10.19365 31.23048,-8.60274 31.59013,-6.20161c0.9908,6.61495 -14.43092,14.40761 -34.44538,17.40542c-7.90404,1.18388 -3.74455,-6.49848 -5.59834,-16.11357c-2.38562,-12.37357 -5.39145,-31.33351 -7.32066,-39.35785c-0.36772,-1.52949 -2.72102,-2.35842 -2.81699,-2.99919z" fill="#430000" stroke="none" stroke-width="0"/><path d="M250.99648,209.2429c-0.30754,-2.05329 1.9032,-4.94688 -0.33599,-4.4926c-2.50639,0.50849 -9.0931,4.45129 -1.12828,3.2583c15.08052,-2.25879 28.36668,-13.69832 29.01848,-9.34674c0.31494,2.10263 0.24373,10.17042 -4.3246,15.45004c-4.88623,5.64702 -10.07094,7.43293 -17.86475,8.6003c-7.16326,1.07293 -6.1178,-5.52336 -7.5109,-9.07571c-0.23958,-0.61093 4.28832,-1.29548 3.50457,-1.66017c-4.25311,-1.97905 -2.363,1.59263 -2.65194,-0.33649z" fill="#5c2c2c" stroke="none" stroke-width="0"/><path d="M222.49135,146.48988c3.60037,-9.78465 12.16538,-10.50918 17.70279,-11.33858c6.5653,-0.98336 13.95716,-3.62228 20.87391,5.95745c8.36157,11.58081 15.83842,36.84495 17.84752,50.25845c1.57165,10.49298 -0.20493,17.56748 -3.8889,22.39775c-4.92094,6.45214 -13.2452,8.89993 -21.53855,10.14212c-3.46014,0.51826 -3.97676,-4.48508 -5.2388,-11.08962c-2.8059,-14.68393 -3.57134,-39.66069 -8.02021,-46.30638c-1.19902,-1.79109 -12.56736,13.79063 -18.03775,26.44499c-3.36547,7.78514 -7.39457,15.42509 -7.71746,13.26934c-2.26929,-15.15066 2.18873,-43.89505 8.01742,-59.73553z" fill="none" stroke="#000000" stroke-width="3"/><path d="M215.59858,137.87134c5.38204,-12.27797 19.87493,-7.84888 27.62395,-9.00954c9.9465,-1.4898 18.4512,-10.58515 26.02329,5.00124c6.63157,13.6504 16.68684,47.4468 18.53129,59.76106c1.59509,10.64942 0.0124,17.25657 -3.67012,21.53355c-0.49498,0.5749 -1.02793,1.1077 -1.59617,1.60255c-5.67437,4.94142 -14.87072,6.09932 -24.98231,7.61386c-7.6925,1.1522 -10.36183,-48.31989 -16.74625,-59.38317c-4.10677,-7.11645 -12.3529,23.52222 -15.82364,21.17334c-4.22031,-2.85616 -10.12207,29.90752 -11.39606,21.40189c-2.30974,-15.4207 -5.54045,-52.41068 2.03602,-69.69477z" fill="none" stroke="#000000" stroke-width="3"/></g></g><g><path d="M274.71799,151.58536c0.50943,3.40119 3.18301,22.3897 -4.44928,23.53288c-7.63228,1.14317 -22.68022,-15.99189 -23.18965,-19.39308c-0.50943,-3.40119 9.2461,-21.60017 16.87838,-22.74335c7.63228,-1.14317 10.25112,15.20235 10.76055,18.60355z" data-paper-data="{&quot;index&quot;:null}" fill="#410000" stroke="#000000" stroke-width="0"/><path d="M221.19679,139.57783c7.63228,-1.14317 22.29184,13.39887 22.80127,16.80006c0.50943,3.40119 -8.85772,24.19318 -16.49001,25.33636c-7.63228,1.14317 -10.63949,-17.79536 -11.14894,-21.19655c-0.50943,-3.40118 -2.79462,-19.79669 4.83767,-20.93987z" fill="#410000" stroke="#000000" stroke-width="0"/><path d="M274.5881,151.79604c0.50943,3.40119 3.18301,22.3897 -4.44928,23.53288c-7.63227,1.14318 -22.68022,-15.99188 -23.18965,-19.39308c-0.50943,-3.40119 9.2461,-21.60017 16.87838,-22.74335c7.63228,-1.14317 10.25112,15.20235 10.76055,18.60355z" data-paper-data="{&quot;index&quot;:null}" fill="none" stroke="#000000" stroke-width="3.5"/><path d="M221.38271,139.7412c7.63227,-1.14318 22.29183,13.39887 22.80126,16.80006c0.50943,3.40119 -8.85772,24.19318 -16.49,25.33636c-7.63228,1.14317 -10.63949,-17.79536 -11.14894,-21.19655c-0.50943,-3.40118 -2.79461,-19.79669 4.83767,-20.93987z" fill="none" stroke="#000000" stroke-width="3.5"/><path d="M218.83156,140.45471c1.00165,-0.15003 -0.62685,9.88455 -0.1318,15.29431c0.86002,9.39803 3.71984,16.86772 6.2228,19.19293c5.83893,5.4243 16.04834,-15.56845 16.45644,-12.84389c0.68371,4.56475 -6.94133,17.44388 -13.74237,18.46255c-6.80105,1.01868 -10.20266,-10.20887 -10.88638,-14.77362c-0.68372,-4.56476 -4.71972,-24.31362 2.08131,-25.33229z" fill="#170000" stroke="none" stroke-width="0"/><path d="M275.88792,156.73802c0.68372,4.56476 0.72095,16.29621 -6.08009,17.31488c-6.80104,1.01867 -17.86492,-9.06118 -18.54865,-13.62595c-0.40808,-2.72455 15.50396,14.35567 19.49739,7.45867c1.71184,-2.95651 2.25762,-10.9363 0.32637,-20.17388c-1.11169,-5.31741 -5.60873,-14.43449 -4.60712,-14.58452c6.80104,-1.01867 8.72837,19.04604 9.41209,23.61079z" data-paper-data="{&quot;index&quot;:null}" fill="#170000" stroke="none" stroke-width="0"/><g><path d="M245.06435,146.27622c4.91185,-0.73571 9.62185,3.52927 10.52007,9.52612c0.89821,5.99684 -2.35548,11.45464 -7.26734,12.19035c-4.91185,0.73571 -9.62185,-3.52927 -10.52007,-9.52612c-0.89821,-5.99683 2.35549,-11.45464 7.26734,-12.19035z" fill="#410000" stroke="#000000" stroke-width="0"/><path d="M244.97662,146.48061c4.91185,-0.73571 9.62185,3.52927 10.52007,9.52612c0.89821,5.99684 -2.35549,11.45464 -7.26734,12.19035c-4.91185,0.73571 -9.62185,-3.52927 -10.52007,-9.52612c-0.89821,-5.99684 2.35549,-11.45464 7.26734,-12.19035z" fill="none" stroke="#000000" stroke-width="3.5"/><path d="M238.37545,160.72526c-0.67032,-4.47527 -1.30516,-13.06043 3.53113,-13.78481c1.51588,-0.22705 -1.13641,9.28716 -0.23339,13.25944c0.66599,2.9296 5.38835,4.23655 6.63804,5.35837c2.46193,2.21003 7.27273,-9.49426 7.57798,-7.45624c0.67031,4.47526 -2.70689,8.69038 -7.54318,9.41478c-4.8363,0.72439 -9.30028,-2.31628 -9.97059,-6.79153z" fill="#170000" stroke="none" stroke-width="0"/></g></g></g><g><path d="M238.28105,99.99488c13.77455,5.11115 22.61368,15.52679 19.74273,23.26394c-2.87094,7.73717 -16.36477,9.86597 -30.13932,4.75481c-13.77455,-5.11115 -22.61368,-15.52679 -19.74273,-23.26394c2.87094,-7.73717 16.36477,-9.86597 30.13932,-4.75481z" fill="#000000" stroke="#000000" stroke-width="2.5" stroke-linecap="butt"/><path d="M206.86355,103.10018c4.58978,0.03665 16.94999,12.08448 25.73819,15.72367c9.81927,4.06615 16.13009,-0.13857 21.44654,1.83414c12.83876,4.76392 1.76748,4.75296 0.11911,9.19534c-1.64838,4.44238 -13.39254,4.18175 -26.23128,-0.58218c-2.15855,-0.80095 -4.2106,-1.67819 -6.12313,-2.60453c-9.46298,-4.58352 -15.51009,-10.36946 -14.13883,-14.06497c0.35488,-0.95643 -3.47686,-9.52274 -0.81058,-9.50147z" fill="#ffffff" stroke="#000000" stroke-width="0" stroke-linecap="butt"/><path d="M217.42823,116.73479c7.43259,5.0336 17.48314,8.81556 23.87464,9.73761c8.49614,1.22566 10.71822,-3.2294 15.27912,-1.53704c11.05025,4.10028 -5.30199,6.64178 -6.24981,9.19615c-0.94782,2.55438 -10.67418,1.30117 -21.72444,-2.79911c-5.33839,-1.98085 -12.20517,-6.19767 -16.50586,-11.26547c-4.60157,-5.42235 -6.44262,-11.68584 -5.95269,-13.00621c0.26231,-0.70696 4.65403,5.18738 11.27904,9.67406z" fill="#e2e2e2" stroke="none" stroke-width="0" stroke-linecap="butt"/><path d="M207.55137,103.96548c4.58978,0.03665 16.94999,12.08448 25.73819,15.72367c9.81927,4.06615 16.13009,-0.13857 21.44654,1.83414c12.83876,4.76392 1.76748,4.75296 0.11911,9.19534c-1.64838,4.44238 -13.39254,4.18175 -26.23128,-0.58218c-2.15855,-0.80095 -4.2106,-1.67819 -6.12313,-2.60453c-9.46298,-4.58352 -15.51009,-10.36946 -14.13883,-14.06497c0.35488,-0.95643 -3.47686,-9.52274 -0.81058,-9.50147z" fill="none" stroke="#000000" stroke-width="2" stroke-linecap="butt"/><path d="M203.26185,103.29151c1.34735,-3.63114 4.63623,-5.75967 7.34593,-4.75423c0.67905,0.25197 -2.63899,1.96563 -2.39406,4.1014c0.18869,1.64542 -1.20357,3.00756 -1.15879,4.92145c0.05382,2.30082 1.5812,5.20914 2.4069,7.84051c1.15342,3.67575 9.37965,8.40917 8.9428,9.58647c-0.28001,0.75463 27.28438,6.69716 26.03741,8.103c-0.10931,0.12323 6.30989,-1.28265 10.15474,-4.90097c2.39418,-2.25311 2.62832,-7.52192 3.21617,-7.22054c1.04684,0.5367 6.2421,-5.91495 8.475,-5.96112c1.46458,-0.03029 0.66002,5.71404 0.05649,7.42575c-0.60836,1.72538 -9.6139,7.38359 -11.39326,9.86895c-2.45046,3.42272 -1.98069,6.38891 -2.97575,6.32258c-8.7794,-0.5851 -37.75588,-7.41596 -38.80628,-8.57103c-3.46369,-3.80885 -5.99056,-17.82891 -7.4406,-18.36696c-2.70969,-1.00546 -3.81406,-4.76414 -2.4667,-8.39528z" fill="#840000" stroke="#000000" stroke-width="0" stroke-linecap="butt"/><path d="M205.58957,96.34546c0.27172,-0.73228 0.80693,11.49222 4.83698,19.12286c3.30443,6.25668 8.18667,13.07712 10.68281,14.00334c5.54043,2.05582 31.74551,7.0603 31.25099,8.39302c-0.49452,1.33273 -25.59697,-3.24468 -31.13739,-5.30049c-1.48553,-0.55121 -4.50232,-0.55386 -7.57401,-4.52092c-2.49177,-3.21809 -3.89791,-8.37731 -5.8995,-12.9371c-1.06645,-2.42943 -3.12322,-4.66578 -3.78392,-6.39849c-2.27191,-5.95816 -0.22392,-12.44369 -0.02686,-12.97477z" fill="#430000" stroke="none" stroke-width="0" stroke-linecap="butt"/><path d="M203.62404,102.84262c0.54851,-1.47822 -1.31782,-9.17043 -0.29586,-10.04056c1.48843,-1.26726 5.8833,4.91207 7.48987,5.50821c0.67905,0.25197 -2.63899,1.96563 -2.39406,4.1014c0.19344,1.68663 -1.86321,3.01807 -1.72301,5.46378c0.161,2.80857 2.55074,6.78302 3.35924,9.35959c1.15343,3.67577 6.40098,5.56084 5.96415,6.73815c-0.14694,0.39602 8.08762,2.43744 15.7671,4.49143c6.95433,1.86004 13.45344,3.7304 12.86086,4.39848c-0.10931,0.12324 6.30989,-1.28265 10.15473,-4.90096c2.39419,-2.2531 2.62832,-7.52191 3.21617,-7.22054c0.92386,0.47365 5.82439,-6.98036 8.29808,-7.22405c2.16773,-0.21354 2.05654,6.6424 1.34493,8.66065c-0.60836,1.72538 -10.72542,7.4116 -12.50479,9.89697c-2.45046,3.42272 -1.98069,6.38891 -2.97575,6.32258c-8.7794,-0.58511 -37.75588,-7.41596 -38.80627,-8.57104c-3.46368,-3.80886 -5.99055,-17.82891 -7.4406,-18.36696c-2.70969,-1.00546 -3.81406,-4.76414 -2.4667,-8.39528z" fill="none" stroke="#000000" stroke-width="2.5" stroke-linecap="butt"/><path d="M215.87032,107.80464l-3.75422,10.3648" fill="none" stroke="#000000" stroke-width="2" stroke-linecap="round"/><path d="M225.8117,126.24623l2.95831,-8.21983" fill="none" stroke="#000000" stroke-width="2" stroke-linecap="round"/><path d="M242.95354,122.06915l-2.95005,8.44474" fill="none" stroke="#000000" stroke-width="2" stroke-linecap="round"/><path d="M250.47977,129.96428l2.08804,-8.09904" fill="none" stroke="#000000" stroke-width="2" stroke-linecap="round"/><path d="M231.95143,28.56996c5.54142,2.05619 2.91467,7.82727 4.73714,12.67572c1.33505,3.55174 8.15715,5.87384 6.7894,9.55994c-3.23487,8.71796 -13.64023,12.89734 -23.24103,9.33489c-9.60079,-3.56244 -14.7614,-13.51769 -11.52652,-22.23566c3.23487,-8.71797 13.64022,-12.89734 23.24102,-9.33488z" fill="#840000" stroke="#000000" stroke-width="0" stroke-linecap="butt"/><path d="M215.73363,36.20882c-4.51486,6.49471 -3.28142,15.90595 0.92112,17.46533c8.54549,3.17086 27.08002,-5.29044 24.52787,1.58763c-2.55216,6.87808 -11.54859,9.88336 -20.09406,6.71249c-5.78508,-2.14661 -13.69963,-10.81652 -14.04313,-19.5721c-0.09202,-2.34519 5.74828,-11.45108 11.92164,-14.15601c4.8241,-2.11373 10.24482,2.0004 10.60645,1.02581c1.29704,-3.49554 -9.17418,0.22515 -13.83989,6.93685z" fill="#430000" stroke="none" stroke-width="0" stroke-linecap="butt"/><path d="M231.95043,28.90908c5.45284,2.02332 2.78443,7.69399 4.64803,12.44374c1.41764,3.6131 8.27611,6.0254 6.8785,9.79193c-3.23487,8.71797 -13.64023,12.89734 -23.24103,9.33489c-9.6008,-3.56245 -14.7614,-13.5177 -11.52653,-22.23566c3.23487,-8.71797 13.64023,-12.89734 23.24103,-9.33489z" fill="none" stroke="#000000" stroke-width="3" stroke-linecap="butt"/><path d="M204.67419,100.55205l2.2385,-6.03275c0,0 40.99532,3.70733 51.00259,7.42061c9.127,3.38664 6.64368,13.96948 6.64368,13.96948l-2.2385,6.03275c0,0 -20.58795,-4.50178 -30.2643,-8.09227c-9.53706,-3.5388 -27.38196,-13.29783 -27.38196,-13.29783z" fill="#ffffff" stroke="#000000" stroke-width="0" stroke-linecap="butt"/><path d="M240.71665,93.79812c16.83878,6.24815 29.05122,15.18896 27.27725,19.96981c-0.45328,1.22161 -1.88117,1.23564 -3.03256,2.10977c-0.7018,0.5328 -0.55232,2.32019 -2.18971,2.18103c-2.67156,-0.22706 -1.13775,-6.93825 -5.30675,-8.28966c-5.49006,-1.77964 -17.00861,1.53749 -22.64336,-0.55332c-6.60172,-2.44962 -20.72376,-5.60563 -25.43808,-8.11581c-7.31038,-3.89248 -3.44665,-7.05208 -2.36817,-9.95859c1.77397,-4.78086 16.86259,-3.59139 33.70138,2.65679z" fill="#e2e2e2" stroke="none" stroke-width="0" stroke-linecap="butt"/><path d="M204.67418,100.55204l2.2385,-6.03275c0,0 40.94228,4.73351 51.58078,8.681c6.78765,2.51861 6.06549,12.7091 6.06549,12.7091l-2.2385,6.03275c0,0 -21.13543,-4.3563 -30.68441,-7.89953c-9.66504,-3.58628 -26.96185,-13.49056 -26.96185,-13.49056z" fill="none" stroke="#000000" stroke-width="2" stroke-linecap="butt"/><path d="M257.45445,50.34324c19.25037,7.143 29.42167,27.57872 22.71824,45.64445c-3.40666,9.18095 -4.98429,18.94877 -12.96423,20.34449c-3.62941,0.6348 -3.99165,-8.39249 -9.27751,-10.17478c-5.96114,-2.01 -16.91785,3.05832 -21.93576,1.19639c-8.90476,-3.30417 -26.71026,-7.1823 -31.60565,-12.69031c-5.6875,-6.39925 2.46879,-14.83391 6.07137,-24.54287c6.70342,-18.06573 27.74315,-26.92036 46.99351,-19.77736z" fill="#840000" stroke="#000000" stroke-width="0" stroke-linecap="butt"/><path d="M258.30673,76.95546c9.92135,3.68139 5.08834,11.30157 3.43996,15.74395c-1.64838,4.44238 -11.0275,5.05931 -20.94885,1.37791c-9.92135,-3.68139 -36.10209,-8.34192 -34.4537,-12.78432c0.51941,-1.39981 4.44791,-18.27688 14.78626,-27.54281c4.77906,-4.28332 17.65906,-5.04219 20.12417,-5.30051c3.72324,-0.39014 -19.03157,7.75059 -26.2686,18.77684c-4.02898,6.1385 6.05788,15.88779 5.88046,19.04227c-0.21779,3.87182 10.05217,-6.67978 17.5864,-10.01707c2.32619,-1.03039 3.14179,-5.93321 3.60229,-5.76234c0,0 3.37664,6.00919 6.0211,7.06133c2.76718,1.10098 10.23051,-0.59528 10.23051,-0.59528z" fill="#430000" stroke="none" stroke-width="0" stroke-linecap="butt"/><path d="M257.55393,50.07511c19.25037,7.143 29.42167,27.57872 22.71824,45.64445c-3.40666,9.18095 -4.98429,18.94877 -12.96423,20.34449c-3.19965,0.55962 -2.74787,-8.81061 -7.33863,-10.23912c-6.48924,-2.01926 -18.32986,3.31815 -23.87464,1.26072c-8.90476,-3.30417 -26.71026,-7.1823 -31.60565,-12.69031c-5.6875,-6.39925 2.46879,-14.83391 6.07137,-24.54287c6.70342,-18.06573 27.74315,-26.92036 46.99351,-19.77736z" fill="none" stroke="#000000" stroke-width="3" stroke-linecap="butt"/><path d="M223.60188,60.4323c1.97191,0.7317 6.13038,12.3949 10.28264,12.53519c4.14473,0.14003 7.89871,-6.2616 10.01188,-4.71467c3.7981,2.78039 -0.39799,10.32575 -1.29481,12.74266c-1.89564,5.10876 -0.07142,12.02251 -7.54946,9.24772c-7.47804,-2.77478 -25.11606,-6.71026 -23.22042,-11.81902c1.89564,-5.10876 4.29213,-20.76667 11.77017,-17.99189z" fill="#000000" stroke="#000000" stroke-width="3" stroke-linecap="butt"/><path d="M272.61813,101.89458c-1.89564,5.10876 -17.83165,-3.41368 -25.30969,-6.18846c-7.47804,-2.77478 -1.58548,-6.82516 0.31016,-11.93393c1.28042,-3.45073 3.06138,-7.1231 10.04725,-5.34608c3.35658,0.85382 13.22457,1.20018 15.65154,2.10071c7.47804,2.77478 1.19639,16.25899 -0.69926,21.36775z" data-paper-data="{&quot;index&quot;:null}" fill="#000000" stroke="#000000" stroke-width="3" stroke-linecap="butt"/><path d="M210.26618,81.76728c6.4432,0.38863 19.28212,6.61064 29.4204,10.37251c10.87958,4.03695 24.20542,7.41367 29.16296,11.51068c3.00465,2.4831 -0.72454,8.853 -1.30512,10.41764c-0.87295,2.35258 -0.90946,-6.3639 -8.28056,-8.38264c-5.61991,-1.53913 -17.58965,4.27399 -25.14865,1.46917c-7.74869,-2.87521 -21.26574,-7.11762 -26.35926,-10.25601c-6.39247,-3.93874 -3.34971,-6.68352 -2.49345,-8.99109c0.64585,-1.74054 0.34199,-6.42143 5.0037,-6.14026z" fill="#7d3c3c" stroke="#000000" stroke-width="0" stroke-linecap="butt"/><path d="M220.81144,84.38519c2.92671,1.08598 -3.90717,-0.39354 -8.10065,0.80123c-4.13236,1.17737 -5.62975,5.02212 -2.22184,7.01814c9.28185,5.43641 38.24236,7.99669 52.09336,12.64249c7.49736,2.51471 5.34516,8.7553 5.14306,9.29994c-0.43242,1.16537 -1.83895,-6.52493 -8.15082,-8.00843c-6.11954,-1.43831 -17.01381,3.39899 -25.83403,0.12618c-17.91765,-6.64848 -31.75237,-13.89879 -30.90069,-16.19404c0.85167,-2.29524 0.054,-12.33401 17.97165,-5.68552z" fill="#5c2c2c" stroke="none" stroke-width="0" stroke-linecap="butt"/><path d="M211.0014,81.43002c6.4432,0.38863 19.28212,6.61064 29.4204,10.37251c10.87958,4.03695 24.20542,7.41367 29.16296,11.51068c3.00465,2.4831 -0.72454,8.853 -1.30512,10.41764c-0.92414,2.49057 -0.86017,-5.83632 -8.9492,-8.16309c-5.37737,-1.54677 -17.50257,3.83866 -24.48001,1.24962c-7.74869,-2.87521 -21.26574,-7.11762 -26.35926,-10.25601c-6.39247,-3.93874 -3.34971,-6.68352 -2.49345,-8.99109c0.64585,-1.74054 0.34199,-6.42143 5.0037,-6.14026z" fill="none" stroke="#000000" stroke-width="3" stroke-linecap="butt"/><path d="M235.34616,79.90744c0.53624,0.19898 0.33727,0.73522 0.33727,0.73522c-0.33164,0.89374 -0.86223,2.32372 -1.19387,3.21746c0,0 -0.19898,0.53624 -0.73522,0.33727c-0.53624,-0.19898 -0.33727,-0.73522 -0.33727,-0.73522c0.33164,-0.89374 0.66326,-1.78748 0.99489,-2.68123l0.19898,-0.53624c0,0 0.19898,-0.53624 0.73522,-0.33727z" fill="#ffffff" stroke="none" stroke-width="0.5" stroke-linecap="butt"/><path d="M254.24455,85.69968c0.53624,0.19898 0.33727,0.73522 0.33727,0.73522l-0.09948,0.26813c-0.56549,1.52399 -1.44002,2.98992 -1.95943,4.45859c0,0 -0.19898,0.53624 -0.73522,0.33727c-0.53624,-0.19898 -0.33727,-0.73522 -0.33727,-0.73522c0.57102,-1.48794 1.38449,-2.90914 1.95943,-4.45859l0.09948,-0.26813c0,0 0.19898,-0.53624 0.73522,-0.33727z" fill="#ffffff" stroke="none" stroke-width="0.5" stroke-linecap="butt"/><path d="M306.02505,76.87925c-0.23872,-0.08857 -0.03973,-0.62483 -0.03973,-0.62483l0.19898,-0.53624c0.25432,-0.58491 -0.21008,-1.78524 -0.24959,-2.40657c-0.00975,-0.15344 0.02122,-0.29178 0.06577,-0.40698c0.04137,-0.11641 0.10814,-0.24144 0.21562,-0.35137c0.02812,-0.02877 0.05393,-0.05126 0.0776,-0.06842c-0.09088,-0.00791 -0.19331,-0.08549 -0.01659,-0.49041c0.29525,-0.67647 0.56628,-0.58189 0.86215,-0.95058c0.48065,-0.59897 0.56896,-2.01312 1.47437,-2.93915c0,0 0.30949,-0.31654 0.33759,0.12527c0.0281,0.44181 -0.28139,0.75837 -0.28139,0.75837c-0.90783,0.92853 -1.61853,3.01709 -2.08433,3.99986c0.13039,0.93408 0.51584,1.62711 0.07623,2.90715l-0.19898,0.53624c0,0 -0.19898,0.53624 -0.43769,0.44767z" fill="#ffffff" stroke="none" stroke-width="0.5" stroke-linecap="butt"/><path d="M241.93882,91.00617c5.59002,2.07421 9.45347,5.55633 8.62928,7.77754c-0.82419,2.2212 -6.02393,2.34034 -11.61393,0.26613c-5.59002,-2.07421 -9.45347,-5.55633 -8.62928,-7.77754c0.82419,-2.2212 6.02393,-2.34034 11.61393,-0.26613z" fill="#000000" stroke="#000000" stroke-width="3" stroke-linecap="butt"/><path d="M264.33219,49.61464c1.37321,-1.29449 6.56317,-3.49019 10.25321,-8.21798c6.60845,-8.46695 12.99577,-20.83408 16.66801,-20.67632c3.48528,0.14973 2.70382,6.47096 5.76448,11.07468c3.73981,5.62528 11.12424,9.86522 12.98086,11.83473c1.16509,1.23593 11.44401,1.92067 11.08586,3.64404c-0.7126,3.42893 -9.50161,6.60213 -15.95948,11.00262c-6.65188,4.53269 -11.01925,10.29252 -14.68714,13.75014c-9.01852,8.5015 -14.43971,2.14039 -20.3107,-4.08764c-5.87099,-6.22804 -14.81362,-9.82278 -5.7951,-18.32428z" fill="#410000" stroke="#000000" stroke-width="0" stroke-linecap="butt"/><path d="M273.7089,43.27808c2.79047,-2.63051 13.9132,-28.2261 19.93668,-21.83628c3.69304,3.91764 -13.47919,14.42859 -13.96415,26.07951c-0.30601,7.35212 16.92003,17.87857 15.84042,18.89629c-2.79048,2.63051 -9.93562,-0.417 -15.9591,-6.80679c-6.02348,-6.3898 -8.64435,-13.70221 -5.85387,-16.33272z" fill="#170000" stroke="none" stroke-width="0" stroke-linecap="butt"/><path d="M264.33572,49.49557c1.3732,-1.29449 6.56316,-3.49019 10.2532,-8.21799c6.60845,-8.46695 12.99577,-20.83408 16.66801,-20.67632c3.43834,0.14771 2.24299,6.53445 5.27302,11.05772c3.79427,5.66416 11.59526,9.86047 13.47232,11.85171c1.16509,1.23593 11.444,1.92066 11.08585,3.64404c-0.71259,3.42893 -9.5016,6.60212 -15.95948,11.00262c-6.65188,4.5327 -11.01925,10.29252 -14.68714,13.75014c-9.01852,8.5015 -14.43971,2.14039 -20.3107,-4.08764c-5.87099,-6.22805 -14.81362,-9.82278 -5.7951,-18.32428z" fill="none" stroke="#000000" stroke-width="3" stroke-linecap="butt"/><path d="M291.43868,81.27113c-2.34573,2.21126 -3.59554,7.74387 -9.27904,4.1531c-3.3877,-2.14032 -10.77249,-11.84245 -14.22137,-15.50107c-3.93492,-4.17421 -11.73945,-11.74646 -13.6735,-15.64552c-2.60505,-5.25179 1.58238,-6.45765 3.73105,-8.48315c1.94865,-1.83693 5.61097,-4.64022 10.09467,-2.36135c4.13085,2.09956 8.97736,9.01164 13.40572,13.70932c4.0286,4.2736 13.42785,11.77985 15.35261,15.74906c2.48748,5.12964 -3.29946,6.38992 -5.41016,8.37961z" data-paper-data="{&quot;index&quot;:null}" fill="#410000" stroke="#000000" stroke-width="0" stroke-linecap="butt"/><path d="M269.51778,45.28749c2.93856,1.41474 17.53497,16.0872 23.30525,23.40149c4.6898,5.9447 3.471,6.36961 4.80015,7.77961c0.58722,0.62291 -1.40163,6.32945 -3.66803,3.87818c-3.01209,-3.25778 -0.22944,-5.88246 -4.55646,-11.82654c-4.74167,-6.51368 -18.68344,-18.48236 -22.18642,-19.92784c-2.22536,-0.91827 -4.32474,-0.67538 -5.99441,0.02875c-2.16377,0.91252 -3.60584,2.59966 -3.66513,3.53812c-0.31455,4.97854 30.46824,32.39295 29.04268,33.7368c-2.75004,2.59239 -15.94067,-11.33518 -23.14597,-18.97868c-7.2053,-7.6435 -10.81701,-15.94131 -8.06697,-18.5337c1.61857,-1.52578 6.51525,-6.76479 14.13531,-3.09619z" fill="#170000" stroke="none" stroke-width="0" stroke-linecap="butt"/><path d="M291.43115,81.52635c-2.34573,2.21126 -3.59554,7.74387 -9.27904,4.1531c-3.38771,-2.14031 -10.77249,-11.84245 -14.22138,-15.50108c-3.93492,-4.17421 -11.73943,-11.74645 -13.6735,-15.64552c-2.60505,-5.25179 1.58238,-6.45765 3.73105,-8.48315c1.94864,-1.83693 5.61098,-4.64022 10.09467,-2.36135c4.13085,2.09955 8.97736,9.01164 13.40572,13.70932c4.0286,4.2736 13.42785,11.77985 15.35261,15.74907c2.48748,5.12964 -3.29946,6.38992 -5.41016,8.37961z" data-paper-data="{&quot;index&quot;:null}" fill="none" stroke="#000000" stroke-width="3" stroke-linecap="butt"/><path d="M216.96699,106.59975l1.81923,-4.90281" fill="none" stroke="#000000" stroke-width="2" stroke-linecap="round"/><path d="M232.10036,113.26097l2.27403,-6.12851" fill="none" stroke="#000000" stroke-width="2" stroke-linecap="round"/><path d="M252.23661,106.43945l-4.08842,12.42758" fill="none" stroke="#000000" stroke-width="2" stroke-linecap="round"/><path d="M229.48127,67.77891l4.93912,-4.26807l-7.76211,-8.67592l5.28484,-1.08939l1.02522,-3.58507" fill="none" stroke="#000000" stroke-width="3" stroke-linecap="round"/><path d="M238.09542,101.03084l-1.38827,4.17747" fill="none" stroke="#000000" stroke-width="3" stroke-linecap="round"/></g><g stroke-linecap="butt"><path d="M154.02247,322.10148c0,-11.07416 16.63961,-20.05155 37.16561,-20.05155c20.526,0 37.1656,8.97737 37.1656,20.05155c0,5.5238 -0.30845,12.05852 -7.0057,15.68505c-6.72944,3.64397 -19.8723,4.3665 -30.15991,4.3665c-11.02302,0 -28.58824,-0.03474 -35.39441,-4.14721c-5.86761,-3.54537 -1.7712,-10.7773 -1.7712,-15.90434z" fill="#840000" stroke="#000000" stroke-width="0"/><path d="M153.27412,332.71996c0,-1.92539 7.37565,2.6143 21.70599,3.6569c15.36834,1.11811 38.04516,-1.28736 46.97351,-4.67121c4.00164,-1.51662 2.89534,-8.45008 -1.53588,-14.20528c-4.83274,-6.27671 -13.08795,-11.34552 -9.54331,-11.34552c20.80814,0 17.75264,20.64007 17.75264,26.5651c0,5.92503 -16.86833,10.72822 -37.67647,10.72822c-20.80814,0 -37.67648,-4.80319 -37.67648,-10.72822z" fill="#430000" stroke="none" stroke-width="0"/><path d="M133.97616,326.82314c0,-11.07417 7.47174,-20.05155 16.68857,-20.05155c9.21684,0 16.68857,8.97737 16.68857,20.05155c0,5.5238 -0.13851,12.05852 -3.14578,15.68505c-3.02174,3.64397 -8.92332,4.3665 -13.54279,4.3665c-4.94969,0 -12.83705,-0.03474 -15.89325,-4.14721c-2.63476,-3.54537 -0.79534,-10.77732 -0.79534,-15.90434z" fill="#840000" stroke="#000000" stroke-width="0"/><path d="M191.97234,302.57877c20.526,0 37.16561,8.97738 37.16561,20.05155c0,5.5238 -0.30846,12.05852 -7.0057,15.68505c-6.72944,3.64397 -19.8723,4.3665 -30.15991,4.3665c-11.02302,0 -28.58823,-0.03473 -35.39441,-4.1472c-5.86761,-3.54537 -1.7712,-10.77733 -1.7712,-15.90435c0,-11.07417 16.63961,-20.05155 37.16561,-20.05155z" fill="none" stroke="#000000" stroke-width="3.5"/><path d="M133.64014,337.44159c0,-1.92539 3.31191,2.61429 9.74671,3.65689c6.90089,1.11811 17.08352,-1.28734 21.09264,-4.67119c1.79687,-1.51662 1.3001,-8.45008 -0.68966,-14.20528c-2.17006,-6.27671 -5.87691,-11.34552 -4.28526,-11.34552c9.34354,0 7.97152,20.64009 7.97152,26.56511c0,5.92504 -7.57443,10.72822 -16.91797,10.72822c-9.34354,0 -16.91797,-4.80319 -16.91797,-10.72822z" fill="#430000" stroke="none" stroke-width="0"/><path d="M134.32831,327.35195c0,-11.07417 7.47173,-20.05155 16.68857,-20.05155c9.21684,0 16.68857,8.97739 16.68857,20.05155c0,5.5238 -0.13851,12.05852 -3.14578,15.68505c-3.02174,3.64398 -8.92331,4.36649 -13.54278,4.36649c-4.94969,0 -12.83705,-0.03473 -15.89325,-4.1472c-2.63476,-3.54537 -0.79532,-10.77732 -0.79532,-15.90434z" fill="none" stroke="#000000" stroke-width="3.5"/><path d="M181.08774,326.14689c0,-11.07417 7.47174,-20.05155 16.68857,-20.05155c9.21684,0 16.68857,8.97737 16.68857,20.05155c0,5.5238 -0.13851,12.05852 -3.14578,15.68505c-3.02174,3.64397 -8.92332,4.3665 -13.54279,4.3665c-4.94969,0 -12.83705,-0.03474 -15.89325,-4.14721c-2.63476,-3.54537 -0.79534,-10.77732 -0.79534,-15.90434z" fill="#840000" stroke="#000000" stroke-width="0"/><path d="M180.75172,336.76534c0,-1.92539 3.31191,2.61429 9.74671,3.65689c6.90089,1.11811 17.08352,-1.28734 21.09264,-4.67119c1.79687,-1.51662 1.3001,-8.45008 -0.68966,-14.20528c-2.17006,-6.27671 -5.87691,-11.34552 -4.28526,-11.34552c9.34354,0 7.97152,20.64009 7.97152,26.56511c0,5.92504 -7.57443,10.72822 -16.91797,10.72822c-9.34354,0 -16.91797,-4.80319 -16.91797,-10.72822z" fill="#430000" stroke="none" stroke-width="0"/><path d="M181.43989,326.6757c0,-11.07417 7.47173,-20.05155 16.68857,-20.05155c9.21684,0 16.68857,8.97739 16.68857,20.05155c0,5.5238 -0.13851,12.05852 -3.14578,15.68505c-3.02174,3.64398 -8.92331,4.36649 -13.54278,4.36649c-4.94969,0 -12.83705,-0.03473 -15.89325,-4.1472c-2.63476,-3.54537 -0.79532,-10.77732 -0.79532,-15.90434z" fill="none" stroke="#000000" stroke-width="3.5"/><path d="M154.93969,325.92147c0,-11.07417 7.47174,-20.05155 16.68857,-20.05155c9.21684,0 16.68857,8.97737 16.68857,20.05155c0,5.5238 -0.13851,12.05852 -3.14578,15.68505c-3.02174,3.64397 -8.92332,4.3665 -13.54279,4.3665c-4.94969,0 -12.83705,-0.03474 -15.89325,-4.14721c-2.63476,-3.54537 -0.79534,-10.77732 -0.79534,-15.90434z" fill="#840000" stroke="#000000" stroke-width="0"/><path d="M154.60366,336.53993c0,-1.92539 3.31191,2.61429 9.74671,3.65689c6.90089,1.11811 17.08352,-1.28734 21.09264,-4.67119c1.79687,-1.51662 1.3001,-8.45008 -0.68966,-14.20528c-2.17006,-6.27671 -5.87691,-11.34552 -4.28526,-11.34552c9.34354,0 7.97152,20.64009 7.97152,26.56511c0,5.92504 -7.57443,10.72822 -16.91797,10.72822c-9.34354,0 -16.91797,-4.80319 -16.91797,-10.72822z" fill="#430000" stroke="none" stroke-width="0"/><path d="M155.29184,326.4503c0,-11.07417 7.47173,-20.05155 16.68857,-20.05155c9.21684,0 16.68857,8.97739 16.68857,20.05155c0,5.5238 -0.13851,12.05852 -3.14578,15.68505c-3.02174,3.64398 -8.92331,4.36649 -13.54278,4.36649c-4.94969,0 -12.83705,-0.03473 -15.89325,-4.1472c-2.63476,-3.54537 -0.79532,-10.77732 -0.79532,-15.90434z" fill="none" stroke="#000000" stroke-width="3.5"/></g><g data-paper-data="{&quot;index&quot;:null}" stroke-linecap="butt"><path d="M324.09223,324.43671c0,5.12704 4.09642,12.35897 -1.7712,15.90434c-6.80617,4.11247 -24.37139,4.14721 -35.39441,4.14721c-10.28762,0 -23.43048,-0.72254 -30.15991,-4.3665c-6.69725,-3.62653 -7.0057,-10.16125 -7.0057,-15.68505c0,-11.07418 16.6396,-20.05155 37.1656,-20.05155c20.526,0 37.16561,8.97739 37.16561,20.05155z" fill="#840000" stroke="#000000" stroke-width="0"/><path d="M324.84058,335.05517c0,5.92503 -16.86834,10.72822 -37.67648,10.72822c-20.80814,0 -37.67647,-4.80319 -37.67647,-10.72822c0,-5.92503 -3.0555,-26.5651 17.75264,-26.5651c3.54464,0 -4.71058,5.06881 -9.54331,11.34552c-4.43121,5.7552 -5.53752,12.68866 -1.53588,14.20528c8.92834,3.38386 31.60517,5.78932 46.97351,4.67121c14.33034,-1.0426 21.70599,-5.58229 21.70599,-3.6569z" fill="#430000" stroke="none" stroke-width="0"/><path d="M344.13854,329.15837c0,5.12703 1.83942,12.35897 -0.79534,15.90434c-3.0562,4.11247 -10.94355,4.14721 -15.89325,4.14721c-4.61947,0 -10.52105,-0.72254 -13.54279,-4.3665c-3.00727,-3.62653 -3.14578,-10.16125 -3.14578,-15.68505c0,-11.07418 7.47173,-20.05155 16.68857,-20.05155c9.21683,0 16.68857,8.97738 16.68857,20.05155z" fill="#840000" stroke="#000000" stroke-width="0"/><path d="M323.30797,324.96555c0,5.12703 4.09642,12.35899 -1.7712,15.90435c-6.80618,4.11247 -24.37139,4.1472 -35.39441,4.1472c-10.28762,0 -23.43048,-0.72254 -30.15991,-4.3665c-6.69723,-3.62653 -7.0057,-10.16125 -7.0057,-15.68505c0,-11.07417 16.63961,-20.05155 37.16561,-20.05155c20.526,0 37.16561,8.97738 37.16561,20.05155z" fill="none" stroke="#000000" stroke-width="3.5"/><path d="M344.47454,339.77682c0,5.92503 -7.57443,10.72822 -16.91797,10.72822c-9.34354,0 -16.91797,-4.80318 -16.91797,-10.72822c0,-5.92503 -1.37202,-26.56511 7.97152,-26.56511c1.59166,0 -2.1152,5.06881 -4.28526,11.34552c-1.98976,5.7552 -2.48653,12.68866 -0.68966,14.20528c4.00912,3.38384 14.19175,5.7893 21.09264,4.67119c6.43479,-1.0426 9.74671,-5.58228 9.74671,-3.65689z" fill="#430000" stroke="none" stroke-width="0"/><path d="M343.78637,329.68718c0,5.12703 1.83943,12.35897 -0.79532,15.90434c-3.0562,4.11247 -10.94355,4.1472 -15.89325,4.1472c-4.61947,0 -10.52104,-0.72251 -13.54278,-4.36649c-3.00727,-3.62653 -3.14578,-10.16125 -3.14578,-15.68505c0,-11.07416 7.47173,-20.05155 16.68857,-20.05155c9.21684,0 16.68857,8.97738 16.68857,20.05155z" fill="none" stroke="#000000" stroke-width="3.5"/><path d="M297.02696,328.48211c0,5.12703 1.83942,12.35897 -0.79534,15.90434c-3.0562,4.11247 -10.94355,4.14721 -15.89325,4.14721c-4.61947,0 -10.52105,-0.72254 -13.54279,-4.3665c-3.00727,-3.62653 -3.14578,-10.16125 -3.14578,-15.68505c0,-11.07418 7.47173,-20.05155 16.68857,-20.05155c9.21683,0 16.68857,8.97738 16.68857,20.05155z" fill="#840000" stroke="#000000" stroke-width="0"/><path d="M297.36296,339.10058c0,5.92503 -7.57443,10.72822 -16.91797,10.72822c-9.34354,0 -16.91797,-4.80318 -16.91797,-10.72822c0,-5.92503 -1.37202,-26.56511 7.97152,-26.56511c1.59166,0 -2.1152,5.06881 -4.28526,11.34552c-1.98976,5.7552 -2.48653,12.68866 -0.68966,14.20528c4.00912,3.38384 14.19175,5.7893 21.09264,4.67119c6.43479,-1.0426 9.74671,-5.58228 9.74671,-3.65689z" fill="#430000" stroke="none" stroke-width="0"/><path d="M296.67479,329.01092c0,5.12703 1.83943,12.35897 -0.79532,15.90434c-3.0562,4.11247 -10.94355,4.1472 -15.89325,4.1472c-4.61947,0 -10.52104,-0.72251 -13.54278,-4.36649c-3.00727,-3.62653 -3.14578,-10.16125 -3.14578,-15.68505c0,-11.07416 7.47173,-20.05155 16.68857,-20.05155c9.21684,0 16.68857,8.97738 16.68857,20.05155z" fill="none" stroke="#000000" stroke-width="3.5"/><path d="M323.17502,328.2567c0,5.12703 1.83942,12.35897 -0.79534,15.90434c-3.0562,4.11247 -10.94355,4.14721 -15.89325,4.14721c-4.61947,0 -10.52105,-0.72254 -13.54279,-4.3665c-3.00727,-3.62653 -3.14578,-10.16125 -3.14578,-15.68505c0,-11.07418 7.47173,-20.05155 16.68857,-20.05155c9.21683,0 16.68857,8.97738 16.68857,20.05155z" fill="#840000" stroke="#000000" stroke-width="0"/><path d="M323.51101,338.87517c0,5.92503 -7.57443,10.72822 -16.91797,10.72822c-9.34354,0 -16.91797,-4.80318 -16.91797,-10.72822c0,-5.92503 -1.37202,-26.56511 7.97152,-26.56511c1.59166,0 -2.1152,5.06881 -4.28526,11.34552c-1.98976,5.7552 -2.48653,12.68866 -0.68966,14.20528c4.00912,3.38384 14.19175,5.7893 21.09264,4.67119c6.43479,-1.0426 9.74671,-5.58228 9.74671,-3.65689z" fill="#430000" stroke="none" stroke-width="0"/><path d="M322.82284,328.78552c0,5.12703 1.83943,12.35897 -0.79532,15.90434c-3.0562,4.11247 -10.94355,4.1472 -15.89325,4.1472c-4.61947,0 -10.52104,-0.72251 -13.54278,-4.36649c-3.00727,-3.62653 -3.14578,-10.16125 -3.14578,-15.68505c0,-11.07416 7.47173,-20.05155 16.68857,-20.05155c9.21684,0 16.68857,8.97738 16.68857,20.05155z" fill="none" stroke="#000000" stroke-width="3.5"/></g></g></g></svg>