<svg version="1.1" xmlns="http://www.w3.org/2000/svg" xmlns:xlink="http://www.w3.org/1999/xlink" width="517.22952" height="596.40787" viewBox="0,0,517.22952,596.40787"><g transform="translate(-100.44238,61.04534)"><g data-paper-data="{&quot;isPaintingLayer&quot;:true}" fill-rule="nonzero" stroke-width="5.5" stroke-linejoin="miter" stroke-miterlimit="10" stroke-dasharray="" stroke-dashoffset="0" style="mix-blend-mode: normal"><g><g data-paper-data="{&quot;index&quot;:null}" stroke-linecap="butt"><path d="M148.10523,372.32541c22.62817,-11.66104 44.94651,-13.40146 49.84946,-3.88733c4.90294,9.51413 -10.5013,124.15547 -33.12947,135.81651c-22.62817,11.66104 -54.67957,5.36733 -59.58251,-4.1468c-4.90294,-9.51413 20.23436,-116.12134 42.86253,-127.78238z" fill="#840000" stroke="#000000"/><path d="M141.21757,495.56422c8.02687,-4.1365 23.30676,-17.04741 30.91354,-37.93355c14.75159,-40.50373 20.24437,-97.9392 25.36172,-88.00903c7.75616,15.05076 -11.49893,118.71416 -35.09202,130.87245c-23.59309,12.15829 -52.68931,11.71128 -60.44547,-3.33947c-7.75616,-15.05076 15.66914,10.56789 39.26223,-1.5904z" fill="#430000" stroke="none"/><path d="M147.72567,371.58888c22.62817,-11.66104 44.9465,-13.40148 49.84944,-3.88735c4.90294,9.51413 -10.50129,124.15547 -33.12945,135.81651c-22.62817,11.66104 -54.67957,5.36733 -59.58251,-4.1468c-4.90294,-9.51413 20.23436,-116.12133 42.86253,-127.78236z" fill="none" stroke="#000000"/></g><g data-paper-data="{&quot;index&quot;:null}" stroke-linecap="butt"><path d="M612.87157,508.39363c-4.90294,9.51413 -36.95435,15.80783 -59.58251,4.1468c-22.62817,-11.66104 -38.03242,-126.30238 -33.12947,-135.81651c4.90294,-9.51413 27.22129,-7.7737 49.84946,3.88733c22.62817,11.66104 47.76547,118.26825 42.86253,127.78238z" fill="#840000" stroke="#000000"/><path d="M616.15893,505.44046c-7.75616,15.05076 -36.85238,15.49776 -60.44547,3.33947c-23.59309,-12.15829 -42.84818,-115.82169 -35.09202,-130.87245c5.11735,-9.93018 10.61013,47.5053 25.36172,88.00903c7.60678,20.88614 22.88667,33.79704 30.91354,37.93355c23.59309,12.15829 47.01839,-13.46036 39.26223,1.5904z" fill="#430000" stroke="none"/><path d="M613.25113,507.65708c-4.90294,9.51413 -36.95435,15.80783 -59.58251,4.1468c-22.62817,-11.66104 -38.0324,-126.30238 -33.12945,-135.81651c4.90294,-9.51413 27.22127,-7.77369 49.84944,3.88735c22.62817,11.66104 47.76547,118.26824 42.86253,127.78236z" fill="none" stroke="#000000"/></g><g stroke-linecap="butt"><path d="M238.69814,465.13373c0,-45.17673 6.6181,-152.55188 35.74509,-198.82492c20.69073,-32.87061 60.31687,-13.95981 83.01847,-13.95981c29.13943,0 57.41169,-22.41116 72.41896,25.49873c13.14322,41.95904 27.45044,143.11242 27.45044,179.18845c0,77.26853 -45.20994,75.12694 -99.86937,75.12694c-54.6594,0 -118.76356,10.23914 -118.76356,-67.02943z" fill="#840000" stroke="#000000"/><path d="M259.3654,465.97186c0,-44.38563 9.53272,-128.8118 33.03218,-171.69849c14.51562,-26.49111 39.36816,-24.89121 55.59066,-24.89121c19.23378,0 41.54647,-4.38897 57.2539,26.02863c18.98852,36.77144 29.56946,112.37048 29.56946,151.66685c0,71.80263 -44.33807,82.32475 -86.82336,82.32475c-42.48529,0 -88.62284,8.37207 -88.62284,-63.43056z" fill="#7d3c3c" stroke="#000000"/><path d="M272.97379,358.76087c0,-21.47675 23.98322,-87.57386 62.18089,-88.6941c1.28633,-0.03775 31.23657,-15.97628 32.53983,-15.97628c40.00391,0 50.14627,50.63149 50.14627,72.83147c0,22.19997 -51.53289,-19.50131 -91.53681,-19.50131c-40.00391,0 -53.33016,73.5402 -53.33016,51.34023z" fill="#5c2c2c" stroke="none"/><path d="M243.17372,499.25423c0,-19.37924 -6.45066,-233.02852 52.18399,-233.02852c10.83632,0 -11.37264,36.90756 -22.60094,83.44526c-13.6947,56.76013 -17.19639,126.96843 -1.52675,151.0061c40.99997,62.89519 184.27854,-12.85239 184.27854,-1.42284c0,19.37924 -47.53279,35.08922 -106.16744,35.08922c-58.63465,0 -106.16744,-15.70998 -106.16744,-35.08922z" fill="#430000" stroke="none"/><path d="M265.49248,488.62603c0,-12.74852 34.22315,-7.16377 78.40329,-7.16377c44.18014,0 87.15897,-27.07599 87.15897,-14.3275c0,6.15992 -3.66652,29.24625 -19.02216,42.4135c-16.42422,14.08353 -45.30397,18.08039 -68.13681,18.08039c-24.59468,0 -50.0835,-0.97253 -64.32032,-10.3857c-11.33721,-7.49596 -14.08297,-22.96542 -14.08297,-28.61696z" fill="#5c2c2c" stroke="none"/><path d="M292.81698,293.58545c14.51559,-26.49111 39.36813,-24.89121 55.59063,-24.89121c19.23381,0 41.5465,-4.38897 57.25393,26.02863c18.98848,36.77144 29.56943,112.37051 29.56943,151.66688c0,71.8026 -44.33807,82.32475 -86.82336,82.32475c-42.48529,0 -88.62281,8.37204 -88.62281,-63.43056c0,-44.3856 9.53272,-128.8118 33.03218,-171.69849z" fill="none" stroke="#000000"/><path d="M276.76579,265.93213c20.69073,-32.87064 60.31684,-13.95984 83.01847,-13.95984c29.13943,0 57.41169,-22.4112 72.41896,25.49873c13.14322,41.95904 27.45041,143.11245 27.45041,179.18848c0,77.26853 -45.20994,75.12694 -99.86937,75.12694c-54.6594,0 -118.76356,10.23914 -118.76356,-67.02943c0,-45.17669 6.6181,-152.55184 35.74509,-198.82489z" fill="none" stroke="#000000"/></g><g><path d="M267.39401,23.8586c29.66956,0 53.72148,21.84024 53.72148,48.78156c0,26.94129 -24.05192,48.78156 -53.72148,48.78156c-29.66952,0 -53.72145,-21.84024 -53.72145,-48.78156c0,-26.94133 24.05189,-48.78156 53.72145,-48.78156z" fill="#840000" stroke="#000000" stroke-linecap="butt"/><path d="M231.04044,60.95442c-5.71772,22.19232 7.11843,46.51313 20.10561,46.51313c26.40828,0 68.2259,-41.66493 68.2259,-20.40947c0,21.25545 -21.40815,38.48641 -47.81643,38.48641c-17.87775,0 -48.11482,-15.57316 -57.87272,-39.00995c-2.61368,-6.27755 4.07249,-36.89868 18.11502,-50.46833c10.97336,-10.60385 29.84452,-4.89216 29.84452,-7.90399c0,-10.80234 -24.69315,9.85839 -30.60191,32.79219z" fill="#430000" stroke="none" stroke-linecap="butt"/><path d="M267.73307,24.78075c29.66956,0 53.72148,21.84027 53.72148,48.78156c0,26.94133 -24.05192,48.78156 -53.72148,48.78156c-29.66956,0 -53.72148,-21.84027 -53.72148,-48.78156c0,-26.94133 24.05192,-48.78156 53.72148,-48.78156z" fill="none" stroke="#000000" stroke-linecap="butt"/><path d="M261.30415,231.64014c12.68276,-12.14829 63.29427,-9.44953 99.18397,-9.44953c31.62906,0 60.573,-8.58993 75.36551,1.30542c7.29439,4.87953 10.14432,25.79268 10.14432,31.83793c0,18.30457 -38.28404,33.14334 -85.50982,33.14334c-47.22578,0 -85.50982,-14.83877 -85.50982,-33.14334c0,-4.39381 -17.68012,-19.85667 -13.67415,-23.69381z" fill="#000000" stroke="none" stroke-linecap="butt"/><g stroke-linecap="butt"><path d="M243.03724,240.49034c0,-11.22137 8.20977,-20.31809 18.33705,-20.31809c2.53792,0 -6.27337,7.99915 -2.86531,13.55374c5.78209,9.42385 24.91027,19.94497 35.7549,31.51375c8.26976,8.822 33.01485,12.9147 33.01485,16.55294c0,2.33206 89.74733,-6.94124 87.36456,-1.86567c-0.20887,0.44492 19.1653,-9.84394 27.38551,-23.54771c5.11872,-8.53332 -0.53464,-23.08112 1.76389,-22.85499c6.77798,0.66688 19.4217,-5.93054 19.68386,7.3434c0.10467,5.29989 -12.45398,17.7822 -15.26983,26.32668c-3.87787,11.76708 1.28109,19.35071 -2.06867,20.17352c-29.55471,7.25955 -133.0729,17.9105 -137.93159,15.83168c-16.02159,-6.85497 -41.41277,-42.3912 -46.8322,-42.3912c-10.12728,0 -18.33705,-9.09672 -18.33705,-20.31809z" fill="#840000" stroke="#000000"/><path d="M246.7875,228.15728c0,-2.26299 12.08913,21.52249 34.62999,38.18782c18.48219,13.6646 42.83495,27.27028 52.16414,27.27028c20.70703,0 112.89451,-12.81865 112.89451,-8.70013c0,4.11852 -88.04456,16.98596 -108.75159,16.98596c-5.55207,0 -15.46588,3.03348 -30.39254,-4.64637c-12.10856,-6.22989 -23.01689,-18.82678 -35.1506,-29.19521c-6.46481,-5.52427 -15.94761,-9.52586 -20.23023,-13.56653c-14.72632,-13.89438 -5.16367,-24.69461 -5.16367,-26.3358z" fill="#430000" stroke="none"/><path d="M243.45146,239.66176c0,-11.22137 8.20977,-20.31809 18.33705,-20.31809c2.53792,0 -6.27337,7.99915 -2.86531,13.55374c5.78209,9.42385 24.91027,19.94497 35.7549,31.51375c8.26979,8.82203 33.01488,12.91473 33.01488,16.55294c0,2.33203 89.74733,-6.94128 87.36456,-1.8657c-0.20887,0.44495 19.1653,-9.84394 27.38551,-23.54768c5.11872,-8.53328 -0.53464,-23.08109 1.76389,-22.85495c6.77798,0.66688 19.42173,-5.93054 19.68386,7.3434c0.10467,5.29989 -12.45398,17.7822 -15.26983,26.32668c-3.87787,11.76708 1.28109,19.35071 -2.06867,20.17352c-29.55471,7.25952 -133.0729,17.9105 -137.93159,15.83165c-16.02156,-6.855 -41.41274,-42.3912 -46.83217,-42.3912c-10.12728,0 -18.33705,-9.09672 -18.33705,-20.31809z" fill="none" stroke="#000000"/></g><path d="M265.85185,246.87862v-18.64313h178.14546v18.64313z" fill="#ffffff" stroke="#000000" stroke-linecap="butt"/><path d="M265.85182,246.87859v-18.64313h178.14546v18.64313z" fill="none" stroke="#000000" stroke-linecap="butt"/><path d="M358.61413,57.29708c59.48985,0 107.71586,45.25829 107.71586,101.08719c0,28.37209 5.55976,56.49478 -14.70958,68.32908c-19.61546,11.45252 -64.57761,7.07203 -93.83487,7.07203c-27.51859,0 -79.79293,7.41218 -98.64201,-2.61524c-21.899,-11.64995 -8.24527,-42.78206 -8.24527,-72.78586c0,-55.8289 48.22605,-101.08719 107.71586,-101.08719z" fill="#840000" stroke="#000000" stroke-linecap="butt"/><path d="M357.44961,143.16661c30.66014,0 55.5151,11.1291 55.5151,24.85751c0,13.7284 -24.85495,24.85751 -55.5151,24.85751c-30.66014,0 -106.47299,13.7284 -106.47299,0c0,-4.32587 -6.33953,-54.12908 12.40353,-89.71856c8.66427,-16.45179 42.88566,-31.49506 49.32134,-34.68133c9.72031,-4.81248 -43.88404,40.23532 -52.42866,77.48055c-4.75696,20.73507 32.46871,37.05061 35.16621,45.79803c3.31089,10.73662 20.57234,-28.27618 37.67407,-44.93525c5.28017,-5.14348 22.91345,-3.65846 24.33656,-3.65846z" fill="#430000" stroke="none" stroke-linecap="butt"/><path d="M358.61413,56.4685c59.48985,0 107.71586,45.25829 107.71586,101.08719c0,28.37209 5.55976,56.49478 -14.70958,68.32908c-19.61546,11.45252 -64.57761,7.07203 -93.83487,7.07203c-27.51859,0 -79.79293,7.41218 -98.64201,-2.61524c-21.899,-11.64995 -8.24527,-42.78206 -8.24527,-72.78586c0,-55.8289 48.22605,-101.08719 107.71586,-101.08719z" fill="none" stroke="#000000" stroke-linecap="butt"/><path d="M279.97705,136.05726c23.10953,0 69.18673,3.68402 69.18673,19.47171c0,15.7877 11.92365,32.72905 -11.18588,32.72905c-23.10953,0 -74.98681,7.08757 -74.98681,-8.70013c0,-15.7877 -6.12356,-43.50064 16.98596,-43.50064z" fill="#000000" stroke="#000000" stroke-linecap="butt"/><path d="M451.76297,182.04365c0,15.7877 -51.87728,8.70013 -74.98681,8.70013c-23.10953,0 -11.18588,-16.94135 -11.18588,-32.72905c0,-15.7877 46.0772,-19.47171 69.18673,-19.47171c23.10953,0 16.98596,27.71294 16.98596,43.50064z" data-paper-data="{&quot;index&quot;:null}" fill="#000000" stroke="#000000" stroke-linecap="butt"/><path d="M262.10808,190.2168c17.89353,-5.43856 59.03949,-1.47809 90.37003,-1.47809c33.6214,0 73.22216,-4.25902 90.81789,1.87303c10.66433,3.71646 6.95496,24.77793 6.95496,29.61315c0,12.81322 -43.7744,14.9145 -97.77286,14.9145c-23.94593,0 -64.93864,2.10026 -81.93757,-1.2908c-21.33394,-4.25584 -15.83529,-14.77842 -15.83529,-21.90954c0,-5.37883 -5.54329,-17.7874 7.40283,-21.72225z" fill="#7d3c3c" stroke="#000000" stroke-linecap="butt"/><path d="M293.39112,186.69916c9.04445,0 -11.00982,2.86912 -21.19646,10.34119c-10.03816,7.36319 -10.23039,19.31604 1.03841,21.30302c47.30509,8.34109 177.58892,-2.87929 177.58892,1.91343c0,7.09304 -44.88729,12.84304 -100.25861,12.84304c-55.37129,0 -100.25861,-5.75001 -100.25861,-12.84304c0,-7.09304 -12.28494,-33.55763 43.08634,-33.55763z" fill="#5c2c2c" stroke="none" stroke-linecap="butt"/><path d="M263.76525,188.55963c17.89353,-5.43856 59.03949,-1.47809 90.37003,-1.47809c33.6214,0 73.22216,-4.25902 90.81789,1.87303c10.66433,3.71646 6.95496,24.77793 6.95496,29.61315c0,12.81318 -43.7744,14.9145 -97.77286,14.9145c-23.94593,0 -64.93864,2.10026 -81.93757,-1.2908c-21.33394,-4.25584 -15.83529,-14.77842 -15.83529,-21.90954c0,-5.37883 -5.54329,-17.7874 7.40283,-21.72225z" fill="none" stroke="#000000" stroke-linecap="butt"/><path d="M328.359,159.88637c1.65717,0 1.65717,1.65717 1.65717,1.65717c0,2.76197 0,7.18104 0,9.943c0,0 0,1.65717 -1.65717,1.65717c-1.65717,0 -1.65717,-1.65717 -1.65717,-1.65717c0,-2.76197 0,-5.52387 0,-8.28584v-1.65717c0,0 0,-1.65717 1.65717,-1.65717z" fill="#ffffff" stroke="none" stroke-linecap="butt"/><path d="M385.53127,156.57203c1.65717,0 1.65717,1.65717 1.65717,1.65717v0.82858c0,4.70964 -0.89799,9.57302 -0.82858,14.08592c0,0 0,1.65717 -1.65717,1.65717c-1.65717,0 -1.65717,-1.65717 -1.65717,-1.65717c0.05137,-4.61727 0.82858,-9.2976 0.82858,-14.08592v-0.82858c0,0 0,-1.65717 1.65717,-1.65717z" fill="#ffffff" stroke="none" stroke-linecap="butt"/><path d="M324.09982,180.18666c-0.7377,0 -0.7377,-1.65717 -0.7377,-1.65717v-1.65717c0.10129,-1.84516 -2.37001,-4.63755 -3.10361,-6.28547c-0.18116,-0.40697 -0.23648,-0.81393 -0.23154,-1.17178c-0.00494,-0.35788 0.05038,-0.76485 0.23154,-1.17178c0.04739,-0.10649 0.09482,-0.19362 0.14182,-0.26405c-0.25484,0.0701 -0.61126,-0.03739 -0.53934,-1.31536c0.12014,-2.13509 0.95171,-2.15137 1.38377,-3.45105c0.70188,-2.11146 -0.48356,-6.04173 1.04246,-9.46972c0,0 0.52164,-1.17178 1.04329,0c0.52164,1.17178 0,2.3436 0,2.3436c-1.5301,3.4372 -1.3555,9.82677 -1.63019,12.96574c1.29564,2.40584 3.04117,3.89984 3.13722,7.81994v1.65717c0,0 0,1.65717 -0.7377,1.65717z" fill="#ffffff" stroke="none" stroke-linecap="butt"/><path d="M330.62319,178.94379v-1.65717c0.09608,-3.9201 1.84161,-5.41406 3.13722,-7.81994c-0.27469,-3.13901 -0.10006,-9.52855 -1.63016,-12.96574c0,0 -0.52164,-1.17182 0,-2.3436c0.52164,-1.17182 1.04325,0 1.04325,0c1.52599,3.42802 0.34058,7.35825 1.04246,9.46972c0.43202,1.29968 1.26362,1.31599 1.38377,3.45108c0.07192,1.27797 -0.2845,1.38542 -0.53934,1.31536c0.047,0.0704 0.09439,0.15756 0.14182,0.26405c0.18116,0.40697 0.23651,0.81393 0.23154,1.17182c0.00497,0.35788 -0.05038,0.76485 -0.23154,1.17182c-0.73359,1.64792 -3.20486,4.44031 -3.10358,6.28547v1.65717c0,0 0,1.65717 -0.7377,1.65717c-0.7377,0 -0.7377,-1.65717 -0.7377,-1.65717z" data-paper-data="{&quot;index&quot;:null}" fill="#ffffff" stroke="none" stroke-linecap="butt"/><path d="M380.02921,181.84383c-0.7377,0 -0.7377,-1.65717 -0.7377,-1.65717v-1.65717c0.10129,-1.84516 -2.36998,-4.63755 -3.10358,-6.28544c-0.18116,-0.40697 -0.23651,-0.81393 -0.23154,-1.17182c-0.00497,-0.35788 0.05038,-0.76485 0.23154,-1.17182c0.04743,-0.10649 0.09479,-0.19366 0.14182,-0.26405c-0.25487,0.0701 -0.61126,-0.03735 -0.53934,-1.31536c0.12014,-2.13509 0.95174,-2.1514 1.38377,-3.45108c0.70188,-2.11146 -0.48356,-6.04173 1.04246,-9.46972c0,0 0.52164,-1.17182 1.04325,0c0.52164,1.17182 0,2.3436 0,2.3436c-1.5301,3.4372 -1.3555,9.82674 -1.63019,12.96574c1.29564,2.40584 3.04117,3.89981 3.13725,7.81994v1.65717c0,0 0,1.65717 -0.7377,1.65717z" data-paper-data="{&quot;index&quot;:null}" fill="#ffffff" stroke="none" stroke-linecap="butt"/><path d="M389.03833,180.60095v-1.65717c0.09608,-3.9201 1.84161,-5.41406 3.13722,-7.81994c-0.27469,-3.13901 -0.10006,-9.52855 -1.63016,-12.96574c0,0 -0.52164,-1.17182 0,-2.3436c0.52164,-1.17182 1.04325,0 1.04325,0c1.52599,3.42802 0.34058,7.35825 1.04246,9.46972c0.43202,1.29968 1.26362,1.31599 1.38377,3.45108c0.07192,1.27797 -0.2845,1.38542 -0.53934,1.31536c0.047,0.0704 0.09439,0.15756 0.14182,0.26405c0.18116,0.40697 0.23651,0.81393 0.23154,1.17182c0.00497,0.35788 -0.05038,0.76485 -0.23154,1.17182c-0.73359,1.64792 -3.20486,4.44031 -3.10358,6.28547v1.65717c0,0 0,1.65717 -0.7377,1.65717c-0.7377,0 -0.7377,-1.65717 -0.7377,-1.65717z" data-paper-data="{&quot;index&quot;:null}" fill="#ffffff" stroke="none" stroke-linecap="butt"/><path d="M357.45332,183.38934c17.27494,0 31.27903,5.56454 31.27903,12.42875c0,6.86422 -14.00409,12.42875 -31.27903,12.42875c-17.27494,0 -31.27903,-5.56454 -31.27903,-12.42875c0,-6.86422 14.00409,-12.42875 31.27903,-12.42875z" fill="#000000" stroke="#000000" stroke-linecap="butt"/><path d="M298.58087,234.86413v8.28584" fill="none" stroke="#000000" stroke-linecap="round"/><path d="M348.29588,245.63571v-10.77159" fill="none" stroke="#000000" stroke-linecap="round"/><path d="M384.75356,247.29288l1.24288,-13.67163" fill="none" stroke="#000000" stroke-linecap="round"/><path d="M424.52557,246.87859l1.65717,-16.57167" fill="none" stroke="#000000" stroke-linecap="round"/><g stroke-linecap="butt"><path d="M376.56198,48.38583c2.42536,-4.90034 14.3099,-16.09563 19.56803,-32.65706c9.41675,-29.65978 14.30178,-69.6908 24.43582,-72.96358c21.37033,-6.90154 61.22898,37.01037 74.00921,43.33578c4.41048,2.18289 33.02154,-6.31742 33.78569,-1.27519c1.52042,10.03232 -19.15513,27.51033 -32.26146,45.9725c-13.50011,19.01679 -19.55792,39.0643 -26.03612,52.15324c-15.92846,32.18275 -37.06562,20.36798 -59.29049,9.36807c-22.22486,-10.99991 -50.13915,-11.75104 -34.21069,-43.93379z" fill="#410000" stroke="#000000"/><path d="M395.64542,21.72274c4.92851,-9.95788 9.34331,-90.6946 32.14543,-79.40896c13.98016,6.91934 -22.07111,52.77865 -11.64528,84.91513c6.57905,20.27918 63.9804,31.5101 62.0736,35.36272c-4.92855,9.95788 -27.40868,8.88155 -50.2108,-2.40409c-22.80212,-11.28564 -37.29153,-28.50692 -32.36298,-38.4648z" fill="#170000" stroke="none"/><path d="M376.45155,48.05881c2.42533,-4.90034 14.30987,-16.0956 19.56799,-32.65706c9.41675,-29.65978 14.30178,-69.6908 24.43582,-72.96358c21.3703,-6.90154 61.22898,37.01037 74.00921,43.33578c4.41048,2.18289 33.02151,-6.31742 33.78566,-1.27519c1.52045,10.03232 -19.15509,27.51033 -32.26146,45.9725c-13.50011,19.01682 -19.55792,39.0643 -26.03612,52.15324c-15.92846,32.18275 -37.06562,20.36798 -59.29049,9.36807c-22.22486,-10.99994 -50.13915,-11.75104 -34.21069,-43.93379z" fill="none" stroke="#000000"/><path d="M482.0991,107.05416c-4.14302,8.37078 -1.96152,24.65888 -21.01891,20.63365c-11.35938,-2.39931 -41.1978,-21.31024 -54.25363,-27.77207c-14.89578,-7.37247 -43.7276,-20.07486 -52.91106,-28.71665c-12.36953,-11.63991 -2.2105,-19.136 1.58448,-26.80362c3.44167,-6.95377 10.56427,-18.25976 25.04039,-16.58874c13.33691,1.53954 33.46841,15.43018 50.23215,23.72719c15.25041,7.548 48.34752,18.46379 57.57641,27.30547c11.92703,11.42663 -2.52194,20.68267 -6.24984,28.21476z" data-paper-data="{&quot;index&quot;:null}" fill="#410000" stroke="#000000"/><path d="M386.2863,31.40524c9.408,0.88108 63.84521,26.02432 86.89137,40.07637c18.73079,11.42083 15.84838,13.80347 20.87997,16.2938c2.22292,1.10019 2.57225,18.60561 -6.05469,14.23149c-11.46538,-5.81328 -6.55224,-15.74743 -24.29695,-27.53221c-19.44513,-12.9141 -69.37896,-31.37282 -80.35113,-31.76849c-6.97034,-0.25136 -12.42816,2.5244 -16.25379,6.11995c-4.95775,4.65959 -7.17441,10.69592 -6.38957,13.30483c4.16353,13.84039 115.41102,57.28044 112.89318,62.36765c-4.85712,9.81358 -54.72496,-14.72323 -82.0009,-28.22315c-27.27594,-13.49991 -45.44999,-32.39921 -40.5929,-42.21279c2.85871,-5.77589 10.87924,-24.94219 35.27542,-22.65745z" fill="#170000" stroke="none"/><path d="M482.33588,107.755c-4.14302,8.37078 -1.96149,24.65888 -21.01891,20.63365c-11.35938,-2.39928 -41.1978,-21.31024 -54.25366,-27.77207c-14.89578,-7.37247 -43.72757,-20.07486 -52.91106,-28.71665c-12.36953,-11.63991 -2.2105,-19.136 1.58448,-26.80362c3.44167,-6.95374 10.56431,-18.25976 25.04039,-16.58874c13.33691,1.53951 33.46841,15.43018 50.23215,23.72719c15.25041,7.548 48.34752,18.46379 57.57641,27.30551c11.92703,11.42663 -2.52194,20.68267 -6.24984,28.21476z" data-paper-data="{&quot;index&quot;:null}" fill="none" stroke="#000000"/></g></g><g stroke-linecap="butt"><path d="M234.51151,272.13796c25.45611,0 46.09235,8.6766 46.09235,19.37974c0,10.70315 -66.20833,105.55243 -91.66444,105.55243c-25.45611,0 -51.06385,-20.27677 -51.06385,-30.97991c0,-10.70315 71.17983,-93.95226 96.63594,-93.95226z" fill="#840000" stroke="#000000"/><path d="M136.3062,361.95923c0,16.93172 25.65914,30.65759 52.20076,30.65759c26.54162,0 91.14419,-83.32689 91.14419,-100.25861c0,-11.1712 -31.19287,37.36756 -62.85979,66.61422c-16.32934,15.08133 -35.82605,19.55847 -44.85607,19.55847c-26.54162,0 -35.62909,-33.50339 -35.62909,-16.57167z" fill="#430000" stroke="none"/><path d="M234.51151,271.30938c25.45611,0 46.09235,8.6766 46.09235,19.37974c0,10.70315 -66.20833,105.55243 -91.66444,105.55243c-25.45611,0 -51.06385,-20.27677 -51.06385,-30.97991c0,-10.70315 71.17983,-93.95226 96.63594,-93.95226z" fill="none" stroke="#000000"/></g><g data-paper-data="{&quot;index&quot;:null}" stroke-linecap="butt"><path d="M578.15314,372.71889c0,10.70315 -25.60774,30.97991 -51.06385,30.97991c-25.45611,0 -91.66444,-94.84928 -91.66444,-105.55243c0,-10.70315 20.63624,-19.37974 46.09235,-19.37974c25.45611,0 96.63594,83.24911 96.63594,93.95226z" fill="#840000" stroke="#000000"/><path d="M579.72251,368.5879c0,16.93172 -25.65914,30.65759 -52.20076,30.65759c-26.54162,0 -91.14419,-83.32689 -91.14419,-100.25861c0,-11.1712 31.19287,37.36756 62.85979,66.61422c16.32934,15.08133 35.82605,19.55847 44.85607,19.55847c26.54162,0 35.62909,-33.50339 35.62909,-16.57167z" fill="#430000" stroke="none"/><path d="M578.15314,371.8903c0,10.70315 -25.60774,30.97991 -51.06385,30.97991c-25.45611,0 -91.66444,-94.84928 -91.66444,-105.55243c0,-10.70315 20.63624,-19.37974 46.09235,-19.37974c25.45611,0 96.63594,83.24911 96.63594,93.95226z" fill="none" stroke="#000000"/></g></g></g></g></svg>