<svg version="1.1" xmlns="http://www.w3.org/2000/svg" xmlns:xlink="http://www.w3.org/1999/xlink" width="594.96534" height="310.46928" viewBox="0,0,594.96534,310.46928"><defs><linearGradient x1="231.52889" y1="116.72133" x2="231.52889" y2="210.72133" gradientUnits="userSpaceOnUse" id="color-1"><stop offset="0" stop-color="#0e0e19" stop-opacity="0"/><stop offset="1" stop-color="#0e0e19"/></linearGradient><linearGradient x1="349.28179" y1="130.50946" x2="349.28179" y2="241.04742" gradientUnits="userSpaceOnUse" id="color-2"><stop offset="0" stop-color="#0e0e19" stop-opacity="0"/><stop offset="1" stop-color="#0e0e19"/></linearGradient></defs><g transform="translate(59.52494,-51.4558)"><g data-paper-data="{&quot;isPaintingLayer&quot;:true}" fill-rule="nonzero" stroke-linejoin="miter" stroke-miterlimit="10" stroke-dasharray="" stroke-dashoffset="0" style="mix-blend-mode: normal"><path d="M368.00001,297.76875v-218h93v218z" fill="#000000" stroke="none" stroke-width="NaN" stroke-linecap="butt"/><path d="M121.0289,209.72133l3,-92l198,-1v94z" fill="url(#color-1)" stroke="#000000" stroke-width="4" stroke-linecap="butt"/><path d="M319.52079,229.83734v-113.34656l61.24938,-1.40803l0.70402,114.05058z" fill="#000000" stroke="none" stroke-width="NaN" stroke-linecap="butt"/><path d="M321.1538,241.04742v-110.53796h56.25593v110.53796z" fill="url(#color-2)" stroke="#000000" stroke-width="4" stroke-linecap="butt"/><path d="M-10.58945,310.22556v-39.47784c0,0 5.3873,45.05702 34.13839,45.05702c12.79014,0 63.53648,-3.73856 90.77069,-14.60508c18.58341,-7.41483 11.54679,-22.28692 31.72076,-25.28395c89.52877,-13.30034 186.82739,-5.16798 186.82739,-5.16798c0,0 27.86026,12.70456 50.56858,16.21895c12.75469,1.97394 36.5732,0.25709 58.26113,0.86819c29.87829,0.84189 56.97723,3.57346 56.97723,3.57346c0,0 21.25476,35.79158 -23.4801,53.42713c-30.94813,12.20049 -120.75242,12.95855 -159.04467,13.99749c-44.3765,1.20401 -211.4527,4.23001 -293.45752,-10.57066c-41.99397,-7.5793 -33.28188,-38.03671 -33.28188,-38.03671z" fill="#3c3c3c" stroke="#000000" stroke-width="4" stroke-linecap="butt"/><path d="M125.28246,280.93012v-73h201v73z" fill="#090909" stroke="#000000" stroke-width="4" stroke-linecap="butt"/><path d="M29.43298,211.80599v-108c0,0 19.68768,-18.99857 36.22149,-24.11617c18.28884,-5.66083 68.77851,-8.38383 68.77851,-8.38383c0,0 -4.68788,108.28922 -8.31262,141.42966c-3.35427,30.66761 -19.18738,83.07034 -19.18738,83.07034c0,0 12.06264,-65.14863 -0.08675,-78.317c-13.53418,-14.6693 -77.41325,-5.683 -77.41325,-5.683z" fill="#000000" stroke="none" stroke-width="0" stroke-linecap="butt"/><path d="M-20.00002,313.28256v-73c0,0 -1.29116,-121.57415 7.46016,-150.65405c2.03881,-6.7748 0.76973,-9.81298 9.12885,-11.63339c11.82676,-2.57556 33.911,-2.21256 33.911,-2.21256l-1,237.5z" fill="#090909" stroke="#000000" stroke-width="4" stroke-linecap="butt"/><path d="M135.61357,221.33227v-7h200.5v7z" fill="#010101" stroke="none" stroke-width="0" stroke-linecap="butt"/><path d="M141.14842,280.44379v-63h13v63z" fill="#010101" stroke="none" stroke-width="0" stroke-linecap="butt"/><path d="M11.93298,247.39546l-4,-55h104v25c0,0 -54.37856,16.31357 -72.79068,21.83721c-11.25705,3.37712 -27.20931,8.16279 -27.20931,8.16279z" fill="#090909" stroke="#000000" stroke-width="4" stroke-linecap="butt"/><path d="M107.93535,302.58133v-222h20.5v222z" fill="#090909" stroke="#000000" stroke-width="4" stroke-linecap="butt"/><path d="M105.73668,120.0459l-52,-47.5l421.62539,-4.44778l-138.62539,51.94778z" fill="#050505" stroke="none" stroke-width="0" stroke-linecap="butt"/><path d="M24.93296,196.66269l1,-126l69.5,14.5l-0.5,24c0,0 -1.18906,78.86132 -2.13082,80.03853c-6.09775,7.62218 -67.86918,7.46147 -67.86918,7.46147z" fill="#090909" stroke="#000000" stroke-width="4" stroke-linecap="butt"/><path d="M2.2761,221.90587l-2.84314,-144c0,0 21.35163,-6.18275 29.98576,-5.47564c19.74959,1.61742 86.01424,14.97564 86.01424,14.97564v134.5z" fill="#090909" stroke="none" stroke-width="0" stroke-linecap="butt"/><path d="M176.14903,112.86446v-35.69649h99.03012v35.6965z" fill="#272200" stroke="none" stroke-width="0" stroke-linecap="butt"/><path d="M179.17914,109.86446v-30.1965h93.5v30.1965z" fill="#000000" stroke="none" stroke-width="0" stroke-linecap="butt"/><path d="M301.14842,279.44379v-58.5h13v58.5z" fill="#010101" stroke="none" stroke-width="0" stroke-linecap="butt"/><path d="M449.4665,290.76034v-216h45v216z" fill="#090909" stroke="#000000" stroke-width="4" stroke-linecap="butt"/><path d="M323.46648,136.46908l-3,-18l55,-20.5v30z" fill="#090909" stroke="#000000" stroke-width="4" stroke-linecap="butt"/><path d="M378.9665,290.53401v-193.27756l67,-23.52055l4,216.79811z" fill="none" stroke="#000000" stroke-width="4" stroke-linecap="butt"/><path d="M321.69973,281.14441l2.98695,-72.86946l52.93473,23.93473l2.94778,52.97389z" fill="#090909" stroke="#000000" stroke-width="4" stroke-linecap="butt"/><path d="M-59.52494,316.0939v-241.47746h47.16907v241.47746z" fill="#000000" stroke="none" stroke-width="0" stroke-linecap="butt"/><path d="M488.27134,292.93326v-241.47746h47.16907v241.47746z" fill="#000000" stroke="none" stroke-width="0" stroke-linecap="butt"/><g><path d="M78.5,89.5c16.98276,0 30.75,17.68475 30.75,39.5c0,21.81525 -13.76724,39.5 -30.75,39.5c-16.98276,0 -35.75,-24.18475 -35.75,-46c0,-21.81525 18.76724,-33 35.75,-33z" fill="#ffffff" stroke="#000000" stroke-width="0" stroke-linecap="butt"/><path d="M48.37714,144.02415c0,7.59392 20.59238,24.5 31.5,24.5c10.90762,0 23.75,-8.40608 23.75,-16c0,-5.43154 5.12068,-11.14439 5.32709,-16.94734c0.08218,-2.31024 1.27886,-9.05266 -1.82709,-9.05266c-3.41111,0 1.81562,-22.0312 -6.22696,-20.46729c-2.79973,0.54442 -23.46831,-2.14649 -29.36304,2.19025c-3.49905,2.57424 6.30307,11.51059 6.00487,14.44571c-0.29253,2.87924 14.94344,1.25732 18.68994,3.7913c3.69493,2.4991 -4.08623,9.16349 -6.15705,10.66422c-12.84799,9.31097 -41.69775,3.93028 -41.69775,6.87581z" fill="#e4e4e4" stroke="none" stroke-width="0" stroke-linecap="butt"/><path d="M94.40873,135.04142c0,2.20914 3.39518,4 7.58334,4c4.18816,0 7.58333,-1.79086 7.58333,-4c0,-0.92645 -2.0569,-1.47362 -3.3996,-2.7644c-1.85899,-1.78712 -3.41864,-4.2356 -5.8504,-4.2356c-4.18816,0 -5.91667,4.79086 -5.91667,7z" fill="#00b5bd" stroke="none" stroke-width="0" stroke-linecap="butt"/><path d="M78.49264,89.5c16.98276,0 30.75,17.68475 30.75,39.5c0,21.81525 -13.76724,39.5 -30.75,39.5c-16.98276,0 -35.75,-24.18475 -35.75,-46c0,-21.81525 18.76724,-33 35.75,-33z" fill="none" stroke="#000000" stroke-width="2.5" stroke-linecap="butt"/><path d="M56.24264,136.52517c13.53098,0 52.5,-6.3962 52.5,1.75c0,8.1462 -11.96902,25.75 -25.5,25.75c-13.53098,0 -24.5,-6.6038 -24.5,-14.75c0,-8.1462 -16.03098,-12.75 -2.5,-12.75z" fill="#000000" stroke="#000000" stroke-width="2.5" stroke-linecap="butt"/><path d="M55.76569,136.04444c0,1.51879 6.97348,0.25 11.875,0.25c4.90152,0 8.875,-1.23121 8.875,-2.75c0,-0.59024 1.60737,-4.12483 0.43202,-5.37305c-1.84905,-1.96369 -7.14366,-1.71028 -10.14035,-1.71028c-1.61023,0 -1.85413,2.03701 -3.4701,3.25972c-3.30303,2.49919 -7.57156,5.30378 -7.57156,6.32362z" fill="#00b5bd" stroke="#000000" stroke-width="0" stroke-linecap="butt"/><path d="M55.40874,134.70224c0,1.1078 4.06675,2.00585 9.08334,2.00585c5.01658,0 9.08333,-0.89805 9.08333,-2.00585c0,-1.1078 7.26658,-6.16082 2.25,-6.16082c-1.82792,0 -3.03445,2.67674 -6.37224,3.58319c-5.82251,1.58124 -14.04443,1.87348 -14.04443,2.57763z" fill="#007379" stroke="none" stroke-width="0" stroke-linecap="butt"/><path d="M68.74264,105.02517c7.45584,0 13.5,7.27537 13.5,16.25c0,8.97463 -7.54416,7.75 -15,7.75c-7.45584,0 -12,1.22463 -12,-7.75c0,-8.97463 6.04416,-16.25 13.5,-16.25z" fill="#000000" stroke="#000000" stroke-width="2.5" stroke-linecap="butt"/><path d="M107.74264,120.27517c0,8.97463 -2.44038,7.75 -6.44444,7.75c-4.00406,0 -8.05556,1.22463 -8.05556,-7.75c0,-8.97463 3.24594,-16.25 7.25,-16.25c4.00406,0 7.25,7.27537 7.25,16.25z" data-paper-data="{&quot;index&quot;:null}" fill="#000000" stroke="#000000" stroke-width="2.5" stroke-linecap="butt"/><path d="M55.07055,134.77516c0,2.07107 10.13401,1.75 14,1.75c3.86599,0 7,-1.67893 7,-3.75c0,-2.07107 3.11599,-4.75 -0.75,-4.75c-0.51514,0 -3.27285,1.24565 -6.49298,1.39825c-2.44779,0.11601 -5.37386,-0.92729 -6.55706,-0.55902c-2.56184,0.79737 1.55102,2.44637 0.19634,2.93991c-3.37355,1.22905 -7.3963,1.83975 -7.3963,2.97086z" fill="none" stroke="#000000" stroke-width="2.5" stroke-linecap="butt"/><path d="M107.92451,134.20809c0,1.28867 -2.08065,2.33333 -4.64727,2.33333c-2.56662,0 -4.64727,-1.04467 -4.64727,-2.33333c0,-1.28867 -3.71777,-7.16667 -1.15116,-7.16667c0.93521,0 1.5525,3.11375 3.2602,4.16821c2.97895,1.8394 7.18549,2.17936 7.18549,2.99846z" data-paper-data="{&quot;index&quot;:null}" fill="#007379" stroke="none" stroke-width="0" stroke-linecap="butt"/><path d="M77.15389,133.8585c0,2.20914 7.24594,-0.25 11.25,-0.25c4.00407,0 7.75,0.45914 7.75,-1.75c0,-2.20914 -1.99593,-4.5 -6,-4.5c-4.00406,0 -13,4.29086 -13,6.5z" fill="#bd0089" stroke="#000000" stroke-width="0" stroke-linecap="butt"/><path d="M109.25736,134.02516c0,2.07107 -5.90899,1.75 -8.1632,1.75c-2.25421,0 -4.0816,-1.67893 -4.0816,-3.75c0,-2.07107 -1.81689,-4.75 0.43732,-4.75c0.30037,0 1.90835,1.24564 3.78596,1.39825c1.42727,0.11601 3.13342,-0.92729 3.82333,-0.55902c1.49377,0.79737 -0.90438,2.44638 -0.11448,2.93992c1.96706,1.22905 4.31267,1.83975 4.31267,2.97086z" data-paper-data="{&quot;index&quot;:null}" fill="none" stroke="#000000" stroke-width="2.5" stroke-linecap="butt"/><path d="M78.74207,133.87476c0,2.20914 3.73096,0 8.33333,0c4.60237,0 8.33333,2.20914 8.33333,0c0,-2.20914 2.93571,-5.33334 -1.66666,-5.33334c-1.87141,0 -4.70099,2.34988 -7.40011,3.11142c-3.93886,1.11132 -7.59989,0.91105 -7.59989,2.22191z" fill="#890062" stroke="none" stroke-width="0" stroke-linecap="butt"/><path d="M45.0054,136.71414c0,5.17767 6.95507,14.625 8.75,14.625c1.79493,0 -2.25,-9.44733 -2.25,-14.625c0,-2.18786 0.23133,-7.12923 -1.08054,-8.9305c-1.79273,-2.4615 -5.38299,-1.4445 -6.41946,-1.4445c-1.79493,0 1,5.19733 1,10.375z" fill="#bd0089" stroke="#000000" stroke-width="0" stroke-linecap="butt"/><path d="M47.20694,145.51166c0,2.39324 1.44264,4.33334 3.22223,4.33334c1.77958,0 3.22222,-1.9401 3.22222,-4.33334c0,-1.0075 -3.05177,-1.15981 -4.91724,-4.47254c-2.5658,-4.55642 -4.27456,-12.41634 -5.30498,-12.41634c-1.77958,0 3.77777,14.49565 3.77777,16.88889z" fill="#890062" stroke="none" stroke-width="0" stroke-linecap="butt"/><path d="M77.32055,134.02516c0,2.20914 7.24594,-0.25 11.25,-0.25c4.00406,0 7.75,0.45914 7.75,-1.75c0,-2.20914 -1.99594,-4.5 -6,-4.5c-4.00406,0 -13,4.29086 -13,6.5z" fill="none" stroke="#000000" stroke-width="2.5" stroke-linecap="butt"/><path d="M44.5054,136.88081c0,5.17767 6.95507,14.625 8.75,14.625c1.79493,0 -2.25,-9.44733 -2.25,-14.625c0,-2.18786 0.23133,-7.12924 -1.08054,-8.9305c-1.79273,-2.4615 -5.38299,-1.4445 -6.41946,-1.4445c-1.79493,0 1,5.19733 1,10.375z" fill="none" stroke="#000000" stroke-width="2.5" stroke-linecap="butt"/><path d="M67.0002,105.43549v-9" fill="none" stroke="#000000" stroke-width="2.5" stroke-linecap="round"/><path d="M61.5002,107.18549l-6.75,-5.75" fill="none" stroke="#000000" stroke-width="2.5" stroke-linecap="round"/><path d="M58.0002,110.68549l-7.5,-1.75" fill="none" stroke="#000000" stroke-width="2.5" stroke-linecap="round"/><path d="M78.5,89.5c16.98276,0 30.75,17.68475 30.75,39.5c0,21.81525 -13.76724,39.5 -30.75,39.5c-16.98276,0 -35.75,-24.18475 -35.75,-46c0,-21.81525 18.76724,-33 35.75,-33z" fill="none" stroke="#000000" stroke-width="2.5" stroke-linecap="butt"/><path d="M71.82055,165.43944c0,1.65686 4.19733,3 9.375,3c5.17767,0 9.375,-1.34314 9.375,-3c0,-1.65686 -4.44733,-1 -9.625,-1c-5.17767,0 -9.125,-0.65686 -9.125,1z" fill="#890062" stroke="#000000" stroke-width="2.5" stroke-linecap="butt"/></g></g></g></svg>