<svg version="1.1" xmlns="http://www.w3.org/2000/svg" xmlns:xlink="http://www.w3.org/1999/xlink" width="208.85387" height="343.38983" viewBox="0,0,208.85387,343.38983"><g transform="translate(-135.91164,-7.76556)"><g data-paper-data="{&quot;isPaintingLayer&quot;:true}" fill-rule="nonzero" stroke-linejoin="miter" stroke-miterlimit="10" stroke-dasharray="" stroke-dashoffset="0" style="mix-blend-mode: normal"><g><path d="M288.51333,211.84948l-16.59466,-73.51245l20.39924,-5.2978l16.59466,73.51245z" data-paper-data="{&quot;index&quot;:null}" fill="#1b1b1b" stroke="#000000" stroke-width="2.5" stroke-linecap="butt"/><g data-paper-data="{&quot;index&quot;:null}"><g stroke-linecap="butt"><path d="M310.31839,198.17497c-0.34419,7.54326 -7.92876,21.51739 -14.82024,21.20294c-6.89148,-0.31445 -21.76524,-67.97923 -21.42105,-75.52247c0.22105,-4.84457 -0.52616,-10.01423 3.05886,-12.28051c1.99704,-1.26243 7.57696,-0.9209 10.04247,-0.8084c3.57656,0.16319 -2.52208,26.25613 2.5568,42.77897c4.70733,15.3141 20.74873,21.00106 20.58317,24.62948z" fill="#840000" stroke="#000000" stroke-width="0"/><path d="M310.87612,195.28297c-0.54449,11.93295 -7.93232,21.28959 -15.11765,20.96174c-7.18533,-0.32786 -21.99494,-59.85217 -21.45046,-71.78514c0.35924,-7.87313 7.24287,26.72086 14.87522,47.72421c3.93571,10.83056 9.06986,14.22674 11.51447,14.33829c7.18533,0.32786 10.72289,-23.17206 10.1784,-11.2391z" fill="#430000" stroke="none" stroke-width="0"/><path d="M310.34507,197.591c-0.34419,7.54326 -7.92876,21.51739 -14.82024,21.20294c-6.89147,-0.31445 -21.76524,-67.97923 -21.42105,-75.52247c0.18641,-4.08546 -5.48596,-10.63212 -2.77448,-13.01656c2.29489,-2.0181 12.71678,-0.21648 15.8758,-0.07234c3.77939,0.17245 -2.15564,27.30954 3.0655,44.76509c4.29926,14.37347 20.2299,19.23695 20.07447,22.64336z" fill="none" stroke="#000000" stroke-width="3"/></g><path d="M290.3101,173.18601l-7.90589,4.84668" fill="none" stroke="#000000" stroke-width="3" stroke-linecap="round"/></g></g><path d="M200.88915,307.11255l19.9282,-68.46429l20.13656,5.86124l-19.9282,68.46429z" fill="#1b1b1b" stroke="#000000" stroke-width="2.5" stroke-linecap="butt"/><g data-paper-data="{&quot;index&quot;:null}"><g stroke-linecap="butt"><path d="M265.71204,213.38654c9.05289,1.87604 25.48505,76.70384 24.34319,85.64984c-1.14186,8.946 -18.69738,24.82654 -27.75028,22.9505c-9.05291,-1.87605 -16.19401,-86.85306 -15.05215,-95.79906c0.56671,-4.43994 -1.83583,-10.12532 1.4654,-12.44459c3.35038,-2.35381 12.43392,-1.30164 16.99382,-0.35668z" fill="#840000" stroke="#000000" stroke-width="0"/><path d="M276.61543,306.92453c9.43894,1.95605 16.24499,-25.37733 14.43863,-11.22532c-1.80635,14.15202 -19.50113,30.01898 -28.94006,28.06293c-9.43895,-1.95605 -16.41841,-82.64962 -14.61206,-96.80162c1.19179,-9.33722 7.10652,33.53171 15.24798,60.31071c4.19824,13.80884 10.65415,18.9878 13.86549,19.65329z" fill="#430000" stroke="none" stroke-width="0"/><path d="M265.80042,212.69395c9.05289,1.87604 25.48505,76.70384 24.34319,85.64984c-1.14186,8.946 -18.97066,26.19296 -28.02357,24.31691c-9.05291,-1.87605 -15.92072,-88.21947 -14.77887,-97.16547c0.60587,-4.74666 -2.49797,-11.53655 1.17213,-13.81702c3.2469,-2.01751 13.03758,0.13512 17.2871,1.01576z" fill="none" stroke="#000000" stroke-width="3"/></g><path d="M250.73519,270.51222l31.95867,-16.03198" fill="none" stroke="#000000" stroke-width="3" stroke-linecap="round"/></g><g><g stroke-linecap="butt"><path d="M226.15633,207.94013c4.55991,-0.94495 13.64345,-1.99711 16.99382,0.35668c3.30123,2.31927 0.89869,8.00464 1.46541,12.44459c0.60866,4.76861 -1.13616,31.14032 -4.26952,55.01356c-2.74487,20.91342 -6.55533,39.90948 -10.78264,40.7855c-3.22292,0.66789 1.51989,-29.85954 -0.81402,-48.72951c-0.15895,-1.28515 -3.11228,-3.97798 -3.48856,-5.04044c-2.2994,-6.49251 -5.37054,-7.53414 -7.01242,-9.01511c-5.22581,-4.71362 -15.89679,44.05331 -16.43527,39.83456c-1.14186,-8.946 15.2903,-83.7738 24.34319,-85.64984z" fill="#840000" stroke="#000000" stroke-width="0"/><path d="M232.03075,317.49326c3.21134,-0.66549 -7.11055,-21.85963 -2.91231,-35.66847c8.14146,-26.77899 14.0562,-69.64792 15.248,-60.31071c1.80635,14.15201 -5.17312,94.84558 -14.61206,96.80162c-9.43894,1.95605 3.75269,0.9603 1.94633,-13.19171c-1.80635,-14.15201 -9.1089,14.32529 0.33004,12.36926z" fill="#430000" stroke="none" stroke-width="0"/><path d="M226.06793,207.24757c4.24952,-0.88064 14.0402,-3.03327 17.2871,-1.01575c3.67009,2.28047 0.56627,9.07036 1.17213,13.81703c0.64454,5.04973 -1.26299,34.76009 -4.67502,60.01929c-2.63266,19.48952 -6.16101,36.32909 -10.10384,37.14618c-2.2808,0.47265 0.98236,-49.45796 -2.00534,-50.97439c-3.96987,-2.01495 -7.51957,-19.5704 -12.41339,-12.4089c-6.0418,8.84144 -13.13291,42.7637 -13.60483,39.06638c-1.14186,-8.946 15.2903,-83.7738 24.34319,-85.64984z" fill="none" stroke="#000000" stroke-width="3"/></g><path d="M241.13316,265.06583l-31.95867,-16.03198" fill="none" stroke="#000000" stroke-width="3" stroke-linecap="round"/></g><g><g stroke-linecap="butt"><path d="M215.03507,128.82423c3.79467,0.8737 11.11358,3.2647 13.01962,6.29509c1.8781,2.98593 -1.62241,6.59042 -2.46964,10.2701c-1.70707,7.41414 -36.4289,68.60533 -43.96255,66.87075c-7.53366,-1.73458 -11.87823,-17.52533 -10.17116,-24.93946c1.70707,-7.41414 36.05007,-60.23108 43.58372,-58.49651z" fill="#840000" stroke="#000000" stroke-width="0"/><path d="M179.54704,198.25931c2.67241,0.61531 9.15646,-1.15752 16.39444,-10.49176c14.03632,-18.10156 31.00929,-49.59915 29.22758,-41.8608c-2.70046,11.7287 -35.37168,66.18708 -43.2266,64.37853c-7.85491,-1.80855 -12.99717,-14.20435 -10.29671,-25.93304c2.70046,-11.7287 0.04637,12.09852 7.90128,13.90706z" fill="#430000" stroke="none" stroke-width="0"/><path d="M215.16722,128.25026c3.53638,0.81423 11.7198,2.59325 13.64327,5.3235c2.17417,3.0861 -2.18753,7.30781 -3.09328,11.24169c-1.70707,7.41414 -36.4289,68.60533 -43.96255,66.87075c-7.53366,-1.73458 -11.87823,-17.52533 -10.17116,-24.93946c1.70707,-7.41414 36.05007,-60.23108 43.58372,-58.49651z" fill="none" stroke="#000000" stroke-width="3"/></g><path d="M190.02966,155.01315l17.13751,21.04273" fill="none" stroke="#000000" stroke-width="3" stroke-linecap="round"/></g><g><path d="M160.78364,210.931c2.41251,-9.04128 11.04747,-14.58847 19.2867,-12.38996c8.23923,2.19849 12.96273,11.31015 10.55022,20.35144c-2.41251,9.04129 -11.04748,14.58847 -19.28671,12.38996c-8.23924,-2.19849 -12.96273,-11.31015 -10.55022,-20.35144z" fill="#840000" stroke="#000000" stroke-width="0" stroke-linecap="butt"/><path d="M160.41802,217.43826c1.3619,-5.10395 2.27017,-19.75898 9.56154,-17.8134c1.2233,0.32641 -3.09641,5.40366 -3.89824,11.57059c-0.76058,5.84965 1.98815,12.77157 3.25499,14.24593c5.35815,6.23581 18.40276,-4.39298 17.48607,-0.95757c-1.36191,5.10394 -8.37676,7.66432 -15.66812,5.71874c-7.29136,-1.94558 -12.09814,-7.66035 -10.73624,-12.76431z" fill="#430000" stroke="none" stroke-width="0" stroke-linecap="butt"/><path d="M179.81067,199.38437c8.23924,2.19849 12.96273,11.31015 10.55022,20.35144c-2.41251,9.04129 -11.04746,14.58847 -19.2867,12.38996c-8.23924,-2.19849 -12.96273,-11.31015 -10.55022,-20.35144c2.41251,-9.04129 11.04746,-14.58847 19.2867,-12.38996z" fill="none" stroke="#000000" stroke-width="3.5" stroke-linecap="butt"/><g><path d="M189.3774,236.26873c1.82884,-6.85387 -9.91825,-13.39456 -6.56422,-12.4996c1.5676,0.41828 7.09083,-6.41488 11.34767,-3.73684c4.85109,3.05188 8.33662,15.82686 7.36254,19.4774c-1.82884,6.85389 -6.03037,11.68453 -9.38441,10.78957c-3.35403,-0.89496 -4.59044,-7.17664 -2.7616,-14.03052z" fill="#840000" stroke="#000000" stroke-width="0" stroke-linecap="butt"/><path d="M184.20658,224.97541c-1.23789,-3.4231 2.75842,-4.40668 3.45409,-4.22105c1.89576,0.50585 11.14109,21.84708 10.38231,24.69071c-0.75878,2.84363 -2.9107,4.73877 -4.80645,4.23292c-1.89575,-0.50585 -3.36402,-2.94785 -2.60524,-5.79149c0.48033,-1.80012 -4.09897,-12.47974 -6.42471,-18.9111z" fill="#430000" stroke="none" stroke-width="0" stroke-linecap="butt"/><path d="M182.54426,223.58982c1.5676,0.41828 7.09083,-6.41488 11.34767,-3.73684c4.85109,3.05188 8.33662,15.82686 7.36254,19.4774c-1.82884,6.85387 -6.03039,11.68453 -9.38441,10.78957c-3.35402,-0.89496 -4.59043,-7.17665 -2.76159,-14.03052c1.82884,-6.85387 -9.91824,-13.39456 -6.56422,-12.4996z" fill="none" stroke="#000000" stroke-width="3.5" stroke-linecap="butt"/><path d="M190.1305,234.37924l9.98164,-2.42775" fill="none" stroke="#000000" stroke-width="3.5" stroke-linecap="round"/></g><g data-paper-data="{&quot;index&quot;:null}"><path d="M153.14782,231.49949c0.40831,7.08193 -2.07012,12.98494 -5.53576,13.18474c-3.46563,0.19981 -6.60606,-5.37923 -7.01437,-12.46116c-0.21747,-3.772 5.77399,-15.58094 11.14109,-17.59126c4.70964,-1.76405 8.74054,6.043 10.36029,5.94961c3.46563,-0.19981 -9.35958,3.83614 -8.95127,10.91804z" fill="#840000" stroke="#000000" stroke-width="0" stroke-linecap="butt"/><path d="M150.38266,238.7076c0.16941,2.93825 -1.76139,5.03377 -3.72022,5.14671c-1.95883,0.11294 -3.68411,-2.17742 -3.85351,-5.11567c-0.16941,-2.93825 13.19181,-21.9751 15.15065,-22.08804c0.71882,-0.04144 4.43447,1.72823 2.53136,4.83116c-3.57557,5.82982 -10.21552,15.36582 -10.10828,17.22583z" fill="#430000" stroke="none" stroke-width="0" stroke-linecap="butt"/><path d="M153.44737,231.37813c0.40832,7.08192 -2.07012,12.98494 -5.53575,13.18475c-3.46561,0.19981 -6.60606,-5.37924 -7.01437,-12.46116c-0.21747,-3.772 5.77399,-15.58094 11.14109,-17.59126c4.70964,-1.76405 8.74054,6.043 10.36029,5.94961c3.46561,-0.19981 -9.35958,3.83614 -8.95127,10.91804z" fill="none" stroke="#000000" stroke-width="3.5" stroke-linecap="butt"/><path d="M143.50496,225.10509l9.28649,4.39183" fill="none" stroke="#000000" stroke-width="3.5" stroke-linecap="round"/></g><g data-paper-data="{&quot;index&quot;:null}"><path d="M167.72062,237.8892c1.82884,6.85389 0.59244,13.13556 -2.7616,14.03052c-3.35403,0.89496 -7.55557,-3.93568 -9.38441,-10.78957c-0.97408,-3.65053 2.51145,-16.42551 7.36254,-19.4774c4.25684,-2.67803 9.78007,4.15512 11.34767,3.73684c3.35403,-0.89496 -8.39306,5.64572 -6.56422,12.4996z" fill="#840000" stroke="#000000" stroke-width="0" stroke-linecap="butt"/><path d="M166.46672,245.507c0.75878,2.84363 -0.70949,5.28563 -2.60524,5.7915c-1.89575,0.50585 -4.04767,-1.38929 -4.80645,-4.23292c-0.75878,-2.84363 8.48655,-24.18486 10.38231,-24.69071c0.69568,-0.18563 4.69199,0.79793 3.45409,4.22104c-2.32575,6.43136 -6.90504,17.11098 -6.42471,18.9111z" fill="#430000" stroke="none" stroke-width="0" stroke-linecap="butt"/><path d="M167.98953,237.70986c1.82884,6.85387 0.59244,13.13556 -2.76159,14.03052c-3.35402,0.89496 -7.55557,-3.93569 -9.38441,-10.78957c-0.97408,-3.65053 2.51145,-16.42551 7.36254,-19.4774c4.25684,-2.67803 9.78007,4.15512 11.34767,3.73684c3.35402,-0.89496 -8.39306,5.64572 -6.56422,12.4996z" fill="none" stroke="#000000" stroke-width="3.5" stroke-linecap="butt"/><path d="M166.96751,235.99973l-9.98164,-2.42775" fill="none" stroke="#000000" stroke-width="3.5" stroke-linecap="round"/></g><g data-paper-data="{&quot;index&quot;:null}"><path d="M179.81947,240.67397c4.27118,5.6637 5.48683,11.94942 2.71523,14.03957c-2.7716,2.09015 -8.48088,-0.80676 -12.75205,-6.47046c-2.27492,-3.01661 -3.84734,-16.16486 -0.49931,-20.8165c2.93791,-4.08182 10.62471,0.17389 11.9201,-0.803c2.7716,-2.09015 -5.65515,8.38671 -1.38397,14.05039z" fill="#840000" stroke="#000000" stroke-width="0" stroke-linecap="butt"/><path d="M181.52118,248.20442c1.77209,2.34983 1.32949,5.16467 -0.23706,6.34606c-1.56655,1.18139 -4.27305,0.23419 -6.04513,-2.11564c-1.77209,-2.34983 -1.22735,-25.60122 0.33921,-26.78261c0.57488,-0.43353 4.6478,-1.02438 4.78749,2.613c0.26248,6.83392 0.03369,18.45167 1.15547,19.93919z" fill="#430000" stroke="none" stroke-width="0" stroke-linecap="butt"/><path d="M180.00123,240.40673c4.27118,5.66368 5.48683,11.94942 2.71525,14.03956c-2.77159,2.09015 -8.48088,-0.80678 -12.75205,-6.47046c-2.27492,-3.01661 -3.84734,-16.16486 -0.49931,-20.8165c2.93791,-4.08182 10.62471,0.17389 11.9201,-0.803c2.77159,-2.09015 -5.65515,8.38671 -1.38397,14.05039z" fill="none" stroke="#000000" stroke-width="3.5" stroke-linecap="butt"/><path d="M168.24916,240.70876l10.16215,-1.50255" fill="none" stroke="#000000" stroke-width="3.5" stroke-linecap="round"/></g></g><g data-paper-data="{&quot;index&quot;:null}"><path d="M323.12338,218.0109c2.41251,9.04128 -2.31098,18.15294 -10.55022,20.35144c-8.23923,2.19851 -16.8742,-3.34867 -19.28671,-12.38996c-2.41251,-9.04128 2.31099,-18.15294 10.55022,-20.35144c8.23923,-2.19851 16.87419,3.34868 19.2867,12.38996z" fill="#840000" stroke="#000000" stroke-width="0" stroke-linecap="butt"/><path d="M323.48899,224.51817c1.36191,5.10395 -3.44487,10.81873 -10.73624,12.76431c-7.29136,1.94558 -14.30621,-0.6148 -15.66812,-5.71874c-0.91669,-3.43541 12.12792,7.19338 17.48607,0.95757c1.26685,-1.47436 4.01557,-8.39627 3.25499,-14.24593c-0.80183,-6.16694 -5.12154,-11.24418 -3.89824,-11.57059c7.29136,-1.94558 8.19964,12.70944 9.56154,17.8134z" fill="#430000" stroke="none" stroke-width="0" stroke-linecap="butt"/><path d="M323.38306,218.85429c2.41251,9.04128 -2.31098,18.15294 -10.55022,20.35144c-8.23924,2.19851 -16.87419,-3.34867 -19.2867,-12.38996c-2.41251,-9.04128 2.31098,-18.15294 10.55022,-20.35144c8.23924,-2.19851 16.87419,3.34867 19.2867,12.38996z" fill="none" stroke="#000000" stroke-width="3.5" stroke-linecap="butt"/><g><path d="M294.52962,243.34864c1.82884,6.85389 0.59244,13.13556 -2.7616,14.03052c-3.35403,0.89496 -7.55557,-3.93568 -9.38441,-10.78957c-0.97408,-3.65053 2.51145,-16.42551 7.36254,-19.4774c4.25684,-2.67803 9.78007,4.15512 11.34767,3.73684c3.35403,-0.89496 -8.39306,5.64572 -6.56422,12.4996z" fill="#840000" stroke="#000000" stroke-width="0" stroke-linecap="butt"/><path d="M293.27574,250.96645c0.75878,2.84363 -0.70949,5.28563 -2.60524,5.7915c-1.89575,0.50585 -4.04767,-1.38929 -4.80645,-4.23292c-0.75878,-2.84363 8.48655,-24.18486 10.38231,-24.69071c0.69568,-0.18563 4.69198,0.79793 3.45408,4.22104c-2.32575,6.43136 -6.90504,17.11098 -6.42471,18.9111z" fill="#430000" stroke="none" stroke-width="0" stroke-linecap="butt"/><path d="M294.79855,243.16931c1.82884,6.85387 0.59244,13.13556 -2.76159,14.03052c-3.35402,0.89496 -7.55557,-3.93569 -9.38441,-10.78957c-0.97408,-3.65053 2.51145,-16.42551 7.36254,-19.4774c4.25684,-2.67803 9.78007,4.15512 11.34767,3.73684c3.35402,-0.89496 -8.39306,5.64572 -6.56422,12.4996z" fill="none" stroke="#000000" stroke-width="3.5" stroke-linecap="butt"/><path d="M293.77652,241.45917l-9.98164,-2.42775" fill="none" stroke="#000000" stroke-width="3.5" stroke-linecap="round"/></g><g data-paper-data="{&quot;index&quot;:null}"><path d="M330.75918,238.57939c0.40832,-7.08192 -12.41689,-11.11786 -8.95127,-10.91804c1.61975,0.09339 5.65065,-7.71367 10.36029,-5.94962c5.36709,2.0103 11.35855,13.81926 11.14109,17.59124c-0.40832,7.08192 -3.54876,12.66097 -7.01437,12.46116c-3.46563,-0.19981 -5.94406,-6.10282 -5.53576,-13.18474z" fill="#840000" stroke="#000000" stroke-width="0" stroke-linecap="butt"/><path d="M323.41605,228.5617c-1.90312,-3.10293 1.81254,-4.8726 2.53136,-4.83116c1.95884,0.11294 15.32005,19.14979 15.15065,22.08804c-0.16941,2.93825 -1.89469,5.22861 -3.85351,5.11567c-1.95883,-0.11294 -3.88963,-2.20846 -3.72022,-5.1467c0.10724,-1.86001 -6.5327,-11.39602 -10.10828,-17.22583z" fill="#430000" stroke="none" stroke-width="0" stroke-linecap="butt"/><path d="M321.50837,227.53998c1.61976,0.09339 5.65065,-7.71367 10.3603,-5.94962c5.36709,2.0103 11.35855,13.81926 11.14109,17.59126c-0.40832,7.08192 -3.54876,12.66096 -7.01438,12.46115c-3.46561,-0.19981 -5.94405,-6.10283 -5.53573,-13.18474c0.40831,-7.08192 -12.41689,-11.11786 -8.95127,-10.91804z" fill="none" stroke="#000000" stroke-width="3.5" stroke-linecap="butt"/><path d="M340.40205,232.18502l-9.2865,4.39183" fill="none" stroke="#000000" stroke-width="3.5" stroke-linecap="round"/></g><g data-paper-data="{&quot;index&quot;:null}"><path d="M316.18641,244.96909c1.82884,-6.85387 -9.91825,-13.39456 -6.56422,-12.4996c1.5676,0.41828 7.09083,-6.41488 11.34767,-3.73684c4.85109,3.05188 8.33662,15.82686 7.36254,19.4774c-1.82884,6.85389 -6.03037,11.68453 -9.38441,10.78957c-3.35403,-0.89496 -4.59044,-7.17664 -2.7616,-14.03052z" fill="#840000" stroke="#000000" stroke-width="0" stroke-linecap="butt"/><path d="M311.01557,233.67582c-1.23789,-3.4231 2.75841,-4.40668 3.45408,-4.22105c1.89576,0.50585 11.14109,21.84708 10.38231,24.69071c-0.75878,2.84363 -2.9107,4.73877 -4.80645,4.23292c-1.89575,-0.50585 -3.36402,-2.94787 -2.60524,-5.7915c0.48033,-1.80012 -4.09896,-12.47974 -6.4247,-18.9111z" fill="#430000" stroke="none" stroke-width="0" stroke-linecap="butt"/><path d="M309.35328,232.29019c1.5676,0.41828 7.09083,-6.41488 11.34767,-3.73684c4.85109,3.05188 8.33662,15.82686 7.36254,19.4774c-1.82884,6.85387 -6.03039,11.68453 -9.38441,10.78957c-3.35402,-0.89496 -4.59043,-7.17665 -2.76159,-14.03052c1.82884,-6.85387 -9.91824,-13.39456 -6.56422,-12.4996z" fill="none" stroke="#000000" stroke-width="3.5" stroke-linecap="butt"/><path d="M326.92112,240.65187l-9.98164,2.42775" fill="none" stroke="#000000" stroke-width="3.5" stroke-linecap="round"/></g><g data-paper-data="{&quot;index&quot;:null}"><path d="M304.08756,247.75392c4.27118,-5.66368 -4.15558,-16.14054 -1.38397,-14.05039c1.29539,0.97688 8.9822,-3.27882 11.9201,0.80299c3.34804,4.65164 1.77561,17.79989 -0.49931,20.81649c-4.27118,5.6637 -9.98046,8.56061 -12.75207,6.47047c-2.77161,-2.09015 -1.55594,-8.37588 2.71523,-14.03957z" fill="#840000" stroke="#000000" stroke-width="0" stroke-linecap="butt"/><path d="M303.54132,235.34514c0.1397,-3.63738 4.21263,-3.04653 4.78751,-2.613c1.56656,1.18139 2.11129,24.43279 0.33921,26.78261c-1.77208,2.34983 -4.47858,3.29703 -6.04513,2.11564c-1.56655,-1.18139 -2.00915,-3.99623 -0.23706,-6.34606c1.12179,-1.48752 0.89301,-13.10526 1.15548,-19.93919z" fill="#430000" stroke="none" stroke-width="0" stroke-linecap="butt"/><path d="M302.52181,233.43627c1.29539,0.97688 8.98219,-3.27882 11.9201,0.80299c3.34803,4.65164 1.77561,17.79989 -0.49931,20.81649c-4.27118,5.66368 -9.98047,8.56061 -12.75207,6.47047c-2.77159,-2.09015 -1.55593,-8.37589 2.71525,-14.03957c4.27118,-5.66368 -4.15557,-16.14053 -1.38397,-14.05039z" fill="none" stroke="#000000" stroke-width="3.5" stroke-linecap="butt"/><path d="M305.4957,246.28612l10.16216,1.50257" fill="none" stroke="#000000" stroke-width="3.5" stroke-linecap="round"/></g></g><g stroke-linecap="butt"><path d="M230.11702,216.90488l6.50312,-56.05846l26.13537,3.03187l-6.50312,56.05846z" fill="#1b1b1b" stroke="#000000" stroke-width="2.5"/><g><path d="M203.49855,213.392l2.24095,-19.31744l63.63393,7.38192l-2.24095,19.31744z" fill="#1b1b1b" stroke="#000000" stroke-width="2.5"/><g><path d="M205.80386,198.25933c1.7968,-15.48885 8.33642,-52.03923 20.16302,-66.74548c8.40117,-10.44677 21.23488,-2.38716 29.01812,-1.48426c9.99045,1.15895 20.57496,-5.40026 23.81471,11.62255c2.83734,14.90841 3.71943,50.1579 2.28458,62.52658c-3.07317,26.49154 -18.48824,23.95916 -37.22824,21.78522c-13.02216,-1.51065 5.10919,-49.62709 -1.66798,-58.37352c-2.97575,-3.84041 -37.32187,38.75184 -36.38419,30.66892z" fill="#840000" stroke="#000000" stroke-width="0"/><path d="M244.05532,165.36862c0.39005,-3.36233 -3.62786,-3.95773 -10.22981,2.64044c-4.86234,4.85954 -20.30772,25.63314 -21.85588,24.78084c-5.86353,-3.22805 13.02382,-42.48813 19.04067,-50.9743c6.03031,-8.50515 14.48737,-6.96818 20.04927,-6.32297c6.5943,0.76498 14.41878,0.14766 18.59428,11.20106c5.04772,13.36232 5.66861,39.7023 4.10569,53.17506c-2.85578,24.61755 -18.47559,26.46161 -33.04169,24.77185c-2.71785,-0.31529 2.50892,-3.91043 1.56707,-4.14745c-4.10588,-1.03326 -0.80728,0.18622 1.51565,-19.83799z" fill="#7d3c3c" stroke="#000000" stroke-width="0"/><path d="M209.28764,195.44496c0.41403,-3.56905 4.51419,-19.20171 11.77416,-33.09492c4.19802,-8.03362 7.29409,-17.30701 12.24729,-22.37816c4.15333,-4.25223 10.23496,-5.02173 13.32323,-4.75496c0.44251,0.03822 11.34488,-4.23511 11.79171,-4.18327c13.71535,1.59106 15.17891,19.35347 14.29596,26.96473c-0.88296,7.61126 -16.89244,-8.73563 -30.60779,-10.3267c-9.55911,-1.10892 -13.50704,8.08166 -16.29214,12.66984c-1.21094,1.99491 -12.6887,25.79493 -12.42114,23.48845z" fill="#5c2c2c" stroke="none" stroke-width="0"/><path d="M207.3267,201.84648c0.77077,-6.64418 5.71112,-71.86137 25.81401,-69.5293c3.71524,0.43099 -5.36703,12.20144 -11.06759,27.71033c-2.75747,7.50193 -15.23974,32.85372 -11.13725,32.07511c2.94108,-0.55819 16.57137,-15.02208 21.39235,-20.1268c5.41027,-5.7287 9.12536,-13.25388 10.53449,-10.42542c3.42995,6.88473 -1.92018,32.56119 -0.82692,46.91765c0.32308,4.24256 3.31068,5.98863 4.63092,7.8508c9.26327,13.06557 32.39332,-0.14989 32.11356,2.26185c-0.77077,6.64418 -17.69222,10.13984 -37.79512,7.80778c-7.93897,-0.92097 -1.91787,-7.25077 -1.19681,-17.01636c0.92793,-12.56723 2.9769,-31.6543 3.20981,-39.904c0.04439,-1.57245 -2.01084,-2.98707 -1.93617,-3.63068z" fill="#430000" stroke="none" stroke-width="0"/><path d="M242.31267,209.61534c0.23925,-2.06237 3.12883,-4.27834 0.8487,-4.42448c-2.55221,-0.16358 -9.93992,1.92262 -1.9399,2.85067c15.14717,1.75716 30.95935,-5.81646 30.45232,-1.44564c-0.24499,2.11193 -2.42027,9.88126 -8.20865,13.78491c-6.19119,4.17531 -11.66236,4.54551 -19.49061,3.63739c-7.19492,-0.83465 -4.4634,-6.92914 -4.88064,-10.72201c-0.07176,-0.65229 4.47781,-0.13084 3.81648,-0.68752c-3.58883,-3.02091 -2.69688,0.92039 -2.47209,-1.01725z" fill="#5c2c2c" stroke="none" stroke-width="0"/><path d="M231.18146,141.59637c6.03029,-8.50515 14.48736,-6.96818 20.04925,-6.32297c6.59431,0.76498 14.41879,0.14766 18.59429,11.20106c5.04771,13.36232 5.6686,39.70231 4.10568,53.17508c-1.22263,10.53935 -4.78478,16.90456 -9.60215,20.60537c-6.43492,4.94344 -15.10954,5.13281 -23.43954,4.16648c-3.47543,-0.40317 -2.66774,-5.36784 -2.16152,-12.07281c1.12547,-14.90719 6.90814,-39.21738 4.34882,-46.79415c-0.68977,-2.04203 -15.7322,10.03085 -24.31694,20.81789c-5.28146,6.63634 -11.16562,12.95925 -10.91444,10.79397c1.76534,-15.21761 13.57401,-41.80087 23.33652,-55.56995z" fill="none" stroke="#000000" stroke-width="3"/><path d="M226.77815,131.47707c8.40118,-10.44678 21.23486,-2.38717 29.01812,-1.48427c9.99045,1.15895 20.57497,-5.40027 23.81471,11.62255c2.83734,14.90841 3.71941,50.15791 2.28456,62.52659c-1.24086,10.69648 -4.49381,16.66119 -9.16531,19.82827c-0.62792,0.42572 -1.2815,0.80088 -1.95923,1.13019c-6.76775,3.2884 -15.94742,2.00493 -26.10369,0.82674c-7.7265,-0.89632 2.61416,-49.34922 -0.66011,-61.69572c-2.10617,-7.94188 -18.06614,19.48084 -20.80318,16.30722c-3.32816,-3.85903 -17.57994,26.22713 -16.58887,17.6839c1.7968,-15.48884 8.33642,-52.03922 20.16302,-66.74547z" fill="none" stroke="#000000" stroke-width="3"/></g></g><g><path d="M280.26594,160.15171c-0.39631,3.41622 -2.77346,22.44411 -10.43948,21.5548c-7.66601,-0.88931 -17.7179,-21.35905 -17.32159,-24.77527c0.39631,-3.41622 14.56526,-18.43668 22.23127,-17.54737c7.66601,0.88931 5.92611,17.35161 5.5298,20.76783z" data-paper-data="{&quot;index&quot;:null}" fill="#410000" stroke="#000000" stroke-width="0"/><path d="M231.73658,134.58608c7.66601,0.88931 18.02004,18.75457 17.62373,22.17079c-0.39631,3.41622 -14.8674,21.04114 -22.53342,20.15184c-7.66601,-0.88931 -5.62396,-19.95607 -5.22767,-23.37229c0.39631,-3.41621 2.47133,-19.83964 10.13735,-18.95034z" fill="#410000" stroke="#000000" stroke-width="0"/><path d="M280.08555,160.32117c-0.39631,3.41622 -2.77346,22.44411 -10.43948,21.5548c-7.666,-0.8893 -17.7179,-21.35904 -17.32159,-24.77527c0.39631,-3.41622 14.56526,-18.43668 22.23127,-17.54737c7.66601,0.88931 5.92611,17.35161 5.5298,20.76783z" data-paper-data="{&quot;index&quot;:null}" fill="none" stroke="#000000" stroke-width="3.5"/><path d="M231.8734,134.79233c7.666,0.8893 18.02003,18.75457 17.62372,22.17079c-0.39631,3.41622 -14.8674,21.04114 -22.53341,20.15184c-7.66601,-0.88931 -5.62396,-19.95607 -5.22767,-23.37229c0.39631,-3.41621 2.47134,-19.83964 10.13735,-18.95034z" fill="none" stroke="#000000" stroke-width="3.5"/><path d="M229.22445,134.81497c1.00607,0.11671 -3.186,9.37799 -4.12065,14.72935c-1.62368,9.29657 -0.81344,17.25385 0.99557,20.15194c4.22007,6.7607 19.55663,-10.83809 19.23917,-8.10149c-0.53188,4.58492 -11.25522,15.02635 -18.08631,14.2339c-6.8311,-0.79245 -7.18315,-12.51869 -6.65128,-17.10362c0.53188,-4.58493 1.7924,-24.70253 8.62349,-23.91009z" fill="#170000" stroke="none" stroke-width="0"/><path d="M280.0499,165.4311c-0.53188,4.58493 -3.55908,15.91915 -10.39017,15.1267c-6.83109,-0.79245 -14.87928,-13.41147 -14.3474,-17.99641c0.31746,-2.73659 11.2178,17.90584 16.87354,12.29079c2.42441,-2.40698 5.03482,-9.96745 5.58254,-19.38884c0.31527,-5.42322 -1.64526,-15.39823 -0.63921,-15.28153c6.83109,0.79245 3.45258,20.66436 2.9207,25.24928z" data-paper-data="{&quot;index&quot;:null}" fill="#170000" stroke="none" stroke-width="0"/><g><path d="M253.02721,147.28404c4.93356,0.57232 8.36657,5.91915 7.66782,11.9425c-0.69875,6.02334 -5.26463,10.44226 -10.1982,9.86993c-4.93356,-0.57232 -8.36657,-5.91915 -7.66782,-11.9425c0.69875,-6.02333 5.26464,-10.44225 10.1982,-9.86993z" fill="#410000" stroke="#000000" stroke-width="0"/><path d="M252.88915,147.45843c4.93356,0.57232 8.36657,5.91915 7.66782,11.9425c-0.69875,6.02334 -5.26464,10.44225 -10.1982,9.86993c-4.93356,-0.57232 -8.36657,-5.91915 -7.66782,-11.9425c0.69875,-6.02334 5.26464,-10.44225 10.1982,-9.86993z" fill="none" stroke="#000000" stroke-width="3.5"/><path d="M242.79763,159.48534c0.52145,-4.49505 2.15025,-12.94815 7.00791,-12.38463c1.52258,0.17663 -3.52191,8.66827 -3.68739,12.73854c-0.12204,3.00187 4.09525,5.49651 5.00867,6.90571c1.79948,2.77618 9.49944,-7.26596 9.26197,-5.21893c-0.52145,4.49504 -4.88208,7.68214 -9.73975,7.11862c-4.85767,-0.56352 -8.37287,-4.66428 -7.85142,-9.1593z" fill="#170000" stroke="none" stroke-width="0"/></g></g></g><g><path d="M253.77953,104.69148c14.36023,-3.10576 27.41572,0.91545 29.16021,8.98159c1.7445,8.06615 -8.48257,17.12276 -22.84281,20.22851c-14.36023,3.10576 -27.41572,-0.91545 -29.16021,-8.98159c-1.7445,-8.06615 8.48257,-17.12276 22.84281,-20.22851z" fill="#000000" stroke="#000000" stroke-width="2.5" stroke-linecap="butt"/><path d="M228.97168,124.21769c3.88806,-2.43935 20.78961,1.06244 30.15507,-0.60023c10.46424,-1.85775 13.52011,-8.79806 19.06261,-9.99675c13.38466,-2.89476 4.04772,3.0546 5.04935,7.68587c1.00162,4.63127 -9.0368,10.73235 -22.42144,13.62709c-2.25033,0.48668 -4.45197,0.85176 -6.56243,1.10035c-10.4424,1.22994 -18.65301,-0.39196 -19.48623,-4.2446c-0.21565,-0.99709 -8.05552,-6.15465 -5.79689,-7.57172z" fill="#ffffff" stroke="#000000" stroke-width="0" stroke-linecap="butt"/><path d="M245.21394,130.0232c8.9734,0.24215 19.47961,-1.9796 25.36272,-4.64241c7.82033,-3.53964 7.2954,-8.49037 12.05023,-9.51872c11.52011,-2.49151 -0.89397,8.45134 -0.31803,11.11432c0.57593,2.66299 -8.29607,6.84153 -19.81617,9.33303c-5.56537,1.20365 -13.62231,1.34537 -19.9745,-0.61119c-6.7966,-2.09346 -11.7193,-6.38156 -12.017,-7.75807c-0.1594,-0.73701 6.71435,1.86719 14.71275,2.08302z" fill="#e2e2e2" stroke="none" stroke-width="0" stroke-linecap="butt"/><path d="M230.01709,124.57678c3.88806,-2.43935 20.78961,1.06244 30.15507,-0.60023c10.46424,-1.85775 13.52011,-8.79806 19.06261,-9.99675c13.38466,-2.89476 4.04772,3.0546 5.04935,7.68587c1.00162,4.63127 -9.0368,10.73235 -22.42144,13.62709c-2.25033,0.48668 -4.45197,0.85176 -6.56243,1.10035c-10.4424,1.22994 -18.65301,-0.39196 -19.48623,-4.2446c-0.21565,-0.99709 -8.05552,-6.15465 -5.79689,-7.57172z" fill="none" stroke="#000000" stroke-width="2" stroke-linecap="butt"/><path d="M226.03909,126.31739c-0.81872,-3.78553 0.80761,-7.34958 3.63251,-7.96054c0.70793,-0.1531 -1.16628,3.07697 0.18963,4.74521c1.0446,1.28523 0.60429,3.18258 1.67209,4.77154c1.28367,1.9102 4.13624,3.53933 6.24836,5.31269c2.95042,2.47721 12.43116,2.03922 12.6966,3.26658c0.17015,0.78672 26.60012,-9.04008 26.30579,-7.18409c-0.0258,0.16269 4.62775,-4.47704 5.92085,-9.59592c0.80522,-3.18751 -1.83313,-7.75416 -1.17548,-7.81654c1.17115,-0.11107 2.07749,-8.34473 3.93456,-9.5854c1.21807,-0.81378 3.63159,4.46065 4.04418,6.22813c0.41587,1.7816 -4.12887,11.39724 -4.29091,14.44959c-0.22316,4.20357 1.76918,6.45068 0.89483,6.93033c-7.71431,4.23197 -35.81252,14.07006 -37.31947,13.66188c-4.96919,-1.34599 -14.64452,-11.80234 -16.15621,-11.4754c-2.82491,0.61095 -5.77862,-1.96255 -6.59734,-5.74808z" fill="#840000" stroke="#000000" stroke-width="0" stroke-linecap="butt"/><path d="M224.26254,119.21036c-0.1651,-0.76341 6.86524,9.25152 14.36867,13.51375c6.15239,3.49477 13.938,6.6155 16.54028,6.0527c5.77601,-1.2492 30.55547,-11.13501 30.85596,-9.74562c0.30049,1.38939 -23.31981,11.04171 -29.0958,12.29091c-1.54869,0.33495 -4.09271,1.95636 -8.81667,0.26605c-3.83208,-1.37118 -7.79392,-4.96266 -11.93498,-7.72845c-2.20635,-1.4736 -5.14343,-2.25146 -6.63283,-3.35622c-5.12149,-3.79888 -6.88596,-10.36721 -7.0057,-10.92088z" fill="#430000" stroke="none" stroke-width="0" stroke-linecap="butt"/><path d="M226.10275,125.74412c-0.33329,-1.54107 -6.04623,-7.01972 -5.65321,-8.3031c0.57243,-1.86914 7.60223,0.97356 9.27711,0.61133c0.70793,-0.1531 -1.16628,3.07697 0.18963,4.74521c1.07078,1.31741 0.05399,3.54646 1.48844,5.53228c1.64727,2.28045 5.80044,4.34401 7.86858,6.08045c2.95043,2.47721 8.38771,1.24173 8.65317,2.46909c0.08929,0.41285 8.12821,-2.29847 15.70605,-4.70046c6.86229,-2.17517 13.34647,-4.09664 13.20661,-3.21465c-0.0258,0.1627 4.62775,-4.47704 5.92084,-9.59591c0.80523,-3.1875 -1.83313,-7.75415 -1.17548,-7.81653c1.03356,-0.09802 1.15203,-9.01785 3.10574,-10.5546c1.71207,-1.34666 5.30824,4.49148 5.79472,6.57548c0.41587,1.7816 -5.05059,12.01907 -5.21264,15.07143c-0.22316,4.20357 1.76918,6.45068 0.89483,6.93033c-7.71432,4.23196 -35.81252,14.07006 -37.31947,13.66187c-4.96918,-1.346 -14.64451,-11.80234 -16.15621,-11.4754c-2.82491,0.61095 -5.77862,-1.96255 -6.59734,-5.74808z" fill="none" stroke="#000000" stroke-width="2.5" stroke-linecap="butt"/><path d="M239.09468,123.3352l2.41425,10.75614" fill="none" stroke="#000000" stroke-width="2" stroke-linecap="round"/><path d="M257.39875,133.52757l-1.93064,-8.51997" fill="none" stroke="#000000" stroke-width="2" stroke-linecap="round"/><path d="M269.59803,120.78127l2.05864,8.70508" fill="none" stroke="#000000" stroke-width="2" stroke-linecap="round"/><path d="M280.19043,123.38476l-2.5991,-7.94978" fill="none" stroke="#000000" stroke-width="2" stroke-linecap="round"/><path d="M210.00371,47.90012c5.77704,-1.24942 6.66919,5.02825 10.81465,8.13374c3.03676,2.27493 10.03629,0.56036 10.8674,4.40318c1.96564,9.08865 -4.5548,18.21129 -14.56383,20.37598c-10.00901,2.1647 -19.71639,-3.44828 -21.68203,-12.53693c-1.96564,-9.08866 4.55478,-18.21129 14.56382,-20.37597z" fill="#840000" stroke="#000000" stroke-width="0" stroke-linecap="butt"/><path d="M200.44636,63.06673c-0.30972,7.90375 5.79501,15.17185 10.17623,14.22429c8.90883,-1.92676 19.97611,-19.03343 21.52693,-11.8629c1.5508,7.17053 -4.41407,14.54533 -13.32289,16.47208c-6.03106,1.30435 -17.36774,-1.74314 -22.36953,-8.9376c-1.33974,-1.92703 -1.31828,-12.74489 2.42893,-18.34717c2.92821,-4.37783 9.71111,-3.82783 9.49137,-4.84386c-0.78814,-3.64416 -7.61096,5.12734 -7.93103,13.29516z" fill="#430000" stroke="none" stroke-width="0" stroke-linecap="butt"/><path d="M210.18538,48.18647c5.6847,-1.22946 6.48769,4.98602 10.61469,7.98618c3.13939,2.2822 10.21812,0.62407 11.06735,4.55075c1.96564,9.08866 -4.5548,18.21129 -14.56383,20.37598c-10.00902,2.16469 -19.7164,-3.44828 -21.68204,-12.53693c-1.96564,-9.08866 4.5548,-18.21129 14.56383,-20.37598z" fill="none" stroke="#000000" stroke-width="3" stroke-linecap="butt"/><path d="M225.75505,123.24841l-1.36021,-6.28926c0,0 36.54677,-18.93922 46.97955,-21.19556c9.51507,-2.05787 13.11781,8.19804 13.11781,8.19804l1.36021,6.28926c0,0 -19.7747,7.28633 -29.86249,9.46806c-9.94257,2.15032 -30.23486,3.52945 -30.23486,3.52945z" fill="#ffffff" stroke="#000000" stroke-width="0" stroke-linecap="butt"/><path d="M252.49718,98.15792c17.55475,-3.79665 32.65955,-2.83398 33.7375,2.15015c0.27544,1.27355 -0.92046,2.05387 -1.42041,3.41028c-0.30473,0.82676 0.78323,2.25275 -0.67169,3.01671c-2.37383,1.24647 -4.6931,-5.23533 -8.93414,-4.13054c-5.58491,1.45487 -13.50763,10.44991 -19.38197,11.72039c-6.88242,1.48849 -20.48327,6.42909 -25.80755,6.85074c-8.25624,0.65383 -6.70034,-4.0886 -7.35567,-7.11869c-1.07795,-4.98413 12.27914,-12.10238 29.83392,-15.89902z" fill="#e2e2e2" stroke="none" stroke-width="0" stroke-linecap="butt"/><path d="M225.75503,123.2484l-1.36021,-6.28926c0,0 37.05436,-18.0458 48.1452,-20.44447c7.07626,-1.53042 11.95216,7.44695 11.95216,7.44695l1.36021,6.28926c0,0 -20.15784,7.7036 -30.11283,9.85661c-10.07599,2.17919 -29.98451,3.14091 -29.98451,3.14091z" fill="none" stroke="#000000" stroke-width="2" stroke-linecap="butt"/><path d="M243.21648,52.52515c20.06889,-4.34039 39.63999,7.40891 43.71327,26.24279c2.07003,9.57132 5.99746,18.65287 0.02302,24.12403c-2.71728,2.48838 -7.88109,-4.925 -13.29532,-3.58227c-6.10592,1.51425 -12.61262,11.68284 -17.84389,12.81423c-9.28338,2.00776 -26.37734,8.3222 -33.46768,6.31468c-8.23761,-2.33236 -5.90292,-13.83095 -8.09201,-23.95273c-4.07329,-18.83387 8.89371,-37.62034 28.96259,-41.96072z" fill="#840000" stroke="#000000" stroke-width="0" stroke-linecap="butt"/><path d="M258.25759,74.49563c10.3432,-2.23697 10.37108,6.78657 11.3727,11.41784c1.00162,4.63127 -6.57121,10.1991 -16.91441,12.43606c-10.3432,2.23697 -34.91703,12.39957 -35.91866,7.76828c-0.31561,-1.45933 -6.08791,-17.7979 -2.36155,-31.17151c1.72256,-6.18216 12.16959,-13.7538 14.1082,-15.29824c2.92803,-2.33268 -11.8687,16.77517 -12.03381,29.96326c-0.09193,7.34203 13.65653,10.1301 15.20475,12.88422c1.90027,3.38044 4.87704,-11.03993 9.43086,-17.9076c1.40599,-2.12039 -0.54533,-6.69152 -0.06525,-6.79535c0,0 6.08005,3.24731 8.87511,2.71082c2.92477,-0.56138 8.30204,-6.0078 8.30204,-6.0078z" fill="#430000" stroke="none" stroke-width="0" stroke-linecap="butt"/><path d="M243.15602,52.24563c20.06889,-4.34039 39.63999,7.40891 43.71327,26.24279c2.07003,9.57132 5.99746,18.65287 0.02302,24.12403c-2.39552,2.19372 -7.05785,-5.9468 -11.69583,-4.68001c-6.556,1.79067 -13.66284,12.66178 -19.44338,13.91197c-9.28338,2.00776 -26.37734,8.3222 -33.46768,6.31468c-8.23761,-2.33236 -5.90292,-13.83095 -8.09201,-23.95273c-4.07329,-18.83387 8.89371,-37.62034 28.96259,-41.96072z" fill="none" stroke="#000000" stroke-width="3" stroke-linecap="butt"/><path d="M220.115,79.24793c2.05576,-0.4446 11.83775,7.14722 15.41284,5.03069c3.56861,-2.11269 3.28714,-9.52848 5.90071,-9.36202c4.69751,0.2992 5.22192,8.9169 5.76686,11.43657c1.15188,5.32598 6.41036,10.17119 -1.38564,11.85726c-7.796,1.68608 -24.77968,7.86204 -25.93155,2.53606c-1.15188,-5.32598 -7.55922,-19.8125 0.23678,-21.49858z" fill="#000000" stroke="#000000" stroke-width="3" stroke-linecap="butt"/><path d="M283.74177,87.81225c1.15188,5.32598 -16.86603,6.71996 -24.66204,8.40604c-7.796,1.68608 -5.0096,-4.89904 -6.16147,-10.22502c-0.77803,-3.59746 -1.2535,-7.6511 5.5907,-9.91322c3.2885,-1.08691 11.79181,-6.10598 14.32196,-6.6532c7.796,-1.68608 9.75898,13.05942 10.91084,18.3854z" data-paper-data="{&quot;index&quot;:null}" fill="#000000" stroke="#000000" stroke-width="3" stroke-linecap="butt"/><path d="M220.35803,104.40669c5.63958,-3.14021 19.80913,-4.80616 30.37848,-7.09205c11.34218,-2.45302 24.39075,-6.77909 30.77407,-5.99422c3.86878,0.47568 4.15405,7.85139 4.50683,9.48256c0.53044,2.45261 -4.19158,-4.87412 -11.49055,-2.60839c-5.5649,1.72745 -12.52455,13.06899 -20.40495,14.77333c-8.07816,1.7471 -21.75382,5.44645 -27.7358,5.54273c-7.50751,0.12082 -6.42027,-3.83014 -6.94055,-6.23584c-0.39243,-1.81455 -3.1678,-5.59613 0.91249,-7.86811z" fill="#7d3c3c" stroke="#000000" stroke-width="0" stroke-linecap="butt"/><path d="M230.6547,100.93761c3.05115,-0.65989 -3.50483,1.77117 -6.39613,5.03509c-2.84915,3.21635 -2.04192,7.26267 1.90458,7.1108c10.74877,-0.41363 36.53508,-13.84244 50.7093,-17.38154c7.67232,-1.91567 9.21711,4.50231 9.33991,5.07012c0.26276,1.21492 -5.06163,-4.50958 -11.1798,-2.36283c-5.93175,2.08133 -12.51015,12.02161 -21.7054,14.01031c-18.6795,4.0399 -34.24175,5.37512 -34.75926,2.98228c-0.5175,-2.39284 -6.5927,-10.42435 12.0868,-14.46425z" fill="#5c2c2c" stroke="none" stroke-width="0" stroke-linecap="butt"/><path d="M220.79617,103.72674c5.63958,-3.14021 19.80913,-4.80616 30.37848,-7.09205c11.34218,-2.45302 24.39075,-6.77909 30.77407,-5.99422c3.86878,0.47568 4.15405,7.85139 4.50683,9.48256c0.56155,2.59647 -3.86609,-4.45599 -11.93592,-2.06348c-5.36461,1.59048 -12.68545,12.65522 -19.95957,14.22842c-8.07816,1.7471 -21.75382,5.44645 -27.7358,5.54273c-7.50751,0.12082 -6.42027,-3.83014 -6.94055,-6.23584c-0.39243,-1.81455 -3.1678,-5.59613 0.91249,-7.86811z" fill="none" stroke="#000000" stroke-width="3" stroke-linecap="butt"/><path d="M240.49484,89.34106c0.55905,-0.1209 0.67996,0.43814 0.67996,0.43814c0.20151,0.93175 0.52393,2.42252 0.72544,3.35427c0,0 0.1209,0.55905 -0.43814,0.67996c-0.55905,0.1209 -0.67996,-0.43814 -0.67996,-0.43814c-0.20151,-0.93175 -0.40302,-1.86348 -0.60454,-2.79523l-0.1209,-0.55905c0,0 -0.1209,-0.55905 0.43814,-0.67996z" fill="#ffffff" stroke="none" stroke-width="0.5" stroke-linecap="butt"/><path d="M259.54009,84.05167c0.55905,-0.1209 0.67996,0.43814 0.67996,0.43814l0.06046,0.27953c0.34361,1.58879 0.39552,3.29497 0.74819,4.81233c0,0 0.1209,0.55905 -0.43814,0.67996c-0.55905,0.1209 -0.67996,-0.43814 -0.67996,-0.43814c-0.31955,-1.56138 -0.39884,-3.197 -0.74819,-4.81233l-0.06046,-0.27953c0,0 -0.1209,-0.55905 0.43814,-0.67996z" fill="#ffffff" stroke="none" stroke-width="0.5" stroke-linecap="butt"/><path d="M298.43429,48.74925c-0.24886,0.05383 -0.36977,-0.50523 -0.36977,-0.50523l-0.1209,-0.55905c-0.10045,-0.62985 -1.13788,-1.39156 -1.50558,-1.89396c-0.0908,-0.12407 -0.13915,-0.25734 -0.1636,-0.37841c-0.02778,-0.12038 -0.0388,-0.26169 -0.00738,-0.41219c0.00822,-0.03938 0.01787,-0.07223 0.02858,-0.09943c-0.08086,0.04224 -0.20893,0.03199 -0.27792,-0.40439c-0.11524,-0.72904 0.1641,-0.7952 0.21503,-1.26518c0.08273,-0.76351 -0.60394,-2.0029 -0.33924,-3.27067c0,0 0.09048,-0.43335 0.35195,-0.07611c0.26147,0.35724 0.171,0.79061 0.171,0.79061c-0.2654,1.27118 0.25969,3.41395 0.39603,4.49293c0.61262,0.71708 1.31047,1.09373 1.62888,2.40917l0.1209,0.55905c0,0 0.1209,0.55905 -0.12795,0.61287z" fill="#ffffff" stroke="none" stroke-width="0.5" stroke-linecap="butt"/><path d="M252.02461,95.14705c5.8277,-1.26039 10.95796,-0.40493 11.45878,1.91072c0.50082,2.31564 -3.81748,5.21457 -9.64516,6.47496c-5.8277,1.26039 -10.95796,0.40493 -11.45878,-1.91072c-0.50082,-2.31564 3.81748,-5.21457 9.64516,-6.47496z" fill="#000000" stroke="#000000" stroke-width="3" stroke-linecap="butt"/><path d="M248.62101,48.20946c0.46066,-1.83008 3.6531,-6.47391 4.21861,-12.44454c1.01276,-10.69276 -0.25994,-24.55364 2.91999,-26.39709c3.01803,-1.74959 5.76152,3.99862 10.81882,6.23145c6.17951,2.72829 14.68517,2.32745 17.30996,2.98814c1.64714,0.41461 10.67889,-4.54044 11.30456,-2.89519c1.24487,3.27347 -4.45482,10.67817 -7.52924,17.86262c-3.1668,7.40028 -3.74772,14.60529 -4.97817,19.49349c-3.02541,12.01899 -11.01804,9.57545 -19.31815,7.48616c-8.30011,-2.0893 -17.7718,-0.30605 -14.74639,-12.32504z" fill="#410000" stroke="#000000" stroke-width="0" stroke-linecap="butt"/><path d="M253.11349,37.82234c0.9361,-3.71888 -3.46513,-31.27751 5.05057,-29.13393c5.22104,1.31424 -3.59495,19.41518 2.26689,29.49575c3.69902,6.36117 23.88277,5.96191 23.52059,7.40071c-0.93611,3.71888 -8.59832,4.99593 -17.11401,2.85238c-8.5157,-2.14356 -14.66016,-6.89601 -13.72405,-10.61489z" fill="#170000" stroke="none" stroke-width="0" stroke-linecap="butt"/><path d="M248.5599,48.1072c0.46065,-1.83008 3.6531,-6.4739 4.2186,-12.44455c1.01276,-10.69276 -0.25994,-24.55364 2.91999,-26.39709c2.97738,-1.72604 5.40729,4.30015 10.39548,6.48165c6.24634,2.73175 15.07959,2.06995 17.73331,2.73795c1.64714,0.41461 10.67888,-4.54044 11.30455,-2.89519c1.24488,3.27347 -4.45481,10.67816 -7.52924,17.86262c-3.16679,7.40029 -3.74772,14.60529 -4.97817,19.49349c-3.02541,12.01899 -11.01804,9.57545 -19.31815,7.48616c-8.30011,-2.08931 -17.7718,-0.30605 -14.74639,-12.32504z" fill="none" stroke="#000000" stroke-width="3" stroke-linecap="butt"/><path d="M288.5044,60.30122c-0.78691,3.12616 1.1374,8.46179 -5.5853,8.49431c-4.00713,0.01938 -15.45287,-4.1832 -20.32872,-5.41055c-5.56299,-1.4003 -16.21617,-3.58188 -19.94471,-5.82716c-5.02211,-3.02424 -2.14188,-6.29425 -1.42107,-9.1578c0.65371,-2.59696 2.23162,-6.93069 7.23705,-7.42317c4.61153,-0.4537 12.41635,2.7635 18.67694,4.33942c5.69543,1.43364 17.65715,2.70132 21.41561,5.01072c4.85727,2.98457 0.65824,7.1613 -0.04983,9.97423z" data-paper-data="{&quot;index&quot;:null}" fill="#410000" stroke="#000000" stroke-width="0" stroke-linecap="butt"/><path d="M250.66262,41.77157c3.23808,-0.38918 23.43692,4.12115 32.23678,7.18016c7.15209,2.48622 6.35355,3.5003 8.23265,3.97331c0.83017,0.20896 2.22521,6.08892 -1.00422,5.24273c-4.29198,-1.12459 -3.35934,-4.83434 -10.20534,-7.51528c-7.50203,-2.93785 -25.69395,-5.52172 -29.42427,-4.85468c-2.36979,0.42376 -4.00845,1.75837 -5.0367,3.25045c-1.33254,1.93363 -1.63991,4.13171 -1.1848,4.95457c2.41436,4.36528 43.11309,10.90315 42.63486,12.80302c-0.92255,3.66498 -19.53567,-0.97414 -29.72216,-3.53828c-10.18649,-2.56414 -17.69641,-7.61383 -16.77386,-11.27881c0.54298,-2.15707 1.85032,-9.20799 10.24707,-10.21719z" fill="#170000" stroke="none" stroke-width="0" stroke-linecap="butt"/><path d="M288.63541,60.52037c-0.78691,3.12616 1.13741,8.46178 -5.5853,8.49431c-4.00714,0.01939 -15.45287,-4.1832 -20.32873,-5.41054c-5.56299,-1.4003 -16.21615,-3.58188 -19.94471,-5.82716c-5.02211,-3.02424 -2.14188,-6.29425 -1.42107,-9.1578c0.6537,-2.59695 2.23163,-6.9307 7.23705,-7.42317c4.61153,-0.45371 12.41635,2.7635 18.67694,4.33942c5.69543,1.43364 17.65715,2.70132 21.41561,5.01072c4.85727,2.98457 0.65824,7.1613 -0.04983,9.97423z" data-paper-data="{&quot;index&quot;:null}" fill="none" stroke="#000000" stroke-width="3" stroke-linecap="butt"/><path d="M238.26506,116.61819l1.10544,5.11128" fill="none" stroke="#000000" stroke-width="2" stroke-linecap="round"/><path d="M254.32841,112.80972l1.3818,6.38909" fill="none" stroke="#000000" stroke-width="2" stroke-linecap="round"/><path d="M269.00998,102.61214l3.24278,12.67455" fill="none" stroke="#000000" stroke-width="2" stroke-linecap="round"/><path d="M229.02421,82.27546l1.86568,-6.25545l-11.21143,-3.1346l3.86783,-3.76248l-1.06542,-3.57333" fill="none" stroke="#000000" stroke-width="3" stroke-linecap="round"/><path d="M254.18064,105.66452l1.07827,4.26801" fill="none" stroke="#000000" stroke-width="3" stroke-linecap="round"/></g><g stroke-linecap="butt"><path d="M157.3558,322.10148c0,-11.07416 16.63961,-20.05155 37.16561,-20.05155c20.526,0 37.1656,8.97737 37.1656,20.05155c0,5.5238 -0.30845,12.05852 -7.0057,15.68505c-6.72944,3.64397 -19.8723,4.3665 -30.15991,4.3665c-11.02302,0 -28.58824,-0.03474 -35.39441,-4.14721c-5.86761,-3.54537 -1.7712,-10.7773 -1.7712,-15.90434z" fill="#840000" stroke="#000000" stroke-width="0"/><path d="M156.60745,332.71996c0,-1.92539 7.37565,2.6143 21.70599,3.6569c15.36834,1.11811 38.04516,-1.28736 46.97351,-4.67121c4.00164,-1.51662 2.89534,-8.45008 -1.53588,-14.20528c-4.83274,-6.27671 -13.08795,-11.34552 -9.54331,-11.34552c20.80814,0 17.75264,20.64007 17.75264,26.5651c0,5.92503 -16.86833,10.72822 -37.67647,10.72822c-20.80814,0 -37.67648,-4.80319 -37.67648,-10.72822z" fill="#430000" stroke="none" stroke-width="0"/><path d="M137.30949,326.82314c0,-11.07417 7.47174,-20.05155 16.68857,-20.05155c9.21684,0 16.68857,8.97737 16.68857,20.05155c0,5.5238 -0.13851,12.05852 -3.14578,15.68505c-3.02174,3.64397 -8.92332,4.3665 -13.54279,4.3665c-4.94969,0 -12.83705,-0.03474 -15.89325,-4.14721c-2.63476,-3.54537 -0.79534,-10.77732 -0.79534,-15.90434z" fill="#840000" stroke="#000000" stroke-width="0"/><path d="M195.30567,302.57877c20.526,0 37.16561,8.97738 37.16561,20.05155c0,5.5238 -0.30846,12.05852 -7.0057,15.68505c-6.72944,3.64397 -19.8723,4.3665 -30.15991,4.3665c-11.02302,0 -28.58823,-0.03473 -35.39441,-4.1472c-5.86761,-3.54537 -1.7712,-10.77733 -1.7712,-15.90435c0,-11.07417 16.63961,-20.05155 37.16561,-20.05155z" fill="none" stroke="#000000" stroke-width="3.5"/><path d="M136.97347,337.44159c0,-1.92539 3.31191,2.61429 9.74671,3.65689c6.90089,1.11811 17.08352,-1.28734 21.09264,-4.67119c1.79687,-1.51662 1.3001,-8.45008 -0.68966,-14.20528c-2.17006,-6.27671 -5.87691,-11.34552 -4.28526,-11.34552c9.34354,0 7.97152,20.64009 7.97152,26.56511c0,5.92504 -7.57443,10.72822 -16.91797,10.72822c-9.34354,0 -16.91797,-4.80319 -16.91797,-10.72822z" fill="#430000" stroke="none" stroke-width="0"/><path d="M137.66164,327.35195c0,-11.07417 7.47173,-20.05155 16.68857,-20.05155c9.21684,0 16.68857,8.97739 16.68857,20.05155c0,5.5238 -0.13851,12.05852 -3.14578,15.68505c-3.02174,3.64398 -8.92331,4.36649 -13.54278,4.36649c-4.94969,0 -12.83705,-0.03473 -15.89325,-4.1472c-2.63476,-3.54537 -0.79532,-10.77732 -0.79532,-15.90434z" fill="none" stroke="#000000" stroke-width="3.5"/><path d="M184.42107,326.14689c0,-11.07417 7.47174,-20.05155 16.68857,-20.05155c9.21684,0 16.68857,8.97737 16.68857,20.05155c0,5.5238 -0.13851,12.05852 -3.14578,15.68505c-3.02174,3.64397 -8.92332,4.3665 -13.54279,4.3665c-4.94969,0 -12.83705,-0.03474 -15.89325,-4.14721c-2.63476,-3.54537 -0.79534,-10.77732 -0.79534,-15.90434z" fill="#840000" stroke="#000000" stroke-width="0"/><path d="M184.08505,336.76534c0,-1.92539 3.31191,2.61429 9.74671,3.65689c6.90089,1.11811 17.08352,-1.28734 21.09264,-4.67119c1.79687,-1.51662 1.3001,-8.45008 -0.68966,-14.20528c-2.17006,-6.27671 -5.87691,-11.34552 -4.28526,-11.34552c9.34354,0 7.97152,20.64009 7.97152,26.56511c0,5.92504 -7.57443,10.72822 -16.91797,10.72822c-9.34354,0 -16.91797,-4.80319 -16.91797,-10.72822z" fill="#430000" stroke="none" stroke-width="0"/><path d="M184.77322,326.6757c0,-11.07417 7.47173,-20.05155 16.68857,-20.05155c9.21684,0 16.68857,8.97739 16.68857,20.05155c0,5.5238 -0.13851,12.05852 -3.14578,15.68505c-3.02174,3.64398 -8.92331,4.36649 -13.54278,4.36649c-4.94969,0 -12.83705,-0.03473 -15.89325,-4.1472c-2.63476,-3.54537 -0.79532,-10.77732 -0.79532,-15.90434z" fill="none" stroke="#000000" stroke-width="3.5"/><path d="M158.27302,325.92147c0,-11.07417 7.47174,-20.05155 16.68857,-20.05155c9.21684,0 16.68857,8.97737 16.68857,20.05155c0,5.5238 -0.13851,12.05852 -3.14578,15.68505c-3.02174,3.64397 -8.92332,4.3665 -13.54279,4.3665c-4.94969,0 -12.83705,-0.03474 -15.89325,-4.14721c-2.63476,-3.54537 -0.79534,-10.77732 -0.79534,-15.90434z" fill="#840000" stroke="#000000" stroke-width="0"/><path d="M157.93699,336.53993c0,-1.92539 3.31191,2.61429 9.74671,3.65689c6.90089,1.11811 17.08352,-1.28734 21.09264,-4.67119c1.79687,-1.51662 1.3001,-8.45008 -0.68966,-14.20528c-2.17006,-6.27671 -5.87691,-11.34552 -4.28526,-11.34552c9.34354,0 7.97152,20.64009 7.97152,26.56511c0,5.92504 -7.57443,10.72822 -16.91797,10.72822c-9.34354,0 -16.91797,-4.80319 -16.91797,-10.72822z" fill="#430000" stroke="none" stroke-width="0"/><path d="M158.62517,326.4503c0,-11.07417 7.47173,-20.05155 16.68857,-20.05155c9.21684,0 16.68857,8.97739 16.68857,20.05155c0,5.5238 -0.13851,12.05852 -3.14578,15.68505c-3.02174,3.64398 -8.92331,4.36649 -13.54278,4.36649c-4.94969,0 -12.83705,-0.03473 -15.89325,-4.1472c-2.63476,-3.54537 -0.79532,-10.77732 -0.79532,-15.90434z" fill="none" stroke="#000000" stroke-width="3.5"/></g><g data-paper-data="{&quot;index&quot;:null}" stroke-linecap="butt"><path d="M318.75889,324.10338c0,5.12704 4.09642,12.35897 -1.7712,15.90434c-6.80617,4.11247 -24.37139,4.14721 -35.39441,4.14721c-10.28762,0 -23.43048,-0.72254 -30.15991,-4.3665c-6.69725,-3.62653 -7.0057,-10.16125 -7.0057,-15.68505c0,-11.07418 16.6396,-20.05155 37.1656,-20.05155c20.526,0 37.16561,8.97739 37.16561,20.05155z" fill="#840000" stroke="#000000" stroke-width="0"/><path d="M319.50724,334.72184c0,5.92503 -16.86834,10.72822 -37.67648,10.72822c-20.80814,0 -37.67647,-4.80319 -37.67647,-10.72822c0,-5.92503 -3.0555,-26.5651 17.75264,-26.5651c3.54464,0 -4.71058,5.06881 -9.54331,11.34552c-4.43121,5.7552 -5.53752,12.68866 -1.53588,14.20528c8.92834,3.38386 31.60517,5.78932 46.97351,4.67121c14.33034,-1.0426 21.70599,-5.58229 21.70599,-3.6569z" fill="#430000" stroke="none" stroke-width="0"/><path d="M338.8052,328.82504c0,5.12703 1.83942,12.35897 -0.79534,15.90434c-3.0562,4.11247 -10.94355,4.14721 -15.89325,4.14721c-4.61947,0 -10.52105,-0.72254 -13.54279,-4.3665c-3.00727,-3.62653 -3.14578,-10.16125 -3.14578,-15.68505c0,-11.07418 7.47173,-20.05155 16.68857,-20.05155c9.21683,0 16.68857,8.97738 16.68857,20.05155z" fill="#840000" stroke="#000000" stroke-width="0"/><path d="M317.97463,324.63222c0,5.12703 4.09642,12.35899 -1.7712,15.90435c-6.80618,4.11247 -24.37139,4.1472 -35.39441,4.1472c-10.28762,0 -23.43048,-0.72254 -30.15991,-4.3665c-6.69723,-3.62653 -7.0057,-10.16125 -7.0057,-15.68505c0,-11.07417 16.63961,-20.05155 37.16561,-20.05155c20.526,0 37.16561,8.97738 37.16561,20.05155z" fill="none" stroke="#000000" stroke-width="3.5"/><path d="M339.1412,339.44349c0,5.92503 -7.57443,10.72822 -16.91797,10.72822c-9.34354,0 -16.91797,-4.80318 -16.91797,-10.72822c0,-5.92503 -1.37202,-26.56511 7.97152,-26.56511c1.59166,0 -2.1152,5.06881 -4.28526,11.34552c-1.98976,5.7552 -2.48653,12.68866 -0.68966,14.20528c4.00912,3.38384 14.19175,5.7893 21.09264,4.67119c6.43479,-1.0426 9.74671,-5.58228 9.74671,-3.65689z" fill="#430000" stroke="none" stroke-width="0"/><path d="M338.45303,329.35385c0,5.12703 1.83943,12.35897 -0.79532,15.90434c-3.0562,4.11247 -10.94355,4.1472 -15.89325,4.1472c-4.61947,0 -10.52104,-0.72251 -13.54278,-4.36649c-3.00727,-3.62653 -3.14578,-10.16125 -3.14578,-15.68505c0,-11.07416 7.47173,-20.05155 16.68857,-20.05155c9.21684,0 16.68857,8.97738 16.68857,20.05155z" fill="none" stroke="#000000" stroke-width="3.5"/><path d="M291.69362,328.14878c0,5.12703 1.83942,12.35897 -0.79534,15.90434c-3.0562,4.11247 -10.94355,4.14721 -15.89325,4.14721c-4.61947,0 -10.52105,-0.72254 -13.54279,-4.3665c-3.00727,-3.62653 -3.14578,-10.16125 -3.14578,-15.68505c0,-11.07418 7.47173,-20.05155 16.68857,-20.05155c9.21683,0 16.68857,8.97738 16.68857,20.05155z" fill="#840000" stroke="#000000" stroke-width="0"/><path d="M292.02962,338.76725c0,5.92503 -7.57443,10.72822 -16.91797,10.72822c-9.34354,0 -16.91797,-4.80318 -16.91797,-10.72822c0,-5.92503 -1.37202,-26.56511 7.97152,-26.56511c1.59166,0 -2.1152,5.06881 -4.28526,11.34552c-1.98976,5.7552 -2.48653,12.68866 -0.68966,14.20528c4.00912,3.38384 14.19175,5.7893 21.09264,4.67119c6.43479,-1.0426 9.74671,-5.58228 9.74671,-3.65689z" fill="#430000" stroke="none" stroke-width="0"/><path d="M291.34145,328.67759c0,5.12703 1.83943,12.35897 -0.79532,15.90434c-3.0562,4.11247 -10.94355,4.1472 -15.89325,4.1472c-4.61947,0 -10.52104,-0.72251 -13.54278,-4.36649c-3.00727,-3.62653 -3.14578,-10.16125 -3.14578,-15.68505c0,-11.07416 7.47173,-20.05155 16.68857,-20.05155c9.21684,0 16.68857,8.97738 16.68857,20.05155z" fill="none" stroke="#000000" stroke-width="3.5"/><path d="M317.84168,327.92337c0,5.12703 1.83942,12.35897 -0.79534,15.90434c-3.0562,4.11247 -10.94355,4.14721 -15.89325,4.14721c-4.61947,0 -10.52105,-0.72254 -13.54279,-4.3665c-3.00727,-3.62653 -3.14578,-10.16125 -3.14578,-15.68505c0,-11.07418 7.47173,-20.05155 16.68857,-20.05155c9.21683,0 16.68857,8.97738 16.68857,20.05155z" fill="#840000" stroke="#000000" stroke-width="0"/><path d="M318.17767,338.54184c0,5.92503 -7.57443,10.72822 -16.91797,10.72822c-9.34354,0 -16.91797,-4.80318 -16.91797,-10.72822c0,-5.92503 -1.37202,-26.56511 7.97152,-26.56511c1.59166,0 -2.1152,5.06881 -4.28526,11.34552c-1.98976,5.7552 -2.48653,12.68866 -0.68966,14.20528c4.00912,3.38384 14.19175,5.7893 21.09264,4.67119c6.43479,-1.0426 9.74671,-5.58228 9.74671,-3.65689z" fill="#430000" stroke="none" stroke-width="0"/><path d="M317.4895,328.45219c0,5.12703 1.83943,12.35897 -0.79532,15.90434c-3.0562,4.11247 -10.94355,4.1472 -15.89325,4.1472c-4.61947,0 -10.52104,-0.72251 -13.54278,-4.36649c-3.00727,-3.62653 -3.14578,-10.16125 -3.14578,-15.68505c0,-11.07416 7.47173,-20.05155 16.68857,-20.05155c9.21684,0 16.68857,8.97738 16.68857,20.05155z" fill="none" stroke="#000000" stroke-width="3.5"/></g></g></g></svg>