<svg version="1.1" xmlns="http://www.w3.org/2000/svg" xmlns:xlink="http://www.w3.org/1999/xlink" width="326.5" height="283.52916" viewBox="0,0,326.5,283.52916"><g transform="translate(-85,-39.5)"><g data-paper-data="{&quot;isPaintingLayer&quot;:true}" fill-rule="nonzero" stroke-linejoin="miter" stroke-miterlimit="10" stroke-dasharray="" stroke-dashoffset="0" style="mix-blend-mode: normal"><path d="M87,318.5v-277h306v277z" fill="#7d7d7d" stroke="#000000" stroke-width="4" stroke-linecap="butt"/><path d="M88.5,249.60092c0,51.36248 71.3873,-24 80.5,-24c9.1127,0 222.5,36.36248 222.5,-15c0,-29.61803 -118.95595,-39.939 -180.78211,-78.9311c-45.39046,-28.62655 -37.86001,-92.0689 -41.71789,-92.0689c-3.96633,0 8.26975,37.05305 -8.2705,75.23298c-21.46125,49.53909 -72.2295,105.76019 -72.2295,134.76702z" fill="#5d5d5d" stroke="none" stroke-width="0" stroke-linecap="butt"/><path d="M389.5,212l-218,-30l-83,76l-1,59.60092l307,1z" fill="#a7a7a7" stroke="#000000" stroke-width="0" stroke-linecap="round"/><path d="M90.5,275.60092c0,9.59408 -12.98022,36.39925 5.39132,43.29122c8.39445,3.14913 24.89215,-2.94687 40.63978,-3.1004c29.14573,-0.28415 62.99853,2.80918 89.46889,2.80918c28.5528,0 73.39866,2.21159 102.65481,3.5089c44.5924,1.97737 68.84519,1.83068 68.84519,-11.5089c0,-8.63263 -5.35188,-37.43893 -8.30004,-63.85491c-1.47016,-13.17287 12.68397,-29.50796 -1.53608,-34.96718c-30.23792,-11.60864 -5.7992,82.82209 -35.66388,82.82209c-72.07316,0 -261.5,-41.09139 -261.5,-19z" fill="#787878" stroke="none" stroke-width="0" stroke-linecap="butt"/><path d="M389.5,212l-218,-30l-83,76l-1,59.60092l307,1z" fill="none" stroke="#000000" stroke-width="4" stroke-linecap="round"/><path d="M327.5,260.60092c0,0 -81.92758,-16.7614 -101.71138,-31.01244c-19.54668,-14.08023 -16.28862,-53.98756 -16.28862,-53.98756l182,14v71z" fill="#704513" stroke="#000000" stroke-width="0" stroke-linecap="butt"/><path d="M211.5,176.60092c0,4.88971 -0.02059,25.80024 16.38411,40.67905c24.35874,22.09302 70.47443,39.32095 89.61589,39.32095c32.03252,0 80,13.15026 80,1c0,-12.15026 -55.96748,-30 -88,-30c-32.03252,0 -98,-63.15026 -98,-51z" fill="#4f310d" stroke="none" stroke-width="0" stroke-linecap="butt"/><path d="M391.5,199l-169,-25l14,-83.04649l156,16" fill="#137171" stroke="#000000" stroke-width="4" stroke-linecap="round"/><path d="M119.5,229.95351l-24,-79l49,-35l16,80" fill="#000000" stroke="#000000" stroke-width="4" stroke-linecap="round"/><path d="M392.5,276l-151,-31l-41,-22v-45l22,-3l-7,18l25,32l151,30" fill="#393939" stroke="#000000" stroke-width="4" stroke-linecap="round"/><path d="M247.5,177.60092l-5,44" fill="none" stroke="#000000" stroke-width="4" stroke-linecap="round"/><path d="M290.5,183.60092l-6,52" fill="none" stroke="#000000" stroke-width="4" stroke-linecap="round"/><path d="M337.5,192.60092l-1,50" fill="none" stroke="#000000" stroke-width="4" stroke-linecap="round"/><path d="M381.5,198.60092l-2,51" fill="none" stroke="#000000" stroke-width="4" stroke-linecap="round"/><path d="M226.5,111.60092c0,13.25483 10.52131,24 23.5,24c12.97869,0 23.5,-10.74517 23.5,-24c0,-13.25483 -10.52131,-24 -23.5,-24c-12.97869,0 -23.5,10.74517 -23.5,24z" fill="#ffffff" stroke="#000000" stroke-width="4" stroke-linecap="butt"/><path d="M256.5,129.60092c0,15.46397 10.96902,28 24.5,28c13.53098,0 24.5,-12.53603 24.5,-28c0,-15.46397 -10.96902,-28 -24.5,-28c-13.53098,0 -24.5,12.53603 -24.5,28z" fill="#ffffff" stroke="#000000" stroke-width="4" stroke-linecap="butt"/><path d="M272.5,147.60092c0,-13.80712 -11.86445,-25 -26.5,-25c-14.63555,0 -26.5,11.19288 -26.5,25c0,13.80712 11.86445,25 26.5,25c14.63555,0 26.5,-11.19288 26.5,-25z" fill="#ffffff" stroke="#000000" stroke-width="4" stroke-linecap="butt"/><path d="M330.5,150.60092c0,14.3594 12.31217,26 27.5,26c15.18783,0 27.5,-11.6406 27.5,-26c0,-14.3594 -12.31217,-26 -27.5,-26c-15.18783,0 -27.5,11.6406 -27.5,26z" fill="#ffffff" stroke="#000000" stroke-width="4" stroke-linecap="butt"/><path d="M362.5,147.60092c0,14.91169 10.52131,27 23.5,27c12.97869,0 23.5,-12.08831 23.5,-27c0,-14.91169 -10.52131,-27 -23.5,-27c-12.97869,0 -23.5,12.08831 -23.5,27z" fill="#ffffff" stroke="#000000" stroke-width="4" stroke-linecap="butt"/><path d="M346.5,129.60092c0,15.46397 12.98374,28 29,28c16.01626,0 29,-12.53603 29,-28c0,-15.46397 -12.98374,-28 -29,-28c-16.01626,0 -29,12.53603 -29,28z" fill="#ffffff" stroke="#000000" stroke-width="4" stroke-linecap="butt"/></g></g></svg>