<svg version="1.1" xmlns="http://www.w3.org/2000/svg" xmlns:xlink="http://www.w3.org/1999/xlink" width="202.53006" height="293.03924" viewBox="0,0,202.53006,293.03924"><g transform="translate(-129.0388,-25.722)"><g data-paper-data="{&quot;isPaintingLayer&quot;:true}" fill-rule="nonzero" stroke-linejoin="miter" stroke-miterlimit="10" stroke-dasharray="" stroke-dashoffset="0" style="mix-blend-mode: normal"><g stroke-linecap="butt"><g><path d="M132.56019,189.73198l59.17127,-70.83452l12.31172,10.28453l-59.17127,70.83452z" fill="#7c7c7c" stroke="#000000" stroke-width="0"/><path d="M136.2873,184.09512c2.68437,-3.2135 53.79346,-68.88419 57.51926,-65.77187c2.04658,1.70961 -27.89065,34.88318 -40.17758,54.99667c-10.0813,16.5029 -2.63955,20.5976 -3.84939,22.04591c-2.68438,3.2135 -7.88085,3.29551 -11.60664,0.1832c-3.7258,-3.11232 -4.57003,-8.24041 -1.88566,-11.4539z" fill="#4c4c4c" stroke="none" stroke-width="0"/><path d="M132.56019,189.73198l59.17127,-70.83452l12.31172,10.28453l-59.17127,70.83452z" fill="none" stroke="#000000" stroke-width="5"/></g><g><path d="M181.36474,122.91408c5.54907,-6.64285 8.45379,-15.88837 14.76093,-16.55446c3.86319,-0.40798 11.63609,5.67593 14.34272,7.93691c3.12513,2.61056 12.75657,5.47443 12.66767,10.11856c-0.11381,5.9449 -10.94376,14.04049 -15.96732,20.05424c-8.94793,10.71165 -21.97808,14.56987 -29.10365,8.61754c-1.34618,-1.12453 13.84411,-21.60441 13.1044,-23.19853c-1.64043,-3.53524 -27.94403,20.05727 -30.90976,20.24134c-2.7756,0.17227 17.59646,-23.01547 21.10501,-27.2156z" fill="#5d9000" stroke="#000000" stroke-width="0"/><path d="M187.7729,140.62858c0.54122,-0.6479 7.63725,-14.11001 1.42331,-11.04533c-6.07546,2.99638 -25.45927,22.55188 -25.36143,19.30514c0.23397,-7.7638 26.0954,-38.39352 31.1945,-40.3368c1.64828,-0.62816 -16.30719,17.24234 -17.01814,22.0974c-0.66535,4.54363 12.96461,-7.35988 16.10166,-6.51091c5.29545,1.4331 -6.20541,27.34061 -5.5515,27.88685c3.81894,3.19013 16.81491,-4.36138 13.04123,0.15615c-3.77368,4.51753 -14.20672,6.60145 -18.02567,3.41131c-0.79512,-0.6642 -2.87387,-0.57807 -3.04715,-1.53337c-0.65898,-3.63298 4.25521,-9.85347 7.2432,-13.43042z" fill="#517c00" stroke="none" stroke-width="0"/><path d="M181.36473,122.91408c5.54907,-6.64284 8.45379,-15.88837 14.76093,-16.55446c3.86319,-0.40799 11.63609,5.67593 14.34272,7.93691c3.12513,2.61056 12.75657,5.47443 12.66767,10.11856c-0.11382,5.94489 -10.94376,14.04049 -15.96732,20.05424c-8.94793,10.71165 -21.97808,14.56987 -29.10365,8.61754c-1.34618,-1.12453 13.84411,-21.60441 13.1044,-23.19853c-1.64043,-3.53524 -27.94403,20.05727 -30.90976,20.24134c-2.77559,0.17227 17.59647,-23.01548 21.10503,-27.21561z" fill="none" stroke="#000000" stroke-width="5"/></g></g><g data-paper-data="{&quot;index&quot;:null}" stroke-linecap="butt"><g><path d="M313.50872,217.38141l-35.80074,-85.07101l14.78616,-6.22251l35.80074,85.07101z" fill="#7c7c7c" stroke="#000000" stroke-width="0"/><path d="M326.38441,204.67695c1.62415,3.85935 -0.68661,8.51452 -5.16122,10.39757c-4.4746,1.88306 -9.41862,0.28097 -11.04276,-3.57838c-0.732,-1.7394 7.58329,-3.47206 2.784,-22.20562c-5.8493,-22.83217 -24.74371,-63.32566 -22.2858,-64.36004c4.4746,-1.88306 34.08165,75.88712 35.70581,79.74648z" fill="#4c4c4c" stroke="none" stroke-width="0"/><path d="M313.50872,217.3814l-35.80075,-85.07101l14.78616,-6.22251l35.80075,85.07101z" fill="none" stroke="#000000" stroke-width="5"/></g><g><path d="M301.22745,132.96765c2.1228,5.04428 14.80045,33.18623 12.19735,32.20769c-2.7814,-1.04556 -21.01118,-31.31373 -23.6161,-28.41486c-1.17462,1.30717 7.34301,25.3409 5.72626,26.02126c-8.55769,3.60136 -19.88385,-3.9079 -25.29767,-16.7724c-3.03944,-7.2224 -11.01962,-18.13766 -9.3853,-23.85464c1.27673,-4.46607 11.32457,-4.37999 15.07779,-5.95947c3.25064,-1.36799 12.46577,-4.90534 16.03953,-3.38255c5.83461,2.48614 5.90075,12.17702 9.25812,20.15496z" fill="#5d9000" stroke="#000000" stroke-width="0"/><path d="M289.90682,148.02456c1.80784,4.29587 4.68212,11.68386 2.98684,14.96393c-0.44576,0.86251 -2.4079,0.17064 -3.36282,0.57251c-4.58648,1.93014 -13.9499,-3.1213 -16.23312,-8.54677c-2.28322,-5.42546 7.92732,5.60476 12.5138,3.67459c0.78533,-0.33049 -2.61356,-28.4715 2.86934,-28.28891c3.2481,0.10817 12.78867,15.48501 13.48484,10.94598c0.74388,-4.85011 -11.18249,-27.19998 -9.79084,-26.11612c4.30517,3.35299 20.04881,40.2194 17.99603,47.71055c-0.85845,3.13272 -13.6563,-21.24688 -18.58614,-25.89296c-5.0422,-4.75201 -2.20537,10.19906 -1.87792,10.97719z" fill="#517c00" stroke="none" stroke-width="0"/><path d="M301.22744,132.96765c2.1228,5.04428 14.80045,33.18623 12.19736,32.20769c-2.7814,-1.04556 -21.01118,-31.31372 -23.6161,-28.41486c-1.17463,1.30717 7.34301,25.3409 5.72626,26.02126c-8.55769,3.60136 -19.88385,-3.9079 -25.29767,-16.7724c-3.03944,-7.2224 -11.01962,-18.13766 -9.3853,-23.85464c1.27673,-4.46607 11.32455,-4.37998 15.07779,-5.95947c3.25064,-1.36799 12.46578,-4.90535 16.03953,-3.38255c5.83461,2.48614 5.90074,12.17703 9.25812,20.15496z" fill="none" stroke="#000000" stroke-width="5"/></g></g><g stroke-linecap="butt"><path d="M199.74225,137.35205c3.38152,-14.05128 23.49011,-21.26255 40.15487,-17.2521c16.66475,4.01046 31.88861,12.25136 28.5071,26.30266c-0.79127,3.28794 -7.10503,25.69815 -10.11141,27.36769c-3.11976,1.7325 -7.43105,-10.90692 -10.54455,-9.20828c-6.7084,3.6599 -11.37795,8.52035 -20.09667,6.42215c-5.39576,-1.29852 -4.04272,-10.41016 -7.922,-13.55687c-3.11421,-2.52613 -11.93896,2.69331 -14.86565,0.63726c-4.68727,-3.29291 -6.52934,-14.8631 -5.12165,-20.71249z" fill="#3e5f00" stroke="#000000" stroke-width="5"/><g><path d="M221.67765,174.63126l13.086,-54.37655l15.30758,3.68385l-13.086,54.37655z" fill="#707070" stroke="#000000" stroke-width="0"/><path d="M222.1,169.20928c0.83825,-3.48318 9.74844,-41.8566 13.97497,-40.83945c2.82564,0.68001 -9.75322,26.65081 -10.25037,40.37856c-0.24647,6.80584 12.03627,5.53452 11.75843,6.68902c-0.83824,3.48317 -5.1215,2.93755 -9.34801,1.92041c-4.22652,-1.01714 -6.97326,-4.66534 -6.13502,-8.14851z" fill="#474747" stroke="none" stroke-width="0"/><path d="M221.71415,174.70569l13.086,-54.37655l15.30758,3.68385l-13.086,54.37655z" fill="none" stroke="#000000" stroke-width="3.5"/></g><g><path d="M209.1649,132.76855l1.85093,-7.69122l55.71525,13.40818l-1.85093,7.69122z" fill="#707070" stroke="#000000" stroke-width="0"/><path d="M221.99537,128.82281c10.28455,2.47504 -12.42267,1.11201 -3.21252,5.2871c4.56614,2.0699 45.90784,11.42109 45.86855,11.58437c-0.11857,0.49267 -15.32231,-3.09757 -30.70564,-6.79964c-15.38333,-3.70208 -24.47357,-5.79817 -24.355,-6.29086c0.11857,-0.49267 -2.97872,-7.48304 12.40462,-3.78098z" fill="#474747" stroke="none" stroke-width="0"/><path d="M209.34997,132.82237l1.85093,-7.69122l55.71525,13.40818l-1.85093,7.69122z" fill="none" stroke="#000000" stroke-width="3.5"/></g><g><path d="M205.28399,153.16691l1.85093,-7.69122l55.71525,13.40818l-1.85093,7.69122z" fill="#707070" stroke="#000000" stroke-width="0"/><path d="M205.70984,153.00214c0.11857,-0.49267 -2.97871,-7.48306 12.40463,-3.78099c10.28454,2.47503 -12.42268,1.112 -3.21252,5.2871c4.56613,2.06989 45.90784,11.42109 45.86855,11.58437c-0.11857,0.49267 -15.32231,-3.09757 -30.70564,-6.79964c-15.38333,-3.70208 -24.47357,-5.79817 -24.355,-6.29086z" fill="#474747" stroke="none" stroke-width="0"/><path d="M205.46905,153.22073l1.85093,-7.69122l55.71525,13.40818l-1.85093,7.69122z" fill="none" stroke="#000000" stroke-width="3.5"/></g><path d="M211.94527,100.22484c4.0485,1.39231 11.13699,7.35349 15.55251,6.19521c3.66031,-0.96016 -9.3569,-10.1483 -6.23499,-14.34066c2.76402,-3.71178 21.60684,-2.60492 25.5688,-1.65146c19.72552,4.74705 33.13507,19.32074 29.95109,32.55122c-1.76768,7.34528 -5.08089,30.79883 -16.46307,40.10148c-4.83992,3.95567 0.41988,-5.174 -6.31321,-6.03871c-0.64452,-0.08278 12.45716,-14.03666 8.35513,-13.09405c-0.48422,0.11127 -4.35796,-0.65358 -7.79827,-5.01888c-3.67637,-4.6648 -6.95791,-12.92946 -8.31178,-12.11123c-2.78127,1.6809 -2.15803,9.36007 -3.79035,14.61477c-2.94998,9.49656 -7.17665,17.83526 -8.98743,16.48609c-6.22001,-4.63435 -8.53362,-21.97334 -10.51713,-21.40736c-6.97528,1.99038 5.51437,27.14577 2.99266,26.53889c-6.63856,-1.59761 -21.80393,-2.03704 -25.21445,-9.1486c-6.72331,-14.0194 2.5031,-39.33515 4.61553,-48.11297c0.9508,-3.95088 2.17743,-7.08301 6.59501,-5.56374z" fill="#5d9000" stroke="#000000" stroke-width="0"/><path d="M198.52809,148.77338c0.34091,-1.41657 5.72384,-44.87936 9.69927,-47.57668c0.29225,-0.19831 3.54641,0.15828 6.86657,1.87161c4.28363,2.2105 9.0774,5.7867 11.95365,3.99458c1.33063,-0.82909 -3.20246,-7.42379 -4.18906,-11.59994c-0.886,-3.75024 1.72845,-5.14392 3.24912,-5.49012c13.24327,-3.01503 30.0215,0.35199 31.31797,3.86978c0.57271,1.55398 -29.93137,-1.54791 -31.16336,0.84298c-1.24546,2.41707 5.24772,8.6157 4.61371,11.77887c-0.89735,4.47707 -22.75328,-0.47633 -23.85605,3.65741c-0.96815,3.62915 -6.95896,37.54319 -3.10094,42.17301c1.93579,2.32303 10.37736,7.11842 13.9937,3.54527c2.46282,-2.43341 -1.84436,-17.58723 0.03017,-20.53612c2.37848,-3.74166 6.61748,-0.67251 6.84684,-0.6173c0.30317,0.07296 3.33852,1.22446 4.0571,3.2339c1.80265,5.04092 2.24504,13.73906 5.46974,11.56256c2.09729,-1.41557 2.70179,-12.84411 4.75531,-17.10104c4.01468,-8.32241 9.04477,-10.79679 9.91566,-8.48169c0.05036,0.13388 4.88499,6.33573 9.63767,11.1364c4.09731,4.13869 8.23232,6.92533 8.02654,7.5438c-0.0599,0.18003 -5.94668,20.38367 -6.30193,20.52008c-0.56424,0.21667 -3.31094,-3.37616 -3.3067,-7.11252c0.00328,-2.88897 4.19147,-7.23939 4.68565,-10.00233c0.52523,-2.93652 -2.66591,-4.22311 -3.53392,-5.06586c-4.97993,-4.83507 -9.38667,-14.49938 -11.75704,-13.50031c-2.80866,1.18377 -1.64131,6.67295 -3.05165,10.43814c-3.04387,8.12617 -6.54603,16.78532 -6.60012,17.1135c-0.16506,1.00138 -1.77547,2.74889 -3.54221,0.25788c-3.43583,-4.84432 -8.359,-16.61892 -10.67131,-17.32917c-2.13155,-0.6547 1.79096,16.29775 1.61056,17.04737c-0.05055,0.21004 1.4776,4.98307 1.39032,5.17889c-1.41404,3.17249 -9.11942,-0.11895 -15.79195,-1.72473c-7.08441,-1.7049 -12.12269,-6.01557 -11.2533,-9.62816z" fill="#517c00" stroke="none" stroke-width="0"/><path d="M205.35026,105.78858c0.95079,-3.95086 2.17742,-7.083 6.59501,-5.56374c4.04851,1.39233 11.13699,7.35349 15.55251,6.19521c3.66031,-0.96016 -9.35689,-10.14828 -6.23499,-14.34066c2.76402,-3.71178 21.60685,-2.60493 25.5688,-1.65146c19.72552,4.74705 33.13507,19.32074 29.95109,32.55122c-1.76768,7.34528 -5.08089,30.79883 -16.46307,40.10148c-4.83992,3.95567 0.4199,-5.174 -6.31321,-6.03871c-0.64452,-0.08277 12.45716,-14.03665 8.35515,-13.09406c-0.48422,0.11127 -4.35796,-0.65358 -7.79827,-5.01888c-3.67637,-4.6648 -6.95791,-12.92946 -8.31178,-12.11123c-2.78127,1.6809 -2.15803,9.36007 -3.79035,14.61477c-2.94998,9.49656 -7.17666,17.83524 -8.98744,16.48608c-6.22001,-4.63435 -8.53361,-21.97333 -10.51713,-21.40735c-6.97529,1.99037 5.51437,27.14577 2.99266,26.53889c-6.63856,-1.59761 -21.80393,-2.03704 -25.21445,-9.1486c-6.72331,-14.0194 2.5031,-39.33516 4.61551,-48.11297z" fill="none" stroke="#000000" stroke-width="5"/></g><g><path d="M211.96539,47.91478c2.90084,-7.04859 3.12241,-19.70112 10.55258,-14.06966c6.38876,4.84214 7.52323,-5.65525 13.95953,-6.64797c3.52344,-0.54346 10.48696,5.02927 14.65563,6.17898c6.59757,1.81961 10.27244,-0.07399 13.21291,1.13616c14.72618,6.06054 7.48557,19.46322 0.94753,35.34963c-6.53804,15.88642 -23.77608,23.85186 -38.50225,17.79131c-14.72618,-6.06054 -21.36396,-23.85206 -14.82593,-39.73847z" fill="#3e5f00" stroke="none" stroke-width="0" stroke-linecap="butt"/><path d="M212.23618,47.92211c2.90084,-7.04859 3.12243,-19.70113 10.55259,-14.06967c6.38876,4.84214 7.52323,-5.65525 13.95953,-6.64797c3.52343,-0.54345 10.48694,5.02925 14.65562,6.17898c6.59756,1.81962 10.27244,-0.07399 13.21291,1.13616c14.72618,6.06054 7.48557,19.46322 0.94753,35.34963c-6.53804,15.88642 -23.77608,23.85186 -38.50225,17.79131c-14.72618,-6.06054 -21.36396,-23.85206 -14.82593,-39.73847z" fill="none" stroke="#000000" stroke-width="3" stroke-linecap="butt"/><path d="M212.56179,57.68575l8.72172,-21.19244l52.67833,21.6797l-8.72172,21.19244z" fill="#888888" stroke="#000000" stroke-width="0" stroke-linecap="butt"/><path d="M224.79537,36.94343c3.10711,1.27873 -0.4606,6.38668 -0.0583,11.51963c0.23064,2.94262 1.96943,6.3498 3.8958,8.56314c5.04105,5.79204 21.84329,5.6777 21.17096,7.31133c-1.3774,3.34686 -10.23555,2.87399 -19.78525,-1.05618c-3.85539,-1.58669 -10.41825,-3.10399 -12.98614,-5.03503c-3.79268,-2.85208 -2.63244,-6.14551 -1.81112,-8.1412c1.3774,-3.34686 0.02435,-17.09189 9.57405,-13.16172z" fill="#474747" stroke="none" stroke-width="0" stroke-linecap="butt"/><path d="M212.56179,57.68575l8.72172,-21.19244l52.67833,21.6797l-8.72172,21.19244z" fill="none" stroke="#000000" stroke-width="5" stroke-linecap="butt"/><g stroke-width="3.5"><path d="M250.46094,103.51091l13.88812,-33.74599l8.80622,3.62419l-13.88812,33.74599z" fill="#707070" stroke="#000000" stroke-linecap="butt"/><path d="M262.63437,76.80621c1.80111,0.74125 -4.4074,13.10786 -5.44305,20.94644c-0.57612,4.36046 4.15346,5.9675 3.88038,6.63102c-0.76396,1.85633 -3.6556,2.426 -6.45862,1.27241c-2.80304,-1.15358 -4.45603,-3.5936 -3.69206,-5.44991c0.76396,-1.85633 8.91032,-24.55354 11.71335,-23.39995z" fill="#494949" stroke="none" stroke-linecap="butt"/><path d="M250.45506,103.6304l13.88812,-33.74599l8.80623,3.62419l-13.88812,33.74599z" fill="none" stroke="#000000" stroke-linecap="butt"/><path d="M261.32821,101.65932l-7.64766,-3.3832" fill="none" stroke="#000000" stroke-linecap="round"/><path d="M263.9523,94.32813l-7.79787,-3.20921" fill="none" stroke="#000000" stroke-linecap="round"/><path d="M258.88944,84.85527l7.6911,3.08666" fill="none" stroke="#000000" stroke-linecap="round"/><path d="M268.95201,82.94363l-7.58044,-3.35555" fill="none" stroke="#000000" stroke-linecap="round"/></g><g stroke-width="3.5"><path d="M241.94566,101.38611l13.88812,-33.74599l8.80623,3.62419l-13.88812,33.74599z" fill="#707070" stroke="#000000" stroke-linecap="butt"/><path d="M242.40574,98.08139c0.76396,-1.85633 8.91032,-24.55354 11.71335,-23.39995c1.80111,0.74125 -4.4074,13.10786 -5.44305,20.94644c-0.57612,4.36045 4.15346,5.96748 3.88038,6.63102c-0.76396,1.85633 -3.65561,2.42598 -6.45863,1.2724c-2.80304,-1.15358 -4.45603,-3.5936 -3.69206,-5.44991z" fill="#494949" stroke="none" stroke-linecap="butt"/><path d="M241.93979,101.50563l13.88814,-33.746l8.80623,3.62419l-13.88814,33.746z" fill="none" stroke="#000000" stroke-linecap="butt"/><path d="M252.81292,99.53452l-7.64766,-3.38322" fill="none" stroke="#000000" stroke-linecap="round"/><path d="M247.63913,88.99411l7.79787,3.20921" fill="none" stroke="#000000" stroke-linecap="round"/><path d="M250.37415,82.73046l7.6911,3.08666" fill="none" stroke="#000000" stroke-linecap="round"/><path d="M260.43672,80.81883l-7.58044,-3.35555" fill="none" stroke="#000000" stroke-linecap="round"/></g><g stroke-width="3.5"><path d="M229.82612,103.28094l14.54483,-35.3417l8.80623,3.62419l-14.54483,35.3417z" fill="#707070" stroke="#000000" stroke-linecap="butt"/><path d="M242.52735,75.2938c1.80111,0.74125 -4.65573,13.71126 -5.82892,21.88405c-0.65262,4.54636 4.08258,6.13967 3.79662,6.83457c-0.80008,1.94409 -3.721,2.58492 -6.52402,1.43134c-2.80304,-1.15358 -4.42674,-3.66473 -3.62666,-5.60883c0.80008,-1.94409 9.37997,-25.69469 12.18299,-24.5411z" fill="#494949" stroke="none" stroke-linecap="butt"/><path d="M229.81823,103.40538l14.54483,-35.3417l8.80623,3.62419l-14.54483,35.3417z" fill="none" stroke="#000000" stroke-linecap="butt"/><path d="M240.79864,101.17363l-7.64374,-3.39275" fill="none" stroke="#000000" stroke-linecap="round"/><path d="M235.76483,90.2931l7.79787,3.20921" fill="none" stroke="#000000" stroke-linecap="round"/><path d="M246.31523,86.81413l-7.69241,-3.08348" fill="none" stroke="#000000" stroke-linecap="round"/><path d="M248.78612,81.57426l-7.57653,-3.36509" fill="none" stroke="#000000" stroke-linecap="round"/></g><g stroke-width="3.5"><path d="M222.93584,97.20764l13.88812,-33.74599l8.80623,3.62419l-13.88812,33.74599z" fill="#707070" stroke="#000000" stroke-linecap="butt"/><path d="M235.10927,70.50294c1.80111,0.74125 -4.4074,13.10786 -5.44305,20.94646c-0.57612,4.36045 4.15346,5.96748 3.88038,6.63102c-0.76396,1.85633 -3.6556,2.426 -6.45862,1.27241c-2.80304,-1.15358 -4.45603,-3.5936 -3.69206,-5.44991c0.76396,-1.85633 8.91032,-24.55354 11.71335,-23.39995z" fill="#494949" stroke="none" stroke-linecap="butt"/><path d="M222.92999,97.32714l13.88812,-33.74599l8.80623,3.62419l-13.88812,33.74599z" fill="none" stroke="#000000" stroke-linecap="butt"/><path d="M233.80311,95.35605l-7.64766,-3.38322" fill="none" stroke="#000000" stroke-linecap="round"/><path d="M228.62935,84.81564l7.79787,3.20921" fill="none" stroke="#000000" stroke-linecap="round"/><path d="M239.05544,81.63866l-7.6911,-3.08666" fill="none" stroke="#000000" stroke-linecap="round"/><path d="M233.84649,73.28482l7.58044,3.35555" fill="none" stroke="#000000" stroke-linecap="round"/></g><g stroke-width="3.5"><path d="M211.72824,97.04057l13.88812,-33.74599l8.80623,3.62419l-13.88812,33.74599z" fill="#707070" stroke="#000000" stroke-linecap="butt"/><path d="M223.90168,70.33588c1.80111,0.74125 -4.4074,13.10786 -5.44305,20.94646c-0.57612,4.36045 4.15346,5.96748 3.88038,6.63102c-0.76396,1.85633 -3.6556,2.426 -6.45862,1.27241c-2.80304,-1.15358 -4.45603,-3.5936 -3.69206,-5.44991c0.76396,-1.85633 8.91032,-24.55354 11.71335,-23.39995z" fill="#494949" stroke="none" stroke-linecap="butt"/><path d="M211.72237,97.16008l13.88812,-33.74599l8.80623,3.62419l-13.88812,33.74599z" fill="none" stroke="#000000" stroke-linecap="butt"/><path d="M214.94784,91.80577l7.64766,3.38322" fill="none" stroke="#000000" stroke-linecap="round"/><path d="M217.42173,84.64858l7.79787,3.20921" fill="none" stroke="#000000" stroke-linecap="round"/><path d="M227.84785,81.47159l-7.6911,-3.08666" fill="none" stroke="#000000" stroke-linecap="round"/><path d="M222.63888,73.11775l7.58044,3.35555" fill="none" stroke="#000000" stroke-linecap="round"/></g><g stroke-width="3.5"><path d="M204.98719,88.8856l13.88812,-33.74599l8.80623,3.62419l-13.88812,33.74599z" fill="#707070" stroke="#000000" stroke-linecap="butt"/><path d="M217.16061,62.18092c1.80111,0.74125 -4.4074,13.10786 -5.44305,20.94646c-0.57612,4.36045 4.15346,5.96748 3.88038,6.63102c-0.76396,1.85633 -3.6556,2.426 -6.45862,1.27241c-2.80304,-1.15358 -4.45603,-3.5936 -3.69206,-5.44991c0.76396,-1.85633 8.91032,-24.55354 11.71335,-23.39995z" fill="#494949" stroke="none" stroke-linecap="butt"/><path d="M204.98131,89.00512l13.88812,-33.74599l8.80623,3.62419l-13.88812,33.74599z" fill="none" stroke="#000000" stroke-linecap="butt"/><path d="M215.85445,87.03401l-7.64766,-3.38322" fill="none" stroke="#000000" stroke-linecap="round"/><path d="M218.47854,79.70281l-7.79787,-3.20921" fill="none" stroke="#000000" stroke-linecap="round"/><path d="M221.1068,73.31662l-7.6911,-3.08666" fill="none" stroke="#000000" stroke-linecap="round"/><path d="M215.89782,64.96278l7.58044,3.35555" fill="none" stroke="#000000" stroke-linecap="round"/></g><g stroke-width="3.5"><path d="M196.47189,86.76082l13.88812,-33.74599l8.80623,3.62419l-13.88812,33.74599z" fill="#707070" stroke="#000000" stroke-linecap="butt"/><path d="M208.64532,60.05613c1.80111,0.74125 -4.4074,13.10786 -5.44305,20.94646c-0.57612,4.36045 4.15346,5.96748 3.88038,6.63102c-0.76396,1.85633 -3.6556,2.426 -6.45862,1.27241c-2.80304,-1.15358 -4.45603,-3.5936 -3.69206,-5.44991c0.76396,-1.85633 8.91032,-24.55354 11.71335,-23.39995z" fill="#494949" stroke="none" stroke-linecap="butt"/><path d="M196.46604,86.88031l13.88812,-33.74599l8.80623,3.62419l-13.88812,33.74599z" fill="none" stroke="#000000" stroke-linecap="butt"/><path d="M199.6915,81.52601l7.64766,3.38322" fill="none" stroke="#000000" stroke-linecap="round"/><path d="M209.96326,77.57802l-7.79787,-3.20921" fill="none" stroke="#000000" stroke-linecap="round"/><path d="M212.59151,71.19183l-7.6911,-3.08666" fill="none" stroke="#000000" stroke-linecap="round"/><path d="M214.96298,66.19354l-7.58044,-3.35555" fill="none" stroke="#000000" stroke-linecap="round"/></g><path d="M235.38821,62.1251c9.42075,-1.1617 21.05854,-31.97485 28.92873,-28.73588c18.18596,7.48441 18.7987,21.36929 9.49622,43.97289c-9.30248,22.6036 -24.54811,16.24331 -42.73408,8.7589c-18.18596,-7.48441 -32.42558,-13.25875 -23.12308,-35.86235c1.62755,-3.95469 6.76042,-19.06562 9.71828,-12.79504c1.05975,2.24664 -2.98648,12.66542 -2.38732,19.0211c0.82433,8.74427 6.24107,13.77042 7.73133,15.28851c4.20512,4.28367 7.07242,-8.9949 12.36992,-9.64813z" fill="#5d9000" stroke="#000000" stroke-width="0" stroke-linecap="butt"/><path d="M230.10983,68.1682c1.87568,-4.5576 4.6952,-5.58476 10.02177,-8.50366c2.00488,-1.09866 3.09127,-9.75852 6.46854,-8.36861c12.35007,5.08265 20.26891,14.28829 17.68725,20.56133c-2.58167,6.27306 -14.68622,7.23806 -27.0363,2.15542c-12.35007,-5.08265 -9.72293,0.42859 -7.14126,-5.84445z" fill="#517c00" stroke="none" stroke-width="0" stroke-linecap="butt"/><path d="M205.72418,66.41236c1.20716,-2.93323 28.75999,22.15382 46.64444,19.25091c5.16577,-0.83849 19.38148,-10.87225 19.80507,-20.84797c0.2949,-6.94466 4.67365,-12.56015 1.86016,-18.37909c-3.46597,-7.1684 -14.1294,-13.76011 -11.85183,-12.82276c7.99882,3.2919 19.42731,7.67957 18.03437,20.38917c-0.85052,7.76044 -4.78999,18.51466 -9.28564,26.3699c-2.84775,4.97589 -6.94372,8.86374 -7.34991,9.85071c-2.0976,5.09686 -16.7497,3.89843 -32.72639,-2.67674c-15.97668,-6.57519 -27.22789,-16.03722 -25.13028,-21.1341z" fill="#517c00" stroke="none" stroke-width="0" stroke-linecap="butt"/><path d="M235.38821,62.1251c9.42074,-1.16171 21.05854,-31.97486 28.92874,-28.73589c18.18595,7.48441 18.7987,21.36929 9.49622,43.97289c-9.30248,22.6036 -24.54811,16.24331 -42.73407,8.7589c-18.18595,-7.48441 -32.42559,-13.25876 -23.1231,-35.86235c1.62755,-3.95469 6.76042,-19.06562 9.71829,-12.79504c1.05975,2.24664 -2.98648,12.66542 -2.38732,19.0211c0.82433,8.74427 6.24107,13.77041 7.73133,15.28851c4.2051,4.28366 7.07241,-8.99489 12.36992,-9.64812z" fill="none" stroke="#000000" stroke-width="5" stroke-linecap="butt"/><path d="M265.60582,50.8469c6.17504,2.54134 8.23782,11.75271 4.60735,20.57418c-3.63047,8.82148 -11.5794,13.91255 -17.75444,11.37122c-6.17504,-2.54134 -8.23782,-11.75271 -4.60735,-20.57418c3.63047,-8.82148 11.5794,-13.91255 17.75444,-11.37122z" fill="#69ff84" stroke="#000000" stroke-width="0" stroke-linecap="butt"/><path d="M265.43011,51.06768c6.17504,2.54134 8.23782,11.75271 4.60735,20.57418c-3.63047,8.82148 -11.5794,13.91255 -17.75444,11.37122c-6.17504,-2.54134 -8.23782,-11.75271 -4.60735,-20.57418c3.63047,-8.82148 11.5794,-13.91255 17.75444,-11.37122z" fill="none" stroke="#000000" stroke-width="5" stroke-linecap="butt"/><path d="M250.60215,58.35521c2.27729,-5.53347 7.88566,-8.47088 12.52663,-6.5609c4.38476,1.80455 11.16659,11.16765 9.44825,16.43455c-0.10041,0.30776 0.18629,2.85793 0.06057,3.1634c-2.27729,5.53347 -14.27564,-4.93027 -18.9166,-6.84025c-4.64098,-1.90998 -5.39614,-0.66333 -3.11885,-6.19681z" fill="#5d9000" stroke="#000000" stroke-width="0" stroke-linecap="butt"/><path d="M263.3713,51.60095c3.5805,1.47355 -9.91615,2.13819 -8.51509,7.471c0.9664,3.67838 17.46856,12.59307 17.19311,13.26235c-0.67476,1.63956 -6.94365,-3.00434 -12.99385,-5.49429c-6.05021,-2.48996 -10.40786,-5.8376 -9.7331,-7.47715c0.67476,-1.63956 7.99874,-10.25185 14.04894,-7.76191z" fill="#517c00" stroke="none" stroke-width="0" stroke-linecap="butt"/><path d="M262.84102,51.4364c4.38476,1.80455 11.16659,11.16765 9.44825,16.43455c-0.10041,0.30776 0.18629,2.85793 0.06057,3.1634c-2.27729,5.53347 -14.27563,-4.93026 -18.9166,-6.84023c-4.64098,-1.90998 -5.39614,-0.66335 -3.11885,-6.19681c2.27729,-5.53347 7.88566,-8.47088 12.52663,-6.5609z" fill="none" stroke="#000000" stroke-width="5" stroke-linecap="butt"/><path d="M232.41542,45.74857c4.59634,1.89161 6.38699,8.12791 3.9995,13.92913c-2.38748,5.80122 -8.049,8.97058 -12.64536,7.07896c-4.59634,-1.89161 -6.38699,-8.12791 -3.9995,-13.92913c2.38748,-5.80122 8.049,-8.97058 12.64536,-7.07896z" fill="#000000" stroke="#000000" stroke-width="5" stroke-linecap="butt"/></g><g stroke-linecap="butt"><path d="M179.546,289.83446l26.9362,-88.27917l15.34376,4.68177l-26.9362,88.27917z" fill="#7c7c7c" stroke="#000000" stroke-width="0"/><path d="M208.17017,200.21872c2.55061,0.77827 -12.11462,42.9879 -15.60438,66.29762c-2.86332,19.12538 5.58535,20.0008 5.03459,21.8058c-1.22199,4.00489 -5.97679,6.10296 -10.62015,4.68616c-4.64337,-1.4168 -7.41692,-5.81196 -6.19493,-9.81685c1.22199,-4.00489 22.74151,-84.38952 27.38487,-82.97272z" fill="#4c4c4c" stroke="none" stroke-width="0"/><path d="M179.546,289.83446l26.9362,-88.27916l15.34376,4.68176l-26.9362,88.27916z" fill="none" stroke="#000000" stroke-width="5"/></g><g stroke-linecap="butt"><path d="M203.33166,173.01443c2.91991,-2.56221 12.77877,-2.07792 16.29399,-1.79292c4.05872,0.32907 13.57768,-2.88898 16.18463,0.95545c3.33713,4.92121 -0.83735,17.78202 -1.47057,25.59228c-1.1279,13.91161 -9.54428,24.58096 -18.79853,23.83067c-1.74834,-0.14175 -1.15799,-25.63335 -2.68194,-26.50857c-3.3796,-1.94094 -11.2509,32.50508 -13.56699,34.36658c-2.1676,1.74216 1.09261,-28.95089 1.53487,-34.40574c0.69946,-8.62729 -2.26255,-17.85464 2.50454,-22.03775z" fill="#5d9000" stroke="#000000" stroke-width="0"/><path d="M211.07149,195.9807c-3.23334,5.95273 -7.78213,33.10892 -9.57551,30.40066c-4.28846,-6.47614 -0.83862,-46.41476 2.20488,-50.94402c0.98381,-1.46409 -3.37056,23.49175 -1.14997,27.86736c2.07816,4.09495 6.34246,-13.49156 9.3945,-14.60817c5.15198,-1.88488 10.70665,25.91108 11.5559,25.97993c4.95979,0.40212 11.2173,-13.26405 10.74162,-7.39698c-0.47568,5.86707 -7.79457,13.58876 -12.75436,13.18665c-1.03264,-0.08372 -2.68079,1.18601 -3.3735,0.50575c-2.63438,-2.58704 -2.20977,-10.50307 -1.83312,-15.1486c0.06822,-0.84144 -1.90339,-15.931 -5.21043,-9.84258z" fill="#517c00" stroke="none" stroke-width="0"/><path d="M203.33166,173.01443c2.9199,-2.5622 12.77877,-2.07791 16.29399,-1.79291c4.05872,0.32906 13.57768,-2.88899 16.18462,0.95544c3.33712,4.92122 -0.83735,17.78203 -1.47057,25.59229c-1.12789,13.91161 -9.54428,24.58096 -18.79853,23.83066c-1.74834,-0.14175 -1.15799,-25.63335 -2.68194,-26.50857c-3.3796,-1.94094 -11.2509,32.50508 -13.56699,34.36658c-2.16759,1.74216 1.09262,-28.95089 1.53488,-34.40574c0.69947,-8.62729 -2.26255,-17.85464 2.50454,-22.03775z" fill="none" stroke="#000000" stroke-width="5"/></g><g stroke-linecap="butt"><g><path d="M148.94566,307.8622l0.22693,-22.01626l47.15865,1.31313l-0.22693,22.01627z" fill="#252525" stroke="#000000" stroke-width="0"/><path d="M148.94566,307.8622l0.22693,-22.01626l47.15865,1.31313l-0.22693,22.01627z" fill="#252525" stroke="#000000" stroke-width="0"/><path d="M148.94566,307.8622l0.22693,-22.01626l47.15865,1.31313l-0.22693,22.01627z" fill="none" stroke="#000000" stroke-width="3.5"/><path d="M149.46157,287.4409c0.0165,-1.60028 0.70634,7.80578 3.5564,11.44177c2.71842,3.46805 7.52149,1.13641 10.75863,1.22655c3.14719,0.08765 16.46254,4.74233 24.23275,0.65393c4.7184,-2.48264 4.38859,-15.12453 7.13877,-14.01296c2.26329,0.91478 0.62694,21.53074 0.61929,22.27233c-0.03223,3.12666 -25.47648,0.45223 -32.10752,0.26759c-4.26161,-0.11867 -11.45538,2.80704 -14.23413,-4.14215c-1.54496,-3.86369 0.02429,-16.58983 0.0358,-17.70705z" fill="#141414" stroke="none" stroke-width="0"/><path d="M148.94566,307.8622l0.22693,-22.01626l47.15865,1.31313l-0.22693,22.01627z" fill="none" stroke="#000000" stroke-width="3.5"/></g><g><path d="M135.27919,313.57358l0.11121,-22.01626l23.11067,1.31313l-0.11121,22.01628z" fill="#252525" stroke="#000000" stroke-width="0"/><path d="M135.27919,313.57358l0.11121,-22.01626l23.11067,1.31313l-0.11121,22.01628z" fill="#6c6c6c" stroke="#000000" stroke-width="0"/><path d="M135.27919,313.57358l0.11121,-22.01626l23.11067,1.31313l-0.11121,22.01628z" fill="none" stroke="#000000" stroke-width="3.5"/><path d="M137.27488,304.59406c1.33219,3.46805 3.68599,1.13641 5.2724,1.22655c1.54232,0.08765 8.06766,4.74233 11.87555,0.65393c2.3123,-2.48263 2.15068,-15.12452 3.49844,-14.01295c1.10915,0.91478 0.30724,21.53074 0.30349,22.27233c-0.0158,3.12666 -12.48506,0.45224 -15.73468,0.26759c-2.08846,-0.11868 -5.61385,2.80703 -6.97561,-4.14216c-0.75713,-3.8637 0.01191,-16.58983 0.01755,-17.70705c0.00809,-1.60028 0.34615,7.80578 1.74286,11.44176z" fill="#545454" stroke="none" stroke-width="0"/><path d="M135.27919,313.57358l0.11121,-22.01626l23.11067,1.31313l-0.11121,22.01628z" fill="none" stroke="#000000" stroke-width="3.5"/></g><g><path d="M170.02342,315.59636l0.11121,-22.01626l23.11067,1.31313l-0.11122,22.01628z" fill="#252525" stroke="#000000" stroke-width="0"/><path d="M170.02342,315.59636l0.11121,-22.01626l23.11067,1.31313l-0.11122,22.01628z" fill="#6c6c6c" stroke="#000000" stroke-width="0"/><path d="M170.02342,315.59636l0.11121,-22.01626l23.11067,1.31313l-0.11122,22.01628z" fill="none" stroke="#000000" stroke-width="3.5"/><path d="M170.27626,295.17509c0.00808,-1.60028 0.34614,7.80578 1.74285,11.44176c1.3322,3.46805 3.68601,1.13642 5.27241,1.22655c1.54231,0.08764 8.06765,4.74232 11.87555,0.65392c2.31231,-2.48263 2.15068,-15.12452 3.49845,-14.01295c1.10915,0.91477 0.30724,21.53074 0.30349,22.27233c-0.0158,3.12666 -12.48505,0.45223 -15.73468,0.26759c-2.08846,-0.11868 -5.61386,2.80703 -6.97562,-4.14216c-0.75712,-3.8637 0.01191,-16.58983 0.01755,-17.70705z" fill="#545454" stroke="none" stroke-width="0"/><path d="M170.02342,315.59636l0.11121,-22.01626l23.11067,1.31313l-0.11122,22.01628z" fill="none" stroke="#000000" stroke-width="3.5"/></g><g><path d="M150.98549,315.47737l0.11121,-22.01626l23.11067,1.31313l-0.11121,22.01628z" fill="#252525" stroke="#000000" stroke-width="0"/><path d="M150.98549,315.47737l0.11121,-22.01626l23.11067,1.31313l-0.11121,22.01628z" fill="#6c6c6c" stroke="#000000" stroke-width="0"/><path d="M150.98549,315.47737l0.11121,-22.01626l23.11067,1.31313l-0.11121,22.01628z" fill="none" stroke="#000000" stroke-width="3.5"/><path d="M151.23832,295.05609c0.00807,-1.60028 0.34614,7.80579 1.74285,11.44177c1.33219,3.46805 3.686,1.13641 5.2724,1.22655c1.54231,0.08764 8.06765,4.74233 11.87555,0.65393c2.31231,-2.48263 2.15068,-15.12453 3.49845,-14.01296c1.10915,0.91477 0.30724,21.53074 0.30349,22.27233c-0.0158,3.12666 -12.48505,0.45223 -15.73468,0.26759c-2.08845,-0.11868 -5.61385,2.80703 -6.97561,-4.14216c-0.75712,-3.8637 0.01191,-16.58983 0.01755,-17.70705z" fill="#545454" stroke="none" stroke-width="0"/><path d="M150.98549,315.47737l0.11121,-22.01626l23.11067,1.31313l-0.11121,22.01628z" fill="none" stroke="#000000" stroke-width="3.5"/></g></g><g stroke-linecap="butt"><path d="M263.30052,289.31034l-16.88456,-90.73964l15.77141,-2.9347l16.88457,90.73964z" fill="#7c7c7c" stroke="#000000" stroke-width="0"/><path d="M278.58405,279.63565c0.76598,4.11652 -2.48215,8.17357 -7.25493,9.06166c-4.77279,0.8881 -9.26283,-1.72904 -10.02881,-5.84556c-0.34523,-1.85529 8.14833,-1.77945 7.44398,-21.10514c-0.85845,-23.55386 -10.70639,-67.13989 -8.08469,-67.62772c4.77279,-0.8881 17.15846,81.40025 17.92445,85.51677z" fill="#4c4c4c" stroke="none" stroke-width="0"/><path d="M263.30052,289.31033l-16.88455,-90.73963l15.77141,-2.9347l16.88456,90.73963z" fill="none" stroke="#000000" stroke-width="5"/></g><g stroke-linecap="butt"><path d="M274.90731,196.55147c0.44226,5.45486 3.70247,36.1479 1.53487,34.40574c-2.31608,-1.8615 -10.18738,-36.30753 -13.56699,-34.36658c-1.52395,0.87522 -0.9336,26.36681 -2.68194,26.50857c-9.25425,0.7503 -17.67063,-9.91905 -18.79853,-23.83067c-0.63323,-7.81026 -4.8077,-20.67107 -1.47057,-25.59228c2.60694,-3.84443 12.12591,-0.62637 16.18463,-0.95545c3.51521,-0.285 13.37408,-0.76929 16.29399,1.79292c4.76709,4.18311 1.80508,13.41045 2.50454,22.03775z" fill="#5d9000" stroke="#000000" stroke-width="0"/><path d="M259.45251,207.32258c0.37664,4.64552 0.80126,12.56155 -1.83312,15.1486c-0.69271,0.68027 -2.34086,-0.58947 -3.3735,-0.50575c-4.95979,0.40212 -12.27868,-7.31958 -12.75436,-13.18665c-0.47568,-5.86707 5.78184,7.79909 10.74162,7.39698c0.84925,-0.06885 6.40392,-27.86481 11.5559,-25.97993c3.05205,1.1166 7.31634,18.70311 9.3945,14.60817c2.22059,-4.37561 -2.13378,-29.33145 -1.14997,-27.86736c3.0435,4.52926 6.49334,44.46787 2.20488,50.94402c-1.79338,2.70826 -6.34217,-24.44792 -9.57551,-30.40066c-3.30705,-6.08842 -5.27865,9.00114 -5.21043,9.84258z" fill="#517c00" stroke="none" stroke-width="0"/><path d="M274.90731,196.55147c0.44226,5.45486 3.70247,36.1479 1.53488,34.40574c-2.31608,-1.8615 -10.18738,-36.30753 -13.56699,-34.36658c-1.52395,0.87522 -0.9336,26.36681 -2.68194,26.50857c-9.25425,0.7503 -17.67064,-9.91905 -18.79853,-23.83066c-0.63323,-7.81026 -4.80769,-20.67107 -1.47057,-25.59229c2.60694,-3.84443 12.12591,-0.62637 16.18462,-0.95544c3.51521,-0.285 13.37409,-0.76929 16.29399,1.79291c4.76709,4.18311 1.80507,13.41045 2.50454,22.03775z" fill="none" stroke="#000000" stroke-width="5"/></g><g stroke-linecap="butt"><g><path d="M246.63013,308.67463l-0.22693,-22.01627l47.15865,-1.31313l0.22693,22.01626z" fill="#252525" stroke="#000000" stroke-width="0"/><path d="M246.63013,308.67463l-0.22693,-22.01627l47.15865,-1.31313l0.22693,22.01626z" fill="#252525" stroke="#000000" stroke-width="0"/><path d="M246.63013,308.67463l-0.22693,-22.01627l47.15865,-1.31313l0.22693,22.01626z" fill="none" stroke="#000000" stroke-width="3.5"/><path d="M293.27287,286.9402c0.01151,1.11723 1.58076,13.84337 0.0358,17.70705c-2.77874,6.94919 -9.97251,4.02348 -14.23413,4.14215c-6.63104,0.18465 -32.0753,2.85907 -32.10752,-0.26759c-0.00765,-0.74159 -1.644,-21.35755 0.61929,-22.27233c2.75018,-1.11157 2.42037,11.53032 7.13877,14.01296c7.77022,4.0884 21.08556,-0.56628 24.23275,-0.65393c3.23714,-0.09014 8.0402,2.2415 10.75863,-1.22655c2.85006,-3.63599 3.5399,-13.04205 3.5564,-11.44177z" fill="#141414" stroke="none" stroke-width="0"/><path d="M246.63013,308.67463l-0.22693,-22.01627l47.15865,-1.31313l0.22693,22.01626z" fill="none" stroke="#000000" stroke-width="3.5"/></g><g><path d="M284.34457,314.38602l-0.11121,-22.01628l23.11067,-1.31313l0.11121,22.01626z" fill="#252525" stroke="#000000" stroke-width="0"/><path d="M284.34457,314.38602l-0.11121,-22.01628l23.11067,-1.31313l0.11121,22.01626z" fill="#6c6c6c" stroke="#000000" stroke-width="0"/><path d="M284.34457,314.38602l-0.11121,-22.01628l23.11067,-1.31313l0.11121,22.01626z" fill="none" stroke="#000000" stroke-width="3.5"/><path d="M307.20242,292.65159c0.00564,1.11723 0.77468,13.84336 0.01755,17.70705c-1.36175,6.94919 -4.88715,4.02348 -6.97561,4.14216c-3.24962,0.18465 -15.71888,2.85907 -15.73468,-0.26759c-0.00375,-0.74159 -0.80566,-21.35755 0.30349,-22.27233c1.34776,-1.11157 1.18613,11.53032 3.49844,14.01295c3.80789,4.0884 10.33323,-0.56628 11.87555,-0.65393c1.58641,-0.09014 3.9402,2.2415 5.2724,-1.22655c1.39671,-3.63598 1.73477,-13.04204 1.74286,-11.44176z" fill="#545454" stroke="none" stroke-width="0"/><path d="M284.34457,314.38602l-0.11121,-22.01628l23.11067,-1.31313l0.11121,22.01626z" fill="none" stroke="#000000" stroke-width="3.5"/></g><g><path d="M249.60035,316.4088l-0.11122,-22.01628l23.11067,-1.31313l0.11121,22.01626z" fill="#252525" stroke="#000000" stroke-width="0"/><path d="M249.60035,316.4088l-0.11122,-22.01628l23.11067,-1.31313l0.11121,22.01626z" fill="#6c6c6c" stroke="#000000" stroke-width="0"/><path d="M249.60035,316.4088l-0.11122,-22.01628l23.11067,-1.31313l0.11121,22.01626z" fill="none" stroke="#000000" stroke-width="3.5"/><path d="M272.45818,294.67437c0.00564,1.11723 0.77467,13.84336 0.01755,17.70705c-1.36175,6.94919 -4.88716,4.02348 -6.97562,4.14216c-3.24962,0.18465 -15.71888,2.85907 -15.73468,-0.26759c-0.00375,-0.74159 -0.80566,-21.35756 0.30349,-22.27233c1.34777,-1.11157 1.18613,11.53032 3.49845,14.01295c3.80789,4.0884 10.33323,-0.56628 11.87555,-0.65392c1.5864,-0.09014 3.9402,2.2415 5.27241,-1.22655c1.39671,-3.63598 1.73477,-13.04204 1.74285,-11.44176z" fill="#545454" stroke="none" stroke-width="0"/><path d="M249.60035,316.4088l-0.11122,-22.01628l23.11067,-1.31313l0.11121,22.01626z" fill="none" stroke="#000000" stroke-width="3.5"/></g><g><path d="M268.63828,316.28981l-0.11121,-22.01628l23.11067,-1.31313l0.11121,22.01626z" fill="#252525" stroke="#000000" stroke-width="0"/><path d="M268.63828,316.28981l-0.11121,-22.01628l23.11067,-1.31313l0.11121,22.01626z" fill="#6c6c6c" stroke="#000000" stroke-width="0"/><path d="M268.63828,316.28981l-0.11121,-22.01628l23.11067,-1.31313l0.11121,22.01626z" fill="none" stroke="#000000" stroke-width="3.5"/><path d="M291.49611,294.55538c0.00564,1.11723 0.77467,13.84336 0.01755,17.70705c-1.36175,6.94919 -4.88716,4.02348 -6.97561,4.14216c-3.24962,0.18465 -15.71888,2.85907 -15.73468,-0.26759c-0.00375,-0.74159 -0.80565,-21.35756 0.30349,-22.27233c1.34777,-1.11157 1.18613,11.53033 3.49845,14.01296c3.80789,4.0884 10.33323,-0.56629 11.87555,-0.65393c1.5864,-0.09014 3.9402,2.24151 5.2724,-1.22655c1.39671,-3.63598 1.73478,-13.04205 1.74285,-11.44177z" fill="#545454" stroke="none" stroke-width="0"/><path d="M268.63828,316.28981l-0.11121,-22.01628l23.11067,-1.31313l0.11121,22.01626z" fill="none" stroke="#000000" stroke-width="3.5"/></g></g></g></g></svg>