<svg version="1.1" xmlns="http://www.w3.org/2000/svg" xmlns:xlink="http://www.w3.org/1999/xlink" width="351.8171" height="552.39968" viewBox="0,0,351.8171,552.39968"><defs><linearGradient x1="295.07763" y1="208.30423" x2="346.60801" y2="292.29426" gradientUnits="userSpaceOnUse" id="color-1"><stop offset="0" stop-color="#0080b4" stop-opacity="0"/><stop offset="1" stop-color="#0080b4"/></linearGradient></defs><g transform="translate(-233.9478,-5.55805)"><g data-paper-data="{&quot;isPaintingLayer&quot;:true}" fill-rule="nonzero" stroke-width="5" stroke-linejoin="miter" stroke-miterlimit="10" stroke-dasharray="" stroke-dashoffset="0" style="mix-blend-mode: normal"><g data-paper-data="{&quot;index&quot;:null}"><path d="M566.20107,426.40235c16.31048,26.58466 4.53129,54.70342 -10.1298,63.69843c-6.04962,3.71162 -18.73189,7.74059 -32.30178,0.739c-19.31633,-9.96659 -40.76948,-34.78291 -50.34973,-50.39789c-16.31048,-26.58466 -28.19558,-33.16483 -13.53449,-42.15984c14.66109,-8.99501 90.00534,1.53566 106.31582,28.12032z" fill="#ffffff" stroke="#000000" stroke-linecap="butt"/><path d="M570.97856,424.22816c7.85945,12.81022 20.51026,49.594 3.55838,59.99449c-7.76533,4.76426 -34.25025,19.08599 -49.44016,15.37815c-17.97002,-4.38647 -24.55227,-27.88678 -28.81146,-34.82889c-7.36665,-12.00699 29.71577,33.52096 44.45779,22.83659c0.3082,-0.22335 44.84295,-16.04423 25.68511,-38.70377c-3.61951,-4.28108 -15.43758,-15.29875 -18.40568,-17.74169c-18.04027,-14.84843 -81.64728,-34.20619 -81.01979,-34.59118c16.95187,-10.40047 96.11638,14.8461 103.97583,27.65632z" fill="#c7c7c7" stroke="none" stroke-linecap="butt"/><path d="M567.55418,424.8856c8.02853,13.0858 21.36481,32.98062 13.11214,47.47862c-8.51316,14.95563 -38.86447,24.38335 -46.30893,28.95075c-14.66109,8.99501 -45.59686,-34.38005 -61.90734,-60.96471c-16.31048,-26.58466 -28.19558,-33.16483 -13.53449,-42.15984c14.66109,-8.99501 92.32813,0.11055 108.63861,26.69521z" fill="none" stroke="#000000" stroke-linecap="butt"/><path d="M546.61322,412.05894l-21.17006,13.88307l-48.43427,17.08874" fill="none" stroke="#000000" stroke-linecap="round"/></g><g data-paper-data="{&quot;index&quot;:null}"><path d="M429.2738,414.22031c14.66109,-8.99501 15.14272,4.58152 31.4532,31.16618c9.58027,15.615 21.98442,45.98314 22.11832,67.71873c0.09406,15.26941 -9.24339,24.7502 -15.29301,28.46182c-14.66109,8.99501 -45.06511,6.75691 -61.37559,-19.82775c-16.31048,-26.58466 8.436,-98.52397 23.09709,-107.51898z" fill="#ffffff" stroke="#000000" stroke-linecap="butt"/><path d="M424.52464,419.79065c0.62749,-0.38498 -10.93222,65.08982 -5.86813,87.89949c0.83317,3.75279 5.30116,19.27998 7.47788,24.44622c11.52129,27.34479 45.80171,-5.18977 46.14046,-5.36332c16.2038,-8.30178 -7.58374,-61.98657 -0.21709,-49.97958c4.25919,6.94211 22.22734,23.45686 17.99656,41.46415c-3.57624,15.22143 -28.34277,32.34399 -36.1081,37.10825c-16.95189,10.40049 -44.01274,-17.5423 -51.8722,-30.35252c-7.85945,-12.81022 5.49874,-94.82223 22.45061,-105.2227z" fill="#c7c7c7" stroke="none" stroke-linecap="butt"/><path d="M429.63142,413.31432c14.66109,-8.99501 15.14272,4.58152 31.4532,31.16618c16.31048,26.58466 40.96344,73.81441 26.30236,82.80942c-7.44444,4.56738 -29.59969,27.35402 -46.78929,28.1678c-16.66362,0.78888 -28.35764,-20.11351 -36.38616,-33.19931c-16.31048,-26.58466 10.75879,-99.94907 25.41988,-108.94408z" fill="none" stroke="#000000" stroke-linecap="butt"/><path d="M461.40889,449.75906l-37.17735,35.43654l-21.96759,12.58316" fill="none" stroke="#000000" stroke-linecap="round"/></g><g data-paper-data="{&quot;index&quot;:null}"><path d="M566.78135,299.67517c16.88321,27.51817 -26.78601,39.53141 -49.59901,53.52786c-22.81298,13.99644 -54.99312,3.03493 -71.87633,-24.48324c-16.88321,-27.51817 -32.15572,-32.50717 -9.34274,-46.50361c22.813,-13.99645 113.93487,-10.05918 130.81808,17.45899z" fill="#ffffff" stroke="#000000" stroke-linecap="butt"/><path d="M567.50021,293.45571c8.13543,13.26005 -6.65271,37.12868 -33.03021,53.31206c-26.37753,16.1834 -54.35579,18.55323 -62.49123,5.29318c-7.62533,-12.42863 26.84128,-9.97942 50.16092,-25.984c0.63904,-0.43858 46.07927,-16.37978 30.7768,-25.6058c-22.05345,-13.29628 -107.47151,-21.32239 -106.4951,-21.92145c26.37751,-16.18338 112.9434,1.64598 121.07884,14.90603z" fill="#c7c7c7" stroke="none" stroke-linecap="butt"/><path d="M565.4319,299.7924c16.88321,27.51817 -26.78601,39.53141 -49.59901,53.52786c-22.81298,13.99644 -54.99312,3.03493 -71.87633,-24.48324c-16.88321,-27.51817 -32.15572,-32.50717 -9.34274,-46.50361c22.813,-13.99645 113.93487,-10.05918 130.81808,17.45899z" fill="none" stroke="#000000" stroke-linecap="butt"/><path d="M527.55174,282.78617l-5.34039,16.77958l-59.74236,41.62854" fill="none" stroke="#000000" stroke-linecap="round"/></g><g><path d="M350.38178,332.59089c22.81298,-13.99644 20.34146,1.87905 37.22467,29.39721c16.88321,27.51817 12.07617,61.17242 -10.73681,75.16886c-22.81298,13.99644 -53.30683,47.48444 -70.19004,19.96628c-16.88321,-27.51817 20.8892,-110.53591 43.70218,-124.53235z" fill="#ffffff" stroke="#000000" stroke-linecap="butt"/><path d="M300.80938,454.94638c-8.13543,-13.26005 15.18827,-98.50995 41.56578,-114.69333c0.97638,-0.59904 -30.56677,79.18625 -28.70454,104.87045c1.29215,17.82177 36.09005,-15.46551 36.77055,-15.83651c24.83273,-13.53832 38.2643,-45.37446 45.88963,-32.94583c8.13543,13.26005 -6.65271,37.12868 -33.03021,53.31206c-26.37751,16.18338 -54.35579,18.55323 -62.49123,5.29318z" fill="#c7c7c7" stroke="none" stroke-linecap="butt"/><path d="M351.09766,331.44099c22.81298,-13.99644 20.34146,1.87905 37.22467,29.39721c16.88321,27.51817 12.07617,61.17242 -10.73681,75.16886c-22.81298,13.99644 -53.30683,47.48444 -70.19004,19.96628c-16.88321,-27.51817 20.8892,-110.53591 43.70218,-124.53235z" fill="none" stroke="#000000" stroke-linecap="butt"/><path d="M390.95169,382.94021l-64.17735,34.39989l-17.37822,-2.84104" fill="none" stroke="#000000" stroke-linecap="round"/></g><g><path d="M368.97758,279.08514c20.90811,-12.82774 89.75409,18.42813 114.42282,58.636c24.66873,40.20788 -4.18132,74.14191 -25.08942,86.96966c-20.90808,12.82773 -67.04791,26.04744 -91.71664,-14.16043c-24.66874,-40.2079 -18.52486,-118.61748 2.38325,-131.44523z" fill="#ffffff" stroke="#000000" stroke-linecap="butt"/><path d="M358.86933,318.77561c6.04389,-3.70811 1.83271,29.97355 10.62358,55.46917c9.29536,26.95873 31.74682,46.01498 43.79624,49.49895c14.4674,4.1831 35.98054,-8.36398 49.48157,-23.34982c18.80867,-20.8772 27.77272,-46.77866 31.10053,-41.35461c9.58756,15.6269 -7.60651,43.61259 -38.40405,62.50779c-30.79754,18.8952 -63.53613,21.54468 -73.12369,5.91779c-9.58756,-15.6269 -54.27172,-89.79405 -23.47418,-108.68926z" fill="#c7c7c7" stroke="none" stroke-linecap="butt"/><path d="M368.97758,279.08514c20.90811,-12.82774 89.75408,18.42811 114.42282,58.636c24.66874,40.2079 -4.18132,74.14191 -25.08942,86.96966c-20.90811,12.82774 -67.0479,26.04746 -91.71664,-14.16043c-24.66874,-40.2079 -18.52486,-118.61748 2.38325,-131.44523z" fill="none" stroke="#000000" stroke-linecap="butt"/><path d="M362.70947,398.59852l113.21269,-63.73321" fill="none" stroke="#000000" stroke-linecap="round"/></g><g><path d="M291.50456,60.53499c11.85716,-15.59049 49.61408,-21.84509 61.40959,-24.35346c20.9432,-4.45365 16.97033,27.52936 22.02709,51.30863c5.05677,23.77929 -7.82173,46.66659 -28.76495,51.12025c-20.9432,4.45365 -42.02036,-11.21285 -47.07711,-34.99212c-2.20873,-10.38646 -16.79013,-30.9925 -7.59462,-43.0833z" fill="#bd0000" stroke="#000000" stroke-linecap="butt"/><path d="M299.36528,102.50746c-2.20873,-10.38646 -16.79013,-30.9925 -7.59462,-43.0833c11.85714,-15.59048 49.61406,-21.84508 61.40957,-24.35345c20.9432,-4.45365 16.97033,27.52936 22.02709,51.30863c5.05675,23.77926 -7.82174,46.66657 -28.76496,51.12023c-20.94322,4.45366 -42.02036,-11.21285 -47.07711,-34.99212z" fill="none" stroke="#000000" stroke-linecap="butt"/><path d="M336.83457,82.2958c11.34813,-2.39402 17.63727,19.81148 20.16939,31.81431c2.53214,12.00282 0.34839,9.25778 -10.99976,11.65178c-11.34813,2.39402 -15.11149,7.47256 -17.64361,-4.53027c-2.53214,-12.00282 -2.87417,-36.54182 8.47397,-38.93582z" fill="#3b3b3b" stroke="#000000" stroke-linecap="butt"/><path d="M313.76616,114.16069c30.41731,-18.66192 67.93462,-12.83101 83.79725,13.0237c15.86263,25.85471 4.06374,61.94258 -26.35357,80.6045c-30.41731,18.66192 -67.93462,12.83101 -83.79725,-13.0237c-15.86263,-25.85471 -4.06376,-61.94256 26.35357,-80.6045z" fill="#f1f1f1" stroke="#000000" stroke-linecap="butt"/><path d="M323.79029,175.28914c-8.16459,-13.30757 -52.66489,-5.59194 -34.79472,-16.55582c5.76041,-3.53418 19.87645,-16.9526 34.68452,-21.5984c7.88008,-2.47225 35.51038,-2.37821 40.3851,-8.21934c1.71011,-2.04915 0.93621,-19.38855 -21.51229,-15.68409c-8.47819,1.3991 -44.94949,27.78011 -49.22987,27.06405c-8.15196,-1.36378 21.19542,-21.95981 20.58705,-23.57589c-2.03382,-5.40273 46.07288,-12.03068 51.16302,-11.45528c8.27429,0.93534 32.46223,28.05213 34.38275,31.18241c8.16459,13.30757 -10.65524,32.12212 -28.52541,43.086c-17.87017,10.96388 -38.97554,9.06394 -47.14013,-4.24364z" fill="#cfcfcf" stroke="none" stroke-linecap="butt"/><path d="M313.76617,114.16065c30.41733,-18.66194 67.93465,-12.83101 83.79729,13.02371c15.86265,25.85473 4.06373,61.94261 -26.35358,80.60453c-30.41733,18.66194 -67.93465,12.83101 -83.79729,-13.02371c-15.86265,-25.85473 -4.06373,-61.94261 26.35358,-80.60453z" fill="none" stroke="#000000" stroke-linecap="butt"/><path d="M239.66274,238.99513c-12.36353,-20.15147 24.09114,-60.26474 62.6831,-83.94205c19.98435,-12.26099 39.58793,-13.77503 58.83748,-16.16428c17.92347,-2.22466 35.99176,-6.11553 41.95299,3.60077c3.14043,5.11863 13.78568,13.97089 27.47365,25.69713c13.275,11.37248 21.09839,31.60898 22.69232,48.76222c3.23287,34.79098 -39.54864,81.06371 -58.83102,92.89402c-22.47955,13.79187 -90.72227,24.62823 -122.20349,0.67968c-5.75374,-4.37704 -14.14871,-4.05532 -19.80158,-12.56937c-7.75032,-11.67313 -11.98462,-33.11457 -12.15368,-43.57453c-0.1912,-11.83015 3.56629,-16.23417 1.52528,-19.56084z" fill="#ffffff" stroke="none" stroke-linecap="butt"/><path d="M250.27742,293.5932c-7.36176,-11.99902 -21.03476,-39.35497 -12.17102,-55.32671c8.2692,-14.90044 38.16132,-18.42182 56.97124,-29.96226c5.81359,-3.56681 25.45467,-23.55147 39.67312,-31.82695c13.56606,-7.89577 21.54889,-3.97072 34.18692,-12.20578c8.72954,-5.68824 12.96661,-19.06797 18.99729,-20.59326c37.43066,-9.46707 45.5623,28.44823 54.2451,42.60044c14.22972,23.19321 -19.12791,75.22377 -58.10011,99.13436c-30.56963,18.75538 -87.50387,35.4326 -117.17681,27.09088c-8.1561,-2.29286 -13.55772,-13.91019 -16.62571,-18.91074z" fill="url(#color-1)" stroke="none" stroke-linecap="butt"/><path d="M310.03967,330.02755c-3.03256,-4.94281 59.7198,-17.68815 76.25922,-27.83557c6.44294,-3.95293 26.34268,-22.28628 38.65518,-38.07219c19.29438,-24.73742 28.59218,-58.50881 30.44341,-55.49147c1.82316,2.97159 0.75293,25.14228 -16.27715,52.85583c-11.29691,18.3838 -38.24681,45.03207 -44.84278,49.0789c-16.53942,10.14742 -81.2053,24.40733 -84.23786,19.46453z" fill="#c7c7c7" stroke="none" stroke-linecap="butt"/><path d="M268.97473,215.59008c14.47953,-10.46087 30.16893,-31.10969 50.13201,-43.35762c20.44085,-12.54107 33.37723,-14.20981 44.30757,-19.20522c9.60429,-4.38938 18.24115,-13.21573 21.07789,-8.5921c6.06513,9.88563 -19.53708,14.82933 -57.93895,38.39002c-19.22637,11.79595 -27.11064,22.17408 -41.84266,32.19956c-14.69306,9.99896 -36.25532,19.66746 -39.28386,14.73121c-2.91219,-4.74662 10.17406,-4.50374 23.548,-14.16585z" fill="#c7c7c7" stroke="none" stroke-linecap="butt"/><path d="M296.81615,158.21338c53.0402,-32.54174 116.74489,-25.17123 142.2884,16.46246c25.54351,41.6337 3.25304,101.76478 -49.78715,134.30652c-53.0402,32.54174 -116.74489,25.17123 -142.2884,-16.46246c-25.54351,-41.6337 -3.25304,-101.76478 49.78715,-134.30652z" fill="none" stroke="#000000" stroke-linecap="butt"/><path d="M450.0304,200.20646l-32.20373,63.34687l-66.09051,40.54849l-75.83522,7.67614" fill="none" stroke="#000000" stroke-linecap="round"/><path d="M389.44068,137.71184l-23.37709,31.39908l-14.01831,-2.77038l-56.45231,34.63517l-7.58947,16.97497l-42.35423,17.45731" fill="none" stroke="#000000" stroke-linecap="round"/><path d="M347.80396,227.61181c10.83618,-6.64832 21.39349,-9.14821 23.58043,-5.58368c2.18694,3.56453 -4.82463,11.84367 -15.66081,18.49199c-10.83618,6.64832 -21.39349,9.14821 -23.58043,5.58368c-2.18694,-3.56453 4.82463,-11.84367 15.66081,-18.49199z" fill="#008bb7" stroke="none" stroke-linecap="butt"/><path d="M332.0417,244.83433c-1.25594,-2.04707 -0.6146,-4.72468 1.43247,-5.98062c2.04707,-1.25594 4.72468,-0.6146 5.98062,1.43247c1.25594,2.04707 0.6146,4.72468 -1.43247,5.98062c-2.04707,1.25594 -4.72468,0.6146 -5.98062,-1.43247z" fill="#000000" stroke="none" stroke-linecap="butt"/><path d="M362.79459,227.327c-1.25594,-2.04707 -0.6146,-4.72468 1.43247,-5.98062c2.04707,-1.25594 4.72468,-0.6146 5.98062,1.43247c1.25594,2.04707 0.6146,4.72468 -1.43247,5.98062c-2.04707,1.25594 -4.72468,0.6146 -5.98062,-1.43247z" fill="#000000" stroke="none" stroke-linecap="butt"/><path d="M305.17309,238.21317c5.16332,-3.16785 8.33117,1.99547 8.33117,1.99547l2.53428,4.13066c1.3665,2.41145 3.54388,4.51894 4.09949,7.23439c0.83006,4.05697 0.06625,7.9077 -1.29304,11.64258c3.3573,0.9722 10.47231,2.99184 12.34788,2.98389c8.08469,-0.03433 14.98121,-5.54606 21.77072,-9.2123c7.60761,-4.10798 15.15574,-8.17751 22.5505,-12.65984c3.50693,-2.12574 7.53033,-3.88531 10.15363,-7.22685c3.29932,-4.20269 3.4842,-9.73311 3.30773,-14.76343l-1.00857,-1.77015c0,0 -1.63378,-4.02996 2.39617,-5.66373c4.02996,-1.63378 5.66373,2.39617 5.66373,2.39617l1.64153,4.76671c0.1974,7.08588 -0.50998,14.47394 -5.09604,20.32275c-3.66892,4.67913 -7.39719,6.23245 -12.53899,9.36927c-7.50863,4.58073 -15.20027,8.70385 -22.93736,12.88175c-8.46895,4.5731 -15.9212,10.08544 -25.98387,10.25633c-3.30959,0.05621 -12.37535,-2.6773 -15.80578,-3.65509c-0.81229,1.73004 -1.59411,3.44862 -2.23592,5.16569c0,0 -2.13081,5.67052 -7.80133,3.53971c-5.67052,-2.13081 -3.53971,-7.80133 -3.53971,-7.80133c2.93953,-7.78533 9.14055,-14.13593 3.98261,-21.47084l-2.53428,-4.13066c0,0 -3.16785,-5.16332 1.99547,-8.33117z" fill="#000000" stroke="none" stroke-linecap="butt"/><path d="M324.52697,54.76262c11.97682,-7.34813 26.60271,-5.29109 32.66784,4.59455c6.06513,9.88563 1.27276,23.85636 -10.70406,31.20449c-11.97682,7.34813 -26.60271,5.29109 -32.66784,-4.59455c-6.06513,-9.88563 -1.27276,-23.85636 10.70406,-31.20449z" fill="#e60000" stroke="none" stroke-linecap="butt"/><path d="M255.26226,106.83457c-3.31325,-7.19123 -32.13119,-34.32938 -12.98831,-43.14917c8.75782,-4.03504 14.12684,7.28617 30.61438,9.70279c19.55094,2.86563 49.89898,-2.39417 51.69642,1.50709c2.03649,4.42006 -18.19921,10.71202 -29.7882,26.28442c-7.26566,9.76308 -4.23855,30.5226 -11.6153,33.92133c-19.14285,8.81979 -24.60572,-21.07524 -27.91897,-28.26647z" fill="#e60000" stroke="none" stroke-linecap="butt"/><path d="M395.42628,43.87038c3.65846,7.00448 22.37001,30.73437 8.10223,37.19068c-5.49811,2.48794 -18.81465,-13.49353 -28.73963,-15.37537c-15.8306,-3.0016 -28.78208,5.87032 -31.03075,1.56502c-1.98473,-3.79994 14.50325,-19.92568 20.72905,-34.53761c5.25027,-12.3224 -0.44483,-23.44875 6.08264,-26.4025c14.26776,-6.45629 21.19798,30.55531 24.85646,37.55977z" data-paper-data="{&quot;index&quot;:null}" fill="#e60000" stroke="none" stroke-linecap="butt"/></g></g></g></svg>