<svg version="1.1" xmlns="http://www.w3.org/2000/svg" xmlns:xlink="http://www.w3.org/1999/xlink" width="222.13586" height="364.0868" viewBox="0,0,222.13586,364.0868"><g transform="translate(-128.93514,0.71066)"><g data-paper-data="{&quot;isPaintingLayer&quot;:true}" fill-rule="nonzero" stroke-linejoin="miter" stroke-miterlimit="10" stroke-dasharray="" stroke-dashoffset="0" style="mix-blend-mode: normal"><g data-paper-data="{&quot;index&quot;:null}"><path d="M250.81689,242.12564c2.30825,-6.6889 12.09201,-4.34188 15.43806,-3.65694c8.68899,1.77865 16.86398,34.10355 20.17193,57.9379c1.57545,11.35143 1.21665,20.88683 0.83305,24.07422c-1.18908,9.87987 -5.68509,18.98392 -18.51233,16.35818c-12.82723,-2.62574 -22.26182,-12.76355 -21.07274,-22.64343c0.8789,-7.30266 -3.39848,-53.11665 3.14203,-72.06993z" data-paper-data="{&quot;index&quot;:null}" fill="#ff48b3" stroke="#000000" stroke-width="0" stroke-linecap="butt"/><path d="M288.23474,321.73532c-1.11514,9.26545 -7.92937,15.56677 -15.22006,14.07435c-6.5466,-1.34008 -21.20784,-7.08593 -22.90992,-14.8039c-0.19345,-0.8772 -0.71283,-0.55845 -0.59902,-1.50405c0.00605,-0.05039 -0.41461,-1.93164 -0.4239,-3.3056c-0.02459,-3.63831 -2.07383,-10.01616 -1.26893,-18.83439c0.75672,-8.29041 -0.6546,-16.35198 0.42191,-24.34011c0.66639,-4.94488 0.38201,-14.0028 1.56807,-20.54135c1.45672,-8.03067 4.36884,-13.1508 4.66404,-13.05696c2.55365,0.81173 0.16641,38.16359 2.7436,58.67944c2.09703,16.69341 13.94659,29.44794 15.76034,30.9268c4.08645,3.33192 8.21027,1.85999 8.79704,-3.3737c0.65567,-5.84801 6.39249,-7.21246 5.16375,-17.27744c-2.96925,-24.32193 -15.37932,-61.53186 -12.16567,-60.87403c7.29069,1.49241 14.5839,64.9655 13.46876,74.23095z" fill="#bb1c79" stroke="none" stroke-width="0" stroke-linecap="butt"/><g fill="none" stroke="#000000" stroke-width="3.5"><path d="M248.97996,313.76437c0.89158,-7.40805 -4.31952,-53.00804 2.4276,-71.62761c2.2513,-6.21276 12.94327,-4.75618 16.1525,-4.09925c12.82724,2.62574 22.19406,72.13225 21.00498,82.01213c-1.18908,9.87987 -5.68509,18.98392 -18.51233,16.35818c-12.82723,-2.62574 -22.26182,-12.76355 -21.07274,-22.64343z" data-paper-data="{&quot;index&quot;:null}" stroke-linecap="butt"/><path d="M248.59177,291.66652l36.10754,-3.77353" stroke-linecap="round"/></g></g><g><path d="M241.70459,316.19557c1.18908,9.87988 -8.24551,20.01769 -21.07274,22.64343c-12.82724,2.62574 -17.32325,-6.47831 -18.51233,-16.35818c-0.3836,-3.18739 -0.7424,-12.72279 0.83304,-24.07422c3.30795,-23.83435 11.48295,-56.15925 20.17193,-57.9379c3.34605,-0.68494 13.12981,-3.03195 15.43806,3.65694c6.54051,18.95328 2.26313,64.76727 3.14203,72.06993z" data-paper-data="{&quot;index&quot;:null}" fill="#ff48b3" stroke="#000000" stroke-width="0" stroke-linecap="butt"/><path d="M214.61348,249.50437c3.21365,-0.65783 -9.19642,36.5521 -12.16567,60.87403c-1.22875,10.06498 4.50808,11.42942 5.16375,17.27744c0.58677,5.2337 4.71059,6.70562 8.79704,3.3737c1.81375,-1.47886 13.66331,-14.23339 15.76034,-30.9268c2.57719,-20.51584 0.18995,-57.8677 2.7436,-58.67944c0.2952,-0.09384 3.20732,5.02629 4.66404,13.05696c1.18606,6.53855 0.90168,15.59647 1.56807,20.54135c1.07651,7.98814 -0.33481,16.04971 0.42191,24.34011c0.8049,8.81823 -1.24435,15.19608 -1.26893,18.83439c-0.00929,1.37396 -0.42995,3.25521 -0.4239,3.3056c0.11381,0.94561 -0.40557,0.62685 -0.59902,1.50405c-1.70208,7.71797 -16.36331,13.46381 -22.90992,14.8039c-7.29069,1.49241 -14.10493,-4.8089 -15.22007,-14.07435c-1.11514,-9.26545 6.17807,-72.73854 13.46876,-74.23095z" fill="#bb1c79" stroke="none" stroke-width="0" stroke-linecap="butt"/><g fill="none" stroke="#000000" stroke-width="3.5"><path d="M240.39948,315.76437c1.18908,9.87988 -8.24551,20.0177 -21.07274,22.64343c-12.82724,2.62574 -17.32325,-6.47831 -18.51233,-16.35818c-1.18908,-9.87988 8.17774,-79.38639 21.00498,-82.01213c3.20923,-0.65693 13.90121,-2.11351 16.1525,4.09925c6.74712,18.61958 1.53602,64.21956 2.4276,71.62761z" data-paper-data="{&quot;index&quot;:null}" stroke-linecap="butt"/><path d="M240.78768,293.66652l-36.10754,-3.77353" stroke-linecap="round"/></g></g><g stroke-linecap="butt"><g><g><path d="M209.51539,220.55391c0,-11.60706 -7.80632,-51.33606 1.33562,-64.9925c7.41489,-11.07652 44.4102,-1.93707 50.77639,-1.93707c5.65588,0 11.35823,-3.67585 13.0909,5.55684c2.62214,13.97229 4.34557,43.12809 4.34557,55.78558c0,21.02137 -16.41245,39.22655 -30.62764,39.22655c-14.21519,0 -38.92085,-12.61802 -38.92085,-33.63939z" fill="#ff48b3" stroke="#000000" stroke-width="0"/><path d="M208.61395,224.21848c0,-1.97358 11.46881,15.97824 28.30993,20.3187c12.73678,3.28265 31.23675,-5.10616 34.85357,-13.66054c1.59561,-3.77389 4.08886,-18.68148 3.89563,-31.01104c-0.22792,-14.54331 -3.67186,-27.19551 -9.17081,-38.34362c-5.80562,-11.76981 -27.14791,-9.82024 -24.36534,-9.82024c4.21399,0 11.01397,0.26128 18.31199,1.33334c4.09333,0.6013 9.7794,-0.29752 11.76004,3.42575c10.75705,20.22147 6.71014,63.97465 6.71014,67.75765c0,5.72142 -11.78077,30.38021 -31.195,30.38021c-0.54703,0 -3.88528,-0.71612 -4.42728,-0.75071c-18.69376,-1.19292 -34.68288,-24.0693 -34.68288,-29.6295z" fill="#bb1c79" stroke="none" stroke-width="0"/><path d="M209.63693,220.44268c0,-11.60706 -7.80633,-51.33606 1.33562,-64.9925c7.41489,-11.07652 44.41021,-1.93707 50.7764,-1.93707c5.65587,0 11.35823,-3.67585 13.0909,5.55684c2.62214,13.97228 4.34557,43.12809 4.34557,55.78557c0,21.02137 -16.41245,39.22655 -30.62764,39.22655c-14.21518,0 -38.92084,-12.61802 -38.92084,-33.63939z" fill="none" stroke="#000000" stroke-width="3.5"/><path d="M250.31058,255.82524c-3.85713,0 -32.82459,-4.61577 -32.82459,-28.40142c0,-16.26085 -1.94,-56.5226 5.7243,-70.94255c3.54669,-6.67291 18.66329,3.89658 19.88353,3.89658c1.82203,0 6.89232,-13.40156 13.9464,-2.6813c7.87899,11.9739 14.92062,49.96071 14.92062,62.51051c0,23.78565 -17.79313,35.61818 -21.65026,35.61818z" fill="#ff94d2" stroke="#000000" stroke-width="0"/><path d="M218.70715,227.53897c0,-5.27539 -5.02424,-70.21559 6.94189,-71.31965c1.71524,-0.15825 -5.21531,69.5702 -1.29579,78.64432c0.18724,0.4335 2.79539,6.80061 8.15917,9.92628c5.85391,3.41129 14.50069,3.58453 14.59614,3.58453c14.78567,0 25.14224,-26.9426 25.14224,-20.83547c0,6.10713 -9.89097,26.88823 -24.67664,26.88823c-9.02305,0 -20.11179,-5.17837 -25.57008,-12.59889c-3.48596,-4.73916 -3.29693,-11.90913 -3.29693,-14.28934z" fill="#ea88c1" stroke="none" stroke-width="0"/><path d="M272.0824,219.63024c0,23.78564 -17.79313,35.61817 -21.65026,35.61817c-3.85713,0 -32.82459,-4.61577 -32.82459,-28.40142c0,-16.26085 -1.94,-56.5226 5.7243,-70.94255c3.5467,-6.67292 18.6633,3.89657 19.88354,3.89657c1.82203,0 6.89232,-13.40155 13.9464,-2.68129c7.87899,11.9739 14.92062,49.96072 14.92062,62.51051z" fill="none" stroke="#000000" stroke-width="3.5"/></g><path d="M241.40788,185.70178c2.1857,0 3.95757,1.71976 3.95757,3.84118c0,2.12143 -1.77186,3.84118 -3.95757,3.84118c-2.1857,0 -3.95757,-1.71976 -3.95757,-3.84118c0,-2.12143 1.77186,-3.84118 3.95757,-3.84118z" fill="#000000" stroke="#000000" stroke-width="3.5"/></g><path d="M242.10629,168.47469c1.92857,0 3.49198,1.45918 3.49198,3.25918c0,1.8 -1.56341,3.25918 -3.49198,3.25918c-1.92857,0 -3.49198,-1.45918 -3.49198,-3.25918c0,-1.8 1.56341,-3.25918 3.49198,-3.25918z" fill="#000000" stroke="#000000" stroke-width="3.5"/></g><g data-paper-data="{&quot;index&quot;:null}"><path d="M286.72162,152.63179c8.26022,0 31.35731,54.3244 31.35731,61.30877c0,6.98437 -8.30943,20.21602 -16.56967,20.21602c-8.26023,0 -29.74412,-61.89412 -29.74412,-68.87849c0,-3.46637 -2.78074,-7.41202 -0.10934,-9.69641c2.71116,-2.3184 10.90516,-2.94988 15.0658,-2.94988z" fill="#ff48b3" stroke="#000000" stroke-width="0" stroke-linecap="butt"/><path d="M307.02694,223.28403c8.61246,0 11.56125,-21.86269 11.56125,-10.81387c0,11.04883 -8.32613,21.07902 -16.93859,21.07902c-8.61248,0 -29.57531,-55.4485 -29.57531,-66.49732c0,-7.28979 10.12175,24.38429 20.39732,43.46927c5.29871,9.84136 11.62516,12.76292 14.55531,12.76292z" fill="#bb1c79" stroke="none" stroke-width="0" stroke-linecap="butt"/><path d="M286.72164,153.31636c8.26022,0 31.35731,54.3244 31.35731,61.30877c0,6.98437 -8.30944,20.21601 -16.56967,20.21601c-8.26023,0 -29.74412,-61.8941 -29.74412,-68.87847c0,-3.70584 -3.52947,-8.38105 -0.52578,-10.69407c2.65736,-2.04632 11.60481,-1.95223 15.48224,-1.95223z" fill="none" stroke="#000000" stroke-width="3.5" stroke-linecap="butt"/><path d="M306.4798,182.4365l-22.88913,15.29503" fill="none" stroke="#000000" stroke-width="3.5" stroke-linecap="round"/></g><g><path d="M196.14489,150.3818c4.16064,0 12.35464,0.63148 15.0658,2.94988c2.6714,2.28439 -0.10934,6.23004 -0.10934,9.69641c0,6.98436 -21.48389,68.87848 -29.74412,68.87848c-8.26024,0 -16.56967,-13.23166 -16.56967,-20.21602c0,-6.98436 23.09709,-61.30876 31.35731,-61.30876z" fill="#ff48b3" stroke="#000000" stroke-width="0" stroke-linecap="butt"/><path d="M175.83957,221.03404c2.93015,0 9.2566,-2.92156 14.55531,-12.76292c10.27557,-19.08499 20.39732,-50.75906 20.39732,-43.46928c0,11.04883 -20.96283,66.49733 -29.57531,66.49733c-8.61246,0 -16.93859,-10.03018 -16.93859,-21.07901c0,-11.04882 2.94879,10.81387 11.56125,10.81387z" fill="#bb1c79" stroke="none" stroke-width="0" stroke-linecap="butt"/><path d="M196.14487,151.06638c3.87743,0 12.82488,-0.09409 15.48224,1.95223c3.00369,2.31303 -0.52578,6.98823 -0.52578,10.69407c0,6.98436 -21.48389,68.87847 -29.74412,68.87847c-8.26023,0 -16.56967,-13.23165 -16.56967,-20.21601c0,-6.98436 23.09709,-61.30877 31.35731,-61.30877z" fill="none" stroke="#000000" stroke-width="3.5" stroke-linecap="butt"/><path d="M199.27582,195.48153l-22.88913,-15.29503" fill="none" stroke="#000000" stroke-width="3.5" stroke-linecap="round"/></g><g><path d="M151.93348,228.6476c2.57774,-9.6605 11.80408,-15.5876 20.6076,-13.23852c8.80352,2.34906 13.85052,12.08475 11.27278,21.74525c-2.57774,9.66051 -11.80409,15.5876 -20.60761,13.23852c-8.80353,-2.34906 -13.85052,-12.08475 -11.27278,-21.74525z" fill="#ff48b3" stroke="#000000" stroke-width="0" stroke-linecap="butt"/><path d="M151.54283,235.60051c1.45517,-5.45351 2.42565,-21.11222 10.21638,-19.03339c1.30707,0.34877 -3.30847,5.77374 -4.16522,12.36304c-0.81268,6.25029 2.1243,13.64626 3.47791,15.22159c5.72511,6.66289 19.66311,-4.69385 18.68365,-1.02315c-1.45518,5.4535 -8.95046,8.18923 -16.74119,6.1104c-7.79073,-2.07883 -12.92672,-8.18499 -11.47154,-13.6385z" fill="#bb1c79" stroke="none" stroke-width="0" stroke-linecap="butt"/><path d="M172.2636,216.3102c8.80353,2.34906 13.85052,12.08475 11.27278,21.74525c-2.57774,9.66051 -11.80407,15.5876 -20.6076,13.23852c-8.80353,-2.34906 -13.85052,-12.08475 -11.27277,-21.74525c2.57774,-9.66051 11.80406,-15.5876 20.60759,-13.23852z" fill="none" stroke="#000000" stroke-width="3.5" stroke-linecap="butt"/><g><path d="M143.7747,250.62476c0.43627,7.56696 -2.2119,13.87425 -5.91489,14.08773c-3.70297,0.2135 -7.0585,-5.74764 -7.49477,-13.31459c-0.23237,-4.03033 6.16944,-16.64804 11.90411,-18.79604c5.03219,-1.88486 9.33916,6.45687 11.06985,6.35708c3.70298,-0.2135 -10.0006,4.09886 -9.56431,11.66579z" fill="#ff48b3" stroke="#000000" stroke-width="0" stroke-linecap="butt"/><path d="M142.48685,258.32653c0.18101,3.13948 -3.54869,5.37852 -5.64167,5.4992c-2.09298,0.12068 -3.93642,-2.32655 -4.11743,-5.46603c-0.18101,-3.13948 14.09528,-23.48012 16.18828,-23.6008c0.76805,-0.04429 4.73818,1.84659 2.70472,5.16203c-1.46483,2.38835 -5.5317,4.22656 -7.02386,6.93056c-2.39957,4.34834 -1.94736,9.34964 -1.87672,10.57503z" fill="#bb1c79" stroke="none" stroke-width="0" stroke-linecap="butt"/><path d="M144.09478,250.49509c0.43628,7.56694 -2.2119,13.87424 -5.91487,14.08774c-3.70297,0.2135 -7.0585,-5.74766 -7.49477,-13.31459c-0.23237,-4.03033 6.16944,-16.64804 11.90412,-18.79604c5.03219,-1.88486 9.33916,6.45687 11.06984,6.35708c3.70297,-0.2135 -10.0006,4.09886 -9.56431,11.66579z" fill="none" stroke="#000000" stroke-width="3.5" stroke-linecap="butt"/><path d="M133.47142,243.79244l9.92249,4.69261" fill="none" stroke="#000000" stroke-width="3.5" stroke-linecap="round"/></g><g><path d="M158.63787,256.48735c3.0379,6.94409 2.74587,13.77852 -0.65232,15.26514c-3.39816,1.48664 -8.61562,-2.93748 -11.65352,-9.88156c-1.61806,-3.69857 0.00155,-17.75441 4.6328,-21.76088c4.06395,-3.51567 11.00062,2.81022 12.58885,2.1154c3.39817,-1.48664 -7.95374,7.31783 -4.91583,14.26188z" fill="#ff48b3" stroke="#000000" stroke-width="0" stroke-linecap="butt"/><path d="M160.10587,264.15684c1.26041,2.88105 -1.45913,6.27635 -3.37982,7.11663c-1.92069,0.84028 -4.4995,-0.8141 -5.75991,-3.69516c-1.26041,-2.88105 5.06022,-26.91444 6.98093,-27.75472c0.70483,-0.30836 5.08458,0.0855 4.32958,3.90088c-0.54387,2.74848 -3.71882,5.88505 -4.17866,8.93902c-0.73947,4.91113 1.42205,9.44382 1.914,10.56835z" fill="#bb1c79" stroke="none" stroke-width="0" stroke-linecap="butt"/><path d="M158.89297,256.25456c3.03791,6.94407 2.74586,13.77851 -0.6523,15.26514c-3.39816,1.48664 -8.61563,-2.9375 -11.65352,-9.88156c-1.61806,-3.69857 0.00155,-17.75441 4.63281,-21.76089c4.06395,-3.51567 11.00062,2.81022 12.58884,2.1154c3.39816,-1.48664 -7.95374,7.31783 -4.91583,14.26188z" fill="none" stroke="#000000" stroke-width="3.5" stroke-linecap="butt"/><path d="M157.53745,254.61321l-10.93471,-0.9532" fill="none" stroke="#000000" stroke-width="3.5" stroke-linecap="round"/></g><g><path d="M174.0502,259.29055c3.96095,6.46221 4.60836,13.27216 1.44599,15.21049c-3.16234,1.93834 -8.93692,-1.72896 -12.89786,-8.19115c-2.10969,-3.44191 -2.43178,-17.58709 1.60668,-22.19048c3.54376,-4.03948 11.28197,1.27602 12.75998,0.37008c3.16235,-1.93834 -6.87575,8.33887 -2.9148,14.80104z" fill="#ff48b3" stroke="#000000" stroke-width="0" stroke-linecap="butt"/><path d="M176.55548,266.68647c1.64338,2.68112 -0.58516,6.41711 -2.37257,7.51269c-1.78741,1.09558 -4.56862,-0.18975 -6.21199,-2.87087c-1.64338,-2.68112 1.32375,-27.35399 3.11117,-28.44958c0.65591,-0.40204 5.04831,-0.61216 4.82335,3.27068c-0.16205,2.79709 -2.87716,6.33918 -2.9141,9.42736c-0.05941,4.96613 2.70294,9.15981 3.34437,10.2063z" fill="#bb1c79" stroke="none" stroke-width="0" stroke-linecap="butt"/><path d="M174.27098,259.02499c3.96095,6.46218 4.60835,13.27215 1.44601,15.21049c-3.16234,1.93834 -8.93693,-1.72898 -12.89786,-8.19115c-2.10969,-3.44191 -2.43177,-17.58708 1.60669,-22.19049c3.54376,-4.03948 11.28197,1.27603 12.75997,0.37009c3.16234,-1.93834 -6.87575,8.33886 -2.9148,14.80103z" fill="none" stroke="#000000" stroke-width="3.5" stroke-linecap="butt"/><path d="M161.74114,258.13934l10.96216,-0.55444" fill="none" stroke="#000000" stroke-width="3.5" stroke-linecap="round"/></g><g data-paper-data="{&quot;index&quot;:null}"><path d="M187.20916,254.69168c-0.01367,-7.57948 -13.94909,-11.07076 -10.23996,-11.07745c1.73356,-0.00313 5.53775,-8.58582 10.67296,-7.003c5.85207,1.80379 12.9916,14.01922 12.99889,18.05624c0.01369,7.5795 -2.98205,13.72931 -6.69117,13.73601c-3.70913,0.00671 -6.72704,-6.13225 -6.74073,-13.71176z" fill="#ff48b3" stroke="#000000" stroke-width="0" stroke-linecap="butt"/><path d="M188.6656,261.41889c-0.00223,-1.22743 0.1523,-6.24675 -2.50117,-10.44498c-1.65005,-2.61066 -5.81886,-4.2042 -7.42288,-6.50138c-2.22668,-3.18888 1.62419,-5.31211 2.39352,-5.31349c2.09647,-0.00378 17.55506,19.45351 17.56073,22.5982c0.00568,3.14469 -1.68924,5.69703 -3.7857,5.70081c-2.09646,0.00378 -5.95248,-2.00991 -5.95816,-5.1546z" fill="#bb1c79" stroke="none" stroke-width="0" stroke-linecap="butt"/><path d="M186.88193,254.58125c-0.01367,-7.57948 -13.94906,-11.07076 -10.23995,-11.07745c1.73355,-0.00312 5.53774,-8.58581 10.67295,-7.003c5.85208,1.80379 12.99161,14.01922 12.9989,18.05623c0.01369,7.57949 -2.98206,13.72932 -6.69117,13.73602c-3.70911,0.0067 -6.72704,-6.13228 -6.74072,-13.71177z" fill="none" stroke="#000000" stroke-width="3.5" stroke-linecap="butt"/><path d="M197.08868,247.25981l-9.62643,5.27336" fill="none" stroke="#000000" stroke-width="3.5" stroke-linecap="round"/></g></g><g data-paper-data="{&quot;index&quot;:null}"><path d="M328.06654,227.8976c2.57774,9.6605 -2.46925,19.39619 -11.27278,21.74525c-8.80352,2.34908 -18.02987,-3.57801 -20.60761,-13.23852c-2.57774,-9.6605 2.46926,-19.39619 11.27278,-21.74525c8.80352,-2.34908 18.02986,3.57802 20.6076,13.23852z" fill="#ff48b3" stroke="#000000" stroke-width="0" stroke-linecap="butt"/><path d="M328.45719,234.8505c1.45518,5.45351 -3.68081,11.55967 -11.47154,13.6385c-7.79073,2.07883 -15.28601,-0.6569 -16.74119,-6.1104c-0.97946,-3.6707 12.95854,7.68604 18.68365,1.02315c1.35361,-1.57533 4.29059,-8.9713 3.47791,-15.22159c-0.85675,-6.5893 -5.47229,-12.01427 -4.16522,-12.36304c7.79073,-2.07883 8.76121,13.57988 10.21638,19.03339z" fill="#bb1c79" stroke="none" stroke-width="0" stroke-linecap="butt"/><path d="M328.34399,228.79872c2.57775,9.6605 -2.46924,19.39619 -11.27277,21.74525c-8.80353,2.34908 -18.02986,-3.57801 -20.6076,-13.23852c-2.57774,-9.6605 2.46925,-19.39619 11.27278,-21.74525c8.80353,-2.34908 18.02985,3.57801 20.60759,13.23852z" fill="none" stroke="#000000" stroke-width="3.5" stroke-linecap="butt"/><g><path d="M336.22531,249.87473c0.43629,-7.56693 -13.26729,-11.87929 -9.56431,-11.66579c1.73069,0.09979 6.03766,-8.24194 11.06985,-6.35708c5.73467,2.148 12.13648,14.76571 11.90411,18.79604c-0.43627,7.56695 -3.7918,13.52809 -7.49477,13.31459c-3.70299,-0.21348 -6.35116,-6.52077 -5.91489,-14.08773z" fill="#ff48b3" stroke="#000000" stroke-width="0" stroke-linecap="butt"/><path d="M337.27984,256.67653c0.07064,-1.22539 0.52285,-6.22669 -1.87672,-10.57503c-1.49216,-2.704 -5.55903,-4.54221 -7.02386,-6.93056c-2.03346,-3.31544 1.93667,-5.20632 2.70472,-5.16203c2.093,0.12068 16.36929,20.46132 16.18828,23.6008c-0.18101,3.13948 -2.02445,5.58671 -4.11743,5.46603c-2.09298,-0.12068 -5.82268,-2.35972 -5.64167,-5.4992z" fill="#bb1c79" stroke="none" stroke-width="0" stroke-linecap="butt"/><path d="M335.90521,249.74507c0.43629,-7.56693 -13.26728,-11.87929 -9.56431,-11.66579c1.73068,0.09979 6.03765,-8.24194 11.06984,-6.35708c5.73468,2.148 12.13649,14.76571 11.90412,18.79604c-0.43627,7.56693 -3.7918,13.52809 -7.49477,13.31459c-3.70297,-0.2135 -6.35115,-6.5208 -5.91487,-14.08774z" fill="none" stroke="#000000" stroke-width="3.5" stroke-linecap="butt"/><path d="M346.52858,243.04244l-9.92249,4.69261" fill="none" stroke="#000000" stroke-width="3.5" stroke-linecap="round"/></g><g><path d="M321.36215,255.73733c3.03791,-6.94405 -8.31401,-15.74853 -4.91584,-14.26189c1.58822,0.69482 8.5249,-5.63107 12.58885,-2.11539c4.63126,4.00647 6.25086,18.06231 4.63281,21.76088c-3.0379,6.94408 -8.25537,11.3682 -11.65353,9.88156c-3.39819,-1.48663 -3.69022,-8.32105 -0.65231,-15.26514z" fill="#ff48b3" stroke="#000000" stroke-width="0" stroke-linecap="butt"/><path d="M319.98801,262.48183c0.49195,-1.12453 2.65348,-5.65722 1.914,-10.56835c-0.45984,-3.05397 -3.63479,-6.19053 -4.17866,-8.93901c-0.755,-3.81538 3.62475,-4.20924 4.32958,-3.90088c1.92071,0.84028 8.24134,24.87367 6.98093,27.75473c-1.26041,2.88106 -3.83921,4.53544 -5.75991,3.69516c-1.92069,-0.84028 -4.64023,-4.23557 -3.37982,-7.11663z" fill="#bb1c79" stroke="none" stroke-width="0" stroke-linecap="butt"/><path d="M321.10703,255.50454c3.03791,-6.94405 -8.31399,-15.74851 -4.91583,-14.26188c1.58821,0.69482 8.52489,-5.63108 12.58884,-2.1154c4.63127,4.00648 6.25087,18.06231 4.63281,21.76089c-3.03789,6.94406 -8.25536,11.36819 -11.65353,9.88156c-3.39816,-1.48663 -3.6902,-8.32107 -0.6523,-15.26514z" fill="none" stroke="#000000" stroke-width="3.5" stroke-linecap="butt"/><path d="M322.46255,253.86321l10.93471,-0.9532" fill="none" stroke="#000000" stroke-width="3.5" stroke-linecap="round"/></g><g><path d="M305.94983,258.54053c3.96095,-6.46217 -6.07716,-16.73938 -2.91481,-14.80104c1.47801,0.90594 9.21622,-4.40957 12.75998,-0.37009c4.03845,4.60339 3.71636,18.74857 1.60667,22.19049c-3.96095,6.4622 -9.73552,10.12948 -12.89786,8.19115c-3.16237,-1.93833 -2.51496,-8.74829 1.44599,-15.21049z" fill="#ff48b3" stroke="#000000" stroke-width="0" stroke-linecap="butt"/><path d="M303.66429,265.03305c0.64143,-1.04649 3.40378,-5.24016 3.34437,-10.2063c-0.03694,-3.08818 -2.75205,-6.63027 -2.9141,-9.42737c-0.22496,-3.88284 4.16744,-3.67273 4.82335,-3.27069c1.78742,1.0956 4.75455,25.76846 3.11117,28.44959c-1.64337,2.68113 -4.42458,3.96646 -6.212,2.87087c-1.78741,-1.09559 -4.01594,-4.83157 -2.37257,-7.51269z" fill="#bb1c79" stroke="none" stroke-width="0" stroke-linecap="butt"/><path d="M305.72902,258.27497c3.96095,-6.46217 -6.07714,-16.73937 -2.91479,-14.80103c1.478,0.90594 9.21621,-4.40957 12.75997,-0.37009c4.03846,4.6034 3.71637,18.74857 1.60668,22.19049c-3.96094,6.46218 -9.73552,10.12949 -12.89786,8.19115c-3.16235,-1.93833 -2.51495,-8.74831 1.446,-15.21049z" fill="none" stroke="#000000" stroke-width="3.5" stroke-linecap="butt"/><path d="M318.25886,257.38934l-10.96216,-0.55444" fill="none" stroke="#000000" stroke-width="3.5" stroke-linecap="round"/></g><g data-paper-data="{&quot;index&quot;:null}"><path d="M292.79085,253.94171c-0.0137,7.57952 -3.03161,13.71848 -6.74074,13.71177c-3.70911,-0.00669 -6.70485,-6.15651 -6.69116,-13.73602c0.00729,-4.03702 7.14683,-16.25245 12.99889,-18.05624c5.13521,-1.58281 8.93939,6.99988 10.67296,7.003c3.70913,0.00669 -10.22628,3.49797 -10.23996,11.07746z" fill="#ff48b3" stroke="#000000" stroke-width="0" stroke-linecap="butt"/><path d="M291.04807,261.55346c-0.00568,3.14469 -3.86171,5.15838 -5.95817,5.1546c-2.09645,-0.00378 -3.79138,-2.55612 -3.7857,-5.70081c0.00568,-3.14469 15.46427,-22.60198 17.56074,-22.59821c0.76932,0.00139 4.6202,2.12461 2.39351,5.31349c-1.60403,2.29719 -5.77283,3.89072 -7.42288,6.50138c-2.65347,4.19823 -2.49895,9.21754 -2.50117,10.44498z" fill="#bb1c79" stroke="none" stroke-width="0" stroke-linecap="butt"/><path d="M293.11806,253.83128c-0.01368,7.5795 -3.03161,13.71846 -6.74072,13.71177c-3.70911,-0.00669 -6.70485,-6.15654 -6.69116,-13.73602c0.00729,-4.03702 7.14682,-16.25244 12.9989,-18.05623c5.13521,-1.58281 8.93939,6.99988 10.67294,7.003c3.70911,0.00669 -10.22627,3.49797 -10.23994,11.07746z" fill="none" stroke="#000000" stroke-width="3.5" stroke-linecap="butt"/><path d="M292.53774,251.78317l-9.62642,-5.27335" fill="none" stroke="#000000" stroke-width="3.5" stroke-linecap="round"/></g></g><path d="" fill="none" stroke="#000000" stroke-width="0" stroke-linecap="round"/><path d="" fill="none" stroke="#000000" stroke-width="0" stroke-linecap="round"/><g stroke-linecap="butt"><g data-paper-data="{&quot;index&quot;:null}"><path d="M175.17296,339.50785c0,-9.68071 14.54587,-17.52849 32.48911,-17.52849c17.94324,0 32.4891,7.84776 32.4891,17.52849c0,4.82875 -0.26964,10.54121 -6.12418,13.71142c-5.88268,3.18545 -17.37179,3.81707 -26.36493,3.81707c-9.63601,0 -24.99102,-0.03037 -30.94078,-3.62537c-5.1293,-3.09926 -1.54833,-9.42121 -1.54833,-13.90312z" fill="#ff48b3" stroke="#000000" stroke-width="0"/><path d="M174.51877,348.79021c0,-1.68312 6.44758,2.28535 18.97475,3.19676c13.43456,0.97742 33.25799,-1.12537 41.06289,-4.08344c3.49812,-1.32579 2.53102,-7.38682 -1.34262,-12.41785c-4.22464,-5.48692 -11.44111,-9.91793 -8.34249,-9.91793c18.18988,0 15.51885,18.04296 15.51885,23.22245c0,5.17949 -14.74581,9.3783 -32.93569,9.3783c-18.18988,0 -32.9357,-4.19881 -32.9357,-9.3783z" fill="#bb1c79" stroke="none" stroke-width="0"/><path d="M208.34764,322.44165c17.94324,0 32.48911,7.84777 32.48911,17.52849c0,4.82875 -0.26965,10.54121 -6.12418,13.71142c-5.88268,3.18545 -17.37179,3.81707 -26.36493,3.81707c-9.63601,0 -24.99101,-0.03036 -30.94078,-3.62536c-5.1293,-3.09926 -1.54833,-9.42123 -1.54833,-13.90313c0,-9.68072 14.54587,-17.52849 32.48911,-17.52849z" fill="none" stroke="#000000" stroke-width="3.5"/></g><path d="M157.64905,343.63538c0,-9.68072 6.53158,-17.52849 14.58867,-17.52849c8.0571,0 14.58867,7.84776 14.58867,17.52849c0,4.82875 -0.12108,10.54121 -2.74995,13.71142c-2.64152,3.18545 -7.80051,3.81707 -11.83872,3.81707c-4.32688,0 -11.22178,-0.03037 -13.89342,-3.62537c-2.30323,-3.09926 -0.69526,-9.42122 -0.69526,-13.90312z" fill="#ff48b3" stroke="#000000" stroke-width="0"/><path d="M157.35531,352.91772c0,-1.68312 2.89518,2.28534 8.52029,3.19675c6.03256,0.97742 14.93392,-1.12536 18.43858,-4.08342c1.57077,-1.32579 1.13651,-7.38682 -0.60288,-12.41785c-1.897,-5.48692 -5.13743,-9.91793 -3.74605,-9.91793c8.16785,0 6.96847,18.04297 6.96847,23.22246c0,5.1795 -6.62135,9.3783 -14.7892,9.3783c-8.16785,0 -14.7892,-4.19881 -14.7892,-9.3783z" fill="#bb1c79" stroke="none" stroke-width="0"/><path d="M157.95689,344.09766c0,-9.68072 6.53157,-17.52849 14.58867,-17.52849c8.0571,0 14.58867,7.84778 14.58867,17.52849c0,4.82875 -0.12108,10.54121 -2.74995,13.71142c-2.64152,3.18546 -7.8005,3.81706 -11.83871,3.81706c-4.32688,0 -11.22178,-0.03036 -13.89342,-3.62536c-2.30323,-3.09926 -0.69525,-9.42122 -0.69525,-13.90312z" fill="none" stroke="#000000" stroke-width="3.5"/><g><path d="M198.83264,343.04422c0,-9.68072 6.53158,-17.52849 14.58867,-17.52849c8.0571,0 14.58867,7.84776 14.58867,17.52849c0,4.82875 -0.12108,10.54121 -2.74995,13.71142c-2.64152,3.18545 -7.80051,3.81707 -11.83872,3.81707c-4.32688,0 -11.22178,-0.03037 -13.89342,-3.62537c-2.30323,-3.09926 -0.69526,-9.42122 -0.69526,-13.90312z" fill="#ff48b3" stroke="#000000" stroke-width="0"/><path d="M198.5389,352.32657c0,-1.68312 2.89518,2.28534 8.52029,3.19675c6.03256,0.97742 14.93392,-1.12536 18.43858,-4.08342c1.57077,-1.32579 1.13651,-7.38682 -0.60288,-12.41785c-1.897,-5.48692 -5.13743,-9.91793 -3.74605,-9.91793c8.16785,0 6.96847,18.04297 6.96847,23.22246c0,5.1795 -6.62135,9.3783 -14.7892,9.3783c-8.16785,0 -14.7892,-4.19881 -14.7892,-9.3783z" fill="#bb1c79" stroke="none" stroke-width="0"/><path d="M199.14048,343.5065c0,-9.68072 6.53157,-17.52849 14.58867,-17.52849c8.0571,0 14.58867,7.84778 14.58867,17.52849c0,4.82875 -0.12108,10.54121 -2.74995,13.71142c-2.64152,3.18546 -7.8005,3.81706 -11.83871,3.81706c-4.32688,0 -11.22178,-0.03036 -13.89342,-3.62536c-2.30323,-3.09926 -0.69525,-9.42122 -0.69525,-13.90312z" fill="none" stroke="#000000" stroke-width="3.5"/></g><g><path d="M175.97476,342.84717c0,-9.68072 6.53158,-17.52849 14.58867,-17.52849c8.0571,0 14.58867,7.84776 14.58867,17.52849c0,4.82875 -0.12108,10.54121 -2.74995,13.71142c-2.64152,3.18545 -7.80051,3.81707 -11.83872,3.81707c-4.32688,0 -11.22178,-0.03037 -13.89342,-3.62537c-2.30323,-3.09926 -0.69526,-9.42122 -0.69526,-13.90312z" fill="#ff48b3" stroke="#000000" stroke-width="0"/><path d="M175.68102,352.12952c0,-1.68312 2.89518,2.28534 8.52029,3.19675c6.03256,0.97742 14.93392,-1.12536 18.43858,-4.08342c1.57077,-1.32579 1.13651,-7.38682 -0.60288,-12.41785c-1.897,-5.48692 -5.13743,-9.91793 -3.74605,-9.91793c8.16785,0 6.96847,18.04297 6.96847,23.22246c0,5.1795 -6.62135,9.3783 -14.7892,9.3783c-8.16785,0 -14.7892,-4.19881 -14.7892,-9.3783z" fill="#bb1c79" stroke="none" stroke-width="0"/><path d="M176.2826,343.30945c0,-9.68072 6.53157,-17.52849 14.58867,-17.52849c8.0571,0 14.58867,7.84778 14.58867,17.52849c0,4.82875 -0.12108,10.54121 -2.74995,13.71142c-2.64152,3.18546 -7.8005,3.81706 -11.83871,3.81706c-4.32688,0 -11.22178,-0.03036 -13.89342,-3.62536c-2.30323,-3.09926 -0.69525,-9.42122 -0.69525,-13.90312z" fill="none" stroke="#000000" stroke-width="3.5"/></g></g><g data-paper-data="{&quot;index&quot;:null}" stroke-linecap="butt"><g data-paper-data="{&quot;index&quot;:null}"><path d="M314.2065,337.50785c0,4.4819 3.58098,10.80385 -1.54833,13.90312c-5.94977,3.59501 -21.30476,3.62537 -30.94078,3.62537c-8.99313,0 -20.48225,-0.63162 -26.36493,-3.81707c-5.85454,-3.17021 -6.12418,-8.88267 -6.12418,-13.71142c0,-9.68072 14.54587,-17.52848 32.4891,-17.52848c17.94323,0 32.48911,7.84777 32.48911,17.52848z" fill="#ff48b3" stroke="#000000" stroke-width="0"/><path d="M314.86068,346.7902c0,5.17949 -14.74581,9.37831 -32.93569,9.37831c-18.18988,0 -32.93569,-4.19882 -32.93569,-9.37831c0,-5.17949 -2.67103,-23.22244 15.51885,-23.22244c3.09862,0 -4.11786,4.43102 -8.34249,9.91794c-3.87363,5.03103 -4.84073,11.09206 -1.34261,12.41785c7.8049,2.95807 27.62833,5.06086 41.06289,4.08344c12.52717,-0.91141 18.97475,-4.87989 18.97475,-3.19676z" fill="#bb1c79" stroke="none" stroke-width="0"/><path d="M313.52092,337.97014c0,4.4819 3.58097,10.80386 -1.54833,13.90312c-5.94977,3.59501 -21.30476,3.62536 -30.94078,3.62536c-8.99313,0 -20.48226,-0.63162 -26.36494,-3.81707c-5.85453,-3.17021 -6.12418,-8.88267 -6.12418,-13.71142c0,-9.68072 14.54588,-17.52849 32.48911,-17.52849c17.94323,0 32.48911,7.84777 32.48911,17.52849z" fill="none" stroke="#000000" stroke-width="3.5"/></g><path d="M331.73041,341.63537c0,4.4819 1.60797,10.80386 -0.69526,13.90312c-2.67164,3.59501 -9.56654,3.62538 -13.89342,3.62538c-4.03821,0 -9.19721,-0.63162 -11.83872,-3.81707c-2.62887,-3.17021 -2.74995,-8.88268 -2.74995,-13.71142c0,-9.68072 6.53157,-17.52848 14.58867,-17.52848c8.0571,0 14.58867,7.84776 14.58867,17.52848z" fill="#ff48b3" stroke="#000000" stroke-width="0"/><path d="M332.02415,350.91773c0,5.17949 -6.62135,9.3783 -14.78921,9.3783c-8.16786,0 -14.7892,-4.19881 -14.7892,-9.3783c0,-5.17949 -1.19938,-23.22246 6.96847,-23.22246c1.39139,0 -1.84905,4.43102 -3.74605,9.91794c-1.73939,5.03103 -2.17365,11.09206 -0.60288,12.41785c3.50466,2.95806 12.40603,5.06085 18.43858,4.08342c5.6251,-0.91141 8.52029,-4.87987 8.52029,-3.19675z" fill="#bb1c79" stroke="none" stroke-width="0"/><path d="M331.42255,342.09766c0,4.4819 1.60798,10.80386 -0.69525,13.90312c-2.67164,3.59501 -9.56654,3.62536 -13.89342,3.62536c-4.03821,0 -9.19719,-0.63161 -11.83871,-3.81707c-2.62887,-3.17021 -2.74995,-8.88267 -2.74995,-13.71142c0,-9.68072 6.53157,-17.52849 14.58868,-17.52849c8.0571,0 14.58867,7.84777 14.58867,17.52849z" fill="none" stroke="#000000" stroke-width="3.5"/><g><path d="M290.54682,341.04422c0,4.4819 1.60797,10.80386 -0.69526,13.90312c-2.67164,3.59501 -9.56654,3.62537 -13.89342,3.62537c-4.03821,0 -9.1972,-0.63162 -11.83872,-3.81707c-2.62887,-3.17021 -2.74995,-8.88267 -2.74995,-13.71142c0,-9.68072 6.53157,-17.52849 14.58867,-17.52849c8.0571,0 14.58867,7.84777 14.58867,17.52849z" fill="#ff48b3" stroke="#000000" stroke-width="0"/><path d="M290.84056,350.32657c0,5.17949 -6.62135,9.37831 -14.78921,9.37831c-8.16786,0 -14.78921,-4.19881 -14.78921,-9.37831c0,-5.17949 -1.19937,-23.22245 6.96848,-23.22245c1.39139,0 -1.84905,4.43102 -3.74605,9.91794c-1.73939,5.03103 -2.17366,11.09206 -0.60289,12.41785c3.50466,2.95806 12.40603,5.06084 18.43858,4.08342c5.6251,-0.91141 8.52029,-4.87988 8.52029,-3.19675z" fill="#bb1c79" stroke="none" stroke-width="0"/><path d="M290.23896,341.50651c0,4.4819 1.60797,10.80385 -0.69525,13.90312c-2.67164,3.59501 -9.56654,3.62536 -13.89342,3.62536c-4.03821,0 -9.1972,-0.6316 -11.83871,-3.81706c-2.62887,-3.17021 -2.74995,-8.88268 -2.74995,-13.71142c0,-9.68072 6.53157,-17.52849 14.58868,-17.52849c8.0571,0 14.58867,7.84777 14.58867,17.52849z" fill="none" stroke="#000000" stroke-width="3.5"/></g><g><path d="M313.40469,340.84717c0,4.4819 1.60797,10.80386 -0.69525,13.90312c-2.67164,3.59501 -9.56654,3.62537 -13.89342,3.62537c-4.03821,0 -9.1972,-0.63162 -11.83872,-3.81707c-2.62887,-3.17021 -2.74995,-8.88268 -2.74995,-13.71143c0,-9.68072 6.53157,-17.52848 14.58867,-17.52848c8.0571,0 14.58867,7.84776 14.58867,17.52848z" fill="#ff48b3" stroke="#000000" stroke-width="0"/><path d="M313.69844,350.12952c0,5.17949 -6.62135,9.37831 -14.7892,9.37831c-8.16786,0 -14.78921,-4.19881 -14.78921,-9.37831c0,-5.17949 -1.19937,-23.22245 6.96848,-23.22245c1.39139,0 -1.84906,4.43102 -3.74606,9.91794c-1.73939,5.03103 -2.17365,11.09206 -0.60288,12.41785c3.50465,2.95806 12.40603,5.06085 18.43858,4.08342c5.6251,-0.91141 8.52028,-4.87988 8.52028,-3.19675z" fill="#bb1c79" stroke="none" stroke-width="0"/><path d="M313.09684,341.30946c0,4.4819 1.60798,10.80385 -0.69525,13.90312c-2.67164,3.59501 -9.56654,3.62536 -13.89342,3.62536c-4.03822,0 -9.1972,-0.6316 -11.83871,-3.81706c-2.62887,-3.17021 -2.74995,-8.88268 -2.74995,-13.71142c0,-9.68072 6.53157,-17.52849 14.58867,-17.52849c8.0571,0 14.58867,7.84777 14.58867,17.52849z" fill="none" stroke="#000000" stroke-width="3.5"/></g></g><g><path d="M275.0559,140.23249c0,5.30193 -13.25237,9.6 -29.6,9.6c-16.34763,0 -29.6,-4.29807 -29.6,-9.6c0,-5.30193 13.25237,-9.6 29.6,-9.6c16.34763,0 29.6,4.29807 29.6,9.6z" fill="#000000" stroke="#000000" stroke-width="3.5" stroke-linecap="butt"/><path d="M277.98888,141.7285c0,2.35964 -5.41697,5.36778 -8.43729,7.25586c-5.88686,3.68003 -12.97264,5.34414 -25.27975,5.34414c-18.6214,0 -33.71703,-5.64121 -33.71703,-12.6c0,-2.39206 -5.74615,-12.62842 -2.64865,-14.53349c3.3361,-2.05181 1.25967,7.68281 7.42798,13.94319c4.76555,4.83668 22.60743,8.1903 27.93372,8.1903c8.71549,0 21.49033,-0.51146 28.33116,-7.3676c4.70845,-4.719 4.58038,-16.54855 6.56423,-16.70403c1.29214,-0.10126 -0.17437,15.01153 -0.17437,16.47163z" fill="#ff48b3" stroke="#000000" stroke-width="0" stroke-linecap="butt"/><path d="M218.14539,146.85793c6.18542,3.42996 17.31991,5.5988 26.18976,5.5988c8.27103,0 17.90874,-1.10638 23.7584,-5.0121c6.92301,-4.62239 9.3416,-12.04386 9.3416,-10.1879c0,1.53488 -1.58182,7.14877 -6.49883,10.44874c-6.05235,4.06193 -16.43672,5.75126 -26.40117,5.75126c-11.35728,0 -22.91591,-1.86617 -29.18879,-5.58746c-3.70191,-2.1961 -4.91121,-6.34174 -4.91121,-7.61254c0,-1.74242 1.30166,3.0475 7.71024,6.6012z" fill="#bb1c79" stroke="none" stroke-width="0" stroke-linecap="butt"/><g><g fill="none" stroke="none" stroke-width="1" stroke-linecap="butt" font-family="sans-serif" font-weight="normal" font-size="12" text-anchor="start"/><g stroke-linecap="butt"><g data-paper-data="{&quot;index&quot;:null}"><path d="M281.01403,27.26244c3.79721,-1.11821 11.44802,2.75839 14.27709,4.67133c3.61883,2.44695 8.82036,4.41354 8.43645,9.86822c-0.3429,4.8719 -5.87106,13.07127 -9.3382,18.19887c-3.02304,4.47081 -4.7099,9.56085 -8.52747,11.79466c-5.46294,3.19658 -13.15113,2.2237 -17.18395,-0.50319c-2.64486,-1.78839 -8.40613,-5.81215 -8.90634,-9.4112c-0.79548,-5.72361 5.29618,-11.98317 9.80809,-18.65589c4.31429,-6.38047 6.03606,-14.37313 11.43433,-15.9628z" data-paper-data="{&quot;index&quot;:null}" fill="#ff48b3" stroke="#000000" stroke-width="0"/><path d="M260.1669,54.1526c2.71657,-4.01756 17.70729,-30.31677 24.60058,-25.65572c1.21116,0.81896 21.64927,9.83211 19.74122,12.46112c-1.55599,2.14394 -15.15897,-8.82519 -20.63711,-7.07651c-10.91407,3.48389 -16.27801,19.51547 -16.77415,24.76414c-0.68746,7.2728 19.10683,10.79699 18.03229,12.38614c-2.71657,4.01756 -10.5069,3.49591 -17.40019,-1.16514c-6.89329,-4.66105 -10.2792,-11.69646 -7.56263,-15.71402z" data-paper-data="{&quot;index&quot;:null}" fill="#bb1c79" stroke="none" stroke-width="0"/><path d="M280.75505,27.30022c3.79721,-1.11819 11.44801,2.75838 14.27709,4.67132c3.61881,2.44694 8.82036,4.41354 8.43644,9.86823c-0.34289,4.87191 -5.87105,13.07126 -9.33819,18.19887c-3.02304,4.47081 -4.7099,9.56085 -8.52747,11.79465c-5.46294,3.19658 -13.15113,2.2237 -17.18395,-0.50319c-2.64486,-1.78839 -8.40613,-5.81215 -8.90634,-9.4112c-0.79549,-5.72361 5.29616,-11.98316 9.80807,-18.65588c4.3143,-6.38048 6.03608,-14.37312 11.43434,-15.9628z" data-paper-data="{&quot;index&quot;:null}" fill="none" stroke="#000000" stroke-width="3.5"/><path d="M286.78706,35.10745c4.75648,-1.37314 10.6086,5.58225 13.0576,7.23819c4.3136,2.91674 -0.51421,8.35147 -6.00453,16.47118c-2.35306,3.47997 -3.73396,8.09847 -6.51023,9.89053c-3.7015,2.38929 -8.77647,1.19694 -11.24133,-0.46972c-1.77085,-1.1974 -8.0855,-3.9594 -8.13144,-6.71491c-0.06595,-3.95659 7.0257,-8.48199 10.26209,-13.26833c2.37325,-3.50984 4.94637,-12.10146 8.56784,-13.14693z" data-paper-data="{&quot;index&quot;:null}" fill="none" stroke="#000000" stroke-width="3.5"/><path d="M278.17192,48.00948c2.37327,-3.50985 4.94639,-12.10146 8.56784,-13.14693c4.75648,-1.37314 10.60861,5.58224 13.05761,7.23819c4.31359,2.91674 -0.51422,8.35146 -6.00454,16.47117c-2.35307,3.47998 -3.73396,8.09848 -6.51023,9.89054c-3.7015,2.38929 -8.77647,1.19694 -11.24133,-0.46972c-1.77084,-1.19739 -8.08549,-3.9594 -8.13142,-6.71491c-0.06595,-3.95659 7.02568,-8.48199 10.26207,-13.26833z" data-paper-data="{&quot;index&quot;:null}" fill="#ff94d2" stroke="#000000" stroke-width="0"/><path d="M285.49268,68.38044c-1.4558,2.153 -8.5791,0.52899 -12.51602,-2.13305c-3.93691,-2.66204 -5.94826,-6.56539 -4.49246,-8.71839c0.67536,-0.99878 5.83811,-3.93936 9.42973,-9.03244c4.15053,-5.88564 6.87329,-13.86587 8.98386,-12.43877c2.19579,1.48473 -8.71969,12.56755 -9.6121,20.80027c-0.70763,6.52807 8.85082,10.5702 8.20698,11.52238z" fill="#ea88c1" stroke="none" stroke-width="0"/><path d="M278.10084,47.82955c2.37327,-3.50985 4.94639,-12.10147 8.56785,-13.14694c4.75648,-1.37314 10.6086,5.58225 13.0576,7.2382c4.31359,2.91674 -0.51422,8.35145 -6.00454,16.47116c-2.35307,3.47998 -3.73395,8.09847 -6.51022,9.89053c-3.7015,2.38929 -8.77648,1.19694 -11.24133,-0.46972c-1.77084,-1.19739 -8.08549,-3.95939 -8.13142,-6.7149c-0.06595,-3.95659 7.02569,-8.48199 10.26208,-13.26834z" data-paper-data="{&quot;index&quot;:null}" fill="none" stroke="#000000" stroke-width="3.5"/></g><g data-paper-data="{&quot;index&quot;:null}"><path d="M299.01468,51.02526c-5.79454,2.50252 -12.20271,-8.24711 -14.85245,-14.38251c-2.64973,-6.13539 -0.10036,-13.13781 5.69418,-15.64033c2.71259,-1.1715 17.20969,-3.59587 24.67504,-0.12253c8.48182,3.94626 9.92649,14.1135 11.3358,17.37673c2.64973,6.13539 -21.05804,10.26612 -26.85258,12.76865z" fill="#ff48b3" stroke="#000000" stroke-width="0"/><path d="M300.15056,50.91257c-5.79454,2.50252 -12.99798,-1.27146 -16.08933,-8.42942c-2.85977,-6.62173 -1.19867,-13.81975 3.65365,-16.84224c0.39294,-0.24476 -2.72805,-1.86466 -2.29395,-2.05214c5.79454,-2.50252 20.02772,-10.25905 23.11907,-3.10109c1.58996,3.68153 -15.09396,1.15552 -16.96838,7.69985c-0.78595,2.744 -1.16926,7.51102 1.22725,11.82644c3.00066,5.40329 8.91635,10.22287 7.3517,10.8986z" fill="#bb1c79" stroke="none" stroke-width="0"/><path d="M298.55795,51.04861c-5.79454,2.50252 -12.20271,-8.24713 -14.85245,-14.38252c-2.64973,-6.13539 -0.10036,-13.13781 5.69418,-15.64033c2.7126,-1.17151 17.2097,-3.59588 24.67504,-0.12253c8.48181,3.94627 9.92648,14.1135 11.3358,17.37673c2.64973,6.13539 -21.05804,10.26613 -26.85258,12.76865z" fill="none" stroke="#000000" stroke-width="3.5"/><path d="M297.75791,46.79245c-4.77197,2.0609 -10.40658,-0.35791 -12.58525,-5.40256c-2.17866,-5.04466 -5.62553,-12.80203 -0.85357,-14.86292c0.88995,-0.38435 8.47305,1.88463 13.2447,1.84978c7.31873,-0.05345 13.04734,-2.14999 17.12509,-1.16619c7.51928,1.8141 5.93916,7.42642 7.08832,10.08728c2.17866,5.04466 -19.24732,7.43372 -24.01929,9.49462z" fill="#ff94d2" stroke="#000000" stroke-width="0"/><path d="M293.99532,46.83384c-2.24964,0.97157 -6.00656,-2.71717 -8.39132,-8.23902c-2.38476,-5.52186 -2.49428,-10.78581 -0.24464,-11.75738c1.17784,-0.50869 0.01788,12.91813 8.81347,15.11962c8.00377,2.00331 26.02438,-7.36381 27.16056,-4.73302c2.38476,5.52186 -25.08842,8.63823 -27.33806,9.6098z" fill="#ea88c1" stroke="none" stroke-width="0"/><path d="M298.10803,46.52224c-4.77197,2.0609 -10.40658,-0.35791 -12.58525,-5.40258c-2.17867,-5.04465 -5.62553,-12.80201 -0.85356,-14.86292c0.88995,-0.38435 8.47305,1.88462 13.2447,1.84977c7.31873,-0.05345 13.04735,-2.14998 17.1251,-1.16618c7.51928,1.8141 5.93915,7.42641 7.08831,10.08727c2.17866,5.04466 -19.24732,7.43372 -24.01929,9.49462z" fill="none" stroke="#000000" stroke-width="3.5"/></g></g><g stroke-linecap="butt"><g><path d="M227.8048,48.29357c2.76478,7.56562 7.16234,15.11225 5.00665,20.47374c-1.35551,3.37134 -7.9187,5.88283 -10.91747,6.9787c-4.57246,1.67096 -12.26779,0.75621 -16.79582,-3.66633c-3.16424,-3.09052 -3.57043,-8.43739 -5.42287,-13.50645c-2.12457,-5.81373 -5.50635,-15.1064 -4.66119,-19.91668c0.94627,-5.38568 6.46895,-6.03635 10.57202,-7.53578c3.20764,-1.1722 11.56872,-3.08403 14.98293,-1.08094c4.85378,2.84766 4.59207,11.01949 7.23576,18.25374z" data-paper-data="{&quot;index&quot;:null}" fill="#ff48b3" stroke="#000000" stroke-width="0"/><path d="M234.29643,61.17251c1.66464,4.55516 -3.32178,10.56324 -11.13748,13.41941c-7.8157,2.85617 -15.50103,1.47886 -17.16567,-3.0763c-0.65845,-1.80179 19.40066,-0.43573 20.49194,-7.65898c0.78756,-5.21291 -0.54126,-22.06573 -10.28924,-28.08498c-4.89284,-3.02126 -20.74429,4.33362 -21.73578,1.87709c-1.21582,-3.01234 20.79507,-6.81673 22.16831,-7.31856c7.8157,-2.85617 16.00329,26.28715 17.66793,30.84232z" data-paper-data="{&quot;index&quot;:null}" fill="#bb1c79" stroke="none" stroke-width="0"/><path d="M228.04698,48.39285c2.76478,7.56562 7.16234,15.11225 5.00664,20.47373c-1.35551,3.37134 -7.9187,5.88283 -10.91747,6.97871c-4.57246,1.67096 -12.26778,0.7562 -16.79582,-3.66634c-3.16424,-3.09052 -3.57043,-8.43739 -5.42287,-13.50644c-2.12457,-5.81374 -5.50636,-15.1064 -4.66119,-19.91668c0.94626,-5.38568 6.46896,-6.03635 10.57202,-7.53578c3.20765,-1.17221 11.56871,-3.08402 14.98292,-1.08094c4.85378,2.84767 4.59208,11.01947 7.23577,18.25373z" data-paper-data="{&quot;index&quot;:null}" fill="none" stroke="#000000" stroke-width="3.5"/><path d="M218.20568,51.08473c1.98317,5.42681 7.77032,11.53252 6.74973,15.35578c-0.71078,2.66266 -7.50586,3.81601 -9.51367,4.54975c-2.79468,1.02129 -8.00737,0.95128 -11.02139,-2.26205c-2.26064,-2.41012 -2.48396,-7.22546 -3.92585,-11.1711c-3.36433,-9.20623 -6.73494,-15.64695 -1.84413,-17.43425c2.7767,-1.01472 10.13682,-6.34888 14.42021,-3.8665c3.26126,1.89003 3.68083,10.84886 5.1351,14.82836z" data-paper-data="{&quot;index&quot;:null}" fill="none" stroke="#000000" stroke-width="3.5"/><path d="M218.3108,50.85854c1.98317,5.42682 7.77032,11.53252 6.74973,15.35578c-0.71078,2.66266 -7.50586,3.81602 -9.51366,4.54975c-2.79468,1.02129 -8.00737,0.95127 -11.02139,-2.26205c-2.26064,-2.41012 -2.48395,-7.22545 -3.92585,-11.1711c-3.36433,-9.20623 -6.73495,-15.64695 -1.84414,-17.43425c2.7767,-1.01472 10.13683,-6.34888 14.42022,-3.8665c3.26126,1.89002 3.68083,10.84886 5.13511,14.82837z" data-paper-data="{&quot;index&quot;:null}" fill="#ff94d2" stroke="#000000" stroke-width="0"/><path d="M217.03139,59.65888c1.12451,-8.20425 -6.78763,-21.59732 -4.29802,-22.50713c2.39298,-0.87449 3.10558,7.52727 5.71,14.24179c2.25371,5.81034 6.55235,9.91189 6.96619,11.04432c0.89208,2.4411 -2.00331,5.74237 -6.46704,7.3736c-4.46373,1.63123 -11.76834,1.48485 -12.66042,-0.95625c-0.39452,-1.07959 9.85763,-2.69084 10.74929,-9.19633z" fill="#ea88c1" stroke="none" stroke-width="0"/><path d="M218.42325,50.70112c1.98317,5.42682 7.77031,11.53252 6.74972,15.35578c-0.71078,2.66266 -7.50586,3.81601 -9.51367,4.54975c-2.79468,1.02129 -8.00737,0.95127 -11.02139,-2.26205c-2.26064,-2.41012 -2.48394,-7.22545 -3.92584,-11.1711c-3.36433,-9.20623 -6.73495,-15.64694 -1.84414,-17.43424c2.7767,-1.01472 10.13682,-6.34888 14.42021,-3.8665c3.26126,1.89002 3.68083,10.84887 5.13511,14.82838z" data-paper-data="{&quot;index&quot;:null}" fill="none" stroke="#000000" stroke-width="3.5"/></g><g><path d="M177.74998,6.0911c3.28619,-1.35491 11.41399,-7.63175 20.24399,-4.54223c7.77181,2.71926 16.46749,14.56953 17.59377,17.30121c2.40592,5.83531 -0.65242,12.63088 -6.83098,15.17832c-6.17856,2.54745 -18.26891,5.77901 -20.67483,-0.0563c-2.40592,-5.83532 -16.51051,-25.33356 -10.33195,-27.881z" fill="#ff48b3" stroke="#000000" stroke-width="0"/><path d="M187.34669,33.09897c-0.64964,-1.57565 6.95101,-0.90199 12.87028,-2.68008c4.72751,-1.4201 7.77837,-5.10299 9.12948,-7.6173c3.22236,-5.99652 -10.49354,-15.82545 -6.78611,-17.35404c7.20832,-2.97201 11.99517,12.51454 14.40109,18.34985c0.18024,0.43715 -3.18595,-0.57943 -3.07516,-0.12995c1.3681,5.55056 -2.46311,11.86661 -9.13144,14.61598c-7.20833,2.97201 -15.00221,0.65085 -17.40813,-5.18446z" fill="#bb1c79" stroke="none" stroke-width="0"/><path d="M188.39289,34.30745c-2.40592,-5.83531 -16.51051,-25.33356 -10.33195,-27.881c3.28619,-1.3549 11.41398,-7.63174 20.24399,-4.54223c7.77181,2.71926 16.46749,14.56952 17.59377,17.30121c2.40592,5.83531 -0.65242,12.63088 -6.83098,15.17832c-6.17857,2.54744 -18.26892,5.77901 -20.67484,-0.0563z" fill="none" stroke="#000000" stroke-width="3.5"/><path d="M191.93522,31.81612c-1.98134,-4.80555 -15.66608,-21.46413 -10.58593,-23.5587c2.67958,-1.1048 5.46264,-6.22823 12.11559,-2.28252c3.60794,2.13978 6.24984,7.63822 11.4563,12.78209c3.39449,3.35369 10.41051,7.01801 10.78002,7.91422c1.98134,4.80554 -5.89986,7.95901 -10.98001,10.05358c-5.08015,2.09457 -10.80462,-0.10313 -12.78597,-4.90868z" fill="#ff94d2" stroke="#000000" stroke-width="0"/><path d="M181.71875,8.51412c2.6493,-1.09232 9.02623,18.19033 16.15831,22.33846c7.83767,4.55851 16.37317,-5.87077 16.86222,-4.68464c0.93405,2.26547 -2.81658,5.9606 -8.37729,8.2533c-5.56071,2.2927 -10.82576,2.31477 -11.75982,0.0493c-0.93405,-2.26548 -18.44413,-23.66372 -12.88342,-25.95642z" fill="#ea88c1" stroke="none" stroke-width="0"/><path d="M191.87287,31.37826c-1.98135,-4.80555 -15.66608,-21.46413 -10.58593,-23.5587c2.67958,-1.1048 5.46263,-6.22823 12.11558,-2.28252c3.60794,2.13978 6.24985,7.63822 11.45631,12.78209c3.39449,3.35369 10.4105,7.01802 10.78001,7.91423c1.98134,4.80555 -5.89985,7.95901 -10.98,10.05358c-5.08016,2.09456 -10.80463,-0.10313 -12.78598,-4.90868z" fill="none" stroke="#000000" stroke-width="3.5"/></g></g><g><g><g><g><path d="M216.96038,137.94685c0,0 -5.69665,-0.25298 -6.31288,-3.71271c-0.63884,-3.58664 0.72215,-12.16339 0.72215,-12.16339l46.52805,5.72901c0,0 16.52911,-6.27891 16.52911,-3.51598c0,1.04691 2.21594,7.8557 -2.25521,11.50008c-5.30221,4.32177 -17.43387,5.47979 -17.43387,5.47979c0,0 -5.38612,2.6934 -11.16064,2.83293c-6.6427,0.16052 -13.87796,-2.22988 -15.32413,-2.22988c-0.28674,0 -11.29258,-3.91985 -11.29258,-3.91985z" fill="#ffffff" stroke="#000000" stroke-width="0" stroke-linecap="butt"/><path d="M243.70523,140.19063c17.81982,0 31.52616,-11.69135 31.52616,-7.64139c0,4.04996 -15.1853,9.73641 -33.00512,9.73641c-17.81982,0 -31.52616,-5.68645 -31.52616,-9.73641c0,-4.04996 15.1853,7.64139 33.00512,7.64139z" fill="#d6d6d6" stroke="none" stroke-width="0" stroke-linecap="butt"/><path d="M217.24022,137.64003c0,0 -5.69665,-0.25298 -6.31288,-3.71271c-0.63884,-3.58664 0.72215,-12.16339 0.72215,-12.16339l46.52805,5.72901c0,0 16.52911,-6.27891 16.52911,-3.51598c0,1.04691 2.21594,7.8557 -2.25521,11.50008c-5.30221,4.32177 -17.43387,5.47979 -17.43387,5.47979c0,0 -5.38612,2.6934 -11.16064,2.83293c-6.6427,0.16052 -13.87796,-2.22988 -15.32413,-2.22988c-0.28674,0 -11.29258,-3.91985 -11.29258,-3.91985z" fill="none" stroke="#000000" stroke-width="3.5" stroke-linecap="butt"/><path d="M207.21417,96.96177c0,-15.36496 8.05104,-28.6809 19.80703,-35.21208c4.93523,-2.74182 10.5234,-4.28792 16.44297,-4.28792c20.02032,0 36.25,17.68475 36.25,39.5c0,9.21205 6.10597,17.18757 1.25456,23.90593c-6.63731,9.19151 -25.93834,15.59406 -37.50456,15.59406c-12.57078,0 -32.64707,-6.97238 -39.14949,-17.56172c-3.85338,-6.27532 2.89949,-13.82085 2.89949,-21.93828z" fill="#ff48b3" stroke="#000000" stroke-width="0" stroke-linecap="butt"/><path d="M242.98411,84.3347c10.43079,0 18.88661,5.65332 18.88661,12.62705c0,6.97373 -8.45582,12.62705 -18.88661,12.62705c-10.43079,0 -18.88661,-5.65332 -18.88661,-12.62705c0,-6.97373 8.45582,-12.62705 18.88661,-12.62705z" fill="#bb1c79" stroke="none" stroke-width="0" stroke-linecap="butt"/><path d="M226.48592,79.98035c7.21214,0 13.05874,8.35919 13.05874,18.67077c0,10.31158 -5.8466,18.67077 -13.05874,18.67077c-5.98515,0 -13.83588,-1.87161 -15.37915,-9.72371c-0.31638,-1.60973 2.32041,-7.19276 2.32041,-8.94706c0,-10.31158 5.8466,-18.67077 13.05874,-18.67077z" fill="#000000" stroke="#000000" stroke-width="3.5" stroke-linecap="butt"/><path d="M229.86967,126.87126c16.03562,3.36004 33.99202,1.60614 42.9144,-6.61037c4.69835,-4.32665 2.59517,-26.66105 -3.77903,-42.31397c-4.16189,-10.22022 -14.16038,-16.63588 -11.39419,-16.63588c22.36753,0 25.5,52.35296 25.5,55.66667c0,3.31371 -16.4658,18.33333 -38.83333,18.33333c-22.36754,0 -42.16667,-15.01962 -42.16667,-18.33333c0,-1.08433 13.17079,6.83683 27.75882,9.89355z" fill="#bb1c79" stroke="none" stroke-width="0" stroke-linecap="butt"/><path d="M271.76894,97.60742c0,1.7543 2.63679,7.33732 2.32041,8.94705c-1.54327,7.8521 -9.394,9.72371 -15.37915,9.72371c-7.21215,0 -13.05874,-8.35918 -13.05874,-18.67076c0,-10.31158 5.8466,-18.67077 13.05874,-18.67077c7.21214,0 13.05875,8.35919 13.05875,18.67077z" data-paper-data="{&quot;index&quot;:null}" fill="#000000" stroke="#000000" stroke-width="3.5" stroke-linecap="butt"/><path d="M243.46417,57.46175c20.02032,0 36.25,17.68475 36.25,39.5c0,9.21205 6.10597,17.18757 1.25456,23.90593c-6.63731,9.19152 -25.93834,15.59407 -37.50456,15.59407c-12.57078,0 -32.64706,-6.97239 -39.14949,-17.56172c-3.85339,-6.27532 2.89949,-13.82085 2.89949,-21.93828c0,-21.81525 16.22968,-39.5 36.25,-39.5z" fill="none" stroke="#000000" stroke-width="3.5" stroke-linecap="butt"/><path d="M213.34274,108.79883c10.17635,-5.2326 28.29463,-3.48778 38.76811,-3.48778c17.48902,0 25.66667,5.1983 25.66667,13.66667c0,8.46836 -17.51098,16.33333 -35,16.33333c-17.48901,0 -35.66667,-7.1983 -35.66667,-15.66667c0,-3.397 -0.58463,-7.34055 6.23189,-10.84555z" fill="#ff94d2" stroke="#000000" stroke-width="0" stroke-linecap="butt"/><path d="M208.27176,121.31453c0,-2.93666 14.78082,8.9286 34.07892,8.9286c5.99533,0 30.72091,-4.35035 32.47521,-11.17283c0.46768,-1.8188 -3.29224,-5.05558 -8.58117,-7.42432c-5.18958,-2.32425 -11.91552,-3.78865 -10.91235,-4.75217c2.94458,-2.82817 15.14489,5.14127 17.13384,4.34005c2.3906,-0.96302 5.69016,9.23872 5.69016,10.08068c0,2.93667 -14.78081,13.73534 -34.07892,13.73534c-19.2981,0 -35.80569,-10.79867 -35.80569,-13.73534z" fill="#ea88c1" stroke="none" stroke-width="0" stroke-linecap="butt"/><path d="M207.44419,119.97772c0,-3.397 -0.58462,-7.34056 6.23189,-10.84556c0.9587,-0.49295 1.98787,-0.92398 3.0745,-1.30038c10.44777,-3.61897 26.20682,-2.18741 35.69361,-2.18741c17.48902,0 25.66667,5.1983 25.66667,13.66667c0,8.46836 -17.51098,16.33333 -35,16.33333c-17.48902,0 -35.66667,-7.1983 -35.66667,-15.66667z" fill="none" stroke="#000000" stroke-width="3.5" stroke-linecap="butt"/><path d="M241.41489,121.9976c8.04661,0 14.13798,6.20773 14.13798,9.60519c0,3.39746 -6.09137,2.69809 -14.13798,2.69809c-8.04661,0 -14.56967,-0.59571 -14.56967,-3.99317c0,-3.39745 6.52306,-8.31011 14.56967,-8.31011z" fill="#ff0000" stroke="#000000" stroke-width="0" stroke-linecap="butt"/><path d="M227.88893,131.89103c0,-2.02655 -1.87558,-7.98633 5.39617,-7.98633c3.27326,0 -1.00772,5.74037 3.027,7.25321c4.92866,1.84803 17.91016,-0.38121 17.91016,0.73313c0,2.02656 -5.89492,3.6694 -13.16667,3.6694c-7.27175,0 -13.16666,-1.64284 -13.16666,-3.6694z" fill="#d00000" stroke="none" stroke-width="0" stroke-linecap="butt"/><path d="M241.37937,122.39376c8.04661,0 14.13798,6.20773 14.13798,9.60519c0,3.39746 -6.09137,2.69809 -14.13798,2.69809c-8.04661,0 -14.56967,-0.59571 -14.56967,-3.99317c0,-3.39745 6.52306,-8.31011 14.56967,-8.31011z" fill="none" stroke="#000000" stroke-width="3.5" stroke-linecap="butt"/><path d="M227.06106,108.39975c0,-4.23193 7.1029,-7.66257 15.86476,-7.66257c8.76186,0 15.86475,3.43065 15.86475,7.66257c0,2.24389 -4.80295,1.88819 -7.98528,3.28957c-2.81947,1.24159 -3.76341,4.373 -7.87947,4.373c-2.94577,0 -5.70402,-3.84132 -8.06787,-4.51695c-4.66717,-1.33395 -7.79689,-0.33648 -7.79689,-3.14561z" fill="#222222" stroke="#000000" stroke-width="0" stroke-linecap="butt"/><path d="M228.32062,107.71671c0,-1.72854 7.78923,0.53961 15.00137,0.53961c7.21215,0 15.43306,-2.69984 15.43306,-0.97131c0,1.72853 -7.78922,7.87842 -15.00136,7.87842c-2.94447,0 -4.11447,-1.8165 -6.76714,-3.06211c-3.84475,-1.80537 -8.66592,-3.36178 -8.66592,-4.38461z" fill="#151515" stroke="none" stroke-width="0" stroke-linecap="butt"/><path d="M227.24139,108.14839c0,-4.23193 7.1029,-7.66257 15.86476,-7.66257c8.76186,0 15.86475,3.43065 15.86475,7.66257c0,2.24389 -4.80295,1.88819 -7.98528,3.28957c-2.81947,1.24159 -3.76341,4.373 -7.87947,4.373c-2.94577,0 -5.70402,-3.84132 -8.06787,-4.51695c-4.66717,-1.33395 -7.79689,-0.33648 -7.79689,-3.14561z" fill="none" stroke="#000000" stroke-width="3.5" stroke-linecap="butt"/><path d="M221.35091,138.55067v-5.17637" fill="none" stroke="#000000" stroke-width="3.5" stroke-linecap="round"/><path d="M235.58592,136.88684v6.10072" fill="none" stroke="#000000" stroke-width="3.5" stroke-linecap="round"/><path d="M252.22423,140.95398l-0.92435,-4.06715" fill="none" stroke="#000000" stroke-width="3.5" stroke-linecap="round"/><path d="M264.7954,137.81118l-0.55461,-5.17637" fill="none" stroke="#000000" stroke-width="3.5" stroke-linecap="round"/><path d="M225.87503,92.15131c3.22557,0 5.84041,2.56814 5.84041,5.73611c0,3.16797 -2.61484,5.73611 -5.84041,5.73611c-3.22557,0 -5.84041,-2.56814 -5.84041,-5.73611c0,-3.16797 2.61484,-5.73611 5.84041,-5.73611z" fill="#652c45" stroke="none" stroke-width="0" stroke-linecap="butt"/><path d="M226.00954,94.94313c1.63361,0 2.95792,1.3243 2.95792,2.95792c0,1.63361 -1.3243,2.95792 -2.95792,2.95792c-1.63361,0 -2.95792,-1.3243 -2.95792,-2.95792c0,-1.63361 1.3243,-2.95792 2.95792,-2.95792z" fill="#ff9cc7" stroke="none" stroke-width="0" stroke-linecap="butt"/><path d="M258.54332,91.88757c3.22557,0 5.84041,2.56814 5.84041,5.73611c0,3.16797 -2.61484,5.73611 -5.84041,5.73611c-3.22556,0 -5.8404,-2.56814 -5.8404,-5.73611c0,-3.16796 2.61484,-5.73611 5.8404,-5.73611z" fill="#652c45" stroke="none" stroke-width="0" stroke-linecap="butt"/><path d="M258.27293,94.54443c1.63362,0 2.95792,1.38473 2.95792,3.09289c0,1.70815 -1.32431,3.09289 -2.95792,3.09289c-1.63361,0 -2.95792,-1.38473 -2.95792,-3.09289c0,-1.70816 1.32431,-3.09289 2.95792,-3.09289z" fill="#ff9cc7" stroke="none" stroke-width="0" stroke-linecap="butt"/></g><path d="M271.51399,73.59648l-4.74863,10.14481" fill="none" stroke="#000000" stroke-width="3.5" stroke-linecap="round"/></g><path d="M235.89925,73.38062l-3.6694,7.98634" fill="none" stroke="#000000" stroke-width="3.5" stroke-linecap="round"/><path d="M227.91291,80.5036l-2.59016,-8.41803" fill="none" stroke="#000000" stroke-width="3.5" stroke-linecap="round"/><path d="M224.2435,81.79868l-5.39617,-6.69126" fill="none" stroke="#000000" stroke-width="3.5" stroke-linecap="round"/></g><path d="M255.97301,81.79868l-3.45355,-10.5765" fill="none" stroke="#000000" stroke-width="3.5" stroke-linecap="round"/><path d="M263.3118,69.92708l-3.2377,9.49727" fill="none" stroke="#000000" stroke-width="3.5" stroke-linecap="round"/></g><g fill="none" stroke="none" stroke-width="1" stroke-linecap="butt" font-family="sans-serif" font-weight="normal" font-size="12" text-anchor="start"/></g><path d="M277.78888,142.12849c0,2.35964 -5.41697,5.36778 -8.43728,7.25586c-5.88686,3.68003 -12.97264,5.34414 -25.27975,5.34414c-18.6214,0 -33.71703,-5.64121 -33.71703,-12.6c0,-2.39205 -5.74614,-12.62842 -2.64865,-14.53349c3.33609,-2.05181 1.25967,7.68281 7.42798,13.94319c4.76555,4.83668 22.60744,8.1903 27.93372,8.1903c8.71549,0 21.49033,-0.51146 28.33116,-7.3676c4.70846,-4.719 4.58037,-16.54855 6.56423,-16.70402c1.29214,-0.10126 -0.17437,15.01153 -0.17437,16.47163z" fill="none" stroke="#000000" stroke-width="3.5" stroke-linecap="butt"/></g></g></g></svg>