<svg version="1.1" xmlns="http://www.w3.org/2000/svg" xmlns:xlink="http://www.w3.org/1999/xlink" width="343.60128" height="331.99255" viewBox="0,0,343.60128,331.99255"><g transform="translate(-69.62129,-22.02276)"><g data-paper-data="{&quot;isPaintingLayer&quot;:true}" fill-rule="nonzero" stroke-linejoin="miter" stroke-miterlimit="10" stroke-dasharray="" stroke-dashoffset="0" style="mix-blend-mode: normal"><g fill="none" stroke="#000000" stroke-width="3.5" stroke-linecap="round"><path d="M369.90196,187.66463l3.43172,-64.5792"/><path d="M388.25126,130.48244l-43.54519,44.25287"/><path d="M366.55449,190.63017l-22.53364,-72.64458"/></g><g fill="none" stroke="#000000" stroke-width="3.5" stroke-linecap="round"><path d="M155.57495,253.20024l12.68219,-55.149"/><path d="M134.12532,209.76738l13.75495,47.56103"/><path d="M114.95599,246.46598l33.67127,-25.04986l28.43664,40.52909"/><path d="M150.35155,245.28089l-7.56551,-39.90004"/></g><g fill="none" stroke="#000000" stroke-width="3.5" stroke-linecap="round"><g><path d="M279.37308,155.39365l-9.72226,-38.28809l14.51319,-17.33832"/><path d="M234.46868,101.67126l21.48896,8.74498l17.88874,63.0178"/></g><path d="M247.03293,106.07464l-7.62167,-28.49842"/></g><g fill="none" stroke="#000000" stroke-width="3.5" stroke-linecap="round"><path d="M222.72785,227.5319l-12.27218,-45.88729"/><path d="M209.78169,229.44153l19.37151,-24.33094"/><path d="M225.3564,210.2666l-13.49659,-46.59498"/></g><g fill="none" stroke="#000000" stroke-width="3.5" stroke-linecap="round"><path d="M320.56271,210.1655l20.13537,-36.95696"/><path d="M326.71846,171.25398l8.97526,29.68913"/></g><g data-paper-data="{&quot;index&quot;:null}" stroke-linecap="butt"><g><g><path d="M299.13651,61.62396l20.7816,57.44041l-23.49955,7.1076l-20.7816,-57.44042z" fill="#252525" stroke="#000000" stroke-width="0"/><path d="M299.13651,61.62396l20.7816,57.44041l-23.49955,7.1076l-20.7816,-57.44042z" fill="#252525" stroke="#000000" stroke-width="0"/><path d="M318.26845,114.97129c1.51054,4.17517 -7.73934,-20.1896 -12.53403,-29.0311c-4.57323,-8.43312 -4.6275,-1.28272 -6.24061,-0.79484c-1.56826,0.47435 -12.26793,-8.68568 -12.0556,3.70663c0.12893,7.52512 12.279,40.40504 9.92658,38.12164c-1.93595,-1.87916 -20.72389,-55.98418 -21.42389,-57.91898c-0.83597,-2.31062 0.73468,-0.3015 2.28493,-1.0155c3.92284,-1.80673 12.26009,-3.11464 14.62844,-3.83097c2.1236,-0.64228 0.72633,-12.89582 8.63089,4.59815c4.39486,9.72649 15.72872,43.25013 16.7833,46.16498z" fill="#141414" stroke="none" stroke-width="0"/><path d="M299.13651,61.62396l20.7816,57.44041l-23.49955,7.1076l-20.7816,-57.44042z" fill="none" stroke="#000000" stroke-width="3.5"/><path d="M299.13651,61.62396l20.7816,57.44041l-23.49955,7.1076l-20.7816,-57.44042z" fill="none" stroke="#000000" stroke-width="3.5"/></g><g><path d="M313.78649,85.88303l4.20764,11.62993l-34.33255,10.38411l-4.20764,-11.62993z" fill="#252525" stroke="#000000" stroke-width="0"/><path d="M313.78649,85.88303l4.20764,11.62993l-34.33255,10.38411l-4.20764,-11.62993z" fill="#252525" stroke="#000000" stroke-width="0"/><path d="M312.62726,91.561c-2.65267,-1.18519 -5.65987,1.16876 -8.01659,1.88157c-2.29121,0.69299 -12.83571,1.37242 -17.63784,5.34691c-2.91606,2.41349 -0.16757,8.98341 -2.37527,9.04477c-1.81686,0.05049 -4.72816,-11.17411 -4.86989,-11.56585c-0.59755,-1.65164 17.89151,-7.34681 22.71907,-8.80693c3.10255,-0.93841 8.14436,-3.03997 11.53183,-0.03848c1.8834,1.66881 3.27656,8.72901 3.49007,9.31918c0.30584,0.84534 -2.06027,-3.93858 -4.84139,-5.18116z" fill="#141414" stroke="none" stroke-width="0"/><path d="M313.78649,85.88303l4.20764,11.62993l-34.33255,10.38411l-4.20764,-11.62993z" fill="none" stroke="#000000" stroke-width="3.5"/><path d="M313.78649,85.88303l4.20764,11.62993l-34.33255,10.38411l-4.20764,-11.62993z" fill="none" stroke="#000000" stroke-width="3.5"/></g><g><path d="M309.15484,66.82412l4.20765,11.62994l-38.78893,11.73198l-4.20763,-11.62994z" fill="#252525" stroke="#000000" stroke-width="0"/><path d="M309.15484,66.82412l4.20765,11.62994l-38.78893,11.73198l-4.20763,-11.62994z" fill="#252525" stroke="#000000" stroke-width="0"/><path d="M312.80816,77.69199c0.30584,0.84534 -2.13459,-3.91609 -5.18849,-5.07618c-2.91286,-1.10649 -6.37153,1.38403 -9.03415,2.18936c-2.58862,0.78294 -14.39554,1.84418 -19.92776,6.03949c-3.35937,2.54757 -0.56742,9.10436 -3.036,9.24462c-2.03155,0.11542 -4.80836,-11.14988 -4.9501,-11.54161c-0.59755,-1.65164 20.29576,-8.07398 25.74993,-9.72363c3.50526,-1.06019 9.2259,-3.3671 12.88264,-0.44706c2.03311,1.62353 3.29042,8.72483 3.50393,9.31498z" fill="#141414" stroke="none" stroke-width="0"/><path d="M309.15484,66.82412l4.20765,11.62994l-38.78893,11.73198l-4.20763,-11.62994z" fill="none" stroke="#000000" stroke-width="3.5"/><path d="M309.15484,66.82412l4.20765,11.62994l-38.78893,11.73198l-4.20763,-11.62994z" fill="none" stroke="#000000" stroke-width="3.5"/></g></g><g><path d="M324.15896,107.65382l4.83262,13.35736l-40.06216,12.11711l-4.83263,-13.35736z" fill="#252525" stroke="#000000" stroke-width="0"/><path d="M324.15896,107.65382l4.83262,13.35736l-40.06216,12.11711l-4.83263,-13.35736z" fill="#252525" stroke="#000000" stroke-width="0"/><path d="M322.77441,114.19123c-3.08346,-1.35011 -6.60116,1.37282 -9.35117,2.20457c-2.67359,0.80865 -14.9628,1.64296 -20.58143,6.23904c-3.41187,2.79092 -0.24899,10.33485 -2.8215,10.41647c-2.11707,0.06717 -5.44178,-12.83042 -5.60456,-13.28033c-0.68631,-1.89696 20.88894,-8.54087 26.52214,-10.24466c3.62032,-1.09499 9.50697,-3.53775 13.43567,-0.10197c2.18432,1.91027 3.76521,10.02495 4.01043,10.70279c0.35126,0.9709 -2.37679,-4.52041 -5.60957,-5.9359z" fill="#141414" stroke="none" stroke-width="0"/><path d="M324.15896,107.65382l4.83262,13.35736l-40.06216,12.11711l-4.83263,-13.35736z" fill="none" stroke="#000000" stroke-width="3.5"/><path d="M324.15896,107.65382l4.83262,13.35736l-40.06216,12.11711l-4.83263,-13.35736z" fill="none" stroke="#000000" stroke-width="3.5"/></g></g><g data-paper-data="{&quot;index&quot;:null}" stroke-linecap="butt"><g><g><path d="M322.3549,141.15049l-29.75568,53.34675l-20.77176,-13.08744l29.75568,-53.34675z" fill="#252525" stroke="#000000" stroke-width="0"/><path d="M322.3549,141.15049l-29.75568,53.34675l-20.77176,-13.08744l29.75568,-53.34675z" fill="#252525" stroke="#000000" stroke-width="0"/><path d="M294.60889,190.56837c-2.16286,3.87761 10.17371,-19.07913 13.70772,-28.4957c3.37078,-8.98164 -2.06469,-4.33546 -3.49054,-5.23385c-1.38623,-0.87338 -1.48243,-14.95813 -10.70177,-6.67449c-5.59835,5.03016 -22.46433,35.75884 -22.28197,32.48553c0.15008,-2.6938 28.69378,-52.34859 29.69606,-54.1455c1.19696,-2.14595 0.70927,0.35718 2.26468,1.05988c3.93587,1.77814 10.38875,7.21697 12.48219,8.53596c1.87708,1.18269 10.21487,-7.90481 2.18516,9.53208c-4.46444,9.69475 -22.35158,40.22901 -23.86154,42.93612z" fill="#141414" stroke="none" stroke-width="0"/><path d="M322.3549,141.15049l-29.75568,53.34675l-20.77176,-13.08744l29.75568,-53.34675z" fill="none" stroke="#000000" stroke-width="3.5"/><path d="M322.3549,141.15049l-29.75568,53.34675l-20.77176,-13.08744l29.75568,-53.34675z" fill="none" stroke="#000000" stroke-width="3.5"/></g><g><path d="M313.63798,168.11602l-6.02462,10.80109l-30.34728,-19.12059l6.02462,-10.8011z" fill="#252525" stroke="#000000" stroke-width="0"/><path d="M313.63798,168.11602l-6.02462,10.80109l-30.34728,-19.12059l6.02462,-10.8011z" fill="#252525" stroke="#000000" stroke-width="0"/><path d="M308.59017,170.96256c-0.84381,-2.78016 -4.59274,-3.50812 -6.6759,-4.82063c-2.02525,-1.27603 -9.45037,-8.79372 -15.5997,-9.8149c-3.73415,-0.6201 -6.89399,5.76217 -8.3875,4.13517c-1.2291,-1.33897 5.33918,-10.89539 5.54211,-11.2592c0.8556,-1.53392 17.27628,8.69553 21.54345,11.3841c2.74242,1.72787 7.63446,4.15777 7.5883,8.68345c-0.02567,2.51624 -4.44421,8.19637 -4.74994,8.74448c-0.43791,0.78509 1.62384,-4.13767 0.73916,-7.05245z" fill="#141414" stroke="none" stroke-width="0"/><path d="M313.63798,168.11602l-6.02462,10.80109l-30.34728,-19.12059l6.02462,-10.8011z" fill="none" stroke="#000000" stroke-width="3.5"/><path d="M313.63798,168.11602l-6.02462,10.80109l-30.34728,-19.12059l6.02462,-10.8011z" fill="none" stroke="#000000" stroke-width="3.5"/></g><g><path d="M324.99492,152.12496l-6.02463,10.8011l-34.28636,-21.60245l6.02463,-10.80109z" fill="#252525" stroke="#000000" stroke-width="0"/><path d="M324.99492,152.12496l-6.02463,10.8011l-34.28636,-21.60245l6.02463,-10.80109z" fill="#252525" stroke="#000000" stroke-width="0"/><path d="M319.18244,162.00788c-0.43791,0.78509 1.55814,-4.17905 0.43235,-7.24576c-1.0738,-2.92507 -5.2218,-3.90445 -7.57535,-5.38732c-2.28814,-1.44167 -10.82912,-9.66245 -17.62379,-11.09022c-4.12599,-0.867 -7.24743,5.53949 -8.97155,3.7672c-1.41887,-1.45854 5.2683,-10.94006 5.47123,-11.30388c0.8556,-1.53392 19.40144,10.03451 24.2225,13.07206c3.09838,1.95216 8.59046,4.76011 8.78231,9.43574c0.10666,2.59961 -4.43197,8.20408 -4.73768,8.75218z" fill="#141414" stroke="none" stroke-width="0"/><path d="M324.99492,152.12496l-6.02463,10.8011l-34.28636,-21.60245l6.02463,-10.80109z" fill="none" stroke="#000000" stroke-width="3.5"/><path d="M324.99492,152.12496l-6.02463,10.8011l-34.28636,-21.60245l6.02463,-10.80109z" fill="none" stroke="#000000" stroke-width="3.5"/></g></g><g><path d="M303.99624,190.22014l-6.91946,12.40541l-35.41183,-22.31152l6.91946,-12.40542z" fill="#252525" stroke="#000000" stroke-width="0"/><path d="M303.99624,190.22014l-6.91946,12.40541l-35.41183,-22.31152l6.91946,-12.40542z" fill="#252525" stroke="#000000" stroke-width="0"/><path d="M298.15168,193.45988c-1.00165,-3.2136 -5.36386,-4.08522 -7.79465,-5.61676c-2.36324,-1.48897 -11.049,-10.22273 -18.20297,-11.45307c-4.34418,-0.74713 -7.96794,6.58656 -9.7159,4.69735c-1.43849,-1.55476 6.12222,-12.52002 6.35528,-12.93787c0.98268,-1.76177 20.14285,10.17642 25.12216,13.31368c3.20009,2.01624 8.90357,4.86051 8.88423,10.0796c-0.01077,2.90177 -5.10258,9.41488 -5.45372,10.04441c-0.50295,0.90171 1.85575,-4.7581 0.80559,-8.12731z" fill="#141414" stroke="none" stroke-width="0"/><path d="M303.99624,190.22014l-6.91946,12.40541l-35.41183,-22.31152l6.91946,-12.40542z" fill="none" stroke="#000000" stroke-width="3.5"/><path d="M303.99624,190.22014l-6.91946,12.40541l-35.41183,-22.31152l6.91946,-12.40542z" fill="none" stroke="#000000" stroke-width="3.5"/></g></g><g stroke-linecap="butt"><g><g><path d="M233.43534,124.35861l27.51511,54.53618l-22.4785,9.8724l-27.5151,-54.53619z" fill="#252525" stroke="#000000" stroke-width="0"/><path d="M233.43534,124.35861l27.51511,54.53618l-22.4785,9.8724l-27.5151,-54.53619z" fill="#252525" stroke="#000000" stroke-width="0"/><path d="M258.82219,175.02889c1.99998,3.96407 -10.10294,-19.11669 -15.92258,-27.31992c-5.55085,-7.82433 -4.74787,-0.71895 -6.29089,-0.04128c-1.50011,0.65886 -13.22036,-7.153 -11.52455,5.12458c1.02976,7.45544 17.03236,38.64245 14.42327,36.6574c-2.14719,-1.63363 -27.2833,-53.09737 -28.21011,-54.93433c-1.10683,-2.19379 0.69326,-0.38736 2.14678,-1.28199c3.67806,-2.2638 11.7985,-4.56136 14.06394,-5.55632c2.03132,-0.89214 -0.82424,-12.88994 9.1197,3.53076c5.52874,9.12976 20.79817,41.05365 22.19444,43.82112z" fill="#141414" stroke="none" stroke-width="0"/><path d="M233.43534,124.35861l27.51511,54.53618l-22.4785,9.8724l-27.5151,-54.53619z" fill="none" stroke="#000000" stroke-width="3.5"/><path d="M233.43534,124.35861l27.51511,54.53618l-22.4785,9.8724l-27.5151,-54.53619z" fill="none" stroke="#000000" stroke-width="3.5"/></g><g><path d="M250.8868,146.68732l5.57097,11.04191l-32.8408,14.42346l-5.57097,-11.04192z" fill="#252525" stroke="#000000" stroke-width="0"/><path d="M250.8868,146.68732l5.57097,11.04191l-32.8408,14.42346l-5.57097,-11.04192z" fill="#252525" stroke="#000000" stroke-width="0"/><path d="M250.41633,152.4633c-2.77558,-0.85877 -5.47903,1.83859 -7.73335,2.82867c-2.19166,0.96256 -12.57876,2.90067 -16.87,7.42198c-2.60583,2.74554 0.91014,8.93876 -1.27429,9.26423c-1.79771,0.26785 -6.03311,-10.52701 -6.22076,-10.89893c-0.79117,-1.56813 16.8822,-9.43786 21.5,-11.46596c2.96774,-1.30343 7.72138,-3.99403 11.44412,-1.4201c2.06981,1.43109 4.29898,8.27347 4.58168,8.8338c0.40494,0.8026 -2.5174,-3.6633 -5.42738,-4.56367z" fill="#141414" stroke="none" stroke-width="0"/><path d="M250.8868,146.68732l5.57097,11.04191l-32.8408,14.42346l-5.57097,-11.04192z" fill="none" stroke="#000000" stroke-width="3.5"/><path d="M250.8868,146.68732l5.57097,11.04191l-32.8408,14.42346l-5.57097,-11.04192z" fill="none" stroke="#000000" stroke-width="3.5"/></g><g><path d="M244.00464,128.32078l5.57098,11.04193l-37.10355,16.29562l-5.57096,-11.04192z" fill="#252525" stroke="#000000" stroke-width="0"/><path d="M244.00464,128.32078l5.57098,11.04193l-37.10355,16.29562l-5.57096,-11.04192z" fill="#252525" stroke="#000000" stroke-width="0"/><path d="M248.93396,138.67254c0.40494,0.8026 -2.58848,-3.63208 -5.75939,-4.41785c-3.02447,-0.74946 -6.15976,2.13757 -8.70669,3.25617c-2.47615,1.0875 -14.07083,3.55595 -19.06043,8.38398c-3.02988,2.93177 0.52767,9.10675 -1.90632,9.54182c-2.00308,0.35805 -6.10983,-10.49332 -6.29749,-10.86525c-0.79117,-1.56813 19.18198,-10.44791 24.39917,-12.73925c3.35296,-1.47259 8.75592,-4.4484 12.73623,-1.9876c2.21301,1.36819 4.31222,8.26765 4.59492,8.82796z" fill="#141414" stroke="none" stroke-width="0"/><path d="M244.00464,128.32078l5.57098,11.04193l-37.10355,16.29562l-5.57096,-11.04192z" fill="none" stroke="#000000" stroke-width="3.5"/><path d="M244.00464,128.32078l5.57098,11.04193l-37.10355,16.29562l-5.57096,-11.04192z" fill="none" stroke="#000000" stroke-width="3.5"/></g></g><g><path d="M263.79338,167.05827l6.39844,12.682l-38.32146,16.83056l-6.39845,-12.682z" fill="#252525" stroke="#000000" stroke-width="0"/><path d="M263.79338,167.05827l6.39844,12.682l-38.32146,16.83056l-6.39845,-12.682z" fill="#252525" stroke="#000000" stroke-width="0"/><path d="M263.2022,173.71448c-3.22303,-0.97089 -6.38909,2.15396 -9.01961,3.30927c-2.55742,1.1232 -14.65809,3.42414 -19.68548,8.6604c-3.05284,3.17966 0.99127,10.29019 -1.55293,10.67952c-2.09377,0.32039 -6.94007,-12.08585 -7.15559,-12.51302c-0.90869,-1.80105 19.71494,-10.98251 25.10338,-13.34907c3.46303,-1.52093 9.01453,-4.65151 13.32664,-1.71126c2.39749,1.63475 4.93939,9.50151 5.26407,10.14508c0.46508,0.92181 -2.90135,-4.20302 -6.28047,-5.22091z" fill="#141414" stroke="none" stroke-width="0"/><path d="M263.79338,167.05827l6.39844,12.682l-38.32146,16.83056l-6.39845,-12.682z" fill="none" stroke="#000000" stroke-width="3.5"/><path d="M263.79338,167.05827l6.39844,12.682l-38.32146,16.83056l-6.39845,-12.682z" fill="none" stroke="#000000" stroke-width="3.5"/></g></g><g data-paper-data="{&quot;index&quot;:null}" stroke-linecap="butt"><g><g><path d="M206.80582,253.41803l-27.40394,31.4764l-13.42659,-15.50471l27.40394,-31.47639z" fill="#252525" stroke="#000000" stroke-width="0"/><path d="M206.80582,253.41803l-27.40394,31.4764l-13.42659,-15.50471l27.40394,-31.47639z" fill="#252525" stroke="#000000" stroke-width="0"/><path d="M181.28965,282.52589c-1.99191,2.28792 9.46476,-11.38715 13.0686,-17.41963c3.43738,-5.75387 -0.99068,-3.80092 -1.91233,-4.86524c-0.89604,-1.0347 0.63109,-11.54992 -6.92521,-7.9373c-4.58849,2.19372 -20.17709,20.4006 -19.67525,18.01362c0.41302,-1.9644 26.5286,-31.02749 27.45167,-32.08773c1.10236,-1.26618 0.46864,0.46263 1.50546,1.41713c2.62361,2.41532 6.63905,8.2545 7.99221,9.81711c1.21332,1.40112 8.22795,-3.05451 0.48825,7.7041c-4.30321,5.98169 -20.60276,23.76067 -21.99339,25.35797z" fill="#141414" stroke="none" stroke-width="0"/><path d="M206.80582,253.41803l-27.40394,31.4764l-13.42659,-15.50471l27.40394,-31.47639z" fill="none" stroke="#000000" stroke-width="3.5"/><path d="M206.80582,253.41803l-27.40394,31.4764l-13.42659,-15.50471l27.40394,-31.47639z" fill="none" stroke="#000000" stroke-width="3.5"/></g><g><path d="M197.49298,271.08187l-5.54846,6.37301l-19.61607,-22.65217l5.54846,-6.37301z" fill="#252525" stroke="#000000" stroke-width="0"/><path d="M197.49298,271.08187l-5.54846,6.37301l-19.61607,-22.65217l5.54846,-6.37301z" fill="#252525" stroke="#000000" stroke-width="0"/><path d="M192.21735,276.84899c-0.40331,0.46324 1.63447,-2.63101 1.3298,-5.04685c-0.29062,-2.30426 -2.89905,-3.8857 -4.24558,-5.44063c-1.3091,-1.51172 -5.7868,-9.16849 -10.08499,-11.6338c-2.61006,-1.49703 -5.60145,2.37962 -6.48908,0.75398c-0.73049,-1.33785 5.06715,-6.63326 5.25404,-6.84792c0.78798,-0.90507 11.41528,11.26505 14.17353,14.4502c1.77267,2.04702 5.00874,5.21279 4.46271,8.57015c-0.30359,1.86665 -4.11888,4.8715 -4.40044,5.19489z" fill="#141414" stroke="none" stroke-width="0"/><path d="M197.49298,271.08187l-5.54846,6.37301l-19.61607,-22.65217l5.54846,-6.37301z" fill="none" stroke="#000000" stroke-width="3.5"/><path d="M197.49298,271.08187l-5.54846,6.37301l-19.61607,-22.65217l5.54846,-6.37301z" fill="none" stroke="#000000" stroke-width="3.5"/></g><g><path d="M207.45709,262.32238l-5.54847,6.37302l-22.16223,-25.59243l5.54847,-6.37301z" fill="#252525" stroke="#000000" stroke-width="0"/><path d="M207.45709,262.32238l-5.54847,6.37302l-22.16223,-25.59243l5.54847,-6.37301z" fill="#252525" stroke="#000000" stroke-width="0"/><path d="M202.16494,268.07048c-0.40329,0.46323 1.59201,-2.68004 1.13148,-5.27587c-0.43927,-2.47594 -3.30568,-4.35525 -4.82697,-6.11201c-1.47901,-1.70794 -6.67801,-10.19767 -11.39334,-13.14467c-2.86334,-1.78953 -5.8299,2.11581 -6.86661,0.31803c-0.85316,-1.47951 5.02134,-6.68618 5.20823,-6.90084c0.78797,-0.90507 12.78896,12.85134 15.90522,16.44992c2.00276,2.31273 5.62668,5.92637 5.23452,9.46138c-0.21805,1.96543 -4.11096,4.88063 -4.39252,5.20404z" fill="#141414" stroke="none" stroke-width="0"/><path d="M207.45709,262.32238l-5.54847,6.37302l-22.16223,-25.59243l5.54847,-6.37301z" fill="none" stroke="#000000" stroke-width="3.5"/><path d="M207.45709,262.32238l-5.54847,6.37302l-22.16223,-25.59243l5.54847,-6.37301z" fill="none" stroke="#000000" stroke-width="3.5"/></g></g><g><path d="M188.06724,284.86914l-6.37259,7.31961l-22.88973,-26.43248l6.37259,-7.31962z" fill="#252525" stroke="#000000" stroke-width="0"/><path d="M188.06724,284.86914l-6.37259,7.31961l-22.88973,-26.43248l6.37259,-7.31962z" fill="#252525" stroke="#000000" stroke-width="0"/><path d="M182.00566,291.49017c-0.46319,0.53202 1.87126,-3.02873 1.49928,-5.82886c-0.35479,-2.67079 -3.38715,-4.52924 -4.95839,-6.34368c-1.52757,-1.76399 -6.77233,-10.67586 -11.76794,-13.57545c-3.03354,-1.76076 -6.46574,2.69579 -7.50631,0.80432c-0.85634,-1.55659 5.81332,-7.62599 6.02796,-7.87254c0.90501,-1.03951 13.30507,13.16257 16.52362,16.87928c2.06848,2.38864 5.84006,6.08795 5.2347,9.9691c-0.33659,2.15789 -4.72954,5.59637 -5.05292,5.9678z" fill="#141414" stroke="none" stroke-width="0"/><path d="M188.06724,284.86914l-6.37259,7.31961l-22.88973,-26.43248l6.37259,-7.31962z" fill="none" stroke="#000000" stroke-width="3.5"/><path d="M188.06724,284.86914l-6.37259,7.31961l-22.88973,-26.43248l6.37259,-7.31962z" fill="none" stroke="#000000" stroke-width="3.5"/></g></g><g data-paper-data="{&quot;index&quot;:null}" stroke-linecap="butt"><g><g><path d="M213.01538,232.52783l37.15966,21.22411l-12.26283,21.1766l-37.15965,-21.22413z" fill="#252525" stroke="#000000" stroke-width="0"/><path d="M213.01538,232.52783l37.15966,21.22411l-12.26283,21.1766l-37.15965,-21.22413z" fill="#252525" stroke="#000000" stroke-width="0"/><path d="M235.31392,273.26205c-1.88569,-1.07704 -23.80664,-12.7383 -29.84145,-17.13189c-10.85415,-7.90227 -2.03447,-6.14646 -0.92631,-8.06014c1.23589,-2.13424 4.67223,-9.69489 7.18651,-13.20565c0.99361,-1.38741 -0.05806,-2.90013 1.43673,-2.04635c1.25167,0.7149 36.48492,19.98812 37.33132,21.82927c1.02846,2.23722 -20.16761,-10.14403 -25.79831,-10.55658c-9.2726,-0.67939 -5.51807,9.44829 -6.33645,10.86152c-0.84176,1.45364 -6.24406,1.22305 -1.23597,5.72882c5.25062,4.72395 20.88495,14.1237 18.18393,12.58099z" fill="#141414" stroke="none" stroke-width="0"/><path d="M213.01538,232.52783l37.15966,21.22411l-12.26283,21.1766l-37.15965,-21.22413z" fill="none" stroke="#000000" stroke-width="3.5"/><path d="M213.01538,232.52783l37.15966,21.22411l-12.26283,21.1766l-37.15965,-21.22413z" fill="none" stroke="#000000" stroke-width="3.5"/></g><g><path d="M232.63552,237.09158l7.5237,4.29724l-17.91585,30.93874l-7.52369,-4.29723z" fill="#252525" stroke="#000000" stroke-width="0"/><path d="M232.63552,237.09158l7.5237,4.29724l-17.91585,30.93874l-7.52369,-4.29723z" fill="#252525" stroke="#000000" stroke-width="0"/><path d="M221.81722,271.8176c-0.38179,-0.21806 -5.2906,-1.76663 -5.99398,-3.55157c-1.2651,-3.21035 1.80026,-7.73119 3.41928,-10.52703c2.51918,-4.35034 12.24496,-21.0077 13.31346,-20.39743c0.25343,0.14475 7.85292,3.24255 7.28073,4.89935c-0.69527,2.01322 -4.83629,-0.75355 -7.51165,1.81424c-4.40575,4.22863 -8.01758,13.82911 -9.21321,15.89383c-1.22981,2.12375 -3.88713,4.7771 -3.7742,7.24542c0.1184,2.58784 3.02646,4.93554 2.47958,4.62319z" fill="#141414" stroke="none" stroke-width="0"/><path d="M232.63552,237.09158l7.5237,4.29724l-17.91585,30.93874l-7.52369,-4.29723z" fill="none" stroke="#000000" stroke-width="3.5"/><path d="M232.63552,237.09158l7.5237,4.29724l-17.91585,30.93874l-7.52369,-4.29723z" fill="none" stroke="#000000" stroke-width="3.5"/></g><g><path d="M221.96578,228.10032l7.5237,4.29723l-20.24132,34.9546l-7.52371,-4.29724z" fill="#252525" stroke="#000000" stroke-width="0"/><path d="M221.96578,228.10032l7.5237,4.29723l-20.24132,34.9546l-7.52371,-4.29724z" fill="#252525" stroke="#000000" stroke-width="0"/><path d="M208.83705,266.81617c-0.38179,-0.21806 -5.36148,-1.64421 -5.98674,-3.56405c-1.12458,-3.45301 2.29502,-8.58555 4.12418,-11.74432c2.84616,-4.91501 13.82657,-23.73897 14.89506,-23.12868c0.25343,0.14475 7.92311,3.12135 7.23889,4.97163c-0.83142,2.24833 -4.94976,-0.55762 -7.85646,2.40967c-4.78674,4.88653 -9.05733,15.62466 -10.40815,17.95739c-1.38944,2.39942 -4.28236,5.4596 -4.30522,8.16239c-0.02395,2.83367 2.84532,5.24833 2.29845,4.93597z" fill="#141414" stroke="none" stroke-width="0"/><path d="M221.96578,228.10032l7.5237,4.29723l-20.24132,34.9546l-7.52371,-4.29724z" fill="none" stroke="#000000" stroke-width="3.5"/><path d="M221.96578,228.10032l7.5237,4.29723l-20.24132,34.9546l-7.52371,-4.29724z" fill="none" stroke="#000000" stroke-width="3.5"/></g></g><g><path d="M248.97572,242.25139l8.64121,4.93552l-20.90576,36.10197l-8.64121,-4.93551z" fill="#252525" stroke="#000000" stroke-width="0"/><path d="M248.97572,242.25139l8.64121,4.93552l-20.90576,36.10197l-8.64121,-4.93551z" fill="#252525" stroke="#000000" stroke-width="0"/><path d="M236.22385,282.69951c-0.43852,-0.25046 -6.08644,-2.01174 -6.88326,-4.08086c-1.43313,-3.72151 2.13762,-9.00031 4.02682,-12.26276c2.93958,-5.07635 14.28738,-24.51422 15.51457,-23.8133c0.29106,0.16624 9.02924,3.70703 8.35624,5.63728c-0.81779,2.34551 -5.57069,-0.83778 -8.67614,2.16791c-5.11403,4.94973 -9.35546,16.13708 -10.75063,18.54638c-1.43505,2.47818 -4.52038,5.58315 -4.40987,8.45125c0.11584,3.00699 3.45037,5.71285 2.82227,5.35411z" fill="#141414" stroke="none" stroke-width="0"/><path d="M248.97572,242.25139l8.64121,4.93552l-20.90576,36.10197l-8.64121,-4.93551z" fill="none" stroke="#000000" stroke-width="3.5"/><path d="M248.97572,242.25139l8.64121,4.93552l-20.90576,36.10197l-8.64121,-4.93551z" fill="none" stroke="#000000" stroke-width="3.5"/></g></g><g stroke-linecap="butt"><g><g><path d="M267.13973,197.24497l12.23599,64.83004l-24.28164,3.9282l-12.23598,-64.83004z" fill="#252525" stroke="#000000" stroke-width="0"/><path d="M267.13973,197.24497l12.23599,64.83004l-24.28164,3.9282l-12.23598,-64.83004z" fill="#252525" stroke="#000000" stroke-width="0"/><path d="M278.33677,257.42885c0.88939,4.7123 -4.73106,-22.85525 -8.19351,-33.08479c-3.30253,-9.75705 -4.3927,-2.1015 -6.05949,-1.83186c-1.62045,0.26218 -10.87935,-11.23602 -12.46557,2.07989c-0.96321,8.08595 6.2925,45.23575 4.29591,42.41894c-1.64311,-2.31815 -12.38996,-63.26013 -12.80212,-65.44384c-0.49221,-2.60788 0.77062,-0.20779 2.408,-0.72965c4.14329,-1.32055 12.58207,-1.41326 15.02925,-1.80915c2.19427,-0.35497 2.58795,-13.70818 7.87322,6.28373c2.93856,11.11532 9.29338,48.82692 9.91431,52.11676z" fill="#141414" stroke="none" stroke-width="0"/><path d="M267.13973,197.24497l12.23599,64.83004l-24.28164,3.9282l-12.23598,-64.83004z" fill="none" stroke="#000000" stroke-width="3.5"/><path d="M267.13973,197.24497l12.23599,64.83004l-24.28164,3.9282l-12.23598,-64.83004z" fill="none" stroke="#000000" stroke-width="3.5"/></g><g><path d="M278.11856,225.54717l2.47741,13.12609l-35.47516,5.73906l-2.47742,-13.1261z" fill="#252525" stroke="#000000" stroke-width="0"/><path d="M278.11856,225.54717l2.47741,13.12609l-35.47516,5.73906l-2.47742,-13.1261z" fill="#252525" stroke="#000000" stroke-width="0"/><path d="M276.14855,231.45101c-2.45286,-1.68687 -5.76951,0.36399 -8.20466,0.75795c-2.36746,0.383 -12.89908,-0.54451 -18.22661,2.96146c-3.23511,2.12898 -1.46797,9.60245 -3.66125,9.32155c-1.80499,-0.23117 -3.05851,-12.71928 -3.14196,-13.16141c-0.35183,-1.86413 18.76749,-5.06519 23.75571,-5.87216c3.20581,-0.51864 8.49899,-1.97951 11.41561,1.76953c1.62161,2.08443 1.97666,9.87059 2.10238,10.53668c0.18008,0.9541 -1.4676,-4.54503 -4.03924,-6.31358z" fill="#141414" stroke="none" stroke-width="0"/><path d="M278.11856,225.54717l2.47741,13.12609l-35.47516,5.73906l-2.47742,-13.1261z" fill="none" stroke="#000000" stroke-width="3.5"/><path d="M278.11856,225.54717l2.47741,13.12609l-35.47516,5.73906l-2.47742,-13.1261z" fill="none" stroke="#000000" stroke-width="3.5"/></g><g><path d="M276.29848,204.39183l2.47742,13.12611l-40.07985,6.48398l-2.47741,-13.12611z" fill="#252525" stroke="#000000" stroke-width="0"/><path d="M276.29848,204.39183l2.47742,13.12611l-40.07985,6.48398l-2.47741,-13.12611z" fill="#252525" stroke="#000000" stroke-width="0"/><path d="M278.33788,216.61408c0.18008,0.9541 -1.5444,-4.5326 -4.39789,-6.25556c-2.72171,-1.64337 -6.50485,0.48297 -9.25609,0.92807c-2.67477,0.43271 -14.51083,-0.28379 -20.59273,3.34422c-3.69317,2.20308 -1.88112,9.6693 -4.34397,9.43201c-2.02683,-0.19528 -3.14137,-12.70588 -3.22483,-13.14802c-0.35183,-1.86413 21.25176,-5.46708 26.88744,-6.3788c3.62191,-0.58595 9.61653,-2.1603 12.81137,1.54371c1.77631,2.05941 1.99098,9.86827 2.11669,10.53435z" fill="#141414" stroke="none" stroke-width="0"/><path d="M276.29848,204.39183l2.47742,13.12611l-40.07985,6.48398l-2.47741,-13.12611z" fill="none" stroke="#000000" stroke-width="3.5"/><path d="M276.29848,204.39183l2.47742,13.12611l-40.07985,6.48398l-2.47741,-13.12611z" fill="none" stroke="#000000" stroke-width="3.5"/></g></g><g><path d="M285.22576,250.51066l2.84539,15.07577l-41.39546,6.69684l-2.8454,-15.07577z" fill="#252525" stroke="#000000" stroke-width="0"/><path d="M285.22576,250.51066l2.84539,15.07577l-41.39546,6.69684l-2.8454,-15.07577z" fill="#252525" stroke="#000000" stroke-width="0"/><path d="M282.90821,257.30029c-2.85519,-1.93128 -6.73044,0.43489 -9.57198,0.89458c-2.76256,0.44693 -15.04291,-0.58855 -21.26843,3.45545c-3.78039,2.45566 -1.74441,11.03817 -4.30159,10.72172c-2.10445,-0.26043 -3.5245,-14.60661 -3.62035,-15.11441c-0.4041,-2.141 21.90634,-5.87436 27.72701,-6.816c3.74081,-0.60517 9.91937,-2.29906 13.30855,2.00044c1.88435,2.39049 2.27229,11.33635 2.41668,12.10139c0.20682,1.0958 -1.69643,-5.21836 -4.6899,-7.24315z" fill="#141414" stroke="none" stroke-width="0"/><path d="M285.22576,250.51066l2.84539,15.07577l-41.39546,6.69684l-2.8454,-15.07577z" fill="none" stroke="#000000" stroke-width="3.5"/><path d="M285.22576,250.51066l2.84539,15.07577l-41.39546,6.69684l-2.8454,-15.07577z" fill="none" stroke="#000000" stroke-width="3.5"/></g></g><g stroke-linecap="butt"><g><g><path d="M321.8776,231.92076l-21.60413,36.94002l-21.19665,-12.22813l21.60413,-36.94001z" fill="#252525" stroke="#000000" stroke-width="0"/><path d="M321.8776,231.92076l-21.60413,36.94002l-21.19665,-12.22813l21.60413,-36.94001z" fill="#252525" stroke="#000000" stroke-width="0"/><path d="M301.693,266.11973c-1.57034,2.68505 7.28462,-13.26416 9.47617,-19.97845c2.09031,-6.40418 -2.47564,-3.50765 -3.93066,-4.34705c-1.41458,-0.81604 -3.21682,-11.46585 -10.91238,-6.24847c-4.67306,3.1682 -16.85895,24.47719 -17.08457,22.02525c-0.18566,-2.01785 20.72308,-36.30581 21.4508,-37.55008c0.86905,-1.48596 0.71289,0.34979 2.26642,1.05598c3.93113,1.78699 10.68283,6.62293 12.81909,7.85531c1.91548,1.10503 8.68127,-4.81897 3.22081,7.44651c-3.03597,6.81949 -16.20937,27.86646 -17.30568,29.741z" fill="#141414" stroke="none" stroke-width="0"/><path d="M321.8776,231.92076l-21.60413,36.94002l-21.19665,-12.22813l21.60413,-36.94001z" fill="none" stroke="#000000" stroke-width="3.5"/><path d="M321.8776,231.92076l-21.60413,36.94002l-21.19665,-12.22813l21.60413,-36.94001z" fill="none" stroke="#000000" stroke-width="3.5"/></g><g><path d="M316.9263,251.30623l-4.37418,7.47922l-30.96805,-17.86514l4.37418,-7.47922z" fill="#252525" stroke="#000000" stroke-width="0"/><path d="M316.9263,251.30623l-4.37418,7.47922l-30.96805,-17.86514l4.37418,-7.47922z" fill="#252525" stroke="#000000" stroke-width="0"/><path d="M312.50758,252.88712c-1.13429,-2.19516 -4.76135,-3.16781 -6.88711,-4.39414c-2.06668,-1.19225 -9.98869,-7.7081 -15.91711,-9.17294c-3.59999,-0.8895 -5.80706,3.57502 -7.41447,2.17763c-1.32285,-1.15 3.71574,-7.62775 3.86308,-7.87968c0.62122,-1.06217 17.36362,8.51648 21.71808,11.02853c2.79851,1.61442 7.71135,4.00154 8.21768,7.41482c0.28153,1.89776 -3.19894,5.68997 -3.42091,6.0695c-0.31794,0.54364 1.02997,-2.94227 -0.15925,-5.24373z" fill="#141414" stroke="none" stroke-width="0"/><path d="M316.9263,251.30623l-4.37418,7.47922l-30.96805,-17.86514l4.37418,-7.47922z" fill="none" stroke="#000000" stroke-width="3.5"/><path d="M316.9263,251.30623l-4.37418,7.47922l-30.96805,-17.86514l4.37418,-7.47922z" fill="none" stroke="#000000" stroke-width="3.5"/></g><g><path d="M325.70302,240.50808l-4.37418,7.47923l-34.9877,-20.18404l4.37418,-7.47922z" fill="#252525" stroke="#000000" stroke-width="0"/><path d="M325.70302,240.50808l-4.37418,7.47923l-34.9877,-20.18404l4.37418,-7.47922z" fill="#252525" stroke="#000000" stroke-width="0"/><path d="M321.4175,247.31769c-0.31794,0.54364 0.96292,-2.98094 -0.47234,-5.42435c-1.36899,-2.33055 -5.40326,-3.53812 -7.80496,-4.92362c-2.33494,-1.34701 -11.39566,-8.51979 -17.98262,-10.36451c-3.99985,-1.12018 -6.16773,3.36696 -8.01047,1.83381c-1.51651,-1.26172 3.64341,-7.66949 3.79075,-7.92142c0.62121,-1.06217 19.53225,9.76755 24.45192,12.60566c3.16175,1.82398 8.6869,4.56432 9.43612,8.11773c0.41656,1.97565 -3.18643,5.69717 -3.40841,6.07671z" fill="#141414" stroke="none" stroke-width="0"/><path d="M325.70302,240.50808l-4.37418,7.47923l-34.9877,-20.18404l4.37418,-7.47922z" fill="none" stroke="#000000" stroke-width="3.5"/><path d="M325.70302,240.50808l-4.37418,7.47923l-34.9877,-20.18404l4.37418,-7.47922z" fill="none" stroke="#000000" stroke-width="3.5"/></g></g><g><path d="M310.51137,266.91533l-5.02389,8.59014l-36.13618,-20.84657l5.02388,-8.59014z" fill="#252525" stroke="#000000" stroke-width="0"/><path d="M310.51137,266.91533l-5.02389,8.59014l-36.13618,-20.84657l5.02388,-8.59014z" fill="#252525" stroke="#000000" stroke-width="0"/><path d="M305.38836,268.70336c-1.33594,-2.54036 -5.55933,-3.69068 -8.03984,-5.12167c-2.41158,-1.39121 -11.67126,-8.96779 -18.57338,-10.70391c-4.19124,-1.05425 -6.72059,4.07661 -8.60003,2.45246c-1.5467,-1.33661 4.25743,-8.76662 4.42665,-9.05596c0.71347,-1.21994 20.24932,9.95835 25.33047,12.88962c3.26554,1.88386 8.99466,4.67548 9.61055,8.61555c0.34243,2.19065 -3.67231,6.53613 -3.92725,6.97204c-0.36517,0.62439 1.17347,-3.38476 -0.22717,-6.04813z" fill="#141414" stroke="none" stroke-width="0"/><path d="M310.51137,266.91533l-5.02389,8.59014l-36.13618,-20.84657l5.02388,-8.59014z" fill="none" stroke="#000000" stroke-width="3.5"/><path d="M310.51137,266.91533l-5.02389,8.59014l-36.13618,-20.84657l5.02388,-8.59014z" fill="none" stroke="#000000" stroke-width="3.5"/></g></g><g stroke-linecap="butt"><path d="M271.96854,313.73402c-13.79367,14.01079 -32.88799,17.5791 -42.64832,7.97001c-9.76032,-9.60908 -6.49065,-28.75678 7.30304,-42.76758c13.79367,-14.01079 32.88799,-17.5791 42.64832,-7.97001c9.76032,9.60908 6.49066,28.75678 -7.30304,42.76758z" fill="#746e31" stroke="#000000" stroke-width="0"/><path d="M269.42435,268.00764c0.53266,0.52439 5.69794,-0.91075 5.51248,4.32732c-0.54646,15.43339 -8.74419,49.38796 -11.4438,49.94173c-1.20103,0.24637 -30.80973,2.62653 -32.71632,-2.42212c-0.91372,-2.41953 16.47311,-3.44922 23.4015,-7.85359c2.47867,-1.57568 0.87113,-8.00154 0.45094,-8.89826c-3.57384,-7.62689 -8.61211,-12.48127 -7.35298,-20.01623c0.68916,-4.12414 12.67791,2.48853 19.03978,0.14894c4.23431,-1.55718 4.12183,-12.50116 3.29239,-13.4333c-0.78574,-0.88302 -8.09661,-0.15522 -15.37579,2.95739c-7.27472,3.11069 -14.51776,8.60571 -15.24604,9.34547c-5.62997,5.71858 -10.31962,16.35264 -10.8045,25.42728c-0.56961,10.66054 4.40562,17.66912 1.2167,14.52962c-3.49171,-3.43761 -7.25774,-13.8371 -4.7912,-24.23712c1.70364,-7.18324 6.95641,-12.7416 11.95834,-17.82228c12.24383,-12.43655 26.95509,-17.80685 32.85852,-11.99491z" fill="#373417" stroke="none" stroke-width="0"/><path d="M271.69235,314.58472c-13.79368,14.01079 -32.88799,17.5791 -42.64832,7.97001c-9.76032,-9.60908 -6.49066,-28.75678 7.30304,-42.76758c13.79368,-14.01079 32.88799,-17.5791 42.64832,-7.97001c9.76032,9.60908 6.49066,28.75678 -7.30304,42.76758z" fill="none" stroke="#000000" stroke-width="3.5"/><path d="M296.48742,282.67226c16.3328,16.07971 16.54867,43.05711 1.34075,58.5044c-15.20793,15.44729 -40.42597,14.57831 -56.75877,-1.50141c-4.69112,-4.61842 -12.00566,-16.02589 -8.11981,-19.30991c4.63631,-3.91823 21.22125,0.2397 22.3208,-6.64211c1.18745,-7.43203 5.45188,9.19694 11.08017,3.48007c2.45143,-2.49 -17.54659,-25.5672 -16.94418,-32.27619c0.37311,-4.15539 10.09127,3.48305 15.28374,3.64791c5.59606,0.17768 6.68809,-7.01778 6.89762,-9.24593c1.22953,-13.07421 14.58771,-6.80905 24.8997,3.34316z" fill="#e3d85f" stroke="#000000" stroke-width="0"/><path d="M274.76441,293.01796c-2.76361,6.29845 10.85535,13.28074 9.66349,21.00138c-0.53623,3.47361 -21.79315,18.30425 -22.38015,18.80914c-1.27545,1.09704 2.8053,-13.51436 1.58089,-12.27067c-0.04121,0.04187 3.72388,-1.50274 3.68303,-1.46298c-5.33547,5.19392 -13.51862,9.18071 -17.48945,5.27142c-4.00122,-3.9392 -23.09664,3.26719 -17.67216,-2.24267c2.91534,-2.96122 21.16503,-6.51059 24.45171,-6.87291c0.33429,-0.03685 10.5041,5.34785 9.05694,1.98785c-0.34899,-0.81029 -0.88167,-1.81591 -1.54469,-2.96731c-4.80174,-8.33883 -16.43974,-24.32397 -14.64639,-29.12557c1.67986,-4.49769 11.86219,3.77832 17.22038,2.55844c5.67611,-1.29224 6.55297,-12.0185 8.79862,-14.86818c2.72799,-3.46176 11.67786,2.13141 12.13832,2.58476c1.75855,1.7313 -7.59997,5.60809 -12.86057,17.59733z" fill="#b8af4d" stroke="none" stroke-width="0"/><path d="M296.48741,282.67228c16.33281,16.07972 16.54867,43.0571 1.34075,58.5044c-15.20793,15.44729 -40.42596,14.57832 -56.75877,-1.50141c-4.69112,-4.61842 -12.00565,-16.02589 -8.11981,-19.30991c4.63631,-3.91824 21.22125,0.23969 22.3208,-6.64212c1.18745,-7.43203 5.45187,9.19695 11.08017,3.48007c2.45143,-2.49 -17.54659,-25.5672 -16.94418,-32.27619c0.37311,-4.1554 10.09127,3.48304 15.28374,3.64791c5.59606,0.17768 6.68809,-7.01778 6.89762,-9.24593c1.22954,-13.0742 14.58771,-6.80905 24.8997,3.34316z" fill="none" stroke="#000000" stroke-width="3.5"/><path d="M295.41731,313.51254c-5.46322,5.54922 -15.06058,4.95931 -21.43627,-1.31759c-6.37569,-6.2769 -7.1154,-15.86387 -1.65217,-21.41309c2.04375,-2.07592 5.30357,-12.2075 8.11932,-12.58881c4.71116,-0.63799 9.32635,9.97763 13.31696,13.90639c6.37569,6.2769 7.1154,15.86387 1.65217,21.41309z" fill="#000000" stroke="none" stroke-width="0"/><path d="M261.40377,316.78306c7.51703,7.40056 8.14543,18.95125 1.40357,25.79923c-6.74186,6.84797 -11.4997,8.04403 -19.01673,0.64348c-7.51703,-7.40056 -17.04035,-17.04327 -10.29848,-23.89124c0.98164,-0.99709 6.4699,0.31496 8.25943,-0.07178c4.95793,-1.07145 10.15592,-5.72379 13.93214,-5.29636c4.22176,0.47784 2.32994,-0.52096 5.72007,2.81665z" fill="#000000" stroke="none" stroke-width="0"/></g><g stroke-linecap="butt"><path d="M338.60931,259.3976c-19.74258,-0.25169 -35.53522,-17.07579 -35.27385,-37.5777c0.11058,-8.67374 -3.15983,-17.69573 1.72109,-23.95408c6.65601,-8.53436 17.3961,3.82113 28.78618,3.96634c1.84233,0.02348 8.80777,-5.38662 10.99569,-11.76262c3.62244,-10.55633 2.86523,-24.51979 8.24586,-26.44633c6.41869,-2.29821 4.21116,19.92586 9.65103,29.32808c2.7713,4.7899 14.84543,-1.43011 15.99451,-0.10444c5.80048,6.69194 -3.77629,20.16704 -3.90018,29.88447c-0.26136,20.50191 -16.47777,36.91795 -36.22034,36.66626z" fill="#e24d00" stroke="#000000" stroke-width="0"/><path d="M342.11727,245.9053c-12.14927,-0.15489 -21.91903,-6.49198 -21.82134,-14.15431c0.09768,-7.66233 10.02581,-13.74832 22.17508,-13.59344c12.14927,0.15489 21.91903,6.49198 21.82134,14.15431c-0.09768,7.66233 -10.02581,13.74832 -22.17508,13.59344z" fill="#ad3a00" stroke="none" stroke-width="0"/><path d="M366.85194,200.40224c-2.53381,-0.47987 -7.94843,-5.81097 -9.80472,-11.97119c-1.89945,-6.30344 -0.2502,-13.43023 -3.74032,-13.12669c-6.29253,0.54725 0.73576,13.47734 -5.88583,21.01822c-8.68555,9.89138 -32.59245,10.86918 -36.40436,13.26528c-4.30069,2.70333 -0.96038,20.74634 11.48923,32.35456c11.18396,10.42814 31.61364,14.67423 28.48838,14.63439c-1.75474,-0.02237 -12.16202,4.63101 -16.78616,3.79852c-10.1064,-1.81949 -17.38784,-10.33025 -21.375,-13.4054c-15.35978,-11.84637 -8.44032,-31.75895 -8.39116,-35.61521c0.02334,-1.83055 -6.50232,-11.91855 3.07116,-14.58925c5.31342,-1.48227 19.15991,5.73362 27.50072,4.60403c1.90672,-0.25823 5.22036,-3.77442 6.15432,-4.72617c8.99378,-9.16495 4.94608,-33.38634 13.51459,-33.2771c4.334,0.05525 3.30742,22.00178 6.62474,28.16752c4.48794,8.34146 13.01322,1.65807 16.8384,2.7111c6.63252,1.82585 0.07389,15.39634 0.04007,18.04997c-0.01913,1.50011 0.09411,-9.72822 -11.33405,-11.89258z" fill="#ad3a00" stroke="none" stroke-width="0"/><path d="M331.91621,231.23243c-2.18377,6.04547 -2.02674,14.47052 -4.84941,14.43454c-0.59234,-0.00755 -4.13608,1.38721 -5.37659,-1.33933c-1.1803,-2.5942 -0.0336,-9.31885 -1.54153,-9.2302c-2.86537,0.16844 -6.15078,11.37251 -7.55408,8.64818c-3.77563,-7.32983 -0.93653,-24.94864 -0.87497,-29.77686c0.10912,-8.55971 10.63413,0.63561 15.74235,0.70073c5.10821,0.06512 10.78814,-2.92312 10.67902,5.63659c-0.04882,3.82981 -4.45658,6.03133 -6.22477,10.92636z" fill="#000000" stroke="#000000" stroke-width="3.5"/><path d="M375.20809,215.27816c-0.00054,0.04283 -7.1262,7.52219 -7.18238,7.61382c-0.69185,1.12824 -0.0657,9.97176 -0.10909,10.48686c-0.81639,9.69111 -2.19486,12.5309 -10.22412,12.42854c-8.49069,-0.10824 -15.26532,-8.70188 -15.13155,-19.19445c0.13376,-10.49256 7.12526,-18.91071 15.61595,-18.80247c8.49069,0.10824 17.16495,-3.02485 17.03119,7.46771z" fill="#000000" stroke="#000000" stroke-width="3.5"/><path d="M338.60931,259.3976c-19.74258,-0.25169 -35.53522,-17.07579 -35.27385,-37.5777c0.11058,-8.67374 -3.15983,-17.69573 1.72109,-23.95408c6.65601,-8.53436 17.39609,3.82113 28.78618,3.96634c1.84234,0.02348 8.80775,-5.38664 10.9957,-11.76263c3.62244,-10.55633 2.86523,-24.51979 8.24586,-26.44633c6.41869,-2.29821 4.21117,19.92586 9.65103,29.32808c2.77131,4.78992 14.84543,-1.43011 15.99451,-0.10444c5.80047,6.69195 -3.77629,20.16704 -3.90017,29.88449c-0.26136,20.50191 -16.47777,36.91795 -36.22034,36.66626z" fill="none" stroke="#000000" stroke-width="3.5"/><path d="M373.49082,195.41191c-0.04038,3.16786 4.55599,14.82789 -0.33546,19.19721c-6.19376,5.5326 -23.25803,6.0041 -32.86194,5.88166c-1.25447,-0.016 -2.53491,0.00259 -3.82511,0.03389c-7.5188,0.18236 -15.3693,0.79628 -20.34413,-2.48611c-5.86833,-3.8719 -7.76005,-13.10398 -7.71413,-16.70575c0.09152,-7.17912 13.92763,0.67759 31.11609,0.89672c1.86846,0.02382 4.86987,-11.0748 6.81345,-19.92412c2.27973,-10.37981 3.49425,-18.78761 5.53519,-19.2594c5.96289,-1.37841 4.88756,10.49624 8.68111,18.61962c1.81337,3.88307 1.06316,10.21929 3.56291,12.74338c2.99296,3.02211 9.39151,-0.52766 9.372,1.00294z" fill="#e2c5b6" stroke="#000000" stroke-width="0"/><path d="M358.8834,179.35465c-0.00725,0.56915 1.26491,8.86339 5.22312,13.50356c3.36571,3.94558 9.58682,4.22209 8.87842,5.80987c-3.10436,6.95802 -25.23728,4.43706 -30.50674,6.74759c-6.85767,3.00692 -22.8172,3.32239 -29.17997,1.65163c-6.84888,-1.7984 -3.88975,-5.71652 -4.94915,-5.73003c-0.86454,-0.01102 0.25385,-2.2269 5.76105,-1.37727c6.29292,0.97087 17.48935,4.86381 23.69627,1.92495c8.31184,-3.93548 9.53064,-18.96695 9.57793,-22.67689c0.11353,-8.90487 2.7797,-16.09087 5.95508,-16.0504c3.17538,0.04048 5.65751,7.29212 5.54398,16.19699z" fill="#ceb4a7" stroke="none" stroke-width="0"/><path d="M373.49082,195.41193c-0.04038,3.16786 4.556,14.82791 -0.33546,19.19721c-6.19376,5.5326 -23.25802,6.00409 -32.86194,5.88166c-8.56498,-0.10919 -18.34075,1.3934 -24.16926,-2.45223c-5.86832,-3.87189 -7.76004,-13.10397 -7.71412,-16.70575c0.09152,-7.17912 13.92763,0.6776 31.11609,0.89672c1.86846,0.02382 4.86986,-11.07478 6.81345,-19.92412c2.27973,-10.37981 3.49425,-18.78761 5.5352,-19.25941c5.96289,-1.37841 4.88756,10.49624 8.68111,18.61962c1.81337,3.88307 1.06316,10.21929 3.56291,12.74338c2.99297,3.02211 9.39151,-0.52767 9.372,1.00293z" fill="none" stroke="#000000" stroke-width="3.5"/><path d="M344.3175,222.63804c-6.97202,-0.08888 -12.59401,-2.51125 -12.55705,-5.41051c0.03696,-2.89926 5.71887,-5.17752 12.6909,-5.08864c6.97202,0.08888 12.59401,2.51125 12.55705,5.41051c-0.03696,2.89926 -5.71887,5.17752 -12.6909,5.08864z" fill="#000000" stroke="#000000" stroke-width="3.5"/></g><g stroke-linecap="butt"><path d="M273.89911,235.05093c-2.34225,0.64512 -5.56204,-21.62277 -7.81897,-24.45727c-1.96232,-2.46448 -2.96542,14.50763 -4.94159,14.29333c-4.68629,-0.50818 -12.26269,-29.61768 -16.33487,-30.13355c-3.23821,-0.41023 6.26769,31.26673 4.35864,35.84523c-2.67837,6.42356 -16.27206,-14.04416 -17.73999,-19.37371c-5.02294,-18.23666 5.85076,-37.13687 24.28709,-42.21481c4.77575,-1.31539 11.30632,9.36277 15.90669,10.01832c13.15899,1.87516 22.84827,0.29501 26.57008,13.80764c5.02294,18.23666 -5.85076,37.13687 -24.28709,42.21481z" fill="#bae695" stroke="#000000" stroke-width="0"/><path d="M273.55782,232.90632c0.30721,1.11542 13.85321,-8.27261 19.7395,-19.78556c3.80348,-7.43918 1.75153,-16.09097 -0.20813,-22.27628c-3.33198,-10.51684 -35.5523,-10.8329 -37.57699,-10.27524c-2.12321,0.58479 -20.10086,4.34945 -21.9999,14.68685c-2.62524,14.29052 11.1011,36.12407 10.61179,34.34755c-0.46682,-1.69488 -16.2672,-16.68415 -14.37497,-32.48953c1.52588,-12.74534 20.45123,-27.01007 22.70933,-27.63202c0.53753,-0.14805 4.50507,-1.31737 7.25352,0.3172c2.57836,1.53341 3.78474,5.80339 8.88685,7.77912c5.44799,2.10967 15.74422,1.9705 21.55607,4.31692c5.55817,2.244 6.73453,6.94929 7.67676,10.00499c2.4663,7.99827 0.03039,21.08129 -6.00072,28.50617c-7.2275,8.89773 -18.54243,11.52214 -18.27314,12.4998z" fill="#53931e" stroke="none" stroke-width="0"/><path d="M266.05111,208.00572c-8.71898,2.40149 -17.13947,-0.56166 -18.80767,-6.61836c-1.66821,-6.05671 -9.48148,-13.07672 -0.7625,-15.4782c8.71898,-2.40149 30.66854,0.72497 32.33675,6.78167c1.66821,6.05671 -4.04758,12.91341 -12.76657,15.31489z" fill="#53931e" stroke="none" stroke-width="0"/><path d="M273.76634,234.56889c-2.34225,0.64512 -5.56204,-21.62277 -7.81897,-24.45728c-1.96231,-2.46447 -2.96543,14.50763 -4.94159,14.29334c-4.68629,-0.50818 -12.26269,-29.61768 -16.33486,-30.13354c-3.23821,-0.41023 6.26769,31.26673 4.35863,35.84523c-2.67838,6.42357 -16.27206,-14.04416 -17.73999,-19.37372c-5.02294,-18.23666 5.85076,-37.13687 24.28709,-42.21481c4.77575,-1.31539 11.30632,9.36277 15.9067,10.01832c13.15899,1.87516 22.84826,0.295 26.57006,13.80765c5.02294,18.23666 -5.85076,37.13687 -24.28709,42.21481z" fill="none" stroke="#000000" stroke-width="3.5"/><path d="M273.89782,224.25545c-2.41016,0.66383 -5.16178,-6.86912 -7.53747,-11.38079c-4.64411,-8.81961 -8.50296,-19.08344 -10.12809,-24.98377c-2.45647,-8.91866 12.42798,2.80037 19.54961,0.83885c7.12162,-1.96152 12.12968,-2.56376 14.58615,6.3549c2.45647,8.91866 -9.34858,27.20929 -16.47019,29.1708z" fill="#000000" stroke="none" stroke-width="0"/><path d="M255.17635,208.87594c-0.61761,2.69294 -6.64944,-15.75104 -11.88586,-14.30876c-2.14348,0.59039 5.45969,22.60152 4.3418,24.86827c-2.07555,4.2086 -11.98516,-11.19421 -13.4864,-16.64475c-2.30981,-8.38619 0.78158,-16.55177 6.90484,-18.2383c6.12325,-1.68654 12.95962,3.74462 15.26943,12.13082c0.33454,1.2146 -1.03922,11.73666 -1.1438,12.19273z" fill="#000000" stroke="none" stroke-width="0"/></g><g data-paper-data="{&quot;index&quot;:null}" stroke-linecap="butt"><g><g><path d="M189.1358,203.05827l25.80802,34.13574l-19.60741,14.64155l-25.80801,-34.13576z" fill="#252525" stroke="#000000" stroke-width="0"/><path d="M189.1358,203.05827l25.80802,34.13574l-19.60741,14.64155l-25.80801,-34.13576z" fill="#252525" stroke="#000000" stroke-width="0"/><path d="M193.60366,249.28099c-1.30964,-1.73224 -16.87222,-21.07957 -20.69091,-27.49364c-6.86824,-11.53628 0.54869,-6.45113 2.32056,-7.77425c1.97609,-1.47562 8.11067,-7.07374 11.80373,-9.31167c1.45945,-0.8844 1.08798,-2.68894 2.12614,-1.31579c0.86931,1.14981 25.67417,32.73396 25.72767,34.75964c0.065,2.46144 -14.54785,-17.26249 -19.5618,-19.85775c-8.25693,-4.27385 -8.7912,6.51416 -10.09972,7.49125c-1.34593,1.00506 -6.2215,-1.33304 -3.39083,4.78008c2.96775,6.40914 13.64108,21.20333 11.76517,18.72211z" fill="#141414" stroke="none" stroke-width="0"/><path d="M189.1358,203.05827l25.80802,34.13574l-19.60741,14.64155l-25.80801,-34.13576z" fill="none" stroke="#000000" stroke-width="3.5"/><path d="M189.1358,203.05827l25.80802,34.13574l-19.60741,14.64155l-25.80801,-34.13576z" fill="none" stroke="#000000" stroke-width="3.5"/></g><g><path d="M205.37653,214.97535l5.22533,6.91145l-28.64618,21.39111l-5.22533,-6.91145z" fill="#252525" stroke="#000000" stroke-width="0"/><path d="M205.37653,214.97535l5.22533,6.91145l-28.64618,21.39111l-5.22533,-6.91145z" fill="#252525" stroke="#000000" stroke-width="0"/><path d="M181.7646,242.64139c-0.26517,-0.35072 -4.16838,-3.70622 -4.11253,-5.62392c0.10045,-3.44917 4.69763,-6.39878 7.28633,-8.33184c4.02799,-3.00784 19.52451,-14.49331 20.2666,-13.51177c0.17601,0.2328 5.94306,6.07144 4.76501,7.36936c-1.43148,1.57713 -4.14943,-2.59609 -7.61947,-1.28842c-5.71441,2.15347 -12.81309,9.55774 -14.72482,10.9853c-1.96638,1.46837 -5.45349,2.86179 -6.32111,5.17536c-0.90962,2.4256 0.83981,5.72832 0.45999,5.22595z" fill="#141414" stroke="none" stroke-width="0"/><path d="M205.37653,214.97535l5.22533,6.91145l-28.64618,21.39111l-5.22533,-6.91145z" fill="none" stroke="#000000" stroke-width="3.5"/><path d="M205.37653,214.97535l5.22533,6.91145l-28.64618,21.39111l-5.22533,-6.91145z" fill="none" stroke="#000000" stroke-width="3.5"/></g><g><path d="M199.10638,202.51054l5.22534,6.91145l-32.36444,24.16769l-5.22535,-6.91146z" fill="#252525" stroke="#000000" stroke-width="0"/><path d="M199.10638,202.51054l5.22534,6.91145l-32.36444,24.16769l-5.22535,-6.91146z" fill="#252525" stroke="#000000" stroke-width="0"/><path d="M171.80028,232.93516c-0.26517,-0.35072 -4.28173,-3.62157 -4.10097,-5.63255c0.32513,-3.61693 5.48871,-6.98949 8.41342,-9.17346c4.55081,-3.39825 22.05339,-16.38171 22.79547,-15.40017c0.17601,0.2328 6.0553,5.98764 4.6981,7.41933c-1.64917,1.73968 -4.33086,-2.46063 -8.17079,-0.87675c-6.32357,2.60835 -14.47558,10.7992 -16.63545,12.41206c-2.22161,1.65896 -6.08543,3.33366 -7.17015,5.80935c-1.13722,2.59557 0.55019,5.94458 0.17038,5.44221z" fill="#141414" stroke="none" stroke-width="0"/><path d="M199.10638,202.51054l5.22534,6.91145l-32.36444,24.16769l-5.22535,-6.91146z" fill="none" stroke="#000000" stroke-width="3.5"/><path d="M199.10638,202.51054l5.22534,6.91145l-32.36444,24.16769l-5.22535,-6.91146z" fill="none" stroke="#000000" stroke-width="3.5"/></g></g><g><path d="M218.3674,226.14955l6.00146,7.93803l-33.42683,24.96097l-6.00147,-7.93802z" fill="#252525" stroke="#000000" stroke-width="0"/><path d="M218.3674,226.14955l6.00146,7.93803l-33.42683,24.96097l-6.00147,-7.93802z" fill="#252525" stroke="#000000" stroke-width="0"/><path d="M190.726,258.31494c-0.30455,-0.40282 -4.80354,-4.24475 -4.72174,-6.46049c0.14714,-3.9852 5.50724,-7.43271 8.52794,-9.68838c4.70018,-3.5098 22.78213,-16.91306 23.63442,-15.78572c0.20214,0.26738 6.84166,6.96139 5.4633,8.47101c-1.67488,1.83438 -4.79143,-2.96255 -8.82917,-1.42159c-6.64933,2.53763 -14.95132,11.15293 -17.18209,12.81872c-2.29454,1.71343 -6.35288,3.35357 -7.38005,6.03371c-1.07692,2.80992 0.9236,6.60973 0.48738,6.03275z" fill="#141414" stroke="none" stroke-width="0"/><path d="M218.3674,226.14955l6.00146,7.93803l-33.42683,24.96097l-6.00147,-7.93802z" fill="none" stroke="#000000" stroke-width="3.5"/><path d="M218.3674,226.14955l6.00146,7.93803l-33.42683,24.96097l-6.00147,-7.93802z" fill="none" stroke="#000000" stroke-width="3.5"/></g></g><g data-paper-data="{&quot;index&quot;:null}"><path d="M162.94207,212.98902c-4.98612,-8.66652 -2.62582,-19.37562 5.27191,-23.91942c7.89771,-4.54382 18.34215,-1.2017 23.32827,7.46483c4.98612,8.66652 2.62581,19.37562 -5.27191,23.91942c-7.89771,4.54382 -18.34214,1.20169 -23.32826,-7.46483z" fill="#c747ff" stroke="#000000" stroke-width="0" stroke-linecap="butt"/><path d="M160.76832,206.37312c-2.81475,-4.89239 0.56926,-12.11818 7.55839,-16.13926c6.98913,-4.02108 14.93674,-3.31472 17.75149,1.57766c1.89457,3.29302 -14.50435,-4.07709 -18.31365,3.83873c-0.90065,1.87157 -1.82708,9.77523 0.57285,15.60335c2.53008,6.14423 8.39052,10.19253 7.21794,10.86716c-6.98913,4.02108 -11.97227,-10.85526 -14.78702,-15.74765z" fill="#991cba" stroke="none" stroke-width="0" stroke-linecap="butt"/><path d="M162.44123,212.19018c-4.98613,-8.66652 -2.62583,-19.37561 5.2719,-23.91941c7.89772,-4.54382 18.34214,-1.2017 23.32826,7.46483c4.98612,8.66652 2.62582,19.37562 -5.27191,23.91942c-7.89772,4.54382 -18.34213,1.20169 -23.32825,-7.46484z" fill="none" stroke="#000000" stroke-width="3.5" stroke-linecap="butt"/><g><path d="M149.38226,193.86597c1.53353,7.42274 15.886,8.04821 12.25358,8.79866c-1.69771,0.35074 -3.70327,9.52201 -9.05158,9.00127c-6.09493,-0.59345 -15.53932,-11.12879 -16.35612,-15.08232c-1.53355,-7.42275 0.16792,-14.04844 3.80033,-14.7989c3.63242,-0.75048 7.82024,4.65848 9.3538,12.08125z" fill="#ff7347" stroke="#000000" stroke-width="0" stroke-linecap="butt"/><path d="M146.6062,187.56755c0.24835,1.20204 1.10364,6.15037 4.54519,9.73112c2.14011,2.22668 6.54382,2.95175 8.57598,4.88056c2.821,2.67751 -0.5258,5.52992 -1.27922,5.68557c-2.05312,0.42417 -21.09995,-15.53742 -21.7362,-18.61708c-0.63626,-3.07966 0.51232,-5.92007 2.56542,-6.34424c2.0531,-0.42416 6.23465,0.77525 6.87091,3.8549z" fill="#ba491c" stroke="none" stroke-width="0" stroke-linecap="butt"/><path d="M149.72499,193.90853c1.53353,7.42274 15.88599,8.04821 12.25358,8.79866c-1.6977,0.35074 -3.70326,9.52201 -9.05157,9.00127c-6.09494,-0.59345 -15.53933,-11.12878 -16.35613,-15.08231c-1.53355,-7.42273 0.16792,-14.04844 3.80033,-14.7989c3.63241,-0.75045 7.82024,4.65851 9.35378,12.08126z" fill="none" stroke="#000000" stroke-width="3.5" stroke-linecap="butt"/><path d="M149.56722,196.03138l-8.37321,7.09688" fill="none" stroke="#000000" stroke-width="3.5" stroke-linecap="round"/></g><g><path d="M162.22611,184.36234c-1.14069,7.49317 12.10055,13.06582 8.43367,12.50761c-1.71381,-0.26089 -6.78061,7.64239 -11.6149,5.29605c-5.50914,-2.6739 -10.70524,-15.83408 -10.0977,-19.82512c1.14067,-7.49319 5.03798,-13.1151 8.70486,-12.55689c3.6669,0.55819 5.71477,7.08512 4.57409,14.57833z" fill="#4757ff" stroke="#000000" stroke-width="0" stroke-linecap="butt"/><path d="M161.81108,177.49181c-0.18471,1.21345 -1.10178,6.15071 0.88144,10.70404c1.23326,2.83148 5.11078,5.04126 6.34629,7.55591c1.71511,3.49078 -2.41418,5.00283 -3.17475,4.88704c-2.07259,-0.31551 -14.38794,-21.89992 -13.91468,-25.0088c0.47326,-3.10888 2.53708,-5.37336 4.60966,-5.05784c2.07258,0.31552 5.577,2.89291 5.10373,6.00179z" fill="#1c66ba" stroke="none" stroke-width="0" stroke-linecap="butt"/><path d="M162.53272,184.52132c-1.14069,7.49317 12.10053,13.0658 8.43365,12.5076c-1.7138,-0.2609 -6.7806,7.6424 -11.61489,5.29605c-5.50915,-2.67391 -10.70525,-15.83408 -10.0977,-19.82513c1.14067,-7.49317 5.03797,-13.11509 8.70486,-12.55689c3.66687,0.5582 5.71476,7.08515 4.57408,14.57833z" fill="none" stroke="#000000" stroke-width="3.5" stroke-linecap="butt"/><path d="M161.64728,186.45713l-10.31719,3.74595" fill="none" stroke="#000000" stroke-width="3.5" stroke-linecap="round"/></g><g><path d="M176.39092,177.67236c-2.15689,7.26613 10.19564,14.60094 6.63987,13.54544c-1.66189,-0.49332 -7.76405,6.64098 -12.23114,3.65422c-5.09068,-3.40372 -8.4341,-17.15186 -7.28529,-21.02198c2.15688,-7.26615 6.78791,-12.30085 10.34368,-11.24536c3.55579,1.05548 4.6898,7.8015 2.53291,15.06766z" fill="#4aff47" stroke="#000000" stroke-width="0" stroke-linecap="butt"/><path d="M176.92144,170.80978c-0.34928,1.17668 -1.93436,5.94165 -0.59391,10.72384c0.83355,2.97379 4.37162,5.69414 5.25083,8.3544c1.2205,3.69289 -3.07706,4.62474 -3.81457,4.40581c-2.0098,-0.5966 -11.25071,-23.66518 -10.35583,-26.67987c0.89487,-3.01468 3.24958,-4.97493 5.25937,-4.37834c2.00978,0.59659 5.12788,3.62996 4.23301,6.64464z" fill="#1cba38" stroke="none" stroke-width="0" stroke-linecap="butt"/><path d="M176.67284,177.87186c-2.15689,7.26613 10.19562,14.60094 6.63985,13.54544c-1.66188,-0.49332 -7.76404,6.64097 -12.23113,3.65421c-5.09069,-3.40372 -8.43411,-17.15186 -7.2853,-21.02198c2.15688,-7.26613 6.78791,-12.30086 10.34368,-11.24536c3.55577,1.05549 4.68979,7.80152 2.5329,15.06766z" fill="none" stroke="#000000" stroke-width="3.5" stroke-linecap="butt"/><path d="M164.79723,181.96465l10.73322,-2.29659" fill="none" stroke="#000000" stroke-width="3.5" stroke-linecap="round"/></g><g data-paper-data="{&quot;index&quot;:null}"><path d="M190.29129,178.71527c-1.94502,-7.32572 -0.61565,-14.03597 2.96928,-14.98778c3.58491,-0.95183 8.06782,4.21521 10.01285,11.54092c1.03597,3.90184 -2.70517,17.54712 -7.89251,20.80161c-4.55192,2.85581 -10.44438,-4.45263 -12.1199,-4.00775c-3.58493,0.95183 8.97534,-6.02129 7.0303,-13.34697z" fill="#ff4747" stroke="#000000" stroke-width="0" stroke-linecap="butt"/><path d="M190.00831,170.91168c-0.80698,-3.03939 2.39787,-5.98096 4.42413,-6.51896c2.02625,-0.53799 4.32306,1.48979 5.13004,4.52918c0.80698,3.03939 -9.09974,25.82998 -11.12601,26.36798c-0.74356,0.19742 -5.01225,-0.85879 -3.68505,-4.5147c0.95606,-2.63362 4.57162,-5.2501 5.49115,-8.19843c1.47872,-4.74125 0.03265,-9.55022 -0.28233,-10.73656z" fill="#ba1c1c" stroke="none" stroke-width="0" stroke-linecap="butt"/><path d="M190.00372,178.90649c-1.94504,-7.3257 -0.61564,-14.03595 2.96926,-14.98778c3.58491,-0.95183 8.06782,4.21524 10.01285,11.54092c1.03597,3.90184 -2.70516,17.54711 -7.89253,20.80161c-4.55192,2.85581 -10.44438,-4.45263 -12.11988,-4.00776c-3.58491,0.95183 8.97533,-6.02128 7.03028,-13.34697z" fill="none" stroke="#000000" stroke-width="3.5" stroke-linecap="butt"/><path d="M191.09349,180.73513l10.66202,2.60721" fill="none" stroke="#000000" stroke-width="3.5" stroke-linecap="round"/></g></g><g data-paper-data="{&quot;index&quot;:null}" stroke-linecap="butt"><g><g><path d="M139.41209,252.08764l39.45785,13.59475l-3.89449,20.13707l-39.45785,-13.59476z" fill="#252525" stroke="#000000" stroke-width="0"/><path d="M139.41209,252.08764l39.45785,13.59475l-3.89449,20.13707l-39.45785,-13.59476z" fill="#252525" stroke="#000000" stroke-width="0"/><path d="M172.15739,284.70946c-2.00231,-0.68987 -25.00076,-7.95893 -31.71542,-10.99398c-12.07692,-5.45882 -3.77459,-5.09958 -3.42267,-6.91932c0.3925,-2.02947 0.95708,-9.09352 2.02475,-12.49606c0.42193,-1.34464 -0.99017,-2.52631 0.59707,-1.97945c1.32908,0.45791 38.4659,12.60466 39.80437,14.10065c1.62639,1.81781 -20.96962,-6.1769 -26.0406,-5.78727c-8.35086,0.64163 -1.77863,8.99073 -2.03854,10.33458c-0.26732,1.3823 -5.0791,1.90047 0.7716,5.17032c6.13401,3.42818 22.88751,9.55867 20.01945,8.5705z" fill="#141414" stroke="none" stroke-width="0"/><path d="M139.41209,252.08764l39.45785,13.59475l-3.89449,20.13707l-39.45785,-13.59476z" fill="none" stroke="#000000" stroke-width="3.5"/><path d="M139.41209,252.08764l39.45785,13.59475l-3.89449,20.13707l-39.45785,-13.59476z" fill="none" stroke="#000000" stroke-width="3.5"/></g><g><path d="M158.0944,253.46159l7.98901,2.75253l-5.68979,29.42002l-7.98902,-2.75253z" fill="#252525" stroke="#000000" stroke-width="0"/><path d="M158.0944,253.46159l7.98901,2.75253l-5.68979,29.42002l-7.98902,-2.75253z" fill="#252525" stroke="#000000" stroke-width="0"/><path d="M159.85477,285.24531c-0.4054,-0.13967 -5.21131,-0.83885 -6.40616,-2.30475c-2.14905,-2.63657 -0.92528,-6.99511 -0.41111,-9.65372c0.80005,-4.13679 3.93351,-19.98712 5.06809,-19.59622c0.2691,0.09271 7.93611,1.78711 7.97096,3.311c0.04235,1.85172 -4.48483,-0.01416 -5.99915,2.5859c-2.49374,4.28176 -2.55156,13.15153 -2.93127,15.11491c-0.39057,2.0195 -1.86135,4.69191 -0.96293,6.83361c0.94194,2.2454 4.25225,3.90935 3.67154,3.70928z" fill="#141414" stroke="none" stroke-width="0"/><path d="M158.0944,253.46159l7.98901,2.75253l-5.68979,29.42002l-7.98902,-2.75253z" fill="none" stroke="#000000" stroke-width="3.5"/><path d="M158.0944,253.46159l7.98901,2.75253l-5.68979,29.42002l-7.98902,-2.75253z" fill="none" stroke="#000000" stroke-width="3.5"/></g><g><path d="M145.82647,247.02668l7.98902,2.75252l-6.42832,33.23873l-7.98902,-2.75253z" fill="#252525" stroke="#000000" stroke-width="0"/><path d="M145.82647,247.02668l7.98902,2.75252l-6.42832,33.23873l-7.98902,-2.75253z" fill="#252525" stroke="#000000" stroke-width="0"/><path d="M146.85311,282.60438c-0.4054,-0.13967 -5.23382,-0.72243 -6.40385,-2.31663c-2.10441,-2.86732 -0.76815,-7.80754 -0.18723,-10.81124c0.90389,-4.67374 4.43581,-22.5843 5.57038,-22.1934c0.2691,0.09271 7.95841,1.67185 7.95769,3.37973c-0.00089,2.07528 -4.52088,0.17215 -6.10866,3.15209c-2.61474,4.90737 -2.88176,14.85893 -3.31075,17.07716c-0.44125,2.28164 -1.98688,5.34091 -1.13157,7.70558c0.89674,2.47917 4.19472,4.20679 3.61403,4.00672z" fill="#141414" stroke="none" stroke-width="0"/><path d="M145.82647,247.02668l7.98902,2.75252l-6.42832,33.23873l-7.98902,-2.75253z" fill="none" stroke="#000000" stroke-width="3.5"/><path d="M145.82647,247.02668l7.98902,2.75252l-6.42832,33.23873l-7.98902,-2.75253z" fill="none" stroke="#000000" stroke-width="3.5"/></g></g><g><path d="M174.09366,255.7933l9.17565,3.16137l-6.63935,34.32979l-9.17564,-3.16136z" fill="#252525" stroke="#000000" stroke-width="0"/><path d="M174.09366,255.7933l9.17565,3.16137l-6.63935,34.32979l-9.17564,-3.16136z" fill="#252525" stroke="#000000" stroke-width="0"/><path d="M176.01175,292.8344c-0.46563,-0.16043 -5.98853,-0.94699 -7.35736,-2.64877c-2.46194,-3.06082 -1.0405,-8.14896 -0.44051,-11.25127c0.93356,-4.82716 4.5888,-23.3231 5.89189,-22.87413c0.30907,0.10649 9.11802,2.03625 9.15303,3.81251c0.04253,2.15837 -5.15609,0.01008 -6.9057,3.05005c-2.88128,5.00619 -2.97723,15.34639 -3.42031,17.63742c-0.45574,2.35652 -2.15558,5.48057 -1.1298,7.97192c1.07545,2.61198 4.8757,4.53207 4.20877,4.30228z" fill="#141414" stroke="none" stroke-width="0"/><path d="M174.09366,255.7933l9.17565,3.16137l-6.63935,34.32979l-9.17564,-3.16136z" fill="none" stroke="#000000" stroke-width="3.5"/><path d="M174.09366,255.7933l9.17565,3.16137l-6.63935,34.32979l-9.17564,-3.16136z" fill="none" stroke="#000000" stroke-width="3.5"/></g></g><g stroke-linecap="butt"><path d="M143.70836,269.34011l-30.65894,14.11001l-14.42356,-31.34025l30.65894,-14.11001z" fill="#151515" stroke="#000000" stroke-width="3.5"/><g><path d="M154.37172,266.13041l-14.09021,15.6034l-9.66374,-35.32333l8.81874,-6.03983z" fill="#ffffff" stroke="#000000" stroke-width="0"/><path d="M144.61185,255.00629c-2.20558,2.22034 -2.22828,-3.30976 -5.16695,-6.22892c-0.52413,-0.52066 -5.73374,-4.34291 -5.35684,0.49509c0.31337,4.02247 2.99928,10.44376 4.51599,16.26004c0.2735,1.04885 1.60996,7.11886 2.02557,8.13596c1.22013,2.98591 1.81448,0.70718 2.06647,2.61113c0.2664,2.01279 -1.66533,2.99742 -1.87079,2.9246c-0.88637,-0.31412 -7.85283,-20.62953 -9.40237,-30.57737c-0.54989,-3.53024 2.26681,-3.9096 2.54705,-4.1917c2.20559,-2.22033 6.37582,-1.65384 9.3145,1.26532c2.93869,2.91916 3.53298,7.08553 1.32739,9.30585z" fill="#a2a2a2" stroke="none" stroke-width="0"/><path d="M154.19315,265.60067l-14.09021,15.6034l-9.66374,-35.32333l8.81874,-6.03983z" fill="none" stroke="#000000" stroke-width="3.5"/><path d="M152.6122,268.61116l-9.33788,9.40034l-6.4806,-34.98038l2.64279,-2.66048z" fill="#696969" stroke="#000000" stroke-width="0"/><path d="M145.12073,275.08853c-0.58416,0.58808 3.09269,-4.34471 2.77474,-9.42892c-0.2911,-4.655 -4.01207,-12.76685 -5.41666,-14.1621c-2.93867,-2.91916 -5.4839,-9.02368 -4.36489,-10.15016c1.11901,-1.1265 4.95937,6.51212 7.89804,9.43128c1.58527,1.57473 6.82963,8.14751 6.26673,15.03778c-0.48059,5.88252 -6.64261,8.7533 -7.15797,9.27211z" fill="#3f3f3f" stroke="none" stroke-width="0"/><path d="M152.78602,267.72669l-9.33788,9.40034l-6.4806,-34.98038l2.64279,-2.66048c0,0 9.5077,14.10287 11.93738,19.31062c1.67486,3.58984 1.23829,8.92989 1.23829,8.92989z" fill="none" stroke="#000000" stroke-width="3.5"/></g><g><path d="M113.59978,293.33849c-14.61209,6.72484 -32.37704,-0.68581 -39.67912,-16.55216c-7.30209,-15.86635 -1.37616,-34.18012 13.23593,-40.90497c10.50266,-4.83359 39.85402,-5.61095 48.55842,2.05185c3.40582,2.99826 -10.93289,10.03814 -8.8793,14.5003c2.57071,5.58573 -15.09858,15.90716 -15.60864,21.48711c-0.93877,10.26997 11.84062,15.06048 2.37272,19.41785z" fill="#ff007b" stroke="#000000" stroke-width="0"/><path d="M99.90437,279.87907c-5.38138,0.19098 -12.94959,3.49536 -13.29237,-6.16354c-0.16368,-4.61212 -4.35242,-18.35393 -2.14038,-24.15248c2.4205,-6.34503 11.37964,-4.56218 14.19142,-4.66196c3.02007,-0.10717 9.71447,-3.06543 12.5625,3.7406c2.22681,5.32152 0.99232,20.01106 1.14275,24.24935c0.34278,9.65889 -7.08253,6.79705 -12.46391,6.98803z" fill="#b10055" stroke="none" stroke-width="0"/><path d="M126.38587,245.97138c-1.59494,-2.80705 -4.46258,-7.00271 -5.71908,-9.73289c-0.9862,-2.14285 -12.73118,-3.55736 -23.98588,1.47305c-0.3994,0.17852 -15.27672,7.82805 -15.72867,8.00113c-5.04324,1.93143 -2.60637,20.12748 -3.65167,25.28835c-1.16558,5.7547 5.54208,18.42176 6.99091,17.75496c0.66624,-0.30663 -11.77297,-11.38653 -12.90978,-16.45124c-2.9513,-13.14873 3.28902,-31.92291 11.38042,-35.64777c17.54181,-8.07534 50.97283,-2.52026 52.0999,-0.07134c1.84718,4.01362 -1.6376,9.56023 -7.78346,12.38871c-1.96528,0.90448 0.05709,-1.68337 -0.69269,-3.00296z" fill="#b10055" stroke="none" stroke-width="0"/><path d="M114.17657,292.79783c-14.61209,6.72484 -32.37704,-0.68581 -39.67912,-16.55216c-7.30209,-15.86635 -1.37616,-34.18012 13.23593,-40.90497c10.50266,-4.83359 39.85402,-5.61095 48.55842,2.05185c3.40582,2.99826 -10.93289,10.03814 -8.8793,14.5003c2.57069,5.58574 -15.0986,15.90716 -15.60867,21.48712c-0.93877,10.26996 11.84062,15.06048 2.37272,19.41784z" fill="none" stroke="#000000" stroke-width="3.5"/><path d="M84.30228,251.50566c-2.82847,-6.14584 1.74182,-14.28669 10.20806,-18.18305c8.46623,-3.89637 17.6224,-2.0728 20.45088,4.07306c2.82847,6.14584 -1.74182,14.28669 -10.20806,18.18305c-8.46623,3.89637 -17.6224,2.0728 -20.45088,-4.07306z" fill="#000000" stroke="#000000" stroke-width="3.5"/><path d="M121.99357,289.75067c-3.06689,1.41146 -10.82423,5.43998 -17.699,5.40596c-8.86993,-0.04391 -16.93448,-4.71589 -18.51167,-8.14289c-2.79962,-6.08315 0.6248,-13.635 7.64863,-16.86754c7.02384,-3.23254 14.98731,-0.92168 17.78693,5.16147c2.7996,6.08314 17.79893,11.21045 10.7751,14.443z" fill="#000000" stroke="#000000" stroke-width="3.5"/></g></g><g stroke-linecap="butt"><g><g><path d="M220.1535,63.0081l12.85902,59.71534l-24.24253,3.87907l-12.85901,-59.71535z" fill="#252525" stroke="#000000" stroke-width="0"/><path d="M220.1535,63.0081l12.85902,59.71534l-24.24253,3.87907l-12.85901,-59.71535z" fill="#252525" stroke="#000000" stroke-width="0"/><path d="M231.92893,118.44553c0.93468,4.34052 -4.95068,-21.04775 -8.51135,-30.45429c-3.39621,-8.97206 -4.41268,-1.89405 -6.07679,-1.62779c-1.61784,0.25889 -10.98685,-10.25828 -12.44488,2.04979c-0.88537,7.47397 6.72734,41.69033 4.70376,39.11101c-1.66532,-2.12269 -12.99788,-58.2646 -13.43102,-60.27602c-0.51727,-2.40212 0.76858,-0.19984 2.40085,-0.69862c4.13036,-1.26214 12.5678,-1.43567 15.01102,-1.82661c2.19073,-0.35053 2.45593,-12.68062 7.93325,5.7183c3.04533,10.22964 9.76261,44.97396 10.41515,48.00425z" fill="#141414" stroke="none" stroke-width="0"/><path d="M220.1535,63.0081l12.85902,59.71534l-24.24253,3.87907l-12.85901,-59.71535z" fill="none" stroke="#000000" stroke-width="3.5"/><path d="M220.1535,63.0081l12.85902,59.71534l-24.24253,3.87907l-12.85901,-59.71535z" fill="none" stroke="#000000" stroke-width="3.5"/></g><g><path d="M231.40402,89.01868l2.60355,12.09053l-35.41802,5.66727l-2.60356,-12.09054z" fill="#252525" stroke="#000000" stroke-width="0"/><path d="M231.40402,89.01868l2.60355,12.09053l-35.41802,5.66727l-2.60356,-12.09054z" fill="#252525" stroke="#000000" stroke-width="0"/><path d="M229.49091,94.48889c-2.46896,-1.53153 -5.76569,0.39611 -8.19692,0.78514c-2.36365,0.37821 -12.90362,-0.36819 -18.19713,2.92359c-3.21445,1.99892 -1.37551,8.87906 -3.57137,8.64263c-1.80712,-0.19458 -3.1807,-11.70895 -3.2684,-12.1162c-0.36974,-1.71705 18.71775,-4.87113 23.69792,-5.668c3.20064,-0.51215 8.47949,-1.9158 11.43202,1.51443c1.64158,1.90718 2.07151,9.09067 2.20363,9.70421c0.18924,0.87883 -1.51125,-4.18009 -4.09975,-5.7858z" fill="#141414" stroke="none" stroke-width="0"/><path d="M231.40402,89.01868l2.60355,12.09053l-35.41802,5.66727l-2.60356,-12.09054z" fill="none" stroke="#000000" stroke-width="3.5"/><path d="M231.40402,89.01868l2.60355,12.09053l-35.41802,5.66727l-2.60356,-12.09054z" fill="none" stroke="#000000" stroke-width="3.5"/></g><g><path d="M229.38051,69.50973l2.60356,12.09055l-40.01529,6.40288l-2.60355,-12.09055z" fill="#252525" stroke="#000000" stroke-width="0"/><path d="M229.38051,69.50973l2.60356,12.09055l-40.01529,6.40288l-2.60355,-12.09055z" fill="#252525" stroke="#000000" stroke-width="0"/><path d="M231.53738,80.7705c0.18924,0.87883 -1.58792,-4.16782 -4.45783,-5.7285c-2.73737,-1.48859 -6.49985,0.51361 -9.24666,0.95313c-2.67046,0.42729 -14.51277,-0.11073 -20.55944,3.30157c-3.67178,2.07209 -1.788,8.94507 -4.253,8.75171c-2.0286,-0.15913 -3.26344,-11.69572 -3.35114,-12.10297c-0.36974,-1.71705 21.198,-5.26799 26.82462,-6.16831c3.61608,-0.57861 9.59522,-2.09433 12.82553,1.29144c1.79603,1.88247 2.08581,9.08838 2.21792,9.70191z" fill="#141414" stroke="none" stroke-width="0"/><path d="M229.38051,69.50973l2.60356,12.09055l-40.01529,6.40288l-2.60355,-12.09055z" fill="none" stroke="#000000" stroke-width="3.5"/><path d="M229.38051,69.50973l2.60356,12.09055l-40.01529,6.40288l-2.60355,-12.09055z" fill="none" stroke="#000000" stroke-width="3.5"/></g></g><g><path d="M238.75099,111.98774l2.99028,13.88638l-41.32878,6.61309l-2.99029,-13.88638z" fill="#252525" stroke="#000000" stroke-width="0"/><path d="M238.75099,111.98774l2.99028,13.88638l-41.32878,6.61309l-2.99029,-13.88638z" fill="#252525" stroke="#000000" stroke-width="0"/><path d="M236.49888,118.27922c-2.87361,-1.75295 -6.72589,0.47158 -9.56285,0.92552c-2.75811,0.44133 -15.04776,-0.3865 -21.23403,3.41129c-3.75656,2.30616 -1.63813,10.20722 -4.1982,9.94177c-2.10685,-0.21847 -3.66483,-13.44624 -3.76556,-13.91398c-0.42467,-1.97209 21.84864,-5.65077 27.65994,-6.58063c3.73479,-0.59761 9.89671,-2.22558 13.32708,1.70785c1.90724,2.18696 2.38123,10.4406 2.53296,11.14528c0.21736,1.00935 -1.74655,-4.79925 -4.75933,-6.63708z" fill="#141414" stroke="none" stroke-width="0"/><path d="M238.75099,111.98774l2.99028,13.88638l-41.32878,6.61309l-2.99029,-13.88638z" fill="none" stroke="#000000" stroke-width="3.5"/><path d="M238.75099,111.98774l2.99028,13.88638l-41.32878,6.61309l-2.99029,-13.88638z" fill="none" stroke="#000000" stroke-width="3.5"/></g></g><g data-paper-data="{&quot;index&quot;:null}" stroke-linecap="butt"><g><g><path d="M375.80348,116.47694l-52.72772,30.83931l-11.24539,-21.82404l52.72773,-30.83932z" fill="#252525" stroke="#000000" stroke-width="0"/><path d="M375.80348,116.47694l-52.72772,30.83931l-11.24539,-21.82404l52.72773,-30.83932z" fill="#252525" stroke="#000000" stroke-width="0"/><path d="M326.80245,144.95269c-3.83262,2.24161 18.45441,-11.26731 26.28153,-17.58375c7.4656,-6.02469 0.42357,-4.78327 -0.34834,-6.28137c-0.75049,-1.45643 6.32064,-13.63792 -5.82838,-11.18511c-7.37737,1.48944 -37.51361,19.39252 -35.69393,16.66551c1.49753,-2.24422 51.30601,-30.51886 53.08207,-31.55764c2.12104,-1.24055 0.42955,0.66793 1.41246,2.06326c2.48721,3.53083 5.2832,11.49341 6.41654,13.6929c1.0162,1.97218 12.81416,-1.62084 -2.95927,9.32084c-8.76989,6.08347 -39.68699,23.3004 -42.36269,24.86536z" fill="#141414" stroke="none" stroke-width="0"/><path d="M375.80348,116.47694l-52.72772,30.83931l-11.24539,-21.82404l52.72773,-30.83932z" fill="none" stroke="#000000" stroke-width="3.5"/><path d="M375.80348,116.47694l-52.72772,30.83931l-11.24539,-21.82404l52.72773,-30.83932z" fill="none" stroke="#000000" stroke-width="3.5"/></g><g><path d="M354.59825,135.27754l-10.67575,6.24402l-16.42936,-31.88464l10.67576,-6.24402z" fill="#252525" stroke="#000000" stroke-width="0"/><path d="M354.59825,135.27754l-10.67575,6.24402l-16.42936,-31.88464l10.67576,-6.24402z" fill="#252525" stroke="#000000" stroke-width="0"/><path d="M348.80422,135.16565c0.68525,-2.82343 -2.17432,-5.35467 -3.30211,-7.54335c-1.09642,-2.12785 -3.67401,-12.375 -8.45237,-16.37804c-2.90164,-2.43082 -8.86524,1.4619 -9.32536,-0.69819c-0.37865,-1.77768 10.13322,-6.6734 10.49281,-6.88371c1.51613,-0.88675 10.46513,16.26539 12.77528,20.74874c1.48471,2.88134 4.4645,7.45925 2.12602,11.33422c-1.30018,2.15445 -7.99139,4.80303 -8.53314,5.1199c-0.77598,0.45386 3.5004,-2.73941 4.21884,-5.69956z" fill="#141414" stroke="none" stroke-width="0"/><path d="M354.59825,135.27754l-10.67575,6.24402l-16.42936,-31.88464l10.67576,-6.24402z" fill="none" stroke="#000000" stroke-width="3.5"/><path d="M354.59825,135.27754l-10.67575,6.24402l-16.42936,-31.88464l10.67576,-6.24402z" fill="none" stroke="#000000" stroke-width="3.5"/></g><g><path d="M372.50339,127.27129l-10.67577,6.24403l-18.5619,-36.02328l10.67577,-6.24401z" fill="#252525" stroke="#000000" stroke-width="0"/><path d="M372.50339,127.27129l-10.67577,6.24403l-18.5619,-36.02328l10.67577,-6.24401z" fill="#252525" stroke="#000000" stroke-width="0"/><path d="M362.47672,132.83216c-0.77598,0.45386 3.46482,-2.80843 4.05274,-6.02191c0.56074,-3.06507 -2.5149,-6.01558 -3.78906,-8.48836c-1.23874,-2.40405 -4.42042,-13.82362 -9.54815,-18.5047c-3.11377,-2.84252 -9.05659,1.09057 -9.64156,-1.3118c-0.48139,-1.97707 10.09485,-6.74788 10.45445,-6.9582c1.51613,-0.88675 11.61565,18.49821 14.22566,23.5635c1.67739,3.25533 4.98205,8.46368 2.77245,12.58871c-1.22853,2.29348 -7.98476,4.81591 -8.5265,5.13276z" fill="#141414" stroke="none" stroke-width="0"/><path d="M372.50339,127.27129l-10.67577,6.24403l-18.5619,-36.02328l10.67577,-6.24401z" fill="none" stroke="#000000" stroke-width="3.5"/><path d="M372.50339,127.27129l-10.67577,6.24403l-18.5619,-36.02328l10.67577,-6.24401z" fill="none" stroke="#000000" stroke-width="3.5"/></g></g><g><path d="M335.0656,149.42078l-12.26146,7.17146l-19.17122,-37.20572l12.26145,-7.17148z" fill="#252525" stroke="#000000" stroke-width="0"/><path d="M335.0656,149.42078l-12.26146,7.17146l-19.17122,-37.20572l12.26145,-7.17148z" fill="#252525" stroke="#000000" stroke-width="0"/><path d="M328.38556,149.24289c0.76944,-3.27696 -2.54545,-6.24345 -3.86143,-8.79739c-1.27942,-2.48296 -4.32524,-14.41794 -9.86276,-19.11144c-3.3626,-2.85009 -10.20908,1.62655 -10.75519,-0.88865c-0.44943,-2.06991 11.63292,-7.67513 12.04592,-7.9167c1.74133,-1.01847 12.18223,18.99704 14.87791,24.22859c1.73245,3.3622 5.20078,8.7092 2.5332,13.19509c-1.48316,2.49412 -9.17742,5.51827 -9.79964,5.88218c-0.89124,0.52127 4.01531,-3.15604 4.82199,-6.5917z" fill="#141414" stroke="none" stroke-width="0"/><path d="M335.0656,149.42078l-12.26146,7.17146l-19.17122,-37.20572l12.26145,-7.17148z" fill="none" stroke="#000000" stroke-width="3.5"/><path d="M335.0656,149.42078l-12.26146,7.17146l-19.17122,-37.20572l12.26145,-7.17148z" fill="none" stroke="#000000" stroke-width="3.5"/></g></g><g stroke-linecap="butt"><g data-paper-data="{&quot;index&quot;:null}"><path d="M325.71348,45.81891c2.50112,9.35203 -9.52332,20.69146 -26.85736,25.32731c-17.33404,4.63585 -33.4136,0.81263 -35.91473,-8.53943c-1.24756,-4.66481 -2.46296,-10.25298 2.37375,-14.82815c4.85995,-4.59716 15.7958,-8.17568 24.48361,-10.49916c9.30885,-2.48958 24.15038,-6.42738 30.82694,-4.49163c5.75588,1.66882 3.92984,8.70131 5.0878,13.03106z" fill="#ffa047" stroke="#000000" stroke-width="0"/><path d="M323.94725,36.68269c0.43485,1.62598 -6.81912,-0.54195 -19.15644,1.81412c-13.23096,2.52674 -31.83807,9.67975 -38.61373,14.55388c-3.03682,2.18456 -0.53662,7.78994 4.50533,11.64936c5.49882,4.20914 13.61508,6.62525 10.62166,7.42582c-17.5723,4.69957 -19.65357,-13.42089 -20.99175,-18.42453c-1.33818,-5.00364 11.82217,-12.86964 29.39447,-17.56921c17.5723,-4.69957 32.90229,-4.45307 34.24047,0.55057z" fill="#ba491c" stroke="none" stroke-width="0"/><path d="M298.07439,70.87675c-17.33404,4.63585 -33.41361,0.81262 -35.91474,-8.53942c-1.24756,-4.66481 -2.46295,-10.25298 2.37375,-14.82815c4.85995,-4.59716 15.7958,-8.17568 24.48361,-10.49916c9.30885,-2.48958 24.15037,-6.42739 30.82694,-4.49164c5.75588,1.66882 3.92985,8.70133 5.0878,13.03107c2.50113,9.35204 -9.52332,20.69146 -26.85736,25.32731z" fill="none" stroke="#000000" stroke-width="3.5"/></g><path d="M341.57602,37.30401c2.50113,9.35204 -1.78113,18.62088 -9.56467,20.70252c-7.78355,2.08165 -16.12092,-3.81216 -18.62205,-13.16421c-1.24756,-4.66481 -2.60648,-10.2146 -0.88592,-13.95638c1.72884,-3.75977 6.54948,-5.70283 10.45059,-6.74615c4.17997,-1.1179 10.84863,-2.86994 14.35837,-0.08725c3.02576,2.39897 3.10574,8.92172 4.26369,13.25146z" fill="#47ff79" stroke="#000000" stroke-width="0"/><path d="M339.46159,28.26093c0.43485,1.62598 -3.38733,-1.45974 -9.05693,-0.8869c-6.08027,0.61435 -14.13614,4.94551 -16.75756,8.7086c-1.17491,1.6866 0.81055,7.42966 3.79071,11.84048c3.2502,4.81052 7.52542,8.25388 6.18128,8.61336c-7.89054,2.11026 -11.39349,-15.62999 -12.73167,-20.63363c-1.33818,-5.00365 3.97355,-10.77059 11.86409,-12.88085c7.89054,-2.11026 15.37189,0.23529 16.71007,5.23893z" fill="#1cba6d" stroke="none" stroke-width="0"/><path d="M341.1592,36.93696c2.50113,9.35204 -1.78112,18.62087 -9.56467,20.70252c-7.78355,2.08165 -16.12093,-3.81218 -18.62205,-13.16421c-1.24756,-4.66481 -2.60648,-10.2146 -0.88592,-13.95638c1.72883,-3.75978 6.54948,-5.70281 10.45058,-6.74613c4.17997,-1.1179 10.84862,-2.86995 14.35837,-0.08726c3.02576,2.39897 3.10573,8.92173 4.26368,13.25146z" fill="none" stroke="#000000" stroke-width="3.5"/><g><path d="M301.94342,48.51536c2.50113,9.35204 -1.78113,18.62088 -9.56467,20.70252c-7.78355,2.08165 -14.8937,0.77657 -17.39483,-8.57548c-0.40938,-1.53072 12.98318,-7.62753 12.66256,-9.25368c-0.65645,-3.32948 -15.93167,-6.77749 -14.7757,-9.29142c1.72884,-3.75977 6.54948,-5.70283 10.45059,-6.74615c4.17997,-1.1179 10.84863,-2.86994 14.35837,-0.08725c3.02576,2.39897 3.10574,8.92172 4.26369,13.25146z" fill="#6447ff" stroke="#000000" stroke-width="0"/><path d="M299.82898,39.47228c0.43485,1.62598 -3.38733,-1.45974 -9.05693,-0.8869c-6.08027,0.61435 3.45493,12.66266 0.83351,16.42576c-1.17491,1.6866 -14.69958,4.59048 -11.71942,9.00131c3.2502,4.81052 5.44448,3.3759 4.10034,3.73538c-3.61321,0.96632 -10.93758,-2.19848 -8.07316,-7.27074c1.72744,-3.0589 14.2099,-7.54417 13.47899,-10.16023c-0.70384,-2.51921 -15.64174,-4.51464 -15.9976,-5.84526c-1.33818,-5.00365 1.83364,-8.128 9.72418,-10.23826c7.89054,-2.11026 15.37189,0.23529 16.71007,5.23893z" fill="#1c29ba" stroke="none" stroke-width="0"/><path d="M301.5266,48.14831c2.50113,9.35204 -1.78112,18.62087 -9.56467,20.70252c-4.05278,1.08388 -18.43867,-4.28021 -18.00245,-8.1918c0.40156,-3.6008 15.53613,-5.52509 14.3373,-10.00766c-1.24756,-4.66481 -17.56337,-5.17935 -15.84282,-8.92113c1.72883,-3.75978 6.54948,-5.70281 10.45058,-6.74613c4.17997,-1.1179 10.84862,-2.86995 14.35837,-0.08726c3.02576,2.39897 3.10573,8.92173 4.26368,13.25146z" fill="none" stroke="#000000" stroke-width="3.5"/></g><g><path d="M324.07615,42.80012c1.50307,5.62017 -6.0993,4.70912 -8.78351,8.72738c-1.78236,2.66818 2.32482,11.14447 -0.78115,11.97514c-7.78355,2.08165 -16.12092,-3.81216 -18.62205,-13.16421c-1.24756,-4.66481 -2.60648,-10.2146 -0.88592,-13.95638c1.72884,-3.75977 6.54948,-5.70283 10.45059,-6.74615c4.17997,-1.1179 10.84863,-2.86994 14.35837,-0.08725c3.02576,2.39897 3.10574,8.92172 4.26369,13.25146z" fill="#ff4747" stroke="#000000" stroke-width="0"/><path d="M321.96171,33.75703c0.43485,1.62598 -3.38733,-1.45974 -9.05693,-0.8869c-6.08027,0.61435 -14.13614,4.94551 -16.75756,8.7086c-1.17491,1.6866 0.81055,7.42966 3.79071,11.84048c3.2502,4.81052 7.52542,8.25388 6.18128,8.61336c-7.89054,2.11026 -11.39349,-15.62999 -12.73167,-20.63363c-1.33818,-5.00365 3.97355,-10.77059 11.86409,-12.88085c7.89054,-2.11026 15.37189,0.23529 16.71007,5.23893z" fill="#ba1c1c" stroke="none" stroke-width="0"/><path d="M323.65932,42.43307c1.62488,6.07562 -4.8366,4.19678 -8.03773,8.25432c-1.72628,2.18811 1.19997,11.71891 -1.52693,12.4482c-7.78355,2.08165 -16.12093,-3.81218 -18.62205,-13.16421c-1.24756,-4.66481 -2.60648,-10.2146 -0.88592,-13.95638c1.72883,-3.75978 6.54948,-5.70281 10.45058,-6.74613c4.17997,-1.1179 10.84862,-2.86995 14.35837,-0.08726c3.02576,2.39897 3.10573,8.92173 4.26368,13.25146z" fill="none" stroke="#000000" stroke-width="3.5"/></g></g><g data-paper-data="{&quot;index&quot;:null}" stroke-linecap="butt"><path d="M367.38921,143.41152c-14.60037,-6.79283 -20.75482,-24.51119 -13.74634,-39.57505c7.00847,-15.06388 24.5259,-21.76888 39.12627,-14.97605c3.55053,1.65188 2.11162,21.28154 5.15756,22.71771c3.2755,1.54441 10.95017,-15.04135 12.2247,-11.28561c2.41403,7.11358 -0.16454,20.68166 -3.63591,28.14295c-2.45564,5.27811 -7.02894,-6.46595 -11.48737,-3.46129c-5.12983,3.45714 -6.43609,16.44485 -12.33123,20.93765c-3.60412,2.74676 -11.7091,-0.82606 -15.30767,-2.5003z" fill="#737373" stroke="#000000" stroke-width="0"/><path d="M351.6946,127.28615c-3.75438,-1.74673 -2.56738,-12.25574 2.65123,-23.47253c5.21861,-11.21679 12.49267,-18.8938 16.24705,-17.14707c1.69682,0.78945 14.93044,-3.37567 22.6489,4.3632c1.83557,1.84043 -0.30556,21.14885 2.58041,21.55964c5.57658,0.79379 16.16567,-18.12834 14.04695,-13.5744c-0.39782,0.85506 4.09837,10.42139 0.8329,13.13845c-3.35162,2.78875 -13.26573,4.584 -15.83283,3.22985c-9.59107,-5.0593 -17.02233,-26.73841 -22.81622,-22.15956c-10.96456,8.66519 -18.28145,35.02871 -20.35839,34.06242z" fill="#484848" stroke="none" stroke-width="0"/><path d="M367.29945,143.16557c-14.60037,-6.79283 -20.75482,-24.51119 -13.74634,-39.57505c0.3581,-0.76969 0.74363,-1.51756 1.15481,-2.24292c7.63616,-13.4709 24.1171,-19.17888 37.97146,-12.73314c5.02546,2.3381 1.24327,18.0649 4.07512,22.438c2.42463,3.74423 11.67708,-15.37197 13.96807,-13.57909c2.80714,2.1968 -1.76612,25.27663 -4.29686,30.71615c-1.56397,3.36157 -8.70617,-6.14316 -11.16759,-3.67121c-4.8265,4.84715 -6.41357,16.86798 -11.59136,21.09468c-4.01458,3.27716 -11.41383,-0.14282 -16.36732,-2.44743z" fill="none" stroke="#000000" stroke-width="5"/><path d="M370.91024,128.64751c-4.44964,-2.0702 -5.25973,-9.76033 -1.80941,-17.17639c3.45032,-7.41606 9.8545,-11.74974 14.30415,-9.67954c4.44964,2.0702 5.25973,9.76033 1.80941,17.17639c-3.45032,7.41606 -9.8545,11.74974 -14.30415,9.67954z" fill="#484848" stroke="none" stroke-width="0"/><path d="M371.30427,130.87265c-4.72774,-2.19958 -7.5464,-6.16201 -6.29566,-8.85034c1.25075,-2.68832 6.09726,-3.08452 10.825,-0.88494c4.72774,2.19958 7.5464,6.16201 6.29566,8.85034c-1.25075,2.68832 -6.09726,3.08452 -10.825,0.88494z" fill="#000000" stroke="#000000" stroke-width="5"/><path d="M378.84647,110.49238c-1.22157,-0.56834 3.06993,-6.8586 2.70148,-12.0588c-0.3725,-5.25732 -5.39408,-9.43091 -4.62435,-11.08534c1.53109,-3.29088 5.21678,-2.04787 7.67335,-0.90495c2.45657,1.14292 3.00089,16.86899 1.4698,20.15987c-1.53109,3.29088 -4.76371,5.03214 -7.22029,3.88922z" fill="#000000" stroke="#000000" stroke-width="5"/></g><g data-paper-data="{&quot;index&quot;:null}" stroke-linecap="butt"><g><path d="M234.6846,52.00251l6.94664,24.94148l-53.17316,15.81913l-6.94663,-24.94147z" fill="#252525" stroke="#000000" stroke-width="0"/><path d="M234.6846,52.00251l6.94664,24.94148l-53.17316,15.81913l-6.94663,-24.94147z" fill="#252525" stroke="#000000" stroke-width="0"/><path d="M234.6846,52.00251l6.94664,24.94148l-53.17316,15.81913l-6.94663,-24.94147z" fill="none" stroke="#000000" stroke-width="3.5"/><path d="M188.30178,90.86344c-0.35251,-1.26567 -6.00154,-15.24577 -5.42032,-20.10428c1.04537,-8.73848 10.10636,-7.60045 14.9115,-9.02999c7.47675,-2.22436 35.56882,-12.9928 36.55535,-9.45071c0.23399,0.84012 8.35629,23.76265 6.06311,25.48946c-2.78649,2.09828 -6.2526,-12.36307 -12.36694,-13.74983c-10.06906,-2.28372 -23.7811,7.04937 -27.32966,8.10509c-3.65,1.08589 -9.81465,-0.10362 -11.84912,4.66197c-2.133,4.99636 -0.05897,15.89121 -0.5639,14.0783z" fill="#141414" stroke="none" stroke-width="0"/><path d="M234.6846,52.00251l6.94664,24.94148l-53.17316,15.81913l-6.94663,-24.94147z" fill="none" stroke="#000000" stroke-width="3.5"/></g><g><path d="M190.1059,56.97255l6.81517,24.97664l-25.85471,8.51304l-6.81516,-24.97663z" fill="#252525" stroke="#000000" stroke-width="0"/><path d="M190.1059,56.97255l6.81517,24.97664l-25.85471,8.51304l-6.81516,-24.97663z" fill="#6c6c6c" stroke="#000000" stroke-width="0"/><path d="M190.1059,56.97255l6.81517,24.97664l-25.85471,8.51304l-6.81516,-24.97663z" fill="none" stroke="#000000" stroke-width="3.5"/><path d="M170.74266,88.6073c-0.34583,-1.26745 -5.08583,-15.49066 -5.39958,-20.10983c-0.5643,-8.30799 4.3294,-6.05546 6.66584,-6.82476c3.63546,-1.19704 16.98799,-8.0235 17.95585,-4.47642c0.22956,0.8413 7.40393,24.01735 6.42186,25.39351c-1.19334,1.67221 -4.85051,-12.73805 -8.23154,-14.85581c-5.56786,-3.48753 -11.56648,3.78268 -13.29192,4.35081c-1.77476,0.58436 -5.15705,-1.34927 -5.61679,2.99518c-0.482,4.5548 1.99165,15.34278 1.49627,13.52733z" fill="#545454" stroke="none" stroke-width="0"/><path d="M190.1059,56.97255l6.81517,24.97664l-25.85471,8.51304l-6.81516,-24.97663z" fill="none" stroke="#000000" stroke-width="3.5"/></g><g><path d="M228.9607,44.11891l6.81517,24.97664l-25.8547,8.51304l-6.81517,-24.97663z" fill="#252525" stroke="#000000" stroke-width="0"/><path d="M228.9607,44.11891l6.81517,24.97664l-25.8547,8.51304l-6.81517,-24.97663z" fill="#6c6c6c" stroke="#000000" stroke-width="0"/><path d="M228.9607,44.11891l6.81517,24.97664l-25.8547,8.51304l-6.81517,-24.97663z" fill="none" stroke="#000000" stroke-width="3.5"/><path d="M209.59746,75.75368c-0.34583,-1.26745 -5.08582,-15.49066 -5.39958,-20.10983c-0.5643,-8.30799 4.32941,-6.05545 6.66584,-6.82476c3.63546,-1.19704 16.98798,-8.02351 17.95585,-4.47643c0.22956,0.8413 7.40393,24.01736 6.42186,25.39351c-1.19335,1.67221 -4.85051,-12.73805 -8.23155,-14.8558c-5.56786,-3.48753 -11.56649,3.78267 -13.29192,4.3508c-1.77476,0.58436 -5.15705,-1.34926 -5.61679,2.99519c-0.482,4.5548 1.99164,15.34277 1.49627,13.52732z" fill="#545454" stroke="none" stroke-width="0"/><path d="M228.9607,44.11891l6.81517,24.97664l-25.8547,8.51304l-6.81517,-24.97663z" fill="none" stroke="#000000" stroke-width="3.5"/></g><g><path d="M207.36981,50.03805l6.81517,24.97664l-25.85471,8.51304l-6.81516,-24.97663z" fill="#252525" stroke="#000000" stroke-width="0"/><path d="M207.36981,50.03805l6.81517,24.97664l-25.85471,8.51304l-6.81516,-24.97663z" fill="#6c6c6c" stroke="#000000" stroke-width="0"/><path d="M207.36981,50.03805l6.81517,24.97664l-25.85471,8.51304l-6.81516,-24.97663z" fill="none" stroke="#000000" stroke-width="3.5"/><path d="M188.00657,81.67282c-0.34583,-1.26745 -5.08582,-15.49066 -5.39958,-20.10983c-0.5643,-8.30799 4.32941,-6.05545 6.66584,-6.82476c3.63546,-1.19704 16.98798,-8.02351 17.95585,-4.47643c0.22956,0.8413 7.40392,24.01736 6.42186,25.39351c-1.19335,1.67221 -4.85051,-12.73805 -8.23154,-14.85581c-5.56786,-3.48753 -11.56649,3.78267 -13.29192,4.3508c-1.77476,0.58436 -5.15705,-1.34926 -5.61679,2.99519c-0.482,4.5548 1.99164,15.34277 1.49627,13.52732z" fill="#545454" stroke="none" stroke-width="0"/><path d="M207.36981,50.03805l6.81517,24.97664l-25.85471,8.51304l-6.81516,-24.97663z" fill="none" stroke="#000000" stroke-width="3.5"/></g></g></g></g></svg>