<svg version="1.1" xmlns="http://www.w3.org/2000/svg" xmlns:xlink="http://www.w3.org/1999/xlink" width="317.5" height="301.663" viewBox="0,0,317.5,301.663"><g transform="translate(-77.5,-39.5)"><g data-paper-data="{&quot;isPaintingLayer&quot;:true}" fill-rule="nonzero" stroke-linejoin="miter" stroke-miterlimit="10" stroke-dasharray="" stroke-dashoffset="0" style="mix-blend-mode: normal"><path d="M87,318.5v-277h306v277z" fill="#2f2f2f" stroke="#000000" stroke-width="4" stroke-linecap="butt"/><path d="M229.19213,210.07551v-127h98v127z" fill="#000000" stroke="none" stroke-width="0" stroke-linecap="butt"/><text transform="translate(203.4125,299.83125) scale(3.30654,3.30654)" font-size="40" xml:space="preserve" fill="#ffffff" fill-rule="nonzero" stroke="none" stroke-width="1" stroke-linecap="butt" stroke-linejoin="miter" stroke-miterlimit="10" stroke-dasharray="" stroke-dashoffset="0" font-family="Sans Serif" font-weight="normal" text-anchor="start" style="mix-blend-mode: normal"><tspan x="0" dy="0">2</tspan></text><path d="M87.0961,316.13213v-171.11411l304.80481,57v114.11411c0,0 -58.14992,0 -96.40165,0c-56.24203,0 -208.40315,0 -208.40315,0z" fill="#a0a0a0" stroke="#000000" stroke-width="0" stroke-linecap="butt"/><path d="M267.5,309.57409c49.70563,0 122.5,-18.11347 122.5,0.25c0,10.49699 -9.85488,7.36229 -36.57799,6.17738c-20.02641,-0.88798 -54.12927,1.07262 -75.42201,1.07262c-9.63095,0 -42.5575,-2.69074 -85.0457,-1.84048c-38.80868,0.77662 -86.75453,5.50171 -108.70297,-2.22044c-10.73103,-3.77551 8.22901,-10.87429 0.78637,-17.70837c-4.72782,-4.34124 0.95461,-10.13836 0.70707,-15.9923c-0.56312,-13.31673 -0.50158,-29.01494 -0.59247,-43.39695c-0.26366,-41.72088 -0.6523,-81.93055 -0.6523,-88.59146c0,-18.36347 133.29437,162.25 183,162.25z" fill="#5d5d5d" stroke="#000000" stroke-width="0" stroke-linecap="butt"/><path d="M79.5,297v-82h312v82z" fill="#4c4c4c" stroke="#000000" stroke-width="4" stroke-linecap="butt"/><path d="M312.39097,316.63213l-226.29487,-0.5v-171.11411l304.80481,57v114.11411h-84.29186" fill="none" stroke="#000000" stroke-width="4" stroke-linecap="butt"/><path d="M228.22577,77.71114v-28.5h91.5v28.5z" fill="#ff0000" stroke="#ffffff" stroke-width="4" stroke-linecap="butt"/><text transform="translate(235.72577,69.31661) scale(0.33572,0.40339)" font-size="40" xml:space="preserve" fill="#ffffff" fill-rule="nonzero" stroke="none" stroke-width="1" stroke-linecap="butt" stroke-linejoin="miter" stroke-miterlimit="10" stroke-dasharray="" stroke-dashoffset="0" font-family="Sans Serif" font-weight="normal" text-anchor="start" style="mix-blend-mode: normal"><tspan x="0" dy="0">Stage Room</tspan></text><path d="M82.5,240l-2,-77l306,53v76z" fill="#747474" stroke="#000000" stroke-width="4" stroke-linecap="butt"/><path d="M123.5,173l-10,75" fill="none" stroke="#000000" stroke-width="4" stroke-linecap="round"/><path d="M190.5,185l-13,77" fill="none" stroke="#000000" stroke-width="4" stroke-linecap="round"/><path d="M292.5,200l-11,77" fill="none" stroke="#000000" stroke-width="4" stroke-linecap="round"/><path d="M243.5,194l-13,69" fill="none" stroke="#000000" stroke-width="4" stroke-linecap="round"/><path d="M338.5,208l-9,79" fill="none" stroke="#000000" stroke-width="4" stroke-linecap="round"/><path d="M365.5,212v81" fill="none" stroke="#000000" stroke-width="4" stroke-linecap="round"/></g></g></svg>