<svg version="1.1" xmlns="http://www.w3.org/2000/svg" xmlns:xlink="http://www.w3.org/1999/xlink" width="90.594" height="88.69123" viewBox="0,0,90.594,88.69123"><defs><linearGradient x1="240" y1="131.91247" x2="240" y2="219.84566" gradientUnits="userSpaceOnUse" id="color-1"><stop offset="0" stop-color="#272727"/><stop offset="1" stop-color="#1d1d1d"/></linearGradient></defs><g transform="translate(-194.703,-131.15442)"><g data-paper-data="{&quot;isPaintingLayer&quot;:true}" fill-rule="nonzero" stroke="none" stroke-linecap="butt" stroke-linejoin="miter" stroke-miterlimit="10" stroke-dasharray="" stroke-dashoffset="0" style="mix-blend-mode: normal"><g><path d="M195.12048,219.84566l-0.41748,-68.60303l78.90445,-20.0882l11.68955,74.28838c0,0 -26.96604,7.58044 -28.38891,7.58044c-8.19438,0 -61.78762,6.82241 -61.78762,6.82241z" fill="url(#color-1)" stroke-width="NaN"/><path d="M220.35215,193.68786l13.8504,-38.23638l26.39111,39.1541l-23.25541,1.64699z" fill="#722020" stroke-width="0"/><path d="M237.70384,182.30912c2.76684,0 5.00981,2.19615 5.00981,4.90523c0,2.7091 -2.24297,4.90523 -5.00981,4.90523c-2.76684,0 -5.00981,-2.19615 -5.00981,-4.90523c0,-2.7091 2.24297,-4.90523 5.00981,-4.90523z" fill="#ffffff" stroke-width="0"/><path d="M236.45138,164.79036c1.61399,0 2.92239,3.52954 2.92239,7.88341c0,4.35387 -1.3084,7.88341 -2.92239,7.88341c-1.61398,0 -2.92238,-3.52954 -2.92238,-7.88341c0,-4.35387 1.30839,-7.88341 2.92238,-7.88341z" fill="#ffffff" stroke-width="0"/></g></g></g></svg>