<svg version="1.1" xmlns="http://www.w3.org/2000/svg" xmlns:xlink="http://www.w3.org/1999/xlink" width="519.05943" height="293.82695" viewBox="0,0,519.05943,293.82695"><defs><linearGradient x1="231.52889" y1="116.72133" x2="231.52889" y2="210.72133" gradientUnits="userSpaceOnUse" id="color-1"><stop offset="0" stop-color="#0e0e19" stop-opacity="0"/><stop offset="1" stop-color="#0e0e19"/></linearGradient><linearGradient x1="349.28178" y1="130.50946" x2="349.28178" y2="241.04742" gradientUnits="userSpaceOnUse" id="color-2"><stop offset="0" stop-color="#0e0e19" stop-opacity="0"/><stop offset="1" stop-color="#0e0e19"/></linearGradient><linearGradient x1="72.93429" y1="220.46093" x2="72.93429" y2="317.31719" gradientUnits="userSpaceOnUse" id="color-3"><stop offset="0" stop-color="#272727"/><stop offset="1" stop-color="#1d1d1d"/></linearGradient><linearGradient x1="428.21307" y1="101.47802" x2="428.21307" y2="284.33596" gradientUnits="userSpaceOnUse" id="color-4"><stop offset="0" stop-color="#272727"/><stop offset="1" stop-color="#1d1d1d"/></linearGradient></defs><g transform="translate(13.33863,-68.09812)"><g data-paper-data="{&quot;isPaintingLayer&quot;:true}" fill-rule="nonzero" stroke-linejoin="miter" stroke-miterlimit="10" stroke-dasharray="" stroke-dashoffset="0" style="mix-blend-mode: normal"><path d="M121.02889,209.72133l3,-92l198,-1v94z" fill="url(#color-1)" stroke="#000000" stroke-width="4" stroke-linecap="butt"/><path d="M319.52079,229.83734v-113.34656l61.24938,-1.40803l0.70402,114.05058z" fill="#000000" stroke="none" stroke-width="NaN" stroke-linecap="butt"/><path d="M321.1538,241.04742v-110.53796h56.25593v110.53796z" fill="url(#color-2)" stroke="#000000" stroke-width="4" stroke-linecap="butt"/><path d="M-10.58945,310.22556v-39.47784c0,0 5.3873,45.05702 34.13839,45.05702c21.51756,0 72.75229,-32.49982 122.49145,-39.88904c89.52877,-13.30034 186.82739,-5.16798 186.82739,-5.16798c0,0 27.86026,12.70456 50.56858,16.21895c30.32613,4.69333 115.23836,4.44165 115.23836,4.44165c0,0 21.25476,35.79158 -23.4801,53.42713c-30.94813,12.20049 -120.75242,12.95855 -159.04467,13.99749c-44.3765,1.20401 -211.4527,4.23001 -293.45752,-10.57066c-41.99397,-7.5793 -33.28188,-38.03671 -33.28188,-38.03671z" fill="#3c3c3c" stroke="#000000" stroke-width="4" stroke-linecap="butt"/><path d="M125.28245,280.93012v-73h201v73z" fill="#090909" stroke="#000000" stroke-width="4" stroke-linecap="butt"/><path d="M135.61356,221.33227v-7h200.5v7z" fill="#010101" stroke="none" stroke-width="0" stroke-linecap="butt"/><path d="M141.14841,280.44379v-63h13v63z" fill="#010101" stroke="none" stroke-width="0" stroke-linecap="butt"/><path d="M11.93297,247.39546l-4,-55h104v25c0,0 -54.37856,16.31357 -72.79068,21.83721c-11.25705,3.37712 -27.20931,8.16279 -27.20931,8.16279z" fill="#090909" stroke="#000000" stroke-width="4" stroke-linecap="butt"/><path d="M107.93535,302.58133v-222h20.5v222z" fill="#090909" stroke="#000000" stroke-width="4" stroke-linecap="butt"/><path d="M105.73667,120.0459l-52,-47.5l421.62539,-4.44778l-138.62539,51.94778z" fill="#050505" stroke="none" stroke-width="0" stroke-linecap="butt"/><path d="M176.14902,112.86446v-35.69649h99.03012v35.6965z" fill="#272200" stroke="none" stroke-width="0" stroke-linecap="butt"/><path d="M179.17914,109.86446v-30.1965h93.5v30.1965z" fill="#000000" stroke="none" stroke-width="0" stroke-linecap="butt"/><path d="M301.14841,279.44379v-58.5h13v58.5z" fill="#010101" stroke="none" stroke-width="0" stroke-linecap="butt"/><path d="M323.46648,136.46908l-3,-18l55,-20.5v30z" fill="#090909" stroke="#000000" stroke-width="4" stroke-linecap="butt"/><path d="M321.69973,281.14441l2.98695,-72.86946l52.93473,23.93473l2.94778,52.97389z" fill="#090909" stroke="#000000" stroke-width="4" stroke-linecap="butt"/><g stroke="none" stroke-linecap="butt"><path d="M28.05478,317.31719l-0.41748,-75.56458l78.90445,-22.12665l11.68955,81.82684c0,0 -26.96603,8.34968 -28.3889,8.34968c-8.19437,0 -61.78761,7.51471 -61.78761,7.51471z" fill="url(#color-3)" stroke-width="NaN"/><path d="M53.28645,294.13679l13.8504,-45.56002l26.39111,46.65353l-23.2554,1.96244z" fill="#722020" stroke-width="0"/><path d="M70.63814,280.57861c2.76684,0 5.00981,2.61679 5.00981,5.84477c0,3.22798 -2.24297,5.84477 -5.00981,5.84477c-2.76684,0 -5.00981,-2.61679 -5.00981,-5.84477c0,-3.22798 2.24297,-5.84477 5.00981,-5.84477z" fill="#ffffff" stroke-width="0"/><path d="M69.38568,259.70441c1.61399,0 2.92239,4.20557 2.92239,9.39339c0,5.18783 -1.3084,9.39339 -2.92239,9.39339c-1.61399,0 -2.92239,-4.20557 -2.92239,-9.39339c0,-5.18783 1.3084,-9.39339 2.92239,-9.39339z" fill="#ffffff" stroke-width="0"/></g><g><path d="M378.96649,285.7359v-189l67,-23l4,212z" fill="none" stroke="#000000" stroke-width="4" stroke-linecap="butt"/><path d="M379.5762,284.33596v-182.85794l65.02266,-21.50072l4.30014,204.35866z" fill="url(#color-4)" stroke="none" stroke-width="0" stroke-linecap="butt"/><text transform="translate(402.472,158.11513) rotate(89.94801) scale(0.5,0.5)" font-size="40" xml:space="preserve" fill="#ead700" fill-rule="nonzero" stroke="none" stroke-width="1" stroke-linecap="butt" stroke-linejoin="miter" stroke-miterlimit="10" stroke-dasharray="" stroke-dashoffset="0" font-family="Sans Serif" font-weight="normal" text-anchor="start" style="mix-blend-mode: normal"><tspan x="0" dy="0">:)</tspan></text><path d="M401.93144,162.94509l-0.29452,9.13026" fill="none" stroke="#ead700" stroke-width="0.5" stroke-linecap="round"/><path d="M413.4179,162.06151l-0.29452,25.32912" fill="none" stroke="#ead700" stroke-width="0.5" stroke-linecap="round"/><path d="M406.05479,167.95201v11.48646" fill="none" stroke="#ead700" stroke-width="0.5" stroke-linecap="round"/><text transform="translate(407.1278,245.92743) rotate(67.09216) scale(0.5,0.5)" font-size="40" xml:space="preserve" fill="#ead700" fill-rule="nonzero" stroke="none" stroke-width="1" stroke-linecap="butt" stroke-linejoin="miter" stroke-miterlimit="10" stroke-dasharray="" stroke-dashoffset="0" font-family="Sans Serif" font-weight="normal" text-anchor="start" style="mix-blend-mode: normal"><tspan x="0" dy="0">:)</tspan></text><text transform="translate(416.11763,124.28185) rotate(112.90789) scale(0.5,-0.5)" font-size="40" xml:space="preserve" data-paper-data="{&quot;index&quot;:null}" fill="#ead700" fill-rule="nonzero" stroke="none" stroke-width="1" stroke-linecap="butt" stroke-linejoin="miter" stroke-miterlimit="10" stroke-dasharray="" stroke-dashoffset="0" font-family="Sans Serif" font-weight="normal" text-anchor="start" style="mix-blend-mode: normal"><tspan x="0" dy="0">:)</tspan></text><path d="M406.05479,131.13643v9.13026" fill="none" stroke="#ead700" stroke-width="0.5" stroke-linecap="round"/><path d="M413.71243,127.30761l-1.76715,35.932" fill="none" stroke="#ead700" stroke-width="0.5" stroke-linecap="round"/><path d="M402.81502,124.65689l-6.47954,10.01384" fill="none" stroke="#ead700" stroke-width="0.5" stroke-linecap="round"/><path d="M414.596,252.77509l2.3562,8.24669" fill="none" stroke="#ead700" stroke-width="0.5" stroke-linecap="round"/><path d="M419.01387,249.2408l7.95216,16.49338" fill="none" stroke="#ead700" stroke-width="0.5" stroke-linecap="round"/><path d="M413.12338,254.24771v7.06859" fill="none" stroke="#ead700" stroke-width="0.5" stroke-linecap="round"/></g></g></g></svg>