<svg version="1.1" xmlns="http://www.w3.org/2000/svg" xmlns:xlink="http://www.w3.org/1999/xlink" width="301.59616" height="373.60791" viewBox="0,0,301.59616,373.60791"><g transform="translate(70.08185,-36.38013)"><g data-paper-data="{&quot;isPaintingLayer&quot;:true}" fill-rule="nonzero" stroke-width="7" stroke-linejoin="miter" stroke-miterlimit="10" stroke-dasharray="" stroke-dashoffset="0" style="mix-blend-mode: normal"><g data-paper-data="{&quot;index&quot;:null}" stroke-linecap="butt"><g data-paper-data="{&quot;index&quot;:null}"><g><g><path d="M186.74338,292.87616l-66.22893,-74.85596l17.86304,-30.4622l66.2289,74.85602z" fill="#252525" stroke="#000000"/><path d="M186.74338,292.87616l-66.22893,-74.85596l17.86304,-30.4622l66.2289,74.85602z" fill="#252525" stroke="#000000"/><path d="M125.40251,223.21692c-4.81398,-5.44104 23.71327,25.95735 35.50264,36.18187c11.24483,9.75227 5.64032,-1.71383 6.86654,-3.80487c1.19209,-2.03292 19.13558,3.89879 9.11625,-15.72388c-6.08417,-11.91566 -44.24893,-54.55777 -40.0906,-52.82317c3.42213,1.42754 65.01877,72.57677 67.24962,75.09819c2.66414,3.0112 -0.49573,1.07899 -1.48017,3.48012c-2.49107,6.07591 -9.78912,14.94455 -11.5894,18.0146c-1.61423,2.75276 9.47961,21.19021 -12.26554,-0.32684c-12.09011,-11.96327 -49.94851,-56.29734 -53.30935,-60.09595z" fill="#141414" stroke="none"/><path d="M186.74338,292.87616l-66.22893,-74.85596l17.86304,-30.4622l66.2289,74.85602z" fill="none" stroke="#000000"/><path d="M186.74338,292.87616l-66.22893,-74.85596l17.86304,-30.4622l66.2289,74.85602z" fill="none" stroke="#000000"/></g><g><path d="M152.90229,266.03769l-13.40934,-15.15604l26.09769,-44.50486l13.40934,15.15604z" fill="#252525" stroke="#000000"/><path d="M152.90229,266.03769l-13.40934,-15.15604l26.09769,-44.50486l13.40934,15.15604z" fill="#252525" stroke="#000000"/><path d="M140.6282,251.68561c-0.97467,-1.10166 5.17618,4.61612 8.9393,4.33955c3.58927,-0.26381 4.73213,-6.4693 6.52357,-9.52427c1.74162,-2.97002 11.74324,-12.62957 13.39763,-22.88324c1.00463,-6.22644 -6.94185,-14.4862 -4.78383,-16.37941c1.77598,-1.55802 13.56886,14.00468 14.02052,14.51518c1.90433,2.15242 -12.06848,26.28412 -15.73812,32.54201c-2.35838,4.02183 -5.73453,11.47859 -11.49567,9.43856c-3.20312,-1.13426 -10.18297,-11.27933 -10.86343,-12.04839z" fill="#141414" stroke="none"/><path d="M152.90229,266.03769l-13.40934,-15.15604l26.09769,-44.50486l13.40934,15.15604z" fill="none" stroke="#000000"/><path d="M152.90229,266.03769l-13.40934,-15.15604l26.09769,-44.50486l13.40934,15.15604z" fill="none" stroke="#000000"/></g><g><path d="M172.61462,292.71589l-13.40934,-15.15607l29.48517,-50.28161l13.40935,15.15609z" fill="#252525" stroke="#000000"/><path d="M172.61462,292.71589l-13.40934,-15.15607l29.48517,-50.28161l13.40935,15.15609z" fill="#252525" stroke="#000000"/><path d="M160.36246,278.32636c-0.97469,-1.10166 5.23264,4.51978 9.20313,3.88962c3.78708,-0.6011 5.27305,-7.3918 7.29701,-10.84335c1.96773,-3.35556 12.92896,-14.65155 15.13832,-25.85157c1.34158,-6.8011 -6.63795,-15.00457 -4.28158,-17.23597c1.93919,-1.83633 13.62986,13.90074 14.08153,14.41124c1.90433,2.1524 -13.89605,29.40071 -18.04201,36.47088c-2.66451,4.54383 -6.55663,12.88058 -12.52245,11.18961c-3.31695,-0.94019 -10.19351,-11.26132 -10.87392,-12.03041z" fill="#141414" stroke="none"/><path d="M172.61462,292.71589l-13.40934,-15.15607l29.48517,-50.28161l13.40935,15.15609z" fill="none" stroke="#000000"/><path d="M172.61462,292.71589l-13.40934,-15.15607l29.48517,-50.28161l13.40935,15.15609z" fill="none" stroke="#000000"/></g></g><g><path d="M125.30581,239.69567l-15.40104,-17.40723l30.453,-51.93213l15.40109,17.40721z" fill="#252525" stroke="#000000"/><path d="M125.30581,239.69567l-15.40104,-17.40723l30.453,-51.93213l15.40109,17.40721z" fill="#252525" stroke="#000000"/><path d="M121.5161,228.12704c4.15037,-0.35068 5.51142,-7.56064 7.60187,-11.12545c2.03232,-3.46572 13.65519,-14.79143 15.63376,-26.70189c1.20148,-7.23254 -7.93,-16.7112 -5.42339,-18.93341c2.06289,-1.82877 15.59291,16.07017 16.11166,16.65649c2.1872,2.47212 -14.11945,30.62884 -18.40149,37.93111c-2.75199,4.693 -6.70255,13.38172 -13.34833,11.08807c-3.695,-1.27526 -11.69694,-12.95204 -12.47846,-13.8354c-1.11947,-1.26525 5.95299,5.28815 10.30435,4.92052z" fill="#141414" stroke="none"/><path d="M125.30581,239.69567l-15.40104,-17.40723l30.453,-51.93213l15.40109,17.40721z" fill="none" stroke="#000000"/><path d="M125.30581,239.69567l-15.40104,-17.40723l30.453,-51.93213l15.40109,17.40721z" fill="none" stroke="#000000"/></g></g><g data-paper-data="{&quot;index&quot;:null}"><g><g><path d="M211.04468,281.83687l6.88904,112.39169l-24.35456,-0.55005l-6.88903,-112.39166z" fill="#252525" stroke="#000000"/><path d="M211.04468,281.83687l6.88904,112.39169l-24.35456,-0.55005l-6.88903,-112.39166z" fill="#252525" stroke="#000000"/><path d="M193.24048,385.58328c-0.34958,-5.70338 -5.08666,-70.89073 -5.46364,-90.37095c-0.67802,-35.03696 3.52845,-12.61638 5.72929,-12.5667c2.45451,0.05543 10.55366,-1.89935 14.8959,-0.70887c1.71599,0.47043 2.23563,-3.89302 2.51277,0.62807c0.23204,3.78576 7.43047,109.24806 6.52353,113.56847c-1.10208,5.24986 -4.81623,-59.21547 -8.0568,-72.61081c-5.33654,-22.05934 -10.89581,-0.3523 -12.52115,-0.38901c-1.67179,-0.03773 -4.91033,-12.67549 -5.27111,4.60519c-0.37823,18.11751 2.15193,66.01401 1.65116,57.84458z" fill="#141414" stroke="none"/><path d="M211.04468,281.83687l6.88904,112.39169l-24.35456,-0.55005l-6.88903,-112.39166z" fill="none" stroke="#000000"/><path d="M211.04468,281.83687l6.88904,112.39169l-24.35456,-0.55005l-6.88903,-112.39166z" fill="none" stroke="#000000"/></g><g><path d="M219.88686,332.56641l1.39482,22.75589l-35.58168,-0.80363l-1.39483,-22.75589z" fill="#252525" stroke="#000000"/><path d="M219.88686,332.56641l1.39482,22.75589l-35.58168,-0.80363l-1.39483,-22.75589z" fill="#252525" stroke="#000000"/><path d="M187.88301,341.2263c-1.95279,3.62586 -1.95173,13.31192 -2.05314,11.65785c-0.07076,-1.15475 -1.96429,-14.3743 -1.0109,-18.29521c1.71476,-7.0521 7.19724,-5.91265 10.41268,-5.84c5.0032,0.11301 24.21092,0.72825 24.40901,3.95996c0.04698,0.76651 2.4296,22.14028 0.76922,22.98168c-2.01753,1.02241 -2.47056,-12.02307 -6.17589,-14.8041c-6.10191,-4.57976 -15.91046,-0.38087 -18.28502,-0.4345c-2.44245,-0.05514 -6.20339,-2.68401 -8.066,0.77436z" fill="#141414" stroke="none"/><path d="M219.88686,332.56641l1.39482,22.75589l-35.58168,-0.80363l-1.39483,-22.75589z" fill="none" stroke="#000000"/><path d="M219.88686,332.56641l1.39482,22.75589l-35.58168,-0.80363l-1.39483,-22.75589z" fill="none" stroke="#000000"/></g><g><path d="M220.17884,296.53861l1.39483,22.75591l-40.20019,-0.90792l-1.39482,-22.75592z" fill="#252525" stroke="#000000"/><path d="M220.17884,296.53861l1.39483,22.75591l-40.20019,-0.90792l-1.39482,-22.75592z" fill="#252525" stroke="#000000"/><path d="M181.53318,316.75266c-0.0708,-1.15476 -2.10511,-14.37748 -0.99655,-18.29488c1.99386,-7.04575 8.17985,-5.89042 11.81266,-5.80836c5.65263,0.12769 27.35208,0.7992 27.55016,4.03091c0.047,0.76648 2.56899,22.14346 0.68611,22.97982c-2.28789,1.01629 -2.69589,-12.02821 -6.86066,-14.81959c-6.85851,-4.59684 -17.97547,-0.42748 -20.65824,-0.48806c-2.75948,-0.06231 -6.98831,-2.70179 -9.12058,0.75049c-2.23548,3.61954 -2.31145,13.30381 -2.41286,11.64974z" fill="#141414" stroke="none"/><path d="M220.17884,296.53861l1.39483,22.75591l-40.20019,-0.90792l-1.39482,-22.75592z" fill="none" stroke="#000000"/><path d="M220.17884,296.53861l1.39483,22.75591l-40.20019,-0.90792l-1.39482,-22.75592z" fill="none" stroke="#000000"/></g></g><g><path d="M226.18602,376.57753l1.60198,26.1359l-41.51976,-0.93781l-1.602,-26.1359z" fill="#252525" stroke="#000000"/><path d="M226.18602,376.57753l1.60198,26.1359l-41.51976,-0.93781l-1.602,-26.1359z" fill="#252525" stroke="#000000"/><path d="M188.83052,386.51007c-2.28282,4.16352 -2.29251,15.28798 -2.40896,13.38824c-0.0813,-1.3263 -2.27598,-16.5098 -1.15901,-21.01259c2.00896,-8.09862 8.40518,-6.78771 12.15725,-6.70296c5.83816,0.13187 28.25117,0.84647 28.47868,4.55819c0.05396,0.88035 2.81018,25.42929 0.87176,26.39495c-2.35545,1.17339 -2.86938,-13.80968 -7.19004,-17.00521c-7.11522,-5.26244 -18.56566,-0.44401 -21.33654,-0.5066c-2.85006,-0.06434 -7.23576,-3.08522 -9.41313,0.88601z" fill="#141414" stroke="none"/><path d="M226.18602,376.57753l1.60198,26.1359l-41.51976,-0.93781l-1.602,-26.1359z" fill="none" stroke="#000000"/><path d="M226.18602,376.57753l1.60198,26.1359l-41.51976,-0.93781l-1.602,-26.1359z" fill="none" stroke="#000000"/></g></g></g><g stroke-linecap="butt"><g data-paper-data="{&quot;index&quot;:null}"><g><g><path d="M-53.24359,264.53956l60.66721,-79.43034l20.01003,29.09697l-60.66721,79.4303z" fill="#252525" stroke="#000000"/><path d="M-53.24359,264.53956l60.66721,-79.43034l20.01003,29.09697l-60.66721,79.4303z" fill="#252525" stroke="#000000"/><path d="M22.9325,219.7414c-3.07861,4.03075 -37.64659,50.97564 -48.84391,63.77837c-20.1394,23.0269 -10.40192,3.83852 -12.21017,1.20914c-2.01666,-2.93246 -9.93434,-11.2526 -12.85642,-17.13339c-1.15477,-2.32401 -4.1673,-0.1693 -1.72689,-3.36451c2.04349,-2.6755 58.35736,-78.07515 61.66784,-79.74538c4.02262,-2.02949 -30.97277,43.24988 -36.18316,55.57269c-8.58048,20.29314 8.88938,13.08486 10.22474,15.02667c1.3736,1.99731 -3.39079,13.83719 7.12267,3.30059c11.02258,-11.04684 37.21501,-44.41778 32.80532,-38.64423z" fill="#141414" stroke="none"/><path d="M-53.24359,264.53956l60.66721,-79.43034l20.01003,29.09697l-60.66721,79.4303z" fill="none" stroke="#000000"/><path d="M-53.24359,264.53956l60.66721,-79.43034l20.01003,29.09697l-60.66721,79.4303z" fill="none" stroke="#000000"/></g><g><path d="M-30.64719,221.92077l12.28327,-16.08221l29.23441,42.51025l-12.28326,16.08221z" fill="#252525" stroke="#000000"/><path d="M-30.64719,221.92077l12.28327,-16.08221l29.23441,42.51025l-12.28326,16.08221z" fill="#252525" stroke="#000000"/><path d="M9.79611,249.23245c-0.62332,0.81606 -6.8546,11.43737 -9.96773,12.79931c-5.5993,2.44955 -9.50359,-4.74477 -12.14543,-8.58635c-4.11071,-5.97742 -19.78478,-29.04042 -18.04037,-31.32436c0.41372,-0.5417 11.05545,-16.91312 12.93903,-15.48701c2.28874,1.73291 -5.04237,10.5434 -3.59203,16.68135c2.38838,10.10793 13.05954,19.02227 15.01049,21.85918c2.00675,2.91804 3.59343,9.02514 7.1924,9.02984c3.77325,0.0049 9.49647,-6.14092 8.60364,-4.97194z" fill="#141414" stroke="none"/><path d="M-30.64719,221.92077l12.28327,-16.08221l29.23441,42.51025l-12.28326,16.08221z" fill="none" stroke="#000000"/><path d="M-30.64719,221.92077l12.28327,-16.08221l29.23441,42.51025l-12.28326,16.08221z" fill="none" stroke="#000000"/></g><g><path d="M-52.18207,244.43124l12.28326,-16.08226l33.02906,48.02811l-12.28327,16.08224z" fill="#252525" stroke="#000000"/><path d="M-52.18207,244.43124l12.28326,-16.08226l33.02906,48.02811l-12.28327,16.08224z" fill="#252525" stroke="#000000"/><path d="M-7.96875,277.22502c-0.62328,0.81608 -6.73887,11.60554 -9.97948,12.78213c-5.82857,2.11613 -10.31087,-5.91875 -13.29561,-10.25893c-4.64428,-6.75331 -22.36559,-32.79324 -20.62117,-35.07716c0.41374,-0.5417 10.94094,-17.07968 13.00732,-15.38773c2.51091,2.05594 -4.85723,10.81266 -3.02944,17.49951c3.01006,11.01187 14.75616,21.48931 16.96039,24.69448c2.26725,3.29686 4.23829,9.96294 8.05884,10.2898c4.00556,0.34264 9.79203,-5.71115 8.89918,-4.54217z" fill="#141414" stroke="none"/><path d="M-52.18207,244.43124l12.28326,-16.08226l33.02906,48.02811l-12.28327,16.08224z" fill="none" stroke="#000000"/><path d="M-52.18207,244.43124l12.28326,-16.08226l33.02906,48.02811l-12.28327,16.08224z" fill="none" stroke="#000000"/></g></g><g><path d="M-9.89781,186.56569l14.10773,-18.47093l34.11318,49.60466l-14.10773,18.47096z" fill="#252525" stroke="#000000"/><path d="M-9.89781,186.56569l14.10773,-18.47093l34.11318,49.60466l-14.10773,18.47096z" fill="#252525" stroke="#000000"/><path d="M27.16234,224.35893c4.36654,0.05337 10.94881,-6.99226 9.92334,-5.64968c-0.71589,0.93733 -7.85631,13.15996 -11.44992,14.69797c-6.46336,2.76621 -11.0293,-5.61552 -14.11203,-10.09819c-4.79671,-6.97498 -23.08837,-33.88452 -21.08485,-36.50771c0.47518,-0.62214 12.68135,-19.44882 14.87053,-17.77333c2.66014,2.03596 -5.76517,12.14751 -4.04605,19.27477c2.83103,11.73709 15.23919,22.19651 17.51576,25.50691c2.34169,3.40504 4.21835,10.49829 8.3832,10.54923z" fill="#141414" stroke="none"/><path d="M-9.89781,186.56569l14.10773,-18.47093l34.11318,49.60466l-14.10773,18.47096z" fill="none" stroke="#000000"/><path d="M-9.89781,186.56569l14.10773,-18.47093l34.11318,49.60466l-14.10773,18.47096z" fill="none" stroke="#000000"/></g></g><g data-paper-data="{&quot;index&quot;:null}"><g><g><path d="M-34.01492,282.0734l1.2213,112.59598l-24.25173,2.3022l-1.22127,-112.596z" fill="#252525" stroke="#000000"/><path d="M-34.01492,282.0734l1.2213,112.59598l-24.25173,2.3022l-1.22127,-112.596z" fill="#252525" stroke="#000000"/><path d="M-33.03867,386.57075c0.08877,8.18428 -0.83629,-39.77008 -2.51805,-57.81334c-1.6041,-17.20984 -3.92427,-4.3717 -5.58901,-4.21371c-1.61846,0.15365 -8.72628,-21.09677 -12.46063,1.28955c-2.26766,13.59391 -1.33053,78.15934 -2.80775,73.00246c-1.21566,-4.2439 -1.62944,-109.95076 -1.67059,-113.74341c-0.04911,-4.52932 0.78336,-0.2146 2.46102,-0.80737c4.24525,-1.50004 12.46413,-0.1335 14.90828,-0.36551c2.19157,-0.20803 4.77276,-22.87329 6.61928,12.12156c1.02662,19.45681 0.99546,84.81604 1.05744,90.52978z" fill="#141414" stroke="none"/><path d="M-34.01492,282.0734l1.2213,112.59598l-24.25173,2.3022l-1.22127,-112.596z" fill="none" stroke="#000000"/><path d="M-34.01492,282.0734l1.2213,112.59598l-24.25173,2.3022l-1.22127,-112.596z" fill="none" stroke="#000000"/></g><g><path d="M-28.00176,332.24661l0.24724,22.79726l-35.43149,3.36349l-0.24727,-22.79726z" fill="#252525" stroke="#000000"/><path d="M-28.00176,332.24661l0.24724,22.79726l-35.43149,3.36349l-0.24727,-22.79726z" fill="#252525" stroke="#000000"/><path d="M-30.88892,341.9432c-2.10678,-3.31528 -5.66868,-0.42243 -8.10082,-0.19157c-2.36455,0.22447 -12.44995,-3.25729 -18.20628,1.74993c-3.49546,3.04061 -3.00803,16.08484 -5.09395,15.21036c-1.71664,-0.71966 -0.87915,-22.20952 -0.88748,-22.97742c-0.03512,-3.23758 19.07845,-5.23423 24.06053,-5.70718c3.20186,-0.30398 8.58809,-1.83522 10.80617,5.07511c1.23322,3.8421 0.29646,17.16367 0.30902,18.32051c0.01795,1.65708 -0.67841,-8.00391 -2.8872,-11.47976z" fill="#141414" stroke="none"/><path d="M-28.00176,332.24661l0.24724,22.79726l-35.43149,3.36349l-0.24727,-22.79726z" fill="none" stroke="#000000"/><path d="M-28.00176,332.24661l0.24724,22.79726l-35.43149,3.36349l-0.24727,-22.79726z" fill="none" stroke="#000000"/></g><g><path d="M-26.28807,295.89678l0.24727,22.79728l-40.03047,3.80008l-0.24727,-22.79728z" fill="#252525" stroke="#000000"/><path d="M-26.28807,295.89678l0.24727,22.79728l-40.03047,3.80008l-0.24727,-22.79728z" fill="#252525" stroke="#000000"/><path d="M-26.31778,317.07592c0.01795,1.65708 -0.75511,-7.99659 -3.2454,-11.44577c-2.37531,-3.2898 -6.40309,-0.35268 -9.15094,-0.09184c-2.67148,0.25359 -14.05976,-3.10451 -20.56948,1.97423c-3.95298,3.08402 -3.42069,16.12404 -5.77581,15.27512c-1.93819,-0.69862 -0.96194,-22.2017 -0.97025,-22.96957c-0.03512,-3.23758 21.55966,-5.46977 27.1884,-6.00413c3.61745,-0.34342 9.70423,-1.94115 12.20022,4.94275c1.38774,3.82742 0.31077,17.16229 0.32331,18.31915z" fill="#141414" stroke="none"/><path d="M-26.28807,295.89678l0.24727,22.79728l-40.03047,3.80008l-0.24727,-22.79728z" fill="none" stroke="#000000"/><path d="M-26.28807,295.89678l0.24727,22.79728l-40.03047,3.80008l-0.24727,-22.79728z" fill="none" stroke="#000000"/></g></g><g><path d="M-25.20266,376.03567l0.284,26.18341l-41.34447,3.92489l-0.28402,-26.18341z" fill="#252525" stroke="#000000"/><path d="M-25.20266,376.03567l0.284,26.18341l-41.34447,3.92489l-0.28402,-26.18341z" fill="#252525" stroke="#000000"/><path d="M-28.57348,387.17766c-2.45765,-3.80415 -6.61447,-0.47532 -9.45251,-0.20594c-2.75918,0.26194 -14.52684,-3.71951 -21.24469,2.04158c-4.07934,3.49834 -3.51314,18.47951 -5.94694,17.47877c-2.00293,-0.82359 -1.02143,-25.50727 -1.031,-26.38922c-0.04034,-3.71846 22.26305,-6.045 28.07656,-6.59688c3.73622,-0.35468 10.02147,-2.12272 12.60832,5.81023c1.43828,4.41067 0.34254,19.71278 0.35693,21.04149c0.02064,1.90319 -0.78999,-9.19171 -3.36667,-13.18004z" fill="#141414" stroke="none"/><path d="M-25.20266,376.03567l0.284,26.18341l-41.34447,3.92489l-0.28402,-26.18341z" fill="none" stroke="#000000"/><path d="M-25.20266,376.03567l0.284,26.18341l-41.34447,3.92489l-0.28402,-26.18341z" fill="none" stroke="#000000"/></g></g></g><g><path d="M-14.01529,313.70558c2.72701,-31.57927 33.15187,-98.11332 57.20543,-123.87642c15.36788,-16.46011 23.21271,-0.57469 35.62251,0.49695c13.92667,1.20263 30.87747,-5.73199 42.11459,18.62562c14.44859,31.31874 21.22327,97.99333 18.70923,127.10643c-4.46929,51.75532 -45.17513,44.43949 -77.00857,41.69054c-31.83341,-2.74895 -81.1125,-12.28783 -76.6432,-64.04317z" fill="#00ffe6" stroke="#000000" stroke-linecap="butt"/><path d="M78.3097,174.43547c26.72807,2.30808 48.40979,16.70087 46.67429,36.79829c-0.0772,0.89395 13.96998,18.44582 -5.94981,22.13492c-8.626,1.59751 -21.87425,-11.7602 -37.54898,-12.70639c-19.32338,-1.16648 -41.22,10.2179 -49.25337,15.63707c-34.52305,23.28864 -36.17717,63.89964 -32.72028,69.69065c5.66148,9.48415 2.16626,29.19023 13.5299,36.69533c43.74591,28.89196 127.76818,31.80731 110.57263,30.32241c-14.11413,-1.21882 -102.61352,15.32986 -126.34127,-20.1503c-7.27404,-10.87688 -12.37193,-29.61595 -8.8989,-47.61686c6.65172,-34.47635 30.53119,-70.9348 31.06928,-77.16605c1.7355,-20.09742 32.13847,-55.94715 58.86653,-53.63906z" fill="#00d6c0" stroke="none" stroke-linecap="butt"/><path d="M43.58306,188.93978c15.36787,-16.46008 26.51189,-14.49343 38.92166,-13.4218c13.92667,1.20263 27.57832,8.18678 38.81544,32.54439c14.44859,31.31874 21.22327,97.99333 18.70923,127.10644c-4.46929,51.75532 -45.17516,44.43951 -77.00857,41.69056c-31.83341,-2.74895 -81.11247,-12.28786 -76.64318,-64.04317c2.72701,-31.57927 33.15189,-98.11331 57.20543,-123.87641z" fill="none" stroke="#000000" stroke-linecap="butt"/><path d="M138.23467,292.51304l-23.60454,0.55711l-23.99387,5.06557l-30.01852,-1.29451l-30.22859,-5.20584l-15.47881,-11.06966l-18.86505,-3.57567" fill="none" stroke="#000000" stroke-linecap="round"/><g stroke-linecap="butt"><path d="M133.61383,220.28351c-0.58362,6.75843 -4.16909,44.41179 -19.33504,43.10214c-15.16594,-1.30964 -36.16925,-41.08637 -35.58563,-47.84477c0.58362,-6.75843 27.64999,-37.19317 42.81593,-35.88353c15.16594,1.30964 12.68837,33.86774 12.10475,40.62616z" data-paper-data="{&quot;index&quot;:null}" fill="#ff0000" stroke="#000000"/><path d="M133.49345,230.70497c-0.78328,9.07054 -6.09572,31.59251 -19.6099,30.4255c-13.51419,-1.16701 -30.11257,-25.58107 -29.32929,-34.65161c0.46751,-5.41388 23.15368,34.65419 33.97962,23.25608c4.6407,-4.88599 9.34981,-19.94344 9.88438,-38.55054c0.30769,-10.71077 -4.13512,-30.26421 -2.14481,-30.09234c13.51419,1.16701 8.00329,40.54241 7.22001,49.61292z" data-paper-data="{&quot;index&quot;:null}" fill="#bf0000" stroke="none"/><path d="M133.26795,220.62805c-0.58362,6.75843 -4.16909,44.41179 -19.33504,43.10214c-15.16591,-1.30964 -36.16925,-41.08635 -35.58563,-47.84478c0.58362,-6.75843 27.64999,-37.19317 42.81593,-35.88353c15.16594,1.30964 12.68837,33.86774 12.10475,40.62616z" data-paper-data="{&quot;index&quot;:null}" fill="none" stroke="#000000"/><path d="M36.4526,172.68676c15.16594,1.30964 36.61421,35.93384 36.03059,42.69226c-0.58362,6.75843 -28.09495,42.34569 -43.26089,41.03604c-15.16594,-1.30964 -12.24342,-39.02025 -11.6598,-45.77868c0.58362,-6.75841 3.72415,-39.25927 18.89011,-37.94963z" fill="#ff0000" stroke="#000000"/><path d="M31.51287,173.28347c1.99035,0.17188 -5.73877,18.67422 -7.27177,29.27919c-2.66318,18.42329 -0.6051,34.06512 3.12933,39.67433c8.71169,13.08527 37.93091,-22.50057 37.46339,-17.08667c-0.78328,9.07052 -21.32125,30.27772 -34.83544,29.11071c-13.5142,-1.16701 -14.88706,-24.2663 -14.10378,-33.33682c0.78328,-9.07054 2.10409,-48.80775 15.61828,-47.64074z" fill="#bf0000" stroke="none"/><path d="M36.73428,173.08553c15.16592,1.30964 36.61419,35.93383 36.03057,42.69226c-0.58362,6.75843 -28.09495,42.34569 -43.26087,41.03604c-15.16594,-1.30964 -12.24343,-39.02024 -11.65981,-45.77867c0.58362,-6.75841 3.72416,-39.25927 18.89011,-37.94963z" fill="none" stroke="#000000"/><path d="M79.16458,196.48999c9.76024,0.84284 16.8383,11.18604 15.80929,23.10225c-1.02901,11.91617 -9.77542,20.89289 -19.53567,20.05005c-9.76023,-0.84284 -16.83829,-11.18604 -15.80928,-23.10224c1.02901,-11.91615 9.77544,-20.8929 19.53567,-20.05006z" fill="#ff0000" stroke="#000000"/><path d="M59.70199,221.13843c0.76792,-8.89269 3.49001,-25.65328 13.10009,-24.82341c3.01217,0.26011 -6.44213,17.29439 -6.5328,25.32899c-0.06688,5.92561 8.39242,10.59998 10.27492,13.32552c3.70858,5.36941 18.30871,-14.87556 17.959,-10.82584c-0.76792,8.89267 -9.18097,15.42884 -18.79105,14.59897c-9.61009,-0.82987 -16.77808,-8.71155 -16.01016,-17.6042z" fill="#bf0000" stroke="none"/><path d="M78.9025,196.84178c9.76023,0.84284 16.8383,11.18604 15.80929,23.10224c-1.02901,11.91617 -9.77544,20.8929 -19.53567,20.05006c-9.76023,-0.84284 -16.8383,-11.18604 -15.80929,-23.10225c1.02901,-11.91617 9.77545,-20.89289 19.53567,-20.05005z" fill="none" stroke="#000000"/></g></g><path d="M16.56955,143.44089c0,-5.0428 5.44502,27.56831 46.66441,27.56831c41.21939,0 72.64935,-34.02314 72.64935,-28.98034c0,5.0428 -29.44501,37.31717 -70.6644,37.31717c-41.21939,0 -63.64935,-35.86233 -63.64935,-40.90513z" fill="#00d6c0" stroke="none" stroke-linecap="butt"/><g stroke-linecap="butt"><path d="M0.87293,121.72939c-3.49079,-40.30112 30.15701,-76.13124 75.15446,-80.02881c44.99746,-3.89758 84.30493,25.61331 87.79572,65.91443c3.49079,40.30111 -30.157,76.13124 -75.15446,80.02881c-44.99746,3.89758 -84.30493,-25.61333 -87.79572,-65.91444z" fill="#00ffe6" stroke="#000000"/><path d="M77.32675,40.22578c44.99747,-3.89758 84.30493,25.61333 87.79572,65.91445c3.49079,40.30112 -30.15703,76.13123 -75.15446,80.0288c-44.99746,3.89758 -84.30493,-25.61333 -87.79572,-65.91444c-3.49079,-40.30112 30.15703,-76.13123 75.15446,-80.0288z" fill="none" stroke="#000000"/><path d="M12.65141,73.43702c12.65147,-18.91044 37.0652,-30.69502 62.55509,-32.9029c24.78787,-2.14707 51.87758,5.09252 68.91688,20.62413c14.34259,13.0735 20.61659,33.14951 21.83585,47.22582c2.66776,30.79924 -35.43915,39.7296 -81.09192,43.68394c-45.65276,3.95433 -79.55179,1.65942 -82.21954,-29.1398c-1.17824,-13.6027 -0.00383,-34.53274 10.00366,-49.49115z" fill="#00ffe6" stroke="#000000"/><path d="M81.68149,94.59946c29.05155,-2.51638 53.62247,7.21916 54.88067,21.74495c1.25819,14.52578 -21.2728,28.34118 -50.32435,30.85755c-29.05155,2.51638 -53.62247,-7.21917 -54.88066,-21.74495c-1.25819,-14.52578 21.2728,-28.34118 50.32435,-30.85755z" fill="#00d6c0" stroke="none"/><path d="M7.49988,138.03731c-0.1984,-2.29052 -6.40429,-7.87896 -7.00213,-15.29432c-1.27712,-15.84119 4.59395,-39.84216 19.58236,-56.59051c9.27041,-10.35897 37.5075,-21.36483 55.35903,-24.07192c7.41823,-1.12496 8.50335,3.86205 12.91113,3.48026c7.65295,-0.66288 -38.12801,5.81584 -58.7555,26.82955c-23.14817,23.58156 -21.30768,62.22329 -7.88717,65.99539c14.58537,4.09951 43.41701,6.81135 68.23941,2.13384c38.87413,-7.32539 73.83229,-24.60407 74.19354,-20.43338c0.27879,3.2186 -13.24087,5.68381 -15.42547,11.15225c-3.53298,8.84369 1.47774,21.2721 -15.29203,25.52787c-9.80697,2.48877 -37.12269,-5.50062 -47.7912,-4.57655c-12.66475,1.09699 -24.58834,14.78881 -35.58529,14.10595c-11.12,-0.69051 -15.47947,-11.6686 -22.8866,-17.03674c-8.51431,-6.17051 -19.2963,-7.02147 -19.6601,-11.22164z" fill="#00d6c0" stroke="none"/><path d="M2.50213,123.17243c-1.17824,-13.6027 -0.00385,-34.53274 10.00364,-49.49116c12.65147,-18.91041 37.0652,-30.69502 62.55509,-32.9029c24.7879,-2.14707 51.87758,5.09252 68.91688,20.62413c14.34257,13.07353 20.61657,33.14954 21.83583,47.22584c0.65941,7.61293 -12.0711,13.1294 -17.24967,22.68346c-4.95759,9.14637 -2.19959,22.42872 -9.06401,25.64514c-14.97399,7.01632 -31.21281,-6.68589 -54.77823,-4.64471c-12.78358,1.10728 -24.1617,16.02663 -34.67441,15.66526c-8.09457,-0.27823 -19.66307,-16.39679 -26.02333,-19.85548c-14.87866,-8.09097 -20.17622,-9.41523 -21.52176,-24.94957z" fill="none" stroke="#000000"/><path d="M49.00759,87.46432c12.35774,-1.0704 23.54386,11.5483 24.98485,28.18468c1.44101,16.63638 -7.40879,30.99054 -19.76653,32.06093c-12.35776,1.0704 -29.53994,-5.14036 -30.98094,-21.77673c-1.44101,-16.63637 13.40487,-37.39847 25.76261,-38.46886z" fill="#820000" stroke="#000000"/><path d="M148.23213,115.10709c1.44101,16.63637 -13.83771,25.65882 -25.76185,26.69166c-11.92416,1.03284 -22.75876,-11.61632 -24.19975,-28.25268c-1.44101,-16.63638 7.05726,-30.96008 18.98143,-31.99292c11.92416,-1.03284 29.53918,16.91757 30.98018,33.55394z" data-paper-data="{&quot;index&quot;:null}" fill="#820000" stroke="#000000"/></g></g></g></svg>