<svg version="1.1" xmlns="http://www.w3.org/2000/svg" xmlns:xlink="http://www.w3.org/1999/xlink" width="208.85387" height="344.17051" viewBox="0,0,208.85387,344.17051"><g transform="translate(-135.91164,-6.98487)"><g data-paper-data="{&quot;isPaintingLayer&quot;:true}" fill-rule="nonzero" stroke-linejoin="miter" stroke-miterlimit="10" stroke-dasharray="" stroke-dashoffset="0" style="mix-blend-mode: normal"><g><path d="M290.21642,211.88929l-19.9282,-72.67964l20.13656,-6.22212l19.9282,72.67964z" data-paper-data="{&quot;index&quot;:null}" fill="#1b1b1b" stroke="#000000" stroke-width="2.5" stroke-linecap="butt"/><g data-paper-data="{&quot;index&quot;:null}"><g stroke-linecap="butt"><path d="M311.37552,197.23509c0,7.55111 -6.93973,21.85643 -13.83838,21.85643c-6.89865,0 -24.8412,-66.91649 -24.8412,-74.46758c0,-4.84961 -0.98207,-9.97984 2.49592,-12.40717c1.93742,-1.35215 7.52711,-1.26531 9.99518,-1.26531c3.58028,0 -1.32267,26.3438 4.50406,42.61796c5.40047,15.08362 21.68442,20.03348 21.68442,23.66567z" fill="#840000" stroke="#000000" stroke-width="0"/><path d="M311.80085,194.32067c0,11.94537 -6.95367,21.62903 -14.14647,21.62903c-7.19281,0 -24.70022,-58.7874 -24.70022,-70.73279c0,-7.88132 8.45331,26.36295 17.03509,46.99658c4.42529,10.63991 9.70891,13.79854 12.15606,13.79854c7.19281,0 9.65553,-23.63674 9.65553,-11.69136z" fill="#430000" stroke="none" stroke-width="0"/><path d="M311.37555,196.65051c0,7.55111 -6.93973,21.85643 -13.83838,21.85643c-6.89864,0 -24.8412,-66.91649 -24.8412,-74.46758c0,-4.08971 -5.96488,-10.37101 -3.36491,-12.87657c2.20052,-2.12061 12.6937,-0.7959 15.856,-0.7959c3.78332,0 -0.9086,27.37941 5.10276,44.57883c4.94995,14.16257 21.08572,18.29485 21.08572,21.70481z" fill="none" stroke="#000000" stroke-width="3"/></g><path d="M290.24899,173.1841l-7.67676,5.202" fill="none" stroke="#000000" stroke-width="3" stroke-linecap="round"/></g></g><path d="M200.88915,307.11255l19.9282,-68.46429l20.13656,5.86124l-19.9282,68.46429z" fill="#1b1b1b" stroke="#000000" stroke-width="2.5" stroke-linecap="butt"/><g data-paper-data="{&quot;index&quot;:null}"><g stroke-linecap="butt"><path d="M265.71204,213.38654c9.05289,1.87604 25.48505,76.70384 24.34319,85.64984c-1.14186,8.946 -18.69738,24.82654 -27.75028,22.9505c-9.05291,-1.87605 -16.19401,-86.85306 -15.05215,-95.79906c0.56671,-4.43994 -1.83583,-10.12532 1.4654,-12.44459c3.35038,-2.35381 12.43392,-1.30164 16.99382,-0.35668z" fill="#840000" stroke="#000000" stroke-width="0"/><path d="M276.61543,306.92453c9.43894,1.95605 16.24499,-25.37733 14.43863,-11.22532c-1.80635,14.15202 -19.50113,30.01898 -28.94006,28.06293c-9.43895,-1.95605 -16.41841,-82.64962 -14.61206,-96.80162c1.19179,-9.33722 7.10652,33.53171 15.24798,60.31071c4.19824,13.80884 10.65415,18.9878 13.86549,19.65329z" fill="#430000" stroke="none" stroke-width="0"/><path d="M265.80042,212.69395c9.05289,1.87604 25.48505,76.70384 24.34319,85.64984c-1.14186,8.946 -18.97066,26.19296 -28.02357,24.31691c-9.05291,-1.87605 -15.92072,-88.21947 -14.77887,-97.16547c0.60587,-4.74666 -2.49797,-11.53655 1.17213,-13.81702c3.2469,-2.01751 13.03758,0.13512 17.2871,1.01576z" fill="none" stroke="#000000" stroke-width="3"/></g><path d="M250.73519,270.51222l31.95867,-16.03198" fill="none" stroke="#000000" stroke-width="3" stroke-linecap="round"/></g><g><g stroke-linecap="butt"><path d="M226.15633,207.94013c4.55991,-0.94495 13.64345,-1.99711 16.99382,0.35668c3.30123,2.31927 0.89869,8.00464 1.46541,12.44459c0.60866,4.76861 -1.13616,31.14032 -4.26952,55.01356c-2.74487,20.91342 -6.55533,39.90948 -10.78264,40.7855c-3.22292,0.66789 1.51989,-29.85954 -0.81402,-48.72951c-0.15895,-1.28515 -3.11228,-3.97798 -3.48856,-5.04044c-2.2994,-6.49251 -5.37054,-7.53414 -7.01242,-9.01511c-5.22581,-4.71362 -15.89679,44.05331 -16.43527,39.83456c-1.14186,-8.946 15.2903,-83.7738 24.34319,-85.64984z" fill="#840000" stroke="#000000" stroke-width="0"/><path d="M232.03075,317.49326c3.21134,-0.66549 -7.11055,-21.85963 -2.91231,-35.66847c8.14146,-26.77899 14.0562,-69.64792 15.248,-60.31071c1.80635,14.15201 -5.17312,94.84558 -14.61206,96.80162c-9.43894,1.95605 3.75269,0.9603 1.94633,-13.19171c-1.80635,-14.15201 -9.1089,14.32529 0.33004,12.36926z" fill="#430000" stroke="none" stroke-width="0"/><path d="M226.06793,207.24757c4.24952,-0.88064 14.0402,-3.03327 17.2871,-1.01575c3.67009,2.28047 0.56627,9.07036 1.17213,13.81703c0.64454,5.04973 -1.26299,34.76009 -4.67502,60.01929c-2.63266,19.48952 -6.16101,36.32909 -10.10384,37.14618c-2.2808,0.47265 0.98236,-49.45796 -2.00534,-50.97439c-3.96987,-2.01495 -7.51957,-19.5704 -12.41339,-12.4089c-6.0418,8.84144 -13.13291,42.7637 -13.60483,39.06638c-1.14186,-8.946 15.2903,-83.7738 24.34319,-85.64984z" fill="none" stroke="#000000" stroke-width="3"/></g><path d="M241.13316,265.06583l-31.95867,-16.03198" fill="none" stroke="#000000" stroke-width="3" stroke-linecap="round"/></g><g><g stroke-linecap="butt"><path d="M210.48405,130.78385c3.89256,0.10399 11.54024,0.99641 14.00928,3.58873c2.43283,2.55428 -0.28352,6.78126 -0.38436,10.55587c-0.20318,7.60541 -22.10335,74.46609 -29.83136,74.25963c-7.72802,-0.20645 -15.11715,-14.82232 -14.91397,-22.42772c0.20318,-7.60541 23.3924,-66.18298 31.1204,-65.97653z" fill="#840000" stroke="#000000" stroke-width="0"/><path d="M189.46739,205.87666c2.74136,0.07323 8.74518,-2.94999 13.98877,-13.53399c10.16868,-20.52518 20.55968,-54.76268 20.34762,-46.8247c-0.32141,12.03127 -21.54659,71.88623 -29.60415,71.67097c-8.05755,-0.21526 -15.55543,-11.34542 -15.23402,-23.37668c0.32141,-12.03127 2.44422,11.84914 10.50176,12.06439z" fill="#430000" stroke="none" stroke-width="0"/><path d="M210.49976,130.19507c3.62761,0.09691 12.0013,0.21808 14.4279,2.51277c2.74288,2.59376 -0.69519,7.59646 -0.80299,11.63182c-0.20318,7.60541 -22.10335,74.46609 -29.83136,74.25963c-7.72802,-0.20645 -15.11715,-14.82232 -14.91397,-22.42772c0.20318,-7.60541 23.3924,-66.18298 31.1204,-65.97653z" fill="none" stroke="#000000" stroke-width="3"/></g><path d="M212.13693,178.6378l-20.96942,-17.22713" fill="none" stroke="#000000" stroke-width="3" stroke-linecap="round"/></g><g><path d="M162.78364,210.931c2.41251,-9.04128 11.04747,-14.58847 19.2867,-12.38996c8.23923,2.19849 12.96273,11.31015 10.55022,20.35144c-2.41251,9.04129 -11.04748,14.58847 -19.28671,12.38996c-8.23924,-2.19849 -12.96273,-11.31015 -10.55022,-20.35144z" fill="#840000" stroke="#000000" stroke-width="0" stroke-linecap="butt"/><path d="M162.41802,217.43826c1.3619,-5.10395 2.27017,-19.75898 9.56154,-17.8134c1.2233,0.32641 -3.09641,5.40366 -3.89824,11.57059c-0.76058,5.84965 1.98815,12.77157 3.25499,14.24593c5.35815,6.23581 18.40276,-4.39298 17.48607,-0.95757c-1.36191,5.10394 -8.37676,7.66432 -15.66812,5.71874c-7.29136,-1.94558 -12.09814,-7.66035 -10.73624,-12.76431z" fill="#430000" stroke="none" stroke-width="0" stroke-linecap="butt"/><path d="M181.81067,199.38437c8.23924,2.19849 12.96273,11.31015 10.55022,20.35144c-2.41251,9.04129 -11.04746,14.58847 -19.2867,12.38996c-8.23924,-2.19849 -12.96273,-11.31015 -10.55022,-20.35144c2.41251,-9.04129 11.04746,-14.58847 19.2867,-12.38996z" fill="none" stroke="#000000" stroke-width="3.5" stroke-linecap="butt"/><g><path d="M191.3774,236.26873c1.82884,-6.85387 -9.91825,-13.39456 -6.56422,-12.4996c1.5676,0.41828 7.09083,-6.41488 11.34767,-3.73684c4.85109,3.05188 8.33662,15.82686 7.36254,19.4774c-1.82884,6.85389 -6.03037,11.68453 -9.38441,10.78957c-3.35403,-0.89496 -4.59044,-7.17664 -2.7616,-14.03052z" fill="#840000" stroke="#000000" stroke-width="0" stroke-linecap="butt"/><path d="M186.20658,224.97541c-1.23789,-3.4231 2.75842,-4.40668 3.45409,-4.22105c1.89576,0.50585 11.14109,21.84708 10.38231,24.69071c-0.75878,2.84363 -2.9107,4.73877 -4.80645,4.23292c-1.89575,-0.50585 -3.36402,-2.94785 -2.60524,-5.79149c0.48033,-1.80012 -4.09897,-12.47974 -6.42471,-18.9111z" fill="#430000" stroke="none" stroke-width="0" stroke-linecap="butt"/><path d="M184.54426,223.58982c1.5676,0.41828 7.09083,-6.41488 11.34767,-3.73684c4.85109,3.05188 8.33662,15.82686 7.36254,19.4774c-1.82884,6.85387 -6.03039,11.68453 -9.38441,10.78957c-3.35402,-0.89496 -4.59043,-7.17665 -2.76159,-14.03052c1.82884,-6.85387 -9.91824,-13.39456 -6.56422,-12.4996z" fill="none" stroke="#000000" stroke-width="3.5" stroke-linecap="butt"/><path d="M202.11214,231.95149l-9.98164,2.42775" fill="none" stroke="#000000" stroke-width="3.5" stroke-linecap="round"/></g><g data-paper-data="{&quot;index&quot;:null}"><path d="M155.14782,231.49949c0.40831,7.08193 -2.07012,12.98494 -5.53576,13.18474c-3.46563,0.19981 -6.60606,-5.37923 -7.01437,-12.46116c-0.21747,-3.772 5.77399,-15.58094 11.14109,-17.59126c4.70964,-1.76405 8.74054,6.043 10.36029,5.94961c3.46563,-0.19981 -9.35958,3.83614 -8.95127,10.91804z" fill="#840000" stroke="#000000" stroke-width="0" stroke-linecap="butt"/><path d="M152.38266,238.7076c0.16941,2.93825 -1.76139,5.03377 -3.72022,5.14671c-1.95883,0.11294 -3.68411,-2.17742 -3.85351,-5.11567c-0.16941,-2.93825 13.19181,-21.9751 15.15065,-22.08804c0.71882,-0.04144 4.43447,1.72823 2.53136,4.83116c-3.57557,5.82982 -10.21552,15.36582 -10.10828,17.22583z" fill="#430000" stroke="none" stroke-width="0" stroke-linecap="butt"/><path d="M155.44737,231.37813c0.40832,7.08192 -2.07012,12.98494 -5.53575,13.18475c-3.46561,0.19981 -6.60606,-5.37924 -7.01437,-12.46116c-0.21747,-3.772 5.77399,-15.58094 11.14109,-17.59126c4.70964,-1.76405 8.74054,6.043 10.36029,5.94961c3.46561,-0.19981 -9.35958,3.83614 -8.95127,10.91804z" fill="none" stroke="#000000" stroke-width="3.5" stroke-linecap="butt"/><path d="M145.50496,225.10509l9.28649,4.39183" fill="none" stroke="#000000" stroke-width="3.5" stroke-linecap="round"/></g><g data-paper-data="{&quot;index&quot;:null}"><path d="M169.72062,237.8892c1.82884,6.85389 0.59244,13.13556 -2.7616,14.03052c-3.35403,0.89496 -7.55557,-3.93568 -9.38441,-10.78957c-0.97408,-3.65053 2.51145,-16.42551 7.36254,-19.4774c4.25684,-2.67803 9.78007,4.15512 11.34767,3.73684c3.35403,-0.89496 -8.39306,5.64572 -6.56422,12.4996z" fill="#840000" stroke="#000000" stroke-width="0" stroke-linecap="butt"/><path d="M168.46672,245.507c0.75878,2.84363 -0.70949,5.28563 -2.60524,5.7915c-1.89575,0.50585 -4.04767,-1.38929 -4.80645,-4.23292c-0.75878,-2.84363 8.48655,-24.18486 10.38231,-24.69071c0.69568,-0.18563 4.69199,0.79793 3.45409,4.22104c-2.32575,6.43136 -6.90504,17.11098 -6.42471,18.9111z" fill="#430000" stroke="none" stroke-width="0" stroke-linecap="butt"/><path d="M169.98953,237.70986c1.82884,6.85387 0.59244,13.13556 -2.76159,14.03052c-3.35402,0.89496 -7.55557,-3.93569 -9.38441,-10.78957c-0.97408,-3.65053 2.51145,-16.42551 7.36254,-19.4774c4.25684,-2.67803 9.78007,4.15512 11.34767,3.73684c3.35402,-0.89496 -8.39306,5.64572 -6.56422,12.4996z" fill="none" stroke="#000000" stroke-width="3.5" stroke-linecap="butt"/><path d="M168.96751,235.99973l-9.98164,-2.42775" fill="none" stroke="#000000" stroke-width="3.5" stroke-linecap="round"/></g><g data-paper-data="{&quot;index&quot;:null}"><path d="M181.81947,240.67397c4.27118,5.6637 5.48683,11.94942 2.71523,14.03957c-2.7716,2.09015 -8.48088,-0.80676 -12.75205,-6.47046c-2.27492,-3.01661 -3.84734,-16.16486 -0.49931,-20.8165c2.93791,-4.08182 10.62471,0.17389 11.9201,-0.803c2.7716,-2.09015 -5.65515,8.38671 -1.38397,14.05039z" fill="#840000" stroke="#000000" stroke-width="0" stroke-linecap="butt"/><path d="M183.52118,248.20442c1.77209,2.34983 1.32949,5.16467 -0.23706,6.34606c-1.56655,1.18139 -4.27305,0.23419 -6.04513,-2.11564c-1.77209,-2.34983 -1.22735,-25.60122 0.33921,-26.78261c0.57488,-0.43353 4.6478,-1.02438 4.78749,2.613c0.26248,6.83392 0.03369,18.45167 1.15547,19.93919z" fill="#430000" stroke="none" stroke-width="0" stroke-linecap="butt"/><path d="M182.00123,240.40673c4.27118,5.66368 5.48683,11.94942 2.71525,14.03956c-2.77159,2.09015 -8.48088,-0.80678 -12.75205,-6.47046c-2.27492,-3.01661 -3.84734,-16.16486 -0.49931,-20.8165c2.93791,-4.08182 10.62471,0.17389 11.9201,-0.803c2.77159,-2.09015 -5.65515,8.38671 -1.38397,14.05039z" fill="none" stroke="#000000" stroke-width="3.5" stroke-linecap="butt"/><path d="M170.24916,240.70876l10.16215,-1.50255" fill="none" stroke="#000000" stroke-width="3.5" stroke-linecap="round"/></g></g><g data-paper-data="{&quot;index&quot;:null}"><path d="M323.12338,212.00489c2.41251,9.04128 -2.31098,18.15294 -10.55022,20.35144c-8.23923,2.19851 -16.8742,-3.34867 -19.28671,-12.38996c-2.41251,-9.04128 2.31099,-18.15294 10.55022,-20.35144c8.23923,-2.19851 16.87419,3.34868 19.2867,12.38996z" fill="#840000" stroke="#000000" stroke-width="0" stroke-linecap="butt"/><path d="M323.48899,218.51216c1.36191,5.10395 -3.44487,10.81873 -10.73624,12.76431c-7.29136,1.94558 -14.30621,-0.6148 -15.66812,-5.71874c-0.91669,-3.43541 12.12792,7.19338 17.48607,0.95757c1.26685,-1.47436 4.01557,-8.39627 3.25499,-14.24593c-0.80183,-6.16694 -5.12154,-11.24418 -3.89824,-11.57059c7.29136,-1.94558 8.19964,12.70944 9.56154,17.8134z" fill="#430000" stroke="none" stroke-width="0" stroke-linecap="butt"/><path d="M323.38306,212.84828c2.41251,9.04128 -2.31098,18.15294 -10.55022,20.35144c-8.23924,2.19851 -16.87419,-3.34867 -19.2867,-12.38996c-2.41251,-9.04128 2.31098,-18.15294 10.55022,-20.35144c8.23924,-2.19851 16.87419,3.34867 19.2867,12.38996z" fill="none" stroke="#000000" stroke-width="3.5" stroke-linecap="butt"/><g><path d="M294.52962,237.34263c1.82884,6.85389 0.59244,13.13556 -2.7616,14.03052c-3.35403,0.89496 -7.55557,-3.93568 -9.38441,-10.78957c-0.97408,-3.65053 2.51145,-16.42551 7.36254,-19.4774c4.25684,-2.67803 9.78007,4.15512 11.34767,3.73684c3.35403,-0.89496 -8.39306,5.64572 -6.56422,12.4996z" fill="#840000" stroke="#000000" stroke-width="0" stroke-linecap="butt"/><path d="M293.27574,244.96044c0.75878,2.84363 -0.70949,5.28563 -2.60524,5.7915c-1.89575,0.50585 -4.04767,-1.38929 -4.80645,-4.23292c-0.75878,-2.84363 8.48655,-24.18486 10.38231,-24.69071c0.69568,-0.18563 4.69198,0.79793 3.45408,4.22104c-2.32575,6.43136 -6.90504,17.11098 -6.42471,18.9111z" fill="#430000" stroke="none" stroke-width="0" stroke-linecap="butt"/><path d="M294.79855,237.1633c1.82884,6.85387 0.59244,13.13556 -2.76159,14.03052c-3.35402,0.89496 -7.55557,-3.93569 -9.38441,-10.78957c-0.97408,-3.65053 2.51145,-16.42551 7.36254,-19.4774c4.25684,-2.67803 9.78007,4.15512 11.34767,3.73684c3.35402,-0.89496 -8.39306,5.64572 -6.56422,12.4996z" fill="none" stroke="#000000" stroke-width="3.5" stroke-linecap="butt"/><path d="M283.79488,233.02541l9.98164,2.42775" fill="none" stroke="#000000" stroke-width="3.5" stroke-linecap="round"/></g><g data-paper-data="{&quot;index&quot;:null}"><path d="M330.75918,232.57338c0.40832,-7.08192 -12.41689,-11.11786 -8.95127,-10.91804c1.61975,0.09339 5.65065,-7.71367 10.36029,-5.94962c5.36709,2.0103 11.35855,13.81926 11.14109,17.59124c-0.40832,7.08192 -3.54876,12.66097 -7.01437,12.46116c-3.46563,-0.19981 -5.94406,-6.10282 -5.53576,-13.18474z" fill="#840000" stroke="#000000" stroke-width="0" stroke-linecap="butt"/><path d="M323.41605,222.55569c-1.90312,-3.10293 1.81254,-4.8726 2.53136,-4.83116c1.95884,0.11294 15.32005,19.14979 15.15065,22.08804c-0.16941,2.93825 -1.89469,5.22861 -3.85351,5.11567c-1.95883,-0.11294 -3.88963,-2.20846 -3.72022,-5.1467c0.10724,-1.86001 -6.5327,-11.39602 -10.10828,-17.22583z" fill="#430000" stroke="none" stroke-width="0" stroke-linecap="butt"/><path d="M321.50837,221.53397c1.61976,0.09339 5.65065,-7.71367 10.3603,-5.94962c5.36709,2.0103 11.35855,13.81926 11.14109,17.59126c-0.40832,7.08192 -3.54876,12.66096 -7.01438,12.46115c-3.46561,-0.19981 -5.94405,-6.10283 -5.53573,-13.18474c0.40831,-7.08192 -12.41689,-11.11786 -8.95127,-10.91804z" fill="none" stroke="#000000" stroke-width="3.5" stroke-linecap="butt"/><path d="M331.11555,230.57084l9.2865,-4.39183" fill="none" stroke="#000000" stroke-width="3.5" stroke-linecap="round"/></g><g data-paper-data="{&quot;index&quot;:null}"><path d="M316.18641,238.96308c1.82884,-6.85387 -9.91825,-13.39456 -6.56422,-12.4996c1.5676,0.41828 7.09083,-6.41488 11.34767,-3.73684c4.85109,3.05188 8.33662,15.82686 7.36254,19.4774c-1.82884,6.85389 -6.03037,11.68453 -9.38441,10.78957c-3.35403,-0.89496 -4.59044,-7.17664 -2.7616,-14.03052z" fill="#840000" stroke="#000000" stroke-width="0" stroke-linecap="butt"/><path d="M311.01557,227.66981c-1.23789,-3.4231 2.75841,-4.40668 3.45408,-4.22105c1.89576,0.50585 11.14109,21.84708 10.38231,24.69071c-0.75878,2.84363 -2.9107,4.73877 -4.80645,4.23292c-1.89575,-0.50585 -3.36402,-2.94787 -2.60524,-5.7915c0.48033,-1.80012 -4.09896,-12.47974 -6.4247,-18.9111z" fill="#430000" stroke="none" stroke-width="0" stroke-linecap="butt"/><path d="M309.35328,226.28418c1.5676,0.41828 7.09083,-6.41488 11.34767,-3.73684c4.85109,3.05188 8.33662,15.82686 7.36254,19.4774c-1.82884,6.85387 -6.03039,11.68453 -9.38441,10.78957c-3.35402,-0.89496 -4.59043,-7.17665 -2.76159,-14.03052c1.82884,-6.85387 -9.91824,-13.39456 -6.56422,-12.4996z" fill="none" stroke="#000000" stroke-width="3.5" stroke-linecap="butt"/><path d="M326.92112,234.64586l-9.98164,2.42775" fill="none" stroke="#000000" stroke-width="3.5" stroke-linecap="round"/></g><g data-paper-data="{&quot;index&quot;:null}"><path d="M304.08756,241.74791c4.27118,-5.66368 -4.15558,-16.14054 -1.38397,-14.05039c1.29539,0.97688 8.9822,-3.27882 11.9201,0.80299c3.34804,4.65164 1.77561,17.79989 -0.49931,20.81649c-4.27118,5.6637 -9.98046,8.56061 -12.75207,6.47047c-2.77161,-2.09015 -1.55594,-8.37588 2.71523,-14.03957z" fill="#840000" stroke="#000000" stroke-width="0" stroke-linecap="butt"/><path d="M303.54132,229.33913c0.1397,-3.63738 4.21263,-3.04653 4.78751,-2.613c1.56656,1.18139 2.11129,24.43279 0.33921,26.78261c-1.77208,2.34983 -4.47858,3.29703 -6.04513,2.11564c-1.56655,-1.18139 -2.00915,-3.99623 -0.23706,-6.34606c1.12179,-1.48752 0.89301,-13.10526 1.15548,-19.93919z" fill="#430000" stroke="none" stroke-width="0" stroke-linecap="butt"/><path d="M302.52181,227.43026c1.29539,0.97688 8.98219,-3.27882 11.9201,0.80299c3.34803,4.65164 1.77561,17.79989 -0.49931,20.81649c-4.27118,5.66368 -9.98047,8.56061 -12.75207,6.47047c-2.77159,-2.09015 -1.55593,-8.37589 2.71525,-14.03957c4.27118,-5.66368 -4.15557,-16.14053 -1.38397,-14.05039z" fill="none" stroke="#000000" stroke-width="3.5" stroke-linecap="butt"/><path d="M305.4957,240.28011l10.16216,1.50257" fill="none" stroke="#000000" stroke-width="3.5" stroke-linecap="round"/></g></g><g stroke-linecap="butt"><path d="M233.33583,217.97485l2.05539,-56.39696l26.29318,0.95826l-2.05539,56.39696z" fill="#1b1b1b" stroke="#000000" stroke-width="2.5"/><g><path d="M206.52307,216.57524l0.70828,-19.43409l64.01817,2.33314l-0.70828,19.43409z" fill="#1b1b1b" stroke="#000000" stroke-width="2.5"/><g><path d="M207.62602,201.30777c0.5679,-15.58238 4.20039,-52.53507 14.82857,-68.12944c7.54986,-11.07765 20.98001,-4.0568 28.81025,-3.77143c10.05078,0.3663 20.08419,-7.00837 24.65825,9.70539c4.00592,14.63775 7.66921,49.70747 7.21571,62.15083c-0.97131,26.6515 -16.53823,25.3445 -35.39138,24.6574c-13.10079,-0.47746 1.17375,-49.87559 -6.27303,-58.05944c-3.26976,-3.59339 -34.14472,41.57842 -33.84835,33.44669z" fill="#840000" stroke="#000000" stroke-width="0"/><path d="M243.16033,165.49875c0.12328,-3.38263 -3.9291,-3.65884 -9.98932,3.44013c-4.46335,5.22838 -18.21981,27.15695 -19.83045,26.42958c-6.10016,-2.75487 9.62748,-43.38401 14.95531,-52.31888c5.33975,-8.95485 13.89178,-8.09061 19.48726,-7.88668c6.63412,0.24178 14.3854,-0.99158 19.42084,9.69752c6.08729,12.92192 8.78654,39.13058 8.29256,52.6847c-0.9026,24.7662 -16.32798,27.83813 -30.98203,27.30406c-2.73426,-0.09965 2.19224,-4.09637 1.23462,-4.25826c-4.17466,-0.70576 -0.79005,0.2494 -0.05586,-19.89573z" fill="#7d3c3c" stroke="#000000" stroke-width="0"/><path d="M210.87664,198.22704c0.13086,-3.5906 2.98356,-19.49825 9.12359,-33.92145c3.55042,-8.34008 5.90442,-17.82903 10.44164,-23.27553c3.80452,-4.56697 9.80638,-5.81439 12.90607,-5.79236c0.44415,0.00315 10.97496,-5.11788 11.42449,-5.1015c13.79817,0.50287 16.66001,18.09421 16.38094,25.75143c-0.27907,7.65722 -17.5296,-7.3742 -31.32777,-7.87708c-9.61683,-0.35049 -12.82657,9.12318 -15.2406,13.91699c-1.0496,2.08432 -10.61182,26.71649 -10.52725,24.39608z" fill="#5c2c2c" stroke="none" stroke-width="0"/><path d="M209.42741,204.76344c0.24361,-6.6843 0.01777,-72.08795 20.24205,-71.35087c3.73767,0.13622 -4.38661,12.58721 -8.84449,28.49787c-2.15636,7.69628 -12.59739,33.95471 -8.56921,32.85452c2.88781,-0.78873 15.33318,-16.28394 19.73594,-21.75347c4.94093,-6.1381 8.05008,-13.93319 9.6782,-11.22485c3.96298,6.59233 0.65746,32.61113 2.88115,46.8364c0.65714,4.20379 3.77331,5.70845 5.2365,7.46053c10.26624,12.29316 32.2803,-2.7078 32.19188,-0.2815c-0.24361,6.6843 -16.83612,11.50547 -37.06041,10.7684c-7.98691,-0.29108 -2.48454,-7.07665 -2.537,-16.86868c-0.06751,-12.60126 0.46759,-31.79053 0.04822,-40.03286c-0.07994,-1.57104 -2.24047,-2.81893 -2.21687,-3.46642z" fill="#430000" stroke="none" stroke-width="0"/><path d="M244.91767,209.74489c0.07562,-2.07482 2.78116,-4.51209 0.49661,-4.47769c-2.55716,0.0385 -9.75702,2.70166 -1.7087,2.99498c15.23863,0.55537 30.40327,-8.24342 30.24302,-3.84621c-0.07743,2.12468 -1.6323,10.04154 -7.0943,14.39016c-5.84209,4.65124 -11.26693,5.45239 -19.14245,5.16537c-7.23836,-0.2638 -4.99671,-6.55498 -5.7122,-10.30305c-0.12305,-0.64459 4.45349,-0.48408 3.75026,-0.98679c-3.81621,-2.72803 -2.61576,1.13051 -2.54471,-0.81883z" fill="#5c2c2c" stroke="none" stroke-width="0"/><path d="M228.44919,142.81752c5.33973,-8.95485 13.89177,-8.09061 19.48724,-7.88668c6.63413,0.24178 14.38541,-0.99158 19.42085,9.69752c6.08728,12.92192 8.78653,39.13059 8.29255,52.68472c-0.38643,10.60299 -3.43473,17.22965 -7.94477,21.29937c-6.02439,5.43622 -14.65696,6.31011 -23.03726,6.00469c-3.49642,-0.12743 -3.08335,-5.14038 -3.10826,-11.86438c-0.05539,-14.94951 3.78923,-39.64047 0.6395,-46.99144c-0.84889,-1.98117 -14.89084,11.24202 -22.59681,22.67338c-4.74083,7.03273 -10.10724,13.80061 -10.02785,11.62226c0.55796,-15.3095 10.23023,-42.74235 18.87479,-57.23945z" fill="none" stroke="#000000" stroke-width="3"/><path d="M223.26042,133.07759c7.54986,-11.07766 20.97999,-4.05681 28.81025,-3.77144c10.05078,0.3663 20.08419,-7.00838 24.65825,9.70539c4.00592,14.63775 7.66919,49.70748 7.21569,62.15084c-0.39219,10.76107 -3.16389,16.96406 -7.57067,20.4902c-0.59234,0.47398 -1.21424,0.89959 -1.86385,1.2814c-6.4869,3.81264 -15.73926,3.25817 -25.95686,2.88579c-7.77315,-0.28329 -1.29154,-49.40153 -5.53069,-61.45087c-2.72683,-7.75073 -16.47114,20.84683 -19.45028,17.89929c-3.62254,-3.58412 -15.45364,27.53364 -15.1404,18.93883c0.5679,-15.58237 4.20039,-52.53506 14.82857,-68.12943z" fill="none" stroke="#000000" stroke-width="3"/></g></g><g><path d="M278.84582,157.43827c-0.12526,3.43685 -0.99219,22.59305 -8.7045,22.31197c-7.7123,-0.28108 -19.34946,-19.893 -19.2242,-23.32984c0.12526,-3.43685 13.06366,-19.52943 20.77596,-19.24835c7.7123,0.28108 7.278,16.82937 7.15274,20.26622z" data-paper-data="{&quot;index&quot;:null}" fill="#410000" stroke="#000000" stroke-width="0"/><path d="M228.44891,135.78528c7.7123,0.28108 19.44496,17.27279 19.3197,20.70964c-0.12526,3.43685 -13.15916,22.14962 -20.87147,21.86855c-7.7123,-0.28108 -7.1825,-19.44956 -7.05725,-22.88641c0.12526,-3.43684 0.8967,-19.97285 8.60901,-19.69178z" fill="#410000" stroke="#000000" stroke-width="0"/><path d="M278.67937,157.62145c-0.12526,3.43685 -0.99219,22.59305 -8.7045,22.31197c-7.71229,-0.28107 -19.34946,-19.89299 -19.2242,-23.32984c0.12526,-3.43685 13.06366,-19.52943 20.77596,-19.24835c7.7123,0.28108 7.278,16.82937 7.15274,20.26622z" data-paper-data="{&quot;index&quot;:null}" fill="none" stroke="#000000" stroke-width="3.5"/><path d="M228.60159,135.98008c7.71229,0.28107 19.44495,17.27279 19.31969,20.70964c-0.12526,3.43685 -13.15916,22.14962 -20.87146,21.86855c-7.7123,-0.28108 -7.1825,-19.44956 -7.05725,-22.88641c0.12526,-3.43684 0.89671,-19.97285 8.60901,-19.69178z" fill="none" stroke="#000000" stroke-width="3.5"/><path d="M225.9627,136.21186c1.01215,0.03689 -2.43539,9.60032 -2.94447,15.00878c-0.88438,9.39577 0.55179,17.2642 2.58403,20.01036c4.74084,6.40629 18.63956,-12.34879 18.53923,-9.59567c-0.16811,4.61261 -10.0333,15.86833 -16.90564,15.61787c-6.87235,-0.25046 -8.14942,-11.91227 -7.98132,-16.52488c0.16811,-4.61262 -0.16417,-24.76693 6.70817,-24.51647z" fill="#170000" stroke="none" stroke-width="0"/><path d="M279.04741,162.71823c-0.16811,4.61262 -2.29069,16.15051 -9.16303,15.90005c-6.87234,-0.25046 -15.89202,-12.19443 -15.72392,-16.80706c0.10034,-2.75311 12.59694,16.96394 17.79154,10.91975c2.22674,-2.59094 4.23188,-10.33396 4.0338,-19.76918c-0.11403,-5.43118 -2.85625,-15.22019 -1.84413,-15.18331c6.87234,0.25046 5.07384,20.32713 4.90573,24.93974z" data-paper-data="{&quot;index&quot;:null}" fill="#170000" stroke="none" stroke-width="0"/><g><path d="M250.6759,146.76207c4.96335,0.18089 8.80792,5.23988 8.58707,11.2996c-0.22085,6.05971 -4.42347,10.82543 -9.38683,10.64454c-4.96335,-0.18089 -8.80792,-5.23988 -8.58707,-11.2996c0.22085,-6.0597 4.42348,-10.82543 9.38683,-10.64454z" fill="#410000" stroke="#000000" stroke-width="0"/><path d="M250.55205,146.94682c4.96335,0.18089 8.80792,5.23988 8.58707,11.2996c-0.22085,6.05971 -4.42348,10.82543 -9.38683,10.64454c-4.96335,-0.18089 -8.80792,-5.23988 -8.58707,-11.2996c0.22085,-6.05971 4.42348,-10.82543 9.38683,-10.64454z" fill="none" stroke="#000000" stroke-width="3.5"/><path d="M241.44192,159.73318c0.16481,-4.52219 1.12091,-13.07753 6.0079,-12.89942c1.53177,0.05583 -2.8263,8.91935 -2.6698,12.98997c0.11542,3.00213 4.51656,5.1559 5.53843,6.48856c2.01312,2.62539 8.89591,-7.99352 8.82085,-5.93413c-0.16481,4.52218 -4.26011,8.04372 -9.14711,7.86562c-4.887,-0.17811 -8.71509,-3.98843 -8.55028,-8.5106z" fill="#170000" stroke="none" stroke-width="0"/></g></g></g><g><path d="M251.73996,103.51641c14.54857,-2.04967 27.27584,2.91342 28.42713,11.08535c1.1513,8.17194 -9.70934,16.45818 -24.25792,18.50785c-14.54857,2.04967 -27.27584,-2.91342 -28.42713,-11.08535c-1.1513,-8.17194 9.70934,-16.45818 24.25792,-18.50785z" fill="#000000" stroke="#000000" stroke-width="2.5" stroke-linecap="butt"/><path d="M225.57349,121.18044c4.05568,-2.14915 20.65668,2.57654 30.11848,1.60166c10.5719,-1.08926 14.12603,-7.7881 19.74121,-8.57919c13.5602,-1.91042 3.81405,3.3418 4.47508,8.03381c0.66103,4.69201 -9.79581,10.04436 -23.35599,11.95477c-2.27984,0.32119 -4.50225,0.52465 -6.62523,0.61858c-10.50431,0.46473 -18.57469,-1.75195 -19.12458,-5.65511c-0.14232,-1.01017 -7.58497,-6.72603 -5.22896,-7.97452z" fill="#ffffff" stroke="#000000" stroke-width="0" stroke-linecap="butt"/><path d="M241.34885,128.15561c8.93181,0.89625 19.57213,-0.55297 25.63385,-2.77942c8.05776,-2.95959 7.89546,-7.93542 12.71265,-8.61409c11.67119,-1.64429 -1.50824,8.36358 -1.12815,11.06149c0.38009,2.69791 -8.77315,6.21796 -20.44434,7.86225c-5.63836,0.79436 -13.68417,0.34782 -19.87666,-2.06702c-6.62573,-2.5838 -11.22242,-7.21966 -11.4189,-8.61422c-0.1052,-0.74668 6.56021,2.35213 14.52155,3.151z" fill="#e2e2e2" stroke="none" stroke-width="0" stroke-linecap="butt"/><path d="M226.58991,121.61486c4.05568,-2.14915 20.65668,2.57654 30.11848,1.60166c10.5719,-1.08926 14.12603,-7.7881 19.74121,-8.57919c13.5602,-1.91042 3.81405,3.3418 4.47508,8.03381c0.66103,4.69201 -9.79581,10.04436 -23.35599,11.95477c-2.27984,0.32119 -4.50225,0.52465 -6.62523,0.61858c-10.50431,0.46473 -18.57469,-1.75195 -19.12458,-5.65511c-0.14232,-1.01017 -7.58497,-6.72603 -5.22896,-7.97452z" fill="none" stroke="#000000" stroke-width="2" stroke-linecap="butt"/><path d="M222.4955,123.06056c-0.54032,-3.83518 1.34173,-7.27106 4.20368,-7.67427c0.71721,-0.10104 -1.38768,2.98367 -0.15711,4.7464c0.94804,1.35803 0.37046,3.21819 1.31948,4.88083c1.14087,1.99877 3.86696,3.8317 5.84406,5.75445c2.7618,2.68588 12.24923,2.94083 12.42441,4.18429c0.11229,0.79704 27.18883,-7.07508 26.75986,-5.24551c-0.0376,0.16038 4.94208,-4.12744 6.60524,-9.13832c1.03565,-3.12026 -1.26246,-7.86725 -0.60201,-7.88147c1.17613,-0.02532 2.68083,-8.1709 4.62348,-9.27276c1.2742,-0.72273 3.29644,4.71375 3.57896,6.50661c0.28477,1.8072 -4.94947,11.06559 -5.3338,14.09799c-0.52928,4.17608 1.29378,6.56257 0.38676,6.97715c-8.00254,3.65781 -36.7437,11.41946 -38.21684,10.90241c-4.85773,-1.70498 -13.74431,-12.83943 -15.27583,-12.62366c-2.86195,0.4032 -5.62002,-2.37896 -6.16034,-6.21414z" fill="#840000" stroke="#000000" stroke-width="0" stroke-linecap="butt"/><path d="M221.24226,115.84286c-0.10896,-0.77343 6.17189,9.72779 13.34432,14.52615c5.88099,3.93437 13.41814,7.61486 16.05455,7.24344c5.85176,-0.82442 31.2865,-8.87582 31.48481,-7.46821c0.19831,1.40761 -24.06331,9.31073 -29.91506,10.13515c-1.569,0.22105 -4.22455,1.65252 -8.81258,-0.37797c-3.72182,-1.64713 -7.41104,-5.51812 -11.33925,-8.5787c-2.09294,-1.63066 -4.96544,-2.62076 -6.37026,-3.83125c-4.83065,-4.16244 -6.11115,-10.84202 -6.19018,-11.40294z" fill="#430000" stroke="none" stroke-width="0" stroke-linecap="butt"/><path d="M222.60083,122.49347c-0.21996,-1.56128 -5.51792,-7.44218 -5.0323,-8.69346c0.70728,-1.82239 7.51093,1.52567 9.20778,1.28661c0.71721,-0.10104 -1.38768,2.98367 -0.15711,4.7464c0.9718,1.39203 -0.20492,3.54095 1.08081,5.62614c1.47649,2.39457 5.46802,4.75567 7.40394,6.63838c2.76182,2.68589 8.27475,1.85044 8.44994,3.09389c0.05893,0.41827 8.27425,-1.69927 16.00716,-3.54192c7.00271,-1.66866 13.60981,-3.11189 13.40596,-2.24245c-0.0376,0.16039 4.94208,-4.12744 6.60524,-9.13831c1.03566,-3.12025 -1.26246,-7.86724 -0.60201,-7.88146c1.03796,-0.02235 1.80695,-8.90976 3.86759,-10.29985c1.80577,-1.21815 4.96637,4.86683 5.29948,6.98077c0.28477,1.8072 -5.91411,11.61851 -6.29845,14.65091c-0.52928,4.17608 1.29378,6.56257 0.38676,6.97715c-8.00254,3.6578 -36.7437,11.41946 -38.21684,10.9024c-4.85773,-1.70499 -13.7443,-12.83943 -15.27583,-12.62366c-2.86195,0.4032 -5.62002,-2.37896 -6.16034,-6.21414z" fill="none" stroke="#000000" stroke-width="2.5" stroke-linecap="butt"/><path d="M235.7339,121.03894l1.62299,10.90363" fill="none" stroke="#000000" stroke-width="2" stroke-linecap="round"/><path d="M251.94166,123.90158l1.30382,8.63813" fill="none" stroke="#000000" stroke-width="2" stroke-linecap="round"/><path d="M267.76027,129.5496l-1.41798,-8.83208" fill="none" stroke="#000000" stroke-width="2" stroke-linecap="round"/><path d="M274.70437,115.96871l2.01211,8.11824" fill="none" stroke="#000000" stroke-width="2" stroke-linecap="round"/><path d="M212.22466,43.68228c5.8528,-0.82457 6.28452,5.50147 10.19234,8.90116c2.86267,2.49045 9.96865,1.29117 10.51715,5.1844c1.29724,9.20784 -5.87147,17.8304 -16.01176,19.25901c-10.14028,1.42861 -19.41223,-4.87771 -20.70947,-14.08556c-1.29724,-9.20785 5.87145,-17.8304 16.01175,-19.259z" fill="#840000" stroke="#000000" stroke-width="0" stroke-linecap="butt"/><path d="M201.58614,58.11111c-0.8856,7.86008 4.67253,15.55424 9.11122,14.92889c9.02567,-1.27158 21.31166,-17.52512 22.33513,-10.26055c1.02346,7.26457 -5.46361,14.18448 -14.48928,15.45606c-6.11016,0.86082 -17.19426,-3.00575 -21.65776,-10.54599c-1.19556,-2.01965 -0.38482,-12.80711 3.76117,-18.12103c3.23983,-4.1525 9.96453,-3.10905 9.81951,-4.13841c-0.52014,-3.69196 -7.9648,4.55833 -8.87998,12.68103z" fill="#430000" stroke="none" stroke-width="0" stroke-linecap="butt"/><path d="M212.38495,43.98112c5.75925,-0.81139 6.10659,5.44611 10.00368,8.7394c2.9645,2.50519 10.14534,1.36798 10.7058,5.34616c1.29724,9.20785 -5.87147,17.8304 -16.01176,19.25901c-10.14029,1.42861 -19.41224,-4.87772 -20.70948,-14.08556c-1.29724,-9.20785 5.87147,-17.8304 16.01176,-19.25901z" fill="none" stroke="#000000" stroke-width="3" stroke-linecap="butt"/><path d="M222.43615,119.97904l-0.89768,-6.37174c0,0 37.83127,-16.22207 48.40087,-17.71116c9.63986,-1.35811 12.48467,9.13334 12.48467,9.13334l0.89768,6.37174c0,0 -20.25365,5.82403 -30.47373,7.26388c-10.07297,1.41912 -30.4118,1.31393 -30.4118,1.31393z" fill="#ffffff" stroke="#000000" stroke-width="0" stroke-linecap="butt"/><path d="M250.93776,96.90669c17.78499,-2.50563 32.77928,-0.44339 33.49068,4.60611c0.18178,1.29025 -1.06786,1.98123 -1.66545,3.29755c-0.36424,0.80232 0.61677,2.30389 -0.89001,2.95966c-2.45846,1.06994 -4.29859,-5.56381 -8.60893,-4.77142c-5.67618,1.04348 -14.23411,9.43646 -20.18549,10.27492c-6.97268,0.98234 -20.89777,4.91737 -26.23863,4.9494c-8.28194,0.04966 -6.38415,-4.5666 -6.81664,-7.63643c-0.7114,-5.0495 13.12948,-11.17416 30.91448,-13.67978z" fill="#e2e2e2" stroke="none" stroke-width="0" stroke-linecap="butt"/><path d="M222.43614,119.97903l-0.89768,-6.37174c0,0 38.27232,-15.29399 49.50861,-16.87701c7.16907,-1.01001 11.37693,8.2992 11.37693,8.2992l0.89768,6.37174c0,0 -20.66621,6.21223 -30.75176,7.63313c-10.20814,1.43817 -30.13377,0.94469 -30.13377,0.94469z" fill="none" stroke="#000000" stroke-width="2" stroke-linecap="butt"/><path d="M245.01143,50.71839c20.3321,-2.86447 38.99373,10.28153 41.68192,29.36242c1.36613,9.69685 4.62044,19.04076 -1.73727,24.0614c-2.8916,2.28348 -7.50073,-5.48692 -12.9985,-4.54283c-6.20013,1.06469 -13.43145,10.73141 -18.73133,11.47808c-9.40514,1.32504 -26.91427,6.37537 -33.83923,3.85585c-8.04547,-2.9272 -4.878,-14.22479 -6.32271,-24.47932c-2.6882,-19.08088 11.61501,-36.87112 31.9471,-39.73559z" fill="#840000" stroke="#000000" stroke-width="0" stroke-linecap="butt"/><path d="M258.40935,73.72779c10.47885,-1.47631 9.84824,7.52521 10.50927,12.21722c0.66103,4.69201 -7.29788,9.69244 -17.77673,11.16874c-10.47885,1.47631 -35.7287,9.81876 -36.38973,5.12674c-0.20829,-1.47847 -4.77304,-18.19467 -0.0808,-31.26073c2.16906,-6.03999 13.14071,-12.82917 15.18684,-14.22804c3.09043,-2.11282 -13.06108,15.86444 -14.18803,29.00533c-0.6274,7.31576 12.88098,11.09956 14.22411,13.95931c1.64855,3.51008 5.66958,-10.65464 10.71237,-17.17174c1.55696,-2.01215 -0.05562,-6.71347 0.43076,-6.782c0,0 5.8269,3.68229 8.65366,3.35117c2.95794,-0.34648 8.71828,-5.38603 8.71828,-5.38603z" fill="#430000" stroke="none" stroke-width="0" stroke-linecap="butt"/><path d="M244.97153,50.4352c20.3321,-2.86447 38.99373,10.28153 41.68192,29.36242c1.36613,9.69685 4.62044,19.04076 -1.73727,24.0614c-2.5492,2.01308 -6.60512,-6.44593 -11.32318,-5.52094c-6.66918,1.30753 -14.5503,11.63111 -20.40665,12.45618c-9.40514,1.32504 -26.91427,6.37537 -33.83923,3.85585c-8.04547,-2.9272 -4.878,-14.22479 -6.32271,-24.47932c-2.6882,-19.08088 11.61501,-36.87112 31.9471,-39.73559z" fill="none" stroke="#000000" stroke-width="3" stroke-linecap="butt"/><path d="M220.02168,75.68432c2.08272,-0.29342 11.28469,7.99192 15.00469,6.1419c3.71325,-1.84667 3.97363,-9.26323 6.56809,-8.90651c4.66316,0.64116 4.55737,9.27415 4.91701,11.82687c0.76019,5.39583 5.65112,10.61182 -2.24712,11.72455c-7.89824,1.11274 -25.28729,6.03301 -26.04748,0.63718c-0.76019,-5.39583 -6.09343,-20.31126 1.80481,-21.424z" fill="#000000" stroke="#000000" stroke-width="3" stroke-linecap="butt"/><path d="M282.85394,88.86839c0.76019,5.39583 -17.3114,5.4714 -25.20965,6.58414c-7.89824,1.11274 -4.63878,-5.25151 -5.39897,-10.64734c-0.51347,-3.64464 -0.69188,-7.72217 6.29912,-9.47887c3.35905,-0.84407 12.20591,-5.22931 14.76924,-5.59045c7.89824,-1.11274 8.78007,13.73668 9.54025,19.13251z" data-paper-data="{&quot;index&quot;:null}" fill="#000000" stroke="#000000" stroke-width="3" stroke-linecap="butt"/><path d="M218.42832,100.79375c5.85368,-2.72034 20.10701,-3.34796 30.81498,-4.85655c11.49093,-1.61889 24.82038,-4.98132 31.12941,-3.73279c3.82375,0.7567 3.5701,8.13357 3.80292,9.78613c0.35007,2.48478 -3.82476,-5.16697 -11.2696,-3.43986c-5.67612,1.3168 -13.44476,12.12029 -21.42851,13.24508c-8.1841,1.15301 -22.09323,3.84465 -28.0663,3.50418c-7.49631,-0.42729 -6.12369,-4.2884 -6.46705,-6.72564c-0.25899,-1.83835 -2.75103,-5.81236 1.48416,-7.78056z" fill="#7d3c3c" stroke="#000000" stroke-width="0" stroke-linecap="butt"/><path d="M228.95067,98.08522c3.09116,-0.4355 -3.62472,1.51072 -6.74647,4.55497c-3.07624,2.99989 -2.5664,7.09432 1.38066,7.23082c10.7503,0.37177 37.44772,-11.13973 51.84239,-13.63516c7.79164,-1.35074 8.86403,5.16285 8.94507,5.7381c0.17341,1.23086 -4.7191,-4.86688 -10.97759,-3.17227c-6.0678,1.64296 -13.35397,11.07675 -22.66982,12.38921c-18.92448,2.66616 -34.54268,2.86231 -34.88421,0.43809c-0.34153,-2.42422 -5.8145,-10.87761 13.10998,-13.54377z" fill="#5c2c2c" stroke="none" stroke-width="0" stroke-linecap="butt"/><path d="M218.91491,100.14758c5.85368,-2.72034 20.10701,-3.34796 30.81498,-4.85655c11.49093,-1.61889 24.82038,-4.98132 31.12941,-3.73279c3.82375,0.7567 3.5701,8.13357 3.80292,9.78613c0.3706,2.63052 -3.53065,-4.72621 -11.75354,-2.9289c-5.46636,1.19481 -13.57503,11.69588 -20.94456,12.73413c-8.1841,1.15301 -22.09323,3.84465 -28.0663,3.50418c-7.49631,-0.42729 -6.12369,-4.2884 -6.46705,-6.72564c-0.25899,-1.83835 -2.75103,-5.81236 1.48416,-7.78056z" fill="none" stroke="#000000" stroke-width="3" stroke-linecap="butt"/><path d="M239.61074,87.23757c0.56638,-0.07979 0.64617,0.48658 0.64617,0.48658c0.13299,0.94397 0.34577,2.45429 0.47876,3.39826c0,0 0.07979,0.56638 -0.48658,0.64617c-0.56638,0.07979 -0.64617,-0.48658 -0.64617,-0.48658c-0.13299,-0.94397 -0.26598,-1.88792 -0.39897,-2.83189l-0.07979,-0.56638c0,0 -0.07979,-0.56638 0.48658,-0.64617z" fill="#ffffff" stroke="none" stroke-width="0.5" stroke-linecap="butt"/><path d="M258.99117,83.35194c0.56638,-0.07979 0.64617,0.48658 0.64617,0.48658l0.0399,0.28319c0.22677,1.60963 0.15404,3.31505 0.39506,4.8541c0,0 0.07979,0.56638 -0.48658,0.64617c-0.56638,0.07979 -0.64617,-0.48658 -0.64617,-0.48658c-0.20477,-1.58054 -0.1645,-3.21758 -0.39506,-4.8541l-0.0399,-0.28319c0,0 -0.07979,-0.56638 0.48658,-0.64617z" fill="#ffffff" stroke="none" stroke-width="0.5" stroke-linecap="butt"/><path d="M300.35756,50.98157c-0.25213,0.03552 -0.33192,-0.53086 -0.33192,-0.53086l-0.07979,-0.56638c-0.05423,-0.6355 -1.03331,-1.47088 -1.36338,-1.99877c-0.08151,-0.13037 -0.12001,-0.2668 -0.13556,-0.38934c-0.01892,-0.12208 -0.01961,-0.26383 0.02271,-0.41163c0.01107,-0.03868 0.02309,-0.07074 0.03576,-0.09708c-0.08372,0.03623 -0.21071,0.01666 -0.24767,-0.42359c-0.06174,-0.73551 0.22168,-0.78111 0.30677,-1.24611c0.13822,-0.75544 -0.45618,-2.04163 -0.09969,-3.2867c0,0 0.12186,-0.4256 0.35657,-0.05023c0.23471,0.37537 0.11285,0.80098 0.11285,0.80098c-0.35744,1.24842 0.00989,3.4238 0.06715,4.50985c0.55866,0.75987 1.22717,1.18643 1.44875,2.5216l0.07979,0.56638c0,0 0.07979,0.56638 -0.17233,0.6019z" fill="#ffffff" stroke="none" stroke-width="0.5" stroke-linecap="butt"/><path d="M250.68613,93.86937c5.90413,-0.8318 10.9583,0.39571 11.28882,2.74172c0.33052,2.34601 -4.18779,4.92213 -10.09191,5.75393c-5.90413,0.8318 -10.9583,-0.39571 -11.28882,-2.74172c-0.33052,-2.34601 4.18779,-4.92213 10.09191,-5.75393z" fill="#000000" stroke="#000000" stroke-width="3" stroke-linecap="butt"/><path d="M250.71646,46.80855c0.59297,-1.79159 4.11574,-6.1901 5.11539,-12.10356c1.79027,-10.59037 1.53233,-24.50716 4.83829,-26.11367c3.13765,-1.52471 5.4544,4.40835 10.3353,7.00424c5.96397,3.17191 14.4762,3.39276 17.04579,4.24322c1.6125,0.53369 10.98173,-3.74914 11.48568,-2.06263c1.0027,3.35558 -5.22209,10.32466 -8.81253,17.26563c-3.69832,7.14949 -4.80342,14.2929 -6.38726,19.07829c-3.89432,11.7662 -11.68735,8.74598 -19.81289,6.05664c-8.12554,-2.68935 -17.70209,-1.60197 -13.80777,-13.36817z" fill="#410000" stroke="#000000" stroke-width="0" stroke-linecap="butt"/><path d="M255.95486,36.77691c1.20496,-3.64066 -1.1737,-31.44697 7.16289,-28.68776c5.11123,1.6917 -5.00201,19.10112 0.10866,29.58253c3.22501,6.61412 23.38409,7.68865 22.9179,9.09718c-1.20497,3.64066 -8.93993,4.35523 -17.27652,1.59603c-8.33659,-2.7592 -14.11791,-7.94732 -12.91294,-11.58798z" fill="#170000" stroke="none" stroke-width="0" stroke-linecap="butt"/><path d="M250.66297,46.7021c0.59296,-1.79159 4.11573,-6.19009 5.11538,-12.10356c1.79027,-10.59037 1.53233,-24.50716 4.83829,-26.11367c3.09538,-1.50419 5.07911,4.68323 9.89483,7.22289c6.03037,3.18024 14.88836,3.16473 17.48626,4.02457c1.6125,0.53369 10.98171,-3.74914 11.48567,-2.06263c1.00271,3.35558 -5.22208,10.32465 -8.81253,17.26563c-3.69832,7.1495 -4.80342,14.2929 -6.38726,19.07829c-3.89432,11.7662 -11.68735,8.74598 -19.81289,6.05664c-8.12554,-2.68936 -17.70209,-1.60197 -13.80777,-13.36817z" fill="none" stroke="#000000" stroke-width="3" stroke-linecap="butt"/><path d="M289.61124,61.7782c-1.01292,3.06041 0.51694,8.52222 -6.1902,8.06413c-3.99787,-0.27306 -15.10645,-5.29959 -19.87974,-6.87943c-5.44598,-1.80248 -15.91159,-4.75556 -19.46636,-7.26691c-4.78805,-3.38262 -1.6769,-6.43376 -0.74908,-9.23708c0.84145,-2.54234 2.73138,-6.74939 7.7594,-6.87532c4.63234,-0.11601 12.18161,3.66211 18.31053,5.69063c5.57564,1.84539 17.41298,3.98249 20.99291,6.55997c4.62655,3.33103 0.13395,7.19024 -0.77748,9.94401z" data-paper-data="{&quot;index&quot;:null}" fill="#410000" stroke="#000000" stroke-width="0" stroke-linecap="butt"/><path d="M253.22237,40.53679c3.25784,-0.15187 23.07374,5.82026 31.62694,9.5132c6.95162,3.00145 6.08122,3.95456 7.92079,4.56342c0.81271,0.26898 1.775,6.23506 -1.38408,5.15549c-4.19848,-1.43476 -2.99764,-5.06657 -9.62977,-8.23989c-7.26767,-3.47741 -25.22256,-7.38178 -28.99162,-6.9887c-2.39439,0.24972 -4.12607,1.4612 -5.26045,2.87427c-1.47007,1.83125 -1.93701,4.00104 -1.54316,4.85491c2.08941,4.52981 42.20261,14.01987 41.58703,15.87978c-1.18751,3.5879 -19.41252,-2.39698 -29.38476,-5.69755c-9.97224,-3.30057 -17.09368,-8.88477 -15.90618,-12.47267c0.69892,-2.1117 2.51726,-9.04844 10.96526,-9.44227z" fill="#170000" stroke="none" stroke-width="0" stroke-linecap="butt"/><path d="M289.72592,62.00633c-1.01292,3.06041 0.51695,8.52222 -6.1902,8.06413c-3.99787,-0.27305 -15.10645,-5.29959 -19.87975,-6.87943c-5.44598,-1.80248 -15.91157,-4.75556 -19.46636,-7.26691c-4.78805,-3.38262 -1.6769,-6.43376 -0.74908,-9.23708c0.84145,-2.54233 2.73139,-6.74939 7.7594,-6.87532c4.63234,-0.11602 12.18161,3.66211 18.31053,5.69063c5.57564,1.84539 17.41298,3.98249 20.99291,6.55998c4.62655,3.33103 0.13395,7.19024 -0.77748,9.94401z" data-paper-data="{&quot;index&quot;:null}" fill="none" stroke="#000000" stroke-width="3" stroke-linecap="butt"/><path d="M236.12614,119.45761l-0.72954,-5.17831" fill="none" stroke="#000000" stroke-width="2" stroke-linecap="round"/><path d="M251.69502,111.65306l0.91193,6.47289" fill="none" stroke="#000000" stroke-width="2" stroke-linecap="round"/><path d="M269.39086,115.43129l-2.30933,-12.87738" fill="none" stroke="#000000" stroke-width="2" stroke-linecap="round"/><path d="M228.68623,79.35384l2.31714,-6.10264l-10.95283,-3.9443l4.13205,-3.47023l-0.80185,-3.64155" fill="none" stroke="#000000" stroke-width="3" stroke-linecap="round"/><path d="M252.069,104.51612l0.76398,4.33531" fill="none" stroke="#000000" stroke-width="3" stroke-linecap="round"/></g><g stroke-linecap="butt"><path d="M157.3558,322.10148c0,-11.07416 16.63961,-20.05155 37.16561,-20.05155c20.526,0 37.1656,8.97737 37.1656,20.05155c0,5.5238 -0.30845,12.05852 -7.0057,15.68505c-6.72944,3.64397 -19.8723,4.3665 -30.15991,4.3665c-11.02302,0 -28.58824,-0.03474 -35.39441,-4.14721c-5.86761,-3.54537 -1.7712,-10.7773 -1.7712,-15.90434z" fill="#840000" stroke="#000000" stroke-width="0"/><path d="M156.60745,332.71996c0,-1.92539 7.37565,2.6143 21.70599,3.6569c15.36834,1.11811 38.04516,-1.28736 46.97351,-4.67121c4.00164,-1.51662 2.89534,-8.45008 -1.53588,-14.20528c-4.83274,-6.27671 -13.08795,-11.34552 -9.54331,-11.34552c20.80814,0 17.75264,20.64007 17.75264,26.5651c0,5.92503 -16.86833,10.72822 -37.67647,10.72822c-20.80814,0 -37.67648,-4.80319 -37.67648,-10.72822z" fill="#430000" stroke="none" stroke-width="0"/><path d="M137.30949,326.82314c0,-11.07417 7.47174,-20.05155 16.68857,-20.05155c9.21684,0 16.68857,8.97737 16.68857,20.05155c0,5.5238 -0.13851,12.05852 -3.14578,15.68505c-3.02174,3.64397 -8.92332,4.3665 -13.54279,4.3665c-4.94969,0 -12.83705,-0.03474 -15.89325,-4.14721c-2.63476,-3.54537 -0.79534,-10.77732 -0.79534,-15.90434z" fill="#840000" stroke="#000000" stroke-width="0"/><path d="M195.30567,302.57877c20.526,0 37.16561,8.97738 37.16561,20.05155c0,5.5238 -0.30846,12.05852 -7.0057,15.68505c-6.72944,3.64397 -19.8723,4.3665 -30.15991,4.3665c-11.02302,0 -28.58823,-0.03473 -35.39441,-4.1472c-5.86761,-3.54537 -1.7712,-10.77733 -1.7712,-15.90435c0,-11.07417 16.63961,-20.05155 37.16561,-20.05155z" fill="none" stroke="#000000" stroke-width="3.5"/><path d="M136.97347,337.44159c0,-1.92539 3.31191,2.61429 9.74671,3.65689c6.90089,1.11811 17.08352,-1.28734 21.09264,-4.67119c1.79687,-1.51662 1.3001,-8.45008 -0.68966,-14.20528c-2.17006,-6.27671 -5.87691,-11.34552 -4.28526,-11.34552c9.34354,0 7.97152,20.64009 7.97152,26.56511c0,5.92504 -7.57443,10.72822 -16.91797,10.72822c-9.34354,0 -16.91797,-4.80319 -16.91797,-10.72822z" fill="#430000" stroke="none" stroke-width="0"/><path d="M137.66164,327.35195c0,-11.07417 7.47173,-20.05155 16.68857,-20.05155c9.21684,0 16.68857,8.97739 16.68857,20.05155c0,5.5238 -0.13851,12.05852 -3.14578,15.68505c-3.02174,3.64398 -8.92331,4.36649 -13.54278,4.36649c-4.94969,0 -12.83705,-0.03473 -15.89325,-4.1472c-2.63476,-3.54537 -0.79532,-10.77732 -0.79532,-15.90434z" fill="none" stroke="#000000" stroke-width="3.5"/><path d="M184.42107,326.14689c0,-11.07417 7.47174,-20.05155 16.68857,-20.05155c9.21684,0 16.68857,8.97737 16.68857,20.05155c0,5.5238 -0.13851,12.05852 -3.14578,15.68505c-3.02174,3.64397 -8.92332,4.3665 -13.54279,4.3665c-4.94969,0 -12.83705,-0.03474 -15.89325,-4.14721c-2.63476,-3.54537 -0.79534,-10.77732 -0.79534,-15.90434z" fill="#840000" stroke="#000000" stroke-width="0"/><path d="M184.08505,336.76534c0,-1.92539 3.31191,2.61429 9.74671,3.65689c6.90089,1.11811 17.08352,-1.28734 21.09264,-4.67119c1.79687,-1.51662 1.3001,-8.45008 -0.68966,-14.20528c-2.17006,-6.27671 -5.87691,-11.34552 -4.28526,-11.34552c9.34354,0 7.97152,20.64009 7.97152,26.56511c0,5.92504 -7.57443,10.72822 -16.91797,10.72822c-9.34354,0 -16.91797,-4.80319 -16.91797,-10.72822z" fill="#430000" stroke="none" stroke-width="0"/><path d="M184.77322,326.6757c0,-11.07417 7.47173,-20.05155 16.68857,-20.05155c9.21684,0 16.68857,8.97739 16.68857,20.05155c0,5.5238 -0.13851,12.05852 -3.14578,15.68505c-3.02174,3.64398 -8.92331,4.36649 -13.54278,4.36649c-4.94969,0 -12.83705,-0.03473 -15.89325,-4.1472c-2.63476,-3.54537 -0.79532,-10.77732 -0.79532,-15.90434z" fill="none" stroke="#000000" stroke-width="3.5"/><path d="M158.27302,325.92147c0,-11.07417 7.47174,-20.05155 16.68857,-20.05155c9.21684,0 16.68857,8.97737 16.68857,20.05155c0,5.5238 -0.13851,12.05852 -3.14578,15.68505c-3.02174,3.64397 -8.92332,4.3665 -13.54279,4.3665c-4.94969,0 -12.83705,-0.03474 -15.89325,-4.14721c-2.63476,-3.54537 -0.79534,-10.77732 -0.79534,-15.90434z" fill="#840000" stroke="#000000" stroke-width="0"/><path d="M157.93699,336.53993c0,-1.92539 3.31191,2.61429 9.74671,3.65689c6.90089,1.11811 17.08352,-1.28734 21.09264,-4.67119c1.79687,-1.51662 1.3001,-8.45008 -0.68966,-14.20528c-2.17006,-6.27671 -5.87691,-11.34552 -4.28526,-11.34552c9.34354,0 7.97152,20.64009 7.97152,26.56511c0,5.92504 -7.57443,10.72822 -16.91797,10.72822c-9.34354,0 -16.91797,-4.80319 -16.91797,-10.72822z" fill="#430000" stroke="none" stroke-width="0"/><path d="M158.62517,326.4503c0,-11.07417 7.47173,-20.05155 16.68857,-20.05155c9.21684,0 16.68857,8.97739 16.68857,20.05155c0,5.5238 -0.13851,12.05852 -3.14578,15.68505c-3.02174,3.64398 -8.92331,4.36649 -13.54278,4.36649c-4.94969,0 -12.83705,-0.03473 -15.89325,-4.1472c-2.63476,-3.54537 -0.79532,-10.77732 -0.79532,-15.90434z" fill="none" stroke="#000000" stroke-width="3.5"/></g><g data-paper-data="{&quot;index&quot;:null}" stroke-linecap="butt"><path d="M318.75889,324.10338c0,5.12704 4.09642,12.35897 -1.7712,15.90434c-6.80617,4.11247 -24.37139,4.14721 -35.39441,4.14721c-10.28762,0 -23.43048,-0.72254 -30.15991,-4.3665c-6.69725,-3.62653 -7.0057,-10.16125 -7.0057,-15.68505c0,-11.07418 16.6396,-20.05155 37.1656,-20.05155c20.526,0 37.16561,8.97739 37.16561,20.05155z" fill="#840000" stroke="#000000" stroke-width="0"/><path d="M319.50724,334.72184c0,5.92503 -16.86834,10.72822 -37.67648,10.72822c-20.80814,0 -37.67647,-4.80319 -37.67647,-10.72822c0,-5.92503 -3.0555,-26.5651 17.75264,-26.5651c3.54464,0 -4.71058,5.06881 -9.54331,11.34552c-4.43121,5.7552 -5.53752,12.68866 -1.53588,14.20528c8.92834,3.38386 31.60517,5.78932 46.97351,4.67121c14.33034,-1.0426 21.70599,-5.58229 21.70599,-3.6569z" fill="#430000" stroke="none" stroke-width="0"/><path d="M338.8052,328.82504c0,5.12703 1.83942,12.35897 -0.79534,15.90434c-3.0562,4.11247 -10.94355,4.14721 -15.89325,4.14721c-4.61947,0 -10.52105,-0.72254 -13.54279,-4.3665c-3.00727,-3.62653 -3.14578,-10.16125 -3.14578,-15.68505c0,-11.07418 7.47173,-20.05155 16.68857,-20.05155c9.21683,0 16.68857,8.97738 16.68857,20.05155z" fill="#840000" stroke="#000000" stroke-width="0"/><path d="M317.97463,324.63222c0,5.12703 4.09642,12.35899 -1.7712,15.90435c-6.80618,4.11247 -24.37139,4.1472 -35.39441,4.1472c-10.28762,0 -23.43048,-0.72254 -30.15991,-4.3665c-6.69723,-3.62653 -7.0057,-10.16125 -7.0057,-15.68505c0,-11.07417 16.63961,-20.05155 37.16561,-20.05155c20.526,0 37.16561,8.97738 37.16561,20.05155z" fill="none" stroke="#000000" stroke-width="3.5"/><path d="M339.1412,339.44349c0,5.92503 -7.57443,10.72822 -16.91797,10.72822c-9.34354,0 -16.91797,-4.80318 -16.91797,-10.72822c0,-5.92503 -1.37202,-26.56511 7.97152,-26.56511c1.59166,0 -2.1152,5.06881 -4.28526,11.34552c-1.98976,5.7552 -2.48653,12.68866 -0.68966,14.20528c4.00912,3.38384 14.19175,5.7893 21.09264,4.67119c6.43479,-1.0426 9.74671,-5.58228 9.74671,-3.65689z" fill="#430000" stroke="none" stroke-width="0"/><path d="M338.45303,329.35385c0,5.12703 1.83943,12.35897 -0.79532,15.90434c-3.0562,4.11247 -10.94355,4.1472 -15.89325,4.1472c-4.61947,0 -10.52104,-0.72251 -13.54278,-4.36649c-3.00727,-3.62653 -3.14578,-10.16125 -3.14578,-15.68505c0,-11.07416 7.47173,-20.05155 16.68857,-20.05155c9.21684,0 16.68857,8.97738 16.68857,20.05155z" fill="none" stroke="#000000" stroke-width="3.5"/><path d="M291.69362,328.14878c0,5.12703 1.83942,12.35897 -0.79534,15.90434c-3.0562,4.11247 -10.94355,4.14721 -15.89325,4.14721c-4.61947,0 -10.52105,-0.72254 -13.54279,-4.3665c-3.00727,-3.62653 -3.14578,-10.16125 -3.14578,-15.68505c0,-11.07418 7.47173,-20.05155 16.68857,-20.05155c9.21683,0 16.68857,8.97738 16.68857,20.05155z" fill="#840000" stroke="#000000" stroke-width="0"/><path d="M292.02962,338.76725c0,5.92503 -7.57443,10.72822 -16.91797,10.72822c-9.34354,0 -16.91797,-4.80318 -16.91797,-10.72822c0,-5.92503 -1.37202,-26.56511 7.97152,-26.56511c1.59166,0 -2.1152,5.06881 -4.28526,11.34552c-1.98976,5.7552 -2.48653,12.68866 -0.68966,14.20528c4.00912,3.38384 14.19175,5.7893 21.09264,4.67119c6.43479,-1.0426 9.74671,-5.58228 9.74671,-3.65689z" fill="#430000" stroke="none" stroke-width="0"/><path d="M291.34145,328.67759c0,5.12703 1.83943,12.35897 -0.79532,15.90434c-3.0562,4.11247 -10.94355,4.1472 -15.89325,4.1472c-4.61947,0 -10.52104,-0.72251 -13.54278,-4.36649c-3.00727,-3.62653 -3.14578,-10.16125 -3.14578,-15.68505c0,-11.07416 7.47173,-20.05155 16.68857,-20.05155c9.21684,0 16.68857,8.97738 16.68857,20.05155z" fill="none" stroke="#000000" stroke-width="3.5"/><path d="M317.84168,327.92337c0,5.12703 1.83942,12.35897 -0.79534,15.90434c-3.0562,4.11247 -10.94355,4.14721 -15.89325,4.14721c-4.61947,0 -10.52105,-0.72254 -13.54279,-4.3665c-3.00727,-3.62653 -3.14578,-10.16125 -3.14578,-15.68505c0,-11.07418 7.47173,-20.05155 16.68857,-20.05155c9.21683,0 16.68857,8.97738 16.68857,20.05155z" fill="#840000" stroke="#000000" stroke-width="0"/><path d="M318.17767,338.54184c0,5.92503 -7.57443,10.72822 -16.91797,10.72822c-9.34354,0 -16.91797,-4.80318 -16.91797,-10.72822c0,-5.92503 -1.37202,-26.56511 7.97152,-26.56511c1.59166,0 -2.1152,5.06881 -4.28526,11.34552c-1.98976,5.7552 -2.48653,12.68866 -0.68966,14.20528c4.00912,3.38384 14.19175,5.7893 21.09264,4.67119c6.43479,-1.0426 9.74671,-5.58228 9.74671,-3.65689z" fill="#430000" stroke="none" stroke-width="0"/><path d="M317.4895,328.45219c0,5.12703 1.83943,12.35897 -0.79532,15.90434c-3.0562,4.11247 -10.94355,4.1472 -15.89325,4.1472c-4.61947,0 -10.52104,-0.72251 -13.54278,-4.36649c-3.00727,-3.62653 -3.14578,-10.16125 -3.14578,-15.68505c0,-11.07416 7.47173,-20.05155 16.68857,-20.05155c9.21684,0 16.68857,8.97738 16.68857,20.05155z" fill="none" stroke="#000000" stroke-width="3.5"/></g></g></g></svg>