<svg version="1.1" xmlns="http://www.w3.org/2000/svg" xmlns:xlink="http://www.w3.org/1999/xlink" width="204.47" height="293.44676" viewBox="0,0,204.47,293.44676"><g transform="translate(-137.81206,-24.81377)"><g data-paper-data="{&quot;isPaintingLayer&quot;:true}" fill-rule="nonzero" stroke-linejoin="miter" stroke-miterlimit="10" stroke-dasharray="" stroke-dashoffset="0" style="mix-blend-mode: normal"><g stroke-linecap="butt"><g><path d="M141.24595,184.25458l47.8518,-78.92385l13.71772,8.3171l-47.8518,78.92385z" fill="#7c7c7c" stroke="#000000" stroke-width="0"/><path d="M144.08343,178.12153c2.17085,-3.58048 42.82825,-76.18733 46.97953,-73.6704c2.28031,1.38256 -22.33045,38.67913 -31.45451,60.41097c-7.4862,17.83074 0.48649,20.76034 -0.49191,22.37405c-2.17086,3.58048 -7.29596,4.44265 -11.44724,1.92572c-4.15128,-2.51693 -5.75673,-7.45986 -3.58588,-11.04034z" fill="#4c4c4c" stroke="none" stroke-width="0"/><path d="M141.24595,184.25458l47.8518,-78.92385l13.71772,8.3171l-47.8518,78.92385z" fill="none" stroke="#000000" stroke-width="5"/></g><g><path d="M179.45256,110.85995c4.48753,-7.40146 5.96955,-16.97856 12.10491,-18.58511c3.75798,-0.98402 12.35704,3.86241 15.37278,5.69087c3.48202,2.11116 13.43451,3.49478 14.04468,8.09951c0.78107,5.89446 -8.70899,15.52594 -12.77154,22.22646c-7.23619,11.93493 -19.53837,17.70788 -27.47769,12.89424c-1.49992,-0.90941 10.43944,-23.43987 9.46852,-24.9047c-2.15318,-3.24851 -24.61172,24.02969 -27.51609,24.65745c-2.71817,0.58751 13.93706,-25.39893 16.77443,-30.07872z" fill="#5d9000" stroke="#000000" stroke-width="0"/><path d="M188.45059,127.40997c0.43768,-0.72189 5.42959,-15.09766 -0.2531,-11.13378c-5.55605,3.87555 -21.78023,26.12247 -22.17152,22.89791c-0.93568,-7.71076 20.02796,-41.87975 24.77702,-44.5674c1.53513,-0.86878 -13.53021,19.4976 -13.50331,24.40436c0.02517,4.59202 11.71104,-9.22499 14.94006,-8.8572c5.4507,0.62085 -2.02531,27.96273 -1.29673,28.40447c4.25506,2.57986 15.96831,-6.83929 12.91653,-1.80586c-3.05178,5.03343 -13.05304,8.66187 -17.30811,6.08201c-0.88592,-0.53714 -2.92811,-0.13953 -3.24301,-1.05793c-1.19757,-3.49265 2.72578,-10.38112 5.14217,-14.36657z" fill="#517c00" stroke="none" stroke-width="0"/><path d="M179.45255,110.85995c4.48753,-7.40145 5.96955,-16.97856 12.10491,-18.58511c3.75797,-0.98403 12.35704,3.86241 15.37278,5.69087c3.48202,2.11116 13.43451,3.49478 14.04468,8.09951c0.78106,5.89446 -8.70899,15.52594 -12.77154,22.22646c-7.23619,11.93493 -19.53837,17.70788 -27.47769,12.89424c-1.49992,-0.90941 10.43944,-23.43987 9.46852,-24.9047c-2.15318,-3.24851 -24.61172,24.02969 -27.51609,24.65745c-2.71816,0.58751 13.93707,-25.39894 16.77444,-30.07872z" fill="none" stroke="#000000" stroke-width="5"/></g></g><g data-paper-data="{&quot;index&quot;:null}" stroke-linecap="butt"><g><path d="M325.13044,194.25082l-47.8518,-78.92386l13.71772,-8.3171l47.8518,78.92386z" fill="#7c7c7c" stroke="#000000" stroke-width="0"/><path d="M336.01069,179.80067c2.17086,3.58048 0.56541,8.52342 -3.58588,11.04035c-4.15128,2.51693 -9.27638,1.65476 -11.44724,-1.92572c-0.9784,-1.61371 6.99429,-4.54329 -0.49191,-22.37405c-9.12406,-21.73185 -33.73482,-59.02841 -31.45451,-60.41097c4.15128,-2.51693 44.80868,70.08992 46.97954,73.6704z" fill="#4c4c4c" stroke="none" stroke-width="0"/><path d="M325.13044,194.25081l-47.8518,-78.92385l13.71772,-8.3171l47.8518,78.92385z" fill="none" stroke="#000000" stroke-width="5"/></g><g><path d="M300.64155,112.53908c2.83737,4.67978 19.4926,30.66623 16.77443,30.07872c-2.90437,-0.62775 -25.3629,-27.90596 -27.51609,-24.65745c-0.97093,1.46484 10.96844,23.99529 9.46852,24.90469c-7.93932,4.81364 -20.24151,-0.95931 -27.4777,-12.89424c-4.06255,-6.70051 -13.5526,-16.33199 -12.77154,-22.22646c0.61017,-4.60473 10.56266,-5.98835 14.04468,-8.09951c3.01575,-1.82846 11.61481,-6.67489 15.37278,-5.69087c6.13536,1.60654 7.61739,11.18365 12.10491,18.58511z" fill="#5d9000" stroke="#000000" stroke-width="0"/><path d="M291.64353,129.0891c2.41639,3.98545 6.33975,10.87392 5.14218,14.36657c-0.3149,0.9184 -2.35709,0.52079 -3.243,1.05793c-4.25506,2.57986 -14.25632,-1.04858 -17.30811,-6.08201c-3.05178,-5.03343 8.66146,4.38573 12.91652,1.80587c0.72858,-0.44174 -6.74743,-27.78362 -1.29673,-28.40448c3.22902,-0.36779 14.91489,13.44923 14.94006,8.8572c0.0269,-4.90675 -15.03844,-25.27315 -13.5033,-24.40436c4.74906,2.68765 25.7127,36.85665 24.77702,44.5674c-0.39128,3.22456 -16.61546,-19.02237 -22.17151,-22.89791c-5.68269,-3.96389 -0.69079,10.41189 -0.25311,11.13378z" fill="#517c00" stroke="none" stroke-width="0"/><path d="M300.64154,112.53908c2.83737,4.67978 19.4926,30.66623 16.77444,30.07872c-2.90436,-0.62775 -25.3629,-27.90595 -27.51609,-24.65745c-0.97093,1.46483 10.96844,23.99529 9.46852,24.90469c-7.93932,4.81364 -20.24151,-0.95931 -27.4777,-12.89424c-4.06255,-6.70051 -13.5526,-16.33199 -12.77154,-22.22646c0.61017,-4.60473 10.56265,-5.98835 14.04468,-8.09951c3.01575,-1.82846 11.61481,-6.6749 15.37278,-5.69087c6.13536,1.60654 7.61738,11.18365 12.10491,18.58511z" fill="none" stroke="#000000" stroke-width="5"/></g></g><g stroke-linecap="butt"><path d="M202.49325,144.63878c0,-14.45245 17.86317,-26.16847 35.00371,-26.16847c17.14053,0 33.86998,4.45016 33.86998,18.9026c0,3.38181 -0.89508,26.64724 -3.42738,28.97385c-2.62781,2.41436 -9.77673,-8.86549 -12.40638,-6.48552c-5.66587,5.12791 -9.06857,10.94601 -18.03622,10.94601c-5.54981,0 -6.36622,-9.1753 -10.87408,-11.32701c-3.61882,-1.72736 -10.9774,5.41198 -14.30392,4.09776c-5.32763,-2.1048 -9.8257,-12.92283 -9.8257,-18.93923z" fill="#3e5f00" stroke="#000000" stroke-width="5"/><g><path d="M232.5422,175.75087v-55.929h15.7446v55.929z" fill="#707070" stroke="#000000" stroke-width="0"/><path d="M231.68422,170.38057c0,-3.58262 -0.31556,-42.97566 4.03163,-42.97566c2.90632,0 -3.24686,28.19306 -0.51826,41.65609c1.35277,6.6746 12.99711,2.5647 12.99711,3.75216c0,3.58261 -4.29202,4.05431 -8.63921,4.05431c-4.34719,0 -7.87128,-2.90428 -7.87128,-6.48689z" fill="#474747" stroke="none" stroke-width="0"/><path d="M232.5951,175.8147v-55.929h15.7446v55.929z" fill="none" stroke="#000000" stroke-width="3.5"/></g><g><path d="M210.58192,137.97784v-7.91081h57.30592v7.91081z" fill="#707070" stroke="#000000" stroke-width="0"/><path d="M222.13305,131.13961c10.57818,0 -11.81767,3.98774 -1.8863,5.892c4.9237,0.94408 47.30581,0.36276 47.30581,0.53072c0,0.50674 -15.62175,0.57346 -31.44427,0.57346c-15.82252,0 -25.15087,0.08897 -25.15087,-0.41777c0,-0.50674 -4.64688,-6.5784 11.17564,-6.5784z" fill="#474747" stroke="none" stroke-width="0"/><path d="M210.77445,137.98687v-7.91081h57.30592v7.91081z" fill="none" stroke="#000000" stroke-width="3.5"/></g><g><path d="M211.58145,158.71803v-7.91081h57.30592v7.91081z" fill="#707070" stroke="#000000" stroke-width="0"/><path d="M211.95693,158.4582c0,-0.50674 -4.64688,-6.57841 11.17564,-6.57841c10.57817,0 -11.81767,3.98773 -1.8863,5.892c4.92369,0.94408 47.30581,0.36276 47.30581,0.53072c0,0.50674 -15.62175,0.57346 -31.44427,0.57346c-15.82252,0 -25.15087,0.08897 -25.15087,-0.41777z" fill="#474747" stroke="none" stroke-width="0"/><path d="M211.77397,158.72706v-7.91081h57.30592v7.91081z" fill="none" stroke="#000000" stroke-width="3.5"/></g><path d="M205.6707,105.68693c4.26189,0.40642 12.54838,4.5436 16.57035,2.38435c3.33405,-1.78993 -11.47162,-7.67732 -9.41729,-12.48377c1.81883,-4.25547 20.39761,-7.58808 24.47267,-7.58808c20.28868,0 36.7359,11.03165 36.7359,24.63987c0,7.555 2.2663,31.13273 -6.62335,42.84031c-3.78005,4.97829 -0.80236,-5.12863 -7.55089,-4.39395c-0.64601,0.07032 8.82714,-16.56171 5.05953,-14.68549c-0.44475,0.22148 -4.38991,0.38422 -8.75611,-3.05496c-4.66576,-3.67514 -9.78995,-10.9426 -10.9148,-9.83031c-2.31079,2.28499 0.09189,9.60518 -0.26564,15.09596c-0.64615,9.92318 -2.80444,19.01935 -4.88063,18.13131c-7.13168,-3.05039 -13.43797,-19.36676 -15.234,-18.35239c-6.31597,3.56717 11.71275,25.10204 9.11903,25.10204c-6.8281,0 -21.67532,3.12109 -26.65511,-2.99511c-9.81688,-12.05717 -6.76983,-38.82897 -6.76983,-47.85739c0,-4.06367 0.45974,-7.39587 5.11018,-6.95238z" fill="#5d9000" stroke="#000000" stroke-width="0"/><path d="M203.98511,156.02717c0,-1.45701 -4.9357,-44.97286 -1.70172,-48.52546c0.23775,-0.26118 3.485,-0.67588 7.11387,0.21305c4.68193,1.14688 10.17938,3.50219 12.55648,1.08685c1.09971,-1.11741 -4.85055,-6.46843 -6.78689,-10.29782c-1.73886,-3.43885 0.47692,-5.40555 1.87438,-6.09795c12.17023,-6.02993 29.27054,-6.68208 31.35409,-3.56528c0.92041,1.37684 -29.46273,5.49825 -30.1011,8.11103c-0.64535,2.64138 7.11791,7.14872 7.24161,10.37242c0.17509,4.56275 -22.23316,4.8606 -22.33812,9.13761c-0.09215,3.75494 2.01838,38.12931 6.85257,41.72793c2.42559,1.80563 11.75485,4.49278 14.43478,0.17268c1.8251,-2.9421 -5.90815,-16.66751 -4.77562,-19.97315c1.437,-4.19431 6.27644,-2.20216 6.51236,-2.20216c0.31182,0 3.53235,0.40934 4.70114,2.19487c2.93205,4.47922 5.39732,12.83242 8.02327,9.96183c1.70787,-1.86699 -0.37841,-13.11974 0.6221,-17.73899c1.95601,-9.03074 6.26753,-12.61335 7.65591,-10.56628c0.08029,0.11838 6.23181,5.0169 11.9758,8.57231c4.95193,3.06514 9.62417,4.80693 9.56881,5.45639c-0.01612,0.18906 -1.01234,21.20925 -1.32581,21.42499c-0.49788,0.34267 -4.00897,-2.50777 -4.87906,-6.14141c-0.67275,-2.80954 2.38129,-8.01915 2.21529,-10.82101c-0.17642,-2.97791 -3.58001,-3.48212 -4.62111,-4.09839c-5.97298,-3.53568 -12.51861,-11.90066 -14.58944,-10.37473c-2.45372,1.80806 -0.03445,6.87175 -0.52468,10.86242c-1.05806,8.6128 -2.43698,17.85101 -2.41279,18.18273c0.07382,1.01221 -1.08302,3.08799 -3.38355,1.07951c-4.47391,-3.90595 -12.01538,-14.20183 -14.42969,-14.35133c-2.22557,-0.13781 5.55452,15.42632 5.55452,16.19734c0,0.21603 2.6025,4.49903 2.56346,4.70984c-0.63251,3.41529 -8.89412,2.01807 -15.75715,2.01807c-7.28667,0 -13.19369,-3.01219 -13.19369,-6.72791z" fill="#517c00" stroke="none" stroke-width="0"/><path d="M200.56053,112.6393c0,-4.06366 0.45974,-7.39586 5.11018,-6.95238c4.2619,0.40643 12.54838,4.5436 16.57035,2.38435c3.33405,-1.78992 -11.47162,-7.67731 -9.41729,-12.48377c1.81883,-4.25547 20.39762,-7.58808 24.47267,-7.58808c20.28868,0 36.7359,11.03165 36.7359,24.63987c0,7.555 2.2663,31.13273 -6.62335,42.84031c-3.78005,4.97829 -0.80235,-5.12863 -7.55089,-4.39395c-0.646,0.07033 8.82715,-16.5617 5.05954,-14.68549c-0.44475,0.22148 -4.38991,0.38422 -8.75611,-3.05496c-4.66576,-3.67514 -9.78995,-10.9426 -10.9148,-9.83031c-2.31079,2.28499 0.09189,9.60518 -0.26564,15.09596c-0.64615,9.92318 -2.80445,19.01935 -4.88064,18.13131c-7.13168,-3.05039 -13.43796,-19.36676 -15.23399,-18.35239c-6.31598,3.56717 11.71275,25.10204 9.11903,25.10204c-6.8281,0 -21.67532,3.12109 -26.65511,-2.99511c-9.81689,-12.05717 -6.76984,-38.82898 -6.76984,-47.85739z" fill="none" stroke="#000000" stroke-width="5"/></g><g><path d="M207.65134,60.67019c0,-7.62217 -4.61039,-19.4069 4.40386,-17.02699c7.75081,2.04634 4.80483,-8.09286 10.37898,-11.4604c3.05147,-1.8435 11.61183,0.65969 15.90437,0.13638c6.79359,-0.82822 9.47125,-3.9779 12.65102,-3.9779c15.92452,0 14.32957,15.14973 14.32957,32.32891c0,17.17918 -12.90937,31.10565 -28.83389,31.10565c-15.92452,0 -28.83389,-13.92648 -28.83389,-31.10565z" fill="#3e5f00" stroke="none" stroke-width="0" stroke-linecap="butt"/><path d="M207.90456,60.57391c0,-7.62217 -4.61039,-19.40691 4.40386,-17.027c7.75081,2.04634 4.80483,-8.09286 10.37898,-11.4604c3.05146,-1.8435 11.61182,0.65969 15.90436,0.13638c6.79359,-0.82821 9.47125,-3.9779 12.65102,-3.9779c15.92452,0 14.32957,15.14973 14.32957,32.32891c0,17.17918 -12.90937,31.10565 -28.83389,31.10565c-15.92452,0 -28.83389,-13.92648 -28.83389,-31.10565z" fill="none" stroke="#000000" stroke-width="3" stroke-linecap="butt"/><path d="M211.9215,69.47889v-22.91697h56.96504v22.91697z" fill="#888888" stroke="#000000" stroke-width="0" stroke-linecap="butt"/><path d="M215.34039,45.64162c3.35996,0 2.0047,6.08137 4.33022,10.67494c1.33318,2.63341 4.23783,5.12245 6.86158,6.4361c6.86603,3.43766 22.36036,-3.06267 22.36036,-1.29609c0,3.61921 -8.37153,6.55316 -18.69834,6.55316c-4.16913,0 -10.81558,1.09455 -13.92514,0.28612c-4.59271,-1.19404 -4.7732,-4.68121 -4.7732,-6.83928c0,-3.61921 -6.48229,-15.81496 3.84452,-15.81496z" fill="#474747" stroke="none" stroke-width="0" stroke-linecap="butt"/><path d="M211.9215,69.47889v-22.91697h56.96504v22.91697z" fill="none" stroke="#000000" stroke-width="5" stroke-linecap="butt"/><g stroke-width="3.5"><path d="M264.40877,97.432v-36.49208h9.52283v36.49208z" fill="#707070" stroke="#000000" stroke-linecap="butt"/><path d="M265.50287,68.10393c1.94768,0 0.91284,13.79884 2.93833,21.4417c1.12674,4.25159 6.112,3.93771 6.112,4.65522c0,2.00738 -2.45722,3.63467 -5.48835,3.63467c-3.03113,0 -5.48835,-1.6273 -5.48835,-3.63467c0,-2.00737 -1.10476,-26.09693 1.92637,-26.09693z" fill="#494949" stroke="none" stroke-linecap="butt"/><path d="M264.44882,97.54476v-36.49208h9.52284v36.49208z" fill="none" stroke="#000000" stroke-linecap="butt"/><path d="M273.75358,91.5839l-8.35973,-0.21808" fill="none" stroke="#000000" stroke-linecap="round"/><path d="M273.39011,83.80571h-8.43243" fill="none" stroke="#000000" stroke-linecap="round"/><path d="M265.10307,76.97253l8.28705,-0.07269" fill="none" stroke="#000000" stroke-linecap="round"/><path d="M273.68088,71.37514l-8.28705,-0.21808" fill="none" stroke="#000000" stroke-linecap="round"/></g><g stroke-width="3.5"><path d="M255.72562,98.70785v-36.49208h9.52284v36.49208z" fill="#707070" stroke="#000000" stroke-linecap="butt"/><path d="M254.89337,95.47671c0,-2.00738 -1.10476,-26.09693 1.92637,-26.09693c1.94768,0 0.91284,13.79884 2.93833,21.4417c1.12674,4.25158 6.112,3.93769 6.112,4.65522c0,2.00737 -2.45723,3.63467 -5.48836,3.63467c-3.03113,0 -5.48835,-1.6273 -5.48835,-3.63467z" fill="#494949" stroke="none" stroke-linecap="butt"/><path d="M255.76568,98.8206v-36.49209h9.52284v36.49209z" fill="none" stroke="#000000" stroke-linecap="butt"/><path d="M256.7107,92.64166l8.35974,0.21808" fill="none" stroke="#000000" stroke-linecap="round"/><path d="M264.70696,85.08155h-8.43243" fill="none" stroke="#000000" stroke-linecap="round"/><path d="M264.70696,78.17567l-8.28705,0.07269" fill="none" stroke="#000000" stroke-linecap="round"/><path d="M256.71069,72.4329l8.28705,0.21808" fill="none" stroke="#000000" stroke-linecap="round"/></g><g stroke-width="3.5"><path d="M245.23924,105.07253v-38.21764h9.52284v38.21764z" fill="#707070" stroke="#000000" stroke-linecap="butt"/><path d="M246.33336,74.35765c1.94768,0 0.91284,14.45133 2.93833,22.4556c1.12674,4.45262 6.112,4.1239 6.112,4.87534c0,2.10229 -2.45722,3.80653 -5.48835,3.80653c-3.03113,0 -5.48835,-1.70424 -5.48835,-3.80653c0,-2.10229 -1.10476,-27.33094 1.92637,-27.33094z" fill="#494949" stroke="none" stroke-linecap="butt"/><path d="M245.27931,105.19061v-38.21764h9.52284v38.21764z" fill="none" stroke="#000000" stroke-linecap="butt"/><path d="M254.58406,98.94789l-8.35974,-0.22839" fill="none" stroke="#000000" stroke-linecap="round"/><path d="M245.78815,90.80189h8.43243" fill="none" stroke="#000000" stroke-linecap="round"/><path d="M254.22059,83.56947l-8.28705,0.07613" fill="none" stroke="#000000" stroke-linecap="round"/><path d="M246.22431,77.55515l8.28705,0.22839" fill="none" stroke="#000000" stroke-linecap="round"/></g><g stroke-width="3.5"><path d="M236.55609,102.07855v-36.49208h9.52284v36.49208z" fill="#707070" stroke="#000000" stroke-linecap="butt"/><path d="M237.6502,72.75047c1.94768,0 0.91284,13.79884 2.93833,21.44171c1.12674,4.25158 6.112,3.93769 6.112,4.65522c0,2.00737 -2.45722,3.63467 -5.48835,3.63467c-3.03113,0 -5.48835,-1.6273 -5.48835,-3.63467c0,-2.00737 -1.10476,-26.09693 1.92637,-26.09693z" fill="#494949" stroke="none" stroke-linecap="butt"/><path d="M236.59616,102.19129v-36.49208h9.52284v36.49208z" fill="none" stroke="#000000" stroke-linecap="butt"/><path d="M237.54117,96.01236l8.35974,0.21808" fill="none" stroke="#000000" stroke-linecap="round"/><path d="M245.53744,88.45224h-8.43243" fill="none" stroke="#000000" stroke-linecap="round"/><path d="M237.25039,81.61907l8.28705,-0.07269" fill="none" stroke="#000000" stroke-linecap="round"/><path d="M245.82821,76.02167l-8.28705,-0.21808" fill="none" stroke="#000000" stroke-linecap="round"/></g><g stroke-width="3.5"><path d="M226.1283,106.18943v-36.49208h9.52284v36.49208z" fill="#707070" stroke="#000000" stroke-linecap="butt"/><path d="M227.22241,76.86136c1.94768,0 0.91284,13.79884 2.93833,21.44171c1.12674,4.25158 6.112,3.93769 6.112,4.65522c0,2.00737 -2.45722,3.63467 -5.48835,3.63467c-3.03113,0 -5.48835,-1.6273 -5.48835,-3.63467c0,-2.00737 -1.10476,-26.09693 1.92637,-26.09693z" fill="#494949" stroke="none" stroke-linecap="butt"/><path d="M226.16836,106.30218v-36.49208h9.52284v36.49208z" fill="none" stroke="#000000" stroke-linecap="butt"/><path d="M227.11337,100.12324l8.35974,0.21808" fill="none" stroke="#000000" stroke-linecap="round"/><path d="M226.67721,92.56313h8.43243" fill="none" stroke="#000000" stroke-linecap="round"/><path d="M235.10965,85.65726l-8.28705,0.07269" fill="none" stroke="#000000" stroke-linecap="round"/><path d="M227.11337,79.91448l8.28705,0.21808" fill="none" stroke="#000000" stroke-linecap="round"/></g><g stroke-width="3.5"><path d="M216.79091,101.21364v-36.49208h9.52284v36.49208z" fill="#707070" stroke="#000000" stroke-linecap="butt"/><path d="M217.88502,71.88557c1.94768,0 0.91284,13.79884 2.93833,21.44171c1.12674,4.25158 6.112,3.93769 6.112,4.65522c0,2.00737 -2.45722,3.63467 -5.48835,3.63467c-3.03113,0 -5.48835,-1.6273 -5.48835,-3.63467c0,-2.00737 -1.10476,-26.09693 1.92637,-26.09693z" fill="#494949" stroke="none" stroke-linecap="butt"/><path d="M216.83097,101.32639v-36.49208h9.52284v36.49208z" fill="none" stroke="#000000" stroke-linecap="butt"/><path d="M217.77598,95.14745l8.35974,0.21808" fill="none" stroke="#000000" stroke-linecap="round"/><path d="M217.33982,87.58734h8.43243" fill="none" stroke="#000000" stroke-linecap="round"/><path d="M217.48521,80.75416l8.28705,-0.07269" fill="none" stroke="#000000" stroke-linecap="round"/><path d="M217.77598,74.93869l8.28705,0.21808" fill="none" stroke="#000000" stroke-linecap="round"/></g><g stroke-width="3.5"><path d="M208.10776,102.48949v-36.49208h9.52284v36.49208z" fill="#707070" stroke="#000000" stroke-linecap="butt"/><path d="M209.20187,73.16142c1.94768,0 0.91284,13.79884 2.93833,21.44171c1.12674,4.25158 6.112,3.93769 6.112,4.65522c0,2.00737 -2.45722,3.63467 -5.48835,3.63467c-3.03113,0 -5.48835,-1.6273 -5.48835,-3.63467c0,-2.00737 -1.10476,-26.09693 1.92637,-26.09693z" fill="#494949" stroke="none" stroke-linecap="butt"/><path d="M208.14782,102.60223v-36.49208h9.52284v36.49208z" fill="none" stroke="#000000" stroke-linecap="butt"/><path d="M217.45257,96.64138l-8.35974,-0.21808" fill="none" stroke="#000000" stroke-linecap="round"/><path d="M208.65667,88.86318h8.43243" fill="none" stroke="#000000" stroke-linecap="round"/><path d="M217.08911,81.95731l-8.28705,0.07269" fill="none" stroke="#000000" stroke-linecap="round"/><path d="M217.37988,76.43261l-8.28705,-0.21808" fill="none" stroke="#000000" stroke-linecap="round"/></g><path d="M234.71972,64.89691c8.26971,-4.65962 7.30489,-37.58313 15.81552,-37.58313c19.66585,0 25.51678,12.60682 25.51678,37.04979c0,24.44297 -16.51897,24.36348 -36.18482,24.36348c-19.66585,0 -35.0315,0.07949 -35.0315,-24.36348c0,-4.2765 -1.00429,-20.20378 4.11744,-15.53077c1.83503,1.67426 2.05845,12.84892 5.03136,18.4983c4.09019,7.77253 11.01215,10.35895 12.96803,11.19564c5.51895,2.36093 3.11694,-11.00962 7.76719,-13.62983z" fill="#5d9000" stroke="#000000" stroke-width="0" stroke-linecap="butt"/><path d="M232.13842,72.49411c0,-4.92848 2.21644,-6.95138 6.0313,-11.67783c1.43588,-1.779 -0.85525,-10.20065 2.79686,-10.20065c13.35505,0 24.18147,5.49914 24.18147,12.28266c0,6.78353 -10.82641,12.28266 -24.18147,12.28266c-13.35505,0 -8.82815,4.09669 -8.82815,-2.68683z" fill="#517c00" stroke="none" stroke-width="0" stroke-linecap="butt"/><path d="M208.91961,80.15107c0,-3.17192 35.02703,9.54127 50.46087,0.05035c4.45792,-2.74137 13.78524,-17.43028 10.38041,-26.81653c-2.37029,-6.53429 -0.45818,-13.39368 -5.27453,-17.70398c-5.9333,-5.30989 -18.30295,-7.34728 -15.84004,-7.34728c8.64973,0 20.88805,-0.29195 24.43695,11.99135c2.16695,7.50014 2.61676,18.94438 1.44895,27.91944c-0.73974,5.68524 -3.04784,10.83936 -3.04784,11.90665c0,5.51161 -14.0056,9.97966 -31.28238,9.97966c-17.27679,0 -31.28238,-4.46804 -31.28238,-9.97966z" fill="#517c00" stroke="none" stroke-width="0" stroke-linecap="butt"/><path d="M234.71972,64.89691c8.2697,-4.65962 7.30489,-37.58314 15.81553,-37.58314c19.66584,0 25.51678,12.60682 25.51678,37.04979c0,24.44297 -16.51897,24.36348 -36.18481,24.36348c-19.66584,0 -35.03151,0.07949 -35.03151,-24.36348c0,-4.2765 -1.00429,-20.20378 4.11744,-15.53078c1.83503,1.67426 2.05845,12.84892 5.03136,18.4983c4.09019,7.77253 11.01215,10.35894 12.96803,11.19564c5.51894,2.36093 3.11694,-11.00961 7.76719,-13.62982z" fill="none" stroke="#000000" stroke-width="5" stroke-linecap="butt"/><path d="M258.37115,42.96723c6.67753,0 12.09074,7.73316 12.09074,17.27248c0,9.53933 -5.41321,17.27248 -12.09074,17.27248c-6.67753,0 -12.09074,-7.73316 -12.09074,-17.27248c0,-9.53933 5.41321,-17.27248 12.09074,-17.27248z" fill="#69ff84" stroke="#000000" stroke-width="0" stroke-linecap="butt"/><path d="M258.29269,43.23827c6.67753,0 12.09074,7.73316 12.09074,17.27248c0,9.53933 -5.41321,17.27248 -12.09074,17.27248c-6.67753,0 -12.09074,-7.73316 -12.09074,-17.27248c0,-9.53933 5.41321,-17.27248 12.09074,-17.27248z" fill="none" stroke="#000000" stroke-width="5" stroke-linecap="butt"/><path d="M247.35404,55.62061c0,-5.98376 4.06841,-10.83455 9.08704,-10.83455c4.74157,0 14.57647,6.07749 14.9919,11.60202c0.02427,0.32281 1.25993,2.57197 1.25993,2.9023c0,5.98376 -15.07772,0.87375 -20.09635,0.87375c-5.01864,0 -5.24253,1.44024 -5.24253,-4.54352z" fill="#5d9000" stroke="#000000" stroke-width="0" stroke-linecap="butt"/><path d="M256.59175,44.51494c3.87187,0 -8.35619,5.75117 -5.03101,10.14946c2.29359,3.03379 20.94667,4.99726 20.94667,5.721c0,1.77298 -7.56452,-0.13565 -14.10706,-0.13565c-6.54255,0 -11.84632,-1.43729 -11.84632,-3.21027c0,-1.77298 3.49518,-12.52454 10.03772,-12.52454z" fill="#517c00" stroke="none" stroke-width="0" stroke-linecap="butt"/><path d="M256.03876,44.5646c4.74157,0 14.57647,6.07749 14.9919,11.60202c0.02427,0.32281 1.25993,2.57197 1.25993,2.9023c0,5.98376 -15.07771,0.87376 -20.09635,0.87376c-5.01864,0 -5.24253,1.44023 -5.24253,-4.54353c0,-5.98376 4.06841,-10.83455 9.08704,-10.83455z" fill="none" stroke="#000000" stroke-width="5" stroke-linecap="butt"/><path d="M225.73806,50.88414c4.97037,0 8.99967,5.08551 8.99967,11.35881c0,6.2733 -4.02928,11.35881 -8.99967,11.35881c-4.97037,0 -8.99967,-5.08551 -8.99967,-11.35881c0,-6.2733 4.02928,-11.35881 8.99967,-11.35881z" fill="#000000" stroke="#000000" stroke-width="5" stroke-linecap="butt"/></g><g stroke-linecap="butt"><g><path d="M204.46299,286.45959l6.75709,-92.04951l15.99908,1.17445l-6.75709,92.04951z" fill="#7c7c7c" stroke="#000000" stroke-width="0"/><path d="M212.57087,192.73347c2.65955,0.19524 -2.31311,44.60239 -0.56427,68.10692c1.4349,19.28522 9.86809,18.27153 9.72993,20.15362c-0.30654,4.17594 -4.47999,7.27309 -9.32166,6.91768c-4.84168,-0.35541 -8.51812,-4.0288 -8.21158,-8.20474c0.30654,-4.17594 3.52591,-87.32889 8.36758,-86.97348z" fill="#4c4c4c" stroke="none" stroke-width="0"/><path d="M204.46299,286.45959l6.75709,-92.0495l15.99908,1.17444l-6.75709,92.0495z" fill="none" stroke="#000000" stroke-width="5"/></g><g><path d="M206.33166,173.01443c2.91991,-2.56221 12.77877,-2.07792 16.29399,-1.79292c4.05872,0.32907 13.57768,-2.88898 16.18463,0.95545c3.33713,4.92121 -0.83735,17.78202 -1.47057,25.59228c-1.1279,13.91161 -9.54428,24.58096 -18.79853,23.83067c-1.74834,-0.14175 -1.15799,-25.63335 -2.68194,-26.50857c-3.3796,-1.94094 -11.2509,32.50508 -13.56699,34.36658c-2.1676,1.74216 1.09261,-28.95089 1.53487,-34.40574c0.69946,-8.62729 -2.26255,-17.85464 2.50454,-22.03775z" fill="#5d9000" stroke="#000000" stroke-width="0"/><path d="M214.07149,195.9807c-3.23334,5.95273 -7.78213,33.10892 -9.57551,30.40066c-4.28846,-6.47614 -0.83862,-46.41476 2.20488,-50.94402c0.98381,-1.46409 -3.37056,23.49175 -1.14997,27.86736c2.07816,4.09495 6.34246,-13.49156 9.3945,-14.60817c5.15198,-1.88488 10.70665,25.91108 11.5559,25.97993c4.95979,0.40212 11.2173,-13.26405 10.74162,-7.39698c-0.47568,5.86707 -7.79457,13.58876 -12.75436,13.18665c-1.03264,-0.08372 -2.68079,1.18601 -3.3735,0.50575c-2.63438,-2.58704 -2.20977,-10.50307 -1.83312,-15.1486c0.06822,-0.84144 -1.90339,-15.931 -5.21043,-9.84258z" fill="#517c00" stroke="none" stroke-width="0"/><path d="M206.33166,173.01443c2.9199,-2.5622 12.77877,-2.07791 16.29399,-1.79291c4.05872,0.32906 13.57768,-2.88899 16.18462,0.95544c3.33712,4.92122 -0.83735,17.78203 -1.47057,25.59229c-1.12789,13.91161 -9.54428,24.58096 -18.79853,23.83066c-1.74834,-0.14175 -1.15799,-25.63335 -2.68194,-26.50857c-3.3796,-1.94094 -11.2509,32.50508 -13.56699,34.36658c-2.16759,1.74216 1.09262,-28.95089 1.53488,-34.40574c0.69947,-8.62729 -2.26255,-17.85464 2.50454,-22.03775z" fill="none" stroke="#000000" stroke-width="5"/></g><g><g><path d="M174.94566,305.8622l0.22693,-22.01626l47.15865,1.31313l-0.22693,22.01627z" fill="#252525" stroke="#000000" stroke-width="0"/><path d="M174.94566,305.8622l0.22693,-22.01626l47.15865,1.31313l-0.22693,22.01627z" fill="#252525" stroke="#000000" stroke-width="0"/><path d="M174.94566,305.8622l0.22693,-22.01626l47.15865,1.31313l-0.22693,22.01627z" fill="none" stroke="#000000" stroke-width="3.5"/><path d="M175.46157,285.4409c0.0165,-1.60028 0.70634,7.80578 3.5564,11.44177c2.71842,3.46805 7.52149,1.13641 10.75863,1.22655c3.14719,0.08765 16.46254,4.74233 24.23275,0.65393c4.7184,-2.48264 4.38859,-15.12453 7.13877,-14.01296c2.26329,0.91478 0.62694,21.53074 0.61929,22.27233c-0.03223,3.12666 -25.47648,0.45223 -32.10752,0.26759c-4.26161,-0.11867 -11.45538,2.80704 -14.23413,-4.14215c-1.54496,-3.86369 0.02429,-16.58983 0.0358,-17.70705z" fill="#141414" stroke="none" stroke-width="0"/><path d="M174.94566,305.8622l0.22693,-22.01626l47.15865,1.31313l-0.22693,22.01627z" fill="none" stroke="#000000" stroke-width="3.5"/></g><g><path d="M161.27919,311.57358l0.11121,-22.01626l23.11067,1.31313l-0.11121,22.01628z" fill="#252525" stroke="#000000" stroke-width="0"/><path d="M161.27919,311.57358l0.11121,-22.01626l23.11067,1.31313l-0.11121,22.01628z" fill="#6c6c6c" stroke="#000000" stroke-width="0"/><path d="M161.27919,311.57358l0.11121,-22.01626l23.11067,1.31313l-0.11121,22.01628z" fill="none" stroke="#000000" stroke-width="3.5"/><path d="M163.27488,302.59406c1.33219,3.46805 3.68599,1.13641 5.2724,1.22655c1.54232,0.08765 8.06766,4.74233 11.87555,0.65393c2.3123,-2.48263 2.15068,-15.12452 3.49844,-14.01295c1.10915,0.91478 0.30724,21.53074 0.30349,22.27233c-0.0158,3.12666 -12.48506,0.45224 -15.73468,0.26759c-2.08846,-0.11868 -5.61385,2.80703 -6.97561,-4.14216c-0.75713,-3.8637 0.01191,-16.58983 0.01755,-17.70705c0.00809,-1.60028 0.34615,7.80578 1.74286,11.44176z" fill="#545454" stroke="none" stroke-width="0"/><path d="M161.27919,311.57358l0.11121,-22.01626l23.11067,1.31313l-0.11121,22.01628z" fill="none" stroke="#000000" stroke-width="3.5"/></g><g><path d="M196.02342,313.59636l0.11121,-22.01626l23.11067,1.31313l-0.11122,22.01628z" fill="#252525" stroke="#000000" stroke-width="0"/><path d="M196.02342,313.59636l0.11121,-22.01626l23.11067,1.31313l-0.11122,22.01628z" fill="#6c6c6c" stroke="#000000" stroke-width="0"/><path d="M196.02342,313.59636l0.11121,-22.01626l23.11067,1.31313l-0.11122,22.01628z" fill="none" stroke="#000000" stroke-width="3.5"/><path d="M196.27626,293.17509c0.00808,-1.60028 0.34614,7.80578 1.74285,11.44176c1.3322,3.46805 3.68601,1.13642 5.27241,1.22655c1.54231,0.08764 8.06765,4.74232 11.87555,0.65392c2.31231,-2.48263 2.15068,-15.12452 3.49845,-14.01295c1.10915,0.91477 0.30724,21.53074 0.30349,22.27233c-0.0158,3.12666 -12.48505,0.45223 -15.73468,0.26759c-2.08846,-0.11868 -5.61386,2.80703 -6.97562,-4.14216c-0.75712,-3.8637 0.01191,-16.58983 0.01755,-17.70705z" fill="#545454" stroke="none" stroke-width="0"/><path d="M196.02342,313.59636l0.11121,-22.01626l23.11067,1.31313l-0.11122,22.01628z" fill="none" stroke="#000000" stroke-width="3.5"/></g><g><path d="M176.98549,313.47737l0.11121,-22.01626l23.11067,1.31313l-0.11121,22.01628z" fill="#252525" stroke="#000000" stroke-width="0"/><path d="M176.98549,313.47737l0.11121,-22.01626l23.11067,1.31313l-0.11121,22.01628z" fill="#6c6c6c" stroke="#000000" stroke-width="0"/><path d="M176.98549,313.47737l0.11121,-22.01626l23.11067,1.31313l-0.11121,22.01628z" fill="none" stroke="#000000" stroke-width="3.5"/><path d="M177.23832,293.05609c0.00807,-1.60028 0.34614,7.80579 1.74285,11.44177c1.33219,3.46805 3.686,1.13641 5.2724,1.22655c1.54231,0.08764 8.06765,4.74233 11.87555,0.65393c2.31231,-2.48263 2.15068,-15.12453 3.49845,-14.01296c1.10915,0.91477 0.30724,21.53074 0.30349,22.27233c-0.0158,3.12666 -12.48505,0.45223 -15.73468,0.26759c-2.08845,-0.11868 -5.61385,2.80703 -6.97561,-4.14216c-0.75712,-3.8637 0.01191,-16.58983 0.01755,-17.70705z" fill="#545454" stroke="none" stroke-width="0"/><path d="M176.98549,313.47737l0.11121,-22.01626l23.11067,1.31313l-0.11121,22.01628z" fill="none" stroke="#000000" stroke-width="3.5"/></g></g></g><g data-paper-data="{&quot;index&quot;:null}" stroke-linecap="butt"><g><path d="M257.27237,289.13333l-6.75708,-92.04951l15.99908,-1.17445l6.75709,92.04951z" fill="#7c7c7c" stroke="#000000" stroke-width="0"/><path d="M273.53114,281.20625c0.30654,4.17594 -3.3699,7.84934 -8.21157,8.20474c-4.84168,0.35541 -9.01512,-2.74174 -9.32166,-6.91768c-0.13816,-1.88208 8.29503,-0.8684 9.72993,-20.15362c1.74883,-23.50453 -3.22383,-67.91169 -0.56428,-68.10692c4.84168,-0.35541 8.06104,82.79754 8.36759,86.97348z" fill="#4c4c4c" stroke="none" stroke-width="0"/><path d="M257.27237,289.13332l-6.75708,-92.0495l15.99908,-1.17445l6.75709,92.0495z" fill="none" stroke="#000000" stroke-width="5"/></g><g><path d="M273.90731,196.55147c0.44226,5.45486 3.70247,36.1479 1.53487,34.40574c-2.31608,-1.8615 -10.18738,-36.30753 -13.56699,-34.36658c-1.52395,0.87522 -0.9336,26.36681 -2.68194,26.50857c-9.25425,0.7503 -17.67063,-9.91905 -18.79853,-23.83067c-0.63323,-7.81026 -4.8077,-20.67107 -1.47057,-25.59228c2.60694,-3.84443 12.12591,-0.62637 16.18463,-0.95545c3.51521,-0.285 13.37408,-0.76929 16.29399,1.79292c4.76709,4.18311 1.80508,13.41045 2.50454,22.03775z" fill="#5d9000" stroke="#000000" stroke-width="0"/><path d="M258.45251,207.32258c0.37664,4.64552 0.80126,12.56155 -1.83312,15.1486c-0.69271,0.68027 -2.34086,-0.58947 -3.3735,-0.50575c-4.95979,0.40212 -12.27868,-7.31958 -12.75436,-13.18665c-0.47568,-5.86707 5.78184,7.79909 10.74162,7.39698c0.84925,-0.06885 6.40392,-27.86481 11.5559,-25.97993c3.05205,1.1166 7.31634,18.70311 9.3945,14.60817c2.22059,-4.37561 -2.13378,-29.33145 -1.14997,-27.86736c3.0435,4.52926 6.49334,44.46787 2.20488,50.94402c-1.79338,2.70826 -6.34217,-24.44792 -9.57551,-30.40066c-3.30705,-6.08842 -5.27865,9.00114 -5.21043,9.84258z" fill="#517c00" stroke="none" stroke-width="0"/><path d="M273.90731,196.55147c0.44226,5.45486 3.70247,36.1479 1.53488,34.40574c-2.31608,-1.8615 -10.18738,-36.30753 -13.56699,-34.36658c-1.52395,0.87522 -0.9336,26.36681 -2.68194,26.50857c-9.25425,0.7503 -17.67064,-9.91905 -18.79853,-23.83066c-0.63323,-7.81026 -4.80769,-20.67107 -1.47057,-25.59229c2.60694,-3.84443 12.12591,-0.62637 16.18462,-0.95544c3.51521,-0.285 13.37409,-0.76929 16.29399,1.79291c4.76709,4.18311 1.80507,13.41045 2.50454,22.03775z" fill="none" stroke="#000000" stroke-width="5"/></g><g><g><path d="M255.63013,308.67463l-0.22693,-22.01627l47.15865,-1.31313l0.22693,22.01626z" fill="#252525" stroke="#000000" stroke-width="0"/><path d="M255.63013,308.67463l-0.22693,-22.01627l47.15865,-1.31313l0.22693,22.01626z" fill="#252525" stroke="#000000" stroke-width="0"/><path d="M255.63013,308.67463l-0.22693,-22.01627l47.15865,-1.31313l0.22693,22.01626z" fill="none" stroke="#000000" stroke-width="3.5"/><path d="M302.27287,286.9402c0.01151,1.11723 1.58076,13.84337 0.0358,17.70705c-2.77874,6.94919 -9.97251,4.02348 -14.23413,4.14215c-6.63104,0.18465 -32.0753,2.85907 -32.10752,-0.26759c-0.00765,-0.74159 -1.644,-21.35755 0.61929,-22.27233c2.75018,-1.11157 2.42037,11.53032 7.13877,14.01296c7.77022,4.0884 21.08556,-0.56628 24.23275,-0.65393c3.23714,-0.09014 8.0402,2.2415 10.75863,-1.22655c2.85006,-3.63599 3.5399,-13.04205 3.5564,-11.44177z" fill="#141414" stroke="none" stroke-width="0"/><path d="M255.63013,308.67463l-0.22693,-22.01627l47.15865,-1.31313l0.22693,22.01626z" fill="none" stroke="#000000" stroke-width="3.5"/></g><g><path d="M293.34457,314.38602l-0.11121,-22.01628l23.11067,-1.31313l0.11121,22.01626z" fill="#252525" stroke="#000000" stroke-width="0"/><path d="M293.34457,314.38602l-0.11121,-22.01628l23.11067,-1.31313l0.11121,22.01626z" fill="#6c6c6c" stroke="#000000" stroke-width="0"/><path d="M293.34457,314.38602l-0.11121,-22.01628l23.11067,-1.31313l0.11121,22.01626z" fill="none" stroke="#000000" stroke-width="3.5"/><path d="M316.20242,292.65159c0.00564,1.11723 0.77468,13.84336 0.01755,17.70705c-1.36175,6.94919 -4.88715,4.02348 -6.97561,4.14216c-3.24962,0.18465 -15.71888,2.85907 -15.73468,-0.26759c-0.00375,-0.74159 -0.80566,-21.35755 0.30349,-22.27233c1.34776,-1.11157 1.18613,11.53032 3.49844,14.01295c3.80789,4.0884 10.33323,-0.56628 11.87555,-0.65393c1.58641,-0.09014 3.9402,2.2415 5.2724,-1.22655c1.39671,-3.63598 1.73477,-13.04204 1.74286,-11.44176z" fill="#545454" stroke="none" stroke-width="0"/><path d="M293.34457,314.38602l-0.11121,-22.01628l23.11067,-1.31313l0.11121,22.01626z" fill="none" stroke="#000000" stroke-width="3.5"/></g><g><path d="M258.60035,316.4088l-0.11122,-22.01628l23.11067,-1.31313l0.11121,22.01626z" fill="#252525" stroke="#000000" stroke-width="0"/><path d="M258.60035,316.4088l-0.11122,-22.01628l23.11067,-1.31313l0.11121,22.01626z" fill="#6c6c6c" stroke="#000000" stroke-width="0"/><path d="M258.60035,316.4088l-0.11122,-22.01628l23.11067,-1.31313l0.11121,22.01626z" fill="none" stroke="#000000" stroke-width="3.5"/><path d="M281.45818,294.67437c0.00564,1.11723 0.77467,13.84336 0.01755,17.70705c-1.36175,6.94919 -4.88716,4.02348 -6.97562,4.14216c-3.24962,0.18465 -15.71888,2.85907 -15.73468,-0.26759c-0.00375,-0.74159 -0.80566,-21.35756 0.30349,-22.27233c1.34777,-1.11157 1.18613,11.53032 3.49845,14.01295c3.80789,4.0884 10.33323,-0.56628 11.87555,-0.65392c1.5864,-0.09014 3.9402,2.2415 5.27241,-1.22655c1.39671,-3.63598 1.73477,-13.04204 1.74285,-11.44176z" fill="#545454" stroke="none" stroke-width="0"/><path d="M258.60035,316.4088l-0.11122,-22.01628l23.11067,-1.31313l0.11121,22.01626z" fill="none" stroke="#000000" stroke-width="3.5"/></g><g><path d="M277.63828,316.28981l-0.11121,-22.01628l23.11067,-1.31313l0.11121,22.01626z" fill="#252525" stroke="#000000" stroke-width="0"/><path d="M277.63828,316.28981l-0.11121,-22.01628l23.11067,-1.31313l0.11121,22.01626z" fill="#6c6c6c" stroke="#000000" stroke-width="0"/><path d="M277.63828,316.28981l-0.11121,-22.01628l23.11067,-1.31313l0.11121,22.01626z" fill="none" stroke="#000000" stroke-width="3.5"/><path d="M300.49611,294.55538c0.00564,1.11723 0.77467,13.84336 0.01755,17.70705c-1.36175,6.94919 -4.88716,4.02348 -6.97561,4.14216c-3.24962,0.18465 -15.71888,2.85907 -15.73468,-0.26759c-0.00375,-0.74159 -0.80565,-21.35756 0.30349,-22.27233c1.34777,-1.11157 1.18613,11.53033 3.49845,14.01296c3.80789,4.0884 10.33323,-0.56629 11.87555,-0.65393c1.5864,-0.09014 3.9402,2.24151 5.2724,-1.22655c1.39671,-3.63598 1.73478,-13.04205 1.74285,-11.44177z" fill="#545454" stroke="none" stroke-width="0"/><path d="M277.63828,316.28981l-0.11121,-22.01628l23.11067,-1.31313l0.11121,22.01626z" fill="none" stroke="#000000" stroke-width="3.5"/></g></g></g></g></g></svg>