<svg version="1.1" xmlns="http://www.w3.org/2000/svg" xmlns:xlink="http://www.w3.org/1999/xlink" width="196.73049" height="299.69881" viewBox="0,0,196.73049,299.69881"><g transform="translate(-149.28071,-29.97315)"><g data-paper-data="{&quot;isPaintingLayer&quot;:true}" fill-rule="nonzero" stroke-linejoin="miter" stroke-miterlimit="10" stroke-dasharray="" stroke-dashoffset="0" style="mix-blend-mode: normal"><g><g data-paper-data="{&quot;index&quot;:null}" stroke-linecap="butt"><g><g><path d="M297.59839,139.59934l12.74313,40.85122l-16.48612,5.42498l-12.74311,-40.85121z" fill="#252525" stroke="#000000" stroke-width="0"/><path d="M297.59839,139.59934l12.74313,40.85122l-16.48612,5.42498l-12.74311,-40.85121z" fill="#252525" stroke="#000000" stroke-width="0"/><path d="M309.31651,177.54199c0.92624,2.96935 -4.78033,-14.35255 -7.84749,-20.6179c-2.92549,-5.97597 -3.16915,-0.85317 -4.30082,-0.48078c-1.10021,0.36205 -8.24937,-6.04765 -8.45936,2.8263c-0.12751,5.38864 7.34306,28.76898 5.77902,27.16671c-1.28716,-1.31861 -12.74509,-39.80889 -13.17431,-41.1849c-0.51261,-1.64329 0.5177,-0.2264 1.61234,-0.75987c2.76994,-1.34991 8.58396,-2.40513 10.24549,-2.95188c1.4898,-0.49023 0.87482,-9.24796 5.84729,3.17127c2.76467,6.90499 9.65118,30.75804 10.29784,32.83105z" fill="#141414" stroke="none" stroke-width="0"/><path d="M297.59839,139.59934l12.74313,40.85122l-16.48612,5.42498l-12.74311,-40.85121z" fill="none" stroke="#000000" stroke-width="3.5"/><path d="M297.59839,139.59934l12.74313,40.85122l-16.48612,5.42498l-12.74311,-40.85121z" fill="none" stroke="#000000" stroke-width="3.5"/></g><g><path d="M307.0494,156.76885l2.5801,8.27111l-24.08603,7.92581l-2.58009,-8.27113z" fill="#252525" stroke="#000000" stroke-width="0"/><path d="M307.0494,156.76885l2.5801,8.27111l-24.08603,7.92581l-2.58009,-8.27113z" fill="#252525" stroke="#000000" stroke-width="0"/><path d="M309.28763,164.49526c0.18754,0.6012 -1.31394,-2.79206 -3.20499,-3.64268c-1.8037,-0.81133 -3.95504,0.91756 -5.60839,1.46163c-1.6074,0.52894 -8.93259,1.1653 -12.37419,4.08052c-2.08988,1.77026 -0.37494,6.43745 -1.90628,6.51274c-1.26024,0.06197 -2.95386,-7.93721 -3.04077,-8.21582c-0.36641,-1.17464 12.60758,-5.51669 15.99435,-6.63116c2.1766,-0.71623 5.73029,-2.29321 7.99076,-0.19127c1.2568,1.16867 2.0186,6.2063 2.14953,6.62605z" fill="#141414" stroke="none" stroke-width="0"/><path d="M307.0494,156.76885l2.5801,8.27111l-24.08603,7.92581l-2.58009,-8.27113z" fill="none" stroke="#000000" stroke-width="3.5"/><path d="M307.0494,156.76885l2.5801,8.27111l-24.08603,7.92581l-2.58009,-8.27113z" fill="none" stroke="#000000" stroke-width="3.5"/></g><g><path d="M304.38961,143.18213l2.58009,8.27113l-27.21239,8.95459l-2.5801,-8.27113z" fill="#252525" stroke="#000000" stroke-width="0"/><path d="M304.38961,143.18213l2.58009,8.27113l-27.21239,8.95459l-2.5801,-8.27113z" fill="#252525" stroke="#000000" stroke-width="0"/><path d="M303.15909,147.35271c-1.98624,-0.75127 -4.45431,1.08187 -6.32226,1.69654c-1.81606,0.59759 -10.02689,1.52538 -13.98068,4.60913c-2.40091,1.87258 -0.65548,6.52979 -2.36984,6.66529c-1.41085,0.11153 -3.01012,-7.9187 -3.09703,-8.19731c-0.36641,-1.17464 14.29426,-6.07173 18.12064,-7.33085c2.45912,-0.8092 6.48906,-2.54293 8.93843,-0.5031c1.36184,1.13412 2.02832,6.20313 2.15925,6.62285c0.18753,0.60119 -1.36608,-2.77489 -3.44851,-3.56255z" fill="#141414" stroke="none" stroke-width="0"/><path d="M304.38961,143.18213l2.58009,8.27113l-27.21239,8.95459l-2.5801,-8.27113z" fill="none" stroke="#000000" stroke-width="3.5"/><path d="M304.38961,143.18213l2.58009,8.27113l-27.21239,8.95459l-2.5801,-8.27113z" fill="none" stroke="#000000" stroke-width="3.5"/></g></g><g><path d="M313.60851,172.21666l2.96331,9.49964l-28.10564,9.24852l-2.96331,-9.49965z" fill="#252525" stroke="#000000" stroke-width="0"/><path d="M313.60851,172.21666l2.96331,9.49964l-28.10564,9.24852l-2.96331,-9.49965z" fill="#252525" stroke="#000000" stroke-width="0"/><path d="M312.46086,176.91922c-2.09744,-0.92335 -4.61308,1.07708 -6.54235,1.71194c-1.87565,0.61721 -10.4141,1.3893 -14.43932,4.76135c-2.44428,2.04764 -0.4703,7.40668 -2.25499,7.50166c-1.46871,0.07818 -3.40054,-9.11353 -3.50037,-9.43352c-0.42085,-1.3491 14.7187,-6.41459 18.67067,-7.71504c2.53983,-0.83576 6.68872,-2.66915 9.31165,-0.26376c1.45833,1.33737 2.31979,7.12771 2.47017,7.60977c0.2154,0.6905 -1.51647,-3.20435 -3.71547,-4.17241z" fill="#141414" stroke="none" stroke-width="0"/><path d="M313.60851,172.21666l2.96331,9.49964l-28.10564,9.24852l-2.96331,-9.49965z" fill="none" stroke="#000000" stroke-width="3.5"/><path d="M313.60851,172.21666l2.96331,9.49964l-28.10564,9.24852l-2.96331,-9.49965z" fill="none" stroke="#000000" stroke-width="3.5"/></g></g><g data-paper-data="{&quot;index&quot;:null}" stroke-linecap="butt"><g><g><path d="M282.46814,149.53885l-26.18844,-39.27278l13.95288,-11.14989l26.18844,39.27279z" fill="#252525" stroke="#000000" stroke-width="0"/><path d="M282.46814,149.53885l-26.18844,-39.27278l13.95288,-11.14989l26.18844,39.27279z" fill="#252525" stroke="#000000" stroke-width="0"/><path d="M272.02935,102.01831c1.32894,1.99292 16.93974,24.42542 21.0144,31.6134c7.32862,12.92822 0.4945,6.41464 -0.7664,7.42224c-1.40623,1.12372 -5.62265,5.63971 -8.32682,7.21473c-1.06865,0.62241 -0.49936,2.51421 -1.55283,0.93442c-0.88212,-1.32285 -25.87324,-37.83195 -26.21388,-39.88808c-0.41392,-2.49844 14.47233,20.13816 18.96892,23.69052c7.40492,5.85001 6.26334,-4.94811 7.1945,-5.69221c0.95778,-0.76537 5.30309,2.50152 2.08367,-4.19904c-3.37532,-7.02503 -14.30513,-23.95058 -12.40158,-21.09598z" fill="#141414" stroke="none" stroke-width="0"/><path d="M282.46814,149.53885l-26.18844,-39.27278l13.95288,-11.14989l26.18844,39.27279z" fill="none" stroke="#000000" stroke-width="3.5"/><path d="M282.46814,149.53885l-26.18844,-39.27278l13.95288,-11.14989l26.18844,39.27279z" fill="none" stroke="#000000" stroke-width="3.5"/></g><g><path d="M267.38898,134.48601l-5.30236,-7.95153l20.385,-16.28987l5.30236,7.95155z" fill="#252525" stroke="#000000" stroke-width="0"/><path d="M267.38898,134.48601l-5.30236,-7.95153l20.385,-16.28987l5.30236,7.95155z" fill="#252525" stroke="#000000" stroke-width="0"/><path d="M282.72171,110.92307c0.26907,0.40352 3.96511,4.5176 4.20016,6.44437c0.42277,3.46547 -2.91946,5.5915 -4.76158,7.06359c-2.86636,2.29053 -13.90655,11.01555 -14.65957,9.8863c-0.17861,-0.26784 -5.76856,-7.23626 -4.99151,-8.32863c0.94422,-1.32736 3.78694,3.3927 6.44426,2.716c4.37606,-1.11444 9.11947,-7.27592 10.47989,-8.36305c1.3993,-1.1182 4.0581,-1.87837 4.4315,-4.05431c0.39149,-2.2813 -1.52856,-5.94227 -1.14315,-5.36429z" fill="#141414" stroke="none" stroke-width="0"/><path d="M267.38898,134.48601l-5.30236,-7.95153l20.385,-16.28987l5.30236,7.95155z" fill="none" stroke="#000000" stroke-width="3.5"/><path d="M267.38898,134.48601l-5.30236,-7.95153l20.385,-16.28987l5.30236,7.95155z" fill="none" stroke="#000000" stroke-width="3.5"/></g><g><path d="M274.36258,148.24116l-5.30237,-7.95155l23.03097,-18.40428l5.30237,7.95155z" fill="#252525" stroke="#000000" stroke-width="0"/><path d="M274.36258,148.24116l-5.30237,-7.95155l23.03097,-18.40428l5.30237,7.95155z" fill="#252525" stroke="#000000" stroke-width="0"/><path d="M292.32415,122.57748c0.26907,0.40352 4.04578,4.45316 4.19194,6.45096c0.26289,3.59324 -3.4824,6.04137 -5.56365,7.70452c-3.23842,2.58786 -15.70611,12.4536 -16.45915,11.32436c-0.17861,-0.26784 -5.84843,-7.17244 -4.94389,-8.36668c1.09912,-1.45115 3.91606,3.28958 6.83661,2.4025c4.80955,-1.46084 10.3025,-8.22131 11.83951,-9.44955c1.58093,-1.26333 4.5078,-2.23774 5.0357,-4.53713c0.55346,-2.41075 -1.32246,-6.10695 -0.93705,-5.52898z" fill="#141414" stroke="none" stroke-width="0"/><path d="M274.36258,148.24116l-5.30237,-7.95155l23.03097,-18.40428l5.30237,7.95155z" fill="none" stroke="#000000" stroke-width="3.5"/><path d="M274.36258,148.24116l-5.30237,-7.95155l23.03097,-18.40428l5.30237,7.95155z" fill="none" stroke="#000000" stroke-width="3.5"/></g></g><g><path d="M255.08674,120.78687l-6.08993,-9.1326l23.78696,-19.0084l6.08993,9.1326z" fill="#252525" stroke="#000000" stroke-width="0"/><path d="M255.08674,120.78687l-6.08993,-9.1326l23.78696,-19.0084l6.08993,9.1326z" fill="#252525" stroke="#000000" stroke-width="0"/><path d="M273.06861,93.42705c0.30903,0.46344 4.56546,5.17952 4.82287,7.40251c0.46294,3.99827 -3.43267,6.48564 -5.58225,8.20338c-3.34472,2.67279 -16.22658,12.85505 -17.09146,11.55807c-0.20513,-0.30763 -6.63669,-8.30206 -5.72617,-9.57108c1.10637,-1.54202 4.36769,3.88208 7.45693,3.07509c5.08735,-1.32895 10.64127,-8.4903 12.22872,-9.75885c1.63284,-1.30481 4.72445,-2.20818 5.17517,-4.72477c0.47254,-2.63846 -1.72645,-6.84817 -1.28382,-6.18435z" fill="#141414" stroke="none" stroke-width="0"/><path d="M255.08674,120.78687l-6.08993,-9.1326l23.78696,-19.0084l6.08993,9.1326z" fill="none" stroke="#000000" stroke-width="3.5"/><path d="M255.08674,120.78687l-6.08993,-9.1326l23.78696,-19.0084l6.08993,9.1326z" fill="none" stroke="#000000" stroke-width="3.5"/></g></g><g data-paper-data="{&quot;index&quot;:null}"><g stroke-linecap="butt"><path d="M290.52119,228.69359l2.42672,-23.59219l10.03415,-0.36971l-2.42673,23.59218z" fill="#252525" stroke="#000000" stroke-width="0"/><path d="M290.52119,228.69359l2.42672,-23.59219l10.03415,-0.36971l-2.42673,23.59218z" fill="#252525" stroke="#000000" stroke-width="0"/><path d="M290.52119,228.69359l2.42672,-23.59219l10.03415,-0.36971l-2.42673,23.59218z" fill="none" stroke="#000000" stroke-width="3.5"/><path d="M302.74222,206.4341c-0.12315,1.19722 -1.22439,14.8659 -1.9825,18.97131c-1.36353,7.38392 -1.26817,2.54051 -2.17496,2.57392c-1.41091,0.05201 -8.32041,3.90844 -7.97578,0.55797c0.08174,-0.79467 2.05562,-22.91765 2.6329,-23.84793c0.70148,-1.13041 -0.78842,12.4063 -0.07824,15.16983c0.56097,2.18298 3.68648,2.1694 5.43179,-0.57223c1.89328,-2.97408 2.40515,-8.79599 2.7536,-8.80882c0.68877,-0.02539 -1.59794,11.79166 -0.63828,8.13593c1.00613,-3.83277 2.20786,-13.89481 2.03146,-12.17998z" fill="#141414" stroke="none" stroke-width="0"/><path d="M290.52119,228.69359l2.42672,-23.59219l10.03415,-0.36971l-2.42673,23.59218z" fill="none" stroke="#000000" stroke-width="3.5"/></g><path d="M292.6744,216.51273l8.25305,0.07147" fill="none" stroke="#000000" stroke-width="3.5" stroke-linecap="round"/></g><g stroke-linecap="butt"><path d="M303.33865,215.88186l-10.66408,-22.94313l25.70592,-11.94823l10.66408,22.94313z" fill="#252525" stroke="#000000" stroke-width="0"/><path d="M301.29023,213.65754c-1.55719,-3.35022 -12.00806,-19.03181 -4.84322,-22.36205c1.82362,-0.84761 4.44152,17.7688 7.58149,18.02794c2.90722,0.23992 10.37181,-1.04425 14.96884,-6.4518c0.79797,-0.93867 1.99935,-4.30858 1.18464,-9.04586c-0.78923,-4.58918 -3.58853,-10.54157 -3.27187,-11.92891c0.3745,-1.64073 5.71344,9.61084 6.23975,9.1264c0.85464,-0.7866 1.23867,1.79757 1.46145,2.12908c0.65485,0.97448 -0.66499,2.84422 -0.12112,3.47035c0.20092,0.23133 2.84927,4.8825 2.97796,5.15935c1.5572,3.35023 -5.59417,6.6172 -12.75901,9.94743c-7.16483,3.33024 -11.86173,5.27827 -13.41893,1.92804z" fill="#141414" stroke="none" stroke-width="0"/><path d="M303.17229,215.82107l-10.66408,-22.94313l25.70591,-11.94822l10.66408,22.94313z" fill="none" stroke="#000000" stroke-width="3.5"/></g><g><g stroke-linecap="butt"><path d="M307.65479,235.08744l-6.15752,-22.9034l9.9647,-1.23499l6.15751,22.9034z" fill="#252525" stroke="#000000" stroke-width="0"/><path d="M307.65479,235.08744l-6.15752,-22.9034l9.9647,-1.23499l6.15751,22.9034z" fill="#252525" stroke="#000000" stroke-width="0"/><path d="M307.65479,235.08744l-6.15752,-22.9034l9.9647,-1.23499l6.15751,22.9034z" fill="none" stroke="#000000" stroke-width="3.5"/><path d="M305.95309,225.52665c1.53031,3.45596 -2.61144,-7.84529 -1.92741,-7.93004c0.34602,-0.04288 1.77967,5.62291 4.12295,8.25705c2.16014,2.42825 5.24783,1.94327 5.45354,-0.30121c0.26044,-2.84142 -3.36887,-15.96734 -2.4961,-14.96325c0.71825,0.82634 6.19443,22.35152 6.40184,23.12298c0.87447,3.25266 -6.56154,0.5473 -7.9627,0.72093c-0.90049,0.11159 -0.03408,4.87785 -2.55755,-2.19419c-1.40303,-3.93201 -4.66969,-17.2502 -4.98216,-18.41246c-0.44757,-1.66476 2.34319,8.07691 3.94761,11.7002z" fill="#141414" stroke="none" stroke-width="0"/><path d="M307.65479,235.08744l-6.15752,-22.9034l9.9647,-1.23499l6.15751,22.9034z" fill="none" stroke="#000000" stroke-width="3.5"/></g><path d="M313.55156,222.17079l-8.13606,1.38651" fill="none" stroke="#000000" stroke-width="3.5" stroke-linecap="round"/></g><g><g stroke-linecap="butt"><path d="M322.56491,231.58591l-10.8649,-21.08161l9.47768,-3.31577l10.8649,21.08161z" fill="#252525" stroke="#000000" stroke-width="0"/><path d="M322.56491,231.58591l-10.8649,-21.08161l9.47768,-3.31577l10.8649,21.08161z" fill="#252525" stroke="#000000" stroke-width="0"/><path d="M322.56491,231.58591l-10.8649,-21.08161l9.47768,-3.31577l10.8649,21.08161z" fill="none" stroke="#000000" stroke-width="3.5"/><path d="M318.87849,222.60177c2.22699,3.05383 -4.21253,-7.11497 -3.56194,-7.34256c0.32911,-0.11515 2.92931,5.11895 5.77694,7.19753c2.62507,1.91613 5.54021,0.78872 5.26628,-1.44846c-0.34677,-2.83219 -6.6716,-14.89278 -5.60611,-14.09614c0.87685,0.65562 10.7842,20.53441 11.15016,21.24453c1.543,2.99393 -6.29711,1.92346 -7.62979,2.38969c-0.85649,0.29962 0.99896,4.77458 -2.96396,-1.60326c-2.20335,-3.54603 -8.21444,-15.87132 -8.7658,-16.94112c-0.78973,-1.53234 3.99938,7.39811 6.3342,10.59983z" fill="#141414" stroke="none" stroke-width="0"/><path d="M322.56491,231.58591l-10.8649,-21.08161l9.47768,-3.31577l10.8649,21.08161z" fill="none" stroke="#000000" stroke-width="3.5"/></g><path d="M317.93631,220.79079l7.65837,-3.07688" fill="none" stroke="#000000" stroke-width="3.5" stroke-linecap="round"/></g><g data-paper-data="{&quot;index&quot;:null}"><g stroke-linecap="butt"><path d="M336.30875,225.15757l-13.45319,-19.53182l7.39805,-6.78892l13.4532,19.53182z" fill="#252525" stroke="#000000" stroke-width="0"/><path d="M336.30875,225.15757l-13.45319,-19.53182l7.39805,-6.78892l13.4532,19.53182z" fill="#252525" stroke="#000000" stroke-width="0"/><path d="M336.30875,225.15757l-13.45319,-19.53182l7.39805,-6.78892l13.4532,19.53182z" fill="none" stroke="#000000" stroke-width="3.5"/><path d="M331.17513,200.28822c0.6827,0.99116 8.70908,12.10973 10.79454,15.72636c3.75085,6.50482 0.68229,2.75625 0.01374,3.36977c-1.04024,0.9546 -3.79859,8.37114 -5.70916,5.59729c-0.45316,-0.6579 -13.29822,-18.77767 -13.46212,-19.86019c-0.19914,-1.31538 7.4458,9.95478 9.77862,11.59776c1.84274,1.29783 4.21304,-0.73951 3.76349,-3.95828c-0.48766,-3.49168 -3.87375,-8.25519 -3.61686,-8.49094c0.50783,-0.46603 6.43099,10.01195 4.79059,6.60688c-1.71983,-3.56995 -7.3307,-12.00836 -6.35283,-10.58867z" fill="#141414" stroke="none" stroke-width="0"/><path d="M336.30875,225.15757l-13.45319,-19.53182l7.39805,-6.78892l13.4532,19.53182z" fill="none" stroke="#000000" stroke-width="3.5"/></g><path d="M330.04802,214.48925l6.32843,-5.29801" fill="none" stroke="#000000" stroke-width="3.5" stroke-linecap="round"/></g></g><g><g><g data-paper-data="{&quot;index&quot;:null}" stroke-linecap="butt"><g><g><path d="M250.79189,308.95002l-6.40718,-46.76681l17.42142,-3.93666l6.40718,46.76682z" fill="#252525" stroke="#000000" stroke-width="0"/><path d="M250.79189,308.95002l-6.40718,-46.76681l17.42142,-3.93666l6.40718,46.76682z" fill="#252525" stroke="#000000" stroke-width="0"/><path d="M262.15503,261.64198c0.32513,2.3732 4.57146,29.37104 5.09776,37.61682c0.94659,14.83076 -2.35665,5.98651 -3.93098,6.34226c-1.75579,0.39675 -7.52114,2.61784 -10.64164,2.85371c-1.23318,0.09321 -1.54726,2.04368 -1.805,0.16242c-0.21582,-1.57527 -6.75288,-45.33298 -6.16134,-47.33143c0.7188,-2.42835 4.22419,24.43665 6.71783,29.59614c4.10652,8.49659 7.79545,-1.71587 8.95809,-1.97859c1.19588,-0.27023 3.67811,4.56638 3.7083,-2.86741c0.03166,-7.79377 -2.40876,-27.79325 -1.94304,-24.39393z" fill="#141414" stroke="none" stroke-width="0"/><path d="M250.79189,308.95002l-6.40718,-46.76681l17.42142,-3.93666l6.40718,46.76682z" fill="none" stroke="#000000" stroke-width="3.5"/><path d="M250.79189,308.95002l-6.40718,-46.76681l17.42142,-3.93666l6.40718,46.76682z" fill="none" stroke="#000000" stroke-width="3.5"/></g><g><path d="M243.80089,288.82304l-1.29726,-9.46884l25.45249,-5.75142l1.29725,9.46886z" fill="#252525" stroke="#000000" stroke-width="0"/><path d="M243.80089,288.82304l-1.29726,-9.46884l25.45249,-5.75142l1.29725,9.46886z" fill="#252525" stroke="#000000" stroke-width="0"/><path d="M267.88479,274.32234c0.06583,0.48051 1.594,5.79569 0.96396,7.63165c-1.13317,3.30214 -5.06831,3.75505 -7.36838,4.27481c-3.57891,0.80871 -17.32106,3.83605 -17.5053,2.49132c-0.0437,-0.31895 -2.02903,-9.029 -0.85294,-9.67232c1.42912,-0.78172 1.92499,4.70594 4.61104,5.25772c4.42338,0.90864 11.38143,-2.56259 13.08003,-2.94642c1.74716,-0.3948 4.47097,0.08254 5.75719,-1.71184c1.3485,-1.88126 1.2201,-6.01319 1.31439,-5.32492z" fill="#141414" stroke="none" stroke-width="0"/><path d="M243.80089,288.82304l-1.29726,-9.46884l25.45249,-5.75142l1.29725,9.46886z" fill="none" stroke="#000000" stroke-width="3.5"/><path d="M243.80089,288.82304l-1.29726,-9.46884l25.45249,-5.75142l1.29725,9.46886z" fill="none" stroke="#000000" stroke-width="3.5"/></g><g><path d="M244.06695,304.24266l-1.29726,-9.46886l28.75621,-6.49795l1.29726,9.46886z" fill="#252525" stroke="#000000" stroke-width="0"/><path d="M244.06695,304.24266l-1.29726,-9.46886l28.75621,-6.49795l1.29726,9.46886z" fill="#252525" stroke="#000000" stroke-width="0"/><path d="M271.4332,289.00023c0.06583,0.48051 1.6947,5.77294 0.95368,7.63398c-1.33279,3.34725 -5.77119,3.91388 -8.36982,4.50108c-4.04346,0.91369 -19.56798,4.34377 -19.75222,2.99905c-0.0437,-0.31895 -2.12876,-9.00647 -0.79348,-9.68575c1.62253,-0.82542 2.08619,4.66953 5.10091,5.14703c4.96461,0.78632 12.85856,-2.89637 14.77764,-3.33002c1.97393,-0.44605 5.03246,-0.04434 6.51158,-1.88231c1.55074,-1.92698 1.47743,-6.07133 1.57172,-5.38306z" fill="#141414" stroke="none" stroke-width="0"/><path d="M244.06695,304.24266l-1.29726,-9.46886l28.75621,-6.49795l1.29726,9.46886z" fill="none" stroke="#000000" stroke-width="3.5"/><path d="M244.06695,304.24266l-1.29726,-9.46886l28.75621,-6.49795l1.29726,9.46886z" fill="none" stroke="#000000" stroke-width="3.5"/></g></g><g><path d="M238.71676,271.12664l-1.48994,-10.87529l29.70013,-6.71123l1.48994,10.87528z" fill="#252525" stroke="#000000" stroke-width="0"/><path d="M238.71676,271.12664l-1.48994,-10.87529l29.70013,-6.71123l1.48994,10.87528z" fill="#252525" stroke="#000000" stroke-width="0"/><path d="M266.84202,254.36724c0.0756,0.55187 1.84499,6.65333 1.10568,8.76554c-1.32972,3.79899 -5.9205,4.33526 -8.60444,4.94175c-4.17618,0.94367 -20.21151,4.47761 -20.42311,2.93314c-0.05018,-0.36633 -2.34452,-10.36692 -0.97122,-11.11086c1.66873,-0.904 2.2337,5.39979 5.3652,6.02301c5.15693,1.0263 13.2808,-2.99041 15.26286,-3.43829c2.03874,-0.46069 5.21446,0.07686 6.719,-1.99021c1.57739,-2.16716 1.43771,-6.91456 1.546,-6.12407z" fill="#141414" stroke="none" stroke-width="0"/><path d="M238.71676,271.12664l-1.48994,-10.87529l29.70013,-6.71123l1.48994,10.87528z" fill="none" stroke="#000000" stroke-width="3.5"/><path d="M238.71676,271.12664l-1.48994,-10.87529l29.70013,-6.71123l1.48994,10.87528z" fill="none" stroke="#000000" stroke-width="3.5"/></g></g><path d="M277.46305,283.09839c4.46542,34.27387 -20.47767,-26.35422 -28.8585,-25.26231c-0.56648,0.0738 5.5743,24.17544 4.82767,24.2904c-5.01668,0.77247 -12.2569,32.34543 -16.03986,22.12473c-3.98361,-10.76281 -1.86539,-35.41237 -4.00097,-51.80378c-4.46542,-34.27386 -1.29135,-62.94348 7.08948,-64.03539c4.40218,-0.57354 12.87841,-21.84542 20.8404,-0.89568c3.10084,8.159 -0.26235,29.49505 2.35412,46.19958c3.45545,22.06088 12.58126,40.12289 13.78766,49.38245z" data-paper-data="{&quot;index&quot;:null}" fill="#001354" stroke="#000000" stroke-width="0" stroke-linecap="butt"/><path d="M231.94936,214.91902c0,-9.23876 5.60275,57.34104 10.17836,71.44888c2.23412,6.88837 3.17964,-34.21896 5.12474,-34.21896c0.6284,0 15.55547,10.54256 21.58519,19.71732c4.2489,6.46508 0.17017,9.29278 0.61352,4.81885c0.32321,-3.26161 -5.2971,-53.35167 -16.63214,-69.66048c-6.85355,-9.86086 -21.30265,12.62484 -22.10097,8.30123c-4.33415,-23.47334 24.38223,-17.22216 26.90715,-14.89909c3.33959,3.07261 4.82081,23.81254 8.56123,40.35083c5.01233,22.16205 11.90061,41.50452 11.90061,45.86041c0,1.69962 -0.75879,7.93337 -3.40691,4.35565c-6.77912,-9.15889 -21.72645,-35.93136 -25.97373,-34.32491c-3.23957,1.22531 3.30158,10.87765 2.50048,20.75787c-0.02062,0.25425 1.08579,1.63871 1.05691,1.89115c-0.50349,4.40177 -4.17826,7.71779 -5.88639,11.22737c-3.21859,6.613 -5.22401,11.85277 -6.4339,11.85277c-5.92878,0 -7.99416,-73.72916 -7.99416,-87.47889z" fill="#000c33" stroke="none" stroke-width="0" stroke-linecap="butt"/><path d="M277.48795,282.66647c4.46542,34.27387 -20.47767,-26.35422 -28.8585,-25.26231c-0.56648,0.0738 5.57429,24.17544 4.82766,24.2904c-5.01668,0.77247 -12.25689,32.34543 -16.03985,22.12473c-3.98361,-10.76281 -1.86539,-35.41237 -4.00097,-51.80378c-4.46542,-34.27386 -1.29135,-62.94348 7.08948,-64.03539c4.40218,-0.57354 12.87841,-21.84541 20.8404,-0.89567c3.10084,8.159 -0.26235,29.49505 2.35412,46.19958c3.45545,22.06088 12.58127,40.12288 13.78766,49.38245z" data-paper-data="{&quot;index&quot;:null}" fill="none" stroke="#000000" stroke-width="3.5" stroke-linecap="butt"/><path d="M264.2321,235.93257l-32,16" fill="none" stroke="#000000" stroke-width="3.5" stroke-linecap="round"/></g><g stroke-linecap="butt"><path d="M235.89241,313.2553c0,-9.57293 15.00343,-17.33333 33.51109,-17.33333c8.76699,0 17.82869,-4.592 23.80081,-1.74153c6.63539,3.16703 9.71028,14.03659 9.71028,19.07486c0,4.01638 9.93836,10.2443 0.86668,12.63837c-12.55042,3.31213 -46.33616,2.02829 -57.07883,2.02829c-18.50766,0 -10.81003,-5.09374 -10.81003,-14.66667z" fill="#51341e" stroke="#000000" stroke-width="0"/><path d="M294.83513,320.77765c12.51038,-5.73047 -12.16793,-26.98902 -3.45124,-26.98902c10.26399,0 9.47393,10.2209 11.0047,17.89293c1.0217,5.12064 5.71481,7.88586 5.71481,10.20707c0,5.79899 -26.62997,7.7 -43.74458,7.7c-10.71308,0 -21.02126,-0.44198 -26.58682,-3.24224c-3.32567,-1.67327 -4.40193,-5.08871 -4.40193,-7.25776c0,-2.84549 49.41218,7.20993 61.46506,1.68902z" fill="#2f1c0d" stroke="none" stroke-width="0"/><path d="M269.76384,295.92196c8.767,0 17.8287,-4.592 23.80082,-1.74153c6.63538,3.16704 9.71027,14.03658 9.71027,19.07486c0,4.01639 9.93836,10.24431 0.86668,12.63838c-12.55042,3.31213 -46.33617,2.02829 -57.07883,2.02829c-18.50766,0 -10.81003,-5.09373 -10.81003,-14.66667c0,-9.57293 15.00343,-17.33333 33.51109,-17.33333z" fill="none" stroke="#000000" stroke-width="3.5"/></g></g><g stroke-linecap="butt"><g data-paper-data="{&quot;index&quot;:null}"><g><g><path d="M214.41521,256.70519l6.64634,-59.2575l17.40105,5.10458l-6.64634,59.25749z" fill="#252525" stroke="#000000" stroke-width="0"/><path d="M214.41521,256.70519l6.64634,-59.2575l17.40105,5.10458l-6.64634,59.25749z" fill="#252525" stroke="#000000" stroke-width="0"/><path d="M220.69529,201.75072c0.4831,-4.30722 -2.05959,21.03575 -2.06781,30.91824c-0.00784,9.42605 2.49911,3.30945 3.69359,3.65986c1.16129,0.34065 4.79792,13.31372 8.94785,2.5669c2.52,-6.52592 6.16278,-40.56727 6.86914,-37.48353c0.58132,2.53782 -6.17951,57.97901 -6.40338,59.97501c-0.26736,2.38371 -0.57145,-0.09147 -1.80414,-0.21765c-3.11925,-0.31931 -8.87316,-3.173 -10.6269,-3.68745c-1.57249,-0.46129 -4.92092,10.73155 -3.89848,-8.06732c0.56846,-10.45201 4.95285,-44.657 5.29012,-47.66405z" fill="#141414" stroke="none" stroke-width="0"/><path d="M214.41521,256.70519l6.64634,-59.2575l17.40105,5.10458l-6.64634,59.25749z" fill="none" stroke="#000000" stroke-width="3.5"/><path d="M214.41521,256.70519l6.64634,-59.2575l17.40105,5.10458l-6.64634,59.25749z" fill="none" stroke="#000000" stroke-width="3.5"/></g><g><path d="M213.48741,228.87692l1.34567,-11.99784l25.42273,7.45775l-1.34568,11.99782z" fill="#252525" stroke="#000000" stroke-width="0"/><path d="M213.48741,228.87692l1.34567,-11.99784l25.42273,7.45775l-1.34568,11.99782z" fill="#252525" stroke="#000000" stroke-width="0"/><path d="M214.90072,217.79193c0.09781,-0.8721 -0.05172,4.36624 1.28714,6.76038c1.27703,2.28356 4.00325,1.69598 5.74836,2.20791c1.69662,0.4977 8.63682,4.94425 13.06478,3.82081c2.68884,-0.68222 3.21277,-7.63719 4.63788,-6.63673c1.17279,0.82335 -0.85708,11.85457 -0.9024,12.25871c-0.19111,1.70388 -13.9176,-2.22384 -17.49232,-3.27248c-2.29739,-0.67396 -6.23015,-1.27376 -7.34642,-5.46813c-0.62064,-2.33204 0.9347,-9.06164 1.00299,-9.67049z" fill="#141414" stroke="none" stroke-width="0"/><path d="M213.48741,228.87692l1.34567,-11.99784l25.42273,7.45775l-1.34568,11.99782z" fill="none" stroke="#000000" stroke-width="3.5"/><path d="M213.48741,228.87692l1.34567,-11.99784l25.42273,7.45775l-1.34568,11.99782z" fill="none" stroke="#000000" stroke-width="3.5"/></g><g><path d="M209.84259,247.45882l1.34568,-11.99785l28.7226,8.42575l-1.34568,11.99785z" fill="#252525" stroke="#000000" stroke-width="0"/><path d="M209.84259,247.45882l1.34568,-11.99785l28.7226,8.42575l-1.34568,11.99785z" fill="#252525" stroke="#000000" stroke-width="0"/><path d="M211.27727,236.38007c0.09781,-0.87208 0.0033,4.38236 1.54416,6.83577c1.4697,2.34008 4.53024,1.85057 6.50187,2.42895c1.91684,0.56231 9.79184,5.28308 14.76041,4.31824c3.01713,-0.58589 3.50889,-7.55035 5.12717,-6.49321c1.33179,0.86998 -0.79769,11.872 -0.84302,12.27613c-0.19111,1.70388 -15.69788,-2.74607 -19.73662,-3.93084c-2.5956,-0.76142 -7.03103,-1.50868 -8.34669,-5.76155c-0.7315,-2.36455 0.92444,-9.06465 0.99272,-9.67349z" fill="#141414" stroke="none" stroke-width="0"/><path d="M209.84259,247.45882l1.34568,-11.99785l28.7226,8.42575l-1.34568,11.99785z" fill="none" stroke="#000000" stroke-width="3.5"/><path d="M209.84259,247.45882l1.34568,-11.99785l28.7226,8.42575l-1.34568,11.99785z" fill="none" stroke="#000000" stroke-width="3.5"/></g></g><g><path d="M214.41931,205.22673l1.54555,-13.7799l29.66542,8.70231l-1.54555,13.7799z" fill="#252525" stroke="#000000" stroke-width="0"/><path d="M214.41931,205.22673l1.54555,-13.7799l29.66542,8.70231l-1.54555,13.7799z" fill="#252525" stroke="#000000" stroke-width="0"/><path d="M216.04557,192.49616c0.11233,-1.00161 -0.05163,5.01705 1.51465,7.77518c1.49395,2.63075 4.67238,1.96975 6.70873,2.56711c1.97974,0.58076 10.08296,5.72654 15.24507,4.45866c3.13464,-0.76991 3.73186,-8.75929 5.39594,-7.60221c1.36948,0.95222 -0.97599,13.61781 -1.02804,14.08198c-0.2195,1.95698 -16.23655,-2.62798 -20.40784,-3.85161c-2.6808,-0.78642 -7.26878,-1.49617 -8.57904,-6.32181c-0.72849,-2.68301 1.07208,-10.40803 1.15051,-11.1073z" fill="#141414" stroke="none" stroke-width="0"/><path d="M214.41931,205.22673l1.54555,-13.7799l29.66542,8.70231l-1.54555,13.7799z" fill="none" stroke="#000000" stroke-width="3.5"/><path d="M214.41931,205.22673l1.54555,-13.7799l29.66542,8.70231l-1.54555,13.7799z" fill="none" stroke="#000000" stroke-width="3.5"/></g></g><g data-paper-data="{&quot;index&quot;:null}"><g><g><path d="M232.23659,256.95731l-1.12857,47.70256l-17.34053,-0.81077l1.12858,-47.70258z" fill="#252525" stroke="#000000" stroke-width="0"/><path d="M232.23659,256.95731l-1.12857,47.70256l-17.34053,-0.81077l1.12858,-47.70258z" fill="#252525" stroke="#000000" stroke-width="0"/><path d="M213.96109,300.41697c0.05727,-2.42069 0.18303,-30.10585 0.9614,-38.35449c1.39995,-14.8359 3.19479,-5.25266 4.7618,-5.1794c1.74763,0.08171 7.62918,-0.55288 10.66214,0.05374c1.1986,0.23974 1.8038,-1.59357 1.75839,0.32533c-0.03801,1.60679 -0.57341,46.38573 -1.45252,48.19163c-1.06822,2.19439 -0.2517,-25.16107 -1.84282,-30.90392c-2.62025,-9.45727 -7.75215,-0.40766 -8.90938,-0.46178c-1.19032,-0.05565 -2.82076,-5.47798 -4.00703,1.82278c-1.24373,7.65429 -2.01399,27.97344 -1.93196,24.5061z" fill="#141414" stroke="none" stroke-width="0"/><path d="M232.23659,256.95731l-1.12857,47.70256l-17.34053,-0.81077l1.12858,-47.70258z" fill="none" stroke="#000000" stroke-width="3.5"/><path d="M232.23659,256.95731l-1.12857,47.70256l-17.34053,-0.81077l1.12858,-47.70258z" fill="none" stroke="#000000" stroke-width="3.5"/></g><g><path d="M235.81586,278.62458l-0.2285,9.65831l-25.33431,-1.18451l0.22851,-9.65831z" fill="#252525" stroke="#000000" stroke-width="0"/><path d="M235.81586,278.62458l-0.2285,9.65831l-25.33431,-1.18451l0.22851,-9.65831z" fill="#252525" stroke="#000000" stroke-width="0"/><path d="M210.43355,286.4101c0.01159,-0.49013 -0.62823,-6.12662 0.26252,-7.76244c1.60212,-2.94215 5.45106,-2.33005 7.74046,-2.22303c3.56229,0.16656 17.2285,0.88271 17.19606,2.25435c-0.0077,0.32533 0.54261,9.42249 -0.68681,9.73897c-1.49391,0.38456 -1.11572,-5.14411 -3.60891,-6.40839c-4.10578,-2.08197 -11.32714,-0.53877 -13.01785,-0.61781c-1.73904,-0.08131 -4.28009,-1.28254 -5.79444,0.13606c-1.58768,1.4873 -2.10765,5.58428 -2.09104,4.88225z" fill="#141414" stroke="none" stroke-width="0"/><path d="M235.81586,278.62458l-0.2285,9.65831l-25.33431,-1.18451l0.22851,-9.65831z" fill="none" stroke="#000000" stroke-width="3.5"/><path d="M235.81586,278.62458l-0.2285,9.65831l-25.33431,-1.18451l0.22851,-9.65831z" fill="none" stroke="#000000" stroke-width="3.5"/></g><g><path d="M237.9609,263.39259l-0.2285,9.65833l-28.62269,-1.33827l0.2285,-9.65831z" fill="#252525" stroke="#000000" stroke-width="0"/><path d="M237.9609,263.39259l-0.2285,9.65833l-28.62269,-1.33827l0.2285,-9.65831z" fill="#252525" stroke="#000000" stroke-width="0"/><path d="M211.65867,266.15507c-1.78897,1.4779 -2.36378,5.5723 -2.34717,4.87027c0.01159,-0.49012 -0.72849,-6.1313 0.27275,-7.76195c1.80081,-2.93288 6.15069,-2.29735 8.73725,-2.17642c4.02469,0.18817 19.465,0.98729 19.43255,2.35893c-0.0077,0.32533 0.64186,9.42714 -0.74599,9.73621c-1.68642,0.37557 -1.27616,-5.15164 -4.0965,-6.43119c-4.64451,-2.10714 -12.79742,-0.60748 -14.70759,-0.69679c-1.96477,-0.09186 -4.83896,-1.30867 -6.54531,0.10095z" fill="#141414" stroke="none" stroke-width="0"/><path d="M237.9609,263.39259l-0.2285,9.65833l-28.62269,-1.33827l0.2285,-9.65831z" fill="none" stroke="#000000" stroke-width="3.5"/><path d="M237.9609,263.39259l-0.2285,9.65833l-28.62269,-1.33827l0.2285,-9.65831z" fill="none" stroke="#000000" stroke-width="3.5"/></g></g><g><path d="M237.94257,297.38975l-0.26244,11.09289l-29.56224,-1.3822l0.26244,-11.09288z" fill="#252525" stroke="#000000" stroke-width="0"/><path d="M237.94257,297.38975l-0.26244,11.09289l-29.56224,-1.3822l0.26244,-11.09288z" fill="#252525" stroke="#000000" stroke-width="0"/><path d="M208.3282,306.31003c0.01333,-0.5629 -0.73573,-7.03727 0.30296,-8.91533c1.86818,-3.37784 6.35965,-2.67153 9.03111,-2.54663c4.15678,0.19435 20.10374,1.02862 20.06646,2.60399c-0.00884,0.37365 0.63726,10.82269 -0.79718,11.18513c-1.74302,0.44042 -1.30413,-5.90927 -4.2139,-7.36346c-4.79179,-2.39477 -13.21749,-0.6285 -15.19035,-0.72074c-2.02926,-0.09489 -4.99483,-1.47674 -6.76126,0.15131c-1.85197,1.70689 -2.45691,6.41203 -2.43784,5.60573z" fill="#141414" stroke="none" stroke-width="0"/><path d="M237.94257,297.38975l-0.26244,11.09289l-29.56224,-1.3822l0.26244,-11.09288z" fill="none" stroke="#000000" stroke-width="3.5"/><path d="M237.94257,297.38975l-0.26244,11.09289l-29.56224,-1.3822l0.26244,-11.09288z" fill="none" stroke="#000000" stroke-width="3.5"/></g></g><g><g><path d="M190.50126,317.9077l0.2211,-21.45005l45.94583,1.27936l-0.2211,21.45006z" fill="#252525" stroke="#000000" stroke-width="0"/><path d="M190.50126,317.9077l0.2211,-21.45005l45.94583,1.27936l-0.2211,21.45006z" fill="#252525" stroke="#000000" stroke-width="0"/><path d="M190.50126,317.9077l0.2211,-21.45005l45.94583,1.27936l-0.2211,21.45006z" fill="none" stroke="#000000" stroke-width="3.5"/><path d="M191.00391,298.01159c0.01608,-1.55913 0.68817,7.60503 3.46494,11.14751c2.64851,3.37886 7.32805,1.10718 10.48194,1.19501c3.06625,0.08539 16.03916,4.62037 23.60954,0.63711c4.59705,-2.41879 4.27572,-14.73556 6.95517,-13.65257c2.20509,0.89125 0.61081,20.97702 0.60336,21.69953c-0.0314,3.04625 -24.82128,0.4406 -31.28179,0.2607c-4.15201,-0.11562 -11.16078,2.73485 -13.86805,-4.03562c-1.50523,-3.76432 0.02366,-16.16317 0.03488,-17.25167z" fill="#141414" stroke="none" stroke-width="0"/><path d="M190.50126,317.9077l0.2211,-21.45005l45.94583,1.27936l-0.2211,21.45006z" fill="none" stroke="#000000" stroke-width="3.5"/></g><g><path d="M177.18627,323.4722l0.10835,-21.45005l22.51631,1.27936l-0.10835,21.45007z" fill="#252525" stroke="#000000" stroke-width="0"/><path d="M177.18627,323.4722l0.10835,-21.45005l22.51631,1.27936l-0.10835,21.45007z" fill="#6c6c6c" stroke="#000000" stroke-width="0"/><path d="M177.18627,323.4722l0.10835,-21.45005l22.51631,1.27936l-0.10835,21.45007z" fill="none" stroke="#000000" stroke-width="3.5"/><path d="M179.13063,314.72361c1.29793,3.37886 3.5912,1.10718 5.1368,1.195c1.50266,0.08539 7.86018,4.62037 11.57014,0.63711c2.25284,-2.41878 2.09537,-14.73555 3.40847,-13.65257c1.08063,0.89125 0.29934,20.97702 0.29569,21.69953c-0.0154,3.04625 -12.16397,0.44061 -15.33002,0.26071c-2.03475,-0.11562 -5.46948,2.73484 -6.79621,-4.03563c-0.73766,-3.76433 0.01161,-16.16317 0.0171,-17.25167c0.00788,-1.55912 0.33725,7.60503 1.69804,11.14751z" fill="#545454" stroke="none" stroke-width="0"/><path d="M177.18627,323.4722l0.10835,-21.45005l22.51631,1.27936l-0.10835,21.45007z" fill="none" stroke="#000000" stroke-width="3.5"/></g><g><path d="M211.03695,325.44296l0.10835,-21.45005l22.51631,1.27936l-0.10836,21.45007z" fill="#252525" stroke="#000000" stroke-width="0"/><path d="M211.03695,325.44296l0.10835,-21.45005l22.51631,1.27936l-0.10836,21.45007z" fill="#6c6c6c" stroke="#000000" stroke-width="0"/><path d="M211.03695,325.44296l0.10835,-21.45005l22.51631,1.27936l-0.10836,21.45007z" fill="none" stroke="#000000" stroke-width="3.5"/><path d="M211.28328,305.54687c0.00787,-1.55912 0.33724,7.60503 1.69803,11.14751c1.29794,3.37886 3.59121,1.10719 5.13681,1.19501c1.50265,0.08539 7.86017,4.62036 11.57013,0.63711c2.25284,-2.41878 2.09537,-14.73555 3.40847,-13.65257c1.08063,0.89124 0.29934,20.97702 0.29569,21.69953c-0.01539,3.04625 -12.16396,0.4406 -15.33001,0.2607c-2.03475,-0.11562 -5.46949,2.73484 -6.79622,-4.03563c-0.73765,-3.76433 0.01161,-16.16317 0.0171,-17.25167z" fill="#545454" stroke="none" stroke-width="0"/><path d="M211.03695,325.44296l0.10835,-21.45005l22.51631,1.27936l-0.10836,21.45007z" fill="none" stroke="#000000" stroke-width="3.5"/></g><g><path d="M192.48863,325.32703l0.10835,-21.45005l22.51631,1.27936l-0.10835,21.45007z" fill="#252525" stroke="#000000" stroke-width="0"/><path d="M192.48863,325.32703l0.10835,-21.45005l22.51631,1.27936l-0.10835,21.45007z" fill="#6c6c6c" stroke="#000000" stroke-width="0"/><path d="M192.48863,325.32703l0.10835,-21.45005l22.51631,1.27936l-0.10835,21.45007z" fill="none" stroke="#000000" stroke-width="3.5"/><path d="M192.73496,305.43094c0.00787,-1.55912 0.33724,7.60504 1.69803,11.14751c1.29793,3.37886 3.5912,1.10718 5.1368,1.195c1.50265,0.08539 7.86017,4.62037 11.57013,0.63711c2.25284,-2.41878 2.09537,-14.73556 3.40847,-13.65257c1.08062,0.89124 0.29934,20.97702 0.29569,21.69953c-0.01539,3.04625 -12.16396,0.4406 -15.33001,0.2607c-2.03474,-0.11562 -5.46948,2.73484 -6.79621,-4.03563c-0.73765,-3.76433 0.01161,-16.16317 0.0171,-17.25167z" fill="#545454" stroke="none" stroke-width="0"/><path d="M192.48863,325.32703l0.10835,-21.45005l22.51631,1.27936l-0.10835,21.45007z" fill="none" stroke="#000000" stroke-width="3.5"/></g></g></g><g><g data-paper-data="{&quot;index&quot;:null}" stroke-linecap="butt"><g><g><path d="M211.01359,157.83733l-14.94595,40.09773l-16.16669,-6.31354l14.94596,-40.09773z" fill="#252525" stroke="#000000" stroke-width="0"/><path d="M211.01359,157.83733l-14.94595,40.09773l-16.16669,-6.31354l14.94596,-40.09773z" fill="#252525" stroke="#000000" stroke-width="0"/><path d="M181.08262,188.77298c0.75843,-2.03478 8.93203,-25.47801 12.06812,-32.22242c5.64052,-12.13041 4.55017,-3.41909 6.01112,-2.84857c1.62933,0.6363 7.37737,2.00617 10.06978,3.50471c1.06402,0.59221 2.16985,-0.76653 1.56863,0.84644c-0.50343,1.35064 -14.0377,39.16081 -15.39466,40.40745c-1.64888,1.51484 7.08218,-21.42463 7.24793,-26.81221c0.27295,-8.87225 -7.21422,-2.86083 -8.29312,-3.28217c-1.10976,-0.43339 -1.07444,-5.56186 -4.3206,0.24617c-3.40336,6.08927 -10.04355,23.07516 -8.9572,20.16059z" fill="#141414" stroke="none" stroke-width="0"/><path d="M211.01359,157.83733l-14.94595,40.09773l-16.16669,-6.31354l14.94596,-40.09773z" fill="none" stroke="#000000" stroke-width="3.5"/><path d="M211.01359,157.83733l-14.94595,40.09773l-16.16669,-6.31354l14.94596,-40.09773z" fill="none" stroke="#000000" stroke-width="3.5"/></g><g><path d="M208.09545,177.37788l-3.02609,8.11856l-23.61934,-9.22399l3.02609,-8.11855z" fill="#252525" stroke="#000000" stroke-width="0"/><path d="M208.09545,177.37788l-3.02609,8.11856l-23.61934,-9.22399l3.02609,-8.11855z" fill="#252525" stroke="#000000" stroke-width="0"/><path d="M181.821,175.74716c0.15356,-0.412 1.18821,-5.40073 2.50671,-6.49933c2.37144,-1.97591 5.83412,-0.20797 7.96854,0.62556c3.32116,1.29701 16.03978,6.33823 15.61003,7.4912c-0.10193,0.27347 -2.22809,8.1687 -3.48309,8.0383c-1.52498,-0.15847 0.44123,-4.72549 -1.54927,-6.60678c-3.27797,-3.09808 -10.55771,-4.13188 -12.13396,-4.74746c-1.62133,-0.63317 -3.67543,-2.47651 -5.5206,-1.76447c-1.93451,0.74651 -3.61831,4.0531 -3.39835,3.46298z" fill="#141414" stroke="none" stroke-width="0"/><path d="M208.09545,177.37788l-3.02609,8.11856l-23.61934,-9.22399l3.02609,-8.11855z" fill="none" stroke="#000000" stroke-width="3.5"/><path d="M208.09545,177.37788l-3.02609,8.11856l-23.61934,-9.22399l3.02609,-8.11855z" fill="none" stroke="#000000" stroke-width="3.5"/></g><g><path d="M214.55601,165.15321l-3.02611,8.11858l-26.68512,-10.42128l3.02609,-8.11856z" fill="#252525" stroke="#000000" stroke-width="0"/><path d="M214.55601,165.15321l-3.02611,8.11858l-26.68512,-10.42128l3.02609,-8.11856z" fill="#252525" stroke="#000000" stroke-width="0"/><path d="M188.87279,158.96323c-2.12218,0.67324 -3.8571,3.95984 -3.63716,3.36973c0.15355,-0.41199 1.09473,-5.43724 2.51623,-6.49561c2.55669,-1.90357 6.48637,0.04674 8.89785,0.98849c3.75224,1.46536 18.12488,7.15252 17.69514,8.30548c-0.10193,0.27347 -2.13555,8.20483 -3.53825,8.01674c-1.70446,-0.22853 0.29167,-4.78393 -2.00383,-6.78433c-3.78024,-3.29421 -11.92844,-4.66719 -13.70933,-5.36266c-1.83177,-0.71535 -4.19647,-2.67999 -6.22065,-2.03785z" fill="#141414" stroke="none" stroke-width="0"/><path d="M214.55601,165.15321l-3.02611,8.11858l-26.68512,-10.42128l3.02609,-8.11856z" fill="none" stroke="#000000" stroke-width="3.5"/><path d="M214.55601,165.15321l-3.02611,8.11858l-26.68512,-10.42128l3.02609,-8.11856z" fill="none" stroke="#000000" stroke-width="3.5"/></g></g><g><path d="M204.64766,193.98546l-3.47558,9.32442l-27.56106,-10.76337l3.47557,-9.32443z" fill="#252525" stroke="#000000" stroke-width="0"/><path d="M204.64766,193.98546l-3.47558,9.32442l-27.56106,-10.76337l3.47557,-9.32443z" fill="#252525" stroke="#000000" stroke-width="0"/><path d="M174.03992,191.9443c0.17637,-0.47316 1.35147,-6.20809 2.88036,-7.46417c2.74987,-2.25917 6.7929,-0.20287 9.28352,0.76979c3.8754,1.51345 18.71705,7.39481 18.22346,8.71902c-0.11707,0.31408 -2.54593,9.38714 -4.00823,9.22921c-1.77687,-0.19191 0.48564,-5.43566 -1.84367,-7.6132c-3.83587,-3.58598 -12.31968,-4.82129 -14.15901,-5.5396c-1.8919,-0.73885 -4.29503,-2.87313 -6.43957,-2.0652c-2.2484,0.84704 -4.18951,4.64193 -3.93689,3.96416z" fill="#141414" stroke="none" stroke-width="0"/><path d="M204.64766,193.98546l-3.47558,9.32442l-27.56106,-10.76337l3.47557,-9.32443z" fill="none" stroke="#000000" stroke-width="3.5"/><path d="M204.64766,193.98546l-3.47558,9.32442l-27.56106,-10.76337l3.47557,-9.32443z" fill="none" stroke="#000000" stroke-width="3.5"/></g></g><g><path d="M210.45216,101.17486c3.69979,0.1283 10.96051,1.12122 13.27714,3.92261c2.28265,2.76029 -0.35046,7.29992 -0.49138,11.36342c-0.28391,8.18755 -13.08919,86.27764 -20.43448,86.02294c-2.79726,-0.097 0.94654,-15.872 -2.92374,-20.30585c-4.02415,-4.61014 -14.29866,0.78207 -18.63944,-1.57272c-2.44699,-1.32744 -1.22775,-6.69943 -1.16436,-8.52699c0.28391,-8.18755 23.03098,-71.15814 30.37627,-70.90344z" fill="#003aff" stroke="#000000" stroke-width="0" stroke-linecap="butt"/><path d="M189.57372,181.93577c2.6056,0.09036 8.35007,-3.13944 13.46193,-14.51275c9.9132,-22.05588 20.20139,-58.87431 19.90506,-50.32871c-0.44915,12.9522 -12.64562,86.86422 -20.30414,86.59865c-3.30132,-0.11448 1.83964,-13.8995 -2.51138,-19.53525c-3.73543,-4.83841 -12.45086,-1.27236 -17.24564,-4.0241c-2.57642,-1.47861 -3.23624,-8.65549 -3.14695,-11.23113c0.44915,-12.9522 2.18258,12.7677 9.84109,13.03327z" fill="#0029ae" stroke="none" stroke-width="3.5" stroke-linecap="butt"/><path d="M210.47412,100.54102c3.44795,0.11957 11.40818,0.28516 13.688,2.76593c2.57697,2.8041 -0.75161,8.17586 -0.90224,12.5201c-0.28391,8.18755 -12.3954,86.3017 -19.7407,86.04699c-3.68549,-0.12779 -0.24059,-13.17128 -5.22391,-19.7532c-3.03516,-4.00883 -11.73443,0.27401 -16.05095,-1.2843c-2.72123,-0.98238 -2.20115,-7.81476 -2.14646,-9.39213c0.28391,-8.18755 23.03098,-71.15814 30.37627,-70.90344z" fill="none" stroke="#000000" stroke-width="3.5" stroke-linecap="butt"/><path d="M191.7207,134.06836l24.41361,23.84689" fill="none" stroke="#000000" stroke-width="3.5" stroke-linecap="round"/></g></g><g><g stroke-linecap="butt"><path d="M219.75189,174.60827l0.75762,-57.15079l30.81028,3.73754l-0.75763,57.1508z" fill="#252525" stroke="#000000" stroke-width="0"/><path d="M219.75189,174.60827l0.75762,-57.15079l30.81028,3.73754l-0.75763,57.1508z" fill="#252525" stroke="#000000" stroke-width="0"/><path d="M219.75189,174.60827l0.75762,-57.15079l30.81028,3.73754l-0.75763,57.1508z" fill="none" stroke="#000000" stroke-width="3.5"/><path d="M222.66405,151.32658c1.68217,9.02176 4.88838,3.00244 7.0033,3.25904c2.05616,0.24942 10.63698,12.42545 15.83263,1.86646c3.15501,-6.41179 3.28909,-39.2314 5.05722,-36.32667c1.45512,2.39048 -0.18567,55.89638 -0.21119,57.82142c-0.10759,8.11634 -16.73601,6.55622 -21.0683,6.03063c-2.78426,-0.33778 -7.51142,1.64711 -9.13671,-16.41177c-0.90365,-10.0406 0.47493,-43.0656 0.51337,-45.96578c0.05507,-4.15408 0.24603,20.26805 2.00965,29.72667z" fill="#141414" stroke="none" stroke-width="0"/><path d="M219.75189,174.60827l0.75762,-57.15079l30.81028,3.73754l-0.75763,57.1508z" fill="none" stroke="#000000" stroke-width="3.5"/></g><g stroke-linecap="butt"><path d="M220.5912,155.3286l0.29796,-9.6785l40.47027,1.00882l-0.29796,9.6785z" fill="#252525" stroke="#000000" stroke-width="0"/><path d="M220.5912,155.3286l0.29796,-9.6785l40.47027,1.00882l-0.29796,9.6785z" fill="#252525" stroke="#000000" stroke-width="0"/><path d="M220.5912,155.3286l0.29796,-9.6785l40.47027,1.00882l-0.29796,9.6785z" fill="none" stroke="#000000" stroke-width="3.5"/><path d="M224.12856,151.41755c2.31697,1.54978 6.45037,0.5685 9.22841,0.63774c2.70083,0.06732 14.10763,2.23583 20.79599,0.50923c4.06146,-1.04846 3.83762,-6.61013 6.19291,-6.09621c1.9383,0.42294 0.43719,9.47283 0.42716,9.79884c-0.04231,1.37451 -21.87871,0.90752 -27.56929,0.76566c-3.65719,-0.09117 -9.83531,0.18771 -12.18776,-2.89328c-1.30793,-1.71301 0.09862,-7.29434 0.11373,-7.78549c0.02166,-0.70348 0.56966,3.43867 2.99885,5.0635z" fill="#141414" stroke="none" stroke-width="0"/><path d="M220.5912,155.3286l0.29796,-9.6785l40.47027,1.00882l-0.29796,9.6785z" fill="none" stroke="#000000" stroke-width="3.5"/></g><g stroke-linecap="butt"><path d="M218.62381,135.5688l0.29796,-9.6785l40.47027,1.00882l-0.29796,9.6785z" fill="#252525" stroke="#000000" stroke-width="0"/><path d="M218.62381,135.5688l0.29796,-9.6785l40.47027,1.00882l-0.29796,9.6785z" fill="#252525" stroke="#000000" stroke-width="0"/><path d="M218.62381,135.5688l0.29796,-9.6785l40.47027,1.00882l-0.29796,9.6785z" fill="none" stroke="#000000" stroke-width="3.5"/><path d="M222.16117,131.65775c2.31697,1.54978 6.45037,0.5685 9.22841,0.63774c2.70083,0.06731 14.10763,2.23583 20.79599,0.50922c4.06146,-1.04845 3.83762,-6.61012 6.19291,-6.0962c1.9383,0.42294 0.43719,9.47284 0.42716,9.79884c-0.04231,1.37451 -21.87871,0.90752 -27.56929,0.76566c-3.6572,-0.09116 -9.83531,0.18772 -12.18776,-2.89327c-1.30793,-1.71301 0.09862,-7.29434 0.11373,-7.78549c0.02166,-0.70348 0.56966,3.43867 2.99884,5.0635z" fill="#141414" stroke="none" stroke-width="0"/><path d="M218.62381,135.5688l0.29796,-9.6785l40.47027,1.00882l-0.29796,9.6785z" fill="none" stroke="#000000" stroke-width="3.5"/></g><g><path d="M223.05658,97.92556c0.30119,-28.25696 13.7673,-12.68731 20.3023,-12.61766c6.535,0.06965 16.41188,-22.91828 16.11068,5.33868c-0.02698,2.53154 2.71533,38.37659 -2.16315,47.15743c-2.17028,3.90631 -1.45694,-12.61412 -6.26339,-16.39808c-1.45981,-1.14925 -2.43323,4.54691 -5.20368,6.79332c-2.77507,2.25016 -7.34664,1.05137 -8.14676,0.84489c-3.18144,-0.82097 0.52614,10.72672 1.21211,15.28339c0.99527,6.61108 0.69372,17.12562 4.58402,22.32225c3.06088,4.0887 5.40905,-5.03856 9.29439,-2.38985c2.93851,2.00325 2.0067,9.37226 4.82398,12.70544c2.80354,3.31695 3.27942,-18.91397 6.05304,-16.98714c2.70606,1.87989 7.74703,27.94365 7.57544,29.07204c-2.33391,15.34728 -25.54945,14.95582 -29.14151,14.91754c-3.581,-0.03818 -31.49357,3.21464 -33.5003,-12.10999c-1.65537,-12.64142 14.32664,-81.15938 14.46279,-93.93228z" fill="#003aff" stroke="#000000" stroke-width="0" stroke-linecap="butt"/><path d="M208.39366,190.90755c0.02945,-2.76308 7.88755,-65.39682 10.91266,-63.93802c0.35561,0.17148 -0.72081,-26.86954 8.38836,-33.6437c10.26061,-7.63047 30.81484,4.98213 30.73412,6.80033c-0.16777,3.77913 -24.45196,-4.78206 -30.08938,5.49794c-12.61248,22.99923 -12.28017,72.35509 -9.77554,83.36174c2.06354,9.06818 15.67374,8.94757 19.00619,8.9831c13.08858,0.13952 21.45647,-34.48692 26.85189,-35.25641c1.77561,-0.25323 6.98746,27.05466 6.96815,28.86651c-0.078,7.31736 -14.24346,13.09894 -31.63943,12.91351c-17.39598,-0.18543 -31.43499,-6.26762 -31.35699,-13.58499z" fill="#0029ae" stroke="none" stroke-width="0" stroke-linecap="butt"/><path d="M223.05657,97.92553c0.30119,-28.25696 13.76731,-12.68731 20.30231,-12.61766c6.535,0.06965 16.41188,-22.91827 16.11069,5.33869c-0.02698,2.53154 2.71534,38.37659 -2.16315,47.15743c-2.17029,3.90631 -1.45695,-12.61412 -6.26339,-16.39808c-1.45981,-1.14925 -2.43322,4.54692 -5.20367,6.79333c-2.77507,2.25017 -7.34665,1.05138 -8.14676,0.8449c-3.18144,-0.82097 0.52613,10.72672 1.21211,15.28339c0.99528,6.61109 0.69372,17.12563 4.58402,22.32226c3.06089,4.08871 5.40904,-5.03857 9.29439,-2.38985c2.9385,2.00324 2.00671,9.37225 4.82398,12.70543c2.80355,3.31695 3.27942,-18.91396 6.05304,-16.98713c2.70606,1.87989 7.74703,27.94365 7.57544,29.07204c-2.33391,15.34728 -25.54945,14.95582 -29.14151,14.91754c-3.581,-0.03818 -31.49357,3.21465 -33.5003,-12.10999c-1.65537,-12.64141 14.32665,-81.15937 14.46279,-93.93227z" fill="none" stroke="#000000" stroke-width="3.5" stroke-linecap="butt"/><path d="M214.49862,198.36286l8.266,-24.91331l27.56206,9.96101l13.0561,-5.19446l2.81864,17.03102" fill="none" stroke="#000000" stroke-width="3.5" stroke-linecap="round"/><path d="M237.80579,150.01132l-21.67682,-6.98144" fill="none" stroke="#000000" stroke-width="3.5" stroke-linecap="round"/></g></g><g><path d="M208.67705,75.45774c-4.83367,-19.47547 6.52891,-39.0561 25.379,-43.73456c7.73603,-1.92003 6.86219,9.70592 13.69878,12.76702c0.72205,0.32329 5.14438,-4.14936 7.40583,-2.14237c4.76873,4.23213 8.88135,16.11504 11.28622,13.95431c3.28228,-2.94913 -2.80269,-23.08438 -0.31267,-22.51556c6.58932,1.50525 9.20946,18.29979 10.80511,24.72894c4.83367,19.47547 -6.5289,39.0561 -25.37899,43.73456c-18.8501,4.67846 -38.04962,-7.31689 -42.88328,-26.79235z" fill="#003aff" stroke="#000000" stroke-width="0" stroke-linecap="butt"/><path d="M245.38295,83.65799c13.66856,-3.39245 30.36232,-25.03999 32.62393,-15.92761c2.26163,9.11238 -12.68115,31.17261 -26.34972,34.56504c-13.66856,3.39245 -39.27503,-10.87051 -41.53667,-19.98288c-2.26163,-9.11238 21.59387,4.73788 35.26243,1.34544z" fill="#0029ae" stroke="none" stroke-width="0" stroke-linecap="butt"/><path d="M208.67705,75.45771c-4.83367,-19.47546 6.52891,-39.05609 25.379,-43.73456c7.73603,-1.92003 6.8622,9.70593 13.69879,12.76702c0.72204,0.32328 5.14438,-4.14936 7.40583,-2.14237c4.76873,4.23212 8.88138,16.11505 11.28622,13.95431c3.28229,-2.94914 -2.80269,-23.08437 -0.31267,-22.51555c6.58932,1.50525 9.20946,18.29979 10.80511,24.72894c4.83367,19.47546 -6.52891,39.05609 -25.379,43.73456c-18.85011,4.67846 -38.04961,-7.31688 -42.88327,-26.79234z" fill="none" stroke="#000000" stroke-width="3.5" stroke-linecap="butt"/><path d="M214.02579,77.35858c-4.52324,-18.22475 4.77892,-36.21764 20.77699,-40.18825c6.56555,-1.62952 6.70792,6.26394 12.60699,9.25218c0.62302,0.3156 3.82343,-4.32392 5.79502,-2.40992c4.15747,4.03604 11.46692,15.67064 13.47608,13.70854c2.74222,-2.67802 -3.02101,-23.56371 -0.88359,-22.9836c5.65629,1.53513 4.66942,22.22594 6.16262,28.24222c4.52324,18.22475 -4.77893,36.21764 -20.77698,40.18824c-15.99805,3.97061 -32.63387,-7.58467 -37.15712,-25.80941z" fill="#ffffff" stroke="#000000" stroke-width="0" stroke-linecap="butt"/><path d="M212.84624,60.91419c-1.38358,-5.57463 7.34529,-19.95703 18.76256,-22.79072c1.69004,-0.41945 5.73181,-2.99708 7.50535,-1.88849c3.31145,2.06987 4.39735,8.92015 7.50795,9.84186c3.11506,0.92303 4.16738,-2.50044 6.36708,-2.77082c2.37484,-0.29192 5.79073,2.58477 6.20417,4.25055c0.17431,0.70235 5.17568,9.15264 6.75541,7.61734c1.91433,-1.86048 -0.55678,-12.1239 0.17082,-16.33277c0.74104,-4.28658 4.6521,-2.48665 3.42239,-0.70163c-1.38581,2.01168 2.02572,11.16135 2.97869,18.29086c0.37754,2.82455 1.92441,4.59856 0.2705,6.60077c-2.33046,2.82123 -4.74313,-2.73962 -9.51489,-5.47488c-10.89466,-6.24499 -28.8808,-16.62121 -31.4308,-15.98833c-0.37313,0.09261 -2.68962,2.30149 -3.06132,2.36534c-11.00188,1.88912 -14.59954,22.37342 -15.93791,16.98096z" fill="#c1c1c1" stroke="none" stroke-width="0" stroke-linecap="butt"/><path d="M241.23418,59.55269c11.9533,-2.96672 22.86202,-0.46152 24.36534,5.59552c1.50332,6.05704 -6.96806,13.37226 -18.92136,16.33897c-11.9533,2.96672 -22.86202,0.46152 -24.36534,-5.59552c-1.50332,-6.05704 6.96806,-13.37226 18.92136,-16.33897z" fill="#c1c1c1" stroke="none" stroke-width="0" stroke-linecap="butt"/><path d="M219.63645,48.81403c-0.63214,-2.547 -3.91998,23.47459 3.87595,38.44374c5.53451,10.62693 21.92506,11.69252 25.2354,10.8709c7.97334,-1.97893 13.45518,-12.72825 14.53608,-8.37307c1.08092,4.35518 -4.50648,9.48999 -12.4798,11.4689c-4.28455,1.06339 -21.16729,2.61547 -28.16032,-11.20087c-2.89539,-5.72048 -7.77263,-13.19173 -7.76483,-21.51198c0.00841,-8.98085 5.01708,-18.65174 4.7575,-19.69766z" fill="#c1c1c1" stroke="none" stroke-width="0" stroke-linecap="butt"/><path d="M235.19238,36.24939c6.56555,-1.62952 6.70792,6.26396 12.60699,9.25218c0.62302,0.3156 3.82344,-4.32393 5.79501,-2.40993c4.15747,4.03604 11.46692,15.67064 13.47608,13.70854c2.74222,-2.67802 -3.02102,-23.56369 -0.88359,-22.9836c5.65629,1.53512 4.66942,22.22594 6.16262,28.24222c4.52324,18.22475 -4.77892,36.21763 -20.77698,40.18824c-15.99805,3.97061 -32.63387,-7.58467 -37.15712,-25.80941c-4.52324,-18.22475 4.77892,-36.21763 20.77698,-40.18824z" fill="none" stroke="#000000" stroke-width="3.5" stroke-linecap="butt"/><path d="M257.73305,57.7007c4.50257,-1.1175 9.3929,2.97368 10.92282,9.13795c0.71571,2.88368 1.32743,16.23756 0.50785,18.54374c-0.93239,2.62355 2.16505,3.56337 -0.23119,4.1581c-2.0422,0.50686 -5.15014,9.2539 -7.00215,7.91029c-2.23124,-1.61874 -8.74382,-23.19688 -9.57983,-26.56527c-1.52992,-6.16425 0.8799,-12.0673 5.38248,-13.1848z" fill="#000000" stroke="#000000" stroke-width="3.5" stroke-linecap="butt"/><path d="M260.9022,89.40383l-3.26574,9.25933" fill="none" stroke="#000000" stroke-width="3.5" stroke-linecap="round"/><path d="M228.17498,65.88491c5.52103,-1.37028 11.08596,1.90766 12.42964,7.32149c1.34367,5.41382 -2.04275,10.91343 -7.56377,12.28369c-5.52103,1.37028 -11.08596,-1.90766 -12.42964,-7.32149c-1.34367,-5.41382 2.04275,-10.91343 7.56377,-12.28369z" fill="#ffffff" stroke="#000000" stroke-width="3.5" stroke-linecap="butt"/><path d="M235.55795,88.57457l4.15024,12.57042" fill="none" stroke="#000000" stroke-width="3.5" stroke-linecap="round"/><path d="M244.18678,91.79073l-1.34896,-5.4351" fill="none" stroke="#000000" stroke-width="3.5" stroke-linecap="round"/><path d="M253.97463,98.01631l-2.25729,-13.24631" fill="none" stroke="#000000" stroke-width="3.5" stroke-linecap="round"/></g><g><g stroke-linecap="butt"><path d="M168.79237,205.23607c2.49453,-9.34866 11.42305,-15.08443 19.94239,-12.81118c8.51934,2.27323 13.40342,11.69466 10.9089,21.04332c-2.49453,9.34867 -11.42306,15.08442 -19.9424,12.81117c-8.51935,-2.27323 -13.40342,-11.69466 -10.90889,-21.04331z" fill="#ffffff" stroke="#000000" stroke-width="0"/><path d="M168.41432,211.96454c1.4082,-5.27747 2.34735,-20.43072 9.8866,-18.41899c1.26488,0.3375 -3.20167,5.58737 -4.03077,11.96395c-0.78644,6.04853 2.05573,13.20577 3.36565,14.73024c5.54031,6.44781 19.02839,-4.54234 18.08055,-0.99013c-1.40821,5.27747 -8.66154,7.92489 -16.20078,5.91316c-7.53924,-2.01173 -12.50943,-7.92078 -11.10123,-13.19825z" fill="#adadad" stroke="none" stroke-width="3.5"/><path d="M188.46625,193.29691c8.51935,2.27323 13.40342,11.69466 10.9089,21.04331c-2.49453,9.34867 -11.42303,15.08443 -19.94239,12.81118c-8.51935,-2.27323 -13.40342,-11.69466 -10.90889,-21.04332c2.49453,-9.34867 11.42303,-15.08443 19.94239,-12.81118z" fill="none" stroke="#000000" stroke-width="3.5"/></g><g data-paper-data="{&quot;index&quot;:null}"><path d="M191.57036,234.65872c3.73729,6.31132 4.26324,12.91024 1.17472,14.73913c-3.08852,1.82889 -8.62191,-1.80482 -12.35921,-8.11613c-1.99057,-3.36155 -2.09351,-17.05328 1.88206,-21.44797c3.48858,-3.85635 10.89769,1.40116 12.3412,0.54639c3.08852,-1.82889 -6.77607,7.96729 -3.03878,14.27859z" fill="#ffffff" stroke="#000000" stroke-width="0" stroke-linecap="butt"/><path d="M191.37523,231.48362c0.21224,4.55388 2.80735,8.11591 2.51199,11.92775c-0.31578,4.07515 -2.40843,5.675 -2.40843,5.675c-1.74568,1.03372 -4.41782,-0.25101 -5.9684,-2.86954c-1.55058,-2.61853 1.68447,-26.4484 3.43017,-27.48212c0.6406,-0.37934 4.89383,-0.51784 4.61887,3.23592c-0.13075,1.78503 -2.333,6.32003 -2.18418,9.51299z" fill="#adadad" stroke="none" stroke-width="3.5" stroke-linecap="butt"/><path d="M191.7879,234.40502c3.73729,6.31131 4.26323,12.91024 1.17473,14.73912c-3.08851,1.82888 -8.62192,-1.80483 -12.35921,-8.11613c-1.99057,-3.36155 -2.0935,-17.05328 1.88207,-21.44797c3.48858,-3.85635 10.89769,1.40116 12.3412,0.54638c3.08851,-1.82888 -6.77606,7.9673 -3.03877,14.27859z" fill="none" stroke="#000000" stroke-width="3.5" stroke-linecap="butt"/><path d="M179.677,233.36317l10.61526,-0.37473" fill="none" stroke="#000000" stroke-width="3.5" stroke-linecap="round"/></g><g data-paper-data="{&quot;index&quot;:null}"><path d="M163.71397,226.74201c-0.16542,7.33299 -3.20857,13.21192 -6.79705,13.13096c-3.58848,-0.08096 -6.36341,-6.09112 -6.19798,-13.4241c0.08811,-3.90571 7.24096,-15.58094 12.93912,-17.20862c5.00016,-1.42828 8.50843,6.95195 10.1856,6.98979c3.58848,0.08096 -9.96427,3.179 -10.12969,10.51197z" fill="#ffffff" stroke="#000000" stroke-width="0" stroke-linecap="butt"/><path d="M165.22736,223.94397c-2.22796,3.97732 -1.90899,8.37288 -4.1754,11.45197c-2.42296,3.29178 -5.04508,3.54305 -5.04508,3.54305c-2.02827,-0.04576 -3.61688,-2.54921 -3.54825,-5.59161c0.06863,-3.04241 15.41566,-21.55719 17.44394,-21.51144c0.74431,0.01679 4.42746,2.14836 2.20909,5.18894c-1.0549,1.4459 -5.32217,4.13038 -6.8843,6.9191z" fill="#adadad" stroke="none" stroke-width="3.5" stroke-linecap="butt"/><path d="M164.03276,226.64173c-0.16541,7.33298 -3.20856,13.21191 -6.79703,13.13096c-3.58847,-0.08095 -6.36341,-6.09113 -6.19799,-13.42411c0.08811,-3.90571 7.24097,-15.58094 12.93912,-17.20862c5.00016,-1.42828 8.50842,6.95195 10.1856,6.98979c3.58847,0.08095 -9.96428,3.179 -10.12969,10.51198z" fill="none" stroke="#000000" stroke-width="3.5" stroke-linecap="butt"/><path d="M154.30464,219.35319l9.20782,5.29532" fill="none" stroke="#000000" stroke-width="3.5" stroke-linecap="round"/></g><g data-paper-data="{&quot;index&quot;:null}"><path d="M175.7367,232.90312c1.82943,7.10304 0.49465,13.58693 -2.98131,14.48218c-3.47596,0.89525 -7.77681,-4.13714 -9.60624,-11.24018c-0.97439,-3.78323 2.74416,-16.96075 7.78737,-20.07273c4.42543,-2.73076 10.07488,4.38401 11.69948,3.96559c3.47596,-0.89525 -8.72874,5.76211 -6.89931,12.86513z" fill="#ffffff" stroke="#000000" stroke-width="0" stroke-linecap="butt"/><path d="M176.43457,229.79952c-1.06585,4.43248 0.43323,8.5768 -0.91322,12.15513c-1.43945,3.82551 -3.89518,4.77847 -3.89518,4.77847c-1.96467,0.50601 -4.17266,-1.4728 -4.93168,-4.41981c-0.75902,-2.947 8.99181,-24.92995 10.95649,-25.43597c0.72097,-0.18569 4.84415,0.86715 3.5335,4.39539c-0.62326,1.67779 -4.00259,5.41895 -4.74991,8.52679z" fill="#adadad" stroke="none" stroke-width="3.5" stroke-linecap="butt"/><path d="M176.01635,232.72014c1.82943,7.10304 0.49465,13.58693 -2.9813,14.48218c-3.47595,0.89525 -7.77682,-4.13715 -9.60625,-11.24018c-0.97439,-3.78323 2.74417,-16.96075 7.78738,-20.07272c4.42543,-2.73076 10.07488,4.38401 11.69947,3.96559c3.47595,-0.89525 -8.72873,5.7621 -6.89931,12.86514z" fill="none" stroke="#000000" stroke-width="3.5" stroke-linecap="butt"/><path d="M174.97498,230.94271l-10.2988,-2.59978" fill="none" stroke="#000000" stroke-width="3.5" stroke-linecap="round"/></g><g><path d="M198.35823,231.43519c1.89102,-7.08688 -10.25544,-13.84993 -6.78737,-12.92454c1.62089,0.4325 7.3319,-6.63296 11.73345,-3.86388c5.01601,3.15564 8.62004,16.36493 7.61284,20.13957c-1.89102,7.08689 -6.23539,12.08176 -9.70345,11.15637c-3.46806,-0.92539 -4.7465,-7.42061 -2.85548,-14.50752z" fill="#ffffff" stroke="#000000" stroke-width="0" stroke-linecap="butt"/><path d="M193.01162,219.75796c-1.27998,-3.53949 2.85219,-4.55649 3.57152,-4.36455c0.96178,0.25663 3.75308,5.69976 6.25435,11.52535c2.59654,6.04749 4.88055,12.50714 4.48093,14.00476c-0.78457,2.9403 -3.00965,4.89987 -4.96985,4.37683c0,0 -2.44736,-0.97423 -3.85355,-4.81209c-1.31534,-3.58989 0.21965,-7.72105 -0.80768,-12.16261c-0.72031,-3.11422 -4.06705,-6.88456 -4.6757,-8.5677z" fill="#adadad" stroke="none" stroke-width="3.5" stroke-linecap="butt"/><path d="M191.2928,218.32523c1.62089,0.4325 7.3319,-6.63296 11.73346,-3.86388c5.01601,3.15564 8.62004,16.36493 7.61284,20.13956c-1.89102,7.08688 -6.2354,12.08177 -9.70345,11.15638c-3.46805,-0.92539 -4.74649,-7.42064 -2.85547,-14.50752c1.89102,-7.08688 -10.25543,-13.84993 -6.78738,-12.92454z" fill="none" stroke="#000000" stroke-width="3.5" stroke-linecap="butt"/><path d="M199.13692,229.48148l10.32099,-2.51029" fill="none" stroke="#000000" stroke-width="3.5" stroke-linecap="round"/></g></g></g></g></svg>