<svg version="1.1" xmlns="http://www.w3.org/2000/svg" xmlns:xlink="http://www.w3.org/1999/xlink" width="452.92979" height="727.76712" viewBox="0,0,452.92979,727.76712"><g transform="translate(134.95862,63.16287)"><g data-paper-data="{&quot;isPaintingLayer&quot;:true}" fill-rule="nonzero" stroke-width="4.5" stroke-linejoin="miter" stroke-miterlimit="10" stroke-dasharray="" stroke-dashoffset="0" style="mix-blend-mode: normal"><g><path d="M200.13688,363.0113l-43.3794,-158.20793l43.83295,-13.54422l43.3794,158.20793z" data-paper-data="{&quot;index&quot;:null}" fill="#1b1b1b" stroke="#000000" stroke-linecap="butt"/><g data-paper-data="{&quot;index&quot;:null}"><g stroke-linecap="butt"><path d="M246.1957,331.11226c0,16.43713 -15.10629,47.57674 -30.12317,47.57674c-15.01687,0 -54.07394,-145.66279 -54.07394,-162.0999c0,-10.55656 -2.13776,-21.72397 5.43308,-27.00774c4.21735,-2.94334 16.38489,-2.75431 21.75736,-2.75431c7.7935,0 -2.87917,57.34478 9.80437,92.77014c11.75567,32.8338 47.20232,43.60857 47.20232,51.51507z" fill="#840000" stroke="#000000"/><path d="M247.12155,324.7682c0,26.0025 -15.13665,47.08175 -30.79383,47.08175c-15.65721,0 -53.76706,-127.96753 -53.76706,-153.97006c0,-17.15593 18.40104,57.38646 37.08174,102.30144c9.6329,23.16079 21.13421,30.03646 26.46113,30.03646c15.65721,0 21.01802,-51.4521 21.01802,-25.44957z" fill="#430000" stroke="none"/><path d="M246.19577,329.83976c0,16.43713 -15.10629,47.57674 -30.12317,47.57674c-15.01685,0 -54.07394,-145.66279 -54.07394,-162.0999c0,-8.90243 -12.98427,-22.57546 -7.32469,-28.02953c4.79006,-4.61612 27.63146,-1.7325 34.5151,-1.7325c8.23547,0 -1.97782,59.59908 11.10762,97.03852c10.77497,30.82886 45.89907,39.82395 45.89907,47.2467z" fill="none" stroke="#000000"/></g><path d="M200.2078,278.75842l-16.71065,11.32364" fill="none" stroke="#000000" stroke-linecap="round"/></g></g><g><g stroke-linecap="butt"><path d="M24.01812,186.0152c8.47629,0 25.16958,1.49735 30.69293,6.99473c5.44234,5.41672 -0.22274,14.77257 -0.22274,22.99201c0,16.56124 -43.76824,163.32374 -60.59647,163.32374c-16.82823,0 -33.75669,-31.37472 -33.75669,-47.93594c0,-16.56124 47.05474,-145.37456 63.88294,-145.37456z" fill="#840000" stroke="#000000"/><path d="M-17.34905,350.63952c5.96947,0 18.8581,-6.92757 29.65293,-30.26326c20.93398,-45.25409 41.5546,-120.35922 41.5546,-103.07378c0,26.19882 -42.7067,157.67759 -60.25253,157.67759c-17.54581,0 -34.50828,-23.78346 -34.50828,-49.98229c0,-26.19882 6.00745,25.64173 23.55325,25.64173z" fill="#430000" stroke="none"/><path d="M24.0181,184.73311c7.89933,0 26.12761,-0.22311 31.54131,4.62909c6.1193,5.4846 -1.07115,16.57038 -1.07115,25.35761c0,16.56124 -43.76824,163.32374 -60.59647,163.32374c-16.82823,0 -33.75669,-31.37472 -33.75669,-47.93594c0,-16.56124 47.05474,-145.37456 63.88294,-145.37456z" fill="none" stroke="#000000"/></g><path d="M30.39664,290.04973l-46.63107,-36.26739" fill="none" stroke="#000000" stroke-linecap="round"/></g><g><path d="M-77.25685,360.92531c5.25152,-19.68093 24.04796,-31.75596 41.983,-26.97028c17.93504,4.78565 28.21708,24.61977 22.96556,44.3007c-5.25152,19.68095 -24.04799,31.75596 -41.98302,26.97028c-17.93506,-4.78565 -28.21708,-24.61977 -22.96556,-44.3007z" fill="#840000" stroke="#000000" stroke-linecap="butt"/><path d="M-78.05274,375.09021c2.96455,-11.11021 4.94168,-43.01104 20.81341,-38.77593c2.66285,0.71053 -6.74021,11.76259 -8.48563,25.18669c-1.65563,12.73344 4.32777,27.80096 7.08542,31.01032c11.66354,13.57403 40.05884,-9.56258 38.06341,-2.08442c-2.96458,11.11018 -18.2344,16.68358 -34.10613,12.44847c-15.87173,-4.23511 -26.33506,-16.67494 -23.37048,-27.78515z" fill="#430000" stroke="none" stroke-linecap="butt"/><path d="M-35.83911,335.79078c17.93506,4.78565 28.21708,24.61977 22.96556,44.3007c-5.25152,19.68095 -24.04794,31.75596 -41.983,26.97028c-17.93506,-4.78565 -28.21708,-24.61977 -22.96556,-44.3007c5.25152,-19.68095 24.04794,-31.75596 41.983,-26.97028z" fill="none" stroke="#000000" stroke-linecap="butt"/><g><path d="M-15.01439,416.08011c3.98099,-14.91941 -21.5899,-29.15708 -14.28889,-27.20894c3.41233,0.91051 15.43521,-13.9638 24.70144,-8.1343c10.55977,6.6433 18.14702,34.45168 16.02666,42.3981c-3.98099,14.91943 -13.12683,25.43471 -20.42784,23.48657c-7.30101,-1.94814 -9.9924,-15.62199 -6.01141,-30.54143z" fill="#840000" stroke="#000000" stroke-linecap="butt"/><path d="M-26.27015,391.49697c-2.69463,-7.45136 6.00448,-9.59239 7.51882,-9.18832c4.12666,1.10113 24.25175,47.55639 22.60006,53.74636c-1.65169,6.18997 -6.33597,10.31529 -10.46261,9.21416c-4.12664,-1.10113 -7.32275,-6.41685 -5.67106,-12.60682c1.04557,-3.91847 -8.92257,-27.16571 -13.98522,-41.1654z" fill="#430000" stroke="none" stroke-linecap="butt"/><path d="M-29.88866,388.48084c3.41233,0.91051 15.43521,-13.9638 24.70144,-8.1343c10.55977,6.6433 18.14702,34.45168 16.02666,42.3981c-3.98099,14.91941 -13.12685,25.43471 -20.42784,23.48657c-7.30099,-1.94814 -9.99237,-15.62202 -6.01138,-30.54143c3.98099,-14.91941 -21.58987,-29.15708 -14.28889,-27.20894z" fill="none" stroke="#000000" stroke-linecap="butt"/><path d="M8.35282,406.6824l-21.72788,5.28469" fill="none" stroke="#000000" stroke-linecap="round"/></g><g data-paper-data="{&quot;index&quot;:null}"><path d="M-93.8784,405.69848c0.8888,15.41584 -4.50621,28.26542 -12.05015,28.70034c-7.54392,0.43495 -14.37998,-11.70943 -15.26877,-27.12527c-0.4734,-8.21082 12.56874,-33.91635 24.25175,-38.29238c10.25187,-3.83995 19.02628,13.15432 22.55213,12.95103c7.54392,-0.43495 -20.3738,8.35044 -19.48498,23.76623z" fill="#840000" stroke="#000000" stroke-linecap="butt"/><path d="M-99.89755,421.389c0.36876,6.39593 -3.83418,10.95744 -8.09812,11.20329c-4.26394,0.24585 -8.01951,-4.73978 -8.38827,-11.13571c-0.36876,-6.39593 28.71573,-47.83506 32.9797,-48.08091c1.56471,-0.09022 9.6529,3.76199 5.51022,10.51639c-7.78325,12.69026 -22.23698,33.44809 -22.00356,37.49694z" fill="#430000" stroke="none" stroke-linecap="butt"/><path d="M-93.22634,405.4343c0.88882,15.41581 -4.50621,28.26542 -12.05013,28.70036c-7.5439,0.43495 -14.37998,-11.70946 -15.26877,-27.12527c-0.4734,-8.21082 12.56874,-33.91635 24.25175,-38.29238c10.25187,-3.83995 19.02628,13.15432 22.55213,12.95103c7.5439,-0.43495 -20.3738,8.35044 -19.48498,23.76623z" fill="none" stroke="#000000" stroke-linecap="butt"/><path d="M-114.86883,391.77925l20.21468,9.56006" fill="none" stroke="#000000" stroke-linecap="round"/></g><g data-paper-data="{&quot;index&quot;:null}"><path d="M-62.15653,419.6075c3.98099,14.91943 1.2896,28.59329 -6.01141,30.54143c-7.30101,1.94814 -16.44684,-8.56713 -20.42784,-23.48657c-2.12036,-7.94642 5.46689,-35.7548 16.02666,-42.3981c9.26623,-5.8295 21.28912,9.04481 24.70144,8.1343c7.30101,-1.94814 -18.26988,12.28953 -14.28889,27.20894z" fill="#840000" stroke="#000000" stroke-linecap="butt"/><path d="M-64.88602,436.18983c1.65169,6.18997 -1.54442,11.50569 -5.67106,12.60684c-4.12664,1.10113 -8.81091,-3.02419 -10.46261,-9.21416c-1.65169,-6.18997 18.4734,-52.64524 22.60006,-53.74636c1.51434,-0.40407 10.21345,1.73693 7.51882,9.18829c-5.06265,13.99969 -15.03079,37.24693 -13.98522,41.1654z" fill="#430000" stroke="none" stroke-linecap="butt"/><path d="M-61.57118,419.21712c3.98099,14.91941 1.2896,28.59329 -6.01138,30.54143c-7.30099,1.94814 -16.44684,-8.56716 -20.42784,-23.48657c-2.12036,-7.94642 5.46689,-35.7548 16.02666,-42.3981c9.26623,-5.8295 21.28912,9.04481 24.70144,8.1343c7.30099,-1.94814 -18.26988,12.28953 -14.28889,27.20894z" fill="none" stroke="#000000" stroke-linecap="butt"/><path d="M-63.7959,415.49453l-21.72788,-5.28469" fill="none" stroke="#000000" stroke-linecap="round"/></g><g data-paper-data="{&quot;index&quot;:null}"><path d="M-35.81996,425.66935c9.29743,12.32865 11.94365,26.01132 5.91048,30.56113c-6.03317,4.54981 -18.46105,-1.75615 -27.75848,-14.0848c-4.95201,-6.5665 -8.37482,-35.18743 -1.08688,-45.31305c6.39521,-8.88524 23.12772,0.37852 25.9475,-1.74796c6.03317,-4.54981 -12.31005,18.25606 -3.01261,30.58468z" fill="#840000" stroke="#000000" stroke-linecap="butt"/><path d="M-32.11569,442.06152c3.85746,5.11506 2.89401,11.24239 -0.51603,13.814c-3.41003,2.57164 -9.30152,0.50978 -13.15895,-4.60529c-3.85746,-5.11506 -2.67167,-55.72835 0.73839,-58.29998c1.25138,-0.9437 10.11725,-2.22985 10.42135,5.68794c0.57136,14.87598 0.07333,40.16532 2.51521,43.40333z" fill="#430000" stroke="none" stroke-linecap="butt"/><path d="M-35.4243,425.08764c9.29743,12.32862 11.94365,26.01132 5.91051,30.5611c-6.03314,4.54981 -18.46105,-1.75618 -27.75848,-14.0848c-4.95201,-6.5665 -8.37482,-35.18743 -1.08688,-45.31305c6.39521,-8.88524 23.12772,0.37852 25.9475,-1.74796c6.03314,-4.54981 -12.31005,18.25606 -3.01261,30.58468z" fill="none" stroke="#000000" stroke-linecap="butt"/><path d="M-61.00603,425.74508l22.12082,-3.27074" fill="none" stroke="#000000" stroke-linecap="round"/></g></g><g data-paper-data="{&quot;index&quot;:null}"><path d="M271.76826,363.26293c5.25152,19.68093 -5.0305,39.51505 -22.96556,44.3007c-17.93504,4.78567 -36.7315,-7.28933 -41.98302,-26.97028c-5.25152,-19.68093 5.03053,-39.51505 22.96556,-44.3007c17.93504,-4.78567 36.73148,7.28936 41.983,26.97028z" fill="#840000" stroke="#000000" stroke-linecap="butt"/><path d="M272.56412,377.42786c2.96458,11.11021 -7.49875,23.55004 -23.37048,27.78515c-15.87173,4.23511 -31.14155,-1.33829 -34.10613,-12.44847c-1.99543,-7.47816 26.39987,15.65845 38.06341,2.08442c2.75765,-3.20936 8.74104,-18.27688 7.08542,-31.01032c-1.74542,-13.4241 -11.14848,-24.47616 -8.48563,-25.18669c15.87173,-4.23511 17.84885,27.66572 20.81341,38.77593z" fill="#430000" stroke="none" stroke-linecap="butt"/><path d="M272.33354,365.09881c5.25152,19.68093 -5.0305,39.51505 -22.96556,44.3007c-17.93506,4.78567 -36.73148,-7.28933 -41.983,-26.97028c-5.25152,-19.68093 5.0305,-39.51505 22.96556,-44.3007c17.93506,-4.78567 36.73148,7.28933 41.983,26.97028z" fill="none" stroke="#000000" stroke-linecap="butt"/><g><path d="M209.5258,418.41775c3.98099,14.91943 1.2896,28.59329 -6.01141,30.54143c-7.30101,1.94814 -16.44684,-8.56713 -20.42784,-23.48657c-2.12036,-7.94642 5.46689,-35.7548 16.02666,-42.3981c9.26623,-5.8295 21.28912,9.04481 24.70144,8.1343c7.30101,-1.94814 -18.26988,12.28953 -14.28889,27.20894z" fill="#840000" stroke="#000000" stroke-linecap="butt"/><path d="M206.79637,435.00008c1.65169,6.18997 -1.54442,11.50569 -5.67106,12.60684c-4.12664,1.10113 -8.81091,-3.02419 -10.46261,-9.21416c-1.65169,-6.18997 18.4734,-52.64524 22.60006,-53.74636c1.51434,-0.40407 10.21342,1.73693 7.5188,9.18829c-5.06265,13.99969 -15.03079,37.24693 -13.98522,41.1654z" fill="#430000" stroke="none" stroke-linecap="butt"/><path d="M210.1112,418.02737c3.98099,14.91941 1.2896,28.59329 -6.01138,30.54143c-7.30099,1.94814 -16.44684,-8.56716 -20.42784,-23.48657c-2.12036,-7.94642 5.46689,-35.7548 16.02666,-42.3981c9.26623,-5.8295 21.28912,9.04481 24.70144,8.1343c7.30099,-1.94814 -18.26988,12.28953 -14.28889,27.20894z" fill="none" stroke="#000000" stroke-linecap="butt"/><path d="M186.15859,409.02009l21.72788,5.28469" fill="none" stroke="#000000" stroke-linecap="round"/></g><g data-paper-data="{&quot;index&quot;:null}"><path d="M288.38976,408.03612c0.88882,-15.41581 -27.0289,-24.20118 -19.48498,-23.76623c3.52585,0.20329 12.30026,-16.791 22.55213,-12.95105c11.68301,4.376 24.72512,30.08156 24.25175,38.29235c-0.88882,15.41581 -7.72488,27.56022 -15.26877,27.12527c-7.54392,-0.43495 -12.93895,-13.28453 -12.05015,-28.70034z" fill="#840000" stroke="#000000" stroke-linecap="butt"/><path d="M272.40535,386.22976c-4.14268,-6.75441 3.94551,-10.60661 5.51022,-10.51639c4.26397,0.24585 33.34846,41.68498 32.9797,48.08091c-0.36876,6.39593 -4.12432,11.38156 -8.38827,11.13571c-4.26394,-0.24585 -8.46688,-4.80734 -8.09812,-11.20327c0.23345,-4.04885 -14.22029,-24.80668 -22.00356,-37.49694z" fill="#430000" stroke="none" stroke-linecap="butt"/><path d="M268.25274,384.00569c3.52587,0.20329 12.30026,-16.791 22.55215,-12.95105c11.68301,4.376 24.72512,30.08156 24.25175,38.29238c-0.88882,15.41581 -7.72488,27.56019 -15.2688,27.12524c-7.5439,-0.43495 -12.93892,-13.28455 -12.0501,-28.70034c0.8888,-15.41581 -27.0289,-24.20118 -19.48498,-23.76623z" fill="none" stroke="#000000" stroke-linecap="butt"/><path d="M289.1655,403.677l20.21471,-9.56006" fill="none" stroke="#000000" stroke-linecap="round"/></g><g data-paper-data="{&quot;index&quot;:null}"><path d="M256.66797,421.94512c3.98099,-14.91941 -21.5899,-29.15708 -14.28889,-27.20894c3.41233,0.91051 15.43521,-13.9638 24.70144,-8.1343c10.55977,6.6433 18.14702,34.45168 16.02666,42.3981c-3.98099,14.91943 -13.12683,25.43471 -20.42784,23.48657c-7.30101,-1.94814 -9.9924,-15.62199 -6.01141,-30.54143z" fill="#840000" stroke="#000000" stroke-linecap="butt"/><path d="M245.41216,397.3621c-2.69463,-7.45136 6.00446,-9.59239 7.5188,-9.18832c4.12666,1.10113 24.25175,47.55639 22.60006,53.74636c-1.65169,6.18997 -6.33597,10.31529 -10.46261,9.21416c-4.12664,-1.10113 -7.32275,-6.41687 -5.67106,-12.60684c1.04557,-3.91847 -8.92255,-27.16571 -13.98519,-41.1654z" fill="#430000" stroke="none" stroke-linecap="butt"/><path d="M241.79373,394.34588c3.41233,0.91051 15.43521,-13.9638 24.70144,-8.1343c10.55977,6.6433 18.14702,34.45168 16.02666,42.3981c-3.98099,14.91941 -13.12685,25.43471 -20.42784,23.48657c-7.30099,-1.94814 -9.99237,-15.62202 -6.01138,-30.54143c3.98099,-14.91941 -21.58987,-29.15708 -14.28889,-27.20894z" fill="none" stroke="#000000" stroke-linecap="butt"/><path d="M280.03513,412.54746l-21.72788,5.28469" fill="none" stroke="#000000" stroke-linecap="round"/></g><g data-paper-data="{&quot;index&quot;:null}"><path d="M230.33139,428.0071c9.29743,-12.32862 -9.04581,-35.13449 -3.01261,-30.58468c2.81978,2.12646 19.55231,-7.13729 25.9475,1.74793c7.28796,10.12562 3.86513,38.74652 -1.08688,45.31303c-9.29743,12.32865 -21.72531,18.63461 -27.7585,14.08482c-6.03319,-4.54981 -3.38695,-18.23248 5.91048,-30.56113z" fill="#840000" stroke="#000000" stroke-linecap="butt"/><path d="M229.14234,400.99585c0.30409,-7.91779 9.16999,-6.63164 10.42137,-5.68794c3.41006,2.57164 4.59583,53.18492 0.73839,58.29998c-3.85743,5.11506 -9.74892,7.17693 -13.15895,4.60529c-3.41003,-2.57164 -4.37348,-8.69893 -0.51603,-13.814c2.4419,-3.23802 1.94388,-28.52733 2.51524,-43.40333z" fill="#430000" stroke="none" stroke-linecap="butt"/><path d="M226.92307,396.84065c2.81978,2.12646 19.55229,-7.13729 25.9475,1.74793c7.28794,10.12562 3.86513,38.74652 -1.08688,45.31303c-9.29743,12.32862 -21.72534,18.63461 -27.7585,14.08482c-6.03314,-4.54981 -3.38693,-18.2325 5.91051,-30.56113c9.29743,-12.32862 -9.04578,-35.13447 -3.01261,-30.58468z" fill="none" stroke="#000000" stroke-linecap="butt"/><path d="M233.39659,424.81201l22.12084,3.27076" fill="none" stroke="#000000" stroke-linecap="round"/></g></g><g stroke-linecap="butt"><path d="M63.37892,371.05128l22.63723,-120.74181l56.29179,10.55384l-22.63723,120.74181z" fill="#1b1b1b" stroke="#000000"/><g><path d="M6.11117,359.37955l7.80067,-41.60698l137.05827,25.69631l-7.80067,41.60698z" fill="#1b1b1b" stroke="#000000"/><g><path d="M13.4159,326.86948c6.25462,-33.36074 26.00762,-111.73563 53.92286,-141.87337c19.82993,-21.4087 46.47368,-1.95787 63.23767,1.18512c21.518,4.03429 45.49843,-8.60099 49.94752,28.85579c3.89647,32.80429 0.45715,109.48179 -4.5375,136.12212c-10.69767,57.05893 -43.78644,49.21825 -84.14968,41.65076c-28.04785,-5.25854 18.63335,-106.98799 5.24555,-127.01017c-5.87837,-8.7914 -86.93039,78.4792 -83.66639,61.06974z" fill="#840000" stroke="#000000"/><path d="M101.47451,261.25881c1.35776,-7.24196 -7.27659,-9.14523 -22.61493,4.17965c-11.29667,9.81374 -47.99168,52.57686 -51.224,50.49091c-12.24216,-7.90035 34.7353,-90.28356 49.0899,-107.7971c14.3867,-17.55269 32.51754,-12.93047 44.49705,-10.6845c14.20318,2.66288 31.28763,2.51099 38.67552,27.14752c8.93113,29.78278 6.2781,87.07378 0.8376,116.09218c-9.94093,53.02263 -44.13913,54.65417 -75.51238,48.77217c-5.85386,-1.09751 6.04209,-8.11029 4.03291,-8.76805c-8.75887,-2.86743 -1.78128,0.28175 6.3048,-42.84752z" fill="#7d3c3c" stroke="#000000"/><path d="M21.40838,321.28735c1.44123,-7.68721 12.71939,-41.01032 30.59479,-70.07627c10.33628,-16.80711 18.46806,-36.47375 29.99419,-46.73318c9.66481,-8.60268 22.98784,-9.3498 29.65341,-8.30137c0.95511,0.15021 25.27852,-7.47304 26.24092,-7.29261c29.54088,5.53846 30.02068,44.33146 26.94714,60.72503c-3.07354,16.39356 -35.35453,-21.53536 -64.89541,-27.07382c-20.58894,-3.86011 -30.55793,15.49727 -37.3027,25.03732c-2.93257,4.14795 -31.47174,54.08557 -30.54035,49.11774z" fill="#5c2c2c" stroke="none"/><path d="M16.17779,334.89022c2.68302,-14.3106 23.31803,-155.17778 66.61677,-147.05993c8.00207,1.50027 -13.5079,25.67986 -28.24248,58.49107c-7.12739,15.8714 -38.08356,69.02607 -29.05681,67.95853c6.47128,-0.76532 38.26635,-30.10277 49.51048,-40.4552c12.61854,-11.61787 21.8289,-27.39427 24.45913,-21.03828c6.40219,15.47108 -9.11598,70.41421 -8.9229,101.75501c0.05706,9.26169 6.27934,13.50711 8.86333,17.7513c18.13021,29.77879 70.36416,4.5954 69.39026,9.78993c-2.68302,14.3106 -39.95861,19.33081 -83.25735,11.21296c-17.09939,-3.20587 -3.06316,-16.03624 -0.0139,-37.13245c3.92406,-27.14849 11.27287,-68.28439 13.03186,-86.16304c0.33527,-3.40778 -3.91271,-6.79183 -3.65281,-8.17805z" fill="#430000" stroke="none"/><path d="M90.96887,357.07485c0.83281,-4.44203 7.44411,-8.81503 2.51505,-9.47873c-5.51723,-0.74292 -21.87637,2.66496 -4.6455,5.89548c32.62481,6.11665 68.11113,-7.92728 66.34613,1.48684c-0.85283,4.54879 -6.75662,21.08926 -19.91897,28.68666c-14.07829,8.12608 -26.01506,8.09885 -42.87597,4.93769c-15.49681,-2.90541 -8.63956,-15.72451 -8.96942,-24.02402c-0.05673,-1.42734 9.74335,0.39611 8.39185,-0.91316c-7.33416,-7.10501 -5.99601,1.58891 -5.21357,-2.58446z" fill="#5c2c2c" stroke="none"/><path d="M77.13046,207.68224c14.38667,-17.5527 32.51752,-12.93047 44.49702,-10.6845c14.2032,2.66288 31.28765,2.51099 38.67554,27.14752c8.93111,29.78278 6.27807,87.0738 0.83757,116.0922c-4.25594,22.70023 -12.958,35.98103 -23.98101,43.28544c-14.72425,9.75704 -33.58975,8.85051 -51.53137,5.48673c-7.48558,-1.40343 -4.97751,-12.0614 -2.85971,-26.54419c4.7085,-32.19966 20.95838,-84.11024 16.55188,-100.95181c-1.18761,-4.53901 -35.68591,19.39189 -55.96614,41.51161c-12.47669,13.60835 -26.21453,26.44455 -25.34016,21.78085c6.14509,-32.77653 35.82563,-88.70763 59.11638,-117.12385z" fill="none" stroke="#000000"/><path d="M69.106,185.03948c19.82993,-21.40873 46.47366,-1.9579 63.23768,1.18509c21.518,4.03429 45.49843,-8.60101 49.94752,28.85579c3.89647,32.80429 0.45712,109.48181 -4.53753,136.12214c-4.31939,23.03866 -12.28919,35.49676 -22.91437,41.66437c-1.42819,0.82904 -2.9044,1.54441 -4.42612,2.15656c-15.19556,6.11261 -34.93405,1.93109 -56.80919,-2.17016c-16.64176,-3.12007 13.17322,-106.76362 7.93879,-134.07117c-3.36704,-17.56556 -42.18956,39.55779 -47.65089,32.25055c-6.64079,-8.88537 -42.15861,54.28105 -38.70873,35.88019c6.25462,-33.36072 26.00762,-111.73561 53.92285,-141.87335z" fill="none" stroke="#000000"/></g></g><g><path d="M180.89759,255.43117c-1.37952,7.35805 -9.43199,48.31558 -25.9435,45.21992c-16.51148,-3.09565 -35.22935,-49.07223 -33.84984,-56.43025c1.37952,-7.35805 34.42885,-37.82222 50.94034,-34.72657c16.51148,3.09565 10.23252,38.57885 8.853,45.9369z" data-paper-data="{&quot;index&quot;:null}" fill="#410000" stroke="#000000"/><path d="M79.40084,192.54386c16.51148,3.09565 36.28111,43.46256 34.90159,50.82061c-1.37952,7.35805 -35.4806,43.43186 -51.99208,40.33621c-16.51148,-3.09565 -9.1808,-44.1885 -7.80128,-51.54655c1.37952,-7.35802 8.38027,-42.70593 24.89178,-39.61027z" fill="#410000" stroke="#000000"/><path d="M180.48012,255.77174c-1.37952,7.35805 -9.43199,48.31558 -25.9435,45.21992c-16.51146,-3.09564 -35.22936,-49.0722 -33.84984,-56.43025c1.37952,-7.35805 34.42885,-37.82222 50.94034,-34.72657c16.51148,3.09565 10.23252,38.57885 8.853,45.9369z" data-paper-data="{&quot;index&quot;:null}" fill="none" stroke="#000000"/><path d="M79.6666,193.01252c16.51146,3.09564 36.28108,43.46256 34.90156,50.8206c-1.37952,7.35805 -35.4806,43.43186 -51.99206,40.33622c-16.51148,-3.09565 -9.1808,-44.1885 -7.80128,-51.54655c1.37952,-7.35802 8.38029,-42.70592 24.89178,-39.61027z" fill="none" stroke="#000000"/><path d="M73.91102,192.65929c2.16694,0.40627 -8.34294,19.8801 -11.18542,31.35849c-4.93802,19.94065 -4.38739,37.34279 -0.89942,43.91073c8.13677,15.32179 44.1132,-20.56381 43.00813,-14.6696c-1.85146,9.87527 -26.72312,30.9196 -41.4363,28.16111c-14.71321,-2.7585 -13.69635,-28.27524 -11.84488,-38.15051c1.85147,-9.87529 7.64472,-53.36872 22.3579,-50.61023z" fill="#170000" stroke="none"/><path d="M179.62646,266.86243c-1.85147,9.87529 -10.14675,34.02742 -24.85993,31.26892c-14.71318,-2.75849 -30.27269,-31.38303 -28.42123,-41.25832c1.10507,-5.89422 21.63914,40.58623 34.77342,29.25244c5.6302,-4.85842 12.44716,-20.87925 15.06772,-41.25439c1.50846,-11.72851 -1.2335,-33.68685 0.93339,-33.28059c14.71318,2.75849 4.35809,45.39667 2.50663,55.27194z" data-paper-data="{&quot;index&quot;:null}" fill="#170000" stroke="none"/><g><path d="M123.70401,223.35147c10.62618,1.99224 17.26864,14.12428 14.83632,27.0977c-2.43231,12.9734 -13.0183,21.87539 -23.6445,19.88314c-10.62618,-1.99224 -17.26864,-14.12428 -14.83632,-27.0977c2.43231,-12.97337 13.01833,-21.87538 23.6445,-19.88314z" fill="#410000" stroke="#000000"/><path d="M123.37774,223.70918c10.62618,1.99224 17.26864,14.12428 14.83632,27.0977c-2.43231,12.9734 -13.01833,21.87538 -23.6445,19.88314c-10.62618,-1.99224 -17.26864,-14.12428 -14.83632,-27.0977c2.43231,-12.9734 13.01833,-21.87538 23.6445,-19.88314z" fill="none" stroke="#000000"/><path d="M99.63721,248.29235c1.81516,-9.68167 6.63617,-27.78997 17.09888,-25.82837c3.27941,0.61484 -8.96455,18.28794 -9.9422,27.10131c-0.72104,6.49995 8.05776,12.55765 9.82718,15.75647c3.4858,6.30177 21.73159,-14.33482 20.90497,-9.92581c-1.81516,9.68165 -11.76834,15.93996 -22.23105,13.97836c-10.46271,-1.9616 -17.47294,-11.40031 -15.65778,-21.08193z" fill="#170000" stroke="none"/></g></g></g><g><path d="M134.76054,141.23183c31.98186,0 57.90829,14.56288 57.90829,32.5271c0,17.96422 -25.92643,32.5271 -57.90829,32.5271c-31.98186,0 -57.90829,-14.56288 -57.90829,-32.5271c0,-17.96422 25.92643,-32.5271 57.90829,-32.5271z" fill="#000000" stroke="#000000" stroke-linecap="butt"/><path d="M72.99462,171.36047c9.39465,-3.40087 43.74301,11.82667 64.43395,12.59862c23.1185,0.86253 32.81368,-12.4975 45.15744,-12.4975c29.80914,0 7.20636,8.36147 7.20636,18.67584c0,10.31437 -24.16507,18.67584 -53.97419,18.67584c-5.01173,0 -9.86391,-0.23634 -14.46853,-0.67858c-22.78316,-2.18819 -39.50569,-9.41701 -39.50569,-17.99726c0,-2.22063 -14.30687,-16.80131 -8.84934,-18.77697z" fill="#ffffff" stroke="#000000" stroke-linecap="butt"/><path d="M104.88019,191.18605c18.98034,4.64423 42.35562,4.75166 56.09775,1.79335c18.26724,-3.93244 19.42846,-14.70713 30.01798,-14.70713c25.65655,0 -5.79083,17.56966 -5.79083,23.50044c0,5.93078 -20.79876,10.73861 -46.45532,10.73861c-12.39471,0 -29.60184,-3.40583 -42.2164,-10.49152c-13.49711,-7.58145 -21.99748,-18.96995 -21.99748,-22.03558c0,-1.64141 13.42624,7.06218 30.34429,11.20182z" fill="#e2e2e2" stroke="none" stroke-linecap="butt"/><path d="M75.05359,172.60553c9.39465,-3.40087 43.74301,11.82667 64.43395,12.59862c23.1185,0.86253 32.81368,-12.4975 45.15744,-12.4975c29.80914,0 7.20636,8.36147 7.20636,18.67584c0,10.31437 -24.16507,18.67584 -53.97419,18.67584c-5.01173,0 -9.86391,-0.23634 -14.46853,-0.67858c-22.78316,-2.18819 -39.50569,-9.41701 -39.50569,-17.99726c0,-2.22063 -14.30687,-16.80131 -8.84934,-18.77697z" fill="none" stroke="#000000" stroke-linecap="butt"/><path d="M65.78905,174.47837c0,-8.4308 5.10015,-15.26531 11.39152,-15.26531c1.57664,0 -3.8972,6.00989 -1.78001,10.18314c1.6311,3.21513 -0.17877,7.04931 1.36194,10.92131c1.85217,4.65479 7.17162,9.43352 10.84937,14.1784c5.13743,6.62811 25.51013,10.05876 25.51013,12.79223c0,1.75212 60.75401,-6.99373 59.27377,-3.18037c-0.12976,0.33427 11.90605,-7.39591 17.01267,-17.69178c3.1799,-6.41122 -0.33213,-17.34122 1.09577,-17.17132c2.54283,0.30257 8.25983,-16.79825 12.78182,-18.58339c2.96602,-1.1709 5.67402,11.16153 5.73854,15.11182c0.06502,3.98189 -14.02892,22.34883 -15.77822,28.76844c-2.40903,8.8408 0.79584,14.5385 -1.28512,15.15669c-18.36025,5.45422 -82.6688,13.45644 -85.68714,11.8946c-9.95308,-5.15025 -25.72682,-31.84919 -29.09353,-31.84919c-6.29137,0 -11.39152,-6.83451 -11.39152,-15.26531z" fill="#840000" stroke="#000000" stroke-linecap="butt"/><path d="M65.27955,158.54005c0,-1.70022 10.34941,22.8425 24.35243,35.36343c11.48168,10.26644 26.61034,20.4886 32.4059,20.4886c12.86382,0 70.13337,-9.63086 70.13337,-6.53655c0,3.09431 -54.69587,12.76183 -67.55967,12.76183c-3.4491,0 -9.60785,2.2791 -18.88073,-3.49089c-7.52218,-4.68061 -14.29877,-14.14486 -21.83659,-21.93483c-4.01613,-4.15047 -9.90714,-7.15693 -12.56762,-10.19275c-9.14842,-10.43907 -9.88012,-25.22576 -9.88012,-26.45882z" fill="#430000" stroke="none" stroke-linecap="butt"/><path d="M66.18832,173.28799c0,-3.43212 -9.63385,-17.71728 -8.20711,-20.26693c2.07795,-3.71338 15.72648,5.56946 19.45664,5.56946c1.57664,0 -3.8972,6.00989 -1.78001,10.18314c1.67199,3.29564 -1.517,7.57029 0.62116,12.45534c2.4554,5.60987 10.34213,11.91135 13.94326,16.55741c5.13745,6.62813 17.27428,6.50146 17.27428,9.23491c0,0.91947 18.35116,-1.15008 35.579,-2.77361c15.60105,-1.47024 30.28094,-2.5747 29.57751,-0.76252c-0.12976,0.3343 11.90605,-7.39591 17.01267,-17.69175c3.1799,-6.41119 -0.33213,-17.34119 1.09577,-17.17129c2.24411,0.26704 6.60057,-18.65625 11.4644,-21.02681c4.26225,-2.07735 9.22706,11.99861 9.30314,16.65636c0.06502,3.98189 -16.27612,23.24772 -18.02543,29.66733c-2.40903,8.8408 0.79584,14.5385 -1.28512,15.15669c-18.36025,5.45419 -82.6688,13.45644 -85.68714,11.89457c-9.95305,-5.15027 -25.7268,-31.84919 -29.09353,-31.84919c-6.29137,0 -11.39152,-6.83451 -11.39152,-15.26531z" fill="none" stroke="#000000" stroke-linecap="butt"/><path d="M94.93834,174.14096l0.18718,23.99562" fill="none" stroke="#000000" stroke-linecap="round"/><path d="M129.00482,185.23326l0.18718,19.01542" fill="none" stroke="#000000" stroke-linecap="round"/><path d="M161.38664,202.2113l-0.37436,-19.46815" fill="none" stroke="#000000" stroke-linecap="round"/><path d="M180.47883,175.04646l1.87179,18.10989" fill="none" stroke="#000000" stroke-linecap="round"/><path d="M67.75555,0.25961c12.86611,0 11.87562,13.76686 19.2665,22.2816c5.4142,6.23748 21.09531,5.81035 21.09531,14.36877c0,20.24143 -18.0706,36.65037 -40.36181,36.65037c-22.29119,0 -40.36179,-16.40892 -40.36179,-36.65037c0,-20.24145 18.07057,-36.65037 40.36179,-36.65037z" fill="#840000" stroke="#000000" stroke-linecap="butt"/><path d="M40.44255,28.13027c-4.29582,16.67344 5.34819,34.94607 15.10567,34.94607c19.84097,0 51.25922,-31.30353 51.25922,-15.33396c0,15.96956 -16.08428,28.91546 -35.92525,28.91546c-13.43184,0 -36.14944,-11.70037 -43.4807,-29.3088c-1.9637,-4.71642 3.05973,-27.72257 13.61011,-37.91767c8.24446,-7.96684 22.42267,-3.67556 22.42267,-5.9384c0,-8.11597 -18.55236,7.40677 -22.99171,24.6373z" fill="#430000" stroke="none" stroke-linecap="butt"/><path d="M68.01031,0.95243c12.66045,0 11.5089,13.5935 18.90897,21.87564c5.6292,6.30018 21.45284,6.02958 21.45284,14.77473c0,20.24145 -18.0706,36.65037 -40.36181,36.65037c-22.29121,0 -40.36181,-16.40895 -40.36181,-36.65037c0,-20.24145 18.0706,-36.65037 40.36181,-36.65037z" fill="none" stroke="#000000" stroke-linecap="butt"/><path d="M66.59692,167.81814v-14.00688c0,0 86.4715,-23.4782 109.70644,-23.4782c21.19113,0 24.13711,23.4782 24.13711,23.4782v14.00688c0,0 -45.42533,6.40315 -67.89195,6.40315c-22.14323,0 -65.9516,-6.40315 -65.9516,-6.40315z" fill="#ffffff" stroke="#000000" stroke-linecap="butt"/><path d="M135.03861,126.74097c39.09641,0 70.79034,8.99854 70.79034,20.09877c0,2.83634 -2.90342,3.94626 -4.59127,6.60211c-1.02877,1.6188 0.6298,5.15334 -2.81719,6.10927c-5.62412,1.55968 -7.57602,-13.29817 -17.10757,-12.89911c-12.55189,0.52549 -33.54722,16.01772 -46.63005,16.01772c-15.32791,0 -46.53839,4.25324 -58.06034,2.70038c-17.86678,-2.40799 -12.37427,-11.78202 -12.37427,-18.53037c0,-11.10022 31.6939,-20.09877 70.79034,-20.09877z" fill="#e2e2e2" stroke="none" stroke-linecap="butt"/><path d="M66.5969,167.81811v-14.00688c0,0 87.14034,-21.3438 111.84086,-21.3438c15.75962,0 22.00268,21.3438 22.00268,21.3438v14.00688c0,0 -46.43248,7.11463 -68.60337,7.11463c-22.44037,0 -65.24018,-7.11463 -65.24018,-7.11463z" fill="none" stroke="#000000" stroke-linecap="butt"/><path d="M136.29069,25.38248c44.69568,0 80.92866,34.00328 80.92866,75.94843c0,21.31641 4.17714,42.44544 -11.05154,51.33673c-6.92627,4.04392 -14.50157,-14.10484 -26.6387,-13.7394c-13.6877,0.41211 -32.21033,19.05272 -43.86097,19.05272c-20.67516,0 -59.94971,5.56889 -74.11133,-1.96487c-16.45307,-8.7528 -6.1948,-32.14285 -6.1948,-54.68519c0,-41.94515 36.23301,-75.94843 80.92866,-75.94843z" fill="#840000" stroke="#000000" stroke-linecap="butt"/><path d="M158.18249,79.04784c23.03546,0 18.94263,19.21124 18.94263,29.52561c0,10.31437 -18.67393,18.67584 -41.70939,18.67584c-23.03546,0 -79.99487,10.31437 -79.99487,0c0,-3.25009 -4.76299,-40.66804 9.31897,-67.407c6.5096,-12.3605 32.22069,-23.66274 37.05591,-26.05664c7.30303,-3.61569 -32.97078,30.22944 -39.39049,58.21238c-3.57398,15.57859 24.39426,27.83672 26.42094,34.4088c2.48752,8.0666 15.45633,-21.24435 28.30513,-33.76057c3.96707,-3.86438 1.91883,-14.48777 2.98804,-14.48777c0,0 11.44164,9.70666 17.63528,9.85136c6.48104,0.15142 20.42784,-8.96204 20.42784,-8.96204z" fill="#430000" stroke="none" stroke-linecap="butt"/><path d="M136.29069,24.75995c44.69568,0 80.92866,34.00328 80.92866,75.94843c0,21.31641 4.17714,42.44544 -11.05154,51.33673c-6.10613,3.56507 -12.27984,-15.90002 -22.73052,-15.33894c-14.77247,0.7931 -34.89524,20.65227 -47.76915,20.65227c-20.67516,0 -59.94971,5.56889 -74.11133,-1.96487c-16.45307,-8.7528 -6.1948,-32.14285 -6.1948,-54.68519c0,-41.94515 36.23301,-75.94843 80.92866,-75.94843z" fill="none" stroke="#000000" stroke-linecap="butt"/><path d="M74.84378,71.60771c4.5784,0 21.89718,20.65347 30.47743,17.79541c8.56469,-2.85287 11.37817,-18.76018 16.8622,-17.20339c9.85674,2.79811 7.00708,21.37438 7.00708,26.98597c0,11.86155 8.95843,24.58986 -8.40413,24.58986c-17.36256,0 -56.3388,5.32501 -56.3388,-6.53655c0,-11.86155 -6.96634,-45.63131 10.39622,-45.63131z" fill="#000000" stroke="#000000" stroke-linecap="butt"/><path d="M206.27493,119.1066c0,11.86155 -38.97624,6.53655 -56.3388,6.53655c-17.36256,0 -8.40413,-12.72831 -8.40413,-24.58986c0,-8.01194 0.85369,-16.85522 16.45626,-18.51879c7.49676,-0.79933 27.89783,-7.56514 33.53275,-7.56514c17.36256,0 14.75392,32.27569 14.75392,44.13724z" data-paper-data="{&quot;index&quot;:null}" fill="#000000" stroke="#000000" stroke-linecap="butt"/><path d="M63.78416,125.2472c13.44369,-4.08608 44.35732,-1.11052 67.89645,-1.11052c25.2603,0 55.01299,-3.19987 68.23294,1.40724c8.01229,2.79224 5.22538,18.61606 5.22538,22.24883c0,5.46224 -6.67517,-12.29889 -23.24699,-10.83692c-12.63476,1.11465 -32.66079,22.04243 -50.21133,22.04243c-17.99096,0 -48.78945,1.57796 -61.56101,-0.9698c-16.02853,-3.19748 -11.89731,-11.10326 -11.89731,-16.46099c0,-4.0412 -4.16476,-13.36396 5.56187,-16.32027z" fill="#7d3c3c" stroke="#000000" stroke-linecap="butt"/><path d="M87.28759,122.60434c6.79524,0 -8.27186,2.15562 -15.92524,7.7695c-7.54183,5.53208 -7.68626,14.51245 0.78018,16.0053c23.05936,4.06596 84.10136,-12.63971 115.88685,-13.64729c17.20506,-0.54538 17.53856,13.8203 17.53856,15.08488c0,2.70578 -8.69405,-11.92363 -22.69884,-10.17146c-13.57806,1.69875 -32.1482,19.82065 -52.62706,19.82065c-41.60134,0 -75.3259,-4.32007 -75.3259,-9.64919c0,-5.32911 -9.22988,-25.21239 32.37146,-25.21239z" fill="#5c2c2c" stroke="none" stroke-linecap="butt"/><path d="M65.02922,124.00214c13.44369,-4.08608 44.35732,-1.11052 67.89645,-1.11052c25.2603,0 55.01299,-3.19987 68.23294,1.40724c8.01229,2.79224 5.22538,18.61606 5.22538,22.24883c0,5.78261 -6.17508,-11.25952 -24.44531,-9.88251c-12.14557,0.91542 -32.81271,21.08804 -49.01301,21.08804c-17.99096,0 -48.78945,1.57796 -61.56101,-0.9698c-16.02853,-3.19748 -11.89731,-11.10326 -11.89731,-16.46099c0,-4.0412 -4.16476,-13.36396 5.56187,-16.32027z" fill="none" stroke="#000000" stroke-linecap="butt"/><path d="M113.55952,102.45946c1.24506,0 1.24506,1.24506 1.24506,1.24506c0,2.07511 0,5.39523 0,7.47034c0,0 0,1.24506 -1.24506,1.24506c-1.24506,0 -1.24506,-1.24506 -1.24506,-1.24506c0,-2.07511 0,-4.15017 0,-6.22528v-1.24506c0,0 0,-1.24506 1.24506,-1.24506z" fill="#ffffff" stroke="none" stroke-linecap="butt"/><path d="M156.51396,99.96934c1.24506,0 1.24506,1.24506 1.24506,1.24506v0.62253c0,3.53843 -0.67467,7.19237 -0.62253,10.58298c0,0 0,1.24506 -1.24506,1.24506c-1.24506,0 -1.24506,-1.24506 -1.24506,-1.24506c0.0386,-3.46903 0.62253,-6.98544 0.62253,-10.58298v-0.62253c0,0 0,-1.24506 1.24506,-1.24506z" fill="#ffffff" stroke="none" stroke-linecap="butt"/><path d="M135.41858,120.11762c12.97894,0 23.50044,4.18072 23.50044,9.33792c0,5.1572 -10.5215,9.33792 -23.50044,9.33792c-12.97894,0 -23.50044,-4.18072 -23.50044,-9.33792c0,-5.1572 10.5215,-9.33792 23.50044,-9.33792z" fill="#000000" stroke="#000000" stroke-linecap="butt"/><path d="M149.7752,18.68731c1.82221,-3.68171 10.75126,-12.09291 14.70177,-24.53578c7.07496,-22.28387 10.74516,-52.35982 18.35903,-54.81871c7.22621,-2.33368 10.41823,11.15857 20.15071,18.23621c11.89211,8.64816 30.17312,11.70916 35.4536,14.32265c3.31367,1.64004 24.80961,-4.74638 25.38373,-0.95807c1.14231,7.53745 -14.39156,20.66896 -24.23856,34.53988c-10.14285,14.28762 -14.69418,29.34964 -19.56135,39.18356c-11.96731,24.17942 -27.848,15.30279 -44.5459,7.03838c-16.6979,-8.26441 -37.67035,-8.82874 -25.70304,-33.00816z" fill="#410000" stroke="#000000" stroke-linecap="butt"/><path d="M164.11292,-1.34509c3.70287,-7.48152 7.01978,-68.14031 24.15138,-59.66123c10.50352,5.19861 -16.58238,39.65345 -8.74928,63.7981c4.94295,15.23608 48.06951,23.67405 46.63689,26.56858c-3.7029,7.48152 -20.59258,6.67285 -37.72418,-1.80623c-17.1316,-8.47908 -28.01773,-21.41771 -24.31483,-28.89923z" fill="#170000" stroke="none" stroke-linecap="butt"/><path d="M149.69223,18.44161c1.82219,-3.68171 10.75124,-12.09288 14.70175,-24.53578c7.07496,-22.28387 10.74516,-52.35982 18.35903,-54.81871c7.12887,-2.30228 9.52583,11.63709 19.13487,18.57375c12.0327,8.68628 31.13079,11.34281 36.46944,13.98512c3.31367,1.64004 24.80959,-4.74638 25.38371,-0.95807c1.14234,7.53745 -14.39153,20.66896 -24.23856,34.53988c-10.14285,14.28764 -14.69418,29.34964 -19.56135,39.18356c-11.96731,24.17942 -27.848,15.30279 -44.5459,7.03838c-16.6979,-8.26443 -37.67035,-8.82874 -25.70304,-33.00816z" fill="none" stroke="#000000" stroke-linecap="butt"/><path d="M229.0669,62.76577c-3.11272,6.2891 -1.47372,18.52661 -15.79185,15.50239c-8.53449,-1.80264 -30.95257,-16.01073 -40.76162,-20.8656c-11.19144,-5.53906 -32.85325,-15.08256 -39.75293,-21.57528c-9.29342,-8.74525 -1.66078,-14.37719 1.19045,-20.13799c2.58578,-5.22448 7.93711,-13.71885 18.81325,-12.46339c10.02024,1.15668 25.14536,11.59294 37.74022,17.82662c11.45788,5.67093 36.32427,13.87214 43.25809,20.51504c8.96097,8.58501 -1.89478,15.53922 -4.69561,21.1982z" data-paper-data="{&quot;index&quot;:null}" fill="#410000" stroke="#000000" stroke-linecap="butt"/><path d="M157.08126,5.92952c7.06838,0.66197 47.96793,19.55249 65.28288,30.11002c14.07275,8.58065 11.90715,10.37077 15.68746,12.24179c1.67012,0.82659 1.93258,13.97869 -4.54899,10.69234c-8.61412,-4.36761 -4.9228,-11.8313 -18.25469,-20.68539c-14.60944,-9.70257 -52.12553,-23.57091 -60.36909,-23.86818c-5.23693,-0.18885 -9.33747,1.89662 -12.21174,4.59802c-3.72483,3.50082 -5.39025,8.03602 -4.80059,9.99613c3.12813,10.39851 86.71015,43.03572 84.81846,46.85782c-3.64924,7.3731 -41.11574,-11.0618 -61.6086,-21.2045c-20.49285,-10.1427 -34.14731,-24.34205 -30.4981,-31.71514c2.1478,-4.33952 8.17374,-18.73947 26.50299,-17.02291z" fill="#170000" stroke="none" stroke-linecap="butt"/><path d="M229.24482,63.29233c-3.11272,6.2891 -1.4737,18.52661 -15.79185,15.50239c-8.53449,-1.80262 -30.95257,-16.01073 -40.76165,-20.8656c-11.19144,-5.53906 -32.85323,-15.08256 -39.75293,-21.57528c-9.29342,-8.74525 -1.66078,-14.37719 1.19045,-20.13799c2.58578,-5.22446 7.93713,-13.71885 18.81325,-12.46339c10.02024,1.15666 25.14536,11.59294 37.74022,17.82662c11.45788,5.67093 36.32427,13.87214 43.25809,20.51507c8.96097,8.58501 -1.89478,15.53922 -4.69561,21.1982z" data-paper-data="{&quot;index&quot;:null}" fill="none" stroke="#000000" stroke-linecap="butt"/><path d="M96.26402,170.85152v-11.38338" fill="none" stroke="#000000" stroke-linecap="round"/><path d="M132.19276,158.75672v14.22923" fill="none" stroke="#000000" stroke-linecap="round"/><path d="M169.18876,172.27447l-1.06721,-28.45845" fill="none" stroke="#000000" stroke-linecap="round"/><path d="M92.40584,82.14858l6.84781,-12.45056l-22.41101,-11.82803l9.96045,-6.22528l-0.62253,-8.09287" fill="none" stroke="#000000" stroke-linecap="round"/><path d="M135.1662,143.48662l0.33024,9.57675" fill="none" stroke="#000000" stroke-linecap="round"/></g><g stroke-linecap="butt"><path d="M-89.07208,602.91952c0,-24.10606 36.22085,-43.64791 80.90154,-43.64791c44.68069,0 80.90152,19.54181 80.90152,43.64791c0,12.02413 -0.67143,26.2488 -15.2499,34.14298c-14.64854,7.93213 -43.25771,9.50493 -65.65164,9.50493c-23.99475,0 -62.23045,-0.07562 -77.04602,-9.02758c-12.77253,-7.71751 -3.85552,-23.45987 -3.85552,-34.62033z" fill="#840000" stroke="#000000"/><path d="M-90.70109,626.03367c0,-4.19116 16.0552,5.69078 47.24926,7.96029c33.45357,2.43389 82.81614,-2.8023 102.25122,-10.16823c8.71071,-3.30137 6.30252,-18.39401 -3.34327,-30.92184c-10.51983,-13.66305 -28.48965,-24.69676 -20.77374,-24.69676c45.29485,0 38.64368,44.929 38.64368,57.82651c0,12.89751 -36.71873,23.35302 -82.01357,23.35302c-45.29485,0 -82.0136,-10.45551 -82.0136,-23.35302z" fill="#430000" stroke="none"/><path d="M-132.70859,613.19756c0,-24.10608 16.26437,-43.64791 36.32743,-43.64791c20.06309,0 36.32743,19.54181 36.32743,43.64791c0,12.02413 -0.3015,26.2488 -6.84768,34.14298c-6.57768,7.93213 -19.42415,9.50493 -29.47975,9.50493c-10.77442,0 -27.9435,-0.07562 -34.59618,-9.02758c-5.7353,-7.71751 -1.73128,-23.4599 -1.73128,-34.62033z" fill="#840000" stroke="#000000"/><path d="M-6.4634,560.42279c44.68069,0 80.90154,19.54183 80.90154,43.64791c0,12.02413 -0.67146,26.2488 -15.2499,34.14298c-14.64854,7.93213 -43.25771,9.50493 -65.65164,9.50493c-23.99475,0 -62.23043,-0.0756 -77.04602,-9.02755c-12.77253,-7.71751 -3.85552,-23.45992 -3.85552,-34.62036c0,-24.10608 36.22085,-43.64791 80.90154,-43.64791z" fill="none" stroke="#000000"/><path d="M-133.44004,636.31164c0,-4.19116 7.20932,5.69075 21.21648,7.96027c15.02175,2.43389 37.18714,-2.80227 45.91414,-10.16818c3.91139,-3.30137 2.83004,-18.39401 -1.50124,-30.92184c-4.72374,-13.66305 -12.79278,-24.69676 -9.32809,-24.69676c20.33887,0 17.35227,44.92903 17.35227,57.82654c0,12.89754 -16.48791,23.35302 -36.82677,23.35302c-20.33887,0 -36.82677,-10.45551 -36.82677,-23.35302z" fill="#430000" stroke="none"/><path d="M-131.94204,614.34867c0,-24.10608 16.26434,-43.64791 36.32743,-43.64791c20.06309,0 36.32743,19.54186 36.32743,43.64791c0,12.02413 -0.3015,26.2488 -6.84768,34.14298c-6.57768,7.93215 -19.42412,9.50491 -29.47972,9.50491c-10.77442,0 -27.9435,-0.0756 -34.59618,-9.02755c-5.7353,-7.71751 -1.73125,-23.4599 -1.73125,-34.62033z" fill="none" stroke="#000000"/><path d="M-30.15682,611.72551c0,-24.10608 16.26437,-43.64791 36.32743,-43.64791c20.06309,0 36.32743,19.54181 36.32743,43.64791c0,12.02413 -0.3015,26.2488 -6.84768,34.14298c-6.57768,7.93213 -19.42415,9.50493 -29.47975,9.50493c-10.77442,0 -27.9435,-0.07562 -34.59618,-9.02758c-5.7353,-7.71751 -1.73128,-23.4599 -1.73128,-34.62033z" fill="#840000" stroke="#000000"/><path d="M-30.88826,634.83961c0,-4.19116 7.20932,5.69075 21.21648,7.96027c15.02175,2.43389 37.18714,-2.80227 45.91414,-10.16818c3.91139,-3.30137 2.83004,-18.39401 -1.50124,-30.92184c-4.72374,-13.66305 -12.79278,-24.69676 -9.32809,-24.69676c20.33887,0 17.35227,44.92903 17.35227,57.82654c0,12.89754 -16.48791,23.35302 -36.82677,23.35302c-20.33887,0 -36.82677,-10.45551 -36.82677,-23.35302z" fill="#430000" stroke="none"/><path d="M-29.39026,612.87661c0,-24.10608 16.26434,-43.64791 36.32743,-43.64791c20.06309,0 36.32743,19.54186 36.32743,43.64791c0,12.02413 -0.3015,26.2488 -6.84768,34.14298c-6.57768,7.93215 -19.42412,9.50491 -29.47972,9.50491c-10.77442,0 -27.9435,-0.0756 -34.59618,-9.02755c-5.7353,-7.71751 -1.73125,-23.4599 -1.73125,-34.62033z" fill="none" stroke="#000000"/><path d="M-87.07551,611.23483c0,-24.10608 16.26437,-43.64791 36.32743,-43.64791c20.06309,0 36.32743,19.54181 36.32743,43.64791c0,12.02413 -0.3015,26.2488 -6.84768,34.14298c-6.57768,7.93213 -19.42415,9.50493 -29.47975,9.50493c-10.77442,0 -27.9435,-0.07562 -34.59618,-9.02758c-5.7353,-7.71751 -1.73128,-23.4599 -1.73128,-34.62033z" fill="#840000" stroke="#000000"/><path d="M-87.80696,634.34893c0,-4.19116 7.20932,5.69075 21.21648,7.96027c15.02175,2.43389 37.18714,-2.80227 45.91414,-10.16818c3.91139,-3.30137 2.83004,-18.39401 -1.50124,-30.92184c-4.72374,-13.66305 -12.79278,-24.69676 -9.32809,-24.69676c20.33887,0 17.35227,44.92903 17.35227,57.82654c0,12.89754 -16.48791,23.35302 -36.82677,23.35302c-20.33887,0 -36.82677,-10.45551 -36.82677,-23.35302z" fill="#430000" stroke="none"/><path d="M-86.30896,612.38596c0,-24.10608 16.26434,-43.64791 36.32743,-43.64791c20.06309,0 36.32743,19.54186 36.32743,43.64791c0,12.02413 -0.3015,26.2488 -6.84768,34.14298c-6.57768,7.93215 -19.42412,9.50491 -29.47972,9.50491c-10.77442,0 -27.9435,-0.0756 -34.59618,-9.02755c-5.7353,-7.71751 -1.73125,-23.4599 -1.73125,-34.62033z" fill="none" stroke="#000000"/></g><g data-paper-data="{&quot;index&quot;:null}" stroke-linecap="butt"><path d="M262.26771,607.27722c0,11.16046 8.91702,26.90283 -3.85552,34.62033c-14.81557,8.95195 -53.05127,9.02758 -77.04602,9.02758c-22.39393,0 -51.00311,-1.5728 -65.65164,-9.50493c-14.57846,-7.89418 -15.2499,-22.11885 -15.2499,-34.14298c0,-24.10611 36.22083,-43.64791 80.90152,-43.64791c44.68069,0 80.90154,19.54186 80.90154,43.64791z" fill="#840000" stroke="#000000"/><path d="M263.89671,630.39134c0,12.89751 -36.71875,23.35302 -82.0136,23.35302c-45.29485,0 -82.01357,-10.45551 -82.01357,-23.35302c0,-12.89751 -6.65117,-57.82651 38.64368,-57.82651c7.71591,0 -10.25391,11.03371 -20.77374,24.69676c-9.6458,12.52783 -12.05399,27.62048 -3.34327,30.92184c19.43508,7.36593 68.79765,12.60211 102.25122,10.16823c31.19406,-2.26951 47.24926,-12.15145 47.24926,-7.96029z" fill="#430000" stroke="none"/><path d="M305.90421,617.55526c0,11.16044 4.00403,26.90283 -1.73128,34.62033c-6.65268,8.95195 -23.82176,9.02758 -34.59618,9.02758c-10.0556,0 -22.90206,-1.5728 -29.47975,-9.50493c-6.54618,-7.89418 -6.84768,-22.11885 -6.84768,-34.14298c0,-24.10611 16.26434,-43.64791 36.32743,-43.64791c20.06306,0 36.32743,19.54183 36.32743,43.64791z" fill="#840000" stroke="#000000"/><path d="M260.56053,608.4284c0,11.16044 8.91702,26.90285 -3.85552,34.62036c-14.8156,8.95195 -53.05127,9.02755 -77.04602,9.02755c-22.39393,0 -51.00311,-1.5728 -65.65164,-9.50493c-14.57844,-7.89418 -15.2499,-22.11885 -15.2499,-34.14298c0,-24.10608 36.22085,-43.64791 80.90154,-43.64791c44.68069,0 80.90154,19.54183 80.90154,43.64791z" fill="none" stroke="#000000"/><path d="M306.63561,640.66936c0,12.89751 -16.48791,23.35302 -36.82677,23.35302c-20.33887,0 -36.82677,-10.45548 -36.82677,-23.35302c0,-12.89751 -2.98659,-57.82654 17.35227,-57.82654c3.46469,0 -4.60434,11.03371 -9.32809,24.69676c-4.33128,12.52783 -5.41263,27.62048 -1.50124,30.92184c8.727,7.3659 30.89239,12.60206 45.91414,10.16818c14.00716,-2.26951 21.21648,-12.15143 21.21648,-7.96027z" fill="#430000" stroke="none"/><path d="M305.13761,618.70637c0,11.16044 4.00405,26.90283 -1.73125,34.62033c-6.65268,8.95195 -23.82176,9.02755 -34.59618,9.02755c-10.0556,0 -22.90204,-1.57276 -29.47972,-9.50491c-6.54618,-7.89418 -6.84768,-22.11885 -6.84768,-34.14298c0,-24.10606 16.26434,-43.64791 36.32743,-43.64791c20.06309,0 36.32743,19.54183 36.32743,43.64791z" fill="none" stroke="#000000"/><path d="M203.35244,616.08321c0,11.16044 4.00403,26.90283 -1.73128,34.62033c-6.65268,8.95195 -23.82176,9.02758 -34.59618,9.02758c-10.0556,0 -22.90206,-1.5728 -29.47975,-9.50493c-6.54618,-7.89418 -6.84768,-22.11885 -6.84768,-34.14298c0,-24.10611 16.26434,-43.64791 36.32743,-43.64791c20.06306,0 36.32743,19.54183 36.32743,43.64791z" fill="#840000" stroke="#000000"/><path d="M204.08384,639.19733c0,12.89751 -16.48791,23.35302 -36.82677,23.35302c-20.33887,0 -36.82677,-10.45548 -36.82677,-23.35302c0,-12.89751 -2.98659,-57.82654 17.35227,-57.82654c3.46469,0 -4.60434,11.03371 -9.32809,24.69676c-4.33128,12.52783 -5.41263,27.62048 -1.50124,30.92184c8.727,7.3659 30.89239,12.60206 45.91414,10.16818c14.00716,-2.26951 21.21648,-12.15143 21.21648,-7.96027z" fill="#430000" stroke="none"/><path d="M202.58583,617.23431c0,11.16044 4.00405,26.90283 -1.73125,34.62033c-6.65268,8.95195 -23.82176,9.02755 -34.59618,9.02755c-10.0556,0 -22.90204,-1.57276 -29.47972,-9.50491c-6.54618,-7.89418 -6.84768,-22.11885 -6.84768,-34.14298c0,-24.10606 16.26434,-43.64791 36.32743,-43.64791c20.06309,0 36.32743,19.54183 36.32743,43.64791z" fill="none" stroke="#000000"/><path d="M260.27113,615.59253c0,11.16044 4.00403,26.90283 -1.73128,34.62033c-6.65268,8.95195 -23.82176,9.02758 -34.59618,9.02758c-10.0556,0 -22.90206,-1.5728 -29.47975,-9.50493c-6.54618,-7.89418 -6.84768,-22.11885 -6.84768,-34.14298c0,-24.10611 16.26434,-43.64791 36.32743,-43.64791c20.06306,0 36.32743,19.54183 36.32743,43.64791z" fill="#840000" stroke="#000000"/><path d="M261.00253,638.70665c0,12.89751 -16.48791,23.35302 -36.82677,23.35302c-20.33887,0 -36.82677,-10.45548 -36.82677,-23.35302c0,-12.89751 -2.98659,-57.82654 17.35227,-57.82654c3.46469,0 -4.60434,11.03371 -9.32809,24.69676c-4.33128,12.52783 -5.41263,27.62048 -1.50124,30.92184c8.727,7.3659 30.89239,12.60206 45.91414,10.16818c14.00716,-2.26951 21.21648,-12.15143 21.21648,-7.96027z" fill="#430000" stroke="none"/><path d="M259.50453,616.74366c0,11.16044 4.00405,26.90283 -1.73125,34.62033c-6.65268,8.95195 -23.82176,9.02755 -34.59618,9.02755c-10.0556,0 -22.90204,-1.57276 -29.47972,-9.50491c-6.54618,-7.89418 -6.84768,-22.11885 -6.84768,-34.14298c0,-24.10606 16.26434,-43.64791 36.32743,-43.64791c20.06309,0 36.32743,19.54183 36.32743,43.64791z" fill="none" stroke="#000000"/></g></g></g></svg>