<svg version="1.1" xmlns="http://www.w3.org/2000/svg" xmlns:xlink="http://www.w3.org/1999/xlink" width="173.64352" height="200.0248" viewBox="0,0,173.64352,200.0248"><g transform="translate(-153.17824,-80.1126)"><g data-paper-data="{&quot;isPaintingLayer&quot;:true}" fill-rule="nonzero" stroke-linejoin="miter" stroke-miterlimit="10" stroke-dasharray="" stroke-dashoffset="0" style="mix-blend-mode: normal"><g><path d="M208.29614,212.89604c0,-6.32375 3.65857,-40.0209 13.45892,-54.6033c4.64319,-6.90883 13.06757,-1.7717 18.6824,-1.7717c17.466,0 31.10867,47.05519 31.10867,56.375c0,9.3198 -14.159,16.875 -31.625,16.875c-17.466,0 -31.625,-7.5552 -31.625,-16.875z" fill="#737373" stroke="#000000" stroke-width="0" stroke-linecap="butt"/><path d="M211.08369,215.12329c0,-2.00721 2.03084,-49.94895 10.04419,-54.67507c7.06548,-4.16708 -9.5036,14.30094 -0.37981,22.98995c4.79464,4.56616 28.7019,4.13766 40.3314,3.9388c6.55742,-0.11213 3.41375,0.53082 4.98917,0.50687c0.06513,-0.00099 2.11984,1.95271 -1.74534,2.39967c-10.17423,1.17652 -34.68671,2.28862 -44.64771,7.54001c-13.02147,6.86486 -6.94358,18.29978 -6.71691,18.29978c5.29064,0 15.40897,4.83239 23.63473,4.111c17.21259,-1.50952 33.74027,-8.75455 33.74027,-5.111c0,5.38478 -13.26356,9.75 -29.625,9.75c-16.36144,0 -29.625,-4.36522 -29.625,-9.75z" fill="#484848" stroke="none" stroke-width="0" stroke-linecap="butt"/><path d="M221.82948,155.79274c4.49637,-6.90882 12.65438,-1.7717 18.09166,-1.7717c16.91372,0 30.125,47.05519 30.125,56.375c0,9.31981 -13.71128,16.875 -30.625,16.875c-16.91372,0 -30.625,-7.55519 -30.625,-16.875c0,-6.32375 3.54288,-40.0209 13.03334,-54.6033z" fill="none" stroke="#000000" stroke-width="5" stroke-linecap="butt"/><path d="M212.54614,192.52104l52,0.5" fill="none" stroke="#000000" stroke-width="5" stroke-linecap="round"/><path d="M213.31687,177.81927l9.25,-4l6,2.75" fill="none" stroke="#000000" stroke-width="2" stroke-linecap="round"/><path d="M268.28904,200.96549l-9,5.25l-9.75,-4.75" fill="none" stroke="#000000" stroke-width="2" stroke-linecap="round"/></g><g data-paper-data="{&quot;index&quot;:null}" stroke-linecap="butt"><path d="M323.98843,189.88739c0,10.0792 -8.45063,18.25 -18.875,18.25c-10.42437,0 -18.875,-8.1708 -18.875,-18.25c0,-10.0792 8.45063,-18.25 18.875,-18.25c10.42437,0 18.875,8.1708 18.875,18.25z" fill="#737373" stroke="#000000" stroke-width="0"/><path d="M323.96943,197.02464c0,6.07513 -8.35735,11 -18.66666,11c-10.30932,0 -18.66667,-4.92487 -18.66667,-11c0,-6.07513 -3.64265,-20.66666 6.66667,-20.66666c3.92848,0 -1.14817,6.8085 -0.94021,13.36316c0.12929,4.07495 4.75507,8.0518 7.38866,10.23358c2.00395,1.66017 8.17544,3.91787 13.4312,2.56242c5.88287,-1.51718 10.78702,-6.71829 10.78702,-5.4925z" fill="#484848" stroke="none" stroke-width="0"/><path d="M324.32176,190.22072c0,10.0792 -8.45063,18.25 -18.875,18.25c-10.42437,0 -18.875,-8.1708 -18.875,-18.25c0,-10.0792 8.45063,-18.25 18.875,-18.25c10.42437,0 18.875,8.1708 18.875,18.25z" fill="none" stroke="#000000" stroke-width="5"/></g><g data-paper-data="{&quot;index&quot;:null}" stroke-linecap="butt"><path d="M305.59537,265.55407c0,10.07919 -26.45063,11.75 -36.875,11.75c-10.42437,0 -25.625,-2.6708 -25.625,-12.75c0,-4.24123 -0.05851,-17.1184 3.83605,-21.34535c5.36079,-5.81832 15.75105,-2.40465 21.78895,-2.40465c10.42437,0 36.875,14.6708 36.875,24.75z" fill="#737373" stroke="#000000" stroke-width="0"/><path d="M306.43874,266.90552c0,5.4308 -13.87918,9.83334 -31,9.83334c-17.12082,0 -31,-4.40254 -31,-9.83334c0,-5.4308 -9.45416,-24.5 7.66667,-24.5c3.86606,0 -2.46492,5.05417 -4.18327,11.52958c-1.60424,6.04545 1.3255,13.45807 6.33058,15.6541c6.49884,2.85145 21.00269,4.57602 32.14174,2.8619c11.78612,-1.81369 20.04428,-7.11854 20.04428,-5.54558z" fill="#484848" stroke="none" stroke-width="0"/><path d="M305.26204,265.8874c0,10.07919 -26.45063,11.75 -36.875,11.75c-10.42437,0 -25.625,-2.6708 -25.625,-12.75c0,-4.24123 -0.05851,-17.1184 3.83605,-21.34535c5.36079,-5.81832 15.75105,-2.40465 21.78895,-2.40465c10.42437,0 36.875,14.6708 36.875,24.75z" fill="none" stroke="#000000" stroke-width="5"/></g><path d="M205.77953,154.3368v0z" fill="#ffffff" stroke="#000000" stroke-width="5" stroke-linecap="butt"/><g stroke-linecap="butt"><path d="M211.2199,240.80407c6.0379,0 16.42816,-3.41367 21.78895,2.40465c3.89456,4.22695 3.83605,17.10412 3.83605,21.34535c0,10.0792 -15.20063,12.75 -25.625,12.75c-10.42437,0 -36.875,-1.67081 -36.875,-11.75c0,-10.0792 26.45063,-24.75 36.875,-24.75z" fill="#737373" stroke="#000000" stroke-width="0"/><path d="M193.54581,272.4511c11.13905,1.71412 25.6429,-0.01046 32.14174,-2.8619c5.00507,-2.19604 7.93482,-9.60865 6.33058,-15.6541c-1.71834,-6.47541 -8.04933,-11.52958 -4.18327,-11.52958c17.12083,0 7.66667,19.0692 7.66667,24.5c0,5.4308 -13.87917,9.83333 -31,9.83333c-17.12083,0 -31,-4.40253 -31,-9.83333c0,-1.57296 8.25816,3.73189 20.04428,5.54558z" fill="#484848" stroke="none" stroke-width="0"/><path d="M211.55324,241.1374c6.0379,0 16.42816,-3.41367 21.78895,2.40465c3.89456,4.22695 3.83605,17.10412 3.83605,21.34535c0,10.0792 -15.20063,12.75 -25.625,12.75c-10.42437,0 -36.875,-1.67081 -36.875,-11.75c0,-10.0792 26.45063,-24.75 36.875,-24.75z" fill="none" stroke="#000000" stroke-width="5"/></g><g stroke-linecap="butt"><path d="M174.88657,176.30406c10.42437,0 18.875,8.1708 18.875,18.25c0,10.0792 -8.45063,18.25 -18.875,18.25c-10.42437,0 -18.875,-8.1708 -18.875,-18.25c0,-10.0792 8.45063,-18.25 18.875,-18.25z" fill="#737373" stroke="#000000" stroke-width="0"/><path d="M156.03058,201.6913c0,-1.22579 4.90415,3.97532 10.78702,5.4925c5.25576,1.35545 11.42724,-0.90225 13.4312,-2.56242c2.63358,-2.18178 7.25936,-6.15862 7.38865,-10.23358c0.20796,-6.55465 -4.86869,-13.36316 -0.94021,-13.36316c10.30932,0 6.66667,14.59154 6.66667,20.66667c0,6.07513 -8.35735,11 -18.66667,11c-10.30932,0 -18.66667,-4.92487 -18.66667,-11z" fill="#484848" stroke="none" stroke-width="0"/><path d="M174.55324,176.63739c10.42437,0 18.875,8.1708 18.875,18.25c0,10.0792 -8.45063,18.25 -18.875,18.25c-10.42437,0 -18.875,-8.1708 -18.875,-18.25c0,-10.0792 8.45063,-18.25 18.875,-18.25z" fill="none" stroke="#000000" stroke-width="5"/></g><g><path d="M240.32175,82.3626c22.43657,0 40.625,17.62879 40.625,39.375c0,21.74621 -18.18843,39.375 -40.625,39.375c-22.43657,0 -40.625,-17.62879 -40.625,-39.375c0,-21.74621 18.18843,-39.375 40.625,-39.375z" fill="#737373" stroke="#000000" stroke-width="0" stroke-linecap="butt"/><path d="M263.8033,144.61684c13.61348,-6.85605 7.23239,-28.85194 14.69685,-28.85194c16.70661,0 -7.5,28.78312 -7.5,34.375c0,5.59188 -13.54339,10.125 -30.25,10.125c-16.70661,0 -30.25,-4.53312 -30.25,-10.125c0,-3.09345 36.44753,2.96579 53.30315,-5.52306z" fill="#484848" stroke="none" stroke-width="0" stroke-linecap="butt"/><path d="M240.57175,82.6126c22.43657,0 40.625,17.62879 40.625,39.375c0,21.74621 -18.18843,39.375 -40.625,39.375c-22.43657,0 -40.625,-17.62879 -40.625,-39.375c0,-21.74621 18.18843,-39.375 40.625,-39.375z" fill="none" stroke="#000000" stroke-width="5" stroke-linecap="butt"/><path d="M239.77953,113.83679c11.04569,0 20,5.37258 20,12c0,6.62742 -8.95431,12 -20,12c-11.04569,0 -20,-5.37258 -20,-12c0,-6.62742 8.95431,-12 20,-12z" fill="#484848" stroke="none" stroke-width="0" stroke-linecap="butt"/><path d="M224.52953,111.33679c4.00406,0 7.25,5.70837 7.25,12.75c0,7.04163 -3.24594,12.75 -7.25,12.75c-4.00406,0 -7.25,-5.70837 -7.25,-12.75c0,-7.04163 3.24594,-12.75 7.25,-12.75z" fill="#000000" stroke="#000000" stroke-width="5" stroke-linecap="butt"/><path d="M255.40453,119.83679c4.90153,0 8.875,2.96611 8.875,6.625c0,3.65889 -3.97347,6.625 -8.875,6.625c-4.90153,0 -8.875,-2.96611 -8.875,-6.625c0,-3.65889 3.97347,-6.625 8.875,-6.625z" fill="#ffffff" stroke="#000000" stroke-width="5" stroke-linecap="butt"/><path d="M204.22283,105.08101l11,1.25l2.25,12.5" fill="none" stroke="#000000" stroke-width="5" stroke-linecap="round"/><path d="M220.82175,143.24096l0.66667,4.66667" fill="none" stroke="#000000" stroke-width="3.5" stroke-linecap="round"/><path d="M235.82175,140.24096v2.33333" fill="none" stroke="#000000" stroke-width="3.5" stroke-linecap="round"/><path d="M258.82175,144.57429v-2.33333" fill="none" stroke="#000000" stroke-width="3.5" stroke-linecap="round"/></g></g></g></svg>