<svg version="1.1" xmlns="http://www.w3.org/2000/svg" xmlns:xlink="http://www.w3.org/1999/xlink" width="585.97977" height="619.23545" viewBox="0,0,585.97977,619.23545"><g transform="translate(224.49705,54.34816)"><g data-paper-data="{&quot;isPaintingLayer&quot;:true}" fill-rule="nonzero" stroke-width="8" stroke-linejoin="miter" stroke-miterlimit="10" stroke-dasharray="" stroke-dashoffset="0" style="mix-blend-mode: normal"><g data-paper-data="{&quot;index&quot;:null}"><g stroke-linecap="butt"><path d="M316.54903,431.30843c2.33037,19.01818 -11.80931,57.32109 -30.25399,59.58118c-18.44468,2.2601 -87.06842,-160.39723 -89.39881,-179.41542c-1.49666,-12.21421 -5.70566,-24.81344 2.84422,-32.06633c4.76273,-4.04024 19.73447,-5.65282 26.33328,-6.46139c18.44465,-2.2601 88.14494,139.34377 90.47532,158.36196z" fill="#840000" stroke="#000000"/><path d="M316.78672,423.82885c3.68651,30.08558 -11.91677,56.75295 -31.14792,59.10942c-19.23118,2.35648 -84.18275,-139.96957 -87.86926,-170.05514c-2.43229,-19.84986 30.7373,63.62818 60.04996,112.78443c15.11537,25.34785 30.21681,31.57217 36.75968,30.77044c19.23118,-2.35648 18.52105,-62.6947 22.20756,-32.60912z" fill="#430000" stroke="none"/><path d="M316.36866,429.83616c2.33037,19.01818 -11.80931,57.32109 -30.25399,59.58118c-18.44465,2.2601 -87.06842,-160.39723 -89.39881,-179.41542c-1.26214,-10.30035 -19.14875,-24.1662 -12.97054,-31.32848c5.229,-6.06189 33.6931,-6.16321 42.14803,-7.19922c18.44465,-2.2601 88.14494,139.34377 90.47532,158.36196z" fill="none" stroke="#000000"/></g><path d="M279.7285,345.36121l-46.00695,47.91061" fill="none" stroke="#000000" stroke-linecap="round"/></g><g><g stroke-linecap="butt"><path d="M38.21513,218.43941c10.14576,2.66129 29.68739,9.57812 34.68489,17.4643c4.92422,7.77049 -4.60299,16.46186 -7.01573,25.6601c-4.86142,18.53344 -100.33113,169.03154 -120.47381,163.74801c-20.14268,-5.28353 -31.19552,-45.70954 -26.3341,-64.24299c4.86142,-18.53344 98.99608,-147.91298 119.13873,-142.62945z" fill="#840000" stroke="#000000"/><path d="M-59.62379,389.68021c7.14521,1.87422 24.60588,-1.83171 44.37685,-24.55712c38.34106,-44.07061 85.0696,-121.64554 79.99559,-102.30162c-7.69046,29.31875 -97.40313,163.04628 -118.40474,157.53744c-21.00159,-5.50883 -34.3235,-37.45024 -26.63304,-66.76899c7.69046,-29.31875 -0.33627,30.58145 20.66532,36.09028z" fill="#430000" stroke="none"/><path d="M38.59145,217.00462c9.45517,2.48014 31.33913,7.95356 36.39477,15.08333c5.71458,8.05901 -6.14623,18.20739 -8.72565,28.04106c-4.86142,18.53344 -100.33113,169.03154 -120.47381,163.74801c-20.14268,-5.28353 -31.19552,-45.70954 -26.3341,-64.24299c4.86142,-18.53344 98.99608,-147.91298 119.13873,-142.62945z" fill="none" stroke="#000000"/></g><path d="M15.31142,336.86569l-45.1694,-55.22701" fill="none" stroke="#000000" stroke-linecap="round"/></g><g stroke-linecap="butt"><path d="M-3.12715,389.28257c10.65671,-40.62714 41.93698,-135.62777 79.04601,-170.37007c26.36086,-24.6796 57.53554,1.67414 77.95094,7.02921c26.2049,6.87368 56.91652,-6.61141 59.11102,40.01371c1.92192,40.83384 -9.07269,135.17533 -17.58265,167.61827c-18.22682,69.48709 -58.37865,56.89663 -107.53352,44.00305c-49.15484,-12.89357 -109.2186,-18.80707 -90.99177,-88.29419z" fill="#840000" stroke="#000000"/><path d="M15.26108,394.91148c10.4701,-39.91571 38.95805,-113.59094 70.20747,-146.61539c19.30278,-20.3992 41.2751,-13.09798 55.86389,-9.27126c17.29681,4.53704 38.39778,5.8534 45.34818,36.91296c8.40226,37.54751 0.08462,108.02916 -9.18497,143.36813c-16.93748,64.57164 -59.29247,63.57523 -97.49921,53.5534c-38.20674,-10.02183 -81.67283,-13.37623 -64.73535,-77.94787z" fill="#7d3c3c" stroke="#000000"/><path d="M52.78895,301.70741c5.06614,-19.3139 42.22569,-73.09721 76.84086,-65.09422c1.16569,0.26948 31.85948,-6.99899 33.0315,-6.69157c35.97526,9.4365 33.15279,57.36154 27.91605,77.32584c-5.23674,19.96429 -41.74304,-29.69346 -77.7183,-39.12996c-35.97526,-9.4365 -65.30681,53.55421 -60.07008,33.58992z" fill="#5c2c2c" stroke="none"/><path d="M-7.15096,421.02266c4.57136,-17.42763 49.16792,-211.08267 101.89767,-197.25138c9.74503,2.55617 -18.93344,30.50805 -40.00873,69.71045c-25.70466,47.81358 -45.4151,110.12544 -36.99373,135.43866c22.0347,66.23269 168.75223,31.91128 166.05612,42.18979c-4.57136,17.42763 -51.0231,20.34303 -103.75286,6.51174c-52.72976,-13.83129 -91.76987,-39.17165 -87.19851,-56.59928z" fill="#430000" stroke="none"/><path d="M15.42724,416.72954c3.00724,-11.46466 32.46651,1.63055 72.19743,12.05217c39.73091,10.42163 84.76843,-3.78939 81.7612,7.67524c-1.45306,5.53958 -10.19615,25.43607 -27.1114,33.65506c-18.09235,8.79093 -45.00653,5.57285 -65.53996,0.18683c-22.11784,-5.80162 -44.81036,-12.68875 -55.39297,-24.51227c-8.42726,-9.4154 -7.24743,-23.97467 -5.91429,-29.05706z" fill="#5c2c2c" stroke="none"/><path d="M86.00798,247.77638c19.30275,-20.39921 41.27507,-13.09798 55.86387,-9.27127c17.29684,4.53705 38.39781,5.8534 45.34821,36.91297c8.40223,37.5475 0.08459,108.02918 -9.18501,143.36815c-16.93747,64.57161 -59.29247,63.57523 -97.49921,53.5534c-38.20674,-10.02183 -81.67279,-13.37626 -64.73532,-77.94786c10.47009,-39.91568 38.95805,-113.59094 70.20747,-146.61539z" fill="none" stroke="#000000"/><path d="M78.09638,219.12163c26.36087,-24.67963 57.53552,1.6741 77.95095,7.02918c26.2049,6.87368 56.91652,-6.61144 59.11102,40.01371c1.92192,40.83384 -9.07273,135.17536 -17.58268,167.6183c-18.22682,69.48709 -58.37865,56.89663 -107.53352,44.00305c-49.15484,-12.89357 -109.2186,-18.80707 -90.99177,-88.29419c10.6567,-40.62711 41.93697,-135.62774 79.04601,-170.37004z" fill="none" stroke="#000000"/></g><g><path d="M112.20588,6.43337c27.35552,3.54508 46.92196,26.55578 43.70285,51.39586c-3.21909,24.84005 -28.00472,42.10305 -55.36024,38.55797c-27.35549,-3.54507 -46.92193,-26.55577 -43.70282,-51.39585c3.2191,-24.84008 28.00468,-42.10306 55.36021,-38.55797z" fill="#840000" stroke="#000000" stroke-linecap="butt"/><path d="M74.25524,36.29223c-7.92344,19.77828 1.00558,43.73596 12.97986,45.28774c24.34861,3.15541 67.88307,-30.26331 65.34336,-10.66566c-2.53972,19.59767 -24.33701,32.92676 -48.68563,29.77134c-16.48339,-2.13613 -42.5014,-20.10758 -48.6979,-42.88237c-1.65975,-6.10024 8.16372,-33.53422 22.7324,-44.36764c11.38452,-8.46565 28.10138,-0.94461 28.46125,-3.72153c1.29073,-9.95983 -23.94518,6.13902 -32.13335,26.57813z" fill="#430000" stroke="none" stroke-linecap="butt"/><path d="M112.40831,7.3241c27.35552,3.54508 46.92195,26.55581 43.70285,51.39586c-3.2191,24.84008 -28.00472,42.10305 -55.36024,38.55797c-27.35552,-3.54508 -46.92195,-26.55581 -43.70285,-51.39586c3.2191,-24.84008 28.00472,-42.10305 55.36024,-38.55797z" fill="none" stroke="#000000" stroke-linecap="butt"/><path d="M81.76411,197.28163c13.14514,-9.68539 59.4868,-1.14978 92.57734,3.13852c29.16219,3.77922 56.87507,-0.68238 69.3315,10.20869c6.14243,5.37054 6.27127,24.99311 5.54895,30.56686c-2.18713,16.87693 -39.25828,25.98398 -82.80076,20.34118c-43.54248,-5.6428 -77.06759,-23.89863 -74.88045,-40.77556c0.52499,-4.05113 -13.9286,-20.4205 -9.77658,-23.47972z" fill="#000000" stroke="none" stroke-linecap="butt"/><g stroke-linecap="butt"><path d="M63.86442,203.25893c1.34079,-10.34618 9.99718,-17.75246 19.33459,-16.5424c2.33997,0.30325 -6.73987,6.62569 -4.26132,12.15427c4.20511,9.37973 20.58429,21.36581 29.20081,33.32807c6.57067,9.12205 28.89677,15.85224 28.46206,19.20672c-0.27865,2.15018 83.577,4.32364 80.7736,8.71864c-0.24575,0.38526 18.84674,-6.7862 28.06323,-18.43897c5.7391,-7.25616 2.26492,-21.34482 4.35716,-20.86168c6.16965,1.42474 18.61555,-3.14738 17.27121,9.1226c-0.53675,4.89904 -13.60736,14.90723 -17.22454,22.44884c-4.98141,10.38597 -1.13095,17.99455 -4.31778,18.35294c-28.11705,3.16199 -124.83411,0.6133 -129.06546,-1.88392c-13.95294,-8.23467 -33.1177,-44.03318 -38.11445,-44.68073c-9.33742,-1.21007 -15.81995,-10.57825 -14.47916,-20.92443z" fill="#840000" stroke="#000000"/><path d="M68.79582,192.33588c0.2704,-2.0865 8.57463,21.28834 27.36618,39.34721c15.40797,14.80721 36.2357,30.26152 44.83726,31.37624c19.09202,2.47419 105.62111,1.67038 105.12899,5.46769c-0.49211,3.79731 -83.20723,5.14111 -102.29924,2.66692c-5.11905,-0.6634 -14.6221,0.94894 -27.46695,-7.91544c-10.41979,-7.1908 -18.97219,-20.1086 -28.92068,-31.11815c-5.30052,-5.86586 -13.56561,-10.68841 -17.03141,-14.92565c-11.91758,-14.5703 -1.81029,-23.38556 -1.61419,-24.89876z" fill="#430000" stroke="none"/><path d="M64.34534,202.54447c1.34079,-10.34618 9.99718,-17.75246 19.33459,-16.5424c2.33997,0.30325 -6.73987,6.62569 -4.26132,12.15427c4.20511,9.37973 20.58429,21.36581 29.20081,33.32807c6.5707,9.12209 28.89681,15.85227 28.46209,19.20671c-0.27865,2.15014 83.57699,4.32361 80.77361,8.71861c-0.24574,0.38529 18.84674,-6.7862 28.06322,-18.43894c5.73911,-7.25613 2.26492,-21.34479 4.35715,-20.86165c6.16965,1.42474 18.61558,-3.14737 17.27121,9.1226c-0.53675,4.89904 -13.60736,14.90723 -17.22454,22.44884c-4.98141,10.38597 -1.13095,17.99455 -4.31778,18.35294c-28.11704,3.16196 -124.83411,0.6133 -129.06545,-1.88395c-13.9529,-8.23471 -33.11767,-44.03317 -38.11442,-44.68072c-9.33742,-1.21007 -15.81995,-10.57825 -14.47916,-20.92443z" fill="none" stroke="#000000"/></g><path d="M84.13633,211.87499l2.22758,-17.18909l164.25125,21.28581l-2.22758,17.18909z" fill="#ffffff" stroke="#000000" stroke-linecap="butt"/><path d="M84.1363,211.87495l2.22758,-17.18909l164.25125,21.28581l-2.22758,17.18909z" fill="none" stroke="#000000" stroke-linecap="butt"/><path d="M192.316,48.16335c54.85001,7.10817 93.90699,54.59892 87.23625,106.07352c-3.39005,26.15925 -1.62417,52.75286 -21.72666,61.24226c-19.45398,8.21553 -60.38598,-1.19563 -87.36135,-4.69146c-25.3723,-3.28808 -74.45523,-2.70003 -90.63608,-14.19756c-18.79902,-13.35794 -2.49035,-40.43051 1.09467,-68.09421c6.67074,-51.4746 56.54317,-87.44072 111.39317,-80.33255z" fill="#840000" stroke="#000000" stroke-linecap="butt"/><path d="M180.98213,127.19646c28.26885,3.66345 49.85551,16.89436 48.21516,29.55203c-1.64034,12.65767 -25.88654,19.94896 -54.15539,16.28553c-28.26885,-3.66345 -99.80912,-0.06431 -98.16877,-12.72199c0.51688,-3.98848 0.62256,-50.66483 22.15621,-81.23905c9.95426,-14.13341 43.30407,-23.91443 49.6185,-26.08322c9.53722,-3.27569 -45.2689,31.85371 -57.59736,65.17309c-6.86349,18.54949 25.50934,38.04044 26.95127,46.42794c1.76979,10.29484 22.34642,-23.61272 40.10484,-36.92908c5.48291,-4.11143 21.56348,-0.6353 22.87559,-0.46526z" fill="#430000" stroke="none" stroke-linecap="butt"/><path d="M192.415,47.39938c54.85001,7.10817 93.90699,54.59892 87.23625,106.07352c-3.39005,26.15925 -1.62417,52.75286 -21.72666,61.24226c-19.45398,8.21553 -60.38598,-1.19563 -87.36135,-4.69146c-25.3723,-3.28808 -74.45523,-2.70003 -90.63608,-14.19756c-18.79902,-13.35794 -2.49035,-40.43051 1.09467,-68.09421c6.67074,-51.4746 56.54317,-87.44072 111.39317,-80.33255z" fill="none" stroke="#000000" stroke-linecap="butt"/><path d="M110.4014,111.38475c21.30714,2.76125 63.35041,11.66349 61.46401,26.21986c-1.8864,14.55635 7.08303,31.6011 -14.22409,28.83984c-21.30714,-2.76125 -69.98518,-2.42505 -68.09878,-16.98141c1.8864,-14.55635 -0.44827,-40.83954 20.85886,-38.07829z" fill="#000000" stroke="#000000" stroke-linecap="butt"/><path d="M263.2944,174.31042c-1.8864,14.55635 -48.87073,1.82299 -70.17786,-0.93827c-21.30714,-2.76125 -8.2892,-16.95659 -6.4028,-31.51294c1.8864,-14.55635 44.81007,-12.44748 66.11719,-9.68622c21.30714,2.76125 12.34987,27.58108 10.46347,42.13744z" data-paper-data="{&quot;index&quot;:null}" fill="#000000" stroke="#000000" stroke-linecap="butt"/><path d="M87.45482,159.1851c17.14778,-2.87637 54.61141,5.69156 83.49835,9.4351c30.99915,4.01727 68.02019,4.82214 83.51087,12.57837c9.38851,4.70083 3.45192,23.67642 2.87418,28.13453c-1.531,11.81386 -42.14235,8.52086 -91.92927,2.06883c-22.0783,-2.86119 -60.1248,-5.82278 -75.39272,-10.98048c-19.16152,-6.47301 -12.83443,-15.51788 -11.98237,-22.09282c0.6427,-4.95932 -2.98562,-17.06244 9.42094,-19.14352z" fill="#7d3c3c" stroke="#000000" stroke-linecap="butt"/><path d="M116.71828,159.67968c8.33904,1.08068 -10.49394,1.32983 -20.77889,7.00197c-10.13504,5.5895 -11.74047,16.58713 -1.58798,19.76559c42.61896,13.3428 164.08215,18.56458 163.50949,22.9835c-0.84752,6.53982 -42.92092,6.47798 -93.97363,-0.13808c-51.05268,-6.61607 -91.75203,-17.28099 -90.90453,-23.82083c0.84752,-6.53982 -7.31714,-32.40823 43.73554,-25.79215z" fill="#5c2c2c" stroke="none" stroke-linecap="butt"/><path d="M89.18074,157.85518c17.14778,-2.87637 54.61141,5.69156 83.49835,9.4351c30.99915,4.01727 68.02019,4.82214 83.51087,12.57837c9.38851,4.70083 3.45192,23.67642 2.87418,28.13453c-1.53099,11.81383 -42.14235,8.52086 -91.92927,2.06883c-22.0783,-2.86119 -60.1248,-5.82278 -75.39272,-10.98048c-19.16152,-6.47301 -12.83443,-15.51788 -11.98237,-22.09282c0.6427,-4.95932 -2.98562,-17.06244 9.42094,-19.14352z" fill="none" stroke="#000000" stroke-linecap="butt"/><path d="M152.16264,139.13627c1.52792,0.19801 1.32991,1.72593 1.32991,1.72593c-0.33002,2.54656 -0.85803,6.62096 -1.18804,9.16752c0,0 -0.19801,1.52792 -1.72593,1.32991c-1.52792,-0.19801 -1.32991,-1.72593 -1.32991,-1.72593c0.33002,-2.54656 0.66002,-5.09304 0.99004,-7.6396l0.19801,-1.52792c0,0 0.19801,-1.52792 1.72593,-1.32991z" fill="#ffffff" stroke="none" stroke-linecap="butt"/><path d="M205.27185,142.91169c1.52792,0.19801 1.32991,1.72593 1.32991,1.72593l-0.099,0.76396c-0.56273,4.34231 -1.97179,8.7191 -2.44702,12.8883c0,0 -0.19801,1.52792 -1.72593,1.32991c-1.52792,-0.19801 -1.32991,-1.72593 -1.32991,-1.72593c0.59906,-4.25101 1.87489,-8.47344 2.44702,-12.8883l0.099,-0.76396c0,0 0.19801,-1.52792 1.72593,-1.32991z" fill="#ffffff" stroke="none" stroke-linecap="butt"/><path d="M151.97315,156.97787l0.19801,-1.52792c0.55698,-3.60288 2.34488,-4.77176 3.82691,-6.83518c0.1218,-2.927 1.04626,-8.79733 0.0462,-12.14928c0,0 -0.34094,-1.14275 0.28003,-2.16081c0.62097,-1.0181 0.96188,0.12465 0.96188,0.12465c0.99737,3.34298 -0.56519,6.82505 -0.17034,8.8557c0.24303,1.24994 1.00783,1.36434 0.86349,3.34725c-0.08638,1.1869 -0.42785,1.24338 -0.65445,1.14833c0.03492,0.07052 0.06821,0.15655 0.09921,0.26041c0.11841,0.39688 0.12081,0.77872 0.07346,1.10808c-0.03818,0.33056 -0.13783,0.69918 -0.35349,1.05276c-0.87328,1.43174 -3.48546,3.71106 -3.61254,5.42441l-0.19801,1.52792c0,0 -0.19801,1.52792 -0.87817,1.43977c-0.68017,-0.08814 -0.48216,-1.61607 -0.48216,-1.61607z" data-paper-data="{&quot;index&quot;:null}" fill="#ffffff" stroke="none" stroke-linecap="butt"/><path d="M197.1793,165.55504c-0.68017,-0.08814 -0.48216,-1.61607 -0.48216,-1.61607l0.19801,-1.52792c0.31386,-1.68913 -1.63102,-4.55903 -2.1105,-6.16604c-0.11841,-0.39688 -0.12081,-0.77872 -0.07346,-1.10808c0.03818,-0.33056 0.13783,-0.69918 0.35349,-1.05276c0.05646,-0.09252 0.11054,-0.16722 0.16232,-0.22652c-0.24337,0.03418 -0.55912,-0.10747 -0.34012,-1.27721c0.36589,-1.95422 1.13457,-1.86988 1.6882,-3.01658c0.89942,-1.86292 0.27606,-5.6283 2.09264,-8.60658c0,0 0.62097,-1.0181 0.96188,0.12465c0.34094,1.14275 -0.28003,2.16081 -0.28003,2.16081c-1.82145,2.9863 -2.42393,8.89834 -3.05227,11.75971c0.90713,2.37301 2.33801,3.95902 1.9582,7.58489l-0.19801,1.52792c0,0 -0.19801,1.52792 -0.87817,1.43977z" data-paper-data="{&quot;index&quot;:null}" fill="#ffffff" stroke="none" stroke-linecap="butt"/><path d="M205.63427,165.48555l0.19801,-1.52792c0.55698,-3.60288 2.34488,-4.77176 3.82691,-6.83518c0.1218,-2.927 1.04626,-8.79733 0.0462,-12.14928c0,0 -0.34094,-1.14275 0.28003,-2.16081c0.62097,-1.0181 0.96188,0.12465 0.96188,0.12465c0.99737,3.34298 -0.56519,6.82505 -0.17034,8.8557c0.24303,1.24994 1.00783,1.36434 0.86349,3.34725c-0.08638,1.1869 -0.42785,1.24338 -0.65445,1.14833c0.03492,0.07052 0.06821,0.15655 0.09921,0.26041c0.11841,0.39688 0.12081,0.77872 0.07346,1.10808c-0.03818,0.33056 -0.13783,0.69918 -0.35349,1.05276c-0.87328,1.43174 -3.48546,3.71106 -3.61254,5.42441l-0.19801,1.52792c0,0 -0.19801,1.52792 -0.87817,1.43977c-0.68017,-0.08814 -0.48216,-1.61607 -0.48216,-1.61607z" data-paper-data="{&quot;index&quot;:null}" fill="#ffffff" stroke="none" stroke-linecap="butt"/><path d="M176.17953,164.28251c15.9276,2.0641 28.17458,8.86793 27.35441,15.19678c-0.82018,6.32885 -14.39692,9.78611 -30.32452,7.722c-15.9276,-2.0641 -28.17458,-8.86793 -27.35441,-15.19678c0.82018,-6.32885 14.39692,-9.78611 30.32452,-7.722z" fill="#000000" stroke="#000000" stroke-linecap="butt"/><path d="M115.74826,204.70819l-0.99004,7.6396" fill="none" stroke="#000000" stroke-linecap="round"/><path d="M161.58581,210.64841l-1.28705,9.93148" fill="none" stroke="#000000" stroke-linecap="round"/><path d="M193.71497,226.46398l2.7795,-12.45682" fill="none" stroke="#000000" stroke-linecap="round"/><path d="M230.43451,230.83417l3.508,-15.08118" fill="none" stroke="#000000" stroke-linecap="round"/><g stroke-linecap="butt"><path d="M209.92879,42.09162c2.82172,-4.22835 15.11702,-13.13044 21.94389,-27.77192c12.22622,-26.22134 21.51338,-62.54651 31.24808,-64.35315c20.52822,-3.80981 52.0313,41.43977 63.05896,48.7989c3.80567,2.53963 31.20091,-1.87911 31.303,2.86117c0.20311,9.43153 -20.94824,23.07594 -35.23833,38.53216c-14.71942,15.92053 -22.70015,33.68065 -30.23702,44.97468c-18.53152,27.76948 -36.60841,14.35059 -55.78556,1.55306c-19.17713,-12.79754 -44.82453,-16.82543 -26.29303,-44.59491z" fill="#410000" stroke="#000000"/><path d="M230.7097,19.78828c5.73394,-8.59235 19.45129,-82.50461 39.12651,-69.37465c12.06303,8.0501 -26.65599,46.02508 -20.88315,76.90086c3.64286,19.48364 55.22534,36.69725 53.00693,40.02155c-5.73398,8.59234 -26.33219,4.91391 -46.00742,-8.21604c-19.67523,-13.12996 -30.97687,-30.73936 -25.24289,-39.3317z" fill="#170000" stroke="none"/><path d="M209.86605,41.77692c2.82169,-4.22836 15.11698,-13.13042 21.94386,-27.77192c12.22622,-26.22134 21.51338,-62.54651 31.24808,-64.35315c20.52819,-3.80982 52.0313,41.43977 63.05896,48.7989c3.80567,2.53963 31.20088,-1.8791 31.30297,2.86117c0.20315,9.43154 -20.9482,23.07595 -35.23833,38.53216c-14.71943,15.92056 -22.70015,33.68065 -30.23702,44.97468c-18.53152,27.76948 -36.60841,14.35059 -55.78556,1.55306c-19.17713,-12.79757 -44.82453,-16.82543 -26.29303,-44.59491z" fill="none" stroke="#000000"/><path d="M300.22464,108.79435c-4.82008,7.22289 -4.75492,22.50128 -21.84499,16.5129c-10.18674,-3.56945 -35.43837,-24.57072 -46.70383,-32.08855c-12.8531,-8.57729 -37.91847,-23.73396 -45.35311,-32.79903c-10.01398,-12.21005 0.24839,-17.90764 4.66355,-24.52379c4.00412,-6.00019 11.92211,-15.57334 25.06952,-12.30296c12.11276,3.01304 29.0144,18.22571 43.47931,27.87863c13.15909,8.78151 42.37057,22.80056 49.82321,32.05538c9.63148,11.96053 -4.79653,18.76822 -9.13364,25.26742z" data-paper-data="{&quot;index&quot;:null}" fill="#410000" stroke="#000000"/><path d="M220.92361,27.59733c8.56896,1.93649 55.75616,31.62318 75.32585,47.33292c15.90528,12.76813 12.963,14.62055 17.30459,17.51784c1.91809,1.27999 0.14854,17.46183 -7.28292,12.39808c-9.87655,-6.72982 -4.15962,-15.30212 -19.11225,-28.28801c-16.38548,-14.2303 -60.21924,-37.21572 -70.28838,-38.89155c-6.39666,-1.06462 -11.76047,0.84253 -15.71734,3.70054c-5.12783,3.70379 -7.89285,9.00447 -7.48096,11.50368c2.18508,13.25842 99.56551,66.60288 96.6362,70.99247c-5.65089,8.46782 -48.69755,-20.11375 -72.2331,-35.81984c-23.53555,-15.70608 -38.03395,-35.3029 -32.3831,-43.77073c3.32589,-4.98383 13.01096,-21.69694 35.23141,-16.67541z" fill="#170000" stroke="none"/><path d="M300.35922,109.46883c-4.82008,7.22289 -4.75489,22.50127 -21.84499,16.5129c-10.18674,-3.56942 -35.43837,-24.57072 -46.70386,-32.08855c-12.8531,-8.57729 -37.91844,-23.73397 -45.35311,-32.79903c-10.01398,-12.21005 0.24839,-17.90764 4.66355,-24.52379c4.00412,-6.00016 11.92214,-15.57334 25.06952,-12.30296c12.11277,3.01301 29.0144,18.22571 43.47931,27.87863c13.15909,8.78151 42.37057,22.80056 49.82321,32.05541c9.63148,11.96053 -4.79653,18.76822 -9.13364,25.26742z" data-paper-data="{&quot;index&quot;:null}" fill="none" stroke="#000000"/></g></g><g><path d="M-151.99236,358.4264c12.46504,-21.90843 38.75475,-30.46024 58.71968,-19.10096c19.96494,11.35925 26.04483,38.32809 13.57979,60.23651c-12.46504,21.90846 -38.75478,30.46023 -58.71971,19.10095c-19.96497,-11.35926 -26.04483,-38.32809 -13.57979,-60.23651z" fill="#840000" stroke="#000000" stroke-linecap="butt"/><path d="M-157.3923,375.13128c7.0367,-12.36767 19.41908,-49.93086 37.08718,-39.8784c2.96424,1.68652 -11.76083,11.96311 -18.06476,27.48318c-5.97961,14.72157 -3.54847,34.63535 -1.25531,39.34263c9.69895,19.90951 50.95108,1.1312 46.21473,9.45574c-7.03672,12.36764 -27.06391,14.24452 -44.73201,4.19205c-17.6681,-10.05246 -26.28655,-28.22757 -19.24982,-40.59523z" fill="#430000" stroke="none" stroke-linecap="butt"/><path d="M-94.52566,341.34535c19.96497,11.35926 26.04483,38.32809 13.57979,60.23651c-12.46504,21.90846 -38.75472,30.46025 -58.71968,19.10096c-19.96497,-11.35926 -26.04483,-38.32809 -13.57979,-60.23651c12.46504,-21.90846 38.75472,-30.46025 58.71968,-19.10096z" fill="none" stroke="#000000" stroke-linecap="butt"/><g><path d="M-94.8076,443.98648c9.4493,-16.608 -16.6878,-41.67833 -8.56045,-37.0542c3.79854,2.1612 22.85948,-11.86792 32.12049,-1.98095c10.55381,11.26718 10.90448,46.93479 5.87158,55.78059c-9.44931,16.60803 -23.69795,26.32286 -31.82529,21.69873c-8.12735,-4.62413 -7.05567,-21.83616 2.39364,-38.44419z" fill="#840000" stroke="#000000" stroke-linecap="butt"/><path d="M-100.56199,411.02761c-0.88586,-9.76499 10.19882,-9.59646 11.88455,-8.63735c4.59372,2.61364 14.09713,64.53727 10.17667,71.42782c-3.92046,6.89055 -10.82256,10.35767 -15.41625,7.74404c-4.59369,-2.61364 -6.75033,-9.9798 -2.82987,-16.87036c2.48178,-4.36196 -2.15077,-35.31761 -3.81509,-53.66415z" fill="#430000" stroke="none" stroke-linecap="butt"/><path d="M-103.94617,406.28129c3.79854,2.1612 22.85948,-11.86792 32.12049,-1.98095c10.55381,11.26718 10.90448,46.93479 5.87158,55.78059c-9.4493,16.608 -23.69798,26.32285 -31.82529,21.69873c-8.12732,-4.62412 -7.05563,-21.83618 2.39367,-38.44418c9.4493,-16.608 -16.68777,-41.67832 -8.56045,-37.0542z" fill="none" stroke="#000000" stroke-linecap="butt"/><path d="M-91.55406,439.57809l27.66657,0.49631" fill="none" stroke="#000000" stroke-linecap="round"/></g><g data-paper-data="{&quot;index&quot;:null}"><path d="M-185.94497,406.79932c-3.77623,18.73116 -14.26818,32.4177 -23.43452,30.56973c-9.16631,-1.84794 -13.53583,-18.53055 -9.7596,-37.26171c2.0113,-9.97664 25.69291,-36.65025 41.05091,-38.22007c13.47667,-1.3775 18.64361,21.71881 22.92773,22.58248c9.16631,1.84794 -27.00835,3.5984 -30.78454,22.32951z" fill="#840000" stroke="#000000" stroke-linecap="butt"/><path d="M-198.07593,423.6904c-1.56673,7.77143 -8.02963,11.91178 -13.21058,10.86731c-5.18095,-1.04447 -8.11087,-8.19119 -6.54414,-15.96262c1.56673,-7.77143 49.3902,-48.24072 54.57118,-47.19623c1.90122,0.38328 10.37296,7.53364 3.29369,14.31771c-13.30055,12.74601 -37.11836,33.05424 -38.11017,37.97383z" fill="#430000" stroke="none" stroke-linecap="butt"/><path d="M-185.08151,406.68785c-3.77619,18.73114 -14.26818,32.4177 -23.43449,30.56976c-9.16628,-1.84793 -13.53583,-18.53058 -9.7596,-37.26171c2.0113,-9.97664 25.69291,-36.65025 41.05091,-38.22007c13.47667,-1.3775 18.64361,21.71881 22.92773,22.58248c9.16628,1.84793 -27.00835,3.5984 -30.78454,22.32951z" fill="none" stroke="#000000" stroke-linecap="butt"/><path d="M-206.69944,383.54829l21.19456,17.78976" fill="none" stroke="#000000" stroke-linecap="round"/></g><g data-paper-data="{&quot;index&quot;:null}"><path d="M-152.34227,433.40751c0.08085,19.10784 -7.43378,34.62985 -16.78444,34.66941c-9.35065,0.03956 -16.99637,-15.41828 -17.07722,-34.52612c-0.04305,-10.17725 17.76951,-41.08055 32.49489,-45.71687c12.92157,-4.06837 22.64239,17.51036 27.01267,17.49188c9.35065,-0.03956 -25.72679,8.97388 -25.64593,28.08169z" fill="#840000" stroke="#000000" stroke-linecap="butt"/><path d="M-160.81564,452.39886c0.03355,7.92771 -5.46102,13.28692 -10.74616,13.30932c-5.28513,0.02237 -9.59679,-6.38618 -9.63034,-14.31389c-0.03355,-7.92771 38.64081,-57.21406 43.92597,-57.23642c1.93946,-0.0082 11.67972,5.28573 6.11488,13.35867c-10.45523,15.16752 -29.68557,39.8638 -29.66434,44.88232z" fill="#430000" stroke="none" stroke-linecap="butt"/><path d="M-151.51908,433.12409c0.08086,19.10781 -7.43378,34.62985 -16.78441,34.66941c-9.35062,0.03956 -16.99636,-15.41831 -17.07722,-34.52612c-0.04305,-10.17725 17.76951,-41.08055 32.49489,-45.71687c12.92157,-4.06837 22.64239,17.51036 27.01267,17.49188c9.35062,-0.03956 -25.72679,8.97388 -25.64593,28.08169z" fill="none" stroke="#000000" stroke-linecap="butt"/><path d="M-153.01314,427.96973l-24.34812,-13.14741" fill="none" stroke="#000000" stroke-linecap="round"/></g><g data-paper-data="{&quot;index&quot;:null}"><path d="M-122.72174,448.93217c7.25783,17.67597 6.12932,34.88437 -2.52063,38.43608c-8.64994,3.55171 -21.54571,-7.89822 -28.80354,-25.57419c-3.86568,-9.4146 1.02343,-44.74729 12.9259,-54.57905c10.44448,-8.62737 27.56405,7.71444 31.60686,6.05446c8.64994,-3.55171 -20.46643,17.98677 -13.20859,35.6627z" fill="#840000" stroke="#000000" stroke-linecap="butt"/><path d="M-123.43449,469.71586c3.01125,7.33363 -0.06575,14.36528 -4.95482,16.37276c-4.88908,2.0075 -11.29357,-2.3102 -14.30479,-9.64383c-3.01125,-7.33363 14.29906,-67.54328 19.18817,-69.55078c1.79414,-0.73668 12.81002,0.50746 10.68808,10.08019c-3.9867,17.98531 -12.52286,48.09921 -10.61666,52.74165z" fill="#430000" stroke="none" stroke-linecap="butt"/><path d="M-122.06548,448.36008c7.25784,17.67594 6.12932,34.88437 -2.52059,38.43605c-8.64991,3.55171 -21.54571,-7.89825 -28.80354,-25.57419c-3.86568,-9.4146 1.02343,-44.74729 12.9259,-54.57905c10.44448,-8.62737 27.56405,7.71444 31.60686,6.05446c8.64991,-3.55171 -20.46643,17.98677 -13.20859,35.6627z" fill="none" stroke="#000000" stroke-linecap="butt"/><path d="M-125.38757,444.14543l-27.50459,-3.0303" fill="none" stroke="#000000" stroke-linecap="round"/></g></g><g data-paper-data="{&quot;index&quot;:null}"><path d="M313.09002,455.79226c0.10666,25.20605 -18.42776,45.71842 -41.39781,45.8156c-22.97003,0.09722 -41.67743,-20.25754 -41.78409,-45.46362c-0.10666,-25.20605 18.42779,-45.71841 41.39781,-45.8156c22.97003,-0.09722 41.67739,20.25757 41.78406,45.46361z" fill="#840000" stroke="#000000" stroke-linecap="butt"/><path d="M309.59532,472.99687c0.06022,14.22923 -16.36965,25.83403 -36.69713,25.92006c-20.32748,0.08603 -36.85493,-11.37933 -36.91516,-25.60853c-0.04054,-9.57754 26.68327,27.03122 44.90585,14.44567c4.30843,-2.97565 16.20102,-19.13224 18.2172,-34.89344c2.12555,-16.61608 -5.65952,-32.7972 -2.24912,-32.81162c20.32748,-0.08603 12.67816,38.71867 12.73835,52.9479z" fill="#430000" stroke="none" stroke-linecap="butt"/><path d="M313.19022,458.16712c0.10666,25.20605 -18.42776,45.71842 -41.39781,45.8156c-22.97006,0.09721 -41.6774,-20.25754 -41.78406,-45.46361c-0.10666,-25.20605 18.42776,-45.71842 41.39781,-45.8156c22.97006,-0.09721 41.6774,20.25754 41.78406,45.46361z" fill="none" stroke="#000000" stroke-linecap="butt"/><g><path d="M221.27159,502.26803c0.08085,19.10784 -7.43378,34.62985 -16.78444,34.66941c-9.35065,0.03956 -16.99637,-15.41828 -17.07722,-34.52612c-0.04305,-10.17725 17.76951,-41.08055 32.49489,-45.71687c12.92157,-4.06837 22.64239,17.51036 27.01267,17.49188c9.35065,-0.03956 -25.72679,8.97388 -25.64593,28.08169z" fill="#840000" stroke="#000000" stroke-linecap="butt"/><path d="M212.79822,521.25939c0.03355,7.92771 -5.46102,13.28692 -10.74616,13.30932c-5.28513,0.02237 -9.59679,-6.38618 -9.63034,-14.31389c-0.03355,-7.92771 38.64081,-57.21406 43.92597,-57.23642c1.93946,-0.0082 11.67969,5.28572 6.11485,13.35866c-10.45523,15.16752 -29.68557,39.8638 -29.66434,44.88232z" fill="#430000" stroke="none" stroke-linecap="butt"/><path d="M222.09478,501.98461c0.08086,19.10781 -7.43378,34.62985 -16.78441,34.66941c-9.35062,0.03956 -16.99636,-15.41831 -17.07722,-34.52612c-0.04305,-10.17725 17.76951,-41.08055 32.49489,-45.71687c12.92157,-4.06837 22.64239,17.51036 27.01267,17.49188c9.35062,-0.03956 -25.72679,8.97388 -25.64593,28.08169z" fill="none" stroke="#000000" stroke-linecap="butt"/><path d="M196.2526,483.68284l24.34812,13.14741" fill="none" stroke="#000000" stroke-linecap="round"/></g><g data-paper-data="{&quot;index&quot;:null}"><path d="M318.92793,514.60245c5.90396,-18.17301 -24.75405,-37.454 -15.86086,-34.56484c4.15647,1.35034 19.99473,-16.23623 31.06016,-8.42121c12.61014,8.90598 20.15027,43.76925 17.00574,53.4486c-5.90396,18.17301 -17.89938,30.56305 -26.79255,27.67389c-8.89319,-2.88917 -11.31645,-19.96343 -5.41253,-38.13646z" fill="#840000" stroke="#000000" stroke-linecap="butt"/><path d="M306.64176,483.48252c-2.83794,-9.38541 8.05274,-11.4569 9.89731,-10.85764c5.0266,1.63302 26.82893,60.36551 24.37942,67.90539c-2.44951,7.53988 -8.51009,12.32834 -13.53666,10.69532c-5.02657,-1.63301 -8.62515,-8.41251 -6.17564,-15.95239c1.55064,-4.773 -9.23257,-34.15726 -14.56448,-51.79066z" fill="#430000" stroke="none" stroke-linecap="butt"/><path d="M302.3695,479.51667c4.1565,1.35035 19.99473,-16.23623 31.06019,-8.4212c12.61014,8.90598 20.15027,43.76925 17.00573,53.44863c-5.90396,18.17301 -17.89937,30.56302 -26.79257,27.67385c-8.89316,-2.88916 -11.31642,-19.96346 -5.41247,-38.13644c5.90393,-18.17302 -24.75405,-37.454 -15.86086,-34.56484z" fill="none" stroke="#000000" stroke-linecap="butt"/><path d="M321.22507,509.62829l27.19771,-5.09622" fill="none" stroke="#000000" stroke-linecap="round"/></g><g data-paper-data="{&quot;index&quot;:null}"><path d="M276.59126,521.29135c9.4493,-16.608 -16.6878,-41.67833 -8.56045,-37.0542c3.79854,2.1612 22.85948,-11.86792 32.12049,-1.98095c10.55381,11.26718 10.90448,46.93479 5.87158,55.78059c-9.44931,16.60803 -23.69795,26.32286 -31.82529,21.69873c-8.12735,-4.62413 -7.05567,-21.83616 2.39364,-38.44419z" fill="#840000" stroke="#000000" stroke-linecap="butt"/><path d="M270.83688,488.33247c-0.88586,-9.76499 10.19879,-9.59647 11.88452,-8.63736c4.59372,2.61364 14.09713,64.53727 10.17667,71.42782c-3.92046,6.89055 -10.82256,10.35767 -15.41625,7.74404c-4.59369,-2.61364 -6.75033,-9.97983 -2.82987,-16.87039c2.48178,-4.36196 -2.15074,-35.3176 -3.81506,-53.66414z" fill="#430000" stroke="none" stroke-linecap="butt"/><path d="M267.45268,483.58618c3.79854,2.1612 22.85948,-11.86792 32.12049,-1.98095c10.55381,11.26718 10.90448,46.93479 5.87158,55.78059c-9.4493,16.608 -23.69798,26.32285 -31.82529,21.69873c-8.12732,-4.62412 -7.05563,-21.83618 2.39367,-38.44418c9.4493,-16.608 -16.68777,-41.67832 -8.56045,-37.0542z" fill="none" stroke="#000000" stroke-linecap="butt"/><path d="M279.8448,516.88299l27.66657,0.49631" fill="none" stroke="#000000" stroke-linecap="round"/></g><g data-paper-data="{&quot;index&quot;:null}"><path d="M243.16425,520.27834c14.99943,-11.83774 0.20367,-44.89459 5.99665,-37.55443c2.70752,3.4306 25.64417,-2.40422 30.50926,10.23889c5.54426,14.40813 -7.53878,47.59147 -15.5278,53.89652c-14.99944,11.83777 -31.85495,15.48378 -37.64794,8.14365c-5.79298,-7.34016 1.67038,-22.8869 16.66982,-34.72467z" fill="#840000" stroke="#000000" stroke-linecap="butt"/><path d="M250.22165,487.57369c2.84992,-9.38178 13.05821,-5.05871 14.25977,-3.53624c3.27428,4.14879 -11.19736,65.10304 -17.42052,70.01444c-6.22315,4.9114 -13.92237,5.52963 -17.19662,1.38084c-3.27425,-4.14879 -2.50369,-11.78539 3.7195,-16.69679c3.93949,-3.10909 11.28342,-33.53568 16.6379,-51.16225z" fill="#430000" stroke="none" stroke-linecap="butt"/><path d="M248.86988,481.90334c2.70752,3.4306 25.64414,-2.40423 30.50926,10.23889c5.54423,14.40812 -7.53878,47.59147 -15.5278,53.89652c-14.99943,11.83774 -31.85498,15.48377 -37.64794,8.14365c-5.79292,-7.34014 1.67042,-22.88692 16.66985,-34.72466c14.99943,-11.83774 0.20369,-44.89456 5.99665,-37.55443z" fill="none" stroke="#000000" stroke-linecap="butt"/><path d="M247.83633,517.41633l25.45079,10.86021" fill="none" stroke="#000000" stroke-linecap="round"/></g></g></g></g></svg>