<svg version="1.1" xmlns="http://www.w3.org/2000/svg" xmlns:xlink="http://www.w3.org/1999/xlink" width="529.78782" height="296.71865" viewBox="0,0,529.78782,296.71865"><defs><linearGradient x1="349.28178" y1="130.50945" x2="349.28178" y2="241.04741" gradientUnits="userSpaceOnUse" id="color-1"><stop offset="0" stop-color="#0e0e19" stop-opacity="0"/><stop offset="1" stop-color="#0e0e19"/></linearGradient><linearGradient x1="231.52889" y1="116.72132" x2="231.52889" y2="210.72132" gradientUnits="userSpaceOnUse" id="color-2"><stop offset="0" stop-color="#0e0e19" stop-opacity="0"/><stop offset="1" stop-color="#0e0e19"/></linearGradient></defs><g transform="translate(24.06703,-65.20641)"><g data-paper-data="{&quot;isPaintingLayer&quot;:true}" fill-rule="nonzero" stroke-linecap="butt" stroke-linejoin="miter" stroke-miterlimit="10" stroke-dasharray="" stroke-dashoffset="0" style="mix-blend-mode: normal"><path d="M374.31952,297.39525v-217.12813h74.02095v217.12813z" fill="#000000" stroke="#000000" stroke-width="4"/><path d="M321.15381,241.04741v-110.53796h56.25593v110.53796z" fill="url(#color-1)" stroke="#000000" stroke-width="4"/><path d="M-10.58945,310.22555v-39.47784h343.45723c0,0 27.86026,12.70456 50.56858,16.21895c30.32613,4.69333 115.23836,4.44165 115.23836,4.44165c0,0 21.25476,35.79158 -23.4801,53.42713c-30.94813,12.20049 -120.75242,12.95855 -159.04467,13.99749c-44.3765,1.20401 -211.4527,4.23001 -293.45752,-10.57066c-41.99397,-7.5793 -33.28188,-38.03671 -33.28188,-38.03671z" fill="#3c3c3c" stroke="#000000" stroke-width="4"/><path d="M125.28245,280.93012v-73h201v73z" fill="#090909" stroke="#000000" stroke-width="4"/><path d="M44.43297,208.80598v-108c0,0 19.68768,-18.99857 36.22149,-24.11617c18.28884,-5.66083 68.77851,-8.38383 68.77851,-8.38383c0,0 -4.68788,108.28922 -8.31262,141.42966c-3.35427,30.66761 -19.18738,83.07034 -19.18738,83.07034z" fill="#000000" stroke="none" stroke-width="0"/><path d="M-22,310.28257v-73c0,0 -1.29116,-121.57415 7.46016,-150.65405c2.03881,-6.7748 0.76973,-9.81298 9.12885,-11.63339c11.82676,-2.57556 33.911,-2.21256 33.911,-2.21256l-1,237.5z" fill="#090909" stroke="#000000" stroke-width="4"/><path d="M141.02889,210.72132v-94h181v94z" fill="url(#color-2)" stroke="#000000" stroke-width="4"/><path d="M135.61356,221.33226v-7h200.5v7z" fill="#010101" stroke="none" stroke-width="0"/><path d="M141.14841,280.44378v-63h13v63z" fill="#010101" stroke="none" stroke-width="0"/><path d="M9.93297,244.39545l-4,-55h104v25z" fill="#090909" stroke="#000000" stroke-width="4"/><path d="M97.93535,297.58132v-222h20.5v222z" fill="#090909" stroke="#000000" stroke-width="4"/><path d="M105.73667,120.04589l-52,-47.5l421.62539,-4.44778l-138.62539,51.94778z" fill="#050505" stroke="none" stroke-width="0"/><path d="M22.93297,193.66268l1,-126l69.5,14.5l-0.5,24c0,0 -1.18906,78.86132 -2.13082,80.03853c-6.09775,7.62218 -67.86918,7.46147 -67.86918,7.46147z" fill="#090909" stroke="#000000" stroke-width="4"/><path d="M0.27611,218.90586l-2.84314,-144c0,0 21.35163,-6.18275 29.98576,-5.47564c19.74959,1.61742 86.01424,14.97564 86.01424,14.97564v134.5z" fill="#090909" stroke="none" stroke-width="0"/><path d="M176.14902,112.86445v-35.69649h99.03012v35.6965z" fill="#272200" stroke="none" stroke-width="0"/><path d="M179.17914,109.86445v-30.1965h93.5v30.1965z" fill="#000000" stroke="none" stroke-width="0"/><path d="M301.14841,279.44378v-58.5h13v58.5z" fill="#010101" stroke="none" stroke-width="0"/><path d="M449.46649,290.76033v-216h45v216z" fill="#090909" stroke="#000000" stroke-width="4"/><path d="M323.46649,136.46907l-3,-18l55,-20.5v30z" fill="#090909" stroke="#000000" stroke-width="4"/><path d="M378.96649,285.73589v-189l67,-23l4,212z" fill="none" stroke="#000000" stroke-width="4"/><path d="M321.69973,281.14441l2.98695,-72.86946l52.93473,23.93473l2.94778,52.97389z" fill="#090909" stroke="#000000" stroke-width="4"/></g></g></svg>