<svg version="1.1" xmlns="http://www.w3.org/2000/svg" xmlns:xlink="http://www.w3.org/1999/xlink" width="579.76772" height="807.59055" viewBox="0,0,579.76772,807.59055"><g transform="translate(210.18776,94.96503)"><g data-paper-data="{&quot;isPaintingLayer&quot;:true}" fill-rule="nonzero" stroke-width="10" stroke-linejoin="miter" stroke-miterlimit="10" stroke-dasharray="" stroke-dashoffset="0" style="mix-blend-mode: normal"><g data-paper-data="{&quot;index&quot;:null}"><g stroke="#000000"><path d="M103.79508,193.3112c32.05782,-6.36734 88.30479,49.45929 120.21698,93.73825c15.19859,21.08848 22.05231,40.73033 23.41638,47.59806c4.22819,21.28779 -3.82865,44.79949 -51.15445,54.19935c-47.32577,9.39987 -89.11854,-0.2372 -93.34673,-21.52501c-4.2282,-21.28782 -46.45797,-164.61078 0.86782,-174.01065z" data-paper-data="{&quot;index&quot;:null}" fill="#1d00ff" stroke-linecap="butt"/><path d="" fill="none" stroke-linecap="round"/></g><path d="M251.92275,336.06076c3.96525,19.96394 -14.62607,40.479 -41.52485,45.82165c-26.89879,5.34264 -51.91905,-6.51026 -55.8843,-26.4742c-0.84682,-4.26346 27.45865,10.18409 49.96016,12.85032c17.20054,2.03813 30.44417,-5.65485 28.05282,-16.88232c-2.67205,-12.54532 16.3333,-21.86946 3.4483,-40.76059c-31.13656,-45.65027 -106.42823,-106.47711 -94.57157,-108.83209c26.89879,-5.34264 106.55421,114.31326 110.51944,134.27717z" fill="#0016ad" stroke="none" stroke-linecap="butt"/><g fill="none" stroke="#000000"><path d="M108.01598,190.94641c47.32577,-9.39987 139.40516,120.04849 143.63335,141.3363c4.22819,21.28779 -3.82865,44.79949 -51.15444,54.19936c-47.32577,9.39987 -89.11854,-0.2372 -93.34673,-21.52502c-4.2282,-21.28782 -46.45797,-164.61078 0.86783,-174.01064z" data-paper-data="{&quot;index&quot;:null}" stroke-linecap="butt"/><path d="M210.69378,271.85854l-59.54658,38.72221" stroke-linecap="round"/></g></g><g><g stroke="#000000"><path d="M36.69114,367.5712c-12.44425,17.78173 -54.57868,9.7695 -94.10993,-17.89579c-39.53124,-27.66528 -37.43579,-52.43061 -24.99157,-70.21231c4.0147,-5.73665 18.19912,-20.95433 40.60428,-34.13497c47.04361,-27.67512 121.01194,-56.11841 147.78983,-37.37835c39.53124,27.66528 -56.84837,141.83968 -69.29261,159.62141z" data-paper-data="{&quot;index&quot;:null}" fill="#2a00ff" stroke-linecap="butt"/><path d="" fill="none" stroke-linecap="round"/></g><path d="M-87.09323,278.94643c11.67035,-16.67589 132.77318,-94.11373 155.24176,-78.38948c9.90387,6.93106 -83.51002,32.28032 -130.39604,61.52302c-19.40248,12.10131 -5.76243,28.29056 -13.26107,38.69704c-6.71093,9.31331 2.31242,21.68889 18.87698,26.75131c21.66954,6.62257 53.39658,4.79947 50.90431,8.36071c-11.67035,16.67589 -39.34542,17.44736 -61.81399,1.7231c-22.46857,-15.72426 -31.22226,-41.98978 -19.55193,-58.66567z" fill="#1400ad" stroke="none" stroke-linecap="butt"/><g fill="none" stroke="#000000"><path d="M33.78028,363.70664c-12.44425,17.78173 -54.57868,9.7695 -94.10993,-17.89579c-39.53124,-27.66528 -37.43579,-52.43061 -24.99157,-70.21231c12.44425,-17.78173 148.86286,-99.1786 188.39411,-71.51332c39.53124,27.66528 -56.84837,141.83968 -69.29261,159.62141z" data-paper-data="{&quot;index&quot;:null}" stroke-linecap="butt"/><path d="M15.40928,296.21443l-38.90668,-59.42626" stroke-linecap="round"/></g></g><g stroke-linecap="butt"><path d="M112.1694,167.72819c11.93081,2.93826 46.97258,-42.45243 47.06922,-13.98951c0.06747,19.87298 12.65768,192.50983 6.42124,217.83296c-15.16854,61.592 -88.15962,24.1906 -108.42059,19.20084c-20.26097,-4.98976 -70.41152,-15.56966 -55.24298,-77.16165c15.16853,-61.59196 89.91214,-150.8724 110.17312,-145.88264z" fill="#3600ff" stroke="#000000"/><path d="M1.13291,348.06277c1.49213,-6.05883 -0.64638,-42.05542 19.36525,-76.19444c17.08643,-29.1487 47.13612,-75.60789 71.65726,-93.75486c17.20529,-12.73284 30.01036,-2.97753 40.92364,-0.28987c8.10778,1.99674 -20.79399,-3.35203 -48.66477,22.29834c-36.33,33.43565 -75.3099,101.59029 -73.16471,124.28611c2.21069,23.38898 26.132,50.67953 57.00654,59.01319c42.84973,11.566 95.92873,-0.53538 94.69058,4.49212c-3.66007,14.86174 -42.85038,17.98871 -87.53402,6.98427c-44.68364,-11.00444 -77.9398,-31.97314 -74.27974,-46.83488z" fill="#0300ad" stroke="none"/><path d="M2.6807,313.533c15.16854,-61.592 89.91215,-150.87243 110.17312,-145.88267c11.93078,2.93825 46.97261,-42.45239 47.06922,-13.98947c0.06744,19.87297 12.65765,192.50982 6.4212,217.83295c-15.16854,61.592 -88.15962,24.1906 -108.42059,19.20084c-20.26097,-4.98976 -70.41153,-15.56966 -55.24299,-77.16166z" fill="none" stroke="#000000"/></g><g stroke-linecap="butt"><path d="M-193.02003,541.83997c8.04374,-32.66166 63.64061,-47.05294 124.17907,-32.14386c60.53846,14.90908 103.09384,53.47277 95.0501,86.13443c-4.01222,16.29165 -9.66845,35.3408 -32.05512,41.1722c-22.49428,5.85942 -61.78209,-1.55592 -92.12392,-9.02834c-32.5108,-8.00658 -84.2916,-20.86755 -101.37835,-37.94037c-14.73052,-14.71852 2.60419,-33.07266 6.32822,-48.1941z" fill="#5a3d00" stroke="#000000"/><path d="M-202.93982,572.61402c1.39851,-5.67867 19.85455,13.06781 61.36248,26.55165c44.51453,14.46053 113.14377,23.83729 141.93449,20.34225c12.90388,-1.56647 14.67709,-22.81926 5.78819,-43.01201c-9.69436,-22.0225 -30.36016,-42.96844 -19.90578,-40.39379c61.37059,15.11401 37.3669,73.7696 33.06325,91.24461c-4.30366,17.47505 -57.54317,19.389 -118.91379,4.27498c-61.37062,-15.11402 -107.63252,-41.53268 -103.32887,-59.00769z" fill="#352400" stroke="none"/><path d="M-191.09111,543.96928c8.04374,-32.66166 63.64061,-47.05294 124.17907,-32.14385c60.53849,14.90909 103.09386,53.4728 95.05013,86.13443c-4.01222,16.29165 -9.66848,35.34079 -32.05512,41.1722c-22.49429,5.85945 -61.78207,-1.55591 -92.12392,-9.02834c-32.5108,-8.00658 -84.2916,-20.86751 -101.37835,-37.94032c-14.73052,-14.71852 2.60422,-33.07266 6.32825,-48.1941z" fill="none" stroke="#000000"/></g><g data-paper-data="{&quot;index&quot;:null}" stroke-linecap="butt"><path d="M287.87243,661.01439c-3.72403,15.12144 3.10485,39.42643 -16.77604,45.62104c-23.06094,7.18546 -74.89221,-5.47059 -107.40304,-13.47718c-30.34183,-7.47242 -68.57999,-19.14975 -85.7807,-34.78505c-17.11839,-15.56049 -13.28166,-35.05774 -9.26944,-51.34939c8.04374,-32.66166 63.64058,-47.05294 124.17904,-32.14386c60.53846,14.90908 103.09387,53.4728 95.05014,86.13443z" fill="#5a3d00" stroke="#000000"/><path d="M282.36682,692.87558c-4.30365,17.47501 -57.54317,19.389 -118.91378,4.27498c-61.37062,-15.11402 -107.6325,-41.53267 -103.32884,-59.00768c4.30365,-17.47501 10.28382,-80.56929 71.65444,-65.45527c10.45439,2.57465 -17.57491,11.52822 -36.38745,26.5302c-17.2495,13.75552 -25.54853,33.40116 -14.84786,40.78083c23.87499,16.4653 89.00977,40.03122 135.14863,47.89631c43.02255,7.33387 68.07338,-0.69801 66.67487,4.98066z" fill="#352400" stroke="none"/><path d="M285.17526,662.00445c-3.72403,15.12144 3.10484,39.42646 -16.77604,45.62107c-23.06094,7.18546 -74.8922,-5.47062 -107.40303,-13.47721c-30.34183,-7.47242 -68.58001,-19.14976 -85.78069,-34.78504c-17.11839,-15.56049 -13.28166,-35.05774 -9.26944,-51.34939c8.04374,-32.66166 63.64061,-47.05294 124.17907,-32.14385c60.53846,14.90908 103.09387,53.47277 95.05014,86.13443z" fill="none" stroke="#000000"/></g><g><path d="M-117.8565,291.61535c20.32958,-17.10338 49.44507,-15.95002 65.0312,2.57614c15.58615,18.52613 11.74084,47.40962 -8.58873,64.513c-20.32959,17.10341 -49.4451,15.94999 -65.03122,-2.57616c-15.58618,-18.52615 -11.74084,-47.40962 8.58873,-64.513z" fill="#ffbea9" stroke="#000000" stroke-linecap="butt"/><path d="M-129.10903,307.237c11.47636,-9.65515 37.44537,-42.26514 51.23841,-25.87029c2.31411,2.7506 -15.99882,7.52874 -27.90283,20.56817c-11.29157,12.36855 -16.16574,32.94391 -15.61902,38.43559c2.31239,23.22721 49.95714,19.73869 42.23251,26.23746c-11.47638,9.65511 -31.96129,4.19154 -45.75435,-12.2033c-13.79306,-16.39484 -15.6711,-37.51253 -4.19471,-47.16767z" fill="#ff9d7d" stroke="none" stroke-linecap="butt"/><path d="M-52.83195,294.26834c15.58618,18.52615 11.74084,47.40962 -8.58873,64.513c-20.32959,17.10341 -49.44504,15.95004 -65.03121,-2.57614c-15.58618,-18.52615 -11.74084,-47.40962 8.58873,-64.513c20.32959,-17.10341 49.44504,-15.95004 65.03121,2.57614z" fill="none" stroke="#000000" stroke-linecap="butt"/><g><g><g><path d="M-91.44798,394.11153c15.41113,-12.96546 -1.26606,-47.3021 5.07876,-39.76047c2.96544,3.52479 26.93623,-3.37856 32.47847,9.78026c6.3159,14.99576 -6.37237,50.38511 -14.58068,57.29083c-15.41115,12.96548 -33.04779,17.36238 -39.39261,9.82076c-6.34483,-7.54163 1.00488,-24.16591 16.41603,-37.13139z" fill="#ffbea9" stroke="#000000" stroke-linecap="butt"/><path d="M-79.11669,361.71278c2.69291,-9.97748 7.42378,-9.12799 8.73979,-7.56375c3.58621,4.26267 -9.64903,68.95381 -16.04302,74.3331c-6.39398,5.37928 -14.48453,6.28449 -18.07071,2.02184c-3.58619,-4.26265 -1.31003,-12.079 5.08396,-17.45829c4.04761,-3.40527 15.23048,-32.58716 20.28998,-51.3329z" fill="#ff9d7d" stroke="none" stroke-linecap="butt"/><path d="M-116.5354,389.75628c-1.68317,20.06922 -11.00923,35.6708 -20.83036,34.84713c-9.82113,-0.82368 -16.41821,-17.76072 -14.735,-37.82992c0.89651,-10.68932 22.45786,-41.48719 38.34738,-44.99237c13.94311,-3.07582 22.15249,20.47965 26.74269,20.86463c9.82113,0.82368 -27.8415,7.04133 -29.52467,27.11055z" fill="#ffbea9" stroke="#000000" stroke-linecap="butt"/><path d="M-127.39541,407.18912c-0.69833,8.32659 -5.7645,14.69922 -11.31555,14.23364c-5.55107,-0.46556 -9.48494,-7.59299 -8.78662,-15.91958c0.69833,-8.32659 45.86398,-56.49486 51.41503,-56.02928c2.03706,0.17085 5.4629,3.54222 -1.12674,11.50328c-12.38068,14.95729 -29.74408,40.94097 -30.18614,46.21196z" fill="#ff9d7d" stroke="none" stroke-linecap="butt"/><path d="M-142.37225,362.57178c-4.49111,19.63253 -15.92023,33.76619 -25.52766,31.5684c-9.60742,-2.19779 -13.75497,-19.89475 -9.26385,-39.52729c2.39207,-10.45673 28.07356,-37.91331 44.29823,-39.14719c14.23722,-1.08273 19.04953,23.39374 23.53981,24.42091c9.60742,2.19779 -28.5554,3.05264 -33.04652,22.68516z" fill="#ffbea9" stroke="#000000" stroke-linecap="butt"/><path d="M-155.57778,378.30254c-1.86335,8.1454 -7.77599,13.74156 -13.20626,12.49934c-5.43029,-1.24224 -8.32184,-8.85242 -6.45852,-16.99784c1.86335,-8.1454 53.35897,-49.47721 58.78924,-48.23499c1.99272,0.45584 4.90997,4.27583 -2.73457,11.2302c-14.36263,13.06585 -35.21033,36.34698 -36.38989,41.5033z" fill="#ff9d7d" stroke="none" stroke-linecap="butt"/><path d="M-165.39561,326.07518c-10.0459,17.45525 -25.11431,27.62029 -33.65627,22.7042c-8.54197,-4.91609 -7.32273,-23.05165 2.72319,-40.50692c5.35065,-9.29705 37.94933,-28.02481 53.82361,-24.45112c13.9297,3.13593 11.35985,27.94823 15.35217,30.24589c8.54197,4.91609 -28.19675,-5.44736 -38.24267,12.00792z" fill="#ffbea9" stroke="#000000" stroke-linecap="butt"/><path d="M-182.63038,337.24675c-4.16796,7.24209 -11.46071,10.86042 -16.28875,8.08175c-4.82804,-2.77867 -5.36315,-10.90207 -1.19515,-18.14414c4.16796,-7.24209 65.51314,-31.6733 70.34118,-28.89463c1.77173,1.01967 3.44181,5.52671 -5.90474,9.93626c-17.56039,8.28464 -44.31407,24.43631 -46.95253,29.02081z" fill="#ff9d7d" stroke="none" stroke-linecap="butt"/><path d="M-85.87636,355.02162c2.96544,3.52479 26.93623,-3.37855 32.47846,9.78025c6.3159,14.99576 -6.37237,50.38511 -14.58068,57.29083c-15.41113,12.96546 -33.0478,17.36236 -39.39261,9.82076c-6.3448,-7.54161 1.00493,-24.16591 16.41606,-37.13137c15.41113,-12.96546 -1.26602,-47.30209 5.07878,-39.76048z" fill="none" stroke="#000000" stroke-linecap="butt"/><path d="M-117.36749,389.74127c-1.68317,20.06922 -11.00923,35.6708 -20.83036,34.84713c-9.82113,-0.82368 -16.4182,-17.76073 -14.735,-37.82993c0.89651,-10.68932 22.45786,-41.48719 38.34737,-44.99236c13.94311,-3.07582 22.1525,20.47965 26.74269,20.86463c9.82113,0.82368 -27.84151,7.04134 -29.52468,27.11056z" fill="none" stroke="#000000" stroke-linecap="butt"/><path d="M-142.80631,368.13455l24.3471,16.05676" fill="none" stroke="#000000" stroke-linecap="round"/><path d="M-143.19396,362.43979c-4.49111,19.63253 -15.92023,33.76619 -25.52766,31.5684c-9.60742,-2.19779 -13.75497,-19.89475 -9.26385,-39.52729c2.39207,-10.45673 28.07353,-37.91333 44.29823,-39.14719c14.23722,-1.08273 19.04952,23.39374 23.53983,24.42093c9.60742,2.19779 -28.55539,3.05262 -33.04652,22.68517z" fill="none" stroke="#000000" stroke-linecap="butt"/><path d="M-166.14255,325.70823c-10.0459,17.45525 -25.11432,27.62029 -33.65626,22.70422c-8.54197,-4.91609 -7.32273,-23.05165 2.72317,-40.5069c5.35065,-9.29705 37.94933,-28.02485 53.82358,-24.45114c13.9297,3.13593 11.35985,27.94823 15.35216,30.24592c8.54197,4.91609 -28.19674,-5.44735 -38.24263,12.00791z" fill="none" stroke="#000000" stroke-linecap="butt"/></g><path d="M-165.33846,337.46771l21.84479,19.32371" fill="none" stroke="#000000" stroke-linecap="round"/><path d="M-179.99915,295.34418l15.22486,24.87575" fill="none" stroke="#000000" stroke-linecap="round"/></g><path d="M-58.62401,403.06939l-27.16996,-10.60158" fill="none" stroke="#000000" stroke-linecap="round"/></g></g><g data-paper-data="{&quot;index&quot;:null}"><path d="M279.16164,382.54658c7.47158,25.49496 -5.30583,51.68235 -28.53916,58.49111c-23.2333,6.8088 -48.12459,-8.33935 -55.59617,-33.83434c-7.47158,-25.49496 5.30586,-51.68235 28.53916,-58.49111c23.2333,-6.8088 48.12456,8.33938 55.59614,33.83434z" fill="#ffbea9" stroke="#000000" stroke-linecap="butt"/><path d="M279.89184,401.7851c4.21784,14.39233 -9.0305,30.94422 -29.59096,36.9697c-20.56046,6.02548 -40.64722,-0.75722 -44.86506,-15.14951c-2.83898,-9.68731 34.91887,19.57936 49.69615,1.51054c3.49384,-4.27208 10.81755,-24.10806 8.25493,-40.65839c-2.7016,-17.44802 -15.31259,-31.56033 -11.8631,-32.57123c20.56046,-6.02548 24.15022,35.5066 28.36804,49.89892z" fill="#ff9d7d" stroke="none" stroke-linecap="butt"/><path d="M279.12464,382.61428c7.47158,25.49496 -5.30583,51.68235 -28.53916,58.49111c-23.23333,6.80879 -48.12456,-8.33935 -55.59614,-33.83434c-7.47158,-25.49496 5.30582,-51.68235 28.53915,-58.49111c23.23333,-6.80879 48.12456,8.33935 55.59614,33.83434z" fill="none" stroke="#000000" stroke-linecap="butt"/><g><g><g><path d="M200.45464,453.31441c5.66394,19.32685 2.58841,37.24126 -6.86943,40.01296c-9.45783,2.7717 -21.71641,-10.64883 -27.38035,-29.97569c-3.01672,-10.29391 5.99409,-46.79329 19.55203,-55.79027c11.89714,-7.89486 28.04529,11.11808 32.46567,9.82265c9.45783,-2.7717 -23.4319,16.60352 -17.76796,35.93034z" fill="#ffbea9" stroke="#000000" stroke-linecap="butt"/><path d="M196.60835,473.48987c2.34993,8.01858 -0.07863,15.78892 -5.42434,17.35555c-5.3457,1.56663 -11.58428,-3.66371 -13.93422,-11.68229c-2.34993,-8.01858 22.41725,-69.22889 27.76299,-70.79552c1.9617,-0.57489 6.37249,1.33497 3.09537,11.13612c-6.15703,18.41446 -12.98738,48.91011 -11.4998,53.98615z" fill="#ff9d7d" stroke="none" stroke-linecap="butt"/><path d="M223.76198,463.56679c9.70175,-17.64886 -18.23104,-43.66602 -9.59433,-38.91834c4.03662,2.21896 23.90772,-12.86062 33.82051,-2.58408c11.2966,11.7111 12.21739,49.29505 7.05003,58.69525c-9.70172,17.64887 -24.56794,28.10736 -33.20464,23.35969c-8.6367,-4.74769 -7.77328,-22.90365 1.92848,-40.55252z" fill="#ffbea9" stroke="#000000" stroke-linecap="butt"/><path d="M223.16321,484.09692c2.54808,-4.63531 2.46058,-35.88642 0.42303,-55.19574c-1.08448,-10.27744 3.63454,-11.19034 5.42593,-10.2056c4.88161,2.68344 15.8541,67.7966 11.82889,75.11899c-4.02521,7.32239 -11.24557,11.083 -16.12717,8.39953c-4.88161,-2.68344 -5.57589,-10.79483 -1.55067,-18.11723z" fill="#ff9d7d" stroke="none" stroke-linecap="butt"/><path d="M245.34813,418.03654c4.3087,1.62874 21.85961,-16.09756 33.12012,-7.31852c12.83244,10.00456 19.03396,47.08479 15.24108,57.1187c-7.12114,18.83867 -20.36736,31.28546 -29.58631,27.80065c-9.21894,-3.48481 -10.91954,-21.58159 -3.7984,-40.42026c7.12114,-18.83867 -24.19544,-40.66537 -14.97649,-37.18056z" fill="#ffbea9" stroke="#000000" stroke-linecap="butt"/><path d="M255.27145,420.92127c-2.52019,-10.02251 2.02338,-11.59051 3.93552,-10.8677c5.21069,1.96968 25.23847,64.89029 22.28397,72.70634c-2.95453,7.81605 -9.57371,12.55549 -14.78444,10.58582c-5.21069,-1.96968 -7.03969,-9.90259 -4.08519,-17.71863c1.8703,-4.94783 -2.61487,-35.87549 -7.34987,-54.70583z" fill="#ff9d7d" stroke="none" stroke-linecap="butt"/><path d="M299.69573,437.55379c1.28938,-20.09837 -35.04774,-31.79233 -25.21234,-31.16135c4.59684,0.29491 16.18424,-21.79551 29.52267,-16.70075c15.20046,5.806 31.99345,39.44227 31.30669,50.14708c-1.28938,20.09837 -10.30773,35.87981 -20.14313,35.24883c-9.8354,-0.63098 -16.76327,-17.43544 -15.47389,-37.53379z" fill="#ffbea9" stroke="#000000" stroke-linecap="butt"/><path d="M307.87125,456.39536c0.33866,-5.27868 -13.01074,-33.53517 -23.05479,-50.15201c-5.34595,-8.84436 -1.46114,-11.6747 0.57886,-11.54383c5.55911,0.35663 43.14227,54.64862 42.6073,62.98731c-0.53494,8.33867 -5.47518,14.80939 -11.03429,14.45276c-5.55911,-0.35663 -9.63202,-7.40559 -9.09705,-15.74427z" fill="#ff9d7d" stroke="none" stroke-linecap="butt"/><path d="M199.67307,453.60032c5.66394,19.32682 2.58841,37.24125 -6.86939,40.01295c-9.4578,2.77171 -21.7164,-10.64886 -27.38035,-29.97568c-3.01672,-10.29391 5.99408,-46.7933 19.55203,-55.79027c11.89714,-7.89486 28.04529,11.11809 32.46566,9.82266c9.4578,-2.77171 -23.4319,16.60352 -17.76796,35.93034z" fill="none" stroke="#000000" stroke-linecap="butt"/><path d="M224.46343,464.01466c9.70175,-17.64886 -18.23104,-43.66603 -9.59434,-38.91835c4.03662,2.21896 23.90772,-12.86062 33.82052,-2.58407c11.2966,11.7111 12.21738,49.29505 7.05001,58.69524c-9.70172,17.64887 -24.56794,28.10737 -33.20464,23.35969c-8.6367,-4.74769 -7.77328,-22.90365 1.92848,-40.55252z" fill="none" stroke="#000000" stroke-linecap="butt"/><path d="M228.44353,459.99559l29.16491,0.09545" fill="none" stroke="#000000" stroke-linecap="round"/><path d="M261.08209,455.56179c7.12114,-18.8387 -24.19543,-40.66538 -14.97649,-37.18056c4.30873,1.62874 21.85964,-16.09756 33.12016,-7.31852c12.83247,10.00456 19.03396,47.08477 15.24107,57.11869c-7.12114,18.83867 -20.36736,31.28546 -29.58631,27.80065c-9.21894,-3.48481 -10.91953,-21.58158 -3.7984,-40.42025z" fill="none" stroke="#000000" stroke-linecap="butt"/><path d="M300.52092,437.66142c1.28941,-20.09834 -35.04771,-31.7923 -25.21231,-31.16132c4.59684,0.29488 16.18423,-21.79554 29.52268,-16.70078c15.20046,5.80596 31.99342,39.44226 31.30666,50.14707c-1.28938,20.09834 -10.30774,35.8798 -20.14314,35.24881c-9.83537,-0.63098 -16.76323,-17.43545 -15.47385,-37.53378z" fill="none" stroke="#000000" stroke-linecap="butt"/></g><path d="M293.34491,447.01216l-28.888,4.01038" fill="none" stroke="#000000" stroke-linecap="round"/><path d="M302.41775,432.33266l26.44544,-12.29787" fill="none" stroke="#000000" stroke-linecap="round"/></g><path d="M196.65426,448.81696l-28.49812,-6.20143" fill="none" stroke="#000000" stroke-linecap="round"/></g></g><g stroke-linecap="butt"><g><path d="M51.44644,151.62523c-14.42171,-56.41087 24.94616,-115.1944 87.93067,-131.2967c62.98449,-16.1023 125.7346,16.57422 140.15632,72.9851c14.42171,56.41087 -24.94616,115.1944 -87.93067,131.2967c-62.98449,16.1023 -125.73462,-16.57425 -140.15633,-72.98512z" fill="#ffbea9" stroke="#000000"/><path d="M266.01485,71.97579c-40.27894,-34.77368 -62.95424,-74.52011 -50.6467,-88.77614c12.30754,-14.25604 54.93729,2.37683 95.21624,37.15051c40.27894,34.77371 62.95421,74.52011 50.64667,88.77616c-12.30754,14.25604 -54.9373,-2.37683 -95.21625,-37.15051z" fill="#1000ff" stroke="#000000"/><path d="M277.31869,79.69897c-2.59163,-10.13716 -54.65309,-31.65508 -35.24768,-36.61617c19.40542,-4.96109 47.46103,29.02603 50.05263,39.16319c0.77686,3.0387 41.1728,23.2642 50.15882,11.7525c6.16217,-7.89419 -0.88107,-39.30002 4.89042,-37.03587c13.88891,5.44866 18.82406,53.51457 9.22463,55.9687c-19.40542,4.96109 -76.48726,-23.09519 -79.07886,-33.23235z" fill="#0c00b3" stroke="none"/><path d="M214.05114,-17.58105c12.30754,-14.25604 54.9373,2.37683 95.21625,37.15051c40.27894,34.77368 62.95424,74.52012 50.6467,88.77615c-12.30754,14.25604 -54.9373,-2.37683 -95.21625,-37.15051c-40.27894,-34.77368 -62.95424,-74.52012 -50.6467,-88.77615z" fill="none" stroke="#000000"/><path d="M194.38938,-85.1479c50.68578,-12.95808 100.89871,12.22602 112.15372,56.25022c11.25501,44.02423 -20.70997,90.2175 -71.39571,103.17557c-50.68576,12.95807 -100.89868,-12.22606 -112.1537,-56.25025c-11.255,-44.02419 20.70991,-90.21747 71.3957,-103.17554z" fill="#ff0000" stroke="#000000"/><path d="M203.9215,28.62541c-5.47941,-21.43283 -54.38442,-97.83697 -26.29003,-105.01946c16.39494,-4.19145 36.02215,85.7082 68.42004,100.52467c23.11917,10.57307 63.23337,-55.41611 65.51517,-46.49074c5.47941,21.43283 -18.76002,69.60564 -46.8544,76.78812c-28.09441,7.18249 -55.31136,-4.36974 -60.79077,-25.80256z" fill="#dc0000" stroke="none"/><path d="M194.38939,-85.14787c50.68578,-12.95808 100.89871,12.22602 112.15372,56.25022c11.255,44.02419 -20.70993,90.21746 -71.39573,103.17554c-50.68578,12.95808 -100.89872,-12.22602 -112.15372,-56.25022c-11.255,-44.02419 20.70994,-90.21746 71.39574,-103.17554z" fill="none" stroke="#000000"/><path d="M81.71704,191.18651c-1.79783,-7.03224 51.95949,32.13036 109.44047,17.43505c57.48097,-14.6953 89.18074,-73.34625 90.97858,-66.31398c1.79783,7.03224 -27.75736,62.53684 -85.23834,77.23214c-57.48097,14.6953 -113.38286,-21.32092 -115.1807,-28.35318z" fill="#ff9d7d" stroke="none"/><path d="M0.99545,114.54359c0,0 41.51007,-190.67025 96.69054,-203.00151c55.1804,-12.33124 148.59814,68.39578 160.92936,123.57623c12.33124,55.1804 -54.74518,-44.58823 -109.92561,-32.25703c-4.47451,0.99991 -147.69432,111.68233 -147.69432,111.68233z" fill="#ffb300" stroke="#000000"/><path d="M39.75535,54.85914c17.10444,-1.49858 52.83396,-51.31645 81.67069,-65.38657c39.19252,-19.12299 71.56195,-3.32209 82.01672,0.64167c29.35093,11.12785 63.54682,47.67958 61.0033,54.38837c-2.5435,6.70879 -40.86322,-18.96588 -70.21414,-30.09374c-4.37172,-1.65745 -15.11226,-16.41707 -32.04166,-12.81806c-21.30277,4.52877 -51.04202,29.18689 -74.87723,44.95036c-37.92643,25.0827 -64.15292,71.1681 -82.03096,69.814c-21.90518,-1.65913 38.19198,-118.09274 39.12141,-120.54417c0.97089,-2.56088 -29.56056,61.23079 -4.64812,59.04812z" fill="#e4a000" stroke="none"/><path d="M3.40379,114.29889c0,0 41.51007,-190.67025 96.69054,-203.00151c55.1804,-12.33124 148.59814,68.39578 160.92936,123.57623c12.33124,55.1804 -54.74518,-44.58823 -109.92561,-32.25703c-4.47451,0.99991 -147.69432,111.68233 -147.69432,111.68233z" fill="none" stroke="#000000"/><path d="M58.92932,79.74394c13.52502,-29.82539 45.42682,-52.29388 81.1059,-61.41541c34.69645,-8.87032 74.86608,-4.95145 102.7107,13.10301c23.43783,15.19708 37.06215,42.23312 42.09934,61.93619c11.02149,43.11075 -40.99598,64.74179 -104.89774,81.07859c-63.90175,16.3368 -112.57989,21.03889 -123.60137,-22.07186c-4.86772,-19.04015 -8.1153,-49.03824 2.58318,-72.63053z" fill="#ffbea9" stroke="#000000"/><path d="M142.97366,17.39276c62.98449,-16.1023 125.73462,16.57425 140.15633,72.98512c14.42171,56.41087 -24.94619,115.19441 -87.93067,131.2967c-62.98449,16.1023 -125.73462,-16.57426 -140.15633,-72.98513c-14.42171,-56.41087 24.94619,-115.19441 87.93067,-131.2967z" fill="none" stroke="#000000"/><path d="M66.78484,172.69109c-0.81966,-3.20612 -10.94491,-9.68469 -13.53536,-20.07468c-5.53384,-22.19576 -2.83297,-57.65778 14.51841,-84.96169c10.73195,-16.88765 48.24608,-39.14814 72.96085,-47.18478c10.27027,-3.33967 12.9824,3.48744 19.15212,1.91012c10.7121,-2.7386 -52.77885,17.21312 -77.13649,51.89848c-27.33415,38.92387 -15.64569,93.36584 4.29833,95.57076c21.67509,2.3963 63.25508,-0.52366 97.40629,-12.99549c53.48389,-19.53203 99.06931,-52.27885 100.5618,-46.44098c4.10374,16.05186 -47.69098,49.64426 -103.94896,64.02689c-56.25801,14.38263 -110.17333,14.30325 -114.27706,-1.74861z" fill="#ff9d7d" stroke="none"/><path d="M56.19671,152.75553c-4.86772,-19.04015 -8.11532,-49.03822 2.58314,-72.63052c13.52502,-29.82535 45.42682,-52.29388 81.1059,-61.41541c34.69647,-8.87032 74.86608,-4.95145 102.7107,13.10301c23.43781,15.19712 37.06213,42.23316 42.09932,61.93624c11.02146,43.11073 -40.99603,64.74177 -104.89775,81.07856c-63.90171,16.33679 -112.57986,21.03888 -123.60133,-22.07185z" fill="none" stroke="#000000"/><path d="M68.30398,235.1162c0,0 -75.68772,-179.86 -37.63537,-221.68053c38.05231,-41.82053 160.90136,-29.49815 202.7219,8.55421c41.82053,38.05231 -70.42857,-4.9961 -108.48092,36.82444c-3.08563,3.39118 -56.60561,176.30189 -56.60561,176.30189z" fill="#ffb300" stroke="#000000"/><path d="M35.53772,113.01758c-0.67835,-2.6534 11.02784,67.09265 30.15377,50.98075c13.13149,-11.06214 13.7137,-72.36532 29.21407,-100.45914c21.06684,-38.18288 56.63509,-43.87049 67.46762,-46.63989c30.41146,-7.77485 79.40699,2.46365 81.1841,9.41485c1.77711,6.95119 -44.33717,7.9828 -74.74862,15.75764c-4.52966,1.15803 -21.80432,-4.74039 -33.58475,7.93942c-14.8237,15.95546 -24.97364,53.23045 -35.40841,79.83344c-16.60377,42.33051 -11.55788,95.11527 -26.96277,104.28848c-18.87498,11.23955 -36.66564,-118.57552 -37.31499,-121.11552z" fill="#e4a000" stroke="none"/><path d="M70.13356,233.53106c0,0 -75.68776,-179.85995 -37.6354,-221.68051c38.05231,-41.82053 160.90136,-29.49818 202.7219,8.55418c41.82053,38.05231 -70.42857,-4.9961 -108.48092,36.82444c-3.08563,3.39118 -56.60557,176.30191 -56.60557,176.30191z" fill="none" stroke="#000000"/></g><path d="M156.98675,79.36825c27.63099,-7.064 54.02807,2.84678 58.95954,22.13634c4.93147,19.28956 -13.47012,40.65333 -41.1011,47.71733c-27.63099,7.064 -54.02807,-2.84677 -58.95954,-22.13633c-4.93147,-19.28956 13.47011,-40.65334 41.1011,-47.71734z" fill="#ff9d7d" stroke="none"/><path d="M114.10971,80.86231c15.31192,-3.91457 32.11862,10.09896 37.53878,31.30009c5.42017,21.20112 -2.59869,41.56144 -17.91061,45.476c-15.31192,3.91457 -32.27881,-0.06092 -37.69898,-21.26209c-5.42017,-21.20112 2.75888,-51.59944 18.07079,-55.51402z" fill="#000000" stroke="#000000"/><path d="M239.95122,98.75014c5.33132,20.85359 -7.433,32.29374 -22.49389,36.14414c-15.06089,3.85039 -31.5921,-9.93339 -36.92342,-30.78697c-5.33132,-20.85359 2.55607,-40.8801 17.61699,-44.7305c15.06089,-3.85039 36.469,18.51979 41.80031,39.37334z" data-paper-data="{&quot;index&quot;:null}" fill="#000000" stroke="#000000"/></g></g></g></svg>