<svg version="1.1" xmlns="http://www.w3.org/2000/svg" xmlns:xlink="http://www.w3.org/1999/xlink" width="227.13586" height="369.96402" viewBox="0,0,227.13586,369.96402"><g transform="translate(-127.93514,6.58788)"><g data-paper-data="{&quot;isPaintingLayer&quot;:true}" fill-rule="nonzero" stroke-linejoin="miter" stroke-miterlimit="10" stroke-dasharray="" stroke-dashoffset="0" style="mix-blend-mode: normal"><g data-paper-data="{&quot;index&quot;:null}"><path d="M250.81689,242.12564c2.30825,-6.6889 12.09201,-4.34188 15.43806,-3.65694c8.68899,1.77865 16.86398,34.10355 20.17193,57.9379c1.57545,11.35143 1.21665,20.88683 0.83305,24.07422c-1.18908,9.87987 -5.68509,18.98392 -18.51233,16.35818c-12.82723,-2.62574 -22.26182,-12.76355 -21.07274,-22.64343c0.8789,-7.30266 -3.39848,-53.11665 3.14203,-72.06993z" data-paper-data="{&quot;index&quot;:null}" fill="#ff48b3" stroke="#000000" stroke-width="0" stroke-linecap="butt"/><path d="M288.23474,321.73532c-1.11514,9.26545 -7.92937,15.56677 -15.22006,14.07435c-6.5466,-1.34008 -21.20784,-7.08593 -22.90992,-14.8039c-0.19345,-0.8772 -0.71283,-0.55845 -0.59902,-1.50405c0.00605,-0.05039 -0.41461,-1.93164 -0.4239,-3.3056c-0.02459,-3.63831 -2.07383,-10.01616 -1.26893,-18.83439c0.75672,-8.29041 -0.6546,-16.35198 0.42191,-24.34011c0.66639,-4.94488 0.38201,-14.0028 1.56807,-20.54135c1.45672,-8.03067 4.36884,-13.1508 4.66404,-13.05696c2.55365,0.81173 0.16641,38.16359 2.7436,58.67944c2.09703,16.69341 13.94659,29.44794 15.76034,30.9268c4.08645,3.33192 8.21027,1.85999 8.79704,-3.3737c0.65567,-5.84801 6.39249,-7.21246 5.16375,-17.27744c-2.96925,-24.32193 -15.37932,-61.53186 -12.16567,-60.87403c7.29069,1.49241 14.5839,64.9655 13.46876,74.23095z" fill="#bb1c79" stroke="none" stroke-width="0" stroke-linecap="butt"/><g fill="none" stroke="#000000" stroke-width="3.5"><path d="M248.97996,313.76437c0.89158,-7.40805 -4.31952,-53.00804 2.4276,-71.62761c2.2513,-6.21276 12.94327,-4.75618 16.1525,-4.09925c12.82724,2.62574 22.19406,72.13225 21.00498,82.01213c-1.18908,9.87987 -5.68509,18.98392 -18.51233,16.35818c-12.82723,-2.62574 -22.26182,-12.76355 -21.07274,-22.64343z" data-paper-data="{&quot;index&quot;:null}" stroke-linecap="butt"/><path d="M248.59177,291.66652l36.10754,-3.77353" stroke-linecap="round"/></g></g><g><path d="M241.64957,316.19557c1.30351,9.87988 -9.03904,20.01769 -23.10074,22.64343c-14.06171,2.62574 -18.9904,-6.47831 -20.29392,-16.35818c-0.42052,-3.18739 -0.81385,-12.72279 0.91321,-24.07422c3.6263,-23.83435 12.58804,-56.15925 22.11323,-57.9379c3.66807,-0.68494 14.39339,-3.03195 16.92379,3.65694c7.16995,18.95328 2.48093,64.76727 3.44441,72.06993z" data-paper-data="{&quot;index&quot;:null}" fill="#ff48b3" stroke="#000000" stroke-width="0" stroke-linecap="butt"/><path d="M211.95127,249.50437c3.52292,-0.65783 -10.08146,36.5521 -13.33647,60.87403c-1.347,10.06498 4.94193,11.42942 5.6607,17.27744c0.64324,5.2337 5.16393,6.70562 9.64365,3.3737c1.9883,-1.47886 14.97824,-14.23339 17.27708,-30.9268c2.82521,-20.51584 0.20823,-57.8677 3.00764,-58.67944c0.32361,-0.09384 3.51599,5.02629 5.1129,13.05696c1.3002,6.53855 0.98846,15.59647 1.71898,20.54135c1.18011,7.98814 -0.36703,16.04971 0.46251,24.34011c0.88236,8.81823 -1.3641,15.19608 -1.39105,18.83439c-0.01018,1.37396 -0.47133,3.25521 -0.4647,3.3056c0.12476,0.94561 -0.4446,0.62685 -0.65667,1.50405c-1.86588,7.71797 -17.93808,13.46381 -25.11472,14.8039c-7.99233,1.49241 -15.46236,-4.8089 -16.68482,-14.07435c-1.22246,-9.26545 6.77263,-72.73854 14.76496,-74.23095z" fill="#bb1c79" stroke="none" stroke-width="0" stroke-linecap="butt"/><g fill="none" stroke="#000000" stroke-width="3.5"><path d="M240.21886,315.76437c1.30351,9.87988 -9.03904,20.0177 -23.10074,22.64343c-14.06171,2.62574 -18.9904,-6.47831 -20.29392,-16.35818c-1.30351,-9.87988 8.96475,-79.38639 23.02645,-82.01213c3.51808,-0.65693 15.23903,-2.11351 17.70698,4.09925c7.39645,18.61958 1.68384,64.21956 2.66123,71.62761z" data-paper-data="{&quot;index&quot;:null}" stroke-linecap="butt"/><path d="M201.06196,289.89299l39.58245,3.77353" stroke-linecap="round"/></g></g><g stroke-linecap="butt"><g><g><path d="M211.43104,223.79037c-1.15074,-11.54988 -12.85739,-50.30922 -5.11441,-64.80472c6.28022,-11.75707 43.99936,-6.33042 50.33419,-6.96157c5.62802,-0.56073 10.93784,-4.78381 13.57732,4.23161c3.99445,13.64349 8.59994,42.48479 9.85482,55.07992c2.08409,20.91781 -12.44261,40.66045 -26.58777,42.06976c-14.14516,1.40931 -39.98007,-8.69719 -42.06416,-29.61499z" fill="#ff48b3" stroke="#000000" stroke-width="0"/><path d="M210.89735,227.52625c-0.19566,-1.96386 12.99641,14.76249 30.18488,17.41191c12.99948,2.00373 30.57663,-8.17786 33.32753,-17.04867c1.2136,-3.91349 2.21661,-18.99482 0.80196,-31.24448c-1.66864,-14.44906 -6.34997,-26.69749 -12.92707,-37.24551c-6.94389,-11.13625 -27.98775,-7.08038 -25.21889,-7.35624c4.19323,-0.41778 10.98561,-0.83195 18.35396,-0.48871c4.13278,0.19252 9.70172,-1.2656 12.04174,2.24297c12.70884,19.05538 13.01962,62.99422 13.39467,66.75858c0.56723,5.69323 -8.71079,31.3985 -28.02938,33.32325c-0.54433,0.05423 -3.93714,-0.3274 -4.47989,-0.30808c-18.71993,0.66628 -36.89827,-20.51221 -37.44952,-26.04502z" fill="#bb1c79" stroke="none" stroke-width="0"/><path d="M211.54095,223.66764c-1.15074,-11.54988 -12.8574,-50.30921 -5.11441,-64.80472c6.28022,-11.75707 43.99937,-6.33042 50.3342,-6.96157c5.62801,-0.56073 10.93784,-4.78381 13.57732,4.23161c3.99445,13.64348 8.59994,42.48479 9.85482,55.07991c2.08409,20.91781 -12.44261,40.66045 -26.58777,42.06976c-14.14515,1.40931 -39.98006,-8.69719 -42.06415,-29.61499z" fill="none" stroke="#000000" stroke-width="3.5"/><path d="M255.52209,254.84344c-3.83813,0.3824 -33.12049,-1.33875 -35.47863,-25.00722c-1.61212,-16.18074 -7.53417,-56.0518 -1.33725,-71.16056c2.86765,-6.99166 18.95766,2.02708 20.17188,1.9061c1.81305,-0.18064 5.52971,-14.01885 13.61186,-4.05076c9.02728,11.13377 19.80029,48.23532 21.04449,60.72329c2.35814,23.66847 -14.17423,37.20674 -18.01236,37.58914z" fill="#ff94d2" stroke="#000000" stroke-width="0"/><path d="M221.27002,229.82973c-0.52301,-5.2494 -11.96076,-69.37155 -0.16304,-71.65651c1.6911,-0.32752 1.70767,69.74451 6.50751,78.38533c0.2293,0.4128 3.45584,6.48997 9.10308,9.06846c6.16327,2.81412 14.78463,2.12925 14.87961,2.11979c14.71283,-1.46587 22.34724,-29.3025 22.95271,-23.22546c0.60547,6.07704 -7.1765,27.73637 -21.88933,29.20224c-8.9786,0.89456 -20.5261,-3.15895 -26.69318,-10.00177c-3.93863,-4.37021 -4.46138,-11.5236 -4.69735,-13.89208z" fill="#ea88c1" stroke="none" stroke-width="0"/><path d="M273.59823,216.66827c2.35814,23.66846 -14.17423,37.20673 -18.01236,37.58913c-3.83813,0.3824 -33.12049,-1.33875 -35.47863,-25.00722c-1.61212,-16.18074 -7.53417,-56.0518 -1.33725,-71.16056c2.86766,-6.99167 18.95766,2.02707 20.17189,1.90609c1.81305,-0.18064 5.52971,-14.01884 13.61186,-4.05075c9.02728,11.13377 19.80029,48.23533 21.04449,60.72329z" fill="none" stroke="#000000" stroke-width="3.5"/></g><path d="M239.71111,185.94808c2.17493,-0.21669 4.10857,1.31893 4.31889,3.4299c0.21032,2.11098 -1.38231,3.99792 -3.55725,4.21462c-2.17493,0.21669 -4.10857,-1.31893 -4.31889,-3.4299c-0.21032,-2.11098 1.38231,-3.99792 3.55725,-4.21462z" fill="#000000" stroke="#000000" stroke-width="3.5"/></g><path d="M238.69816,168.73662c1.91907,-0.1912 3.61944,1.10579 3.7979,2.89692c0.17845,1.79113 -1.23259,3.39812 -3.15166,3.58932c-1.91907,0.1912 -3.61944,-1.10579 -3.7979,-2.89692c-0.17845,-1.79113 1.23259,-3.39812 3.15166,-3.58932z" fill="#000000" stroke="#000000" stroke-width="3.5"/></g><g data-paper-data="{&quot;index&quot;:null}"><path d="M278.70138,158.26179c8.21324,-0.87977 36.96487,50.67563 37.70874,57.62028c0.74388,6.94464 -6.10902,20.98604 -14.32228,21.86581c-8.21325,0.87977 -36.16707,-58.37411 -36.91096,-65.31876c-0.36919,-3.44665 -3.55435,-7.0737 -1.14145,-9.62961c2.44881,-2.59397 10.52895,-4.09457 14.66592,-4.53771z" fill="#ff48b3" stroke="#000000" stroke-width="0" stroke-linecap="butt"/><path d="M306.41614,226.34952c8.56347,-0.91729 9.16696,-22.96969 10.34373,-11.98371c1.17677,10.98598 -6.03372,21.84591 -14.59719,22.7632c-8.56349,0.91728 -35.31272,-51.98314 -36.48949,-62.96912c-0.77641,-7.24833 12.66126,23.16755 24.91107,41.04957c6.31674,9.22104 12.91837,11.45216 15.83186,11.14009z" fill="#bb1c79" stroke="none" stroke-width="0" stroke-linecap="butt"/><path d="M278.77432,158.94247c8.21324,-0.87977 36.96487,50.67563 37.70874,57.62028c0.74388,6.94464 -6.10903,20.98603 -14.32228,21.8658c-8.21325,0.87977 -36.16707,-58.37409 -36.91095,-65.31874c-0.3947,-3.68476 -4.40203,-7.95746 -1.66178,-10.57725c2.42429,-2.3177 11.33088,-3.17712 15.18625,-3.59008z" fill="none" stroke="#000000" stroke-width="3.5" stroke-linecap="butt"/><path d="M301.52158,185.79259l-21.12992,17.64588" fill="none" stroke="#000000" stroke-width="3.5" stroke-linecap="round"/></g><g><path d="M199.90365,151.37626c4.14293,0.38349 12.24384,1.76752 14.72977,4.32594c2.44947,2.52089 -0.68309,6.19344 -1.0026,9.64506c-0.64375,6.95463 -27.74098,66.60511 -35.96604,65.84376c-8.22507,-0.76135 -15.27957,-14.70257 -14.63582,-21.65719c0.64375,-6.95463 28.64961,-58.91892 36.87467,-58.15758z" fill="#ff48b3" stroke="#000000" stroke-width="0" stroke-linecap="butt"/><path d="M173.17273,219.85621c2.91768,0.27007 9.48647,-2.05594 15.66971,-11.36702c11.9909,-18.05665 24.98896,-48.66297 24.31707,-41.40422c-1.01838,11.0018 -27.00267,64.28212 -35.57848,63.48831c-8.5758,-0.79381 -15.942,-11.54872 -14.92364,-22.55051c1.01837,-11.00179 1.93953,11.03963 10.51532,11.83344z" fill="#bb1c79" stroke="none" stroke-width="0" stroke-linecap="butt"/><path d="M199.84053,152.05792c3.86092,0.35738 12.77896,1.08838 15.2364,3.37092c2.77771,2.58003 -1.16765,6.91002 -1.50922,10.60008c-0.64375,6.95463 -27.74098,66.6051 -35.96604,65.84375c-8.22506,-0.76135 -15.27958,-14.70256 -14.63582,-21.65718c0.64375,-6.95463 28.64961,-58.91893 36.87466,-58.15759z" fill="none" stroke="#000000" stroke-width="3.5" stroke-linecap="butt"/><path d="M198.8644,196.57259l-21.38195,-17.33961" fill="none" stroke="#000000" stroke-width="3.5" stroke-linecap="round"/></g><g><path d="M150.93348,228.6476c2.57774,-9.6605 11.80408,-15.5876 20.6076,-13.23852c8.80352,2.34906 13.85052,12.08475 11.27278,21.74525c-2.57774,9.66051 -11.80409,15.5876 -20.60761,13.23852c-8.80353,-2.34906 -13.85052,-12.08475 -11.27278,-21.74525z" fill="#ff48b3" stroke="#000000" stroke-width="0" stroke-linecap="butt"/><path d="M150.54283,235.60051c1.45517,-5.45351 2.42565,-21.11222 10.21638,-19.03339c1.30707,0.34877 -3.30847,5.77374 -4.16522,12.36304c-0.81268,6.25029 2.1243,13.64626 3.47791,15.22159c5.72511,6.66289 19.66311,-4.69385 18.68365,-1.02315c-1.45518,5.4535 -8.95046,8.18923 -16.74119,6.1104c-7.79073,-2.07883 -12.92672,-8.18499 -11.47154,-13.6385z" fill="#bb1c79" stroke="none" stroke-width="0" stroke-linecap="butt"/><path d="M171.2636,216.3102c8.80353,2.34906 13.85052,12.08475 11.27278,21.74525c-2.57774,9.66051 -11.80407,15.5876 -20.6076,13.23852c-8.80353,-2.34906 -13.85052,-12.08475 -11.27277,-21.74525c2.57774,-9.66051 11.80406,-15.5876 20.60759,-13.23852z" fill="none" stroke="#000000" stroke-width="3.5" stroke-linecap="butt"/><g><path d="M142.7747,250.62476c0.43627,7.56696 -2.2119,13.87425 -5.91489,14.08773c-3.70297,0.2135 -7.0585,-5.74764 -7.49477,-13.31459c-0.23237,-4.03033 6.16944,-16.64804 11.90411,-18.79604c5.03219,-1.88486 9.33916,6.45687 11.06985,6.35708c3.70298,-0.2135 -10.0006,4.09886 -9.56431,11.66579z" fill="#ff48b3" stroke="#000000" stroke-width="0" stroke-linecap="butt"/><path d="M141.48685,258.32653c0.18101,3.13948 -3.54869,5.37852 -5.64167,5.4992c-2.09298,0.12068 -3.93642,-2.32655 -4.11743,-5.46603c-0.18101,-3.13948 14.09528,-23.48012 16.18828,-23.6008c0.76805,-0.04429 4.73818,1.84659 2.70472,5.16203c-1.46483,2.38835 -5.5317,4.22656 -7.02386,6.93056c-2.39957,4.34834 -1.94736,9.34964 -1.87672,10.57503z" fill="#bb1c79" stroke="none" stroke-width="0" stroke-linecap="butt"/><path d="M143.09478,250.49509c0.43628,7.56694 -2.2119,13.87424 -5.91487,14.08774c-3.70297,0.2135 -7.0585,-5.74766 -7.49477,-13.31459c-0.23237,-4.03033 6.16944,-16.64804 11.90412,-18.79604c5.03219,-1.88486 9.33916,6.45687 11.06984,6.35708c3.70297,-0.2135 -10.0006,4.09886 -9.56431,11.66579z" fill="none" stroke="#000000" stroke-width="3.5" stroke-linecap="butt"/><path d="M132.47142,243.79244l9.92249,4.69261" fill="none" stroke="#000000" stroke-width="3.5" stroke-linecap="round"/></g><g><path d="M157.63787,256.48735c3.0379,6.94409 2.74587,13.77852 -0.65232,15.26514c-3.39816,1.48664 -8.61562,-2.93748 -11.65352,-9.88156c-1.61806,-3.69857 0.00155,-17.75441 4.6328,-21.76088c4.06395,-3.51567 11.00062,2.81022 12.58885,2.1154c3.39817,-1.48664 -7.95374,7.31783 -4.91583,14.26188z" fill="#ff48b3" stroke="#000000" stroke-width="0" stroke-linecap="butt"/><path d="M159.10587,264.15684c1.26041,2.88105 -1.45913,6.27635 -3.37982,7.11663c-1.92069,0.84028 -4.4995,-0.8141 -5.75991,-3.69516c-1.26041,-2.88105 5.06022,-26.91444 6.98093,-27.75472c0.70483,-0.30836 5.08458,0.0855 4.32958,3.90088c-0.54387,2.74848 -3.71882,5.88505 -4.17866,8.93902c-0.73947,4.91113 1.42205,9.44382 1.914,10.56835z" fill="#bb1c79" stroke="none" stroke-width="0" stroke-linecap="butt"/><path d="M157.89297,256.25456c3.03791,6.94407 2.74586,13.77851 -0.6523,15.26514c-3.39816,1.48664 -8.61563,-2.9375 -11.65352,-9.88156c-1.61806,-3.69857 0.00155,-17.75441 4.63281,-21.76089c4.06395,-3.51567 11.00062,2.81022 12.58884,2.1154c3.39816,-1.48664 -7.95374,7.31783 -4.91583,14.26188z" fill="none" stroke="#000000" stroke-width="3.5" stroke-linecap="butt"/><path d="M156.53745,254.61321l-10.93471,-0.9532" fill="none" stroke="#000000" stroke-width="3.5" stroke-linecap="round"/></g><g><path d="M173.0502,259.29055c3.96095,6.46221 4.60836,13.27216 1.44599,15.21049c-3.16234,1.93834 -8.93692,-1.72896 -12.89786,-8.19115c-2.10969,-3.44191 -2.43178,-17.58709 1.60668,-22.19048c3.54376,-4.03948 11.28197,1.27602 12.75998,0.37008c3.16235,-1.93834 -6.87575,8.33887 -2.9148,14.80104z" fill="#ff48b3" stroke="#000000" stroke-width="0" stroke-linecap="butt"/><path d="M175.55548,266.68647c1.64338,2.68112 -0.58516,6.41711 -2.37257,7.51269c-1.78741,1.09558 -4.56862,-0.18975 -6.21199,-2.87087c-1.64338,-2.68112 1.32375,-27.35399 3.11117,-28.44958c0.65591,-0.40204 5.04831,-0.61216 4.82335,3.27068c-0.16205,2.79709 -2.87716,6.33918 -2.9141,9.42736c-0.05941,4.96613 2.70294,9.15981 3.34437,10.2063z" fill="#bb1c79" stroke="none" stroke-width="0" stroke-linecap="butt"/><path d="M173.27098,259.02499c3.96095,6.46218 4.60835,13.27215 1.44601,15.21049c-3.16234,1.93834 -8.93693,-1.72898 -12.89786,-8.19115c-2.10969,-3.44191 -2.43177,-17.58708 1.60669,-22.19049c3.54376,-4.03948 11.28197,1.27603 12.75997,0.37009c3.16234,-1.93834 -6.87575,8.33886 -2.9148,14.80103z" fill="none" stroke="#000000" stroke-width="3.5" stroke-linecap="butt"/><path d="M171.7033,257.5849l-10.96216,0.55444" fill="none" stroke="#000000" stroke-width="3.5" stroke-linecap="round"/></g><g data-paper-data="{&quot;index&quot;:null}"><path d="M186.20916,254.69168c-0.01367,-7.57948 -13.94909,-11.07076 -10.23996,-11.07745c1.73356,-0.00313 5.53775,-8.58582 10.67296,-7.003c5.85207,1.80379 12.9916,14.01922 12.99889,18.05624c0.01369,7.5795 -2.98205,13.72931 -6.69117,13.73601c-3.70913,0.00671 -6.72704,-6.13225 -6.74073,-13.71176z" fill="#ff48b3" stroke="#000000" stroke-width="0" stroke-linecap="butt"/><path d="M187.6656,261.41889c-0.00223,-1.22743 0.1523,-6.24675 -2.50117,-10.44498c-1.65005,-2.61066 -5.81886,-4.2042 -7.42288,-6.50138c-2.22668,-3.18888 1.62419,-5.31211 2.39352,-5.31349c2.09647,-0.00378 17.55506,19.45351 17.56073,22.5982c0.00568,3.14469 -1.68924,5.69703 -3.7857,5.70081c-2.09646,0.00378 -5.95248,-2.00991 -5.95816,-5.1546z" fill="#bb1c79" stroke="none" stroke-width="0" stroke-linecap="butt"/><path d="M185.88193,254.58125c-0.01367,-7.57948 -13.94906,-11.07076 -10.23995,-11.07745c1.73355,-0.00312 5.53774,-8.58581 10.67295,-7.003c5.85208,1.80379 12.99161,14.01922 12.9989,18.05623c0.01369,7.57949 -2.98206,13.72932 -6.69117,13.73602c-3.70911,0.0067 -6.72704,-6.13228 -6.74072,-13.71177z" fill="none" stroke="#000000" stroke-width="3.5" stroke-linecap="butt"/><path d="M196.08868,247.25981l-9.62643,5.27336" fill="none" stroke="#000000" stroke-width="3.5" stroke-linecap="round"/></g></g><g data-paper-data="{&quot;index&quot;:null}"><path d="M332.06654,237.8976c2.57774,9.6605 -2.46925,19.39619 -11.27278,21.74525c-8.80352,2.34908 -18.02987,-3.57801 -20.60761,-13.23852c-2.57774,-9.6605 2.46926,-19.39619 11.27278,-21.74525c8.80352,-2.34908 18.02986,3.57802 20.6076,13.23852z" fill="#ff48b3" stroke="#000000" stroke-width="0" stroke-linecap="butt"/><path d="M332.45719,244.8505c1.45518,5.45351 -3.68081,11.55967 -11.47154,13.6385c-7.79073,2.07883 -15.28601,-0.6569 -16.74119,-6.1104c-0.97946,-3.6707 12.95854,7.68604 18.68365,1.02315c1.35361,-1.57533 4.29059,-8.9713 3.47791,-15.22159c-0.85675,-6.5893 -5.47229,-12.01427 -4.16522,-12.36304c7.79073,-2.07883 8.76121,13.57988 10.21638,19.03339z" fill="#bb1c79" stroke="none" stroke-width="0" stroke-linecap="butt"/><path d="M332.34399,238.79872c2.57775,9.6605 -2.46924,19.39619 -11.27277,21.74525c-8.80353,2.34908 -18.02986,-3.57801 -20.6076,-13.23852c-2.57774,-9.6605 2.46925,-19.39619 11.27278,-21.74525c8.80353,-2.34908 18.02985,3.57801 20.60759,13.23852z" fill="none" stroke="#000000" stroke-width="3.5" stroke-linecap="butt"/><g><path d="M340.22531,259.87473c0.43629,-7.56693 -13.26729,-11.87929 -9.56431,-11.66579c1.73069,0.09979 6.03766,-8.24194 11.06985,-6.35708c5.73467,2.148 12.13648,14.76571 11.90411,18.79604c-0.43627,7.56695 -3.7918,13.52809 -7.49477,13.31459c-3.70299,-0.21348 -6.35116,-6.52077 -5.91489,-14.08773z" fill="#ff48b3" stroke="#000000" stroke-width="0" stroke-linecap="butt"/><path d="M341.27984,266.67653c0.07064,-1.22539 0.52285,-6.22669 -1.87672,-10.57503c-1.49216,-2.704 -5.55903,-4.54221 -7.02386,-6.93056c-2.03346,-3.31544 1.93667,-5.20632 2.70472,-5.16203c2.093,0.12068 16.36929,20.46132 16.18828,23.6008c-0.18101,3.13948 -2.02445,5.58671 -4.11743,5.46603c-2.09298,-0.12068 -5.82268,-2.35972 -5.64167,-5.4992z" fill="#bb1c79" stroke="none" stroke-width="0" stroke-linecap="butt"/><path d="M339.90521,259.74507c0.43629,-7.56693 -13.26728,-11.87929 -9.56431,-11.66579c1.73068,0.09979 6.03765,-8.24194 11.06984,-6.35708c5.73468,2.148 12.13649,14.76571 11.90412,18.79604c-0.43627,7.56693 -3.7918,13.52809 -7.49477,13.31459c-3.70297,-0.2135 -6.35115,-6.5208 -5.91487,-14.08774z" fill="none" stroke="#000000" stroke-width="3.5" stroke-linecap="butt"/><path d="M350.52858,253.04244l-9.92249,4.69261" fill="none" stroke="#000000" stroke-width="3.5" stroke-linecap="round"/></g><g><path d="M325.36215,265.73733c3.03791,-6.94405 -8.31401,-15.74853 -4.91584,-14.26189c1.58822,0.69482 8.5249,-5.63107 12.58885,-2.11539c4.63126,4.00647 6.25086,18.06231 4.63281,21.76088c-3.0379,6.94408 -8.25537,11.3682 -11.65353,9.88156c-3.39819,-1.48663 -3.69022,-8.32105 -0.65231,-15.26514z" fill="#ff48b3" stroke="#000000" stroke-width="0" stroke-linecap="butt"/><path d="M323.98801,272.48183c0.49195,-1.12453 2.65348,-5.65722 1.914,-10.56835c-0.45984,-3.05397 -3.63479,-6.19053 -4.17866,-8.93901c-0.755,-3.81538 3.62475,-4.20924 4.32958,-3.90088c1.92071,0.84028 8.24134,24.87367 6.98093,27.75473c-1.26041,2.88106 -3.83921,4.53544 -5.75991,3.69516c-1.92069,-0.84028 -4.64023,-4.23557 -3.37982,-7.11663z" fill="#bb1c79" stroke="none" stroke-width="0" stroke-linecap="butt"/><path d="M325.10703,265.50454c3.03791,-6.94405 -8.31399,-15.74851 -4.91583,-14.26188c1.58821,0.69482 8.52489,-5.63108 12.58884,-2.1154c4.63127,4.00648 6.25087,18.06231 4.63281,21.76089c-3.03789,6.94406 -8.25536,11.36819 -11.65353,9.88156c-3.39816,-1.48663 -3.6902,-8.32107 -0.6523,-15.26514z" fill="none" stroke="#000000" stroke-width="3.5" stroke-linecap="butt"/><path d="M337.39726,262.91001l-10.93471,0.9532" fill="none" stroke="#000000" stroke-width="3.5" stroke-linecap="round"/></g><g><path d="M309.94983,268.54053c3.96095,-6.46217 -6.07716,-16.73938 -2.91481,-14.80104c1.47801,0.90594 9.21622,-4.40957 12.75998,-0.37009c4.03845,4.60339 3.71636,18.74857 1.60667,22.19049c-3.96095,6.4622 -9.73552,10.12948 -12.89786,8.19115c-3.16237,-1.93833 -2.51496,-8.74829 1.44599,-15.21049z" fill="#ff48b3" stroke="#000000" stroke-width="0" stroke-linecap="butt"/><path d="M307.66429,275.03305c0.64143,-1.04649 3.40378,-5.24016 3.34437,-10.2063c-0.03694,-3.08818 -2.75205,-6.63027 -2.9141,-9.42737c-0.22496,-3.88284 4.16744,-3.67273 4.82335,-3.27069c1.78742,1.0956 4.75455,25.76846 3.11117,28.44959c-1.64337,2.68113 -4.42458,3.96646 -6.212,2.87087c-1.78741,-1.09559 -4.01594,-4.83157 -2.37257,-7.51269z" fill="#bb1c79" stroke="none" stroke-width="0" stroke-linecap="butt"/><path d="M309.72902,268.27497c3.96095,-6.46217 -6.07714,-16.73937 -2.91479,-14.80103c1.478,0.90594 9.21621,-4.40957 12.75997,-0.37009c4.03846,4.6034 3.71637,18.74857 1.60668,22.19049c-3.96094,6.46218 -9.73552,10.12949 -12.89786,8.19115c-3.16235,-1.93833 -2.51495,-8.74831 1.446,-15.21049z" fill="none" stroke="#000000" stroke-width="3.5" stroke-linecap="butt"/><path d="M322.25886,267.38934l-10.96216,-0.55444" fill="none" stroke="#000000" stroke-width="3.5" stroke-linecap="round"/></g><g data-paper-data="{&quot;index&quot;:null}"><path d="M296.79085,263.94171c-0.0137,7.57952 -3.03161,13.71848 -6.74074,13.71177c-3.70911,-0.00669 -6.70485,-6.15651 -6.69116,-13.73602c0.00729,-4.03702 7.14683,-16.25245 12.99889,-18.05624c5.13521,-1.58281 8.93939,6.99988 10.67296,7.003c3.70913,0.00669 -10.22628,3.49797 -10.23996,11.07746z" fill="#ff48b3" stroke="#000000" stroke-width="0" stroke-linecap="butt"/><path d="M295.04807,271.55346c-0.00568,3.14469 -3.86171,5.15838 -5.95817,5.1546c-2.09645,-0.00378 -3.79138,-2.55612 -3.7857,-5.70081c0.00568,-3.14469 15.46427,-22.60198 17.56074,-22.59821c0.76932,0.00139 4.6202,2.12461 2.39351,5.31349c-1.60403,2.29719 -5.77283,3.89072 -7.42288,6.50138c-2.65347,4.19823 -2.49895,9.21754 -2.50117,10.44498z" fill="#bb1c79" stroke="none" stroke-width="0" stroke-linecap="butt"/><path d="M297.11806,263.83128c-0.01368,7.5795 -3.03161,13.71846 -6.74072,13.71177c-3.70911,-0.00669 -6.70485,-6.15654 -6.69116,-13.73602c0.00729,-4.03702 7.14682,-16.25244 12.9989,-18.05623c5.13521,-1.58281 8.93939,6.99988 10.67294,7.003c3.70911,0.00669 -10.22627,3.49797 -10.23994,11.07746z" fill="none" stroke="#000000" stroke-width="3.5" stroke-linecap="butt"/><path d="M296.53774,261.78317l-9.62642,-5.27335" fill="none" stroke="#000000" stroke-width="3.5" stroke-linecap="round"/></g></g><path d="" fill="none" stroke="#000000" stroke-width="0" stroke-linecap="round"/><path d="" fill="none" stroke="#000000" stroke-width="0" stroke-linecap="round"/><g stroke-linecap="butt"><g data-paper-data="{&quot;index&quot;:null}"><path d="M172.17296,339.50785c0,-9.68071 14.54587,-17.52849 32.48911,-17.52849c17.94324,0 32.4891,7.84776 32.4891,17.52849c0,4.82875 -0.26964,10.54121 -6.12418,13.71142c-5.88268,3.18545 -17.37179,3.81707 -26.36493,3.81707c-9.63601,0 -24.99102,-0.03037 -30.94078,-3.62537c-5.1293,-3.09926 -1.54833,-9.42121 -1.54833,-13.90312z" fill="#ff48b3" stroke="#000000" stroke-width="0"/><path d="M171.51877,348.79021c0,-1.68312 6.44758,2.28535 18.97475,3.19676c13.43456,0.97742 33.25799,-1.12537 41.06289,-4.08344c3.49812,-1.32579 2.53102,-7.38682 -1.34262,-12.41785c-4.22464,-5.48692 -11.44111,-9.91793 -8.34249,-9.91793c18.18988,0 15.51885,18.04296 15.51885,23.22245c0,5.17949 -14.74581,9.3783 -32.93569,9.3783c-18.18988,0 -32.9357,-4.19881 -32.9357,-9.3783z" fill="#bb1c79" stroke="none" stroke-width="0"/><path d="M205.34764,322.44165c17.94324,0 32.48911,7.84777 32.48911,17.52849c0,4.82875 -0.26965,10.54121 -6.12418,13.71142c-5.88268,3.18545 -17.37179,3.81707 -26.36493,3.81707c-9.63601,0 -24.99101,-0.03036 -30.94078,-3.62536c-5.1293,-3.09926 -1.54833,-9.42123 -1.54833,-13.90313c0,-9.68072 14.54587,-17.52849 32.48911,-17.52849z" fill="none" stroke="#000000" stroke-width="3.5"/></g><path d="M154.64905,343.63538c0,-9.68072 6.53158,-17.52849 14.58867,-17.52849c8.0571,0 14.58867,7.84776 14.58867,17.52849c0,4.82875 -0.12108,10.54121 -2.74995,13.71142c-2.64152,3.18545 -7.80051,3.81707 -11.83872,3.81707c-4.32688,0 -11.22178,-0.03037 -13.89342,-3.62537c-2.30323,-3.09926 -0.69526,-9.42122 -0.69526,-13.90312z" fill="#ff48b3" stroke="#000000" stroke-width="0"/><path d="M154.35531,352.91772c0,-1.68312 2.89518,2.28534 8.52029,3.19675c6.03256,0.97742 14.93392,-1.12536 18.43858,-4.08342c1.57077,-1.32579 1.13651,-7.38682 -0.60288,-12.41785c-1.897,-5.48692 -5.13743,-9.91793 -3.74605,-9.91793c8.16785,0 6.96847,18.04297 6.96847,23.22246c0,5.1795 -6.62135,9.3783 -14.7892,9.3783c-8.16785,0 -14.7892,-4.19881 -14.7892,-9.3783z" fill="#bb1c79" stroke="none" stroke-width="0"/><path d="M154.95689,344.09766c0,-9.68072 6.53157,-17.52849 14.58867,-17.52849c8.0571,0 14.58867,7.84778 14.58867,17.52849c0,4.82875 -0.12108,10.54121 -2.74995,13.71142c-2.64152,3.18546 -7.8005,3.81706 -11.83871,3.81706c-4.32688,0 -11.22178,-0.03036 -13.89342,-3.62536c-2.30323,-3.09926 -0.69525,-9.42122 -0.69525,-13.90312z" fill="none" stroke="#000000" stroke-width="3.5"/><g><path d="M195.83264,343.04422c0,-9.68072 6.53158,-17.52849 14.58867,-17.52849c8.0571,0 14.58867,7.84776 14.58867,17.52849c0,4.82875 -0.12108,10.54121 -2.74995,13.71142c-2.64152,3.18545 -7.80051,3.81707 -11.83872,3.81707c-4.32688,0 -11.22178,-0.03037 -13.89342,-3.62537c-2.30323,-3.09926 -0.69526,-9.42122 -0.69526,-13.90312z" fill="#ff48b3" stroke="#000000" stroke-width="0"/><path d="M195.5389,352.32657c0,-1.68312 2.89518,2.28534 8.52029,3.19675c6.03256,0.97742 14.93392,-1.12536 18.43858,-4.08342c1.57077,-1.32579 1.13651,-7.38682 -0.60288,-12.41785c-1.897,-5.48692 -5.13743,-9.91793 -3.74605,-9.91793c8.16785,0 6.96847,18.04297 6.96847,23.22246c0,5.1795 -6.62135,9.3783 -14.7892,9.3783c-8.16785,0 -14.7892,-4.19881 -14.7892,-9.3783z" fill="#bb1c79" stroke="none" stroke-width="0"/><path d="M196.14048,343.5065c0,-9.68072 6.53157,-17.52849 14.58867,-17.52849c8.0571,0 14.58867,7.84778 14.58867,17.52849c0,4.82875 -0.12108,10.54121 -2.74995,13.71142c-2.64152,3.18546 -7.8005,3.81706 -11.83871,3.81706c-4.32688,0 -11.22178,-0.03036 -13.89342,-3.62536c-2.30323,-3.09926 -0.69525,-9.42122 -0.69525,-13.90312z" fill="none" stroke="#000000" stroke-width="3.5"/></g><g><path d="M172.97476,342.84717c0,-9.68072 6.53158,-17.52849 14.58867,-17.52849c8.0571,0 14.58867,7.84776 14.58867,17.52849c0,4.82875 -0.12108,10.54121 -2.74995,13.71142c-2.64152,3.18545 -7.80051,3.81707 -11.83872,3.81707c-4.32688,0 -11.22178,-0.03037 -13.89342,-3.62537c-2.30323,-3.09926 -0.69526,-9.42122 -0.69526,-13.90312z" fill="#ff48b3" stroke="#000000" stroke-width="0"/><path d="M172.68102,352.12952c0,-1.68312 2.89518,2.28534 8.52029,3.19675c6.03256,0.97742 14.93392,-1.12536 18.43858,-4.08342c1.57077,-1.32579 1.13651,-7.38682 -0.60288,-12.41785c-1.897,-5.48692 -5.13743,-9.91793 -3.74605,-9.91793c8.16785,0 6.96847,18.04297 6.96847,23.22246c0,5.1795 -6.62135,9.3783 -14.7892,9.3783c-8.16785,0 -14.7892,-4.19881 -14.7892,-9.3783z" fill="#bb1c79" stroke="none" stroke-width="0"/><path d="M173.2826,343.30945c0,-9.68072 6.53157,-17.52849 14.58867,-17.52849c8.0571,0 14.58867,7.84778 14.58867,17.52849c0,4.82875 -0.12108,10.54121 -2.74995,13.71142c-2.64152,3.18546 -7.8005,3.81706 -11.83871,3.81706c-4.32688,0 -11.22178,-0.03036 -13.89342,-3.62536c-2.30323,-3.09926 -0.69525,-9.42122 -0.69525,-13.90312z" fill="none" stroke="#000000" stroke-width="3.5"/></g></g><g data-paper-data="{&quot;index&quot;:null}" stroke-linecap="butt"><g data-paper-data="{&quot;index&quot;:null}"><path d="M314.2065,337.50785c0,4.4819 3.58098,10.80385 -1.54833,13.90312c-5.94977,3.59501 -21.30476,3.62537 -30.94078,3.62537c-8.99313,0 -20.48225,-0.63162 -26.36493,-3.81707c-5.85454,-3.17021 -6.12418,-8.88267 -6.12418,-13.71142c0,-9.68072 14.54587,-17.52848 32.4891,-17.52848c17.94323,0 32.48911,7.84777 32.48911,17.52848z" fill="#ff48b3" stroke="#000000" stroke-width="0"/><path d="M314.86068,346.7902c0,5.17949 -14.74581,9.37831 -32.93569,9.37831c-18.18988,0 -32.93569,-4.19882 -32.93569,-9.37831c0,-5.17949 -2.67103,-23.22244 15.51885,-23.22244c3.09862,0 -4.11786,4.43102 -8.34249,9.91794c-3.87363,5.03103 -4.84073,11.09206 -1.34261,12.41785c7.8049,2.95807 27.62833,5.06086 41.06289,4.08344c12.52717,-0.91141 18.97475,-4.87989 18.97475,-3.19676z" fill="#bb1c79" stroke="none" stroke-width="0"/><path d="M313.52092,337.97014c0,4.4819 3.58097,10.80386 -1.54833,13.90312c-5.94977,3.59501 -21.30476,3.62536 -30.94078,3.62536c-8.99313,0 -20.48226,-0.63162 -26.36494,-3.81707c-5.85453,-3.17021 -6.12418,-8.88267 -6.12418,-13.71142c0,-9.68072 14.54588,-17.52849 32.48911,-17.52849c17.94323,0 32.48911,7.84777 32.48911,17.52849z" fill="none" stroke="#000000" stroke-width="3.5"/></g><path d="M331.73041,341.63537c0,4.4819 1.60797,10.80386 -0.69526,13.90312c-2.67164,3.59501 -9.56654,3.62538 -13.89342,3.62538c-4.03821,0 -9.19721,-0.63162 -11.83872,-3.81707c-2.62887,-3.17021 -2.74995,-8.88268 -2.74995,-13.71142c0,-9.68072 6.53157,-17.52848 14.58867,-17.52848c8.0571,0 14.58867,7.84776 14.58867,17.52848z" fill="#ff48b3" stroke="#000000" stroke-width="0"/><path d="M332.02415,350.91773c0,5.17949 -6.62135,9.3783 -14.78921,9.3783c-8.16786,0 -14.7892,-4.19881 -14.7892,-9.3783c0,-5.17949 -1.19938,-23.22246 6.96847,-23.22246c1.39139,0 -1.84905,4.43102 -3.74605,9.91794c-1.73939,5.03103 -2.17365,11.09206 -0.60288,12.41785c3.50466,2.95806 12.40603,5.06085 18.43858,4.08342c5.6251,-0.91141 8.52029,-4.87987 8.52029,-3.19675z" fill="#bb1c79" stroke="none" stroke-width="0"/><path d="M331.42255,342.09766c0,4.4819 1.60798,10.80386 -0.69525,13.90312c-2.67164,3.59501 -9.56654,3.62536 -13.89342,3.62536c-4.03821,0 -9.19719,-0.63161 -11.83871,-3.81707c-2.62887,-3.17021 -2.74995,-8.88267 -2.74995,-13.71142c0,-9.68072 6.53157,-17.52849 14.58868,-17.52849c8.0571,0 14.58867,7.84777 14.58867,17.52849z" fill="none" stroke="#000000" stroke-width="3.5"/><g><path d="M290.54682,341.04422c0,4.4819 1.60797,10.80386 -0.69526,13.90312c-2.67164,3.59501 -9.56654,3.62537 -13.89342,3.62537c-4.03821,0 -9.1972,-0.63162 -11.83872,-3.81707c-2.62887,-3.17021 -2.74995,-8.88267 -2.74995,-13.71142c0,-9.68072 6.53157,-17.52849 14.58867,-17.52849c8.0571,0 14.58867,7.84777 14.58867,17.52849z" fill="#ff48b3" stroke="#000000" stroke-width="0"/><path d="M290.84056,350.32657c0,5.17949 -6.62135,9.37831 -14.78921,9.37831c-8.16786,0 -14.78921,-4.19881 -14.78921,-9.37831c0,-5.17949 -1.19937,-23.22245 6.96848,-23.22245c1.39139,0 -1.84905,4.43102 -3.74605,9.91794c-1.73939,5.03103 -2.17366,11.09206 -0.60289,12.41785c3.50466,2.95806 12.40603,5.06084 18.43858,4.08342c5.6251,-0.91141 8.52029,-4.87988 8.52029,-3.19675z" fill="#bb1c79" stroke="none" stroke-width="0"/><path d="M290.23896,341.50651c0,4.4819 1.60797,10.80385 -0.69525,13.90312c-2.67164,3.59501 -9.56654,3.62536 -13.89342,3.62536c-4.03821,0 -9.1972,-0.6316 -11.83871,-3.81706c-2.62887,-3.17021 -2.74995,-8.88268 -2.74995,-13.71142c0,-9.68072 6.53157,-17.52849 14.58868,-17.52849c8.0571,0 14.58867,7.84777 14.58867,17.52849z" fill="none" stroke="#000000" stroke-width="3.5"/></g><g><path d="M313.40469,340.84717c0,4.4819 1.60797,10.80386 -0.69525,13.90312c-2.67164,3.59501 -9.56654,3.62537 -13.89342,3.62537c-4.03821,0 -9.1972,-0.63162 -11.83872,-3.81707c-2.62887,-3.17021 -2.74995,-8.88268 -2.74995,-13.71143c0,-9.68072 6.53157,-17.52848 14.58867,-17.52848c8.0571,0 14.58867,7.84776 14.58867,17.52848z" fill="#ff48b3" stroke="#000000" stroke-width="0"/><path d="M313.69844,350.12952c0,5.17949 -6.62135,9.37831 -14.7892,9.37831c-8.16786,0 -14.78921,-4.19881 -14.78921,-9.37831c0,-5.17949 -1.19937,-23.22245 6.96848,-23.22245c1.39139,0 -1.84906,4.43102 -3.74606,9.91794c-1.73939,5.03103 -2.17365,11.09206 -0.60288,12.41785c3.50465,2.95806 12.40603,5.06085 18.43858,4.08342c5.6251,-0.91141 8.52028,-4.87988 8.52028,-3.19675z" fill="#bb1c79" stroke="none" stroke-width="0"/><path d="M313.09684,341.30946c0,4.4819 1.60798,10.80385 -0.69525,13.90312c-2.67164,3.59501 -9.56654,3.62536 -13.89342,3.62536c-4.03822,0 -9.1972,-0.6316 -11.83871,-3.81706c-2.62887,-3.17021 -2.74995,-8.88268 -2.74995,-13.71142c0,-9.68072 6.53157,-17.52849 14.58867,-17.52849c8.0571,0 14.58867,7.84777 14.58867,17.52849z" fill="none" stroke="#000000" stroke-width="3.5"/></g></g><g><path d="M267.64869,143.36733c-0.64305,5.26279 -14.31888,7.9218 -30.54582,5.93907c-16.22695,-1.98273 -28.86019,-7.85641 -28.21713,-13.11919c0.64305,-5.26279 14.31888,-7.9218 30.54582,-5.93907c16.22695,1.98273 28.86019,7.85641 28.21713,13.11919z" fill="#000000" stroke="#000000" stroke-width="3.5" stroke-linecap="butt"/><path d="M270.37857,145.20804c-0.28619,2.34222 -6.02802,4.67115 -9.25504,6.17897c-6.28974,2.93887 -13.52504,3.73129 -25.74129,2.23861c-18.48393,-2.25852 -32.78392,-9.68897 -31.93991,-16.59638c0.29012,-2.3744 -4.17208,-13.23212 -0.86639,-14.74744c3.56033,-1.63204 0.31855,7.77888 5.68203,14.74117c4.14375,5.37896 21.44716,10.8718 26.73413,11.5178c8.65115,1.05706 21.39372,2.09879 29.01559,-3.87704c5.24604,-4.1131 6.55367,-15.87085 8.54173,-15.78457c1.29488,0.0562 -1.99377,14.87956 -2.17086,16.32888z" fill="#ff48b3" stroke="#000000" stroke-width="0" stroke-linecap="butt"/><path d="M210.35474,143.04142c5.72375,4.15484 16.51299,7.65813 25.31737,8.73392c8.20996,1.00316 17.91072,1.07386 24.19091,-2.09354c7.43253,-3.74861 10.73338,-10.82194 10.50829,-8.97968c-0.18616,1.52355 -2.43719,6.90414 -7.71814,9.58339c-6.50032,3.29788 -17.01293,3.71526 -26.90381,2.50672c-11.27343,-1.37748 -22.5204,-4.63177 -28.29563,-9.0864c-3.40822,-2.62888 -4.10579,-6.89058 -3.95166,-8.152c0.21133,-1.72955 0.92243,3.18287 6.85269,7.48761z" fill="#bb1c79" stroke="none" stroke-width="0" stroke-linecap="butt"/><g><g fill="none" stroke="none" stroke-width="1" stroke-linecap="butt" font-family="sans-serif" font-weight="normal" font-size="12" text-anchor="start"/><g stroke-linecap="butt"><g data-paper-data="{&quot;index&quot;:null}"><path d="M287.26451,31.95391c3.9048,-0.64941 11.02896,4.12651 13.60512,6.36845c3.29533,2.8678 8.21994,5.45074 7.17729,10.81859c-0.93126,4.79434 -7.41308,12.26269 -11.47653,16.93193c-3.54297,4.07115 -5.83472,8.91903 -9.89504,10.67333c-5.81031,2.5104 -13.32374,0.61224 -16.99606,-2.58364c-2.40843,-2.09597 -7.63914,-6.78879 -7.69914,-10.42194c-0.09541,-5.77784 6.71047,-11.25236 11.99838,-17.32858c5.0563,-5.8101 7.73476,-13.53493 13.28598,-14.45814z" data-paper-data="{&quot;index&quot;:null}" fill="#ff48b3" stroke="#000000" stroke-width="0"/><path d="M263.30988,56.1171c3.18379,-3.65842 21.25357,-27.94532 27.53065,-22.48262c1.10289,0.95981 20.29695,12.38528 18.08413,14.76346c-1.80454,1.93939 -13.97669,-10.59861 -19.62647,-9.52726c-11.25605,2.13444 -18.52479,17.39711 -19.65386,22.54685c-1.56448,7.13573 17.65625,13.03468 16.3969,14.48176c-3.18379,3.65842 -10.85333,2.19576 -17.13042,-3.26694c-6.27708,-5.4627 -8.7847,-12.85683 -5.60091,-16.51526z" data-paper-data="{&quot;index&quot;:null}" fill="#bb1c79" stroke="none" stroke-width="0"/><path d="M287.00286,31.96001c3.90479,-0.64939 11.02895,4.1265 13.60513,6.36844c3.29531,2.86779 8.21994,5.45074 7.17728,10.8186c-0.93125,4.79436 -7.41307,12.26269 -11.47652,16.93192c-3.54297,4.07115 -5.83472,8.91903 -9.89504,10.67332c-5.81031,2.5104 -13.32374,0.61224 -16.99606,-2.58364c-2.40843,-2.09597 -7.63914,-6.78879 -7.69914,-10.42194c-0.09542,-5.77784 6.71045,-11.25234 11.99836,-17.32857c5.05631,-5.81011 7.73478,-13.53492 13.28599,-14.45814z" data-paper-data="{&quot;index&quot;:null}" fill="none" stroke="#000000" stroke-width="3.5"/><path d="M292.04343,40.4412c4.88791,-0.78611 9.85324,6.82771 12.08331,8.76846c3.92799,3.41839 -1.52333,8.22745 -7.95793,15.62132c-2.75776,3.16889 -4.68862,7.58581 -7.66175,9.02792c-3.96396,1.92271 -8.85686,0.12364 -11.10138,-1.82966c-1.61255,-1.40334 -7.54559,-4.91083 -7.25699,-7.65157c0.41441,-3.93538 8.00258,-7.56726 11.79559,-11.92573c2.78142,-3.19609 6.37759,-11.4122 10.09912,-12.01071z" data-paper-data="{&quot;index&quot;:null}" fill="none" stroke="#000000" stroke-width="3.5"/><path d="M281.92706,52.20308c2.78145,-3.19609 6.37761,-11.4122 10.09912,-12.01071c4.88791,-0.78611 9.85325,6.8277 12.08332,8.76846c3.92798,3.41839 -1.52334,8.22744 -7.95793,15.6213c-2.75777,3.16889 -4.68862,7.58582 -7.66175,9.02793c-3.96396,1.92271 -8.85686,0.12364 -11.10138,-1.82966c-1.61254,-1.40333 -7.54558,-4.91083 -7.25697,-7.65157c0.41441,-3.93538 8.00256,-7.56726 11.79557,-11.92573z" data-paper-data="{&quot;index&quot;:null}" fill="#ff94d2" stroke="#000000" stroke-width="0"/><path d="M286.72306,73.31156c-1.70618,1.96054 -8.57993,-0.51544 -12.16491,-3.63532c-3.58498,-3.11988 -5.10806,-7.23836 -3.40187,-9.1989c0.79151,-0.90949 6.2728,-3.2022 10.45562,-7.82207c4.83374,-5.33879 8.50428,-12.92987 10.42618,-11.25733c1.9995,1.74009 -10.17958,11.4172 -12.06392,19.4809c-1.49417,6.39405 7.50346,11.56564 6.74889,12.43271z" fill="#ea88c1" stroke="none" stroke-width="0"/><path d="M281.87833,52.01586c2.78145,-3.19609 6.37762,-11.41221 10.09914,-12.01072c4.88791,-0.78611 9.85324,6.82771 12.08331,8.76847c3.92798,3.41839 -1.52333,8.22743 -7.95793,15.62129c-2.75777,3.16889 -4.68861,7.58581 -7.66174,9.02792c-3.96396,1.92271 -8.85687,0.12364 -11.10138,-1.82966c-1.61254,-1.40333 -7.54558,-4.91082 -7.25697,-7.65156c0.41441,-3.93538 8.00257,-7.56726 11.79558,-11.92574z" data-paper-data="{&quot;index&quot;:null}" fill="none" stroke="#000000" stroke-width="3.5"/></g><g data-paper-data="{&quot;index&quot;:null}"><path d="M302.25018,57.72453c-6.05528,1.78125 -11.11236,-9.66624 -12.99841,-16.07773c-1.88604,-6.41147 1.49381,-13.05299 7.54909,-14.83424c2.83465,-0.83386 17.51877,-1.48203 24.50774,2.87111c7.94058,4.94585 8.14143,15.21326 9.14456,18.62332c1.88604,6.41147 -22.14771,7.63628 -28.203,9.41754z" fill="#ff48b3" stroke="#000000" stroke-width="0"/><path d="M303.39134,57.75044c-6.05528,1.78125 -12.74782,-2.83855 -14.94818,-10.3186c-2.03554,-6.9197 0.48632,-13.86311 5.66941,-16.27476c0.41972,-0.1953 -2.48175,-2.18176 -2.02812,-2.31521c6.05528,-1.78125 21.12415,-7.75423 23.32451,-0.27417c1.1317,3.84719 -15.12268,-0.6837 -17.777,5.58498c-1.11295,2.62842 -2.07161,7.31376 -0.21619,11.88798c2.32316,5.72734 7.61064,11.22883 5.97558,11.7098z" fill="#bb1c79" stroke="none" stroke-width="0"/><path d="M301.79399,57.69232c-6.05528,1.78125 -11.11236,-9.66626 -12.9984,-16.07774c-1.88604,-6.41147 1.49381,-13.05299 7.54909,-14.83424c2.83466,-0.83386 17.51878,-1.48204 24.50774,2.87111c7.94056,4.94586 8.14142,15.21325 9.14456,18.62332c1.88604,6.41147 -22.14771,7.63629 -28.203,9.41754z" fill="none" stroke="#000000" stroke-width="3.5"/><path d="M301.51606,53.37054c-4.9867,1.46691 -10.28635,-1.61744 -11.83709,-6.88909c-1.55073,-5.27166 -4.03129,-13.38982 0.9554,-14.85672c0.92999,-0.27358 8.18192,2.89838 12.92257,3.44252c7.27118,0.8346 13.21179,-0.55166 17.14011,0.91945c7.24374,2.71269 4.99459,8.09193 5.81254,10.87253c1.55073,5.27166 -20.00683,5.04441 -24.99354,6.51133z" fill="#ff94d2" stroke="#000000" stroke-width="0"/><path d="M297.77623,52.95528c-2.35087,0.69155 -5.63266,-3.42562 -7.3301,-9.19595c-1.69743,-5.77033 -1.1677,-11.00871 1.18317,-11.70026c1.23084,-0.36208 -1.54904,12.82493 6.91461,16.07695c7.70171,2.95927 26.72538,-4.15306 27.5341,-1.40389c1.69743,5.77033 -25.95091,5.53158 -28.30178,6.22314z" fill="#ea88c1" stroke="none" stroke-width="0"/><path d="M301.89637,53.1448c-4.9867,1.46691 -10.28635,-1.61744 -11.83708,-6.88911c-1.55074,-5.27165 -4.0313,-13.3898 0.95541,-14.85672c0.92999,-0.27358 8.18192,2.89837 12.92257,3.44251c7.27118,0.8346 13.2118,-0.55165 17.14012,0.91946c7.24374,2.71269 4.99459,8.09192 5.81253,10.87252c1.55073,5.27166 -20.00683,5.04441 -24.99354,6.51133z" fill="none" stroke="#000000" stroke-width="3.5"/></g></g><g stroke-linecap="butt"><g><path d="M231.89731,46.37626c1.82677,7.8451 5.27656,15.86938 2.48651,20.92983c-1.7544,3.18205 -8.57375,4.87897 -11.68329,5.60304c-4.74137,1.10405 -12.26894,-0.73728 -16.22716,-5.67636c-2.76604,-3.45148 -2.52073,-8.80814 -3.7447,-14.06446c-1.40376,-6.02849 -3.6335,-15.66272 -2.21117,-20.33498c1.59249,-5.23115 7.15332,-5.2072 11.40796,-6.19792c3.32613,-0.7745 11.85736,-1.65814 15.00342,0.74426c4.47256,3.41533 3.22166,11.49509 4.96842,18.99658z" data-paper-data="{&quot;index&quot;:null}" fill="#ff48b3" stroke="#000000" stroke-width="0"/><path d="M236.77898,59.94746c1.09988,4.72343 -4.57843,10.08237 -12.68284,11.96952c-8.10441,1.88715 -15.56596,-0.41211 -16.66583,-5.13555c-0.43506,-1.86835 19.31029,1.92051 21.26959,-5.11706c1.414,-5.0789 2.139,-21.96848 -6.80697,-29.12558c-4.49028,-3.59238 -21.11675,1.78564 -21.80298,-0.77302c-0.84149,-3.13756 21.46833,-4.24425 22.89229,-4.57583c8.10441,-1.88715 12.69689,28.03406 13.79676,32.7575z" data-paper-data="{&quot;index&quot;:null}" fill="#bb1c79" stroke="none" stroke-width="0"/><path d="M232.12566,46.50417c1.82677,7.8451 5.27656,15.86938 2.4865,20.92983c-1.7544,3.18205 -8.57375,4.87897 -11.68329,5.60305c-4.74137,1.10405 -12.26893,-0.73729 -16.22715,-5.67637c-2.76604,-3.45148 -2.52073,-8.80814 -3.7447,-14.06445c-1.40376,-6.0285 -3.63351,-15.66272 -2.21117,-20.33498c1.59248,-5.23115 7.15333,-5.2072 11.40796,-6.19792c3.32614,-0.77451 11.85735,-1.65813 15.00341,0.74425c4.47257,3.41534 3.22167,11.49507 4.96843,18.99657z" data-paper-data="{&quot;index&quot;:null}" fill="none" stroke="#000000" stroke-width="3.5"/><path d="M222.03052,47.98257c1.31034,5.62727 6.31423,12.38981 4.83746,16.06107c-1.02847,2.55679 -7.91328,2.87748 -9.99526,3.36228c-2.89791,0.6748 -8.06363,-0.02692 -10.66567,-3.58209c-1.95163,-2.66651 -1.58927,-7.47339 -2.54198,-11.56478c-2.22291,-9.54631 -4.78746,-16.34829 0.28401,-17.52921c2.87927,-0.67045 10.83202,-5.07256 14.7827,-2.08899c3.00795,2.27162 2.33784,11.2152 3.29872,15.3417z" data-paper-data="{&quot;index&quot;:null}" fill="none" stroke="#000000" stroke-width="3.5"/><path d="M222.16231,47.7708c1.31033,5.62728 6.31423,12.38981 4.83746,16.06107c-1.02847,2.55679 -7.91328,2.87749 -9.99525,3.36228c-2.89791,0.6748 -8.06363,-0.02693 -10.66567,-3.58209c-1.95163,-2.66651 -1.58927,-7.47338 -2.54198,-11.56478c-2.22291,-9.54631 -4.78747,-16.34829 0.284,-17.52921c2.87927,-0.67045 10.83203,-5.07256 14.78271,-2.08899c3.00795,2.27161 2.33784,11.2152 3.29873,15.34172z" data-paper-data="{&quot;index&quot;:null}" fill="#ff94d2" stroke="#000000" stroke-width="0"/><path d="M219.82499,56.35099c2.11127,-8.0073 -4.11807,-22.26112 -1.53649,-22.86226c2.48138,-0.5778 2.16971,7.84837 3.94052,14.82919c1.53236,6.04079 5.30181,10.63342 5.57524,11.80769c0.58943,2.53127 -2.68499,5.45701 -7.31361,6.53481c-4.62862,1.0778 -11.86156,0.04655 -12.45097,-2.48472c-0.26067,-1.11947 10.11122,-1.47538 11.78532,-7.8247z" fill="#ea88c1" stroke="none" stroke-width="0"/><path d="M222.29301,47.62818c1.31033,5.62728 6.31422,12.38981 4.83745,16.06107c-1.02847,2.55679 -7.91328,2.87748 -9.99526,3.36228c-2.89791,0.6748 -8.06363,-0.02693 -10.66567,-3.58209c-1.95163,-2.66651 -1.58926,-7.47338 -2.54197,-11.56478c-2.22291,-9.54631 -4.78747,-16.34828 0.284,-17.5292c2.87927,-0.67045 10.83202,-5.07256 14.7827,-2.08899c3.00795,2.27161 2.33784,11.21521 3.29873,15.34173z" data-paper-data="{&quot;index&quot;:null}" fill="none" stroke="#000000" stroke-width="3.5"/></g><g><path d="M187.33058,-1.58561c3.42626,-0.94634 12.25535,-6.19106 20.64545,-2.05338c7.38463,3.6418 14.57884,16.45925 15.36549,19.30736c1.68042,6.08403 -2.17955,12.45851 -8.62147,14.23777c-6.44192,1.77927 -18.83496,3.52059 -20.51537,-2.56346c-1.68042,-6.08404 -13.31601,-27.14903 -6.87411,-28.92829z" fill="#ff48b3" stroke="#000000" stroke-width="0"/><path d="M193.58077,26.38683c-0.45374,-1.64281 7.00909,-0.05227 13.10032,-1.09932c4.86485,-0.83624 8.33987,-4.12191 9.98595,-6.45378c3.92586,-5.56143 -8.49667,-16.98134 -4.63121,-18.04898c7.51557,-2.0758 10.38878,13.877 12.0692,19.96104c0.12589,0.45578 -3.09215,-0.96156 -3.0367,-0.50197c0.68479,5.67552 -3.88418,11.48027 -10.83674,13.40056c-7.51558,2.07581 -14.9704,-1.17351 -16.65081,-7.25754z" fill="#bb1c79" stroke="none" stroke-width="0"/><path d="M194.47268,27.71328c-1.68042,-6.08403 -13.31601,-27.14903 -6.87411,-28.92829c3.42626,-0.94633 12.25534,-6.19105 20.64545,-2.05338c7.38463,3.6418 14.57884,16.45924 15.36549,19.30736c1.68042,6.08403 -2.17955,12.45851 -8.62147,14.23777c-6.44193,1.77926 -18.83497,3.52058 -20.51539,-2.56345z" fill="none" stroke="#000000" stroke-width="3.5"/><path d="M198.29102,25.66997c-1.38387,-5.01038 -12.94713,-23.20575 -7.65044,-24.66871c2.79379,-0.77165 6.17771,-5.51971 12.30299,-0.79622c3.32178,2.56158 5.27729,8.33985 9.82143,14.07721c2.96267,3.74064 9.48247,8.22885 9.74056,9.16326c1.38387,5.01037 -6.82162,7.18468 -12.11831,8.64764c-5.29669,1.46296 -10.71235,-1.41282 -12.09623,-6.4232z" fill="#ff94d2" stroke="#000000" stroke-width="0"/><path d="M190.97618,1.30088c2.76223,-0.76294 6.75337,19.1508 13.32968,24.13333c7.22693,5.47546 16.96434,-3.8416 17.30592,-2.6049c0.65238,2.36203 -3.51872,5.57499 -9.31646,7.17633c-5.79774,1.60134 -11.02659,0.98467 -11.67898,-1.37736c-0.65238,-2.36204 -15.4379,-25.72604 -9.64016,-27.32738z" fill="#ea88c1" stroke="none" stroke-width="0"/><path d="M198.28223,25.22778c-1.38388,-5.01038 -12.94713,-23.20575 -7.65044,-24.66871c2.79379,-0.77165 6.1777,-5.51971 12.30298,-0.79622c3.32178,2.56158 5.2773,8.33985 9.82144,14.07721c2.96267,3.74064 9.48246,8.22886 9.74055,9.16327c1.38387,5.01038 -6.82161,7.18469 -12.1183,8.64764c-5.29669,1.46294 -10.71236,-1.41282 -12.09624,-6.4232z" fill="none" stroke="#000000" stroke-width="3.5"/></g></g><g><g><g><g><path d="M210.25926,134.0524c0,0 -5.62391,-0.94204 -5.81597,-4.45097c-0.19912,-3.63764 2.19207,-11.98601 2.19207,-11.98601l45.48972,11.32991c0,0 17.16863,-4.22781 16.83353,-1.48528c-0.12697,1.03918 1.24679,8.06647 -3.63336,11.14166c-5.78724,3.64678 -17.96979,3.32485 -17.96979,3.32485c0,0 -5.67303,2.02026 -11.42184,1.45838c-6.61313,-0.64633 -13.50506,-3.89662 -14.94055,-4.07202c-0.28462,-0.03477 -10.73379,-5.26055 -10.73379,-5.26055z" fill="#ffffff" stroke="#000000" stroke-width="0" stroke-linecap="butt"/><path d="M236.53454,139.5234c17.68827,2.16129 32.71141,-7.78136 32.22021,-3.7613c-0.4912,4.02006 -16.25409,7.82277 -33.94235,5.66148c-17.68827,-2.16129 -30.60374,-9.46815 -30.11253,-13.48821c0.4912,-4.02006 14.1464,9.42675 31.83467,11.58804z" fill="#d6d6d6" stroke="none" stroke-width="0" stroke-linecap="butt"/><path d="M210.57426,133.78179c0,0 -5.62391,-0.94204 -5.81597,-4.45097c-0.19912,-3.63764 2.19207,-11.98601 2.19207,-11.98601l45.48972,11.32991c0,0 17.16863,-4.22781 16.83353,-1.48528c-0.12697,1.03918 1.24679,8.06647 -3.63336,11.14166c-5.78724,3.64678 -17.96979,3.32485 -17.96979,3.32485c0,0 -5.67303,2.02026 -11.42184,1.45838c-6.61313,-0.64633 -13.50506,-3.89662 -14.94055,-4.07202c-0.28462,-0.03477 -10.73379,-5.26055 -10.73379,-5.26055z" fill="none" stroke="#000000" stroke-width="3.5" stroke-linecap="butt"/><path d="M205.55592,92.18781c1.86355,-15.25153 11.47019,-27.49269 23.93154,-32.54981c5.23134,-2.12301 10.96578,-2.97992 16.84164,-2.26196c19.87252,2.42818 33.83748,21.95081 31.19159,43.60501c-1.11729,9.14405 3.97628,17.80125 -1.65415,23.88161c-7.70311,8.31864 -27.63819,12.33298 -39.11902,10.93017c-12.47798,-1.52466 -31.56041,-10.88054 -36.73049,-22.18035c-3.06382,-6.69636 4.55436,-13.36715 5.53889,-21.42466z" fill="#ff48b3" stroke="#000000" stroke-width="0" stroke-linecap="butt"/><path d="M242.59328,83.99235c10.35379,1.26511 18.06151,7.90226 17.2157,14.82451c-0.84581,6.92225 -9.92488,11.50826 -20.27867,10.24315c-10.35379,-1.26511 -18.06151,-7.90226 -17.2157,-14.82451c0.84581,-6.92225 9.92488,-11.50826 20.27867,-10.24315z" fill="#bb1c79" stroke="none" stroke-width="0" stroke-linecap="butt"/><path d="M226.74501,77.66915c7.1589,0.87473 11.94848,9.88132 10.69783,20.11677c-1.25065,10.23546 -8.06794,17.82382 -15.22683,16.94909c-5.94096,-0.72591 -13.50674,-3.53589 -14.08627,-11.5172c-0.1188,-1.63622 3.17566,-6.85823 3.38843,-8.59958c1.25065,-10.23546 8.06794,-17.82382 15.22683,-16.94909z" fill="#000000" stroke="#000000" stroke-width="3.5" stroke-linecap="butt"/><path d="M224.41656,124.62429c15.50972,5.28013 33.54627,5.71704 43.39933,-1.35665c5.18843,-3.72487 5.80962,-26.14947 1.38096,-42.45994c-2.89159,-10.64955 -12.03814,-18.23052 -9.29237,-17.89502c22.20241,2.71287 18.96207,55.05927 18.56016,58.3485c-0.4019,3.28925 -18.56782,16.20092 -40.77022,13.48805c-22.20242,-2.71287 -40.03371,-20.02296 -39.63181,-23.31221c0.13151,-1.07632 12.24435,8.38379 26.35394,13.18726z" fill="#bb1c79" stroke="none" stroke-width="0" stroke-linecap="butt"/><path d="M269.55582,100.65828c-0.21277,1.74135 1.72741,7.60296 1.21813,9.16243c-2.48422,7.60695 -10.504,8.51256 -16.44496,7.78665c-7.15891,-0.87473 -11.94848,-9.88131 -10.69784,-20.11676c1.25065,-10.23546 8.06794,-17.82382 15.22683,-16.94909c7.1589,0.87473 11.94849,9.88132 10.69784,20.11677z" data-paper-data="{&quot;index&quot;:null}" fill="#000000" stroke="#000000" stroke-width="3.5" stroke-linecap="butt"/><path d="M246.3291,57.37602c19.87252,2.42818 33.83748,21.95081 31.19159,43.60501c-1.11729,9.14405 3.97628,17.80125 -1.65415,23.88161c-7.70311,8.31865 -27.63819,12.33299 -39.11902,10.93018c-12.47798,-1.52466 -31.56039,-10.88055 -36.73049,-22.18035c-3.06383,-6.69636 4.55436,-13.36715 5.53889,-21.42466c2.64589,-21.65421 20.90067,-37.23997 40.77318,-34.81178z" fill="none" stroke="#000000" stroke-width="3.5" stroke-linecap="butt"/><path d="M210.20358,104.6808c10.73587,-3.95973 28.50876,-0.0303 38.90493,1.23999c17.35991,2.12117 24.84671,8.27293 23.81961,16.67878c-1.02709,8.40584 -19.36271,14.08892 -36.72262,11.96774c-17.3599,-2.12117 -34.53032,-11.47102 -33.50322,-19.87688c0.41201,-3.37192 0.30999,-7.35727 7.5013,-10.00965z" fill="#ff94d2" stroke="#000000" stroke-width="0" stroke-linecap="butt"/><path d="M203.65205,116.48906c0.35617,-2.91498 13.58878,10.65539 32.74442,12.99598c5.95107,0.72715 31.02175,-0.59222 33.59057,-7.15156c0.68482,-1.74865 -2.65477,-5.41756 -7.61736,-8.41029c-4.86937,-2.93652 -11.36804,-5.20586 -10.25542,-6.0406c3.26586,-2.45015 14.40952,6.94018 16.48097,6.3861c2.48976,-0.66597 4.52763,9.86066 4.42551,10.69639c-0.35617,2.91499 -16.33759,11.84123 -35.49324,9.50065c-19.15563,-2.34058 -34.23163,-15.06168 -33.87546,-17.97667z" fill="#ea88c1" stroke="none" stroke-width="0" stroke-linecap="butt"/><path d="M202.99273,115.06174c0.41201,-3.37192 0.31,-7.35728 7.50129,-10.00966c1.01141,-0.37303 2.08526,-0.67606 3.20952,-0.91789c10.80957,-2.32508 26.27865,1.00726 35.6954,2.15787c17.35991,2.12117 24.84671,8.27293 23.81961,16.67878c-1.02709,8.40584 -19.36271,14.08892 -36.72262,11.96774c-17.35991,-2.12117 -34.53032,-11.47102 -33.50322,-19.87688z" fill="none" stroke="#000000" stroke-width="3.5" stroke-linecap="butt"/><path d="M236.46767,121.18688c7.98721,0.97594 13.28069,7.87664 12.86864,11.24902c-0.41207,3.37238 -6.37364,1.93937 -14.36085,0.96343c-7.98721,-0.97594 -14.38986,-2.35841 -13.9778,-5.73078c0.41206,-3.37237 7.48281,-7.45761 15.47001,-6.48167z" fill="#ff0000" stroke="#000000" stroke-width="0" stroke-linecap="butt"/><path d="M221.84163,129.36677c0.24579,-2.01159 -0.89311,-8.15486 6.32496,-7.27289c3.2491,0.397 -1.6965,5.57577 2.12494,7.5668c4.66813,2.43216 17.82418,1.79386 17.68902,2.89997c-0.24579,2.0116 -6.29645,2.92734 -13.51452,2.04538c-7.21807,-0.88196 -12.8702,-3.22764 -12.62441,-5.23924z" fill="#d00000" stroke="none" stroke-width="0" stroke-linecap="butt"/><path d="M236.38436,121.57581c7.98721,0.97594 13.28069,7.87664 12.86864,11.24902c-0.41207,3.37238 -6.37364,1.93937 -14.36085,0.96343c-7.98721,-0.97594 -14.38986,-2.35841 -13.9778,-5.73078c0.41206,-3.37237 7.48281,-7.45761 15.47001,-6.48167z" fill="none" stroke="#000000" stroke-width="3.5" stroke-linecap="butt"/><path d="M223.86903,105.9485c0.51327,-4.20069 7.97983,-6.74452 16.677,-5.68183c8.69718,1.06269 15.33154,5.3295 14.81827,9.53018c-0.27215,2.22732 -4.9965,1.29172 -8.32531,2.29678c-2.94924,0.89046 -4.26601,3.88427 -8.35168,3.38504c-2.92402,-0.35728 -5.19601,-4.50478 -7.46047,-5.46212c-4.47092,-1.89017 -7.69852,-1.27965 -7.35781,-4.06804z" fill="#222222" stroke="#000000" stroke-width="0" stroke-linecap="butt"/><path d="M225.20214,105.42328c0.20965,-1.71577 7.66628,1.48035 14.82518,2.35508c7.15891,0.87473 15.64658,-0.8081 15.43694,0.90767c-0.20965,1.71576 -8.68726,6.87554 -15.84616,6.00081c-2.92273,-0.35712 -3.86378,-2.30212 -6.34579,-3.86026c-3.5974,-2.25836 -8.1942,-4.38801 -8.07015,-5.4033z" fill="#151515" stroke="none" stroke-width="0" stroke-linecap="butt"/><path d="M224.07852,105.72087c0.51327,-4.20069 7.97983,-6.74452 16.677,-5.68183c8.69718,1.06269 15.33154,5.3295 14.81827,9.53018c-0.27215,2.22732 -4.9965,1.29172 -8.32531,2.29678c-2.94924,0.89046 -4.26601,3.88427 -8.35168,3.38504c-2.92402,-0.35728 -5.19601,-4.50478 -7.46047,-5.46212c-4.47092,-1.89017 -7.69852,-1.27965 -7.35781,-4.06804z" fill="none" stroke="#000000" stroke-width="3.5" stroke-linecap="butt"/><path d="M214.54415,135.18427l0.62782,-5.13815" fill="none" stroke="#000000" stroke-width="3.5" stroke-linecap="round"/><path d="M228.87587,135.25923l-0.73993,6.05568" fill="none" stroke="#000000" stroke-width="3.5" stroke-linecap="round"/><path d="M244.89807,141.31434l-0.42424,-4.14923" fill="none" stroke="#000000" stroke-width="3.5" stroke-linecap="round"/><path d="M257.7576,139.71945l0.07731,-5.20542" fill="none" stroke="#000000" stroke-width="3.5" stroke-linecap="round"/><path d="M224.66246,89.67616c3.20176,0.39122 5.48582,3.25754 5.10158,6.40213c-0.38423,3.14458 -3.29125,5.37662 -6.49301,4.9854c-3.20176,-0.39122 -5.48582,-3.25754 -5.10158,-6.40213c0.38423,-3.14458 3.29125,-5.37662 6.49301,-4.9854z" fill="#652c45" stroke="none" stroke-width="0" stroke-linecap="butt"/><path d="M224.45737,92.46369c1.62155,0.19814 2.77546,1.67328 2.57733,3.29484c-0.19814,1.62155 -1.67328,2.77546 -3.29484,2.57733c-1.62155,-0.19814 -2.77546,-1.67328 -2.57733,-3.29484c0.19814,-1.62155 1.67328,-2.77546 3.29484,-2.57733z" fill="#ff9cc7" stroke="none" stroke-width="0" stroke-linecap="butt"/><path d="M257.12157,93.37657c3.20176,0.39122 5.48582,3.25754 5.10158,6.40213c-0.38423,3.14458 -3.29125,5.37662 -6.49301,4.9854c-3.20175,-0.39122 -5.48581,-3.25754 -5.10157,-6.40212c0.38423,-3.14457 3.29125,-5.37662 6.493,-4.98541z" fill="#652c45" stroke="none" stroke-width="0" stroke-linecap="butt"/><path d="M256.53094,95.98103c1.62156,0.19814 2.76814,1.73327 2.56096,3.42881c-0.20718,1.69554 -1.68966,2.90943 -3.31121,2.7113c-1.62155,-0.19814 -2.76814,-1.73327 -2.56096,-3.42881c0.20718,-1.69555 1.68966,-2.90943 3.31121,-2.7113z" fill="#ff9cc7" stroke="none" stroke-width="0" stroke-linecap="butt"/></g><path d="M266.27095,86.28765l5.94399,-9.49398" fill="none" stroke="#000000" stroke-width="3.5" stroke-linecap="round"/></g><path d="M236.8893,72.25985l-4.61094,7.48233" fill="none" stroke="#000000" stroke-width="3.5" stroke-linecap="round"/><path d="M228.098,78.36161l-1.55005,-8.67004" fill="none" stroke="#000000" stroke-width="3.5" stroke-linecap="round"/><path d="M224.2986,79.20208l-4.54478,-7.29634" fill="none" stroke="#000000" stroke-width="3.5" stroke-linecap="round"/></g><path d="M253.64859,72.13314l2.14528,10.91728" fill="none" stroke="#000000" stroke-width="3.5" stroke-linecap="round"/><path d="M264.51835,72.15656l-4.36568,9.03447" fill="none" stroke="#000000" stroke-width="3.5" stroke-linecap="round"/></g><g fill="none" stroke="none" stroke-width="1" stroke-linecap="butt" font-family="sans-serif" font-weight="normal" font-size="12" text-anchor="start"/></g><path d="M270.13153,145.58082c-0.28619,2.34222 -6.02802,4.67115 -9.25503,6.17897c-6.28974,2.93887 -13.52504,3.73129 -25.74129,2.23861c-18.48393,-2.25852 -32.78392,-9.68897 -31.93991,-16.59638c0.29012,-2.37439 -4.17207,-13.23212 -0.86639,-14.74744c3.56032,-1.63204 0.31855,7.77888 5.68203,14.74117c4.14375,5.37896 21.44717,10.8718 26.73413,11.5178c8.65115,1.05706 21.39372,2.09879 29.01559,-3.87704c5.24605,-4.1131 6.55366,-15.87085 8.54173,-15.78456c1.29488,0.0562 -1.99377,14.87956 -2.17086,16.32888z" fill="none" stroke="#000000" stroke-width="3.5" stroke-linecap="butt"/></g></g></g></svg>