<svg version="1.1" xmlns="http://www.w3.org/2000/svg" xmlns:xlink="http://www.w3.org/1999/xlink" width="213.58259" height="341.10415" viewBox="0,0,213.58259,341.10415"><g transform="translate(-132.57831,-10.38457)"><g data-paper-data="{&quot;isPaintingLayer&quot;:true}" fill-rule="nonzero" stroke-linejoin="miter" stroke-miterlimit="10" stroke-dasharray="" stroke-dashoffset="0" style="mix-blend-mode: normal"><g><path d="M288.51333,211.84948l-16.59466,-73.51245l20.39924,-5.2978l16.59466,73.51245z" data-paper-data="{&quot;index&quot;:null}" fill="#1b1b1b" stroke="#000000" stroke-width="2.5" stroke-linecap="butt"/><g data-paper-data="{&quot;index&quot;:null}"><g stroke-linecap="butt"><path d="M310.31839,198.17497c-0.34419,7.54326 -7.92876,21.51739 -14.82024,21.20294c-6.89148,-0.31445 -21.76524,-67.97923 -21.42105,-75.52247c0.22105,-4.84457 -0.52616,-10.01423 3.05886,-12.28051c1.99704,-1.26243 7.57696,-0.9209 10.04247,-0.8084c3.57656,0.16319 -2.52208,26.25613 2.5568,42.77897c4.70733,15.3141 20.74873,21.00106 20.58317,24.62948z" fill="#840000" stroke="#000000" stroke-width="0"/><path d="M310.87612,195.28297c-0.54449,11.93295 -7.93232,21.28959 -15.11765,20.96174c-7.18533,-0.32786 -21.99494,-59.85217 -21.45046,-71.78514c0.35924,-7.87313 7.24287,26.72086 14.87522,47.72421c3.93571,10.83056 9.06986,14.22674 11.51447,14.33829c7.18533,0.32786 10.72289,-23.17206 10.1784,-11.2391z" fill="#430000" stroke="none" stroke-width="0"/><path d="M310.34507,197.591c-0.34419,7.54326 -7.92876,21.51739 -14.82024,21.20294c-6.89147,-0.31445 -21.76524,-67.97923 -21.42105,-75.52247c0.18641,-4.08546 -5.48596,-10.63212 -2.77448,-13.01656c2.29489,-2.0181 12.71678,-0.21648 15.8758,-0.07234c3.77939,0.17245 -2.15564,27.30954 3.0655,44.76509c4.29926,14.37347 20.2299,19.23695 20.07447,22.64336z" fill="none" stroke="#000000" stroke-width="3"/></g><path d="M290.3101,173.18601l-7.90589,4.84668" fill="none" stroke="#000000" stroke-width="3" stroke-linecap="round"/></g></g><path d="M199.22249,308.77922l19.9282,-68.46429l20.13656,5.86124l-19.9282,68.46429z" fill="#1b1b1b" stroke="#000000" stroke-width="2.5" stroke-linecap="butt"/><g data-paper-data="{&quot;index&quot;:null}"><g stroke-linecap="butt"><path d="M267.04538,216.38654c9.05289,1.87604 25.48505,76.70384 24.34319,85.64984c-1.14186,8.946 -18.69738,24.82654 -27.75028,22.9505c-9.05291,-1.87605 -16.19401,-86.85306 -15.05215,-95.79906c0.56671,-4.43994 -1.83583,-10.12532 1.4654,-12.44459c3.35038,-2.35381 12.43392,-1.30164 16.99382,-0.35668z" fill="#840000" stroke="#000000" stroke-width="0"/><path d="M277.94877,309.92453c9.43894,1.95605 16.24499,-25.37733 14.43863,-11.22532c-1.80635,14.15202 -19.50113,30.01898 -28.94006,28.06293c-9.43895,-1.95605 -16.41841,-82.64962 -14.61206,-96.80162c1.19179,-9.33722 7.10652,33.53171 15.24798,60.31071c4.19824,13.80884 10.65415,18.9878 13.86549,19.65329z" fill="#430000" stroke="none" stroke-width="0"/><path d="M267.13376,215.69395c9.05289,1.87604 25.48505,76.70384 24.34319,85.64984c-1.14186,8.946 -18.97066,26.19296 -28.02357,24.31691c-9.05291,-1.87605 -15.92072,-88.21947 -14.77887,-97.16547c0.60587,-4.74666 -2.49797,-11.53655 1.17213,-13.81702c3.2469,-2.01751 13.03758,0.13512 17.2871,1.01576z" fill="none" stroke="#000000" stroke-width="3"/></g><path d="M252.06853,273.51222l31.95867,-16.03198" fill="none" stroke="#000000" stroke-width="3" stroke-linecap="round"/></g><g><g stroke-linecap="butt"><path d="M223.48967,208.94013c4.55991,-0.94495 13.64345,-1.99711 16.99382,0.35668c3.30123,2.31927 0.89869,8.00464 1.46541,12.44459c0.60866,4.76861 -1.13616,31.14032 -4.26952,55.01356c-2.74487,20.91342 -6.55533,39.90948 -10.78264,40.7855c-3.22292,0.66789 1.51989,-29.85954 -0.81402,-48.72951c-0.15895,-1.28515 -3.11228,-3.97798 -3.48856,-5.04044c-2.2994,-6.49251 -5.37054,-7.53414 -7.01242,-9.01511c-5.22581,-4.71362 -15.89679,44.05331 -16.43527,39.83456c-1.14186,-8.946 15.2903,-83.7738 24.34319,-85.64984z" fill="#840000" stroke="#000000" stroke-width="0"/><path d="M229.36409,318.49326c3.21134,-0.66549 -7.11055,-21.85963 -2.91231,-35.66847c8.14146,-26.77899 14.0562,-69.64792 15.248,-60.31071c1.80635,14.15201 -5.17312,94.84558 -14.61206,96.80162c-9.43894,1.95605 3.75269,0.9603 1.94633,-13.19171c-1.80635,-14.15201 -9.1089,14.32529 0.33004,12.36926z" fill="#430000" stroke="none" stroke-width="0"/><path d="M223.40127,208.24757c4.24952,-0.88064 14.0402,-3.03327 17.2871,-1.01575c3.67009,2.28047 0.56627,9.07036 1.17213,13.81703c0.64454,5.04973 -1.26299,34.76009 -4.67502,60.01929c-2.63266,19.48952 -6.16101,36.32909 -10.10384,37.14618c-2.2808,0.47265 0.98236,-49.45796 -2.00534,-50.97439c-3.96987,-2.01495 -7.51957,-19.5704 -12.41339,-12.4089c-6.0418,8.84144 -13.13291,42.7637 -13.60483,39.06638c-1.14186,-8.946 15.2903,-83.7738 24.34319,-85.64984z" fill="none" stroke="#000000" stroke-width="3"/></g><path d="M238.4665,266.06583l-31.95867,-16.03198" fill="none" stroke="#000000" stroke-width="3" stroke-linecap="round"/></g><g><g stroke-linecap="butt"><path d="M213.77957,131.51502c3.87357,0.39788 11.43193,1.86574 13.69798,4.63725c2.23283,2.73084 -0.79522,6.74044 -1.18105,10.49663c-0.7774,7.5683 -27.6681,72.58259 -35.3584,71.79266c-7.69031,-0.78992 -13.95368,-15.92244 -13.17628,-23.49074c0.7774,-7.5683 28.32745,-64.22575 36.01774,-63.43583z" fill="#840000" stroke="#000000" stroke-width="0"/><path d="M187.14769,204.80467c2.72798,0.28021 8.94312,-2.28061 14.97163,-12.43804c11.69084,-19.69795 24.63971,-53.0522 23.82832,-45.15295c-1.22978,11.97257 -26.91795,70.05219 -34.9362,69.22858c-8.01824,-0.82361 -14.65348,-12.48861 -13.4237,-24.46117c1.22978,-11.97257 1.5417,11.99998 9.55993,12.82358z" fill="#430000" stroke="none" stroke-width="0"/><path d="M213.83974,130.92911c3.60991,0.3708 11.95049,1.12449 14.19673,3.59601c2.53901,2.79364 -1.26732,7.52219 -1.6798,11.53786c-0.7774,7.5683 -27.6681,72.58259 -35.3584,71.79266c-7.69031,-0.78992 -13.95368,-15.92244 -13.17628,-23.49074c0.7774,-7.5683 28.32745,-64.22575 36.01774,-63.43583z" fill="none" stroke="#000000" stroke-width="3"/></g><path d="M192.20358,160.59434l19.60746,18.76268" fill="none" stroke="#000000" stroke-width="3" stroke-linecap="round"/></g><g><path d="M160.78364,210.931c2.41251,-9.04128 11.04747,-14.58847 19.2867,-12.38996c8.23923,2.19849 12.96273,11.31015 10.55022,20.35144c-2.41251,9.04129 -11.04748,14.58847 -19.28671,12.38996c-8.23924,-2.19849 -12.96273,-11.31015 -10.55022,-20.35144z" fill="#840000" stroke="#000000" stroke-width="0" stroke-linecap="butt"/><path d="M160.41802,217.43826c1.3619,-5.10395 2.27017,-19.75898 9.56154,-17.8134c1.2233,0.32641 -3.09641,5.40366 -3.89824,11.57059c-0.76058,5.84965 1.98815,12.77157 3.25499,14.24593c5.35815,6.23581 18.40276,-4.39298 17.48607,-0.95757c-1.36191,5.10394 -8.37676,7.66432 -15.66812,5.71874c-7.29136,-1.94558 -12.09814,-7.66035 -10.73624,-12.76431z" fill="#430000" stroke="none" stroke-width="0" stroke-linecap="butt"/><path d="M179.81067,199.38437c8.23924,2.19849 12.96273,11.31015 10.55022,20.35144c-2.41251,9.04129 -11.04746,14.58847 -19.2867,12.38996c-8.23924,-2.19849 -12.96273,-11.31015 -10.55022,-20.35144c2.41251,-9.04129 11.04746,-14.58847 19.2867,-12.38996z" fill="none" stroke="#000000" stroke-width="3.5" stroke-linecap="butt"/><g><path d="M189.3774,236.26873c1.82884,-6.85387 -9.91825,-13.39456 -6.56422,-12.4996c1.5676,0.41828 7.09083,-6.41488 11.34767,-3.73684c4.85109,3.05188 8.33662,15.82686 7.36254,19.4774c-1.82884,6.85389 -6.03037,11.68453 -9.38441,10.78957c-3.35403,-0.89496 -4.59044,-7.17664 -2.7616,-14.03052z" fill="#840000" stroke="#000000" stroke-width="0" stroke-linecap="butt"/><path d="M184.20658,224.97541c-1.23789,-3.4231 2.75842,-4.40668 3.45409,-4.22105c1.89576,0.50585 11.14109,21.84708 10.38231,24.69071c-0.75878,2.84363 -2.9107,4.73877 -4.80645,4.23292c-1.89575,-0.50585 -3.36402,-2.94785 -2.60524,-5.79149c0.48033,-1.80012 -4.09897,-12.47974 -6.42471,-18.9111z" fill="#430000" stroke="none" stroke-width="0" stroke-linecap="butt"/><path d="M182.54426,223.58982c1.5676,0.41828 7.09083,-6.41488 11.34767,-3.73684c4.85109,3.05188 8.33662,15.82686 7.36254,19.4774c-1.82884,6.85387 -6.03039,11.68453 -9.38441,10.78957c-3.35402,-0.89496 -4.59043,-7.17665 -2.76159,-14.03052c1.82884,-6.85387 -9.91824,-13.39456 -6.56422,-12.4996z" fill="none" stroke="#000000" stroke-width="3.5" stroke-linecap="butt"/><path d="M190.1305,234.37924l9.98164,-2.42775" fill="none" stroke="#000000" stroke-width="3.5" stroke-linecap="round"/></g><g data-paper-data="{&quot;index&quot;:null}"><path d="M153.14782,231.49949c0.40831,7.08193 -2.07012,12.98494 -5.53576,13.18474c-3.46563,0.19981 -6.60606,-5.37923 -7.01437,-12.46116c-0.21747,-3.772 5.77399,-15.58094 11.14109,-17.59126c4.70964,-1.76405 8.74054,6.043 10.36029,5.94961c3.46563,-0.19981 -9.35958,3.83614 -8.95127,10.91804z" fill="#840000" stroke="#000000" stroke-width="0" stroke-linecap="butt"/><path d="M150.38266,238.7076c0.16941,2.93825 -1.76139,5.03377 -3.72022,5.14671c-1.95883,0.11294 -3.68411,-2.17742 -3.85351,-5.11567c-0.16941,-2.93825 13.19181,-21.9751 15.15065,-22.08804c0.71882,-0.04144 4.43447,1.72823 2.53136,4.83116c-3.57557,5.82982 -10.21552,15.36582 -10.10828,17.22583z" fill="#430000" stroke="none" stroke-width="0" stroke-linecap="butt"/><path d="M153.44737,231.37813c0.40832,7.08192 -2.07012,12.98494 -5.53575,13.18475c-3.46561,0.19981 -6.60606,-5.37924 -7.01437,-12.46116c-0.21747,-3.772 5.77399,-15.58094 11.14109,-17.59126c4.70964,-1.76405 8.74054,6.043 10.36029,5.94961c3.46561,-0.19981 -9.35958,3.83614 -8.95127,10.91804z" fill="none" stroke="#000000" stroke-width="3.5" stroke-linecap="butt"/><path d="M143.50496,225.10509l9.28649,4.39183" fill="none" stroke="#000000" stroke-width="3.5" stroke-linecap="round"/></g><g data-paper-data="{&quot;index&quot;:null}"><path d="M167.72062,237.8892c1.82884,6.85389 0.59244,13.13556 -2.7616,14.03052c-3.35403,0.89496 -7.55557,-3.93568 -9.38441,-10.78957c-0.97408,-3.65053 2.51145,-16.42551 7.36254,-19.4774c4.25684,-2.67803 9.78007,4.15512 11.34767,3.73684c3.35403,-0.89496 -8.39306,5.64572 -6.56422,12.4996z" fill="#840000" stroke="#000000" stroke-width="0" stroke-linecap="butt"/><path d="M166.46672,245.507c0.75878,2.84363 -0.70949,5.28563 -2.60524,5.7915c-1.89575,0.50585 -4.04767,-1.38929 -4.80645,-4.23292c-0.75878,-2.84363 8.48655,-24.18486 10.38231,-24.69071c0.69568,-0.18563 4.69199,0.79793 3.45409,4.22104c-2.32575,6.43136 -6.90504,17.11098 -6.42471,18.9111z" fill="#430000" stroke="none" stroke-width="0" stroke-linecap="butt"/><path d="M167.98953,237.70986c1.82884,6.85387 0.59244,13.13556 -2.76159,14.03052c-3.35402,0.89496 -7.55557,-3.93569 -9.38441,-10.78957c-0.97408,-3.65053 2.51145,-16.42551 7.36254,-19.4774c4.25684,-2.67803 9.78007,4.15512 11.34767,3.73684c3.35402,-0.89496 -8.39306,5.64572 -6.56422,12.4996z" fill="none" stroke="#000000" stroke-width="3.5" stroke-linecap="butt"/><path d="M166.96751,235.99973l-9.98164,-2.42775" fill="none" stroke="#000000" stroke-width="3.5" stroke-linecap="round"/></g><g data-paper-data="{&quot;index&quot;:null}"><path d="M179.81947,240.67397c4.27118,5.6637 5.48683,11.94942 2.71523,14.03957c-2.7716,2.09015 -8.48088,-0.80676 -12.75205,-6.47046c-2.27492,-3.01661 -3.84734,-16.16486 -0.49931,-20.8165c2.93791,-4.08182 10.62471,0.17389 11.9201,-0.803c2.7716,-2.09015 -5.65515,8.38671 -1.38397,14.05039z" fill="#840000" stroke="#000000" stroke-width="0" stroke-linecap="butt"/><path d="M181.52118,248.20442c1.77209,2.34983 1.32949,5.16467 -0.23706,6.34606c-1.56655,1.18139 -4.27305,0.23419 -6.04513,-2.11564c-1.77209,-2.34983 -1.22735,-25.60122 0.33921,-26.78261c0.57488,-0.43353 4.6478,-1.02438 4.78749,2.613c0.26248,6.83392 0.03369,18.45167 1.15547,19.93919z" fill="#430000" stroke="none" stroke-width="0" stroke-linecap="butt"/><path d="M180.00123,240.40673c4.27118,5.66368 5.48683,11.94942 2.71525,14.03956c-2.77159,2.09015 -8.48088,-0.80678 -12.75205,-6.47046c-2.27492,-3.01661 -3.84734,-16.16486 -0.49931,-20.8165c2.93791,-4.08182 10.62471,0.17389 11.9201,-0.803c2.77159,-2.09015 -5.65515,8.38671 -1.38397,14.05039z" fill="none" stroke="#000000" stroke-width="3.5" stroke-linecap="butt"/><path d="M168.24916,240.70876l10.16215,-1.50255" fill="none" stroke="#000000" stroke-width="3.5" stroke-linecap="round"/></g></g><g data-paper-data="{&quot;index&quot;:null}"><path d="M323.12338,218.0109c2.41251,9.04128 -2.31098,18.15294 -10.55022,20.35144c-8.23923,2.19851 -16.8742,-3.34867 -19.28671,-12.38996c-2.41251,-9.04128 2.31099,-18.15294 10.55022,-20.35144c8.23923,-2.19851 16.87419,3.34868 19.2867,12.38996z" fill="#840000" stroke="#000000" stroke-width="0" stroke-linecap="butt"/><path d="M323.48899,224.51817c1.36191,5.10395 -3.44487,10.81873 -10.73624,12.76431c-7.29136,1.94558 -14.30621,-0.6148 -15.66812,-5.71874c-0.91669,-3.43541 12.12792,7.19338 17.48607,0.95757c1.26685,-1.47436 4.01557,-8.39627 3.25499,-14.24593c-0.80183,-6.16694 -5.12154,-11.24418 -3.89824,-11.57059c7.29136,-1.94558 8.19964,12.70944 9.56154,17.8134z" fill="#430000" stroke="none" stroke-width="0" stroke-linecap="butt"/><path d="M323.38306,218.85429c2.41251,9.04128 -2.31098,18.15294 -10.55022,20.35144c-8.23924,2.19851 -16.87419,-3.34867 -19.2867,-12.38996c-2.41251,-9.04128 2.31098,-18.15294 10.55022,-20.35144c8.23924,-2.19851 16.87419,3.34867 19.2867,12.38996z" fill="none" stroke="#000000" stroke-width="3.5" stroke-linecap="butt"/><g><path d="M294.52962,243.34864c1.82884,6.85389 0.59244,13.13556 -2.7616,14.03052c-3.35403,0.89496 -7.55557,-3.93568 -9.38441,-10.78957c-0.97408,-3.65053 2.51145,-16.42551 7.36254,-19.4774c4.25684,-2.67803 9.78007,4.15512 11.34767,3.73684c3.35403,-0.89496 -8.39306,5.64572 -6.56422,12.4996z" fill="#840000" stroke="#000000" stroke-width="0" stroke-linecap="butt"/><path d="M293.27574,250.96645c0.75878,2.84363 -0.70949,5.28563 -2.60524,5.7915c-1.89575,0.50585 -4.04767,-1.38929 -4.80645,-4.23292c-0.75878,-2.84363 8.48655,-24.18486 10.38231,-24.69071c0.69568,-0.18563 4.69198,0.79793 3.45408,4.22104c-2.32575,6.43136 -6.90504,17.11098 -6.42471,18.9111z" fill="#430000" stroke="none" stroke-width="0" stroke-linecap="butt"/><path d="M294.79855,243.16931c1.82884,6.85387 0.59244,13.13556 -2.76159,14.03052c-3.35402,0.89496 -7.55557,-3.93569 -9.38441,-10.78957c-0.97408,-3.65053 2.51145,-16.42551 7.36254,-19.4774c4.25684,-2.67803 9.78007,4.15512 11.34767,3.73684c3.35402,-0.89496 -8.39306,5.64572 -6.56422,12.4996z" fill="none" stroke="#000000" stroke-width="3.5" stroke-linecap="butt"/><path d="M293.77652,241.45917l-9.98164,-2.42775" fill="none" stroke="#000000" stroke-width="3.5" stroke-linecap="round"/></g><g data-paper-data="{&quot;index&quot;:null}"><path d="M330.75918,238.57939c0.40832,-7.08192 -12.41689,-11.11786 -8.95127,-10.91804c1.61975,0.09339 5.65065,-7.71367 10.36029,-5.94962c5.36709,2.0103 11.35855,13.81926 11.14109,17.59124c-0.40832,7.08192 -3.54876,12.66097 -7.01437,12.46116c-3.46563,-0.19981 -5.94406,-6.10282 -5.53576,-13.18474z" fill="#840000" stroke="#000000" stroke-width="0" stroke-linecap="butt"/><path d="M323.41605,228.5617c-1.90312,-3.10293 1.81254,-4.8726 2.53136,-4.83116c1.95884,0.11294 15.32005,19.14979 15.15065,22.08804c-0.16941,2.93825 -1.89469,5.22861 -3.85351,5.11567c-1.95883,-0.11294 -3.88963,-2.20846 -3.72022,-5.1467c0.10724,-1.86001 -6.5327,-11.39602 -10.10828,-17.22583z" fill="#430000" stroke="none" stroke-width="0" stroke-linecap="butt"/><path d="M321.50837,227.53998c1.61976,0.09339 5.65065,-7.71367 10.3603,-5.94962c5.36709,2.0103 11.35855,13.81926 11.14109,17.59126c-0.40832,7.08192 -3.54876,12.66096 -7.01438,12.46115c-3.46561,-0.19981 -5.94405,-6.10283 -5.53573,-13.18474c0.40831,-7.08192 -12.41689,-11.11786 -8.95127,-10.91804z" fill="none" stroke="#000000" stroke-width="3.5" stroke-linecap="butt"/><path d="M340.40205,232.18502l-9.2865,4.39183" fill="none" stroke="#000000" stroke-width="3.5" stroke-linecap="round"/></g><g data-paper-data="{&quot;index&quot;:null}"><path d="M316.18641,244.96909c1.82884,-6.85387 -9.91825,-13.39456 -6.56422,-12.4996c1.5676,0.41828 7.09083,-6.41488 11.34767,-3.73684c4.85109,3.05188 8.33662,15.82686 7.36254,19.4774c-1.82884,6.85389 -6.03037,11.68453 -9.38441,10.78957c-3.35403,-0.89496 -4.59044,-7.17664 -2.7616,-14.03052z" fill="#840000" stroke="#000000" stroke-width="0" stroke-linecap="butt"/><path d="M311.01557,233.67582c-1.23789,-3.4231 2.75841,-4.40668 3.45408,-4.22105c1.89576,0.50585 11.14109,21.84708 10.38231,24.69071c-0.75878,2.84363 -2.9107,4.73877 -4.80645,4.23292c-1.89575,-0.50585 -3.36402,-2.94787 -2.60524,-5.7915c0.48033,-1.80012 -4.09896,-12.47974 -6.4247,-18.9111z" fill="#430000" stroke="none" stroke-width="0" stroke-linecap="butt"/><path d="M309.35328,232.29019c1.5676,0.41828 7.09083,-6.41488 11.34767,-3.73684c4.85109,3.05188 8.33662,15.82686 7.36254,19.4774c-1.82884,6.85387 -6.03039,11.68453 -9.38441,10.78957c-3.35402,-0.89496 -4.59043,-7.17665 -2.76159,-14.03052c1.82884,-6.85387 -9.91824,-13.39456 -6.56422,-12.4996z" fill="none" stroke="#000000" stroke-width="3.5" stroke-linecap="butt"/><path d="M326.92112,240.65187l-9.98164,2.42775" fill="none" stroke="#000000" stroke-width="3.5" stroke-linecap="round"/></g><g data-paper-data="{&quot;index&quot;:null}"><path d="M304.08756,247.75392c4.27118,-5.66368 -4.15558,-16.14054 -1.38397,-14.05039c1.29539,0.97688 8.9822,-3.27882 11.9201,0.80299c3.34804,4.65164 1.77561,17.79989 -0.49931,20.81649c-4.27118,5.6637 -9.98046,8.56061 -12.75207,6.47047c-2.77161,-2.09015 -1.55594,-8.37588 2.71523,-14.03957z" fill="#840000" stroke="#000000" stroke-width="0" stroke-linecap="butt"/><path d="M303.54132,235.34514c0.1397,-3.63738 4.21263,-3.04653 4.78751,-2.613c1.56656,1.18139 2.11129,24.43279 0.33921,26.78261c-1.77208,2.34983 -4.47858,3.29703 -6.04513,2.11564c-1.56655,-1.18139 -2.00915,-3.99623 -0.23706,-6.34606c1.12179,-1.48752 0.89301,-13.10526 1.15548,-19.93919z" fill="#430000" stroke="none" stroke-width="0" stroke-linecap="butt"/><path d="M302.52181,233.43627c1.29539,0.97688 8.98219,-3.27882 11.9201,0.80299c3.34803,4.65164 1.77561,17.79989 -0.49931,20.81649c-4.27118,5.66368 -9.98047,8.56061 -12.75207,6.47047c-2.77159,-2.09015 -1.55593,-8.37589 2.71525,-14.03957c4.27118,-5.66368 -4.15557,-16.14053 -1.38397,-14.05039z" fill="none" stroke="#000000" stroke-width="3.5" stroke-linecap="butt"/><path d="M305.4957,246.28612l10.16216,1.50257" fill="none" stroke="#000000" stroke-width="3.5" stroke-linecap="round"/></g></g><g stroke-linecap="butt"><path d="M233.33583,217.97485l2.05539,-56.39696l26.29318,0.95826l-2.05539,56.39696z" fill="#1b1b1b" stroke="#000000" stroke-width="2.5"/><g><path d="M206.52307,216.57524l0.70828,-19.43409l64.01817,2.33314l-0.70828,19.43409z" fill="#1b1b1b" stroke="#000000" stroke-width="2.5"/><g><path d="M207.62602,201.30777c0.5679,-15.58238 4.20039,-52.53507 14.82857,-68.12944c7.54986,-11.07765 20.98001,-4.0568 28.81025,-3.77143c10.05078,0.3663 20.08419,-7.00837 24.65825,9.70539c4.00592,14.63775 7.66921,49.70747 7.21571,62.15083c-0.97131,26.6515 -16.53823,25.3445 -35.39138,24.6574c-13.10079,-0.47746 1.17375,-49.87559 -6.27303,-58.05944c-3.26976,-3.59339 -34.14472,41.57842 -33.84835,33.44669z" fill="#840000" stroke="#000000" stroke-width="0"/><path d="M243.16033,165.49875c0.12328,-3.38263 -3.9291,-3.65884 -9.98932,3.44013c-4.46335,5.22838 -18.21981,27.15695 -19.83045,26.42958c-6.10016,-2.75487 9.62748,-43.38401 14.95531,-52.31888c5.33975,-8.95485 13.89178,-8.09061 19.48726,-7.88668c6.63412,0.24178 14.3854,-0.99158 19.42084,9.69752c6.08729,12.92192 8.78654,39.13058 8.29256,52.6847c-0.9026,24.7662 -16.32798,27.83813 -30.98203,27.30406c-2.73426,-0.09965 2.19224,-4.09637 1.23462,-4.25826c-4.17466,-0.70576 -0.79005,0.2494 -0.05586,-19.89573z" fill="#7d3c3c" stroke="#000000" stroke-width="0"/><path d="M210.87664,198.22704c0.13086,-3.5906 2.98356,-19.49825 9.12359,-33.92145c3.55042,-8.34008 5.90442,-17.82903 10.44164,-23.27553c3.80452,-4.56697 9.80638,-5.81439 12.90607,-5.79236c0.44415,0.00315 10.97496,-5.11788 11.42449,-5.1015c13.79817,0.50287 16.66001,18.09421 16.38094,25.75143c-0.27907,7.65722 -17.5296,-7.3742 -31.32777,-7.87708c-9.61683,-0.35049 -12.82657,9.12318 -15.2406,13.91699c-1.0496,2.08432 -10.61182,26.71649 -10.52725,24.39608z" fill="#5c2c2c" stroke="none" stroke-width="0"/><path d="M209.42741,204.76344c0.24361,-6.6843 0.01777,-72.08795 20.24205,-71.35087c3.73767,0.13622 -4.38661,12.58721 -8.84449,28.49787c-2.15636,7.69628 -12.59739,33.95471 -8.56921,32.85452c2.88781,-0.78873 15.33318,-16.28394 19.73594,-21.75347c4.94093,-6.1381 8.05008,-13.93319 9.6782,-11.22485c3.96298,6.59233 0.65746,32.61113 2.88115,46.8364c0.65714,4.20379 3.77331,5.70845 5.2365,7.46053c10.26624,12.29316 32.2803,-2.7078 32.19188,-0.2815c-0.24361,6.6843 -16.83612,11.50547 -37.06041,10.7684c-7.98691,-0.29108 -2.48454,-7.07665 -2.537,-16.86868c-0.06751,-12.60126 0.46759,-31.79053 0.04822,-40.03286c-0.07994,-1.57104 -2.24047,-2.81893 -2.21687,-3.46642z" fill="#430000" stroke="none" stroke-width="0"/><path d="M244.91767,209.74489c0.07562,-2.07482 2.78116,-4.51209 0.49661,-4.47769c-2.55716,0.0385 -9.75702,2.70166 -1.7087,2.99498c15.23863,0.55537 30.40327,-8.24342 30.24302,-3.84621c-0.07743,2.12468 -1.6323,10.04154 -7.0943,14.39016c-5.84209,4.65124 -11.26693,5.45239 -19.14245,5.16537c-7.23836,-0.2638 -4.99671,-6.55498 -5.7122,-10.30305c-0.12305,-0.64459 4.45349,-0.48408 3.75026,-0.98679c-3.81621,-2.72803 -2.61576,1.13051 -2.54471,-0.81883z" fill="#5c2c2c" stroke="none" stroke-width="0"/><path d="M228.44919,142.81752c5.33973,-8.95485 13.89177,-8.09061 19.48724,-7.88668c6.63413,0.24178 14.38541,-0.99158 19.42085,9.69752c6.08728,12.92192 8.78653,39.13059 8.29255,52.68472c-0.38643,10.60299 -3.43473,17.22965 -7.94477,21.29937c-6.02439,5.43622 -14.65696,6.31011 -23.03726,6.00469c-3.49642,-0.12743 -3.08335,-5.14038 -3.10826,-11.86438c-0.05539,-14.94951 3.78923,-39.64047 0.6395,-46.99144c-0.84889,-1.98117 -14.89084,11.24202 -22.59681,22.67338c-4.74083,7.03273 -10.10724,13.80061 -10.02785,11.62226c0.55796,-15.3095 10.23023,-42.74235 18.87479,-57.23945z" fill="none" stroke="#000000" stroke-width="3"/><path d="M223.26042,133.07759c7.54986,-11.07766 20.97999,-4.05681 28.81025,-3.77144c10.05078,0.3663 20.08419,-7.00838 24.65825,9.70539c4.00592,14.63775 7.66919,49.70748 7.21569,62.15084c-0.39219,10.76107 -3.16389,16.96406 -7.57067,20.4902c-0.59234,0.47398 -1.21424,0.89959 -1.86385,1.2814c-6.4869,3.81264 -15.73926,3.25817 -25.95686,2.88579c-7.77315,-0.28329 -1.29154,-49.40153 -5.53069,-61.45087c-2.72683,-7.75073 -16.47114,20.84683 -19.45028,17.89929c-3.62254,-3.58412 -15.45364,27.53364 -15.1404,18.93883c0.5679,-15.58237 4.20039,-52.53506 14.82857,-68.12943z" fill="none" stroke="#000000" stroke-width="3"/></g></g><g><path d="M278.84582,157.43827c-0.12526,3.43685 -0.99219,22.59305 -8.7045,22.31197c-7.7123,-0.28108 -19.34946,-19.893 -19.2242,-23.32984c0.12526,-3.43685 13.06366,-19.52943 20.77596,-19.24835c7.7123,0.28108 7.278,16.82937 7.15274,20.26622z" data-paper-data="{&quot;index&quot;:null}" fill="#410000" stroke="#000000" stroke-width="0"/><path d="M228.44891,135.78528c7.7123,0.28108 19.44496,17.27279 19.3197,20.70964c-0.12526,3.43685 -13.15916,22.14962 -20.87147,21.86855c-7.7123,-0.28108 -7.1825,-19.44956 -7.05725,-22.88641c0.12526,-3.43684 0.8967,-19.97285 8.60901,-19.69178z" fill="#410000" stroke="#000000" stroke-width="0"/><path d="M278.67937,157.62145c-0.12526,3.43685 -0.99219,22.59305 -8.7045,22.31197c-7.71229,-0.28107 -19.34946,-19.89299 -19.2242,-23.32984c0.12526,-3.43685 13.06366,-19.52943 20.77596,-19.24835c7.7123,0.28108 7.278,16.82937 7.15274,20.26622z" data-paper-data="{&quot;index&quot;:null}" fill="none" stroke="#000000" stroke-width="3.5"/><path d="M228.60159,135.98008c7.71229,0.28107 19.44495,17.27279 19.31969,20.70964c-0.12526,3.43685 -13.15916,22.14962 -20.87146,21.86855c-7.7123,-0.28108 -7.1825,-19.44956 -7.05725,-22.88641c0.12526,-3.43684 0.89671,-19.97285 8.60901,-19.69178z" fill="none" stroke="#000000" stroke-width="3.5"/><path d="M225.9627,136.21186c1.01215,0.03689 -2.43539,9.60032 -2.94447,15.00878c-0.88438,9.39577 0.55179,17.2642 2.58403,20.01036c4.74084,6.40629 18.63956,-12.34879 18.53923,-9.59567c-0.16811,4.61261 -10.0333,15.86833 -16.90564,15.61787c-6.87235,-0.25046 -8.14942,-11.91227 -7.98132,-16.52488c0.16811,-4.61262 -0.16417,-24.76693 6.70817,-24.51647z" fill="#170000" stroke="none" stroke-width="0"/><path d="M279.04741,162.71823c-0.16811,4.61262 -2.29069,16.15051 -9.16303,15.90005c-6.87234,-0.25046 -15.89202,-12.19443 -15.72392,-16.80706c0.10034,-2.75311 12.59694,16.96394 17.79154,10.91975c2.22674,-2.59094 4.23188,-10.33396 4.0338,-19.76918c-0.11403,-5.43118 -2.85625,-15.22019 -1.84413,-15.18331c6.87234,0.25046 5.07384,20.32713 4.90573,24.93974z" data-paper-data="{&quot;index&quot;:null}" fill="#170000" stroke="none" stroke-width="0"/><g><path d="M250.6759,146.76207c4.96335,0.18089 8.80792,5.23988 8.58707,11.2996c-0.22085,6.05971 -4.42347,10.82543 -9.38683,10.64454c-4.96335,-0.18089 -8.80792,-5.23988 -8.58707,-11.2996c0.22085,-6.0597 4.42348,-10.82543 9.38683,-10.64454z" fill="#410000" stroke="#000000" stroke-width="0"/><path d="M250.55205,146.94682c4.96335,0.18089 8.80792,5.23988 8.58707,11.2996c-0.22085,6.05971 -4.42348,10.82543 -9.38683,10.64454c-4.96335,-0.18089 -8.80792,-5.23988 -8.58707,-11.2996c0.22085,-6.05971 4.42348,-10.82543 9.38683,-10.64454z" fill="none" stroke="#000000" stroke-width="3.5"/><path d="M241.44192,159.73318c0.16481,-4.52219 1.12091,-13.07753 6.0079,-12.89942c1.53177,0.05583 -2.8263,8.91935 -2.6698,12.98997c0.11542,3.00213 4.51656,5.1559 5.53843,6.48856c2.01312,2.62539 8.89591,-7.99352 8.82085,-5.93413c-0.16481,4.52218 -4.26011,8.04372 -9.14711,7.86562c-4.887,-0.17811 -8.71509,-3.98843 -8.55028,-8.5106z" fill="#170000" stroke="none" stroke-width="0"/></g></g></g><g><path d="M246.41815,103.66069c14.67732,0.66202 26.2742,7.882 25.90233,16.12625c-0.37186,8.24426 -12.57163,14.39087 -27.24896,13.72884c-14.67732,-0.66202 -26.2742,-7.882 -25.90233,-16.12625c0.37186,-8.24426 12.57163,-14.39087 27.24896,-13.72884z" fill="#000000" stroke="#000000" stroke-width="2.5" stroke-linecap="butt"/><path d="M217.44846,116.20897c4.38186,-1.36628 19.83001,6.33305 29.30966,7.11563c10.59184,0.87439 15.31777,-5.05619 20.98265,-4.80067c13.6802,0.61705 3.1341,3.98648 2.9206,8.72001c-0.21351,4.73353 -11.47659,8.07063 -25.15677,7.45357c-2.30002,-0.10375 -4.52192,-0.31265 -6.62594,-0.61091c-10.4105,-1.47583 -17.93528,-5.13948 -17.75766,-9.07719c0.04596,-1.01911 -6.21801,-8.00672 -3.67252,-8.80043z" fill="#ffffff" stroke="#000000" stroke-width="0" stroke-linecap="butt"/><path d="M231.67121,125.96748c8.61444,2.52426 19.33976,3.05742 25.70763,1.98424c8.46472,-1.42657 9.22067,-6.34732 14.08049,-6.12812c11.77448,0.53109 -3.02126,7.94332 -3.14403,10.6651c-0.12277,2.72179 -9.76739,4.4977 -21.54187,3.96661c-5.68826,-0.25657 -13.51456,-2.17578 -19.15705,-5.68872c-6.03725,-3.75872 -9.70255,-9.16116 -9.63909,-10.56806c0.03397,-0.75329 6.01547,3.51895 13.69392,5.76894z" fill="#e2e2e2" stroke="none" stroke-width="0" stroke-linecap="butt"/><path d="M218.36761,116.82298c4.38186,-1.36628 19.83001,6.33305 29.30966,7.11563c10.59184,0.87439 15.31777,-5.05619 20.98265,-4.80067c13.6802,0.61705 3.1341,3.98648 2.9206,8.72001c-0.21351,4.73353 -11.47659,8.07063 -25.15677,7.45357c-2.30002,-0.10375 -4.52192,-0.31265 -6.62594,-0.61091c-10.4105,-1.47583 -17.93528,-5.13948 -17.75766,-9.07719c0.04596,-1.01911 -6.21801,-8.00672 -3.67252,-8.80043z" fill="none" stroke="#000000" stroke-width="2" stroke-linecap="butt"/><path d="M214.07711,117.4907c0.17451,-3.86912 2.65658,-6.90008 5.54386,-6.76986c0.72356,0.03264 -1.91294,2.67743 -1.02769,4.63647c0.682,1.50927 -0.22796,3.23141 0.39896,5.04027c0.75365,2.17455 3.09598,4.47775 4.68557,6.73143c2.2205,3.14816 11.49906,5.14429 11.44247,6.39875c-0.03627,0.80409 28.0264,-1.952 27.26814,-0.23259c-0.06647,0.15072 5.6171,-3.14772 8.17379,-7.76707c1.59205,-2.87645 0.20654,-7.96522 0.85833,-7.85769c1.16071,0.1915 4.13838,-7.53819 6.25059,-8.26382c1.38542,-0.47596 2.37291,5.23977 2.32075,7.05401c-0.05259,1.82874 -6.90087,9.96607 -7.83655,12.87599c-1.28858,4.00741 0.06429,6.68858 -0.90352,6.9292c-8.53891,2.12303 -38.21745,4.46428 -39.57032,3.68502c-4.46112,-2.56962 -11.14744,-15.14898 -12.69251,-15.21867c-2.88728,-0.13024 -5.08639,-3.37234 -4.91188,-7.24146z" fill="#840000" stroke="#000000" stroke-width="0" stroke-linecap="butt"/><path d="M214.1732,110.16563c0.0352,-0.78027 4.27678,10.69726 10.44395,16.73332c5.05674,4.94921 11.78807,9.95359 14.44781,10.07357c5.90355,0.26628 32.38542,-2.9681 32.32137,-1.54803c-0.06405,1.42007 -25.36556,4.72453 -31.26909,4.45825c-1.58289,-0.07139 -4.45647,0.84706 -8.5926,-1.99289c-3.35524,-2.30377 -6.26928,-6.78743 -9.56734,-10.51849c-1.7572,-1.98789 -4.3985,-3.48958 -5.55663,-4.93787c-3.98237,-4.98015 -4.01207,-11.78129 -3.98655,-12.34718z" fill="#430000" stroke="none" stroke-width="0" stroke-linecap="butt"/><path d="M214.28497,116.95267c0.07105,-1.5751 -4.05448,-8.33034 -3.34694,-9.47092c1.0305,-1.66115 7.10201,2.88151 8.81388,2.95873c0.72356,0.03264 -1.91294,2.67743 -1.02769,4.63647c0.6991,1.54706 -0.8529,3.4428 0.02724,5.72895c1.01072,2.62534 4.49971,5.68051 6.0562,7.88726c2.22051,3.14817 7.79304,3.34127 7.73647,4.59573c-0.01903,0.42197 8.44564,-0.14793 16.38556,-0.5364c7.19018,-0.35179 13.95002,-0.55478 13.58969,0.26231c-0.06647,0.15073 5.6171,-3.14772 8.17378,-7.76706c1.59206,-2.87644 0.20654,-7.96521 0.85833,-7.85768c1.02435,0.169 3.41536,-8.42521 5.69657,-9.41245c1.99906,-0.86512 3.98617,5.69748 3.92467,7.83662c-0.05259,1.82874 -7.95077,10.33207 -8.88646,13.242c-1.28858,4.00741 0.06429,6.68858 -0.90352,6.9292c-8.53891,2.12302 -38.21745,4.46428 -39.57032,3.68501c-4.46111,-2.56963 -11.14743,-15.14898 -12.69251,-15.21867c-2.88728,-0.13024 -5.08639,-3.37234 -4.91188,-7.24146z" fill="none" stroke="#000000" stroke-width="2.5" stroke-linecap="butt"/><path d="M227.46146,117.93924l-0.41081,11.0161" fill="none" stroke="#000000" stroke-width="2" stroke-linecap="round"/><path d="M242.55815,132.46553l0.30771,-8.73055" fill="none" stroke="#000000" stroke-width="2" stroke-linecap="round"/><path d="M257.60648,123.25475l-0.23119,8.9422" fill="none" stroke="#000000" stroke-width="2" stroke-linecap="round"/><path d="M267.18366,128.47535l-0.48414,-8.34985" fill="none" stroke="#000000" stroke-width="2" stroke-linecap="round"/><path d="M218.58591,37.5778c5.9046,0.26633 5.16506,6.56381 8.38068,10.62444c2.3556,2.97462 9.56092,3.1032 9.38377,7.03088c-0.419,9.28933 -9.05174,16.44577 -19.28177,15.98434c-10.23002,-0.46142 -18.18343,-8.36598 -17.76443,-17.65532c0.419,-9.28934 9.05172,-16.44577 19.28176,-15.98433z" fill="#840000" stroke="#000000" stroke-width="0" stroke-linecap="butt"/><path d="M205.47433,49.803c-2.31661,7.56297 1.73104,16.14839 6.20901,16.35036c9.10555,0.4107 24.17219,-13.30495 23.84163,-5.97609c-0.33057,7.32886 -7.98006,12.93713 -17.0856,12.52642c-6.16423,-0.27805 -16.34773,-6.1179 -19.34776,-14.35064c-0.80357,-2.20514 1.97805,-12.65928 7.03094,-17.1197c3.94852,-3.48554 10.36644,-1.22266 10.41328,-2.26113c0.168,-3.72463 -8.66749,3.01512 -11.0615,10.83078z" fill="#430000" stroke="none" stroke-width="0" stroke-linecap="butt"/><path d="M218.68848,37.90103c5.81022,0.26207 5.00035,6.47665 8.225,10.43073c2.45298,3.00784 9.72047,3.21121 9.53944,7.22459c-0.419,9.28934 -9.05174,16.44577 -19.28177,15.98434c-10.23003,-0.46143 -18.18344,-8.36599 -17.76444,-17.65532c0.419,-9.28934 9.05174,-16.44577 19.28177,-15.98434z" fill="none" stroke="#000000" stroke-width="3" stroke-linecap="butt"/><path d="M214.58572,114.45086l0.28994,-6.42813c0,0 40.17006,-8.98481 50.8332,-8.50384c9.72517,0.43865 10.59116,11.2744 10.59116,11.2744l-0.28994,6.42813c0,0 -20.97943,1.99827 -31.28996,1.53321c-10.16211,-0.45837 -30.13439,-4.30378 -30.13439,-4.30378z" fill="#ffffff" stroke="#000000" stroke-width="0" stroke-linecap="butt"/><path d="M246.84572,97.01621c17.94238,0.80929 32.30129,5.59503 32.07152,10.68922c-0.05871,1.30167 -1.41415,1.75094 -2.24372,2.93484c-0.50564,0.72161 0.18236,2.37804 -1.41935,2.74539c-2.61334,0.59936 -3.20156,-6.2597 -7.58411,-6.27387c-5.77127,-0.01866 -15.72728,6.65653 -21.73133,6.38572c-7.03439,-0.31729 -21.44575,0.98858 -26.70133,0.03743c-8.1497,-1.47493 -5.43499,-5.66322 -5.2953,-8.76022c0.22977,-5.09419 14.96121,-8.5678 32.90361,-7.75849z" fill="#e2e2e2" stroke="none" stroke-width="0" stroke-linecap="butt"/><path d="M214.58571,114.45085l0.28994,-6.42813c0,0 40.43283,-7.99143 51.76856,-7.48013c7.23251,0.32622 9.6558,10.2507 9.6558,10.2507l-0.28994,6.42813c0,0 -21.45637,2.30394 -31.63118,1.845c-10.29848,-0.46451 -29.79317,-4.61556 -29.79317,-4.61556z" fill="none" stroke="#000000" stroke-width="2" stroke-linecap="butt"/><path d="M249.51846,50.52603c20.51203,0.9252 36.43644,17.28023 35.56817,36.52998c-0.44125,9.78266 1.03838,19.56581 -6.13452,23.33103c-3.26236,1.71249 -6.36318,-6.77327 -11.9408,-6.85679c-6.29018,-0.09421 -15.17657,8.07705 -20.52335,7.83588c-9.48837,-0.42797 -27.62779,1.31475 -33.97098,-2.43584c-7.36957,-4.35747 -2.1776,-14.87944 -1.71098,-25.22472c0.86826,-19.24974 18.20042,-34.10473 38.71244,-33.17953z" fill="#840000" stroke="#000000" stroke-width="0" stroke-linecap="butt"/><path d="M258.45431,75.60764c10.57159,0.47683 8.29561,9.20867 8.0821,13.9422c-0.21351,4.73353 -8.95655,8.18429 -19.52814,7.70745c-10.57159,-0.47683 -36.92528,3.07765 -36.71177,-1.6559c0.06728,-1.49155 -1.34404,-18.76224 5.67205,-30.74195c3.24329,-5.53781 15.27675,-10.19249 17.54532,-11.19103c3.4264,-1.50816 -15.75692,13.1906 -19.28234,25.89982c-1.96267,7.07544 10.61895,13.27997 11.41301,16.33802c0.97461,3.75347 7.53308,-9.42965 13.68882,-14.9077c1.90058,-1.69135 1.1805,-6.6091 1.67118,-6.58697c0,0 5.04995,4.69149 7.88937,4.8861c2.97119,0.20365 9.56039,-3.69006 9.56039,-3.69006z" fill="#430000" stroke="none" stroke-width="0" stroke-linecap="butt"/><path d="M249.53134,50.24033c20.51203,0.9252 36.43644,17.28023 35.56817,36.52998c-0.44125,9.78266 1.03838,19.56581 -6.13452,23.33103c-2.87606,1.5097 -5.30642,-7.55113 -10.11412,-7.50997c-6.7959,0.05819 -16.44185,8.75554 -22.35003,8.48905c-9.48837,-0.42797 -27.62779,1.31475 -33.97098,-2.43584c-7.36957,-4.35747 -2.1776,-14.87944 -1.71098,-25.22472c0.86826,-19.24974 18.20042,-34.10473 38.71244,-33.17953z" fill="none" stroke="#000000" stroke-width="3" stroke-linecap="butt"/><path d="M220.36197,70.46806c2.10115,0.09478 9.62167,9.93169 13.61854,8.79767c3.98962,-1.13197 5.61008,-8.37402 8.09462,-7.54605c4.46559,1.48816 2.77328,9.95432 2.65712,12.52963c-0.24553,5.44358 3.60225,11.47038 -4.36589,11.11097c-7.96814,-0.3594 -25.96559,1.27757 -25.72006,-4.16601c0.24553,-5.44358 -2.25247,-21.08562 5.71567,-20.72622z" fill="#000000" stroke="#000000" stroke-width="3" stroke-linecap="butt"/><path d="M279.69599,94.98719c-0.24553,5.44358 -18.02253,2.19298 -25.99068,1.83358c-7.96814,-0.3594 -3.5934,-6.01532 -3.34787,-11.45891c0.16585,-3.67689 0.74068,-7.71764 7.93555,-8.15812c3.457,-0.21165 12.95965,-2.89435 15.54567,-2.77772c7.96814,0.3594 6.10286,15.11758 5.85732,20.56116z" data-paper-data="{&quot;index&quot;:null}" fill="#000000" stroke="#000000" stroke-width="3" stroke-linecap="butt"/><path d="M214.17609,94.8557c6.25425,-1.59692 20.37974,0.40856 31.18247,0.89581c11.59262,0.52289 25.31316,-0.32974 31.28478,2.05824c3.61926,1.44729 2.01271,8.65156 1.93751,10.31875c-0.11307,2.50677 -2.80883,-5.78246 -10.44434,-5.45456c-5.82149,0.25001 -15.44518,9.43977 -23.49959,9.07648c-8.25653,-0.37241 -22.42344,-0.28578 -28.2319,-1.71938c-7.28973,-1.7992 -5.23016,-5.34185 -5.11924,-7.80066c0.08366,-1.85462 -1.63469,-6.21928 2.89032,-7.37468z" fill="#7d3c3c" stroke="#000000" stroke-width="0" stroke-linecap="butt"/><path d="M225.01714,94.12935c3.11852,0.14066 -3.84079,0.81804 -7.46934,3.23597c-3.57566,2.3827 -3.82783,6.50104 0.02674,7.3614c10.49839,2.3433 38.85799,-4.05979 53.46605,-3.86424c7.90715,0.10585 7.76283,6.70555 7.73665,7.28589c-0.05601,1.24175 -3.74311,-5.65204 -10.20655,-5.13782c-6.2665,0.49854 -15.16395,8.43075 -24.56224,8.00684c-19.09196,-0.86115 -34.47963,-3.54184 -34.36931,-5.98752c0.11032,-2.44567 -3.71394,-11.76169 15.37802,-10.90054z" fill="#5c2c2c" stroke="none" stroke-width="0" stroke-linecap="butt"/><path d="M214.77325,94.31009c6.25425,-1.59692 20.37974,0.40856 31.18247,0.89581c11.59262,0.52289 25.31316,-0.32974 31.28478,2.05824c3.61926,1.44729 2.01271,8.65156 1.93751,10.31875c-0.1197,2.6538 -2.60083,-5.29511 -11.01403,-5.04136c-5.59287,0.16869 -15.49515,8.99864 -22.92989,8.66329c-8.25653,-0.37241 -22.42344,-0.28578 -28.2319,-1.71938c-7.28973,-1.7992 -5.23016,-5.34185 -5.11924,-7.80066c0.08366,-1.85462 -1.63469,-6.21928 2.89032,-7.37468z" fill="none" stroke="#000000" stroke-width="3" stroke-linecap="butt"/><path d="M237.49102,85.42816c0.57139,0.02578 0.54562,0.59716 0.54562,0.59716c-0.04296,0.95232 -0.11168,2.47601 -0.15464,3.42833c0,0 -0.02578,0.57139 -0.59716,0.54562c-0.57139,-0.02578 -0.54562,-0.59716 -0.54562,-0.59716c0.04296,-0.95232 0.08591,-1.90463 0.12886,-2.85695l0.02578,-0.57139c0,0 0.02578,-0.57139 0.59716,-0.54562z" fill="#ffffff" stroke="none" stroke-width="0.5" stroke-linecap="butt"/><path d="M257.25551,85.17454c0.57139,0.02578 0.54562,0.59716 0.54562,0.59716l-0.01288,0.2857c-0.07325,1.62387 -0.4585,3.2868 -0.50476,4.84392c0,0 -0.02578,0.57139 -0.59716,0.54562c-0.57139,-0.02578 -0.54562,-0.59716 -0.54562,-0.59716c0.08952,-1.59123 0.43029,-3.19292 0.50476,-4.84392l0.01288,-0.2857c0,0 0.02578,-0.57139 0.59716,-0.54562z" fill="#ffffff" stroke="none" stroke-width="0.5" stroke-linecap="butt"/><path d="M303.87137,60.9675c-0.25436,-0.01147 -0.22858,-0.58287 -0.22858,-0.58287l0.02578,-0.57139c0.06362,-0.63463 -0.74505,-1.63588 -0.97236,-2.21549c-0.05613,-0.14314 -0.06887,-0.28433 -0.06161,-0.40763c0.00386,-0.12348 0.02927,-0.26293 0.09806,-0.40042c0.018,-0.03598 0.03571,-0.06528 0.05301,-0.08884c-0.08896,0.02021 -0.21018,-0.02239 -0.16551,-0.46193c0.07464,-0.73431 0.36161,-0.72699 0.5308,-1.1684c0.27485,-0.71711 -0.07277,-2.09071 0.50671,-3.24894c0,0 0.19808,-0.39591 0.35972,0.01623c0.16164,0.41214 -0.03644,0.80807 -0.03644,0.80807c-0.58103,1.16135 -0.6202,3.36717 -0.76374,4.44522c0.40932,0.84968 0.98794,1.39196 0.96009,2.7451l-0.02578,0.57139c0,0 -0.02578,0.57139 -0.28013,0.55992z" fill="#ffffff" stroke="none" stroke-width="0.5" stroke-linecap="butt"/><path d="M247.15721,93.98444c5.95638,0.26866 10.69843,2.4051 10.59168,4.77188c-0.10675,2.36677 -5.02189,4.06762 -10.97826,3.79896c-5.95638,-0.26866 -10.69843,-2.4051 -10.59168,-4.77188c0.10675,-2.36677 5.02189,-4.06762 10.97826,-3.79896z" fill="#000000" stroke="#000000" stroke-width="3" stroke-linecap="butt"/><path d="M255.84544,47.73256c0.91247,-1.65191 5.18436,-5.3272 7.25493,-10.95579c3.70816,-10.0802 6.01509,-23.80688 9.56019,-24.77772c3.36461,-0.92141 4.55022,5.33662 8.8702,8.7862c5.27858,4.21504 13.60487,5.99823 15.97412,7.30693c1.48678,0.82125 11.48404,-1.66468 11.6691,0.08576c0.36821,3.48278 -7.03251,9.18763 -11.83869,15.34953c-4.95058,6.34701 -7.35108,13.16516 -9.78832,17.57746c-5.99263,10.84885 -13.09696,6.4464 -20.58899,2.308c-7.49203,-4.13841 -17.10517,-4.83152 -11.11254,-15.68037z" fill="#410000" stroke="#000000" stroke-width="0" stroke-linecap="butt"/><path d="M262.84008,38.83595c1.85421,-3.35682 4.63207,-31.12609 12.3187,-26.88018c4.71273,2.6032 -8.43092,17.85476 -5.3359,29.09753c1.95307,7.09456 21.57032,11.85969 20.85294,13.15841c-1.85422,3.35682 -9.58861,2.63608 -17.27524,-1.60981c-7.68663,-4.2459 -12.41473,-10.40912 -10.56051,-13.76594z" fill="#170000" stroke="none" stroke-width="0" stroke-linecap="butt"/><path d="M255.81245,47.61809c0.91246,-1.65191 5.18435,-5.32719 7.25492,-10.9558c3.70816,-10.0802 6.01509,-23.80688 9.56019,-24.77772c3.31929,-0.90901 4.13077,5.53776 8.39702,8.92008c5.34231,4.23544 14.05195,5.84992 16.4473,7.17306c1.48678,0.82125 11.48403,-1.66468 11.66909,0.08576c0.36822,3.48278 -7.0325,9.18762 -11.83869,15.34953c-4.95058,6.34702 -7.35108,13.16516 -9.78832,17.57746c-5.99263,10.84885 -13.09696,6.4464 -20.58899,2.308c-7.49203,-4.13842 -17.10517,-4.83152 -11.11254,-15.68037z" fill="none" stroke="#000000" stroke-width="3" stroke-linecap="butt"/><path d="M291.32209,69.60268c-1.55869,2.82181 -1.05983,8.47185 -7.5682,6.78757c-3.87938,-1.00394 -13.87353,-7.98846 -18.27468,-10.41954c-5.02139,-2.77368 -14.76502,-7.60185 -17.79706,-10.72435c-4.08397,-4.2058 -0.46457,-6.63245 0.96318,-9.21721c1.29484,-2.34413 3.92653,-6.13164 8.89189,-5.33035c4.57461,0.73825 11.29989,5.84081 16.95097,8.96233c5.14094,2.83972 16.38301,7.11821 19.42762,10.31034c3.93472,4.12538 -1.19122,7.09214 -2.59374,9.63121z" data-paper-data="{&quot;index&quot;:null}" fill="#410000" stroke="#000000" stroke-width="0" stroke-linecap="butt"/><path d="M259.46248,42.02891c3.23017,0.45011 21.60902,9.9661 29.33677,15.16965c6.28073,4.2292 5.24983,5.0059 6.94598,5.94282c0.74935,0.41391 0.59755,6.45519 -2.30898,4.81283c-3.86284,-2.18272 -2.0143,-5.5316 -7.94938,-9.87095c-6.50382,-4.75518 -23.43387,-11.89631 -27.2109,-12.20339c-2.39946,-0.19507 -4.32447,0.67713 -5.69947,1.85737c-1.7819,1.52952 -2.64007,3.57636 -2.41004,4.48812c1.22033,4.8369 38.90275,21.54514 37.95549,23.26004c-1.82735,3.30817 -18.64013,-5.92765 -27.83488,-11.00661c-9.19476,-5.07896 -15.16723,-11.87806 -13.33988,-15.18623c1.07551,-1.94706 4.13905,-8.43084 12.5153,-7.26365z" fill="#170000" stroke="none" stroke-width="0" stroke-linecap="butt"/><path d="M291.39284,69.84801c-1.55869,2.82181 -1.05982,8.47185 -7.5682,6.78757c-3.87939,-1.00393 -13.87353,-7.98846 -18.27469,-10.41954c-5.02139,-2.77368 -14.765,-7.60185 -17.79706,-10.72435c-4.08397,-4.2058 -0.46457,-6.63245 0.96318,-9.21721c1.29483,-2.34412 3.92654,-6.13164 8.89189,-5.33035c4.57461,0.73824 11.29989,5.84081 16.95097,8.96233c5.14094,2.83972 16.38301,7.11821 19.42762,10.31035c3.93472,4.12538 -1.19122,7.09214 -2.59374,9.63121z" data-paper-data="{&quot;index&quot;:null}" fill="none" stroke="#000000" stroke-width="3" stroke-linecap="butt"/><path d="M228.37358,111.23293l-0.23564,5.22414" fill="none" stroke="#000000" stroke-width="2" stroke-linecap="round"/><path d="M244.87696,111.65017l-0.29454,6.53017" fill="none" stroke="#000000" stroke-width="2" stroke-linecap="round"/><path d="M261.67491,105.53722l-0.09932,13.08243" fill="none" stroke="#000000" stroke-width="2" stroke-linecap="round"/><path d="M228.20348,75.66908l3.40037,-5.57215l-10.04017,-5.89211l4.69998,-2.65076l-0.11818,-3.72691" fill="none" stroke="#000000" stroke-width="3" stroke-linecap="round"/><path d="M246.55764,104.70387l-0.04669,4.40186" fill="none" stroke="#000000" stroke-width="3" stroke-linecap="round"/></g><g stroke-linecap="butt"><path d="M154.02247,322.10148c0,-11.07416 16.63961,-20.05155 37.16561,-20.05155c20.526,0 37.1656,8.97737 37.1656,20.05155c0,5.5238 -0.30845,12.05852 -7.0057,15.68505c-6.72944,3.64397 -19.8723,4.3665 -30.15991,4.3665c-11.02302,0 -28.58824,-0.03474 -35.39441,-4.14721c-5.86761,-3.54537 -1.7712,-10.7773 -1.7712,-15.90434z" fill="#840000" stroke="#000000" stroke-width="0"/><path d="M153.27412,332.71996c0,-1.92539 7.37565,2.6143 21.70599,3.6569c15.36834,1.11811 38.04516,-1.28736 46.97351,-4.67121c4.00164,-1.51662 2.89534,-8.45008 -1.53588,-14.20528c-4.83274,-6.27671 -13.08795,-11.34552 -9.54331,-11.34552c20.80814,0 17.75264,20.64007 17.75264,26.5651c0,5.92503 -16.86833,10.72822 -37.67647,10.72822c-20.80814,0 -37.67648,-4.80319 -37.67648,-10.72822z" fill="#430000" stroke="none" stroke-width="0"/><path d="M133.97616,326.82314c0,-11.07417 7.47174,-20.05155 16.68857,-20.05155c9.21684,0 16.68857,8.97737 16.68857,20.05155c0,5.5238 -0.13851,12.05852 -3.14578,15.68505c-3.02174,3.64397 -8.92332,4.3665 -13.54279,4.3665c-4.94969,0 -12.83705,-0.03474 -15.89325,-4.14721c-2.63476,-3.54537 -0.79534,-10.77732 -0.79534,-15.90434z" fill="#840000" stroke="#000000" stroke-width="0"/><path d="M191.97234,302.57877c20.526,0 37.16561,8.97738 37.16561,20.05155c0,5.5238 -0.30846,12.05852 -7.0057,15.68505c-6.72944,3.64397 -19.8723,4.3665 -30.15991,4.3665c-11.02302,0 -28.58823,-0.03473 -35.39441,-4.1472c-5.86761,-3.54537 -1.7712,-10.77733 -1.7712,-15.90435c0,-11.07417 16.63961,-20.05155 37.16561,-20.05155z" fill="none" stroke="#000000" stroke-width="3.5"/><path d="M133.64014,337.44159c0,-1.92539 3.31191,2.61429 9.74671,3.65689c6.90089,1.11811 17.08352,-1.28734 21.09264,-4.67119c1.79687,-1.51662 1.3001,-8.45008 -0.68966,-14.20528c-2.17006,-6.27671 -5.87691,-11.34552 -4.28526,-11.34552c9.34354,0 7.97152,20.64009 7.97152,26.56511c0,5.92504 -7.57443,10.72822 -16.91797,10.72822c-9.34354,0 -16.91797,-4.80319 -16.91797,-10.72822z" fill="#430000" stroke="none" stroke-width="0"/><path d="M134.32831,327.35195c0,-11.07417 7.47173,-20.05155 16.68857,-20.05155c9.21684,0 16.68857,8.97739 16.68857,20.05155c0,5.5238 -0.13851,12.05852 -3.14578,15.68505c-3.02174,3.64398 -8.92331,4.36649 -13.54278,4.36649c-4.94969,0 -12.83705,-0.03473 -15.89325,-4.1472c-2.63476,-3.54537 -0.79532,-10.77732 -0.79532,-15.90434z" fill="none" stroke="#000000" stroke-width="3.5"/><path d="M181.08774,326.14689c0,-11.07417 7.47174,-20.05155 16.68857,-20.05155c9.21684,0 16.68857,8.97737 16.68857,20.05155c0,5.5238 -0.13851,12.05852 -3.14578,15.68505c-3.02174,3.64397 -8.92332,4.3665 -13.54279,4.3665c-4.94969,0 -12.83705,-0.03474 -15.89325,-4.14721c-2.63476,-3.54537 -0.79534,-10.77732 -0.79534,-15.90434z" fill="#840000" stroke="#000000" stroke-width="0"/><path d="M180.75172,336.76534c0,-1.92539 3.31191,2.61429 9.74671,3.65689c6.90089,1.11811 17.08352,-1.28734 21.09264,-4.67119c1.79687,-1.51662 1.3001,-8.45008 -0.68966,-14.20528c-2.17006,-6.27671 -5.87691,-11.34552 -4.28526,-11.34552c9.34354,0 7.97152,20.64009 7.97152,26.56511c0,5.92504 -7.57443,10.72822 -16.91797,10.72822c-9.34354,0 -16.91797,-4.80319 -16.91797,-10.72822z" fill="#430000" stroke="none" stroke-width="0"/><path d="M181.43989,326.6757c0,-11.07417 7.47173,-20.05155 16.68857,-20.05155c9.21684,0 16.68857,8.97739 16.68857,20.05155c0,5.5238 -0.13851,12.05852 -3.14578,15.68505c-3.02174,3.64398 -8.92331,4.36649 -13.54278,4.36649c-4.94969,0 -12.83705,-0.03473 -15.89325,-4.1472c-2.63476,-3.54537 -0.79532,-10.77732 -0.79532,-15.90434z" fill="none" stroke="#000000" stroke-width="3.5"/><path d="M154.93969,325.92147c0,-11.07417 7.47174,-20.05155 16.68857,-20.05155c9.21684,0 16.68857,8.97737 16.68857,20.05155c0,5.5238 -0.13851,12.05852 -3.14578,15.68505c-3.02174,3.64397 -8.92332,4.3665 -13.54279,4.3665c-4.94969,0 -12.83705,-0.03474 -15.89325,-4.14721c-2.63476,-3.54537 -0.79534,-10.77732 -0.79534,-15.90434z" fill="#840000" stroke="#000000" stroke-width="0"/><path d="M154.60366,336.53993c0,-1.92539 3.31191,2.61429 9.74671,3.65689c6.90089,1.11811 17.08352,-1.28734 21.09264,-4.67119c1.79687,-1.51662 1.3001,-8.45008 -0.68966,-14.20528c-2.17006,-6.27671 -5.87691,-11.34552 -4.28526,-11.34552c9.34354,0 7.97152,20.64009 7.97152,26.56511c0,5.92504 -7.57443,10.72822 -16.91797,10.72822c-9.34354,0 -16.91797,-4.80319 -16.91797,-10.72822z" fill="#430000" stroke="none" stroke-width="0"/><path d="M155.29184,326.4503c0,-11.07417 7.47173,-20.05155 16.68857,-20.05155c9.21684,0 16.68857,8.97739 16.68857,20.05155c0,5.5238 -0.13851,12.05852 -3.14578,15.68505c-3.02174,3.64398 -8.92331,4.36649 -13.54278,4.36649c-4.94969,0 -12.83705,-0.03473 -15.89325,-4.1472c-2.63476,-3.54537 -0.79532,-10.77732 -0.79532,-15.90434z" fill="none" stroke="#000000" stroke-width="3.5"/></g><g data-paper-data="{&quot;index&quot;:null}" stroke-linecap="butt"><path d="M324.09223,324.43671c0,5.12704 4.09642,12.35897 -1.7712,15.90434c-6.80617,4.11247 -24.37139,4.14721 -35.39441,4.14721c-10.28762,0 -23.43048,-0.72254 -30.15991,-4.3665c-6.69725,-3.62653 -7.0057,-10.16125 -7.0057,-15.68505c0,-11.07418 16.6396,-20.05155 37.1656,-20.05155c20.526,0 37.16561,8.97739 37.16561,20.05155z" fill="#840000" stroke="#000000" stroke-width="0"/><path d="M324.84058,335.05517c0,5.92503 -16.86834,10.72822 -37.67648,10.72822c-20.80814,0 -37.67647,-4.80319 -37.67647,-10.72822c0,-5.92503 -3.0555,-26.5651 17.75264,-26.5651c3.54464,0 -4.71058,5.06881 -9.54331,11.34552c-4.43121,5.7552 -5.53752,12.68866 -1.53588,14.20528c8.92834,3.38386 31.60517,5.78932 46.97351,4.67121c14.33034,-1.0426 21.70599,-5.58229 21.70599,-3.6569z" fill="#430000" stroke="none" stroke-width="0"/><path d="M344.13854,329.15837c0,5.12703 1.83942,12.35897 -0.79534,15.90434c-3.0562,4.11247 -10.94355,4.14721 -15.89325,4.14721c-4.61947,0 -10.52105,-0.72254 -13.54279,-4.3665c-3.00727,-3.62653 -3.14578,-10.16125 -3.14578,-15.68505c0,-11.07418 7.47173,-20.05155 16.68857,-20.05155c9.21683,0 16.68857,8.97738 16.68857,20.05155z" fill="#840000" stroke="#000000" stroke-width="0"/><path d="M323.30797,324.96555c0,5.12703 4.09642,12.35899 -1.7712,15.90435c-6.80618,4.11247 -24.37139,4.1472 -35.39441,4.1472c-10.28762,0 -23.43048,-0.72254 -30.15991,-4.3665c-6.69723,-3.62653 -7.0057,-10.16125 -7.0057,-15.68505c0,-11.07417 16.63961,-20.05155 37.16561,-20.05155c20.526,0 37.16561,8.97738 37.16561,20.05155z" fill="none" stroke="#000000" stroke-width="3.5"/><path d="M344.47454,339.77682c0,5.92503 -7.57443,10.72822 -16.91797,10.72822c-9.34354,0 -16.91797,-4.80318 -16.91797,-10.72822c0,-5.92503 -1.37202,-26.56511 7.97152,-26.56511c1.59166,0 -2.1152,5.06881 -4.28526,11.34552c-1.98976,5.7552 -2.48653,12.68866 -0.68966,14.20528c4.00912,3.38384 14.19175,5.7893 21.09264,4.67119c6.43479,-1.0426 9.74671,-5.58228 9.74671,-3.65689z" fill="#430000" stroke="none" stroke-width="0"/><path d="M343.78637,329.68718c0,5.12703 1.83943,12.35897 -0.79532,15.90434c-3.0562,4.11247 -10.94355,4.1472 -15.89325,4.1472c-4.61947,0 -10.52104,-0.72251 -13.54278,-4.36649c-3.00727,-3.62653 -3.14578,-10.16125 -3.14578,-15.68505c0,-11.07416 7.47173,-20.05155 16.68857,-20.05155c9.21684,0 16.68857,8.97738 16.68857,20.05155z" fill="none" stroke="#000000" stroke-width="3.5"/><path d="M297.02696,328.48211c0,5.12703 1.83942,12.35897 -0.79534,15.90434c-3.0562,4.11247 -10.94355,4.14721 -15.89325,4.14721c-4.61947,0 -10.52105,-0.72254 -13.54279,-4.3665c-3.00727,-3.62653 -3.14578,-10.16125 -3.14578,-15.68505c0,-11.07418 7.47173,-20.05155 16.68857,-20.05155c9.21683,0 16.68857,8.97738 16.68857,20.05155z" fill="#840000" stroke="#000000" stroke-width="0"/><path d="M297.36296,339.10058c0,5.92503 -7.57443,10.72822 -16.91797,10.72822c-9.34354,0 -16.91797,-4.80318 -16.91797,-10.72822c0,-5.92503 -1.37202,-26.56511 7.97152,-26.56511c1.59166,0 -2.1152,5.06881 -4.28526,11.34552c-1.98976,5.7552 -2.48653,12.68866 -0.68966,14.20528c4.00912,3.38384 14.19175,5.7893 21.09264,4.67119c6.43479,-1.0426 9.74671,-5.58228 9.74671,-3.65689z" fill="#430000" stroke="none" stroke-width="0"/><path d="M296.67479,329.01092c0,5.12703 1.83943,12.35897 -0.79532,15.90434c-3.0562,4.11247 -10.94355,4.1472 -15.89325,4.1472c-4.61947,0 -10.52104,-0.72251 -13.54278,-4.36649c-3.00727,-3.62653 -3.14578,-10.16125 -3.14578,-15.68505c0,-11.07416 7.47173,-20.05155 16.68857,-20.05155c9.21684,0 16.68857,8.97738 16.68857,20.05155z" fill="none" stroke="#000000" stroke-width="3.5"/><path d="M323.17502,328.2567c0,5.12703 1.83942,12.35897 -0.79534,15.90434c-3.0562,4.11247 -10.94355,4.14721 -15.89325,4.14721c-4.61947,0 -10.52105,-0.72254 -13.54279,-4.3665c-3.00727,-3.62653 -3.14578,-10.16125 -3.14578,-15.68505c0,-11.07418 7.47173,-20.05155 16.68857,-20.05155c9.21683,0 16.68857,8.97738 16.68857,20.05155z" fill="#840000" stroke="#000000" stroke-width="0"/><path d="M323.51101,338.87517c0,5.92503 -7.57443,10.72822 -16.91797,10.72822c-9.34354,0 -16.91797,-4.80318 -16.91797,-10.72822c0,-5.92503 -1.37202,-26.56511 7.97152,-26.56511c1.59166,0 -2.1152,5.06881 -4.28526,11.34552c-1.98976,5.7552 -2.48653,12.68866 -0.68966,14.20528c4.00912,3.38384 14.19175,5.7893 21.09264,4.67119c6.43479,-1.0426 9.74671,-5.58228 9.74671,-3.65689z" fill="#430000" stroke="none" stroke-width="0"/><path d="M322.82284,328.78552c0,5.12703 1.83943,12.35897 -0.79532,15.90434c-3.0562,4.11247 -10.94355,4.1472 -15.89325,4.1472c-4.61947,0 -10.52104,-0.72251 -13.54278,-4.36649c-3.00727,-3.62653 -3.14578,-10.16125 -3.14578,-15.68505c0,-11.07416 7.47173,-20.05155 16.68857,-20.05155c9.21684,0 16.68857,8.97738 16.68857,20.05155z" fill="none" stroke="#000000" stroke-width="3.5"/></g></g></g></svg>