<svg version="1.1" xmlns="http://www.w3.org/2000/svg" xmlns:xlink="http://www.w3.org/1999/xlink" width="580.34311" height="625.16233" viewBox="0,0,580.34311,625.16233"><g transform="translate(224.49704,60.27503)"><g data-paper-data="{&quot;isPaintingLayer&quot;:true}" fill-rule="nonzero" stroke-width="8" stroke-linejoin="miter" stroke-miterlimit="10" stroke-dasharray="" stroke-dashoffset="0" style="mix-blend-mode: normal"><g data-paper-data="{&quot;index&quot;:null}"><g stroke-linecap="butt"><path d="M295.52801,417.79492c2.33037,19.01818 -11.80931,57.32109 -30.25399,59.58118c-18.44468,2.2601 -87.06842,-160.39723 -89.39881,-179.41542c-1.49666,-12.21421 -5.70566,-24.81344 2.84422,-32.06633c4.76273,-4.04024 19.73447,-5.65282 26.33328,-6.46139c18.44465,-2.2601 88.14494,139.34377 90.47532,158.36196z" fill="#840000" stroke="#000000"/><path d="M295.7657,410.31534c3.68651,30.08558 -11.91677,56.75295 -31.14792,59.10942c-19.23118,2.35648 -84.18275,-139.96957 -87.86926,-170.05514c-2.43229,-19.84986 30.7373,63.62818 60.04996,112.78443c15.11537,25.34785 30.21681,31.57217 36.75968,30.77044c19.23118,-2.35648 18.52105,-62.6947 22.20756,-32.60912z" fill="#430000" stroke="none"/><path d="M295.34764,416.32265c2.33037,19.01818 -11.80931,57.32109 -30.25399,59.58118c-18.44465,2.2601 -87.06842,-160.39723 -89.39881,-179.41542c-1.26214,-10.30035 -19.14875,-24.1662 -12.97054,-31.32848c5.229,-6.06189 33.6931,-6.16321 42.14803,-7.19922c18.44465,-2.2601 88.14494,139.34377 90.47532,158.36196z" fill="none" stroke="#000000"/></g><path d="M258.70748,331.8477l-46.00695,47.91061" fill="none" stroke="#000000" stroke-linecap="round"/></g><g><g stroke-linecap="butt"><path d="M32.20913,204.9259c10.14576,2.66129 29.68739,9.57812 34.68489,17.4643c4.92422,7.77049 -4.60299,16.46186 -7.01573,25.6601c-4.86142,18.53344 -100.33113,169.03154 -120.47381,163.74801c-20.14268,-5.28353 -31.19552,-45.70954 -26.3341,-64.24299c4.86142,-18.53344 98.99608,-147.91298 119.13873,-142.62945z" fill="#840000" stroke="#000000"/><path d="M-65.62979,376.1667c7.14521,1.87422 24.60588,-1.83171 44.37685,-24.55712c38.34106,-44.07061 85.0696,-121.64554 79.99559,-102.30162c-7.69046,29.31875 -97.40313,163.04628 -118.40474,157.53744c-21.00159,-5.50883 -34.3235,-37.45024 -26.63304,-66.76899c7.69046,-29.31875 -0.33627,30.58145 20.66532,36.09028z" fill="#430000" stroke="none"/><path d="M32.58545,203.49111c9.45517,2.48014 31.33913,7.95356 36.39477,15.08333c5.71458,8.05901 -6.14623,18.20739 -8.72565,28.04106c-4.86142,18.53344 -100.33113,169.03154 -120.47381,163.74801c-20.14268,-5.28353 -31.19552,-45.70954 -26.3341,-64.24299c4.86142,-18.53344 98.99608,-147.91298 119.13873,-142.62945z" fill="none" stroke="#000000"/></g><path d="M-35.86398,268.12517l45.1694,55.22701" fill="none" stroke="#000000" stroke-linecap="round"/></g><g stroke-linecap="butt"><path d="M-15.13916,377.27056c10.65671,-40.62714 41.93698,-135.62777 79.04601,-170.37007c26.36086,-24.6796 57.53554,1.67414 77.95094,7.02921c26.2049,6.87368 56.91652,-6.61141 59.11102,40.01371c1.92192,40.83384 -9.07269,135.17533 -17.58265,167.61827c-18.22682,69.48709 -58.37865,56.89663 -107.53352,44.00305c-49.15484,-12.89357 -109.2186,-18.80707 -90.99177,-88.29419z" fill="#840000" stroke="#000000"/><path d="M3.24907,382.89947c10.4701,-39.91571 38.95805,-113.59094 70.20747,-146.61539c19.30278,-20.3992 41.2751,-13.09798 55.86389,-9.27126c17.29681,4.53704 38.39778,5.8534 45.34818,36.91296c8.40226,37.54751 0.08462,108.02916 -9.18497,143.36813c-16.93748,64.57164 -59.29247,63.57523 -97.49921,53.5534c-38.20674,-10.02183 -81.67283,-13.37623 -64.73535,-77.94787z" fill="#7d3c3c" stroke="#000000"/><path d="M40.77694,289.6954c5.06614,-19.3139 42.22569,-73.09721 76.84086,-65.09422c1.16569,0.26948 31.85948,-6.99899 33.0315,-6.69157c35.97526,9.4365 33.15279,57.36154 27.91605,77.32584c-5.23674,19.96429 -41.74304,-29.69346 -77.7183,-39.12996c-35.97526,-9.4365 -65.30681,53.55421 -60.07008,33.58992z" fill="#5c2c2c" stroke="none"/><path d="M-19.16297,409.01065c4.57136,-17.42763 49.16792,-211.08267 101.89767,-197.25138c9.74503,2.55617 -18.93344,30.50805 -40.00873,69.71045c-25.70466,47.81358 -45.4151,110.12544 -36.99373,135.43866c22.0347,66.23269 168.75223,31.91128 166.05612,42.18979c-4.57136,17.42763 -51.0231,20.34303 -103.75286,6.51174c-52.72976,-13.83129 -91.76987,-39.17165 -87.19851,-56.59928z" fill="#430000" stroke="none"/><path d="M3.41523,404.71753c3.00724,-11.46466 32.46651,1.63055 72.19743,12.05217c39.73091,10.42163 84.76843,-3.78939 81.7612,7.67524c-1.45306,5.53958 -10.19615,25.43607 -27.1114,33.65506c-18.09235,8.79093 -45.00653,5.57285 -65.53996,0.18683c-22.11784,-5.80162 -44.81036,-12.68875 -55.39297,-24.51227c-8.42726,-9.4154 -7.24743,-23.97467 -5.91429,-29.05706z" fill="#5c2c2c" stroke="none"/><path d="M73.99597,235.76437c19.30275,-20.39921 41.27507,-13.09798 55.86387,-9.27127c17.29684,4.53705 38.39781,5.8534 45.34821,36.91297c8.40223,37.5475 0.08459,108.02918 -9.18501,143.36815c-16.93747,64.57161 -59.29247,63.57523 -97.49921,53.5534c-38.20674,-10.02183 -81.67279,-13.37626 -64.73532,-77.94786c10.47009,-39.91568 38.95805,-113.59094 70.20747,-146.61539z" fill="none" stroke="#000000"/><path d="M66.08437,207.10962c26.36087,-24.67963 57.53552,1.6741 77.95095,7.02918c26.2049,6.87368 56.91652,-6.61144 59.11102,40.01371c1.92192,40.83384 -9.07273,135.17536 -17.58268,167.6183c-18.22682,69.48709 -58.37865,56.89663 -107.53352,44.00305c-49.15484,-12.89357 -109.2186,-18.80707 -90.99177,-88.29419c10.6567,-40.62711 41.93697,-135.62774 79.04601,-170.37004z" fill="none" stroke="#000000"/></g><g><path d="M103.15417,-3.71598c27.2462,4.30542 46.16432,27.85202 42.25479,52.59283c-3.90951,24.74078 -29.16622,41.30694 -56.41242,37.00152c-27.24617,-4.30541 -46.16429,-27.85201 -42.25476,-52.59282c3.90952,-24.74081 29.16618,-41.30695 56.41239,-37.00152z" fill="#840000" stroke="#000000" stroke-linecap="butt"/><path d="M64.38683,25.07457c-8.47109,19.54998 -0.21263,43.747 11.71379,45.6316c24.25131,3.83217 68.69943,-28.36138 65.61501,-8.84204c-3.08443,19.51935 -25.24442,32.23633 -49.49573,28.40415c-16.41752,-2.59428 -41.92503,-21.28323 -47.48496,-44.22173c-1.48925,-6.14409 9.09431,-33.2939 23.959,-43.71745c11.61583,-8.14537 28.11679,-0.16176 28.55384,-2.92759c1.56756,-9.92003 -24.10684,5.46989 -32.86096,25.67307z" fill="#430000" stroke="none" stroke-linecap="butt"/><path d="M103.33172,-2.81995c27.2462,4.30542 46.16431,27.85205 42.25479,52.59283c-3.90952,24.74081 -29.16622,41.30694 -56.41242,37.00152c-27.2462,-4.30542 -46.16431,-27.85205 -42.25479,-52.59283c3.90952,-24.74081 29.16622,-41.30694 56.41242,-37.00152z" fill="none" stroke="#000000" stroke-linecap="butt"/><path d="M67.41005,186.21063c13.40973,-9.31561 59.49575,0.50707 92.45405,5.71511c29.04565,4.58977 56.87202,0.90157 69.02036,12.13526c5.99051,5.53949 5.57291,25.15804 4.69567,30.70952c-2.65622,16.80949 -39.96658,24.88076 -83.33505,18.02771c-43.36847,-6.85305 -76.37225,-26.0353 -73.71602,-42.84479c0.63759,-4.03494 -13.35459,-20.80042 -9.119,-23.74284z" fill="#000000" stroke="none" stroke-linecap="butt"/><g stroke-linecap="butt"><path d="M49.35086,191.6872c1.62836,-10.30483 10.48762,-17.46721 19.78772,-15.99762c2.33062,0.36829 -6.92175,6.43545 -4.5981,12.0309c3.9423,9.49318 19.98138,21.93069 28.26147,34.12824c6.31412,9.30147 28.44416,16.65072 27.91621,19.9918c-0.33841,2.14159 83.4242,6.64916 80.49951,10.96439c-0.25638,0.37827 19.02839,-6.25878 28.56578,-17.6504c5.93892,-7.09354 2.85839,-21.27348 4.93636,-20.73227c6.12759,1.59598 18.69597,-2.62781 17.0105,9.59998c-0.67296,4.88219 -14.01717,14.52255 -17.84295,21.96052c-5.26868,10.24324 -1.63157,17.95608 -4.82714,18.2256c-28.19419,2.37785 -124.80278,-2.86293 -128.96296,-5.47701c-13.71824,-8.62 -31.87876,-44.93827 -36.85554,-45.7247c-9.30011,-1.4696 -15.51927,-11.01465 -13.89091,-21.31949z" fill="#840000" stroke="#000000"/><path d="M54.5845,180.9057c0.32839,-2.07816 7.97853,21.51885 26.25995,40.09396c14.98969,15.2305 35.37902,31.25877 43.94621,32.61256c19.01572,3.00485 105.53364,4.61074 104.93598,8.39288c-0.59765,3.78213 -83.31812,2.82222 -102.33383,-0.18263c-5.09859,-0.80568 -14.64285,0.54142 -27.23589,-8.67719c-10.21552,-7.47815 -18.40491,-20.62908 -28.04298,-31.91138c-5.13513,-6.01118 -13.26273,-11.062 -16.6092,-15.3941c-11.50725,-14.89649 -1.15842,-23.4269 -0.92026,-24.93405z" fill="#430000" stroke="none"/><path d="M49.85149,190.98641c1.62836,-10.30483 10.48762,-17.46721 19.78772,-15.99762c2.33062,0.36829 -6.92175,6.43545 -4.5981,12.0309c3.9423,9.49318 19.98138,21.93069 28.26147,34.12824c6.31415,9.30151 28.4442,16.65075 27.91624,19.99179c-0.33841,2.14155 83.42419,6.64913 80.49952,10.96436c-0.25637,0.3783 19.02839,-6.25878 28.56577,-17.65037c5.93893,-7.09351 2.85839,-21.27345 4.93635,-20.73224c6.12759,1.59598 18.696,-2.6278 17.0105,9.59998c-0.67296,4.88219 -14.01717,14.52255 -17.84295,21.96052c-5.26868,10.24324 -1.63157,17.95608 -4.82714,18.2256c-28.19418,2.37782 -124.80278,-2.86293 -128.96295,-5.47704c-13.7182,-8.62003 -31.87873,-44.93826 -36.85551,-45.72469c-9.30011,-1.4696 -15.51927,-11.01465 -13.89091,-21.31949z" fill="none" stroke="#000000"/></g><path d="M69.375,200.86439l2.70535,-17.1204l163.59486,25.85112l-2.70535,17.1204z" fill="#ffffff" stroke="#000000" stroke-linecap="butt"/><path d="M69.37497,200.86435l2.70535,-17.1204l163.59486,25.85112l-2.70535,17.1204z" fill="none" stroke="#000000" stroke-linecap="butt"/><path d="M182.07126,40.22848c54.63082,8.63271 92.35028,57.19258 84.24882,108.46148c-4.11714,26.05471 -3.09244,52.68718 -23.42352,60.61354c-19.6752,7.67065 -60.32927,-2.87661 -87.19684,-7.12221c-25.27091,-3.99329 -74.35118,-4.77218 -90.20561,-16.71581c-18.41978,-13.87622 -1.3636,-40.48418 2.99032,-68.03733c8.10146,-51.26889 58.95603,-85.83237 113.58683,-77.19967z" fill="#840000" stroke="#000000" stroke-linecap="butt"/><path d="M168.54112,118.91536c28.15588,4.44917 49.36576,18.27603 47.37359,30.88312c-1.99216,12.60709 -26.43198,19.22042 -54.58786,14.77126c-28.15588,-4.44917 -99.76863,-2.84346 -97.77646,-15.45056c0.62774,-3.97254 2.03308,-50.62785 24.40971,-80.59061c10.34394,-13.85075 43.95317,-22.69936 50.32555,-24.69148c9.62473,-3.00886 -46.13831,30.58085 -59.38977,63.54403c-7.37734,18.35118 24.44022,38.736 25.64804,47.16039c1.48244,10.34013 22.99525,-22.98133 41.11758,-35.79804c5.59527,-3.95716 21.57281,-0.03462 22.87968,0.17189z" fill="#430000" stroke="none" stroke-linecap="butt"/><path d="M182.1915,39.46757c54.63082,8.63271 92.35028,57.19258 84.24882,108.46148c-4.11714,26.05471 -3.09244,52.68718 -23.42352,60.61354c-19.6752,7.67065 -60.32927,-2.87661 -87.19684,-7.12221c-25.27091,-3.99329 -74.35118,-4.77218 -90.20561,-16.71581c-18.41978,-13.87622 -1.3636,-40.48418 2.99032,-68.03733c8.10146,-51.26889 58.95603,-85.83237 113.58683,-77.19967z" fill="none" stroke="#000000" stroke-linecap="butt"/><path d="M98.42803,101.14446c21.22199,3.35348 63.00108,13.42296 60.71009,27.92115c-2.29099,14.49818 6.20035,31.78607 -15.02162,28.43259c-21.22199,-3.35348 -69.89052,-4.37284 -67.59953,-18.87103c2.29099,-14.49818 0.68908,-40.83619 21.91106,-37.48271z" fill="#000000" stroke="#000000" stroke-linecap="butt"/><path d="M249.50959,168.30303c-2.29099,14.49818 -48.90254,0.46148 -70.12452,-2.892c-21.22199,-3.35348 -7.81383,-17.18083 -5.52284,-31.67901c2.29099,-14.49818 45.13929,-11.19492 66.36127,-7.84144c21.22199,3.35348 11.57709,27.91427 9.2861,42.41246z" data-paper-data="{&quot;index&quot;:null}" fill="#000000" stroke="#000000" stroke-linecap="butt"/><path d="M74.15935,148.28733c17.22122,-2.39778 54.43175,7.21 83.20325,11.75645c30.87527,4.87888 67.85954,6.71429 83.12825,14.89885c9.25398,4.96043 2.79131,23.76336 2.08966,28.20365c-1.85936,11.76665 -42.36327,7.34411 -91.95123,-0.49174c-21.99007,-3.47485 -59.93935,-7.49469 -75.05774,-13.07553c-18.97385,-7.00405 -12.39736,-15.86924 -11.36255,-22.4179c0.78054,-4.9395 -2.50936,-17.13896 9.95034,-18.87377z" fill="#7d3c3c" stroke="#000000" stroke-linecap="butt"/><path d="M103.39769,149.59656c8.30572,1.31246 -10.5269,1.03711 -20.9658,6.42067c-10.28675,5.30512 -12.19779,16.25379 -2.13774,19.71371c42.23091,14.52435 163.5016,23.12624 162.80612,27.5275c-1.02929,6.51369 -43.08466,5.28034 -93.93335,-2.75472c-50.84866,-8.03506 -91.23527,-19.82912 -90.20599,-26.34282c1.02929,-6.51369 -6.4119,-32.59941 44.43676,-24.56434z" fill="#5c2c2c" stroke="none" stroke-linecap="butt"/><path d="M75.92163,147.00599c17.22122,-2.39778 54.43175,7.21 83.20325,11.75645c30.87527,4.87888 67.85954,6.71429 83.12825,14.89885c9.25398,4.96043 2.79131,23.76336 2.08966,28.20365c-1.85935,11.76662 -42.36327,7.34411 -91.95123,-0.49174c-21.99007,-3.47485 -59.93935,-7.49469 -75.05774,-13.07553c-18.97385,-7.00405 -12.39736,-15.86924 -11.36255,-22.4179c0.78054,-4.9395 -2.50936,-17.13896 9.95034,-18.87377z" fill="none" stroke="#000000" stroke-linecap="butt"/><path d="M139.40034,130.04806c1.52181,0.24048 1.28134,1.76229 1.28134,1.76229c-0.4008,2.53638 -1.04206,6.5945 -1.44285,9.13088c0,0 -0.24048,1.52181 -1.76229,1.28134c-1.52181,-0.24048 -1.28134,-1.76229 -1.28134,-1.76229c0.4008,-2.53638 0.80158,-5.07269 1.20238,-7.60907l0.24048,-1.52181c0,0 0.24048,-1.52181 1.76229,-1.28134z" fill="#ffffff" stroke="none" stroke-linecap="butt"/><path d="M192.38383,135.30084c1.52181,0.24048 1.28134,1.76229 1.28134,1.76229l-0.12023,0.76091c-0.68342,4.32496 -2.21381,8.66081 -2.80495,12.81517c0,0 -0.24048,1.52181 -1.76229,1.28134c-1.52181,-0.24048 -1.28134,-1.76229 -1.28134,-1.76229c0.7172,-4.23268 2.11011,-8.41795 2.80495,-12.81517l0.12023,-0.76091c0,0 0.24048,-1.52181 1.76229,-1.28134z" fill="#ffffff" stroke="none" stroke-linecap="butt"/><path d="M138.71412,147.87747l0.24048,-1.52181c0.65709,-3.58597 2.47684,-4.70462 4.01575,-6.72597c0.20325,-2.92247 1.29082,-8.76479 0.38448,-12.14328c0,0 -0.30899,-1.1518 0.34009,-2.15217c0.64908,-1.00041 0.95804,0.15139 0.95804,0.15139c0.9039,3.36946 -0.75501,6.80667 -0.41686,8.84752c0.20813,1.25622 0.96945,1.39187 0.76995,3.37c-0.1194,1.18403 -0.46231,1.23098 -0.68617,1.12966c0.03294,0.07146 0.06382,0.15839 0.09192,0.26307c0.10731,0.40002 0.09908,0.78178 0.04258,1.1097c-0.04737,0.32937 -0.15725,0.69507 -0.38267,1.04251c-0.91281,1.40687 -3.58744,3.61257 -3.76218,5.32172l-0.24048,1.52181c0,0 -0.24048,1.52181 -0.91792,1.41476c-0.67745,-0.10705 -0.43697,-1.62887 -0.43697,-1.62887z" data-paper-data="{&quot;index&quot;:null}" fill="#ffffff" stroke="none" stroke-linecap="butt"/><path d="M183.66391,157.71007c-0.67745,-0.10705 -0.43697,-1.62887 -0.43697,-1.62887l0.24048,-1.52181c0.36077,-1.67974 -1.50344,-4.60268 -1.93799,-6.22242c-0.10731,-0.40002 -0.09908,-0.78178 -0.04258,-1.1097c0.04737,-0.32937 0.15725,-0.69507 0.38267,-1.04251c0.05901,-0.09091 0.11515,-0.16408 0.16856,-0.22191c-0.24423,0.02739 -0.55591,-0.123 -0.30442,-1.28619c0.42016,-1.94327 1.1862,-1.83756 1.77154,-2.9684c0.95094,-1.83715 0.43267,-5.61843 2.33148,-8.54497c0,0 0.64908,-1.00041 0.95804,0.15139c0.30899,1.1518 -0.34009,2.15217 -0.34009,2.15217c-1.9039,2.93442 -2.67076,8.8274 -3.37853,11.67016c0.8407,2.39735 2.22686,4.02259 1.74624,7.63647l-0.24048,1.52181c0,0 -0.24048,1.52181 -0.91792,1.41476z" data-paper-data="{&quot;index&quot;:null}" fill="#ffffff" stroke="none" stroke-linecap="butt"/><path d="M192.11754,157.87604l0.24048,-1.52181c0.65709,-3.58597 2.47684,-4.70462 4.01575,-6.72597c0.20325,-2.92247 1.29082,-8.76479 0.38448,-12.14328c0,0 -0.30899,-1.1518 0.34009,-2.15217c0.64908,-1.00041 0.95804,0.15139 0.95804,0.15139c0.9039,3.36946 -0.75501,6.80667 -0.41686,8.84752c0.20813,1.25622 0.96945,1.39187 0.76995,3.37c-0.1194,1.18403 -0.46231,1.23098 -0.68617,1.12966c0.03294,0.07146 0.06382,0.15839 0.09192,0.26307c0.10731,0.40002 0.09908,0.78178 0.04258,1.1097c-0.04737,0.32937 -0.15725,0.69507 -0.38267,1.04251c-0.91281,1.40687 -3.58744,3.61257 -3.76218,5.32172l-0.24048,1.52181c0,0 -0.24048,1.52181 -0.91792,1.41476c-0.67745,-0.10705 -0.43697,-1.62887 -0.43697,-1.62887z" data-paper-data="{&quot;index&quot;:null}" fill="#ffffff" stroke="none" stroke-linecap="butt"/><path d="M162.70772,155.8533c15.86395,2.5068 27.91673,9.64901 26.92065,15.95257c-0.99609,6.30356 -14.66383,9.38143 -30.52778,6.87462c-15.86395,-2.5068 -27.91673,-9.64901 -26.92065,-15.95257c0.99609,-6.30356 14.66383,-9.38143 30.52778,-6.87462z" fill="#000000" stroke="#000000" stroke-linecap="butt"/><path d="M99.97185,202.18967l1.20238,-7.60907" fill="none" stroke="#000000" stroke-linecap="round"/><path d="M146.8286,201.79486l-1.56309,9.89179" fill="none" stroke="#000000" stroke-linecap="round"/><path d="M178.50492,218.49893l3.12528,-12.3746" fill="none" stroke="#000000" stroke-linecap="round"/><path d="M215.08854,223.88988l3.92657,-14.97765" fill="none" stroke="#000000" stroke-linecap="round"/><g stroke-linecap="butt"><path d="M199.84629,34.64954c2.93836,-4.14814 15.47677,-12.70442 22.70869,-27.15013c12.95161,-25.87073 23.24664,-61.92322 33.02787,-63.4581c20.62634,-3.23673 50.85724,42.87251 61.67571,50.53585c3.73348,2.64461 31.24114,-1.00959 31.21119,3.73169c-0.05959,9.43353 -21.58267,22.48369 -36.29759,37.53601c-15.15702,15.5045 -23.62918,33.03551 -31.47761,44.11529c-19.29757,27.2427 -36.99381,13.32567 -55.80717,-0.00089c-18.81335,-13.32656 -44.33865,-18.06704 -25.04109,-45.30975z" fill="#410000" stroke="#000000"/><path d="M221.24018,12.93349c5.97097,-8.42936 21.74108,-81.931 41.04307,-68.25828c11.8342,8.38287 -27.92722,45.265 -23.01635,76.28955c3.09893,19.57752 54.18209,38.22077 51.87198,41.48201c-5.97101,8.42935 -26.45881,4.17879 -45.76081,-9.49393c-19.302,-13.67272 -30.10892,-31.58999 -24.13791,-40.01934z" fill="#170000" stroke="none"/><path d="M199.79234,34.33321c2.93833,-4.14815 15.47673,-12.7044 22.70866,-27.15013c12.95161,-25.87073 23.24664,-61.92322 33.02787,-63.4581c20.62631,-3.23674 50.85724,42.87251 61.67571,50.53585c3.73348,2.64461 31.24111,-1.00959 31.21116,3.73169c-0.05955,9.43354 -21.58263,22.4837 -36.29759,37.53601c-15.15703,15.50453 -23.62918,33.03551 -31.47761,44.11529c-19.29757,27.2427 -36.99381,13.32567 -55.80717,-0.00089c-18.81335,-13.32659 -44.33865,-18.06704 -25.04109,-45.30975z" fill="none" stroke="#000000"/><path d="M288.2498,103.84068c-5.01933,7.08587 -5.37962,22.36015 -22.29632,15.89823c-10.0834,-3.85172 -34.74046,-25.54797 -45.79222,-33.37657c-12.60928,-8.93186 -37.2429,-24.78059 -44.42224,-34.04917c-9.67011,-12.48415 0.74693,-17.89378 5.3446,-24.38442c4.16964,-5.88637 12.35113,-15.23533 25.40237,-11.60013c12.02417,3.34915 28.49566,19.02655 42.68617,29.0785c12.90947,9.14452 41.71926,23.97152 48.91131,33.43027c9.29471,12.22408 -5.31727,18.62738 -9.83367,25.0033z" data-paper-data="{&quot;index&quot;:null}" fill="#410000" stroke="#000000"/><path d="M211.24044,20.46702c8.51172,2.17434 54.854,33.16344 73.97866,49.41201c15.54359,13.20606 12.55087,14.97583 16.8101,17.99289c1.88171,1.3329 -0.33774,17.4592 -7.62532,12.19048c-9.68533,-7.00222 -3.73192,-15.41201 -18.31716,-28.80922c-15.98289,-14.68103 -59.15962,-38.87809 -69.17819,-40.83364c-6.36454,-1.24232 -11.77937,0.51473 -15.81429,3.26146c-5.22897,3.55957 -8.14052,8.7812 -7.79838,11.29091c1.81505,13.31412 97.67235,69.34945 94.62195,73.65577c-5.88448,8.30719 -48.1186,-21.46193 -71.20769,-37.81728c-23.08909,-16.35534 -37.0362,-36.34826 -31.15175,-44.65546c3.46337,-4.88929 13.61006,-21.32624 35.68207,-15.68793z" fill="#170000" stroke="none"/><path d="M288.36554,104.51865c-5.01933,7.08587 -5.37959,22.36015 -22.29632,15.89823c-10.0834,-3.85169 -34.74046,-25.54797 -45.79225,-33.37657c-12.60928,-8.93186 -37.24287,-24.7806 -44.42224,-34.04917c-9.67011,-12.48415 0.74693,-17.89378 5.3446,-24.38442c4.16964,-5.88634 12.35116,-15.23533 25.40237,-11.60013c12.02418,3.34912 28.49566,19.02655 42.68617,29.0785c12.90947,9.14452 41.71926,23.97152 48.91131,33.4303c9.29471,12.22408 -5.31727,18.62738 -9.83367,25.0033z" data-paper-data="{&quot;index&quot;:null}" fill="none" stroke="#000000"/></g></g><g><path d="M-151.99236,358.4264c12.46504,-21.90843 38.75475,-30.46024 58.71968,-19.10096c19.96494,11.35925 26.04483,38.32809 13.57979,60.23651c-12.46504,21.90846 -38.75478,30.46023 -58.71971,19.10095c-19.96497,-11.35926 -26.04483,-38.32809 -13.57979,-60.23651z" fill="#840000" stroke="#000000" stroke-linecap="butt"/><path d="M-157.3923,375.13128c7.0367,-12.36767 19.41908,-49.93086 37.08718,-39.8784c2.96424,1.68652 -11.76083,11.96311 -18.06476,27.48318c-5.97961,14.72157 -3.54847,34.63535 -1.25531,39.34263c9.69895,19.90951 50.95108,1.1312 46.21473,9.45574c-7.03672,12.36764 -27.06391,14.24452 -44.73201,4.19205c-17.6681,-10.05246 -26.28655,-28.22757 -19.24982,-40.59523z" fill="#430000" stroke="none" stroke-linecap="butt"/><path d="M-94.52566,341.34535c19.96497,11.35926 26.04483,38.32809 13.57979,60.23651c-12.46504,21.90846 -38.75472,30.46025 -58.71968,19.10096c-19.96497,-11.35926 -26.04483,-38.32809 -13.57979,-60.23651c12.46504,-21.90846 38.75472,-30.46025 58.71968,-19.10096z" fill="none" stroke="#000000" stroke-linecap="butt"/><g><path d="M-94.8076,443.98648c9.4493,-16.608 -16.6878,-41.67833 -8.56045,-37.0542c3.79854,2.1612 22.85948,-11.86792 32.12049,-1.98095c10.55381,11.26718 10.90448,46.93479 5.87158,55.78059c-9.44931,16.60803 -23.69795,26.32286 -31.82529,21.69873c-8.12735,-4.62413 -7.05567,-21.83616 2.39364,-38.44419z" fill="#840000" stroke="#000000" stroke-linecap="butt"/><path d="M-100.56199,411.02761c-0.88586,-9.76499 10.19882,-9.59646 11.88455,-8.63735c4.59372,2.61364 14.09713,64.53727 10.17667,71.42782c-3.92046,6.89055 -10.82256,10.35767 -15.41625,7.74404c-4.59369,-2.61364 -6.75033,-9.9798 -2.82987,-16.87036c2.48178,-4.36196 -2.15077,-35.31761 -3.81509,-53.66415z" fill="#430000" stroke="none" stroke-linecap="butt"/><path d="M-103.94617,406.28129c3.79854,2.1612 22.85948,-11.86792 32.12049,-1.98095c10.55381,11.26718 10.90448,46.93479 5.87158,55.78059c-9.4493,16.608 -23.69798,26.32285 -31.82529,21.69873c-8.12732,-4.62412 -7.05563,-21.83618 2.39367,-38.44418c9.4493,-16.608 -16.68777,-41.67832 -8.56045,-37.0542z" fill="none" stroke="#000000" stroke-linecap="butt"/><path d="M-91.55406,439.57809l27.66657,0.49631" fill="none" stroke="#000000" stroke-linecap="round"/></g><g data-paper-data="{&quot;index&quot;:null}"><path d="M-185.94497,406.79932c-3.77623,18.73116 -14.26818,32.4177 -23.43452,30.56973c-9.16631,-1.84794 -13.53583,-18.53055 -9.7596,-37.26171c2.0113,-9.97664 25.69291,-36.65025 41.05091,-38.22007c13.47667,-1.3775 18.64361,21.71881 22.92773,22.58248c9.16631,1.84794 -27.00835,3.5984 -30.78454,22.32951z" fill="#840000" stroke="#000000" stroke-linecap="butt"/><path d="M-198.07593,423.6904c-1.56673,7.77143 -8.02963,11.91178 -13.21058,10.86731c-5.18095,-1.04447 -8.11087,-8.19119 -6.54414,-15.96262c1.56673,-7.77143 49.3902,-48.24072 54.57118,-47.19623c1.90122,0.38328 10.37296,7.53364 3.29369,14.31771c-13.30055,12.74601 -37.11836,33.05424 -38.11017,37.97383z" fill="#430000" stroke="none" stroke-linecap="butt"/><path d="M-185.08151,406.68785c-3.77619,18.73114 -14.26818,32.4177 -23.43449,30.56976c-9.16628,-1.84793 -13.53583,-18.53058 -9.7596,-37.26171c2.0113,-9.97664 25.69291,-36.65025 41.05091,-38.22007c13.47667,-1.3775 18.64361,21.71881 22.92773,22.58248c9.16628,1.84793 -27.00835,3.5984 -30.78454,22.32951z" fill="none" stroke="#000000" stroke-linecap="butt"/><path d="M-206.69944,383.54829l21.19456,17.78976" fill="none" stroke="#000000" stroke-linecap="round"/></g><g data-paper-data="{&quot;index&quot;:null}"><path d="M-152.34227,433.40751c0.08085,19.10784 -7.43378,34.62985 -16.78444,34.66941c-9.35065,0.03956 -16.99637,-15.41828 -17.07722,-34.52612c-0.04305,-10.17725 17.76951,-41.08055 32.49489,-45.71687c12.92157,-4.06837 22.64239,17.51036 27.01267,17.49188c9.35065,-0.03956 -25.72679,8.97388 -25.64593,28.08169z" fill="#840000" stroke="#000000" stroke-linecap="butt"/><path d="M-160.81564,452.39886c0.03355,7.92771 -5.46102,13.28692 -10.74616,13.30932c-5.28513,0.02237 -9.59679,-6.38618 -9.63034,-14.31389c-0.03355,-7.92771 38.64081,-57.21406 43.92597,-57.23642c1.93946,-0.0082 11.67972,5.28573 6.11488,13.35867c-10.45523,15.16752 -29.68557,39.8638 -29.66434,44.88232z" fill="#430000" stroke="none" stroke-linecap="butt"/><path d="M-151.51908,433.12409c0.08086,19.10781 -7.43378,34.62985 -16.78441,34.66941c-9.35062,0.03956 -16.99636,-15.41831 -17.07722,-34.52612c-0.04305,-10.17725 17.76951,-41.08055 32.49489,-45.71687c12.92157,-4.06837 22.64239,17.51036 27.01267,17.49188c9.35062,-0.03956 -25.72679,8.97388 -25.64593,28.08169z" fill="none" stroke="#000000" stroke-linecap="butt"/><path d="M-153.01314,427.96973l-24.34812,-13.14741" fill="none" stroke="#000000" stroke-linecap="round"/></g><g data-paper-data="{&quot;index&quot;:null}"><path d="M-122.72174,448.93217c7.25783,17.67597 6.12932,34.88437 -2.52063,38.43608c-8.64994,3.55171 -21.54571,-7.89822 -28.80354,-25.57419c-3.86568,-9.4146 1.02343,-44.74729 12.9259,-54.57905c10.44448,-8.62737 27.56405,7.71444 31.60686,6.05446c8.64994,-3.55171 -20.46643,17.98677 -13.20859,35.6627z" fill="#840000" stroke="#000000" stroke-linecap="butt"/><path d="M-123.43449,469.71586c3.01125,7.33363 -0.06575,14.36528 -4.95482,16.37276c-4.88908,2.0075 -11.29357,-2.3102 -14.30479,-9.64383c-3.01125,-7.33363 14.29906,-67.54328 19.18817,-69.55078c1.79414,-0.73668 12.81002,0.50746 10.68808,10.08019c-3.9867,17.98531 -12.52286,48.09921 -10.61666,52.74165z" fill="#430000" stroke="none" stroke-linecap="butt"/><path d="M-122.06548,448.36008c7.25784,17.67594 6.12932,34.88437 -2.52059,38.43605c-8.64991,3.55171 -21.54571,-7.89825 -28.80354,-25.57419c-3.86568,-9.4146 1.02343,-44.74729 12.9259,-54.57905c10.44448,-8.62737 27.56405,7.71444 31.60686,6.05446c8.64991,-3.55171 -20.46643,17.98677 -13.20859,35.6627z" fill="none" stroke="#000000" stroke-linecap="butt"/><path d="M-125.38757,444.14543l-27.50459,-3.0303" fill="none" stroke="#000000" stroke-linecap="round"/></g></g><g data-paper-data="{&quot;index&quot;:null}"><path d="M313.09002,455.79226c0.10666,25.20605 -18.42776,45.71842 -41.39781,45.8156c-22.97003,0.09722 -41.67743,-20.25754 -41.78409,-45.46362c-0.10666,-25.20605 18.42779,-45.71841 41.39781,-45.8156c22.97003,-0.09722 41.67739,20.25757 41.78406,45.46361z" fill="#840000" stroke="#000000" stroke-linecap="butt"/><path d="M309.59532,472.99687c0.06022,14.22923 -16.36965,25.83403 -36.69713,25.92006c-20.32748,0.08603 -36.85493,-11.37933 -36.91516,-25.60853c-0.04054,-9.57754 26.68327,27.03122 44.90585,14.44567c4.30843,-2.97565 16.20102,-19.13224 18.2172,-34.89344c2.12555,-16.61608 -5.65952,-32.7972 -2.24912,-32.81162c20.32748,-0.08603 12.67816,38.71867 12.73835,52.9479z" fill="#430000" stroke="none" stroke-linecap="butt"/><path d="M313.19022,458.16712c0.10666,25.20605 -18.42776,45.71842 -41.39781,45.8156c-22.97006,0.09721 -41.6774,-20.25754 -41.78406,-45.46361c-0.10666,-25.20605 18.42776,-45.71842 41.39781,-45.8156c22.97006,-0.09721 41.6774,20.25754 41.78406,45.46361z" fill="none" stroke="#000000" stroke-linecap="butt"/><g><path d="M221.27159,502.26803c0.08085,19.10784 -7.43378,34.62985 -16.78444,34.66941c-9.35065,0.03956 -16.99637,-15.41828 -17.07722,-34.52612c-0.04305,-10.17725 17.76951,-41.08055 32.49489,-45.71687c12.92157,-4.06837 22.64239,17.51036 27.01267,17.49188c9.35065,-0.03956 -25.72679,8.97388 -25.64593,28.08169z" fill="#840000" stroke="#000000" stroke-linecap="butt"/><path d="M212.79822,521.25939c0.03355,7.92771 -5.46102,13.28692 -10.74616,13.30932c-5.28513,0.02237 -9.59679,-6.38618 -9.63034,-14.31389c-0.03355,-7.92771 38.64081,-57.21406 43.92597,-57.23642c1.93946,-0.0082 11.67969,5.28572 6.11485,13.35866c-10.45523,15.16752 -29.68557,39.8638 -29.66434,44.88232z" fill="#430000" stroke="none" stroke-linecap="butt"/><path d="M222.09478,501.98461c0.08086,19.10781 -7.43378,34.62985 -16.78441,34.66941c-9.35062,0.03956 -16.99636,-15.41831 -17.07722,-34.52612c-0.04305,-10.17725 17.76951,-41.08055 32.49489,-45.71687c12.92157,-4.06837 22.64239,17.51036 27.01267,17.49188c9.35062,-0.03956 -25.72679,8.97388 -25.64593,28.08169z" fill="none" stroke="#000000" stroke-linecap="butt"/><path d="M220.60072,496.83025l-24.34812,-13.14741" fill="none" stroke="#000000" stroke-linecap="round"/></g><g data-paper-data="{&quot;index&quot;:null}"><path d="M318.92793,514.60245c5.90396,-18.17301 -24.75405,-37.454 -15.86086,-34.56484c4.15647,1.35034 19.99473,-16.23623 31.06016,-8.42121c12.61014,8.90598 20.15027,43.76925 17.00574,53.4486c-5.90396,18.17301 -17.89938,30.56305 -26.79255,27.67389c-8.89319,-2.88917 -11.31645,-19.96343 -5.41253,-38.13646z" fill="#840000" stroke="#000000" stroke-linecap="butt"/><path d="M306.64176,483.48252c-2.83794,-9.38541 8.05274,-11.4569 9.89731,-10.85764c5.0266,1.63302 26.82893,60.36551 24.37942,67.90539c-2.44951,7.53988 -8.51009,12.32834 -13.53666,10.69532c-5.02657,-1.63301 -8.62515,-8.41251 -6.17564,-15.95239c1.55064,-4.773 -9.23257,-34.15726 -14.56448,-51.79066z" fill="#430000" stroke="none" stroke-linecap="butt"/><path d="M302.3695,479.51667c4.1565,1.35035 19.99473,-16.23623 31.06019,-8.4212c12.61014,8.90598 20.15027,43.76925 17.00573,53.44863c-5.90396,18.17301 -17.89937,30.56302 -26.79257,27.67385c-8.89316,-2.88916 -11.31642,-19.96346 -5.41247,-38.13644c5.90393,-18.17302 -24.75405,-37.454 -15.86086,-34.56484z" fill="none" stroke="#000000" stroke-linecap="butt"/><path d="M321.22507,509.62829l27.19771,-5.09622" fill="none" stroke="#000000" stroke-linecap="round"/></g><g data-paper-data="{&quot;index&quot;:null}"><path d="M276.59126,521.29135c9.4493,-16.608 -16.6878,-41.67833 -8.56045,-37.0542c3.79854,2.1612 22.85948,-11.86792 32.12049,-1.98095c10.55381,11.26718 10.90448,46.93479 5.87158,55.78059c-9.44931,16.60803 -23.69795,26.32286 -31.82529,21.69873c-8.12735,-4.62413 -7.05567,-21.83616 2.39364,-38.44419z" fill="#840000" stroke="#000000" stroke-linecap="butt"/><path d="M270.83688,488.33247c-0.88586,-9.76499 10.19879,-9.59647 11.88452,-8.63736c4.59372,2.61364 14.09713,64.53727 10.17667,71.42782c-3.92046,6.89055 -10.82256,10.35767 -15.41625,7.74404c-4.59369,-2.61364 -6.75033,-9.97983 -2.82987,-16.87039c2.48178,-4.36196 -2.15074,-35.3176 -3.81506,-53.66414z" fill="#430000" stroke="none" stroke-linecap="butt"/><path d="M267.45268,483.58618c3.79854,2.1612 22.85948,-11.86792 32.12049,-1.98095c10.55381,11.26718 10.90448,46.93479 5.87158,55.78059c-9.4493,16.608 -23.69798,26.32285 -31.82529,21.69873c-8.12732,-4.62412 -7.05563,-21.83618 2.39367,-38.44418c9.4493,-16.608 -16.68777,-41.67832 -8.56045,-37.0542z" fill="none" stroke="#000000" stroke-linecap="butt"/><path d="M279.8448,516.88299l27.66657,0.49631" fill="none" stroke="#000000" stroke-linecap="round"/></g><g data-paper-data="{&quot;index&quot;:null}"><path d="M243.16425,520.27834c14.99943,-11.83774 0.20367,-44.89459 5.99665,-37.55443c2.70752,3.4306 25.64417,-2.40422 30.50926,10.23889c5.54426,14.40813 -7.53878,47.59147 -15.5278,53.89652c-14.99944,11.83777 -31.85495,15.48378 -37.64794,8.14365c-5.79298,-7.34016 1.67038,-22.8869 16.66982,-34.72467z" fill="#840000" stroke="#000000" stroke-linecap="butt"/><path d="M250.22165,487.57369c2.84992,-9.38178 13.05821,-5.05871 14.25977,-3.53624c3.27428,4.14879 -11.19736,65.10304 -17.42052,70.01444c-6.22315,4.9114 -13.92237,5.52963 -17.19662,1.38084c-3.27425,-4.14879 -2.50369,-11.78539 3.7195,-16.69679c3.93949,-3.10909 11.28342,-33.53568 16.6379,-51.16225z" fill="#430000" stroke="none" stroke-linecap="butt"/><path d="M248.86988,481.90334c2.70752,3.4306 25.64414,-2.40423 30.50926,10.23889c5.54423,14.40812 -7.53878,47.59147 -15.5278,53.89652c-14.99943,11.83774 -31.85498,15.48377 -37.64794,8.14365c-5.79292,-7.34014 1.67042,-22.88692 16.66985,-34.72466c14.99943,-11.83774 0.20369,-44.89456 5.99665,-37.55443z" fill="none" stroke="#000000" stroke-linecap="butt"/><path d="M247.83633,517.41633l25.45079,10.86021" fill="none" stroke="#000000" stroke-linecap="round"/></g></g></g></g></svg>