<svg version="1.1" xmlns="http://www.w3.org/2000/svg" xmlns:xlink="http://www.w3.org/1999/xlink" width="182.48829" height="300.72348" viewBox="0,0,182.48829,300.72348"><g transform="translate(-148.28071,-28.94848)"><g data-paper-data="{&quot;isPaintingLayer&quot;:true}" fill-rule="nonzero" stroke-linejoin="miter" stroke-miterlimit="10" stroke-dasharray="" stroke-dashoffset="0" style="mix-blend-mode: normal"><g><g data-paper-data="{&quot;index&quot;:null}" stroke-linecap="butt"><g><g><path d="M288.32602,145.79933l9.69082,41.6809l-16.84181,4.1924l-9.69081,-41.68089z" fill="#252525" stroke="#000000" stroke-width="0"/><path d="M288.32602,145.79933l9.69082,41.6809l-16.84181,4.1924l-9.69081,-41.68089z" fill="#252525" stroke="#000000" stroke-width="0"/><path d="M297.20947,184.50389c0.70438,3.02965 -3.70711,-14.66644 -6.3031,-21.14123c-2.47608,-6.17574 -3.09747,-1.08493 -4.25356,-0.79715c-1.12395,0.27979 -7.78012,-6.64048 -8.64501,2.19373c-0.52519,5.3645 5.19797,29.23279 3.75655,27.51937c-1.18624,-1.41008 -9.76977,-40.64156 -10.09618,-42.04552c-0.38983,-1.67667 0.533,-0.18754 1.66407,-0.6387c2.86208,-1.14162 8.73817,-1.7645 10.43554,-2.18703c1.52194,-0.37885 1.55554,-9.15807 5.59707,3.59452c2.24707,7.09034 7.35286,31.3869 7.84463,33.50202z" fill="#141414" stroke="none" stroke-width="0"/><path d="M288.32602,145.79933l9.69082,41.6809l-16.84181,4.1924l-9.69081,-41.68089z" fill="none" stroke="#000000" stroke-width="3.5"/><path d="M288.32602,145.79933l9.69082,41.6809l-16.84181,4.1924l-9.69081,-41.68089z" fill="none" stroke="#000000" stroke-width="3.5"/></g><g><path d="M296.48298,163.62005l1.9621,8.4391l-24.60568,6.12503l-1.96209,-8.43911z" fill="#252525" stroke="#000000" stroke-width="0"/><path d="M296.48298,163.62005l1.9621,8.4391l-24.60568,6.12503l-1.96209,-8.43911z" fill="#252525" stroke="#000000" stroke-width="0"/><path d="M298.14438,171.49068c0.14262,0.61341 -1.10411,-2.88149 -2.92717,-3.86947c-1.73885,-0.94234 -4.01201,0.62292 -5.70103,1.04337c-1.64208,0.40876 -8.99426,0.50231 -12.6418,3.15535c-2.21493,1.61105 -0.84942,6.39217 -2.38214,6.35414c-1.26137,-0.03129 -2.3595,-8.13372 -2.42559,-8.41799c-0.27864,-1.19849 12.98063,-4.57036 16.44047,-5.43161c2.22356,-0.55349 5.88403,-1.86368 7.98306,0.3995c1.16704,1.25832 1.55465,6.33846 1.65422,6.76673z" fill="#141414" stroke="none" stroke-width="0"/><path d="M296.48298,163.62005l1.9621,8.4391l-24.60568,6.12503l-1.96209,-8.43911z" fill="none" stroke="#000000" stroke-width="3.5"/><path d="M296.48298,163.62005l1.9621,8.4391l-24.60568,6.12503l-1.96209,-8.43911z" fill="none" stroke="#000000" stroke-width="3.5"/></g><g><path d="M294.83405,149.87398l1.96209,8.43911l-27.79949,6.92007l-1.9621,-8.43912z" fill="#252525" stroke="#000000" stroke-width="0"/><path d="M294.83405,149.87398l1.96209,8.43911l-27.79949,6.92007l-1.9621,-8.43912z" fill="#252525" stroke="#000000" stroke-width="0"/><path d="M293.29882,153.94227c-1.92533,-0.89593 -4.52205,0.74989 -6.43031,1.22491c-1.85524,0.46181 -10.11217,0.78057 -14.28295,3.56385c-2.53267,1.69012 -1.13601,6.46353 -2.8557,6.47203c-1.41523,0.00701 -2.41698,-8.11942 -2.48307,-8.40368c-0.27864,-1.19849 14.7037,-4.99929 18.61264,-5.97233c2.51218,-0.62535 6.65917,-2.05666 8.95118,0.15851c1.27434,1.23161 1.56458,6.336 1.66415,6.76425c0.14261,0.6134 -1.15738,-2.86822 -3.17594,-3.80754z" fill="#141414" stroke="none" stroke-width="0"/><path d="M294.83405,149.87398l1.96209,8.43911l-27.79949,6.92007l-1.9621,-8.43912z" fill="none" stroke="#000000" stroke-width="3.5"/><path d="M294.83405,149.87398l1.96209,8.43911l-27.79949,6.92007l-1.9621,-8.43912z" fill="none" stroke="#000000" stroke-width="3.5"/></g></g><g><path d="M301.88311,179.51014l2.25352,9.69258l-28.71201,7.14722l-2.25352,-9.69259z" fill="#252525" stroke="#000000" stroke-width="0"/><path d="M301.88311,179.51014l2.25352,9.69258l-28.71201,7.14722l-2.25352,-9.69259z" fill="#252525" stroke="#000000" stroke-width="0"/><path d="M300.39124,184.11509c-2.0235,-1.07575 -4.68004,0.73339 -6.65093,1.22401c-1.91612,0.47698 -10.48827,0.61626 -14.75158,3.68178c-2.58885,1.8615 -1.01612,7.35171 -2.80294,7.31461c-1.47048,-0.03052 -2.71808,-9.33982 -2.79399,-9.66631c-0.32005,-1.3765 15.15231,-5.30987 19.18954,-6.31484c2.59463,-0.64587 6.8676,-2.16779 9.30569,0.42477c1.35556,1.44144 1.78696,7.27959 1.90132,7.77144c0.1638,0.70452 -1.27564,-3.30761 -3.39712,-4.43546z" fill="#141414" stroke="none" stroke-width="0"/><path d="M301.88311,179.51014l2.25352,9.69258l-28.71201,7.14722l-2.25352,-9.69259z" fill="none" stroke="#000000" stroke-width="3.5"/><path d="M301.88311,179.51014l2.25352,9.69258l-28.71201,7.14722l-2.25352,-9.69259z" fill="none" stroke="#000000" stroke-width="3.5"/></g></g><g data-paper-data="{&quot;index&quot;:null}" stroke-linecap="butt"><g><g><path d="M272.50291,154.59409l-23.216,-41.09992l14.73836,-10.08879l23.216,41.09993z" fill="#252525" stroke="#000000" stroke-width="0"/><path d="M272.50291,154.59409l-23.216,-41.09992l14.73836,-10.08879l23.216,41.09993z" fill="#252525" stroke="#000000" stroke-width="0"/><path d="M265.60276,106.4323c1.1781,2.08564 15.08927,25.60996 18.62185,33.07928c6.35365,13.43424 0.01932,6.43364 -1.31255,7.34535c-1.48539,1.01678 -6.02387,5.20899 -8.83699,6.57995c-1.11171,0.54178 -0.68371,2.47045 -1.61761,0.81716c-0.782,-1.38439 -23.00808,-39.63974 -23.19591,-41.71541c-0.22824,-2.52219 12.94528,21.15215 17.16718,25.02696c6.95258,6.381 6.61172,-4.47195 7.59531,-5.14524c1.0117,-0.69254 5.10383,2.88641 2.38814,-4.03366c-2.84719,-7.25516 -12.49693,-24.94181 -10.80943,-21.9544z" fill="#141414" stroke="none" stroke-width="0"/><path d="M272.50291,154.59409l-23.216,-41.09992l14.73836,-10.08879l23.216,41.09993z" fill="none" stroke="#000000" stroke-width="3.5"/><path d="M272.50291,154.59409l-23.216,-41.09992l14.73836,-10.08879l23.216,41.09993z" fill="none" stroke="#000000" stroke-width="3.5"/></g><g><path d="M258.57683,138.46854l-4.70053,-8.32147l21.53257,-14.73962l4.70053,8.32149z" fill="#252525" stroke="#000000" stroke-width="0"/><path d="M258.57683,138.46854l-4.70053,-8.32147l21.53257,-14.73962l4.70053,8.32149z" fill="#252525" stroke="#000000" stroke-width="0"/><path d="M275.60817,116.10253c0.23853,0.42229 3.62059,4.79815 3.71267,6.73702c0.16563,3.48723 -3.3245,5.36058 -5.27033,6.69258c-3.02772,2.07255 -14.68223,9.95824 -15.34978,8.77646c-0.15833,-0.2803 -5.21829,-7.64259 -4.36268,-8.67458c1.03969,-1.25399 3.52599,3.66316 6.22604,3.18459c4.44643,-0.78815 9.63199,-6.58243 11.069,-7.5661c1.47808,-1.01178 4.18576,-1.57349 4.71887,-3.7159c0.55893,-2.24615 -1.08546,-6.03895 -0.74379,-5.43407z" fill="#141414" stroke="none" stroke-width="0"/><path d="M258.57683,138.46854l-4.70053,-8.32147l21.53257,-14.73962l4.70053,8.32149z" fill="none" stroke="#000000" stroke-width="3.5"/><path d="M258.57683,138.46854l-4.70053,-8.32147l21.53257,-14.73962l4.70053,8.32149z" fill="none" stroke="#000000" stroke-width="3.5"/></g><g><path d="M264.51535,152.70122l-4.70054,-8.32149l24.3275,-16.65281l4.70054,8.32149z" fill="#252525" stroke="#000000" stroke-width="0"/><path d="M264.51535,152.70122l-4.70054,-8.32149l24.3275,-16.65281l4.70054,8.32149z" fill="#252525" stroke="#000000" stroke-width="0"/><path d="M284.32351,128.43439c0.23853,0.42229 3.70579,4.73983 3.70398,6.74297c-0.00325,3.60284 -3.91913,5.76763 -6.11755,7.27251c-3.42073,2.34158 -16.5831,11.25944 -17.25066,10.07766c-0.15833,-0.2803 -5.30266,-7.58485 -4.31238,-8.70901c1.20331,-1.366 3.66237,3.56985 6.64047,2.90092c4.90431,-1.10159 10.88163,-7.43785 12.50516,-8.5492c1.66993,-1.14311 4.66077,-1.89865 5.35708,-4.15277c0.73002,-2.36328 -0.86776,-6.18795 -0.52609,-5.58309z" fill="#141414" stroke="none" stroke-width="0"/><path d="M264.51535,152.70122l-4.70054,-8.32149l24.3275,-16.65281l4.70054,8.32149z" fill="none" stroke="#000000" stroke-width="3.5"/><path d="M264.51535,152.70122l-4.70054,-8.32149l24.3275,-16.65281l4.70054,8.32149z" fill="none" stroke="#000000" stroke-width="3.5"/></g></g><g><path d="M247.32009,123.89811l-5.39871,-9.55749l25.12605,-17.19943l5.39871,9.55749z" fill="#252525" stroke="#000000" stroke-width="0"/><path d="M247.32009,123.89811l-5.39871,-9.55749l25.12605,-17.19943l5.39871,9.55749z" fill="#252525" stroke="#000000" stroke-width="0"/><path d="M267.27378,97.94127c0.27396,0.485 4.1704,5.5026 4.2629,7.73854c0.16635,4.02154 -3.90236,6.21436 -6.17295,7.76864c-3.53301,2.41843 -17.1318,11.62135 -17.89851,10.26403c-0.18185,-0.32194 -6.00532,-8.7696 -5.00356,-9.9679c1.21725,-1.45609 4.06901,4.19409 7.20942,3.6175c5.17162,-0.94954 11.23935,-7.68109 12.91616,-8.82891c1.72476,-1.18064 4.87465,-1.85317 5.51003,-4.3296c0.66614,-2.59635 -1.2159,-6.95699 -0.8235,-6.26228z" fill="#141414" stroke="none" stroke-width="0"/><path d="M247.32009,123.89811l-5.39871,-9.55749l25.12605,-17.19943l5.39871,9.55749z" fill="none" stroke="#000000" stroke-width="3.5"/><path d="M247.32009,123.89811l-5.39871,-9.55749l25.12605,-17.19943l5.39871,9.55749z" fill="none" stroke="#000000" stroke-width="3.5"/></g></g><g data-paper-data="{&quot;index&quot;:null}"><g stroke-linecap="butt"><path d="M274.68716,234.12744l4.16274,-23.34849l10.03405,0.37248l-4.16275,23.34848z" fill="#252525" stroke="#000000" stroke-width="0"/><path d="M274.68716,234.12744l4.16274,-23.34849l10.03405,0.37248l-4.16275,23.34848z" fill="#252525" stroke="#000000" stroke-width="0"/><path d="M274.68716,234.12744l4.16274,-23.34849l10.03405,0.37248l-4.16275,23.34848z" fill="none" stroke="#000000" stroke-width="3.5"/><path d="M288.51901,212.83147c-0.21124,1.18485 -2.31912,14.73485 -3.37841,18.77305c-1.90522,7.26303 -1.45237,2.43989 -2.35914,2.40623c-1.41089,-0.05235 -8.58638,3.28317 -7.99521,-0.03269c0.14022,-0.78646 3.74282,-22.7032 4.38725,-23.5883c0.78307,-1.07551 -1.70266,12.31417 -1.19855,15.12261c0.39819,2.21845 3.51617,2.43578 5.45922,-0.16944c2.10779,-2.8261 3.0483,-8.5943 3.39675,-8.58136c0.68877,0.02556 -2.46457,11.64142 -1.2375,8.06655c1.28649,-3.74798 3.22817,-13.69376 2.92559,-11.99665z" fill="#141414" stroke="none" stroke-width="0"/><path d="M274.68716,234.12744l4.16274,-23.34849l10.03405,0.37248l-4.16275,23.34848z" fill="none" stroke="#000000" stroke-width="3.5"/></g><path d="M285.95946,222.81979l-8.22522,-0.68089" fill="none" stroke="#000000" stroke-width="3.5" stroke-linecap="round"/></g><g stroke-linecap="butt"><path d="M288.41595,222.29747l-8.94024,-23.66816l26.51826,-10.01681l8.94024,23.66816z" fill="#252525" stroke="#000000" stroke-width="0"/><path d="M286.53743,219.92793c-1.30547,-3.45609 -10.56946,-19.8668 -3.17821,-22.65871c1.88124,-0.7106 3.11688,18.04834 6.22914,18.5387c2.88156,0.45401 10.42061,-0.27528 15.40451,-5.32849c0.86513,-0.87716 2.31214,-4.14912 1.84958,-8.93365c-0.44809,-4.63494 -2.80007,-10.77784 -2.38179,-12.138c0.49467,-1.60859 4.98792,10.00661 5.54858,9.56238c0.9104,-0.72132 1.10251,1.88415 1.30019,2.23121c0.58108,1.02018 -0.87326,2.78733 -0.37712,3.45192c0.18329,0.24553 2.48084,5.07963 2.58872,5.36523c1.30548,3.4561 -6.06767,6.1859 -13.45892,8.97781c-7.39125,2.79191 -12.21921,4.38768 -13.52469,0.93158z" fill="#141414" stroke="none" stroke-width="0"/><path d="M288.25453,222.22456l-8.94024,-23.66816l26.51825,-10.0168l8.94024,23.66816z" fill="none" stroke="#000000" stroke-width="3.5"/></g><g><g stroke-linecap="butt"><path d="M291.30167,241.7694l-4.44893,-23.29566l10.02871,-0.49557l4.44892,23.29566z" fill="#252525" stroke="#000000" stroke-width="0"/><path d="M291.30167,241.7694l-4.44893,-23.29566l10.02871,-0.49557l4.44892,23.29566z" fill="#252525" stroke="#000000" stroke-width="0"/><path d="M291.30167,241.7694l-4.44893,-23.29566l10.02871,-0.49557l4.44892,23.29566z" fill="none" stroke="#000000" stroke-width="3.5"/><path d="M290.31083,232.10903c1.27085,3.55955 -2.0248,-8.01675 -1.33639,-8.05075c0.34824,-0.0172 1.35947,5.73901 3.50177,8.53903c1.97487,2.58117 5.08995,2.3256 5.46089,0.10244c0.46962,-2.81442 -2.18023,-16.17257 -1.38402,-15.10675c0.65525,0.87713 4.52651,22.74801 4.67637,23.53268c0.63183,3.30836 -6.58404,0.06113 -7.9942,0.13079c-0.90627,0.04477 -0.39429,4.86201 -2.38849,-2.37711c-1.10876,-4.0249 -3.38274,-17.54801 -3.60851,-18.73017c-0.32338,-1.69327 1.74019,8.22793 3.07258,11.95983z" fill="#141414" stroke="none" stroke-width="0"/><path d="M291.30167,241.7694l-4.44893,-23.29566l10.02871,-0.49557l4.44892,23.29566z" fill="none" stroke="#000000" stroke-width="3.5"/></g><path d="M289.92017,230.10535l8.21625,-0.78175" fill="none" stroke="#000000" stroke-width="3.5" stroke-linecap="round"/></g><g><g stroke-linecap="butt"><path d="M306.4297,239.37878l-9.27802,-21.82656l9.69671,-2.60663l9.27802,21.82656z" fill="#252525" stroke="#000000" stroke-width="0"/><path d="M306.4297,239.37878l-9.27802,-21.82656l9.69671,-2.60663l9.27802,21.82656z" fill="#252525" stroke="#000000" stroke-width="0"/><path d="M306.4297,239.37878l-9.27802,-21.82656l9.69671,-2.60663l9.27802,21.82656z" fill="none" stroke="#000000" stroke-width="3.5"/><path d="M303.41697,230.14688c1.99533,3.20999 -3.67547,-7.40669 -3.00984,-7.58561c0.33671,-0.09052 2.54319,5.32134 5.22951,7.60458c2.47637,2.1048 5.46681,1.1958 5.35888,-1.05551c-0.13662,-2.85006 -5.55331,-15.3449 -4.54958,-14.47173c0.82602,0.7186 9.23795,21.27489 9.55046,22.0101c1.31763,3.09973 -6.42199,1.45307 -7.78547,1.81958c-0.87628,0.23554 0.64355,4.83532 -2.83743,-1.81781c-1.9354,-3.6991 -7.01966,-16.43472 -7.49049,-17.54233c-0.67438,-1.58649 3.44199,7.67332 5.53394,11.03875z" fill="#141414" stroke="none" stroke-width="0"/><path d="M306.4297,239.37878l-9.27802,-21.82656l9.69671,-2.60663l9.27802,21.82656z" fill="none" stroke="#000000" stroke-width="3.5"/></g><path d="M302.61113,228.27125l7.86473,-2.50278" fill="none" stroke="#000000" stroke-width="3.5" stroke-linecap="round"/></g><g data-paper-data="{&quot;index&quot;:null}"><g stroke-linecap="butt"><path d="M320.61083,233.98319l-11.97372,-20.47219l7.87931,-6.22391l11.97373,20.47219z" fill="#252525" stroke="#000000" stroke-width="0"/><path d="M320.61083,233.98319l-11.97372,-20.47219l7.87931,-6.22391l11.97373,20.47219z" fill="#252525" stroke="#000000" stroke-width="0"/><path d="M320.61083,233.98319l-11.97372,-20.47219l7.87931,-6.22391l11.97373,20.47219z" fill="none" stroke="#000000" stroke-width="3.5"/><path d="M317.32822,208.80259c0.60762,1.03888 7.7908,12.71995 9.60341,16.48075c3.26012,6.76411 0.47683,2.79912 -0.23521,3.36158c-1.10791,0.87516 -4.40655,8.06769 -6.10701,5.16029c-0.40332,-0.68958 -11.87487,-19.70866 -11.95836,-20.80032c-0.10144,-1.3265 6.69014,10.47758 8.89523,12.28838c1.74184,1.4304 4.25615,-0.42629 4.04559,-3.66948c-0.22841,-3.51816 -3.25339,-8.51878 -2.97979,-8.7349c0.54086,-0.42724 5.67388,10.45963 4.28948,6.94269c-1.45143,-3.68723 -6.42367,-12.51704 -5.55334,-11.029z" fill="#141414" stroke="none" stroke-width="0"/><path d="M320.61083,233.98319l-11.97372,-20.47219l7.87931,-6.22391l11.97373,20.47219z" fill="none" stroke="#000000" stroke-width="3.5"/></g><path d="M315.15522,222.88157l6.70248,-4.81608" fill="none" stroke="#000000" stroke-width="3.5" stroke-linecap="round"/></g></g><g><g><g data-paper-data="{&quot;index&quot;:null}" stroke-linecap="butt"><g><g><path d="M254.79189,308.95002l-6.40718,-46.76681l17.42142,-3.93666l6.40718,46.76682z" fill="#252525" stroke="#000000" stroke-width="0"/><path d="M254.79189,308.95002l-6.40718,-46.76681l17.42142,-3.93666l6.40718,46.76682z" fill="#252525" stroke="#000000" stroke-width="0"/><path d="M266.15503,261.64198c0.32513,2.3732 4.57146,29.37104 5.09776,37.61682c0.94659,14.83076 -2.35665,5.98651 -3.93098,6.34226c-1.75579,0.39675 -7.52114,2.61784 -10.64164,2.85371c-1.23318,0.09321 -1.54726,2.04368 -1.805,0.16242c-0.21582,-1.57527 -6.75288,-45.33298 -6.16134,-47.33143c0.7188,-2.42835 4.22419,24.43665 6.71783,29.59614c4.10652,8.49659 7.79545,-1.71587 8.95809,-1.97859c1.19588,-0.27023 3.67811,4.56638 3.7083,-2.86741c0.03166,-7.79377 -2.40876,-27.79325 -1.94304,-24.39393z" fill="#141414" stroke="none" stroke-width="0"/><path d="M254.79189,308.95002l-6.40718,-46.76681l17.42142,-3.93666l6.40718,46.76682z" fill="none" stroke="#000000" stroke-width="3.5"/><path d="M254.79189,308.95002l-6.40718,-46.76681l17.42142,-3.93666l6.40718,46.76682z" fill="none" stroke="#000000" stroke-width="3.5"/></g><g><path d="M247.80089,288.82304l-1.29726,-9.46884l25.45249,-5.75142l1.29725,9.46886z" fill="#252525" stroke="#000000" stroke-width="0"/><path d="M247.80089,288.82304l-1.29726,-9.46884l25.45249,-5.75142l1.29725,9.46886z" fill="#252525" stroke="#000000" stroke-width="0"/><path d="M271.88479,274.32234c0.06583,0.48051 1.594,5.79569 0.96396,7.63165c-1.13317,3.30214 -5.06831,3.75505 -7.36838,4.27481c-3.57891,0.80871 -17.32106,3.83605 -17.5053,2.49132c-0.0437,-0.31895 -2.02903,-9.029 -0.85294,-9.67232c1.42912,-0.78172 1.92499,4.70594 4.61104,5.25772c4.42338,0.90864 11.38143,-2.56259 13.08003,-2.94642c1.74716,-0.3948 4.47097,0.08254 5.75719,-1.71184c1.3485,-1.88126 1.2201,-6.01319 1.31439,-5.32492z" fill="#141414" stroke="none" stroke-width="0"/><path d="M247.80089,288.82304l-1.29726,-9.46884l25.45249,-5.75142l1.29725,9.46886z" fill="none" stroke="#000000" stroke-width="3.5"/><path d="M247.80089,288.82304l-1.29726,-9.46884l25.45249,-5.75142l1.29725,9.46886z" fill="none" stroke="#000000" stroke-width="3.5"/></g><g><path d="M248.06695,304.24266l-1.29726,-9.46886l28.75621,-6.49795l1.29726,9.46886z" fill="#252525" stroke="#000000" stroke-width="0"/><path d="M248.06695,304.24266l-1.29726,-9.46886l28.75621,-6.49795l1.29726,9.46886z" fill="#252525" stroke="#000000" stroke-width="0"/><path d="M275.4332,289.00023c0.06583,0.48051 1.6947,5.77294 0.95368,7.63398c-1.33279,3.34725 -5.77119,3.91388 -8.36982,4.50108c-4.04346,0.91369 -19.56798,4.34377 -19.75222,2.99905c-0.0437,-0.31895 -2.12876,-9.00647 -0.79348,-9.68575c1.62253,-0.82542 2.08619,4.66953 5.10091,5.14703c4.96461,0.78632 12.85856,-2.89637 14.77764,-3.33002c1.97393,-0.44605 5.03246,-0.04434 6.51158,-1.88231c1.55074,-1.92698 1.47743,-6.07133 1.57172,-5.38306z" fill="#141414" stroke="none" stroke-width="0"/><path d="M248.06695,304.24266l-1.29726,-9.46886l28.75621,-6.49795l1.29726,9.46886z" fill="none" stroke="#000000" stroke-width="3.5"/><path d="M248.06695,304.24266l-1.29726,-9.46886l28.75621,-6.49795l1.29726,9.46886z" fill="none" stroke="#000000" stroke-width="3.5"/></g></g><g><path d="M242.71676,271.12664l-1.48994,-10.87529l29.70013,-6.71123l1.48994,10.87528z" fill="#252525" stroke="#000000" stroke-width="0"/><path d="M242.71676,271.12664l-1.48994,-10.87529l29.70013,-6.71123l1.48994,10.87528z" fill="#252525" stroke="#000000" stroke-width="0"/><path d="M270.84202,254.36724c0.0756,0.55187 1.84499,6.65333 1.10568,8.76554c-1.32972,3.79899 -5.9205,4.33526 -8.60444,4.94175c-4.17618,0.94367 -20.21151,4.47761 -20.42311,2.93314c-0.05018,-0.36633 -2.34452,-10.36692 -0.97122,-11.11086c1.66873,-0.904 2.2337,5.39979 5.3652,6.02301c5.15693,1.0263 13.2808,-2.99041 15.26286,-3.43829c2.03874,-0.46069 5.21446,0.07686 6.719,-1.99021c1.57739,-2.16716 1.43771,-6.91456 1.546,-6.12407z" fill="#141414" stroke="none" stroke-width="0"/><path d="M242.71676,271.12664l-1.48994,-10.87529l29.70013,-6.71123l1.48994,10.87528z" fill="none" stroke="#000000" stroke-width="3.5"/><path d="M242.71676,271.12664l-1.48994,-10.87529l29.70013,-6.71123l1.48994,10.87528z" fill="none" stroke="#000000" stroke-width="3.5"/></g></g><path d="M281.46305,283.09839c4.46542,34.27387 -20.47767,-26.35422 -28.8585,-25.26231c-0.56648,0.0738 5.5743,24.17544 4.82767,24.2904c-5.01668,0.77247 -12.2569,32.34543 -16.03986,22.12473c-3.98361,-10.76281 -1.86539,-35.41237 -4.00097,-51.80378c-4.46542,-34.27386 -1.29135,-62.94348 7.08948,-64.03539c4.40218,-0.57354 12.87841,-21.84542 20.8404,-0.89568c3.10084,8.159 -0.26235,29.49505 2.35412,46.19958c3.45545,22.06088 12.58126,40.12289 13.78766,49.38245z" data-paper-data="{&quot;index&quot;:null}" fill="#001354" stroke="#000000" stroke-width="0" stroke-linecap="butt"/><path d="M235.94936,214.91902c0,-9.23876 5.60275,57.34104 10.17836,71.44888c2.23412,6.88837 3.17964,-34.21896 5.12474,-34.21896c0.6284,0 15.55547,10.54256 21.58519,19.71732c4.2489,6.46508 0.17017,9.29278 0.61352,4.81885c0.32321,-3.26161 -5.2971,-53.35167 -16.63214,-69.66048c-6.85355,-9.86086 -21.30265,12.62484 -22.10097,8.30123c-4.33415,-23.47334 24.38223,-17.22216 26.90715,-14.89909c3.33959,3.07261 4.82081,23.81254 8.56123,40.35083c5.01233,22.16205 11.90061,41.50452 11.90061,45.86041c0,1.69962 -0.75879,7.93337 -3.40691,4.35565c-6.77912,-9.15889 -21.72645,-35.93136 -25.97373,-34.32491c-3.23957,1.22531 3.30158,10.87765 2.50048,20.75787c-0.02062,0.25425 1.08579,1.63871 1.05691,1.89115c-0.50349,4.40177 -4.17826,7.71779 -5.88639,11.22737c-3.21859,6.613 -5.22401,11.85277 -6.4339,11.85277c-5.92878,0 -7.99416,-73.72916 -7.99416,-87.47889z" fill="#000c33" stroke="none" stroke-width="0" stroke-linecap="butt"/><path d="M281.48795,282.66647c4.46542,34.27387 -20.47767,-26.35422 -28.8585,-25.26231c-0.56648,0.0738 5.57429,24.17544 4.82766,24.2904c-5.01668,0.77247 -12.25689,32.34543 -16.03985,22.12473c-3.98361,-10.76281 -1.86539,-35.41237 -4.00097,-51.80378c-4.46542,-34.27386 -1.29135,-62.94348 7.08948,-64.03539c4.40218,-0.57354 12.87841,-21.84541 20.8404,-0.89567c3.10084,8.159 -0.26235,29.49505 2.35412,46.19958c3.45545,22.06088 12.58127,40.12288 13.78766,49.38245z" data-paper-data="{&quot;index&quot;:null}" fill="none" stroke="#000000" stroke-width="3.5" stroke-linecap="butt"/><path d="M268.2321,235.93257l-32,16" fill="none" stroke="#000000" stroke-width="3.5" stroke-linecap="round"/></g><g stroke-linecap="butt"><path d="M239.89241,313.2553c0,-9.57293 15.00343,-17.33333 33.51109,-17.33333c8.76699,0 17.82869,-4.592 23.80081,-1.74153c6.63539,3.16703 9.71028,14.03659 9.71028,19.07486c0,4.01638 9.93836,10.2443 0.86668,12.63837c-12.55042,3.31213 -46.33616,2.02829 -57.07883,2.02829c-18.50766,0 -10.81003,-5.09374 -10.81003,-14.66667z" fill="#51341e" stroke="#000000" stroke-width="0"/><path d="M298.83513,320.77765c12.51038,-5.73047 -12.16793,-26.98902 -3.45124,-26.98902c10.26399,0 9.47393,10.2209 11.0047,17.89293c1.0217,5.12064 5.71481,7.88586 5.71481,10.20707c0,5.79899 -26.62997,7.7 -43.74458,7.7c-10.71308,0 -21.02126,-0.44198 -26.58682,-3.24224c-3.32567,-1.67327 -4.40193,-5.08871 -4.40193,-7.25776c0,-2.84549 49.41218,7.20993 61.46506,1.68902z" fill="#2f1c0d" stroke="none" stroke-width="0"/><path d="M273.76384,295.92196c8.767,0 17.8287,-4.592 23.80082,-1.74153c6.63538,3.16704 9.71027,14.03658 9.71027,19.07486c0,4.01639 9.93836,10.24431 0.86668,12.63838c-12.55042,3.31213 -46.33617,2.02829 -57.07883,2.02829c-18.50766,0 -10.81003,-5.09373 -10.81003,-14.66667c0,-9.57293 15.00343,-17.33333 33.51109,-17.33333z" fill="none" stroke="#000000" stroke-width="3.5"/></g></g><g stroke-linecap="butt"><g data-paper-data="{&quot;index&quot;:null}"><g><g><path d="M210.41521,256.70519l6.64634,-59.2575l17.40105,5.10458l-6.64634,59.25749z" fill="#252525" stroke="#000000" stroke-width="0"/><path d="M210.41521,256.70519l6.64634,-59.2575l17.40105,5.10458l-6.64634,59.25749z" fill="#252525" stroke="#000000" stroke-width="0"/><path d="M216.69529,201.75072c0.4831,-4.30722 -2.05959,21.03575 -2.06781,30.91824c-0.00784,9.42605 2.49911,3.30945 3.69359,3.65986c1.16129,0.34065 4.79792,13.31372 8.94785,2.5669c2.52,-6.52592 6.16278,-40.56727 6.86914,-37.48353c0.58132,2.53782 -6.17951,57.97901 -6.40338,59.97501c-0.26736,2.38371 -0.57145,-0.09147 -1.80414,-0.21765c-3.11925,-0.31931 -8.87316,-3.173 -10.6269,-3.68745c-1.57249,-0.46129 -4.92092,10.73155 -3.89848,-8.06732c0.56846,-10.45201 4.95285,-44.657 5.29012,-47.66405z" fill="#141414" stroke="none" stroke-width="0"/><path d="M210.41521,256.70519l6.64634,-59.2575l17.40105,5.10458l-6.64634,59.25749z" fill="none" stroke="#000000" stroke-width="3.5"/><path d="M210.41521,256.70519l6.64634,-59.2575l17.40105,5.10458l-6.64634,59.25749z" fill="none" stroke="#000000" stroke-width="3.5"/></g><g><path d="M209.48741,228.87692l1.34567,-11.99784l25.42273,7.45775l-1.34568,11.99782z" fill="#252525" stroke="#000000" stroke-width="0"/><path d="M209.48741,228.87692l1.34567,-11.99784l25.42273,7.45775l-1.34568,11.99782z" fill="#252525" stroke="#000000" stroke-width="0"/><path d="M210.90072,217.79193c0.09781,-0.8721 -0.05172,4.36624 1.28714,6.76038c1.27703,2.28356 4.00325,1.69598 5.74836,2.20791c1.69662,0.4977 8.63682,4.94425 13.06478,3.82081c2.68884,-0.68222 3.21277,-7.63719 4.63788,-6.63673c1.17279,0.82335 -0.85708,11.85457 -0.9024,12.25871c-0.19111,1.70388 -13.9176,-2.22384 -17.49232,-3.27248c-2.29739,-0.67396 -6.23015,-1.27376 -7.34642,-5.46813c-0.62064,-2.33204 0.9347,-9.06164 1.00299,-9.67049z" fill="#141414" stroke="none" stroke-width="0"/><path d="M209.48741,228.87692l1.34567,-11.99784l25.42273,7.45775l-1.34568,11.99782z" fill="none" stroke="#000000" stroke-width="3.5"/><path d="M209.48741,228.87692l1.34567,-11.99784l25.42273,7.45775l-1.34568,11.99782z" fill="none" stroke="#000000" stroke-width="3.5"/></g><g><path d="M205.84259,247.45882l1.34568,-11.99785l28.7226,8.42575l-1.34568,11.99785z" fill="#252525" stroke="#000000" stroke-width="0"/><path d="M205.84259,247.45882l1.34568,-11.99785l28.7226,8.42575l-1.34568,11.99785z" fill="#252525" stroke="#000000" stroke-width="0"/><path d="M207.27727,236.38007c0.09781,-0.87208 0.0033,4.38236 1.54416,6.83577c1.4697,2.34008 4.53024,1.85057 6.50187,2.42895c1.91684,0.56231 9.79184,5.28308 14.76041,4.31824c3.01713,-0.58589 3.50889,-7.55035 5.12717,-6.49321c1.33179,0.86998 -0.79769,11.872 -0.84302,12.27613c-0.19111,1.70388 -15.69788,-2.74607 -19.73662,-3.93084c-2.5956,-0.76142 -7.03103,-1.50868 -8.34669,-5.76155c-0.7315,-2.36455 0.92444,-9.06465 0.99272,-9.67349z" fill="#141414" stroke="none" stroke-width="0"/><path d="M205.84259,247.45882l1.34568,-11.99785l28.7226,8.42575l-1.34568,11.99785z" fill="none" stroke="#000000" stroke-width="3.5"/><path d="M205.84259,247.45882l1.34568,-11.99785l28.7226,8.42575l-1.34568,11.99785z" fill="none" stroke="#000000" stroke-width="3.5"/></g></g><g><path d="M210.41931,205.22673l1.54555,-13.7799l29.66542,8.70231l-1.54555,13.7799z" fill="#252525" stroke="#000000" stroke-width="0"/><path d="M210.41931,205.22673l1.54555,-13.7799l29.66542,8.70231l-1.54555,13.7799z" fill="#252525" stroke="#000000" stroke-width="0"/><path d="M212.04557,192.49616c0.11233,-1.00161 -0.05163,5.01705 1.51465,7.77518c1.49395,2.63075 4.67238,1.96975 6.70873,2.56711c1.97974,0.58076 10.08296,5.72654 15.24507,4.45866c3.13464,-0.76991 3.73186,-8.75929 5.39594,-7.60221c1.36948,0.95222 -0.97599,13.61781 -1.02804,14.08198c-0.2195,1.95698 -16.23655,-2.62798 -20.40784,-3.85161c-2.6808,-0.78642 -7.26878,-1.49617 -8.57904,-6.32181c-0.72849,-2.68301 1.07208,-10.40803 1.15051,-11.1073z" fill="#141414" stroke="none" stroke-width="0"/><path d="M210.41931,205.22673l1.54555,-13.7799l29.66542,8.70231l-1.54555,13.7799z" fill="none" stroke="#000000" stroke-width="3.5"/><path d="M210.41931,205.22673l1.54555,-13.7799l29.66542,8.70231l-1.54555,13.7799z" fill="none" stroke="#000000" stroke-width="3.5"/></g></g><g data-paper-data="{&quot;index&quot;:null}"><g><g><path d="M228.23659,256.95731l-1.12857,47.70256l-17.34053,-0.81077l1.12858,-47.70258z" fill="#252525" stroke="#000000" stroke-width="0"/><path d="M228.23659,256.95731l-1.12857,47.70256l-17.34053,-0.81077l1.12858,-47.70258z" fill="#252525" stroke="#000000" stroke-width="0"/><path d="M209.96109,300.41697c0.05727,-2.42069 0.18303,-30.10585 0.9614,-38.35449c1.39995,-14.8359 3.19479,-5.25266 4.7618,-5.1794c1.74763,0.08171 7.62918,-0.55288 10.66214,0.05374c1.1986,0.23974 1.8038,-1.59357 1.75839,0.32533c-0.03801,1.60679 -0.57341,46.38573 -1.45252,48.19163c-1.06822,2.19439 -0.2517,-25.16107 -1.84282,-30.90392c-2.62025,-9.45727 -7.75215,-0.40766 -8.90938,-0.46178c-1.19032,-0.05565 -2.82076,-5.47798 -4.00703,1.82278c-1.24373,7.65429 -2.01399,27.97344 -1.93196,24.5061z" fill="#141414" stroke="none" stroke-width="0"/><path d="M228.23659,256.95731l-1.12857,47.70256l-17.34053,-0.81077l1.12858,-47.70258z" fill="none" stroke="#000000" stroke-width="3.5"/><path d="M228.23659,256.95731l-1.12857,47.70256l-17.34053,-0.81077l1.12858,-47.70258z" fill="none" stroke="#000000" stroke-width="3.5"/></g><g><path d="M231.81586,278.62458l-0.2285,9.65831l-25.33431,-1.18451l0.22851,-9.65831z" fill="#252525" stroke="#000000" stroke-width="0"/><path d="M231.81586,278.62458l-0.2285,9.65831l-25.33431,-1.18451l0.22851,-9.65831z" fill="#252525" stroke="#000000" stroke-width="0"/><path d="M206.43355,286.4101c0.01159,-0.49013 -0.62823,-6.12662 0.26252,-7.76244c1.60212,-2.94215 5.45106,-2.33005 7.74046,-2.22303c3.56229,0.16656 17.2285,0.88271 17.19606,2.25435c-0.0077,0.32533 0.54261,9.42249 -0.68681,9.73897c-1.49391,0.38456 -1.11572,-5.14411 -3.60891,-6.40839c-4.10578,-2.08197 -11.32714,-0.53877 -13.01785,-0.61781c-1.73904,-0.08131 -4.28009,-1.28254 -5.79444,0.13606c-1.58768,1.4873 -2.10765,5.58428 -2.09104,4.88225z" fill="#141414" stroke="none" stroke-width="0"/><path d="M231.81586,278.62458l-0.2285,9.65831l-25.33431,-1.18451l0.22851,-9.65831z" fill="none" stroke="#000000" stroke-width="3.5"/><path d="M231.81586,278.62458l-0.2285,9.65831l-25.33431,-1.18451l0.22851,-9.65831z" fill="none" stroke="#000000" stroke-width="3.5"/></g><g><path d="M233.9609,263.39259l-0.2285,9.65833l-28.62269,-1.33827l0.2285,-9.65831z" fill="#252525" stroke="#000000" stroke-width="0"/><path d="M233.9609,263.39259l-0.2285,9.65833l-28.62269,-1.33827l0.2285,-9.65831z" fill="#252525" stroke="#000000" stroke-width="0"/><path d="M207.65867,266.15507c-1.78897,1.4779 -2.36378,5.5723 -2.34717,4.87027c0.01159,-0.49012 -0.72849,-6.1313 0.27275,-7.76195c1.80081,-2.93288 6.15069,-2.29735 8.73725,-2.17642c4.02469,0.18817 19.465,0.98729 19.43255,2.35893c-0.0077,0.32533 0.64186,9.42714 -0.74599,9.73621c-1.68642,0.37557 -1.27616,-5.15164 -4.0965,-6.43119c-4.64451,-2.10714 -12.79742,-0.60748 -14.70759,-0.69679c-1.96477,-0.09186 -4.83896,-1.30867 -6.54531,0.10095z" fill="#141414" stroke="none" stroke-width="0"/><path d="M233.9609,263.39259l-0.2285,9.65833l-28.62269,-1.33827l0.2285,-9.65831z" fill="none" stroke="#000000" stroke-width="3.5"/><path d="M233.9609,263.39259l-0.2285,9.65833l-28.62269,-1.33827l0.2285,-9.65831z" fill="none" stroke="#000000" stroke-width="3.5"/></g></g><g><path d="M233.94257,297.38975l-0.26244,11.09289l-29.56224,-1.3822l0.26244,-11.09288z" fill="#252525" stroke="#000000" stroke-width="0"/><path d="M233.94257,297.38975l-0.26244,11.09289l-29.56224,-1.3822l0.26244,-11.09288z" fill="#252525" stroke="#000000" stroke-width="0"/><path d="M204.3282,306.31003c0.01333,-0.5629 -0.73573,-7.03727 0.30296,-8.91533c1.86818,-3.37784 6.35965,-2.67153 9.03111,-2.54663c4.15678,0.19435 20.10374,1.02862 20.06646,2.60399c-0.00884,0.37365 0.63726,10.82269 -0.79718,11.18513c-1.74302,0.44042 -1.30413,-5.90927 -4.2139,-7.36346c-4.79179,-2.39477 -13.21749,-0.6285 -15.19035,-0.72074c-2.02926,-0.09489 -4.99483,-1.47674 -6.76126,0.15131c-1.85197,1.70689 -2.45691,6.41203 -2.43784,5.60573z" fill="#141414" stroke="none" stroke-width="0"/><path d="M233.94257,297.38975l-0.26244,11.09289l-29.56224,-1.3822l0.26244,-11.09288z" fill="none" stroke="#000000" stroke-width="3.5"/><path d="M233.94257,297.38975l-0.26244,11.09289l-29.56224,-1.3822l0.26244,-11.09288z" fill="none" stroke="#000000" stroke-width="3.5"/></g></g><g><g><path d="M186.50126,317.9077l0.2211,-21.45005l45.94583,1.27936l-0.2211,21.45006z" fill="#252525" stroke="#000000" stroke-width="0"/><path d="M186.50126,317.9077l0.2211,-21.45005l45.94583,1.27936l-0.2211,21.45006z" fill="#252525" stroke="#000000" stroke-width="0"/><path d="M186.50126,317.9077l0.2211,-21.45005l45.94583,1.27936l-0.2211,21.45006z" fill="none" stroke="#000000" stroke-width="3.5"/><path d="M187.00391,298.01159c0.01608,-1.55913 0.68817,7.60503 3.46494,11.14751c2.64851,3.37886 7.32805,1.10718 10.48194,1.19501c3.06625,0.08539 16.03916,4.62037 23.60954,0.63711c4.59705,-2.41879 4.27572,-14.73556 6.95517,-13.65257c2.20509,0.89125 0.61081,20.97702 0.60336,21.69953c-0.0314,3.04625 -24.82128,0.4406 -31.28179,0.2607c-4.15201,-0.11562 -11.16078,2.73485 -13.86805,-4.03562c-1.50523,-3.76432 0.02366,-16.16317 0.03488,-17.25167z" fill="#141414" stroke="none" stroke-width="0"/><path d="M186.50126,317.9077l0.2211,-21.45005l45.94583,1.27936l-0.2211,21.45006z" fill="none" stroke="#000000" stroke-width="3.5"/></g><g><path d="M173.18627,323.4722l0.10835,-21.45005l22.51631,1.27936l-0.10835,21.45007z" fill="#252525" stroke="#000000" stroke-width="0"/><path d="M173.18627,323.4722l0.10835,-21.45005l22.51631,1.27936l-0.10835,21.45007z" fill="#6c6c6c" stroke="#000000" stroke-width="0"/><path d="M173.18627,323.4722l0.10835,-21.45005l22.51631,1.27936l-0.10835,21.45007z" fill="none" stroke="#000000" stroke-width="3.5"/><path d="M175.13063,314.72361c1.29793,3.37886 3.5912,1.10718 5.1368,1.195c1.50266,0.08539 7.86018,4.62037 11.57014,0.63711c2.25284,-2.41878 2.09537,-14.73555 3.40847,-13.65257c1.08063,0.89125 0.29934,20.97702 0.29569,21.69953c-0.0154,3.04625 -12.16397,0.44061 -15.33002,0.26071c-2.03475,-0.11562 -5.46948,2.73484 -6.79621,-4.03563c-0.73766,-3.76433 0.01161,-16.16317 0.0171,-17.25167c0.00788,-1.55912 0.33725,7.60503 1.69804,11.14751z" fill="#545454" stroke="none" stroke-width="0"/><path d="M173.18627,323.4722l0.10835,-21.45005l22.51631,1.27936l-0.10835,21.45007z" fill="none" stroke="#000000" stroke-width="3.5"/></g><g><path d="M207.03695,325.44296l0.10835,-21.45005l22.51631,1.27936l-0.10836,21.45007z" fill="#252525" stroke="#000000" stroke-width="0"/><path d="M207.03695,325.44296l0.10835,-21.45005l22.51631,1.27936l-0.10836,21.45007z" fill="#6c6c6c" stroke="#000000" stroke-width="0"/><path d="M207.03695,325.44296l0.10835,-21.45005l22.51631,1.27936l-0.10836,21.45007z" fill="none" stroke="#000000" stroke-width="3.5"/><path d="M207.28328,305.54687c0.00787,-1.55912 0.33724,7.60503 1.69803,11.14751c1.29794,3.37886 3.59121,1.10719 5.13681,1.19501c1.50265,0.08539 7.86017,4.62036 11.57013,0.63711c2.25284,-2.41878 2.09537,-14.73555 3.40847,-13.65257c1.08063,0.89124 0.29934,20.97702 0.29569,21.69953c-0.01539,3.04625 -12.16396,0.4406 -15.33001,0.2607c-2.03475,-0.11562 -5.46949,2.73484 -6.79622,-4.03563c-0.73765,-3.76433 0.01161,-16.16317 0.0171,-17.25167z" fill="#545454" stroke="none" stroke-width="0"/><path d="M207.03695,325.44296l0.10835,-21.45005l22.51631,1.27936l-0.10836,21.45007z" fill="none" stroke="#000000" stroke-width="3.5"/></g><g><path d="M188.48863,325.32703l0.10835,-21.45005l22.51631,1.27936l-0.10835,21.45007z" fill="#252525" stroke="#000000" stroke-width="0"/><path d="M188.48863,325.32703l0.10835,-21.45005l22.51631,1.27936l-0.10835,21.45007z" fill="#6c6c6c" stroke="#000000" stroke-width="0"/><path d="M188.48863,325.32703l0.10835,-21.45005l22.51631,1.27936l-0.10835,21.45007z" fill="none" stroke="#000000" stroke-width="3.5"/><path d="M188.73496,305.43094c0.00787,-1.55912 0.33724,7.60504 1.69803,11.14751c1.29793,3.37886 3.5912,1.10718 5.1368,1.195c1.50265,0.08539 7.86017,4.62037 11.57013,0.63711c2.25284,-2.41878 2.09537,-14.73556 3.40847,-13.65257c1.08062,0.89124 0.29934,20.97702 0.29569,21.69953c-0.01539,3.04625 -12.16396,0.4406 -15.33001,0.2607c-2.03474,-0.11562 -5.46948,2.73484 -6.79621,-4.03563c-0.73765,-3.76433 0.01161,-16.16317 0.0171,-17.25167z" fill="#545454" stroke="none" stroke-width="0"/><path d="M188.48863,325.32703l0.10835,-21.45005l22.51631,1.27936l-0.10835,21.45007z" fill="none" stroke="#000000" stroke-width="3.5"/></g></g></g><g><g data-paper-data="{&quot;index&quot;:null}" stroke-linecap="butt"><g><g><path d="M212.41645,155.97437l-14.36931,40.30796l-16.25558,-6.08102l14.36932,-40.30796z" fill="#252525" stroke="#000000" stroke-width="0"/><path d="M212.41645,155.97437l-14.36931,40.30796l-16.25558,-6.08102l14.36932,-40.30796z" fill="#252525" stroke="#000000" stroke-width="0"/><path d="M182.93225,187.33614c0.72917,-2.04545 8.56569,-25.60349 11.60472,-32.39219c5.46596,-12.21006 4.50066,-3.48401 5.96964,-2.93449c1.63828,0.61286 7.40538,1.90015 10.11901,3.35992c1.0724,0.5769 2.15864,-0.79758 1.58061,0.82386c-0.48401,1.35772 -13.4746,39.35812 -14.81354,40.6241c-1.62698,1.53833 6.77418,-21.524 6.86264,-26.91341c0.14567,-8.87525 -7.25451,-2.75707 -8.33934,-3.1629c-1.11585,-0.41743 -1.1541,-5.54588 -4.31662,0.30811c-3.31568,6.13745 -9.71156,23.21684 -8.66712,20.28699z" fill="#141414" stroke="none" stroke-width="0"/><path d="M212.41645,155.97437l-14.36931,40.30796l-16.25558,-6.08102l14.36932,-40.30796z" fill="none" stroke="#000000" stroke-width="3.5"/><path d="M212.41645,155.97437l-14.36931,40.30796l-16.25558,-6.08102l14.36932,-40.30796z" fill="none" stroke="#000000" stroke-width="3.5"/></g><g><path d="M209.77886,175.55478l-2.90934,8.16113l-23.7492,-8.88428l2.90935,-8.16112z" fill="#252525" stroke="#000000" stroke-width="0"/><path d="M209.77886,175.55478l-2.90934,8.16113l-23.7492,-8.88428l2.90935,-8.16112z" fill="#252525" stroke="#000000" stroke-width="0"/><path d="M183.48373,174.30107c0.14764,-0.41415 1.11062,-5.41722 2.41323,-6.53462c2.34286,-2.00972 5.83053,-0.29163 7.97669,0.51121c3.33941,1.24924 16.12904,6.10752 15.71587,7.26654c-0.098,0.27491 -2.1107,8.19981 -3.36744,8.08742c-1.5271,-0.13658 0.37341,-4.73133 -1.64387,-6.58388c-3.32207,-3.05074 -10.61588,-3.98004 -12.2008,-4.57294c-1.63024,-0.60986 -3.71057,-2.42354 -5.54533,-1.68511c-1.92361,0.77418 -3.55981,4.10458 -3.34833,3.51137z" fill="#141414" stroke="none" stroke-width="0"/><path d="M209.77886,175.55478l-2.90934,8.16113l-23.7492,-8.88428l2.90935,-8.16112z" fill="none" stroke="#000000" stroke-width="3.5"/><path d="M209.77886,175.55478l-2.90934,8.16113l-23.7492,-8.88428l2.90935,-8.16112z" fill="none" stroke="#000000" stroke-width="3.5"/></g><g><path d="M216.06343,163.2387l-2.90936,8.16115l-26.83184,-10.03748l2.90934,-8.16113z" fill="#252525" stroke="#000000" stroke-width="0"/><path d="M216.06343,163.2387l-2.90936,8.16115l-26.83184,-10.03748l2.90934,-8.16113z" fill="#252525" stroke="#000000" stroke-width="0"/><path d="M190.29407,157.41772c-2.1123,0.70361 -3.79991,4.01475 -3.58845,3.42155c0.14763,-0.41414 1.01664,-5.45238 2.42281,-6.53103c2.52912,-1.94005 6.48638,-0.0463 8.91111,0.86077c3.77287,1.41139 18.2256,6.89183 17.81244,8.05084c-0.098,0.27491 -2.01766,8.23462 -3.4229,8.06666c-1.70757,-0.20407 0.22303,-4.78762 -2.10093,-6.75488c-3.8271,-3.23965 -11.99416,-4.49562 -13.78484,-5.16548c-1.84184,-0.68901 -4.23448,-2.61953 -6.24924,-1.94843z" fill="#141414" stroke="none" stroke-width="0"/><path d="M216.06343,163.2387l-2.90936,8.16115l-26.83184,-10.03748l2.90934,-8.16113z" fill="none" stroke="#000000" stroke-width="3.5"/><path d="M216.06343,163.2387l-2.90936,8.16115l-26.83184,-10.03748l2.90934,-8.16113z" fill="none" stroke="#000000" stroke-width="3.5"/></g></g><g><path d="M206.56962,192.21011l-3.34148,9.37332l-27.7126,-10.36697l3.34147,-9.37332z" fill="#252525" stroke="#000000" stroke-width="0"/><path d="M206.56962,192.21011l-3.34148,9.37332l-27.7126,-10.36697l3.34147,-9.37332z" fill="#252525" stroke="#000000" stroke-width="0"/><path d="M175.93575,190.60814c0.16957,-0.47565 1.26229,-6.22683 2.77302,-7.50471c2.71719,-2.29838 6.78929,-0.30028 9.29361,0.63656c3.89671,1.45771 18.82118,7.1256 18.34663,8.45675c-0.11255,0.31573 -2.41103,9.42268 -3.87544,9.28574c-1.77943,-0.1664 0.40763,-5.44207 -1.95267,-7.58598c-3.88691,-3.5306 -12.38757,-4.6441 -14.23701,-5.33595c-1.9023,-0.71164 -4.33579,-2.81123 -6.46853,-1.97263c-2.23601,0.8792 -4.1225,4.70154 -3.87963,4.02022z" fill="#141414" stroke="none" stroke-width="0"/><path d="M206.56962,192.21011l-3.34148,9.37332l-27.7126,-10.36697l3.34147,-9.37332z" fill="none" stroke="#000000" stroke-width="3.5"/><path d="M206.56962,192.21011l-3.34148,9.37332l-27.7126,-10.36697l3.34147,-9.37332z" fill="none" stroke="#000000" stroke-width="3.5"/></g></g><g><path d="M211.04239,99.32579c3.70124,0.07522 10.97547,0.96391 13.33203,3.73178c2.322,2.72727 -0.24573,7.30419 -0.32835,11.3693c-0.16645,8.19077 -11.8504,86.4565 -19.19859,86.30717c-2.79836,-0.05687 0.7188,-15.88394 -3.21467,-20.26182c-4.08986,-4.55194 -14.28597,0.98706 -18.66007,-1.30522c-2.46578,-1.29221 -1.32371,-6.68113 -1.28655,-8.50941c0.16645,-8.19077 22.00802,-71.48115 29.35621,-71.33182z" fill="#003aff" stroke="#000000" stroke-width="0" stroke-linecap="butt"/><path d="M191.32441,180.37785c2.60662,0.05297 8.30418,-3.25887 13.25239,-14.70433c9.59585,-22.19579 19.35491,-59.15799 19.18118,-50.60902c-0.26333,12.95731 -11.39846,87.03666 -19.06001,86.88096c-3.30262,-0.06712 1.64009,-13.92445 -2.7913,-19.49722c-3.80444,-4.78433 -12.46783,-1.09365 -17.30158,-3.77634c-2.59736,-1.44151 -3.36006,-8.60818 -3.3077,-11.18484c0.26333,-12.95731 2.36548,12.73509 10.02701,12.89078z" fill="#0029ae" stroke="none" stroke-width="3.5" stroke-linecap="butt"/><path d="M211.05526,98.6917c3.44931,0.0701 11.41109,0.12151 13.72626,2.56933c2.61692,2.76685 -0.63427,8.1858 -0.72259,12.53175c-0.16645,8.19077 -11.15635,86.47061 -18.50454,86.32127c-3.68694,-0.07492 -0.42948,-13.16647 -5.50668,-19.67624c-3.09235,-3.96488 -11.72929,0.44228 -16.06772,-1.05396c-2.73504,-0.94325 -2.31301,-7.78238 -2.28095,-9.36037c0.16645,-8.19077 22.00802,-71.48115 29.35621,-71.33182z" fill="none" stroke="#000000" stroke-width="3.5" stroke-linecap="butt"/><path d="M192.78463,132.48457l24.75312,23.49429" fill="none" stroke="#000000" stroke-width="3.5" stroke-linecap="round"/></g></g><g><g stroke-linecap="butt"><path d="M220.23418,175.66423l0.14844,-57.15562l30.84837,3.40894l-0.14845,57.15562z" fill="#252525" stroke="#000000" stroke-width="0"/><path d="M220.23418,175.66423l0.14844,-57.15562l30.84837,3.40894l-0.14845,57.15562z" fill="#252525" stroke="#000000" stroke-width="0"/><path d="M220.23418,175.66423l0.14844,-57.15562l30.84837,3.40894l-0.14845,57.15562z" fill="none" stroke="#000000" stroke-width="3.5"/><path d="M222.89803,152.35282c1.77823,9.00332 4.9201,2.95017 7.03765,3.18421c2.0587,0.22749 10.76881,12.31138 15.85162,1.6976c3.08649,-6.44505 2.87075,-39.26422 4.66975,-36.37851c1.48051,2.37484 0.41011,55.89518 0.40511,57.82039c-0.02108,8.11703 -16.66519,6.73423 -21.00282,6.25484c-2.7877,-0.30809 -7.49344,1.72707 -9.31112,-16.31345c-1.01062,-10.0304 0.01589,-43.06822 0.02342,-45.96864c0.01079,-4.15442 0.46205,20.26428 2.32638,29.70356z" fill="#141414" stroke="none" stroke-width="0"/><path d="M220.23418,175.66423l0.14844,-57.15562l30.84837,3.40894l-0.14845,57.15562z" fill="none" stroke="#000000" stroke-width="3.5"/></g><g stroke-linecap="butt"><path d="M220.86795,156.37671l0.19479,-9.68113l40.47872,0.57741l-0.19479,9.68113z" fill="#252525" stroke="#000000" stroke-width="0"/><path d="M220.86795,156.37671l0.19479,-9.68113l40.47872,0.57741l-0.19479,9.68113z" fill="#252525" stroke="#000000" stroke-width="0"/><path d="M220.86795,156.37671l0.19479,-9.68113l40.47872,0.57741l-0.19479,9.68113z" fill="none" stroke="#000000" stroke-width="3.5"/><path d="M224.36342,152.42817c2.33336,1.525 6.45607,0.49971 9.23469,0.53935c2.7014,0.03854 14.13065,2.08533 20.80023,0.28755c4.05005,-1.09168 3.76695,-6.65066 6.12758,-6.16187c1.9427,0.40226 0.53814,9.46763 0.53158,9.79373c-0.02766,1.37488 -21.86779,1.14066 -27.55956,1.05946c-3.65796,-0.05219 -9.83276,0.29253 -12.2179,-2.76321c-1.32611,-1.69897 0.02086,-7.29498 0.03074,-7.78626c0.01416,-0.70368 0.60629,3.4324 3.05265,5.03125z" fill="#141414" stroke="none" stroke-width="0"/><path d="M220.86795,156.37671l0.19479,-9.68113l40.47872,0.57741l-0.19479,9.68113z" fill="none" stroke="#000000" stroke-width="3.5"/></g><g stroke-linecap="butt"><path d="M218.69007,136.639l0.19479,-9.68113l40.47872,0.57741l-0.19479,9.68113z" fill="#252525" stroke="#000000" stroke-width="0"/><path d="M218.69007,136.639l0.19479,-9.68113l40.47872,0.57741l-0.19479,9.68113z" fill="#252525" stroke="#000000" stroke-width="0"/><path d="M218.69007,136.639l0.19479,-9.68113l40.47872,0.57741l-0.19479,9.68113z" fill="none" stroke="#000000" stroke-width="3.5"/><path d="M222.18553,132.69047c2.33336,1.525 6.45607,0.49971 9.23469,0.53935c2.7014,0.03853 14.13065,2.08533 20.80023,0.28754c4.05005,-1.09167 3.76695,-6.65065 6.12758,-6.16186c1.9427,0.40226 0.53814,9.46764 0.53158,9.79373c-0.02766,1.37488 -21.86779,1.14066 -27.55956,1.05946c-3.65797,-0.05218 -9.83276,0.29254 -12.2179,-2.7632c-1.32611,-1.69897 0.02086,-7.29498 0.03074,-7.78626c0.01416,-0.70368 0.60629,3.4324 3.05264,5.03125z" fill="#141414" stroke="none" stroke-width="0"/><path d="M218.69007,136.639l0.19479,-9.68113l40.47872,0.57741l-0.19479,9.68113z" fill="none" stroke="#000000" stroke-width="3.5"/></g><g><path d="M222.72137,98.95066c0,-28.25857 13.63129,-12.83333 20.16666,-12.83333c6.53537,0 16.16667,-23.09191 16.16667,5.16666c0,2.53169 3.12421,38.34547 -1.6604,47.1778c-2.12852,3.92923 -1.5913,-12.59788 -6.43781,-16.33039c-1.47198,-1.13363 -2.38462,4.57259 -5.13097,6.84841c-2.75093,2.27961 -7.33502,1.12961 -8.13729,0.93168c-3.19002,-0.78702 0.64043,10.7205 1.37494,15.26961c1.06568,6.60009 0.87621,17.11725 4.82168,22.27212c3.10428,4.05584 5.35505,-5.09592 9.26838,-2.48878c2.95969,1.97181 2.10649,9.35034 4.95913,12.65331c2.83873,3.28688 3.07764,-18.94785 5.87164,-17.0507c2.72594,1.85094 8.04443,27.85949 7.88487,28.98964c-2.1702,15.37128 -25.3886,15.22729 -28.98085,15.22729c-3.58121,0 -31.45752,3.55013 -33.62747,-11.75224c-1.79001,-12.62305 13.4608,-81.30746 13.4608,-94.0811z" fill="#003aff" stroke="#000000" stroke-width="0" stroke-linecap="butt"/><path d="M209.05031,192.08365c0,-2.76324 7.19008,-65.47718 10.23056,-64.0507c0.35742,0.16769 -1.00715,-26.86033 8.02929,-33.7312c10.1787,-7.7394 30.86619,4.65341 30.80485,6.47236c-0.12749,3.78071 -24.50154,-4.52117 -30.02907,5.81833c-12.36663,23.13235 -11.50829,72.48187 -8.88648,83.46119c2.16007,9.04567 15.76822,8.78001 19.10085,8.78001c13.08932,0 21.08768,-34.71366 26.47458,-35.5406c1.77281,-0.27214 7.27542,26.97865 7.27542,28.7906c0,7.31777 -14.10303,13.25 -31.5,13.25c-17.39697,0 -31.5,-5.93223 -31.5,-13.25z" fill="#0029ae" stroke="none" stroke-width="0" stroke-linecap="butt"/><path d="M222.72135,98.95062c0,-28.25857 13.6313,-12.83333 20.16667,-12.83333c6.53537,0 16.16667,-23.0919 16.16667,5.16667c0,2.53169 3.12422,38.34547 -1.6604,47.1778c-2.12853,3.92923 -1.59131,-12.59788 -6.43781,-16.33039c-1.47198,-1.13363 -2.38461,4.57259 -5.13096,6.84841c-2.75093,2.27962 -7.33503,1.12962 -8.13729,0.93169c-3.19002,-0.78702 0.64042,10.7205 1.37494,15.26961c1.06568,6.6001 0.87621,17.11726 4.82168,22.27213c3.10429,4.05585 5.35504,-5.09593 9.26838,-2.48878c2.95969,1.9718 2.1065,9.35033 4.95913,12.6533c2.83874,3.28688 3.07764,-18.94784 5.87164,-17.05069c2.72594,1.85094 8.04443,27.85949 7.88487,28.98964c-2.1702,15.37128 -25.3886,15.22729 -28.98085,15.22729c-3.58121,0 -31.45752,3.55014 -33.62747,-11.75224c-1.79001,-12.62304 13.4608,-81.30745 13.4608,-94.08109z" fill="none" stroke="#000000" stroke-width="3.5" stroke-linecap="butt"/><path d="M215.2344,199.47347l8,-25l27.66667,9.66667l13,-5.33333l3,17" fill="none" stroke="#000000" stroke-width="3.5" stroke-linecap="round"/><path d="M238.02489,150.87625l-21.75,-6.75" fill="none" stroke="#000000" stroke-width="3.5" stroke-linecap="round"/></g></g><g><path d="M207.72722,69.54288c-1.49006,-20.01095 13.0032,-37.40218 32.37158,-38.84439c7.94873,-0.59188 5.13244,10.7216 11.35697,14.88868c0.6574,0.4401 5.76884,-3.22525 7.66062,-0.86658c3.9892,4.97373 6.04517,17.37898 8.77911,15.65339c3.73145,-2.35523 1.11884,-23.22696 3.47775,-22.24755c6.24239,2.5918 6.00123,19.58779 6.49311,26.19371c1.49006,20.01095 -13.00319,37.40217 -32.37157,38.84439c-19.36839,1.44221 -36.27752,-13.61072 -37.76758,-33.62166z" fill="#003aff" stroke="#000000" stroke-width="0" stroke-linecap="butt"/><path d="M242.53161,83.79845c14.04438,-1.04578 34.14046,-19.57805 34.83763,-10.21513c0.69719,9.36292 -17.74224,28.59643 -31.78662,29.6422c-14.04438,1.04578 -36.88795,-17.31979 -37.58514,-26.68271c-0.69719,-9.36292 20.48974,8.30141 34.53412,7.25564z" fill="#0029ae" stroke="none" stroke-width="0" stroke-linecap="butt"/><path d="M207.72721,69.54285c-1.49006,-20.01094 13.0032,-37.40217 32.37158,-38.84438c7.94874,-0.59188 5.13245,10.7216 11.35698,14.88868c0.65739,0.4401 5.76884,-3.22525 7.66062,-0.86658c3.9892,4.97372 6.04518,17.37899 8.77911,15.65339c3.73146,-2.35522 1.11884,-23.22695 3.47775,-22.24754c6.24239,2.5918 6.00123,19.58779 6.49311,26.19371c1.49006,20.01094 -13.0032,37.40217 -32.37158,38.84438c-19.3684,1.44221 -36.27751,-13.61071 -37.76757,-33.62165z" fill="none" stroke="#000000" stroke-width="3.5" stroke-linecap="butt"/><path d="M212.68017,72.31604c-1.39436,-18.72584 10.80085,-34.89839 27.23877,-36.1224c6.74608,-0.50233 5.55914,7.30269 10.87175,11.2403c0.56108,0.41587 4.49606,-3.61944 6.11773,-1.40118c3.41962,4.67764 8.66865,17.37567 10.97912,15.77935c3.15348,-2.17878 0.98422,-23.73618 2.99367,-22.80492c5.31762,2.46438 0.86566,22.69464 1.32597,28.87633c1.39436,18.72584 -10.80085,34.89838 -27.23877,36.12239c-16.43792,1.22401 -30.89386,-12.96403 -32.28823,-31.68987z" fill="#ffffff" stroke="#000000" stroke-width="0" stroke-linecap="butt"/><path d="M214.28253,55.90745c-0.42651,-5.7279 10.59646,-18.43776 22.32765,-19.3113c1.73651,-0.1293 6.15415,-1.9906 7.71603,-0.59959c2.91626,2.59722 2.83482,9.53255 5.74615,10.96418c2.9155,1.43368 4.52849,-1.76409 6.74234,-1.66075c2.39011,0.11156 5.27364,3.52167 5.4011,5.23325c0.05373,0.72166 3.56298,9.89261 5.37837,8.6448c2.19992,-1.5121 1.48977,-12.0449 2.91473,-16.0715c1.45127,-4.10094 5.00399,-1.669 3.49165,-0.11617c-1.70434,1.75001 0.12011,11.34305 -0.13932,18.53129c-0.10278,2.84781 1.12377,4.85667 -0.84326,6.55227c-2.77166,2.3892 -4.21493,-3.49817 -8.45882,-6.99685c-9.68944,-7.988 -25.67473,-21.24084 -28.29485,-21.04574c-0.38339,0.02855 -3.03832,1.81647 -3.41546,1.81689c-11.16289,0.01227 -18.15374,19.59995 -18.56632,14.05923z" fill="#c1c1c1" stroke="none" stroke-width="0" stroke-linecap="butt"/><path d="M242.4952,59.33874c12.28195,-0.91454 22.61411,3.38928 23.07753,9.61287c0.46342,6.22359 -9.11738,12.01018 -21.39933,12.92472c-12.28195,0.91454 -22.61411,-3.38928 -23.07753,-9.61287c-0.46342,-6.22359 9.11738,-12.01018 21.39933,-12.92472z" fill="#c1c1c1" stroke="none" stroke-width="0" stroke-linecap="butt"/><path d="M223.01068,45.12135c-0.19487,-2.61703 -7.8114,22.48121 -2.64352,38.54811c3.66879,11.40624 19.64679,15.21272 23.04815,14.95944c8.19256,-0.61004 15.40384,-10.28454 15.73704,-5.80962c0.33321,4.47492 -6.03804,8.5971 -14.23059,9.20714c-4.40236,0.32781 -21.30569,-0.98104 -25.87594,-15.77652c-1.89227,-6.12589 -5.44378,-14.31085 -4.03705,-22.51133c1.51841,-8.85156 8.08193,-17.54255 8.00191,-18.61722z" fill="#c1c1c1" stroke="none" stroke-width="0" stroke-linecap="butt"/><path d="M240.45786,35.35132c6.74608,-0.50233 5.55913,7.3027 10.87175,11.2403c0.56108,0.41587 4.49606,-3.61945 6.11773,-1.40119c3.41962,4.67764 8.66865,17.37567 10.97912,15.77935c3.15348,-2.17878 0.98421,-23.73617 2.99367,-22.80492c5.31762,2.46437 0.86567,22.69464 1.32597,28.87633c1.39436,18.72584 -10.80084,34.89838 -27.23877,36.12239c-16.43792,1.22401 -30.89386,-12.96403 -32.28823,-31.68987c-1.39436,-18.72584 10.80084,-34.89838 27.23877,-36.12239z" fill="none" stroke="#000000" stroke-width="3.5" stroke-linecap="butt"/><path d="M259.07056,60.2874c4.62638,-0.34449 8.75914,4.51076 9.23076,10.8445c0.22063,2.96298 -1.4218,16.22957 -2.61749,18.3651c-1.36026,2.42942 1.53505,3.87668 -0.92708,4.06002c-2.09835,0.15625 -6.63285,8.25615 -8.23255,6.62026c-1.92728,-1.97088 -4.71879,-24.33686 -4.9765,-27.79787c-0.47162,-6.33373 2.89648,-11.74752 7.52286,-12.09201z" fill="#000000" stroke="#000000" stroke-width="3.5" stroke-linecap="butt"/><path d="M252.08754,100.65037l4.77619,-8.57835" fill="none" stroke="#000000" stroke-width="3.5" stroke-linecap="round"/><path d="M228.55718,63.38491c5.67283,-0.42241 10.60735,3.74459 11.02156,9.30728c0.41421,5.56268 -3.84874,10.41455 -9.52157,10.83695c-5.67283,0.42241 -10.60735,-3.74459 -11.02156,-9.30728c-0.41421,-5.56268 3.84874,-10.41455 9.52157,-10.83695z" fill="#ffffff" stroke="#000000" stroke-width="3.5" stroke-linecap="butt"/><path d="M232.01979,86.99295l1.97743,13.0893" fill="none" stroke="#000000" stroke-width="3.5" stroke-linecap="round"/><path d="M239.56911,86.02971l0.41584,5.58454" fill="none" stroke="#000000" stroke-width="3.5" stroke-linecap="round"/><path d="M248.58661,99.397l0.0022,-13.43726" fill="none" stroke="#000000" stroke-width="3.5" stroke-linecap="round"/></g><g><g stroke-linecap="butt"><path d="M167.79237,203.23607c2.49453,-9.34866 11.42305,-15.08443 19.94239,-12.81118c8.51934,2.27323 13.40342,11.69466 10.9089,21.04332c-2.49453,9.34867 -11.42306,15.08442 -19.9424,12.81117c-8.51935,-2.27323 -13.40342,-11.69466 -10.90889,-21.04331z" fill="#ffffff" stroke="#000000" stroke-width="0"/><path d="M167.41432,209.96454c1.4082,-5.27747 2.34735,-20.43072 9.8866,-18.41899c1.26488,0.3375 -3.20167,5.58737 -4.03077,11.96395c-0.78644,6.04853 2.05573,13.20577 3.36565,14.73024c5.54031,6.44781 19.02839,-4.54234 18.08055,-0.99013c-1.40821,5.27747 -8.66154,7.92489 -16.20078,5.91316c-7.53924,-2.01173 -12.50943,-7.92078 -11.10123,-13.19825z" fill="#adadad" stroke="none" stroke-width="3.5"/><path d="M187.46625,191.29691c8.51935,2.27323 13.40342,11.69466 10.9089,21.04331c-2.49453,9.34867 -11.42303,15.08443 -19.94239,12.81118c-8.51935,-2.27323 -13.40342,-11.69466 -10.90889,-21.04332c2.49453,-9.34867 11.42303,-15.08443 19.94239,-12.81118z" fill="none" stroke="#000000" stroke-width="3.5"/></g><g data-paper-data="{&quot;index&quot;:null}"><path d="M190.57036,232.65872c3.73729,6.31132 4.26324,12.91024 1.17472,14.73913c-3.08852,1.82889 -8.62191,-1.80482 -12.35921,-8.11613c-1.99057,-3.36155 -2.09351,-17.05328 1.88206,-21.44797c3.48858,-3.85635 10.89769,1.40116 12.3412,0.54639c3.08852,-1.82889 -6.77607,7.96729 -3.03878,14.27859z" fill="#ffffff" stroke="#000000" stroke-width="0" stroke-linecap="butt"/><path d="M190.37523,229.48362c0.21224,4.55388 2.80735,8.11591 2.51199,11.92775c-0.31578,4.07515 -2.40843,5.675 -2.40843,5.675c-1.74568,1.03372 -4.41782,-0.25101 -5.9684,-2.86954c-1.55058,-2.61853 1.68447,-26.4484 3.43017,-27.48212c0.6406,-0.37934 4.89383,-0.51784 4.61887,3.23592c-0.13075,1.78503 -2.333,6.32003 -2.18418,9.51299z" fill="#adadad" stroke="none" stroke-width="3.5" stroke-linecap="butt"/><path d="M190.7879,232.40502c3.73729,6.31131 4.26323,12.91024 1.17473,14.73912c-3.08851,1.82888 -8.62192,-1.80483 -12.35921,-8.11613c-1.99057,-3.36155 -2.0935,-17.05328 1.88207,-21.44797c3.48858,-3.85635 10.89769,1.40116 12.3412,0.54638c3.08851,-1.82888 -6.77606,7.9673 -3.03877,14.27859z" fill="none" stroke="#000000" stroke-width="3.5" stroke-linecap="butt"/><path d="M178.677,231.36317l10.61526,-0.37473" fill="none" stroke="#000000" stroke-width="3.5" stroke-linecap="round"/></g><g data-paper-data="{&quot;index&quot;:null}"><path d="M162.71397,224.74201c-0.16542,7.33299 -3.20857,13.21192 -6.79705,13.13096c-3.58848,-0.08096 -6.36341,-6.09112 -6.19798,-13.4241c0.08811,-3.90571 7.24096,-15.58094 12.93912,-17.20862c5.00016,-1.42828 8.50843,6.95195 10.1856,6.98979c3.58848,0.08096 -9.96427,3.179 -10.12969,10.51197z" fill="#ffffff" stroke="#000000" stroke-width="0" stroke-linecap="butt"/><path d="M164.22736,221.94397c-2.22796,3.97732 -1.90899,8.37288 -4.1754,11.45197c-2.42296,3.29178 -5.04508,3.54305 -5.04508,3.54305c-2.02827,-0.04576 -3.61688,-2.54921 -3.54825,-5.59161c0.06863,-3.04241 15.41566,-21.55719 17.44394,-21.51144c0.74431,0.01679 4.42746,2.14836 2.20909,5.18894c-1.0549,1.4459 -5.32217,4.13038 -6.8843,6.9191z" fill="#adadad" stroke="none" stroke-width="3.5" stroke-linecap="butt"/><path d="M163.03276,224.64173c-0.16541,7.33298 -3.20856,13.21191 -6.79703,13.13096c-3.58847,-0.08095 -6.36341,-6.09113 -6.19799,-13.42411c0.08811,-3.90571 7.24097,-15.58094 12.93912,-17.20862c5.00016,-1.42828 8.50842,6.95195 10.1856,6.98979c3.58847,0.08095 -9.96428,3.179 -10.12969,10.51198z" fill="none" stroke="#000000" stroke-width="3.5" stroke-linecap="butt"/><path d="M153.30464,217.35319l9.20782,5.29532" fill="none" stroke="#000000" stroke-width="3.5" stroke-linecap="round"/></g><g data-paper-data="{&quot;index&quot;:null}"><path d="M174.7367,230.90312c1.82943,7.10304 0.49465,13.58693 -2.98131,14.48218c-3.47596,0.89525 -7.77681,-4.13714 -9.60624,-11.24018c-0.97439,-3.78323 2.74416,-16.96075 7.78737,-20.07273c4.42543,-2.73076 10.07488,4.38401 11.69948,3.96559c3.47596,-0.89525 -8.72874,5.76211 -6.89931,12.86513z" fill="#ffffff" stroke="#000000" stroke-width="0" stroke-linecap="butt"/><path d="M175.43457,227.79952c-1.06585,4.43248 0.43323,8.5768 -0.91322,12.15513c-1.43945,3.82551 -3.89518,4.77847 -3.89518,4.77847c-1.96467,0.50601 -4.17266,-1.4728 -4.93168,-4.41981c-0.75902,-2.947 8.99181,-24.92995 10.95649,-25.43597c0.72097,-0.18569 4.84415,0.86715 3.5335,4.39539c-0.62326,1.67779 -4.00259,5.41895 -4.74991,8.52679z" fill="#adadad" stroke="none" stroke-width="3.5" stroke-linecap="butt"/><path d="M175.01635,230.72014c1.82943,7.10304 0.49465,13.58693 -2.9813,14.48218c-3.47595,0.89525 -7.77682,-4.13715 -9.60625,-11.24018c-0.97439,-3.78323 2.74417,-16.96075 7.78738,-20.07272c4.42543,-2.73076 10.07488,4.38401 11.69947,3.96559c3.47595,-0.89525 -8.72873,5.7621 -6.89931,12.86514z" fill="none" stroke="#000000" stroke-width="3.5" stroke-linecap="butt"/><path d="M173.97498,228.94271l-10.2988,-2.59978" fill="none" stroke="#000000" stroke-width="3.5" stroke-linecap="round"/></g><g><path d="M197.35823,229.43519c1.89102,-7.08688 -10.25544,-13.84993 -6.78737,-12.92454c1.62089,0.4325 7.3319,-6.63296 11.73345,-3.86388c5.01601,3.15564 8.62004,16.36493 7.61284,20.13957c-1.89102,7.08689 -6.23539,12.08176 -9.70345,11.15637c-3.46806,-0.92539 -4.7465,-7.42061 -2.85548,-14.50752z" fill="#ffffff" stroke="#000000" stroke-width="0" stroke-linecap="butt"/><path d="M192.01162,217.75796c-1.27998,-3.53949 2.85219,-4.55649 3.57152,-4.36455c0.96178,0.25663 3.75308,5.69976 6.25435,11.52535c2.59654,6.04749 4.88055,12.50714 4.48093,14.00476c-0.78457,2.9403 -3.00965,4.89987 -4.96985,4.37683c0,0 -2.44736,-0.97423 -3.85355,-4.81209c-1.31534,-3.58989 0.21965,-7.72105 -0.80768,-12.16261c-0.72031,-3.11422 -4.06705,-6.88456 -4.6757,-8.5677z" fill="#adadad" stroke="none" stroke-width="3.5" stroke-linecap="butt"/><path d="M190.2928,216.32523c1.62089,0.4325 7.3319,-6.63296 11.73346,-3.86388c5.01601,3.15564 8.62004,16.36493 7.61284,20.13956c-1.89102,7.08688 -6.2354,12.08177 -9.70345,11.15638c-3.46805,-0.92539 -4.74649,-7.42064 -2.85547,-14.50752c1.89102,-7.08688 -10.25543,-13.84993 -6.78738,-12.92454z" fill="none" stroke="#000000" stroke-width="3.5" stroke-linecap="butt"/><path d="M198.13692,227.48148l10.32099,-2.51029" fill="none" stroke="#000000" stroke-width="3.5" stroke-linecap="round"/></g></g></g></g></svg>