<svg version="1.1" xmlns="http://www.w3.org/2000/svg" xmlns:xlink="http://www.w3.org/1999/xlink" width="862.12848" height="786.87816" viewBox="0,0,862.12848,786.87816"><defs><linearGradient x1="351.30631" y1="-24.89738" x2="351.30631" y2="587.71523" gradientUnits="userSpaceOnUse" id="color-1"><stop offset="0" stop-color="#1b2d44"/><stop offset="1" stop-color="#000000"/></linearGradient><radialGradient cx="58.06306" cy="34.84985" r="112.61261" gradientUnits="userSpaceOnUse" id="color-2"><stop offset="0" stop-color="#ffffff"/><stop offset="1" stop-color="#ffffff" stop-opacity="0"/></radialGradient></defs><g transform="translate(103.16452,77.76277)"><g data-paper-data="{&quot;isPaintingLayer&quot;:true}" fill-rule="nonzero" stroke="none" stroke-linecap="butt" stroke-linejoin="miter" stroke-miterlimit="10" stroke-dasharray="" stroke-dashoffset="0" style="mix-blend-mode: normal"><path d="M-56.35135,587.71523v-612.61261h815.31532v612.61261z" fill="url(#color-1)" stroke-width="0"/><path d="M-54.54955,34.84985c0,62.19423 50.41838,112.61261 112.61261,112.61261c62.19423,0 112.61262,-50.41838 112.61262,-112.61261c0,-62.19423 -50.41839,-112.61262 -112.61262,-112.61262c-62.19423,0 -112.61261,50.41839 -112.61261,112.61262z" fill="url(#color-2)" stroke-width="0"/><path d="M-25.01502,34.35435c0,48.09687 38.99022,87.08709 87.08709,87.08709c48.09687,0 87.08709,-38.99022 87.08709,-87.08709c0,-48.09687 -38.99022,-87.08709 -87.08709,-87.08709c-48.09687,0 -87.08709,38.99022 -87.08709,87.08709z" fill="#ffffff" stroke-width="0"/><path d="M307.7514,426.11204l42.20922,-344.26896l193.74444,23.75411l-42.20922,344.26896z" fill="#000000" stroke-width="none"/><path d="M-60.9553,418.83011l-42.20922,-344.26896l193.74444,-23.7541l42.20922,344.26896z" data-paper-data="{&quot;index&quot;:null}" fill="#000000" stroke-width="none"/><path d="M62.49614,515.69162l42.20922,-344.26896l193.74444,23.7541l-42.20922,344.26896z" data-paper-data="{&quot;index&quot;:null}" fill="#000000" stroke-width="none"/><path d="M216.31197,464.86615l-42.20922,-344.26896l193.74444,-23.7541l42.20922,344.26896z" data-paper-data="{&quot;index&quot;:null}" fill="#000000" stroke-width="none"/><path d="M-28.92827,709.1154l-42.20922,-344.26896l193.74444,-23.7541l42.20922,344.26896z" data-paper-data="{&quot;index&quot;:null}" fill="#000000" stroke-width="none"/><path d="M415.84449,325.00093l42.20922,-344.26896l193.74444,23.7541l-42.20922,344.26896z" data-paper-data="{&quot;index&quot;:null}" fill="#000000" stroke-width="none"/><path d="M383.81747,615.28621l42.20922,-344.26896l193.74444,23.7541l-42.20922,344.26896z" data-paper-data="{&quot;index&quot;:null}" fill="#000000" stroke-width="none"/></g></g></svg>