<svg version="1.1" xmlns="http://www.w3.org/2000/svg" xmlns:xlink="http://www.w3.org/1999/xlink" width="340.43137" height="358.25754" viewBox="0,0,340.43137,358.25754"><g transform="translate(-79.7912,-22.02276)"><g data-paper-data="{&quot;isPaintingLayer&quot;:true}" fill-rule="nonzero" stroke-linejoin="miter" stroke-miterlimit="10" stroke-dasharray="" stroke-dashoffset="0" style="mix-blend-mode: normal"><g fill="none" stroke="#000000" stroke-width="3.5" stroke-linecap="round"><path d="M369.90196,211.64407l3.43172,-86.80357"/><path d="M388.25126,134.78312l-43.54519,59.48211"/><path d="M366.55449,215.63017l-22.53364,-97.64458"/></g><g fill="none" stroke="#000000" stroke-width="3.5" stroke-linecap="round"><path d="M153.57495,263.20024l12.68219,-55.149"/><path d="M132.12532,219.76738l13.75495,47.56103"/><path d="M112.95599,256.46598l33.67127,-25.04986l28.43664,40.52909"/><path d="M148.35155,255.28089l-7.56551,-39.90004"/></g><g fill="none" stroke="#000000" stroke-width="3.5" stroke-linecap="round"><g><path d="M279.37308,155.39365l-9.72226,-38.28809l14.51319,-17.33832"/><path d="M234.46868,101.67126l21.48896,8.74498l17.88874,63.0178"/></g><path d="M239.41126,77.57622l7.62167,28.49842"/></g><g fill="none" stroke="#000000" stroke-width="3.5" stroke-linecap="round"><path d="M210.45567,181.64461l12.27218,45.88729"/><path d="M209.78169,229.44153l19.37151,-24.33094"/><path d="M225.3564,210.2666l-13.49659,-46.59498"/></g><g fill="none" stroke="#000000" stroke-width="3.5" stroke-linecap="round"><path d="M340.69808,173.20854l-20.13537,36.95696"/><path d="M326.71846,171.25398l8.97526,29.68913"/></g><g data-paper-data="{&quot;index&quot;:null}" stroke-linecap="butt"><g><g><path d="M299.13651,61.62396l20.7816,57.44041l-23.49955,7.1076l-20.7816,-57.44042z" fill="#252525" stroke="#000000" stroke-width="0"/><path d="M299.13651,61.62396l20.7816,57.44041l-23.49955,7.1076l-20.7816,-57.44042z" fill="#252525" stroke="#000000" stroke-width="0"/><path d="M318.26845,114.97129c1.51054,4.17517 -7.73934,-20.1896 -12.53403,-29.0311c-4.57323,-8.43312 -4.6275,-1.28272 -6.24061,-0.79484c-1.56826,0.47435 -12.26793,-8.68568 -12.0556,3.70663c0.12893,7.52512 12.279,40.40504 9.92658,38.12164c-1.93595,-1.87916 -20.72389,-55.98418 -21.42389,-57.91898c-0.83597,-2.31062 0.73468,-0.3015 2.28493,-1.0155c3.92284,-1.80673 12.26009,-3.11464 14.62844,-3.83097c2.1236,-0.64228 0.72633,-12.89582 8.63089,4.59815c4.39486,9.72649 15.72872,43.25013 16.7833,46.16498z" fill="#141414" stroke="none" stroke-width="0"/><path d="M299.13651,61.62396l20.7816,57.44041l-23.49955,7.1076l-20.7816,-57.44042z" fill="none" stroke="#000000" stroke-width="3.5"/><path d="M299.13651,61.62396l20.7816,57.44041l-23.49955,7.1076l-20.7816,-57.44042z" fill="none" stroke="#000000" stroke-width="3.5"/></g><g><path d="M313.78649,85.88303l4.20764,11.62993l-34.33255,10.38411l-4.20764,-11.62993z" fill="#252525" stroke="#000000" stroke-width="0"/><path d="M313.78649,85.88303l4.20764,11.62993l-34.33255,10.38411l-4.20764,-11.62993z" fill="#252525" stroke="#000000" stroke-width="0"/><path d="M312.62726,91.561c-2.65267,-1.18519 -5.65987,1.16876 -8.01659,1.88157c-2.29121,0.69299 -12.83571,1.37242 -17.63784,5.34691c-2.91606,2.41349 -0.16757,8.98341 -2.37527,9.04477c-1.81686,0.05049 -4.72816,-11.17411 -4.86989,-11.56585c-0.59755,-1.65164 17.89151,-7.34681 22.71907,-8.80693c3.10255,-0.93841 8.14436,-3.03997 11.53183,-0.03848c1.8834,1.66881 3.27656,8.72901 3.49007,9.31918c0.30584,0.84534 -2.06027,-3.93858 -4.84139,-5.18116z" fill="#141414" stroke="none" stroke-width="0"/><path d="M313.78649,85.88303l4.20764,11.62993l-34.33255,10.38411l-4.20764,-11.62993z" fill="none" stroke="#000000" stroke-width="3.5"/><path d="M313.78649,85.88303l4.20764,11.62993l-34.33255,10.38411l-4.20764,-11.62993z" fill="none" stroke="#000000" stroke-width="3.5"/></g><g><path d="M309.15484,66.82412l4.20765,11.62994l-38.78893,11.73198l-4.20763,-11.62994z" fill="#252525" stroke="#000000" stroke-width="0"/><path d="M309.15484,66.82412l4.20765,11.62994l-38.78893,11.73198l-4.20763,-11.62994z" fill="#252525" stroke="#000000" stroke-width="0"/><path d="M312.80816,77.69199c0.30584,0.84534 -2.13459,-3.91609 -5.18849,-5.07618c-2.91286,-1.10649 -6.37153,1.38403 -9.03415,2.18936c-2.58862,0.78294 -14.39554,1.84418 -19.92776,6.03949c-3.35937,2.54757 -0.56742,9.10436 -3.036,9.24462c-2.03155,0.11542 -4.80836,-11.14988 -4.9501,-11.54161c-0.59755,-1.65164 20.29576,-8.07398 25.74993,-9.72363c3.50526,-1.06019 9.2259,-3.3671 12.88264,-0.44706c2.03311,1.62353 3.29042,8.72483 3.50393,9.31498z" fill="#141414" stroke="none" stroke-width="0"/><path d="M309.15484,66.82412l4.20765,11.62994l-38.78893,11.73198l-4.20763,-11.62994z" fill="none" stroke="#000000" stroke-width="3.5"/><path d="M309.15484,66.82412l4.20765,11.62994l-38.78893,11.73198l-4.20763,-11.62994z" fill="none" stroke="#000000" stroke-width="3.5"/></g></g><g><path d="M324.15896,107.65382l4.83262,13.35736l-40.06216,12.11711l-4.83263,-13.35736z" fill="#252525" stroke="#000000" stroke-width="0"/><path d="M324.15896,107.65382l4.83262,13.35736l-40.06216,12.11711l-4.83263,-13.35736z" fill="#252525" stroke="#000000" stroke-width="0"/><path d="M322.77441,114.19123c-3.08346,-1.35011 -6.60116,1.37282 -9.35117,2.20457c-2.67359,0.80865 -14.9628,1.64296 -20.58143,6.23904c-3.41187,2.79092 -0.24899,10.33485 -2.8215,10.41647c-2.11707,0.06717 -5.44178,-12.83042 -5.60456,-13.28033c-0.68631,-1.89696 20.88894,-8.54087 26.52214,-10.24466c3.62032,-1.09499 9.50697,-3.53775 13.43567,-0.10197c2.18432,1.91027 3.76521,10.02495 4.01043,10.70279c0.35126,0.9709 -2.37679,-4.52041 -5.60957,-5.9359z" fill="#141414" stroke="none" stroke-width="0"/><path d="M324.15896,107.65382l4.83262,13.35736l-40.06216,12.11711l-4.83263,-13.35736z" fill="none" stroke="#000000" stroke-width="3.5"/><path d="M324.15896,107.65382l4.83262,13.35736l-40.06216,12.11711l-4.83263,-13.35736z" fill="none" stroke="#000000" stroke-width="3.5"/></g></g><g data-paper-data="{&quot;index&quot;:null}" stroke-linecap="butt"><g><g><path d="M322.3549,141.87062l-29.75568,56.19295l-20.77176,-13.78569l29.75568,-56.19295z" fill="#252525" stroke="#000000" stroke-width="0"/><path d="M322.3549,141.87062l-29.75568,56.19295l-20.77176,-13.78569l29.75568,-56.19295z" fill="#252525" stroke="#000000" stroke-width="0"/><path d="M294.60889,193.92509c-2.16286,4.08449 10.17371,-20.09706 13.70772,-30.01603c3.37078,-9.46084 -2.06469,-4.56677 -3.49054,-5.51309c-1.38623,-0.91998 -1.48243,-15.75619 -10.70177,-7.03059c-5.59835,5.29853 -22.46433,37.66668 -22.28197,34.21873c0.15008,-2.83752 28.69378,-55.14154 29.69606,-57.03432c1.19696,-2.26044 0.70927,0.37624 2.26468,1.11643c3.93587,1.87301 10.38875,7.60202 12.48219,8.99138c1.87708,1.24579 10.21487,-8.32655 2.18516,10.04064c-4.46444,10.21199 -22.35158,42.37534 -23.86154,45.22689z" fill="#141414" stroke="none" stroke-width="0"/><path d="M322.3549,141.87062l-29.75568,56.19295l-20.77176,-13.78569l29.75568,-56.19295z" fill="none" stroke="#000000" stroke-width="3.5"/><path d="M322.3549,141.87062l-29.75568,56.19295l-20.77176,-13.78569l29.75568,-56.19295z" fill="none" stroke="#000000" stroke-width="3.5"/></g><g><path d="M313.63798,170.27484l-6.02462,11.37736l-30.34728,-20.14073l6.02462,-11.37737z" fill="#252525" stroke="#000000" stroke-width="0"/><path d="M313.63798,170.27484l-6.02462,11.37736l-30.34728,-20.14073l6.02462,-11.37737z" fill="#252525" stroke="#000000" stroke-width="0"/><path d="M308.59017,173.27325c-0.84381,-2.92849 -4.59274,-3.69529 -6.6759,-5.07782c-2.02525,-1.34411 -9.45037,-9.26289 -15.5997,-10.33855c-3.73415,-0.65318 -6.89399,6.0696 -8.3875,4.35579c-1.2291,-1.41041 5.33918,-11.47669 5.54211,-11.85991c0.8556,-1.61576 17.27628,9.15946 21.54345,11.99147c2.74242,1.82006 7.63446,4.3796 7.5883,9.14674c-0.02567,2.65049 -4.44421,8.63367 -4.74994,9.21102c-0.43791,0.82698 1.62384,-4.35843 0.73916,-7.42872z" fill="#141414" stroke="none" stroke-width="0"/><path d="M313.63798,170.27484l-6.02462,11.37736l-30.34728,-20.14073l6.02462,-11.37737z" fill="none" stroke="#000000" stroke-width="3.5"/><path d="M313.63798,170.27484l-6.02462,11.37736l-30.34728,-20.14073l6.02462,-11.37737z" fill="none" stroke="#000000" stroke-width="3.5"/></g><g><path d="M324.99492,153.43061l-6.02463,11.37737l-34.28636,-22.755l6.02463,-11.37736z" fill="#252525" stroke="#000000" stroke-width="0"/><path d="M324.99492,153.43061l-6.02463,11.37737l-34.28636,-22.755l6.02463,-11.37736z" fill="#252525" stroke="#000000" stroke-width="0"/><path d="M319.18244,163.84081c-0.43791,0.82698 1.55814,-4.40201 0.43235,-7.63234c-1.0738,-3.08113 -5.2218,-4.11276 -7.57535,-5.67475c-2.28814,-1.51859 -10.82912,-10.17797 -17.62379,-11.68192c-4.12599,-0.91326 -7.24743,5.83504 -8.97155,3.96819c-1.41887,-1.53636 5.2683,-11.52374 5.47123,-11.90697c0.8556,-1.61576 19.40144,10.56988 24.2225,13.76949c3.09838,2.05631 8.59046,5.01408 8.78231,9.93916c0.10666,2.73831 -4.43197,8.64179 -4.73768,9.21913z" fill="#141414" stroke="none" stroke-width="0"/><path d="M324.99492,153.43061l-6.02463,11.37737l-34.28636,-22.755l6.02463,-11.37736z" fill="none" stroke="#000000" stroke-width="3.5"/><path d="M324.99492,153.43061l-6.02463,11.37737l-34.28636,-22.755l6.02463,-11.37736z" fill="none" stroke="#000000" stroke-width="3.5"/></g></g><g><path d="M303.99624,193.55828l-6.91946,13.06727l-35.41183,-23.5019l6.91946,-13.06728z" fill="#252525" stroke="#000000" stroke-width="0"/><path d="M303.99624,193.55828l-6.91946,13.06727l-35.41183,-23.5019l6.91946,-13.06728z" fill="#252525" stroke="#000000" stroke-width="0"/><path d="M298.15168,196.97087c-1.00165,-3.38505 -5.36386,-4.30318 -7.79465,-5.91643c-2.36324,-1.56841 -11.049,-10.76814 -18.20297,-12.06412c-4.34418,-0.78699 -7.96794,6.93797 -9.7159,4.94797c-1.43849,-1.63771 6.12222,-13.188 6.35528,-13.62814c0.98268,-1.85577 20.14285,10.71936 25.12216,14.024c3.20009,2.12381 8.90357,5.11983 8.88423,10.61738c-0.01077,3.05659 -5.10258,9.91719 -5.45372,10.58031c-0.50295,0.94982 1.85575,-5.01196 0.80559,-8.56093z" fill="#141414" stroke="none" stroke-width="0"/><path d="M303.99624,193.55828l-6.91946,13.06727l-35.41183,-23.5019l6.91946,-13.06728z" fill="none" stroke="#000000" stroke-width="3.5"/><path d="M303.99624,193.55828l-6.91946,13.06727l-35.41183,-23.5019l6.91946,-13.06728z" fill="none" stroke="#000000" stroke-width="3.5"/></g></g><g stroke-linecap="butt"><g><g><path d="M233.43534,124.35861l27.51511,54.53618l-22.4785,9.8724l-27.5151,-54.53619z" fill="#252525" stroke="#000000" stroke-width="0"/><path d="M233.43534,124.35861l27.51511,54.53618l-22.4785,9.8724l-27.5151,-54.53619z" fill="#252525" stroke="#000000" stroke-width="0"/><path d="M258.82219,175.02889c1.99998,3.96407 -10.10294,-19.11669 -15.92258,-27.31992c-5.55085,-7.82433 -4.74787,-0.71895 -6.29089,-0.04128c-1.50011,0.65886 -13.22036,-7.153 -11.52455,5.12458c1.02976,7.45544 17.03236,38.64245 14.42327,36.6574c-2.14719,-1.63363 -27.2833,-53.09737 -28.21011,-54.93433c-1.10683,-2.19379 0.69326,-0.38736 2.14678,-1.28199c3.67806,-2.2638 11.7985,-4.56136 14.06394,-5.55632c2.03132,-0.89214 -0.82424,-12.88994 9.1197,3.53076c5.52874,9.12976 20.79817,41.05365 22.19444,43.82112z" fill="#141414" stroke="none" stroke-width="0"/><path d="M233.43534,124.35861l27.51511,54.53618l-22.4785,9.8724l-27.5151,-54.53619z" fill="none" stroke="#000000" stroke-width="3.5"/><path d="M233.43534,124.35861l27.51511,54.53618l-22.4785,9.8724l-27.5151,-54.53619z" fill="none" stroke="#000000" stroke-width="3.5"/></g><g><path d="M250.8868,146.68732l5.57097,11.04191l-32.8408,14.42346l-5.57097,-11.04192z" fill="#252525" stroke="#000000" stroke-width="0"/><path d="M250.8868,146.68732l5.57097,11.04191l-32.8408,14.42346l-5.57097,-11.04192z" fill="#252525" stroke="#000000" stroke-width="0"/><path d="M250.41633,152.4633c-2.77558,-0.85877 -5.47903,1.83859 -7.73335,2.82867c-2.19166,0.96256 -12.57876,2.90067 -16.87,7.42198c-2.60583,2.74554 0.91014,8.93876 -1.27429,9.26423c-1.79771,0.26785 -6.03311,-10.52701 -6.22076,-10.89893c-0.79117,-1.56813 16.8822,-9.43786 21.5,-11.46596c2.96774,-1.30343 7.72138,-3.99403 11.44412,-1.4201c2.06981,1.43109 4.29898,8.27347 4.58168,8.8338c0.40494,0.8026 -2.5174,-3.6633 -5.42738,-4.56367z" fill="#141414" stroke="none" stroke-width="0"/><path d="M250.8868,146.68732l5.57097,11.04191l-32.8408,14.42346l-5.57097,-11.04192z" fill="none" stroke="#000000" stroke-width="3.5"/><path d="M250.8868,146.68732l5.57097,11.04191l-32.8408,14.42346l-5.57097,-11.04192z" fill="none" stroke="#000000" stroke-width="3.5"/></g><g><path d="M244.00464,128.32078l5.57098,11.04193l-37.10355,16.29562l-5.57096,-11.04192z" fill="#252525" stroke="#000000" stroke-width="0"/><path d="M244.00464,128.32078l5.57098,11.04193l-37.10355,16.29562l-5.57096,-11.04192z" fill="#252525" stroke="#000000" stroke-width="0"/><path d="M248.93396,138.67254c0.40494,0.8026 -2.58848,-3.63208 -5.75939,-4.41785c-3.02447,-0.74946 -6.15976,2.13757 -8.70669,3.25617c-2.47615,1.0875 -14.07083,3.55595 -19.06043,8.38398c-3.02988,2.93177 0.52767,9.10675 -1.90632,9.54182c-2.00308,0.35805 -6.10983,-10.49332 -6.29749,-10.86525c-0.79117,-1.56813 19.18198,-10.44791 24.39917,-12.73925c3.35296,-1.47259 8.75592,-4.4484 12.73623,-1.9876c2.21301,1.36819 4.31222,8.26765 4.59492,8.82796z" fill="#141414" stroke="none" stroke-width="0"/><path d="M244.00464,128.32078l5.57098,11.04193l-37.10355,16.29562l-5.57096,-11.04192z" fill="none" stroke="#000000" stroke-width="3.5"/><path d="M244.00464,128.32078l5.57098,11.04193l-37.10355,16.29562l-5.57096,-11.04192z" fill="none" stroke="#000000" stroke-width="3.5"/></g></g><g><path d="M263.79338,167.05827l6.39844,12.682l-38.32146,16.83056l-6.39845,-12.682z" fill="#252525" stroke="#000000" stroke-width="0"/><path d="M263.79338,167.05827l6.39844,12.682l-38.32146,16.83056l-6.39845,-12.682z" fill="#252525" stroke="#000000" stroke-width="0"/><path d="M263.2022,173.71448c-3.22303,-0.97089 -6.38909,2.15396 -9.01961,3.30927c-2.55742,1.1232 -14.65809,3.42414 -19.68548,8.6604c-3.05284,3.17966 0.99127,10.29019 -1.55293,10.67952c-2.09377,0.32039 -6.94007,-12.08585 -7.15559,-12.51302c-0.90869,-1.80105 19.71494,-10.98251 25.10338,-13.34907c3.46303,-1.52093 9.01453,-4.65151 13.32664,-1.71126c2.39749,1.63475 4.93939,9.50151 5.26407,10.14508c0.46508,0.92181 -2.90135,-4.20302 -6.28047,-5.22091z" fill="#141414" stroke="none" stroke-width="0"/><path d="M263.79338,167.05827l6.39844,12.682l-38.32146,16.83056l-6.39845,-12.682z" fill="none" stroke="#000000" stroke-width="3.5"/><path d="M263.79338,167.05827l6.39844,12.682l-38.32146,16.83056l-6.39845,-12.682z" fill="none" stroke="#000000" stroke-width="3.5"/></g></g><g data-paper-data="{&quot;index&quot;:null}" stroke-linecap="butt"><g><g><path d="M206.80582,253.41803l-27.40394,31.4764l-13.42659,-15.50471l27.40394,-31.47639z" fill="#252525" stroke="#000000" stroke-width="0"/><path d="M206.80582,253.41803l-27.40394,31.4764l-13.42659,-15.50471l27.40394,-31.47639z" fill="#252525" stroke="#000000" stroke-width="0"/><path d="M181.28965,282.52589c-1.99191,2.28792 9.46476,-11.38715 13.0686,-17.41963c3.43738,-5.75387 -0.99068,-3.80092 -1.91233,-4.86524c-0.89604,-1.0347 0.63109,-11.54992 -6.92521,-7.9373c-4.58849,2.19372 -20.17709,20.4006 -19.67525,18.01362c0.41302,-1.9644 26.5286,-31.02749 27.45167,-32.08773c1.10236,-1.26618 0.46864,0.46263 1.50546,1.41713c2.62361,2.41532 6.63905,8.2545 7.99221,9.81711c1.21332,1.40112 8.22795,-3.05451 0.48825,7.7041c-4.30321,5.98169 -20.60276,23.76067 -21.99339,25.35797z" fill="#141414" stroke="none" stroke-width="0"/><path d="M206.80582,253.41803l-27.40394,31.4764l-13.42659,-15.50471l27.40394,-31.47639z" fill="none" stroke="#000000" stroke-width="3.5"/><path d="M206.80582,253.41803l-27.40394,31.4764l-13.42659,-15.50471l27.40394,-31.47639z" fill="none" stroke="#000000" stroke-width="3.5"/></g><g><path d="M197.49298,271.08187l-5.54846,6.37301l-19.61607,-22.65217l5.54846,-6.37301z" fill="#252525" stroke="#000000" stroke-width="0"/><path d="M197.49298,271.08187l-5.54846,6.37301l-19.61607,-22.65217l5.54846,-6.37301z" fill="#252525" stroke="#000000" stroke-width="0"/><path d="M192.21735,276.84899c-0.40331,0.46324 1.63447,-2.63101 1.3298,-5.04685c-0.29062,-2.30426 -2.89905,-3.8857 -4.24558,-5.44063c-1.3091,-1.51172 -5.7868,-9.16849 -10.08499,-11.6338c-2.61006,-1.49703 -5.60145,2.37962 -6.48908,0.75398c-0.73049,-1.33785 5.06715,-6.63326 5.25404,-6.84792c0.78798,-0.90507 11.41528,11.26505 14.17353,14.4502c1.77267,2.04702 5.00874,5.21279 4.46271,8.57015c-0.30359,1.86665 -4.11888,4.8715 -4.40044,5.19489z" fill="#141414" stroke="none" stroke-width="0"/><path d="M197.49298,271.08187l-5.54846,6.37301l-19.61607,-22.65217l5.54846,-6.37301z" fill="none" stroke="#000000" stroke-width="3.5"/><path d="M197.49298,271.08187l-5.54846,6.37301l-19.61607,-22.65217l5.54846,-6.37301z" fill="none" stroke="#000000" stroke-width="3.5"/></g><g><path d="M207.45709,262.32238l-5.54847,6.37302l-22.16223,-25.59243l5.54847,-6.37301z" fill="#252525" stroke="#000000" stroke-width="0"/><path d="M207.45709,262.32238l-5.54847,6.37302l-22.16223,-25.59243l5.54847,-6.37301z" fill="#252525" stroke="#000000" stroke-width="0"/><path d="M202.16494,268.07048c-0.40329,0.46323 1.59201,-2.68004 1.13148,-5.27587c-0.43927,-2.47594 -3.30568,-4.35525 -4.82697,-6.11201c-1.47901,-1.70794 -6.67801,-10.19767 -11.39334,-13.14467c-2.86334,-1.78953 -5.8299,2.11581 -6.86661,0.31803c-0.85316,-1.47951 5.02134,-6.68618 5.20823,-6.90084c0.78797,-0.90507 12.78896,12.85134 15.90522,16.44992c2.00276,2.31273 5.62668,5.92637 5.23452,9.46138c-0.21805,1.96543 -4.11096,4.88063 -4.39252,5.20404z" fill="#141414" stroke="none" stroke-width="0"/><path d="M207.45709,262.32238l-5.54847,6.37302l-22.16223,-25.59243l5.54847,-6.37301z" fill="none" stroke="#000000" stroke-width="3.5"/><path d="M207.45709,262.32238l-5.54847,6.37302l-22.16223,-25.59243l5.54847,-6.37301z" fill="none" stroke="#000000" stroke-width="3.5"/></g></g><g><path d="M188.06724,284.86914l-6.37259,7.31961l-22.88973,-26.43248l6.37259,-7.31962z" fill="#252525" stroke="#000000" stroke-width="0"/><path d="M188.06724,284.86914l-6.37259,7.31961l-22.88973,-26.43248l6.37259,-7.31962z" fill="#252525" stroke="#000000" stroke-width="0"/><path d="M182.00566,291.49017c-0.46319,0.53202 1.87126,-3.02873 1.49928,-5.82886c-0.35479,-2.67079 -3.38715,-4.52924 -4.95839,-6.34368c-1.52757,-1.76399 -6.77233,-10.67586 -11.76794,-13.57545c-3.03354,-1.76076 -6.46574,2.69579 -7.50631,0.80432c-0.85634,-1.55659 5.81332,-7.62599 6.02796,-7.87254c0.90501,-1.03951 13.30507,13.16257 16.52362,16.87928c2.06848,2.38864 5.84006,6.08795 5.2347,9.9691c-0.33659,2.15789 -4.72954,5.59637 -5.05292,5.9678z" fill="#141414" stroke="none" stroke-width="0"/><path d="M188.06724,284.86914l-6.37259,7.31961l-22.88973,-26.43248l6.37259,-7.31962z" fill="none" stroke="#000000" stroke-width="3.5"/><path d="M188.06724,284.86914l-6.37259,7.31961l-22.88973,-26.43248l6.37259,-7.31962z" fill="none" stroke="#000000" stroke-width="3.5"/></g></g><g data-paper-data="{&quot;index&quot;:null}" stroke-linecap="butt"><g><g><path d="M215.48288,232.52783l44.26849,21.22411l-14.60877,21.1766l-44.26847,-21.22413z" fill="#252525" stroke="#000000" stroke-width="0"/><path d="M215.48288,232.52783l44.26849,21.22411l-14.60877,21.1766l-44.26847,-21.22413z" fill="#252525" stroke="#000000" stroke-width="0"/><path d="M242.04724,273.26205c-2.24643,-1.07704 -28.36097,-12.7383 -35.55027,-17.13189c-12.9306,-7.90227 -2.42367,-6.14646 -1.10352,-8.06014c1.47232,-2.13424 5.56605,-9.69489 8.56132,-13.20565c1.18369,-1.38741 -0.06917,-2.90013 1.71158,-2.04635c1.49112,0.7149 43.46466,19.98812 44.47298,21.82927c1.22521,2.23722 -24.02577,-10.14403 -30.73365,-10.55658c-11.04649,-0.67939 -6.5737,9.44829 -7.54864,10.86152c-1.00279,1.45364 -7.43858,1.22305 -1.47242,5.72882c6.25509,4.72395 24.88034,14.1237 21.66261,12.58099z" fill="#141414" stroke="none" stroke-width="0"/><path d="M215.48288,232.52783l44.26849,21.22411l-14.60877,21.1766l-44.26847,-21.22413z" fill="none" stroke="#000000" stroke-width="3.5"/><path d="M215.48288,232.52783l44.26849,21.22411l-14.60877,21.1766l-44.26847,-21.22413z" fill="none" stroke="#000000" stroke-width="3.5"/></g><g><path d="M238.85645,237.09158l8.96302,4.29724l-21.34324,30.93874l-8.96301,-4.29723z" fill="#252525" stroke="#000000" stroke-width="0"/><path d="M238.85645,237.09158l8.96302,4.29724l-21.34324,30.93874l-8.96301,-4.29723z" fill="#252525" stroke="#000000" stroke-width="0"/><path d="M225.96856,271.8176c-0.45483,-0.21806 -6.30272,-1.76663 -7.14066,-3.55157c-1.50712,-3.21035 2.14466,-7.73119 4.07341,-10.52703c3.00111,-4.35034 14.58748,-21.0077 15.86039,-20.39743c0.30191,0.14475 9.35522,3.24255 8.67357,4.89935c-0.82828,2.01322 -5.7615,-0.75355 -8.94867,1.81424c-5.24859,4.22863 -9.55138,13.82911 -10.97574,15.89383c-1.46508,2.12375 -4.63076,4.7771 -4.49622,7.24542c0.14105,2.58784 3.60544,4.93554 2.95394,4.62319z" fill="#141414" stroke="none" stroke-width="0"/><path d="M238.85645,237.09158l8.96302,4.29724l-21.34324,30.93874l-8.96301,-4.29723z" fill="none" stroke="#000000" stroke-width="3.5"/><path d="M238.85645,237.09158l8.96302,4.29724l-21.34324,30.93874l-8.96301,-4.29723z" fill="none" stroke="#000000" stroke-width="3.5"/></g><g><path d="M226.14554,228.10032l8.96302,4.29723l-24.11358,34.9546l-8.96303,-4.29724z" fill="#252525" stroke="#000000" stroke-width="0"/><path d="M226.14554,228.10032l8.96302,4.29723l-24.11358,34.9546l-8.96303,-4.29724z" fill="#252525" stroke="#000000" stroke-width="0"/><path d="M210.50522,266.81617c-0.45483,-0.21806 -6.38716,-1.64421 -7.13203,-3.56405c-1.33972,-3.45301 2.73407,-8.58555 4.91316,-11.74432c3.39064,-4.91501 16.47166,-23.73897 17.74456,-23.12868c0.30191,0.14475 9.43884,3.12135 8.62373,4.97163c-0.99047,2.24833 -5.89667,-0.55762 -9.35944,2.40967c-5.70247,4.88653 -10.79004,15.62466 -12.39928,17.95739c-1.65525,2.39942 -5.1016,5.4596 -5.12883,8.16239c-0.02853,2.83367 3.38964,5.24833 2.73815,4.93597z" fill="#141414" stroke="none" stroke-width="0"/><path d="M226.14554,228.10032l8.96302,4.29723l-24.11358,34.9546l-8.96303,-4.29724z" fill="none" stroke="#000000" stroke-width="3.5"/><path d="M226.14554,228.10032l8.96302,4.29723l-24.11358,34.9546l-8.96303,-4.29724z" fill="none" stroke="#000000" stroke-width="3.5"/></g></g><g><path d="M258.32261,242.25139l10.29432,4.93552l-24.90513,36.10197l-10.29432,-4.93551z" fill="#252525" stroke="#000000" stroke-width="0"/><path d="M258.32261,242.25139l10.29432,4.93552l-24.90513,36.10197l-10.29432,-4.93551z" fill="#252525" stroke="#000000" stroke-width="0"/><path d="M243.13124,282.69951c-0.52241,-0.25046 -7.25081,-2.01174 -8.20006,-4.08086c-1.70729,-3.72151 2.54656,-9.00031 4.79717,-12.26276c3.50194,-5.07635 17.02063,-24.51422 18.48258,-23.8133c0.34674,0.16624 10.75658,3.70703 9.95483,5.63728c-0.97424,2.34551 -6.63639,-0.83778 -10.33593,2.16791c-6.09237,4.94973 -11.14521,16.13708 -12.80728,18.54638c-1.70958,2.47818 -5.38515,5.58315 -5.2535,8.45125c0.138,3.00699 4.11044,5.71285 3.36218,5.35411z" fill="#141414" stroke="none" stroke-width="0"/><path d="M258.32261,242.25139l10.29432,4.93552l-24.90513,36.10197l-10.29432,-4.93551z" fill="none" stroke="#000000" stroke-width="3.5"/><path d="M258.32261,242.25139l10.29432,4.93552l-24.90513,36.10197l-10.29432,-4.93551z" fill="none" stroke="#000000" stroke-width="3.5"/></g></g><g stroke-linecap="butt"><g><g><path d="M267.13973,198.2148l12.23599,86.42708l-24.28164,5.23681l-12.23598,-86.42708z" fill="#252525" stroke="#000000" stroke-width="0"/><path d="M267.13973,198.2148l12.23599,86.42708l-24.28164,5.23681l-12.23598,-86.42708z" fill="#252525" stroke="#000000" stroke-width="0"/><path d="M278.33677,278.44794c0.88939,6.28212 -4.73106,-30.46909 -8.19351,-44.10643c-3.30253,-13.00745 -4.3927,-2.80157 -6.05949,-2.44211c-1.62045,0.34952 -10.87935,-14.97912 -12.46557,2.77277c-0.96321,10.77964 6.2925,60.30529 4.29591,56.55009c-1.64311,-3.0904 -12.38996,-84.33418 -12.80212,-87.24536c-0.49221,-3.47665 0.77062,-0.27701 2.408,-0.97272c4.14329,-1.76047 12.58207,-1.88406 15.02925,-2.41184c2.19427,-0.47322 2.58795,-18.27483 7.87322,8.37705c2.93856,14.81821 9.29338,65.09279 9.91431,69.47858z" fill="#141414" stroke="none" stroke-width="0"/><path d="M267.13973,198.2148l12.23599,86.42708l-24.28164,5.23681l-12.23598,-86.42708z" fill="none" stroke="#000000" stroke-width="3.5"/><path d="M267.13973,198.2148l12.23599,86.42708l-24.28164,5.23681l-12.23598,-86.42708z" fill="none" stroke="#000000" stroke-width="3.5"/></g><g><path d="M278.11856,235.94541l2.47741,17.49883l-35.47516,7.65093l-2.47742,-17.49884z" fill="#252525" stroke="#000000" stroke-width="0"/><path d="M278.11856,235.94541l2.47741,17.49883l-35.47516,7.65093l-2.47742,-17.49884z" fill="#252525" stroke="#000000" stroke-width="0"/><path d="M276.14855,243.81601c-2.45286,-2.24882 -5.76951,0.48524 -8.20466,1.01045c-2.36746,0.51059 -12.89908,-0.7259 -18.22661,3.94802c-3.23511,2.83821 -1.46797,12.80135 -3.66125,12.42687c-1.80499,-0.30818 -3.05851,-16.9565 -3.14196,-17.54591c-0.35183,-2.48513 18.76749,-6.75257 23.75571,-7.82837c3.20581,-0.69142 8.49899,-2.63895 11.41561,2.35902c1.62161,2.77883 1.97666,13.15881 2.10238,14.0468c0.18008,1.27194 -1.4676,-6.05913 -4.03924,-8.41684z" fill="#141414" stroke="none" stroke-width="0"/><path d="M278.11856,235.94541l2.47741,17.49883l-35.47516,7.65093l-2.47742,-17.49884z" fill="none" stroke="#000000" stroke-width="3.5"/><path d="M278.11856,235.94541l2.47741,17.49883l-35.47516,7.65093l-2.47742,-17.49884z" fill="none" stroke="#000000" stroke-width="3.5"/></g><g><path d="M276.29848,207.74253l2.47742,17.49885l-40.07985,8.64401l-2.47741,-17.49885z" fill="#252525" stroke="#000000" stroke-width="0"/><path d="M276.29848,207.74253l2.47742,17.49885l-40.07985,8.64401l-2.47741,-17.49885z" fill="#252525" stroke="#000000" stroke-width="0"/><path d="M278.33788,224.03641c0.18008,1.27194 -1.5444,-6.04256 -4.39789,-8.33949c-2.72171,-2.19084 -6.50485,0.64386 -9.25609,1.23724c-2.67477,0.57686 -14.51083,-0.37832 -20.59273,4.45829c-3.69317,2.937 -1.88112,12.89047 -4.34397,12.57413c-2.02683,-0.26034 -3.14137,-16.93863 -3.22483,-17.52806c-0.35183,-2.48513 21.25176,-7.28835 26.88744,-8.50379c3.62191,-0.78115 9.61653,-2.87997 12.81137,2.05797c1.77631,2.74547 1.99098,13.15572 2.11669,14.04369z" fill="#141414" stroke="none" stroke-width="0"/><path d="M276.29848,207.74253l2.47742,17.49885l-40.07985,8.64401l-2.47741,-17.49885z" fill="none" stroke="#000000" stroke-width="3.5"/><path d="M276.29848,207.74253l2.47742,17.49885l-40.07985,8.64401l-2.47741,-17.49885z" fill="none" stroke="#000000" stroke-width="3.5"/></g></g><g><path d="M285.22576,269.22506l2.84539,20.09801l-41.39546,8.92778l-2.8454,-20.09801z" fill="#252525" stroke="#000000" stroke-width="0"/><path d="M285.22576,269.22506l2.84539,20.09801l-41.39546,8.92778l-2.8454,-20.09801z" fill="#252525" stroke="#000000" stroke-width="0"/><path d="M282.90821,278.27655c-2.85519,-2.57466 -6.73044,0.57977 -9.57198,1.1926c-2.76256,0.59582 -15.04291,-0.78462 -21.26843,4.60658c-3.78039,3.27373 -1.74441,14.71535 -4.30159,14.29348c-2.10445,-0.34719 -3.5245,-19.47256 -3.62035,-20.14952c-0.4041,-2.85424 21.90634,-7.8313 27.72701,-9.08664c3.74081,-0.80678 9.91937,-3.06496 13.30855,2.66685c1.88435,3.18684 2.27229,15.11287 2.41668,16.13277c0.20682,1.46084 -1.69643,-6.95677 -4.6899,-9.65609z" fill="#141414" stroke="none" stroke-width="0"/><path d="M285.22576,269.22506l2.84539,20.09801l-41.39546,8.92778l-2.8454,-20.09801z" fill="none" stroke="#000000" stroke-width="3.5"/><path d="M285.22576,269.22506l2.84539,20.09801l-41.39546,8.92778l-2.8454,-20.09801z" fill="none" stroke="#000000" stroke-width="3.5"/></g></g><g stroke-linecap="butt"><g><g><path d="M326.3327,242.64111l-34.27051,31.92115l-15.36742,-20.05863l34.27051,-31.92114z" fill="#252525" stroke="#000000" stroke-width="0"/><path d="M326.3327,242.64111l-34.27051,31.92115l-15.36742,-20.05863l34.27051,-31.92114z" fill="#252525" stroke="#000000" stroke-width="0"/><path d="M294.43219,272.13216c-2.49102,2.32025 11.86007,-11.62034 16.45405,-18.00341c4.38178,-6.08827 -1.01159,-4.54689 -2.06646,-5.9238c-1.02557,-1.33862 1.28746,-13.23042 -7.92902,-10.27693c-5.59662,1.79348 -25.10512,20.2999 -24.3942,17.6254c0.58508,-2.201 33.20144,-31.54391 34.35581,-32.61913c1.37857,-1.28407 0.53999,0.60947 1.73786,1.87816c3.03115,3.21041 7.57167,10.59699 9.12045,12.61855c1.38871,1.81265 9.99523,-2.20114 0.23018,8.97142c-5.42928,6.21183 -25.7696,24.10989 -27.50868,25.72975z" fill="#141414" stroke="none" stroke-width="0"/><path d="M326.3327,242.64111l-34.27051,31.92115l-15.36742,-20.05863l34.27051,-31.92114z" fill="none" stroke="#000000" stroke-width="3.5"/><path d="M326.3327,242.64111l-34.27051,31.92115l-15.36742,-20.05863l34.27051,-31.92114z" fill="none" stroke="#000000" stroke-width="3.5"/></g><g><path d="M314.36568,261.53105l-6.93873,6.46305l-22.45163,-29.3054l6.93873,-6.46305z" fill="#252525" stroke="#000000" stroke-width="0"/><path d="M314.36568,261.53105l-6.93873,6.46305l-22.45163,-29.3054l6.93873,-6.46305z" fill="#252525" stroke="#000000" stroke-width="0"/><path d="M309.60658,261.7272c-0.24201,-2.70657 -3.29336,-4.952 -4.83452,-6.96363c-1.49833,-1.95573 -6.50888,-11.5148 -11.54336,-15.0525c-3.05716,-2.14823 -6.81839,1.84498 -7.80669,-0.17441c-0.81335,-1.66188 6.37424,-6.84095 6.60797,-7.05865c0.98543,-0.91785 13.15363,14.84101 16.31058,18.96169c2.02891,2.64824 5.75906,6.82347 4.95055,10.61095c-0.44951,2.10581 -5.15741,4.96003 -5.50952,5.28799c-0.50435,0.46978 2.07872,-2.77382 1.82499,-5.61146z" fill="#141414" stroke="none" stroke-width="0"/><path d="M314.36568,261.53105l-6.93873,6.46305l-22.45163,-29.3054l6.93873,-6.46305z" fill="none" stroke="#000000" stroke-width="3.5"/><path d="M314.36568,261.53105l-6.93873,6.46305l-22.45163,-29.3054l6.93873,-6.46305z" fill="none" stroke="#000000" stroke-width="3.5"/></g><g><path d="M326.7029,253.02418l-6.93874,6.46306l-25.36584,-33.10925l6.93873,-6.46305z" fill="#252525" stroke="#000000" stroke-width="0"/><path d="M326.7029,253.02418l-6.93874,6.46306l-25.36584,-33.10925l6.93873,-6.46305z" fill="#252525" stroke="#000000" stroke-width="0"/><path d="M320.09992,258.80716c-0.50435,0.46978 2.03011,-2.83726 1.598,-5.90775c-0.41217,-2.92867 -3.75874,-5.55945 -5.49997,-7.83218c-1.69281,-2.20959 -7.52891,-12.84625 -13.04084,-17.00711c-3.34706,-2.52662 -7.07988,1.50369 -8.23879,-0.7384c-0.95375,-1.84515 6.32181,-6.90941 6.55553,-7.12711c0.98542,-0.91785 14.72587,16.89322 18.2926,21.54876c2.29225,2.992 6.46633,7.74664 5.83391,11.76397c-0.35161,2.23359 -5.14834,4.97185 -5.50046,5.29982z" fill="#141414" stroke="none" stroke-width="0"/><path d="M326.7029,253.02418l-6.93874,6.46306l-25.36584,-33.10925l6.93873,-6.46305z" fill="none" stroke="#000000" stroke-width="3.5"/><path d="M326.7029,253.02418l-6.93874,6.46306l-25.36584,-33.10925l6.93873,-6.46305z" fill="none" stroke="#000000" stroke-width="3.5"/></g></g><g><path d="M302.44189,275.92813l-7.96937,7.42304l-26.19849,-34.19604l7.96936,-7.42304z" fill="#252525" stroke="#000000" stroke-width="0"/><path d="M302.44189,275.92813l-7.96937,7.42304l-26.19849,-34.19604l7.96936,-7.42304z" fill="#252525" stroke="#000000" stroke-width="0"/><path d="M296.94113,276.10803c-0.302,-3.13999 -3.84834,-5.77341 -5.64669,-8.12075c-1.74838,-2.2821 -7.61986,-13.4134 -13.46967,-17.56466c-3.55223,-2.52083 -7.86812,2.07077 -9.02734,-0.28005c-0.95399,-1.93464 7.31362,-7.86673 7.58205,-8.11676c1.13178,-1.0542 15.32968,17.33556 19.01348,22.14391c2.36749,3.09022 6.71445,7.96751 5.81077,12.35004c-0.50244,2.43666 -5.92216,5.69843 -6.32657,6.07511c-0.57927,0.53956 2.3806,-3.19479 2.06396,-6.48683z" fill="#141414" stroke="none" stroke-width="0"/><path d="M302.44189,275.92813l-7.96937,7.42304l-26.19849,-34.19604l7.96936,-7.42304z" fill="none" stroke="#000000" stroke-width="3.5"/><path d="M302.44189,275.92813l-7.96937,7.42304l-26.19849,-34.19604l7.96936,-7.42304z" fill="none" stroke="#000000" stroke-width="3.5"/></g></g><g stroke-linecap="butt"><path d="M279.65942,340.37706c-18.32287,7.13024 -37.20317,2.56297 -42.17029,-10.2013c-4.96712,-12.76424 5.85985,-28.89192 24.18274,-36.02216c18.32287,-7.13024 37.20317,-2.56297 42.17029,10.2013c4.96712,12.76424 -5.85984,28.89193 -24.18274,36.02216z" fill="#746e31" stroke="#000000" stroke-width="0"/><path d="M296.07132,297.62166c0.27108,0.69658 5.57096,1.50347 3.25589,6.20584c-6.82112,13.85498 -28.20958,41.47109 -30.89911,40.8703c-1.19655,-0.26728 -29.18167,-10.22586 -28.85264,-15.61249c0.15769,-2.5815 16.44036,3.60207 24.56501,2.42262c2.90664,-0.42195 4.07267,-6.94239 4.05672,-7.93255c-0.13566,-8.4216 -2.74303,-14.91396 1.49245,-21.27177c2.31822,-3.47985 10.54573,7.4639 17.3077,7.93592c4.50061,0.31417 8.88144,-9.71538 8.50667,-10.9055c-0.35503,-1.12742 -7.3224,-3.45854 -15.23786,-3.6012c-7.9106,-0.14257 -16.7691,1.9029 -17.73652,2.27938c-7.47858,2.91024 -16.11311,10.68976 -20.27306,18.76931c-4.88694,9.49154 -3.21959,17.92321 -4.84246,13.75285c-1.77696,-4.56636 -0.95208,-15.59595 5.55857,-24.07272c4.49689,-5.85486 11.56573,-8.77346 18.21008,-11.35908c16.26412,-6.32908 31.88429,-5.20126 34.8886,2.51905z" fill="#373417" stroke="none" stroke-width="0"/><path d="M279.05896,341.03994c-18.32287,7.13023 -37.20317,2.56297 -42.17029,-10.2013c-4.96712,-12.76424 5.85984,-28.89193 24.18274,-36.02216c18.32287,-7.13023 37.20317,-2.56297 42.17029,10.2013c4.96712,12.76424 -5.85984,28.89193 -24.18274,36.02216z" fill="none" stroke="#000000" stroke-width="3.5"/><path d="M314.75147,322.08618c8.31192,21.35953 -2.54303,46.05764 -22.74452,53.91892c-20.20149,7.86127 -42.85022,-3.26255 -51.16214,-24.62208c-2.38736,-6.1349 -4.38661,-19.53773 0.50356,-20.94159c5.83458,-1.67498 19.26053,8.9124 23.08286,3.08505c4.12793,-6.29328 1.20566,10.62324 8.68201,7.71386c3.25635,-1.26718 -5.53243,-30.51159 -2.2344,-36.38496c2.0427,-3.63783 7.77868,7.31146 12.44789,9.58906c5.03212,2.45463 8.97608,-3.66193 10.08003,-5.60869c6.47775,-11.42303 16.09687,-0.23527 21.34473,13.25044z" fill="#e3d85f" stroke="#000000" stroke-width="0"/><path d="M290.69669,322.62457c-5.10135,4.61348 4.46187,16.56226 0.21169,23.11701c-1.91221,2.94906 -27.37916,7.76971 -28.12149,7.98981c-1.61293,0.47824 8.09553,-11.179 6.46908,-10.54607c-0.05475,0.02131 4.01267,0.15472 3.95912,0.17425c-6.995,2.55228 -16.09321,2.83676 -18.11401,-2.35616c-2.03627,-5.23266 -22.40799,-6.4816 -15.20237,-9.28562c3.8726,-1.50699 21.97465,2.73153 25.1213,3.74748c0.32005,0.10333 7.39133,9.18172 7.44768,5.52375c0.01359,-0.88214 -0.06036,-2.01772 -0.19349,-3.33969c-0.96412,-9.57409 -5.03203,-28.92402 -1.42901,-32.56951c3.375,-3.41475 9.27321,8.30631 14.66088,9.38859c5.70732,1.14652 10.90147,-8.27911 14.11747,-9.9587c3.90675,-2.04035 9.77975,6.72843 10.01407,7.33062c0.89494,2.29978 -9.23042,2.00239 -18.94097,10.78426z" fill="#b8af4d" stroke="none" stroke-width="0"/><path d="M314.75146,322.0862c8.31193,21.35954 -2.54302,46.05763 -22.74452,53.91892c-20.20149,7.86127 -42.85023,-3.26254 -51.16214,-24.62208c-2.38736,-6.1349 -4.3866,-19.53772 0.50356,-20.94159c5.83459,-1.67498 19.26053,8.9124 23.08286,3.08504c4.12793,-6.29328 1.20565,10.62324 8.68201,7.71386c3.25635,-1.26718 -5.53243,-30.51159 -2.2344,-36.38496c2.04271,-3.63784 7.77869,7.31145 12.44789,9.58906c5.03212,2.45463 8.97608,-3.66193 10.08003,-5.60869c6.47775,-11.42301 16.09687,-0.23527 21.34473,13.25044z" fill="none" stroke="#000000" stroke-width="3.5"/><path d="M301.1409,349.78131c-7.25709,2.82406 -15.77045,-1.64584 -19.0151,-9.98378c-3.24465,-8.33793 0.00807,-17.38653 7.26516,-20.21058c2.71482,-1.05645 9.83916,-8.96337 12.56399,-8.15767c4.55904,1.34803 4.42025,12.92267 6.45112,18.14145c3.24465,8.33793 -0.00807,17.38653 -7.26516,20.21058z" fill="#000000" stroke="none" stroke-width="0"/><path d="M268.77278,338.83041c3.82548,9.83055 -0.33326,20.62491 -9.28883,24.10991c-8.95557,3.485 -13.78582,2.62694 -17.61131,-7.20361c-3.82548,-9.83055 -8.56263,-22.52838 0.39294,-26.01337c1.30397,-0.50743 5.77303,2.93785 7.56393,3.31817c4.96173,1.05371 11.60944,-1.06084 14.87913,0.87608c3.65547,2.16543 2.33887,0.47927 4.06414,4.91279z" fill="#000000" stroke="none" stroke-width="0"/></g><g stroke-linecap="butt"><path d="M356.38695,191.87112c19.32157,4.06321 31.56423,23.62273 27.34475,43.68744c-1.78514,8.48877 -0.32037,17.97278 -6.31898,23.16961c-8.18017,7.08678 -16.32938,-7.11174 -27.47656,-9.45593c-1.80305,-0.37916 -9.68288,3.58247 -13.06203,9.41529c-5.59467,9.65701 -7.55089,23.50348 -13.20244,24.35361c-6.74188,1.01413 -0.28004,-20.36407 -3.79985,-30.64049c-1.79314,-5.23526 -14.84188,-1.4665 -15.71303,-2.98928c-4.39752,-7.68697 7.60338,-19.05671 9.60332,-28.56692c4.21948,-20.06472 23.30327,-33.03648 42.62484,-28.97328z" fill="#e24d00" stroke="#000000" stroke-width="0"/><path d="M350.33709,204.43086c11.89018,2.50044 20.25071,10.60651 18.67373,18.10544c-1.57698,7.49893 -12.49428,11.55101 -24.38448,9.05059c-11.89018,-2.50044 -20.25071,-10.60651 -18.67373,-18.10544c1.57698,-7.49893 12.49428,-11.55101 24.38448,-9.05059z" fill="#ad3a00" stroke="none" stroke-width="0"/><path d="M317.27312,244.29447c2.39326,0.9606 6.67526,7.23781 7.30576,13.64067c0.64516,6.55171 -2.35059,13.22529 1.13237,13.60213c6.27963,0.67942 1.8833,-13.36537 9.83767,-19.48407c10.43375,-8.0259 34.07876,-4.36403 38.28195,-5.97808c4.74214,-1.82101 4.95256,-20.16941 -5.01836,-33.96522c-8.95725,-12.39333 -28.18084,-20.50841 -25.12223,-19.86522c1.71732,0.36114 12.82782,-2.19274 17.20382,-0.4821c9.56408,3.73875 15.06305,13.4965 18.38058,17.28438c12.78016,14.592 2.1421,32.79148 1.34844,36.56551c-0.37675,1.79151 4.07582,12.95067 -5.83335,13.72043c-5.49973,0.42722 -17.69023,-9.32912 -26.09207,-9.83312c-1.92067,-0.11521 -5.8515,2.69413 -6.95182,3.4474c-10.59575,7.25358 -11.30642,31.80057 -19.6922,30.03709c-4.24157,-0.89197 1.00792,-22.22615 -1.05498,-28.91683c-2.79088,-9.05166 -12.44728,-4.14227 -15.99676,-5.91486c-6.15449,-3.07349 2.90363,-15.12024 3.44977,-17.71728c0.30874,-1.46812 -1.97281,9.52655 8.82144,13.85916z" fill="#ad3a00" stroke="none" stroke-width="0"/><path d="M357.50947,220.79887c3.31118,-5.50933 4.78568,-13.80583 7.54816,-13.2249c0.57971,0.1219 4.32623,-0.56153 5.01629,2.35336c0.65658,2.77342 -1.76838,9.14958 -0.27176,9.35409c2.84389,0.38862 8.2331,-9.96907 9.08331,-7.02485c2.28756,7.92142 -3.90373,24.65913 -4.89744,29.38439c-1.76166,8.37718 -10.3107,-2.67921 -15.30999,-3.73053c-4.99928,-1.05132 -11.14971,0.78263 -9.38805,-7.59455c0.7882,-3.74815 5.53839,-5.05612 8.21944,-9.51703z" fill="#000000" stroke="#000000" stroke-width="3.5"/><path d="M311.9501,228.08386c0.00881,-0.04191 8.44584,-6.00282 8.51867,-6.08186c0.89689,-0.97322 1.99201,-9.77098 2.13416,-10.26799c2.6743,-9.35052 4.5757,-11.8703 12.43374,-10.2178c8.30963,1.74745 13.29532,11.48857 11.13585,21.75738c-2.15946,10.2688 -10.64634,17.17672 -18.95597,15.42927c-8.30963,-1.74745 -17.42592,-0.35021 -15.26646,-10.61901z" fill="#000000" stroke="#000000" stroke-width="3.5"/><path d="M356.38695,191.87112c19.32157,4.06321 31.56423,23.62273 27.34475,43.68744c-1.78514,8.48877 -0.32037,17.97278 -6.31898,23.16961c-8.18017,7.08678 -16.32937,-7.11175 -27.47656,-9.45593c-1.80306,-0.37916 -9.68288,3.58249 -13.06204,9.4153c-5.59467,9.65701 -7.55089,23.50348 -13.20244,24.35361c-6.74188,1.01413 -0.28006,-20.36408 -3.79985,-30.64049c-1.79314,-5.23528 -14.84188,-1.4665 -15.71303,-2.98928c-4.39751,-7.68697 7.60338,-19.05671 9.60332,-28.56694c4.21948,-20.06472 23.30327,-33.03648 42.62484,-28.97328z" fill="none" stroke="#000000" stroke-width="3.5"/><path d="M309.79482,247.90738c0.65197,-3.10031 -1.60381,-15.42891 4.03997,-18.77029c7.1464,-4.23099 23.97997,-1.39505 33.37908,0.58152c1.22771,0.25819 2.4876,0.48747 3.75952,0.70615c7.41225,1.27447 15.23335,2.18964 19.47987,6.37177c5.00921,4.93323 5.08068,14.35686 4.3394,17.88182c-1.47753,7.02603 -13.53397,-3.35703 -30.35588,-6.89458c-1.82861,-0.38455 -6.91879,9.92457 -10.5363,18.23129c-4.24316,9.74337 -7.06002,17.75782 -9.15366,17.8262c-6.11687,0.19977 -2.76644,-11.24304 -4.91819,-19.9465c-1.02856,-4.16036 0.93229,-10.23206 -1.03241,-13.19176c-2.35233,-3.54365 -9.31638,-1.29768 -9.00137,-2.79564z" fill="#e2c5b6" stroke="#000000" stroke-width="0"/><path d="M321.02286,266.48542c0.11713,-0.55701 0.47225,-8.94074 -2.51436,-14.25852c-2.53955,-4.52177 -8.58987,-5.9956 -7.58792,-7.4165c4.39081,-6.22671 25.61898,0.52502 31.23568,-0.72334c7.30957,-1.62462 23.02908,1.15086 28.94888,4.02004c6.37208,3.08838 2.71137,6.36059 3.74818,6.57863c0.84611,0.17792 -0.67952,2.13583 -5.91862,0.23768c-5.98656,-2.16899 -16.21931,-8.15278 -22.87725,-6.46916c-8.9158,2.25456 -13.01722,16.76694 -13.78075,20.39777c-1.8327,8.71498 -5.83766,15.25006 -8.94532,14.59656c-3.10767,-0.65352 -4.14123,-8.2482 -2.30853,-16.96316z" fill="#ceb4a7" stroke="none" stroke-width="0"/><path d="M309.79484,247.90736c0.65197,-3.10031 -1.60382,-15.42893 4.03997,-18.77029c7.1464,-4.23099 23.97996,-1.39505 33.37908,0.58152c8.38233,1.76275 18.26418,2.17816 23.2394,7.07793c5.00921,4.93322 5.08067,14.35684 4.33938,17.88183c-1.47753,7.02603 -13.53396,-3.35704 -30.35588,-6.89458c-1.82861,-0.38455 -6.91878,9.92456 -10.5363,18.23129c-4.24316,9.74337 -7.06002,17.75782 -9.15367,17.82621c-6.11687,0.19977 -2.76644,-11.24304 -4.91819,-19.9465c-1.02856,-4.16036 0.93229,-10.23206 -1.03241,-13.19176c-2.35235,-3.54365 -9.31638,-1.29768 -9.00138,-2.79563z" fill="none" stroke="#000000" stroke-width="3.5"/><path d="M343.68076,226.83398c6.82334,1.4349 11.87105,4.89833 11.27436,7.73576c-0.5967,2.83743 -6.61184,3.9744 -13.43518,2.53949c-6.82334,-1.4349 -11.87105,-4.89833 -11.27436,-7.73576c0.5967,-2.83743 6.61184,-3.9744 13.43518,-2.53949z" fill="#000000" stroke="#000000" stroke-width="3.5"/></g><g stroke-linecap="butt"><path d="M253.23355,169.01519c2.30197,-0.77669 6.77731,21.27319 9.19109,23.97537c2.0987,2.34943 2.1393,-14.65225 4.12444,-14.55018c4.70754,0.24205 13.91985,28.87591 18.0147,29.16041c3.25624,0.22624 -8.02782,-30.86173 -6.38105,-35.54097c2.3104,-6.56489 17.04108,13.10038 18.80839,18.33827c6.04736,17.92303 -3.73885,37.40855 -21.85812,43.52213c-4.69362,1.58366 -11.81826,-8.70764 -16.44837,-9.10168c-13.24405,-1.12715 -22.82832,0.99903 -27.30919,-12.28121c-6.04736,-17.92303 3.73885,-37.40855 21.85812,-43.52213z" fill="#bae695" stroke="#000000" stroke-width="0"/><path d="M253.69571,171.13703c-0.36987,-1.09624 -13.36263,9.04365 -18.58767,20.87139c-3.37621,7.64258 -0.83772,16.16432 1.46898,22.22877c3.92205,10.31133 36.10859,8.80271 38.09846,8.13131c2.0867,-0.70406 19.82237,-5.4805 21.13311,-15.90883c1.81196,-14.41623 -13.12848,-35.43763 -12.53938,-33.69166c0.56203,1.66573 17.18569,15.73641 16.19133,31.62357c-0.80185,12.81129 -18.88923,28.12461 -21.1085,28.8734c-0.52829,0.17825 -4.42326,1.57031 -7.25984,0.09397c-2.66104,-1.38497 -4.10723,-5.57981 -9.31302,-7.26351c-5.55869,-1.79784 -15.83053,-1.07597 -21.7659,-3.08958c-5.6763,-1.92572 -7.11717,-6.55686 -8.23089,-9.55432c-2.91517,-7.84581 -1.22387,-21.04576 4.3772,-28.80018c6.71216,-9.29265 17.86036,-12.55345 17.53615,-13.5143z" fill="#53931e" stroke="none" stroke-width="0"/><path d="M262.60015,195.5727c8.56903,-2.89127 17.14378,-0.4096 19.15221,5.54294c2.00844,5.95255 10.20662,12.51895 1.63759,15.4102c-8.56903,2.89127 -30.66039,1.01251 -32.66883,-4.94003c-2.00844,-5.95255 3.30999,-13.12185 11.87903,-16.01311z" fill="#53931e" stroke="none" stroke-width="0"/><path d="M253.3934,169.48894c2.30197,-0.77669 6.77731,21.27319 9.19109,23.97538c2.09869,2.34942 2.13931,-14.65225 4.12444,-14.55019c4.70754,0.24205 13.91985,28.87591 18.01469,29.1604c3.25624,0.22624 -8.02782,-30.86173 -6.38104,-35.54097c2.31041,-6.56491 17.04108,13.10038 18.80839,18.33828c6.04736,17.92303 -3.73885,37.40855 -21.85812,43.52213c-4.69362,1.58366 -11.81826,-8.70764 -16.44838,-9.10168c-13.24405,-1.12715 -22.82831,0.99904 -27.30917,-12.28122c-6.04736,-17.92303 3.73885,-37.40855 21.85812,-43.52213z" fill="none" stroke="#000000" stroke-width="3.5"/><path d="M253.84603,179.79328c2.36871,-0.79922 5.5424,6.56586 8.16971,10.9358c5.13599,8.54253 9.56974,18.57143 11.52632,24.37029c2.95747,8.76528 -12.56659,-2.09226 -19.56575,0.26931c-6.99914,2.36157 -11.96508,3.24638 -14.92254,-5.5189c-2.95747,-8.76528 7.79311,-27.69492 14.79225,-30.05648z" fill="#000000" stroke="none" stroke-width="0"/><path d="M273.40819,194.08819c0.46416,-2.72359 7.53053,15.34931 12.6769,13.61288c2.10662,-0.7108 -6.73053,-22.25616 -5.74277,-24.58257c1.83395,-4.31936 12.5997,10.49771 14.40712,15.85451c2.78089,8.24197 0.15676,16.56947 -5.86119,18.59997c-6.01794,2.03051 -13.15084,-3.0049 -15.93173,-11.24687c-0.40277,-1.19371 0.37307,-11.77667 0.45167,-12.23793z" fill="#000000" stroke="none" stroke-width="0"/></g><g data-paper-data="{&quot;index&quot;:null}" stroke-linecap="butt"><g><g><path d="M189.1358,203.05827l25.80802,34.13574l-19.60741,14.64155l-25.80801,-34.13576z" fill="#252525" stroke="#000000" stroke-width="0"/><path d="M189.1358,203.05827l25.80802,34.13574l-19.60741,14.64155l-25.80801,-34.13576z" fill="#252525" stroke="#000000" stroke-width="0"/><path d="M193.60366,249.28099c-1.30964,-1.73224 -16.87222,-21.07957 -20.69091,-27.49364c-6.86824,-11.53628 0.54869,-6.45113 2.32056,-7.77425c1.97609,-1.47562 8.11067,-7.07374 11.80373,-9.31167c1.45945,-0.8844 1.08798,-2.68894 2.12614,-1.31579c0.86931,1.14981 25.67417,32.73396 25.72767,34.75964c0.065,2.46144 -14.54785,-17.26249 -19.5618,-19.85775c-8.25693,-4.27385 -8.7912,6.51416 -10.09972,7.49125c-1.34593,1.00506 -6.2215,-1.33304 -3.39083,4.78008c2.96775,6.40914 13.64108,21.20333 11.76517,18.72211z" fill="#141414" stroke="none" stroke-width="0"/><path d="M189.1358,203.05827l25.80802,34.13574l-19.60741,14.64155l-25.80801,-34.13576z" fill="none" stroke="#000000" stroke-width="3.5"/><path d="M189.1358,203.05827l25.80802,34.13574l-19.60741,14.64155l-25.80801,-34.13576z" fill="none" stroke="#000000" stroke-width="3.5"/></g><g><path d="M205.37653,214.97535l5.22533,6.91145l-28.64618,21.39111l-5.22533,-6.91145z" fill="#252525" stroke="#000000" stroke-width="0"/><path d="M205.37653,214.97535l5.22533,6.91145l-28.64618,21.39111l-5.22533,-6.91145z" fill="#252525" stroke="#000000" stroke-width="0"/><path d="M181.7646,242.64139c-0.26517,-0.35072 -4.16838,-3.70622 -4.11253,-5.62392c0.10045,-3.44917 4.69763,-6.39878 7.28633,-8.33184c4.02799,-3.00784 19.52451,-14.49331 20.2666,-13.51177c0.17601,0.2328 5.94306,6.07144 4.76501,7.36936c-1.43148,1.57713 -4.14943,-2.59609 -7.61947,-1.28842c-5.71441,2.15347 -12.81309,9.55774 -14.72482,10.9853c-1.96638,1.46837 -5.45349,2.86179 -6.32111,5.17536c-0.90962,2.4256 0.83981,5.72832 0.45999,5.22595z" fill="#141414" stroke="none" stroke-width="0"/><path d="M205.37653,214.97535l5.22533,6.91145l-28.64618,21.39111l-5.22533,-6.91145z" fill="none" stroke="#000000" stroke-width="3.5"/><path d="M205.37653,214.97535l5.22533,6.91145l-28.64618,21.39111l-5.22533,-6.91145z" fill="none" stroke="#000000" stroke-width="3.5"/></g><g><path d="M199.10638,202.51054l5.22534,6.91145l-32.36444,24.16769l-5.22535,-6.91146z" fill="#252525" stroke="#000000" stroke-width="0"/><path d="M199.10638,202.51054l5.22534,6.91145l-32.36444,24.16769l-5.22535,-6.91146z" fill="#252525" stroke="#000000" stroke-width="0"/><path d="M171.80028,232.93516c-0.26517,-0.35072 -4.28173,-3.62157 -4.10097,-5.63255c0.32513,-3.61693 5.48871,-6.98949 8.41342,-9.17346c4.55081,-3.39825 22.05339,-16.38171 22.79547,-15.40017c0.17601,0.2328 6.0553,5.98764 4.6981,7.41933c-1.64917,1.73968 -4.33086,-2.46063 -8.17079,-0.87675c-6.32357,2.60835 -14.47558,10.7992 -16.63545,12.41206c-2.22161,1.65896 -6.08543,3.33366 -7.17015,5.80935c-1.13722,2.59557 0.55019,5.94458 0.17038,5.44221z" fill="#141414" stroke="none" stroke-width="0"/><path d="M199.10638,202.51054l5.22534,6.91145l-32.36444,24.16769l-5.22535,-6.91146z" fill="none" stroke="#000000" stroke-width="3.5"/><path d="M199.10638,202.51054l5.22534,6.91145l-32.36444,24.16769l-5.22535,-6.91146z" fill="none" stroke="#000000" stroke-width="3.5"/></g></g><g><path d="M218.3674,226.14955l6.00146,7.93803l-33.42683,24.96097l-6.00147,-7.93802z" fill="#252525" stroke="#000000" stroke-width="0"/><path d="M218.3674,226.14955l6.00146,7.93803l-33.42683,24.96097l-6.00147,-7.93802z" fill="#252525" stroke="#000000" stroke-width="0"/><path d="M190.726,258.31494c-0.30455,-0.40282 -4.80354,-4.24475 -4.72174,-6.46049c0.14714,-3.9852 5.50724,-7.43271 8.52794,-9.68838c4.70018,-3.5098 22.78213,-16.91306 23.63442,-15.78572c0.20214,0.26738 6.84166,6.96139 5.4633,8.47101c-1.67488,1.83438 -4.79143,-2.96255 -8.82917,-1.42159c-6.64933,2.53763 -14.95132,11.15293 -17.18209,12.81872c-2.29454,1.71343 -6.35288,3.35357 -7.38005,6.03371c-1.07692,2.80992 0.9236,6.60973 0.48738,6.03275z" fill="#141414" stroke="none" stroke-width="0"/><path d="M218.3674,226.14955l6.00146,7.93803l-33.42683,24.96097l-6.00147,-7.93802z" fill="none" stroke="#000000" stroke-width="3.5"/><path d="M218.3674,226.14955l6.00146,7.93803l-33.42683,24.96097l-6.00147,-7.93802z" fill="none" stroke="#000000" stroke-width="3.5"/></g></g><g data-paper-data="{&quot;index&quot;:null}"><path d="M162.94207,219.98902c-4.98612,-8.66652 -2.62582,-19.37562 5.27191,-23.91942c7.89771,-4.54382 18.34215,-1.2017 23.32827,7.46483c4.98612,8.66652 2.62581,19.37562 -5.27191,23.91942c-7.89771,4.54382 -18.34214,1.20169 -23.32826,-7.46483z" fill="#c747ff" stroke="#000000" stroke-width="0" stroke-linecap="butt"/><path d="M160.76832,213.37312c-2.81475,-4.89239 0.56926,-12.11818 7.55839,-16.13926c6.98913,-4.02108 14.93674,-3.31472 17.75149,1.57766c1.89457,3.29302 -14.50435,-4.07709 -18.31365,3.83873c-0.90065,1.87157 -1.82708,9.77523 0.57285,15.60335c2.53008,6.14423 8.39052,10.19253 7.21794,10.86716c-6.98913,4.02108 -11.97227,-10.85526 -14.78702,-15.74765z" fill="#991cba" stroke="none" stroke-width="0" stroke-linecap="butt"/><path d="M162.44123,219.19018c-4.98613,-8.66652 -2.62583,-19.37561 5.2719,-23.91941c7.89772,-4.54382 18.34214,-1.2017 23.32826,7.46483c4.98612,8.66652 2.62582,19.37562 -5.27191,23.91942c-7.89772,4.54382 -18.34213,1.20169 -23.32825,-7.46484z" fill="none" stroke="#000000" stroke-width="3.5" stroke-linecap="butt"/><g><path d="M149.38226,200.86597c1.53353,7.42274 15.886,8.04821 12.25358,8.79866c-1.69771,0.35074 -3.70327,9.52201 -9.05158,9.00127c-6.09493,-0.59345 -15.53932,-11.12879 -16.35612,-15.08232c-1.53355,-7.42275 0.16792,-14.04844 3.80033,-14.7989c3.63242,-0.75048 7.82024,4.65848 9.3538,12.08125z" fill="#ff7347" stroke="#000000" stroke-width="0" stroke-linecap="butt"/><path d="M146.6062,194.56755c0.24835,1.20204 1.10364,6.15037 4.54519,9.73112c2.14011,2.22668 6.54382,2.95175 8.57598,4.88056c2.821,2.67751 -0.5258,5.52992 -1.27922,5.68557c-2.05312,0.42417 -21.09995,-15.53742 -21.7362,-18.61708c-0.63626,-3.07966 0.51232,-5.92007 2.56542,-6.34424c2.0531,-0.42416 6.23465,0.77525 6.87091,3.8549z" fill="#ba491c" stroke="none" stroke-width="0" stroke-linecap="butt"/><path d="M149.72499,200.90853c1.53353,7.42274 15.88599,8.04821 12.25358,8.79866c-1.6977,0.35074 -3.70326,9.52201 -9.05157,9.00127c-6.09494,-0.59345 -15.53933,-11.12878 -16.35613,-15.08231c-1.53355,-7.42273 0.16792,-14.04844 3.80033,-14.7989c3.63241,-0.75045 7.82024,4.65851 9.35378,12.08126z" fill="none" stroke="#000000" stroke-width="3.5" stroke-linecap="butt"/><path d="M141.19401,210.12826l8.37321,-7.09688" fill="none" stroke="#000000" stroke-width="3.5" stroke-linecap="round"/></g><g><path d="M162.22611,191.36234c-1.14069,7.49317 12.10055,13.06582 8.43367,12.50761c-1.71381,-0.26089 -6.78061,7.64239 -11.6149,5.29605c-5.50914,-2.6739 -10.70524,-15.83408 -10.0977,-19.82512c1.14067,-7.49319 5.03798,-13.1151 8.70486,-12.55689c3.6669,0.55819 5.71477,7.08512 4.57409,14.57833z" fill="#4757ff" stroke="#000000" stroke-width="0" stroke-linecap="butt"/><path d="M161.81108,184.49181c-0.18471,1.21345 -1.10178,6.15071 0.88144,10.70404c1.23326,2.83148 5.11078,5.04126 6.34629,7.55591c1.71511,3.49078 -2.41418,5.00283 -3.17475,4.88704c-2.07259,-0.31551 -14.38794,-21.89992 -13.91468,-25.0088c0.47326,-3.10888 2.53708,-5.37336 4.60966,-5.05784c2.07258,0.31552 5.577,2.89291 5.10373,6.00179z" fill="#1c66ba" stroke="none" stroke-width="0" stroke-linecap="butt"/><path d="M162.53272,191.52132c-1.14069,7.49317 12.10053,13.0658 8.43365,12.5076c-1.7138,-0.2609 -6.7806,7.6424 -11.61489,5.29605c-5.50915,-2.67391 -10.70525,-15.83408 -10.0977,-19.82513c1.14067,-7.49317 5.03797,-13.11509 8.70486,-12.55689c3.66687,0.5582 5.71476,7.08515 4.57408,14.57833z" fill="none" stroke="#000000" stroke-width="3.5" stroke-linecap="butt"/><path d="M151.33009,197.20308l10.31719,-3.74595" fill="none" stroke="#000000" stroke-width="3.5" stroke-linecap="round"/></g><g><path d="M176.39092,184.67236c-2.15689,7.26613 10.19564,14.60094 6.63987,13.54544c-1.66189,-0.49332 -7.76405,6.64098 -12.23114,3.65422c-5.09068,-3.40372 -8.4341,-17.15186 -7.28529,-21.02198c2.15688,-7.26615 6.78791,-12.30085 10.34368,-11.24536c3.55579,1.05548 4.6898,7.8015 2.53291,15.06766z" fill="#4aff47" stroke="#000000" stroke-width="0" stroke-linecap="butt"/><path d="M176.92144,177.80978c-0.34928,1.17668 -1.93436,5.94165 -0.59391,10.72384c0.83355,2.97379 4.37162,5.69414 5.25083,8.3544c1.2205,3.69289 -3.07706,4.62474 -3.81457,4.40581c-2.0098,-0.5966 -11.25071,-23.66518 -10.35583,-26.67987c0.89487,-3.01468 3.24958,-4.97493 5.25937,-4.37834c2.00978,0.59659 5.12788,3.62996 4.23301,6.64464z" fill="#1cba38" stroke="none" stroke-width="0" stroke-linecap="butt"/><path d="M176.67284,184.87186c-2.15689,7.26613 10.19562,14.60094 6.63985,13.54544c-1.66188,-0.49332 -7.76404,6.64097 -12.23113,3.65421c-5.09069,-3.40372 -8.43411,-17.15186 -7.2853,-21.02198c2.15688,-7.26613 6.78791,-12.30086 10.34368,-11.24536c3.55577,1.05549 4.68979,7.80152 2.5329,15.06766z" fill="none" stroke="#000000" stroke-width="3.5" stroke-linecap="butt"/><path d="M175.53045,186.66806l-10.73322,2.29659" fill="none" stroke="#000000" stroke-width="3.5" stroke-linecap="round"/></g><g data-paper-data="{&quot;index&quot;:null}"><path d="M190.29129,185.71527c-1.94502,-7.32572 -0.61565,-14.03597 2.96928,-14.98778c3.58491,-0.95183 8.06782,4.21521 10.01285,11.54092c1.03597,3.90184 -2.70517,17.54712 -7.89251,20.80161c-4.55192,2.85581 -10.44438,-4.45263 -12.1199,-4.00775c-3.58493,0.95183 8.97534,-6.02129 7.0303,-13.34697z" fill="#ff4747" stroke="#000000" stroke-width="0" stroke-linecap="butt"/><path d="M190.00831,177.91168c-0.80698,-3.03939 2.39787,-5.98096 4.42413,-6.51896c2.02625,-0.53799 4.32306,1.48979 5.13004,4.52918c0.80698,3.03939 -9.09974,25.82998 -11.12601,26.36798c-0.74356,0.19742 -5.01225,-0.85879 -3.68505,-4.5147c0.95606,-2.63362 4.57162,-5.2501 5.49115,-8.19843c1.47872,-4.74125 0.03265,-9.55022 -0.28233,-10.73656z" fill="#ba1c1c" stroke="none" stroke-width="0" stroke-linecap="butt"/><path d="M190.00372,185.90649c-1.94504,-7.3257 -0.61564,-14.03595 2.96926,-14.98778c3.58491,-0.95183 8.06782,4.21524 10.01285,11.54092c1.03597,3.90184 -2.70516,17.54711 -7.89253,20.80161c-4.55192,2.85581 -10.44438,-4.45263 -12.11988,-4.00776c-3.58491,0.95183 8.97533,-6.02128 7.03028,-13.34697z" fill="none" stroke="#000000" stroke-width="3.5" stroke-linecap="butt"/><path d="M191.09349,187.73513l10.66202,2.60721" fill="none" stroke="#000000" stroke-width="3.5" stroke-linecap="round"/></g></g><g data-paper-data="{&quot;index&quot;:null}" stroke-linecap="butt"><g><g><path d="M139.41209,259.08764l39.45785,13.59475l-3.89449,20.13707l-39.45785,-13.59476z" fill="#252525" stroke="#000000" stroke-width="0"/><path d="M139.41209,259.08764l39.45785,13.59475l-3.89449,20.13707l-39.45785,-13.59476z" fill="#252525" stroke="#000000" stroke-width="0"/><path d="M172.15739,291.70946c-2.00231,-0.68987 -25.00076,-7.95893 -31.71542,-10.99398c-12.07692,-5.45882 -3.77459,-5.09958 -3.42267,-6.91932c0.3925,-2.02947 0.95708,-9.09352 2.02475,-12.49606c0.42193,-1.34464 -0.99017,-2.52631 0.59707,-1.97945c1.32908,0.45791 38.4659,12.60466 39.80437,14.10065c1.62639,1.81781 -20.96962,-6.1769 -26.0406,-5.78727c-8.35086,0.64163 -1.77863,8.99073 -2.03854,10.33458c-0.26732,1.3823 -5.0791,1.90047 0.7716,5.17032c6.13401,3.42818 22.88751,9.55867 20.01945,8.5705z" fill="#141414" stroke="none" stroke-width="0"/><path d="M139.41209,259.08764l39.45785,13.59475l-3.89449,20.13707l-39.45785,-13.59476z" fill="none" stroke="#000000" stroke-width="3.5"/><path d="M139.41209,259.08764l39.45785,13.59475l-3.89449,20.13707l-39.45785,-13.59476z" fill="none" stroke="#000000" stroke-width="3.5"/></g><g><path d="M158.0944,260.46159l7.98901,2.75253l-5.68979,29.42002l-7.98902,-2.75253z" fill="#252525" stroke="#000000" stroke-width="0"/><path d="M158.0944,260.46159l7.98901,2.75253l-5.68979,29.42002l-7.98902,-2.75253z" fill="#252525" stroke="#000000" stroke-width="0"/><path d="M159.85477,292.24531c-0.4054,-0.13967 -5.21131,-0.83885 -6.40616,-2.30475c-2.14905,-2.63657 -0.92528,-6.99511 -0.41111,-9.65372c0.80005,-4.13679 3.93351,-19.98712 5.06809,-19.59622c0.2691,0.09271 7.93611,1.78711 7.97096,3.311c0.04235,1.85172 -4.48483,-0.01416 -5.99915,2.5859c-2.49374,4.28176 -2.55156,13.15153 -2.93127,15.11491c-0.39057,2.0195 -1.86135,4.69191 -0.96293,6.83361c0.94194,2.2454 4.25225,3.90935 3.67154,3.70928z" fill="#141414" stroke="none" stroke-width="0"/><path d="M158.0944,260.46159l7.98901,2.75253l-5.68979,29.42002l-7.98902,-2.75253z" fill="none" stroke="#000000" stroke-width="3.5"/><path d="M158.0944,260.46159l7.98901,2.75253l-5.68979,29.42002l-7.98902,-2.75253z" fill="none" stroke="#000000" stroke-width="3.5"/></g><g><path d="M145.82647,254.02668l7.98902,2.75252l-6.42832,33.23873l-7.98902,-2.75253z" fill="#252525" stroke="#000000" stroke-width="0"/><path d="M145.82647,254.02668l7.98902,2.75252l-6.42832,33.23873l-7.98902,-2.75253z" fill="#252525" stroke="#000000" stroke-width="0"/><path d="M146.85311,289.60438c-0.4054,-0.13967 -5.23382,-0.72243 -6.40385,-2.31663c-2.10441,-2.86732 -0.76815,-7.80754 -0.18723,-10.81124c0.90389,-4.67374 4.43581,-22.5843 5.57038,-22.1934c0.2691,0.09271 7.95841,1.67185 7.95769,3.37973c-0.00089,2.07528 -4.52088,0.17215 -6.10866,3.15209c-2.61474,4.90737 -2.88176,14.85893 -3.31075,17.07716c-0.44125,2.28164 -1.98688,5.34091 -1.13157,7.70558c0.89674,2.47917 4.19472,4.20679 3.61403,4.00672z" fill="#141414" stroke="none" stroke-width="0"/><path d="M145.82647,254.02668l7.98902,2.75252l-6.42832,33.23873l-7.98902,-2.75253z" fill="none" stroke="#000000" stroke-width="3.5"/><path d="M145.82647,254.02668l7.98902,2.75252l-6.42832,33.23873l-7.98902,-2.75253z" fill="none" stroke="#000000" stroke-width="3.5"/></g></g><g><path d="M174.09366,262.7933l9.17565,3.16137l-6.63935,34.32979l-9.17564,-3.16136z" fill="#252525" stroke="#000000" stroke-width="0"/><path d="M174.09366,262.7933l9.17565,3.16137l-6.63935,34.32979l-9.17564,-3.16136z" fill="#252525" stroke="#000000" stroke-width="0"/><path d="M176.01175,299.8344c-0.46563,-0.16043 -5.98853,-0.94699 -7.35736,-2.64877c-2.46194,-3.06082 -1.0405,-8.14896 -0.44051,-11.25127c0.93356,-4.82716 4.5888,-23.3231 5.89189,-22.87413c0.30907,0.10649 9.11802,2.03625 9.15303,3.81251c0.04253,2.15837 -5.15609,0.01008 -6.9057,3.05005c-2.88128,5.00619 -2.97723,15.34639 -3.42031,17.63742c-0.45574,2.35652 -2.15558,5.48057 -1.1298,7.97192c1.07545,2.61198 4.8757,4.53207 4.20877,4.30228z" fill="#141414" stroke="none" stroke-width="0"/><path d="M174.09366,262.7933l9.17565,3.16137l-6.63935,34.32979l-9.17564,-3.16136z" fill="none" stroke="#000000" stroke-width="3.5"/><path d="M174.09366,262.7933l9.17565,3.16137l-6.63935,34.32979l-9.17564,-3.16136z" fill="none" stroke="#000000" stroke-width="3.5"/></g></g><g stroke-linecap="butt"><path d="M92.31997,298.58281l-1.28512,-33.72553l34.47499,-1.31367l1.28512,33.72553z" fill="#151515" stroke="#000000" stroke-width="3.5"/><g><path d="M91.19868,309.66216l-9.01335,-18.99368l36.33018,4.60909l2.19966,10.45998z" fill="#ffffff" stroke="#000000" stroke-width="0"/><path d="M105.21353,304.90978c-1.20573,-2.88803 3.91097,-0.78996 7.73336,-2.38577c0.68176,-0.28462 6.20849,-3.63198 1.59534,-5.13768c-3.83553,-1.25189 -10.79588,-1.23149 -16.74941,-2.05924c-1.07359,-0.14927 -7.1924,-1.24073 -8.29113,-1.24658c-3.22554,-0.01714 -1.34848,1.405 -3.20367,0.90821c-1.96124,-0.5252 -2.13051,-2.68677 -1.98452,-2.84865c0.62978,-0.69835 22.064,0.65139 31.84631,3.03195c3.4715,0.8448 2.7426,3.59188 2.89578,3.95882c1.20572,2.88803 -0.91549,6.52289 -4.73788,8.11871c-3.8224,1.59582 -7.89848,0.54828 -9.1042,-2.33975z" fill="#a2a2a2" stroke="none" stroke-width="0"/><path d="M91.75642,309.70022l-9.01335,-18.99368l36.33018,4.60909l2.19966,10.45998z" fill="none" stroke="#000000" stroke-width="3.5"/><path d="M89.58149,307.08637l-5.10475,-12.22718l34.79368,7.41786l1.44475,3.46052z" fill="#696969" stroke="#000000" stroke-width="0"/><path d="M86.46911,297.6847c-0.31935,-0.76491 2.82804,4.52145 7.64601,6.17593c4.41124,1.51483 13.32974,1.18617 15.15672,0.42342c3.82239,-1.59581 10.43626,-1.60763 11.04798,-0.14238c0.61173,1.46525 -7.91541,2.08552 -11.7378,3.68132c-2.06198,0.86086 -10.14263,3.18638 -16.29129,0.02622c-5.24937,-2.69798 -5.53987,-9.4897 -5.82161,-10.16452z" fill="#3f3f3f" stroke="none" stroke-width="0"/><path d="M90.33185,307.58583l-5.10475,-12.22718l34.79368,7.41786l1.44475,3.46052c0,0 -16.66961,3.37806 -22.41088,3.62678c-3.95762,0.17146 -8.72279,-2.27798 -8.72279,-2.27798z" fill="none" stroke="#000000" stroke-width="3.5"/></g><g><path d="M81.69034,261.5766c-0.61248,-16.07363 13.03973,-29.64302 30.49307,-30.30807c17.45334,-0.66506 32.09858,11.82604 32.71107,27.89967c0.44024,11.55316 -10.08861,38.9621 -20.5019,44.06589c-4.07446,1.99699 -5.08269,-13.94484 -9.99116,-13.7578c-6.14443,0.23415 -8.90754,-20.04148 -13.86614,-22.65074c-9.12638,-4.80238 -18.44806,5.16598 -18.84494,-5.24893z" fill="#ff007b" stroke="#000000" stroke-width="0"/><path d="M99.37026,254.0839c1.88564,-5.04382 1.73346,-13.30055 10.78648,-9.91605c4.32281,1.61608 18.6208,3.01266 23.12916,7.27776c4.93324,4.66704 -0.14649,12.25921 -1.13175,14.89461c-1.05824,2.83062 -0.89095,10.14761 -8.26881,10.17032c-5.76862,0.01774 -18.86392,-6.75127 -22.83636,-8.23636c-9.05301,-3.38448 -3.56436,-9.14644 -1.67872,-14.19026z" fill="#b10055" stroke="none" stroke-width="0"/><path d="M120.54268,291.53694c3.20395,-0.3976 8.1782,-1.43866 11.18145,-1.5531c2.35718,-0.08983 8.16418,-10.39634 7.83032,-22.71957c-0.01186,-0.43732 -1.37682,-17.11026 -1.36351,-17.59403c0.14846,-5.39839 -17.5925,-10.1199 -21.95892,-13.06296c-4.86883,-3.2817 -19.13931,-1.93979 -19.07857,-0.34604c0.02794,0.73289 15.02861,-6.51128 20.14235,-5.62062c13.27602,2.3123 28.22605,15.27023 28.56613,24.17133c0.73729,19.29722 -17.20392,48.04796 -19.89779,48.15062c-4.41508,0.16825 -8.20304,-5.1759 -8.46065,-11.93649c-0.08239,-2.16186 1.53301,0.69777 3.03917,0.51086z" fill="#b10055" stroke="none" stroke-width="0"/><path d="M81.96871,262.31654c-0.61248,-16.07363 13.03973,-29.64302 30.49307,-30.30807c17.45334,-0.66506 32.09858,11.82604 32.71107,27.89967c0.44024,11.55316 -10.08861,38.9621 -20.5019,44.06589c-4.07446,1.99699 -5.08269,-13.94484 -9.99116,-13.7578c-6.14443,0.23413 -8.90752,-20.04149 -13.86614,-22.65077c-9.12637,-4.80237 -18.44806,5.16598 -18.84493,-5.24893z" fill="none" stroke="#000000" stroke-width="3.5"/><path d="M131.55645,250.54482c6.76056,-0.25762 12.52881,7.08326 12.88367,16.39631c0.35488,9.31304 -4.83798,17.0716 -11.59856,17.32921c-6.76056,0.25762 -12.52881,-7.08326 -12.88367,-16.39631c-0.35488,-9.31304 4.83798,-17.0716 11.59856,-17.32921z" fill="#000000" stroke="#000000" stroke-width="3.5"/><path d="M81.78796,270.70451c-0.12855,-3.37365 -0.87712,-12.08255 1.78858,-18.41956c3.43935,-8.17609 10.84491,-13.83489 14.61469,-13.97853c6.69161,-0.25499 12.35488,5.80178 12.64929,13.52815c0.29441,7.72638 -4.89152,14.19655 -11.58312,14.45153c-6.69158,0.25497 -17.17501,12.14477 -17.46942,4.41839z" fill="#000000" stroke="#000000" stroke-width="3.5"/></g></g><g stroke-linecap="butt"><g><g><path d="M220.1535,63.0081l12.85902,59.71534l-24.24253,3.87907l-12.85901,-59.71535z" fill="#252525" stroke="#000000" stroke-width="0"/><path d="M220.1535,63.0081l12.85902,59.71534l-24.24253,3.87907l-12.85901,-59.71535z" fill="#252525" stroke="#000000" stroke-width="0"/><path d="M231.92893,118.44553c0.93468,4.34052 -4.95068,-21.04775 -8.51135,-30.45429c-3.39621,-8.97206 -4.41268,-1.89405 -6.07679,-1.62779c-1.61784,0.25889 -10.98685,-10.25828 -12.44488,2.04979c-0.88537,7.47397 6.72734,41.69033 4.70376,39.11101c-1.66532,-2.12269 -12.99788,-58.2646 -13.43102,-60.27602c-0.51727,-2.40212 0.76858,-0.19984 2.40085,-0.69862c4.13036,-1.26214 12.5678,-1.43567 15.01102,-1.82661c2.19073,-0.35053 2.45593,-12.68062 7.93325,5.7183c3.04533,10.22964 9.76261,44.97396 10.41515,48.00425z" fill="#141414" stroke="none" stroke-width="0"/><path d="M220.1535,63.0081l12.85902,59.71534l-24.24253,3.87907l-12.85901,-59.71535z" fill="none" stroke="#000000" stroke-width="3.5"/><path d="M220.1535,63.0081l12.85902,59.71534l-24.24253,3.87907l-12.85901,-59.71535z" fill="none" stroke="#000000" stroke-width="3.5"/></g><g><path d="M231.40402,89.01868l2.60355,12.09053l-35.41802,5.66727l-2.60356,-12.09054z" fill="#252525" stroke="#000000" stroke-width="0"/><path d="M231.40402,89.01868l2.60355,12.09053l-35.41802,5.66727l-2.60356,-12.09054z" fill="#252525" stroke="#000000" stroke-width="0"/><path d="M229.49091,94.48889c-2.46896,-1.53153 -5.76569,0.39611 -8.19692,0.78514c-2.36365,0.37821 -12.90362,-0.36819 -18.19713,2.92359c-3.21445,1.99892 -1.37551,8.87906 -3.57137,8.64263c-1.80712,-0.19458 -3.1807,-11.70895 -3.2684,-12.1162c-0.36974,-1.71705 18.71775,-4.87113 23.69792,-5.668c3.20064,-0.51215 8.47949,-1.9158 11.43202,1.51443c1.64158,1.90718 2.07151,9.09067 2.20363,9.70421c0.18924,0.87883 -1.51125,-4.18009 -4.09975,-5.7858z" fill="#141414" stroke="none" stroke-width="0"/><path d="M231.40402,89.01868l2.60355,12.09053l-35.41802,5.66727l-2.60356,-12.09054z" fill="none" stroke="#000000" stroke-width="3.5"/><path d="M231.40402,89.01868l2.60355,12.09053l-35.41802,5.66727l-2.60356,-12.09054z" fill="none" stroke="#000000" stroke-width="3.5"/></g><g><path d="M229.38051,69.50973l2.60356,12.09055l-40.01529,6.40288l-2.60355,-12.09055z" fill="#252525" stroke="#000000" stroke-width="0"/><path d="M229.38051,69.50973l2.60356,12.09055l-40.01529,6.40288l-2.60355,-12.09055z" fill="#252525" stroke="#000000" stroke-width="0"/><path d="M231.53738,80.7705c0.18924,0.87883 -1.58792,-4.16782 -4.45783,-5.7285c-2.73737,-1.48859 -6.49985,0.51361 -9.24666,0.95313c-2.67046,0.42729 -14.51277,-0.11073 -20.55944,3.30157c-3.67178,2.07209 -1.788,8.94507 -4.253,8.75171c-2.0286,-0.15913 -3.26344,-11.69572 -3.35114,-12.10297c-0.36974,-1.71705 21.198,-5.26799 26.82462,-6.16831c3.61608,-0.57861 9.59522,-2.09433 12.82553,1.29144c1.79603,1.88247 2.08581,9.08838 2.21792,9.70191z" fill="#141414" stroke="none" stroke-width="0"/><path d="M229.38051,69.50973l2.60356,12.09055l-40.01529,6.40288l-2.60355,-12.09055z" fill="none" stroke="#000000" stroke-width="3.5"/><path d="M229.38051,69.50973l2.60356,12.09055l-40.01529,6.40288l-2.60355,-12.09055z" fill="none" stroke="#000000" stroke-width="3.5"/></g></g><g><path d="M238.75099,111.98774l2.99028,13.88638l-41.32878,6.61309l-2.99029,-13.88638z" fill="#252525" stroke="#000000" stroke-width="0"/><path d="M238.75099,111.98774l2.99028,13.88638l-41.32878,6.61309l-2.99029,-13.88638z" fill="#252525" stroke="#000000" stroke-width="0"/><path d="M236.49888,118.27922c-2.87361,-1.75295 -6.72589,0.47158 -9.56285,0.92552c-2.75811,0.44133 -15.04776,-0.3865 -21.23403,3.41129c-3.75656,2.30616 -1.63813,10.20722 -4.1982,9.94177c-2.10685,-0.21847 -3.66483,-13.44624 -3.76556,-13.91398c-0.42467,-1.97209 21.84864,-5.65077 27.65994,-6.58063c3.73479,-0.59761 9.89671,-2.22558 13.32708,1.70785c1.90724,2.18696 2.38123,10.4406 2.53296,11.14528c0.21736,1.00935 -1.74655,-4.79925 -4.75933,-6.63708z" fill="#141414" stroke="none" stroke-width="0"/><path d="M238.75099,111.98774l2.99028,13.88638l-41.32878,6.61309l-2.99029,-13.88638z" fill="none" stroke="#000000" stroke-width="3.5"/><path d="M238.75099,111.98774l2.99028,13.88638l-41.32878,6.61309l-2.99029,-13.88638z" fill="none" stroke="#000000" stroke-width="3.5"/></g></g><g data-paper-data="{&quot;index&quot;:null}" stroke-linecap="butt"><g><g><path d="M375.80348,116.47694l-52.72772,30.83931l-11.24539,-21.82404l52.72773,-30.83932z" fill="#252525" stroke="#000000" stroke-width="0"/><path d="M375.80348,116.47694l-52.72772,30.83931l-11.24539,-21.82404l52.72773,-30.83932z" fill="#252525" stroke="#000000" stroke-width="0"/><path d="M326.80245,144.95269c-3.83262,2.24161 18.45441,-11.26731 26.28153,-17.58375c7.4656,-6.02469 0.42357,-4.78327 -0.34834,-6.28137c-0.75049,-1.45643 6.32064,-13.63792 -5.82838,-11.18511c-7.37737,1.48944 -37.51361,19.39252 -35.69393,16.66551c1.49753,-2.24422 51.30601,-30.51886 53.08207,-31.55764c2.12104,-1.24055 0.42955,0.66793 1.41246,2.06326c2.48721,3.53083 5.2832,11.49341 6.41654,13.6929c1.0162,1.97218 12.81416,-1.62084 -2.95927,9.32084c-8.76989,6.08347 -39.68699,23.3004 -42.36269,24.86536z" fill="#141414" stroke="none" stroke-width="0"/><path d="M375.80348,116.47694l-52.72772,30.83931l-11.24539,-21.82404l52.72773,-30.83932z" fill="none" stroke="#000000" stroke-width="3.5"/><path d="M375.80348,116.47694l-52.72772,30.83931l-11.24539,-21.82404l52.72773,-30.83932z" fill="none" stroke="#000000" stroke-width="3.5"/></g><g><path d="M354.59825,135.27754l-10.67575,6.24402l-16.42936,-31.88464l10.67576,-6.24402z" fill="#252525" stroke="#000000" stroke-width="0"/><path d="M354.59825,135.27754l-10.67575,6.24402l-16.42936,-31.88464l10.67576,-6.24402z" fill="#252525" stroke="#000000" stroke-width="0"/><path d="M348.80422,135.16565c0.68525,-2.82343 -2.17432,-5.35467 -3.30211,-7.54335c-1.09642,-2.12785 -3.67401,-12.375 -8.45237,-16.37804c-2.90164,-2.43082 -8.86524,1.4619 -9.32536,-0.69819c-0.37865,-1.77768 10.13322,-6.6734 10.49281,-6.88371c1.51613,-0.88675 10.46513,16.26539 12.77528,20.74874c1.48471,2.88134 4.4645,7.45925 2.12602,11.33422c-1.30018,2.15445 -7.99139,4.80303 -8.53314,5.1199c-0.77598,0.45386 3.5004,-2.73941 4.21884,-5.69956z" fill="#141414" stroke="none" stroke-width="0"/><path d="M354.59825,135.27754l-10.67575,6.24402l-16.42936,-31.88464l10.67576,-6.24402z" fill="none" stroke="#000000" stroke-width="3.5"/><path d="M354.59825,135.27754l-10.67575,6.24402l-16.42936,-31.88464l10.67576,-6.24402z" fill="none" stroke="#000000" stroke-width="3.5"/></g><g><path d="M372.50339,127.27129l-10.67577,6.24403l-18.5619,-36.02328l10.67577,-6.24401z" fill="#252525" stroke="#000000" stroke-width="0"/><path d="M372.50339,127.27129l-10.67577,6.24403l-18.5619,-36.02328l10.67577,-6.24401z" fill="#252525" stroke="#000000" stroke-width="0"/><path d="M362.47672,132.83216c-0.77598,0.45386 3.46482,-2.80843 4.05274,-6.02191c0.56074,-3.06507 -2.5149,-6.01558 -3.78906,-8.48836c-1.23874,-2.40405 -4.42042,-13.82362 -9.54815,-18.5047c-3.11377,-2.84252 -9.05659,1.09057 -9.64156,-1.3118c-0.48139,-1.97707 10.09485,-6.74788 10.45445,-6.9582c1.51613,-0.88675 11.61565,18.49821 14.22566,23.5635c1.67739,3.25533 4.98205,8.46368 2.77245,12.58871c-1.22853,2.29348 -7.98476,4.81591 -8.5265,5.13276z" fill="#141414" stroke="none" stroke-width="0"/><path d="M372.50339,127.27129l-10.67577,6.24403l-18.5619,-36.02328l10.67577,-6.24401z" fill="none" stroke="#000000" stroke-width="3.5"/><path d="M372.50339,127.27129l-10.67577,6.24403l-18.5619,-36.02328l10.67577,-6.24401z" fill="none" stroke="#000000" stroke-width="3.5"/></g></g><g><path d="M335.0656,149.42078l-12.26146,7.17146l-19.17122,-37.20572l12.26145,-7.17148z" fill="#252525" stroke="#000000" stroke-width="0"/><path d="M335.0656,149.42078l-12.26146,7.17146l-19.17122,-37.20572l12.26145,-7.17148z" fill="#252525" stroke="#000000" stroke-width="0"/><path d="M328.38556,149.24289c0.76944,-3.27696 -2.54545,-6.24345 -3.86143,-8.79739c-1.27942,-2.48296 -4.32524,-14.41794 -9.86276,-19.11144c-3.3626,-2.85009 -10.20908,1.62655 -10.75519,-0.88865c-0.44943,-2.06991 11.63292,-7.67513 12.04592,-7.9167c1.74133,-1.01847 12.18223,18.99704 14.87791,24.22859c1.73245,3.3622 5.20078,8.7092 2.5332,13.19509c-1.48316,2.49412 -9.17742,5.51827 -9.79964,5.88218c-0.89124,0.52127 4.01531,-3.15604 4.82199,-6.5917z" fill="#141414" stroke="none" stroke-width="0"/><path d="M335.0656,149.42078l-12.26146,7.17146l-19.17122,-37.20572l12.26145,-7.17148z" fill="none" stroke="#000000" stroke-width="3.5"/><path d="M335.0656,149.42078l-12.26146,7.17146l-19.17122,-37.20572l12.26145,-7.17148z" fill="none" stroke="#000000" stroke-width="3.5"/></g></g><g stroke-linecap="butt"><g data-paper-data="{&quot;index&quot;:null}"><path d="M325.71348,45.81891c2.50112,9.35203 -9.52332,20.69146 -26.85736,25.32731c-17.33404,4.63585 -33.4136,0.81263 -35.91473,-8.53943c-1.24756,-4.66481 -2.46296,-10.25298 2.37375,-14.82815c4.85995,-4.59716 15.7958,-8.17568 24.48361,-10.49916c9.30885,-2.48958 24.15038,-6.42738 30.82694,-4.49163c5.75588,1.66882 3.92984,8.70131 5.0878,13.03106z" fill="#ffa047" stroke="#000000" stroke-width="0"/><path d="M323.94725,36.68269c0.43485,1.62598 -6.81912,-0.54195 -19.15644,1.81412c-13.23096,2.52674 -31.83807,9.67975 -38.61373,14.55388c-3.03682,2.18456 -0.53662,7.78994 4.50533,11.64936c5.49882,4.20914 13.61508,6.62525 10.62166,7.42582c-17.5723,4.69957 -19.65357,-13.42089 -20.99175,-18.42453c-1.33818,-5.00364 11.82217,-12.86964 29.39447,-17.56921c17.5723,-4.69957 32.90229,-4.45307 34.24047,0.55057z" fill="#ba491c" stroke="none" stroke-width="0"/><path d="M298.07439,70.87675c-17.33404,4.63585 -33.41361,0.81262 -35.91474,-8.53942c-1.24756,-4.66481 -2.46295,-10.25298 2.37375,-14.82815c4.85995,-4.59716 15.7958,-8.17568 24.48361,-10.49916c9.30885,-2.48958 24.15037,-6.42739 30.82694,-4.49164c5.75588,1.66882 3.92985,8.70133 5.0878,13.03107c2.50113,9.35204 -9.52332,20.69146 -26.85736,25.32731z" fill="none" stroke="#000000" stroke-width="3.5"/></g><path d="M341.57602,37.30401c2.50113,9.35204 -1.78113,18.62088 -9.56467,20.70252c-7.78355,2.08165 -16.12092,-3.81216 -18.62205,-13.16421c-1.24756,-4.66481 -2.60648,-10.2146 -0.88592,-13.95638c1.72884,-3.75977 6.54948,-5.70283 10.45059,-6.74615c4.17997,-1.1179 10.84863,-2.86994 14.35837,-0.08725c3.02576,2.39897 3.10574,8.92172 4.26369,13.25146z" fill="#47ff79" stroke="#000000" stroke-width="0"/><path d="M339.46159,28.26093c0.43485,1.62598 -3.38733,-1.45974 -9.05693,-0.8869c-6.08027,0.61435 -14.13614,4.94551 -16.75756,8.7086c-1.17491,1.6866 0.81055,7.42966 3.79071,11.84048c3.2502,4.81052 7.52542,8.25388 6.18128,8.61336c-7.89054,2.11026 -11.39349,-15.62999 -12.73167,-20.63363c-1.33818,-5.00365 3.97355,-10.77059 11.86409,-12.88085c7.89054,-2.11026 15.37189,0.23529 16.71007,5.23893z" fill="#1cba6d" stroke="none" stroke-width="0"/><path d="M341.1592,36.93696c2.50113,9.35204 -1.78112,18.62087 -9.56467,20.70252c-7.78355,2.08165 -16.12093,-3.81218 -18.62205,-13.16421c-1.24756,-4.66481 -2.60648,-10.2146 -0.88592,-13.95638c1.72883,-3.75978 6.54948,-5.70281 10.45058,-6.74613c4.17997,-1.1179 10.84862,-2.86995 14.35837,-0.08726c3.02576,2.39897 3.10573,8.92173 4.26368,13.25146z" fill="none" stroke="#000000" stroke-width="3.5"/><g><path d="M301.94342,48.51536c2.50113,9.35204 -1.78113,18.62088 -9.56467,20.70252c-7.78355,2.08165 -14.8937,0.77657 -17.39483,-8.57548c-0.40938,-1.53072 12.98318,-7.62753 12.66256,-9.25368c-0.65645,-3.32948 -15.93167,-6.77749 -14.7757,-9.29142c1.72884,-3.75977 6.54948,-5.70283 10.45059,-6.74615c4.17997,-1.1179 10.84863,-2.86994 14.35837,-0.08725c3.02576,2.39897 3.10574,8.92172 4.26369,13.25146z" fill="#6447ff" stroke="#000000" stroke-width="0"/><path d="M299.82898,39.47228c0.43485,1.62598 -3.38733,-1.45974 -9.05693,-0.8869c-6.08027,0.61435 3.45493,12.66266 0.83351,16.42576c-1.17491,1.6866 -14.69958,4.59048 -11.71942,9.00131c3.2502,4.81052 5.44448,3.3759 4.10034,3.73538c-3.61321,0.96632 -10.93758,-2.19848 -8.07316,-7.27074c1.72744,-3.0589 14.2099,-7.54417 13.47899,-10.16023c-0.70384,-2.51921 -15.64174,-4.51464 -15.9976,-5.84526c-1.33818,-5.00365 1.83364,-8.128 9.72418,-10.23826c7.89054,-2.11026 15.37189,0.23529 16.71007,5.23893z" fill="#1c29ba" stroke="none" stroke-width="0"/><path d="M301.5266,48.14831c2.50113,9.35204 -1.78112,18.62087 -9.56467,20.70252c-4.05278,1.08388 -18.43867,-4.28021 -18.00245,-8.1918c0.40156,-3.6008 15.53613,-5.52509 14.3373,-10.00766c-1.24756,-4.66481 -17.56337,-5.17935 -15.84282,-8.92113c1.72883,-3.75978 6.54948,-5.70281 10.45058,-6.74613c4.17997,-1.1179 10.84862,-2.86995 14.35837,-0.08726c3.02576,2.39897 3.10573,8.92173 4.26368,13.25146z" fill="none" stroke="#000000" stroke-width="3.5"/></g><g><path d="M324.07615,42.80012c1.50307,5.62017 -6.0993,4.70912 -8.78351,8.72738c-1.78236,2.66818 2.32482,11.14447 -0.78115,11.97514c-7.78355,2.08165 -16.12092,-3.81216 -18.62205,-13.16421c-1.24756,-4.66481 -2.60648,-10.2146 -0.88592,-13.95638c1.72884,-3.75977 6.54948,-5.70283 10.45059,-6.74615c4.17997,-1.1179 10.84863,-2.86994 14.35837,-0.08725c3.02576,2.39897 3.10574,8.92172 4.26369,13.25146z" fill="#ff4747" stroke="#000000" stroke-width="0"/><path d="M321.96171,33.75703c0.43485,1.62598 -3.38733,-1.45974 -9.05693,-0.8869c-6.08027,0.61435 -14.13614,4.94551 -16.75756,8.7086c-1.17491,1.6866 0.81055,7.42966 3.79071,11.84048c3.2502,4.81052 7.52542,8.25388 6.18128,8.61336c-7.89054,2.11026 -11.39349,-15.62999 -12.73167,-20.63363c-1.33818,-5.00365 3.97355,-10.77059 11.86409,-12.88085c7.89054,-2.11026 15.37189,0.23529 16.71007,5.23893z" fill="#ba1c1c" stroke="none" stroke-width="0"/><path d="M323.65932,42.43307c1.62488,6.07562 -4.8366,4.19678 -8.03773,8.25432c-1.72628,2.18811 1.19997,11.71891 -1.52693,12.4482c-7.78355,2.08165 -16.12093,-3.81218 -18.62205,-13.16421c-1.24756,-4.66481 -2.60648,-10.2146 -0.88592,-13.95638c1.72883,-3.75978 6.54948,-5.70281 10.45058,-6.74613c4.17997,-1.1179 10.84862,-2.86995 14.35837,-0.08726c3.02576,2.39897 3.10573,8.92173 4.26368,13.25146z" fill="none" stroke="#000000" stroke-width="3.5"/></g></g><g data-paper-data="{&quot;index&quot;:null}" stroke-linecap="butt"><path d="M374.38921,130.41152c-14.60037,-6.79283 -20.75482,-24.51119 -13.74634,-39.57505c7.00847,-15.06388 24.5259,-21.76888 39.12627,-14.97605c3.55053,1.65188 2.11162,21.28154 5.15756,22.71771c3.2755,1.54441 10.95017,-15.04135 12.2247,-11.28561c2.41403,7.11358 -0.16454,20.68166 -3.63591,28.14295c-2.45564,5.27811 -7.02894,-6.46595 -11.48737,-3.46129c-5.12983,3.45714 -6.43609,16.44485 -12.33123,20.93765c-3.60412,2.74676 -11.7091,-0.82606 -15.30767,-2.5003z" fill="#737373" stroke="#000000" stroke-width="0"/><path d="M358.6946,114.28615c-3.75438,-1.74673 -2.56738,-12.25574 2.65123,-23.47253c5.21861,-11.21679 12.49267,-18.8938 16.24705,-17.14707c1.69682,0.78945 14.93044,-3.37567 22.6489,4.3632c1.83557,1.84043 -0.30556,21.14885 2.58041,21.55964c5.57658,0.79379 16.16567,-18.12834 14.04695,-13.5744c-0.39782,0.85506 4.09837,10.42139 0.8329,13.13845c-3.35162,2.78875 -13.26573,4.584 -15.83283,3.22985c-9.59107,-5.0593 -17.02233,-26.73841 -22.81622,-22.15956c-10.96456,8.66519 -18.28145,35.02871 -20.35839,34.06242z" fill="#484848" stroke="none" stroke-width="0"/><path d="M374.29945,130.16557c-14.60037,-6.79283 -20.75482,-24.51119 -13.74634,-39.57505c0.3581,-0.76969 0.74363,-1.51756 1.15481,-2.24292c7.63616,-13.4709 24.1171,-19.17888 37.97146,-12.73314c5.02546,2.3381 1.24327,18.0649 4.07512,22.438c2.42463,3.74423 11.67708,-15.37197 13.96807,-13.57909c2.80714,2.1968 -1.76612,25.27663 -4.29686,30.71615c-1.56397,3.36157 -8.70617,-6.14316 -11.16759,-3.67121c-4.8265,4.84715 -6.41357,16.86798 -11.59136,21.09468c-4.01458,3.27716 -11.41383,-0.14282 -16.36732,-2.44743z" fill="none" stroke="#000000" stroke-width="5"/><path d="M377.91024,115.64751c-4.44964,-2.0702 -5.25973,-9.76033 -1.80941,-17.17639c3.45032,-7.41606 9.8545,-11.74974 14.30415,-9.67954c4.44964,2.0702 5.25973,9.76033 1.80941,17.17639c-3.45032,7.41606 -9.8545,11.74974 -14.30415,9.67954z" fill="#484848" stroke="none" stroke-width="0"/><path d="M378.30427,117.87265c-4.72774,-2.19958 -7.5464,-6.16201 -6.29566,-8.85034c1.25075,-2.68832 6.09726,-3.08452 10.825,-0.88494c4.72774,2.19958 7.5464,6.16201 6.29566,8.85034c-1.25075,2.68832 -6.09726,3.08452 -10.825,0.88494z" fill="#000000" stroke="#000000" stroke-width="5"/><path d="M385.84647,97.49238c-1.22157,-0.56834 3.06993,-6.8586 2.70148,-12.0588c-0.3725,-5.25732 -5.39408,-9.43091 -4.62435,-11.08534c1.53109,-3.29088 5.21678,-2.04787 7.67335,-0.90495c2.45657,1.14292 3.00089,16.86899 1.4698,20.15987c-1.53109,3.29088 -4.76371,5.03214 -7.22029,3.88922z" fill="#000000" stroke="#000000" stroke-width="5"/></g><g data-paper-data="{&quot;index&quot;:null}" stroke-linecap="butt"><g><path d="M234.6846,52.00251l6.94664,24.94148l-53.17316,15.81913l-6.94663,-24.94147z" fill="#252525" stroke="#000000" stroke-width="0"/><path d="M234.6846,52.00251l6.94664,24.94148l-53.17316,15.81913l-6.94663,-24.94147z" fill="#252525" stroke="#000000" stroke-width="0"/><path d="M234.6846,52.00251l6.94664,24.94148l-53.17316,15.81913l-6.94663,-24.94147z" fill="none" stroke="#000000" stroke-width="3.5"/><path d="M188.30178,90.86344c-0.35251,-1.26567 -6.00154,-15.24577 -5.42032,-20.10428c1.04537,-8.73848 10.10636,-7.60045 14.9115,-9.02999c7.47675,-2.22436 35.56882,-12.9928 36.55535,-9.45071c0.23399,0.84012 8.35629,23.76265 6.06311,25.48946c-2.78649,2.09828 -6.2526,-12.36307 -12.36694,-13.74983c-10.06906,-2.28372 -23.7811,7.04937 -27.32966,8.10509c-3.65,1.08589 -9.81465,-0.10362 -11.84912,4.66197c-2.133,4.99636 -0.05897,15.89121 -0.5639,14.0783z" fill="#141414" stroke="none" stroke-width="0"/><path d="M234.6846,52.00251l6.94664,24.94148l-53.17316,15.81913l-6.94663,-24.94147z" fill="none" stroke="#000000" stroke-width="3.5"/></g><g><path d="M190.1059,56.97255l6.81517,24.97664l-25.85471,8.51304l-6.81516,-24.97663z" fill="#252525" stroke="#000000" stroke-width="0"/><path d="M190.1059,56.97255l6.81517,24.97664l-25.85471,8.51304l-6.81516,-24.97663z" fill="#6c6c6c" stroke="#000000" stroke-width="0"/><path d="M190.1059,56.97255l6.81517,24.97664l-25.85471,8.51304l-6.81516,-24.97663z" fill="none" stroke="#000000" stroke-width="3.5"/><path d="M170.74266,88.6073c-0.34583,-1.26745 -5.08583,-15.49066 -5.39958,-20.10983c-0.5643,-8.30799 4.3294,-6.05546 6.66584,-6.82476c3.63546,-1.19704 16.98799,-8.0235 17.95585,-4.47642c0.22956,0.8413 7.40393,24.01735 6.42186,25.39351c-1.19334,1.67221 -4.85051,-12.73805 -8.23154,-14.85581c-5.56786,-3.48753 -11.56648,3.78268 -13.29192,4.35081c-1.77476,0.58436 -5.15705,-1.34927 -5.61679,2.99518c-0.482,4.5548 1.99165,15.34278 1.49627,13.52733z" fill="#545454" stroke="none" stroke-width="0"/><path d="M190.1059,56.97255l6.81517,24.97664l-25.85471,8.51304l-6.81516,-24.97663z" fill="none" stroke="#000000" stroke-width="3.5"/></g><g><path d="M228.9607,44.11891l6.81517,24.97664l-25.8547,8.51304l-6.81517,-24.97663z" fill="#252525" stroke="#000000" stroke-width="0"/><path d="M228.9607,44.11891l6.81517,24.97664l-25.8547,8.51304l-6.81517,-24.97663z" fill="#6c6c6c" stroke="#000000" stroke-width="0"/><path d="M228.9607,44.11891l6.81517,24.97664l-25.8547,8.51304l-6.81517,-24.97663z" fill="none" stroke="#000000" stroke-width="3.5"/><path d="M209.59746,75.75368c-0.34583,-1.26745 -5.08582,-15.49066 -5.39958,-20.10983c-0.5643,-8.30799 4.32941,-6.05545 6.66584,-6.82476c3.63546,-1.19704 16.98798,-8.02351 17.95585,-4.47643c0.22956,0.8413 7.40393,24.01736 6.42186,25.39351c-1.19335,1.67221 -4.85051,-12.73805 -8.23155,-14.8558c-5.56786,-3.48753 -11.56649,3.78267 -13.29192,4.3508c-1.77476,0.58436 -5.15705,-1.34926 -5.61679,2.99519c-0.482,4.5548 1.99164,15.34277 1.49627,13.52732z" fill="#545454" stroke="none" stroke-width="0"/><path d="M228.9607,44.11891l6.81517,24.97664l-25.8547,8.51304l-6.81517,-24.97663z" fill="none" stroke="#000000" stroke-width="3.5"/></g><g><path d="M207.36981,50.03805l6.81517,24.97664l-25.85471,8.51304l-6.81516,-24.97663z" fill="#252525" stroke="#000000" stroke-width="0"/><path d="M207.36981,50.03805l6.81517,24.97664l-25.85471,8.51304l-6.81516,-24.97663z" fill="#6c6c6c" stroke="#000000" stroke-width="0"/><path d="M207.36981,50.03805l6.81517,24.97664l-25.85471,8.51304l-6.81516,-24.97663z" fill="none" stroke="#000000" stroke-width="3.5"/><path d="M188.00657,81.67282c-0.34583,-1.26745 -5.08582,-15.49066 -5.39958,-20.10983c-0.5643,-8.30799 4.32941,-6.05545 6.66584,-6.82476c3.63546,-1.19704 16.98798,-8.02351 17.95585,-4.47643c0.22956,0.8413 7.40392,24.01736 6.42186,25.39351c-1.19335,1.67221 -4.85051,-12.73805 -8.23154,-14.85581c-5.56786,-3.48753 -11.56649,3.78267 -13.29192,4.3508c-1.77476,0.58436 -5.15705,-1.34926 -5.61679,2.99519c-0.482,4.5548 1.99164,15.34277 1.49627,13.52732z" fill="#545454" stroke="none" stroke-width="0"/><path d="M207.36981,50.03805l6.81517,24.97664l-25.85471,8.51304l-6.81516,-24.97663z" fill="none" stroke="#000000" stroke-width="3.5"/></g></g></g></g></svg>