<svg version="1.1" xmlns="http://www.w3.org/2000/svg" xmlns:xlink="http://www.w3.org/1999/xlink" width="90.594" height="49.69123" viewBox="0,0,90.594,49.69123"><defs><linearGradient x1="240" y1="131.57911" x2="240" y2="180.84564" gradientUnits="userSpaceOnUse" id="color-1"><stop offset="0" stop-color="#272727"/><stop offset="1" stop-color="#1d1d1d"/></linearGradient></defs><g transform="translate(-194.703,-131.15441)"><g data-paper-data="{&quot;isPaintingLayer&quot;:true}" fill-rule="nonzero" stroke="none" stroke-linecap="butt" stroke-linejoin="miter" stroke-miterlimit="10" stroke-dasharray="" stroke-dashoffset="0" style="mix-blend-mode: normal"><g><path d="M195.12048,180.84564l-0.41748,-38.43637l78.90445,-11.25486l11.68955,41.62172c0,0 -26.96604,4.24711 -28.38891,4.24711c-8.19438,0 -61.78762,3.8224 -61.78762,3.8224z" fill="url(#color-1)" stroke-width="NaN"/><path d="M220.35215,166.19015l13.8504,-21.42278l26.39111,21.93695l-23.25541,0.92276z" fill="#722020" stroke-width="0"/><path d="M237.70384,159.81495c2.76684,0 5.00981,1.23044 5.00981,2.74827c0,1.51783 -2.24297,2.74827 -5.00981,2.74827c-2.76684,0 -5.00981,-1.23044 -5.00981,-2.74827c0,-1.51783 2.24297,-2.74827 5.00981,-2.74827z" fill="#ffffff" stroke-width="0"/><path d="M236.45138,149.99969c1.61399,0 2.92239,1.9775 2.92239,4.41686c0,2.43936 -1.3084,4.41686 -2.92239,4.41686c-1.61398,0 -2.92238,-1.9775 -2.92238,-4.41686c0,-2.43936 1.30839,-4.41686 2.92238,-4.41686z" fill="#ffffff" stroke-width="0"/></g></g></g></svg>