<svg version="1.1" xmlns="http://www.w3.org/2000/svg" xmlns:xlink="http://www.w3.org/1999/xlink" width="244.37045" height="295.5166" viewBox="0,0,244.37045,295.5166"><g transform="translate(-125.0388,-23.24463)"><g data-paper-data="{&quot;isPaintingLayer&quot;:true}" fill-rule="nonzero" stroke-linejoin="miter" stroke-miterlimit="10" stroke-dasharray="" stroke-dashoffset="0" style="mix-blend-mode: normal"><g stroke-linecap="butt"><g><path d="M128.56019,183.73198l59.17127,-70.83452l12.31172,10.28453l-59.17127,70.83452z" fill="#7c7c7c" stroke="#000000" stroke-width="0"/><path d="M132.2873,178.09512c2.68437,-3.2135 53.79346,-68.88419 57.51926,-65.77187c2.04658,1.70961 -27.89065,34.88318 -40.17758,54.99667c-10.0813,16.5029 -2.63955,20.5976 -3.84939,22.04591c-2.68438,3.2135 -7.88085,3.29551 -11.60664,0.1832c-3.7258,-3.11232 -4.57003,-8.24041 -1.88566,-11.4539z" fill="#4c4c4c" stroke="none" stroke-width="0"/><path d="M128.56019,183.73198l59.17127,-70.83452l12.31172,10.28453l-59.17127,70.83452z" fill="none" stroke="#000000" stroke-width="5"/></g><g><path d="M177.36474,116.91408c5.54907,-6.64285 8.45379,-15.88837 14.76093,-16.55446c3.86319,-0.40798 11.63609,5.67593 14.34272,7.93691c3.12513,2.61056 12.75657,5.47443 12.66767,10.11856c-0.11381,5.9449 -10.94376,14.04049 -15.96732,20.05424c-8.94793,10.71165 -21.97808,14.56987 -29.10365,8.61754c-1.34618,-1.12453 13.84411,-21.60441 13.1044,-23.19853c-1.64043,-3.53524 -27.94403,20.05727 -30.90976,20.24134c-2.7756,0.17227 17.59646,-23.01547 21.10501,-27.2156z" fill="#5d9000" stroke="#000000" stroke-width="0"/><path d="M183.7729,134.62858c0.54122,-0.6479 7.63725,-14.11001 1.42331,-11.04533c-6.07546,2.99638 -25.45927,22.55188 -25.36143,19.30514c0.23397,-7.7638 26.0954,-38.39352 31.1945,-40.3368c1.64828,-0.62816 -16.30719,17.24234 -17.01814,22.0974c-0.66535,4.54363 12.96461,-7.35988 16.10166,-6.51091c5.29545,1.4331 -6.20541,27.34061 -5.5515,27.88685c3.81894,3.19013 16.81491,-4.36138 13.04123,0.15615c-3.77368,4.51753 -14.20672,6.60145 -18.02567,3.41131c-0.79512,-0.6642 -2.87387,-0.57807 -3.04715,-1.53337c-0.65898,-3.63298 4.25521,-9.85347 7.2432,-13.43042z" fill="#517c00" stroke="none" stroke-width="0"/><path d="M177.36473,116.91408c5.54907,-6.64284 8.45379,-15.88837 14.76093,-16.55446c3.86319,-0.40799 11.63609,5.67593 14.34272,7.93691c3.12513,2.61056 12.75657,5.47443 12.66767,10.11856c-0.11382,5.94489 -10.94376,14.04049 -15.96732,20.05424c-8.94793,10.71165 -21.97808,14.56987 -29.10365,8.61754c-1.34618,-1.12453 13.84411,-21.60441 13.1044,-23.19853c-1.64043,-3.53524 -27.94403,20.05727 -30.90976,20.24134c-2.77559,0.17227 17.59647,-23.01548 21.10503,-27.21561z" fill="none" stroke="#000000" stroke-width="5"/></g></g><g data-paper-data="{&quot;index&quot;:null}" stroke-linecap="butt"><g><path d="M356.75681,178.26053l-75.72354,-52.7704l9.172,-13.16148l75.72354,52.7704z" fill="#7c7c7c" stroke="#000000" stroke-width="0"/><path d="M360.84993,160.64142c3.43529,2.39399 3.97005,7.56354 1.1944,11.54648c-2.77564,3.98294 -7.8106,5.27104 -11.24589,2.87705c-1.54828,-1.07897 4.55395,-6.98735 -9.5142,-20.25636c-17.14604,-16.17206 -54.75668,-40.30008 -53.23202,-42.48793c2.77564,-3.98294 69.36243,45.92677 72.79773,48.32076z" fill="#4c4c4c" stroke="none" stroke-width="0"/><path d="M356.75681,178.26052l-75.72355,-52.77039l9.172,-13.16148l75.72355,52.77039z" fill="none" stroke="#000000" stroke-width="5"/></g><g><path d="M301.26353,113.47621c4.49002,3.12902 30.24517,20.13974 27.52203,20.70383c-2.90966,0.60273 -34.49386,-15.23789 -35.14634,-11.39558c-0.29422,1.73259 19.74927,17.4942 18.74638,18.93329c-5.30842,7.61738 -18.89461,7.32345 -30.34559,-0.65653c-6.42882,-4.48012 -19.0072,-9.44104 -20.68115,-15.14654c-1.30768,-4.45711 7.23091,-9.75418 9.55907,-13.09501c2.0164,-2.89347 7.91471,-10.80811 11.74912,-11.43094c6.26016,-1.01685 11.49513,7.13868 18.59645,12.08748z" fill="#5d9000" stroke="#000000" stroke-width="0"/><path d="M299.74198,132.25258c3.82384,2.66477 10.20156,7.37312 10.52165,11.05149c0.08418,0.96723 -1.944,1.43107 -2.53634,2.28107c-2.84504,4.08252 -13.45877,4.81703 -18.28809,1.45156c-4.82932,-3.36547 9.69562,0.50065 12.54065,-3.58189c0.48715,-0.69904 -17.42495,-22.66778 -12.69314,-25.44366c2.80315,-1.64444 19.08478,6.25355 17.24741,2.04505c-1.96329,-4.49693 -23.988,-17.0136 -22.23252,-16.84124c5.43072,0.5332 38.43988,23.27941 40.70831,30.7081c0.94864,3.1066 -22.89741,-10.65988 -29.54717,-11.95218c-6.80134,-1.32178 3.58664,9.79901 4.27926,10.28169z" fill="#517c00" stroke="none" stroke-width="0"/><path d="M301.26352,113.47621c4.49002,3.12902 30.24517,20.13974 27.52204,20.70382c-2.90966,0.60273 -34.49385,-15.23788 -35.14634,-11.39558c-0.29423,1.73259 19.74927,17.4942 18.74638,18.93329c-5.30842,7.61738 -18.89461,7.32345 -30.34559,-0.65653c-6.42882,-4.48012 -19.0072,-9.44104 -20.68115,-15.14654c-1.30768,-4.45711 7.2309,-9.75417 9.55907,-13.09501c2.0164,-2.89347 7.91471,-10.80812 11.74912,-11.43094c6.26016,-1.01685 11.49512,7.13869 18.59645,12.08748z" fill="none" stroke="#000000" stroke-width="5"/></g></g><g stroke-linecap="butt"><path d="M206.52028,153.6855c-3.61531,-13.99295 10.74914,-29.80499 27.34471,-34.09274c16.59557,-4.28774 33.90635,-4.16399 37.52167,9.82897c0.84596,3.27429 5.79925,26.02393 3.92947,28.91004c-1.9403,2.99495 -11.68362,-6.13795 -13.6343,-3.17584c-4.20297,6.38221 -6.04208,12.86652 -14.72461,15.1098c-5.37336,1.3883 -8.45904,-7.29106 -13.36183,-8.24671c-3.93587,-0.76719 -9.27457,7.98593 -12.82408,7.54564c-5.68476,-0.70516 -12.74599,-10.05405 -14.251,-15.87916z" fill="#3e5f00" stroke="#000000" stroke-width="5"/><g><path d="M243.39662,176.29161l-13.99077,-54.15082l15.24403,-3.93855l13.99077,54.15082z" fill="#707070" stroke="#000000" stroke-width="0"/><path d="M241.22252,171.30668c-0.8962,-3.46872 -11.05599,-41.53038 -6.847,-42.61783c2.81391,-0.72702 3.90893,28.10892 9.91859,40.46134c2.97943,6.12399 13.22546,-0.76809 13.5225,0.38162c0.8962,3.46871 -3.14137,4.99907 -7.35034,6.08653c-4.20898,1.08745 -8.34753,-0.84292 -9.24373,-4.31163z" fill="#474747" stroke="none" stroke-width="0"/><path d="M243.46381,176.34018l-13.99077,-54.15082l15.24403,-3.93855l13.99077,54.15082z" fill="none" stroke="#000000" stroke-width="3.5"/></g><g><path d="M212.68553,145.21293l-1.97891,-7.65929l55.48396,-14.3352l1.97891,7.65929z" fill="#707070" stroke="#000000" stroke-width="0"/><path d="M222.15881,135.70257c10.24186,-2.64615 -10.4444,6.81717 -0.35243,6.17653c5.00332,-0.31761 45.89254,-11.48243 45.93455,-11.31982c0.12676,0.49063 -14.98163,4.46304 -30.3011,8.42109c-15.31947,3.95804 -24.32898,6.3777 -24.45574,5.88706c-0.12676,-0.49063 -6.14474,-5.20681 9.17473,-9.16487z" fill="#474747" stroke="none" stroke-width="0"/><path d="M212.8742,145.17351l-1.97891,-7.65929l55.48396,-14.3352l1.97891,7.65929z" fill="none" stroke="#000000" stroke-width="3.5"/></g><g><path d="M218.84149,165.04368l-1.97891,-7.65929l55.48396,-14.3352l1.97891,7.65929z" fill="#707070" stroke="#000000" stroke-width="0"/><path d="M219.14003,164.69818c-0.12676,-0.49063 -6.14474,-5.20683 9.17473,-9.16488c10.24185,-2.64615 -10.44441,6.81717 -0.35243,6.17653c5.00331,-0.31761 45.89254,-11.48243 45.93455,-11.31982c0.12676,0.49063 -14.98163,4.46304 -30.3011,8.42109c-15.31947,3.95804 -24.32898,6.3777 -24.45574,5.88706z" fill="#474747" stroke="none" stroke-width="0"/><path d="M219.03014,165.00427l-1.97891,-7.65929l55.48396,-14.3352l1.97891,7.65929z" fill="none" stroke="#000000" stroke-width="3.5"/></g><path d="M199.8528,115.17721c4.22806,-0.67263 13.28602,1.26013 16.63996,-1.83657c2.7803,-2.56704 -13.0274,-4.56358 -12.24072,-9.73111c0.69649,-4.57515 17.85091,-12.44934 21.79642,-13.46873c19.64363,-5.07526 38.32753,1.49135 41.73166,14.66691c1.8899,7.31479 9.98218,29.57599 4.30384,43.13512c-2.41454,5.7656 -2.05979,-4.76486 -8.40997,-2.36538c-0.60787,0.22968 4.40355,-18.24328 1.22506,-15.48424c-0.3752,0.32569 -4.15423,1.47015 -9.24193,-0.76748c-5.43677,-2.39114 -12.21601,-8.14571 -13.02685,-6.7874c-1.66572,2.79039 2.49173,9.27681 3.51909,14.68245c1.85671,9.76932 2.04246,19.1162 -0.18986,18.77575c-7.668,-1.1694 -17.85537,-15.38948 -19.34055,-13.95809c-5.22282,5.03371 17.61969,21.37399 15.10844,22.0228c-6.611,1.70806 -20.20544,8.44399 -26.55688,3.76796c-12.5209,-9.21811 -16.26775,-35.90097 -18.52623,-44.64235c-1.01654,-3.93448 -1.40497,-7.27573 3.20855,-8.00966z" fill="#5d9000" stroke="#000000" stroke-width="0"/><path d="M210.81353,164.33862c-0.36447,-1.41069 -16.02885,-42.30834 -13.78638,-46.55698c0.16485,-0.31235 3.20513,-1.52618 6.941,-1.57328c4.81997,-0.06078 10.73182,0.84445 12.42914,-2.08874c0.78522,-1.35698 -6.31443,-5.0494 -9.14713,-8.27266c-2.54382,-2.89453 -0.89045,-5.35299 0.28937,-6.37295c10.27489,-8.88264 26.66839,-13.79172 29.46538,-11.29522c1.23556,1.10283 -27.1506,12.69362 -27.11509,15.38302c0.03591,2.71884 8.67988,5.14087 9.60606,8.23114c1.3109,4.37389 -20.3104,10.26774 -19.34212,14.43503c0.85009,3.65861 11.49235,36.41214 17.07305,38.68707c2.80015,1.14145 12.505,1.40944 14.01904,-3.4437c1.0311,-3.30512 -9.88972,-14.65966 -9.62011,-18.1435c0.3421,-4.42043 5.52602,-3.70222 5.75443,-3.76122c0.30191,-0.078 3.52244,-0.4873 5.10073,0.94909c3.95933,3.60335 8.43578,11.07427 10.26016,7.63807c1.18654,-2.23486 -3.64831,-12.60796 -3.83513,-17.33062c-0.36524,-9.23292 2.913,-13.78016 4.76933,-12.14549c0.10735,0.09453 7.28866,3.29849 13.73943,5.30399c5.56124,1.72895 10.52065,2.2466 10.62951,2.88925c0.03169,0.18707 4.32539,20.78817 4.07585,21.07547c-0.39633,0.45632 -4.50884,-1.42518 -6.26023,-4.72564c-1.35418,-2.55193 0.29957,-8.35987 -0.56204,-11.03114c-0.91574,-2.83909 -4.33725,-2.47587 -5.49941,-2.81211c-6.66754,-1.92911 -15.09758,-8.39074 -16.72085,-6.39529c-1.92342,2.36439 1.68563,6.66189 2.20926,10.64831c1.13009,8.60364 2.10597,17.89308 2.21238,18.20821c0.32468,0.96156 -0.27611,3.26074 -3.00593,1.89159c-5.30875,-2.66261 -15.186,-10.74462 -17.56095,-10.28543c-2.18928,0.42331 9.23685,13.54639 9.42973,14.2929c0.05404,0.20917 3.6452,3.70497 3.66014,3.91884c0.24194,3.46492 -8.10652,4.17879 -14.75135,5.8956c-7.055,1.82278 -13.52772,0.38402 -14.45722,-3.21358z" fill="#517c00" stroke="none" stroke-width="0"/><path d="M196.64425,123.18687c-1.01654,-3.93446 -1.40498,-7.27572 3.20855,-8.00966c4.22807,-0.67262 13.28602,1.26013 16.63996,-1.83657c2.7803,-2.56704 -13.02739,-4.56357 -12.24072,-9.73111c0.69649,-4.57515 17.85092,-12.44935 21.79642,-13.46873c19.64363,-5.07526 38.32753,1.49135 41.73166,14.66691c1.8899,7.31479 9.98218,29.57599 4.30384,43.13512c-2.41454,5.7656 -2.05977,-4.76486 -8.40997,-2.36538c-0.60787,0.22969 4.40356,-18.24328 1.22507,-15.48425c-0.3752,0.32569 -4.15423,1.47015 -9.24193,-0.76748c-5.43677,-2.39114 -12.21601,-8.14571 -13.02685,-6.7874c-1.66572,2.79039 2.49173,9.27681 3.51909,14.68245c1.85671,9.76932 2.04245,19.11619 -0.18987,18.77575c-7.668,-1.1694 -17.85536,-15.38948 -19.34054,-13.95808c-5.22284,5.03371 17.61969,21.37399 15.10844,22.0228c-6.611,1.70806 -20.20544,8.44399 -26.55688,3.76796c-12.5209,-9.21811 -16.26776,-35.90098 -18.52625,-44.64234z" fill="none" stroke="#000000" stroke-width="5"/></g><g><path d="M206.45934,67.03067c-1.53009,-7.46702 -8.41233,-18.08636 0.89618,-17.56443c8.00382,0.44876 3.08244,-8.89266 7.86711,-13.31062c2.61928,-2.41854 11.50789,-1.68472 15.60799,-3.05908c6.48905,-2.17512 8.47993,-5.79821 11.59496,-6.43652c15.60037,-3.19673 17.07907,11.96479 20.52765,28.79427c3.44859,16.82948 -6.40237,33.06392 -22.00273,36.26064c-15.60037,3.19673 -31.04258,-7.85481 -34.49117,-24.68428z" fill="#3e5f00" stroke="none" stroke-width="0" stroke-linecap="butt"/><path d="M206.68807,66.88552c-1.53009,-7.46702 -8.41232,-18.08637 0.89618,-17.56444c8.00382,0.44876 3.08244,-8.89266 7.86711,-13.31062c2.61928,-2.41853 11.50787,-1.68473 15.60798,-3.05907c6.48905,-2.17511 8.47993,-5.79821 11.59496,-6.43652c15.60037,-3.19673 17.07907,11.96479 20.52765,28.79427c3.44859,16.82948 -6.40237,33.06392 -22.00273,36.26064c-15.60037,3.19673 -31.04258,-7.85481 -34.49117,-24.68428z" fill="none" stroke="#000000" stroke-width="3" stroke-linecap="butt"/><path d="M212.41085,74.80287l-4.60041,-22.45048l55.80546,-11.4353l4.60041,22.45048z" fill="#888888" stroke="#000000" stroke-width="0" stroke-linecap="butt"/><path d="M210.97499,50.76451c3.29156,-0.67448 3.18468,5.55515 6.38499,9.58839c1.83468,2.31218 5.17986,4.16746 8.01391,4.92767c7.41635,1.98938 21.29039,-7.48899 21.64501,-5.75837c0.72653,3.54554 -6.88562,8.10028 -17.00222,10.17331c-4.08426,0.83691 -10.37569,3.24342 -13.58424,3.07566c-4.73892,-0.24778 -5.61575,-3.62773 -6.04897,-5.74188c-0.72653,-3.54554 -9.52508,-14.19176 0.59152,-16.26479z" fill="#474747" stroke="none" stroke-width="0" stroke-linecap="butt"/><path d="M212.41085,74.80287l-4.60041,-22.45048l55.80546,-11.4353l4.60041,22.45048z" fill="none" stroke="#000000" stroke-width="5" stroke-linecap="butt"/><g stroke-width="3.5"><path d="M269.44107,91.65055l-7.32551,-35.74925l9.32898,-1.91163l7.32551,35.74925z" fill="#707070" stroke="#000000" stroke-linecap="butt"/><path d="M264.62552,62.69984c1.90803,-0.39098 3.66427,13.3347 7.18277,20.41539c1.95727,3.93886 6.77806,2.63062 6.92209,3.33353c0.40297,1.96652 -1.67757,4.05396 -4.64699,4.66243c-2.96943,0.60848 -5.7033,-0.49243 -6.10626,-2.45894c-0.40297,-1.96652 -6.32103,-25.34393 -3.3516,-25.9524z" fill="#494949" stroke="none" stroke-linecap="butt"/><path d="M269.50293,91.75296l-7.32551,-35.74925l9.32899,-1.91164l7.32551,35.74925z" fill="none" stroke="#000000" stroke-linecap="butt"/><path d="M277.4217,84.04559l-8.23334,1.46452" fill="none" stroke="#000000" stroke-linecap="round"/><path d="M275.50421,76.4987l-8.26078,1.69274" fill="none" stroke="#000000" stroke-linecap="round"/><path d="M266.01415,71.46817l8.10377,-1.73477" fill="none" stroke="#000000" stroke-linecap="round"/><path d="M265.13158,65.71271l8.16214,-1.44992" fill="none" stroke="#000000" stroke-linecap="round"/></g><g stroke-width="3.5"><path d="M261.19079,94.64349l-7.32551,-35.74925l9.32899,-1.91164l7.32551,35.74925z" fill="#707070" stroke="#000000" stroke-linecap="butt"/><path d="M259.72686,91.6452c-0.40297,-1.96652 -6.32103,-25.34393 -3.3516,-25.9524c1.90803,-0.39098 3.66427,13.3347 7.18277,20.41539c1.95727,3.93885 6.77805,2.6306 6.92209,3.33353c0.40297,1.96652 -1.67759,4.05395 -4.647,4.66243c-2.96943,0.60848 -5.7033,-0.49243 -6.10626,-2.45894z" fill="#494949" stroke="none" stroke-linecap="butt"/><path d="M261.25267,94.74591l-7.3255,-35.74926l9.32899,-1.91164l7.3255,35.74926z" fill="none" stroke="#000000" stroke-linecap="butt"/><path d="M260.93807,88.50304l8.23335,-1.46451" fill="none" stroke="#000000" stroke-linecap="round"/><path d="M258.99314,81.18438l8.26078,-1.69274" fill="none" stroke="#000000" stroke-linecap="round"/><path d="M265.86763,72.72633l-8.10377,1.73477" fill="none" stroke="#000000" stroke-linecap="round"/><path d="M265.04344,67.25573l-8.16214,1.44992" fill="none" stroke="#000000" stroke-linecap="round"/></g><g stroke-width="3.5"><path d="M252.19553,102.98368l-7.6719,-37.43968l9.32899,-1.91164l7.6719,37.43968z" fill="#707070" stroke="#000000" stroke-linecap="butt"/><path d="M247.1016,72.67439c1.90803,-0.39098 3.79525,13.97392 7.38631,21.40865c1.99763,4.13579 6.81542,2.81302 6.96628,3.54916c0.42202,2.05949 -1.64307,4.22232 -4.61249,4.83079c-2.96943,0.60848 -5.71873,-0.5678 -6.14076,-2.6273c-0.42202,-2.05949 -6.56874,-26.55283 -3.59932,-27.16129z" fill="#494949" stroke="none" stroke-linecap="butt"/><path d="M252.25848,103.09131l-7.6719,-37.43968l9.32899,-1.91164l7.6719,37.43968z" fill="none" stroke="#000000" stroke-linecap="butt"/><path d="M260.12065,95.10781l-8.23542,1.45441" fill="none" stroke="#000000" stroke-linecap="round"/><path d="M249.86854,88.89335l8.26078,-1.69274" fill="none" stroke="#000000" stroke-linecap="round"/><path d="M256.67748,80.11539l-8.10308,1.73814" fill="none" stroke="#000000" stroke-linecap="round"/><path d="M255.80085,74.38887l-8.16422,1.43982" fill="none" stroke="#000000" stroke-linecap="round"/></g><g stroke-width="3.5"><path d="M243.08811,101.79372l-7.32551,-35.74925l9.32899,-1.91164l7.32551,35.74925z" fill="#707070" stroke="#000000" stroke-linecap="butt"/><path d="M238.27256,72.84301c1.90803,-0.39098 3.66427,13.3347 7.18278,20.4154c1.95727,3.93885 6.77805,2.6306 6.92209,3.33353c0.40297,1.96652 -1.67757,4.05396 -4.64699,4.66243c-2.96943,0.60848 -5.7033,-0.49243 -6.10626,-2.45894c-0.40297,-1.96652 -6.32103,-25.34393 -3.3516,-25.9524z" fill="#494949" stroke="none" stroke-linecap="butt"/><path d="M243.15,101.89612l-7.32551,-35.74925l9.32899,-1.91164l7.32551,35.74925z" fill="none" stroke="#000000" stroke-linecap="butt"/><path d="M251.06874,94.18876l-8.23335,1.46451" fill="none" stroke="#000000" stroke-linecap="round"/><path d="M249.15127,86.64185l-8.26078,1.69274" fill="none" stroke="#000000" stroke-linecap="round"/><path d="M247.76496,79.87657l-8.10377,1.73477" fill="none" stroke="#000000" stroke-linecap="round"/><path d="M246.94078,74.40595l-8.16214,1.44992" fill="none" stroke="#000000" stroke-linecap="round"/></g><g stroke-width="3.5"><path d="M233.69782,107.91422l-7.32551,-35.74925l9.32899,-1.91164l7.32551,35.74925z" fill="#707070" stroke="#000000" stroke-linecap="butt"/><path d="M228.88228,78.96351c1.90803,-0.39098 3.66427,13.3347 7.18278,20.4154c1.95727,3.93885 6.77805,2.6306 6.92209,3.33353c0.40297,1.96652 -1.67757,4.05396 -4.64699,4.66243c-2.96943,0.60848 -5.7033,-0.49243 -6.10626,-2.45894c-0.40297,-1.96652 -6.32103,-25.34393 -3.3516,-25.9524z" fill="#494949" stroke="none" stroke-linecap="butt"/><path d="M233.75969,108.01664l-7.32551,-35.74925l9.32899,-1.91164l7.32551,35.74925z" fill="none" stroke="#000000" stroke-linecap="butt"/><path d="M233.44509,101.77377l8.23335,-1.46451" fill="none" stroke="#000000" stroke-linecap="round"/><path d="M231.50018,94.45511l8.26078,-1.69274" fill="none" stroke="#000000" stroke-linecap="round"/><path d="M230.2709,87.73183l8.10377,-1.73477" fill="none" stroke="#000000" stroke-linecap="round"/><path d="M229.38834,81.97638l8.16214,-1.44992" fill="none" stroke="#000000" stroke-linecap="round"/></g><g stroke-width="3.5"><path d="M223.55165,104.91413l-7.32551,-35.74925l9.32899,-1.91164l7.32551,35.74925z" fill="#707070" stroke="#000000" stroke-linecap="butt"/><path d="M218.7361,75.96343c1.90803,-0.39098 3.66427,13.3347 7.18278,20.4154c1.95727,3.93885 6.77805,2.6306 6.92209,3.33353c0.40297,1.96652 -1.67757,4.05396 -4.64699,4.66243c-2.96943,0.60848 -5.7033,-0.49243 -6.10626,-2.45894c-0.40297,-1.96652 -6.32103,-25.34393 -3.3516,-25.9524z" fill="#494949" stroke="none" stroke-linecap="butt"/><path d="M223.61352,105.01655l-7.32551,-35.74925l9.32899,-1.91164l7.32551,35.74925z" fill="none" stroke="#000000" stroke-linecap="butt"/><path d="M223.29892,98.77368l8.23335,-1.46451" fill="none" stroke="#000000" stroke-linecap="round"/><path d="M229.61478,89.76227l-8.26078,1.69274" fill="none" stroke="#000000" stroke-linecap="round"/><path d="M220.12473,84.73174l8.10377,-1.73477" fill="none" stroke="#000000" stroke-linecap="round"/><path d="M219.24216,78.97629l8.16214,-1.44992" fill="none" stroke="#000000" stroke-linecap="round"/></g><g stroke-width="3.5"><path d="M215.30136,107.90709l-7.32551,-35.74925l9.32899,-1.91164l7.32551,35.74925z" fill="#707070" stroke="#000000" stroke-linecap="butt"/><path d="M210.48582,78.95638c1.90803,-0.39098 3.66427,13.3347 7.18278,20.4154c1.95727,3.93885 6.77805,2.6306 6.92209,3.33353c0.40297,1.96652 -1.67757,4.05396 -4.64699,4.66243c-2.96943,0.60848 -5.7033,-0.49243 -6.10626,-2.45894c-0.40297,-1.96652 -6.32103,-25.34393 -3.3516,-25.9524z" fill="#494949" stroke="none" stroke-linecap="butt"/><path d="M215.36325,108.00948l-7.32551,-35.74925l9.32899,-1.91164l7.32551,35.74925z" fill="none" stroke="#000000" stroke-linecap="butt"/><path d="M223.28199,100.30212l-8.23335,1.46451" fill="none" stroke="#000000" stroke-linecap="round"/><path d="M213.10373,94.44796l8.26078,-1.69274" fill="none" stroke="#000000" stroke-linecap="round"/><path d="M219.97822,85.98992l-8.10377,1.73477" fill="none" stroke="#000000" stroke-linecap="round"/><path d="M219.15403,80.51931l-8.16214,1.44992" fill="none" stroke="#000000" stroke-linecap="round"/></g><path d="M233.82519,65.73759c7.16598,-6.22485 -0.38833,-38.28449 7.94905,-39.99293c19.26553,-3.94777 27.52808,7.2279 32.43482,31.17331c4.90674,23.94541 -11.29192,27.18359 -30.55746,31.13136c-19.26553,3.94777 -34.30245,7.11018 -39.20918,-16.83524c-0.85847,-4.18945 -5.0396,-19.59091 0.91594,-16.04117c2.13377,1.27181 4.59587,12.17415 8.64234,17.11174c5.5672,6.79324 12.86747,7.93748 14.95149,8.36451c5.88055,1.20499 0.84339,-11.41122 4.87299,-14.91158z" fill="#5d9000" stroke="#000000" stroke-width="0" stroke-linecap="butt"/><path d="M232.82152,73.69831c-0.98935,-4.82816 0.77588,-7.25482 3.56429,-12.65085c1.04953,-2.03103 -2.88554,-9.82132 0.69222,-10.55445c13.0832,-2.68093 24.79314,0.53296 26.15488,7.17839c1.36174,6.64545 -8.14037,14.20595 -21.22358,16.88689c-13.0832,2.68093 -7.82607,5.78548 -9.1878,-0.85995z" fill="#517c00" stroke="none" stroke-width="0" stroke-linecap="butt"/><path d="M211.61241,85.86041c-0.63674,-3.10735 36.22936,2.31563 49.44379,-10.08031c3.81687,-3.58047 10.00563,-19.84275 4.78589,-28.35444c-3.63375,-5.92547 -3.13753,-13.02906 -8.72109,-16.28477c-6.87844,-4.01074 -19.40529,-3.52354 -16.99251,-4.01794c8.47365,-1.73637 20.40425,-4.47913 26.34668,6.84172c3.62843,6.91247 6.36643,18.03345 7.02407,27.06025c0.41659,5.71801 -0.80988,11.23055 -0.59563,12.27611c1.10642,5.39942 -11.71716,12.58803 -28.64226,16.05622c-16.9251,3.46818 -31.54252,1.90262 -32.64894,-3.49682z" fill="#517c00" stroke="none" stroke-width="0" stroke-linecap="butt"/><path d="M233.82519,65.73759c7.16597,-6.22485 -0.38834,-38.2845 7.94906,-39.99295c19.26552,-3.94776 27.52808,7.2279 32.43482,31.17331c4.90674,23.94541 -11.29192,27.18359 -30.55745,31.13136c-19.26552,3.94776 -34.30246,7.11018 -39.20919,-16.83523c-0.85847,-4.18945 -5.0396,-19.59091 0.91595,-16.04118c2.13377,1.27181 4.59587,12.17415 8.64234,17.11174c5.5672,6.79324 12.86747,7.93747 14.95149,8.36451c5.88053,1.20499 0.84339,-11.41121 4.873,-14.91157z" fill="none" stroke="#000000" stroke-width="5" stroke-linecap="butt"/><path d="M252.59296,39.50646c6.54161,-1.34046 13.397,5.14862 15.31194,14.49376c1.91495,9.34515 -1.83569,18.00755 -8.3773,19.34801c-6.54161,1.34046 -13.397,-5.14862 -15.31194,-14.49376c-1.91495,-9.34515 1.83569,-18.00755 8.3773,-19.34801z" fill="#69ff84" stroke="#000000" stroke-width="0" stroke-linecap="butt"/><path d="M252.57051,39.78773c6.54161,-1.34046 13.397,5.14862 15.31194,14.49376c1.91495,9.34515 -1.83569,18.00755 -8.3773,19.34801c-6.54161,1.34046 -13.397,-5.14862 -15.31194,-14.49376c-1.91495,-9.34515 1.83569,-18.00755 8.3773,-19.34801z" fill="none" stroke="#000000" stroke-width="5" stroke-linecap="butt"/><path d="M244.34018,54.11387c-1.20119,-5.86195 1.81064,-11.4307 6.72711,-12.43816c4.64505,-0.95183 15.49976,3.02767 17.01574,8.35634c0.08858,0.31137 1.75059,2.26669 1.8169,2.5903c1.20119,5.86195 -14.59541,3.8827 -19.51187,4.89016c-4.91648,1.00746 -4.84669,2.46332 -6.04789,-3.39863z" fill="#5d9000" stroke="#000000" stroke-width="0" stroke-linecap="butt"/><path d="M251.16048,41.37987c3.79305,-0.77725 -7.03159,7.31154 -2.89117,10.9528c2.85591,2.51161 21.52345,0.69064 21.66873,1.39966c0.35591,1.73689 -7.43777,1.38563 -13.84712,2.699c-6.40937,1.31336 -11.8937,0.97002 -12.24961,-0.76686c-0.35591,-1.73689 0.90983,-12.97122 7.31918,-14.28459z" fill="#517c00" stroke="none" stroke-width="0" stroke-linecap="butt"/><path d="M250.62871,41.53952c4.64505,-0.95183 15.49976,3.02767 17.01574,8.35634c0.08858,0.31137 1.75059,2.26669 1.8169,2.5903c1.20119,5.86195 -14.5954,3.88271 -19.51186,4.89017c-4.91648,1.00746 -4.8467,2.46331 -6.04789,-3.39864c-1.20119,-5.86195 1.81064,-11.4307 6.72711,-12.43816z" fill="none" stroke="#000000" stroke-width="5" stroke-linecap="butt"/><path d="M222.21341,53.81305c4.86919,-0.99777 9.83735,3.17538 11.09667,9.32098c1.25932,6.1456 -1.66707,11.93644 -6.53628,12.93421c-4.86919,0.99777 -9.83735,-3.17538 -11.09667,-9.32098c-1.25932,-6.1456 1.66707,-11.93644 6.53628,-12.93421z" fill="#000000" stroke="#000000" stroke-width="5" stroke-linecap="butt"/></g><g stroke-linecap="butt"><path d="M179.546,289.83446l26.9362,-88.27917l15.34376,4.68177l-26.9362,88.27917z" fill="#7c7c7c" stroke="#000000" stroke-width="0"/><path d="M208.17017,200.21872c2.55061,0.77827 -12.11462,42.9879 -15.60438,66.29762c-2.86332,19.12538 5.58535,20.0008 5.03459,21.8058c-1.22199,4.00489 -5.97679,6.10296 -10.62015,4.68616c-4.64337,-1.4168 -7.41692,-5.81196 -6.19493,-9.81685c1.22199,-4.00489 22.74151,-84.38952 27.38487,-82.97272z" fill="#4c4c4c" stroke="none" stroke-width="0"/><path d="M179.546,289.83446l26.9362,-88.27916l15.34376,4.68176l-26.9362,88.27916z" fill="none" stroke="#000000" stroke-width="5"/></g><g stroke-linecap="butt"><path d="M203.33166,173.01443c2.91991,-2.56221 12.77877,-2.07792 16.29399,-1.79292c4.05872,0.32907 13.57768,-2.88898 16.18463,0.95545c3.33713,4.92121 -0.83735,17.78202 -1.47057,25.59228c-1.1279,13.91161 -9.54428,24.58096 -18.79853,23.83067c-1.74834,-0.14175 -1.15799,-25.63335 -2.68194,-26.50857c-3.3796,-1.94094 -11.2509,32.50508 -13.56699,34.36658c-2.1676,1.74216 1.09261,-28.95089 1.53487,-34.40574c0.69946,-8.62729 -2.26255,-17.85464 2.50454,-22.03775z" fill="#5d9000" stroke="#000000" stroke-width="0"/><path d="M211.07149,195.9807c-3.23334,5.95273 -7.78213,33.10892 -9.57551,30.40066c-4.28846,-6.47614 -0.83862,-46.41476 2.20488,-50.94402c0.98381,-1.46409 -3.37056,23.49175 -1.14997,27.86736c2.07816,4.09495 6.34246,-13.49156 9.3945,-14.60817c5.15198,-1.88488 10.70665,25.91108 11.5559,25.97993c4.95979,0.40212 11.2173,-13.26405 10.74162,-7.39698c-0.47568,5.86707 -7.79457,13.58876 -12.75436,13.18665c-1.03264,-0.08372 -2.68079,1.18601 -3.3735,0.50575c-2.63438,-2.58704 -2.20977,-10.50307 -1.83312,-15.1486c0.06822,-0.84144 -1.90339,-15.931 -5.21043,-9.84258z" fill="#517c00" stroke="none" stroke-width="0"/><path d="M203.33166,173.01443c2.9199,-2.5622 12.77877,-2.07791 16.29399,-1.79291c4.05872,0.32906 13.57768,-2.88899 16.18462,0.95544c3.33712,4.92122 -0.83735,17.78203 -1.47057,25.59229c-1.12789,13.91161 -9.54428,24.58096 -18.79853,23.83066c-1.74834,-0.14175 -1.15799,-25.63335 -2.68194,-26.50857c-3.3796,-1.94094 -11.2509,32.50508 -13.56699,34.36658c-2.16759,1.74216 1.09262,-28.95089 1.53488,-34.40574c0.69947,-8.62729 -2.26255,-17.85464 2.50454,-22.03775z" fill="none" stroke="#000000" stroke-width="5"/></g><g stroke-linecap="butt"><g><path d="M148.94566,307.8622l0.22693,-22.01626l47.15865,1.31313l-0.22693,22.01627z" fill="#252525" stroke="#000000" stroke-width="0"/><path d="M148.94566,307.8622l0.22693,-22.01626l47.15865,1.31313l-0.22693,22.01627z" fill="#252525" stroke="#000000" stroke-width="0"/><path d="M148.94566,307.8622l0.22693,-22.01626l47.15865,1.31313l-0.22693,22.01627z" fill="none" stroke="#000000" stroke-width="3.5"/><path d="M149.46157,287.4409c0.0165,-1.60028 0.70634,7.80578 3.5564,11.44177c2.71842,3.46805 7.52149,1.13641 10.75863,1.22655c3.14719,0.08765 16.46254,4.74233 24.23275,0.65393c4.7184,-2.48264 4.38859,-15.12453 7.13877,-14.01296c2.26329,0.91478 0.62694,21.53074 0.61929,22.27233c-0.03223,3.12666 -25.47648,0.45223 -32.10752,0.26759c-4.26161,-0.11867 -11.45538,2.80704 -14.23413,-4.14215c-1.54496,-3.86369 0.02429,-16.58983 0.0358,-17.70705z" fill="#141414" stroke="none" stroke-width="0"/><path d="M148.94566,307.8622l0.22693,-22.01626l47.15865,1.31313l-0.22693,22.01627z" fill="none" stroke="#000000" stroke-width="3.5"/></g><g><path d="M135.27919,313.57358l0.11121,-22.01626l23.11067,1.31313l-0.11121,22.01628z" fill="#252525" stroke="#000000" stroke-width="0"/><path d="M135.27919,313.57358l0.11121,-22.01626l23.11067,1.31313l-0.11121,22.01628z" fill="#6c6c6c" stroke="#000000" stroke-width="0"/><path d="M135.27919,313.57358l0.11121,-22.01626l23.11067,1.31313l-0.11121,22.01628z" fill="none" stroke="#000000" stroke-width="3.5"/><path d="M137.27488,304.59406c1.33219,3.46805 3.68599,1.13641 5.2724,1.22655c1.54232,0.08765 8.06766,4.74233 11.87555,0.65393c2.3123,-2.48263 2.15068,-15.12452 3.49844,-14.01295c1.10915,0.91478 0.30724,21.53074 0.30349,22.27233c-0.0158,3.12666 -12.48506,0.45224 -15.73468,0.26759c-2.08846,-0.11868 -5.61385,2.80703 -6.97561,-4.14216c-0.75713,-3.8637 0.01191,-16.58983 0.01755,-17.70705c0.00809,-1.60028 0.34615,7.80578 1.74286,11.44176z" fill="#545454" stroke="none" stroke-width="0"/><path d="M135.27919,313.57358l0.11121,-22.01626l23.11067,1.31313l-0.11121,22.01628z" fill="none" stroke="#000000" stroke-width="3.5"/></g><g><path d="M170.02342,315.59636l0.11121,-22.01626l23.11067,1.31313l-0.11122,22.01628z" fill="#252525" stroke="#000000" stroke-width="0"/><path d="M170.02342,315.59636l0.11121,-22.01626l23.11067,1.31313l-0.11122,22.01628z" fill="#6c6c6c" stroke="#000000" stroke-width="0"/><path d="M170.02342,315.59636l0.11121,-22.01626l23.11067,1.31313l-0.11122,22.01628z" fill="none" stroke="#000000" stroke-width="3.5"/><path d="M170.27626,295.17509c0.00808,-1.60028 0.34614,7.80578 1.74285,11.44176c1.3322,3.46805 3.68601,1.13642 5.27241,1.22655c1.54231,0.08764 8.06765,4.74232 11.87555,0.65392c2.31231,-2.48263 2.15068,-15.12452 3.49845,-14.01295c1.10915,0.91477 0.30724,21.53074 0.30349,22.27233c-0.0158,3.12666 -12.48505,0.45223 -15.73468,0.26759c-2.08846,-0.11868 -5.61386,2.80703 -6.97562,-4.14216c-0.75712,-3.8637 0.01191,-16.58983 0.01755,-17.70705z" fill="#545454" stroke="none" stroke-width="0"/><path d="M170.02342,315.59636l0.11121,-22.01626l23.11067,1.31313l-0.11122,22.01628z" fill="none" stroke="#000000" stroke-width="3.5"/></g><g><path d="M150.98549,315.47737l0.11121,-22.01626l23.11067,1.31313l-0.11121,22.01628z" fill="#252525" stroke="#000000" stroke-width="0"/><path d="M150.98549,315.47737l0.11121,-22.01626l23.11067,1.31313l-0.11121,22.01628z" fill="#6c6c6c" stroke="#000000" stroke-width="0"/><path d="M150.98549,315.47737l0.11121,-22.01626l23.11067,1.31313l-0.11121,22.01628z" fill="none" stroke="#000000" stroke-width="3.5"/><path d="M151.23832,295.05609c0.00807,-1.60028 0.34614,7.80579 1.74285,11.44177c1.33219,3.46805 3.686,1.13641 5.2724,1.22655c1.54231,0.08764 8.06765,4.74233 11.87555,0.65393c2.31231,-2.48263 2.15068,-15.12453 3.49845,-14.01296c1.10915,0.91477 0.30724,21.53074 0.30349,22.27233c-0.0158,3.12666 -12.48505,0.45223 -15.73468,0.26759c-2.08845,-0.11868 -5.61385,2.80703 -6.97561,-4.14216c-0.75712,-3.8637 0.01191,-16.58983 0.01755,-17.70705z" fill="#545454" stroke="none" stroke-width="0"/><path d="M150.98549,315.47737l0.11121,-22.01626l23.11067,1.31313l-0.11121,22.01628z" fill="none" stroke="#000000" stroke-width="3.5"/></g></g><g stroke-linecap="butt"><path d="M247.8509,286.88293l13.92766,-91.24029l15.85843,2.42076l-13.92765,91.24029z" fill="#7c7c7c" stroke="#000000" stroke-width="0"/><path d="M265.46742,282.77877c-0.63185,4.13923 -5.0345,6.90088 -9.83361,6.16829c-4.79912,-0.73258 -8.17734,-4.68195 -7.54549,-8.82118c0.28477,-1.86553 8.27994,1.00213 13.97679,-17.47825c6.94323,-22.52361 11.99253,-66.92212 14.62869,-66.51971c4.79912,0.73258 -10.59454,82.51163 -11.22638,86.65086z" fill="#4c4c4c" stroke="none" stroke-width="0"/><path d="M247.8509,286.88292l13.92766,-91.24028l15.85843,2.42076l-13.92765,91.24028z" fill="none" stroke="#000000" stroke-width="5"/></g><g stroke-linecap="butt"><path d="M274.90731,196.55147c0.44226,5.45486 3.70247,36.1479 1.53487,34.40574c-2.31608,-1.8615 -10.18738,-36.30753 -13.56699,-34.36658c-1.52395,0.87522 -0.9336,26.36681 -2.68194,26.50857c-9.25425,0.7503 -17.67063,-9.91905 -18.79853,-23.83067c-0.63323,-7.81026 -4.8077,-20.67107 -1.47057,-25.59228c2.60694,-3.84443 12.12591,-0.62637 16.18463,-0.95545c3.51521,-0.285 13.37408,-0.76929 16.29399,1.79292c4.76709,4.18311 1.80508,13.41045 2.50454,22.03775z" fill="#5d9000" stroke="#000000" stroke-width="0"/><path d="M259.45251,207.32258c0.37664,4.64552 0.80126,12.56155 -1.83312,15.1486c-0.69271,0.68027 -2.34086,-0.58947 -3.3735,-0.50575c-4.95979,0.40212 -12.27868,-7.31958 -12.75436,-13.18665c-0.47568,-5.86707 5.78184,7.79909 10.74162,7.39698c0.84925,-0.06885 6.40392,-27.86481 11.5559,-25.97993c3.05205,1.1166 7.31634,18.70311 9.3945,14.60817c2.22059,-4.37561 -2.13378,-29.33145 -1.14997,-27.86736c3.0435,4.52926 6.49334,44.46787 2.20488,50.94402c-1.79338,2.70826 -6.34217,-24.44792 -9.57551,-30.40066c-3.30705,-6.08842 -5.27865,9.00114 -5.21043,9.84258z" fill="#517c00" stroke="none" stroke-width="0"/><path d="M274.90731,196.55147c0.44226,5.45486 3.70247,36.1479 1.53488,34.40574c-2.31608,-1.8615 -10.18738,-36.30753 -13.56699,-34.36658c-1.52395,0.87522 -0.9336,26.36681 -2.68194,26.50857c-9.25425,0.7503 -17.67064,-9.91905 -18.79853,-23.83066c-0.63323,-7.81026 -4.80769,-20.67107 -1.47057,-25.59229c2.60694,-3.84443 12.12591,-0.62637 16.18462,-0.95544c3.51521,-0.285 13.37409,-0.76929 16.29399,1.79291c4.76709,4.18311 1.80507,13.41045 2.50454,22.03775z" fill="none" stroke="#000000" stroke-width="5"/></g><g stroke-linecap="butt"><g><path d="M237.63013,308.67463l-0.22693,-22.01627l47.15865,-1.31313l0.22693,22.01626z" fill="#252525" stroke="#000000" stroke-width="0"/><path d="M237.63013,308.67463l-0.22693,-22.01627l47.15865,-1.31313l0.22693,22.01626z" fill="#252525" stroke="#000000" stroke-width="0"/><path d="M237.63013,308.67463l-0.22693,-22.01627l47.15865,-1.31313l0.22693,22.01626z" fill="none" stroke="#000000" stroke-width="3.5"/><path d="M284.27287,286.9402c0.01151,1.11723 1.58076,13.84337 0.0358,17.70705c-2.77874,6.94919 -9.97251,4.02348 -14.23413,4.14215c-6.63104,0.18465 -32.0753,2.85907 -32.10752,-0.26759c-0.00765,-0.74159 -1.644,-21.35755 0.61929,-22.27233c2.75018,-1.11157 2.42037,11.53032 7.13877,14.01296c7.77022,4.0884 21.08556,-0.56628 24.23275,-0.65393c3.23714,-0.09014 8.0402,2.2415 10.75863,-1.22655c2.85006,-3.63599 3.5399,-13.04205 3.5564,-11.44177z" fill="#141414" stroke="none" stroke-width="0"/><path d="M237.63013,308.67463l-0.22693,-22.01627l47.15865,-1.31313l0.22693,22.01626z" fill="none" stroke="#000000" stroke-width="3.5"/></g><g><path d="M275.34457,314.38602l-0.11121,-22.01628l23.11067,-1.31313l0.11121,22.01626z" fill="#252525" stroke="#000000" stroke-width="0"/><path d="M275.34457,314.38602l-0.11121,-22.01628l23.11067,-1.31313l0.11121,22.01626z" fill="#6c6c6c" stroke="#000000" stroke-width="0"/><path d="M275.34457,314.38602l-0.11121,-22.01628l23.11067,-1.31313l0.11121,22.01626z" fill="none" stroke="#000000" stroke-width="3.5"/><path d="M298.20242,292.65159c0.00564,1.11723 0.77468,13.84336 0.01755,17.70705c-1.36175,6.94919 -4.88715,4.02348 -6.97561,4.14216c-3.24962,0.18465 -15.71888,2.85907 -15.73468,-0.26759c-0.00375,-0.74159 -0.80566,-21.35755 0.30349,-22.27233c1.34776,-1.11157 1.18613,11.53032 3.49844,14.01295c3.80789,4.0884 10.33323,-0.56628 11.87555,-0.65393c1.58641,-0.09014 3.9402,2.2415 5.2724,-1.22655c1.39671,-3.63598 1.73477,-13.04204 1.74286,-11.44176z" fill="#545454" stroke="none" stroke-width="0"/><path d="M275.34457,314.38602l-0.11121,-22.01628l23.11067,-1.31313l0.11121,22.01626z" fill="none" stroke="#000000" stroke-width="3.5"/></g><g><path d="M240.60035,316.4088l-0.11122,-22.01628l23.11067,-1.31313l0.11121,22.01626z" fill="#252525" stroke="#000000" stroke-width="0"/><path d="M240.60035,316.4088l-0.11122,-22.01628l23.11067,-1.31313l0.11121,22.01626z" fill="#6c6c6c" stroke="#000000" stroke-width="0"/><path d="M240.60035,316.4088l-0.11122,-22.01628l23.11067,-1.31313l0.11121,22.01626z" fill="none" stroke="#000000" stroke-width="3.5"/><path d="M263.45818,294.67437c0.00564,1.11723 0.77467,13.84336 0.01755,17.70705c-1.36175,6.94919 -4.88716,4.02348 -6.97562,4.14216c-3.24962,0.18465 -15.71888,2.85907 -15.73468,-0.26759c-0.00375,-0.74159 -0.80566,-21.35756 0.30349,-22.27233c1.34777,-1.11157 1.18613,11.53032 3.49845,14.01295c3.80789,4.0884 10.33323,-0.56628 11.87555,-0.65392c1.5864,-0.09014 3.9402,2.2415 5.27241,-1.22655c1.39671,-3.63598 1.73477,-13.04204 1.74285,-11.44176z" fill="#545454" stroke="none" stroke-width="0"/><path d="M240.60035,316.4088l-0.11122,-22.01628l23.11067,-1.31313l0.11121,22.01626z" fill="none" stroke="#000000" stroke-width="3.5"/></g><g><path d="M259.63828,316.28981l-0.11121,-22.01628l23.11067,-1.31313l0.11121,22.01626z" fill="#252525" stroke="#000000" stroke-width="0"/><path d="M259.63828,316.28981l-0.11121,-22.01628l23.11067,-1.31313l0.11121,22.01626z" fill="#6c6c6c" stroke="#000000" stroke-width="0"/><path d="M259.63828,316.28981l-0.11121,-22.01628l23.11067,-1.31313l0.11121,22.01626z" fill="none" stroke="#000000" stroke-width="3.5"/><path d="M282.49611,294.55538c0.00564,1.11723 0.77467,13.84336 0.01755,17.70705c-1.36175,6.94919 -4.88716,4.02348 -6.97561,4.14216c-3.24962,0.18465 -15.71888,2.85907 -15.73468,-0.26759c-0.00375,-0.74159 -0.80565,-21.35756 0.30349,-22.27233c1.34777,-1.11157 1.18613,11.53033 3.49845,14.01296c3.80789,4.0884 10.33323,-0.56629 11.87555,-0.65393c1.5864,-0.09014 3.9402,2.24151 5.2724,-1.22655c1.39671,-3.63598 1.73478,-13.04205 1.74285,-11.44177z" fill="#545454" stroke="none" stroke-width="0"/><path d="M259.63828,316.28981l-0.11121,-22.01628l23.11067,-1.31313l0.11121,22.01626z" fill="none" stroke="#000000" stroke-width="3.5"/></g></g></g></g></svg>