<svg version="1.1" xmlns="http://www.w3.org/2000/svg" xmlns:xlink="http://www.w3.org/1999/xlink" width="314.5" height="239.06052" viewBox="0,0,314.5,239.06052"><g transform="translate(-101.84611,-97.49604)"><g data-paper-data="{&quot;isPaintingLayer&quot;:true}" fill-rule="nonzero" stroke-linejoin="miter" stroke-miterlimit="10" stroke-dasharray="" stroke-dashoffset="0" style="mix-blend-mode: normal"><g><path d="M309.81983,101.43394l1.5015,94.59459l-126.12613,-3.003l-1.5015,-90.09009z" fill="none" stroke="#ffffff" stroke-width="3.5" stroke-linecap="round"/><path d="M269.0777,194.6862v42l35,-1l1,34l-17,1h-91l1,-35l32,1v-43" fill="none" stroke="#ffffff" stroke-width="3.5" stroke-linecap="round"/><path d="M182.3886,130.33742h-20v34l-42,-2v-59l65,2" fill="none" stroke="#ffffff" stroke-width="3.5" stroke-linecap="round"/><path d="M145.59611,163.79099l-1,59l23,-1v51l-64,-1v-49l27,2v-62" fill="none" stroke="#ffffff" stroke-width="3.5" stroke-linecap="round"/><path d="M182.59611,175.79099h-35" fill="none" stroke="#ffffff" stroke-width="3.5" stroke-linecap="round"/><path d="M147.59611,186.79099h35" fill="none" stroke="#ffffff" stroke-width="3.5" stroke-linecap="round"/><path d="M309.5961,162.60984h16l-1,-12l40,-1l5,72l-47,-1l-1,-29h-11" fill="none" stroke="#ffffff" stroke-width="3.5" stroke-linecap="round"/><path d="M356.59611,102.57937l57,-3v28l-55,2v-28l-47,-1" fill="none" stroke="#ffffff" stroke-width="3.5" stroke-linecap="round"/><path d="M356.59611,115.57937h-23v25l-19,3l-6,-2" fill="none" stroke="#ffffff" stroke-width="3.5" stroke-linecap="round"/><path d="M275.43821,122.24604v-19.66667h34.15789v19.66667z" fill="#434343" stroke="#ffffff" stroke-width="3.5" stroke-linecap="butt"/><text transform="translate(280.5961,119.24604) scale(0.5,0.5)" font-size="40" xml:space="preserve" fill="#ffffff" fill-rule="nonzero" stroke="none" stroke-width="1" stroke-linecap="butt" stroke-linejoin="miter" stroke-miterlimit="10" stroke-dasharray="" stroke-dashoffset="0" font-family="Sans Serif" font-weight="normal" text-anchor="start" style="mix-blend-mode: normal"><tspan x="0" dy="0">1a</tspan></text><path d="M391.92944,114.29654v-13.05051h22.66667v13.05051z" fill="#434343" stroke="#ffffff" stroke-width="3.5" stroke-linecap="butt"/><text transform="translate(395.26069,113.24016) scale(0.34832,0.34832)" font-size="40" xml:space="preserve" fill="#ffffff" fill-rule="nonzero" stroke="none" stroke-width="1" stroke-linecap="butt" stroke-linejoin="miter" stroke-miterlimit="10" stroke-dasharray="" stroke-dashoffset="0" font-family="Sans Serif" font-weight="normal" text-anchor="start" style="mix-blend-mode: normal"><tspan x="0" dy="0">2F</tspan></text><path d="M122.10488,123.24604v-19.66667h34.15789v19.66667z" fill="#434343" stroke="#ffffff" stroke-width="3.5" stroke-linecap="butt"/><text transform="translate(127.36747,118.25501) scale(0.39899,0.39899)" font-size="40" xml:space="preserve" fill="#ffffff" fill-rule="nonzero" stroke="none" stroke-width="1" stroke-linecap="butt" stroke-linejoin="miter" stroke-miterlimit="10" stroke-dasharray="" stroke-dashoffset="0" font-family="Sans Serif" font-weight="normal" text-anchor="start" style="mix-blend-mode: normal"><tspan x="0" dy="0">3H</tspan></text><path d="M118.81249,253.97639v-18.33333h30.33333v18.33333z" fill="#434343" stroke="#ffffff" stroke-width="3.5" stroke-linecap="butt"/><text transform="translate(125.81361,249.70582) scale(0.33388,0.33388)" font-size="40" xml:space="preserve" fill="#ffffff" fill-rule="nonzero" stroke="none" stroke-width="1" stroke-linecap="butt" stroke-linejoin="miter" stroke-miterlimit="10" stroke-dasharray="" stroke-dashoffset="0" font-family="Sans Serif" font-weight="normal" text-anchor="start" style="mix-blend-mode: normal"><tspan x="0" dy="0">5Z</tspan></text><path d="M274.8125,256.47639v-18.33333h30.33333v18.33333z" fill="#434343" stroke="#ffffff" stroke-width="3.5" stroke-linecap="butt"/><text transform="translate(280.00324,251.09236) scale(0.2883,0.2883)" font-size="40" xml:space="preserve" fill="#ffffff" fill-rule="nonzero" stroke="none" stroke-width="1" stroke-linecap="butt" stroke-linejoin="miter" stroke-miterlimit="10" stroke-dasharray="" stroke-dashoffset="0" font-family="Sans Serif" font-weight="normal" text-anchor="start" style="mix-blend-mode: normal"><tspan x="0" dy="0">7G</tspan></text><path d="M139.03577,198.57961v-16.1h21v16.1z" fill="#434343" stroke="#ffffff" stroke-width="3.5" stroke-linecap="butt"/><text transform="translate(141.14302,194.17376) scale(0.28892,0.28892)" font-size="40" xml:space="preserve" fill="#ffffff" fill-rule="nonzero" stroke="none" stroke-width="1" stroke-linecap="butt" stroke-linejoin="miter" stroke-miterlimit="10" stroke-dasharray="" stroke-dashoffset="0" font-family="Sans Serif" font-weight="normal" text-anchor="start" style="mix-blend-mode: normal"><tspan x="0" dy="0">10J</tspan></text><path d="M337.85761,177.21827v-20.5h34v20.5z" fill="#434343" stroke="#ffffff" stroke-width="3.5" stroke-linecap="butt"/><text transform="translate(340.80444,172.99604) scale(0.39583,0.39583)" font-size="40" xml:space="preserve" fill="#ffffff" fill-rule="nonzero" stroke="none" stroke-width="1" stroke-linecap="butt" stroke-linejoin="miter" stroke-miterlimit="10" stroke-dasharray="" stroke-dashoffset="0" font-family="Sans Serif" font-weight="normal" text-anchor="start" style="mix-blend-mode: normal"><tspan x="0" dy="0">M8</tspan></text><path d="M284.29431,315.13517l10.51051,-6.00601l-13.51351,-36.03604l3.003,54.05405l-66.06607,-1.5015v-51.05105l-1.5015,51.05105l22.52252,4.5045l-54.05405,4.5045v-16.51652l12.01201,3.003v-48.04805" fill="none" stroke="#ffffff" stroke-width="3.5" stroke-linecap="round"/><path d="M303.81381,252.07208l13.51351,73.57357h-33.03303" fill="none" stroke="#ffffff" stroke-width="3.5" stroke-linecap="round"/><path d="M176.31249,302.47639v-18.33333h30.33333v18.33333z" fill="#434343" stroke="#ffffff" stroke-width="3.5" stroke-linecap="butt"/><path d="M304.8125,323.97639v-18.33333h30.33333v18.33333z" fill="#434343" stroke="#ffffff" stroke-width="3.5" stroke-linecap="butt"/><text transform="translate(180.81521,297.64459) scale(0.39821,0.39821)" font-size="40" xml:space="preserve" fill="#ffffff" fill-rule="nonzero" stroke="none" stroke-width="1" stroke-linecap="butt" stroke-linejoin="miter" stroke-miterlimit="10" stroke-dasharray="" stroke-dashoffset="0" font-family="Sans Serif" font-weight="normal" text-anchor="start" style="mix-blend-mode: normal"><tspan x="0" dy="0">9B</tspan></text><text transform="translate(230.81521,306.16785) scale(0.5,0.5)" font-size="40" xml:space="preserve" fill="#ffffff" fill-rule="nonzero" stroke="none" stroke-width="1" stroke-linecap="butt" stroke-linejoin="miter" stroke-miterlimit="10" stroke-dasharray="" stroke-dashoffset="0" font-family="Sans Serif" font-weight="normal" text-anchor="start" style="mix-blend-mode: normal"><tspan x="0" dy="0">YOU</tspan></text><text transform="translate(309.31521,320.14459) scale(0.39821,0.39821)" font-size="40" xml:space="preserve" fill="#ffffff" fill-rule="nonzero" stroke="none" stroke-width="1" stroke-linecap="butt" stroke-linejoin="miter" stroke-miterlimit="10" stroke-dasharray="" stroke-dashoffset="0" font-family="Sans Serif" font-weight="normal" text-anchor="start" style="mix-blend-mode: normal"><tspan x="0" dy="0">3S</tspan></text></g></g></g></svg>