<svg version="1.1" xmlns="http://www.w3.org/2000/svg" xmlns:xlink="http://www.w3.org/1999/xlink" width="634.64913" height="562.10595" viewBox="0,0,634.64913,562.10595"><g transform="translate(218.22331,1.34966)"><g data-paper-data="{&quot;isPaintingLayer&quot;:true}" fill-rule="nonzero" stroke-linejoin="miter" stroke-miterlimit="10" stroke-dasharray="" stroke-dashoffset="0" style="mix-blend-mode: normal"><g data-paper-data="{&quot;index&quot;:null}" stroke-width="8"><g stroke="#000000"><path d="M221.49592,231.19828c32.91364,-2.79196 83.13176,59.60081 110.20663,107.66022c12.89478,22.88894 17.57076,43.38702 18.16889,50.43813c1.85398,21.85611 -8.88075,44.56503 -57.46999,48.6867c-48.58924,4.12166 -89.48155,-10.25495 -91.33553,-32.11109c-1.85398,-21.85614 -28.15923,-170.5523 20.43,-174.67396z" data-paper-data="{&quot;index&quot;:null}" fill="#00ff15" stroke-linecap="butt"/><path d="" fill="none" stroke-linecap="round"/></g><path d="M354.22655,391.22119c1.73869,20.49692 -19.23977,39.01206 -46.85668,41.35471c-13.52559,1.14733 -41.85065,7.71249 -64.77902,1.5939c-23.88739,-6.37451 -42.13979,-25.66978 -43.02694,-36.12818c-0.37131,-4.37724 81.08699,14.97795 103.38721,20.18501c17.04667,3.98035 31.21288,-2.25773 30.073,-13.80306c-1.27367,-12.90048 18.8628,-20.12926 8.04477,-40.55123c-26.14172,-49.34956 -94.92581,-118.90497 -82.75261,-119.93758c27.61691,-2.34265 94.1716,126.78949 95.91029,147.28642z" fill="#00ad0e" stroke="none" stroke-linecap="butt"/><g fill="none" stroke="#000000"><path d="M226.00103,229.29755c48.58924,-4.12166 126.52153,136.24221 128.37551,158.09835c1.85398,21.85611 -8.88075,44.56503 -57.46999,48.6867c-48.58924,4.12166 -89.48155,-10.25495 -91.33553,-32.11109c-1.85398,-21.85614 -28.15923,-170.5523 20.43,-174.67396z" data-paper-data="{&quot;index&quot;:null}" stroke-linecap="butt"/><path d="M255.87423,354.30291l64.15926,-32.19865" stroke-linecap="round"/></g></g><g data-paper-data="{&quot;index&quot;:null}" stroke-width="7.5"><path d="M351.70168,429.57181c9.09021,25.26436 -2.20468,52.46058 -25.22787,60.74438c-23.02316,8.28383 -49.05626,-5.48161 -58.14647,-30.74601c-9.09021,-25.26436 2.20471,-52.46058 25.22787,-60.74438c23.02316,-8.28383 49.05623,5.48165 58.14644,30.74601z" fill="#ffffff" stroke="#000000" stroke-linecap="butt"/><path d="M353.61009,448.93525c5.13158,14.26215 -7.22526,31.76671 -27.59976,39.09754c-20.3745,7.33083 -41.05124,1.71186 -46.18282,-12.55026c-3.45402,-9.59969 36.41886,17.62492 50.22573,-1.50305c3.2644,-4.52249 9.44442,-24.97921 5.8512,-41.51918c-3.78811,-17.4371 -17.36969,-30.90555 -13.95139,-32.13546c20.3745,-7.33083 26.52549,34.34829 31.65705,48.61044z" fill="#d0d0d0" stroke="none" stroke-linecap="butt"/><path d="M351.66847,429.64235c9.09021,25.26436 -2.20468,52.46057 -25.22788,60.74438c-23.02319,8.28384 -49.05623,-5.48161 -58.14644,-30.74601c-9.09021,-25.26436 2.20468,-52.46058 25.22788,-60.74438c23.02319,-8.28384 49.05622,5.48162 58.14644,30.74601z" fill="none" stroke="#000000" stroke-linecap="butt"/><g><path d="M276.61199,505.75662c6.89097,19.15204 4.87948,37.4115 -4.49281,40.78367c-9.37229,3.37217 -22.55622,-9.41989 -29.44718,-28.57194c-3.67027,-10.20081 3.19679,-47.57039 16.32612,-57.47238c11.52103,-8.68901 28.9694,9.5078 33.3498,7.93173c9.37229,-3.37217 -22.62692,18.1769 -15.73596,37.32892z" fill="#ffffff" stroke="#000000" stroke-linecap="butt"/><path d="M273.96067,526.34399c2.85902,7.94605 0.88234,15.93273 -4.41501,17.83875c-5.29736,1.90602 -11.90943,-2.9904 -14.76845,-10.93645c-2.85902,-7.94605 18.39806,-71.20383 23.69545,-73.10985c1.94395,-0.69944 6.5099,0.95859 3.8009,11.04563c-5.08966,18.95161 -10.12273,50.1318 -8.31288,55.16193z" fill="#d0d0d0" stroke="none" stroke-linecap="butt"/><path d="M275.84094,506.09264c6.89096,19.15201 4.87948,37.41151 -4.49277,40.78367c-9.37226,3.37216 -22.55622,-9.41993 -29.44719,-28.57194c-3.67027,-10.20081 3.19679,-47.57039 16.32612,-57.47237c11.52103,-8.68901 28.96941,9.5078 33.3498,7.93173c9.37226,-3.37216 -22.62693,18.1769 -15.73596,37.32891z" fill="none" stroke="#000000" stroke-linecap="butt"/><path d="M272.50422,501.45104l-29.12675,-4.52027" fill="none" stroke="#000000" stroke-linecap="round"/></g><g data-paper-data="{&quot;index&quot;:null}"><path d="M300.749,514.67968c8.71222,-18.39518 -21.05116,-42.94009 -12.04925,-38.67665c4.20732,1.99263 23.33491,-14.43002 33.96091,-4.66676c12.10936,11.12617 15.32742,48.98496 10.6871,58.78266c-8.71219,18.39518 -23.07231,29.85124 -32.07422,25.58779c-9.00192,-4.26345 -9.23673,-22.63186 -0.52451,-41.02704z" fill="#ffffff" stroke="#000000" stroke-linecap="butt"/><path d="M301.39539,535.42704c2.28819,-4.83132 0.29648,-36.35227 -2.9351,-55.70751c-1.72,-10.30187 2.98496,-11.51024 4.85211,-10.62594c5.08803,2.40974 20.12303,67.42791 16.50837,75.05994c-3.61465,7.63204 -10.66954,11.86553 -15.75757,9.45576c-5.08803,-2.40974 -6.28246,-10.55025 -2.66781,-18.18229z" fill="#d0d0d0" stroke="none" stroke-linecap="butt"/><path d="M301.4839,515.08876c8.71222,-18.39518 -21.05116,-42.94009 -12.04924,-38.67665c4.20732,1.99263 23.33491,-14.43002 33.96091,-4.66676c12.10936,11.12617 15.32742,48.98496 10.6871,58.78265c-8.71219,18.39518 -23.07231,29.85124 -32.07422,25.58779c-9.00192,-4.26345 -9.23674,-22.63186 -0.52451,-41.02704z" fill="none" stroke="#000000" stroke-linecap="butt"/><path d="M334.68177,509.1118l-29.42752,1.68009" fill="none" stroke="#000000" stroke-linecap="round"/></g><g data-paper-data="{&quot;index&quot;:null}"><path d="M319.75206,467.43377c4.44584,1.38065 21.07161,-17.57072 32.96598,-9.40024c13.55478,9.31105 22.06938,46.34004 18.85425,56.69332c-6.03641,19.43828 -18.64116,32.80146 -28.15353,29.84747c-9.51237,-2.95399 -12.33018,-21.10652 -6.29376,-40.5448c6.03641,-19.43828 -26.88532,-39.54974 -17.37294,-36.59575z" fill="#ffffff" stroke="#000000" stroke-linecap="butt"/><path d="M329.93846,469.73948c-3.15283,-9.95725 1.33524,-11.8158 3.30824,-11.20308c5.37654,1.66965 29.41303,63.92443 26.90857,71.98925c-2.50449,8.06483 -8.89328,13.24916 -14.26985,11.57951c-5.37654,-1.66965 -7.70482,-9.56101 -5.20036,-17.62583c1.5854,-5.1053 -4.82298,-36.03211 -10.7466,-54.73984z" fill="#d0d0d0" stroke="none" stroke-linecap="butt"/><path d="M337.91014,504.3311c6.03641,-19.43831 -26.88532,-39.54974 -17.37295,-36.59576c4.44588,1.38064 21.07164,-17.57072 32.96602,-9.40024c13.55481,9.31104 22.06938,46.34004 18.85425,56.69332c-6.03641,19.43828 -18.64116,32.80145 -28.15353,29.84747c-9.51237,-2.95399 -12.33018,-21.10652 -6.29376,-40.5448z" fill="none" stroke="#000000" stroke-linecap="butt"/><path d="M369.93629,493.74114l-28.8981,5.8052" fill="none" stroke="#000000" stroke-linecap="round"/></g><g data-paper-data="{&quot;index&quot;:null}"><path d="M375.76695,483.81266c0.07658,-20.35387 -37.29273,-29.93758 -27.3323,-29.90009c4.65528,0.01753 14.99921,-22.97316 28.76541,-18.64596c15.68794,4.93129 34.6775,37.8409 34.63669,48.6818c-0.07658,20.35387 -8.21313,36.82357 -18.17356,36.78608c-9.96043,-0.03748 -17.97282,-16.56795 -17.89624,-36.92179z" fill="#ffffff" stroke="#000000" stroke-linecap="butt"/><path d="M385.16205,502.32217c0.02013,-5.34578 -15.16784,-33.03799 -26.31244,-49.18938c-5.93172,-8.59662 -2.18509,-11.68851 -0.11915,-11.68073c5.62979,0.02117 46.85066,52.5021 46.81887,60.94679c-0.03176,8.44469 -4.62138,15.27327 -10.25116,15.2521c-5.62979,-0.02117 -10.16788,-6.88412 -10.13609,-15.32881z" fill="#d0d0d0" stroke="none" stroke-linecap="butt"/><path d="M376.60596,483.87099c0.07662,-20.35384 -37.2927,-29.93755 -27.33227,-29.90007c4.65528,0.0175 14.99921,-22.97319 28.76541,-18.64599c15.68793,4.93125 34.67747,37.8409 34.63666,48.6818c-0.07658,20.35384 -8.21314,36.82353 -18.17357,36.78605c-9.96039,-0.03749 -17.97278,-16.56795 -17.8962,-36.92179z" fill="none" stroke="#000000" stroke-linecap="butt"/><path d="M378.19493,478.37977l25.92925,-14.01689" fill="none" stroke="#000000" stroke-linecap="round"/></g></g><g stroke-width="8"><g stroke="#000000"><path d="M38.42202,368.85517c-15.17296,15.84012 -56.02028,1.33619 -91.23507,-32.39541c-35.21479,-33.7316 -29.30054,-58.14371 -14.12761,-73.98381c4.89502,-5.11026 21.41043,-18.12092 45.82234,-27.82852c51.25715,-20.38287 129.52505,-37.3785 153.37904,-14.52921c35.21479,33.7316 -78.66573,132.89683 -93.83868,148.73694z" data-paper-data="{&quot;index&quot;:null}" fill="#00ff15" stroke-linecap="butt"/><path d="" fill="none" stroke-linecap="round"/></g><path d="M-71.53817,261.23732c14.22936,-14.85503 147.1348,-73.51322 167.15,-54.34102c8.82246,8.45087 -88.39014,19.35575 -139.73176,41.32861c-21.24631,9.09289 -10.12073,27.36729 -19.21605,36.60416c-8.13988,8.26657 -1.03697,22.01953 14.72646,29.63176c20.62153,9.9582 96.15824,46.07304 93.11948,49.24543c-7.26042,7.57967 -33.58312,11.1255 -56.17294,1.07853c-21.6829,-9.64361 -39.5964,-32.54596 -49.399,-41.93568c-20.0152,-19.1722 -24.70555,-46.75673 -10.4762,-61.61176z" fill="#00ad0e" stroke="none" stroke-linecap="butt"/><g fill="none" stroke="#000000"><path d="M36.11096,364.54612c-15.17296,15.84012 -56.02028,1.33619 -91.23507,-32.39541c-35.21479,-33.7316 -29.30054,-58.14371 -14.12761,-73.98381c15.17296,-15.84012 163.98658,-76.08933 199.20137,-42.35773c35.21479,33.7316 -78.66573,132.89683 -93.83868,148.73694z" data-paper-data="{&quot;index&quot;:null}" stroke-linecap="butt"/><path d="M28.17622,294.30068l-29.69024,-65.35789" stroke-linecap="round"/></g></g><g stroke-width="7.5"><path d="M-119.9041,286.91499c22.94411,-13.94588 51.84651,-8.30138 64.55524,12.60739c12.70875,20.90874 4.41135,49.16404 -18.53276,63.10992c-22.94414,13.94591 -51.84653,8.30135 -64.55527,-12.60741c-12.70878,-20.90875 -4.41135,-49.16404 18.53276,-63.10992z" fill="#ffffff" stroke="#000000" stroke-linecap="butt"/><path d="M-133.55349,300.78152c12.95232,-7.8727 43.92172,-36.43631 55.1684,-17.93296c1.8869,3.10435 -17.14121,5.05103 -31.04285,16.23793c-13.18642,10.61133 -21.2295,30.40979 -21.53081,35.97921c-1.27437,23.55599 46.85118,27.4233 38.13311,32.7223c-12.95232,7.87265 -32.5695,-0.74516 -43.81618,-19.2485c-11.24668,-18.50333 -9.86399,-39.88533 3.08834,-47.758z" fill="#d0d0d0" stroke="none" stroke-linecap="butt"/><path d="M-55.36736,299.5981c12.70878,20.90875 4.41135,49.16404 -18.53276,63.10992c-22.94414,13.94591 -51.84649,8.3014 -64.55524,-12.60739c-12.70878,-20.90875 -4.41135,-49.16404 18.53276,-63.10992c22.94414,-13.94591 51.84649,-8.3014 64.55524,12.60739z" fill="none" stroke="#000000" stroke-linecap="butt"/><g><path d="M-109.34266,393.36237c17.39311,-10.57187 6.03421,-47.44039 11.20771,-38.92885c2.41798,3.97809 27.42504,0.78179 30.93018,14.7799c3.99443,15.95221 -14.13913,49.34108 -23.4031,54.97191c-17.39314,10.5719 -35.68694,12.24215 -40.86043,3.73061c-5.1735,-8.51154 4.73248,-23.98169 22.12562,-34.55358z" fill="#ffffff" stroke="#000000" stroke-linecap="butt"/><path d="M-92.02709,362.90543c4.22919,-9.54992 8.82328,-7.9715 9.89634,-6.20608c2.92415,4.81089 -20.27701,67.38178 -27.4933,71.76798c-7.2163,4.3862 -15.43675,4.04193 -18.36088,-0.76892c-2.92412,-4.81086 0.55535,-12.26657 7.77165,-16.65277c4.56816,-2.77662 20.24032,-30.19777 28.1862,-48.14021z" fill="#d0d0d0" stroke="none" stroke-linecap="butt"/><path d="M-97.74616,355.17931c2.41798,3.97809 27.42504,0.78179 30.93018,14.7799c3.99443,15.95221 -14.13913,49.34108 -23.4031,54.97191c-17.39311,10.57187 -35.68696,12.24212 -40.86043,3.73061c-5.17347,-8.51151 4.73253,-23.98169 22.12565,-34.55357c17.39311,-10.57187 6.03423,-47.44037 11.20771,-38.92885z" fill="none" stroke="#000000" stroke-linecap="butt"/><path d="M-77.94048,407.37417l-25.50136,-14.78113" fill="none" stroke="#000000" stroke-linecap="round"/></g><g data-paper-data="{&quot;index&quot;:null}"><path d="M-133.72779,385.14138c-4.77783,19.78529 -16.49997,33.92904 -26.18215,31.59094c-9.68219,-2.33808 -13.65791,-20.27263 -8.88005,-40.0579c2.54479,-10.53809 28.83226,-37.97188 45.24346,-39.02107c14.40089,-0.92067 18.96576,23.87309 23.491,24.96588c9.68219,2.33808 -28.8944,2.73688 -33.67223,22.52217z" fill="#ffffff" stroke="#000000" stroke-linecap="butt"/><path d="M-147.26459,400.87747c-1.98228,8.20879 -8.02564,13.79203 -13.49815,12.47048c-5.47253,-1.32153 -8.30191,-9.04737 -6.31962,-17.25616c1.98228,-8.20879 54.52584,-49.34987 59.99836,-48.02831c2.00824,0.48496 4.90974,4.38088 -2.90034,11.31555c-14.67366,13.0289 -36.02541,36.30205 -37.28026,41.49847z" fill="#d0d0d0" stroke="none" stroke-linecap="butt"/><path d="M-134.55656,384.99798c-4.77783,19.78529 -16.49997,33.92904 -26.18215,31.59094c-9.68219,-2.33808 -13.65791,-20.27263 -8.88005,-40.0579c2.54479,-10.53809 28.83226,-37.97188 45.24346,-39.02107c14.40089,-0.92067 18.96576,23.87309 23.491,24.96588c9.68219,2.33808 -28.8944,2.73688 -33.67223,22.52217z" fill="none" stroke="#000000" stroke-linecap="butt"/><path d="M-134.79061,379.28627l-21.84016,-19.79417" fill="none" stroke="#000000" stroke-linecap="round"/></g><g data-paper-data="{&quot;index&quot;:null}"><path d="M-155.33889,354.00303c-7.515,18.91585 -21.11117,31.26895 -30.36787,27.59138c-9.25671,-3.67758 -10.66861,-21.99316 -3.1536,-40.90901c4.00267,-10.07502 33.88973,-33.53581 50.28522,-32.26472c14.38711,1.11539 15.41688,26.30487 19.74325,28.02365c9.25671,3.67758 -28.99198,-1.35716 -36.507,17.55871z" fill="#ffffff" stroke="#000000" stroke-linecap="butt"/><path d="M-170.95575,367.67718c-3.11794,7.84806 -9.88694,12.52513 -15.11898,10.44653c-5.23207,-2.07863 -6.94586,-10.1258 -3.82794,-17.97388c3.11794,-7.84806 60.92895,-41.18419 66.16099,-39.10558c1.91999,0.76276 4.24428,5.02828 -4.46409,10.7947c-16.36138,10.83392 -40.77621,30.87016 -42.74997,35.83824z" fill="#d0d0d0" stroke="none" stroke-linecap="butt"/><path d="M-156.13924,353.7444c-7.515,18.91585 -21.11117,31.26895 -30.36787,27.59138c-9.25671,-3.67758 -10.66861,-21.99316 -3.1536,-40.90901c4.00267,-10.07502 33.88972,-33.53583 50.28522,-32.26472c14.38711,1.11539 15.41688,26.30487 19.74327,28.02368c9.25671,3.67758 -28.99196,-1.35717 -36.507,17.55871z" fill="none" stroke="#000000" stroke-linecap="butt"/><path d="M-155.56706,348.05661l-18.83677,-22.67105" fill="none" stroke="#000000" stroke-linecap="round"/></g><g data-paper-data="{&quot;index&quot;:null}"><path d="M-172.70303,313.99794c-12.72714,15.8841 -29.34585,23.71182 -37.11895,17.48363c-7.77311,-6.22819 -3.75702,-24.15374 8.97014,-40.03787c6.77874,-8.46022 42.2278,-22.13539 57.53149,-16.1166c13.42902,5.28151 7.03371,29.66734 10.66669,32.57825c7.77311,6.22819 -27.32221,-9.79156 -40.04936,6.09257z" fill="#ffffff" stroke="#000000" stroke-linecap="butt"/><path d="M-191.64079,322.4967c-5.2804,6.59023 -13.12265,9.07892 -17.51612,5.55863c-4.39347,-3.52028 -3.67448,-11.71645 1.60594,-18.30666c5.2804,-6.59023 70.32131,-21.52637 74.71479,-18.00609c1.61226,1.29182 2.58487,6.05112 -7.43079,9.01317c-18.81753,5.56506 -48.03114,17.56915 -51.37381,21.741z" fill="#d0d0d0" stroke="none" stroke-linecap="butt"/><path d="M-173.39244,313.51618c-12.72714,15.8841 -29.34585,23.71182 -37.11892,17.48365c-7.77311,-6.22819 -3.75702,-24.15374 8.97012,-40.03784c6.77874,-8.46022 42.22779,-22.13544 57.53147,-16.11663c13.42902,5.28151 7.03371,29.66734 10.66667,32.57828c7.77311,6.22819 -27.32221,-9.79156 -40.04932,6.09257z" fill="none" stroke="#000000" stroke-linecap="butt"/><path d="M-171.17899,308.24562l-11.36815,-27.19494" fill="none" stroke="#000000" stroke-linecap="round"/></g></g><g stroke-width="8" stroke-linecap="butt"><path d="M172.51364,201.16205c16.07837,4.22935 64.45298,-56.4322 63.97721,-17.92316c-0.33219,26.88723 13.02217,260.71282 4.04539,294.83914c-21.83371,83.00348 -119.78504,30.84845 -147.08943,23.66615c-27.30438,-7.1823 -94.92672,-22.56431 -73.09301,-105.56779c21.8337,-83.00344 124.85546,-202.19664 152.15984,-195.01434z" fill="#00ff15" stroke="#000000"/><path d="M18.45163,442.76741c2.14779,-8.16509 0.02167,-56.90981 27.82251,-102.66944c23.73705,-39.07066 65.38073,-101.28414 98.94163,-125.31234c23.54805,-16.8594 40.66392,-3.38877 55.37104,0.47988c10.92632,2.87412 -28.06038,-4.978 -66.31284,29.13003c-49.86268,44.46034 -104.05019,135.83492 -101.63163,166.5854c2.49241,31.68963 34.27359,69.12028 75.86563,81.05263c57.72417,16.56052 129.79166,1.31983 128.00947,8.09506c-5.26833,20.02819 -58.35483,23.42352 -118.57204,7.58364c-60.21721,-15.83988 -104.76205,-44.91671 -99.49372,-64.9449z" fill="#00ad0e" stroke="none"/><path d="M21.28139,396.08568c21.83371,-83.00348 124.85547,-202.19668 152.15985,-195.01438c16.07833,4.22933 64.45301,-56.43214 63.9772,-17.92312c-0.33223,26.88722 13.02213,260.71281 4.04535,294.83913c-21.83371,83.00348 -119.78504,30.84845 -147.08943,23.66615c-27.30438,-7.1823 -94.92672,-22.56431 -73.09301,-105.56779z" fill="none" stroke="#000000"/></g><g stroke-width="8" stroke-linecap="butt"><path d="M75.53482,109.30538c6.89926,-64.93699 71.26845,-111.33413 143.77264,-103.63089c72.50419,7.70324 125.68747,66.58976 118.78822,131.52675c-6.89926,64.93699 -71.26845,111.33413 -143.77264,103.63089c-72.50419,-7.70324 -125.68747,-66.58979 -118.78821,-131.52678z" fill="#ffffff" stroke="#000000"/><path d="M89.46956,162.47158c0.86007,-8.09513 42.05408,54.09281 108.22292,61.12295c66.16884,7.03014 122.42566,-42.22617 121.5656,-34.13104c-0.86007,8.09513 -53.63223,54.88271 -119.80108,47.85257c-66.16884,-7.03014 -110.84752,-66.74931 -109.98745,-74.84444z" fill="#d0d0d0" stroke="none"/><path d="M221.82128,3.73833c72.50419,7.70324 125.68747,66.58979 118.78821,131.52678c-6.89926,64.93699 -71.26848,111.33413 -143.77264,103.63089c-72.50419,-7.70324 -125.68747,-66.58979 -118.78821,-131.52678c6.89926,-64.93699 71.26848,-111.33413 143.77264,-103.63089z" fill="none" stroke="#000000"/><path d="M109.09437,36.41536c25.88007,-26.06277 68.20045,-37.2061 109.27218,-32.84241c39.94058,4.2435 80.63334,24.07089 102.84278,53.93762c18.69451,25.13989 22.4438,58.88709 20.03404,81.56816c-5.27261,49.62667 -68.41052,52.02363 -141.9706,44.20821c-73.56008,-7.81542 -126.56788,-21.90786 -121.29528,-71.53453c2.32868,-21.91795 10.6454,-54.72104 31.11688,-75.33704z" fill="#ffffff" stroke="#000000"/><path d="M81.00572,137.19062c0.39212,-3.69071 -7.71788,-14.4602 -6.37797,-26.39481c2.86244,-25.49552 19.56861,-61.71605 48.48486,-83.63203c17.88488,-13.5552 66.02345,-22.28523 95.14557,-21.06863c12.10176,0.50553 12.283,8.74254 19.38522,9.49712c12.33115,1.31013 -62.21067,-2.54473 -101.37814,24.39069c-43.95371,30.2269 -52.95617,92.02543 -32.85379,102.14211c21.84719,10.99478 66.69673,24.18488 107.47252,24.42936c63.85859,0.38288 124.58205,-16.21387 123.86806,-9.49368c-1.9632,18.47801 -69.54436,33.53552 -134.30535,26.65496c-64.76103,-6.88056 -121.40426,-28.04711 -119.44106,-46.52511z" fill="#d0d0d0" stroke="none"/><path d="M77.67139,112.09453c2.32868,-21.91795 10.64536,-54.72104 31.11684,-75.33704c25.88006,-26.06273 68.20045,-37.2061 109.27218,-32.84241c39.94062,4.24351 80.63334,24.07089 102.84278,53.93762c18.69447,25.13992 22.44376,58.88712 20.03401,81.56818c-5.2726,49.62662 -68.41055,52.0236 -141.9706,44.20817c-73.56004,-7.81541 -126.56784,-21.90786 -121.29524,-71.53449z" fill="none" stroke="#000000"/></g></g></g></svg>