<svg version="1.1" xmlns="http://www.w3.org/2000/svg" xmlns:xlink="http://www.w3.org/1999/xlink" width="312.38553" height="281" viewBox="0,0,312.38553,281"><g transform="translate(-84.11099,-39.5)"><g data-paper-data="{&quot;isPaintingLayer&quot;:true}" fill-rule="nonzero" stroke-linecap="butt" stroke-linejoin="miter" stroke-miterlimit="10" stroke-dasharray="" stroke-dashoffset="0" style="mix-blend-mode: normal"><path d="M87,318.5v-277h306v277z" fill="#353535" stroke="#000000" stroke-width="0"/><path d="M87,318.5l-2,-181c0,0 -1.5784,-20.79246 0.80916,-49.36745c1.03992,-12.44613 -6.08092,-35.28186 2.91348,-43.61429c9.63652,-8.92728 29.85124,-0.73814 50.64601,0.09958c25.42842,1.02439 51.2289,-3.99078 53.46284,-3.21497c12.56283,4.3629 -61.61371,112.79264 -50.62813,123.90159c11.75251,11.8845 -8.965,47.90245 0.41378,58.59278c7.03506,8.01886 43.68694,-7.39724 53.88287,-7.39724c54.3987,0 196.5,-175 196.5,-175v277z" fill="#1b1b1b" stroke="#000000" stroke-width="0"/><path d="M88.20568,316.00795v-83.1h304.07045v83.1z" fill="#a7a7a7" stroke="#000000" stroke-width="0"/><path d="M96.25128,232.79622c6.21753,0 -5.04136,46.60977 36.82482,60.23308c67.40744,21.93447 262.11177,-47.06674 262.11177,-42.02005c0,0.25892 -4.22485,20.18851 -4.25778,38.06826c-0.01652,8.9716 7.92694,17.4271 4.10621,22.62243c-11.38032,15.47467 -48.87554,5.14631 -50.47609,5.43046c-30.6291,5.43767 -211.76402,0.65998 -226.45329,0.65998c-10.09069,0 -22.87884,3.26395 -28.1695,-0.64246c-3.21794,-2.376 -1.21419,-11.07671 -1.21419,-14.17081c0,-8.18114 -8.70012,-70.18089 7.52805,-70.18089z" fill="#606060" stroke="none" stroke-width="0"/><path d="M87,318.5v-277h306v277z" fill="none" stroke="#000000" stroke-width="4"/><path d="M208.82322,199.01196c0,-47.47745 48.06438,-118.50614 90.57949,-118.50614c15.50536,0 76.59177,-21.86587 91.79341,-5.99953c3.12056,3.25701 -0.66796,8.53663 -0.51799,14.59966c0.24552,9.92586 2.88665,21.95137 3.18528,30.63935c0.6632,19.2945 -0.57818,44.1636 -0.50992,62.64181c0.04154,11.24738 1.48552,17.9868 1.48552,25.85278c0,47.47745 -51.94982,37.39743 -94.46493,37.39743c-42.51511,0 -91.55085,0.85207 -91.55085,-46.62537z" fill="#387297" stroke="#000000" stroke-width="0"/><path d="M207.53301,200.59747c0,-10.72088 81.04351,-5.41907 111.20581,-25.74771c43.03917,-29.00734 39.465,-84.98753 68.01044,-84.98753c13.56748,0 3.96495,98.29568 4.77998,108.23349c2.10152,25.62405 -5.75134,0.26715 -5.75134,19.0149c0,26.01871 -45.18603,29.14085 -93.73641,29.14085c-48.55038,0 -84.50847,-19.63529 -84.50847,-45.654z" fill="#316484" stroke="none" stroke-width="0"/><path d="M88.83455,317.60819v-83.1h304.07046v83.1z" fill="none" stroke="#000000" stroke-width="4"/><path d="M88.24964,230.53421v-66.53828h39.82583v66.53828z" fill="#000000" stroke="#000000" stroke-width="4"/><path d="M299.06023,80.16332c15.50535,0 76.59176,-21.86586 91.7934,-5.99952c3.12056,3.25701 -0.66796,8.53663 -0.51799,14.59966c0.24552,9.92586 2.88665,21.95137 3.18528,30.63935c0.6632,19.29449 -0.57818,44.16359 -0.50992,62.6418c0.04155,11.24739 1.48552,17.98681 1.48552,25.85279c0,47.47744 -51.94982,37.39742 -94.46493,37.39742c-42.51511,0 -91.55085,0.85208 -91.55085,-46.62536c0,-47.47745 48.06438,-118.50614 90.57949,-118.50614z" fill="none" stroke="#000000" stroke-width="4"/><path d="M187.25948,250.30437v-46.62537h204.47165v46.62537z" fill="#a6703d" stroke="#000000" stroke-width="0"/><path d="M188.16667,203.49999c0,-7.36405 3.82013,31.84149 58.61208,32.48786c0.68297,0.00806 36.03452,0.67881 36.72126,0.67881c25.63277,0 62.73251,14.79389 86.11757,5.70206c9.84866,-3.82904 12.87741,-38.21886 18.66864,-37.27804c4.73449,0.76915 3.61121,9.85448 3.16409,19.03118c-0.53334,10.94623 -0.9503,22.30436 -0.9503,23.71147c0,7.45585 -47.21924,2.16667 -103,2.16667c-20.31546,0 -44.88361,0.5499 -67.35417,0.41776c-11.50228,-0.06764 -25.65284,2.88391 -31.77086,-1.13968c-5.21784,-3.43157 -1.43602,-10.41307 -1.26245,-17.28963c0.31698,-12.55835 1.05414,-26.32349 1.05414,-28.48845z" fill="#855531" stroke="none" stroke-width="0"/><path d="M186.25948,249.97103v-46.62537h204.47165v46.62537z" fill="none" stroke="#000000" stroke-width="4"/><path d="M323.55343,78.61919c11.32184,0 20.5,9.73781 20.5,21.75c0,12.01219 -9.17816,21.75 -20.5,21.75c-11.32184,0 -20.5,-9.73781 -20.5,-21.75c0,-12.01219 9.17816,-21.75 20.5,-21.75z" fill="#ffffff" stroke="#000000" stroke-width="3"/><path d="M302.30343,107.61919c11.18377,0 20.25,9.29009 20.25,20.75c0,11.45991 -9.06623,20.75 -20.25,20.75c-11.18377,0 -20.25,-9.29009 -20.25,-20.75c0,-11.45991 9.06623,-20.75 20.25,-20.75z" fill="#ffffff" stroke="#000000" stroke-width="3"/><path d="M351.55343,90.61919c10.49341,0 19,8.61852 19,19.25c0,10.63148 -8.50659,19.25 -19,19.25c-10.49341,0 -19,-8.61852 -19,-19.25c0,-10.63148 8.50659,-19.25 19,-19.25z" fill="#ffffff" stroke="#000000" stroke-width="3"/><path d="M238.05343,139.61919c9.1127,0 16.5,7.49923 16.5,16.75c0,9.25077 -7.3873,16.75 -16.5,16.75c-9.1127,0 -16.5,-7.49923 -16.5,-16.75c0,-9.25077 7.3873,-16.75 16.5,-16.75z" fill="#ffffff" stroke="#000000" stroke-width="3"/><path d="M242.05343,116.61919c10.76955,0 19.5,7.83502 19.5,17.5c0,9.66498 -8.73045,17.5 -19.5,17.5c-10.76955,0 -19.5,-7.83502 -19.5,-17.5c0,-9.66498 8.73045,-17.5 19.5,-17.5z" fill="#ffffff" stroke="#000000" stroke-width="3"/><path d="M261.05343,136.11919c6.35127,0 11.5,6.71573 11.5,15c0,8.28427 -5.14873,15 -11.5,15c-6.35127,0 -11.5,-6.71573 -11.5,-15c0,-8.28427 5.14873,-15 11.5,-15z" fill="#ffffff" stroke="#000000" stroke-width="3"/></g></g></svg>