<svg version="1.1" xmlns="http://www.w3.org/2000/svg" xmlns:xlink="http://www.w3.org/1999/xlink" width="193.61616" height="340.85663" viewBox="0,0,193.61616,340.85663"><g transform="translate(-144.55785,-8.96845)"><g data-paper-data="{&quot;isPaintingLayer&quot;:true}" fill-rule="nonzero" stroke-linejoin="miter" stroke-miterlimit="10" stroke-dasharray="" stroke-dashoffset="0" style="mix-blend-mode: normal"><g fill="none" stroke="#000000" stroke-width="2" stroke-linecap="round"><path d="M273.98774,116.12823l-9.5,-25.5"/><path d="M259.5,114.16025l15.66667,-25.33334l3.66667,28.33334"/></g><g fill="none" stroke="#000000" stroke-width="2" stroke-linecap="round"><g><path d="M206.48774,116.12823l9.5,-25.5" data-paper-data="{&quot;index&quot;:null}"/><path d="M207.48774,91.12823l-1.5,11.5"/></g><path d="M199.5,87.49358l6.66666,27.66667"/><path d="M197.83334,85.16025l-0.33334,20.33333"/></g><g data-paper-data="{&quot;index&quot;:null}" stroke-linecap="butt"><g><g><path d="M258.3779,252.67717l-11.6384,-41.18071l23.58769,-6.51506l11.6384,41.18071z" fill="#252525" stroke="#000000" stroke-width="0"/><path d="M258.3779,252.67717l-11.6384,-41.18071l23.58769,-6.51506l11.6384,41.18071z" fill="#252525" stroke="#000000" stroke-width="0"/><path d="M271.01313,207.99102c0.5906,2.08973 8.05823,25.76985 9.28492,33.13313c2.20632,13.24351 -2.85556,5.81067 -4.98712,6.39942c-2.37725,0.65661 -10.12678,3.64265 -14.38063,4.38549c-1.68107,0.29356 -1.99078,2.10971 -2.45895,0.45317c-0.39202,-1.38711 -12.02311,-39.82612 -11.33681,-41.73273c0.83395,-2.31677 7.27994,21.36905 11.00796,25.60897c6.13927,6.98227 10.55744,-2.874 12.13159,-3.30879c1.61915,-0.44722 5.31171,3.50282 4.89611,-3.22103c-0.43572,-7.04945 -5.00302,-24.71092 -4.15706,-21.71763z" fill="#141414" stroke="none" stroke-width="0"/><path d="M258.3779,252.67717l-11.6384,-41.18071l23.58769,-6.51506l11.6384,41.18071z" fill="none" stroke="#000000" stroke-width="3.5"/><path d="M258.3779,252.67717l-11.6384,-41.18071l23.58769,-6.51506l11.6384,41.18071z" fill="none" stroke="#000000" stroke-width="3.5"/></g><g><path d="M247.57829,235.67287l-2.35641,-8.33783l34.46132,-9.51842l2.35641,8.33784z" fill="#252525" stroke="#000000" stroke-width="0"/><path d="M247.57829,235.67287l-2.35641,-8.33783l34.46132,-9.51842l2.35641,8.33784z" fill="#252525" stroke="#000000" stroke-width="0"/><path d="M279.62988,218.47906c0.11958,0.4231 2.53654,4.96764 1.7876,6.73394c-1.34703,3.17684 -6.70182,4.25414 -9.81601,5.11429c-4.84566,1.3384 -23.4566,6.40708 -23.79125,5.22298c-0.07937,-0.28085 -3.33034,-7.81609 -1.76116,-8.59715c1.90675,-0.94909 2.92231,3.92653 6.63031,3.9693c6.10631,0.07043 15.41042,-4.24793 17.71022,-4.88315c2.36555,-0.65338 6.12063,-0.68429 7.76969,-2.52439c1.72891,-1.9292 1.29932,-5.64186 1.47059,-5.03581z" fill="#141414" stroke="none" stroke-width="0"/><path d="M247.57829,235.67287l-2.35641,-8.33783l34.46132,-9.51842l2.35641,8.33784z" fill="none" stroke="#000000" stroke-width="3.5"/><path d="M247.57829,235.67287l-2.35641,-8.33783l34.46132,-9.51842l2.35641,8.33784z" fill="none" stroke="#000000" stroke-width="3.5"/></g><g><path d="M248.88994,249.56409l-2.35641,-8.33784l38.9344,-10.75391l2.35642,8.33784z" fill="#252525" stroke="#000000" stroke-width="0"/><path d="M248.88994,249.56409l-2.35641,-8.33784l38.9344,-10.75391l2.35642,8.33784z" fill="#252525" stroke="#000000" stroke-width="0"/><path d="M285.38565,231.14278c0.11958,0.4231 2.67289,4.92998 1.77368,6.73779c-1.61731,3.2515 -7.65348,4.51699 -11.17189,5.48879c-5.47462,1.51212 -26.49883,7.24737 -26.83348,6.06326c-0.07937,-0.28085 -3.46536,-7.7788 -1.68067,-8.61939c2.16862,-1.02143 3.14055,3.86625 7.29355,3.78611c6.83912,-0.13198 17.4104,-4.80034 20.00873,-5.51802c2.6726,-0.73819 6.88084,-0.89426 8.79107,-2.80649c2.00272,-2.00483 1.64774,-5.7381 1.81901,-5.13205z" fill="#141414" stroke="none" stroke-width="0"/><path d="M248.88994,249.56409l-2.35641,-8.33784l38.9344,-10.75391l2.35642,8.33784z" fill="none" stroke="#000000" stroke-width="3.5"/><path d="M248.88994,249.56409l-2.35641,-8.33784l38.9344,-10.75391l2.35642,8.33784z" fill="none" stroke="#000000" stroke-width="3.5"/></g></g><g><path d="M239.53637,220.54168l-2.70642,-9.57628l40.21243,-11.1069l2.70643,9.57628z" fill="#252525" stroke="#000000" stroke-width="0"/><path d="M239.53637,220.54168l-2.70642,-9.57628l40.21243,-11.1069l2.70643,9.57628z" fill="#252525" stroke="#000000" stroke-width="0"/><path d="M276.97704,200.62047c0.13734,0.48595 2.93256,5.70018 2.05114,7.73469c-1.58533,3.65927 -7.8318,4.92317 -11.46571,5.92688c-5.65433,1.56176 -27.37084,7.47756 -27.7552,6.11757c-0.09116,-0.32256 -3.8441,-8.97175 -2.01137,-9.87724c2.22699,-1.1003 3.38724,4.50123 7.70892,4.53296c7.11691,0.05227 17.98215,-4.957 20.66577,-5.69824c2.76033,-0.76242 7.13724,-0.81561 9.06816,-2.93923c2.02443,-2.22644 1.54156,-6.49347 1.73828,-5.7974z" fill="#141414" stroke="none" stroke-width="0"/><path d="M239.53637,220.54168l-2.70642,-9.57628l40.21243,-11.1069l2.70643,9.57628z" fill="none" stroke="#000000" stroke-width="3.5"/><path d="M239.53637,220.54168l-2.70642,-9.57628l40.21243,-11.1069l2.70643,9.57628z" fill="none" stroke="#000000" stroke-width="3.5"/></g></g><g stroke-linecap="butt"><g><g><path d="M194.93871,245.91212l11.63839,-41.18071l23.58769,6.51506l-11.6384,41.18071z" fill="#252525" stroke="#000000" stroke-width="0"/><path d="M194.93871,245.91212l11.63839,-41.18071l23.58769,6.51506l-11.6384,41.18071z" fill="#252525" stroke="#000000" stroke-width="0"/><path d="M205.89117,207.74102c-0.5906,2.08973 -8.05823,25.76985 -9.28492,33.13313c-2.20631,13.24351 2.85556,5.81067 4.98712,6.39942c2.37724,0.65661 10.12677,3.64265 14.38062,4.38549c1.68107,0.29356 1.99078,2.10972 2.45895,0.45318c0.39202,-1.38711 12.02311,-39.82612 11.3368,-41.73274c-0.83394,-2.31677 -7.27993,21.36905 -11.00795,25.60897c-6.13926,6.98227 -10.55743,-2.874 -12.13159,-3.30879c-1.61915,-0.44722 -5.31172,3.50282 -4.89612,-3.22103c0.43572,-7.04945 5.00303,-24.71092 4.15707,-21.71763z" fill="#141414" stroke="none" stroke-width="0"/><path d="M194.93871,245.91212l11.63839,-41.18071l23.58769,6.51506l-11.6384,41.18071z" fill="none" stroke="#000000" stroke-width="3.5"/><path d="M194.93871,245.91212l11.63839,-41.18071l23.58769,6.51506l-11.6384,41.18071z" fill="none" stroke="#000000" stroke-width="3.5"/></g><g><path d="M194.86468,225.90446l2.35641,-8.33784l34.46132,9.51842l-2.35642,8.33783z" fill="#252525" stroke="#000000" stroke-width="0"/><path d="M194.86468,225.90446l2.35641,-8.33784l34.46132,9.51842l-2.35642,8.33783z" fill="#252525" stroke="#000000" stroke-width="0"/><path d="M197.27441,218.22906c-0.11958,0.4231 -2.53653,4.96765 -1.78759,6.73395c1.34703,3.17685 6.70182,4.25413 9.816,5.11429c4.84565,1.3384 23.4566,6.40708 23.79125,5.22298c0.07937,-0.28085 3.33035,-7.81609 1.76117,-8.59715c-1.90675,-0.94909 -2.92231,3.92654 -6.63031,3.9693c-6.1063,0.07043 -15.41041,-4.24794 -17.71023,-4.88316c-2.36556,-0.65338 -6.12064,-0.68429 -7.7697,-2.52439c-1.72891,-1.9292 -1.29931,-5.64186 -1.47058,-5.03581z" fill="#141414" stroke="none" stroke-width="0"/><path d="M194.86468,225.90446l2.35641,-8.33784l34.46132,9.51842l-2.35642,8.33783z" fill="none" stroke="#000000" stroke-width="3.5"/><path d="M194.86468,225.90446l2.35641,-8.33784l34.46132,9.51842l-2.35642,8.33783z" fill="none" stroke="#000000" stroke-width="3.5"/></g><g><path d="M189.07994,238.56018l2.35642,-8.33784l38.93441,10.75391l-2.35642,8.33784z" fill="#252525" stroke="#000000" stroke-width="0"/><path d="M189.07994,238.56018l2.35642,-8.33784l38.93441,10.75391l-2.35642,8.33784z" fill="#252525" stroke="#000000" stroke-width="0"/><path d="M191.51864,230.89278c-0.11958,0.4231 -2.67289,4.92998 -1.77368,6.73779c1.61731,3.2515 7.65348,4.51699 11.17189,5.48879c5.47462,1.51212 26.49883,7.24737 26.83348,6.06326c0.07937,-0.28085 3.46536,-7.7788 1.68066,-8.61939c-2.16862,-1.02143 -3.14055,3.86625 -7.29354,3.78611c-6.83912,-0.13198 -17.4104,-4.80034 -20.00873,-5.51802c-2.67261,-0.73819 -6.88085,-0.89426 -8.79107,-2.80649c-2.00271,-2.00483 -1.64774,-5.7381 -1.81901,-5.13205z" fill="#141414" stroke="none" stroke-width="0"/><path d="M189.07994,238.56018l2.35642,-8.33784l38.93441,10.75391l-2.35642,8.33784z" fill="none" stroke="#000000" stroke-width="3.5"/><path d="M189.07994,238.56018l2.35642,-8.33784l38.93441,10.75391l-2.35642,8.33784z" fill="none" stroke="#000000" stroke-width="3.5"/></g></g><g><path d="M197.15549,209.18478l2.70643,-9.57628l40.21243,11.1069l-2.70642,9.57629z" fill="#252525" stroke="#000000" stroke-width="0"/><path d="M197.15549,209.18478l2.70643,-9.57628l40.21243,11.1069l-2.70642,9.57629z" fill="#252525" stroke="#000000" stroke-width="0"/><path d="M199.92725,200.37047c-0.13734,0.48595 -2.93257,5.70018 -2.05114,7.73469c1.58533,3.65927 7.83181,4.92317 11.46571,5.92688c5.65433,1.56176 27.37084,7.47756 27.75519,6.11757c0.09116,-0.32256 3.8441,-8.97175 2.01137,-9.87724c-2.22699,-1.1003 -3.38723,4.50123 -7.70891,4.53296c-7.11691,0.05227 -17.98216,-4.957 -20.66577,-5.69824c-2.76033,-0.76242 -7.13724,-0.81561 -9.06816,-2.93923c-2.02443,-2.22644 -1.54156,-6.49347 -1.73828,-5.7974z" fill="#141414" stroke="none" stroke-width="0"/><path d="M197.15549,209.18478l2.70643,-9.57628l40.21243,11.1069l-2.70642,9.57629z" fill="none" stroke="#000000" stroke-width="3.5"/><path d="M197.15549,209.18478l2.70643,-9.57628l40.21243,11.1069l-2.70642,9.57629z" fill="none" stroke="#000000" stroke-width="3.5"/></g></g><g stroke-linecap="butt"><g><g><path d="M221.88357,199.08203l0.86319,-42.78502l24.46843,0.34809l-0.8632,42.78502z" fill="#252525" stroke="#000000" stroke-width="0"/><path d="M221.88357,199.08203l0.86319,-42.78502l24.46843,0.34809l-0.8632,42.78502z" fill="#252525" stroke="#000000" stroke-width="0"/><path d="M222.84298,159.3823c-0.0438,2.17115 -1.29026,26.96953 -0.61799,34.40395c1.20915,13.37148 4.23022,4.90137 6.44137,4.93283c2.466,0.03508 10.71841,0.96761 15.02199,0.61229c1.70072,-0.14042 2.45897,1.53869 2.49369,-0.18239c0.02908,-1.44115 1.57748,-41.57146 0.432,-43.24301c-1.39191,-2.03113 -1.64838,22.51481 -4.18502,27.55866c-4.17732,8.30618 -10.94103,-0.11514 -12.57395,-0.13836c-1.67961,-0.0239 -4.25513,4.73053 -5.55077,-1.88039c-1.35837,-6.93105 -1.39856,-25.17348 -1.46131,-22.06357z" fill="#141414" stroke="none" stroke-width="0"/><path d="M221.88357,199.08203l0.86319,-42.78502l24.46843,0.34809l-0.8632,42.78502z" fill="none" stroke="#000000" stroke-width="3.5"/><path d="M221.88357,199.08203l0.86319,-42.78502l24.46843,0.34809l-0.8632,42.78502z" fill="none" stroke="#000000" stroke-width="3.5"/></g><g><path d="M216.76003,179.74137l0.17477,-8.66266l35.74807,0.50855l-0.17477,8.66266z" fill="#252525" stroke="#000000" stroke-width="0"/><path d="M216.76003,179.74137l0.17477,-8.66266l35.74807,0.50855l-0.17477,8.66266z" fill="#252525" stroke="#000000" stroke-width="0"/><path d="M217.15365,171.70622c-0.00887,0.43959 -1.20002,5.44715 -0.02936,6.96711c2.10553,2.73379 7.55882,2.4241 10.78929,2.47005c5.02659,0.07151 24.31432,0.27671 24.33915,-0.95353c0.00589,-0.29179 1.24888,-8.40373 -0.46668,-8.76327c-2.08461,-0.43689 -1.83617,4.53718 -5.41323,5.51483c-5.89066,1.60997 -15.98367,-0.21917 -18.36935,-0.25311c-2.45388,-0.03491 -6.09509,0.88333 -8.15534,-0.48076c-2.16001,-1.43014 -2.68178,-5.13098 -2.69448,-4.50132z" fill="#141414" stroke="none" stroke-width="0"/><path d="M216.76003,179.74137l0.17477,-8.66266l35.74807,0.50855l-0.17477,8.66266z" fill="none" stroke="#000000" stroke-width="3.5"/><path d="M216.76003,179.74137l0.17477,-8.66266l35.74807,0.50855l-0.17477,8.66266z" fill="none" stroke="#000000" stroke-width="3.5"/></g><g><path d="M214.35829,193.44765l0.17477,-8.66267l40.38817,0.57457l-0.17477,8.66266z" fill="#252525" stroke="#000000" stroke-width="0"/><path d="M214.35829,193.44765l0.17477,-8.66267l40.38817,0.57457l-0.17477,8.66266z" fill="#252525" stroke="#000000" stroke-width="0"/><path d="M214.78196,185.41293c-0.00887,0.43959 -1.34147,5.44513 -0.01493,6.96731c2.38591,2.73777 8.54602,2.43813 12.1958,2.49005c5.67904,0.08079 27.47015,0.32161 27.49497,-0.90863c0.00589,-0.29179 1.38893,-8.40175 -0.55018,-8.76447c-2.35626,-0.44075 -2.06257,4.53397 -6.10122,5.50505c-6.65084,1.59916 -18.05833,-0.24869 -20.75368,-0.28704c-2.7724,-0.03944 -6.88369,0.87212 -9.21486,-0.49582c-2.44404,-1.43419 -3.0432,-5.13612 -3.0559,-4.50646z" fill="#141414" stroke="none" stroke-width="0"/><path d="M214.35829,193.44765l0.17477,-8.66267l40.38817,0.57457l-0.17477,8.66266z" fill="none" stroke="#000000" stroke-width="3.5"/><path d="M214.35829,193.44765l0.17477,-8.66267l40.38817,0.57457l-0.17477,8.66266z" fill="none" stroke="#000000" stroke-width="3.5"/></g></g><g><path d="M214.75491,162.98503l0.20073,-9.94935l41.71392,0.59341l-0.20072,9.94935z" fill="#252525" stroke="#000000" stroke-width="0"/><path d="M214.75491,162.98503l0.20073,-9.94935l41.71392,0.59341l-0.20072,9.94935z" fill="#252525" stroke="#000000" stroke-width="0"/><path d="M215.21125,153.75646c-0.01019,0.50489 -1.39825,6.25594 -0.03167,8.00198c2.45792,3.1404 8.82113,2.78613 12.59072,2.83976c5.86545,0.08345 28.37202,0.32416 28.40052,-1.08881c0.00676,-0.33513 1.45418,-9.65167 -0.5478,-10.06507c-2.43266,-0.50233 -2.14092,5.21066 -6.31455,6.33258c-6.87311,1.84759 -18.65112,-0.25591 -21.43494,-0.29551c-2.8634,-0.04074 -7.11192,1.01296 -9.51648,-0.55429c-2.52101,-1.64314 -3.13121,-5.89382 -3.1458,-5.17064z" fill="#141414" stroke="none" stroke-width="0"/><path d="M214.75491,162.98503l0.20073,-9.94935l41.71392,0.59341l-0.20072,9.94935z" fill="none" stroke="#000000" stroke-width="3.5"/><path d="M214.75491,162.98503l0.20073,-9.94935l41.71392,0.59341l-0.20072,9.94935z" fill="none" stroke="#000000" stroke-width="3.5"/></g></g><g stroke-linecap="butt"><path d="M217.88341,113.36077v-24.96667h41.72077v24.96667z" fill="#252525" stroke="#000000" stroke-width="0"/><path d="M217.88341,113.36077v-24.96667h41.72077v24.96667z" fill="#252525" stroke="#000000" stroke-width="0"/><path d="M218.15352,90.19318c0,1.26695 -1.27188,15.74391 0.12975,20.07536c2.52096,7.79049 8.87626,6.67464 12.64647,6.67464c5.86641,0 28.37507,-0.19932 28.37507,-3.74499c0,-0.84097 1.2593,-24.26466 -0.75077,-25.23028c-2.44249,-1.17336 -2.03555,13.14816 -6.18603,16.11164c-6.83499,4.88024 -18.65399,0.02364 -21.43827,0.02364c-2.86387,0 -7.0906,2.79496 -9.52649,-1.05091c-2.55384,-4.03209 -3.24972,-14.67384 -3.24972,-12.85909z" fill="#141414" stroke="none" stroke-width="0"/><path d="M217.88341,113.36077v-24.96667h41.72077v24.96667z" fill="none" stroke="#000000" stroke-width="3.5"/><path d="M217.88341,113.36077v-24.96667h41.72077v24.96667z" fill="none" stroke="#000000" stroke-width="3.5"/></g><path d="M270.45756,81.85811l-0.66667,10" fill="none" stroke="#000000" stroke-width="2" stroke-linecap="round"/><g stroke-linecap="butt"><g><g><path d="M210.86579,159.04235v-42.79524h55.01246v42.79524z" fill="#252525" stroke="#000000" stroke-width="0"/><path d="M210.86579,159.04235v-42.79524h55.01246v42.79524z" fill="#252525" stroke="#000000" stroke-width="0"/><path d="M211.22197,119.3309c0,2.17167 -1.6771,26.98658 0.17108,34.41108c3.32411,13.35362 9.73034,4.84096 14.70169,4.84096c5.54433,0 24.13521,0.81509 33.79207,0.39857c3.81627,-0.1646 5.5967,1.50363 5.5967,-0.21786c0,-1.4415 1.6605,-41.5919 -0.98996,-43.24706c-3.22064,-2.01123 -2.68404,22.53717 -8.15682,27.61686c-9.01253,8.3652 -24.59691,0.04051 -28.26822,0.04051c-3.77626,0 -9.34958,4.79083 -12.56151,-1.80134c-3.36746,-6.91139 -4.28503,-25.15237 -4.28503,-22.04172z" fill="#141414" stroke="none" stroke-width="0"/><path d="M210.86579,159.04235v-42.79524h55.01246v42.79524z" fill="none" stroke="#000000" stroke-width="3.5"/><path d="M210.86579,159.04235v-42.79524h55.01246v42.79524z" fill="none" stroke="#000000" stroke-width="3.5"/></g><g><path d="M198.47277,139.77551v-8.66473h80.37253v8.66473z" fill="#252525" stroke="#000000" stroke-width="0"/><path d="M198.47277,139.77551v-8.66473h80.37253v8.66473z" fill="#252525" stroke="#000000" stroke-width="0"/><path d="M198.99314,131.73516c0,0.4397 -2.45021,5.46396 0.24995,6.96719c4.85648,2.7037 17.09957,2.31644 24.36264,2.31644c11.30129,0 54.66286,-0.06918 54.66286,-1.29971c0,-0.29186 2.42597,-8.42109 -1.44632,-8.75621c-4.70531,-0.40722 -3.92135,4.56309 -11.91701,5.59157c-13.16719,1.69369 -35.93579,0.00821 -41.29953,0.00821c-5.51707,0 -13.65962,0.96999 -18.35221,-0.36472c-4.91981,-1.39935 -6.26038,-5.09258 -6.26038,-4.46277z" fill="#141414" stroke="none" stroke-width="0"/><path d="M198.47277,139.77551v-8.66473h80.37253v8.66473z" fill="none" stroke="#000000" stroke-width="3.5"/><path d="M198.47277,139.77551v-8.66473h80.37253v8.66473z" fill="none" stroke="#000000" stroke-width="3.5"/></g><g><path d="M193.69603,153.51529v-8.66473h90.8049v8.66473z" fill="#252525" stroke="#000000" stroke-width="0"/><path d="M193.69603,153.51529v-8.66473h90.8049v8.66473z" fill="#252525" stroke="#000000" stroke-width="0"/><path d="M194.28394,145.47493c0,0.4397 -2.76825,5.46396 0.2824,6.9672c5.48685,2.7037 19.31909,2.31644 27.52492,2.31644c12.7682,0 61.75811,-0.06918 61.75811,-1.29971c0,-0.29186 2.74086,-8.42109 -1.63405,-8.75621c-5.31606,-0.40722 -4.43034,4.56309 -13.46384,5.59157c-14.8763,1.69369 -40.60025,0.0082 -46.66021,0.0082c-6.23319,0 -15.43264,0.97 -20.73433,-0.36472c-5.5584,-1.39935 -7.07298,-5.09258 -7.07298,-4.46277z" fill="#141414" stroke="none" stroke-width="0"/><path d="M193.69603,153.51529v-8.66473h90.8049v8.66473z" fill="none" stroke="#000000" stroke-width="3.5"/><path d="M193.69603,153.51529v-8.66473h90.8049v8.66473z" fill="none" stroke="#000000" stroke-width="3.5"/></g></g><g><path d="M193.20612,123.0485v-9.95173h93.78557v9.95173z" fill="#252525" stroke="#000000" stroke-width="0"/><path d="M193.20612,123.0485v-9.95173h93.78557v9.95173z" fill="#252525" stroke="#000000" stroke-width="0"/><path d="M193.81332,113.81389c0,0.505 -2.85912,6.27553 0.29167,8.00204c5.66697,3.10528 19.95324,2.66052 28.42843,2.66052c13.18732,0 63.78532,-0.07946 63.78532,-1.49276c0,-0.33521 2.83084,-9.6719 -1.68768,-10.05679c-5.49056,-0.4677 -4.57577,5.24086 -13.90579,6.42211c-15.36462,1.94527 -41.93296,0.00942 -48.19184,0.00942c-6.43779,0 -15.93922,1.11408 -21.41494,-0.41889c-5.74087,-1.60719 -7.30515,-5.849 -7.30515,-5.12564z" fill="#141414" stroke="none" stroke-width="0"/><path d="M193.20612,123.0485v-9.95173h93.78557v9.95173z" fill="none" stroke="#000000" stroke-width="3.5"/><path d="M193.20612,123.0485v-9.95173h93.78557v9.95173z" fill="none" stroke="#000000" stroke-width="3.5"/></g></g><g><g><path d="M191.98774,58.75119c0,-26.41762 20.5949,-47.83334 46,-47.83334c25.4051,0 46,21.41572 46,47.83334c0,26.41762 -20.5949,47.83334 -46,47.83334c-20.63754,0 -38.10086,-14.13209 -43.92846,-33.59755c-1.34625,-4.49679 -2.07154,-9.27821 -2.07154,-14.23578z" fill="#2c2c2c" stroke="#000000" stroke-width="0" stroke-linecap="butt"/><path d="M208.86758,78.15065c5.20417,10.74469 20.32521,13.89412 25.88527,13.89412c16.20035,0 44.33333,-21.34908 44.33333,-11.5c0,9.84908 -25.79965,26.16667 -42,26.16667c-10.53238,0 -31.53453,-3.64574 -38.87686,-26.16337c-1.48721,-4.56101 -8.20843,-13.37876 -7.69811,-21.53925c0.84551,-13.5205 9.9083,-26.98183 9.9083,-29.13071c0,-6.46882 -1.51116,27.71041 8.44807,48.27254z" fill="#111111" stroke="none" stroke-width="0" stroke-linecap="butt"/><path d="M237.98774,10.91787c25.4051,0 46,21.41571 46,47.83333c0,26.41762 -20.5949,47.83333 -46,47.83333c-25.4051,0 -46,-21.41571 -46,-47.83333c0,-26.41762 20.5949,-47.83333 46,-47.83333z" fill="none" stroke="#000000" stroke-width="3.5" stroke-linecap="butt"/><path d="M200.15977,54.5281c0,8.44995 15.93866,15.3 35.6,15.3c19.66134,0 35.6,-6.85005 35.6,-15.3c0,-8.44995 -15.93867,-15.3 -35.6,-15.3c-19.66134,0 -35.6,6.85005 -35.6,15.3z" fill="#111111" stroke="none" stroke-width="0" stroke-linecap="butt"/><path d="M202.75284,28.89465l-3.66667,54" fill="none" stroke="#000000" stroke-width="3.5" stroke-linecap="round"/><path d="M217.08617,16.22798l-6.66667,79" fill="none" stroke="#000000" stroke-width="3.5" stroke-linecap="round"/><path d="M225.75284,106.22798l5.33333,-95.33333" fill="none" stroke="#000000" stroke-width="3.5" stroke-linecap="round"/><path d="M248.08617,12.89465l-1.33333,92" fill="none" stroke="#000000" stroke-width="3.5" stroke-linecap="round"/><path d="M261.41951,17.89465l-0.33333,82" fill="none" stroke="#000000" stroke-width="3.5" stroke-linecap="round"/><path d="M270.75284,27.22798l4,59.66667" fill="none" stroke="#000000" stroke-width="3.5" stroke-linecap="round"/><path d="M214.03007,21.94916c3.89535,-2.78433 -0.53244,5.47457 1.09452,9.99902c1.56841,4.36162 9.21126,4.94647 11.79492,4.94647c8.19223,0 -2.16666,5.4565 -2.16666,20c0,14.5435 -6.64111,26.33334 -14.83334,26.33334c-8.19223,0 -14.83333,-11.78984 -14.83333,-26.33334c0,-5.19882 14.6876,-31.90315 18.94389,-34.94549z" fill="#000000" stroke="#000000" stroke-width="0" stroke-linecap="butt"/><path d="M214.3634,21.61582c3.89535,-2.78434 -0.53244,5.47457 1.09452,9.99902c1.56841,4.36163 9.21126,4.94647 11.79492,4.94647c8.19222,0 -2.16667,5.4565 -2.16667,20c0,14.5435 -6.64111,26.33333 -14.83333,26.33333c-8.19222,0 -14.83333,-11.78983 -14.83333,-26.33333c0,-5.19883 14.68759,-31.90316 18.94389,-34.94549z" fill="none" stroke="#000000" stroke-width="3.5" stroke-linecap="butt"/><path d="M283.40607,57.09465c0,14.5435 -6.6411,26.33334 -14.83333,26.33334c-8.19223,0 -14.83334,-11.78984 -14.83334,-26.33334c0,-14.5435 -10.35889,-20 -2.16666,-20c2.58366,0 10.22651,-0.58485 11.79492,-4.94647c1.62696,-4.52445 -2.80083,-12.78335 1.09452,-9.99902c4.25629,3.04234 18.94389,29.74667 18.94389,34.94549z" data-paper-data="{&quot;index&quot;:null}" fill="#000000" stroke="#000000" stroke-width="0" stroke-linecap="butt"/><path d="M283.07274,56.76131c0,14.5435 -6.64111,26.33333 -14.83333,26.33333c-8.19222,0 -14.83333,-11.78983 -14.83333,-26.33333c0,-14.5435 -10.35889,-20 -2.16667,-20c2.58366,0 10.22651,-0.58484 11.79492,-4.94647c1.62696,-4.52445 -2.80083,-12.78336 1.09452,-9.99902c4.2563,3.04233 18.94389,29.74666 18.94389,34.94549z" data-paper-data="{&quot;index&quot;:null}" fill="none" stroke="#000000" stroke-width="3.5" stroke-linecap="butt"/><path d="M240.15441,10.21846l-4,96.66667" fill="none" stroke="#000000" stroke-width="2.5" stroke-linecap="round"/><path d="M235.79089,11.85811l-5,94" fill="none" stroke="#000000" stroke-width="2" stroke-linecap="round"/><path d="M243.12423,13.19144l-1.66667,94" fill="none" stroke="#000000" stroke-width="2" stroke-linecap="round"/><path d="M252.12423,13.85811l-0.33334,91" fill="none" stroke="#000000" stroke-width="2" stroke-linecap="round"/><path d="M256.45756,14.19144l-0.66667,89.33334" fill="none" stroke="#000000" stroke-width="2" stroke-linecap="round"/><path d="M221.79089,12.19144l-3,29.66667" fill="none" stroke="#000000" stroke-width="2" stroke-linecap="round"/><path d="M226.79089,13.52478l-2.33333,25" fill="none" stroke="#000000" stroke-width="2" stroke-linecap="round"/><path d="M208.12423,23.85811l-6.33334,27" fill="none" stroke="#000000" stroke-width="2" stroke-linecap="round"/></g><path d="M220.48774,78.33064l-2,21.33333" fill="none" stroke="#000000" stroke-width="2.5" stroke-linecap="round"/><path d="M265.79089,78.19144l0.33334,18" fill="none" stroke="#000000" stroke-width="2" stroke-linecap="round"/><path d="M216.12423,78.52478l-2.33334,21" fill="none" stroke="#000000" stroke-width="2" stroke-linecap="round"/><path d="M224.79089,69.52478l-3.66666,35.33333" fill="none" stroke="#000000" stroke-width="2" stroke-linecap="round"/><path d="M201.79089,77.52478v11.66666" fill="none" stroke="#000000" stroke-width="2" stroke-linecap="round"/><path d="M208.12423,77.85811l-2.33334,17.33333" fill="none" stroke="#000000" stroke-width="2" stroke-linecap="round"/></g><g data-paper-data="{&quot;index&quot;:null}" stroke-linecap="butt"><g><g><path d="M200.27341,309.55731l-6.27997,-63.61716l25.42177,3.00114l6.27997,63.61716z" fill="#252525" stroke="#000000" stroke-width="0"/><path d="M200.27341,309.55731l-6.27997,-63.61716l25.42177,3.00114l6.27997,63.61716z" fill="#252525" stroke="#000000" stroke-width="0"/><path d="M199.82522,283.54359c2.45162,9.97479 4.32408,3.15706 6.06913,3.36307c1.69654,0.20028 10.11984,13.42552 13.05707,1.48192c1.7836,-7.25265 -2.0667,-43.7743 -0.28328,-40.60881c1.46769,2.60508 6.5922,62.19999 6.80373,64.34283c0.25262,2.55908 -0.81493,-0.01796 -2.55432,0.01854c-4.40141,0.09236 -13.11203,-2.13352 -15.67412,-2.43599c-2.2973,-0.27121 -4.0085,12.0338 -7.50417,-7.99835c-1.94357,-11.1377 -4.81002,-47.93476 -5.1287,-51.16304c-0.45647,-4.62413 2.64432,22.54201 5.21466,32.99983z" fill="#141414" stroke="none" stroke-width="0"/><path d="M200.27341,309.55731l-6.27997,-63.61716l25.42177,3.00114l6.27997,63.61716z" fill="none" stroke="#000000" stroke-width="3.5"/><path d="M200.27341,309.55731l-6.27997,-63.61716l25.42177,3.00114l6.27997,63.61716z" fill="none" stroke="#000000" stroke-width="3.5"/></g><g><path d="M191.71918,280.24015l-1.27151,-12.88053l37.1409,4.38462l1.2715,12.88053z" fill="#252525" stroke="#000000" stroke-width="0"/><path d="M191.71918,280.24015l-1.27151,-12.88053l37.1409,4.38462l1.2715,12.88053z" fill="#252525" stroke="#000000" stroke-width="0"/><path d="M194.32763,275.29181c2.36435,2.24012 5.98476,1.24239 8.53425,1.54336c2.47863,0.29262 13.24755,4.04028 19.08369,2.24084c3.54394,-1.0927 2.45231,-8.52405 4.68643,-7.66201c1.8386,0.70941 1.91045,12.66156 1.95328,13.09543c0.18057,1.82924 -19.84706,-0.43346 -25.06949,-1.04999c-3.35633,-0.39623 -8.95715,-0.48847 -11.59813,-4.77258c-1.46837,-2.38193 -1.07338,-9.71707 -1.1379,-10.3707c-0.09242,-0.93624 1.06903,4.62706 3.54787,6.97565z" fill="#141414" stroke="none" stroke-width="0"/><path d="M191.71918,280.24015l-1.27151,-12.88053l37.1409,4.38462l1.2715,12.88053z" fill="none" stroke="#000000" stroke-width="3.5"/><path d="M191.71918,280.24015l-1.27151,-12.88053l37.1409,4.38462l1.2715,12.88053z" fill="none" stroke="#000000" stroke-width="3.5"/></g><g><path d="M191.52804,300.4044l-1.2715,-12.88054l41.96177,4.95375l1.2715,12.88054z" fill="#252525" stroke="#000000" stroke-width="0"/><path d="M191.52804,300.4044l-1.2715,-12.88054l41.96177,4.95375l1.2715,12.88054z" fill="#252525" stroke="#000000" stroke-width="0"/><path d="M194.54322,295.50408c2.64583,2.27334 6.75463,1.33326 9.63504,1.6733c2.80036,0.3306 14.93498,4.2395 21.56091,2.5333c4.02354,-1.03609 2.88488,-8.473 5.40123,-7.57764c2.07086,0.73683 1.99721,12.67181 2.04004,13.10568c0.18057,1.82924 -22.44797,-0.74052 -28.34827,-1.43707c-3.79199,-0.44766 -10.12717,-0.62658 -13.05945,-4.94509c-1.63032,-2.40105 -1.08838,-9.71884 -1.1529,-10.37246c-0.09242,-0.93624 1.14945,4.63655 3.92338,7.01998z" fill="#141414" stroke="none" stroke-width="0"/><path d="M191.52804,300.4044l-1.2715,-12.88054l41.96177,4.95375l1.2715,12.88054z" fill="none" stroke="#000000" stroke-width="3.5"/><path d="M191.52804,300.4044l-1.2715,-12.88054l41.96177,4.95375l1.2715,12.88054z" fill="none" stroke="#000000" stroke-width="3.5"/></g></g><g><path d="M186.83081,255.08733l-1.46036,-14.79371l43.33918,5.11635l1.46036,14.79372z" fill="#252525" stroke="#000000" stroke-width="0"/><path d="M186.83081,255.08733l-1.46036,-14.79371l43.33918,5.11635l1.46036,14.79372z" fill="#252525" stroke="#000000" stroke-width="0"/><path d="M189.88422,249.4108c2.75534,2.57755 6.98254,1.43976 9.95751,1.79097c2.89229,0.34145 15.45384,4.66858 22.26852,2.61504c4.13815,-1.24698 2.87771,-9.78294 5.48359,-8.78814c2.14453,0.81867 2.20648,14.54366 2.25567,15.04196c0.20739,2.10095 -23.16276,-0.54125 -29.25674,-1.26067c-3.91646,-0.46236 -10.453,-0.58054 -13.52744,-5.50585c-1.70936,-2.73843 -1.23493,-11.16063 -1.30904,-11.91134c-0.10615,-1.0753 1.23919,5.31568 4.12794,8.01803z" fill="#141414" stroke="none" stroke-width="0"/><path d="M186.83081,255.08733l-1.46036,-14.79371l43.33918,5.11635l1.46036,14.79372z" fill="none" stroke="#000000" stroke-width="3.5"/><path d="M186.83081,255.08733l-1.46036,-14.79371l43.33918,5.11635l1.46036,14.79372z" fill="none" stroke="#000000" stroke-width="3.5"/></g></g><g data-paper-data="{&quot;index&quot;:null}" stroke-linecap="butt"><g><g><path d="M247.16509,314.55845l6.27996,-63.61716l25.42177,-3.00114l-6.27996,63.61716z" fill="#252525" stroke="#000000" stroke-width="0"/><path d="M247.16509,314.55845l6.27996,-63.61716l25.42177,-3.00114l-6.27996,63.61716z" fill="#252525" stroke="#000000" stroke-width="0"/><path d="M278.2497,252.54376c-0.31868,3.22828 -3.18513,40.02535 -5.12869,51.16305c-3.49567,20.03215 -5.20688,7.72713 -7.50418,7.99834c-2.56209,0.30246 -11.27271,2.52835 -15.67411,2.43599c-1.73938,-0.0365 -2.80694,2.54054 -2.55432,-0.01854c0.21153,-2.14285 5.33604,-61.73775 6.80373,-64.34283c1.78342,-3.16549 -2.06688,33.35616 -0.28328,40.60881c2.93723,11.9436 11.36052,-1.28164 13.05706,-1.48192c1.74505,-0.20601 3.6175,6.61173 6.06912,-3.36306c2.57034,-10.45782 5.67113,-37.62396 5.21466,-32.99983z" fill="#141414" stroke="none" stroke-width="0"/><path d="M247.16509,314.55845l6.27996,-63.61716l25.42177,-3.00114l-6.27996,63.61716z" fill="none" stroke="#000000" stroke-width="3.5"/><path d="M247.16509,314.55845l6.27996,-63.61716l25.42177,-3.00114l-6.27996,63.61716z" fill="none" stroke="#000000" stroke-width="3.5"/></g><g><path d="M244.0002,286.62477l1.2715,-12.88053l37.14089,-4.38462l-1.27151,12.88053z" fill="#252525" stroke="#000000" stroke-width="0"/><path d="M244.0002,286.62477l1.2715,-12.88053l37.14089,-4.38462l-1.27151,12.88053z" fill="#252525" stroke="#000000" stroke-width="0"/><path d="M282.0805,270.31616c-0.06452,0.65362 0.33047,7.98875 -1.1379,10.37069c-2.64098,4.28411 -8.2418,4.37636 -11.59813,4.77258c-5.22244,0.61653 -25.25006,2.87923 -25.06949,1.04999c0.04283,-0.43387 0.11468,-12.38602 1.95328,-13.09543c2.23412,-0.86203 1.14249,6.56932 4.68643,7.66201c5.83614,1.79944 16.60505,-1.94822 19.08369,-2.24084c2.54949,-0.30097 6.16989,0.69676 8.53424,-1.54336c2.47884,-2.34859 3.64029,-7.91189 3.54787,-6.97565z" fill="#141414" stroke="none" stroke-width="0"/><path d="M244.0002,286.62477l1.2715,-12.88053l37.14089,-4.38462l-1.27151,12.88053z" fill="none" stroke="#000000" stroke-width="3.5"/><path d="M244.0002,286.62477l1.2715,-12.88053l37.14089,-4.38462l-1.27151,12.88053z" fill="none" stroke="#000000" stroke-width="3.5"/></g><g><path d="M239.37045,307.35814l1.27151,-12.88053l41.96177,-4.95375l-1.2715,12.88054z" fill="#252525" stroke="#000000" stroke-width="0"/><path d="M239.37045,307.35814l1.27151,-12.88053l41.96177,-4.95375l-1.2715,12.88054z" fill="#252525" stroke="#000000" stroke-width="0"/><path d="M282.24042,290.4841c-0.06452,0.65362 0.47743,7.97141 -1.15289,10.37246c-2.93228,4.31851 -9.26746,4.49743 -13.05945,4.94509c-5.9003,0.69655 -28.52883,3.26631 -28.34826,1.43707c0.04283,-0.43387 -0.03083,-12.36884 2.04004,-13.10567c2.51636,-0.89536 1.37769,6.54155 5.40123,7.57763c6.62593,1.7062 18.76055,-2.2027 21.56092,-2.5333c2.88042,-0.34004 6.98922,0.60004 9.63504,-1.6733c2.77393,-2.38343 4.0158,-7.95622 3.92338,-7.01998z" fill="#141414" stroke="none" stroke-width="0"/><path d="M239.37045,307.35814l1.27151,-12.88053l41.96177,-4.95375l-1.2715,12.88054z" fill="none" stroke="#000000" stroke-width="3.5"/><path d="M239.37045,307.35814l1.27151,-12.88053l41.96177,-4.95375l-1.2715,12.88054z" fill="none" stroke="#000000" stroke-width="3.5"/></g></g><g><path d="M242.69028,262.20368l1.46036,-14.79372l43.33917,-5.11635l-1.46036,14.79372z" fill="#252525" stroke="#000000" stroke-width="0"/><path d="M242.69028,262.20368l1.46036,-14.79372l43.33917,-5.11635l-1.46036,14.79372z" fill="#252525" stroke="#000000" stroke-width="0"/><path d="M287.10398,243.39277c-0.07411,0.75071 0.40032,9.1729 -1.30904,11.91133c-3.07444,4.92531 -9.61098,5.0435 -13.52744,5.50585c-6.09398,0.71942 -29.46413,3.36162 -29.25674,1.26067c0.04919,-0.49831 0.11114,-14.2233 2.25567,-15.04196c2.60587,-0.9948 1.34545,7.54116 5.4836,8.78814c6.81468,2.05354 19.37622,-2.27359 22.26851,-2.61504c2.97496,-0.3512 7.20218,0.78659 9.95751,-1.79096c2.88875,-2.70235 4.23408,-9.09333 4.12793,-8.01803z" fill="#141414" stroke="none" stroke-width="0"/><path d="M242.69028,262.20368l1.46036,-14.79372l43.33917,-5.11635l-1.46036,14.79372z" fill="none" stroke="#000000" stroke-width="3.5"/><path d="M242.69028,262.20368l1.46036,-14.79372l43.33917,-5.11635l-1.46036,14.79372z" fill="none" stroke="#000000" stroke-width="3.5"/></g></g><g stroke-linecap="butt"><path d="M197.3998,208.48503l0.3652,-9.94935l75.89357,0.59341l-0.36521,9.94935z" fill="#252525" stroke="#000000" stroke-width="0"/><path d="M197.3998,208.48503l0.3652,-9.94935l75.89357,0.59341l-0.36521,9.94935z" fill="#252525" stroke="#000000" stroke-width="0"/><path d="M197.3998,208.48503l0.3652,-9.94935l75.89357,0.59341l-0.36521,9.94935z" fill="none" stroke="#000000" stroke-width="3.5"/><path d="M198.23005,199.25646c-0.01853,0.50489 -2.54396,6.25594 -0.05763,8.00198c4.47189,3.1404 16.04901,2.78613 22.90734,2.83976c10.6715,0.08345 51.61956,0.32416 51.67142,-1.08881c0.0123,-0.33513 2.64572,-9.65167 -0.99665,-10.06507c-4.42593,-0.50233 -3.89516,5.21066 -11.48859,6.33258c-12.50481,1.84759 -33.93352,-0.25591 -38.99837,-0.29551c-5.20962,-0.04074 -12.9393,1.01296 -17.31412,-0.55429c-4.58667,-1.64314 -5.69686,-5.89382 -5.7234,-5.17064z" fill="#141414" stroke="none" stroke-width="0"/><path d="M197.3998,208.48503l0.3652,-9.94935l75.89357,0.59341l-0.36521,9.94935z" fill="none" stroke="#000000" stroke-width="3.5"/></g><g stroke-linecap="butt"><g><path d="M165.45209,335.90458l0.30272,-29.3689l62.90794,1.75167l-0.30272,29.36891z" fill="#252525" stroke="#000000" stroke-width="0"/><path d="M165.45209,335.90458l0.30272,-29.3689l62.90794,1.75167l-0.30272,29.36891z" fill="#252525" stroke="#000000" stroke-width="0"/><path d="M165.45209,335.90458l0.30272,-29.3689l62.90794,1.75167l-0.30272,29.36891z" fill="none" stroke="#000000" stroke-width="3.5"/><path d="M166.14029,308.66332c-0.01536,1.49034 -2.10868,18.46655 -0.04776,23.62057c3.70674,9.26997 13.30297,5.36718 18.98781,5.52548c8.84557,0.24631 42.78729,3.8139 42.83028,-0.35695c0.0102,-0.98925 2.19304,-28.4902 -0.82611,-29.71048c-3.66864,-1.4828 -3.22869,15.38103 -9.52286,18.69278c-10.36519,5.45378 -28.12738,-0.7554 -32.32562,-0.87232c-4.31823,-0.12025 -10.72534,2.99008 -14.35162,-1.63618c-3.80188,-4.85028 -4.7221,-17.39763 -4.74411,-15.26291z" fill="#141414" stroke="none" stroke-width="0"/><path d="M165.45209,335.90458l0.30272,-29.3689l62.90794,1.75167l-0.30272,29.36891z" fill="none" stroke="#000000" stroke-width="3.5"/></g><g><path d="M147.22152,343.52336l0.14835,-29.3689l30.8288,1.75167l-0.14835,29.36892z" fill="#252525" stroke="#000000" stroke-width="0"/><path d="M147.22152,343.52336l0.14835,-29.3689l30.8288,1.75167l-0.14835,29.36892z" fill="#6c6c6c" stroke="#000000" stroke-width="0"/><path d="M147.22152,343.52336l0.14835,-29.3689l30.8288,1.75167l-0.14835,29.36892z" fill="none" stroke="#000000" stroke-width="3.5"/><path d="M147.55878,316.2821c-0.00752,1.49034 -1.03339,18.46654 -0.02341,23.62057c1.81653,9.26997 6.51928,5.36718 9.30521,5.52549c4.33488,0.24631 20.96842,3.81389 20.9895,-0.35696c0.005,-0.98925 1.07472,-28.4902 -0.40485,-29.71048c-1.79786,-1.4828 -1.58226,15.38103 -4.66679,18.69277c-5.07959,5.45378 -13.78416,-0.7554 -15.84156,-0.87232c-2.11621,-0.12024 -5.25609,2.99008 -7.03319,-1.63617c-1.86316,-4.85027 -2.31412,-17.39761 -2.32491,-15.2629z" fill="#545454" stroke="none" stroke-width="0"/><path d="M147.22152,343.52336l0.14835,-29.3689l30.8288,1.75167l-0.14835,29.36892z" fill="none" stroke="#000000" stroke-width="3.5"/></g><g><path d="M193.56907,346.22168l0.14835,-29.3689l30.8288,1.75167l-0.14836,29.36892z" fill="#252525" stroke="#000000" stroke-width="0"/><path d="M193.56907,346.22168l0.14835,-29.3689l30.8288,1.75167l-0.14836,29.36892z" fill="#6c6c6c" stroke="#000000" stroke-width="0"/><path d="M193.56907,346.22168l0.14835,-29.3689l30.8288,1.75167l-0.14836,29.36892z" fill="none" stroke="#000000" stroke-width="3.5"/><path d="M193.90634,318.98042c-0.00752,1.49034 -1.03338,18.46654 -0.02341,23.62057c1.81653,9.26997 6.51929,5.36718 9.30522,5.52549c4.33488,0.24631 20.96842,3.8139 20.98949,-0.35695c0.005,-0.98925 1.07472,-28.49021 -0.40485,-29.71048c-1.79787,-1.4828 -1.58226,15.38103 -4.6668,18.69277c-5.07959,5.45378 -13.78416,-0.7554 -15.84155,-0.87231c-2.1162,-0.12024 -5.25609,2.99008 -7.0332,-1.63618c-1.86316,-4.85027 -2.31412,-17.39761 -2.3249,-15.2629z" fill="#545454" stroke="none" stroke-width="0"/><path d="M193.56907,346.22168l0.14835,-29.3689l30.8288,1.75167l-0.14836,29.36892z" fill="none" stroke="#000000" stroke-width="3.5"/></g><g><path d="M168.17315,346.06295l0.14835,-29.3689l30.8288,1.75167l-0.14835,29.36892z" fill="#252525" stroke="#000000" stroke-width="0"/><path d="M168.17315,346.06295l0.14835,-29.3689l30.8288,1.75167l-0.14835,29.36892z" fill="#6c6c6c" stroke="#000000" stroke-width="0"/><path d="M168.17315,346.06295l0.14835,-29.3689l30.8288,1.75167l-0.14835,29.36892z" fill="none" stroke="#000000" stroke-width="3.5"/><path d="M168.51042,318.82169c-0.00752,1.49034 -1.03338,18.46654 -0.02341,23.62057c1.81653,9.26997 6.51929,5.36718 9.30521,5.52549c4.33488,0.24631 20.96842,3.8139 20.98949,-0.35695c0.005,-0.98925 1.07471,-28.49021 -0.40485,-29.71048c-1.79787,-1.4828 -1.58226,15.38104 -4.6668,18.69278c-5.07959,5.45378 -13.78416,-0.75541 -15.84155,-0.87232c-2.1162,-0.12024 -5.25609,2.99009 -7.03319,-1.63617c-1.86316,-4.85027 -2.31413,-17.39762 -2.3249,-15.26291z" fill="#545454" stroke="none" stroke-width="0"/><path d="M168.17315,346.06295l0.14835,-29.3689l30.8288,1.75167l-0.14835,29.36892z" fill="none" stroke="#000000" stroke-width="3.5"/></g></g><g data-paper-data="{&quot;index&quot;:null}" stroke-linecap="butt"><g><path d="M242.41378,337.65626l-0.30272,-29.36892l62.90794,-1.75166l0.30272,29.3689z" fill="#252525" stroke="#000000" stroke-width="0"/><path d="M242.41378,337.65626l-0.30272,-29.36892l62.90794,-1.75166l0.30272,29.3689z" fill="#252525" stroke="#000000" stroke-width="0"/><path d="M242.41378,337.65626l-0.30272,-29.36892l62.90794,-1.75166l0.30272,29.3689z" fill="none" stroke="#000000" stroke-width="3.5"/><path d="M304.63352,308.66332c0.01536,1.49034 2.10868,18.46655 0.04777,23.62057c-3.70673,9.26997 -13.30298,5.36718 -18.98782,5.52548c-8.84557,0.24631 -42.78728,3.8139 -42.83027,-0.35695c-0.0102,-0.98925 -2.19304,-28.4902 0.82611,-29.71048c3.66864,-1.4828 3.22869,15.38103 9.52286,18.69278c10.36519,5.45378 28.12738,-0.7554 32.32561,-0.87232c4.31824,-0.12025 10.72534,2.99008 14.35162,-1.63618c3.80188,-4.85028 4.7221,-17.39763 4.74411,-15.26291z" fill="#141414" stroke="none" stroke-width="0"/><path d="M242.41378,337.65626l-0.30272,-29.36892l62.90794,-1.75166l0.30272,29.3689z" fill="none" stroke="#000000" stroke-width="3.5"/></g><g><path d="M292.72349,345.27504l-0.14835,-29.36892l30.8288,-1.75167l0.14835,29.3689z" fill="#252525" stroke="#000000" stroke-width="0"/><path d="M292.72349,345.27504l-0.14835,-29.36892l30.8288,-1.75167l0.14835,29.3689z" fill="#6c6c6c" stroke="#000000" stroke-width="0"/><path d="M292.72349,345.27504l-0.14835,-29.36892l30.8288,-1.75167l0.14835,29.3689z" fill="none" stroke="#000000" stroke-width="3.5"/><path d="M323.21503,316.2821c0.00752,1.49034 1.03339,18.46654 0.02341,23.62057c-1.81653,9.26997 -6.51929,5.36719 -9.30522,5.52549c-4.33488,0.24631 -20.96842,3.81389 -20.98949,-0.35696c-0.005,-0.98925 -1.07472,-28.4902 0.40485,-29.71048c1.79786,-1.4828 1.58226,15.38103 4.66679,18.69278c5.07959,5.45378 13.78417,-0.75541 15.84156,-0.87232c2.1162,-0.12024 5.25608,2.99009 7.03319,-1.63617c1.86316,-4.85027 2.31413,-17.39762 2.32491,-15.26291z" fill="#545454" stroke="none" stroke-width="0"/><path d="M292.72349,345.27504l-0.14835,-29.36892l30.8288,-1.75167l0.14835,29.3689z" fill="none" stroke="#000000" stroke-width="3.5"/></g><g><path d="M246.37594,347.97336l-0.14835,-29.36892l30.82879,-1.75167l0.14836,29.36891z" fill="#252525" stroke="#000000" stroke-width="0"/><path d="M246.37594,347.97336l-0.14835,-29.36892l30.82879,-1.75167l0.14836,29.36891z" fill="#6c6c6c" stroke="#000000" stroke-width="0"/><path d="M246.37594,347.97336l-0.14835,-29.36892l30.82879,-1.75167l0.14836,29.36891z" fill="none" stroke="#000000" stroke-width="3.5"/><path d="M276.86748,318.98042c0.00752,1.49034 1.03338,18.46654 0.02341,23.62057c-1.81653,9.26997 -6.51929,5.36718 -9.30522,5.52549c-4.33488,0.24631 -20.96842,3.8139 -20.98949,-0.35695c-0.005,-0.98925 -1.07472,-28.49021 0.40485,-29.71048c1.79787,-1.4828 1.58226,15.38103 4.6668,18.69277c5.07959,5.45378 13.78416,-0.7554 15.84156,-0.87231c2.1162,-0.12024 5.25608,2.99008 7.03319,-1.63618c1.86316,-4.85027 2.31413,-17.39761 2.32491,-15.2629z" fill="#545454" stroke="none" stroke-width="0"/><path d="M246.37594,347.97336l-0.14835,-29.36892l30.82879,-1.75167l0.14836,29.36891z" fill="none" stroke="#000000" stroke-width="3.5"/></g><g><path d="M271.77186,347.81463l-0.14835,-29.36892l30.8288,-1.75167l0.14835,29.3689z" fill="#252525" stroke="#000000" stroke-width="0"/><path d="M271.77186,347.81463l-0.14835,-29.36892l30.8288,-1.75167l0.14835,29.3689z" fill="#6c6c6c" stroke="#000000" stroke-width="0"/><path d="M271.77186,347.81463l-0.14835,-29.36892l30.8288,-1.75167l0.14835,29.3689z" fill="none" stroke="#000000" stroke-width="3.5"/><path d="M302.2634,318.82169c0.00752,1.49034 1.03338,18.46654 0.02341,23.62057c-1.81653,9.26997 -6.51929,5.36718 -9.30522,5.52549c-4.33488,0.24631 -20.96842,3.8139 -20.98949,-0.35695c-0.005,-0.98925 -1.07471,-28.49021 0.40485,-29.71048c1.79787,-1.4828 1.58226,15.38103 4.66679,18.69277c5.07959,5.45378 13.78416,-0.7554 15.84156,-0.87231c2.1162,-0.12024 5.25608,2.99008 7.03319,-1.63618c1.86316,-4.85027 2.31413,-17.39761 2.32491,-15.2629z" fill="#545454" stroke="none" stroke-width="0"/><path d="M271.77186,347.81463l-0.14835,-29.36892l30.8288,-1.75167l0.14835,29.3689z" fill="none" stroke="#000000" stroke-width="3.5"/></g></g><g><g stroke-linecap="butt"><g><g><path d="M151.67393,129.3377l34.67884,-25.07353l14.45557,19.74491l-34.67883,25.07352z" fill="#252525" stroke="#000000" stroke-width="0"/><path d="M151.67393,129.3377l34.67884,-25.07353l14.45557,19.74491l-34.67883,25.07352z" fill="#252525" stroke="#000000" stroke-width="0"/><path d="M183.94744,106.19878c-1.75979,1.27237 -22.30909,15.20937 -27.83984,20.2227c-9.94755,9.0169 -1.366,6.32868 -0.05969,8.11298c1.45688,1.98996 5.68149,9.1401 8.55654,12.36207c1.13619,1.27328 0.25217,2.88972 1.64717,1.88111c1.1681,-0.84456 34.14005,-23.77251 34.78485,-25.69356c0.7835,-2.33431 -18.96813,12.24107 -24.5225,13.25297c-9.1469,1.66638 -6.49613,-8.80452 -7.46084,-10.12221c-0.99229,-1.35537 -6.339,-0.54881 -1.84107,-5.56394c4.71573,-5.25799 19.25608,-16.27462 16.73539,-14.45211z" fill="#141414" stroke="none" stroke-width="0"/><path d="M151.67393,129.3377l34.67884,-25.07353l14.45557,19.74491l-34.67883,25.07352z" fill="none" stroke="#000000" stroke-width="3.5"/><path d="M151.67393,129.3377l34.67884,-25.07353l14.45557,19.74491l-34.67883,25.07352z" fill="none" stroke="#000000" stroke-width="3.5"/></g><g><path d="M164.03018,113.60129l7.02141,-5.07663l21.11942,28.84707l-7.02141,5.07662z" fill="#252525" stroke="#000000" stroke-width="0"/><path d="M164.03018,113.60129l7.02141,-5.07663l21.11942,28.84707l-7.02141,5.07662z" fill="#252525" stroke="#000000" stroke-width="0"/><path d="M170.68237,109.07725c-0.3563,0.25762 -5.07152,2.32188 -5.58013,4.17175c-0.91479,3.32716 2.61612,7.49452 4.52463,10.10137c2.96963,4.05622 14.41977,19.5789 15.41692,18.85794c0.2365,-0.171 7.46144,-4.06316 6.71549,-5.64933c-0.90643,-1.9274 -4.72807,1.26605 -7.66251,-1.00114c-4.8324,-3.7336 -9.44947,-12.89316 -10.85889,-14.8183c-1.44971,-1.98017 -4.37536,-4.33436 -4.52685,-6.80061c-0.15883,-2.58567 2.4817,-5.23068 1.97134,-4.86167z" fill="#141414" stroke="none" stroke-width="0"/><path d="M164.03018,113.60129l7.02141,-5.07663l21.11942,28.84707l-7.02141,5.07662z" fill="none" stroke="#000000" stroke-width="3.5"/><path d="M164.03018,113.60129l7.02141,-5.07663l21.11942,28.84707l-7.02141,5.07662z" fill="none" stroke="#000000" stroke-width="3.5"/></g><g><path d="M151.64107,119.9369l7.02141,-5.07662l23.86072,32.59142l-7.0214,5.07663z" fill="#252525" stroke="#000000" stroke-width="0"/><path d="M151.64107,119.9369l7.02141,-5.07662l23.86072,32.59142l-7.0214,5.07663z" fill="#252525" stroke="#000000" stroke-width="0"/><path d="M158.311,115.43711c-0.3563,0.25762 -5.1551,2.20773 -5.57162,4.1834c-0.74915,3.55341 3.19935,8.29115 5.35558,11.23636c3.35509,4.58273 16.28418,22.1255 17.28133,21.40454c0.2365,-0.171 7.54419,-3.95014 6.66616,-5.71671c-1.06691,-2.14661 -4.86182,1.08336 -8.06897,-1.55633c-5.28151,-4.34703 -10.67514,-14.56731 -12.2675,-16.74234c-1.63789,-2.2372 -4.84126,-4.97072 -5.1528,-7.65559c-0.32663,-2.81488 2.26818,-5.52233 1.75782,-5.15333z" fill="#141414" stroke="none" stroke-width="0"/><path d="M151.64107,119.9369l7.02141,-5.07662l23.86072,32.59142l-7.0214,5.07663z" fill="none" stroke="#000000" stroke-width="3.5"/><path d="M151.64107,119.9369l7.02141,-5.07662l23.86072,32.59142l-7.0214,5.07663z" fill="none" stroke="#000000" stroke-width="3.5"/></g></g><g><path d="M176.20089,101.91072l8.06432,-5.83067l24.64395,33.66123l-8.06431,5.83067z" fill="#252525" stroke="#000000" stroke-width="0"/><path d="M176.20089,101.91072l8.06432,-5.83067l24.64395,33.66123l-8.06431,5.83067z" fill="#252525" stroke="#000000" stroke-width="0"/><path d="M183.84366,96.71814c-0.40922,0.29588 -5.83662,2.65062 -6.40777,4.79304c-1.02724,3.85334 3.08716,8.72034 5.31418,11.76223c3.46522,4.73315 16.8252,22.84708 17.97046,22.01903c0.27164,-0.1964 8.58141,-4.65068 7.70598,-6.49796c-1.06375,-2.24468 -5.44926,1.42827 -8.85812,-1.22835c-5.61368,-4.3749 -11.02632,-15.04493 -12.67096,-17.29135c-1.69165,-2.31064 -5.09112,-5.06813 -5.28774,-7.93161c-0.20614,-3.00214 2.82013,-6.04884 2.23396,-5.62503z" fill="#141414" stroke="none" stroke-width="0"/><path d="M176.20089,101.91072l8.06432,-5.83067l24.64395,33.66123l-8.06431,5.83067z" fill="none" stroke="#000000" stroke-width="3.5"/><path d="M176.20089,101.91072l8.06432,-5.83067l24.64395,33.66123l-8.06431,5.83067z" fill="none" stroke="#000000" stroke-width="3.5"/></g></g><path d="M153.56732,133.43694l-1,34.66667" fill="none" stroke="#000000" stroke-width="2" stroke-linecap="round"/><path d="M157.23399,138.43694l1.33333,12.66667" fill="none" stroke="#000000" stroke-width="2" stroke-linecap="round"/><path d="M164.23399,148.1036l-6.66667,26.33333v7.66667" fill="none" stroke="#000000" stroke-width="2" stroke-linecap="round"/><path d="M150.56732,132.1036l-5,15.66667l1.33334,22" fill="none" stroke="#000000" stroke-width="2" stroke-linecap="round"/></g><g><g data-paper-data="{&quot;index&quot;:null}" stroke-linecap="butt"><g><g><path d="M318.1439,149.08261l-34.67883,-25.07352l14.45558,-19.74491l34.67883,25.07353z" fill="#252525" stroke="#000000" stroke-width="0"/><path d="M318.1439,149.08261l-34.67883,-25.07352l14.45558,-19.74491l34.67883,25.07353z" fill="#252525" stroke="#000000" stroke-width="0"/><path d="M300.32596,106.19878c1.75979,1.27237 22.30908,15.20937 27.83983,20.2227c9.94755,9.0169 1.366,6.32868 0.05969,8.11298c-1.45688,1.98996 -5.68148,9.1401 -8.55653,12.36207c-1.13619,1.27328 -0.25218,2.88972 -1.64718,1.88111c-1.16811,-0.84456 -34.14005,-23.77251 -34.78485,-25.69356c-0.7835,-2.33431 18.96813,12.24107 24.52251,13.25297c9.1469,1.66638 6.49613,-8.80452 7.46085,-10.12221c0.99228,-1.35537 6.339,-0.54881 1.84107,-5.56394c-4.71573,-5.25799 -19.25608,-16.27462 -16.73539,-14.45211z" fill="#141414" stroke="none" stroke-width="0"/><path d="M318.1439,149.08261l-34.67883,-25.07352l14.45558,-19.74491l34.67883,25.07353z" fill="none" stroke="#000000" stroke-width="3.5"/><path d="M318.1439,149.08261l-34.67883,-25.07352l14.45558,-19.74491l34.67883,25.07353z" fill="none" stroke="#000000" stroke-width="3.5"/></g><g><path d="M299.12379,142.44835l-7.0214,-5.07662l21.11942,-28.84707l7.0214,5.07663z" fill="#252525" stroke="#000000" stroke-width="0"/><path d="M299.12379,142.44835l-7.0214,-5.07662l21.11942,-28.84707l7.0214,5.07663z" fill="#252525" stroke="#000000" stroke-width="0"/><path d="M313.59103,109.07725c0.35631,0.25762 5.07152,2.32188 5.58014,4.17175c0.91479,3.32716 -2.61613,7.49452 -4.52463,10.10137c-2.96963,4.05622 -14.41977,19.5789 -15.41692,18.85794c-0.23651,-0.171 -7.46144,-4.06316 -6.71549,-5.64933c0.90643,-1.9274 4.72807,1.26605 7.66251,-1.00114c4.8324,-3.7336 9.44946,-12.89316 10.85889,-14.8183c1.44972,-1.98017 4.37536,-4.33436 4.52685,-6.80061c0.15882,-2.58567 -2.4817,-5.23068 -1.97134,-4.86167z" fill="#141414" stroke="none" stroke-width="0"/><path d="M299.12379,142.44835l-7.0214,-5.07662l21.11942,-28.84707l7.0214,5.07663z" fill="none" stroke="#000000" stroke-width="3.5"/><path d="M299.12379,142.44835l-7.0214,-5.07662l21.11942,-28.84707l7.0214,5.07663z" fill="none" stroke="#000000" stroke-width="3.5"/></g><g><path d="M308.77162,152.52832l-7.02141,-5.07663l23.86072,-32.59142l7.02141,5.07662z" fill="#252525" stroke="#000000" stroke-width="0"/><path d="M308.77162,152.52832l-7.02141,-5.07663l23.86072,-32.59142l7.02141,5.07662z" fill="#252525" stroke="#000000" stroke-width="0"/><path d="M325.9624,115.43711c0.35631,0.25762 5.15509,2.20773 5.57161,4.1834c0.74915,3.55341 -3.19935,8.29115 -5.35559,11.23636c-3.35509,4.58273 -16.28418,22.1255 -17.28133,21.40454c-0.23651,-0.171 -7.54419,-3.95014 -6.66616,-5.71671c1.06691,-2.14661 4.86183,1.08336 8.06898,-1.55633c5.2815,-4.34703 10.67513,-14.56731 12.2675,-16.74234c1.63789,-2.2372 4.84125,-4.97072 5.1528,-7.65559c0.32662,-2.81488 -2.26817,-5.52233 -1.75781,-5.15333z" fill="#141414" stroke="none" stroke-width="0"/><path d="M308.77162,152.52832l-7.02141,-5.07663l23.86072,-32.59142l7.02141,5.07662z" fill="none" stroke="#000000" stroke-width="3.5"/><path d="M308.77162,152.52832l-7.02141,-5.07663l23.86072,-32.59142l7.02141,5.07662z" fill="none" stroke="#000000" stroke-width="3.5"/></g></g><g><path d="M283.42856,135.57195l-8.06432,-5.83067l24.64395,-33.66123l8.06431,5.83067z" fill="#252525" stroke="#000000" stroke-width="0"/><path d="M283.42856,135.57195l-8.06432,-5.83067l24.64395,-33.66123l8.06431,5.83067z" fill="#252525" stroke="#000000" stroke-width="0"/><path d="M300.42975,96.71814c0.40922,0.29588 5.83662,2.65062 6.40776,4.79304c1.02724,3.85334 -3.08717,8.72034 -5.31418,11.76223c-3.46522,4.73315 -16.8252,22.84708 -17.97046,22.01903c-0.27164,-0.1964 -8.58141,-4.65068 -7.70598,-6.49796c1.06375,-2.24468 5.44927,1.42827 8.85812,-1.22835c5.61368,-4.3749 11.02632,-15.04493 12.67096,-17.29135c1.69166,-2.31064 5.09112,-5.06813 5.28774,-7.93161c0.20614,-3.00214 -2.82012,-6.04884 -2.23396,-5.62503z" fill="#141414" stroke="none" stroke-width="0"/><path d="M283.42856,135.57195l-8.06432,-5.83067l24.64395,-33.66123l8.06431,5.83067z" fill="none" stroke="#000000" stroke-width="3.5"/><path d="M283.42856,135.57195l-8.06432,-5.83067l24.64395,-33.66123l8.06431,5.83067z" fill="none" stroke="#000000" stroke-width="3.5"/></g></g><path d="M330.50735,132.82322l6.66667,44" fill="none" stroke="#000000" stroke-width="2" stroke-linecap="round"/><path d="M327.17401,138.82322l-2,53" fill="none" stroke="#000000" stroke-width="2" stroke-linecap="round"/><path d="M322.17401,145.15655l0.33333,6" fill="none" stroke="#000000" stroke-width="2" stroke-linecap="round"/><path d="M332.84068,131.48988l-7.66667,40l-4.66667,17.66666" fill="none" stroke="#000000" stroke-width="2" stroke-linecap="round"/></g></g></g></svg>