<svg version="1.1" xmlns="http://www.w3.org/2000/svg" xmlns:xlink="http://www.w3.org/1999/xlink" width="291.28383" height="348.65711" viewBox="0,0,291.28383,348.65711"><g transform="translate(-93.29625,-5.46178)"><g data-paper-data="{&quot;isPaintingLayer&quot;:true}" fill-rule="nonzero" stroke-width="4" stroke-linejoin="miter" stroke-miterlimit="10" stroke-dasharray="" stroke-dashoffset="0" style="mix-blend-mode: normal"><g data-paper-data="{&quot;index&quot;:null}"><path d="M285.79282,299.12541c0.01636,6.46173 -0.08963,10.07059 -1.45773,13.99537c-4.91709,14.10615 -17.799,15.29111 -25.19302,15.35279c-9.45126,0.07884 -10.80609,-8.82077 -10.88122,-38.50685c-0.07512,-29.68609 -11.49024,-64.54927 -2.03898,-64.62812c3.58996,-0.02995 15.93394,-0.61463 24.11727,6.74929c2.0749,1.86714 4.34526,5.75868 6.04017,8.52741c9.21911,15.05979 9.37412,42.95904 9.41348,58.51011z" fill="#a70000" stroke="#000000" stroke-linecap="butt"/><path d="M285.10992,307.18301c0.02189,8.64883 -14.77507,20.81048 -24.67948,20.89311c-9.9044,0.08262 -11.16564,-11.94505 -11.18753,-20.59388c-0.0113,-4.46761 0.70933,-21.37826 -1.76978,-40.77094c-2.32019,-18.14958 -8.0262,-38.99613 -3.23797,-39.03608c1.26885,-0.01059 25.8638,-1.61713 26.78905,5.26741c0.52157,3.8809 -18.30825,-4.53108 -19.324,0.9331c-4.01062,21.5748 1.71142,65.2115 6.86916,75.89205c9.30715,19.27305 26.5293,-7.0349 26.54057,-2.58478z" fill="#760000" stroke="none" stroke-linecap="butt"/><path d="M285.5584,299.12736c0.01636,6.46173 -0.08964,10.0706 -1.45774,13.99537c-4.91708,14.10615 -17.799,15.29111 -25.19301,15.3528c-9.45126,0.07884 -10.80609,-8.82078 -10.88122,-38.50685c-0.07512,-29.68609 -11.49024,-64.54926 -2.03898,-64.62812c4.25903,-0.03554 20.49371,-1.71732 28.48951,10.84582c9.74772,15.31582 11.04016,46.63239 11.08142,62.94097z" fill="none" stroke="#000000" stroke-linecap="butt"/><path d="M282.1749,266.69065l-18.47736,9.15686l-13.35538,2.81816" fill="none" stroke="#000000" stroke-linecap="round"/></g><g><path d="M193.8627,299.75574c0.15403,-15.55035 0.19288,-43.772 9.5228,-58.76339c1.71529,-2.75615 4.33619,-6.30654 6.4248,-8.15832c8.23743,-7.30339 20.57675,-6.62769 24.1664,-6.57127c9.45042,0.14855 -2.22148,34.92661 -2.51553,64.61133c-0.29404,29.68472 -1.71446,38.57412 -11.16488,38.42556c-7.39336,-0.1162 -20.26618,-1.39613 -25.07911,-15.53816c-1.33909,-3.93475 -1.41848,-7.5443 -1.35448,-14.00574z" fill="#a00000" stroke="#000000" stroke-linecap="butt"/><path d="M221.00693,310.59863c5.23637,-10.64223 11.28004,-54.23554 7.42865,-75.83932c-0.97543,-5.47153 -19.86677,2.80136 -19.3166,-1.07559c0.976,-6.87754 25.55844,-5.08965 26.82716,-5.06971c4.7878,0.07526 -1.07178,20.87915 -3.52577,39.01114c-2.62205,19.37385 -2.02615,36.28937 -2.0704,40.75678c-0.08567,8.64843 -1.43558,20.66648 -11.33909,20.51082c-9.90352,-0.15566 -24.6104,-12.42611 -24.52473,-21.07455c0.04407,-4.44992 17.07175,21.98434 26.52078,2.78044z" fill="#650000" stroke="none" stroke-linecap="butt"/><path d="M194.09709,299.75943c0.16153,-16.30782 1.68488,-47.61402 11.54528,-62.85754c8.08822,-12.50384 24.31005,-10.70236 28.5687,-10.63543c9.45042,0.14855 -2.22149,34.9266 -2.51553,64.61132c-0.29404,29.68473 -1.71447,38.5741 -11.16489,38.42556c-7.39334,-0.1162 -20.26616,-1.39615 -25.0791,-15.53817c-1.33909,-3.93475 -1.41848,-7.5443 -1.35448,-14.00574z" fill="none" stroke="#000000" stroke-linecap="butt"/><path d="M229.4633,279.55797l-13.33423,-2.91657l-18.40935,-9.29287" fill="none" stroke="#000000" stroke-linecap="round"/></g><g data-paper-data="{&quot;index&quot;:null}"><path d="M338.58671,194.83237c1.25039,6.33974 1.79144,9.91052 0.66816,14.1208c-4.03724,15.13235 -21.41232,19.6575 -31.5029,21.64767c-12.89807,2.5439 -16.44053,-5.84001 -22.185,-34.96563c-5.74446,-29.12562 -27.96647,-60.37464 -15.06838,-62.91855c12.89807,-2.5439 62.34364,32.99007 68.0881,62.11569z" fill="#66abff" stroke="#000000" stroke-linecap="butt"/><path d="M339.18504,202.9214c1.6736,8.48555 -16.23185,24.28717 -29.74832,26.95303c-13.51647,2.66587 -17.52554,-8.81353 -19.19916,-17.29908c-0.86452,-4.38326 -3.0938,-21.17389 -10.16653,-39.56627c-6.61937,-17.21342 -18.37724,-36.19107 -11.84277,-37.47987c6.56177,-1.29419 19.73255,61.2949 35.18621,76.85614c16.37901,16.49305 34.90946,-13.83006 35.77059,-9.46396z" fill="#4e83c3" stroke="none" stroke-linecap="butt"/><path d="M338.26681,194.89545c1.25039,6.33974 1.79144,9.91052 0.66816,14.1208c-4.03724,15.13235 -21.41232,19.6575 -31.50287,21.64767c-12.89807,2.54389 -16.44053,-5.84001 -22.185,-34.96563c-5.74447,-29.12563 -27.96646,-60.37463 -15.06839,-62.91853c12.89807,-2.5439 62.34365,32.99006 68.08811,62.11568z" fill="none" stroke="#000000" stroke-linecap="butt"/><path d="M318.02489,164.72628l-14.0505,13.01848l-17.71158,6.25216" fill="none" stroke="#000000" stroke-linecap="round"/></g><g><path d="M140.90988,192.49819c7.68099,-28.67584 59.39399,-60.82069 72.09286,-57.41923c12.69888,3.40146 -11.56477,33.09307 -19.24575,61.76891c-7.68099,28.67584 -11.77663,36.80383 -24.47551,33.40238c-9.93474,-2.66106 -26.96798,-8.33898 -29.98336,-23.70762c-0.83897,-4.27603 -0.06014,-7.80259 1.61177,-14.04443z" fill="#66abff" stroke="#000000" stroke-linecap="butt"/><path d="M139.77151,200.52903c1.15143,-4.29868 17.61079,27.19671 35.05696,11.83688c16.4605,-14.49203 33.79087,-76.05923 40.25131,-74.32877c6.43354,1.72326 -6.56815,19.8714 -14.32476,36.60319c-8.28786,17.87776 -11.63597,34.48154 -12.79192,38.7971c-2.2378,8.35451 -7.00621,19.53984 -20.31394,15.97529c-13.30774,-3.56454 -30.11545,-20.52917 -27.87764,-28.88367z" fill="#4e83c3" stroke="none" stroke-linecap="butt"/><path d="M141.22486,192.58257c7.68099,-28.67584 59.39399,-60.82069 72.09286,-57.41923c12.69888,3.40146 -11.56477,33.09308 -19.24575,61.76891c-7.68099,28.67583 -11.77663,36.80383 -24.47551,33.40238c-9.93473,-2.66108 -26.96797,-8.339 -29.98335,-23.70763c-0.83899,-4.27604 -0.06015,-7.80258 1.61176,-14.04444z" fill="none" stroke="#000000" stroke-linecap="butt"/><path d="M193.84168,185.18909l-17.2534,-7.42358l-13.14767,-13.92969" fill="none" stroke="#000000" stroke-linecap="round"/></g><g stroke-linecap="butt"><path d="M201.94839,194.05672c-1.2306,-14.60733 -12.63875,-46.91482 1.40732,-62.42072c10.83201,-11.95781 46.02151,-9.18082 55.54795,-9.98338c21.87955,-1.84325 20.09802,39.8569 22.27763,65.72909c0.88451,10.49923 6.38994,24.66043 2.11463,32.88753c-6.25994,12.04614 -24.78395,16.20046 -37.78455,17.2957c-9.71092,0.81809 -28.21616,3.40418 -35.68413,-2.87304c-9.35804,-7.86594 -6.66664,-26.24598 -7.87886,-40.63519z" fill="#66abff" stroke="#000000"/><path d="M220.43328,230.6465c10.4857,0.67821 32.29824,-12.82052 41.72604,-13.61476c12.33479,-1.03915 8.90645,-56.38531 9.13909,-78.26479c0.205,-19.2815 4.6858,-5.88432 5.1314,-0.59503c0.35217,4.18027 2.53499,28.69194 4.72524,50.36045c1.26684,12.53305 5.15901,21.95202 1.91553,31.53101c-6.29573,18.59322 -34.45713,17.2402 -44.10216,18.05275c-23.20495,1.9549 -34.9789,-5.29881 -35.93014,-16.59011c-0.56476,-6.70382 2.07192,8.12937 17.39499,9.12046z" fill="#4e83c3" stroke="none"/><path d="M197.04389,150.37205c-0.37985,-4.50882 1.44897,-12.10819 5.87363,-15.90974c6.83039,-5.86849 19.02637,-7.10202 32.46136,-8.23385c12.9508,-1.09105 27.10199,-2.9957 35.14247,0.47015c5.70387,2.45866 7.33428,9.15375 7.73526,13.91342c0.14608,1.73405 -5.28275,-10.86431 -18.76578,-12.44767c-17.5285,-2.05844 -44.6212,6.77433 -49.21512,10.61011c-15.24438,12.72855 20.74944,63.37074 6.30989,64.58721c-22.13804,1.86502 -18.57548,-41.52052 -19.5417,-52.98963z" fill="#4e83c3" stroke="none"/><path d="M202.35173,194.99548c-1.2306,-14.60733 -12.63875,-46.91482 1.40732,-62.42072c10.83201,-11.95781 46.02151,-9.18082 55.54796,-9.98338c21.87955,-1.84325 20.09802,39.8569 22.27763,65.72909c0.88451,10.49923 6.38994,24.66043 2.11463,32.88753c-6.25994,12.04614 -24.78395,16.20046 -37.78455,17.2957c-9.71092,0.81809 -28.21616,3.40419 -35.68413,-2.87304c-9.35804,-7.86594 -6.66663,-26.24599 -7.87886,-40.63519z" fill="none" stroke="#000000"/><path d="M254.8468,201.43535l-5.85877,-69.54417l12.87855,-1.08495l5.85877,69.54417z" data-paper-data="{&quot;index&quot;:null}" fill="#a50000" stroke="#000000"/><path d="M265.92161,178.9398c0.45689,5.42339 -1.83946,10.04455 -5.12905,10.32169c-3.28959,0.27714 -6.32672,-3.89473 -6.78361,-9.3181c-0.17146,-2.03518 7.12775,2.65329 7.5574,-5.35187c0.71529,-13.32696 -4.94564,-41.07363 -2.89053,-41.24676c3.28959,-0.27714 6.78889,40.17166 7.24578,45.59504z" data-paper-data="{&quot;index&quot;:null}" fill="#780000" stroke="none"/><path d="M254.9553,202.7232l-5.85877,-69.54417l12.87855,-1.08495l5.85877,69.54417z" data-paper-data="{&quot;index&quot;:null}" fill="none" stroke="#000000"/><path d="M211.83928,206.67978l-5.85877,-69.54417l12.87855,-1.08495l5.85877,69.54417z" fill="#a50000" stroke="#000000"/><path d="M209.55098,139.10454c2.05512,-0.17314 1.11608,28.12955 4.05092,41.14901c1.7629,7.82043 8.17481,1.97686 8.34626,4.01206c0.45689,5.42339 -1.83946,10.04455 -5.12905,10.32169c-3.28959,0.27714 -6.32672,-3.89473 -6.78361,-9.3181c-0.45689,-5.42339 -3.77414,-45.88752 -0.48454,-46.16464z" fill="#780000" stroke="none"/><path d="M211.94777,207.96762l-5.85877,-69.54417l12.87855,-1.08495l5.85877,69.54417z" fill="none" stroke="#000000"/><path d="M202.93932,201.1067c-1.52048,-18.0483 15.67862,-9.5892 37.46104,-11.42427c21.78242,-1.83507 39.89959,-13.2694 41.42008,4.77889c0.69357,8.23283 5.2825,20.35062 0.00185,28.41727c-6.29577,9.61732 -23.52105,14.5816 -35.3673,15.57959c-9.60047,0.80879 -26.41704,2.60568 -33.65444,-1.54234c-9.18352,-5.2634 -9.01089,-25.71551 -9.86124,-35.80915z" fill="#a50000" stroke="#000000"/><path d="M206.5598,228.68709c-0.57674,-6.84591 -11.85407,-38.72183 9.39489,-40.51195c4.10045,-0.34545 -3.69615,3.58351 -5.58859,10.87917c-2.74512,10.58287 -0.38654,26.36029 7.68354,30.6928c15.19661,8.15846 65.15552,-11.15116 65.45951,-7.54261c0.57674,6.84591 -16.18142,13.84679 -37.4304,15.63693c-21.24897,1.79013 -38.94221,-2.3084 -39.51894,-9.1543z" fill="#780000" stroke="none"/><path d="M203.5561,200.73049c-1.52048,-18.0483 15.67862,-9.5892 37.46104,-11.42426c21.78242,-1.83507 39.89959,-13.2694 41.42008,4.77889c0.69357,8.23283 5.2825,20.35062 0.00184,28.41726c-6.29577,9.61732 -23.52105,14.5816 -35.3673,15.57959c-9.60047,0.80879 -26.41704,2.60568 -33.65444,-1.54233c-9.18352,-5.2634 -9.01089,-25.71551 -9.86124,-35.80915z" fill="none" stroke="#000000"/><path d="M215.56967,177.83159c6.40136,-0.53928 12.04003,4.35702 12.59429,10.9362c0.55426,6.57918 -4.18576,12.34984 -10.58711,12.88912c-6.40136,0.53928 -12.04003,-4.35702 -12.59429,-10.9362c-0.55426,-6.57918 4.18576,-12.34984 10.58711,-12.88912z" fill="#ffe07b" stroke="#000000"/><path d="M219.01692,179.16243c3.65792,-0.30816 6.85919,2.24261 7.15024,5.69732c0.29105,3.45471 -2.43836,6.5051 -6.09628,6.81327c-3.65792,0.30816 -6.85919,-2.24261 -7.15024,-5.69732c-0.29105,-3.45471 2.43836,-6.5051 6.09628,-6.81327z" fill="#ffecac" stroke="none"/><path d="M209.75796,181.42473c1.48064,-0.12474 -0.6749,3.09236 -0.94356,6.59181c-0.24373,3.17484 1.36126,6.58996 3.10054,7.80538c1.33641,0.93388 4.16526,2.72198 6.87277,2.22151c4.01152,-0.7415 7.96043,-4.08804 8.04793,-3.04932c0.30816,3.65792 -3.80767,6.99104 -9.19293,7.44472c-5.38528,0.45368 -10.00072,-2.14388 -10.30888,-5.80179c-0.30816,-3.65792 -2.96114,-14.75863 2.42414,-15.21232z" fill="#d6ac23" stroke="none"/><path d="M215.95313,177.98458c6.40136,-0.53928 12.04002,4.35702 12.59429,10.9362c0.55426,6.57918 -4.18576,12.34984 -10.58711,12.88912c-6.40136,0.53928 -12.04002,-4.35702 -12.59429,-10.9362c-0.55426,-6.57918 4.18576,-12.34983 10.58711,-12.88912z" fill="none" stroke="#000000"/><g data-paper-data="{&quot;index&quot;:null}"><path d="M273.25438,185.15442c0.55426,6.57918 -4.18576,12.34983 -10.58711,12.88912c-6.40136,0.53928 -12.04003,-4.35702 -12.59429,-10.9362c-0.55426,-6.57918 4.18576,-12.34983 10.58711,-12.88912c6.40136,-0.53928 12.04003,4.35702 12.59429,10.9362z" fill="#ffe07b" stroke="#000000"/><path d="M264.63433,181.80435c0.29104,3.45472 -2.43836,6.5051 -6.09628,6.81327c-3.65792,0.30816 -6.85919,-2.24262 -7.15024,-5.69732c-0.29104,-3.45472 2.43836,-6.5051 6.09628,-6.81327c3.65792,-0.30816 6.85919,2.24262 7.15024,5.69732z" fill="#ffecac" stroke="none"/><path d="M271.92608,191.38074c0.30816,3.65792 -3.80764,6.99104 -9.19293,7.44472c-5.38527,0.45368 -10.00072,-2.14388 -10.30888,-5.80179c-0.08751,-1.03873 4.36563,1.6 8.44465,1.6599c2.75308,0.04044 5.2429,-2.19573 6.40423,-3.34004c1.51142,-1.48928 2.52243,-5.12478 1.75097,-8.2141c-0.85033,-3.40518 -3.51373,-6.2163 -2.03309,-6.34104c5.38527,-0.45368 4.62687,10.93441 4.93504,14.59234z" fill="#d6ac23" stroke="none"/><path d="M272.90193,185.3694c0.55426,6.57918 -4.18576,12.34983 -10.58711,12.88912c-6.40136,0.53928 -12.04002,-4.35702 -12.59429,-10.9362c-0.55426,-6.57918 4.18576,-12.34984 10.58711,-12.88912c6.40136,-0.53928 12.04002,4.35702 12.59429,10.9362z" fill="none" stroke="#000000"/></g></g><g stroke-linecap="butt"><path d="M218.31122,56.21154c0,0 9.322,-12.88218 11.88276,-19.87837c2.36123,-6.45095 2.93186,-20.59588 2.93186,-20.59588c0,0 26.60675,-9.73954 30.35769,-8.08665c0.90474,0.39871 -6.85757,37.72288 -6.85757,37.72288l1.83969,17.2159z" fill="#4a0000" stroke="#000000"/><path d="M229.6801,32.63178c0.33913,-2.1351 17.19696,3.28145 22.73827,-1.81985c7.2549,-6.67883 3.98053,-23.81179 8.28802,-23.12761c7.59756,1.20675 -2.72995,24.38706 -3.51307,29.31752c-0.78313,4.93046 -7.577,7.94911 -15.17457,6.74237c-7.59756,-1.20675 -13.12177,-6.18195 -12.33865,-11.1124z" fill="#2e0000" stroke="none"/><path d="M218.68301,56.27061c0,0 9.322,-12.88218 11.88278,-19.87836c2.36123,-6.45095 2.93186,-20.59588 2.93186,-20.59588c0,0 26.60675,-9.73954 30.35768,-8.08665c0.90473,0.39869 -6.85757,37.72288 -6.85757,37.72288l1.83969,17.2159z" fill="none" stroke="#000000"/><path d="M185.03144,73.82642c2.19384,-13.81214 6.75498,-32.09255 17.20835,-40.06076c3.76679,-2.87129 8.23005,-4.55866 13.08015,-5.44234c10.02715,-1.82689 21.70776,-0.21865 32.3062,1.46474c20.85146,3.31192 40.71189,10.98229 47.1262,29.17776c2.79929,7.94077 0.14585,23.25341 -1.25741,32.08825c-2.27697,14.33554 -4.3144,29.85636 -15.3948,37.83057c-11.39569,8.20113 -32.01413,8.61978 -47.1999,6.20776c-13.38347,-2.12575 -31.11656,-5.80929 -39.33595,-15.1132c-10.17512,-11.51769 -9.08775,-30.06747 -6.53286,-46.15283z" fill="#66abff" stroke="none"/><path d="M242.65881,65.64038c15.86127,2.51931 27.67553,11.13353 26.38789,19.2404c-1.28765,8.10687 -15.18959,12.63649 -31.05086,10.11718c-15.86127,-2.51931 -27.67553,-11.13353 -26.38789,-19.2404c1.28765,-8.10687 15.18959,-12.63649 31.05086,-10.11718z" fill="#4e83c3" stroke="none"/><path d="M186.7747,110.58103c0.90422,-5.69288 13.85266,11.00135 35.77035,16.04129c9.74177,2.24012 23.31634,4.91183 34.16935,3.21537c7.43813,-1.16266 12.50496,-5.01659 16.67923,-4.35358c9.2377,1.46726 20.8962,-47.41559 15.79425,-66.2758c-1.91299,-7.07177 -11.95863,-16.0381 -27.16388,-21.17012c-15.43077,-5.20812 -35.99504,-6.55601 -33.90864,-10.19451c4.601,-8.02372 56.25251,14.12971 55.74102,17.35004c-0.2457,1.54689 10.37948,3.30861 11.9808,13.08426c2.71521,16.57568 -3.46451,45.40436 -8.68735,56.9066c-11.52416,25.37958 -45.90965,22.53165 -59.84063,20.31894c-23.96814,-3.80696 -42.11606,-14.96513 -40.53449,-24.92247z" fill="#4e83c3" stroke="none"/><path d="M185.03145,73.82644c2.19384,-13.81214 6.75497,-32.09255 17.20835,-40.06076c11.55435,-8.80744 29.66148,-6.47524 45.38636,-3.9776c20.85146,3.31192 40.71189,10.98229 47.1262,29.17776c2.79929,7.94077 0.14585,23.25342 -1.25741,32.08826c-2.27697,14.33554 -4.3144,29.85636 -15.3948,37.83057c-11.39569,8.20113 -32.01414,8.61978 -47.1999,6.20776c-13.38347,-2.12575 -31.11656,-5.80929 -39.33595,-15.1132c-10.17512,-11.51769 -9.08775,-30.06747 -6.53286,-46.15283z" fill="none" stroke="#000000"/><path d="M236.54847,107.19998c22.8226,3.625 47.06225,-8.96654 45.45269,1.16707c-1.60956,10.1336 -27.25737,29.53111 -50.08,25.90611c-22.8226,-3.625 -41.78537,-30.43534 -40.17581,-40.56893c1.60956,-10.1336 21.98049,9.87076 44.8031,13.49576z" fill="#00f3ff" stroke="#000000"/><path d="M220.727,59.53964c7.04945,1.11969 10.88487,17.97867 9.90513,24.14694c-0.97973,6.16827 -8.27325,4.90185 -15.32269,3.78217c-7.04945,-1.11969 -14.81188,-3.55329 -13.83215,-9.72156c0.97973,-6.16827 12.20026,-19.32723 19.24971,-18.20754z" fill="#00f3ff" stroke="#000000"/><path d="M278.96891,90.38266c-0.97973,6.16827 -9.11418,6.07692 -16.16364,4.95722c-7.04945,-1.11969 -14.37641,-2.17551 -13.39667,-8.34378c0.97973,-6.16827 9.85016,-21.00913 16.89961,-19.88944c7.04946,1.11969 13.64045,17.10772 12.66072,23.27599z" data-paper-data="{&quot;index&quot;:null}" fill="#00f3ff" stroke="#000000"/><path d="M238.48018,88.85899c5.02273,0.79778 8.21231,9.05829 7.91838,10.90877c-0.29392,1.85049 -4.60391,2.70387 -9.62665,1.90609c-5.02273,-0.79778 -8.85619,-2.94461 -8.56228,-4.7951c0.29392,-1.85049 5.24782,-8.81753 10.27057,-8.01975z" fill="#00f3ff" stroke="#000000"/></g><g stroke-linecap="butt"><path d="M275.42761,306.2379c18.58244,0.06852 33.60861,10.39476 33.56189,23.06432c-0.01934,5.24599 5.74633,11.07136 1.38632,14.91993c-6.16983,5.44611 -24.22924,7.9364 -35.11739,7.89626c-8.32063,-0.03068 -25.31191,0.43226 -31.17259,-3.00118c-7.22795,-4.23444 -2.4151,-13.06661 -2.38931,-20.06314c0.04672,-12.66956 15.14863,-22.88471 33.73107,-22.81619z" fill="#66abff" stroke="#000000"/><path d="M237.97096,340.67219c0.00433,-1.17364 6.39701,-27.00981 11.49019,-26.55221c6.47259,0.58155 -6.01268,19.95654 2.52394,26.85464c8.91982,7.20774 38.85105,1.88351 44.90707,-0.7933c9.9376,-4.39251 -6.81271,-29.04279 0.6138,-29.01541c6.10308,0.0225 8.52842,8.69756 10.38777,11.9481c4.13995,7.23749 1.40496,13.14182 1.3877,17.82112c-0.025,6.7809 -16.00866,12.21901 -35.70051,12.1464c-19.69185,-0.07261 -35.63497,-5.62846 -35.60996,-12.40935z" fill="#4e83c3" stroke="none"/><path d="M275.42761,306.2379c18.58244,0.06852 33.60861,10.39477 33.56189,23.06432c-0.01934,5.24598 5.74634,11.07133 1.38633,14.91992c-6.16983,5.44611 -24.22924,7.93642 -35.11739,7.89627c-8.32061,-0.03068 -25.31189,0.43226 -31.17258,-3.00118c-7.22797,-4.23444 -2.41511,-13.06661 -2.38932,-20.06314c0.04672,-12.66954 15.14863,-22.88471 33.73107,-22.81619z" fill="none" stroke="#000000"/></g><g data-paper-data="{&quot;index&quot;:null}" stroke-linecap="butt"><path d="M232.13024,324.49531c-0.0258,6.99653 4.72179,15.86395 -2.53721,20.04497c-5.88584,3.39011 -22.87324,2.80189 -31.19386,2.77121c-10.88814,-0.04015 -28.92871,-2.66355 -35.05821,-8.15502c-4.33151,-3.88062 1.47697,-9.66331 1.49632,-14.9093c0.04672,-12.66956 15.14862,-22.88471 33.73107,-22.81619c18.58244,0.06852 33.60861,10.39476 33.56189,23.06432z" fill="#66abff" stroke="#000000"/><path d="M235.77004,336.14057c-0.025,6.7809 -16.00866,12.21901 -35.7005,12.1464c-19.69183,-0.07261 -35.63497,-5.62846 -35.60996,-12.40935c0.01725,-4.6793 -2.67413,-10.60363 1.51908,-17.81039c1.88328,-3.23675 4.37254,-11.89368 10.4756,-11.87118c7.42651,0.02738 -9.50514,24.55347 0.3998,29.01914c6.03611,2.72141 35.92726,8.26621 44.9,1.12445c8.58726,-6.83496 -3.75478,-26.30149 2.7219,-26.83529c5.09641,-0.42004 11.29839,25.46258 11.29406,26.63622z" fill="#4e83c3" stroke="none"/><path d="M232.13024,324.49531c-0.0258,6.99653 4.72179,15.86395 -2.53721,20.04497c-5.88583,3.39012 -22.87324,2.80189 -31.19386,2.77121c-10.88815,-0.04015 -28.92871,-2.66355 -35.05821,-8.15502c-4.33151,-3.88062 1.47697,-9.66331 1.49632,-14.9093c0.04672,-12.66956 15.14862,-22.88471 33.73107,-22.81619c18.58244,0.06852 33.60861,10.39476 33.56189,23.06432z" fill="none" stroke="#000000"/></g><g><g><path d="M363.86721,256.96869c0.63607,-10.55418 -18.46461,-16.61961 -13.29977,-16.30834c2.41392,0.14548 8.45236,-11.47549 15.46537,-8.82786c7.992,3.01723 16.87665,20.64201 16.53788,26.26342c-0.63605,10.55422 -5.3386,18.85776 -10.50343,18.54649c-5.16485,-0.31125 -8.83612,-9.11944 -8.20007,-19.67366z" fill="#66abff" stroke="#000000" stroke-linecap="butt"/><path d="M365.31359,266.46095c0.10299,-1.70915 0.75198,-8.68426 -2.57963,-14.75884c-2.07175,-3.77746 -7.73828,-6.35649 -9.77305,-9.69352c-2.82461,-4.63238 2.72052,-7.25573 3.79179,-7.19116c2.91927,0.17594 22.7607,28.60267 22.4968,32.98155c-0.2639,4.37889 -2.84435,7.78605 -5.76361,7.6101c-2.91924,-0.17595 -8.11399,-3.31289 -7.8501,-7.69179z" fill="#4e83c3" stroke="none" stroke-linecap="butt"/><path d="M363.42115,256.78666c0.63607,-10.55418 -18.46457,-16.61959 -13.29975,-16.30832c2.41391,0.14548 8.45234,-11.4755 15.46534,-8.82787c7.99202,3.01724 16.87666,20.64202 16.53788,26.26343c-0.63604,10.55418 -5.33859,18.85773 -10.50343,18.54649c-5.16482,-0.31125 -8.8361,-9.11947 -8.20005,-19.67367z" fill="none" stroke="#000000" stroke-linecap="butt"/><path d="M378.26494,247.47512l-13.85878,6.51013" fill="none" stroke="#000000" stroke-linecap="round"/></g><path d="M351.37362,225.21516c5.31443,12.89569 0.09598,27.27572 -11.65574,32.1187c-11.7517,4.843 -25.58657,-1.68501 -30.901,-14.5807c-5.31443,-12.89569 -0.09597,-27.27572 11.65574,-32.1187c11.7517,-4.843 25.58655,1.68503 30.90099,14.5807z" fill="#66abff" stroke="#000000" stroke-linecap="butt"/><path d="M353.17272,234.76165c3.00009,7.27983 -2.99854,16.65564 -13.39829,20.94147c-10.39975,4.28584 -21.26245,1.85871 -24.26253,-5.42109c-2.01931,-4.89998 19.31563,8.28531 26.02835,-1.96722c1.58712,-2.42404 4.31059,-13.18581 2.05495,-21.68405c-2.37796,-8.95918 -10.83606,-13.23706 -9.09127,-13.9561c10.39975,-4.28584 15.66871,14.80718 18.66879,22.087z" fill="#4e83c3" stroke="none" stroke-linecap="butt"/><g data-paper-data="{&quot;index&quot;:null}"><path d="M306.50409,268.20097c1.9398,10.39392 -0.61097,19.58934 -5.69737,20.5386c-5.08637,0.94927 -10.78222,-6.7071 -12.72202,-17.101c-1.03318,-5.53602 5.59756,-24.12642 13.15376,-28.11132c6.6306,-3.49676 14.06336,7.28581 16.44062,6.84214c5.08638,-0.94927 -13.11482,7.43769 -11.17501,17.83156z" fill="#66abff" stroke="#000000" stroke-linecap="butt"/><path d="M306.08189,279.08588c0.80481,4.31237 -3.9609,8.06923 -6.83578,8.60577c-2.87491,0.53656 -5.85792,-2.52435 -6.66272,-6.83673c-0.80481,-4.31237 15.35878,-34.97994 18.2337,-35.51649c1.05499,-0.19691 6.88262,1.71865 4.65418,6.66552c-1.60528,3.56357 -6.90832,6.8253 -8.49568,10.8305c-2.55268,6.4408 -1.04384,13.28162 -0.72972,14.96481z" fill="#4e83c3" stroke="none" stroke-linecap="butt"/><path d="M306.92413,267.96503c1.93979,10.39389 -0.61099,19.58934 -5.69736,20.53861c-5.08637,0.94925 -10.78222,-6.70713 -12.72201,-17.10101c-1.03318,-5.53603 5.59754,-24.12643 13.15376,-28.11134c6.6306,-3.49676 14.06337,7.28582 16.4406,6.84216c5.08637,-0.94926 -13.1148,7.43769 -11.17499,17.83156z" fill="none" stroke="#000000" stroke-linecap="butt"/><path d="M305.59936,265.30735l-14.55903,-4.7415" fill="none" stroke="#000000" stroke-linecap="round"/></g><path d="M351.92053,226.41137c5.31445,12.89568 0.09599,27.27572 -11.65573,32.1187c-11.75172,4.843 -25.58656,-1.68501 -30.90099,-14.5807c-5.31443,-12.89569 -0.09598,-27.27572 11.65574,-32.1187c11.75172,-4.843 25.58654,1.68502 30.90097,14.58072z" fill="none" stroke="#000000" stroke-linecap="butt"/><g><path d="M347.14019,264.93668c2.94489,-10.15495 -14.35097,-20.27813 -9.3815,-18.83701c2.32261,0.67354 10.77216,-9.3322 17.02986,-5.20505c7.13126,4.7033 11.91611,23.85206 10.34762,29.26082c-2.94486,10.15498 -9.36071,17.21897 -14.33017,15.77785c-4.9695,-1.4411 -6.61071,-10.84156 -3.66583,-20.99656z" fill="#66abff" stroke="#000000" stroke-linecap="butt"/><path d="M346.46048,274.5144c0.47687,-1.64451 2.64611,-8.30541 0.73417,-14.96459c-1.18893,-4.14099 -6.14833,-7.90467 -7.3982,-11.60789c-1.73503,-5.14073 4.2517,-6.47841 5.28245,-6.1795c2.80883,0.81455 15.90244,32.91314 14.68063,37.12638c-1.2218,4.21325 -4.48929,6.96844 -7.29811,6.15389c-2.80881,-0.81456 -7.18513,-5.01856 -5.96332,-9.23181z" fill="#4e83c3" stroke="none" stroke-linecap="butt"/><path d="M346.74517,264.66086c2.94489,-10.15495 -14.35093,-20.2781 -9.38148,-18.837c2.32259,0.67355 10.77214,-9.33221 17.02984,-5.20507c7.13127,4.70331 11.91613,23.85205 10.34762,29.26083c-2.94486,10.15495 -9.36071,17.21895 -14.33017,15.77785c-4.96946,-1.4411 -6.61069,-10.8416 -3.66581,-20.99657z" fill="none" stroke="#000000" stroke-linecap="butt"/><path d="M363.27522,258.84713l-14.95226,3.29805" fill="none" stroke="#000000" stroke-linecap="round"/></g><g><path d="M324.79391,272.992c3.85185,-9.84676 -12.45685,-21.49372 -7.6382,-19.60876c2.25212,0.88098 11.57254,-8.31899 17.43104,-3.64244c6.67633,5.32939 9.70854,24.83259 7.65697,30.07722c-3.85184,9.8468 -10.88066,16.30112 -15.69929,14.41618c-4.81867,-1.88494 -5.6024,-11.39535 -1.75056,-21.24217z" fill="#66abff" stroke="#000000" stroke-linecap="butt"/><path d="M323.2502,282.46891c0.62376,-1.5946 3.38691,-8.03186 2.08549,-14.83674c-0.80928,-4.2316 -5.40772,-8.42869 -6.3173,-12.22982c-1.26267,-5.27665 4.82057,-6.06704 5.82002,-5.67606c2.72359,1.0654 12.85847,34.21728 11.26035,38.30266c-1.5981,4.08538 -5.10153,6.53354 -7.82511,5.46814c-2.72356,-1.06541 -6.70146,-5.64824 -5.10336,-9.73362z" fill="#4e83c3" stroke="none" stroke-linecap="butt"/><path d="M324.42546,272.68157c3.85185,-9.84676 -12.45681,-21.49368 -7.63818,-19.60874c2.25211,0.88098 11.57253,-8.319 17.43103,-3.64246c6.67634,5.3294 9.70856,24.8326 7.65696,30.07724c-3.85182,9.84676 -10.88064,16.30112 -15.69929,14.41618c-4.81864,-1.88494 -5.60238,-11.39539 -1.75054,-21.24217z" fill="none" stroke="#000000" stroke-linecap="butt"/><path d="M326.22448,270.31901l15.18938,-1.9313" fill="none" stroke="#000000" stroke-linecap="round"/></g></g><g data-paper-data="{&quot;index&quot;:null}"><g><path d="M113.70824,256.90495c1.96207,10.38973 -0.56899,19.59062 -5.65335,20.55076c-5.08433,0.96016 -10.79657,-6.68398 -12.75864,-17.0737c-1.04504,-5.53379 5.54584,-24.13836 13.09349,-28.13945c6.62309,-3.51096 14.07895,7.25565 16.45525,6.80688c5.08434,-0.96017 -13.09886,7.4658 -11.13677,17.85548z" fill="#66abff" stroke="#000000" stroke-linecap="butt"/><path d="M113.30935,267.79076c0.81405,4.31064 -3.94359,8.07769 -6.81733,8.62042c-2.87376,0.54271 -5.86331,-2.51179 -6.67736,-6.82243c-0.81405,-4.31064 15.28377,-35.01278 18.15753,-35.55548c1.05457,-0.19916 6.88629,1.70389 4.66845,6.65552c-1.59765,3.567 -6.89368,6.84009 -8.47246,10.84868c-2.53887,6.44626 -1.01538,13.28383 -0.69765,14.96634z" fill="#4e83c3" stroke="none" stroke-linecap="butt"/><path d="M114.12776,256.66812c1.96207,10.38971 -0.56902,19.5906 -5.65333,20.55076c-5.08434,0.96015 -10.79657,-6.684 -12.75864,-17.0737c-1.04504,-5.5338 5.54583,-24.13837 13.09349,-28.13947c6.62309,-3.51096 14.07894,7.25566 16.45522,6.8069c5.08432,-0.96017 -13.09883,7.46579 -11.13675,17.85546z" fill="none" stroke="#000000" stroke-linecap="butt"/><path d="M112.79729,254.01327l-14.56917,-4.71028" fill="none" stroke="#000000" stroke-linecap="round"/></g><path d="M122.09731,223.82925c3.6456,-13.46297 16.54667,-21.68371 28.81533,-18.3615c12.26867,3.32218 19.25907,16.92926 15.61347,30.39222c-3.6456,13.46298 -16.54668,21.68371 -28.81535,18.3615c-12.26868,-3.32219 -19.25907,-16.92926 -15.61348,-30.39222z" fill="#66abff" stroke="#000000" stroke-linecap="butt"/><path d="M121.51658,233.52643c2.05799,-7.60007 4.87688,-27.20515 15.73411,-24.26514c1.82154,0.49325 -6.02949,5.8037 -7.25854,14.99125c-1.16583,8.71486 2.89317,19.04722 4.77333,21.25173c7.95216,9.32406 27.45383,-6.4467 26.06862,-1.33118c-2.058,7.60005 -12.52786,11.37779 -23.3851,8.43779c-10.85724,-2.94 -17.99044,-11.4844 -15.93243,-19.08447z" fill="#4e83c3" stroke="none" stroke-linecap="butt"/><g data-paper-data="{&quot;index&quot;:null}"><path d="M172.02992,260.81285c0.61346,-10.55552 -18.50018,-16.57999 -13.33469,-16.27979c2.41422,0.1403 8.42774,-11.49358 15.4464,-8.86099c7.99845,3.00011 16.92085,20.60579 16.59413,26.22791c-0.61342,10.55555 -5.29817,18.86914 -10.46365,18.56895c-5.16551,-0.30018 -8.85563,-9.10047 -8.2422,-19.65603z" fill="#66abff" stroke="#000000" stroke-linecap="butt"/><path d="M173.49664,270.30198c0.09932,-1.70936 0.73335,-8.68586 -2.61126,-14.75329c-2.07983,-3.77302 -7.75189,-6.33989 -9.79379,-9.67254c-2.83454,-4.62632 2.70496,-7.26155 3.77636,-7.19926c2.91964,0.16968 22.82194,28.55382 22.56742,32.93326c-0.2545,4.37944 -2.82765,7.79212 -5.74727,7.62244c-2.9196,-0.16969 -8.12107,-3.2955 -7.86656,-7.67494z" fill="#4e83c3" stroke="none" stroke-linecap="butt"/><path d="M171.58346,260.63177c0.61346,-10.55552 -18.50015,-16.57998 -13.33466,-16.27979c2.41421,0.14031 8.42773,-11.4936 15.44639,-8.861c7.99847,3.00012 16.92085,20.60579 16.59412,26.22793c-0.61343,10.55553 -5.29817,18.86913 -10.46365,18.56895c-5.16548,-0.30019 -8.85563,-9.10051 -8.24219,-19.65605z" fill="none" stroke="#000000" stroke-linecap="butt"/><path d="M172.56248,257.82825l13.84478,-6.5398" fill="none" stroke="#000000" stroke-linecap="round"/></g><path d="M150.52093,206.72337c12.26868,3.32218 19.25907,16.92925 15.61347,30.39221c-3.6456,13.46298 -16.54664,21.6837 -28.81532,18.36149c-12.26868,-3.32218 -19.25906,-16.92925 -15.61346,-30.39221c3.6456,-13.46298 16.54663,-21.68371 28.81531,-18.3615z" fill="none" stroke="#000000" stroke-linecap="butt"/><g><path d="M131.30662,262.69969c4.20212,9.70251 3.75958,19.23489 -0.98849,21.29125c-4.74802,2.05636 -12.00354,-4.14204 -16.20564,-13.84453c-2.23813,-5.16777 0.09349,-24.76707 6.57463,-30.33221c5.68722,-4.8834 15.33122,3.97677 17.55033,3.01568c4.74803,-2.05636 -11.13298,10.16734 -6.93087,19.86979z" fill="#66abff" stroke="#000000" stroke-linecap="butt"/><path d="M133.31499,273.40606c1.74343,4.02551 -2.06775,8.74788 -4.75139,9.91018c-2.68366,1.1623 -6.27254,-1.15879 -8.01597,-5.1843c-1.74343,-4.02551 7.19735,-37.51914 9.88103,-38.68144c0.98481,-0.42653 7.09247,0.14543 6.01963,5.46393c-0.77283,3.83127 -5.21797,8.19039 -5.87514,12.44826c-1.05682,6.84713 1.93516,13.18128 2.61564,14.7525z" fill="#4e83c3" stroke="none" stroke-linecap="butt"/><path d="M131.66369,262.37628c4.20209,9.70247 3.75955,19.23489 -0.98847,21.29125c-4.74803,2.05635 -12.00356,-4.14207 -16.20564,-13.84454c-2.23814,-5.16778 0.09347,-24.76707 6.57462,-30.33222c5.68722,-4.8834 15.33122,3.97678 17.55032,3.01569c4.74802,-2.05634 -11.13297,10.16733 -6.93085,19.86978z" fill="none" stroke="#000000" stroke-linecap="butt"/><path d="M114.53238,258.69369l15.24882,1.38594" fill="none" stroke="#000000" stroke-linecap="round"/></g><g><path d="M154.49041,267.87239c5.06296,9.28239 5.48495,18.81571 0.94248,21.29332c-4.54243,2.47763 -12.32914,-3.03871 -17.39209,-12.32108c-2.69664,-4.944 -2.14838,-24.67389 3.8025,-30.80274c5.22192,-5.37808 15.62821,2.57295 17.75124,1.41497c4.54244,-2.47763 -10.16711,11.13317 -5.10415,20.41552z" fill="#66abff" stroke="#000000" stroke-linecap="butt"/><path d="M157.45949,278.35306c2.10059,3.85121 -1.26756,8.89912 -3.835,10.29952c-2.56745,1.40041 -6.35167,-0.58636 -8.45227,-4.43757c-2.10059,-3.85121 3.77225,-38.01656 6.33973,-39.41696c0.94217,-0.51391 7.07652,-0.49705 6.48942,4.89672c-0.42291,3.8855 -4.45529,8.62902 -4.72443,12.92889c-0.43281,6.91468 3.12016,12.95205 3.94003,14.45525z" fill="#4e83c3" stroke="none" stroke-linecap="butt"/><path d="M154.81674,267.51799c5.06295,9.28236 5.48493,18.81571 0.9425,21.29332c-4.54244,2.47761 -12.32916,-3.03873 -17.39209,-12.32108c-2.69665,-4.94401 -2.1484,-24.6739 3.80249,-30.80277c5.22192,-5.37808 15.62823,2.57297 17.75124,1.41499c4.54243,-2.47761 -10.1671,11.13316 -5.10414,20.41549z" fill="none" stroke="#000000" stroke-linecap="butt"/><path d="M137.42245,265.40095l15.31167,0.0002" fill="none" stroke="#000000" stroke-linecap="round"/></g></g></g></g></svg>