<svg version="1.1" xmlns="http://www.w3.org/2000/svg" xmlns:xlink="http://www.w3.org/1999/xlink" width="322.01375" height="500.34998" viewBox="0,0,322.01375,500.34998"><g transform="translate(-72.49514,-77.20105)"><g data-paper-data="{&quot;isPaintingLayer&quot;:true}" fill-rule="nonzero" stroke-linejoin="miter" stroke-miterlimit="10" stroke-dasharray="" stroke-dashoffset="0" style="mix-blend-mode: normal"><g fill="none" stroke="#000000" stroke-width="2" stroke-linecap="round"><path d="M268.37552,194.37382l14.04645,37.70362"/><path d="M261.00079,229.16764l23.16432,-37.4572l5.42144,41.89292"/></g><g fill="none" stroke="#000000" stroke-width="2" stroke-linecap="round"><g><path d="M182.61827,232.07744l14.04645,-37.70362" data-paper-data="{&quot;index&quot;:null}"/><path d="M184.09684,195.1131l-2.21786,17.00359"/></g><path d="M182.14353,230.64621l-9.85715,-40.9072"/><path d="M169.32923,216.35333l0.49287,-30.06432"/></g><g data-paper-data="{&quot;index&quot;:null}" stroke-linecap="butt"><g><g><path d="M259.34168,433.97507l-17.20823,-60.8887l34.87613,-9.63299l17.20823,60.8887z" fill="#252525" stroke="#000000" stroke-width="0"/><path d="M259.34168,433.97507l-17.20823,-60.8887l34.87613,-9.63299l17.20823,60.8887z" fill="#252525" stroke="#000000" stroke-width="0"/><path d="M278.02379,367.90331c0.87325,3.08982 11.91468,38.10261 13.72844,48.98976c3.26221,19.5815 -4.22215,8.5915 -7.37382,9.46201c-3.51494,0.97085 -14.97319,5.38593 -21.26282,6.48427c-2.48559,0.43405 -2.94351,3.11936 -3.63574,0.67005c-0.57963,-2.05094 -17.77705,-58.88584 -16.76231,-61.7049c1.23306,-3.42551 10.76393,31.59571 16.27608,37.86474c9.07736,10.3238 15.60995,-4.24942 17.93745,-4.89229c2.39403,-0.66125 7.85375,5.17918 7.23926,-4.76253c-0.64424,-10.42313 -7.39733,-36.53691 -6.14652,-32.11111z" fill="#141414" stroke="none" stroke-width="0"/><path d="M259.34168,433.97507l-17.20823,-60.8887l34.87613,-9.63299l17.20823,60.8887z" fill="none" stroke="#000000" stroke-width="3.5"/><path d="M259.34168,433.97507l-17.20823,-60.8887l34.87613,-9.63299l17.20823,60.8887z" fill="none" stroke="#000000" stroke-width="3.5"/></g><g><path d="M243.37366,408.83296l-3.48413,-12.32809l50.95359,-14.07368l3.48413,12.32811z" fill="#252525" stroke="#000000" stroke-width="0"/><path d="M243.37366,408.83296l-3.48413,-12.32809l50.95359,-14.07368l3.48413,12.32811z" fill="#252525" stroke="#000000" stroke-width="0"/><path d="M290.76429,383.41065c0.17681,0.62558 3.75046,7.34502 2.6431,9.95662c-1.99168,4.69719 -9.90913,6.29006 -14.51369,7.56185c-7.16466,1.97892 -34.6823,9.47334 -35.17711,7.72256c-0.11735,-0.41526 -4.92415,-11.55666 -2.604,-12.71152c2.81927,-1.4033 4.32085,5.80566 9.8034,5.8689c9.02863,0.10414 22.78544,-6.28088 26.18586,-7.2201c3.49764,-0.96607 9.0498,-1.01177 11.48806,-3.7325c2.55632,-2.85246 1.92114,-8.3419 2.17438,-7.44581z" fill="#141414" stroke="none" stroke-width="0"/><path d="M243.37366,408.83296l-3.48413,-12.32809l50.95359,-14.07368l3.48413,12.32811z" fill="none" stroke="#000000" stroke-width="3.5"/><path d="M243.37366,408.83296l-3.48413,-12.32809l50.95359,-14.07368l3.48413,12.32811z" fill="none" stroke="#000000" stroke-width="3.5"/></g><g><path d="M245.31303,429.37215l-3.48413,-12.32811l57.56737,-15.90045l3.48414,12.32811z" fill="#252525" stroke="#000000" stroke-width="0"/><path d="M245.31303,429.37215l-3.48413,-12.32811l57.56737,-15.90045l3.48414,12.32811z" fill="#252525" stroke="#000000" stroke-width="0"/><path d="M299.27462,402.13489c0.17681,0.62558 3.95206,7.28934 2.62252,9.96232c-2.39131,4.80758 -11.31623,6.6787 -16.51846,8.11558c-8.09463,2.23578 -39.18046,10.71577 -39.67527,8.96497c-0.11735,-0.41526 -5.12379,-11.50153 -2.48499,-12.7444c3.20646,-1.51026 4.64353,5.71653 10.78405,5.59804c10.11214,-0.19514 25.74255,-7.09765 29.58438,-8.1588c3.95164,-1.09147 10.17383,-1.32223 12.99824,-4.1496c2.96117,-2.96429 2.4363,-8.4842 2.68954,-7.58811z" fill="#141414" stroke="none" stroke-width="0"/><path d="M245.31303,429.37215l-3.48413,-12.32811l57.56737,-15.90045l3.48414,12.32811z" fill="none" stroke="#000000" stroke-width="3.5"/><path d="M245.31303,429.37215l-3.48413,-12.32811l57.56737,-15.90045l3.48414,12.32811z" fill="none" stroke="#000000" stroke-width="3.5"/></g></g><g><path d="M231.48309,386.46039l-4.00164,-14.15923l59.45703,-16.42237l4.00166,14.15923z" fill="#252525" stroke="#000000" stroke-width="0"/><path d="M231.48309,386.46039l-4.00164,-14.15923l59.45703,-16.42237l4.00166,14.15923z" fill="#252525" stroke="#000000" stroke-width="0"/><path d="M286.84187,357.00542c0.20307,0.71851 4.33601,8.42813 3.03276,11.43631c-2.34403,5.4105 -11.57989,7.27927 -16.95289,8.76333c-8.36034,2.30918 -40.4698,11.05612 -41.0381,9.04528c-0.13479,-0.47693 -5.68378,-13.26539 -2.97396,-14.60422c3.29277,-1.62687 5.00828,6.6554 11.3982,6.70231c10.52287,0.07729 26.58793,-7.32929 30.55586,-8.42527c4.08135,-1.12729 10.55293,-1.20594 13.40794,-4.34587c2.99327,-3.29195 2.27931,-9.60107 2.57017,-8.57188z" fill="#141414" stroke="none" stroke-width="0"/><path d="M231.48309,386.46039l-4.00164,-14.15923l59.45703,-16.42237l4.00166,14.15923z" fill="none" stroke="#000000" stroke-width="3.5"/><path d="M231.48309,386.46039l-4.00164,-14.15923l59.45703,-16.42237l4.00166,14.15923z" fill="none" stroke="#000000" stroke-width="3.5"/></g></g><g stroke-linecap="butt"><g><g><path d="M165.54218,423.97244l17.20821,-60.8887l34.87613,9.63299l-17.20823,60.8887z" fill="#252525" stroke="#000000" stroke-width="0"/><path d="M165.54218,423.97244l17.20821,-60.8887l34.87613,9.63299l-17.20823,60.8887z" fill="#252525" stroke="#000000" stroke-width="0"/><path d="M181.73617,367.53367c1.25081,-4.4258 -5.50229,21.68798 -6.14653,32.11111c-0.6145,9.94171 4.84524,4.10128 7.23927,4.76253c2.32751,0.64287 8.8601,15.21609 17.93745,4.89229c5.51215,-6.26903 15.04302,-41.29026 16.27606,-37.86474c1.01476,2.81908 -16.18266,59.65397 -16.76229,61.70492c-0.69222,2.44932 -1.15015,-0.23601 -3.63574,-0.67006c-6.28963,-1.09834 -17.74788,-5.51342 -21.2628,-6.48427c-3.15167,-0.87051 -10.63601,10.11949 -7.37382,-9.46201c1.81375,-10.88715 12.85519,-45.89994 13.72844,-48.98976z" fill="#141414" stroke="none" stroke-width="0"/><path d="M165.54218,423.97244l17.20821,-60.8887l34.87613,9.63299l-17.20823,60.8887z" fill="none" stroke="#000000" stroke-width="3.5"/><path d="M165.54218,423.97244l17.20821,-60.8887l34.87613,9.63299l-17.20823,60.8887z" fill="none" stroke="#000000" stroke-width="3.5"/></g><g><path d="M165.43272,394.38965l3.48413,-12.32811l50.95359,14.07368l-3.48414,12.32809z" fill="#252525" stroke="#000000" stroke-width="0"/><path d="M165.43272,394.38965l3.48413,-12.32811l50.95359,14.07368l-3.48414,12.32809z" fill="#252525" stroke="#000000" stroke-width="0"/><path d="M168.9957,383.04102c0.25324,-0.89609 -0.38196,4.59335 2.17436,7.44581c2.43826,2.72072 7.99042,2.76643 11.48807,3.7325c3.40045,0.93922 17.15726,7.32425 26.18587,7.22011c5.48255,-0.06322 6.98413,-7.2722 9.8034,-5.8689c2.32015,1.15485 -2.48666,12.29626 -2.60402,12.71152c-0.4948,1.75078 -28.01246,-5.74364 -35.17711,-7.72256c-4.60454,-1.27181 -12.52199,-2.86465 -14.51368,-7.56185c-1.10736,-2.6116 2.46628,-9.33105 2.64308,-9.95664z" fill="#141414" stroke="none" stroke-width="0"/><path d="M165.43272,394.38965l3.48413,-12.32811l50.95359,14.07368l-3.48414,12.32809z" fill="none" stroke="#000000" stroke-width="3.5"/><path d="M165.43272,394.38965l3.48413,-12.32811l50.95359,14.07368l-3.48414,12.32809z" fill="none" stroke="#000000" stroke-width="3.5"/></g><g><path d="M156.87956,413.10206l3.48414,-12.32811l57.56738,15.90045l-3.48414,12.32811z" fill="#252525" stroke="#000000" stroke-width="0"/><path d="M156.87956,413.10206l3.48414,-12.32811l57.56738,15.90045l-3.48414,12.32811z" fill="#252525" stroke="#000000" stroke-width="0"/><path d="M163.1749,409.35336c2.8244,2.82737 9.04659,3.05813 12.99824,4.1496c3.84182,1.06114 19.47223,7.96366 29.58438,8.1588c6.1405,0.11849 7.57757,-7.1083 10.78403,-5.59804c2.63881,1.24287 -2.36762,12.32914 -2.48498,12.7444c-0.4948,1.75079 -31.58064,-6.72919 -39.67527,-8.96497c-5.20223,-1.43688 -14.12715,-3.308 -16.51846,-8.11558c-1.32955,-2.67298 2.44571,-9.33673 2.62252,-9.96232c0.25324,-0.89609 -0.27161,4.62382 2.68954,7.58811z" fill="#141414" stroke="none" stroke-width="0"/><path d="M156.87956,413.10206l3.48414,-12.32811l57.56738,15.90045l-3.48414,12.32811z" fill="none" stroke="#000000" stroke-width="3.5"/><path d="M156.87956,413.10206l3.48414,-12.32811l57.56738,15.90045l-3.48414,12.32811z" fill="none" stroke="#000000" stroke-width="3.5"/></g></g><g><path d="M168.81985,369.66838l4.00166,-14.15923l59.45703,16.42237l-4.00164,14.15925z" fill="#252525" stroke="#000000" stroke-width="0"/><path d="M168.81985,369.66838l4.00166,-14.15923l59.45703,16.42237l-4.00164,14.15925z" fill="#252525" stroke="#000000" stroke-width="0"/><path d="M172.91812,356.63576c0.29086,-1.02919 -0.42309,5.27993 2.57017,8.57188c2.85501,3.13993 9.32659,3.21857 13.40794,4.34587c3.96791,1.09598 20.03298,8.50255 30.55586,8.42527c6.38992,-0.04692 8.10542,-8.32919 11.39819,-6.70231c2.70983,1.33883 -2.83917,14.1273 -2.97396,14.60422c-0.56829,2.01085 -32.67774,-6.7361 -41.03809,-9.04528c-5.37299,-1.48406 -14.60887,-3.35283 -16.95289,-8.76333c-1.30326,-3.00817 2.82969,-10.71779 3.03276,-11.43631z" fill="#141414" stroke="none" stroke-width="0"/><path d="M168.81985,369.66838l4.00166,-14.15923l59.45703,16.42237l-4.00164,14.15925z" fill="none" stroke="#000000" stroke-width="3.5"/><path d="M168.81985,369.66838l4.00166,-14.15923l59.45703,16.42237l-4.00164,14.15925z" fill="none" stroke="#000000" stroke-width="3.5"/></g></g><g stroke-linecap="butt"><g><g><path d="M205.38213,354.73072l1.27629,-63.26079l36.17837,0.51468l-1.2763,63.26079z" fill="#252525" stroke="#000000" stroke-width="0"/><path d="M205.38213,354.73072l1.27629,-63.26079l36.17837,0.51468l-1.2763,63.26079z" fill="#252525" stroke="#000000" stroke-width="0"/><path d="M206.80071,296.03177c0.09278,-4.59823 0.1522,22.37454 2.16065,32.62261c1.9157,9.77473 5.72379,2.74496 8.20722,2.78029c2.41439,0.03433 12.41503,12.48587 18.59151,0.20458c3.75061,-7.4577 4.12982,-43.75068 6.18786,-40.7475c1.69368,2.47151 -0.59575,61.80712 -0.63874,63.93796c-0.05134,2.54474 -1.17246,0.06206 -3.6871,0.26968c-6.36316,0.52537 -18.56495,-0.85345 -22.21111,-0.90532c-3.26935,-0.04652 -7.73622,12.47716 -9.52404,-7.29355c-0.994,-10.99234 0.84898,-47.65856 0.91374,-50.86876z" fill="#141414" stroke="none" stroke-width="0"/><path d="M205.38213,354.73072l1.27629,-63.26079l36.17837,0.51468l-1.2763,63.26079z" fill="none" stroke="#000000" stroke-width="3.5"/><path d="M205.38213,354.73072l1.27629,-63.26079l36.17837,0.51468l-1.2763,63.26079z" fill="none" stroke="#000000" stroke-width="3.5"/></g><g><path d="M197.8066,326.13413l0.25841,-12.80838l52.85614,0.75193l-0.25841,12.80838z" fill="#252525" stroke="#000000" stroke-width="0"/><path d="M197.8066,326.13413l0.25841,-12.80838l52.85614,0.75193l-0.25841,12.80838z" fill="#252525" stroke="#000000" stroke-width="0"/><path d="M202.37259,320.90911c3.04623,2.01691 8.43003,0.65922 12.05827,0.71084c3.5274,0.05018 18.45066,2.7547 27.16043,0.37424c5.28895,-1.44553 4.92161,-8.80005 8.00386,-8.15408c2.53658,0.53161 0.69873,12.5257 0.69002,12.95714c-0.03671,1.819 -28.55504,1.5156 -35.98722,1.40986c-4.77649,-0.06794 -12.83958,0.38996 -15.95276,-3.65215c-1.73091,-2.24737 0.0303,-9.65142 0.04341,-10.30138c0.01878,-0.931 0.79025,4.54096 3.98399,6.65553z" fill="#141414" stroke="none" stroke-width="0"/><path d="M197.8066,326.13413l0.25841,-12.80838l52.85614,0.75193l-0.25841,12.80838z" fill="none" stroke="#000000" stroke-width="3.5"/><path d="M197.8066,326.13413l0.25841,-12.80838l52.85614,0.75193l-0.25841,12.80838z" fill="none" stroke="#000000" stroke-width="3.5"/></g><g><path d="M194.25545,346.39987l0.25841,-12.80839l59.71687,0.84954l-0.25841,12.80838z" fill="#252525" stroke="#000000" stroke-width="0"/><path d="M194.25545,346.39987l0.25841,-12.80839l59.71687,0.84954l-0.25841,12.80838z" fill="#252525" stroke="#000000" stroke-width="0"/><path d="M194.88188,334.51994c0.01878,-0.931 0.90468,4.54258 4.51837,6.66313c3.44681,2.0226 9.52565,0.67479 13.62485,0.73311c3.98527,0.0567 20.85208,2.78889 30.68584,0.42441c5.97144,-1.43581 5.5372,-8.7913 9.0211,-8.13962c2.86712,0.53631 0.82219,12.52748 0.81348,12.95891c-0.0367,1.819 -32.25645,1.46293 -40.65333,1.34348c-5.39647,-0.07677 -14.50464,0.36627 -18.03239,-3.68172c-1.96139,-2.25065 0.00896,-9.65171 0.02208,-10.30168z" fill="#141414" stroke="none" stroke-width="0"/><path d="M194.25545,346.39987l0.25841,-12.80839l59.71687,0.84954l-0.25841,12.80838z" fill="none" stroke="#000000" stroke-width="3.5"/><path d="M194.25545,346.39987l0.25841,-12.80839l59.71687,0.84954l-0.25841,12.80838z" fill="none" stroke="#000000" stroke-width="3.5"/></g></g><g><path d="M194.84189,301.35866l0.29679,-14.71084l61.67709,0.8774l-0.29678,14.71084z" fill="#252525" stroke="#000000" stroke-width="0"/><path d="M194.84189,301.35866l0.29679,-14.71084l61.67709,0.8774l-0.29678,14.71084z" fill="#252525" stroke="#000000" stroke-width="0"/><path d="M200.16791,295.35871c3.55532,2.31729 9.83707,0.75932 14.07081,0.81956c4.11608,0.05855 21.53073,3.16873 31.69313,0.43693c6.17102,-1.65884 5.73966,-10.10592 9.33653,-9.36318c2.96007,0.61124 0.81996,14.38643 0.80996,14.88194c-0.04214,2.08918 -33.31975,1.73327 -41.99225,1.60989c-5.57362,-0.0793 -14.98209,0.44452 -18.6163,-4.19879c-2.02059,-2.58165 0.03176,-11.085 0.04683,-11.83151c0.02157,-1.06927 0.9238,5.21567 4.6513,7.64517z" fill="#141414" stroke="none" stroke-width="0"/><path d="M194.84189,301.35866l0.29679,-14.71084l61.67709,0.8774l-0.29678,14.71084z" fill="none" stroke="#000000" stroke-width="3.5"/><path d="M194.84189,301.35866l0.29679,-14.71084l61.67709,0.8774l-0.29678,14.71084z" fill="none" stroke="#000000" stroke-width="3.5"/></g></g><g stroke-linecap="butt"><path d="M199.4676,227.98555v-36.91505h61.68722v36.91505z" fill="#252525" stroke="#000000" stroke-width="0"/><path d="M199.4676,227.98555v-36.91505h61.68722v36.91505z" fill="#252525" stroke="#000000" stroke-width="0"/><path d="M199.867,193.73058c0,-2.68324 1.02891,13.05137 4.80495,19.01311c3.60164,5.6864 9.85117,1.55385 14.08561,1.55385c4.11676,0 21.59202,7.18084 31.69806,-0.03495c6.13679,-4.38172 5.5351,-25.55714 9.1465,-23.82224c2.97204,1.42774 1.11007,36.06138 1.11007,37.30482c0,5.24253 -33.28071,5.53724 -41.95462,5.53724c-5.57453,0 -14.97131,1.64987 -18.69873,-9.86895c-2.07241,-6.40437 -0.19184,-27.80961 -0.19184,-29.68289z" fill="#141414" stroke="none" stroke-width="0"/><path d="M199.4676,227.98555v-36.91505h61.68722v36.91505z" fill="none" stroke="#000000" stroke-width="3.5"/><path d="M199.4676,227.98555v-36.91505h61.68722v36.91505z" fill="none" stroke="#000000" stroke-width="3.5"/></g><path d="M276.21662,196.19229l0.98572,-14.78573" fill="none" stroke="#000000" stroke-width="2" stroke-linecap="round"/><g stroke-linecap="butt"><g><g><path d="M189.09154,295.5291v-63.2759h81.33996v63.2759z" fill="#252525" stroke="#000000" stroke-width="0"/><path d="M189.09154,295.5291v-63.2759h81.33996v63.2759z" fill="#252525" stroke="#000000" stroke-width="0"/><path d="M195.95391,269.40312c4.74907,9.74701 12.98964,2.66341 18.57311,2.66341c5.4283,0 28.47095,12.30867 41.79664,-0.0599c8.09191,-7.51069 7.2985,-43.80731 12.06046,-40.83355c3.9189,2.44728 1.46373,61.81259 1.46373,63.94395c0,2.54535 -2.6325,0.07875 -8.27513,0.32212c-14.27838,0.61586 -41.76636,-0.58931 -49.96406,-0.58931c-7.35051,0 -16.82259,12.58659 -21.73753,-7.15771c-2.73267,-10.97767 -0.25295,-47.66833 -0.25295,-50.87931c0,-4.59932 1.35669,22.3713 6.33573,32.5903z" fill="#141414" stroke="none" stroke-width="0"/><path d="M189.09154,295.5291v-63.2759h81.33996v63.2759z" fill="none" stroke="#000000" stroke-width="3.5"/><path d="M189.09154,295.5291v-63.2759h81.33996v63.2759z" fill="none" stroke="#000000" stroke-width="3.5"/></g><g><path d="M170.76755,267.04168v-12.81144h118.83668v12.81144z" fill="#252525" stroke="#000000" stroke-width="0"/><path d="M170.76755,267.04168v-12.81144h118.83668v12.81144z" fill="#252525" stroke="#000000" stroke-width="0"/><path d="M180.79338,261.75196c6.93834,1.97347 18.9777,0.53927 27.13509,0.53927c7.93068,0 41.59573,2.49211 61.06439,-0.01214c11.82217,-1.52068 10.66303,-8.86965 17.62017,-8.26755c5.72546,0.4955 2.13849,12.51516 2.13849,12.9467c0,1.81943 -64.11326,1.92172 -80.82305,1.92172c-10.73898,0 -28.84129,0.57259 -36.02195,-3.42503c-3.99238,-2.22264 -0.36957,-9.65137 -0.36957,-10.3015c0,-0.93122 1.98213,4.52949 9.25643,6.59853z" fill="#141414" stroke="none" stroke-width="0"/><path d="M170.76755,267.04168v-12.81144h118.83668v12.81144z" fill="none" stroke="#000000" stroke-width="3.5"/><path d="M170.76755,267.04168v-12.81144h118.83668v12.81144z" fill="none" stroke="#000000" stroke-width="3.5"/></g><g><path d="M163.70479,287.35695v-12.81144h134.26171v12.81144z" fill="#252525" stroke="#000000" stroke-width="0"/><path d="M163.70479,287.35695v-12.81144h134.26171v12.81144z" fill="#252525" stroke="#000000" stroke-width="0"/><path d="M164.57408,275.46867c0,-0.93122 2.23942,4.52949 10.45792,6.59853c7.83894,1.97348 21.441,0.53927 30.65723,0.53927c8.9601,0 46.99484,2.49212 68.99054,-0.01212c13.35669,-1.52068 12.04709,-8.86965 19.90728,-8.26755c6.46863,0.4955 2.41606,12.51516 2.41606,12.9467c0,1.81943 -72.43518,1.92172 -91.3139,1.92172c-12.13292,0 -32.5849,0.57259 -40.69761,-3.42503c-4.51061,-2.22265 -0.41755,-9.65139 -0.41755,-10.30152z" fill="#141414" stroke="none" stroke-width="0"/><path d="M163.70479,287.35695v-12.81144h134.26171v12.81144z" fill="none" stroke="#000000" stroke-width="3.5"/><path d="M163.70479,287.35695v-12.81144h134.26171v12.81144z" fill="none" stroke="#000000" stroke-width="3.5"/></g></g><g><path d="M162.98042,242.30957v-14.71436h138.66885v14.71436z" fill="#252525" stroke="#000000" stroke-width="0"/><path d="M162.98042,242.30957v-14.71436h138.66885v14.71436z" fill="#252525" stroke="#000000" stroke-width="0"/><path d="M163.87824,228.65553c0,-1.06954 2.3129,5.20229 10.8012,7.57863c8.09625,2.26661 22.14482,0.61936 31.66356,0.61936c9.25421,0 48.53745,2.8623 71.25517,-0.01393c13.79512,-1.74656 12.44254,-10.18709 20.56073,-9.49556c6.68096,0.56909 2.49536,14.37407 2.49536,14.8697c0,2.08967 -74.81286,2.20716 -94.31128,2.20716c-12.53119,0 -33.65449,0.65761 -42.03352,-3.93377c-4.65867,-2.55277 -0.43126,-11.08492 -0.43126,-11.8316z" fill="#141414" stroke="none" stroke-width="0"/><path d="M162.98042,242.30957v-14.71436h138.66885v14.71436z" fill="none" stroke="#000000" stroke-width="3.5"/><path d="M162.98042,242.30957v-14.71436h138.66885v14.71436z" fill="none" stroke="#000000" stroke-width="3.5"/></g></g><g><g><path d="M161.50663,145.34457c2.82472,-38.95812 35.48594,-68.3378 72.95088,-65.62135c37.46495,2.71645 65.54642,36.50037 62.7217,75.45848c-2.82472,38.95812 -35.48594,68.3378 -72.95088,65.62135c-30.43422,-2.20667 -54.67633,-24.91457 -61.18896,-54.24345c-1.5045,-6.77538 -2.06282,-13.9041 -1.53273,-21.21502z" fill="#2c2c2c" stroke="#000000" stroke-width="0" stroke-linecap="butt"/><path d="M184.32506,175.75788c6.52572,16.40168 28.48799,22.66297 36.68743,23.25748c23.89069,1.73223 67.66121,-26.74316 66.6081,-12.21871c-1.05311,14.52447 -40.84467,35.82941 -64.73538,34.09718c-15.53211,-1.12618 -46.11423,-8.74821 -54.53426,-42.7401c-1.7055,-6.88515 -10.67446,-20.60738 -9.04932,-32.5871c2.69256,-19.8483 17.49683,-38.73072 17.72662,-41.89967c0.69168,-9.53959 -5.19146,40.70303 7.29684,72.09093z" fill="#111111" stroke="none" stroke-width="0" stroke-linecap="butt"/><path d="M234.4575,79.72322c37.46495,2.71645 65.54641,36.50036 62.7217,75.45847c-2.82472,38.95812 -35.48594,68.33779 -72.95088,65.62134c-37.46495,-2.71645 -65.54641,-36.50036 -62.7217,-75.45847c2.82472,-38.95812 35.48594,-68.33779 72.95088,-65.62134z" fill="none" stroke="#000000" stroke-width="3.5" stroke-linecap="butt"/><path d="M228.14482,121.23418c28.99459,2.1023 51.76695,13.90833 50.86345,26.36948c-0.90351,12.46115 -25.14073,20.8587 -54.13535,18.7564c-28.99462,-2.10231 -51.76695,-13.90833 -50.86345,-26.36948c0.90351,-12.46115 25.14073,-20.8587 54.13535,-18.7564z" fill="#111111" stroke="none" stroke-width="0" stroke-linecap="butt"/><path d="M169.39312,181.708l11.18122,-79.24186" fill="none" stroke="#000000" stroke-width="3.5" stroke-linecap="round"/><path d="M184.78767,201.10778l18.27845,-115.78863" fill="none" stroke="#000000" stroke-width="3.5" stroke-linecap="round"/><path d="M224.28223,78.95105l-18.05863,140.01799" fill="none" stroke="#000000" stroke-width="3.5" stroke-linecap="round"/><path d="M237.33491,219.24821l11.8034,-135.53003" fill="none" stroke="#000000" stroke-width="3.5" stroke-linecap="round"/><path d="M259.00691,213.40728l9.25946,-120.88993" fill="none" stroke="#000000" stroke-width="3.5" stroke-linecap="round"/><path d="M281.03229,107.27922l-0.48108,88.41825" fill="none" stroke="#000000" stroke-width="3.5" stroke-linecap="round"/><path d="M197.94756,93.42942c6.0422,-3.68954 -1.37056,8.01643 0.54493,14.86261c1.84659,6.59979 13.05497,8.27949 16.86509,8.55574c12.08109,0.87596 -3.77862,7.81504 -5.3337,29.26236c-1.55507,21.44733 -12.60936,38.12373 -24.69046,37.24776c-12.08109,-0.87596 -20.61409,-18.97255 -19.05904,-40.41988c0.55588,-7.6667 25.07108,-45.47717 31.67314,-49.5086z" fill="#000000" stroke="#000000" stroke-width="0" stroke-linecap="butt"/><path d="M198.47477,92.97348c6.04219,-3.68956 -1.37056,8.01643 0.54493,14.86261c1.84656,6.59981 13.05497,8.27949 16.86509,8.55574c12.08108,0.87596 -3.77863,7.81503 -5.3337,29.26237c-1.55507,21.44733 -12.60935,38.12372 -24.69043,37.24775c-12.08108,-0.87596 -20.61411,-18.97255 -19.05905,-40.41987c0.55587,-7.66671 25.07108,-45.47719 31.67314,-49.5086z" fill="none" stroke="#000000" stroke-width="3.5" stroke-linecap="butt"/><path d="M296.49853,152.6766c-1.55507,21.44733 -12.60936,38.12373 -24.69045,37.24778c-12.08109,-0.87596 -20.61411,-18.97256 -19.05905,-40.41988c1.55507,-21.44733 -13.13776,-30.60167 -1.05667,-29.7257c3.81013,0.27627 15.14358,0.23099 17.92289,-6.03339c2.88305,-6.49825 -2.76354,-19.15112 2.68324,-14.62854c5.95146,4.94165 24.7559,45.89306 24.20003,53.55978z" data-paper-data="{&quot;index&quot;:null}" fill="#000000" stroke="#000000" stroke-width="0" stroke-linecap="butt"/><path d="M296.04262,152.14938c-1.55507,21.44733 -12.60935,38.12372 -24.69043,37.24775c-12.08108,-0.87596 -20.61411,-18.97255 -19.05905,-40.41987c1.55507,-21.44733 -13.13776,-30.60167 -1.05668,-29.72572c3.81013,0.27627 15.14358,0.23102 17.92289,-6.03339c2.88305,-6.49825 -2.76351,-19.15113 2.68324,-14.62854c5.95147,4.94163 24.75593,45.89304 24.20003,53.55978z" data-paper-data="{&quot;index&quot;:null}" fill="none" stroke="#000000" stroke-width="3.5" stroke-linecap="butt"/><path d="M221.49254,221.05032l16.23493,-142.12684" fill="none" stroke="#000000" stroke-width="2.5" stroke-linecap="round"/><path d="M231.11726,80.8749l-17.42449,138.08737" fill="none" stroke="#000000" stroke-width="2" stroke-linecap="round"/><path d="M241.7892,83.62531l-12.50882,138.44378" fill="none" stroke="#000000" stroke-width="2" stroke-linecap="round"/><path d="M254.99022,85.57077l-10.22179,134.16224" fill="none" stroke="#000000" stroke-width="2" stroke-linecap="round"/><path d="M261.34494,86.52566l-10.53513,131.66876" fill="none" stroke="#000000" stroke-width="2" stroke-linecap="round"/><path d="M202.83957,123.29824l7.59623,-43.42871" fill="none" stroke="#000000" stroke-width="2" stroke-linecap="round"/><path d="M211.55265,118.98848l6.1141,-36.61806" fill="none" stroke="#000000" stroke-width="2" stroke-linecap="round"/><path d="M189.03408,95.61307l-12.22678,39.13975" fill="none" stroke="#000000" stroke-width="2" stroke-linecap="round"/></g><path d="M196.2116,208.51224l5.23048,-31.24645" fill="none" stroke="#000000" stroke-width="2.5" stroke-linecap="round"/><path d="M268.26563,181.90456l-1.43309,26.58028" fill="none" stroke="#000000" stroke-width="2" stroke-linecap="round"/><path d="M189.30005,207.80477l5.68641,-30.71925" fill="none" stroke="#000000" stroke-width="2" stroke-linecap="round"/><path d="M199.54427,216.45394l9.18525,-51.71407" fill="none" stroke="#000000" stroke-width="2" stroke-linecap="round"/><path d="M172.70852,191.28306l1.24745,-17.20485" fill="none" stroke="#000000" stroke-width="2" stroke-linecap="round"/><path d="M177.96576,200.55899l5.29436,-25.31201" fill="none" stroke="#000000" stroke-width="2" stroke-linecap="round"/></g><g data-paper-data="{&quot;index&quot;:null}" stroke-linecap="butt"><g><g><path d="M173.42993,518.07653l-9.2854,-94.06264l37.58795,4.43741l9.2854,94.06264z" fill="#252525" stroke="#000000" stroke-width="0"/><path d="M173.42993,518.07653l-9.2854,-94.06264l37.58795,4.43741l9.2854,94.06264z" fill="#252525" stroke="#000000" stroke-width="0"/><path d="M172.76724,479.61333c3.6249,14.74846 6.39347,4.66794 8.97365,4.97255c2.50846,0.29613 14.96293,19.85062 19.30584,2.19113c2.63718,-10.72358 -3.05577,-64.72351 -0.41885,-60.04311c2.17009,3.8518 9.74705,91.96725 10.05981,95.1356c0.37352,3.78379 -1.20493,-0.02656 -3.77675,0.02741c-6.50781,0.13656 -19.3871,-3.15457 -23.17534,-3.60179c-3.39673,-0.401 -5.92686,17.79286 -11.09547,-11.82615c-2.87371,-16.46791 -7.11197,-70.87506 -7.58316,-75.64831c-0.67492,-6.83712 3.90982,33.33002 7.71026,48.79267z" fill="#141414" stroke="none" stroke-width="0"/><path d="M173.42993,518.07653l-9.2854,-94.06264l37.58795,4.43741l9.2854,94.06264z" fill="none" stroke="#000000" stroke-width="3.5"/><path d="M173.42993,518.07653l-9.2854,-94.06264l37.58795,4.43741l9.2854,94.06264z" fill="none" stroke="#000000" stroke-width="3.5"/></g><g><path d="M160.78187,474.72895l-1.88002,-19.04481l54.91555,6.48298l1.88001,19.04481z" fill="#252525" stroke="#000000" stroke-width="0"/><path d="M160.78187,474.72895l-1.88002,-19.04481l54.91555,6.48298l1.88001,19.04481z" fill="#252525" stroke="#000000" stroke-width="0"/><path d="M164.63865,467.41247c3.49586,3.31218 8.84891,1.83696 12.61851,2.28197c3.66484,0.43266 19.58747,5.97385 28.21664,3.31325c5.23998,-1.61564 3.62592,-12.60343 6.92923,-11.32884c2.71851,1.04891 2.82474,18.72105 2.88807,19.36255c0.26699,2.70467 -29.34533,-0.6409 -37.06708,-1.55249c-4.96258,-0.58586 -13.2438,-0.72224 -17.14869,-7.05661c-2.17109,-3.52186 -1.58707,-14.3674 -1.68247,-15.33384c-0.13665,-1.3843 1.58064,6.84145 5.24579,10.31401z" fill="#141414" stroke="none" stroke-width="0"/><path d="M160.78187,474.72895l-1.88002,-19.04481l54.91555,6.48298l1.88001,19.04481z" fill="none" stroke="#000000" stroke-width="3.5"/><path d="M160.78187,474.72895l-1.88002,-19.04481l54.91555,6.48298l1.88001,19.04481z" fill="none" stroke="#000000" stroke-width="3.5"/></g><g><path d="M160.49925,504.54326l-1.88001,-19.04482l62.04356,7.32448l1.88001,19.04482z" fill="#252525" stroke="#000000" stroke-width="0"/><path d="M160.49925,504.54326l-1.88001,-19.04482l62.04356,7.32448l1.88001,19.04482z" fill="#252525" stroke="#000000" stroke-width="0"/><path d="M164.95742,497.29778c3.91205,3.3613 9.98722,1.97132 14.24611,2.4741c4.14054,0.48882 22.08246,6.26841 31.87939,3.74567c5.9491,-1.53194 4.26551,-12.52795 7.98611,-11.2041c3.06192,1.08946 2.95302,18.7362 3.01635,19.37771c0.26699,2.70467 -33.19097,-1.09491 -41.915,-2.12481c-5.60674,-0.6619 -14.97376,-0.92644 -19.30936,-7.31168c-2.41055,-3.55013 -1.60925,-14.37002 -1.70465,-15.33644c-0.13665,-1.3843 1.69955,6.85548 5.80101,10.37956z" fill="#141414" stroke="none" stroke-width="0"/><path d="M160.49925,504.54326l-1.88001,-19.04482l62.04356,7.32448l1.88001,19.04482z" fill="none" stroke="#000000" stroke-width="3.5"/><path d="M160.49925,504.54326l-1.88001,-19.04482l62.04356,7.32448l1.88001,19.04482z" fill="none" stroke="#000000" stroke-width="3.5"/></g></g><g><path d="M153.55406,437.53866l-2.15925,-21.87359l64.08016,7.5649l2.15925,21.8736z" fill="#252525" stroke="#000000" stroke-width="0"/><path d="M153.55406,437.53866l-2.15925,-21.87359l64.08016,7.5649l2.15925,21.8736z" fill="#252525" stroke="#000000" stroke-width="0"/><path d="M158.06875,429.1455c4.07397,3.8111 10.3242,2.12879 14.72291,2.64808c4.27646,0.50486 22.84964,6.90284 32.92564,3.86653c6.11856,-1.84375 4.25491,-14.46479 8.10789,-12.99391c3.17084,1.21046 3.26244,21.50387 3.33517,22.24064c0.30664,3.10641 -34.24784,-0.80028 -43.25824,-1.86399c-5.79077,-0.68363 -15.45553,-0.85837 -20.00131,-8.1408c-2.52741,-4.04897 -1.82593,-16.50181 -1.93551,-17.61179c-0.15695,-1.58991 1.83223,7.85962 6.10346,11.85525z" fill="#141414" stroke="none" stroke-width="0"/><path d="M153.55406,437.53866l-2.15925,-21.87359l64.08016,7.5649l2.15925,21.8736z" fill="none" stroke="#000000" stroke-width="3.5"/><path d="M153.55406,437.53866l-2.15925,-21.87359l64.08016,7.5649l2.15925,21.8736z" fill="none" stroke="#000000" stroke-width="3.5"/></g></g><g data-paper-data="{&quot;index&quot;:null}" stroke-linecap="butt"><g><g><path d="M242.76272,525.47105l9.28538,-94.06264l37.58795,-4.43741l-9.28538,94.06264z" fill="#252525" stroke="#000000" stroke-width="0"/><path d="M242.76272,525.47105l9.28538,-94.06264l37.58795,-4.43741l-9.28538,94.06264z" fill="#252525" stroke="#000000" stroke-width="0"/><path d="M288.72358,433.77781c-0.47119,4.77325 -4.70945,59.18042 -7.58314,75.64832c-5.1686,29.619 -7.69875,11.42513 -11.09548,11.82613c-3.78824,0.44721 -16.66753,3.73835 -23.17532,3.60179c-2.5718,-0.05397 -4.15027,3.75637 -3.77675,-0.02741c0.31276,-3.16836 7.88973,-91.28379 10.05981,-95.1356c2.63692,-4.68041 -3.05603,49.31953 -0.41885,60.04311c4.34291,17.65949 16.79736,-1.895 19.30582,-2.19113c2.58018,-0.3046 5.34874,9.77593 8.97364,-4.97253c3.80044,-15.46265 8.38518,-55.62979 7.71026,-48.79267z" fill="#141414" stroke="none" stroke-width="0"/><path d="M242.76272,525.47105l9.28538,-94.06264l37.58795,-4.43741l-9.28538,94.06264z" fill="none" stroke="#000000" stroke-width="3.5"/><path d="M242.76272,525.47105l9.28538,-94.06264l37.58795,-4.43741l-9.28538,94.06264z" fill="none" stroke="#000000" stroke-width="3.5"/></g><g><path d="M238.08319,484.16907l1.88001,-19.04481l54.91553,-6.48298l-1.88002,19.04481z" fill="#252525" stroke="#000000" stroke-width="0"/><path d="M238.08319,484.16907l1.88001,-19.04481l54.91553,-6.48298l-1.88002,19.04481z" fill="#252525" stroke="#000000" stroke-width="0"/><path d="M294.38771,460.05561c-0.0954,0.96643 0.48862,11.81195 -1.68247,15.33383c-3.90488,6.33437 -12.18611,6.47077 -17.14869,7.05661c-7.72176,0.91158 -37.33407,4.25715 -37.06708,1.55249c0.06333,-0.64151 0.16956,-18.31364 2.88807,-19.36255c3.30331,-1.27457 1.68926,9.71322 6.92923,11.32884c8.62916,2.6606 24.55178,-2.88059 28.21664,-3.31325c3.76961,-0.44501 9.12264,1.03021 12.6185,-2.28197c3.66515,-3.47256 5.38244,-11.69831 5.24579,-10.31401z" fill="#141414" stroke="none" stroke-width="0"/><path d="M238.08319,484.16907l1.88001,-19.04481l54.91553,-6.48298l-1.88002,19.04481z" fill="none" stroke="#000000" stroke-width="3.5"/><path d="M238.08319,484.16907l1.88001,-19.04481l54.91553,-6.48298l-1.88002,19.04481z" fill="none" stroke="#000000" stroke-width="3.5"/></g><g><path d="M231.23777,514.82488l1.88002,-19.04481l62.04356,-7.32448l-1.88001,19.04482z" fill="#252525" stroke="#000000" stroke-width="0"/><path d="M231.23777,514.82488l1.88002,-19.04481l62.04356,-7.32448l-1.88001,19.04482z" fill="#252525" stroke="#000000" stroke-width="0"/><path d="M294.62416,489.87537c-0.0954,0.96643 0.70592,11.78631 -1.70463,15.33644c-4.33559,6.38523 -13.70262,6.64978 -19.30936,7.31168c-8.72403,1.0299 -42.18197,4.82948 -41.91498,2.12481c0.06333,-0.64151 -0.04558,-18.28824 3.01635,-19.37769c3.72062,-1.32386 2.03702,9.67216 7.98611,11.20408c9.79692,2.52274 27.73885,-3.25685 31.8794,-3.74567c4.25891,-0.50277 10.33407,0.8872 14.24611,-2.4741c4.10146,-3.52408 5.93765,-11.76386 5.80101,-10.37956z" fill="#141414" stroke="none" stroke-width="0"/><path d="M231.23777,514.82488l1.88002,-19.04481l62.04356,-7.32448l-1.88001,19.04482z" fill="none" stroke="#000000" stroke-width="3.5"/><path d="M231.23777,514.82488l1.88002,-19.04481l62.04356,-7.32448l-1.88001,19.04482z" fill="none" stroke="#000000" stroke-width="3.5"/></g></g><g><path d="M236.14638,448.06071l2.15925,-21.8736l64.08014,-7.5649l-2.15925,21.8736z" fill="#252525" stroke="#000000" stroke-width="0"/><path d="M236.14638,448.06071l2.15925,-21.8736l64.08014,-7.5649l-2.15925,21.8736z" fill="#252525" stroke="#000000" stroke-width="0"/><path d="M301.81529,420.2474c-0.10958,1.10998 0.5919,13.56281 -1.93551,17.61178c-4.54579,7.28243 -14.21054,7.45718 -20.00131,8.1408c-9.0104,1.06372 -43.56488,4.9704 -43.25824,1.86399c0.07273,-0.73679 0.16433,-21.03019 3.33517,-22.24064c3.85297,-1.47088 1.98935,11.15016 8.1079,12.99391c10.076,3.03631 28.64916,-3.36167 32.92563,-3.86653c4.3987,-0.51927 10.64895,1.16303 14.72291,-2.64807c4.27123,-3.99562 6.2604,-13.44516 6.10345,-11.85525z" fill="#141414" stroke="none" stroke-width="0"/><path d="M236.14638,448.06071l2.15925,-21.8736l64.08014,-7.5649l-2.15925,21.8736z" fill="none" stroke="#000000" stroke-width="3.5"/><path d="M236.14638,448.06071l2.15925,-21.8736l64.08014,-7.5649l-2.15925,21.8736z" fill="none" stroke="#000000" stroke-width="3.5"/></g></g><g stroke-linecap="butt"><path d="M169.18108,368.63374l0.53997,-14.71084l112.21421,0.8774l-0.53999,14.71084z" fill="#252525" stroke="#000000" stroke-width="0"/><path d="M169.18108,368.63374l0.53997,-14.71084l112.21421,0.8774l-0.53999,14.71084z" fill="#252525" stroke="#000000" stroke-width="0"/><path d="M169.18108,368.63374l0.53997,-14.71084l112.21421,0.8774l-0.53999,14.71084z" fill="none" stroke="#000000" stroke-width="3.5"/><path d="M178.87113,362.6338c6.46849,2.31729 17.89739,0.75932 25.6002,0.81956c7.48875,0.05855 39.17267,3.16873 57.66195,0.43693c11.22744,-1.65884 10.44266,-10.10592 16.98672,-9.36318c5.38551,0.61124 1.49181,14.38643 1.47362,14.88194c-0.07668,2.08918 -60.62139,1.73327 -76.39999,1.60989c-10.14054,-0.0793 -27.25817,0.44452 -33.87018,-4.19879c-3.67622,-2.58165 0.05781,-11.085 0.08521,-11.83151c0.03924,-1.06927 1.68074,5.21567 8.46247,7.64517z" fill="#141414" stroke="none" stroke-width="0"/><path d="M169.18108,368.63374l0.53997,-14.71084l112.21421,0.8774l-0.53999,14.71084z" fill="none" stroke="#000000" stroke-width="3.5"/></g><g stroke-linecap="butt"><g><path d="M121.94405,557.0329l0.44759,-43.42407l93.01401,2.58997l-0.44759,43.42409z" fill="#252525" stroke="#000000" stroke-width="0"/><path d="M121.94405,557.0329l0.44759,-43.42407l93.01401,2.58997l-0.44759,43.42409z" fill="#252525" stroke="#000000" stroke-width="0"/><path d="M121.94405,557.0329l0.44759,-43.42407l93.01401,2.58997l-0.44759,43.42409z" fill="none" stroke="#000000" stroke-width="3.5"/><path d="M122.96162,516.75468c0.03254,-3.15634 1.39316,15.39584 7.01451,22.56733c5.36172,6.84026 14.8351,2.24141 21.21992,2.41921c6.20741,0.17287 32.47011,9.3536 47.7958,1.28979c9.30639,-4.89667 8.65589,-29.83108 14.08025,-27.63865c4.46403,1.80427 1.23655,42.46645 1.22146,43.92912c-0.06356,6.16691 -50.24889,0.89196 -63.32771,0.52778c-8.40545,-0.23406 -22.59418,5.5365 -28.07487,-8.16983c-3.04722,-7.6206 0.04791,-32.72117 0.07062,-34.92475z" fill="#141414" stroke="none" stroke-width="0"/><path d="M121.94405,557.0329l0.44759,-43.42407l93.01401,2.58997l-0.44759,43.42409z" fill="none" stroke="#000000" stroke-width="3.5"/></g><g><path d="M94.98881,568.29782l0.21935,-43.42407l45.58264,2.58997l-0.21935,43.4241z" fill="#252525" stroke="#000000" stroke-width="0"/><path d="M94.98881,568.29782l0.21935,-43.42407l45.58264,2.58997l-0.21935,43.4241z" fill="#6c6c6c" stroke="#000000" stroke-width="0"/><path d="M94.98881,568.29782l0.21935,-43.42407l45.58264,2.58997l-0.21935,43.4241z" fill="none" stroke="#000000" stroke-width="3.5"/><path d="M98.92503,550.58694c2.62757,6.84025 7.27012,2.24141 10.39909,2.4192c3.04202,0.17287 15.91236,9.3536 23.42291,1.28979c4.5607,-4.89665 4.24192,-29.83106 6.90019,-27.63863c2.18765,1.80427 0.60599,42.46645 0.5986,43.92912c-0.03117,6.16691 -24.62508,0.89198 -31.03452,0.52779c-4.1192,-0.23407 -11.07256,5.53649 -13.75844,-8.16984c-1.49333,-7.62061 0.02349,-32.72117 0.03461,-34.92475c0.01595,-3.15633 0.68273,15.39584 3.43755,22.56732z" fill="#545454" stroke="none" stroke-width="0"/><path d="M94.98881,568.29782l0.21935,-43.42407l45.58264,2.58997l-0.21935,43.4241z" fill="none" stroke="#000000" stroke-width="3.5"/></g><g><path d="M163.51707,572.28749l0.21935,-43.42407l45.58264,2.58997l-0.21936,43.4241z" fill="#252525" stroke="#000000" stroke-width="0"/><path d="M163.51707,572.28749l0.21935,-43.42407l45.58264,2.58997l-0.21936,43.4241z" fill="#6c6c6c" stroke="#000000" stroke-width="0"/><path d="M163.51707,572.28749l0.21935,-43.42407l45.58264,2.58997l-0.21936,43.4241z" fill="none" stroke="#000000" stroke-width="3.5"/><path d="M164.01575,532.0093c0.01594,-3.15633 0.68272,15.39584 3.43754,22.56732c2.62759,6.84026 7.27015,2.24143 10.3991,2.41921c3.042,0.17286 15.91235,9.35359 23.42289,1.28977c4.56072,-4.89665 4.24192,-29.83106 6.90021,-27.63863c2.18765,1.80426 0.60599,42.46645 0.5986,43.92912c-0.03115,6.16691 -24.62506,0.89196 -31.0345,0.52778c-4.1192,-0.23407 -11.07258,5.53649 -13.75845,-8.16984c-1.49331,-7.62061 0.02349,-32.72117 0.03461,-34.92475z" fill="#545454" stroke="none" stroke-width="0"/><path d="M163.51707,572.28749l0.21935,-43.42407l45.58264,2.58997l-0.21936,43.4241z" fill="none" stroke="#000000" stroke-width="3.5"/></g><g><path d="M125.96734,572.05279l0.21935,-43.42407l45.58264,2.58997l-0.21935,43.4241z" fill="#252525" stroke="#000000" stroke-width="0"/><path d="M125.96734,572.05279l0.21935,-43.42407l45.58264,2.58997l-0.21935,43.4241z" fill="#6c6c6c" stroke="#000000" stroke-width="0"/><path d="M125.96734,572.05279l0.21935,-43.42407l45.58264,2.58997l-0.21935,43.4241z" fill="none" stroke="#000000" stroke-width="3.5"/><path d="M126.46601,531.77461c0.01592,-3.15633 0.68272,15.39585 3.43754,22.56733c2.62757,6.84026 7.27013,2.24141 10.39909,2.4192c3.042,0.17286 15.91235,9.3536 23.42289,1.28979c4.56072,-4.89665 4.24192,-29.83108 6.90021,-27.63865c2.18764,1.80426 0.60599,42.46645 0.5986,43.92912c-0.03115,6.16691 -24.62506,0.89196 -31.0345,0.52778c-4.11919,-0.23407 -11.07256,5.53649 -13.75844,-8.16984c-1.49331,-7.62061 0.02349,-32.72117 0.03461,-34.92475z" fill="#545454" stroke="none" stroke-width="0"/><path d="M125.96734,572.05279l0.21935,-43.42407l45.58264,2.58997l-0.21935,43.4241z" fill="none" stroke="#000000" stroke-width="3.5"/></g></g><g data-paper-data="{&quot;index&quot;:null}" stroke-linecap="butt"><g><path d="M235.73755,559.62289l-0.44759,-43.4241l93.01401,-2.58996l0.44759,43.42407z" fill="#252525" stroke="#000000" stroke-width="0"/><path d="M235.73755,559.62289l-0.44759,-43.4241l93.01401,-2.58996l0.44759,43.42407z" fill="#252525" stroke="#000000" stroke-width="0"/><path d="M235.73755,559.62289l-0.44759,-43.4241l93.01401,-2.58996l0.44759,43.42407z" fill="none" stroke="#000000" stroke-width="3.5"/><path d="M327.73401,516.75468c0.02271,2.20358 3.11784,27.30415 0.07063,34.92475c-5.48067,13.70633 -19.66943,7.93577 -28.07489,8.16983c-13.07882,0.36419 -63.26413,5.63913 -63.3277,-0.52778c-0.01508,-1.46268 -3.24257,-42.12485 1.22146,-43.92912c5.42435,-2.19243 4.77386,22.74198 14.08025,27.63865c15.32569,8.06381 41.5884,-1.11691 47.79579,-1.28979c6.38483,-0.1778 15.8582,4.42105 21.21992,-2.41921c5.62136,-7.17149 6.98197,-25.72367 7.01451,-22.56733z" fill="#141414" stroke="none" stroke-width="0"/><path d="M235.73755,559.62289l-0.44759,-43.4241l93.01401,-2.58996l0.44759,43.42407z" fill="none" stroke="#000000" stroke-width="3.5"/></g><g><path d="M310.12415,570.88781l-0.21935,-43.4241l45.58264,-2.58997l0.21935,43.42407z" fill="#252525" stroke="#000000" stroke-width="0"/><path d="M310.12415,570.88781l-0.21935,-43.4241l45.58264,-2.58997l0.21935,43.42407z" fill="#6c6c6c" stroke="#000000" stroke-width="0"/><path d="M310.12415,570.88781l-0.21935,-43.4241l45.58264,-2.58997l0.21935,43.42407z" fill="none" stroke="#000000" stroke-width="3.5"/><path d="M355.20813,528.01961c0.01112,2.20358 1.52794,27.30413 0.03461,34.92475c-2.68587,13.70633 -9.63925,7.93578 -13.75845,8.16984c-6.40944,0.36419 -31.00335,5.63912 -31.0345,-0.52779c-0.00739,-1.46268 -1.58905,-42.12485 0.5986,-43.92912c2.65827,-2.19243 2.33949,22.74198 6.90019,27.63865c7.51055,8.06381 20.38091,-1.11693 23.42291,-1.28979c3.12896,-0.17778 7.7715,4.42107 10.39909,-2.4192c2.75482,-7.17148 3.42161,-25.72366 3.43755,-22.56733z" fill="#545454" stroke="none" stroke-width="0"/><path d="M310.12415,570.88781l-0.21935,-43.4241l45.58264,-2.58997l0.21935,43.42407z" fill="none" stroke="#000000" stroke-width="3.5"/></g><g><path d="M241.5959,574.87748l-0.21935,-43.4241l45.58263,-2.58997l0.21936,43.42409z" fill="#252525" stroke="#000000" stroke-width="0"/><path d="M241.5959,574.87748l-0.21935,-43.4241l45.58263,-2.58997l0.21936,43.42409z" fill="#6c6c6c" stroke="#000000" stroke-width="0"/><path d="M241.5959,574.87748l-0.21935,-43.4241l45.58263,-2.58997l0.21936,43.42409z" fill="none" stroke="#000000" stroke-width="3.5"/><path d="M286.67988,532.00929c0.01112,2.20358 1.52793,27.30413 0.03461,34.92475c-2.68587,13.70633 -9.63925,7.93577 -13.75845,8.16984c-6.40944,0.36419 -31.00335,5.63913 -31.0345,-0.52778c-0.00739,-1.46268 -1.58905,-42.12487 0.5986,-43.92912c2.65828,-2.19243 2.33949,22.74198 6.90021,27.63863c7.51055,8.06381 20.38089,-1.11691 23.42291,-1.28977c3.12896,-0.17778 7.7715,4.42105 10.39909,-2.41921c2.75482,-7.17148 3.42161,-25.72364 3.43755,-22.56732z" fill="#545454" stroke="none" stroke-width="0"/><path d="M241.5959,574.87748l-0.21935,-43.4241l45.58263,-2.58997l0.21936,43.42409z" fill="none" stroke="#000000" stroke-width="3.5"/></g><g><path d="M279.14563,574.64278l-0.21935,-43.4241l45.58264,-2.58997l0.21935,43.42407z" fill="#252525" stroke="#000000" stroke-width="0"/><path d="M279.14563,574.64278l-0.21935,-43.4241l45.58264,-2.58997l0.21935,43.42407z" fill="#6c6c6c" stroke="#000000" stroke-width="0"/><path d="M279.14563,574.64278l-0.21935,-43.4241l45.58264,-2.58997l0.21935,43.42407z" fill="none" stroke="#000000" stroke-width="3.5"/><path d="M324.22961,531.77456c0.01112,2.20358 1.52793,27.30413 0.03461,34.92475c-2.68587,13.70633 -9.63925,7.93577 -13.75845,8.16984c-6.40944,0.36419 -31.00335,5.63913 -31.0345,-0.52778c-0.00739,-1.46268 -1.58904,-42.12487 0.5986,-43.92912c2.65828,-2.19243 2.33949,22.74198 6.90019,27.63863c7.51055,8.06381 20.38089,-1.11691 23.42291,-1.28977c3.12896,-0.17778 7.7715,4.42105 10.39909,-2.41921c2.75482,-7.17148 3.42161,-25.72364 3.43755,-22.56732z" fill="#545454" stroke="none" stroke-width="0"/><path d="M279.14563,574.64278l-0.21935,-43.4241l45.58264,-2.58997l0.21935,43.42407z" fill="none" stroke="#000000" stroke-width="3.5"/></g></g><g><g stroke-linecap="butt"><g><g><path d="M98.74057,245.99582l60.24288,-19.34821l11.26862,34.38251l-60.24286,19.34819z" fill="#252525" stroke="#000000" stroke-width="0"/><path d="M98.74057,245.99582l60.24288,-19.34821l11.26862,34.38251l-60.24286,19.34819z" fill="#252525" stroke="#000000" stroke-width="0"/><path d="M154.71538,228.26445c4.37885,-1.40634 -21.11103,7.41406 -30.1504,12.64341c-8.62187,4.98782 -0.73621,6.30513 0.03731,8.66528c0.75202,2.29454 -7.77437,15.79839 5.84743,17.64917c8.27171,1.12386 42.71857,-10.3101 40.54708,-7.38793c-1.78708,2.40484 -58.64695,19.51947 -60.67616,20.17119c-2.42335,0.7783 -0.43964,-1.0887 -1.45308,-3.39941c-2.56442,-5.84716 -5.22515,-17.83488 -6.36084,-21.30008c-1.01831,-3.10704 -14.31385,-3.26225 3.80317,-11.37713c10.07292,-4.51181 45.34841,-14.68272 48.40546,-15.66456z" fill="#141414" stroke="none" stroke-width="0"/><path d="M98.74057,245.99582l60.24288,-19.34821l11.26862,34.38251l-60.24286,19.34819z" fill="none" stroke="#000000" stroke-width="3.5"/><path d="M98.74057,245.99582l60.24288,-19.34821l11.26862,34.38251l-60.24286,19.34819z" fill="none" stroke="#000000" stroke-width="3.5"/></g><g><path d="M123.32392,229.53951l12.19735,-3.91744l16.46334,50.23244l-12.19735,3.91741z" fill="#252525" stroke="#000000" stroke-width="0"/><path d="M123.32392,229.53951l12.19735,-3.91744l16.46334,50.23244l-12.19735,3.91741z" fill="#252525" stroke="#000000" stroke-width="0"/><path d="M134.74894,226.22961c0.88659,-0.28475 -4.03778,2.22287 -4.99987,5.93036c-0.91766,3.53629 2.11573,8.1868 3.24583,11.63493c1.09868,3.3523 3.38993,18.3446 8.47127,25.8083c3.08562,4.53225 9.92171,1.79515 10.31231,4.92004c0.32145,2.57166 -11.61901,4.73077 -12.02987,4.86271c-1.73223,0.55634 -10.71169,-26.51315 -13.02663,-33.57641c-1.48774,-4.5394 -4.54072,-12.01616 -1.72952,-16.27381c1.56299,-2.36722 9.13755,-3.10734 9.75648,-3.30615z" fill="#141414" stroke="none" stroke-width="0"/><path d="M123.32392,229.53951l12.19735,-3.91744l16.46334,50.23244l-12.19735,3.91741z" fill="none" stroke="#000000" stroke-width="3.5"/><path d="M123.32392,229.53951l12.19735,-3.91744l16.46334,50.23244l-12.19735,3.91741z" fill="none" stroke="#000000" stroke-width="3.5"/></g><g><path d="M103.00398,232.76595l12.19735,-3.91741l18.6003,56.75258l-12.19733,3.91744z" fill="#252525" stroke="#000000" stroke-width="0"/><path d="M103.00398,232.76595l12.19735,-3.91741l18.6003,56.75258l-12.19733,3.91744z" fill="#252525" stroke="#000000" stroke-width="0"/><path d="M109.60938,235.93652c-0.79291,3.91697 2.45697,9.22803 3.73377,13.12374c1.24128,3.78744 4.13787,20.6268 9.56932,29.15868c3.2982,5.1809 10.11347,2.3802 10.62915,5.88682c0.42441,2.88581 -11.58057,4.8481 -11.9914,4.98005c-1.73223,0.55634 -11.8646,-30.03081 -14.48,-38.01089c-1.68085,-5.12859 -5.05936,-13.59859 -2.37728,-18.25024c1.49122,-2.58627 9.13093,-3.12763 9.74989,-3.32644c0.88658,-0.28474 -4.00215,2.33159 -4.83344,6.43825z" fill="#141414" stroke="none" stroke-width="0"/><path d="M103.00398,232.76595l12.19735,-3.91741l18.6003,56.75258l-12.19733,3.91744z" fill="none" stroke="#000000" stroke-width="3.5"/><path d="M103.00398,232.76595l12.19735,-3.91741l18.6003,56.75258l-12.19733,3.91744z" fill="none" stroke="#000000" stroke-width="3.5"/></g></g><g><path d="M145.79172,218.6854l14.00906,-4.49929l19.21085,58.61549l-14.00905,4.49928z" fill="#252525" stroke="#000000" stroke-width="0"/><path d="M145.79172,218.6854l14.00906,-4.49929l19.21085,58.61549l-14.00905,4.49928z" fill="#252525" stroke="#000000" stroke-width="0"/><path d="M158.9157,214.88982c1.01826,-0.32703 -4.6325,2.5684 -5.719,6.88303c-1.03634,4.11535 2.47822,9.55004 3.79692,13.57361c1.28204,3.91177 3.99917,21.39204 9.88478,30.1154c3.57398,5.29716 11.42255,2.14453 11.88883,5.78755c0.38375,2.99807 -13.33936,5.45002 -13.81124,5.60156c-1.98951,0.63897 -12.46575,-30.9486 -15.16702,-39.19059c-1.73604,-5.29694 -5.2885,-14.02472 -2.078,-18.97047c1.78503,-2.74979 10.49385,-3.57177 11.20475,-3.8001z" fill="#141414" stroke="none" stroke-width="0"/><path d="M145.79172,218.6854l14.00906,-4.49929l19.21085,58.61549l-14.00905,4.49928z" fill="none" stroke="#000000" stroke-width="3.5"/><path d="M145.79172,218.6854l14.00906,-4.49929l19.21085,58.61549l-14.00905,4.49928z" fill="none" stroke="#000000" stroke-width="3.5"/></g></g><path d="M82.22486,300.89898l17.29802,-48.27283" fill="none" stroke="#000000" stroke-width="2" stroke-linecap="round"/><path d="M102.385,261.33562l-3.93253,18.4169" fill="none" stroke="#000000" stroke-width="2" stroke-linecap="round"/><path d="M82.83537,322.87106l3.51463,-10.77711l21.44345,-33.96079" fill="none" stroke="#000000" stroke-width="2" stroke-linecap="round"/><path d="M73.49514,300.64406l8.21122,-31.53686l14.21066,-19.73062" fill="none" stroke="#000000" stroke-width="2" stroke-linecap="round"/></g><g><g data-paper-data="{&quot;index&quot;:null}" stroke-linecap="butt"><g><g><path d="M349.79411,275.40035l-62.52676,-9.69325l5.75548,-35.72134l62.52677,9.69327z" fill="#252525" stroke="#000000" stroke-width="0"/><path d="M349.79411,275.40035l-62.52676,-9.69325l5.75548,-35.72134l62.52677,9.69327z" fill="#252525" stroke="#000000" stroke-width="0"/><path d="M297.49114,230.91552c3.17295,0.49189 39.60471,5.02355 50.25905,7.90532c19.16278,5.18307 6.05496,7.41471 5.53485,10.64276c-0.58006,3.60011 -1.33415,15.85637 -2.95302,22.03254c-0.63978,2.44073 1.61138,3.97468 -0.90385,3.58477c-2.10614,-0.3265 -60.94234,-8.34245 -63.08337,-10.43841c-2.6016,-2.54682 33.20915,3.36191 41.20352,0.95882c13.16503,-3.95737 2.63253,-15.96238 3.01667,-18.34628c0.39508,-2.45205 7.97788,-4.98586 -1.31767,-8.56459c-9.7457,-3.75205 -36.30102,-8.47949 -31.75616,-7.77492z" fill="#141414" stroke="none" stroke-width="0"/><path d="M349.79411,275.40035l-62.52676,-9.69325l5.75548,-35.72134l62.52677,9.69327z" fill="none" stroke="#000000" stroke-width="3.5"/><path d="M349.79411,275.40035l-62.52676,-9.69325l5.75548,-35.72134l62.52677,9.69327z" fill="none" stroke="#000000" stroke-width="3.5"/></g><g><path d="M320.28727,279.45626l-12.65975,-1.96258l8.40868,-52.18842l12.65976,1.96259z" fill="#252525" stroke="#000000" stroke-width="0"/><path d="M320.28727,279.45626l-12.65975,-1.96258l8.40868,-52.18842l12.65976,1.96259z" fill="#252525" stroke="#000000" stroke-width="0"/><path d="M316.89402,225.78457c0.64243,0.0996 8.23955,-0.35341 10.1534,1.7404c3.44221,3.76587 1.5955,11.62797 0.83564,16.34414c-1.18235,7.33829 -5.81997,35.47865 -7.61786,35.19993c-0.42643,-0.06611 -12.55761,-0.33215 -12.64212,-2.92245c-0.10269,-3.14755 7.07723,-1.51271 9.41644,-6.47159c3.85215,-8.16623 3.77164,-23.33239 4.3328,-26.81522c0.5772,-3.58243 2.84632,-8.64992 1.38716,-11.99928c-1.52982,-3.51154 -6.78565,-5.21855 -5.86544,-5.07589z" fill="#141414" stroke="none" stroke-width="0"/><path d="M320.28727,279.45626l-12.65975,-1.96258l8.40868,-52.18842l12.65976,1.96259z" fill="none" stroke="#000000" stroke-width="3.5"/><path d="M320.28727,279.45626l-12.65975,-1.96258l8.40868,-52.18842l12.65976,1.96259z" fill="none" stroke="#000000" stroke-width="3.5"/></g><g><path d="M339.77036,286.24073l-12.65978,-1.9626l9.50012,-58.96249l12.65976,1.96258z" fill="#252525" stroke="#000000" stroke-width="0"/><path d="M339.77036,286.24073l-12.65978,-1.9626l9.50012,-58.96249l12.65976,1.96258z" fill="#252525" stroke="#000000" stroke-width="0"/><path d="M337.46147,225.83882c0.64243,0.0996 8.27283,-0.55992 10.14999,1.76145c3.37625,4.17518 1.3633,13.0692 0.50478,18.39749c-1.33584,8.29081 -6.5623,40.08581 -8.36018,39.8071c-0.42643,-0.06611 -12.59056,-0.12767 -12.62247,-3.04434c-0.03879,-3.54412 7.1305,-1.84321 9.57829,-7.47599c4.03097,-9.27603 4.25962,-26.36115 4.89364,-30.29609c0.65213,-4.0474 3.03182,-9.80119 1.63638,-13.54607c-1.46303,-3.9262 -6.70061,-5.74619 -5.78041,-5.60356z" fill="#141414" stroke="none" stroke-width="0"/><path d="M339.77036,286.24073l-12.65978,-1.9626l9.50012,-58.96249l12.65976,1.96258z" fill="none" stroke="#000000" stroke-width="3.5"/><path d="M339.77036,286.24073l-12.65978,-1.9626l9.50012,-58.96249l12.65976,1.96258z" fill="none" stroke="#000000" stroke-width="3.5"/></g></g><g><path d="M294.99568,280.95725l-14.54016,-2.2541l9.81198,-60.89792l14.54014,2.2541z" fill="#252525" stroke="#000000" stroke-width="0"/><path d="M294.99568,280.95725l-14.54016,-2.2541l9.81198,-60.89792l14.54014,2.2541z" fill="#252525" stroke="#000000" stroke-width="0"/><path d="M291.25175,218.36193c0.73785,0.11439 9.46811,-0.43507 11.66101,2.00189c3.94413,4.3831 1.79965,13.55889 0.91297,19.06208c-1.37968,8.56295 -6.78941,41.39983 -8.85433,41.0797c-0.48976,-0.07592 -14.42748,-0.35257 -14.51708,-3.37376c-0.10891,-3.67114 8.13597,-1.78414 10.83797,-7.57484c4.44963,-9.53612 4.40086,-27.22625 5.05566,-31.29035c0.67353,-4.18027 3.29532,-10.09751 1.62844,-14.00028c-1.74761,-4.09177 -7.78149,-6.06828 -6.72464,-5.90444z" fill="#141414" stroke="none" stroke-width="0"/><path d="M294.99568,280.95725l-14.54016,-2.2541l9.81198,-60.89792l14.54014,2.2541z" fill="none" stroke="#000000" stroke-width="3.5"/><path d="M294.99568,280.95725l-14.54016,-2.2541l9.81198,-60.89792l14.54014,2.2541z" fill="none" stroke="#000000" stroke-width="3.5"/></g></g><path d="M393.50889,299.12985l-38.37002,-53.45419" fill="none" stroke="#000000" stroke-width="2" stroke-linecap="round"/><path d="M387.79569,326.95177l-33.01084,-71.13372" fill="none" stroke="#000000" stroke-width="2" stroke-linecap="round"/><path d="M356.93455,275.19667l-4.47413,-7.67642" fill="none" stroke="#000000" stroke-width="2" stroke-linecap="round"/><path d="M357.31459,242.3507l16.80618,57.82679l5.73655,26.40138" fill="none" stroke="#000000" stroke-width="2" stroke-linecap="round"/></g></g></g></svg>