<svg version="1.1" xmlns="http://www.w3.org/2000/svg" xmlns:xlink="http://www.w3.org/1999/xlink" width="320.66872" height="287.97803" viewBox="0,0,320.66872,287.97803"><defs><linearGradient x1="216" y1="74.69994" x2="216" y2="191.70394" gradientUnits="userSpaceOnUse" id="color-1"><stop offset="0" stop-color="#000000"/><stop offset="1" stop-color="#07282b"/></linearGradient></defs><g transform="translate(-80.367,-37.25)"><g data-paper-data="{&quot;isPaintingLayer&quot;:true}" fill-rule="nonzero" stroke-linejoin="miter" stroke-miterlimit="10" stroke-dasharray="" stroke-dashoffset="0" style="mix-blend-mode: normal"><path d="M87,318.5v-277h306v277z" fill="#5a5a5a" stroke="#000000" stroke-width="4" stroke-linecap="butt"/><path d="M318.5,304v-264h74v264z" fill="#000000" stroke="#000000" stroke-width="4" stroke-linecap="butt"/><path d="M83.5,236.8293c0,-44.45892 63.12785,-80.5 141,-80.5c23.21848,0 67.80521,-0.03189 93.96717,14.98582c31.12567,17.86702 43.23464,51.63515 60.57135,56.91742c16.96405,5.16873 10.46148,-51.83523 10.46148,-36.40324c0,13.43861 0.77749,63.62236 3.50995,95.03938c1.59466,18.335 11.10868,23.68414 2.40319,28.98878c-25.72703,15.67662 -130.31649,1.47183 -170.91314,1.47183c-39.44039,0 -108.0986,7.75481 -133.68862,-7.14675c-11.29707,-6.5785 -4.85856,-17.7487 -4.281,-30.04015c0.69726,-14.83899 -3.03038,-31.31218 -3.03038,-43.3131z" fill="#b4b4b4" stroke="#000000" stroke-width="4" stroke-linecap="butt"/><path d="M366.5,44l-39,132c0,0 -73.83673,18.75044 -85.72498,21.51286c-6.97089,1.61979 -51.81968,8.83564 -93.4146,19.25944c-25.9554,6.50449 -53.08628,22.19614 -61.45483,14.17733c-12.24611,-11.73432 -0.32942,-35.93684 -2.61581,-56.48568c-6.56977,-59.04567 0.21022,-131.46395 0.21022,-131.46395" fill="#737373" stroke="#000000" stroke-width="0" stroke-linecap="round"/><path d="M133.52128,188.93883c35.51915,2.8726 91.3257,-23.73689 126.47872,-23.73689c64.89346,0 94.5,-92.77768 94.5,-74c0,7.03346 -29.12884,84.35969 -29.12884,84.35969c0,0 -175.7845,51.64031 -216.37116,51.64031c-31.91454,0 -17.03224,6.34248 -17.03224,6.34248c0,0 -1.46776,-61.79964 -1.46776,-71.34248c0,-8.60574 12.97109,24.30658 43.02128,26.73689z" fill="#5a5a5a" stroke="none" stroke-width="0" stroke-linecap="butt"/><path d="M88.89342,232.27442c8.7833,-7.34284 33.77103,-12.27442 58.60658,-12.27442c36.25655,0 -70.41534,61.5102 -25.90798,74.68924c59.22156,17.53606 265.90798,-11.20271 265.90798,-2.68924c0,5.78514 13.68978,20.14533 -3.86494,24.53955c-27.69404,6.93226 -97.41797,2.46045 -149.13506,2.46045c-56.69194,0 -115.18227,5.55874 -141.61581,-2.52581c-12.96576,-3.9655 -0.38419,-19.56696 -0.38419,-24.47419c0,-10.52895 -24.70725,-42.0854 -3.60658,-59.72558z" fill="#9e9e9e" stroke="none" stroke-width="0" stroke-linecap="butt"/><path d="M365.5,45l-39,132l-241,56" fill="none" stroke="#000000" stroke-width="4" stroke-linecap="round"/><path d="M395.5,304.32929l-28,-35l29,-36" fill="#7b7b7b" stroke="#000000" stroke-width="4" stroke-linecap="round"/><path d="M87,318.5v-277h306v277z" fill="none" stroke="#000000" stroke-width="8.5" stroke-linecap="butt"/><path d="M120.67427,191.70394l-8.83089,-103.70607l199.48234,-13.29793l5.83089,79.70607z" fill="url(#color-1)" stroke="#000000" stroke-width="8.5" stroke-linecap="butt"/></g></g></svg>