<svg version="1.1" xmlns="http://www.w3.org/2000/svg" xmlns:xlink="http://www.w3.org/1999/xlink" width="226.85387" height="346.2803" viewBox="0,0,226.85387,346.2803"><g transform="translate(-131.57831,-7.87508)"><g data-paper-data="{&quot;isPaintingLayer&quot;:true}" fill-rule="nonzero" stroke-linejoin="miter" stroke-miterlimit="10" stroke-dasharray="" stroke-dashoffset="0" style="mix-blend-mode: normal"><g><path d="M308.68266,203.37414l-45.72283,-59.90731l16.33512,-13.31764l45.72283,59.90731z" data-paper-data="{&quot;index&quot;:null}" fill="#1b1b1b" stroke="#000000" stroke-width="2.5" stroke-linecap="butt"/><g data-paper-data="{&quot;index&quot;:null}"><g stroke-linecap="butt"><path d="M322.80448,181.85608c2.83097,7.00035 1.76058,22.86403 -4.6349,25.45038c-6.39548,2.58636 -48.11684,-52.72259 -50.94779,-59.72292c-1.81816,-4.49589 -4.65196,-8.88374 -2.33767,-12.43796c1.28918,-1.97988 6.50372,-3.99499 8.79178,-4.92029c3.31914,-1.34228 8.65029,24.91822 20.15335,37.8209c10.66154,11.95877 27.61351,10.44263 28.97525,13.8099z" fill="#840000" stroke="#000000" stroke-width="0"/><path d="M322.10615,178.99478c4.4784,11.0741 1.6624,22.65844 -5.00577,25.35508c-6.66818,2.69664 -44.93848,-45.23928 -49.4169,-56.31339c-2.95477,-7.30647 17.72042,21.27088 33.41196,37.18216c8.0915,8.20478 14.17394,9.15216 16.4426,8.23471c6.66818,-2.69664 0.08969,-25.53266 4.56809,-14.45855z" fill="#430000" stroke="none" stroke-width="0"/><path d="M322.58535,181.31413c2.83097,7.00035 1.76058,22.86403 -4.6349,25.45038c-6.39547,2.58635 -48.11684,-52.72259 -50.94779,-59.72292c-1.53327,-3.79141 -9.41799,-7.37829 -7.947,-10.67585c1.24498,-2.79092 11.46945,-5.49681 14.40111,-6.68239c3.50738,-1.4184 9.42243,25.72306 21.44352,39.41429c9.89857,11.2738 26.40665,9.05527 27.68507,12.21651z" fill="none" stroke="#000000" stroke-width="3"/></g><path d="M294.20199,167.47982l-5.16656,7.70065" fill="none" stroke="#000000" stroke-width="3" stroke-linecap="round"/></g></g><path d="M199.88915,317.77922l19.9282,-68.46429l20.13656,5.86124l-19.9282,68.46429z" fill="#1b1b1b" stroke="#000000" stroke-width="2.5" stroke-linecap="butt"/><g data-paper-data="{&quot;index&quot;:null}"><g stroke-linecap="butt"><path d="M270.37871,221.71987c9.05289,1.87604 25.48505,76.70384 24.34319,85.64984c-1.14186,8.946 -18.69738,24.82654 -27.75028,22.9505c-9.05291,-1.87605 -16.19401,-86.85306 -15.05215,-95.79906c0.56671,-4.43994 -1.83583,-10.12532 1.4654,-12.44459c3.35038,-2.35381 12.43392,-1.30164 16.99382,-0.35668z" fill="#840000" stroke="#000000" stroke-width="0"/><path d="M281.2821,315.25786c9.43894,1.95605 16.24499,-25.37733 14.43863,-11.22532c-1.80635,14.15202 -19.50113,30.01898 -28.94006,28.06293c-9.43895,-1.95605 -16.41841,-82.64962 -14.61206,-96.80162c1.19179,-9.33722 7.10652,33.53171 15.24798,60.31071c4.19824,13.80884 10.65415,18.9878 13.86549,19.65329z" fill="#430000" stroke="none" stroke-width="0"/><path d="M270.46709,221.02728c9.05289,1.87604 25.48505,76.70384 24.34319,85.64984c-1.14186,8.946 -18.97066,26.19296 -28.02357,24.31691c-9.05291,-1.87605 -15.92072,-88.21947 -14.77887,-97.16547c0.60587,-4.74666 -2.49797,-11.53655 1.17213,-13.81702c3.2469,-2.01751 13.03758,0.13512 17.2871,1.01576z" fill="none" stroke="#000000" stroke-width="3"/></g><path d="M255.40186,278.84555l31.95867,-16.03198" fill="none" stroke="#000000" stroke-width="3" stroke-linecap="round"/></g><g><g stroke-linecap="butt"><path d="M230.48967,215.94013c4.55991,-0.94495 13.64345,-1.99711 16.99382,0.35668c3.30123,2.31927 0.89869,8.00464 1.46541,12.44459c0.60866,4.76861 -1.13616,31.14032 -4.26952,55.01356c-2.74487,20.91342 -6.55533,39.90948 -10.78264,40.7855c-3.22292,0.66789 1.51989,-29.85954 -0.81402,-48.72951c-0.15895,-1.28515 -3.11228,-3.97798 -3.48856,-5.04044c-2.2994,-6.49251 -5.37054,-7.53414 -7.01242,-9.01511c-5.22581,-4.71362 -15.89679,44.05331 -16.43527,39.83456c-1.14186,-8.946 15.2903,-83.7738 24.34319,-85.64984z" fill="#840000" stroke="#000000" stroke-width="0"/><path d="M236.36409,325.49326c3.21134,-0.66549 -7.11055,-21.85963 -2.91231,-35.66847c8.14146,-26.77899 14.0562,-69.64792 15.248,-60.31071c1.80635,14.15201 -5.17312,94.84558 -14.61206,96.80162c-9.43894,1.95605 3.75269,0.9603 1.94633,-13.19171c-1.80635,-14.15201 -9.1089,14.32529 0.33004,12.36926z" fill="#430000" stroke="none" stroke-width="0"/><path d="M230.40127,215.24757c4.24952,-0.88064 14.0402,-3.03327 17.2871,-1.01575c3.67009,2.28047 0.56627,9.07036 1.17213,13.81703c0.64454,5.04973 -1.26299,34.76009 -4.67502,60.01929c-2.63266,19.48952 -6.16101,36.32909 -10.10384,37.14618c-2.2808,0.47265 0.98236,-49.45796 -2.00534,-50.97439c-3.96987,-2.01495 -7.51957,-19.5704 -12.41339,-12.4089c-6.0418,8.84144 -13.13291,42.7637 -13.60483,39.06638c-1.14186,-8.946 15.2903,-83.7738 24.34319,-85.64984z" fill="none" stroke="#000000" stroke-width="3"/></g><path d="M245.4665,273.06583l-31.95867,-16.03198" fill="none" stroke="#000000" stroke-width="3" stroke-linecap="round"/></g><g><g stroke-linecap="butt"><path d="M200.51938,138.29985c3.84464,-0.61776 11.52543,-1.15521 14.43133,0.93574c2.86329,2.06025 0.9756,6.7167 1.57462,10.44485c1.20698,7.51177 -7.94917,77.26944 -15.58203,78.49588c-7.63287,1.22645 -17.59779,-11.77061 -18.80477,-19.28238c-1.20698,-7.51177 10.74798,-69.36767 18.38083,-70.5941z" fill="#840000" stroke="#000000" stroke-width="0"/><path d="M193.75407,215.98421c2.7076,-0.43505 8.04868,-4.51655 11.24425,-15.88777c6.19702,-22.0518 10.07636,-57.62046 11.33613,-49.78022c1.90938,11.88315 -7.87916,74.63112 -15.83753,75.90986c-7.95835,1.27873 -17.38544,-8.27263 -19.29481,-20.15576c-1.90938,-11.88315 4.5936,11.19264 12.55194,9.91389z" fill="#430000" stroke="none" stroke-width="0"/><path d="M200.42593,137.71832c3.58295,-0.57571 11.83457,-2.00537 14.64373,-0.19909c3.17528,2.0417 0.7218,7.59397 1.36222,11.57965c1.20698,7.51177 -7.94917,77.26944 -15.58203,78.49588c-7.63287,1.22645 -17.59779,-11.77061 -18.80477,-19.28238c-1.20698,-7.51177 10.74798,-69.36767 18.38083,-70.5941z" fill="none" stroke="#000000" stroke-width="3"/></g><path d="M187.20067,171.97094l23.79388,13.05153" fill="none" stroke="#000000" stroke-width="3" stroke-linecap="round"/></g><g><path d="M169.36525,224.3277c4.89958,-7.97239 14.76108,-10.81576 22.02624,-6.3508c7.26517,4.46493 9.18285,14.54741 4.28327,22.51981c-4.89958,7.9724 -14.76109,10.81575 -22.02625,6.3508c-7.26518,-4.46494 -9.18285,-14.54741 -4.28327,-22.51981z" fill="#840000" stroke="#000000" stroke-width="0" stroke-linecap="butt"/><path d="M167.15225,230.45802c2.76589,-4.50055 7.83108,-18.28237 14.26044,-14.33108c1.07868,0.66292 -4.51361,4.29122 -7.04715,9.97059c-2.40319,5.38717 -1.75084,12.80626 -0.95903,14.58155c3.34898,7.50862 18.89019,1.05853 17.02849,4.08779c-2.7659,4.50053 -10.22012,4.94581 -16.64947,0.99453c-6.42935,-3.95128 -9.39918,-10.80284 -6.63328,-15.3034z" fill="#430000" stroke="none" stroke-width="0" stroke-linecap="butt"/><path d="M190.90128,218.71061c7.26518,4.46494 9.18285,14.54741 4.28327,22.51981c-4.89958,7.9724 -14.76107,10.81576 -22.02624,6.3508c-7.26518,-4.46494 -9.18285,-14.54741 -4.28327,-22.51981c4.89958,-7.9724 14.76107,-10.81576 22.02624,-6.3508z" fill="none" stroke="#000000" stroke-width="3.5" stroke-linecap="butt"/><g><path d="M189.50975,256.79003c3.7142,-6.04358 -5.66911,-15.67313 -2.71161,-13.85555c1.38228,0.8495 8.63035,-4.11675 11.94249,-0.33227c3.77452,4.31278 3.45743,17.55092 1.47916,20.76989c-3.71421,6.0436 -9.12267,9.46945 -12.08019,7.65186c-2.95751,-1.81759 -2.34408,-8.19033 1.37012,-14.23393z" fill="#840000" stroke="#000000" stroke-width="0" stroke-linecap="butt"/><path d="M187.78795,244.48914c-0.20625,-3.63421 3.90439,-3.43271 4.51781,-3.05571c1.67164,1.02733 4.4213,24.122 2.88029,26.62945c-1.541,2.50745 -4.14535,3.70731 -5.81698,2.67998c-1.67163,-1.02733 -2.37945,-3.78743 -0.83844,-6.29489c0.97551,-1.5873 -0.35519,-13.13085 -0.74267,-19.95883z" fill="#430000" stroke="none" stroke-width="0" stroke-linecap="butt"/><path d="M186.5918,242.6857c1.38228,0.8495 8.63035,-4.11675 11.94249,-0.33227c3.77452,4.31278 3.45743,17.55092 1.47916,20.76989c-3.7142,6.04358 -9.12269,9.46944 -12.08019,7.65186c-2.9575,-1.81758 -2.34407,-8.19034 1.37013,-14.23393c3.7142,-6.04358 -5.6691,-15.67313 -2.71161,-13.85555z" fill="none" stroke="#000000" stroke-width="3.5" stroke-linecap="butt"/><path d="M201.03109,255.7262l-10.2589,-0.53103" fill="none" stroke="#000000" stroke-width="3.5" stroke-linecap="round"/></g><g data-paper-data="{&quot;index&quot;:null}"><path d="M156.16131,241.84982c-1.63594,6.90247 -5.70037,11.84904 -9.07819,11.04846c-3.37781,-0.80057 -4.78986,-7.04509 -3.15392,-13.94757c0.87134,-3.67642 9.99235,-13.2762 15.71031,-13.6661c5.01752,-0.34213 6.64503,8.29207 8.22373,8.66624c3.37781,0.80057 -10.06602,0.99649 -11.70195,7.89894z" fill="#840000" stroke="#000000" stroke-width="0" stroke-linecap="butt"/><path d="M151.44857,247.96481c-0.67874,2.8638 -3.12858,4.31895 -5.03777,3.86646c-1.90919,-0.45249 -2.90668,-3.14087 -2.22793,-6.00466c0.67874,-2.8638 18.93008,-17.2795 20.83928,-16.82701c0.7006,0.16605 3.75422,2.92526 1.04254,5.3536c-5.09471,4.56239 -14.18645,11.79872 -14.61612,13.6116z" fill="#430000" stroke="none" stroke-width="0" stroke-linecap="butt"/><path d="M156.48307,241.81928c-1.63593,6.90247 -5.70037,11.84904 -9.07818,11.04847c-3.37779,-0.80056 -4.78986,-7.0451 -3.15392,-13.94757c0.87134,-3.67642 9.99235,-13.2762 15.71031,-13.6661c5.01752,-0.34213 6.64503,8.29207 8.22373,8.66624c3.37779,0.80056 -10.06602,0.99649 -11.70195,7.89894z" fill="none" stroke="#000000" stroke-width="3.5" stroke-linecap="butt"/><path d="M148.75231,232.96277l7.64077,6.86627" fill="none" stroke="#000000" stroke-width="3.5" stroke-linecap="round"/></g><g data-paper-data="{&quot;index&quot;:null}"><path d="M168.29531,252.14355c-0.20958,7.0906 -3.19234,12.75551 -6.66221,12.65294c-3.46986,-0.10256 -6.11285,-5.93374 -5.90328,-13.02434c0.11162,-3.7766 7.10808,-15.01932 12.62977,-16.55491c4.84529,-1.34747 8.18146,6.78075 9.80319,6.82869c3.46986,0.10256 -9.65792,3.00701 -9.8675,10.0976z" fill="#840000" stroke="#000000" stroke-width="0" stroke-linecap="butt"/><path d="M164.91333,259.08367c-0.08694,2.94184 -2.19279,4.86137 -4.15401,4.80343c-1.96122,-0.05797 -3.48062,-2.48978 -3.39368,-5.43162c0.08694,-2.94184 15.05423,-20.74365 17.01546,-20.68568c0.71971,0.02127 4.26726,2.1076 2.10131,5.03313c-4.06938,5.49652 -11.51404,14.41847 -11.56908,16.28075z" fill="#430000" stroke="none" stroke-width="0" stroke-linecap="butt"/><path d="M168.60431,252.04869c-0.20957,7.09058 -3.19234,12.75551 -6.6622,12.65294c-3.46985,-0.10256 -6.11285,-5.93375 -5.90328,-13.02434c0.11162,-3.7766 7.10808,-15.01932 12.62977,-16.55491c4.84529,-1.34747 8.18146,6.78075 9.80319,6.82869c3.46985,0.10256 -9.65792,3.00701 -9.8675,10.0976z" fill="none" stroke="#000000" stroke-width="3.5" stroke-linecap="butt"/><path d="M159.24553,244.93421l8.86904,5.18336" fill="none" stroke="#000000" stroke-width="3.5" stroke-linecap="round"/></g><g data-paper-data="{&quot;index&quot;:null}"><path d="M179.09078,258.27503c2.47125,6.64931 1.83678,13.01999 -1.41714,14.22933c-3.25392,1.20933 -7.89508,-3.20061 -10.36632,-9.84992c-1.31624,-3.54157 0.94075,-16.58975 5.4802,-20.08839c3.98338,-3.07006 10.13036,3.20788 11.65118,2.64267c3.25392,-1.20933 -7.81917,6.41702 -5.34791,13.06632z" fill="#840000" stroke="#000000" stroke-width="0" stroke-linecap="butt"/><path d="M178.56573,265.97749c1.02531,2.75876 -0.2045,5.32912 -2.04367,6.01266c-1.83917,0.68354 -4.16129,-0.99875 -5.18659,-3.7575c-1.02531,-2.75876 6.15222,-24.8813 7.9914,-25.56484c0.67492,-0.25083 4.74654,0.34889 3.83921,3.87406c-1.70468,6.6231 -5.24941,17.68923 -4.60037,19.43561z" fill="#430000" stroke="none" stroke-width="0" stroke-linecap="butt"/><path d="M179.34143,258.071c2.47126,6.64929 1.83678,13.01999 -1.41712,14.22932c-3.25391,1.20934 -7.89507,-3.20063 -10.36632,-9.84992c-1.31624,-3.54157 0.94075,-16.58975 5.4802,-20.08839c3.98338,-3.07006 10.13036,3.20788 11.65118,2.64267c3.25391,-1.20934 -7.81917,6.41702 -5.34791,13.06632z" fill="none" stroke="#000000" stroke-width="3.5" stroke-linecap="butt"/><path d="M167.99465,254.99642l10.16703,1.46918" fill="none" stroke="#000000" stroke-width="3.5" stroke-linecap="round"/></g></g><g data-paper-data="{&quot;index&quot;:null}"><path d="M336.79005,206.34423c2.41251,9.04128 -2.31098,18.15294 -10.55022,20.35144c-8.23923,2.19851 -16.8742,-3.34867 -19.28671,-12.38996c-2.41251,-9.04128 2.31099,-18.15294 10.55022,-20.35144c8.23923,-2.19851 16.87419,3.34868 19.2867,12.38996z" fill="#840000" stroke="#000000" stroke-width="0" stroke-linecap="butt"/><path d="M337.15566,212.8515c1.36191,5.10395 -3.44487,10.81873 -10.73624,12.76431c-7.29136,1.94558 -14.30621,-0.6148 -15.66812,-5.71874c-0.91669,-3.43541 12.12792,7.19338 17.48607,0.95757c1.26685,-1.47436 4.01557,-8.39627 3.25499,-14.24593c-0.80183,-6.16694 -5.12154,-11.24418 -3.89824,-11.57059c7.29136,-1.94558 8.19964,12.70944 9.56154,17.8134z" fill="#430000" stroke="none" stroke-width="0" stroke-linecap="butt"/><path d="M337.04973,207.18762c2.41251,9.04128 -2.31098,18.15294 -10.55022,20.35144c-8.23924,2.19851 -16.87419,-3.34867 -19.2867,-12.38996c-2.41251,-9.04128 2.31098,-18.15294 10.55022,-20.35144c8.23924,-2.19851 16.87419,3.34867 19.2867,12.38996z" fill="none" stroke="#000000" stroke-width="3.5" stroke-linecap="butt"/><g><path d="M308.19629,231.68197c1.82884,6.85389 0.59244,13.13556 -2.7616,14.03052c-3.35403,0.89496 -7.55557,-3.93568 -9.38441,-10.78957c-0.97408,-3.65053 2.51145,-16.42551 7.36254,-19.4774c4.25684,-2.67803 9.78007,4.15512 11.34767,3.73684c3.35403,-0.89496 -8.39306,5.64572 -6.56422,12.4996z" fill="#840000" stroke="#000000" stroke-width="0" stroke-linecap="butt"/><path d="M306.94241,239.29978c0.75878,2.84363 -0.70949,5.28563 -2.60524,5.7915c-1.89575,0.50585 -4.04767,-1.38929 -4.80645,-4.23292c-0.75878,-2.84363 8.48655,-24.18486 10.38231,-24.69071c0.69568,-0.18563 4.69198,0.79793 3.45408,4.22104c-2.32575,6.43136 -6.90504,17.11098 -6.42471,18.9111z" fill="#430000" stroke="none" stroke-width="0" stroke-linecap="butt"/><path d="M308.46522,231.50264c1.82884,6.85387 0.59244,13.13556 -2.76159,14.03052c-3.35402,0.89496 -7.55557,-3.93569 -9.38441,-10.78957c-0.97408,-3.65053 2.51145,-16.42551 7.36254,-19.4774c4.25684,-2.67803 9.78007,4.15512 11.34767,3.73684c3.35402,-0.89496 -8.39306,5.64572 -6.56422,12.4996z" fill="none" stroke="#000000" stroke-width="3.5" stroke-linecap="butt"/><path d="M297.46155,227.36475l9.98164,2.42775" fill="none" stroke="#000000" stroke-width="3.5" stroke-linecap="round"/></g><g data-paper-data="{&quot;index&quot;:null}"><path d="M344.42585,226.91272c0.40832,-7.08192 -12.41689,-11.11786 -8.95127,-10.91804c1.61975,0.09339 5.65065,-7.71367 10.36029,-5.94962c5.36709,2.0103 11.35855,13.81926 11.14109,17.59124c-0.40832,7.08192 -3.54876,12.66097 -7.01437,12.46116c-3.46563,-0.19981 -5.94406,-6.10282 -5.53576,-13.18474z" fill="#840000" stroke="#000000" stroke-width="0" stroke-linecap="butt"/><path d="M337.08272,216.89503c-1.90312,-3.10293 1.81254,-4.8726 2.53136,-4.83116c1.95884,0.11294 15.32005,19.14979 15.15065,22.08804c-0.16941,2.93825 -1.89469,5.22861 -3.85351,5.11567c-1.95883,-0.11294 -3.88963,-2.20846 -3.72022,-5.1467c0.10724,-1.86001 -6.5327,-11.39602 -10.10828,-17.22583z" fill="#430000" stroke="none" stroke-width="0" stroke-linecap="butt"/><path d="M335.17504,215.87331c1.61976,0.09339 5.65065,-7.71367 10.3603,-5.94962c5.36709,2.0103 11.35855,13.81926 11.14109,17.59126c-0.40832,7.08192 -3.54876,12.66096 -7.01438,12.46115c-3.46561,-0.19981 -5.94405,-6.10283 -5.53573,-13.18474c0.40831,-7.08192 -12.41689,-11.11786 -8.95127,-10.91804z" fill="none" stroke="#000000" stroke-width="3.5" stroke-linecap="butt"/><path d="M354.06872,220.51835l-9.2865,4.39183" fill="none" stroke="#000000" stroke-width="3.5" stroke-linecap="round"/></g><g data-paper-data="{&quot;index&quot;:null}"><path d="M329.85308,233.30242c1.82884,-6.85387 -9.91825,-13.39456 -6.56422,-12.4996c1.5676,0.41828 7.09083,-6.41488 11.34767,-3.73684c4.85109,3.05188 8.33662,15.82686 7.36254,19.4774c-1.82884,6.85389 -6.03037,11.68453 -9.38441,10.78957c-3.35403,-0.89496 -4.59044,-7.17664 -2.7616,-14.03052z" fill="#840000" stroke="#000000" stroke-width="0" stroke-linecap="butt"/><path d="M324.68224,222.00915c-1.23789,-3.4231 2.75841,-4.40668 3.45408,-4.22105c1.89576,0.50585 11.14109,21.84708 10.38231,24.69071c-0.75878,2.84363 -2.9107,4.73877 -4.80645,4.23292c-1.89575,-0.50585 -3.36402,-2.94787 -2.60524,-5.7915c0.48033,-1.80012 -4.09896,-12.47974 -6.4247,-18.9111z" fill="#430000" stroke="none" stroke-width="0" stroke-linecap="butt"/><path d="M323.01995,220.62352c1.5676,0.41828 7.09083,-6.41488 11.34767,-3.73684c4.85109,3.05188 8.33662,15.82686 7.36254,19.4774c-1.82884,6.85387 -6.03039,11.68453 -9.38441,10.78957c-3.35402,-0.89496 -4.59043,-7.17665 -2.76159,-14.03052c1.82884,-6.85387 -9.91824,-13.39456 -6.56422,-12.4996z" fill="none" stroke="#000000" stroke-width="3.5" stroke-linecap="butt"/><path d="M330.60615,231.41295l9.98164,-2.42775" fill="none" stroke="#000000" stroke-width="3.5" stroke-linecap="round"/></g><g data-paper-data="{&quot;index&quot;:null}"><path d="M317.75423,236.08725c4.27118,-5.66368 -4.15558,-16.14054 -1.38397,-14.05039c1.29539,0.97688 8.9822,-3.27882 11.9201,0.80299c3.34804,4.65164 1.77561,17.79989 -0.49931,20.81649c-4.27118,5.6637 -9.98046,8.56061 -12.75207,6.47047c-2.77161,-2.09015 -1.55594,-8.37588 2.71523,-14.03957z" fill="#840000" stroke="#000000" stroke-width="0" stroke-linecap="butt"/><path d="M317.20799,223.67847c0.1397,-3.63738 4.21263,-3.04653 4.78751,-2.613c1.56656,1.18139 2.11129,24.43279 0.33921,26.78261c-1.77208,2.34983 -4.47858,3.29703 -6.04513,2.11564c-1.56655,-1.18139 -2.00915,-3.99623 -0.23706,-6.34606c1.12179,-1.48752 0.89301,-13.10526 1.15548,-19.93919z" fill="#430000" stroke="none" stroke-width="0" stroke-linecap="butt"/><path d="M316.18848,221.7696c1.29539,0.97688 8.98219,-3.27882 11.9201,0.80299c3.34803,4.65164 1.77561,17.79989 -0.49931,20.81649c-4.27118,5.66368 -9.98047,8.56061 -12.75207,6.47047c-2.77159,-2.09015 -1.55593,-8.37589 2.71525,-14.03957c4.27118,-5.66368 -4.15557,-16.14053 -1.38397,-14.05039z" fill="none" stroke="#000000" stroke-width="3.5" stroke-linecap="butt"/><path d="M319.16237,234.61945l10.16216,1.50257" fill="none" stroke="#000000" stroke-width="3.5" stroke-linecap="round"/></g></g><g stroke-linecap="butt"><path d="M241.12722,219.4639l-8.35959,-55.81182l26.02038,-3.89737l8.35959,55.81182z" fill="#1b1b1b" stroke="#000000" stroke-width="2.5"/><g><path d="M214.51491,223.0231l-2.88067,-19.23245l63.35395,-9.48927l2.88067,19.23245z" fill="#1b1b1b" stroke="#000000" stroke-width="2.5"/><g><path d="M212.78904,207.81344c-2.30974,-15.42071 -5.54045,-52.41069 2.03602,-69.69478c5.38204,-12.27796 19.87495,-7.84887 27.62395,-9.00953c9.9465,-1.4898 18.4512,-10.58514 26.02329,5.00124c6.63157,13.6504 16.68686,47.44679 18.53131,59.76105c3.9505,26.37498 -11.59105,27.9554 -30.24859,30.74996c-12.96486,1.9419 -8.02591,-49.23959 -16.85171,-55.91305c-3.87527,-2.9302 -25.90891,47.15247 -27.11425,39.10511z" fill="#840000" stroke="#000000" stroke-width="0"/><path d="M241.12566,166.07606c-0.5014,-3.34753 -4.53539,-2.87318 -9.18551,5.2199c-3.42482,5.96054 -12.91032,30.04638 -14.62732,29.62788c-6.50298,-1.58507 1.47818,-44.41481 5.07053,-54.17764c3.60039,-9.78465 12.16539,-10.50918 17.70281,-11.33858c6.56529,-0.98336 13.95715,-3.62228 20.8739,5.95745c8.36158,11.58081 15.83843,36.84494 17.84752,50.25843c3.67104,24.50924 -10.92544,30.36773 -25.42744,32.53987c-2.70589,0.40529 1.40085,-4.42987 0.4298,-4.41275c-4.23324,0.07464 -0.73065,0.39055 -3.71672,-19.54557z" fill="#7d3c3c" stroke="#000000" stroke-width="0"/><path d="M215.41712,204.18706c-0.53223,-3.55335 -0.65606,-19.71428 2.72448,-35.02116c1.95477,-8.85106 2.52212,-18.61116 5.9794,-24.7997c2.89898,-5.18917 8.56872,-7.51993 11.61951,-8.06877c0.43714,-0.07865 9.84553,-7.05039 10.29039,-7.11703c13.65501,-2.04528 19.70565,14.71883 20.84066,22.2966c1.13501,7.57777 -18.58736,-4.0219 -32.24237,-1.97663c-9.51705,1.42548 -10.92833,11.32806 -12.41882,16.48428c-0.64805,2.24189 -5.51336,28.2132 -5.85731,25.91686z" fill="#5c2c2c" stroke="none" stroke-width="0"/><path d="M215.19567,210.87853c-0.9908,-6.61495 -13.25033,-70.85973 6.76411,-73.85752c3.69889,-0.55403 -1.995,13.17954 -3.44836,29.63887c-0.70302,7.96168 -6.13282,35.69321 -2.37594,33.87043c2.69331,-1.30676 12.07418,-18.82783 15.39506,-25.01425c3.72681,-6.94262 5.34815,-15.17679 7.44693,-12.81437c5.1086,5.75033 6.64831,31.93302 11.45218,45.50601c1.41962,4.01103 4.75949,4.91645 6.52016,6.3693c12.35342,10.19365 31.23048,-8.60274 31.59013,-6.20161c0.9908,6.61495 -14.43092,14.40761 -34.44538,17.40542c-7.90404,1.18388 -3.74455,-6.49848 -5.59834,-16.11357c-2.38562,-12.37357 -5.39145,-31.33351 -7.32066,-39.35785c-0.36772,-1.52949 -2.72102,-2.35842 -2.81699,-2.99919z" fill="#430000" stroke="none" stroke-width="0"/><path d="M250.99648,209.2429c-0.30754,-2.05329 1.9032,-4.94688 -0.33599,-4.4926c-2.50639,0.50849 -9.0931,4.45129 -1.12828,3.2583c15.08052,-2.25879 28.36668,-13.69832 29.01848,-9.34674c0.31494,2.10263 0.24373,10.17042 -4.3246,15.45004c-4.88623,5.64702 -10.07094,7.43293 -17.86475,8.6003c-7.16326,1.07293 -6.1178,-5.52336 -7.5109,-9.07571c-0.23958,-0.61093 4.28832,-1.29548 3.50457,-1.66017c-4.25311,-1.97905 -2.363,1.59263 -2.65194,-0.33649z" fill="#5c2c2c" stroke="none" stroke-width="0"/><path d="M222.49135,146.48988c3.60037,-9.78465 12.16538,-10.50918 17.70279,-11.33858c6.5653,-0.98336 13.95716,-3.62228 20.87391,5.95745c8.36157,11.58081 15.83842,36.84495 17.84752,50.25845c1.57165,10.49298 -0.20493,17.56748 -3.8889,22.39775c-4.92094,6.45214 -13.2452,8.89993 -21.53855,10.14212c-3.46014,0.51826 -3.97676,-4.48508 -5.2388,-11.08962c-2.8059,-14.68393 -3.57134,-39.66069 -8.02021,-46.30638c-1.19902,-1.79109 -12.56736,13.79063 -18.03775,26.44499c-3.36547,7.78514 -7.39457,15.42509 -7.71746,13.26934c-2.26929,-15.15066 2.18873,-43.89505 8.01742,-59.73553z" fill="none" stroke="#000000" stroke-width="3"/><path d="M215.59858,137.87134c5.38204,-12.27797 19.87493,-7.84888 27.62395,-9.00954c9.9465,-1.4898 18.4512,-10.58515 26.02329,5.00124c6.63157,13.6504 16.68684,47.4468 18.53129,59.76106c1.59509,10.64942 0.0124,17.25657 -3.67012,21.53355c-0.49498,0.5749 -1.02793,1.1077 -1.59617,1.60255c-5.67437,4.94142 -14.87072,6.09932 -24.98231,7.61386c-7.6925,1.1522 -10.36183,-48.31989 -16.74625,-59.38317c-4.10677,-7.11645 -12.3529,23.52222 -15.82364,21.17334c-4.22031,-2.85616 -10.12207,29.90752 -11.39606,21.40189c-2.30974,-15.4207 -5.54045,-52.41068 2.03602,-69.69477z" fill="none" stroke="#000000" stroke-width="3"/></g></g><g><path d="M274.71799,151.58536c0.50943,3.40119 3.18301,22.3897 -4.44928,23.53288c-7.63228,1.14317 -22.68022,-15.99189 -23.18965,-19.39308c-0.50943,-3.40119 9.2461,-21.60017 16.87838,-22.74335c7.63228,-1.14317 10.25112,15.20235 10.76055,18.60355z" data-paper-data="{&quot;index&quot;:null}" fill="#410000" stroke="#000000" stroke-width="0"/><path d="M221.19679,139.57783c7.63228,-1.14317 22.29184,13.39887 22.80127,16.80006c0.50943,3.40119 -8.85772,24.19318 -16.49001,25.33636c-7.63228,1.14317 -10.63949,-17.79536 -11.14894,-21.19655c-0.50943,-3.40118 -2.79462,-19.79669 4.83767,-20.93987z" fill="#410000" stroke="#000000" stroke-width="0"/><path d="M274.5881,151.79604c0.50943,3.40119 3.18301,22.3897 -4.44928,23.53288c-7.63227,1.14318 -22.68022,-15.99188 -23.18965,-19.39308c-0.50943,-3.40119 9.2461,-21.60017 16.87838,-22.74335c7.63228,-1.14317 10.25112,15.20235 10.76055,18.60355z" data-paper-data="{&quot;index&quot;:null}" fill="none" stroke="#000000" stroke-width="3.5"/><path d="M221.38271,139.7412c7.63227,-1.14318 22.29183,13.39887 22.80126,16.80006c0.50943,3.40119 -8.85772,24.19318 -16.49,25.33636c-7.63228,1.14317 -10.63949,-17.79536 -11.14894,-21.19655c-0.50943,-3.40118 -2.79461,-19.79669 4.83767,-20.93987z" fill="none" stroke="#000000" stroke-width="3.5"/><path d="M218.83156,140.45471c1.00165,-0.15003 -0.62685,9.88455 -0.1318,15.29431c0.86002,9.39803 3.71984,16.86772 6.2228,19.19293c5.83893,5.4243 16.04834,-15.56845 16.45644,-12.84389c0.68371,4.56475 -6.94133,17.44388 -13.74237,18.46255c-6.80105,1.01868 -10.20266,-10.20887 -10.88638,-14.77362c-0.68372,-4.56476 -4.71972,-24.31362 2.08131,-25.33229z" fill="#170000" stroke="none" stroke-width="0"/><path d="M275.88792,156.73802c0.68372,4.56476 0.72095,16.29621 -6.08009,17.31488c-6.80104,1.01867 -17.86492,-9.06118 -18.54865,-13.62595c-0.40808,-2.72455 15.50396,14.35567 19.49739,7.45867c1.71184,-2.95651 2.25762,-10.9363 0.32637,-20.17388c-1.11169,-5.31741 -5.60873,-14.43449 -4.60712,-14.58452c6.80104,-1.01867 8.72837,19.04604 9.41209,23.61079z" data-paper-data="{&quot;index&quot;:null}" fill="#170000" stroke="none" stroke-width="0"/><g><path d="M245.06435,146.27622c4.91185,-0.73571 9.62185,3.52927 10.52007,9.52612c0.89821,5.99684 -2.35548,11.45464 -7.26734,12.19035c-4.91185,0.73571 -9.62185,-3.52927 -10.52007,-9.52612c-0.89821,-5.99683 2.35549,-11.45464 7.26734,-12.19035z" fill="#410000" stroke="#000000" stroke-width="0"/><path d="M244.97662,146.48061c4.91185,-0.73571 9.62185,3.52927 10.52007,9.52612c0.89821,5.99684 -2.35549,11.45464 -7.26734,12.19035c-4.91185,0.73571 -9.62185,-3.52927 -10.52007,-9.52612c-0.89821,-5.99684 2.35549,-11.45464 7.26734,-12.19035z" fill="none" stroke="#000000" stroke-width="3.5"/><path d="M238.37545,160.72526c-0.67032,-4.47527 -1.30516,-13.06043 3.53113,-13.78481c1.51588,-0.22705 -1.13641,9.28716 -0.23339,13.25944c0.66599,2.9296 5.38835,4.23655 6.63804,5.35837c2.46193,2.21003 7.27273,-9.49426 7.57798,-7.45624c0.67031,4.47526 -2.70689,8.69038 -7.54318,9.41478c-4.8363,0.72439 -9.30028,-2.31628 -9.97059,-6.79153z" fill="#170000" stroke="none" stroke-width="0"/></g></g></g><g><path d="M238.15781,104.28293c13.85478,-4.88951 27.31273,-2.54448 30.05915,5.23775c2.74643,7.78224 -6.25866,18.0547 -20.11344,22.9442c-13.85478,4.88951 -27.31273,2.54448 -30.05915,-5.23775c-2.74643,-7.78224 6.25866,-18.0547 20.11344,-22.9442z" fill="#000000" stroke="#000000" stroke-width="2.5" stroke-linecap="butt"/><path d="M216.00652,126.77788c3.5499,-2.90957 20.75789,-1.56419 29.83939,-4.39308c10.14697,-3.16079 12.30446,-10.43069 17.65188,-12.31785c12.91354,-4.55733 4.40018,2.52053 5.97708,6.98877c1.5769,4.46825 -7.61326,11.78497 -20.52679,16.34228c-2.17112,0.76621 -4.30925,1.40564 -6.37161,1.91804c-10.20437,2.53524 -18.55387,1.96026 -19.86564,-1.75678c-0.33951,-0.96199 -8.76648,-5.09116 -6.7043,-6.7814z" fill="#ffffff" stroke="#000000" stroke-width="0" stroke-linecap="butt"/><path d="M232.8506,130.49167c8.93245,-0.88986 19.07522,-4.41703 24.57614,-7.79954c7.31229,-4.49633 6.16807,-9.34153 10.75554,-10.96049c11.11461,-3.92247 0.17748,8.49664 1.0842,11.06589c0.90672,2.56926 -7.36842,7.83183 -18.48303,11.75431c-5.36948,1.89495 -13.34442,3.05021 -19.89244,1.90919c-7.00613,-1.22085 -12.42966,-4.85487 -12.89835,-6.18292c-0.25096,-0.71107 6.89604,1.00674 14.85795,0.21357z" fill="#e2e2e2" stroke="none" stroke-width="0" stroke-linecap="butt"/><path d="M217.08884,127.00247c3.5499,-2.90957 20.75789,-1.56419 29.83939,-4.39308c10.14697,-3.16079 12.30446,-10.43069 17.65188,-12.31785c12.91354,-4.55733 4.40018,2.52053 5.97708,6.98877c1.5769,4.46825 -7.61326,11.78497 -20.52679,16.34228c-2.17112,0.76621 -4.30925,1.40564 -6.37161,1.91804c-10.20437,2.53524 -18.55387,1.96026 -19.86564,-1.75678c-0.33951,-0.96199 -8.76648,-5.09116 -6.7043,-6.7814z" fill="none" stroke="#000000" stroke-width="2" stroke-linecap="butt"/><path d="M213.36171,129.23019c-1.28894,-3.65228 -0.1244,-7.39276 2.60107,-8.35463c0.68301,-0.24104 -0.76948,3.19935 0.78572,4.68355c1.19814,1.14344 1.00028,3.08114 2.25969,4.52297c1.51401,1.73333 4.54904,2.99025 6.86768,4.4835c3.2389,2.08591 12.58899,0.45744 13.00689,1.6416c0.26787,0.75902 25.24986,-12.31803 25.1916,-10.43975c-0.00511,0.16465 4.02708,-5.0242 4.66523,-10.26518c0.39738,-3.26354 -2.79507,-7.46156 -2.15051,-7.60626c1.14783,-0.25768 1.01004,-8.53992 2.69608,-10.00458c1.10589,-0.96069 4.16444,3.96779 4.79633,5.66923c0.63693,1.71504 -2.66067,11.82647 -2.43701,14.87493c0.30799,4.1982 2.56747,6.17652 1.76048,6.76246c-7.11993,5.16979 -33.75545,18.46814 -35.30182,18.25299c-5.09913,-0.70947 -16.01426,-9.86409 -17.47275,-9.34937c-2.72548,0.96184 -5.97977,-1.21918 -7.26871,-4.87147z" fill="#840000" stroke="#000000" stroke-width="0" stroke-linecap="butt"/><path d="M210.70427,122.40348c-0.25993,-0.73655 7.97569,8.31328 15.95614,11.59662c6.54353,2.69213 14.66016,4.80753 17.17084,3.92149c5.5727,-1.96667 28.90989,-14.89441 29.38296,-13.55393c0.47307,1.34049 -21.74359,13.89062 -27.31627,15.85728c-1.49418,0.52732 -3.81375,2.45621 -8.71296,1.37428c-3.97426,-0.87766 -8.35684,-3.9416 -12.81325,-6.16387c-2.37436,-1.184 -5.38603,-1.58579 -7.0027,-2.49419c-5.55914,-3.12365 -8.13675,-9.41748 -8.32526,-9.95165z" fill="#430000" stroke="none" stroke-width="0" stroke-linecap="butt"/><path d="M213.35267,128.65347c-0.52471,-1.48683 -6.88214,-6.20239 -6.65387,-7.52505c0.33248,-1.92635 7.66431,0.00841 9.28024,-0.56187c0.68301,-0.24104 -0.76948,3.19935 0.78572,4.68355c1.22817,1.17207 0.50019,3.51142 2.17331,5.30079c1.92135,2.05485 6.30133,3.57894 8.57168,5.0411c3.23892,2.08592 8.4773,0.17553 8.89522,1.35968c0.14058,0.39832 7.77403,-3.30381 14.98904,-6.641c6.53372,-3.02207 12.7243,-5.74484 12.69661,-4.85225c-0.0051,0.16465 4.02708,-5.0242 4.66523,-10.26516c0.3974,-3.26354 -2.79507,-7.46156 -2.15051,-7.60626c1.01299,-0.22741 0.00718,-9.09114 1.7518,-10.86169c1.52884,-1.55154 5.83162,3.78722 6.57668,5.79336c0.63693,1.71504 -3.49675,12.55943 -3.2731,15.6079c0.30799,4.1982 2.56747,6.17652 1.76048,6.76246c-7.11994,5.16978 -33.75545,18.46814 -35.30181,18.25298c-5.09913,-0.70948 -16.01426,-9.86409 -17.47275,-9.34937c-2.72548,0.96184 -5.97977,-1.21918 -7.26871,-4.87147z" fill="none" stroke="#000000" stroke-width="2.5" stroke-linecap="butt"/><path d="M229.68741,134.99403l-3.74963,-10.36646" fill="none" stroke="#000000" stroke-width="2" stroke-linecap="round"/><path d="M245.37972,132.43363l-2.98824,-8.209" fill="none" stroke="#000000" stroke-width="2" stroke-linecap="round"/><path d="M255.87665,118.25248l3.13854,8.37652" fill="none" stroke="#000000" stroke-width="2" stroke-linecap="round"/><path d="M266.71259,119.50127l-3.57957,-7.55917" fill="none" stroke="#000000" stroke-width="2" stroke-linecap="round"/><path d="M187.5784,53.45669c5.5737,-1.96702 7.24933,4.14833 11.75288,6.70702c3.29908,1.87438 10.02695,-0.70804 11.3354,2.99952c3.09458,8.76874 -2.22507,18.63991 -11.88179,22.04788c-9.6567,3.40796 -19.99368,-0.93781 -23.08826,-9.70656c-3.09459,-8.76875 2.22506,-18.63991 11.88178,-22.04786z" fill="#840000" stroke="#000000" stroke-width="0" stroke-linecap="butt"/><path d="M180.00718,69.70618c0.68812,7.87983 7.65956,14.32125 11.88657,12.82948c8.59526,-3.03337 17.42007,-21.3976 19.86156,-14.47948c2.44149,6.91814 -2.54713,14.98542 -11.14238,18.01877c-5.81878,2.0535 -17.44899,0.45797 -23.317,-6.0493c-1.57176,-1.74297 -2.91282,-12.4774 0.09901,-18.50698c2.35356,-4.71174 9.15173,-5.02034 8.80578,-6.0006c-1.24081,-3.51589 -6.90465,6.04501 -6.19354,14.18811z" fill="#430000" stroke="none" stroke-width="0" stroke-linecap="butt"/><path d="M187.79468,53.71788c5.4846,-1.93557 7.06396,4.12929 11.53593,6.58582c3.40181,1.86866 10.21536,-0.66774 11.55234,3.12074c3.09459,8.76875 -2.22507,18.63991 -11.88179,22.04788c-9.65672,3.40796 -19.99369,-0.93782 -23.08827,-9.70655c-3.09459,-8.76875 2.22507,-18.63991 11.88179,-22.04788z" fill="none" stroke="#000000" stroke-width="3" stroke-linecap="butt"/><path d="M212.69343,126.22141l-2.14142,-6.06789c0,0 33.87065,-23.39101 43.93621,-26.94325c9.18016,-3.23978 14.04581,6.48075 14.04581,6.48075l2.14142,6.06789c0,0 -18.69965,9.71868 -28.43236,13.15346c-9.59261,3.38534 -29.54966,7.30903 -29.54966,7.30903z" fill="#ffffff" stroke="#000000" stroke-width="0" stroke-linecap="butt"/><path d="M236.06284,97.96287c16.93685,-5.97721 32.04263,-6.92445 33.73967,-2.11575c0.43364,1.22872 -0.65447,2.15343 -0.97961,3.56201c-0.19819,0.85856 1.0607,2.13618 -0.28642,3.07729c-2.19796,1.5355 -5.31506,-4.60261 -9.38319,-2.97252c-5.35723,2.14662 -12.08406,12.06782 -17.75162,14.06797c-6.64017,2.34339 -19.51053,8.95749 -24.73932,10.0463c-8.10817,1.68839 -7.1619,-3.21223 -8.19362,-6.13567c-1.69705,-4.8087 10.65725,-13.55242 27.59413,-19.52961z" fill="#e2e2e2" stroke="none" stroke-width="0" stroke-linecap="butt"/><path d="M212.69341,126.22141l-2.14142,-6.06789c0,0 34.48672,-22.56862 45.18717,-26.34494c6.82718,-2.40939 12.79485,5.88245 12.79485,5.88245l2.14142,6.06789c0,0 -19.02718,10.18088 -28.63178,13.57044c-9.72133,3.43077 -29.35023,6.89205 -29.35023,6.89205z" fill="none" stroke="#000000" stroke-width="2" stroke-linecap="butt"/><path d="M221.10921,53.8622c19.36249,-6.83324 40.25744,2.35781 46.67017,20.52876c3.25893,9.23442 8.29879,17.74906 3.06094,23.92907c-2.38226,2.81077 -8.43858,-3.89327 -13.64061,-1.87938c-5.86661,2.27115 -11.0409,13.17822 -16.08804,14.95941c-8.95662,3.1609 -25.11927,11.57781 -32.40597,10.47921c-8.46575,-1.27637 -7.59775,-12.97744 -11.04411,-22.74295c-6.41274,-18.17095 4.08513,-38.44086 23.44761,-45.27409z" fill="#840000" stroke="#000000" stroke-width="0" stroke-linecap="butt"/><path d="M238.79744,73.76353c9.97913,-3.52175 11.14318,5.42644 12.72007,9.8947c1.5769,4.46825 -5.23445,10.94545 -15.21359,14.4672c-9.97913,3.52175 -33.07747,16.69818 -34.65438,12.2299c-0.49689,-1.40796 -8.28085,-16.88952 -6.26838,-30.62592c0.93029,-6.34987 10.3406,-15.17689 12.06927,-16.95318c2.61095,-2.68285 -9.6616,18.13631 -8.16453,31.24019c0.83344,7.29515 14.82355,8.32959 16.70629,10.86681c2.31086,3.11422 3.44788,-11.56623 7.10055,-18.95271c1.12776,-2.28057 -1.38369,-6.56957 -0.92051,-6.73303c0,0 6.4406,2.45576 9.14584,1.57154c2.83079,-0.92525 7.47934,-7.0055 7.47934,-7.0055z" fill="#430000" stroke="none" stroke-width="0" stroke-linecap="butt"/><path d="M221.01402,53.59251c19.36249,-6.83324 40.25744,2.35781 46.67017,20.52876c3.25893,9.23442 8.29879,17.74906 3.06094,23.92907c-2.10018,2.47794 -7.75057,-5.01061 -12.1921,-3.16981c-6.27829,2.60205 -11.95948,14.28162 -17.53655,16.24983c-8.95662,3.1609 -25.11927,11.57781 -32.40597,10.47921c-8.46575,-1.27637 -7.59775,-12.97744 -11.04411,-22.74295c-6.41274,-18.17095 4.08513,-38.44086 23.44761,-45.27409z" fill="none" stroke="#000000" stroke-width="3" stroke-linecap="butt"/><path d="M201.55702,83.28154c1.9834,-0.69996 12.6436,5.59951 15.92368,3.0496c3.27413,-2.54529 2.06098,-9.86659 4.67471,-10.0306c4.69779,-0.29477 6.30331,8.18827 7.16123,10.61926c1.81344,5.13851 7.64025,9.28291 0.11865,11.93736c-7.52159,2.65446 -23.59227,10.92011 -25.40571,5.7816c-1.81344,-5.13851 -9.99415,-18.70278 -2.47256,-21.35723z" fill="#000000" stroke="#000000" stroke-width="3" stroke-linecap="butt"/><path d="M265.75577,83.76474c1.81344,5.13851 -15.88547,8.7905 -23.40706,11.44496c-7.52159,2.65446 -5.58667,-4.22914 -7.40012,-9.36766c-1.22489,-3.47083 -2.20707,-7.43232 4.29775,-10.53837c3.12544,-1.4924 10.92896,-7.54238 13.37005,-8.40389c7.52159,-2.65446 11.32594,11.72643 13.13937,16.86495z" data-paper-data="{&quot;index&quot;:null}" fill="#000000" stroke="#000000" stroke-width="3" stroke-linecap="butt"/><path d="M204.96652,108.20939c5.19922,-3.82544 19.04614,-7.26258 29.24346,-10.86135c10.94294,-3.86189 23.34283,-9.7968 29.77416,-9.82209c3.89788,-0.01533 5.10976,7.26573 5.66515,8.83949c0.83508,2.36629 -4.77204,-4.30744 -11.72755,-1.14054c-5.30305,2.41452 -10.77896,14.54224 -18.38199,17.22543c-7.79382,2.75053 -20.89471,8.14269 -26.81694,8.99154c-7.43252,1.06533 -6.85152,-2.9911 -7.67061,-5.31213c-0.61783,-1.75068 -3.84734,-5.15264 -0.08566,-7.92038z" fill="#7d3c3c" stroke="#000000" stroke-width="0" stroke-linecap="butt"/><path d="M214.74433,103.4712c2.94376,-1.03888 -3.25387,2.19845 -5.7111,5.8005c-2.42141,3.54956 -1.11102,7.462 2.78493,6.81432c10.61111,-1.76401 34.50093,-18.33333 48.11659,-23.62931c7.36998,-2.86664 9.71074,3.3057 9.90406,3.85351c0.41367,1.17216 -5.58926,-3.83623 -11.38835,-0.93607c-5.6224,2.81178 -10.89658,13.50138 -19.76818,16.63227c-18.02201,6.36017 -33.2922,9.64462 -34.10693,7.33599c-0.81473,-2.30861 -7.85301,-9.51109 10.169,-15.87126z" fill="#5c2c2c" stroke="none" stroke-width="0" stroke-linecap="butt"/><path d="M205.31555,107.47968c5.19922,-3.82544 19.04614,-7.26258 29.24346,-10.86135c10.94294,-3.86189 23.34283,-9.7968 29.77416,-9.82209c3.89788,-0.01533 5.10976,7.26573 5.66515,8.83949c0.88407,2.50507 -4.39648,-3.93363 -12.10076,-0.54389c-5.12159,2.25341 -10.9907,14.15203 -18.00878,16.62878c-7.79382,2.75053 -20.89471,8.14269 -26.81694,8.99154c-7.43252,1.06533 -6.85152,-2.9911 -7.67061,-5.31213c-0.61783,-1.75068 -3.84734,-5.15264 -0.08566,-7.92038z" fill="none" stroke="#000000" stroke-width="3" stroke-linecap="butt"/><path d="M223.0457,90.72774c0.53937,-0.19034 0.72972,0.34902 0.72972,0.34902c0.31724,0.89895 0.82485,2.33725 1.14209,3.2362c0,0 0.19034,0.53937 -0.34902,0.72972c-0.53937,0.19034 -0.72972,-0.34902 -0.72972,-0.34902c-0.31724,-0.89895 -0.63449,-1.79789 -0.95175,-2.69685l-0.19034,-0.53937c0,0 -0.19034,-0.53937 0.34902,-0.72972z" fill="#ffffff" stroke="none" stroke-width="0.5" stroke-linecap="butt"/><path d="M241.27319,83.08197c0.53937,-0.19034 0.72972,0.34902 0.72972,0.34902l0.09519,0.26968c0.54096,1.53287 0.80732,3.21893 1.34828,4.6798c0,0 0.19034,0.53937 -0.34902,0.72972c-0.53937,0.19034 -0.72972,-0.34902 -0.72972,-0.34902c-0.51364,-1.50871 -0.79828,-3.12132 -1.34828,-4.6798l-0.09519,-0.26968c0,0 -0.19034,-0.53937 0.34902,-0.72972z" fill="#ffffff" stroke="none" stroke-width="0.5" stroke-linecap="butt"/><path d="M275.41185,43.16241c-0.2401,0.08474 -0.43045,-0.45464 -0.43045,-0.45464l-0.19034,-0.53937c-0.17898,-0.61218 -1.30407,-1.23718 -1.73211,-1.68928c-0.1057,-0.11165 -0.17045,-0.23776 -0.20996,-0.35479c-0.04272,-0.11592 -0.07145,-0.25472 -0.05923,-0.40798c0.00319,-0.0401 0.00863,-0.0739 0.01583,-0.10224c-0.07489,0.05209 -0.20324,0.05805 -0.32664,-0.36618c-0.20613,-0.70873 0.06264,-0.80953 0.05398,-1.28218c-0.01408,-0.76785 -0.85137,-1.9109 -0.74844,-3.20191c0,0 0.03518,-0.4413 0.33956,-0.11983c0.30437,0.32147 0.2692,0.76278 0.2692,0.76278c-0.10319,1.29448 0.68756,3.35406 0.95871,4.40729c0.69805,0.63422 1.43778,0.91998 1.91932,2.18485l0.19034,0.53937c0,0 0.19034,0.53937 -0.04975,0.6241z" fill="#ffffff" stroke="none" stroke-width="0.5" stroke-linecap="butt"/><path d="M235.21485,95.03548c5.62257,-1.98428 10.81972,-1.78172 11.60818,0.45243c0.78845,2.23413 -3.13038,5.65382 -8.75294,7.63808c-5.62257,1.98428 -10.81972,1.78172 -11.60818,-0.45243c-0.78845,-2.23413 3.13038,-5.65382 8.75294,-7.63808z" fill="#000000" stroke="#000000" stroke-width="3" stroke-linecap="butt"/><path d="M225.9272,48.90023c0.22652,-1.87353 2.80872,-6.88242 2.6178,-12.87675c-0.34191,-10.73517 -3.35007,-24.32542 -0.42762,-26.55466c2.77366,-2.11575 6.21921,3.2412 11.51745,4.81935c6.4739,1.92834 14.86136,0.45952 17.54846,0.7844c1.68624,0.20387 10.02207,-5.84915 10.84995,-4.2958c1.64721,3.09064 -3.07457,11.15418 -5.21974,18.66861c-2.20962,7.74018 -1.87854,14.96098 -2.48359,19.96522c-1.48769,12.30431 -9.72442,10.88679 -18.22156,9.85942c-8.49715,-1.02738 -17.66884,1.93451 -16.18115,-10.3698z" fill="#410000" stroke="#000000" stroke-width="0" stroke-linecap="butt"/><path d="M229.07579,38.03004c0.46031,-3.80715 -7.37652,-30.5921 1.34134,-29.53803c5.34498,0.64626 -1.12125,19.71334 5.96343,28.97543c4.47068,5.84468 24.44344,2.90673 24.26535,4.37968c-0.46031,3.80716 -7.90069,6.039 -16.61853,4.98495c-8.71784,-1.05406 -15.4119,-4.99486 -14.95159,-8.80202z" fill="#170000" stroke="none" stroke-width="0" stroke-linecap="butt"/><path d="M225.8537,48.80649c0.22651,-1.87352 2.80871,-6.88241 2.61779,-12.87675c-0.34191,-10.73517 -3.35007,-24.32542 -0.42762,-26.55466c2.73631,-2.08725 5.90578,3.58494 11.12899,5.12088c6.54063,1.92336 15.22022,0.15439 17.93692,0.48288c1.68624,0.20387 10.02205,-5.84915 10.84994,-4.2958c1.64722,3.09063 -3.07457,11.15417 -5.21974,18.66861c-2.20961,7.74019 -1.87854,14.96098 -2.48359,19.96522c-1.48769,12.30431 -9.72442,10.88679 -18.22156,9.85942c-8.49715,-1.02738 -17.66884,1.93451 -16.18115,-10.3698z" fill="none" stroke="#000000" stroke-width="3" stroke-linecap="butt"/><path d="M267.01584,55.87295c-0.38695,3.20037 2.19399,8.25117 -4.47109,9.13007c-3.97279,0.52387 -15.85665,-2.20382 -20.84825,-2.80734c-5.69504,-0.68857 -16.53815,-1.51115 -20.51976,-3.26899c-5.36298,-2.3677 -2.9175,-5.97439 -2.56306,-8.90591c0.32145,-2.65861 1.34103,-7.15655 6.24459,-8.27548c4.51768,-1.03085 12.66552,1.17783 19.07474,1.95276c5.83063,0.70497 17.85676,0.45613 21.87614,2.27382c5.19447,2.3491 1.55487,7.02139 1.20669,9.90109z" data-paper-data="{&quot;index&quot;:null}" fill="#410000" stroke="#000000" stroke-width="0" stroke-linecap="butt"/><path d="M227.14179,42.25649c3.16329,-0.79387 23.76933,1.13678 32.88436,3.06321c7.40825,1.56571 6.74379,2.67229 8.66749,2.90489c0.84988,0.10274 2.97432,5.7602 -0.33597,5.32746c-4.39944,-0.57512 -3.94141,-4.37279 -11.07053,-6.17022c-7.81229,-1.96967 -26.18477,-2.24195 -29.80139,-1.11043c-2.29755,0.71883 -3.75509,2.24918 -4.58726,3.85887c-1.07841,2.08605 -1.10652,4.30534 -0.5514,5.06433c2.94489,4.02647 44.14294,5.38683 43.90779,7.33179c-0.45364,3.75199 -19.50281,1.49387 -29.93112,0.233c-10.42831,-1.26087 -18.51437,-5.32458 -18.06073,-9.07657c0.267,-2.20828 0.67596,-9.36771 8.87877,-11.42632z" fill="#170000" stroke="none" stroke-width="0" stroke-linecap="butt"/><path d="M267.17341,56.07386c-0.38695,3.20037 2.19399,8.25117 -4.47109,9.13007c-3.97279,0.52388 -15.85665,-2.20382 -20.84826,-2.80734c-5.69504,-0.68857 -16.53813,-1.51116 -20.51976,-3.26899c-5.36298,-2.3677 -2.9175,-5.97439 -2.56306,-8.90591c0.32144,-2.65861 1.34104,-7.15656 6.24459,-8.27548c4.51767,-1.03085 12.66552,1.17783 19.07474,1.95276c5.83063,0.70497 17.85676,0.45613 21.87614,2.27382c5.19447,2.3491 1.55487,7.02139 1.20669,9.90109z" data-paper-data="{&quot;index&quot;:null}" fill="none" stroke="#000000" stroke-width="3" stroke-linecap="butt"/><path d="M224.26886,118.06852l1.74033,4.93137" fill="none" stroke="#000000" stroke-width="2" stroke-linecap="round"/><path d="M241.90011,118.43161l-2.17542,-6.1642" fill="none" stroke="#000000" stroke-width="2" stroke-linecap="round"/><path d="M257.81828,112.46732l-4.81316,-12.16526" fill="none" stroke="#000000" stroke-width="2" stroke-linecap="round"/><path d="M210.77657,85.16297l1.06303,-6.4406l-11.51693,-1.69772l3.3632,-4.21962l-1.50696,-3.4107" fill="none" stroke="#000000" stroke-width="3" stroke-linecap="round"/><path d="M240.28545,109.29593l-1.60719,-4.09823" fill="none" stroke="#000000" stroke-width="3" stroke-linecap="round"/></g><g stroke-linecap="butt"><path d="M153.02247,325.76814c0,-11.07416 16.63961,-20.05155 37.16561,-20.05155c20.526,0 37.1656,8.97737 37.1656,20.05155c0,5.5238 -0.30845,12.05852 -7.0057,15.68505c-6.72944,3.64397 -19.8723,4.3665 -30.15991,4.3665c-11.02302,0 -28.58824,-0.03474 -35.39441,-4.14721c-5.86761,-3.54537 -1.7712,-10.7773 -1.7712,-15.90434z" fill="#840000" stroke="#000000" stroke-width="0"/><path d="M152.27412,336.38662c0,-1.92539 7.37565,2.6143 21.70599,3.6569c15.36834,1.11811 38.04516,-1.28736 46.97351,-4.67121c4.00164,-1.51662 2.89534,-8.45008 -1.53588,-14.20528c-4.83274,-6.27671 -13.08795,-11.34552 -9.54331,-11.34552c20.80814,0 17.75264,20.64007 17.75264,26.5651c0,5.92503 -16.86833,10.72822 -37.67647,10.72822c-20.80814,0 -37.67648,-4.80319 -37.67648,-10.72822z" fill="#430000" stroke="none" stroke-width="0"/><path d="M132.97616,330.4898c0,-11.07417 7.47174,-20.05155 16.68857,-20.05155c9.21684,0 16.68857,8.97737 16.68857,20.05155c0,5.5238 -0.13851,12.05852 -3.14578,15.68505c-3.02174,3.64397 -8.92332,4.3665 -13.54279,4.3665c-4.94969,0 -12.83705,-0.03474 -15.89325,-4.14721c-2.63476,-3.54537 -0.79534,-10.77732 -0.79534,-15.90434z" fill="#840000" stroke="#000000" stroke-width="0"/><path d="M190.97234,306.24543c20.526,0 37.16561,8.97738 37.16561,20.05155c0,5.5238 -0.30846,12.05852 -7.0057,15.68505c-6.72944,3.64397 -19.8723,4.3665 -30.15991,4.3665c-11.02302,0 -28.58823,-0.03473 -35.39441,-4.1472c-5.86761,-3.54537 -1.7712,-10.77733 -1.7712,-15.90435c0,-11.07417 16.63961,-20.05155 37.16561,-20.05155z" fill="none" stroke="#000000" stroke-width="3.5"/><path d="M132.64014,341.10825c0,-1.92539 3.31191,2.61429 9.74671,3.65689c6.90089,1.11811 17.08352,-1.28734 21.09264,-4.67119c1.79687,-1.51662 1.3001,-8.45008 -0.68966,-14.20528c-2.17006,-6.27671 -5.87691,-11.34552 -4.28526,-11.34552c9.34354,0 7.97152,20.64009 7.97152,26.56511c0,5.92504 -7.57443,10.72822 -16.91797,10.72822c-9.34354,0 -16.91797,-4.80319 -16.91797,-10.72822z" fill="#430000" stroke="none" stroke-width="0"/><path d="M133.32831,331.01861c0,-11.07417 7.47173,-20.05155 16.68857,-20.05155c9.21684,0 16.68857,8.97739 16.68857,20.05155c0,5.5238 -0.13851,12.05852 -3.14578,15.68505c-3.02174,3.64398 -8.92331,4.36649 -13.54278,4.36649c-4.94969,0 -12.83705,-0.03473 -15.89325,-4.1472c-2.63476,-3.54537 -0.79532,-10.77732 -0.79532,-15.90434z" fill="none" stroke="#000000" stroke-width="3.5"/><path d="M180.08774,329.81355c0,-11.07417 7.47174,-20.05155 16.68857,-20.05155c9.21684,0 16.68857,8.97737 16.68857,20.05155c0,5.5238 -0.13851,12.05852 -3.14578,15.68505c-3.02174,3.64397 -8.92332,4.3665 -13.54279,4.3665c-4.94969,0 -12.83705,-0.03474 -15.89325,-4.14721c-2.63476,-3.54537 -0.79534,-10.77732 -0.79534,-15.90434z" fill="#840000" stroke="#000000" stroke-width="0"/><path d="M179.75172,340.432c0,-1.92539 3.31191,2.61429 9.74671,3.65689c6.90089,1.11811 17.08352,-1.28734 21.09264,-4.67119c1.79687,-1.51662 1.3001,-8.45008 -0.68966,-14.20528c-2.17006,-6.27671 -5.87691,-11.34552 -4.28526,-11.34552c9.34354,0 7.97152,20.64009 7.97152,26.56511c0,5.92504 -7.57443,10.72822 -16.91797,10.72822c-9.34354,0 -16.91797,-4.80319 -16.91797,-10.72822z" fill="#430000" stroke="none" stroke-width="0"/><path d="M180.43989,330.34236c0,-11.07417 7.47173,-20.05155 16.68857,-20.05155c9.21684,0 16.68857,8.97739 16.68857,20.05155c0,5.5238 -0.13851,12.05852 -3.14578,15.68505c-3.02174,3.64398 -8.92331,4.36649 -13.54278,4.36649c-4.94969,0 -12.83705,-0.03473 -15.89325,-4.1472c-2.63476,-3.54537 -0.79532,-10.77732 -0.79532,-15.90434z" fill="none" stroke="#000000" stroke-width="3.5"/><path d="M153.93969,329.58813c0,-11.07417 7.47174,-20.05155 16.68857,-20.05155c9.21684,0 16.68857,8.97737 16.68857,20.05155c0,5.5238 -0.13851,12.05852 -3.14578,15.68505c-3.02174,3.64397 -8.92332,4.3665 -13.54279,4.3665c-4.94969,0 -12.83705,-0.03474 -15.89325,-4.14721c-2.63476,-3.54537 -0.79534,-10.77732 -0.79534,-15.90434z" fill="#840000" stroke="#000000" stroke-width="0"/><path d="M153.60366,340.20659c0,-1.92539 3.31191,2.61429 9.74671,3.65689c6.90089,1.11811 17.08352,-1.28734 21.09264,-4.67119c1.79687,-1.51662 1.3001,-8.45008 -0.68966,-14.20528c-2.17006,-6.27671 -5.87691,-11.34552 -4.28526,-11.34552c9.34354,0 7.97152,20.64009 7.97152,26.56511c0,5.92504 -7.57443,10.72822 -16.91797,10.72822c-9.34354,0 -16.91797,-4.80319 -16.91797,-10.72822z" fill="#430000" stroke="none" stroke-width="0"/><path d="M154.29184,330.11696c0,-11.07417 7.47173,-20.05155 16.68857,-20.05155c9.21684,0 16.68857,8.97739 16.68857,20.05155c0,5.5238 -0.13851,12.05852 -3.14578,15.68505c-3.02174,3.64398 -8.92331,4.36649 -13.54278,4.36649c-4.94969,0 -12.83705,-0.03473 -15.89325,-4.1472c-2.63476,-3.54537 -0.79532,-10.77732 -0.79532,-15.90434z" fill="none" stroke="#000000" stroke-width="3.5"/></g><g data-paper-data="{&quot;index&quot;:null}" stroke-linecap="butt"><path d="M326.75889,327.10337c0,5.12704 4.09642,12.35897 -1.7712,15.90434c-6.80617,4.11247 -24.37139,4.14721 -35.39441,4.14721c-10.28762,0 -23.43048,-0.72254 -30.15991,-4.3665c-6.69725,-3.62653 -7.0057,-10.16125 -7.0057,-15.68505c0,-11.07418 16.6396,-20.05155 37.1656,-20.05155c20.526,0 37.16561,8.97739 37.16561,20.05155z" fill="#840000" stroke="#000000" stroke-width="0"/><path d="M327.50724,337.72183c0,5.92503 -16.86834,10.72822 -37.67648,10.72822c-20.80814,0 -37.67647,-4.80319 -37.67647,-10.72822c0,-5.92503 -3.0555,-26.5651 17.75264,-26.5651c3.54464,0 -4.71058,5.06881 -9.54331,11.34552c-4.43121,5.7552 -5.53752,12.68866 -1.53588,14.20528c8.92834,3.38386 31.60517,5.78932 46.97351,4.67121c14.33034,-1.0426 21.70599,-5.58229 21.70599,-3.6569z" fill="#430000" stroke="none" stroke-width="0"/><path d="M346.8052,331.82503c0,5.12703 1.83942,12.35897 -0.79534,15.90434c-3.0562,4.11247 -10.94355,4.14721 -15.89325,4.14721c-4.61947,0 -10.52105,-0.72254 -13.54279,-4.3665c-3.00727,-3.62653 -3.14578,-10.16125 -3.14578,-15.68505c0,-11.07418 7.47173,-20.05155 16.68857,-20.05155c9.21683,0 16.68857,8.97738 16.68857,20.05155z" fill="#840000" stroke="#000000" stroke-width="0"/><path d="M325.97463,327.63221c0,5.12703 4.09642,12.35899 -1.7712,15.90435c-6.80618,4.11247 -24.37139,4.1472 -35.39441,4.1472c-10.28762,0 -23.43048,-0.72254 -30.15991,-4.3665c-6.69723,-3.62653 -7.0057,-10.16125 -7.0057,-15.68505c0,-11.07417 16.63961,-20.05155 37.16561,-20.05155c20.526,0 37.16561,8.97738 37.16561,20.05155z" fill="none" stroke="#000000" stroke-width="3.5"/><path d="M347.1412,342.44348c0,5.92503 -7.57443,10.72822 -16.91797,10.72822c-9.34354,0 -16.91797,-4.80318 -16.91797,-10.72822c0,-5.92503 -1.37202,-26.56511 7.97152,-26.56511c1.59166,0 -2.1152,5.06881 -4.28526,11.34552c-1.98976,5.7552 -2.48653,12.68866 -0.68966,14.20528c4.00912,3.38384 14.19175,5.7893 21.09264,4.67119c6.43479,-1.0426 9.74671,-5.58228 9.74671,-3.65689z" fill="#430000" stroke="none" stroke-width="0"/><path d="M346.45303,332.35384c0,5.12703 1.83943,12.35897 -0.79532,15.90434c-3.0562,4.11247 -10.94355,4.1472 -15.89325,4.1472c-4.61947,0 -10.52104,-0.72251 -13.54278,-4.36649c-3.00727,-3.62653 -3.14578,-10.16125 -3.14578,-15.68505c0,-11.07416 7.47173,-20.05155 16.68857,-20.05155c9.21684,0 16.68857,8.97738 16.68857,20.05155z" fill="none" stroke="#000000" stroke-width="3.5"/><path d="M299.69362,331.14877c0,5.12703 1.83942,12.35897 -0.79534,15.90434c-3.0562,4.11247 -10.94355,4.14721 -15.89325,4.14721c-4.61947,0 -10.52105,-0.72254 -13.54279,-4.3665c-3.00727,-3.62653 -3.14578,-10.16125 -3.14578,-15.68505c0,-11.07418 7.47173,-20.05155 16.68857,-20.05155c9.21683,0 16.68857,8.97738 16.68857,20.05155z" fill="#840000" stroke="#000000" stroke-width="0"/><path d="M300.02962,341.76724c0,5.92503 -7.57443,10.72822 -16.91797,10.72822c-9.34354,0 -16.91797,-4.80318 -16.91797,-10.72822c0,-5.92503 -1.37202,-26.56511 7.97152,-26.56511c1.59166,0 -2.1152,5.06881 -4.28526,11.34552c-1.98976,5.7552 -2.48653,12.68866 -0.68966,14.20528c4.00912,3.38384 14.19175,5.7893 21.09264,4.67119c6.43479,-1.0426 9.74671,-5.58228 9.74671,-3.65689z" fill="#430000" stroke="none" stroke-width="0"/><path d="M299.34145,331.67758c0,5.12703 1.83943,12.35897 -0.79532,15.90434c-3.0562,4.11247 -10.94355,4.1472 -15.89325,4.1472c-4.61947,0 -10.52104,-0.72251 -13.54278,-4.36649c-3.00727,-3.62653 -3.14578,-10.16125 -3.14578,-15.68505c0,-11.07416 7.47173,-20.05155 16.68857,-20.05155c9.21684,0 16.68857,8.97738 16.68857,20.05155z" fill="none" stroke="#000000" stroke-width="3.5"/><path d="M325.84168,330.92336c0,5.12703 1.83942,12.35897 -0.79534,15.90434c-3.0562,4.11247 -10.94355,4.14721 -15.89325,4.14721c-4.61947,0 -10.52105,-0.72254 -13.54279,-4.3665c-3.00727,-3.62653 -3.14578,-10.16125 -3.14578,-15.68505c0,-11.07418 7.47173,-20.05155 16.68857,-20.05155c9.21683,0 16.68857,8.97738 16.68857,20.05155z" fill="#840000" stroke="#000000" stroke-width="0"/><path d="M326.17767,341.54183c0,5.92503 -7.57443,10.72822 -16.91797,10.72822c-9.34354,0 -16.91797,-4.80318 -16.91797,-10.72822c0,-5.92503 -1.37202,-26.56511 7.97152,-26.56511c1.59166,0 -2.1152,5.06881 -4.28526,11.34552c-1.98976,5.7552 -2.48653,12.68866 -0.68966,14.20528c4.00912,3.38384 14.19175,5.7893 21.09264,4.67119c6.43479,-1.0426 9.74671,-5.58228 9.74671,-3.65689z" fill="#430000" stroke="none" stroke-width="0"/><path d="M325.4895,331.45218c0,5.12703 1.83943,12.35897 -0.79532,15.90434c-3.0562,4.11247 -10.94355,4.1472 -15.89325,4.1472c-4.61947,0 -10.52104,-0.72251 -13.54278,-4.36649c-3.00727,-3.62653 -3.14578,-10.16125 -3.14578,-15.68505c0,-11.07416 7.47173,-20.05155 16.68857,-20.05155c9.21684,0 16.68857,8.97738 16.68857,20.05155z" fill="none" stroke="#000000" stroke-width="3.5"/></g></g></g></svg>