<svg version="1.1" xmlns="http://www.w3.org/2000/svg" xmlns:xlink="http://www.w3.org/1999/xlink" width="586.03761" height="616.85899" viewBox="0,0,586.03761,616.85899"><g transform="translate(224.49704,51.97169)"><g data-paper-data="{&quot;isPaintingLayer&quot;:true}" fill-rule="nonzero" stroke-width="8" stroke-linejoin="miter" stroke-miterlimit="10" stroke-dasharray="" stroke-dashoffset="0" style="mix-blend-mode: normal"><g data-paper-data="{&quot;index&quot;:null}"><g stroke-linecap="butt"><path d="M324.05654,432.80993c2.33037,19.01818 -11.80931,57.32109 -30.25399,59.58118c-18.44468,2.2601 -87.06842,-160.39723 -89.39881,-179.41542c-1.49666,-12.21421 -5.70566,-24.81344 2.84422,-32.06633c4.76273,-4.04024 19.73447,-5.65282 26.33328,-6.46139c18.44465,-2.2601 88.14494,139.34377 90.47532,158.36196z" fill="#840000" stroke="#000000"/><path d="M324.29423,425.33035c3.68651,30.08558 -11.91677,56.75295 -31.14792,59.10942c-19.23118,2.35648 -84.18275,-139.96957 -87.86926,-170.05514c-2.43229,-19.84986 30.7373,63.62818 60.04996,112.78443c15.11537,25.34785 30.21681,31.57217 36.75968,30.77044c19.23118,-2.35648 18.52105,-62.6947 22.20756,-32.60912z" fill="#430000" stroke="none"/><path d="M323.87617,431.33766c2.33037,19.01818 -11.80931,57.32109 -30.25399,59.58118c-18.44465,2.2601 -87.06842,-160.39723 -89.39881,-179.41542c-1.26214,-10.30035 -19.14875,-24.1662 -12.97054,-31.32848c5.229,-6.06189 33.6931,-6.16321 42.14803,-7.19922c18.44465,-2.2601 88.14494,139.34377 90.47532,158.36196z" fill="none" stroke="#000000"/></g><path d="M241.22906,394.77332l46.00695,-47.91061" fill="none" stroke="#000000" stroke-linecap="round"/></g><g><g stroke-linecap="butt"><path d="M42.71964,227.44842c10.14576,2.66129 29.68739,9.57812 34.68489,17.4643c4.92422,7.77049 -4.60299,16.46186 -7.01573,25.6601c-4.86142,18.53344 -100.33113,169.03154 -120.47381,163.74801c-20.14268,-5.28353 -31.19552,-45.70954 -26.3341,-64.24299c4.86142,-18.53344 98.99608,-147.91298 119.13873,-142.62945z" fill="#840000" stroke="#000000"/><path d="M-55.11928,398.68922c7.14521,1.87422 24.60588,-1.83171 44.37685,-24.55712c38.34106,-44.07061 85.0696,-121.64554 79.99559,-102.30162c-7.69046,29.31875 -97.40313,163.04628 -118.40474,157.53744c-21.00159,-5.50883 -34.3235,-37.45024 -26.63304,-66.76899c7.69046,-29.31875 -0.33627,30.58145 20.66532,36.09028z" fill="#430000" stroke="none"/><path d="M43.09596,226.01363c9.45517,2.48014 31.33913,7.95356 36.39477,15.08333c5.71458,8.05901 -6.14623,18.20739 -8.72565,28.04106c-4.86142,18.53344 -100.33113,169.03154 -120.47381,163.74801c-20.14268,-5.28353 -31.19552,-45.70954 -26.3341,-64.24299c4.86142,-18.53344 98.99608,-147.91298 119.13873,-142.62945z" fill="none" stroke="#000000"/></g><path d="M19.81593,345.8747l-45.1694,-55.22701" fill="none" stroke="#000000" stroke-linecap="round"/></g><g stroke-linecap="butt"><path d="M7.38336,398.29158c10.65671,-40.62714 41.93698,-135.62777 79.04601,-170.37007c26.36086,-24.6796 57.53554,1.67414 77.95094,7.02921c26.2049,6.87368 56.91652,-6.61141 59.11102,40.01371c1.92192,40.83384 -9.07269,135.17533 -17.58265,167.61827c-18.22682,69.48709 -58.37865,56.89663 -107.53352,44.00305c-49.15484,-12.89357 -109.2186,-18.80707 -90.99177,-88.29419z" fill="#840000" stroke="#000000"/><path d="M25.77159,403.92049c10.4701,-39.91571 38.95805,-113.59094 70.20747,-146.61539c19.30278,-20.3992 41.2751,-13.09798 55.86389,-9.27126c17.29681,4.53704 38.39778,5.8534 45.34818,36.91296c8.40226,37.54751 0.08462,108.02916 -9.18497,143.36813c-16.93748,64.57164 -59.29247,63.57523 -97.49921,53.5534c-38.20674,-10.02183 -81.67283,-13.37623 -64.73535,-77.94787z" fill="#7d3c3c" stroke="#000000"/><path d="M63.29946,310.71642c5.06614,-19.3139 42.22569,-73.09721 76.84086,-65.09422c1.16569,0.26948 31.85948,-6.99899 33.0315,-6.69157c35.97526,9.4365 33.15279,57.36154 27.91605,77.32584c-5.23674,19.96429 -41.74304,-29.69346 -77.7183,-39.12996c-35.97526,-9.4365 -65.30681,53.55421 -60.07008,33.58992z" fill="#5c2c2c" stroke="none"/><path d="M3.35955,430.03167c4.57136,-17.42763 49.16792,-211.08267 101.89767,-197.25138c9.74503,2.55617 -18.93344,30.50805 -40.00873,69.71045c-25.70466,47.81358 -45.4151,110.12544 -36.99373,135.43866c22.0347,66.23269 168.75223,31.91128 166.05612,42.18979c-4.57136,17.42763 -51.0231,20.34303 -103.75286,6.51174c-52.72976,-13.83129 -91.76987,-39.17165 -87.19851,-56.59928z" fill="#430000" stroke="none"/><path d="M25.93775,425.73855c3.00724,-11.46466 32.46651,1.63055 72.19743,12.05217c39.73091,10.42163 84.76843,-3.78939 81.7612,7.67524c-1.45306,5.53958 -10.19615,25.43607 -27.1114,33.65506c-18.09235,8.79093 -45.00653,5.57285 -65.53996,0.18683c-22.11784,-5.80162 -44.81036,-12.68875 -55.39297,-24.51227c-8.42726,-9.4154 -7.24743,-23.97467 -5.91429,-29.05706z" fill="#5c2c2c" stroke="none"/><path d="M96.51849,256.78539c19.30275,-20.39921 41.27507,-13.09798 55.86387,-9.27127c17.29684,4.53705 38.39781,5.8534 45.34821,36.91297c8.40223,37.5475 0.08459,108.02918 -9.18501,143.36815c-16.93747,64.57161 -59.29247,63.57523 -97.49921,53.5534c-38.20674,-10.02183 -81.67279,-13.37626 -64.73532,-77.94786c10.47009,-39.91568 38.95805,-113.59094 70.20747,-146.61539z" fill="none" stroke="#000000"/><path d="M88.60689,228.13064c26.36087,-24.67963 57.53552,1.6741 77.95095,7.02918c26.2049,6.87368 56.91652,-6.61144 59.11102,40.01371c1.92192,40.83384 -9.07273,135.17536 -17.58268,167.6183c-18.22682,69.48709 -58.37865,56.89663 -107.53352,44.00305c-49.15484,-12.89357 -109.2186,-18.80707 -90.99177,-88.29419c10.6567,-40.62711 41.93697,-135.62774 79.04601,-170.37004z" fill="none" stroke="#000000"/></g><g><path d="M112.64781,14.7528c27.47468,2.45647 47.93905,24.6724 45.70845,49.62068c-2.23059,24.94825 -26.31147,43.18145 -53.78615,40.72498c-27.47465,-2.45647 -47.93902,-24.67239 -45.70842,-49.62067c2.2306,-24.94828 26.31143,-43.18146 53.78612,-40.72498z" fill="#840000" stroke="#000000" stroke-linecap="butt"/><path d="M75.91226,46.09449c-7.13214,20.0772 2.74078,43.66158 14.76722,44.73685c24.45467,2.18646 66.62834,-32.93392 64.86852,-13.2509c-1.75984,19.68303 -23.01088,33.86681 -47.46556,31.68034c-16.55519,-1.48018 -43.26603,-18.40474 -50.36164,-40.91563c-1.90058,-6.02955 6.82623,-33.83183 20.95342,-45.23498c11.03952,-8.91086 28.04174,-2.05928 28.2911,-4.8483c0.89438,-10.00321 -23.68264,7.08463 -31.05307,27.83264z" fill="#430000" stroke="none" stroke-linecap="butt"/><path d="M112.88544,15.63479c27.47468,2.45647 47.93904,24.67243 45.70845,49.62068c-2.2306,24.94828 -26.31147,43.18145 -53.78615,40.72498c-27.47468,-2.45647 -47.93904,-24.67243 -45.70845,-49.62068c2.2306,-24.94828 26.31147,-43.18145 53.78615,-40.72498z" fill="none" stroke="#000000" stroke-linecap="butt"/><path d="M89.8053,206.65897c12.75034,-10.19952 59.39428,-3.51006 92.62896,-0.53859c29.28922,2.61872 56.80316,-2.93936 69.68207,7.4487c6.35076,5.1225 7.25837,24.72449 6.75786,30.32252c-1.51552,16.95044 -38.19597,27.52177 -81.92811,23.61173c-43.73214,-3.91004 -77.95546,-20.82078 -76.43993,-37.77122c0.36378,-4.06878 -14.72817,-19.85154 -10.70085,-23.07316z" fill="#000000" stroke="none" stroke-linecap="butt"/><g stroke-linecap="butt"><path d="M72.15697,213.34205c0.92907,-10.39125 9.28466,-18.13528 18.66274,-17.2968c2.35016,0.21013 -6.47157,6.88799 -3.77553,12.31383c4.5741,9.20543 21.41613,20.53193 30.50068,32.14275c6.92757,8.85405 29.50321,14.69276 29.202,18.06185c-0.19308,2.15955 83.68275,1.00284 81.05601,5.50565c-0.23026,0.39471 18.56253,-7.52893 27.30922,-19.53834c5.44656,-7.47824 1.4159,-21.4179 3.52567,-21.01819c6.22134,1.17873 18.47595,-3.8838 17.6197,8.42987c-0.34187,4.91648 -13.00493,15.43559 -16.31991,23.11484c-4.56524,10.57551 -0.41581,18.02526 -3.5859,18.50986c-27.96938,4.27554 -124.71139,5.56781 -129.03853,3.24051c-14.2688,-7.67435 -34.83939,-42.68395 -39.85791,-43.13266c-9.37809,-0.83849 -16.22736,-9.94198 -15.2983,-20.33322z" fill="#840000" stroke="#000000"/><path d="M76.65092,202.23186c0.18737,-2.09559 9.41286,20.93121 28.90641,38.22997c15.98356,14.18396 37.4083,28.79938 46.04733,29.57181c19.17518,1.71443 105.60418,-2.52332 105.26317,1.29054c-0.341,3.81385 -82.93759,8.43977 -102.11276,6.72534c-5.14135,-0.45969 -14.57291,1.52858 -27.75949,-6.81897c-10.697,-6.77154 -19.7554,-19.3397 -30.13305,-29.94569c-5.52917,-5.65085 -13.97917,-10.14153 -17.61043,-14.23787c-12.48652,-14.08578 -2.7371,-23.29528 -2.60121,-24.81507z" fill="#430000" stroke="none"/><path d="M72.60915,212.60906c0.92907,-10.39125 9.28466,-18.13528 18.66274,-17.2968c2.35016,0.21013 -6.47157,6.88799 -3.77553,12.31383c4.5741,9.20543 21.41613,20.53193 30.50068,32.14275c6.9276,8.85409 29.50326,14.69279 29.20202,18.06184c-0.19309,2.15951 83.68274,1.00281 81.05602,5.50562c-0.23025,0.39474 18.56253,-7.52893 27.30921,-19.53831c5.44657,-7.47821 1.4159,-21.41787 3.52566,-21.01816c6.22134,1.17873 18.47598,-3.88379 17.6197,8.42987c-0.34187,4.91648 -13.00493,15.43559 -16.31991,23.11484c-4.56524,10.57551 -0.41581,18.02526 -3.5859,18.50986c-27.96938,4.27551 -124.71139,5.56781 -129.03852,3.24048c-14.26876,-7.67439 -34.83936,-42.68394 -39.85788,-43.13265c-9.37809,-0.83849 -16.22736,-9.94198 -15.2983,-20.33322z" fill="none" stroke="#000000"/></g><path d="M92.7549,221.14667l1.54354,-17.26396l164.9667,14.74947l-1.54354,17.26396z" fill="#ffffff" stroke="#000000" stroke-linecap="butt"/><path d="M92.75487,221.14663l1.54354,-17.26396l164.9667,14.74947l-1.54354,17.26396z" fill="none" stroke="#000000" stroke-linecap="butt"/><path d="M194.35117,53.27011c55.08893,4.92543 96.00016,50.82848 91.37784,102.52729c-2.34905,26.27319 0.47101,52.77576 -19.27867,62.05639c-19.11255,8.98124 -60.38585,1.20219 -87.47872,-1.22016c-25.48282,-2.2784 -74.50373,0.25742 -91.12819,-10.58879c-19.31442,-12.60123 -4.09318,-40.2998 -1.60903,-68.084c4.62232,-51.69881 53.02786,-89.61616 108.11678,-84.69073z" fill="#840000" stroke="#000000" stroke-linecap="butt"/><path d="M186.16327,132.69081c28.39198,2.5385 50.4868,14.90215 49.35016,27.61496c-1.13663,12.7128 -25.07431,20.96074 -53.4663,18.42227c-28.39198,-2.5385 -99.73302,3.89743 -98.59638,-8.81539c0.35816,-4.00585 -1.38895,-50.64961 18.91416,-82.05447c9.38542,-14.51738 42.32072,-25.61444 48.54409,-28.03215c9.39968,-3.65167 -43.96887,33.62545 -54.96508,67.40792c-6.1218,18.8073 26.99916,36.99793 28.77288,45.32159c2.17702,10.21648 21.39156,-24.4811 38.60742,-38.49184c5.3154,-4.32582 21.52127,-1.49071 22.8391,-1.37289z" fill="#430000" stroke="none" stroke-linecap="butt"/><path d="M194.41977,52.50281c55.08893,4.92543 96.00016,50.82848 91.37784,102.52729c-2.34905,26.27319 0.47101,52.77576 -19.27867,62.05639c-19.11255,8.98124 -60.38585,1.20219 -87.47872,-1.22016c-25.48282,-2.2784 -74.50373,0.25742 -91.12819,-10.58879c-19.31442,-12.60123 -4.09318,-40.2998 -1.60903,-68.084c4.62232,-51.69881 53.02786,-89.61616 108.11678,-84.69073z" fill="none" stroke="#000000" stroke-linecap="butt"/><path d="M115.01055,119.69309c21.39995,1.91334 63.76344,9.13975 62.45631,23.75953c-1.30713,14.61975 8.33178,31.29505 -13.06815,29.3817c-21.39995,-1.91334 -70.02628,0.35476 -68.71915,-14.26501c1.30713,-14.61975 -2.06895,-40.78956 19.33099,-38.87622z" fill="#000000" stroke="#000000" stroke-linecap="butt"/><path d="M270.28074,176.50045c-1.30713,14.61975 -48.75986,3.76136 -70.1598,1.84801c-21.39995,-1.91334 -8.95572,-16.61421 -7.64859,-31.23396c1.30713,-14.61975 44.28068,-14.2163 65.68061,-12.30295c21.39995,1.91334 13.4349,27.06915 12.12777,41.68891z" data-paper-data="{&quot;index&quot;:null}" fill="#000000" stroke="#000000" stroke-linecap="butt"/><path d="M93.97937,168.36658c17.0201,-3.55474 54.79429,3.5194 83.80705,6.1134c31.13418,2.78367 68.15799,2.11844 83.94433,9.25369c9.5677,4.32447 4.38898,23.52075 3.98865,27.99827c-1.06087,11.86532 -41.77092,10.18689 -91.77471,5.71611c-22.17447,-1.98259 -60.30854,-3.43168 -75.76915,-7.97929c-19.40335,-5.70734 -13.44026,-14.99622 -12.84985,-21.5998c0.44535,-4.98092 -3.66052,-16.93049 8.65366,-19.50238z" fill="#7d3c3c" stroke="#000000" stroke-linecap="butt"/><path d="M123.2394,167.69923c8.37536,0.74883 -10.43289,1.74531 -20.48459,7.82122c-9.90519,5.98738 -11.07283,17.04007 -0.80218,19.81304c43.11498,11.64063 164.68972,12.0371 164.29291,16.47527c-0.58727,6.56831 -42.62997,8.17652 -93.90505,3.59209c-51.27506,-4.58444 -92.36565,-13.62549 -91.7784,-20.19382c0.58727,-6.56831 -8.59774,-32.09225 42.67732,-27.5078z" fill="#5c2c2c" stroke="none" stroke-linecap="butt"/><path d="M95.65115,166.96921c17.0201,-3.55474 54.79429,3.5194 83.80705,6.1134c31.13418,2.78367 68.15799,2.11844 83.94433,9.25369c9.5677,4.32447 4.38898,23.52075 3.98865,27.99827c-1.06086,11.86529 -41.77092,10.18689 -91.77471,5.71611c-22.17447,-1.98259 -60.30854,-3.43168 -75.76915,-7.97929c-19.40335,-5.70734 -13.44026,-14.99622 -12.84985,-21.5998c0.44535,-4.98092 -3.66052,-16.93049 8.65366,-19.50238z" fill="none" stroke="#000000" stroke-linecap="butt"/><path d="M157.84041,145.76513c1.53458,0.13721 1.39737,1.67178 1.39737,1.67178c-0.22868,2.55765 -0.59455,6.6498 -0.82322,9.20745c0,0 -0.13721,1.53458 -1.67178,1.39737c-1.53458,-0.13721 -1.39737,-1.67178 -1.39737,-1.67178c0.22868,-2.55765 0.45734,-5.11522 0.68602,-7.67288l0.13721,-1.53458c0,0 0.13721,-1.53458 1.67178,-1.39737z" fill="#ffffff" stroke="none" stroke-linecap="butt"/><path d="M211.05762,147.42953c1.53458,0.13721 1.39737,1.67178 1.39737,1.67178l-0.0686,0.76729c-0.38993,4.36122 -1.62415,8.79049 -1.93352,12.97527c0,0 -0.13721,1.53458 -1.67178,1.39737c-1.53458,-0.13721 -1.39737,-1.67178 -1.39737,-1.67178c0.42985,-4.27144 1.53708,-8.54118 1.93352,-12.97527l0.0686,-0.76729c0,0 0.13721,-1.53458 1.67178,-1.39737z" fill="#ffffff" stroke="none" stroke-linecap="butt"/><path d="M158.35925,163.60019l0.13721,-1.53458c0.41353,-3.62215 2.15363,-4.86107 3.55259,-6.98169c0.00552,-2.92953 0.69625,-8.83193 -0.43607,-12.14154c0,0 -0.38603,-1.12832 0.19404,-2.17022c0.58007,-1.04195 0.96607,0.08637 0.96607,0.08637c1.12928,3.30076 -0.29384,6.84211 0.1813,8.85548c0.29245,1.23931 1.06119,1.32326 0.99567,3.31034c-0.0392,1.18939 -0.37816,1.25938 -0.60835,1.1734c0.03769,0.06908 0.07437,0.15372 0.10947,0.25627c0.13407,0.39187 0.15162,0.77331 0.11738,1.10429c-0.02503,0.33181 -0.10997,0.7041 -0.31142,1.06596c-0.81576,1.46527 -3.33541,3.84648 -3.39438,5.56353l-0.13721,1.53458c0,0 -0.13721,1.53458 -0.82033,1.47349c-0.68313,-0.06107 -0.54593,-1.59566 -0.54593,-1.59566z" data-paper-data="{&quot;index&quot;:null}" fill="#ffffff" stroke="none" stroke-linecap="butt"/><path d="M203.87022,170.37625c-0.68313,-0.06107 -0.54593,-1.59566 -0.54593,-1.59566l0.13721,-1.53458c0.24657,-1.70026 -1.81069,-4.4907 -2.35358,-6.07741c-0.13407,-0.39187 -0.15162,-0.77331 -0.11738,-1.10429c0.02503,-0.33181 0.10997,-0.7041 0.31142,-1.06596c0.05274,-0.09469 0.10382,-0.17148 0.1532,-0.23278c-0.24182,0.04381 -0.56295,-0.08519 -0.39055,-1.2627c0.28803,-1.9672 1.05946,-1.91344 1.56713,-3.08121c0.82477,-1.89715 0.05244,-5.63482 1.74937,-8.68286c0,0 0.58007,-1.04195 0.96607,0.08637c0.38603,1.12832 -0.19404,2.17022 -0.19404,2.17022c-1.70148,3.05624 -2.06882,8.98754 -2.58309,11.8716c1.00061,2.33513 2.49331,3.8631 2.25772,7.50119l-0.13721,1.53458c0,0 -0.13721,1.53458 -0.82033,1.47349z" data-paper-data="{&quot;index&quot;:null}" fill="#ffffff" stroke="none" stroke-linecap="butt"/><path d="M212.31577,169.97122l0.13721,-1.53458c0.41353,-3.62215 2.15363,-4.86107 3.55259,-6.98169c0.00552,-2.92953 0.69625,-8.83193 -0.43607,-12.14154c0,0 -0.38603,-1.12832 0.19404,-2.17022c0.58007,-1.04195 0.96607,0.08637 0.96607,0.08637c1.12928,3.30076 -0.29384,6.84211 0.1813,8.85548c0.29245,1.23931 1.06119,1.32326 0.99567,3.31034c-0.0392,1.18939 -0.37816,1.25938 -0.60835,1.1734c0.03769,0.06908 0.07437,0.15372 0.10947,0.25627c0.13407,0.39187 0.15162,0.77331 0.11738,1.10429c-0.02503,0.33181 -0.10997,0.7041 -0.31142,1.06596c-0.81576,1.46527 -3.33541,3.84648 -3.39438,5.56353l-0.13721,1.53458c0,0 -0.13721,1.53458 -0.82033,1.47349c-0.68313,-0.06107 -0.54593,-1.59566 -0.54593,-1.59566z" data-paper-data="{&quot;index&quot;:null}" fill="#ffffff" stroke="none" stroke-linecap="butt"/><path d="M182.83649,169.93826c15.99698,1.43027 28.50437,7.74262 27.93605,14.09904c-0.56832,6.35642 -13.99714,10.34985 -29.99412,8.91957c-15.99698,-1.43027 -28.50437,-7.74262 -27.93605,-14.09904c0.56832,-6.35642 13.99714,-10.34985 29.99412,-8.91957z" fill="#000000" stroke="#000000" stroke-linecap="butt"/><path d="M123.37142,220.40363l0.68602,-7.67288" fill="none" stroke="#000000" stroke-linecap="round"/><path d="M169.20283,226.82162l0.89183,-9.97474" fill="none" stroke="#000000" stroke-linecap="round"/><path d="M202.82626,231.3747l2.28287,-12.55733" fill="none" stroke="#000000" stroke-linecap="round"/><path d="M239.69033,234.28395l2.90662,-15.20854" fill="none" stroke="#000000" stroke-linecap="round"/><g stroke-linecap="butt"><path d="M211.70908,46.50407c2.65166,-4.33702 14.58393,-13.72013 20.82426,-28.62104c11.17579,-26.68597 19.01379,-63.35114 28.66911,-65.54275c20.36082,-4.62163 53.63515,39.34185 64.94622,46.25747c3.90348,2.38657 31.10173,-3.11608 31.3919,1.61642c0.57731,9.41604 -20.01579,23.88925 -33.68112,39.9005c-14.07589,16.49224 -21.34539,34.55514 -28.42803,46.13942c-17.41467,28.48316 -36.00995,15.79236 -55.67995,3.76611c-19.66999,-12.02626 -45.45705,-15.03297 -28.0424,-43.51613z" fill="#410000" stroke="#000000"/><path d="M231.58833,23.39346c5.38837,-8.81317 16.16114,-83.21166 36.34201,-70.87301c12.37305,7.56494 -24.80813,47.04686 -17.8143,77.66916c4.41335,19.32369 56.63843,34.47629 54.55372,37.88603c-5.38841,8.81317 -26.11639,5.95523 -46.29728,-6.38341c-20.18089,-12.33865 -32.17258,-29.48558 -26.78418,-38.29875z" fill="#170000" stroke="none"/><path d="M211.6339,46.19211c2.65163,-4.33703 14.58389,-13.7201 20.82423,-28.62104c11.17579,-26.68597 19.01379,-63.35114 28.66911,-65.54275c20.36079,-4.62164 53.63515,39.34185 64.94622,46.25747c3.90348,2.38657 31.10171,-3.11606 31.39187,1.61642c0.57735,9.41604 -20.01575,23.88925 -33.68112,39.9005c-14.0759,16.49227 -21.34539,34.55514 -28.42803,46.13942c-17.41467,28.48316 -36.00995,15.79236 -55.67995,3.76611c-19.66999,-12.02629 -45.45705,-15.03297 -28.0424,-43.51613z" fill="none" stroke="#000000"/><path d="M304.58138,109.57015c-4.52959,7.40852 -3.85804,22.67228 -21.17233,17.36697c-10.32039,-3.1623 -36.38572,-23.14471 -47.9407,-30.20946c-13.18343,-8.06036 -38.83065,-22.21017 -46.61925,-30.973c-10.49074,-11.80295 -0.46261,-17.90339 3.68646,-24.68957c3.7628,-6.1544 11.29457,-16.03429 24.56143,-13.28834c12.22281,2.52988 29.71496,17.05969 44.55162,26.13085c13.49728,8.25227 43.24219,21.10079 51.05631,30.0525c10.09863,11.56881 -4.04779,18.94382 -8.12351,25.61005z" data-paper-data="{&quot;index&quot;:null}" fill="#410000" stroke="#000000"/><path d="M222.11992,31.58479c8.63907,1.59484 56.96743,29.38515 77.14526,44.30574c16.39955,12.12675 13.53311,14.09449 17.98628,16.81717c1.96738,1.20285 0.84153,17.44217 -6.78507,12.67739c-10.13589,-6.33249 -4.76372,-15.12495 -20.22001,-27.5071c-16.93741,-13.5687 -61.64897,-34.79613 -71.7767,-36.07097c-6.43388,-0.80988 -11.71776,1.30867 -15.55807,4.32149c-4.97678,3.90441 -7.52922,9.31066 -7.01845,11.79155c2.70962,13.16124 102.13069,62.59838 99.37792,67.10078c-5.31033,8.68545 -49.45754,-18.16497 -73.59796,-32.92449c-24.14042,-14.75951 -39.40524,-33.76541 -34.09496,-42.45087c3.12545,-5.11192 12.1395,-22.19628 34.54175,-18.0607z" fill="#170000" stroke="none"/><path d="M304.74262,110.23876c-4.52959,7.40852 -3.85801,22.67227 -21.17233,17.36697c-10.32039,-3.16227 -36.38572,-23.14471 -47.94073,-30.20946c-13.18343,-8.06036 -38.83062,-22.21018 -46.61925,-30.973c-10.49074,-11.80295 -0.46261,-17.90339 3.68646,-24.68957c3.7628,-6.15437 11.2946,-16.03429 24.56143,-13.28834c12.22282,2.52985 29.71496,17.05969 44.55162,26.13085c13.49728,8.25227 43.24219,21.10079 51.05631,30.05253c10.09863,11.56881 -4.04779,18.94382 -8.12351,25.61005z" data-paper-data="{&quot;index&quot;:null}" fill="none" stroke="#000000"/></g></g><g><path d="M-151.99236,358.4264c12.46504,-21.90843 38.75475,-30.46024 58.71968,-19.10096c19.96494,11.35925 26.04483,38.32809 13.57979,60.23651c-12.46504,21.90846 -38.75478,30.46023 -58.71971,19.10095c-19.96497,-11.35926 -26.04483,-38.32809 -13.57979,-60.23651z" fill="#840000" stroke="#000000" stroke-linecap="butt"/><path d="M-157.3923,375.13128c7.0367,-12.36767 19.41908,-49.93086 37.08718,-39.8784c2.96424,1.68652 -11.76083,11.96311 -18.06476,27.48318c-5.97961,14.72157 -3.54847,34.63535 -1.25531,39.34263c9.69895,19.90951 50.95108,1.1312 46.21473,9.45574c-7.03672,12.36764 -27.06391,14.24452 -44.73201,4.19205c-17.6681,-10.05246 -26.28655,-28.22757 -19.24982,-40.59523z" fill="#430000" stroke="none" stroke-linecap="butt"/><path d="M-94.52566,341.34535c19.96497,11.35926 26.04483,38.32809 13.57979,60.23651c-12.46504,21.90846 -38.75472,30.46025 -58.71968,19.10096c-19.96497,-11.35926 -26.04483,-38.32809 -13.57979,-60.23651c12.46504,-21.90846 38.75472,-30.46025 58.71968,-19.10096z" fill="none" stroke="#000000" stroke-linecap="butt"/><g><path d="M-94.8076,443.98648c9.4493,-16.608 -16.6878,-41.67833 -8.56045,-37.0542c3.79854,2.1612 22.85948,-11.86792 32.12049,-1.98095c10.55381,11.26718 10.90448,46.93479 5.87158,55.78059c-9.44931,16.60803 -23.69795,26.32286 -31.82529,21.69873c-8.12735,-4.62413 -7.05567,-21.83616 2.39364,-38.44419z" fill="#840000" stroke="#000000" stroke-linecap="butt"/><path d="M-100.56199,411.02761c-0.88586,-9.76499 10.19882,-9.59646 11.88455,-8.63735c4.59372,2.61364 14.09713,64.53727 10.17667,71.42782c-3.92046,6.89055 -10.82256,10.35767 -15.41625,7.74404c-4.59369,-2.61364 -6.75033,-9.9798 -2.82987,-16.87036c2.48178,-4.36196 -2.15077,-35.31761 -3.81509,-53.66415z" fill="#430000" stroke="none" stroke-linecap="butt"/><path d="M-103.94617,406.28129c3.79854,2.1612 22.85948,-11.86792 32.12049,-1.98095c10.55381,11.26718 10.90448,46.93479 5.87158,55.78059c-9.4493,16.608 -23.69798,26.32285 -31.82529,21.69873c-8.12732,-4.62412 -7.05563,-21.83618 2.39367,-38.44418c9.4493,-16.608 -16.68777,-41.67832 -8.56045,-37.0542z" fill="none" stroke="#000000" stroke-linecap="butt"/><path d="M-91.55406,439.57809l27.66657,0.49631" fill="none" stroke="#000000" stroke-linecap="round"/></g><g data-paper-data="{&quot;index&quot;:null}"><path d="M-185.94497,406.79932c-3.77623,18.73116 -14.26818,32.4177 -23.43452,30.56973c-9.16631,-1.84794 -13.53583,-18.53055 -9.7596,-37.26171c2.0113,-9.97664 25.69291,-36.65025 41.05091,-38.22007c13.47667,-1.3775 18.64361,21.71881 22.92773,22.58248c9.16631,1.84794 -27.00835,3.5984 -30.78454,22.32951z" fill="#840000" stroke="#000000" stroke-linecap="butt"/><path d="M-198.07593,423.6904c-1.56673,7.77143 -8.02963,11.91178 -13.21058,10.86731c-5.18095,-1.04447 -8.11087,-8.19119 -6.54414,-15.96262c1.56673,-7.77143 49.3902,-48.24072 54.57118,-47.19623c1.90122,0.38328 10.37296,7.53364 3.29369,14.31771c-13.30055,12.74601 -37.11836,33.05424 -38.11017,37.97383z" fill="#430000" stroke="none" stroke-linecap="butt"/><path d="M-185.08151,406.68785c-3.77619,18.73114 -14.26818,32.4177 -23.43449,30.56976c-9.16628,-1.84793 -13.53583,-18.53058 -9.7596,-37.26171c2.0113,-9.97664 25.69291,-36.65025 41.05091,-38.22007c13.47667,-1.3775 18.64361,21.71881 22.92773,22.58248c9.16628,1.84793 -27.00835,3.5984 -30.78454,22.32951z" fill="none" stroke="#000000" stroke-linecap="butt"/><path d="M-185.50488,401.33805l-21.19456,-17.78976" fill="none" stroke="#000000" stroke-linecap="round"/></g><g data-paper-data="{&quot;index&quot;:null}"><path d="M-152.34227,433.40751c0.08085,19.10784 -7.43378,34.62985 -16.78444,34.66941c-9.35065,0.03956 -16.99637,-15.41828 -17.07722,-34.52612c-0.04305,-10.17725 17.76951,-41.08055 32.49489,-45.71687c12.92157,-4.06837 22.64239,17.51036 27.01267,17.49188c9.35065,-0.03956 -25.72679,8.97388 -25.64593,28.08169z" fill="#840000" stroke="#000000" stroke-linecap="butt"/><path d="M-160.81564,452.39886c0.03355,7.92771 -5.46102,13.28692 -10.74616,13.30932c-5.28513,0.02237 -9.59679,-6.38618 -9.63034,-14.31389c-0.03355,-7.92771 38.64081,-57.21406 43.92597,-57.23642c1.93946,-0.0082 11.67972,5.28573 6.11488,13.35867c-10.45523,15.16752 -29.68557,39.8638 -29.66434,44.88232z" fill="#430000" stroke="none" stroke-linecap="butt"/><path d="M-151.51908,433.12409c0.08086,19.10781 -7.43378,34.62985 -16.78441,34.66941c-9.35062,0.03956 -16.99636,-15.41831 -17.07722,-34.52612c-0.04305,-10.17725 17.76951,-41.08055 32.49489,-45.71687c12.92157,-4.06837 22.64239,17.51036 27.01267,17.49188c9.35062,-0.03956 -25.72679,8.97388 -25.64593,28.08169z" fill="none" stroke="#000000" stroke-linecap="butt"/><path d="M-153.01314,427.96973l-24.34812,-13.14741" fill="none" stroke="#000000" stroke-linecap="round"/></g><g data-paper-data="{&quot;index&quot;:null}"><path d="M-122.72174,448.93217c7.25783,17.67597 6.12932,34.88437 -2.52063,38.43608c-8.64994,3.55171 -21.54571,-7.89822 -28.80354,-25.57419c-3.86568,-9.4146 1.02343,-44.74729 12.9259,-54.57905c10.44448,-8.62737 27.56405,7.71444 31.60686,6.05446c8.64994,-3.55171 -20.46643,17.98677 -13.20859,35.6627z" fill="#840000" stroke="#000000" stroke-linecap="butt"/><path d="M-123.43449,469.71586c3.01125,7.33363 -0.06575,14.36528 -4.95482,16.37276c-4.88908,2.0075 -11.29357,-2.3102 -14.30479,-9.64383c-3.01125,-7.33363 14.29906,-67.54328 19.18817,-69.55078c1.79414,-0.73668 12.81002,0.50746 10.68808,10.08019c-3.9867,17.98531 -12.52286,48.09921 -10.61666,52.74165z" fill="#430000" stroke="none" stroke-linecap="butt"/><path d="M-122.06548,448.36008c7.25784,17.67594 6.12932,34.88437 -2.52059,38.43605c-8.64991,3.55171 -21.54571,-7.89825 -28.80354,-25.57419c-3.86568,-9.4146 1.02343,-44.74729 12.9259,-54.57905c10.44448,-8.62737 27.56405,7.71444 31.60686,6.05446c8.64991,-3.55171 -20.46643,17.98677 -13.20859,35.6627z" fill="none" stroke="#000000" stroke-linecap="butt"/><path d="M-125.38757,444.14543l-27.50459,-3.0303" fill="none" stroke="#000000" stroke-linecap="round"/></g></g><g data-paper-data="{&quot;index&quot;:null}"><path d="M313.09002,455.79226c0.10666,25.20605 -18.42776,45.71842 -41.39781,45.8156c-22.97003,0.09722 -41.67743,-20.25754 -41.78409,-45.46362c-0.10666,-25.20605 18.42779,-45.71841 41.39781,-45.8156c22.97003,-0.09722 41.67739,20.25757 41.78406,45.46361z" fill="#840000" stroke="#000000" stroke-linecap="butt"/><path d="M309.59532,472.99687c0.06022,14.22923 -16.36965,25.83403 -36.69713,25.92006c-20.32748,0.08603 -36.85493,-11.37933 -36.91516,-25.60853c-0.04054,-9.57754 26.68327,27.03122 44.90585,14.44567c4.30843,-2.97565 16.20102,-19.13224 18.2172,-34.89344c2.12555,-16.61608 -5.65952,-32.7972 -2.24912,-32.81162c20.32748,-0.08603 12.67816,38.71867 12.73835,52.9479z" fill="#430000" stroke="none" stroke-linecap="butt"/><path d="M313.19022,458.16712c0.10666,25.20605 -18.42776,45.71842 -41.39781,45.8156c-22.97006,0.09721 -41.6774,-20.25754 -41.78406,-45.46361c-0.10666,-25.20605 18.42776,-45.71842 41.39781,-45.8156c22.97006,-0.09721 41.6774,20.25754 41.78406,45.46361z" fill="none" stroke="#000000" stroke-linecap="butt"/><g><path d="M221.27159,502.26803c0.08085,19.10784 -7.43378,34.62985 -16.78444,34.66941c-9.35065,0.03956 -16.99637,-15.41828 -17.07722,-34.52612c-0.04305,-10.17725 17.76951,-41.08055 32.49489,-45.71687c12.92157,-4.06837 22.64239,17.51036 27.01267,17.49188c9.35065,-0.03956 -25.72679,8.97388 -25.64593,28.08169z" fill="#840000" stroke="#000000" stroke-linecap="butt"/><path d="M212.79822,521.25939c0.03355,7.92771 -5.46102,13.28692 -10.74616,13.30932c-5.28513,0.02237 -9.59679,-6.38618 -9.63034,-14.31389c-0.03355,-7.92771 38.64081,-57.21406 43.92597,-57.23642c1.93946,-0.0082 11.67969,5.28572 6.11485,13.35866c-10.45523,15.16752 -29.68557,39.8638 -29.66434,44.88232z" fill="#430000" stroke="none" stroke-linecap="butt"/><path d="M222.09478,501.98461c0.08086,19.10781 -7.43378,34.62985 -16.78441,34.66941c-9.35062,0.03956 -16.99636,-15.41831 -17.07722,-34.52612c-0.04305,-10.17725 17.76951,-41.08055 32.49489,-45.71687c12.92157,-4.06837 22.64239,17.51036 27.01267,17.49188c9.35062,-0.03956 -25.72679,8.97388 -25.64593,28.08169z" fill="none" stroke="#000000" stroke-linecap="butt"/><path d="M196.2526,483.68284l24.34812,13.14741" fill="none" stroke="#000000" stroke-linecap="round"/></g><g data-paper-data="{&quot;index&quot;:null}"><path d="M318.92793,514.60245c5.90396,-18.17301 -24.75405,-37.454 -15.86086,-34.56484c4.15647,1.35034 19.99473,-16.23623 31.06016,-8.42121c12.61014,8.90598 20.15027,43.76925 17.00574,53.4486c-5.90396,18.17301 -17.89938,30.56305 -26.79255,27.67389c-8.89319,-2.88917 -11.31645,-19.96343 -5.41253,-38.13646z" fill="#840000" stroke="#000000" stroke-linecap="butt"/><path d="M306.64176,483.48252c-2.83794,-9.38541 8.05274,-11.4569 9.89731,-10.85764c5.0266,1.63302 26.82893,60.36551 24.37942,67.90539c-2.44951,7.53988 -8.51009,12.32834 -13.53666,10.69532c-5.02657,-1.63301 -8.62515,-8.41251 -6.17564,-15.95239c1.55064,-4.773 -9.23257,-34.15726 -14.56448,-51.79066z" fill="#430000" stroke="none" stroke-linecap="butt"/><path d="M302.3695,479.51667c4.1565,1.35035 19.99473,-16.23623 31.06019,-8.4212c12.61014,8.90598 20.15027,43.76925 17.00573,53.44863c-5.90396,18.17301 -17.89937,30.56302 -26.79257,27.67385c-8.89316,-2.88916 -11.31642,-19.96346 -5.41247,-38.13644c5.90393,-18.17302 -24.75405,-37.454 -15.86086,-34.56484z" fill="none" stroke="#000000" stroke-linecap="butt"/><path d="M321.22507,509.62829l27.19771,-5.09622" fill="none" stroke="#000000" stroke-linecap="round"/></g><g data-paper-data="{&quot;index&quot;:null}"><path d="M276.59126,521.29135c9.4493,-16.608 -16.6878,-41.67833 -8.56045,-37.0542c3.79854,2.1612 22.85948,-11.86792 32.12049,-1.98095c10.55381,11.26718 10.90448,46.93479 5.87158,55.78059c-9.44931,16.60803 -23.69795,26.32286 -31.82529,21.69873c-8.12735,-4.62413 -7.05567,-21.83616 2.39364,-38.44419z" fill="#840000" stroke="#000000" stroke-linecap="butt"/><path d="M270.83688,488.33247c-0.88586,-9.76499 10.19879,-9.59647 11.88452,-8.63736c4.59372,2.61364 14.09713,64.53727 10.17667,71.42782c-3.92046,6.89055 -10.82256,10.35767 -15.41625,7.74404c-4.59369,-2.61364 -6.75033,-9.97983 -2.82987,-16.87039c2.48178,-4.36196 -2.15074,-35.3176 -3.81506,-53.66414z" fill="#430000" stroke="none" stroke-linecap="butt"/><path d="M267.45268,483.58618c3.79854,2.1612 22.85948,-11.86792 32.12049,-1.98095c10.55381,11.26718 10.90448,46.93479 5.87158,55.78059c-9.4493,16.608 -23.69798,26.32285 -31.82529,21.69873c-8.12732,-4.62412 -7.05563,-21.83618 2.39367,-38.44418c9.4493,-16.608 -16.68777,-41.67832 -8.56045,-37.0542z" fill="none" stroke="#000000" stroke-linecap="butt"/><path d="M279.8448,516.88299l27.66657,0.49631" fill="none" stroke="#000000" stroke-linecap="round"/></g><g data-paper-data="{&quot;index&quot;:null}"><path d="M243.16425,520.27834c14.99943,-11.83774 0.20367,-44.89459 5.99665,-37.55443c2.70752,3.4306 25.64417,-2.40422 30.50926,10.23889c5.54426,14.40813 -7.53878,47.59147 -15.5278,53.89652c-14.99944,11.83777 -31.85495,15.48378 -37.64794,8.14365c-5.79298,-7.34016 1.67038,-22.8869 16.66982,-34.72467z" fill="#840000" stroke="#000000" stroke-linecap="butt"/><path d="M250.22165,487.57369c2.84992,-9.38178 13.05821,-5.05871 14.25977,-3.53624c3.27428,4.14879 -11.19736,65.10304 -17.42052,70.01444c-6.22315,4.9114 -13.92237,5.52963 -17.19662,1.38084c-3.27425,-4.14879 -2.50369,-11.78539 3.7195,-16.69679c3.93949,-3.10909 11.28342,-33.53568 16.6379,-51.16225z" fill="#430000" stroke="none" stroke-linecap="butt"/><path d="M248.86988,481.90334c2.70752,3.4306 25.64414,-2.40423 30.50926,10.23889c5.54423,14.40812 -7.53878,47.59147 -15.5278,53.89652c-14.99943,11.83774 -31.85498,15.48377 -37.64794,8.14365c-5.79292,-7.34014 1.67042,-22.88692 16.66985,-34.72466c14.99943,-11.83774 0.20369,-44.89456 5.99665,-37.55443z" fill="none" stroke="#000000" stroke-linecap="butt"/><path d="M247.83633,517.41633l25.45079,10.86021" fill="none" stroke="#000000" stroke-linecap="round"/></g></g></g></g></svg>