<svg version="1.1" xmlns="http://www.w3.org/2000/svg" xmlns:xlink="http://www.w3.org/1999/xlink" width="216.76677" height="338.90838" viewBox="0,0,216.76677,338.90838"><g transform="translate(-127.61094,-10.91674)"><g data-paper-data="{&quot;isPaintingLayer&quot;:true}" fill-rule="nonzero" stroke-linejoin="miter" stroke-miterlimit="10" stroke-dasharray="" stroke-dashoffset="0" style="mix-blend-mode: normal"><g fill="none" stroke="#000000" stroke-width="2" stroke-linecap="round"><path d="M273.98774,116.12825l-9.5,-25.5"/><path d="M259.5,114.16027l15.66667,-25.33334l3.66667,28.33334"/></g><g fill="none" stroke="#000000" stroke-width="2" stroke-linecap="round"><g><path d="M206.48774,116.12825l9.5,-25.5" data-paper-data="{&quot;index&quot;:null}"/><path d="M205.98774,102.62825l1.5,-11.5"/></g><path d="M206.16666,115.16027l-6.66666,-27.66667"/><path d="M197.5,105.4936l0.33334,-20.33333"/></g><g data-paper-data="{&quot;index&quot;:null}" stroke-linecap="butt"><g><g><path d="M258.3779,252.67719l-11.6384,-41.18071l23.58769,-6.51506l11.6384,41.18071z" fill="#252525" stroke="#000000" stroke-width="0"/><path d="M258.3779,252.67719l-11.6384,-41.18071l23.58769,-6.51506l11.6384,41.18071z" fill="#252525" stroke="#000000" stroke-width="0"/><path d="M271.01313,207.99104c0.5906,2.08973 8.05823,25.76985 9.28492,33.13313c2.20632,13.24351 -2.85556,5.81067 -4.98712,6.39942c-2.37725,0.65661 -10.12678,3.64265 -14.38063,4.38549c-1.68107,0.29356 -1.99078,2.10971 -2.45895,0.45317c-0.39202,-1.38711 -12.02311,-39.82612 -11.33681,-41.73273c0.83395,-2.31677 7.27994,21.36905 11.00796,25.60897c6.13927,6.98227 10.55744,-2.874 12.13159,-3.30879c1.61915,-0.44722 5.31171,3.50282 4.89611,-3.22103c-0.43572,-7.04945 -5.00302,-24.71092 -4.15706,-21.71763z" fill="#141414" stroke="none" stroke-width="0"/><path d="M258.3779,252.67719l-11.6384,-41.18071l23.58769,-6.51506l11.6384,41.18071z" fill="none" stroke="#000000" stroke-width="3.5"/><path d="M258.3779,252.67719l-11.6384,-41.18071l23.58769,-6.51506l11.6384,41.18071z" fill="none" stroke="#000000" stroke-width="3.5"/></g><g><path d="M247.57829,235.67289l-2.35641,-8.33783l34.46132,-9.51842l2.35641,8.33784z" fill="#252525" stroke="#000000" stroke-width="0"/><path d="M247.57829,235.67289l-2.35641,-8.33783l34.46132,-9.51842l2.35641,8.33784z" fill="#252525" stroke="#000000" stroke-width="0"/><path d="M279.62988,218.47908c0.11958,0.4231 2.53654,4.96764 1.7876,6.73394c-1.34703,3.17684 -6.70182,4.25414 -9.81601,5.11429c-4.84566,1.3384 -23.4566,6.40708 -23.79125,5.22298c-0.07937,-0.28085 -3.33034,-7.81609 -1.76116,-8.59715c1.90675,-0.94909 2.92231,3.92653 6.63031,3.9693c6.10631,0.07043 15.41042,-4.24793 17.71022,-4.88315c2.36555,-0.65338 6.12063,-0.68429 7.76969,-2.52439c1.72891,-1.9292 1.29932,-5.64186 1.47059,-5.03581z" fill="#141414" stroke="none" stroke-width="0"/><path d="M247.57829,235.67289l-2.35641,-8.33783l34.46132,-9.51842l2.35641,8.33784z" fill="none" stroke="#000000" stroke-width="3.5"/><path d="M247.57829,235.67289l-2.35641,-8.33783l34.46132,-9.51842l2.35641,8.33784z" fill="none" stroke="#000000" stroke-width="3.5"/></g><g><path d="M248.88994,249.56411l-2.35641,-8.33784l38.9344,-10.75391l2.35642,8.33784z" fill="#252525" stroke="#000000" stroke-width="0"/><path d="M248.88994,249.56411l-2.35641,-8.33784l38.9344,-10.75391l2.35642,8.33784z" fill="#252525" stroke="#000000" stroke-width="0"/><path d="M285.38565,231.1428c0.11958,0.4231 2.67289,4.92998 1.77368,6.73779c-1.61731,3.2515 -7.65348,4.51699 -11.17189,5.48879c-5.47462,1.51212 -26.49883,7.24737 -26.83348,6.06326c-0.07937,-0.28085 -3.46536,-7.7788 -1.68067,-8.61939c2.16862,-1.02143 3.14055,3.86625 7.29355,3.78611c6.83912,-0.13198 17.4104,-4.80034 20.00873,-5.51802c2.6726,-0.73819 6.88084,-0.89426 8.79107,-2.80649c2.00272,-2.00483 1.64774,-5.7381 1.81901,-5.13205z" fill="#141414" stroke="none" stroke-width="0"/><path d="M248.88994,249.56411l-2.35641,-8.33784l38.9344,-10.75391l2.35642,8.33784z" fill="none" stroke="#000000" stroke-width="3.5"/><path d="M248.88994,249.56411l-2.35641,-8.33784l38.9344,-10.75391l2.35642,8.33784z" fill="none" stroke="#000000" stroke-width="3.5"/></g></g><g><path d="M239.53637,220.5417l-2.70642,-9.57628l40.21243,-11.1069l2.70643,9.57628z" fill="#252525" stroke="#000000" stroke-width="0"/><path d="M239.53637,220.5417l-2.70642,-9.57628l40.21243,-11.1069l2.70643,9.57628z" fill="#252525" stroke="#000000" stroke-width="0"/><path d="M276.97704,200.62049c0.13734,0.48595 2.93256,5.70018 2.05114,7.73469c-1.58533,3.65927 -7.8318,4.92317 -11.46571,5.92688c-5.65433,1.56176 -27.37084,7.47756 -27.7552,6.11757c-0.09116,-0.32256 -3.8441,-8.97175 -2.01137,-9.87724c2.22699,-1.1003 3.38724,4.50123 7.70892,4.53296c7.11691,0.05227 17.98215,-4.957 20.66577,-5.69824c2.76033,-0.76242 7.13724,-0.81561 9.06816,-2.93923c2.02443,-2.22644 1.54156,-6.49347 1.73828,-5.7974z" fill="#141414" stroke="none" stroke-width="0"/><path d="M239.53637,220.5417l-2.70642,-9.57628l40.21243,-11.1069l2.70643,9.57628z" fill="none" stroke="#000000" stroke-width="3.5"/><path d="M239.53637,220.5417l-2.70642,-9.57628l40.21243,-11.1069l2.70643,9.57628z" fill="none" stroke="#000000" stroke-width="3.5"/></g></g><g stroke-linecap="butt"><g><g><path d="M194.93871,245.91214l11.63839,-41.18071l23.58769,6.51506l-11.6384,41.18071z" fill="#252525" stroke="#000000" stroke-width="0"/><path d="M194.93871,245.91214l11.63839,-41.18071l23.58769,6.51506l-11.6384,41.18071z" fill="#252525" stroke="#000000" stroke-width="0"/><path d="M205.89115,207.74104c0.84596,-2.99329 -3.72135,14.66818 -4.15707,21.71763c-0.4156,6.72385 3.27697,2.77381 4.89612,3.22103c1.57416,0.43479 5.99233,10.29106 12.13159,3.30879c3.72802,-4.23992 10.17401,-27.92574 11.00795,-25.60897c0.68631,1.90662 -10.94478,40.34563 -11.3368,41.73274c-0.46817,1.65654 -0.77788,-0.15962 -2.45895,-0.45318c-4.25385,-0.74284 -12.00338,-3.72888 -14.38062,-4.38549c-2.13156,-0.58875 -7.19343,6.84409 -4.98712,-6.39942c1.22669,-7.36328 8.69432,-31.0434 9.28492,-33.13313z" fill="#141414" stroke="none" stroke-width="0"/><path d="M194.93871,245.91214l11.63839,-41.18071l23.58769,6.51506l-11.6384,41.18071z" fill="none" stroke="#000000" stroke-width="3.5"/><path d="M194.93871,245.91214l11.63839,-41.18071l23.58769,6.51506l-11.6384,41.18071z" fill="none" stroke="#000000" stroke-width="3.5"/></g><g><path d="M194.86468,225.90448l2.35641,-8.33784l34.46132,9.51842l-2.35642,8.33783z" fill="#252525" stroke="#000000" stroke-width="0"/><path d="M194.86468,225.90448l2.35641,-8.33784l34.46132,9.51842l-2.35642,8.33783z" fill="#252525" stroke="#000000" stroke-width="0"/><path d="M197.27442,218.22909c0.17127,-0.60605 -0.25833,3.10661 1.47058,5.03581c1.64906,1.8401 5.40414,1.87101 7.7697,2.52439c2.29982,0.63522 11.60393,4.95359 17.71023,4.88316c3.708,-0.04276 4.72356,-4.91839 6.63031,-3.9693c1.56918,0.78106 -1.6818,8.3163 -1.76117,8.59715c-0.33465,1.1841 -18.9456,-3.88458 -23.79125,-5.22298c-3.11418,-0.86016 -8.46897,-1.93744 -9.816,-5.11429c-0.74894,-1.7663 1.66801,-6.31085 1.78759,-6.73395z" fill="#141414" stroke="none" stroke-width="0"/><path d="M194.86468,225.90448l2.35641,-8.33784l34.46132,9.51842l-2.35642,8.33783z" fill="none" stroke="#000000" stroke-width="3.5"/><path d="M194.86468,225.90448l2.35641,-8.33784l34.46132,9.51842l-2.35642,8.33783z" fill="none" stroke="#000000" stroke-width="3.5"/></g><g><path d="M189.07994,238.5602l2.35642,-8.33784l38.93441,10.75391l-2.35642,8.33784z" fill="#252525" stroke="#000000" stroke-width="0"/><path d="M189.07994,238.5602l2.35642,-8.33784l38.93441,10.75391l-2.35642,8.33784z" fill="#252525" stroke="#000000" stroke-width="0"/><path d="M193.33765,236.02485c1.91022,1.91223 6.11846,2.0683 8.79107,2.80649c2.59833,0.71768 13.16961,5.38604 20.00873,5.51802c4.15299,0.08014 5.12492,-4.80754 7.29354,-3.78611c1.7847,0.84059 -1.60129,8.33854 -1.68066,8.61939c-0.33465,1.18411 -21.35886,-4.55114 -26.83348,-6.06326c-3.51841,-0.9718 -9.55458,-2.23729 -11.17189,-5.48879c-0.89921,-1.80781 1.6541,-6.31469 1.77368,-6.73779c0.17127,-0.60605 -0.1837,3.12722 1.81901,5.13205z" fill="#141414" stroke="none" stroke-width="0"/><path d="M189.07994,238.5602l2.35642,-8.33784l38.93441,10.75391l-2.35642,8.33784z" fill="none" stroke="#000000" stroke-width="3.5"/><path d="M189.07994,238.5602l2.35642,-8.33784l38.93441,10.75391l-2.35642,8.33784z" fill="none" stroke="#000000" stroke-width="3.5"/></g></g><g><path d="M197.15549,209.1848l2.70643,-9.57628l40.21243,11.1069l-2.70642,9.57629z" fill="#252525" stroke="#000000" stroke-width="0"/><path d="M197.15549,209.1848l2.70643,-9.57628l40.21243,11.1069l-2.70642,9.57629z" fill="#252525" stroke="#000000" stroke-width="0"/><path d="M199.92726,200.37048c0.19672,-0.69607 -0.28615,3.57096 1.73828,5.7974c1.93092,2.12362 6.30783,2.17681 9.06816,2.93923c2.68361,0.74124 13.54886,5.75051 20.66577,5.69824c4.32168,-0.03173 5.48192,-5.63326 7.70891,-4.53296c1.83273,0.90549 -1.92021,9.55468 -2.01137,9.87724c-0.38435,1.35999 -22.10086,-4.55581 -27.75519,-6.11757c-3.6339,-1.00371 -9.88038,-2.26761 -11.46571,-5.92688c-0.88143,-2.03451 1.9138,-7.24874 2.05114,-7.73469z" fill="#141414" stroke="none" stroke-width="0"/><path d="M197.15549,209.1848l2.70643,-9.57628l40.21243,11.1069l-2.70642,9.57629z" fill="none" stroke="#000000" stroke-width="3.5"/><path d="M197.15549,209.1848l2.70643,-9.57628l40.21243,11.1069l-2.70642,9.57629z" fill="none" stroke="#000000" stroke-width="3.5"/></g></g><g stroke-linecap="butt"><g><g><path d="M221.88357,199.08205l0.86319,-42.78502l24.46843,0.34809l-0.8632,42.78502z" fill="#252525" stroke="#000000" stroke-width="0"/><path d="M221.88357,199.08205l0.86319,-42.78502l24.46843,0.34809l-0.8632,42.78502z" fill="#252525" stroke="#000000" stroke-width="0"/><path d="M222.84299,159.38233c0.06275,-3.10991 0.10294,15.13252 1.46131,22.06357c1.29564,6.61092 3.87116,1.85649 5.55077,1.88039c1.63292,0.02322 8.39663,8.44454 12.57395,0.13836c2.53664,-5.04385 2.79311,-29.58979 4.18502,-27.55866c1.14548,1.67155 -0.40292,41.80186 -0.432,43.24301c-0.03472,1.72108 -0.79297,0.04197 -2.49369,0.18239c-4.30358,0.35532 -12.55599,-0.57721 -15.02199,-0.61229c-2.21115,-0.03146 -5.23222,8.43865 -6.44137,-4.93283c-0.67227,-7.43442 0.57419,-32.2328 0.61799,-34.40395z" fill="#141414" stroke="none" stroke-width="0"/><path d="M221.88357,199.08205l0.86319,-42.78502l24.46843,0.34809l-0.8632,42.78502z" fill="none" stroke="#000000" stroke-width="3.5"/><path d="M221.88357,199.08205l0.86319,-42.78502l24.46843,0.34809l-0.8632,42.78502z" fill="none" stroke="#000000" stroke-width="3.5"/></g><g><path d="M216.76003,179.74139l0.17477,-8.66266l35.74807,0.50855l-0.17477,8.66266z" fill="#252525" stroke="#000000" stroke-width="0"/><path d="M216.76003,179.74139l0.17477,-8.66266l35.74807,0.50855l-0.17477,8.66266z" fill="#252525" stroke="#000000" stroke-width="0"/><path d="M219.84813,176.20756c2.06025,1.36409 5.70146,0.44585 8.15534,0.48076c2.38568,0.03394 12.47869,1.86308 18.36935,0.25311c3.57706,-0.97765 3.32862,-5.95172 5.41323,-5.51483c1.71556,0.35954 0.47257,8.47148 0.46668,8.76327c-0.02483,1.23024 -19.31256,1.02504 -24.33915,0.95353c-3.23047,-0.04595 -8.68376,0.26374 -10.78929,-2.47005c-1.17066,-1.51996 0.02049,-6.52752 0.02936,-6.96711c0.0127,-0.62966 0.53447,3.07118 2.69448,4.50132z" fill="#141414" stroke="none" stroke-width="0"/><path d="M216.76003,179.74139l0.17477,-8.66266l35.74807,0.50855l-0.17477,8.66266z" fill="none" stroke="#000000" stroke-width="3.5"/><path d="M216.76003,179.74139l0.17477,-8.66266l35.74807,0.50855l-0.17477,8.66266z" fill="none" stroke="#000000" stroke-width="3.5"/></g><g><path d="M214.35829,193.44767l0.17477,-8.66267l40.38817,0.57457l-0.17477,8.66266z" fill="#252525" stroke="#000000" stroke-width="0"/><path d="M214.35829,193.44767l0.17477,-8.66267l40.38817,0.57457l-0.17477,8.66266z" fill="#252525" stroke="#000000" stroke-width="0"/><path d="M214.78196,185.41294c0.0127,-0.62966 0.61186,3.07227 3.0559,4.50646c2.33117,1.36794 6.44246,0.45638 9.21486,0.49582c2.69535,0.03835 14.10284,1.8862 20.75368,0.28704c4.03865,-0.97108 3.74496,-5.9458 6.10122,-5.50505c1.93911,0.36272 0.55607,8.47268 0.55018,8.76447c-0.02482,1.23024 -21.81593,0.98942 -27.49497,0.90863c-3.64978,-0.05192 -9.80989,0.24772 -12.1958,-2.49005c-1.32654,-1.52218 0.00606,-6.52772 0.01493,-6.96731z" fill="#141414" stroke="none" stroke-width="0"/><path d="M214.35829,193.44767l0.17477,-8.66267l40.38817,0.57457l-0.17477,8.66266z" fill="none" stroke="#000000" stroke-width="3.5"/><path d="M214.35829,193.44767l0.17477,-8.66267l40.38817,0.57457l-0.17477,8.66266z" fill="none" stroke="#000000" stroke-width="3.5"/></g></g><g><path d="M214.75491,162.98505l0.20073,-9.94935l41.71392,0.59341l-0.20072,9.94935z" fill="#252525" stroke="#000000" stroke-width="0"/><path d="M214.75491,162.98505l0.20073,-9.94935l41.71392,0.59341l-0.20072,9.94935z" fill="#252525" stroke="#000000" stroke-width="0"/><path d="M218.35705,158.92712c2.40456,1.56725 6.65308,0.51355 9.51648,0.55429c2.78382,0.0396 14.56183,2.1431 21.43494,0.29551c4.17363,-1.12192 3.88189,-6.83491 6.31455,-6.33258c2.00198,0.4134 0.55456,9.72994 0.5478,10.06507c-0.0285,1.41297 -22.53507,1.17226 -28.40052,1.08881c-3.76959,-0.05363 -10.1328,0.30064 -12.59072,-2.83976c-1.36658,-1.74604 0.02148,-7.49709 0.03167,-8.00198c0.01459,-0.72318 0.62479,3.5275 3.1458,5.17064z" fill="#141414" stroke="none" stroke-width="0"/><path d="M214.75491,162.98505l0.20073,-9.94935l41.71392,0.59341l-0.20072,9.94935z" fill="none" stroke="#000000" stroke-width="3.5"/><path d="M214.75491,162.98505l0.20073,-9.94935l41.71392,0.59341l-0.20072,9.94935z" fill="none" stroke="#000000" stroke-width="3.5"/></g></g><g stroke-linecap="butt"><path d="M217.88341,113.36079v-24.96667h41.72077v24.96667z" fill="#252525" stroke="#000000" stroke-width="0"/><path d="M217.88341,113.36079v-24.96667h41.72077v24.96667z" fill="#252525" stroke="#000000" stroke-width="0"/><path d="M218.15353,90.19321c0,-1.81475 0.69588,8.827 3.24972,12.85909c2.43589,3.84587 6.66262,1.05091 9.52649,1.05091c2.78428,0 14.60328,4.8566 21.43827,-0.02364c4.15048,-2.96348 3.74354,-17.285 6.18603,-16.11164c2.01007,0.96562 0.75077,24.38931 0.75077,25.23028c0,3.54567 -22.50866,3.74499 -28.37507,3.74499c-3.77021,0 -10.12551,1.11585 -12.64647,-6.67464c-1.40163,-4.33145 -0.12975,-18.80841 -0.12975,-20.07536z" fill="#141414" stroke="none" stroke-width="0"/><path d="M217.88341,113.36079v-24.96667h41.72077v24.96667z" fill="none" stroke="#000000" stroke-width="3.5"/><path d="M217.88341,113.36079v-24.96667h41.72077v24.96667z" fill="none" stroke="#000000" stroke-width="3.5"/></g><path d="M270.45756,81.85813l-0.66667,10" fill="none" stroke="#000000" stroke-width="2" stroke-linecap="round"/><g stroke-linecap="butt"><g><g><path d="M210.86579,159.04236v-42.79524h55.01246v42.79524z" fill="#252525" stroke="#000000" stroke-width="0"/><path d="M210.86579,159.04236v-42.79524h55.01246v42.79524z" fill="#252525" stroke="#000000" stroke-width="0"/><path d="M215.507,141.37264c3.21193,6.59217 8.78525,1.80134 12.56151,1.80134c3.67131,0 19.25569,8.32469 28.26822,-0.04051c5.47278,-5.07969 4.93618,-29.62809 8.15682,-27.61686c2.65046,1.65516 0.98996,41.80556 0.98996,43.24706c0,1.72149 -1.78043,0.05326 -5.5967,0.21786c-9.65686,0.41652 -28.24774,-0.39857 -33.79207,-0.39857c-4.97135,0 -11.37758,8.51266 -14.70169,-4.84096c-1.84818,-7.4245 -0.17108,-32.23941 -0.17108,-34.41108c0,-3.11065 0.91757,15.13033 4.28503,22.04172z" fill="#141414" stroke="none" stroke-width="0"/><path d="M210.86579,159.04236v-42.79524h55.01246v42.79524z" fill="none" stroke="#000000" stroke-width="3.5"/><path d="M210.86579,159.04236v-42.79524h55.01246v42.79524z" fill="none" stroke="#000000" stroke-width="3.5"/></g><g><path d="M198.47277,139.77553v-8.66473h80.37253v8.66473z" fill="#252525" stroke="#000000" stroke-width="0"/><path d="M198.47277,139.77553v-8.66473h80.37253v8.66473z" fill="#252525" stroke="#000000" stroke-width="0"/><path d="M205.25352,136.19795c4.69259,1.33471 12.83514,0.36472 18.35221,0.36472c5.36374,0 28.13234,1.68548 41.29953,-0.00821c7.99566,-1.02848 7.2117,-5.99879 11.91701,-5.59157c3.87229,0.33512 1.44632,8.46435 1.44632,8.75621c0,1.23053 -43.36157,1.29971 -54.66286,1.29971c-7.26307,0 -19.50616,0.38726 -24.36264,-2.31644c-2.70016,-1.50323 -0.24995,-6.52749 -0.24995,-6.96719c0,-0.62981 1.34057,3.06342 6.26038,4.46277z" fill="#141414" stroke="none" stroke-width="0"/><path d="M198.47277,139.77553v-8.66473h80.37253v8.66473z" fill="none" stroke="#000000" stroke-width="3.5"/><path d="M198.47277,139.77553v-8.66473h80.37253v8.66473z" fill="none" stroke="#000000" stroke-width="3.5"/></g><g><path d="M193.69603,153.51531v-8.66473h90.8049v8.66473z" fill="#252525" stroke="#000000" stroke-width="0"/><path d="M193.69603,153.51531v-8.66473h90.8049v8.66473z" fill="#252525" stroke="#000000" stroke-width="0"/><path d="M194.28396,145.47494c0,-0.62981 1.51458,3.06342 7.07298,4.46277c5.30169,1.33472 14.50114,0.36472 20.73433,0.36472c6.05996,0 31.78391,1.68549 46.66021,-0.0082c9.0335,-1.02848 8.14778,-5.99879 13.46384,-5.59157c4.37491,0.33512 1.63405,8.46435 1.63405,8.75621c0,1.23053 -48.98991,1.29971 -61.75811,1.29971c-8.20583,0 -22.03807,0.38726 -27.52492,-2.31644c-3.05065,-1.50324 -0.2824,-6.5275 -0.2824,-6.9672z" fill="#141414" stroke="none" stroke-width="0"/><path d="M193.69603,153.51531v-8.66473h90.8049v8.66473z" fill="none" stroke="#000000" stroke-width="3.5"/><path d="M193.69603,153.51531v-8.66473h90.8049v8.66473z" fill="none" stroke="#000000" stroke-width="3.5"/></g></g><g><path d="M193.20612,123.04852v-9.95173h93.78557v9.95173z" fill="#252525" stroke="#000000" stroke-width="0"/><path d="M193.20612,123.04852v-9.95173h93.78557v9.95173z" fill="#252525" stroke="#000000" stroke-width="0"/><path d="M193.81334,113.81392c0,-0.72336 1.56428,3.51845 7.30515,5.12564c5.47572,1.53297 14.97715,0.41889 21.41494,0.41889c6.25888,0 32.82722,1.93585 48.19184,-0.00942c9.33002,-1.18125 8.41523,-6.88981 13.90579,-6.42211c4.51852,0.38489 1.68768,9.72158 1.68768,10.05679c0,1.4133 -50.598,1.49276 -63.78532,1.49276c-8.47519,0 -22.76146,0.44476 -28.42843,-2.66052c-3.15079,-1.72651 -0.29167,-7.49704 -0.29167,-8.00204z" fill="#141414" stroke="none" stroke-width="0"/><path d="M193.20612,123.04852v-9.95173h93.78557v9.95173z" fill="none" stroke="#000000" stroke-width="3.5"/><path d="M193.20612,123.04852v-9.95173h93.78557v9.95173z" fill="none" stroke="#000000" stroke-width="3.5"/></g></g><g><g><path d="M192.21229,65.2074c-2.60184,-26.28918 15.78372,-49.62915 41.0653,-52.13127c25.28158,-2.50212 47.88557,16.78111 50.48741,43.07029c2.60184,26.28918 -15.78372,49.62915 -41.0653,52.13127c-20.5372,2.03257 -39.30747,-10.31087 -47.02387,-29.10774c-1.78259,-4.34234 -2.97527,-9.02908 -3.46353,-13.96254z" fill="#2c2c2c" stroke="#000000" stroke-width="0" stroke-linecap="butt"/><path d="M210.92069,82.85007c6.2371,10.1799 21.59481,11.82476 27.12784,11.27716c16.12159,-1.59555 42.01514,-25.61162 42.98517,-15.81043c0.97003,9.8012 -23.09709,28.58043 -39.21868,30.17599c-10.48117,1.03732 -31.74028,-0.52221 -41.26465,-22.20723c-1.92919,-4.39236 -9.48618,-12.50528 -9.78206,-20.67635c-0.49022,-13.53804 7.20272,-27.82651 6.99108,-29.96494c-0.63711,-6.43737 1.22535,27.72452 13.16131,47.2058z" fill="#111111" stroke="none" stroke-width="0" stroke-linecap="butt"/><path d="M233.27759,13.07615c25.28158,-2.50212 47.88556,16.7811 50.48741,43.07028c2.60184,26.28918 -15.78372,49.62914 -41.0653,52.13126c-25.28158,2.50212 -47.88556,-16.7811 -50.48741,-43.07028c-2.60184,-26.28918 15.78372,-49.62914 41.0653,-52.13126z" fill="none" stroke="#000000" stroke-width="3.5" stroke-linecap="butt"/><path d="M233.84869,41.46817c19.56574,-1.93642 36.10157,3.31054 36.9338,11.71941c0.83223,8.40887 -14.35429,16.79539 -33.92004,18.73182c-19.56575,1.93642 -36.10157,-3.31054 -36.9338,-11.71941c-0.83223,-8.40887 14.35429,-16.79539 33.92004,-18.73182z" fill="#111111" stroke="none" stroke-width="0" stroke-linecap="butt"/><path d="M199.98451,34.43578l1.66956,54.09859" fill="none" stroke="#000000" stroke-width="3.5" stroke-linecap="round"/><path d="M214.14699,99.69152l-1.14637,-79.27251" fill="none" stroke="#000000" stroke-width="3.5" stroke-linecap="round"/><path d="M230.48916,109.12788l-4.08187,-95.39511" fill="none" stroke="#000000" stroke-width="3.5" stroke-linecap="round"/><path d="M243.52161,14.04874l7.73413,91.68403" fill="none" stroke="#000000" stroke-width="3.5" stroke-linecap="round"/><path d="M257.28257,17.71124l7.74438,81.63416" fill="none" stroke="#000000" stroke-width="3.5" stroke-linecap="round"/><path d="M277.34681,85.06259l-9.85706,-58.98262" fill="none" stroke="#000000" stroke-width="3.5" stroke-linecap="round"/><path d="M210.52286,26.41337c3.60219,-3.15444 0.00933,5.50039 2.07399,9.84261c1.99036,4.18594 9.65365,4.01521 12.22475,3.76075c8.1524,-0.80684 -1.61872,5.64336 -0.18635,20.11615c1.43237,14.47279 -4.01528,26.85939 -12.16768,27.66623c-8.1524,0.80684 -15.92238,-10.2716 -17.35475,-24.74439c-0.51203,-5.17354 11.47408,-33.19461 15.41004,-36.64135z" fill="#000000" stroke="#000000" stroke-width="0" stroke-linecap="butt"/><path d="M210.82174,26.04882c3.60218,-3.15445 0.00933,5.50039 2.07399,9.84261c1.99036,4.18595 9.65365,4.01521 12.22475,3.76075c8.15239,-0.80684 -1.61873,5.64336 -0.18636,20.11616c1.43237,14.47279 -4.01528,26.85938 -12.16767,27.66622c-8.15239,0.80684 -15.92238,-10.27159 -17.35475,-24.74438c-0.51203,-5.17355 11.47407,-33.19462 15.41004,-36.64135z" fill="none" stroke="#000000" stroke-width="3.5" stroke-linecap="butt"/><path d="M283.023,54.55522c1.43237,14.47279 -4.01527,26.85939 -12.16767,27.66623c-8.1524,0.80684 -15.92239,-10.2716 -17.35476,-24.74439c-1.43237,-14.47279 -12.2783,-18.88253 -4.1259,-19.68937c2.5711,-0.25446 10.11919,-1.5892 11.2504,-6.08409c1.17344,-4.66269 -4.04623,-12.44535 0.10441,-10.0582c4.53523,2.60835 21.7815,27.73628 22.29353,32.90983z" data-paper-data="{&quot;index&quot;:null}" fill="#000000" stroke="#000000" stroke-width="0" stroke-linecap="butt"/><path d="M282.65846,54.25633c1.43237,14.47279 -4.01528,26.85938 -12.16767,27.66622c-8.15239,0.80684 -15.92238,-10.27159 -17.35475,-24.74438c-1.43237,-14.47279 -12.2783,-18.88253 -4.12591,-19.68937c2.5711,-0.25446 10.11919,-1.58919 11.2504,-6.08409c1.17344,-4.66269 -4.04623,-12.44536 0.10441,-10.0582c4.53524,2.60834 21.7815,27.73627 22.29353,32.90983z" data-paper-data="{&quot;index&quot;:null}" fill="none" stroke="#000000" stroke-width="3.5" stroke-linecap="butt"/><path d="M240.90488,108.75739l-5.54004,-96.59065" fill="none" stroke="#000000" stroke-width="2.5" stroke-linecap="round"/><path d="M235.46629,108.26361l-4.28227,-94.03543" fill="none" stroke="#000000" stroke-width="2" stroke-linecap="round"/><path d="M238.61303,14.83278l7.59939,93.70713" fill="none" stroke="#000000" stroke-width="2" stroke-linecap="round"/><path d="M247.63493,14.60981l8.63077,90.5904" fill="none" stroke="#000000" stroke-width="2" stroke-linecap="round"/><path d="M251.98002,14.51473l8.13491,88.96467" fill="none" stroke="#000000" stroke-width="2" stroke-linecap="round"/><path d="M217.22134,45.75664l0.06358,-29.8179" fill="none" stroke="#000000" stroke-width="2" stroke-linecap="round"/><path d="M222.39193,16.77315l0.14024,25.10826" fill="none" stroke="#000000" stroke-width="2" stroke-linecap="round"/><path d="M201.19039,56.38719l3.64335,-27.49249" fill="none" stroke="#000000" stroke-width="2" stroke-linecap="round"/></g><path d="M222.6129,103.31131l-0.11082,-21.42659" fill="none" stroke="#000000" stroke-width="2.5" stroke-linecap="round"/><path d="M267.57126,77.28434l2.10452,17.87966" fill="none" stroke="#000000" stroke-width="2" stroke-linecap="round"/><path d="M218.17891,82.50767l-0.25373,21.12771" fill="none" stroke="#000000" stroke-width="2" stroke-linecap="round"/><path d="M225.74814,108.22052l0.16889,-35.52267" fill="none" stroke="#000000" stroke-width="2" stroke-linecap="round"/><path d="M204.9658,94.53414l-1.14904,-11.60994" fill="none" stroke="#000000" stroke-width="2" stroke-linecap="round"/><path d="M209.53728,100.11103l0.61486,-17.47887" fill="none" stroke="#000000" stroke-width="2" stroke-linecap="round"/></g><g data-paper-data="{&quot;index&quot;:null}" stroke-linecap="butt"><g><g><path d="M200.27341,309.55733l-6.27997,-63.61716l25.42177,3.00114l6.27997,63.61716z" fill="#252525" stroke="#000000" stroke-width="0"/><path d="M200.27341,309.55733l-6.27997,-63.61716l25.42177,3.00114l6.27997,63.61716z" fill="#252525" stroke="#000000" stroke-width="0"/><path d="M199.82522,283.54361c2.45162,9.97479 4.32408,3.15706 6.06913,3.36307c1.69654,0.20028 10.11984,13.42552 13.05707,1.48192c1.7836,-7.25265 -2.0667,-43.7743 -0.28328,-40.60881c1.46769,2.60508 6.5922,62.19999 6.80373,64.34283c0.25262,2.55908 -0.81493,-0.01796 -2.55432,0.01854c-4.40141,0.09236 -13.11203,-2.13352 -15.67412,-2.43599c-2.2973,-0.27121 -4.0085,12.0338 -7.50417,-7.99835c-1.94357,-11.1377 -4.81002,-47.93476 -5.1287,-51.16304c-0.45647,-4.62413 2.64432,22.54201 5.21466,32.99983z" fill="#141414" stroke="none" stroke-width="0"/><path d="M200.27341,309.55733l-6.27997,-63.61716l25.42177,3.00114l6.27997,63.61716z" fill="none" stroke="#000000" stroke-width="3.5"/><path d="M200.27341,309.55733l-6.27997,-63.61716l25.42177,3.00114l6.27997,63.61716z" fill="none" stroke="#000000" stroke-width="3.5"/></g><g><path d="M191.71918,280.24017l-1.27151,-12.88053l37.1409,4.38462l1.2715,12.88053z" fill="#252525" stroke="#000000" stroke-width="0"/><path d="M191.71918,280.24017l-1.27151,-12.88053l37.1409,4.38462l1.2715,12.88053z" fill="#252525" stroke="#000000" stroke-width="0"/><path d="M194.32763,275.29183c2.36435,2.24012 5.98476,1.24239 8.53425,1.54336c2.47863,0.29262 13.24755,4.04028 19.08369,2.24084c3.54394,-1.0927 2.45231,-8.52405 4.68643,-7.66201c1.8386,0.70941 1.91045,12.66156 1.95328,13.09543c0.18057,1.82924 -19.84706,-0.43346 -25.06949,-1.04999c-3.35633,-0.39623 -8.95715,-0.48847 -11.59813,-4.77258c-1.46837,-2.38193 -1.07338,-9.71707 -1.1379,-10.3707c-0.09242,-0.93624 1.06903,4.62706 3.54787,6.97565z" fill="#141414" stroke="none" stroke-width="0"/><path d="M191.71918,280.24017l-1.27151,-12.88053l37.1409,4.38462l1.2715,12.88053z" fill="none" stroke="#000000" stroke-width="3.5"/><path d="M191.71918,280.24017l-1.27151,-12.88053l37.1409,4.38462l1.2715,12.88053z" fill="none" stroke="#000000" stroke-width="3.5"/></g><g><path d="M191.52804,300.40441l-1.2715,-12.88054l41.96177,4.95375l1.2715,12.88054z" fill="#252525" stroke="#000000" stroke-width="0"/><path d="M191.52804,300.40441l-1.2715,-12.88054l41.96177,4.95375l1.2715,12.88054z" fill="#252525" stroke="#000000" stroke-width="0"/><path d="M194.54322,295.50409c2.64583,2.27334 6.75463,1.33326 9.63504,1.6733c2.80036,0.3306 14.93498,4.2395 21.56091,2.5333c4.02354,-1.03609 2.88488,-8.473 5.40123,-7.57764c2.07086,0.73683 1.99721,12.67181 2.04004,13.10568c0.18057,1.82924 -22.44797,-0.74052 -28.34827,-1.43707c-3.79199,-0.44766 -10.12717,-0.62658 -13.05945,-4.94509c-1.63032,-2.40105 -1.08838,-9.71884 -1.1529,-10.37246c-0.09242,-0.93624 1.14945,4.63655 3.92338,7.01998z" fill="#141414" stroke="none" stroke-width="0"/><path d="M191.52804,300.40441l-1.2715,-12.88054l41.96177,4.95375l1.2715,12.88054z" fill="none" stroke="#000000" stroke-width="3.5"/><path d="M191.52804,300.40441l-1.2715,-12.88054l41.96177,4.95375l1.2715,12.88054z" fill="none" stroke="#000000" stroke-width="3.5"/></g></g><g><path d="M186.83081,255.08735l-1.46036,-14.79371l43.33918,5.11635l1.46036,14.79372z" fill="#252525" stroke="#000000" stroke-width="0"/><path d="M186.83081,255.08735l-1.46036,-14.79371l43.33918,5.11635l1.46036,14.79372z" fill="#252525" stroke="#000000" stroke-width="0"/><path d="M189.88422,249.41082c2.75534,2.57755 6.98254,1.43976 9.95751,1.79097c2.89229,0.34145 15.45384,4.66858 22.26852,2.61504c4.13815,-1.24698 2.87771,-9.78294 5.48359,-8.78814c2.14453,0.81867 2.20648,14.54366 2.25567,15.04196c0.20739,2.10095 -23.16276,-0.54125 -29.25674,-1.26067c-3.91646,-0.46236 -10.453,-0.58054 -13.52744,-5.50585c-1.70936,-2.73843 -1.23493,-11.16063 -1.30904,-11.91134c-0.10615,-1.0753 1.23919,5.31568 4.12794,8.01803z" fill="#141414" stroke="none" stroke-width="0"/><path d="M186.83081,255.08735l-1.46036,-14.79371l43.33918,5.11635l1.46036,14.79372z" fill="none" stroke="#000000" stroke-width="3.5"/><path d="M186.83081,255.08735l-1.46036,-14.79371l43.33918,5.11635l1.46036,14.79372z" fill="none" stroke="#000000" stroke-width="3.5"/></g></g><g data-paper-data="{&quot;index&quot;:null}" stroke-linecap="butt"><g><g><path d="M247.16509,314.55845l6.27996,-63.61716l25.42177,-3.00114l-6.27996,63.61716z" fill="#252525" stroke="#000000" stroke-width="0"/><path d="M247.16509,314.55845l6.27996,-63.61716l25.42177,-3.00114l-6.27996,63.61716z" fill="#252525" stroke="#000000" stroke-width="0"/><path d="M278.24969,252.54378c-0.31868,3.22828 -3.18513,40.02535 -5.12869,51.16305c-3.49567,20.03215 -5.20688,7.72713 -7.50418,7.99834c-2.56209,0.30246 -11.27271,2.52835 -15.67411,2.43599c-1.73938,-0.0365 -2.80694,2.54054 -2.55432,-0.01854c0.21153,-2.14285 5.33604,-61.73775 6.80373,-64.34283c1.78342,-3.16549 -2.06688,33.35616 -0.28328,40.60881c2.93723,11.9436 11.36052,-1.28164 13.05706,-1.48192c1.74505,-0.20601 3.6175,6.61173 6.06912,-3.36306c2.57034,-10.45782 5.67113,-37.62396 5.21466,-32.99983z" fill="#141414" stroke="none" stroke-width="0"/><path d="M247.16509,314.55845l6.27996,-63.61716l25.42177,-3.00114l-6.27996,63.61716z" fill="none" stroke="#000000" stroke-width="3.5"/><path d="M247.16509,314.55845l6.27996,-63.61716l25.42177,-3.00114l-6.27996,63.61716z" fill="none" stroke="#000000" stroke-width="3.5"/></g><g><path d="M244.0002,286.62478l1.2715,-12.88053l37.14089,-4.38462l-1.27151,12.88053z" fill="#252525" stroke="#000000" stroke-width="0"/><path d="M244.0002,286.62478l1.2715,-12.88053l37.14089,-4.38462l-1.27151,12.88053z" fill="#252525" stroke="#000000" stroke-width="0"/><path d="M282.0805,270.31618c-0.06452,0.65362 0.33047,7.98875 -1.1379,10.37069c-2.64098,4.28411 -8.2418,4.37636 -11.59813,4.77258c-5.22244,0.61653 -25.25006,2.87923 -25.06949,1.04999c0.04283,-0.43387 0.11468,-12.38602 1.95328,-13.09543c2.23412,-0.86203 1.14249,6.56932 4.68643,7.66201c5.83614,1.79944 16.60505,-1.94822 19.08369,-2.24084c2.54949,-0.30097 6.16989,0.69676 8.53424,-1.54336c2.47884,-2.34859 3.64029,-7.91189 3.54787,-6.97565z" fill="#141414" stroke="none" stroke-width="0"/><path d="M244.0002,286.62478l1.2715,-12.88053l37.14089,-4.38462l-1.27151,12.88053z" fill="none" stroke="#000000" stroke-width="3.5"/><path d="M244.0002,286.62478l1.2715,-12.88053l37.14089,-4.38462l-1.27151,12.88053z" fill="none" stroke="#000000" stroke-width="3.5"/></g><g><path d="M239.37045,307.35815l1.27151,-12.88053l41.96177,-4.95375l-1.2715,12.88054z" fill="#252525" stroke="#000000" stroke-width="0"/><path d="M239.37045,307.35815l1.27151,-12.88053l41.96177,-4.95375l-1.2715,12.88054z" fill="#252525" stroke="#000000" stroke-width="0"/><path d="M282.24042,290.48411c-0.06452,0.65362 0.47743,7.97141 -1.15289,10.37246c-2.93228,4.31851 -9.26746,4.49743 -13.05945,4.94509c-5.9003,0.69655 -28.52883,3.26631 -28.34826,1.43707c0.04283,-0.43387 -0.03083,-12.36884 2.04004,-13.10567c2.51636,-0.89536 1.37769,6.54155 5.40123,7.57763c6.62593,1.7062 18.76055,-2.2027 21.56092,-2.5333c2.88042,-0.34004 6.98922,0.60004 9.63504,-1.6733c2.77393,-2.38343 4.0158,-7.95622 3.92338,-7.01998z" fill="#141414" stroke="none" stroke-width="0"/><path d="M239.37045,307.35815l1.27151,-12.88053l41.96177,-4.95375l-1.2715,12.88054z" fill="none" stroke="#000000" stroke-width="3.5"/><path d="M239.37045,307.35815l1.27151,-12.88053l41.96177,-4.95375l-1.2715,12.88054z" fill="none" stroke="#000000" stroke-width="3.5"/></g></g><g><path d="M242.69028,262.2037l1.46036,-14.79372l43.33917,-5.11635l-1.46036,14.79372z" fill="#252525" stroke="#000000" stroke-width="0"/><path d="M242.69028,262.2037l1.46036,-14.79372l43.33917,-5.11635l-1.46036,14.79372z" fill="#252525" stroke="#000000" stroke-width="0"/><path d="M287.10398,243.39279c-0.07411,0.75071 0.40032,9.1729 -1.30904,11.91133c-3.07444,4.92531 -9.61098,5.0435 -13.52744,5.50585c-6.09398,0.71942 -29.46413,3.36162 -29.25674,1.26067c0.04919,-0.49831 0.11114,-14.2233 2.25567,-15.04196c2.60587,-0.9948 1.34545,7.54116 5.4836,8.78814c6.81468,2.05354 19.37622,-2.27359 22.26851,-2.61504c2.97496,-0.3512 7.20218,0.78659 9.95751,-1.79096c2.88875,-2.70235 4.23408,-9.09333 4.12793,-8.01803z" fill="#141414" stroke="none" stroke-width="0"/><path d="M242.69028,262.2037l1.46036,-14.79372l43.33917,-5.11635l-1.46036,14.79372z" fill="none" stroke="#000000" stroke-width="3.5"/><path d="M242.69028,262.2037l1.46036,-14.79372l43.33917,-5.11635l-1.46036,14.79372z" fill="none" stroke="#000000" stroke-width="3.5"/></g></g><g stroke-linecap="butt"><path d="M197.3998,208.48505l0.3652,-9.94935l75.89357,0.59341l-0.36521,9.94935z" fill="#252525" stroke="#000000" stroke-width="0"/><path d="M197.3998,208.48505l0.3652,-9.94935l75.89357,0.59341l-0.36521,9.94935z" fill="#252525" stroke="#000000" stroke-width="0"/><path d="M197.3998,208.48505l0.3652,-9.94935l75.89357,0.59341l-0.36521,9.94935z" fill="none" stroke="#000000" stroke-width="3.5"/><path d="M203.95345,204.42712c4.37482,1.56725 12.1045,0.51355 17.31412,0.55429c5.06485,0.0396 26.49356,2.1431 38.99837,0.29551c7.59343,-1.12192 7.06266,-6.83491 11.48859,-6.33258c3.64237,0.4134 1.00895,9.72994 0.99665,10.06507c-0.05186,1.41297 -40.99992,1.17226 -51.67142,1.08881c-6.85833,-0.05363 -18.43545,0.30064 -22.90734,-2.83976c-2.48633,-1.74604 0.0391,-7.49709 0.05763,-8.00198c0.02654,-0.72318 1.13673,3.5275 5.7234,5.17064z" fill="#141414" stroke="none" stroke-width="0"/><path d="M197.3998,208.48505l0.3652,-9.94935l75.89357,0.59341l-0.36521,9.94935z" fill="none" stroke="#000000" stroke-width="3.5"/></g><g stroke-linecap="butt"><g><path d="M165.45209,335.9046l0.30272,-29.3689l62.90794,1.75167l-0.30272,29.36891z" fill="#252525" stroke="#000000" stroke-width="0"/><path d="M165.45209,335.9046l0.30272,-29.3689l62.90794,1.75167l-0.30272,29.36891z" fill="#252525" stroke="#000000" stroke-width="0"/><path d="M165.45209,335.9046l0.30272,-29.3689l62.90794,1.75167l-0.30272,29.36891z" fill="none" stroke="#000000" stroke-width="3.5"/><path d="M166.1403,308.66333c0.02201,-2.13472 0.94223,10.41263 4.74411,15.26291c3.62628,4.62626 10.03339,1.51593 14.35162,1.63618c4.19824,0.11692 21.96043,6.3261 32.32562,0.87232c6.29417,-3.31175 5.85422,-20.17558 9.52286,-18.69278c3.01915,1.22028 0.83631,28.72123 0.82611,29.71048c-0.04299,4.17085 -33.98471,0.60326 -42.83028,0.35695c-5.68484,-0.1583 -15.28107,3.74449 -18.98781,-5.52548c-2.06092,-5.15402 0.0324,-22.13023 0.04776,-23.62057z" fill="#141414" stroke="none" stroke-width="0"/><path d="M165.45209,335.9046l0.30272,-29.3689l62.90794,1.75167l-0.30272,29.36891z" fill="none" stroke="#000000" stroke-width="3.5"/></g><g><path d="M147.22152,343.52338l0.14835,-29.3689l30.8288,1.75167l-0.14835,29.36892z" fill="#252525" stroke="#000000" stroke-width="0"/><path d="M147.22152,343.52338l0.14835,-29.3689l30.8288,1.75167l-0.14835,29.36892z" fill="#6c6c6c" stroke="#000000" stroke-width="0"/><path d="M147.22152,343.52338l0.14835,-29.3689l30.8288,1.75167l-0.14835,29.36892z" fill="none" stroke="#000000" stroke-width="3.5"/><path d="M149.88369,331.54502c1.7771,4.62625 4.91698,1.51593 7.03319,1.63617c2.0574,0.11692 10.76197,6.3261 15.84156,0.87232c3.08453,-3.31174 2.86893,-20.17557 4.66679,-18.69277c1.47957,1.22028 0.40985,28.72123 0.40485,29.71048c-0.02108,4.17085 -16.65462,0.60327 -20.9895,0.35696c-2.78593,-0.15831 -7.48868,3.74448 -9.30521,-5.52549c-1.00998,-5.15403 0.01589,-22.13023 0.02341,-23.62057c0.01079,-2.13471 0.46175,10.41263 2.32491,15.2629z" fill="#545454" stroke="none" stroke-width="0"/><path d="M147.22152,343.52338l0.14835,-29.3689l30.8288,1.75167l-0.14835,29.36892z" fill="none" stroke="#000000" stroke-width="3.5"/></g><g><path d="M193.56907,346.2217l0.14835,-29.3689l30.8288,1.75167l-0.14836,29.36892z" fill="#252525" stroke="#000000" stroke-width="0"/><path d="M193.56907,346.2217l0.14835,-29.3689l30.8288,1.75167l-0.14836,29.36892z" fill="#6c6c6c" stroke="#000000" stroke-width="0"/><path d="M193.56907,346.2217l0.14835,-29.3689l30.8288,1.75167l-0.14836,29.36892z" fill="none" stroke="#000000" stroke-width="3.5"/><path d="M193.90634,318.98045c0.01078,-2.13471 0.46174,10.41263 2.3249,15.2629c1.77711,4.62626 4.917,1.51594 7.0332,1.63618c2.05739,0.11691 10.76196,6.32609 15.84155,0.87231c3.08454,-3.31174 2.86893,-20.17557 4.6668,-18.69277c1.47957,1.22027 0.40985,28.72123 0.40485,29.71048c-0.02107,4.17085 -16.65461,0.60326 -20.98949,0.35695c-2.78593,-0.15831 -7.48869,3.74448 -9.30522,-5.52549c-1.00997,-5.15403 0.01589,-22.13023 0.02341,-23.62057z" fill="#545454" stroke="none" stroke-width="0"/><path d="M193.56907,346.2217l0.14835,-29.3689l30.8288,1.75167l-0.14836,29.36892z" fill="none" stroke="#000000" stroke-width="3.5"/></g><g><path d="M168.17315,346.06297l0.14835,-29.3689l30.8288,1.75167l-0.14835,29.36892z" fill="#252525" stroke="#000000" stroke-width="0"/><path d="M168.17315,346.06297l0.14835,-29.3689l30.8288,1.75167l-0.14835,29.36892z" fill="#6c6c6c" stroke="#000000" stroke-width="0"/><path d="M168.17315,346.06297l0.14835,-29.3689l30.8288,1.75167l-0.14835,29.36892z" fill="none" stroke="#000000" stroke-width="3.5"/><path d="M168.51042,318.82172c0.01077,-2.13471 0.46174,10.41264 2.3249,15.26291c1.7771,4.62626 4.91699,1.51593 7.03319,1.63617c2.05739,0.11691 10.76196,6.3261 15.84155,0.87232c3.08454,-3.31174 2.86893,-20.17558 4.6668,-18.69278c1.47956,1.22027 0.40985,28.72123 0.40485,29.71048c-0.02107,4.17085 -16.65461,0.60326 -20.98949,0.35695c-2.78592,-0.15831 -7.48868,3.74448 -9.30521,-5.52549c-1.00997,-5.15403 0.01589,-22.13023 0.02341,-23.62057z" fill="#545454" stroke="none" stroke-width="0"/><path d="M168.17315,346.06297l0.14835,-29.3689l30.8288,1.75167l-0.14835,29.36892z" fill="none" stroke="#000000" stroke-width="3.5"/></g></g><g data-paper-data="{&quot;index&quot;:null}" stroke-linecap="butt"><g><path d="M242.41378,337.65628l-0.30272,-29.36892l62.90794,-1.75166l0.30272,29.3689z" fill="#252525" stroke="#000000" stroke-width="0"/><path d="M242.41378,337.65628l-0.30272,-29.36892l62.90794,-1.75166l0.30272,29.3689z" fill="#252525" stroke="#000000" stroke-width="0"/><path d="M242.41378,337.65628l-0.30272,-29.36892l62.90794,-1.75166l0.30272,29.3689z" fill="none" stroke="#000000" stroke-width="3.5"/><path d="M304.63352,308.66333c0.01536,1.49034 2.10868,18.46655 0.04777,23.62057c-3.70673,9.26997 -13.30298,5.36718 -18.98782,5.52548c-8.84557,0.24631 -42.78728,3.8139 -42.83027,-0.35695c-0.0102,-0.98925 -2.19304,-28.4902 0.82611,-29.71048c3.66864,-1.4828 3.22869,15.38103 9.52286,18.69278c10.36519,5.45378 28.12738,-0.7554 32.32561,-0.87232c4.31824,-0.12025 10.72534,2.99008 14.35162,-1.63618c3.80188,-4.85028 4.7221,-17.39763 4.74411,-15.26291z" fill="#141414" stroke="none" stroke-width="0"/><path d="M242.41378,337.65628l-0.30272,-29.36892l62.90794,-1.75166l0.30272,29.3689z" fill="none" stroke="#000000" stroke-width="3.5"/></g><g><path d="M292.72349,345.27506l-0.14835,-29.36892l30.8288,-1.75167l0.14835,29.3689z" fill="#252525" stroke="#000000" stroke-width="0"/><path d="M292.72349,345.27506l-0.14835,-29.36892l30.8288,-1.75167l0.14835,29.3689z" fill="#6c6c6c" stroke="#000000" stroke-width="0"/><path d="M292.72349,345.27506l-0.14835,-29.36892l30.8288,-1.75167l0.14835,29.3689z" fill="none" stroke="#000000" stroke-width="3.5"/><path d="M323.21503,316.28211c0.00752,1.49034 1.03339,18.46654 0.02341,23.62057c-1.81653,9.26997 -6.51929,5.36719 -9.30522,5.52549c-4.33488,0.24631 -20.96842,3.81389 -20.98949,-0.35696c-0.005,-0.98925 -1.07472,-28.4902 0.40485,-29.71048c1.79786,-1.4828 1.58226,15.38103 4.66679,18.69278c5.07959,5.45378 13.78417,-0.75541 15.84156,-0.87232c2.1162,-0.12024 5.25608,2.99009 7.03319,-1.63617c1.86316,-4.85027 2.31413,-17.39762 2.32491,-15.26291z" fill="#545454" stroke="none" stroke-width="0"/><path d="M292.72349,345.27506l-0.14835,-29.36892l30.8288,-1.75167l0.14835,29.3689z" fill="none" stroke="#000000" stroke-width="3.5"/></g><g><path d="M246.37594,347.97338l-0.14835,-29.36892l30.82879,-1.75167l0.14836,29.36891z" fill="#252525" stroke="#000000" stroke-width="0"/><path d="M246.37594,347.97338l-0.14835,-29.36892l30.82879,-1.75167l0.14836,29.36891z" fill="#6c6c6c" stroke="#000000" stroke-width="0"/><path d="M246.37594,347.97338l-0.14835,-29.36892l30.82879,-1.75167l0.14836,29.36891z" fill="none" stroke="#000000" stroke-width="3.5"/><path d="M276.86748,318.98044c0.00752,1.49034 1.03338,18.46654 0.02341,23.62057c-1.81653,9.26997 -6.51929,5.36718 -9.30522,5.52549c-4.33488,0.24631 -20.96842,3.8139 -20.98949,-0.35695c-0.005,-0.98925 -1.07472,-28.49021 0.40485,-29.71048c1.79787,-1.4828 1.58226,15.38103 4.6668,18.69277c5.07959,5.45378 13.78416,-0.7554 15.84156,-0.87231c2.1162,-0.12024 5.25608,2.99008 7.03319,-1.63618c1.86316,-4.85027 2.31413,-17.39761 2.32491,-15.2629z" fill="#545454" stroke="none" stroke-width="0"/><path d="M246.37594,347.97338l-0.14835,-29.36892l30.82879,-1.75167l0.14836,29.36891z" fill="none" stroke="#000000" stroke-width="3.5"/></g><g><path d="M271.77186,347.81465l-0.14835,-29.36892l30.8288,-1.75167l0.14835,29.3689z" fill="#252525" stroke="#000000" stroke-width="0"/><path d="M271.77186,347.81465l-0.14835,-29.36892l30.8288,-1.75167l0.14835,29.3689z" fill="#6c6c6c" stroke="#000000" stroke-width="0"/><path d="M271.77186,347.81465l-0.14835,-29.36892l30.8288,-1.75167l0.14835,29.3689z" fill="none" stroke="#000000" stroke-width="3.5"/><path d="M302.2634,318.82169c0.00752,1.49034 1.03338,18.46654 0.02341,23.62057c-1.81653,9.26997 -6.51929,5.36718 -9.30522,5.52549c-4.33488,0.24631 -20.96842,3.8139 -20.98949,-0.35695c-0.005,-0.98925 -1.07471,-28.49021 0.40485,-29.71048c1.79787,-1.4828 1.58226,15.38103 4.66679,18.69277c5.07959,5.45378 13.78416,-0.7554 15.84156,-0.87231c2.1162,-0.12024 5.25608,2.99008 7.03319,-1.63618c1.86316,-4.85027 2.31413,-17.39761 2.32491,-15.2629z" fill="#545454" stroke="none" stroke-width="0"/><path d="M271.77186,347.81465l-0.14835,-29.36892l30.8288,-1.75167l0.14835,29.3689z" fill="none" stroke="#000000" stroke-width="3.5"/></g></g><g><g stroke-linecap="butt"><g><g><path d="M147.7095,118.94128l41.40721,-10.80494l6.31933,23.64088l-41.4072,10.80493z" fill="#252525" stroke="#000000" stroke-width="0"/><path d="M147.7095,118.94128l41.40721,-10.80494l6.31933,23.64088l-41.4072,10.80493z" fill="#252525" stroke="#000000" stroke-width="0"/><path d="M186.17387,109.06801c3.00975,-0.78537 -14.53419,4.21441 -20.83459,7.40652c-6.0094,3.04467 -0.73375,4.23014 -0.29996,5.85294c0.42173,1.57769 -5.84277,10.37669 3.2864,12.13766c5.5436,1.06933 29.23414,-5.35924 27.65811,-3.46742c-1.29703,1.5569 -40.33593,10.98048 -41.73067,11.34443c-1.66566,0.43464 -0.25603,-0.75167 -0.85368,-2.3501c-1.5123,-4.04474 -2.85921,-12.23972 -3.4961,-14.62233c-0.57106,-2.13636 -9.54352,-2.74009 2.99515,-7.5401c6.9714,-2.66877 31.17411,-8.21332 33.27534,-8.76163z" fill="#141414" stroke="none" stroke-width="0"/><path d="M147.7095,118.94128l41.40721,-10.80494l6.31933,23.64088l-41.4072,10.80493z" fill="none" stroke="#000000" stroke-width="3.5"/><path d="M147.7095,118.94128l41.40721,-10.80494l6.31933,23.64088l-41.4072,10.80493z" fill="none" stroke="#000000" stroke-width="3.5"/></g><g><path d="M164.92783,108.75106l8.3837,-2.18768l9.23247,34.53904l-8.3837,2.18767z" fill="#252525" stroke="#000000" stroke-width="0"/><path d="M164.92783,108.75106l8.3837,-2.18768l9.23247,34.53904l-8.3837,2.18767z" fill="#252525" stroke="#000000" stroke-width="0"/><path d="M172.76718,106.94466c0.60938,-0.15902 -2.81007,1.34955 -3.59888,3.81707c-0.75238,2.35357 1.12151,5.60782 1.75525,7.97871c0.61613,2.30499 1.60078,12.51506 4.75206,17.74586c1.9136,3.17635 6.63263,1.58456 6.77913,3.70941c0.12056,1.74867 -8.02368,2.75861 -8.30607,2.8323c-1.19062,0.31068 -6.23854,-18.30591 -7.53673,-23.1625c-0.83431,-3.12122 -2.61537,-8.28474 -0.55724,-11.05438c1.1443,-1.5399 6.28706,-1.75546 6.71249,-1.86648z" fill="#141414" stroke="none" stroke-width="0"/><path d="M164.92783,108.75106l8.3837,-2.18768l9.23247,34.53904l-8.3837,2.18767z" fill="none" stroke="#000000" stroke-width="3.5"/><path d="M164.92783,108.75106l8.3837,-2.18768l9.23247,34.53904l-8.3837,2.18767z" fill="none" stroke="#000000" stroke-width="3.5"/></g><g><path d="M151.08499,110.16732l8.3837,-2.18767l10.43086,39.02219l-8.38369,2.18768z" fill="#252525" stroke="#000000" stroke-width="0"/><path d="M151.08499,110.16732l8.3837,-2.18767l10.43086,39.02219l-8.38369,2.18768z" fill="#252525" stroke="#000000" stroke-width="0"/><path d="M155.42655,112.55623c-0.68242,2.61532 1.31287,6.32376 2.02889,9.00239c0.6961,2.60419 2.02022,14.08426 5.36784,20.04953c2.03282,3.62235 6.74016,1.98683 6.95681,4.37415c0.17831,1.96467 -8.00212,2.83929 -8.2845,2.91298c-1.19062,0.31068 -6.88508,-20.7246 -8.35177,-26.21157c-0.9426,-3.52634 -2.90623,-9.37279 -0.9205,-12.41333c1.10405,-1.69051 6.28335,-1.7694 6.70878,-1.88043c0.60938,-0.15901 -2.79009,1.42431 -3.50554,4.16628z" fill="#141414" stroke="none" stroke-width="0"/><path d="M151.08499,110.16732l8.3837,-2.18767l10.43086,39.02219l-8.38369,2.18768z" fill="none" stroke="#000000" stroke-width="3.5"/><path d="M151.08499,110.16732l8.3837,-2.18767l10.43086,39.02219l-8.38369,2.18768z" fill="none" stroke="#000000" stroke-width="3.5"/></g></g><g><path d="M180.50732,102.26455l9.62896,-2.51261l10.77325,40.3031l-9.62895,2.51261z" fill="#252525" stroke="#000000" stroke-width="0"/><path d="M180.50732,102.26455l9.62896,-2.51261l10.77325,40.3031l-9.62895,2.51261z" fill="#252525" stroke="#000000" stroke-width="0"/><path d="M189.51218,100.19393c0.69989,-0.18263 -3.22464,1.56057 -4.12024,4.43341c-0.85425,2.74015 1.31514,6.54199 2.05466,9.30855c0.71896,2.68967 1.89784,14.59582 5.54496,20.70743c2.21468,3.71121 7.63301,1.8768 7.81118,4.35438c0.14664,2.03895 -9.21239,3.17976 -9.53673,3.26439c-1.36747,0.35683 -7.25659,-21.36693 -8.77143,-27.034c-0.97355,-3.6421 -3.04497,-9.66914 -0.69137,-12.88846c1.30859,-1.78991 7.22039,-2.01818 7.70901,-2.14569z" fill="#141414" stroke="none" stroke-width="0"/><path d="M180.50732,102.26455l9.62896,-2.51261l10.77325,40.3031l-9.62895,2.51261z" fill="none" stroke="#000000" stroke-width="3.5"/><path d="M180.50732,102.26455l9.62896,-2.51261l10.77325,40.3031l-9.62895,2.51261z" fill="none" stroke="#000000" stroke-width="3.5"/></g></g><path d="M147.98899,123.448l-13.49256,31.94884" fill="none" stroke="#000000" stroke-width="2" stroke-linecap="round"/><path d="M149.59491,129.43678l-3.34668,12.2891" fill="none" stroke="#000000" stroke-width="2" stroke-linecap="round"/><path d="M134.08419,170.25719l2.7778,-7.14574l15.75485,-22.12857" fill="none" stroke="#000000" stroke-width="2" stroke-linecap="round"/><path d="M128.61094,154.89711l6.72835,-20.98826l10.33665,-12.79055" fill="none" stroke="#000000" stroke-width="2" stroke-linecap="round"/></g><g><g data-paper-data="{&quot;index&quot;:null}" stroke-linecap="butt"><g><g><path d="M318.95561,148.47956l-39.16412,-17.24745l9.9957,-22.33632l39.16412,17.24746z" fill="#252525" stroke="#000000" stroke-width="0"/><path d="M318.95561,148.47956l-39.16412,-17.24745l9.9957,-22.33632l39.16412,17.24746z" fill="#252525" stroke="#000000" stroke-width="0"/><path d="M292.54458,110.28323c1.9874,0.87523 25.00153,10.19526 31.46026,13.93792c11.6166,6.73147 2.66221,5.90176 1.75893,7.92024c-1.0074,2.25113 -3.6394,10.12795 -5.77522,13.88099c-0.84406,1.48315 0.35914,2.87838 -1.21629,2.18459c-1.31919,-0.58095 -38.3646,-16.08827 -39.39775,-17.83149c-1.25539,-2.11822 21.11261,7.99321 26.75571,7.81837c9.29299,-0.28793 4.50629,-9.97059 5.17338,-11.46122c0.68614,-1.53325 6.08314,-1.86534 0.63391,-5.82624c-5.7131,-4.15271 -22.23964,-11.87679 -19.39293,-10.62313z" fill="#141414" stroke="none" stroke-width="0"/><path d="M318.95561,148.47956l-39.16412,-17.24745l9.9957,-22.33632l39.16412,17.24746z" fill="none" stroke="#000000" stroke-width="3.5"/><path d="M318.95561,148.47956l-39.16412,-17.24745l9.9957,-22.33632l39.16412,17.24746z" fill="none" stroke="#000000" stroke-width="3.5"/></g><g><path d="M298.96742,145.9795l-7.92953,-3.49208l14.60359,-32.63309l7.92954,3.49209z" fill="#252525" stroke="#000000" stroke-width="0"/><path d="M298.96742,145.9795l-7.92953,-3.49208l14.60359,-32.63309l7.92954,3.49209z" fill="#252525" stroke="#000000" stroke-width="0"/><path d="M306.11832,110.31725c0.40239,0.17721 5.44555,1.20725 6.33062,2.90942c1.59188,3.0615 -0.98708,7.8764 -2.30676,10.82538c-2.05343,4.58858 -9.99548,22.16649 -11.1216,21.67056c-0.2671,-0.11763 -8.14737,-2.4089 -7.75047,-4.11619c0.48229,-2.07458 4.88841,0.24687 7.28244,-2.58505c3.94244,-4.66358 6.53699,-14.58745 7.51158,-16.76525c1.00245,-2.24006 3.36963,-5.15519 3.0008,-7.59841c-0.38669,-2.56152 -3.52298,-4.59429 -2.94661,-4.34045z" fill="#141414" stroke="none" stroke-width="0"/><path d="M298.96742,145.9795l-7.92953,-3.49208l14.60359,-32.63309l7.92954,3.49209z" fill="none" stroke="#000000" stroke-width="3.5"/><path d="M298.96742,145.9795l-7.92953,-3.49208l14.60359,-32.63309l7.92954,3.49209z" fill="none" stroke="#000000" stroke-width="3.5"/></g><g><path d="M310.5138,153.81325l-7.92955,-3.49209l16.49913,-36.86887l7.92954,3.49208z" fill="#252525" stroke="#000000" stroke-width="0"/><path d="M310.5138,153.81325l-7.92955,-3.49209l16.49913,-36.86887l7.92954,3.49208z" fill="#252525" stroke="#000000" stroke-width="0"/><path d="M319.54796,113.94265c0.40239,0.17721 5.50333,1.07812 6.32472,2.92259c1.47734,3.31744 -1.39036,8.77758 -2.88135,12.10933c-2.31997,5.18419 -11.28468,25.04732 -12.4108,24.55139c-0.2671,-0.11763 -8.20459,-2.28104 -7.71636,-4.19241c0.59326,-2.32256 4.98091,0.0402 7.5635,-3.2131c4.25299,-5.35752 7.38451,-16.48132 8.4856,-18.94181c1.13256,-2.53082 3.69178,-5.87507 3.43363,-8.5656c-0.27067,-2.82081 -3.37532,-4.92422 -2.79895,-4.67039z" fill="#141414" stroke="none" stroke-width="0"/><path d="M310.5138,153.81325l-7.92955,-3.49209l16.49913,-36.86887l7.92954,3.49208z" fill="none" stroke="#000000" stroke-width="3.5"/><path d="M310.5138,153.81325l-7.92955,-3.49209l16.49913,-36.86887l7.92954,3.49208z" fill="none" stroke="#000000" stroke-width="3.5"/></g></g><g><path d="M282.17949,142.54575l-9.10734,-4.01077l17.04072,-38.07908l9.10733,4.01077z" fill="#252525" stroke="#000000" stroke-width="0"/><path d="M282.17949,142.54575l-9.10734,-4.01077l17.04072,-38.07908l9.10733,4.01077z" fill="#252525" stroke="#000000" stroke-width="0"/><path d="M290.65882,100.99145c0.46215,0.20353 6.26256,1.36832 7.27008,3.34343c1.81212,3.55242 -1.19071,9.17372 -2.73063,12.61484c-2.39612,5.35435 -11.66243,25.86628 -12.95581,25.29668c-0.30677,-0.1351 -9.36561,-2.74861 -8.89683,-4.73835c0.56961,-2.41779 5.62759,0.25431 8.40386,-3.05782c4.57194,-5.4544 7.62779,-17.02194 8.76502,-19.56319c1.16974,-2.6139 3.91568,-6.0227 3.50772,-8.86378c-0.42772,-2.97866 -4.02537,-5.32334 -3.3634,-5.03181z" fill="#141414" stroke="none" stroke-width="0"/><path d="M282.17949,142.54575l-9.10734,-4.01077l17.04072,-38.07908l9.10733,4.01077z" fill="none" stroke="#000000" stroke-width="3.5"/><path d="M282.17949,142.54575l-9.10734,-4.01077l17.04072,-38.07908l9.10733,4.01077z" fill="none" stroke="#000000" stroke-width="3.5"/></g></g><path d="M343.37771,171.61499l-15.74145,-41.62513" fill="none" stroke="#000000" stroke-width="2" stroke-linecap="round"/><path d="M334.78845,188.79709l-9.15381,-52.24182" fill="none" stroke="#000000" stroke-width="2" stroke-linecap="round"/><path d="M322.07325,143.79596l1.58359,5.79684" fill="none" stroke="#000000" stroke-width="2" stroke-linecap="round"/><path d="M329.63826,128.19704l0.88808,40.71841l-0.85987,18.25238" fill="none" stroke="#000000" stroke-width="2" stroke-linecap="round"/></g></g></g></svg>