<svg version="1.1" xmlns="http://www.w3.org/2000/svg" xmlns:xlink="http://www.w3.org/1999/xlink" width="331.36577" height="500.58968" viewBox="0,0,331.36577,500.58968"><g transform="translate(-60.52795,-76.96134)"><g data-paper-data="{&quot;isPaintingLayer&quot;:true}" fill-rule="nonzero" stroke-linejoin="miter" stroke-miterlimit="10" stroke-dasharray="" stroke-dashoffset="0" style="mix-blend-mode: normal"><g fill="none" stroke="#000000" stroke-width="2" stroke-linecap="round"><path d="M268.37552,194.37382l14.04645,37.70362"/><path d="M261.00079,229.16764l23.16432,-37.4572l5.42144,41.89292"/></g><g fill="none" stroke="#000000" stroke-width="2" stroke-linecap="round"><g><path d="M182.61827,232.07744l14.04645,-37.70362" data-paper-data="{&quot;index&quot;:null}"/><path d="M184.09684,195.1131l-2.21786,17.00359"/></g><path d="M172.28638,189.73901l9.85715,40.9072"/><path d="M169.8221,186.28901l-0.49287,30.06432"/></g><g data-paper-data="{&quot;index&quot;:null}" stroke-linecap="butt"><g><g><path d="M259.34168,433.97507l-17.20823,-60.8887l34.87613,-9.63299l17.20823,60.8887z" fill="#252525" stroke="#000000" stroke-width="0"/><path d="M259.34168,433.97507l-17.20823,-60.8887l34.87613,-9.63299l17.20823,60.8887z" fill="#252525" stroke="#000000" stroke-width="0"/><path d="M278.02379,367.90331c0.87325,3.08982 11.91468,38.10261 13.72844,48.98976c3.26221,19.5815 -4.22215,8.5915 -7.37382,9.46201c-3.51494,0.97085 -14.97319,5.38593 -21.26282,6.48427c-2.48559,0.43405 -2.94351,3.11936 -3.63574,0.67005c-0.57963,-2.05094 -17.77705,-58.88584 -16.76231,-61.7049c1.23306,-3.42551 10.76393,31.59571 16.27608,37.86474c9.07736,10.3238 15.60995,-4.24942 17.93745,-4.89229c2.39403,-0.66125 7.85375,5.17918 7.23926,-4.76253c-0.64424,-10.42313 -7.39733,-36.53691 -6.14652,-32.11111z" fill="#141414" stroke="none" stroke-width="0"/><path d="M259.34168,433.97507l-17.20823,-60.8887l34.87613,-9.63299l17.20823,60.8887z" fill="none" stroke="#000000" stroke-width="3.5"/><path d="M259.34168,433.97507l-17.20823,-60.8887l34.87613,-9.63299l17.20823,60.8887z" fill="none" stroke="#000000" stroke-width="3.5"/></g><g><path d="M243.37366,408.83296l-3.48413,-12.32809l50.95359,-14.07368l3.48413,12.32811z" fill="#252525" stroke="#000000" stroke-width="0"/><path d="M243.37366,408.83296l-3.48413,-12.32809l50.95359,-14.07368l3.48413,12.32811z" fill="#252525" stroke="#000000" stroke-width="0"/><path d="M290.76429,383.41065c0.17681,0.62558 3.75046,7.34502 2.6431,9.95662c-1.99168,4.69719 -9.90913,6.29006 -14.51369,7.56185c-7.16466,1.97892 -34.6823,9.47334 -35.17711,7.72256c-0.11735,-0.41526 -4.92415,-11.55666 -2.604,-12.71152c2.81927,-1.4033 4.32085,5.80566 9.8034,5.8689c9.02863,0.10414 22.78544,-6.28088 26.18586,-7.2201c3.49764,-0.96607 9.0498,-1.01177 11.48806,-3.7325c2.55632,-2.85246 1.92114,-8.3419 2.17438,-7.44581z" fill="#141414" stroke="none" stroke-width="0"/><path d="M243.37366,408.83296l-3.48413,-12.32809l50.95359,-14.07368l3.48413,12.32811z" fill="none" stroke="#000000" stroke-width="3.5"/><path d="M243.37366,408.83296l-3.48413,-12.32809l50.95359,-14.07368l3.48413,12.32811z" fill="none" stroke="#000000" stroke-width="3.5"/></g><g><path d="M245.31303,429.37215l-3.48413,-12.32811l57.56737,-15.90045l3.48414,12.32811z" fill="#252525" stroke="#000000" stroke-width="0"/><path d="M245.31303,429.37215l-3.48413,-12.32811l57.56737,-15.90045l3.48414,12.32811z" fill="#252525" stroke="#000000" stroke-width="0"/><path d="M299.27462,402.13489c0.17681,0.62558 3.95206,7.28934 2.62252,9.96232c-2.39131,4.80758 -11.31623,6.6787 -16.51846,8.11558c-8.09463,2.23578 -39.18046,10.71577 -39.67527,8.96497c-0.11735,-0.41526 -5.12379,-11.50153 -2.48499,-12.7444c3.20646,-1.51026 4.64353,5.71653 10.78405,5.59804c10.11214,-0.19514 25.74255,-7.09765 29.58438,-8.1588c3.95164,-1.09147 10.17383,-1.32223 12.99824,-4.1496c2.96117,-2.96429 2.4363,-8.4842 2.68954,-7.58811z" fill="#141414" stroke="none" stroke-width="0"/><path d="M245.31303,429.37215l-3.48413,-12.32811l57.56737,-15.90045l3.48414,12.32811z" fill="none" stroke="#000000" stroke-width="3.5"/><path d="M245.31303,429.37215l-3.48413,-12.32811l57.56737,-15.90045l3.48414,12.32811z" fill="none" stroke="#000000" stroke-width="3.5"/></g></g><g><path d="M231.48309,386.46039l-4.00164,-14.15923l59.45703,-16.42237l4.00166,14.15923z" fill="#252525" stroke="#000000" stroke-width="0"/><path d="M231.48309,386.46039l-4.00164,-14.15923l59.45703,-16.42237l4.00166,14.15923z" fill="#252525" stroke="#000000" stroke-width="0"/><path d="M286.84187,357.00542c0.20307,0.71851 4.33601,8.42813 3.03276,11.43631c-2.34403,5.4105 -11.57989,7.27927 -16.95289,8.76333c-8.36034,2.30918 -40.4698,11.05612 -41.0381,9.04528c-0.13479,-0.47693 -5.68378,-13.26539 -2.97396,-14.60422c3.29277,-1.62687 5.00828,6.6554 11.3982,6.70231c10.52287,0.07729 26.58793,-7.32929 30.55586,-8.42527c4.08135,-1.12729 10.55293,-1.20594 13.40794,-4.34587c2.99327,-3.29195 2.27931,-9.60107 2.57017,-8.57188z" fill="#141414" stroke="none" stroke-width="0"/><path d="M231.48309,386.46039l-4.00164,-14.15923l59.45703,-16.42237l4.00166,14.15923z" fill="none" stroke="#000000" stroke-width="3.5"/><path d="M231.48309,386.46039l-4.00164,-14.15923l59.45703,-16.42237l4.00166,14.15923z" fill="none" stroke="#000000" stroke-width="3.5"/></g></g><g stroke-linecap="butt"><g><g><path d="M165.54218,423.97244l17.20821,-60.8887l34.87613,9.63299l-17.20823,60.8887z" fill="#252525" stroke="#000000" stroke-width="0"/><path d="M165.54218,423.97244l17.20821,-60.8887l34.87613,9.63299l-17.20823,60.8887z" fill="#252525" stroke="#000000" stroke-width="0"/><path d="M181.73617,367.53367c1.25081,-4.4258 -5.50229,21.68798 -6.14653,32.11111c-0.6145,9.94171 4.84524,4.10128 7.23927,4.76253c2.32751,0.64287 8.8601,15.21609 17.93745,4.89229c5.51215,-6.26903 15.04302,-41.29026 16.27606,-37.86474c1.01476,2.81908 -16.18266,59.65397 -16.76229,61.70492c-0.69222,2.44932 -1.15015,-0.23601 -3.63574,-0.67006c-6.28963,-1.09834 -17.74788,-5.51342 -21.2628,-6.48427c-3.15167,-0.87051 -10.63601,10.11949 -7.37382,-9.46201c1.81375,-10.88715 12.85519,-45.89994 13.72844,-48.98976z" fill="#141414" stroke="none" stroke-width="0"/><path d="M165.54218,423.97244l17.20821,-60.8887l34.87613,9.63299l-17.20823,60.8887z" fill="none" stroke="#000000" stroke-width="3.5"/><path d="M165.54218,423.97244l17.20821,-60.8887l34.87613,9.63299l-17.20823,60.8887z" fill="none" stroke="#000000" stroke-width="3.5"/></g><g><path d="M165.43272,394.38965l3.48413,-12.32811l50.95359,14.07368l-3.48414,12.32809z" fill="#252525" stroke="#000000" stroke-width="0"/><path d="M165.43272,394.38965l3.48413,-12.32811l50.95359,14.07368l-3.48414,12.32809z" fill="#252525" stroke="#000000" stroke-width="0"/><path d="M168.9957,383.04102c0.25324,-0.89609 -0.38196,4.59335 2.17436,7.44581c2.43826,2.72072 7.99042,2.76643 11.48807,3.7325c3.40045,0.93922 17.15726,7.32425 26.18587,7.22011c5.48255,-0.06322 6.98413,-7.2722 9.8034,-5.8689c2.32015,1.15485 -2.48666,12.29626 -2.60402,12.71152c-0.4948,1.75078 -28.01246,-5.74364 -35.17711,-7.72256c-4.60454,-1.27181 -12.52199,-2.86465 -14.51368,-7.56185c-1.10736,-2.6116 2.46628,-9.33105 2.64308,-9.95664z" fill="#141414" stroke="none" stroke-width="0"/><path d="M165.43272,394.38965l3.48413,-12.32811l50.95359,14.07368l-3.48414,12.32809z" fill="none" stroke="#000000" stroke-width="3.5"/><path d="M165.43272,394.38965l3.48413,-12.32811l50.95359,14.07368l-3.48414,12.32809z" fill="none" stroke="#000000" stroke-width="3.5"/></g><g><path d="M156.87956,413.10206l3.48414,-12.32811l57.56738,15.90045l-3.48414,12.32811z" fill="#252525" stroke="#000000" stroke-width="0"/><path d="M156.87956,413.10206l3.48414,-12.32811l57.56738,15.90045l-3.48414,12.32811z" fill="#252525" stroke="#000000" stroke-width="0"/><path d="M163.1749,409.35336c2.8244,2.82737 9.04659,3.05813 12.99824,4.1496c3.84182,1.06114 19.47223,7.96366 29.58438,8.1588c6.1405,0.11849 7.57757,-7.1083 10.78403,-5.59804c2.63881,1.24287 -2.36762,12.32914 -2.48498,12.7444c-0.4948,1.75079 -31.58064,-6.72919 -39.67527,-8.96497c-5.20223,-1.43688 -14.12715,-3.308 -16.51846,-8.11558c-1.32955,-2.67298 2.44571,-9.33673 2.62252,-9.96232c0.25324,-0.89609 -0.27161,4.62382 2.68954,7.58811z" fill="#141414" stroke="none" stroke-width="0"/><path d="M156.87956,413.10206l3.48414,-12.32811l57.56738,15.90045l-3.48414,12.32811z" fill="none" stroke="#000000" stroke-width="3.5"/><path d="M156.87956,413.10206l3.48414,-12.32811l57.56738,15.90045l-3.48414,12.32811z" fill="none" stroke="#000000" stroke-width="3.5"/></g></g><g><path d="M168.81985,369.66838l4.00166,-14.15923l59.45703,16.42237l-4.00164,14.15925z" fill="#252525" stroke="#000000" stroke-width="0"/><path d="M168.81985,369.66838l4.00166,-14.15923l59.45703,16.42237l-4.00164,14.15925z" fill="#252525" stroke="#000000" stroke-width="0"/><path d="M172.91812,356.63576c0.29086,-1.02919 -0.42309,5.27993 2.57017,8.57188c2.85501,3.13993 9.32659,3.21857 13.40794,4.34587c3.96791,1.09598 20.03298,8.50255 30.55586,8.42527c6.38992,-0.04692 8.10542,-8.32919 11.39819,-6.70231c2.70983,1.33883 -2.83917,14.1273 -2.97396,14.60422c-0.56829,2.01085 -32.67774,-6.7361 -41.03809,-9.04528c-5.37299,-1.48406 -14.60887,-3.35283 -16.95289,-8.76333c-1.30326,-3.00817 2.82969,-10.71779 3.03276,-11.43631z" fill="#141414" stroke="none" stroke-width="0"/><path d="M168.81985,369.66838l4.00166,-14.15923l59.45703,16.42237l-4.00164,14.15925z" fill="none" stroke="#000000" stroke-width="3.5"/><path d="M168.81985,369.66838l4.00166,-14.15923l59.45703,16.42237l-4.00164,14.15925z" fill="none" stroke="#000000" stroke-width="3.5"/></g></g><g stroke-linecap="butt"><g><g><path d="M205.38213,354.73072l1.27629,-63.26079l36.17837,0.51468l-1.2763,63.26079z" fill="#252525" stroke="#000000" stroke-width="0"/><path d="M205.38213,354.73072l1.27629,-63.26079l36.17837,0.51468l-1.2763,63.26079z" fill="#252525" stroke="#000000" stroke-width="0"/><path d="M206.80071,296.03177c0.09278,-4.59823 0.1522,22.37454 2.16065,32.62261c1.9157,9.77473 5.72379,2.74496 8.20722,2.78029c2.41439,0.03433 12.41503,12.48587 18.59151,0.20458c3.75061,-7.4577 4.12982,-43.75068 6.18786,-40.7475c1.69368,2.47151 -0.59575,61.80712 -0.63874,63.93796c-0.05134,2.54474 -1.17246,0.06206 -3.6871,0.26968c-6.36316,0.52537 -18.56495,-0.85345 -22.21111,-0.90532c-3.26935,-0.04652 -7.73622,12.47716 -9.52404,-7.29355c-0.994,-10.99234 0.84898,-47.65856 0.91374,-50.86876z" fill="#141414" stroke="none" stroke-width="0"/><path d="M205.38213,354.73072l1.27629,-63.26079l36.17837,0.51468l-1.2763,63.26079z" fill="none" stroke="#000000" stroke-width="3.5"/><path d="M205.38213,354.73072l1.27629,-63.26079l36.17837,0.51468l-1.2763,63.26079z" fill="none" stroke="#000000" stroke-width="3.5"/></g><g><path d="M197.8066,326.13413l0.25841,-12.80838l52.85614,0.75193l-0.25841,12.80838z" fill="#252525" stroke="#000000" stroke-width="0"/><path d="M197.8066,326.13413l0.25841,-12.80838l52.85614,0.75193l-0.25841,12.80838z" fill="#252525" stroke="#000000" stroke-width="0"/><path d="M202.37259,320.90911c3.04623,2.01691 8.43003,0.65922 12.05827,0.71084c3.5274,0.05018 18.45066,2.7547 27.16043,0.37424c5.28895,-1.44553 4.92161,-8.80005 8.00386,-8.15408c2.53658,0.53161 0.69873,12.5257 0.69002,12.95714c-0.03671,1.819 -28.55504,1.5156 -35.98722,1.40986c-4.77649,-0.06794 -12.83958,0.38996 -15.95276,-3.65215c-1.73091,-2.24737 0.0303,-9.65142 0.04341,-10.30138c0.01878,-0.931 0.79025,4.54096 3.98399,6.65553z" fill="#141414" stroke="none" stroke-width="0"/><path d="M197.8066,326.13413l0.25841,-12.80838l52.85614,0.75193l-0.25841,12.80838z" fill="none" stroke="#000000" stroke-width="3.5"/><path d="M197.8066,326.13413l0.25841,-12.80838l52.85614,0.75193l-0.25841,12.80838z" fill="none" stroke="#000000" stroke-width="3.5"/></g><g><path d="M194.25545,346.39987l0.25841,-12.80839l59.71687,0.84954l-0.25841,12.80838z" fill="#252525" stroke="#000000" stroke-width="0"/><path d="M194.25545,346.39987l0.25841,-12.80839l59.71687,0.84954l-0.25841,12.80838z" fill="#252525" stroke="#000000" stroke-width="0"/><path d="M194.88188,334.51994c0.01878,-0.931 0.90468,4.54258 4.51837,6.66313c3.44681,2.0226 9.52565,0.67479 13.62485,0.73311c3.98527,0.0567 20.85208,2.78889 30.68584,0.42441c5.97144,-1.43581 5.5372,-8.7913 9.0211,-8.13962c2.86712,0.53631 0.82219,12.52748 0.81348,12.95891c-0.0367,1.819 -32.25645,1.46293 -40.65333,1.34348c-5.39647,-0.07677 -14.50464,0.36627 -18.03239,-3.68172c-1.96139,-2.25065 0.00896,-9.65171 0.02208,-10.30168z" fill="#141414" stroke="none" stroke-width="0"/><path d="M194.25545,346.39987l0.25841,-12.80839l59.71687,0.84954l-0.25841,12.80838z" fill="none" stroke="#000000" stroke-width="3.5"/><path d="M194.25545,346.39987l0.25841,-12.80839l59.71687,0.84954l-0.25841,12.80838z" fill="none" stroke="#000000" stroke-width="3.5"/></g></g><g><path d="M194.84189,301.35866l0.29679,-14.71084l61.67709,0.8774l-0.29678,14.71084z" fill="#252525" stroke="#000000" stroke-width="0"/><path d="M194.84189,301.35866l0.29679,-14.71084l61.67709,0.8774l-0.29678,14.71084z" fill="#252525" stroke="#000000" stroke-width="0"/><path d="M200.16791,295.35871c3.55532,2.31729 9.83707,0.75932 14.07081,0.81956c4.11608,0.05855 21.53073,3.16873 31.69313,0.43693c6.17102,-1.65884 5.73966,-10.10592 9.33653,-9.36318c2.96007,0.61124 0.81996,14.38643 0.80996,14.88194c-0.04214,2.08918 -33.31975,1.73327 -41.99225,1.60989c-5.57362,-0.0793 -14.98209,0.44452 -18.6163,-4.19879c-2.02059,-2.58165 0.03176,-11.085 0.04683,-11.83151c0.02157,-1.06927 0.9238,5.21567 4.6513,7.64517z" fill="#141414" stroke="none" stroke-width="0"/><path d="M194.84189,301.35866l0.29679,-14.71084l61.67709,0.8774l-0.29678,14.71084z" fill="none" stroke="#000000" stroke-width="3.5"/><path d="M194.84189,301.35866l0.29679,-14.71084l61.67709,0.8774l-0.29678,14.71084z" fill="none" stroke="#000000" stroke-width="3.5"/></g></g><g stroke-linecap="butt"><path d="M199.4676,227.98555v-36.91505h61.68722v36.91505z" fill="#252525" stroke="#000000" stroke-width="0"/><path d="M199.4676,227.98555v-36.91505h61.68722v36.91505z" fill="#252525" stroke="#000000" stroke-width="0"/><path d="M199.867,193.73058c0,-2.68324 1.02891,13.05137 4.80495,19.01311c3.60164,5.6864 9.85117,1.55385 14.08561,1.55385c4.11676,0 21.59202,7.18084 31.69806,-0.03495c6.13679,-4.38172 5.5351,-25.55714 9.1465,-23.82224c2.97204,1.42774 1.11007,36.06138 1.11007,37.30482c0,5.24253 -33.28071,5.53724 -41.95462,5.53724c-5.57453,0 -14.97131,1.64987 -18.69873,-9.86895c-2.07241,-6.40437 -0.19184,-27.80961 -0.19184,-29.68289z" fill="#141414" stroke="none" stroke-width="0"/><path d="M199.4676,227.98555v-36.91505h61.68722v36.91505z" fill="none" stroke="#000000" stroke-width="3.5"/><path d="M199.4676,227.98555v-36.91505h61.68722v36.91505z" fill="none" stroke="#000000" stroke-width="3.5"/></g><path d="M276.21662,196.19229l0.98572,-14.78573" fill="none" stroke="#000000" stroke-width="2" stroke-linecap="round"/><g stroke-linecap="butt"><g><g><path d="M189.09154,295.5291v-63.2759h81.33996v63.2759z" fill="#252525" stroke="#000000" stroke-width="0"/><path d="M189.09154,295.5291v-63.2759h81.33996v63.2759z" fill="#252525" stroke="#000000" stroke-width="0"/><path d="M195.95391,269.40312c4.74907,9.74701 12.98964,2.66341 18.57311,2.66341c5.4283,0 28.47095,12.30867 41.79664,-0.0599c8.09191,-7.51069 7.2985,-43.80731 12.06046,-40.83355c3.9189,2.44728 1.46373,61.81259 1.46373,63.94395c0,2.54535 -2.6325,0.07875 -8.27513,0.32212c-14.27838,0.61586 -41.76636,-0.58931 -49.96406,-0.58931c-7.35051,0 -16.82259,12.58659 -21.73753,-7.15771c-2.73267,-10.97767 -0.25295,-47.66833 -0.25295,-50.87931c0,-4.59932 1.35669,22.3713 6.33573,32.5903z" fill="#141414" stroke="none" stroke-width="0"/><path d="M189.09154,295.5291v-63.2759h81.33996v63.2759z" fill="none" stroke="#000000" stroke-width="3.5"/><path d="M189.09154,295.5291v-63.2759h81.33996v63.2759z" fill="none" stroke="#000000" stroke-width="3.5"/></g><g><path d="M170.76755,267.04168v-12.81144h118.83668v12.81144z" fill="#252525" stroke="#000000" stroke-width="0"/><path d="M170.76755,267.04168v-12.81144h118.83668v12.81144z" fill="#252525" stroke="#000000" stroke-width="0"/><path d="M180.79338,261.75196c6.93834,1.97347 18.9777,0.53927 27.13509,0.53927c7.93068,0 41.59573,2.49211 61.06439,-0.01214c11.82217,-1.52068 10.66303,-8.86965 17.62017,-8.26755c5.72546,0.4955 2.13849,12.51516 2.13849,12.9467c0,1.81943 -64.11326,1.92172 -80.82305,1.92172c-10.73898,0 -28.84129,0.57259 -36.02195,-3.42503c-3.99238,-2.22264 -0.36957,-9.65137 -0.36957,-10.3015c0,-0.93122 1.98213,4.52949 9.25643,6.59853z" fill="#141414" stroke="none" stroke-width="0"/><path d="M170.76755,267.04168v-12.81144h118.83668v12.81144z" fill="none" stroke="#000000" stroke-width="3.5"/><path d="M170.76755,267.04168v-12.81144h118.83668v12.81144z" fill="none" stroke="#000000" stroke-width="3.5"/></g><g><path d="M163.70479,287.35695v-12.81144h134.26171v12.81144z" fill="#252525" stroke="#000000" stroke-width="0"/><path d="M163.70479,287.35695v-12.81144h134.26171v12.81144z" fill="#252525" stroke="#000000" stroke-width="0"/><path d="M164.57408,275.46867c0,-0.93122 2.23942,4.52949 10.45792,6.59853c7.83894,1.97348 21.441,0.53927 30.65723,0.53927c8.9601,0 46.99484,2.49212 68.99054,-0.01212c13.35669,-1.52068 12.04709,-8.86965 19.90728,-8.26755c6.46863,0.4955 2.41606,12.51516 2.41606,12.9467c0,1.81943 -72.43518,1.92172 -91.3139,1.92172c-12.13292,0 -32.5849,0.57259 -40.69761,-3.42503c-4.51061,-2.22265 -0.41755,-9.65139 -0.41755,-10.30152z" fill="#141414" stroke="none" stroke-width="0"/><path d="M163.70479,287.35695v-12.81144h134.26171v12.81144z" fill="none" stroke="#000000" stroke-width="3.5"/><path d="M163.70479,287.35695v-12.81144h134.26171v12.81144z" fill="none" stroke="#000000" stroke-width="3.5"/></g></g><g><path d="M162.98042,242.30957v-14.71436h138.66885v14.71436z" fill="#252525" stroke="#000000" stroke-width="0"/><path d="M162.98042,242.30957v-14.71436h138.66885v14.71436z" fill="#252525" stroke="#000000" stroke-width="0"/><path d="M163.87824,228.65553c0,-1.06954 2.3129,5.20229 10.8012,7.57863c8.09625,2.26661 22.14482,0.61936 31.66356,0.61936c9.25421,0 48.53745,2.8623 71.25517,-0.01393c13.79512,-1.74656 12.44254,-10.18709 20.56073,-9.49556c6.68096,0.56909 2.49536,14.37407 2.49536,14.8697c0,2.08967 -74.81286,2.20716 -94.31128,2.20716c-12.53119,0 -33.65449,0.65761 -42.03352,-3.93377c-4.65867,-2.55277 -0.43126,-11.08492 -0.43126,-11.8316z" fill="#141414" stroke="none" stroke-width="0"/><path d="M162.98042,242.30957v-14.71436h138.66885v14.71436z" fill="none" stroke="#000000" stroke-width="3.5"/><path d="M162.98042,242.30957v-14.71436h138.66885v14.71436z" fill="none" stroke="#000000" stroke-width="3.5"/></g></g><g><g><path d="M162.75828,135.53624c8.51843,-38.12021 45.14209,-62.38188 81.80124,-54.18995c36.65916,8.19193 59.47174,45.73535 50.95331,83.85556c-8.51843,38.12021 -45.14209,62.38188 -81.80124,54.18995c-29.77964,-6.65462 -50.42201,-32.6781 -52.55447,-62.64557c-0.49262,-6.9229 0.00259,-14.05629 1.60116,-21.20997z" fill="#2c2c2c" stroke="#000000" stroke-width="0" stroke-linecap="butt"/><path d="M180.86022,168.9723c4.04489,17.18252 24.84877,26.60291 32.87185,28.39577c23.37685,5.22384 70.85636,-16.51099 67.68051,-2.29893c-3.17586,14.21208 -45.66599,29.43894 -69.04286,24.2151c-15.19805,-3.39619 -44.32827,-15.42912 -47.66226,-50.28927c-0.67531,-7.06102 -7.53063,-21.95217 -4.16286,-33.56307c5.57978,-19.23723 22.99788,-35.73941 23.6908,-38.8402c2.08588,-9.33441 -11.11587,39.49842 -3.37515,72.38062z" fill="#111111" stroke="none" stroke-width="0" stroke-linecap="butt"/><path d="M244.55951,81.3463c36.65916,8.19193 59.47173,45.73534 50.95331,83.85554c-8.51843,38.12021 -45.14209,62.38187 -81.80124,54.18994c-36.65916,-8.19193 -59.47173,-45.73534 -50.95331,-83.85554c8.51843,-38.12021 45.14209,-62.38187 81.80124,-54.18994z" fill="none" stroke="#000000" stroke-width="3.5" stroke-linecap="butt"/><path d="M232.21587,121.47912c28.37098,6.33984 49.16143,21.36382 46.43673,33.55696c-2.7247,12.19314 -27.93275,16.9382 -56.30376,10.59835c-28.371,-6.33986 -49.16143,-21.36382 -46.43673,-33.55696c2.7247,-12.19314 27.93275,-16.9382 56.30376,-10.59835z" fill="#111111" stroke="none" stroke-width="0" stroke-linecap="butt"/><path d="M187.91944,95.92495l-22.70338,76.73883" fill="none" stroke="#000000" stroke-width="3.5" stroke-linecap="round"/><path d="M177.59298,194.11502l35.09363,-111.84608" fill="none" stroke="#000000" stroke-width="3.5" stroke-linecap="round"/><path d="M196.17177,214.93214l38.43637,-135.84476" fill="none" stroke="#000000" stroke-width="3.5" stroke-linecap="round"/><path d="M226.90438,219.77967l31.58959,-132.32463" fill="none" stroke="#000000" stroke-width="3.5" stroke-linecap="round"/><path d="M276.1215,98.96931l-26.92209,118.21723" fill="none" stroke="#000000" stroke-width="3.5" stroke-linecap="round"/><path d="M286.57979,115.44673l-13.46772,87.38787" fill="none" stroke="#000000" stroke-width="3.5" stroke-linecap="round"/><path d="M206.43191,89.53908c6.51875,-2.76168 -2.53359,7.72803 -1.64484,14.78136c0.85679,6.79949 11.69671,10.10787 15.42489,10.94097c11.82125,2.6416 -4.88592,7.175 -9.57551,28.16103c-4.68959,20.98604 -18.07426,35.85716 -29.89553,33.21554c-11.82125,-2.6416 -17.60259,-21.79559 -12.91302,-42.78163c1.67636,-7.50181 31.48122,-41.2997 38.60398,-44.31729z" fill="#000000" stroke="#000000" stroke-width="0" stroke-linecap="butt"/><path d="M207.02039,89.16556c6.51873,-2.76169 -2.53359,7.72803 -1.64484,14.78136c0.85677,6.7995 11.69671,10.10787 15.42489,10.94097c11.82124,2.6416 -4.88593,7.17498 -9.57552,28.16104c-4.68959,20.98604 -18.07426,35.85715 -29.8955,33.21554c-11.82124,-2.6416 -17.60261,-21.79558 -12.91302,-42.78162c1.67636,-7.50182 31.48121,-41.29972 38.60398,-44.31729z" fill="none" stroke="#000000" stroke-width="3.5" stroke-linecap="butt"/><path d="M295.20764,162.62392c-4.68959,20.98604 -18.07426,35.85716 -29.89551,33.21556c-11.82125,-2.6416 -17.60261,-21.79559 -12.91303,-42.78163c4.68959,-20.98604 -8.49866,-32.19994 3.32259,-29.55832c3.72818,0.83312 14.94527,2.45363 18.61488,-3.33438c3.80659,-6.00409 0.08046,-19.34931 4.80359,-14.07549c5.16075,5.7625 17.74384,49.03248 16.06748,56.5343z" data-paper-data="{&quot;index&quot;:null}" fill="#000000" stroke="#000000" stroke-width="0" stroke-linecap="butt"/><path d="M294.83414,162.03544c-4.68959,20.98604 -18.07426,35.85715 -29.8955,33.21554c-11.82124,-2.6416 -17.60261,-21.79558 -12.91302,-42.78162c4.68959,-20.98604 -8.49866,-32.19994 3.32258,-29.55834c3.72818,0.83312 14.94527,2.45365 18.61488,-3.33438c3.80659,-6.00409 0.08048,-19.34932 4.80359,-14.07549c5.16077,5.76249 17.74386,49.03247 16.06748,56.5343z" data-paper-data="{&quot;index&quot;:null}" fill="none" stroke="#000000" stroke-width="3.5" stroke-linecap="butt"/><path d="M210.96917,219.23439l36.94233,-138.19869" fill="none" stroke="#000000" stroke-width="2.5" stroke-linecap="round"/><path d="M203.56087,216.02294l37.52544,-134.02827" fill="none" stroke="#000000" stroke-width="2" stroke-linecap="round"/><path d="M218.52278,221.38642l32.71549,-135.1031" fill="none" stroke="#000000" stroke-width="2" stroke-linecap="round"/><path d="M264.01015,90.14738l-29.82417,131.20408" fill="none" stroke="#000000" stroke-width="2" stroke-linecap="round"/><path d="M270.15559,92.02565l-29.76773,128.69163" fill="none" stroke="#000000" stroke-width="2" stroke-linecap="round"/><path d="M206.88201,119.80252l13.89504,-41.84117" fill="none" stroke="#000000" stroke-width="2" stroke-linecap="round"/><path d="M227.56203,81.49759l-11.42826,35.32222" fill="none" stroke="#000000" stroke-width="2" stroke-linecap="round"/><path d="M179.4492,127.30768l17.84512,-36.91837" fill="none" stroke="#000000" stroke-width="2" stroke-linecap="round"/></g><path d="M197.56988,172.97895l-9.76496,30.13875" fill="none" stroke="#000000" stroke-width="2.5" stroke-linecap="round"/><path d="M257.66336,213.4674l5.32315,-26.08121" fill="none" stroke="#000000" stroke-width="2" stroke-linecap="round"/><path d="M181.07235,201.40235l10.13847,-29.55028" fill="none" stroke="#000000" stroke-width="2" stroke-linecap="round"/><path d="M206.61874,161.65979l-16.68424,49.80311" fill="none" stroke="#000000" stroke-width="2" stroke-linecap="round"/><path d="M170.85048,165.78726l-3.76193,16.83481" fill="none" stroke="#000000" stroke-width="2" stroke-linecap="round"/><path d="M179.8819,168.31046l-8.95615,24.25934" fill="none" stroke="#000000" stroke-width="2" stroke-linecap="round"/></g><g data-paper-data="{&quot;index&quot;:null}" stroke-linecap="butt"><g><g><path d="M173.42993,518.07653l-9.2854,-94.06264l37.58795,4.43741l9.2854,94.06264z" fill="#252525" stroke="#000000" stroke-width="0"/><path d="M173.42993,518.07653l-9.2854,-94.06264l37.58795,4.43741l9.2854,94.06264z" fill="#252525" stroke="#000000" stroke-width="0"/><path d="M172.76724,479.61333c3.6249,14.74846 6.39347,4.66794 8.97365,4.97255c2.50846,0.29613 14.96293,19.85062 19.30584,2.19113c2.63718,-10.72358 -3.05577,-64.72351 -0.41885,-60.04311c2.17009,3.8518 9.74705,91.96725 10.05981,95.1356c0.37352,3.78379 -1.20493,-0.02656 -3.77675,0.02741c-6.50781,0.13656 -19.3871,-3.15457 -23.17534,-3.60179c-3.39673,-0.401 -5.92686,17.79286 -11.09547,-11.82615c-2.87371,-16.46791 -7.11197,-70.87506 -7.58316,-75.64831c-0.67492,-6.83712 3.90982,33.33002 7.71026,48.79267z" fill="#141414" stroke="none" stroke-width="0"/><path d="M173.42993,518.07653l-9.2854,-94.06264l37.58795,4.43741l9.2854,94.06264z" fill="none" stroke="#000000" stroke-width="3.5"/><path d="M173.42993,518.07653l-9.2854,-94.06264l37.58795,4.43741l9.2854,94.06264z" fill="none" stroke="#000000" stroke-width="3.5"/></g><g><path d="M160.78187,474.72895l-1.88002,-19.04481l54.91555,6.48298l1.88001,19.04481z" fill="#252525" stroke="#000000" stroke-width="0"/><path d="M160.78187,474.72895l-1.88002,-19.04481l54.91555,6.48298l1.88001,19.04481z" fill="#252525" stroke="#000000" stroke-width="0"/><path d="M164.63865,467.41247c3.49586,3.31218 8.84891,1.83696 12.61851,2.28197c3.66484,0.43266 19.58747,5.97385 28.21664,3.31325c5.23998,-1.61564 3.62592,-12.60343 6.92923,-11.32884c2.71851,1.04891 2.82474,18.72105 2.88807,19.36255c0.26699,2.70467 -29.34533,-0.6409 -37.06708,-1.55249c-4.96258,-0.58586 -13.2438,-0.72224 -17.14869,-7.05661c-2.17109,-3.52186 -1.58707,-14.3674 -1.68247,-15.33384c-0.13665,-1.3843 1.58064,6.84145 5.24579,10.31401z" fill="#141414" stroke="none" stroke-width="0"/><path d="M160.78187,474.72895l-1.88002,-19.04481l54.91555,6.48298l1.88001,19.04481z" fill="none" stroke="#000000" stroke-width="3.5"/><path d="M160.78187,474.72895l-1.88002,-19.04481l54.91555,6.48298l1.88001,19.04481z" fill="none" stroke="#000000" stroke-width="3.5"/></g><g><path d="M160.49925,504.54326l-1.88001,-19.04482l62.04356,7.32448l1.88001,19.04482z" fill="#252525" stroke="#000000" stroke-width="0"/><path d="M160.49925,504.54326l-1.88001,-19.04482l62.04356,7.32448l1.88001,19.04482z" fill="#252525" stroke="#000000" stroke-width="0"/><path d="M164.95742,497.29778c3.91205,3.3613 9.98722,1.97132 14.24611,2.4741c4.14054,0.48882 22.08246,6.26841 31.87939,3.74567c5.9491,-1.53194 4.26551,-12.52795 7.98611,-11.2041c3.06192,1.08946 2.95302,18.7362 3.01635,19.37771c0.26699,2.70467 -33.19097,-1.09491 -41.915,-2.12481c-5.60674,-0.6619 -14.97376,-0.92644 -19.30936,-7.31168c-2.41055,-3.55013 -1.60925,-14.37002 -1.70465,-15.33644c-0.13665,-1.3843 1.69955,6.85548 5.80101,10.37956z" fill="#141414" stroke="none" stroke-width="0"/><path d="M160.49925,504.54326l-1.88001,-19.04482l62.04356,7.32448l1.88001,19.04482z" fill="none" stroke="#000000" stroke-width="3.5"/><path d="M160.49925,504.54326l-1.88001,-19.04482l62.04356,7.32448l1.88001,19.04482z" fill="none" stroke="#000000" stroke-width="3.5"/></g></g><g><path d="M153.55406,437.53866l-2.15925,-21.87359l64.08016,7.5649l2.15925,21.8736z" fill="#252525" stroke="#000000" stroke-width="0"/><path d="M153.55406,437.53866l-2.15925,-21.87359l64.08016,7.5649l2.15925,21.8736z" fill="#252525" stroke="#000000" stroke-width="0"/><path d="M158.06875,429.1455c4.07397,3.8111 10.3242,2.12879 14.72291,2.64808c4.27646,0.50486 22.84964,6.90284 32.92564,3.86653c6.11856,-1.84375 4.25491,-14.46479 8.10789,-12.99391c3.17084,1.21046 3.26244,21.50387 3.33517,22.24064c0.30664,3.10641 -34.24784,-0.80028 -43.25824,-1.86399c-5.79077,-0.68363 -15.45553,-0.85837 -20.00131,-8.1408c-2.52741,-4.04897 -1.82593,-16.50181 -1.93551,-17.61179c-0.15695,-1.58991 1.83223,7.85962 6.10346,11.85525z" fill="#141414" stroke="none" stroke-width="0"/><path d="M153.55406,437.53866l-2.15925,-21.87359l64.08016,7.5649l2.15925,21.8736z" fill="none" stroke="#000000" stroke-width="3.5"/><path d="M153.55406,437.53866l-2.15925,-21.87359l64.08016,7.5649l2.15925,21.8736z" fill="none" stroke="#000000" stroke-width="3.5"/></g></g><g data-paper-data="{&quot;index&quot;:null}" stroke-linecap="butt"><g><g><path d="M242.76272,525.47105l9.28538,-94.06264l37.58795,-4.43741l-9.28538,94.06264z" fill="#252525" stroke="#000000" stroke-width="0"/><path d="M242.76272,525.47105l9.28538,-94.06264l37.58795,-4.43741l-9.28538,94.06264z" fill="#252525" stroke="#000000" stroke-width="0"/><path d="M288.72358,433.77781c-0.47119,4.77325 -4.70945,59.18042 -7.58314,75.64832c-5.1686,29.619 -7.69875,11.42513 -11.09548,11.82613c-3.78824,0.44721 -16.66753,3.73835 -23.17532,3.60179c-2.5718,-0.05397 -4.15027,3.75637 -3.77675,-0.02741c0.31276,-3.16836 7.88973,-91.28379 10.05981,-95.1356c2.63692,-4.68041 -3.05603,49.31953 -0.41885,60.04311c4.34291,17.65949 16.79736,-1.895 19.30582,-2.19113c2.58018,-0.3046 5.34874,9.77593 8.97364,-4.97253c3.80044,-15.46265 8.38518,-55.62979 7.71026,-48.79267z" fill="#141414" stroke="none" stroke-width="0"/><path d="M242.76272,525.47105l9.28538,-94.06264l37.58795,-4.43741l-9.28538,94.06264z" fill="none" stroke="#000000" stroke-width="3.5"/><path d="M242.76272,525.47105l9.28538,-94.06264l37.58795,-4.43741l-9.28538,94.06264z" fill="none" stroke="#000000" stroke-width="3.5"/></g><g><path d="M238.08319,484.16907l1.88001,-19.04481l54.91553,-6.48298l-1.88002,19.04481z" fill="#252525" stroke="#000000" stroke-width="0"/><path d="M238.08319,484.16907l1.88001,-19.04481l54.91553,-6.48298l-1.88002,19.04481z" fill="#252525" stroke="#000000" stroke-width="0"/><path d="M294.38771,460.05561c-0.0954,0.96643 0.48862,11.81195 -1.68247,15.33383c-3.90488,6.33437 -12.18611,6.47077 -17.14869,7.05661c-7.72176,0.91158 -37.33407,4.25715 -37.06708,1.55249c0.06333,-0.64151 0.16956,-18.31364 2.88807,-19.36255c3.30331,-1.27457 1.68926,9.71322 6.92923,11.32884c8.62916,2.6606 24.55178,-2.88059 28.21664,-3.31325c3.76961,-0.44501 9.12264,1.03021 12.6185,-2.28197c3.66515,-3.47256 5.38244,-11.69831 5.24579,-10.31401z" fill="#141414" stroke="none" stroke-width="0"/><path d="M238.08319,484.16907l1.88001,-19.04481l54.91553,-6.48298l-1.88002,19.04481z" fill="none" stroke="#000000" stroke-width="3.5"/><path d="M238.08319,484.16907l1.88001,-19.04481l54.91553,-6.48298l-1.88002,19.04481z" fill="none" stroke="#000000" stroke-width="3.5"/></g><g><path d="M231.23777,514.82488l1.88002,-19.04481l62.04356,-7.32448l-1.88001,19.04482z" fill="#252525" stroke="#000000" stroke-width="0"/><path d="M231.23777,514.82488l1.88002,-19.04481l62.04356,-7.32448l-1.88001,19.04482z" fill="#252525" stroke="#000000" stroke-width="0"/><path d="M294.62416,489.87537c-0.0954,0.96643 0.70592,11.78631 -1.70463,15.33644c-4.33559,6.38523 -13.70262,6.64978 -19.30936,7.31168c-8.72403,1.0299 -42.18197,4.82948 -41.91498,2.12481c0.06333,-0.64151 -0.04558,-18.28824 3.01635,-19.37769c3.72062,-1.32386 2.03702,9.67216 7.98611,11.20408c9.79692,2.52274 27.73885,-3.25685 31.8794,-3.74567c4.25891,-0.50277 10.33407,0.8872 14.24611,-2.4741c4.10146,-3.52408 5.93765,-11.76386 5.80101,-10.37956z" fill="#141414" stroke="none" stroke-width="0"/><path d="M231.23777,514.82488l1.88002,-19.04481l62.04356,-7.32448l-1.88001,19.04482z" fill="none" stroke="#000000" stroke-width="3.5"/><path d="M231.23777,514.82488l1.88002,-19.04481l62.04356,-7.32448l-1.88001,19.04482z" fill="none" stroke="#000000" stroke-width="3.5"/></g></g><g><path d="M236.14638,448.06071l2.15925,-21.8736l64.08014,-7.5649l-2.15925,21.8736z" fill="#252525" stroke="#000000" stroke-width="0"/><path d="M236.14638,448.06071l2.15925,-21.8736l64.08014,-7.5649l-2.15925,21.8736z" fill="#252525" stroke="#000000" stroke-width="0"/><path d="M301.81529,420.2474c-0.10958,1.10998 0.5919,13.56281 -1.93551,17.61178c-4.54579,7.28243 -14.21054,7.45718 -20.00131,8.1408c-9.0104,1.06372 -43.56488,4.9704 -43.25824,1.86399c0.07273,-0.73679 0.16433,-21.03019 3.33517,-22.24064c3.85297,-1.47088 1.98935,11.15016 8.1079,12.99391c10.076,3.03631 28.64916,-3.36167 32.92563,-3.86653c4.3987,-0.51927 10.64895,1.16303 14.72291,-2.64807c4.27123,-3.99562 6.2604,-13.44516 6.10345,-11.85525z" fill="#141414" stroke="none" stroke-width="0"/><path d="M236.14638,448.06071l2.15925,-21.8736l64.08014,-7.5649l-2.15925,21.8736z" fill="none" stroke="#000000" stroke-width="3.5"/><path d="M236.14638,448.06071l2.15925,-21.8736l64.08014,-7.5649l-2.15925,21.8736z" fill="none" stroke="#000000" stroke-width="3.5"/></g></g><g stroke-linecap="butt"><path d="M169.18108,368.63374l0.53997,-14.71084l112.21421,0.8774l-0.53999,14.71084z" fill="#252525" stroke="#000000" stroke-width="0"/><path d="M169.18108,368.63374l0.53997,-14.71084l112.21421,0.8774l-0.53999,14.71084z" fill="#252525" stroke="#000000" stroke-width="0"/><path d="M169.18108,368.63374l0.53997,-14.71084l112.21421,0.8774l-0.53999,14.71084z" fill="none" stroke="#000000" stroke-width="3.5"/><path d="M178.87113,362.6338c6.46849,2.31729 17.89739,0.75932 25.6002,0.81956c7.48875,0.05855 39.17267,3.16873 57.66195,0.43693c11.22744,-1.65884 10.44266,-10.10592 16.98672,-9.36318c5.38551,0.61124 1.49181,14.38643 1.47362,14.88194c-0.07668,2.08918 -60.62139,1.73327 -76.39999,1.60989c-10.14054,-0.0793 -27.25817,0.44452 -33.87018,-4.19879c-3.67622,-2.58165 0.05781,-11.085 0.08521,-11.83151c0.03924,-1.06927 1.68074,5.21567 8.46247,7.64517z" fill="#141414" stroke="none" stroke-width="0"/><path d="M169.18108,368.63374l0.53997,-14.71084l112.21421,0.8774l-0.53999,14.71084z" fill="none" stroke="#000000" stroke-width="3.5"/></g><g stroke-linecap="butt"><g><path d="M121.94405,557.0329l0.44759,-43.42407l93.01401,2.58997l-0.44759,43.42409z" fill="#252525" stroke="#000000" stroke-width="0"/><path d="M121.94405,557.0329l0.44759,-43.42407l93.01401,2.58997l-0.44759,43.42409z" fill="#252525" stroke="#000000" stroke-width="0"/><path d="M121.94405,557.0329l0.44759,-43.42407l93.01401,2.58997l-0.44759,43.42409z" fill="none" stroke="#000000" stroke-width="3.5"/><path d="M122.96162,516.75468c0.03254,-3.15634 1.39316,15.39584 7.01451,22.56733c5.36172,6.84026 14.8351,2.24141 21.21992,2.41921c6.20741,0.17287 32.47011,9.3536 47.7958,1.28979c9.30639,-4.89667 8.65589,-29.83108 14.08025,-27.63865c4.46403,1.80427 1.23655,42.46645 1.22146,43.92912c-0.06356,6.16691 -50.24889,0.89196 -63.32771,0.52778c-8.40545,-0.23406 -22.59418,5.5365 -28.07487,-8.16983c-3.04722,-7.6206 0.04791,-32.72117 0.07062,-34.92475z" fill="#141414" stroke="none" stroke-width="0"/><path d="M121.94405,557.0329l0.44759,-43.42407l93.01401,2.58997l-0.44759,43.42409z" fill="none" stroke="#000000" stroke-width="3.5"/></g><g><path d="M94.98881,568.29782l0.21935,-43.42407l45.58264,2.58997l-0.21935,43.4241z" fill="#252525" stroke="#000000" stroke-width="0"/><path d="M94.98881,568.29782l0.21935,-43.42407l45.58264,2.58997l-0.21935,43.4241z" fill="#6c6c6c" stroke="#000000" stroke-width="0"/><path d="M94.98881,568.29782l0.21935,-43.42407l45.58264,2.58997l-0.21935,43.4241z" fill="none" stroke="#000000" stroke-width="3.5"/><path d="M98.92503,550.58694c2.62757,6.84025 7.27012,2.24141 10.39909,2.4192c3.04202,0.17287 15.91236,9.3536 23.42291,1.28979c4.5607,-4.89665 4.24192,-29.83106 6.90019,-27.63863c2.18765,1.80427 0.60599,42.46645 0.5986,43.92912c-0.03117,6.16691 -24.62508,0.89198 -31.03452,0.52779c-4.1192,-0.23407 -11.07256,5.53649 -13.75844,-8.16984c-1.49333,-7.62061 0.02349,-32.72117 0.03461,-34.92475c0.01595,-3.15633 0.68273,15.39584 3.43755,22.56732z" fill="#545454" stroke="none" stroke-width="0"/><path d="M94.98881,568.29782l0.21935,-43.42407l45.58264,2.58997l-0.21935,43.4241z" fill="none" stroke="#000000" stroke-width="3.5"/></g><g><path d="M163.51707,572.28749l0.21935,-43.42407l45.58264,2.58997l-0.21936,43.4241z" fill="#252525" stroke="#000000" stroke-width="0"/><path d="M163.51707,572.28749l0.21935,-43.42407l45.58264,2.58997l-0.21936,43.4241z" fill="#6c6c6c" stroke="#000000" stroke-width="0"/><path d="M163.51707,572.28749l0.21935,-43.42407l45.58264,2.58997l-0.21936,43.4241z" fill="none" stroke="#000000" stroke-width="3.5"/><path d="M164.01575,532.0093c0.01594,-3.15633 0.68272,15.39584 3.43754,22.56732c2.62759,6.84026 7.27015,2.24143 10.3991,2.41921c3.042,0.17286 15.91235,9.35359 23.42289,1.28977c4.56072,-4.89665 4.24192,-29.83106 6.90021,-27.63863c2.18765,1.80426 0.60599,42.46645 0.5986,43.92912c-0.03115,6.16691 -24.62506,0.89196 -31.0345,0.52778c-4.1192,-0.23407 -11.07258,5.53649 -13.75845,-8.16984c-1.49331,-7.62061 0.02349,-32.72117 0.03461,-34.92475z" fill="#545454" stroke="none" stroke-width="0"/><path d="M163.51707,572.28749l0.21935,-43.42407l45.58264,2.58997l-0.21936,43.4241z" fill="none" stroke="#000000" stroke-width="3.5"/></g><g><path d="M125.96734,572.05279l0.21935,-43.42407l45.58264,2.58997l-0.21935,43.4241z" fill="#252525" stroke="#000000" stroke-width="0"/><path d="M125.96734,572.05279l0.21935,-43.42407l45.58264,2.58997l-0.21935,43.4241z" fill="#6c6c6c" stroke="#000000" stroke-width="0"/><path d="M125.96734,572.05279l0.21935,-43.42407l45.58264,2.58997l-0.21935,43.4241z" fill="none" stroke="#000000" stroke-width="3.5"/><path d="M126.46601,531.77461c0.01592,-3.15633 0.68272,15.39585 3.43754,22.56733c2.62757,6.84026 7.27013,2.24141 10.39909,2.4192c3.042,0.17286 15.91235,9.3536 23.42289,1.28979c4.56072,-4.89665 4.24192,-29.83108 6.90021,-27.63865c2.18764,1.80426 0.60599,42.46645 0.5986,43.92912c-0.03115,6.16691 -24.62506,0.89196 -31.0345,0.52778c-4.11919,-0.23407 -11.07256,5.53649 -13.75844,-8.16984c-1.49331,-7.62061 0.02349,-32.72117 0.03461,-34.92475z" fill="#545454" stroke="none" stroke-width="0"/><path d="M125.96734,572.05279l0.21935,-43.42407l45.58264,2.58997l-0.21935,43.4241z" fill="none" stroke="#000000" stroke-width="3.5"/></g></g><g data-paper-data="{&quot;index&quot;:null}" stroke-linecap="butt"><g><path d="M235.73755,559.62289l-0.44759,-43.4241l93.01401,-2.58996l0.44759,43.42407z" fill="#252525" stroke="#000000" stroke-width="0"/><path d="M235.73755,559.62289l-0.44759,-43.4241l93.01401,-2.58996l0.44759,43.42407z" fill="#252525" stroke="#000000" stroke-width="0"/><path d="M235.73755,559.62289l-0.44759,-43.4241l93.01401,-2.58996l0.44759,43.42407z" fill="none" stroke="#000000" stroke-width="3.5"/><path d="M327.73401,516.75468c0.02271,2.20358 3.11784,27.30415 0.07063,34.92475c-5.48067,13.70633 -19.66943,7.93577 -28.07489,8.16983c-13.07882,0.36419 -63.26413,5.63913 -63.3277,-0.52778c-0.01508,-1.46268 -3.24257,-42.12485 1.22146,-43.92912c5.42435,-2.19243 4.77386,22.74198 14.08025,27.63865c15.32569,8.06381 41.5884,-1.11691 47.79579,-1.28979c6.38483,-0.1778 15.8582,4.42105 21.21992,-2.41921c5.62136,-7.17149 6.98197,-25.72367 7.01451,-22.56733z" fill="#141414" stroke="none" stroke-width="0"/><path d="M235.73755,559.62289l-0.44759,-43.4241l93.01401,-2.58996l0.44759,43.42407z" fill="none" stroke="#000000" stroke-width="3.5"/></g><g><path d="M310.12415,570.88781l-0.21935,-43.4241l45.58264,-2.58997l0.21935,43.42407z" fill="#252525" stroke="#000000" stroke-width="0"/><path d="M310.12415,570.88781l-0.21935,-43.4241l45.58264,-2.58997l0.21935,43.42407z" fill="#6c6c6c" stroke="#000000" stroke-width="0"/><path d="M310.12415,570.88781l-0.21935,-43.4241l45.58264,-2.58997l0.21935,43.42407z" fill="none" stroke="#000000" stroke-width="3.5"/><path d="M355.20813,528.01961c0.01112,2.20358 1.52794,27.30413 0.03461,34.92475c-2.68587,13.70633 -9.63925,7.93578 -13.75845,8.16984c-6.40944,0.36419 -31.00335,5.63912 -31.0345,-0.52779c-0.00739,-1.46268 -1.58905,-42.12485 0.5986,-43.92912c2.65827,-2.19243 2.33949,22.74198 6.90019,27.63865c7.51055,8.06381 20.38091,-1.11693 23.42291,-1.28979c3.12896,-0.17778 7.7715,4.42107 10.39909,-2.4192c2.75482,-7.17148 3.42161,-25.72366 3.43755,-22.56733z" fill="#545454" stroke="none" stroke-width="0"/><path d="M310.12415,570.88781l-0.21935,-43.4241l45.58264,-2.58997l0.21935,43.42407z" fill="none" stroke="#000000" stroke-width="3.5"/></g><g><path d="M241.5959,574.87748l-0.21935,-43.4241l45.58263,-2.58997l0.21936,43.42409z" fill="#252525" stroke="#000000" stroke-width="0"/><path d="M241.5959,574.87748l-0.21935,-43.4241l45.58263,-2.58997l0.21936,43.42409z" fill="#6c6c6c" stroke="#000000" stroke-width="0"/><path d="M241.5959,574.87748l-0.21935,-43.4241l45.58263,-2.58997l0.21936,43.42409z" fill="none" stroke="#000000" stroke-width="3.5"/><path d="M286.67988,532.00929c0.01112,2.20358 1.52793,27.30413 0.03461,34.92475c-2.68587,13.70633 -9.63925,7.93577 -13.75845,8.16984c-6.40944,0.36419 -31.00335,5.63913 -31.0345,-0.52778c-0.00739,-1.46268 -1.58905,-42.12487 0.5986,-43.92912c2.65828,-2.19243 2.33949,22.74198 6.90021,27.63863c7.51055,8.06381 20.38089,-1.11691 23.42291,-1.28977c3.12896,-0.17778 7.7715,4.42105 10.39909,-2.41921c2.75482,-7.17148 3.42161,-25.72364 3.43755,-22.56732z" fill="#545454" stroke="none" stroke-width="0"/><path d="M241.5959,574.87748l-0.21935,-43.4241l45.58263,-2.58997l0.21936,43.42409z" fill="none" stroke="#000000" stroke-width="3.5"/></g><g><path d="M279.14563,574.64278l-0.21935,-43.4241l45.58264,-2.58997l0.21935,43.42407z" fill="#252525" stroke="#000000" stroke-width="0"/><path d="M279.14563,574.64278l-0.21935,-43.4241l45.58264,-2.58997l0.21935,43.42407z" fill="#6c6c6c" stroke="#000000" stroke-width="0"/><path d="M279.14563,574.64278l-0.21935,-43.4241l45.58264,-2.58997l0.21935,43.42407z" fill="none" stroke="#000000" stroke-width="3.5"/><path d="M324.22961,531.77456c0.01112,2.20358 1.52793,27.30413 0.03461,34.92475c-2.68587,13.70633 -9.63925,7.93577 -13.75845,8.16984c-6.40944,0.36419 -31.00335,5.63913 -31.0345,-0.52778c-0.00739,-1.46268 -1.58904,-42.12487 0.5986,-43.92912c2.65828,-2.19243 2.33949,22.74198 6.90019,27.63863c7.51055,8.06381 20.38089,-1.11691 23.42291,-1.28977c3.12896,-0.17778 7.7715,4.42105 10.39909,-2.41921c2.75482,-7.17148 3.42161,-25.72364 3.43755,-22.56732z" fill="#545454" stroke="none" stroke-width="0"/><path d="M279.14563,574.64278l-0.21935,-43.4241l45.58264,-2.58997l0.21935,43.42407z" fill="none" stroke="#000000" stroke-width="3.5"/></g></g><g><g stroke-linecap="butt"><g><g><path d="M105.58325,228.48535l63.08374,4.89897l-2.58683,36.08944l-63.08371,-4.89898z" fill="#252525" stroke="#000000" stroke-width="0"/><path d="M105.58325,228.48535l63.08374,4.89897l-2.58683,36.08944l-63.08371,-4.89898z" fill="#252525" stroke="#000000" stroke-width="0"/><path d="M164.1045,233.26499c4.58534,0.3561 -22.34651,-1.1301 -32.69281,0.28784c-9.86843,1.35246 -3.06843,5.5571 -3.246,8.03442c-0.17263,2.40845 -13.17673,11.6792 -1.26952,18.54923c7.23054,4.17175 43.44213,6.62991 40.32599,8.51248c-2.56449,1.54928 -61.67144,-4.13626 -63.79633,-4.30128c-2.53762,-0.19707 0.00524,-1.1741 -0.05796,-3.6965c-0.15989,-6.38279 1.91579,-18.48553 2.1765,-22.12276c0.23376,-3.26129 -12.01338,-8.43844 7.82729,-9.09047c11.03126,-0.36253 47.53163,3.57837 50.73285,3.82697z" fill="#141414" stroke="none" stroke-width="0"/><path d="M105.58325,228.48535l63.08374,4.89897l-2.58683,36.08944l-63.08371,-4.89898z" fill="none" stroke="#000000" stroke-width="3.5"/><path d="M105.58325,228.48535l63.08374,4.89897l-2.58683,36.08944l-63.08371,-4.89898z" fill="none" stroke="#000000" stroke-width="3.5"/></g><g><path d="M134.5669,222.56081l12.77255,0.99188l-3.77931,52.72624l-12.77253,-0.9919z" fill="#252525" stroke="#000000" stroke-width="0"/><path d="M134.5669,222.56081l12.77255,0.99188l-3.77931,52.72624l-12.77253,-0.9919z" fill="#252525" stroke="#000000" stroke-width="0"/><path d="M146.39459,223.82262c0.9284,0.07209 -4.57878,0.52877 -6.87286,3.59607c-2.18814,2.92566 -1.14115,8.37841 -1.40058,11.99773c-0.25223,3.51872 -3.80738,18.26252 -1.9299,27.09439c1.14011,5.36307 8.50359,5.41774 7.68208,8.45791c-0.67607,2.50194 -12.54517,-0.02014 -12.97539,-0.05356c-1.81391,-0.14087 0.12309,-28.59497 0.6545,-36.00889c0.34154,-4.76475 0.3464,-12.84081 4.56023,-15.71727c2.34285,-1.5993 9.6338,0.58328 10.28194,0.63359z" fill="#141414" stroke="none" stroke-width="0"/><path d="M134.5669,222.56081l12.77255,0.99188l-3.77931,52.72624l-12.77253,-0.9919z" fill="none" stroke="#000000" stroke-width="3.5"/><path d="M134.5669,222.56081l12.77255,0.99188l-3.77931,52.72624l-12.77253,-0.9919z" fill="none" stroke="#000000" stroke-width="3.5"/></g><g><path d="M114.53796,217.85428l12.77253,0.9919l-4.26984,59.57008l-12.77253,-0.99187z" fill="#252525" stroke="#000000" stroke-width="0"/><path d="M114.53796,217.85428l12.77253,0.9919l-4.26984,59.57008l-12.77253,-0.99187z" fill="#252525" stroke="#000000" stroke-width="0"/><path d="M119.45137,223.28956c-2.21679,3.32524 -1.2195,9.47133 -1.51259,13.56045c-0.28498,3.97546 -3.97911,20.65801 -2.18198,30.6111c1.0913,6.04391 8.45958,6.03184 7.60933,9.47267c-0.6997,2.83168 -12.55401,0.10302 -12.98421,0.06961c-1.81391,-0.14087 0.38773,-32.28727 0.98813,-40.66351c0.38587,-5.3832 0.46544,-14.5018 4.70893,-17.79181c2.35934,-1.82921 9.63535,0.562 10.28351,0.61232c0.92838,0.0721 -4.58696,0.64288 -6.91109,4.12916z" fill="#141414" stroke="none" stroke-width="0"/><path d="M114.53796,217.85428l12.77253,0.9919l-4.26984,59.57008l-12.77253,-0.99187z" fill="none" stroke="#000000" stroke-width="3.5"/><path d="M114.53796,217.85428l12.77253,0.9919l-4.26984,59.57008l-12.77253,-0.99187z" fill="none" stroke="#000000" stroke-width="3.5"/></g></g><g><path d="M159.47154,221.02058l14.66968,1.13922l-4.41,61.52548l-14.66967,-1.13923z" fill="#252525" stroke="#000000" stroke-width="0"/><path d="M159.47154,221.02058l14.66968,1.13922l-4.41,61.52548l-14.66967,-1.13923z" fill="#252525" stroke="#000000" stroke-width="0"/><path d="M173.05561,222.47605c1.06628,0.08281 -5.26004,0.62343 -7.89912,4.20558c-2.51721,3.41669 -1.32174,9.77741 -1.62446,14.00074c-0.29432,4.10596 -4.3972,21.31379 -2.2522,31.61604c1.30254,6.25593 9.76044,6.30931 8.81283,9.85769c-0.77983,2.9202 -14.40976,-0.00572 -14.90389,-0.0441c-2.08333,-0.16179 0.17878,-33.36433 0.79887,-42.01551c0.39852,-5.55991 0.41468,-14.98296 5.2586,-18.34513c2.69319,-1.86933 11.06498,0.6669 11.8094,0.7247z" fill="#141414" stroke="none" stroke-width="0"/><path d="M159.47154,221.02058l14.66968,1.13922l-4.41,61.52548l-14.66967,-1.13923z" fill="none" stroke="#000000" stroke-width="3.5"/><path d="M159.47154,221.02058l14.66968,1.13922l-4.41,61.52548l-14.66967,-1.13923z" fill="none" stroke="#000000" stroke-width="3.5"/></g></g><path d="M103.7972,234.91833l-34.28582,38.13096" fill="none" stroke="#000000" stroke-width="2" stroke-linecap="round"/><path d="M103.14901,244.06308l-10.61217,15.55727" fill="none" stroke="#000000" stroke-width="2" stroke-linecap="round"/><path d="M61.75815,293.61704l7.33308,-8.64435l32.70438,-23.31481" fill="none" stroke="#000000" stroke-width="2" stroke-linecap="round"/><path d="M61.52795,269.5084l19.5394,-26.08082l20.62262,-12.88207" fill="none" stroke="#000000" stroke-width="2" stroke-linecap="round"/></g><g><g data-paper-data="{&quot;index&quot;:null}" stroke-linecap="butt"><g><g><path d="M349.63298,277.21428l-61.32198,-15.59392l9.12553,-35.01234l61.32198,15.59394z" fill="#252525" stroke="#000000" stroke-width="0"/><path d="M349.63298,277.21428l-61.32198,-15.59392l9.12553,-35.01234l61.32198,15.59394z" fill="#252525" stroke="#000000" stroke-width="0"/><path d="M301.79621,227.95838c3.11181,0.79132 38.94771,8.76611 49.27982,12.64776c18.58321,6.98145 5.3226,7.95679 4.49795,11.12076c-0.9197,3.52866 -2.83561,15.65771 -5.03434,21.65199c-0.86893,2.36885 1.2262,4.10987 -1.24057,3.4826c-2.06555,-0.52525 -59.87316,-14.09861 -61.80522,-16.38861c-2.34768,-2.78262 32.7391,6.50396 40.92573,4.8718c13.48163,-2.68782 4.13819,-15.6398 4.74723,-17.97638c0.62641,-2.40338 8.41577,-4.2048 -0.49745,-8.65107c-9.34484,-4.6616 -35.33042,-11.89231 -30.87313,-10.75884z" fill="#141414" stroke="none" stroke-width="0"/><path d="M349.63298,277.21428l-61.32198,-15.59392l9.12553,-35.01234l61.32198,15.59394z" fill="none" stroke="#000000" stroke-width="3.5"/><path d="M349.63298,277.21428l-61.32198,-15.59392l9.12553,-35.01234l61.32198,15.59394z" fill="none" stroke="#000000" stroke-width="3.5"/></g><g><path d="M319.87419,278.44653l-12.41582,-3.15729l13.33228,-51.15259l12.41583,3.1573z" fill="#252525" stroke="#000000" stroke-width="0"/><path d="M319.87419,278.44653l-12.41582,-3.15729l13.33228,-51.15259l12.41583,3.1573z" fill="#252525" stroke="#000000" stroke-width="0"/><path d="M321.59901,224.69535c0.63005,0.16022 8.23583,0.43155 9.94194,2.69782c3.06859,4.07607 0.48277,11.72699 -0.72202,16.34955c-1.87467,7.19264 -9.16665,34.76463 -10.9299,34.31624c-0.41821,-0.10635 -12.46915,-1.52453 -12.30701,-4.11113c0.19702,-3.14305 7.18899,-0.833 9.98906,-5.54703c4.61109,-7.76301 5.97282,-22.86812 6.86256,-26.28183c0.91518,-3.51132 3.6558,-8.34013 2.52168,-11.81305c-1.18904,-3.64108 -6.25877,-5.84004 -5.35629,-5.61054z" fill="#141414" stroke="none" stroke-width="0"/><path d="M319.87419,278.44653l-12.41582,-3.15729l13.33228,-51.15259l12.41583,3.1573z" fill="none" stroke="#000000" stroke-width="3.5"/><path d="M319.87419,278.44653l-12.41582,-3.15729l13.33228,-51.15259l12.41583,3.1573z" fill="none" stroke="#000000" stroke-width="3.5"/></g><g><path d="M338.62401,287.05257l-12.41585,-3.1573l15.0628,-57.79221l12.41583,3.15729z" fill="#252525" stroke="#000000" stroke-width="0"/><path d="M338.62401,287.05257l-12.41585,-3.1573l15.0628,-57.79221l12.41583,3.15729z" fill="#252525" stroke="#000000" stroke-width="0"/><path d="M342.06814,226.70476c0.63005,0.16022 8.28859,0.22913 9.93655,2.71846c2.96401,4.47725 0.1146,13.13961 -1.2466,18.36215c-2.11801,8.12625 -10.34363,39.28034 -12.10687,38.83196c-0.41821,-0.10635 -12.52139,-1.32411 -12.27587,-4.2306c0.29833,-3.53176 7.27344,-1.15695 10.24566,-6.53149c4.89461,-8.85077 6.74655,-25.83677 7.75179,-29.69361c1.03397,-3.96707 3.94991,-9.46855 2.91683,-13.32913c-1.08313,-4.04751 -6.12396,-6.35721 -5.22149,-6.12773z" fill="#141414" stroke="none" stroke-width="0"/><path d="M338.62401,287.05257l-12.41585,-3.1573l15.0628,-57.79221l12.41583,3.15729z" fill="none" stroke="#000000" stroke-width="3.5"/><path d="M338.62401,287.05257l-12.41585,-3.1573l15.0628,-57.79221l12.41583,3.15729z" fill="none" stroke="#000000" stroke-width="3.5"/></g></g><g><path d="M294.55446,277.53618l-14.26,-3.62625l15.55725,-59.68922l14.25998,3.62626z" fill="#252525" stroke="#000000" stroke-width="0"/><path d="M294.55446,277.53618l-14.26,-3.62625l15.55725,-59.68922l14.25998,3.62626z" fill="#252525" stroke="#000000" stroke-width="0"/><path d="M296.77858,214.86846c0.72363,0.18402 9.46658,0.46705 11.41787,3.10146c3.50956,4.73822 0.50242,13.66857 -0.90344,19.06254c-2.18753,8.39299 -10.69464,40.56682 -12.71977,40.05182c-0.48033,-0.12214 -14.3286,-1.72263 -14.13058,-4.73865c0.24061,-3.66487 8.26874,-1.00255 11.50904,-6.51014c5.3361,-9.06989 6.96939,-26.68452 8.00761,-30.66796c1.06791,-4.0973 4.24039,-9.73848 2.9521,-13.78205c-1.35068,-4.23938 -7.16932,-6.7806 -6.13283,-6.51702z" fill="#141414" stroke="none" stroke-width="0"/><path d="M294.55446,277.53618l-14.26,-3.62625l15.55725,-59.68922l14.25998,3.62626z" fill="none" stroke="#000000" stroke-width="3.5"/><path d="M294.55446,277.53618l-14.26,-3.62625l15.55725,-59.68922l14.25998,3.62626z" fill="none" stroke="#000000" stroke-width="3.5"/></g></g><path d="M390.89372,304.99237l-33.11419,-56.85999" fill="none" stroke="#000000" stroke-width="2" stroke-linecap="round"/><path d="M382.56131,332.1451l-26.09845,-73.94993" fill="none" stroke="#000000" stroke-width="2" stroke-linecap="round"/><path d="M353.03639,269.62336l3.72405,8.06702" fill="none" stroke="#000000" stroke-width="2" stroke-linecap="round"/><path d="M360.26151,245.02933l11.23232,59.16266l3.20052,26.82718" fill="none" stroke="#000000" stroke-width="2" stroke-linecap="round"/></g></g></g></svg>