<svg version="1.1" xmlns="http://www.w3.org/2000/svg" xmlns:xlink="http://www.w3.org/1999/xlink" width="421.4634" height="753.13083" viewBox="0,0,421.4634,753.13083"><g transform="translate(105.08518,17.80645)"><g data-paper-data="{&quot;isPaintingLayer&quot;:true}" fill-rule="nonzero" stroke-width="7.5" stroke-linejoin="miter" stroke-miterlimit="10" stroke-dasharray="" stroke-dashoffset="0" style="mix-blend-mode: normal"><g data-paper-data="{&quot;index&quot;:null}" stroke-linecap="butt"><g><path d="M170.10049,692.15622c-0.77331,8.02581 4.8266,19.99131 -5.29181,24.61781c-11.73685,5.36651 -40.43148,2.6566 -58.43544,0.92186c-16.80281,-1.619 -38.16017,-4.81839 -48.60181,-11.58166c-10.39161,-6.73092 -9.90979,-17.00889 -9.07663,-25.65581c1.67032,-17.33544 30.20197,-28.76993 63.7272,-25.53967c33.52521,3.23025 59.34874,19.90203 57.67842,37.23746z" fill="#444444" stroke="#000000"/><path d="M169.72105,708.89601c-0.89367,9.275 -29.16932,14.13923 -63.15538,10.86457c-33.98605,-3.27466 -60.81275,-13.44816 -59.91908,-22.72316c0.89367,-9.275 -0.98374,-42.06568 33.00234,-38.79102c5.78947,0.55783 -8.45835,7.19334 -17.2984,16.25831c-8.10557,8.31177 -10.95831,18.99128 -4.65114,21.99513c14.07236,6.70213 50.74769,14.03638 76.01755,14.70466c23.5631,0.62314 36.29454,-5.3225 36.00413,-2.3085z" fill="#282828" stroke="none"/><path d="M168.73971,692.8606c-0.77331,8.02581 4.82664,19.99132 -5.29174,24.61781c-11.73685,5.36651 -40.43148,2.65657 -58.43544,0.92184c-16.80281,-1.619 -38.16013,-4.81836 -48.60176,-11.58166c-10.39161,-6.73092 -9.90979,-17.00886 -9.07664,-25.65576c1.67032,-17.33541 30.20195,-28.76993 63.72718,-25.53967c33.52525,3.23026 59.34876,19.90203 57.67844,37.23747z" fill="none" stroke="#000000"/></g><g><path d="M196.6697,701.9456c-0.77331,8.02581 1.01531,19.62409 -3.64388,24.77659c-5.40444,5.97666 -17.75648,4.8414 -25.50469,4.09484c-7.2313,-0.69676 -16.36059,-2.71796 -20.54117,-8.87796c-4.16057,-6.13054 -3.39177,-16.38083 -2.55861,-25.02775c1.67032,-17.33544 14.72057,-30.26161 29.14855,-28.87143c14.42798,1.39018 24.7701,16.57027 23.09978,33.90571z" fill="#444444" stroke="#000000"/><path d="M195.59411,718.61835c-0.89367,9.275 -13.4751,15.65141 -28.10139,14.24213c-14.62631,-1.40929 -25.75881,-10.07061 -24.86513,-19.34561c0.89367,-9.275 1.85906,-41.79179 16.48538,-40.38251c2.49157,0.24007 -4.07567,7.61567 -8.41936,17.11388c-3.98282,8.70901 -5.80621,19.48768 -3.22215,22.13282c5.76547,5.90173 21.34245,11.20307 32.31371,10.49364c10.23024,-0.66152 16.09939,-7.26837 15.80898,-4.25437z" fill="#282828" stroke="none"/><path d="M196.03866,702.72029c-0.77331,8.02581 1.01533,19.62411 -3.64385,24.77659c-5.40444,5.97666 -17.7565,4.84135 -25.50471,4.09479c-7.2313,-0.69676 -16.36057,-2.71791 -20.54115,-8.87793c-4.16057,-6.13054 -3.39177,-16.38083 -2.55861,-25.02773c1.67032,-17.33541 14.72057,-30.26158 29.14855,-28.87141c14.42798,1.39018 24.7701,16.57027 23.09979,33.90569z" fill="none" stroke="#000000"/></g><g><path d="M120.30546,697.29868c-0.77331,8.02581 1.01531,19.62411 -3.64388,24.77659c-5.40444,5.97666 -17.75648,4.8414 -25.50469,4.09484c-7.2313,-0.69676 -16.36061,-2.71796 -20.54119,-8.87796c-4.16057,-6.13054 -3.39175,-16.38083 -2.55859,-25.02775c1.67032,-17.33544 14.72057,-30.26158 29.14855,-28.87141c14.42795,1.39018 24.7701,16.57027 23.09979,33.90569z" fill="#444444" stroke="#000000"/><path d="M119.22983,713.97142c-0.89367,9.275 -13.4751,15.65141 -28.10141,14.24212c-14.62631,-1.40929 -25.75881,-10.07061 -24.86513,-19.34561c0.89367,-9.275 1.85908,-41.79177 16.48538,-40.38248c2.49157,0.24007 -4.07566,7.61562 -8.41936,17.11383c-3.98282,8.70901 -5.80624,19.48772 -3.22218,22.13284c5.76547,5.90173 21.34248,11.20307 32.31373,10.49364c10.23022,-0.66152 16.09941,-7.26836 15.809,-4.25436z" fill="#282828" stroke="none"/><path d="M119.6744,698.07339c-0.77331,8.02581 1.01533,19.62409 -3.64383,24.77659c-5.40444,5.97666 -17.7565,4.84138 -25.50471,4.09481c-7.2313,-0.69676 -16.36057,-2.71791 -20.54117,-8.87794c-4.16057,-6.13054 -3.39177,-16.38083 -2.55861,-25.02773c1.67032,-17.33541 14.72057,-30.26161 29.14855,-28.87143c14.42798,1.39018 24.77013,16.57028 23.09981,33.90571z" fill="none" stroke="#000000"/></g><g><path d="M164.56623,697.49684c-0.77331,8.02581 1.01531,19.62409 -3.64388,24.77659c-5.40444,5.97666 -17.75648,4.84138 -25.50471,4.09481c-7.2313,-0.69676 -16.36059,-2.71793 -20.54117,-8.87794c-4.16057,-6.13054 -3.39177,-16.38083 -2.55861,-25.02773c1.67032,-17.33544 14.72057,-30.26161 29.14855,-28.87143c14.42795,1.39018 24.7701,16.57027 23.09978,33.90571z" fill="#444444" stroke="#000000"/><path d="M163.49061,714.16956c-0.89367,9.275 -13.4751,15.65141 -28.10139,14.24213c-14.62631,-1.40929 -25.75878,-10.0706 -24.86511,-19.34561c0.89367,-9.275 1.85906,-41.79179 16.48535,-40.38251c2.49157,0.24007 -4.07566,7.61565 -8.41936,17.11385c-3.98282,8.70901 -5.80626,19.4877 -3.22218,22.13282c5.76547,5.90173 21.34248,11.20307 32.31373,10.49364c10.23022,-0.66152 16.09941,-7.26834 15.809,-4.25436z" fill="#282828" stroke="none"/><path d="M163.93516,698.2715c-0.77331,8.02581 1.01533,19.62411 -3.64383,24.77662c-5.40444,5.97666 -17.75648,4.84135 -25.50469,4.09479c-7.2313,-0.69676 -16.36059,-2.71789 -20.54118,-8.87791c-4.16057,-6.13054 -3.39174,-16.38085 -2.55859,-25.02777c1.67032,-17.33541 14.72057,-30.26158 29.14855,-28.87141c14.42798,1.39018 24.77011,16.57025 23.09979,33.90569z" fill="none" stroke="#000000"/></g></g><g stroke-linecap="butt"><g><path d="M-73.38562,664.01744c1.67032,-17.33544 30.202,-28.76993 63.72718,-25.53967c33.52525,3.23026 59.34876,19.90203 57.67844,37.23747c-0.83316,8.64692 -2.32258,18.82778 -13.8082,23.45076c-11.54087,4.64519 -33.11619,3.70789 -49.91901,2.08889c-18.00396,-1.73473 -46.68809,-4.55341 -57.18439,-12.06218c-9.04888,-6.47332 -1.26741,-17.14946 -0.4941,-25.17529z" fill="#444444" stroke="#000000"/><path d="M-76.20941,680.52169c0.29041,-3.01397 11.65243,5.25315 34.901,9.14042c24.93257,4.16887 62.33354,3.97209 77.42667,0.08015c6.76467,-1.74436 6.0035,-12.77206 -0.36597,-22.47855c-6.94662,-10.58606 -19.66538,-19.8199 -13.87591,-19.26207c33.98605,3.27466 25.88237,35.10363 24.9887,44.37863c-0.89367,9.275 -29.16928,14.13923 -63.15535,10.86457c-33.98605,-3.27466 -60.81277,-13.44816 -59.9191,-22.72316z" fill="#282828" stroke="none"/><path d="M-72.18446,664.96867c1.67032,-17.33544 30.20195,-28.76993 63.7272,-25.53967c33.52525,3.23026 59.34874,19.90205 57.67842,37.23746c-0.83316,8.64692 -2.32261,18.82777 -13.80822,23.45076c-11.54088,4.64521 -33.11615,3.70789 -49.91894,2.0889c-18.00396,-1.73473 -46.68809,-4.55341 -57.18439,-12.06215c-9.04888,-6.47332 -1.26736,-17.14946 -0.49405,-25.17529z" fill="none" stroke="#000000"/></g><g><path d="M-101.33518,668.55375c1.67032,-17.33544 14.72059,-30.26158 29.14855,-28.87141c14.42798,1.39018 24.77011,16.57025 23.09979,33.90569c-0.83316,8.64692 -2.0356,18.85543 -7.29017,24.07879c-5.27982,5.24846 -14.6271,5.48939 -21.85837,4.79264c-7.74821,-0.74656 -20.0898,-1.99059 -24.25367,-8.8892c-3.58969,-5.94731 0.38052,-16.9907 1.15384,-25.01651z" fill="#444444" stroke="#000000"/><path d="M-103.46278,685.12511c0.29041,-3.01397 4.79013,4.59195 14.70584,7.19456c10.63396,2.79116 26.93657,0.56151 33.72282,-4.13082c3.04156,-2.10309 3.30972,-13.03161 1.06302,-22.34086c-2.45026,-10.15283 -7.48846,-18.64662 -4.99688,-18.40655c14.62631,1.40929 9.36541,33.51217 8.47173,42.7872c-0.89367,9.275 -13.4751,15.65141 -28.10141,14.24212c-14.62631,-1.40929 -25.75881,-10.07061 -24.86513,-19.34561z" fill="#282828" stroke="none"/><path d="M-100.86371,669.4347c1.67032,-17.33544 14.72057,-30.26158 29.14855,-28.87141c14.42798,1.39018 24.7701,16.57027 23.09979,33.90569c-0.83316,8.64692 -2.0356,18.85543 -7.29017,24.07879c-5.27983,5.24849 -14.62705,5.48937 -21.85835,4.79262c-7.74821,-0.74656 -20.0898,-1.99056 -24.25367,-8.88916c-3.58969,-5.94731 0.38055,-16.9907 1.15386,-25.01651z" fill="none" stroke="#000000"/></g><g><path d="M-25.48856,678.57282c1.67032,-17.33544 14.72059,-30.26158 29.14855,-28.87141c14.42798,1.39018 24.77011,16.57025 23.09979,33.90569c-0.83316,8.64692 -2.0356,18.85543 -7.29015,24.07879c-5.27982,5.24846 -14.6271,5.48939 -21.8584,4.79263c-7.74821,-0.74656 -20.08977,-1.99058 -24.25364,-8.8892c-3.58969,-5.94731 0.38052,-16.9907 1.15384,-25.01651z" fill="#444444" stroke="#000000"/><path d="M-27.61614,695.14418c0.29041,-3.01397 4.79015,4.59195 14.70587,7.19456c10.63396,2.79116 26.93657,0.56151 33.72282,-4.13082c3.04156,-2.10309 3.3097,-13.03161 1.06299,-22.34088c-2.45026,-10.15283 -7.48843,-18.64662 -4.99686,-18.40655c14.62631,1.40929 9.36541,33.51217 8.47173,42.7872c-0.89367,9.275 -13.4751,15.65141 -28.10141,14.24212c-14.62631,-1.40929 -25.75881,-10.07061 -24.86513,-19.34561z" fill="#282828" stroke="none"/><path d="M-25.01707,679.45375c1.67032,-17.33544 14.72059,-30.26158 29.14857,-28.8714c14.42798,1.39018 24.7701,16.57027 23.09979,33.90569c-0.83316,8.64692 -2.0356,18.85543 -7.29017,24.07879c-5.27983,5.24849 -14.62707,5.48937 -21.85837,4.79261c-7.74821,-0.74656 -20.0898,-1.99056 -24.25367,-8.88916c-3.58969,-5.94731 0.38055,-16.9907 1.15386,-25.01651z" fill="none" stroke="#000000"/></g><g><path d="M-68.9729,670.31648c1.67032,-17.33544 14.72059,-30.2616 29.14855,-28.87143c14.42798,1.39018 24.7701,16.57027 23.09978,33.90571c-0.83316,8.64692 -2.0356,18.85543 -7.29017,24.07879c-5.27982,5.24846 -14.6271,5.48939 -21.85837,4.79264c-7.74821,-0.74656 -20.08977,-1.99058 -24.25364,-8.8892c-3.58969,-5.94731 0.38052,-16.99068 1.15384,-25.01651z" fill="#444444" stroke="#000000"/><path d="M-71.10047,686.88782c0.29041,-3.01397 4.79013,4.59192 14.70584,7.19456c10.63396,2.79116 26.93659,0.56152 33.72284,-4.13082c3.04156,-2.10309 3.30968,-13.03162 1.06299,-22.34086c-2.45026,-10.15283 -7.48843,-18.64662 -4.99686,-18.40655c14.62631,1.40929 9.36541,33.51217 8.47173,42.7872c-0.89367,9.275 -13.47507,15.65142 -28.10139,14.24213c-14.62631,-1.40929 -25.75881,-10.07061 -24.86513,-19.34561z" fill="#282828" stroke="none"/><path d="M-68.5014,671.19738c1.67032,-17.33544 14.72057,-30.26158 29.14855,-28.87141c14.42798,1.39018 24.7701,16.57027 23.09979,33.90569c-0.83316,8.64692 -2.0356,18.85543 -7.29015,24.07879c-5.27983,5.24849 -14.62709,5.48935 -21.85837,4.79259c-7.74821,-0.74656 -20.08977,-1.99056 -24.25365,-8.88915c-3.58969,-5.94731 0.38055,-16.9907 1.15386,-25.01651z" fill="none" stroke="#000000"/></g></g><g><path d="M206.56623,433.212l-24.70562,-109.88217l17.22033,-3.87179l24.70562,109.88217z" fill="#1b1b1b" stroke="#000000" stroke-linecap="butt"/><g data-paper-data="{&quot;index&quot;:null}"><path d="M197.80437,224.233c15.27434,3.77819 30.94514,123.65534 27.46879,137.70942c-0.38554,1.55865 -2.57567,-2.5294 -5.6195,-3.83283c-4.08964,-1.75126 -9.64613,-1.59455 -13.73094,-5.61621c-7.08662,-6.97708 -12.11716,-18.4441 -16.22021,-14.91786c-7.64367,6.56909 2.22462,59.28656 -5.13123,57.46705c-15.27436,-3.7782 -24.19443,-138.1494 -20.71808,-152.20348c1.72533,-6.97511 -1.45277,-16.18651 4.62406,-19.56131c6.16728,-3.42505 21.63348,-0.94783 29.3271,0.95523z" fill="#444444" stroke="#000000" stroke-linecap="butt"/><path d="M187.44459,332.69023c8.44861,2.08981 18.94474,6.35451 27.83082,9.5766c7.86427,2.85158 14.86309,4.04605 12.28116,14.48423c-1.31896,5.33225 -10.13709,4.68433 -18.74424,-2.02381c-8.04614,-6.27093 -15.83264,-18.58352 -19.22951,-15.51571c-8.12006,7.33346 4.69557,54.31877 -3.83988,52.20748c-15.92571,-3.93931 -27.09046,-125.10219 -21.59108,-147.33484c3.62837,-14.66866 6.57972,53.69618 16.08149,96.79937c4.89971,22.22657 0.27502,-5.14705 5.6933,-3.80681z" fill="#282828" stroke="none" stroke-linecap="butt"/><path d="M198.07354,223.145c15.27434,3.77819 30.94514,123.65534 27.46879,137.70942c-1.50157,6.07051 -8.23884,-8.74352 -14.60727,-2.25107c-3.40222,3.4685 -17.81366,-27.88785 -21.36683,-21.13387c-5.19377,9.87246 0.42432,57.75951 -4.72779,56.4851c-15.27436,-3.7782 -24.19443,-138.1494 -20.71808,-152.20348c1.84452,-7.45695 -2.35498,-18.47886 4.35055,-21.75929c5.93234,-2.90219 22.43065,1.37967 29.60058,3.15319z" fill="none" stroke="#000000" stroke-linecap="butt"/><path d="M170.17702,311.08598l49.93816,-20.30758" fill="none" stroke="#000000" stroke-linecap="round"/></g></g><g><path d="M38.67259,213.66463c7.92517,-0.07156 23.54489,1.09644 28.7525,5.85534c5.13123,4.68909 -0.09166,12.91537 -0.02678,20.1004c0.13072,14.47705 -39.63335,143.13943 -55.36741,143.28149c-15.73406,0.14206 -31.80948,-27.14132 -31.9402,-41.61837c-0.13072,-14.47705 42.84784,-127.47682 58.58188,-127.61889z" fill="#444444" stroke="#000000" stroke-linecap="butt"/><path d="M1.29445,357.92067c5.58134,-0.0504 17.57727,-6.21496 27.48606,-26.70505c19.21568,-39.73571 37.90275,-105.56318 38.03919,-90.45304c0.20679,22.90177 -38.6854,138.19485 -55.09041,138.34297c-16.40499,0.14812 -32.45229,-20.49905 -32.65907,-43.40083c-0.20679,-22.90177 5.81923,22.36407 22.22422,22.21595z" fill="#282828" stroke="none" stroke-linecap="butt"/><path d="M38.66244,212.54388c7.38573,-0.06669 24.42705,-0.41561 29.52705,3.78026c5.76471,4.74272 -0.87072,14.4941 -0.80136,22.17548c0.13072,14.47705 -39.63335,143.13943 -55.36741,143.28149c-15.73406,0.14206 -31.80948,-27.14132 -31.9402,-41.61837c-0.13072,-14.47705 42.84784,-127.47682 58.58188,-127.61889z" fill="none" stroke="#000000" stroke-linecap="butt"/><path d="M45.45751,304.55289l-43.8854,-31.30958" fill="none" stroke="#000000" stroke-linecap="round"/></g><g stroke-linecap="butt"><path d="M117.07769,301.39052c25.91758,2.49724 44.61927,28.48239 41.77136,58.03947c-0.89057,9.24281 15.4068,10.74462 15.28146,18.05582c-0.0443,2.58348 -15.2053,4.89101 -19.17996,8.70941c-4.84881,4.6582 1.11928,10.80628 -1.59415,12.93844c-4.20036,3.30056 -14.88929,-29.7288 -23.94724,-22.86069c-10.12782,7.67935 -16.59764,32.73584 -22.64466,32.15319c-25.91758,-2.49724 -44.61927,-28.48239 -41.77136,-58.03947c2.84791,-29.55709 26.16696,-51.49342 52.08456,-48.99618z" fill="#212121" stroke="#000000"/><path d="M85.47947,418.06506l13.89204,-144.17865l33.14911,3.19401l-13.89204,144.17865z" fill="#1b1b1b" stroke="#000000"/><path d="M117.68424,231.51503c13.76879,1.32666 36.26079,-9.74756 46.1633,20.85824c4.2026,12.98904 17.11777,87.77601 5.25323,121.57166c-5.29953,15.09551 -29.60551,-1.71417 -37.63656,4.97475c-12.0867,10.06683 -18.89901,-55.52021 -31.22201,-64.47054c-10.48872,-7.61807 -27.52371,41.54272 -27.78626,44.26758c-2.31604,24.03701 65.68449,67.48786 36.19046,64.64603c-29.49403,-2.84184 -62.81466,-15.32713 -60.49862,-39.36409c1.50478,-15.61733 4.48001,-103.31551 23.91082,-143.27841c10.47567,-21.54503 35.29443,-10.20066 45.62562,-9.20522z" fill="#444444" stroke="#000000"/><path d="M109.50089,422.22986c-0.88452,0.07792 -59.05614,9.83048 -62.18668,-39.85899c-1.43502,-22.77729 10.38965,-100.51782 22.29733,-132.69551c12.53082,-33.86156 25.17199,-21.65197 23.31267,-23.04728c-3.97092,-2.97991 -34.31837,98.78328 -37.98685,150.16531c-1.88083,26.34357 44.71143,39.61212 42.95015,37.47791c-10.49418,-12.71618 -35.98977,-45.53314 -37.29989,-46.88945c-5.45184,-5.64399 21.41818,-45.98016 20.35993,-50.61688c-1.53393,-6.72084 24.68108,-9.98645 26.51413,-9.53884c7.88773,1.92602 16.11166,54.16141 30.43915,66.86364c8.67044,7.68691 26.52468,-18.19115 28.05385,-23.96394c8.7661,-33.09319 -15.50342,-111.95202 -5.46983,-110.98525c16.76371,1.61523 14.73304,114.83853 13.52869,127.33781c-1.20434,12.49925 -10.51589,16.99166 -27.27963,15.37642c-3.14765,-0.30329 -14.51287,-1.87125 -20.16973,-12.0982c-10.70015,-19.34462 -17.7964,-53.27908 -28.40601,-53.06676c-8.60906,0.1723 -22.69591,24.02793 -26.00336,41.94946c-1.93806,10.50152 4.96909,20.51988 5.17247,18.40908c0.05147,-0.5342 50.07127,43.60488 32.17358,45.18153z" fill="#282828" stroke="none"/><path d="M118.77917,231.65389c13.76879,1.32666 36.26079,-9.74756 46.1633,20.85824c11.30956,34.95465 9.03265,112.75917 7.79782,125.57491c-0.23924,2.483 -19.19712,1.63275 -32.65146,0.26502c-6.62396,-0.67339 -9.03629,2.46975 -12.84964,-1.88268c-15.14724,-17.28849 -10.67391,-57.85203 -27.22889,-61.59043c-3.11872,-0.70427 -17.46819,24.1449 -21.91196,34.38576c-0.92138,2.12339 -1.34449,5.5676 -1.84118,5.51546c-4.26573,-0.44779 -1.81328,3.02532 -3.35172,4.25827c-12.03401,9.64446 52.47107,65.96967 36.83589,64.46317c-29.49403,-2.84184 -62.81466,-15.32713 -60.49862,-39.36409c1.50477,-15.61731 4.48001,-103.31551 23.91082,-143.27841c10.47567,-21.54503 35.29443,-10.20063 45.62561,-9.20519z" fill="none" stroke="#000000"/><path d="M119.0804,242.13806c22.79278,2.19615 37.62892,41.76534 33.13743,88.38025c-2.10348,21.83099 14.13865,57.07427 6.59571,48.78293c-3.39418,-3.73095 -21.14142,5.35026 -29.38292,-6.48109c-12.55102,-18.01801 -16.93602,-58.22213 -24.25104,-58.92695c-17.76129,-1.71135 -32.10037,54.85491 -35.45185,48.12474c-0.94942,-1.90654 -1.04137,-29.16241 -0.04988,-39.45258c4.49148,-46.6149 26.60974,-82.62343 49.40252,-80.42728z" fill="#b7b7b7" stroke="#000000"/><path d="M80.6797,280.89734c0.51635,-5.35896 7.33157,-24.60767 19.62476,-33.64342c5.24776,-3.85722 14.2759,-3.93707 19.68707,-3.41569c18.08716,1.74275 26.92439,35.72359 26.18762,43.3702c-0.73677,7.64661 -6.79135,-32.90195 -24.87852,-34.6447c-2.68358,-0.25857 -29.19399,12.87258 -35.32161,26.05284c-1.38091,2.97026 -18.4833,54.13665 -13.84253,58.11374c2.85815,2.44943 6.03946,-16.38267 15.03018,-25.31497c8.65319,-8.59696 23.09814,-7.35038 27.15712,-3.02284c8.83616,9.42079 15.76595,43.05092 23.20396,53.61949c10.09813,14.34827 19.31602,5.04821 18.60071,10.47606c-0.9773,7.416 -13.76643,12.29066 -29.97753,-7.96178c-7.37647,-9.21542 -15.55388,-49.21302 -23.48671,-51.52467c-14.6824,-4.27853 -33.89121,46.72544 -34.64765,46.30766c-3.52676,-1.94791 -1.46975,-30.06311 3.41728,-52.40009c2.76781,-12.65077 9.11472,-24.65089 9.24585,-26.01179z" fill="#989898" stroke="none"/><path d="M117.48285,241.98413c22.79278,2.19615 37.62892,41.76534 33.13743,88.38025c-2.10348,21.83099 14.13865,57.07427 6.59571,48.78293c-3.39418,-3.73095 -21.14142,5.35026 -29.38292,-6.48109c-12.55102,-18.01801 -16.93602,-58.22213 -24.25104,-58.92695c-17.76129,-1.71135 -32.10037,54.85491 -35.45185,48.12474c-0.94942,-1.90654 -1.04137,-29.16241 -0.04988,-39.45258c4.49148,-46.6149 26.60974,-82.62343 49.40252,-80.42728z" fill="none" stroke="#000000"/></g><g stroke-linecap="butt"><path d="M174.29544,248.14632c-0.3188,3.18806 -0.97759,37.58452 -15.31498,36.25341c-14.33741,-1.33111 -36.9241,-37.88571 -36.6053,-41.07377c0.3188,-3.18806 28.70376,-32.67995 43.04117,-31.34883c14.33741,1.33111 9.19791,32.98115 8.87911,36.1692z" data-paper-data="{&quot;index&quot;:null}" fill="#de3636" stroke="#000000"/><path d="M175.96995,247.525c-0.3188,3.18806 -0.97759,37.58452 -15.31498,36.25341c-14.33741,-1.33111 -36.9241,-37.88571 -36.6053,-41.07377c0.3188,-3.18806 28.70376,-32.67995 43.04117,-31.34883c14.33741,1.33111 9.19791,32.98115 8.87911,36.1692z" data-paper-data="{&quot;index&quot;:null}" fill="#de3636" stroke="#000000"/><path d="M175.07029,252.49074c-0.74386,7.43878 -1.58349,32.0906 -14.37684,30.90284c-12.79337,-1.18776 -32.69589,-27.76529 -31.95203,-35.2041c0.30094,-3.00952 26.59566,28.29144 32.4262,21.72429c8.5811,-9.66519 -1.48734,-57.30396 6.13018,-56.59674c12.79337,1.18776 8.51634,31.73491 7.77248,39.1737z" data-paper-data="{&quot;index&quot;:null}" fill="#b72c2c" stroke="none"/><path d="M174.73331,247.79859c-0.3188,3.18806 -0.97759,37.58452 -15.31498,36.25341c-14.33741,-1.33111 -36.9241,-37.88571 -36.6053,-41.07377c0.3188,-3.18806 28.70376,-32.67995 43.04117,-31.34883c14.33741,1.33111 9.19791,32.98115 8.87911,36.1692z" data-paper-data="{&quot;index&quot;:null}" fill="none" stroke="#000000"/><path d="M75.21336,205.15617c14.33741,1.33111 36.35622,35.50257 36.03742,38.69062c-0.3188,3.18806 -29.73343,34.91478 -44.07083,33.58367c-14.33741,-1.33111 -8.16824,-35.21598 -7.84945,-38.40403c0.3188,-3.18806 1.54547,-35.20137 15.88286,-33.87026z" data-paper-data="{&quot;index&quot;:null}" fill="#de3636" stroke="#000000"/><path d="M74.62157,207.04326c7.61752,0.70722 -11.70551,45.61725 -5.1975,56.68333c4.42196,7.51902 36.43537,-18.36853 36.13443,-15.35901c-0.74386,7.43878 -25.54669,29.86581 -38.34006,28.67805c-12.79337,-1.18776 -8.73267,-25.5405 -7.98881,-32.97931c0.74386,-7.43878 2.59859,-38.21083 15.39194,-37.02308z" fill="#b72c2c" stroke="none"/><path d="M76.37304,205.65225c14.33741,1.33111 36.35622,35.50257 36.03742,38.69062c-0.3188,3.18806 -29.73343,34.91478 -44.07083,33.58367c-14.33741,-1.33111 -8.16824,-35.21598 -7.84945,-38.40403c0.3188,-3.18806 1.54547,-35.20137 15.88286,-33.87026z" fill="none" stroke="#000000"/><path d="M114.54152,227.06251c8.82301,0.81914 15.27354,8.50261 14.40768,17.16152c-0.86587,8.65891 -8.72027,15.01429 -17.54325,14.19515c-8.82301,-0.81914 -15.27354,-8.50261 -14.40768,-17.16152c0.86587,-8.65891 8.72024,-15.01429 17.54325,-14.19515z" fill="#de3636" stroke="#000000"/><path d="M103.61872,231.48606c4.13283,0.3837 -1.85002,16.27597 3.34474,20.50773c5.61803,4.57659 22.25856,-2.43571 22.08188,-0.66885c-0.32002,3.20024 -6.99008,7.56585 -14.91754,7.1314c-0.49626,-0.02718 -0.27655,0.77967 -0.78334,0.73262c-8.60244,-0.79866 -15.79133,-7.35565 -15.45128,-10.75623c0.34005,-3.40061 -2.87688,-17.74531 5.72556,-16.94665z" fill="#b72c2c" stroke="none"/><path d="M114.90245,227.4844c8.82301,0.81914 15.27354,8.50263 14.40767,17.16155c-0.86587,8.65893 -8.72025,15.01431 -17.54325,14.19517c-8.82301,-0.81914 -15.27354,-8.50263 -14.40767,-17.16155c0.86587,-8.65893 8.72025,-15.01431 17.54325,-14.19517z" fill="none" stroke="#000000"/></g><g><path d="M88.01708,224.57725l6.33892,-57.04648l73.29609,8.14456l-6.33892,57.04648z" fill="#1b1b1b" stroke="#000000" stroke-linecap="butt"/><path d="M81.0639,227.30468l1.80563,-16.2496l82.63096,9.18184l-1.80563,16.2496z" fill="#7c7c7c" stroke="none" stroke-linecap="butt"/><path d="M105.16955,210.38295c8.43344,0.93711 -25.87926,6.43052 -11.29108,11.98459c8.69782,3.31143 70.63045,6.79325 70.39269,8.93293c-0.63653,5.72837 -47.94505,1.32252 -61.40665,-0.17333c-13.46162,-1.49583 -23.8584,-7.35222 -23.22188,-13.08054c0.63653,-5.72837 12.06534,-9.15948 25.52693,-7.66364z" fill="#585858" stroke="none" stroke-linecap="butt"/><path d="M77.69378,212.06673l1.49828,-13.48372l90.92865,10.10386l-1.49828,13.48372z" fill="#e1e1e1" stroke="#000000" stroke-linecap="butt"/><path d="M77.64506,207.6745c0.05055,-0.45494 0.70105,-6.3765 4.71213,-8.36978c3.24586,-1.61299 9.76631,0.55299 11.50349,0.77991c4.22116,0.5513 -5.24017,4.45686 -0.86304,7.62339c3.79695,2.7468 21.14489,4.76632 28.10423,5.67215c11.88515,1.54695 24.92417,0.49273 33.96897,1.49777c26.06395,2.89621 17.38463,-0.53429 16.96029,3.28464c-0.42435,3.81891 -21.89738,4.56689 -47.96136,1.6707c-26.06395,-2.89621 -46.84899,-8.33983 -46.42465,-12.15873z" fill="#bfbfbf" stroke="none" stroke-linecap="butt"/><g data-paper-data="{&quot;index&quot;:null}" stroke-linecap="butt"><path d="M270.58655,99.54486c-10.62395,1.95475 -26.28432,13.97446 -33.5682,11.06942c-8.46935,-3.37781 -7.72869,-22.42 -7.59924,-30.44627c0.1282,-7.94872 3.9108,-23.97349 12.39626,-30.46614c7.45186,-5.70178 18.89973,-2.24354 29.64304,-4.22026c22.97692,-4.22764 41.4082,4.44767 41.16747,19.37684c-0.24075,14.92913 -19.06239,30.4588 -42.03932,34.68644z" fill="#444444" stroke="#000000"/><path d="M255.92319,103.89139c-0.84426,0.823 -2.5307,0.67799 -3.38016,1.41392c-7.30116,6.32546 -15.07354,8.68843 -17.41675,6.09178c-2.61581,-2.89876 -2.23855,-52.36946 5.8621,-60.26608c4.26544,-4.15803 -7.53766,24.93962 9.25419,32.61782c15.09814,6.90375 59.0878,-7.80363 60.32625,-6.43122c1.79237,1.98621 -17.03224,12.60229 -34.40413,19.5472c-7.9811,3.19067 -17.69137,4.54073 -20.24148,7.02657z" fill="#282828" stroke="none"/><path d="M294.92708,85.61498c-11.40092,11.11376 -49.65606,21.1646 -52.04105,18.52161c-2.38499,-2.64301 -9.36875,-28.87928 2.03217,-39.99303c11.40092,-11.11376 63.6144,-3.43322 65.99941,-0.79025c2.38499,2.64301 -4.58961,11.1479 -15.99056,22.26168z" fill="#b7b7b7" stroke="#000000"/><path d="M304.57856,66.90755c-2.10712,2.05405 9.37689,3.89715 3.19245,10.27387c-5.2388,5.40165 -27.61731,15.29126 -35.34075,18.49391c-11.23626,4.65929 -21.72762,7.86462 -27.96814,7.45832c-3.15268,-0.20529 -4.61877,-2.3511 -5.7703,-3.62718c-2.48804,-2.75717 -1.88055,-7.595 -2.38482,-11.14774c-1.44448,-10.17725 3.49981,-22.06907 13.99003,-24.557c19.08247,-4.52573 49.92513,-3.23054 54.86653,2.2454c0.61469,0.6812 -19.35108,-1.62713 -36.32708,-0.35311c-12.28604,0.92204 -22.51517,4.62375 -24.59579,8.36479c-3.98135,7.15865 1.77566,24.70236 4.48435,24.89739c7.22338,0.52014 25.06779,-3.40634 37.08488,-11.55422c14.11342,-9.56921 21.80604,-23.45533 18.76862,-20.49443z" fill="#989898" stroke="none"/><path d="M293.82553,86.67512c-11.40092,11.11376 -49.65606,21.1646 -52.04105,18.52161c-2.38499,-2.64301 -9.36875,-28.87928 2.03217,-39.99303c11.40092,-11.11376 63.6144,-3.43322 65.99941,-0.79025c2.38499,2.64301 -4.58961,11.1479 -15.99056,22.26168z" fill="none" stroke="#000000"/><path d="M269.93073,99.59017c-10.62395,1.95475 -17.81513,9.78096 -25.09905,6.87594c-8.46935,-3.37781 -8.17408,-13.86108 -8.04466,-21.88734c0.1282,-7.94872 -4.11296,-28.33892 4.37256,-34.83157c7.45186,-5.70178 18.89973,-2.24354 29.64304,-4.22026c22.97692,-4.22764 41.4082,4.44767 41.16747,19.37684c-0.24075,14.92913 -19.06239,30.4588 -42.03932,34.68644z" fill="none" stroke="#000000"/></g><g data-paper-data="{&quot;index&quot;:null}" stroke-linecap="butt"><path d="M234.86566,108.30265c-10.21363,5.51405 -20.94397,22.42016 -29.95582,22.12278c-10.4785,-0.34579 -18.71462,-18.89072 -22.37774,-26.64494c-3.62776,-7.67923 -7.24638,-24.36697 -1.42262,-33.50814c5.11432,-8.02764 18.75373,-8.62408 29.08212,-14.20012c22.08947,-11.92551 36.22138,-3.51685 43.03495,10.90616c6.81357,14.42301 3.7286,29.3987 -18.36086,41.32422z" fill="#444444" stroke="#000000"/><path d="M221.54893,117.4968c-0.49567,1.07953 -2.33247,1.51745 -2.87477,2.51515c-4.66113,8.57518 -11.69181,13.50531 -15.37756,11.81304c-4.11455,-1.88916 -27.13355,-49.53869 -22.37779,-59.89671c0.68729,-1.49695 15.11981,-10.64506 16.07343,-7.90251c0.80155,2.30518 -4.12994,6.24972 -4.48407,11.17127c-0.75967,10.55673 3.04104,24.09008 13.55135,24.89568c19.09737,1.46379 46.11713,-22.08073 48.06517,-21.1863c2.81931,1.29446 0.24772,12.29543 -14.67901,24.91262c-6.85774,5.79664 -16.39962,10.41713 -17.89673,13.67783z" fill="#282828" stroke="none"/><path d="M253.79274,86.59061c-6.69328,14.57793 -42.04523,37.32651 -45.79672,35.60406c-3.75151,-1.72246 -23.49134,-24.53406 -16.79808,-39.11199c6.69328,-14.57793 50.51483,-21.10234 54.26631,-19.37987c3.75151,1.72246 15.02177,8.3099 8.32849,22.88783z" fill="#b7b7b7" stroke="#000000"/><path d="M245.25586,65.86311c-1.23705,2.69429 12.41773,8.16376 8.95168,16.40594c-2.93608,6.98182 -12.65829,15.96559 -19.24025,21.68556c-14.41308,12.52555 -32.05564,20.40451 -37.45231,17.9267c-10.77049,-4.9451 -15.78914,-17.03976 -11.20954,-27.01414c1.2747,-2.77627 3.4797,-9.75797 10.3702,-13.95385c17.86522,-10.87884 43.43054,-17.97527 51.20315,-14.40655c0.9669,0.44397 -13.67392,2.84419 -30.86963,9.87855c-12.44505,5.09094 -21.41786,12.14798 -21.82864,16.45372c-0.78609,8.23917 13.55334,23.12074 16.48564,22.38099c7.81962,-1.97278 24.67038,-11.85227 33.41348,-23.79216c10.26825,-14.02271 1.95947,-29.44853 0.17625,-25.56469z" fill="#989898" stroke="none"/><path d="M253.1396,87.98601c-6.69328,14.57793 -42.04523,37.32651 -45.79672,35.60406c-3.75151,-1.72246 -23.49134,-24.53406 -16.79808,-39.11199c6.69328,-14.57793 54.00772,-20.62002 57.75923,-18.89756c3.75151,1.72246 11.52884,7.82757 4.83557,22.4055z" fill="none" stroke="#000000"/><path d="M234.19953,108.57065c-10.21363,5.51405 -20.94397,22.42016 -29.95582,22.12278c-10.4785,-0.34579 -18.71462,-18.89072 -22.37774,-26.64494c-3.62776,-7.67923 -7.24638,-24.36697 -1.42262,-33.50814c5.11432,-8.02764 18.75373,-8.62408 29.08212,-14.20012c22.08947,-11.92551 35.18431,1.05331 41.99785,15.47634c6.81357,14.42301 4.76569,24.82855 -17.32379,36.75406z" fill="none" stroke="#000000"/></g><g stroke-linecap="butt"><path d="M12.75147,-5.56614c7.48325,-12.9205 27.74995,-10.86308 45.26702,4.59536c8.19049,7.22794 19.7842,10.16015 23.23472,18.88566c3.92915,9.93581 -1.08252,25.61971 -5.06681,32.49896c-4.02314,6.94639 -13.19637,23.64979 -22.19566,22.18277c-7.73969,-1.2617 -14.97193,-19.63054 -23.07137,-26.77815c-17.51705,-15.45847 -25.65112,-38.46413 -18.16792,-51.38463z" fill="#444444" stroke="#000000"/><path d="M41.24925,57.09679c-0.90538,-3.44422 -8.53318,-9.60291 -13.73075,-16.44861c-11.31317,-14.90059 -21.98057,-33.69609 -19.42121,-34.47542c1.76842,-0.53848 31.8987,34.72573 48.39595,36.5848c18.3479,2.06765 23.21826,-28.95274 24.7327,-23.19169c2.87612,10.941 -22.28144,53.53895 -26.01662,54.6763c-3.34592,1.01881 -8.79092,-5.00992 -11.79102,-14.1924c-0.34906,-1.06835 -1.86931,-1.81269 -2.16902,-2.95297z" fill="#282828" stroke="none"/><path d="M17.23086,21.34143c-4.04789,-15.39841 -5.64554,-26.28083 -2.23992,-27.31779c3.40559,-1.03699 52.11631,19.27333 56.16419,34.67174c4.04789,15.39841 -15.45176,34.28968 -18.85739,35.32665c-3.40559,1.03699 -31.01902,-27.28218 -35.0669,-42.68059z" fill="#b7b7b7" stroke="#000000"/><path d="M18.59374,0.33517c-1.07844,-4.10243 -1.63707,11.7623 5.53137,27.23394c6.10369,13.17359 19.37658,25.73031 25.83599,29.00505c2.42222,1.22799 16.39306,-10.84429 16.66768,-19.031c0.14352,-4.27831 -6.71772,-12.71994 -16.77372,-19.83845c-13.89471,-9.83591 -32.19732,-18.14109 -31.31956,-18.40837c7.056,-2.14848 34.15983,12.6275 48.18526,26.33556c7.7102,7.53573 5.82305,20.27544 -0.65707,28.25484c-2.26213,2.78548 -4.23325,7.24513 -7.78605,8.32691c-1.64432,0.50067 -4.00621,1.58483 -6.81426,0.1369c-5.55835,-2.86601 -12.89997,-11.01727 -20.13128,-20.79847c-4.97051,-6.72325 -19.05835,-26.72662 -20.76655,-34.05499c-2.01654,-8.65125 8.77629,-4.31595 8.02818,-7.1619z" fill="#989898" stroke="none"/><path d="M17.62896,22.81752c-4.04789,-15.39841 -5.64554,-26.28083 -2.23992,-27.31779c3.40559,-1.03699 52.11631,19.27333 56.16419,34.67174c4.04789,15.39841 -15.45176,34.28968 -18.85739,35.32665c-3.40559,1.03699 -31.01902,-27.28218 -35.0669,-42.68059z" fill="none" stroke="#000000"/><path d="M13.29025,-5.18949c7.48325,-12.9205 27.74995,-10.86308 45.26702,4.59536c8.19049,7.22794 19.7842,10.16015 23.23472,18.88566c3.92915,9.93581 -10.20857,25.22874 -14.19284,32.108c-4.02314,6.94639 -9.16973,16.08417 -18.169,14.61712c-7.73969,-1.2617 -9.87252,-11.67389 -17.97198,-18.8215c-17.51705,-15.45847 -25.65112,-38.46413 -18.16792,-51.38463z" fill="none" stroke="#000000"/></g><g stroke-linecap="butt"><path d="M62.57351,26.84591c13.2691,-8.85322 29.71327,-8.78171 42.50476,12.81787c5.98089,10.09932 17.36468,17.63585 17.6136,27.15094c0.28346,10.83495 -11.41361,23.27494 -18.47847,27.98866c-7.13381,4.75969 -23.74535,16.4133 -32.90504,11.31249c-7.87769,-4.38684 -8.36731,-24.40474 -14.28175,-34.39184c-12.79143,-21.59958 -7.72215,-36.02492 5.54694,-44.87811z" fill="#444444" stroke="#000000"/><path d="M55.41028,65.52182c-6.29567,-18.5031 -2.83363,-29.25713 0.24967,-28.91452c2.13042,0.23672 13.16327,34.33495 30.28648,42.91677c9.42382,4.72304 19.65223,-4.91939 24.43855,-14.35935c2.23137,-4.40087 0.03609,-10.32198 1.91044,-11.88503c2.23002,-1.85956 9.88885,13.41546 9.70695,15.05257c-1.25873,11.32788 -45.53234,40.31418 -50.03217,39.81415c-4.03086,-0.44789 -7.5178,-8.29504 -7.09628,-18.04603c0.04904,-1.1345 -1.29979,-2.45598 -1.16862,-3.63659c0.39625,-3.56601 -5.40269,-12.4412 -8.29508,-20.94198z" fill="#282828" stroke="none"/><path d="M51.98647,43.3648c1.77155,-15.94295 14.82483,-15.78436 18.92763,-15.32847c4.10278,0.45589 38.30376,28.61946 36.5322,44.56245c-1.77156,15.94294 -30.44111,25.32843 -34.54389,24.87255c-4.10278,-0.45589 -22.68747,-38.16355 -20.91592,-54.1065z" fill="#b7b7b7" stroke="#000000"/><path d="M69.98003,29.99535c0.47197,-4.24749 -14.59526,4.6951 -13.01656,22.00351c1.34419,14.73752 10.69915,31.88506 16.38561,37.6037c2.13239,2.14443 22.08846,-3.22547 25.65839,-10.69254c1.86565,-3.90224 -2.19055,-14.57278 -10.23557,-25.34657c-11.11606,-14.88647 -22.42908,-24.48495 -21.37165,-24.36745c8.50042,0.94455 26.75849,20.19517 36.46821,38.72182c3.74498,7.14562 2.03896,14.26569 1.70158,17.30193c-1.21212,10.90834 -11.74348,18.69025 -23.52246,17.38139c-5.90199,-0.65584 -16.96607,-16.49642 -22.86864,-34.65646c-2.69549,-8.29299 -6.40159,-21.00105 -5.3221,-28.49783c1.27436,-8.85002 15.79569,-6.50497 16.1231,-9.45153z" fill="#989898" stroke="none"/><path d="M51.82759,44.89729c1.77155,-15.94295 11.58244,-17.17007 15.68523,-16.71416c4.10278,0.45589 41.54614,30.00516 39.7746,45.94813c-1.77156,15.94294 -30.44111,25.32843 -34.54389,24.87255c-4.10278,-0.45589 -22.68747,-38.16355 -20.91592,-54.1065z" fill="none" stroke="#000000"/><path d="M61.5414,31.87024c13.2691,-8.85322 31.17833,-13.2332 43.96977,8.36638c5.98089,10.09932 17.36468,17.63585 17.6136,27.15094c0.28346,10.83495 -11.41361,23.27494 -18.47847,27.98866c-7.13381,4.75969 -23.74535,16.4133 -32.90504,11.31249c-7.87769,-4.38684 -8.36731,-24.40474 -14.28175,-34.39184c-12.79143,-21.59958 -9.1872,-31.57343 4.08194,-40.42661z" fill="none" stroke="#000000"/></g><g><g><path d="M66.38959,181.8177c-18.02543,-33.31612 -4.45194,-87.92772 13.85542,-97.8328c11.32568,-6.12768 55.30282,-18.9802 80.58514,-5.28349c15.5852,8.4433 35.08768,14.29498 41.96188,27.00036c18.02543,33.31612 2.93318,85.26955 -15.37418,95.17462c-9.05815,4.90083 -36.42814,-1.18071 -60.63673,-4.80084c-24.71937,-3.69653 -51.28471,2.57411 -60.39151,-14.25788z" fill="#444444" stroke="#000000" stroke-linecap="butt"/><path d="M57.47333,148.37387c0.2338,-2.10402 -2.7657,-31.84226 8.67384,-50.14823c9.75487,-15.61016 32.68362,-19.8468 47.9844,-24.83039c36.36385,-11.84401 83.35921,25.85782 86.18002,26.17125c1.88766,0.20976 -29.05683,-19.08242 -60.30084,-23.32381c-15.251,-2.07033 -31.53563,4.94916 -42.24986,8.94595c-8.35274,3.11587 -22.8803,9.58167 -26.16046,16.87239c-8.54908,19.00184 -6.68837,45.65548 -7.00284,48.48551c-0.90697,8.16217 6.41002,14.29263 1.01043,13.69262c-5.39958,-0.59998 -9.04157,-7.70316 -8.13461,-15.8653z" fill="#282828" stroke="none" stroke-linecap="butt"/><path d="M97.47638,90.46065c4.39561,0.48843 24.66364,17.92809 47.71674,24.07855c20.59947,5.49585 43.97434,-0.72501 51.40783,7.14524c5.6567,5.98904 -3.34927,26.28499 -2.22569,35.01497c1.60089,12.4385 11.73733,13.33139 11.2145,18.03651c-1.91162,17.20336 -58.54987,-6.9723 -74.12078,-8.70252c-15.57091,-1.73022 -26.64397,-17.07893 -24.73237,-34.28227c1.91162,-17.20336 -24.83115,-43.02063 -9.26023,-41.29043z" fill="#282828" stroke="none" stroke-linecap="butt"/><path d="M66.30842,181.19836c-18.02543,-33.31612 -4.45194,-87.92772 13.85542,-97.8328c11.32568,-6.12768 55.30282,-18.9802 80.58514,-5.28349c15.5852,8.4433 35.08768,14.29498 41.96188,27.00036c18.02543,33.31612 2.93318,85.26955 -15.37418,95.17462c-9.05815,4.90083 -36.42814,-1.18071 -60.63672,-4.80087c-24.71937,-3.69653 -51.28471,2.57411 -60.3915,-14.25786z" fill="none" stroke="#000000" stroke-linecap="butt"/><path d="M80.61349,133.18321c0.74854,-6.73639 2.26089,-30.13666 11.08005,-36.04581c10.27422,-6.88413 28.43068,4.26793 35.41296,5.04378c12.97563,1.44184 2.1165,21.63918 0.49594,36.22335c-1.62057,14.58419 -13.45315,25.23816 -26.42877,23.79633c-12.97563,-1.44184 -22.18074,-14.43347 -20.56015,-29.01768z" fill="#000000" stroke="#000000" stroke-linecap="butt"/><path d="M190.72911,151.32502c-1.24373,11.19288 -12.77082,19.09768 -25.74645,17.65584c-12.97563,-1.44184 -22.48621,-11.6843 -21.24248,-22.87718c1.24373,-11.19288 -5.46293,-28.36496 7.51269,-26.92315c6.98224,0.77585 26.91087,-4.02016 35.62804,3.108c7.48263,6.11865 4.4227,23.86655 3.8482,29.0365z" data-paper-data="{&quot;index&quot;:null}" fill="#000000" stroke="#000000" stroke-linecap="butt"/><path d="M69.00491,182.25421c0.08388,-0.75496 -5.84166,-8.22853 -5.45986,-9.06776c1.36636,-3.00323 -7.95461,-13.42272 -1.61223,-15.2754c14.28988,-4.17421 51.6587,2.59717 69.11855,4.5373c18.90391,2.10057 59.02821,5.43504 70.31871,15.44333c5.05928,4.48469 -10.36981,16.77031 -10.69795,19.72342c-1.06046,9.54349 -35.73264,-0.7481 -63.10735,-3.78995c-27.37469,-3.04183 -59.62038,-2.0275 -58.55992,-11.57098z" fill="#b7b7b7" stroke="#000000" stroke-linecap="butt"/><path d="M68.88967,181.99799c0.1244,-1.11954 -12.13045,-21.52483 -9.96032,-22.30115c4.02103,-1.43847 15.30239,17.35009 27.7835,21.74493c14.02725,4.93925 32.67837,7.54892 46.82515,9.12089c12.58094,1.39798 30.23786,6.86979 42.84088,4.12404c11.73082,-2.55569 18.71176,-13.31788 22.81358,-12.80904c3.23538,0.40135 -8.71907,12.08956 -8.88819,13.61171c-0.60428,5.43811 -23.88888,4.10759 -56.70165,0.60128c-0.52531,-0.05612 -3.22475,-1.27569 -3.75307,-1.33438c-33.52771,-3.72555 -61.57383,-7.23319 -60.95987,-12.75833z" fill="#989898" stroke="none" stroke-linecap="butt"/><path d="M68.8227,182.54431c0.0839,-0.75493 -5.84169,-8.22853 -5.45989,-9.06774c1.36636,-3.00323 -7.95461,-13.42272 -1.61225,-15.27539c14.28988,-4.17421 51.65872,2.59718 69.11858,4.5373c18.90391,2.10057 59.02819,5.43504 70.31871,15.44333c5.05928,4.48469 -10.36981,16.77031 -10.69795,19.72342c-1.06046,9.54349 -35.73264,-0.7481 -63.10735,-3.78995c-27.37468,-3.04183 -59.62037,-2.0275 -58.55989,-11.57095z" fill="none" stroke="#000000" stroke-linecap="butt"/><path d="M132.89024,161.12165c15.57091,1.73022 27.82037,6.49212 27.3599,10.63599c-0.46045,4.14386 -13.45648,6.10054 -29.02737,4.37032c-15.57091,-1.73022 -27.82037,-6.49212 -27.3599,-10.63599c0.46045,-4.14386 13.45648,-6.10054 29.02737,-4.37032z" fill="#000000" stroke="#000000" stroke-linecap="butt"/><path d="M72.15536,159.43406l7.8316,-4.19362l7.27578,0.80849l-6.41689,8.03364l-1.21268,6.77051" fill="none" stroke="#000000" stroke-linecap="round"/><path d="M83.42271,161.60681l15.00633,-2.47569" fill="none" stroke="#000000" stroke-linecap="round"/><path d="M88.87952,170.49948l1.01059,-9.09475" fill="none" stroke="#000000" stroke-linecap="round"/><path d="M94.95677,160.17112l11.77259,5.91168" fill="none" stroke="#000000" stroke-linecap="round"/><path d="M95.39731,178.12901l2.07169,-14.50104" fill="none" stroke="#000000" stroke-linecap="round"/><path d="M184.98062,154.93811l3.08196,17.83581l-25.16208,-1.41492l0.60635,-5.45682" fill="none" stroke="#000000" stroke-linecap="round"/><path d="M171.08584,159.83906l13.03571,6.97271" fill="none" stroke="#000000" stroke-linecap="round"/><path d="M165.27519,178.98847l3.43589,-14.34944" fill="none" stroke="#000000" stroke-linecap="round"/><path d="M174.57209,169.8938l-3.28433,17.12839" fill="none" stroke="#000000" stroke-linecap="round"/><path d="M181.0899,181.66649l-0.80835,-9.29686" fill="none" stroke="#000000" stroke-linecap="round"/><path d="M188.2141,183.83913l-2.6273,-13.6421" fill="none" stroke="#000000" stroke-linecap="round"/></g><path d="M189.62943,104.81603l0.5053,-4.54738l5.35579,-2.62733" fill="none" stroke="#000000" stroke-linecap="round"/><path d="M111.51587,91.07229l-0.75791,2.67788l-2.52631,2.02101" fill="none" stroke="#000000" stroke-linecap="round"/></g><path d="M81.14073,226.61322l1.3062,-11.75502l82.63096,9.18184l-1.3062,11.75502z" fill="none" stroke="#000000" stroke-linecap="butt"/><path d="M78.56702,211.97699l1.49828,-13.48372l90.92865,10.10386l-1.49828,13.48372z" fill="none" stroke="#000000" stroke-linecap="butt"/><path d="M99.84904,212.59182l1.49825,-10.33369" fill="none" stroke="#000000" stroke-linecap="round"/><path d="M132.80929,205.75415l-1.0757,9.68062" fill="none" stroke="#000000" stroke-linecap="round"/><path d="M154.43696,219.00752l-1.19077,-11.33249" fill="none" stroke="#000000" stroke-linecap="round"/></g></g></g></svg>