<svg version="1.1" xmlns="http://www.w3.org/2000/svg" xmlns:xlink="http://www.w3.org/1999/xlink" width="146.5" height="116.88407" viewBox="0,0,146.5,116.88407"><defs><radialGradient cx="220.05044" cy="165.11751" r="50.96394" gradientUnits="userSpaceOnUse" id="color-1"><stop offset="0" stop-color="#000000" stop-opacity="0"/><stop offset="1" stop-color="#000000"/></radialGradient></defs><g transform="translate(-166.75,-119.36593)"><g data-paper-data="{&quot;isPaintingLayer&quot;:true}" fill-rule="nonzero" stroke-linejoin="miter" stroke-miterlimit="10" stroke-dasharray="" stroke-dashoffset="0" style="mix-blend-mode: normal"><path d="M168.5,234.5v-109h143v109z" fill="#191919" stroke="#000000" stroke-width="3.5" stroke-linecap="butt"/><path d="M168.5,210.5v-87h99v87z" fill="#000000" stroke="#000000" stroke-width="3.5" stroke-linecap="butt"/><path d="M266.5,208.5l43,26" fill="none" stroke="#000000" stroke-width="3.5" stroke-linecap="round"/><path d="M266.5,128.5h42" fill="none" stroke="#000000" stroke-width="3.5" stroke-linecap="round"/><g stroke-linecap="butt"><g><path d="M192.00216,190.72678c-5.89453,-14.25139 2.22633,-31.13973 18.13846,-37.72116c15.91213,-6.58143 33.58991,-0.36369 39.48444,13.8877c5.89453,14.25139 -2.22633,31.13973 -18.13846,37.72116c-15.91213,6.58143 -33.58991,0.36368 -39.48444,-13.88771z" fill="#ffbea9" stroke="#000000" stroke-width="0"/><path d="M245.28107,161.80466c-11.86413,-7.60933 -19.29864,-17.18196 -16.60545,-21.38107c2.69319,-4.1991 14.49423,-1.43456 26.35836,6.17478c11.86413,7.60934 19.29863,17.18197 16.60544,21.38107c-2.69319,4.1991 -14.49423,1.43456 -26.35836,-6.17478z" fill="#1000ff" stroke="#000000" stroke-width="0"/><path d="M248.53436,163.40636c-1.05926,-2.56101 -15.51639,-6.25319 -10.61389,-8.28092c4.9025,-2.02773 13.53207,5.83322 14.59133,8.39422c0.31752,0.76768 11.6674,4.55793 13.59244,1.20284c1.3201,-2.30076 -1.70309,-10.27192 -0.10493,-9.89442c3.84593,0.90847 6.94039,13.32705 4.51523,14.33012c-4.9025,2.02773 -20.92093,-3.19084 -21.98019,-5.75185z" fill="#0c00b3" stroke="none" stroke-width="0"/><path d="M228.30104,140.26822c2.69319,-4.1991 14.49423,-1.43456 26.35836,6.17478c11.86413,7.60933 19.29864,17.18196 16.60545,21.38107c-2.69319,4.1991 -14.49423,1.43456 -26.35836,-6.17478c-11.86413,-7.60933 -19.29864,-17.18196 -16.60545,-21.38107z" fill="none" stroke="#000000" stroke-width="3.5"/><path d="M220.61464,123.28787c12.80504,-5.2963 26.91477,-0.57356 31.51498,10.54852c4.60021,11.12209 -2.05111,24.43182 -14.85614,29.72812c-12.80503,5.2963 -26.91477,0.57355 -31.51498,-10.54853c-4.60021,-11.12208 2.0511,-24.43181 14.85613,-29.72811z" fill="#ff0000" stroke="#000000" stroke-width="0"/><path d="M227.37569,152.76352c-2.23958,-5.4147 -17.92492,-23.61692 -10.82727,-26.55258c4.14195,-1.71315 12.65581,21.12441 21.70589,23.79593c6.45815,1.90641 14.5048,-16.89929 15.43744,-14.64442c2.23958,5.4147 -2.31187,18.95411 -9.40952,21.88977c-7.09765,2.93566 -14.66696,0.92601 -16.90654,-4.48869z" fill="#dc0000" stroke="none" stroke-width="0"/><path d="M220.61465,123.28788c12.80504,-5.2963 26.91477,-0.57356 31.51498,10.54852c4.60021,11.12208 -2.05111,24.43181 -14.85614,29.72811c-12.80504,5.2963 -26.91477,0.57356 -31.51498,-10.54852c-4.60021,-11.12208 2.05111,-24.43181 14.85614,-29.72811z" fill="none" stroke="#000000" stroke-width="3.5"/><path d="M201.42131,199.96636c-0.73482,-1.7766 14.8279,6.4787 29.34964,0.47236c14.52174,-6.00635 20.6369,-22.57269 21.37172,-20.79609c0.73482,1.7766 -4.93586,17.4376 -19.4576,23.44395c-14.52174,6.00635 -30.52893,-1.34361 -31.26375,-3.12021z" fill="#ff9d7d" stroke="none" stroke-width="0"/><path d="M177.38435,182.89328c0,0 3.74248,-51.55082 17.74955,-56.85112c14.00705,-5.30029 41.52608,12.36813 46.82637,26.37519c5.30029,14.00705 -16.02497,-9.64097 -30.03203,-4.34068c-1.13582,0.42979 -34.54389,34.81661 -34.54389,34.81661z" fill="#ffb300" stroke="#000000" stroke-width="0"/><path d="M185.31204,165.79149c4.42885,-1.03363 11.93152,-15.43478 18.96582,-20.20427c9.56045,-6.48231 18.63994,-3.55159 21.52978,-2.90385c8.11297,1.81846 18.44866,10.12187 18.03301,11.97627c-0.41564,1.85439 -11.42522,-3.44246 -19.53819,-5.26092c-1.2084,-0.27085 -4.57755,-3.73869 -8.88182,-2.16086c-5.4162,1.98543 -12.29056,9.56503 -17.94998,14.59119c-9.00523,7.99759 -14.1559,21.06409 -18.89445,21.37869c-5.80594,0.38546 5.59098,-32.39586 5.74286,-33.07346c0.15866,-0.70786 -5.4576,17.16268 0.99298,15.65721z" fill="#e4a000" stroke="none" stroke-width="0"/><path d="M178.00667,182.73891c0,0 3.74248,-51.55082 17.74955,-56.85112c14.00705,-5.30029 41.52608,12.36813 46.82637,26.37519c5.30029,14.00705 -16.02497,-9.64097 -30.03203,-4.34068c-1.13582,0.42979 -34.54389,34.81661 -34.54389,34.81661z" fill="none" stroke="#000000" stroke-width="3.5"/><path d="M191.27179,171.59837c2.42925,-8.32717 9.95267,-15.41362 18.96648,-19.14183c8.76556,-3.62553 19.4453,-4.10259 27.42275,-0.41148c6.71491,3.10694 11.30006,9.68578 13.35889,14.66348c4.50476,10.89131 -8.32459,18.51164 -24.46845,25.18892c-16.14386,6.67727 -28.73171,9.73355 -33.23647,-1.15776c-1.98956,-4.81022 -3.96475,-12.55443 -2.04319,-19.14133z" fill="#ffbea9" stroke="#000000" stroke-width="0"/><path d="M210.97371,152.10111c15.91213,-6.58143 33.58991,-0.36368 39.48444,13.88771c5.89453,14.25139 -2.22634,31.13973 -18.13846,37.72116c-15.91213,6.58143 -33.58991,0.36368 -39.48444,-13.88771c-5.89453,-14.25139 2.22634,-31.13973 18.13846,-37.72116z" fill="none" stroke="#000000" stroke-width="3.5"/><path d="M196.81313,195.67596c-0.33502,-0.80998 -3.23265,-2.12948 -4.30107,-4.75682c-2.28242,-5.61271 -2.90253,-15.01243 0.62448,-22.82177c2.18148,-4.83013 11.18431,-12.07226 17.36379,-15.1053c2.56789,-1.26039 3.53477,0.42816 5.09345,-0.21653c2.70626,-1.11934 -13.19448,6.49043 -18.28212,16.49769c-5.70936,11.23015 -0.60527,25.06766 4.70687,24.89877c5.77322,-0.18355 16.56661,-2.50666 25.0543,-7.05612c13.29249,-7.12488 24.01892,-17.41897 24.62894,-15.94412c1.6773,4.05527 -10.64561,14.80367 -24.85837,20.68222c-14.21278,5.87856 -28.35298,7.87725 -30.03028,3.82198z" fill="#ff9d7d" stroke="none" stroke-width="0"/><path d="M193.29007,190.84523c-1.98956,-4.81022 -3.96476,-12.55442 -2.0432,-19.14133c2.42925,-8.32716 9.95267,-15.41362 18.96648,-19.14183c8.76556,-3.62553 19.4453,-4.10259 27.42275,-0.41148c6.71491,3.10695 11.30005,9.68579 13.35888,14.66349c4.50476,10.8913 -8.3246,18.51164 -24.46845,25.18891c-16.14385,6.67727 -28.7317,9.73355 -33.23646,-1.15775z" fill="none" stroke="#000000" stroke-width="3.5"/><path d="M199.54972,211.98765c0,0 -26.58323,-44.32636 -18.17194,-56.71752c8.41129,-12.39116 41.08531,-13.76165 53.47647,-5.35035c12.39116,8.41129 -18.65433,1.32801 -27.06563,13.71917c-0.68206,1.00479 -8.2389,48.3487 -8.2389,48.3487z" fill="#ffb300" stroke="#000000" stroke-width="0"/><path d="M186.38457,181.19929c-0.27726,-0.67034 5.40472,17.17941 9.81626,12.23828c3.02887,-3.39249 0.8853,-19.48871 3.89737,-27.43584c4.09375,-10.8011 13.20712,-13.62474 15.94381,-14.75666c7.68302,-3.17778 20.91372,-2.32835 21.64007,-0.57223c0.72635,1.75612 -11.32671,3.75392 -19.00973,6.9317c-1.14435,0.47332 -5.89491,-0.42626 -8.50893,3.3398c-3.2893,4.73896 -4.55452,14.89309 -6.29418,22.25956c-2.76813,11.72148 0.53213,25.37326 -3.16362,28.3556c-4.52824,3.65414 -14.05565,-29.7185 -14.32106,-30.3602z" fill="#e4a000" stroke="none" stroke-width="0"/><path d="M199.97009,211.50348c0,0 -26.58324,-44.32635 -18.17194,-56.71751c8.41129,-12.39116 41.0853,-13.76166 53.47647,-5.35036c12.39116,8.41129 -18.65433,1.32801 -27.06563,13.71917c-0.68206,1.00479 -8.23889,48.3487 -8.23889,48.3487z" fill="none" stroke="#000000" stroke-width="3.5"/></g><path d="M216.96953,167.82692c6.98057,-2.88724 14.27343,-1.27727 16.28904,3.59595c2.01562,4.87323 -2.00927,11.16433 -8.98984,14.05157c-6.98057,2.88724 -14.27343,1.27727 -16.28904,-3.59595c-2.01562,-4.87323 2.00927,-11.16433 8.98984,-14.05157z" fill="#ff9d7d" stroke="none" stroke-width="0"/><path d="M205.78263,169.82473c3.86834,-1.59999 8.80016,1.445 11.01552,6.80116c2.21536,5.35616 0.87536,10.99523 -2.99297,12.59522c-3.86834,1.59999 -8.46616,1.19309 -10.68153,-4.16307c-2.21536,-5.35616 -1.20935,-13.63332 2.65898,-15.2333z" fill="#000000" stroke="#000000" stroke-width="3.5"/><path d="M239.44977,169.80147c2.17905,5.26836 -0.73939,8.74622 -4.54431,10.31997c-3.80492,1.57375 -8.65589,-1.4213 -10.83494,-6.68966c-2.17905,-5.26836 -0.86101,-10.81498 2.94391,-12.38874c3.80492,-1.57375 10.25629,3.49008 12.43534,8.75843z" data-paper-data="{&quot;index&quot;:null}" fill="#000000" stroke="#000000" stroke-width="3.5"/></g><path d="M169.08649,210.74491v-91.25481h101.92788v91.25481z" fill="url(#color-1)" stroke="none" stroke-width="none" stroke-linecap="butt"/></g></g></svg>