<svg version="1.1" xmlns="http://www.w3.org/2000/svg" xmlns:xlink="http://www.w3.org/1999/xlink" width="380.51969" height="298.66868" viewBox="0,0,380.51969,298.66868"><g transform="translate(-48.81708,-29.91954)"><g data-paper-data="{&quot;isPaintingLayer&quot;:true}" fill-rule="nonzero" stroke-linejoin="miter" stroke-miterlimit="10" stroke-dasharray="" stroke-dashoffset="0" style="mix-blend-mode: normal"><g fill="none" stroke="#000000" stroke-width="3.5" stroke-linecap="round"><path d="M95.60391,213.15057l20,-61.5"/><path d="M83.10391,202.15057l53.5,-31.5"/><path d="M119.60391,149.65057l3,76"/></g><g fill="none" stroke="#000000" stroke-width="3.5" stroke-linecap="round"><path d="M339.58603,143.71391l-26.5,50"/><path d="M348.08603,141.71391l1,49.5"/><path d="M377.08603,160.71391l-39,15.5l-17,-46.5"/><path d="M339.58603,193.21391l3,-40.5"/></g><g fill="none" stroke="#000000" stroke-width="3.5" stroke-linecap="round"><g><path d="M194.72159,206.21509l-0.5,39.5l-18.5,13"/><path d="M224.22159,269.71509l-18.5,-14l-1,-65.5"/></g><path d="M213.22159,262.21509v29.5"/></g><g fill="none" stroke="#000000" stroke-width="3.5" stroke-linecap="round"><path d="M268.08137,151.16102v47.5"/><path d="M281.08137,152.66102l-25,18.5"/><path d="M262.08137,215.66102l-1,-48.5"/></g><g fill="none" stroke="#000000" stroke-width="3.5" stroke-linecap="round"><path d="M169.08137,142.66102l-29,30.5"/><path d="M152.08137,147.66102l1,31"/></g><g data-paper-data="{&quot;index&quot;:null}" stroke-linecap="butt"><g><g><path d="M151.40266,291.69502l-5.23562,-60.85938l24.53803,-0.7949l5.23562,60.85939z" fill="#252525" stroke="#000000" stroke-width="0"/><path d="M151.40266,291.69502l-5.23562,-60.85938l24.53803,-0.7949l5.23562,60.85939z" fill="#252525" stroke="#000000" stroke-width="0"/><path d="M146.70319,235.21597c-0.38055,-4.42368 2.26035,21.50368 4.60795,31.28376c2.23917,9.32835 4.13898,2.43474 5.82337,2.38019c1.63757,-0.05307 9.60736,11.56035 12.60394,-0.46608c1.81965,-7.30294 -1.42299,-42.20564 0.25962,-39.39199c1.38472,2.31553 5.55611,59.43768 5.73246,61.48764c0.21061,2.44815 -0.78763,0.10145 -2.46972,0.39068c-4.25644,0.73188 -12.64854,-0.15864 -15.12155,-0.07853c-2.21744,0.07182 -4.03346,12.27033 -7.14987,-6.67193c-1.73269,-10.53172 -4.02052,-45.84541 -4.28621,-48.93376z" fill="#141414" stroke="none" stroke-width="0"/><path d="M151.40266,291.69502l-5.23562,-60.85938l24.53803,-0.7949l5.23562,60.85939z" fill="none" stroke="#000000" stroke-width="3.5"/><path d="M151.40266,291.69502l-5.23562,-60.85938l24.53803,-0.7949l5.23562,60.85939z" fill="none" stroke="#000000" stroke-width="3.5"/></g><g><path d="M143.51769,264.4746l-1.06005,-12.32217l35.84976,-1.16133l1.06005,12.32217z" fill="#252525" stroke="#000000" stroke-width="0"/><path d="M143.51769,264.4746l-1.06005,-12.32217l35.84976,-1.16133l1.06005,12.32217z" fill="#252525" stroke="#000000" stroke-width="0"/><path d="M146.10453,259.2889c2.2564,1.8303 5.76967,0.33322 8.23054,0.25349c2.39246,-0.0775 12.7545,1.99043 18.42044,-0.60843c3.44061,-1.57815 2.48285,-8.63511 4.63145,-8.124c1.76822,0.42063 1.68067,12.01631 1.71638,12.43136c0.15054,1.74995 -19.1822,2.47489 -24.22309,2.63818c-3.23966,0.10497 -8.65326,0.83257 -11.15025,-2.94221c-1.3883,-2.09875 -0.91007,-9.27918 -0.96386,-9.90448c-0.07705,-0.89566 0.97274,4.33715 3.3384,6.25608z" fill="#141414" stroke="none" stroke-width="0"/><path d="M143.51769,264.4746l-1.06005,-12.32217l35.84976,-1.16133l1.06005,12.32217z" fill="none" stroke="#000000" stroke-width="3.5"/><path d="M143.51769,264.4746l-1.06005,-12.32217l35.84976,-1.16133l1.06005,12.32217z" fill="none" stroke="#000000" stroke-width="3.5"/></g><g><path d="M143.06799,284.08306l-1.06006,-12.32218l40.50307,-1.31208l1.06004,12.32217z" fill="#252525" stroke="#000000" stroke-width="0"/><path d="M143.06799,284.08306l-1.06006,-12.32218l40.50307,-1.31208l1.06004,12.32217z" fill="#252525" stroke="#000000" stroke-width="0"/><path d="M142.34655,272.6403c-0.07705,-0.89566 1.05035,4.33463 3.70084,6.24434c2.52809,1.82149 6.51279,0.30912 9.29307,0.21905c2.70301,-0.08756 14.38325,1.93769 20.81155,-0.68587c3.90351,-1.59314 2.90037,-8.64865 5.32138,-8.14636c1.9924,0.41337 1.76441,12.01362 1.80012,12.42867c0.15054,1.74995 -21.69269,2.55621 -27.38789,2.7407c-3.66016,0.11857 -9.78259,0.86916 -12.56075,-2.8965c-1.54462,-2.09369 -0.92454,-9.27872 -0.97833,-9.904z" fill="#141414" stroke="none" stroke-width="0"/><path d="M143.06799,284.08306l-1.06006,-12.32218l40.50307,-1.31208l1.06004,12.32217z" fill="none" stroke="#000000" stroke-width="3.5"/><path d="M143.06799,284.08306l-1.06006,-12.32218l40.50307,-1.31208l1.06004,12.32217z" fill="none" stroke="#000000" stroke-width="3.5"/></g></g><g><path d="M139.12212,240.76311l-1.21751,-14.15242l41.83258,-1.35518l1.21752,14.15242z" fill="#252525" stroke="#000000" stroke-width="0"/><path d="M139.12212,240.76311l-1.21751,-14.15242l41.83258,-1.35518l1.21752,14.15242z" fill="#252525" stroke="#000000" stroke-width="0"/><path d="M142.14868,234.80538c2.62995,2.10092 6.73172,0.37928 9.60326,0.28626c2.79174,-0.09044 14.87926,2.27864 21.49458,-0.70976c4.0171,-1.81467 2.91067,-9.91963 5.41692,-9.33385c2.06255,0.48208 1.94213,13.80075 1.98315,14.27744c0.17291,2.00987 -22.38636,2.85399 -28.2685,3.04453c-3.78031,0.12246 -10.09821,0.9614 -13.00585,-3.37276c-1.61662,-2.40976 -1.04731,-10.65737 -1.10908,-11.37555c-0.08849,-1.02869 1.12819,4.98101 3.88551,7.18366z" fill="#141414" stroke="none" stroke-width="0"/><path d="M139.12212,240.76311l-1.21751,-14.15242l41.83258,-1.35518l1.21752,14.15242z" fill="none" stroke="#000000" stroke-width="3.5"/><path d="M139.12212,240.76311l-1.21751,-14.15242l41.83258,-1.35518l1.21752,14.15242z" fill="none" stroke="#000000" stroke-width="3.5"/></g></g><g data-paper-data="{&quot;index&quot;:null}" stroke-linecap="butt"><g><g><path d="M149.51919,208.86982l42.52818,-43.84781l16.68523,18.00973l-42.52818,43.84781z" fill="#252525" stroke="#000000" stroke-width="0"/><path d="M149.51919,208.86982l42.52818,-43.84781l16.68523,18.00973l-42.52818,43.84781z" fill="#252525" stroke="#000000" stroke-width="0"/><path d="M189.09086,168.29826c3.09125,-3.18716 -14.75761,15.80286 -20.60452,23.98667c-5.57685,7.80582 0.87447,4.7217 2.0198,5.95797c1.11352,1.20188 -2.43251,14.83328 8.61399,9.21281c6.70788,-3.41298 30.94034,-28.74084 29.91848,-25.62578c-0.84096,2.56357 -41.24445,43.15789 -42.67695,44.63484c-1.71075,1.76384 -0.59291,-0.5283 -1.91396,-1.609c-3.34284,-2.73465 -8.17144,-9.656 -9.85303,-11.47107c-1.50779,-1.6275 -11.91036,4.9973 0.35175,-9.77301c6.81762,-8.21215 31.98634,-33.08837 34.14445,-35.31345z" fill="#141414" stroke="none" stroke-width="0"/><path d="M149.51919,208.86982l42.52818,-43.84781l16.68523,18.00973l-42.52818,43.84781z" fill="none" stroke="#000000" stroke-width="3.5"/><path d="M149.51919,208.86982l42.52818,-43.84781l16.68523,18.00973l-42.52818,43.84781z" fill="none" stroke="#000000" stroke-width="3.5"/></g><g><path d="M164.90701,185.07193l8.61066,-8.87784l24.37691,26.31199l-8.61066,8.87785z" fill="#252525" stroke="#000000" stroke-width="0"/><path d="M164.90701,185.07193l8.61066,-8.87784l24.37691,26.31199l-8.61066,8.87785z" fill="#252525" stroke="#000000" stroke-width="0"/><path d="M170.51888,183.6262c0.09687,2.90378 3.53044,4.5756 5.20377,6.38176c1.62681,1.75595 6.85755,10.93677 12.53427,13.51203c3.44716,1.56381 8.14865,-3.78539 9.1711,-1.82776c0.84143,1.61106 -7.97286,9.14603 -8.26289,9.44506c-1.22286,1.26079 -14.44313,-12.86383 -17.8708,-16.56359c-2.2029,-2.37774 -6.30105,-5.98906 -5.08719,-10.34916c0.6749,-2.42418 6.41095,-6.76987 6.84791,-7.22039c0.62588,-0.6453 -2.63772,3.57765 -2.53615,6.62204z" fill="#141414" stroke="none" stroke-width="0"/><path d="M164.90701,185.07193l8.61066,-8.87784l24.37691,26.31199l-8.61066,8.87785z" fill="none" stroke="#000000" stroke-width="3.5"/><path d="M164.90701,185.07193l8.61066,-8.87784l24.37691,26.31199l-8.61066,8.87785z" fill="none" stroke="#000000" stroke-width="3.5"/></g><g><path d="M149.80418,197.58587l8.61067,-8.87785l27.54103,29.72729l-8.61067,8.87784z" fill="#252525" stroke="#000000" stroke-width="0"/><path d="M149.80418,197.58587l8.61067,-8.87785l27.54103,29.72729l-8.61067,8.87784z" fill="#252525" stroke="#000000" stroke-width="0"/><path d="M157.97269,189.54021c0.62588,-0.6453 -2.58494,3.6346 -2.2897,6.88805c0.28162,3.10319 4.03575,5.121 5.92628,7.16159c1.83798,1.98389 7.96505,12.13222 14.16014,15.267c3.76191,1.90356 8.43256,-3.47896 9.64025,-1.32139c0.99387,1.7756 -7.91593,9.2075 -8.20596,9.50654c-1.22286,1.26079 -16.15019,-14.70641 -20.02278,-18.88641c-2.48882,-2.68638 -7.06897,-6.81794 -6.0463,-11.38439c0.5686,-2.53891 6.40112,-6.78049 6.83806,-7.23099z" fill="#141414" stroke="none" stroke-width="0"/><path d="M149.80418,197.58587l8.61067,-8.87785l27.54103,29.72729l-8.61067,8.87784z" fill="none" stroke="#000000" stroke-width="3.5"/><path d="M149.80418,197.58587l8.61067,-8.87785l27.54103,29.72729l-8.61067,8.87784z" fill="none" stroke="#000000" stroke-width="3.5"/></g></g><g><path d="M179.93226,166.20934l9.88962,-10.1965l28.44509,30.70307l-9.88962,10.19651z" fill="#252525" stroke="#000000" stroke-width="0"/><path d="M179.93226,166.20934l9.88962,-10.1965l28.44509,30.70307l-9.88962,10.19651z" fill="#252525" stroke="#000000" stroke-width="0"/><path d="M186.41541,164.58961c0.13737,3.36328 4.12628,5.33233 6.07885,7.4399c1.89831,2.04899 8.0327,12.73029 14.62591,15.76717c4.00366,1.84413 9.39913,-4.30432 10.59964,-2.02765c0.98796,1.87362 -9.14905,10.5132 -9.48216,10.85665c-1.40449,1.44807 -16.82977,-15.03506 -20.82947,-19.35226c-2.57052,-2.77457 -7.34551,-6.99583 -5.97841,-12.03272c0.76011,-2.80047 7.36178,-7.77692 7.86365,-8.29435c0.71884,-0.74115 -3.02206,4.1171 -2.87802,7.64324z" fill="#141414" stroke="none" stroke-width="0"/><path d="M179.93226,166.20934l9.88962,-10.1965l28.44509,30.70307l-9.88962,10.19651z" fill="none" stroke="#000000" stroke-width="3.5"/><path d="M179.93226,166.20934l9.88962,-10.1965l28.44509,30.70307l-9.88962,10.19651z" fill="none" stroke="#000000" stroke-width="3.5"/></g></g><g stroke-linecap="butt"><g><g><path d="M231.08139,248.06499l-12.49086,-59.79343l24.26597,-3.72963l12.49085,59.79344z" fill="#252525" stroke="#000000" stroke-width="0"/><path d="M231.08139,248.06499l-12.49086,-59.79343l24.26597,-3.72963l12.49085,59.79344z" fill="#252525" stroke="#000000" stroke-width="0"/><path d="M219.64773,192.55607c-0.90791,-4.3462 4.82091,21.07786 8.32356,30.50615c3.34088,8.99281 4.40092,1.92121 6.06664,1.6652c1.6194,-0.24892 10.92344,10.32578 12.45727,-1.97309c0.9314,-7.46837 -6.47035,-41.73098 -4.4627,-39.13924c1.65222,2.13292 12.63866,58.34358 13.0594,60.35763c0.50246,2.40527 -0.7698,0.1951 -2.40511,0.68382c-4.13806,1.23667 -12.5764,1.35821 -15.02199,1.73409c-2.19285,0.33703 -2.53401,12.66526 -7.89786,-5.76707c-2.98225,-10.2482 -9.48534,-45.03326 -10.1192,-48.06751z" fill="#141414" stroke="none" stroke-width="0"/><path d="M231.08139,248.06499l-12.49086,-59.79343l24.26597,-3.72963l12.49085,59.79344z" fill="none" stroke="#000000" stroke-width="3.5"/><path d="M231.08139,248.06499l-12.49086,-59.79343l24.26597,-3.72963l12.49085,59.79344z" fill="none" stroke="#000000" stroke-width="3.5"/></g><g><path d="M219.99133,221.98559l-2.52902,-12.10634l35.45227,-5.44895l2.52902,12.10635z" fill="#252525" stroke="#000000" stroke-width="0"/><path d="M219.99133,221.98559l-2.52902,-12.10634l35.45227,-5.44895l2.52902,12.10635z" fill="#252525" stroke="#000000" stroke-width="0"/><path d="M221.93811,216.52727c2.45947,1.54672 5.76803,-0.36059 8.20161,-0.73463c2.36594,-0.36364 12.90111,0.44768 18.21479,-2.81143c3.2267,-1.97908 1.43019,-8.87042 3.62455,-8.62046c1.80588,0.2057 3.1085,11.72832 3.19369,12.1361c0.35916,1.7193 -18.7474,4.75571 -23.7324,5.52189c-3.20374,0.49243 -8.49113,1.86352 -11.42247,-1.58484c-1.6298,-1.91726 -2.01547,-9.10326 -2.14381,-9.71761c-0.18383,-0.87997 1.48547,4.18932 4.06403,5.81095z" fill="#141414" stroke="none" stroke-width="0"/><path d="M219.99133,221.98559l-2.52902,-12.10634l35.45227,-5.44895l2.52902,12.10635z" fill="none" stroke="#000000" stroke-width="3.5"/><path d="M219.99133,221.98559l-2.52902,-12.10634l35.45227,-5.44895l2.52902,12.10635z" fill="none" stroke="#000000" stroke-width="3.5"/></g><g><path d="M221.89461,241.50664l-2.52902,-12.10636l40.05398,-6.15622l2.52901,12.10635z" fill="#252525" stroke="#000000" stroke-width="0"/><path d="M221.89461,241.50664l-2.52902,-12.10636l40.05398,-6.15622l2.52901,12.10635z" fill="#252525" stroke="#000000" stroke-width="0"/><path d="M219.80715,230.23279c-0.18383,-0.87997 1.56221,4.17753 4.42245,5.75586c2.72815,1.50542 6.50289,-0.47355 9.25235,-0.89614c2.67305,-0.41083 14.51182,0.20014 20.57939,-3.17484c3.68447,-2.04943 1.84308,-8.93389 4.30684,-8.72534c2.02758,0.17163 3.19132,11.7156 3.27651,12.12339c0.35916,1.7193 -21.23006,5.13729 -26.86211,6.00292c-3.61958,0.55632 -9.60794,2.03517 -12.81733,-1.37044c-1.78439,-1.8935 -2.02977,-9.10106 -2.15811,-9.71539z" fill="#141414" stroke="none" stroke-width="0"/><path d="M221.89461,241.50664l-2.52902,-12.10636l40.05398,-6.15622l2.52901,12.10635z" fill="none" stroke="#000000" stroke-width="3.5"/><path d="M221.89461,241.50664l-2.52902,-12.10636l40.05398,-6.15622l2.52901,12.10635z" fill="none" stroke="#000000" stroke-width="3.5"/></g></g><g><path d="M212.78602,198.9717l-2.90466,-13.90454l41.36875,-6.35833l2.90467,13.90454z" fill="#252525" stroke="#000000" stroke-width="0"/><path d="M212.78602,198.9717l-2.90466,-13.90454l41.36875,-6.35833l2.90467,13.90454z" fill="#252525" stroke="#000000" stroke-width="0"/><path d="M215.07684,192.69422c2.86276,1.77063 6.72867,-0.43013 9.56837,-0.86659c2.76078,-0.42433 15.04509,0.47921 21.25464,-3.28039c3.77069,-2.28297 1.70098,-10.19693 4.25938,-9.91571c2.10546,0.23144 3.58192,13.46856 3.67976,13.93691c0.41252,1.97467 -21.88304,5.51605 -27.69996,6.41009c-3.7384,0.57458 -9.91024,2.16457 -13.3163,-1.78993c-1.89373,-2.19867 -2.31686,-10.45507 -2.46425,-11.16067c-0.21113,-1.01067 1.71694,4.80992 4.71835,6.66628z" fill="#141414" stroke="none" stroke-width="0"/><path d="M212.78602,198.9717l-2.90466,-13.90454l41.36875,-6.35833l2.90467,13.90454z" fill="none" stroke="#000000" stroke-width="3.5"/><path d="M212.78602,198.9717l-2.90466,-13.90454l41.36875,-6.35833l2.90467,13.90454z" fill="none" stroke="#000000" stroke-width="3.5"/></g></g><g data-paper-data="{&quot;index&quot;:null}" stroke-linecap="butt"><g><g><path d="M290.15081,130.26741l34.60582,-23.32759l8.96491,18.44721l-34.60582,23.32758z" fill="#252525" stroke="#000000" stroke-width="0"/><path d="M290.15081,130.26741l34.60582,-23.32759l8.96491,18.44721l-34.60582,23.32758z" fill="#252525" stroke="#000000" stroke-width="0"/><path d="M322.32102,108.74022c2.51539,-1.69561 -12.08542,8.5552 -17.12546,13.45178c-4.80725,4.67043 -0.02497,3.92783 0.59041,5.19413c0.59829,1.23107 -3.59372,10.99473 4.63939,9.45702c4.99948,-0.93375 24.76278,-14.49497 23.66127,-12.31869c-0.90652,1.791 -33.64422,23.12008 -34.80988,23.90583c-1.39206,0.93838 -0.3332,-0.568 -1.08821,-1.75797c-1.91051,-3.01116 -4.281,-9.68952 -5.1845,-11.54868c-0.81013,-1.66703 -8.73777,0.82502 1.51877,-7.56868c5.70255,-4.66682 26.04211,-17.63099 27.7982,-18.81477z" fill="#141414" stroke="none" stroke-width="0"/><path d="M290.15081,130.26741l34.60582,-23.32759l8.96491,18.44721l-34.60582,23.32758z" fill="none" stroke="#000000" stroke-width="3.5"/><path d="M290.15081,130.26741l34.60582,-23.32759l8.96491,18.44721l-34.60582,23.32758z" fill="none" stroke="#000000" stroke-width="3.5"/></g><g><path d="M303.71112,115.60937l7.00662,-4.72313l13.09762,26.95113l-7.00662,4.72313z" fill="#252525" stroke="#000000" stroke-width="0"/><path d="M303.71112,115.60937l7.00662,-4.72313l13.09762,26.95113l-7.00662,4.72313z" fill="#252525" stroke="#000000" stroke-width="0"/><path d="M310.29764,111.40108c0.5093,-0.34331 -2.25873,2.1194 -2.58856,4.53193c-0.31458,2.30111 1.79671,4.50278 2.69578,6.35281c0.87408,1.79861 3.22154,10.35229 6.73686,13.84439c2.13467,2.12054 6.02607,-0.85163 6.46356,0.94815c0.36004,1.48116 -6.60889,5.09889 -6.8449,5.25798c-0.99506,0.67076 -8.11725,-13.83185 -9.95893,-17.62149c-1.18361,-2.43551 -3.4919,-6.32987 -2.097,-9.43217c0.77555,-1.72484 5.23764,-3.64194 5.5932,-3.88161z" fill="#141414" stroke="none" stroke-width="0"/><path d="M303.71112,115.60937l7.00662,-4.72313l13.09762,26.95113l-7.00662,4.72313z" fill="none" stroke="#000000" stroke-width="3.5"/><path d="M303.71112,115.60937l7.00662,-4.72313l13.09762,26.95113l-7.00662,4.72313z" fill="none" stroke="#000000" stroke-width="3.5"/></g><g><path d="M291.82219,121.49712l7.00663,-4.72313l14.79768,30.44939l-7.00663,4.72312z" fill="#252525" stroke="#000000" stroke-width="0"/><path d="M291.82219,121.49712l7.00663,-4.72313l14.79768,30.44939l-7.00663,4.72312z" fill="#252525" stroke="#000000" stroke-width="0"/><path d="M298.41975,117.31147c0.50928,-0.34331 -2.23038,2.17773 -2.45615,4.80441c-0.21533,2.50537 2.06822,5.06144 3.08398,7.1516c0.98753,2.03207 3.81659,11.57678 7.61044,15.64199c2.30378,2.46855 6.17861,-0.53775 6.71564,1.46684c0.44195,1.6497 -6.57831,5.16185 -6.81432,5.32094c-0.99505,0.67076 -9.03446,-15.71919 -11.11518,-20.00072c-1.33724,-2.75164 -3.9045,-7.17888 -2.61234,-10.49255c0.71844,-1.84236 5.23235,-3.65281 5.58791,-3.89249z" fill="#141414" stroke="none" stroke-width="0"/><path d="M291.82219,121.49712l7.00663,-4.72313l14.79768,30.44939l-7.00663,4.72312z" fill="none" stroke="#000000" stroke-width="3.5"/><path d="M291.82219,121.49712l7.00663,-4.72313l14.79768,30.44939l-7.00663,4.72312z" fill="none" stroke="#000000" stroke-width="3.5"/></g></g><g><path d="M316.37894,104.72546l8.04734,-5.42466l15.28344,31.44888l-8.04734,5.42467z" fill="#252525" stroke="#000000" stroke-width="0"/><path d="M316.37894,104.72546l8.04734,-5.42466l15.28344,31.44888l-8.04734,5.42467z" fill="#252525" stroke="#000000" stroke-width="0"/><path d="M323.94534,99.8953c0.58492,-0.39429 -2.59024,2.44244 -2.95433,5.2436c-0.34729,2.67178 2.10197,5.25058 3.15108,7.40936c1.01996,2.09877 3.78416,12.06311 7.86102,16.15492c2.47563,2.48473 6.94271,-0.93376 7.45926,1.16233c0.4251,1.72499 -7.58621,5.86514 -7.85726,6.04786c-1.14285,0.7704 -9.45263,-16.1532 -11.60165,-20.57527c-1.38112,-2.84196 -4.06889,-7.3901 -2.48134,-10.98308c0.88268,-1.99766 6.01485,-4.18443 6.42322,-4.4597z" fill="#141414" stroke="none" stroke-width="0"/><path d="M316.37894,104.72546l8.04734,-5.42466l15.28344,31.44888l-8.04734,5.42467z" fill="none" stroke="#000000" stroke-width="3.5"/><path d="M316.37894,104.72546l8.04734,-5.42466l15.28344,31.44888l-8.04734,5.42467z" fill="none" stroke="#000000" stroke-width="3.5"/></g></g><g data-paper-data="{&quot;index&quot;:null}" stroke-linecap="butt"><g><g><path d="M278.75485,148.84404l-30.41453,-30.10415l17.31771,-17.28937l30.41451,30.10416z" fill="#252525" stroke="#000000" stroke-width="0"/><path d="M278.75485,148.84404l-30.41453,-30.10415l17.31771,-17.28937l30.41451,30.10416z" fill="#252525" stroke="#000000" stroke-width="0"/><path d="M267.73755,103.73173c1.5434,1.52766 19.70727,18.45654 24.40206,24.26012c8.44399,10.43827 0.37739,6.46341 -1.18757,8.02581c-1.74533,1.74247 -7.01839,8.15861 -10.35435,10.90058c-1.31833,1.08359 -0.69319,2.81667 -1.91665,1.60568c-1.02447,-1.01401 -30.08203,-28.7358 -30.42401,-30.73311c-0.41553,-2.42698 16.86206,15.01016 22.195,16.86346c8.78225,3.05201 7.7718,-7.70185 8.92752,-8.85566c1.18875,-1.18681 6.34805,0.4317 2.67411,-5.21499c-3.85186,-5.92012 -16.52685,-19.04005 -14.31611,-16.85188z" fill="#141414" stroke="none" stroke-width="0"/><path d="M278.75485,148.84404l-30.41453,-30.10415l17.31771,-17.28937l30.41451,30.10416z" fill="none" stroke="#000000" stroke-width="3.5"/><path d="M278.75485,148.84404l-30.41453,-30.10415l17.31771,-17.28937l30.41451,30.10416z" fill="none" stroke="#000000" stroke-width="3.5"/></g><g><path d="M260.97994,139.36615l-6.15801,-6.09518l25.30096,-25.25955l6.15801,6.09517z" fill="#252525" stroke="#000000" stroke-width="0"/><path d="M260.97994,139.36615l-6.15801,-6.09518l25.30096,-25.25955l6.15801,6.09517z" fill="#252525" stroke="#000000" stroke-width="0"/><path d="M280.40282,108.61417c0.31249,0.3093 4.65455,3.07354 4.87289,4.9796c0.39272,3.42821 -3.73658,7.00358 -6.02297,9.28621c-3.55761,3.55178 -17.25681,17.13082 -18.13136,16.26521c-0.20743,-0.20531 -6.74855,-5.16135 -5.76773,-6.61407c1.1918,-1.76524 4.4774,1.97748 7.72535,0.18808c5.34868,-2.94678 11.31828,-11.28815 13.00676,-12.97387c1.73675,-1.73391 4.98937,-3.61062 5.518,-6.02432c0.55422,-2.53057 -1.64855,-5.54989 -1.20094,-5.10685z" fill="#141414" stroke="none" stroke-width="0"/><path d="M260.97994,139.36615l-6.15801,-6.09518l25.30096,-25.25955l6.15801,6.09517z" fill="none" stroke="#000000" stroke-width="3.5"/><path d="M260.97994,139.36615l-6.15801,-6.09518l25.30096,-25.25955l6.15801,6.09517z" fill="none" stroke="#000000" stroke-width="3.5"/></g><g><path d="M268.96443,150.80879l-6.15802,-6.09517l28.58502,-28.53825l6.15802,6.09518z" fill="#252525" stroke="#000000" stroke-width="0"/><path d="M268.96443,150.80879l-6.15802,-6.09517l28.58502,-28.53825l6.15802,6.09518z" fill="#252525" stroke="#000000" stroke-width="0"/><path d="M291.65011,116.79937c0.31249,0.3093 4.75465,2.97359 4.86267,4.98979c0.19427,3.62632 -4.43528,7.70111 -7.01844,10.28005c-4.01938,4.0128 -19.49037,19.36073 -20.36491,18.49511c-0.20743,-0.20531 -6.84767,-5.0624 -5.70864,-6.67309c1.38407,-1.95719 4.63764,1.81752 8.21229,-0.29805c5.88671,-3.48391 12.78663,-12.75411 14.69428,-14.65864c1.96218,-1.95898 5.54752,-4.16784 6.2679,-6.77296c0.75525,-2.73127 -1.39275,-5.80526 -0.94515,-5.36222z" fill="#141414" stroke="none" stroke-width="0"/><path d="M268.96443,150.80879l-6.15802,-6.09517l28.58502,-28.53825l6.15802,6.09518z" fill="none" stroke="#000000" stroke-width="3.5"/><path d="M268.96443,150.80879l-6.15802,-6.09517l28.58502,-28.53825l6.15802,6.09518z" fill="none" stroke="#000000" stroke-width="3.5"/></g></g><g><path d="M246.52762,130.15984l-7.07268,-7.00051l29.52334,-29.475l7.07268,7.0005z" fill="#252525" stroke="#000000" stroke-width="0"/><path d="M246.52762,130.15984l-7.07268,-7.00051l29.52334,-29.475l7.07268,7.0005z" fill="#252525" stroke="#000000" stroke-width="0"/><path d="M269.29679,94.3796c0.35892,0.35525 5.36004,3.51594 5.59522,5.72068c0.42298,3.96542 -4.39038,8.14245 -7.05833,10.80604c-4.15131,4.14452 -20.13584,19.99061 -21.14027,18.99642c-0.23823,-0.2358 -7.76493,-5.91398 -6.61607,-7.60482c1.39601,-2.05459 5.1651,2.24859 8.94167,0.14728c6.21922,-3.46041 13.20703,-13.17211 15.1773,-15.13915c2.02659,-2.02328 5.80938,-4.2257 6.44363,-7.02497c0.66498,-2.93483 -1.85724,-6.41033 -1.34315,-5.90149z" fill="#141414" stroke="none" stroke-width="0"/><path d="M246.52762,130.15984l-7.07268,-7.00051l29.52334,-29.475l7.07268,7.0005z" fill="none" stroke="#000000" stroke-width="3.5"/><path d="M246.52762,130.15984l-7.07268,-7.00051l29.52334,-29.475l7.07268,7.0005z" fill="none" stroke="#000000" stroke-width="3.5"/></g></g><g stroke-linecap="butt"><g><g><path d="M217.29455,169.16154l3.64139,-60.97554l24.39411,2.77035l-3.6414,60.97554z" fill="#252525" stroke="#000000" stroke-width="0"/><path d="M217.29455,169.16154l3.64139,-60.97554l24.39411,2.77035l-3.6414,60.97554z" fill="#252525" stroke="#000000" stroke-width="0"/><path d="M220.8315,112.59778c0.26469,-4.43212 -0.88054,21.60421 0.02461,31.62129c0.86335,9.55441 3.74235,3.00898 5.41686,3.19916c1.62796,0.18486 7.83019,12.83088 12.53839,1.36582c2.85901,-6.96205 4.70986,-41.96615 5.96685,-38.93832c1.03445,2.4918 -3.11822,59.61531 -3.24087,61.66918c-0.14648,2.45282 -0.79402,-0.01379 -2.50027,0.02856c-4.31757,0.10717 -12.49195,-1.99041 -14.95046,-2.26961c-2.20443,-0.25036 -5.76948,11.55608 -6.10724,-7.63786c-0.18779,-10.67165 2.66735,-45.944 2.85213,-49.03824z" fill="#141414" stroke="none" stroke-width="0"/><path d="M217.29455,169.16154l3.64139,-60.97554l24.39411,2.77035l-3.6414,60.97554z" fill="none" stroke="#000000" stroke-width="3.5"/><path d="M217.29455,169.16154l3.64139,-60.97554l24.39411,2.77035l-3.6414,60.97554z" fill="none" stroke="#000000" stroke-width="3.5"/></g><g><path d="M213.43853,141.08565l0.73727,-12.34568l35.63948,4.04744l-0.73727,12.34569z" fill="#252525" stroke="#000000" stroke-width="0"/><path d="M213.43853,141.08565l0.73727,-12.34568l35.63948,4.04744l-0.73727,12.34569z" fill="#252525" stroke="#000000" stroke-width="0"/><path d="M216.74972,136.32969c1.96726,2.13804 5.66044,1.16602 8.10687,1.44385c2.37843,0.27011 12.33127,3.81821 18.31409,2.06808c3.63303,-1.06276 3.70831,-8.18402 5.76013,-7.36686c1.68857,0.67249 -0.07888,12.13302 -0.10371,12.54886c-0.10471,1.75329 -19.33835,-0.33176 -24.34967,-0.90088c-3.22066,-0.36574 -8.68255,-0.43053 -10.606,-4.52739c-1.06942,-2.27782 0.44458,-9.3131 0.48199,-9.93959c0.05359,-0.89737 0.33379,4.43234 2.39631,6.67392z" fill="#141414" stroke="none" stroke-width="0"/><path d="M213.43853,141.08565l0.73727,-12.34568l35.63948,4.04744l-0.73727,12.34569z" fill="none" stroke="#000000" stroke-width="3.5"/><path d="M213.43853,141.08565l0.73727,-12.34568l35.63948,4.04744l-0.73727,12.34569z" fill="none" stroke="#000000" stroke-width="3.5"/></g><g><path d="M210.15128,160.42183l0.73727,-12.3457l40.26549,4.57281l-0.73728,12.34569z" fill="#252525" stroke="#000000" stroke-width="0"/><path d="M210.15128,160.42183l0.73727,-12.3457l40.26549,4.57281l-0.73728,12.34569z" fill="#252525" stroke="#000000" stroke-width="0"/><path d="M211.09612,148.99535c0.05359,-0.89737 0.41094,4.4411 2.75662,6.71484c2.23736,2.16871 6.39919,1.2499 9.16317,1.56379c2.68716,0.30518 13.95048,4.00212 20.69117,2.33806c4.09321,-1.01049 4.12338,-8.13689 6.44602,-7.28898c1.91144,0.6978 0.00437,12.14248 -0.02046,12.55833c-0.10471,1.75329 -21.83412,-0.6152 -27.49591,-1.25819c-3.63869,-0.41323 -9.80526,-0.55803 -12.00823,-4.68662c-1.22483,-2.29547 0.4302,-9.31473 0.46761,-9.94121z" fill="#141414" stroke="none" stroke-width="0"/><path d="M210.15128,160.42183l0.73727,-12.3457l40.26549,4.57281l-0.73728,12.34569z" fill="none" stroke="#000000" stroke-width="3.5"/><path d="M210.15128,160.42183l0.73727,-12.3457l40.26549,4.57281l-0.73728,12.34569z" fill="none" stroke="#000000" stroke-width="3.5"/></g></g><g><path d="M212.52642,116.98744l0.84678,-14.17943l41.58721,4.72288l-0.84677,14.17943z" fill="#252525" stroke="#000000" stroke-width="0"/><path d="M212.52642,116.98744l0.84678,-14.17943l41.58721,4.72288l-0.84677,14.17943z" fill="#252525" stroke="#000000" stroke-width="0"/><path d="M216.38461,111.53134c2.29764,2.45995 6.60565,1.35106 9.46035,1.67526c2.77536,0.31518 14.39181,4.41137 21.37045,2.41344c4.23771,-1.21321 4.31779,-9.39295 6.71267,-8.45007c1.97089,0.77596 -0.07883,13.9365 -0.10735,14.41411c-0.12025,2.01371 -22.56362,-0.42111 -28.41125,-1.08521c-3.75814,-0.4268 -10.13092,-0.51252 -12.3796,-5.22237c-1.25024,-2.61864 0.50857,-10.69662 0.55155,-11.41617c0.06155,-1.03065 0.39426,5.09193 2.80318,7.671z" fill="#141414" stroke="none" stroke-width="0"/><path d="M212.52642,116.98744l0.84678,-14.17943l41.58721,4.72288l-0.84677,14.17943z" fill="none" stroke="#000000" stroke-width="3.5"/><path d="M212.52642,116.98744l0.84678,-14.17943l41.58721,4.72288l-0.84677,14.17943z" fill="none" stroke="#000000" stroke-width="3.5"/></g></g><g stroke-linecap="butt"><g><g><path d="M173.43185,121.30467l30.41452,-30.10416l17.31771,17.28937l-30.41452,30.10415z" fill="#252525" stroke="#000000" stroke-width="0"/><path d="M173.43185,121.30467l30.41452,-30.10416l17.31771,17.28937l-30.41452,30.10415z" fill="#252525" stroke="#000000" stroke-width="0"/><path d="M201.76685,93.48174c2.21074,-2.18817 -10.46425,10.93175 -14.31611,16.85187c-3.67394,5.64669 1.48535,4.02817 2.6741,5.21499c1.15572,1.15381 0.14527,11.90767 8.92752,8.85566c5.33294,-1.8533 22.61053,-19.29044 22.195,-16.86346c-0.34198,1.99731 -29.39953,29.71911 -30.42401,30.73312c-1.22346,1.21098 -0.59831,-0.5221 -1.91665,-1.60568c-3.33597,-2.74197 -8.60902,-9.1581 -10.35435,-10.90057c-1.56495,-1.5624 -9.63156,2.41245 -1.18757,-8.02582c4.69479,-5.80358 22.85866,-22.73246 24.40206,-24.26012z" fill="#141414" stroke="none" stroke-width="0"/><path d="M173.43185,121.30467l30.41452,-30.10416l17.31771,17.28937l-30.41452,30.10415z" fill="none" stroke="#000000" stroke-width="3.5"/><path d="M173.43185,121.30467l30.41452,-30.10416l17.31771,17.28937l-30.41452,30.10415z" fill="none" stroke="#000000" stroke-width="3.5"/></g><g><path d="M183.2235,103.8566l6.15801,-6.09517l25.30096,25.25955l-6.15801,6.09517z" fill="#252525" stroke="#000000" stroke-width="0"/><path d="M183.2235,103.8566l6.15801,-6.09517l25.30096,25.25955l-6.15801,6.09517z" fill="#252525" stroke="#000000" stroke-width="0"/><path d="M187.90064,103.47101c0.52863,2.41369 3.78125,4.29041 5.518,6.02432c1.68848,1.68572 7.65808,10.02709 13.00676,12.97387c3.24795,1.7894 6.53355,-1.95332 7.72535,-0.18808c0.98082,1.45273 -5.5603,6.40877 -5.76773,6.61408c-0.87455,0.86561 -14.57376,-12.71343 -18.13136,-16.26521c-2.28639,-2.28264 -6.41569,-5.858 -6.02297,-9.28621c0.21834,-1.90606 4.5604,-4.6703 4.87289,-4.9796c0.4476,-0.44304 -1.75517,2.57627 -1.20094,5.10684z" fill="#141414" stroke="none" stroke-width="0"/><path d="M183.2235,103.8566l6.15801,-6.09517l25.30096,25.25955l-6.15801,6.09517z" fill="none" stroke="#000000" stroke-width="3.5"/><path d="M183.2235,103.8566l6.15801,-6.09517l25.30096,25.25955l-6.15801,6.09517z" fill="none" stroke="#000000" stroke-width="3.5"/></g><g><path d="M171.95494,112.02056l6.15802,-6.09518l28.58502,28.53824l-6.15801,6.09517z" fill="#252525" stroke="#000000" stroke-width="0"/><path d="M171.95494,112.02056l6.15802,-6.09518l28.58502,28.53824l-6.15801,6.09517z" fill="#252525" stroke="#000000" stroke-width="0"/><path d="M177.8543,106.54936c0.4476,-0.44304 -1.70039,2.63095 -0.94514,5.36222c0.72038,2.60512 4.3057,4.81399 6.26789,6.77296c1.90765,1.90454 8.80757,11.17473 14.69428,14.65864c3.57464,2.11556 6.82822,-1.65914 8.21229,0.29805c1.13904,1.61069 -5.50121,6.46778 -5.70864,6.67309c-0.87454,0.86561 -16.34553,-14.48231 -20.36491,-18.49512c-2.58316,-2.57893 -7.21272,-6.65372 -7.01844,-10.28005c0.10802,-2.0162 4.55018,-4.68049 4.86268,-4.98979z" fill="#141414" stroke="none" stroke-width="0"/><path d="M171.95494,112.02056l6.15802,-6.09518l28.58502,28.53824l-6.15801,6.09517z" fill="none" stroke="#000000" stroke-width="3.5"/><path d="M171.95494,112.02056l6.15802,-6.09518l28.58502,28.53824l-6.15801,6.09517z" fill="none" stroke="#000000" stroke-width="3.5"/></g></g><g><path d="M193.45343,90.43483l7.07268,-7.00051l29.52334,29.475l-7.07267,7.00051z" fill="#252525" stroke="#000000" stroke-width="0"/><path d="M193.45343,90.43483l7.07268,-7.00051l29.52334,29.475l-7.07267,7.00051z" fill="#252525" stroke="#000000" stroke-width="0"/><path d="M198.86446,90.03109c0.63425,2.79927 4.41705,5.00169 6.44363,7.02497c1.97027,1.96704 8.95807,11.67873 15.1773,15.13914c3.77656,2.10131 7.54565,-2.20186 8.94167,-0.14728c1.14886,1.69084 -6.37784,7.36902 -6.61607,7.60482c-1.00443,0.99419 -16.98896,-14.8519 -21.14027,-18.99642c-2.66795,-2.66359 -7.48131,-6.84062 -7.05833,-10.80604c0.23518,-2.20474 5.23631,-5.36543 5.59522,-5.72068c0.51409,-0.50884 -2.00812,2.96666 -1.34315,5.90148z" fill="#141414" stroke="none" stroke-width="0"/><path d="M193.45343,90.43483l7.07268,-7.00051l29.52334,29.475l-7.07267,7.00051z" fill="none" stroke="#000000" stroke-width="3.5"/><path d="M193.45343,90.43483l7.07268,-7.00051l29.52334,29.475l-7.07267,7.00051z" fill="none" stroke="#000000" stroke-width="3.5"/></g></g><g stroke-linecap="butt"><path d="M241.80801,69.35005c19.66133,0 35.6,11.10334 35.6,24.8c0,13.69666 -15.93867,24.8 -35.6,24.8c-19.66133,0 -35.6,-11.10334 -35.6,-24.8c0,-13.69666 15.93866,-24.8 35.6,-24.8z" fill="#746e31" stroke="#000000" stroke-width="0"/><path d="M211.00801,103.24304c0,-0.74747 -4.64648,-3.42144 -0.78367,-6.96412c11.38131,-10.4381 41.32879,-28.41764 43.61737,-26.8824c1.01816,0.68301 23.48668,20.11253 21.22657,25.01313c-1.08314,2.34858 -14.01488,-9.31899 -22.01417,-11.16626c-2.86179,-0.66087 -6.3131,4.99282 -6.65732,5.92136c-2.92769,7.8975 -2.85229,14.89346 -9.10511,19.28244c-3.42238,2.40224 -7.12101,-10.78022 -13.25149,-13.67236c-4.0803,-1.92494 -11.80013,5.83312 -11.88247,7.07814c-0.078,1.17942 5.56969,5.8786 12.89456,8.88209c7.32039,3.00166 16.31762,4.30799 17.35572,4.30799c8.02489,0 18.89286,-4.11859 25.69969,-10.13951c7.99639,-7.07314 9.50031,-15.53548 9.50031,-11.06049c0,4.89992 -4.76863,14.87953 -13.91019,20.41813c-6.31404,3.82548 -13.96011,3.98187 -21.08981,3.98187c-17.4522,0 -31.6,-6.71573 -31.6,-15z" fill="#373417" stroke="none" stroke-width="0"/><path d="M242.608,68.95005c19.66134,0 35.6,11.10334 35.6,24.8c0,13.69666 -15.93866,24.8 -35.6,24.8c-19.66134,0 -35.6,-11.10334 -35.6,-24.8c0,-13.69666 15.93866,-24.8 35.6,-24.8z" fill="none" stroke="#000000" stroke-width="3.5"/><path d="M202.47165,73.66955c0,-22.91981 19.07283,-42 40.75,-42c21.67718,0 38.75,18.58019 38.75,41.5c0,6.58305 -2.99741,19.7985 -8.0638,19.33336c-6.04483,-0.55497 -14.71726,-15.29057 -20.39268,-11.24608c-6.12918,4.36786 2.72896,-10.33729 -5.29352,-10.33729c-3.49422,0 -5.9093,30.44084 -11.1128,34.71835c-3.22293,2.64939 -4.59762,-9.63468 -8.12299,-13.45054c-3.79938,-4.11244 -9.69303,0.15745 -11.42783,1.57132c-10.17936,8.29622 -15.08638,-5.61831 -15.08638,-20.08913z" fill="#e3d85f" stroke="#000000" stroke-width="0"/><path d="M225.08413,81.89134c6.42716,-2.4494 1.84822,-17.05288 8.18616,-21.62007c2.85152,-2.05484 28.33302,2.68834 29.10462,2.75243c1.67658,0.13925 -11.59852,7.48211 -9.85326,7.48211c0.05874,0 -3.6834,-1.59939 -3.62641,-1.59818c7.44439,0.15822 16.02641,3.19261 16.02641,8.76485c0,5.6149 18.53199,14.16667 10.8,14.16667c-4.15549,0 -19.48811,-10.51475 -22.05212,-12.60267c-0.26079,-0.21237 -3.55838,-11.23715 -4.93746,-7.84864c-0.33257,0.81716 -0.67548,1.90226 -1.03083,3.18252c-2.57357,9.27198 -5.79989,28.77989 -10.4797,30.87056c-4.38361,1.95834 -5.62963,-11.1038 -10.25803,-14.06627c-4.90301,-3.13824 -13.16179,3.76206 -16.76796,4.16103c-4.38073,0.48466 -6.6739,-9.81704 -6.6739,-10.46321c0,-2.46778 9.32824,1.48135 21.56248,-3.18113z" fill="#b8af4d" stroke="none" stroke-width="0"/><path d="M202.47166,73.66954c0,-22.91982 19.07282,-42 40.75,-42c21.67718,0 38.75,18.58018 38.75,41.5c0,6.58305 -2.99742,19.7985 -8.0638,19.33336c-6.04483,-0.55496 -14.71726,-15.29056 -20.39268,-11.24607c-6.12918,4.36786 2.72897,-10.33729 -5.29352,-10.33729c-3.49422,0 -5.9093,30.44084 -11.1128,34.71835c-3.22293,2.6494 -4.59763,-9.63468 -8.123,-13.45054c-3.79938,-4.11244 -9.69303,0.15745 -11.42783,1.57132c-10.17936,8.29621 -15.08638,-5.61831 -15.08638,-20.08913z" fill="none" stroke="#000000" stroke-width="3.5"/><path d="M225.19937,52.79569c7.78721,0 14.1,7.25299 14.1,16.2c0,8.94701 -6.31279,16.2 -14.1,16.2c-2.91314,0 -12.41993,4.78498 -14.66709,3.04597c-3.75981,-2.90961 0.56709,-13.64596 0.56709,-19.24597c0,-8.94701 6.31279,-16.2 14.1,-16.2z" fill="#000000" stroke="none" stroke-width="0"/><path d="M251.39265,74.73948c0,-10.54864 7.79025,-19.1 17.4,-19.1c9.60975,0 13.8,2.55136 13.8,13.1c0,10.54864 -0.19025,24.1 -9.8,24.1c-1.39922,0 -4.31461,-4.83146 -5.84566,-5.83537c-4.24182,-2.78136 -11.20383,-3.22157 -13.54851,-6.2124c-2.62132,-3.34369 -2.00583,-1.29484 -2.00583,-6.05222z" fill="#000000" stroke="none" stroke-width="0"/></g><g stroke-linecap="butt"><path d="M149.62007,94.2751c19.74418,0 35.75,16.62143 35.75,37.125c0,8.67444 3.38515,17.65402 -1.4156,23.97407c-6.54667,8.61851 -17.44339,-3.59907 -28.8344,-3.59907c-1.84248,0 -8.73838,5.49846 -10.84486,11.90183c-3.48758,10.60165 -2.55244,24.55432 -7.90807,26.54929c-6.38888,2.37985 -4.46482,-19.87056 -10.0241,-29.20268c-2.83214,-4.75419 -14.826,1.61924 -15.99188,0.30832c-5.88531,-6.61745 3.51891,-20.21353 3.51891,-29.93176c0,-20.50357 16.00582,-37.125 35.75,-37.125z" fill="#e24d00" stroke="#000000" stroke-width="0"/><path d="M146.28438,107.81102c12.15026,0 22,6.21205 22,13.875c0,7.66295 -9.84974,13.875 -22,13.875c-12.15026,0 -22,-6.21205 -22,-13.875c0,-7.66295 9.84974,-13.875 22,-13.875z" fill="#ad3a00" stroke="none" stroke-width="0"/><path d="M122.13177,153.62569c2.53972,0.44753 8.02186,5.70918 9.95653,11.84523c1.97965,6.27872 0.42137,13.42595 3.90735,13.07795c6.28504,-0.62742 -0.9075,-13.46687 5.61743,-21.09154c8.55876,-10.0013 32.45125,-11.28376 36.23231,-13.72826c4.26588,-2.75794 0.69584,-20.75689 -11.90073,-32.20548c-11.31599,-10.28473 -31.79813,-14.27005 -28.67261,-14.27005c1.75488,0 12.102,-4.78567 16.73638,-4.01219c10.12878,1.69051 17.51811,10.10777 21.54415,13.13184c15.50954,11.64962 8.84447,31.64877 8.84447,35.50535c0,1.8307 6.65372,11.8347 -2.88494,14.62721c-5.29409,1.54988 -19.23144,-5.48892 -27.55718,-4.2531c-1.90327,0.28251 -5.17182,3.84066 -6.09358,4.80423c-8.87622,9.27885 -4.52009,33.44667 -13.0893,33.44667c-4.33435,0 -3.58761,-21.95783 -6.98327,-28.08078c-4.5939,-8.28357 -13.03329,-1.49205 -16.87159,-2.49623c-6.65526,-1.74116 -0.27015,-15.39414 -0.27015,-18.04799c0,-1.50024 0.02991,9.72863 11.48473,11.74714z" fill="#ad3a00" stroke="none" stroke-width="0"/><path d="M156.67165,122.35267c2.10653,-6.07282 1.84211,-14.49518 4.66502,-14.49518c0.59239,0 4.11806,-1.43983 5.39322,1.27068c1.21327,2.57894 0.15239,9.31766 1.65907,9.2098c2.86298,-0.20495 6.00531,-11.44999 7.44323,-8.74377c3.86876,7.28111 1.25448,24.93468 1.25448,29.76329c0,8.56041 -10.64137,-0.5 -15.75,-0.5c-5.10863,0 -10.75,3.06041 -10.75,-5.5c0,-3.83012 4.37933,-6.08765 6.08498,-11.00482z" fill="#000000" stroke="#000000" stroke-width="3.5"/><path d="M113.58667,138.8575c0,-0.04283 7.02973,-7.61242 7.08474,-7.70475c0.67741,-1.13697 -0.06142,-9.97179 -0.0246,-10.4874c0.69279,-9.70073 2.03495,-12.55786 10.06486,-12.55786c8.49138,0 15.375,8.50659 15.375,19c0,10.49341 -6.88362,19 -15.375,19c-8.49138,0 -17.125,3.24341 -17.125,-7.25z" fill="#000000" stroke="#000000" stroke-width="3.5"/><path d="M149.62007,94.2751c19.74418,0 35.75,16.62143 35.75,37.125c0,8.67444 3.38515,17.65402 -1.4156,23.97407c-6.54667,8.61851 -17.44338,-3.59907 -28.8344,-3.59907c-1.84249,0 -8.73837,5.49847 -10.84486,11.90184c-3.48758,10.60165 -2.55244,24.55432 -7.90807,26.54929c-6.38888,2.37985 -4.46483,-19.87056 -10.0241,-29.20268c-2.83214,-4.7542 -14.826,1.61924 -15.99188,0.30832c-5.88531,-6.61746 3.51891,-20.21354 3.51891,-29.93177c0,-20.50357 16.00582,-37.125 35.75,-37.125z" fill="none" stroke="#000000" stroke-width="3.5"/><path d="M115.55704,158.70024c0,-3.16811 -4.74463,-14.76861 0.09071,-19.19992c6.12273,-5.61111 23.17961,-6.30008 32.78429,-6.30008c1.25457,0 2.53467,-0.0349 3.82437,-0.08264c7.51586,-0.27819 15.3579,-0.99213 20.37417,2.22657c5.91721,3.79678 7.92646,13.00399 7.92646,16.60606c0,7.1797 -13.93513,-0.5 -31.125,-0.5c-1.86861,0 -4.7283,11.13597 -6.55892,20.00936c-2.14723,10.40803 -3.25448,18.83063 -5.28924,19.3284c-5.94484,1.45431 -5.02096,-10.43309 -8.91776,-18.50745c-1.86272,-3.85964 -1.19334,-10.20491 -3.72506,-12.69693c-3.03124,-2.98371 -9.38402,0.64734 -9.38402,-0.88339z" fill="#e2c5b6" stroke="#000000" stroke-width="0"/><path d="M130.36796,174.56999c0,-0.5692 -1.37779,-8.84654 -5.39483,-13.43588c-3.41573,-3.90236 -9.63986,-4.09954 -8.95176,-5.69622c3.01541,-6.99702 25.17867,-4.7584 30.41825,-7.13591c6.81879,-3.0941 22.773,-3.61298 29.15654,-2.02347c6.87125,1.71095 3.96231,5.66648 5.02179,5.66648c0.86462,0 -0.22544,2.22996 -5.74302,1.45059c-6.30479,-0.89057 -17.54993,-4.64047 -23.71889,-1.62273c-8.261,4.04112 -9.28809,19.0869 -9.28809,22.79714c0,8.90559 -2.57436,16.125 -5.75,16.125c-3.17564,0 -5.75,-7.21941 -5.75,-16.125z" fill="#ceb4a7" stroke="none" stroke-width="0"/><path d="M115.55705,158.70022c0,-3.16811 -4.74464,-14.76862 0.09071,-19.19992c6.12273,-5.61111 23.1796,-6.30008 32.78429,-6.30008c8.56568,0 18.3215,-1.62708 24.19855,2.14394c5.9172,3.79678 7.92645,13.00399 7.92645,16.60606c0,7.1797 -13.93514,-0.5 -31.125,-0.5c-1.86861,0 -4.72829,11.13596 -6.55892,20.00936c-2.14723,10.40803 -3.25448,18.83063 -5.28925,19.3284c-5.94484,1.45431 -5.02096,-10.43309 -8.91776,-18.50745c-1.86272,-3.85964 -1.19334,-10.20491 -3.72506,-12.69693c-3.03125,-2.98371 -9.38402,0.64735 -9.38402,-0.88338z" fill="none" stroke="#000000" stroke-width="3.5"/><path d="M144.38093,131.10443c6.97259,0 12.625,2.35051 12.625,5.25c0,2.89949 -5.65241,5.25 -12.625,5.25c-6.97259,0 -12.625,-2.35051 -12.625,-5.25c0,-2.89949 5.65241,-5.25 12.625,-5.25z" fill="#000000" stroke="#000000" stroke-width="3.5"/></g><g stroke-linecap="butt"><path d="M221.26267,130.85081c2.42948,0 -0.37942,22.32345 1.04381,25.6555c1.23744,2.89708 6.71136,-13.19934 8.55967,-12.46798c4.3831,1.73435 3.95769,31.81064 7.74669,33.38933c3.01303,1.25538 2.25998,-31.80856 5.31628,-35.71576c4.28794,-5.48173 11.95855,17.86089 11.95855,23.38891c0,18.91575 -15.50214,34.25 -34.625,34.25c-4.95358,0 -8.4142,-12.02895 -12.67534,-13.88257c-12.18863,-5.30211 -21.94966,-6.35161 -21.94966,-20.36743c0,-18.91575 15.50214,-34.25 34.625,-34.25z" fill="#bae695" stroke="#000000" stroke-width="0"/><path d="M221.02223,133.00906c0,-1.15695 -15.5526,4.29699 -24.28475,13.83355c-5.64236,6.16213 -5.96149,15.04818 -5.71466,21.5318c0.41969,11.02406 31.39934,19.88465 33.49942,19.88465c2.20227,0 20.53419,1.14434 25.11007,-8.31767c6.32574,-13.08036 -1.11007,-37.77501 -1.11007,-35.93233c0,1.758 11.25284,20.40481 5.23153,35.14029c-4.85554,11.88258 -26.88935,20.60971 -29.23153,20.60971c-0.55755,0 -4.69315,0.07378 -6.90888,-2.23194c-2.07861,-2.16302 -2.10781,-6.60005 -6.50211,-9.85969c-4.69219,-3.48061 -14.65573,-6.08052 -19.63586,-9.886c-4.76275,-3.63938 -4.64741,-8.48811 -4.7444,-11.68431c-0.25388,-8.36603 5.56869,-20.33253 13.3549,-25.88932c9.33076,-6.65909 20.93636,-6.18468 20.93636,-7.19874z" fill="#53931e" stroke="none" stroke-width="0"/><path d="M221.64725,159.00906c9.04366,0 16.375,5.09276 16.375,11.375c0,6.28224 5.66866,15.125 -3.375,15.125c-9.04366,0 -29.375,-8.84276 -29.375,-15.125c0,-6.28224 7.33134,-11.375 16.375,-11.375z" fill="#53931e" stroke="none" stroke-width="0"/><path d="M221.26267,131.35081c2.42948,0 -0.37942,22.32345 1.04381,25.65551c1.23744,2.89707 6.71137,-13.19934 8.55968,-12.46799c4.3831,1.73435 3.95769,31.81064 7.74668,33.38932c3.01303,1.25538 2.25998,-31.80856 5.31629,-35.71576c4.28795,-5.48173 11.95855,17.86089 11.95855,23.38892c0,18.91575 -15.50214,34.25 -34.625,34.25c-4.95358,0 -8.4142,-12.02895 -12.67535,-13.88257c-12.18863,-5.30211 -21.94965,-6.35161 -21.94965,-20.36743c0,-18.91575 15.50214,-34.25 34.625,-34.25z" fill="none" stroke="#000000" stroke-width="3.5"/><path d="M218.39725,141.25906c2.49991,0 3.15242,7.99318 4.24478,12.97373c2.13539,9.73618 3.13022,20.65622 3.13022,26.77627c0,9.25077 -11.23819,-6 -18.625,-6c-7.38681,0 -12.375,-0.74923 -12.375,-10c0,-9.25077 16.23819,-23.75 23.625,-23.75z" fill="#000000" stroke="none" stroke-width="0"/><path d="M232.36269,161.05779c1.31053,-2.43226 2.22815,16.95127 7.65956,16.95127c2.22331,0 0.73799,-23.23989 2.41766,-25.12841c3.1186,-3.50636 8.58234,13.9749 8.58234,19.62841c0,8.69848 -5.14873,15.75 -11.5,15.75c-6.35127,0 -11.5,-7.05152 -11.5,-15.75c0,-1.25982 4.11849,-11.03934 4.34044,-11.45127z" fill="#000000" stroke="none" stroke-width="0"/></g><g data-paper-data="{&quot;index&quot;:null}" stroke-linecap="butt"><g><g><path d="M294.20987,183.48263l-16.11242,-39.64458l22.72452,-9.07864l16.11241,39.64459z" fill="#252525" stroke="#000000" stroke-width="0"/><path d="M294.20987,183.48263l-16.11242,-39.64458l22.72452,-9.07864l16.11241,39.64459z" fill="#252525" stroke="#000000" stroke-width="0"/><path d="M301.83588,137.67493c0.81763,2.01179 10.85322,24.72302 12.88511,31.90592c3.65452,12.91909 -2.19679,6.09034 -4.25034,6.91076c-2.29024,0.91497 -9.66288,4.73809 -13.80875,5.94589c-1.6384,0.47731 -1.74576,2.31655 -2.3939,0.7218c-0.54273,-1.33537 -16.34528,-38.25581 -15.87361,-40.22653c0.57315,-2.39466 9.59396,20.43501 13.76716,24.23756c6.87239,6.26202 10.17573,-4.02168 11.69227,-4.62753c1.5599,-0.6232 5.66586,2.89518 4.5107,-3.74173c-1.21111,-6.95829 -7.69981,-24.00777 -6.52865,-21.12613z" fill="#141414" stroke="none" stroke-width="0"/><path d="M294.20987,183.48263l-16.11242,-39.64458l22.72452,-9.07864l16.11241,39.64459z" fill="none" stroke="#000000" stroke-width="3.5"/><path d="M294.20987,183.48263l-16.11242,-39.64458l22.72452,-9.07864l16.11241,39.64459z" fill="none" stroke="#000000" stroke-width="3.5"/></g><g><path d="M281.59946,167.77417l-3.26227,-8.02682l33.20024,-13.26377l3.26227,8.02682z" fill="#252525" stroke="#000000" stroke-width="0"/><path d="M281.59946,167.77417l-3.26227,-8.02682l33.20024,-13.26377l3.26227,8.02682z" fill="#252525" stroke="#000000" stroke-width="0"/><path d="M311.55756,147.14786c0.16555,0.40732 3.06931,4.65734 2.5199,6.4955c-0.98817,3.30611 -6.19134,4.96784 -9.19157,6.16645c-4.66834,1.86504 -22.60614,8.95685 -23.06944,7.81691c-0.10989,-0.27037 -4.17266,-7.40076 -2.69927,-8.35025c1.79035,-1.15374 3.33782,3.58 7.0279,3.21326c6.07677,-0.60397 14.84742,-5.92283 17.06307,-6.808c2.27899,-0.91048 6.00771,-1.35565 7.44361,-3.36651c1.50542,-2.10824 0.66868,-5.75081 0.90581,-5.16736z" fill="#141414" stroke="none" stroke-width="0"/><path d="M281.59946,167.77417l-3.26227,-8.02682l33.20024,-13.26377l3.26227,8.02682z" fill="none" stroke="#000000" stroke-width="3.5"/><path d="M281.59946,167.77417l-3.26227,-8.02682l33.20024,-13.26377l3.26227,8.02682z" fill="none" stroke="#000000" stroke-width="3.5"/></g><g><path d="M284.43629,181.43575l-3.26228,-8.02682l37.50962,-14.98542l3.26228,8.02683z" fill="#252525" stroke="#000000" stroke-width="0"/><path d="M284.43629,181.43575l-3.26228,-8.02682l37.50962,-14.98542l3.26228,8.02683z" fill="#252525" stroke="#000000" stroke-width="0"/><path d="M318.67586,159.09895c0.16555,0.40732 3.20068,4.60485 2.5065,6.50085c-1.24857,3.41013 -7.10818,5.33411 -10.49784,6.6883c-5.27428,2.10712 -25.53705,10.12777 -26.00034,8.98783c-0.10989,-0.27037 -4.30273,-7.34881 -2.62172,-8.38124c2.04264,-1.25453 3.54809,3.49602 7.66686,2.958c6.78277,-0.88602 16.77421,-6.69261 19.27745,-7.69268c2.5748,-1.02866 6.74011,-1.64823 8.42762,-3.75962c1.76921,-2.21363 1.00434,-5.8849 1.24146,-5.30146z" fill="#141414" stroke="none" stroke-width="0"/><path d="M284.43629,181.43575l-3.26228,-8.02682l37.50962,-14.98542l3.26228,8.02683z" fill="none" stroke="#000000" stroke-width="3.5"/><path d="M284.43629,181.43575l-3.26228,-8.02682l37.50962,-14.98542l3.26228,8.02683z" fill="none" stroke="#000000" stroke-width="3.5"/></g></g><g><path d="M271.93663,153.62301l-3.74682,-9.21907l38.74089,-15.47729l3.74683,9.21906z" fill="#252525" stroke="#000000" stroke-width="0"/><path d="M271.93663,153.62301l-3.74682,-9.21907l38.74089,-15.47729l3.74683,9.21906z" fill="#252525" stroke="#000000" stroke-width="0"/><path d="M306.94987,129.69117c0.19014,0.46783 3.54377,5.34168 2.89229,7.46106c-1.17177,3.81188 -7.24059,5.7575 -10.74151,7.15615c-5.4474,2.17629 -26.37832,10.4528 -26.91042,9.14354c-0.1262,-0.31053 -4.81082,-8.49266 -3.08923,-9.59491c2.09195,-1.33937 3.86334,4.09989 8.16212,3.65444c7.0792,-0.73354 17.32519,-6.91142 19.9106,-7.94431c2.65932,-1.06243 7.00362,-1.59837 8.68836,-3.92213c1.76633,-2.43628 0.81546,-6.62394 1.0878,-5.95385z" fill="#141414" stroke="none" stroke-width="0"/><path d="M271.93663,153.62301l-3.74682,-9.21907l38.74089,-15.47729l3.74683,9.21906z" fill="none" stroke="#000000" stroke-width="3.5"/><path d="M271.93663,153.62301l-3.74682,-9.21907l38.74089,-15.47729l3.74683,9.21906z" fill="none" stroke="#000000" stroke-width="3.5"/></g></g><g data-paper-data="{&quot;index&quot;:null}"><path d="M320.78819,185.48674c2.57774,9.6605 -2.46925,19.39619 -11.27278,21.74525c-8.80352,2.34908 -18.02987,-3.57801 -20.60761,-13.23852c-2.57774,-9.6605 2.46926,-19.39619 11.27278,-21.74525c8.80352,-2.34908 18.02986,3.57802 20.6076,13.23852z" fill="#c747ff" stroke="#000000" stroke-width="0" stroke-linecap="butt"/><path d="M321.17884,192.43964c1.45518,5.45351 -3.68081,11.55967 -11.47154,13.6385c-7.79073,2.07883 -15.28601,-0.6569 -16.74119,-6.1104c-0.97946,-3.6707 12.95854,7.68604 18.68365,1.02315c1.35361,-1.57533 4.29059,-8.9713 3.47791,-15.22159c-0.85675,-6.5893 -5.47229,-12.01427 -4.16522,-12.36304c7.79073,-2.07883 8.76121,13.57988 10.21638,19.03339z" fill="#991cba" stroke="none" stroke-width="0" stroke-linecap="butt"/><path d="M321.06564,186.38786c2.57775,9.6605 -2.46924,19.39619 -11.27277,21.74525c-8.80353,2.34908 -18.02986,-3.57801 -20.6076,-13.23852c-2.57774,-9.6605 2.46925,-19.39619 11.27278,-21.74525c8.80353,-2.34908 18.02985,3.57801 20.60759,13.23852z" fill="none" stroke="#000000" stroke-width="3.5" stroke-linecap="butt"/><g><path d="M328.94696,207.46387c0.43629,-7.56693 -13.26729,-11.87929 -9.56431,-11.66579c1.73069,0.09979 6.03766,-8.24194 11.06985,-6.35708c5.73467,2.148 12.13648,14.76571 11.90411,18.79604c-0.43627,7.56695 -3.7918,13.52809 -7.49477,13.31459c-3.70299,-0.21348 -6.35116,-6.52077 -5.91489,-14.08773z" fill="#ff7347" stroke="#000000" stroke-width="0" stroke-linecap="butt"/><path d="M330.00149,214.26567c0.07064,-1.22539 0.52285,-6.22669 -1.87672,-10.57503c-1.49216,-2.704 -5.55903,-4.54221 -7.02386,-6.93056c-2.03346,-3.31544 1.93667,-5.20632 2.70472,-5.16203c2.093,0.12068 16.36929,20.46132 16.18828,23.6008c-0.18101,3.13948 -2.02445,5.58671 -4.11743,5.46603c-2.09298,-0.12068 -5.82268,-2.35972 -5.64167,-5.4992z" fill="#ba491c" stroke="none" stroke-width="0" stroke-linecap="butt"/><path d="M328.62686,207.33421c0.43629,-7.56693 -13.26728,-11.87929 -9.56431,-11.66579c1.73068,0.09979 6.03765,-8.24194 11.06984,-6.35708c5.73468,2.148 12.13649,14.76571 11.90412,18.79604c-0.43627,7.56693 -3.7918,13.52809 -7.49477,13.31459c-3.70297,-0.2135 -6.35115,-6.5208 -5.91487,-14.08774z" fill="none" stroke="#000000" stroke-width="3.5" stroke-linecap="butt"/><path d="M329.32774,205.32419l9.92249,-4.69261" fill="none" stroke="#000000" stroke-width="3.5" stroke-linecap="round"/></g><g><path d="M314.0838,213.32647c3.03791,-6.94405 -8.31401,-15.74853 -4.91584,-14.26189c1.58822,0.69482 8.5249,-5.63107 12.58885,-2.11539c4.63126,4.00647 6.25086,18.06231 4.63281,21.76088c-3.0379,6.94408 -8.25537,11.3682 -11.65353,9.88156c-3.39819,-1.48663 -3.69022,-8.32105 -0.65231,-15.26514z" fill="#4757ff" stroke="#000000" stroke-width="0" stroke-linecap="butt"/><path d="M312.70966,220.07097c0.49195,-1.12453 2.65348,-5.65722 1.914,-10.56835c-0.45984,-3.05397 -3.63479,-6.19053 -4.17866,-8.93901c-0.755,-3.81538 3.62475,-4.20924 4.32958,-3.90088c1.92071,0.84028 8.24134,24.87367 6.98093,27.75473c-1.26041,2.88106 -3.83921,4.53544 -5.75991,3.69516c-1.92069,-0.84028 -4.64023,-4.23557 -3.37982,-7.11663z" fill="#1c66ba" stroke="none" stroke-width="0" stroke-linecap="butt"/><path d="M313.82868,213.09368c3.03791,-6.94405 -8.31399,-15.74851 -4.91583,-14.26188c1.58821,0.69482 8.52489,-5.63108 12.58884,-2.1154c4.63127,4.00648 6.25087,18.06231 4.63281,21.76089c-3.03789,6.94406 -8.25536,11.36819 -11.65353,9.88156c-3.39816,-1.48663 -3.6902,-8.32107 -0.6523,-15.26514z" fill="none" stroke="#000000" stroke-width="3.5" stroke-linecap="butt"/><path d="M326.11891,210.49915l-10.93471,0.9532" fill="none" stroke="#000000" stroke-width="3.5" stroke-linecap="round"/></g><g><path d="M298.67148,216.12967c3.96095,-6.46217 -6.07716,-16.73938 -2.91481,-14.80104c1.47801,0.90594 9.21622,-4.40957 12.75998,-0.37009c4.03845,4.60339 3.71636,18.74857 1.60667,22.19049c-3.96095,6.4622 -9.73552,10.12948 -12.89786,8.19115c-3.16237,-1.93833 -2.51496,-8.74829 1.44599,-15.21049z" fill="#4aff47" stroke="#000000" stroke-width="0" stroke-linecap="butt"/><path d="M296.38594,222.62219c0.64143,-1.04649 3.40378,-5.24016 3.34437,-10.2063c-0.03694,-3.08818 -2.75205,-6.63027 -2.9141,-9.42737c-0.22496,-3.88284 4.16744,-3.67273 4.82335,-3.27069c1.78742,1.0956 4.75455,25.76846 3.11117,28.44959c-1.64337,2.68113 -4.42458,3.96646 -6.212,2.87087c-1.78741,-1.09559 -4.01594,-4.83157 -2.37257,-7.51269z" fill="#1cba38" stroke="none" stroke-width="0" stroke-linecap="butt"/><path d="M298.45067,215.86411c3.96095,-6.46217 -6.07714,-16.73937 -2.91479,-14.80103c1.478,0.90594 9.21621,-4.40957 12.75997,-0.37009c4.03846,4.6034 3.71637,18.74857 1.60668,22.19049c-3.96094,6.46218 -9.73552,10.12949 -12.89786,8.19115c-3.16235,-1.93833 -2.51495,-8.74831 1.446,-15.21049z" fill="none" stroke="#000000" stroke-width="3.5" stroke-linecap="butt"/><path d="M310.98051,214.97848l-10.96216,-0.55444" fill="none" stroke="#000000" stroke-width="3.5" stroke-linecap="round"/></g><g data-paper-data="{&quot;index&quot;:null}"><path d="M285.5125,211.53085c-0.0137,7.57952 -3.03161,13.71848 -6.74074,13.71177c-3.70911,-0.00669 -6.70485,-6.15651 -6.69116,-13.73602c0.00729,-4.03702 7.14683,-16.25245 12.99889,-18.05624c5.13521,-1.58281 8.93939,6.99988 10.67296,7.003c3.70913,0.00669 -10.22628,3.49797 -10.23996,11.07746z" fill="#ff4747" stroke="#000000" stroke-width="0" stroke-linecap="butt"/><path d="M283.76972,219.1426c-0.00568,3.14469 -3.86171,5.15838 -5.95817,5.1546c-2.09645,-0.00378 -3.79138,-2.55612 -3.7857,-5.70081c0.00568,-3.14469 15.46427,-22.60198 17.56074,-22.59821c0.76932,0.00139 4.6202,2.12461 2.39351,5.31349c-1.60403,2.29719 -5.77283,3.89072 -7.42288,6.50138c-2.65347,4.19823 -2.49895,9.21754 -2.50117,10.44498z" fill="#ba1c1c" stroke="none" stroke-width="0" stroke-linecap="butt"/><path d="M285.83971,211.42042c-0.01368,7.5795 -3.03161,13.71846 -6.74072,13.71177c-3.70911,-0.00669 -6.70485,-6.15654 -6.69116,-13.73602c0.00729,-4.03702 7.14682,-16.25244 12.9989,-18.05623c5.13521,-1.58281 8.93939,6.99988 10.67294,7.003c3.70911,0.00669 -10.22627,3.49797 -10.23994,11.07746z" fill="none" stroke="#000000" stroke-width="3.5" stroke-linecap="butt"/><path d="M275.63297,204.09896l9.62642,5.27335" fill="none" stroke="#000000" stroke-width="3.5" stroke-linecap="round"/></g></g><g data-paper-data="{&quot;index&quot;:null}" stroke-linecap="butt"><g><g><path d="M354.91268,148.9646l-34.60582,-23.32758l8.96491,-18.4472l34.60582,23.32759z" fill="#252525" stroke="#000000" stroke-width="0"/><path d="M354.91268,148.9646l-34.60582,-23.32758l8.96491,-18.4472l34.60582,23.32759z" fill="#252525" stroke="#000000" stroke-width="0"/><path d="M331.70737,108.99021c1.75609,1.18377 22.09566,14.14795 27.7982,18.81477c10.25654,8.3937 2.3289,5.90165 1.51878,7.56868c-0.90351,1.85916 -3.274,8.53751 -5.18451,11.54868c-0.75501,1.18998 0.30385,2.69636 -1.08821,1.75798c-1.16565,-0.78575 -33.90335,-22.11483 -34.80987,-23.90583c-1.10152,-2.17629 18.66179,11.38493 23.66127,12.31868c8.23311,1.5377 4.0411,-8.22595 4.63939,-9.45702c0.61538,-1.2663 5.39766,-0.5237 0.59041,-5.19413c-5.04004,-4.89658 -19.64085,-15.14739 -17.12546,-13.45178z" fill="#141414" stroke="none" stroke-width="0"/><path d="M354.91268,148.9646l-34.60582,-23.32758l8.96491,-18.4472l34.60582,23.32759z" fill="none" stroke="#000000" stroke-width="3.5"/><path d="M354.91268,148.9646l-34.60582,-23.32758l8.96491,-18.4472l34.60582,23.32759z" fill="none" stroke="#000000" stroke-width="3.5"/></g><g><path d="M337.21965,142.8105l-7.00662,-4.72313l13.09762,-26.95113l7.00663,4.72313z" fill="#252525" stroke="#000000" stroke-width="0"/><path d="M337.21965,142.8105l-7.00662,-4.72313l13.09762,-26.95113l7.00663,4.72313z" fill="#252525" stroke="#000000" stroke-width="0"/><path d="M343.73074,111.65108c0.35555,0.23967 4.81765,2.15677 5.5932,3.88161c1.3949,3.10229 -0.9134,6.99667 -2.097,9.43217c-1.84168,3.78964 -8.96387,18.29225 -9.95893,17.62149c-0.23601,-0.15909 -7.20494,-3.77682 -6.8449,-5.25798c0.4375,-1.79979 4.3289,1.17239 6.46356,-0.94815c3.51532,-3.4921 5.86278,-12.04579 6.73686,-13.8444c0.89907,-1.85003 3.01036,-4.05171 2.69578,-6.35281c-0.32983,-2.41253 -3.09785,-4.87524 -2.58855,-4.53193z" fill="#141414" stroke="none" stroke-width="0"/><path d="M337.21965,142.8105l-7.00662,-4.72313l13.09762,-26.95113l7.00663,4.72313z" fill="none" stroke="#000000" stroke-width="3.5"/><path d="M337.21965,142.8105l-7.00662,-4.72313l13.09762,-26.95113l7.00663,4.72313z" fill="none" stroke="#000000" stroke-width="3.5"/></g><g><path d="M347.40852,152.1965l-7.00663,-4.72312l14.79768,-30.44939l7.00663,4.72313z" fill="#252525" stroke="#000000" stroke-width="0"/><path d="M347.40852,152.1965l-7.00663,-4.72312l14.79768,-30.44939l7.00663,4.72313z" fill="#252525" stroke="#000000" stroke-width="0"/><path d="M355.60866,117.56148c0.35555,0.23967 4.86947,2.05012 5.5879,3.89249c1.29216,3.31367 -1.2751,7.74092 -2.61234,10.49255c-2.08072,4.28153 -10.12013,20.67148 -11.11518,20.00072c-0.23601,-0.15909 -7.25627,-3.67124 -6.81432,-5.32094c0.53703,-2.00459 4.41186,1.00172 6.71564,-1.46683c3.79384,-4.06521 6.6229,-13.60991 7.61043,-15.64199c1.01576,-2.09017 3.29931,-4.64624 3.08398,-7.15161c-0.22577,-2.62668 -2.96543,-5.14772 -2.45614,-4.80441z" fill="#141414" stroke="none" stroke-width="0"/><path d="M347.40852,152.1965l-7.00663,-4.72312l14.79768,-30.44939l7.00663,4.72313z" fill="none" stroke="#000000" stroke-width="3.5"/><path d="M347.40852,152.1965l-7.00663,-4.72312l14.79768,-30.44939l7.00663,4.72313z" fill="none" stroke="#000000" stroke-width="3.5"/></g></g><g><path d="M322.36601,136.42436l-8.04734,-5.42467l15.28344,-31.44888l8.04734,5.42466z" fill="#252525" stroke="#000000" stroke-width="0"/><path d="M322.36601,136.42436l-8.04734,-5.42467l15.28344,-31.44888l8.04734,5.42466z" fill="#252525" stroke="#000000" stroke-width="0"/><path d="M330.08305,100.14531c0.40837,0.27528 5.54054,2.46204 6.42322,4.4597c1.58755,3.59297 -1.10021,8.14111 -2.48134,10.98308c-2.14902,4.42207 -10.4588,21.34567 -11.60165,20.57527c-0.27106,-0.18273 -8.28236,-4.32286 -7.85726,-6.04786c0.51655,-2.09608 4.98364,1.3224 7.45926,-1.16233c4.07686,-4.09181 6.84107,-14.05615 7.86102,-16.15492c1.0491,-2.15877 3.49836,-4.73758 3.15108,-7.40936c-0.3641,-2.80115 -3.53925,-5.63789 -2.95433,-5.2436z" fill="#141414" stroke="none" stroke-width="0"/><path d="M322.36601,136.42436l-8.04734,-5.42467l15.28344,-31.44888l8.04734,5.42466z" fill="none" stroke="#000000" stroke-width="3.5"/><path d="M322.36601,136.42436l-8.04734,-5.42467l15.28344,-31.44888l8.04734,5.42466z" fill="none" stroke="#000000" stroke-width="3.5"/></g></g><g stroke-linecap="butt"><path d="M357.61443,131.37357l32.92686,-7.40841l7.57304,33.65857l-32.92686,7.40841z" fill="#151515" stroke="#000000" stroke-width="3.5"/><g><path d="M346.51624,132.28972l17.03351,-12.32313l2.08743,36.56183l-9.88413,4.06865z" fill="#ffffff" stroke="#000000" stroke-width="0"/><path d="M353.74258,145.20409c2.62,-1.71175 1.48932,3.70158 3.75486,7.16923c0.40408,0.61849 4.70238,5.44282 5.34235,0.63256c0.53209,-3.99942 -0.75613,-10.83957 -1.02698,-16.84423c-0.04884,-1.08282 -0.09049,-7.29808 -0.28493,-8.37947c-0.57084,-3.17467 -1.62718,-1.06991 -1.47671,-2.98457c0.15907,-2.0241 2.25362,-2.58439 2.43939,-2.47034c0.80141,0.49201 3.37958,21.81337 2.82122,31.86567c-0.19815,3.56731 -3.03204,3.35112 -3.36494,3.56861c-2.62,1.71174 -6.58052,0.2883 -8.84606,-3.17935c-2.26555,-3.46765 -1.9782,-7.66638 0.6418,-9.37812z" fill="#a2a2a2" stroke="none" stroke-width="0"/><path d="M346.58043,132.84504l17.03351,-12.32313l2.08743,36.56183l-9.88413,4.06865z" fill="none" stroke="#000000" stroke-width="3.5"/><path d="M348.75426,130.23029l11.09243,-7.2471l-0.95427,35.56282l-3.13937,2.05107z" fill="#696969" stroke="#000000" stroke-width="0"/><path d="M357.43149,125.45702c0.69392,-0.45337 -3.93049,3.6045 -4.67946,8.64328c-0.68574,4.6134 1.26237,13.32275 2.34522,14.98016c2.26554,3.46765 3.48221,9.96865 2.15294,10.83711c-1.32927,0.86846 -3.4928,-7.40294 -5.75834,-10.87059c-1.22215,-1.87062 -4.98104,-9.39229 -2.99406,-16.01382c1.69637,-5.65308 8.3215,-7.17617 8.93369,-7.57614z" fill="#3f3f3f" stroke="none" stroke-width="0"/><path d="M348.39987,131.05908l11.09243,-7.2471l-0.95427,35.56282l-3.13937,2.05107c0,0 -6.35873,-15.7751 -7.64935,-21.37496c-0.88967,-3.86014 0.65056,-8.99183 0.65056,-8.99183z" fill="none" stroke="#000000" stroke-width="3.5"/></g><g><path d="M392.0645,114.17932c15.69298,-3.53085 31.52268,7.42049 35.35661,24.46051c3.83393,17.04002 -5.77973,33.71601 -21.47271,37.24687c-11.27958,2.53786 -40.14808,-2.82084 -47.06374,-12.12991c-2.70592,-3.6424 12.78536,-7.53836 11.70713,-12.3306c-1.34974,-5.99893 18.08306,-12.40999 19.74519,-17.76101c3.05916,-9.84861 -8.44075,-17.19803 1.72752,-19.48585z" fill="#ff007b" stroke="#000000" stroke-width="0"/><path d="M402.65306,130.19813c5.30296,0.93509 13.39375,-0.71892 11.71538,8.79922c-0.80142,4.54491 0.43047,18.85802 -2.9418,24.06801c-3.69008,5.701 -12.0807,2.08959 -14.8515,1.601c-2.97605,-0.52478 -10.14009,0.97287 -11.50666,-6.27736c-1.06849,-5.66882 3.20125,-19.77825 3.93771,-23.95477c1.67837,-9.51813 8.34392,-5.17118 13.64688,-4.23609z" fill="#b10055" stroke="none" stroke-width="0"/><path d="M369.68456,157.84012c0.9747,3.07787 2.90465,7.77918 3.56437,10.71131c0.5178,2.30137 11.70984,6.13331 23.76596,3.55973c0.42784,-0.09133 16.57299,-4.47126 17.0511,-4.54632c5.33508,-0.83762 6.74515,-19.14188 8.84338,-23.97144c2.33967,-5.38527 -1.57986,-19.17237 -3.13587,-18.82227c-0.71553,0.16099 9.14051,13.59071 9.19648,18.78112c0.14529,13.4751 -9.87184,30.53583 -18.56198,32.49201c-18.83988,4.24091 -50.37827,-8.1616 -50.97003,-10.79167c-0.96985,-4.31052 3.59468,-9.00878 10.19516,-10.49386c2.11065,-0.47489 -0.40678,1.63449 0.05143,3.08139z" fill="#b10055" stroke="none" stroke-width="0"/><path d="M391.38766,114.58785c15.69298,-3.53085 31.52268,7.42049 35.35661,24.46051c3.83393,17.04002 -5.77973,33.71601 -21.47271,37.24687c-11.27958,2.53786 -40.14808,-2.82084 -47.06374,-12.12991c-2.70592,-3.6424 12.78536,-7.53836 11.70713,-12.3306c-1.34973,-5.99893 18.08307,-12.40999 19.7452,-17.76101c3.05916,-9.8486 -8.44076,-17.19803 1.72751,-19.48585z" fill="none" stroke="#000000" stroke-width="3.5"/><path d="M411.99724,161.20075c1.48508,6.60048 -4.68195,13.60966 -13.77445,15.65543c-9.0925,2.04577 -17.66733,-1.64655 -19.15241,-8.24703c-1.48508,-6.60048 4.68195,-13.60966 13.77445,-15.65543c9.0925,-2.04577 17.66733,1.64655 19.15241,8.24703z" fill="#000000" stroke="#000000" stroke-width="3.5"/><path d="M383.10717,115.93843c3.29375,-0.74108 11.72049,-3.06389 18.43711,-1.59741c8.66589,1.89208 15.57926,8.14266 16.40736,11.82316c1.46993,6.53314 -3.4536,13.20516 -10.99701,14.9024c-7.54341,1.69724 -14.85016,-2.22303 -16.32009,-8.75616c-1.46992,-6.53313 -15.07078,-14.67474 -7.52737,-16.37198z" fill="#000000" stroke="#000000" stroke-width="3.5"/></g></g><g stroke-linecap="butt"><g><g><path d="M228.06167,310.76406l3.00573,-61.01018l24.42166,2.51597l-3.00574,61.01018z" fill="#252525" stroke="#000000" stroke-width="0"/><path d="M228.06167,310.76406l3.00573,-61.01018l24.42166,2.51597l-3.00574,61.01018z" fill="#252525" stroke="#000000" stroke-width="0"/><path d="M231.00894,254.16651c0.21848,-4.43464 -0.65534,21.61221 0.35415,31.61932c0.96287,9.54489 3.77351,2.96981 5.44991,3.14253c1.6298,0.16789 7.96348,12.74858 12.55194,1.23508c2.7863,-6.99147 4.27225,-42.01296 5.56073,-38.99839c1.06036,2.48088 -2.49676,59.64457 -2.598,61.69961c-0.12091,2.45421 -0.79412,-0.00552 -2.49983,0.05461c-4.31622,0.15216 -12.51202,-1.86011 -14.9733,-2.11368c-2.20692,-0.22737 -5.64873,11.61557 -6.18651,-7.5738c-0.29899,-10.66912 2.1884,-45.9693 2.34092,-49.0653z" fill="#141414" stroke="none" stroke-width="0"/><path d="M228.06167,310.76406l3.00573,-61.01018l24.42166,2.51597l-3.00574,61.01018z" fill="none" stroke="#000000" stroke-width="3.5"/><path d="M228.06167,310.76406l3.00573,-61.01018l24.42166,2.51597l-3.00574,61.01018z" fill="none" stroke="#000000" stroke-width="3.5"/></g><g><path d="M223.91326,282.72988l0.60857,-12.35269l35.67972,3.6758l-0.60857,12.3527z" fill="#252525" stroke="#000000" stroke-width="0"/><path d="M223.91326,282.72988l0.60857,-12.35269l35.67972,3.6758l-0.60857,12.3527z" fill="#252525" stroke="#000000" stroke-width="0"/><path d="M227.17471,277.93967c1.98944,2.11742 5.67228,1.10697 8.12147,1.35929c2.38111,0.24531 12.37039,3.68949 18.33465,1.87711c3.62176,-1.10056 3.62282,-8.22222 5.68304,-7.42649c1.69549,0.65486 0.04757,12.13318 0.02707,12.54926c-0.08643,1.75428 -19.34076,-0.1302 -24.35773,-0.64707c-3.22429,-0.33216 -8.68657,-0.34002 -10.65261,-4.41661c-1.0931,-2.26655 0.3475,-9.31723 0.37838,-9.94407c0.04424,-0.89788 0.37996,4.42862 2.46573,6.64858z" fill="#141414" stroke="none" stroke-width="0"/><path d="M223.91326,282.72988l0.60857,-12.35269l35.67972,3.6758l-0.60857,12.3527z" fill="none" stroke="#000000" stroke-width="3.5"/><path d="M223.91326,282.72988l0.60857,-12.35269l35.67972,3.6758l-0.60857,12.3527z" fill="none" stroke="#000000" stroke-width="3.5"/></g><g><path d="M220.8277,302.09927l0.60857,-12.35271l40.31096,4.15293l-0.60858,12.35271z" fill="#252525" stroke="#000000" stroke-width="0"/><path d="M220.8277,302.09927l0.60857,-12.35271l40.31096,4.15293l-0.60858,12.35271z" fill="#252525" stroke="#000000" stroke-width="0"/><path d="M221.65341,290.66357c0.04424,-0.89788 0.4572,4.43657 2.82645,6.68574c2.25984,2.14528 6.41187,1.18314 9.17897,1.46821c2.69019,0.27716 13.99143,3.85652 20.71441,2.1223c4.08246,-1.05309 4.03836,-8.17942 6.36971,-7.35576c1.91861,0.67784 0.13091,12.14178 0.11042,12.55786c-0.08643,1.75428 -21.83934,-0.38762 -27.50753,-0.97157c-3.6428,-0.37529 -9.81054,-0.45581 -12.05642,-4.56122c-1.24869,-2.28258 0.3331,-9.31871 0.36398,-9.94554z" fill="#141414" stroke="none" stroke-width="0"/><path d="M220.8277,302.09927l0.60857,-12.35271l40.31096,4.15293l-0.60858,12.35271z" fill="none" stroke="#000000" stroke-width="3.5"/><path d="M220.8277,302.09927l0.60857,-12.35271l40.31096,4.15293l-0.60858,12.35271z" fill="none" stroke="#000000" stroke-width="3.5"/></g></g><g><path d="M222.75006,258.64249l0.69896,-14.18749l41.63417,4.28921l-0.69895,14.18749z" fill="#252525" stroke="#000000" stroke-width="0"/><path d="M222.75006,258.64249l0.69896,-14.18749l41.63417,4.28921l-0.69895,14.18749z" fill="#252525" stroke="#000000" stroke-width="0"/><path d="M226.55118,253.14647c2.32315,2.43587 6.61937,1.28214 9.47729,1.57658c2.77849,0.28624 14.43701,4.26114 21.39444,2.19059c4.22484,-1.25731 4.21967,-9.43744 6.62424,-8.51957c1.97887,0.75538 0.06641,13.93657 0.04287,14.41445c-0.09926,2.01485 -22.56678,-0.18594 -28.42102,-0.78906c-3.76239,-0.38761 -10.13571,-0.40691 -12.43336,-5.09307c-1.27746,-2.60547 0.39707,-10.70134 0.43255,-11.4213c0.0508,-1.03124 0.44731,5.08755 2.88297,7.64137z" fill="#141414" stroke="none" stroke-width="0"/><path d="M222.75006,258.64249l0.69896,-14.18749l41.63417,4.28921l-0.69895,14.18749z" fill="none" stroke="#000000" stroke-width="3.5"/><path d="M222.75006,258.64249l0.69896,-14.18749l41.63417,4.28921l-0.69895,14.18749z" fill="none" stroke="#000000" stroke-width="3.5"/></g></g><g data-paper-data="{&quot;index&quot;:null}" stroke-linecap="butt"><g><g><path d="M91.51058,218.89659l58.90522,-16.16944l5.22509,23.98845l-58.90523,16.16944z" fill="#252525" stroke="#000000" stroke-width="0"/><path d="M91.51058,218.89659l58.90522,-16.16944l5.22509,23.98845l-58.90523,16.16944z" fill="#252525" stroke="#000000" stroke-width="0"/><path d="M146.20498,204.04763c4.28164,-1.1753 -20.73889,6.11685 -29.93219,10.19661c-8.76868,3.89132 -1.645,4.51144 -1.28635,6.15811c0.34872,1.60088 -9.62956,11.54188 2.74069,12.31119c7.51171,0.46716 41.25024,-9.04203 38.78779,-6.87774c-2.02651,1.78112 -57.44899,16.22718 -59.43313,16.77183c-2.36954,0.65044 -0.2424,-0.75623 -0.83144,-2.35814c-1.49053,-4.05355 -2.13437,-12.46817 -2.66097,-14.88579c-0.47216,-2.16777 -12.79786,-1.74488 5.26695,-8.23982c10.04387,-3.61112 44.35948,-12.25571 47.34866,-13.07624z" fill="#141414" stroke="none" stroke-width="0"/><path d="M91.51058,218.89659l58.90522,-16.16944l5.22509,23.98845l-58.90523,16.16944z" fill="none" stroke="#000000" stroke-width="3.5"/><path d="M91.51058,218.89659l58.90522,-16.16944l5.22509,23.98845l-58.90523,16.16944z" fill="none" stroke="#000000" stroke-width="3.5"/></g><g><path d="M116.85321,206.21292l11.92651,-3.27382l7.63378,35.04682l-11.92652,3.27382z" fill="#252525" stroke="#000000" stroke-width="0"/><path d="M116.85321,206.21292l11.92651,-3.27382l7.63378,35.04682l-11.92652,3.27382z" fill="#252525" stroke="#000000" stroke-width="0"/><path d="M122.42161,207.81797c-1.39145,2.55053 0.71706,5.73463 1.24108,8.14038c0.50944,2.33888 0.35204,12.90407 3.93394,18.00575c2.17509,3.09796 8.94195,0.87817 8.82836,3.0838c-0.09349,1.81515 -11.51333,3.82879 -11.91505,3.93906c-1.69376,0.46493 -5.90747,-18.41694 -6.98086,-23.34493c-0.68987,-3.1671 -2.38574,-8.35945 0.87449,-11.49869c1.81266,-1.74539 8.96099,-2.57529 9.56621,-2.74143c0.8669,-0.23797 -4.08931,1.74203 -5.54815,4.41606z" fill="#141414" stroke="none" stroke-width="0"/><path d="M116.85321,206.21292l11.92651,-3.27382l7.63378,35.04682l-11.92652,3.27382z" fill="none" stroke="#000000" stroke-width="3.5"/><path d="M116.85321,206.21292l11.92651,-3.27382l7.63378,35.04682l-11.92652,3.27382z" fill="none" stroke="#000000" stroke-width="3.5"/></g><g><path d="M97.48747,209.32134l11.92653,-3.27382l8.62465,39.59591l-11.92652,3.2738z" fill="#252525" stroke="#000000" stroke-width="0"/><path d="M97.48747,209.32134l11.92653,-3.27382l8.62465,39.59591l-11.92652,3.2738z" fill="#252525" stroke="#000000" stroke-width="0"/><path d="M108.61043,206.53978c0.8669,-0.23797 -4.07277,1.8179 -5.47097,4.77038c-1.3336,2.81613 0.87532,6.46109 1.46735,9.17911c0.57557,2.64247 0.69885,14.49635 4.44307,20.34331c2.27365,3.55049 9.03087,1.28633 8.97529,3.75827c-0.04575,2.03432 -11.49551,3.91065 -11.89724,4.02093c-1.69376,0.46493 -6.44205,-20.8712 -7.65477,-26.43884c-0.77939,-3.57818 -2.62621,-9.46349 0.57412,-12.8776c1.77937,-1.89821 8.95791,-2.58944 9.56312,-2.75557z" fill="#141414" stroke="none" stroke-width="0"/><path d="M97.48747,209.32134l11.92653,-3.27382l8.62465,39.59591l-11.92652,3.2738z" fill="none" stroke="#000000" stroke-width="3.5"/><path d="M97.48747,209.32134l11.92653,-3.27382l8.62465,39.59591l-11.92652,3.2738z" fill="none" stroke="#000000" stroke-width="3.5"/></g></g><g><path d="M139.37676,197.59636l13.69799,-3.76009l8.90779,40.89563l-13.69799,3.76011z" fill="#252525" stroke="#000000" stroke-width="0"/><path d="M139.37676,197.59636l13.69799,-3.76009l8.90779,40.89563l-13.69799,3.76011z" fill="#252525" stroke="#000000" stroke-width="0"/><path d="M145.78405,199.49407c-1.58996,2.96691 0.84596,6.68912 1.45742,9.49635c0.59448,2.72921 0.45335,15.0459 4.59024,21.01073c2.51208,3.62209 10.2827,1.06631 10.16044,3.63721c-0.10062,2.11575 -13.22092,4.40905 -13.68231,4.53571c-1.94534,0.534 -6.86051,-21.49948 -8.11304,-27.24987c-0.80497,-3.69565 -2.77408,-9.75719 0.96191,-13.40158c2.07719,-2.02625 10.29154,-2.95982 10.98666,-3.15062c0.99566,-0.27331 -4.69438,2.01149 -6.36132,5.12208z" fill="#141414" stroke="none" stroke-width="0"/><path d="M139.37676,197.59636l13.69799,-3.76009l8.90779,40.89563l-13.69799,3.76011z" fill="none" stroke="#000000" stroke-width="3.5"/><path d="M139.37676,197.59636l13.69799,-3.76009l8.90779,40.89563l-13.69799,3.76011z" fill="none" stroke="#000000" stroke-width="3.5"/></g></g><g stroke-linecap="butt"><g data-paper-data="{&quot;index&quot;:null}"><path d="M121.64461,300.09699c0,-9.68071 14.54587,-17.52849 32.48911,-17.52849c17.94324,0 32.4891,7.84776 32.4891,17.52849c0,4.82875 -0.26964,10.54121 -6.12418,13.71142c-5.88268,3.18545 -17.37179,3.81707 -26.36493,3.81707c-9.63601,0 -24.99102,-0.03037 -30.94078,-3.62537c-5.1293,-3.09926 -1.54833,-9.42121 -1.54833,-13.90312z" fill="#ffa047" stroke="#000000" stroke-width="0"/><path d="M120.99042,309.37935c0,-1.68312 6.44758,2.28535 18.97475,3.19676c13.43456,0.97742 33.25799,-1.12537 41.06289,-4.08344c3.49812,-1.32579 2.53102,-7.38682 -1.34262,-12.41785c-4.22464,-5.48692 -11.44111,-9.91793 -8.34249,-9.91793c18.18988,0 15.51885,18.04296 15.51885,23.22245c0,5.17949 -14.74581,9.3783 -32.93569,9.3783c-18.18988,0 -32.9357,-4.19881 -32.9357,-9.3783z" fill="#ba491c" stroke="none" stroke-width="0"/><path d="M154.81929,283.03079c17.94324,0 32.48911,7.84777 32.48911,17.52849c0,4.82875 -0.26965,10.54121 -6.12418,13.71142c-5.88268,3.18545 -17.37179,3.81707 -26.36493,3.81707c-9.63601,0 -24.99101,-0.03036 -30.94078,-3.62536c-5.1293,-3.09926 -1.54833,-9.42123 -1.54833,-13.90313c0,-9.68072 14.54587,-17.52849 32.48911,-17.52849z" fill="none" stroke="#000000" stroke-width="3.5"/></g><path d="M104.1207,304.22452c0,-9.68072 6.53158,-17.52849 14.58867,-17.52849c8.0571,0 14.58867,7.84776 14.58867,17.52849c0,4.82875 -0.12108,10.54121 -2.74995,13.71142c-2.64152,3.18545 -7.80051,3.81707 -11.83872,3.81707c-4.32688,0 -11.22178,-0.03037 -13.89342,-3.62537c-2.30323,-3.09926 -0.69526,-9.42122 -0.69526,-13.90312z" fill="#47ff79" stroke="#000000" stroke-width="0"/><path d="M103.82696,313.50686c0,-1.68312 2.89518,2.28534 8.52029,3.19675c6.03256,0.97742 14.93392,-1.12536 18.43858,-4.08342c1.57077,-1.32579 1.13651,-7.38682 -0.60288,-12.41785c-1.897,-5.48692 -5.13743,-9.91793 -3.74605,-9.91793c8.16785,0 6.96847,18.04297 6.96847,23.22246c0,5.1795 -6.62135,9.3783 -14.7892,9.3783c-8.16785,0 -14.7892,-4.19881 -14.7892,-9.3783z" fill="#1cba6d" stroke="none" stroke-width="0"/><path d="M104.42854,304.6868c0,-9.68072 6.53157,-17.52849 14.58867,-17.52849c8.0571,0 14.58867,7.84778 14.58867,17.52849c0,4.82875 -0.12108,10.54121 -2.74995,13.71142c-2.64152,3.18546 -7.8005,3.81706 -11.83871,3.81706c-4.32688,0 -11.22178,-0.03036 -13.89342,-3.62536c-2.30323,-3.09926 -0.69525,-9.42122 -0.69525,-13.90312z" fill="none" stroke="#000000" stroke-width="3.5"/><g><path d="M145.30429,303.63336c0,-9.68072 6.53158,-17.52849 14.58867,-17.52849c8.0571,0 14.58867,3.09776 14.58867,12.77849c0,1.58452 -14.51304,4.0142 -14.62344,5.66798c-0.22605,3.38604 13.63972,10.66352 11.87349,12.79344c-2.64152,3.18545 -7.80051,3.81707 -11.83872,3.81707c-4.32688,0 -11.22178,-0.03037 -13.89342,-3.62537c-2.30323,-3.09926 -0.69526,-9.42122 -0.69526,-13.90312z" fill="#6447ff" stroke="#000000" stroke-width="0"/><path d="M145.01055,312.91571c0,-1.68312 2.89518,2.28534 8.52029,3.19675c6.03256,0.97742 -0.06608,-13.12536 3.43858,-16.08342c1.57077,-1.32579 15.38651,-0.63682 13.64712,-5.66785c-1.897,-5.48692 -4.38743,-4.66793 -2.99605,-4.66793c3.7402,0 9.99823,4.94969 5.92058,9.10968c-2.45909,2.50874 -15.67657,3.61674 -15.64637,6.33282c0.02908,2.61552 13.94426,8.40259 13.94426,9.77997c0,5.1795 -3.87135,7.3783 -12.0392,7.3783c-8.16785,0 -14.7892,-4.19881 -14.7892,-9.3783z" fill="#1c29ba" stroke="none" stroke-width="0"/><path d="M145.61213,304.09564c0,-9.68072 6.53157,-17.52849 14.58867,-17.52849c4.19521,0 16.7068,8.89874 15.27479,12.56482c-1.31824,3.3748 -16.43612,1.32356 -16.43612,5.96367c0,4.82875 15.62892,9.54121 13.00005,12.71142c-2.64152,3.18546 -7.8005,3.81706 -11.83871,3.81706c-4.32688,0 -11.22178,-0.03036 -13.89342,-3.62536c-2.30323,-3.09926 -0.69525,-9.42122 -0.69525,-13.90312z" fill="none" stroke="#000000" stroke-width="3.5"/></g><g><path d="M122.44641,303.43631c0,-5.81769 7.10887,-2.97341 10.74012,-6.16175c2.4112,-2.1171 0.63342,-11.36674 3.84855,-11.36674c8.0571,0 14.58867,7.84776 14.58867,17.52849c0,4.82875 -0.12108,10.54121 -2.74995,13.71142c-2.64152,3.18545 -7.80051,3.81707 -11.83872,3.81707c-4.32688,0 -11.22178,-0.03037 -13.89342,-3.62537c-2.30323,-3.09926 -0.69526,-9.42122 -0.69526,-13.90312z" fill="#ff4747" stroke="#000000" stroke-width="0"/><path d="M122.15267,312.71866c0,-1.68312 2.89518,2.28534 8.52029,3.19675c6.03256,0.97742 14.93392,-1.12536 18.43858,-4.08342c1.57077,-1.32579 1.13651,-7.38682 -0.60288,-12.41785c-1.897,-5.48692 -5.13743,-9.91793 -3.74605,-9.91793c8.16785,0 6.96847,18.04297 6.96847,23.22246c0,5.1795 -6.62135,9.3783 -14.7892,9.3783c-8.16785,0 -14.7892,-4.19881 -14.7892,-9.3783z" fill="#ba1c1c" stroke="none" stroke-width="0"/><path d="M122.75425,303.89859c0,-6.28915 5.75668,-2.8047 9.89744,-5.89743c2.23299,-1.66782 1.86849,-11.63106 4.69123,-11.63106c8.0571,0 14.58867,7.84778 14.58867,17.52849c0,4.82875 -0.12108,10.54121 -2.74995,13.71142c-2.64152,3.18546 -7.8005,3.81706 -11.83871,3.81706c-4.32688,0 -11.22178,-0.03036 -13.89342,-3.62536c-2.30323,-3.09926 -0.69525,-9.42122 -0.69525,-13.90312z" fill="none" stroke="#000000" stroke-width="3.5"/></g></g><g data-paper-data="{&quot;index&quot;:null}" stroke-linecap="butt"><path d="M105.04786,200.8467c12.34965,10.33438 13.7174,29.04124 3.05495,41.78294c-10.66245,12.74171 -29.31745,14.69323 -41.6671,4.35886c-3.0032,-2.51312 3.45841,-21.10456 0.88694,-23.27892c-2.76527,-2.33824 -14.4645,11.70157 -14.72542,7.74405c-0.49419,-7.49575 5.5023,-19.93697 10.78353,-26.24807c3.73593,-4.46446 5.11974,8.06243 10.20309,6.31167c5.84886,-2.01441 10.46629,-14.22368 17.32205,-17.04086c4.19141,-1.72234 11.09813,3.8232 14.14197,6.37033z" fill="#737373" stroke="#000000" stroke-width="0"/><path d="M116.04344,220.47947c3.17562,2.65741 -0.6862,12.50295 -8.62562,21.99062c-7.93942,9.48767 -16.94996,15.02469 -20.12558,12.36728c-1.43525,-1.20104 -15.29567,-0.59639 -20.75265,-10.06667c-1.29775,-2.25218 5.75924,-20.35186 3.07739,-21.49433c-5.18216,-2.20761 -20.30049,13.33626 -17.07714,9.48433c0.60523,-0.72325 -1.26673,-11.12643 2.58985,-12.90757c3.95833,-1.82814 13.99967,-1.00101 16.12975,0.97041c7.95831,7.36549 9.53621,30.22851 16.31639,27.30204c12.83105,-5.53817 26.71084,-29.1162 28.46761,-27.64611z" fill="#484848" stroke="none" stroke-width="0"/><path d="M105.07103,201.10749c12.34965,10.33438 13.7174,29.04124 3.05495,41.78294c-0.5448,0.65104 -1.11046,1.27391 -1.69509,1.86841c-10.85726,11.04065 -28.25337,12.29679 -39.97202,2.49045c-4.25076,-3.5571 3.46622,-17.77278 1.86036,-22.72905c-1.37494,-4.24354 -15.25215,11.83315 -17.00215,9.50924c-2.14426,-2.84747 8.23667,-23.96215 12.08685,-28.56314c2.37937,-2.84337 6.82342,8.18393 9.83993,6.43184c5.91495,-3.4356 10.55386,-14.63826 16.64787,-17.38372c4.72497,-2.12868 10.98941,3.08687 15.1793,6.59303z" fill="none" stroke="#000000" stroke-width="5"/><path d="M97.83192,214.19974c3.76371,3.14953 2.55946,10.78786 -2.68974,17.0607c-5.2492,6.27284 -12.55561,8.80479 -16.31932,5.65526c-3.76371,-3.14953 -2.55946,-10.78786 2.68974,-17.0607c5.2492,-6.27284 12.55561,-8.80479 16.31932,-5.65526z" fill="#484848" stroke="none" stroke-width="0"/><path d="M98.02616,211.94835c3.99894,3.34637 5.69816,7.9025 3.79532,10.17641c-1.90284,2.2739 -6.68717,1.4045 -10.68611,-1.94187c-3.99894,-3.34637 -5.69816,-7.9025 -3.79532,-10.17641c1.90284,-2.2739 6.68717,-1.4045 10.68611,1.94187z" fill="#000000" stroke="#000000" stroke-width="5"/><path d="M85.47455,229.68806c1.03326,0.86465 -4.7377,5.83259 -5.72529,10.95142c-0.99844,5.17506 2.77435,10.50434 1.60332,11.90373c-2.32934,2.78357 -5.56875,0.63053 -7.64663,-1.10827c-2.07788,-1.7388 1.4593,-17.07157 3.78864,-19.85515c2.32934,-2.78357 5.90209,-3.63053 7.97997,-1.89173z" fill="#000000" stroke="#000000" stroke-width="5"/></g><g data-paper-data="{&quot;index&quot;:null}" stroke-linecap="butt"><g><path d="M211.1805,317.64171l-0.26686,-25.88942l55.45489,-1.54413l0.26686,25.88941z" fill="#252525" stroke="#000000" stroke-width="0"/><path d="M211.1805,317.64171l-0.26686,-25.88942l55.45489,-1.54413l0.26686,25.88941z" fill="#252525" stroke="#000000" stroke-width="0"/><path d="M211.1805,317.64171l-0.26686,-25.88942l55.45489,-1.54413l0.26686,25.88941z" fill="none" stroke="#000000" stroke-width="3.5"/><path d="M266.02872,292.08373c0.01354,1.31377 1.85885,16.27872 0.04211,20.82211c-3.26757,8.17171 -11.7269,4.7313 -16.73823,4.87085c-7.79759,0.21713 -37.71804,3.36205 -37.75593,-0.31466c-0.00899,-0.87205 -1.93322,-25.11481 0.72824,-26.19052c3.234,-1.30712 2.84617,13.55876 8.39463,16.47814c9.13717,4.80764 24.79498,-0.6659 28.49582,-0.76897c3.80663,-0.106 9.45465,2.63583 12.6513,-1.44233c3.35145,-4.27564 4.16265,-15.33644 4.18205,-13.45463z" fill="#141414" stroke="none" stroke-width="0"/><path d="M211.1805,317.64171l-0.26686,-25.88942l55.45489,-1.54413l0.26686,25.88941z" fill="none" stroke="#000000" stroke-width="3.5"/></g><g><path d="M255.52974,324.35785l-0.13077,-25.88942l27.17634,-1.54414l0.13077,25.88941z" fill="#252525" stroke="#000000" stroke-width="0"/><path d="M255.52974,324.35785l-0.13077,-25.88942l27.17634,-1.54414l0.13077,25.88941z" fill="#6c6c6c" stroke="#000000" stroke-width="0"/><path d="M255.52974,324.35785l-0.13077,-25.88942l27.17634,-1.54414l0.13077,25.88941z" fill="none" stroke="#000000" stroke-width="3.5"/><path d="M282.40878,298.79987c0.00663,1.31377 0.91096,16.27871 0.02064,20.82211c-1.60132,8.17171 -5.74691,4.73131 -8.20278,4.87085c-3.8213,0.21713 -18.48418,3.36204 -18.50275,-0.31467c-0.00441,-0.87205 -0.94739,-25.11481 0.35689,-26.19052c1.58486,-1.30712 1.3948,13.55876 4.11389,16.47814c4.47778,4.80764 12.15108,-0.66591 13.96472,-0.76897c1.86548,-0.10599 4.63336,2.63584 6.19993,-1.44232c1.64242,-4.27563 2.03996,-15.33643 2.04947,-13.45463z" fill="#545454" stroke="none" stroke-width="0"/><path d="M255.52974,324.35785l-0.13077,-25.88942l27.17634,-1.54414l0.13077,25.88941z" fill="none" stroke="#000000" stroke-width="3.5"/></g><g><path d="M214.67324,326.73649l-0.13077,-25.88942l27.17633,-1.54414l0.13078,25.88941z" fill="#252525" stroke="#000000" stroke-width="0"/><path d="M214.67324,326.73649l-0.13077,-25.88942l27.17633,-1.54414l0.13078,25.88941z" fill="#6c6c6c" stroke="#000000" stroke-width="0"/><path d="M214.67324,326.73649l-0.13077,-25.88942l27.17633,-1.54414l0.13078,25.88941z" fill="none" stroke="#000000" stroke-width="3.5"/><path d="M241.55228,301.1785c0.00663,1.31377 0.91095,16.27871 0.02064,20.82211c-1.60132,8.17171 -5.74691,4.7313 -8.20278,4.87085c-3.8213,0.21713 -18.48418,3.36205 -18.50275,-0.31466c-0.00441,-0.87205 -0.94739,-25.11482 0.35689,-26.19052c1.58487,-1.30712 1.3948,13.55876 4.1139,16.47814c4.47778,4.80764 12.15108,-0.6659 13.96472,-0.76896c1.86548,-0.10599 4.63336,2.63583 6.19993,-1.44233c1.64242,-4.27563 2.03996,-15.33642 2.04947,-13.45462z" fill="#545454" stroke="none" stroke-width="0"/><path d="M214.67324,326.73649l-0.13077,-25.88942l27.17633,-1.54414l0.13078,25.88941z" fill="none" stroke="#000000" stroke-width="3.5"/></g><g><path d="M237.06036,326.59657l-0.13077,-25.88942l27.17634,-1.54414l0.13077,25.88941z" fill="#252525" stroke="#000000" stroke-width="0"/><path d="M237.06036,326.59657l-0.13077,-25.88942l27.17634,-1.54414l0.13077,25.88941z" fill="#6c6c6c" stroke="#000000" stroke-width="0"/><path d="M237.06036,326.59657l-0.13077,-25.88942l27.17634,-1.54414l0.13077,25.88941z" fill="none" stroke="#000000" stroke-width="3.5"/><path d="M263.9394,301.03858c0.00663,1.31377 0.91095,16.27871 0.02064,20.82211c-1.60132,8.17171 -5.74691,4.7313 -8.20278,4.87085c-3.8213,0.21713 -18.48418,3.36205 -18.50275,-0.31466c-0.00441,-0.87205 -0.94738,-25.11482 0.35689,-26.19052c1.58487,-1.30712 1.3948,13.55876 4.11389,16.47814c4.47778,4.80764 12.15108,-0.6659 13.96472,-0.76896c1.86548,-0.10599 4.63336,2.63583 6.19993,-1.44233c1.64242,-4.27563 2.03996,-15.33642 2.04947,-13.45462z" fill="#545454" stroke="none" stroke-width="0"/><path d="M237.06036,326.59657l-0.13077,-25.88942l27.17634,-1.54414l0.13077,25.88941z" fill="none" stroke="#000000" stroke-width="3.5"/></g></g></g></g></svg>