<svg version="1.1" xmlns="http://www.w3.org/2000/svg" xmlns:xlink="http://www.w3.org/1999/xlink" width="193.42365" height="339.08189" viewBox="0,0,193.42365,339.08189"><g transform="translate(-147.92922,-4.45013)"><g data-paper-data="{&quot;isPaintingLayer&quot;:true}" fill-rule="nonzero" stroke-linejoin="miter" stroke-miterlimit="10" stroke-dasharray="" stroke-dashoffset="0" style="mix-blend-mode: normal"><g stroke-linecap="butt"><path d="M263.51262,266.73765l-11.1465,-57.39301l9.10199,-1.76772l11.14651,57.39301z" data-paper-data="{&quot;index&quot;:null}" fill="#1b1b1b" stroke="#000000" stroke-width="2.5"/><path d="M267.98151,323.66823l-4.64042,-58.28095l9.24279,-0.73592l4.64042,58.28095z" data-paper-data="{&quot;index&quot;:null}" fill="#1b1b1b" stroke="#000000" stroke-width="2.5"/><path d="M283.97105,285.47839c0.72806,9.35987 -4.37248,17.39022 -11.39238,17.93627c-7.0199,0.54605 -13.30088,-6.59899 -14.02895,-15.95885c-0.21139,-2.7175 -2.85256,-22.36957 -0.66376,-28.46182c2.27208,-6.32407 9.39845,0.80851 10.36214,-7.58495c1.30549,-11.37049 -4.49064,-27.65034 -1.62454,-27.87329c7.0199,-0.54605 16.61943,52.58275 17.3475,61.94262z" data-paper-data="{&quot;index&quot;:null}" fill="#444444" stroke="#000000" stroke-width="0"/><path d="M284.07469,289.78117c0.4909,6.31082 -4.572,11.85153 -11.30826,12.37553c-2.59175,0.2016 -9.8384,-0.68671 -12.31327,-7.25182c-3.95763,-10.49838 -2.65922,-29.14003 -2.96125,-33.02278c-0.15474,-1.98932 16.10981,37.81457 21.50103,33.15632c3.22825,-2.78934 -1.36459,-18.09351 -0.87075,-24.15406c1.29775,-15.92632 -13.48527,-46.62907 -10.14392,-46.88899c6.73629,-0.52399 15.60554,59.47499 16.09643,65.78581z" data-paper-data="{&quot;index&quot;:null}" fill="#282828" stroke="none" stroke-width="0"/><path d="M283.95107,285.22162c0.72806,9.35987 -4.37248,17.39021 -11.39239,17.93626c-7.0199,0.54605 -13.30087,-6.59898 -14.02895,-15.95884c-0.21139,-2.7175 -2.85257,-22.3696 -0.66376,-28.46183c2.27208,-6.32407 9.39845,0.8085 10.36213,-7.58495c1.30549,-11.37049 -4.49063,-27.65033 -1.62453,-27.87327c7.0199,-0.54605 16.61943,52.58276 17.34749,61.94263z" data-paper-data="{&quot;index&quot;:null}" fill="none" stroke="#000000" stroke-width="3"/></g><g stroke-linecap="butt"><path d="M222.84509,261.15056l11.05346,-57.411l9.10483,1.75297l-11.05346,57.411z" data-paper-data="{&quot;index&quot;:null}" fill="#1b1b1b" stroke="#000000" stroke-width="2.5"/><path d="M218.32936,319.12035l4.54595,-58.28839l9.24398,0.72094l-4.54595,58.28839z" data-paper-data="{&quot;index&quot;:null}" fill="#1b1b1b" stroke="#000000" stroke-width="2.5"/><path d="M211.52191,281.6774c0.71289,-9.36104 10.22629,-62.50533 17.24707,-61.97066c2.86645,0.2183 -2.90329,16.50753 -1.57937,27.87589c0.9773,8.39189 8.09209,1.24778 10.37442,7.56814c2.19866,6.08868 -0.41065,25.74502 -0.61763,28.46287c-0.71289,9.36104 -6.98227,16.51623 -14.00306,15.98157c-7.02077,-0.53466 -12.13434,-8.55673 -11.42145,-17.91778z" fill="#444444" stroke="#000000" stroke-width="0"/><path d="M211.42522,285.98034c0.48067,-6.3116 9.25266,-66.32487 15.98978,-65.8118c3.34175,0.25449 -11.39148,30.98117 -10.0679,46.90536c0.50366,6.05975 -4.06437,21.37134 -0.83159,24.15543c5.39877,4.64951 21.59877,-35.18069 21.44725,-33.19113c-0.29573,3.88324 1.03289,22.52276 -2.9077,33.02754c-2.46422,6.5691 -9.70943,7.46917 -12.30151,7.27177c-6.73711,-0.51307 -11.80897,-6.04556 -11.32831,-12.35718z" fill="#282828" stroke="none" stroke-width="0"/><path d="M211.54147,281.42062c0.71289,-9.36104 10.2263,-62.50534 17.24707,-61.97067c2.86646,0.2183 -2.90328,16.50752 -1.57936,27.87588c0.97728,8.39187 8.09208,1.24778 10.37441,7.56814c2.19866,6.08867 -0.41065,25.74502 -0.61763,28.46288c-0.71289,9.36104 -6.98227,16.51622 -14.00306,15.98156c-7.02077,-0.53466 -12.13434,-8.55673 -11.42145,-17.91777z" fill="none" stroke="#000000" stroke-width="3"/></g><g data-paper-data="{&quot;index&quot;:null}" stroke-linecap="butt"><g><path d="M310.86279,323.63141c0,3.46303 2.88695,8.34782 -1.24827,10.74253c-4.79665,2.77775 -17.17574,2.80122 -24.94421,2.80122c-7.25019,0 -16.51263,-0.48803 -21.25521,-2.94933c-4.71986,-2.44953 -4.93725,-6.86339 -4.93725,-10.59442c0,-7.48001 11.72677,-13.54375 26.19246,-13.54375c14.46568,0 26.19245,6.06374 26.19245,13.54375z" fill="#444444" stroke="#000000" stroke-width="0"/><path d="M311.39013,330.8036c0,4.00204 -11.88797,7.24633 -26.5525,7.24633c-14.66453,0 -26.55249,-3.24429 -26.55249,-7.24633c0,-4.00204 -2.15336,-17.9433 12.51118,-17.9433c2.49808,0 -3.31978,3.4237 -6.72565,7.66328c-3.12289,3.88732 -3.90257,8.57051 -1.08241,9.5949c6.29226,2.2856 22.27373,3.91037 33.10457,3.15514c10.09931,-0.70422 15.29731,-3.77053 15.29731,-2.47003z" fill="#282828" stroke="none" stroke-width="0"/><path d="M310.31005,323.9886c0,3.46303 2.88697,8.34782 -1.24824,10.74253c-4.79665,2.77775 -17.17574,2.80121 -24.94421,2.80121c-7.25019,0 -16.51261,-0.48802 -21.25519,-2.94933c-4.71986,-2.44953 -4.93725,-6.86338 -4.93725,-10.5944c0,-7.48 11.72676,-13.54375 26.19245,-13.54375c14.4657,0 26.19246,6.06374 26.19246,13.54375z" fill="none" stroke="#000000" stroke-width="3.5"/></g><g><path d="M322.62485,326.72209c0,3.46303 1.24243,8.34782 -0.53721,10.74253c-2.0643,2.77775 -7.39178,2.80122 -10.73503,2.80122c-3.12021,0 -7.1064,-0.48804 -9.14742,-2.94934c-2.03125,-2.44953 -2.12481,-6.86338 -2.12481,-10.59441c0,-7.48001 5.04675,-13.54375 11.27223,-13.54375c6.22548,0 11.27223,6.06374 11.27223,13.54375z" fill="#444444" stroke="#000000" stroke-width="0"/><path d="M322.85181,333.89429c0,4.00204 -5.11612,7.24633 -11.42717,7.24633c-6.31106,0 -11.42718,-3.24429 -11.42718,-7.24633c0,-4.00204 -0.92673,-17.94331 5.38433,-17.94331c1.07508,0 -1.42871,3.42372 -2.89446,7.6633c-1.34398,3.88732 -1.67951,8.5705 -0.46582,9.5949c2.70795,2.2856 9.58576,3.91036 14.24694,3.15513c4.34636,-0.70422 6.58337,-3.77053 6.58337,-2.47003z" fill="#282828" stroke="none" stroke-width="0"/><path d="M322.38698,327.07928c0,3.46303 1.24244,8.34783 -0.5372,10.74253c-2.0643,2.77775 -7.39179,2.8012 -10.73504,2.8012c-3.12021,0 -7.10639,-0.48802 -9.14741,-2.94933c-2.03125,-2.44953 -2.12481,-6.86338 -2.12481,-10.5944c0,-7.48 5.04675,-13.54374 11.27223,-13.54374c6.22548,0 11.27223,6.06374 11.27223,13.54374z" fill="none" stroke="#000000" stroke-width="3.5"/></g><g><path d="M289.78637,327.88109c0,3.46303 1.24243,8.34783 -0.53721,10.74253c-2.0643,2.77775 -7.39178,2.80122 -10.73503,2.80122c-3.12021,0 -7.10641,-0.48804 -9.14743,-2.94934c-2.03125,-2.44953 -2.1248,-6.86338 -2.1248,-10.59441c0,-7.48001 5.04675,-13.54374 11.27223,-13.54374c6.22547,0 11.27223,6.06374 11.27223,13.54374z" fill="#444444" stroke="#000000" stroke-width="0"/><path d="M290.01331,335.05329c0,4.00204 -5.11612,7.24633 -11.42718,7.24633c-6.31106,0 -11.42718,-3.24429 -11.42718,-7.24633c0,-4.00204 -0.92672,-17.9433 5.38433,-17.9433c1.07508,0 -1.42871,3.4237 -2.89446,7.66328c-1.34398,3.88732 -1.67952,8.57052 -0.46583,9.59491c2.70795,2.2856 9.58577,3.91036 14.24695,3.15513c4.34635,-0.70422 6.58338,-3.77053 6.58338,-2.47003z" fill="#282828" stroke="none" stroke-width="0"/><path d="M289.54849,328.23829c0,3.46303 1.24244,8.34782 -0.53719,10.74253c-2.0643,2.77775 -7.39179,2.80121 -10.73504,2.80121c-3.12021,0 -7.10639,-0.48802 -9.14742,-2.94933c-2.03125,-2.44953 -2.12481,-6.86338 -2.12481,-10.5944c0,-7.48 5.04675,-13.54375 11.27223,-13.54375c6.22548,0 11.27224,6.06374 11.27224,13.54375z" fill="none" stroke="#000000" stroke-width="3.5"/></g><g><path d="M308.71679,326.14259c0,3.46303 1.24243,8.34782 -0.53721,10.74253c-2.0643,2.77775 -7.39178,2.80121 -10.73504,2.80121c-3.12021,0 -7.1064,-0.48803 -9.14742,-2.94933c-2.03125,-2.44953 -2.12481,-6.86338 -2.12481,-10.5944c0,-7.48001 5.04675,-13.54375 11.27223,-13.54375c6.22547,0 11.27223,6.06374 11.27223,13.54375z" fill="#444444" stroke="#000000" stroke-width="0"/><path d="M308.94374,333.31478c0,4.00204 -5.11612,7.24633 -11.42717,7.24633c-6.31106,0 -11.42717,-3.24429 -11.42717,-7.24633c0,-4.00204 -0.92673,-17.94331 5.38432,-17.94331c1.07508,0 -1.42871,3.42371 -2.89446,7.66329c-1.34398,3.88732 -1.67953,8.57051 -0.46583,9.5949c2.70795,2.2856 9.58577,3.91036 14.24695,3.15513c4.34635,-0.70422 6.58338,-3.77052 6.58338,-2.47003z" fill="#282828" stroke="none" stroke-width="0"/><path d="M308.47891,326.49977c0,3.46303 1.24244,8.34783 -0.53719,10.74254c-2.0643,2.77775 -7.39178,2.8012 -10.73503,2.8012c-3.12021,0 -7.1064,-0.48801 -9.14742,-2.94932c-2.03125,-2.44953 -2.1248,-6.86339 -2.1248,-10.59442c0,-7.48 5.04675,-13.54374 11.27223,-13.54374c6.22548,0 11.27223,6.06373 11.27223,13.54374z" fill="none" stroke="#000000" stroke-width="3.5"/></g></g><g stroke-linecap="butt"><g><path d="M184.60907,321.63141c0,-7.48001 11.72678,-13.54375 26.19245,-13.54375c14.4657,0 26.19246,6.06374 26.19246,13.54375c0,3.73103 -0.21738,8.14488 -4.93725,10.59441c-4.74258,2.4613 -14.00502,2.94933 -21.25521,2.94933c-7.76847,0 -20.14755,-0.02346 -24.94421,-2.80122c-4.13521,-2.39471 -1.24827,-7.27949 -1.24827,-10.74253z" fill="#444444" stroke="#000000" stroke-width="0"/><path d="M184.0817,328.80359c0,-1.30049 5.19801,1.76582 15.29731,2.47003c10.83084,0.75523 26.81231,-0.86954 33.10457,-3.15514c2.82016,-1.0244 2.04049,-5.70758 -1.08241,-9.5949c-3.40587,-4.23958 -9.22373,-7.66329 -6.72565,-7.66329c14.66453,0 12.51118,13.94126 12.51118,17.9433c0,4.00204 -11.88795,7.24633 -26.55249,7.24633c-14.66453,0 -26.5525,-3.24429 -26.5525,-7.24633z" fill="#282828" stroke="none" stroke-width="0"/><path d="M185.16177,321.9886c0,-7.48001 11.72676,-13.54375 26.19246,-13.54375c14.4657,0 26.19245,6.06375 26.19245,13.54375c0,3.73103 -0.21739,8.14488 -4.93726,10.59441c-4.74258,2.46131 -14.005,2.94933 -21.25518,2.94933c-7.76847,0 -20.14755,-0.02346 -24.94421,-2.80121c-4.13521,-2.39471 -1.24825,-7.27949 -1.24825,-10.74253z" fill="none" stroke="#000000" stroke-width="3.5"/></g><g><path d="M172.847,324.72208c0,-7.48001 5.04676,-13.54374 11.27223,-13.54374c6.22548,0 11.27223,6.06373 11.27223,13.54374c0,3.73103 -0.09355,8.14488 -2.12481,10.59441c-2.04102,2.4613 -6.02722,2.94934 -9.14742,2.94934c-3.34325,0 -8.67074,-0.02346 -10.73504,-2.80122c-1.77964,-2.39471 -0.53721,-7.2795 -0.53721,-10.74253z" fill="#444444" stroke="#000000" stroke-width="0"/><path d="M172.62003,331.89427c0,-1.30049 2.23702,1.76582 6.58337,2.47003c4.66118,0.75523 11.53899,-0.86953 14.24694,-3.15513c1.21369,-1.0244 0.87816,-5.70758 -0.46582,-9.5949c-1.46575,-4.23958 -3.96955,-7.66329 -2.89447,-7.66329c6.31106,0 5.38433,13.94126 5.38433,17.94331c0,4.00204 -5.11612,7.24633 -11.42718,7.24633c-6.31106,0 -11.42718,-3.24429 -11.42718,-7.24633z" fill="#282828" stroke="none" stroke-width="0"/><path d="M173.08485,325.07928c0,-7.48001 5.04675,-13.54374 11.27223,-13.54374c6.22548,0 11.27223,6.06374 11.27223,13.54374c0,3.73103 -0.09355,8.14488 -2.12481,10.59441c-2.04102,2.46131 -6.0272,2.94933 -9.14741,2.94933c-3.34325,0 -8.67074,-0.02345 -10.73504,-2.8012c-1.77964,-2.39471 -0.5372,-7.2795 -0.5372,-10.74253z" fill="none" stroke="#000000" stroke-width="3.5"/></g><g><path d="M205.68548,325.88109c0,-7.48001 5.04676,-13.54374 11.27223,-13.54374c6.22548,0 11.27223,6.06373 11.27223,13.54374c0,3.73103 -0.09355,8.14488 -2.1248,10.59441c-2.04102,2.4613 -6.02722,2.94934 -9.14743,2.94934c-3.34325,0 -8.67073,-0.02346 -10.73503,-2.80122c-1.77964,-2.39471 -0.53721,-7.2795 -0.53721,-10.74253z" fill="#444444" stroke="#000000" stroke-width="0"/><path d="M205.45852,333.05328c0,-1.30049 2.23703,1.76582 6.58338,2.47003c4.66118,0.75523 11.53899,-0.86953 14.24694,-3.15513c1.21369,-1.0244 0.87815,-5.70758 -0.46583,-9.59491c-1.46575,-4.23958 -3.96954,-7.66329 -2.89446,-7.66329c6.31106,0 5.38433,13.94126 5.38433,17.94331c0,4.00204 -5.11612,7.24633 -11.42718,7.24633c-6.31106,0 -11.42718,-3.24429 -11.42718,-7.24633z" fill="#282828" stroke="none" stroke-width="0"/><path d="M205.92334,326.23828c0,-7.48001 5.04676,-13.54374 11.27224,-13.54374c6.22548,0 11.27223,6.06374 11.27223,13.54374c0,3.73103 -0.09355,8.14488 -2.12481,10.59441c-2.04102,2.46131 -6.02721,2.94933 -9.14742,2.94933c-3.34325,0 -8.67074,-0.02345 -10.73504,-2.8012c-1.77964,-2.39471 -0.5372,-7.2795 -0.5372,-10.74253z" fill="none" stroke="#000000" stroke-width="3.5"/></g><g><path d="M186.75506,324.14259c0,-7.48001 5.04676,-13.54375 11.27223,-13.54375c6.22548,0 11.27223,6.06374 11.27223,13.54375c0,3.73103 -0.09355,8.14488 -2.12481,10.59441c-2.04102,2.4613 -6.02722,2.94934 -9.14742,2.94934c-3.34325,0 -8.67073,-0.02346 -10.73503,-2.80122c-1.77964,-2.39471 -0.53721,-7.27949 -0.53721,-10.74253z" fill="#444444" stroke="#000000" stroke-width="0"/><path d="M186.5281,331.31477c0,-1.30049 2.23702,1.76581 6.58337,2.47003c4.66118,0.75523 11.539,-0.86953 14.24695,-3.15513c1.21369,-1.0244 0.87814,-5.70758 -0.46583,-9.5949c-1.46575,-4.23958 -3.96954,-7.66329 -2.89446,-7.66329c6.31106,0 5.38433,13.94126 5.38433,17.94331c0,4.00204 -5.11611,7.24633 -11.42717,7.24633c-6.31106,0 -11.42718,-3.24429 -11.42718,-7.24633z" fill="#282828" stroke="none" stroke-width="0"/><path d="M186.99292,324.49977c0,-7.48001 5.04675,-13.54374 11.27223,-13.54374c6.22548,0 11.27223,6.06374 11.27223,13.54374c0,3.73103 -0.09355,8.14488 -2.1248,10.59441c-2.04102,2.46131 -6.02722,2.94932 -9.14742,2.94932c-3.34325,0 -8.67073,-0.02345 -10.73503,-2.8012c-1.77964,-2.39471 -0.5372,-7.2795 -0.5372,-10.74253z" fill="none" stroke="#000000" stroke-width="3.5"/></g></g><path d="M220.24029,210.79203v-10h51.66667v10z" fill="#1b1b1b" stroke="#000000" stroke-width="2.5" stroke-linecap="butt"/><g><path d="M302.5985,211.06118l-24.14936,-41.91287l6.56843,-3.7846l24.14936,41.91287z" fill="#1b1b1b" stroke="#000000" stroke-width="2.5" stroke-linecap="butt"/><g data-paper-data="{&quot;index&quot;:null}"><path d="M272.34658,126.47325c6.74622,-0.39898 28.46528,46.76551 28.83239,52.97277c0.04072,0.6884 -1.37899,-0.70878 -2.79358,-0.85506c-1.90064,-0.19652 -4.15944,0.57656 -6.34771,-0.5517c-3.79638,-1.9574 -7.32228,-6.01849 -8.55518,-4.04892c-2.29679,3.66915 8.47528,24.03059 5.22642,24.22273c-6.74623,0.39898 -27.54565,-53.57091 -27.91275,-59.77818c-0.1822,-3.0807 -2.66065,-6.45302 -0.59896,-8.61228c2.09238,-2.19141 8.75132,-3.14842 12.14936,-3.34938z" fill="#444444" stroke="#000000" stroke-width="0" stroke-linecap="butt"/><path d="M281.93328,172.27485c3.7315,-0.22069 8.58016,0.18939 12.63552,0.37727c3.58903,0.16627 6.61172,-0.23667 6.88438,4.37356c0.13928,2.3551 -3.55982,3.21427 -7.94548,1.56113c-4.09981,-1.54539 -8.86384,-5.60171 -9.8656,-3.91021c-2.39467,4.04341 8.85494,21.67801 5.0851,21.90096c-7.03391,0.416 -27.06897,-47.8506 -27.6497,-57.6701c-0.38316,-6.47871 9.54823,21.18233 18.94356,37.64754c4.8448,8.49043 -0.54379,-2.14597 1.84929,-2.28749z" fill="#282828" stroke="none" stroke-width="0" stroke-linecap="butt"/><path d="M272.31817,125.99271c6.74622,-0.39898 28.46528,46.76551 28.83239,52.97277c0.15857,2.68116 -4.49425,-2.53486 -6.27783,0.94019c-0.95283,1.85649 -10.8632,-9.16485 -11.45883,-5.94167c-0.87067,4.71139 7.54214,23.63397 5.26661,23.76855c-6.74623,0.39898 -27.54565,-53.57091 -27.91275,-59.77818c-0.19478,-3.29352 -3.32308,-7.27806 -0.99151,-9.47881c2.06273,-1.94699 9.37517,-2.29556 12.54191,-2.48285z" fill="none" stroke="#000000" stroke-width="3" stroke-linecap="butt"/><path d="M289.98551,150.9185l-17.8899,14.69885" fill="none" stroke="#000000" stroke-width="3" stroke-linecap="round"/></g></g><g><path d="M223.69404,121.5363c3.32274,0.73922 9.7445,2.74383 11.46144,5.24031c1.69177,2.45986 -1.29181,5.39475 -1.962,8.40719c-1.35035,6.06971 -30.47419,56.04138 -37.07094,54.57379c-6.59675,-1.4676 -10.67458,-14.4428 -9.32424,-20.51251c1.35035,-6.06971 30.299,-49.17634 36.89574,-47.70876z" fill="#444444" stroke="#000000" stroke-width="0" stroke-linecap="butt"/><path d="M194.05502,178.26374c2.34006,0.52061 7.95731,-0.89435 14.09164,-8.50549c11.89607,-14.76003 26.10325,-40.48786 24.69387,-34.1527c-2.13616,9.60192 -29.5977,54.06462 -36.47574,52.53444c-6.87804,-1.53019 -11.58818,-11.72615 -9.45202,-21.32806c2.13616,-9.60192 0.2642,9.92164 7.14224,11.45182z" fill="#282828" stroke="none" stroke-width="0" stroke-linecap="butt"/><path d="M223.79856,121.06642c3.09657,0.68891 10.26034,2.19683 11.9869,4.4473c1.9516,2.54377 -1.771,5.97965 -2.48747,9.20019c-1.35035,6.06971 -30.47419,56.04138 -37.07094,54.57379c-6.59675,-1.4676 -10.67458,-14.4428 -9.32424,-20.51251c1.35035,-6.06971 30.299,-49.17634 36.89574,-47.70876z" fill="none" stroke="#000000" stroke-width="3" stroke-linecap="butt"/><path d="M202.38936,142.86264l15.32246,17.35876" fill="none" stroke="#000000" stroke-width="3" stroke-linecap="round"/></g><g stroke-width="2.5" stroke-linecap="butt"><path d="M247.64418,151.52033c11.18226,0.13619 20.12138,10.58458 19.96606,23.33712c-0.04857,3.98785 6.98055,4.04418 7.18997,7.17779c0.074,1.1073 -6.33169,2.64043 -7.8954,4.41768c-1.90762,2.16813 0.86788,4.58468 -0.21671,5.59485c-1.67894,1.56373 -7.44216,-12.1878 -11.07172,-8.9224c-4.05826,3.6511 -5.92565,14.60777 -8.53466,14.576c-11.18226,-0.13619 -20.12138,-10.58458 -19.96606,-23.33712c0.15532,-12.75255 9.34625,-22.98011 20.52852,-22.84392z" fill="#212121" stroke="#000000"/><path d="M238.31884,202.59259l0.75763,-62.20656l14.30234,0.17419l-0.75763,62.20656z" fill="#1b1b1b" stroke="#000000"/><path d="M245.38946,121.59266c5.94061,0.07235 15.16842,-5.4766 20.50786,7.26597c2.26605,5.40793 10.48464,36.9511 6.62284,51.84214c-1.72496,6.65138 -12.73247,0.33165 -15.92897,3.48341c-4.81072,4.74339 -10.08632,-23.08192 -15.68248,-26.46913c-4.76317,-2.88302 -10.28498,18.77016 -10.2993,19.94581c-0.12631,10.37088 30.54057,26.52044 17.81523,26.36545c-12.72533,-0.15499 -27.43541,-4.29956 -27.30911,-14.67042c0.08207,-6.73817 -1.80021,-44.37897 5.07795,-62.18177c3.7082,-9.59796 14.73853,-5.63576 19.19597,-5.58146z" fill="#444444" stroke="#000000"/><path d="M248.74957,203.51071c-0.37577,0.06518 -24.92157,6.33234 -28.04937,-14.82148c-1.43377,-9.69676 0.8297,-43.39423 4.7682,-57.59436c4.1446,-14.94323 9.9942,-10.17254 9.14823,-10.70281c-1.80673,-1.13248 -11.13331,43.5129 -10.8545,65.63577c0.14294,11.3424 20.5613,15.34464 19.7307,14.4946c-4.94895,-5.06476 -17.04159,-18.1926 -17.65112,-18.72594c-2.53641,-2.21938 7.51221,-20.44963 6.89245,-22.39601c-0.89834,-2.82124 10.20385,-5.16218 11.00448,-5.03656c3.44515,0.54048 8.84449,22.60067 15.43353,27.52152c3.98744,2.97792 10.69766,-8.74003 11.1444,-11.26574c2.56099,-14.4789 -10.66364,-47.35622 -6.3346,-47.30349c7.23279,0.08809 10.4378,48.61933 10.37211,54.0122c-0.06568,5.39286 -3.88926,7.65062 -11.12205,7.56252c-1.35807,-0.01655 -6.27866,-0.27866 -9.06773,-4.45211c-5.27561,-7.89424 -9.53378,-22.16242 -14.06692,-21.68978c-3.67837,0.38352 -8.84897,11.10032 -9.61965,18.88953c-0.45159,4.56426 2.86507,8.60346 2.87617,7.69274c0.00281,-0.23049 22.99892,16.86063 15.39567,18.17944z" fill="#282828" stroke="none"/><path d="M245.86306,121.6127c5.94061,0.07235 15.16842,-5.4766 20.50786,7.26597c6.09813,14.5532 7.92328,47.93451 7.85593,53.46392c-0.01305,1.0713 -8.15738,1.38957 -13.96488,1.28832c-2.8592,-0.04986 -3.77856,1.38217 -5.56723,-0.3434c-7.10493,-6.85422 -6.65,-24.37587 -13.86984,-25.38017c-1.36012,-0.1892 -6.60736,10.96228 -8.14075,15.50514c-0.31794,0.94194 -0.37509,2.43124 -0.58954,2.4268c-1.84179,-0.03815 -0.6672,1.36004 -1.28127,1.94309c-4.80337,4.56073 24.83076,26.34613 18.08489,26.26397c-12.72533,-0.15499 -27.43541,-4.29956 -27.30911,-14.67042c0.08206,-6.73816 -1.80021,-44.37897 5.07795,-62.18177c3.7082,-9.59796 14.73853,-5.63575 19.19597,-5.58145z" fill="none" stroke="#000000"/><path d="M246.36923,126.08894c9.83405,0.11977 17.60755,16.52105 17.3626,36.63327c-0.11472,9.41908 8.10487,23.91833 4.57825,20.64116c-1.58692,-1.47467 -8.85574,3.05058 -12.80873,-1.71654c-6.02003,-7.25987 -9.34341,-24.30894 -12.49951,-24.34738c-7.6632,-0.09333 -11.76471,24.63229 -13.44128,21.87246c-0.47494,-0.78181 -1.49505,-12.44368 -1.44097,-16.88342c0.24495,-20.11222 8.41559,-36.3193 18.24965,-36.19953z" fill="#b7b7b7" stroke="#000000"/><path d="M231.32889,144.05921c0.02816,-2.31215 2.25237,-10.79559 7.18856,-15.10512c2.10718,-1.83967 5.96824,-2.19871 8.30292,-2.17027c7.80379,0.09505 12.80875,14.32043 12.76856,17.6196c-0.04018,3.29916 -4.09053,-13.83725 -11.89432,-13.9323c-1.15784,-0.0141 -12.03147,6.55979 -14.17976,12.42128c-0.48413,1.32092 -5.96262,23.8349 -3.83332,25.37006c1.31139,0.94548 1.99531,-7.22889 5.52182,-11.37533c3.39411,-3.99076 9.62123,-3.97701 11.51414,-2.27093c4.12075,3.71403 8.29673,17.85795 11.8604,22.11354c4.83816,5.77752 8.44867,1.46552 8.33783,3.81432c-0.15142,3.20913 -5.44961,5.75561 -13.1165,-2.32886c-3.48864,-3.67866 -8.4277,-20.50288 -11.90604,-21.2068c-6.43784,-1.30284 -12.8237,21.21742 -13.16248,21.06583c-1.5795,-0.70678 -1.7108,-12.81376 -0.42296,-22.54955c0.72938,-5.51397 3.01398,-10.87825 3.02113,-11.46542z" fill="#989898" stroke="none"/><path d="M245.67997,126.08055c9.83405,0.11977 17.60755,16.52105 17.3626,36.63327c-0.11472,9.41908 8.10487,23.91833 4.57825,20.64116c-1.58692,-1.47467 -8.85574,3.05058 -12.80873,-1.71654c-6.02003,-7.25987 -9.34341,-24.30894 -12.49951,-24.34738c-7.6632,-0.09333 -11.76471,24.63229 -13.44128,21.87246c-0.47494,-0.78181 -1.49505,-12.44368 -1.44097,-16.88342c0.24495,-20.11222 8.41559,-36.3193 18.24965,-36.19953z" fill="none" stroke="#000000"/></g><g stroke-width="2.5" stroke-linecap="butt"><path d="M272.12012,128.661c0,1.42763 1.18882,16.71602 -4.99757,16.71602c-6.1864,0 -17.40534,-15.28839 -17.40534,-16.71602c0,-1.42763 10.87428,-15.68204 17.06068,-15.68204c6.1864,0 5.34223,14.25441 5.34223,15.68204z" data-paper-data="{&quot;index&quot;:null}" fill="#de3636" stroke="#000000"/><path d="M272.80944,128.31635c0,1.42763 1.18882,16.71602 -4.99757,16.71602c-6.1864,0 -17.40534,-15.28839 -17.40534,-16.71602c0,-1.42763 10.87428,-15.68204 17.06068,-15.68204c6.1864,0 5.34223,14.25441 5.34223,15.68204z" data-paper-data="{&quot;index&quot;:null}" fill="#de3636" stroke="#000000"/><path d="M272.63711,130.55664c0,3.33113 0.69492,14.3034 -4.82524,14.3034c-5.52017,0 -15.16505,-10.97226 -15.16505,-14.3034c0,-1.34768 12.57959,11.45699 14.7915,8.30306c3.25538,-4.64179 -3.08564,-25.36374 0.20122,-25.36374c5.52017,0 4.99757,13.72955 4.99757,17.06068z" data-paper-data="{&quot;index&quot;:null}" fill="#b72c2c" stroke="none"/><path d="M272.29245,128.48868c0,1.42763 1.18882,16.71602 -4.99757,16.71602c-6.1864,0 -17.40534,-15.28839 -17.40534,-16.71602c0,-1.42763 10.87428,-15.68204 17.06068,-15.68204c6.1864,0 5.34223,14.25441 5.34223,15.68204z" data-paper-data="{&quot;index&quot;:null}" fill="none" stroke="#000000"/><path d="M227.92293,113.66829c6.1864,0 17.06068,14.25441 17.06068,15.68204c0,1.42763 -11.21894,16.71602 -17.40534,16.71602c-6.1864,0 -4.99757,-15.28839 -4.99757,-16.71602c0,-1.42763 -0.84416,-15.68204 5.34223,-15.68204z" data-paper-data="{&quot;index&quot;:null}" fill="#de3636" stroke="#000000"/><path d="M227.7506,114.52994c3.28686,0 -3.05415,20.72195 0.20122,25.36374c2.21191,3.15394 14.7915,-9.65074 14.7915,-8.30306c0,3.33113 -9.64488,14.3034 -15.16505,14.3034c-5.52017,0 -4.82524,-10.97226 -4.82524,-14.3034c0,-3.33113 -0.52259,-17.06068 4.99757,-17.06068z" fill="#b72c2c" stroke="none"/><path d="M228.43992,113.84062c6.1864,0 17.06068,14.25441 17.06068,15.68204c0,1.42763 -11.21894,16.71602 -17.40534,16.71602c-6.1864,0 -4.99757,-15.28839 -4.99757,-16.71602c0,-1.42763 -0.84416,-15.68204 5.34223,-15.68204z" fill="none" stroke="#000000"/><path d="M245.67292,121.76781c3.80701,0 6.8932,3.14334 6.8932,7.02085c0,3.87751 -3.0862,7.02085 -6.8932,7.02085c-3.80701,0 -6.8932,-3.14334 -6.8932,-7.02085c0,-3.87751 3.08619,-7.02085 6.8932,-7.02085z" fill="#de3636" stroke="#000000"/><path d="M241.19234,124.18042c1.78326,0 -0.09511,7.29764 2.30665,8.96123c2.59746,1.79915 9.4118,-1.99758 9.4118,-1.20637c0,1.43309 -2.66494,3.64481 -6.07264,3.7786c-0.21332,0.00838 -0.0849,0.35732 -0.30357,0.35732c-3.71184,0 -7.06553,-2.61312 -7.06553,-4.13592c0,-1.52281 -1.98854,-7.75485 1.7233,-7.75485z" fill="#b72c2c" stroke="none"/><path d="M245.84526,121.94013c3.80701,0 6.8932,3.14335 6.8932,7.02086c0,3.87752 -3.08619,7.02086 -6.8932,7.02086c-3.80701,0 -6.8932,-3.14335 -6.8932,-7.02086c0,-3.87752 3.08619,-7.02086 6.8932,-7.02086z" fill="none" stroke="#000000"/></g><g stroke-width="2.5"><path d="M229.34934,115.30216l8.72747,-23.05556l29.6229,11.21347l-8.72747,23.05556z" fill="#1b1b1b" stroke="#000000" stroke-linecap="butt"/><path d="M226.1655,115.6945l2.48599,-6.56733l33.39562,12.64159l-2.48599,6.56733z" fill="#7c7c7c" stroke="none" stroke-linecap="butt"/><path d="M238.00046,111.22834c3.4084,1.29021 -11.45276,-0.08769 -5.97678,3.78034c3.2649,2.30621 28.65822,10.36672 28.33087,11.23148c-0.87637,2.31513 -20.08715,-4.56849 -25.52771,-6.62796c-5.44056,-2.05948 -9.14057,-5.60579 -8.26421,-7.92093c0.87637,-2.31513 5.99727,-2.52238 11.43782,-0.46292z" fill="#585858" stroke="none" stroke-linecap="butt"/><path d="M226.39029,108.99546l2.06286,-5.4495l36.74917,13.91105l-2.06286,5.4495z" fill="#e1e1e1" stroke="#000000" stroke-linecap="butt"/><path d="M226.83895,107.16301c0.0696,-0.18387 0.97242,-2.57789 2.85389,-2.9789c1.52254,-0.32449 4.00392,1.27272 4.70238,1.55257c1.69724,0.68 -2.65583,1.29468 -1.17292,3.07932c1.28635,1.54808 8.28778,4.24033 11.08627,5.36016c4.77927,1.91244 10.31628,2.86594 13.97176,4.24968c10.53385,3.98748 7.28934,1.63373 6.70509,3.17717c-0.58424,1.54342 -9.59725,-0.4379 -20.13111,-4.42539c-10.53385,-3.98748 -18.5996,-8.47119 -18.01537,-10.0146z" fill="#bfbfbf" stroke="none" stroke-linecap="butt"/><g data-paper-data="{&quot;index&quot;:null}" stroke-linecap="butt"><path d="M318.64999,82.77794c-4.62843,-0.32103 -12.42666,3.00746 -15.14673,1.02128c-3.16276,-2.30942 -0.82168,-10.15221 0.08907,-13.47748c0.90194,-3.29311 4.18639,-9.55587 8.40966,-11.35099c3.70883,-1.57647 8.10214,1.08441 12.78257,1.40902c10.01015,0.69428 16.75168,6.27109 15.05768,12.45619c-1.69401,6.18507 -11.1821,10.63624 -21.19225,9.94197z" fill="#444444" stroke="#000000"/><path d="M312.08573,83.02069c-0.43909,0.25224 -1.12519,0.01187 -1.55716,0.22735c-3.71271,1.85202 -7.19844,2.00527 -7.89603,0.67484c-0.77875,-1.4852 4.65977,-22.02558 8.87282,-24.44586c2.21841,-1.27443 -5.79839,9.57056 0.36758,14.55756c5.54402,4.48397 25.41466,3.06186 25.78335,3.76503c0.53359,1.01767 -8.43115,3.42439 -16.39958,4.45894c-3.66092,0.47529 -7.84468,0.00027 -9.17095,0.76216z" fill="#282828" stroke="none"/><path d="M330.26323,79.58151c-5.92949,3.40634 -22.91732,3.50348 -23.62735,2.14932c-0.71003,-1.35416 -0.81437,-13.01449 5.11514,-16.42082c5.92949,-3.40634 26.8312,5.36328 27.54125,6.71742c0.71003,1.35416 -3.09954,4.14773 -9.02903,7.55406z" fill="#b7b7b7" stroke="#000000"/><path d="M336.27564,72.8293c-1.0959,0.62957 3.48488,2.62237 0.23127,4.61493c-2.75612,1.68788 -13.12178,3.41296 -16.67678,3.92075c-5.17191,0.73874 -9.87871,0.95216 -12.43149,0.11686c-1.28966,-0.42199 -1.67047,-1.47119 -2.0133,-2.12501c-0.7407,-1.41265 0.02851,-3.36042 0.19803,-4.89226c0.48561,-4.38813 3.81211,-8.80747 8.44183,-8.72254c8.4218,0.15449 21.11461,3.98612 22.58569,6.79175c0.183,0.34902 -7.87666,-2.74285 -15.07499,-4.02523c-5.20965,-0.92808 -9.86033,-0.4802 -11.1253,0.85403c-2.42057,2.55307 -1.89856,10.46618 -0.79251,10.83649c2.94952,0.98758 10.79229,1.25917 16.66149,-0.84752c6.89304,-2.47419 11.57581,-7.42979 9.99608,-6.52227z" fill="#989898" stroke="none"/><path d="M329.69178,79.90494c-5.92949,3.40634 -22.91732,3.50348 -23.62735,2.14932c-0.71003,-1.35416 -0.81437,-13.01449 5.11514,-16.42082c5.92949,-3.40634 26.8312,5.36328 27.54125,6.71742c0.71003,1.35416 -3.09954,4.14773 -9.02903,7.55406z" fill="none" stroke="#000000"/><path d="M318.37231,82.72678c-4.62843,-0.32103 -8.45563,2.16708 -11.17572,0.18089c-3.16276,-2.30942 -1.92072,-6.63913 -1.00999,-9.96437c0.90194,-3.29311 1.31444,-12.22858 5.53773,-14.02371c3.70883,-1.57647 8.10214,1.08441 12.78257,1.40902c10.01015,0.69428 16.75168,6.27109 15.05768,12.45619c-1.69401,6.18507 -11.1821,10.63624 -21.19225,9.94197z" fill="none" stroke="#000000"/></g><g data-paper-data="{&quot;index&quot;:null}" stroke-linecap="butt"><path d="M302.85448,82.60772c-4.83773,1.20351 -11.10666,7.09116 -14.82399,6.00531c-4.32232,-1.26255 -5.7688,-9.85687 -6.46488,-13.47382c-0.68936,-3.582 -0.41316,-10.91071 2.98554,-14.09183c2.98468,-2.79362 8.72259,-1.5856 13.61469,-2.80265c10.46279,-2.60291 15.44418,2.40398 16.73893,9.13163c1.29474,6.72765 -1.58749,12.62843 -12.05026,15.23136z" fill="#444444" stroke="#000000"/><path d="M296.33292,85.01092c-0.32146,0.39618 -1.13234,0.38227 -1.46446,0.73943c-2.8546,3.06978 -6.30585,4.3702 -7.65851,3.27269c-1.51003,-1.2252 -5.99919,-23.50576 -2.9149,-27.30714c0.44575,-0.54938 7.42658,-2.81432 7.5305,-1.57156c0.08735,1.04456 -2.38535,2.15908 -3.05811,4.16872c-1.4431,4.31067 -1.30676,10.34655 2.9797,11.80378c7.78855,2.64783 21.5429,-4.26243 22.25782,-3.68236c1.03468,0.83952 -1.20962,5.14156 -8.76643,8.79692c-3.47179,1.67936 -7.93465,2.58286 -8.90561,3.77953z" fill="#282828" stroke="none"/><path d="M313.04647,75.59583c-4.34087,5.35009 -21.47656,11.03965 -22.85336,9.92257c-1.37679,-1.11709 -7.1535,-12.71455 -2.81263,-18.06464c4.34087,-5.35009 23.26795,-3.38589 24.64473,-2.26882c1.37679,1.11709 5.36214,5.06081 1.02126,10.41088z" fill="#b7b7b7" stroke="#000000"/><path d="M311.70788,66.06142c-0.80228,0.9888 4.29442,4.722 1.97253,7.78084c-1.96685,2.5911 -6.97058,5.29054 -10.31944,6.96744c-7.33333,3.67208 -15.5141,5.06631 -17.49468,3.45935c-3.95276,-3.20712 -4.74936,-8.77451 -1.77928,-12.43509c0.82669,-1.01889 2.48939,-3.68797 5.80391,-4.69789c8.59369,-2.61847 19.9869,-2.8413 22.83944,-0.52685c0.35485,0.28792 -5.99224,-0.27662 -13.89694,0.81396c-5.72087,0.78927 -10.20713,2.76716 -10.83772,4.51458c-1.20665,3.3437 3.17002,11.06559 4.46889,11.07091c3.46372,0.01412 11.52866,-2.29691 16.44065,-6.33067c5.76886,-4.73743 3.95914,-12.0419 2.80265,-10.61653z" fill="#989898" stroke="none"/><path d="M312.62579,76.1066c-4.34087,5.35009 -21.47656,11.03965 -22.85336,9.92257c-1.37679,-1.11709 -7.1535,-12.71455 -2.81263,-18.06464c4.34087,-5.35009 24.66955,-2.81235 26.04636,-1.69525c1.37679,1.11709 3.96051,4.48725 -0.38036,9.83733z" fill="none" stroke="#000000"/><path d="M302.54875,82.64809c-4.83773,1.20351 -11.10666,7.09116 -14.82399,6.00531c-4.32232,-1.26255 -5.7688,-9.85687 -6.46488,-13.47382c-0.68936,-3.582 -0.41316,-10.91071 2.98554,-14.09183c2.98468,-2.79362 8.72259,-1.5856 13.61469,-2.80265c10.46279,-2.60291 14.52482,4.19451 15.81954,10.92216c1.29474,6.72765 -0.66811,10.8379 -11.13091,13.4408z" fill="none" stroke="#000000"/></g><g stroke-linecap="butt"><path d="M222.60799,11.52314c4.49256,-4.57622 12.70421,-1.55661 18.34125,6.74451c2.63572,3.88138 7.14585,6.33899 7.64978,10.33732c0.57382,4.55295 -3.18554,10.54266 -5.57752,12.97919c-2.4153,2.4603 -8.0148,8.42986 -11.60204,6.85877c-3.08516,-1.35118 -4.13279,-9.76508 -6.73922,-13.60331c-5.63702,-8.30112 -6.56482,-18.74029 -2.07227,-23.31652z" fill="#444444" stroke="#000000"/><path d="M227.77355,40.63445c-0.00894,-1.52951 -2.52473,-4.90599 -3.95615,-8.30882c-3.11565,-7.40671 -5.54685,-16.36483 -4.39892,-16.41581c0.79317,-0.03522 9.56304,17.85203 16.22771,20.38672c7.41229,2.81903 12.75022,-9.56601 12.7652,-7.00764c0.02844,4.8587 -14.98535,19.89431 -16.66067,19.9687c-1.50073,0.06663 -3.1223,-3.02275 -3.39007,-7.1631c-0.03116,-0.48171 -0.58412,-0.95369 -0.58709,-1.46005z" fill="#282828" stroke="none"/><path d="M221.5988,23.19537c-0.04003,-6.83816 0.45713,-11.536 1.98464,-11.60381c1.5275,-0.06782 19.62362,13.58205 19.66366,20.4202c0.04003,6.83816 -10.08901,12.61544 -11.61652,12.68325c-1.5275,0.06782 -9.99175,-14.66148 -10.03179,-21.49964z" fill="#b7b7b7" stroke="#000000"/><path d="M224.40844,14.6019c-0.01067,-1.82182 -1.9368,4.71855 -0.60639,11.92031c1.13281,6.13208 5.31398,12.77292 7.6516,14.82487c0.87659,0.76946 7.97754,-2.76127 8.96581,-6.13776c0.51646,-1.76451 -1.43669,-6.0089 -4.86018,-10.04392c-4.73035,-5.57532 -11.45787,-10.98443 -11.06418,-11.00192c3.1648,-0.1405 12.86293,8.90022 17.23426,16.10037c2.40304,3.95815 0.25787,9.05661 -3.28988,11.68435c-1.23847,0.91729 -2.5346,2.56215 -4.12813,2.63289c-0.73751,0.03274 -1.83585,0.23159 -2.84946,-0.67054c-2.00639,-1.78573 -4.19039,-5.96059 -6.15447,-10.80176c-1.35003,-3.32765 -5.07524,-13.15343 -5.00349,-16.38452c0.08471,-3.81435 4.11186,-0.85854 4.10448,-2.12237z" fill="#989898" stroke="none"/><path d="M221.60682,23.85195c-0.04003,-6.83816 0.45713,-11.536 1.98464,-11.60381c1.5275,-0.06782 19.62362,13.58205 19.66366,20.4202c0.04003,6.83816 -10.08901,12.61544 -11.61652,12.68325c-1.5275,0.06782 -9.99175,-14.66148 -10.03179,-21.49964z" fill="none" stroke="#000000"/><path d="M222.79191,11.73734c4.49256,-4.57622 12.70421,-1.55661 18.34125,6.74451c2.63572,3.88138 7.14585,6.33899 7.64978,10.33732c0.57382,4.55295 -6.94038,9.40571 -9.33236,11.84222c-2.4153,2.4603 -5.53194,5.71232 -9.11916,4.14122c-3.08516,-1.35118 -2.86082,-5.91054 -5.46724,-9.74877c-5.63702,-8.30112 -6.56482,-18.74029 -2.07227,-23.31652z" fill="none" stroke="#000000"/></g><g stroke-linecap="butt"><path d="M239.87445,30.32618c6.46536,-2.26646 13.29878,-0.48111 16.31424,9.87031c1.40993,4.84002 5.34117,9.19069 4.42889,13.17571c-1.03883,4.53778 -7.23313,8.46424 -10.67546,9.67096c-3.47594,1.2185 -11.63078,4.29313 -14.8968,1.1932c-2.8089,-2.66603 -0.87546,-11.04609 -2.26972,-15.83233c-3.01546,-10.35142 0.63352,-15.81141 7.09887,-18.07785z" fill="#444444" stroke="#000000"/><path d="M232.76532,45.65125c-0.6437,-8.36975 1.9447,-12.47398 3.19082,-12.00227c0.86101,0.32593 1.81051,15.68926 8.01784,21.08754c3.41623,2.97095 8.70086,0.05155 11.69989,-3.36464c1.39814,-1.59261 1.11701,-4.29027 2.06364,-4.74041c1.12625,-0.53553 2.68167,6.6368 2.43122,7.29846c-1.73303,4.5782 -23.24623,11.91028 -25.06485,11.22187c-1.62908,-0.61668 -2.24194,-4.25349 -1.02554,-8.26506c0.14153,-0.46674 -0.27853,-1.1605 -0.09792,-1.63766c0.54556,-1.44121 -0.91937,-5.75255 -1.2151,-9.59781z" fill="#282828" stroke="none"/><path d="M233.70648,36.06802c2.43909,-6.44342 7.85254,-4.98384 9.5107,-4.35617c1.65816,0.62768 12.87956,15.99556 10.44047,22.43896c-2.43909,6.44341 -15.36813,7.28713 -17.02628,6.65944c-1.65816,-0.62768 -5.36398,-18.29883 -2.92489,-24.74224z" fill="#b7b7b7" stroke="#000000"/><path d="M242.61944,32.42712c0.64982,-1.71664 -6.57314,0.39502 -7.76424,7.76416c-1.01418,6.27457 1.04693,14.40698 2.80207,17.39314c0.65817,1.11977 9.53353,1.01635 11.81589,-1.70895c1.19274,-1.42421 0.64451,-6.29639 -1.55214,-11.63736c-3.03516,-7.37979 -6.71683,-12.58072 -6.28946,-12.41894c3.43548,1.30047 8.97594,11.25831 11.0374,20.00234c0.7951,3.37251 -0.67479,6.15245 -1.13929,7.37956c-1.66885,4.40864 -6.88089,6.52172 -11.6414,4.71968c-2.38531,-0.90293 -5.29699,-8.67412 -5.81378,-16.85916c-0.23599,-3.73781 -0.42108,-9.42023 0.82838,-12.42377c1.475,-3.54571 7.26575,-1.0198 7.71654,-2.21066z" fill="#989898" stroke="none"/><path d="M233.47678,36.68861c2.43909,-6.44342 6.65159,-5.90648 8.30976,-5.27879c1.65816,0.62768 14.08052,16.91818 11.64142,23.36159c-2.43909,6.44341 -15.36813,7.28713 -17.02628,6.65944c-1.65816,-0.62768 -5.36398,-18.29883 -2.92489,-24.74224z" fill="none" stroke="#000000"/><path d="M238.90867,32.3062c6.46536,-2.26646 14.38351,-2.1766 17.39895,8.17482c1.40993,4.84002 5.34117,9.19069 4.42889,13.17571c-1.03883,4.53778 -7.23313,8.46424 -10.67546,9.67096c-3.47594,1.2185 -11.63078,4.29313 -14.8968,1.1932c-2.8089,-2.66603 -0.87546,-11.04609 -2.26972,-15.83233c-3.01546,-10.35142 -0.45121,-14.11592 6.01415,-16.38237z" fill="none" stroke="#000000"/></g><g><g><path d="M224.917,95.20449c-3.94202,-15.7845 7.53521,-37.05472 16.20884,-39.22089c5.36588,-1.34007 25.03326,-1.99187 34.08886,6.40536c5.5823,5.17645 13.07093,9.69296 14.57425,15.71253c3.94202,15.7845 -7.88325,35.78674 -16.5569,37.95291c-4.29157,1.07176 -15.02867,-4.38032 -24.71337,-8.47089c-9.88903,-4.17689 -21.61013,-4.40435 -23.60171,-12.379z" fill="#444444" stroke="#000000" stroke-linecap="butt"/><path d="M224.77818,80.33937c0.3219,-0.85034 2.24894,-13.5422 8.96235,-19.93649c5.72476,-5.45265 15.71581,-4.76726 22.61326,-5.20699c16.39247,-1.04505 31.91824,19.65684 33.05827,20.08839c0.76291,0.28878 -10.05087,-11.04076 -22.5961,-16.1409c-6.12364,-2.48951 -13.64775,-1.30785 -18.53175,-0.78899c-3.80754,0.40451 -10.54155,1.5434 -12.68452,4.22629c-5.58523,6.99237 -7.65673,18.27941 -8.08968,19.42317c-1.24873,3.29877 1.14077,6.63031 -1.04149,5.80425c-2.18225,-0.82608 -2.93906,-4.16993 -1.69034,-7.4687z" fill="#282828" stroke="none" stroke-linecap="butt"/><path d="M247.60304,60.51727c1.7765,0.67248 8.34647,10.09152 17.28032,15.11139c7.98298,4.4856 18.37148,4.39315 20.62369,8.46091c1.71389,3.09545 -4.19957,10.57744 -4.66418,14.32922c-0.66196,5.34554 3.45966,6.79918 2.73982,8.70077c-2.63192,6.95281 -23.61337,-9.15147 -29.90642,-11.53364c-6.29303,-2.38219 -9.26097,-9.94967 -6.62906,-16.90247c2.63192,-6.95281 -5.73724,-20.54832 0.55581,-18.16617z" fill="#282828" stroke="none" stroke-linecap="butt"/><path d="M224.94933,94.93816c-3.94202,-15.7845 7.53521,-37.05472 16.20884,-39.22089c5.36588,-1.34007 25.03326,-1.99187 34.08886,6.40536c5.5823,5.17645 13.07093,9.69296 14.57425,15.71253c3.94202,15.7845 -7.88325,35.78674 -16.5569,37.95291c-4.29157,1.07176 -15.02867,-4.38032 -24.71337,-8.4709c-9.88903,-4.17689 -21.61013,-4.40435 -23.60171,-12.37899z" fill="none" stroke="#000000" stroke-linecap="butt"/><path d="M236.02666,76.49027c1.03058,-2.72254 4.15801,-12.296 8.45779,-13.81276c5.00919,-1.76703 11.37202,4.81083 14.19392,5.87903c5.24416,1.98513 -1.42973,9.22822 -3.66094,15.12248c-2.23122,5.89426 -8.2912,9.06322 -13.53534,7.0781c-5.24416,-1.98513 -7.68662,-8.37262 -5.4554,-14.26688z" fill="#000000" stroke="#000000" stroke-linecap="butt"/><path d="M279.89979,95.79368c-1.71238,4.52365 -7.35178,6.58153 -12.59593,4.59639c-5.24416,-1.98513 -8.10723,-7.26153 -6.39483,-11.78517c1.71238,-4.52365 0.75561,-12.38355 5.99976,-10.39841c2.8219,1.06821 11.62458,1.20058 14.49007,5.09668c2.45966,3.34431 -0.70811,10.40106 -1.49905,12.49052z" data-paper-data="{&quot;index&quot;:null}" fill="#000000" stroke="#000000" stroke-linecap="butt"/><path d="M225.95842,95.66531c0.1155,-0.30513 -1.55174,-4.04687 -1.30332,-4.35524c0.88904,-1.10352 -1.87622,-6.43332 0.96012,-6.52694c6.39048,-0.21094 21.21362,6.59563 28.27009,9.26679c7.64008,2.89209 23.97648,8.563 27.60504,13.93202c1.62596,2.40584 -6.10444,5.86964 -6.55623,7.06315c-1.46004,3.85703 -14.78552,-4.12609 -25.84912,-8.31411c-11.06359,-4.18801 -24.58663,-7.20863 -23.1266,-11.06567z" fill="#b7b7b7" stroke="#000000" stroke-linecap="butt"/><path d="M225.93782,95.5464c0.17128,-0.45247 -2.74846,-10.24975 -1.76276,-10.34103c1.8264,-0.16914 4.51373,8.85164 9.23689,12.01246c5.30827,3.55238 12.78883,6.62928 18.5063,8.79357c5.08464,1.92473 11.84603,6.08619 17.38225,6.28942c5.15306,0.18919 9.20624,-3.54277 10.85835,-2.89317c1.30311,0.51238 -4.91797,4.0986 -5.15085,4.71379c-0.83196,2.19783 -10.37672,-0.84158 -23.65306,-5.80341c-0.21254,-0.07943 -1.20536,-0.87498 -1.41888,-0.9558c-13.55036,-5.12936 -24.84354,-9.58285 -23.99825,-11.81585z" fill="#989898" stroke="none" stroke-linecap="butt"/><path d="M225.85163,95.76653c0.11549,-0.30512 -1.55175,-4.04687 -1.30333,-4.35524c0.88904,-1.10352 -1.87622,-6.43332 0.96011,-6.52695c6.39048,-0.21094 21.21363,6.59564 28.2701,9.26679c7.64008,2.89209 23.97647,8.563 27.60504,13.93202c1.62596,2.40584 -6.10444,5.86964 -6.55623,7.06315c-1.46004,3.85703 -14.78552,-4.12609 -25.84912,-8.31411c-11.06359,-4.18801 -24.58662,-7.20863 -23.12659,-11.06566z" fill="none" stroke="#000000" stroke-linecap="butt"/><path d="M254.79192,93.69429c6.29303,2.38219 10.88064,5.67096 10.24667,7.34574c-0.63396,1.67476 -6.24942,1.10129 -12.54246,-1.28087c-6.29303,-2.38219 -10.88064,-5.67096 -10.24667,-7.34574c0.63396,-1.67476 6.24942,-1.10129 12.54246,1.28087z" fill="#000000" stroke="#000000" stroke-linecap="butt"/><path d="M229.70536,86.50807l3.70579,-0.9085l2.94054,1.11312l-3.52722,2.65707l-1.22732,2.68719" fill="none" stroke="#000000" stroke-linecap="round"/><path d="M240.668,89.18706l-6.5072,-0.57216" fill="none" stroke="#000000" stroke-linecap="round"/><path d="M236.87294,89.2213l-1.3914,3.67567" fill="none" stroke="#000000" stroke-linecap="round"/><path d="M239.11245,89.24901l4.26646,3.71622" fill="none" stroke="#000000" stroke-linecap="round"/><path d="M239.78852,90.95533l-2.41001,5.81151" fill="none" stroke="#000000" stroke-linecap="round"/><path d="M277.12259,96.68306l-0.62204,7.74904l-10.31679,-3.27498l0.83482,-2.20541" fill="none" stroke="#000000" stroke-linecap="round"/><path d="M270.81888,97.23851l4.67868,4.29248" fill="none" stroke="#000000" stroke-linecap="round"/><path d="M266.35715,104.58464l2.96135,-5.60278" fill="none" stroke="#000000" stroke-linecap="round"/><path d="M271.19576,101.79365l-3.19499,6.77506" fill="none" stroke="#000000" stroke-linecap="round"/><path d="M272.65043,107.38715l0.65626,-3.95395" fill="none" stroke="#000000" stroke-linecap="round"/><path d="M275.38226,109.0516l0.36346,-5.95583" fill="none" stroke="#000000" stroke-linecap="round"/></g><path d="M284.40768,76.32775l0.6957,-1.83785l2.5086,-0.52122" fill="none" stroke="#000000" stroke-linecap="round"/><path d="M253.37839,62.27059l-0.60119,1.03313l-1.26675,0.57106" fill="none" stroke="#000000" stroke-linecap="round"/></g><path d="M226.27128,115.41505l1.79839,-4.75084l33.39562,12.64159l-1.79839,4.75084z" fill="none" stroke="#000000" stroke-linecap="butt"/><path d="M226.76317,109.05136l2.06286,-5.4495l36.74917,13.91105l-2.06286,5.4495z" fill="none" stroke="#000000" stroke-linecap="butt"/><path d="M237.27775,107.44019l-1.72654,4.13904" fill="none" stroke="#000000" stroke-linecap="round"/><path d="M248.51221,116.16598l1.48102,-3.91245" fill="none" stroke="#000000" stroke-linecap="round"/><path d="M258.29025,115.23451l-0.7145,4.84164" fill="none" stroke="#000000" stroke-linecap="round"/></g><g><path d="M180.58768,172.94109c7.82541,-2.38285 15.9295,1.46648 18.10095,8.59769c2.17147,7.13122 -2.41196,14.84391 -10.23739,17.22676c-7.82542,2.38285 -15.9295,-1.46649 -18.10096,-8.59771c-2.17148,-7.13122 2.41196,-14.84391 10.23739,-17.22676z" fill="#444444" stroke="#000000" stroke-width="0" stroke-linecap="butt"/><path d="M175.58829,175.67364c4.41757,-1.34516 15.71588,-7.43615 17.63754,-1.12534c0.3224,1.05878 -5.44075,0.19591 -10.38889,2.44754c-4.69354,2.13578 -8.56307,7.37166 -9.07272,8.9927c-2.1556,6.85623 11.75641,11.63317 8.78299,12.53858c-4.41757,1.34515 -9.55653,-2.68031 -11.47818,-8.99114c-1.92166,-6.31083 0.1017,-12.51722 4.51927,-13.86237z" fill="#282828" stroke="none" stroke-width="0" stroke-linecap="butt"/><path d="M197.9427,181.73534c2.17148,7.13122 -2.41196,14.84391 -10.23739,17.22676c-7.82542,2.38285 -15.9295,-1.46647 -18.10095,-8.59769c-2.17148,-7.13122 2.41196,-14.84391 10.23739,-17.22676c7.82542,-2.38285 15.9295,1.46647 18.10095,8.59769z" fill="none" stroke="#000000" stroke-width="3.5" stroke-linecap="butt"/><g><path d="M174.97827,205.86415c5.93216,-1.80636 5.36474,-13.54609 6.2487,-10.64311c0.41315,1.35678 8.03539,2.30249 8.01247,6.6988c-0.02613,5.01002 -7.90047,13.49482 -11.06007,14.45693c-5.93217,1.80635 -11.45772,0.91737 -12.34169,-1.98561c-0.88397,-2.90298 3.20841,-6.72065 9.1406,-8.52701z" fill="#840000" stroke="#000000" stroke-width="0" stroke-linecap="butt"/><path d="M180.97473,196.81226c1.96966,-2.49915 4.54463,0.01341 4.72798,0.61554c0.49963,1.64082 -11.07489,18.35583 -13.53611,19.10527c-2.46122,0.74945 -4.86146,0.02684 -5.36109,-1.61397c-0.49963,-1.64081 0.63537,-3.85807 3.09659,-4.60753c1.55804,-0.47442 7.37201,-8.80389 11.07263,-13.49932z" fill="#430000" stroke="none" stroke-width="0" stroke-linecap="butt"/><path d="M181.23595,194.93863c0.41315,1.35678 8.03539,2.30249 8.01247,6.6988c-0.02613,5.01002 -7.90047,13.49482 -11.06007,14.45693c-5.93216,1.80636 -11.45773,0.91737 -12.34169,-1.98561c-0.88396,-2.90297 3.20843,-6.72063 9.14059,-8.52699c5.93216,-1.80636 5.36475,-13.54609 6.2487,-10.64311z" fill="none" stroke="#000000" stroke-width="3.5" stroke-linecap="butt"/><path d="M183.13863,211.83999l-6.41007,-6.28905" fill="none" stroke="#000000" stroke-width="3.5" stroke-linecap="round"/></g><g data-paper-data="{&quot;index&quot;:null}"><path d="M163.77784,190.53547c-4.24367,4.52162 -9.47758,6.50359 -11.69028,4.42691c-2.21271,-2.0767 -0.56628,-7.42564 3.6774,-11.94725c2.26028,-2.4083 13.3527,-5.7182 17.85766,-3.5259c3.95312,1.92376 1.4303,9.17829 2.46444,10.14889c2.21271,2.0767 -8.06557,-3.62425 -12.30923,0.89734z" fill="#840000" stroke="#000000" stroke-width="0" stroke-linecap="butt"/><path d="M157.54399,193.12129c-1.76066,1.87598 -4.25126,1.91334 -5.50193,0.73957c-1.25066,-1.17378 -0.83722,-3.64609 0.92345,-5.52208c1.76066,-1.87598 21.87108,-4.86461 23.12175,-3.69082c0.45894,0.43074 1.57363,3.85141 -1.53893,4.51268c-5.8479,1.24243 -15.88978,2.77309 -17.00435,3.96066z" fill="#430000" stroke="none" stroke-width="0" stroke-linecap="butt"/><path d="M164.03509,190.65232c-4.24367,4.5216 -9.47758,6.50359 -11.69027,4.42691c-2.2127,-2.07669 -0.56627,-7.42565 3.6774,-11.94725c2.26028,-2.4083 13.3527,-5.7182 17.85766,-3.5259c3.95312,1.92376 1.4303,9.17829 2.46444,10.14889c2.2127,2.07669 -8.06557,-3.62425 -12.30923,0.89734z" fill="none" stroke="#000000" stroke-width="3.5" stroke-linecap="butt"/><path d="M164.83283,189.10418l-2.80564,-8.53051" fill="none" stroke="#000000" stroke-width="3.5" stroke-linecap="round"/></g><g data-paper-data="{&quot;index&quot;:null}"><path d="M167.2958,200.80251c-2.23268,5.78522 -6.33765,9.58935 -9.16871,8.49676c-2.83107,-1.09258 -3.31616,-6.66814 -1.08349,-12.45336c1.18917,-3.08133 10.22379,-10.31828 15.22246,-9.98024c4.38635,0.29663 4.77564,7.96744 6.09882,8.47809c2.83107,1.09258 -8.8364,-0.32647 -11.06909,5.45874z" fill="#840000" stroke="#000000" stroke-width="0" stroke-linecap="butt"/><path d="M162.49123,205.54205c-0.92632,2.40026 -3.22021,3.37112 -4.82037,2.75356c-1.60017,-0.61754 -2.14643,-3.06395 -1.22011,-5.46419c0.92632,-2.40026 18.43825,-12.72948 20.03843,-12.11193c0.58721,0.22663 2.90602,2.97736 0.27033,4.76019c-4.95193,3.34961 -13.68188,8.5429 -14.26827,10.06233z" fill="#430000" stroke="none" stroke-width="0" stroke-linecap="butt"/><path d="M167.57811,200.81407c-2.23267,5.78521 -6.33765,9.58935 -9.16869,8.49677c-2.83105,-1.09257 -3.31615,-6.66813 -1.08349,-12.45336c1.18917,-3.08133 10.22379,-10.31828 15.22246,-9.98024c4.38635,0.29663 4.77564,7.96744 6.09882,8.47809c2.83105,1.09257 -8.8364,-0.32647 -11.06909,5.45874z" fill="none" stroke="#000000" stroke-width="3.5" stroke-linecap="butt"/><path d="M161.92876,192.22944l5.80659,6.85015" fill="none" stroke="#000000" stroke-width="3.5" stroke-linecap="round"/></g><g><path d="M161.7939,176.7678c-5.06873,3.57236 -10.59489,4.45755 -12.34306,1.97709c-1.74817,-2.48043 0.94365,-7.38718 6.01237,-10.95953c2.69973,-1.90271 14.23184,-2.9064 18.2018,0.1498c3.48366,2.68181 -0.45105,9.27812 0.36601,10.43741c1.74817,2.48043 -7.16841,-5.17712 -12.2371,-1.60477z" fill="#444444" stroke="#000000" stroke-width="0" stroke-linecap="butt"/><path d="M155.31992,178.51925c-2.10298,1.48214 -4.70329,0.53958 -5.6914,-0.86241c-0.98809,-1.40198 -0.08433,-3.74004 2.01867,-5.22218c2.10298,-1.48214 22.4028,-0.35161 23.39091,1.05038c0.3626,0.51448 0.76416,4.0897 -2.41781,4.10936c-5.97832,0.03693 -15.35036,-0.39817 -16.68161,0.54008z" fill="#282828" stroke="none" stroke-width="0" stroke-linecap="butt"/><path d="M162.02228,176.93414c-5.0687,3.57236 -10.59489,4.45755 -12.34306,1.9771c-1.74816,-2.48043 0.94366,-7.38719 6.01237,-10.95953c2.69973,-1.90271 14.23184,-2.9064 18.2018,0.1498c3.48366,2.68181 -0.45105,9.27812 0.36601,10.43741c1.74816,2.48043 -7.16841,-5.17712 -12.2371,-1.60477z" fill="none" stroke="#000000" stroke-width="3.5" stroke-linecap="butt"/><path d="M163.11598,175.57879l-1.02671,-8.92116" fill="none" stroke="#000000" stroke-width="3.5" stroke-linecap="round"/></g><g><path d="M163.23941,189.84408c-3.78458,4.91229 -8.80131,7.39313 -11.20519,5.54108c-2.4039,-1.85202 -1.28463,-7.33558 2.49996,-12.24786c2.01574,-2.61639 12.73438,-6.98771 17.43093,-5.24319c4.12123,1.53083 2.31472,8.99604 3.43825,9.86165c2.4039,1.85202 -8.37936,-2.82398 -12.16392,2.0883z" fill="#444444" stroke="#000000" stroke-width="0" stroke-linecap="butt"/><path d="M157.57368,193.43287c-1.57019,2.03807 -4.33297,1.9072 -5.6917,0.86041c-1.35872,-1.04679 -1.18729,-3.54758 0.3829,-5.58566c1.57019,-2.03807 21.2954,-6.96527 22.65412,-5.91847c0.4986,0.38414 1.94016,3.6804 -1.09348,4.64078c-5.69964,1.80439 -14.78069,4.16212 -15.77469,5.45229z" fill="#282828" stroke="none" stroke-width="0" stroke-linecap="butt"/><path d="M163.50678,189.9354c-3.78457,4.91229 -8.80131,7.39313 -11.20521,5.5411c-2.40389,-1.85202 -1.28462,-7.33559 2.49996,-12.24786c2.01574,-2.61639 12.73438,-6.98771 17.43093,-5.24319c4.12123,1.53083 2.31472,8.99604 3.43825,9.86165c2.40389,1.85202 -8.37936,-2.82398 -12.16392,2.0883z" fill="none" stroke="#000000" stroke-width="3.5" stroke-linecap="butt"/><path d="M160.52975,180.09933l3.62066,8.21779" fill="none" stroke="#000000" stroke-width="3.5" stroke-linecap="round"/></g><g><path d="M167.10468,200.58751c-1.72275,5.957 -5.48248,10.10265 -8.39761,9.25961c-2.91513,-0.84304 -3.88173,-6.35556 -2.15898,-12.31254c0.91758,-3.17282 9.2908,-11.16572 14.29996,-11.26231c4.39555,-0.08475 5.44836,7.52345 6.81082,7.91747c2.91513,0.84304 -8.83143,0.44079 -10.55418,6.39777z" fill="#444444" stroke="#000000" stroke-width="0" stroke-linecap="butt"/><path d="M163.14679,206.00183c-0.71475,2.47153 -3.33355,3.36149 -4.98122,2.885c-1.64768,-0.4765 -2.40396,-2.86635 -1.6892,-5.33787c0.71475,-2.47153 17.26531,-14.27997 18.913,-13.80347c0.60464,0.17486 3.15318,2.71423 0.68198,4.71885c-4.64292,3.76631 -12.22971,9.28581 -12.68219,10.85036z" fill="#282828" stroke="none" stroke-width="0" stroke-linecap="butt"/><path d="M167.38694,200.57457c-1.72274,5.95698 -5.48248,10.10265 -8.3976,9.25962c-2.91513,-0.84304 -3.88174,-6.35557 -2.15898,-12.31254c0.91758,-3.17282 9.2908,-11.16572 14.29996,-11.26231c4.39555,-0.08475 5.44836,7.52345 6.81082,7.91747c2.91513,0.84304 -8.83143,0.44079 -10.55418,6.39777z" fill="none" stroke="#000000" stroke-width="3.5" stroke-linecap="butt"/><path d="M167.39323,198.83299l-6.37857,-6.321" fill="none" stroke="#000000" stroke-width="3.5" stroke-linecap="round"/></g><g data-paper-data="{&quot;index&quot;:null}"><path d="M174.71881,206.64208c6.07581,-1.24012 6.61561,-12.98119 7.22249,-10.0079c0.28363,1.38964 7.78306,3.04842 7.34656,7.42305c-0.49745,4.98533 -9.13526,12.69152 -12.3714,13.35206c-6.07583,1.24012 -11.49321,-0.16484 -12.10009,-3.13812c-0.60689,-2.97328 3.82658,-6.38892 9.9024,-7.62904z" fill="#444444" stroke="#000000" stroke-width="0" stroke-linecap="butt"/><path d="M169.70921,209.96709c1.59577,-0.32571 7.70516,-7.44609 11.83121,-11.77247c2.19609,-2.30272 4.52321,0.441 4.64907,1.05772c0.343,1.68055 -12.75302,17.23223 -15.27383,17.74676c-2.52082,0.51452 -4.84241,-0.43074 -5.18542,-2.11128c-0.343,-1.68055 0.75383,-4.21965 3.27465,-4.73417z" fill="#282828" stroke="none" stroke-width="0" stroke-linecap="butt"/><path d="M174.75429,206.36177c6.07581,-1.24012 6.61561,-12.98117 7.22248,-10.00788c0.28363,1.38964 7.78307,3.04841 7.34657,7.42304c-0.49745,4.98533 -9.13526,12.69152 -12.3714,13.35206c-6.07582,1.24012 -11.49322,-0.16487 -12.10009,-3.13812c-0.60687,-2.97328 3.82659,-6.38892 9.90241,-7.62905z" fill="none" stroke="#000000" stroke-width="3.5" stroke-linecap="butt"/><path d="M182.28061,213.35931l-5.78985,-6.86433" fill="none" stroke="#000000" stroke-width="3.5" stroke-linecap="round"/></g></g></g></g></svg>