<svg version="1.1" xmlns="http://www.w3.org/2000/svg" xmlns:xlink="http://www.w3.org/1999/xlink" width="195.2632" height="293.1189" viewBox="0,0,195.2632,293.1189"><g transform="translate(-141.76535,-25.14163)"><g data-paper-data="{&quot;isPaintingLayer&quot;:true}" fill-rule="nonzero" stroke-linejoin="miter" stroke-miterlimit="10" stroke-dasharray="" stroke-dashoffset="0" style="mix-blend-mode: normal"><g stroke-linecap="butt"><g><path d="M145.11127,187.62098l40.6775,-82.84992l14.40011,7.07014l-40.6775,82.84992z" fill="#7c7c7c" stroke="#000000" stroke-width="0"/><path d="M147.39471,181.26083c1.84538,-3.75859 35.91591,-79.67945 40.2737,-77.53988c2.39374,1.17528 -18.81886,40.50401 -25.98337,62.95821c-5.87841,18.42343 2.32231,20.63578 1.4906,22.32976c-1.84539,3.75859 -6.87405,5.07106 -11.23183,2.93149c-4.35779,-2.13957 -6.39449,-6.92098 -4.54911,-10.67957z" fill="#4c4c4c" stroke="none" stroke-width="0"/><path d="M145.11127,187.62098l40.6775,-82.84992l14.40011,7.07014l-40.6775,82.84992z" fill="none" stroke="#000000" stroke-width="5"/></g><g><path d="M176.6709,111.13238c3.81473,-7.76965 4.44315,-17.44034 10.41221,-19.58369c3.65612,-1.31282 12.65044,2.75339 15.81619,4.30771c3.65523,1.79464 13.69113,2.29182 14.70652,6.82446c1.29979,5.80218 -7.30042,16.23592 -10.75389,23.26976c-6.15129,12.52863 -17.89414,19.36793 -26.2284,15.27598c-1.57453,-0.77306 8.32353,-24.27197 7.22675,-25.6451c-2.43229,-3.04515 -22.38796,26.11402 -25.22536,26.99641c-2.65549,0.82582 11.634,-26.53295 14.04597,-31.44553z" fill="#5d9000" stroke="#000000" stroke-width="0"/><path d="M187.09864,126.82091c0.37206,-0.7578 4.07181,-15.51903 -1.23768,-11.06767c-5.19117,4.35216 -19.38233,27.94794 -20.05753,24.77067c-1.61457,-7.59766 16.24208,-43.48824 20.73459,-46.58574c1.4522,-1.00126 -11.75114,20.61877 -11.28999,25.50389c0.43156,4.57176 10.84846,-10.22545 14.09736,-10.14494c5.48426,0.13591 0.45794,28.03224 1.22276,28.40775c4.46673,2.19307 15.3002,-8.22598 12.70597,-2.94216c-2.59423,5.28382 -12.23504,9.78334 -16.70178,7.59027c-0.92999,-0.45661 -2.92897,0.12022 -3.32393,-0.7667c-1.50204,-3.37293 1.79613,-10.58166 3.85023,-14.76536z" fill="#517c00" stroke="none" stroke-width="0"/><path d="M176.67089,111.13238c3.81473,-7.76964 4.44315,-17.44034 10.41221,-19.58369c3.65611,-1.31283 12.65044,2.75339 15.81619,4.30771c3.65523,1.79464 13.69113,2.29182 14.70652,6.82446c1.29978,5.80218 -7.30042,16.23592 -10.75389,23.26976c-6.15129,12.52863 -17.89414,19.36793 -26.2284,15.27598c-1.57453,-0.77306 8.32353,-24.27197 7.22675,-25.6451c-2.43229,-3.04515 -22.38796,26.11402 -25.22536,26.99641c-2.65548,0.82582 11.63401,-26.53296 14.04598,-31.44554z" fill="none" stroke="#000000" stroke-width="5"/></g></g><g data-paper-data="{&quot;index&quot;:null}" stroke-linecap="butt"><g><path d="M319.12517,196.94895l-38.36754,-83.94464l14.59038,-6.66865l38.36754,83.94464z" fill="#7c7c7c" stroke="#000000" stroke-width="0"/><path d="M331.60913,183.85936c1.74059,3.80825 -0.42774,8.53144 -4.84311,10.54951c-4.41536,2.01807 -9.40575,0.56685 -11.14634,-3.2414c-0.78448,-1.71637 7.47436,-3.70074 2.10841,-22.27992c-6.53994,-22.64401 -26.65528,-62.54508 -24.22991,-63.65362c4.41536,-2.01807 36.37036,74.81719 38.11096,78.62544z" fill="#4c4c4c" stroke="none" stroke-width="0"/><path d="M319.12517,196.94894l-38.36755,-83.94463l14.59038,-6.66865l38.36755,83.94463z" fill="none" stroke="#000000" stroke-width="5"/></g><g><path d="M304.28622,112.94705c2.275,4.97749 15.80137,32.72149 13.16976,31.82245c-2.81187,-0.96062 -21.95238,-30.66125 -24.46807,-27.68462c-1.13439,1.34224 8.10913,25.10623 6.51379,25.83538c-8.44438,3.85957 -19.99335,-3.30229 -25.79532,-15.99647c-3.25735,-7.12677 -11.56532,-17.79467 -10.10535,-23.55864c1.14052,-4.50278 11.18634,-4.72185 14.88987,-6.41458c3.2076,-1.46606 12.31107,-5.28162 15.92942,-3.86806c5.90742,2.30782 6.2678,11.99222 9.86589,19.86453z" fill="#5d9000" stroke="#000000" stroke-width="0"/><path d="M293.42803,128.34079c1.93746,4.23899 5.03475,11.53629 3.43987,14.86633c-0.41937,0.87564 -2.40161,0.24368 -3.34388,0.67436c-4.52575,2.06853 -14.03825,-2.69625 -16.48517,-8.04988c-2.44691,-5.35363 8.09386,5.36144 12.61961,3.2929c0.77493,-0.35419 -3.47693,-28.37901 2.00899,-28.363c3.24988,0.00949 13.253,15.08952 13.81101,10.53145c0.59625,-4.87046 -12.0033,-26.84786 -10.57938,-25.80676c4.405,3.22071 21.26089,39.59204 19.43654,47.14207c-0.76292,3.15735 -14.2952,-20.82238 -19.36385,-25.31662c-5.18418,-4.5967 -1.89465,10.26133 -1.54371,11.02915z" fill="#517c00" stroke="none" stroke-width="0"/><path d="M304.28621,112.94705c2.275,4.97749 15.80137,32.72149 13.16977,31.82245c-2.81187,-0.96062 -21.95238,-30.66124 -24.46807,-27.68462c-1.13439,1.34223 8.10913,25.10623 6.51379,25.83538c-8.44438,3.85957 -19.99335,-3.30229 -25.79532,-15.99647c-3.25735,-7.12677 -11.56532,-17.79467 -10.10535,-23.55864c1.14052,-4.50278 11.18633,-4.72185 14.88987,-6.41458c3.2076,-1.46606 12.31107,-5.28163 15.92942,-3.86806c5.90742,2.30782 6.26779,11.99222 9.86589,19.86453z" fill="none" stroke="#000000" stroke-width="5"/></g></g><g stroke-linecap="butt"><path d="M204.59785,149.34422c-2.01073,-14.31189 14.0487,-28.39922 31.02253,-30.78394c16.97383,-2.38471 34.15972,-0.30536 36.17044,14.00653c0.4705,3.34892 2.82098,26.51261 0.637,29.16891c-2.26635,2.75648 -10.91508,-7.41906 -13.18803,-4.69638c-4.89733,5.86632 -7.45749,12.10124 -16.33792,13.34888c-5.49584,0.77213 -7.58084,-8.20035 -12.34422,-9.70397c-3.82395,-1.20708 -10.11769,6.8866 -13.5947,6.04797c-5.56865,-1.34311 -11.52806,-11.43013 -12.3651,-17.38801z" fill="#3e5f00" stroke="#000000" stroke-width="5"/><g><path d="M238.68309,175.9731l-7.78125,-55.38506l15.59148,-2.1905l7.78125,55.38506z" fill="#707070" stroke="#000000" stroke-width="0"/><path d="M237.0863,170.7744c-0.49844,-3.54778 -6.29158,-42.5138 -1.98666,-43.11861c2.87805,-0.40435 0.70714,28.3706 5.28228,41.32307c2.26823,6.42148 13.22753,0.73151 13.39273,1.90742c0.49844,3.54777 -3.68621,4.61202 -7.99112,5.21683c-4.30491,0.60481 -8.19879,-1.78093 -8.69723,-5.32869z" fill="#474747" stroke="none" stroke-width="0"/><path d="M238.74436,176.02895l-7.78125,-55.38506l15.59148,-2.1905l7.78125,55.38506z" fill="none" stroke="#000000" stroke-width="3.5"/></g><g><path d="M211.68113,141.6227l-1.10061,-7.83387l56.74859,-7.97281l1.10061,7.83387z" fill="#707070" stroke="#000000" stroke-width="0"/><path d="M222.16854,133.2439c10.4753,-1.47171 -11.14793,5.59312 -1.04822,6.09713c5.00716,0.24988 46.89621,-6.22229 46.91958,-6.05597c0.0705,0.50181 -15.39004,2.74129 -31.05868,4.94264c-15.66864,2.20134 -24.89389,3.58728 -24.96439,3.08546c-0.0705,-0.50181 -5.51692,-5.86791 10.15172,-8.06926z" fill="#474747" stroke="none" stroke-width="0"/><path d="M211.87305,141.60486l-1.10061,-7.83387l56.74859,-7.97281l1.10061,7.83387z" fill="none" stroke="#000000" stroke-width="3.5"/></g><g><path d="M215.55647,162.02212l-1.10061,-7.83387l56.74859,-7.97281l1.10061,7.83387z" fill="#707070" stroke="#000000" stroke-width="0"/><path d="M215.89214,161.71258c-0.0705,-0.50181 -5.51692,-5.86792 10.15172,-8.06927c10.47529,-1.47171 -11.14794,5.59311 -1.04822,6.09713c5.00715,0.24988 46.89621,-6.22229 46.91958,-6.05597c0.0705,0.50181 -15.39004,2.74129 -31.05868,4.94264c-15.66864,2.20134 -24.89389,3.58728 -24.96439,3.08546z" fill="#474747" stroke="none" stroke-width="0"/><path d="M215.74837,162.00428l-1.10061,-7.83387l56.74859,-7.97281l1.10061,7.83387z" fill="none" stroke="#000000" stroke-width="3.5"/></g><path d="M202.32513,110.32912c4.27699,-0.19048 13.05848,2.75359 16.74092,0.05577c3.0526,-2.23638 -12.42818,-6.00664 -11.06253,-11.05216c1.20909,-4.46713 19.14352,-10.35215 23.17895,-10.9191c20.09136,-2.82271 37.91343,5.8134 39.8067,19.28927c1.05111,7.48152 6.57567,30.51464 -0.59868,43.34516c-3.05067,5.45578 -1.50809,-4.96712 -8.08877,-3.30068c-0.62994,0.15951 6.43711,-17.62873 2.96717,-15.24658c-0.40961,0.2812 -4.29376,0.99124 -9.09598,-1.80704c-5.1317,-2.99026 -11.21715,-9.47413 -12.17631,-8.21616c-1.97041,2.58426 1.42734,9.49898 1.8372,14.9861c0.74072,9.91657 -0.13106,19.22455 -2.3106,18.634c-7.48671,-2.02851 -16.00172,-17.30882 -17.63916,-16.05444c-5.75825,4.4112 15.09122,23.22835 12.52272,23.5892c-6.76169,0.94997 -21.03029,6.10636 -26.81258,0.74247c-11.39889,-10.57411 -12.10616,-37.50947 -13.36226,-46.45009c-0.56537,-4.02415 -0.5737,-7.3879 4.09322,-7.59573z" fill="#5d9000" stroke="#000000" stroke-width="0"/><path d="M207.65963,160.41429c-0.20271,-1.44284 -11.14465,-43.84879 -8.43638,-47.81677c0.1991,-0.29172 3.35707,-1.15417 7.07433,-0.77876c4.79596,0.48434 10.56763,2.0519 12.58557,-0.67067c0.93355,-1.25954 -5.70331,-5.73068 -8.15359,-9.25343c-2.20039,-3.16348 -0.27978,-5.41933 1.00776,-6.29942c11.21294,-7.6645 28.05621,-10.68942 30.55313,-7.89281c1.10301,1.2354 -28.41123,9.54385 -28.67989,12.22003c-0.27159,2.70548 8.04327,6.0889 8.61427,9.26404c0.80819,4.49402 -21.34069,7.90657 -20.84958,12.15658c0.43116,3.73124 7.30358,37.47767 12.59142,40.36873c2.65321,1.4506 12.2656,2.81367 14.31842,-1.83727c1.39802,-3.16741 -8.16959,-15.68343 -7.50798,-19.11448c0.83948,-4.35344 5.90902,-3.05397 6.14264,-3.08679c0.30879,-0.04338 3.55495,-0.08609 4.96079,1.51947c3.52672,4.02773 7.13017,11.9567 9.3312,8.74869c1.43151,-2.08644 -2.20004,-12.9395 -1.85193,-17.65302c0.68056,-9.21505 4.45171,-13.36266 6.1114,-11.52866c0.09598,0.10606 6.86919,4.10109 13.05197,6.82278c5.33021,2.34638 10.19935,3.4212 10.23488,4.07204c0.01034,0.18946 1.94829,21.14382 1.66788,21.40108c-0.44536,0.40861 -4.31888,-1.92562 -5.68605,-5.40287c-1.05709,-2.68862 1.24245,-8.27246 0.68825,-11.02398c-0.58901,-2.9244 -4.02965,-2.95018 -5.14637,-3.41561c-6.4068,-2.67029 -14.05257,-10.04324 -15.89096,-8.24404c-2.17831,2.13186 0.92193,6.80971 0.99168,10.82977c0.15051,8.67624 0.07028,18.01645 0.14039,18.34158c0.21393,0.9921 -0.64286,3.20864 -3.20045,1.53976c-4.97382,-3.24552 -13.87439,-12.39204 -16.28602,-12.20419c-2.2231,0.17317 7.64672,14.50351 7.75399,15.26703c0.03006,0.21393 3.20313,4.0932 3.1938,4.30739c-0.1512,3.47007 -8.52685,3.23586 -15.32314,4.19069c-7.2158,1.01377 -13.48445,-1.14729 -14.00141,-4.82688z" fill="#517c00" stroke="none" stroke-width="0"/><path d="M198.23192,117.92484c-0.56537,-4.02414 -0.5737,-7.38789 4.09322,-7.59573c4.277,-0.19047 13.05848,2.75359 16.74092,0.05577c3.0526,-2.23637 -12.42818,-6.00663 -11.06253,-11.05216c1.20909,-4.46713 19.14353,-10.35215 23.17895,-10.9191c20.09136,-2.82271 37.91343,5.8134 39.8067,19.28927c1.05111,7.48152 6.57567,30.51464 -0.59868,43.34516c-3.05067,5.45578 -1.50808,-4.96712 -8.08877,-3.30068c-0.62993,0.15952 6.43712,-17.62873 2.96718,-15.24659c-0.40961,0.2812 -4.29376,0.99124 -9.09598,-1.80704c-5.1317,-2.99026 -11.21715,-9.47413 -12.17631,-8.21616c-1.97041,2.58426 1.42734,9.49898 1.8372,14.9861c0.74072,9.91657 -0.13107,19.22455 -2.31061,18.634c-7.48671,-2.02851 -16.00171,-17.30882 -17.63915,-16.05444c-5.75826,4.4112 15.09122,23.22835 12.52272,23.5892c-6.76169,0.94997 -21.03029,6.10636 -26.81258,0.74247c-11.3989,-10.57411 -12.10617,-37.50948 -13.36227,-46.45008z" fill="none" stroke="#000000" stroke-width="5"/></g><g><path d="M207.85947,59.66855c0.23379,-7.61858 -4.01296,-19.53918 4.92405,-16.8839c7.6844,2.28311 5.0508,-7.94168 10.72561,-11.13666c3.10658,-1.74904 11.58613,1.01554 15.8927,0.62414c6.8158,-0.61945 9.58881,-3.68552 12.76708,-3.58799c15.91703,0.48844 13.85815,15.58212 13.33122,32.75322c-0.52693,17.1711 -13.85738,30.69505 -29.77441,30.20661c-15.91703,-0.48844 -28.39316,-14.80433 -27.86624,-31.97542z" fill="#3e5f00" stroke="none" stroke-width="0" stroke-linecap="butt"/><path d="M208.11552,59.58008c0.23379,-7.61858 -4.01296,-19.53919 4.92405,-16.88391c7.6844,2.28311 5.0508,-7.94168 10.72561,-11.13666c3.10657,-1.74904 11.58612,1.01554 15.89269,0.62414c6.8158,-0.61944 9.58881,-3.68552 12.76708,-3.58799c15.91703,0.48844 13.85815,15.58212 13.33122,32.75322c-0.52693,17.1711 -13.85738,30.69505 -29.77441,30.20661c-15.91703,-0.48844 -28.39316,-14.80433 -27.86624,-31.97542z" fill="none" stroke="#000000" stroke-width="3" stroke-linecap="butt"/><path d="M211.85743,68.60408l0.70292,-22.90619l56.93824,1.74725l-0.70292,22.90619z" fill="#888888" stroke="#000000" stroke-width="0" stroke-linecap="butt"/><path d="M216.00586,44.88289c3.35838,0.10306 1.81723,6.14 4.00076,10.80274c1.25178,2.67306 4.07872,5.25002 6.66094,6.64353c6.75736,3.64664 22.44378,-2.37538 22.38959,-0.60963c-0.11101,3.61751 -8.56859,6.2933 -18.89054,5.97655c-4.16717,-0.12788 -10.84406,0.7623 -13.92736,-0.14113c-4.55393,-1.33435 -4.62737,-4.82541 -4.56118,-6.98247c0.11101,-3.61751 -5.99416,-16.00635 4.32779,-15.6896z" fill="#474747" stroke="none" stroke-width="0" stroke-linecap="butt"/><path d="M211.85743,68.60408l0.70292,-22.90619l56.93824,1.74725l-0.70292,22.90619z" fill="none" stroke="#000000" stroke-width="5" stroke-linecap="butt"/><g stroke-width="3.5"><path d="M263.46262,98.15395l1.1193,-36.47491l9.51835,0.29209l-1.1193,36.47491z" fill="#707070" stroke="#000000" stroke-linecap="butt"/><path d="M265.45577,68.87323c1.94676,0.05974 0.48917,13.82035 2.27928,21.52174c0.9958,4.28415 5.98835,4.12333 5.96634,4.8405c-0.06157,2.00644 -2.56755,3.55759 -5.59725,3.46462c-3.0297,-0.09297 -5.43585,-1.79488 -5.37428,-3.8013c0.06157,-2.00643 -0.30378,-26.11854 2.72592,-26.02556z" fill="#494949" stroke="none" stroke-linecap="butt"/><path d="M263.49919,98.26788l1.1193,-36.47491l9.51836,0.29209l-1.1193,36.47491z" fill="none" stroke="#000000" stroke-linecap="butt"/><path d="M272.98241,92.59523l-8.34911,-0.47439" fill="none" stroke="#000000" stroke-linecap="round"/><path d="M272.85768,84.80955l-8.42846,-0.25864" fill="none" stroke="#000000" stroke-linecap="round"/><path d="M264.78413,77.7254l8.28538,0.18153" fill="none" stroke="#000000" stroke-linecap="round"/><path d="M265.25313,71.92158l8.27646,0.47216" fill="none" stroke="#000000" stroke-linecap="round"/></g><g stroke-width="3.5"><path d="M254.74442,99.16286l1.1193,-36.47491l9.51836,0.29209l-1.1193,36.47491z" fill="#707070" stroke="#000000" stroke-linecap="butt"/><path d="M254.01167,95.90772c0.06157,-2.00644 -0.30378,-26.11854 2.72592,-26.02556c1.94676,0.05974 0.48917,13.82035 2.27928,21.52174c0.9958,4.28414 5.98835,4.12331 5.96634,4.8405c-0.06157,2.00643 -2.56756,3.55759 -5.59726,3.46462c-3.0297,-0.09297 -5.43585,-1.79488 -5.37428,-3.8013z" fill="#494949" stroke="none" stroke-linecap="butt"/><path d="M254.781,99.27679l1.1193,-36.47492l9.51836,0.29209l-1.1193,36.47492z" fill="none" stroke="#000000" stroke-linecap="butt"/><path d="M255.9151,93.12974l8.34912,0.47439" fill="none" stroke="#000000" stroke-linecap="round"/><path d="M264.13948,85.81845l-8.42846,-0.25864" fill="none" stroke="#000000" stroke-linecap="round"/><path d="M264.35131,78.91582l-8.28538,-0.18153" fill="none" stroke="#000000" stroke-linecap="round"/><path d="M256.53494,72.93049l8.27646,0.47216" fill="none" stroke="#000000" stroke-linecap="round"/></g><g stroke-width="3.5"><path d="M244.06776,105.20291l1.17223,-38.19966l9.51836,0.29209l-1.17223,38.19966z" fill="#707070" stroke="#000000" stroke-linecap="butt"/><path d="M246.10346,74.53604c1.94676,0.05974 0.46915,14.47253 2.24818,22.53516c0.98964,4.48508 5.98263,4.30943 5.95959,5.06052c-0.06448,2.1013 -2.57282,3.72937 -5.60252,3.6364c-3.0297,-0.09297 -5.43349,-1.87178 -5.36901,-3.97308c0.06448,-2.1013 -0.26593,-27.35197 2.76377,-27.25899z" fill="#494949" stroke="none" stroke-linecap="butt"/><path d="M244.10418,105.32216l1.17223,-38.19966l9.51836,0.29209l-1.17223,38.19966z" fill="none" stroke="#000000" stroke-linecap="butt"/><path d="M245.24723,98.88308l8.3488,0.4847" fill="none" stroke="#000000" stroke-linecap="round"/><path d="M245.05412,90.95582l8.42846,0.25864" fill="none" stroke="#000000" stroke-linecap="round"/><path d="M253.70443,83.98544l-8.28549,-0.17809" fill="none" stroke="#000000" stroke-linecap="round"/><path d="M254.17253,78.21115l-8.27615,-0.48247" fill="none" stroke="#000000" stroke-linecap="round"/></g><g stroke-width="3.5"><path d="M235.48052,101.944l1.1193,-36.47491l9.51836,0.29209l-1.1193,36.47491z" fill="#707070" stroke="#000000" stroke-linecap="butt"/><path d="M237.47368,72.66328c1.94676,0.05974 0.48917,13.82035 2.27928,21.52175c0.9958,4.28414 5.98835,4.12331 5.96634,4.8405c-0.06157,2.00643 -2.56755,3.55759 -5.59725,3.46462c-3.0297,-0.09297 -5.43585,-1.79488 -5.37428,-3.8013c0.06157,-2.00643 -0.30378,-26.11854 2.72592,-26.02556z" fill="#494949" stroke="none" stroke-linecap="butt"/><path d="M235.51712,102.05792l1.1193,-36.47491l9.51836,0.29209l-1.1193,36.47491z" fill="none" stroke="#000000" stroke-linecap="butt"/><path d="M245.00032,96.38527l-8.34912,-0.47439" fill="none" stroke="#000000" stroke-linecap="round"/><path d="M236.44714,88.34094l8.42846,0.25864" fill="none" stroke="#000000" stroke-linecap="round"/><path d="M245.08742,81.69697l-8.28538,-0.18153" fill="none" stroke="#000000" stroke-linecap="round"/><path d="M237.27105,75.71162l8.27646,0.47216" fill="none" stroke="#000000" stroke-linecap="round"/></g><g stroke-width="3.5"><path d="M224.93155,105.7331l1.1193,-36.47491l9.51836,0.29209l-1.1193,36.47491z" fill="#707070" stroke="#000000" stroke-linecap="butt"/><path d="M226.92471,76.45239c1.94676,0.05974 0.48917,13.82035 2.27928,21.52175c0.9958,4.28414 5.98835,4.12331 5.96634,4.8405c-0.06157,2.00643 -2.56755,3.55759 -5.59725,3.46462c-3.0297,-0.09297 -5.43585,-1.79488 -5.37428,-3.8013c0.06157,-2.00643 -0.30378,-26.11854 2.72592,-26.02556z" fill="#494949" stroke="none" stroke-linecap="butt"/><path d="M224.96813,105.84703l1.1193,-36.47491l9.51836,0.29209l-1.1193,36.47491z" fill="none" stroke="#000000" stroke-linecap="butt"/><path d="M234.45134,100.17437l-8.34912,-0.47439" fill="none" stroke="#000000" stroke-linecap="round"/><path d="M225.89815,92.13005l8.42846,0.25864" fill="none" stroke="#000000" stroke-linecap="round"/><path d="M226.25306,85.30454l8.28538,0.18153" fill="none" stroke="#000000" stroke-linecap="round"/><path d="M226.72207,79.50073l8.27646,0.47216" fill="none" stroke="#000000" stroke-linecap="round"/></g><g stroke-width="3.5"><path d="M215.75117,100.47325l1.1193,-36.47491l9.51836,0.29209l-1.1193,36.47491z" fill="#707070" stroke="#000000" stroke-linecap="butt"/><path d="M217.74433,71.19254c1.94676,0.05974 0.48917,13.82035 2.27928,21.52175c0.9958,4.28414 5.98835,4.12331 5.96634,4.8405c-0.06157,2.00643 -2.56755,3.55759 -5.59725,3.46462c-3.0297,-0.09297 -5.43585,-1.79488 -5.37428,-3.8013c0.06157,-2.00643 -0.30378,-26.11854 2.72592,-26.02556z" fill="#494949" stroke="none" stroke-linecap="butt"/><path d="M215.78775,100.58718l1.1193,-36.47491l9.51836,0.29209l-1.1193,36.47491z" fill="none" stroke="#000000" stroke-linecap="butt"/><path d="M216.92184,94.44013l8.34912,0.47439" fill="none" stroke="#000000" stroke-linecap="round"/><path d="M216.71777,86.8702l8.42846,0.25864" fill="none" stroke="#000000" stroke-linecap="round"/><path d="M217.07269,80.0447l8.28538,0.18153" fill="none" stroke="#000000" stroke-linecap="round"/><path d="M217.54169,74.24088l8.27646,0.47216" fill="none" stroke="#000000" stroke-linecap="round"/></g><g stroke-width="3.5"><path d="M207.03297,101.48217l1.1193,-36.47491l9.51836,0.29209l-1.1193,36.47491z" fill="#707070" stroke="#000000" stroke-linecap="butt"/><path d="M209.02613,72.20146c1.94676,0.05974 0.48917,13.82035 2.27928,21.52175c0.9958,4.28414 5.98835,4.12331 5.96634,4.8405c-0.06157,2.00643 -2.56755,3.55759 -5.59725,3.46462c-3.0297,-0.09297 -5.43585,-1.79488 -5.37428,-3.8013c0.06157,-2.00643 -0.30378,-26.11854 2.72592,-26.02556z" fill="#494949" stroke="none" stroke-linecap="butt"/><path d="M207.06956,101.59609l1.1193,-36.47491l9.51836,0.29209l-1.1193,36.47491z" fill="none" stroke="#000000" stroke-linecap="butt"/><path d="M208.20364,95.44905l8.34912,0.47439" fill="none" stroke="#000000" stroke-linecap="round"/><path d="M216.42804,88.13775l-8.42846,-0.25864" fill="none" stroke="#000000" stroke-linecap="round"/><path d="M216.63987,81.23513l-8.28538,-0.18153" fill="none" stroke="#000000" stroke-linecap="round"/><path d="M208.8235,75.24979l8.27646,0.47216" fill="none" stroke="#000000" stroke-linecap="round"/></g><path d="M234.78547,64.72353c8.40874,-4.40378 8.45422,-37.34139 16.96084,-37.08035c19.6566,0.6032 25.11809,13.38355 24.36837,37.81502c-0.74972,24.43147 -17.25848,23.84534 -36.91508,23.24214c-19.6566,-0.6032 -35.01746,-0.99505 -34.26773,-25.42652c0.13117,-4.27449 -0.38412,-20.22508 4.59187,-15.39717c1.78281,1.72976 1.66337,12.90601 4.46161,18.64392c3.84986,7.89433 10.68923,10.69185 12.61853,11.58813c5.44394,2.5291 3.45316,-10.90884 8.18159,-13.38518z" fill="#5d9000" stroke="#000000" stroke-width="0" stroke-linecap="butt"/><path d="M231.97236,72.23798c0.15117,-4.92616 2.42861,-6.88013 6.38665,-11.48734c1.48977,-1.73412 -0.54197,-10.22208 3.10842,-10.11006c13.34877,0.40963 24.00142,6.23826 23.79335,13.01858c-0.20807,6.78034 -11.19805,11.94481 -24.54683,11.53518c-13.34877,-0.40963 -8.94965,3.82398 -8.74158,-2.95635z" fill="#517c00" stroke="none" stroke-width="0" stroke-linecap="butt"/><path d="M208.52961,79.17916c0.09729,-3.17043 34.7179,10.61114 50.43558,1.59808c4.53991,-2.60335 14.31338,-16.99925 11.19805,-26.48552c-2.16875,-6.60392 -0.04715,-13.40143 -4.72902,-17.85743c-5.76764,-5.48938 -18.06898,-7.90522 -15.60723,-7.82967c8.64566,0.26531 20.88718,0.34887 24.05765,12.73525c1.93588,7.56308 2.03446,19.01573 0.59191,27.95075c-0.91377,5.65988 -3.37888,10.74078 -3.41161,11.80756c-0.16905,5.50902 -14.30511,9.54538 -31.57376,9.01546c-17.26866,-0.52992 -31.13062,-5.42544 -30.96156,-10.93447z" fill="#517c00" stroke="none" stroke-width="0" stroke-linecap="butt"/><path d="M234.78547,64.72353c8.40873,-4.40378 8.45422,-37.3414 16.96085,-37.08036c19.65659,0.6032 25.11809,13.38355 24.36837,37.81502c-0.74972,24.43147 -17.25848,23.84534 -36.91507,23.24214c-19.65659,-0.6032 -35.01747,-0.99505 -34.26774,-25.42652c0.13117,-4.27449 -0.38412,-20.22508 4.59187,-15.39718c1.78281,1.72976 1.66337,12.90601 4.46161,18.64392c3.84986,7.89433 10.68924,10.69184 12.61853,11.58813c5.44393,2.5291 3.45316,-10.90883 8.18159,-13.38517z" fill="none" stroke="#000000" stroke-width="5" stroke-linecap="butt"/><path d="M259.0984,43.52961c6.67439,0.20482 11.84786,8.10037 11.55526,17.63521c-0.29259,9.53484 -5.94045,17.09832 -12.61484,16.8935c-6.67439,-0.20482 -11.84786,-8.10037 -11.55526,-17.63521c0.29259,-9.53484 5.94045,-17.09832 12.61484,-16.8935z" fill="#69ff84" stroke="#000000" stroke-width="0" stroke-linecap="butt"/><path d="M259.01167,43.79812c6.67439,0.20482 11.84786,8.10037 11.55526,17.63521c-0.29259,9.53484 -5.94045,17.09832 -12.61484,16.8935c-6.67439,-0.20482 -11.84786,-8.10037 -11.55526,-17.63521c0.29259,-9.53484 5.94045,-17.09832 12.61484,-16.8935z" fill="none" stroke="#000000" stroke-width="5" stroke-linecap="butt"/><path d="M247.69837,55.83912c0.18354,-5.98094 4.39882,-10.70466 9.41509,-10.55073c4.73934,0.14544 14.3832,6.52173 14.62898,12.0564c0.01436,0.3234 1.18045,2.6094 1.17032,2.93958c-0.18354,5.98094 -15.09743,0.41087 -20.11369,0.25694c-5.01628,-0.15393 -5.28424,1.27876 -5.1007,-4.70218z" fill="#5d9000" stroke="#000000" stroke-width="0" stroke-linecap="butt"/><path d="M257.27237,45.02202c3.87005,0.11876 -8.52866,5.49216 -5.33995,9.99037c2.19946,3.10271 20.78354,5.63739 20.76134,6.36079c-0.05438,1.77215 -7.5568,-0.36761 -14.09626,-0.56828c-6.53947,-0.20068 -11.79666,-1.79997 -11.74228,-3.57211c0.05438,-1.77215 3.87769,-12.41144 10.41715,-12.21077z" fill="#517c00" stroke="none" stroke-width="0" stroke-linecap="butt"/><path d="M256.71812,45.05469c4.73934,0.14544 14.3832,6.52173 14.62898,12.0564c0.01436,0.3234 1.18045,2.6094 1.17032,2.93958c-0.18354,5.98094 -15.09742,0.41088 -20.11369,0.25695c-5.01628,-0.15393 -5.28424,1.27875 -5.1007,-4.70219c0.18354,-5.98094 4.39882,-10.70466 9.41509,-10.55073z" fill="none" stroke="#000000" stroke-width="5" stroke-linecap="butt"/><path d="M226.23784,50.44186c4.96803,0.15245 8.83945,5.35916 8.64703,11.62951c-0.19242,6.27035 -4.37579,11.22988 -9.34384,11.07742c-4.96803,-0.15245 -8.83945,-5.35916 -8.64703,-11.62951c0.19242,-6.27035 4.37579,-11.22988 9.34384,-11.07742z" fill="#000000" stroke="#000000" stroke-width="5" stroke-linecap="butt"/></g><g stroke-linecap="butt"><g><path d="M201.46299,286.45959l6.75709,-92.04951l15.99908,1.17445l-6.75709,92.04951z" fill="#7c7c7c" stroke="#000000" stroke-width="0"/><path d="M209.57087,192.73347c2.65955,0.19524 -2.31311,44.60239 -0.56427,68.10692c1.4349,19.28522 9.86809,18.27153 9.72993,20.15362c-0.30654,4.17594 -4.47999,7.27309 -9.32166,6.91768c-4.84168,-0.35541 -8.51812,-4.0288 -8.21158,-8.20474c0.30654,-4.17594 3.52591,-87.32889 8.36758,-86.97348z" fill="#4c4c4c" stroke="none" stroke-width="0"/><path d="M201.46299,286.45959l6.75709,-92.0495l15.99908,1.17444l-6.75709,92.0495z" fill="none" stroke="#000000" stroke-width="5"/></g><g><path d="M203.33166,173.01443c2.91991,-2.56221 12.77877,-2.07792 16.29399,-1.79292c4.05872,0.32907 13.57768,-2.88898 16.18463,0.95545c3.33713,4.92121 -0.83735,17.78202 -1.47057,25.59228c-1.1279,13.91161 -9.54428,24.58096 -18.79853,23.83067c-1.74834,-0.14175 -1.15799,-25.63335 -2.68194,-26.50857c-3.3796,-1.94094 -11.2509,32.50508 -13.56699,34.36658c-2.1676,1.74216 1.09261,-28.95089 1.53487,-34.40574c0.69946,-8.62729 -2.26255,-17.85464 2.50454,-22.03775z" fill="#5d9000" stroke="#000000" stroke-width="0"/><path d="M211.07149,195.9807c-3.23334,5.95273 -7.78213,33.10892 -9.57551,30.40066c-4.28846,-6.47614 -0.83862,-46.41476 2.20488,-50.94402c0.98381,-1.46409 -3.37056,23.49175 -1.14997,27.86736c2.07816,4.09495 6.34246,-13.49156 9.3945,-14.60817c5.15198,-1.88488 10.70665,25.91108 11.5559,25.97993c4.95979,0.40212 11.2173,-13.26405 10.74162,-7.39698c-0.47568,5.86707 -7.79457,13.58876 -12.75436,13.18665c-1.03264,-0.08372 -2.68079,1.18601 -3.3735,0.50575c-2.63438,-2.58704 -2.20977,-10.50307 -1.83312,-15.1486c0.06822,-0.84144 -1.90339,-15.931 -5.21043,-9.84258z" fill="#517c00" stroke="none" stroke-width="0"/><path d="M203.33166,173.01443c2.9199,-2.5622 12.77877,-2.07791 16.29399,-1.79291c4.05872,0.32906 13.57768,-2.88899 16.18462,0.95544c3.33712,4.92122 -0.83735,17.78203 -1.47057,25.59229c-1.12789,13.91161 -9.54428,24.58096 -18.79853,23.83066c-1.74834,-0.14175 -1.15799,-25.63335 -2.68194,-26.50857c-3.3796,-1.94094 -11.2509,32.50508 -13.56699,34.36658c-2.16759,1.74216 1.09262,-28.95089 1.53488,-34.40574c0.69947,-8.62729 -2.26255,-17.85464 2.50454,-22.03775z" fill="none" stroke="#000000" stroke-width="5"/></g><g><g><path d="M171.94566,305.8622l0.22693,-22.01626l47.15865,1.31313l-0.22693,22.01627z" fill="#252525" stroke="#000000" stroke-width="0"/><path d="M171.94566,305.8622l0.22693,-22.01626l47.15865,1.31313l-0.22693,22.01627z" fill="#252525" stroke="#000000" stroke-width="0"/><path d="M171.94566,305.8622l0.22693,-22.01626l47.15865,1.31313l-0.22693,22.01627z" fill="none" stroke="#000000" stroke-width="3.5"/><path d="M172.46157,285.4409c0.0165,-1.60028 0.70634,7.80578 3.5564,11.44177c2.71842,3.46805 7.52149,1.13641 10.75863,1.22655c3.14719,0.08765 16.46254,4.74233 24.23275,0.65393c4.7184,-2.48264 4.38859,-15.12453 7.13877,-14.01296c2.26329,0.91478 0.62694,21.53074 0.61929,22.27233c-0.03223,3.12666 -25.47648,0.45223 -32.10752,0.26759c-4.26161,-0.11867 -11.45538,2.80704 -14.23413,-4.14215c-1.54496,-3.86369 0.02429,-16.58983 0.0358,-17.70705z" fill="#141414" stroke="none" stroke-width="0"/><path d="M171.94566,305.8622l0.22693,-22.01626l47.15865,1.31313l-0.22693,22.01627z" fill="none" stroke="#000000" stroke-width="3.5"/></g><g><path d="M158.27919,311.57358l0.11121,-22.01626l23.11067,1.31313l-0.11121,22.01628z" fill="#252525" stroke="#000000" stroke-width="0"/><path d="M158.27919,311.57358l0.11121,-22.01626l23.11067,1.31313l-0.11121,22.01628z" fill="#6c6c6c" stroke="#000000" stroke-width="0"/><path d="M158.27919,311.57358l0.11121,-22.01626l23.11067,1.31313l-0.11121,22.01628z" fill="none" stroke="#000000" stroke-width="3.5"/><path d="M160.27488,302.59406c1.33219,3.46805 3.68599,1.13641 5.2724,1.22655c1.54232,0.08765 8.06766,4.74233 11.87555,0.65393c2.3123,-2.48263 2.15068,-15.12452 3.49844,-14.01295c1.10915,0.91478 0.30724,21.53074 0.30349,22.27233c-0.0158,3.12666 -12.48506,0.45224 -15.73468,0.26759c-2.08846,-0.11868 -5.61385,2.80703 -6.97561,-4.14216c-0.75713,-3.8637 0.01191,-16.58983 0.01755,-17.70705c0.00809,-1.60028 0.34615,7.80578 1.74286,11.44176z" fill="#545454" stroke="none" stroke-width="0"/><path d="M158.27919,311.57358l0.11121,-22.01626l23.11067,1.31313l-0.11121,22.01628z" fill="none" stroke="#000000" stroke-width="3.5"/></g><g><path d="M193.02342,313.59636l0.11121,-22.01626l23.11067,1.31313l-0.11122,22.01628z" fill="#252525" stroke="#000000" stroke-width="0"/><path d="M193.02342,313.59636l0.11121,-22.01626l23.11067,1.31313l-0.11122,22.01628z" fill="#6c6c6c" stroke="#000000" stroke-width="0"/><path d="M193.02342,313.59636l0.11121,-22.01626l23.11067,1.31313l-0.11122,22.01628z" fill="none" stroke="#000000" stroke-width="3.5"/><path d="M193.27626,293.17509c0.00808,-1.60028 0.34614,7.80578 1.74285,11.44176c1.3322,3.46805 3.68601,1.13642 5.27241,1.22655c1.54231,0.08764 8.06765,4.74232 11.87555,0.65392c2.31231,-2.48263 2.15068,-15.12452 3.49845,-14.01295c1.10915,0.91477 0.30724,21.53074 0.30349,22.27233c-0.0158,3.12666 -12.48505,0.45223 -15.73468,0.26759c-2.08846,-0.11868 -5.61386,2.80703 -6.97562,-4.14216c-0.75712,-3.8637 0.01191,-16.58983 0.01755,-17.70705z" fill="#545454" stroke="none" stroke-width="0"/><path d="M193.02342,313.59636l0.11121,-22.01626l23.11067,1.31313l-0.11122,22.01628z" fill="none" stroke="#000000" stroke-width="3.5"/></g><g><path d="M173.98549,313.47737l0.11121,-22.01626l23.11067,1.31313l-0.11121,22.01628z" fill="#252525" stroke="#000000" stroke-width="0"/><path d="M173.98549,313.47737l0.11121,-22.01626l23.11067,1.31313l-0.11121,22.01628z" fill="#6c6c6c" stroke="#000000" stroke-width="0"/><path d="M173.98549,313.47737l0.11121,-22.01626l23.11067,1.31313l-0.11121,22.01628z" fill="none" stroke="#000000" stroke-width="3.5"/><path d="M174.23832,293.05609c0.00807,-1.60028 0.34614,7.80579 1.74285,11.44177c1.33219,3.46805 3.686,1.13641 5.2724,1.22655c1.54231,0.08764 8.06765,4.74233 11.87555,0.65393c2.31231,-2.48263 2.15068,-15.12453 3.49845,-14.01296c1.10915,0.91477 0.30724,21.53074 0.30349,22.27233c-0.0158,3.12666 -12.48505,0.45223 -15.73468,0.26759c-2.08845,-0.11868 -5.61385,2.80703 -6.97561,-4.14216c-0.75712,-3.8637 0.01191,-16.58983 0.01755,-17.70705z" fill="#545454" stroke="none" stroke-width="0"/><path d="M173.98549,313.47737l0.11121,-22.01626l23.11067,1.31313l-0.11121,22.01628z" fill="none" stroke="#000000" stroke-width="3.5"/></g></g></g><g data-paper-data="{&quot;index&quot;:null}" stroke-linecap="butt"><g><path d="M258.27237,289.13333l-6.75708,-92.04951l15.99908,-1.17445l6.75709,92.04951z" fill="#7c7c7c" stroke="#000000" stroke-width="0"/><path d="M274.53114,281.20625c0.30654,4.17594 -3.3699,7.84934 -8.21157,8.20474c-4.84168,0.35541 -9.01512,-2.74174 -9.32166,-6.91768c-0.13816,-1.88208 8.29503,-0.8684 9.72993,-20.15362c1.74883,-23.50453 -3.22383,-67.91169 -0.56428,-68.10692c4.84168,-0.35541 8.06104,82.79754 8.36759,86.97348z" fill="#4c4c4c" stroke="none" stroke-width="0"/><path d="M258.27237,289.13332l-6.75708,-92.0495l15.99908,-1.17445l6.75709,92.0495z" fill="none" stroke="#000000" stroke-width="5"/></g><g><path d="M274.90731,196.55147c0.44226,5.45486 3.70247,36.1479 1.53487,34.40574c-2.31608,-1.8615 -10.18738,-36.30753 -13.56699,-34.36658c-1.52395,0.87522 -0.9336,26.36681 -2.68194,26.50857c-9.25425,0.7503 -17.67063,-9.91905 -18.79853,-23.83067c-0.63323,-7.81026 -4.8077,-20.67107 -1.47057,-25.59228c2.60694,-3.84443 12.12591,-0.62637 16.18463,-0.95545c3.51521,-0.285 13.37408,-0.76929 16.29399,1.79292c4.76709,4.18311 1.80508,13.41045 2.50454,22.03775z" fill="#5d9000" stroke="#000000" stroke-width="0"/><path d="M259.45251,207.32258c0.37664,4.64552 0.80126,12.56155 -1.83312,15.1486c-0.69271,0.68027 -2.34086,-0.58947 -3.3735,-0.50575c-4.95979,0.40212 -12.27868,-7.31958 -12.75436,-13.18665c-0.47568,-5.86707 5.78184,7.79909 10.74162,7.39698c0.84925,-0.06885 6.40392,-27.86481 11.5559,-25.97993c3.05205,1.1166 7.31634,18.70311 9.3945,14.60817c2.22059,-4.37561 -2.13378,-29.33145 -1.14997,-27.86736c3.0435,4.52926 6.49334,44.46787 2.20488,50.94402c-1.79338,2.70826 -6.34217,-24.44792 -9.57551,-30.40066c-3.30705,-6.08842 -5.27865,9.00114 -5.21043,9.84258z" fill="#517c00" stroke="none" stroke-width="0"/><path d="M274.90731,196.55147c0.44226,5.45486 3.70247,36.1479 1.53488,34.40574c-2.31608,-1.8615 -10.18738,-36.30753 -13.56699,-34.36658c-1.52395,0.87522 -0.9336,26.36681 -2.68194,26.50857c-9.25425,0.7503 -17.67064,-9.91905 -18.79853,-23.83066c-0.63323,-7.81026 -4.80769,-20.67107 -1.47057,-25.59229c2.60694,-3.84443 12.12591,-0.62637 16.18462,-0.95544c3.51521,-0.285 13.37409,-0.76929 16.29399,1.79291c4.76709,4.18311 1.80507,13.41045 2.50454,22.03775z" fill="none" stroke="#000000" stroke-width="5"/></g><g><g><path d="M256.63013,308.67463l-0.22693,-22.01627l47.15865,-1.31313l0.22693,22.01626z" fill="#252525" stroke="#000000" stroke-width="0"/><path d="M256.63013,308.67463l-0.22693,-22.01627l47.15865,-1.31313l0.22693,22.01626z" fill="#252525" stroke="#000000" stroke-width="0"/><path d="M256.63013,308.67463l-0.22693,-22.01627l47.15865,-1.31313l0.22693,22.01626z" fill="none" stroke="#000000" stroke-width="3.5"/><path d="M303.27287,286.9402c0.01151,1.11723 1.58076,13.84337 0.0358,17.70705c-2.77874,6.94919 -9.97251,4.02348 -14.23413,4.14215c-6.63104,0.18465 -32.0753,2.85907 -32.10752,-0.26759c-0.00765,-0.74159 -1.644,-21.35755 0.61929,-22.27233c2.75018,-1.11157 2.42037,11.53032 7.13877,14.01296c7.77022,4.0884 21.08556,-0.56628 24.23275,-0.65393c3.23714,-0.09014 8.0402,2.2415 10.75863,-1.22655c2.85006,-3.63599 3.5399,-13.04205 3.5564,-11.44177z" fill="#141414" stroke="none" stroke-width="0"/><path d="M256.63013,308.67463l-0.22693,-22.01627l47.15865,-1.31313l0.22693,22.01626z" fill="none" stroke="#000000" stroke-width="3.5"/></g><g><path d="M294.34457,314.38602l-0.11121,-22.01628l23.11067,-1.31313l0.11121,22.01626z" fill="#252525" stroke="#000000" stroke-width="0"/><path d="M294.34457,314.38602l-0.11121,-22.01628l23.11067,-1.31313l0.11121,22.01626z" fill="#6c6c6c" stroke="#000000" stroke-width="0"/><path d="M294.34457,314.38602l-0.11121,-22.01628l23.11067,-1.31313l0.11121,22.01626z" fill="none" stroke="#000000" stroke-width="3.5"/><path d="M317.20242,292.65159c0.00564,1.11723 0.77468,13.84336 0.01755,17.70705c-1.36175,6.94919 -4.88715,4.02348 -6.97561,4.14216c-3.24962,0.18465 -15.71888,2.85907 -15.73468,-0.26759c-0.00375,-0.74159 -0.80566,-21.35755 0.30349,-22.27233c1.34776,-1.11157 1.18613,11.53032 3.49844,14.01295c3.80789,4.0884 10.33323,-0.56628 11.87555,-0.65393c1.58641,-0.09014 3.9402,2.2415 5.2724,-1.22655c1.39671,-3.63598 1.73477,-13.04204 1.74286,-11.44176z" fill="#545454" stroke="none" stroke-width="0"/><path d="M294.34457,314.38602l-0.11121,-22.01628l23.11067,-1.31313l0.11121,22.01626z" fill="none" stroke="#000000" stroke-width="3.5"/></g><g><path d="M259.60035,316.4088l-0.11122,-22.01628l23.11067,-1.31313l0.11121,22.01626z" fill="#252525" stroke="#000000" stroke-width="0"/><path d="M259.60035,316.4088l-0.11122,-22.01628l23.11067,-1.31313l0.11121,22.01626z" fill="#6c6c6c" stroke="#000000" stroke-width="0"/><path d="M259.60035,316.4088l-0.11122,-22.01628l23.11067,-1.31313l0.11121,22.01626z" fill="none" stroke="#000000" stroke-width="3.5"/><path d="M282.45818,294.67437c0.00564,1.11723 0.77467,13.84336 0.01755,17.70705c-1.36175,6.94919 -4.88716,4.02348 -6.97562,4.14216c-3.24962,0.18465 -15.71888,2.85907 -15.73468,-0.26759c-0.00375,-0.74159 -0.80566,-21.35756 0.30349,-22.27233c1.34777,-1.11157 1.18613,11.53032 3.49845,14.01295c3.80789,4.0884 10.33323,-0.56628 11.87555,-0.65392c1.5864,-0.09014 3.9402,2.2415 5.27241,-1.22655c1.39671,-3.63598 1.73477,-13.04204 1.74285,-11.44176z" fill="#545454" stroke="none" stroke-width="0"/><path d="M259.60035,316.4088l-0.11122,-22.01628l23.11067,-1.31313l0.11121,22.01626z" fill="none" stroke="#000000" stroke-width="3.5"/></g><g><path d="M278.63828,316.28981l-0.11121,-22.01628l23.11067,-1.31313l0.11121,22.01626z" fill="#252525" stroke="#000000" stroke-width="0"/><path d="M278.63828,316.28981l-0.11121,-22.01628l23.11067,-1.31313l0.11121,22.01626z" fill="#6c6c6c" stroke="#000000" stroke-width="0"/><path d="M278.63828,316.28981l-0.11121,-22.01628l23.11067,-1.31313l0.11121,22.01626z" fill="none" stroke="#000000" stroke-width="3.5"/><path d="M301.49611,294.55538c0.00564,1.11723 0.77467,13.84336 0.01755,17.70705c-1.36175,6.94919 -4.88716,4.02348 -6.97561,4.14216c-3.24962,0.18465 -15.71888,2.85907 -15.73468,-0.26759c-0.00375,-0.74159 -0.80565,-21.35756 0.30349,-22.27233c1.34777,-1.11157 1.18613,11.53033 3.49845,14.01296c3.80789,4.0884 10.33323,-0.56629 11.87555,-0.65393c1.5864,-0.09014 3.9402,2.24151 5.2724,-1.22655c1.39671,-3.63598 1.73478,-13.04205 1.74285,-11.44177z" fill="#545454" stroke="none" stroke-width="0"/><path d="M278.63828,316.28981l-0.11121,-22.01628l23.11067,-1.31313l0.11121,22.01626z" fill="none" stroke="#000000" stroke-width="3.5"/></g></g></g></g></g></svg>