<svg version="1.1" xmlns="http://www.w3.org/2000/svg" xmlns:xlink="http://www.w3.org/1999/xlink" width="220.62459" height="320.29621" viewBox="0,0,220.62459,320.29621"><g transform="translate(-127.58333,-19.40903)"><g data-paper-data="{&quot;isPaintingLayer&quot;:true}" fill-rule="nonzero" stroke-linejoin="miter" stroke-miterlimit="10" stroke-dasharray="" stroke-dashoffset="0" style="mix-blend-mode: normal"><g data-paper-data="{&quot;index&quot;:null}"><path d="M282.59083,289.49645c0.03672,5.90447 -0.04797,9.20249 -1.28487,12.79343c-4.44555,12.90631 -16.21263,14.03249 -22.96884,14.11377c-8.63599,0.10389 -9.90398,-8.02373 -10.07265,-35.14966c-0.16867,-27.12594 -10.7169,-58.94433 -2.08091,-59.04823c3.28029,-0.03946 14.55785,-0.61532 22.06033,6.08602c1.90227,1.69914 3.98996,5.24745 5.54805,7.77172c8.47487,13.73009 8.71052,39.22301 8.79888,53.43294z" fill="#a70000" stroke="#000000" stroke-width="0" stroke-linecap="butt"/><path d="M281.99396,296.86154c0.04914,7.90295 -13.43087,19.06573 -22.48092,19.17461c-9.05004,0.10887 -10.24305,-10.87738 -10.29219,-18.78033c-0.02538,-4.08232 0.57613,-19.53716 -1.75454,-37.24921c-2.18127,-16.57669 -7.46548,-35.60637 -3.09028,-35.65901c1.1594,-0.01395 23.62806,-1.56483 24.49672,4.72293c0.48967,3.54448 -16.74476,-4.07867 -17.65451,0.91775c-3.59208,19.72787 1.78356,59.58241 6.53253,69.32457c8.56951,17.57974 24.21792,-6.51766 24.24321,-2.45132z" fill="#760000" stroke="none" stroke-width="0" stroke-linecap="butt"/><path d="M282.37663,289.49902c0.03672,5.90447 -0.04798,9.20249 -1.28488,12.79343c-4.44554,12.90631 -16.21263,14.0325 -22.96883,14.11378c-8.63599,0.10389 -9.90398,-8.02373 -10.07265,-35.14966c-0.16867,-27.12594 -10.7169,-58.94433 -2.08091,-59.04823c3.89165,-0.04683 18.72071,-1.63829 26.06934,9.81457c8.95876,13.96226 10.24527,42.57398 10.33792,57.4761z" fill="none" stroke="#000000" stroke-width="3.5" stroke-linecap="butt"/><path d="M279.1756,259.8708l-16.85317,8.4295l-12.19422,2.62014" fill="none" stroke="#000000" stroke-width="3.5" stroke-linecap="round"/></g><g><path d="M198.59016,290.38217c0.08835,-14.20993 0.02876,-39.9981 8.50363,-53.72818c1.55809,-2.52426 3.94102,-5.77732 5.84329,-7.47646c7.50249,-6.70136 18.78004,-6.1255 22.06034,-6.08604c8.63599,0.1039 -1.91224,31.9223 -2.08091,59.04823c-0.16866,27.12594 -1.43665,35.25357 -10.07264,35.14966c-6.75621,-0.08127 -18.52329,-1.20745 -22.96884,-14.11377c-1.23688,-3.59094 -1.32158,-6.88896 -1.28487,-12.79343z" fill="#a00000" stroke="#000000" stroke-width="0" stroke-linecap="butt"/><path d="M223.43022,300.1986c4.74897,-9.74217 10.1246,-49.5967 6.53253,-69.32457c-0.90975,-4.99642 -18.14418,2.62673 -17.65451,-0.91775c0.86866,-6.28776 23.33733,-4.73688 24.49672,-4.72293c4.37519,0.05264 -0.90901,19.08231 -3.09029,35.65901c-2.33067,17.71204 -1.72916,33.16689 -1.75454,37.24921c-0.04914,7.90295 -1.24215,18.8892 -10.29219,18.78033c-9.05004,-0.10887 -22.53006,-11.27166 -22.48092,-19.17461c0.02528,-4.06634 15.67369,20.03106 24.24321,2.45132z" fill="#650000" stroke="none" stroke-width="0" stroke-linecap="butt"/><path d="M198.80435,290.38475c0.09265,-14.90211 1.37916,-43.51384 10.33792,-57.4761c7.34863,-11.45286 22.17768,-9.86138 26.06933,-9.81457c8.63599,0.1039 -1.91224,31.92229 -2.08091,59.04823c-0.16867,27.12594 -1.43666,35.25355 -10.07265,35.14966c-6.75619,-0.08127 -18.52327,-1.20747 -22.96883,-14.11378c-1.23688,-3.59094 -1.32158,-6.88896 -1.28487,-12.79343z" fill="none" stroke="#000000" stroke-width="3.5" stroke-linecap="butt"/><path d="M231.05279,271.80615l-12.19422,-2.62014l-16.85318,-8.4295" fill="none" stroke="#000000" stroke-width="3.5" stroke-linecap="round"/></g><g data-paper-data="{&quot;index&quot;:null}"><path d="M321.56059,200.03742c0.05107,5.90447 -0.06674,9.20249 -1.78723,12.79343c-6.18369,12.90631 -22.55151,14.03249 -31.94929,14.11377c-12.01252,0.1039 -13.77628,-8.02373 -14.01089,-35.14966c-0.2346,-27.12593 -14.90704,-58.94433 -2.8945,-59.04823c12.01252,-0.1039 50.4073,40.16475 50.6419,67.29068z" fill="#66abff" stroke="#000000" stroke-width="0" stroke-linecap="butt"/><path d="M320.73036,207.40251c0.06834,7.90295 -18.68213,19.06573 -31.27059,19.17461c-12.58847,0.10887 -14.24792,-10.87738 -14.31628,-18.78033c-0.03531,-4.08232 0.80139,-19.53717 -2.44054,-37.24921c-3.03412,-16.57669 -10.38436,-35.60637 -4.29853,-35.65901c6.11126,-0.05286 7.35742,58.37871 18.60403,74.96526c11.92005,17.57974 33.68675,-6.51766 33.72192,-2.45132z" fill="#4e83c3" stroke="none" stroke-width="0" stroke-linecap="butt"/><path d="M321.26264,200.03999c0.05107,5.90447 -0.06674,9.20249 -1.78723,12.79343c-6.18369,12.90631 -22.55151,14.0325 -31.94927,14.11378c-12.01252,0.10389 -13.77628,-8.02373 -14.01089,-35.14966c-0.23461,-27.12594 -14.90704,-58.94433 -2.89452,-59.04823c12.01252,-0.1039 50.40731,40.16474 50.64191,67.29068z" fill="none" stroke="#000000" stroke-width="3.5" stroke-linecap="butt"/><path d="M308.18577,169.52603l-14.81822,9.31523l-16.96196,2.62014" fill="none" stroke="#000000" stroke-width="3.5" stroke-linecap="round"/></g><g><path d="M158.4394,201.2184c0.23461,-27.12594 38.62939,-67.39457 50.64191,-67.29068c12.01252,0.10389 -2.65989,31.92228 -2.8945,59.04822c-0.23461,27.12594 -1.99837,35.25355 -14.01089,35.14966c-9.39777,-0.08127 -25.76558,-1.20745 -31.94927,-14.11377c-1.72049,-3.59094 -1.8383,-6.88896 -1.78723,-12.79343z" fill="#66abff" stroke="#000000" stroke-width="0" stroke-linecap="butt"/><path d="M159.26964,208.58348c0.03517,-4.06634 21.80187,20.03108 33.72192,2.45132c11.2466,-16.58654 12.49277,-75.01811 18.60403,-74.96525c6.08582,0.05264 -1.26441,19.08231 -4.29853,35.65901c-3.24191,17.71204 -2.40523,33.1669 -2.44054,37.24921c-0.06835,7.90295 -1.72782,18.88921 -14.31628,18.78034c-12.58847,-0.10887 -31.33896,-11.27166 -31.2706,-19.17461z" fill="#4e83c3" stroke="none" stroke-width="0" stroke-linecap="butt"/><path d="M158.73736,201.22098c0.23461,-27.12594 38.62939,-67.39457 50.64191,-67.29068c12.01252,0.10389 -2.65989,31.92229 -2.8945,59.04822c-0.23461,27.12593 -1.99837,35.25355 -14.01089,35.14966c-9.39777,-0.08129 -25.76558,-1.20747 -31.94927,-14.11378c-1.72051,-3.59094 -1.83831,-6.88896 -1.78724,-12.79343z" fill="none" stroke="#000000" stroke-width="3.5" stroke-linecap="butt"/><path d="M203.5944,182.64238l-16.96195,-2.62014l-14.81822,-9.31523" fill="none" stroke="#000000" stroke-width="3.5" stroke-linecap="round"/></g><g stroke-linecap="butt"><path d="M204.64831,190.64108c0,-13.39509 -7.90938,-43.68774 6.06969,-56.72915c10.78035,-10.05725 42.60908,-4.8293 51.34493,-4.8293c20.06379,0 15.24282,37.83336 15.24282,61.55844c0,9.62791 3.92667,22.94469 -0.59731,30.10791c-6.62404,10.4884 -23.80972,12.85014 -35.73141,12.85014c-8.90502,0 -25.95332,0.93523 -32.27174,-5.35335c-7.91756,-7.88017 -4.05698,-24.40964 -4.05698,-37.6047z" fill="#66abff" stroke="#000000" stroke-width="0"/><path d="M218.67291,225.37582c9.49571,1.4219 30.39257,-9.19612 39.03797,-9.19612c11.31114,0 12.43504,-50.65835 14.32523,-70.56284c1.66574,-17.54102 4.71803,-4.99852 4.71803,-0.14818c0,3.83335 0.10728,26.31987 0.43944,46.21811c0.19212,11.50913 3.01361,20.38413 -0.67454,28.85746c-7.15884,16.44709 -32.69738,13.05485 -41.54198,13.05485c-21.27919,0 -31.44352,-7.50804 -31.44352,-17.86228c0,-6.14748 1.26298,7.56112 15.13936,9.63898z" fill="#4e83c3" stroke="none" stroke-width="0"/><path d="M203.53355,150.48785c0,-4.13464 2.24817,-10.91395 6.56865,-14.03603c6.66957,-4.81959 17.86923,-5.00723 30.18926,-5.00723c11.87603,0 24.90748,-0.64876 31.96286,3.12385c5.00505,2.67627 5.97604,8.89754 5.97604,13.26221c0,1.59014 -3.9768,-10.29772 -16.1323,-12.77372c-15.80265,-3.21891 -41.14943,2.74549 -45.62666,5.88575c-14.85714,10.42058 14.03223,59.29382 0.79101,59.29382c-20.30083,0 -13.72886,-39.23137 -13.72886,-49.74867z" fill="#4e83c3" stroke="none" stroke-width="0"/><path d="M204.94356,191.52681c0,-13.39509 -7.90938,-43.68774 6.06969,-56.72915c10.78035,-10.05725 42.60908,-4.8293 51.34493,-4.8293c20.06379,0 15.24282,37.83336 15.24282,61.55844c0,9.62791 3.92667,22.94469 -0.59731,30.10791c-6.62404,10.4884 -23.80972,12.85014 -35.73141,12.85014c-8.90502,0 -25.95332,0.93523 -32.27174,-5.35335c-7.91756,-7.88017 -4.05698,-24.40964 -4.05698,-37.6047z" fill="none" stroke="#000000" stroke-width="3.5"/><path d="M252.24887,201.41749v-63.77277h11.80977v63.77277z" data-paper-data="{&quot;index&quot;:null}" fill="#a50000" stroke="#000000" stroke-width="0"/><path d="M264.05864,181.78374c0,4.9733 -2.44543,9.00495 -5.46202,9.00495c-3.01659,0 -5.46202,-4.03166 -5.46202,-9.00495c0,-1.86629 6.28663,2.96271 7.29192,-4.29341c1.67361,-12.07998 -1.35251,-37.77891 0.53205,-37.77891c3.01659,0 3.10007,37.09902 3.10007,42.07232z" data-paper-data="{&quot;index&quot;:null}" fill="#780000" stroke="none" stroke-width="0"/><path d="M252.24887,202.59846v-63.77277h11.80977v63.77277z" data-paper-data="{&quot;index&quot;:null}" fill="none" stroke="#000000" stroke-width="3.5"/><path d="M212.68613,202.89371v-63.77277h11.80977v63.77277z" fill="#a50000" stroke="#000000" stroke-width="0"/><path d="M215.78619,141.18764c1.88457,0 -1.14156,25.69893 0.53205,37.77891c1.0053,7.25611 7.29192,2.42712 7.29192,4.29341c0,4.9733 -2.44543,9.00495 -5.46202,9.00495c-3.01659,0 -5.46202,-4.03166 -5.46202,-9.00495c0,-4.9733 0.08347,-42.07232 3.10007,-42.07232z" fill="#780000" stroke="none" stroke-width="0"/><path d="M212.68613,204.07468v-63.77277h11.80977v63.77277z" fill="none" stroke="#000000" stroke-width="3.5"/><path d="M205.00979,197.13644c0,-16.55049 15.01173,-7.52873 34.98645,-7.52873c19.97472,0 37.34841,-9.02176 37.34841,7.52873c0,7.5496 3.24889,18.93545 -2.17819,25.87544c-6.47034,8.27409 -22.53561,11.47297 -33.39875,11.47297c-8.80373,0 -24.25388,0.34616 -30.5257,-3.98599c-7.95829,-5.49704 -6.23223,-24.10644 -6.23223,-33.36242z" fill="#a50000" stroke="#000000" stroke-width="0"/><path d="M206.19074,222.52745c0,-6.27777 -7.82338,-36.16743 11.66215,-36.16743c3.76016,0 -3.64042,2.97943 -5.92322,9.47731c-3.31137,9.42564 -2.37405,23.97267 4.64181,28.53668c13.21142,8.5944 60.18266,-5.15563 60.18266,-1.84655c0,6.27777 -15.79615,11.36691 -35.2817,11.36691c-19.48554,0 -35.2817,-5.08914 -35.2817,-11.36691z" fill="#780000" stroke="none" stroke-width="0"/><path d="M205.60027,196.8412c0,-16.55049 15.01173,-7.52873 34.98645,-7.52873c19.97472,0 37.34841,-9.02176 37.34841,7.52873c0,7.5496 3.24889,18.93545 -2.17819,25.87544c-6.47034,8.27409 -22.53561,11.47297 -33.39875,11.47297c-8.80373,0 -24.25388,0.34616 -30.5257,-3.98599c-7.95829,-5.49704 -6.23223,-24.10644 -6.23223,-33.36242z" fill="none" stroke="#000000" stroke-width="3.5"/><path d="M218.29577,176.91219c5.87012,0 10.6288,4.89086 10.6288,10.92404c0,6.03318 -4.75868,10.92404 -10.6288,10.92404c-5.87012,0 -10.6288,-4.89086 -10.6288,-10.92404c0,-6.03318 4.75868,-10.92404 10.6288,-10.92404z" fill="#ffe07b" stroke="#000000" stroke-width="0"/><path d="M221.33257,178.38842c3.35435,0 6.0736,2.56817 6.0736,5.73617c0,3.168 -2.71925,5.73617 -6.0736,5.73617c-3.35435,0 -6.0736,-2.56817 -6.0736,-5.73617c0,-3.168 2.71925,-5.73617 6.0736,-5.73617z" fill="#ffecac" stroke="none" stroke-width="0"/><path d="M212.7283,179.73811c1.35776,0 -0.85174,2.76397 -1.36481,5.92978c-0.46547,2.87215 0.73398,6.1049 2.22444,7.34502c1.14523,0.95286 3.58388,2.79801 6.08758,2.55c3.70956,-0.36745 7.56194,-3.11172 7.56194,-2.1592c0,3.35435 -4.00334,6.0736 -8.94169,6.0736c-4.93836,0 -8.94169,-2.71925 -8.94169,-6.0736c0,-3.35435 -1.56413,-13.6656 3.37422,-13.6656z" fill="#d6ac23" stroke="none" stroke-width="0"/><path d="M218.63319,177.08091c5.87012,0 10.6288,4.89086 10.6288,10.92404c0,6.03318 -4.75868,10.92404 -10.6288,10.92404c-5.87012,0 -10.6288,-4.89086 -10.6288,-10.92404c0,-6.03318 4.75868,-10.92404 10.6288,-10.92404z" fill="none" stroke="#000000" stroke-width="2.5"/><g data-paper-data="{&quot;index&quot;:null}"><path d="M270.25877,188.00495c0,6.03318 -4.75868,10.92404 -10.6288,10.92404c-5.87012,0 -10.6288,-4.89086 -10.6288,-10.92404c0,-6.03318 4.75868,-10.92404 10.6288,-10.92404c5.87012,0 10.6288,4.89086 10.6288,10.92404z" fill="#ffe07b" stroke="#000000" stroke-width="0"/><path d="M262.66678,184.2933c0,3.16801 -2.71925,5.73617 -6.0736,5.73617c-3.35435,0 -6.0736,-2.56818 -6.0736,-5.73617c0,-3.16801 2.71925,-5.73617 6.0736,-5.73617c3.35435,0 6.0736,2.56818 6.0736,5.73617z" fill="#ffecac" stroke="none" stroke-width="0"/><path d="M268.57166,193.57242c0,3.35435 -4.00332,6.0736 -8.94169,6.0736c-4.93835,0 -8.94169,-2.71925 -8.94169,-6.0736c0,-0.95252 3.85238,1.79176 7.56194,2.1592c2.50371,0.24801 4.94235,-1.59714 6.08758,-2.55c1.49046,-1.24012 2.68991,-4.47287 2.22444,-7.34502c-0.51306,-3.16581 -2.72257,-5.92978 -1.36481,-5.92978c4.93835,0 3.37422,10.31124 3.37422,13.6656z" fill="#d6ac23" stroke="none" stroke-width="0"/><path d="M269.92135,188.17366c0,6.03318 -4.75868,10.92404 -10.6288,10.92404c-5.87012,0 -10.6288,-4.89086 -10.6288,-10.92404c0,-6.03318 4.75868,-10.92404 10.6288,-10.92404c5.87012,0 10.6288,4.89086 10.6288,10.92404z" fill="none" stroke="#000000" stroke-width="2.5"/></g></g><g stroke-width="3.5" stroke-linecap="butt"><path d="M218.29577,71.50997c0,0 6.56619,-12.9619 7.87434,-19.64275c1.20623,-6.16019 -0.30635,-19.00724 -0.30635,-19.00724c0,0 22.61548,-12.60341 26.23748,-11.6494c0.87365,0.23013 -0.78144,35.02641 -0.78144,35.02641l4.128,15.27298z" fill="#4a0000" stroke="#000000"/><path d="M225.17579,48.60051c0,-1.97546 15.98995,0.49634 20.25955,-4.90169c5.58992,-7.06731 0.17906,-22.05979 4.16447,-22.05979c7.02948,0 1.032,22.39969 1.032,26.96149c0,4.5618 -5.69852,8.25987 -12.72801,8.25987c-7.02948,0 -12.72802,-3.69808 -12.72802,-8.25987z" fill="#2e0000" stroke="none"/><path d="M218.63976,71.50997c0,0 6.56619,-12.9619 7.87436,-19.64275c1.20623,-6.16019 -0.30635,-19.00724 -0.30635,-19.00724c0,0 22.61548,-12.60341 26.23748,-11.6494c0.87364,0.23011 -0.78145,35.02641 -0.78145,35.02641l4.128,15.27298z" fill="none" stroke="#000000"/><path d="M190.787,92.17708c0,-12.77939 1.49591,-29.93055 9.7875,-38.61995c2.98781,-3.13117 6.77386,-5.29372 11.02422,-6.78642c8.78725,-3.08601 19.55907,-3.30894 29.36505,-3.30894c19.29237,0 38.31512,4.0754 46.71195,19.57666c3.66449,6.76498 3.46481,20.9644 3.46481,29.13865c0,13.26365 0.38607,27.56264 -8.47052,36.34734c-9.10861,9.03467 -27.65595,12.36797 -41.70625,12.36797c-12.38277,0 -28.9142,-0.78236 -37.66552,-8.0006c-10.83361,-8.93575 -12.51126,-25.83208 -12.51126,-40.71471z" fill="#66abff" stroke="none"/><path d="M241.62007,76.52912c14.6753,0 26.57199,6.08053 26.57199,13.58124c0,7.50071 -11.89669,13.58124 -26.57199,13.58124c-14.6753,0 -26.57199,-6.08053 -26.57199,-13.58124c0,-7.50071 11.89669,-13.58124 26.57199,-13.58124z" fill="#4e83c3" stroke="none"/><path d="M197.62868,125.09681c0,-5.26721 14.07844,7.94263 34.58073,9.34927c9.11268,0.62522 21.74615,1.09054 31.29741,-1.99614c6.54597,-2.11545 10.56616,-6.31976 14.42831,-6.31976c8.54698,0 12.06139,-45.78602 4.75363,-62.07532c-2.74008,-6.10778 -13.09113,-12.7596 -27.54891,-15.2115c-14.67221,-2.48826 -33.42388,-0.75696 -32.06253,-4.33963c3.00209,-7.90061 52.79109,4.6882 52.79109,7.66774c0,1.43123 9.84134,1.49809 12.68772,10.0907c4.82635,14.56971 3.38174,41.47229 0.31707,52.60126c-6.76217,24.55598 -38.20196,26.9147 -51.09131,26.9147c-22.17601,0 -40.15323,-7.46848 -40.15323,-16.6813z" fill="#4e83c3" stroke="none"/><path d="M190.787,92.1771c0,-12.77939 1.49591,-29.93055 9.7875,-38.61995c9.16488,-9.60459 25.84017,-10.09537 40.38927,-10.09537c19.29237,0 38.31512,4.0754 46.71195,19.57666c3.66449,6.76498 3.46481,20.9644 3.46481,29.13865c0,13.26365 0.38607,27.56264 -8.47052,36.34734c-9.10861,9.03467 -27.65595,12.36797 -41.70625,12.36797c-12.38277,0 -28.9142,-0.78236 -37.66552,-8.0006c-10.83361,-8.93575 -12.51126,-25.83208 -12.51126,-40.71471z" fill="none" stroke="#000000"/><path d="M242.06294,114.9109c21.11613,0 41.18658,-14.83792 41.18658,-5.46202c0,9.3759 -20.36569,30.55779 -41.48183,30.55779c-21.11613,0 -42.07232,-21.47714 -42.07232,-30.85303c0,-9.3759 21.25143,5.75726 42.36756,5.75726z" fill="#00f3ff" stroke="#000000"/><path d="M220.95297,74.16717c6.52235,0 12.40026,14.6648 12.40026,20.37186c0,5.70706 -6.76365,5.60964 -13.28599,5.60964c-6.52235,0 -13.87648,-1.08356 -13.87648,-6.79062c0,-5.70706 8.23987,-19.19088 14.76222,-19.19088z" fill="#00f3ff" stroke="#000000"/><path d="M277.93512,93.65331c0,5.70706 -7.35412,6.79062 -13.87648,6.79062c-6.52235,0 -13.28599,0.09742 -13.28599,-5.60964c0,-5.70706 5.87791,-20.37186 12.40026,-20.37186c6.52236,0 14.76222,13.48382 14.76222,19.19088z" data-paper-data="{&quot;index&quot;:null}" fill="#00f3ff" stroke="#000000"/><path d="M241.1772,98.08197c4.64718,0 8.70971,6.99759 8.70971,8.70971c0,1.71212 -3.76728,3.10007 -8.41446,3.10007c-4.64718,0 -8.41446,-1.38794 -8.41446,-3.10007c0,-1.71212 3.47204,-8.70971 8.11922,-8.70971z" fill="#00f3ff" stroke="#000000"/></g><g stroke-linecap="butt"><path d="M273.1434,296.03054c16.98027,0 30.74549,9.38516 30.74549,20.96235c0,4.79368 5.28812,10.09729 1.31705,13.62868c-5.61944,4.99727 -22.11316,7.33367 -32.06254,7.33367c-7.60323,0 -23.12775,0.48027 -28.49462,-2.63735c-6.61894,-3.84494 -2.25087,-11.93171 -2.25087,-18.325c0,-11.57719 13.76522,-20.96235 30.74549,-20.96235z" fill="#66abff" stroke="#000000" stroke-width="0"/><path d="M239.03273,327.62169c0,-1.07245 5.75438,-24.70225 10.4099,-24.30127c5.9164,0.50959 -5.42695,18.2559 2.39678,24.5304c8.17493,6.55615 35.50719,1.59019 41.03196,-0.8762c9.06586,-4.04722 -6.32309,-26.51542 0.46311,-26.51542c5.57687,0 7.8223,7.91881 9.53227,10.88279c3.80734,6.59944 1.32808,12.00384 1.32808,16.27969c0,6.19625 -14.58703,11.21928 -32.58105,11.21928c-17.99402,0 -32.58105,-5.02304 -32.58105,-11.21928z" fill="#4e83c3" stroke="none" stroke-width="0"/><path d="M273.1434,296.03054c16.98027,0 30.74549,9.38517 30.74549,20.96235c0,4.79367 5.28812,10.09726 1.31705,13.62867c-5.61944,4.99727 -22.11316,7.33368 -32.06254,7.33368c-7.60321,0 -23.12774,0.48027 -28.49461,-2.63735c-6.61895,-3.84494 -2.25088,-11.93171 -2.25088,-18.325c0,-11.57718 13.76522,-20.96235 30.74549,-20.96235z" fill="none" stroke="#000000" stroke-width="3.5"/></g><g data-paper-data="{&quot;index&quot;:null}" stroke-linecap="butt"><path d="M233.64116,312.85946c0,6.39329 4.36807,14.48006 -2.25088,18.325c-5.36687,3.11761 -20.89139,2.63735 -28.49461,2.63735c-9.94937,0 -26.4431,-2.3364 -32.06254,-7.33367c-3.97107,-3.53139 1.31705,-8.835 1.31705,-13.62868c0,-11.57719 13.76522,-20.96235 30.74549,-20.96235c16.98027,0 30.74549,9.38516 30.74549,20.96235z" fill="#66abff" stroke="#000000" stroke-width="0"/><path d="M237.00633,323.48826c0,6.19625 -14.58703,11.21928 -32.58104,11.21928c-17.99401,0 -32.58105,-5.02304 -32.58105,-11.21928c0,-4.27585 -2.47926,-9.68025 1.32808,-16.27968c1.70997,-2.96398 3.95541,-10.8828 9.53227,-10.8828c6.7862,0 -8.60276,22.4682 0.4631,26.51541c5.52477,2.4664 32.85703,7.43235 41.03197,0.8762c7.82373,-6.2745 -3.51962,-24.02081 2.39677,-24.5304c4.65552,-0.40099 10.4099,23.22882 10.4099,24.30127z" fill="#4e83c3" stroke="none" stroke-width="0"/><path d="M233.64116,312.85946c0,6.39329 4.36807,14.48006 -2.25088,18.325c-5.36686,3.11761 -20.89139,2.63735 -28.49461,2.63735c-9.94938,0 -26.4431,-2.3364 -32.06254,-7.33367c-3.97107,-3.53139 1.31705,-8.835 1.31705,-13.62868c0,-11.57719 13.76522,-20.96235 30.74549,-20.96235c16.98027,0 30.74549,9.38516 30.74549,20.96235z" fill="none" stroke="#000000" stroke-width="3.5"/></g><g><g><path d="M329.92323,249.5464c1.8279,-9.48715 -14.75893,-17.24779 -10.11626,-16.35329c2.16987,0.41807 9.01907,-9.39499 15.05921,-6.16447c6.88332,3.6815 12.84317,20.70396 11.8696,25.75705c-1.82788,9.48718 -7.0733,16.45292 -11.71596,15.55841c-4.64269,-0.89449 -6.92449,-9.31048 -5.09661,-18.79767z" fill="#66abff" stroke="#000000" stroke-width="0" stroke-linecap="butt"/><path d="M330.10806,258.31834c0.29599,-1.53636 1.71116,-7.77917 -0.58706,-13.67811c-1.42914,-3.66824 -6.25745,-6.67693 -7.70531,-9.94173c-2.0099,-4.53211 3.32535,-6.25141 4.28831,-6.06587c2.62413,0.50559 17.23036,28.61446 16.47198,32.55064c-0.75838,3.93618 -3.50043,6.71722 -6.12455,6.21162c-2.6241,-0.5056 -6.95879,-3.96384 -6.20041,-7.90003z" fill="#4e83c3" stroke="none" stroke-width="0" stroke-linecap="butt"/><path d="M329.54066,249.32857c1.8279,-9.48715 -14.7589,-17.24777 -10.11624,-16.35327c2.16986,0.41807 9.01906,-9.395 15.05919,-6.16448c6.88334,3.68151 12.84318,20.70397 11.8696,25.75706c-1.82787,9.48716 -7.07329,16.4529 -11.71596,15.55841c-4.64266,-0.89449 -6.92447,-9.31051 -5.09659,-18.79768z" fill="none" stroke="#000000" stroke-width="3.5" stroke-linecap="butt"/><path d="M344.09405,242.65216l-13.32871,4.25501" fill="none" stroke="#000000" stroke-width="3.5" stroke-linecap="round"/></g><path d="M322.369,219.29465c3.28586,12.31431 -3.14757,24.72446 -14.36949,27.71883c-11.22191,2.99439 -22.9828,-4.56092 -26.26867,-16.87524c-3.28586,-12.31431 3.14758,-24.72446 14.36949,-27.71883c11.22191,-2.99439 22.98279,4.56093 26.26866,16.87524z" fill="#66abff" stroke="#000000" stroke-width="0" stroke-linecap="butt"/><path d="M322.86697,228.15756c1.85493,6.95163 -4.69195,14.73519 -14.62285,17.38509c-9.9309,2.6499 -19.48519,-0.83736 -21.34012,-7.78897c-1.24852,-4.67907 16.51834,9.79745 23.81618,1.30422c1.72546,-2.00808 5.46925,-11.43578 4.43332,-19.40307c-1.09211,-8.39943 -8.24824,-13.2784 -6.58211,-13.72298c9.9309,-2.6499 12.44065,15.27409 14.29557,22.22572z" fill="#4e83c3" stroke="none" stroke-width="0" stroke-linecap="butt"/><g data-paper-data="{&quot;index&quot;:null}"><path d="M276.61757,252.92087c0.52497,9.64741 -2.8766,17.6764 -7.59769,17.93329c-4.72106,0.25691 -8.97382,-7.35557 -9.49879,-17.00297c-0.27961,-5.13842 7.93272,-21.19586 15.25155,-23.91031c6.4223,-2.38193 11.87806,8.269 14.08458,8.14893c4.72107,-0.25691 -12.76465,5.18366 -12.23966,14.83102z" fill="#66abff" stroke="#000000" stroke-width="0" stroke-linecap="butt"/><path d="M274.94423,262.73305c0.21781,4.00265 -4.54566,6.84138 -7.21407,6.9866c-2.66843,0.14522 -5.00819,-2.98185 -5.22599,-6.9845c-0.21781,-4.00265 18.06392,-29.87211 20.73236,-30.01732c0.97922,-0.0533 6.03216,2.37336 3.42646,6.59119c-1.87705,3.0384 -7.06865,5.36481 -8.98184,8.80546c-3.07664,5.53295 -2.52079,11.90998 -2.43579,13.47228z" fill="#4e83c3" stroke="none" stroke-width="0" stroke-linecap="butt"/><path d="M277.02613,252.75691c0.52497,9.64738 -2.87662,17.6764 -7.59768,17.9333c-4.72106,0.25689 -8.97382,-7.3556 -9.49878,-17.00296c-0.27961,-5.13843 7.9327,-21.19588 15.25155,-23.91033c6.4223,-2.38193 11.87806,8.26902 14.08456,8.14895c4.72106,-0.2569 -12.76463,5.18366 -12.23964,14.83102z" fill="none" stroke="#000000" stroke-width="3.5" stroke-linecap="butt"/><path d="M263.5121,244.1693l12.62888,6.02252" fill="none" stroke="#000000" stroke-width="3.5" stroke-linecap="round"/></g><path d="M322.72267,220.44332c3.28588,12.31431 -3.14756,24.72446 -14.36948,27.71883c-11.22192,2.99439 -22.98279,-4.56092 -26.26866,-16.87524c-3.28586,-12.31431 3.14757,-24.72446 14.36949,-27.71883c11.22192,-2.99439 22.98278,4.56092 26.26864,16.87524z" fill="none" stroke="#000000" stroke-width="3.5" stroke-linecap="butt"/><g><path d="M313.82287,254.78216c3.87245,-8.85163 -10.59793,-20.07476 -6.26626,-18.17973c2.02452,0.88569 10.86675,-7.17797 16.0471,-2.6965c5.9035,5.10708 7.96802,23.02416 5.90548,27.73875c-3.87243,8.85167 -10.52318,14.49113 -14.85484,12.5961c-4.3317,-1.89502 -4.70395,-10.6069 -0.8315,-19.45858z" fill="#66abff" stroke="#000000" stroke-width="0" stroke-linecap="butt"/><path d="M312.07124,263.37942c0.62709,-1.43345 3.38241,-7.2113 2.43979,-13.47155c-0.58616,-3.89292 -4.63329,-7.89111 -5.32657,-11.39462c-0.9624,-4.86349 4.62049,-5.36555 5.51895,-4.97248c2.44834,1.07111 10.5053,31.70665 8.89864,35.37915c-1.60665,3.67251 -4.89387,5.78136 -7.3422,4.71025c-2.44832,-1.07111 -5.91493,-5.39911 -4.30828,-9.07162z" fill="#4e83c3" stroke="none" stroke-width="0" stroke-linecap="butt"/><path d="M313.49767,254.48542c3.87245,-8.85163 -10.5979,-20.07474 -6.26624,-18.17972c2.0245,0.88569 10.86674,-7.17798 16.04708,-2.69652c5.90351,5.10709 7.96803,23.02416 5.90548,27.73876c-3.87242,8.85164 -10.52317,14.49111 -14.85484,12.5961c-4.33166,-1.89502 -4.70392,-10.60693 -0.83149,-19.45858z" fill="none" stroke="#000000" stroke-width="3.5" stroke-linecap="butt"/><path d="M329.16411,251.17815l-13.93855,1.21505" fill="none" stroke="#000000" stroke-width="3.5" stroke-linecap="round"/></g><g><path d="M292.62085,259.43069c4.65765,-8.46484 -8.73762,-20.95152 -4.59523,-18.67224c1.93605,1.06528 11.47178,-6.16504 16.22528,-1.23313c5.41707,5.6204 5.85158,23.65079 3.37082,28.15937c-4.65764,8.46488 -11.79147,13.47928 -15.93385,11.2c-4.14241,-2.27927 -3.7247,-10.98909 0.93295,-19.45398z" fill="#66abff" stroke="#000000" stroke-width="0" stroke-linecap="butt"/><path d="M290.09834,267.83415c0.75425,-1.37081 4.02117,-6.8756 3.64899,-13.19547c-0.23143,-3.92999 -3.90012,-8.27806 -4.27347,-11.82993c-0.5183,-4.93063 5.08713,-4.92537 5.94632,-4.4526c2.34136,1.28829 7.59266,32.52729 5.66022,36.03932c-1.93243,3.51203 -5.39701,5.31472 -7.73836,4.02643c-2.34133,-1.28829 -5.40203,-5.91227 -3.4696,-9.4243z" fill="#4e83c3" stroke="none" stroke-width="0" stroke-linecap="butt"/><path d="M292.32383,259.10574c4.65765,-8.46484 -8.73759,-20.95149 -4.59521,-18.67222c1.93604,1.06528 11.47177,-6.16506 16.22527,-1.23315c5.41708,5.62041 5.85159,23.6508 3.37081,28.15939c-4.65762,8.46485 -11.79146,13.47927 -15.93385,11.2c-4.14238,-2.27927 -3.72467,-10.98912 0.93297,-19.45398z" fill="none" stroke="#000000" stroke-width="3.5" stroke-linecap="butt"/><path d="M308.2253,257.2299l-13.99131,-0.05141" fill="none" stroke="#000000" stroke-width="3.5" stroke-linecap="round"/></g></g><g data-paper-data="{&quot;index&quot;:null}"><g><path d="M145.76333,245.93258c1.82788,9.48719 -0.45392,17.90319 -5.09661,18.79767c-4.64266,0.8945 -9.88808,-6.07123 -11.71596,-15.55841c-0.97357,-5.05308 4.98628,-22.07554 11.8696,-25.75704c6.04014,-3.23052 12.88934,6.58254 15.05921,6.16447c4.64267,-0.8945 -11.94416,6.86614 -10.11626,16.35329z" fill="#66abff" stroke="#000000" stroke-width="0" stroke-linecap="butt"/><path d="M145.43552,255.88103c0.75838,3.93618 -3.57631,7.39442 -6.20041,7.90003c-2.62412,0.50559 -5.36617,-2.27544 -6.12455,-6.21162c-0.75838,-3.93618 13.84785,-32.04505 16.47197,-32.55064c0.96296,-0.18554 6.29821,1.53376 4.28831,6.06587c-1.44786,3.26479 -6.27618,6.27348 -7.70531,9.94172c-2.29822,5.89894 -0.88306,12.14176 -0.58706,13.67811z" fill="#4e83c3" stroke="none" stroke-width="0" stroke-linecap="butt"/><path d="M146.14588,245.71476c1.82788,9.48717 -0.45394,17.90318 -5.09659,18.79767c-4.64267,0.89449 -9.88808,-6.07125 -11.71596,-15.55841c-0.97357,-5.05309 4.98627,-22.07555 11.8696,-25.75706c6.04014,-3.23052 12.88933,6.58255 15.05919,6.16448c4.64265,-0.8945 -11.94414,6.86613 -10.11624,16.35327z" fill="none" stroke="#000000" stroke-width="3.5" stroke-linecap="butt"/><path d="M131.59249,239.03832l13.32871,4.25501" fill="none" stroke="#000000" stroke-width="3.5" stroke-linecap="round"/></g><path d="M153.31755,215.6808c3.28587,-12.31431 15.04675,-19.86963 26.26866,-16.87524c11.22191,2.99436 17.65536,15.40452 14.36949,27.71883c-3.28587,12.31432 -15.04676,19.86963 -26.26867,16.87524c-11.22192,-2.99437 -17.65536,-15.40452 -14.3695,-27.71883z" fill="#66abff" stroke="#000000" stroke-width="0" stroke-linecap="butt"/><path d="M152.81958,224.54373c1.85492,-6.95163 4.36467,-24.87562 14.29557,-22.22572c1.66613,0.44458 -5.49,5.32355 -6.58211,13.72298c-1.03593,7.96729 2.70786,17.39499 4.43332,19.40307c7.29784,8.49323 25.06471,-5.98329 23.81618,-1.30422c-1.85493,6.95162 -11.40922,10.43887 -21.34012,7.78897c-9.9309,-2.6499 -16.47778,-10.43346 -14.62285,-17.38509z" fill="#4e83c3" stroke="none" stroke-width="0" stroke-linecap="butt"/><g data-paper-data="{&quot;index&quot;:null}"><path d="M199.06898,249.30699c0.52499,-9.64736 -16.96073,-15.08793 -12.23966,-14.83102c2.20651,0.12007 7.66227,-10.53086 14.08457,-8.14893c7.31883,2.71445 15.53116,18.7719 15.25155,23.91031c-0.52496,9.64739 -4.77772,17.25987 -9.49878,17.00297c-4.72109,-0.25689 -8.12266,-8.28588 -7.59769,-17.93328z" fill="#66abff" stroke="#000000" stroke-width="0" stroke-linecap="butt"/><path d="M200.44119,257.97291c0.085,-1.56229 0.64085,-7.93933 -2.43579,-13.47228c-1.91319,-3.44066 -7.10479,-5.76707 -8.98184,-8.80546c-2.6057,-4.21783 2.44724,-6.64449 3.42646,-6.59118c2.66844,0.14521 20.95016,26.01467 20.73235,30.01732c-0.2178,4.00265 -2.55756,7.12972 -5.22599,6.98451c-2.66841,-0.14522 -7.43188,-2.98396 -7.21407,-6.98661z" fill="#4e83c3" stroke="none" stroke-width="0" stroke-linecap="butt"/><path d="M198.66041,249.14303c0.52499,-9.64736 -16.96071,-15.08792 -12.23964,-14.83102c2.2065,0.12008 7.66226,-10.53088 14.08456,-8.14894c7.31885,2.71446 15.53116,18.7719 15.25155,23.91033c-0.52497,9.64737 -4.77772,17.25986 -9.49878,17.00297c-4.72106,-0.2569 -8.12265,-8.28592 -7.59768,-17.9333z" fill="none" stroke="#000000" stroke-width="3.5" stroke-linecap="butt"/><path d="M212.17444,240.55545l-12.62888,6.02251" fill="none" stroke="#000000" stroke-width="3.5" stroke-linecap="round"/></g><path d="M179.23251,199.95423c11.22192,2.99436 17.65536,15.40451 14.36949,27.71882c-3.28587,12.31432 -15.04673,19.86962 -26.26865,16.87523c-11.22192,-2.99436 -17.65535,-15.40451 -14.36948,-27.71882c3.28587,-12.31432 15.04672,-19.86963 26.26864,-16.87524z" fill="none" stroke="#000000" stroke-width="3.5" stroke-linecap="butt"/><g><path d="M161.86369,251.16833c3.87245,8.85168 3.50019,17.56356 -0.83151,19.45859c-4.33166,1.89503 -10.9824,-3.74442 -14.85484,-12.59609c-2.06254,-4.7146 0.00198,-22.63167 5.90548,-27.73875c5.18034,-4.48146 14.02258,3.58219 16.04709,2.6965c4.33167,-1.89503 -10.1387,9.3281 -6.26626,18.17973z" fill="#66abff" stroke="#000000" stroke-width="0" stroke-linecap="butt"/><path d="M163.73496,260.9447c1.60665,3.67251 -1.85997,8.0005 -4.30828,9.07161c-2.44833,1.07111 -5.73555,-1.03773 -7.3422,-4.71024c-1.60665,-3.67251 6.45029,-34.30804 8.89864,-35.37915c0.89845,-0.39307 6.48136,0.10899 5.51895,4.97248c-0.69328,3.5035 -4.74041,7.5017 -5.32657,11.39462c-0.94262,6.26025 1.8127,12.03811 2.43979,13.47155z" fill="#4e83c3" stroke="none" stroke-width="0" stroke-linecap="butt"/><path d="M162.18888,250.87161c3.87243,8.85165 3.50017,17.56356 -0.83149,19.45859c-4.33167,1.89502 -10.98242,-3.74445 -14.85484,-12.59609c-2.06255,-4.71461 0.00196,-22.63167 5.90548,-27.73876c5.18034,-4.48146 14.02258,3.5822 16.04708,2.69651c4.33166,-1.89502 -10.13869,9.32809 -6.26624,18.17972z" fill="none" stroke="#000000" stroke-width="3.5" stroke-linecap="butt"/><path d="M146.52243,247.5643l13.93855,1.21505" fill="none" stroke="#000000" stroke-width="3.5" stroke-linecap="round"/></g><g><path d="M183.06572,255.81687c4.65765,8.46489 5.07537,17.17471 0.93295,19.45398c-4.14238,2.27928 -11.27621,-2.73513 -15.93385,-11.20001c-2.48076,-4.50858 -2.04626,-22.53897 3.37082,-28.15937c4.7535,-4.93191 14.28923,2.29842 16.22528,1.23314c4.14239,-2.27928 -9.25287,10.20739 -4.59522,18.67224z" fill="#66abff" stroke="#000000" stroke-width="0" stroke-linecap="butt"/><path d="M185.81409,265.38376c1.93243,3.51203 -1.12827,8.136 -3.4696,9.42429c-2.34134,1.2883 -5.80593,-0.5144 -7.73836,-4.02643c-1.93243,-3.51203 3.31887,-34.75102 5.66023,-36.03931c0.85919,-0.47277 6.46462,-0.47803 5.94632,4.4526c-0.37335,3.55187 -4.04203,7.89993 -4.27347,11.82992c-0.37219,6.31987 2.89474,11.82466 3.64898,13.19547z" fill="#4e83c3" stroke="none" stroke-width="0" stroke-linecap="butt"/><path d="M183.36272,255.49193c4.65764,8.46486 5.07535,17.17471 0.93297,19.45398c-4.14239,2.27927 -11.27623,-2.73515 -15.93385,-11.20001c-2.48077,-4.50859 -2.04627,-22.53898 3.37081,-28.15939c4.7535,-4.93191 14.28924,2.29844 16.22528,1.23316c4.14238,-2.27927 -9.25286,10.20738 -4.59521,18.67222z" fill="none" stroke="#000000" stroke-width="3.5" stroke-linecap="butt"/><path d="M167.46124,253.61605l13.99131,-0.05141" fill="none" stroke="#000000" stroke-width="3.5" stroke-linecap="round"/></g></g></g></g></svg>