<svg version="1.1" xmlns="http://www.w3.org/2000/svg" xmlns:xlink="http://www.w3.org/1999/xlink" width="473.95082" height="702.31581" viewBox="0,0,473.95082,702.31581"><g transform="translate(134.95862,37.71156)"><g data-paper-data="{&quot;isPaintingLayer&quot;:true}" fill-rule="nonzero" stroke-width="4.5" stroke-linejoin="miter" stroke-miterlimit="10" stroke-dasharray="" stroke-dashoffset="0" style="mix-blend-mode: normal"><g><path d="M222.24781,377.5756l-59.85919,-152.73637l42.15575,-18.10155l59.85919,152.73637z" data-paper-data="{&quot;index&quot;:null}" fill="#1b1b1b" stroke="#000000" stroke-linecap="butt"/><g data-paper-data="{&quot;index&quot;:null}"><g stroke-linecap="butt"><path d="M264.67683,340.98678c1.73743,16.34505 -9.99273,48.90697 -24.92549,50.49427c-14.93274,1.5873 -69.16778,-139.13108 -70.9052,-155.47611c-1.11584,-10.49742 -4.42204,-21.37631 2.54789,-27.43072c3.88261,-3.37263 16.00197,-4.47079 21.34434,-5.03866c7.74984,-0.82378 3.19838,57.32786 19.55538,91.2141c15.16039,31.40727 51.54738,38.37492 52.3831,46.23713z" fill="#840000" stroke="#000000"/><path d="M264.92692,334.5804c2.7485,25.85683 -10.07525,48.41796 -25.64471,50.07295c-15.5695,1.65499 -66.9922,-121.56739 -69.74071,-147.42425c-1.81341,-17.05982 24.36379,55.11996 47.68741,97.80875c12.02706,22.01283 24.19071,27.63428 29.48779,27.07121c15.5695,-1.65499 15.46172,-53.3855 18.21022,-27.52863z" fill="#430000" stroke="none"/><path d="M264.5424,339.7214c1.73743,16.34505 -9.99273,48.90697 -24.92549,50.49427c-14.93272,1.5873 -69.16778,-139.13108 -70.9052,-155.47611c-0.941,-8.85256 -15.29779,-21.07653 -10.24642,-27.09828c4.2753,-5.09658 27.29354,-4.64348 34.13862,-5.37109c8.18933,-0.8705 4.33297,59.47426 21.3025,95.32081c13.97326,29.51722 49.85139,34.74926 50.63598,42.13042z" fill="none" stroke="#000000"/></g><path d="M213.41268,293.78722l-15.42011,13.02654" fill="none" stroke="#000000" stroke-linecap="round"/></g></g><g><g stroke-linecap="butt"><path d="M54.62807,192.60605c8.14155,2.35854 23.75895,8.44168 27.53453,15.25883c3.72021,6.71714 -4.32443,14.1272 -6.61149,22.02204c-4.60818,15.90721 -87.48475,144.69527 -103.64841,140.0128c-16.16366,-4.68247 -23.69354,-39.52851 -19.08536,-55.4357c4.60818,-15.90721 85.64708,-126.54046 101.81071,-121.858z" fill="#840000" stroke="#000000"/><path d="M-30.91232,339.21864c5.73373,1.66101 20.04097,-1.4067 36.90267,-20.81716c32.69926,-37.64203 73.40361,-104.04344 68.59392,-87.44063c-7.28985,25.16419 -84.89409,139.56747 -101.747,134.68533c-16.8529,-4.88214 -26.52772,-32.44618 -19.23787,-57.61037c7.28985,-25.16419 -1.36463,26.30068 15.48826,31.18281z" fill="#430000" stroke="none"/><path d="M54.98479,191.37459c7.58737,2.198 25.15787,7.05573 29.00764,13.22268c4.35154,6.97071 -5.63957,15.61794 -8.08463,24.05815c-4.60818,15.90721 -87.48475,144.69527 -103.64841,140.0128c-16.16366,-4.68247 -23.69354,-39.52851 -19.08536,-55.4357c4.60818,-15.90721 85.64708,-126.54046 101.81071,-121.858z" fill="none" stroke="#000000"/></g><path d="M31.80698,294.30692l-34.6981,-47.81027" fill="none" stroke="#000000" stroke-linecap="round"/></g><g><path d="M-77.25685,356.42081c5.25152,-19.68093 24.04796,-31.75596 41.983,-26.97028c17.93504,4.78565 28.21708,24.61977 22.96556,44.3007c-5.25152,19.68095 -24.04799,31.75596 -41.98302,26.97028c-17.93506,-4.78565 -28.21708,-24.61977 -22.96556,-44.3007z" fill="#840000" stroke="#000000" stroke-linecap="butt"/><path d="M-78.05274,370.58571c2.96455,-11.11021 4.94168,-43.01104 20.81341,-38.77593c2.66285,0.71053 -6.74021,11.76259 -8.48563,25.18669c-1.65563,12.73344 4.32777,27.80096 7.08542,31.01032c11.66354,13.57403 40.05884,-9.56258 38.06341,-2.08442c-2.96458,11.11018 -18.2344,16.68358 -34.10613,12.44847c-15.87173,-4.23511 -26.33506,-16.67494 -23.37048,-27.78515z" fill="#430000" stroke="none" stroke-linecap="butt"/><path d="M-35.83911,331.28628c17.93506,4.78565 28.21708,24.61977 22.96556,44.3007c-5.25152,19.68095 -24.04794,31.75596 -41.983,26.97028c-17.93506,-4.78565 -28.21708,-24.61977 -22.96556,-44.3007c5.25152,-19.68095 24.04794,-31.75596 41.983,-26.97028z" fill="none" stroke="#000000" stroke-linecap="butt"/><g><path d="M-15.01439,411.57561c3.98099,-14.91941 -21.5899,-29.15708 -14.28889,-27.20894c3.41233,0.91051 15.43521,-13.9638 24.70144,-8.1343c10.55977,6.6433 18.14702,34.45168 16.02666,42.3981c-3.98099,14.91943 -13.12683,25.43471 -20.42784,23.48657c-7.30101,-1.94814 -9.9924,-15.62199 -6.01141,-30.54143z" fill="#840000" stroke="#000000" stroke-linecap="butt"/><path d="M-26.27015,386.99247c-2.69463,-7.45136 6.00448,-9.59239 7.51882,-9.18832c4.12666,1.10113 24.25175,47.55639 22.60006,53.74636c-1.65169,6.18997 -6.33597,10.31529 -10.46261,9.21416c-4.12664,-1.10113 -7.32275,-6.41685 -5.67106,-12.60682c1.04557,-3.91847 -8.92257,-27.16571 -13.98522,-41.1654z" fill="#430000" stroke="none" stroke-linecap="butt"/><path d="M-29.88866,383.97634c3.41233,0.91051 15.43521,-13.9638 24.70144,-8.1343c10.55977,6.6433 18.14702,34.45168 16.02666,42.3981c-3.98099,14.91941 -13.12685,25.43471 -20.42784,23.48657c-7.30099,-1.94814 -9.99237,-15.62202 -6.01138,-30.54143c3.98099,-14.91941 -21.58987,-29.15708 -14.28889,-27.20894z" fill="none" stroke="#000000" stroke-linecap="butt"/><path d="M-13.37506,407.46259l21.72788,-5.28469" fill="none" stroke="#000000" stroke-linecap="round"/></g><g data-paper-data="{&quot;index&quot;:null}"><path d="M-93.8784,401.19398c0.8888,15.41584 -4.50621,28.26542 -12.05015,28.70034c-7.54392,0.43495 -14.37998,-11.70943 -15.26877,-27.12527c-0.4734,-8.21082 12.56874,-33.91635 24.25175,-38.29238c10.25187,-3.83995 19.02628,13.15432 22.55213,12.95103c7.54392,-0.43495 -20.3738,8.35044 -19.48498,23.76623z" fill="#840000" stroke="#000000" stroke-linecap="butt"/><path d="M-99.89755,416.8845c0.36876,6.39593 -3.83418,10.95744 -8.09812,11.20329c-4.26394,0.24585 -8.01951,-4.73978 -8.38827,-11.13571c-0.36876,-6.39593 28.71573,-47.83506 32.9797,-48.08091c1.56471,-0.09022 9.6529,3.76199 5.51022,10.51639c-7.78325,12.69026 -22.23698,33.44809 -22.00356,37.49694z" fill="#430000" stroke="none" stroke-linecap="butt"/><path d="M-93.22634,400.9298c0.88882,15.41581 -4.50621,28.26542 -12.05013,28.70036c-7.5439,0.43495 -14.37998,-11.70946 -15.26877,-27.12527c-0.4734,-8.21082 12.56874,-33.91635 24.25175,-38.29238c10.25187,-3.83995 19.02628,13.15432 22.55213,12.95103c7.5439,-0.43495 -20.3738,8.35044 -19.48498,23.76623z" fill="none" stroke="#000000" stroke-linecap="butt"/><path d="M-114.86883,387.27475l20.21468,9.56006" fill="none" stroke="#000000" stroke-linecap="round"/></g><g data-paper-data="{&quot;index&quot;:null}"><path d="M-62.15653,415.103c3.98099,14.91943 1.2896,28.59329 -6.01141,30.54143c-7.30101,1.94814 -16.44684,-8.56713 -20.42784,-23.48657c-2.12036,-7.94642 5.46689,-35.7548 16.02666,-42.3981c9.26623,-5.8295 21.28912,9.04481 24.70144,8.1343c7.30101,-1.94814 -18.26988,12.28953 -14.28889,27.20894z" fill="#840000" stroke="#000000" stroke-linecap="butt"/><path d="M-64.88602,431.68533c1.65169,6.18997 -1.54442,11.50569 -5.67106,12.60684c-4.12664,1.10113 -8.81091,-3.02419 -10.46261,-9.21416c-1.65169,-6.18997 18.4734,-52.64524 22.60006,-53.74636c1.51434,-0.40407 10.21345,1.73693 7.51882,9.18829c-5.06265,13.99969 -15.03079,37.24693 -13.98522,41.1654z" fill="#430000" stroke="none" stroke-linecap="butt"/><path d="M-61.57118,414.71262c3.98099,14.91941 1.2896,28.59329 -6.01138,30.54143c-7.30099,1.94814 -16.44684,-8.56716 -20.42784,-23.48657c-2.12036,-7.94642 5.46689,-35.7548 16.02666,-42.3981c9.26623,-5.8295 21.28912,9.04481 24.70144,8.1343c7.30099,-1.94814 -18.26988,12.28953 -14.28889,27.20894z" fill="none" stroke="#000000" stroke-linecap="butt"/><path d="M-85.52378,405.70534l21.72788,5.28469" fill="none" stroke="#000000" stroke-linecap="round"/></g><g data-paper-data="{&quot;index&quot;:null}"><path d="M-35.81996,421.16485c9.29743,12.32865 11.94365,26.01132 5.91048,30.56113c-6.03317,4.54981 -18.46105,-1.75615 -27.75848,-14.0848c-4.95201,-6.5665 -8.37482,-35.18743 -1.08688,-45.31305c6.39521,-8.88524 23.12772,0.37852 25.9475,-1.74796c6.03317,-4.54981 -12.31005,18.25606 -3.01261,30.58468z" fill="#840000" stroke="#000000" stroke-linecap="butt"/><path d="M-32.11569,437.55702c3.85746,5.11506 2.89401,11.24239 -0.51603,13.814c-3.41003,2.57164 -9.30152,0.50978 -13.15895,-4.60529c-3.85746,-5.11506 -2.67167,-55.72835 0.73839,-58.29998c1.25138,-0.9437 10.11725,-2.22985 10.42135,5.68794c0.57136,14.87598 0.07333,40.16532 2.51521,43.40333z" fill="#430000" stroke="none" stroke-linecap="butt"/><path d="M-35.4243,420.58314c9.29743,12.32862 11.94365,26.01132 5.91051,30.5611c-6.03314,4.54981 -18.46105,-1.75618 -27.75848,-14.0848c-4.95201,-6.5665 -8.37482,-35.18743 -1.08688,-45.31305c6.39521,-8.88524 23.12772,0.37852 25.9475,-1.74796c6.03314,-4.54981 -12.31005,18.25606 -3.01261,30.58468z" fill="none" stroke="#000000" stroke-linecap="butt"/><path d="M-38.88521,417.96984l-22.12082,3.27074" fill="none" stroke="#000000" stroke-linecap="round"/></g></g><g data-paper-data="{&quot;index&quot;:null}"><path d="M292.78928,382.78245c5.25152,19.68093 -5.0305,39.51505 -22.96556,44.3007c-17.93504,4.78567 -36.7315,-7.28933 -41.98302,-26.97028c-5.25152,-19.68093 5.03053,-39.51505 22.96556,-44.3007c17.93504,-4.78567 36.73148,7.28936 41.983,26.97028z" fill="#840000" stroke="#000000" stroke-linecap="butt"/><path d="M293.58514,396.94738c2.96458,11.11021 -7.49875,23.55004 -23.37048,27.78515c-15.87173,4.23511 -31.14155,-1.33829 -34.10613,-12.44847c-1.99543,-7.47816 26.39987,15.65845 38.06341,2.08442c2.75765,-3.20936 8.74104,-18.27688 7.08542,-31.01032c-1.74542,-13.4241 -11.14848,-24.47616 -8.48563,-25.18669c15.87173,-4.23511 17.84885,27.66572 20.81341,38.77593z" fill="#430000" stroke="none" stroke-linecap="butt"/><path d="M293.35456,384.61833c5.25152,19.68093 -5.0305,39.51505 -22.96556,44.3007c-17.93506,4.78567 -36.73148,-7.28933 -41.983,-26.97028c-5.25152,-19.68093 5.0305,-39.51505 22.96556,-44.3007c17.93506,-4.78567 36.73148,7.28933 41.983,26.97028z" fill="none" stroke="#000000" stroke-linecap="butt"/><g><path d="M230.54682,437.93727c3.98099,14.91943 1.2896,28.59329 -6.01141,30.54143c-7.30101,1.94814 -16.44684,-8.56713 -20.42784,-23.48657c-2.12036,-7.94642 5.46689,-35.7548 16.02666,-42.3981c9.26623,-5.8295 21.28912,9.04481 24.70144,8.1343c7.30101,-1.94814 -18.26988,12.28953 -14.28889,27.20894z" fill="#840000" stroke="#000000" stroke-linecap="butt"/><path d="M227.81739,454.5196c1.65169,6.18997 -1.54442,11.50569 -5.67106,12.60684c-4.12664,1.10113 -8.81091,-3.02419 -10.46261,-9.21416c-1.65169,-6.18997 18.4734,-52.64524 22.60006,-53.74636c1.51434,-0.40407 10.21342,1.73693 7.5188,9.18829c-5.06265,13.99969 -15.03079,37.24693 -13.98522,41.1654z" fill="#430000" stroke="none" stroke-linecap="butt"/><path d="M231.13222,437.54689c3.98099,14.91941 1.2896,28.59329 -6.01138,30.54143c-7.30099,1.94814 -16.44684,-8.56716 -20.42784,-23.48657c-2.12036,-7.94642 5.46689,-35.7548 16.02666,-42.3981c9.26623,-5.8295 21.28912,9.04481 24.70144,8.1343c7.30099,-1.94814 -18.26988,12.28953 -14.28889,27.20894z" fill="none" stroke="#000000" stroke-linecap="butt"/><path d="M207.17961,428.53961l21.72788,5.28469" fill="none" stroke="#000000" stroke-linecap="round"/></g><g data-paper-data="{&quot;index&quot;:null}"><path d="M309.41078,427.55564c0.88882,-15.41581 -27.0289,-24.20118 -19.48498,-23.76623c3.52585,0.20329 12.30026,-16.791 22.55213,-12.95105c11.68301,4.376 24.72512,30.08156 24.25175,38.29235c-0.88882,15.41581 -7.72488,27.56022 -15.26877,27.12527c-7.54392,-0.43495 -12.93895,-13.28453 -12.05015,-28.70034z" fill="#840000" stroke="#000000" stroke-linecap="butt"/><path d="M293.42637,405.74928c-4.14268,-6.75441 3.94551,-10.60661 5.51022,-10.51639c4.26397,0.24585 33.34846,41.68498 32.9797,48.08091c-0.36876,6.39593 -4.12432,11.38156 -8.38827,11.13571c-4.26394,-0.24585 -8.46688,-4.80734 -8.09812,-11.20327c0.23345,-4.04885 -14.22029,-24.80668 -22.00356,-37.49694z" fill="#430000" stroke="none" stroke-linecap="butt"/><path d="M289.27376,403.52521c3.52587,0.20329 12.30026,-16.791 22.55215,-12.95105c11.68301,4.376 24.72512,30.08156 24.25175,38.29238c-0.88882,15.41581 -7.72488,27.56019 -15.2688,27.12524c-7.5439,-0.43495 -12.93892,-13.28455 -12.0501,-28.70034c0.8888,-15.41581 -27.0289,-24.20118 -19.48498,-23.76623z" fill="none" stroke="#000000" stroke-linecap="butt"/><path d="M310.18652,423.19652l20.21471,-9.56006" fill="none" stroke="#000000" stroke-linecap="round"/></g><g data-paper-data="{&quot;index&quot;:null}"><path d="M277.68899,441.46464c3.98099,-14.91941 -21.5899,-29.15708 -14.28889,-27.20894c3.41233,0.91051 15.43521,-13.9638 24.70144,-8.1343c10.55977,6.6433 18.14702,34.45168 16.02666,42.3981c-3.98099,14.91943 -13.12683,25.43471 -20.42784,23.48657c-7.30101,-1.94814 -9.9924,-15.62199 -6.01141,-30.54143z" fill="#840000" stroke="#000000" stroke-linecap="butt"/><path d="M266.43318,416.88162c-2.69463,-7.45136 6.00446,-9.59239 7.5188,-9.18832c4.12666,1.10113 24.25175,47.55639 22.60006,53.74636c-1.65169,6.18997 -6.33597,10.31529 -10.46261,9.21416c-4.12664,-1.10113 -7.32275,-6.41687 -5.67106,-12.60684c1.04557,-3.91847 -8.92255,-27.16571 -13.98519,-41.1654z" fill="#430000" stroke="none" stroke-linecap="butt"/><path d="M262.81475,413.8654c3.41233,0.91051 15.43521,-13.9638 24.70144,-8.1343c10.55977,6.6433 18.14702,34.45168 16.02666,42.3981c-3.98099,14.91941 -13.12685,25.43471 -20.42784,23.48657c-7.30099,-1.94814 -9.99237,-15.62202 -6.01138,-30.54143c3.98099,-14.91941 -21.58987,-29.15708 -14.28889,-27.20894z" fill="none" stroke="#000000" stroke-linecap="butt"/><path d="M279.32827,437.35167l21.72788,-5.28469" fill="none" stroke="#000000" stroke-linecap="round"/></g><g data-paper-data="{&quot;index&quot;:null}"><path d="M251.35241,447.52662c9.29743,-12.32862 -9.04581,-35.13449 -3.01261,-30.58468c2.81978,2.12646 19.55231,-7.13729 25.9475,1.74793c7.28796,10.12562 3.86513,38.74652 -1.08688,45.31303c-9.29743,12.32865 -21.72531,18.63461 -27.7585,14.08482c-6.03319,-4.54981 -3.38695,-18.23248 5.91048,-30.56113z" fill="#840000" stroke="#000000" stroke-linecap="butt"/><path d="M250.16336,420.51537c0.30409,-7.91779 9.16999,-6.63164 10.42137,-5.68794c3.41006,2.57164 4.59583,53.18492 0.73839,58.29998c-3.85743,5.11506 -9.74892,7.17693 -13.15895,4.60529c-3.41003,-2.57164 -4.37348,-8.69893 -0.51603,-13.814c2.4419,-3.23802 1.94388,-28.52733 2.51524,-43.40333z" fill="#430000" stroke="none" stroke-linecap="butt"/><path d="M247.94409,416.36017c2.81978,2.12646 19.55229,-7.13729 25.9475,1.74793c7.28794,10.12562 3.86513,38.74652 -1.08688,45.31303c-9.29743,12.32862 -21.72534,18.63461 -27.7585,14.08482c-6.03314,-4.54981 -3.38693,-18.2325 5.91051,-30.56113c9.29743,-12.32862 -9.04578,-35.13447 -3.01261,-30.58468z" fill="none" stroke="#000000" stroke-linecap="butt"/><path d="M254.41761,444.33153l22.12084,3.27076" fill="none" stroke="#000000" stroke-linecap="round"/></g></g><g stroke-linecap="butt"><path d="M70.88643,383.06329l22.63723,-120.74181l56.29179,10.55384l-22.63723,120.74181z" fill="#1b1b1b" stroke="#000000"/><g><path d="M13.61868,371.39156l7.80067,-41.60698l137.05827,25.69631l-7.80067,41.60698z" fill="#1b1b1b" stroke="#000000"/><g><path d="M20.92341,338.88149c6.25462,-33.36074 26.00762,-111.73563 53.92286,-141.87337c19.82993,-21.4087 46.47368,-1.95787 63.23767,1.18512c21.518,4.03429 45.49843,-8.60099 49.94752,28.85579c3.89647,32.80429 0.45715,109.48179 -4.5375,136.12212c-10.69767,57.05893 -43.78644,49.21825 -84.14968,41.65076c-28.04785,-5.25854 18.63335,-106.98799 5.24555,-127.01017c-5.87837,-8.7914 -86.93039,78.4792 -83.66639,61.06974z" fill="#840000" stroke="#000000"/><path d="M108.98202,273.27082c1.35776,-7.24196 -7.27659,-9.14523 -22.61493,4.17965c-11.29667,9.81374 -47.99168,52.57686 -51.224,50.49091c-12.24216,-7.90035 34.7353,-90.28356 49.0899,-107.7971c14.3867,-17.55269 32.51754,-12.93047 44.49705,-10.6845c14.20318,2.66288 31.28763,2.51099 38.67552,27.14752c8.93113,29.78278 6.2781,87.07378 0.8376,116.09218c-9.94093,53.02263 -44.13913,54.65417 -75.51238,48.77217c-5.85386,-1.09751 6.04209,-8.11029 4.03291,-8.76805c-8.75887,-2.86743 -1.78128,0.28175 6.3048,-42.84752z" fill="#7d3c3c" stroke="#000000"/><path d="M28.91589,333.29936c1.44123,-7.68721 12.71939,-41.01032 30.59479,-70.07627c10.33628,-16.80711 18.46806,-36.47375 29.99419,-46.73318c9.66481,-8.60268 22.98784,-9.3498 29.65341,-8.30137c0.95511,0.15021 25.27852,-7.47304 26.24092,-7.29261c29.54088,5.53846 30.02068,44.33146 26.94714,60.72503c-3.07354,16.39356 -35.35453,-21.53536 -64.89541,-27.07382c-20.58894,-3.86011 -30.55793,15.49727 -37.3027,25.03732c-2.93257,4.14795 -31.47174,54.08557 -30.54035,49.11774z" fill="#5c2c2c" stroke="none"/><path d="M23.6853,346.90223c2.68302,-14.3106 23.31803,-155.17778 66.61677,-147.05993c8.00207,1.50027 -13.5079,25.67986 -28.24248,58.49107c-7.12739,15.8714 -38.08356,69.02607 -29.05681,67.95853c6.47128,-0.76532 38.26635,-30.10277 49.51048,-40.4552c12.61854,-11.61787 21.8289,-27.39427 24.45913,-21.03828c6.40219,15.47108 -9.11598,70.41421 -8.9229,101.75501c0.05706,9.26169 6.27934,13.50711 8.86333,17.7513c18.13021,29.77879 70.36416,4.5954 69.39026,9.78993c-2.68302,14.3106 -39.95861,19.33081 -83.25735,11.21296c-17.09939,-3.20587 -3.06316,-16.03624 -0.0139,-37.13245c3.92406,-27.14849 11.27287,-68.28439 13.03186,-86.16304c0.33527,-3.40778 -3.91271,-6.79183 -3.65281,-8.17805z" fill="#430000" stroke="none"/><path d="M98.47638,369.08686c0.83281,-4.44203 7.44411,-8.81503 2.51505,-9.47873c-5.51723,-0.74292 -21.87637,2.66496 -4.6455,5.89548c32.62481,6.11665 68.11113,-7.92728 66.34613,1.48684c-0.85283,4.54879 -6.75662,21.08926 -19.91897,28.68666c-14.07829,8.12608 -26.01506,8.09885 -42.87597,4.93769c-15.49681,-2.90541 -8.63956,-15.72451 -8.96942,-24.02402c-0.05673,-1.42734 9.74335,0.39611 8.39185,-0.91316c-7.33416,-7.10501 -5.99601,1.58891 -5.21357,-2.58446z" fill="#5c2c2c" stroke="none"/><path d="M84.63797,219.69425c14.38667,-17.5527 32.51752,-12.93047 44.49702,-10.6845c14.2032,2.66288 31.28765,2.51099 38.67554,27.14752c8.93111,29.78278 6.27807,87.0738 0.83757,116.0922c-4.25594,22.70023 -12.958,35.98103 -23.98101,43.28544c-14.72425,9.75704 -33.58975,8.85051 -51.53137,5.48673c-7.48558,-1.40343 -4.97751,-12.0614 -2.85971,-26.54419c4.7085,-32.19966 20.95838,-84.11024 16.55188,-100.95181c-1.18761,-4.53901 -35.68591,19.39189 -55.96614,41.51161c-12.47669,13.60835 -26.21453,26.44455 -25.34016,21.78085c6.14509,-32.77653 35.82563,-88.70763 59.11638,-117.12385z" fill="none" stroke="#000000"/><path d="M76.61351,197.05149c19.82993,-21.40873 46.47366,-1.9579 63.23768,1.18509c21.518,4.03429 45.49843,-8.60101 49.94752,28.85579c3.89647,32.80429 0.45712,109.48181 -4.53753,136.12214c-4.31939,23.03866 -12.28919,35.49676 -22.91437,41.66437c-1.42819,0.82904 -2.9044,1.54441 -4.42612,2.15656c-15.19556,6.11261 -34.93405,1.93109 -56.80919,-2.17016c-16.64176,-3.12007 13.17322,-106.76362 7.93879,-134.07117c-3.36704,-17.56556 -42.18956,39.55779 -47.65089,32.25055c-6.64079,-8.88537 -42.15861,54.28105 -38.70873,35.88019c6.25462,-33.36072 26.00762,-111.73561 53.92285,-141.87335z" fill="none" stroke="#000000"/></g></g><g><path d="M188.4051,267.44318c-1.37952,7.35805 -9.43199,48.31558 -25.9435,45.21992c-16.51148,-3.09565 -35.22935,-49.07223 -33.84984,-56.43025c1.37952,-7.35805 34.42885,-37.82222 50.94034,-34.72657c16.51148,3.09565 10.23252,38.57885 8.853,45.9369z" data-paper-data="{&quot;index&quot;:null}" fill="#410000" stroke="#000000"/><path d="M86.90835,204.55587c16.51148,3.09565 36.28111,43.46256 34.90159,50.82061c-1.37952,7.35805 -35.4806,43.43186 -51.99208,40.33621c-16.51148,-3.09565 -9.1808,-44.1885 -7.80128,-51.54655c1.37952,-7.35802 8.38027,-42.70593 24.89178,-39.61027z" fill="#410000" stroke="#000000"/><path d="M187.98763,267.78375c-1.37952,7.35805 -9.43199,48.31558 -25.9435,45.21992c-16.51146,-3.09564 -35.22936,-49.0722 -33.84984,-56.43025c1.37952,-7.35805 34.42885,-37.82222 50.94034,-34.72657c16.51148,3.09565 10.23252,38.57885 8.853,45.9369z" data-paper-data="{&quot;index&quot;:null}" fill="none" stroke="#000000"/><path d="M87.17411,205.02453c16.51146,3.09564 36.28108,43.46256 34.90156,50.8206c-1.37952,7.35805 -35.4806,43.43186 -51.99206,40.33622c-16.51148,-3.09565 -9.1808,-44.1885 -7.80128,-51.54655c1.37952,-7.35802 8.38029,-42.70592 24.89178,-39.61027z" fill="none" stroke="#000000"/><path d="M81.41853,204.6713c2.16694,0.40627 -8.34294,19.8801 -11.18542,31.35849c-4.93802,19.94065 -4.38739,37.34279 -0.89942,43.91073c8.13677,15.32179 44.1132,-20.56381 43.00813,-14.6696c-1.85146,9.87527 -26.72312,30.9196 -41.4363,28.16111c-14.71321,-2.7585 -13.69635,-28.27524 -11.84488,-38.15051c1.85147,-9.87529 7.64472,-53.36872 22.3579,-50.61023z" fill="#170000" stroke="none"/><path d="M187.13397,278.87444c-1.85147,9.87529 -10.14675,34.02742 -24.85993,31.26892c-14.71318,-2.75849 -30.27269,-31.38303 -28.42123,-41.25832c1.10507,-5.89422 21.63914,40.58623 34.77342,29.25244c5.6302,-4.85842 12.44716,-20.87925 15.06772,-41.25439c1.50846,-11.72851 -1.2335,-33.68685 0.93339,-33.28059c14.71318,2.75849 4.35809,45.39667 2.50663,55.27194z" data-paper-data="{&quot;index&quot;:null}" fill="#170000" stroke="none"/><g><path d="M131.21152,235.36348c10.62618,1.99224 17.26864,14.12428 14.83632,27.0977c-2.43231,12.9734 -13.0183,21.87539 -23.6445,19.88314c-10.62618,-1.99224 -17.26864,-14.12428 -14.83632,-27.0977c2.43231,-12.97337 13.01833,-21.87538 23.6445,-19.88314z" fill="#410000" stroke="#000000"/><path d="M130.88525,235.72119c10.62618,1.99224 17.26864,14.12428 14.83632,27.0977c-2.43231,12.9734 -13.01833,21.87538 -23.6445,19.88314c-10.62618,-1.99224 -17.26864,-14.12428 -14.83632,-27.0977c2.43231,-12.9734 13.01833,-21.87538 23.6445,-19.88314z" fill="none" stroke="#000000"/><path d="M107.14472,260.30436c1.81516,-9.68167 6.63617,-27.78997 17.09888,-25.82837c3.27941,0.61484 -8.96455,18.28794 -9.9422,27.10131c-0.72104,6.49995 8.05776,12.55765 9.82718,15.75647c3.4858,6.30177 21.73159,-14.33482 20.90497,-9.92581c-1.81516,9.68165 -11.76834,15.93996 -22.23105,13.97836c-10.46271,-1.9616 -17.47294,-11.40031 -15.65778,-21.08193z" fill="#170000" stroke="none"/></g></g></g><g><path d="M141.18485,140.56714c30.28813,10.26978 50.1652,32.38673 44.39666,49.39959c-5.76854,17.01285 -34.99826,22.47919 -65.28639,12.20941c-30.28813,-10.26978 -50.1652,-32.38673 -44.39666,-49.39959c5.76854,-17.01285 34.99826,-22.47919 65.28639,-12.20941z" fill="#000000" stroke="#000000" stroke-linecap="butt"/><path d="M73.0153,149.26637c9.98918,-0.20402 37.62873,25.24678 56.97601,32.62197c21.6172,8.2405 35.08901,-1.29875 46.77905,2.66498c28.23048,9.57209 4.13974,10.23271 0.82767,20.00084c-3.31208,9.76813 -28.88236,9.92707 -57.11282,0.35499c-4.74631,-1.60933 -9.26564,-3.39125 -13.48439,-5.28867c-20.87393,-9.38827 -34.38959,-21.60407 -31.63436,-29.72992c0.71307,-2.10303 -8.15408,-20.50565 -2.35116,-20.6242z" fill="#ffffff" stroke="#000000" stroke-linecap="butt"/><path d="M96.846,178.28087c16.48384,10.49311 38.58669,18.10095 52.551,19.71208c18.56258,2.14166 23.12219,-7.68953 33.1509,-4.2891c24.2978,8.23864 -11.12599,14.77968 -13.03044,20.39637c-1.90445,5.61669 -23.14558,3.49116 -47.4434,-4.74749c-11.7383,-3.9801 -26.9405,-12.73099 -36.6117,-23.49212c-10.34782,-11.51404 -14.74102,-25.02899 -13.75661,-27.93227c0.52708,-1.55448 10.44744,10.99951 25.14024,20.35252z" fill="#e2e2e2" stroke="none" stroke-linecap="butt"/><path d="M74.56543,151.10666c9.98918,-0.20402 37.62873,25.24678 56.97601,32.62197c21.6172,8.2405 35.08901,-1.29875 46.77905,2.66498c28.23048,9.57209 4.13974,10.23271 0.82767,20.00084c-3.31208,9.76813 -28.88236,9.92707 -57.11282,0.35499c-4.74631,-1.60933 -9.26564,-3.39125 -13.48439,-5.28867c-20.87393,-9.38827 -34.38959,-21.60407 -31.63436,-29.72992c0.71307,-2.10303 -8.15408,-20.50565 -2.35116,-20.6242z" fill="none" stroke="#000000" stroke-linecap="butt"/><path d="M65.19014,149.90535c2.70724,-7.98431 9.73194,-12.81915 15.69012,-10.79891c1.49314,0.50628 -5.62066,4.44017 -4.95568,9.07227c0.5123,3.56863 -2.43293,6.61858 -2.21716,10.78026c0.25937,5.00303 3.76259,11.23683 5.72193,16.9114c2.73699,7.92679 20.92914,17.71769 20.05139,20.30639c-0.56263,1.65933 59.78231,12.88554 57.15595,16.02162c-0.23023,0.2749 13.65044,-3.18105 21.79275,-11.29186c5.07022,-5.05058 5.25395,-16.5295 6.55167,-15.91008c2.31101,1.10308 13.21653,-13.25629 18.07227,-13.49483c3.18493,-0.15646 1.78942,12.39243 0.58203,16.15423c-1.21706,3.79189 -20.46246,16.66039 -24.18053,22.1783c-5.12034,7.59903 -3.9148,14.02411 -6.08407,13.94134c-19.13933,-0.73034 -82.61178,-13.8022 -84.96874,-16.25056c-7.77216,-8.07356 -14.13717,-38.4237 -17.32558,-39.50479c-5.95819,-2.02024 -8.59359,-10.13052 -5.88635,-18.11484z" fill="#840000" stroke="#000000" stroke-linecap="butt"/><path d="M69.82562,134.6475c0.54596,-1.61018 2.4663,24.95611 11.7071,41.31049c7.57694,13.40965 18.62193,27.94846 24.11056,29.80949c12.18256,4.13074 69.51177,13.3999 68.51814,16.33034c-0.99362,2.93044 -55.89722,-5.47756 -68.07976,-9.60829c-3.26644,-1.10755 -9.83088,-0.9268 -16.75986,-9.36886c-5.62081,-6.8482 -8.99943,-17.98728 -13.63659,-27.78519c-2.47067,-5.2203 -7.08429,-9.95921 -8.62903,-13.68857c-5.31181,-12.8239 -1.25657,-27.06246 -0.86061,-28.23022z" fill="#430000" stroke="none" stroke-linecap="butt"/><path d="M65.95051,148.90622c1.1021,-3.25036 -3.43441,-19.87254 -1.2645,-21.82902c3.16032,-2.84947 13.1052,10.32448 16.63781,11.52228c1.49314,0.50628 -5.62066,4.44017 -4.95568,9.07227c0.52517,3.658 -3.86758,6.68225 -3.4113,11.99518c0.52396,6.10124 5.96953,14.60153 7.88804,20.1579c2.737,7.92681 14.27175,11.70414 13.394,14.29283c-0.29525,0.87078 17.74861,4.80362 34.58541,8.79815c15.24695,3.61732 29.50406,7.28525 28.25597,8.77558c-0.23024,0.27493 13.65044,-3.18105 21.79274,-11.29183c5.07021,-5.05055 5.25394,-16.52947 6.55166,-15.91005c2.03951,0.97351 12.24177,-15.54871 17.60923,-16.23189c4.70359,-0.59867 4.8855,14.3261 3.46189,18.76161c-1.21706,3.79189 -22.87929,16.79007 -26.59738,22.30798c-5.12034,7.59903 -3.9148,14.02411 -6.08407,13.94134c-19.13932,-0.73037 -82.61178,-13.8022 -84.96873,-16.25059c-7.77213,-8.07357 -14.13715,-38.42369 -17.32558,-39.50479c-5.95819,-2.02024 -8.59359,-10.13052 -5.88635,-18.11484z" fill="none" stroke="#000000" stroke-linecap="butt"/><path d="M92.90405,158.94602l-7.52803,22.78494" fill="none" stroke="#000000" stroke-linecap="round"/><path d="M121.60453,180.39006l-5.92883,18.06849" fill="none" stroke="#000000" stroke-linecap="round"/><path d="M152.71651,188.30983l-5.89694,18.55735" fill="none" stroke="#000000" stroke-linecap="round"/><path d="M173.62364,187.27171l-4.04265,17.75186" fill="none" stroke="#000000" stroke-linecap="round"/><path d="M122.99635,-14.45548c12.18473,4.13147 6.82598,16.85119 11.09126,27.28831c3.12453,7.64572 18.11235,12.27661 15.36413,20.38179c-6.49978,19.16946 -28.8825,28.9067 -49.99319,21.74871c-21.11067,-7.15799 -32.95516,-28.5006 -26.45537,-47.67009c6.49979,-19.16948 28.88247,-28.90671 49.99317,-21.74872z" fill="#840000" stroke="#000000" stroke-linecap="butt"/><path d="M88.1802,3.16862c-9.42237,14.41099 -6.15667,34.81273 3.08406,37.94598c18.79021,6.37119 58.59654,-13.18574 53.46851,1.9381c-5.12803,15.12383 -24.51759,22.21926 -43.30781,15.84807c-12.7205,-4.31313 -30.47786,-22.68878 -31.76658,-41.71884c-0.3452,-5.09721 11.79976,-25.27189 25.06518,-31.53921c10.3661,-4.89752 22.41546,3.7193 23.14208,1.5763c2.60614,-7.68616 -19.94825,1.05712 -29.68544,15.9496z" fill="#430000" stroke="none" stroke-linecap="butt"/><path d="M123.01515,-13.71755c11.98996,4.06543 6.53435,16.56926 10.88302,26.78904c3.30802,7.77414 18.38054,12.59904 15.57236,20.88105c-6.49979,19.16948 -28.8825,28.9067 -49.99319,21.74871c-21.11069,-7.15799 -32.95517,-28.50064 -26.45539,-47.67009c6.49979,-19.16948 28.8825,-28.9067 49.99319,-21.74871z" fill="none" stroke="#000000" stroke-linecap="butt"/><path d="M68.09391,143.85726l4.49779,-13.26509c0,0 89.4312,5.53228 111.43564,12.99332c20.06887,6.80474 15.31968,29.98555 15.31968,29.98555l-4.49779,13.26509c0,0 -45.07578,-8.52261 -66.35259,-15.73692c-20.97055,-7.11047 -60.40273,-27.24194 -60.40273,-27.24194z" fill="#ffffff" stroke="#000000" stroke-linecap="butt"/><path d="M146.10139,126.93299c37.0259,12.55436 64.15181,31.25367 60.58738,41.76604c-0.91078,2.68613 -4.01685,2.80494 -6.46814,4.77815c-1.4941,1.20272 -1.05836,5.08266 -4.62976,4.88109c-5.82711,-0.3289 -2.90459,-15.02667 -12.0595,-17.70944c-12.0559,-3.53291 -36.91409,4.397 -49.30406,0.19593c-14.51616,-4.92199 -45.43953,-10.91608 -55.85265,-16.08654c-16.14734,-8.01772 -7.93558,-15.13159 -5.7686,-21.52256c3.56442,-10.51236 36.46939,-8.85704 73.49532,3.69732z" fill="#e2e2e2" stroke="none" stroke-linecap="butt"/><path d="M68.0939,143.85722l4.49779,-13.26509c0,0 89.37924,7.76842 112.77164,15.70007c14.92501,5.06061 13.98367,27.27879 13.98367,27.27879l-4.49779,13.26509c0,0 -46.25806,-8.17221 -67.2548,-15.29157c-21.25195,-7.20589 -59.50053,-27.6873 -59.50053,-27.6873z" fill="none" stroke="#000000" stroke-linecap="butt"/><path d="M179.83467,31.34441c42.32864,14.35235 65.72387,58.18972 52.25475,97.9135c-6.84497,20.18751 -9.67385,41.5389 -26.95114,45.0692c-7.85802,1.60564 -9.20434,-18.0145 -20.81604,-21.5658c-13.09515,-4.00501 -36.62257,7.70056 -47.65621,3.95939c-19.58022,-6.63906 -58.56307,-13.97665 -69.55552,-25.6589c-12.7711,-13.57255 4.45475,-32.42983 11.69338,-53.77834c13.46912,-39.72378 58.70215,-60.29139 101.03077,-45.93905z" fill="#840000" stroke="#000000" stroke-linecap="butt"/><path d="M183.33447,89.19744c21.81552,7.39698 11.77047,24.27655 8.4584,34.04468c-3.31208,9.76813 -23.68203,11.69035 -45.49755,4.29337c-21.81552,-7.39698 -79.0705,-15.91924 -75.75842,-25.68737c1.04365,-3.07797 8.54828,-40.04376 30.47069,-60.84475c10.13397,-9.61558 38.11272,-12.06311 43.46058,-12.77758c8.07731,-1.07911 -40.93174,18.04118 -55.99714,42.48072c-8.38719,13.60591 14.16364,34.19582 13.97261,41.07064c-0.2345,8.43818 21.45961,-15.15605 37.64707,-22.88351c4.99788,-2.38585 6.46942,-13.10435 7.482,-12.76101c0,0 7.71877,12.86666 13.53794,14.99255c6.08919,2.22455 22.22383,-1.92778 22.22383,-1.92778z" fill="#430000" stroke="none" stroke-linecap="butt"/><path d="M180.03457,30.75485c42.32864,14.35235 65.72387,58.18972 52.25475,97.9135c-6.84497,20.18751 -9.67385,41.5389 -26.95114,45.0692c-6.92754,1.41551 -6.52381,-19.00118 -16.6012,-21.82566c-14.24481,-3.99253 -39.67893,8.35324 -51.87105,4.21926c-19.58022,-6.63906 -58.56307,-13.97665 -69.55552,-25.6589c-12.7711,-13.57255 4.45475,-32.42983 11.69338,-53.77834c13.46912,-39.72378 58.70215,-60.29139 101.03077,-45.93905z" fill="none" stroke="#000000" stroke-linecap="butt"/><path d="M106.79841,55.39021c4.33593,1.47018 14.10543,26.59115 23.14904,26.63967c9.02721,0.04845 16.79973,-14.11298 21.49342,-10.87765c8.43623,5.81505 -0.22759,22.49248 -2.02955,27.80688c-3.80889,11.23337 0.58788,26.16427 -15.85517,20.58893c-16.44306,-5.57534 -55.06508,-13.0481 -51.25618,-24.28149c3.80889,-11.23337 8.05539,-45.4517 24.49844,-39.87636z" fill="#000000" stroke="#000000" stroke-linecap="butt"/><path d="M216.0166,142.57782c-3.80889,11.23337 -39.01107,-6.32539 -55.45412,-11.90073c-16.44306,-5.57534 -3.87183,-14.7529 -0.06294,-25.98628c2.57274,-7.58764 6.22091,-15.68845 21.53137,-12.25374c7.35641,1.65031 28.84965,1.79385 34.18615,3.6033c16.44306,5.57534 3.60843,35.30407 -0.20046,46.53745z" data-paper-data="{&quot;index&quot;:null}" fill="#000000" stroke="#000000" stroke-linecap="butt"/><path d="M79.10018,102.63762c14.04382,0.44725 42.3648,13.19199 64.65732,20.75071c23.92254,8.1114 53.12707,14.63496 64.16751,23.24318c6.69134,5.21721 -1.0292,19.30811 -2.19573,22.74849c-1.75399,5.17297 -2.37233,-13.79103 -18.53598,-17.72791c-12.32356,-3.00156 -38.00921,10.38729 -54.63029,4.75159c-17.03818,-5.77713 -46.71231,-14.17252 -57.98938,-20.68646c-14.15292,-8.17511 -7.70184,-14.33562 -5.98141,-19.40961c1.29768,-3.82718 0.34714,-13.99358 10.50797,-13.66998z" fill="#7d3c3c" stroke="#000000" stroke-linecap="butt"/><path d="M102.20755,107.68198c6.43537,2.18204 -8.52599,-0.61474 -17.57674,2.24424c-8.91884,2.81733 -11.93934,11.27573 -4.40064,15.4082c20.53253,11.25528 83.70621,15.03569 114.13191,24.2882c16.46903,5.00827 12.17186,18.72025 11.76579,19.91785c-0.86886,2.56248 -4.40479,-14.08394 -18.23055,-16.92168c-13.40447,-2.7513 -36.81033,8.44777 -56.20465,1.87175c-39.39817,-13.35872 -69.94948,-28.27939 -68.23824,-33.32628c1.71125,-5.04689 -0.64506,-26.841 38.75312,-13.48228z" fill="#5c2c2c" stroke="none" stroke-linecap="butt"/><path d="M80.67911,101.8583c14.04382,0.44725 42.3648,13.19199 64.65732,20.75071c23.92254,8.1114 53.12707,14.63496 64.16751,23.24318c6.69134,5.21721 -1.0292,19.30811 -2.19573,22.74849c-1.85687,5.47637 -2.23248,-12.64612 -19.97731,-17.20884c-11.79631,-3.03316 -37.84662,9.43466 -53.18897,4.23254c-17.03818,-5.77713 -46.71231,-14.17252 -57.98938,-20.68646c-14.15292,-8.17511 -7.70184,-14.33562 -5.98141,-19.40961c1.29768,-3.82718 0.34714,-13.99358 10.50797,-13.66998z" fill="none" stroke="#000000" stroke-linecap="butt"/><path d="M133.55692,97.0402c1.17912,0.3998 0.77932,1.57893 0.77932,1.57893c-0.66634,1.96521 -1.73248,5.1095 -2.39882,7.07472c0,0 -0.3998,1.17912 -1.57893,0.77932c-1.17912,-0.3998 -0.77932,-1.57893 -0.77932,-1.57893c0.66634,-1.96521 1.33267,-3.93038 1.99902,-5.8956l0.3998,-1.17912c0,0 0.3998,-1.17912 1.57893,-0.77932z" fill="#ffffff" stroke="none" stroke-linecap="butt"/><path d="M175.03614,108.47517c1.17912,0.3998 0.77932,1.57893 0.77932,1.57893l-0.1999,0.58956c-1.13623,3.35104 -2.9485,6.59482 -3.98789,9.82261c0,0 -0.3998,1.17912 -1.57893,0.77932c-1.17912,-0.3998 -0.77932,-1.57893 -0.77932,-1.57893c1.15051,-3.27292 2.83268,-6.4156 3.98789,-9.82261l0.1999,-0.58956c0,0 0.3998,-1.17912 1.57893,-0.77932z" fill="#ffffff" stroke="none" stroke-linecap="butt"/><path d="M148.58808,120.78242c12.29159,4.1677 20.9134,11.5056 19.25735,16.38968c-1.65604,4.88408 -12.96282,5.46481 -25.2544,1.2971c-12.29159,-4.1677 -20.9134,-11.5056 -19.25735,-16.38968c1.65604,-4.88408 12.96282,-5.46481 25.2544,-1.2971z" fill="#000000" stroke="#000000" stroke-linecap="butt"/><path d="M194.75495,29.33386c2.90795,-2.9016 14.06507,-8.00011 21.80193,-18.51546c13.85591,-18.83188 26.98951,-46.13649 34.98974,-46.02025c7.59289,0.11034 6.28333,13.91305 13.22767,23.74109c8.48528,12.00887 24.81522,20.77803 28.97683,24.94874c2.61154,2.61725 25.01984,3.47167 24.34708,7.24371c-1.33856,7.50508 -20.26646,14.95304 -34.0461,24.92737c-14.19363,10.27396 -23.34053,23.07682 -31.10774,30.82704c-19.09785,19.05605 -31.28712,5.55002 -44.44691,-7.63862c-13.15979,-13.18864 -32.84034,-20.45761 -13.74249,-39.51365z" fill="#410000" stroke="#000000" stroke-linecap="butt"/><path d="M214.76602,14.96638c5.90918,-5.89627 28.52874,-62.27752 42.03033,-48.74631c8.27792,8.29611 -28.43742,32.22863 -28.77231,57.60991c-0.21132,16.01644 37.92176,37.85603 35.63554,40.13723c-5.90921,5.89626 -21.64475,-0.29308 -35.14634,-13.82429c-13.50159,-13.53121 -19.65644,-29.2803 -13.74723,-35.17656z" fill="#170000" stroke="none" stroke-linecap="butt"/><path d="M194.75528,29.07453c2.90793,-2.9016 14.06504,-8.00009 21.80191,-18.51547c13.85591,-18.83188 26.98951,-46.13649 34.98974,-46.02025c7.49062,0.10882 5.28453,14.07967 12.15724,23.73455c8.60618,12.09012 25.83981,20.7386 30.04725,24.95528c2.61154,2.61725 25.01982,3.47166 24.34706,7.2437c-1.33853,7.50509 -20.26643,14.95305 -34.0461,24.92737c-14.19364,10.27398 -23.34053,23.07682 -31.10774,30.82704c-19.09785,19.05605 -31.28712,5.55002 -44.44691,-7.63862c-13.15978,-13.18866 -32.84034,-20.45761 -13.74249,-39.51365z" fill="none" stroke="#000000" stroke-linecap="butt"/><path d="M255.69329,96.53954c-4.96738,4.9565 -7.3448,17.07223 -19.93354,9.61043c-7.50366,-4.44771 -24.1721,-25.10208 -31.90271,-32.84965c-8.82009,-8.83943 -26.27017,-24.8334 -30.71956,-33.19785c-5.99304,-11.26635 3.04387,-14.14909 7.59397,-18.68923c4.12649,-4.11747 11.92207,-10.44361 21.81907,-5.76217c9.11815,4.31305 20.09105,19.05348 30.01718,29.0014c9.03007,9.04987 29.94605,24.80167 34.37954,33.31931c5.72965,11.00784 -6.78428,14.10784 -11.25395,18.56774z" data-paper-data="{&quot;index&quot;:null}" fill="#410000" stroke="#000000" stroke-linecap="butt"/><path d="M205.77078,19.59778c6.48148,2.89666 39.14904,33.92012 52.15685,49.47859c10.57211,12.64517 7.94637,13.64508 10.92567,16.63092c1.31624,1.31911 -2.6585,13.85897 -7.74153,8.66535c-6.75543,-6.90241 -0.86291,-12.7855 -10.6456,-25.45173c-10.72012,-13.88001 -41.79609,-39.06079 -49.50763,-41.98943c-4.89895,-1.86049 -9.452,-1.2022 -13.0415,0.43317c-4.65172,2.11933 -7.68526,5.87956 -7.75624,7.92521c-0.37663,10.8523 68.29875,68.60032 65.27991,71.61256c-5.82358,5.81081 -35.38621,-23.67877 -51.53683,-39.86484c-16.15062,-16.18607 -24.52236,-34.01805 -18.69882,-39.82887c3.42753,-3.42002 13.75835,-15.12235 30.56569,-7.61095z" fill="#170000" stroke="none" stroke-linecap="butt"/><path d="M255.6927,97.09535c-4.96738,4.9565 -7.34478,17.07223 -19.93354,9.61043c-7.50367,-4.44769 -24.1721,-25.10208 -31.90274,-32.84966c-8.82009,-8.83943 -26.27015,-24.83339 -30.71956,-33.19785c-5.99304,-11.26635 3.04387,-14.14909 7.59397,-18.68923c4.12648,-4.11745 11.92208,-10.4436 21.81907,-5.76217c9.11816,4.31303 20.09105,19.05348 30.01718,29.0014c9.03007,9.04987 29.94605,24.80167 34.37953,33.31934c5.72965,11.00784 -6.78428,14.10784 -11.25395,18.56774z" data-paper-data="{&quot;index&quot;:null}" fill="none" stroke="#000000" stroke-linecap="butt"/><path d="M98.87116,145.47595l-3.65535,10.78053" fill="none" stroke="#000000" stroke-linecap="round"/><path d="M133.12559,156.33938l-4.56919,13.47566" fill="none" stroke="#000000" stroke-linecap="round"/><path d="M171.94928,153.72712l-8.12768,27.29401" fill="none" stroke="#000000" stroke-linecap="round"/><path d="M120.0456,71.01225l10.48319,-9.59227l-17.42601,-18.39809l11.43197,-2.69717l2.00916,-7.86418" fill="none" stroke="#000000" stroke-linecap="round"/><path d="M140.84498,142.83278l-2.76247,9.17562" fill="none" stroke="#000000" stroke-linecap="round"/></g><g stroke-linecap="butt"><path d="M-89.07208,602.91952c0,-24.10606 36.22085,-43.64791 80.90154,-43.64791c44.68069,0 80.90152,19.54181 80.90152,43.64791c0,12.02413 -0.67143,26.2488 -15.2499,34.14298c-14.64854,7.93213 -43.25771,9.50493 -65.65164,9.50493c-23.99475,0 -62.23045,-0.07562 -77.04602,-9.02758c-12.77253,-7.71751 -3.85552,-23.45987 -3.85552,-34.62033z" fill="#840000" stroke="#000000"/><path d="M-90.70109,626.03367c0,-4.19116 16.0552,5.69078 47.24926,7.96029c33.45357,2.43389 82.81614,-2.8023 102.25122,-10.16823c8.71071,-3.30137 6.30252,-18.39401 -3.34327,-30.92184c-10.51983,-13.66305 -28.48965,-24.69676 -20.77374,-24.69676c45.29485,0 38.64368,44.929 38.64368,57.82651c0,12.89751 -36.71873,23.35302 -82.01357,23.35302c-45.29485,0 -82.0136,-10.45551 -82.0136,-23.35302z" fill="#430000" stroke="none"/><path d="M-132.70859,613.19756c0,-24.10608 16.26437,-43.64791 36.32743,-43.64791c20.06309,0 36.32743,19.54181 36.32743,43.64791c0,12.02413 -0.3015,26.2488 -6.84768,34.14298c-6.57768,7.93213 -19.42415,9.50493 -29.47975,9.50493c-10.77442,0 -27.9435,-0.07562 -34.59618,-9.02758c-5.7353,-7.71751 -1.73128,-23.4599 -1.73128,-34.62033z" fill="#840000" stroke="#000000"/><path d="M-6.4634,560.42279c44.68069,0 80.90154,19.54183 80.90154,43.64791c0,12.02413 -0.67146,26.2488 -15.2499,34.14298c-14.64854,7.93213 -43.25771,9.50493 -65.65164,9.50493c-23.99475,0 -62.23043,-0.0756 -77.04602,-9.02755c-12.77253,-7.71751 -3.85552,-23.45992 -3.85552,-34.62036c0,-24.10608 36.22085,-43.64791 80.90154,-43.64791z" fill="none" stroke="#000000"/><path d="M-133.44004,636.31164c0,-4.19116 7.20932,5.69075 21.21648,7.96027c15.02175,2.43389 37.18714,-2.80227 45.91414,-10.16818c3.91139,-3.30137 2.83004,-18.39401 -1.50124,-30.92184c-4.72374,-13.66305 -12.79278,-24.69676 -9.32809,-24.69676c20.33887,0 17.35227,44.92903 17.35227,57.82654c0,12.89754 -16.48791,23.35302 -36.82677,23.35302c-20.33887,0 -36.82677,-10.45551 -36.82677,-23.35302z" fill="#430000" stroke="none"/><path d="M-131.94204,614.34867c0,-24.10608 16.26434,-43.64791 36.32743,-43.64791c20.06309,0 36.32743,19.54186 36.32743,43.64791c0,12.02413 -0.3015,26.2488 -6.84768,34.14298c-6.57768,7.93215 -19.42412,9.50491 -29.47972,9.50491c-10.77442,0 -27.9435,-0.0756 -34.59618,-9.02755c-5.7353,-7.71751 -1.73125,-23.4599 -1.73125,-34.62033z" fill="none" stroke="#000000"/><path d="M-30.15682,611.72551c0,-24.10608 16.26437,-43.64791 36.32743,-43.64791c20.06309,0 36.32743,19.54181 36.32743,43.64791c0,12.02413 -0.3015,26.2488 -6.84768,34.14298c-6.57768,7.93213 -19.42415,9.50493 -29.47975,9.50493c-10.77442,0 -27.9435,-0.07562 -34.59618,-9.02758c-5.7353,-7.71751 -1.73128,-23.4599 -1.73128,-34.62033z" fill="#840000" stroke="#000000"/><path d="M-30.88826,634.83961c0,-4.19116 7.20932,5.69075 21.21648,7.96027c15.02175,2.43389 37.18714,-2.80227 45.91414,-10.16818c3.91139,-3.30137 2.83004,-18.39401 -1.50124,-30.92184c-4.72374,-13.66305 -12.79278,-24.69676 -9.32809,-24.69676c20.33887,0 17.35227,44.92903 17.35227,57.82654c0,12.89754 -16.48791,23.35302 -36.82677,23.35302c-20.33887,0 -36.82677,-10.45551 -36.82677,-23.35302z" fill="#430000" stroke="none"/><path d="M-29.39026,612.87661c0,-24.10608 16.26434,-43.64791 36.32743,-43.64791c20.06309,0 36.32743,19.54186 36.32743,43.64791c0,12.02413 -0.3015,26.2488 -6.84768,34.14298c-6.57768,7.93215 -19.42412,9.50491 -29.47972,9.50491c-10.77442,0 -27.9435,-0.0756 -34.59618,-9.02755c-5.7353,-7.71751 -1.73125,-23.4599 -1.73125,-34.62033z" fill="none" stroke="#000000"/><path d="M-87.07551,611.23483c0,-24.10608 16.26437,-43.64791 36.32743,-43.64791c20.06309,0 36.32743,19.54181 36.32743,43.64791c0,12.02413 -0.3015,26.2488 -6.84768,34.14298c-6.57768,7.93213 -19.42415,9.50493 -29.47975,9.50493c-10.77442,0 -27.9435,-0.07562 -34.59618,-9.02758c-5.7353,-7.71751 -1.73128,-23.4599 -1.73128,-34.62033z" fill="#840000" stroke="#000000"/><path d="M-87.80696,634.34893c0,-4.19116 7.20932,5.69075 21.21648,7.96027c15.02175,2.43389 37.18714,-2.80227 45.91414,-10.16818c3.91139,-3.30137 2.83004,-18.39401 -1.50124,-30.92184c-4.72374,-13.66305 -12.79278,-24.69676 -9.32809,-24.69676c20.33887,0 17.35227,44.92903 17.35227,57.82654c0,12.89754 -16.48791,23.35302 -36.82677,23.35302c-20.33887,0 -36.82677,-10.45551 -36.82677,-23.35302z" fill="#430000" stroke="none"/><path d="M-86.30896,612.38596c0,-24.10608 16.26434,-43.64791 36.32743,-43.64791c20.06309,0 36.32743,19.54186 36.32743,43.64791c0,12.02413 -0.3015,26.2488 -6.84768,34.14298c-6.57768,7.93215 -19.42412,9.50491 -29.47972,9.50491c-10.77442,0 -27.9435,-0.0756 -34.59618,-9.02755c-5.7353,-7.71751 -1.73125,-23.4599 -1.73125,-34.62033z" fill="none" stroke="#000000"/></g><g data-paper-data="{&quot;index&quot;:null}" stroke-linecap="butt"><path d="M262.26771,607.27722c0,11.16046 8.91702,26.90283 -3.85552,34.62033c-14.81557,8.95195 -53.05127,9.02758 -77.04602,9.02758c-22.39393,0 -51.00311,-1.5728 -65.65164,-9.50493c-14.57846,-7.89418 -15.2499,-22.11885 -15.2499,-34.14298c0,-24.10611 36.22083,-43.64791 80.90152,-43.64791c44.68069,0 80.90154,19.54186 80.90154,43.64791z" fill="#840000" stroke="#000000"/><path d="M263.89671,630.39134c0,12.89751 -36.71875,23.35302 -82.0136,23.35302c-45.29485,0 -82.01357,-10.45551 -82.01357,-23.35302c0,-12.89751 -6.65117,-57.82651 38.64368,-57.82651c7.71591,0 -10.25391,11.03371 -20.77374,24.69676c-9.6458,12.52783 -12.05399,27.62048 -3.34327,30.92184c19.43508,7.36593 68.79765,12.60211 102.25122,10.16823c31.19406,-2.26951 47.24926,-12.15145 47.24926,-7.96029z" fill="#430000" stroke="none"/><path d="M305.90421,617.55526c0,11.16044 4.00403,26.90283 -1.73128,34.62033c-6.65268,8.95195 -23.82176,9.02758 -34.59618,9.02758c-10.0556,0 -22.90206,-1.5728 -29.47975,-9.50493c-6.54618,-7.89418 -6.84768,-22.11885 -6.84768,-34.14298c0,-24.10611 16.26434,-43.64791 36.32743,-43.64791c20.06306,0 36.32743,19.54183 36.32743,43.64791z" fill="#840000" stroke="#000000"/><path d="M260.56053,608.4284c0,11.16044 8.91702,26.90285 -3.85552,34.62036c-14.8156,8.95195 -53.05127,9.02755 -77.04602,9.02755c-22.39393,0 -51.00311,-1.5728 -65.65164,-9.50493c-14.57844,-7.89418 -15.2499,-22.11885 -15.2499,-34.14298c0,-24.10608 36.22085,-43.64791 80.90154,-43.64791c44.68069,0 80.90154,19.54183 80.90154,43.64791z" fill="none" stroke="#000000"/><path d="M306.63561,640.66936c0,12.89751 -16.48791,23.35302 -36.82677,23.35302c-20.33887,0 -36.82677,-10.45548 -36.82677,-23.35302c0,-12.89751 -2.98659,-57.82654 17.35227,-57.82654c3.46469,0 -4.60434,11.03371 -9.32809,24.69676c-4.33128,12.52783 -5.41263,27.62048 -1.50124,30.92184c8.727,7.3659 30.89239,12.60206 45.91414,10.16818c14.00716,-2.26951 21.21648,-12.15143 21.21648,-7.96027z" fill="#430000" stroke="none"/><path d="M305.13761,618.70637c0,11.16044 4.00405,26.90283 -1.73125,34.62033c-6.65268,8.95195 -23.82176,9.02755 -34.59618,9.02755c-10.0556,0 -22.90204,-1.57276 -29.47972,-9.50491c-6.54618,-7.89418 -6.84768,-22.11885 -6.84768,-34.14298c0,-24.10606 16.26434,-43.64791 36.32743,-43.64791c20.06309,0 36.32743,19.54183 36.32743,43.64791z" fill="none" stroke="#000000"/><path d="M203.35244,616.08321c0,11.16044 4.00403,26.90283 -1.73128,34.62033c-6.65268,8.95195 -23.82176,9.02758 -34.59618,9.02758c-10.0556,0 -22.90206,-1.5728 -29.47975,-9.50493c-6.54618,-7.89418 -6.84768,-22.11885 -6.84768,-34.14298c0,-24.10611 16.26434,-43.64791 36.32743,-43.64791c20.06306,0 36.32743,19.54183 36.32743,43.64791z" fill="#840000" stroke="#000000"/><path d="M204.08384,639.19733c0,12.89751 -16.48791,23.35302 -36.82677,23.35302c-20.33887,0 -36.82677,-10.45548 -36.82677,-23.35302c0,-12.89751 -2.98659,-57.82654 17.35227,-57.82654c3.46469,0 -4.60434,11.03371 -9.32809,24.69676c-4.33128,12.52783 -5.41263,27.62048 -1.50124,30.92184c8.727,7.3659 30.89239,12.60206 45.91414,10.16818c14.00716,-2.26951 21.21648,-12.15143 21.21648,-7.96027z" fill="#430000" stroke="none"/><path d="M202.58583,617.23431c0,11.16044 4.00405,26.90283 -1.73125,34.62033c-6.65268,8.95195 -23.82176,9.02755 -34.59618,9.02755c-10.0556,0 -22.90204,-1.57276 -29.47972,-9.50491c-6.54618,-7.89418 -6.84768,-22.11885 -6.84768,-34.14298c0,-24.10606 16.26434,-43.64791 36.32743,-43.64791c20.06309,0 36.32743,19.54183 36.32743,43.64791z" fill="none" stroke="#000000"/><path d="M260.27113,615.59253c0,11.16044 4.00403,26.90283 -1.73128,34.62033c-6.65268,8.95195 -23.82176,9.02758 -34.59618,9.02758c-10.0556,0 -22.90206,-1.5728 -29.47975,-9.50493c-6.54618,-7.89418 -6.84768,-22.11885 -6.84768,-34.14298c0,-24.10611 16.26434,-43.64791 36.32743,-43.64791c20.06306,0 36.32743,19.54183 36.32743,43.64791z" fill="#840000" stroke="#000000"/><path d="M261.00253,638.70665c0,12.89751 -16.48791,23.35302 -36.82677,23.35302c-20.33887,0 -36.82677,-10.45548 -36.82677,-23.35302c0,-12.89751 -2.98659,-57.82654 17.35227,-57.82654c3.46469,0 -4.60434,11.03371 -9.32809,24.69676c-4.33128,12.52783 -5.41263,27.62048 -1.50124,30.92184c8.727,7.3659 30.89239,12.60206 45.91414,10.16818c14.00716,-2.26951 21.21648,-12.15143 21.21648,-7.96027z" fill="#430000" stroke="none"/><path d="M259.50453,616.74366c0,11.16044 4.00405,26.90283 -1.73125,34.62033c-6.65268,8.95195 -23.82176,9.02755 -34.59618,9.02755c-10.0556,0 -22.90204,-1.57276 -29.47972,-9.50491c-6.54618,-7.89418 -6.84768,-22.11885 -6.84768,-34.14298c0,-24.10606 16.26434,-43.64791 36.32743,-43.64791c20.06309,0 36.32743,19.54183 36.32743,43.64791z" fill="none" stroke="#000000"/></g></g></g></svg>