<svg version="1.1" xmlns="http://www.w3.org/2000/svg" xmlns:xlink="http://www.w3.org/1999/xlink" width="574.84406" height="528.60771" viewBox="0,0,574.84406,528.60771"><g transform="translate(-67.47596,324.72463)"><g data-paper-data="{&quot;isPaintingLayer&quot;:true}" fill-rule="nonzero" stroke-width="4.5" stroke-linejoin="miter" stroke-miterlimit="10" stroke-dasharray="" stroke-dashoffset="0" style="mix-blend-mode: normal"><g fill="none" stroke="#000000" stroke-linecap="round"><path d="M570.82012,-47.69299l5.69867,-107.23938"/><path d="M601.29073,-142.64899l-72.31058,73.48574"/><path d="M565.26135,-42.76845l-37.41907,-120.63265"/></g><g fill="none" stroke="#000000" stroke-linecap="round"><path d="M235.97134,-30.44512l-21.05988,91.57972"/><path d="M179.29248,-10.98945l22.84129,78.97923"/><path d="M147.46014,49.95177l55.91407,-41.59747l47.22152,67.30208"/><path d="M193.67436,-18.27366l12.56319,66.25749"/></g><g fill="none" stroke="#000000" stroke-linecap="round"><g><path d="M420.48903,-101.28176l-16.14466,-63.58071l24.10042,-28.79179"/><path d="M345.92137,-190.49246l35.68429,14.5218l29.70581,104.64654"/></g><path d="M366.7854,-183.18027l-12.65645,-47.32411"/></g><g fill="none" stroke="#000000" stroke-linecap="round"><path d="M306.04567,-57.68975l20.37902,76.19984"/><path d="M304.92647,21.68119l32.16808,-40.40364"/><path d="M330.78963,-10.16045l-22.41226,-77.37502"/></g><g fill="none" stroke="#000000" stroke-linecap="round"><path d="M522.32453,-71.69858l-33.43653,61.37025"/><path d="M499.11016,-74.9443l14.9042,49.30138"/></g><g data-paper-data="{&quot;index&quot;:null}" stroke-linecap="butt"><g><g><path d="M453.30793,-256.99449l34.50966,95.3848l-39.02305,11.80279l-34.50966,-95.38482z" fill="#252525" stroke="#000000"/><path d="M453.30793,-256.99449l34.50966,95.3848l-39.02305,11.80279l-34.50966,-95.38482z" fill="#252525" stroke="#000000"/><path d="M485.07818,-168.4066c2.50838,6.93323 -12.85185,-33.52659 -20.81385,-48.20867c-7.59425,-14.00393 -7.68437,-2.13007 -10.36308,-1.3199c-2.60423,0.7877 -20.37197,-14.42333 -20.01937,6.15518c0.2141,12.49612 20.39035,67.09609 16.48395,63.3043c-3.21481,-3.12051 -34.41382,-92.9666 -35.57623,-96.17951c-1.3882,-3.83699 1.22,-0.50067 3.79433,-1.68633c6.51422,-3.00023 20.35895,-5.17213 24.2918,-6.36166c3.52642,-1.06656 1.20613,-21.41463 14.33234,7.63563c7.29805,16.15168 26.11891,71.82061 27.87013,76.66097z" fill="#141414" stroke="none"/><path d="M453.30793,-256.99449l34.50966,95.3848l-39.02305,11.80279l-34.50966,-95.38482z" fill="none" stroke="#000000"/><path d="M453.30793,-256.99449l34.50966,95.3848l-39.02305,11.80279l-34.50966,-95.38482z" fill="none" stroke="#000000"/></g><g><path d="M477.6355,-216.71019l6.98715,19.31251l-57.01219,17.24372l-6.98715,-19.31251z" fill="#252525" stroke="#000000"/><path d="M477.6355,-216.71019l6.98715,19.31251l-57.01219,17.24372l-6.98715,-19.31251z" fill="#252525" stroke="#000000"/><path d="M475.71049,-207.28143c-4.40499,-1.96811 -9.39871,1.94083 -13.31225,3.12451c-3.80475,1.15077 -21.31481,2.27902 -29.28917,8.87901c-4.84237,4.00781 -0.27826,14.91773 -3.94434,15.01963c-3.01705,0.08384 -7.85152,-18.55558 -8.08688,-19.2061c-0.99228,-2.74269 29.71041,-12.20002 37.72699,-14.62467c5.15205,-1.55831 13.52442,-5.04813 19.14961,-0.0639c3.12755,2.7712 5.44101,14.49528 5.79557,15.47531c0.50787,1.40376 -3.42126,-6.54035 -8.03955,-8.60377z" fill="#141414" stroke="none"/><path d="M477.6355,-216.71019l6.98715,19.31251l-57.01219,17.24372l-6.98715,-19.31251z" fill="none" stroke="#000000"/><path d="M477.6355,-216.71019l6.98715,19.31251l-57.01219,17.24372l-6.98715,-19.31251z" fill="none" stroke="#000000"/></g><g><path d="M469.94424,-248.35917l6.98717,19.31253l-64.41239,19.48197l-6.98714,-19.31253z" fill="#252525" stroke="#000000"/><path d="M469.94424,-248.35917l6.98717,19.31253l-64.41239,19.48197l-6.98714,-19.31253z" fill="#252525" stroke="#000000"/><path d="M476.01089,-230.31213c0.50787,1.40376 -3.54467,-6.50301 -8.61594,-8.42944c-4.83706,-1.83742 -10.58048,2.2983 -15.00199,3.63562c-4.29863,1.30014 -23.90505,3.06242 -33.09178,10.0291c-5.57853,4.23046 -0.94225,15.11858 -5.04154,15.3515c-3.37357,0.19166 -7.9847,-18.51535 -8.22007,-19.16585c-0.99228,-2.74269 33.70288,-13.40755 42.76,-16.14693c5.82079,-1.76054 15.32041,-5.59136 21.39275,-0.74238c3.37616,2.69601 5.46403,14.48834 5.81858,15.46834z" fill="#141414" stroke="none"/><path d="M469.94424,-248.35917l6.98717,19.31253l-64.41239,19.48197l-6.98714,-19.31253z" fill="none" stroke="#000000"/><path d="M469.94424,-248.35917l6.98717,19.31253l-64.41239,19.48197l-6.98714,-19.31253z" fill="none" stroke="#000000"/></g></g><g><path d="M494.85989,-180.5579l8.02499,22.18106l-66.5267,20.12152l-8.025,-22.18106z" fill="#252525" stroke="#000000"/><path d="M494.85989,-180.5579l8.02499,22.18106l-66.5267,20.12152l-8.025,-22.18106z" fill="#252525" stroke="#000000"/><path d="M492.56072,-169.70196c-5.12035,-2.24198 -10.9618,2.27969 -15.52843,3.66088c-4.43973,1.34283 -24.84703,2.72828 -34.17726,10.36047c-5.66571,4.63457 -0.41347,17.16192 -4.68535,17.29746c-3.51558,0.11154 -9.03655,-21.30603 -9.30686,-22.05314c-1.13968,-3.15007 34.6879,-14.18286 44.04232,-17.01215c6.01186,-1.81833 15.78715,-5.87474 22.3111,-0.16933c3.62725,3.17217 6.25246,16.6473 6.65967,17.77291c0.5833,1.61226 -3.94687,-7.50653 -9.31518,-9.85708z" fill="#141414" stroke="none"/><path d="M494.85989,-180.5579l8.02499,22.18106l-66.5267,20.12152l-8.025,-22.18106z" fill="none" stroke="#000000"/><path d="M494.85989,-180.5579l8.02499,22.18106l-66.5267,20.12152l-8.025,-22.18106z" fill="none" stroke="#000000"/></g></g><g data-paper-data="{&quot;index&quot;:null}" stroke-linecap="butt"><g><g><path d="M491.86409,-124.93376l-49.4119,88.58692l-34.49332,-21.73283l49.4119,-88.58692z" fill="#252525" stroke="#000000"/><path d="M491.86409,-124.93376l-49.4119,88.58692l-34.49332,-21.73283l49.4119,-88.58692z" fill="#252525" stroke="#000000"/><path d="M445.78942,-42.87107c-3.59162,6.43911 16.89433,-31.68256 22.76286,-47.31959c5.59747,-14.9148 -3.4286,-7.19941 -5.79635,-8.69126c-2.30196,-1.45032 -2.4617,-24.83928 -17.77122,-11.08357c-9.29655,8.35302 -37.30398,59.38067 -37.00115,53.94505c0.24922,-4.47329 47.64852,-86.92939 49.31289,-89.91332c1.98766,-3.56354 1.1778,0.59313 3.7607,1.76002c6.53585,2.95276 17.25142,11.98441 20.72776,14.1747c3.11705,1.96396 16.96268,-13.12663 3.62865,15.82885c-7.41359,16.09898 -37.11674,66.80377 -39.62416,71.29916z" fill="#141414" stroke="none"/><path d="M491.86409,-124.93376l-49.4119,88.58692l-34.49332,-21.73283l49.4119,-88.58692z" fill="none" stroke="#000000"/><path d="M491.86409,-124.93376l-49.4119,88.58692l-34.49332,-21.73283l49.4119,-88.58692z" fill="none" stroke="#000000"/></g><g><path d="M477.38888,-80.15515l-10.00441,17.93615l-50.3943,-31.7514l10.00441,-17.93617z" fill="#252525" stroke="#000000"/><path d="M477.38888,-80.15515l-10.00441,17.93615l-50.3943,-31.7514l10.00441,-17.93617z" fill="#252525" stroke="#000000"/><path d="M469.00655,-75.42823c-1.40122,-4.6167 -7.62664,-5.82554 -11.08591,-8.00508c-3.3631,-2.11896 -15.69316,-14.60274 -25.90466,-16.2985c-6.20088,-1.02973 -11.44807,9.56858 -13.92817,6.86681c-2.04103,-2.22348 8.86617,-18.09274 9.20316,-18.69688c1.4208,-2.54721 28.68877,14.43968 35.77477,18.90429c4.55403,2.86928 12.67769,6.90434 12.60103,14.41962c-0.04263,4.17844 -7.38,13.61079 -7.88769,14.52097c-0.72719,1.30371 2.69653,-6.87096 1.22744,-11.71121z" fill="#141414" stroke="none"/><path d="M477.38888,-80.15515l-10.00441,17.93615l-50.3943,-31.7514l10.00441,-17.93617z" fill="none" stroke="#000000"/><path d="M477.38888,-80.15515l-10.00441,17.93615l-50.3943,-31.7514l10.00441,-17.93617z" fill="none" stroke="#000000"/></g><g><path d="M496.24807,-106.7097l-10.00442,17.93617l-56.93549,-35.87275l10.00442,-17.93615z" fill="#252525" stroke="#000000"/><path d="M496.24807,-106.7097l-10.00442,17.93617l-56.93549,-35.87275l10.00442,-17.93615z" fill="#252525" stroke="#000000"/><path d="M486.59594,-90.29825c-0.72719,1.30371 2.58743,-6.93968 0.71795,-12.03222c-1.78314,-4.85733 -8.67125,-6.48368 -12.57953,-8.94611c-3.79966,-2.39402 -17.9827,-16.04534 -29.26584,-18.41628c-6.85157,-1.43973 -12.03499,9.19881 -14.89804,6.25576c-2.35616,-2.42203 8.74847,-18.16692 9.08545,-18.77108c1.4208,-2.54721 32.21778,16.66318 40.22357,21.70729c5.14513,3.24173 14.26521,7.90458 14.58379,15.66887c0.17712,4.31688 -7.35967,13.62359 -7.86733,14.53376z" fill="#141414" stroke="none"/><path d="M496.24807,-106.7097l-10.00442,17.93617l-56.93549,-35.87275l10.00442,-17.93615z" fill="none" stroke="#000000"/><path d="M496.24807,-106.7097l-10.00442,17.93617l-56.93549,-35.87275l10.00442,-17.93615z" fill="none" stroke="#000000"/></g></g><g><path d="M461.37793,-43.44934l-11.49037,20.60026l-58.80443,-37.05022l11.49037,-20.60028z" fill="#252525" stroke="#000000"/><path d="M461.37793,-43.44934l-11.49037,20.60026l-58.80443,-37.05022l11.49037,-20.60028z" fill="#252525" stroke="#000000"/><path d="M451.67253,-38.06947c-1.66333,-5.33646 -8.90716,-6.78386 -12.94369,-9.32712c-3.92437,-2.47256 -18.34783,-16.97573 -30.22762,-19.01882c-7.21389,-1.24067 -13.23146,10.93756 -16.1341,7.80036c-2.38874,-2.58181 10.16648,-20.79058 10.5535,-21.48446c1.63183,-2.92557 33.44896,16.89883 41.71753,22.10852c5.31403,3.34814 14.78515,8.0713 14.75304,16.73805c-0.01788,4.81864 -8.47328,15.63423 -9.05638,16.67962c-0.83519,1.49737 3.08163,-7.90124 1.33775,-13.49611z" fill="#141414" stroke="none"/><path d="M461.37793,-43.44934l-11.49037,20.60026l-58.80443,-37.05022l11.49037,-20.60028z" fill="none" stroke="#000000"/><path d="M461.37793,-43.44934l-11.49037,20.60026l-58.80443,-37.05022l11.49037,-20.60028z" fill="none" stroke="#000000"/></g></g><g stroke-linecap="butt"><g><g><path d="M344.20542,-152.81814l45.69124,90.56207l-37.32751,16.39398l-45.69122,-90.56209z" fill="#252525" stroke="#000000"/><path d="M344.20542,-152.81814l45.69124,90.56207l-37.32751,16.39398l-45.69122,-90.56209z" fill="#252525" stroke="#000000"/><path d="M386.36249,-68.67573c3.32114,6.58268 -16.77681,-31.74493 -26.44083,-45.36711c-9.21767,-12.99298 -7.88425,-1.19388 -10.44657,-0.06855c-2.49106,1.09409 -21.95356,-11.87818 -19.13752,8.50981c1.71001,12.38041 28.28372,64.16915 23.9511,60.8728c-3.5656,-2.71278 -45.30629,-88.17281 -46.84534,-91.22324c-1.83799,-3.64298 1.15122,-0.64325 3.56492,-2.12886c6.10774,-3.75924 19.59244,-7.57454 23.3544,-9.22675c3.37318,-1.48148 -1.36872,-21.40487 15.14406,5.86313c9.18095,15.16076 34.53717,68.17316 36.8558,72.76878z" fill="#141414" stroke="none"/><path d="M344.20542,-152.81814l45.69124,90.56207l-37.32751,16.39398l-45.69122,-90.56209z" fill="none" stroke="#000000"/><path d="M344.20542,-152.81814l45.69124,90.56207l-37.32751,16.39398l-45.69122,-90.56209z" fill="none" stroke="#000000"/></g><g><path d="M373.18509,-115.73938l9.25108,18.33605l-54.53501,23.95141l-9.25108,-18.33607z" fill="#252525" stroke="#000000"/><path d="M373.18509,-115.73938l9.25108,18.33605l-54.53501,23.95141l-9.25108,-18.33607z" fill="#252525" stroke="#000000"/><path d="M372.40383,-106.14786c-4.60909,-1.42606 -9.09841,3.05314 -12.8419,4.69725c-3.63944,1.59841 -20.88813,4.81682 -28.0141,12.32484c-4.32721,4.55921 1.51137,14.84359 -2.11607,15.38406c-2.98525,0.44479 -10.0185,-17.48102 -10.33011,-18.09862c-1.31381,-2.60402 28.03436,-15.67239 35.70262,-19.04022c4.92819,-2.16446 12.82202,-6.63243 19.00396,-2.3582c3.4371,2.37645 7.13883,13.73882 7.60828,14.66929c0.67244,1.33279 -4.18036,-6.08323 -9.01264,-7.57837z" fill="#141414" stroke="none"/><path d="M373.18509,-115.73938l9.25108,18.33605l-54.53501,23.95141l-9.25108,-18.33607z" fill="none" stroke="#000000"/><path d="M373.18509,-115.73938l9.25108,18.33605l-54.53501,23.95141l-9.25108,-18.33607z" fill="none" stroke="#000000"/></g><g><path d="M361.75666,-146.23861l9.2511,18.33609l-61.61367,27.0603l-9.25106,-18.33607z" fill="#252525" stroke="#000000"/><path d="M361.75666,-146.23861l9.2511,18.33609l-61.61367,27.0603l-9.25106,-18.33607z" fill="#252525" stroke="#000000"/><path d="M369.94222,-129.04862c0.67244,1.33279 -4.2984,-6.03139 -9.56397,-7.33622c-5.0224,-1.24454 -10.22882,3.54962 -14.45822,5.40715c-4.11186,1.80589 -23.36584,5.90496 -31.6515,13.92233c-5.03138,4.86846 0.87624,15.12255 -3.16561,15.84502c-3.32629,0.59457 -10.1459,-17.42507 -10.45753,-18.04269c-1.31381,-2.60402 31.85335,-17.34966 40.51695,-21.15463c5.56788,-2.44536 14.53997,-7.38696 21.14962,-3.30058c3.6749,2.272 7.16082,13.72915 7.63026,14.6596z" fill="#141414" stroke="none"/><path d="M361.75666,-146.23861l9.2511,18.33609l-61.61367,27.0603l-9.25106,-18.33607z" fill="none" stroke="#000000"/><path d="M361.75666,-146.23861l9.2511,18.33609l-61.61367,27.0603l-9.25106,-18.33607z" fill="none" stroke="#000000"/></g></g><g><path d="M394.61758,-81.91164l10.62517,21.05956l-63.63612,27.94861l-10.62518,-21.05956z" fill="#252525" stroke="#000000"/><path d="M394.61758,-81.91164l10.62517,21.05956l-63.63612,27.94861l-10.62518,-21.05956z" fill="#252525" stroke="#000000"/><path d="M393.63588,-70.85842c-5.35212,-1.61225 -10.60964,3.57684 -14.97785,5.49533c-4.24682,1.86517 -24.34103,5.68608 -32.68945,14.38135c-5.06951,5.2801 1.64609,17.08776 -2.57878,17.73427c-3.47689,0.53204 -11.52459,-20.06961 -11.88248,-20.77896c-1.50896,-2.9908 32.73837,-18.23741 41.68635,-22.16729c5.75066,-2.52564 14.96941,-7.72424 22.13005,-2.8417c3.98124,2.71464 8.20229,15.77808 8.74145,16.84679c0.77231,1.53075 -4.81794,-6.97948 -10.42927,-8.66978z" fill="#141414" stroke="none"/><path d="M394.61758,-81.91164l10.62517,21.05956l-63.63612,27.94861l-10.62518,-21.05956z" fill="none" stroke="#000000"/><path d="M394.61758,-81.91164l10.62517,21.05956l-63.63612,27.94861l-10.62518,-21.05956z" fill="none" stroke="#000000"/></g></g><g data-paper-data="{&quot;index&quot;:null}" stroke-linecap="butt"><g><g><path d="M299.98478,61.49626l-45.50663,52.2693l-22.29602,-25.74692l45.50663,-52.26929z" fill="#252525" stroke="#000000"/><path d="M299.98478,61.49626l-45.50663,52.2693l-22.29602,-25.74692l45.50663,-52.26929z" fill="#252525" stroke="#000000"/><path d="M257.61296,109.83239c-3.30774,3.79929 15.71706,-18.90935 21.70155,-28.92681c5.70807,-9.5548 -1.64511,-6.31176 -3.17559,-8.07915c-1.48795,-1.71821 1.04798,-19.17965 -11.49991,-13.18058c-7.61959,3.64286 -33.50581,33.87697 -32.67247,29.91318c0.68586,-3.26206 44.05305,-51.52385 45.58589,-53.28447c1.83056,-2.1026 0.77822,0.76824 2.49995,2.35327c4.35673,4.01085 11.02472,13.70732 13.27176,16.30217c2.01482,2.32668 13.66323,-5.07228 0.81078,12.79333c-7.14585,9.93312 -34.21268,39.45666 -36.52194,42.10912z" fill="#141414" stroke="none"/><path d="M299.98478,61.49626l-45.50663,52.2693l-22.29602,-25.74692l45.50663,-52.26929z" fill="none" stroke="#000000"/><path d="M299.98478,61.49626l-45.50663,52.2693l-22.29602,-25.74692l45.50663,-52.26929z" fill="none" stroke="#000000"/></g><g><path d="M284.52,90.8286l-9.2137,10.58294l-32.57419,-37.6159l9.2137,-10.58294z" fill="#252525" stroke="#000000"/><path d="M284.52,90.8286l-9.2137,10.58294l-32.57419,-37.6159l9.2137,-10.58294z" fill="#252525" stroke="#000000"/><path d="M275.75936,100.40541c-0.66973,0.76925 2.71418,-4.36902 2.20825,-8.38073c-0.4826,-3.82642 -4.81412,-6.45254 -7.05016,-9.03464c-2.17387,-2.51034 -9.60949,-15.22508 -16.747,-19.31894c-4.33423,-2.48595 -9.3017,3.95157 -10.77568,1.25205c-1.21304,-2.22162 8.41444,-11.01511 8.72479,-11.37157c1.30851,-1.50295 18.95607,18.7066 23.53638,23.99582c2.94367,3.39925 8.31745,8.65629 7.41072,14.23148c-0.50414,3.09973 -6.83976,8.08955 -7.30731,8.62657z" fill="#141414" stroke="none"/><path d="M284.52,90.8286l-9.2137,10.58294l-32.57419,-37.6159l9.2137,-10.58294z" fill="none" stroke="#000000"/><path d="M284.52,90.8286l-9.2137,10.58294l-32.57419,-37.6159l9.2137,-10.58294z" fill="none" stroke="#000000"/></g><g><path d="M301.06627,76.28271l-9.21372,10.58295l-36.80231,-42.49846l9.21372,-10.58294z" fill="#252525" stroke="#000000"/><path d="M301.06627,76.28271l-9.21372,10.58295l-36.80231,-42.49846l9.21372,-10.58294z" fill="#252525" stroke="#000000"/><path d="M292.2782,85.82793c-0.6697,0.76923 2.64367,-4.45044 1.87892,-8.76104c-0.72945,-4.11151 -5.48937,-7.23227 -8.0156,-10.14952c-2.45602,-2.83618 -11.08942,-16.93412 -18.91963,-21.82787c-4.75483,-2.97167 -9.68106,3.51349 -11.4026,0.52812c-1.41675,-2.45686 8.33837,-11.10298 8.64872,-11.45945c1.30849,-1.50295 21.23718,21.34077 26.412,27.31652c3.32576,3.84049 9.34359,9.84125 8.69238,15.71145c-0.36209,3.26377 -6.82661,8.10471 -7.29416,8.64176z" fill="#141414" stroke="none"/><path d="M301.06627,76.28271l-9.21372,10.58295l-36.80231,-42.49846l9.21372,-10.58294z" fill="none" stroke="#000000"/><path d="M301.06627,76.28271l-9.21372,10.58295l-36.80231,-42.49846l9.21372,-10.58294z" fill="none" stroke="#000000"/></g></g><g><path d="M268.86774,113.72356l-10.58224,12.15485l-38.01039,-43.89343l10.58224,-12.15487z" fill="#252525" stroke="#000000"/><path d="M268.86774,113.72356l-10.58224,12.15485l-38.01039,-43.89343l10.58224,-12.15487z" fill="#252525" stroke="#000000"/><path d="M258.80196,124.71836c-0.76917,0.88347 3.10739,-5.02947 2.48968,-9.67933c-0.58916,-4.43508 -5.62466,-7.5212 -8.23384,-10.53423c-2.53666,-2.92926 -11.24604,-17.72819 -19.54169,-22.54322c-5.03746,-2.9239 -10.73692,4.47659 -12.46488,1.33564c-1.42203,-2.58485 9.65352,-12.66362 10.00995,-13.07304c1.50285,-1.7262 22.09423,21.85759 27.43891,28.02951c3.43489,3.96654 9.69793,10.10957 8.69268,16.55456c-0.55894,3.58336 -7.85381,9.29326 -8.39081,9.91005z" fill="#141414" stroke="none"/><path d="M268.86774,113.72356l-10.58224,12.15485l-38.01039,-43.89343l10.58224,-12.15487z" fill="none" stroke="#000000"/><path d="M268.86774,113.72356l-10.58224,12.15485l-38.01039,-43.89343l10.58224,-12.15487z" fill="none" stroke="#000000"/></g></g><g data-paper-data="{&quot;index&quot;:null}" stroke-linecap="butt"><g><g><path d="M310.2963,26.80626l61.70685,35.24448l-20.3635,35.16559l-61.70683,-35.24452z" fill="#252525" stroke="#000000"/><path d="M310.2963,26.80626l61.70685,35.24448l-20.3635,35.16559l-61.70683,-35.24452z" fill="#252525" stroke="#000000"/><path d="M347.32496,94.44898c-3.13135,-1.78852 -39.533,-21.15306 -49.55433,-28.44899c-18.02426,-13.12241 -3.37841,-10.20673 -1.53822,-13.38456c2.0523,-3.54409 7.75864,-16.09921 11.93383,-21.92913c1.64998,-2.30392 -0.09641,-4.81592 2.38582,-3.39814c2.07851,1.18715 60.58639,33.19201 61.99191,36.2494c1.70785,3.7151 -33.49007,-16.84504 -42.84034,-17.53012c-15.39796,-1.12819 -9.16324,15.68971 -10.52223,18.0365c-1.39782,2.4139 -10.36881,2.03098 -2.05244,9.5132c8.71911,7.84453 34.68128,23.45363 30.196,20.89183z" fill="#141414" stroke="none"/><path d="M310.2963,26.80626l61.70685,35.24448l-20.3635,35.16559l-61.70683,-35.24452z" fill="none" stroke="#000000"/><path d="M310.2963,26.80626l61.70685,35.24448l-20.3635,35.16559l-61.70683,-35.24452z" fill="none" stroke="#000000"/></g><g><path d="M342.87725,34.38477l12.49376,7.13594l-29.75083,51.37647l-12.49374,-7.13592z" fill="#252525" stroke="#000000"/><path d="M342.87725,34.38477l12.49376,7.13594l-29.75083,51.37647l-12.49374,-7.13592z" fill="#252525" stroke="#000000"/><path d="M324.91252,92.05035c-0.634,-0.36211 -8.7855,-2.93364 -9.95353,-5.89769c-2.10081,-5.33107 2.98949,-12.83831 5.67801,-17.48105c4.18332,-7.22412 20.33382,-34.88511 22.10816,-33.87171c0.42084,0.24037 13.04046,5.38454 12.09029,8.1358c-1.15456,3.34313 -8.03108,-1.25134 -12.47375,3.0127c-7.31613,7.02201 -13.31389,22.96444 -15.29934,26.39309c-2.04221,3.52667 -6.45492,7.93279 -6.26739,12.03165c0.19661,4.29733 5.0257,8.19589 4.11756,7.67721z" fill="#141414" stroke="none"/><path d="M342.87725,34.38477l12.49376,7.13594l-29.75083,51.37647l-12.49374,-7.13592z" fill="none" stroke="#000000"/><path d="M342.87725,34.38477l12.49376,7.13594l-29.75083,51.37647l-12.49374,-7.13592z" fill="none" stroke="#000000"/></g><g><path d="M325.15921,19.454l12.49376,7.13592l-33.61247,58.04516l-12.49378,-7.13594z" fill="#252525" stroke="#000000"/><path d="M325.15921,19.454l12.49376,7.13592l-33.61247,58.04516l-12.49378,-7.13594z" fill="#252525" stroke="#000000"/><path d="M303.35781,83.74504c-0.634,-0.36211 -8.9032,-2.73035 -9.9415,-5.91842c-1.86746,-5.73402 3.81108,-14.25705 6.84856,-19.50247c4.7263,-8.1618 22.96022,-39.42063 24.73454,-38.40719c0.42084,0.24037 13.15701,5.18327 12.02081,8.25582c-1.38065,3.73355 -8.21951,-0.92598 -13.04634,4.00147c-7.9488,8.11451 -15.04048,25.94611 -17.28364,29.81981c-2.30729,3.98445 -7.11123,9.06614 -7.14919,13.55436c-0.03977,4.70556 4.7249,8.71531 3.81678,8.19661z" fill="#141414" stroke="none"/><path d="M325.15921,19.454l12.49376,7.13592l-33.61247,58.04516l-12.49378,-7.13594z" fill="none" stroke="#000000"/><path d="M325.15921,19.454l12.49376,7.13592l-33.61247,58.04516l-12.49378,-7.13594z" fill="none" stroke="#000000"/></g></g><g><path d="M370.01157,42.95308l14.34948,8.19586l-34.71583,59.95046l-14.34948,-8.19584z" fill="#252525" stroke="#000000"/><path d="M370.01157,42.95308l14.34948,8.19586l-34.71583,59.95046l-14.34948,-8.19584z" fill="#252525" stroke="#000000"/><path d="M348.83598,110.12071c-0.7282,-0.41591 -10.10706,-3.34067 -11.43025,-6.77662c-2.37984,-6.17989 3.5497,-14.9458 6.68689,-20.36338c4.88143,-8.42972 23.72544,-40.708 25.76329,-39.54406c0.48333,0.27606 14.99384,6.15585 13.87626,9.36119c-1.35801,3.89492 -9.25062,-1.39121 -14.40749,3.6c-8.49229,8.21946 -15.53556,26.79703 -17.85236,30.79788c-2.38303,4.11523 -7.50648,9.27131 -7.32297,14.03404c0.19236,4.99337 5.72964,9.48668 4.68663,8.89097z" fill="#141414" stroke="none"/><path d="M370.01157,42.95308l14.34948,8.19586l-34.71583,59.95046l-14.34948,-8.19584z" fill="none" stroke="#000000"/><path d="M370.01157,42.95308l14.34948,8.19586l-34.71583,59.95046l-14.34948,-8.19584z" fill="none" stroke="#000000"/></g></g><g stroke-linecap="butt"><g><g><path d="M400.17449,-32.15565l20.31893,99.37968l-40.32178,6.02164l-20.31891,-99.37968z" fill="#252525" stroke="#000000"/><path d="M400.17449,-32.15565l20.31893,99.37968l-40.32178,6.02164l-20.31891,-99.37968z" fill="#252525" stroke="#000000"/><path d="M418.76815,60.1018c1.47691,7.2236 -7.85634,-35.03541 -13.60604,-50.71654c-5.48414,-14.95684 -7.29446,-3.22144 -10.06231,-2.8081c-2.6909,0.4019 -18.06611,-17.22399 -20.70016,3.18831c-1.59949,12.39517 10.44924,69.34308 7.13373,65.0251c-2.72853,-3.55356 -20.57461,-96.97312 -21.25903,-100.32058c-0.81736,-3.99768 1.27968,-0.31853 3.99869,-1.11851c6.88029,-2.02431 20.89362,-2.16642 24.95738,-2.7733c3.64378,-0.54414 4.29752,-21.01363 13.07417,9.6325c4.87973,17.03897 15.43247,74.84807 16.46357,79.89116z" fill="#141414" stroke="none"/><path d="M400.17449,-32.15565l20.31893,99.37968l-40.32178,6.02164l-20.31891,-99.37968z" fill="none" stroke="#000000"/><path d="M400.17449,-32.15565l20.31893,99.37968l-40.32178,6.02164l-20.31891,-99.37968z" fill="none" stroke="#000000"/></g><g><path d="M418.40579,11.22954l4.11395,20.12133l-58.90959,8.79756l-4.11397,-20.12135z" fill="#252525" stroke="#000000"/><path d="M418.40579,11.22954l4.11395,20.12133l-58.90959,8.79756l-4.11397,-20.12135z" fill="#252525" stroke="#000000"/><path d="M415.13442,20.27969c-4.07319,-2.58585 -9.58077,0.55797 -13.62455,1.16188c-3.93137,0.58712 -21.42005,-0.83469 -30.26687,4.5397c-5.37218,3.26357 -2.43769,14.71984 -6.07982,14.28925c-2.99734,-0.35437 -5.07892,-19.49772 -5.2175,-20.17547c-0.58424,-2.85757 31.16505,-7.76456 39.44842,-9.00159c5.32353,-0.79504 14.11331,-3.03444 18.95661,2.71255c2.69282,3.19528 3.28242,15.13089 3.49119,16.15195c0.29904,1.46256 -2.43708,-6.96719 -6.70751,-9.67825z" fill="#141414" stroke="none"/><path d="M418.40579,11.22954l4.11395,20.12133l-58.90959,8.79756l-4.11397,-20.12135z" fill="none" stroke="#000000"/><path d="M418.40579,11.22954l4.11395,20.12133l-58.90959,8.79756l-4.11397,-20.12135z" fill="none" stroke="#000000"/></g><g><path d="M415.38339,-21.20005l4.11397,20.12137l-66.55608,9.93946l-4.11395,-20.12137z" fill="#252525" stroke="#000000"/><path d="M415.38339,-21.20005l4.11397,20.12137l-66.55608,9.93946l-4.11395,-20.12137z" fill="#252525" stroke="#000000"/><path d="M418.76999,-2.46424c0.29904,1.46256 -2.56461,-6.94815 -7.30308,-9.58931c-4.51964,-2.51916 -10.80187,0.74036 -15.37054,1.42266c-4.44169,0.6633 -24.0965,-0.43502 -34.19602,5.12645c-6.13283,3.37715 -3.12376,14.82232 -7.21354,14.45858c-3.36573,-0.29935 -5.21652,-19.47717 -5.35511,-20.15494c-0.58424,-2.85757 35.2904,-8.38063 44.64893,-9.77823c6.0145,-0.89821 15.96909,-3.31158 21.2744,2.36639c2.94972,3.15693 3.3062,15.12733 3.51495,16.14838z" fill="#141414" stroke="none"/><path d="M415.38339,-21.20005l4.11397,20.12137l-66.55608,9.93946l-4.11395,-20.12137z" fill="none" stroke="#000000"/><path d="M415.38339,-21.20005l4.11397,20.12137l-66.55608,9.93946l-4.11395,-20.12137z" fill="none" stroke="#000000"/></g></g><g><path d="M430.20792,49.49672l4.72502,23.11004l-68.74076,10.26577l-4.72503,-23.11004z" fill="#252525" stroke="#000000"/><path d="M430.20792,49.49672l4.72502,23.11004l-68.74076,10.26577l-4.72503,-23.11004z" fill="#252525" stroke="#000000"/><path d="M426.35942,59.90474c-4.74129,-2.96051 -11.17648,0.66666 -15.89511,1.37133c-4.58747,0.68511 -24.98006,-0.9022 -35.31808,5.29696c-6.27767,3.76435 -2.89674,16.9207 -7.14316,16.43561c-3.49462,-0.39922 -5.85274,-22.39086 -6.01191,-23.16927c-0.67104,-3.282 36.37738,-9.00497 46.04311,-10.44843c6.21194,-0.92769 16.47198,-3.5243 22.10001,3.06652c3.12913,3.66445 3.77334,17.37779 4.01311,18.55053c0.34344,1.67978 -2.81707,-7.99936 -7.78799,-11.10322z" fill="#141414" stroke="none"/><path d="M430.20792,49.49672l4.72502,23.11004l-68.74076,10.26577l-4.72503,-23.11004z" fill="none" stroke="#000000"/><path d="M430.20792,49.49672l4.72502,23.11004l-68.74076,10.26577l-4.72503,-23.11004z" fill="none" stroke="#000000"/></g></g><g stroke-linecap="butt"><g><g><path d="M491.07149,25.79817l-35.87554,61.34212l-35.19888,-20.30587l35.87554,-61.3421z" fill="#252525" stroke="#000000"/><path d="M491.07149,25.79817l-35.87554,61.34212l-35.19888,-20.30587l35.87554,-61.3421z" fill="#252525" stroke="#000000"/><path d="M457.5532,82.58854c-2.60769,4.45876 12.09675,-22.02629 15.73601,-33.17596c3.47114,-10.6347 -4.11102,-5.82476 -6.5272,-7.21865c-2.34903,-1.35511 -5.34181,-19.04004 -18.12096,-10.37613c-7.76002,5.26107 -27.99575,40.6465 -28.37042,36.57484c-0.3083,-3.35082 34.41248,-60.28896 35.62092,-62.35518c1.44313,-2.46757 1.18382,0.58086 3.76359,1.75355c6.52798,2.96745 17.73977,10.99795 21.28721,13.04443c3.18082,1.835 14.416,-8.00232 5.34844,12.36558c-5.04149,11.32436 -26.91707,46.27468 -28.73759,49.38752z" fill="#141414" stroke="none"/><path d="M491.07149,25.79817l-35.87554,61.34212l-35.19888,-20.30587l35.87554,-61.3421z" fill="none" stroke="#000000"/><path d="M491.07149,25.79817l-35.87554,61.34212l-35.19888,-20.30587l35.87554,-61.3421z" fill="none" stroke="#000000"/></g><g><path d="M482.84942,57.98943l-7.26371,12.4199l-51.42514,-29.66662l7.26371,-12.4199z" fill="#252525" stroke="#000000"/><path d="M482.84942,57.98943l-7.26371,12.4199l-51.42514,-29.66662l7.26371,-12.4199z" fill="#252525" stroke="#000000"/><path d="M475.51175,60.61464c-1.88359,-3.64525 -7.90664,-5.26042 -11.43665,-7.29685c-3.4319,-1.97983 -16.58709,-12.79997 -26.43175,-15.23247c-5.9781,-1.47709 -9.64313,5.93663 -12.31237,3.61614c-2.19671,-1.90968 6.17031,-12.66654 6.41498,-13.08489c1.03159,-1.76383 28.8338,14.14236 36.06476,18.31383c4.64717,2.68088 12.80537,6.64491 13.64617,12.31295c0.46751,3.1514 -5.31212,9.44869 -5.68072,10.07893c-0.52797,0.90276 1.71035,-4.8859 -0.26445,-8.70767z" fill="#141414" stroke="none"/><path d="M482.84942,57.98943l-7.26371,12.4199l-51.42514,-29.66662l7.26371,-12.4199z" fill="none" stroke="#000000"/><path d="M482.84942,57.98943l-7.26371,12.4199l-51.42514,-29.66662l7.26371,-12.4199z" fill="none" stroke="#000000"/></g><g><path d="M497.42393,40.05816l-7.26371,12.41991l-58.10012,-33.51736l7.26371,-12.4199z" fill="#252525" stroke="#000000"/><path d="M497.42393,40.05816l-7.26371,12.41991l-58.10012,-33.51736l7.26371,-12.4199z" fill="#252525" stroke="#000000"/><path d="M490.30745,51.36611c-0.52797,0.90276 1.59901,-4.95011 -0.78436,-9.00761c-2.27333,-3.87008 -8.97258,-5.87536 -12.96082,-8.1761c-3.87737,-2.23683 -18.92349,-14.14785 -29.86171,-17.21117c-6.6421,-1.86016 -10.24205,5.59113 -13.30208,3.0452c-2.5183,-2.0952 6.0502,-12.73586 6.29487,-13.15421c1.03157,-1.76383 32.435,16.21987 40.60454,20.9328c5.25036,3.02888 14.42535,7.57945 15.6695,13.4802c0.69173,3.28074 -5.29134,9.46065 -5.65996,10.09091z" fill="#141414" stroke="none"/><path d="M497.42393,40.05816l-7.26371,12.41991l-58.10012,-33.51736l7.26371,-12.4199z" fill="none" stroke="#000000"/><path d="M497.42393,40.05816l-7.26371,12.41991l-58.10012,-33.51736l7.26371,-12.4199z" fill="none" stroke="#000000"/></g></g><g><path d="M472.19687,83.9097l-8.34261,14.26468l-60.00727,-34.61754l8.34259,-14.26468z" fill="#252525" stroke="#000000"/><path d="M472.19687,83.9097l-8.34261,14.26468l-60.00727,-34.61754l8.34259,-14.26468z" fill="#252525" stroke="#000000"/><path d="M463.68967,86.87888c-2.21844,-4.21849 -9.23175,-6.1287 -13.35085,-8.50498c-4.00464,-2.31023 -19.38114,-14.8918 -30.84271,-17.77477c-6.95992,-1.75067 -11.16012,6.76957 -14.2811,4.07252c-2.56843,-2.21956 7.06983,-14.55774 7.35084,-15.03821c1.18478,-2.02582 33.62576,16.53671 42.06345,21.40434c5.42271,3.12831 14.93642,7.76404 15.95915,14.30687c0.56863,3.63777 -6.09819,10.85381 -6.52154,11.57768c-0.6064,1.03685 1.94865,-5.62069 -0.37724,-10.04345z" fill="#141414" stroke="none"/><path d="M472.19687,83.9097l-8.34261,14.26468l-60.00727,-34.61754l8.34259,-14.26468z" fill="none" stroke="#000000"/><path d="M472.19687,83.9097l-8.34261,14.26468l-60.00727,-34.61754l8.34259,-14.26468z" fill="none" stroke="#000000"/></g></g><g stroke-linecap="butt"><path d="M403.67215,138.47971c-31.54084,8.43535 -61.87347,-2.53851 -67.74978,-24.5108c-5.8763,-21.97227 14.92893,-46.62254 46.46979,-55.05788c31.54084,-8.43535 61.87347,2.53851 67.74978,24.5108c5.8763,21.97227 -14.92891,46.62254 -46.46979,55.05788z" fill="#746e31" stroke="#000000"/><path d="M438.54056,70.89415c0.32069,1.19909 8.92182,3.4952 4.24501,10.83568c-13.7797,21.62782 -54.10785,63.31916 -58.43788,61.83819c-1.92638,-0.65887 -46.30642,-22.18813 -44.78326,-31.01937c0.72996,-4.23231 26.48092,8.93676 40.10597,8.46821c4.87444,-0.16762 7.98545,-10.71804 8.13927,-12.3553c1.30834,-13.9253 -1.81411,-25.11591 6.33369,-34.83942c4.45957,-5.322 16.04864,14.23857 27.12401,16.24798c7.37151,1.33742 16.42726,-14.42017 16.0252,-16.45276c-0.38089,-1.9255 -11.45704,-7.04092 -24.49625,-8.71654c-13.03122,-1.6746 -28.02511,0.08987 -29.69043,0.53526c-12.87358,3.44293 -28.54106,14.71272 -36.87745,27.29186c-9.79326,14.7775 -8.57524,28.99807 -10.49516,21.81925c-2.10222,-7.86049 1.26608,-25.91575 13.55479,-38.72283c8.48778,-8.84578 20.68656,-12.37709 32.12407,-15.43595c27.99695,-7.48755 53.57421,-2.78399 57.12843,10.50569z" fill="#373417" stroke="none"/><path d="M402.56042,139.46462c-31.54086,8.43535 -61.87347,-2.53851 -67.74978,-24.5108c-5.8763,-21.97227 14.92891,-46.62254 46.46979,-55.05788c31.54086,-8.43535 61.87347,2.53851 67.74978,24.5108c5.8763,21.97227 -14.92891,46.62254 -46.46979,55.05788z" fill="none" stroke="#000000"/><path d="M464.92262,114.67379c9.83333,36.76812 -12.57742,75.55957 -47.35209,84.85977c-34.77469,9.3002 -70.13453,-13.18147 -79.96786,-49.94961c-2.82434,-10.56057 -3.68572,-33.04688 4.64137,-34.47435c9.93526,-1.70313 30.16968,18.21506 37.53902,9.29193c7.95853,-9.63657 0.05721,17.75397 12.92694,14.31207c5.60546,-1.49913 -3.58036,-51.3687 2.93195,-60.46317c4.03357,-5.63291 11.50913,13.4835 18.80168,18.09243c7.85936,4.96715 15.48208,-4.4112 17.65847,-7.42362c12.77046,-17.67614 26.61212,2.5404 32.82056,25.75459z" fill="#e3d85f" stroke="#000000"/><path d="M425.12011,111.18581c-9.25963,6.6868 4.3513,28.14929 -3.8566,38.1952c-3.69283,4.51979 -46.60542,7.84312 -47.87072,8.07135c-2.74932,0.49592 15.39637,-16.97899 12.5966,-16.23021c-0.09424,0.02521 6.59512,0.98546 6.50319,1.00796c-12.01023,2.94007 -27.07941,1.75424 -29.47009,-7.1848c-2.40898,-9.00746 -35.80711,-14.77546 -23.4034,-18.09273c6.66626,-1.78284 35.77413,8.50681 40.78312,10.75622c0.50947,0.2288 10.52948,16.50006 11.28802,10.47251c0.18293,-1.45358 0.26749,-3.34142 0.28826,-5.54767c0.15057,-15.97832 -3.04327,-48.65724 3.56714,-54.0189c6.19203,-5.0223 13.79498,15.39751 22.49089,18.16418c9.21186,2.93084 19.50019,-11.68195 25.11407,-13.86914c6.81967,-2.65697 14.91815,12.88524 15.19537,13.92185c1.05876,3.95882 -15.59997,1.62571 -33.22587,14.35418z" fill="#b8af4d" stroke="none"/><path d="M464.92261,114.6738c9.83333,36.76814 -12.5774,75.55955 -47.35209,84.85977c-34.77469,9.3002 -70.13453,-13.18146 -79.96786,-49.94961c-2.82434,-10.56057 -3.68571,-33.04688 4.64137,-34.47435c9.93526,-1.70315 30.16968,18.21505 37.53902,9.29191c7.95853,-9.63657 0.05719,17.75397 12.92694,14.31207c5.60546,-1.49913 -3.58036,-51.3687 2.93195,-60.46317c4.03357,-5.63293 11.50915,13.48349 18.80168,18.09243c7.85936,4.96715 15.48208,-4.4112 17.65847,-7.42362c12.77046,-17.67612 26.61212,2.5404 32.82056,25.75459z" fill="none" stroke="#000000"/><path d="M437.4182,157.91071c-12.4923,3.34097 -25.7311,-5.58595 -29.56964,-19.9388c-3.83855,-14.35285 3.1767,-28.69654 15.669,-32.03751c4.67327,-1.24982 17.87124,-13.00466 22.22223,-11.17902c7.27983,3.05453 4.94483,22.13425 7.34742,31.11782c3.83855,14.35285 -3.1767,28.69654 -15.669,32.03751z" fill="#000000" stroke="none"/><path d="M385.98418,133.94608c4.5257,16.92221 -4.30266,33.98262 -19.71869,38.10552c-15.41603,4.12289 -23.23268,1.82774 -27.75837,-15.09447c-4.5257,-16.92221 -10.03448,-38.74302 5.38156,-42.86591c2.24463,-0.6003 8.99439,5.89955 11.88122,6.85316c7.99805,2.64199 19.35542,0.36126 24.39994,4.15323c5.63969,4.23935 3.7733,1.21663 5.81436,8.84845z" fill="#000000" stroke="none"/></g><g stroke-linecap="butt"><path d="M540.86706,58.94319c-31.67376,8.47089 -64.48154,-11.32632 -73.27822,-44.21829c-3.72161,-13.9156 -13.00462,-26.86836 -8.01472,-39.06672c6.8046,-16.63462 29.52693,-1.71012 47.80046,-6.59723c2.95571,-0.79049 11.65916,-12.56971 12.29113,-23.7458c1.04635,-18.50352 -6.43996,-40.48529 1.29569,-45.98338c9.22805,-6.5588 15.6876,29.96094 28.60962,42.54648c6.58303,6.41163 23.08927,-8.95842 25.52201,-7.35564c12.28036,8.09078 3.0272,33.93642 7.19662,49.52648c8.79669,32.89198 -9.74884,66.4232 -41.4226,74.89409z" fill="#e24d00" stroke="#000000"/><path d="M540.41085,35.79764c-19.49154,5.21285 -37.95773,-0.52671 -41.24538,-12.81967c-3.28765,-12.29296 9.84821,-26.48424 29.33973,-31.69709c19.49154,-5.21285 37.95773,0.52671 41.24538,12.81967c3.28765,12.29296 -9.84821,26.48424 -29.33973,31.69709z" fill="#ad3a00" stroke="none"/><path d="M559.50068,-48.06082c-4.26625,0.37169 -15.31815,-5.71707 -21.05432,-14.73054c-5.86954,-9.22303 -6.43614,-21.35723 -11.87906,-19.30336c-9.81332,3.70299 7.23353,21.2143 0.03743,36.24525c-9.43914,19.71613 -47.21743,32.02412 -52.23426,37.56779c-5.66011,6.2545 7.7891,33.5969 32.90842,46.55846c22.56567,11.64392 57.1331,9.2497 52.11912,10.59064c-2.81519,0.75289 -17.36091,12.86935 -25.12726,13.61683c-16.97394,1.63364 -32.43924,-8.69912 -40.19526,-11.82306c-29.87858,-12.03431 -27.76671,-46.97663 -29.4213,-53.16338c-0.78542,-2.93681 -15.75142,-16.13064 -1.6475,-24.70281c7.82787,-4.75766 33.20614,0.55445 46.03214,-5.00006c2.93203,-1.26977 6.64891,-8.38009 7.71419,-10.32133c10.25838,-18.69338 -7.09853,-55.59466 6.64826,-59.27112c6.95319,-1.85958 15.17589,33.68571 23.25016,42.05134c10.92349,11.31763 21.54824,-3.19814 28.13649,-3.23398c11.42343,-0.06214 7.03795,24.57949 8.17655,28.83681c0.64364,2.40669 -4.22188,-15.59391 -23.46378,-13.91753z" fill="#ad3a00" stroke="none"/><path d="M517.50868,16.9263c-0.77388,10.64582 3.26377,24.04359 -1.26475,25.25472c-0.95032,0.25415 -5.98849,4.07656 -9.19701,0.27542c-3.05279,-3.61663 -4.24204,-14.88208 -6.61279,-14.06263c-4.50489,1.5571 -4.72135,20.94464 -8.18912,17.2202c-9.33012,-10.02058 -12.71023,-39.46217 -14.78185,-47.20826c-3.67269,-13.73267 17.28548,-3.76339 25.48078,-5.95515c8.1953,-2.19176 15.93222,-9.52162 19.60491,4.21105c1.64325,6.1443 -4.41356,11.64472 -5.04015,20.26466z" fill="#000000" stroke="#000000"/><path d="M579.54483,-28.0357c0.01838,0.06872 -8.01117,15.22788 -8.05981,15.3996c-0.59891,2.11456 4.37674,15.97046 4.5389,16.81341c3.05055,15.8592 2.12324,21.01847 -10.7584,24.46355c-13.62193,3.64308 -28.31429,-7.04996 -32.81629,-23.88358c-4.50202,-16.8336 2.89115,-33.43323 16.51308,-37.07631c13.62193,-3.64308 26.08052,-12.55029 30.58253,4.28333z" fill="#000000" stroke="#000000"/><path d="M540.86706,58.94319c-31.67376,8.47089 -64.48154,-11.32632 -73.27822,-44.21829c-3.72161,-13.9156 -13.00462,-26.86836 -8.01472,-39.06672c6.8046,-16.63462 29.52691,-1.71012 47.80046,-6.59723c2.95573,-0.79049 11.65913,-12.56973 12.29113,-23.74581c1.04635,-18.50352 -6.43996,-40.48529 1.29569,-45.98338c9.22805,-6.5588 15.68762,29.96094 28.60962,42.54648c6.58305,6.41164 23.08927,-8.95842 25.52201,-7.35564c12.28036,8.0908 3.0272,33.93644 7.19664,49.52649c8.79669,32.89198 -9.74884,66.4232 -41.4226,74.89409z" fill="none" stroke="#000000"/><path d="M567.87077,-59.02222c1.35922,5.08231 13.94759,21.65631 8.09186,30.83958c-7.41479,11.62823 -34.48196,20.05144 -49.88986,24.17215c-2.0126,0.53825 -4.05117,1.14345 -6.09962,1.77336c-11.93764,3.67083 -24.21159,8.18062 -33.63966,5.16929c-11.12137,-3.55215 -18.29482,-17.46039 -19.84021,-23.23885c-3.08032,-11.51773 22.56935,-5.17651 50.14546,-12.55151c2.99764,-0.8017 2.80749,-19.893 1.93721,-34.91315c-1.02078,-17.61787 -2.85809,-31.60451 0.19253,-33.27601c8.9128,-4.88354 12.53079,14.58268 22.24622,25.86378c4.6441,5.39249 6.2926,15.85881 11.42316,18.77033c6.14284,3.48599 14.77619,-5.06451 15.43291,-2.6089z" fill="#e2c5b6" stroke="#000000"/><path d="M537.30235,-78.12623c0.24421,0.91311 6.00571,13.60057 14.41884,19.23938c7.15378,4.79473 17.22316,2.4407 16.80434,5.29732c-1.8354,12.51839 -38.35029,18.43592 -45.73564,24.49789c-9.61128,7.88905 -34.98252,15.56631 -45.905,15.75515c-11.75696,0.20327 -8.78746,-7.39024 -10.48709,-6.93569c-1.38702,0.37094 -0.59507,-3.67403 8.59065,-4.79099c10.49627,-1.27629 30.14464,-0.0852 38.74621,-7.57297c11.51858,-10.02702 6.71113,-34.60423 5.11931,-40.55622c-3.82078,-14.28641 -2.78834,-26.97232 2.30604,-28.33478c5.09438,-1.36245 12.32156,9.1145 16.14233,23.40091z" fill="#ceb4a7" stroke="none"/><path d="M567.87077,-59.02219c1.35922,5.08231 13.9476,21.65633 8.09186,30.83958c-7.41479,11.62823 -34.48194,20.05142 -49.88986,24.17215c-13.74113,3.67495 -28.69342,10.47068 -39.73931,6.94263c-11.12135,-3.55215 -18.2948,-17.46039 -19.8402,-23.23885c-3.08032,-11.51773 22.56937,-5.17651 50.14546,-12.55151c2.99764,-0.8017 2.80747,-19.89297 1.93721,-34.91315c-1.02078,-17.61787 -2.85809,-31.60451 0.19255,-33.27602c8.9128,-4.88354 12.53079,14.58268 22.24622,25.86378c4.6441,5.39249 6.2926,15.85881 11.42316,18.77033c6.14286,3.48599 14.77619,-5.06452 15.43291,-2.60892z" fill="none" stroke="#000000"/><path d="M533.47076,-2.38646c-11.18548,2.99146 -21.26156,1.64582 -22.50554,-3.00556c-1.24398,-4.65139 6.81522,-10.84715 18.0007,-13.83862c11.18548,-2.99146 21.26156,-1.64582 22.50554,3.00556c1.24398,4.65139 -6.81522,10.84715 -18.0007,13.83862z" fill="#000000" stroke="#000000"/></g><g stroke-linecap="butt"><path d="M410.24534,31.00514c-3.89738,1.04232 -8.96881,-35.97423 -12.68152,-40.70891c-3.22805,-4.11661 -5.10347,24.05387 -8.38233,23.67359c-7.7755,-0.90177 -19.99674,-49.33289 -26.75239,-50.23983c-5.37212,-0.72121 10.02141,51.99713 6.79479,59.57633c-4.52691,10.6335 -26.84689,-23.52197 -29.21859,-32.39005c-8.11547,-30.34479 10.1743,-61.59501 40.85132,-69.79934c7.94657,-2.12525 18.65892,15.68697 26.28993,16.83239c21.82787,3.27637 37.93684,0.77219 43.95009,23.25647c8.11547,30.34479 -10.1743,61.59501 -40.85132,69.79934z" fill="#bae695" stroke="#000000"/><path d="M409.7051,27.43971c0.49637,1.85599 23.10604,-13.56583 33.02273,-32.61082c6.40776,-12.30608 3.10731,-26.69807 -0.07034,-36.99325c-5.40295,-17.50481 -58.9022,-18.42777 -62.27117,-17.52677c-3.5329,0.94484 -33.43205,6.97407 -36.71321,24.11629c-4.53591,23.69756 17.98748,60.12268 17.19691,57.16664c-0.75424,-2.82019 -26.80621,-27.90572 -23.46878,-54.12781c2.69128,-21.1453 34.29386,-44.59864 38.05121,-45.60351c0.89443,-0.23921 7.49714,-2.13188 12.04085,0.61636c4.26253,2.57814 6.213,9.68353 14.66086,13.02737c9.02054,3.57051 26.11957,3.46664 35.7414,7.43478c9.20184,3.79494 11.09709,11.6228 12.62395,16.70856c3.99657,13.31193 -0.21003,35.00674 -10.31668,47.26152c-12.11151,14.68575 -30.93283,18.90387 -30.49776,20.53063z" fill="#53931e" stroke="none"/><path d="M397.54759,-14.00152c-14.5079,3.88003 -28.45384,-1.14444 -31.14913,-11.22246c-2.69528,-10.07802 -15.58282,-21.83159 -1.07491,-25.71162c14.5079,-3.88003 50.91742,1.58281 53.6127,11.66081c2.69528,10.07802 -6.88074,21.39324 -21.38866,25.27325z" fill="#53931e" stroke="none"/><path d="M410.03082,30.20304c-3.89738,1.04232 -8.96881,-35.97423 -12.68152,-40.70893c-3.22805,-4.1166 -5.10348,24.05387 -8.38233,23.67361c-7.7755,-0.90177 -19.99674,-49.33289 -26.75237,-50.23982c-5.37212,-0.72121 10.02141,51.99713 6.79477,59.57633c-4.52693,10.6335 -26.84689,-23.52197 -29.21859,-32.39007c-8.11547,-30.34479 10.1743,-61.59501 40.85132,-69.79934c7.94657,-2.12525 18.65892,15.68697 26.28995,16.83239c21.82787,3.27637 37.93683,0.77219 43.95008,23.25647c8.11547,30.34479 -10.1743,61.59501 -40.85132,69.79934z" fill="none" stroke="#000000"/><path d="M410.37659,13.0788c-4.01037,1.07254 -8.48646,-11.47022 -12.37566,-18.9914c-7.60275,-14.7027 -13.8837,-31.7939 -16.50941,-41.61172c-3.96887,-14.84015 20.60257,4.8037 32.45255,1.63452c11.84997,-3.16918 20.17351,-4.10735 24.14238,10.73281c3.96887,14.84015 -15.8599,45.06662 -27.70988,48.2358z" fill="#000000" stroke="none"/><path d="M379.47884,-12.69085c-1.05884,4.46411 -10.84705,-26.23741 -19.56015,-23.90716c-3.56664,0.95387 8.78676,37.59821 6.90246,41.34843c-3.49854,6.96291 -19.76353,-18.73654 -22.18906,-27.80593c-3.73192,-13.95416 1.50237,-27.47523 11.69113,-30.20013c10.18875,-2.72491 21.47372,6.37823 25.20564,20.33239c0.5405,2.02102 -1.87068,19.47636 -2.04999,20.23239z" fill="#000000" stroke="none"/></g><g data-paper-data="{&quot;index&quot;:null}" stroke-linecap="butt"><g><g><path d="M270.64217,-22.13051l42.85646,56.68537l-32.55981,24.31357l-42.85645,-56.6854z" fill="#252525" stroke="#000000"/><path d="M270.64217,-22.13051l42.85646,56.68537l-32.55981,24.31357l-42.85645,-56.6854z" fill="#252525" stroke="#000000"/><path d="M278.06144,54.62634c-2.17477,-2.87654 -28.01779,-35.00446 -34.35906,-45.65558c-11.40531,-19.157 0.91115,-10.71266 3.85349,-12.90982c3.28147,-2.4504 13.46847,-11.74656 19.60112,-15.46284c2.42354,-1.46862 1.80669,-4.46522 3.53064,-2.18498c1.44356,1.90936 42.63419,54.35759 42.72304,57.72141c0.10794,4.08744 -24.15797,-28.66587 -32.48407,-32.97552c-13.71135,-7.0971 -14.59855,10.81733 -16.77146,12.43987c-2.23503,1.66899 -10.33134,-2.21363 -5.63077,7.93774c4.92821,10.64293 22.6522,35.20998 19.53709,31.08969z" fill="#141414" stroke="none"/><path d="M270.64217,-22.13051l42.85646,56.68537l-32.55981,24.31357l-42.85645,-56.6854z" fill="none" stroke="#000000"/><path d="M270.64217,-22.13051l42.85646,56.68537l-32.55981,24.31357l-42.85645,-56.6854z" fill="none" stroke="#000000"/></g><g><path d="M297.61132,-2.34116l8.67712,11.47706l-47.56948,35.5218l-8.67712,-11.47706z" fill="#252525" stroke="#000000"/><path d="M297.61132,-2.34116l8.67712,11.47706l-47.56948,35.5218l-8.67712,-11.47706z" fill="#252525" stroke="#000000"/><path d="M258.40165,43.60071c-0.44034,-0.5824 -6.92196,-6.1545 -6.82921,-9.33901c0.16681,-5.72765 7.80082,-10.62573 12.09959,-13.83575c6.68883,-4.99478 32.42215,-24.0674 33.65445,-22.43747c0.29228,0.38658 9.86897,10.08215 7.91271,12.23746c-2.3771,2.61896 -6.89049,-4.31103 -12.65279,-2.13953c-9.48928,3.57602 -21.27725,15.87146 -24.45185,18.24205c-3.26535,2.43836 -9.05599,4.75225 -10.49675,8.59414c-1.5105,4.02792 1.39458,9.51237 0.76385,8.67814z" fill="#141414" stroke="none"/><path d="M297.61132,-2.34116l8.67712,11.47706l-47.56948,35.5218l-8.67712,-11.47706z" fill="none" stroke="#000000"/><path d="M297.61132,-2.34116l8.67712,11.47706l-47.56948,35.5218l-8.67712,-11.47706z" fill="none" stroke="#000000"/></g><g><path d="M287.19919,-23.04006l8.67713,11.47706l-53.74397,40.13255l-8.67715,-11.47708z" fill="#252525" stroke="#000000"/><path d="M287.19919,-23.04006l8.67713,11.47706l-53.74397,40.13255l-8.67715,-11.47708z" fill="#252525" stroke="#000000"/><path d="M241.85503,27.48267c-0.44034,-0.5824 -7.11019,-6.01393 -6.81002,-9.35334c0.53991,-6.00623 9.11448,-11.60666 13.97122,-15.23333c7.55702,-5.64309 36.62157,-27.20326 37.85386,-25.57332c0.29228,0.38658 10.05535,9.943 7.8016,12.32044c-2.73859,2.88889 -7.19177,-4.08609 -13.56831,-1.45592c-10.50084,4.33139 -24.03796,17.93301 -27.62461,20.61131c-3.68918,2.75485 -10.10539,5.53583 -11.90666,9.64693c-1.88845,4.31017 0.91364,9.87149 0.28293,9.03726z" fill="#141414" stroke="none"/><path d="M287.19919,-23.04006l8.67713,11.47706l-53.74397,40.13255l-8.67715,-11.47708z" fill="none" stroke="#000000"/><path d="M287.19919,-23.04006l8.67713,11.47706l-53.74397,40.13255l-8.67715,-11.47708z" fill="none" stroke="#000000"/></g></g><g><path d="M319.18379,16.21457l9.96595,13.18179l-55.50816,41.44986l-9.96596,-13.18177z" fill="#252525" stroke="#000000"/><path d="M319.18379,16.21457l9.96595,13.18179l-55.50816,41.44986l-9.96596,-13.18177z" fill="#252525" stroke="#000000"/><path d="M273.28284,69.628c-0.50573,-0.66892 -7.9767,-7.04878 -7.84086,-10.72821c0.24434,-6.61777 9.14525,-12.34266 14.16139,-16.0884c7.80506,-5.82833 37.83171,-28.08561 39.24701,-26.21356c0.33567,0.44401 11.36117,11.55999 9.07229,14.06685c-2.78128,3.04615 -7.95659,-4.91957 -14.66161,-2.36067c-11.04179,4.21396 -24.82797,18.52041 -28.53236,21.2866c-3.81028,2.8453 -10.54951,5.56889 -12.25522,10.0195c-1.78832,4.66612 1.53372,10.97603 0.80934,10.01791z" fill="#141414" stroke="none"/><path d="M319.18379,16.21457l9.96595,13.18179l-55.50816,41.44986l-9.96596,-13.18177z" fill="none" stroke="#000000"/><path d="M319.18379,16.21457l9.96595,13.18179l-55.50816,41.44986l-9.96596,-13.18177z" fill="none" stroke="#000000"/></g></g><g data-paper-data="{&quot;index&quot;:null}"><path d="M227.14521,-13.94257c-8.27989,-14.39151 -4.3604,-32.1749 8.75447,-39.72028c13.11483,-7.54541 30.45874,-1.99553 38.73862,12.396c8.27989,14.39151 4.36039,32.1749 -8.75447,39.72028c-13.11483,7.54541 -30.45872,1.99551 -38.73861,-12.396z" fill="#c747ff" stroke="#000000" stroke-linecap="butt"/><path d="M223.5355,-24.92884c-4.67414,-8.12424 0.94531,-20.12329 12.55136,-26.80065c11.60606,-6.67735 24.80376,-5.50438 29.47789,2.61984c3.1461,5.46835 -24.08574,-6.77036 -30.41141,6.37455c-1.49561,3.1079 -3.03403,16.23262 0.95127,25.91072c4.20142,10.20303 13.93319,16.92558 11.98602,18.04587c-11.60606,6.67735 -19.881,-18.0261 -24.55513,-26.15034z" fill="#991cba" stroke="none" stroke-linecap="butt"/><path d="M226.31352,-15.26911c-8.2799,-14.39151 -4.36042,-32.17489 8.75445,-39.72026c13.11485,-7.54541 30.45872,-1.99553 38.73861,12.396c8.27989,14.39151 4.3604,32.1749 -8.75447,39.72028c-13.11485,7.54541 -30.4587,1.99551 -38.73859,-12.39602z" fill="none" stroke="#000000" stroke-linecap="butt"/><g><path d="M204.62796,-45.69806c2.54656,12.32611 26.38009,13.36475 20.34814,14.61094c-2.8192,0.58243 -6.1496,15.81213 -15.03094,14.94739c-10.12116,-0.98548 -25.80439,-18.48032 -27.16076,-25.04551c-2.54659,-12.32612 0.27885,-23.32866 6.31078,-24.57486c6.03195,-1.24624 12.98619,7.73581 15.5328,20.06197z" fill="#ff7347" stroke="#000000" stroke-linecap="butt"/><path d="M200.01807,-56.15713c0.41241,1.99609 1.83269,10.21322 7.54768,16.15937c3.55384,3.6976 10.86658,4.90164 14.24116,8.10459c4.68452,4.44624 -0.87314,9.18291 -2.12426,9.44138c-3.40938,0.70437 -35.0383,-25.80124 -36.09485,-30.91528c-1.05657,-5.11404 0.85075,-9.83079 4.2601,-10.53516c3.40935,-0.70435 10.35318,1.28737 11.40974,6.4014z" fill="#ba491c" stroke="none" stroke-linecap="butt"/><path d="M205.19709,-45.62738c2.54656,12.32611 26.38007,13.36475 20.34814,14.61094c-2.81918,0.58243 -6.14959,15.81213 -15.03092,14.94739c-10.12118,-0.98548 -25.80441,-18.48031 -27.16078,-25.04549c-2.54659,-12.32609 0.27885,-23.32866 6.31078,-24.57486c6.03193,-1.24619 12.98619,7.73586 15.53277,20.06198z" fill="none" stroke="#000000" stroke-linecap="butt"/><path d="M204.9351,-42.1022l-13.90444,11.78499" fill="none" stroke="#000000" stroke-linecap="round"/></g><g><path d="M225.95629,-61.47966c-1.89422,12.44306 20.09402,21.69693 14.00484,20.76998c-2.84593,-0.43323 -11.25979,12.69085 -19.28755,8.79455c-9.14841,-4.44024 -17.77698,-26.29387 -16.76811,-32.92134c1.89418,-12.44309 8.366,-21.77877 14.45518,-20.85181c6.08921,0.92692 9.48987,11.76546 7.59567,24.20859z" fill="#4757ff" stroke="#000000" stroke-linecap="butt"/><path d="M225.2671,-72.88877c-0.30673,2.01504 -1.8296,10.21379 1.46371,17.77499c2.04794,4.70192 8.4869,8.37145 10.53857,12.54725c2.84809,5.79674 -4.00896,8.30763 -5.27195,8.11536c-3.44172,-0.52393 -23.89243,-36.36672 -23.10654,-41.52929c0.78589,-5.16257 4.21304,-8.92293 7.65474,-8.39898c3.4417,0.52395 9.26109,4.80393 8.47519,9.96649z" fill="#1c66ba" stroke="none" stroke-linecap="butt"/><path d="M226.46544,-61.21566c-1.89422,12.44306 20.09398,21.6969 14.00481,20.76996c-2.84591,-0.43325 -11.25978,12.69087 -19.28754,8.79455c-9.14842,-4.44026 -17.777,-26.29387 -16.76811,-32.92135c1.89418,-12.44306 8.36599,-21.77875 14.45518,-20.85181c6.08916,0.92694 9.48986,11.76551 7.59566,24.20859z" fill="none" stroke="#000000" stroke-linecap="butt"/><path d="M207.8625,-51.7806l17.13259,-6.22048" fill="none" stroke="#000000" stroke-linecap="round"/></g><g><path d="M249.47819,-72.58896c-3.5817,12.06604 16.93075,24.24613 11.02608,22.49338c-2.75971,-0.8192 -12.89288,11.02793 -20.31087,6.06815c-8.45352,-5.65217 -14.00556,-28.48216 -12.09786,-34.90883c3.58169,-12.06607 11.27192,-20.42663 17.17658,-18.6739c5.9047,1.75272 7.78782,12.95507 4.20612,25.02116z" fill="#4aff47" stroke="#000000" stroke-linecap="butt"/><path d="M250.35917,-83.98487c-0.58001,1.95398 -3.21217,9.86663 -0.98624,17.80787c1.38418,4.93824 7.25946,9.45562 8.71946,13.87321c2.02675,6.13237 -5.10973,7.67978 -6.33443,7.31623c-3.33745,-0.99071 -18.68278,-39.29809 -17.19676,-44.30425c1.48601,-5.00614 5.39621,-8.2613 8.73364,-7.27061c3.33741,0.99069 8.51529,6.02786 7.02928,11.034z" fill="#1cba38" stroke="none" stroke-linecap="butt"/><path d="M249.94634,-72.25767c-3.5817,12.06604 16.93071,24.24613 11.02605,22.49338c-2.7597,-0.8192 -12.89286,11.02791 -20.31086,6.06813c-8.45353,-5.65217 -14.00557,-28.48216 -12.09787,-34.90883c3.58169,-12.06604 11.27192,-20.42665 17.17658,-18.6739c5.90467,1.75273 7.7878,12.9551 4.2061,25.02116z" fill="none" stroke="#000000" stroke-linecap="butt"/><path d="M248.04931,-69.27492l-17.82345,3.81369" fill="none" stroke="#000000" stroke-linecap="round"/></g><g data-paper-data="{&quot;index&quot;:null}"><path d="M272.56097,-70.85711c-3.22988,-12.165 -1.02234,-23.30795 4.93075,-24.88851c5.95306,-1.5806 13.39732,6.99972 16.62721,19.1647c1.72032,6.47934 -4.49217,29.13852 -13.1062,34.54288c-7.55886,4.74232 -17.3438,-7.39398 -20.12615,-6.65522c-5.95309,1.5806 14.90433,-9.99888 11.67443,-22.16381z" fill="#ff4747" stroke="#000000" stroke-linecap="butt"/><path d="M272.09105,-83.81565c-1.34006,-5.04717 3.98187,-9.9319 7.34665,-10.8253c3.36476,-0.89338 7.17882,2.47393 8.51888,7.5211c1.34006,5.04717 -15.11091,42.89293 -18.47571,43.78633c-1.23475,0.32783 -8.32328,-1.4261 -6.11935,-7.49705c1.58762,-4.37336 7.59157,-8.71825 9.11853,-13.61421c2.45554,-7.87326 0.05422,-15.85897 -0.46883,-17.82899z" fill="#ba1c1c" stroke="none" stroke-linecap="butt"/><path d="M272.08343,-70.53957c-3.22991,-12.16496 -1.02232,-23.30792 4.93071,-24.88851c5.95306,-1.5806 13.39732,6.99977 16.62721,19.1647c1.72032,6.47934 -4.49215,29.1385 -13.10623,34.54288c-7.55886,4.74232 -17.3438,-7.39398 -20.12612,-6.65523c-5.95306,1.5806 14.90432,-9.99886 11.67439,-22.16381z" fill="none" stroke="#000000" stroke-linecap="butt"/><path d="M291.5983,-63.17346l-17.70521,-4.3295" fill="none" stroke="#000000" stroke-linecap="round"/></g></g><g data-paper-data="{&quot;index&quot;:null}" stroke-linecap="butt"><g><g><path d="M188.07163,59.28703l65.52319,22.57527l-6.46714,33.43936l-65.52319,-22.57528z" fill="#252525" stroke="#000000"/><path d="M188.07163,59.28703l65.52319,22.57527l-6.46714,33.43936l-65.52319,-22.57528z" fill="#252525" stroke="#000000"/><path d="M242.44805,113.4584c-3.32501,-1.14559 -41.51594,-13.2165 -52.66622,-18.25646c-20.05478,-9.06485 -6.26804,-8.4683 -5.68364,-11.49013c0.65178,-3.37011 1.58931,-15.10058 3.36227,-20.7508c0.70065,-2.23289 -1.64426,-4.19516 0.99149,-3.28705c2.20705,0.7604 63.87598,20.93114 66.09862,23.41536c2.70076,3.01863 -34.82188,-10.25728 -43.24268,-9.61027c-13.86733,1.06548 -2.95357,14.92989 -3.38517,17.16147c-0.44391,2.29543 -8.43429,3.1559 1.28131,8.58577c10.18606,5.69279 38.0067,15.873 33.24404,14.23206z" fill="#141414" stroke="none"/><path d="M188.07163,59.28703l65.52319,22.57527l-6.46714,33.43936l-65.52319,-22.57528z" fill="none" stroke="#000000"/><path d="M188.07163,59.28703l65.52319,22.57527l-6.46714,33.43936l-65.52319,-22.57528z" fill="none" stroke="#000000"/></g><g><path d="M219.09523,61.56859l13.26645,4.57082l-9.44839,48.8545l-13.26646,-4.57082z" fill="#252525" stroke="#000000"/><path d="M219.09523,61.56859l13.26645,4.57082l-9.44839,48.8545l-13.26646,-4.57082z" fill="#252525" stroke="#000000"/><path d="M222.01847,114.34823c-0.6732,-0.23193 -8.65383,-1.39298 -10.63799,-3.82724c-3.56868,-4.37825 -1.53651,-11.61599 -0.68268,-16.03084c1.32855,-6.8695 6.53194,-33.19035 8.416,-32.54123c0.44686,0.15395 13.1786,2.96765 13.23647,5.4982c0.07033,3.07494 -7.44745,-0.02351 -9.96211,4.29411c-4.14107,7.11024 -4.23709,21.83926 -4.86763,25.09962c-0.64858,3.35356 -3.09093,7.79132 -1.59903,11.3478c1.56417,3.72868 7.06123,6.49182 6.09691,6.15958z" fill="#141414" stroke="none"/><path d="M219.09523,61.56859l13.26645,4.57082l-9.44839,48.8545l-13.26646,-4.57082z" fill="none" stroke="#000000"/><path d="M219.09523,61.56859l13.26645,4.57082l-9.44839,48.8545l-13.26646,-4.57082z" fill="none" stroke="#000000"/></g><g><path d="M198.72326,50.88287l13.26646,4.5708l-10.67478,55.1958l-13.26646,-4.57082z" fill="#252525" stroke="#000000"/><path d="M198.72326,50.88287l13.26646,4.5708l-10.67478,55.1958l-13.26646,-4.57082z" fill="#252525" stroke="#000000"/><path d="M200.42809,109.96273c-0.6732,-0.23193 -8.69121,-1.19966 -10.63415,-3.84697c-3.49456,-4.76143 -1.27558,-12.9651 -0.31091,-17.95301c1.50099,-7.76115 7.36605,-37.5032 9.2501,-36.85407c0.44686,0.15395 13.21563,2.77625 13.21444,5.61234c-0.00148,3.44618 -7.50731,0.28587 -10.14396,5.23432c-4.342,8.14912 -4.78541,24.67455 -5.49779,28.35811c-0.73273,3.78886 -3.29939,8.86905 -1.87907,12.79579c1.48911,4.11688 6.9657,6.98574 6.00141,6.65351z" fill="#141414" stroke="none"/><path d="M198.72326,50.88287l13.26646,4.5708l-10.67478,55.1958l-13.26646,-4.57082z" fill="none" stroke="#000000"/><path d="M198.72326,50.88287l13.26646,4.5708l-10.67478,55.1958l-13.26646,-4.57082z" fill="none" stroke="#000000"/></g></g><g><path d="M245.66339,65.4406l15.23697,5.24973l-11.02522,57.0076l-15.23695,-5.24971z" fill="#252525" stroke="#000000"/><path d="M245.66339,65.4406l15.23697,5.24973l-11.02522,57.0076l-15.23695,-5.24971z" fill="#252525" stroke="#000000"/><path d="M248.84855,126.95057c-0.77322,-0.26641 -9.94448,-1.57256 -12.21754,-4.39851c-4.08827,-5.08276 -1.72784,-13.53206 -0.73151,-18.68371c1.55026,-8.01592 7.6201,-38.73004 9.784,-37.98448c0.51324,0.17684 15.14127,3.38137 15.1994,6.331c0.07062,3.58416 -8.56214,0.01674 -11.46752,5.06487c-4.78462,8.31321 -4.94395,25.48402 -5.67972,29.28847c-0.7568,3.91321 -3.57953,9.10096 -1.87613,13.23807c1.78588,4.33742 8.09652,7.5259 6.98903,7.14431z" fill="#141414" stroke="none"/><path d="M245.66339,65.4406l15.23697,5.24973l-11.02522,57.0076l-15.23695,-5.24971z" fill="none" stroke="#000000"/><path d="M245.66339,65.4406l15.23697,5.24973l-11.02522,57.0076l-15.23695,-5.24971z" fill="none" stroke="#000000"/></g></g><g stroke-linecap="butt"><path d="M191.28458,88.66582l-49.64307,26.0113l-26.58934,-50.74625l49.64307,-26.0113z" fill="#151515" stroke="#000000"/><g><path d="M208.69532,82.43465l-22.03827,27.07679l-19.03488,-57.75718l14.11061,-10.76756z" fill="#ffffff" stroke="#000000"/><path d="M191.5621,64.81765c-3.46863,3.87006 -3.97727,-5.29913 -9.0994,-9.88997c-0.91357,-0.81882 -9.87873,-6.71394 -8.84163,1.27729c0.86229,6.64417 5.86352,17.06451 8.87421,26.58103c0.54291,1.71612 3.27627,11.66881 4.05215,13.32017c2.27778,4.84792 3.06936,1.01824 3.64942,4.15431c0.61322,3.31533 -2.50649,5.11276 -2.85344,5.00951c-1.49672,-0.44545 -14.78019,-33.54321 -18.19721,-49.90874c-1.21261,-5.80772 3.42629,-6.67674 3.86701,-7.16846c3.46863,-3.87005 10.43282,-3.28575 15.55495,1.30509c5.12215,4.59084 6.46257,11.44975 2.99394,15.3198z" fill="#a2a2a2" stroke="none"/><path d="M208.35409,81.57133l-22.03827,27.07679l-19.03488,-57.75718l14.11061,-10.76756z" fill="none" stroke="#000000"/><path d="M205.98863,86.69857l-14.68532,16.38486l-13.72674,-57.45955l4.15622,-4.63724z" fill="#696969" stroke="#000000"/><path d="M194.11644,98.07871c-0.91869,1.02501 4.75888,-7.46867 3.79858,-15.87325c-0.87923,-7.69506 -7.74099,-20.83085 -10.1892,-23.0251c-5.12213,-4.59084 -9.86306,-14.49781 -8.10323,-16.46128c1.75982,-1.96349 8.77927,10.37732 13.90141,14.96817c2.76313,2.47652 12.02021,12.93016 11.67353,24.40493c-0.29598,9.79652 -10.2706,15.08225 -11.08108,15.98654z" fill="#3f3f3f" stroke="none"/><path d="M206.20157,85.21698l-14.68532,16.38486l-13.72674,-57.45955l4.15622,-4.63724c0,0 16.96874,22.57844 21.44168,31.00804c3.08334,5.81076 2.81415,14.70387 2.81415,14.70387z" fill="none" stroke="#000000"/></g><g><path d="M143.39642,131.02914c-23.65994,12.39701 -53.75254,1.62023 -67.21367,-24.07061c-13.46113,-25.69084 -5.19337,-56.56715 18.46657,-68.96418c17.00596,-8.91056 65.61607,-12.69961 80.70412,-0.73297c5.90357,4.68224 -17.27617,17.57843 -13.49044,24.80357c4.739,9.04444 -23.68469,27.66641 -24.05533,36.96365c-0.68215,17.11169 20.91921,23.96785 5.58876,32.00051z" fill="#ff007b" stroke="#000000"/><path d="M119.53759,109.87449c-8.90824,0.77506 -21.17792,6.89964 -22.56904,-9.08951c-0.66427,-7.63481 -8.78127,-30.06749 -5.60669,-39.87221c3.47375,-10.72875 18.48345,-8.53515 23.13801,-8.9401c4.99935,-0.43496 15.84941,-5.91111 21.15226,5.13346c4.14619,8.63555 3.35004,33.10184 3.96047,40.11782c1.39112,15.98913 -11.16677,11.87546 -20.075,12.65052z" fill="#b10055" stroke="none"/><path d="M160.56659,51.38646c-2.88412,-4.51937 -7.99717,-11.23322 -10.31349,-15.65394c-1.81803,-3.46971 -21.41639,-4.8152 -39.65276,4.48581c-0.64716,0.33007 -24.6682,14.28317 -25.40298,14.60872c-8.19921,3.63263 -2.60813,33.60143 -3.9021,42.24925c-1.44287,9.64288 10.75999,30.07865 13.10595,28.84943c1.07878,-0.56525 -20.49412,-17.88074 -22.81077,-26.18322c-6.01433,-21.55452 2.73562,-53.22113 15.83715,-60.0876c28.40358,-14.88622 84.31877,-8.521 86.39646,-4.5557c3.4052,6.49887 -1.90155,15.99418 -11.85294,21.20837c-3.18218,1.66736 -0.04869,-2.79658 -1.40452,-4.92112z" fill="#b10055" stroke="none"/><path d="M144.30694,130.08339c-23.65994,12.39701 -53.75254,1.62023 -67.21367,-24.07061c-13.46113,-25.69084 -5.19337,-56.56715 18.46657,-68.96418c17.00596,-8.91056 65.61607,-12.69961 80.70412,-0.73297c5.90357,4.68224 -17.27617,17.57843 -13.49044,24.80357c4.73898,9.04445 -23.6847,27.66641 -24.05535,36.96367c-0.68215,17.11167 20.91923,23.96785 5.58877,32.00049z" fill="none" stroke="#000000"/><path d="M91.24646,64.14881c-5.21419,-9.95138 1.67183,-23.84141 15.38039,-31.02423c13.70856,-7.18282 29.04848,-4.93845 34.26268,5.01295c5.21419,9.95138 -1.67183,23.84141 -15.38039,31.02423c-13.70856,7.18282 -29.04848,4.93845 -34.26268,-5.01295z" fill="#000000" stroke="#000000"/><path d="M157.01111,124.36419c-4.9659,2.60197 -17.48759,9.94358 -28.89161,10.47269c-14.71365,0.68265 -28.48583,-6.37851 -31.39332,-11.92752c-5.161,-9.84986 -0.12514,-22.66552 11.24787,-28.6246c11.37303,-5.95908 24.77649,-2.805 29.93748,7.04486c5.16097,9.84986 30.47259,17.07547 19.09957,23.03457z" fill="#000000" stroke="#000000"/></g></g><g stroke-linecap="butt"><g><g><path d="M322.14977,-254.69601l21.35352,99.16252l-40.25683,6.44153l-21.35351,-99.16254z" fill="#252525" stroke="#000000"/><path d="M322.14977,-254.69601l21.35352,99.16252l-40.25683,6.44153l-21.35351,-99.16254z" fill="#252525" stroke="#000000"/><path d="M341.70389,-162.63733c1.55212,7.20781 -8.22104,-34.95162 -14.13384,-50.572c-5.6397,-14.89889 -7.32764,-3.14523 -10.09104,-2.70309c-2.68656,0.42991 -18.24462,-17.03477 -20.66581,3.40385c-1.47023,12.41118 11.17133,69.23042 7.811,64.94724c-2.76541,-3.52491 -21.58411,-96.75344 -22.30338,-100.09358c-0.85897,-3.98893 1.27629,-0.33185 3.98682,-1.16012c6.85882,-2.09589 20.86993,-2.38406 24.92711,-3.03324c3.6379,-0.58209 4.07829,-21.05727 13.17385,9.49573c5.05704,16.98721 16.21166,74.68318 17.29526,79.71524z" fill="#141414" stroke="none"/><path d="M322.14977,-254.69601l21.35352,99.16252l-40.25683,6.44153l-21.35351,-99.16254z" fill="none" stroke="#000000"/><path d="M322.14977,-254.69601l21.35352,99.16252l-40.25683,6.44153l-21.35351,-99.16254z" fill="none" stroke="#000000"/></g><g><path d="M340.83223,-211.50317l4.32342,20.07738l-58.81471,9.411l-4.32344,-20.07739z" fill="#252525" stroke="#000000"/><path d="M340.83223,-211.50317l4.32342,20.07738l-58.81471,9.411l-4.32344,-20.07739z" fill="#252525" stroke="#000000"/><path d="M337.65535,-202.41941c-4.09992,-2.54324 -9.57443,0.65778 -13.6117,1.30379c-3.92505,0.62805 -21.42758,-0.61141 -30.21792,4.85488c-5.33787,3.31938 -2.28415,14.74445 -5.93057,14.35184c-3.00088,-0.32312 -5.28183,-19.44373 -5.42746,-20.12c-0.61399,-2.85131 31.08245,-8.08894 39.35246,-9.41221c5.31494,-0.85047 14.08093,-3.18135 18.98386,2.51484c2.72599,3.16704 3.43992,15.09585 3.65932,16.11469c0.31425,1.45937 -2.50956,-6.9414 -6.80799,-9.60782z" fill="#141414" stroke="none"/><path d="M340.83223,-211.50317l4.32342,20.07738l-58.81471,9.411l-4.32344,-20.07739z" fill="none" stroke="#000000"/><path d="M340.83223,-211.50317l4.32342,20.07738l-58.81471,9.411l-4.32344,-20.07739z" fill="none" stroke="#000000"/></g><g><path d="M337.47202,-243.89948l4.32344,20.07741l-66.44887,10.63254l-4.32342,-20.07741z" fill="#252525" stroke="#000000"/><path d="M337.47202,-243.89948l4.32344,20.07741l-66.44887,10.63254l-4.32342,-20.07741z" fill="#252525" stroke="#000000"/><path d="M341.05369,-225.19999c0.31425,1.45937 -2.63688,-6.92103 -7.40261,-9.51267c-4.54564,-2.47193 -10.79357,0.85289 -15.35488,1.58276c-4.43453,0.70955 -24.09972,-0.18388 -34.14074,5.48254c-6.09731,3.44089 -2.96913,14.85407 -7.06248,14.53298c-3.36867,-0.26425 -5.41923,-19.42176 -5.56486,-20.09804c-0.61399,-2.85131 35.20112,-8.74796 44.54462,-10.24302c6.00482,-0.96083 15.9337,-3.47782 21.29791,2.14455c2.98246,3.12601 3.46367,15.09205 3.68305,16.11087z" fill="#141414" stroke="none"/><path d="M337.47202,-243.89948l4.32344,20.07741l-66.44887,10.63254l-4.32342,-20.07741z" fill="none" stroke="#000000"/><path d="M337.47202,-243.89948l4.32344,20.07741l-66.44887,10.63254l-4.32342,-20.07741z" fill="none" stroke="#000000"/></g></g><g><path d="M353.03252,-173.36105l4.96562,23.05954l-68.63004,10.98161l-4.96564,-23.05954z" fill="#252525" stroke="#000000"/><path d="M353.03252,-173.36105l4.96562,23.05954l-68.63004,10.98161l-4.96564,-23.05954z" fill="#252525" stroke="#000000"/><path d="M349.29269,-162.9135c-4.77188,-2.91093 -11.16893,0.7831 -15.87994,1.53691c-4.58008,0.73287 -24.98812,-0.64182 -35.26096,5.66474c-6.23809,3.82958 -2.72026,16.94998 -6.97148,16.50917c-3.49861,-0.36279 -6.08577,-22.32865 -6.25304,-23.10538c-0.7052,-3.27483 36.28157,-9.3836 45.93174,-10.92771c6.20194,-0.99238 16.43435,-3.69577 22.13078,2.83603c3.16714,3.63164 3.95424,17.33753 4.2062,18.50771c0.36095,1.67611 -2.9003,-7.96957 -7.90328,-11.02145z" fill="#141414" stroke="none"/><path d="M353.03252,-173.36105l4.96562,23.05954l-68.63004,10.98161l-4.96564,-23.05954z" fill="none" stroke="#000000"/><path d="M353.03252,-173.36105l4.96562,23.05954l-68.63004,10.98161l-4.96564,-23.05954z" fill="none" stroke="#000000"/></g></g><g data-paper-data="{&quot;index&quot;:null}" stroke-linecap="butt"><g><g><path d="M580.62011,-165.90634l-87.55897,51.21136l-18.67395,-36.24072l87.55899,-51.21138z" fill="#252525" stroke="#000000"/><path d="M580.62011,-165.90634l-87.55897,51.21136l-18.67395,-36.24072l87.55899,-51.21138z" fill="#252525" stroke="#000000"/><path d="M499.24963,-118.61988c-6.3644,3.72239 30.64515,-18.71035 43.64277,-29.19935c12.39728,-10.00452 0.70337,-7.94304 -0.57845,-10.43076c-1.24625,-2.41853 10.49597,-22.64695 -9.67853,-18.57385c-12.25077,2.47334 -62.29462,32.20297 -59.27288,27.67453c2.48678,-3.72672 85.1981,-50.67922 88.1474,-52.40421c3.52217,-2.06004 0.71331,1.10916 2.34551,3.42622c4.13023,5.86325 8.77321,19.08581 10.65522,22.73825c1.68749,3.27498 21.27903,-2.69155 -4.91413,15.47807c-14.56317,10.10213 -65.9037,38.69234 -70.34693,41.29109z" fill="#141414" stroke="none"/><path d="M580.62011,-165.90634l-87.55897,51.21136l-18.67395,-36.24072l87.55899,-51.21138z" fill="none" stroke="#000000"/><path d="M580.62011,-165.90634l-87.55897,51.21136l-18.67395,-36.24072l87.55899,-51.21138z" fill="none" stroke="#000000"/></g><g><path d="M545.40698,-134.68631l-17.72801,10.36874l-27.28238,-52.94722l17.72803,-10.36874z" fill="#252525" stroke="#000000"/><path d="M545.40698,-134.68631l-17.72801,10.36874l-27.28238,-52.94722l17.72803,-10.36874z" fill="#252525" stroke="#000000"/><path d="M535.78548,-134.87211c1.13792,-4.68855 -3.61065,-8.8919 -5.48344,-12.52639c-1.8207,-3.53348 -6.10101,-20.54976 -14.0359,-27.19716c-4.81843,-4.03659 -14.7215,2.42761 -15.48557,-1.15941c-0.62878,-2.95199 16.82709,-11.08176 17.42422,-11.431c2.51767,-1.47253 17.37826,27.0101 21.21446,34.45509c2.46549,4.78472 7.41369,12.38673 3.53044,18.82146c-2.15906,3.57765 -13.2704,7.97585 -14.17002,8.50204c-1.28858,0.75367 5.81272,-4.54903 7.00575,-9.46462z" fill="#141414" stroke="none"/><path d="M545.40698,-134.68631l-17.72801,10.36874l-27.28238,-52.94722l17.72803,-10.36874z" fill="none" stroke="#000000"/><path d="M545.40698,-134.68631l-17.72801,10.36874l-27.28238,-52.94722l17.72803,-10.36874z" fill="none" stroke="#000000"/></g><g><path d="M575.14002,-147.98138l-17.72805,10.36876l-30.82365,-59.81979l17.72805,-10.36872z" fill="#252525" stroke="#000000"/><path d="M575.14002,-147.98138l-17.72805,10.36876l-30.82365,-59.81979l17.72805,-10.36872z" fill="#252525" stroke="#000000"/><path d="M558.48986,-138.74708c-1.28858,0.75367 5.75364,-4.66364 6.72993,-9.99991c0.93116,-5.08982 -4.17621,-9.98939 -6.29206,-14.09566c-2.05704,-3.99213 -7.34049,-22.95532 -15.85553,-30.72867c-5.17069,-4.72025 -15.03926,1.81099 -16.01065,-2.17836c-0.79939,-3.2831 16.76338,-11.20544 17.36052,-11.5547c2.51767,-1.47253 19.2888,30.71789 23.62295,39.12924c2.78545,5.40576 8.27313,14.05468 4.60389,20.90465c-2.04008,3.80852 -13.25939,7.99724 -14.159,8.52339z" fill="#141414" stroke="none"/><path d="M575.14002,-147.98138l-17.72805,10.36876l-30.82365,-59.81979l17.72805,-10.36872z" fill="none" stroke="#000000"/><path d="M575.14002,-147.98138l-17.72805,10.36876l-30.82365,-59.81979l17.72805,-10.36872z" fill="none" stroke="#000000"/></g></g><g><path d="M512.97131,-111.20023l-20.36122,11.90883l-31.83548,-61.78334l20.36121,-11.90887z" fill="#252525" stroke="#000000"/><path d="M512.97131,-111.20023l-20.36122,11.90883l-31.83548,-61.78334l20.36121,-11.90887z" fill="#252525" stroke="#000000"/><path d="M501.87852,-111.49563c1.27772,-5.44168 -4.22694,-10.36779 -6.41224,-14.60883c-2.12459,-4.12317 -7.18244,-23.94224 -16.37797,-31.73621c-5.58389,-4.73282 -16.95307,2.70103 -17.85993,-1.47568c-0.74632,-3.43727 19.31748,-12.74522 20.0033,-13.14637c2.89163,-1.69126 20.22965,31.54624 24.70606,40.23368c2.87688,5.58323 8.63635,14.46238 4.2066,21.9116c-2.46292,4.1417 -15.2399,9.16357 -16.27316,9.76787c-1.47998,0.86561 6.66777,-5.24088 8.00733,-10.94609z" fill="#141414" stroke="none"/><path d="M512.97131,-111.20023l-20.36122,11.90883l-31.83548,-61.78334l20.36121,-11.90887z" fill="none" stroke="#000000"/><path d="M512.97131,-111.20023l-20.36122,11.90883l-31.83548,-61.78334l20.36121,-11.90887z" fill="none" stroke="#000000"/></g></g><g stroke-linecap="butt"><g data-paper-data="{&quot;index&quot;:null}"><path d="M497.4413,-283.24015c4.15333,15.52986 -15.8143,34.35997 -44.59898,42.0582c-28.78468,7.69823 -55.48619,1.34944 -59.63954,-14.18047c-2.07168,-7.74632 -4.08996,-17.02597 3.94182,-24.62343c8.07037,-7.63398 26.2303,-13.57643 40.65717,-17.43477c15.45816,-4.13416 40.10381,-10.67322 51.19082,-7.45874c9.55814,2.77122 6.52584,14.44928 8.44873,21.63921z" fill="#ffa047" stroke="#000000"/><path d="M494.50832,-298.41164c0.72211,2.70008 -11.32374,-0.89996 -31.81094,3.0125c-21.97116,4.19587 -52.86989,16.07407 -64.12146,24.16798c-5.0429,3.62765 -0.8911,12.93587 7.48149,19.34478c9.13127,6.98964 22.60903,11.0018 17.63819,12.33122c-29.18033,7.80405 -32.63646,-22.28656 -34.85863,-30.59554c-2.22216,-8.30898 19.63174,-21.37116 48.81208,-29.1752c29.18033,-7.80405 54.63712,-7.39471 56.85928,0.91427z" fill="#ba491c" stroke="none"/><path d="M451.54419,-241.62943c-28.78468,7.69823 -55.48621,1.34943 -59.63955,-14.18045c-2.07168,-7.74632 -4.08994,-17.02597 3.94182,-24.62343c8.07037,-7.63398 26.2303,-13.57643 40.65717,-17.43477c15.45816,-4.13416 40.10379,-10.67324 51.19082,-7.45876c9.55814,2.77122 6.52586,14.44932 8.44873,21.63923c4.15334,15.52988 -15.8143,34.35997 -44.59898,42.0582z" fill="none" stroke="#000000"/></g><path d="M523.78243,-297.37988c4.15334,15.52988 -2.95772,30.92159 -15.88297,34.37834c-12.92526,3.45676 -26.77019,-6.33042 -30.92354,-21.86032c-2.07168,-7.74632 -4.32829,-16.96223 -1.47115,-23.17578c2.87089,-6.24343 10.87598,-9.47005 17.35411,-11.20257c6.9412,-1.85637 18.01509,-4.76579 23.84332,-0.14489c5.02454,3.9837 5.15735,14.81529 7.08023,22.0052z" fill="#47ff79" stroke="#000000"/><path d="M520.27123,-312.39671c0.72211,2.70008 -5.62496,-2.42403 -15.03982,-1.47277c-10.09682,1.02018 -23.47429,8.21245 -27.82739,14.46139c-1.95104,2.80075 1.34599,12.3376 6.2948,19.66215c5.39724,7.98829 12.49662,13.70629 10.26455,14.30323c-13.10293,3.50427 -18.91988,-25.95496 -21.14205,-34.26394c-2.22216,-8.309 6.59843,-17.8855 19.70135,-21.38977c13.10293,-3.50427 25.52636,0.39072 27.74853,8.6997z" fill="#1cba6d" stroke="none"/><path d="M523.09026,-297.9894c4.15334,15.52988 -2.9577,30.92158 -15.88297,34.37834c-12.92526,3.45676 -26.77021,-6.33046 -30.92354,-21.86032c-2.07168,-7.74632 -4.32829,-16.96223 -1.47115,-23.17578c2.87087,-6.24344 10.87598,-9.47001 17.3541,-11.20254c6.9412,-1.85637 18.01508,-4.7658 23.84332,-0.1449c5.02454,3.9837 5.15734,14.81531 7.08021,22.0052z" fill="none" stroke="#000000"/><g><path d="M457.96905,-278.76246c4.15334,15.52988 -2.95772,30.92159 -15.88297,34.37834c-12.92526,3.45676 -24.73229,1.28956 -28.88563,-14.24033c-0.67981,-2.54189 21.5597,-12.66618 21.02728,-15.36654c-1.09009,-5.52889 -26.45592,-11.25461 -24.53634,-15.42921c2.87089,-6.24343 10.87598,-9.47005 17.35411,-11.20257c6.9412,-1.85637 18.01509,-4.76579 23.84332,-0.14489c5.02454,3.9837 5.15735,14.81529 7.08023,22.0052z" fill="#6447ff" stroke="#000000"/><path d="M454.45784,-293.77928c0.72211,2.70008 -5.62496,-2.42403 -15.03982,-1.47277c-10.09682,1.02018 5.73721,21.02745 1.38412,27.2764c-1.95104,2.80075 -24.40993,7.62289 -19.46112,14.94746c5.39724,7.98829 9.04103,5.60598 6.80897,6.20292c-6.00005,1.60466 -18.1628,-3.65077 -13.40618,-12.0737c2.86856,-5.07957 23.59678,-12.52775 22.38304,-16.87195c-1.16879,-4.18337 -25.97447,-7.49695 -26.56541,-9.70656c-2.22216,-8.309 3.04492,-13.49725 16.14785,-17.00152c13.10293,-3.50427 25.52636,0.39072 27.74853,8.6997z" fill="#1c29ba" stroke="none"/><path d="M457.27688,-279.37198c4.15334,15.52988 -2.9577,30.92158 -15.88297,34.37834c-6.72999,1.79988 -30.61902,-7.10766 -29.89464,-13.6032c0.66683,-5.97944 25.7991,-9.17489 23.80833,-16.61859c-2.07168,-7.74632 -29.1655,-8.60076 -26.30838,-14.81431c2.87087,-6.24344 10.87598,-9.47001 17.3541,-11.20254c6.9412,-1.85637 18.01508,-4.7658 23.84332,-0.1449c5.02454,3.9837 5.15734,14.81531 7.08021,22.0052z" fill="none" stroke="#000000"/></g><g><path d="M494.72237,-288.25312c2.49598,9.33278 -10.12842,7.8199 -14.58578,14.49257c-2.95976,4.43075 3.86057,18.50636 -1.29717,19.88576c-12.92526,3.45676 -26.77019,-6.33042 -30.92354,-21.86032c-2.07168,-7.74632 -4.32829,-16.96223 -1.47115,-23.17578c2.87089,-6.24343 10.87598,-9.47005 17.35411,-11.20257c6.9412,-1.85637 18.01509,-4.76579 23.84332,-0.14489c5.02454,3.9837 5.15735,14.81529 7.08023,22.0052z" fill="#ff4747" stroke="#000000"/><path d="M491.21116,-303.26995c0.72211,2.70008 -5.62496,-2.42403 -15.03982,-1.47277c-10.09682,1.02018 -23.47429,8.21245 -27.82739,14.46139c-1.95104,2.80075 1.34599,12.3376 6.2948,19.66215c5.39724,7.98829 12.49662,13.70629 10.26455,14.30323c-13.10293,3.50427 -18.91988,-25.95496 -21.14205,-34.26394c-2.22216,-8.309 6.59843,-17.8855 19.70135,-21.38977c13.10293,-3.50427 25.52636,0.39072 27.74853,8.6997z" fill="#ba1c1c" stroke="none"/><path d="M494.03019,-288.86263c2.69825,10.0891 -8.0316,6.96912 -13.34735,13.70702c-2.86664,3.63355 1.99265,19.46027 -2.5356,20.67132c-12.92526,3.45676 -26.77021,-6.33046 -30.92354,-21.86032c-2.07168,-7.74632 -4.32829,-16.96223 -1.47115,-23.17578c2.87087,-6.24344 10.87598,-9.47001 17.3541,-11.20254c6.9412,-1.85637 18.01508,-4.7658 23.84332,-0.1449c5.02454,3.9837 5.15734,14.81531 7.08021,22.0052z" fill="none" stroke="#000000"/></g></g><g data-paper-data="{&quot;index&quot;:null}" stroke-linecap="butt"><path d="M566.64748,-131.14265c-24.24519,-11.28009 -34.46519,-40.70296 -22.82699,-65.71782c11.63817,-25.01488 40.72739,-36.14912 64.97258,-24.86903c5.89596,2.74309 3.50653,35.33985 8.56458,37.72474c5.43925,2.56463 18.18371,-24.97747 20.30018,-18.74074c4.00871,11.81272 -0.27323,34.3437 -6.03775,46.73382c-4.0778,8.76476 -11.67217,-10.73727 -19.07578,-5.74777c-8.51853,5.74088 -10.68769,27.3081 -20.47708,34.76879c-5.98496,4.56123 -19.44398,-1.37174 -25.41972,-4.15197z" fill="#737373" stroke="#000000"/><path d="M540.58521,-157.92023c-6.23447,-2.9006 -4.26336,-20.35172 4.4026,-38.97818c8.66596,-18.62646 20.74517,-31.3748 26.97964,-28.4742c2.81772,1.31095 24.7933,-5.60559 37.61047,7.24547c3.04812,3.05619 -0.50741,35.11951 4.285,35.80166c9.2604,1.31816 26.8445,-30.10369 23.32618,-22.54147c-0.66061,1.4199 6.8057,17.30563 1.3831,21.81754c-5.56566,4.63096 -22.0289,7.61213 -26.29179,5.36345c-15.92681,-8.40141 -28.26706,-44.40146 -37.88832,-36.79788c-18.20761,14.3893 -30.35794,58.16822 -33.80688,56.56361z" fill="#484848" stroke="none"/><path d="M566.49842,-131.55107c-24.24519,-11.28009 -34.46519,-40.70296 -22.82699,-65.71782c0.59466,-1.27814 1.23486,-2.52004 1.91766,-3.72456c12.68051,-22.3696 40.04854,-31.8482 63.05491,-21.14449c8.34521,3.88262 2.06456,29.99834 6.76709,37.26025c4.02631,6.21762 19.39081,-25.52649 23.1952,-22.54926c4.6615,3.64798 -2.9328,41.97404 -7.13531,51.00684c-2.59711,5.58218 -14.45735,-10.20125 -18.54476,-6.09636c-8.01482,8.04911 -10.65029,28.01075 -19.24846,35.02955c-6.66656,5.44201 -18.95366,-0.23717 -27.17936,-4.06417z" fill="none" stroke="#000000"/><path d="M572.49446,-155.65957c-7.38901,-3.43775 -8.73424,-16.20788 -3.00468,-28.52289c5.72956,-12.31501 16.36426,-19.51147 23.75329,-16.07372c7.38901,3.43775 8.73424,16.20788 3.00468,28.52289c-5.72956,12.31501 -16.36426,19.51147 -23.75329,16.07372z" fill="#484848" stroke="none"/><path d="M573.14878,-151.96453c-7.85082,-3.65259 -12.53145,-10.23255 -10.45449,-14.69676c2.07698,-4.46419 10.12503,-5.12211 17.97585,-1.46952c7.85082,3.65259 12.53145,10.23255 10.45449,14.69676c-2.07698,4.46419 -10.12503,5.12211 -17.97585,1.46952z" fill="#000000" stroke="#000000"/><path d="M585.67326,-185.80775c-2.02852,-0.94378 5.09789,-11.3893 4.48604,-20.02469c-0.61857,-8.73024 -8.95734,-15.66085 -7.67914,-18.40817c2.54251,-5.46479 8.66292,-3.40067 12.74227,-1.50275c4.07935,1.89792 4.98324,28.01243 2.44073,33.47722c-2.54251,5.46479 -7.91056,8.35631 -11.98992,6.45839z" fill="#000000" stroke="#000000"/></g><g data-paper-data="{&quot;index&quot;:null}" stroke-linecap="butt"><g><path d="M346.27992,-272.97175l11.5355,41.4175l-88.29866,26.26904l-11.53548,-41.41748z" fill="#252525" stroke="#000000"/><path d="M346.27992,-272.97175l11.5355,41.4175l-88.29866,26.26904l-11.53548,-41.41748z" fill="#252525" stroke="#000000"/><path d="M346.27992,-272.97175l11.5355,41.4175l-88.29866,26.26904l-11.53548,-41.41748z" fill="none" stroke="#000000"/><path d="M269.25721,-208.43979c-0.58537,-2.10176 -9.96608,-25.31693 -9.00091,-33.38491c1.73593,-14.51101 16.78249,-12.62121 24.76184,-14.99508c12.41579,-3.69374 59.06512,-21.57568 60.70334,-15.69373c0.38856,1.39509 13.87635,39.45995 10.06832,42.32747c-4.62721,3.48438 -10.38299,-20.52995 -20.53638,-22.83279c-16.72055,-3.79232 -39.49059,11.70609 -45.38328,13.45921c-6.06114,1.80321 -16.29808,-0.17207 -19.6765,7.74161c-3.54203,8.29689 -0.09792,26.38874 -0.93641,23.37824z" fill="#141414" stroke="none"/><path d="M346.27992,-272.97175l11.5355,41.4175l-88.29866,26.26904l-11.53548,-41.41748z" fill="none" stroke="#000000"/></g><g><path d="M272.25311,-264.71856l11.31718,41.47588l-42.934,14.13664l-11.31717,-41.47587z" fill="#252525" stroke="#000000"/><path d="M272.25311,-264.71856l11.31718,41.47588l-42.934,14.13664l-11.31717,-41.47587z" fill="#6c6c6c" stroke="#000000"/><path d="M272.25311,-264.71856l11.31718,41.47588l-42.934,14.13664l-11.31717,-41.47587z" fill="none" stroke="#000000"/><path d="M240.09876,-212.18631c-0.57428,-2.10471 -8.44546,-25.72359 -8.96647,-33.39412c-0.93707,-13.79614 7.18935,-10.05562 11.06921,-11.33311c6.037,-1.98779 28.21004,-13.32372 29.81725,-7.43349c0.3812,1.39705 12.29487,39.8829 10.66406,42.16813c-1.98164,2.77685 -8.05469,-21.15264 -13.66919,-24.66937c-9.24592,-5.79135 -19.20715,6.28147 -22.07239,7.2249c-2.94714,0.97038 -8.56373,-2.24058 -9.32717,4.97376c-0.8004,7.56364 3.30731,25.47802 2.48469,22.46331z" fill="#545454" stroke="none"/><path d="M272.25311,-264.71856l11.31718,41.47588l-42.934,14.13664l-11.31717,-41.47587z" fill="none" stroke="#000000"/></g><g><path d="M336.77489,-286.06315l11.31718,41.47588l-42.93398,14.13664l-11.31718,-41.47587z" fill="#252525" stroke="#000000"/><path d="M336.77489,-286.06315l11.31718,41.47588l-42.93398,14.13664l-11.31718,-41.47587z" fill="#6c6c6c" stroke="#000000"/><path d="M336.77489,-286.06315l11.31718,41.47588l-42.93398,14.13664l-11.31718,-41.47587z" fill="none" stroke="#000000"/><path d="M304.62054,-233.53086c-0.57428,-2.10471 -8.44545,-25.72359 -8.96647,-33.39412c-0.93707,-13.79614 7.18936,-10.0556 11.06921,-11.33311c6.037,-1.98779 28.21002,-13.32374 29.81725,-7.4335c0.3812,1.39705 12.29487,39.88292 10.66406,42.16813c-1.98166,2.77685 -8.05469,-21.15264 -13.66921,-24.66935c-9.24592,-5.79135 -19.20716,6.28145 -22.07239,7.22488c-2.94714,0.97038 -8.56373,-2.24056 -9.32717,4.97377c-0.8004,7.56364 3.30729,25.47801 2.48469,22.46329z" fill="#545454" stroke="none"/><path d="M336.77489,-286.06315l11.31718,41.47588l-42.93398,14.13664l-11.31718,-41.47587z" fill="none" stroke="#000000"/></g><g><path d="M300.92134,-276.2339l11.31718,41.47588l-42.934,14.13664l-11.31717,-41.47587z" fill="#252525" stroke="#000000"/><path d="M300.92134,-276.2339l11.31718,41.47588l-42.934,14.13664l-11.31717,-41.47587z" fill="#6c6c6c" stroke="#000000"/><path d="M300.92134,-276.2339l11.31718,41.47588l-42.934,14.13664l-11.31717,-41.47587z" fill="none" stroke="#000000"/><path d="M268.76699,-223.70161c-0.57428,-2.10471 -8.44545,-25.72359 -8.96647,-33.39412c-0.93707,-13.79614 7.18936,-10.0556 11.06921,-11.33311c6.037,-1.98779 28.21002,-13.32374 29.81725,-7.4335c0.3812,1.39705 12.29485,39.88292 10.66406,42.16813c-1.98166,2.77685 -8.05469,-21.15264 -13.66919,-24.66937c-9.24592,-5.79135 -19.20716,6.28145 -22.07239,7.22488c-2.94714,0.97038 -8.56373,-2.24056 -9.32717,4.97377c-0.8004,7.56364 3.30729,25.47801 2.48469,22.46329z" fill="#545454" stroke="none"/><path d="M300.92134,-276.2339l11.31718,41.47588l-42.934,14.13664l-11.31717,-41.47587z" fill="none" stroke="#000000"/></g></g></g></g></svg>