<svg version="1.1" xmlns="http://www.w3.org/2000/svg" xmlns:xlink="http://www.w3.org/1999/xlink" width="371.44874" height="311.83341" viewBox="0,0,371.44874,311.83341"><g transform="translate(40.78857,-134.76461)"><g data-paper-data="{&quot;isPaintingLayer&quot;:true}" fill-rule="nonzero" stroke-width="7" stroke-linejoin="miter" stroke-miterlimit="10" stroke-dasharray="" stroke-dashoffset="0" style="mix-blend-mode: normal"><g><path d="M54.7257,380.95778c4.29292,-12.94242 34.65619,-79.42458 64.6133,-102.61642c14.19302,-10.9878 27.94729,5.24497 39.43881,9.05664c35.74655,11.8569 31.72443,117.42317 25.39762,136.49743c-6.3268,19.07424 -40.43402,24.92506 -76.18057,13.06816c-35.74655,-11.8569 -59.59598,-36.93157 -53.26918,-56.00581z" fill="#737373" stroke="#000000" stroke-linecap="butt"/><path d="M58.91882,387.4085c1.36261,-4.10803 38.06454,-100.84869 57.67331,-105.08142c17.28932,-3.73205 -29.15869,22.81725 -16.3842,46.79423c6.71312,12.60014 55.93347,27.95275 79.86983,35.44051c13.49677,4.22206 6.62635,3.40384 9.86692,4.42431c0.13397,0.04219 3.01293,5.43555 -5.20111,3.72642c-21.62164,-4.49893 -72.54472,-18.86331 -96.49621,-14.87771c-31.31047,5.21017 -26.6339,32.7393 -26.16999,32.89318c10.82802,3.59158 28.25606,20.35062 45.58092,24.4583c36.25266,8.59543 74.99714,4.98741 72.52369,12.44443c-3.65549,11.02069 -33.76453,10.95065 -67.25045,-0.15641c-33.48592,-11.10706 -57.66824,-29.04513 -54.01275,-40.06582z" fill="#484848" stroke="none" stroke-linecap="butt"/><path d="M121.18845,273.27529c13.89253,-11.08745 27.10164,4.96448 38.22978,8.65561c34.61623,11.48198 29.71121,116.7554 23.3844,135.82966c-6.32681,19.07426 -39.5177,25.229 -74.13393,13.74702c-34.61623,-11.48198 -57.54935,-36.25269 -51.22254,-55.32696c4.29292,-12.94242 34.41942,-79.50312 63.74229,-102.90533z" fill="none" stroke="#000000" stroke-linecap="butt"/><path d="M183.34126,378.46654l-106.08566,-36.32384" fill="none" stroke="#000000" stroke-linecap="round"/><path d="M88.81339,312.57675l21.64681,-1.90713l10.41296,9.70139" fill="none" stroke="#000000" stroke-linecap="round"/><path d="M185.60848,397.26683l-21.98372,4.63514l-16.73014,-16.34037" fill="none" stroke="#000000" stroke-linecap="round"/></g><g data-paper-data="{&quot;index&quot;:null}" stroke-linecap="butt"><path d="M295.10524,388.53918c-21.43247,3.60553 -41.82986,-11.44108 -45.55887,-33.60752c-3.72901,-22.16644 10.62247,-43.05877 32.05494,-46.6643c21.43247,-3.60553 41.82986,11.44108 45.55887,33.60752c3.72901,22.16644 -10.62247,43.05877 -32.05494,46.6643z" fill="#737373" stroke="#000000"/><path d="M279.92175,391.05192c-12.91819,2.1732 -26.38006,-13.8362 -30.06791,-35.75797c-3.68785,-21.9218 3.79483,-41.45464 16.71303,-43.62784c12.91819,-2.1732 42.64266,-15.13863 46.33051,6.78317c1.4053,8.35354 -14.88836,-0.00594 -28.75183,2.781c-8.61874,1.73262 -15.42041,12.9915 -19.11768,19.37205c-2.81334,4.85509 -5.40646,18.7858 -0.64414,29.47681c5.33056,11.96665 18.14455,20.53431 15.53802,20.9728z" fill="#484848" stroke="none"/><path d="M294.51568,389.36721c-21.43247,3.60553 -41.82986,-11.44108 -45.55887,-33.60752c-3.72901,-22.16644 10.62247,-43.05877 32.05494,-46.6643c21.43247,-3.60553 41.82986,11.44108 45.55887,33.60752c3.72901,22.16644 -10.62247,43.05877 -32.05494,46.6643z" fill="none" stroke="#000000"/></g><path d="M68.71091,237.5595z" fill="#ffffff" stroke="#000000" stroke-linecap="butt"/><g stroke-linecap="butt"><path d="M16.2878,279.88174c21.39153,6.90355 33.32168,29.26704 26.64672,49.95026c-6.67497,20.68322 -29.42737,31.85382 -50.8189,24.95026c-21.39153,-6.90355 -33.32168,-29.26704 -26.64672,-49.95026c6.67497,-20.68322 29.42737,-31.85382 50.8189,-24.95026z" fill="#737373" stroke="#000000"/><path d="M-39.21874,319.49071c0.81178,-2.5154 7.431,11.40541 18.49829,18.41471c9.88754,6.26212 24.04701,5.71623 29.25872,3.63657c6.84918,-2.73307 18.97527,-7.83039 21.93923,-16.10687c4.76757,-13.31287 -1.14111,-30.64642 6.9204,-28.04478c21.15544,6.82736 4.0172,34.35786 -0.00607,46.82445c-4.02326,12.46659 -24.43463,17.0381 -45.59007,10.21074c-21.15544,-6.82736 -35.0438,-22.4682 -31.02053,-34.9348z" fill="#484848" stroke="none"/><path d="M15.38303,280.34501c21.39153,6.90355 33.32168,29.26704 26.64672,49.95026c-6.67497,20.68322 -29.42737,31.85382 -50.8189,24.95026c-21.39153,-6.90355 -33.32168,-29.26704 -26.64672,-49.95026c6.67497,-20.68322 29.42737,-31.85382 50.8189,-24.95026z" fill="none" stroke="#000000"/></g><g><path d="M164.82088,138.62116c48.19169,-4.26036 90.60621,30.15096 94.73547,76.85983c4.12927,46.70887 -31.59037,88.02759 -79.78207,92.28795c-48.19169,4.26036 -90.60621,-30.15096 -94.73547,-76.85983c-4.12927,-46.70887 31.59037,-88.02759 79.78207,-92.28795z" fill="#737373" stroke="#000000" stroke-linecap="butt"/><path d="M227.07821,267.87877c27.93865,-17.31116 10.05597,-63.34463 26.08894,-64.76202c7.95136,-0.70293 9.28503,3.85181 10.55798,8.63364c4.47189,16.79846 -20.96655,57.27539 -20.14001,66.62483c0.23121,2.61541 -12.32189,5.62459 -14.64505,8.17079c-8.34559,9.14691 -20.33626,16.83924 -48.40658,19.32078c-25.75897,2.27721 -46.77446,-5.47946 -57.9275,-11.82439c-4.38402,-2.49405 -8.6697,-0.79013 -8.9693,-4.17917c-0.5874,-6.64444 78.84911,-0.55057 113.44154,-21.98447z" fill="#484848" stroke="none" stroke-linecap="butt"/><path d="M165.40533,139.11068c48.19169,-4.26036 90.60621,30.15096 94.73547,76.85983c4.12927,46.70887 -31.59037,88.02759 -79.78207,92.28795c-48.19169,4.26036 -90.60621,-30.15096 -94.73547,-76.85983c-4.12927,-46.70887 31.59037,-88.02759 79.78207,-92.28795z" fill="none" stroke="#000000" stroke-linecap="butt"/><path d="M169.6327,206.3278c23.72513,-2.09741 43.97834,7.74212 45.23678,21.97721c1.25845,14.23508 -16.95442,27.47518 -40.67955,29.57259c-23.72513,2.09741 -43.97834,-7.74212 -45.23678,-21.97721c-1.25845,-14.23508 16.95442,-27.47518 40.67955,-29.57259z" fill="#484848" stroke="none" stroke-linecap="butt"/><path d="M136.4024,203.85377c8.60035,-0.76031 16.65627,10.88439 17.99336,26.00916c1.3371,15.12477 -4.55095,28.00217 -13.1513,28.7625c-8.60035,0.76031 -16.65627,-10.88439 -17.99336,-26.00916c-1.3371,-15.12477 4.55095,-28.00217 13.1513,-28.7625z" fill="#000000" stroke="#000000" stroke-linecap="butt"/><path d="M204.33308,216.2483c10.52803,-0.93072 19.6259,4.68571 20.32067,12.54467c0.69476,7.85896 -7.27667,14.9844 -17.8047,15.91512c-10.52803,0.93072 -19.6259,-4.68571 -20.32067,-12.54467c-0.69476,-7.85896 7.27667,-14.9844 17.8047,-15.91512z" fill="#ffffff" stroke="#000000" stroke-linecap="butt"/><path d="M91.59758,194.27286l23.86434,0.59615l7.20635,26.42161" fill="none" stroke="#000000" stroke-linecap="round"/><path d="M136.81461,282.98203l-2.31808,-9.89699" fill="none" stroke="#000000" stroke-linecap="round"/><path d="M166.58858,268.80483l-0.44307,-5.01178" fill="none" stroke="#000000" stroke-linecap="round"/><path d="M215.92715,263.72152l0.44307,5.01178" fill="none" stroke="#000000" stroke-linecap="round"/></g></g></g></svg>