<svg version="1.1" xmlns="http://www.w3.org/2000/svg" xmlns:xlink="http://www.w3.org/1999/xlink" width="444.38373" height="779.20774" viewBox="0,0,444.38373,779.20774"><g transform="translate(-2.64689,-196.15766)"><g data-paper-data="{&quot;isPaintingLayer&quot;:true}" fill-rule="nonzero" stroke-width="6.5" stroke-linejoin="miter" stroke-miterlimit="10" stroke-dasharray="" stroke-dashoffset="0" style="mix-blend-mode: normal"><g><g fill="none" stroke="#000000" stroke-linecap="round"><path d="M277.68048,383.15727l21.70907,58.27171"/><path d="M266.28267,436.93182l35.80093,-57.89086l8.37895,64.74636"/></g><g fill="none" stroke="#000000" stroke-linecap="round"><g><path d="M145.1409,441.42898l21.70907,-58.27171" data-paper-data="{&quot;index&quot;:null}"/><path d="M143.99832,410.57925l3.42775,-26.2794"/></g><path d="M144.40718,439.21698l-15.23442,-63.22291"/><path d="M124.60243,417.12704l0.76174,-46.46502"/></g><g data-paper-data="{&quot;index&quot;:null}" stroke-linecap="butt"><g><g><path d="M263.71848,753.46585l-26.59567,-94.10472l53.90177,-14.88799l26.59567,94.10472z" fill="#252525" stroke="#000000"/><path d="M263.71848,753.46585l-26.59567,-94.10472l53.90177,-14.88799l26.59567,94.10472z" fill="#252525" stroke="#000000"/><path d="M292.59207,651.35062c1.34962,4.77538 18.41439,58.88836 21.21758,75.71467c5.04181,30.26361 -6.52543,13.27834 -11.39639,14.62373c-5.43241,1.50046 -23.14136,8.32406 -32.86211,10.02157c-3.84152,0.67083 -4.54926,4.82104 -5.61911,1.03557c-0.89583,-3.16978 -27.47479,-91.00926 -25.90648,-95.36618c1.90571,-5.2942 16.63586,48.83181 25.15501,58.52072c14.02925,15.95564 24.12549,-6.56756 27.72269,-7.56113c3.70003,-1.02197 12.13813,8.00452 11.18842,-7.36059c-0.99569,-16.10916 -11.43273,-56.46853 -9.49957,-49.62837z" fill="#141414" stroke="none"/><path d="M263.71848,753.46585l-26.59567,-94.10472l53.90177,-14.88799l26.59567,94.10472z" fill="none" stroke="#000000"/><path d="M263.71848,753.46585l-26.59567,-94.10472l53.90177,-14.88799l26.59567,94.10472z" fill="none" stroke="#000000"/></g><g><path d="M239.03959,714.60822l-5.38479,-19.05332l78.74981,-21.75116l5.38479,19.05334z" fill="#252525" stroke="#000000"/><path d="M239.03959,714.60822l-5.38479,-19.05332l78.74981,-21.75116l5.38479,19.05334z" fill="#252525" stroke="#000000"/><path d="M312.28277,675.31752c0.27326,0.96685 5.79641,11.35188 4.08496,15.38816c-3.07819,7.2596 -15.31477,9.72141 -22.4312,11.687c-11.07313,3.05846 -53.6022,14.64124 -54.36693,11.93537c-0.18137,-0.64179 -7.61038,-17.86106 -4.02454,-19.64591c4.35724,-2.16883 6.67796,8.97277 15.15135,9.07051c13.95393,0.16094 35.21535,-9.70722 40.47078,-11.1588c5.40567,-1.49308 13.98665,-1.56372 17.75502,-5.76865c3.95084,-4.40854 2.96916,-12.89258 3.36054,-11.50766z" fill="#141414" stroke="none"/><path d="M239.03959,714.60822l-5.38479,-19.05332l78.74981,-21.75116l5.38479,19.05334z" fill="none" stroke="#000000"/><path d="M239.03959,714.60822l-5.38479,-19.05332l78.74981,-21.75116l5.38479,19.05334z" fill="none" stroke="#000000"/></g><g><path d="M242.03693,746.35195l-5.38479,-19.05334l88.97153,-24.57446l5.38481,19.05334z" fill="#252525" stroke="#000000"/><path d="M242.03693,746.35195l-5.38479,-19.05334l88.97153,-24.57446l5.38481,19.05334z" fill="#252525" stroke="#000000"/><path d="M325.43565,704.25621c0.27326,0.96685 6.10799,11.26582 4.05315,15.39696c-3.69582,7.43021 -17.48947,10.32207 -25.52961,12.54279c-12.51041,3.45544 -60.5542,16.56144 -61.31893,13.85555c-0.18137,-0.64179 -7.91892,-17.77584 -3.84061,-19.69673c4.95565,-2.33414 7.17668,8.83502 16.66697,8.65189c15.62852,-0.3016 39.78564,-10.96957 45.72325,-12.60959c6.10733,-1.68689 15.72386,-2.04353 20.08905,-6.41329c4.57655,-4.58137 3.76536,-13.11251 4.15674,-11.72758z" fill="#141414" stroke="none"/><path d="M242.03693,746.35195l-5.38479,-19.05334l88.97153,-24.57446l5.38481,19.05334z" fill="none" stroke="#000000"/><path d="M242.03693,746.35195l-5.38479,-19.05334l88.97153,-24.57446l5.38481,19.05334z" fill="none" stroke="#000000"/></g></g><g><path d="M220.66248,680.03095l-6.18462,-21.88338l91.89204,-25.3811l6.18464,21.88338z" fill="#252525" stroke="#000000"/><path d="M220.66248,680.03095l-6.18462,-21.88338l91.89204,-25.3811l6.18464,21.88338z" fill="#252525" stroke="#000000"/><path d="M306.22059,634.50769c0.31384,1.11048 6.70138,13.02585 4.68719,17.67504c-3.62274,8.36204 -17.89696,11.25026 -26.20104,13.5439c-12.92108,3.56888 -62.54689,17.08746 -63.42521,13.97966c-0.20832,-0.7371 -8.7844,-20.50193 -4.59631,-22.57112c5.08904,-2.51437 7.7404,10.28605 17.61616,10.35856c16.26331,0.11945 41.09218,-11.32756 47.2247,-13.02142c6.30781,-1.74226 16.30977,-1.8638 20.72224,-6.71663c4.62616,-5.08778 3.52272,-14.83865 3.97226,-13.24802z" fill="#141414" stroke="none"/><path d="M220.66248,680.03095l-6.18462,-21.88338l91.89204,-25.3811l6.18464,21.88338z" fill="none" stroke="#000000"/><path d="M220.66248,680.03095l-6.18462,-21.88338l91.89204,-25.3811l6.18464,21.88338z" fill="none" stroke="#000000"/></g></g><g stroke-linecap="butt"><g><g><path d="M118.74946,738.00659l26.59564,-94.10472l53.90177,14.88799l-26.59567,94.10472z" fill="#252525" stroke="#000000"/><path d="M118.74946,738.00659l26.59564,-94.10472l53.90177,14.88799l-26.59567,94.10472z" fill="#252525" stroke="#000000"/><path d="M143.77759,650.77933c1.93316,-6.84016 -8.5039,33.51921 -9.49959,49.62837c-0.94971,15.36511 7.48842,6.33861 11.18844,7.36059c3.59722,0.99357 13.69346,23.51677 27.72269,7.56113c8.51914,-9.68892 23.24929,-63.81493 25.15498,-58.52072c1.56833,4.35694 -25.01063,92.19643 -25.90646,95.3662c-1.06985,3.78547 -1.77758,-0.36476 -5.61911,-1.03559c-9.72075,-1.69751 -27.42971,-8.52111 -32.86209,-10.02157c-4.87097,-1.34539 -16.43818,15.63988 -11.39639,-14.62373c2.80319,-16.82631 19.86796,-70.93929 21.21758,-75.71467z" fill="#141414" stroke="none"/><path d="M118.74946,738.00659l26.59564,-94.10472l53.90177,14.88799l-26.59567,94.10472z" fill="none" stroke="#000000"/><path d="M118.74946,738.00659l26.59564,-94.10472l53.90177,14.88799l-26.59567,94.10472z" fill="none" stroke="#000000"/></g><g><path d="M118.58029,692.28579l5.38479,-19.05334l78.74981,21.75116l-5.38481,19.05332z" fill="#252525" stroke="#000000"/><path d="M118.58029,692.28579l5.38479,-19.05334l78.74981,21.75116l-5.38481,19.05332z" fill="#252525" stroke="#000000"/><path d="M124.08694,674.74625c0.39138,-1.38492 -0.59033,7.09912 3.36052,11.50766c3.76837,4.20493 12.34935,4.27557 17.75505,5.76865c5.25547,1.45158 26.5169,11.31977 40.4708,11.15883c8.47339,-0.09771 10.79411,-11.23933 15.15135,-9.07051c3.58584,1.78485 -3.84319,19.00412 -4.02456,19.64591c-0.76473,2.70586 -43.29382,-8.87691 -54.36693,-11.93537c-7.11642,-1.96561 -19.35299,-4.42737 -22.43118,-11.687c-1.71145,-4.03629 3.81168,-14.42133 4.08494,-15.38819z" fill="#141414" stroke="none"/><path d="M118.58029,692.28579l5.38479,-19.05334l78.74981,21.75116l-5.38481,19.05332z" fill="none" stroke="#000000"/><path d="M118.58029,692.28579l5.38479,-19.05334l78.74981,21.75116l-5.38481,19.05332z" fill="none" stroke="#000000"/></g><g><path d="M105.3612,721.2062l5.38481,-19.05334l88.97156,24.57446l-5.38481,19.05334z" fill="#252525" stroke="#000000"/><path d="M105.3612,721.2062l5.38481,-19.05334l88.97156,24.57446l-5.38481,19.05334z" fill="#252525" stroke="#000000"/><path d="M115.09077,715.4125c4.36517,4.36976 13.98169,4.72641 20.08905,6.41329c5.93761,1.64002 30.09473,12.30799 45.72325,12.60959c9.49027,0.18313 11.71129,-10.98602 16.66694,-8.65189c4.07833,1.92089 -3.65921,19.05494 -3.84059,19.69673c-0.76473,2.70589 -48.80852,-10.40011 -61.31893,-13.85555c-8.04015,-2.22072 -21.83379,-5.11258 -25.52961,-12.54279c-2.05484,-4.13114 3.77989,-14.43011 4.05315,-15.39696c0.39138,-1.38492 -0.41978,7.14621 4.15674,11.72758z" fill="#141414" stroke="none"/><path d="M105.3612,721.2062l5.38481,-19.05334l88.97156,24.57446l-5.38481,19.05334z" fill="none" stroke="#000000"/><path d="M105.3612,721.2062l5.38481,-19.05334l88.97156,24.57446l-5.38481,19.05334z" fill="none" stroke="#000000"/></g></g><g><path d="M123.81517,654.07856l6.18464,-21.88338l91.89204,25.3811l-6.18462,21.8834z" fill="#252525" stroke="#000000"/><path d="M123.81517,654.07856l6.18464,-21.88338l91.89204,25.3811l-6.18462,21.8834z" fill="#252525" stroke="#000000"/><path d="M130.14912,633.93638c0.44954,-1.59063 -0.6539,8.16023 3.97226,13.24802c4.41247,4.85282 14.41443,4.97437 20.72224,6.71663c6.13249,1.69386 30.96138,13.14086 47.2247,13.02142c9.87575,-0.07251 12.52709,-12.87293 17.61613,-10.35856c4.18809,2.06919 -4.388,21.83402 -4.59631,22.57112c-0.8783,3.1078 -50.50411,-10.41078 -63.42519,-13.97966c-8.30406,-2.29364 -22.5783,-5.18186 -26.20104,-13.5439c-2.01421,-4.64919 4.37335,-16.56457 4.68719,-17.67504z" fill="#141414" stroke="none"/><path d="M123.81517,654.07856l6.18464,-21.88338l91.89204,25.3811l-6.18462,21.8834z" fill="none" stroke="#000000"/><path d="M123.81517,654.07856l6.18464,-21.88338l91.89204,25.3811l-6.18462,21.8834z" fill="none" stroke="#000000"/></g></g><g stroke-linecap="butt"><g><g><path d="M180.32291,630.99211l1.97253,-97.77084l55.9144,0.79544l-1.97255,97.77084z" fill="#252525" stroke="#000000"/><path d="M180.32291,630.99211l1.97253,-97.77084l55.9144,0.79544l-1.97255,97.77084z" fill="#252525" stroke="#000000"/><path d="M182.51535,540.27169c0.14339,-7.10666 0.23523,34.58031 3.33933,50.4189c2.96075,15.10704 8.84624,4.24239 12.68443,4.297c3.73149,0.05306 19.18769,19.29717 28.73355,0.31618c5.79664,-11.52603 6.38272,-67.61756 9.56346,-62.97609c2.61761,3.81977 -0.92074,95.52415 -0.98719,98.81742c-0.07934,3.93295 -1.81207,0.09591 -5.69849,0.41679c-9.83439,0.81196 -28.69251,-1.31902 -34.32773,-1.39918c-5.05284,-0.07189 -11.95649,19.28371 -14.71959,-11.27233c-1.53625,-16.98888 1.31212,-73.65727 1.41221,-78.61871z" fill="#141414" stroke="none"/><path d="M180.32291,630.99211l1.97253,-97.77084l55.9144,0.79544l-1.97255,97.77084z" fill="none" stroke="#000000"/><path d="M180.32291,630.99211l1.97253,-97.77084l55.9144,0.79544l-1.97255,97.77084z" fill="none" stroke="#000000"/></g><g><path d="M168.61478,586.7955l0.39938,-19.79561l81.69024,1.16212l-0.39938,19.79561z" fill="#252525" stroke="#000000"/><path d="M168.61478,586.7955l0.39938,-19.79561l81.69024,1.16212l-0.39938,19.79561z" fill="#252525" stroke="#000000"/><path d="M175.6716,578.72012c4.70801,3.11717 13.02878,1.01884 18.6363,1.09862c5.45167,0.07756 28.51587,4.25745 41.977,0.5784c8.17417,-2.23409 7.60645,-13.60066 12.37012,-12.6023c3.92034,0.82161 1.0799,19.35873 1.06644,20.02552c-0.05674,2.8113 -44.13239,2.34239 -55.61898,2.17897c-7.38216,-0.105 -19.84383,0.60269 -24.65531,-5.64447c-2.67515,-3.47336 0.04682,-14.91646 0.06709,-15.921c0.02902,-1.43888 1.22135,7.01815 6.15733,10.28626z" fill="#141414" stroke="none"/><path d="M168.61478,586.7955l0.39938,-19.79561l81.69024,1.16212l-0.39938,19.79561z" fill="none" stroke="#000000"/><path d="M168.61478,586.7955l0.39938,-19.79561l81.69024,1.16212l-0.39938,19.79561z" fill="none" stroke="#000000"/></g><g><path d="M163.12641,618.11662l0.39938,-19.79563l92.29364,1.31299l-0.39938,19.79561z" fill="#252525" stroke="#000000"/><path d="M163.12641,618.11662l0.39938,-19.79563l92.29364,1.31299l-0.39938,19.79561z" fill="#252525" stroke="#000000"/><path d="M164.09456,599.75593c0.02902,-1.43888 1.3982,7.02064 6.98324,10.29801c5.32711,3.12597 14.72208,1.0429 21.05748,1.13303c6.15932,0.08764 32.22732,4.31028 47.42559,0.65593c9.22898,-2.21908 8.55785,-13.58713 13.9423,-12.57995c4.43119,0.82888 1.27071,19.36147 1.25725,20.02826c-0.05672,2.8113 -49.853,2.26099 -62.83055,2.07637c-8.34035,-0.11865 -22.41722,0.56608 -27.86942,-5.69018c-3.03136,-3.47843 0.01385,-14.91692 0.03412,-15.92145z" fill="#141414" stroke="none"/><path d="M163.12641,618.11662l0.39938,-19.79563l92.29364,1.31299l-0.39938,19.79561z" fill="none" stroke="#000000"/><path d="M163.12641,618.11662l0.39938,-19.79563l92.29364,1.31299l-0.39938,19.79561z" fill="none" stroke="#000000"/></g></g><g><path d="M164.03275,548.5045l0.4587,-22.73591l95.32319,1.35604l-0.45868,22.73591z" fill="#252525" stroke="#000000"/><path d="M164.03275,548.5045l0.4587,-22.73591l95.32319,1.35604l-0.45868,22.73591z" fill="#252525" stroke="#000000"/><path d="M172.26423,539.23146c5.49482,3.58143 15.20339,1.17355 21.74673,1.26664c6.36149,0.09049 33.27619,4.89734 48.98238,0.67529c9.53743,-2.56377 8.87076,-15.6189 14.42979,-14.47099c4.57485,0.94469 1.26726,22.23452 1.25181,23.00035c-0.06513,3.22887 -51.49636,2.67881 -64.89988,2.48811c-8.61414,-0.12255 -23.15512,0.68701 -28.77187,-6.48932c-3.12286,-3.98999 0.04909,-17.13209 0.07237,-18.28585c0.03334,-1.65259 1.42775,8.06092 7.18867,11.81577z" fill="#141414" stroke="none"/><path d="M164.03275,548.5045l0.4587,-22.73591l95.32319,1.35604l-0.45868,22.73591z" fill="none" stroke="#000000"/><path d="M164.03275,548.5045l0.4587,-22.73591l95.32319,1.35604l-0.45868,22.73591z" fill="none" stroke="#000000"/></g></g><g stroke-linecap="butt"><path d="M171.18189,435.10487v-57.05296h95.33885v57.05296z" fill="#252525" stroke="#000000"/><path d="M171.18189,435.10487v-57.05296h95.33885v57.05296z" fill="#252525" stroke="#000000"/><path d="M171.79916,382.16313c0,-4.147 1.5902,20.17115 7.42615,29.38514c5.56641,8.78845 15.22519,2.4015 21.7696,2.4015c6.36254,0 33.37091,11.09813 48.98999,-0.05402c9.48453,-6.77204 8.55461,-39.49908 14.1361,-36.81776c4.59334,2.2066 1.71563,55.7336 1.71563,57.65536c0,8.10244 -51.436,8.55792 -64.84172,8.55792c-8.61555,0 -23.13846,2.5499 -28.89927,-15.25265c-3.20296,-9.89808 -0.2965,-42.98032 -0.2965,-45.87551z" fill="#141414" stroke="none"/><path d="M171.18189,435.10487v-57.05296h95.33885v57.05296z" fill="none" stroke="#000000"/><path d="M171.18189,435.10487v-57.05296h95.33885v57.05296z" fill="none" stroke="#000000"/></g><path d="M291.3225,363.11609l-1.52345,22.85165" fill="none" stroke="#000000" stroke-linecap="round"/><g stroke-linecap="butt"><g><g><path d="M155.14547,539.4948v-97.79419h125.71255v97.79419z" fill="#252525" stroke="#000000"/><path d="M155.14547,539.4948v-97.79419h125.71255v97.79419z" fill="#252525" stroke="#000000"/><path d="M165.7514,499.11658c7.33979,15.0642 20.07575,4.11636 28.70512,4.11636c8.38955,0 44.00243,19.02329 64.59755,-0.09257c12.50621,-11.60793 11.27999,-67.70508 18.63968,-63.10909c6.05674,3.78231 2.26222,95.53261 2.26222,98.82667c0,3.93389 -4.06858,0.12171 -12.78938,0.49785c-22.06752,0.95182 -64.55075,-0.9108 -77.22046,-0.9108c-11.36036,0 -25.99965,19.45283 -33.59579,-11.06239c-4.2234,-16.96621 -0.39095,-73.67237 -0.39095,-78.635c0,-7.10835 2.0968,34.5753 9.792,50.36897z" fill="#141414" stroke="none"/><path d="M155.14547,539.4948v-97.79419h125.71255v97.79419z" fill="none" stroke="#000000"/><path d="M155.14547,539.4948v-97.79419h125.71255v97.79419z" fill="none" stroke="#000000"/></g><g><path d="M126.82537,495.46691v-19.80034h183.6645v19.80034z" fill="#252525" stroke="#000000"/><path d="M126.82537,495.46691v-19.80034h183.6645v19.80034z" fill="#252525" stroke="#000000"/><path d="M142.3205,487.29155c10.72334,3.05003 29.33041,0.83345 41.93783,0.83345c12.25703,0 64.28704,3.8516 94.37625,-0.01876c18.2714,-2.35025 16.47993,-13.70823 27.23234,-12.77766c8.84882,0.7658 3.30508,19.34244 3.30508,20.00939c0,2.81196 -99.08835,2.97005 -124.91366,2.97005c-16.59731,0 -44.5748,0.88495 -55.67265,-5.29345c-6.17031,-3.43513 -0.57118,-14.91639 -0.57118,-15.92118c0,-1.43922 3.06342,7.00042 14.306,10.19817z" fill="#141414" stroke="none"/><path d="M126.82537,495.46691v-19.80034h183.6645v19.80034z" fill="none" stroke="#000000"/><path d="M126.82537,495.46691v-19.80034h183.6645v19.80034z" fill="none" stroke="#000000"/></g><g><path d="M115.90973,526.86458v-19.80034h207.50419v19.80034z" fill="#252525" stroke="#000000"/><path d="M115.90973,526.86458v-19.80034h207.50419v19.80034z" fill="#252525" stroke="#000000"/><path d="M117.25325,508.49101c0,-1.43922 3.46107,7.00042 16.16293,10.19817c12.11524,3.05006 33.1375,0.83345 47.38137,0.83345c13.84801,0 72.63148,3.85162 106.62628,-0.01874c20.64304,-2.35025 18.61902,-13.70823 30.7671,-12.77766c9.99739,0.7658 3.73407,19.34244 3.73407,20.00939c0,2.81196 -111.95003,2.97005 -141.12748,2.97005c-18.75168,0 -50.36063,0.88495 -62.89899,-5.29345c-6.97124,-3.43515 -0.64533,-14.91642 -0.64533,-15.9212z" fill="#141414" stroke="none"/><path d="M115.90973,526.86458v-19.80034h207.50419v19.80034z" fill="none" stroke="#000000"/><path d="M115.90973,526.86458v-19.80034h207.50419v19.80034z" fill="none" stroke="#000000"/></g></g><g><path d="M114.7902,457.24294v-22.74135h214.31551v22.74135z" fill="#252525" stroke="#000000"/><path d="M114.7902,457.24294v-22.74135h214.31551v22.74135z" fill="#252525" stroke="#000000"/><path d="M116.1778,436.14035c0,-1.653 3.57464,8.04024 16.69347,11.71293c12.51292,3.50309 34.22526,0.95723 48.93667,0.95723c14.30257,0 75.01562,4.42374 110.12631,-0.02153c21.32064,-2.69935 19.23019,-15.74435 31.77703,-14.67558c10.32556,0.87954 3.85663,22.21542 3.85663,22.98143c0,3.22962 -115.62478,3.4112 -145.75999,3.4112c-19.36721,0 -52.01369,1.01635 -64.96366,-6.07973c-7.20008,-3.94536 -0.66651,-17.13197 -0.66651,-18.28598z" fill="#141414" stroke="none"/><path d="M114.7902,457.24294v-22.74135h214.31551v22.74135z" fill="none" stroke="#000000"/><path d="M114.7902,457.24294v-22.74135h214.31551v22.74135z" fill="none" stroke="#000000"/></g></g><g><g><path d="M112.006,310.31297c0,-60.36862 47.06275,-109.30708 105.1176,-109.30708c58.05485,0 105.1176,48.93846 105.1176,109.30708c0,60.36862 -47.06275,109.30708 -105.1176,109.30708c-47.16019,0 -87.06676,-32.29416 -100.38378,-76.77595c-3.0764,-10.27591 -4.73381,-21.20224 -4.73381,-32.53111z" fill="#2c2c2c" stroke="#000000" stroke-linecap="butt"/><path d="M150.57923,354.64393c11.89239,24.55339 46.44646,31.75036 59.15212,31.75036c37.02047,0 101.30898,-48.78617 101.30898,-26.2794c0,22.50677 -58.95646,59.79516 -95.97693,59.79516c-24.06823,0 -72.06161,-8.33112 -88.84004,-59.78762c-3.39852,-10.42266 -18.75762,-30.57268 -17.59145,-49.22074c1.93213,-30.89657 22.6421,-61.65794 22.6421,-66.56848c0,-14.78232 -3.45325,63.32286 19.30523,110.31072z" fill="#111111" stroke="none" stroke-linecap="butt"/><path d="M217.1236,201.00593c58.05485,0 105.1176,48.93843 105.1176,109.30706c0,60.36862 -47.06275,109.30706 -105.1176,109.30706c-58.05485,0 -105.1176,-48.93843 -105.1176,-109.30706c0,-60.36862 47.06275,-109.30706 105.1176,-109.30706z" fill="none" stroke="#000000" stroke-linecap="butt"/><path d="M212.03232,265.69948c44.92939,0 81.35188,15.6535 81.35188,34.96303c0,19.30953 -36.42247,34.96303 -81.35188,34.96303c-44.92941,0 -81.35188,-15.6535 -81.35188,-34.96303c0,-19.30953 36.42247,-34.96303 81.35188,-34.96303z" fill="#111111" stroke="none" stroke-linecap="butt"/><path d="M136.60604,242.08584l-8.37895,123.39892" fill="none" stroke="#000000" stroke-linecap="round"/><path d="M154.12562,393.66845l15.23444,-180.52804" fill="none" stroke="#000000" stroke-linecap="round"/><path d="M189.16483,418.80527l12.18754,-217.8524" fill="none" stroke="#000000" stroke-linecap="round"/><path d="M240.20018,205.5232l-3.04688,210.23519" fill="none" stroke="#000000" stroke-linecap="round"/><path d="M270.66906,216.94903l-0.76171,187.38354" fill="none" stroke="#000000" stroke-linecap="round"/><path d="M301.13792,374.62542l-9.14066,-136.34819" fill="none" stroke="#000000" stroke-linecap="round"/><path d="M162.37637,226.21425c8.90152,-6.36265 -1.21671,12.5103 2.50116,22.84941c3.58408,9.96702 21.04925,11.3035 26.95334,11.3035c18.7206,0 -4.95118,12.469 -4.95118,45.7033c0,33.2343 -15.17603,60.17603 -33.89663,60.17603c-18.7206,0 -33.89661,-26.94173 -33.89661,-60.17603c0,-11.88016 33.56359,-72.90397 43.28992,-79.85621z" fill="#000000" stroke="#000000" stroke-linecap="butt"/><path d="M163.13808,225.45251c8.90152,-6.36268 -1.21671,12.5103 2.50116,22.84941c3.58408,9.96704 21.04925,11.3035 26.95334,11.3035c18.72058,0 -4.9512,12.469 -4.9512,45.7033c0,33.2343 -15.17603,60.17601 -33.89661,60.17601c-18.72058,0 -33.89661,-26.94171 -33.89661,-60.17601c0,-11.88018 33.56357,-72.90399 43.28992,-79.85621z" fill="none" stroke="#000000" stroke-linecap="butt"/><path d="M320.91198,306.5275c0,33.2343 -15.17601,60.17603 -33.89661,60.17603c-18.7206,0 -33.89663,-26.94173 -33.89663,-60.17603c0,-33.2343 -23.67177,-45.7033 -4.95118,-45.7033c5.90409,0 23.36926,-1.33648 26.95334,-11.3035c3.71787,-10.33912 -6.40036,-29.21207 2.50116,-22.84941c9.72633,6.95225 43.28992,67.97605 43.28992,79.85621z" data-paper-data="{&quot;index&quot;:null}" fill="#000000" stroke="#000000" stroke-linecap="butt"/><path d="M320.15027,305.76576c0,33.2343 -15.17603,60.17601 -33.89661,60.17601c-18.72058,0 -33.89661,-26.94171 -33.89661,-60.17601c0,-33.2343 -23.67177,-45.7033 -4.9512,-45.7033c5.90409,0 23.36926,-1.33646 26.95334,-11.3035c3.71787,-10.33912 -6.40036,-29.21209 2.50116,-22.84941c9.72635,6.95223 43.28992,67.97603 43.28992,79.85621z" data-paper-data="{&quot;index&quot;:null}" fill="none" stroke="#000000" stroke-linecap="butt"/><path d="M212.93414,420.30697l9.14066,-220.8993" fill="none" stroke="#000000" stroke-linecap="round"/><path d="M212.10343,203.15454l-11.42583,214.80552" fill="none" stroke="#000000" stroke-linecap="round"/><path d="M228.86133,206.20141l-3.80862,214.80552" fill="none" stroke="#000000" stroke-linecap="round"/><path d="M249.42781,207.72487l-0.76174,207.95003" fill="none" stroke="#000000" stroke-linecap="round"/><path d="M259.33019,208.48658l-1.52345,204.14143" fill="none" stroke="#000000" stroke-linecap="round"/><path d="M173.25563,271.70949l6.8555,-67.79324" fill="none" stroke="#000000" stroke-linecap="round"/><path d="M191.53695,206.96315l-5.33204,57.12913" fill="none" stroke="#000000" stroke-linecap="round"/><path d="M134.40782,292.27597l14.47273,-61.69946" fill="none" stroke="#000000" stroke-linecap="round"/></g><path d="M172.56288,403.80542l4.57033,-48.75018" fill="none" stroke="#000000" stroke-linecap="round"/><path d="M281.42013,395.87012l-0.76174,-41.13297" fill="none" stroke="#000000" stroke-linecap="round"/><path d="M167.16187,355.49886l-5.33207,47.98847" fill="none" stroke="#000000" stroke-linecap="round"/><path d="M178.5877,415.67487l8.37892,-80.74249" fill="none" stroke="#000000" stroke-linecap="round"/><path d="M134.40782,379.87394v-26.66024" fill="none" stroke="#000000" stroke-linecap="round"/><path d="M148.88055,353.97543l-5.33207,39.60952" fill="none" stroke="#000000" stroke-linecap="round"/></g><g data-paper-data="{&quot;index&quot;:null}" stroke-linecap="butt"><g><g><path d="M130.94013,883.44636l-14.35077,-145.37571l58.09294,6.8581l14.35077,145.37571z" fill="#252525" stroke="#000000"/><path d="M130.94013,883.44636l-14.35077,-145.37571l58.09294,6.8581l14.35077,145.37571z" fill="#252525" stroke="#000000"/><path d="M129.91594,824.00072c5.60236,22.79404 9.88124,7.2144 13.86896,7.68517c3.87687,0.45767 23.12551,30.67953 29.83756,3.38643c4.07582,-16.5735 -4.72275,-100.0315 -0.64734,-92.79784c3.35391,5.95304 15.06427,142.13725 15.54765,147.03399c0.57728,5.84792 -1.86225,-0.04104 -5.83704,0.04237c-10.05795,0.21106 -29.96315,-4.87545 -35.81795,-5.56664c-5.24971,-0.61976 -9.16008,27.49922 -17.14827,-18.27755c-4.44138,-25.45148 -10.99169,-109.53884 -11.71993,-116.91599c-1.04311,-10.5669 6.04271,51.51221 11.91636,75.41006z" fill="#141414" stroke="none"/><path d="M130.94013,883.44636l-14.35077,-145.37571l58.09294,6.8581l14.35077,145.37571z" fill="none" stroke="#000000"/><path d="M130.94013,883.44636l-14.35077,-145.37571l58.09294,6.8581l14.35077,145.37571z" fill="none" stroke="#000000"/></g><g><path d="M111.3923,816.45181l-2.90561,-29.43414l84.87309,10.01958l2.90559,29.43414z" fill="#252525" stroke="#000000"/><path d="M111.3923,816.45181l-2.90561,-29.43414l84.87309,10.01958l2.90559,29.43414z" fill="#252525" stroke="#000000"/><path d="M117.35304,805.14404c5.40293,5.11904 13.67616,2.83907 19.50217,3.52683c5.66408,0.66869 30.27284,9.23271 43.60938,5.12069c8.09849,-2.497 5.60393,-19.47886 10.70927,-17.50896c4.2015,1.62112 4.36569,28.93376 4.46357,29.92522c0.41263,4.18012 -45.35381,-0.99053 -57.28792,-2.3994c-7.66977,-0.90545 -20.46857,-1.11623 -26.50364,-10.90613c-3.35547,-5.4431 -2.45285,-22.20511 -2.60029,-23.69876c-0.21119,-2.13946 2.44291,10.5736 8.10747,15.94051z" fill="#141414" stroke="none"/><path d="M111.3923,816.45181l-2.90561,-29.43414l84.87309,10.01958l2.90559,29.43414z" fill="none" stroke="#000000"/><path d="M111.3923,816.45181l-2.90561,-29.43414l84.87309,10.01958l2.90559,29.43414z" fill="none" stroke="#000000"/></g><g><path d="M110.95551,862.53045l-2.90559,-29.43416l95.88957,11.32014l2.90559,29.43416z" fill="#252525" stroke="#000000"/><path d="M110.95551,862.53045l-2.90559,-29.43416l95.88957,11.32014l2.90559,29.43416z" fill="#252525" stroke="#000000"/><path d="M117.8457,851.33239c6.04616,5.19496 15.43544,3.04672 22.01766,3.82377c6.39928,0.75548 34.1289,9.68796 49.27024,5.78901c9.19445,-2.36764 6.59243,-19.3622 12.3427,-17.31616c4.73226,1.68378 4.56395,28.95718 4.66183,29.94864c0.41263,4.18012 -51.29732,-1.69221 -64.78048,-3.28394c-8.66532,-1.02298 -23.14226,-1.43184 -29.843,-11.30035c-3.72555,-5.4868 -2.48713,-22.20915 -2.63457,-23.70278c-0.21119,-2.13946 2.62668,10.59528 8.96557,16.04181z" fill="#141414" stroke="none"/><path d="M110.95551,862.53045l-2.90559,-29.43416l95.88957,11.32014l2.90559,29.43416z" fill="none" stroke="#000000"/><path d="M110.95551,862.53045l-2.90559,-29.43416l95.88957,11.32014l2.90559,29.43416z" fill="none" stroke="#000000"/></g></g><g><path d="M100.22157,758.97346l-3.33716,-33.80607l99.03718,11.6917l3.33716,33.80609z" fill="#252525" stroke="#000000"/><path d="M100.22157,758.97346l-3.33716,-33.80607l99.03718,11.6917l3.33716,33.80609z" fill="#252525" stroke="#000000"/><path d="M107.19911,746.00165c6.29641,5.89013 15.95626,3.29009 22.75455,4.09266c6.60936,0.78027 35.31458,10.66848 50.88725,5.9758c9.45636,-2.84956 6.57604,-22.35563 12.53091,-20.08235c4.90061,1.8708 5.04217,33.23466 5.15458,34.37336c0.47392,4.80102 -52.93073,-1.23685 -66.85648,-2.88084c-8.94976,-1.05657 -23.88683,-1.32663 -30.91243,-12.58178c-3.90617,-6.25776 -2.82202,-25.50388 -2.99137,-27.21938c-0.24257,-2.45724 2.83175,12.14721 9.43302,18.32252z" fill="#141414" stroke="none"/><path d="M100.22157,758.97346l-3.33716,-33.80607l99.03718,11.6917l3.33716,33.80609z" fill="none" stroke="#000000"/><path d="M100.22157,758.97346l-3.33716,-33.80607l99.03718,11.6917l3.33716,33.80609z" fill="none" stroke="#000000"/></g></g><g data-paper-data="{&quot;index&quot;:null}" stroke-linecap="butt"><g><g><path d="M238.09536,894.87477l14.35075,-145.37571l58.09294,-6.8581l-14.35075,145.37571z" fill="#252525" stroke="#000000"/><path d="M238.09536,894.87477l14.35075,-145.37571l58.09294,-6.8581l-14.35075,145.37571z" fill="#252525" stroke="#000000"/><path d="M309.1288,753.16099c-0.72824,7.37715 -7.27855,91.46453 -11.7199,116.91602c-7.98818,45.77677 -11.89858,17.65777 -17.14829,18.27753c-5.8548,0.69117 -25.76,5.7777 -35.81793,5.56664c-3.97477,-0.08341 -6.41432,5.80555 -5.83704,-0.04237c0.48338,-4.89677 12.19373,-141.08095 15.54765,-147.03399c4.07541,-7.23367 -4.72316,76.22433 -0.64734,92.79784c6.71206,27.2931 25.96066,-2.92876 29.83754,-3.38643c3.98773,-0.47077 8.26658,15.10889 13.86894,-7.68515c5.87365,-23.89785 12.95947,-85.97696 11.91636,-75.41006z" fill="#141414" stroke="none"/><path d="M238.09536,894.87477l14.35075,-145.37571l58.09294,-6.8581l-14.35075,145.37571z" fill="none" stroke="#000000"/><path d="M238.09536,894.87477l14.35075,-145.37571l58.09294,-6.8581l-14.35075,145.37571z" fill="none" stroke="#000000"/></g><g><path d="M230.86306,831.04172l2.90559,-29.43414l84.87307,-10.01958l-2.90561,29.43414z" fill="#252525" stroke="#000000"/><path d="M230.86306,831.04172l2.90559,-29.43414l84.87307,-10.01958l-2.90561,29.43414z" fill="#252525" stroke="#000000"/><path d="M317.88284,793.77385c-0.14744,1.49363 0.75518,18.25561 -2.60029,23.69874c-6.03508,9.7899 -18.83387,10.00071 -26.50364,10.90613c-11.93414,1.40887 -57.70056,6.57952 -57.28792,2.3994c0.09787,-0.99146 0.26206,-28.3041 4.46357,-29.92522c5.10533,-1.96988 2.61078,15.01198 10.70927,17.50896c13.33654,4.11202 37.94528,-4.452 43.60938,-5.12069c5.82601,-0.68777 14.09922,1.59221 19.50215,-3.52683c5.66456,-5.36692 8.31866,-18.07998 8.10747,-15.94051z" fill="#141414" stroke="none"/><path d="M230.86306,831.04172l2.90559,-29.43414l84.87307,-10.01958l-2.90561,29.43414z" fill="none" stroke="#000000"/><path d="M230.86306,831.04172l2.90559,-29.43414l84.87307,-10.01958l-2.90561,29.43414z" fill="none" stroke="#000000"/></g><g><path d="M220.28332,878.42087l2.90561,-29.43414l95.88957,-11.32014l-2.90559,29.43416z" fill="#252525" stroke="#000000"/><path d="M220.28332,878.42087l2.90561,-29.43414l95.88957,-11.32014l-2.90559,29.43416z" fill="#252525" stroke="#000000"/><path d="M318.24828,839.86093c-0.14744,1.49363 1.09101,18.21599 -2.63454,23.70278c-6.70074,9.86851 -21.17768,10.27737 -29.843,11.30035c-13.48316,1.59173 -65.19309,7.46406 -64.78045,3.28394c0.09787,-0.99146 -0.07045,-28.26484 4.66183,-29.94862c5.7503,-2.04605 3.14825,14.94852 12.3427,17.31614c15.14134,3.89895 42.87095,-5.03353 49.27026,-5.78901c6.58224,-0.77705 15.97152,1.37119 22.01766,-3.82377c6.33889,-5.44653 9.17677,-18.18128 8.96557,-16.04181z" fill="#141414" stroke="none"/><path d="M220.28332,878.42087l2.90561,-29.43414l95.88957,-11.32014l-2.90559,29.43416z" fill="none" stroke="#000000"/><path d="M220.28332,878.42087l2.90561,-29.43414l95.88957,-11.32014l-2.90559,29.43416z" fill="none" stroke="#000000"/></g></g><g><path d="M227.86968,775.2355l3.33716,-33.80609l99.03716,-11.6917l-3.33716,33.80609z" fill="#252525" stroke="#000000"/><path d="M227.86968,775.2355l3.33716,-33.80609l99.03716,-11.6917l-3.33716,33.80609z" fill="#252525" stroke="#000000"/><path d="M329.36232,732.24946c-0.16935,1.7155 0.9148,20.96159 -2.99137,27.21936c-7.0256,11.25515 -21.96268,11.52523 -30.91243,12.58178c-13.92575,1.64399 -67.3304,7.68186 -66.85648,2.88084c0.11241,-1.13872 0.25397,-32.50259 5.15458,-34.37336c5.95484,-2.27328 3.07458,17.2328 12.53093,20.08235c15.57267,4.69268 44.27786,-5.19553 50.88722,-5.9758c6.79827,-0.80255 16.45817,1.79749 22.75455,-4.09264c6.60127,-6.17532 9.67557,-20.77976 9.433,-18.32252z" fill="#141414" stroke="none"/><path d="M227.86968,775.2355l3.33716,-33.80609l99.03716,-11.6917l-3.33716,33.80609z" fill="none" stroke="#000000"/><path d="M227.86968,775.2355l3.33716,-33.80609l99.03716,-11.6917l-3.33716,33.80609z" fill="none" stroke="#000000"/></g></g><g stroke-linecap="butt"><path d="M124.37346,652.47951l0.83454,-22.73591l173.42934,1.35604l-0.83457,22.73591z" fill="#252525" stroke="#000000"/><path d="M124.37346,652.47951l0.83454,-22.73591l173.42934,1.35604l-0.83457,22.73591z" fill="#252525" stroke="#000000"/><path d="M124.37346,652.47951l0.83454,-22.73591l173.42934,1.35604l-0.83457,22.73591z" fill="none" stroke="#000000"/><path d="M139.34963,643.20647c9.99719,3.58143 27.66078,1.17355 39.56562,1.26664c11.57402,0.09049 60.54216,4.89734 89.11771,0.67529c17.35224,-2.56377 16.13934,-15.6189 26.25333,-14.47099c8.32342,0.94469 2.30562,22.23452 2.27751,23.00035c-0.11851,3.22887 -93.69159,2.67881 -118.07773,2.48811c-15.67242,-0.12255 -42.12805,0.68701 -52.34705,-6.48932c-5.68167,-3.98999 0.08935,-17.13209 0.13169,-18.28585c0.06065,-1.65259 2.59762,8.06092 13.07891,11.81577z" fill="#141414" stroke="none"/><path d="M124.37346,652.47951l0.83454,-22.73591l173.42934,1.35604l-0.83457,22.73591z" fill="none" stroke="#000000"/></g><g stroke-linecap="butt"><g><path d="M51.36766,943.65422l0.69177,-67.11279l143.75503,4.00286l-0.69177,67.11281z" fill="#252525" stroke="#000000"/><path d="M51.36766,943.65422l0.69177,-67.11279l143.75503,4.00286l-0.69177,67.11281z" fill="#252525" stroke="#000000"/><path d="M51.36766,943.65422l0.69177,-67.11279l143.75503,4.00286l-0.69177,67.11281z" fill="none" stroke="#000000"/><path d="M52.94034,881.40342c0.0503,-4.87819 2.15315,23.79458 10.84107,34.87827c8.28665,10.57177 22.92795,3.46415 32.79582,3.73894c9.59367,0.26718 50.18321,14.45618 73.86938,1.9934c14.38322,-7.5679 13.37786,-46.10453 21.76131,-42.71609c6.89926,2.78854 1.91111,65.63275 1.8878,67.89335c-0.09824,9.53108 -77.66067,1.37855 -97.87426,0.81569c-12.9908,-0.36174 -34.91977,8.55678 -43.39028,-12.62663c-4.70954,-11.77779 0.07404,-50.57123 0.10914,-53.9769z" fill="#141414" stroke="none"/><path d="M51.36766,943.65422l0.69177,-67.11279l143.75503,4.00286l-0.69177,67.11281z" fill="none" stroke="#000000"/></g><g><path d="M9.7078,961.06439l0.339,-67.11279l70.4489,4.00286l-0.339,67.11283z" fill="#252525" stroke="#000000"/><path d="M9.7078,961.06439l0.339,-67.11279l70.4489,4.00286l-0.339,67.11283z" fill="#6c6c6c" stroke="#000000"/><path d="M9.7078,961.06439l0.339,-67.11279l70.4489,4.00286l-0.339,67.11283z" fill="none" stroke="#000000"/><path d="M15.7913,933.69186c4.06097,10.57175 11.23611,3.46415 16.072,3.73892c4.7015,0.26718 24.59288,14.45618 36.20058,1.9934c7.04866,-7.56787 6.55598,-46.10451 10.66439,-42.71607c3.38106,2.78854 0.93657,65.63275 0.92515,67.89335c-0.04817,9.53108 -38.05856,1.37857 -47.96447,0.81571c-6.36631,-0.36176 -17.11287,8.55676 -21.26394,-12.62666c-2.30797,-11.77781 0.03631,-50.57123 0.0535,-53.9769c0.02466,-4.87816 1.05517,23.79458 5.3128,34.87825z" fill="#545454" stroke="none"/><path d="M9.7078,961.06439l0.339,-67.11279l70.4489,4.00286l-0.339,67.11283z" fill="none" stroke="#000000"/></g><g><path d="M115.6196,967.2305l0.339,-67.11279l70.4489,4.00286l-0.33903,67.11283z" fill="#252525" stroke="#000000"/><path d="M115.6196,967.2305l0.339,-67.11279l70.4489,4.00286l-0.33903,67.11283z" fill="#6c6c6c" stroke="#000000"/><path d="M115.6196,967.2305l0.339,-67.11279l70.4489,4.00286l-0.33903,67.11283z" fill="none" stroke="#000000"/><path d="M116.39032,904.97975c0.02463,-4.87816 1.05515,23.79458 5.31278,34.87825c4.06099,10.57177 11.23616,3.46417 16.07202,3.73894c4.70148,0.26716 24.59286,14.45616 36.20056,1.99337c7.04868,-7.56787 6.55598,-46.10451 10.66441,-42.71607c3.38106,2.78852 0.93657,65.63275 0.92515,67.89335c-0.04815,9.53108 -38.05853,1.37855 -47.96445,0.81569c-6.36631,-0.36176 -17.11289,8.55676 -21.26396,-12.62666c-2.30795,-11.77781 0.03631,-50.57123 0.0535,-53.9769z" fill="#545454" stroke="none"/><path d="M115.6196,967.2305l0.339,-67.11279l70.4489,4.00286l-0.33903,67.11283z" fill="none" stroke="#000000"/></g><g><path d="M57.58573,966.86778l0.339,-67.11279l70.4489,4.00286l-0.339,67.11283z" fill="#252525" stroke="#000000"/><path d="M57.58573,966.86778l0.339,-67.11279l70.4489,4.00286l-0.339,67.11283z" fill="#6c6c6c" stroke="#000000"/><path d="M57.58573,966.86778l0.339,-67.11279l70.4489,4.00286l-0.339,67.11283z" fill="none" stroke="#000000"/><path d="M58.35645,904.61702c0.02461,-4.87816 1.05515,23.7946 5.31278,34.87827c4.06097,10.57177 11.23613,3.46415 16.072,3.73892c4.70148,0.26716 24.59286,14.45618 36.20056,1.9934c7.04868,-7.56787 6.55598,-46.10453 10.66441,-42.71609c3.38104,2.78852 0.93657,65.63275 0.92515,67.89335c-0.04815,9.53108 -38.05853,1.37855 -47.96445,0.81569c-6.36629,-0.36176 -17.11287,8.55676 -21.26394,-12.62666c-2.30795,-11.77781 0.03631,-50.57123 0.0535,-53.9769z" fill="#545454" stroke="none"/><path d="M57.58573,966.86778l0.339,-67.11279l70.4489,4.00286l-0.339,67.11283z" fill="none" stroke="#000000"/></g></g><g data-paper-data="{&quot;index&quot;:null}" stroke-linecap="butt"><g><path d="M227.23783,947.6571l-0.69177,-67.11283l143.75503,-4.00283l0.69177,67.11279z" fill="#252525" stroke="#000000"/><path d="M227.23783,947.6571l-0.69177,-67.11283l143.75503,-4.00283l0.69177,67.11279z" fill="#252525" stroke="#000000"/><path d="M227.23783,947.6571l-0.69177,-67.11283l143.75503,-4.00283l0.69177,67.11279z" fill="none" stroke="#000000"/><path d="M369.42021,881.40345c0.0351,3.40567 4.81868,42.19912 0.10916,53.9769c-8.47049,21.18341 -30.39951,12.26489 -43.3903,12.62663c-20.21359,0.56286 -97.776,8.71539 -97.87424,-0.81569c-0.02331,-2.2606 -5.01146,-65.10481 1.8878,-67.89335c8.38345,-3.38844 7.37809,35.14819 21.76131,42.71609c23.68617,12.46279 64.27571,-1.72621 73.86936,-1.9934c9.86789,-0.27479 24.50917,6.83283 32.79582,-3.73894c8.68792,-11.08369 10.79078,-39.75646 10.84107,-34.87827z" fill="#141414" stroke="none"/><path d="M227.23783,947.6571l-0.69177,-67.11283l143.75503,-4.00283l0.69177,67.11279z" fill="none" stroke="#000000"/></g><g><path d="M342.20383,965.06727l-0.339,-67.11283l70.4489,-4.00286l0.339,67.11279z" fill="#252525" stroke="#000000"/><path d="M342.20383,965.06727l-0.339,-67.11283l70.4489,-4.00286l0.339,67.11279z" fill="#6c6c6c" stroke="#000000"/><path d="M342.20383,965.06727l-0.339,-67.11283l70.4489,-4.00286l0.339,67.11279z" fill="none" stroke="#000000"/><path d="M411.88203,898.81362c0.01718,3.40567 2.36147,42.19909 0.0535,53.9769c-4.15107,21.18341 -14.89765,12.26492 -21.26396,12.62666c-9.90592,0.56286 -47.9163,8.71537 -47.96445,-0.81571c-0.01143,-2.2606 -2.45591,-65.10481 0.92515,-67.89335c4.10841,-3.38844 3.61573,35.14819 10.66439,42.71609c11.6077,12.46279 31.4991,-1.72624 36.20058,-1.9934c4.83587,-0.27477 12.01101,6.83285 16.072,-3.73892c4.25763,-11.08367 5.28817,-39.75643 5.3128,-34.87827z" fill="#545454" stroke="none"/><path d="M342.20383,965.06727l-0.339,-67.11283l70.4489,-4.00286l0.339,67.11279z" fill="none" stroke="#000000"/></g><g><path d="M236.29202,971.23338l-0.339,-67.11283l70.44888,-4.00286l0.33903,67.11281z" fill="#252525" stroke="#000000"/><path d="M236.29202,971.23338l-0.339,-67.11283l70.44888,-4.00286l0.33903,67.11281z" fill="#6c6c6c" stroke="#000000"/><path d="M236.29202,971.23338l-0.339,-67.11283l70.44888,-4.00286l0.33903,67.11281z" fill="none" stroke="#000000"/><path d="M305.97023,904.97972c0.01718,3.40567 2.36144,42.19909 0.0535,53.9769c-4.15107,21.18341 -14.89765,12.26489 -21.26396,12.62666c-9.90592,0.56286 -47.9163,8.71539 -47.96445,-0.81569c-0.01143,-2.2606 -2.45591,-65.10483 0.92515,-67.89335c4.10843,-3.38844 3.61573,35.14819 10.66441,42.71607c11.6077,12.46279 31.49908,-1.72621 36.20058,-1.99337c4.83587,-0.27477 12.01101,6.83283 16.072,-3.73894c4.25763,-11.08367 5.28817,-39.75641 5.3128,-34.87825z" fill="#545454" stroke="none"/><path d="M236.29202,971.23338l-0.339,-67.11283l70.44888,-4.00286l0.33903,67.11281z" fill="none" stroke="#000000"/></g><g><path d="M294.32589,970.87065l-0.339,-67.11283l70.4489,-4.00286l0.339,67.11279z" fill="#252525" stroke="#000000"/><path d="M294.32589,970.87065l-0.339,-67.11283l70.4489,-4.00286l0.339,67.11279z" fill="#6c6c6c" stroke="#000000"/><path d="M294.32589,970.87065l-0.339,-67.11283l70.4489,-4.00286l0.339,67.11279z" fill="none" stroke="#000000"/><path d="M364.0041,904.61698c0.01718,3.40567 2.36144,42.19909 0.0535,53.9769c-4.15107,21.18341 -14.89765,12.26489 -21.26396,12.62666c-9.90592,0.56286 -47.9163,8.71539 -47.96445,-0.81569c-0.01143,-2.2606 -2.45589,-65.10483 0.92515,-67.89335c4.10843,-3.38844 3.61573,35.14819 10.66439,42.71607c11.6077,12.46279 31.49908,-1.72621 36.20058,-1.99337c4.83587,-0.27477 12.01101,6.83283 16.072,-3.73894c4.25763,-11.08367 5.28817,-39.75641 5.3128,-34.87825z" fill="#545454" stroke="none"/><path d="M294.32589,970.87065l-0.339,-67.11283l70.4489,-4.00286l0.339,67.11279z" fill="none" stroke="#000000"/></g></g><g><g stroke-linecap="butt"><g><g><path d="M19.88229,471.6148l79.24688,-57.29716l33.03336,45.12038l-79.24685,57.29713z" fill="#252525" stroke="#000000"/><path d="M19.88229,471.6148l79.24688,-57.29716l33.03336,45.12038l-79.24685,57.29713z" fill="#252525" stroke="#000000"/><path d="M93.63261,418.73857c5.76019,-4.16474 -27.46691,21.01008 -38.24313,33.02546c-10.27851,11.4604 1.9396,9.61728 4.20715,12.71452c2.20452,3.01114 -3.85293,26.93887 17.04925,23.13092c12.69265,-2.31236 57.82839,-35.61951 56.03796,-30.28522c-1.47347,4.38992 -76.81982,56.78407 -79.48913,58.71403c-3.18781,2.30484 -1.16767,-1.38899 -3.76406,-4.29865c-6.56996,-7.36273 -16.2239,-23.70198 -19.55311,-28.24937c-2.98513,-4.07742 -22.59539,2.06561 0.1364,-18.5395c12.63868,-11.45629 59.59722,-43.30463 63.61863,-46.21221z" fill="#141414" stroke="none"/><path d="M19.88229,471.6148l79.24688,-57.29716l33.03336,45.12038l-79.24685,57.29713z" fill="none" stroke="#000000"/><path d="M19.88229,471.6148l79.24688,-57.29716l33.03336,45.12038l-79.24685,57.29713z" fill="none" stroke="#000000"/></g><g><path d="M48.11836,435.6545l16.04508,-11.60094l48.26136,65.92032l-16.04508,11.60091z" fill="#252525" stroke="#000000"/><path d="M48.11836,435.6545l16.04508,-11.60094l48.26136,65.92032l-16.04508,11.60091z" fill="#252525" stroke="#000000"/><path d="M63.31972,425.31635c1.16626,-0.84325 -4.86779,5.20104 -4.50484,11.10972c0.34618,5.63579 7.03177,11.0155 10.3446,15.54052c3.22076,4.39926 13.77152,25.33037 24.81436,33.86226c6.70568,5.1809 15.43876,-2.11666 17.5101,2.28777c1.70462,3.62466 -14.80556,12.51889 -15.346,12.90965c-2.27865,1.64751 -28.44411,-33.82437 -35.23021,-43.09351c-4.36126,-5.95708 -12.42997,-15.48019 -10.33953,-23.0833c1.16226,-4.22726 11.93731,-8.94443 12.75152,-9.53314z" fill="#141414" stroke="none"/><path d="M48.11836,435.6545l16.04508,-11.60094l48.26136,65.92032l-16.04508,11.60091z" fill="none" stroke="#000000"/><path d="M48.11836,435.6545l16.04508,-11.60094l48.26136,65.92032l-16.04508,11.60091z" fill="none" stroke="#000000"/></g><g><path d="M19.8072,450.13242l16.04508,-11.60091l54.52568,74.47678l-16.04506,11.60094z" fill="#252525" stroke="#000000"/><path d="M19.8072,450.13242l16.04508,-11.60091l54.52568,74.47678l-16.04506,11.60094z" fill="#252525" stroke="#000000"/><path d="M31.03218,451.62586c0.71192,6.13537 8.03215,12.38192 11.775,17.49429c3.63881,4.9703 15.96414,28.32533 28.03326,38.25901c7.32887,6.03213 16.00086,-1.34889 18.43893,3.55647c2.00644,4.0369 -14.69283,12.67286 -15.23328,13.06363c-2.27865,1.64751 -31.82376,-38.44061 -39.49069,-48.91291c-4.92734,-6.73029 -13.95032,-17.55681 -12.23838,-25.67694c0.95182,-4.51473 11.91787,-8.97106 12.73207,-9.55976c1.16626,-0.84323 -4.76331,5.34374 -4.01691,11.77621z" fill="#141414" stroke="none"/><path d="M19.8072,450.13242l16.04508,-11.60091l54.52568,74.47678l-16.04506,11.60094z" fill="none" stroke="#000000"/><path d="M19.8072,450.13242l16.04508,-11.60091l54.52568,74.47678l-16.04506,11.60094z" fill="none" stroke="#000000"/></g></g><g><path d="M75.93045,408.93962l18.4283,-13.32404l56.31549,76.92147l-18.42828,13.32404z" fill="#252525" stroke="#000000"/><path d="M75.93045,408.93962l18.4283,-13.32404l56.31549,76.92147l-18.42828,13.32404z" fill="#252525" stroke="#000000"/><path d="M93.39541,397.07372c1.3395,-0.96848 -5.57603,5.99374 -5.10497,12.85412c0.44931,6.54352 8.21766,12.84484 12.08336,18.12504c3.75827,5.13344 16.12705,29.51622 28.95524,39.51359c7.78981,6.07082 17.81142,-2.32248 20.24227,2.80698c2.0005,4.22134 -16.98869,14.40011 -17.60944,14.84891c-2.61711,1.89223 -33.14687,-39.50109 -41.06547,-50.31712c-5.08911,-6.95122 -14.49119,-18.07312 -12.14378,-26.87864c1.30517,-4.89578 13.70768,-10.27675 14.64281,-10.95289z" fill="#141414" stroke="none"/><path d="M75.93045,408.93962l18.4283,-13.32404l56.31549,76.92147l-18.42828,13.32404z" fill="none" stroke="#000000"/><path d="M75.93045,408.93962l18.4283,-13.32404l56.31549,76.92147l-18.42828,13.32404z" fill="none" stroke="#000000"/></g></g><path d="M24.209,480.98224l-2.28517,79.21906" fill="none" stroke="#000000" stroke-linecap="round"/><path d="M35.63483,521.35349l-3.04688,-28.94543" fill="none" stroke="#000000" stroke-linecap="round"/><path d="M33.34966,592.19359v-17.51961l15.23444,-60.17601" fill="none" stroke="#000000" stroke-linecap="round"/><path d="M8.97458,564.00989l-3.0469,-50.27363l11.42583,-35.80093" fill="none" stroke="#000000" stroke-linecap="round"/></g><g><g data-paper-data="{&quot;index&quot;:null}" stroke-linecap="butt"><g><g><path d="M400.29366,516.73518l-79.24685,-57.29713l33.03339,-45.12038l79.24685,57.29716z" fill="#252525" stroke="#000000"/><path d="M400.29366,516.73518l-79.24685,-57.29713l33.03339,-45.12038l79.24685,57.29716z" fill="#252525" stroke="#000000"/><path d="M359.57673,418.73854c4.02141,2.90758 50.97993,34.75592 63.61861,46.21221c22.73179,20.60511 3.12154,14.46208 0.1364,18.5395c-3.32921,4.54739 -12.98312,20.88664 -19.55308,28.24937c-2.59638,2.90966 -0.57627,6.60349 -3.76408,4.29865c-2.66932,-1.92996 -78.01565,-54.32411 -79.48913,-58.71403c-1.79043,-5.33428 43.34531,27.97287 56.03798,30.28522c20.90218,3.80795 14.84473,-20.11978 17.04927,-23.13092c2.26752,-3.09724 14.48566,-1.25412 4.20715,-12.71452c-10.77622,-12.01538 -44.00332,-37.19019 -38.24313,-33.02546z" fill="#141414" stroke="none"/><path d="M400.29366,516.73518l-79.24685,-57.29713l33.03339,-45.12038l79.24685,57.29716z" fill="none" stroke="#000000"/><path d="M400.29366,516.73518l-79.24685,-57.29713l33.03339,-45.12038l79.24685,57.29716z" fill="none" stroke="#000000"/></g><g><path d="M356.82957,501.5748l-16.04506,-11.60091l48.26136,-65.92032l16.04506,11.60094z" fill="#252525" stroke="#000000"/><path d="M356.82957,501.5748l-16.04506,-11.60091l48.26136,-65.92032l16.04506,11.60094z" fill="#252525" stroke="#000000"/><path d="M389.8896,425.31632c0.81423,0.5887 11.58926,5.30588 12.75154,9.53314c2.09045,7.60311 -5.97829,17.12622 -10.33953,23.0833c-6.78609,9.26913 -32.95156,44.74102 -35.23021,43.09351c-0.54046,-0.39076 -17.05062,-9.28499 -15.346,-12.90965c2.07134,-4.40443 10.80442,2.89313 17.5101,-2.28777c11.04283,-8.53189 21.59358,-29.463 24.81436,-33.86226c3.31285,-4.52502 9.99842,-9.90473 10.3446,-15.54052c0.36293,-5.90868 -5.67109,-11.95297 -4.50484,-11.10972z" fill="#141414" stroke="none"/><path d="M356.82957,501.5748l-16.04506,-11.60091l48.26136,-65.92032l16.04506,11.60094z" fill="none" stroke="#000000"/><path d="M356.82957,501.5748l-16.04506,-11.60091l48.26136,-65.92032l16.04506,11.60094z" fill="none" stroke="#000000"/></g><g><path d="M378.87645,524.60919l-16.04508,-11.60094l54.52568,-74.47678l16.04508,11.60091z" fill="#252525" stroke="#000000"/><path d="M378.87645,524.60919l-16.04508,-11.60094l54.52568,-74.47678l16.04508,11.60091z" fill="#252525" stroke="#000000"/><path d="M418.16022,439.84965c0.81423,0.5887 11.78023,5.04503 12.73205,9.55976c1.71193,8.12013 -7.31104,18.94665 -12.23841,25.67694c-7.66693,10.47229 -37.21204,50.56042 -39.49069,48.91291c-0.54046,-0.39076 -17.23972,-9.02672 -15.23328,-13.06363c2.43807,-4.90536 11.11008,2.47566 18.43895,-3.55647c12.0691,-9.93368 24.39443,-33.28871 28.03326,-38.25901c3.74285,-5.11237 11.06306,-11.35892 11.775,-17.49429c0.74638,-6.43247 -5.18314,-12.61944 -4.01689,-11.77621z" fill="#141414" stroke="none"/><path d="M378.87645,524.60919l-16.04508,-11.60094l54.52568,-74.47678l16.04508,11.60091z" fill="none" stroke="#000000"/><path d="M378.87645,524.60919l-16.04508,-11.60094l54.52568,-74.47678l16.04508,11.60091z" fill="none" stroke="#000000"/></g></g><g><path d="M320.96338,485.86109l-18.4283,-13.32404l56.31549,-76.92147l18.42828,13.32404z" fill="#252525" stroke="#000000"/><path d="M320.96338,485.86109l-18.4283,-13.32404l56.31549,-76.92147l18.42828,13.32404z" fill="#252525" stroke="#000000"/><path d="M359.8139,397.07372c0.93514,0.67613 13.33764,6.0571 14.64279,10.95289c2.34741,8.80552 -7.05469,19.92742 -12.14378,26.87864c-7.9186,10.81603 -38.44836,52.20935 -41.06547,50.31712c-0.62074,-0.44881 -19.60994,-10.62757 -17.60944,-14.84891c2.43084,-5.12946 12.45248,3.26383 20.24227,-2.80698c12.82819,-9.99737 25.19696,-34.38015 28.95524,-39.51359c3.86572,-5.28019 11.63405,-11.58151 12.08336,-18.12504c0.47106,-6.86039 -6.44444,-13.8226 -5.10497,-12.85412z" fill="#141414" stroke="none"/><path d="M320.96338,485.86109l-18.4283,-13.32404l56.31549,-76.92147l18.42828,13.32404z" fill="none" stroke="#000000"/><path d="M320.96338,485.86109l-18.4283,-13.32404l56.31549,-76.92147l18.42828,13.32404z" fill="none" stroke="#000000"/></g></g><path d="M443.78063,580.12705l-15.23444,-100.54726" fill="none" stroke="#000000" stroke-linecap="round"/><path d="M416.35862,614.40453l4.57033,-121.11375" fill="none" stroke="#000000" stroke-linecap="round"/><path d="M409.50313,507.76348l0.76171,13.71099" fill="none" stroke="#000000" stroke-linecap="round"/><path d="M433.87821,476.53286l-17.51961,91.4066l-10.66411,40.37124" fill="none" stroke="#000000" stroke-linecap="round"/></g></g></g></g></svg>