<svg version="1.1" xmlns="http://www.w3.org/2000/svg" xmlns:xlink="http://www.w3.org/1999/xlink" width="743.34783" height="563.66833" viewBox="0,0,743.34783,563.66833"><g transform="translate(131.67391,79.66835)"><g data-paper-data="{&quot;isPaintingLayer&quot;:true}" fill-rule="nonzero" stroke="none" stroke-linecap="butt" stroke-linejoin="miter" stroke-miterlimit="10" stroke-dasharray="" stroke-dashoffset="0" style="mix-blend-mode: normal"><path d="M-131.67391,426v-492h743.34783v492z" fill="#000000" stroke-width="0"/><path d="M130.69286,413.99845c-2.23607,-1.11803 -1.11803,-3.3541 -1.11803,-3.3541l1,-2c1.20109,-2.39592 2.78385,-4.58711 3.99028,-6.98034c2.00813,-3.9836 3.20531,-8.96395 4.90198,-13.11538c12.9731,-31.73437 27.845,-62.72967 42.10821,-93.90521c2.72305,-4.99933 5.37514,-10.02698 8.03089,-15.05969c1.9709,-3.73491 4.62584,-7.24498 6.34085,-11.09733c0.66862,-1.50189 0.92917,-3.16017 1.55417,-4.68073c1.6152,-3.92963 4.09728,-7.50036 6.10551,-11.22294c5.35594,-9.92811 10.93661,-18.84966 18.30604,-27.44733c0,0 0.88264,-1.02975 2.10617,-0.92222c1.27934,-1.92827 2.59176,-3.82654 3.93636,-5.69039c-3.56347,0.09589 -7.44272,0.43922 -10.85574,-0.05508c-0.43466,-0.06295 -5.65201,-1.88219 -6.30396,-2.06901c-6.57352,-1.88372 -13.11926,-3.85928 -19.65615,-5.86836c-7.32674,0.17247 -15.11042,0.94116 -21.95376,-1.40372c-5.19163,-5.05779 -12.04531,-8.87226 -16.61903,-14.54165c-1.71236,-2.12258 -3.55003,-4.1449 -5.20222,-6.31465c-2.04305,-2.68305 -3.00379,-6.06464 -4.91637,-8.84221c-0.88883,-1.29082 -2.39102,-2.1022 -3.20062,-3.44413c-2.56732,-4.25532 -2.32427,-5.52303 -2.24743,-9.98399c0.02274,-1.32023 -0.34856,-2.75124 0.1903,-3.95671c1.35313,-3.02706 3.83889,-3.62866 6.61073,-4.44359c2.40311,-0.70652 4.94979,-0.77773 7.43559,-1.08579c2.18552,-0.27085 4.34753,-0.71852 6.5048,-1.211c-1.61738,-18.37239 -2.7304,-36.71187 -2.74135,-55.15156c-0.00278,-4.68986 -0.02241,-9.38073 -0.00007,-14.07053c0.00869,-1.8243 -0.3029,-3.68195 0.04511,-5.47277c0.35365,-1.81982 1.35002,-3.45321 2.02504,-5.17981c1.79676,-3.67433 4.10243,-6.34094 6.75696,-8.83277c-1.00394,0.12949 -2.04214,0.322 -3.22564,0.60789c-1.59566,0.38546 -3.47511,1.80461 -4.84244,0.89624c-4.36652,-2.90086 -4.19022,-12.32113 -4.32436,-16.77082c-0.26102,-8.65859 -1.06179,-18.11931 -0.1116,-26.74347c0.52169,-4.73497 2.36136,-9.1755 2.82164,-13.92834c0.34182,-3.52965 0.43843,-7.08459 0.90526,-10.59989c9.95687,-1.51714 20.38646,-1.05364 30.59426,-0.82179c1.47263,-10.82194 2.75734,-21.69848 4.51415,-32.47318c1.21327,-7.4411 3.20468,-14.81057 4.17785,-22.2854c0.60166,-4.62128 0.42562,-9.37216 0.99359,-13.95203c0.27751,-2.23771 0.99676,-4.43823 0.98108,-6.69302v-1c0,0 0,-2.5 2.5,-2.5c2.5,0 2.5,2.5 2.5,2.5v1c-0.01394,2.45919 -0.71217,4.86696 -1.01892,7.30698c-0.57867,4.60303 -0.39784,9.39909 -1.00641,14.04797c-0.98278,7.5075 -2.97375,14.90625 -4.19237,22.38014c-1.7179,10.53604 -2.98172,21.17021 -4.41485,31.75449c0.7126,0.0067 1.42353,0.01043 2.13254,0.01043c21,0 42,0 63,0c10.50661,0 21.34253,0.75406 31.82278,0.00629c7.68279,-0.54817 15.31775,-2.47783 22.98978,-2.99925c13.89706,-0.9445 27.81395,-2.30117 41.61402,-4.35425c2.09559,-0.31151 4.21135,-0.63369 6.33797,-0.94202c-1.54144,-0.75636 -1.23054,-2.62177 -1.23054,-2.62177c1.04053,-6.19254 0.96598,-12.32652 0.96598,-18.589v-3c0,0 0,-2.5 2.5,-2.5c2.5,0 2.5,2.5 2.5,2.5v3c0,6.54355 0.03689,12.9363 -1.03402,19.411c0,0 -0.12764,0.76584 -0.66745,1.37282c4.69153,-0.6365 9.41427,-1.14978 14.06958,-1.27934c1.55911,-0.04339 3.1217,0.11256 4.67905,0.02684c1.64806,-0.09071 3.60042,-1.54611 4.92043,-0.55521c1.36725,1.02637 0.85724,3.32326 1.0324,5.02389c0.34151,3.31579 0,6.66667 0,10c0,18.04492 0.09143,36.78042 -4.62566,54.24369c-2.08097,7.69718 -3.6124,15.21009 -6.54022,22.65176c-1.1255,2.86069 -1.01001,4.90898 -4.37742,6.41424c-4.1202,1.84177 -9.59888,-0.62977 -13.32678,-1.7749c-0.4951,-0.15209 -0.98897,-0.28227 -1.48211,-0.39372c1.82062,4.36873 3.2807,8.87169 4.01065,13.71786c2.14788,12.89745 6.78018,25.30893 7.82042,38.28321c0.59938,1.17436 0.15516,2.68967 0.21023,4.0262c0.2159,5.23998 -0.79928,9.53744 -2.07583,14.61106c-2.60193,10.34131 -4.86656,21.17615 -11.43741,29.90643c-2.05331,2.72811 -4.99617,4.60489 -7.67244,6.60914c-6.71092,3.37309 -13.47285,6.7149 -20.15046,10.08593c-3.60952,1.82218 -7.10893,4.14442 -10.99662,5.48994c-6.18532,2.14073 -13.32797,2.91462 -19.7102,4.51018c-2.81228,0.70307 -5.78559,0.92155 -8.44567,2.07361c-1.15318,0.49943 -1.97801,1.62422 -3.15571,2.06272c-2.71838,1.01215 -5.7578,0.71106 -8.64075,1.03139c-6.48421,0.72047 -12.69401,1.11961 -19.21492,1.11961c-7.46885,0 -14.93771,0 -22.40656,0c-0.13905,0.30868 -0.28254,0.5 -0.28254,0.5c-9.74813,12.99751 -17.85192,27.88781 -23.97259,42.98151c-4.81943,11.88481 -7.12306,24.55743 -10.54946,36.84979c0.1632,34.55481 0.02205,69.11346 0.02205,103.6687c0,4.44759 -0.53801,9.31776 -0.01391,13.73662c1.13171,9.54188 4.60522,18.48168 7.86253,27.40665l0.15138,1.85672c0,0 0,2.5 -2.5,2.5c-2.5,0 -2.5,-2.5 -2.5,-2.5l0.15138,-0.14328c-3.39276,-9.30583 -6.97165,-18.64567 -8.13747,-28.59335c-0.53893,-4.59856 -0.01391,-9.63587 -0.01391,-14.26338c0,-34.77636 -0.12178,-69.55527 0.02205,-104.3313c3.3942,-12.7217 5.9013,-25.8087 10.87183,-38.06613c0.14133,-0.34852 0.28369,-0.69693 0.42708,-1.0452c-1.29155,2.16865 -2.57154,4.35895 -3.51126,6.66173c-0.63828,1.56411 -0.9176,3.26434 -1.60811,4.8061c-1.77451,3.96211 -4.47032,7.57213 -6.49687,11.41584c-2.63316,4.99424 -5.26124,9.98339 -7.96911,14.94031c-14.19141,31.06973 -29.03147,61.93858 -41.95104,93.55888c-1.74667,4.27378 -2.99507,9.30422 -5.03878,13.42054c-1.19833,2.41361 -2.8073,4.60808 -4.00972,7.01966l-1,2c0,0 -1.11803,2.23607 -3.3541,1.11803zM340.43919,80.04108c0.79057,-2.37171 3.16228,-1.58114 3.16228,-1.58114l2.60989,0.90399c0.55191,-0.00675 1.09797,-0.01291 1.63944,-0.01597c-0.85703,-1.72272 -1.73447,-3.44431 -2.60235,-5.18063c-1.23877,-2.47834 -1.84872,-5.22722 -2.9121,-7.78557c-2.03627,-0.18559 -4.51381,-0.03321 -5.36357,0.15396c-1.52422,0.33574 -2.85275,1.27928 -4.33225,1.77631c-5.27106,1.7708 -10.12127,3.55334 -15.11638,6.0494c-7.60801,3.04694 -15.55841,5.59206 -22.54191,9.89673c-0.22325,0.13761 -0.44293,0.27127 -0.6592,0.40155c1.19719,0.39176 1.58078,1.73432 1.58078,1.73432c1.37868,4.83028 2.14982,9.77675 3.48512,14.60362c0.7196,2.60122 2.13479,5.01316 2.5776,7.6755c0.16447,0.98882 -0.16361,2.01846 0.00118,3.00723c0.17329,1.03975 0.89157,1.9515 1,3c0.06608,0.63898 -0.85015,1.32518 -0.49721,1.86193c0.32187,0.48949 1.20534,0.25149 1.75669,0.05346c1.29737,-0.46597 2.40409,-1.35062 3.62689,-1.98706c3.0307,-1.57741 6.22322,-2.83602 9.42473,-4.02921c3.77899,-1.40841 7.84292,-3.51364 11.91571,-3.97992c4.36257,-0.49946 6.8314,0.37142 10.905,-0.98645c4.7832,0.13404 5.84234,-2.04907 7.00016,-6.23125c1.30854,-4.72662 1.23183,-9.94332 1.06342,-15.07343c-0.9098,-0.00357 -1.82631,-0.00023 -2.75268,-0.00905l-3.39011,-1.09601c0,0 -2.37171,-0.79057 -1.58114,-3.16228zM358.89621,80.58295c2.97596,0.89705 6.61792,2.88559 9.95798,1.939c1.15044,-0.32604 2.76569,-6.10904 3.04144,-6.84234c2.30118,-6.1195 3.26433,-12.61545 4.96261,-18.90811c3.71836,-13.76584 4.45474,-28.65673 4.45266,-42.93985c-0.00073,-5 0,-10 0,-15c0,-1.52743 -0.23829,-3.07528 -0.05972,-4.5874c-1.46626,0.83491 -3.79813,0.03968 -5.42567,0.08972c-7.58669,0.23326 -15.3464,1.47875 -22.85237,2.59605c-13.91506,2.06956 -27.95811,3.47598 -41.97479,4.39459c-7.67527,0.50301 -15.32257,2.45645 -23.01022,3.00075c-10.60139,0.7506 -21.55004,0.00629 -32.17722,0.00629c-22.554,0 -45.10801,0 -67.66201,0c-0.14397,0.01171 -0.29743,0.0123 -0.46096,0c-6.62568,0 -13.25135,0 -19.87703,0c-2.69218,0 -6.76286,0.7243 -9.23906,-0.72543c2.21894,7.34763 -1.47604,14.23242 -2.2731,21.47177c-0.75576,6.86426 0.03394,14.25798 0.09223,21.15585c0.04114,4.86913 0.21783,9.48109 0.97419,14.29506c0.15911,1.01268 -0.16952,2.25648 0.49761,3.0348c0.34697,0.4048 0.67761,-0.87161 1.15756,-1.10376c1.06912,-0.51715 2.21855,-0.90135 3.39011,-1.09601c2.43348,-0.40434 4.93361,-0.03228 7.40046,-0.03228c0,0 0.00404,0 0.01178,0.00016c3.32971,-3.11685 6.0907,-7.04841 9.71007,-9.78443c1.33264,-1.0074 3.01197,-1.47442 4.38679,-2.42344c0.86382,-0.59628 1.3761,-1.63593 2.27619,-2.17592c0.97002,-0.58195 2.19478,-0.60579 3.2059,-1.11298c1.07427,-0.53887 1.92313,-1.46634 3,-2c3.2617,-1.61638 6.3639,-1.74563 9.79292,-2.23548c9.56299,-1.36611 18.95636,-1.94376 28.26217,1.17157c1.23204,0.61394 2.46408,1.22788 3.69613,1.84182c0.21003,-0.03212 0.34717,-0.03212 0.34717,-0.03212c0.00055,0 0.0011,0.00001 0.00165,0.00001c2.58502,0.01281 5.12705,-0.66656 7.6929,-0.98128c7.59542,-0.93164 15.49878,0.58964 23.12824,-0.01244c3.02594,-0.23879 6.67399,-1.10715 9.64938,-1.58377c14.05312,-2.25114 28.17361,-4.44175 41.7139,-8.94073l2.9507,-0.38951c0.50316,-0.1782 1.00266,-0.13392 1.39712,-0.03307c0.3976,0.0725 0.86599,0.23888 1.24728,0.60518c4.8004,2.98582 9.54661,5.75156 13.15219,10.25065c4.47805,5.58776 7.59532,12.00496 10.44774,18.49479c0.70129,0.22692 1.40149,0.57036 2.1152,1.08741c4.39814,3.18625 4.97029,9.21992 5.0037,14.00277c0.00335,0.47888 0.01039,0.96153 0.02014,1.4474c0.1653,0.33941 0.3295,0.67901 0.4924,1.01891c1.77988,0.17316 3.55814,0.48554 5.38366,1.03582zM278.73223,94.84859c-1.76777,-1.76777 0,-3.53553 0,-3.53553l1.83441,-1.81721c2.71929,-4.07894 4.39699,-5.20846 8.71808,-7.59977c1.96548,-1.0877 5.78748,-3.74815 7.52231,-4.6208c5.90693,-2.9713 12.52561,-5.02091 18.66882,-7.47505c7.56762,-3.78611 16.24226,-8.11216 24.74938,-8.21747c-2.37971,-5.24472 -5.02915,-10.37088 -8.65859,-14.91696c-3.1686,-3.96885 -7.40215,-6.38221 -11.63435,-8.99483l-2.13152,0.2658c-13.6283,4.55765 -27.88579,6.73485 -42.03746,9.00359c-3.48259,0.55831 -6.55246,1.3547 -10.0861,1.63419c-7.53262,0.59578 -15.38619,-0.96706 -22.87176,-0.01244c-2.76641,0.35279 -5.51542,1.0064 -8.30419,1.01873c-0.00042,0 -0.00084,0 -0.00126,0.00001c0,0 -0.22388,0 -0.53765,-0.067l-1.58038,-0.19693c-1.27956,-0.64212 -2.55912,-1.28425 -3.83867,-1.92637c-8.42584,-2.79421 -17.10535,-2.06167 -25.73783,-0.82843c-2.90145,0.4145 -5.4396,0.36717 -8.20708,1.76452c-1.07285,0.5417 -1.92429,1.46401 -3,2c-0.87461,0.43579 -1.95555,0.38532 -2.7941,0.88702c-0.77233,0.46208 -1.15762,1.40865 -1.89806,1.92026c-1.36798,0.94523 -3.0365,1.41322 -4.3679,2.4093c-3.86472,2.89138 -6.75624,7.29781 -10.42424,10.44675c-4.19125,3.59813 -7.99224,6.29045 -10.47032,11.4587c-2.85277,6.9339 -1.64812,15.21429 -1.64369,22.70002c0.01069,18.05949 1.08896,36.01896 2.66033,54.0116c1.88337,-0.42214 3.77398,-0.8021 5.68424,-1.05248c6.61325,-0.8626 13.33985,-2.17043 19.99334,-2.60253c14.18543,-0.92124 28.62172,-0.4565 42.70375,-2.9629c11.26738,-2.00543 22.05911,-5.63659 32.27621,-10.74526c2.54778,-1.46256 4.91016,-3.23147 7.44453,-4.71714c2.90456,-1.70268 6.01401,-2.94036 9.0867,-4.24689c0.56754,-0.50004 1.15848,-0.95401 1.86025,-1.20478c0.0903,-0.03227 0.47509,-0.05696 1.0437,-0.07578c0.5316,-0.2467 1.05971,-0.50076 1.583,-0.76507c4.32344,-2.18372 8.86312,-5.08723 13.6911,-6.24234c0.11859,-0.02837 0.2375,-0.05408 0.35672,-0.07731c-0.80396,-0.9691 -0.08122,-2.69713 -0.35167,-3.98652c-0.41573,-1.98202 -0.69128,-3.99111 -0.99882,-5.99277c-0.38318,-2.49401 -1.79077,-4.72581 -2.46354,-7.15774c-1.33212,-4.81539 -2.09607,-9.74636 -3.47374,-14.56314c0,0 -0.15145,-0.53008 -0.06319,-1.16351c-2.52646,1.52784 -4.58211,3.03538 -6.59964,6.06168l-2.16559,2.18279c0,0 -1.76777,1.76777 -3.53553,0zM351.9003,100.77979c-0.43966,1.50209 -0.49469,3.14839 -1.2248,4.53278c-1.95064,3.69868 -5.98796,5.15054 -9.77504,5.23597c-4.87667,1.62556 -9.72025,0.3878 -14.64503,1.91542c-3.92537,1.21761 -8.05611,2.83225 -11.82878,4.44363c-0.56687,0.24212 -3.03302,1.52114 -5.33735,2.67783c3.25699,0.15064 6.45719,0.49026 9.74254,0.9367c3.98777,0.54189 8.14306,0.44041 12.06862,1.01016c2.37018,0.344 4.53284,1.65634 6.905,1.98645c2.17218,0.30228 4.39834,0.43492 6.48511,1.10956c4.21902,1.40634 8.54889,2.97612 12.3697,5.15726c1.44743,0.82628 2.55329,2.17247 4,3c0.64702,0.3701 1.22178,0.58152 1.74909,0.72208c-1.49914,-11.45525 -5.46786,-22.58017 -7.37871,-34.03658c-0.38901,-2.62632 -1.01719,-5.14352 -1.81152,-7.59028c-0.13006,3.06878 -0.4928,6.07693 -1.31883,8.89902zM363,143.08082v-0.33619c-0.02294,-0.53565 -0.03379,-1.07089 -0.00772,-1.60445c-0.01332,-0.81527 -0.04366,-1.62819 -0.08949,-2.43901c-1.09764,-0.96817 -3.20737,-0.71282 -4.56306,-1.48673c-1.44743,-0.82628 -2.55329,-2.17247 -4,-3c-3.5902,-2.05363 -7.65966,-3.51919 -11.6303,-4.84274c-1.75954,-0.60946 -3.67239,-0.62097 -5.51489,-0.89044c-2.43252,-0.35576 -4.66041,-1.67224 -7.095,-2.01355c-3.88363,-0.54445 -7.98381,-0.45201 -11.93138,-0.98984c-4.26552,-0.58115 -8.36335,-0.97645 -12.66956,-0.97788c-2.17533,-0.00072 -4.41439,-0.56842 -6.52584,-0.04511c-2.08398,0.51651 -4.11367,1.41588 -6.09132,2.42817c0.57825,0.33279 1.11855,0.95471 1.11855,2.11694c0,2.5 -2.5,2.5 -2.5,2.5c4,0 8,0 12,0c4.35125,0 8.99084,-0.45362 13.30546,0.01873c1.36621,0.14957 2.64016,0.80068 4,1c2.20793,0.32363 4.46302,-0.01873 6.69454,-0.01873c3.4425,0 9.31424,-0.81775 11.97051,1.96147c1.05237,1.10108 0.43522,3.01835 0.52949,4.53853c0.04449,0.71747 0.04753,7.57161 -0.29581,8.17964c-0.74536,1.32 -2.46189,1.77465 -3.61921,2.75371c-2.55535,2.16176 -5.44311,3.86114 -8,6c-2.14367,1.7932 -3.99292,4.0505 -6.48659,5.31243c-5.16946,2.61604 -10.49178,2.25421 -16.09838,2.25421c-7.33333,0 -14.66667,0 -22,0c-4.97752,0 -10.0281,0.22427 -15,0c-1.82552,-0.08234 -3.95269,0.55862 -5.46178,-0.47189c-3.08319,-2.10544 -2.03822,-9.02868 -2.03822,-12.02811c0,-1.15325 -0.02037,-6.66407 0.08799,-7.61052c-9.30083,4.20567 -19.02767,7.27492 -29.12973,9.06816c-14.28341,2.53548 -28.90891,2.10276 -43.29625,3.0371c-6.54498,0.42505 -13.16504,1.72248 -19.67067,2.57104c-2.05913,0.26718 -4.11308,0.60154 -6.16349,0.96379c-0.2355,0.67893 -0.79392,1.42211 -2.10151,1.54098c-1.04992,0.09545 -1.69734,-0.29211 -2.09502,-0.77228c-3.27932,0.6122 -6.55238,1.2271 -9.82586,1.68299c-0.7089,0.09873 -6.58403,1.02264 -6.99576,2.47544c-0.72716,2.56578 0.25563,7.19691 1.65678,9.34407c0.81914,1.25527 2.23799,2.03479 3.08547,3.27111c1.85926,2.7123 2.75929,6.0324 4.76602,8.63748c1.63592,2.12371 3.45036,4.1047 5.11539,6.20567c4.19051,5.28764 10.70543,8.63311 15.38097,13.45835c1.56343,0.49381 3.23016,0.78674 4.95536,0.94674c-0.55177,-0.47288 -1.05495,-1.27995 -0.65735,-2.56111c0.741,-2.38766 3.12866,-1.64666 3.12866,-1.64666c4.20214,1.30411 8.40433,2.60804 12.60649,3.91207c0.55884,-0.01546 1.11021,-0.02441 1.65251,-0.02441h2c0,0 2.09522,0 2.44943,1.91812c1.72274,0.53469 3.44546,1.06941 5.16817,1.6042c3.00701,0.93348 6.06058,1.70986 9.08682,2.57897c1.92692,0.5534 3.71069,1.65228 5.69604,1.93099c3.65689,0.51337 7.90278,-0.03228 11.59954,-0.03228c9,0 18,0 27,0c6.34088,0 12.35719,-0.38841 18.66276,-1.08902c2.49136,-0.27682 5.15455,0.17193 7.48157,-0.75998c1.0649,-0.42646 1.78831,-1.48916 2.84429,-1.93728c0.29627,-0.12573 9.22209,-2.34333 9.25576,-2.35175c6.22692,-1.55673 13.25693,-2.27479 19.28008,-4.38188c3.6561,-1.27902 6.91629,-3.47954 10.31167,-5.19264c6.57514,-3.31739 13.22975,-6.62302 19.84954,-9.91407c1.90583,-1.43184 4.8334,-3.36982 6.32756,-5.39086c2.79623,-3.78226 4.73725,-7.97037 6.25519,-12.33329c-0.38347,0.21226 -0.70628,0.28675 -0.70628,0.28675c-13.68955,3.15913 -27.29147,7.32188 -41.06838,10.01478c-4.22307,0.82546 -8.74634,0.88186 -12.90631,1.97925c-1.62248,0.428 -3.13995,1.21878 -4.7766,1.58892c-3.24956,0.73491 -6.66929,0.50408 -9.91647,1.24943c-4.07343,0.93501 -8.13112,2.76093 -12.09893,4.10172c-5.65638,1.86002 -11.69869,2.062 -17.61809,2.45698c-8.33605,0.55624 -16.66923,0.97017 -25.01506,1.34974c-12.35686,0.56198 -24.71711,1.92707 -37.0732,2.32162c-3.27925,0.10471 -6.57822,-0.33797 -9.84277,-0.01058c-2.9499,0.29583 -5.87535,0.97973 -8.84004,0.97893l-2.61573,0.90495c0,0 -2.37171,0.79057 -3.16228,-1.58114c-0.79057,-2.37171 1.58114,-3.16228 1.58114,-3.16228l3.38427,-1.09505c3.0721,-0.02883 6.10232,-0.72198 9.15996,-1.02107c0.38791,-0.03794 9.57761,0.00784 10.15723,-0.01058c12.33927,-0.39215 24.68408,-1.75823 37.02423,-2.31963c8.31071,-0.37808 16.60864,-0.79094 24.90966,-1.34383c5.44661,-0.36277 11.16863,-0.45006 16.35977,-2.20821c4.12124,-1.39266 8.34038,-3.2637 12.57125,-4.23484c3.25051,-0.74612 6.67538,-0.50834 9.92652,-1.25172c1.61371,-0.36898 3.10839,-1.1559 4.71024,-1.57336c4.23556,-1.10384 8.79842,-1.18256 13.09369,-2.02075c13.73043,-2.6794 27.28866,-6.83685 40.93162,-9.98522c0,0 2.11318,-0.48766 2.85735,1.41362c1.25538,-4.15485 2.23038,-8.41447 3.28063,-12.58869c0.64545,-2.56535 1.60556,-5.0707 1.9429,-7.6944c0.13825,-1.07523 0.07455,-2.16173 0.01614,-3.24885c-0.03487,-0.22 -0.03487,-0.36487 -0.03487,-0.36487zM274.75514,135.85909c-0.96495,0.90822 -1.62523,2.23442 -2.67017,3.07427c-1.81144,1.45591 -5.49412,3.15371 -6.19224,5.79111c-0.27954,1.05606 0.0886,2.18327 0.10727,3.27554c0.03988,2.33299 0.01141,4.66669 0,7c-0.00424,0.86657 -0.02394,1.733 -0.03228,2.59954c-0.0044,0.45743 -0.43696,1.21909 -0.00594,1.37235c0.81084,0.28833 1.67933,-0.41813 2.53822,-0.47189c4.94616,-0.30963 10.04307,0 15,0c7.33333,0 14.66667,0 22,0c4.85379,0 9.41798,0.46059 13.90162,-1.74579c3.06147,-1.50653 2.6772,-2.33249 5.51341,-4.68757c2.45999,-2.04269 5.43981,-4.10282 8,-6c0.71969,-0.53331 1.87715,-0.50553 2.38079,-1.24629c0.34564,-0.50838 -0.26461,-1.2064 -0.29581,-1.82036c-0.06768,-1.33161 -0.12866,-2.67289 0,-4c0.05,-0.51572 0.926,-1.12793 0.52949,-1.46147c-0.59579,-0.50117 -1.55642,-0.0513 -2.33494,-0.05726c-1.89814,-0.01454 -3.79635,0.01873 -5.69454,0.01873c-2.43516,0 -4.89363,0.31759 -7.30546,-0.01873c-1.3612,-0.18982 -2.6343,-0.84587 -4,-1c-4.10638,-0.46345 -8.55077,0.01873 -12.69454,0.01873c-8.66667,0 -17.33333,0 -26,0h-1c0,0 -1.0089,0 -1.74486,-0.64091zM286.5,131.5c-0.65427,-0.01022 -1.33605,-0.2038 -1.99441,-0.26238c-0.19596,0.08828 -0.39235,0.17569 -0.58909,0.26238c0.86117,0 1.72233,0 2.5835,0z" fill="#ffffff" stroke-width="0.5"/><path d="M208.42837,94.58082c0.71442,-1 2.07163,-1 2.07163,-1c8.33333,0 16.66667,0 25,0c3.3303,0 6.66991,-0.05692 10,0c1.09227,0.01867 2.22798,0.41715 3.27554,0.10727c3.34091,-0.98829 6.64264,-5.40516 10.90411,-2.81146c5.12742,3.12076 3.32036,11.28101 3.32036,16.20419c0,6.30149 0.77732,17.14502 -6.54329,20.3097c-0.62542,0.27037 -8.94235,0.1903 -8.95671,0.1903c-4.33333,0 -8.66667,0 -13,0c-6.66667,0 -13.33333,0 -20,0c-2.58456,0 -5.18954,-0.33655 -7.75366,-0.01217c-5.9011,0.74654 -11.24907,1.01217 -17.24634,1.01217c-3.64628,-0.17537 -5.28451,0.63461 -7.3097,-3.54329c-0.23706,-0.48904 -0.19127,-6.01891 -0.1903,-6.95671c0.00627,-6.04497 -0.37423,-16.61079 4.98252,-20.98677c4.2,-3.43102 11.64033,-2.51323 16.51748,-2.51323c1.64279,0 3.28558,0 4.92837,0zM236.52019,98.64972c-0.72606,0.9311 -2.02019,0.9311 -2.02019,0.9311c-10,0 -21,0 -31,0c-4.04395,0 -7.39414,-0.3152 -11.20943,0.87171c-0.74951,0.23317 -1.65091,0.13648 -2.27309,0.61506c-2.11516,1.62699 -1.93318,5.12941 -2.21103,7.35956c-0.55981,4.49334 -1.77085,10.13707 -0.99676,14.69696c0.20656,1.21677 2.41594,0.48226 2.6903,0.45671c5.85333,0 11.00193,-0.28727 16.75366,-0.98783c9.1138,-1.11006 19.05807,-0.01217 28.24634,-0.01217c4.33333,0 8.66667,0 13,0c2.34862,0 4.80877,0.91345 7.04329,0.1903c1.69607,-0.54889 1.94123,-3.01 2.64701,-4.64701c1.46367,-3.39489 0.8097,-7.41737 0.8097,-11.04329c0,-3.15014 0.54971,-7.1535 0.10727,-10.27554c-0.08007,-0.56498 -0.29106,-1.23789 -0.78691,-1.52027c-1.71076,-0.97425 -6.19625,2.93813 -7.09589,3.18854c-1.51753,0.42241 -3.14939,0.0854 -4.72446,0.10727c-2.99246,0.04156 -5.98589,0.06179 -8.97981,0.0689z" fill="#ffffff" stroke-width="0.5"/><path d="M557.8109,435.26238c-2.5,0 -2.5,-2.5 -2.5,-2.5l0.12829,-0.20943c-1.6611,-5.18452 -5.74651,-8.24871 -9.42848,-12.05582c-3.27654,-3.3879 -6.42253,-6.91595 -9.62954,-10.36965c-8.51789,-9.17471 -18.04495,-17.43334 -26.44198,-26.70778c-5.22488,-5.77083 -9.72736,-12.42194 -14.52626,-18.55387c-8.05768,-10.29592 -16.17513,-20.54828 -24.1466,-30.91109c-9.11379,-11.84793 -17.94208,-23.99653 -27.37509,-35.59083c-3.71376,-4.56465 -8.08956,-8.59114 -11.85328,-13.11558c-4.23981,-5.09676 -7.74903,-10.8462 -12.10802,-15.83914c-4.26486,-4.88512 -9.29515,-9.28738 -13.88199,-13.87424c-16.40632,-16.22855 -35.09071,-29.95627 -52.89932,-44.66045c5.28484,7.85585 10.56969,15.7117 15.85453,23.56754c3.72452,5.53644 7.85756,10.97297 11.24332,16.72107c4.22715,7.17655 7.65739,14.97444 11.44838,22.3928c4.55052,8.90465 9.10105,17.80929 13.65157,26.71394c2.20635,4.31747 5.1388,8.81125 6.80847,13.36085c2.27511,6.19933 3.24059,13.29453 4.79763,19.71729c3.14133,12.958 6.28267,25.916 9.424,38.874c2.21756,9.14743 3.47758,18.37957 4.87352,27.68587c0.9883,6.58869 2.48291,13.3192 2.98729,19.96025c0.61708,8.12498 -0.33115,16.37571 0.07084,24.51519c0.4656,9.42754 1.00272,18.65213 1.00272,28.11668c0,2.66667 0,5.33333 0,8v1c0,0 0,2.5 -2.5,2.5c-2.5,0 -2.5,-2.5 -2.5,-2.5c0,-2.66667 0,-6.33333 0,-9c0,-9.38888 -0.53656,-18.53166 -0.99728,-27.88332c-0.39856,-8.09005 0.55127,-16.29605 -0.06193,-24.3699c-0.49508,-6.51864 -1.97619,-13.1296 -2.94633,-19.5972c-1.37393,-9.15954 -2.60567,-18.24707 -4.78809,-27.24957c-3.14133,-12.958 -6.28267,-25.916 -9.424,-38.874c-1.51059,-6.23118 -2.42228,-13.14274 -4.62638,-19.15671c-1.60005,-4.36583 -4.45633,-8.68258 -6.5728,-12.82416c-4.55052,-8.90465 -9.10105,-17.80929 -13.65157,-26.71394c-3.74534,-7.32903 -7.12816,-15.04059 -11.30424,-22.13044c-3.33485,-5.66167 -7.41512,-11.01446 -11.08375,-16.46781c-0.51406,-0.76414 -1.02812,-1.52828 -1.54217,-2.29242c-0.29466,0.05948 -0.50147,0.05948 -0.50147,0.05948c-11.60178,0 -22.66429,-2.29346 -34.1701,-3.00579c-8.20196,-0.50779 -16.60979,0.00579 -24.8299,0.00579c-5.52396,0 -12.22027,-1.04637 -17.63697,-0.0265c-3.09075,0.58194 -6.01802,1.83014 -9.03197,2.72874c-5.92992,2.89119 -12.27402,6.96829 -16.36055,12.33629c-1.96575,2.58218 -3.34523,5.56244 -5.0648,8.3147c-2.45726,3.93295 -4.71079,8.31082 -5.79346,12.88055c-1.09237,4.61067 -1.09398,9.89696 -1.62355,14.60901c-1.45699,12.96403 -1.98828,25.56401 -1.98843,38.60761c-0.00015,13.01653 -0.00027,26.03307 -0.00027,39.0496c0,9.56331 -0.12355,19.06853 1.94503,28.47861c2.4719,11.2448 7.32598,21.24951 12.72802,31.28531c2.70034,4.53422 7.02181,10.98184 12.35821,12.75358c2.36277,0.78446 4.97916,-0.01746 7.46875,-0.0175c5,-0.00008 10,0 15,0c10,0 20,0 30,0c3.81174,0 8.85936,0.81382 12.59954,0.03228c3.13222,-0.6545 6.06106,-2.05438 9.09672,-3.06627c5.32947,-1.77617 11.16316,-3.31887 16.235,-5.72606c4.31328,-2.04716 8.47211,-5.10558 12.46031,-7.71364c2.0269,-1.32547 6.1939,-3.09612 7.4818,-5.34065c1.6837,-2.9343 2.9223,-7.77278 3.65891,-11.08613c0.29551,-1.32923 -0.37564,-2.97066 0.43961,-4.06132c1.46064,-1.95405 4.58273,-1.89339 6.44313,-3.47158c3.31771,-2.81442 6.16867,-6.15621 8.67585,-9.68073l2.14135,-2.15368c0,0 1.76777,-1.76777 3.53553,0c1.76777,1.76777 0,3.53553 0,3.53553l-1.85865,1.84632c-2.66101,3.74076 -5.75362,7.38655 -9.32415,10.31927c-1.07766,0.88516 -2.21724,1.73486 -3.48659,2.31243c-0.63154,0.28735 -1.65157,-0.33727 -2.07027,0.21599c-0.39988,0.52838 0.54639,1.28471 0.43961,1.93868c-0.58504,3.58305 -2.40855,9.77893 -4.34109,12.91387c-1.90348,3.0878 -6.08217,4.98994 -8.99874,6.89679c-4.18033,2.73311 -8.53936,5.9045 -13.05915,8.04892c-5.25207,2.49186 -11.27373,4.10986 -16.79134,5.94939c-0.54159,0.18053 -9.54221,3.19124 -9.87695,3.25829c-4.04765,0.81078 -9.28015,0.03228 -13.40046,0.03228c-10,0 -20,0 -30,0c-5,0 -10,0.00008 -15,0c-2.9283,-0.00005 -6.00854,0.77682 -8.78347,-0.15845c-6.80125,-2.2923 -11.86631,-9.2713 -15.38958,-15.10548c-5.64702,-10.48381 -10.68788,-20.97274 -13.27198,-32.71469c-2.14605,-9.75145 -2.05497,-19.60942 -2.05497,-29.52139c0,-13.01655 0.00012,-26.0331 0.00027,-39.04966c0.00015,-13.22674 0.54221,-26.01948 2.01971,-39.16597c0.55217,-4.91312 0.58833,-10.39737 1.72696,-15.2033c1.20911,-5.1034 3.67989,-9.9689 6.41489,-14.3716c1.80529,-2.90608 3.2845,-6.03419 5.36766,-8.74801c4.67723,-6.09322 11.72248,-10.62938 18.48292,-13.91675c0.4772,-0.14398 9.7239,-2.94559 10.12456,-3.01822c5.71198,-1.03542 12.55651,-0.0265 18.36303,-0.0265c8.3336,0 16.85468,-0.51276 25.1701,0.00579c10.44602,0.65142 20.52276,2.62551 30.97741,2.94911c-6.74061,-10.01982 -13.48121,-20.03964 -20.22182,-30.05946c0,0 -1.39544,-2.07431 0.67886,-3.46975c1.01511,-0.68289 1.86763,-0.53483 2.47361,-0.20556c0.90348,0.06993 1.58275,0.67373 1.58275,0.67373c21.24617,18.88549 44.88877,35.10143 65.10204,55.09595c4.66855,4.66853 9.77651,9.15377 14.11801,14.12576c4.38847,5.02577 7.92272,10.80541 12.18998,15.93517c3.76239,4.52285 8.13305,8.54889 11.84872,13.11011c9.48149,11.63914 18.34526,23.84563 27.49888,35.74533c7.96288,10.35185 16.07191,20.59314 24.12101,30.8781c4.73496,6.05023 9.17266,12.63164 14.33216,18.32078c8.37801,9.23803 17.86969,17.47558 26.36253,26.62016c3.18601,3.43108 6.31074,6.93682 9.56594,10.30242c4.28845,4.43388 8.51131,7.94525 10.57152,13.94418l0.12829,1.79057c0,0 0,2.5 -2.5,2.5z" fill="#ffffff" stroke-width="0.5"/><text transform="translate(-52.66983,102.26002) scale(0.5,0.5)" font-size="40" xml:space="preserve" fill="#ffffff" fill-rule="nonzero" stroke="none" stroke-width="1" stroke-linecap="butt" stroke-linejoin="miter" stroke-miterlimit="10" stroke-dasharray="" stroke-dashoffset="0" font-family="Sans Serif" font-weight="normal" text-anchor="start" style="mix-blend-mode: normal"><tspan x="0" dy="0">you reached the</tspan><tspan x="0" dy="46.150000000000006px">end of this game</tspan><tspan x="0" dy="46.150000000000006px">i really just wanted</tspan><tspan x="0" dy="46.150000000000006px">to make and work</tspan><tspan x="0" dy="46.150000000000006px">on a fnaf fan</tspan><tspan x="0" dy="46.150000000000006px">game with lancer</tspan></text><text transform="translate(-18.62513,269.97219) scale(0.81419,0.81419)" font-size="40" xml:space="preserve" fill="#ffffff" fill-rule="nonzero" stroke="none" stroke-width="1" stroke-linecap="butt" stroke-linejoin="miter" stroke-miterlimit="10" stroke-dasharray="" stroke-dashoffset="0" font-family="Sans Serif" font-weight="normal" text-anchor="start" style="mix-blend-mode: normal"><tspan x="0" dy="0">Thank You </tspan><tspan x="0" dy="46.150000000000006px">for playing</tspan></text><text transform="translate(-97.66983,338.09719) scale(0.5,0.5)" font-size="40" xml:space="preserve" fill="#ffffff" fill-rule="nonzero" stroke="none" stroke-width="1" stroke-linecap="butt" stroke-linejoin="miter" stroke-miterlimit="10" stroke-dasharray="" stroke-dashoffset="0" font-family="Sans Serif" font-weight="normal" text-anchor="start" style="mix-blend-mode: normal"><tspan x="0" dy="0">click to end the game</tspan></text><text transform="translate(-75.66983,359.09719) scale(0.5,0.5)" font-size="40" xml:space="preserve" fill="#ffffff" fill-rule="nonzero" stroke="none" stroke-width="1" stroke-linecap="butt" stroke-linejoin="miter" stroke-miterlimit="10" stroke-dasharray="" stroke-dashoffset="0" font-family="Sans Serif" font-weight="normal" text-anchor="start" style="mix-blend-mode: normal"><tspan x="0" dy="0">click flag to play again</tspan></text></g></g></svg>