<svg version="1.1" xmlns="http://www.w3.org/2000/svg" xmlns:xlink="http://www.w3.org/1999/xlink" width="157.1823" height="228.78125" viewBox="0,0,157.1823,228.78125"><g transform="translate(-161.40885,-65.25103)"><g data-paper-data="{&quot;isPaintingLayer&quot;:true}" fill-rule="nonzero" stroke-linejoin="miter" stroke-miterlimit="10" stroke-dasharray="" stroke-dashoffset="0" style="mix-blend-mode: normal"><g data-paper-data="{&quot;index&quot;:null}"><g stroke="#000000" stroke-width="0"><path d="M246.76311,186.02828c7.46525,-0.45613 21.20713,24.07406 29.12483,42.75722c3.7709,8.8981 5.56873,16.74138 5.95497,19.42093c1.19723,8.30576 -0.46841,16.70458 -11.48908,17.37795c-11.02067,0.67336 -20.92523,-5.51391 -22.12245,-13.81967c-1.19723,-8.30576 -12.48893,-65.06306 -1.46827,-65.73642z" data-paper-data="{&quot;index&quot;:null}" fill="#00a8ff" stroke-linecap="butt"/><path d="" fill="none" stroke-linecap="round"/></g><path d="M282.91165,249.0143c1.12277,7.78923 -3.0449,14.41392 -9.30878,14.79663c-5.62459,0.34366 -18.82254,-1.12167 -21.90017,-7.0333c-0.34979,-0.6719 1.22329,-1.2536 1.1087,-2.04855c-0.00611,-0.04236 -2.68714,-0.52695 -2.99585,-1.64372c-0.81748,-2.95727 0.02301,-9.40819 -1.25436,-16.76525c-2.85736,-16.45703 -5.45153,-38.03341 -4.63492,-37.99678c2.25734,0.10127 1.94738,22.10595 8.54268,38.24702c5.36649,13.13373 17.81108,20.92248 19.61215,21.72916c4.05787,1.81749 7.09324,-0.28496 6.42393,-4.67534c-0.74787,-4.90571 3.62454,-7.27419 0.41792,-15.20073c-7.74877,-19.15441 -26.00996,-46.73422 -23.24892,-46.90292c6.26388,-0.38272 26.11483,49.70455 27.23761,57.49378z" fill="#007bad" stroke="none" stroke-width="0" stroke-linecap="butt"/><g fill="none" stroke="#000000" stroke-width="3.5"><path d="M247.73135,185.39111c11.02067,-0.67336 33.88257,53.87239 35.0798,62.17815c1.19723,8.30576 -0.46842,16.70457 -11.48909,17.37794c-11.02067,0.67337 -20.92522,-5.51391 -22.12245,-13.81967c-1.19723,-8.30576 -12.48893,-65.06305 -1.46826,-65.73642z" data-paper-data="{&quot;index&quot;:null}" stroke-linecap="butt"/><path d="M248.2447,230.99509l24.37045,-8.76352" stroke-linecap="round"/></g></g><g data-paper-data="{&quot;index&quot;:null}"><g stroke="#000000" stroke-width="0"><path d="M236.29062,252.97597c-1.19723,8.30576 -11.10179,14.49304 -22.12245,13.81967c-11.02067,-0.67337 -12.68631,-9.07219 -11.48908,-17.37794c0.38625,-2.67955 2.18407,-10.52283 5.95497,-19.42093c7.9177,-18.68315 21.65958,-43.21334 29.12483,-42.75722c11.02067,0.67337 -0.27104,57.43066 -1.46827,65.73642z" data-paper-data="{&quot;index&quot;:null}" fill="#00a8ff" stroke-linecap="butt"/><path d="" fill="none" stroke-linecap="round"/></g><path d="M228.84795,192.73179c2.76104,0.1687 -15.50015,27.7485 -23.24892,46.90292c-3.20662,7.92654 1.16579,10.29501 0.41792,15.20073c-0.66932,4.39038 2.36606,6.49283 6.42393,4.67534c1.80107,-0.80668 14.24566,-8.59543 19.61215,-21.72916c6.59529,-16.14107 6.28534,-38.14574 8.54268,-38.24702c0.81661,-0.03664 -1.77757,21.53974 -4.63492,37.99678c-1.27737,7.35706 -0.43688,13.80798 -1.25435,16.76525c-0.30871,1.11677 -2.98973,1.60136 -2.99585,1.64372c-0.11459,0.79495 1.45849,1.37665 1.1087,2.04855c-3.07763,5.91164 -16.27558,7.37697 -21.90017,7.0333c-6.26388,-0.38272 -10.43155,-7.0074 -9.30878,-14.79663c1.12277,-7.78923 20.97373,-57.8765 27.23761,-57.49378z" fill="#007bad" stroke="none" stroke-width="0" stroke-linecap="butt"/><g fill="none" stroke="#000000" stroke-width="3.5"><path d="M235.32238,252.3388c-1.19723,8.30576 -11.10179,14.49304 -22.12245,13.81967c-11.02067,-0.67337 -12.68631,-9.07219 -11.48908,-17.37794c1.19723,-8.30576 24.05913,-62.85152 35.0798,-62.17815c11.02067,0.67337 -0.27103,57.43066 -1.46826,65.73642z" data-paper-data="{&quot;index&quot;:null}" stroke-linecap="butt"/><path d="M211.90684,223.44284l24.37045,8.76351" stroke-linecap="round"/></g></g><g data-paper-data="{&quot;index&quot;:null}"><g stroke="#000000" stroke-width="0"><path d="M249.11355,132.56763c10.06356,0 23.70169,20.23385 30.68328,35.52054c3.32507,7.2805 4.21672,13.62355 4.21672,15.77946c0,6.68264 -3.84354,13.3 -18.7,13.3c-14.85646,0 -26.9,-5.41735 -26.9,-12.1c0,-6.68265 -4.15646,-52.5 10.7,-52.5z" data-paper-data="{&quot;index&quot;:null}" fill="#00ff15" stroke-linecap="butt"/><path d="" fill="none" stroke-linecap="round"/></g><path d="M285.28608,184.56403c0,6.26706 -6.84525,11.34752 -15.28929,11.34752c-8.44404,0 -15.28929,-5.08046 -15.28929,-11.34752c0,-1.33838 7.68176,4.72273 14.31739,6.87769c5.07239,1.64729 9.53349,0.11838 9.48476,-3.41581c-0.05445,-3.94903 6.24456,-5.62494 3.4864,-12.10305c-6.66509,-15.65431 -25.75488,-38.54063 -22.03285,-38.54063c8.44404,0 25.32288,40.91474 25.32288,47.18179z" fill="#00ad0e" stroke="none" stroke-width="0" stroke-linecap="butt"/><g fill="none" stroke="#000000" stroke-width="3.5"><path d="M250.53013,132.10664c14.85646,0 34.9,44.61735 34.9,51.3c0,6.68264 -3.84354,13.3 -18.7,13.3c-14.85646,0 -26.9,-5.41735 -26.9,-12.1c0,-6.68265 -4.15646,-52.5 10.7,-52.5z" data-paper-data="{&quot;index&quot;:null}" stroke-linecap="butt"/><path d="M256.37978,170.82399l20.30608,-8.12243" stroke-linecap="round"/></g></g><g><g stroke="#000000" stroke-width="0"><path d="M243.34411,184.12885c0,6.68265 -12.04354,12.1 -26.9,12.1c-14.85646,0 -18.7,-6.61736 -18.7,-13.3c0,-2.15592 0.89165,-8.49897 4.21673,-15.77946c6.98159,-15.28669 20.61972,-35.52054 30.68327,-35.52054c14.85646,0 10.7,45.81735 10.7,52.5z" data-paper-data="{&quot;index&quot;:null}" fill="#00ff15" stroke-linecap="butt"/><path d="" fill="none" stroke-linecap="round"/></g><path d="M196.47157,183.62524c0,-6.26706 16.87885,-47.18179 25.32289,-47.18179c3.72203,0 -15.36776,22.88632 -22.03285,38.54063c-2.75816,6.47811 3.54085,8.15403 3.4864,12.10305c-0.04873,3.53419 4.41237,5.0631 9.48476,3.41581c6.63563,-2.15497 14.31739,-8.21607 14.31739,-6.8777c0,6.26706 -6.84525,11.34752 -15.28929,11.34752c-8.44404,0 -15.28929,-5.08046 -15.28929,-11.34752z" fill="#00ad0e" stroke="none" stroke-width="0" stroke-linecap="butt"/><g fill="none" stroke="#000000" stroke-width="3.5"><path d="M241.92754,183.66785c0,6.68265 -12.04354,12.1 -26.9,12.1c-14.85646,0 -18.7,-6.61736 -18.7,-13.3c0,-6.68265 20.04354,-51.3 34.9,-51.3c14.85646,0 10.7,45.81735 10.7,52.5z" data-paper-data="{&quot;index&quot;:null}" stroke-linecap="butt"/><path d="M205.0718,161.76278l20.30609,8.12244" stroke-linecap="round"/></g></g><g><path d="M193.7697,195.65486c2.10895,-7.90363 9.65738,-12.75282 16.85988,-10.83095c7.2025,1.92186 11.33165,9.88701 9.2227,17.79064c-2.10895,7.90364 -9.65739,12.75282 -16.85989,10.83095c-7.20251,-1.92186 -11.33165,-9.88701 -9.2227,-17.79064z" fill="#ffffff" stroke="#000000" stroke-width="0" stroke-linecap="butt"/><path d="M193.68898,201.58221c1.19053,-4.46173 1.98452,-17.27273 8.35842,-15.57196c1.06937,0.28534 -2.70679,4.72372 -3.40773,10.11468c-0.66488,5.1136 1.73798,11.16454 2.84542,12.45338c4.68394,5.45117 16.08716,-3.84022 15.28582,-0.83708c-1.19054,4.46172 -7.32272,6.69993 -13.69662,4.99916c-6.3739,-1.70077 -10.57585,-6.69646 -9.38531,-11.15819z" fill="#d0d0d0" stroke="none" stroke-width="0" stroke-linecap="butt"/><path d="M210.64147,184.84447c7.20251,1.92186 11.33165,9.88701 9.2227,17.79064c-2.10895,7.90364 -9.65737,12.75282 -16.85988,10.83095c-7.20251,-1.92186 -11.33165,-9.88701 -9.2227,-17.79064c2.10895,-7.90364 9.65737,-12.75282 16.85988,-10.83095z" fill="none" stroke="#000000" stroke-width="3.5" stroke-linecap="butt"/><g><path d="M218.52665,216.84879c1.59872,-5.99146 -8.67025,-11.70914 -5.73825,-10.92679c1.37035,0.36565 6.1986,-5.6077 9.91981,-3.26664c4.24068,2.66787 7.28763,13.83539 6.43612,17.02658c-1.59872,5.99147 -5.27158,10.21428 -8.20358,9.43193c-2.932,-0.78235 -4.01283,-6.27361 -2.41411,-12.26508z" fill="#ffffff" stroke="#000000" stroke-width="0" stroke-linecap="butt"/><path d="M215.91762,206.49872c-1.08213,-2.99238 0.26127,-3.61329 0.86941,-3.45102c1.65722,0.4422 9.73922,19.09809 9.07592,21.58391c-0.6633,2.48582 -2.54445,4.1425 -4.20166,3.7003c-1.65721,-0.4422 -2.46294,-2.81583 -1.79964,-5.30165c0.41989,-1.57361 -1.91093,-10.90943 -3.94403,-16.53154z" fill="#d0d0d0" stroke="none" stroke-width="0" stroke-linecap="butt"/><path d="M213.03111,206.00415c1.37035,0.36565 6.1986,-5.6077 9.91981,-3.26664c4.24068,2.66787 7.28763,13.83539 6.43612,17.02658c-1.59872,5.99146 -5.27159,10.21428 -8.20358,9.43193c-2.93199,-0.78235 -4.01282,-6.27362 -2.4141,-12.26508c1.59872,-5.99146 -8.67024,-11.70914 -5.73825,-10.92679z" fill="none" stroke="#000000" stroke-width="3.5" stroke-linecap="butt"/><path d="M228.38843,213.31369l-8.72566,2.12227" fill="none" stroke="#000000" stroke-width="3.5" stroke-linecap="round"/></g><g data-paper-data="{&quot;index&quot;:null}"><path d="M211.42909,220.17913c3.11848,5.35991 3.5202,10.94209 0.89726,12.46816c-2.62294,1.52607 -7.27727,-1.58188 -10.39574,-6.94179c-1.66097,-2.85481 -1.65896,-14.43054 1.73059,-18.11996c2.97434,-3.23748 9.20384,1.25542 10.42975,0.54217c2.62294,-1.52607 -5.78033,6.69151 -2.66185,12.05142z" fill="#ffffff" stroke="#000000" stroke-width="0" stroke-linecap="butt"/><path d="M211.76714,226.49408c1.29384,2.22379 1.14087,4.72578 -0.34166,5.58833c-1.48253,0.86256 -3.73321,-0.24094 -5.02705,-2.46473c-1.29384,-2.22379 1.59608,-22.34864 3.07861,-23.21119c0.54404,-0.31653 2.00345,-0.07086 1.74659,3.10079c-0.4826,5.95892 -0.27553,15.57908 0.54351,16.98681z" fill="#d0d0d0" stroke="none" stroke-width="0" stroke-linecap="butt"/><path d="M211.21653,220.32224c3.11848,5.35991 3.5202,10.94209 0.89726,12.46816c-2.62294,1.52607 -7.27727,-1.58188 -10.39574,-6.94179c-1.66097,-2.85481 -1.65896,-14.43054 1.73059,-18.11996c2.97434,-3.23748 9.20384,1.25542 10.42975,0.54217c2.62294,-1.52607 -5.78033,6.69151 -2.66185,12.05142z" fill="none" stroke="#000000" stroke-width="3.5" stroke-linecap="butt"/><path d="M200.98469,219.36268l8.97663,-0.24776" fill="none" stroke="#000000" stroke-width="3.5" stroke-linecap="round"/></g><g data-paper-data="{&quot;index&quot;:null}"><path d="M200.11212,217.88276c2.33304,5.74547 1.94508,11.32863 -0.86654,12.47033c-2.81162,1.1417 -6.98218,-2.5904 -9.31522,-8.33587c-1.24263,-3.06017 0.38863,-14.52039 4.26371,-17.69601c3.4004,-2.78662 8.93553,2.53835 10.24961,2.00474c2.81162,-1.1417 -6.6646,5.81134 -4.33156,11.55681z" fill="#ffffff" stroke="#000000" stroke-width="0" stroke-linecap="butt"/><path d="M199.55799,224.18242c0.96796,2.38376 0.46437,4.83931 -1.1248,5.48462c-1.58918,0.64531 -3.66214,-0.76399 -4.63011,-3.14775c-0.96796,-2.38376 4.72572,-21.90152 6.31489,-22.54683c0.58317,-0.23681 1.99348,0.21182 1.29278,3.31575c-1.3165,5.83168 -2.46551,15.38521 -1.85276,16.89421z" fill="#d0d0d0" stroke="none" stroke-width="0" stroke-linecap="butt"/><path d="M199.88153,217.99453c2.33304,5.74547 1.94508,11.32863 -0.86654,12.47033c-2.81162,1.1417 -6.98218,-2.5904 -9.31522,-8.33587c-1.24263,-3.06017 0.38862,-14.52039 4.26371,-17.69601c3.4004,-2.78662 8.93553,2.53835 10.24962,2.00474c2.81162,-1.1417 -6.6646,5.81133 -4.33156,11.55681z" fill="none" stroke="#000000" stroke-width="3.5" stroke-linecap="butt"/><path d="M198.80874,216.62256l-8.92214,-1.01814" fill="none" stroke="#000000" stroke-width="3.5" stroke-linecap="round"/></g><g data-paper-data="{&quot;index&quot;:null}"><path d="M187.86091,212.74057c0.54738,6.17688 -1.45928,11.40139 -4.48202,11.66926c-3.02274,0.26787 -5.91688,-4.52234 -6.46426,-10.69923c-0.29155,-3.28994 4.62569,-13.76937 9.26112,-15.67035c4.0676,-1.66811 7.79976,5.04485 9.21252,4.91965c3.02274,-0.26787 -8.07474,3.60377 -7.52736,9.78066z" fill="#ffffff" stroke="#000000" stroke-width="0" stroke-linecap="butt"/><path d="M185.48545,218.60145c0.22711,2.56275 -0.9738,4.76301 -2.6823,4.91441c-1.7085,0.1514 -3.27762,-1.80338 -3.50472,-4.36613c-0.22711,-2.56275 10.93495,-19.55596 12.64345,-19.70736c0.62696,-0.05556 1.84395,0.78657 0.26462,3.54901c-2.96727,5.19009 -6.86481,13.98777 -6.72104,15.61008z" fill="#d0d0d0" stroke="none" stroke-width="0" stroke-linecap="butt"/><path d="M187.6077,212.77987c0.54738,6.17688 -1.45928,11.40139 -4.48201,11.66926c-3.02274,0.26787 -5.91688,-4.52234 -6.46426,-10.69922c-0.29155,-3.28994 4.62568,-13.76938 9.26111,-15.67035c4.0676,-1.66811 7.79976,5.04485 9.21252,4.91966c3.02274,-0.26787 -8.07474,3.60377 -7.52735,9.78065z" fill="none" stroke="#000000" stroke-width="3.5" stroke-linecap="butt"/><path d="M186.98394,211.15381l-8.23234,-3.58743" fill="none" stroke="#000000" stroke-width="3.5" stroke-linecap="round"/></g></g><g data-paper-data="{&quot;index&quot;:null}"><path d="M290.98936,193.01021c2.10895,7.90364 -2.0202,15.86878 -9.2227,17.79064c-7.20251,1.92186 -14.75093,-2.92731 -16.85988,-10.83095c-2.10895,-7.90364 2.0202,-15.86878 9.2227,-17.79064c7.20251,-1.92186 14.75093,2.92731 16.85988,10.83095z" fill="#ffffff" stroke="#000000" stroke-width="0" stroke-linecap="butt"/><path d="M291.07006,198.93755c1.19054,4.46173 -3.01141,9.45742 -9.38531,11.15819c-6.3739,1.70076 -12.50609,-0.53743 -13.69662,-4.99916c-0.80133,-3.00313 10.60188,6.28825 15.28582,0.83707c1.10744,-1.28884 3.5103,-7.33978 2.84542,-12.45337c-0.70094,-5.39096 -4.47709,-9.82934 -3.40773,-10.11468c6.3739,-1.70076 7.16788,11.11023 8.35842,15.57196z" fill="#d0d0d0" stroke="none" stroke-width="0" stroke-linecap="butt"/><path d="M290.97746,193.03077c2.10895,7.90364 -2.0202,15.86878 -9.2227,17.79065c-7.20251,1.92186 -14.75093,-2.92731 -16.85988,-10.83095c-2.10895,-7.90364 2.02019,-15.86878 9.2227,-17.79065c7.20251,-1.92186 14.75093,2.92731 16.85988,10.83095z" fill="none" stroke="#000000" stroke-width="3.5" stroke-linecap="butt"/><g><path d="M266.2324,214.20414c1.59872,5.99147 0.51789,11.48273 -2.41411,12.26508c-2.932,0.78235 -6.60486,-3.44046 -8.20358,-9.43193c-0.85152,-3.19118 2.19545,-14.35871 6.43613,-17.02658c3.72121,-2.34106 8.54946,3.63229 9.91981,3.26663c2.932,-0.78235 -7.33697,4.93533 -5.73825,10.92679z" fill="#ffffff" stroke="#000000" stroke-width="0" stroke-linecap="butt"/><path d="M264.8974,220.38561c0.6633,2.48582 -0.14243,4.85945 -1.79964,5.30165c-1.65722,0.4422 -3.53836,-1.21449 -4.20166,-3.70031c-0.6633,-2.48582 7.4187,-21.1417 9.07591,-21.5839c0.60815,-0.16227 1.95154,0.45864 0.86942,3.45102c-2.0331,5.62212 -4.36392,14.95793 -3.94403,16.53154z" fill="#d0d0d0" stroke="none" stroke-width="0" stroke-linecap="butt"/><path d="M265.98969,214.28629c1.59872,5.99147 0.51789,11.48273 -2.4141,12.26508c-2.932,0.78235 -6.60487,-3.44047 -8.20359,-9.43193c-0.85152,-3.19118 2.19545,-14.35871 6.43613,-17.02658c3.72122,-2.34106 8.54946,3.63229 9.91981,3.26664c2.932,-0.78235 -7.33696,4.93533 -5.73825,10.92679z" fill="none" stroke="#000000" stroke-width="3.5" stroke-linecap="butt"/><path d="M256.37061,210.66904l8.72566,2.12227" fill="none" stroke="#000000" stroke-width="3.5" stroke-linecap="round"/></g><g data-paper-data="{&quot;index&quot;:null}"><path d="M270.6681,205.48306c1.2259,0.71325 7.45541,-3.77965 10.42975,-0.54217c3.38955,3.68943 3.39156,15.26515 1.73059,18.11996c-3.11848,5.35992 -7.77281,8.46786 -10.39575,6.9418c-2.62294,-1.52606 -2.22123,-7.10825 0.89726,-12.46816c3.11848,-5.35992 -5.28478,-13.57749 -2.66185,-12.05142z" fill="#ffffff" stroke="#000000" stroke-width="0" stroke-linecap="butt"/><path d="M273.53541,206.86262c-0.25686,-3.17165 1.20255,-3.41732 1.74659,-3.10079c1.48253,0.86255 4.37244,20.98739 3.07861,23.21119c-1.29384,2.22379 -3.54452,3.32729 -5.02705,2.46473c-1.48253,-0.86255 -1.63549,-3.36454 -0.34166,-5.58834c0.81904,-1.40773 1.02611,-11.02788 0.54351,-16.9868z" fill="#d0d0d0" stroke="none" stroke-width="0" stroke-linecap="butt"/><path d="M270.88066,205.62616c1.2259,0.71325 7.4554,-3.77965 10.42974,-0.54217c3.38955,3.68943 3.39156,15.26515 1.73059,18.11996c-3.11848,5.35992 -7.77281,8.46786 -10.39575,6.94179c-2.62294,-1.52606 -2.22122,-7.10824 0.89726,-12.46816c3.11848,-5.35992 -5.28479,-13.57749 -2.66185,-12.05143z" fill="none" stroke="#000000" stroke-width="3.5" stroke-linecap="butt"/><path d="M274.79772,216.47028l8.97663,0.24776" fill="none" stroke="#000000" stroke-width="3.5" stroke-linecap="round"/></g><g data-paper-data="{&quot;index&quot;:null}"><path d="M280.31536,203.6813c1.31409,0.5336 6.84922,-4.79136 10.24961,-2.00474c3.87509,3.17562 5.50634,14.63584 4.26371,17.69601c-2.33304,5.74547 -6.5036,9.47758 -9.31522,8.33588c-2.81162,-1.14171 -3.19958,-6.72486 -0.86654,-12.47034c2.33304,-5.74547 -7.14319,-12.69851 -4.33157,-11.55681z" fill="#ffffff" stroke="#000000" stroke-width="0" stroke-linecap="butt"/><path d="M283.3483,204.64357c-0.7007,-3.10393 0.70961,-3.55255 1.29278,-3.31574c1.58918,0.64531 7.28285,20.16307 6.31489,22.54683c-0.96796,2.38376 -3.04093,3.79305 -4.6301,3.14774c-1.58918,-0.64531 -2.09277,-3.10085 -1.12481,-5.48461c0.61275,-1.509 -0.53626,-11.06253 -1.85276,-16.89421z" fill="#d0d0d0" stroke="none" stroke-width="0" stroke-linecap="butt"/><path d="M280.54595,203.79307c1.31409,0.5336 6.84922,-4.79136 10.24962,-2.00474c3.87509,3.17562 5.50633,14.63585 4.2637,17.69601c-2.33304,5.74547 -6.50359,9.47758 -9.31521,8.33587c-2.81162,-1.14171 -3.19959,-6.72486 -0.86655,-12.47034c2.33304,-5.74547 -7.14318,-12.69851 -4.33156,-11.5568z" fill="none" stroke="#000000" stroke-width="3.5" stroke-linecap="butt"/><path d="M285.9503,213.97791l8.92213,-1.01814" fill="none" stroke="#000000" stroke-width="3.5" stroke-linecap="round"/></g><g data-paper-data="{&quot;index&quot;:null}"><path d="M289.37077,200.31526c1.41276,0.12519 5.14492,-6.58777 9.21252,-4.91965c4.63542,1.90097 9.55266,12.3804 9.26111,15.67034c-0.54738,6.17688 -3.44152,10.96709 -6.46426,10.69922c-3.02274,-0.26787 -5.0294,-5.49237 -4.48202,-11.66926c0.54738,-6.17688 -10.55009,-10.04853 -7.52736,-9.78066z" fill="#ffffff" stroke="#000000" stroke-width="0" stroke-linecap="butt"/><path d="M292.55255,200.34673c-1.57933,-2.76244 -0.36234,-3.60457 0.26462,-3.54901c1.70851,0.15141 12.87056,17.14462 12.64345,19.70737c-0.22711,2.56275 -1.79622,4.51754 -3.50472,4.36614c-1.70851,-0.15141 -2.90941,-2.35167 -2.68231,-4.91442c0.14377,-1.62231 -3.75378,-10.41999 -6.72105,-15.61007z" fill="#d0d0d0" stroke="none" stroke-width="0" stroke-linecap="butt"/><path d="M289.62399,200.35457c1.41276,0.12519 5.14493,-6.58777 9.21252,-4.91966c4.63542,1.90097 9.55265,12.38041 9.2611,15.67035c-0.54738,6.17688 -3.44152,10.96709 -6.46426,10.69922c-3.02274,-0.26787 -5.0294,-5.49238 -4.48202,-11.66926c0.54738,-6.17688 -10.55009,-10.04852 -7.52735,-9.78065z" fill="none" stroke="#000000" stroke-width="3.5" stroke-linecap="butt"/><path d="M297.77511,208.50916l8.23234,-3.58743" fill="none" stroke="#000000" stroke-width="3.5" stroke-linecap="round"/></g></g><g stroke-linecap="butt"><path d="M236.66288,125.74254c3.78331,0 10.91772,-16.1506 13.04231,-7.64812c1.4834,5.93648 17.95859,56.62293 17.95859,64.653c0,19.53108 -24.57606,13.7234 -31.0009,13.7234c-6.42484,0 -22.1974,0.52945 -22.1974,-19.00163c0,-19.53107 15.77256,-51.72665 22.1974,-51.72665z" fill="#00ff15" stroke="#000000" stroke-width="0"/><path d="M216.74402,187.8329c0,-1.92128 -3.28975,-12.52577 0.17953,-24.20579c2.96216,-9.97268 8.52541,-26.07517 14.52038,-33.30606c4.20638,-5.07356 8.753,-3.09983 12.21365,-3.09983c2.57101,0 -6.46361,0.52888 -12.90756,10.2497c-8.39979,12.67124 -15.0355,35.91757 -12.72308,42.54502c2.38304,6.82986 11.5442,13.22765 21.3884,13.44591c13.66243,0.30292 28.64051,-7.2232 28.64051,-5.62896c0,4.71272 -11.48654,8.53314 -25.65591,8.53314c-14.16937,0 -25.65591,-3.82042 -25.65591,-8.53314z" fill="#00ad0e" stroke="none" stroke-width="0"/><path d="M214.66437,177.39553c0,-19.53108 15.77256,-51.72666 22.1974,-51.72666c3.7833,0 10.91773,-16.15059 13.04231,-7.64811c1.48339,5.93648 17.95858,56.62293 17.95858,64.653c0,19.53108 -24.57606,13.7234 -31.0009,13.7234c-6.42484,0 -22.1974,0.52945 -22.1974,-19.00163z" fill="none" stroke="#000000" stroke-width="3.5"/></g><g stroke-linecap="butt"><path d="M205.87426,100.06363c0,-17.92778 16.22692,-32.46112 36.24385,-32.46112c20.01693,0 36.24385,14.53333 36.24385,32.46111c0,17.92778 -16.22692,32.46112 -36.24385,32.46112c-20.01693,0 -36.24385,-14.53334 -36.24385,-32.46112z" fill="#ffffff" stroke="#000000" stroke-width="0"/><path d="M211.22049,114.17372c0,-2.2349 13.04963,13.54746 31.3175,13.54746c18.26787,0 32.1972,-15.07859 32.1972,-12.84369c0,2.2349 -13.04963,16.53846 -31.3175,16.53846c-18.26787,0 -32.1972,-15.00732 -32.1972,-17.24222z" fill="#d0d0d0" stroke="none" stroke-width="0"/><path d="M242.74822,67.00103c20.01693,0 36.24385,14.53334 36.24385,32.46112c0,17.92778 -16.22693,32.46112 -36.24385,32.46112c-20.01693,0 -36.24385,-14.53334 -36.24385,-32.46112c0,-17.92778 16.22693,-32.46112 36.24385,-32.46112z" fill="none" stroke="#000000" stroke-width="3.5"/><path d="M212.92179,79.19141c6.30926,-7.86573 17.53943,-12.13533 28.8785,-12.13533c11.02678,0 22.71091,4.23255 29.64032,11.74193c5.83274,6.32091 7.83512,15.42508 7.83512,21.68686c0,13.70091 -17.167,16.18658 -37.47544,16.18658c-20.30844,0 -35.18821,-2.30973 -35.18821,-16.01064c0,-6.0511 1.319,-15.2475 6.30971,-21.4694z" fill="#ffffff" stroke="#000000" stroke-width="0"/><path d="M208.17661,107.51756c0,-1.01893 -2.52638,-3.72375 -2.50675,-7.02074c0.04195,-7.04325 3.55213,-17.41594 10.81054,-24.23767c4.48937,-4.21929 17.37789,-7.99882 25.36346,-8.51137c3.31842,-0.213 3.60681,2.03043 5.56759,2.03043c3.40438,0 -17.0572,1.1097 -26.96858,9.59906c-11.12255,9.52675 -11.78775,26.65874 -6.00641,28.83751c6.28314,2.36788 18.90955,4.6679 30.04835,3.55195c17.44437,-1.74768 33.54037,-8.03983 33.54037,-6.18452c0,5.1014 -18.01278,11.17225 -35.89197,11.17225c-17.8792,0 -33.95662,-4.1355 -33.95662,-9.2369z" fill="#d0d0d0" stroke="none" stroke-width="0"/><path d="M206.53844,100.76309c0,-6.0511 1.31899,-15.2475 6.3097,-21.4694c6.30926,-7.86572 17.53943,-12.13533 28.8785,-12.13533c11.02679,0 22.71091,4.23255 29.64032,11.74193c5.83273,6.32092 7.83511,15.42509 7.83511,21.68687c0,13.7009 -17.16701,16.18657 -37.47544,16.18657c-20.30843,0 -35.1882,-2.30973 -35.1882,-16.01063z" fill="none" stroke="#000000" stroke-width="3.5"/></g><g stroke-linecap="butt"><path d="M163.72614,272.81233c0,-10.35715 15.56225,-18.75327 34.75925,-18.75327c19.197,0 34.75924,8.39612 34.75924,18.75327c0,5.16615 -0.28848,11.27776 -6.55209,14.66949c-6.29372,3.40803 -18.58563,4.08378 -28.20715,4.08378c-10.30931,0 -26.73722,-0.03249 -33.10272,-3.87869c-5.48771,-3.31582 -1.65653,-10.07952 -1.65653,-14.87459z" fill="#5a3d00" stroke="#000000" stroke-width="0"/><path d="M163.02627,282.74327c0,-1.80073 6.89811,2.44503 20.30059,3.42012c14.37328,1.04572 35.58185,-1.204 43.93211,-4.36875c3.74255,-1.41843 2.70787,-7.90296 -1.43643,-13.28553c-4.51983,-5.87031 -12.24054,-10.61094 -8.92541,-10.61094c19.46087,0 16.60321,19.3037 16.60321,24.8451c0,5.54141 -15.77616,10.0336 -35.23704,10.0336c-19.46088,0 -35.23704,-4.4922 -35.23704,-10.0336z" fill="#352400" stroke="none" stroke-width="0"/><path d="M164.45961,273.30691c0,-10.35715 15.56225,-18.75327 34.75925,-18.75327c19.19701,0 34.75925,8.39613 34.75925,18.75327c0,5.16615 -0.28849,11.27776 -6.55209,14.66949c-6.29372,3.40804 -18.58562,4.08378 -28.20715,4.08378c-10.30931,0 -26.73722,-0.03248 -33.10272,-3.87868c-5.48771,-3.31582 -1.65652,-10.07952 -1.65652,-14.87459z" fill="none" stroke="#000000" stroke-width="3.5"/></g><g data-paper-data="{&quot;index&quot;:null}" stroke-linecap="butt"><path d="M316.27385,273.03442c0,4.79507 3.83119,11.55876 -1.65652,14.87458c-6.3655,3.8462 -22.79341,3.87869 -33.10273,3.87869c-9.62152,0 -21.91342,-0.67575 -28.20715,-4.08378c-6.26361,-3.39173 -6.5521,-9.50334 -6.5521,-14.66949c0,-10.35715 15.56224,-18.75327 34.75924,-18.75327c19.197,0 34.75925,8.39613 34.75925,18.75327z" fill="#5a3d00" stroke="#000000" stroke-width="0"/><path d="M316.97374,282.96537c0,5.5414 -15.77616,10.0336 -35.23704,10.0336c-19.46088,0 -35.23703,-4.4922 -35.23703,-10.0336c0,-5.5414 -2.85767,-24.84509 16.60321,-24.84509c3.31513,0 -4.40558,4.74063 -8.92541,10.61094c-4.1443,5.38257 -5.17898,11.8671 -1.43643,13.28553c8.35026,3.16476 29.55882,5.41448 43.93211,4.36876c13.40249,-0.97509 20.30059,-5.22086 20.30059,-3.42013z" fill="#352400" stroke="none" stroke-width="0"/><path d="M315.54037,273.52901c0,4.79507 3.83119,11.55877 -1.65652,14.87459c-6.3655,3.8462 -22.79341,3.87868 -33.10273,3.87868c-9.62152,0 -21.91343,-0.67575 -28.20715,-4.08378c-6.26361,-3.39173 -6.5521,-9.50334 -6.5521,-14.66949c0,-10.35715 15.56225,-18.75327 34.75925,-18.75327c19.197,0 34.75925,8.39612 34.75925,18.75327z" fill="none" stroke="#000000" stroke-width="3.5"/></g></g></g></svg>