<svg version="1.1" xmlns="http://www.w3.org/2000/svg" xmlns:xlink="http://www.w3.org/1999/xlink" width="242.43934" height="350.77481" viewBox="0,0,242.43934,350.77481"><g transform="translate(-115.81878,-3.34408)"><g data-paper-data="{&quot;isPaintingLayer&quot;:true}" fill-rule="nonzero" stroke-width="4" stroke-linejoin="miter" stroke-miterlimit="10" stroke-dasharray="" stroke-dashoffset="0" style="mix-blend-mode: normal"><g data-paper-data="{&quot;index&quot;:null}"><path d="M285.79282,299.12541c0.01636,6.46173 -0.08963,10.07059 -1.45773,13.99537c-4.91709,14.10615 -17.799,15.29111 -25.19302,15.35279c-9.45126,0.07884 -10.80609,-8.82077 -10.88122,-38.50685c-0.07512,-29.68609 -11.49024,-64.54927 -2.03898,-64.62812c3.58996,-0.02995 15.93394,-0.61463 24.11727,6.74929c2.0749,1.86714 4.34526,5.75868 6.04017,8.52741c9.21911,15.05979 9.37412,42.95904 9.41348,58.51011z" fill="#a70000" stroke="#000000" stroke-linecap="butt"/><path d="M285.10992,307.18301c0.02189,8.64883 -14.77507,20.81048 -24.67948,20.89311c-9.9044,0.08262 -11.16564,-11.94505 -11.18753,-20.59388c-0.0113,-4.46761 0.70933,-21.37826 -1.76978,-40.77094c-2.32019,-18.14958 -8.0262,-38.99613 -3.23797,-39.03608c1.26885,-0.01059 25.8638,-1.61713 26.78905,5.26741c0.52157,3.8809 -18.30825,-4.53108 -19.324,0.9331c-4.01062,21.5748 1.71142,65.2115 6.86916,75.89205c9.30715,19.27305 26.5293,-7.0349 26.54057,-2.58478z" fill="#760000" stroke="none" stroke-linecap="butt"/><path d="M285.5584,299.12736c0.01636,6.46173 -0.08964,10.0706 -1.45774,13.99537c-4.91708,14.10615 -17.799,15.29111 -25.19301,15.3528c-9.45126,0.07884 -10.80609,-8.82078 -10.88122,-38.50685c-0.07512,-29.68609 -11.49024,-64.54926 -2.03898,-64.62812c4.25903,-0.03554 20.49371,-1.71732 28.48951,10.84582c9.74772,15.31582 11.04016,46.63239 11.08142,62.94097z" fill="none" stroke="#000000" stroke-linecap="butt"/><path d="M282.1749,266.69065l-18.47736,9.15686l-13.35538,2.81816" fill="none" stroke="#000000" stroke-linecap="round"/></g><g><path d="M193.8627,299.75574c0.15403,-15.55035 0.19288,-43.772 9.5228,-58.76339c1.71529,-2.75615 4.33619,-6.30654 6.4248,-8.15832c8.23743,-7.30339 20.57675,-6.62769 24.1664,-6.57127c9.45042,0.14855 -2.22148,34.92661 -2.51553,64.61133c-0.29404,29.68472 -1.71446,38.57412 -11.16488,38.42556c-7.39336,-0.1162 -20.26618,-1.39613 -25.07911,-15.53816c-1.33909,-3.93475 -1.41848,-7.5443 -1.35448,-14.00574z" fill="#a00000" stroke="#000000" stroke-linecap="butt"/><path d="M221.00693,310.59863c5.23637,-10.64223 11.28004,-54.23554 7.42865,-75.83932c-0.97543,-5.47153 -19.86677,2.80136 -19.3166,-1.07559c0.976,-6.87754 25.55844,-5.08965 26.82716,-5.06971c4.7878,0.07526 -1.07178,20.87915 -3.52577,39.01114c-2.62205,19.37385 -2.02615,36.28937 -2.0704,40.75678c-0.08567,8.64843 -1.43558,20.66648 -11.33909,20.51082c-9.90352,-0.15566 -24.6104,-12.42611 -24.52473,-21.07455c0.04407,-4.44992 17.07175,21.98434 26.52078,2.78044z" fill="#650000" stroke="none" stroke-linecap="butt"/><path d="M194.09709,299.75943c0.16153,-16.30782 1.68488,-47.61402 11.54528,-62.85754c8.08822,-12.50384 24.31005,-10.70236 28.5687,-10.63543c9.45042,0.14855 -2.22149,34.9266 -2.51553,64.61132c-0.29404,29.68473 -1.71447,38.5741 -11.16489,38.42556c-7.39334,-0.1162 -20.26616,-1.39615 -25.0791,-15.53817c-1.33909,-3.93475 -1.41848,-7.5443 -1.35448,-14.00574z" fill="none" stroke="#000000" stroke-linecap="butt"/><path d="M229.4633,279.55797l-13.33423,-2.91657l-18.40935,-9.29287" fill="none" stroke="#000000" stroke-linecap="round"/></g><g data-paper-data="{&quot;index&quot;:null}"><path d="M328.80055,201.38273c0.03206,6.46179 -0.11017,10.07052 -2.00749,13.99334c-6.81923,14.09913 -24.73598,15.26553 -35.02082,15.31655c-13.14638,0.06523 -15.04376,-8.8364 -15.19105,-38.52274c-0.14728,-29.68634 -16.07574,-64.56618 -2.92934,-64.6314c13.14638,-0.06523 55.0014,44.1579 55.14868,73.84424z" fill="#66abff" stroke="#000000" stroke-linecap="butt"/><path d="M327.86228,209.43941c0.0429,8.64891 -20.52182,20.78929 -34.2985,20.85764c-13.77669,0.06835 -15.54839,-11.96121 -15.59131,-20.61012c-0.02217,-4.46765 0.95584,-21.37736 -2.52051,-40.77371c-3.25351,-18.15303 -11.22049,-39.00791 -4.56022,-39.04096c6.6881,-0.03319 7.81606,63.91672 20.05691,82.11367c12.97383,19.28658 36.89156,-6.9967 36.91364,-2.54654z" fill="#4e83c3" stroke="none" stroke-linecap="butt"/><path d="M328.47449,201.38434c0.03206,6.46179 -0.11017,10.07052 -2.00749,13.99334c-6.81923,14.09913 -24.73598,15.26553 -35.02079,15.31656c-13.14638,0.06522 -15.04376,-8.8364 -15.19105,-38.52274c-0.14729,-29.68635 -16.07574,-64.56617 -2.92936,-64.6314c13.14638,-0.06523 55.00142,44.15789 55.14869,73.84424z" fill="none" stroke="#000000" stroke-linecap="butt"/><path d="M314.28687,167.93847l-16.25398,10.13437l-18.57298,2.79892" fill="none" stroke="#000000" stroke-linecap="round"/></g><g><path d="M150.28332,202.01691c0.36621,-29.68446 42.54622,-73.5977 55.69176,-73.43553c13.14554,0.16217 -3.03968,34.92357 -3.40588,64.60803c-0.36621,29.68446 -2.32918,38.57183 -15.47472,38.40967c-10.28417,-0.12686 -28.19182,-1.42535 -34.90689,-15.5744c-1.86834,-3.9367 -1.98395,-7.54638 -1.90424,-14.00777z" fill="#66abff" stroke="#000000" stroke-linecap="butt"/><path d="M151.16218,210.08027c0.0549,-4.44988 23.77815,22.00909 36.89386,2.81869c12.3747,-18.10618 13.97424,-82.04603 20.66191,-81.96352c6.65983,0.08216 -1.46072,20.87772 -4.84801,39.00627c-3.61927,19.37018 -2.76601,36.28666 -2.82113,40.75401c-0.10669,8.64836 -1.96707,20.66453 -15.74287,20.49459c-13.77581,-0.16994 -34.25046,-12.46166 -34.14376,-21.11002z" fill="#4e83c3" stroke="none" stroke-linecap="butt"/><path d="M150.60938,202.02093c0.36621,-29.68446 42.54622,-73.5977 55.69176,-73.43553c13.14554,0.16217 -3.03968,34.92358 -3.40588,64.60803c-0.36621,29.68445 -2.32918,38.57183 -15.47472,38.40967c-10.28417,-0.12688 -28.19182,-1.42537 -34.90689,-15.57441c-1.86836,-3.93671 -1.98396,-7.54638 -1.90425,-14.00777z" fill="none" stroke="#000000" stroke-linecap="butt"/><path d="M199.77388,181.87036l-18.55182,-2.93581l-16.1788,-10.25396" fill="none" stroke="#000000" stroke-linecap="round"/></g><g stroke-linecap="butt"><path d="M200.89495,190.62803c0.05405,-14.65898 -8.47938,-47.84181 6.87131,-62.05733c11.83811,-10.9627 46.64894,-5.11303 56.20906,-5.07778c21.95691,0.08096 16.52839,41.46463 16.43265,67.42829c-0.03885,10.53635 4.20458,25.12548 -0.77516,32.94633c-7.29137,11.4513 -26.10814,13.96654 -39.1547,13.91843c-9.74525,-0.03594 -28.40592,0.91874 -35.29514,-5.98869c-8.63282,-8.65565 -4.34128,-26.72918 -4.28803,-41.16926z" fill="#66abff" stroke="#000000"/><path d="M216.10268,228.69676c10.38594,1.59438 33.29737,-9.94118 42.7585,-9.90629c12.3784,0.04564 13.81277,-55.38804 15.96163,-77.16299c1.89369,-19.18938 5.18337,-5.45111 5.1638,-0.14312c-0.01547,4.19505 0.0112,28.80371 0.2944,50.58079c0.1638,12.59585 3.2157,22.31963 -0.85464,31.57758c-7.90068,17.97007 -35.83522,14.1547 -45.51435,14.11901c-23.28699,-0.08587 -34.38007,-8.34334 -34.33829,-19.67456c0.02481,-6.72752 1.35164,8.27965 16.52894,10.60956z" fill="#4e83c3" stroke="none"/><path d="M199.83703,146.68164c0.01668,-4.52476 2.50434,-11.93466 7.24508,-15.33389c7.31833,-5.24743 19.57548,-5.40758 33.05797,-5.35786c12.99659,0.04792 27.26024,-0.60946 34.96611,3.54758c5.4665,2.94899 6.504,9.76118 6.48639,14.53768c-0.00642,1.74018 -4.31048,-11.28541 -17.60292,-14.04408c-17.28072,-3.5864 -45.04316,2.83849 -49.95551,6.25699c-16.30104,11.34386 15.11698,64.94511 0.62638,64.89168c-22.21631,-0.08192 -14.86594,-42.98844 -14.8235,-54.4981z" fill="#4e83c3" stroke="none"/><path d="M201.21448,191.59852c0.05405,-14.65898 -8.47938,-47.84181 6.87131,-62.05733c11.83811,-10.9627 46.64894,-5.11303 56.20907,-5.07778c21.95691,0.08096 16.52839,41.46463 16.43265,67.42829c-0.03885,10.53635 4.20458,25.12548 -0.77516,32.94633c-7.29137,11.4513 -26.10814,13.96654 -39.1547,13.91843c-9.74525,-0.03594 -28.40592,0.91875 -35.29514,-5.98869c-8.63282,-8.65565 -4.34127,-26.72918 -4.28803,-41.16926z" fill="none" stroke="#000000"/><path d="M252.94337,202.61333l0.25734,-69.79005l12.92408,0.04766l-0.25734,69.79005z" data-paper-data="{&quot;index&quot;:null}" fill="#a50000" stroke="#000000"/><path d="M265.94668,181.17469c-0.02007,5.44256 -2.71251,9.84474 -6.01373,9.83257c-3.30122,-0.01217 -5.96112,-4.43411 -5.94105,-9.87665c0.00753,-2.04238 6.86785,3.26763 7.99727,-4.66909c1.88027,-13.21303 -1.32768,-41.349 0.7347,-41.34139c3.30122,0.01217 3.24287,40.61201 3.2228,46.05456z" data-paper-data="{&quot;index&quot;:null}" fill="#780000" stroke="none"/><path d="M252.93861,203.90573l0.25734,-69.79005l12.92408,0.04766l-0.25734,69.79005z" data-paper-data="{&quot;index&quot;:null}" fill="none" stroke="#000000"/><path d="M209.64174,204.06919l0.25734,-69.79005l12.92408,0.04766l-0.25734,69.79005z" fill="#a50000" stroke="#000000"/><path d="M213.2833,136.55336c2.06239,0.0076 -1.35297,28.11915 0.4298,41.34569c1.07088,7.94482 7.97015,2.68555 7.96262,4.72794c-0.02007,5.44256 -2.71251,9.84474 -6.01373,9.83257c-3.30122,-0.01217 -5.96112,-4.43411 -5.94105,-9.87665c0.02007,-5.44256 0.26112,-46.04172 3.56235,-46.02954z" fill="#780000" stroke="none"/><path d="M209.63697,205.36159l0.25734,-69.79005l12.92408,0.04766l-0.25734,69.79005z" fill="none" stroke="#000000"/><path d="M201.26433,197.73772c0.06679,-18.11211 16.45854,-8.17853 38.31797,-8.09793c21.85943,0.0806 40.90882,-9.72229 40.84204,8.38981c-0.03047,8.26194 3.47903,20.73521 -2.48813,28.30813c-7.11424,9.02868 -24.70825,12.46456 -36.59638,12.42073c-9.63441,-0.03553 -26.54375,0.28095 -33.38986,-4.48527c-8.68701,-6.04783 -6.723,-26.40615 -6.68565,-36.53548z" fill="#a50000" stroke="#000000"/><path d="M202.45425,225.52926c0.02533,-6.87011 -8.41561,-39.61157 12.90848,-39.53294c4.11495,0.01517 -3.99593,3.24586 -6.52035,10.34764c-3.66185,10.30163 -2.69479,26.22503 4.96463,31.24799c14.4233,9.45863 65.882,-5.39924 65.86864,-1.77793c-0.02533,6.87011 -17.33246,12.37569 -38.65657,12.29707c-21.3241,-0.07863 -38.59017,-5.7117 -38.56483,-12.58181z" fill="#780000" stroke="none"/><path d="M201.91171,197.417c0.06679,-18.11211 16.45854,-8.17853 38.31797,-8.09792c21.85943,0.0806 40.90882,-9.72229 40.84204,8.38981c-0.03047,8.26194 3.47903,20.73521 -2.48813,28.30812c-7.11424,9.02868 -24.70825,12.46456 -36.59638,12.42073c-9.63441,-0.03553 -26.54375,0.28095 -33.38986,-4.48526c-8.68701,-6.04783 -6.723,-26.40615 -6.68565,-36.53548z" fill="none" stroke="#000000"/><path d="M215.88551,175.65882c6.42399,0.02369 11.61195,5.39523 11.5876,11.99767c-0.02435,6.60244 -5.25177,11.93558 -11.67576,11.91189c-6.42399,-0.02369 -11.61195,-5.39523 -11.5876,-11.99767c0.02435,-6.60244 5.25177,-11.93558 11.67576,-11.91189z" fill="#ffe07b" stroke="#000000"/><path d="M219.20289,177.2866c3.67085,0.01354 6.63631,2.835 6.62353,6.30192c-0.01278,3.46692 -2.99897,6.26643 -6.66982,6.2529c-3.67085,-0.01354 -6.63631,-2.835 -6.62353,-6.30192c0.01278,-3.46692 2.99897,-6.26643 6.66982,-6.2529z" fill="#ffecac" stroke="none"/><path d="M209.78132,178.72891c1.48587,0.00548 -0.94326,3.02133 -1.51752,6.48378c-0.52098,3.14127 0.7786,6.68389 2.40469,8.04703c1.24944,1.04739 3.91074,3.07648 6.65168,2.81517c4.06106,-0.38715 8.28801,-3.37481 8.28416,-2.33242c-0.01354,3.67085 -4.40559,6.63052 -9.80989,6.61059c-5.40432,-0.01993 -9.77441,-3.01191 -9.76087,-6.68276c0.01354,-3.67085 -1.65657,-14.96133 3.74774,-14.9414z" fill="#d6ac23" stroke="none"/><path d="M216.25409,175.84482c6.42399,0.02369 11.61194,5.39523 11.5876,11.99767c-0.02435,6.60244 -5.25177,11.93558 -11.67576,11.91189c-6.42399,-0.02369 -11.61194,-5.39523 -11.5876,-11.99767c0.02435,-6.60244 5.25177,-11.93557 11.67576,-11.91189z" fill="none" stroke="#000000"/><g data-paper-data="{&quot;index&quot;:null}"><path d="M272.70672,188.00792c-0.02435,6.60244 -5.25177,11.93557 -11.67576,11.91189c-6.42399,-0.02369 -11.61195,-5.39523 -11.5876,-11.99767c0.02435,-6.60244 5.25177,-11.93557 11.67576,-11.91189c6.42399,0.02369 11.61195,5.39523 11.5876,11.99767z" fill="#ffe07b" stroke="#000000"/><path d="M264.41336,183.91543c-0.01279,3.46693 -2.99897,6.26643 -6.66982,6.2529c-3.67085,-0.01354 -6.63631,-2.83501 -6.62353,-6.30192c0.01279,-3.46693 2.99897,-6.26643 6.66982,-6.2529c3.67085,0.01354 6.63631,2.83501 6.62353,6.30192z" fill="#ffecac" stroke="none"/><path d="M270.83796,194.0939c-0.01354,3.67085 -4.40556,6.63052 -9.80989,6.61059c-5.40431,-0.01993 -9.77441,-3.01191 -9.76087,-6.68276c0.00384,-1.0424 4.20864,1.97637 8.26673,2.39345c2.73895,0.28151 5.41513,-1.72789 6.67226,-2.76604c1.6361,-1.35112 2.96177,-4.88405 2.46397,-8.02908c-0.54869,-3.46659 -2.95553,-6.50027 -1.46966,-6.49479c5.40431,0.01993 3.65098,11.29777 3.63745,14.96863z" fill="#d6ac23" stroke="none"/><path d="M272.33678,188.19119c-0.02435,6.60244 -5.25177,11.93557 -11.67576,11.91189c-6.42399,-0.02369 -11.61194,-5.39523 -11.5876,-11.99767c0.02435,-6.60244 5.25177,-11.93558 11.67576,-11.91189c6.42399,0.02369 11.61194,5.39523 11.5876,11.99767z" fill="none" stroke="#000000"/></g></g><g stroke-linecap="butt"><path d="M216.31084,60.31138c0,0 7.23805,-14.15842 8.69659,-21.46437c1.3449,-6.73657 -0.25856,-20.8019 -0.25856,-20.8019c0,0 24.80022,-13.70134 28.76013,-12.6427c0.95515,0.25537 -0.99652,38.32817 -0.99652,38.32817l4.45587,16.73072z" fill="#4a0000" stroke="#000000"/><path d="M223.93247,35.26806c0.00797,-2.16185 17.49668,0.6077 22.19092,-5.28243c6.14587,-7.71159 0.28497,-24.14052 4.64643,-24.12444c7.69275,0.02837 1.03899,24.51738 1.02058,29.50961c-0.01841,4.99223 -6.26953,9.01623 -13.96229,8.98787c-7.69275,-0.02837 -13.91405,-4.09837 -13.89564,-9.09059z" fill="#2e0000" stroke="none"/><path d="M216.68729,60.31277c0,0 7.23805,-14.15842 8.69661,-21.46436c1.3449,-6.73657 -0.25856,-20.8019 -0.25856,-20.8019c0,0 24.80022,-13.70134 28.76012,-12.6427c0.95514,0.25535 -0.99652,38.32817 -0.99652,38.32817l4.45587,16.73072z" fill="none" stroke="#000000"/><path d="M186.12308,82.81753c0.05157,-13.98519 1.75784,-32.74861 10.86684,-42.22444c3.28236,-3.41455 7.43437,-5.76587 12.09179,-7.38227c9.62882,-3.34173 21.41792,-3.54223 32.14914,-3.50266c21.1127,0.07785 41.9139,4.61454 51.04046,21.61231c3.98295,7.41808 3.70713,22.95647 3.67415,31.902c-0.05352,14.51514 0.31128,30.16487 -9.41643,39.74271c-10.00451,9.85038 -30.31533,13.42335 -45.69135,13.36665c-13.55115,-0.04997 -31.63924,-0.97286 -41.18716,-8.90749c-11.81976,-9.8226 -13.58752,-28.31995 -13.52747,-44.60683z" fill="#66abff" stroke="none"/><path d="M241.81565,65.89822c16.05999,0.05922 29.05465,6.76148 29.02439,14.96992c-0.03027,8.20844 -13.074,14.81469 -29.13399,14.75547c-16.05999,-0.05922 -29.05465,-6.76148 -29.02439,-14.96992c0.03027,-8.20844 13.074,-14.81469 29.13399,-14.75547z" fill="#4e83c3" stroke="none"/><path d="M193.47747,118.87101c0.02125,-5.7642 15.37476,8.74887 37.80587,10.37096c9.96998,0.72098 23.79361,1.28119 34.25853,-2.05819c7.17215,-2.28864 11.58863,-6.87342 15.8152,-6.85784c9.35343,0.03449 13.3842,-50.05749 5.45265,-67.91325c-2.97397,-6.69514 -14.27485,-14.01636 -30.0869,-16.75795c-16.04657,-2.78225 -36.57453,-0.96326 -35.07028,-4.87848c3.31723,-8.63396 57.75327,5.34358 57.74125,8.60426c-0.00577,1.56627 10.76387,1.67915 13.84415,11.094c5.22295,15.96391 3.53347,45.39905 0.13473,57.56573c-7.4993,26.84567 -41.91511,29.30008 -56.02064,29.24807c-24.26843,-0.08949 -43.91175,-8.33519 -43.87457,-18.41729z" fill="#4e83c3" stroke="none"/><path d="M186.12309,82.81755c0.05157,-13.98519 1.75783,-32.74861 10.86684,-42.22444c10.06839,-10.47385 28.31906,-10.94365 44.24094,-10.88494c21.1127,0.07785 41.9139,4.61454 51.04046,21.61231c3.98295,7.41808 3.70713,22.95648 3.67415,31.90201c-0.05352,14.51514 0.31128,30.16487 -9.41643,39.74271c-10.00451,9.85038 -30.31534,13.42335 -45.69135,13.36665c-13.55115,-0.04997 -31.63924,-0.97286 -41.18716,-8.90749c-11.81976,-9.8226 -13.58752,-28.31995 -13.52747,-44.60683z" fill="none" stroke="#000000"/><path d="M242.14543,107.90331c23.10854,0.08521 45.13261,-16.07175 45.09478,-5.81119c-0.03783,10.26056 -22.4106,33.35889 -45.51916,33.27368c-23.10854,-0.08521 -45.95539,-23.67339 -45.91755,-33.93394c0.03783,-10.26056 23.23337,6.38624 46.34192,6.47145z" fill="#00f3ff" stroke="#000000"/><path d="M219.20804,63.23002c7.13777,0.02632 13.51111,16.09853 13.48808,22.34408c-0.02303,6.24555 -7.42447,6.11164 -14.56223,6.08532c-7.13777,-0.02632 -15.18142,-1.24179 -15.15839,-7.48734c0.02303,-6.24555 9.09478,-20.96838 16.23255,-20.94206z" fill="#00f3ff" stroke="#000000"/><path d="M281.4881,84.78472c-0.02303,6.24555 -8.07542,7.40167 -15.2132,7.37535c-7.13777,-0.02632 -14.53998,0.053 -14.51695,-6.19255c0.02303,-6.24555 6.51472,-22.27033 13.65249,-22.24401c7.13778,0.02632 16.1007,14.81565 16.07767,21.0612z" data-paper-data="{&quot;index&quot;:null}" fill="#00f3ff" stroke="#000000"/><path d="M241.24402,89.48291c5.08566,0.01875 9.50328,7.69299 9.49637,9.56666c-0.00691,1.87367 -4.13525,3.37737 -9.22092,3.35862c-5.08566,-0.01875 -9.2028,-1.55285 -9.1959,-3.42653c0.00691,-1.87367 3.83479,-9.5175 8.92046,-9.49875z" fill="#00f3ff" stroke="#000000"/></g><g stroke-linecap="butt"><path d="M275.42761,306.2379c18.58244,0.06852 33.60861,10.39476 33.56189,23.06432c-0.01934,5.24599 5.74633,11.07136 1.38632,14.91993c-6.16983,5.44611 -24.22924,7.9364 -35.11739,7.89626c-8.32063,-0.03068 -25.31191,0.43226 -31.17259,-3.00118c-7.22795,-4.23444 -2.4151,-13.06661 -2.38931,-20.06314c0.04672,-12.66956 15.14863,-22.88471 33.73107,-22.81619z" fill="#66abff" stroke="#000000"/><path d="M237.97096,340.67219c0.00433,-1.17364 6.39701,-27.00981 11.49019,-26.55221c6.47259,0.58155 -6.01268,19.95654 2.52394,26.85464c8.91982,7.20774 38.85105,1.88351 44.90707,-0.7933c9.9376,-4.39251 -6.81271,-29.04279 0.6138,-29.01541c6.10308,0.0225 8.52842,8.69756 10.38777,11.9481c4.13995,7.23749 1.40496,13.14182 1.3877,17.82112c-0.025,6.7809 -16.00866,12.21901 -35.70051,12.1464c-19.69185,-0.07261 -35.63497,-5.62846 -35.60996,-12.40935z" fill="#4e83c3" stroke="none"/><path d="M275.42761,306.2379c18.58244,0.06852 33.60861,10.39477 33.56189,23.06432c-0.01934,5.24598 5.74634,11.07133 1.38633,14.91992c-6.16983,5.44611 -24.22924,7.93642 -35.11739,7.89627c-8.32061,-0.03068 -25.31189,0.43226 -31.17258,-3.00118c-7.22797,-4.23444 -2.41511,-13.06661 -2.38932,-20.06314c0.04672,-12.66954 15.14863,-22.88471 33.73107,-22.81619z" fill="none" stroke="#000000"/></g><g data-paper-data="{&quot;index&quot;:null}" stroke-linecap="butt"><path d="M232.13024,324.49531c-0.0258,6.99653 4.72179,15.86395 -2.53721,20.04497c-5.88584,3.39011 -22.87324,2.80189 -31.19386,2.77121c-10.88814,-0.04015 -28.92871,-2.66355 -35.05821,-8.15502c-4.33151,-3.88062 1.47697,-9.66331 1.49632,-14.9093c0.04672,-12.66956 15.14862,-22.88471 33.73107,-22.81619c18.58244,0.06852 33.60861,10.39476 33.56189,23.06432z" fill="#66abff" stroke="#000000"/><path d="M235.77004,336.14057c-0.025,6.7809 -16.00866,12.21901 -35.7005,12.1464c-19.69183,-0.07261 -35.63497,-5.62846 -35.60996,-12.40935c0.01725,-4.6793 -2.67413,-10.60363 1.51908,-17.81039c1.88328,-3.23675 4.37254,-11.89368 10.4756,-11.87118c7.42651,0.02738 -9.50514,24.55347 0.3998,29.01914c6.03611,2.72141 35.92726,8.26621 44.9,1.12445c8.58726,-6.83496 -3.75478,-26.30149 2.7219,-26.83529c5.09641,-0.42004 11.29839,25.46258 11.29406,26.63622z" fill="#4e83c3" stroke="none"/><path d="M232.13024,324.49531c-0.0258,6.99653 4.72179,15.86395 -2.53721,20.04497c-5.88583,3.39012 -22.87324,2.80189 -31.19386,2.77121c-10.88815,-0.04015 -28.92871,-2.66355 -35.05821,-8.15502c-4.33151,-3.88062 1.47697,-9.66331 1.49632,-14.9093c0.04672,-12.66956 15.14862,-22.88471 33.73107,-22.81619c18.58244,0.06852 33.60861,10.39476 33.56189,23.06432z" fill="none" stroke="#000000"/></g><g><g><path d="M337.75247,255.59687c2.03865,-10.37493 -16.08191,-18.93476 -11.00479,-17.93712c2.37292,0.46627 9.90798,-10.24506 16.505,-6.68535c7.51794,4.05664 13.97144,22.70931 12.88562,28.23525c-2.03863,10.37497 -7.80709,17.97679 -12.8842,16.97915c-5.07714,-0.99762 -7.54028,-10.21691 -5.50165,-20.59189z" fill="#66abff" stroke="#000000" stroke-linecap="butt"/><path d="M337.91935,265.19724c0.33012,-1.68013 1.90401,-8.50627 -0.58726,-14.97107c-1.54919,-4.02012 -6.82093,-7.33218 -8.39223,-10.91088c-2.18125,-4.96785 3.66434,-6.82784 4.71741,-6.62091c2.86969,0.56389 18.74066,31.38391 17.89484,35.68842c-0.84582,4.30452 -3.85782,7.3369 -6.7275,6.773c-2.86966,-0.5639 -7.59939,-4.36593 -6.75357,-8.67046z" fill="#4e83c3" stroke="none" stroke-linecap="butt"/><path d="M337.33469,255.35695c2.03865,-10.37493 -16.08188,-18.93474 -11.00477,-17.9371c2.37291,0.46627 9.90796,-10.24507 16.50497,-6.68536c7.51796,4.05665 13.97145,22.70932 12.88562,28.23526c-2.03862,10.37494 -7.80708,17.97677 -12.8842,16.97915c-5.07711,-0.99762 -7.54026,-10.21694 -5.50163,-20.5919z" fill="none" stroke="#000000" stroke-linecap="butt"/><path d="M338.6847,252.71202l14.60351,-4.60271" fill="none" stroke="#000000" stroke-linecap="round"/></g><path d="M329.60754,222.46024c3.54621,13.48949 -3.54433,27.04463 -15.83717,30.27625c-12.29283,3.23164 -25.13294,-5.08401 -28.67915,-18.5735c-3.54621,-13.48949 3.54434,-27.04463 15.83717,-30.27625c12.29283,-3.23164 25.13292,5.08402 28.67914,18.5735z" fill="#66abff" stroke="#000000" stroke-linecap="butt"/><path d="M330.11674,232.16142c2.0019,7.61504 -5.19412,16.1066 -16.07274,18.96645c-10.87862,2.85986 -21.32033,-0.995 -23.32223,-8.61001c-1.34744,-5.1256 18.03739,10.78854 26.05809,1.52338c1.89637,-2.19059 6.03145,-12.49273 4.92992,-21.21595c-1.16126,-9.19636 -8.97292,-14.56457 -7.14779,-15.04437c10.87862,-2.85986 13.55285,16.76548 15.55474,24.38051z" fill="#4e83c3" stroke="none" stroke-linecap="butt"/><g data-paper-data="{&quot;index&quot;:null}"><path d="M279.40355,259.07464c0.53557,10.55981 -3.21935,19.33265 -8.38693,19.59473c-5.16755,0.2621 -9.79086,-8.08582 -10.32644,-18.64561c-0.28526,-5.62438 8.76674,-23.16379 16.78709,-26.10482c7.03789,-2.58076 12.96545,9.09716 15.38065,8.97466c5.16756,-0.2621 -13.98997,5.62125 -13.45438,16.18101z" fill="#66abff" stroke="#000000" stroke-linecap="butt"/><path d="M277.53273,269.80588c0.22221,4.3812 -5.00217,7.46856 -7.92294,7.61671c-2.9208,0.14816 -5.46871,-3.28341 -5.6909,-7.66461c-0.22221,-4.3812 19.88888,-32.6178 22.80969,-32.76594c1.07183,-0.05438 6.59175,2.62164 3.72317,7.22693c-2.06642,3.31751 -7.75726,5.84248 -9.86485,9.60006c-3.38926,6.0426 -2.8067,13.02357 -2.71998,14.73363z" fill="#4e83c3" stroke="none" stroke-linecap="butt"/><path d="M279.85132,258.89686c0.53557,10.55978 -3.21937,19.33265 -8.38692,19.59474c-5.16755,0.26208 -9.79086,-8.08585 -10.32643,-18.64561c-0.28526,-5.62439 8.76672,-23.1638 16.78709,-26.10484c7.03789,-2.58076 12.96545,9.09717 15.38063,8.97468c5.16755,-0.26209 -13.98995,5.62125 -13.45436,16.18101z" fill="none" stroke="#000000" stroke-linecap="butt"/><path d="M265.09683,249.44443l13.79618,6.64174" fill="none" stroke="#000000" stroke-linecap="round"/></g><path d="M329.98994,223.71872c3.54623,13.48948 -3.54432,27.04463 -15.83716,30.27625c-12.29285,3.23164 -25.13293,-5.08401 -28.67914,-18.5735c-3.54621,-13.48949 3.54433,-27.04463 15.83717,-30.27625c12.29285,-3.23164 25.13291,5.08401 28.67912,18.57351z" fill="none" stroke="#000000" stroke-linecap="butt"/><g><path d="M320.11184,261.26169c4.27355,-9.6712 -11.51689,-22.01168 -6.78415,-19.92036c2.21197,0.97743 11.92105,-7.8114 17.5721,-2.88618c6.43992,5.61278 8.62693,25.22876 6.35076,30.37987c-4.27353,9.67124 -11.57457,15.81598 -16.3073,13.72466c-4.73277,-2.0913 -5.10499,-11.62669 -0.83144,-21.29795z" fill="#66abff" stroke="#000000" stroke-linecap="butt"/><path d="M318.16024,270.66307c0.69204,-1.56617 3.73066,-7.87807 2.72436,-14.73281c-0.62576,-4.2626 -5.03862,-8.65437 -5.78318,-12.49125c-1.03358,-5.32627 5.07811,-5.85317 6.05976,-5.41939c2.67503,1.18205 11.36858,34.74072 9.59551,38.75326c-1.77306,4.01255 -5.37896,6.30711 -8.05398,5.12506c-2.67501,-1.18206 -6.45124,-5.93241 -4.67818,-9.94496z" fill="#4e83c3" stroke="none" stroke-linecap="butt"/><path d="M319.75716,260.93563c4.27355,-9.6712 -11.51686,-22.01165 -6.78413,-19.92035c2.21195,0.97743 11.92103,-7.81141 17.57208,-2.8862c6.43993,5.61279 8.62695,25.22876 6.35076,30.37988c-4.27352,9.67121 -11.57456,15.81596 -16.3073,13.72466c-4.73273,-2.0913 -5.10496,-11.62673 -0.83142,-21.29795z" fill="none" stroke="#000000" stroke-linecap="butt"/><path d="M336.91514,257.37952l-15.25862,1.27345" fill="none" stroke="#000000" stroke-linecap="round"/></g><g><path d="M296.89055,266.26327c5.13128,-9.24475 -9.47751,-22.96366 -4.95346,-20.4526c2.11443,1.17361 12.57908,-6.70045 17.76119,-1.28401c5.90552,6.17257 6.30827,25.90597 3.57524,30.82995c-5.13127,9.24479 -12.95845,14.70353 -17.48248,12.19248c-4.52407,-2.51105 -4.0318,-12.04099 1.09948,-21.2858z" fill="#66abff" stroke="#000000" stroke-linecap="butt"/><path d="M294.09612,275.44946c0.83095,-1.49711 4.42833,-7.50812 4.04654,-14.4258c-0.23741,-4.30174 -4.23471,-9.07488 -4.62896,-12.96339c-0.54731,-5.39795 5.587,-5.36957 6.52535,-4.84873c2.55708,1.41929 8.17781,35.62704 6.04886,39.46265c-2.12893,3.83561 -5.92769,5.79441 -8.48476,4.37512c-2.55705,-1.41929 -5.88788,-6.49192 -3.75895,-10.32753z" fill="#4e83c3" stroke="none" stroke-linecap="butt"/><path d="M296.56681,265.90646c5.13128,-9.24475 -9.47748,-22.96362 -4.95345,-20.45258c2.11442,1.17361 12.57907,-6.70047 17.76118,-1.28403c5.90553,6.17258 6.30828,25.90598 3.57523,30.82997c-5.13125,9.24475 -12.95843,14.70353 -17.48248,12.19248c-4.52404,-2.51105 -4.03177,-12.04103 1.0995,-21.2858z" fill="none" stroke="#000000" stroke-linecap="butt"/><path d="M313.97624,263.91779l-15.31125,-0.11272" fill="none" stroke="#000000" stroke-linecap="round"/></g></g><g data-paper-data="{&quot;index&quot;:null}"><g><path d="M136.23077,250.89894c1.96207,10.38973 -0.56899,19.59062 -5.65335,20.55076c-5.08433,0.96016 -10.79657,-6.68398 -12.75864,-17.0737c-1.04504,-5.53379 5.54584,-24.13836 13.09349,-28.13945c6.62309,-3.51096 14.07895,7.25565 16.45525,6.80688c5.08434,-0.96017 -13.09886,7.4658 -11.13677,17.85548z" fill="#66abff" stroke="#000000" stroke-linecap="butt"/><path d="M135.83188,261.78475c0.81405,4.31064 -3.94359,8.07769 -6.81733,8.62042c-2.87376,0.54271 -5.86331,-2.51179 -6.67736,-6.82243c-0.81405,-4.31064 15.28377,-35.01278 18.15753,-35.55548c1.05457,-0.19916 6.88629,1.70389 4.66845,6.65552c-1.59765,3.567 -6.89368,6.84009 -8.47246,10.84868c-2.53887,6.44626 -1.01538,13.28383 -0.69765,14.96634z" fill="#4e83c3" stroke="none" stroke-linecap="butt"/><path d="M136.65029,250.66211c1.96207,10.38971 -0.56902,19.5906 -5.65333,20.55076c-5.08434,0.96015 -10.79657,-6.684 -12.75864,-17.0737c-1.04504,-5.5338 5.54583,-24.13837 13.09349,-28.13947c6.62309,-3.51096 14.07894,7.25566 16.45522,6.8069c5.08432,-0.96017 -13.09883,7.46579 -11.13675,17.85546z" fill="none" stroke="#000000" stroke-linecap="butt"/><path d="M135.31982,248.00726l-14.56917,-4.71028" fill="none" stroke="#000000" stroke-linecap="round"/></g><path d="M144.61984,217.82324c3.6456,-13.46297 16.54667,-21.68371 28.81533,-18.3615c12.26867,3.32218 19.25907,16.92926 15.61347,30.39222c-3.6456,13.46298 -16.54668,21.68371 -28.81535,18.3615c-12.26868,-3.32219 -19.25907,-16.92926 -15.61348,-30.39222z" fill="#66abff" stroke="#000000" stroke-linecap="butt"/><path d="M144.03911,227.52042c2.05799,-7.60007 4.87688,-27.20515 15.73411,-24.26514c1.82154,0.49325 -6.02949,5.8037 -7.25854,14.99125c-1.16583,8.71486 2.89317,19.04722 4.77333,21.25173c7.95216,9.32406 27.45383,-6.4467 26.06862,-1.33118c-2.058,7.60005 -12.52786,11.37779 -23.3851,8.43779c-10.85724,-2.94 -17.99044,-11.4844 -15.93243,-19.08447z" fill="#4e83c3" stroke="none" stroke-linecap="butt"/><g data-paper-data="{&quot;index&quot;:null}"><path d="M194.55245,254.80684c0.61346,-10.55552 -18.50018,-16.57999 -13.33469,-16.27979c2.41422,0.1403 8.42774,-11.49358 15.4464,-8.86099c7.99845,3.00011 16.92085,20.60579 16.59413,26.22791c-0.61342,10.55555 -5.29817,18.86914 -10.46365,18.56895c-5.16551,-0.30018 -8.85563,-9.10047 -8.2422,-19.65603z" fill="#66abff" stroke="#000000" stroke-linecap="butt"/><path d="M196.01917,264.29597c0.09932,-1.70936 0.73335,-8.68586 -2.61126,-14.75329c-2.07983,-3.77302 -7.75189,-6.33989 -9.79379,-9.67254c-2.83454,-4.62632 2.70496,-7.26155 3.77636,-7.19926c2.91964,0.16968 22.82194,28.55382 22.56742,32.93326c-0.2545,4.37944 -2.82765,7.79212 -5.74727,7.62244c-2.9196,-0.16969 -8.12107,-3.2955 -7.86656,-7.67494z" fill="#4e83c3" stroke="none" stroke-linecap="butt"/><path d="M194.10599,254.62576c0.61346,-10.55552 -18.50015,-16.57998 -13.33466,-16.27979c2.41421,0.14031 8.42773,-11.4936 15.44639,-8.861c7.99847,3.00012 16.92085,20.60579 16.59412,26.22793c-0.61343,10.55553 -5.29817,18.86913 -10.46365,18.56895c-5.16548,-0.30019 -8.85563,-9.10051 -8.24219,-19.65605z" fill="none" stroke="#000000" stroke-linecap="butt"/><path d="M208.92979,245.28244l-13.84478,6.5398" fill="none" stroke="#000000" stroke-linecap="round"/></g><path d="M173.04346,200.71736c12.26868,3.32218 19.25907,16.92925 15.61347,30.39221c-3.6456,13.46298 -16.54664,21.6837 -28.81532,18.36149c-12.26868,-3.32218 -19.25906,-16.92925 -15.61346,-30.39221c3.6456,-13.46298 16.54663,-21.68371 28.81531,-18.3615z" fill="none" stroke="#000000" stroke-linecap="butt"/><g><path d="M153.82915,256.69368c4.20212,9.70251 3.75958,19.23489 -0.98849,21.29125c-4.74802,2.05636 -12.00354,-4.14204 -16.20564,-13.84453c-2.23813,-5.16777 0.09349,-24.76707 6.57463,-30.33221c5.68722,-4.8834 15.33122,3.97677 17.55033,3.01568c4.74803,-2.05636 -11.13298,10.16734 -6.93087,19.86979z" fill="#66abff" stroke="#000000" stroke-linecap="butt"/><path d="M155.83752,267.40005c1.74343,4.02551 -2.06775,8.74788 -4.75139,9.91018c-2.68366,1.1623 -6.27254,-1.15879 -8.01597,-5.1843c-1.74343,-4.02551 7.19735,-37.51914 9.88103,-38.68144c0.98481,-0.42653 7.09247,0.14543 6.01963,5.46393c-0.77283,3.83127 -5.21797,8.19039 -5.87514,12.44826c-1.05682,6.84713 1.93516,13.18128 2.61564,14.7525z" fill="#4e83c3" stroke="none" stroke-linecap="butt"/><path d="M154.18622,256.37027c4.20209,9.70247 3.75955,19.23489 -0.98847,21.29125c-4.74803,2.05635 -12.00356,-4.14207 -16.20564,-13.84454c-2.23814,-5.16778 0.09347,-24.76707 6.57462,-30.33222c5.68722,-4.8834 15.33122,3.97678 17.55032,3.01569c4.74802,-2.05634 -11.13297,10.16733 -6.93085,19.86978z" fill="none" stroke="#000000" stroke-linecap="butt"/><path d="M137.05491,252.68768l15.24882,1.38594" fill="none" stroke="#000000" stroke-linecap="round"/></g><g><path d="M177.01294,261.86638c5.06296,9.28239 5.48495,18.81571 0.94248,21.29332c-4.54243,2.47763 -12.32914,-3.03871 -17.39209,-12.32108c-2.69664,-4.944 -2.14838,-24.67389 3.8025,-30.80274c5.22192,-5.37808 15.62821,2.57295 17.75124,1.41497c4.54244,-2.47763 -10.16711,11.13317 -5.10415,20.41552z" fill="#66abff" stroke="#000000" stroke-linecap="butt"/><path d="M179.98202,272.34705c2.10059,3.85121 -1.26756,8.89912 -3.835,10.29952c-2.56745,1.40041 -6.35167,-0.58636 -8.45227,-4.43757c-2.10059,-3.85121 3.77225,-38.01656 6.33973,-39.41696c0.94217,-0.51391 7.07652,-0.49705 6.48942,4.89672c-0.42291,3.8855 -4.45529,8.62902 -4.72443,12.92889c-0.43281,6.91468 3.12016,12.95205 3.94003,14.45525z" fill="#4e83c3" stroke="none" stroke-linecap="butt"/><path d="M177.33927,261.51198c5.06295,9.28236 5.48493,18.81571 0.9425,21.29332c-4.54244,2.47761 -12.32916,-3.03873 -17.39209,-12.32108c-2.69665,-4.94401 -2.1484,-24.6739 3.80249,-30.80277c5.22192,-5.37808 15.62823,2.57297 17.75124,1.41499c4.54243,-2.47761 -10.1671,11.13316 -5.10414,20.41549z" fill="none" stroke="#000000" stroke-linecap="butt"/><path d="M159.94498,259.39494l15.31167,0.0002" fill="none" stroke="#000000" stroke-linecap="round"/></g></g></g></g></svg>