<svg version="1.1" xmlns="http://www.w3.org/2000/svg" xmlns:xlink="http://www.w3.org/1999/xlink" width="218.37577" height="315.8401" viewBox="0,0,218.37577,315.8401"><g transform="translate(-130.96697,-21.9929)"><g data-paper-data="{&quot;isPaintingLayer&quot;:true}" fill-rule="nonzero" stroke-linejoin="miter" stroke-miterlimit="10" stroke-dasharray="" stroke-dashoffset="0" style="mix-blend-mode: normal"><g data-paper-data="{&quot;index&quot;:null}" stroke-width="3.5"><path d="M281.68123,279.63894c0.04025,6.4741 -0.05262,10.09029 -1.40883,14.02766c-4.87444,14.15145 -17.77673,15.38628 -25.18475,15.47539c-9.46914,0.11393 -10.85946,-8.7978 -11.04439,-38.5407c-0.18494,-29.74288 -11.7508,-64.63095 -2.28166,-64.74487c3.59677,-0.04326 15.96231,-0.67468 24.1886,6.67319c2.08579,1.86307 4.69861,5.42996 6.40701,8.19775c9.29248,15.05468 9.22714,43.33075 9.32401,58.91157z" fill="#ffffff" stroke="#000000" stroke-linecap="butt"/><path d="M254.44473,290.40241c9.39626,19.27573 26.55434,-7.14645 26.58206,-2.68781c0.03077,4.94926 -3.17212,12.13488 -9.15082,16.49193c-4.48907,3.27146 -11.24343,4.48134 -15.49893,4.53253c-9.92314,0.11937 -11.23124,-11.92676 -11.28513,-20.59215c-0.02782,-4.47616 0.63171,-21.42201 -1.92381,-40.84281c-2.39171,-18.17593 -8.18571,-39.04147 -3.38842,-39.09919c1.27124,-0.01529 25.90757,-1.71579 26.86003,5.17857c0.53692,3.88643 -18.36019,-4.47216 -19.35771,1.00629c-3.93861,21.6311 1.95563,65.33057 7.16275,76.01262z" fill="#e2e2e2" stroke="none" stroke-linecap="butt"/><path d="M281.44639,279.64177c0.04025,6.4741 -0.05262,10.0903 -1.40882,14.02767c-4.87445,14.15144 -17.77675,15.38629 -25.18474,15.47539c-9.46914,0.11391 -10.85946,-8.7978 -11.0444,-38.5407c-0.18494,-29.7429 -11.7508,-64.63095 -2.28166,-64.74487c4.26709,-0.05133 20.52676,-1.79634 28.58435,10.76143c9.82305,15.30926 11.23368,46.68129 11.33526,63.02107z" fill="none" stroke="#000000" stroke-linecap="butt"/><path d="M277.93652,247.15515l-18.47908,9.24273l-15.51138,2.87292" fill="none" stroke="#000000" stroke-linecap="round"/></g><g stroke-width="3.5"><path d="M195.84159,279.94776c0.09688,-15.58083 0.03153,-43.8569 9.32401,-58.91157c1.7084,-2.76778 4.32122,-6.33469 6.40702,-8.19775c8.22629,-7.34787 20.59183,-6.71646 24.18859,-6.67319c9.46915,0.11393 -2.09672,35.00198 -2.28166,64.74487c-0.18493,29.7429 -1.57525,38.65464 -11.0444,38.5407c-7.40801,-0.08911 -20.31031,-1.32394 -25.18475,-15.47538c-1.35621,-3.93737 -1.44908,-7.55357 -1.40883,-14.02767z" fill="#ffffff" stroke="#000000" stroke-linecap="butt"/><path d="M223.07807,290.71122c5.20712,-10.68204 11.10136,-54.38151 7.16275,-76.01262c-0.99752,-5.47844 -19.89463,2.88014 -19.35772,-1.00629c0.95246,-6.89437 25.58879,-5.19387 26.86003,-5.17857c4.79728,0.05772 -0.99671,20.92326 -3.38842,39.09919c-2.55552,19.4208 -1.89598,36.36664 -1.92381,40.84281c-0.05388,8.66538 -1.36198,20.71152 -11.28512,20.59215c-4.25551,-0.05119 -11.00987,-1.26107 -15.49894,-4.53253c-5.97869,-4.35705 -9.18159,-11.54267 -9.15081,-16.49194c0.02772,-4.45864 17.1858,21.96354 26.58206,2.68781z" fill="#e2e2e2" stroke="none" stroke-linecap="butt"/><path d="M196.07644,279.95059c0.10159,-16.33978 1.51221,-47.71181 11.33526,-63.02107c8.05758,-12.55777 24.31726,-10.81275 28.58435,-10.76143c9.46915,0.11393 -2.09672,35.00197 -2.28166,64.74487c-0.18494,29.7429 -1.57526,38.65461 -11.0444,38.5407c-7.40799,-0.08911 -20.31029,-1.32396 -25.18473,-15.4754c-1.35621,-3.93737 -1.44908,-7.55357 -1.40883,-14.02767z" fill="none" stroke="#000000" stroke-linecap="butt"/><path d="M233.57676,259.57962l-15.51138,-2.87292l-18.47908,-9.24273" fill="none" stroke="#000000" stroke-linecap="round"/></g><g data-paper-data="{&quot;index&quot;:null}"><path d="M284.91924,145.45712c9.54944,0 36.25144,48.13426 36.25144,54.32277c0,6.1885 -9.60634,17.91246 -19.15579,17.91246c-9.54946,0 -34.38646,-54.84143 -34.38646,-61.02994c0,-3.07139 -3.21475,-6.56744 -0.12641,-8.59152c3.13431,-2.05423 12.60719,-2.61374 17.4172,-2.61374z" fill="#ffffff" stroke="#000000" stroke-width="0" stroke-linecap="butt"/><path d="M308.39373,208.0587c9.95666,0 13.36569,-19.37149 13.36569,-9.58166c0,9.78984 -9.62564,18.6771 -19.58229,18.6771c-9.95668,0 -34.19131,-49.13026 -34.19131,-58.9201c0,-6.45913 11.70152,21.60575 23.58085,38.51606c6.12571,8.71996 13.43956,11.30861 16.82704,11.30861z" fill="#e2e2e2" stroke="none" stroke-width="0" stroke-linecap="butt"/><path d="M284.91926,146.0637c9.54944,0 36.25144,48.13427 36.25144,54.32277c0,6.1885 -9.60634,17.91245 -19.1558,17.91245c-9.54945,0 -34.38646,-54.84142 -34.38646,-61.02993c0,-3.28357 -4.08033,-7.42604 -0.60784,-9.4755c3.07211,-1.81315 13.41605,-1.72978 17.89865,-1.72978z" fill="none" stroke="#000000" stroke-width="3.5" stroke-linecap="butt"/><path d="M281.29962,185.41785l26.46157,-13.5522" fill="none" stroke="#000000" stroke-width="3.5" stroke-linecap="round"/></g><g><path d="M197.70713,146.95677c4.81002,0 14.2829,0.55952 17.41721,2.61375c3.08834,2.02409 -0.12641,5.52014 -0.12641,8.59153c0,6.18851 -24.83701,61.02993 -34.38646,61.02993c-9.54946,0 -19.1558,-11.72395 -19.1558,-17.91245c0,-6.18851 26.70199,-54.32277 36.25144,-54.32277z" fill="#ffffff" stroke="#000000" stroke-width="0" stroke-linecap="butt"/><path d="M174.23264,209.55835c3.38747,0 10.70134,-2.58865 16.82705,-11.30861c11.87934,-16.9103 23.58085,-44.97518 23.58085,-38.51606c0,9.78984 -24.23462,58.92011 -34.1913,58.92011c-9.95666,0 -19.58229,-8.88727 -19.58229,-18.67711c0,-9.78983 3.40902,9.58165 13.36568,9.58165z" fill="#e2e2e2" stroke="none" stroke-width="0" stroke-linecap="butt"/><path d="M197.70711,147.56334c4.4826,0 14.82654,-0.08337 17.89865,1.72978c3.4725,2.04946 -0.60784,6.19194 -0.60784,9.4755c0,6.18851 -24.83701,61.02993 -34.38646,61.02993c-9.54946,0 -19.1558,-11.72394 -19.1558,-17.91244c0,-6.18851 26.70199,-54.32277 36.25144,-54.32277z" fill="none" stroke="#000000" stroke-width="3.5" stroke-linecap="butt"/><path d="M201.32673,186.91749l-26.46157,-13.5522" fill="none" stroke="#000000" stroke-width="3.5" stroke-linecap="round"/></g><g><path d="M195.44756,202.72275c0,-15.67928 14.40608,-49.7641 27.14821,-63.48461c8.14097,-8.76607 13.52098,-1.27111 20.81897,-1.27111c8.19004,0 17.73517,-4.13898 25.52243,7.38696c10.01278,14.81992 17.32827,47.39087 17.32827,61.84569c0,25.6968 -24.13,23.8237 -42.85069,23.8237c-18.72069,0 -47.96719,-2.60383 -47.96719,-28.30064z" fill="#ffffff" stroke="#000000" stroke-width="0" stroke-linecap="butt"/><path d="M242.32015,130.15704c15.71832,0 29.1001,6.17047 29.1001,16.14895c0,0.44385 9.0845,8.49612 -2.35731,11.16197c-4.95473,1.15441 -13.36145,-4.86486 -22.55897,-4.66409c-11.33843,0.24749 -23.54629,6.78994 -27.96245,9.80255c-18.97822,12.94658 -17.89667,33.03132 -15.58687,35.73818c3.78285,4.43313 2.73591,14.29364 9.74752,17.50877c26.99217,12.37709 76.18544,10.23805 66.07304,10.23805c-8.30028,0 -59.12585,11.92205 -74.76491,-4.55384c-4.79436,-5.05089 -8.71474,-14.06912 -7.59481,-23.08832c2.14494,-17.27408 14.24631,-36.25817 14.24631,-39.35202c0,-9.97848 15.94003,-28.94021 31.65835,-28.94021z" fill="#e2e2e2" stroke="none" stroke-width="0" stroke-linecap="butt"/><path d="M222.78029,138.7831c8.14097,-8.76606 13.52099,-1.2711 20.81898,-1.2711c8.19004,0 17.73517,-4.13898 25.52243,7.38696c10.01278,14.81992 17.32827,47.39087 17.32827,61.84569c0,25.6968 -24.13,23.82371 -42.85069,23.82371c-18.72069,0 -47.96719,-2.60384 -47.96719,-28.30064c0,-15.67928 14.40609,-49.7641 27.14821,-63.48461z" fill="none" stroke="#000000" stroke-width="3.5" stroke-linecap="butt"/><path d="M283.25216,185.79897l-13.7506,1.27912l-13.7506,3.51759l-17.58797,0.63956l-17.90775,-1.27912l-9.59344,-4.79672l-11.19234,-0.95934" fill="none" stroke="#000000" stroke-width="3.5" stroke-linecap="round"/><g stroke-linecap="butt"><path d="M243.65557,162.68811c3.47753,0 6.29661,2.62125 6.29661,5.85474c0,3.23349 -2.8191,5.85475 -6.29661,5.85475c-3.47753,0 -6.29661,-2.62126 -6.29661,-5.85475c0,-3.23348 2.8191,-5.85474 6.29661,-5.85474z" fill="#333333" stroke="#000000" stroke-width="0"/><path d="M239.958,164.54383c1.35589,0 1.04612,3.96113 2.69184,5.07441c2.2049,1.49155 6.2226,0.34006 6.2226,1.31822c0,1.70825 -2.5718,3.09307 -5.74428,3.09307c-3.17248,0 -5.74428,-1.38482 -5.74428,-3.09307c0,-1.70825 -0.59837,-6.39263 2.57411,-6.39263z" fill="#141414" stroke="none" stroke-width="0"/><path d="M245.97485,163.04339c2.14388,0 3.88184,1.17312 3.88184,2.62024c0,1.44712 -1.73796,2.62024 -3.88184,2.62024c-2.14388,0 -3.88184,-1.17312 -3.88184,-2.62024c0,-1.44712 1.73796,-2.62024 3.88184,-2.62024z" fill="#797979" stroke="none" stroke-width="0"/><path d="M243.78306,162.81559c3.47753,0 6.29661,2.62126 6.29661,5.85475c0,3.23349 -2.8191,5.85475 -6.29661,5.85475c-3.47753,0 -6.29661,-2.62126 -6.29661,-5.85475c0,-3.23349 2.8191,-5.85475 6.29661,-5.85475z" fill="none" stroke="#000000" stroke-width="3.5"/></g><g stroke-linecap="butt"><path d="M242.83996,180.11339c3.47752,0 6.29661,2.62126 6.29661,5.85474c0,3.23348 -2.81908,5.85474 -6.29661,5.85474c-3.47752,0 -6.29661,-2.62126 -6.29661,-5.85474c0,-3.23348 2.81908,-5.85474 6.29661,-5.85474z" fill="#333333" stroke="#000000" stroke-width="0"/><path d="M239.1424,181.96911c1.35589,0 1.04612,3.96113 2.69184,5.07441c2.20491,1.49155 6.2226,0.34006 6.2226,1.31822c0,1.70825 -2.5718,3.09307 -5.74428,3.09307c-3.17248,0 -5.74428,-1.38481 -5.74428,-3.09307c0,-1.70826 -0.59837,-6.39263 2.57411,-6.39263z" fill="#141414" stroke="none" stroke-width="0"/><path d="M245.15925,180.46867c2.14388,0 3.88183,1.17312 3.88183,2.62024c0,1.44712 -1.73794,2.62024 -3.88183,2.62024c-2.14388,0 -3.88184,-1.17312 -3.88184,-2.62024c0,-1.44712 1.73795,-2.62024 3.88184,-2.62024z" fill="#797979" stroke="none" stroke-width="0"/><path d="M242.96744,180.24088c3.47752,0 6.29661,2.62126 6.29661,5.85474c0,3.23348 -2.81908,5.85474 -6.29661,5.85474c-3.47752,0 -6.29661,-2.62126 -6.29661,-5.85474c0,-3.23348 2.81908,-5.85474 6.29661,-5.85474z" fill="none" stroke="#000000" stroke-width="3.5"/></g><g stroke-linecap="butt"><path d="M276.91392,150.39871c0,3.3556 -0.19494,22.06491 -9.11377,22.06491c-8.91883,0 -23.18414,-18.70932 -23.18414,-22.06491c0,-3.3556 14.26532,-19.50666 23.18414,-19.50666c8.91883,0 9.11377,16.15106 9.11377,19.50666z" data-paper-data="{&quot;index&quot;:null}" fill="#fbff00" stroke="#000000" stroke-width="0"/><path d="M277.36896,155.53984c0,4.50357 -1.96575,15.82917 -9.91321,15.82917c-7.94746,0 -18.86709,-11.3256 -18.86709,-15.82917c0,-2.68802 15.26233,16.09327 21.0072,10.0152c2.46263,-2.60546 4.45246,-10.22665 3.82656,-19.41954c-0.36029,-5.29169 -3.93934,-14.73915 -2.76886,-14.73915c7.94746,0 6.7154,19.63993 6.7154,24.14349z" data-paper-data="{&quot;index&quot;:null}" fill="#bcbf00" stroke="none" stroke-width="0"/><path d="M276.72939,150.58324c0,3.3556 -0.19494,22.06491 -9.11377,22.06491c-8.91882,0 -23.18414,-18.70931 -23.18414,-22.06491c0,-3.3556 14.26532,-19.50666 23.18414,-19.50666c8.91883,0 9.11377,16.15106 9.11377,19.50666z" data-paper-data="{&quot;index&quot;:null}" fill="none" stroke="#000000" stroke-width="3.5"/><path d="M217.79876,131.07658c8.91883,0 23.18415,16.15106 23.18415,19.50666c0,3.3556 -14.26532,22.06491 -23.18415,22.06491c-8.91883,0 -9.11377,-18.70931 -9.11377,-22.06491c0,-3.35559 0.19494,-19.50666 9.11377,-19.50666z" fill="#fbff00" stroke="#000000" stroke-width="0"/><path d="M214.94537,131.58088c1.17049,0 -2.40857,9.44746 -2.76886,14.73915c-0.6259,9.1929 1.36393,16.81408 3.82656,19.41954c5.74488,6.07807 21.0072,-12.70322 21.0072,-10.0152c0,4.50356 -10.91963,15.82917 -18.86709,15.82917c-7.94747,0 -9.91322,-11.32561 -9.91322,-15.82917c0,-4.50357 -1.23205,-24.14349 6.71541,-24.14349z" fill="#bcbf00" stroke="none" stroke-width="0"/><path d="M217.98329,131.26111c8.91882,0 23.18414,16.15106 23.18414,19.50666c0,3.3556 -14.26532,22.06491 -23.18414,22.06491c-8.91883,0 -9.11377,-18.70931 -9.11377,-22.06491c0,-3.35559 0.19495,-19.50666 9.11377,-19.50666z" fill="none" stroke="#000000" stroke-width="3.5"/><path d="M243.93089,140.9898c5.73983,0 10.39288,4.79622 10.39288,10.71267c0,5.91645 -4.65305,10.71267 -10.39288,10.71267c-5.73983,0 -10.39289,-4.79622 -10.39289,-10.71267c0,-5.91644 4.65306,-10.71267 10.39289,-10.71267z" fill="#fbff00" stroke="#000000" stroke-width="0"/><path d="M233.81246,153.96559c0,-4.41527 0.7441,-12.79125 6.39563,-12.79125c1.7714,0 -2.8887,8.79736 -2.53662,12.76092c0.25966,2.92316 5.43323,4.86682 6.66949,6.12994c2.43547,2.48838 9.9375,-8.11032 9.9375,-6.09961c0,4.41526 -4.58147,7.99453 -10.233,7.99453c-5.65153,0 -10.233,-3.57927 -10.233,-7.99453z" fill="#bcbf00" stroke="none" stroke-width="0"/><path d="M243.79563,141.17432c5.73983,0 10.39289,4.79622 10.39289,10.71267c0,5.91645 -4.65306,10.71267 -10.39289,10.71267c-5.73983,0 -10.39289,-4.79622 -10.39289,-10.71267c0,-5.91645 4.65306,-10.71267 10.39289,-10.71267z" fill="none" stroke="#000000" stroke-width="3.5"/></g></g><g><path d="M261.90549,39.42885c5.2924,-5.37651 9.97394,-16.19026 18.29527,-16.19026c9.73085,0 27.00864,2.7787 29.88146,11.10587c1.85978,5.39075 -9.12022,15.10763 -9.12022,21.1446c0,15.36237 -4.73095,23.3816 -20.76124,23.3816c-16.0303,0 -29.02543,-12.45366 -29.02543,-27.81603c0,-7.38776 5.82722,-6.64492 10.73015,-11.62577z" fill="#3a3a3a" stroke="#000000" stroke-width="0" stroke-linecap="butt"/><path d="M294.94721,47.45187c8.21751,-3.24738 -7.50353,-23.64443 -2.90389,-23.64443c5.17595,0 17.26566,5.44227 18.79776,11.08085c1.83979,6.77094 -7.44552,14.10762 -7.44552,16.42034c0,1.04915 -0.71553,7.12779 -1.00261,10.86924c-0.87274,11.37421 -3.05698,27.50451 -11.62875,27.50451c-11.39136,0 -35.33583,-41.17029 -35.33583,-45.40894c0,-2.52715 27.38506,7.97344 39.51885,3.17844z" fill="#202020" stroke="none" stroke-width="0" stroke-linecap="butt"/><path d="M256.52296,46.80705c0,-2.07321 3.8929,-4.10516 4.67638,-5.65944c0.8517,-1.68963 -1.21561,-2.81477 3.79782,-2.81477c3.40828,0 30.57659,5.04492 35.33417,9.27552c3.49592,3.10868 1.98895,7.40974 1.61595,10.47497c-0.55293,4.54385 2.22308,8.48013 2.22308,10.14907c0,4.32695 -20.59407,-13.59071 -30.21934,-13.59071c-9.62526,0 -17.42807,-3.50769 -17.42807,-7.83464z" fill="#fbff00" stroke="#000000" stroke-width="0" stroke-linecap="butt"/><path d="M264.702,61.70152c0,-3.50348 -12.02981,-19.62305 -3.47207,-22.36293c2.8935,-0.92639 2.66778,18.41834 9.96522,20.59733c5.50445,1.64361 16.31777,3.12941 22.43373,-0.89594c3.50088,-2.30417 3.9576,-10.92917 4.81005,-10.92917c1.34927,0 1.75406,2.37082 2.5507,2.61466c5.19921,1.59138 0.48722,5.69254 0.48722,10.97604c0,6.09306 -8.23233,11.03245 -18.38742,11.03245c-10.15509,0 -18.38742,-4.9394 -18.38742,-11.03245z" fill="#bcbf00" stroke="none" stroke-width="0" stroke-linecap="butt"/><path d="M255.74815,47.63113c0,-2.0732 3.8929,-4.10515 4.67638,-5.65944c0.8517,-1.68963 -1.21561,-2.81477 3.79782,-2.81477c3.40828,0 30.57659,5.04493 35.33417,9.27552c3.49592,3.10868 1.98895,7.40974 1.61595,10.47497c-0.55293,4.54385 2.22308,8.48013 2.22308,10.14907c0,4.32695 -20.59407,-13.59071 -30.21933,-13.59071c-9.62526,0 -17.42808,-3.50769 -17.42808,-7.83464z" fill="none" stroke="#000000" stroke-width="3.5" stroke-linecap="butt"/><path d="M261.77025,39.93316c5.2924,-5.37651 9.97394,-16.19026 18.29527,-16.19026c9.73085,0 27.00864,2.7787 29.88146,11.10587c1.85978,5.39075 -9.12022,15.10763 -9.12022,21.1446c0,15.36237 -4.73095,23.3816 -20.76124,23.3816c-16.0303,0 -29.02543,-12.45366 -29.02543,-27.81603c0,-7.38776 5.82722,-6.64492 10.73015,-11.62577z" fill="none" stroke="#000000" stroke-width="3.5" stroke-linecap="butt"/><path d="M235.59291,79.50496c0,-16.75389 2.99062,-33.35909 20.1598,-33.35909c17.16919,0 48.23282,15.79892 48.23282,32.55282c0,16.75389 -20.13589,31.14186 -37.30507,31.14186c-17.16919,0 -31.08755,-13.5817 -31.08755,-30.3356z" fill="#3a3a3a" stroke="#000000" stroke-width="0" stroke-linecap="butt"/><path d="M247.14074,83.49416c0,-7.26342 -10.42382,-13.70574 -7.0922,-22.48752c0.83183,-2.1926 2.35961,-9.35804 6.09797,-12.54561c4.00716,-3.41677 10.28705,-2.78711 12.70058,-2.78711c1.73284,0 -17.28011,9.19433 -13.13642,15.11173c8.46271,12.08521 42.42367,25.71285 49.0902,25.96134c3.32178,0.12382 8.3675,-10.86783 5.25475,-16.57233c-2.87814,-5.27454 -14.38973,-11.05559 -14.22861,-12.89664c0.17422,-1.99076 15.11639,9.66133 16.93128,11.1107c3.35012,2.67539 0.15165,10.46856 0.15165,13.08979c0,11.02083 -17.31004,21.97064 -30.99336,21.97064c-13.68332,0 -24.77584,-8.93415 -24.77584,-19.95498z" fill="#202020" stroke="none" stroke-width="0" stroke-linecap="butt"/><path d="M267.11213,49.02647c10.45982,0 19.80838,6.672 27.1373,12.99672c4.70107,4.05693 9.79095,5.95424 9.79095,12.50131c0,16.75389 -19.75907,35.17317 -36.92825,35.17317c-17.16919,0 -31.08756,-13.58171 -31.08756,-30.3356c0,-12.63696 3.77349,-28.7099 15.03279,-33.27044c3.6681,-1.48575 11.83579,2.93484 16.05477,2.93484z" fill="none" stroke="#000000" stroke-width="3.5" stroke-linecap="butt"/><path d="M244.88254,61.48076c28.20796,0 51.07502,19.02093 51.07502,42.48442c0,23.46349 -22.86707,40.29772 -51.07502,40.29772c-28.20796,0 -51.07502,-16.83423 -51.07502,-40.29772c0,-23.46349 22.86707,-42.48442 51.07502,-42.48442z" fill="#ffffff" stroke="#000000" stroke-width="0" stroke-linecap="butt"/><path d="M195.65867,111.78949c0,-3.62861 -3.37061,-22.47914 9.20777,-34.9846c9.61032,-9.5546 35.57859,-13.89503 37.55542,-13.89503c1.21841,0 -8.17239,0.87229 -16.96899,5.658c-6.57809,3.57875 -12.37964,10.41208 -15.57825,14.91122c-2.69419,3.78962 -9.3055,13.50925 -9.09108,17.14515c0.4658,7.89866 9.18629,18.70383 9.18629,21.04197c0,6.40099 -1.48278,1.71331 -6.04697,1.71331c-4.56418,0 -8.26418,-5.18902 -8.26418,-11.59001z" fill="#e2e2e2" stroke="none" stroke-width="0" stroke-linecap="butt"/><path d="M243.26674,90.19763c15.81868,0 28.64226,8.24373 28.64226,18.41288c0,10.16915 -12.82358,18.41288 -28.64226,18.41288c-15.81868,0 -28.64226,-8.24373 -28.64226,-18.41288c0,-10.16915 12.82358,-18.41288 28.64226,-18.41288z" fill="#e2e2e2" stroke="none" stroke-width="0" stroke-linecap="butt"/><path d="M244.97092,61.88152c28.20796,0 51.07502,19.02092 51.07502,42.48442c0,23.46349 -22.86707,40.29772 -51.07502,40.29772c-28.20796,0 -51.07502,-16.83422 -51.07502,-40.29772c0,-23.4635 22.86707,-42.48442 51.07502,-42.48442z" fill="none" stroke="#000000" stroke-width="3.5" stroke-linecap="butt"/><path d="M242.61305,123.56938c9.57518,0 42.953,-15.06534 42.953,-6.3452c0,4.24483 -0.41194,12.49584 -9.63465,18.63517c-9.72347,6.47268 -28.40423,10.72982 -33.31835,10.72982c-4.75392,0 -22.63697,-3.88768 -32.20513,-11.54471c-9.7037,-7.76548 -11.06026,-19.33206 -11.06026,-23.72279c0,-8.72015 33.69021,12.2477 43.26539,12.2477z" fill="#000000" stroke="#000000" stroke-width="3.5" stroke-linecap="butt"/><path d="M219.65126,93.94171c6.62363,0 11.99315,6.85854 11.99315,15.31897c0,8.46043 -5.36951,15.31897 -11.99315,15.31897c-6.62363,0 -11.99315,-6.85854 -11.99315,-15.31897c0,-8.46043 5.36951,-15.31897 11.99315,-15.31897z" fill="#000000" stroke="#000000" stroke-width="3.5" stroke-linecap="butt"/><path d="M267.96829,94.89086c6.62363,0 11.99315,6.85854 11.99315,15.31897c0,8.46044 -5.36951,15.31897 -11.99315,15.31897c-6.62363,0 -11.99315,-6.85853 -11.99315,-15.31897c0,-8.46043 5.36951,-15.31897 11.99315,-15.31897z" fill="#000000" stroke="#000000" stroke-width="3.5" stroke-linecap="butt"/><path d="M205.54248,115.26488l-11.83191,-7.99453" fill="none" stroke="#000000" stroke-width="3.5" stroke-linecap="round"/><path d="M283.8889,121.6605l10.233,-9.91322" fill="none" stroke="#000000" stroke-width="3.5" stroke-linecap="round"/></g><g stroke-width="3.5" stroke-linecap="butt"><path d="M165.58857,317.86349c0,-9.80381 14.73083,-17.75137 32.90221,-17.75137c18.17138,0 32.9022,7.94755 32.9022,17.75137c0,4.89014 -0.27307,10.67524 -6.20204,13.88576c-2.96437,1.6052 -7.3345,2.57004 -12.09949,3.13436c-4.8112,0.56979 -10.02496,0.73125 -14.60067,0.73125c-9.75853,0 -25.30876,-0.03076 -31.33418,-3.67147c-5.19453,-3.13867 -1.56803,-9.54101 -1.56803,-14.0799z" fill="#ffffff" stroke="#000000"/><path d="M164.92609,327.26386c0,-1.70453 6.52958,2.3144 19.21602,3.2374c13.60537,0.98985 33.68086,-1.13968 41.58501,-4.13535c3.5426,-1.34265 2.5632,-7.48073 -1.35969,-12.57574c-4.27835,-5.55669 -11.58658,-10.04404 -8.44856,-10.04404c18.42116,0 15.71617,18.27238 15.71617,23.51773c0,5.24535 -14.9333,9.49755 -33.35448,9.49755c-18.42117,0 -33.35448,-4.2522 -33.35448,-9.49755z" fill="#e2e2e2" stroke="none"/><path d="M166.28285,318.33164c0,-9.80381 14.73083,-17.75137 32.90221,-17.75137c18.17139,0 32.90221,7.94756 32.90221,17.75137c0,4.89014 -0.27308,10.67524 -6.20204,13.88576c-5.95747,3.22596 -17.59267,3.8656 -26.70016,3.8656c-9.75853,0 -25.30876,-0.03075 -31.33418,-3.67146c-5.19453,-3.13867 -1.56802,-9.54101 -1.56802,-14.0799z" fill="none" stroke="#000000"/></g><g data-paper-data="{&quot;index&quot;:null}" stroke-width="3.5" stroke-linecap="butt"><path d="M308.69809,317.67894c0,4.53889 3.62649,10.94123 -1.56803,14.0799c-6.02542,3.64071 -21.57565,3.67147 -31.33418,3.67147c-4.57571,0 -9.78947,-0.16146 -14.60067,-0.73125c-4.765,-0.56432 -9.13513,-1.52916 -12.0995,-3.13436c-5.92897,-3.21053 -6.20204,-8.99562 -6.20204,-13.88576c0,-9.80381 14.73082,-17.75136 32.9022,-17.75136c18.17139,0 32.90221,7.94755 32.90221,17.75136z" fill="#ffffff" stroke="#000000"/><path d="M309.36058,327.07932c0,5.24535 -14.9333,9.49754 -33.35447,9.49754c-18.42117,0 -33.35447,-4.25219 -33.35447,-9.49754c0,-5.24535 -2.70499,-23.51773 15.71617,-23.51773c3.13802,0 -4.1702,4.48735 -8.44856,10.04404c-3.92288,5.09501 -4.90229,11.2331 -1.35969,12.57574c7.90415,2.99567 27.97962,5.1252 41.58501,4.13535c12.68644,-0.923 19.21602,-4.94192 19.21602,-3.2374z" fill="#e2e2e2" stroke="none"/><path d="M308.00379,318.14711c0,4.53889 3.62651,10.94123 -1.56802,14.0799c-6.02542,3.64071 -21.57565,3.67146 -31.33418,3.67146c-9.10749,0 -20.74269,-0.63963 -26.70016,-3.8656c-5.92896,-3.21053 -6.20203,-8.99562 -6.20203,-13.88576c0,-9.80381 14.73081,-17.75137 32.90221,-17.75137c18.17139,0 32.90221,7.94755 32.90221,17.75137z" fill="none" stroke="#000000"/></g><g><path d="M151.65599,217.46591c2.61071,-9.78403 11.95502,-15.78693 20.87112,-13.40781c8.91609,2.3791 14.02763,12.23928 11.41692,22.02331c-2.61071,9.78404 -11.95503,15.78693 -20.87113,13.40781c-8.9161,-2.3791 -14.02763,-12.23928 -11.41693,-22.02331z" fill="#ffffff" stroke="#000000" stroke-width="0" stroke-linecap="butt"/><path d="M151.26034,224.50773c1.47378,-5.52325 3.46784,-19.76431 11.35819,-17.6589c1.32378,0.35323 -4.36194,4.2297 -5.22965,10.90326c-0.82307,6.33021 2.15146,13.82076 3.52239,15.41623c5.79832,6.74809 19.91455,-4.75388 18.92256,-1.03624c-1.47379,5.52324 -9.06492,8.29395 -16.95527,6.18853c-7.89035,-2.10541 -13.09201,-8.28965 -11.61823,-13.8129z" fill="#e2e2e2" stroke="none" stroke-width="0" stroke-linecap="butt"/><path d="M172.24609,204.97075c8.9161,2.3791 14.02763,12.23927 11.41692,22.02331c-2.61071,9.78404 -11.95501,15.78692 -20.87111,13.4078c-8.9161,-2.3791 -14.02762,-12.23927 -11.41692,-22.02331c2.61071,-9.78404 11.955,-15.78693 20.8711,-13.40781z" fill="none" stroke="#000000" stroke-width="3.5" stroke-linecap="butt"/><g><path d="M188.00667,244.18277c0.41712,-7.66507 -13.47573,-11.98774 -9.72472,-11.78362c1.75313,0.0954 6.08787,-8.36704 11.19055,-6.47453c5.815,2.1567 12.3399,14.91475 12.11774,18.99735c-0.41709,7.6651 -3.79602,13.71341 -7.54702,13.50929c-3.75103,-0.20411 -6.45366,-6.58334 -6.03656,-14.24845z" fill="#ffffff" stroke="#000000" stroke-width="0" stroke-linecap="butt"/><path d="M189.09692,251.06807c0.06753,-1.24128 0.50917,-6.308 -1.9353,-10.70407c-1.52008,-2.73369 -5.64494,-4.58208 -7.1363,-6.99616c-2.07029,-3.35117 1.94439,-5.27922 2.72241,-5.23686c2.12014,0.11537 16.64543,20.66932 16.47238,23.84952c-0.17305,3.18021 -2.03205,5.66474 -4.15218,5.54937c-2.12012,-0.11538 -5.90482,-2.37083 -5.73176,-5.55104z" fill="#e2e2e2" stroke="none" stroke-width="0" stroke-linecap="butt"/><path d="M187.68205,244.0525c0.41712,-7.66507 -13.47571,-11.98774 -9.7247,-11.78362c1.75312,0.09541 6.08786,-8.36705 11.19054,-6.47454c5.81501,2.15671 12.3399,14.91475 12.11774,18.99736c-0.4171,7.66508 -3.79602,13.7134 -7.54702,13.50929c-3.751,-0.20411 -6.45365,-6.58337 -6.03655,-14.24846z" fill="none" stroke="#000000" stroke-width="3.5" stroke-linecap="butt"/><path d="M198.41929,237.22945l-10.03397,4.78504" fill="none" stroke="#000000" stroke-width="3.5" stroke-linecap="round"/></g><g data-paper-data="{&quot;index&quot;:null}"><path d="M175.05537,247.15154c4.09829,6.4909 4.84564,13.3786 1.66922,15.38415c-3.17639,2.00554 -9.07369,-1.63054 -13.17197,-8.12144c-2.18283,-3.45719 -2.69953,-17.77764 1.32819,-22.49388c3.53435,-4.13851 11.44241,1.14026 12.92698,0.20291c3.1764,-2.00555 -6.85074,8.53737 -2.75246,15.02824z" fill="#ffffff" stroke="#000000" stroke-width="0" stroke-linecap="butt"/><path d="M177.69208,254.60763c1.70036,2.69304 -0.50616,6.50647 -2.3015,7.64004c-1.79535,1.13357 -4.62919,-0.13062 -6.32954,-2.82366c-1.70036,-2.69304 0.97211,-27.71915 2.76747,-28.85273c0.65882,-0.416 5.10417,-0.68794 4.92865,3.24725c-0.12643,2.83478 -2.82832,6.45842 -2.82413,9.58631c0.00672,5.02999 2.86064,9.23972 3.52431,10.29086z" fill="#e2e2e2" stroke="none" stroke-width="0" stroke-linecap="butt"/><path d="M175.27539,246.87964c4.09828,6.49089 4.84563,13.37861 1.66924,15.38416c-3.1764,2.00553 -9.07369,-1.63056 -13.17197,-8.12144c-2.18284,-3.45721 -2.69955,-17.77764 1.32819,-22.4939c3.53435,-4.13852 11.44242,1.14027 12.92698,0.20292c3.1764,-2.00555 -6.85073,8.53736 -2.75244,15.02823z" fill="none" stroke="#000000" stroke-width="3.5" stroke-linecap="butt"/><path d="M162.57451,246.1515l11.09388,-0.70913" fill="none" stroke="#000000" stroke-width="3.5" stroke-linecap="round"/></g><g data-paper-data="{&quot;index&quot;:null}"><path d="M145.33713,241.40285c2.4395,7.2785 1.5297,14.14663 -2.03213,15.34043c-3.56181,1.1938 -8.42685,-3.73881 -10.86634,-11.01731c-1.29933,-3.87669 1.59974,-17.91014 6.6323,-21.5349c4.41609,-3.18073 10.84423,3.8251 12.50894,3.26715c3.56182,-1.19381 -8.68229,6.66612 -6.24278,13.94459z" fill="#ffffff" stroke="#000000" stroke-width="0" stroke-linecap="butt"/><path d="M146.12765,249.27182c1.01214,3.01981 -2.03691,6.20011 -4.05009,6.87487c-2.0132,0.67476 -4.46573,-1.22627 -5.47786,-4.24608c-1.01214,-3.01981 7.52735,-26.69523 9.54056,-27.37c0.73877,-0.24763 5.12152,0.54394 4.01645,4.32485c-0.79605,2.72365 -4.28122,5.60195 -5.01999,8.64134c-1.18805,4.88768 0.58445,9.65475 0.97949,10.83342z" fill="#e2e2e2" stroke="none" stroke-width="0" stroke-linecap="butt"/><path d="M145.61543,241.19098c2.4395,7.27849 1.52969,14.14664 -2.03212,15.34044c-3.56182,1.19379 -8.42684,-3.73883 -10.86634,-11.01731c-1.29934,-3.8767 1.59972,-17.91014 6.63229,-21.53491c4.41609,-3.18074 10.84424,3.82512 12.50894,3.26716c3.56182,-1.1938 -8.68228,6.66612 -6.24277,13.94459z" fill="none" stroke="#000000" stroke-width="3.5" stroke-linecap="butt"/><path d="M133.45085,237.46733l10.9449,1.94585" fill="none" stroke="#000000" stroke-width="3.5" stroke-linecap="round"/></g><g data-paper-data="{&quot;index&quot;:null}"><path d="M159.46188,245.7274c3.58306,6.78893 3.7945,13.71382 0.47224,15.46723c-3.32223,1.75341 -8.92008,-2.32867 -12.50312,-9.11759c-1.90841,-3.61593 -1.31401,-17.93336 3.06703,-22.32336c3.84438,-3.85223 11.31967,2.02338 12.8724,1.20388c3.32224,-1.75342 -7.49162,7.98091 -3.90857,14.7698z" fill="#ffffff" stroke="#000000" stroke-width="0" stroke-linecap="butt"/><path d="M161.51297,253.36537c1.48659,2.81668 -1.00876,6.44769 -2.88653,7.43875c-1.87779,0.99106 -4.60515,-0.4889 -6.09174,-3.30558c-1.48659,-2.81668 3.11686,-27.56051 4.99465,-28.55158c0.68908,-0.3637 5.14213,-0.2904 4.66224,3.61935c-0.34569,2.81646 -3.32021,6.21987 -3.55838,9.33868c-0.38302,5.01539 2.13615,9.43359 2.71638,10.53298z" fill="#e2e2e2" stroke="none" stroke-width="0" stroke-linecap="butt"/><path d="M159.7023,245.47336c3.58305,6.78891 3.79449,13.71384 0.47226,15.46724c-3.32224,1.7534 -8.92008,-2.32868 -12.50312,-9.11759c-1.90842,-3.61594 -1.31403,-17.93336 3.06702,-22.32337c3.84437,-3.85224 11.31967,2.0234 12.87239,1.20389c3.32224,-1.75341 -7.49161,7.9809 -3.90855,14.76979z" fill="none" stroke="#000000" stroke-width="3.5" stroke-linecap="butt"/><path d="M147.09602,243.76335l11.11548,0.15255" fill="none" stroke="#000000" stroke-width="3.5" stroke-linecap="round"/></g></g><g data-paper-data="{&quot;index&quot;:null}"><path d="M328.34402,217.92094c2.6107,9.78403 -2.50083,19.64421 -11.41693,22.02331c-8.91609,2.37912 -18.26042,-3.62377 -20.87113,-13.40781c-2.61071,-9.78403 2.50083,-19.64422 11.41692,-22.02331c8.91609,-2.37912 18.26041,3.62377 20.87112,13.40781z" fill="#ffffff" stroke="#000000" stroke-width="0" stroke-linecap="butt"/><path d="M328.73966,224.96276c1.47379,5.52325 -3.72787,11.70748 -11.61823,13.8129c-7.89035,2.10541 -15.48148,-0.6653 -16.95527,-6.18853c-0.99199,-3.71764 13.12424,7.78432 18.92256,1.03624c1.37092,-1.59547 4.34546,-9.08602 3.52239,-15.41623c-0.86771,-6.67356 -6.55344,-10.55003 -5.22965,-10.90326c7.89035,-2.10541 9.88441,12.13565 11.35819,17.6589z" fill="#e2e2e2" stroke="none" stroke-width="0" stroke-linecap="butt"/><path d="M307.75391,205.42578c8.9161,-2.37912 18.26039,3.62377 20.8711,13.40781c2.61071,9.78403 -2.50082,19.64421 -11.41692,22.02331c-8.9161,2.37912 -18.2604,-3.62376 -20.87111,-13.4078c-2.61071,-9.78403 2.50082,-19.64421 11.41692,-22.02331z" fill="none" stroke="#000000" stroke-width="3.5" stroke-linecap="butt"/><g><path d="M291.99334,244.63784c0.4171,7.6651 -2.28553,14.04434 -6.03656,14.24845c-3.751,0.20411 -7.12993,-5.8442 -7.54702,-13.50929c-0.22216,-4.0826 6.30275,-16.84065 12.11774,-18.99735c5.10268,-1.8925 9.43742,6.56993 11.19055,6.47453c3.75101,-0.20412 -10.14184,4.11855 -9.72472,11.78362z" fill="#ffffff" stroke="#000000" stroke-width="0" stroke-linecap="butt"/><path d="M290.66383,252.43386c0.17306,3.18021 -3.61164,5.43566 -5.73176,5.55104c-2.12014,0.11537 -3.97913,-2.36916 -4.15218,-5.54937c-0.17306,-3.18021 14.35224,-23.73415 16.47238,-23.84952c0.77802,-0.04236 4.7927,1.88569 2.72241,5.23686c-1.49136,2.41408 -5.61622,4.26247 -7.1363,6.99616c-2.44447,4.39607 -2.00283,9.46279 -1.9353,10.70407z" fill="#e2e2e2" stroke="none" stroke-width="0" stroke-linecap="butt"/><path d="M292.31794,244.50757c0.4171,7.66509 -2.28555,14.04435 -6.03655,14.24846c-3.751,0.20411 -7.12992,-5.84421 -7.54702,-13.50929c-0.22216,-4.08261 6.30273,-16.84066 12.11774,-18.99736c5.10268,-1.89251 9.43742,6.56995 11.19054,6.47454c3.75101,-0.20411 -10.14182,4.11855 -9.7247,11.78362z" fill="none" stroke="#000000" stroke-width="3.5" stroke-linecap="butt"/><path d="M281.58071,237.68448l10.03397,4.78504" fill="none" stroke="#000000" stroke-width="3.5" stroke-linecap="round"/></g><g data-paper-data="{&quot;index&quot;:null}"><path d="M304.94465,247.60654c4.09829,-6.49087 -5.92885,-17.03379 -2.75245,-15.02824c1.48457,0.93734 9.39262,-4.34143 12.92698,-0.20291c4.02773,4.71624 3.51103,19.03669 1.3282,22.49388c-4.09828,6.4909 -9.99557,10.12698 -13.17197,8.12144c-3.17642,-2.00554 -2.42907,-8.89325 1.66922,-15.38415z" fill="#ffffff" stroke="#000000" stroke-width="0" stroke-linecap="butt"/><path d="M302.54265,254.15072c0.66366,-1.05114 3.51759,-5.26087 3.52431,-10.29086c0.00419,-3.12789 -2.6977,-6.75154 -2.82412,-9.58631c-0.17552,-3.93518 4.26983,-3.66324 4.92865,-3.24725c1.79536,1.13358 4.46783,26.15969 2.76747,28.85273c-1.70035,2.69304 -4.53419,3.95724 -6.32954,2.82366c-1.79534,-1.13357 -4.00186,-4.94701 -2.3015,-7.64004z" fill="#e2e2e2" stroke="none" stroke-width="0" stroke-linecap="butt"/><path d="M304.72462,247.33464c4.09829,-6.49087 -5.92884,-17.03377 -2.75244,-15.02823c1.48456,0.93735 9.39263,-4.34144 12.92698,-0.20292c4.02774,4.71626 3.51103,19.03669 1.32819,22.4939c-4.09828,6.49088 -9.99557,10.12698 -13.17197,8.12144c-3.17639,-2.00554 -2.42904,-8.89327 1.66924,-15.38416z" fill="none" stroke="#000000" stroke-width="3.5" stroke-linecap="butt"/><path d="M317.42549,246.60653l-11.09388,-0.70913" fill="none" stroke="#000000" stroke-width="3.5" stroke-linecap="round"/></g><g data-paper-data="{&quot;index&quot;:null}"><path d="M334.66288,241.85785c2.43951,-7.27847 -9.8046,-15.1384 -6.24278,-13.94459c1.66471,0.55795 8.09285,-6.44788 12.50894,-3.26715c5.03256,3.62476 7.93163,17.65821 6.6323,21.5349c-2.43949,7.2785 -7.30453,12.21111 -10.86634,11.01731c-3.56184,-1.19379 -4.47164,-8.06193 -2.03213,-15.34043z" fill="#ffffff" stroke="#000000" stroke-width="0" stroke-linecap="butt"/><path d="M333.88379,248.78526c0.39504,-1.17868 2.16754,-5.94574 0.97949,-10.83342c-0.73878,-3.03939 -4.22395,-5.9177 -5.01999,-8.64134c-1.10507,-3.78091 3.27768,-4.57248 4.01645,-4.32485c2.01321,0.67476 10.5527,24.35019 9.54056,27.37c-1.01213,3.01981 -3.46466,4.92085 -5.47786,4.24608c-2.01318,-0.67476 -5.06223,-3.85507 -4.05009,-6.87487z" fill="#e2e2e2" stroke="none" stroke-width="0" stroke-linecap="butt"/><path d="M334.38457,241.64598c2.43951,-7.27847 -9.80459,-15.13839 -6.24277,-13.94459c1.6647,0.55796 8.09285,-6.4479 12.50894,-3.26716c5.03257,3.62477 7.93162,17.65821 6.63229,21.53491c-2.43949,7.27848 -7.30452,12.2111 -10.86634,11.01731c-3.56181,-1.1938 -4.47162,-8.06195 -2.03212,-15.34044z" fill="none" stroke="#000000" stroke-width="3.5" stroke-linecap="butt"/><path d="M346.54914,237.92236l-10.9449,1.94586" fill="none" stroke="#000000" stroke-width="3.5" stroke-linecap="round"/></g><g data-paper-data="{&quot;index&quot;:null}"><path d="M320.53814,246.1824c3.58306,-6.78889 -7.23081,-16.52322 -3.90857,-14.7698c1.55273,0.8195 9.02802,-5.05611 12.8724,-1.20388c4.38103,4.39 4.97544,18.70743 3.06703,22.32336c-3.58304,6.78892 -9.18089,10.87099 -12.50312,9.11759c-3.32226,-1.75341 -3.11081,-8.67831 0.47225,-15.46723z" fill="#ffffff" stroke="#000000" stroke-width="0" stroke-linecap="butt"/><path d="M318.65041,252.89302c0.58023,-1.0994 3.0994,-5.51759 2.71638,-10.53298c-0.23817,-3.11881 -3.2127,-6.52223 -3.55838,-9.33868c-0.47989,-3.90976 3.97316,-3.98306 4.66224,-3.61935c1.87779,0.99107 6.48124,25.73489 4.99465,28.55158c-1.48658,2.81669 -4.21395,4.29665 -6.09173,3.30558c-1.87777,-0.99106 -4.37312,-4.62207 -2.88653,-7.43876z" fill="#e2e2e2" stroke="none" stroke-width="0" stroke-linecap="butt"/><path d="M320.2977,245.92836c3.58306,-6.78889 -7.23079,-16.5232 -3.90855,-14.76979c1.55272,0.81951 9.02802,-5.05613 12.8724,-1.20389c4.38104,4.39001 4.97543,18.70743 3.06702,22.32337c-3.58304,6.78891 -9.18088,10.87099 -12.50312,9.11759c-3.32223,-1.75341 -3.11079,-8.67833 0.47226,-15.46724z" fill="none" stroke="#000000" stroke-width="3.5" stroke-linecap="butt"/><path d="M332.90398,244.21838l-11.11548,0.15255" fill="none" stroke="#000000" stroke-width="3.5" stroke-linecap="round"/></g></g></g></g></svg>