<svg version="1.1" xmlns="http://www.w3.org/2000/svg" xmlns:xlink="http://www.w3.org/1999/xlink" width="175.48829" height="299.98938" viewBox="0,0,175.48829,299.98938"><g transform="translate(-155.28071,-29.68257)"><g data-paper-data="{&quot;isPaintingLayer&quot;:true}" fill-rule="nonzero" stroke-linejoin="miter" stroke-miterlimit="10" stroke-dasharray="" stroke-dashoffset="0" style="mix-blend-mode: normal"><g><g data-paper-data="{&quot;index&quot;:null}" stroke-linecap="butt"><g><g><path d="M288.32602,145.79933l9.69082,41.6809l-16.84181,4.1924l-9.69081,-41.68089z" fill="#252525" stroke="#000000" stroke-width="0"/><path d="M288.32602,145.79933l9.69082,41.6809l-16.84181,4.1924l-9.69081,-41.68089z" fill="#252525" stroke="#000000" stroke-width="0"/><path d="M297.20947,184.50389c0.70438,3.02965 -3.70711,-14.66644 -6.3031,-21.14123c-2.47608,-6.17574 -3.09747,-1.08493 -4.25356,-0.79715c-1.12395,0.27979 -7.78012,-6.64048 -8.64501,2.19373c-0.52519,5.3645 5.19797,29.23279 3.75655,27.51937c-1.18624,-1.41008 -9.76977,-40.64156 -10.09618,-42.04552c-0.38983,-1.67667 0.533,-0.18754 1.66407,-0.6387c2.86208,-1.14162 8.73817,-1.7645 10.43554,-2.18703c1.52194,-0.37885 1.55554,-9.15807 5.59707,3.59452c2.24707,7.09034 7.35286,31.3869 7.84463,33.50202z" fill="#141414" stroke="none" stroke-width="0"/><path d="M288.32602,145.79933l9.69082,41.6809l-16.84181,4.1924l-9.69081,-41.68089z" fill="none" stroke="#000000" stroke-width="3.5"/><path d="M288.32602,145.79933l9.69082,41.6809l-16.84181,4.1924l-9.69081,-41.68089z" fill="none" stroke="#000000" stroke-width="3.5"/></g><g><path d="M296.48298,163.62005l1.9621,8.4391l-24.60568,6.12503l-1.96209,-8.43911z" fill="#252525" stroke="#000000" stroke-width="0"/><path d="M296.48298,163.62005l1.9621,8.4391l-24.60568,6.12503l-1.96209,-8.43911z" fill="#252525" stroke="#000000" stroke-width="0"/><path d="M298.14438,171.49068c0.14262,0.61341 -1.10411,-2.88149 -2.92717,-3.86947c-1.73885,-0.94234 -4.01201,0.62292 -5.70103,1.04337c-1.64208,0.40876 -8.99426,0.50231 -12.6418,3.15535c-2.21493,1.61105 -0.84942,6.39217 -2.38214,6.35414c-1.26137,-0.03129 -2.3595,-8.13372 -2.42559,-8.41799c-0.27864,-1.19849 12.98063,-4.57036 16.44047,-5.43161c2.22356,-0.55349 5.88403,-1.86368 7.98306,0.3995c1.16704,1.25832 1.55465,6.33846 1.65422,6.76673z" fill="#141414" stroke="none" stroke-width="0"/><path d="M296.48298,163.62005l1.9621,8.4391l-24.60568,6.12503l-1.96209,-8.43911z" fill="none" stroke="#000000" stroke-width="3.5"/><path d="M296.48298,163.62005l1.9621,8.4391l-24.60568,6.12503l-1.96209,-8.43911z" fill="none" stroke="#000000" stroke-width="3.5"/></g><g><path d="M294.83405,149.87398l1.96209,8.43911l-27.79949,6.92007l-1.9621,-8.43912z" fill="#252525" stroke="#000000" stroke-width="0"/><path d="M294.83405,149.87398l1.96209,8.43911l-27.79949,6.92007l-1.9621,-8.43912z" fill="#252525" stroke="#000000" stroke-width="0"/><path d="M293.29882,153.94227c-1.92533,-0.89593 -4.52205,0.74989 -6.43031,1.22491c-1.85524,0.46181 -10.11217,0.78057 -14.28295,3.56385c-2.53267,1.69012 -1.13601,6.46353 -2.8557,6.47203c-1.41523,0.00701 -2.41698,-8.11942 -2.48307,-8.40368c-0.27864,-1.19849 14.7037,-4.99929 18.61264,-5.97233c2.51218,-0.62535 6.65917,-2.05666 8.95118,0.15851c1.27434,1.23161 1.56458,6.336 1.66415,6.76425c0.14261,0.6134 -1.15738,-2.86822 -3.17594,-3.80754z" fill="#141414" stroke="none" stroke-width="0"/><path d="M294.83405,149.87398l1.96209,8.43911l-27.79949,6.92007l-1.9621,-8.43912z" fill="none" stroke="#000000" stroke-width="3.5"/><path d="M294.83405,149.87398l1.96209,8.43911l-27.79949,6.92007l-1.9621,-8.43912z" fill="none" stroke="#000000" stroke-width="3.5"/></g></g><g><path d="M301.88311,179.51014l2.25352,9.69258l-28.71201,7.14722l-2.25352,-9.69259z" fill="#252525" stroke="#000000" stroke-width="0"/><path d="M301.88311,179.51014l2.25352,9.69258l-28.71201,7.14722l-2.25352,-9.69259z" fill="#252525" stroke="#000000" stroke-width="0"/><path d="M300.39124,184.11509c-2.0235,-1.07575 -4.68004,0.73339 -6.65093,1.22401c-1.91612,0.47698 -10.48827,0.61626 -14.75158,3.68178c-2.58885,1.8615 -1.01612,7.35171 -2.80294,7.31461c-1.47048,-0.03052 -2.71808,-9.33982 -2.79399,-9.66631c-0.32005,-1.3765 15.15231,-5.30987 19.18954,-6.31484c2.59463,-0.64587 6.8676,-2.16779 9.30569,0.42477c1.35556,1.44144 1.78696,7.27959 1.90132,7.77144c0.1638,0.70452 -1.27564,-3.30761 -3.39712,-4.43546z" fill="#141414" stroke="none" stroke-width="0"/><path d="M301.88311,179.51014l2.25352,9.69258l-28.71201,7.14722l-2.25352,-9.69259z" fill="none" stroke="#000000" stroke-width="3.5"/><path d="M301.88311,179.51014l2.25352,9.69258l-28.71201,7.14722l-2.25352,-9.69259z" fill="none" stroke="#000000" stroke-width="3.5"/></g></g><g data-paper-data="{&quot;index&quot;:null}" stroke-linecap="butt"><g><g><path d="M272.50291,154.59409l-23.216,-41.09992l14.73836,-10.08879l23.216,41.09993z" fill="#252525" stroke="#000000" stroke-width="0"/><path d="M272.50291,154.59409l-23.216,-41.09992l14.73836,-10.08879l23.216,41.09993z" fill="#252525" stroke="#000000" stroke-width="0"/><path d="M265.60276,106.4323c1.1781,2.08564 15.08927,25.60996 18.62185,33.07928c6.35365,13.43424 0.01932,6.43364 -1.31255,7.34535c-1.48539,1.01678 -6.02387,5.20899 -8.83699,6.57995c-1.11171,0.54178 -0.68371,2.47045 -1.61761,0.81716c-0.782,-1.38439 -23.00808,-39.63974 -23.19591,-41.71541c-0.22824,-2.52219 12.94528,21.15215 17.16718,25.02696c6.95258,6.381 6.61172,-4.47195 7.59531,-5.14524c1.0117,-0.69254 5.10383,2.88641 2.38814,-4.03366c-2.84719,-7.25516 -12.49693,-24.94181 -10.80943,-21.9544z" fill="#141414" stroke="none" stroke-width="0"/><path d="M272.50291,154.59409l-23.216,-41.09992l14.73836,-10.08879l23.216,41.09993z" fill="none" stroke="#000000" stroke-width="3.5"/><path d="M272.50291,154.59409l-23.216,-41.09992l14.73836,-10.08879l23.216,41.09993z" fill="none" stroke="#000000" stroke-width="3.5"/></g><g><path d="M258.57683,138.46854l-4.70053,-8.32147l21.53257,-14.73962l4.70053,8.32149z" fill="#252525" stroke="#000000" stroke-width="0"/><path d="M258.57683,138.46854l-4.70053,-8.32147l21.53257,-14.73962l4.70053,8.32149z" fill="#252525" stroke="#000000" stroke-width="0"/><path d="M275.60817,116.10253c0.23853,0.42229 3.62059,4.79815 3.71267,6.73702c0.16563,3.48723 -3.3245,5.36058 -5.27033,6.69258c-3.02772,2.07255 -14.68223,9.95824 -15.34978,8.77646c-0.15833,-0.2803 -5.21829,-7.64259 -4.36268,-8.67458c1.03969,-1.25399 3.52599,3.66316 6.22604,3.18459c4.44643,-0.78815 9.63199,-6.58243 11.069,-7.5661c1.47808,-1.01178 4.18576,-1.57349 4.71887,-3.7159c0.55893,-2.24615 -1.08546,-6.03895 -0.74379,-5.43407z" fill="#141414" stroke="none" stroke-width="0"/><path d="M258.57683,138.46854l-4.70053,-8.32147l21.53257,-14.73962l4.70053,8.32149z" fill="none" stroke="#000000" stroke-width="3.5"/><path d="M258.57683,138.46854l-4.70053,-8.32147l21.53257,-14.73962l4.70053,8.32149z" fill="none" stroke="#000000" stroke-width="3.5"/></g><g><path d="M264.51535,152.70122l-4.70054,-8.32149l24.3275,-16.65281l4.70054,8.32149z" fill="#252525" stroke="#000000" stroke-width="0"/><path d="M264.51535,152.70122l-4.70054,-8.32149l24.3275,-16.65281l4.70054,8.32149z" fill="#252525" stroke="#000000" stroke-width="0"/><path d="M284.32351,128.43439c0.23853,0.42229 3.70579,4.73983 3.70398,6.74297c-0.00325,3.60284 -3.91913,5.76763 -6.11755,7.27251c-3.42073,2.34158 -16.5831,11.25944 -17.25066,10.07766c-0.15833,-0.2803 -5.30266,-7.58485 -4.31238,-8.70901c1.20331,-1.366 3.66237,3.56985 6.64047,2.90092c4.90431,-1.10159 10.88163,-7.43785 12.50516,-8.5492c1.66993,-1.14311 4.66077,-1.89865 5.35708,-4.15277c0.73002,-2.36328 -0.86776,-6.18795 -0.52609,-5.58309z" fill="#141414" stroke="none" stroke-width="0"/><path d="M264.51535,152.70122l-4.70054,-8.32149l24.3275,-16.65281l4.70054,8.32149z" fill="none" stroke="#000000" stroke-width="3.5"/><path d="M264.51535,152.70122l-4.70054,-8.32149l24.3275,-16.65281l4.70054,8.32149z" fill="none" stroke="#000000" stroke-width="3.5"/></g></g><g><path d="M247.32009,123.89811l-5.39871,-9.55749l25.12605,-17.19943l5.39871,9.55749z" fill="#252525" stroke="#000000" stroke-width="0"/><path d="M247.32009,123.89811l-5.39871,-9.55749l25.12605,-17.19943l5.39871,9.55749z" fill="#252525" stroke="#000000" stroke-width="0"/><path d="M267.27378,97.94127c0.27396,0.485 4.1704,5.5026 4.2629,7.73854c0.16635,4.02154 -3.90236,6.21436 -6.17295,7.76864c-3.53301,2.41843 -17.1318,11.62135 -17.89851,10.26403c-0.18185,-0.32194 -6.00532,-8.7696 -5.00356,-9.9679c1.21725,-1.45609 4.06901,4.19409 7.20942,3.6175c5.17162,-0.94954 11.23935,-7.68109 12.91616,-8.82891c1.72476,-1.18064 4.87465,-1.85317 5.51003,-4.3296c0.66614,-2.59635 -1.2159,-6.95699 -0.8235,-6.26228z" fill="#141414" stroke="none" stroke-width="0"/><path d="M247.32009,123.89811l-5.39871,-9.55749l25.12605,-17.19943l5.39871,9.55749z" fill="none" stroke="#000000" stroke-width="3.5"/><path d="M247.32009,123.89811l-5.39871,-9.55749l25.12605,-17.19943l5.39871,9.55749z" fill="none" stroke="#000000" stroke-width="3.5"/></g></g><g data-paper-data="{&quot;index&quot;:null}"><g stroke-linecap="butt"><path d="M274.68716,234.12744l4.16274,-23.34849l10.03405,0.37248l-4.16275,23.34848z" fill="#252525" stroke="#000000" stroke-width="0"/><path d="M274.68716,234.12744l4.16274,-23.34849l10.03405,0.37248l-4.16275,23.34848z" fill="#252525" stroke="#000000" stroke-width="0"/><path d="M274.68716,234.12744l4.16274,-23.34849l10.03405,0.37248l-4.16275,23.34848z" fill="none" stroke="#000000" stroke-width="3.5"/><path d="M288.51901,212.83147c-0.21124,1.18485 -2.31912,14.73485 -3.37841,18.77305c-1.90522,7.26303 -1.45237,2.43989 -2.35914,2.40623c-1.41089,-0.05235 -8.58638,3.28317 -7.99521,-0.03269c0.14022,-0.78646 3.74282,-22.7032 4.38725,-23.5883c0.78307,-1.07551 -1.70266,12.31417 -1.19855,15.12261c0.39819,2.21845 3.51617,2.43578 5.45922,-0.16944c2.10779,-2.8261 3.0483,-8.5943 3.39675,-8.58136c0.68877,0.02556 -2.46457,11.64142 -1.2375,8.06655c1.28649,-3.74798 3.22817,-13.69376 2.92559,-11.99665z" fill="#141414" stroke="none" stroke-width="0"/><path d="M274.68716,234.12744l4.16274,-23.34849l10.03405,0.37248l-4.16275,23.34848z" fill="none" stroke="#000000" stroke-width="3.5"/></g><path d="M285.95946,222.81979l-8.22522,-0.68089" fill="none" stroke="#000000" stroke-width="3.5" stroke-linecap="round"/></g><g stroke-linecap="butt"><path d="M288.41595,222.29747l-8.94024,-23.66816l26.51826,-10.01681l8.94024,23.66816z" fill="#252525" stroke="#000000" stroke-width="0"/><path d="M286.53743,219.92793c-1.30547,-3.45609 -10.56946,-19.8668 -3.17821,-22.65871c1.88124,-0.7106 3.11688,18.04834 6.22914,18.5387c2.88156,0.45401 10.42061,-0.27528 15.40451,-5.32849c0.86513,-0.87716 2.31214,-4.14912 1.84958,-8.93365c-0.44809,-4.63494 -2.80007,-10.77784 -2.38179,-12.138c0.49467,-1.60859 4.98792,10.00661 5.54858,9.56238c0.9104,-0.72132 1.10251,1.88415 1.30019,2.23121c0.58108,1.02018 -0.87326,2.78733 -0.37712,3.45192c0.18329,0.24553 2.48084,5.07963 2.58872,5.36523c1.30548,3.4561 -6.06767,6.1859 -13.45892,8.97781c-7.39125,2.79191 -12.21921,4.38768 -13.52469,0.93158z" fill="#141414" stroke="none" stroke-width="0"/><path d="M288.25453,222.22456l-8.94024,-23.66816l26.51825,-10.0168l8.94024,23.66816z" fill="none" stroke="#000000" stroke-width="3.5"/></g><g><g stroke-linecap="butt"><path d="M291.30167,241.7694l-4.44893,-23.29566l10.02871,-0.49557l4.44892,23.29566z" fill="#252525" stroke="#000000" stroke-width="0"/><path d="M291.30167,241.7694l-4.44893,-23.29566l10.02871,-0.49557l4.44892,23.29566z" fill="#252525" stroke="#000000" stroke-width="0"/><path d="M291.30167,241.7694l-4.44893,-23.29566l10.02871,-0.49557l4.44892,23.29566z" fill="none" stroke="#000000" stroke-width="3.5"/><path d="M290.31083,232.10903c1.27085,3.55955 -2.0248,-8.01675 -1.33639,-8.05075c0.34824,-0.0172 1.35947,5.73901 3.50177,8.53903c1.97487,2.58117 5.08995,2.3256 5.46089,0.10244c0.46962,-2.81442 -2.18023,-16.17257 -1.38402,-15.10675c0.65525,0.87713 4.52651,22.74801 4.67637,23.53268c0.63183,3.30836 -6.58404,0.06113 -7.9942,0.13079c-0.90627,0.04477 -0.39429,4.86201 -2.38849,-2.37711c-1.10876,-4.0249 -3.38274,-17.54801 -3.60851,-18.73017c-0.32338,-1.69327 1.74019,8.22793 3.07258,11.95983z" fill="#141414" stroke="none" stroke-width="0"/><path d="M291.30167,241.7694l-4.44893,-23.29566l10.02871,-0.49557l4.44892,23.29566z" fill="none" stroke="#000000" stroke-width="3.5"/></g><path d="M289.92017,230.10535l8.21625,-0.78175" fill="none" stroke="#000000" stroke-width="3.5" stroke-linecap="round"/></g><g><g stroke-linecap="butt"><path d="M306.4297,239.37878l-9.27802,-21.82656l9.69671,-2.60663l9.27802,21.82656z" fill="#252525" stroke="#000000" stroke-width="0"/><path d="M306.4297,239.37878l-9.27802,-21.82656l9.69671,-2.60663l9.27802,21.82656z" fill="#252525" stroke="#000000" stroke-width="0"/><path d="M306.4297,239.37878l-9.27802,-21.82656l9.69671,-2.60663l9.27802,21.82656z" fill="none" stroke="#000000" stroke-width="3.5"/><path d="M303.41697,230.14688c1.99533,3.20999 -3.67547,-7.40669 -3.00984,-7.58561c0.33671,-0.09052 2.54319,5.32134 5.22951,7.60458c2.47637,2.1048 5.46681,1.1958 5.35888,-1.05551c-0.13662,-2.85006 -5.55331,-15.3449 -4.54958,-14.47173c0.82602,0.7186 9.23795,21.27489 9.55046,22.0101c1.31763,3.09973 -6.42199,1.45307 -7.78547,1.81958c-0.87628,0.23554 0.64355,4.83532 -2.83743,-1.81781c-1.9354,-3.6991 -7.01966,-16.43472 -7.49049,-17.54233c-0.67438,-1.58649 3.44199,7.67332 5.53394,11.03875z" fill="#141414" stroke="none" stroke-width="0"/><path d="M306.4297,239.37878l-9.27802,-21.82656l9.69671,-2.60663l9.27802,21.82656z" fill="none" stroke="#000000" stroke-width="3.5"/></g><path d="M302.61113,228.27125l7.86473,-2.50278" fill="none" stroke="#000000" stroke-width="3.5" stroke-linecap="round"/></g><g data-paper-data="{&quot;index&quot;:null}"><g stroke-linecap="butt"><path d="M320.61083,233.98319l-11.97372,-20.47219l7.87931,-6.22391l11.97373,20.47219z" fill="#252525" stroke="#000000" stroke-width="0"/><path d="M320.61083,233.98319l-11.97372,-20.47219l7.87931,-6.22391l11.97373,20.47219z" fill="#252525" stroke="#000000" stroke-width="0"/><path d="M320.61083,233.98319l-11.97372,-20.47219l7.87931,-6.22391l11.97373,20.47219z" fill="none" stroke="#000000" stroke-width="3.5"/><path d="M317.32822,208.80259c0.60762,1.03888 7.7908,12.71995 9.60341,16.48075c3.26012,6.76411 0.47683,2.79912 -0.23521,3.36158c-1.10791,0.87516 -4.40655,8.06769 -6.10701,5.16029c-0.40332,-0.68958 -11.87487,-19.70866 -11.95836,-20.80032c-0.10144,-1.3265 6.69014,10.47758 8.89523,12.28838c1.74184,1.4304 4.25615,-0.42629 4.04559,-3.66948c-0.22841,-3.51816 -3.25339,-8.51878 -2.97979,-8.7349c0.54086,-0.42724 5.67388,10.45963 4.28948,6.94269c-1.45143,-3.68723 -6.42367,-12.51704 -5.55334,-11.029z" fill="#141414" stroke="none" stroke-width="0"/><path d="M320.61083,233.98319l-11.97372,-20.47219l7.87931,-6.22391l11.97373,20.47219z" fill="none" stroke="#000000" stroke-width="3.5"/></g><path d="M321.8577,218.06549l-6.70248,4.81608" fill="none" stroke="#000000" stroke-width="3.5" stroke-linecap="round"/></g></g><g><g><g data-paper-data="{&quot;index&quot;:null}" stroke-linecap="butt"><g><g><path d="M254.79189,308.95002l-6.40718,-46.76681l17.42142,-3.93666l6.40718,46.76682z" fill="#252525" stroke="#000000" stroke-width="0"/><path d="M254.79189,308.95002l-6.40718,-46.76681l17.42142,-3.93666l6.40718,46.76682z" fill="#252525" stroke="#000000" stroke-width="0"/><path d="M266.15503,261.64198c0.32513,2.3732 4.57146,29.37104 5.09776,37.61682c0.94659,14.83076 -2.35665,5.98651 -3.93098,6.34226c-1.75579,0.39675 -7.52114,2.61784 -10.64164,2.85371c-1.23318,0.09321 -1.54726,2.04368 -1.805,0.16242c-0.21582,-1.57527 -6.75288,-45.33298 -6.16134,-47.33143c0.7188,-2.42835 4.22419,24.43665 6.71783,29.59614c4.10652,8.49659 7.79545,-1.71587 8.95809,-1.97859c1.19588,-0.27023 3.67811,4.56638 3.7083,-2.86741c0.03166,-7.79377 -2.40876,-27.79325 -1.94304,-24.39393z" fill="#141414" stroke="none" stroke-width="0"/><path d="M254.79189,308.95002l-6.40718,-46.76681l17.42142,-3.93666l6.40718,46.76682z" fill="none" stroke="#000000" stroke-width="3.5"/><path d="M254.79189,308.95002l-6.40718,-46.76681l17.42142,-3.93666l6.40718,46.76682z" fill="none" stroke="#000000" stroke-width="3.5"/></g><g><path d="M247.80089,288.82304l-1.29726,-9.46884l25.45249,-5.75142l1.29725,9.46886z" fill="#252525" stroke="#000000" stroke-width="0"/><path d="M247.80089,288.82304l-1.29726,-9.46884l25.45249,-5.75142l1.29725,9.46886z" fill="#252525" stroke="#000000" stroke-width="0"/><path d="M271.88479,274.32234c0.06583,0.48051 1.594,5.79569 0.96396,7.63165c-1.13317,3.30214 -5.06831,3.75505 -7.36838,4.27481c-3.57891,0.80871 -17.32106,3.83605 -17.5053,2.49132c-0.0437,-0.31895 -2.02903,-9.029 -0.85294,-9.67232c1.42912,-0.78172 1.92499,4.70594 4.61104,5.25772c4.42338,0.90864 11.38143,-2.56259 13.08003,-2.94642c1.74716,-0.3948 4.47097,0.08254 5.75719,-1.71184c1.3485,-1.88126 1.2201,-6.01319 1.31439,-5.32492z" fill="#141414" stroke="none" stroke-width="0"/><path d="M247.80089,288.82304l-1.29726,-9.46884l25.45249,-5.75142l1.29725,9.46886z" fill="none" stroke="#000000" stroke-width="3.5"/><path d="M247.80089,288.82304l-1.29726,-9.46884l25.45249,-5.75142l1.29725,9.46886z" fill="none" stroke="#000000" stroke-width="3.5"/></g><g><path d="M248.06695,304.24266l-1.29726,-9.46886l28.75621,-6.49795l1.29726,9.46886z" fill="#252525" stroke="#000000" stroke-width="0"/><path d="M248.06695,304.24266l-1.29726,-9.46886l28.75621,-6.49795l1.29726,9.46886z" fill="#252525" stroke="#000000" stroke-width="0"/><path d="M275.4332,289.00023c0.06583,0.48051 1.6947,5.77294 0.95368,7.63398c-1.33279,3.34725 -5.77119,3.91388 -8.36982,4.50108c-4.04346,0.91369 -19.56798,4.34377 -19.75222,2.99905c-0.0437,-0.31895 -2.12876,-9.00647 -0.79348,-9.68575c1.62253,-0.82542 2.08619,4.66953 5.10091,5.14703c4.96461,0.78632 12.85856,-2.89637 14.77764,-3.33002c1.97393,-0.44605 5.03246,-0.04434 6.51158,-1.88231c1.55074,-1.92698 1.47743,-6.07133 1.57172,-5.38306z" fill="#141414" stroke="none" stroke-width="0"/><path d="M248.06695,304.24266l-1.29726,-9.46886l28.75621,-6.49795l1.29726,9.46886z" fill="none" stroke="#000000" stroke-width="3.5"/><path d="M248.06695,304.24266l-1.29726,-9.46886l28.75621,-6.49795l1.29726,9.46886z" fill="none" stroke="#000000" stroke-width="3.5"/></g></g><g><path d="M242.71676,271.12664l-1.48994,-10.87529l29.70013,-6.71123l1.48994,10.87528z" fill="#252525" stroke="#000000" stroke-width="0"/><path d="M242.71676,271.12664l-1.48994,-10.87529l29.70013,-6.71123l1.48994,10.87528z" fill="#252525" stroke="#000000" stroke-width="0"/><path d="M270.84202,254.36724c0.0756,0.55187 1.84499,6.65333 1.10568,8.76554c-1.32972,3.79899 -5.9205,4.33526 -8.60444,4.94175c-4.17618,0.94367 -20.21151,4.47761 -20.42311,2.93314c-0.05018,-0.36633 -2.34452,-10.36692 -0.97122,-11.11086c1.66873,-0.904 2.2337,5.39979 5.3652,6.02301c5.15693,1.0263 13.2808,-2.99041 15.26286,-3.43829c2.03874,-0.46069 5.21446,0.07686 6.719,-1.99021c1.57739,-2.16716 1.43771,-6.91456 1.546,-6.12407z" fill="#141414" stroke="none" stroke-width="0"/><path d="M242.71676,271.12664l-1.48994,-10.87529l29.70013,-6.71123l1.48994,10.87528z" fill="none" stroke="#000000" stroke-width="3.5"/><path d="M242.71676,271.12664l-1.48994,-10.87529l29.70013,-6.71123l1.48994,10.87528z" fill="none" stroke="#000000" stroke-width="3.5"/></g></g><path d="M281.46305,283.09839c4.46542,34.27387 -20.47767,-26.35422 -28.8585,-25.26231c-0.56648,0.0738 5.5743,24.17544 4.82767,24.2904c-5.01668,0.77247 -12.2569,32.34543 -16.03986,22.12473c-3.98361,-10.76281 -1.86539,-35.41237 -4.00097,-51.80378c-4.46542,-34.27386 -1.29135,-62.94348 7.08948,-64.03539c4.40218,-0.57354 12.87841,-21.84542 20.8404,-0.89568c3.10084,8.159 -0.26235,29.49505 2.35412,46.19958c3.45545,22.06088 12.58126,40.12289 13.78766,49.38245z" data-paper-data="{&quot;index&quot;:null}" fill="#001354" stroke="#000000" stroke-width="0" stroke-linecap="butt"/><path d="M235.94936,214.91902c0,-9.23876 5.60275,57.34104 10.17836,71.44888c2.23412,6.88837 3.17964,-34.21896 5.12474,-34.21896c0.6284,0 15.55547,10.54256 21.58519,19.71732c4.2489,6.46508 0.17017,9.29278 0.61352,4.81885c0.32321,-3.26161 -5.2971,-53.35167 -16.63214,-69.66048c-6.85355,-9.86086 -21.30265,12.62484 -22.10097,8.30123c-4.33415,-23.47334 24.38223,-17.22216 26.90715,-14.89909c3.33959,3.07261 4.82081,23.81254 8.56123,40.35083c5.01233,22.16205 11.90061,41.50452 11.90061,45.86041c0,1.69962 -0.75879,7.93337 -3.40691,4.35565c-6.77912,-9.15889 -21.72645,-35.93136 -25.97373,-34.32491c-3.23957,1.22531 3.30158,10.87765 2.50048,20.75787c-0.02062,0.25425 1.08579,1.63871 1.05691,1.89115c-0.50349,4.40177 -4.17826,7.71779 -5.88639,11.22737c-3.21859,6.613 -5.22401,11.85277 -6.4339,11.85277c-5.92878,0 -7.99416,-73.72916 -7.99416,-87.47889z" fill="#000c33" stroke="none" stroke-width="0" stroke-linecap="butt"/><path d="M281.48795,282.66647c4.46542,34.27387 -20.47767,-26.35422 -28.8585,-25.26231c-0.56648,0.0738 5.57429,24.17544 4.82766,24.2904c-5.01668,0.77247 -12.25689,32.34543 -16.03985,22.12473c-3.98361,-10.76281 -1.86539,-35.41237 -4.00097,-51.80378c-4.46542,-34.27386 -1.29135,-62.94348 7.08948,-64.03539c4.40218,-0.57354 12.87841,-21.84541 20.8404,-0.89567c3.10084,8.159 -0.26235,29.49505 2.35412,46.19958c3.45545,22.06088 12.58127,40.12288 13.78766,49.38245z" data-paper-data="{&quot;index&quot;:null}" fill="none" stroke="#000000" stroke-width="3.5" stroke-linecap="butt"/><path d="M268.2321,235.93257l-32,16" fill="none" stroke="#000000" stroke-width="3.5" stroke-linecap="round"/></g><g stroke-linecap="butt"><path d="M239.89241,313.2553c0,-9.57293 15.00343,-17.33333 33.51109,-17.33333c8.76699,0 17.82869,-4.592 23.80081,-1.74153c6.63539,3.16703 9.71028,14.03659 9.71028,19.07486c0,4.01638 9.93836,10.2443 0.86668,12.63837c-12.55042,3.31213 -46.33616,2.02829 -57.07883,2.02829c-18.50766,0 -10.81003,-5.09374 -10.81003,-14.66667z" fill="#51341e" stroke="#000000" stroke-width="0"/><path d="M298.83513,320.77765c12.51038,-5.73047 -12.16793,-26.98902 -3.45124,-26.98902c10.26399,0 9.47393,10.2209 11.0047,17.89293c1.0217,5.12064 5.71481,7.88586 5.71481,10.20707c0,5.79899 -26.62997,7.7 -43.74458,7.7c-10.71308,0 -21.02126,-0.44198 -26.58682,-3.24224c-3.32567,-1.67327 -4.40193,-5.08871 -4.40193,-7.25776c0,-2.84549 49.41218,7.20993 61.46506,1.68902z" fill="#2f1c0d" stroke="none" stroke-width="0"/><path d="M273.76384,295.92196c8.767,0 17.8287,-4.592 23.80082,-1.74153c6.63538,3.16704 9.71027,14.03658 9.71027,19.07486c0,4.01639 9.93836,10.24431 0.86668,12.63838c-12.55042,3.31213 -46.33617,2.02829 -57.07883,2.02829c-18.50766,0 -10.81003,-5.09373 -10.81003,-14.66667c0,-9.57293 15.00343,-17.33333 33.51109,-17.33333z" fill="none" stroke="#000000" stroke-width="3.5"/></g></g><g stroke-linecap="butt"><g data-paper-data="{&quot;index&quot;:null}"><g><g><path d="M210.41521,256.70519l6.64634,-59.2575l17.40105,5.10458l-6.64634,59.25749z" fill="#252525" stroke="#000000" stroke-width="0"/><path d="M210.41521,256.70519l6.64634,-59.2575l17.40105,5.10458l-6.64634,59.25749z" fill="#252525" stroke="#000000" stroke-width="0"/><path d="M216.69529,201.75072c0.4831,-4.30722 -2.05959,21.03575 -2.06781,30.91824c-0.00784,9.42605 2.49911,3.30945 3.69359,3.65986c1.16129,0.34065 4.79792,13.31372 8.94785,2.5669c2.52,-6.52592 6.16278,-40.56727 6.86914,-37.48353c0.58132,2.53782 -6.17951,57.97901 -6.40338,59.97501c-0.26736,2.38371 -0.57145,-0.09147 -1.80414,-0.21765c-3.11925,-0.31931 -8.87316,-3.173 -10.6269,-3.68745c-1.57249,-0.46129 -4.92092,10.73155 -3.89848,-8.06732c0.56846,-10.45201 4.95285,-44.657 5.29012,-47.66405z" fill="#141414" stroke="none" stroke-width="0"/><path d="M210.41521,256.70519l6.64634,-59.2575l17.40105,5.10458l-6.64634,59.25749z" fill="none" stroke="#000000" stroke-width="3.5"/><path d="M210.41521,256.70519l6.64634,-59.2575l17.40105,5.10458l-6.64634,59.25749z" fill="none" stroke="#000000" stroke-width="3.5"/></g><g><path d="M209.48741,228.87692l1.34567,-11.99784l25.42273,7.45775l-1.34568,11.99782z" fill="#252525" stroke="#000000" stroke-width="0"/><path d="M209.48741,228.87692l1.34567,-11.99784l25.42273,7.45775l-1.34568,11.99782z" fill="#252525" stroke="#000000" stroke-width="0"/><path d="M210.90072,217.79193c0.09781,-0.8721 -0.05172,4.36624 1.28714,6.76038c1.27703,2.28356 4.00325,1.69598 5.74836,2.20791c1.69662,0.4977 8.63682,4.94425 13.06478,3.82081c2.68884,-0.68222 3.21277,-7.63719 4.63788,-6.63673c1.17279,0.82335 -0.85708,11.85457 -0.9024,12.25871c-0.19111,1.70388 -13.9176,-2.22384 -17.49232,-3.27248c-2.29739,-0.67396 -6.23015,-1.27376 -7.34642,-5.46813c-0.62064,-2.33204 0.9347,-9.06164 1.00299,-9.67049z" fill="#141414" stroke="none" stroke-width="0"/><path d="M209.48741,228.87692l1.34567,-11.99784l25.42273,7.45775l-1.34568,11.99782z" fill="none" stroke="#000000" stroke-width="3.5"/><path d="M209.48741,228.87692l1.34567,-11.99784l25.42273,7.45775l-1.34568,11.99782z" fill="none" stroke="#000000" stroke-width="3.5"/></g><g><path d="M205.84259,247.45882l1.34568,-11.99785l28.7226,8.42575l-1.34568,11.99785z" fill="#252525" stroke="#000000" stroke-width="0"/><path d="M205.84259,247.45882l1.34568,-11.99785l28.7226,8.42575l-1.34568,11.99785z" fill="#252525" stroke="#000000" stroke-width="0"/><path d="M207.27727,236.38007c0.09781,-0.87208 0.0033,4.38236 1.54416,6.83577c1.4697,2.34008 4.53024,1.85057 6.50187,2.42895c1.91684,0.56231 9.79184,5.28308 14.76041,4.31824c3.01713,-0.58589 3.50889,-7.55035 5.12717,-6.49321c1.33179,0.86998 -0.79769,11.872 -0.84302,12.27613c-0.19111,1.70388 -15.69788,-2.74607 -19.73662,-3.93084c-2.5956,-0.76142 -7.03103,-1.50868 -8.34669,-5.76155c-0.7315,-2.36455 0.92444,-9.06465 0.99272,-9.67349z" fill="#141414" stroke="none" stroke-width="0"/><path d="M205.84259,247.45882l1.34568,-11.99785l28.7226,8.42575l-1.34568,11.99785z" fill="none" stroke="#000000" stroke-width="3.5"/><path d="M205.84259,247.45882l1.34568,-11.99785l28.7226,8.42575l-1.34568,11.99785z" fill="none" stroke="#000000" stroke-width="3.5"/></g></g><g><path d="M210.41931,205.22673l1.54555,-13.7799l29.66542,8.70231l-1.54555,13.7799z" fill="#252525" stroke="#000000" stroke-width="0"/><path d="M210.41931,205.22673l1.54555,-13.7799l29.66542,8.70231l-1.54555,13.7799z" fill="#252525" stroke="#000000" stroke-width="0"/><path d="M212.04557,192.49616c0.11233,-1.00161 -0.05163,5.01705 1.51465,7.77518c1.49395,2.63075 4.67238,1.96975 6.70873,2.56711c1.97974,0.58076 10.08296,5.72654 15.24507,4.45866c3.13464,-0.76991 3.73186,-8.75929 5.39594,-7.60221c1.36948,0.95222 -0.97599,13.61781 -1.02804,14.08198c-0.2195,1.95698 -16.23655,-2.62798 -20.40784,-3.85161c-2.6808,-0.78642 -7.26878,-1.49617 -8.57904,-6.32181c-0.72849,-2.68301 1.07208,-10.40803 1.15051,-11.1073z" fill="#141414" stroke="none" stroke-width="0"/><path d="M210.41931,205.22673l1.54555,-13.7799l29.66542,8.70231l-1.54555,13.7799z" fill="none" stroke="#000000" stroke-width="3.5"/><path d="M210.41931,205.22673l1.54555,-13.7799l29.66542,8.70231l-1.54555,13.7799z" fill="none" stroke="#000000" stroke-width="3.5"/></g></g><g data-paper-data="{&quot;index&quot;:null}"><g><g><path d="M228.23659,256.95731l-1.12857,47.70256l-17.34053,-0.81077l1.12858,-47.70258z" fill="#252525" stroke="#000000" stroke-width="0"/><path d="M228.23659,256.95731l-1.12857,47.70256l-17.34053,-0.81077l1.12858,-47.70258z" fill="#252525" stroke="#000000" stroke-width="0"/><path d="M209.96109,300.41697c0.05727,-2.42069 0.18303,-30.10585 0.9614,-38.35449c1.39995,-14.8359 3.19479,-5.25266 4.7618,-5.1794c1.74763,0.08171 7.62918,-0.55288 10.66214,0.05374c1.1986,0.23974 1.8038,-1.59357 1.75839,0.32533c-0.03801,1.60679 -0.57341,46.38573 -1.45252,48.19163c-1.06822,2.19439 -0.2517,-25.16107 -1.84282,-30.90392c-2.62025,-9.45727 -7.75215,-0.40766 -8.90938,-0.46178c-1.19032,-0.05565 -2.82076,-5.47798 -4.00703,1.82278c-1.24373,7.65429 -2.01399,27.97344 -1.93196,24.5061z" fill="#141414" stroke="none" stroke-width="0"/><path d="M228.23659,256.95731l-1.12857,47.70256l-17.34053,-0.81077l1.12858,-47.70258z" fill="none" stroke="#000000" stroke-width="3.5"/><path d="M228.23659,256.95731l-1.12857,47.70256l-17.34053,-0.81077l1.12858,-47.70258z" fill="none" stroke="#000000" stroke-width="3.5"/></g><g><path d="M231.81586,278.62458l-0.2285,9.65831l-25.33431,-1.18451l0.22851,-9.65831z" fill="#252525" stroke="#000000" stroke-width="0"/><path d="M231.81586,278.62458l-0.2285,9.65831l-25.33431,-1.18451l0.22851,-9.65831z" fill="#252525" stroke="#000000" stroke-width="0"/><path d="M206.43355,286.4101c0.01159,-0.49013 -0.62823,-6.12662 0.26252,-7.76244c1.60212,-2.94215 5.45106,-2.33005 7.74046,-2.22303c3.56229,0.16656 17.2285,0.88271 17.19606,2.25435c-0.0077,0.32533 0.54261,9.42249 -0.68681,9.73897c-1.49391,0.38456 -1.11572,-5.14411 -3.60891,-6.40839c-4.10578,-2.08197 -11.32714,-0.53877 -13.01785,-0.61781c-1.73904,-0.08131 -4.28009,-1.28254 -5.79444,0.13606c-1.58768,1.4873 -2.10765,5.58428 -2.09104,4.88225z" fill="#141414" stroke="none" stroke-width="0"/><path d="M231.81586,278.62458l-0.2285,9.65831l-25.33431,-1.18451l0.22851,-9.65831z" fill="none" stroke="#000000" stroke-width="3.5"/><path d="M231.81586,278.62458l-0.2285,9.65831l-25.33431,-1.18451l0.22851,-9.65831z" fill="none" stroke="#000000" stroke-width="3.5"/></g><g><path d="M233.9609,263.39259l-0.2285,9.65833l-28.62269,-1.33827l0.2285,-9.65831z" fill="#252525" stroke="#000000" stroke-width="0"/><path d="M233.9609,263.39259l-0.2285,9.65833l-28.62269,-1.33827l0.2285,-9.65831z" fill="#252525" stroke="#000000" stroke-width="0"/><path d="M207.65867,266.15507c-1.78897,1.4779 -2.36378,5.5723 -2.34717,4.87027c0.01159,-0.49012 -0.72849,-6.1313 0.27275,-7.76195c1.80081,-2.93288 6.15069,-2.29735 8.73725,-2.17642c4.02469,0.18817 19.465,0.98729 19.43255,2.35893c-0.0077,0.32533 0.64186,9.42714 -0.74599,9.73621c-1.68642,0.37557 -1.27616,-5.15164 -4.0965,-6.43119c-4.64451,-2.10714 -12.79742,-0.60748 -14.70759,-0.69679c-1.96477,-0.09186 -4.83896,-1.30867 -6.54531,0.10095z" fill="#141414" stroke="none" stroke-width="0"/><path d="M233.9609,263.39259l-0.2285,9.65833l-28.62269,-1.33827l0.2285,-9.65831z" fill="none" stroke="#000000" stroke-width="3.5"/><path d="M233.9609,263.39259l-0.2285,9.65833l-28.62269,-1.33827l0.2285,-9.65831z" fill="none" stroke="#000000" stroke-width="3.5"/></g></g><g><path d="M233.94257,297.38975l-0.26244,11.09289l-29.56224,-1.3822l0.26244,-11.09288z" fill="#252525" stroke="#000000" stroke-width="0"/><path d="M233.94257,297.38975l-0.26244,11.09289l-29.56224,-1.3822l0.26244,-11.09288z" fill="#252525" stroke="#000000" stroke-width="0"/><path d="M204.3282,306.31003c0.01333,-0.5629 -0.73573,-7.03727 0.30296,-8.91533c1.86818,-3.37784 6.35965,-2.67153 9.03111,-2.54663c4.15678,0.19435 20.10374,1.02862 20.06646,2.60399c-0.00884,0.37365 0.63726,10.82269 -0.79718,11.18513c-1.74302,0.44042 -1.30413,-5.90927 -4.2139,-7.36346c-4.79179,-2.39477 -13.21749,-0.6285 -15.19035,-0.72074c-2.02926,-0.09489 -4.99483,-1.47674 -6.76126,0.15131c-1.85197,1.70689 -2.45691,6.41203 -2.43784,5.60573z" fill="#141414" stroke="none" stroke-width="0"/><path d="M233.94257,297.38975l-0.26244,11.09289l-29.56224,-1.3822l0.26244,-11.09288z" fill="none" stroke="#000000" stroke-width="3.5"/><path d="M233.94257,297.38975l-0.26244,11.09289l-29.56224,-1.3822l0.26244,-11.09288z" fill="none" stroke="#000000" stroke-width="3.5"/></g></g><g><g><path d="M186.50126,317.9077l0.2211,-21.45005l45.94583,1.27936l-0.2211,21.45006z" fill="#252525" stroke="#000000" stroke-width="0"/><path d="M186.50126,317.9077l0.2211,-21.45005l45.94583,1.27936l-0.2211,21.45006z" fill="#252525" stroke="#000000" stroke-width="0"/><path d="M186.50126,317.9077l0.2211,-21.45005l45.94583,1.27936l-0.2211,21.45006z" fill="none" stroke="#000000" stroke-width="3.5"/><path d="M187.00391,298.01159c0.01608,-1.55913 0.68817,7.60503 3.46494,11.14751c2.64851,3.37886 7.32805,1.10718 10.48194,1.19501c3.06625,0.08539 16.03916,4.62037 23.60954,0.63711c4.59705,-2.41879 4.27572,-14.73556 6.95517,-13.65257c2.20509,0.89125 0.61081,20.97702 0.60336,21.69953c-0.0314,3.04625 -24.82128,0.4406 -31.28179,0.2607c-4.15201,-0.11562 -11.16078,2.73485 -13.86805,-4.03562c-1.50523,-3.76432 0.02366,-16.16317 0.03488,-17.25167z" fill="#141414" stroke="none" stroke-width="0"/><path d="M186.50126,317.9077l0.2211,-21.45005l45.94583,1.27936l-0.2211,21.45006z" fill="none" stroke="#000000" stroke-width="3.5"/></g><g><path d="M173.18627,323.4722l0.10835,-21.45005l22.51631,1.27936l-0.10835,21.45007z" fill="#252525" stroke="#000000" stroke-width="0"/><path d="M173.18627,323.4722l0.10835,-21.45005l22.51631,1.27936l-0.10835,21.45007z" fill="#6c6c6c" stroke="#000000" stroke-width="0"/><path d="M173.18627,323.4722l0.10835,-21.45005l22.51631,1.27936l-0.10835,21.45007z" fill="none" stroke="#000000" stroke-width="3.5"/><path d="M175.13063,314.72361c1.29793,3.37886 3.5912,1.10718 5.1368,1.195c1.50266,0.08539 7.86018,4.62037 11.57014,0.63711c2.25284,-2.41878 2.09537,-14.73555 3.40847,-13.65257c1.08063,0.89125 0.29934,20.97702 0.29569,21.69953c-0.0154,3.04625 -12.16397,0.44061 -15.33002,0.26071c-2.03475,-0.11562 -5.46948,2.73484 -6.79621,-4.03563c-0.73766,-3.76433 0.01161,-16.16317 0.0171,-17.25167c0.00788,-1.55912 0.33725,7.60503 1.69804,11.14751z" fill="#545454" stroke="none" stroke-width="0"/><path d="M173.18627,323.4722l0.10835,-21.45005l22.51631,1.27936l-0.10835,21.45007z" fill="none" stroke="#000000" stroke-width="3.5"/></g><g><path d="M207.03695,325.44296l0.10835,-21.45005l22.51631,1.27936l-0.10836,21.45007z" fill="#252525" stroke="#000000" stroke-width="0"/><path d="M207.03695,325.44296l0.10835,-21.45005l22.51631,1.27936l-0.10836,21.45007z" fill="#6c6c6c" stroke="#000000" stroke-width="0"/><path d="M207.03695,325.44296l0.10835,-21.45005l22.51631,1.27936l-0.10836,21.45007z" fill="none" stroke="#000000" stroke-width="3.5"/><path d="M207.28328,305.54687c0.00787,-1.55912 0.33724,7.60503 1.69803,11.14751c1.29794,3.37886 3.59121,1.10719 5.13681,1.19501c1.50265,0.08539 7.86017,4.62036 11.57013,0.63711c2.25284,-2.41878 2.09537,-14.73555 3.40847,-13.65257c1.08063,0.89124 0.29934,20.97702 0.29569,21.69953c-0.01539,3.04625 -12.16396,0.4406 -15.33001,0.2607c-2.03475,-0.11562 -5.46949,2.73484 -6.79622,-4.03563c-0.73765,-3.76433 0.01161,-16.16317 0.0171,-17.25167z" fill="#545454" stroke="none" stroke-width="0"/><path d="M207.03695,325.44296l0.10835,-21.45005l22.51631,1.27936l-0.10836,21.45007z" fill="none" stroke="#000000" stroke-width="3.5"/></g><g><path d="M188.48863,325.32703l0.10835,-21.45005l22.51631,1.27936l-0.10835,21.45007z" fill="#252525" stroke="#000000" stroke-width="0"/><path d="M188.48863,325.32703l0.10835,-21.45005l22.51631,1.27936l-0.10835,21.45007z" fill="#6c6c6c" stroke="#000000" stroke-width="0"/><path d="M188.48863,325.32703l0.10835,-21.45005l22.51631,1.27936l-0.10835,21.45007z" fill="none" stroke="#000000" stroke-width="3.5"/><path d="M188.73496,305.43094c0.00787,-1.55912 0.33724,7.60504 1.69803,11.14751c1.29793,3.37886 3.5912,1.10718 5.1368,1.195c1.50265,0.08539 7.86017,4.62037 11.57013,0.63711c2.25284,-2.41878 2.09537,-14.73556 3.40847,-13.65257c1.08062,0.89124 0.29934,20.97702 0.29569,21.69953c-0.01539,3.04625 -12.16396,0.4406 -15.33001,0.2607c-2.03474,-0.11562 -5.46948,2.73484 -6.79621,-4.03563c-0.73765,-3.76433 0.01161,-16.16317 0.0171,-17.25167z" fill="#545454" stroke="none" stroke-width="0"/><path d="M188.48863,325.32703l0.10835,-21.45005l22.51631,1.27936l-0.10835,21.45007z" fill="none" stroke="#000000" stroke-width="3.5"/></g></g></g><g><g data-paper-data="{&quot;index&quot;:null}" stroke-linecap="butt"><g><g><path d="M217.83709,156.00025l-11.04694,41.34216l-16.6959,-4.74021l11.04695,-41.34216z" fill="#252525" stroke="#000000" stroke-width="0"/><path d="M217.83709,156.00025l-11.04694,41.34216l-16.6959,-4.74021l11.04695,-41.34216z" fill="#252525" stroke="#000000" stroke-width="0"/><path d="M190.99838,189.65381c0.56057,-2.09793 6.45719,-26.21478 8.93462,-33.22794c4.45587,-12.61378 4.20272,-3.83815 5.71149,-3.4098c1.68266,0.47773 7.53528,1.29221 10.35854,2.52668c1.11573,0.48786 2.0867,-0.97032 1.64232,0.69272c-0.3721,1.39256 -10.23236,40.32276 -11.46402,41.69334c-1.49662,1.66543 5.00304,-22.00322 4.65334,-27.382c-0.57589,-8.85774 -7.45453,-2.15855 -8.56874,-2.4749c-1.14608,-0.32539 -1.60087,-5.43378 -4.27732,0.6578c-2.80607,6.38655 -7.79318,23.92911 -6.99023,20.92409z" fill="#141414" stroke="none" stroke-width="0"/><path d="M217.83709,156.00025l-11.04694,41.34216l-16.6959,-4.74021l11.04695,-41.34216z" fill="none" stroke="#000000" stroke-width="3.5"/><path d="M217.83709,156.00025l-11.04694,41.34216l-16.6959,-4.74021l11.04695,-41.34216z" fill="none" stroke="#000000" stroke-width="3.5"/></g><g><path d="M216.79905,175.73022l-2.23666,8.37052l-24.3925,-6.92538l2.23667,-8.37051z" fill="#252525" stroke="#000000" stroke-width="0"/><path d="M216.79905,175.73022l-2.23666,8.37052l-24.3925,-6.92538l2.23667,-8.37051z" fill="#252525" stroke="#000000" stroke-width="0"/><path d="M190.48899,176.61703c0.1135,-0.42478 0.66682,-5.48954 1.87434,-6.70908c2.17183,-2.19342 5.78756,-0.76437 7.99185,-0.13856c3.42987,0.9738 16.57193,4.77691 16.25429,5.96566c-0.07534,0.28196 -1.43752,8.34419 -2.69924,8.33428c-1.53315,-0.01206 -0.01223,-4.74603 -2.17335,-6.42856c-3.55895,-2.77075 -10.90415,-3.10438 -12.532,-3.56655c-1.6744,-0.47539 -3.89521,-2.11406 -5.66391,-1.229c-1.85435,0.92791 -3.21456,4.38023 -3.05198,3.7718z" fill="#141414" stroke="none" stroke-width="0"/><path d="M216.79905,175.73022l-2.23666,8.37052l-24.3925,-6.92538l2.23667,-8.37051z" fill="none" stroke="#000000" stroke-width="3.5"/><path d="M216.79905,175.73022l-2.23666,8.37052l-24.3925,-6.92538l2.23667,-8.37051z" fill="none" stroke="#000000" stroke-width="3.5"/></g><g><path d="M222.06221,162.94426l-2.23668,8.37054l-27.55864,-7.82431l2.23666,-8.37052z" fill="#252525" stroke="#000000" stroke-width="0"/><path d="M222.06221,162.94426l-2.23668,8.37054l-27.55864,-7.82431l2.23666,-8.37052z" fill="#252525" stroke="#000000" stroke-width="0"/><path d="M195.90511,159.23618c-2.04815,0.8729 -3.46116,4.31021 -3.2986,3.70179c0.11349,-0.42477 0.57029,-5.51695 1.88418,-6.70628c2.36314,-2.13912 6.46117,-0.57314 8.95158,0.13393c3.87507,1.10019 18.72528,5.38829 18.40765,6.57703c-0.07534,0.28196 -1.34196,8.37132 -2.7562,8.31809c-1.7185,-0.06466 -0.16668,-4.78991 -2.64279,-6.56186c-4.07766,-2.918 -12.31976,-3.50628 -14.15894,-4.02844c-1.89173,-0.53709 -4.43331,-2.26683 -6.38688,-1.43426z" fill="#141414" stroke="none" stroke-width="0"/><path d="M222.06221,162.94426l-2.23668,8.37054l-27.55864,-7.82431l2.23666,-8.37052z" fill="none" stroke="#000000" stroke-width="3.5"/><path d="M222.06221,162.94426l-2.23668,8.37054l-27.55864,-7.82431l2.23666,-8.37052z" fill="none" stroke="#000000" stroke-width="3.5"/></g></g><g><path d="M214.9536,192.59122l-2.56889,9.61381l-28.46326,-8.08116l2.56888,-9.61381z" fill="#252525" stroke="#000000" stroke-width="0"/><path d="M214.9536,192.59122l-2.56889,9.61381l-28.46326,-8.08116l2.56888,-9.61381z" fill="#252525" stroke="#000000" stroke-width="0"/><path d="M184.29085,193.48343c0.13036,-0.48785 0.75221,-6.3088 2.15412,-7.7052c2.52147,-2.51154 6.74245,-0.85089 9.3146,-0.12061c4.00226,1.1363 19.33789,5.5729 18.97306,6.9382c-0.08653,0.32383 -1.6375,9.58742 -3.1082,9.56991c-1.78707,-0.02128 -0.03586,-5.4572 -2.56255,-7.40225c-4.16091,-3.20313 -12.72393,-3.6223 -14.62347,-4.16161c-1.95383,-0.55473 -4.54986,-2.44967 -6.60741,-1.44057c-2.15719,1.05796 -3.72689,5.02093 -3.54018,4.32213z" fill="#141414" stroke="none" stroke-width="0"/><path d="M214.9536,192.59122l-2.56889,9.61381l-28.46326,-8.08116l2.56888,-9.61381z" fill="none" stroke="#000000" stroke-width="3.5"/><path d="M214.9536,192.59122l-2.56889,9.61381l-28.46326,-8.08116l2.56888,-9.61381z" fill="none" stroke="#000000" stroke-width="3.5"/></g></g><g><path d="M211.86509,99.65058c3.69512,-0.22574 11.0175,0.06901 13.59115,2.63627c2.5359,2.5296 0.34852,7.30001 0.59645,11.35839c0.49957,8.17722 -4.78697,87.13348 -12.123,87.58166c-2.79373,0.17067 -0.57409,-15.88983 -4.85024,-19.93366c-4.44617,-4.20461 -14.15855,2.14448 -18.70443,0.21515c-2.56262,-1.0876 -1.86215,-6.5515 -1.97365,-8.37675c-0.49957,-8.17722 16.1277,-73.0329 23.46373,-73.48108z" fill="#003aff" stroke="#000000" stroke-width="0" stroke-linecap="butt"/><path d="M198.79747,182.0367c2.60231,-0.15898 8.01196,-3.92278 12.01391,-15.73242c7.7608,-22.90204 14.48457,-60.53493 15.00598,-52.00011c0.79027,12.93587 -4.28939,87.675 -11.93826,88.14229c-3.29716,0.20143 0.50336,-14.01167 -4.36615,-19.20598c-4.18057,-4.45942 -12.51547,-0.07707 -17.5512,-2.35817c-2.70589,-1.22572 -4.04833,-8.30673 -4.20549,-10.87913c-0.79027,-12.93587 3.39234,12.5008 11.04119,12.03351z" fill="#0029ae" stroke="none" stroke-width="3.5" stroke-linecap="butt"/><path d="M211.8264,99.01754c3.4436,-0.21037 11.38324,-0.806 13.88963,1.44563c2.83306,2.54509 0.03289,8.21027 0.29796,12.54903c0.49957,8.17722 -4.09406,87.09115 -11.4301,87.53932c-3.68084,0.22488 -1.49778,-13.08805 -7.08709,-19.1638c-3.40426,-3.70053 -11.65458,1.39378 -16.10023,0.25496c-2.80263,-0.71792 -2.93765,-7.56873 -3.0339,-9.14411c-0.49957,-8.17722 16.1277,-73.0329 23.46373,-73.48108z" fill="none" stroke="#000000" stroke-width="3.5" stroke-linecap="butt"/><path d="M222.94182,155.58863l-26.58011,-21.40552" fill="none" stroke="#000000" stroke-width="3.5" stroke-linecap="round"/></g></g><g><g stroke-linecap="butt"><path d="M218.22416,174.39434l3.54935,-57.0455l30.59085,5.2386l-3.54936,57.0455z" fill="#252525" stroke="#000000" stroke-width="0"/><path d="M218.22416,174.39434l3.54935,-57.0455l30.59085,5.2386l-3.54936,57.0455z" fill="#252525" stroke="#000000" stroke-width="0"/><path d="M218.22416,174.39434l3.54935,-57.0455l30.59085,5.2386l-3.54936,57.0455z" fill="none" stroke="#000000" stroke-width="3.5"/><path d="M222.27049,151.28276c1.23932,9.09318 4.73582,3.23772 6.83569,3.59736c2.04151,0.34959 10.01711,12.93038 15.72251,2.63788c3.46455,-6.24996 5.20217,-39.02381 6.82626,-36.03616c1.33657,2.45873 -2.91678,55.82053 -3.03634,57.74203c-0.50406,8.10139 -17.03639,5.7306 -21.33781,4.99394c-2.76443,-0.47343 -7.58293,1.2781 -8.32385,-16.83862c-0.41195,-10.07276 2.57873,-42.99095 2.75884,-45.88578c0.25799,-4.14642 -0.74464,20.25586 0.55468,29.78936z" fill="#141414" stroke="none" stroke-width="0"/><path d="M218.22416,174.39434l3.54935,-57.0455l30.59085,5.2386l-3.54936,57.0455z" fill="none" stroke="#000000" stroke-width="3.5"/></g><g stroke-linecap="butt"><path d="M220.00456,155.17871l0.77054,-9.65238l40.37263,2.98516l-0.77054,9.65238z" fill="#252525" stroke="#000000" stroke-width="0"/><path d="M220.00456,155.17871l0.77054,-9.65238l40.37263,2.98516l-0.77054,9.65238z" fill="#252525" stroke="#000000" stroke-width="0"/><path d="M220.00456,155.17871l0.77054,-9.65238l40.37263,2.98516l-0.77054,9.65238z" fill="none" stroke="#000000" stroke-width="3.5"/><path d="M223.7288,151.44518c2.23848,1.66115 6.41489,0.88301 9.18623,1.08792c2.69432,0.19922 13.98152,2.92251 20.74626,1.5248c4.10784,-0.84874 4.15604,-6.41471 6.4834,-5.78632c1.91532,0.51715 -0.02621,9.48288 -0.05216,9.80801c-0.10943,1.3708 -21.89692,-0.16265 -27.57377,-0.58241c-3.64837,-0.26977 -9.83274,-0.29311 -12.03182,-3.48537c-1.22266,-1.77487 0.45493,-7.28081 0.49402,-7.77063c0.05601,-0.70159 0.40096,3.4624 2.74784,5.20399z" fill="#141414" stroke="none" stroke-width="0"/><path d="M220.00456,155.17871l0.77054,-9.65238l40.37263,2.98516l-0.77054,9.65238z" fill="none" stroke="#000000" stroke-width="3.5"/></g><g stroke-linecap="butt"><path d="M219.00507,135.34638l0.77054,-9.65238l40.37263,2.98516l-0.77054,9.65238z" fill="#252525" stroke="#000000" stroke-width="0"/><path d="M219.00507,135.34638l0.77054,-9.65238l40.37263,2.98516l-0.77054,9.65238z" fill="#252525" stroke="#000000" stroke-width="0"/><path d="M219.00507,135.34638l0.77054,-9.65238l40.37263,2.98516l-0.77054,9.65238z" fill="none" stroke="#000000" stroke-width="3.5"/><path d="M222.72931,131.61285c2.23848,1.66115 6.41489,0.88301 9.18623,1.08792c2.69432,0.19921 13.98152,2.92251 20.74626,1.52479c4.10784,-0.84873 4.15604,-6.4147 6.4834,-5.78631c1.91532,0.51715 -0.02621,9.48289 -0.05216,9.80801c-0.10943,1.3708 -21.89692,-0.16265 -27.57377,-0.58241c-3.64838,-0.26976 -9.83274,-0.2931 -12.03182,-3.48536c-1.22266,-1.77487 0.45493,-7.28081 0.49402,-7.77063c0.05601,-0.70159 0.40096,3.4624 2.74783,5.20399z" fill="#141414" stroke="none" stroke-width="0"/><path d="M219.00507,135.34638l0.77054,-9.65238l40.37263,2.98516l-0.77054,9.65238z" fill="none" stroke="#000000" stroke-width="3.5"/></g><g><path d="M225.27196,97.96472c1.68159,-28.20849 14.37081,-11.99943 20.8946,-11.61053c6.52379,0.3889 17.51216,-22.08895 15.83057,6.11954c-0.15065,2.5272 0.83684,38.46343 -4.46488,46.99539c-2.35857,3.7956 -0.83882,-12.67025 -5.45463,-16.68455c-1.40191,-1.21921 -2.6525,4.42258 -5.52941,6.53094c-2.88171,2.11187 -7.38924,0.69112 -8.17831,0.4458c-3.13753,-0.97545 0.00135,10.73961 0.46385,15.32437c0.67104,6.65181 -0.14394,17.13906 3.48778,22.51958c2.85743,4.23338 5.6488,-4.76823 9.40006,-1.93283c2.83711,2.14444 1.54634,9.45912 4.19738,12.92599c2.63811,3.44998 4.19972,-18.73113 6.87587,-16.67108c2.61097,2.00987 6.37233,28.28882 6.1458,29.40747c-3.08106,15.2149 -26.24974,13.6895 -29.83563,13.47574c-3.57486,-0.21311 -31.61303,1.67189 -32.86853,-13.73249c-1.03568,-12.7072 18.27533,-80.36236 19.03545,-93.11336z" fill="#003aff" stroke="#000000" stroke-width="0" stroke-linecap="butt"/><path d="M206.08304,190.11914c0.16443,-2.75834 11.0737,-64.93328 14.02391,-63.3284c0.34681,0.18866 0.59302,-26.87266 10.02231,-33.19362c10.62121,-7.11998 30.53458,6.48192 30.36511,8.294c-0.35224,3.76642 -24.18908,-5.97118 -30.32209,4.02107c-13.72126,22.35545 -15.80109,71.6686 -13.83728,82.78448c1.61796,9.15818 15.2178,9.70277 18.54453,9.90109c13.06612,0.77891 23.11602,-33.39727 28.54259,-33.90219c1.78586,-0.16616 5.6571,27.36378 5.54928,29.17252c-0.43546,7.3048 -14.86651,12.38729 -32.23265,11.35204c-17.36614,-1.03525 -31.09117,-7.79619 -30.65571,-15.101z" fill="#0029ae" stroke="none" stroke-width="0" stroke-linecap="butt"/><path d="M225.27194,97.96468c1.68159,-28.20849 14.37082,-11.99943 20.89461,-11.61053c6.52379,0.3889 17.51216,-22.08894 15.83057,6.11955c-0.15065,2.5272 0.83685,38.46343 -4.46488,46.99539c-2.35858,3.7956 -0.83883,-12.67025 -5.45463,-16.68455c-1.40191,-1.21921 -2.65249,4.42259 -5.5294,6.53094c-2.88171,2.11188 -7.38925,0.69113 -8.17831,0.44581c-3.13753,-0.97545 0.00134,10.73961 0.46385,15.32437c0.67104,6.65182 -0.14394,17.13907 3.48778,22.51959c2.85744,4.23339 5.64879,-4.76824 9.40006,-1.93283c2.83711,2.14443 1.54635,9.45911 4.19738,12.92598c2.63812,3.44998 4.19972,-18.73112 6.87587,-16.67107c2.61097,2.00987 6.37233,28.28882 6.1458,29.40747c-3.08106,15.2149 -26.24974,13.6895 -29.83563,13.47574c-3.57486,-0.21311 -31.61303,1.6719 -32.86853,-13.73249c-1.03568,-12.70719 18.27533,-80.36235 19.03545,-93.11335z" fill="none" stroke="#000000" stroke-width="3.5" stroke-linecap="butt"/><path d="M211.81642,197.86386l9.4735,-24.47964l27.0424,11.29591l13.29433,-4.55028l1.98306,17.1484" fill="none" stroke="#000000" stroke-width="3.5" stroke-linecap="round"/><path d="M216.14863,142.67664l21.30978,8.03232" fill="none" stroke="#000000" stroke-width="3.5" stroke-linecap="round"/></g></g><g><path d="M208.37133,74.40988c-4.26472,-19.60792 7.663,-38.84951 26.64129,-42.97729c7.78864,-1.69403 6.57676,9.90156 13.32135,13.16036c0.71233,0.34417 5.26298,-3.99785 7.46505,-1.92589c4.64352,4.36915 8.40851,16.36673 10.87525,14.27692c3.36674,-2.85234 -2.12955,-23.15618 0.34285,-22.51512c6.54271,1.69641 8.67288,18.56011 10.08071,25.03298c4.26472,19.60792 -7.66299,38.8495 -26.64128,42.97729c-18.9783,4.12778 -37.82051,-8.42135 -42.08523,-28.02926z" fill="#003aff" stroke="#000000" stroke-width="0" stroke-linecap="butt"/><path d="M244.82298,83.67511c13.76152,-2.99314 31.07832,-24.14558 33.07373,-14.97123c1.99543,9.17435 -13.58316,30.79027 -27.34468,33.7834c-13.76152,2.99314 -38.94197,-12.00913 -40.9374,-21.18347c-1.99543,-9.17435 21.44681,5.36443 35.20833,2.3713z" fill="#0029ae" stroke="none" stroke-width="0" stroke-linecap="butt"/><path d="M208.37132,74.40985c-4.26472,-19.60791 7.663,-38.8495 26.64129,-42.97728c7.78865,-1.69403 6.57677,9.90156 13.32136,13.16036c0.71232,0.34417 5.26298,-3.99785 7.46505,-1.92589c4.64352,4.36914 8.40853,16.36674 10.87525,14.27692c3.36675,-2.85234 -2.12955,-23.15617 0.34285,-22.51511c6.54271,1.69641 8.67288,18.56011 10.08071,25.03298c4.26472,19.60791 -7.663,38.8495 -26.64129,42.97728c-18.97831,4.12778 -37.8205,-8.42134 -42.08522,-28.02925z" fill="none" stroke="#000000" stroke-width="3.5" stroke-linecap="butt"/><path d="M213.66247,76.46561c-3.99083,-18.34869 5.83113,-36.06319 21.93799,-39.56644c6.61021,-1.43772 6.52275,6.45655 12.33234,9.61523c0.61357,0.3336 3.94768,-4.21079 5.86271,-2.24022c4.03823,4.15534 11.00592,15.99778 13.07134,14.095c2.81901,-2.59706 -2.33383,-23.64166 -0.2142,-22.99958c5.60921,1.69913 4.02048,22.35244 5.33793,28.40963c3.99083,18.34869 -5.83114,36.06318 -21.93799,39.56643c-16.10685,3.50325 -32.39927,-8.53137 -36.39011,-26.88006z" fill="#ffffff" stroke="#000000" stroke-width="0" stroke-linecap="butt"/><path d="M212.96209,59.99385c-1.22073,-5.61254 7.92309,-19.73476 19.41801,-22.23491c1.70154,-0.37008 5.81662,-2.82896 7.55714,-1.66923c3.2498,2.16539 4.13583,9.04437 7.21829,10.05623c3.08687,1.01331 4.2384,-2.37807 6.44504,-2.58431c2.38233,-0.22267 5.71303,2.75223 6.07781,4.42934c0.15379,0.70713 4.90707,9.29942 6.53082,7.81075c1.96768,-1.80397 -0.20364,-12.13497 0.64617,-16.32088c0.8655,-4.26319 4.72251,-2.35018 3.44137,-0.60172c-1.44378,1.97049 1.69998,11.21558 2.44501,18.36981c0.29516,2.83434 1.78974,4.65263 0.07825,6.60585c-2.41159,2.7522 -4.66137,-2.87653 -9.3515,-5.74952c-10.70826,-6.55947 -28.38474,-17.45484 -30.95209,-16.89645c-0.37567,0.08171 -2.75547,2.22223 -3.12887,2.27522c-11.05221,1.56808 -15.24461,21.93897 -16.42545,16.50984z" fill="#c1c1c1" stroke="none" stroke-width="0" stroke-linecap="butt"/><path d="M241.37763,59.45925c12.03459,-2.61752 22.86577,0.20415 24.19214,6.30239c1.32637,6.09824 -7.35435,13.16376 -19.38894,15.78128c-12.03459,2.61752 -22.86577,-0.20415 -24.19214,-6.30239c-1.32637,-6.09824 7.35435,-13.16376 19.38894,-15.78128z" fill="#c1c1c1" stroke="none" stroke-width="0" stroke-linecap="butt"/><path d="M220.10163,48.09647c-0.55774,-2.56432 -4.60162,23.35054 2.75528,38.54028c5.22283,10.78353 21.57542,12.32577 24.90827,11.60086c8.02756,-1.746 13.81997,-12.3312 14.77365,-7.9464c0.95369,4.38479 -4.7808,9.35479 -12.80835,11.10078c-4.31369,0.93823 -21.23445,1.99821 -27.82235,-12.01582c-2.72765,-5.80234 -7.38535,-13.41238 -7.13536,-21.72888c0.26982,-8.9768 5.55788,-18.4978 5.32885,-19.55083z" fill="#c1c1c1" stroke="none" stroke-width="0" stroke-linecap="butt"/><path d="M236.01671,35.98996c6.61021,-1.43772 6.52274,6.45656 12.33234,9.61523c0.61357,0.3336 3.94768,-4.2108 5.86271,-2.24023c4.03823,4.15534 11.00592,15.99778 13.07134,14.095c2.81901,-2.59706 -2.33384,-23.64165 -0.2142,-22.99958c5.60921,1.69912 4.02049,22.35244 5.33793,28.40963c3.99083,18.34869 -5.83113,36.06318 -21.93799,39.56643c-16.10685,3.50325 -32.39927,-8.53137 -36.39011,-26.88006c-3.99083,-18.34869 5.83113,-36.06318 21.93799,-39.56643z" fill="none" stroke="#000000" stroke-width="3.5" stroke-linecap="butt"/><path d="M257.92341,58.0883c4.5332,-0.98597 9.30237,3.24584 10.6522,9.45202c0.63147,2.9033 0.85422,16.26932 -0.03214,18.55066c-1.00836,2.5953 2.06041,3.62488 -0.35213,4.14961c-2.05609,0.4472 -5.41733,9.10007 -7.22943,7.70312c-2.18318,-1.68301 -8.0649,-23.44157 -8.8025,-26.83287c-1.34984,-6.20617 1.23079,-12.03657 5.76399,-13.02254z" fill="#000000" stroke="#000000" stroke-width="3.5" stroke-linecap="butt"/><path d="M260.1684,89.87025l-3.53388,9.16034" fill="none" stroke="#000000" stroke-width="3.5" stroke-linecap="round"/><path d="M228.13964,65.40866c5.55858,-1.20899 11.02574,2.22954 12.21126,7.6802c1.18552,5.45064 -2.35955,10.84934 -7.91812,12.05832c-5.55858,1.20899 -11.02574,-2.22954 -12.21126,-7.6802c-1.18552,-5.45064 2.35955,-10.84934 7.91812,-12.05832z" fill="#ffffff" stroke="#000000" stroke-width="3.5" stroke-linecap="butt"/><path d="M234.85903,88.30361l3.78257,12.6859" fill="none" stroke="#000000" stroke-width="3.5" stroke-linecap="round"/><path d="M242.2004,86.29752l1.19018,5.47206" fill="none" stroke="#000000" stroke-width="3.5" stroke-linecap="round"/><path d="M252.99306,98.27743l-1.87076,-13.3064" fill="none" stroke="#000000" stroke-width="3.5" stroke-linecap="round"/></g><g><g stroke-linecap="butt"><path d="M174.79237,206.23607c2.49453,-9.34866 11.42305,-15.08443 19.94239,-12.81118c8.51934,2.27323 13.40342,11.69466 10.9089,21.04332c-2.49453,9.34867 -11.42306,15.08442 -19.9424,12.81117c-8.51935,-2.27323 -13.40342,-11.69466 -10.90889,-21.04331z" fill="#ffffff" stroke="#000000" stroke-width="0"/><path d="M174.41432,212.96454c1.4082,-5.27747 2.34735,-20.43072 9.8866,-18.41899c1.26488,0.3375 -3.20167,5.58737 -4.03077,11.96395c-0.78644,6.04853 2.05573,13.20577 3.36565,14.73024c5.54031,6.44781 19.02839,-4.54234 18.08055,-0.99013c-1.40821,5.27747 -8.66154,7.92489 -16.20078,5.91316c-7.53924,-2.01173 -12.50943,-7.92078 -11.10123,-13.19825z" fill="#adadad" stroke="none" stroke-width="3.5"/><path d="M194.46625,194.29691c8.51935,2.27323 13.40342,11.69466 10.9089,21.04331c-2.49453,9.34867 -11.42303,15.08443 -19.94239,12.81118c-8.51935,-2.27323 -13.40342,-11.69466 -10.90889,-21.04332c2.49453,-9.34867 11.42303,-15.08443 19.94239,-12.81118z" fill="none" stroke="#000000" stroke-width="3.5"/></g><g data-paper-data="{&quot;index&quot;:null}"><path d="M197.57036,235.65872c3.73729,6.31132 4.26324,12.91024 1.17472,14.73913c-3.08852,1.82889 -8.62191,-1.80482 -12.35921,-8.11613c-1.99057,-3.36155 -2.09351,-17.05328 1.88206,-21.44797c3.48858,-3.85635 10.89769,1.40116 12.3412,0.54639c3.08852,-1.82889 -6.77607,7.96729 -3.03878,14.27859z" fill="#ffffff" stroke="#000000" stroke-width="0" stroke-linecap="butt"/><path d="M197.37523,232.48362c0.21224,4.55388 2.80735,8.11591 2.51199,11.92775c-0.31578,4.07515 -2.40843,5.675 -2.40843,5.675c-1.74568,1.03372 -4.41782,-0.25101 -5.9684,-2.86954c-1.55058,-2.61853 1.68447,-26.4484 3.43017,-27.48212c0.6406,-0.37934 4.89383,-0.51784 4.61887,3.23592c-0.13075,1.78503 -2.333,6.32003 -2.18418,9.51299z" fill="#adadad" stroke="none" stroke-width="3.5" stroke-linecap="butt"/><path d="M197.7879,235.40502c3.73729,6.31131 4.26323,12.91024 1.17473,14.73912c-3.08851,1.82888 -8.62192,-1.80483 -12.35921,-8.11613c-1.99057,-3.36155 -2.0935,-17.05328 1.88207,-21.44797c3.48858,-3.85635 10.89769,1.40116 12.3412,0.54638c3.08851,-1.82888 -6.77606,7.9673 -3.03877,14.27859z" fill="none" stroke="#000000" stroke-width="3.5" stroke-linecap="butt"/><path d="M185.677,234.36317l10.61526,-0.37473" fill="none" stroke="#000000" stroke-width="3.5" stroke-linecap="round"/></g><g data-paper-data="{&quot;index&quot;:null}"><path d="M169.71397,227.74201c-0.16542,7.33299 -3.20857,13.21192 -6.79705,13.13096c-3.58848,-0.08096 -6.36341,-6.09112 -6.19798,-13.4241c0.08811,-3.90571 7.24096,-15.58094 12.93912,-17.20862c5.00016,-1.42828 8.50843,6.95195 10.1856,6.98979c3.58848,0.08096 -9.96427,3.179 -10.12969,10.51197z" fill="#ffffff" stroke="#000000" stroke-width="0" stroke-linecap="butt"/><path d="M171.22736,224.94397c-2.22796,3.97732 -1.90899,8.37288 -4.1754,11.45197c-2.42296,3.29178 -5.04508,3.54305 -5.04508,3.54305c-2.02827,-0.04576 -3.61688,-2.54921 -3.54825,-5.59161c0.06863,-3.04241 15.41566,-21.55719 17.44394,-21.51144c0.74431,0.01679 4.42746,2.14836 2.20909,5.18894c-1.0549,1.4459 -5.32217,4.13038 -6.8843,6.9191z" fill="#adadad" stroke="none" stroke-width="3.5" stroke-linecap="butt"/><path d="M170.03276,227.64173c-0.16541,7.33298 -3.20856,13.21191 -6.79703,13.13096c-3.58847,-0.08095 -6.36341,-6.09113 -6.19799,-13.42411c0.08811,-3.90571 7.24097,-15.58094 12.93912,-17.20862c5.00016,-1.42828 8.50842,6.95195 10.1856,6.98979c3.58847,0.08095 -9.96428,3.179 -10.12969,10.51198z" fill="none" stroke="#000000" stroke-width="3.5" stroke-linecap="butt"/><path d="M169.51246,225.64851l-9.20782,-5.29532" fill="none" stroke="#000000" stroke-width="3.5" stroke-linecap="round"/></g><g data-paper-data="{&quot;index&quot;:null}"><path d="M181.7367,233.90312c1.82943,7.10304 0.49465,13.58693 -2.98131,14.48218c-3.47596,0.89525 -7.77681,-4.13714 -9.60624,-11.24018c-0.97439,-3.78323 2.74416,-16.96075 7.78737,-20.07273c4.42543,-2.73076 10.07488,4.38401 11.69948,3.96559c3.47596,-0.89525 -8.72874,5.76211 -6.89931,12.86513z" fill="#ffffff" stroke="#000000" stroke-width="0" stroke-linecap="butt"/><path d="M182.43457,230.79952c-1.06585,4.43248 0.43323,8.5768 -0.91322,12.15513c-1.43945,3.82551 -3.89518,4.77847 -3.89518,4.77847c-1.96467,0.50601 -4.17266,-1.4728 -4.93168,-4.41981c-0.75902,-2.947 8.99181,-24.92995 10.95649,-25.43597c0.72097,-0.18569 4.84415,0.86715 3.5335,4.39539c-0.62326,1.67779 -4.00259,5.41895 -4.74991,8.52679z" fill="#adadad" stroke="none" stroke-width="3.5" stroke-linecap="butt"/><path d="M182.01635,233.72014c1.82943,7.10304 0.49465,13.58693 -2.9813,14.48218c-3.47595,0.89525 -7.77682,-4.13715 -9.60625,-11.24018c-0.97439,-3.78323 2.74417,-16.96075 7.78738,-20.07272c4.42543,-2.73076 10.07488,4.38401 11.69947,3.96559c3.47595,-0.89525 -8.72873,5.7621 -6.89931,12.86514z" fill="none" stroke="#000000" stroke-width="3.5" stroke-linecap="butt"/><path d="M170.67618,229.34293l10.2988,2.59978" fill="none" stroke="#000000" stroke-width="3.5" stroke-linecap="round"/></g><g><path d="M204.35823,232.43519c1.89102,-7.08688 -10.25544,-13.84993 -6.78737,-12.92454c1.62089,0.4325 7.3319,-6.63296 11.73345,-3.86388c5.01601,3.15564 8.62004,16.36493 7.61284,20.13957c-1.89102,7.08689 -6.23539,12.08176 -9.70345,11.15637c-3.46806,-0.92539 -4.7465,-7.42061 -2.85548,-14.50752z" fill="#ffffff" stroke="#000000" stroke-width="0" stroke-linecap="butt"/><path d="M199.01162,220.75796c-1.27998,-3.53949 2.85219,-4.55649 3.57152,-4.36455c0.96178,0.25663 3.75308,5.69976 6.25435,11.52535c2.59654,6.04749 4.88055,12.50714 4.48093,14.00476c-0.78457,2.9403 -3.00965,4.89987 -4.96985,4.37683c0,0 -2.44736,-0.97423 -3.85355,-4.81209c-1.31534,-3.58989 0.21965,-7.72105 -0.80768,-12.16261c-0.72031,-3.11422 -4.06705,-6.88456 -4.6757,-8.5677z" fill="#adadad" stroke="none" stroke-width="3.5" stroke-linecap="butt"/><path d="M197.2928,219.32523c1.62089,0.4325 7.3319,-6.63296 11.73346,-3.86388c5.01601,3.15564 8.62004,16.36493 7.61284,20.13956c-1.89102,7.08688 -6.2354,12.08177 -9.70345,11.15638c-3.46805,-0.92539 -4.74649,-7.42064 -2.85547,-14.50752c1.89102,-7.08688 -10.25543,-13.84993 -6.78738,-12.92454z" fill="none" stroke="#000000" stroke-width="3.5" stroke-linecap="butt"/><path d="M215.45791,227.97119l-10.32099,2.51029" fill="none" stroke="#000000" stroke-width="3.5" stroke-linecap="round"/></g></g></g></g></svg>