<svg version="1.1" xmlns="http://www.w3.org/2000/svg" xmlns:xlink="http://www.w3.org/1999/xlink" width="117.36478" height="108.20219" viewBox="0,0,117.36478,108.20219"><g transform="translate(-181.31761,-125.89891)"><g data-paper-data="{&quot;isPaintingLayer&quot;:true}" fill-rule="nonzero" stroke-linejoin="miter" stroke-miterlimit="10" stroke-dasharray="" stroke-dashoffset="0" style="mix-blend-mode: normal"><path d="M183.81171,232.44174v-105.00763h113.60475v105.00763z" fill="#d46200" stroke="none" stroke-width="NaN" stroke-linecap="butt"/><path d="M181.96947,232.74878v-105.62171h6.1408v105.62171z" fill="#ffa800" stroke="none" stroke-width="0" stroke-linecap="butt"/><path d="M292.50382,231.52063v-105.62171h6.1408v105.62171z" fill="#ffa800" stroke="none" stroke-width="0" stroke-linecap="butt"/><path d="M181.31761,127.86592l117.26942,-1.47708l0.09536,6.1402l-117.26942,1.47708z" fill="#ffa800" stroke="none" stroke-width="0" stroke-linecap="butt"/><path d="M181.31761,227.96091l117.26942,-1.47708l0.09536,6.1402l-117.26942,1.47708z" fill="#ffa800" stroke="none" stroke-width="0" stroke-linecap="butt"/><path d="M224.08333,217.8966v-71h7.5v71z" fill="#ffa800" stroke="none" stroke-width="0" stroke-linecap="butt"/><path d="M238.91667,218.06327v-71h7.5v71z" fill="#ffa800" stroke="none" stroke-width="0" stroke-linecap="butt"/><path d="M253.91667,217.3966v-71h7.5v71z" fill="#ffa800" stroke="none" stroke-width="0" stroke-linecap="butt"/><path d="M211.25,157.3966l-8,-7l1.5,-8.5l-7.5,-1" fill="none" stroke="#ffa800" stroke-width="1.5" stroke-linecap="round"/><path d="M215.40269,179.74941l-10.50393,1.63326l-5.54998,-6.61043l-5.58481,5.10489" fill="none" stroke="#ffa800" stroke-width="1.5" stroke-linecap="round"/><path d="M215.09877,201.14057l-8.86238,5.87012l0.35258,8.62413l-7.56637,-0.00954" data-paper-data="{&quot;index&quot;:null}" fill="none" stroke="#ffa800" stroke-width="1.5" stroke-linecap="round"/></g></g></svg>