<svg version="1.1" xmlns="http://www.w3.org/2000/svg" xmlns:xlink="http://www.w3.org/1999/xlink" width="164.69235" height="149.71414" viewBox="0,0,164.69235,149.71414"><g transform="translate(-170.66198,-106.58171)"><g data-paper-data="{&quot;isPaintingLayer&quot;:true}" fill-rule="nonzero" stroke-linejoin="miter" stroke-miterlimit="10" stroke-dasharray="" stroke-dashoffset="0" style="mix-blend-mode: normal"><path d="M273.93207,136.60788c0,10.67751 12.08831,9.33333 27,9.33333c14.91169,0 27,1.34417 27,-9.33333c0,-10.67751 13.24502,-25.33333 -1.66667,-25.33333c-2.08416,0 -10.12207,11.49487 -17.02424,10.50185c-5.84727,-0.84125 -10.22071,-14.31498 -16.3139,-13.19469c-4.78446,0.87966 -3.71113,6.12573 -7.40525,8.56875c-4.90639,3.24473 -14.14787,3.83686 -16.96065,5.03644c-11.9671,5.10366 5.37071,8.81135 5.37071,14.42099z" fill="none" stroke="#000000" stroke-width="4" stroke-linecap="butt"/><path d="M227.2654,158.10788c0,17.02878 14.55075,30.83333 32.5,30.83333c17.94925,0 32.5,-13.80455 32.5,-30.83333c0,-17.02878 -14.55075,-30.83333 -32.5,-30.83333c-17.94925,0 -32.5,13.80455 -32.5,30.83333z" fill="none" stroke="#000000" stroke-width="4" stroke-linecap="butt"/><g stroke-linecap="butt"><path d="M194.50846,155.6927c-5.08587,-5.52336 -20.69349,-20.98988 -22.09648,-26.73816c-1.61561,-6.61944 11.61077,-3.36795 15.52488,-6.97203c5.22633,-4.81236 14.27596,-9.55333 23.00893,-4.39082c3.48691,2.06129 6.92334,10.32462 10.04574,13.71562c10.94249,11.88378 13.8847,26.97634 6.5716,33.71018c-7.31309,6.73384 -22.11217,2.55898 -33.05466,-9.3248z" fill="#0090ff" stroke="#000000" stroke-width="0"/><path d="M184.01582,122.73104c5.53105,-2.0112 10.08847,-6.48104 11.98418,-6.48104c3.58985,0 13,20.58133 13,29.625c0,9.04367 -2.91015,16.375 -6.5,16.375c-3.58985,0 -29.5,-25.33133 -29.5,-34.375c0,-4.26793 6.07289,-3.34662 11.01582,-5.14396z" fill="#8cc7ff" stroke="#000000" stroke-width="0"/><path d="M196.625,117.75c5.17767,0 11.375,23.61522 11.375,29c0,5.38478 -1.69733,14 -6.875,14c-5.17767,0 1.625,-9.86522 1.625,-15.25c0,-5.38478 -11.30267,-27.75 -6.125,-27.75z" fill="#79acdc" stroke="none" stroke-width="0"/><path d="M194.75846,156.19269c-5.08587,-5.52336 -20.69349,-20.98988 -22.09648,-26.73816c-1.61561,-6.61943 11.61077,-3.36794 15.52488,-6.97202c5.22633,-4.81236 14.27596,-9.55333 23.00893,-4.39082c3.48691,2.06129 6.92334,10.32462 10.04574,13.71562c10.94249,11.88378 13.8847,26.97634 6.5716,33.71018c-7.31309,6.73384 -22.11217,2.55898 -33.05466,-9.3248z" fill="none" stroke="#000000" stroke-width="4"/><path d="M184.76582,123.23104c5.53105,-2.0112 10.08847,-6.48104 11.98418,-6.48104c3.58985,0 13,20.58133 13,29.625c0,9.04367 -2.91015,16.375 -6.5,16.375c-3.58985,0 -29.5,-25.33133 -29.5,-34.375c0,-4.26793 6.07289,-3.34662 11.01582,-5.14396z" fill="none" stroke="#000000" stroke-width="4"/></g><path d="M241.40238,228.40298c17.39697,0 31.5,6.04415 31.5,13.5c0,7.45585 -14.10303,13.5 -31.5,13.5c-17.39697,0 -31.5,-6.04415 -31.5,-13.5c0,-7.45585 14.10303,-13.5 31.5,-13.5z" fill="#e300ff" stroke="none" stroke-width="0" stroke-linecap="butt"/><path d="M213.04525,249.33155c0,-2.09079 12.14154,1.21429 28,1.21429c15.85846,0 29.42857,-3.30508 29.42857,-1.21429c0,2.09079 -12.99869,5.07143 -28.85715,5.07143c-15.85847,0 -28.57143,-2.98064 -28.57143,-5.07143z" fill="#b400cc" stroke="none" stroke-width="0" stroke-linecap="butt"/><path d="M269.54524,208.26012c2.61038,0 8.11768,-3.63284 14.07526,-4.69277c3.5138,-0.62515 8.4885,0.48318 9.60141,1.49926c3.98651,3.63966 -6.17667,16.79282 -6.17667,23.05065c0,10.9668 -7.83501,19.85715 -17.5,19.85715c-9.66499,0 -17.5,-8.89036 -17.5,-19.85715c0,-10.9668 7.83501,-19.85714 17.5,-19.85714z" fill="#36b300" stroke="none" stroke-width="0" stroke-linecap="butt"/><path d="M193.42838,228.13696c0,-13.81352 -20.33558,-20.54025 5.52236,-20.54025c25.85794,0 12.29093,15.19405 12.29093,29.00757c0,3.05024 7.61773,3.25822 5.58263,9.83046c-1.86009,6.00704 5.80565,-5.40325 2.02831,-1.47165c-5.20967,5.42242 -9.30557,4.91609 -14.22222,1.38935c-5.28134,-3.78833 -11.20201,-11.06174 -11.20201,-18.21549z" fill="#efff00" stroke="#000000" stroke-width="0" stroke-linecap="butt"/><path d="M258.75952,242.11726c0,-1.68127 9.73698,-3.26903 17.03265,-11.09311c8.11081,-8.69825 14.01325,-23.62117 17.25307,-23.62117c3.15063,0 -0.36551,5.2529 -3.71131,13.22702c-3.18944,7.60145 -6.14584,17.8974 -6.14584,19.63012c0,3.5504 -7.13168,8.28572 -13.28571,8.28572c-6.15402,0 -11.14285,-2.87818 -11.14285,-6.42858z" fill="#2e9800" stroke="none" stroke-width="0" stroke-linecap="butt"/><path d="M187.49166,210.40297c0,-1.69735 7.44384,16.6433 14.55987,26.13815c2.72451,3.63528 7.06217,7.75472 7.92228,7.75472c3.1066,0 6.76786,-1.09721 6.76786,1.25c0,2.34721 -2.5184,4.25 -5.625,4.25c-1.34167,0 -8.64527,-7.05258 -13.42679,-15.09278c-6.28994,-10.5766 -10.19821,-22.96658 -10.19821,-24.30008z" fill="#c4d200" stroke="none" stroke-width="0" stroke-linecap="butt"/><path d="M193.67837,227.88695c0,-13.81352 -20.33558,-20.54025 5.52236,-20.54025c25.85795,0 96.04093,-12.55595 96.04093,1.25757c0,3.05024 -6.06083,9.15108 -8.09593,15.72332c-1.86009,6.00703 0.48423,12.45389 -3.29312,16.38549c-10.80576,11.24706 -28.42497,13.58276 -43.35428,13.58276c-25.85794,0 -46.81995,-12.59537 -46.81995,-26.40889z" fill="none" stroke="#000000" stroke-width="4" stroke-linecap="butt"/><path d="M240.03334,213.73334c24.02438,0 45.5,-4.94604 45.5,4.16666c0,9.1127 -21.47561,28.83334 -45.5,28.83334c-24.02439,0 -44.83334,-19.72064 -44.83334,-28.83334c0,-9.11269 20.80896,-4.16666 44.83334,-4.16666z" fill="#ffffff" stroke="#000000" stroke-width="0" stroke-linecap="butt"/><path d="M244.86667,216.73334c23.38005,0 41.45833,-4.17399 41.45833,1.625c0,5.79899 -20.32828,22.375 -43.70833,22.375c-23.38005,0 -45.33333,-15.20101 -45.33333,-21c0,-5.79899 24.20328,-3 47.58333,-3z" fill="#cecece" stroke="none" stroke-width="0" stroke-linecap="butt"/><path d="M240.7,213.73334c24.02438,0 45.5,-4.94604 45.5,4.16666c0,9.1127 -21.47562,28.83334 -45.5,28.83334c-24.02438,0 -44.83333,-19.72064 -44.83333,-28.83334c0,-9.11269 20.80895,-4.16666 44.83333,-4.16666z" fill="none" stroke="#000000" stroke-width="4" stroke-linecap="butt"/><path d="M240.67155,202.6c19.59683,0 42.72845,0.44527 42.72845,9.66842c0,9.22315 -23.13163,23.73158 -42.72845,23.73158c-19.59682,0 -43.47155,-14.06895 -43.47155,-23.2921c0,-9.22316 23.87473,-10.1079 43.47155,-10.1079z" fill="#ffffff" stroke="#000000" stroke-width="0" stroke-linecap="butt"/><path d="M212.24213,223.90516c10.6288,4.72228 29.94368,8.6962 38.63353,6.61001c13.45573,-3.23035 23.0636,-16.91517 29.52434,-16.91517c14.3594,0 -14,13.26243 -14,16.3c0,3.03757 -11.64059,5.5 -26,5.5c-9.50511,0 -25.85437,-5.40204 -35.01071,-11.69334c-4.67617,-3.21299 -6.58929,-8.57979 -6.58929,-9.60666c0,-0.78824 3.9499,5.58786 13.44213,9.80516z" fill="#cecece" stroke="none" stroke-width="0" stroke-linecap="butt"/><path d="M240.47155,203c19.59683,0 42.72845,0.44527 42.72845,9.66842c0,9.22315 -23.13163,23.73158 -42.72845,23.73158c-19.59682,0 -43.47155,-14.06895 -43.47155,-23.2921c0,-9.22316 23.87473,-10.1079 43.47155,-10.1079z" fill="none" stroke="#000000" stroke-width="4" stroke-linecap="butt"/><path d="M240.61164,137c23.69301,0 42.9,19.25176 42.9,43c0,10.33578 5.96183,17.41984 -0.10091,24.83576c-7.86746,9.62344 -29.41782,18.16424 -42.79909,18.16424c-14.23618,0 -37.05275,-6.35051 -44.85631,-17.05066c-5.18377,-7.10792 1.95631,-16.47046 1.95631,-25.94934c0,-23.74824 19.20698,-43 42.9,-43z" fill="#111e30" stroke="#000000" stroke-width="0" stroke-linecap="butt"/><path d="M198.79999,186.9c0,-10.76955 -6.79503,-21.9 5.3,-21.9c3.87484,0 3.01838,8.54237 8.49187,10.44926c1.43335,0.49936 -4.37305,-20.66588 1.80039,-28.95301c7.63802,-10.25314 27.56364,-8.22361 30.19598,-9.52015c4.29445,-2.11519 -10.66788,30.65219 -7.73005,31.39326c5.59683,1.41182 5.74182,15.05634 5.74182,18.53064c0,10.76955 -9.80497,19.5 -21.9,19.5c-12.09504,0 -21.9,-8.73045 -21.9,-19.5z" fill="#824b7d" stroke="#000000" stroke-width="0" stroke-linecap="butt"/><path d="M218.08523,175.87627c11.34813,-12.6805 21.03252,-38.47627 26.31477,-38.47627c7.14232,0 0.51931,24.46282 -5.47387,39.84913c-2.53386,6.5052 -6.92613,9.90972 -6.92613,11.55087c0,5.52284 -8.23796,10 -18.4,10c-10.16204,0 -18.4,-4.47716 -18.4,-10c0,-2.65206 12.40174,-1.20939 22.88523,-12.92373z" fill="#633a60" stroke="none" stroke-width="0" stroke-linecap="butt"/><path d="M238.00001,185.3c0,-14.52509 1.28273,-47.5 11.5,-47.5c2.57663,0 8.88028,3.18488 10.47422,8.40786c0.73181,2.39795 -4.72227,2.58851 -4.09287,4.66424c1.01576,3.3499 8.24895,8.40071 10.83178,11.54144c1.02118,1.24176 3.43998,4.23221 6.39759,4.88418c3.26546,0.71983 7.10014,-0.92915 8.47151,-0.12592c4.87136,2.85323 2.01777,5.91973 2.01777,10.1282c0,4.59911 1.92899,9.36259 0.14087,13.17858c-3.8592,8.23584 -14.05873,13.52142 -21.04088,13.52142c-10.21727,0 -24.7,-4.17491 -24.7,-18.7z" fill="#d84040" stroke="#000000" stroke-width="0" stroke-linecap="butt"/><path d="M198.99999,186.70001c0,-10.76956 -6.79503,-21.9 5.3,-21.9c3.87484,0 3.01838,8.54237 8.49187,10.44926c1.43335,0.49936 -4.37305,-20.66588 1.80039,-28.95301c7.63802,-10.25314 27.56364,-8.22361 30.19598,-9.52015c4.29445,-2.11519 -10.66788,30.65218 -7.73005,31.39325c5.59682,1.41182 5.74182,15.05634 5.74182,18.53064c0,10.76955 -9.80497,19.5 -21.9,19.5c-12.09503,0 -21.9,-8.73045 -21.9,-19.5z" fill="none" stroke="#000000" stroke-width="4" stroke-linecap="butt"/><path d="M237.19999,190.79999c0,-4.52874 -1.32052,-53 12.1,-53c2.5303,0 -8.69678,7.49351 -7.78784,16.8474c0.59613,6.13475 13.59269,13.63958 13.98528,18.36113c0.18286,2.19917 -5.12883,2.86592 -4.20229,4.20276c6.5199,9.40711 24.32401,6.15446 32.34778,6.96249c4.45315,0.44846 2.15708,5.60759 2.15708,6.62623c0,4.52874 -10.87948,8.2 -24.3,8.2c-13.42052,0 -24.3,-3.67126 -24.3,-8.2z" fill="#992e2e" stroke="none" stroke-width="0" stroke-linecap="butt"/><path d="M255.89034,153.35291c2.19153,-2.59155 6.6208,7.64709 9.70966,7.64709c6.95879,0 9.6,11.72456 9.6,21.5c0,9.77544 -5.64121,17.7 -12.6,17.7c-6.95879,0 -12.6,-7.92456 -12.6,-17.7c0,-5.43633 3.14465,-25.90023 5.89034,-29.14709z" fill="#000000" stroke="#000000" stroke-width="4" stroke-linecap="butt"/><path d="M240.61164,137c4.56729,0 9.96789,0.7154 14.09633,2.0405c17.288,5.54891 28.80367,21.7892 28.80367,40.9595c0,10.33578 5.96183,17.41984 -0.10091,24.83576c-7.86746,9.62344 -29.41782,18.16424 -42.79909,18.16424c-14.23618,0 -37.05275,-6.35051 -44.85631,-17.05066c-5.18377,-7.10792 1.95631,-16.47046 1.95631,-25.94934c0,-23.74824 19.20698,-43 42.9,-43z" fill="none" stroke="#000000" stroke-width="4" stroke-linecap="butt"/><path d="M238.00001,185.3c0,-14.52509 1.28273,-47.5 11.5,-47.5c2.57663,0 8.88028,3.18488 10.47422,8.40786c0.73181,2.39795 -4.72227,2.58851 -4.09287,4.66424c1.01576,3.3499 8.24895,8.40071 10.83178,11.54144c1.02118,1.24176 3.43998,4.23221 6.39759,4.88418c3.26546,0.71983 7.10014,-0.92915 8.47151,-0.12592c4.87136,2.85323 2.01777,5.91973 2.01777,10.1282c0,4.59911 1.92899,9.36259 0.14087,13.17858c-3.8592,8.23584 -14.05873,13.52142 -21.04088,13.52142c-10.21727,0 -24.7,-4.17491 -24.7,-18.7z" fill="none" stroke="#000000" stroke-width="4" stroke-linecap="butt"/><path d="M194.39619,189.29324c3.87611,-1.5418 8.96191,5.95301 15.31134,5.16332c9.73902,-1.21126 18.80656,-13.95885 30.01537,-16.23606c5.11889,-1.03996 8.64652,12.76589 13.83503,14.21339c6.55987,1.83008 15.57769,-2.23389 19.54207,-2.23389c24.57667,0 10.7,-0.62183 10.7,10.7c0,11.32183 -19.92333,20.5 -44.5,20.5c-24.57667,0 -44.5,-9.17817 -44.5,-20.5c0,-2.82588 -5.71545,-9.49394 -0.40381,-11.60676z" fill="#d4d4d4" stroke="#000000" stroke-width="0" stroke-linecap="butt"/><path d="M205.21327,206.64492c11.25825,6.76202 32.88037,9.95508 41.18673,9.95508c16.45809,0 39.4,-28.20945 39.4,-22.3c0,3.198 -3.84743,12.22268 -15.30894,18.91339c-9.71773,5.67278 -26.53955,9.38661 -34.09106,9.38661c-10.8442,0 -28.86627,-5.01543 -37.98909,-13.81132c-4.72275,-4.55349 -5.01091,-14.07296 -5.01091,-16.08868c0,-2.92696 0.76461,7.30879 11.81327,13.94492z" fill="#a8a8a8" stroke="none" stroke-width="0" stroke-linecap="butt"/><path d="M194.99999,201.49999c0,-2.82588 -5.71545,-9.49394 -0.40381,-11.60676c3.87611,-1.5418 8.96191,5.95301 15.31134,5.16332c9.73902,-1.21126 18.80656,-13.95885 30.01537,-16.23606c5.11889,-1.03996 8.64653,12.76589 13.83504,14.21339c6.55988,1.83008 15.57769,-2.23388 19.54207,-2.23388c24.57667,0 10.7,-0.62183 10.7,10.7c0,11.32183 -19.92333,20.5 -44.5,20.5c-24.57667,0 -44.5,-9.17817 -44.5,-20.5z" fill="none" stroke="#000000" stroke-width="4" stroke-linecap="butt"/><path d="M238.6,187.8c17.01037,0 42.6,7.12161 42.6,16.4c0,9.27838 -25.58963,17.2 -42.6,17.2c-17.01037,0 -41.4,-6.52162 -41.4,-15.8c0,-9.27839 24.38963,-17.8 41.4,-17.8z" fill="#966139" stroke="#000000" stroke-width="0" stroke-linecap="butt"/><path d="M197.80001,206.7c0,-2.51221 19.99797,8.38208 40.14354,7.04764c2.49006,-0.16494 4.96949,-0.68402 7.41406,-1.43375c12.12625,-3.71905 23.39426,-13.11389 30.84239,-13.11389c7.67725,0 4.24648,3.53047 3.89978,5.17892c-0.60606,2.88152 -3.29978,1.14574 -3.29978,3.92108c0,4.36305 -17.10273,11.7 -38.2,11.7c-21.09728,0 -40.8,-8.93695 -40.8,-13.3z" fill="#654226" stroke="none" stroke-width="0" stroke-linecap="butt"/><path d="M238.4,187.4c17.01037,0 42.6,7.12161 42.6,16.4c0,9.27839 -25.58963,17.2 -42.6,17.2c-17.01037,0 -41.4,-6.52161 -41.4,-15.8c0,-9.27839 24.38963,-17.8 41.4,-17.8z" fill="none" stroke="#000000" stroke-width="4" stroke-linecap="butt"/><path d="M234.56861,189.50179c2.17595,-0.69543 1.60283,-6.30179 4.43139,-6.30179c1.90939,0 3.52687,7.58517 5.17579,7.91943c2.09108,0.42389 0.54843,-6.09514 1.98341,-6.8353c1.88472,-0.97214 6.4408,3.81926 6.4408,5.31587c0,3.53462 -6.08892,6.4 -13.6,6.4c-7.51108,0 -13.6,-2.86538 -13.6,-6.4c0,-2.20353 5.56644,1.05303 9.16861,-0.09821z" fill="#000808" stroke="#000000" stroke-width="4" stroke-linecap="butt"/><path d="M238.6,197.6v22.8" fill="none" stroke="#000000" stroke-width="4" stroke-linecap="round"/><path d="M205.94869,172.27003c1.63313,-3.46768 5.8363,5.18161 7.27214,1.07719c1.15835,-3.3112 -0.86685,-11.74722 0.67917,-11.74722c4.91533,0 8.9,6.40233 8.9,14.3c0,2.93885 5.24824,5.47064 4.30209,7.74252c-1.59647,3.83344 -10.11583,6.55748 -13.20209,6.55748c-4.91534,0 -8.1,9.79767 -8.1,1.9c0,-2.33449 -1.08949,-17.20088 0.14869,-19.82997z" fill="#000000" stroke="#000000" stroke-width="4" stroke-linecap="butt"/><path d="M209.53333,233.73334l-0.13333,-7.73334v-9.6" fill="none" stroke="#000000" stroke-width="4" stroke-linecap="round"/><path d="M227.86667,243.73334l-0.26667,-9.93334l0.2,-12.8" fill="none" stroke="#000000" stroke-width="4" stroke-linecap="round"/><path d="M247,223.4l0.2,10.4l-0.33333,10.93334" fill="none" stroke="#000000" stroke-width="4" stroke-linecap="round"/><path d="M269.53334,236.06666l-0.33334,-8.26666l-0.4,-10.8" fill="none" stroke="#000000" stroke-width="4" stroke-linecap="round"/><path d="M219.04524,243.6887l-4,4.28571" fill="none" stroke="#000000" stroke-width="4" stroke-linecap="round"/><path d="M267.75953,248.26012l-8.71429,-3.71428" fill="none" stroke="#000000" stroke-width="4" stroke-linecap="round"/></g></g></svg>