<svg version="1.1" xmlns="http://www.w3.org/2000/svg" xmlns:xlink="http://www.w3.org/1999/xlink" width="193.03606" height="342.80106" viewBox="0,0,193.03606,342.80106"><g transform="translate(-71.10603,17.06953)"><g data-paper-data="{&quot;isPaintingLayer&quot;:true}" fill-rule="nonzero" stroke-width="3.5" stroke-linejoin="miter" stroke-miterlimit="10" stroke-dasharray="" stroke-dashoffset="0" style="mix-blend-mode: normal"><g fill="none" stroke="#000000" stroke-linecap="round"><path d="M245.1749,200.23131l-3.6534,-205.19952"/><g><g><path d="M72.85603,-11.6661l38.36073,172.92777"/><path d="M77.11833,139.95013l21.92043,60.89007"/></g><path d="M157.49321,-15.31953v56.62775"/></g></g><g stroke-linecap="butt"><path d="M180.5107,213.62945c-5.44848,-0.46744 -9.23374,-8.20781 -8.45467,-17.28858c0.77907,-9.08077 5.82749,-16.06327 11.27596,-15.59582c5.44848,0.46744 9.23376,8.20781 8.45469,17.28858c-0.77907,9.08077 -5.82749,16.06327 -11.27596,15.59582z" fill="none" stroke="#000000"/><path d="M178.88426,234.45945c-5.32848,-1.22947 -7.98692,-9.42547 -5.93779,-18.30626c2.04913,-8.88079 8.02984,-15.08342 13.35832,-13.85395c5.32848,1.22947 7.98692,9.42547 5.93779,18.30626c-2.04913,8.88079 -8.02984,15.08344 -13.35832,13.85397z" fill="none" stroke="#000000"/><path d="M175.46453,253.29229c-5.41431,-0.76775 -8.76617,-8.70545 -7.48659,-17.72931c1.27958,-9.02386 6.70607,-15.71676 12.1204,-14.949c5.41431,0.76775 8.76619,8.70543 7.48661,17.72929c-1.27958,9.02386 -6.70609,15.71676 -12.1204,14.94902z" fill="none" stroke="#000000"/><path d="M171.67556,276.06969c-5.25241,-1.52198 -7.45399,-9.85233 -4.91734,-18.60635c2.53665,-8.75404 8.85092,-14.61675 14.10333,-13.09477c5.25241,1.52198 7.45397,9.85233 4.91734,18.60635c-2.53665,8.75404 -8.85092,14.61675 -14.10333,13.09477z" fill="none" stroke="#000000"/><g><path d="M208.84152,294.34853c0.8739,12.34915 -24.77458,17.60775 -36.74493,18.45485c-11.97035,0.8471 -22.38267,-8.47717 -23.25657,-20.8263c-0.8739,-12.34915 8.12153,-23.04684 20.09188,-23.89392c11.97035,-0.8471 39.03572,13.91623 39.90962,26.26537z" fill="#00ffe6" stroke="#000000"/><path d="M209.30469,296.9305c0.45036,6.36398 -26.52409,13.182 -37.88835,13.9862c-11.36425,0.8042 -20.94187,-3.70287 -21.39223,-10.06685c-0.28198,-3.98457 20.69925,6.77257 30.24336,1.9968c3.21908,-1.6108 23.33529,-0.42794 20.11324,-9.42885c-2.48254,-6.93507 -28.5712,-24.71577 -26.72212,-24.84664c11.36425,-0.8042 35.19574,21.99535 35.6461,28.35933z" fill="#00d6c0" stroke="none"/><path d="M208.37483,295.47979c0.8739,12.34915 -24.55847,16.76526 -36.52882,17.61237c-11.97035,0.8471 -22.38265,-8.47717 -23.25657,-20.8263c-0.8739,-12.34915 8.12153,-23.04682 20.09186,-23.89392c11.97035,-0.8471 38.81961,14.75872 39.69351,27.10785z" fill="none" stroke="#000000"/></g></g><g stroke-linecap="butt"><path d="M139.50591,210.86587c1.2255,-9.03137 6.61177,-15.75667 12.0306,-15.02137c5.41883,0.73531 8.81818,8.65275 7.59268,17.68413c-1.2255,9.03137 -6.61177,15.75667 -12.0306,15.02137c-5.41883,-0.73531 -8.81818,-8.65275 -7.59268,-17.68413z" fill="none" stroke="#000000"/><path d="M144.13072,249.23156c-5.46839,0.03453 -9.948,-7.32582 -10.00554,-16.43977c-0.05754,-9.11396 4.3288,-16.53028 9.79717,-16.5648c5.46837,-0.03453 9.948,7.32582 10.00554,16.43977c0.05754,9.11396 -4.32882,16.53028 -9.79719,16.5648z" fill="none" stroke="#000000"/><path d="M141.45693,268.24616c-5.45894,0.32273 -10.32035,-6.79125 -10.85822,-15.88949c-0.53788,-9.09824 3.45144,-16.73547 8.91038,-17.0582c5.45894,-0.32273 10.32035,6.79123 10.85822,15.88947c0.53788,9.09824 -3.45144,16.73547 -8.91038,17.0582z" fill="none" stroke="#000000"/><path d="M130.38581,277.05352c-1.8128,-8.93203 1.06215,-17.05462 6.42138,-18.14228c5.35923,-1.08767 11.17329,5.27144 12.98607,14.20349c1.8128,8.93203 -1.06215,17.05462 -6.42138,18.14228c-5.35923,1.08767 -11.17329,-5.27144 -12.98607,-14.20349z" fill="none" stroke="#000000"/><g><path d="M140.61447,277.78053c11.74617,-2.4564 23.32267,5.3758 25.85679,17.4937c2.53412,12.11789 -4.93371,23.93269 -16.67988,26.38909c-11.74617,2.4564 -37.85542,4.40717 -40.38954,-7.71072c-2.53414,-12.11789 19.46646,-33.71567 31.21264,-36.17207z" fill="#00ffe6" stroke="#000000"/><path d="M109.66192,316.56283c-1.30593,-6.2448 15.38774,-34.68916 26.53918,-37.02119c1.81445,-0.37944 -18.42201,23.85397 -18.91484,31.20347c-0.63965,9.53881 18.38757,2.9036 21.92433,3.57339c10.48593,1.9858 27.72878,-14.09563 28.54644,-10.18569c1.30593,6.2448 -6.67542,13.1977 -17.82687,15.52972c-11.15144,2.33202 -38.96233,3.1451 -40.26826,-3.09969z" fill="#00d6c0" stroke="none"/><path d="M110.15993,314.91324c-2.53414,-12.11789 19.02834,-34.46703 30.77452,-36.92342c11.74617,-2.4564 23.32267,5.3758 25.85679,17.4937c2.53412,12.11789 -4.93371,23.93269 -16.67988,26.38909c-11.74619,2.4564 -37.41732,5.15853 -39.95144,-6.95936z" fill="none" stroke="#000000"/></g></g><g><path d="M163.95564,159.6796c0,-15.26617 6.03392,-27.64186 13.47714,-27.64186c4.49789,0 16.45742,2.59397 18.90551,9.53934c1.60308,4.548 -5.42838,12.06161 -5.42838,18.10254c0,5.60366 5.78808,12.19307 4.39082,16.54873c-2.4093,7.51055 -13.15687,11.09315 -17.86794,11.09315c-7.44322,0 -13.47714,-12.3757 -13.47714,-27.64188z" fill="#ffffff" stroke="#000000" stroke-linecap="butt"/><path d="M166.01383,130.38281c7.47985,0 12.06491,19.34368 18.44188,31.02249c4.17769,7.65099 11.95041,8.08743 11.95041,11.33418c0,8.20274 -7.56061,19.25304 -19.94065,19.25304c-12.38004,0 -22.41604,-6.64962 -22.41604,-14.85234c0,-8.20272 -0.41562,-46.75737 11.9644,-46.75737z" fill="#cecece" stroke="none" stroke-linecap="butt"/><path d="M163.95096,160.50006c0,-15.26619 6.0339,-27.64186 13.47712,-27.64186c4.49789,0 16.45742,2.59395 18.90551,9.53932c1.60308,4.548 -5.42838,12.06161 -5.42838,18.10254c0,5.60366 5.78808,12.19307 4.39082,16.54873c-2.4093,7.51055 -13.15687,11.09315 -17.86794,11.09315c-7.44322,0 -13.47712,-12.3757 -13.47712,-27.64188z" fill="none" stroke="#000000" stroke-linecap="butt"/><path d="M133.42589,152.11594c0,-13.24814 -6.04095,-31.60688 -1.09724,-40.4918c5.25947,-9.45237 21.75514,-9.016 29.97679,-9.016c9.27277,0 21.65047,-4.61009 26.93448,7.03531c1.44165,3.17728 0.84596,14.52609 -2.39366,21.04939c-2.24247,4.51538 -6.75453,3.71022 -8.60973,8.65701c-2.53805,6.76763 -1.62884,14.43489 -1.62884,18.542c0,10.90919 19.94521,22.91957 16.45805,31.10152c-5.25291,12.325 -21.17429,12.63038 -30.76032,12.63038c-6.15964,0 -19.57007,0.54478 -24.25812,-5.08834c-0.33934,-0.40776 -0.39829,-0.55268 -0.72672,-0.98445c-6.88304,-9.04889 -3.89471,-27.41634 -3.89471,-43.43503z" fill="#00ffe6" stroke="#000000" stroke-linecap="butt"/><path d="M133.14613,185.25398c0,-5.33418 0.63867,-17.72082 0.55983,-37.26619c-0.04022,-9.96976 -5.26458,-21.66719 -4.21361,-30.44254c0.70636,-5.89782 6.81098,-11.07891 9.60244,-11.26344c0.61868,-0.04091 -1.91321,50.5252 4.74515,67.80264c4.40565,11.43194 18.86532,15.98279 19.28591,15.98279c7.17553,0 12.96011,-4.20208 18.35856,-16.44437c3.58467,-8.12911 10.08958,8.4263 12.01356,8.22728c1.8644,-0.19285 -0.39239,0.45987 -0.39239,3.40381c0,10.55718 -13.42238,19.11551 -29.97972,19.11551c-16.55734,0 -29.97972,-8.55831 -29.97972,-19.11551z" fill="#00d6c0" stroke="none" stroke-linecap="butt"/><path d="M133.97128,152.66133c0,-13.24814 -6.04095,-31.60688 -1.09724,-40.4918c5.25947,-9.45237 21.75514,-9.016 29.97679,-9.016c9.27277,0 21.65047,-4.61009 26.93448,7.03531c1.65631,3.65036 1.44623,18.18439 -2.9628,25.3843c-2.04797,3.34431 -8.2374,-1.58046 -9.72382,2.16155c-2.66455,6.7079 -0.49571,15.72852 -0.49571,19.87744c0,10.90919 20.4953,23.74468 17.00815,31.92663c-5.25289,12.325 -21.17427,12.63038 -30.7603,12.63038c-6.15964,0 -19.57007,0.54478 -24.25812,-5.08834c-0.33934,-0.40776 -0.39831,-0.55266 -0.72674,-0.98443c-6.88304,-9.04887 -3.89471,-27.41634 -3.89471,-43.43503z" fill="none" stroke="#000000" stroke-linecap="butt"/><path d="M136.99673,112.78003l4.67574,3.57555l3.02547,7.15113l-1.9253,6.05096l-7.70123,16.77765" fill="none" stroke="#000000" stroke-linecap="round"/><path d="M144.14786,140.28436l-7.15113,-3.30051" fill="none" stroke="#000000" stroke-linecap="round"/><path d="M138.92203,132.03308l7.15113,-0.27504" fill="none" stroke="#000000" stroke-linecap="round"/><path d="M137.27179,117.18071l3.8506,-4.12564" fill="none" stroke="#000000" stroke-linecap="round"/><path d="M147.17334,118.2809l-6.60104,3.57555" fill="none" stroke="#000000" stroke-linecap="round"/><path d="M146.07316,125.98213l-7.42617,1.37521" fill="none" stroke="#000000" stroke-linecap="round"/><path d="M184.57925,134.23342l-9.62653,-0.82513l-2.47538,-1.9253l0.27504,-3.30053l1.65026,-4.4007l1.10017,-2.75043l4.12564,-3.30053l-4.12564,-3.30051l-3.57557,1.9253l-1.9253,4.4007l-1.65026,2.75043h-4.95077l-4.4007,-3.57557l1.9253,-5.22581l3.57555,-1.9253l0.82513,-4.12564" fill="none" stroke="#000000" stroke-linecap="round"/><path d="M163.12585,116.3556l-5.77591,0.5501" fill="none" stroke="#000000" stroke-linecap="round"/><path d="M160.10038,126.25717l4.12564,-6.60104" fill="none" stroke="#000000" stroke-linecap="round"/><path d="M167.25151,120.48125l1.9253,5.22583" fill="none" stroke="#000000" stroke-linecap="round"/><path d="M168.90178,114.70534l4.40068,4.12564" fill="none" stroke="#000000" stroke-linecap="round"/><path d="M181.27872,113.8802l-4.12564,3.57557" fill="none" stroke="#000000" stroke-linecap="round"/><path d="M173.85255,121.85647h4.67574" fill="none" stroke="#000000" stroke-linecap="round"/><path d="M170.82706,128.18247l6.05096,-2.75043" fill="none" stroke="#000000" stroke-linecap="round"/><path d="M175.77785,130.10778l-2.20036,2.75043" fill="none" stroke="#000000" stroke-linecap="round"/><path d="M172.75238,156.78699l-10.45164,2.4754v6.05094l-6.05096,2.47538l-1.65026,4.67574h-4.67574l-5.50087,2.47538l-5.22581,0.27506l-3.02547,3.02547" fill="none" stroke="#000000" stroke-linecap="round"/><path d="M141.94752,171.08924l0.5501,7.70123" fill="none" stroke="#000000" stroke-linecap="round"/><path d="M149.09864,177.41522l-2.47538,-7.97625" fill="none" stroke="#000000" stroke-linecap="round"/><path d="M152.67421,166.68854l4.4007,9.90157" fill="none" stroke="#000000" stroke-linecap="round"/><path d="M158.17507,161.18767l5.77591,6.87608" fill="none" stroke="#000000" stroke-linecap="round"/><path d="M164.22604,154.03653l2.47538,7.15113" fill="none" stroke="#000000" stroke-linecap="round"/><path d="M171.37715,154.31159l3.8506,7.70123" fill="none" stroke="#000000" stroke-linecap="round"/></g><path d="M177.32795,23.19234l7.15113,4.95077" fill="none" stroke="#000000" stroke-linecap="round"/><g><g data-paper-data="{&quot;index&quot;:null}" stroke-linecap="butt"><path d="M204.52957,97.08676c-1.60023,5.38776 0.10624,10.93446 -8.77629,8.29624c-8.88252,-2.63821 -24.99043,-12.4623 -23.3902,-17.85006c1.60023,-5.38776 20.66542,-6.48655 29.54794,-3.84834c8.88252,2.63821 4.21877,8.01438 2.61853,13.40215z" fill="#808080" stroke="#000000"/><path d="M202.64552,104.41256c-0.75686,2.54827 -4.19544,0.9058 -9.94724,-0.80255c-5.7518,-1.70835 -9.80102,-5.15902 -9.04415,-7.7073c0.38693,-1.30273 8.51875,3.64373 13.56878,1.22519c4.82829,-2.31234 6.52535,-12.04174 9.3367,-11.20675c5.7518,1.70835 -3.15722,15.94313 -3.91409,18.4914z" fill="#5f5f5f" stroke="none"/><path d="M204.42833,96.47796c-1.60023,5.38776 0.10624,10.93448 -8.77628,8.29626c-8.88252,-2.63821 -24.99043,-12.4623 -23.3902,-17.85008c1.60023,-5.38776 20.66542,-6.48655 29.54794,-3.84834c8.88252,2.63821 4.21877,8.01438 2.61853,13.40215z" fill="none" stroke="#000000"/></g><g stroke-linecap="butt"><path d="M96.69327,76.52998c1.60023,-5.38778 0.62729,-12.43811 9.50981,-9.7999c8.88252,2.63821 24.25689,13.96595 22.65666,19.35371c-1.60023,5.38778 -20.45923,4.82629 -29.34176,2.18808c-8.88254,-2.63822 -4.42496,-6.35415 -2.82474,-11.7419z" fill="#808080" stroke="#000000"/><path d="M94.27293,83.6965c0.75686,-2.54827 1.06258,-19.33834 6.81438,-17.62998c2.81133,0.835 -1.07773,9.9134 1.70552,14.48644c2.91107,4.78304 12.42459,5.07746 12.03766,6.3802c-0.75686,2.54827 -6.0332,3.22916 -11.78499,1.52081c-5.7518,-1.70835 -9.52946,-2.20919 -8.7726,-4.75745z" fill="#5f5f5f" stroke="none"/><path d="M97.11034,76.07516c1.60023,-5.38778 0.62729,-12.43811 9.50981,-9.7999c8.88254,2.63822 24.25691,13.96595 22.65668,19.35372c-1.60023,5.38778 -20.45923,4.82629 -29.34176,2.18808c-8.88252,-2.63821 -4.42495,-6.35414 -2.82472,-11.74189z" fill="none" stroke="#000000"/></g><path d="M199.5814,58.62238c3.18038,24.41088 -14.29594,46.81261 -39.03448,50.03568c-24.73852,3.22307 -47.37128,-13.95303 -50.55166,-38.36391c-3.18038,-24.41088 14.29594,-46.81261 39.03448,-50.03568c24.73852,-3.22307 47.37128,13.95305 50.55166,38.36391z" fill="#00ffe6" stroke="#000000" stroke-linecap="butt"/><path d="M154.32204,45.50096c16.75469,3.36363 29.06456,12.42885 27.49488,20.24771c-1.56969,7.81887 -16.42454,11.43055 -33.17926,8.0669c-16.75471,-3.36364 -29.06458,-12.42888 -27.49489,-20.24773c1.56969,-7.81887 16.42456,-11.43052 33.17927,-8.06688z" fill="#00d6c0" stroke="none" stroke-linecap="butt"/><path d="M155.12326,82.04262c18.76049,-4.10562 34.71568,-25.27373 43.60564,-22.63332c4.78148,1.42015 -2.19985,15.8586 -2.56434,19.10118c-0.96356,8.57194 -6.62501,9.73688 -8.74104,16.8613c-2.91649,9.81944 -29.02888,14.47098 -46.45044,9.29658c-17.42156,-5.1744 -29.18026,-17.3293 -26.26378,-27.14873c1.42824,-4.80872 22.40968,8.46314 40.41396,4.523z" fill="#00d6c0" stroke="none" stroke-linecap="butt"/><path d="M199.5814,58.62238c3.18038,24.41088 -14.29594,46.81261 -39.03448,50.03568c-24.73852,3.22307 -47.37128,-13.95303 -50.55166,-38.36391c-3.18038,-24.41088 14.29594,-46.81261 39.03448,-50.03568c24.73852,-3.22307 47.37128,13.95305 50.55166,38.36391z" fill="none" stroke="#000000" stroke-linecap="butt"/><path d="M198.25213,73.62274l-18.47212,13.86167l-9.06874,-5.19003l-5.70108,10.78934l-16.47936,-11.76002l-8.12023,6.32606l-18.60315,-13.01494l-5.14469,4.71327" fill="none" stroke="#000000" stroke-linecap="round"/><path d="M138.22225,42.95272c7.86322,2.33547 12.27422,10.83923 9.85226,18.99369c-2.42196,8.15446 -10.75976,12.87168 -18.62298,10.53621c-7.86322,-2.33547 -12.27422,-10.83923 -9.85226,-18.99369c2.42196,-8.15446 10.75976,-12.87168 18.62298,-10.53621z" fill="#ff0000" stroke="#000000" stroke-linecap="butt"/><path d="M175.01496,47.57324c7.13513,2.11921 10.95593,10.44768 8.53396,18.60213c-2.42196,8.15446 -10.16952,13.04698 -17.30468,10.92777c-7.13513,-2.11921 -10.95593,-10.44768 -8.53396,-18.60213c2.42196,-8.15446 10.16952,-13.04698 17.30468,-10.92777z" fill="#ff0000" stroke="#000000" stroke-linecap="butt"/><path d="M134.11302,23.94325l4.63654,19.16607" fill="none" stroke="#000000" stroke-linecap="round"/><path d="M140.16424,30.61817l-8.6067,2.89517" fill="none" stroke="#000000" stroke-linecap="round"/><path d="M141.57662,36.48913l-9.29852,0.39433" fill="none" stroke="#000000" stroke-linecap="round"/><path d="M189.74522,40.46667l-11.09178,9.33004" fill="none" stroke="#000000" stroke-linecap="round"/><path d="M186.63367,49.01081l-7.05625,-8.12108" fill="none" stroke="#000000" stroke-linecap="round"/><path d="M137.96695,74.72485l-0.47495,9.32723" fill="none" stroke="#000000" stroke-linecap="round"/><path d="M134.63344,79.18623l7.63825,-0.60053" fill="none" stroke="#000000" stroke-linecap="round"/><path d="M164.98025,78.44434l-2.41975,11.04497" fill="none" stroke="#000000" stroke-linecap="round"/><path d="M160.64169,81.45951l8.2726,0.16171" fill="none" stroke="#000000" stroke-linecap="round"/></g><g stroke-linecap="butt"><path d="M120.26929,143.50355c-5.28401,-1.40844 -7.66458,-9.68941 -5.31718,-18.49606c2.3474,-8.80665 8.53386,-14.8041 13.81784,-13.39567c5.28399,1.40844 7.66458,9.68941 5.31718,18.49606c-2.3474,8.80665 -8.53388,14.8041 -13.81786,13.39567z" fill="none" stroke="#000000"/><path d="M114.85885,165.95112c-5.42962,-0.65089 -8.95176,-8.51447 -7.86694,-17.56382c1.08482,-9.04933 6.36581,-15.85764 11.79541,-15.20675c5.4296,0.65089 8.95176,8.51449 7.86694,17.56384c-1.08482,9.04935 -6.36581,15.85764 -11.79541,15.20675z" fill="none" stroke="#000000"/><path d="M100.61946,165.37681c0.41377,-9.10472 5.17774,-16.28434 10.64057,-16.03606c5.46283,0.24826 9.55589,7.83037 9.14213,16.93511c-0.41377,9.10472 -5.17772,16.28434 -10.64055,16.03606c-5.46283,-0.24826 -9.55591,-7.83037 -9.14215,-16.93511z" fill="none" stroke="#000000"/><path d="M97.83244,189.91684c-0.87152,-9.07238 2.83476,-16.85089 8.27818,-17.3738c5.44343,-0.52289 10.56268,6.40784 11.4342,15.4802c0.87152,9.07236 -2.83476,16.85087 -8.27818,17.37378c-5.44343,0.52291 -10.56268,-6.40782 -11.4342,-15.48018z" fill="none" stroke="#000000"/><path d="M106.64648,193.29776c12.00028,0 21.72842,10.036 21.72842,22.41602c0,12.38002 -9.72814,22.41602 -21.72842,22.41602c-12.00028,0 -21.72842,-10.036 -21.72842,-22.41602c0,-12.38002 9.72814,-22.41602 21.72842,-22.41602z" fill="#00ffe6" stroke="#000000"/><path d="M101.96606,194.11819c1.85369,0 -4.21178,6.37589 -6.19859,13.46889c-2.57866,9.20588 -1.29907,19.80805 2.02569,21.18761c9.85742,4.09017 30.02696,-8.12123 30.02696,-4.1267c0,6.3799 -9.23557,11.55183 -20.62825,11.55183c-11.39268,0 -20.62825,-5.17193 -20.62825,-11.55183c0,-6.37988 4.00976,-30.5298 15.40244,-30.5298z" fill="#00d6c0" stroke="none"/><path d="M106.91686,193.56809c12.00028,0 21.72842,10.03602 21.72842,22.41604c0,12.38002 -9.72814,22.41602 -21.72842,22.41602c-12.00028,0 -21.72844,-10.03598 -21.72844,-22.41602c0,-12.38004 9.72816,-22.41604 21.72844,-22.41604z" fill="none" stroke="#000000"/></g><g stroke-linecap="butt"><path d="M200.6367,138.90894c-5.28401,1.40844 -11.47044,-4.58901 -13.81786,-13.39567c-2.3474,-8.80665 0.03317,-17.08762 5.31718,-18.49606c5.28401,-1.40844 11.47046,4.58901 13.81786,13.39567c2.3474,8.80665 -0.03317,17.08762 -5.31718,18.49606z" fill="none" stroke="#000000"/><path d="M206.65016,161.41765c-5.36764,1.04531 -11.13133,-5.35949 -12.87353,-14.30557c-1.7422,-8.94608 1.19681,-17.0457 6.56445,-18.09101c5.36764,-1.04531 11.13131,5.35949 12.87351,14.30557c1.7422,8.94608 -1.19679,17.0457 -6.56443,18.09103z" fill="none" stroke="#000000"/><path d="M233.98466,167.51325c-2.25742,4.98081 -10.81699,5.96854 -19.1183,2.20616c-8.30131,-3.76237 -13.20088,-10.8501 -10.94346,-15.83089c2.25742,-4.98081 10.81699,-5.96854 19.1183,-2.20616c8.30131,3.76237 13.2009,10.8501 10.94348,15.83089z" fill="none" stroke="#000000"/><path d="M239.57387,192.68865c-4.5928,1.83618 -11.18848,-3.47581 -14.73188,-11.86464c-3.54339,-8.38883 -2.69269,-16.67783 1.90011,-18.514c4.5928,-1.83618 11.18848,3.47581 14.73188,11.86464c3.54339,8.38883 2.69269,16.67783 -1.90011,18.514z" fill="none" stroke="#000000"/><path d="M262.39209,200.6675c0,12.38004 -9.72816,22.41604 -21.72844,22.41604c-12.00028,0 -21.72842,-10.036 -21.72842,-22.41604c0,-12.38002 9.72814,-22.41602 21.72842,-22.41602c12.00028,0 21.72844,10.036 21.72844,22.41602z" fill="#00ffe6" stroke="#000000"/><path d="M260.74651,209.60172c0,6.3799 -9.23559,11.55181 -20.62825,11.55181c-11.39266,0 -20.62825,-5.17193 -20.62825,-11.55181c0,-3.99453 20.16952,8.21685 30.02696,4.1267c3.32476,-1.37956 4.60435,-11.98171 2.02569,-21.18761c-1.9868,-7.093 -8.05228,-13.46889 -6.19859,-13.46889c11.39266,0 15.40244,24.14992 15.40244,30.52982z" fill="#00d6c0" stroke="none"/><path d="M262.12174,200.93785c0,12.38004 -9.72816,22.41604 -21.72844,22.41604c-12.00028,0 -21.72842,-10.036 -21.72842,-22.41604c0,-12.38002 9.72814,-22.41602 21.72842,-22.41602c12.00028,0 21.72844,10.036 21.72844,22.41602z" fill="none" stroke="#000000"/></g></g></g></svg>