<svg version="1.1" xmlns="http://www.w3.org/2000/svg" xmlns:xlink="http://www.w3.org/1999/xlink" width="362.98858" height="352.41254" viewBox="0,0,362.98858,352.41254"><g transform="translate(-79.495,-0.02629)"><g data-paper-data="{&quot;isPaintingLayer&quot;:true}" fill-rule="nonzero" stroke-linejoin="miter" stroke-miterlimit="10" stroke-dasharray="" stroke-dashoffset="0" style="mix-blend-mode: normal"><path d="M309.81982,101.43396l1.5015,94.59459l-126.12613,-3.003l-1.5015,-90.09009z" fill="none" stroke="#ffffff" stroke-width="3.5" stroke-linecap="round"/><path d="M269.0777,194.68622v42l35,-1l1,34l-17,1h-91l1,-35l32,1v-43" fill="none" stroke="#ffffff" stroke-width="3.5" stroke-linecap="round"/><path d="M182.3886,130.33744h-20v34l-42,-2v-59l65,2" fill="none" stroke="#ffffff" stroke-width="3.5" stroke-linecap="round"/><path d="M145.59611,163.791l-1,59l23,-1v51l-64,-1v-49l27,2v-62" fill="none" stroke="#ffffff" stroke-width="3.5" stroke-linecap="round"/><path d="M182.59611,175.79101h-35" fill="none" stroke="#ffffff" stroke-width="3.5" stroke-linecap="round"/><path d="M147.59611,186.79101h35" fill="none" stroke="#ffffff" stroke-width="3.5" stroke-linecap="round"/><path d="M309.5961,162.60985h16l-1,-12l40,-1l5,72l-47,-1l-1,-29h-11" fill="none" stroke="#ffffff" stroke-width="3.5" stroke-linecap="round"/><path d="M356.59611,115.57939h-23v25l-19,3l-6,-2" fill="none" stroke="#ffffff" stroke-width="3.5" stroke-linecap="round"/><path d="M275.43821,122.24606v-19.66667h34.15789v19.66667z" fill="#434343" stroke="#ffffff" stroke-width="3.5" stroke-linecap="butt"/><text transform="translate(280.5961,119.24606) scale(0.5,0.5)" font-size="40" xml:space="preserve" fill="#ffffff" fill-rule="nonzero" stroke="none" stroke-width="1" stroke-linecap="butt" stroke-linejoin="miter" stroke-miterlimit="10" stroke-dasharray="" stroke-dashoffset="0" font-family="Sans Serif" font-weight="normal" text-anchor="start" style="mix-blend-mode: normal"><tspan x="0" dy="0">1a</tspan></text><path d="M391.92944,114.29656v-13.05051h22.66667v13.05051z" fill="#434343" stroke="#ffffff" stroke-width="3.5" stroke-linecap="butt"/><text transform="translate(395.26069,113.24018) scale(0.34832,0.34832)" font-size="40" xml:space="preserve" fill="#ffffff" fill-rule="nonzero" stroke="none" stroke-width="1" stroke-linecap="butt" stroke-linejoin="miter" stroke-miterlimit="10" stroke-dasharray="" stroke-dashoffset="0" font-family="Sans Serif" font-weight="normal" text-anchor="start" style="mix-blend-mode: normal"><tspan x="0" dy="0">2F</tspan></text><path d="M122.10488,123.24606v-19.66667h34.15789v19.66667z" fill="#434343" stroke="#ffffff" stroke-width="3.5" stroke-linecap="butt"/><text transform="translate(127.36747,118.25502) scale(0.39899,0.39899)" font-size="40" xml:space="preserve" fill="#ffffff" fill-rule="nonzero" stroke="none" stroke-width="1" stroke-linecap="butt" stroke-linejoin="miter" stroke-miterlimit="10" stroke-dasharray="" stroke-dashoffset="0" font-family="Sans Serif" font-weight="normal" text-anchor="start" style="mix-blend-mode: normal"><tspan x="0" dy="0">3H</tspan></text><path d="M118.81249,253.97641v-18.33333h30.33333v18.33333z" fill="#434343" stroke="#ffffff" stroke-width="3.5" stroke-linecap="butt"/><text transform="translate(125.81361,249.70583) scale(0.33388,0.33388)" font-size="40" xml:space="preserve" fill="#ffffff" fill-rule="nonzero" stroke="none" stroke-width="1" stroke-linecap="butt" stroke-linejoin="miter" stroke-miterlimit="10" stroke-dasharray="" stroke-dashoffset="0" font-family="Sans Serif" font-weight="normal" text-anchor="start" style="mix-blend-mode: normal"><tspan x="0" dy="0">5Z</tspan></text><path d="M274.8125,256.47641v-18.33333h30.33333v18.33333z" fill="#434343" stroke="#ffffff" stroke-width="3.5" stroke-linecap="butt"/><text transform="translate(280.00324,251.09238) scale(0.2883,0.2883)" font-size="40" xml:space="preserve" fill="#ffffff" fill-rule="nonzero" stroke="none" stroke-width="1" stroke-linecap="butt" stroke-linejoin="miter" stroke-miterlimit="10" stroke-dasharray="" stroke-dashoffset="0" font-family="Sans Serif" font-weight="normal" text-anchor="start" style="mix-blend-mode: normal"><tspan x="0" dy="0">7G</tspan></text><path d="M139.03577,198.57964v-16.1h21v16.1z" fill="#434343" stroke="#ffffff" stroke-width="3.5" stroke-linecap="butt"/><text transform="translate(141.14302,194.17377) scale(0.28892,0.28892)" font-size="40" xml:space="preserve" fill="#ffffff" fill-rule="nonzero" stroke="none" stroke-width="1" stroke-linecap="butt" stroke-linejoin="miter" stroke-miterlimit="10" stroke-dasharray="" stroke-dashoffset="0" font-family="Sans Serif" font-weight="normal" text-anchor="start" style="mix-blend-mode: normal"><tspan x="0" dy="0">10J</tspan></text><path d="M337.85761,177.21828v-20.5h34v20.5z" fill="#434343" stroke="#ffffff" stroke-width="3.5" stroke-linecap="butt"/><text transform="translate(340.80444,172.99607) scale(0.39583,0.39583)" font-size="40" xml:space="preserve" fill="#ffffff" fill-rule="nonzero" stroke="none" stroke-width="1" stroke-linecap="butt" stroke-linejoin="miter" stroke-miterlimit="10" stroke-dasharray="" stroke-dashoffset="0" font-family="Sans Serif" font-weight="normal" text-anchor="start" style="mix-blend-mode: normal"><tspan x="0" dy="0">M8</tspan></text><path d="M284.29431,315.13518l10.51051,-6.00601l-13.51351,-36.03604l3.003,54.05405l-66.06607,-1.5015v-51.05105l-1.5015,51.05105l22.52252,4.5045l-54.05405,4.5045v-16.51652l12.01201,3.003v-48.04805" fill="none" stroke="#ffffff" stroke-width="3.5" stroke-linecap="round"/><path d="M303.81381,252.0721l13.51351,73.57357h-33.03303" fill="none" stroke="#ffffff" stroke-width="3.5" stroke-linecap="round"/><path d="M176.31249,302.47641v-18.33333h30.33333v18.33333z" fill="#434343" stroke="#ffffff" stroke-width="3.5" stroke-linecap="butt"/><path d="M304.8125,323.97641v-18.33333h30.33333v18.33333z" fill="#434343" stroke="#ffffff" stroke-width="3.5" stroke-linecap="butt"/><text transform="translate(180.81521,297.64459) scale(0.39821,0.39821)" font-size="40" xml:space="preserve" fill="#ffffff" fill-rule="nonzero" stroke="none" stroke-width="1" stroke-linecap="butt" stroke-linejoin="miter" stroke-miterlimit="10" stroke-dasharray="" stroke-dashoffset="0" font-family="Sans Serif" font-weight="normal" text-anchor="start" style="mix-blend-mode: normal"><tspan x="0" dy="0">9B</tspan></text><text transform="translate(230.81521,306.16785) scale(0.5,0.5)" font-size="40" xml:space="preserve" fill="#ffffff" fill-rule="nonzero" stroke="none" stroke-width="1" stroke-linecap="butt" stroke-linejoin="miter" stroke-miterlimit="10" stroke-dasharray="" stroke-dashoffset="0" font-family="Sans Serif" font-weight="normal" text-anchor="start" style="mix-blend-mode: normal"><tspan x="0" dy="0">YOU</tspan></text><text transform="translate(309.31521,320.14459) scale(0.39821,0.39821)" font-size="40" xml:space="preserve" fill="#ffffff" fill-rule="nonzero" stroke="none" stroke-width="1" stroke-linecap="butt" stroke-linejoin="miter" stroke-miterlimit="10" stroke-dasharray="" stroke-dashoffset="0" font-family="Sans Serif" font-weight="normal" text-anchor="start" style="mix-blend-mode: normal"><tspan x="0" dy="0">3S</tspan></text><path d="M342.43269,222.68622l32,92l-37,22l-113,4v-6" fill="none" stroke="#ffffff" stroke-width="3.5" stroke-linecap="round"/><path d="M357.43269,221.68622l33,88v18l-59,23l-126,-1v-15" fill="none" stroke="#ffffff" stroke-width="3.5" stroke-linecap="round"/><path d="M259.5,105.77629v-38l-65,4v-49l173,9l-5,35h-52l1.09611,33.8031l47,1v28l55,-2v-28l-57,3" fill="none" stroke="#ffffff" stroke-width="3.5" stroke-linecap="round"/><path d="M197.34215,31.77629l-39,2v40l-73,2l-4,-74h81v15l35,5" fill="none" stroke="#ffffff" stroke-width="3.5" stroke-linecap="round"/><path d="M197.10488,44.24606v-19.66667h34.15789v19.66667z" fill="#434343" stroke="#ffffff" stroke-width="3.5" stroke-linecap="butt"/><path d="M374.55767,158.49283l15.99251,-0.55147v-6.06612l38.05115,-4.96319l5.51466,45.2202l-42.46287,1.6544l-1.6544,-12.13225l-22.05864,1.6544" fill="none" stroke="#ffffff" stroke-width="3.5" stroke-linecap="round"/><path d="M411.50589,171.17655v-21.50717h29.22769v21.50717z" fill="#434343" stroke="#ffffff" stroke-width="3.5" stroke-linecap="butt"/></g></g></svg>