<svg version="1.1" xmlns="http://www.w3.org/2000/svg" xmlns:xlink="http://www.w3.org/1999/xlink" width="270.46201" height="389.99407" viewBox="0,0,270.46201,389.99407"><g transform="translate(-104.769,16.22526)"><g data-paper-data="{&quot;isPaintingLayer&quot;:true}" fill-rule="nonzero" stroke-linejoin="miter" stroke-miterlimit="10" stroke-dasharray="" stroke-dashoffset="0" style="mix-blend-mode: normal"><g stroke-linecap="butt"><g><path d="M108.2029,195.62812l63.83258,-105.28157l18.29894,11.09471l-63.83258,105.28157z" fill="#7c7c7c" stroke="#000000" stroke-width="0"/><path d="M111.98799,187.44685c2.89584,-4.77623 57.13134,-101.63115 62.669,-98.27365c3.04185,1.84429 -29.78801,51.59656 -41.95918,80.58606c-9.98632,23.78557 0.64896,27.69354 -0.65619,29.84617c-2.89585,4.77623 -9.73255,5.92634 -15.27021,2.56884c-5.53766,-3.3575 -7.67927,-9.95119 -4.78343,-14.72742z" fill="#4c4c4c" stroke="none" stroke-width="0"/><path d="M108.2029,195.62812l63.83257,-105.28157l18.29894,11.09471l-63.83257,105.28157z" fill="none" stroke="#000000" stroke-width="5"/></g><g><path d="M159.16913,97.72232c5.9862,-9.87328 7.96316,-22.64879 16.14751,-24.79186c5.01301,-1.31265 16.48384,5.15231 20.50674,7.59141c4.64489,2.81621 17.92115,4.66191 18.73509,10.80445c1.04192,7.863 -11.61748,20.71104 -17.03677,29.64929c-9.65281,15.92076 -26.06348,23.62167 -36.65425,17.20045c-2.00084,-1.21312 13.92584,-31.26794 12.63066,-33.22197c-2.87227,-4.33339 -32.83115,32.05474 -36.70547,32.89215c-3.62594,0.78372 18.59154,-33.88126 22.37649,-40.12393z" fill="#5d9000" stroke="#000000" stroke-width="0"/><path d="M171.17218,119.79945c0.58385,-0.96297 7.24288,-20.13974 -0.33763,-14.85206c-7.41157,5.16984 -29.05404,34.84643 -29.57601,30.54498c-1.24816,-10.28587 26.71657,-55.86608 33.05165,-59.45131c2.04781,-1.15892 -18.04881,26.0091 -18.01293,32.55454c0.03358,6.12559 15.62211,-12.30581 19.9295,-11.81519c7.27104,0.82819 -2.70169,37.30127 -1.72979,37.89054c5.6761,3.44144 21.30115,-9.12336 17.23018,-2.40895c-4.07097,6.71441 -17.41229,11.55462 -23.08839,8.11318c-1.18179,-0.71652 -3.90599,-0.18613 -4.32606,-1.41124c-1.59752,-4.65907 3.63609,-13.84804 6.85947,-19.16449z" fill="#517c00" stroke="none" stroke-width="0"/><path d="M159.16912,97.72233c5.9862,-9.87327 7.96316,-22.64879 16.14751,-24.79186c5.013,-1.31266 16.48384,5.15231 20.50674,7.59141c4.64489,2.81621 17.92115,4.66191 18.73509,10.80445c1.04191,7.863 -11.61748,20.71104 -17.03677,29.64929c-9.65281,15.92077 -26.06348,23.62167 -36.65425,17.20045c-2.00084,-1.21312 13.92584,-31.26794 12.63066,-33.22197c-2.87227,-4.33339 -32.83115,32.05474 -36.70547,32.89215c-3.62593,0.78372 18.59155,-33.88127 22.3765,-40.12393z" fill="none" stroke="#000000" stroke-width="5"/></g></g><g data-paper-data="{&quot;index&quot;:null}" stroke-linecap="butt"><g><path d="M353.49817,208.96274l-63.83258,-105.28158l18.29894,-11.09471l63.83258,105.28158z" fill="#7c7c7c" stroke="#000000" stroke-width="0"/><path d="M368.01203,189.68676c2.89585,4.77623 0.75423,11.36993 -4.78343,14.72743c-5.53766,3.3575 -12.37436,2.20739 -15.2702,-2.56884c-1.30515,-2.15263 9.33013,-6.06059 -0.65619,-29.84617c-12.17117,-28.9895 -45.00103,-78.74177 -41.95918,-80.58606c5.53766,-3.3575 59.77316,93.49742 62.66901,98.27365z" fill="#4c4c4c" stroke="none" stroke-width="0"/><path d="M353.49817,208.96273l-63.83258,-105.28157l18.29894,-11.09471l63.83258,105.28157z" fill="none" stroke="#000000" stroke-width="5"/></g><g><path d="M320.83088,99.96222c3.78495,6.24266 26.00243,40.90765 22.37649,40.12393c-3.87432,-0.8374 -33.83319,-37.22554 -36.70547,-32.89215c-1.29518,1.95404 14.6315,32.00885 12.63066,33.22196c-10.59077,6.42122 -27.00144,-1.27969 -36.65426,-17.20045c-5.41929,-8.93824 -18.07868,-21.78629 -17.03678,-29.64929c0.81394,-6.14254 14.09021,-7.98824 18.7351,-10.80445c4.0229,-2.4391 15.49374,-8.90406 20.50674,-7.59141c8.18435,2.14307 10.16132,14.91858 16.14751,24.79186z" fill="#5d9000" stroke="#000000" stroke-width="0"/><path d="M308.82784,122.03936c3.22338,5.31644 8.457,14.50542 6.85948,19.16449c-0.42007,1.22511 -3.14427,0.69472 -4.32605,1.41124c-5.6761,3.44144 -19.01742,-1.39877 -23.08839,-8.11318c-4.07097,-6.71441 11.55408,5.8504 17.23017,2.40896c0.9719,-0.58927 -9.00083,-37.06235 -1.72979,-37.89055c4.30739,-0.49062 19.89592,17.94079 19.9295,11.81519c0.03588,-6.54543 -20.06074,-33.71347 -18.01292,-32.55454c6.33508,3.58523 34.29981,49.16544 33.05165,59.45131c-0.52196,4.30145 -22.16443,-25.37515 -29.576,-30.54498c-7.58051,-5.28768 -0.92149,13.88909 -0.33764,14.85206z" fill="#517c00" stroke="none" stroke-width="0"/><path d="M320.83086,99.96223c3.78495,6.24266 26.00243,40.90765 22.3765,40.12393c-3.87431,-0.8374 -33.8332,-37.22553 -36.70547,-32.89215c-1.29518,1.95403 14.6315,32.00885 12.63066,33.22196c-10.59077,6.42122 -27.00144,-1.27968 -36.65426,-17.20045c-5.41929,-8.93824 -18.07868,-21.78629 -17.03677,-29.64929c0.81394,-6.14254 14.09019,-7.98824 18.73509,-10.80445c4.0229,-2.4391 15.49374,-8.90407 20.50674,-7.59141c8.18435,2.14307 10.16131,14.91859 16.14751,24.79186z" fill="none" stroke="#000000" stroke-width="5"/></g></g><g stroke-linecap="butt"><path d="M189.90458,142.78207c0,-19.27905 23.82883,-34.9078 46.69368,-34.9078c22.86485,0 45.18133,5.93635 45.18133,25.21539c0,4.51121 -1.194,35.54646 -4.572,38.65007c-3.5054,3.22067 -13.0418,-11.82625 -16.54966,-8.65145c-7.55807,6.84045 -12.09715,14.60158 -24.05967,14.60158c-7.40325,0 -8.49231,-12.23952 -14.50563,-15.10982c-4.82738,-2.30423 -14.64345,7.21939 -19.08091,5.46627c-7.10687,-2.80773 -13.10713,-17.23859 -13.10713,-25.26425z" fill="#3e5f00" stroke="#000000" stroke-width="5"/><g><path d="M229.9888,184.28447v-74.60727h21.00273v74.60727z" fill="#707070" stroke="#000000" stroke-width="0"/><path d="M228.84429,177.12068c0,-4.77908 -0.42094,-57.32798 5.37805,-57.32798c3.87692,0 -4.3312,37.60853 -0.69134,55.56772c1.80454,8.90367 17.33767,3.42122 17.33767,5.00524c0,4.77907 -5.7254,5.4083 -11.52439,5.4083c-5.79899,0 -10.5,-3.87421 -10.5,-8.65328z" fill="#474747" stroke="none" stroke-width="0"/><path d="M230.05936,184.36962v-74.60727h21.00273v74.60727z" fill="none" stroke="#000000" stroke-width="3.5"/></g><g><path d="M200.69458,133.89661v-10.55274h76.44403v10.55274z" fill="#707070" stroke="#000000" stroke-width="0"/><path d="M216.10337,124.77466c14.11091,0 -15.76435,5.3195 -2.51626,7.85971c6.56804,1.25937 63.10424,0.48391 63.10424,0.70796c0,0.67597 -20.83885,0.76497 -41.94552,0.76497c-21.10667,0 -33.55036,0.11868 -33.55036,-0.55729c0,-0.67597 -6.19877,-8.77535 14.9079,-8.77535z" fill="#474747" stroke="none" stroke-width="0"/><path d="M200.9514,133.90866v-10.55274h76.44403v10.55274z" fill="none" stroke="#000000" stroke-width="3.5"/></g><g><path d="M202.02792,161.56328v-10.55274h76.44403v10.55274z" fill="#707070" stroke="#000000" stroke-width="0"/><path d="M202.52879,161.21668c0,-0.67597 -6.19877,-8.77536 14.9079,-8.77536c14.1109,0 -15.76434,5.31949 -2.51626,7.85971c6.56803,1.25937 63.10424,0.48391 63.10424,0.70796c0,0.67597 -20.83885,0.76497 -41.94552,0.76497c-21.10667,0 -33.55036,0.11868 -33.55036,-0.55729z" fill="#474747" stroke="none" stroke-width="0"/><path d="M202.28473,161.57532v-10.55274h76.44403v10.55274z" fill="none" stroke="#000000" stroke-width="3.5"/></g><path d="M194.14319,90.8217c5.68521,0.54215 16.73908,6.061 22.10425,3.18064c4.4475,-2.3877 -15.30273,-10.24127 -12.56233,-16.6529c2.42625,-5.67664 27.20968,-10.12222 32.64566,-10.12222c27.06437,0 49.00437,14.71582 49.00437,32.8687c0,10.0781 3.02316,41.52994 -8.83531,57.14743c-5.04245,6.64086 -1.07032,-6.84141 -10.07262,-5.86137c-0.86175,0.09381 11.77509,-22.09272 6.74923,-19.58992c-0.59328,0.29544 -5.85598,0.51254 -11.68034,-4.07521c-6.22396,-4.90251 -13.05944,-14.59704 -14.55995,-13.11328c-3.08251,3.04809 0.12258,12.81296 -0.35436,20.13746c-0.86194,13.23716 -3.74102,25.37113 -6.51059,24.18652c-9.51341,-4.06911 -17.92577,-25.83456 -20.3216,-24.48143c-8.42528,4.75848 15.62438,33.48521 12.16446,33.48521c-9.10844,0 -28.9141,4.16342 -35.55695,-3.99537c-13.09537,-16.08383 -9.03071,-51.79645 -9.03071,-63.84003c0,-5.42079 0.61328,-9.86582 6.81679,-9.27423z" fill="#5d9000" stroke="#000000" stroke-width="0"/><path d="M191.89467,157.97377c0,-1.9436 -6.58404,-59.99217 -2.27003,-64.73121c0.31715,-0.3484 4.64886,-0.9016 9.48964,0.2842c6.24552,1.5299 13.57893,4.6718 16.74989,1.44982c1.46698,-1.49058 -6.47046,-8.62865 -9.05347,-13.73692c-2.31958,-4.5873 0.63619,-7.21081 2.50036,-8.13444c16.23465,-8.04371 39.04585,-8.91365 41.82522,-4.75595c1.22779,1.83666 -39.30222,7.33447 -40.15378,10.81982c-0.86088,3.5235 9.49503,9.53613 9.66005,13.83644c0.23356,6.08654 -29.65824,6.48387 -29.79825,12.18924c-0.12293,5.00895 2.69245,50.86313 9.14108,55.66355c3.23565,2.40864 15.68055,5.99321 19.25548,0.23035c2.43462,-3.92465 -7.88126,-22.23386 -6.37051,-26.64346c1.9169,-5.59506 8.37254,-2.9376 8.68725,-2.9376c0.41595,0 4.71203,0.54605 6.27115,2.92788c3.91125,5.97512 7.19983,17.11799 10.70275,13.28872c2.27824,-2.4905 -0.50478,-17.50126 0.82986,-23.66317c2.60925,-12.04668 8.36066,-16.82575 10.21271,-14.09503c0.1071,0.15791 8.31301,6.69237 15.97528,11.43515c6.60569,4.08878 12.8383,6.41227 12.76445,7.27863c-0.0215,0.2522 -1.35042,28.29237 -1.76858,28.58017c-0.66415,0.45711 -5.34782,-3.34527 -6.50849,-8.19242c-0.89743,-3.74782 3.17655,-10.69726 2.95512,-14.43484c-0.23534,-3.97242 -4.7756,-4.64502 -6.16439,-5.46711c-7.96774,-4.71647 -16.69938,-15.87505 -19.46179,-13.83952c-3.27318,2.41189 -0.04595,9.16666 -0.69991,14.49007c-1.41141,11.48917 -3.25085,23.81261 -3.21858,24.25511c0.09847,1.35025 -1.44471,4.11927 -4.51354,1.44003c-5.96803,-5.21039 -16.02809,-18.94473 -19.24868,-19.14416c-2.96883,-0.18384 7.40953,20.57815 7.40953,21.60667c0,0.28818 3.47164,6.00154 3.41956,6.28276c-0.84374,4.55588 -11.86443,2.69203 -21.01947,2.69203c-9.72016,0 -17.59991,-4.01815 -17.59991,-8.97479z" fill="#517c00" stroke="none" stroke-width="0"/><path d="M187.3264,100.09591c0,-5.42077 0.61328,-9.86581 6.81679,-9.27422c5.68522,0.54216 16.73908,6.061 22.10425,3.18064c4.4475,-2.38769 -15.30273,-10.24126 -12.56233,-16.6529c2.42625,-5.67664 27.20969,-10.12222 32.64566,-10.12222c27.06437,0 49.00437,14.71582 49.00437,32.8687c0,10.0781 3.02316,41.52994 -8.83531,57.14743c-5.04245,6.64086 -1.07031,-6.84141 -10.07262,-5.86137c-0.86174,0.09382 11.7751,-22.09271 6.74924,-19.58991c-0.59328,0.29544 -5.85598,0.51254 -11.68034,-4.07521c-6.22396,-4.90251 -13.05944,-14.59703 -14.55995,-13.11328c-3.08251,3.04809 0.12258,12.81296 -0.35436,20.13746c-0.86194,13.23716 -3.74103,25.37113 -6.5106,24.18652c-9.51341,-4.06911 -17.92576,-25.83456 -20.32159,-24.48143c-8.42529,4.75848 15.62438,33.48521 12.16446,33.48521c-9.10844,0 -28.9141,4.16342 -35.55695,-3.99537c-13.09538,-16.08383 -9.03072,-51.79646 -9.03072,-63.84003z" fill="none" stroke="#000000" stroke-width="5"/></g><g><path d="M196.78529,30.77099c0,-10.1677 -6.1501,-25.88811 5.87459,-22.71339c10.3393,2.72975 6.40947,-10.79558 13.84518,-15.28776c4.07055,-2.45916 15.48976,0.88 21.21585,0.18193c9.0624,-1.10481 12.63431,-5.30637 16.876,-5.30637c21.24273,0 19.11513,20.2092 19.11513,43.1256c0,22.9164 -17.22064,41.49382 -38.46337,41.49382c-21.24273,0 -38.46337,-18.57742 -38.46337,-41.49382z" fill="#3e5f00" stroke="none" stroke-width="0" stroke-linecap="butt"/><path d="M197.12307,30.64256c0,-10.1677 -6.1501,-25.88812 5.87459,-22.7134c10.3393,2.72975 6.40947,-10.79558 13.84518,-15.28776c4.07054,-2.45916 15.48975,0.88 21.21584,0.18193c9.0624,-1.1048 12.6343,-5.30637 16.876,-5.30637c21.24274,0 19.11513,20.2092 19.11513,43.1256c0,22.9164 -17.22063,41.49381 -38.46337,41.49381c-21.24273,0 -38.46337,-18.57742 -38.46337,-41.49382z" fill="none" stroke="#000000" stroke-width="3" stroke-linecap="butt"/><path d="M202.48153,42.52149v-30.57041h75.98931v30.57041z" fill="#888888" stroke="#000000" stroke-width="0" stroke-linecap="butt"/><path d="M207.0422,10.72342c4.48206,0 2.6742,8.11233 5.77636,14.23999c1.77841,3.51288 5.65311,6.83317 9.1531,8.58553c9.15904,4.58571 29.82791,-4.08549 29.82791,-1.72894c0,4.8279 -11.16732,8.74168 -24.94291,8.74168c-5.56147,0 -14.4276,1.46009 -18.57563,0.38167c-6.12651,-1.5928 -6.36728,-6.24457 -6.36728,-9.12335c0,-4.8279 -8.64714,-21.09658 5.12845,-21.09658z" fill="#474747" stroke="none" stroke-width="0" stroke-linecap="butt"/><path d="M202.48153,42.52149v-30.57041h75.98931v30.57041z" fill="none" stroke="#000000" stroke-width="5" stroke-linecap="butt"/><g stroke-width="3.5"><path d="M272.49766,79.80993v-48.67912h12.70311v48.67912z" fill="#707070" stroke="#000000" stroke-linecap="butt"/><path d="M273.95715,40.68734c2.59813,0 1.2177,18.40715 3.91962,28.60246c1.50303,5.67147 8.15319,5.25276 8.15319,6.2099c0,2.67777 -3.27784,4.84852 -7.32126,4.84852c-4.04342,0 -7.32126,-2.17076 -7.32126,-4.84852c0,-2.67776 -1.47371,-34.81236 2.56971,-34.81236z" fill="#494949" stroke="none" stroke-linecap="butt"/><path d="M272.55108,79.96034v-48.67912h12.70312v48.67912z" fill="none" stroke="#000000" stroke-linecap="butt"/><path d="M284.96329,72.00877l-11.15158,-0.29091" fill="none" stroke="#000000" stroke-linecap="round"/><path d="M284.47844,61.63294h-11.24856" fill="none" stroke="#000000" stroke-linecap="round"/><path d="M273.42382,52.51773l11.05462,-0.09697" fill="none" stroke="#000000" stroke-linecap="round"/><path d="M284.86632,45.05101l-11.05462,-0.29091" fill="none" stroke="#000000" stroke-linecap="round"/></g><g stroke-width="3.5"><path d="M260.91464,81.51186v-48.67912h12.70312v48.67912z" fill="#707070" stroke="#000000" stroke-linecap="butt"/><path d="M259.80445,77.20164c0,-2.67777 -1.47371,-34.81236 2.56971,-34.81236c2.59813,0 1.2177,18.40715 3.91962,28.60246c1.50303,5.67146 8.15319,5.25274 8.15319,6.20989c0,2.67776 -3.27785,4.84852 -7.32127,4.84852c-4.04342,0 -7.32126,-2.17076 -7.32126,-4.84852z" fill="#494949" stroke="none" stroke-linecap="butt"/><path d="M260.96808,81.66227v-48.67913h12.70312v48.67913z" fill="none" stroke="#000000" stroke-linecap="butt"/><path d="M262.2287,73.41979l11.15159,0.29091" fill="none" stroke="#000000" stroke-linecap="round"/><path d="M261.64687,63.33487h11.24856" fill="none" stroke="#000000" stroke-linecap="round"/><path d="M261.84081,54.21965l11.05462,-0.09697" fill="none" stroke="#000000" stroke-linecap="round"/><path d="M262.22869,46.46203l11.05462,0.29091" fill="none" stroke="#000000" stroke-linecap="round"/></g><g stroke-width="3.5"><path d="M246.92619,90.00212v-50.98096h12.70312v50.98096z" fill="#707070" stroke="#000000" stroke-linecap="butt"/><path d="M248.38571,49.02958c2.59813,0 1.2177,19.27755 3.91962,29.95496c1.50303,5.93964 8.15319,5.50113 8.15319,6.50353c0,2.80438 -3.27784,5.07778 -7.32126,5.07778c-4.04342,0 -7.32126,-2.2734 -7.32126,-5.07778c0,-2.80438 -1.47371,-36.45849 2.56971,-36.45849z" fill="#494949" stroke="none" stroke-linecap="butt"/><path d="M246.97964,90.15963v-50.98096h12.70312v50.98096z" fill="none" stroke="#000000" stroke-linecap="butt"/><path d="M259.39184,81.83207l-11.15159,-0.30467" fill="none" stroke="#000000" stroke-linecap="round"/><path d="M258.90698,70.9656h-11.24856" fill="none" stroke="#000000" stroke-linecap="round"/><path d="M247.85237,61.41937l11.05462,-0.10156" fill="none" stroke="#000000" stroke-linecap="round"/><path d="M259.29486,53.59959l-11.05462,-0.30467" fill="none" stroke="#000000" stroke-linecap="round"/></g><g stroke-width="3.5"><path d="M235.34318,86.00825v-48.67912h12.70312v48.67912z" fill="#707070" stroke="#000000" stroke-linecap="butt"/><path d="M236.80269,46.88565c2.59813,0 1.2177,18.40716 3.91962,28.60247c1.50303,5.67146 8.15319,5.25274 8.15319,6.20989c0,2.67776 -3.27784,4.84852 -7.32126,4.84852c-4.04342,0 -7.32126,-2.17076 -7.32126,-4.84852c0,-2.67776 -1.47371,-34.81236 2.56971,-34.81236z" fill="#494949" stroke="none" stroke-linecap="butt"/><path d="M235.39663,86.15865v-48.67912h12.70312v48.67912z" fill="none" stroke="#000000" stroke-linecap="butt"/><path d="M236.65724,77.91617l11.15159,0.29091" fill="none" stroke="#000000" stroke-linecap="round"/><path d="M247.32398,67.83125h-11.24856" fill="none" stroke="#000000" stroke-linecap="round"/><path d="M247.32398,58.61907l-11.05462,0.09697" fill="none" stroke="#000000" stroke-linecap="round"/><path d="M247.71186,51.24932l-11.05462,-0.29091" fill="none" stroke="#000000" stroke-linecap="round"/></g><g stroke-width="3.5"><path d="M221.43289,91.49202v-48.67912h12.70312v48.67912z" fill="#707070" stroke="#000000" stroke-linecap="butt"/><path d="M222.89239,52.36943c2.59813,0 1.2177,18.40716 3.91962,28.60247c1.50303,5.67146 8.15319,5.25274 8.15319,6.20989c0,2.67776 -3.27784,4.84852 -7.32126,4.84852c-4.04342,0 -7.32126,-2.17076 -7.32126,-4.84852c0,-2.67776 -1.47371,-34.81236 2.56971,-34.81236z" fill="#494949" stroke="none" stroke-linecap="butt"/><path d="M221.48633,91.64242v-48.67912h12.70312v48.67912z" fill="none" stroke="#000000" stroke-linecap="butt"/><path d="M233.89852,83.69085l-11.15159,-0.29091" fill="none" stroke="#000000" stroke-linecap="round"/><path d="M222.16512,73.31503h11.24856" fill="none" stroke="#000000" stroke-linecap="round"/><path d="M233.41368,64.10284l-11.05462,0.09697" fill="none" stroke="#000000" stroke-linecap="round"/><path d="M233.80156,56.73309l-11.05462,-0.29091" fill="none" stroke="#000000" stroke-linecap="round"/></g><g stroke-width="3.5"><path d="M208.97714,84.8545v-48.67912h12.70312v48.67912z" fill="#707070" stroke="#000000" stroke-linecap="butt"/><path d="M210.43665,45.73191c2.59813,0 1.2177,18.40716 3.91962,28.60247c1.50303,5.67146 8.15319,5.25274 8.15319,6.20989c0,2.67776 -3.27784,4.84852 -7.32126,4.84852c-4.04342,0 -7.32126,-2.17076 -7.32126,-4.84852c0,-2.67776 -1.47371,-34.81236 2.56971,-34.81236z" fill="#494949" stroke="none" stroke-linecap="butt"/><path d="M209.03058,85.0049v-48.67912h12.70312v48.67912z" fill="none" stroke="#000000" stroke-linecap="butt"/><path d="M210.2912,76.76242l11.15159,0.29091" fill="none" stroke="#000000" stroke-linecap="round"/><path d="M209.70937,66.6775h11.24856" fill="none" stroke="#000000" stroke-linecap="round"/><path d="M209.90332,57.56229l11.05462,-0.09697" fill="none" stroke="#000000" stroke-linecap="round"/><path d="M210.2912,49.80466l11.05462,0.29091" fill="none" stroke="#000000" stroke-linecap="round"/></g><g stroke-width="3.5"><path d="M197.39414,86.55643v-48.67912h12.70312v48.67912z" fill="#707070" stroke="#000000" stroke-linecap="butt"/><path d="M198.85364,47.43384c2.59813,0 1.2177,18.40716 3.91962,28.60247c1.50303,5.67146 8.15319,5.25274 8.15319,6.20989c0,2.67776 -3.27784,4.84852 -7.32126,4.84852c-4.04342,0 -7.32126,-2.17076 -7.32126,-4.84852c0,-2.67776 -1.47371,-34.81236 2.56971,-34.81236z" fill="#494949" stroke="none" stroke-linecap="butt"/><path d="M197.44757,86.70683v-48.67912h12.70312v48.67912z" fill="none" stroke="#000000" stroke-linecap="butt"/><path d="M209.85978,78.75526l-11.15159,-0.29091" fill="none" stroke="#000000" stroke-linecap="round"/><path d="M209.37492,68.37943h-11.24856" fill="none" stroke="#000000" stroke-linecap="round"/><path d="M198.32031,59.26422l11.05462,-0.09697" fill="none" stroke="#000000" stroke-linecap="round"/><path d="M209.76281,51.7975l-11.05462,-0.29091" fill="none" stroke="#000000" stroke-linecap="round"/></g><path d="M232.89353,36.40929c11.03149,-6.21577 9.74446,-50.13454 21.09733,-50.13454c26.23353,0 34.03847,16.81704 34.03847,49.42308c0,32.60604 -22.03571,32.5 -48.26924,32.5c-26.23353,0 -46.73076,0.10604 -46.73076,-32.5c0,-5.7047 -1.33968,-26.95112 5.49251,-20.71749c2.44786,2.2334 2.7459,17.14 6.71165,24.67607c5.45616,10.36828 14.68981,13.81846 17.29889,14.93458c7.36208,3.14939 4.15789,-14.68643 10.36115,-18.1817z" fill="#5d9000" stroke="#000000" stroke-width="0" stroke-linecap="butt"/><path d="M229.45017,46.54368c0,-6.57442 2.95665,-9.27289 8.04553,-15.5778c1.91541,-2.37312 -1.14087,-13.6073 3.73091,-13.6073c17.81516,0 32.25721,7.33565 32.25721,16.38462c0,9.04898 -14.44204,16.38462 -32.25721,16.38462c-17.81516,0 -11.77644,5.46484 -11.77644,-3.58413z" fill="#517c00" stroke="none" stroke-width="0" stroke-linecap="butt"/><path d="M198.47712,56.75779c0,-4.23123 46.7248,12.72771 67.31298,0.06716c5.9467,-3.65689 18.38901,-23.25136 13.84709,-35.77229c-3.16188,-8.71651 -0.61119,-17.86669 -7.03603,-23.61647c-7.91481,-7.0832 -24.41548,-9.80101 -21.13004,-9.80101c11.53843,0 27.8639,-0.38945 32.59801,15.99603c2.89063,10.00492 3.49066,25.27112 1.93285,37.24353c-0.98679,7.58391 -4.06571,14.45931 -4.06571,15.88304c0,7.35229 -18.68297,13.3125 -41.72957,13.3125c-23.04661,0 -41.72957,-5.96021 -41.72957,-13.3125z" fill="#517c00" stroke="none" stroke-width="0" stroke-linecap="butt"/><path d="M232.89353,36.40929c11.03148,-6.21577 9.74446,-50.13455 21.09734,-50.13455c26.23352,0 34.03846,16.81704 34.03846,49.42308c0,32.60604 -22.03571,32.5 -48.26923,32.5c-26.23352,0 -46.73077,0.10604 -46.73077,-32.5c0,-5.7047 -1.33968,-26.95112 5.49251,-20.7175c2.44786,2.2334 2.7459,17.14 6.71165,24.67607c5.45616,10.36828 14.68981,13.81845 17.29889,14.93458c7.36207,3.1494 4.15789,-14.68642 10.36115,-18.18169z" fill="none" stroke="#000000" stroke-width="5" stroke-linecap="butt"/><path d="M264.44368,7.15588c8.90759,0 16.12861,10.31575 16.12861,23.04087c0,12.72512 -7.22103,23.04087 -16.12861,23.04087c-8.90759,0 -16.12861,-10.31575 -16.12861,-23.04087c0,-12.72512 7.22103,-23.04087 16.12861,-23.04087z" fill="#69ff84" stroke="#000000" stroke-width="0" stroke-linecap="butt"/><path d="M264.33903,7.51744c8.90759,0 16.12861,10.31575 16.12861,23.04087c0,12.72512 -7.22103,23.04087 -16.12861,23.04087c-8.90759,0 -16.12861,-10.31575 -16.12861,-23.04087c0,-12.72512 7.22103,-23.04087 16.12861,-23.04087z" fill="none" stroke="#000000" stroke-width="5" stroke-linecap="butt"/><path d="M249.74726,24.03504c0,-7.98212 5.42711,-14.4529 12.12179,-14.4529c6.32508,0 19.44448,8.10715 19.99865,15.47667c0.03238,0.43062 1.6807,3.43091 1.6807,3.87157c0,7.98212 -20.11313,1.16555 -26.80781,1.16555c-6.69468,0 -6.99334,1.92123 -6.99334,-6.06089z" fill="#5d9000" stroke="#000000" stroke-width="0" stroke-linecap="butt"/><path d="M262.07003,9.22048c5.16493,0 -11.14685,7.67185 -6.71118,13.53901c3.05956,4.04697 27.9421,6.66617 27.9421,7.63161c0,2.36509 -10.0908,-0.18095 -18.81831,-0.18095c-8.72752,0 -15.80256,-1.91729 -15.80256,-4.28238c0,-2.36509 4.66244,-16.70729 13.38995,-16.70729z" fill="#517c00" stroke="none" stroke-width="0" stroke-linecap="butt"/><path d="M261.33236,9.28672c6.32509,0 19.44448,8.10715 19.99865,15.47667c0.03238,0.43062 1.6807,3.43091 1.6807,3.87157c0,7.98212 -20.11312,1.16556 -26.8078,1.16556c-6.69468,0 -6.99334,1.92122 -6.99334,-6.0609c0,-7.98212 5.42711,-14.4529 12.12179,-14.4529z" fill="none" stroke="#000000" stroke-width="5" stroke-linecap="butt"/><path d="M220.91232,17.71676c6.6303,0 12.00523,6.78389 12.00523,15.15224c0,8.36835 -5.37492,15.15224 -12.00523,15.15224c-6.6303,0 -12.00523,-6.78389 -12.00523,-15.15224c0,-8.36835 5.37492,-15.15224 12.00523,-15.15224z" fill="#000000" stroke="#000000" stroke-width="5" stroke-linecap="butt"/></g><g stroke-linecap="butt"><g><path d="M192.53214,331.96591l9.01371,-122.79072l21.3422,1.56667l-9.01371,122.79072z" fill="#7c7c7c" stroke="#000000" stroke-width="0"/><path d="M203.34777,206.93865c3.54774,0.26044 -3.08561,59.49798 -0.75272,90.85218c1.91411,25.72579 13.16368,24.37356 12.97937,26.8842c-0.40891,5.57055 -5.97614,9.70204 -12.43476,9.22793c-6.45862,-0.47411 -11.36286,-5.37427 -10.95395,-10.94483c0.40891,-5.57055 4.70344,-116.49359 11.16205,-116.01949z" fill="#4c4c4c" stroke="none" stroke-width="0"/><path d="M192.53214,331.96591l9.01371,-122.79071l21.3422,1.56666l-9.01371,122.79071z" fill="none" stroke="#000000" stroke-width="5"/></g><g><path d="M195.02489,180.63416c3.89505,-3.41789 17.04642,-2.77187 21.73559,-2.39169c5.41418,0.43897 18.11214,-3.8538 21.58971,1.27453c4.45161,6.56472 -1.11699,23.72057 -1.96169,34.13918c-1.50458,18.55759 -12.73173,32.79012 -25.07656,31.78925c-2.33222,-0.18909 -1.54472,-34.19396 -3.57761,-35.36147c-4.50827,-2.58915 -15.0083,43.3606 -18.09787,45.84378c-2.8915,2.32398 1.4575,-38.61944 2.04746,-45.89602c0.93306,-11.5085 -3.01816,-23.81744 3.34097,-29.39756z" fill="#5d9000" stroke="#000000" stroke-width="0"/><path d="M205.34954,211.27034c-4.31316,7.94073 -10.38108,44.1661 -12.77339,40.55338c-5.72065,-8.63894 -1.11869,-61.91561 2.94123,-67.95748c1.31237,-1.95304 -4.49621,31.33715 -1.53402,37.17405c2.77219,5.46251 8.46061,-17.99726 12.53193,-19.48677c6.87255,-2.51436 14.28228,34.56444 15.41515,34.65629c6.61618,0.53641 14.96348,-17.69376 14.32894,-9.8673c-0.63454,7.82646 -10.39768,18.12692 -17.01386,17.59051c-1.37751,-0.11168 -3.57608,1.5821 -4.50013,0.67465c-3.51417,-3.45102 -2.94775,-14.01072 -2.44532,-20.20768c0.091,-1.12245 -2.53905,-21.25138 -6.95053,-13.12965z" fill="#517c00" stroke="none" stroke-width="0"/><path d="M195.02489,180.63416c3.89504,-3.41788 17.04642,-2.77186 21.73559,-2.39168c5.41418,0.43896 18.11213,-3.85381 21.5897,1.27452c4.4516,6.56473 -1.11699,23.72058 -1.96169,34.13919c-1.50457,18.55758 -12.73173,32.79011 -25.07656,31.78924c-2.33222,-0.18909 -1.54472,-34.19396 -3.57761,-35.36147c-4.50827,-2.58915 -15.0083,43.36061 -18.09787,45.84378c-2.89149,2.32398 1.45751,-38.61944 2.04747,-45.89602c0.93307,-11.5085 -3.01816,-23.81744 3.34097,-29.39756z" fill="none" stroke="#000000" stroke-width="5"/></g><g><g><path d="M153.15709,357.84829l0.30272,-29.3689l62.90794,1.75167l-0.30272,29.36891z" fill="#252525" stroke="#000000" stroke-width="0"/><path d="M153.15709,357.84829l0.30272,-29.3689l62.90794,1.75167l-0.30272,29.36891z" fill="#252525" stroke="#000000" stroke-width="0"/><path d="M153.15709,357.84829l0.30272,-29.3689l62.90794,1.75167l-0.30272,29.36891z" fill="none" stroke="#000000" stroke-width="3.5"/><path d="M153.8453,330.60702c0.02201,-2.13472 0.94223,10.41263 4.74411,15.26291c3.62628,4.62626 10.03339,1.51593 14.35162,1.63618c4.19824,0.11692 21.96043,6.3261 32.32562,0.87232c6.29417,-3.31175 5.85422,-20.17558 9.52286,-18.69278c3.01915,1.22028 0.83631,28.72123 0.82611,29.71048c-0.04299,4.17085 -33.98471,0.60326 -42.83028,0.35695c-5.68484,-0.1583 -15.28107,3.74449 -18.98781,-5.52548c-2.06092,-5.15402 0.0324,-22.13023 0.04776,-23.62057z" fill="#141414" stroke="none" stroke-width="0"/><path d="M153.15709,357.84829l0.30272,-29.3689l62.90794,1.75167l-0.30272,29.36891z" fill="none" stroke="#000000" stroke-width="3.5"/></g><g><path d="M134.92652,365.46707l0.14835,-29.3689l30.8288,1.75167l-0.14835,29.36892z" fill="#252525" stroke="#000000" stroke-width="0"/><path d="M134.92652,365.46707l0.14835,-29.3689l30.8288,1.75167l-0.14835,29.36892z" fill="#6c6c6c" stroke="#000000" stroke-width="0"/><path d="M134.92652,365.46707l0.14835,-29.3689l30.8288,1.75167l-0.14835,29.36892z" fill="none" stroke="#000000" stroke-width="3.5"/><path d="M137.58869,353.48871c1.7771,4.62625 4.91698,1.51593 7.03319,1.63617c2.0574,0.11692 10.76197,6.3261 15.84156,0.87232c3.08453,-3.31174 2.86893,-20.17557 4.66679,-18.69277c1.47957,1.22028 0.40985,28.72123 0.40485,29.71048c-0.02108,4.17085 -16.65462,0.60327 -20.9895,0.35696c-2.78593,-0.15831 -7.48868,3.74448 -9.30521,-5.52549c-1.00998,-5.15403 0.01589,-22.13023 0.02341,-23.62057c0.01079,-2.13471 0.46175,10.41263 2.32491,15.2629z" fill="#545454" stroke="none" stroke-width="0"/><path d="M134.92652,365.46707l0.14835,-29.3689l30.8288,1.75167l-0.14835,29.36892z" fill="none" stroke="#000000" stroke-width="3.5"/></g><g><path d="M181.27407,368.16539l0.14835,-29.3689l30.8288,1.75167l-0.14836,29.36892z" fill="#252525" stroke="#000000" stroke-width="0"/><path d="M181.27407,368.16539l0.14835,-29.3689l30.8288,1.75167l-0.14836,29.36892z" fill="#6c6c6c" stroke="#000000" stroke-width="0"/><path d="M181.27407,368.16539l0.14835,-29.3689l30.8288,1.75167l-0.14836,29.36892z" fill="none" stroke="#000000" stroke-width="3.5"/><path d="M181.61134,340.92414c0.01078,-2.13471 0.46174,10.41263 2.3249,15.2629c1.77711,4.62626 4.917,1.51594 7.0332,1.63618c2.05739,0.11691 10.76196,6.32609 15.84155,0.87231c3.08454,-3.31174 2.86893,-20.17557 4.6668,-18.69277c1.47957,1.22027 0.40985,28.72123 0.40485,29.71048c-0.02107,4.17085 -16.65461,0.60326 -20.98949,0.35695c-2.78593,-0.15831 -7.48869,3.74448 -9.30522,-5.52549c-1.00997,-5.15403 0.01589,-22.13023 0.02341,-23.62057z" fill="#545454" stroke="none" stroke-width="0"/><path d="M181.27407,368.16539l0.14835,-29.3689l30.8288,1.75167l-0.14836,29.36892z" fill="none" stroke="#000000" stroke-width="3.5"/></g><g><path d="M155.87815,368.00666l0.14835,-29.3689l30.8288,1.75167l-0.14835,29.36892z" fill="#252525" stroke="#000000" stroke-width="0"/><path d="M155.87815,368.00666l0.14835,-29.3689l30.8288,1.75167l-0.14835,29.36892z" fill="#6c6c6c" stroke="#000000" stroke-width="0"/><path d="M155.87815,368.00666l0.14835,-29.3689l30.8288,1.75167l-0.14835,29.36892z" fill="none" stroke="#000000" stroke-width="3.5"/><path d="M156.21542,340.76541c0.01077,-2.13471 0.46174,10.41264 2.3249,15.26291c1.7771,4.62626 4.91699,1.51593 7.03319,1.63617c2.05739,0.11691 10.76196,6.3261 15.84155,0.87232c3.08454,-3.31174 2.86893,-20.17558 4.6668,-18.69278c1.47956,1.22027 0.40985,28.72123 0.40485,29.71048c-0.02107,4.17085 -16.65461,0.60326 -20.98949,0.35695c-2.78592,-0.15831 -7.48868,3.74448 -9.30521,-5.52549c-1.00997,-5.15403 0.01589,-22.13023 0.02341,-23.62057z" fill="#545454" stroke="none" stroke-width="0"/><path d="M155.87815,368.00666l0.14835,-29.3689l30.8288,1.75167l-0.14835,29.36892z" fill="none" stroke="#000000" stroke-width="3.5"/></g></g></g><g data-paper-data="{&quot;index&quot;:null}" stroke-linecap="butt"><g><path d="M262.97795,335.53258l-9.0137,-122.79072l21.34219,-1.56667l9.01371,122.79072z" fill="#7c7c7c" stroke="#000000" stroke-width="0"/><path d="M284.66657,324.95814c0.40891,5.57056 -4.49532,10.47073 -10.95394,10.94483c-6.45862,0.47411 -12.02585,-3.65738 -12.43476,-9.22794c-0.1843,-2.51063 11.06527,-1.15841 12.97938,-26.8842c2.33288,-31.3542 -4.30047,-90.59175 -0.75273,-90.85218c6.45862,-0.47411 10.75314,110.44893 11.16206,116.01948z" fill="#4c4c4c" stroke="none" stroke-width="0"/><path d="M262.97795,335.53257l-9.0137,-122.79071l21.3422,-1.56667l9.01371,122.79071z" fill="none" stroke="#000000" stroke-width="5"/></g><g><path d="M285.16837,212.03172c0.58996,7.27658 4.93896,48.22 2.04746,45.89602c-3.08957,-2.48318 -13.5896,-48.43293 -18.09787,-45.84378c-2.03289,1.16751 -1.24539,35.17238 -3.57761,35.36147c-12.34483,1.00087 -23.57198,-13.23166 -25.07656,-31.78925c-0.8447,-10.41861 -6.4133,-27.57446 -1.96169,-34.13918c3.47757,-5.12833 16.17553,-0.83556 21.58971,-1.27453c4.68917,-0.38018 17.84054,-1.0262 21.73559,2.39169c6.35913,5.58012 2.40791,17.88906 3.34097,29.39756z" fill="#5d9000" stroke="#000000" stroke-width="0"/><path d="M264.55222,226.39999c0.50243,6.19696 1.06885,16.75666 -2.44532,20.20768c-0.92405,0.90745 -3.12262,-0.78633 -4.50013,-0.67465c-6.61618,0.53641 -16.37932,-9.76405 -17.01386,-17.59051c-0.63454,-7.82646 7.71276,10.40371 14.32894,9.8673c1.13287,-0.09185 8.5426,-37.17065 15.41515,-34.65629c4.07132,1.48951 9.75974,24.94928 12.53193,19.48677c2.96219,-5.8369 -2.84639,-39.12709 -1.53402,-37.17405c4.05992,6.04187 8.66188,59.31854 2.94123,67.95748c-2.39231,3.61272 -8.46023,-32.61265 -12.77339,-40.55338c-4.41148,-8.12173 -7.04153,12.0072 -6.95053,13.12965z" fill="#517c00" stroke="none" stroke-width="0"/><path d="M285.16837,212.03172c0.58996,7.27658 4.93896,48.22 2.04747,45.89602c-3.08957,-2.48317 -13.5896,-48.43293 -18.09787,-45.84378c-2.03289,1.16751 -1.24539,35.17238 -3.57761,35.36147c-12.34483,1.00087 -23.57199,-13.23166 -25.07656,-31.78924c-0.8447,-10.41861 -6.41329,-27.57446 -1.96169,-34.13919c3.47757,-5.12833 16.17552,-0.83556 21.5897,-1.27452c4.68917,-0.38018 17.84055,-1.0262 21.73559,2.39168c6.35913,5.58012 2.4079,17.88906 3.34097,29.39756z" fill="none" stroke="#000000" stroke-width="5"/></g><g><g><path d="M260.78726,361.59997l-0.30272,-29.36891l62.90794,-1.75167l0.30272,29.3689z" fill="#252525" stroke="#000000" stroke-width="0"/><path d="M260.78726,361.59997l-0.30272,-29.36891l62.90794,-1.75167l0.30272,29.3689z" fill="#252525" stroke="#000000" stroke-width="0"/><path d="M260.78726,361.59997l-0.30272,-29.36891l62.90794,-1.75167l0.30272,29.3689z" fill="none" stroke="#000000" stroke-width="3.5"/><path d="M323.007,332.60703c0.01536,1.49034 2.10868,18.46655 0.04776,23.62057c-3.70674,9.26997 -13.30297,5.36718 -18.98781,5.52548c-8.84557,0.24631 -42.78729,3.8139 -42.83028,-0.35695c-0.0102,-0.98925 -2.19304,-28.4902 0.82611,-29.71048c3.66864,-1.4828 3.22869,15.38103 9.52286,18.69278c10.36519,5.45378 28.12738,-0.7554 32.32562,-0.87232c4.31823,-0.12025 10.72534,2.99008 14.35162,-1.63618c3.80188,-4.85028 4.7221,-17.39763 4.74411,-15.26291z" fill="#141414" stroke="none" stroke-width="0"/><path d="M260.78726,361.59997l-0.30272,-29.36891l62.90794,-1.75167l0.30272,29.3689z" fill="none" stroke="#000000" stroke-width="3.5"/></g><g><path d="M311.09697,369.21876l-0.14835,-29.36892l30.8288,-1.75167l0.14835,29.3689z" fill="#252525" stroke="#000000" stroke-width="0"/><path d="M311.09697,369.21876l-0.14835,-29.36892l30.8288,-1.75167l0.14835,29.3689z" fill="#6c6c6c" stroke="#000000" stroke-width="0"/><path d="M311.09697,369.21876l-0.14835,-29.36892l30.8288,-1.75167l0.14835,29.3689z" fill="none" stroke="#000000" stroke-width="3.5"/><path d="M341.58851,340.22581c0.00752,1.49034 1.03339,18.46654 0.02341,23.62057c-1.81653,9.26997 -6.51928,5.36718 -9.30521,5.52549c-4.33488,0.24631 -20.96842,3.81389 -20.9895,-0.35696c-0.005,-0.98925 -1.07472,-28.4902 0.40485,-29.71048c1.79786,-1.4828 1.58226,15.38103 4.66679,18.69277c5.07959,5.45378 13.78416,-0.7554 15.84156,-0.87232c2.11621,-0.12024 5.25609,2.99008 7.03319,-1.63617c1.86316,-4.85027 2.31412,-17.39761 2.32491,-15.2629z" fill="#545454" stroke="none" stroke-width="0"/><path d="M311.09697,369.21876l-0.14835,-29.36892l30.8288,-1.75167l0.14835,29.3689z" fill="none" stroke="#000000" stroke-width="3.5"/></g><g><path d="M264.74943,371.91708l-0.14836,-29.36892l30.8288,-1.75167l0.14835,29.3689z" fill="#252525" stroke="#000000" stroke-width="0"/><path d="M264.74943,371.91708l-0.14836,-29.36892l30.8288,-1.75167l0.14835,29.3689z" fill="#6c6c6c" stroke="#000000" stroke-width="0"/><path d="M264.74943,371.91708l-0.14836,-29.36892l30.8288,-1.75167l0.14835,29.3689z" fill="none" stroke="#000000" stroke-width="3.5"/><path d="M295.24095,342.92413c0.00752,1.49034 1.03338,18.46654 0.02341,23.62057c-1.81653,9.26997 -6.51929,5.36718 -9.30522,5.52549c-4.33488,0.24631 -20.96842,3.8139 -20.98949,-0.35695c-0.005,-0.98925 -1.07472,-28.49021 0.40485,-29.71048c1.79787,-1.4828 1.58226,15.38103 4.6668,18.69277c5.07959,5.45378 13.78416,-0.7554 15.84155,-0.87231c2.1162,-0.12024 5.25609,2.99008 7.0332,-1.63618c1.86316,-4.85027 2.31412,-17.39761 2.3249,-15.2629z" fill="#545454" stroke="none" stroke-width="0"/><path d="M264.74943,371.91708l-0.14836,-29.36892l30.8288,-1.75167l0.14835,29.3689z" fill="none" stroke="#000000" stroke-width="3.5"/></g><g><path d="M290.14534,371.75835l-0.14835,-29.36892l30.8288,-1.75167l0.14835,29.3689z" fill="#252525" stroke="#000000" stroke-width="0"/><path d="M290.14534,371.75835l-0.14835,-29.36892l30.8288,-1.75167l0.14835,29.3689z" fill="#6c6c6c" stroke="#000000" stroke-width="0"/><path d="M290.14534,371.75835l-0.14835,-29.36892l30.8288,-1.75167l0.14835,29.3689z" fill="none" stroke="#000000" stroke-width="3.5"/><path d="M320.63687,342.7654c0.00752,1.49034 1.03338,18.46654 0.02341,23.62057c-1.81653,9.26997 -6.51929,5.36718 -9.30521,5.52549c-4.33488,0.24631 -20.96842,3.8139 -20.98949,-0.35695c-0.005,-0.98925 -1.07471,-28.49021 0.40485,-29.71048c1.79787,-1.4828 1.58226,15.38104 4.6668,18.69278c5.07959,5.45378 13.78416,-0.75541 15.84155,-0.87232c2.1162,-0.12024 5.25609,2.99009 7.03319,-1.63617c1.86316,-4.85027 2.31413,-17.39762 2.3249,-15.26291z" fill="#545454" stroke="none" stroke-width="0"/><path d="M290.14534,371.75835l-0.14835,-29.36892l30.8288,-1.75167l0.14835,29.3689z" fill="none" stroke="#000000" stroke-width="3.5"/></g></g></g></g></g></svg>