<svg version="1.1" xmlns="http://www.w3.org/2000/svg" xmlns:xlink="http://www.w3.org/1999/xlink" width="193.61617" height="340.85664" viewBox="0,0,193.61617,340.85664"><g transform="translate(-144.55784,-8.96846)"><g data-paper-data="{&quot;isPaintingLayer&quot;:true}" fill-rule="nonzero" stroke-linejoin="miter" stroke-miterlimit="10" stroke-dasharray="" stroke-dashoffset="0" style="mix-blend-mode: normal"><g fill="none" stroke="#000000" stroke-width="2" stroke-linecap="round"><path d="M273.98774,116.12824l-9.5,-25.5"/><path d="M259.5,114.16026l15.66667,-25.33334l3.66667,28.33334"/></g><g fill="none" stroke="#000000" stroke-width="2" stroke-linecap="round"><g><path d="M215.98774,90.62824l-9.5,25.5" data-paper-data="{&quot;index&quot;:null}"/><path d="M205.98774,102.62824l1.5,-11.5"/></g><path d="M206.16666,115.16026l-6.66666,-27.66667"/><path d="M197.83334,85.16026l-0.33334,20.33333"/></g><g data-paper-data="{&quot;index&quot;:null}" stroke-linecap="butt"><g><g><path d="M258.3779,252.67718l-11.6384,-41.18071l23.58769,-6.51506l11.6384,41.18071z" fill="#252525" stroke="#000000" stroke-width="0"/><path d="M258.3779,252.67718l-11.6384,-41.18071l23.58769,-6.51506l11.6384,41.18071z" fill="#252525" stroke="#000000" stroke-width="0"/><path d="M271.01313,207.99103c0.5906,2.08973 8.05823,25.76985 9.28492,33.13313c2.20632,13.24351 -2.85556,5.81067 -4.98712,6.39942c-2.37725,0.65661 -10.12678,3.64265 -14.38063,4.38549c-1.68107,0.29356 -1.99078,2.10971 -2.45895,0.45317c-0.39202,-1.38711 -12.02311,-39.82612 -11.33681,-41.73273c0.83395,-2.31677 7.27994,21.36905 11.00796,25.60897c6.13927,6.98227 10.55744,-2.874 12.13159,-3.30879c1.61915,-0.44722 5.31171,3.50282 4.89611,-3.22103c-0.43572,-7.04945 -5.00302,-24.71092 -4.15706,-21.71763z" fill="#141414" stroke="none" stroke-width="0"/><path d="M258.3779,252.67718l-11.6384,-41.18071l23.58769,-6.51506l11.6384,41.18071z" fill="none" stroke="#000000" stroke-width="3.5"/><path d="M258.3779,252.67718l-11.6384,-41.18071l23.58769,-6.51506l11.6384,41.18071z" fill="none" stroke="#000000" stroke-width="3.5"/></g><g><path d="M247.57829,235.67288l-2.35641,-8.33783l34.46132,-9.51842l2.35641,8.33784z" fill="#252525" stroke="#000000" stroke-width="0"/><path d="M247.57829,235.67288l-2.35641,-8.33783l34.46132,-9.51842l2.35641,8.33784z" fill="#252525" stroke="#000000" stroke-width="0"/><path d="M279.62988,218.47907c0.11958,0.4231 2.53654,4.96764 1.7876,6.73394c-1.34703,3.17684 -6.70182,4.25414 -9.81601,5.11429c-4.84566,1.3384 -23.4566,6.40708 -23.79125,5.22298c-0.07937,-0.28085 -3.33034,-7.81609 -1.76116,-8.59715c1.90675,-0.94909 2.92231,3.92653 6.63031,3.9693c6.10631,0.07043 15.41042,-4.24793 17.71022,-4.88315c2.36555,-0.65338 6.12063,-0.68429 7.76969,-2.52439c1.72891,-1.9292 1.29932,-5.64186 1.47059,-5.03581z" fill="#141414" stroke="none" stroke-width="0"/><path d="M247.57829,235.67288l-2.35641,-8.33783l34.46132,-9.51842l2.35641,8.33784z" fill="none" stroke="#000000" stroke-width="3.5"/><path d="M247.57829,235.67288l-2.35641,-8.33783l34.46132,-9.51842l2.35641,8.33784z" fill="none" stroke="#000000" stroke-width="3.5"/></g><g><path d="M248.88994,249.5641l-2.35641,-8.33784l38.9344,-10.75391l2.35642,8.33784z" fill="#252525" stroke="#000000" stroke-width="0"/><path d="M248.88994,249.5641l-2.35641,-8.33784l38.9344,-10.75391l2.35642,8.33784z" fill="#252525" stroke="#000000" stroke-width="0"/><path d="M285.38565,231.14279c0.11958,0.4231 2.67289,4.92998 1.77368,6.73779c-1.61731,3.2515 -7.65348,4.51699 -11.17189,5.48879c-5.47462,1.51212 -26.49883,7.24737 -26.83348,6.06326c-0.07937,-0.28085 -3.46536,-7.7788 -1.68067,-8.61939c2.16862,-1.02143 3.14055,3.86625 7.29355,3.78611c6.83912,-0.13198 17.4104,-4.80034 20.00873,-5.51802c2.6726,-0.73819 6.88084,-0.89426 8.79107,-2.80649c2.00272,-2.00483 1.64774,-5.7381 1.81901,-5.13205z" fill="#141414" stroke="none" stroke-width="0"/><path d="M248.88994,249.5641l-2.35641,-8.33784l38.9344,-10.75391l2.35642,8.33784z" fill="none" stroke="#000000" stroke-width="3.5"/><path d="M248.88994,249.5641l-2.35641,-8.33784l38.9344,-10.75391l2.35642,8.33784z" fill="none" stroke="#000000" stroke-width="3.5"/></g></g><g><path d="M239.53637,220.54169l-2.70642,-9.57628l40.21243,-11.1069l2.70643,9.57628z" fill="#252525" stroke="#000000" stroke-width="0"/><path d="M239.53637,220.54169l-2.70642,-9.57628l40.21243,-11.1069l2.70643,9.57628z" fill="#252525" stroke="#000000" stroke-width="0"/><path d="M276.97704,200.62048c0.13734,0.48595 2.93256,5.70018 2.05114,7.73469c-1.58533,3.65927 -7.8318,4.92317 -11.46571,5.92688c-5.65433,1.56176 -27.37084,7.47756 -27.7552,6.11757c-0.09116,-0.32256 -3.8441,-8.97175 -2.01137,-9.87724c2.22699,-1.1003 3.38724,4.50123 7.70892,4.53296c7.11691,0.05227 17.98215,-4.957 20.66577,-5.69824c2.76033,-0.76242 7.13724,-0.81561 9.06816,-2.93923c2.02443,-2.22644 1.54156,-6.49347 1.73828,-5.7974z" fill="#141414" stroke="none" stroke-width="0"/><path d="M239.53637,220.54169l-2.70642,-9.57628l40.21243,-11.1069l2.70643,9.57628z" fill="none" stroke="#000000" stroke-width="3.5"/><path d="M239.53637,220.54169l-2.70642,-9.57628l40.21243,-11.1069l2.70643,9.57628z" fill="none" stroke="#000000" stroke-width="3.5"/></g></g><g stroke-linecap="butt"><g><g><path d="M194.93871,245.91213l11.63839,-41.18071l23.58769,6.51506l-11.6384,41.18071z" fill="#252525" stroke="#000000" stroke-width="0"/><path d="M194.93871,245.91213l11.63839,-41.18071l23.58769,6.51506l-11.6384,41.18071z" fill="#252525" stroke="#000000" stroke-width="0"/><path d="M205.89115,207.74103c0.84596,-2.99329 -3.72135,14.66818 -4.15707,21.71763c-0.4156,6.72385 3.27697,2.77381 4.89612,3.22103c1.57416,0.43479 5.99233,10.29106 12.13159,3.30879c3.72802,-4.23992 10.17401,-27.92574 11.00795,-25.60897c0.68631,1.90662 -10.94478,40.34563 -11.3368,41.73274c-0.46817,1.65654 -0.77788,-0.15962 -2.45895,-0.45318c-4.25385,-0.74284 -12.00338,-3.72888 -14.38062,-4.38549c-2.13156,-0.58875 -7.19343,6.84409 -4.98712,-6.39942c1.22669,-7.36328 8.69432,-31.0434 9.28492,-33.13313z" fill="#141414" stroke="none" stroke-width="0"/><path d="M194.93871,245.91213l11.63839,-41.18071l23.58769,6.51506l-11.6384,41.18071z" fill="none" stroke="#000000" stroke-width="3.5"/><path d="M194.93871,245.91213l11.63839,-41.18071l23.58769,6.51506l-11.6384,41.18071z" fill="none" stroke="#000000" stroke-width="3.5"/></g><g><path d="M194.86468,225.90447l2.35641,-8.33784l34.46132,9.51842l-2.35642,8.33783z" fill="#252525" stroke="#000000" stroke-width="0"/><path d="M194.86468,225.90447l2.35641,-8.33784l34.46132,9.51842l-2.35642,8.33783z" fill="#252525" stroke="#000000" stroke-width="0"/><path d="M197.27442,218.22908c0.17127,-0.60605 -0.25833,3.10661 1.47058,5.03581c1.64906,1.8401 5.40414,1.87101 7.7697,2.52439c2.29982,0.63522 11.60393,4.95359 17.71023,4.88316c3.708,-0.04276 4.72356,-4.91839 6.63031,-3.9693c1.56918,0.78106 -1.6818,8.3163 -1.76117,8.59715c-0.33465,1.1841 -18.9456,-3.88458 -23.79125,-5.22298c-3.11418,-0.86016 -8.46897,-1.93744 -9.816,-5.11429c-0.74894,-1.7663 1.66801,-6.31085 1.78759,-6.73395z" fill="#141414" stroke="none" stroke-width="0"/><path d="M194.86468,225.90447l2.35641,-8.33784l34.46132,9.51842l-2.35642,8.33783z" fill="none" stroke="#000000" stroke-width="3.5"/><path d="M194.86468,225.90447l2.35641,-8.33784l34.46132,9.51842l-2.35642,8.33783z" fill="none" stroke="#000000" stroke-width="3.5"/></g><g><path d="M189.07994,238.56019l2.35642,-8.33784l38.93441,10.75391l-2.35642,8.33784z" fill="#252525" stroke="#000000" stroke-width="0"/><path d="M189.07994,238.56019l2.35642,-8.33784l38.93441,10.75391l-2.35642,8.33784z" fill="#252525" stroke="#000000" stroke-width="0"/><path d="M193.33765,236.02484c1.91022,1.91223 6.11846,2.0683 8.79107,2.80649c2.59833,0.71768 13.16961,5.38604 20.00873,5.51802c4.15299,0.08014 5.12492,-4.80754 7.29354,-3.78611c1.7847,0.84059 -1.60129,8.33854 -1.68066,8.61939c-0.33465,1.18411 -21.35886,-4.55114 -26.83348,-6.06326c-3.51841,-0.9718 -9.55458,-2.23729 -11.17189,-5.48879c-0.89921,-1.80781 1.6541,-6.31469 1.77368,-6.73779c0.17127,-0.60605 -0.1837,3.12722 1.81901,5.13205z" fill="#141414" stroke="none" stroke-width="0"/><path d="M189.07994,238.56019l2.35642,-8.33784l38.93441,10.75391l-2.35642,8.33784z" fill="none" stroke="#000000" stroke-width="3.5"/><path d="M189.07994,238.56019l2.35642,-8.33784l38.93441,10.75391l-2.35642,8.33784z" fill="none" stroke="#000000" stroke-width="3.5"/></g></g><g><path d="M197.15549,209.18479l2.70643,-9.57628l40.21243,11.1069l-2.70642,9.57629z" fill="#252525" stroke="#000000" stroke-width="0"/><path d="M197.15549,209.18479l2.70643,-9.57628l40.21243,11.1069l-2.70642,9.57629z" fill="#252525" stroke="#000000" stroke-width="0"/><path d="M199.92726,200.37047c0.19672,-0.69607 -0.28615,3.57096 1.73828,5.7974c1.93092,2.12362 6.30783,2.17681 9.06816,2.93923c2.68361,0.74124 13.54886,5.75051 20.66577,5.69824c4.32168,-0.03173 5.48192,-5.63326 7.70891,-4.53296c1.83273,0.90549 -1.92021,9.55468 -2.01137,9.87724c-0.38435,1.35999 -22.10086,-4.55581 -27.75519,-6.11757c-3.6339,-1.00371 -9.88038,-2.26761 -11.46571,-5.92688c-0.88143,-2.03451 1.9138,-7.24874 2.05114,-7.73469z" fill="#141414" stroke="none" stroke-width="0"/><path d="M197.15549,209.18479l2.70643,-9.57628l40.21243,11.1069l-2.70642,9.57629z" fill="none" stroke="#000000" stroke-width="3.5"/><path d="M197.15549,209.18479l2.70643,-9.57628l40.21243,11.1069l-2.70642,9.57629z" fill="none" stroke="#000000" stroke-width="3.5"/></g></g><g stroke-linecap="butt"><g><g><path d="M221.88357,199.08204l0.86319,-42.78502l24.46843,0.34809l-0.8632,42.78502z" fill="#252525" stroke="#000000" stroke-width="0"/><path d="M221.88357,199.08204l0.86319,-42.78502l24.46843,0.34809l-0.8632,42.78502z" fill="#252525" stroke="#000000" stroke-width="0"/><path d="M222.84299,159.38232c0.06275,-3.10991 0.10294,15.13252 1.46131,22.06357c1.29564,6.61092 3.87116,1.85649 5.55077,1.88039c1.63292,0.02322 8.39663,8.44454 12.57395,0.13836c2.53664,-5.04385 2.79311,-29.58979 4.18502,-27.55866c1.14548,1.67155 -0.40292,41.80186 -0.432,43.24301c-0.03472,1.72108 -0.79297,0.04197 -2.49369,0.18239c-4.30358,0.35532 -12.55599,-0.57721 -15.02199,-0.61229c-2.21115,-0.03146 -5.23222,8.43865 -6.44137,-4.93283c-0.67227,-7.43442 0.57419,-32.2328 0.61799,-34.40395z" fill="#141414" stroke="none" stroke-width="0"/><path d="M221.88357,199.08204l0.86319,-42.78502l24.46843,0.34809l-0.8632,42.78502z" fill="none" stroke="#000000" stroke-width="3.5"/><path d="M221.88357,199.08204l0.86319,-42.78502l24.46843,0.34809l-0.8632,42.78502z" fill="none" stroke="#000000" stroke-width="3.5"/></g><g><path d="M216.76003,179.74138l0.17477,-8.66266l35.74807,0.50855l-0.17477,8.66266z" fill="#252525" stroke="#000000" stroke-width="0"/><path d="M216.76003,179.74138l0.17477,-8.66266l35.74807,0.50855l-0.17477,8.66266z" fill="#252525" stroke="#000000" stroke-width="0"/><path d="M219.84813,176.20755c2.06025,1.36409 5.70146,0.44585 8.15534,0.48076c2.38568,0.03394 12.47869,1.86308 18.36935,0.25311c3.57706,-0.97765 3.32862,-5.95172 5.41323,-5.51483c1.71556,0.35954 0.47257,8.47148 0.46668,8.76327c-0.02483,1.23024 -19.31256,1.02504 -24.33915,0.95353c-3.23047,-0.04595 -8.68376,0.26374 -10.78929,-2.47005c-1.17066,-1.51996 0.02049,-6.52752 0.02936,-6.96711c0.0127,-0.62966 0.53447,3.07118 2.69448,4.50132z" fill="#141414" stroke="none" stroke-width="0"/><path d="M216.76003,179.74138l0.17477,-8.66266l35.74807,0.50855l-0.17477,8.66266z" fill="none" stroke="#000000" stroke-width="3.5"/><path d="M216.76003,179.74138l0.17477,-8.66266l35.74807,0.50855l-0.17477,8.66266z" fill="none" stroke="#000000" stroke-width="3.5"/></g><g><path d="M214.35829,193.44766l0.17477,-8.66267l40.38817,0.57457l-0.17477,8.66266z" fill="#252525" stroke="#000000" stroke-width="0"/><path d="M214.35829,193.44766l0.17477,-8.66267l40.38817,0.57457l-0.17477,8.66266z" fill="#252525" stroke="#000000" stroke-width="0"/><path d="M214.78196,185.41293c0.0127,-0.62966 0.61186,3.07227 3.0559,4.50646c2.33117,1.36794 6.44246,0.45638 9.21486,0.49582c2.69535,0.03835 14.10284,1.8862 20.75368,0.28704c4.03865,-0.97108 3.74496,-5.9458 6.10122,-5.50505c1.93911,0.36272 0.55607,8.47268 0.55018,8.76447c-0.02482,1.23024 -21.81593,0.98942 -27.49497,0.90863c-3.64978,-0.05192 -9.80989,0.24772 -12.1958,-2.49005c-1.32654,-1.52218 0.00606,-6.52772 0.01493,-6.96731z" fill="#141414" stroke="none" stroke-width="0"/><path d="M214.35829,193.44766l0.17477,-8.66267l40.38817,0.57457l-0.17477,8.66266z" fill="none" stroke="#000000" stroke-width="3.5"/><path d="M214.35829,193.44766l0.17477,-8.66267l40.38817,0.57457l-0.17477,8.66266z" fill="none" stroke="#000000" stroke-width="3.5"/></g></g><g><path d="M214.75491,162.98504l0.20073,-9.94935l41.71392,0.59341l-0.20072,9.94935z" fill="#252525" stroke="#000000" stroke-width="0"/><path d="M214.75491,162.98504l0.20073,-9.94935l41.71392,0.59341l-0.20072,9.94935z" fill="#252525" stroke="#000000" stroke-width="0"/><path d="M218.35705,158.92711c2.40456,1.56725 6.65308,0.51355 9.51648,0.55429c2.78382,0.0396 14.56183,2.1431 21.43494,0.29551c4.17363,-1.12192 3.88189,-6.83491 6.31455,-6.33258c2.00198,0.4134 0.55456,9.72994 0.5478,10.06507c-0.0285,1.41297 -22.53507,1.17226 -28.40052,1.08881c-3.76959,-0.05363 -10.1328,0.30064 -12.59072,-2.83976c-1.36658,-1.74604 0.02148,-7.49709 0.03167,-8.00198c0.01459,-0.72318 0.62479,3.5275 3.1458,5.17064z" fill="#141414" stroke="none" stroke-width="0"/><path d="M214.75491,162.98504l0.20073,-9.94935l41.71392,0.59341l-0.20072,9.94935z" fill="none" stroke="#000000" stroke-width="3.5"/><path d="M214.75491,162.98504l0.20073,-9.94935l41.71392,0.59341l-0.20072,9.94935z" fill="none" stroke="#000000" stroke-width="3.5"/></g></g><g stroke-linecap="butt"><path d="M217.88341,113.36078v-24.96667h41.72077v24.96667z" fill="#252525" stroke="#000000" stroke-width="0"/><path d="M217.88341,113.36078v-24.96667h41.72077v24.96667z" fill="#252525" stroke="#000000" stroke-width="0"/><path d="M218.15353,90.1932c0,-1.81475 0.69588,8.827 3.24972,12.85909c2.43589,3.84587 6.66262,1.05091 9.52649,1.05091c2.78428,0 14.60328,4.8566 21.43827,-0.02364c4.15048,-2.96348 3.74354,-17.285 6.18603,-16.11164c2.01007,0.96562 0.75077,24.38931 0.75077,25.23028c0,3.54567 -22.50866,3.74499 -28.37507,3.74499c-3.77021,0 -10.12551,1.11585 -12.64647,-6.67464c-1.40163,-4.33145 -0.12975,-18.80841 -0.12975,-20.07536z" fill="#141414" stroke="none" stroke-width="0"/><path d="M217.88341,113.36078v-24.96667h41.72077v24.96667z" fill="none" stroke="#000000" stroke-width="3.5"/><path d="M217.88341,113.36078v-24.96667h41.72077v24.96667z" fill="none" stroke="#000000" stroke-width="3.5"/></g><path d="M270.45756,81.85812l-0.66667,10" fill="none" stroke="#000000" stroke-width="2" stroke-linecap="round"/><g stroke-linecap="butt"><g><g><path d="M210.86579,159.04235v-42.79524h55.01246v42.79524z" fill="#252525" stroke="#000000" stroke-width="0"/><path d="M210.86579,159.04235v-42.79524h55.01246v42.79524z" fill="#252525" stroke="#000000" stroke-width="0"/><path d="M215.507,141.37263c3.21193,6.59217 8.78525,1.80134 12.56151,1.80134c3.67131,0 19.25569,8.32469 28.26822,-0.04051c5.47278,-5.07969 4.93618,-29.62809 8.15682,-27.61686c2.65046,1.65516 0.98996,41.80556 0.98996,43.24706c0,1.72149 -1.78043,0.05326 -5.5967,0.21786c-9.65686,0.41652 -28.24774,-0.39857 -33.79207,-0.39857c-4.97135,0 -11.37758,8.51266 -14.70169,-4.84096c-1.84818,-7.4245 -0.17108,-32.23941 -0.17108,-34.41108c0,-3.11065 0.91757,15.13033 4.28503,22.04172z" fill="#141414" stroke="none" stroke-width="0"/><path d="M210.86579,159.04235v-42.79524h55.01246v42.79524z" fill="none" stroke="#000000" stroke-width="3.5"/><path d="M210.86579,159.04235v-42.79524h55.01246v42.79524z" fill="none" stroke="#000000" stroke-width="3.5"/></g><g><path d="M198.47277,139.77552v-8.66473h80.37253v8.66473z" fill="#252525" stroke="#000000" stroke-width="0"/><path d="M198.47277,139.77552v-8.66473h80.37253v8.66473z" fill="#252525" stroke="#000000" stroke-width="0"/><path d="M205.25352,136.19794c4.69259,1.33471 12.83514,0.36472 18.35221,0.36472c5.36374,0 28.13234,1.68548 41.29953,-0.00821c7.99566,-1.02848 7.2117,-5.99879 11.91701,-5.59157c3.87229,0.33512 1.44632,8.46435 1.44632,8.75621c0,1.23053 -43.36157,1.29971 -54.66286,1.29971c-7.26307,0 -19.50616,0.38726 -24.36264,-2.31644c-2.70016,-1.50323 -0.24995,-6.52749 -0.24995,-6.96719c0,-0.62981 1.34057,3.06342 6.26038,4.46277z" fill="#141414" stroke="none" stroke-width="0"/><path d="M198.47277,139.77552v-8.66473h80.37253v8.66473z" fill="none" stroke="#000000" stroke-width="3.5"/><path d="M198.47277,139.77552v-8.66473h80.37253v8.66473z" fill="none" stroke="#000000" stroke-width="3.5"/></g><g><path d="M193.69603,153.5153v-8.66473h90.8049v8.66473z" fill="#252525" stroke="#000000" stroke-width="0"/><path d="M193.69603,153.5153v-8.66473h90.8049v8.66473z" fill="#252525" stroke="#000000" stroke-width="0"/><path d="M194.28396,145.47493c0,-0.62981 1.51458,3.06342 7.07298,4.46277c5.30169,1.33472 14.50114,0.36472 20.73433,0.36472c6.05996,0 31.78391,1.68549 46.66021,-0.0082c9.0335,-1.02848 8.14778,-5.99879 13.46384,-5.59157c4.37491,0.33512 1.63405,8.46435 1.63405,8.75621c0,1.23053 -48.98991,1.29971 -61.75811,1.29971c-8.20583,0 -22.03807,0.38726 -27.52492,-2.31644c-3.05065,-1.50324 -0.2824,-6.5275 -0.2824,-6.9672z" fill="#141414" stroke="none" stroke-width="0"/><path d="M193.69603,153.5153v-8.66473h90.8049v8.66473z" fill="none" stroke="#000000" stroke-width="3.5"/><path d="M193.69603,153.5153v-8.66473h90.8049v8.66473z" fill="none" stroke="#000000" stroke-width="3.5"/></g></g><g><path d="M193.20612,123.04851v-9.95173h93.78557v9.95173z" fill="#252525" stroke="#000000" stroke-width="0"/><path d="M193.20612,123.04851v-9.95173h93.78557v9.95173z" fill="#252525" stroke="#000000" stroke-width="0"/><path d="M193.81334,113.81391c0,-0.72336 1.56428,3.51845 7.30515,5.12564c5.47572,1.53297 14.97715,0.41889 21.41494,0.41889c6.25888,0 32.82722,1.93585 48.19184,-0.00942c9.33002,-1.18125 8.41523,-6.88981 13.90579,-6.42211c4.51852,0.38489 1.68768,9.72158 1.68768,10.05679c0,1.4133 -50.598,1.49276 -63.78532,1.49276c-8.47519,0 -22.76146,0.44476 -28.42843,-2.66052c-3.15079,-1.72651 -0.29167,-7.49704 -0.29167,-8.00204z" fill="#141414" stroke="none" stroke-width="0"/><path d="M193.20612,123.04851v-9.95173h93.78557v9.95173z" fill="none" stroke="#000000" stroke-width="3.5"/><path d="M193.20612,123.04851v-9.95173h93.78557v9.95173z" fill="none" stroke="#000000" stroke-width="3.5"/></g></g><g><g><path d="M191.98774,58.7512c0,-26.41762 20.5949,-47.83334 46,-47.83334c25.4051,0 46,21.41572 46,47.83334c0,26.41762 -20.5949,47.83334 -46,47.83334c-20.63754,0 -38.10086,-14.13209 -43.92846,-33.59755c-1.34625,-4.49679 -2.07154,-9.27821 -2.07154,-14.23578z" fill="#2c2c2c" stroke="#000000" stroke-width="0" stroke-linecap="butt"/><path d="M208.86758,78.15066c5.20417,10.74469 20.32521,13.89412 25.88527,13.89412c16.20035,0 44.33333,-21.34908 44.33333,-11.5c0,9.84908 -25.79965,26.16667 -42,26.16667c-10.53238,0 -31.53453,-3.64574 -38.87686,-26.16337c-1.48721,-4.56101 -8.20843,-13.37876 -7.69811,-21.53925c0.84551,-13.5205 9.9083,-26.98183 9.9083,-29.13071c0,-6.46882 -1.51116,27.71041 8.44807,48.27254z" fill="#111111" stroke="none" stroke-width="0" stroke-linecap="butt"/><path d="M237.98774,10.91788c25.4051,0 46,21.41571 46,47.83333c0,26.41762 -20.5949,47.83333 -46,47.83333c-25.4051,0 -46,-21.41571 -46,-47.83333c0,-26.41762 20.5949,-47.83333 46,-47.83333z" fill="none" stroke="#000000" stroke-width="3.5" stroke-linecap="butt"/><path d="M235.75977,39.22811c19.66133,0 35.6,6.85005 35.6,15.3c0,8.44995 -15.93866,15.3 -35.6,15.3c-19.66134,0 -35.6,-6.85005 -35.6,-15.3c0,-8.44995 15.93866,-15.3 35.6,-15.3z" fill="#111111" stroke="none" stroke-width="0" stroke-linecap="butt"/><path d="M202.75284,28.89466l-3.66667,54" fill="none" stroke="#000000" stroke-width="3.5" stroke-linecap="round"/><path d="M210.4195,95.22799l6.66667,-79" fill="none" stroke="#000000" stroke-width="3.5" stroke-linecap="round"/><path d="M225.75284,106.22799l5.33333,-95.33333" fill="none" stroke="#000000" stroke-width="3.5" stroke-linecap="round"/><path d="M248.08617,12.89466l-1.33333,92" fill="none" stroke="#000000" stroke-width="3.5" stroke-linecap="round"/><path d="M261.41951,17.89466l-0.33333,82" fill="none" stroke="#000000" stroke-width="3.5" stroke-linecap="round"/><path d="M274.75284,86.89466l-4,-59.66667" fill="none" stroke="#000000" stroke-width="3.5" stroke-linecap="round"/><path d="M214.03007,21.94917c3.89535,-2.78433 -0.53244,5.47457 1.09452,9.99902c1.56841,4.36162 9.21126,4.94647 11.79492,4.94647c8.19223,0 -2.16666,5.4565 -2.16666,20c0,14.5435 -6.64111,26.33334 -14.83334,26.33334c-8.19223,0 -14.83333,-11.78984 -14.83333,-26.33334c0,-5.19882 14.6876,-31.90315 18.94389,-34.94549z" fill="#000000" stroke="#000000" stroke-width="0" stroke-linecap="butt"/><path d="M214.3634,21.61583c3.89535,-2.78434 -0.53244,5.47457 1.09452,9.99902c1.56841,4.36163 9.21126,4.94647 11.79492,4.94647c8.19222,0 -2.16667,5.4565 -2.16667,20c0,14.5435 -6.64111,26.33333 -14.83333,26.33333c-8.19222,0 -14.83333,-11.78983 -14.83333,-26.33333c0,-5.19883 14.68759,-31.90316 18.94389,-34.94549z" fill="none" stroke="#000000" stroke-width="3.5" stroke-linecap="butt"/><path d="M283.40607,57.09466c0,14.5435 -6.6411,26.33334 -14.83333,26.33334c-8.19223,0 -14.83334,-11.78984 -14.83334,-26.33334c0,-14.5435 -10.35889,-20 -2.16666,-20c2.58366,0 10.22651,-0.58485 11.79492,-4.94647c1.62696,-4.52445 -2.80083,-12.78335 1.09452,-9.99902c4.25629,3.04234 18.94389,29.74667 18.94389,34.94549z" data-paper-data="{&quot;index&quot;:null}" fill="#000000" stroke="#000000" stroke-width="0" stroke-linecap="butt"/><path d="M283.07274,56.76132c0,14.5435 -6.64111,26.33333 -14.83333,26.33333c-8.19222,0 -14.83333,-11.78983 -14.83333,-26.33333c0,-14.5435 -10.35889,-20 -2.16667,-20c2.58366,0 10.22651,-0.58484 11.79492,-4.94647c1.62696,-4.52445 -2.80083,-12.78336 1.09452,-9.99902c4.2563,3.04233 18.94389,29.74666 18.94389,34.94549z" data-paper-data="{&quot;index&quot;:null}" fill="none" stroke="#000000" stroke-width="3.5" stroke-linecap="butt"/><path d="M236.15441,106.88514l4,-96.66667" fill="none" stroke="#000000" stroke-width="2.5" stroke-linecap="round"/><path d="M235.79089,11.85812l-5,94" fill="none" stroke="#000000" stroke-width="2" stroke-linecap="round"/><path d="M243.12423,13.19145l-1.66667,94" fill="none" stroke="#000000" stroke-width="2" stroke-linecap="round"/><path d="M252.12423,13.85812l-0.33334,91" fill="none" stroke="#000000" stroke-width="2" stroke-linecap="round"/><path d="M256.45756,14.19145l-0.66667,89.33334" fill="none" stroke="#000000" stroke-width="2" stroke-linecap="round"/><path d="M221.79089,12.19145l-3,29.66667" fill="none" stroke="#000000" stroke-width="2" stroke-linecap="round"/><path d="M226.79089,13.52479l-2.33333,25" fill="none" stroke="#000000" stroke-width="2" stroke-linecap="round"/><path d="M201.79089,50.85812l6.33334,-27" fill="none" stroke="#000000" stroke-width="2" stroke-linecap="round"/></g><path d="M218.48774,99.66398l2,-21.33333" fill="none" stroke="#000000" stroke-width="2.5" stroke-linecap="round"/><path d="M265.79089,78.19145l0.33334,18" fill="none" stroke="#000000" stroke-width="2" stroke-linecap="round"/><path d="M216.12423,78.52478l-2.33334,21" fill="none" stroke="#000000" stroke-width="2" stroke-linecap="round"/><path d="M224.79089,69.52478l-3.66666,35.33333" fill="none" stroke="#000000" stroke-width="2" stroke-linecap="round"/><path d="M201.79089,77.52478v11.66666" fill="none" stroke="#000000" stroke-width="2" stroke-linecap="round"/><path d="M208.12423,77.85812l-2.33334,17.33333" fill="none" stroke="#000000" stroke-width="2" stroke-linecap="round"/></g><g data-paper-data="{&quot;index&quot;:null}" stroke-linecap="butt"><g><g><path d="M200.27341,309.55732l-6.27997,-63.61716l25.42177,3.00114l6.27997,63.61716z" fill="#252525" stroke="#000000" stroke-width="0"/><path d="M200.27341,309.55732l-6.27997,-63.61716l25.42177,3.00114l6.27997,63.61716z" fill="#252525" stroke="#000000" stroke-width="0"/><path d="M199.82522,283.5436c2.45162,9.97479 4.32408,3.15706 6.06913,3.36307c1.69654,0.20028 10.11984,13.42552 13.05707,1.48192c1.7836,-7.25265 -2.0667,-43.7743 -0.28328,-40.60881c1.46769,2.60508 6.5922,62.19999 6.80373,64.34283c0.25262,2.55908 -0.81493,-0.01796 -2.55432,0.01854c-4.40141,0.09236 -13.11203,-2.13352 -15.67412,-2.43599c-2.2973,-0.27121 -4.0085,12.0338 -7.50417,-7.99835c-1.94357,-11.1377 -4.81002,-47.93476 -5.1287,-51.16304c-0.45647,-4.62413 2.64432,22.54201 5.21466,32.99983z" fill="#141414" stroke="none" stroke-width="0"/><path d="M200.27341,309.55732l-6.27997,-63.61716l25.42177,3.00114l6.27997,63.61716z" fill="none" stroke="#000000" stroke-width="3.5"/><path d="M200.27341,309.55732l-6.27997,-63.61716l25.42177,3.00114l6.27997,63.61716z" fill="none" stroke="#000000" stroke-width="3.5"/></g><g><path d="M191.71918,280.24016l-1.27151,-12.88053l37.1409,4.38462l1.2715,12.88053z" fill="#252525" stroke="#000000" stroke-width="0"/><path d="M191.71918,280.24016l-1.27151,-12.88053l37.1409,4.38462l1.2715,12.88053z" fill="#252525" stroke="#000000" stroke-width="0"/><path d="M194.32763,275.29182c2.36435,2.24012 5.98476,1.24239 8.53425,1.54336c2.47863,0.29262 13.24755,4.04028 19.08369,2.24084c3.54394,-1.0927 2.45231,-8.52405 4.68643,-7.66201c1.8386,0.70941 1.91045,12.66156 1.95328,13.09543c0.18057,1.82924 -19.84706,-0.43346 -25.06949,-1.04999c-3.35633,-0.39623 -8.95715,-0.48847 -11.59813,-4.77258c-1.46837,-2.38193 -1.07338,-9.71707 -1.1379,-10.3707c-0.09242,-0.93624 1.06903,4.62706 3.54787,6.97565z" fill="#141414" stroke="none" stroke-width="0"/><path d="M191.71918,280.24016l-1.27151,-12.88053l37.1409,4.38462l1.2715,12.88053z" fill="none" stroke="#000000" stroke-width="3.5"/><path d="M191.71918,280.24016l-1.27151,-12.88053l37.1409,4.38462l1.2715,12.88053z" fill="none" stroke="#000000" stroke-width="3.5"/></g><g><path d="M191.52804,300.40441l-1.2715,-12.88054l41.96177,4.95375l1.2715,12.88054z" fill="#252525" stroke="#000000" stroke-width="0"/><path d="M191.52804,300.40441l-1.2715,-12.88054l41.96177,4.95375l1.2715,12.88054z" fill="#252525" stroke="#000000" stroke-width="0"/><path d="M194.54322,295.50408c2.64583,2.27334 6.75463,1.33326 9.63504,1.6733c2.80036,0.3306 14.93498,4.2395 21.56091,2.5333c4.02354,-1.03609 2.88488,-8.473 5.40123,-7.57764c2.07086,0.73683 1.99721,12.67181 2.04004,13.10568c0.18057,1.82924 -22.44797,-0.74052 -28.34827,-1.43707c-3.79199,-0.44766 -10.12717,-0.62658 -13.05945,-4.94509c-1.63032,-2.40105 -1.08838,-9.71884 -1.1529,-10.37246c-0.09242,-0.93624 1.14945,4.63655 3.92338,7.01998z" fill="#141414" stroke="none" stroke-width="0"/><path d="M191.52804,300.40441l-1.2715,-12.88054l41.96177,4.95375l1.2715,12.88054z" fill="none" stroke="#000000" stroke-width="3.5"/><path d="M191.52804,300.40441l-1.2715,-12.88054l41.96177,4.95375l1.2715,12.88054z" fill="none" stroke="#000000" stroke-width="3.5"/></g></g><g><path d="M186.83081,255.08734l-1.46036,-14.79371l43.33918,5.11635l1.46036,14.79372z" fill="#252525" stroke="#000000" stroke-width="0"/><path d="M186.83081,255.08734l-1.46036,-14.79371l43.33918,5.11635l1.46036,14.79372z" fill="#252525" stroke="#000000" stroke-width="0"/><path d="M189.88422,249.41081c2.75534,2.57755 6.98254,1.43976 9.95751,1.79097c2.89229,0.34145 15.45384,4.66858 22.26852,2.61504c4.13815,-1.24698 2.87771,-9.78294 5.48359,-8.78814c2.14453,0.81867 2.20648,14.54366 2.25567,15.04196c0.20739,2.10095 -23.16276,-0.54125 -29.25674,-1.26067c-3.91646,-0.46236 -10.453,-0.58054 -13.52744,-5.50585c-1.70936,-2.73843 -1.23493,-11.16063 -1.30904,-11.91134c-0.10615,-1.0753 1.23919,5.31568 4.12794,8.01803z" fill="#141414" stroke="none" stroke-width="0"/><path d="M186.83081,255.08734l-1.46036,-14.79371l43.33918,5.11635l1.46036,14.79372z" fill="none" stroke="#000000" stroke-width="3.5"/><path d="M186.83081,255.08734l-1.46036,-14.79371l43.33918,5.11635l1.46036,14.79372z" fill="none" stroke="#000000" stroke-width="3.5"/></g></g><g data-paper-data="{&quot;index&quot;:null}" stroke-linecap="butt"><g><g><path d="M247.16509,314.55845l6.27996,-63.61716l25.42177,-3.00114l-6.27996,63.61716z" fill="#252525" stroke="#000000" stroke-width="0"/><path d="M247.16509,314.55845l6.27996,-63.61716l25.42177,-3.00114l-6.27996,63.61716z" fill="#252525" stroke="#000000" stroke-width="0"/><path d="M278.24969,252.54377c-0.31868,3.22828 -3.18513,40.02535 -5.12869,51.16305c-3.49567,20.03215 -5.20688,7.72713 -7.50418,7.99834c-2.56209,0.30246 -11.27271,2.52835 -15.67411,2.43599c-1.73938,-0.0365 -2.80694,2.54054 -2.55432,-0.01854c0.21153,-2.14285 5.33604,-61.73775 6.80373,-64.34283c1.78342,-3.16549 -2.06688,33.35616 -0.28328,40.60881c2.93723,11.9436 11.36052,-1.28164 13.05706,-1.48192c1.74505,-0.20601 3.6175,6.61173 6.06912,-3.36306c2.57034,-10.45782 5.67113,-37.62396 5.21466,-32.99983z" fill="#141414" stroke="none" stroke-width="0"/><path d="M247.16509,314.55845l6.27996,-63.61716l25.42177,-3.00114l-6.27996,63.61716z" fill="none" stroke="#000000" stroke-width="3.5"/><path d="M247.16509,314.55845l6.27996,-63.61716l25.42177,-3.00114l-6.27996,63.61716z" fill="none" stroke="#000000" stroke-width="3.5"/></g><g><path d="M244.0002,286.62478l1.2715,-12.88053l37.14089,-4.38462l-1.27151,12.88053z" fill="#252525" stroke="#000000" stroke-width="0"/><path d="M244.0002,286.62478l1.2715,-12.88053l37.14089,-4.38462l-1.27151,12.88053z" fill="#252525" stroke="#000000" stroke-width="0"/><path d="M282.0805,270.31617c-0.06452,0.65362 0.33047,7.98875 -1.1379,10.37069c-2.64098,4.28411 -8.2418,4.37636 -11.59813,4.77258c-5.22244,0.61653 -25.25006,2.87923 -25.06949,1.04999c0.04283,-0.43387 0.11468,-12.38602 1.95328,-13.09543c2.23412,-0.86203 1.14249,6.56932 4.68643,7.66201c5.83614,1.79944 16.60505,-1.94822 19.08369,-2.24084c2.54949,-0.30097 6.16989,0.69676 8.53424,-1.54336c2.47884,-2.34859 3.64029,-7.91189 3.54787,-6.97565z" fill="#141414" stroke="none" stroke-width="0"/><path d="M244.0002,286.62478l1.2715,-12.88053l37.14089,-4.38462l-1.27151,12.88053z" fill="none" stroke="#000000" stroke-width="3.5"/><path d="M244.0002,286.62478l1.2715,-12.88053l37.14089,-4.38462l-1.27151,12.88053z" fill="none" stroke="#000000" stroke-width="3.5"/></g><g><path d="M239.37045,307.35814l1.27151,-12.88053l41.96177,-4.95375l-1.2715,12.88054z" fill="#252525" stroke="#000000" stroke-width="0"/><path d="M239.37045,307.35814l1.27151,-12.88053l41.96177,-4.95375l-1.2715,12.88054z" fill="#252525" stroke="#000000" stroke-width="0"/><path d="M282.24042,290.48411c-0.06452,0.65362 0.47743,7.97141 -1.15289,10.37246c-2.93228,4.31851 -9.26746,4.49743 -13.05945,4.94509c-5.9003,0.69655 -28.52883,3.26631 -28.34826,1.43707c0.04283,-0.43387 -0.03083,-12.36884 2.04004,-13.10567c2.51636,-0.89536 1.37769,6.54155 5.40123,7.57763c6.62593,1.7062 18.76055,-2.2027 21.56092,-2.5333c2.88042,-0.34004 6.98922,0.60004 9.63504,-1.6733c2.77393,-2.38343 4.0158,-7.95622 3.92338,-7.01998z" fill="#141414" stroke="none" stroke-width="0"/><path d="M239.37045,307.35814l1.27151,-12.88053l41.96177,-4.95375l-1.2715,12.88054z" fill="none" stroke="#000000" stroke-width="3.5"/><path d="M239.37045,307.35814l1.27151,-12.88053l41.96177,-4.95375l-1.2715,12.88054z" fill="none" stroke="#000000" stroke-width="3.5"/></g></g><g><path d="M242.69028,262.20369l1.46036,-14.79372l43.33917,-5.11635l-1.46036,14.79372z" fill="#252525" stroke="#000000" stroke-width="0"/><path d="M242.69028,262.20369l1.46036,-14.79372l43.33917,-5.11635l-1.46036,14.79372z" fill="#252525" stroke="#000000" stroke-width="0"/><path d="M287.10398,243.39278c-0.07411,0.75071 0.40032,9.1729 -1.30904,11.91133c-3.07444,4.92531 -9.61098,5.0435 -13.52744,5.50585c-6.09398,0.71942 -29.46413,3.36162 -29.25674,1.26067c0.04919,-0.49831 0.11114,-14.2233 2.25567,-15.04196c2.60587,-0.9948 1.34545,7.54116 5.4836,8.78814c6.81468,2.05354 19.37622,-2.27359 22.26851,-2.61504c2.97496,-0.3512 7.20218,0.78659 9.95751,-1.79096c2.88875,-2.70235 4.23408,-9.09333 4.12793,-8.01803z" fill="#141414" stroke="none" stroke-width="0"/><path d="M242.69028,262.20369l1.46036,-14.79372l43.33917,-5.11635l-1.46036,14.79372z" fill="none" stroke="#000000" stroke-width="3.5"/><path d="M242.69028,262.20369l1.46036,-14.79372l43.33917,-5.11635l-1.46036,14.79372z" fill="none" stroke="#000000" stroke-width="3.5"/></g></g><g stroke-linecap="butt"><path d="M197.3998,208.48504l0.3652,-9.94935l75.89357,0.59341l-0.36521,9.94935z" fill="#252525" stroke="#000000" stroke-width="0"/><path d="M197.3998,208.48504l0.3652,-9.94935l75.89357,0.59341l-0.36521,9.94935z" fill="#252525" stroke="#000000" stroke-width="0"/><path d="M197.3998,208.48504l0.3652,-9.94935l75.89357,0.59341l-0.36521,9.94935z" fill="none" stroke="#000000" stroke-width="3.5"/><path d="M203.95345,204.42711c4.37482,1.56725 12.1045,0.51355 17.31412,0.55429c5.06485,0.0396 26.49356,2.1431 38.99837,0.29551c7.59343,-1.12192 7.06266,-6.83491 11.48859,-6.33258c3.64237,0.4134 1.00895,9.72994 0.99665,10.06507c-0.05186,1.41297 -40.99992,1.17226 -51.67142,1.08881c-6.85833,-0.05363 -18.43545,0.30064 -22.90734,-2.83976c-2.48633,-1.74604 0.0391,-7.49709 0.05763,-8.00198c0.02654,-0.72318 1.13673,3.5275 5.7234,5.17064z" fill="#141414" stroke="none" stroke-width="0"/><path d="M197.3998,208.48504l0.3652,-9.94935l75.89357,0.59341l-0.36521,9.94935z" fill="none" stroke="#000000" stroke-width="3.5"/></g><g stroke-linecap="butt"><g><path d="M165.45209,335.90459l0.30272,-29.3689l62.90794,1.75167l-0.30272,29.36891z" fill="#252525" stroke="#000000" stroke-width="0"/><path d="M165.45209,335.90459l0.30272,-29.3689l62.90794,1.75167l-0.30272,29.36891z" fill="#252525" stroke="#000000" stroke-width="0"/><path d="M165.45209,335.90459l0.30272,-29.3689l62.90794,1.75167l-0.30272,29.36891z" fill="none" stroke="#000000" stroke-width="3.5"/><path d="M166.1403,308.66332c0.02201,-2.13472 0.94223,10.41263 4.74411,15.26291c3.62628,4.62626 10.03339,1.51593 14.35162,1.63618c4.19824,0.11692 21.96043,6.3261 32.32562,0.87232c6.29417,-3.31175 5.85422,-20.17558 9.52286,-18.69278c3.01915,1.22028 0.83631,28.72123 0.82611,29.71048c-0.04299,4.17085 -33.98471,0.60326 -42.83028,0.35695c-5.68484,-0.1583 -15.28107,3.74449 -18.98781,-5.52548c-2.06092,-5.15402 0.0324,-22.13023 0.04776,-23.62057z" fill="#141414" stroke="none" stroke-width="0"/><path d="M165.45209,335.90459l0.30272,-29.3689l62.90794,1.75167l-0.30272,29.36891z" fill="none" stroke="#000000" stroke-width="3.5"/></g><g><path d="M147.22152,343.52337l0.14835,-29.3689l30.8288,1.75167l-0.14835,29.36892z" fill="#252525" stroke="#000000" stroke-width="0"/><path d="M147.22152,343.52337l0.14835,-29.3689l30.8288,1.75167l-0.14835,29.36892z" fill="#6c6c6c" stroke="#000000" stroke-width="0"/><path d="M147.22152,343.52337l0.14835,-29.3689l30.8288,1.75167l-0.14835,29.36892z" fill="none" stroke="#000000" stroke-width="3.5"/><path d="M149.88369,331.54501c1.7771,4.62625 4.91698,1.51593 7.03319,1.63617c2.0574,0.11692 10.76197,6.3261 15.84156,0.87232c3.08453,-3.31174 2.86893,-20.17557 4.66679,-18.69277c1.47957,1.22028 0.40985,28.72123 0.40485,29.71048c-0.02108,4.17085 -16.65462,0.60327 -20.9895,0.35696c-2.78593,-0.15831 -7.48868,3.74448 -9.30521,-5.52549c-1.00998,-5.15403 0.01589,-22.13023 0.02341,-23.62057c0.01079,-2.13471 0.46175,10.41263 2.32491,15.2629z" fill="#545454" stroke="none" stroke-width="0"/><path d="M147.22152,343.52337l0.14835,-29.3689l30.8288,1.75167l-0.14835,29.36892z" fill="none" stroke="#000000" stroke-width="3.5"/></g><g><path d="M193.56907,346.22169l0.14835,-29.3689l30.8288,1.75167l-0.14836,29.36892z" fill="#252525" stroke="#000000" stroke-width="0"/><path d="M193.56907,346.22169l0.14835,-29.3689l30.8288,1.75167l-0.14836,29.36892z" fill="#6c6c6c" stroke="#000000" stroke-width="0"/><path d="M193.56907,346.22169l0.14835,-29.3689l30.8288,1.75167l-0.14836,29.36892z" fill="none" stroke="#000000" stroke-width="3.5"/><path d="M193.90634,318.98044c0.01078,-2.13471 0.46174,10.41263 2.3249,15.2629c1.77711,4.62626 4.917,1.51594 7.0332,1.63618c2.05739,0.11691 10.76196,6.32609 15.84155,0.87231c3.08454,-3.31174 2.86893,-20.17557 4.6668,-18.69277c1.47957,1.22027 0.40985,28.72123 0.40485,29.71048c-0.02107,4.17085 -16.65461,0.60326 -20.98949,0.35695c-2.78593,-0.15831 -7.48869,3.74448 -9.30522,-5.52549c-1.00997,-5.15403 0.01589,-22.13023 0.02341,-23.62057z" fill="#545454" stroke="none" stroke-width="0"/><path d="M193.56907,346.22169l0.14835,-29.3689l30.8288,1.75167l-0.14836,29.36892z" fill="none" stroke="#000000" stroke-width="3.5"/></g><g><path d="M168.17315,346.06296l0.14835,-29.3689l30.8288,1.75167l-0.14835,29.36892z" fill="#252525" stroke="#000000" stroke-width="0"/><path d="M168.17315,346.06296l0.14835,-29.3689l30.8288,1.75167l-0.14835,29.36892z" fill="#6c6c6c" stroke="#000000" stroke-width="0"/><path d="M168.17315,346.06296l0.14835,-29.3689l30.8288,1.75167l-0.14835,29.36892z" fill="none" stroke="#000000" stroke-width="3.5"/><path d="M168.51042,318.82171c0.01077,-2.13471 0.46174,10.41264 2.3249,15.26291c1.7771,4.62626 4.91699,1.51593 7.03319,1.63617c2.05739,0.11691 10.76196,6.3261 15.84155,0.87232c3.08454,-3.31174 2.86893,-20.17558 4.6668,-18.69278c1.47956,1.22027 0.40985,28.72123 0.40485,29.71048c-0.02107,4.17085 -16.65461,0.60326 -20.98949,0.35695c-2.78592,-0.15831 -7.48868,3.74448 -9.30521,-5.52549c-1.00997,-5.15403 0.01589,-22.13023 0.02341,-23.62057z" fill="#545454" stroke="none" stroke-width="0"/><path d="M168.17315,346.06296l0.14835,-29.3689l30.8288,1.75167l-0.14835,29.36892z" fill="none" stroke="#000000" stroke-width="3.5"/></g></g><g data-paper-data="{&quot;index&quot;:null}" stroke-linecap="butt"><g><path d="M242.41378,337.65627l-0.30272,-29.36892l62.90794,-1.75166l0.30272,29.3689z" fill="#252525" stroke="#000000" stroke-width="0"/><path d="M242.41378,337.65627l-0.30272,-29.36892l62.90794,-1.75166l0.30272,29.3689z" fill="#252525" stroke="#000000" stroke-width="0"/><path d="M242.41378,337.65627l-0.30272,-29.36892l62.90794,-1.75166l0.30272,29.3689z" fill="none" stroke="#000000" stroke-width="3.5"/><path d="M304.63352,308.66333c0.01536,1.49034 2.10868,18.46655 0.04777,23.62057c-3.70673,9.26997 -13.30298,5.36718 -18.98782,5.52548c-8.84557,0.24631 -42.78728,3.8139 -42.83027,-0.35695c-0.0102,-0.98925 -2.19304,-28.4902 0.82611,-29.71048c3.66864,-1.4828 3.22869,15.38103 9.52286,18.69278c10.36519,5.45378 28.12738,-0.7554 32.32561,-0.87232c4.31824,-0.12025 10.72534,2.99008 14.35162,-1.63618c3.80188,-4.85028 4.7221,-17.39763 4.74411,-15.26291z" fill="#141414" stroke="none" stroke-width="0"/><path d="M242.41378,337.65627l-0.30272,-29.36892l62.90794,-1.75166l0.30272,29.3689z" fill="none" stroke="#000000" stroke-width="3.5"/></g><g><path d="M292.72349,345.27505l-0.14835,-29.36892l30.8288,-1.75167l0.14835,29.3689z" fill="#252525" stroke="#000000" stroke-width="0"/><path d="M292.72349,345.27505l-0.14835,-29.36892l30.8288,-1.75167l0.14835,29.3689z" fill="#6c6c6c" stroke="#000000" stroke-width="0"/><path d="M292.72349,345.27505l-0.14835,-29.36892l30.8288,-1.75167l0.14835,29.3689z" fill="none" stroke="#000000" stroke-width="3.5"/><path d="M323.21503,316.28211c0.00752,1.49034 1.03339,18.46654 0.02341,23.62057c-1.81653,9.26997 -6.51929,5.36719 -9.30522,5.52549c-4.33488,0.24631 -20.96842,3.81389 -20.98949,-0.35696c-0.005,-0.98925 -1.07472,-28.4902 0.40485,-29.71048c1.79786,-1.4828 1.58226,15.38103 4.66679,18.69278c5.07959,5.45378 13.78417,-0.75541 15.84156,-0.87232c2.1162,-0.12024 5.25608,2.99009 7.03319,-1.63617c1.86316,-4.85027 2.31413,-17.39762 2.32491,-15.26291z" fill="#545454" stroke="none" stroke-width="0"/><path d="M292.72349,345.27505l-0.14835,-29.36892l30.8288,-1.75167l0.14835,29.3689z" fill="none" stroke="#000000" stroke-width="3.5"/></g><g><path d="M246.37594,347.97337l-0.14835,-29.36892l30.82879,-1.75167l0.14836,29.36891z" fill="#252525" stroke="#000000" stroke-width="0"/><path d="M246.37594,347.97337l-0.14835,-29.36892l30.82879,-1.75167l0.14836,29.36891z" fill="#6c6c6c" stroke="#000000" stroke-width="0"/><path d="M246.37594,347.97337l-0.14835,-29.36892l30.82879,-1.75167l0.14836,29.36891z" fill="none" stroke="#000000" stroke-width="3.5"/><path d="M276.86748,318.98043c0.00752,1.49034 1.03338,18.46654 0.02341,23.62057c-1.81653,9.26997 -6.51929,5.36718 -9.30522,5.52549c-4.33488,0.24631 -20.96842,3.8139 -20.98949,-0.35695c-0.005,-0.98925 -1.07472,-28.49021 0.40485,-29.71048c1.79787,-1.4828 1.58226,15.38103 4.6668,18.69277c5.07959,5.45378 13.78416,-0.7554 15.84156,-0.87231c2.1162,-0.12024 5.25608,2.99008 7.03319,-1.63618c1.86316,-4.85027 2.31413,-17.39761 2.32491,-15.2629z" fill="#545454" stroke="none" stroke-width="0"/><path d="M246.37594,347.97337l-0.14835,-29.36892l30.82879,-1.75167l0.14836,29.36891z" fill="none" stroke="#000000" stroke-width="3.5"/></g><g><path d="M271.77186,347.81464l-0.14835,-29.36892l30.8288,-1.75167l0.14835,29.3689z" fill="#252525" stroke="#000000" stroke-width="0"/><path d="M271.77186,347.81464l-0.14835,-29.36892l30.8288,-1.75167l0.14835,29.3689z" fill="#6c6c6c" stroke="#000000" stroke-width="0"/><path d="M271.77186,347.81464l-0.14835,-29.36892l30.8288,-1.75167l0.14835,29.3689z" fill="none" stroke="#000000" stroke-width="3.5"/><path d="M302.2634,318.82169c0.00752,1.49034 1.03338,18.46654 0.02341,23.62057c-1.81653,9.26997 -6.51929,5.36718 -9.30522,5.52549c-4.33488,0.24631 -20.96842,3.8139 -20.98949,-0.35695c-0.005,-0.98925 -1.07471,-28.49021 0.40485,-29.71048c1.79787,-1.4828 1.58226,15.38103 4.66679,18.69277c5.07959,5.45378 13.78416,-0.7554 15.84156,-0.87231c2.1162,-0.12024 5.25608,2.99008 7.03319,-1.63618c1.86316,-4.85027 2.31413,-17.39761 2.32491,-15.2629z" fill="#545454" stroke="none" stroke-width="0"/><path d="M271.77186,347.81464l-0.14835,-29.36892l30.8288,-1.75167l0.14835,29.3689z" fill="none" stroke="#000000" stroke-width="3.5"/></g></g><g><g stroke-linecap="butt"><g><g><path d="M151.67393,129.33771l34.67884,-25.07353l14.45557,19.74491l-34.67883,25.07352z" fill="#252525" stroke="#000000" stroke-width="0"/><path d="M151.67393,129.33771l34.67884,-25.07353l14.45557,19.74491l-34.67883,25.07352z" fill="#252525" stroke="#000000" stroke-width="0"/><path d="M183.94745,106.1988c2.52069,-1.82251 -12.01966,9.19412 -16.73539,14.45211c-4.49793,5.01513 0.84878,4.20857 1.84107,5.56394c0.96471,1.31769 -1.68606,11.78859 7.46084,10.12221c5.55437,-1.0119 25.306,-15.58728 24.5225,-13.25297c-0.6448,1.92105 -33.61675,24.849 -34.78485,25.69356c-1.395,1.00861 -0.51098,-0.60783 -1.64717,-1.88111c-2.87505,-3.22197 -7.09966,-10.37211 -8.55654,-12.36207c-1.30631,-1.7843 -9.88786,0.90392 0.05969,-8.11298c5.53075,-5.01333 26.08005,-18.95033 27.83984,-20.2227z" fill="#141414" stroke="none" stroke-width="0"/><path d="M151.67393,129.33771l34.67884,-25.07353l14.45557,19.74491l-34.67883,25.07352z" fill="none" stroke="#000000" stroke-width="3.5"/><path d="M151.67393,129.33771l34.67884,-25.07353l14.45557,19.74491l-34.67883,25.07352z" fill="none" stroke="#000000" stroke-width="3.5"/></g><g><path d="M164.03018,113.6013l7.02141,-5.07663l21.11942,28.84707l-7.02141,5.07662z" fill="#252525" stroke="#000000" stroke-width="0"/><path d="M164.03018,113.6013l7.02141,-5.07663l21.11942,28.84707l-7.02141,5.07662z" fill="#252525" stroke="#000000" stroke-width="0"/><path d="M170.68237,109.07727c0.51036,-0.36901 -2.13017,2.276 -1.97134,4.86167c0.15149,2.46625 3.07714,4.82044 4.52685,6.80061c1.40942,1.92514 6.02649,11.0847 10.85889,14.8183c2.93444,2.26719 6.75608,-0.92626 7.66251,1.00114c0.74595,1.58617 -6.47899,5.47833 -6.71549,5.64933c-0.99715,0.72096 -12.44729,-14.80172 -15.41692,-18.85794c-1.90851,-2.60685 -5.43942,-6.77421 -4.52463,-10.10137c0.50861,-1.84987 5.22383,-3.91413 5.58013,-4.17175z" fill="#141414" stroke="none" stroke-width="0"/><path d="M164.03018,113.6013l7.02141,-5.07663l21.11942,28.84707l-7.02141,5.07662z" fill="none" stroke="#000000" stroke-width="3.5"/><path d="M164.03018,113.6013l7.02141,-5.07663l21.11942,28.84707l-7.02141,5.07662z" fill="none" stroke="#000000" stroke-width="3.5"/></g><g><path d="M151.64107,119.93691l7.02141,-5.07662l23.86072,32.59142l-7.0214,5.07663z" fill="#252525" stroke="#000000" stroke-width="0"/><path d="M151.64107,119.93691l7.02141,-5.07662l23.86072,32.59142l-7.0214,5.07663z" fill="#252525" stroke="#000000" stroke-width="0"/><path d="M156.55318,120.59045c0.31154,2.68487 3.51491,5.41839 5.1528,7.65559c1.59236,2.17503 6.98599,12.39531 12.2675,16.74234c3.20715,2.63969 7.00206,-0.59028 8.06897,1.55633c0.87803,1.76657 -6.42966,5.54571 -6.66616,5.71671c-0.99715,0.72096 -13.92624,-16.82181 -17.28133,-21.40454c-2.15623,-2.94521 -6.10473,-7.68295 -5.35558,-11.23636c0.41652,-1.97567 5.21532,-3.92578 5.57162,-4.1834c0.51036,-0.369 -2.08445,2.33845 -1.75782,5.15333z" fill="#141414" stroke="none" stroke-width="0"/><path d="M151.64107,119.93691l7.02141,-5.07662l23.86072,32.59142l-7.0214,5.07663z" fill="none" stroke="#000000" stroke-width="3.5"/><path d="M151.64107,119.93691l7.02141,-5.07662l23.86072,32.59142l-7.0214,5.07663z" fill="none" stroke="#000000" stroke-width="3.5"/></g></g><g><path d="M176.20089,101.91073l8.06432,-5.83067l24.64395,33.66123l-8.06431,5.83067z" fill="#252525" stroke="#000000" stroke-width="0"/><path d="M176.20089,101.91073l8.06432,-5.83067l24.64395,33.66123l-8.06431,5.83067z" fill="#252525" stroke="#000000" stroke-width="0"/><path d="M183.84365,96.71815c0.58617,-0.42381 -2.4401,2.62289 -2.23396,5.62503c0.19662,2.86348 3.59609,5.62097 5.28774,7.93161c1.64464,2.24642 7.05728,12.91645 12.67096,17.29135c3.40886,2.65662 7.79437,-1.01633 8.85812,1.22835c0.87543,1.84728 -7.43434,6.30156 -7.70598,6.49796c-1.14526,0.82805 -14.50524,-17.28588 -17.97046,-22.01903c-2.22702,-3.04189 -6.34142,-7.90889 -5.31418,-11.76223c0.57115,-2.14242 5.99855,-4.49716 6.40777,-4.79304z" fill="#141414" stroke="none" stroke-width="0"/><path d="M176.20089,101.91073l8.06432,-5.83067l24.64395,33.66123l-8.06431,5.83067z" fill="none" stroke="#000000" stroke-width="3.5"/><path d="M176.20089,101.91073l8.06432,-5.83067l24.64395,33.66123l-8.06431,5.83067z" fill="none" stroke="#000000" stroke-width="3.5"/></g></g><path d="M153.56732,133.43695l-1,34.66667" fill="none" stroke="#000000" stroke-width="2" stroke-linecap="round"/><path d="M158.56732,151.10362l-1.33333,-12.66667" fill="none" stroke="#000000" stroke-width="2" stroke-linecap="round"/><path d="M157.56732,182.10361v-7.66667l6.66667,-26.33333" fill="none" stroke="#000000" stroke-width="2" stroke-linecap="round"/><path d="M146.90066,169.77028l-1.33334,-22l5,-15.66667" fill="none" stroke="#000000" stroke-width="2" stroke-linecap="round"/></g><g><g data-paper-data="{&quot;index&quot;:null}" stroke-linecap="butt"><g><g><path d="M318.1439,149.08262l-34.67883,-25.07352l14.45558,-19.74491l34.67883,25.07353z" fill="#252525" stroke="#000000" stroke-width="0"/><path d="M318.1439,149.08262l-34.67883,-25.07352l14.45558,-19.74491l34.67883,25.07353z" fill="#252525" stroke="#000000" stroke-width="0"/><path d="M300.32596,106.19879c1.75979,1.27237 22.30908,15.20937 27.83983,20.2227c9.94755,9.0169 1.366,6.32868 0.05969,8.11298c-1.45688,1.98996 -5.68148,9.1401 -8.55653,12.36207c-1.13619,1.27328 -0.25218,2.88972 -1.64718,1.88111c-1.16811,-0.84456 -34.14005,-23.77251 -34.78485,-25.69356c-0.7835,-2.33431 18.96813,12.24107 24.52251,13.25297c9.1469,1.66638 6.49613,-8.80452 7.46085,-10.12221c0.99228,-1.35537 6.339,-0.54881 1.84107,-5.56394c-4.71573,-5.25799 -19.25608,-16.27462 -16.73539,-14.45211z" fill="#141414" stroke="none" stroke-width="0"/><path d="M318.1439,149.08262l-34.67883,-25.07352l14.45558,-19.74491l34.67883,25.07353z" fill="none" stroke="#000000" stroke-width="3.5"/><path d="M318.1439,149.08262l-34.67883,-25.07352l14.45558,-19.74491l34.67883,25.07353z" fill="none" stroke="#000000" stroke-width="3.5"/></g><g><path d="M299.12379,142.44836l-7.0214,-5.07662l21.11942,-28.84707l7.0214,5.07663z" fill="#252525" stroke="#000000" stroke-width="0"/><path d="M299.12379,142.44836l-7.0214,-5.07662l21.11942,-28.84707l7.0214,5.07663z" fill="#252525" stroke="#000000" stroke-width="0"/><path d="M313.59103,109.07726c0.35631,0.25762 5.07152,2.32188 5.58014,4.17175c0.91479,3.32716 -2.61613,7.49452 -4.52463,10.10137c-2.96963,4.05622 -14.41977,19.5789 -15.41692,18.85794c-0.23651,-0.171 -7.46144,-4.06316 -6.71549,-5.64933c0.90643,-1.9274 4.72807,1.26605 7.66251,-1.00114c4.8324,-3.7336 9.44946,-12.89316 10.85889,-14.8183c1.44972,-1.98017 4.37536,-4.33436 4.52685,-6.80061c0.15882,-2.58567 -2.4817,-5.23068 -1.97134,-4.86167z" fill="#141414" stroke="none" stroke-width="0"/><path d="M299.12379,142.44836l-7.0214,-5.07662l21.11942,-28.84707l7.0214,5.07663z" fill="none" stroke="#000000" stroke-width="3.5"/><path d="M299.12379,142.44836l-7.0214,-5.07662l21.11942,-28.84707l7.0214,5.07663z" fill="none" stroke="#000000" stroke-width="3.5"/></g><g><path d="M308.77162,152.52833l-7.02141,-5.07663l23.86072,-32.59142l7.02141,5.07662z" fill="#252525" stroke="#000000" stroke-width="0"/><path d="M308.77162,152.52833l-7.02141,-5.07663l23.86072,-32.59142l7.02141,5.07662z" fill="#252525" stroke="#000000" stroke-width="0"/><path d="M325.9624,115.43712c0.35631,0.25762 5.15509,2.20773 5.57161,4.1834c0.74915,3.55341 -3.19935,8.29115 -5.35559,11.23636c-3.35509,4.58273 -16.28418,22.1255 -17.28133,21.40454c-0.23651,-0.171 -7.54419,-3.95014 -6.66616,-5.71671c1.06691,-2.14661 4.86183,1.08336 8.06898,-1.55633c5.2815,-4.34703 10.67513,-14.56731 12.2675,-16.74234c1.63789,-2.2372 4.84125,-4.97072 5.1528,-7.65559c0.32662,-2.81488 -2.26817,-5.52233 -1.75781,-5.15333z" fill="#141414" stroke="none" stroke-width="0"/><path d="M308.77162,152.52833l-7.02141,-5.07663l23.86072,-32.59142l7.02141,5.07662z" fill="none" stroke="#000000" stroke-width="3.5"/><path d="M308.77162,152.52833l-7.02141,-5.07663l23.86072,-32.59142l7.02141,5.07662z" fill="none" stroke="#000000" stroke-width="3.5"/></g></g><g><path d="M283.42856,135.57196l-8.06432,-5.83067l24.64395,-33.66123l8.06431,5.83067z" fill="#252525" stroke="#000000" stroke-width="0"/><path d="M283.42856,135.57196l-8.06432,-5.83067l24.64395,-33.66123l8.06431,5.83067z" fill="#252525" stroke="#000000" stroke-width="0"/><path d="M300.42975,96.71815c0.40922,0.29588 5.83662,2.65062 6.40776,4.79304c1.02724,3.85334 -3.08717,8.72034 -5.31418,11.76223c-3.46522,4.73315 -16.8252,22.84708 -17.97046,22.01903c-0.27164,-0.1964 -8.58141,-4.65068 -7.70598,-6.49796c1.06375,-2.24468 5.44927,1.42827 8.85812,-1.22835c5.61368,-4.3749 11.02632,-15.04493 12.67096,-17.29135c1.69166,-2.31064 5.09112,-5.06813 5.28774,-7.93161c0.20614,-3.00214 -2.82012,-6.04884 -2.23396,-5.62503z" fill="#141414" stroke="none" stroke-width="0"/><path d="M283.42856,135.57196l-8.06432,-5.83067l24.64395,-33.66123l8.06431,5.83067z" fill="none" stroke="#000000" stroke-width="3.5"/><path d="M283.42856,135.57196l-8.06432,-5.83067l24.64395,-33.66123l8.06431,5.83067z" fill="none" stroke="#000000" stroke-width="3.5"/></g></g><path d="M330.50735,132.82323l6.66667,44" fill="none" stroke="#000000" stroke-width="2" stroke-linecap="round"/><path d="M327.17401,138.82323l-2,53" fill="none" stroke="#000000" stroke-width="2" stroke-linecap="round"/><path d="M322.50734,151.15656l-0.33333,-6" fill="none" stroke="#000000" stroke-width="2" stroke-linecap="round"/><path d="M332.84067,131.48988l-7.66667,40l-4.66667,17.66666" fill="none" stroke="#000000" stroke-width="2" stroke-linecap="round"/></g></g></g></svg>