<svg version="1.1" xmlns="http://www.w3.org/2000/svg" xmlns:xlink="http://www.w3.org/1999/xlink" width="475.91168" height="664.3244" viewBox="0,0,475.91168,664.3244"><g transform="translate(97.04266,34.33927)"><g data-paper-data="{&quot;isPaintingLayer&quot;:true}" fill-rule="nonzero" stroke-width="7" stroke-linejoin="miter" stroke-miterlimit="10" stroke-dasharray="" stroke-dashoffset="0" style="mix-blend-mode: normal"><g data-paper-data="{&quot;index&quot;:null}"><path d="M221.46891,522.8668c0.07852,12.62539 -0.10257,19.67748 -2.74741,27.3559c-9.50582,27.59727 -34.6671,30.00536 -49.11375,30.17915c-18.46614,0.22215 -21.17746,-17.15696 -21.53812,-75.15972c-0.36066,-58.00278 -22.9157,-126.03933 -4.44956,-126.26149c7.01417,-0.08438 31.12872,-1.31572 47.1711,13.0136c4.06758,3.63323 8.53164,11.2205 11.86327,16.61809c18.12162,29.35874 18.62551,83.86967 18.81445,114.25445z" fill="#a70000" stroke="#000000" stroke-linecap="butt"/><path d="M220.19264,538.6154c0.10507,16.8987 -28.71893,40.76782 -48.07044,41.00063c-19.3515,0.23279 -21.90248,-23.25886 -22.00756,-40.15755c-0.05427,-8.72913 1.23193,-41.77587 -3.75169,-79.64914c-4.66416,-35.44556 -15.96327,-76.1363 -6.60788,-76.24885c2.47912,-0.02983 50.52335,-3.34604 52.38078,10.09893c1.04705,7.57908 -35.80494,-8.72133 -37.75024,1.9624c-7.68086,42.18366 3.81375,127.40372 13.96836,148.23516c18.32399,37.59036 51.78463,-13.93656 51.83871,-5.2416z" fill="#760000" stroke="none" stroke-linecap="butt"/><path d="M221.01089,522.87229c0.07852,12.62539 -0.10259,19.67748 -2.74743,27.3559c-9.5058,27.59727 -34.6671,30.00538 -49.11373,30.17918c-18.46614,0.22215 -21.17746,-17.15696 -21.53812,-75.15972c-0.36066,-58.00278 -22.9157,-126.03933 -4.44956,-126.26149c8.32143,-0.10014 40.03007,-3.50312 55.74348,20.98627c19.15631,29.85518 21.90723,91.03498 22.10534,122.89984z" fill="none" stroke="#000000" stroke-linecap="butt"/><path d="M214.1662,459.51894l-36.03675,18.02461l-26.07462,5.60259" fill="none" stroke="#000000" stroke-linecap="round"/></g><g><path d="M41.85218,524.76071c0.18892,-30.38477 0.0615,-85.52703 18.18312,-114.88575c3.33163,-5.39757 8.42699,-12.35351 12.49457,-15.98675c16.0424,-14.32937 40.15693,-13.09802 47.17113,-13.01364c18.46614,0.22217 -4.0889,68.25873 -4.44956,126.26149c-0.36064,58.00278 -3.07196,75.38191 -21.5381,75.15972c-14.44665,-0.17378 -39.60793,-2.58186 -49.11375,-30.17915c-2.64479,-7.67843 -2.8259,-14.73051 -2.74741,-27.3559z" fill="#a00000" stroke="#000000" stroke-linecap="butt"/><path d="M94.96712,545.75096c10.15462,-20.83146 21.6492,-106.0515 13.96836,-148.23516c-1.9453,-10.68373 -38.79729,5.61668 -37.75024,-1.9624c1.85744,-13.44497 49.90168,-10.12876 52.38078,-10.09893c9.35537,0.11256 -1.94372,40.80327 -6.6079,76.24885c-4.98362,37.87325 -3.69742,70.92001 -3.75169,79.64914c-0.10507,16.8987 -2.65606,40.39035 -22.00756,40.15755c-19.3515,-0.23279 -48.17552,-24.10194 -48.07044,-41.00063c0.05406,-8.69496 33.5147,42.83196 51.83871,5.2416z" fill="#650000" stroke="none" stroke-linecap="butt"/><path d="M42.31018,524.76623c0.19811,-31.86484 2.94903,-93.04466 22.10534,-122.89984c15.71341,-24.48939 47.42203,-21.08637 55.74346,-20.98627c18.46614,0.22217 -4.0889,68.25871 -4.44956,126.26149c-0.36066,58.00278 -3.07198,75.38187 -21.53812,75.15972c-14.44661,-0.17378 -39.60789,-2.58191 -49.11373,-30.17918c-2.64479,-7.67843 -2.8259,-14.73051 -2.74741,-27.3559z" fill="none" stroke="#000000" stroke-linecap="butt"/><path d="M111.26629,485.04003l-26.07462,-5.60259l-36.03677,-18.02461" fill="none" stroke="#000000" stroke-linecap="round"/></g><g data-paper-data="{&quot;index&quot;:null}"><path d="M310.80308,351.09811c0.1092,12.62539 -0.14271,19.67748 -3.82159,27.3559c-13.22244,27.59727 -48.22138,30.00536 -68.31644,30.17915c-25.6861,0.22217 -29.45751,-17.15696 -29.95917,-75.15972c-0.50164,-58.00276 -31.87539,-126.03933 -6.18924,-126.26149c25.6861,-0.22217 107.78479,85.88338 108.28643,143.88614z" fill="#66abff" stroke="#000000" stroke-linecap="butt"/><path d="M309.02782,366.84671c0.14613,16.8987 -39.94758,40.76782 -66.86519,41.00063c-26.91764,0.23279 -30.466,-23.25886 -30.61218,-40.15755c-0.0755,-8.72913 1.71359,-41.77589 -5.21855,-79.64914c-6.48779,-35.44556 -22.20464,-76.1363 -9.19145,-76.24885c13.06757,-0.11303 15.7322,124.82987 39.78058,160.29652c25.48837,37.59036 72.03162,-13.93656 72.10682,-5.2416z" fill="#4e83c3" stroke="none" stroke-linecap="butt"/><path d="M310.16598,351.1036c0.1092,12.62539 -0.14271,19.67748 -3.82159,27.3559c-13.22244,27.59727 -48.22138,30.00538 -68.3164,30.17918c-25.6861,0.22215 -29.45751,-17.15696 -29.95917,-75.15972c-0.50166,-58.00278 -31.87539,-126.03933 -6.18929,-126.26149c25.6861,-0.22217 107.78481,85.88335 108.28645,143.88614z" fill="none" stroke="#000000" stroke-linecap="butt"/><path d="M282.204,285.85629l-31.68546,19.91855l-36.26938,5.60259" fill="none" stroke="#000000" stroke-linecap="round"/></g><g><path d="M-24.48176,346.11586c0.50166,-58.00278 82.60035,-144.10828 108.28645,-143.88614c25.6861,0.22215 -5.68758,68.25869 -6.18924,126.26147c-0.50166,58.00278 -4.27307,75.38187 -29.95917,75.15972c-20.09504,-0.17378 -55.09396,-2.58186 -68.3164,-30.17915c-3.67888,-7.67843 -3.9308,-14.73051 -3.82159,-27.3559z" fill="#66abff" stroke="#000000" stroke-linecap="butt"/><path d="M-22.70648,361.86444c0.0752,-8.69496 46.61845,42.83201 72.10682,5.2416c24.04835,-35.46662 26.71301,-160.40953 39.78058,-160.2965c13.01317,0.11256 -2.70366,40.80327 -9.19145,76.24885c-6.9321,37.87325 -5.14305,70.92003 -5.21855,79.64914c-0.14615,16.8987 -3.69456,40.39037 -30.61218,40.15758c-26.91764,-0.23279 -67.01139,-24.10194 -66.86522,-41.00063z" fill="#4e83c3" stroke="none" stroke-linecap="butt"/><path d="M-23.84464,346.12138c0.50166,-58.00278 82.60035,-144.10828 108.28645,-143.88614c25.6861,0.22215 -5.68758,68.25871 -6.18924,126.26147c-0.50166,58.00276 -4.27307,75.38187 -29.95917,75.15972c-20.09504,-0.17382 -55.09396,-2.58191 -68.3164,-30.17918c-3.67893,-7.67843 -3.93082,-14.73051 -3.82161,-27.3559z" fill="none" stroke="#000000" stroke-linecap="butt"/><path d="M72.07215,306.39518l-36.26935,-5.60259l-31.68546,-19.91855" fill="none" stroke="#000000" stroke-linecap="round"/></g><g stroke-linecap="butt"><path d="M65.87374,323.99704c1.47434,-28.60445 -12.08149,-94.16322 19.20543,-120.47379c24.12778,-20.29013 91.52079,-5.62288 110.1757,-4.66136c42.84508,2.20834 28.386,82.46869 25.77468,133.13224c-1.05971,20.55985 5.85975,49.42926 -4.58937,64.22797c-15.29967,21.6683 -52.25866,24.82009 -77.71675,23.50792c-19.01616,-0.98014 -55.52477,-0.85945 -68.32523,-14.9838c-16.04016,-17.69911 -5.97678,-52.57192 -4.52445,-80.74922z" fill="#66abff" stroke="#000000"/><path d="M91.99935,399.71471c20.12104,4.08154 65.91377,-16.2926 84.37553,-15.34104c24.15429,1.24497 32.13007,-106.80933 38.35728,-149.10618c5.48776,-37.27451 10.62525,-10.15476 10.0914,0.20286c-0.42192,8.1859 -2.66784,56.21638 -4.14865,98.74449c-0.8565,24.59823 4.19179,43.86083 -4.61666,61.54921c-17.09756,34.33387 -71.26028,24.27901 -90.14742,23.30552c-45.44049,-2.34212 -66.31946,-19.49385 -65.17981,-41.60474c0.67663,-13.12759 1.8648,16.28535 31.26831,22.24982z" fill="#4e83c3" stroke="none"/><path d="M67.91274,238.12941c0.45508,-8.82929 6.00209,-23.05867 15.57187,-29.25016c14.77296,-9.55787 38.70984,-8.72586 65.01856,-7.36984c25.36059,1.30715 53.2599,1.35608 67.91103,10.18883c10.39344,6.26591 11.78217,19.65795 11.30177,28.97845c-0.17502,3.39565 -7.3588,-22.4279 -33.04365,-29.05317c-33.39136,-8.61313 -88.17443,1.33368 -98.08094,7.54674c-32.87353,20.61728 23.43879,128.16302 -4.83708,126.70562c-43.35126,-2.23443 -24.99915,-85.28742 -23.84156,-107.74652z" fill="#4e83c3" stroke="none"/><path d="M66.40673,325.92095c1.47434,-28.60445 -12.08149,-94.16322 19.20543,-120.47379c24.12778,-20.29013 91.52079,-5.62288 110.1757,-4.66136c42.84508,2.20834 28.386,82.46869 25.77468,133.13224c-1.05971,20.55985 5.85975,49.42926 -4.58937,64.22797c-15.29967,21.6683 -52.25866,24.82009 -77.71675,23.50792c-19.01616,-0.98014 -55.52477,-0.85945 -68.32523,-14.9838c-16.04016,-17.69911 -5.97678,-52.57192 -4.52445,-80.74922z" fill="none" stroke="#000000"/><path d="M166.33589,352.24864l7.01921,-136.1831l25.21908,1.29985l-7.01921,136.1831z" data-paper-data="{&quot;index&quot;:null}" fill="#a50000" stroke="#000000"/><path d="M193.71598,311.62175c-0.54739,10.62019 -6.21322,18.9604 -12.65497,18.62837c-6.44176,-0.33202 -11.22008,-9.21056 -10.67269,-19.83074c0.20542,-3.98536 13.09865,7.01865 16.04404,-8.36574c4.90349,-25.6119 1.26997,-80.82357 5.29434,-80.61614c6.44176,0.33202 2.53668,79.56404 1.98929,90.18424z" data-paper-data="{&quot;index&quot;:null}" fill="#780000" stroke="none"/><path d="M166.20591,354.77053l7.01921,-136.1831l25.21908,1.29985l-7.01921,136.1831z" data-paper-data="{&quot;index&quot;:null}" fill="none" stroke="#000000"/><path d="M81.68944,351.04651l7.01921,-136.1831l25.21908,1.29985l-7.01921,136.1831z" fill="#a50000" stroke="#000000"/><path d="M95.10118,219.61794c4.02439,0.20743 -5.26631,54.75295 -3.02201,80.73326c1.34811,15.60566 15.30434,5.98557 15.09892,9.97092c-0.54739,10.62019 -6.21322,18.9604 -12.65497,18.62837c-6.44176,-0.33202 -11.22008,-9.21056 -10.67269,-19.83074c0.54739,-10.62019 4.80898,-89.83384 11.25075,-89.50182z" fill="#780000" stroke="none"/><path d="M81.55945,353.56841l7.01921,-136.1831l25.21908,1.29985l-7.01921,136.1831z" fill="none" stroke="#000000"/><path d="M65.93074,337.90729c1.82165,-35.34263 32.88534,-14.42489 75.54021,-12.22635c42.65487,2.19854 80.74838,-15.15467 78.92673,20.18796c-0.83095,16.12174 4.85367,40.79316 -7.4994,55.01578c-14.72773,16.95668 -49.38628,22.01946 -72.5839,20.8238c-18.79986,-0.96899 -51.83087,-1.93032 -64.74716,-11.87169c-16.38943,-12.61455 -10.65527,-52.16388 -9.63651,-71.9295z" fill="#a50000" stroke="#000000"/><path d="M65.6579,392.25832c0.69097,-13.40581 -12.72558,-78.09457 28.88466,-75.94987c8.02961,0.41387 -8.10184,5.96172 -13.69183,19.58631c-8.10869,19.76344 -7.70823,50.93096 6.7714,61.44935c27.26628,19.80698 129.08408,-4.38549 128.71987,2.68086c-0.69097,13.40581 -34.98288,22.53477 -76.59316,20.39007c-41.61026,-2.1447 -74.78191,-14.75088 -74.09094,-28.1567z" fill="#780000" stroke="none"/><path d="M67.22417,337.34181c1.82165,-35.34263 32.88534,-14.42489 75.54021,-12.22635c42.65487,2.19854 80.74838,-15.15467 78.92673,20.18796c-0.83095,16.12174 4.85367,40.79316 -7.4994,55.01578c-14.72773,16.95668 -49.38628,22.01946 -72.5839,20.8238c-18.79986,-0.96899 -51.83087,-1.93032 -64.74716,-11.87169c-16.38943,-12.61455 -10.65527,-52.16388 -9.63651,-71.9295z" fill="none" stroke="#000000"/><path d="M96.52819,296.18189c12.5353,0.6461 22.15887,11.61403 21.49483,24.49753c-0.66405,12.88351 -11.36426,22.8039 -23.89956,22.15779c-12.5353,-0.6461 -22.15887,-11.61403 -21.49483,-24.49753c0.66405,-12.88351 11.36426,-22.8039 23.89956,-22.15779z" fill="#ffe07b" stroke="#000000"/><path d="M102.85062,299.66855c7.16302,0.3692 12.68716,6.15268 12.33847,12.91776c-0.34869,6.76508 -6.43816,11.94996 -13.60118,11.58076c-7.16302,-0.3692 -12.68716,-6.15268 -12.33847,-12.91776c0.34869,-6.76508 6.43816,-11.94996 13.60118,-11.58076z" fill="#ffecac" stroke="none"/><path d="M84.32814,301.60369c2.89942,0.14944 -2.12306,5.80855 -3.56714,12.51248c-1.31011,6.08208 0.89543,13.11745 3.94173,15.9297c2.3407,2.16083 7.34521,6.36945 12.71901,6.11542c7.962,-0.37637 16.49059,-5.81259 16.38575,-3.77854c-0.3692,7.16302 -9.2174,12.52919 -19.76296,11.98565c-10.54558,-0.54355 -18.79517,-6.79098 -18.42597,-13.954c0.3692,-7.16302 -1.83599,-29.35426 8.70957,-28.81072z" fill="#d6ac23" stroke="none"/><path d="M97.23016,296.57932c12.5353,0.6461 22.15887,11.61403 21.49483,24.49753c-0.66405,12.88351 -11.36426,22.8039 -23.89956,22.15779c-12.5353,-0.6461 -22.15887,-11.61403 -21.49483,-24.49753c0.66405,-12.88351 11.36426,-22.8039 23.89956,-22.15779z" fill="none" stroke="#000000"/><g data-paper-data="{&quot;index&quot;:null}"><path d="M206.27127,325.58921c-0.66405,12.88351 -11.36426,22.8039 -23.89956,22.15779c-12.5353,-0.6461 -22.15887,-11.61403 -21.49483,-24.49753c0.66405,-12.88351 11.36426,-22.8039 23.89956,-22.15779c12.5353,0.6461 22.15887,11.61403 21.49483,24.49753z" fill="#ffe07b" stroke="#000000"/><path d="M190.46753,316.82757c-0.34869,6.7651 -6.43816,11.94996 -13.60118,11.58076c-7.16302,-0.3692 -12.68715,-6.1527 -12.33847,-12.91776c0.34869,-6.7651 6.43816,-11.94996 13.60118,-11.58076c7.16302,0.3692 12.68715,6.1527 12.33847,12.91776z" fill="#ffecac" stroke="none"/><path d="M202.05575,337.29252c-0.3692,7.16302 -9.21736,12.52919 -19.76296,11.98565c-10.54556,-0.54354 -18.79517,-6.79098 -18.42597,-13.954c0.10484,-2.03405 8.02933,4.25022 15.91044,5.44316c5.31924,0.80518 10.7299,-2.86662 13.28034,-4.77535c3.31929,-2.48416 6.23646,-9.25549 5.5586,-15.44003c-0.74716,-6.81688 -5.16123,-12.96236 -2.2618,-12.81292c10.54556,0.54354 6.07054,22.39045 5.70134,29.55349z" fill="#d6ac23" stroke="none"/><path d="M205.53215,325.91234c-0.66405,12.88351 -11.36426,22.8039 -23.89956,22.15779c-12.5353,-0.6461 -22.15887,-11.61403 -21.49483,-24.49753c0.66405,-12.88351 11.36426,-22.8039 23.89956,-22.15779c12.5353,0.6461 22.15887,11.61403 21.49483,24.49753z" fill="none" stroke="#000000"/></g></g><g stroke-linecap="butt"><path d="M108.56246,80.11383c0,0 12.71515,-28.34855 14.83426,-42.75027c1.95402,-13.27934 -2.57458,-40.56641 -2.57458,-40.56641c0,0 47.03087,-29.20428 54.86345,-27.53254c1.88927,0.40327 1.86955,74.89149 1.86955,74.89149l10.35994,32.20436z" fill="#4a0000" stroke="#000000"/><path d="M120.94293,30.48669c-0.19958,-4.21936 34.20291,-0.5553 42.77696,-12.51624c11.22546,-15.65973 -1.84619,-47.13536 6.6662,-47.538c15.01419,-0.71017 4.46722,47.739 4.92809,57.4825c0.46087,9.7435 -11.33694,18.21787 -26.35115,18.92804c-15.01419,0.71017 -27.55925,-6.61281 -28.02012,-16.35629z" fill="#2e0000" stroke="none"/><path d="M109.29718,80.07908c0,0 12.71515,-28.34855 14.83431,-42.75027c1.95402,-13.27934 -2.57458,-40.56641 -2.57458,-40.56641c0,0 47.03087,-29.20428 54.86345,-27.53254c1.88924,0.40323 1.86953,74.89149 1.86953,74.89149l10.35994,32.20436z" fill="none" stroke="#000000"/><path d="M51.89471,127.03563c-1.29107,-27.29536 0.17129,-64.07947 17.00334,-83.47675c6.0653,-6.98968 13.9334,-11.99114 22.8609,-15.60879c18.45682,-7.47913 41.44172,-9.04353 62.3862,-10.0342c41.20637,-1.94906 82.24858,4.83373 101.74934,37.09439c8.5104,14.07903 9.51843,44.4276 10.34425,61.8869c1.33999,28.32969 3.60918,58.83175 -14.42001,78.48965c-18.54223,20.21727 -57.82054,29.21063 -87.83043,30.63009c-26.44823,1.251 -61.83657,1.2501 -81.25767,-13.28314c-24.04215,-17.99128 -29.33241,-53.91048 -30.83597,-85.69813z" fill="#66abff" stroke="none"/><path d="M158.88765,88.47778c31.34482,-1.48261 57.36913,10.30284 58.12691,26.32353c0.75778,16.02069 -24.03793,30.20992 -55.38275,31.69253c-31.34482,1.48261 -57.36913,-10.30284 -58.12691,-26.32353c-0.75778,-16.02069 24.03793,-30.20992 55.38275,-31.69253z" fill="#4e83c3" stroke="none"/><path d="M69.83358,196.65734c-0.53213,-11.25018 30.87242,15.54227 74.80515,16.4754c19.52684,0.41477 46.55755,0.13232 66.64614,-7.42543c13.76775,-5.17969 21.92968,-14.56578 30.17881,-14.95596c18.2554,-0.86348 21.13615,-99.01241 3.88192,-133.06626c-6.46956,-12.76872 -29.25028,-25.93053 -60.3782,-29.70689c-31.5896,-3.83235 -71.46619,1.75995 -68.92044,-6.02977c5.61395,-17.17813 113.22956,4.68013 113.53058,11.04409c0.14459,3.05695 21.17136,2.20551 28.119,20.27082c11.78049,30.63169 11.41286,88.23858 5.99139,112.31844c-11.96242,53.13203 -78.87604,61.34627 -106.40626,62.64844c-47.3655,2.24039 -86.51738,-11.89527 -87.44813,-31.57284z" fill="#4e83c3" stroke="none"/><path d="M51.89471,127.03568c-1.29107,-27.29536 0.17129,-64.07947 17.00334,-83.47675c18.60485,-21.44025 54.17184,-24.17316 85.2471,-25.64302c41.20637,-1.94906 82.24858,4.83373 101.74934,37.09439c8.5104,14.07903 9.51843,44.4276 10.34425,61.8869c1.33999,28.32969 3.60918,58.83175 -14.42001,78.48965c-18.54223,20.21727 -57.82054,29.21063 -87.83043,30.63009c-26.44823,1.251 -61.83657,1.2501 -81.25767,-13.28314c-24.04215,-17.99128 -29.33241,-53.91048 -30.83597,-85.69813z" fill="none" stroke="#000000"/><path d="M163.71119,170.41229c45.10172,-2.13331 86.47094,-35.85313 87.41816,-15.82724c0.94722,20.02588 -40.41168,67.32555 -85.51343,69.45886c-45.10172,2.13331 -92.0316,-41.62233 -92.97883,-61.6482c-0.94722,-20.02588 45.97234,10.14989 91.07406,8.01659z" fill="#00f3ff" stroke="#000000"/><path d="M114.50639,85.52087c13.93101,-0.65894 27.96714,30.06962 28.54371,42.25928c0.57657,12.18965 -13.87968,12.66489 -27.81068,13.32382c-13.93101,0.65894 -29.74809,-0.91246 -30.32466,-13.10211c-0.57657,-12.18965 15.66065,-41.82205 29.59166,-42.48098z" fill="#00f3ff" stroke="#000000"/><path d="M238.18259,121.38434c0.57657,12.18965 -15.02155,15.24698 -28.95258,15.90592c-13.93101,0.65894 -28.36756,1.55033 -28.94413,-10.63932c-0.57657,-12.18965 10.49645,-44.10587 24.42747,-44.76481c13.93103,-0.65894 32.8927,27.30856 33.46927,39.4982z" data-paper-data="{&quot;index&quot;:null}" fill="#00f3ff" stroke="#000000"/><path d="M160.11917,134.55704c9.92586,-0.46949 19.30993,14.06616 19.4829,17.72306c0.17297,3.6569 -7.7333,7.00201 -17.65916,7.4715c-9.92586,0.46949 -18.11258,-2.11439 -18.28555,-5.77132c-0.17297,-3.6569 6.53597,-18.95375 16.46183,-19.42325z" fill="#00f3ff" stroke="#000000"/></g><g stroke-linecap="butt"><path d="M201.26769,536.83849c36.30853,0 65.74239,20.06808 65.74239,44.82332c0,10.25022 11.30747,21.59081 2.81622,29.1419c-12.01592,10.68555 -47.28407,15.68142 -68.5586,15.68142c-16.25781,0 -49.45354,1.02695 -60.9294,-5.63939c-14.15313,-8.22155 -4.81298,-25.51331 -4.81298,-39.18393c0,-24.75524 29.43386,-44.82332 65.74239,-44.82332z" fill="#66abff" stroke="#000000"/><path d="M128.32961,604.38913c0,-2.2932 12.30446,-52.82026 22.25925,-51.96286c12.6509,1.08964 -11.60432,39.03618 5.12498,52.4528c17.48027,14.01887 75.92422,3.40027 87.73771,-1.87356c19.38532,-8.65408 -13.52052,-56.69732 0.99026,-56.69732c11.92489,0 16.72625,16.93261 20.38264,23.27042c8.14115,14.11143 2.8398,25.66754 2.8398,34.81049c0,13.2493 -31.19112,23.98993 -69.66732,23.98993c-38.47621,0 -69.66732,-10.74065 -69.66732,-23.98993z" fill="#4e83c3" stroke="none"/><path d="M201.26769,536.83849c36.30853,0 65.74239,20.0681 65.74239,44.82332c0,10.2502 11.30747,21.59074 2.81622,29.14188c-12.01592,10.68555 -47.28407,15.68144 -68.5586,15.68144c-16.25777,0 -49.45352,1.02695 -60.92938,-5.63939c-14.15315,-8.22155 -4.81301,-25.51331 -4.81301,-39.18393c0,-24.75522 29.43386,-44.82332 65.74239,-44.82332z" fill="none" stroke="#000000"/></g><g data-paper-data="{&quot;index&quot;:null}" stroke-linecap="butt"><path d="M116.80094,572.82339c0,13.67063 9.34015,30.96238 -4.81301,39.18393c-11.47586,6.66631 -44.67159,5.63939 -60.92938,5.63939c-21.27451,0 -56.54268,-4.99587 -68.5586,-15.68142c-8.49125,-7.55109 2.81622,-18.89168 2.81622,-29.1419c0,-24.75524 29.43386,-44.82332 65.74239,-44.82332c36.30853,0 65.74239,20.06808 65.74239,44.82332z" fill="#66abff" stroke="#000000"/><path d="M123.99661,595.55071c0,13.2493 -31.19112,23.98993 -69.6673,23.98993c-38.47618,0 -69.66732,-10.74065 -69.66732,-23.98993c0,-9.14295 -5.30135,-20.69906 2.8398,-34.81047c3.65639,-6.33781 8.45776,-23.27044 20.38264,-23.27044c14.51078,0 -18.39509,48.04324 0.99024,56.6973c11.81349,5.27385 70.25744,15.89243 87.73773,1.87356c16.7293,-13.41662 -7.52592,-51.36315 5.12496,-52.4528c9.95479,-0.85743 22.25925,49.66966 22.25925,51.96286z" fill="#4e83c3" stroke="none"/><path d="M116.80094,572.82339c0,13.67063 9.34015,30.96238 -4.81301,39.18393c-11.47584,6.66631 -44.67159,5.63939 -60.92938,5.63939c-21.27453,0 -56.54268,-4.99587 -68.5586,-15.68142c-8.49125,-7.55109 2.81622,-18.89168 2.81622,-29.1419c0,-24.75524 29.43386,-44.82332 65.74239,-44.82332c36.30853,0 65.74239,20.06808 65.74239,44.82332z" fill="none" stroke="#000000"/></g><g><g><path d="M339.19522,452.45754c3.90856,-20.28616 -31.55869,-36.88056 -21.63137,-34.96787c4.63978,0.89395 19.28527,-20.08909 32.20077,-13.18135c14.71845,7.87207 27.46226,44.27081 25.3805,55.07572c-3.90851,20.28622 -15.12468,35.18091 -25.05197,33.2682c-9.92736,-1.91267 -14.80648,-19.90839 -10.89797,-40.19463z" fill="#66abff" stroke="#000000" stroke-linecap="butt"/><path d="M339.59044,471.21438c0.63291,-3.28516 3.65893,-16.63402 -1.2553,-29.24759c-3.0559,-7.84371 -13.38016,-14.27713 -16.47609,-21.25818c-4.29772,-9.69091 7.11052,-13.36725 9.1696,-12.97051c5.61112,1.08109 36.84329,61.18565 35.22166,69.6023c-1.62163,8.41664 -7.48489,14.36328 -13.09599,13.28217c-5.61105,-1.08111 -14.87982,-8.47579 -13.2582,-16.89246z" fill="#4e83c3" stroke="none" stroke-linecap="butt"/><path d="M338.37718,451.99176c3.90856,-20.28616 -31.55862,-36.88052 -21.63133,-34.96783c4.63976,0.89395 19.28525,-20.08912 32.20073,-13.18137c14.71849,7.87209 27.46228,44.27083 25.3805,55.07574c-3.90849,20.28618 -15.12466,35.18086 -25.05197,33.2682c-9.92729,-1.91267 -14.80644,-19.90845 -10.89792,-40.19465z" fill="none" stroke="#000000" stroke-linecap="butt"/><path d="M369.49637,437.71574l-28.50048,9.09839" fill="none" stroke="#000000" stroke-linecap="round"/></g><path d="M323.04218,387.77091c7.02608,26.33141 -6.73038,52.86775 -30.72596,59.27055c-23.99556,6.40284 -49.1436,-9.75251 -56.1697,-36.08394c-7.02608,-26.33141 6.7304,-52.86775 30.72596,-59.27055c23.99556,-6.40284 49.14358,9.75253 56.16968,36.08394z" fill="#66abff" stroke="#000000" stroke-linecap="butt"/><path d="M324.10698,406.72227c3.96635,14.86451 -10.03269,31.50792 -31.26771,37.17414c-21.23502,5.66622 -41.66474,-1.79051 -45.6311,-16.65498c-2.66968,-10.00515 35.32079,20.94967 50.9256,2.78878c3.68951,-4.29383 11.69477,-24.45287 9.47967,-41.48915c-2.33523,-17.96031 -17.63702,-28.3929 -14.07438,-29.34354c21.23502,-5.66622 26.60156,32.66024 30.56789,47.52475z" fill="#4e83c3" stroke="none" stroke-linecap="butt"/><g data-paper-data="{&quot;index&quot;:null}"><path d="M225.21294,459.67309c1.12253,20.62884 -6.15097,37.79705 -16.24597,38.34635c-10.09494,0.54934 -19.18852,-15.72825 -20.31105,-36.35707c-0.59788,-10.98737 16.96236,-45.32263 32.61204,-51.12687c13.73266,-5.09323 25.39859,17.68142 30.11674,17.42467c10.09496,-0.54934 -27.29436,11.0841 -26.17179,31.71283z" fill="#66abff" stroke="#000000" stroke-linecap="butt"/><path d="M221.63487,480.65425c0.46574,8.55878 -9.71988,14.62877 -15.42568,14.93929c-5.70584,0.31052 -10.7089,-6.37602 -11.17462,-14.9348c-0.46574,-8.55878 38.62567,-63.87486 44.33154,-64.18536c2.09384,-0.11397 12.89843,5.0749 7.32672,14.09379c-4.01365,6.49694 -15.11473,11.47145 -19.20567,18.82852c-6.57871,11.83098 -5.39015,25.46684 -5.20839,28.80747z" fill="#4e83c3" stroke="none" stroke-linecap="butt"/><path d="M226.08655,459.3225c1.12253,20.62877 -6.15101,37.79705 -16.24595,38.34637c-10.09494,0.5493 -19.18852,-15.72831 -20.31103,-36.35704c-0.59788,-10.98739 16.96231,-45.32267 32.61204,-51.12692c13.73266,-5.09323 25.39859,17.68146 30.1167,17.42472c10.09494,-0.54932 -27.29432,11.0841 -26.17175,31.71283z" fill="none" stroke="#000000" stroke-linecap="butt"/><path d="M197.18981,440.95981l27.00405,12.87782" fill="none" stroke="#000000" stroke-linecap="round"/></g><path d="M323.79843,390.22708c7.02612,26.33141 -6.73036,52.86775 -30.72593,59.27055c-23.99558,6.40284 -49.14358,-9.75251 -56.16968,-36.08394c-7.02608,-26.33141 6.73038,-52.86775 30.72596,-59.27055c23.99558,-6.40284 49.14356,9.75251 56.16964,36.08394z" fill="none" stroke="#000000" stroke-linecap="butt"/><g><path d="M304.76819,463.65305c8.28037,-18.92724 -22.66131,-42.9254 -13.399,-38.87331c4.32899,1.89385 23.23613,-15.34849 34.31315,-5.76586c12.62332,10.92035 17.03784,49.23204 12.62755,59.31314c-8.28033,18.92733 -22.50148,30.98606 -31.76377,26.93396c-9.26238,-4.05208 -10.05835,-22.68049 -1.77798,-41.60784z" fill="#66abff" stroke="#000000" stroke-linecap="butt"/><path d="M301.02272,482.03637c1.34089,-3.06511 7.23253,-15.41976 5.21695,-28.80591c-1.25337,-8.32414 -9.90726,-16.87338 -11.38968,-24.36486c-2.05788,-10.39949 9.87989,-11.47303 11.80105,-10.63254c5.23523,2.29033 22.46325,67.79761 19.02776,75.65044c-3.43546,7.85285 -10.46445,12.36215 -15.69966,10.07182c-5.23519,-2.29033 -12.64776,-11.54479 -9.2123,-19.39764z" fill="#4e83c3" stroke="none" stroke-linecap="butt"/><path d="M304.07282,463.01853c8.28037,-18.92724 -22.66125,-42.92536 -13.39896,-38.87328c4.32894,1.89385 23.2361,-15.34851 34.31311,-5.76591c12.62334,10.92037 17.03786,49.23204 12.62755,59.31316c-8.28031,18.92726 -22.50146,30.98601 -31.76377,26.93396c-9.26229,-4.05208 -10.05829,-22.68056 -1.77796,-41.60784z" fill="none" stroke="#000000" stroke-linecap="butt"/><path d="M337.57201,455.94667l-29.80449,2.59811" fill="none" stroke="#000000" stroke-linecap="round"/></g><g><path d="M259.43239,473.59289c9.95935,-18.10018 -18.68346,-44.80016 -9.82588,-39.92643c4.13981,2.27786 24.52985,-13.18257 34.69415,-2.63677c11.5832,12.01797 12.5123,50.57195 7.20775,60.21254c-9.95933,18.10026 -25.21343,28.82244 -34.07099,23.94871c-8.85762,-4.87371 -7.96444,-23.49772 1.99491,-41.59801z" fill="#66abff" stroke="#000000" stroke-linecap="butt"/><path d="M254.03856,491.56182c1.6128,-2.93117 8.59838,-14.70194 7.80255,-28.21557c-0.49486,-8.40341 -8.33954,-17.70079 -9.13786,-25.29567c-1.10827,-10.54305 10.87769,-10.53181 12.71488,-9.52089c5.00648,2.75472 16.23521,69.55237 12.10312,77.06206c-4.13207,7.50969 -11.5403,11.36435 -16.54676,8.60962c-5.00641,-2.75472 -11.55104,-12.64207 -7.41897,-20.15177z" fill="#4e83c3" stroke="none" stroke-linecap="butt"/><path d="M258.79728,472.89806c9.95935,-18.10018 -18.68339,-44.8001 -9.82583,-39.92639c4.13979,2.27786 24.52983,-13.18261 34.69413,-2.63682c11.58322,12.018 12.51232,50.57197 7.20773,60.21259c-9.95928,18.1002 -25.21341,28.82242 -34.07099,23.94871c-8.85756,-4.87371 -7.96438,-23.49779 1.99495,-41.59801z" fill="none" stroke="#000000" stroke-linecap="butt"/><path d="M292.79903,468.88699l-29.9173,-0.10993" fill="none" stroke="#000000" stroke-linecap="round"/></g></g><g data-paper-data="{&quot;index&quot;:null}"><g><path d="M-57.59272,446.23169c3.90851,20.28624 -0.97061,38.28199 -10.89797,40.19463c-9.92729,1.91269 -21.14346,-12.98197 -25.05197,-33.2682c-2.08176,-10.80489 10.66205,-47.20363 25.3805,-55.0757c12.91549,-6.90775 27.56098,14.0753 32.20077,13.18135c9.92732,-1.91269 -25.53993,14.68171 -21.63137,34.96787z" fill="#66abff" stroke="#000000" stroke-linecap="butt"/><path d="M-58.29367,467.50423c1.62163,8.41664 -7.64714,15.81132 -13.2582,16.89246c-5.6111,1.08109 -11.47436,-4.86552 -13.09599,-13.28217c-1.62163,-8.41664 29.61054,-68.52121 35.22164,-69.6023c2.05908,-0.39674 13.46732,3.2796 9.1696,12.97051c-3.09593,6.98103 -13.42021,13.41444 -16.47609,21.25815c-4.91423,12.61357 -1.88823,25.96245 -1.2553,29.24759z" fill="#4e83c3" stroke="none" stroke-linecap="butt"/><path d="M-56.77473,445.76593c3.90851,20.2862 -0.97065,38.28196 -10.89792,40.19463c-9.92732,1.91267 -21.14346,-12.98202 -25.05197,-33.2682c-2.08176,-10.80491 10.66203,-47.20365 25.3805,-55.07574c12.91549,-6.90775 27.56096,14.07532 32.20073,13.18137c9.92727,-1.91269 -25.53988,14.68169 -21.63133,34.96783z" fill="none" stroke="#000000" stroke-linecap="butt"/><path d="M-87.89391,431.48985l28.50048,9.09839" fill="none" stroke="#000000" stroke-linecap="round"/></g><path d="M-41.43971,381.54499c7.0261,-26.33141 32.17412,-42.48678 56.16968,-36.08394c23.99556,6.40277 37.75206,32.93914 30.72596,59.27055c-7.0261,26.33143 -32.17415,42.48678 -56.1697,36.08394c-23.99558,-6.40279 -37.75206,-32.93914 -30.72598,-59.27055z" fill="#66abff" stroke="#000000" stroke-linecap="butt"/><path d="M-42.5045,400.49639c3.96633,-14.86451 9.33288,-53.19098 30.56789,-47.52475c3.56265,0.95064 -11.73914,11.38323 -14.07438,29.34354c-2.21511,17.03628 5.79016,37.19531 9.47967,41.48915c15.60481,18.16088 53.5953,-12.79393 50.9256,-2.78878c-3.96635,14.86449 -24.39608,22.3212 -45.6311,16.65498c-21.23502,-5.66622 -35.23406,-22.30963 -31.26771,-37.17414z" fill="#4e83c3" stroke="none" stroke-linecap="butt"/><g data-paper-data="{&quot;index&quot;:null}"><path d="M56.38954,453.44711c1.12257,-20.62873 -36.26675,-32.26218 -26.17179,-31.71283c4.71813,0.25674 16.38406,-22.5179 30.11672,-17.42467c15.64969,5.80425 33.20993,40.13953 32.61204,51.12687c-1.12251,20.6288 -10.21609,36.90639 -20.31103,36.35707c-10.095,-0.5493 -17.3685,-17.71751 -16.24597,-38.34633z" fill="#66abff" stroke="#000000" stroke-linecap="butt"/><path d="M59.32371,471.97725c0.18175,-3.34061 1.37032,-16.97649 -5.20839,-28.80747c-4.09093,-7.35709 -15.19201,-12.3316 -19.20567,-18.82852c-5.57171,-9.01889 5.23288,-14.20776 7.32672,-14.09377c5.70586,0.3105 44.79725,55.62658 44.33151,64.18536c-0.46572,8.55878 -5.46877,15.24532 -11.17462,14.93482c-5.7058,-0.31052 -15.89142,-6.38053 -15.42568,-14.93931z" fill="#4e83c3" stroke="none" stroke-linecap="butt"/><path d="M55.51591,453.09652c1.12257,-20.62873 -36.2667,-32.26216 -26.17175,-31.71283c4.71811,0.25676 16.38404,-22.51794 30.1167,-17.42469c15.64973,5.80427 33.20993,40.13953 32.61204,51.12692c-1.12253,20.62875 -10.21609,36.90637 -20.31103,36.35707c-10.09494,-0.54932 -17.36848,-17.7176 -16.24595,-38.34637z" fill="none" stroke="#000000" stroke-linecap="butt"/><path d="M57.4086,447.61169l27.00405,-12.8778" fill="none" stroke="#000000" stroke-linecap="round"/></g><path d="M13.97367,347.91722c23.99558,6.40277 37.75206,32.93912 30.72596,59.27053c-7.0261,26.33143 -32.17408,42.48676 -56.16966,36.08392c-23.99558,-6.40277 -37.75204,-32.93912 -30.72593,-59.27053c7.0261,-26.33143 32.17406,-42.48678 56.16964,-36.08394z" fill="none" stroke="#000000" stroke-linecap="butt"/><g><path d="M-23.16569,457.42717c8.28037,18.92735 7.48438,37.55576 -1.778,41.60786c-9.26229,4.0521 -23.48342,-8.00661 -31.76377,-26.93393c-4.41028,-10.08112 0.00423,-48.39279 12.62755,-59.31314c11.077,-9.5826 29.98417,7.65972 34.31313,5.76586c9.26231,-4.0521 -21.67935,19.94607 -13.399,38.87331z" fill="#66abff" stroke="#000000" stroke-linecap="butt"/><path d="M-19.16439,478.33176c3.43546,7.85285 -3.97713,17.10729 -9.2123,19.39762c-5.23521,2.29033 -12.2642,-2.21895 -15.69966,-10.0718c-3.43546,-7.85285 13.79251,-73.36011 19.02776,-75.65044c1.92114,-0.84049 13.85895,0.23305 11.80105,10.63254c-1.48242,7.49145 -10.13631,16.04072 -11.38968,24.36486c-2.01558,13.38615 3.87606,25.74082 5.21695,28.80591z" fill="#4e83c3" stroke="none" stroke-linecap="butt"/><path d="M-22.47034,456.7927c8.28033,18.92728 7.48433,37.55576 -1.77796,41.60786c-9.26231,4.05208 -23.48346,-8.00667 -31.76377,-26.93393c-4.4103,-10.08114 0.00419,-48.39279 12.62755,-59.31316c11.077,-9.5826 29.98417,7.65974 34.31311,5.76589c9.26229,-4.05208 -21.67933,19.94604 -13.39896,38.87328z" fill="none" stroke="#000000" stroke-linecap="butt"/><path d="M-55.96956,449.72076l29.80449,2.59811" fill="none" stroke="#000000" stroke-linecap="round"/></g><g><path d="M22.17013,467.36704c9.95935,18.10028 10.85255,36.72429 1.99491,41.59801c-8.85756,4.87373 -24.11166,-5.84847 -34.07099,-23.94873c-5.30455,-9.64059 -4.37547,-48.19457 7.20775,-60.21254c10.1643,-10.54579 30.55434,4.91466 34.69415,2.6368c8.85758,-4.87373 -19.7852,21.82623 -9.82585,39.92643z" fill="#66abff" stroke="#000000" stroke-linecap="butt"/><path d="M28.04691,487.82371c4.13207,7.50969 -2.41255,17.39702 -7.41897,20.15175c-5.00643,2.75474 -12.41469,-1.09993 -16.54676,-8.60962c-4.13207,-7.50969 7.09666,-74.30732 12.10314,-77.06204c1.83719,-1.01091 13.82315,-1.02216 12.71488,9.52089c-0.79833,7.59488 -8.64298,16.89224 -9.13786,25.29565c-0.79585,13.51363 6.18976,25.2844 7.80253,28.21557z" fill="#4e83c3" stroke="none" stroke-linecap="butt"/><path d="M22.8052,466.67223c9.95933,18.10022 10.85251,36.72429 1.99495,41.59801c-8.85758,4.87371 -24.11171,-5.84851 -34.07099,-23.94873c-5.30457,-9.64062 -4.37549,-48.19459 7.20773,-60.21259c10.1643,-10.54579 30.55436,4.9147 34.69415,2.63684c8.85756,-4.87371 -19.78518,21.82621 -9.82583,39.92639z" fill="none" stroke="#000000" stroke-linecap="butt"/><path d="M18.72073,462.55115l-29.9173,0.10993" fill="none" stroke="#000000" stroke-linecap="round"/></g></g></g></g></svg>