<svg version="1.1" xmlns="http://www.w3.org/2000/svg" xmlns:xlink="http://www.w3.org/1999/xlink" width="183.01446" height="299.73546" viewBox="0,0,183.01446,299.73546"><g transform="translate(-146.20689,-31.64068)"><g data-paper-data="{&quot;isPaintingLayer&quot;:true}" fill-rule="nonzero" stroke-linejoin="miter" stroke-miterlimit="10" stroke-dasharray="" stroke-dashoffset="0" style="mix-blend-mode: normal"><g><path d="M281.31589,209.41351l-17.42066,-63.53445l17.6028,-5.4392l17.42066,63.53445z" data-paper-data="{&quot;index&quot;:null}" fill="#1b1b1b" stroke="#000000" stroke-width="2.5" stroke-linecap="butt"/><g data-paper-data="{&quot;index&quot;:null}"><g stroke-linecap="butt"><path d="M299.81257,196.60323c0,6.60096 -6.06651,19.10626 -12.09711,19.10626c-6.0306,0 -21.71546,-58.49647 -21.71546,-65.09742c0,-4.23939 -0.8585,-8.72409 2.18186,-10.84599c1.69364,-1.18201 6.57998,-1.1061 8.7375,-1.1061c3.12978,0 -1.15624,23.02899 3.93732,37.2554c4.72094,13.18567 18.9559,17.51269 18.9559,20.68785z" fill="#840000" stroke="#000000" stroke-width="0"/><path d="M300.18438,194.05553c0,10.4423 -6.0787,18.90748 -12.36644,18.90748c-6.28775,0 -21.59222,-51.39026 -21.59222,-61.83257c0,-6.88962 7.38964,23.04573 14.89159,41.08306c3.86846,9.3011 8.48725,12.06229 10.62648,12.06229c6.28775,0 8.44059,-20.66256 8.44059,-10.22025z" fill="#430000" stroke="none" stroke-width="0"/><path d="M299.8126,196.09221c0,6.60096 -6.06651,19.10626 -12.09711,19.10626c-6.03059,0 -21.71546,-58.49647 -21.71546,-65.09742c0,-3.57511 -5.21433,-9.06604 -2.94151,-11.25633c1.92363,-1.85378 11.09647,-0.69575 13.86086,-0.69575c3.30727,0 -0.79427,23.93429 4.46069,38.96953c4.3271,12.38051 18.43253,15.99283 18.43253,18.97372z" fill="none" stroke="#000000" stroke-width="3"/></g><path d="M281.34437,175.57854l-6.7108,4.54744" fill="none" stroke="#000000" stroke-width="3" stroke-linecap="round"/></g></g><path d="M203.22856,292.65495l17.42066,-59.84952l17.6028,5.12373l-17.42066,59.84952z" fill="#1b1b1b" stroke="#000000" stroke-width="2.5" stroke-linecap="butt"/><g data-paper-data="{&quot;index&quot;:null}"><g stroke-linecap="butt"><path d="M259.89487,210.72236c7.91378,1.63998 22.2783,67.05229 21.28012,74.87263c-0.99818,7.82034 -16.34471,21.70265 -24.2585,20.06267c-7.91379,-1.63999 -14.15634,-75.92445 -13.15816,-83.74479c0.4954,-3.88127 -1.60483,-8.85126 1.28101,-10.8787c2.92881,-2.05763 10.86938,-1.13786 14.85551,-0.3118z" fill="#840000" stroke="#000000" stroke-width="0"/><path d="M269.4263,292.49059c8.25125,1.70992 14.2009,-22.18413 12.62184,-9.81285c-1.57906,12.37129 -17.04733,26.24173 -25.29857,24.53181c-8.25126,-1.70992 -14.3525,-72.24992 -12.77344,-84.6212c1.04183,-8.16233 6.21232,29.31246 13.32935,52.72189c3.66998,12.07129 9.31355,16.59859 12.12081,17.18034z" fill="#430000" stroke="none" stroke-width="0"/><path d="M259.97213,210.11692c7.91378,1.63998 22.2783,67.05229 21.28012,74.87263c-0.99818,7.82034 -16.58361,22.89713 -24.4974,21.25714c-7.91379,-1.63999 -13.91744,-77.11893 -12.91926,-84.93926c0.52963,-4.14939 -2.18365,-10.08492 1.02464,-12.07844c2.83835,-1.76365 11.39708,0.11812 15.11189,0.88795z" fill="none" stroke="#000000" stroke-width="3"/></g><path d="M274.73989,246.64529l-27.93735,14.0147" fill="none" stroke="#000000" stroke-width="3" stroke-linecap="round"/></g><g><g stroke-linecap="butt"><path d="M225.3164,205.96127c3.98614,-0.82605 11.92671,-1.74582 14.85551,0.3118c2.88584,2.02744 0.78561,6.99743 1.28102,10.8787c0.53207,4.16858 -0.9932,27.22197 -3.73229,48.09127c-2.39949,18.28191 -5.73048,34.88772 -9.42587,35.65351c-2.81738,0.58385 1.32864,-26.10235 -0.71159,-42.59794c-0.13895,-1.12344 -2.72067,-3.47744 -3.0496,-4.40621c-2.01007,-5.67557 -4.69477,-6.58613 -6.13006,-7.88075c-4.56825,-4.12051 -13.89652,38.51014 -14.36724,34.82223c-0.99818,-7.82034 13.36634,-73.23265 21.28012,-74.87263z" fill="#840000" stroke="#000000" stroke-width="0"/><path d="M230.45165,301.72947c2.80726,-0.58175 -6.21584,-19.10906 -2.54586,-31.18035c7.11703,-23.40942 12.28753,-60.88421 13.32936,-52.72189c1.57906,12.37128 -4.52219,82.91128 -12.77344,84.6212c-8.25125,1.70992 3.28049,0.83947 1.70143,-11.53181c-1.57906,-12.37128 -7.96274,12.52276 0.28851,10.81285z" fill="#430000" stroke="none" stroke-width="0"/><path d="M225.23913,205.35585c3.71481,-0.76983 12.27354,-2.6516 15.11189,-0.88794c3.20829,1.99352 0.49502,7.92905 1.02464,12.07845c0.56344,4.41433 -1.10407,30.38627 -4.08677,52.46714c-2.3014,17.03718 -5.38578,31.75785 -8.83249,32.47212c-1.99381,0.41318 0.85875,-43.23473 -1.75301,-44.56035c-3.47035,-1.76141 -6.57339,-17.10788 -10.85143,-10.8475c-5.28157,7.72893 -11.48041,37.3828 -11.89295,34.15071c-0.99818,-7.82034 13.36634,-73.23265 21.28012,-74.87263z" fill="none" stroke="#000000" stroke-width="3"/></g><path d="M238.40872,255.89891l-27.93735,-14.0147" fill="none" stroke="#000000" stroke-width="3" stroke-linecap="round"/></g><g><g stroke-linecap="butt"><path d="M210.58866,138.33395c3.40398,0 10.10781,0.60132 12.32592,2.809c2.18558,2.17529 -0.08945,5.93249 -0.08945,9.23332c0,6.6508 -17.57681,65.5889 -24.33483,65.5889c-6.75802,0 -13.55629,-12.59972 -13.55629,-19.25051c0,-6.6508 18.89663,-58.38072 25.65464,-58.38072z" fill="#840000" stroke="#000000" stroke-width="0"/><path d="M193.97609,204.44515c2.39727,0 7.57319,-2.78203 11.90827,-12.15337c8.40684,-18.17351 16.68784,-48.33485 16.68784,-41.39322c0,10.52114 -17.15051,63.32147 -24.19671,63.32147c-7.04619,0 -13.85812,-9.55116 -13.85812,-20.0723c0,-10.52114 2.41252,10.29742 9.45871,10.29742z" fill="#430000" stroke="none" stroke-width="0"/><path d="M210.58865,137.81908c3.17228,0 10.49254,-0.0896 12.66662,1.85899c2.45744,2.20255 -0.43016,6.65447 -0.43016,10.18332c0,6.6508 -17.57681,65.5889 -24.33483,65.5889c-6.75802,0 -13.55629,-12.59972 -13.55629,-19.25051c0,-6.6508 18.89663,-58.38072 25.65464,-58.38072z" fill="none" stroke="#000000" stroke-width="3"/></g><path d="M194.42371,165.54844l18.72649,14.56456" fill="none" stroke="#000000" stroke-width="3" stroke-linecap="round"/></g><g data-paper-data="{&quot;index&quot;:null}" fill="#000000" stroke="none" stroke-width="1" stroke-linecap="butt" font-family="&quot;Helvetica Neue&quot;, Helvetica, Arial, sans-serif" font-weight="normal" font-size="16" text-anchor="start"/><g><path d="M169.91782,208.5758c2.10895,-7.90363 9.65738,-12.75282 16.85988,-10.83095c7.2025,1.92186 11.33165,9.88701 9.2227,17.79064c-2.10895,7.90364 -9.65739,12.75282 -16.85989,10.83095c-7.20251,-1.92186 -11.33165,-9.88701 -9.2227,-17.79064z" fill="#840000" stroke="#000000" stroke-width="0" stroke-linecap="butt"/><path d="M169.5982,214.26426c1.19053,-4.46173 1.98452,-17.27273 8.35842,-15.57196c1.06937,0.28534 -2.70679,4.72372 -3.40773,10.11468c-0.66488,5.1136 1.73798,11.16454 2.84542,12.45338c4.68394,5.45117 16.08716,-3.84022 15.28582,-0.83708c-1.19054,4.46172 -7.32272,6.69993 -13.69662,4.99916c-6.3739,-1.70077 -10.57585,-6.69646 -9.38531,-11.15819z" fill="#430000" stroke="none" stroke-width="0" stroke-linecap="butt"/><path d="M186.5507,198.48207c7.20251,1.92186 11.33165,9.88701 9.2227,17.79064c-2.10895,7.90364 -9.65737,12.75282 -16.85988,10.83095c-7.20251,-1.92186 -11.33165,-9.88701 -9.2227,-17.79064c2.10895,-7.90364 9.65737,-12.75282 16.85988,-10.83095z" fill="none" stroke="#000000" stroke-width="3.5" stroke-linecap="butt"/><g><path d="M194.91366,230.72532c1.59872,-5.99146 -8.67025,-11.70914 -5.73825,-10.92679c1.37035,0.36565 6.1986,-5.6077 9.91981,-3.26664c4.24068,2.66787 7.28763,13.83539 6.43612,17.02658c-1.59872,5.99147 -5.27158,10.21428 -8.20358,9.43193c-2.932,-0.78235 -4.01283,-6.27361 -2.41411,-12.26508z" fill="#840000" stroke="#000000" stroke-width="0" stroke-linecap="butt"/><path d="M190.39348,220.85302c-1.08213,-2.99238 2.41133,-3.85219 3.01947,-3.68992c1.65722,0.4422 9.73922,19.09809 9.07592,21.58391c-0.6633,2.48582 -2.54445,4.1425 -4.20166,3.7003c-1.65721,-0.4422 -2.94073,-2.57693 -2.27743,-5.06275c0.41989,-1.57361 -3.5832,-10.90943 -5.6163,-16.53154z" fill="#430000" stroke="none" stroke-width="0" stroke-linecap="butt"/><path d="M188.94033,219.64178c1.37035,0.36565 6.1986,-5.6077 9.91981,-3.26664c4.24068,2.66787 7.28763,13.83539 6.43612,17.02658c-1.59872,5.99146 -5.27159,10.21428 -8.20358,9.43193c-2.93199,-0.78235 -4.01282,-6.27362 -2.4141,-12.26508c1.59872,-5.99146 -8.67024,-11.70914 -5.73825,-10.92679z" fill="none" stroke="#000000" stroke-width="3.5" stroke-linecap="butt"/><path d="M204.29766,226.95131l-8.72566,2.12227" fill="none" stroke="#000000" stroke-width="3.5" stroke-linecap="round"/></g><g data-paper-data="{&quot;index&quot;:null}"><path d="M163.2428,226.55618c0.35693,6.19082 -1.80964,11.35106 -4.8392,11.52572c-3.02955,0.17467 -5.77483,-4.70237 -6.13176,-10.89319c-0.19011,-3.29737 5.04746,-13.62041 9.73922,-15.37777c4.11703,-1.54208 7.64073,5.28262 9.05667,5.20098c3.02955,-0.17467 -8.18188,3.35344 -7.82494,9.54424z" fill="#840000" stroke="#000000" stroke-width="0" stroke-linecap="butt"/><path d="M160.82558,232.85731c0.14809,2.56853 -1.53976,4.40038 -3.25211,4.49911c-1.71235,0.09873 -3.22054,-1.90344 -3.36863,-4.47197c-0.14809,-2.56853 11.5319,-19.21 13.24426,-19.30873c0.62837,-0.03623 3.87649,1.51077 2.21284,4.22326c-3.12566,5.09626 -8.93011,13.43236 -8.83637,15.05833z" fill="#430000" stroke="none" stroke-width="0" stroke-linecap="butt"/><path d="M163.50466,226.45009c0.35694,6.19081 -1.80964,11.35106 -4.83919,11.52573c-3.02954,0.17467 -5.77483,-4.70238 -6.13176,-10.89319c-0.19011,-3.29737 5.04746,-13.62041 9.73922,-15.37777c4.11703,-1.54208 7.64073,5.28262 9.05667,5.20098c3.02954,-0.17467 -8.18188,3.35344 -7.82494,9.54424z" fill="none" stroke="#000000" stroke-width="3.5" stroke-linecap="butt"/><path d="M154.81329,220.96638l8.11798,3.83921" fill="none" stroke="#000000" stroke-width="3.5" stroke-linecap="round"/></g><g data-paper-data="{&quot;index&quot;:null}"><path d="M175.98193,232.14188c1.59872,5.99147 0.51789,11.48273 -2.41411,12.26508c-2.932,0.78235 -6.60486,-3.44046 -8.20358,-9.43193c-0.85151,-3.19119 2.19544,-14.35871 6.43612,-17.02658c3.72121,-2.34106 8.54946,3.63229 9.91981,3.26664c2.932,-0.78235 -7.33697,4.93533 -5.73825,10.92679z" fill="#840000" stroke="#000000" stroke-width="0" stroke-linecap="butt"/><path d="M174.8858,238.80115c0.6633,2.48582 -0.62022,4.62055 -2.27743,5.06276c-1.65721,0.4422 -3.53836,-1.21448 -4.20166,-3.7003c-0.6633,-2.48582 7.4187,-21.14171 9.07592,-21.58391c0.60814,-0.16227 4.1016,0.69753 3.01947,3.68991c-2.0331,5.62211 -6.03619,14.95793 -5.6163,16.53154z" fill="#430000" stroke="none" stroke-width="0" stroke-linecap="butt"/><path d="M176.217,231.98511c1.59872,5.99146 0.51789,11.48273 -2.4141,12.26508c-2.93199,0.78235 -6.60486,-3.44047 -8.20358,-9.43193c-0.85151,-3.19119 2.19544,-14.35871 6.43612,-17.02658c3.72121,-2.34106 8.54946,3.63229 9.91981,3.26664c2.93199,-0.78235 -7.33697,4.93533 -5.73825,10.92679z" fill="none" stroke="#000000" stroke-width="3.5" stroke-linecap="butt"/><path d="M175.32358,230.49016l-8.72566,-2.12227" fill="none" stroke="#000000" stroke-width="3.5" stroke-linecap="round"/></g><g data-paper-data="{&quot;index&quot;:null}"><path d="M186.55839,234.57625c3.73374,4.95104 4.79643,10.44584 2.37358,12.27299c-2.42285,1.82715 -7.41374,-0.70525 -11.14748,-5.65629c-1.98867,-2.63703 -3.36323,-14.13086 -0.43648,-18.19719c2.56824,-3.56821 9.28782,0.15201 10.42021,-0.70196c2.42285,-1.82715 -4.94357,7.33142 -1.20983,12.28245z" fill="#840000" stroke="#000000" stroke-width="0" stroke-linecap="butt"/><path d="M188.04598,241.15915c1.54911,2.05415 1.1622,4.51481 -0.20723,5.54754c-1.36943,1.03274 -3.73538,0.20472 -5.28448,-1.84943c-1.54911,-2.05415 -1.07291,-22.37985 0.29653,-23.41259c0.50254,-0.37898 4.06297,-0.89548 4.18509,2.28421c0.22945,5.97402 0.02945,16.12992 1.01008,17.43027z" fill="#430000" stroke="none" stroke-width="0" stroke-linecap="butt"/><path d="M186.71728,234.34264c3.73374,4.95103 4.79643,10.44584 2.37359,12.27298c-2.42284,1.82715 -7.41374,-0.70526 -11.14748,-5.65629c-1.98867,-2.63703 -3.36323,-14.13086 -0.43648,-18.19719c2.56824,-3.56821 9.28782,0.15201 10.42021,-0.70196c2.42284,-1.82715 -4.94357,7.33142 -1.20983,12.28245z" fill="none" stroke="#000000" stroke-width="3.5" stroke-linecap="butt"/><path d="M176.44396,234.60666l8.88346,-1.31349" fill="none" stroke="#000000" stroke-width="3.5" stroke-linecap="round"/></g></g><g data-paper-data="{&quot;index&quot;:null}"><path d="M310.08221,209.51456c2.10895,7.90363 -2.02019,15.86878 -9.2227,17.79064c-7.2025,1.92187 -14.75094,-2.92731 -16.85989,-10.83095c-2.10895,-7.90363 2.0202,-15.86878 9.2227,-17.79064c7.2025,-1.92187 14.75093,2.92732 16.85988,10.83095z" fill="#840000" stroke="#000000" stroke-width="0" stroke-linecap="butt"/><path d="M310.40182,215.20303c1.19054,4.46173 -3.01141,9.45742 -9.38531,11.15819c-6.3739,1.70077 -12.50608,-0.53744 -13.69662,-4.99916c-0.80134,-3.00314 10.60188,6.28825 15.28582,0.83708c1.10744,-1.28884 3.5103,-7.33978 2.84542,-12.45338c-0.70094,-5.39096 -4.4771,-9.82934 -3.40773,-10.11468c6.3739,-1.70077 7.16789,11.11023 8.35842,15.57196z" fill="#430000" stroke="none" stroke-width="0" stroke-linecap="butt"/><path d="M310.30922,210.25183c2.10895,7.90363 -2.02019,15.86878 -9.2227,17.79064c-7.20251,1.92187 -14.75093,-2.92731 -16.85988,-10.83095c-2.10895,-7.90363 2.02019,-15.86878 9.2227,-17.79064c7.20251,-1.92187 14.75093,2.92731 16.85988,10.83095z" fill="none" stroke="#000000" stroke-width="3.5" stroke-linecap="butt"/><g><path d="M285.08637,231.66409c1.59872,5.99147 0.51789,11.48273 -2.41411,12.26508c-2.932,0.78235 -6.60486,-3.44046 -8.20358,-9.43193c-0.85151,-3.19119 2.19544,-14.35871 6.43612,-17.02658c3.72121,-2.34106 8.54946,3.63229 9.91981,3.26664c2.932,-0.78235 -7.33697,4.93533 -5.73825,10.92679z" fill="#840000" stroke="#000000" stroke-width="0" stroke-linecap="butt"/><path d="M283.99026,238.32336c0.6633,2.48582 -0.62022,4.62055 -2.27743,5.06276c-1.65721,0.4422 -3.53836,-1.21448 -4.20166,-3.7003c-0.6633,-2.48582 7.4187,-21.14171 9.07592,-21.58391c0.60814,-0.16227 4.10159,0.69753 3.01946,3.68991c-2.0331,5.62211 -6.03619,14.95793 -5.6163,16.53154z" fill="#430000" stroke="none" stroke-width="0" stroke-linecap="butt"/><path d="M285.32146,231.50732c1.59872,5.99146 0.51789,11.48273 -2.4141,12.26508c-2.93199,0.78235 -6.60486,-3.44047 -8.20358,-9.43193c-0.85151,-3.19119 2.19544,-14.35871 6.43612,-17.02658c3.72121,-2.34106 8.54946,3.63229 9.91981,3.26664c2.93199,-0.78235 -7.33697,4.93533 -5.73825,10.92679z" fill="none" stroke="#000000" stroke-width="3.5" stroke-linecap="butt"/><path d="M275.70237,227.8901l8.72566,2.12227" fill="none" stroke="#000000" stroke-width="3.5" stroke-linecap="round"/></g><g data-paper-data="{&quot;index&quot;:null}"><path d="M316.75721,227.49495c0.35694,-6.19081 -10.85449,-9.71891 -7.82494,-9.54424c1.41594,0.08164 4.93964,-6.74307 9.05667,-5.20099c4.69176,1.75735 9.92932,12.0804 9.73922,15.37776c-0.35694,6.19081 -3.10222,11.06786 -6.13176,10.89319c-3.02955,-0.17467 -5.19613,-5.33491 -4.8392,-11.52572z" fill="#840000" stroke="#000000" stroke-width="0" stroke-linecap="butt"/><path d="M310.33806,218.73777c-1.66365,-2.71249 1.58447,-4.25949 2.21284,-4.22326c1.71236,0.09873 13.39235,16.7402 13.24426,19.30873c-0.14809,2.56853 -1.65628,4.5707 -3.36863,4.47197c-1.71235,-0.09873 -3.4002,-1.93057 -3.25211,-4.4991c0.09375,-1.62597 -5.7107,-9.96207 -8.83637,-15.05833z" fill="#430000" stroke="none" stroke-width="0" stroke-linecap="butt"/><path d="M308.67042,217.84461c1.41595,0.08164 4.93964,-6.74307 9.05668,-5.20099c4.69176,1.75735 9.92932,12.0804 9.73922,15.37777c-0.35694,6.19081 -3.10222,11.06785 -6.13177,10.89318c-3.02954,-0.17467 -5.19612,-5.33492 -4.83918,-11.52572c0.35693,-6.19081 -10.85449,-9.71891 -7.82494,-9.54424z" fill="none" stroke="#000000" stroke-width="3.5" stroke-linecap="butt"/><path d="M317.06874,225.74438l8.11799,-3.83921" fill="none" stroke="#000000" stroke-width="3.5" stroke-linecap="round"/></g><g data-paper-data="{&quot;index&quot;:null}"><path d="M304.01811,233.08064c1.59872,-5.99146 -8.67025,-11.70914 -5.73825,-10.92679c1.37035,0.36565 6.1986,-5.6077 9.91981,-3.26664c4.24068,2.66787 7.28763,13.83539 6.43612,17.02658c-1.59872,5.99147 -5.27158,10.21428 -8.20358,9.43193c-2.932,-0.78235 -4.01283,-6.27361 -2.41411,-12.26508z" fill="#840000" stroke="#000000" stroke-width="0" stroke-linecap="butt"/><path d="M299.49791,223.20839c-1.08213,-2.99238 2.41132,-3.85219 3.01946,-3.68992c1.65722,0.4422 9.73922,19.09809 9.07592,21.58391c-0.6633,2.48582 -2.54445,4.1425 -4.20166,3.7003c-1.65721,-0.4422 -2.94073,-2.57694 -2.27743,-5.06276c0.41989,-1.57361 -3.58319,-10.90943 -5.61629,-16.53154z" fill="#430000" stroke="none" stroke-width="0" stroke-linecap="butt"/><path d="M298.04479,221.99711c1.37035,0.36565 6.1986,-5.6077 9.91981,-3.26664c4.24068,2.66787 7.28763,13.83539 6.43612,17.02658c-1.59872,5.99146 -5.27159,10.21428 -8.20358,9.43193c-2.93199,-0.78235 -4.01282,-6.27362 -2.4141,-12.26508c1.59872,-5.99146 -8.67024,-11.70914 -5.73825,-10.92679z" fill="none" stroke="#000000" stroke-width="3.5" stroke-linecap="butt"/><path d="M313.40209,229.30665l-8.72566,2.12227" fill="none" stroke="#000000" stroke-width="3.5" stroke-linecap="round"/></g><g data-paper-data="{&quot;index&quot;:null}"><path d="M293.44165,235.51506c3.73374,-4.95103 -3.63269,-14.1096 -1.20983,-12.28245c1.13239,0.85396 7.85198,-2.86625 10.42021,0.70195c2.92676,4.06633 1.55219,15.56015 -0.43648,18.19718c-3.73374,4.95104 -8.72463,7.48344 -11.14749,5.6563c-2.42286,-1.82715 -1.36016,-7.32195 2.37358,-12.27299z" fill="#840000" stroke="#000000" stroke-width="0" stroke-linecap="butt"/><path d="M292.96414,224.66766c0.12212,-3.17969 3.68256,-2.66319 4.1851,-2.28421c1.36944,1.03274 1.84563,21.35844 0.29653,23.41259c-1.5491,2.05415 -3.91505,2.88217 -5.28448,1.84943c-1.36943,-1.03274 -1.75634,-3.49339 -0.20723,-5.54754c0.98064,-1.30035 0.78064,-11.45624 1.01009,-17.43027z" fill="#430000" stroke="none" stroke-width="0" stroke-linecap="butt"/><path d="M292.07291,222.99898c1.13239,0.85396 7.85197,-2.86625 10.42021,0.70195c2.92675,4.06633 1.55219,15.56015 -0.43648,18.19718c-3.73374,4.95103 -8.72464,7.48344 -11.14749,5.6563c-2.42284,-1.82715 -1.36015,-7.32196 2.37359,-12.27299c3.73374,-4.95103 -3.63268,-14.10959 -1.20983,-12.28245z" fill="none" stroke="#000000" stroke-width="3.5" stroke-linecap="butt"/><path d="M303.55607,235.54545l-8.88347,-1.3135" fill="none" stroke="#000000" stroke-width="3.5" stroke-linecap="round"/></g></g><g stroke-linecap="butt"><path d="M232.90697,215.1254v-49.33333h23v49.33333z" fill="#1b1b1b" stroke="#000000" stroke-width="2.5"/><g><path d="M209.43902,214.75638v-17h56v17z" fill="#1b1b1b" stroke="#000000" stroke-width="2.5"/><g><path d="M209.91646,201.38373c0,-13.63071 1.99681,-46.02791 10.785,-59.9894c6.2428,-9.91771 18.19879,-4.21195 25.04831,-4.21195c8.79194,0 17.32224,-6.76189 21.85023,7.69347c3.96557,12.65987 8.28234,43.17984 8.28234,54.06469c0,23.31344 -13.64073,22.66728 -30.13256,22.66728c-11.45994,0 -0.56256,-43.60825 -7.32856,-50.5205c-2.97084,-3.03505 -28.50475,37.40965 -28.50475,30.2964z" fill="#840000" stroke="#000000" stroke-width="0"/><path d="M239.81883,168.96994c0,-2.95896 -3.54892,-3.07124 -8.61706,3.32331c-3.73268,4.70957 -15.05204,24.30416 -16.48224,23.72001c-5.41676,-2.21241 7.02922,-38.20641 11.3991,-46.18147c4.37965,-7.99289 11.87815,-7.51017 16.7728,-7.51017c5.80321,0 12.53539,-1.32424 17.27463,7.85335c5.72921,11.09467 8.92169,33.90439 8.92169,45.76088c0,21.66427 -13.37767,24.839 -26.19632,24.839c-2.3918,0 1.7847,-3.64835 0.94298,-3.75929c-3.66942,-0.48363 -0.68224,0.24303 -0.68224,-17.37896z" fill="#7d3c3c" stroke="#000000" stroke-width="0"/><path d="M212.65809,198.58894c0,-3.14088 1.98563,-17.12849 6.8903,-29.92396c2.83608,-7.39886 4.59041,-15.76327 8.38068,-20.66574c3.17819,-4.11079 8.38165,-5.39162 11.09021,-5.47106c0.38811,-0.01139 9.42469,-4.82036 9.81791,-4.82036c12.06997,0 15.13012,15.27652 15.13012,21.97469c0,6.69817 -15.54849,-5.88393 -27.61846,-5.88393c-8.41234,0 -10.91472,8.3783 -12.87097,12.64299c-0.85056,1.85426 -8.41979,23.67715 -8.41979,21.64737z" fill="#5c2c2c" stroke="none" stroke-width="0"/><path d="M211.60016,204.34522c0,-5.8471 -2.27962,-62.97597 15.41161,-62.97597c3.26953,0 -3.43135,11.13574 -6.81915,25.17708c-1.63874,6.79206 -9.92392,30.06362 -6.43996,28.97425c2.49765,-0.78097 12.87648,-14.71369 16.54856,-19.632c4.12093,-5.5195 6.58887,-12.42821 8.09741,-10.11407c3.67191,5.63283 1.61263,28.46787 4.00813,40.82414c0.70791,3.65147 3.47808,4.86672 4.81209,6.35073c9.35989,10.41234 28.11358,-3.39325 28.11358,-1.27084c0,5.8471 -14.34158,10.58711 -32.03281,10.58711c-6.98656,0 -2.39578,-6.103 -2.75337,-14.65556c-0.46018,-11.0062 -0.60367,-27.78682 -1.23244,-34.97389c-0.11985,-1.3699 -2.047,-2.39126 -2.047,-2.95765z" fill="#430000" stroke="none" stroke-width="0"/><path d="M242.76274,207.56703c0,-1.81495 2.28594,-4.03027 0.29127,-3.92748c-2.23269,0.11505 -8.43763,2.67079 -1.39735,2.67079c13.33002,0 26.29758,-8.16936 26.29758,-4.32289c0,1.85857 -1.10626,8.82417 -5.73936,12.79699c-4.95551,4.24928 -9.6691,5.12188 -16.55822,5.12188c-6.33177,0 -4.57378,-5.56729 -5.31816,-8.81879c-0.12802,-0.55919 3.87512,-0.56468 3.24478,-0.98145c-3.42066,-2.26168 -2.24911,1.07088 -2.24911,-0.6343z" fill="#5c2c2c" stroke="none" stroke-width="0"/><path d="M226.24518,149.62419c4.37964,-7.99289 11.87814,-7.51017 16.77279,-7.51017c5.80322,0 12.5354,-1.32424 17.27464,7.85335c5.7292,11.09467 8.92168,33.9044 8.92168,45.76089c0,9.27498 -2.45199,15.16103 -6.26235,18.85989c-5.08978,4.94084 -12.60329,5.97911 -19.93397,5.97911c-3.0585,0 -2.85725,-4.39242 -3.09309,-10.26566c-0.52435,-13.058 2.04816,-34.75021 -0.93745,-41.07167c-0.80466,-1.70371 -12.65058,10.29503 -19.0185,20.52671c-3.91764,6.29467 -8.39021,12.37789 -8.39021,10.47237c0,-13.39201 7.57621,-37.66506 14.66646,-50.60482z" fill="none" stroke="#000000" stroke-width="3"/><path d="M221.40222,141.28067c6.2428,-9.91772 18.19878,-4.21196 25.04831,-4.21196c8.79194,0 17.32224,-6.7619 21.85023,7.69347c3.96557,12.65987 8.28233,43.17985 8.28233,54.0647c0,9.41326 -2.22384,14.92039 -5.9613,18.1411c-0.50237,0.43292 -1.03211,0.82453 -1.58745,1.17876c-5.54551,3.53722 -13.64595,3.34742 -22.58381,3.34742c-6.79958,0 -2.70113,-43.11563 -6.78804,-53.50686c-2.6289,-6.68415 -13.72532,18.73602 -16.42172,16.25592c-3.27873,-3.01572 -12.62355,24.54516 -12.62355,17.02684c0,-13.6307 1.99681,-46.0279 10.785,-59.98939z" fill="none" stroke="#000000" stroke-width="3"/></g></g><g><path d="M270.73674,160.79222c0,3.00639 -0.14745,19.76868 -6.89381,19.76868c-6.74635,0 -17.53687,-16.7623 -17.53687,-19.76868c0,-3.00639 10.79052,-17.47666 17.53687,-17.47666c6.74635,0 6.89381,14.47027 6.89381,17.47666z" data-paper-data="{&quot;index&quot;:null}" fill="#410000" stroke="#000000" stroke-width="0"/><path d="M226.02105,143.48089c6.74635,0 17.53688,14.47027 17.53688,17.47666c0,3.00639 -10.79053,19.76868 -17.53688,19.76868c-6.74635,0 -6.89381,-16.76229 -6.89381,-19.76868c0,-3.00638 0.14745,-17.47666 6.89381,-17.47666z" fill="#410000" stroke="#000000" stroke-width="0"/><path d="M270.59716,160.95754c0,3.00639 -0.14745,19.76868 -6.89381,19.76868c-6.74634,0 -17.53687,-16.76229 -17.53687,-19.76868c0,-3.00639 10.79052,-17.47666 17.53687,-17.47666c6.74635,0 6.89381,14.47027 6.89381,17.47666z" data-paper-data="{&quot;index&quot;:null}" fill="none" stroke="#000000" stroke-width="3.5"/><path d="M226.16063,143.64621c6.74634,0 17.53687,14.47027 17.53687,17.47666c0,3.00639 -10.79053,19.76868 -17.53687,19.76868c-6.74635,0 -6.89381,-16.76229 -6.89381,-19.76868c0,-3.00638 0.14746,-17.47666 6.89381,-17.47666z" fill="none" stroke="#000000" stroke-width="3.5"/><path d="M223.8627,143.93271c0.88538,0 -1.82188,8.46429 -2.09441,13.20529c-0.47344,8.23622 1.0317,15.06429 2.89448,17.39861c4.34552,5.44554 15.8902,-11.38124 15.8902,-8.97295c0,4.03489 -8.25979,14.18188 -14.27138,14.18188c-6.0116,0 -7.49853,-10.14699 -7.49853,-14.18188c0,-4.0349 -0.93195,-21.63095 5.07964,-21.63095z" fill="#170000" stroke="none" stroke-width="0"/><path d="M271.08095,165.39833c0,4.0349 -1.48693,14.18188 -7.49852,14.18188c-6.01159,0 -14.27138,-10.14698 -14.27138,-14.18188c0,-2.40829 11.54468,14.41849 15.8902,8.97295c1.86277,-2.33432 3.36792,-9.16239 2.89448,-17.39861c-0.27253,-4.741 -2.97978,-13.20529 -2.09442,-13.20529c6.01159,0 5.07964,17.59606 5.07964,21.63095z" data-paper-data="{&quot;index&quot;:null}" fill="#170000" stroke="none" stroke-width="0"/><g><path d="M245.78783,152.36246c4.3417,0 7.86135,4.29709 7.86135,9.59784c0,5.30074 -3.51964,9.59784 -7.86135,9.59784c-4.3417,0 -7.86135,-4.29709 -7.86135,-9.59784c0,-5.30073 3.51965,-9.59784 7.86135,-9.59784z" fill="#410000" stroke="#000000" stroke-width="0"/><path d="M245.68552,152.5278c4.3417,0 7.86135,4.29709 7.86135,9.59784c0,5.30074 -3.51965,9.59784 -7.86135,9.59784c-4.3417,0 -7.86135,-4.29709 -7.86135,-9.59784c0,-5.30074 3.51965,-9.59784 7.86135,-9.59784z" fill="none" stroke="#000000" stroke-width="3.5"/><path d="M238.13408,163.9879c0,-3.95579 0.56285,-11.4601 4.83776,-11.4601c1.33992,0 -2.18506,7.88185 -1.91874,11.43293c0.19641,2.61896 4.10978,4.36035 5.04491,5.49202c1.84223,2.22942 7.51689,-7.2663 7.51689,-5.46484c0,3.95578 -3.4655,7.16256 -7.74041,7.16256c-4.27491,0 -7.74041,-3.20679 -7.74041,-7.16256z" fill="#170000" stroke="none" stroke-width="0"/></g></g></g><g><path d="M244.20778,114.31962c12.84354,0 23.25529,5.84828 23.25529,13.0625c0,7.21422 -10.41175,13.0625 -23.25529,13.0625c-12.84354,0 -23.25529,-5.84828 -23.25529,-13.0625c0,-7.21422 10.41175,-13.0625 23.25529,-13.0625z" fill="#000000" stroke="#000000" stroke-width="2.5" stroke-linecap="butt"/><path d="M219.40331,126.41893c3.77278,-1.36575 17.56668,4.74945 25.87592,5.05946c9.28412,0.34638 13.17759,-5.01885 18.1347,-5.01885c11.971,0 2.89399,3.35787 2.89399,7.5c0,4.14213 -9.70441,7.5 -21.6754,7.5c-2.01265,0 -3.96123,-0.09491 -5.81039,-0.27251c-9.14945,-0.87875 -15.86502,-3.78176 -15.86502,-7.22749c0,-0.89178 -5.74547,-6.74721 -3.55379,-7.54061z" fill="#ffffff" stroke="#000000" stroke-width="0" stroke-linecap="butt"/><path d="M232.20818,134.38065c7.62228,1.86507 17.00952,1.90821 22.5282,0.72019c7.33591,-1.57922 7.80224,-5.90621 12.05487,-5.90621c10.30337,0 -2.32553,7.05577 -2.32553,9.4375c0,2.38173 -8.35254,4.3125 -18.65591,4.3125c-4.97757,0 -11.88775,-1.36774 -16.95361,-4.21327c-5.42028,-3.04462 -8.83393,-7.61811 -8.83393,-8.84923c0,-0.65917 5.39182,2.83609 12.18591,4.49852z" fill="#e2e2e2" stroke="none" stroke-width="0" stroke-linecap="butt"/><path d="M220.23017,126.91893c3.77278,-1.36575 17.56668,4.74945 25.87592,5.05946c9.28412,0.34638 13.17759,-5.01885 18.1347,-5.01885c11.971,0 2.89399,3.35787 2.89399,7.5c0,4.14213 -9.70441,7.5 -21.6754,7.5c-2.01265,0 -3.96123,-0.09491 -5.81039,-0.27251c-9.14945,-0.87875 -15.86502,-3.78176 -15.86502,-7.22749c0,-0.89178 -5.74547,-6.74721 -3.55379,-7.54061z" fill="none" stroke="#000000" stroke-width="2" stroke-linecap="butt"/><path d="M216.50964,127.67104c0,-3.38571 2.04816,-6.13037 4.5747,-6.13037c0.63316,0 -1.56507,2.4135 -0.71483,4.08943c0.65503,1.29116 -0.07179,2.83092 0.54694,4.38587c0.74381,1.86931 2.88004,3.78839 4.35698,5.69388c2.06313,2.66177 10.24457,4.03948 10.24457,5.13721c0,0.70363 24.3981,-2.8086 23.80365,-1.2772c-0.05211,0.13424 4.78133,-2.97011 6.83209,-7.10481c1.27701,-2.57467 -0.13338,-6.96403 0.44005,-6.8958c1.02117,0.12151 3.31705,-6.74598 5.13303,-7.46287c1.19112,-0.47022 2.27862,4.48234 2.30453,6.06873c0.02611,1.59908 -5.63385,8.97503 -6.33635,11.55307c-0.96744,3.55036 0.3196,5.83849 -0.51609,6.08675c-7.37326,2.19035 -33.19882,5.40395 -34.41095,4.77673c-3.99704,-2.06828 -10.33159,-12.79026 -11.68362,-12.79026c-2.52654,0 -4.5747,-2.74466 -4.5747,-6.13037z" fill="#840000" stroke="#000000" stroke-width="0" stroke-linecap="butt"/><path d="M216.30503,121.2704c0,-0.68279 4.1562,9.17328 9.77965,14.20154c4.61091,4.12288 10.6864,8.22798 13.01383,8.22798c5.16596,0 28.16474,-3.86764 28.16474,-2.625c0,1.24264 -21.96522,5.125 -27.13117,5.125c-1.38512,0 -3.8584,0.91526 -7.58228,-1.4019c-3.02082,-1.87968 -5.74222,-5.68041 -8.76932,-8.80877c-1.61283,-1.66678 -3.97859,-2.87414 -5.04701,-4.09329c-3.6739,-4.19221 -3.96774,-10.13037 -3.96774,-10.62555z" fill="#430000" stroke="none" stroke-width="0" stroke-linecap="butt"/><path d="M216.66998,127.193c0,-1.3783 -3.86884,-7.11505 -3.29588,-8.13896c0.83448,-1.49125 6.31557,2.23663 7.81356,2.23663c0.63316,0 -1.56507,2.4135 -0.71483,4.08943c0.67145,1.32349 -0.60921,3.04014 0.24945,5.00192c0.98606,2.25286 4.15328,4.78346 5.59945,6.64926c2.06314,2.66178 6.93715,2.61091 6.93715,3.70863c0,0.36925 7.36961,-0.46186 14.28811,-1.11385c6.2652,-0.59043 12.16047,-1.03397 11.87798,-0.30622c-0.05211,0.13425 4.78133,-2.97011 6.83209,-7.1048c1.27701,-2.57466 -0.13338,-6.96402 0.44005,-6.89579c0.90121,0.10724 2.65071,-7.49213 4.60397,-8.44412c1.71167,-0.83424 3.70548,4.8185 3.73603,6.689c0.02611,1.59908 -6.5363,9.33601 -7.2388,11.91405c-0.96744,3.55036 0.3196,5.83849 -0.51609,6.08675c-7.37326,2.19034 -33.19882,5.40395 -34.41095,4.77672c-3.99703,-2.06829 -10.33158,-12.79026 -11.68362,-12.79026c-2.52654,0 -4.5747,-2.74466 -4.5747,-6.13037z" fill="none" stroke="#000000" stroke-width="2.5" stroke-linecap="butt"/><path d="M228.29082,137.1719l-0.07517,-9.63636" fill="none" stroke="#000000" stroke-width="2" stroke-linecap="round"/><path d="M241.89635,131.99008l0.07517,7.63637" fill="none" stroke="#000000" stroke-width="2" stroke-linecap="round"/><path d="M254.90051,138.80826l-0.15034,-7.81818" fill="none" stroke="#000000" stroke-width="2" stroke-linecap="round"/><path d="M263.3194,135.1719l-0.75169,-7.27272" fill="none" stroke="#000000" stroke-width="2" stroke-linecap="round"/><path d="M217.29936,57.70683c5.16688,0 4.76911,5.52861 7.7372,8.94803c2.17428,2.5049 8.47163,2.33337 8.47163,5.77033c0,8.12872 -7.25694,14.71836 -16.20883,14.71836c-8.95188,0 -16.20882,-6.58963 -16.20882,-14.71836c0,-8.12873 7.25693,-14.71836 16.20882,-14.71836z" fill="#840000" stroke="#000000" stroke-width="0" stroke-linecap="butt"/><path d="M206.33078,68.89936c-1.72515,6.69586 2.14777,14.03393 6.06626,14.03393c7.9679,0 20.5851,-12.57113 20.5851,-6.15794c0,6.41319 -6.45926,11.61211 -14.42716,11.61211c-5.39407,0 -14.51719,-4.69873 -17.46134,-11.77007c-0.7886,-1.89406 1.22875,-11.13306 5.46566,-15.22729c3.31088,-3.19939 9.00468,-1.47606 9.00468,-2.38479c0,-3.25928 -7.45041,2.97447 -9.2332,9.89405z" fill="#430000" stroke="none" stroke-width="0" stroke-linecap="butt"/><path d="M217.40167,57.98506c5.08429,0 4.62184,5.45899 7.59362,8.785c2.26062,2.53008 8.61521,2.42141 8.61521,5.93336c0,8.12873 -7.25694,14.71836 -16.20883,14.71836c-8.95189,0 -16.20883,-6.58964 -16.20883,-14.71836c0,-8.12873 7.25694,-14.71836 16.20883,-14.71836z" fill="none" stroke="#000000" stroke-width="3" stroke-linecap="butt"/><path d="M216.83407,124.99637v-5.625c0,0 34.72594,-9.42857 44.05682,-9.42857c8.51011,0 9.69318,9.42857 9.69318,9.42857v5.625c0,0 -18.24228,2.57143 -27.26461,2.57143c-8.89246,0 -26.48539,-2.57143 -26.48539,-2.57143z" fill="#ffffff" stroke="#000000" stroke-width="0" stroke-linecap="butt"/><path d="M244.31945,108.50026c15.70066,0 28.42857,3.61371 28.42857,8.07143c0,1.13904 -1.16598,1.58477 -1.8438,2.65133c-0.41314,0.65009 0.25292,2.06952 -1.13135,2.45341c-2.25858,0.62635 -3.04244,-5.34039 -6.8702,-5.18013c-5.04069,0.21103 -13.47217,6.43253 -18.72608,6.43253c-6.15551,0 -18.68927,1.70805 -23.31635,1.08444c-7.17509,-0.96702 -4.96936,-4.73152 -4.96936,-7.44158c0,-4.45772 12.7279,-8.07143 28.42857,-8.07143z" fill="#e2e2e2" stroke="none" stroke-width="0" stroke-linecap="butt"/><path d="M216.83406,124.99636v-5.625c0,0 34.99454,-8.57142 44.91398,-8.57142c6.32888,0 8.83602,8.57142 8.83602,8.57142v5.625c0,0 -18.64674,2.85715 -27.55031,2.85715c-9.01179,0 -26.19969,-2.85715 -26.19969,-2.85715z" fill="none" stroke="#000000" stroke-width="2" stroke-linecap="butt"/><path d="M244.82227,67.79588c17.94926,0 32.5,13.65532 32.5,30.5c0,8.56042 1.67749,17.04559 -4.43817,20.61623c-2.78151,1.62399 -5.82366,-5.66434 -10.69779,-5.51758c-5.49682,0.1655 -12.93529,7.65135 -17.61405,7.65135c-8.3029,0 -24.0751,2.2364 -29.76224,-0.78907c-6.60736,-3.51502 -2.48776,-12.90819 -2.48776,-21.96093c0,-16.84468 14.55075,-30.5 32.5,-30.5z" fill="#840000" stroke="#000000" stroke-width="0" stroke-linecap="butt"/><path d="M253.61376,89.34726c9.25077,0 7.60714,7.71501 7.60714,11.85714c0,4.14213 -7.49923,7.5 -16.75,7.5c-9.25077,0 -32.125,4.14213 -32.125,0c0,-1.3052 -1.91276,-16.33181 3.74239,-27.06986c2.61418,-4.96383 12.93945,-9.50268 14.88122,-10.46404c2.93281,-1.45202 -13.24068,12.13979 -15.81876,23.37741c-1.43527,6.25618 9.79645,11.1789 10.61034,13.81817c0.99896,3.23945 6.20708,-8.53148 11.36701,-13.55785c1.59313,-1.55189 0.77058,-5.81812 1.19996,-5.81812c0,0 4.59483,3.89808 7.08212,3.95619c2.60271,0.06081 8.20358,-3.59905 8.20358,-3.59905z" fill="#430000" stroke="none" stroke-width="0" stroke-linecap="butt"/><path d="M244.82227,67.54588c17.94926,0 32.5,13.65532 32.5,30.5c0,8.56042 1.67749,17.04559 -4.43817,20.61623c-2.45215,1.43169 -4.93144,-6.38526 -9.12831,-6.15994c-5.93245,0.3185 -14.01352,8.29371 -19.18353,8.29371c-8.3029,0 -24.0751,2.2364 -29.76224,-0.78907c-6.60736,-3.51502 -2.48776,-12.90819 -2.48776,-21.96093c0,-16.84468 14.55075,-30.5 32.5,-30.5z" fill="none" stroke="#000000" stroke-width="3" stroke-linecap="butt"/><path d="M220.14591,86.35939c1.83863,0 8.79365,8.29419 12.23938,7.14643c3.43948,-1.14568 4.56934,-7.53387 6.77166,-6.90868c3.95835,1.12369 2.81396,8.5837 2.81396,10.83725c0,4.76346 3.5976,9.875 -3.375,9.875c-6.9726,0 -22.625,2.13846 -22.625,-2.625c0,-4.76346 -2.7976,-18.325 4.175,-18.325z" fill="#000000" stroke="#000000" stroke-width="3" stroke-linecap="butt"/><path d="M272.92712,105.43439c0,4.76346 -15.6524,2.625 -22.625,2.625c-6.9726,0 -3.375,-5.11154 -3.375,-9.875c0,-3.2175 0.34283,-6.76886 6.60864,-7.43693c3.01061,-0.321 11.20344,-3.03807 13.46636,-3.03807c6.9726,0 5.925,12.96154 5.925,17.725z" data-paper-data="{&quot;index&quot;:null}" fill="#000000" stroke="#000000" stroke-width="3" stroke-linecap="butt"/><path d="M215.7045,107.90038c5.39883,-1.64092 17.81338,-0.44597 27.26642,-0.44597c10.14424,0 22.09257,-1.28503 27.40155,0.56513c3.21764,1.12133 2.09845,7.47599 2.09845,8.93487c0,2.19357 -2.68067,-4.93909 -9.33572,-4.35198c-5.07397,0.44763 -13.11619,8.85198 -20.16428,8.85198c-7.22496,0 -19.59327,0.63369 -24.72218,-0.38946c-6.43687,-1.28407 -4.77782,-4.45894 -4.77782,-6.61054c0,-1.6229 -1.67252,-5.36681 2.23358,-6.55403z" fill="#7d3c3c" stroke="#000000" stroke-width="0" stroke-linecap="butt"/><path d="M225.1432,106.83904c2.72889,0 -3.32188,0.86567 -6.39539,3.12014c-3.02871,2.22162 -3.08671,5.82803 0.31331,6.42754c9.26037,1.63284 33.77412,-5.07596 46.5388,-5.48059c6.90935,-0.21902 7.04328,5.55007 7.04328,6.05791c0,1.08661 -3.49143,-4.78839 -9.11559,-4.08474c-5.45279,0.6822 -12.91034,7.95974 -21.13441,7.95974c-16.70661,0 -30.25,-1.73489 -30.25,-3.875c0,-2.14011 -3.70661,-10.125 13,-10.125z" fill="#5c2c2c" stroke="none" stroke-width="0" stroke-linecap="butt"/><path d="M216.2045,107.40038c5.39883,-1.64092 17.81338,-0.44597 27.26642,-0.44597c10.14424,0 22.09257,-1.28503 27.40155,0.56513c3.21764,1.12133 2.09845,7.47599 2.09845,8.93487c0,2.32223 -2.47984,-4.52169 -9.81695,-3.9687c-4.87752,0.36762 -13.1772,8.46871 -19.68305,8.46871c-7.22496,0 -19.59327,0.63369 -24.72218,-0.38946c-6.43687,-1.28407 -4.77782,-4.45894 -4.77782,-6.61054c0,-1.6229 -1.67252,-5.36681 2.23358,-6.55403z" fill="none" stroke="#000000" stroke-width="3" stroke-linecap="butt"/><path d="M235.6937,98.74909c0.5,0 0.5,0.5 0.5,0.5c0,0.83334 0,2.16666 0,3c0,0 0,0.5 -0.5,0.5c-0.5,0 -0.5,-0.5 -0.5,-0.5c0,-0.83334 0,-1.66666 0,-2.5v-0.5c0,0 0,-0.5 0.5,-0.5z" fill="#ffffff" stroke="none" stroke-width="0.5" stroke-linecap="butt"/><path d="M252.9437,97.74909c0.5,0 0.5,0.5 0.5,0.5v0.25c0,1.42099 -0.27094,2.88837 -0.25,4.25c0,0 0,0.5 -0.5,0.5c-0.5,0 -0.5,-0.5 -0.5,-0.5c0.0155,-1.39312 0.25,-2.80527 0.25,-4.25v-0.25c0,0 0,-0.5 0.5,-0.5z" fill="#ffffff" stroke="none" stroke-width="0.5" stroke-linecap="butt"/><path d="M292.69905,74.7733c-0.22258,0 -0.22258,-0.5 -0.22258,-0.5v-0.5c0.03056,-0.55672 -0.71508,-1.39924 -0.93642,-1.89645c-0.05466,-0.12279 -0.07135,-0.24558 -0.06986,-0.35355c-0.00149,-0.10798 0.0152,-0.23077 0.06986,-0.35355c0.0143,-0.03213 0.02861,-0.05842 0.04279,-0.07967c-0.07689,0.02115 -0.18443,-0.01128 -0.16273,-0.39687c0.03625,-0.6442 0.28715,-0.64911 0.41751,-1.04125c0.21177,-0.63707 -0.1459,-1.82291 0.31453,-2.8572c0,0 0.15739,-0.35355 0.31478,0c0.15739,0.35355 0,0.70711 0,0.70711c-0.46166,1.03707 -0.40898,2.96493 -0.49186,3.91202c0.39092,0.72589 0.91758,1.17666 0.94656,2.35943v0.5c0,0 0,0.5 -0.22258,0.5z" fill="#ffffff" stroke="none" stroke-width="0.5" stroke-linecap="butt"/><path d="M244.47204,105.8404c5.21219,0 9.4375,1.67893 9.4375,3.75c0,2.07107 -4.22531,3.75 -9.4375,3.75c-5.21219,0 -9.4375,-1.67893 -9.4375,-3.75c0,-2.07107 4.22531,-3.75 9.4375,-3.75z" fill="#000000" stroke="#000000" stroke-width="3" stroke-linecap="butt"/><path d="M250.23749,65.10718c0.73178,-1.47853 4.31758,-4.85637 5.90406,-9.85328c2.84122,-8.94894 4.31513,-21.02709 7.37277,-22.01455c2.90196,-0.93718 4.18384,4.48115 8.09229,7.32345c4.77573,3.473 12.11717,4.70226 14.23775,5.75181c1.33073,0.65862 9.96325,-1.90609 10.19381,-0.38475c0.45874,3.02695 -5.77948,8.30041 -9.73392,13.87081c-4.07325,5.73774 -5.90101,11.78647 -7.85561,15.73566c-4.80593,9.71017 -11.18343,6.14542 -17.88911,2.82653c-6.70568,-3.31889 -15.12797,-3.54552 -10.32204,-13.25569z" fill="#410000" stroke="#000000" stroke-width="0" stroke-linecap="butt"/><path d="M255.99535,57.0624c1.48703,-3.00449 2.81906,-27.36435 9.69891,-23.95925c4.21809,2.0877 -6.65929,15.92436 -3.51361,25.62057c1.98503,6.11863 19.30415,9.50722 18.72883,10.66963c-1.48704,3.00449 -8.26974,2.67974 -15.14959,-0.72536c-6.87985,-3.4051 -11.25159,-8.6011 -9.76455,-11.60559z" fill="#170000" stroke="none" stroke-width="0" stroke-linecap="butt"/><path d="M250.20417,65.00851c0.73177,-1.47853 4.31757,-4.85636 5.90405,-9.85328c2.84122,-8.94894 4.31513,-21.02709 7.37277,-22.01455c2.86287,-0.92457 3.82546,4.67332 7.68434,7.459c4.83219,3.48831 12.50176,4.55514 14.6457,5.61626c1.33073,0.65862 9.96324,-1.90609 10.1938,-0.38475c0.45875,3.02695 -5.77947,8.30041 -9.73392,13.87081c-4.07325,5.73775 -5.90101,11.78647 -7.85561,15.73566c-4.80593,9.71017 -11.18343,6.14542 -17.88911,2.82653c-6.70568,-3.3189 -15.12797,-3.54552 -10.32204,-13.25569z" fill="none" stroke="#000000" stroke-width="3" stroke-linecap="butt"/><path d="M282.08011,82.80857c-1.25003,2.52563 -0.59183,7.44007 -6.34182,6.22558c-3.42735,-0.72392 -12.43019,-6.42972 -16.36939,-8.37938c-4.49435,-2.22442 -13.19348,-6.05698 -15.96431,-8.66438c-3.73213,-3.51199 -0.66695,-5.77371 0.47807,-8.08718c1.03842,-2.09809 3.18745,-5.50933 7.55518,-5.00515c4.02401,0.46451 10.09808,4.65559 15.15603,7.15896c4.60135,2.27738 14.5874,5.57089 17.37194,8.2386c3.59862,3.44764 -0.76092,6.24037 -1.8857,8.51295z" data-paper-data="{&quot;index&quot;:null}" fill="#410000" stroke="#000000" stroke-width="0" stroke-linecap="butt"/><path d="M253.17152,59.9838c2.83858,0.26584 19.26336,7.85205 26.21684,12.09183c5.65145,3.44589 4.78177,4.16478 6.2999,4.91616c0.6707,0.33195 0.7761,5.61368 -1.82682,4.29392c-3.45933,-1.75398 -1.97694,-4.75131 -7.33087,-8.30701c-5.86698,-3.89644 -20.933,-9.4658 -24.24352,-9.58518c-2.10309,-0.07584 -3.74982,0.76166 -4.90409,1.84651c-1.49585,1.40589 -2.16466,3.22717 -1.92786,4.01433c1.25622,4.17592 34.82178,17.28264 34.0621,18.81755c-1.46549,2.96095 -16.5116,-4.44229 -24.74129,-8.51548c-8.22969,-4.07319 -13.71316,-9.77548 -12.24768,-12.73643c0.86253,-1.7427 3.28248,-7.52555 10.64329,-6.8362z" fill="#170000" stroke="none" stroke-width="0" stroke-linecap="butt"/><path d="M282.15156,83.02003c-1.25003,2.52563 -0.59182,7.44007 -6.34182,6.22558c-3.42735,-0.72391 -12.43019,-6.42972 -16.3694,-8.37938c-4.49435,-2.22442 -13.19347,-6.05698 -15.96431,-8.66438c-3.73213,-3.51199 -0.66695,-5.77371 0.47807,-8.08718c1.03842,-2.09808 3.18746,-5.50933 7.55518,-5.00515c4.02401,0.4645 10.09808,4.65559 15.15603,7.15896c4.60135,2.27738 14.5874,5.57089 17.37194,8.23861c3.59862,3.44764 -0.76092,6.24037 -1.8857,8.51295z" data-paper-data="{&quot;index&quot;:null}" fill="none" stroke="#000000" stroke-width="3" stroke-linecap="butt"/><path d="M228.74803,126.21454v-4.57143" fill="none" stroke="#000000" stroke-width="2" stroke-linecap="round"/><path d="M243.17659,121.35741v5.71429" fill="none" stroke="#000000" stroke-width="2" stroke-linecap="round"/><path d="M258.03375,126.78598l-0.42858,-11.42858" fill="none" stroke="#000000" stroke-width="2" stroke-linecap="round"/><path d="M227.19863,90.59248l2.75,-5l-9,-4.75l4,-2.5l-0.25,-3.25" fill="none" stroke="#000000" stroke-width="3" stroke-linecap="round"/><path d="M244.37069,115.22512l0.13262,3.84591" fill="none" stroke="#000000" stroke-width="3" stroke-linecap="round"/></g><g stroke-linecap="butt"><path d="M165.17296,305.75784c0,-9.68071 14.54587,-17.52849 32.48911,-17.52849c17.94324,0 32.4891,7.84776 32.4891,17.52849c0,4.82875 -0.26964,10.54121 -6.12418,13.71142c-5.88268,3.18545 -17.37179,3.81707 -26.36493,3.81707c-9.63601,0 -24.99102,-0.03037 -30.94078,-3.62537c-5.1293,-3.09926 -1.54833,-9.42121 -1.54833,-13.90312z" fill="#840000" stroke="#000000" stroke-width="0"/><path d="M164.51877,315.04021c0,-1.68312 6.44758,2.28535 18.97475,3.19676c13.43456,0.97742 33.25799,-1.12537 41.06289,-4.08344c3.49812,-1.32579 2.53102,-7.38682 -1.34262,-12.41785c-4.22464,-5.48692 -11.44111,-9.91793 -8.34249,-9.91793c18.18988,0 15.51885,18.04296 15.51885,23.22245c0,5.17949 -14.74581,9.3783 -32.93569,9.3783c-18.18988,0 -32.9357,-4.19881 -32.9357,-9.3783z" fill="#430000" stroke="none" stroke-width="0"/><path d="M147.64905,309.88538c0,-9.68072 6.53158,-17.52849 14.58867,-17.52849c8.0571,0 14.58867,7.84776 14.58867,17.52849c0,4.82875 -0.12108,10.54121 -2.74995,13.71142c-2.64152,3.18545 -7.80051,3.81707 -11.83872,3.81707c-4.32688,0 -11.22178,-0.03037 -13.89342,-3.62537c-2.30323,-3.09926 -0.69526,-9.42122 -0.69526,-13.90312z" fill="#840000" stroke="#000000" stroke-width="0"/><path d="M198.34764,288.69165c17.94324,0 32.48911,7.84777 32.48911,17.52849c0,4.82875 -0.26965,10.54121 -6.12418,13.71142c-5.88268,3.18545 -17.37179,3.81707 -26.36493,3.81707c-9.63601,0 -24.99101,-0.03036 -30.94078,-3.62536c-5.1293,-3.09926 -1.54833,-9.42123 -1.54833,-13.90313c0,-9.68072 14.54587,-17.52849 32.48911,-17.52849z" fill="none" stroke="#000000" stroke-width="3.5"/><path d="M147.35531,319.16772c0,-1.68312 2.89518,2.28534 8.52029,3.19675c6.03256,0.97742 14.93392,-1.12536 18.43858,-4.08342c1.57077,-1.32579 1.13651,-7.38682 -0.60288,-12.41785c-1.897,-5.48692 -5.13743,-9.91793 -3.74605,-9.91793c8.16785,0 6.96847,18.04297 6.96847,23.22246c0,5.1795 -6.62135,9.3783 -14.7892,9.3783c-8.16785,0 -14.7892,-4.19881 -14.7892,-9.3783z" fill="#430000" stroke="none" stroke-width="0"/><path d="M147.95689,310.34765c0,-9.68072 6.53157,-17.52849 14.58867,-17.52849c8.0571,0 14.58867,7.84778 14.58867,17.52849c0,4.82875 -0.12108,10.54121 -2.74995,13.71142c-2.64152,3.18546 -7.8005,3.81706 -11.83871,3.81706c-4.32688,0 -11.22178,-0.03036 -13.89342,-3.62536c-2.30323,-3.09926 -0.69525,-9.42122 -0.69525,-13.90312z" fill="none" stroke="#000000" stroke-width="3.5"/><path d="M188.83264,309.29422c0,-9.68072 6.53158,-17.52849 14.58867,-17.52849c8.0571,0 14.58867,7.84776 14.58867,17.52849c0,4.82875 -0.12108,10.54121 -2.74995,13.71142c-2.64152,3.18545 -7.80051,3.81707 -11.83872,3.81707c-4.32688,0 -11.22178,-0.03037 -13.89342,-3.62537c-2.30323,-3.09926 -0.69526,-9.42122 -0.69526,-13.90312z" fill="#840000" stroke="#000000" stroke-width="0"/><path d="M188.5389,318.57657c0,-1.68312 2.89518,2.28534 8.52029,3.19675c6.03256,0.97742 14.93392,-1.12536 18.43858,-4.08342c1.57077,-1.32579 1.13651,-7.38682 -0.60288,-12.41785c-1.897,-5.48692 -5.13743,-9.91793 -3.74605,-9.91793c8.16785,0 6.96847,18.04297 6.96847,23.22246c0,5.1795 -6.62135,9.3783 -14.7892,9.3783c-8.16785,0 -14.7892,-4.19881 -14.7892,-9.3783z" fill="#430000" stroke="none" stroke-width="0"/><path d="M189.14048,309.75649c0,-9.68072 6.53157,-17.52849 14.58867,-17.52849c8.0571,0 14.58867,7.84778 14.58867,17.52849c0,4.82875 -0.12108,10.54121 -2.74995,13.71142c-2.64152,3.18546 -7.8005,3.81706 -11.83871,3.81706c-4.32688,0 -11.22178,-0.03036 -13.89342,-3.62536c-2.30323,-3.09926 -0.69525,-9.42122 -0.69525,-13.90312z" fill="none" stroke="#000000" stroke-width="3.5"/><path d="M165.97476,309.09717c0,-9.68072 6.53158,-17.52849 14.58867,-17.52849c8.0571,0 14.58867,7.84776 14.58867,17.52849c0,4.82875 -0.12108,10.54121 -2.74995,13.71142c-2.64152,3.18545 -7.80051,3.81707 -11.83872,3.81707c-4.32688,0 -11.22178,-0.03037 -13.89342,-3.62537c-2.30323,-3.09926 -0.69526,-9.42122 -0.69526,-13.90312z" fill="#840000" stroke="#000000" stroke-width="0"/><path d="M165.68102,318.37952c0,-1.68312 2.89518,2.28534 8.52029,3.19675c6.03256,0.97742 14.93392,-1.12536 18.43858,-4.08342c1.57077,-1.32579 1.13651,-7.38682 -0.60288,-12.41785c-1.897,-5.48692 -5.13743,-9.91793 -3.74605,-9.91793c8.16785,0 6.96847,18.04297 6.96847,23.22246c0,5.1795 -6.62135,9.3783 -14.7892,9.3783c-8.16785,0 -14.7892,-4.19881 -14.7892,-9.3783z" fill="#430000" stroke="none" stroke-width="0"/><path d="M166.2826,309.55945c0,-9.68072 6.53157,-17.52849 14.58867,-17.52849c8.0571,0 14.58867,7.84778 14.58867,17.52849c0,4.82875 -0.12108,10.54121 -2.74995,13.71142c-2.64152,3.18546 -7.8005,3.81706 -11.83871,3.81706c-4.32688,0 -11.22178,-0.03036 -13.89342,-3.62536c-2.30323,-3.09926 -0.69525,-9.42122 -0.69525,-13.90312z" fill="none" stroke="#000000" stroke-width="3.5"/></g><g data-paper-data="{&quot;index&quot;:null}" stroke-linecap="butt"><path d="M306.2669,307.50784c0,4.48191 3.58097,10.80386 -1.54833,13.90312c-5.94976,3.595 -21.30477,3.62537 -30.94078,3.62537c-8.99314,0 -20.48225,-0.63162 -26.36493,-3.81707c-5.85454,-3.17021 -6.12418,-8.88267 -6.12418,-13.71142c0,-9.68073 14.54586,-17.52849 32.4891,-17.52849c17.94324,0 32.48911,7.84778 32.48911,17.52849z" fill="#840000" stroke="#000000" stroke-width="0"/><path d="M306.92109,316.7902c0,5.17949 -14.74582,9.3783 -32.9357,9.3783c-18.18988,0 -32.93569,-4.19881 -32.93569,-9.3783c0,-5.17949 -2.67103,-23.22245 15.51885,-23.22245c3.09862,0 -4.11785,4.43101 -8.34249,9.91793c-3.87364,5.03103 -4.84074,11.09206 -1.34262,12.41785c7.8049,2.95807 27.62833,5.06086 41.06289,4.08344c12.52717,-0.91141 18.97475,-4.87988 18.97475,-3.19676z" fill="#430000" stroke="none" stroke-width="0"/><path d="M323.79081,311.63538c0,4.4819 1.60797,10.80386 -0.69526,13.90312c-2.67164,3.595 -9.56654,3.62537 -13.89342,3.62537c-4.03821,0 -9.1972,-0.63162 -11.83872,-3.81707c-2.62887,-3.17021 -2.74995,-8.88267 -2.74995,-13.71142c0,-9.68073 6.53157,-17.52849 14.58867,-17.52849c8.05709,0 14.58867,7.84777 14.58867,17.52849z" fill="#840000" stroke="#000000" stroke-width="0"/><path d="M305.58132,307.97014c0,4.4819 3.58097,10.80387 -1.54833,13.90313c-5.94977,3.595 -21.30477,3.62536 -30.94078,3.62536c-8.99314,0 -20.48225,-0.63162 -26.36493,-3.81707c-5.85453,-3.17021 -6.12418,-8.88267 -6.12418,-13.71142c0,-9.68072 14.54587,-17.52849 32.48911,-17.52849c17.94324,0 32.48911,7.84777 32.48911,17.52849z" fill="none" stroke="#000000" stroke-width="3.5"/><path d="M324.08453,320.91773c0,5.17949 -6.62135,9.3783 -14.7892,9.3783c-8.16785,0 -14.7892,-4.1988 -14.7892,-9.3783c0,-5.17949 -1.19938,-23.22246 6.96847,-23.22246c1.39138,0 -1.84905,4.43101 -3.74605,9.91793c-1.73939,5.03103 -2.17365,11.09206 -0.60288,12.41785c3.50466,2.95806 12.40602,5.06084 18.43858,4.08342c5.62511,-0.91141 8.52029,-4.87987 8.52029,-3.19675z" fill="#430000" stroke="none" stroke-width="0"/><path d="M323.48295,312.09765c0,4.4819 1.60798,10.80386 -0.69525,13.90312c-2.67164,3.595 -9.56654,3.62536 -13.89342,3.62536c-4.03821,0 -9.19719,-0.6316 -11.83871,-3.81706c-2.62887,-3.17021 -2.74995,-8.88267 -2.74995,-13.71142c0,-9.68071 6.53157,-17.52849 14.58867,-17.52849c8.0571,0 14.58867,7.84777 14.58867,17.52849z" fill="none" stroke="#000000" stroke-width="3.5"/><path d="M282.60722,311.04422c0,4.4819 1.60797,10.80386 -0.69526,13.90312c-2.67164,3.595 -9.56654,3.62537 -13.89342,3.62537c-4.03821,0 -9.1972,-0.63162 -11.83872,-3.81707c-2.62887,-3.17021 -2.74995,-8.88267 -2.74995,-13.71142c0,-9.68073 6.53157,-17.52849 14.58867,-17.52849c8.05709,0 14.58867,7.84777 14.58867,17.52849z" fill="#840000" stroke="#000000" stroke-width="0"/><path d="M282.90094,320.32658c0,5.17949 -6.62135,9.3783 -14.7892,9.3783c-8.16785,0 -14.7892,-4.1988 -14.7892,-9.3783c0,-5.17949 -1.19938,-23.22246 6.96847,-23.22246c1.39138,0 -1.84905,4.43101 -3.74605,9.91793c-1.73939,5.03103 -2.17365,11.09206 -0.60288,12.41785c3.50466,2.95806 12.40602,5.06084 18.43858,4.08342c5.62511,-0.91141 8.52029,-4.87987 8.52029,-3.19675z" fill="#430000" stroke="none" stroke-width="0"/><path d="M282.29936,311.50649c0,4.4819 1.60798,10.80386 -0.69525,13.90312c-2.67164,3.595 -9.56654,3.62536 -13.89342,3.62536c-4.03821,0 -9.19719,-0.6316 -11.83871,-3.81706c-2.62887,-3.17021 -2.74995,-8.88267 -2.74995,-13.71142c0,-9.68071 6.53157,-17.52849 14.58867,-17.52849c8.0571,0 14.58867,7.84777 14.58867,17.52849z" fill="none" stroke="#000000" stroke-width="3.5"/><path d="M305.4651,310.84717c0,4.4819 1.60797,10.80386 -0.69526,13.90312c-2.67164,3.595 -9.56654,3.62537 -13.89342,3.62537c-4.03821,0 -9.1972,-0.63162 -11.83872,-3.81707c-2.62887,-3.17021 -2.74995,-8.88267 -2.74995,-13.71142c0,-9.68073 6.53157,-17.52849 14.58867,-17.52849c8.05709,0 14.58867,7.84777 14.58867,17.52849z" fill="#840000" stroke="#000000" stroke-width="0"/><path d="M305.75882,320.12953c0,5.17949 -6.62135,9.3783 -14.7892,9.3783c-8.16785,0 -14.7892,-4.1988 -14.7892,-9.3783c0,-5.17949 -1.19938,-23.22246 6.96847,-23.22246c1.39138,0 -1.84905,4.43101 -3.74605,9.91793c-1.73939,5.03103 -2.17365,11.09206 -0.60288,12.41785c3.50466,2.95806 12.40602,5.06084 18.43858,4.08342c5.62511,-0.91141 8.52029,-4.87987 8.52029,-3.19675z" fill="#430000" stroke="none" stroke-width="0"/><path d="M305.15724,311.30945c0,4.4819 1.60798,10.80386 -0.69525,13.90312c-2.67164,3.595 -9.56654,3.62536 -13.89342,3.62536c-4.03821,0 -9.19719,-0.6316 -11.83871,-3.81706c-2.62887,-3.17021 -2.74995,-8.88267 -2.74995,-13.71142c0,-9.68071 6.53157,-17.52849 14.58867,-17.52849c8.0571,0 14.58867,7.84777 14.58867,17.52849z" fill="none" stroke="#000000" stroke-width="3.5"/></g></g></g></svg>