<svg version="1.1" xmlns="http://www.w3.org/2000/svg" xmlns:xlink="http://www.w3.org/1999/xlink" width="184.14324" height="336.6998" viewBox="0,0,184.14324,336.6998"><g transform="translate(-154.92922,-6.83223)"><g data-paper-data="{&quot;isPaintingLayer&quot;:true}" fill-rule="nonzero" stroke-linejoin="miter" stroke-miterlimit="10" stroke-dasharray="" stroke-dashoffset="0" style="mix-blend-mode: normal"><g stroke-linecap="butt"><path d="M265.51262,266.73765l-11.1465,-57.39301l9.10199,-1.76772l11.14651,57.39301z" data-paper-data="{&quot;index&quot;:null}" fill="#1b1b1b" stroke="#000000" stroke-width="2.5"/><path d="M269.98151,323.66823l-4.64042,-58.28095l9.24279,-0.73592l4.64042,58.28095z" data-paper-data="{&quot;index&quot;:null}" fill="#1b1b1b" stroke="#000000" stroke-width="2.5"/><path d="M285.97105,285.47839c0.72806,9.35987 -4.37248,17.39022 -11.39238,17.93627c-7.0199,0.54605 -13.30088,-6.59899 -14.02895,-15.95885c-0.21139,-2.7175 -2.85256,-22.36957 -0.66376,-28.46182c2.27208,-6.32407 9.39845,0.80851 10.36214,-7.58495c1.30549,-11.37049 -4.49064,-27.65034 -1.62454,-27.87329c7.0199,-0.54605 16.61943,52.58275 17.3475,61.94262z" data-paper-data="{&quot;index&quot;:null}" fill="#444444" stroke="#000000" stroke-width="0"/><path d="M286.07469,289.78117c0.4909,6.31082 -4.572,11.85153 -11.30826,12.37553c-2.59175,0.2016 -9.8384,-0.68671 -12.31327,-7.25182c-3.95763,-10.49838 -2.65922,-29.14003 -2.96125,-33.02278c-0.15474,-1.98932 16.10981,37.81457 21.50103,33.15632c3.22825,-2.78934 -1.36459,-18.09351 -0.87075,-24.15406c1.29775,-15.92632 -13.48527,-46.62907 -10.14392,-46.88899c6.73629,-0.52399 15.60554,59.47499 16.09643,65.78581z" data-paper-data="{&quot;index&quot;:null}" fill="#282828" stroke="none" stroke-width="0"/><path d="M285.95107,285.22162c0.72806,9.35987 -4.37248,17.39021 -11.39239,17.93626c-7.0199,0.54605 -13.30087,-6.59898 -14.02895,-15.95884c-0.21139,-2.7175 -2.85257,-22.3696 -0.66376,-28.46183c2.27208,-6.32407 9.39845,0.8085 10.36213,-7.58495c1.30549,-11.37049 -4.49063,-27.65033 -1.62453,-27.87327c7.0199,-0.54605 16.61943,52.58276 17.34749,61.94263z" data-paper-data="{&quot;index&quot;:null}" fill="none" stroke="#000000" stroke-width="3"/></g><g stroke-linecap="butt"><path d="M218.84509,261.15056l11.05346,-57.411l9.10483,1.75297l-11.05346,57.411z" data-paper-data="{&quot;index&quot;:null}" fill="#1b1b1b" stroke="#000000" stroke-width="2.5"/><path d="M214.32936,319.12035l4.54595,-58.28839l9.24398,0.72094l-4.54595,58.28839z" data-paper-data="{&quot;index&quot;:null}" fill="#1b1b1b" stroke="#000000" stroke-width="2.5"/><path d="M207.52191,281.6774c0.71289,-9.36104 10.22629,-62.50533 17.24707,-61.97066c2.86645,0.2183 -2.90329,16.50753 -1.57937,27.87589c0.9773,8.39189 8.09209,1.24778 10.37442,7.56814c2.19866,6.08868 -0.41065,25.74502 -0.61763,28.46287c-0.71289,9.36104 -6.98227,16.51623 -14.00306,15.98157c-7.02077,-0.53466 -12.13434,-8.55673 -11.42145,-17.91778z" fill="#444444" stroke="#000000" stroke-width="0"/><path d="M207.42522,285.98034c0.48067,-6.3116 9.25266,-66.32487 15.98978,-65.8118c3.34175,0.25449 -11.39148,30.98117 -10.0679,46.90536c0.50366,6.05975 -4.06437,21.37134 -0.83159,24.15543c5.39877,4.64951 21.59877,-35.18069 21.44725,-33.19113c-0.29573,3.88324 1.03289,22.52276 -2.9077,33.02754c-2.46422,6.5691 -9.70943,7.46917 -12.30151,7.27177c-6.73711,-0.51307 -11.80897,-6.04556 -11.32831,-12.35718z" fill="#282828" stroke="none" stroke-width="0"/><path d="M207.54147,281.42062c0.71289,-9.36104 10.2263,-62.50534 17.24707,-61.97067c2.86646,0.2183 -2.90328,16.50752 -1.57936,27.87588c0.97728,8.39187 8.09208,1.24778 10.37441,7.56814c2.19866,6.08867 -0.41065,25.74502 -0.61763,28.46288c-0.71289,9.36104 -6.98227,16.51622 -14.00306,15.98156c-7.02077,-0.53466 -12.13434,-8.55673 -11.42145,-17.91777z" fill="none" stroke="#000000" stroke-width="3"/></g><g data-paper-data="{&quot;index&quot;:null}" stroke-linecap="butt"><g><path d="M312.86279,323.63141c0,3.46303 2.88695,8.34782 -1.24827,10.74253c-4.79665,2.77775 -17.17574,2.80122 -24.94421,2.80122c-7.25019,0 -16.51263,-0.48803 -21.25521,-2.94933c-4.71986,-2.44953 -4.93725,-6.86339 -4.93725,-10.59442c0,-7.48001 11.72677,-13.54375 26.19246,-13.54375c14.46568,0 26.19245,6.06374 26.19245,13.54375z" fill="#444444" stroke="#000000" stroke-width="0"/><path d="M313.39013,330.8036c0,4.00204 -11.88797,7.24633 -26.5525,7.24633c-14.66453,0 -26.55249,-3.24429 -26.55249,-7.24633c0,-4.00204 -2.15336,-17.9433 12.51118,-17.9433c2.49808,0 -3.31978,3.4237 -6.72565,7.66328c-3.12289,3.88732 -3.90257,8.57051 -1.08241,9.5949c6.29226,2.2856 22.27373,3.91037 33.10457,3.15514c10.09931,-0.70422 15.29731,-3.77053 15.29731,-2.47003z" fill="#282828" stroke="none" stroke-width="0"/><path d="M312.31005,323.9886c0,3.46303 2.88697,8.34782 -1.24824,10.74253c-4.79665,2.77775 -17.17574,2.80121 -24.94421,2.80121c-7.25019,0 -16.51261,-0.48802 -21.25519,-2.94933c-4.71986,-2.44953 -4.93725,-6.86338 -4.93725,-10.5944c0,-7.48 11.72676,-13.54375 26.19245,-13.54375c14.4657,0 26.19246,6.06374 26.19246,13.54375z" fill="none" stroke="#000000" stroke-width="3.5"/></g><g><path d="M324.62485,326.72209c0,3.46303 1.24243,8.34782 -0.53721,10.74253c-2.0643,2.77775 -7.39178,2.80122 -10.73503,2.80122c-3.12021,0 -7.1064,-0.48804 -9.14742,-2.94934c-2.03125,-2.44953 -2.12481,-6.86338 -2.12481,-10.59441c0,-7.48001 5.04675,-13.54375 11.27223,-13.54375c6.22548,0 11.27223,6.06374 11.27223,13.54375z" fill="#444444" stroke="#000000" stroke-width="0"/><path d="M324.85181,333.89429c0,4.00204 -5.11612,7.24633 -11.42717,7.24633c-6.31106,0 -11.42718,-3.24429 -11.42718,-7.24633c0,-4.00204 -0.92673,-17.94331 5.38433,-17.94331c1.07508,0 -1.42871,3.42372 -2.89446,7.6633c-1.34398,3.88732 -1.67951,8.5705 -0.46582,9.5949c2.70795,2.2856 9.58576,3.91036 14.24694,3.15513c4.34636,-0.70422 6.58337,-3.77053 6.58337,-2.47003z" fill="#282828" stroke="none" stroke-width="0"/><path d="M324.38698,327.07928c0,3.46303 1.24244,8.34783 -0.5372,10.74253c-2.0643,2.77775 -7.39179,2.8012 -10.73504,2.8012c-3.12021,0 -7.10639,-0.48802 -9.14741,-2.94933c-2.03125,-2.44953 -2.12481,-6.86338 -2.12481,-10.5944c0,-7.48 5.04675,-13.54374 11.27223,-13.54374c6.22548,0 11.27223,6.06374 11.27223,13.54374z" fill="none" stroke="#000000" stroke-width="3.5"/></g><g><path d="M291.78637,327.88109c0,3.46303 1.24243,8.34783 -0.53721,10.74253c-2.0643,2.77775 -7.39178,2.80122 -10.73503,2.80122c-3.12021,0 -7.10641,-0.48804 -9.14743,-2.94934c-2.03125,-2.44953 -2.1248,-6.86338 -2.1248,-10.59441c0,-7.48001 5.04675,-13.54374 11.27223,-13.54374c6.22547,0 11.27223,6.06374 11.27223,13.54374z" fill="#444444" stroke="#000000" stroke-width="0"/><path d="M292.01331,335.05329c0,4.00204 -5.11612,7.24633 -11.42718,7.24633c-6.31106,0 -11.42718,-3.24429 -11.42718,-7.24633c0,-4.00204 -0.92672,-17.9433 5.38433,-17.9433c1.07508,0 -1.42871,3.4237 -2.89446,7.66328c-1.34398,3.88732 -1.67952,8.57052 -0.46583,9.59491c2.70795,2.2856 9.58577,3.91036 14.24695,3.15513c4.34635,-0.70422 6.58338,-3.77053 6.58338,-2.47003z" fill="#282828" stroke="none" stroke-width="0"/><path d="M291.54849,328.23829c0,3.46303 1.24244,8.34782 -0.53719,10.74253c-2.0643,2.77775 -7.39179,2.80121 -10.73504,2.80121c-3.12021,0 -7.10639,-0.48802 -9.14742,-2.94933c-2.03125,-2.44953 -2.12481,-6.86338 -2.12481,-10.5944c0,-7.48 5.04675,-13.54375 11.27223,-13.54375c6.22548,0 11.27224,6.06374 11.27224,13.54375z" fill="none" stroke="#000000" stroke-width="3.5"/></g><g><path d="M310.71679,326.14259c0,3.46303 1.24243,8.34782 -0.53721,10.74253c-2.0643,2.77775 -7.39178,2.80121 -10.73504,2.80121c-3.12021,0 -7.1064,-0.48803 -9.14742,-2.94933c-2.03125,-2.44953 -2.12481,-6.86338 -2.12481,-10.5944c0,-7.48001 5.04675,-13.54375 11.27223,-13.54375c6.22547,0 11.27223,6.06374 11.27223,13.54375z" fill="#444444" stroke="#000000" stroke-width="0"/><path d="M310.94374,333.31478c0,4.00204 -5.11612,7.24633 -11.42717,7.24633c-6.31106,0 -11.42717,-3.24429 -11.42717,-7.24633c0,-4.00204 -0.92673,-17.94331 5.38432,-17.94331c1.07508,0 -1.42871,3.42371 -2.89446,7.66329c-1.34398,3.88732 -1.67953,8.57051 -0.46583,9.5949c2.70795,2.2856 9.58577,3.91036 14.24695,3.15513c4.34635,-0.70422 6.58338,-3.77052 6.58338,-2.47003z" fill="#282828" stroke="none" stroke-width="0"/><path d="M310.47891,326.49977c0,3.46303 1.24244,8.34783 -0.53719,10.74254c-2.0643,2.77775 -7.39178,2.8012 -10.73503,2.8012c-3.12021,0 -7.1064,-0.48801 -9.14742,-2.94932c-2.03125,-2.44953 -2.1248,-6.86339 -2.1248,-10.59442c0,-7.48 5.04675,-13.54374 11.27223,-13.54374c6.22548,0 11.27223,6.06373 11.27223,13.54374z" fill="none" stroke="#000000" stroke-width="3.5"/></g></g><g stroke-linecap="butt"><g><path d="M178.60907,321.63141c0,-7.48001 11.72678,-13.54375 26.19245,-13.54375c14.4657,0 26.19246,6.06374 26.19246,13.54375c0,3.73103 -0.21738,8.14488 -4.93725,10.59441c-4.74258,2.4613 -14.00502,2.94933 -21.25521,2.94933c-7.76847,0 -20.14755,-0.02346 -24.94421,-2.80122c-4.13521,-2.39471 -1.24827,-7.27949 -1.24827,-10.74253z" fill="#444444" stroke="#000000" stroke-width="0"/><path d="M178.0817,328.80359c0,-1.30049 5.19801,1.76582 15.29731,2.47003c10.83084,0.75523 26.81231,-0.86954 33.10457,-3.15514c2.82016,-1.0244 2.04049,-5.70758 -1.08241,-9.5949c-3.40587,-4.23958 -9.22373,-7.66329 -6.72565,-7.66329c14.66453,0 12.51118,13.94126 12.51118,17.9433c0,4.00204 -11.88795,7.24633 -26.55249,7.24633c-14.66453,0 -26.5525,-3.24429 -26.5525,-7.24633z" fill="#282828" stroke="none" stroke-width="0"/><path d="M179.16177,321.9886c0,-7.48001 11.72676,-13.54375 26.19246,-13.54375c14.4657,0 26.19245,6.06375 26.19245,13.54375c0,3.73103 -0.21739,8.14488 -4.93726,10.59441c-4.74258,2.46131 -14.005,2.94933 -21.25518,2.94933c-7.76847,0 -20.14755,-0.02346 -24.94421,-2.80121c-4.13521,-2.39471 -1.24825,-7.27949 -1.24825,-10.74253z" fill="none" stroke="#000000" stroke-width="3.5"/></g><g><path d="M166.847,324.72208c0,-7.48001 5.04676,-13.54374 11.27223,-13.54374c6.22548,0 11.27223,6.06373 11.27223,13.54374c0,3.73103 -0.09355,8.14488 -2.12481,10.59441c-2.04102,2.4613 -6.02722,2.94934 -9.14742,2.94934c-3.34325,0 -8.67074,-0.02346 -10.73504,-2.80122c-1.77964,-2.39471 -0.53721,-7.2795 -0.53721,-10.74253z" fill="#444444" stroke="#000000" stroke-width="0"/><path d="M166.62003,331.89427c0,-1.30049 2.23702,1.76582 6.58337,2.47003c4.66118,0.75523 11.53899,-0.86953 14.24694,-3.15513c1.21369,-1.0244 0.87816,-5.70758 -0.46582,-9.5949c-1.46575,-4.23958 -3.96955,-7.66329 -2.89447,-7.66329c6.31106,0 5.38433,13.94126 5.38433,17.94331c0,4.00204 -5.11612,7.24633 -11.42718,7.24633c-6.31106,0 -11.42718,-3.24429 -11.42718,-7.24633z" fill="#282828" stroke="none" stroke-width="0"/><path d="M167.08485,325.07928c0,-7.48001 5.04675,-13.54374 11.27223,-13.54374c6.22548,0 11.27223,6.06374 11.27223,13.54374c0,3.73103 -0.09355,8.14488 -2.12481,10.59441c-2.04102,2.46131 -6.0272,2.94933 -9.14741,2.94933c-3.34325,0 -8.67074,-0.02345 -10.73504,-2.8012c-1.77964,-2.39471 -0.5372,-7.2795 -0.5372,-10.74253z" fill="none" stroke="#000000" stroke-width="3.5"/></g><g><path d="M199.68548,325.88109c0,-7.48001 5.04676,-13.54374 11.27223,-13.54374c6.22548,0 11.27223,6.06373 11.27223,13.54374c0,3.73103 -0.09355,8.14488 -2.1248,10.59441c-2.04102,2.4613 -6.02722,2.94934 -9.14743,2.94934c-3.34325,0 -8.67073,-0.02346 -10.73503,-2.80122c-1.77964,-2.39471 -0.53721,-7.2795 -0.53721,-10.74253z" fill="#444444" stroke="#000000" stroke-width="0"/><path d="M199.45852,333.05328c0,-1.30049 2.23703,1.76582 6.58338,2.47003c4.66118,0.75523 11.53899,-0.86953 14.24694,-3.15513c1.21369,-1.0244 0.87815,-5.70758 -0.46583,-9.59491c-1.46575,-4.23958 -3.96954,-7.66329 -2.89446,-7.66329c6.31106,0 5.38433,13.94126 5.38433,17.94331c0,4.00204 -5.11612,7.24633 -11.42718,7.24633c-6.31106,0 -11.42718,-3.24429 -11.42718,-7.24633z" fill="#282828" stroke="none" stroke-width="0"/><path d="M199.92334,326.23828c0,-7.48001 5.04676,-13.54374 11.27224,-13.54374c6.22548,0 11.27223,6.06374 11.27223,13.54374c0,3.73103 -0.09355,8.14488 -2.12481,10.59441c-2.04102,2.46131 -6.02721,2.94933 -9.14742,2.94933c-3.34325,0 -8.67074,-0.02345 -10.73504,-2.8012c-1.77964,-2.39471 -0.5372,-7.2795 -0.5372,-10.74253z" fill="none" stroke="#000000" stroke-width="3.5"/></g><g><path d="M180.75506,324.14259c0,-7.48001 5.04676,-13.54375 11.27223,-13.54375c6.22548,0 11.27223,6.06374 11.27223,13.54375c0,3.73103 -0.09355,8.14488 -2.12481,10.59441c-2.04102,2.4613 -6.02722,2.94934 -9.14742,2.94934c-3.34325,0 -8.67073,-0.02346 -10.73503,-2.80122c-1.77964,-2.39471 -0.53721,-7.27949 -0.53721,-10.74253z" fill="#444444" stroke="#000000" stroke-width="0"/><path d="M180.5281,331.31477c0,-1.30049 2.23702,1.76581 6.58337,2.47003c4.66118,0.75523 11.539,-0.86953 14.24695,-3.15513c1.21369,-1.0244 0.87814,-5.70758 -0.46583,-9.5949c-1.46575,-4.23958 -3.96954,-7.66329 -2.89446,-7.66329c6.31106,0 5.38433,13.94126 5.38433,17.94331c0,4.00204 -5.11611,7.24633 -11.42717,7.24633c-6.31106,0 -11.42718,-3.24429 -11.42718,-7.24633z" fill="#282828" stroke="none" stroke-width="0"/><path d="M180.99292,324.49977c0,-7.48001 5.04675,-13.54374 11.27223,-13.54374c6.22548,0 11.27223,6.06374 11.27223,13.54374c0,3.73103 -0.09355,8.14488 -2.1248,10.59441c-2.04102,2.46131 -6.02722,2.94932 -9.14742,2.94932c-3.34325,0 -8.67073,-0.02345 -10.73503,-2.8012c-1.77964,-2.39471 -0.5372,-7.2795 -0.5372,-10.74253z" fill="none" stroke="#000000" stroke-width="3.5"/></g></g><path d="M220.24029,210.79203v-10h51.66667v10z" fill="#1b1b1b" stroke="#000000" stroke-width="2.5" stroke-linecap="butt"/><g><path d="M305.39402,209.72886l-26.89091,-40.20895l6.3014,-4.21425l26.89091,40.20895z" fill="#1b1b1b" stroke="#000000" stroke-width="2.5" stroke-linecap="butt"/><g data-paper-data="{&quot;index&quot;:null}"><path d="M269.56799,127.34687c6.70459,-0.84802 31.52086,44.76294 32.30114,50.93189c0.08654,0.68415 -1.42319,-0.61523 -2.84439,-0.66684c-1.90951,-0.06932 -4.11173,0.85268 -6.37037,-0.12712c-3.91847,-1.69985 -7.70737,-5.51674 -8.80617,-3.46933c-2.04697,3.81416 10.05909,23.41184 6.83028,23.82023c-6.7046,0.84802 -31.05715,-51.61452 -31.83742,-57.78348c-0.38726,-3.06169 -3.0851,-6.2612 -1.17201,-8.55316c1.94157,-2.32608 8.52186,-3.72507 11.89893,-4.15221z" fill="#444444" stroke="#000000" stroke-width="0" stroke-linecap="butt"/><path d="M282.18801,172.40713c3.70847,-0.46907 8.57369,-0.38327 12.63255,-0.46628c3.59213,-0.07347 6.58121,-0.6771 7.16074,3.90468c0.29604,2.34057 -3.33752,3.44453 -7.82367,2.08757c-4.19375,-1.26852 -9.2177,-4.99808 -10.10442,-3.24353c-2.11967,4.19412 10.28101,21.03918 6.53443,21.51305c-6.9905,0.88419 -30.20003,-45.93874 -31.43436,-55.69764c-0.81439,-6.43873 10.9397,20.49836 21.41223,36.30031c5.40027,8.14841 -0.6857,-2.10492 1.69261,-2.40573z" fill="#282828" stroke="none" stroke-width="0" stroke-linecap="butt"/><path d="M269.50759,126.8693c6.70459,-0.84802 31.52086,44.76294 32.30114,50.93189c0.33703,2.66461 -4.6533,-2.22948 -6.20115,1.35679c-0.82689,1.9159 -11.45025,-8.41994 -11.82959,-5.16421c-0.55451,4.75897 9.10158,23.07834 6.84009,23.36438c-6.7046,0.84802 -31.05715,-51.61452 -31.83742,-57.78348c-0.414,-3.2732 -3.80108,-7.04023 -1.62148,-9.39158c1.92829,-2.08023 9.2012,-2.91571 12.3484,-3.31379z" fill="none" stroke="#000000" stroke-width="3" stroke-linecap="butt"/><path d="M271.92824,166.42056l16.86975,-15.85926" fill="none" stroke="#000000" stroke-width="3" stroke-linecap="round"/></g></g><g><path d="M216.08909,119.67414c3.40397,0.00431 10.10709,0.57499 12.32259,2.64184c2.18301,2.03653 -0.09645,5.54642 -0.10036,8.63251c-0.00787,6.2181 -17.65435,61.29956 -24.41237,61.29102c-6.75802,-0.00855 -13.54137,-11.79714 -13.53351,-18.01523c0.00787,-6.2181 18.96565,-54.55865 25.72366,-54.55011z" fill="#444444" stroke="#000000" stroke-width="0" stroke-linecap="butt"/><path d="M199.39835,181.46325c2.39727,0.00304 7.57647,-2.59146 11.92263,-11.34763c8.42832,-16.98053 16.74497,-45.16915 16.73678,-38.67912c-0.01244,9.83666 -17.22537,59.18018 -24.27156,59.17126c-7.04619,-0.00893 -13.84682,-8.9473 -13.83438,-18.78395c0.01244,-9.83666 2.40033,9.63053 9.44652,9.63945z" fill="#282828" stroke="none" stroke-width="0" stroke-linecap="butt"/><path d="M216.08968,119.19278c3.17227,0.00402 10.49265,-0.07049 12.66442,1.75407c2.45483,2.06235 -0.43804,6.22099 -0.44221,9.52027c-0.00787,6.2181 -17.65435,61.29956 -24.41237,61.29102c-6.75802,-0.00855 -13.54137,-11.79714 -13.53351,-18.01523c0.00787,-6.2181 18.96565,-54.55865 25.72366,-54.55011z" fill="none" stroke="#000000" stroke-width="3" stroke-linecap="butt"/><path d="M199.89197,145.09767l18.70924,13.6407" fill="none" stroke="#000000" stroke-width="3" stroke-linecap="round"/></g><g stroke-width="2.5" stroke-linecap="butt"><path d="M247.64418,151.52033c11.18226,0.13619 20.12138,10.58458 19.96606,23.33712c-0.04857,3.98785 6.98055,4.04418 7.18997,7.17779c0.074,1.1073 -6.33169,2.64043 -7.8954,4.41768c-1.90762,2.16813 0.86788,4.58468 -0.21671,5.59485c-1.67894,1.56373 -7.44216,-12.1878 -11.07172,-8.9224c-4.05826,3.6511 -5.92565,14.60777 -8.53466,14.576c-11.18226,-0.13619 -20.12138,-10.58458 -19.96606,-23.33712c0.15532,-12.75255 9.34625,-22.98011 20.52852,-22.84392z" fill="#212121" stroke="#000000"/><path d="M238.31884,202.59259l0.75763,-62.20656l14.30234,0.17419l-0.75763,62.20656z" fill="#1b1b1b" stroke="#000000"/><path d="M245.38946,121.59266c5.94061,0.07235 15.16842,-5.4766 20.50786,7.26597c2.26605,5.40793 10.48464,36.9511 6.62284,51.84214c-1.72496,6.65138 -12.73247,0.33165 -15.92897,3.48341c-4.81072,4.74339 -10.08632,-23.08192 -15.68248,-26.46913c-4.76317,-2.88302 -10.28498,18.77016 -10.2993,19.94581c-0.12631,10.37088 30.54057,26.52044 17.81523,26.36545c-12.72533,-0.15499 -27.43541,-4.29956 -27.30911,-14.67042c0.08207,-6.73817 -1.80021,-44.37897 5.07795,-62.18177c3.7082,-9.59796 14.73853,-5.63576 19.19597,-5.58146z" fill="#444444" stroke="#000000"/><path d="M248.74957,203.51071c-0.37577,0.06518 -24.92157,6.33234 -28.04937,-14.82148c-1.43377,-9.69676 0.8297,-43.39423 4.7682,-57.59436c4.1446,-14.94323 9.9942,-10.17254 9.14823,-10.70281c-1.80673,-1.13248 -11.13331,43.5129 -10.8545,65.63577c0.14294,11.3424 20.5613,15.34464 19.7307,14.4946c-4.94895,-5.06476 -17.04159,-18.1926 -17.65112,-18.72594c-2.53641,-2.21938 7.51221,-20.44963 6.89245,-22.39601c-0.89834,-2.82124 10.20385,-5.16218 11.00448,-5.03656c3.44515,0.54048 8.84449,22.60067 15.43353,27.52152c3.98744,2.97792 10.69766,-8.74003 11.1444,-11.26574c2.56099,-14.4789 -10.66364,-47.35622 -6.3346,-47.30349c7.23279,0.08809 10.4378,48.61933 10.37211,54.0122c-0.06568,5.39286 -3.88926,7.65062 -11.12205,7.56252c-1.35807,-0.01655 -6.27866,-0.27866 -9.06773,-4.45211c-5.27561,-7.89424 -9.53378,-22.16242 -14.06692,-21.68978c-3.67837,0.38352 -8.84897,11.10032 -9.61965,18.88953c-0.45159,4.56426 2.86507,8.60346 2.87617,7.69274c0.00281,-0.23049 22.99892,16.86063 15.39567,18.17944z" fill="#282828" stroke="none"/><path d="M245.86306,121.6127c5.94061,0.07235 15.16842,-5.4766 20.50786,7.26597c6.09813,14.5532 7.92328,47.93451 7.85593,53.46392c-0.01305,1.0713 -8.15738,1.38957 -13.96488,1.28832c-2.8592,-0.04986 -3.77856,1.38217 -5.56723,-0.3434c-7.10493,-6.85422 -6.65,-24.37587 -13.86984,-25.38017c-1.36012,-0.1892 -6.60736,10.96228 -8.14075,15.50514c-0.31794,0.94194 -0.37509,2.43124 -0.58954,2.4268c-1.84179,-0.03815 -0.6672,1.36004 -1.28127,1.94309c-4.80337,4.56073 24.83076,26.34613 18.08489,26.26397c-12.72533,-0.15499 -27.43541,-4.29956 -27.30911,-14.67042c0.08206,-6.73816 -1.80021,-44.37897 5.07795,-62.18177c3.7082,-9.59796 14.73853,-5.63575 19.19597,-5.58145z" fill="none" stroke="#000000"/><path d="M246.36923,126.08894c9.83405,0.11977 17.60755,16.52105 17.3626,36.63327c-0.11472,9.41908 8.10487,23.91833 4.57825,20.64116c-1.58692,-1.47467 -8.85574,3.05058 -12.80873,-1.71654c-6.02003,-7.25987 -9.34341,-24.30894 -12.49951,-24.34738c-7.6632,-0.09333 -11.76471,24.63229 -13.44128,21.87246c-0.47494,-0.78181 -1.49505,-12.44368 -1.44097,-16.88342c0.24495,-20.11222 8.41559,-36.3193 18.24965,-36.19953z" fill="#b7b7b7" stroke="#000000"/><path d="M231.32889,144.05921c0.02816,-2.31215 2.25237,-10.79559 7.18856,-15.10512c2.10718,-1.83967 5.96824,-2.19871 8.30292,-2.17027c7.80379,0.09505 12.80875,14.32043 12.76856,17.6196c-0.04018,3.29916 -4.09053,-13.83725 -11.89432,-13.9323c-1.15784,-0.0141 -12.03147,6.55979 -14.17976,12.42128c-0.48413,1.32092 -5.96262,23.8349 -3.83332,25.37006c1.31139,0.94548 1.99531,-7.22889 5.52182,-11.37533c3.39411,-3.99076 9.62123,-3.97701 11.51414,-2.27093c4.12075,3.71403 8.29673,17.85795 11.8604,22.11354c4.83816,5.77752 8.44867,1.46552 8.33783,3.81432c-0.15142,3.20913 -5.44961,5.75561 -13.1165,-2.32886c-3.48864,-3.67866 -8.4277,-20.50288 -11.90604,-21.2068c-6.43784,-1.30284 -12.8237,21.21742 -13.16248,21.06583c-1.5795,-0.70678 -1.7108,-12.81376 -0.42296,-22.54955c0.72938,-5.51397 3.01398,-10.87825 3.02113,-11.46542z" fill="#989898" stroke="none"/><path d="M245.67997,126.08055c9.83405,0.11977 17.60755,16.52105 17.3626,36.63327c-0.11472,9.41908 8.10487,23.91833 4.57825,20.64116c-1.58692,-1.47467 -8.85574,3.05058 -12.80873,-1.71654c-6.02003,-7.25987 -9.34341,-24.30894 -12.49951,-24.34738c-7.6632,-0.09333 -11.76471,24.63229 -13.44128,21.87246c-0.47494,-0.78181 -1.49505,-12.44368 -1.44097,-16.88342c0.24495,-20.11222 8.41559,-36.3193 18.24965,-36.19953z" fill="none" stroke="#000000"/></g><g stroke-width="2.5" stroke-linecap="butt"><path d="M272.12012,128.661c0,1.42763 1.18882,16.71602 -4.99757,16.71602c-6.1864,0 -17.40534,-15.28839 -17.40534,-16.71602c0,-1.42763 10.87428,-15.68204 17.06068,-15.68204c6.1864,0 5.34223,14.25441 5.34223,15.68204z" data-paper-data="{&quot;index&quot;:null}" fill="#de3636" stroke="#000000"/><path d="M272.80944,128.31635c0,1.42763 1.18882,16.71602 -4.99757,16.71602c-6.1864,0 -17.40534,-15.28839 -17.40534,-16.71602c0,-1.42763 10.87428,-15.68204 17.06068,-15.68204c6.1864,0 5.34223,14.25441 5.34223,15.68204z" data-paper-data="{&quot;index&quot;:null}" fill="#de3636" stroke="#000000"/><path d="M272.63711,130.55664c0,3.33113 0.69492,14.3034 -4.82524,14.3034c-5.52017,0 -15.16505,-10.97226 -15.16505,-14.3034c0,-1.34768 12.57959,11.45699 14.7915,8.30306c3.25538,-4.64179 -3.08564,-25.36374 0.20122,-25.36374c5.52017,0 4.99757,13.72955 4.99757,17.06068z" data-paper-data="{&quot;index&quot;:null}" fill="#b72c2c" stroke="none"/><path d="M272.29245,128.48868c0,1.42763 1.18882,16.71602 -4.99757,16.71602c-6.1864,0 -17.40534,-15.28839 -17.40534,-16.71602c0,-1.42763 10.87428,-15.68204 17.06068,-15.68204c6.1864,0 5.34223,14.25441 5.34223,15.68204z" data-paper-data="{&quot;index&quot;:null}" fill="none" stroke="#000000"/><path d="M227.92293,113.66829c6.1864,0 17.06068,14.25441 17.06068,15.68204c0,1.42763 -11.21894,16.71602 -17.40534,16.71602c-6.1864,0 -4.99757,-15.28839 -4.99757,-16.71602c0,-1.42763 -0.84416,-15.68204 5.34223,-15.68204z" data-paper-data="{&quot;index&quot;:null}" fill="#de3636" stroke="#000000"/><path d="M227.7506,114.52994c3.28686,0 -3.05415,20.72195 0.20122,25.36374c2.21191,3.15394 14.7915,-9.65074 14.7915,-8.30306c0,3.33113 -9.64488,14.3034 -15.16505,14.3034c-5.52017,0 -4.82524,-10.97226 -4.82524,-14.3034c0,-3.33113 -0.52259,-17.06068 4.99757,-17.06068z" fill="#b72c2c" stroke="none"/><path d="M228.43992,113.84062c6.1864,0 17.06068,14.25441 17.06068,15.68204c0,1.42763 -11.21894,16.71602 -17.40534,16.71602c-6.1864,0 -4.99757,-15.28839 -4.99757,-16.71602c0,-1.42763 -0.84416,-15.68204 5.34223,-15.68204z" fill="none" stroke="#000000"/><path d="M245.67292,121.76781c3.80701,0 6.8932,3.14334 6.8932,7.02085c0,3.87751 -3.0862,7.02085 -6.8932,7.02085c-3.80701,0 -6.8932,-3.14334 -6.8932,-7.02085c0,-3.87751 3.08619,-7.02085 6.8932,-7.02085z" fill="#de3636" stroke="#000000"/><path d="M241.19234,124.18042c1.78326,0 -0.09511,7.29764 2.30665,8.96123c2.59746,1.79915 9.4118,-1.99758 9.4118,-1.20637c0,1.43309 -2.66494,3.64481 -6.07264,3.7786c-0.21332,0.00838 -0.0849,0.35732 -0.30357,0.35732c-3.71184,0 -7.06553,-2.61312 -7.06553,-4.13592c0,-1.52281 -1.98854,-7.75485 1.7233,-7.75485z" fill="#b72c2c" stroke="none"/><path d="M245.84526,121.94013c3.80701,0 6.8932,3.14335 6.8932,7.02086c0,3.87752 -3.08619,7.02086 -6.8932,7.02086c-3.80701,0 -6.8932,-3.14335 -6.8932,-7.02086c0,-3.87752 3.08619,-7.02086 6.8932,-7.02086z" fill="none" stroke="#000000"/></g><path d="M228.18129,114.00508l9.31263,-22.82548l29.32728,11.96531l-9.31263,22.82548z" fill="#1b1b1b" stroke="#000000" stroke-width="2.5" stroke-linecap="butt"/><path d="M224.98848,114.31609l2.65267,-6.50179l33.06235,13.48919l-2.65267,6.50179z" fill="#7c7c7c" stroke="none" stroke-width="2.5" stroke-linecap="butt"/><path d="M236.93349,110.15322c3.37439,1.37672 -11.4468,-0.37975 -6.07125,3.62668c3.20502,2.38873 28.38451,11.09424 28.03521,11.95037c-0.93513,2.29203 -19.9641,-5.0793 -25.35037,-7.27685c-5.38627,-2.19756 -8.99463,-5.83708 -8.05951,-8.12912c0.93513,-2.29203 6.05965,-2.36861 11.44591,-0.17106z" fill="#585858" stroke="none" stroke-width="2.5" stroke-linecap="butt"/><path d="M225.38404,107.62496l2.20117,-5.39512l36.38243,14.84376l-2.20117,5.39512z" fill="#e1e1e1" stroke="#000000" stroke-width="2.5" stroke-linecap="butt"/><path d="M225.87929,105.80455c0.07427,-0.18204 1.03785,-2.55225 2.92893,-2.90515c1.53032,-0.28555 3.97016,1.37442 4.66125,1.67199c1.67935,0.72306 -2.68799,1.22653 -1.25107,3.0484c1.24645,1.58038 8.17694,4.45032 10.94596,5.64116c4.72894,2.03371 10.23983,3.12811 13.85883,4.60463c10.42873,4.25483 7.2453,1.8191 6.62188,3.34714c-0.62341,1.52802 -9.58296,-0.68252 -20.0117,-4.93737c-10.42873,-4.25483 -18.3775,-8.94279 -17.7541,-10.4708z" fill="#bfbfbf" stroke="none" stroke-width="2.5" stroke-linecap="butt"/><g data-paper-data="{&quot;index&quot;:null}" stroke-width="2.5" stroke-linecap="butt"><path d="M312.3099,101.35638c-3.78398,-2.68457 -12.17464,-3.90448 -13.46228,-7.01666c-1.49721,-3.61868 4.58588,-9.09463 7.09518,-11.45901c2.48503,-2.34151 8.55057,-5.97732 13.09078,-5.31027c3.98717,0.58578 6.35183,5.14537 10.17834,7.86008c8.18383,5.80603 11.03448,14.07784 6.36712,18.47566c-4.66735,4.39779 -15.0853,3.2562 -23.26913,-2.54982z" fill="#444444" stroke="#000000"/><path d="M306.57972,98.14491c-0.50621,-0.01335 -0.96673,-0.57587 -1.44771,-0.61689c-4.13399,-0.35258 -7.18949,-2.03714 -7.09211,-3.5362c0.1087,-1.67346 15.44897,-16.37586 20.30604,-16.24782c2.55753,0.06741 -9.93434,5.15032 -7.26786,12.61887c2.39752,6.71521 20.10124,15.84993 20.04977,16.64222c-0.0745,1.14666 -8.98091,-1.46767 -16.32216,-4.7345c-3.37277,-1.50088 -6.69695,-4.08532 -8.22595,-4.12564z" fill="#282828" stroke="none"/><path d="M323.88855,104.67591c-6.8359,-0.1802 -21.38858,-8.94463 -21.28947,-10.47043c0.09912,-1.5258 6.08281,-11.53428 12.91872,-11.35406c6.8359,0.1802 20.11191,18.55233 20.01282,20.07813c-0.09912,1.5258 -4.80616,1.92656 -11.64206,1.74635z" fill="#b7b7b7" stroke="#000000"/><path d="M332.53779,102.04301c-1.26343,-0.0333 1.60921,4.0536 -2.20605,4.0601c-3.23189,0.0055 -12.97923,-3.92033 -16.27851,-5.33831c-4.79987,-2.06291 -8.9291,-4.33205 -10.67332,-6.37463c-0.88118,-1.0319 -0.65984,-2.12591 -0.61199,-2.86261c0.1034,-1.59171 1.77446,-2.85386 2.71697,-4.07327c2.69991,-3.49313 7.84128,-5.53335 11.74933,-3.04967c7.10902,4.518 15.94903,14.39945 15.74367,17.5607c-0.02555,0.39326 -5.29562,-6.44371 -10.77279,-11.28738c-3.964,-3.50549 -8.16743,-5.54525 -9.94218,-5.06505c-3.39603,0.91885 -7.0716,7.94594 -6.32025,8.8381c2.0036,2.3792 8.55733,6.6956 14.6649,7.95389c7.17299,1.47778 13.75146,-0.31389 11.93024,-0.36189z" fill="#989898" stroke="none"/><path d="M323.23228,104.6544c-6.8359,-0.1802 -21.38858,-8.94463 -21.28947,-10.47043c0.09912,-1.5258 6.08281,-11.53428 12.91872,-11.35406c6.8359,0.1802 20.11191,18.55233 20.01282,20.07813c-0.09912,1.5258 -4.80616,1.92656 -11.64206,1.74635z" fill="none" stroke="#000000"/><path d="M312.09949,101.16809c-3.78398,-2.68457 -8.34699,-2.55375 -9.63465,-5.66595c-1.49721,-3.61868 1.81802,-6.66798 4.32729,-9.03235c2.48503,-2.34151 7.49082,-9.75467 12.03105,-9.08762c3.98717,0.58578 6.35183,5.14537 10.17834,7.86008c8.18383,5.80603 11.03448,14.07784 6.36712,18.47566c-4.66735,4.39779 -15.0853,3.2562 -23.26913,-2.54982z" fill="none" stroke="#000000"/></g><g data-paper-data="{&quot;index&quot;:null}" stroke-width="2.5" stroke-linecap="butt"><path d="M298.91431,92.98468c-4.75665,-1.49211 -13.1746,0.26914 -15.78247,-2.59383c-3.03232,-3.3289 0.20883,-11.41899 1.49833,-14.86921c1.27704,-3.41689 5.32965,-9.52938 9.88778,-10.47496c4.00288,-0.83041 8.27205,3.18918 13.08216,4.69805c10.28744,3.22704 11.93231,10.09563 9.53381,16.51317c-2.39851,6.41754 -7.93216,9.95381 -18.21959,6.7268z" fill="#444444" stroke="#000000"/><path d="M292.09541,91.63977c-0.48076,0.17079 -1.16574,-0.26339 -1.63527,-0.13147c-4.03566,1.1339 -7.65917,0.44661 -8.24232,-1.19478c-0.65098,-1.83235 7.12056,-23.1907 11.73333,-24.82953c0.66665,-0.23684 7.8056,1.46529 7.24708,2.58032c-0.46944,0.93721 -3.16078,0.60085 -4.78173,1.96605c-3.47696,2.92834 -6.50409,8.15203 -3.60378,11.62844c5.26989,6.31671 20.61054,7.58093 20.91875,8.44845c0.44605,1.25554 -3.71037,3.75925 -12.06517,2.94411c-3.8384,-0.3745 -8.11878,-1.92748 -9.5709,-1.4116z" fill="#282828" stroke="none"/><path d="M311.26679,92.30685c-6.49205,2.30649 -24.08352,-1.76083 -24.67708,-3.4315c-0.59355,-1.67067 0.51504,-14.57968 7.00709,-16.88617c6.49205,-2.30649 21.62667,9.22762 22.22021,10.89827c0.59355,1.67067 1.94183,7.11292 -4.55022,9.41939z" fill="#b7b7b7" stroke="#000000"/><path d="M315.08964,83.47041c-1.19986,0.42628 1.2068,6.26761 -2.3684,7.66962c-3.02851,1.18761 -8.70595,0.88609 -12.43813,0.57351c-8.17272,-0.68447 -15.88257,-3.75484 -16.73643,-6.15816c-1.70409,-4.79646 0.5154,-9.96408 4.95733,-11.54219c1.23637,-0.43926 4.04585,-1.85184 7.40134,-0.98777c8.69994,2.24032 18.54209,7.98374 19.77186,11.44514c0.15298,0.4306 -4.97136,-3.35693 -12.28739,-6.54274c-5.29482,-2.30568 -10.15473,-2.95367 -11.60311,-1.79036c-2.7715,2.226 -3.05685,11.09739 -1.95081,11.77839c2.94954,1.81598 11.03798,4.04337 17.33203,3.15804c7.39201,-1.03977 9.65131,-8.21793 7.9217,-7.60344z" fill="#989898" stroke="none"/><path d="M310.64165,92.52379c-6.49205,2.30649 -24.08352,-1.76083 -24.67708,-3.4315c-0.59355,-1.67067 0.51504,-14.57968 7.00709,-16.88617c6.49205,-2.30649 22.52448,10.4472 23.11803,12.11789c0.59355,1.67067 1.04401,5.89331 -5.44804,8.19979z" fill="none" stroke="#000000"/><path d="M298.63229,92.85992c-4.75665,-1.49211 -13.1746,0.26914 -15.78247,-2.59383c-3.03232,-3.3289 0.20883,-11.41899 1.49833,-14.86921c1.27704,-3.41689 5.32965,-9.52938 9.88778,-10.47496c4.00288,-0.83041 8.27205,3.18918 13.08216,4.69805c10.28744,3.22704 10.21496,11.14535 7.81643,17.56288c-2.39851,6.41754 -6.21479,8.90409 -16.50223,5.67704z" fill="none" stroke="#000000"/></g><g stroke-width="2.5" stroke-linecap="butt"><path d="M224.08887,10.08788c4.60781,-4.46015 12.73978,-1.2321 18.16327,7.21008c2.53587,3.94734 6.98186,6.51917 7.38365,10.52905c0.45752,4.5661 -3.45338,10.45799 -5.90672,12.83272c-2.47726,2.3979 -8.22718,8.22271 -11.77319,6.56064c-3.0497,-1.42942 -3.8824,-9.8673 -6.39009,-13.77076c-5.42348,-8.44218 -6.08474,-18.90162 -1.47694,-23.36179z" fill="#444444" stroke="#000000"/><path d="M228.51031,39.32147c0.03007,-1.52924 -2.39879,-4.96878 -3.74296,-8.40701c-2.92574,-7.48376 -5.12768,-16.50097 -3.97883,-16.52266c0.79381,-0.01498 9.10464,18.09012 15.7025,20.79395c7.33798,3.00715 12.99004,-9.23772 12.93977,-6.6798c-0.09548,4.85784 -15.48785,19.50566 -17.16452,19.5373c-1.50194,0.02833 -3.04419,-3.1014 -3.20628,-7.24723c-0.01886,-0.48235 -0.55961,-0.96828 -0.54966,-1.47455z" fill="#282828" stroke="none"/><path d="M222.78232,21.73058c0.13438,-6.83696 0.75119,-11.52059 2.27993,-11.54942c1.52873,-0.02884 19.27085,14.07811 19.13647,20.91505c-0.13438,6.83696 -10.40747,12.35403 -11.93621,12.38286c-1.52873,0.02884 -9.61458,-14.91154 -9.48021,-21.74849z" fill="#b7b7b7" stroke="#000000"/><path d="M225.81021,13.21156c0.0358,-1.8215 -2.05651,4.66762 -0.9102,11.90097c0.97605,6.15898 4.9865,12.90429 7.27102,15.01519c0.85668,0.79157 8.04537,-2.55692 9.11943,-5.9071c0.56129,-1.75076 -1.28297,-6.04359 -4.60244,-10.16461c-4.58662,-5.69415 -11.174,-11.27307 -10.77999,-11.28052c3.16735,-0.05974 12.63176,9.22538 16.81804,16.53467c2.30131,4.01815 0.02681,9.06024 -3.5868,11.59665c-1.26146,0.88541 -2.59912,2.49668 -4.19394,2.52675c-0.73811,0.01392 -1.84116,0.18469 -2.83143,-0.74299c-1.96019,-1.83632 -4.03701,-6.06552 -5.87698,-10.95521c-1.26472,-3.361 -4.73813,-13.27859 -4.584,-16.5068c0.18196,-3.81095 4.13242,-0.75339 4.15727,-2.017z" fill="#989898" stroke="none"/><path d="M222.7736,22.38715c0.13438,-6.83696 0.75119,-11.52059 2.27993,-11.54942c1.52873,-0.02884 19.27085,14.07811 19.13647,20.91505c-0.13438,6.83696 -10.40747,12.35403 -11.93621,12.38286c-1.52873,0.02884 -9.61458,-14.91154 -9.48021,-21.74849z" fill="none" stroke="#000000"/><path d="M224.26727,10.30671c4.60781,-4.46015 12.73978,-1.2321 18.16327,7.21008c2.53587,3.94734 6.98186,6.51917 7.38365,10.52905c0.45752,4.5661 -7.178,9.22565 -9.63134,11.60036c-2.47726,2.3979 -5.67583,5.56938 -9.22181,3.9073c-3.0497,-1.42942 -2.70915,-5.98158 -5.21683,-9.88503c-5.42348,-8.44218 -6.08474,-18.90162 -1.47694,-23.36179z" fill="none" stroke="#000000"/></g><g stroke-width="2.5" stroke-linecap="butt"><path d="M240.87017,29.32517c6.52106,-2.10083 13.30672,-0.14179 16.0572,10.28317c1.28603,4.8744 5.10504,9.32392 4.09142,13.28438c-1.15422,4.50981 -7.44665,8.27702 -10.91863,9.39555c-3.50589,1.12945 -11.73649,3.99511 -14.92239,0.81289c-2.73999,-2.7368 -0.59346,-11.06482 -1.8652,-15.88507c-2.75048,-10.42496 1.03656,-15.79011 7.55761,-17.89092z" fill="#444444" stroke="#000000"/><path d="M233.37251,44.46394c-0.43003,-8.38344 2.2622,-12.42033 3.49588,-11.91699c0.85242,0.34778 1.40979,15.73033 7.47742,21.28516c3.33935,3.05711 8.69672,0.27344 11.78189,-3.06516c1.4383,-1.55643 1.22606,-4.26039 2.18387,-4.68624c1.13954,-0.50663 2.51154,6.70303 2.24429,7.35809c-1.84923,4.53251 -23.54242,11.31354 -25.3429,10.57898c-1.61282,-0.65803 -2.13273,-4.30928 -0.81442,-8.28853c0.15339,-0.46298 -0.24884,-1.16723 -0.05612,-1.63962c0.58214,-1.42683 -0.77236,-5.77413 -0.96993,-9.62568z" fill="#282828" stroke="none"/><path d="M234.55777,34.90783c2.60263,-6.37912 7.97709,-4.78195 9.6187,-4.1122c1.64161,0.66976 12.46743,16.31883 9.8648,22.69793c-2.60263,6.37911 -15.54898,6.89282 -17.19058,6.22304c-1.64161,-0.66976 -4.89555,-18.42968 -2.29292,-24.80879z" fill="#b7b7b7" stroke="#000000"/><path d="M243.56068,31.49543c0.69339,-1.69951 -6.58108,0.22725 -7.95973,7.56362c-1.17387,6.24666 0.67916,14.42899 2.35757,17.45895c0.6294,1.13619 9.50451,1.25916 11.85563,-1.40705c1.22867,-1.39333 0.80488,-6.2779 -1.25484,-11.67316c-2.84596,-7.4548 -6.39379,-12.74793 -5.97069,-12.5753c3.4012,1.38766 8.68589,11.48357 10.52368,20.27733c0.70883,3.39169 -0.83148,6.13324 -1.32712,7.3481c-1.78074,4.36464 -7.04498,6.34411 -11.75798,4.42125c-2.36151,-0.96347 -5.07405,-8.80639 -5.38192,-17.00195c-0.14059,-3.74261 -0.18069,-9.4279 1.14496,-12.3986c1.56495,-3.50694 7.2894,-0.83417 7.77041,-2.01314z" fill="#989898" stroke="none"/><path d="M234.31231,35.52236c2.60263,-6.37912 6.80006,-5.73492 8.44169,-5.06514c1.64161,0.66976 13.64447,17.27178 11.04183,23.65089c-2.60263,6.37911 -15.54898,6.89282 -17.19058,6.22304c-1.64161,-0.66976 -4.89555,-18.42968 -2.29292,-24.80879z" fill="none" stroke="#000000"/><path d="M239.8542,31.27991c6.52106,-2.10083 14.43434,-1.80906 17.1848,8.6159c1.28603,4.8744 5.10504,9.32392 4.09142,13.28438c-1.15422,4.50981 -7.44665,8.27702 -10.91863,9.39555c-3.50589,1.12945 -11.73649,3.99511 -14.92239,0.81289c-2.73999,-2.7368 -0.59346,-11.06482 -1.8652,-15.88507c-2.75048,-10.42496 -0.09106,-14.12284 6.43,-16.22366z" fill="none" stroke="#000000"/></g><g stroke-width="2.5"><g><path d="M224.26295,93.8009c-3.53818,-15.8799 8.47779,-36.85049 17.20384,-38.79475c5.39831,-1.20278 25.07592,-1.35278 33.91441,7.27267c5.44847,5.31714 12.81947,10.02316 14.16878,16.07912c3.53818,15.8799 -8.79338,35.57405 -17.51945,37.5183c-4.31751,0.96196 -14.91207,-4.76218 -24.48929,-9.09842c-9.77929,-4.42774 -21.49077,-4.95405 -23.27832,-12.9769z" fill="#444444" stroke="#000000" stroke-linecap="butt"/><path d="M224.50329,78.93708c0.34348,-0.84185 2.59358,-13.48044 9.46789,-19.70143c5.86196,-5.30487 15.83228,-4.3649 22.7387,-4.62858c16.41379,-0.62664 31.40654,20.46448 32.53519,20.92496c0.7553,0.30814 -9.76602,-11.2935 -22.1771,-16.71193c-6.05816,-2.64488 -13.60996,-1.65549 -18.5056,-1.26136c-3.81662,0.30727 -10.57748,1.27405 -12.78818,3.90141c-5.76174,6.84765 -8.12043,18.07819 -8.58241,19.21054c-1.33245,3.26585 0.9713,6.65725 -1.18918,5.7758c-2.16047,-0.88147 -2.83176,-4.24353 -1.49931,-7.50938z" fill="#282828" stroke="none" stroke-linecap="butt"/><path d="M247.82626,59.70354c1.75877,0.71757 8.08638,10.3011 16.8893,15.54719c7.86598,4.68774 18.25346,4.86026 20.4012,8.98414c1.63439,3.13815 -4.46797,10.4669 -5.02811,14.20561c-0.79808,5.32692 3.28513,6.8852 2.51703,8.76782c-2.80839,6.88342 -23.37229,-9.75072 -29.60254,-12.29261c-6.23023,-2.54191 -9.00421,-10.18262 -6.19583,-17.06604c2.80839,-6.88342 -5.21132,-20.68796 1.01893,-18.14609z" fill="#282828" stroke="none" stroke-linecap="butt"/><path d="M224.30206,93.53548c-3.53818,-15.8799 8.47779,-36.85049 17.20384,-38.79475c5.39831,-1.20278 25.07592,-1.35278 33.91441,7.27267c5.44847,5.31714 12.81947,10.02316 14.16878,16.07912c3.53818,15.8799 -8.79338,35.57405 -17.51945,37.5183c-4.31751,0.96196 -14.91207,-4.76218 -24.48929,-9.09843c-9.77929,-4.42774 -21.49077,-4.95405 -23.27832,-12.97689z" fill="none" stroke="#000000" stroke-linecap="butt"/><path d="M235.84628,75.37611c1.09968,-2.69537 4.47025,-12.18596 8.80731,-13.59256c5.05263,-1.6387 11.24563,5.09929 14.03937,6.23911c5.19183,2.11823 -1.66462,9.18876 -4.04543,15.02419c-2.38082,5.83544 -8.51965,8.84882 -13.71145,6.7306c-5.19183,-2.11823 -7.47059,-8.56593 -5.08977,-14.40137z" fill="#000000" stroke="#000000" stroke-linecap="butt"/><path d="M279.21283,95.79216c-1.82719,4.47851 -7.51724,6.39189 -12.70906,4.27365c-5.19183,-2.11823 -7.9194,-7.46593 -6.09219,-11.94443c1.82719,-4.47851 1.07119,-12.36025 6.26301,-10.24201c2.79374,1.13983 11.59018,1.49666 14.35537,5.46457c2.37357,3.40595 -0.97314,10.37962 -1.81712,12.44823z" data-paper-data="{&quot;index&quot;:null}" fill="#000000" stroke="#000000" stroke-linecap="butt"/><path d="M225.29228,94.28813c0.12324,-0.30209 -1.44803,-4.08513 -1.19182,-4.38706c0.91689,-1.08049 -1.71154,-6.47908 1.12627,-6.50033c6.39378,-0.04789 21.03851,7.13451 28.02456,9.98477c7.56384,3.086 23.75029,9.1717 27.24074,14.63152c1.56407,2.44653 -6.25215,5.71205 -6.73423,6.89364c-1.55793,3.81854 -14.67548,-4.50183 -25.62867,-8.97065c-10.95318,-4.46881 -24.39479,-7.83333 -22.83686,-11.65188z" fill="#b7b7b7" stroke="#000000" stroke-linecap="butt"/><path d="M225.27472,94.16874c0.18276,-0.44795 -2.48616,-10.31651 -1.49845,-10.38262c1.83012,-0.12251 4.28651,8.96388 8.92752,12.24413c5.21594,3.6866 12.6156,6.95329 18.27601,9.26269c5.0339,2.05378 11.68696,6.38633 17.21619,6.73068c5.14656,0.32055 9.2936,-3.30683 10.9286,-2.6153c1.28962,0.54545 -5.0209,3.97184 -5.26939,4.58089c-0.88774,2.1759 -10.35188,-1.10595 -23.49736,-6.40476c-0.21045,-0.08482 -1.18265,-0.90544 -1.39404,-0.99168c-13.41514,-5.47327 -24.59106,-10.21333 -23.6891,-12.42405z" fill="#989898" stroke="none" stroke-linecap="butt"/><path d="M225.18294,94.3866c0.12323,-0.30208 -1.44804,-4.08513 -1.19183,-4.38706c0.91689,-1.08049 -1.71154,-6.47908 1.12626,-6.50034c6.39378,-0.04789 21.03852,7.13452 28.02457,9.98477c7.56384,3.086 23.75028,9.1717 27.24074,14.63152c1.56407,2.44653 -6.25215,5.71205 -6.73423,6.89364c-1.55793,3.81854 -14.67548,-4.50183 -25.62867,-8.97065c-10.95318,-4.46881 -24.39478,-7.83333 -22.83685,-11.65187z" fill="none" stroke="#000000" stroke-linecap="butt"/><path d="M254.16667,93.05311c6.23023,2.54191 10.73247,5.94661 10.05599,7.60468c-0.67647,1.65805 -6.27547,0.94155 -12.50571,-1.60033c-6.23023,-2.54191 -10.73247,-5.94661 -10.05599,-7.60468c0.67647,-1.65805 6.27547,-0.94155 12.50571,1.60033z" fill="#000000" stroke="#000000" stroke-linecap="butt"/><path d="M229.27154,85.22943l3.72775,-0.81369l2.91119,1.18775l-3.59384,2.56625l-1.29545,2.65501" fill="none" stroke="#000000" stroke-linecap="round"/><path d="M240.16229,88.18714l-6.49049,-0.73793" fill="none" stroke="#000000" stroke-linecap="round"/><path d="M234.8829,91.76357l1.48469,-3.63899" fill="none" stroke="#000000" stroke-linecap="round"/><path d="M238.60567,88.2094l4.1703,3.82382" fill="none" stroke="#000000" stroke-linecap="round"/><path d="M239.238,89.9324l-2.55744,5.74816" fill="none" stroke="#000000" stroke-linecap="round"/><path d="M276.41385,96.61042l-0.81947,7.73066l-10.22991,-3.53703l0.89079,-2.1834" fill="none" stroke="#000000" stroke-linecap="round"/><path d="M274.66571,101.41533l-4.56768,-4.41041" fill="none" stroke="#000000" stroke-linecap="round"/><path d="M265.45039,104.23488l3.10328,-5.52543" fill="none" stroke="#000000" stroke-linecap="round"/><path d="M270.35861,101.5682l-3.36674,6.69137" fill="none" stroke="#000000" stroke-linecap="round"/><path d="M271.67015,107.19698l0.75689,-3.93593" fill="none" stroke="#000000" stroke-linecap="round"/><path d="M274.87388,102.98593l-0.51524,5.94462" fill="none" stroke="#000000" stroke-linecap="round"/></g><path d="M284.21571,76.44753l0.74235,-1.81951l2.52108,-0.45707" fill="none" stroke="#000000" stroke-linecap="round"/><path d="M253.55502,61.60358l-0.62734,1.01746l-1.2809,0.53857" fill="none" stroke="#000000" stroke-linecap="round"/></g><path d="M225.10135,114.03943l1.91897,-4.70343l33.06235,13.48919l-1.91897,4.70343z" fill="none" stroke="#000000" stroke-width="2.5" stroke-linecap="butt"/><path d="M225.75538,107.69035l2.20117,-5.39512l36.38243,14.84376l-2.20117,5.39512z" fill="none" stroke="#000000" stroke-width="2.5" stroke-linecap="butt"/><path d="M236.30763,106.34787l-1.83154,4.09366" fill="none" stroke="#000000" stroke-width="2.5" stroke-linecap="round"/><path d="M247.31589,115.35734l1.58032,-3.87341" fill="none" stroke="#000000" stroke-width="2.5" stroke-linecap="round"/><path d="M256.27676,119.49739l0.83775,-4.82184" fill="none" stroke="#000000" stroke-width="2.5" stroke-linecap="round"/><g><path d="M187.58768,177.94109c7.82541,-2.38285 15.9295,1.46648 18.10095,8.59769c2.17147,7.13122 -2.41196,14.84391 -10.23739,17.22676c-7.82542,2.38285 -15.9295,-1.46649 -18.10096,-8.59771c-2.17148,-7.13122 2.41196,-14.84391 10.23739,-17.22676z" fill="#444444" stroke="#000000" stroke-width="0" stroke-linecap="butt"/><path d="M182.58829,180.67364c4.41757,-1.34516 15.71588,-7.43615 17.63754,-1.12534c0.3224,1.05878 -5.44075,0.19591 -10.38889,2.44754c-4.69354,2.13578 -8.56307,7.37166 -9.07272,8.9927c-2.1556,6.85623 11.75641,11.63317 8.78299,12.53858c-4.41757,1.34515 -9.55653,-2.68031 -11.47818,-8.99114c-1.92166,-6.31083 0.1017,-12.51722 4.51927,-13.86237z" fill="#282828" stroke="none" stroke-width="0" stroke-linecap="butt"/><path d="M204.9427,186.73534c2.17148,7.13122 -2.41196,14.84391 -10.23739,17.22676c-7.82542,2.38285 -15.9295,-1.46647 -18.10095,-8.59769c-2.17148,-7.13122 2.41196,-14.84391 10.23739,-17.22676c7.82542,-2.38285 15.9295,1.46647 18.10095,8.59769z" fill="none" stroke="#000000" stroke-width="3.5" stroke-linecap="butt"/><g><path d="M181.97827,210.86415c5.93216,-1.80636 5.36474,-13.54609 6.2487,-10.64311c0.41315,1.35678 8.03539,2.30249 8.01247,6.6988c-0.02613,5.01002 -7.90047,13.49482 -11.06007,14.45693c-5.93217,1.80635 -11.45772,0.91737 -12.34169,-1.98561c-0.88397,-2.90298 3.20841,-6.72065 9.1406,-8.52701z" fill="#840000" stroke="#000000" stroke-width="0" stroke-linecap="butt"/><path d="M187.97473,201.81226c1.96966,-2.49915 4.54463,0.01341 4.72798,0.61554c0.49963,1.64082 -11.07489,18.35583 -13.53611,19.10527c-2.46122,0.74945 -4.86146,0.02684 -5.36109,-1.61397c-0.49963,-1.64081 0.63537,-3.85807 3.09659,-4.60753c1.55804,-0.47442 7.37201,-8.80389 11.07263,-13.49932z" fill="#430000" stroke="none" stroke-width="0" stroke-linecap="butt"/><path d="M188.23595,199.93863c0.41315,1.35678 8.03539,2.30249 8.01247,6.6988c-0.02613,5.01002 -7.90047,13.49482 -11.06007,14.45693c-5.93216,1.80636 -11.45773,0.91737 -12.34169,-1.98561c-0.88396,-2.90297 3.20843,-6.72063 9.14059,-8.52699c5.93216,-1.80636 5.36475,-13.54609 6.2487,-10.64311z" fill="none" stroke="#000000" stroke-width="3.5" stroke-linecap="butt"/><path d="M190.13863,216.83999l-6.41007,-6.28905" fill="none" stroke="#000000" stroke-width="3.5" stroke-linecap="round"/></g><g data-paper-data="{&quot;index&quot;:null}"><path d="M170.77784,195.53547c-4.24367,4.52162 -9.47758,6.50359 -11.69028,4.42691c-2.21271,-2.0767 -0.56628,-7.42564 3.6774,-11.94725c2.26028,-2.4083 13.3527,-5.7182 17.85766,-3.5259c3.95312,1.92376 1.4303,9.17829 2.46444,10.14889c2.21271,2.0767 -8.06557,-3.62425 -12.30923,0.89734z" fill="#840000" stroke="#000000" stroke-width="0" stroke-linecap="butt"/><path d="M164.54399,198.12129c-1.76066,1.87598 -4.25126,1.91334 -5.50193,0.73957c-1.25066,-1.17378 -0.83722,-3.64609 0.92345,-5.52208c1.76066,-1.87598 21.87108,-4.86461 23.12175,-3.69082c0.45894,0.43074 1.57363,3.85141 -1.53893,4.51268c-5.8479,1.24243 -15.88978,2.77309 -17.00435,3.96066z" fill="#430000" stroke="none" stroke-width="0" stroke-linecap="butt"/><path d="M171.03509,195.65232c-4.24367,4.5216 -9.47758,6.50359 -11.69027,4.42691c-2.2127,-2.07669 -0.56627,-7.42565 3.6774,-11.94725c2.26028,-2.4083 13.3527,-5.7182 17.85766,-3.5259c3.95312,1.92376 1.4303,9.17829 2.46444,10.14889c2.2127,2.07669 -8.06557,-3.62425 -12.30923,0.89734z" fill="none" stroke="#000000" stroke-width="3.5" stroke-linecap="butt"/><path d="M169.02719,185.57367l2.80564,8.53051" fill="none" stroke="#000000" stroke-width="3.5" stroke-linecap="round"/></g><g data-paper-data="{&quot;index&quot;:null}"><path d="M174.2958,205.80251c-2.23268,5.78522 -6.33765,9.58935 -9.16871,8.49676c-2.83107,-1.09258 -3.31616,-6.66814 -1.08349,-12.45336c1.18917,-3.08133 10.22379,-10.31828 15.22246,-9.98024c4.38635,0.29663 4.77564,7.96744 6.09882,8.47809c2.83107,1.09258 -8.8364,-0.32647 -11.06909,5.45874z" fill="#840000" stroke="#000000" stroke-width="0" stroke-linecap="butt"/><path d="M169.49123,210.54205c-0.92632,2.40026 -3.22021,3.37112 -4.82037,2.75356c-1.60017,-0.61754 -2.14643,-3.06395 -1.22011,-5.46419c0.92632,-2.40026 18.43825,-12.72948 20.03843,-12.11193c0.58721,0.22663 2.90602,2.97736 0.27033,4.76019c-4.95193,3.34961 -13.68188,8.5429 -14.26827,10.06233z" fill="#430000" stroke="none" stroke-width="0" stroke-linecap="butt"/><path d="M174.57811,205.81407c-2.23267,5.78521 -6.33765,9.58935 -9.16869,8.49677c-2.83105,-1.09257 -3.31615,-6.66813 -1.08349,-12.45336c1.18917,-3.08133 10.22379,-10.31828 15.22246,-9.98024c4.38635,0.29663 4.77564,7.96744 6.09882,8.47809c2.83105,1.09257 -8.8364,-0.32647 -11.06909,5.45874z" fill="none" stroke="#000000" stroke-width="3.5" stroke-linecap="butt"/><path d="M168.92876,197.22944l5.80659,6.85015" fill="none" stroke="#000000" stroke-width="3.5" stroke-linecap="round"/></g><g><path d="M168.7939,181.7678c-5.06873,3.57236 -10.59489,4.45755 -12.34306,1.97709c-1.74817,-2.48043 0.94365,-7.38718 6.01237,-10.95953c2.69973,-1.90271 14.23184,-2.9064 18.2018,0.1498c3.48366,2.68181 -0.45105,9.27812 0.36601,10.43741c1.74817,2.48043 -7.16841,-5.17712 -12.2371,-1.60477z" fill="#444444" stroke="#000000" stroke-width="0" stroke-linecap="butt"/><path d="M162.31992,183.51925c-2.10298,1.48214 -4.70329,0.53958 -5.6914,-0.86241c-0.98809,-1.40198 -0.08433,-3.74004 2.01867,-5.22218c2.10298,-1.48214 22.4028,-0.35161 23.39091,1.05038c0.3626,0.51448 0.76416,4.0897 -2.41781,4.10936c-5.97832,0.03693 -15.35036,-0.39817 -16.68161,0.54008z" fill="#282828" stroke="none" stroke-width="0" stroke-linecap="butt"/><path d="M169.02228,181.93414c-5.0687,3.57236 -10.59489,4.45755 -12.34306,1.9771c-1.74816,-2.48043 0.94366,-7.38719 6.01237,-10.95953c2.69973,-1.90271 14.23184,-2.9064 18.2018,0.1498c3.48366,2.68181 -0.45105,9.27812 0.36601,10.43741c1.74816,2.48043 -7.16841,-5.17712 -12.2371,-1.60477z" fill="none" stroke="#000000" stroke-width="3.5" stroke-linecap="butt"/><path d="M170.11598,180.57879l-1.02671,-8.92116" fill="none" stroke="#000000" stroke-width="3.5" stroke-linecap="round"/></g><g><path d="M170.23941,194.84408c-3.78458,4.91229 -8.80131,7.39313 -11.20519,5.54108c-2.4039,-1.85202 -1.28463,-7.33558 2.49996,-12.24786c2.01574,-2.61639 12.73438,-6.98771 17.43093,-5.24319c4.12123,1.53083 2.31472,8.99604 3.43825,9.86165c2.4039,1.85202 -8.37936,-2.82398 -12.16392,2.0883z" fill="#444444" stroke="#000000" stroke-width="0" stroke-linecap="butt"/><path d="M164.57368,198.43287c-1.57019,2.03807 -4.33297,1.9072 -5.6917,0.86041c-1.35872,-1.04679 -1.18729,-3.54758 0.3829,-5.58566c1.57019,-2.03807 21.2954,-6.96527 22.65412,-5.91847c0.4986,0.38414 1.94016,3.6804 -1.09348,4.64078c-5.69964,1.80439 -14.78069,4.16212 -15.77469,5.45229z" fill="#282828" stroke="none" stroke-width="0" stroke-linecap="butt"/><path d="M170.50678,194.9354c-3.78457,4.91229 -8.80131,7.39313 -11.20521,5.5411c-2.40389,-1.85202 -1.28462,-7.33559 2.49996,-12.24786c2.01574,-2.61639 12.73438,-6.98771 17.43093,-5.24319c4.12123,1.53083 2.31472,8.99604 3.43825,9.86165c2.40389,1.85202 -8.37936,-2.82398 -12.16392,2.0883z" fill="none" stroke="#000000" stroke-width="3.5" stroke-linecap="butt"/><path d="M167.52975,185.09933l3.62066,8.21779" fill="none" stroke="#000000" stroke-width="3.5" stroke-linecap="round"/></g><g><path d="M174.10468,205.58751c-1.72275,5.957 -5.48248,10.10265 -8.39761,9.25961c-2.91513,-0.84304 -3.88173,-6.35556 -2.15898,-12.31254c0.91758,-3.17282 9.2908,-11.16572 14.29996,-11.26231c4.39555,-0.08475 5.44836,7.52345 6.81082,7.91747c2.91513,0.84304 -8.83143,0.44079 -10.55418,6.39777z" fill="#444444" stroke="#000000" stroke-width="0" stroke-linecap="butt"/><path d="M170.14679,211.00183c-0.71475,2.47153 -3.33355,3.36149 -4.98122,2.885c-1.64768,-0.4765 -2.40396,-2.86635 -1.6892,-5.33787c0.71475,-2.47153 17.26531,-14.27997 18.913,-13.80347c0.60464,0.17486 3.15318,2.71423 0.68198,4.71885c-4.64292,3.76631 -12.22971,9.28581 -12.68219,10.85036z" fill="#282828" stroke="none" stroke-width="0" stroke-linecap="butt"/><path d="M174.38694,205.57457c-1.72274,5.95698 -5.48248,10.10265 -8.3976,9.25962c-2.91513,-0.84304 -3.88174,-6.35557 -2.15898,-12.31254c0.91758,-3.17282 9.2908,-11.16572 14.29996,-11.26231c4.39555,-0.08475 5.44836,7.52345 6.81082,7.91747c2.91513,0.84304 -8.83143,0.44079 -10.55418,6.39777z" fill="none" stroke="#000000" stroke-width="3.5" stroke-linecap="butt"/><path d="M174.39323,203.83299l-6.37857,-6.321" fill="none" stroke="#000000" stroke-width="3.5" stroke-linecap="round"/></g><g data-paper-data="{&quot;index&quot;:null}"><path d="M181.71881,211.64208c6.07581,-1.24012 6.61561,-12.98119 7.22249,-10.0079c0.28363,1.38964 7.78306,3.04842 7.34656,7.42305c-0.49745,4.98533 -9.13526,12.69152 -12.3714,13.35206c-6.07583,1.24012 -11.49321,-0.16484 -12.10009,-3.13812c-0.60689,-2.97328 3.82658,-6.38892 9.9024,-7.62904z" fill="#444444" stroke="#000000" stroke-width="0" stroke-linecap="butt"/><path d="M176.70921,214.96709c1.59577,-0.32571 7.70516,-7.44609 11.83121,-11.77247c2.19609,-2.30272 4.52321,0.441 4.64907,1.05772c0.343,1.68055 -12.75302,17.23223 -15.27383,17.74676c-2.52082,0.51452 -4.84241,-0.43074 -5.18542,-2.11128c-0.343,-1.68055 0.75383,-4.21965 3.27465,-4.73417z" fill="#282828" stroke="none" stroke-width="0" stroke-linecap="butt"/><path d="M181.75429,211.36177c6.07581,-1.24012 6.61561,-12.98117 7.22248,-10.00788c0.28363,1.38964 7.78307,3.04841 7.34657,7.42304c-0.49745,4.98533 -9.13526,12.69152 -12.3714,13.35206c-6.07582,1.24012 -11.49322,-0.16487 -12.10009,-3.13812c-0.60687,-2.97328 3.82659,-6.38892 9.90241,-7.62905z" fill="none" stroke="#000000" stroke-width="3.5" stroke-linecap="butt"/><path d="M189.28061,218.35931l-5.78985,-6.86433" fill="none" stroke="#000000" stroke-width="3.5" stroke-linecap="round"/></g></g></g></g></svg>