<svg version="1.1" xmlns="http://www.w3.org/2000/svg" xmlns:xlink="http://www.w3.org/1999/xlink" width="159.41787" height="300.80702" viewBox="0,0,159.41787,300.80702"><g transform="translate(-163.28072,-28.86494)"><g data-paper-data="{&quot;isPaintingLayer&quot;:true}" fill-rule="nonzero" stroke-linejoin="miter" stroke-miterlimit="10" stroke-dasharray="" stroke-dashoffset="0" style="mix-blend-mode: normal"><g><g data-paper-data="{&quot;index&quot;:null}" stroke-linecap="butt"><g><g><path d="M291.49063,146.42216l4.10992,42.59481l-17.24757,1.93494l-4.10991,-42.5948z" fill="#252525" stroke="#000000" stroke-width="0"/><path d="M291.49063,146.42216l4.10992,42.59481l-17.24757,1.93494l-4.10991,-42.5948z" fill="#252525" stroke="#000000" stroke-width="0"/><path d="M295.19271,185.96016c0.29872,3.09608 -1.74074,-15.02721 -3.46026,-21.78778c-1.64009,-6.44832 -2.92736,-1.48391 -4.1113,-1.35109c-1.15103,0.12914 -6.83653,-7.60842 -8.8588,1.03459c-1.228,5.2484 1.29778,29.66295 0.09489,27.77442c-0.98994,-1.55419 -4.32523,-41.57496 -4.46366,-43.0097c-0.16533,-1.71343 0.55308,-0.11562 1.73376,-0.41369c2.98763,-0.75424 8.89454,-0.59683 10.63281,-0.79184c1.55861,-0.17485 2.74959,-8.87298 5.0742,4.30119c1.29248,7.32474 3.1498,32.08241 3.35836,34.2439z" fill="#141414" stroke="none" stroke-width="0"/><path d="M291.49063,146.42216l4.10992,42.59481l-17.24757,1.93494l-4.10991,-42.5948z" fill="none" stroke="#000000" stroke-width="3.5"/><path d="M291.49063,146.42216l4.10992,42.59481l-17.24757,1.93494l-4.10991,-42.5948z" fill="none" stroke="#000000" stroke-width="3.5"/></g><g><path d="M297.22642,165.16288l0.83214,8.62414l-25.19849,2.8269l-0.83213,-8.62415z" fill="#252525" stroke="#000000" stroke-width="0"/><path d="M297.22642,165.16288l0.83214,8.62414l-25.19849,2.8269l-0.83213,-8.62415z" fill="#252525" stroke="#000000" stroke-width="0"/><path d="M297.83545,173.18386c0.06049,0.62686 -0.7145,-3.00192 -2.39136,-4.22167c-1.5994,-1.16341 -4.05912,0.08843 -5.78883,0.28249c-1.68164,0.18866 -8.98196,-0.68811 -12.94749,1.46078c-2.40803,1.30491 -1.68491,6.22434 -3.19923,5.98453c-1.24623,-0.19735 -1.26634,-8.37383 -1.29437,-8.66433c-0.11817,-1.22477 13.46995,-2.81875 17.01315,-3.21625c2.27713,-0.25545 6.0784,-1.0715 7.86067,1.4487c0.99092,1.40122 0.70525,6.48811 0.74748,6.92577z" fill="#141414" stroke="none" stroke-width="0"/><path d="M297.22642,165.16288l0.83214,8.62414l-25.19849,2.8269l-0.83213,-8.62415z" fill="none" stroke="#000000" stroke-width="3.5"/><path d="M297.22642,165.16288l0.83214,8.62414l-25.19849,2.8269l-0.83213,-8.62415z" fill="none" stroke="#000000" stroke-width="3.5"/></g><g><path d="M297.40452,151.31941l0.83213,8.62415l-28.46925,3.19385l-0.83214,-8.62416z" fill="#252525" stroke="#000000" stroke-width="0"/><path d="M297.40452,151.31941l0.83213,8.62415l-28.46925,3.19385l-0.83214,-8.62416z" fill="#252525" stroke="#000000" stroke-width="0"/><path d="M295.34623,155.14973c-1.79037,-1.14199 -4.58145,0.14704 -6.53568,0.36628c-1.89994,0.21314 -10.1268,-0.55969 -14.62817,1.6493c-2.73342,1.34139 -1.97841,6.25729 -3.6842,6.03895c-1.4038,-0.17967 -1.3252,-8.36723 -1.35323,-8.65773c-0.11817,-1.22477 15.23454,-3.01672 19.23765,-3.46581c2.5727,-0.28862 6.87222,-1.16059 8.85211,1.33748c1.10081,1.3889 0.71542,6.48699 0.75765,6.92463c0.06048,0.62685 -0.76905,-2.99579 -2.64612,-4.19309z" fill="#141414" stroke="none" stroke-width="0"/><path d="M297.40452,151.31941l0.83213,8.62415l-28.46925,3.19385l-0.83214,-8.62416z" fill="none" stroke="#000000" stroke-width="3.5"/><path d="M297.40452,151.31941l0.83213,8.62415l-28.46925,3.19385l-0.83214,-8.62416z" fill="none" stroke="#000000" stroke-width="3.5"/></g></g><g><path d="M300.48404,181.62631l0.95572,9.9051l-29.40376,3.29868l-0.95572,-9.90511z" fill="#252525" stroke="#000000" stroke-width="0"/><path d="M300.48404,181.62631l0.95572,9.9051l-29.40376,3.29868l-0.95572,-9.90511z" fill="#252525" stroke="#000000" stroke-width="0"/><path d="M298.39796,185.99432c-1.86398,-1.33319 -4.73588,0.10985 -6.75426,0.33629c-1.96228,0.22014 -10.47795,-0.77216 -15.10826,1.7044c-2.81171,1.50386 -1.97668,7.15352 -3.74301,6.88112c-1.45361,-0.22416 -1.46274,-9.61668 -1.49494,-9.95033c-0.13574,-1.40668 15.72018,-3.26543 19.85468,-3.72926c2.65714,-0.29809 7.09349,-1.24326 9.16842,1.64816c1.15365,1.6076 0.81143,7.45166 0.85993,7.9543c0.06947,0.71997 -0.82834,-3.44694 -2.78257,-4.84469z" fill="#141414" stroke="none" stroke-width="0"/><path d="M300.48404,181.62631l0.95572,9.9051l-29.40376,3.29868l-0.95572,-9.90511z" fill="none" stroke="#000000" stroke-width="3.5"/><path d="M300.48404,181.62631l0.95572,9.9051l-29.40376,3.29868l-0.95572,-9.90511z" fill="none" stroke="#000000" stroke-width="3.5"/></g></g><g data-paper-data="{&quot;index&quot;:null}" stroke-linecap="butt"><g><g><path d="M274.64597,153.0536l-17.5936,-43.80241l15.94002,-8.05721l17.5936,43.80242z" fill="#252525" stroke="#000000" stroke-width="0"/><path d="M274.64597,153.0536l-17.5936,-43.80241l15.94002,-8.05721l17.5936,43.80242z" fill="#252525" stroke="#000000" stroke-width="0"/><path d="M274.15696,104.40248c0.89279,2.22278 11.58043,27.37608 14.09722,35.246c4.52665,14.15475 -0.82922,6.38001 -2.26969,7.10813c-1.6065,0.81203 -6.65815,4.36916 -9.62749,5.3572c-1.17344,0.39045 -1.00351,2.35872 -1.71124,0.59672c-0.59262,-1.47542 -17.58005,-42.32756 -17.49253,-44.40988c0.10634,-2.53026 10.043,22.67448 13.71708,27.07217c6.05043,7.24208 7.14368,-3.56104 8.20746,-4.09875c1.09419,-0.55308 4.67864,3.53422 2.89919,-3.68352c-1.86562,-7.56725 -9.09884,-26.37192 -7.82001,-23.18808z" fill="#141414" stroke="none" stroke-width="0"/><path d="M274.64597,153.0536l-17.5936,-43.80241l15.94002,-8.05721l17.5936,43.80242z" fill="none" stroke="#000000" stroke-width="3.5"/><path d="M274.64597,153.0536l-17.5936,-43.80241l15.94002,-8.05721l17.5936,43.80242z" fill="none" stroke="#000000" stroke-width="3.5"/></g><g><path d="M262.9679,135.23249l-3.56217,-8.86864l23.28819,-11.7715l3.56217,8.86866z" fill="#252525" stroke="#000000" stroke-width="0"/><path d="M262.9679,135.23249l-3.56217,-8.86864l23.28819,-11.7715l3.56217,8.86866z" fill="#252525" stroke="#000000" stroke-width="0"/><path d="M282.79982,115.30764c0.18076,0.45006 2.95626,5.23368 2.79187,7.16776c-0.29566,3.47862 -4.00235,4.87538 -6.10683,5.93916c-3.27458,1.6552 -15.86717,7.9352 -16.37305,6.67571c-0.11999,-0.29873 -4.16493,-8.26396 -3.1807,-9.17412c1.19597,-1.10594 3.01216,4.09613 5.75173,3.97778c4.51153,-0.19494 10.41588,-5.25482 11.97005,-6.04041c1.59859,-0.80804 4.3567,-1.00779 5.16766,-3.06119c0.85024,-2.15283 -0.27965,-6.12935 -0.02073,-5.4847z" fill="#141414" stroke="none" stroke-width="0"/><path d="M262.9679,135.23249l-3.56217,-8.86864l23.28819,-11.7715l3.56217,8.86866z" fill="none" stroke="#000000" stroke-width="3.5"/><path d="M262.9679,135.23249l-3.56217,-8.86864l23.28819,-11.7715l3.56217,8.86866z" fill="none" stroke="#000000" stroke-width="3.5"/></g><g><path d="M266.97776,150.12397l-3.56218,-8.86866l26.31099,-13.29943l3.56218,8.86866z" fill="#252525" stroke="#000000" stroke-width="0"/><path d="M266.97776,150.12397l-3.56218,-8.86866l26.31099,-13.29943l3.56218,8.86866z" fill="#252525" stroke="#000000" stroke-width="0"/><path d="M289.81291,128.68106c0.18076,0.45006 3.04841,5.18711 2.78247,7.17252c-0.47831,3.57095 -4.64546,5.20047 -7.02312,6.40231c-3.69963,1.87006 -17.92302,8.97438 -18.42892,7.71489c-0.11999,-0.29873 -4.25617,-8.21785 -3.1263,-9.20161c1.37293,-1.1954 3.15965,4.02162 6.19995,3.75124c5.00675,-0.44526 11.7674,-5.93799 13.52331,-6.82555c1.80608,-0.91292 4.87044,-1.26748 5.85791,-3.41009c1.03528,-2.24638 -0.0442,-6.24834 0.21472,-5.60371z" fill="#141414" stroke="none" stroke-width="0"/><path d="M266.97776,150.12397l-3.56218,-8.86866l26.31099,-13.29943l3.56218,8.86866z" fill="none" stroke="#000000" stroke-width="3.5"/><path d="M266.97776,150.12397l-3.56218,-8.86866l26.31099,-13.29943l3.56218,8.86866z" fill="none" stroke="#000000" stroke-width="3.5"/></g></g><g><path d="M253.7308,119.30492l-4.09126,-10.18593l27.17465,-13.73598l4.09126,10.18593z" fill="#252525" stroke="#000000" stroke-width="0"/><path d="M253.7308,119.30492l-4.09126,-10.18593l27.17465,-13.73598l4.09126,10.18593z" fill="#252525" stroke="#000000" stroke-width="0"/><path d="M276.93306,96.20595c0.20761,0.51689 3.40838,6.00448 3.20523,8.23309c-0.36541,4.00836 -4.68774,5.64551 -7.14346,6.8868c-3.82107,1.93143 -18.51465,9.26077 -19.09569,7.8142c-0.13781,-0.34311 -4.79647,-9.48492 -3.64544,-10.54065c1.39863,-1.28286 3.48042,4.69403 6.66944,4.53658c5.25167,-0.25929 12.15407,-6.13193 13.9676,-7.04862c1.86538,-0.94289 5.07645,-1.19419 6.03284,-3.56521c1.00269,-2.48584 -0.28789,-7.05657 0.00947,-6.31619z" fill="#141414" stroke="none" stroke-width="0"/><path d="M253.7308,119.30492l-4.09126,-10.18593l27.17465,-13.73598l4.09126,10.18593z" fill="none" stroke="#000000" stroke-width="3.5"/><path d="M253.7308,119.30492l-4.09126,-10.18593l27.17465,-13.73598l4.09126,10.18593z" fill="none" stroke="#000000" stroke-width="3.5"/></g></g><g data-paper-data="{&quot;index&quot;:null}"><g stroke-linecap="butt"><path d="M266.32344,232.18046l7.20525,-22.59568l9.89731,1.69237l-7.20526,22.59567z" fill="#252525" stroke="#000000" stroke-width="0"/><path d="M266.32344,232.18046l7.20525,-22.59568l9.89731,1.69237l-7.20526,22.59567z" fill="#252525" stroke="#000000" stroke-width="0"/><path d="M266.32344,232.18046l7.20525,-22.59568l9.89731,1.69237l-7.20526,22.59567z" fill="none" stroke="#000000" stroke-width="3.5"/><path d="M282.84271,212.8944c-0.36564,1.14665 -4.24189,14.30037 -5.82443,18.16362c-2.84633,6.94837 -1.76142,2.22707 -2.65584,2.07413c-1.39167,-0.23794 -8.94434,2.12225 -7.92108,-1.0867c0.2427,-0.7611 6.70391,-22.0114 7.45942,-22.80379c0.91805,-0.96286 -3.31161,11.98212 -3.18224,14.83251c0.10218,2.25159 3.16427,2.87817 5.43389,0.55192c2.46205,-2.52348 4.15497,-8.11729 4.49867,-8.05851c0.67938,0.11616 -3.97815,11.21477 -2.29039,7.83293c1.76949,-3.54561 5.00572,-13.1485 4.48199,-11.50611z" fill="#141414" stroke="none" stroke-width="0"/><path d="M266.32344,232.18046l7.20525,-22.59568l9.89731,1.69237l-7.20526,22.59567z" fill="none" stroke="#000000" stroke-width="3.5"/></g><path d="M270.92478,220.69841l8.06361,1.75957" fill="none" stroke="#000000" stroke-width="3.5" stroke-linecap="round"/></g><g stroke-linecap="butt"><path d="M281.49231,222.26415l-5.74116,-24.64039l27.60756,-6.43249l5.74116,24.64039z" fill="#252525" stroke="#000000" stroke-width="0"/><path d="M279.94265,219.66758c-0.83833,-3.59806 -7.85742,-21.08706 -0.16255,-22.87994c1.95852,-0.45632 0.70971,18.30174 3.73013,19.19822c2.79653,0.83002 10.36591,1.10124 15.97264,-3.25064c0.97324,-0.75542 2.83908,-3.808 3.01147,-8.61174c0.16701,-4.65355 -1.35439,-11.05296 -0.76041,-12.34608c0.70247,-1.52931 3.62484,10.57696 4.23918,10.21054c0.99757,-0.59497 0.84443,2.01308 0.99462,2.38318c0.44148,1.0879 -1.23319,2.64784 -0.82902,3.37205c0.14931,0.26756 1.78935,5.36241 1.85863,5.65974c0.83834,3.59807 -6.83039,5.33177 -14.52526,7.12464c-7.69486,1.79288 -12.69109,2.73807 -13.52943,-0.86z" fill="#141414" stroke="none" stroke-width="0"/><path d="M281.34191,222.17059l-5.74116,-24.64039l27.60755,-6.43249l5.74116,24.64039z" fill="none" stroke="#000000" stroke-width="3.5"/></g><g><g stroke-linecap="butt"><path d="M281.78515,241.94657l-1.33818,-23.67889l10.00648,0.8312l1.33817,23.67889z" fill="#252525" stroke="#000000" stroke-width="0"/><path d="M281.78515,241.94657l-1.33818,-23.67889l10.00648,0.8312l1.33817,23.67889z" fill="#252525" stroke="#000000" stroke-width="0"/><path d="M281.78515,241.94657l-1.33818,-23.67889l10.00648,0.8312l1.33817,23.67889z" fill="none" stroke="#000000" stroke-width="3.5"/><path d="M282.07683,232.2399c0.79037,3.69605 -0.94999,-8.21375 -0.2631,-8.15667c0.34747,0.02887 0.59082,5.86816 2.34519,8.92623c1.61726,2.81905 4.73884,2.97648 5.3997,0.82165c0.83664,-2.72792 -0.02859,-16.31884 0.62013,-15.15734c0.53386,0.95588 1.4873,23.14626 1.53238,23.94384c0.19005,3.36279 -6.53461,-0.80761 -7.94164,-0.92451c-0.90426,-0.07513 -1.03198,4.76756 -2.05417,-2.67131c-0.56833,-4.13596 -1.03922,-17.84084 -1.10713,-19.04245c-0.09727,-1.72113 0.64001,8.38555 1.46866,12.26056z" fill="#141414" stroke="none" stroke-width="0"/><path d="M281.78515,241.94657l-1.33818,-23.67889l10.00648,0.8312l1.33817,23.67889z" fill="none" stroke="#000000" stroke-width="3.5"/></g><path d="M290.20139,230.51072l-8.24759,-0.30852" fill="none" stroke="#000000" stroke-width="3.5" stroke-linecap="round"/></g><g><g stroke-linecap="butt"><path d="M297.09632,241.57169l-6.31883,-22.85941l9.95576,-1.30521l6.31883,22.85941z" fill="#252525" stroke="#000000" stroke-width="0"/><path d="M297.09632,241.57169l-6.31883,-22.85941l9.95576,-1.30521l6.31883,22.85941z" fill="#252525" stroke="#000000" stroke-width="0"/><path d="M297.09632,241.57169l-6.31883,-22.85941l9.95576,-1.30521l6.31883,22.85941z" fill="none" stroke="#000000" stroke-width="3.5"/><path d="M295.32726,232.02313c1.55462,3.44507 -2.66669,-7.82668 -1.98328,-7.91626c0.34571,-0.04533 1.81928,5.61023 4.18106,8.22777c2.17719,2.41297 5.26139,1.90624 5.45127,-0.33964c0.2404,-2.84319 -3.48135,-15.94319 -2.60153,-14.94529c0.72405,0.82125 6.35186,22.30728 6.56469,23.07728c0.89738,3.24641 -6.55752,0.59354 -7.95742,0.77706c-0.89969,0.11793 0.00032,4.87796 -2.57295,-2.1761c-1.43072,-3.92201 -4.79119,-17.21686 -5.11185,-18.37688c-0.45929,-1.66156 2.40009,8.06019 4.02998,11.67209z" fill="#141414" stroke="none" stroke-width="0"/><path d="M297.09632,241.57169l-6.31883,-22.85941l9.95576,-1.30521l6.31883,22.85941z" fill="none" stroke="#000000" stroke-width="3.5"/></g><path d="M294.77579,230.05762l8.12608,-1.44384" fill="none" stroke="#000000" stroke-width="3.5" stroke-linecap="round"/></g><g data-paper-data="{&quot;index&quot;:null}"><g stroke-linecap="butt"><path d="M311.8651,238.09322l-9.16958,-21.87234l8.63122,-5.13055l9.16959,21.87234z" fill="#252525" stroke="#000000" stroke-width="0"/><path d="M311.8651,238.09322l-9.16958,-21.87234l8.63122,-5.13055l9.16959,21.87234z" fill="#252525" stroke="#000000" stroke-width="0"/><path d="M311.8651,238.09322l-9.16958,-21.87234l8.63122,-5.13055l9.16959,21.87234z" fill="none" stroke="#000000" stroke-width="3.5"/><path d="M311.93161,212.69964c0.46532,1.10993 6.04544,13.63621 7.34631,17.60319c2.3397,7.13494 0.10356,2.83755 -0.67643,3.30121c-1.21364,0.72142 -5.43192,7.41617 -6.73415,4.30992c-0.30887,-0.73674 -9.17228,-21.10244 -9.11109,-22.19558c0.07437,-1.32829 5.25009,11.26828 7.19714,13.35405c1.53801,1.6476 4.2752,0.13867 4.49414,-3.10396c0.23751,-3.51756 -2.10165,-8.8734 -1.80194,-9.05156c0.59248,-0.35219 4.24507,11.11648 3.33652,7.4477c-0.95254,-3.84643 -4.71701,-13.2548 -4.0505,-11.66498z" fill="#141414" stroke="none" stroke-width="0"/><path d="M311.8651,238.09322l-9.16958,-21.87234l8.63122,-5.13055l9.16959,21.87234z" fill="none" stroke="#000000" stroke-width="3.5"/></g><path d="M307.92106,226.36913l7.27903,-3.8902" fill="none" stroke="#000000" stroke-width="3.5" stroke-linecap="round"/></g></g><g><g><g data-paper-data="{&quot;index&quot;:null}" stroke-linecap="butt"><g><g><path d="M250.79189,308.95002l-6.40718,-46.76681l17.42142,-3.93666l6.40718,46.76682z" fill="#252525" stroke="#000000" stroke-width="0"/><path d="M250.79189,308.95002l-6.40718,-46.76681l17.42142,-3.93666l6.40718,46.76682z" fill="#252525" stroke="#000000" stroke-width="0"/><path d="M262.15503,261.64198c0.32513,2.3732 4.57146,29.37104 5.09776,37.61682c0.94659,14.83076 -2.35665,5.98651 -3.93098,6.34226c-1.75579,0.39675 -7.52114,2.61784 -10.64164,2.85371c-1.23318,0.09321 -1.54726,2.04368 -1.805,0.16242c-0.21582,-1.57527 -6.75288,-45.33298 -6.16134,-47.33143c0.7188,-2.42835 4.22419,24.43665 6.71783,29.59614c4.10652,8.49659 7.79545,-1.71587 8.95809,-1.97859c1.19588,-0.27023 3.67811,4.56638 3.7083,-2.86741c0.03166,-7.79377 -2.40876,-27.79325 -1.94304,-24.39393z" fill="#141414" stroke="none" stroke-width="0"/><path d="M250.79189,308.95002l-6.40718,-46.76681l17.42142,-3.93666l6.40718,46.76682z" fill="none" stroke="#000000" stroke-width="3.5"/><path d="M250.79189,308.95002l-6.40718,-46.76681l17.42142,-3.93666l6.40718,46.76682z" fill="none" stroke="#000000" stroke-width="3.5"/></g><g><path d="M243.80089,288.82304l-1.29726,-9.46884l25.45249,-5.75142l1.29725,9.46886z" fill="#252525" stroke="#000000" stroke-width="0"/><path d="M243.80089,288.82304l-1.29726,-9.46884l25.45249,-5.75142l1.29725,9.46886z" fill="#252525" stroke="#000000" stroke-width="0"/><path d="M267.88479,274.32234c0.06583,0.48051 1.594,5.79569 0.96396,7.63165c-1.13317,3.30214 -5.06831,3.75505 -7.36838,4.27481c-3.57891,0.80871 -17.32106,3.83605 -17.5053,2.49132c-0.0437,-0.31895 -2.02903,-9.029 -0.85294,-9.67232c1.42912,-0.78172 1.92499,4.70594 4.61104,5.25772c4.42338,0.90864 11.38143,-2.56259 13.08003,-2.94642c1.74716,-0.3948 4.47097,0.08254 5.75719,-1.71184c1.3485,-1.88126 1.2201,-6.01319 1.31439,-5.32492z" fill="#141414" stroke="none" stroke-width="0"/><path d="M243.80089,288.82304l-1.29726,-9.46884l25.45249,-5.75142l1.29725,9.46886z" fill="none" stroke="#000000" stroke-width="3.5"/><path d="M243.80089,288.82304l-1.29726,-9.46884l25.45249,-5.75142l1.29725,9.46886z" fill="none" stroke="#000000" stroke-width="3.5"/></g><g><path d="M244.06695,304.24266l-1.29726,-9.46886l28.75621,-6.49795l1.29726,9.46886z" fill="#252525" stroke="#000000" stroke-width="0"/><path d="M244.06695,304.24266l-1.29726,-9.46886l28.75621,-6.49795l1.29726,9.46886z" fill="#252525" stroke="#000000" stroke-width="0"/><path d="M271.4332,289.00023c0.06583,0.48051 1.6947,5.77294 0.95368,7.63398c-1.33279,3.34725 -5.77119,3.91388 -8.36982,4.50108c-4.04346,0.91369 -19.56798,4.34377 -19.75222,2.99905c-0.0437,-0.31895 -2.12876,-9.00647 -0.79348,-9.68575c1.62253,-0.82542 2.08619,4.66953 5.10091,5.14703c4.96461,0.78632 12.85856,-2.89637 14.77764,-3.33002c1.97393,-0.44605 5.03246,-0.04434 6.51158,-1.88231c1.55074,-1.92698 1.47743,-6.07133 1.57172,-5.38306z" fill="#141414" stroke="none" stroke-width="0"/><path d="M244.06695,304.24266l-1.29726,-9.46886l28.75621,-6.49795l1.29726,9.46886z" fill="none" stroke="#000000" stroke-width="3.5"/><path d="M244.06695,304.24266l-1.29726,-9.46886l28.75621,-6.49795l1.29726,9.46886z" fill="none" stroke="#000000" stroke-width="3.5"/></g></g><g><path d="M238.71676,271.12664l-1.48994,-10.87529l29.70013,-6.71123l1.48994,10.87528z" fill="#252525" stroke="#000000" stroke-width="0"/><path d="M238.71676,271.12664l-1.48994,-10.87529l29.70013,-6.71123l1.48994,10.87528z" fill="#252525" stroke="#000000" stroke-width="0"/><path d="M266.84202,254.36724c0.0756,0.55187 1.84499,6.65333 1.10568,8.76554c-1.32972,3.79899 -5.9205,4.33526 -8.60444,4.94175c-4.17618,0.94367 -20.21151,4.47761 -20.42311,2.93314c-0.05018,-0.36633 -2.34452,-10.36692 -0.97122,-11.11086c1.66873,-0.904 2.2337,5.39979 5.3652,6.02301c5.15693,1.0263 13.2808,-2.99041 15.26286,-3.43829c2.03874,-0.46069 5.21446,0.07686 6.719,-1.99021c1.57739,-2.16716 1.43771,-6.91456 1.546,-6.12407z" fill="#141414" stroke="none" stroke-width="0"/><path d="M238.71676,271.12664l-1.48994,-10.87529l29.70013,-6.71123l1.48994,10.87528z" fill="none" stroke="#000000" stroke-width="3.5"/><path d="M238.71676,271.12664l-1.48994,-10.87529l29.70013,-6.71123l1.48994,10.87528z" fill="none" stroke="#000000" stroke-width="3.5"/></g></g><path d="M277.46305,283.09839c4.46542,34.27387 -20.47767,-26.35422 -28.8585,-25.26231c-0.56648,0.0738 5.5743,24.17544 4.82767,24.2904c-5.01668,0.77247 -12.2569,32.34543 -16.03986,22.12473c-3.98361,-10.76281 -1.86539,-35.41237 -4.00097,-51.80378c-4.46542,-34.27386 -1.29135,-62.94348 7.08948,-64.03539c4.40218,-0.57354 12.87841,-21.84542 20.8404,-0.89568c3.10084,8.159 -0.26235,29.49505 2.35412,46.19958c3.45545,22.06088 12.58126,40.12289 13.78766,49.38245z" data-paper-data="{&quot;index&quot;:null}" fill="#001354" stroke="#000000" stroke-width="0" stroke-linecap="butt"/><path d="M231.94936,214.91902c0,-9.23876 5.60275,57.34104 10.17836,71.44888c2.23412,6.88837 3.17964,-34.21896 5.12474,-34.21896c0.6284,0 15.55547,10.54256 21.58519,19.71732c4.2489,6.46508 0.17017,9.29278 0.61352,4.81885c0.32321,-3.26161 -5.2971,-53.35167 -16.63214,-69.66048c-6.85355,-9.86086 -21.30265,12.62484 -22.10097,8.30123c-4.33415,-23.47334 24.38223,-17.22216 26.90715,-14.89909c3.33959,3.07261 4.82081,23.81254 8.56123,40.35083c5.01233,22.16205 11.90061,41.50452 11.90061,45.86041c0,1.69962 -0.75879,7.93337 -3.40691,4.35565c-6.77912,-9.15889 -21.72645,-35.93136 -25.97373,-34.32491c-3.23957,1.22531 3.30158,10.87765 2.50048,20.75787c-0.02062,0.25425 1.08579,1.63871 1.05691,1.89115c-0.50349,4.40177 -4.17826,7.71779 -5.88639,11.22737c-3.21859,6.613 -5.22401,11.85277 -6.4339,11.85277c-5.92878,0 -7.99416,-73.72916 -7.99416,-87.47889z" fill="#000c33" stroke="none" stroke-width="0" stroke-linecap="butt"/><path d="M277.48795,282.66647c4.46542,34.27387 -20.47767,-26.35422 -28.8585,-25.26231c-0.56648,0.0738 5.57429,24.17544 4.82766,24.2904c-5.01668,0.77247 -12.25689,32.34543 -16.03985,22.12473c-3.98361,-10.76281 -1.86539,-35.41237 -4.00097,-51.80378c-4.46542,-34.27386 -1.29135,-62.94348 7.08948,-64.03539c4.40218,-0.57354 12.87841,-21.84541 20.8404,-0.89567c3.10084,8.159 -0.26235,29.49505 2.35412,46.19958c3.45545,22.06088 12.58127,40.12288 13.78766,49.38245z" data-paper-data="{&quot;index&quot;:null}" fill="none" stroke="#000000" stroke-width="3.5" stroke-linecap="butt"/><path d="M264.2321,235.93257l-32,16" fill="none" stroke="#000000" stroke-width="3.5" stroke-linecap="round"/></g><g stroke-linecap="butt"><path d="M235.89241,313.2553c0,-9.57293 15.00343,-17.33333 33.51109,-17.33333c8.76699,0 17.82869,-4.592 23.80081,-1.74153c6.63539,3.16703 9.71028,14.03659 9.71028,19.07486c0,4.01638 9.93836,10.2443 0.86668,12.63837c-12.55042,3.31213 -46.33616,2.02829 -57.07883,2.02829c-18.50766,0 -10.81003,-5.09374 -10.81003,-14.66667z" fill="#51341e" stroke="#000000" stroke-width="0"/><path d="M294.83513,320.77765c12.51038,-5.73047 -12.16793,-26.98902 -3.45124,-26.98902c10.26399,0 9.47393,10.2209 11.0047,17.89293c1.0217,5.12064 5.71481,7.88586 5.71481,10.20707c0,5.79899 -26.62997,7.7 -43.74458,7.7c-10.71308,0 -21.02126,-0.44198 -26.58682,-3.24224c-3.32567,-1.67327 -4.40193,-5.08871 -4.40193,-7.25776c0,-2.84549 49.41218,7.20993 61.46506,1.68902z" fill="#2f1c0d" stroke="none" stroke-width="0"/><path d="M269.76384,295.92196c8.767,0 17.8287,-4.592 23.80082,-1.74153c6.63538,3.16704 9.71027,14.03658 9.71027,19.07486c0,4.01639 9.93836,10.24431 0.86668,12.63838c-12.55042,3.31213 -46.33617,2.02829 -57.07883,2.02829c-18.50766,0 -10.81003,-5.09373 -10.81003,-14.66667c0,-9.57293 15.00343,-17.33333 33.51109,-17.33333z" fill="none" stroke="#000000" stroke-width="3.5"/></g></g><g stroke-linecap="butt"><g data-paper-data="{&quot;index&quot;:null}"><g><g><path d="M214.41521,256.70519l6.64634,-59.2575l17.40105,5.10458l-6.64634,59.25749z" fill="#252525" stroke="#000000" stroke-width="0"/><path d="M214.41521,256.70519l6.64634,-59.2575l17.40105,5.10458l-6.64634,59.25749z" fill="#252525" stroke="#000000" stroke-width="0"/><path d="M220.69529,201.75072c0.4831,-4.30722 -2.05959,21.03575 -2.06781,30.91824c-0.00784,9.42605 2.49911,3.30945 3.69359,3.65986c1.16129,0.34065 4.79792,13.31372 8.94785,2.5669c2.52,-6.52592 6.16278,-40.56727 6.86914,-37.48353c0.58132,2.53782 -6.17951,57.97901 -6.40338,59.97501c-0.26736,2.38371 -0.57145,-0.09147 -1.80414,-0.21765c-3.11925,-0.31931 -8.87316,-3.173 -10.6269,-3.68745c-1.57249,-0.46129 -4.92092,10.73155 -3.89848,-8.06732c0.56846,-10.45201 4.95285,-44.657 5.29012,-47.66405z" fill="#141414" stroke="none" stroke-width="0"/><path d="M214.41521,256.70519l6.64634,-59.2575l17.40105,5.10458l-6.64634,59.25749z" fill="none" stroke="#000000" stroke-width="3.5"/><path d="M214.41521,256.70519l6.64634,-59.2575l17.40105,5.10458l-6.64634,59.25749z" fill="none" stroke="#000000" stroke-width="3.5"/></g><g><path d="M213.48741,228.87692l1.34567,-11.99784l25.42273,7.45775l-1.34568,11.99782z" fill="#252525" stroke="#000000" stroke-width="0"/><path d="M213.48741,228.87692l1.34567,-11.99784l25.42273,7.45775l-1.34568,11.99782z" fill="#252525" stroke="#000000" stroke-width="0"/><path d="M214.90072,217.79193c0.09781,-0.8721 -0.05172,4.36624 1.28714,6.76038c1.27703,2.28356 4.00325,1.69598 5.74836,2.20791c1.69662,0.4977 8.63682,4.94425 13.06478,3.82081c2.68884,-0.68222 3.21277,-7.63719 4.63788,-6.63673c1.17279,0.82335 -0.85708,11.85457 -0.9024,12.25871c-0.19111,1.70388 -13.9176,-2.22384 -17.49232,-3.27248c-2.29739,-0.67396 -6.23015,-1.27376 -7.34642,-5.46813c-0.62064,-2.33204 0.9347,-9.06164 1.00299,-9.67049z" fill="#141414" stroke="none" stroke-width="0"/><path d="M213.48741,228.87692l1.34567,-11.99784l25.42273,7.45775l-1.34568,11.99782z" fill="none" stroke="#000000" stroke-width="3.5"/><path d="M213.48741,228.87692l1.34567,-11.99784l25.42273,7.45775l-1.34568,11.99782z" fill="none" stroke="#000000" stroke-width="3.5"/></g><g><path d="M209.84259,247.45882l1.34568,-11.99785l28.7226,8.42575l-1.34568,11.99785z" fill="#252525" stroke="#000000" stroke-width="0"/><path d="M209.84259,247.45882l1.34568,-11.99785l28.7226,8.42575l-1.34568,11.99785z" fill="#252525" stroke="#000000" stroke-width="0"/><path d="M211.27727,236.38007c0.09781,-0.87208 0.0033,4.38236 1.54416,6.83577c1.4697,2.34008 4.53024,1.85057 6.50187,2.42895c1.91684,0.56231 9.79184,5.28308 14.76041,4.31824c3.01713,-0.58589 3.50889,-7.55035 5.12717,-6.49321c1.33179,0.86998 -0.79769,11.872 -0.84302,12.27613c-0.19111,1.70388 -15.69788,-2.74607 -19.73662,-3.93084c-2.5956,-0.76142 -7.03103,-1.50868 -8.34669,-5.76155c-0.7315,-2.36455 0.92444,-9.06465 0.99272,-9.67349z" fill="#141414" stroke="none" stroke-width="0"/><path d="M209.84259,247.45882l1.34568,-11.99785l28.7226,8.42575l-1.34568,11.99785z" fill="none" stroke="#000000" stroke-width="3.5"/><path d="M209.84259,247.45882l1.34568,-11.99785l28.7226,8.42575l-1.34568,11.99785z" fill="none" stroke="#000000" stroke-width="3.5"/></g></g><g><path d="M214.41931,205.22673l1.54555,-13.7799l29.66542,8.70231l-1.54555,13.7799z" fill="#252525" stroke="#000000" stroke-width="0"/><path d="M214.41931,205.22673l1.54555,-13.7799l29.66542,8.70231l-1.54555,13.7799z" fill="#252525" stroke="#000000" stroke-width="0"/><path d="M216.04557,192.49616c0.11233,-1.00161 -0.05163,5.01705 1.51465,7.77518c1.49395,2.63075 4.67238,1.96975 6.70873,2.56711c1.97974,0.58076 10.08296,5.72654 15.24507,4.45866c3.13464,-0.76991 3.73186,-8.75929 5.39594,-7.60221c1.36948,0.95222 -0.97599,13.61781 -1.02804,14.08198c-0.2195,1.95698 -16.23655,-2.62798 -20.40784,-3.85161c-2.6808,-0.78642 -7.26878,-1.49617 -8.57904,-6.32181c-0.72849,-2.68301 1.07208,-10.40803 1.15051,-11.1073z" fill="#141414" stroke="none" stroke-width="0"/><path d="M214.41931,205.22673l1.54555,-13.7799l29.66542,8.70231l-1.54555,13.7799z" fill="none" stroke="#000000" stroke-width="3.5"/><path d="M214.41931,205.22673l1.54555,-13.7799l29.66542,8.70231l-1.54555,13.7799z" fill="none" stroke="#000000" stroke-width="3.5"/></g></g><g data-paper-data="{&quot;index&quot;:null}"><g><g><path d="M232.23659,256.95731l-1.12857,47.70256l-17.34053,-0.81077l1.12858,-47.70258z" fill="#252525" stroke="#000000" stroke-width="0"/><path d="M232.23659,256.95731l-1.12857,47.70256l-17.34053,-0.81077l1.12858,-47.70258z" fill="#252525" stroke="#000000" stroke-width="0"/><path d="M213.96109,300.41697c0.05727,-2.42069 0.18303,-30.10585 0.9614,-38.35449c1.39995,-14.8359 3.19479,-5.25266 4.7618,-5.1794c1.74763,0.08171 7.62918,-0.55288 10.66214,0.05374c1.1986,0.23974 1.8038,-1.59357 1.75839,0.32533c-0.03801,1.60679 -0.57341,46.38573 -1.45252,48.19163c-1.06822,2.19439 -0.2517,-25.16107 -1.84282,-30.90392c-2.62025,-9.45727 -7.75215,-0.40766 -8.90938,-0.46178c-1.19032,-0.05565 -2.82076,-5.47798 -4.00703,1.82278c-1.24373,7.65429 -2.01399,27.97344 -1.93196,24.5061z" fill="#141414" stroke="none" stroke-width="0"/><path d="M232.23659,256.95731l-1.12857,47.70256l-17.34053,-0.81077l1.12858,-47.70258z" fill="none" stroke="#000000" stroke-width="3.5"/><path d="M232.23659,256.95731l-1.12857,47.70256l-17.34053,-0.81077l1.12858,-47.70258z" fill="none" stroke="#000000" stroke-width="3.5"/></g><g><path d="M235.81586,278.62458l-0.2285,9.65831l-25.33431,-1.18451l0.22851,-9.65831z" fill="#252525" stroke="#000000" stroke-width="0"/><path d="M235.81586,278.62458l-0.2285,9.65831l-25.33431,-1.18451l0.22851,-9.65831z" fill="#252525" stroke="#000000" stroke-width="0"/><path d="M210.43355,286.4101c0.01159,-0.49013 -0.62823,-6.12662 0.26252,-7.76244c1.60212,-2.94215 5.45106,-2.33005 7.74046,-2.22303c3.56229,0.16656 17.2285,0.88271 17.19606,2.25435c-0.0077,0.32533 0.54261,9.42249 -0.68681,9.73897c-1.49391,0.38456 -1.11572,-5.14411 -3.60891,-6.40839c-4.10578,-2.08197 -11.32714,-0.53877 -13.01785,-0.61781c-1.73904,-0.08131 -4.28009,-1.28254 -5.79444,0.13606c-1.58768,1.4873 -2.10765,5.58428 -2.09104,4.88225z" fill="#141414" stroke="none" stroke-width="0"/><path d="M235.81586,278.62458l-0.2285,9.65831l-25.33431,-1.18451l0.22851,-9.65831z" fill="none" stroke="#000000" stroke-width="3.5"/><path d="M235.81586,278.62458l-0.2285,9.65831l-25.33431,-1.18451l0.22851,-9.65831z" fill="none" stroke="#000000" stroke-width="3.5"/></g><g><path d="M237.9609,263.39259l-0.2285,9.65833l-28.62269,-1.33827l0.2285,-9.65831z" fill="#252525" stroke="#000000" stroke-width="0"/><path d="M237.9609,263.39259l-0.2285,9.65833l-28.62269,-1.33827l0.2285,-9.65831z" fill="#252525" stroke="#000000" stroke-width="0"/><path d="M211.65867,266.15507c-1.78897,1.4779 -2.36378,5.5723 -2.34717,4.87027c0.01159,-0.49012 -0.72849,-6.1313 0.27275,-7.76195c1.80081,-2.93288 6.15069,-2.29735 8.73725,-2.17642c4.02469,0.18817 19.465,0.98729 19.43255,2.35893c-0.0077,0.32533 0.64186,9.42714 -0.74599,9.73621c-1.68642,0.37557 -1.27616,-5.15164 -4.0965,-6.43119c-4.64451,-2.10714 -12.79742,-0.60748 -14.70759,-0.69679c-1.96477,-0.09186 -4.83896,-1.30867 -6.54531,0.10095z" fill="#141414" stroke="none" stroke-width="0"/><path d="M237.9609,263.39259l-0.2285,9.65833l-28.62269,-1.33827l0.2285,-9.65831z" fill="none" stroke="#000000" stroke-width="3.5"/><path d="M237.9609,263.39259l-0.2285,9.65833l-28.62269,-1.33827l0.2285,-9.65831z" fill="none" stroke="#000000" stroke-width="3.5"/></g></g><g><path d="M237.94257,297.38975l-0.26244,11.09289l-29.56224,-1.3822l0.26244,-11.09288z" fill="#252525" stroke="#000000" stroke-width="0"/><path d="M237.94257,297.38975l-0.26244,11.09289l-29.56224,-1.3822l0.26244,-11.09288z" fill="#252525" stroke="#000000" stroke-width="0"/><path d="M208.3282,306.31003c0.01333,-0.5629 -0.73573,-7.03727 0.30296,-8.91533c1.86818,-3.37784 6.35965,-2.67153 9.03111,-2.54663c4.15678,0.19435 20.10374,1.02862 20.06646,2.60399c-0.00884,0.37365 0.63726,10.82269 -0.79718,11.18513c-1.74302,0.44042 -1.30413,-5.90927 -4.2139,-7.36346c-4.79179,-2.39477 -13.21749,-0.6285 -15.19035,-0.72074c-2.02926,-0.09489 -4.99483,-1.47674 -6.76126,0.15131c-1.85197,1.70689 -2.45691,6.41203 -2.43784,5.60573z" fill="#141414" stroke="none" stroke-width="0"/><path d="M237.94257,297.38975l-0.26244,11.09289l-29.56224,-1.3822l0.26244,-11.09288z" fill="none" stroke="#000000" stroke-width="3.5"/><path d="M237.94257,297.38975l-0.26244,11.09289l-29.56224,-1.3822l0.26244,-11.09288z" fill="none" stroke="#000000" stroke-width="3.5"/></g></g><g><g><path d="M190.50126,317.9077l0.2211,-21.45005l45.94583,1.27936l-0.2211,21.45006z" fill="#252525" stroke="#000000" stroke-width="0"/><path d="M190.50126,317.9077l0.2211,-21.45005l45.94583,1.27936l-0.2211,21.45006z" fill="#252525" stroke="#000000" stroke-width="0"/><path d="M190.50126,317.9077l0.2211,-21.45005l45.94583,1.27936l-0.2211,21.45006z" fill="none" stroke="#000000" stroke-width="3.5"/><path d="M191.00391,298.01159c0.01608,-1.55913 0.68817,7.60503 3.46494,11.14751c2.64851,3.37886 7.32805,1.10718 10.48194,1.19501c3.06625,0.08539 16.03916,4.62037 23.60954,0.63711c4.59705,-2.41879 4.27572,-14.73556 6.95517,-13.65257c2.20509,0.89125 0.61081,20.97702 0.60336,21.69953c-0.0314,3.04625 -24.82128,0.4406 -31.28179,0.2607c-4.15201,-0.11562 -11.16078,2.73485 -13.86805,-4.03562c-1.50523,-3.76432 0.02366,-16.16317 0.03488,-17.25167z" fill="#141414" stroke="none" stroke-width="0"/><path d="M190.50126,317.9077l0.2211,-21.45005l45.94583,1.27936l-0.2211,21.45006z" fill="none" stroke="#000000" stroke-width="3.5"/></g><g><path d="M177.18627,323.4722l0.10835,-21.45005l22.51631,1.27936l-0.10835,21.45007z" fill="#252525" stroke="#000000" stroke-width="0"/><path d="M177.18627,323.4722l0.10835,-21.45005l22.51631,1.27936l-0.10835,21.45007z" fill="#6c6c6c" stroke="#000000" stroke-width="0"/><path d="M177.18627,323.4722l0.10835,-21.45005l22.51631,1.27936l-0.10835,21.45007z" fill="none" stroke="#000000" stroke-width="3.5"/><path d="M179.13063,314.72361c1.29793,3.37886 3.5912,1.10718 5.1368,1.195c1.50266,0.08539 7.86018,4.62037 11.57014,0.63711c2.25284,-2.41878 2.09537,-14.73555 3.40847,-13.65257c1.08063,0.89125 0.29934,20.97702 0.29569,21.69953c-0.0154,3.04625 -12.16397,0.44061 -15.33002,0.26071c-2.03475,-0.11562 -5.46948,2.73484 -6.79621,-4.03563c-0.73766,-3.76433 0.01161,-16.16317 0.0171,-17.25167c0.00788,-1.55912 0.33725,7.60503 1.69804,11.14751z" fill="#545454" stroke="none" stroke-width="0"/><path d="M177.18627,323.4722l0.10835,-21.45005l22.51631,1.27936l-0.10835,21.45007z" fill="none" stroke="#000000" stroke-width="3.5"/></g><g><path d="M211.03695,325.44296l0.10835,-21.45005l22.51631,1.27936l-0.10836,21.45007z" fill="#252525" stroke="#000000" stroke-width="0"/><path d="M211.03695,325.44296l0.10835,-21.45005l22.51631,1.27936l-0.10836,21.45007z" fill="#6c6c6c" stroke="#000000" stroke-width="0"/><path d="M211.03695,325.44296l0.10835,-21.45005l22.51631,1.27936l-0.10836,21.45007z" fill="none" stroke="#000000" stroke-width="3.5"/><path d="M211.28328,305.54687c0.00787,-1.55912 0.33724,7.60503 1.69803,11.14751c1.29794,3.37886 3.59121,1.10719 5.13681,1.19501c1.50265,0.08539 7.86017,4.62036 11.57013,0.63711c2.25284,-2.41878 2.09537,-14.73555 3.40847,-13.65257c1.08063,0.89124 0.29934,20.97702 0.29569,21.69953c-0.01539,3.04625 -12.16396,0.4406 -15.33001,0.2607c-2.03475,-0.11562 -5.46949,2.73484 -6.79622,-4.03563c-0.73765,-3.76433 0.01161,-16.16317 0.0171,-17.25167z" fill="#545454" stroke="none" stroke-width="0"/><path d="M211.03695,325.44296l0.10835,-21.45005l22.51631,1.27936l-0.10836,21.45007z" fill="none" stroke="#000000" stroke-width="3.5"/></g><g><path d="M192.48863,325.32703l0.10835,-21.45005l22.51631,1.27936l-0.10835,21.45007z" fill="#252525" stroke="#000000" stroke-width="0"/><path d="M192.48863,325.32703l0.10835,-21.45005l22.51631,1.27936l-0.10835,21.45007z" fill="#6c6c6c" stroke="#000000" stroke-width="0"/><path d="M192.48863,325.32703l0.10835,-21.45005l22.51631,1.27936l-0.10835,21.45007z" fill="none" stroke="#000000" stroke-width="3.5"/><path d="M192.73496,305.43094c0.00787,-1.55912 0.33724,7.60504 1.69803,11.14751c1.29793,3.37886 3.5912,1.10718 5.1368,1.195c1.50265,0.08539 7.86017,4.62037 11.57013,0.63711c2.25284,-2.41878 2.09537,-14.73556 3.40847,-13.65257c1.08062,0.89124 0.29934,20.97702 0.29569,21.69953c-0.01539,3.04625 -12.16396,0.4406 -15.33001,0.2607c-2.03474,-0.11562 -5.46948,2.73484 -6.79621,-4.03563c-0.73765,-3.76433 0.01161,-16.16317 0.0171,-17.25167z" fill="#545454" stroke="none" stroke-width="0"/><path d="M192.48863,325.32703l0.10835,-21.45005l22.51631,1.27936l-0.10835,21.45007z" fill="none" stroke="#000000" stroke-width="3.5"/></g></g></g><g><g data-paper-data="{&quot;index&quot;:null}" stroke-linecap="butt"><g><g><path d="M218.38773,154.49523l-6.06956,42.36l-17.14001,-2.72815l6.06957,-42.36z" fill="#252525" stroke="#000000" stroke-width="0"/><path d="M218.38773,154.49523l-6.06956,42.36l-17.14001,-2.72815l6.06957,-42.36z" fill="#252525" stroke="#000000" stroke-width="0"/><path d="M195.7265,191.09232c0.30799,-2.14958 3.30493,-26.79529 4.93376,-34.05263c2.92959,-13.05296 3.71824,-4.30917 5.26714,-4.06265c1.72742,0.27495 7.63532,0.39009 10.58498,1.28127c1.16568,0.35219 1.957,-1.21078 1.71284,0.4932c-0.20444,1.42684 -5.38153,41.25125 -6.44208,42.75813c-1.2887,1.83106 2.36014,-22.44107 1.37546,-27.7405c-1.62158,-8.72707 -7.65781,-1.25989 -8.80166,-1.44196c-1.17657,-0.18727 -2.23355,-5.20576 -4.16922,1.16008c-2.02941,6.67409 -4.90238,24.68406 -4.46122,21.60505z" fill="#141414" stroke="none" stroke-width="0"/><path d="M218.38773,154.49523l-6.06956,42.36l-17.14001,-2.72815l6.06957,-42.36z" fill="none" stroke="#000000" stroke-width="3.5"/><path d="M218.38773,154.49523l-6.06956,42.36l-17.14001,-2.72815l6.06957,-42.36z" fill="none" stroke="#000000" stroke-width="3.5"/></g><g><path d="M219.69524,174.20917l-1.22889,8.5766l-25.04134,-3.98578l1.2289,-8.57659z" fill="#252525" stroke="#000000" stroke-width="0"/><path d="M219.69524,174.20917l-1.22889,8.5766l-25.04134,-3.98578l1.2289,-8.57659z" fill="#252525" stroke="#000000" stroke-width="0"/><path d="M193.67569,178.20778c0.06236,-0.43524 0.01155,-5.52988 1.06603,-6.88393c1.89658,-2.43535 5.65619,-1.44488 7.91911,-1.08471c3.52111,0.56046 17.02126,2.77928 16.84674,3.9973c-0.04139,0.2889 -0.43851,8.45575 -1.69251,8.59544c-1.52377,0.16972 -0.5746,-4.71113 -2.91989,-6.12569c-3.86223,-2.32945 -11.19521,-1.79023 -12.86636,-2.05623c-1.71894,-0.2736 -4.1183,-1.63753 -5.76965,-0.5491c-1.73131,1.14113 -2.6728,4.73032 -2.58347,4.10691z" fill="#141414" stroke="none" stroke-width="0"/><path d="M219.69524,174.20917l-1.22889,8.5766l-25.04134,-3.98578l1.2289,-8.57659z" fill="none" stroke="#000000" stroke-width="3.5"/><path d="M219.69524,174.20917l-1.22889,8.5766l-25.04134,-3.98578l1.2289,-8.57659z" fill="none" stroke="#000000" stroke-width="3.5"/></g><g><path d="M223.40602,160.88957l-1.22891,8.57662l-28.2917,-4.50315l1.22889,-8.5766z" fill="#252525" stroke="#000000" stroke-width="0"/><path d="M223.40602,160.88957l-1.22891,8.57662l-28.2917,-4.50315l1.22889,-8.5766z" fill="#252525" stroke="#000000" stroke-width="0"/><path d="M196.99381,160.30755c-1.93027,1.10948 -2.92596,4.69002 -2.83665,4.06662c0.06235,-0.43523 -0.08755,-5.54566 1.07613,-6.88232c2.09298,-2.4041 6.34771,-1.33482 8.90437,-0.92788c3.97815,0.6332 19.23189,3.13115 19.05738,4.34916c-0.04139,0.2889 -0.3404,8.47136 -1.75099,8.58611c-1.71405,0.13946 -0.73317,-4.7364 -3.40182,-6.20242c-4.39474,-2.41419 -12.64847,-2.02154 -14.53657,-2.32205c-1.94205,-0.30911 -4.67071,-1.72546 -6.51185,-0.66723z" fill="#141414" stroke="none" stroke-width="0"/><path d="M223.40602,160.88957l-1.22891,8.57662l-28.2917,-4.50315l1.22889,-8.5766z" fill="none" stroke="#000000" stroke-width="3.5"/><path d="M223.40602,160.88957l-1.22891,8.57662l-28.2917,-4.50315l1.22889,-8.5766z" fill="none" stroke="#000000" stroke-width="3.5"/></g></g><g><path d="M219.86102,191.17005l-1.41144,9.8505l-29.22038,-4.65098l1.41143,-9.8505z" fill="#252525" stroke="#000000" stroke-width="0"/><path d="M219.86102,191.17005l-1.41144,9.8505l-29.22038,-4.65098l1.41143,-9.8505z" fill="#252525" stroke="#000000" stroke-width="0"/><path d="M189.5201,195.68987c0.07163,-0.49986 -0.00076,-6.35349 1.22578,-7.90619c2.20605,-2.79266 6.59409,-1.64395 9.23466,-1.22365c4.10872,0.65398 19.86206,3.24186 19.66161,4.64078c-0.04754,0.3318 -0.48974,9.71392 -1.95215,9.87083c-1.777,0.19066 -0.68235,-5.41449 -3.42174,-7.04639c-4.51119,-2.68744 -13.06354,-2.08884 -15.01361,-2.39923c-2.0058,-0.31927 -4.80811,-1.8932 -6.73157,-0.64736c-2.01661,1.30616 -3.10559,5.42723 -3.00301,4.71122z" fill="#141414" stroke="none" stroke-width="0"/><path d="M219.86102,191.17005l-1.41144,9.8505l-29.22038,-4.65098l1.41143,-9.8505z" fill="none" stroke="#000000" stroke-width="3.5"/><path d="M219.86102,191.17005l-1.41144,9.8505l-29.22038,-4.65098l1.41143,-9.8505z" fill="none" stroke="#000000" stroke-width="3.5"/></g></g><g><path d="M205.77973,99.25042c3.64233,-0.66206 10.94803,-1.23718 13.8078,1.00698c2.81782,2.21124 1.2112,7.20726 1.93835,11.20766c1.46514,8.06039 5.57309,87.08673 -1.65812,88.40116c-2.75382,0.50056 -2.45317,-15.70981 -7.17843,-19.21837c-4.91313,-3.64806 -13.80462,3.80732 -18.54712,2.43033c-2.67345,-0.77624 -2.62546,-6.28464 -2.95248,-8.08382c-1.46514,-8.06039 7.3588,-74.42953 14.59001,-75.74396z" fill="#003aff" stroke="#000000" stroke-width="0" stroke-linecap="butt"/><path d="M202.56791,182.6046c2.56513,-0.46626 7.4906,-4.84465 10.06477,-17.04534c4.99195,-23.66039 7.2084,-61.82491 8.73761,-53.41203c2.31775,12.75105 6.13134,87.56547 -1.40824,88.93594c-3.25005,0.59076 -1.16073,-13.97258 -6.61151,-18.55319c-4.6796,-3.93255 -12.4364,1.4067 -17.70698,-0.26153c-2.83208,-0.8964 -5.00424,-7.76842 -5.46516,-10.30406c-2.31775,-12.75105 4.84992,12.01067 12.38949,10.6402z" fill="#0029ae" stroke="none" stroke-width="3.5" stroke-linecap="butt"/><path d="M205.66629,98.62643c3.3944,-0.61699 11.2075,-2.14937 13.96307,-0.21064c3.11472,2.1914 1.00567,8.14851 1.78307,12.42528c1.46514,8.06039 6.2561,86.96258 -0.97512,88.277c-3.62825,0.65952 -3.03831,-12.81831 -9.30828,-18.18884c-3.81882,-3.27101 -11.40727,2.76516 -15.95655,2.16123c-2.86796,-0.38072 -3.81393,-7.16725 -4.0962,-8.72012c-1.46514,-8.06039 7.3588,-74.42953 14.59001,-75.74396z" fill="none" stroke="#000000" stroke-width="3.5" stroke-linecap="butt"/><path d="M223.40771,153.48154l-28.92959,-18.10462" fill="none" stroke="#000000" stroke-width="3.5" stroke-linecap="round"/></g></g><g><g stroke-linecap="butt"><path d="M223.1348,176.83983l-4.72667,-56.96003l31.02671,0.76559l4.72666,56.96004z" fill="#252525" stroke="#000000" stroke-width="0"/><path d="M223.1348,176.83983l-4.72667,-56.96003l31.02671,0.76559l4.72666,56.96004z" fill="#252525" stroke="#000000" stroke-width="0"/><path d="M223.1348,176.83983l-4.72667,-56.96003l31.02671,0.76559l4.72666,56.96004z" fill="none" stroke="#000000" stroke-width="3.5"/><path d="M223.80081,153.38617c2.53961,8.81886 5.15378,2.5198 7.28357,2.5724c2.0706,0.05108 11.77956,11.34809 15.93865,0.3395c2.52557,-6.6848 -0.48839,-39.366 1.55016,-36.64423c1.67766,2.23992 5.17569,55.65655 5.3349,57.57517c0.67127,8.08925 -16.03013,8.131 -20.39285,8.0233c-2.80382,-0.06921 -7.31884,2.35987 -10.6685,-15.45991c-1.86239,-9.90766 -3.65728,-42.91265 -3.89715,-45.80315c-0.34356,-4.14021 2.18862,20.15104 4.8512,29.39693z" fill="#141414" stroke="none" stroke-width="0"/><path d="M223.1348,176.83983l-4.72667,-56.96003l31.02671,0.76559l4.72666,56.96004z" fill="none" stroke="#000000" stroke-width="3.5"/></g><g stroke-linecap="butt"><path d="M222.12131,157.56853l-0.63159,-9.66247l40.38048,-2.87696l0.63159,9.66247z" fill="#252525" stroke="#000000" stroke-width="0"/><path d="M222.12131,157.56853l-0.63159,-9.66247l40.38048,-2.87696l0.63159,9.66247z" fill="#252525" stroke="#000000" stroke-width="0"/><path d="M222.12131,157.56853l-0.63159,-9.66247l40.38048,-2.87696l0.63159,9.66247z" fill="none" stroke="#000000" stroke-width="3.5"/><path d="M225.26729,153.33627c2.45492,1.32044 6.47516,-0.05272 9.24704,-0.25021c2.69484,-0.192 14.25702,0.87259 20.74897,-1.48747c3.94219,-1.43312 3.18602,-6.94769 5.57974,-6.66202c1.96993,0.23511 1.34363,9.38724 1.36491,9.71271c0.0897,1.37223 -21.69084,3.00152 -27.36879,3.40604c-3.64908,0.25998 -9.77198,1.13006 -12.40905,-1.71113c-1.46618,-1.57968 -0.60137,-7.27018 -0.63343,-7.76051c-0.0459,-0.70232 0.89681,3.36819 3.47062,4.75257z" fill="#141414" stroke="none" stroke-width="0"/><path d="M222.12131,157.56853l-0.63159,-9.66247l40.38048,-2.87696l0.63159,9.66247z" fill="none" stroke="#000000" stroke-width="3.5"/></g><g stroke-linecap="butt"><path d="M218.26801,138.08848l-0.63159,-9.66247l40.38048,-2.87696l0.63159,9.66247z" fill="#252525" stroke="#000000" stroke-width="0"/><path d="M218.26801,138.08848l-0.63159,-9.66247l40.38048,-2.87696l0.63159,9.66247z" fill="#252525" stroke="#000000" stroke-width="0"/><path d="M218.26801,138.08848l-0.63159,-9.66247l40.38048,-2.87696l0.63159,9.66247z" fill="none" stroke="#000000" stroke-width="3.5"/><path d="M221.41399,133.85622c2.45492,1.32044 6.47516,-0.05272 9.24704,-0.25021c2.69484,-0.19201 14.25702,0.87259 20.74897,-1.48748c3.94219,-1.43311 3.18602,-6.94768 5.57974,-6.66201c1.96993,0.23511 1.34363,9.38725 1.36491,9.71271c0.0897,1.37223 -21.69084,3.00152 -27.36879,3.40604c-3.64909,0.25999 -9.77198,1.13007 -12.40905,-1.71112c-1.46618,-1.57968 -0.60137,-7.27018 -0.63343,-7.76051c-0.0459,-0.70232 0.89681,3.36819 3.47061,4.75257z" fill="#141414" stroke="none" stroke-width="0"/><path d="M218.26801,138.08848l-0.63159,-9.66247l40.38048,-2.87696l0.63159,9.66247z" fill="none" stroke="#000000" stroke-width="3.5"/></g><g><path d="M219.07034,100.19364c-2.41006,-28.15561 12.48712,-13.94913 18.99868,-14.50651c6.51156,-0.55738 14.13836,-24.38656 16.54841,3.76905c0.21592,2.52246 6.38316,37.93931 2.36925,47.14752c-1.78566,4.09644 -2.65993,-12.41626 -7.80711,-15.72184c-1.5633,-1.00396 -1.98596,4.7593 -4.52821,7.26105c-2.54649,2.50592 -7.21195,1.75107 -8.02818,1.62228c-3.24551,-0.51208 1.55241,10.62682 2.67221,15.09671c1.62469,6.48516 2.33288,16.98016 6.70361,21.77975c3.43888,3.77631 4.90092,-5.53407 9.02236,-3.27017c3.11708,1.71221 2.89626,9.13662 6.02021,12.18426c3.10872,3.0328 1.45044,-19.14129 4.39606,-17.48934c2.87387,1.61171 10.39114,27.07191 10.32855,28.21155c-0.85134,15.50037 -23.99742,17.3371 -27.57659,17.64347c-3.56816,0.30542 -31.04013,6.22008 -34.50725,-8.84147c-2.86006,-12.4244 6.47737,-82.15924 5.38796,-94.88633z" fill="#003aff" stroke="#000000" stroke-width="0" stroke-linecap="butt"/><path d="M213.39203,194.15325c-0.23567,-2.75317 1.5796,-65.85182 4.73066,-64.68985c0.37042,0.13659 -3.29429,-26.67657 5.12324,-34.29308c9.48155,-8.5793 31.1506,2.004 31.24462,3.82156c0.19542,3.7778 -24.79786,-2.41506 -29.42344,8.35819c-10.34871,24.10277 -5.28467,73.19928 -1.73604,83.915c2.92367,8.82849 16.45958,7.40321 19.78007,7.11899c13.04163,-1.11633 18.05026,-36.38566 23.34701,-37.66902c1.74314,-0.42234 9.54981,26.25986 9.70435,28.06521c0.6241,7.29111 -12.92161,14.40452 -30.25519,15.88823c-17.33358,1.48371 -31.89117,-3.2241 -32.51527,-10.51522z" fill="#0029ae" stroke="none" stroke-width="0" stroke-linecap="butt"/><path d="M219.07032,100.19361c-2.41006,-28.15561 12.48713,-13.94913 18.99869,-14.50651c6.51156,-0.55738 14.13836,-24.38655 16.54842,3.76906c0.21592,2.52246 6.38317,37.93931 2.36925,47.14752c-1.78567,4.09644 -2.65994,-12.41626 -7.80711,-15.72184c-1.5633,-1.00396 -1.98595,4.75931 -4.5282,7.26105c-2.54649,2.50593 -7.21196,1.75108 -8.02818,1.62229c-3.24551,-0.51208 1.5524,10.62682 2.67221,15.09671c1.6247,6.48517 2.33288,16.98017 6.70361,21.77976c3.43889,3.77632 4.90091,-5.53408 9.02236,-3.27017c3.11707,1.7122 2.89627,9.13661 6.02021,12.18425c3.10873,3.0328 1.45044,-19.14128 4.39606,-17.48933c2.87387,1.61171 10.39114,27.07191 10.32855,28.21155c-0.85134,15.50037 -23.99742,17.3371 -27.57659,17.64347c-3.56816,0.30542 -31.04013,6.22009 -34.50725,-8.84147c-2.86006,-12.42439 6.47738,-82.15923 5.38796,-94.88632z" fill="none" stroke="#000000" stroke-width="3.5" stroke-linecap="butt"/><path d="M220.18383,200.98873l5.8387,-25.5912l28.39029,7.27188l12.49777,-6.42261l4.43893,16.68221" fill="none" stroke="#000000" stroke-width="3.5" stroke-linecap="round"/><path d="M238.74663,150.62487l-22.24643,-4.87044" fill="none" stroke="#000000" stroke-width="3.5" stroke-linecap="round"/></g></g><g><path d="M207.80221,65.00769c1.10587,-20.03585 17.72309,-35.41042 37.11557,-34.34006c7.95862,0.43927 3.7053,11.29448 9.33976,16.23029c0.59509,0.52129 6.13695,-2.45349 7.70839,0.12968c3.3137,5.44712 3.75091,18.01398 6.68475,16.6558c4.00428,-1.85378 4.10813,-22.88814 6.32086,-21.61238c5.85554,3.37602 3.42218,20.19864 3.0571,26.81278c-1.10587,20.03585 -17.72308,35.41042 -37.11556,34.34007c-19.39249,-1.07036 -34.21675,-18.18033 -33.11087,-38.21617z" fill="#003aff" stroke="#000000" stroke-width="0" stroke-linecap="butt"/><path d="M240.47491,83.63728c14.06186,0.77613 36.38232,-15.0066 35.86488,-5.63203c-0.51742,9.37458 -21.28563,26.06655 -35.34749,25.29041c-14.06186,-0.77613 -34.34322,-21.93717 -33.82581,-31.31174c0.51742,-9.37458 19.24653,10.87721 33.30839,11.65335z" fill="#0029ae" stroke="none" stroke-width="0" stroke-linecap="butt"/><path d="M207.80221,65.00766c1.10587,-20.03584 17.72309,-35.41041 37.11557,-34.34006c7.95863,0.43927 3.70531,11.29449 9.33977,16.23029c0.59508,0.52128 6.13695,-2.45349 7.70839,0.12968c3.3137,5.44711 3.75093,18.014 6.68475,16.6558c4.00429,-1.85378 4.10813,-22.88813 6.32086,-21.61237c5.85554,3.37602 3.42218,20.19864 3.0571,26.81278c-1.10587,20.03584 -17.72309,35.41041 -37.11557,34.34006c-19.3925,-1.07036 -34.21674,-18.18032 -33.11087,-38.21616z" fill="none" stroke="#000000" stroke-width="3.5" stroke-linecap="butt"/><path d="M212.35569,68.39708c1.03486,-18.74914 15.21592,-33.21192 31.67431,-32.30351c6.75447,0.37281 4.56982,7.95927 9.32961,12.5498c0.5027,0.48482 4.92571,-3.0087 6.24743,-0.59964c2.78711,5.07998 6.35286,18.3494 8.85009,17.06472c3.40838,-1.75343 4.04038,-23.41047 5.91278,-22.22759c4.95496,3.13027 -2.07152,22.61647 -2.41313,28.80586c-1.03486,18.74914 -15.21593,33.21191 -31.6743,32.3035c-16.45838,-0.9084 -28.96163,-16.84401 -27.92678,-35.59315z" fill="#ffffff" stroke="#000000" stroke-width="0" stroke-linecap="butt"/><path d="M216.06303,52.33268c0.31654,-5.73503 12.88814,-16.91544 24.63393,-16.26714c1.73867,0.09597 6.35964,-1.17943 7.72887,0.40159c2.55654,2.95198 1.58042,9.81876 4.28256,11.61427c2.70601,1.79808 4.71834,-1.16469 6.90032,-0.7764c2.35571,0.4192 4.77486,4.17304 4.68028,5.88675c-0.03989,0.72256 2.256,10.26981 4.2173,9.26681c2.37672,-1.21543 3.03233,-11.75176 4.96521,-15.5607c1.96857,-3.87926 5.17758,-1.009 3.47742,0.33558c-1.91601,1.51533 -1.34531,11.26363 -2.53058,18.35822c-0.46958,2.81071 0.48735,4.96111 -1.68212,6.38857c-3.05692,2.01137 -3.72803,-4.01305 -7.48472,-8.03035c-8.57709,-9.17208 -22.71763,-24.37774 -25.341,-24.52255c-0.38387,-0.02119 -3.2474,1.40901 -3.62144,1.36075c-11.07105,-1.42899 -20.53222,17.09224 -20.22602,11.54462z" fill="#c1c1c1" stroke="none" stroke-width="0" stroke-linecap="butt"/><path d="M243.59661,59.37758c12.29724,0.67874 21.98729,6.28045 21.64336,12.51178c-0.34393,6.23133 -10.59162,10.7326 -22.88886,10.05385c-12.29724,-0.67874 -21.98729,-6.28045 -21.64336,-12.51178c0.34393,-6.23133 10.59162,-10.7326 22.88886,-10.05385z" fill="#c1c1c1" stroke="none" stroke-width="0" stroke-linecap="butt"/><path d="M226.11065,42.76367c0.14463,-2.62029 -10.6484,21.2846 -7.59805,37.88422c2.16552,11.78444 17.51838,17.62186 20.92397,17.80981c8.20276,0.45274 16.60269,-8.2098 16.35537,-3.72931c-0.2473,4.48049 -7.09742,7.74563 -15.30016,7.29288c-4.40783,-0.24329 -21.00073,-3.72344 -23.62261,-18.98514c-1.08557,-6.31892 -3.55066,-14.8939 -1.097,-22.84413c2.64846,-8.58146 10.27907,-16.35235 10.33847,-17.42836z" fill="#c1c1c1" stroke="none" stroke-width="0" stroke-linecap="butt"/><path d="M244.67315,35.32788c6.75447,0.37281 4.56981,7.95928 9.32961,12.5498c0.5027,0.48482 4.92572,-3.00871 6.24743,-0.59965c2.78711,5.07998 6.35286,18.3494 8.85009,17.06472c3.40838,-1.75343 4.04037,-23.41046 5.91278,-22.22759c4.95497,3.13026 -2.07151,22.61647 -2.41313,28.80586c-1.03486,18.74914 -15.21592,33.21191 -31.6743,32.3035c-16.45838,-0.9084 -28.96163,-16.84401 -27.92678,-35.59315c1.03486,-18.74914 15.21592,-33.21191 31.6743,-32.3035z" fill="none" stroke="#000000" stroke-width="3.5" stroke-linecap="butt"/><path d="M259.91078,62.45821c4.63213,0.25567 8.10349,5.60383 7.75346,11.94546c-0.16374,2.96666 -3.50518,15.91019 -4.96657,17.87348c-1.66252,2.23347 1.02171,4.04242 -1.44348,3.90636c-2.10096,-0.11596 -7.64323,7.33074 -9.01835,5.50201c-1.65671,-2.2032 -1.53735,-24.7424 -1.34608,-28.20771c0.35002,-6.34162 4.38887,-11.27527 9.02101,-11.0196z" fill="#000000" stroke="#000000" stroke-width="3.5" stroke-linecap="butt"/><path d="M253.61895,93.69193l-5.8437,7.88995" fill="none" stroke="#000000" stroke-width="3.5" stroke-linecap="round"/><path d="M229.25287,61.59046c5.67989,0.3135 10.03514,5.08269 9.72773,10.6523c-0.30741,5.5696 -5.16108,9.83051 -10.84096,9.517c-5.67989,-0.3135 -10.03514,-5.08269 -9.72773,-10.6523c0.30741,-5.5696 5.16108,-9.83051 10.84096,-9.517z" fill="#ffffff" stroke="#000000" stroke-width="3.5" stroke-linecap="butt"/><path d="M229.63864,85.44795l0.27103,13.23505" fill="none" stroke="#000000" stroke-width="3.5" stroke-linecap="round"/><path d="M236.94053,91.0589l0.30861,-5.59149" fill="none" stroke="#000000" stroke-width="3.5" stroke-linecap="round"/><path d="M244.46543,99.88702l1.73697,-13.32453" fill="none" stroke="#000000" stroke-width="3.5" stroke-linecap="round"/></g><g><g stroke-linecap="butt"><path d="M182.79237,205.23607c2.49453,-9.34866 11.42305,-15.08443 19.94239,-12.81118c8.51934,2.27323 13.40342,11.69466 10.9089,21.04332c-2.49453,9.34867 -11.42306,15.08442 -19.9424,12.81117c-8.51935,-2.27323 -13.40342,-11.69466 -10.90889,-21.04331z" fill="#ffffff" stroke="#000000" stroke-width="0"/><path d="M182.41432,211.96454c1.4082,-5.27747 2.34735,-20.43072 9.8866,-18.41899c1.26488,0.3375 -3.20167,5.58737 -4.03077,11.96395c-0.78644,6.04853 2.05573,13.20577 3.36565,14.73024c5.54031,6.44781 19.02839,-4.54234 18.08055,-0.99013c-1.40821,5.27747 -8.66154,7.92489 -16.20078,5.91316c-7.53924,-2.01173 -12.50943,-7.92078 -11.10123,-13.19825z" fill="#adadad" stroke="none" stroke-width="3.5"/><path d="M202.46625,193.29691c8.51935,2.27323 13.40342,11.69466 10.9089,21.04331c-2.49453,9.34867 -11.42303,15.08443 -19.94239,12.81118c-8.51935,-2.27323 -13.40342,-11.69466 -10.90889,-21.04332c2.49453,-9.34867 11.42303,-15.08443 19.94239,-12.81118z" fill="none" stroke="#000000" stroke-width="3.5"/></g><g data-paper-data="{&quot;index&quot;:null}"><path d="M205.57036,234.65872c3.73729,6.31132 4.26324,12.91024 1.17472,14.73913c-3.08852,1.82889 -8.62191,-1.80482 -12.35921,-8.11613c-1.99057,-3.36155 -2.09351,-17.05328 1.88206,-21.44797c3.48858,-3.85635 10.89769,1.40116 12.3412,0.54639c3.08852,-1.82889 -6.77607,7.96729 -3.03878,14.27859z" fill="#ffffff" stroke="#000000" stroke-width="0" stroke-linecap="butt"/><path d="M205.37523,231.48362c0.21224,4.55388 2.80735,8.11591 2.51199,11.92775c-0.31578,4.07515 -2.40843,5.675 -2.40843,5.675c-1.74568,1.03372 -4.41782,-0.25101 -5.9684,-2.86954c-1.55058,-2.61853 1.68447,-26.4484 3.43017,-27.48212c0.6406,-0.37934 4.89383,-0.51784 4.61887,3.23592c-0.13075,1.78503 -2.333,6.32003 -2.18418,9.51299z" fill="#adadad" stroke="none" stroke-width="3.5" stroke-linecap="butt"/><path d="M205.7879,234.40502c3.73729,6.31131 4.26323,12.91024 1.17473,14.73912c-3.08851,1.82888 -8.62192,-1.80483 -12.35921,-8.11613c-1.99057,-3.36155 -2.0935,-17.05328 1.88207,-21.44797c3.48858,-3.85635 10.89769,1.40116 12.3412,0.54638c3.08851,-1.82888 -6.77606,7.9673 -3.03877,14.27859z" fill="none" stroke="#000000" stroke-width="3.5" stroke-linecap="butt"/><path d="M204.29226,232.98844l-10.61526,0.37473" fill="none" stroke="#000000" stroke-width="3.5" stroke-linecap="round"/></g><g data-paper-data="{&quot;index&quot;:null}"><path d="M177.71397,226.74201c-0.16542,7.33299 -3.20857,13.21192 -6.79705,13.13096c-3.58848,-0.08096 -6.36341,-6.09112 -6.19798,-13.4241c0.08811,-3.90571 7.24096,-15.58094 12.93912,-17.20862c5.00016,-1.42828 8.50843,6.95195 10.1856,6.98979c3.58848,0.08096 -9.96427,3.179 -10.12969,10.51197z" fill="#ffffff" stroke="#000000" stroke-width="0" stroke-linecap="butt"/><path d="M179.22736,223.94397c-2.22796,3.97732 -1.90899,8.37288 -4.1754,11.45197c-2.42296,3.29178 -5.04508,3.54305 -5.04508,3.54305c-2.02827,-0.04576 -3.61688,-2.54921 -3.54825,-5.59161c0.06863,-3.04241 15.41566,-21.55719 17.44394,-21.51144c0.74431,0.01679 4.42746,2.14836 2.20909,5.18894c-1.0549,1.4459 -5.32217,4.13038 -6.8843,6.9191z" fill="#adadad" stroke="none" stroke-width="3.5" stroke-linecap="butt"/><path d="M178.03276,226.64173c-0.16541,7.33298 -3.20856,13.21191 -6.79703,13.13096c-3.58847,-0.08095 -6.36341,-6.09113 -6.19799,-13.42411c0.08811,-3.90571 7.24097,-15.58094 12.93912,-17.20862c5.00016,-1.42828 8.50842,6.95195 10.1856,6.98979c3.58847,0.08095 -9.96428,3.179 -10.12969,10.51198z" fill="none" stroke="#000000" stroke-width="3.5" stroke-linecap="butt"/><path d="M168.30464,219.35319l9.20782,5.29532" fill="none" stroke="#000000" stroke-width="3.5" stroke-linecap="round"/></g><g data-paper-data="{&quot;index&quot;:null}"><path d="M189.7367,232.90312c1.82943,7.10304 0.49465,13.58693 -2.98131,14.48218c-3.47596,0.89525 -7.77681,-4.13714 -9.60624,-11.24018c-0.97439,-3.78323 2.74416,-16.96075 7.78737,-20.07273c4.42543,-2.73076 10.07488,4.38401 11.69948,3.96559c3.47596,-0.89525 -8.72874,5.76211 -6.89931,12.86513z" fill="#ffffff" stroke="#000000" stroke-width="0" stroke-linecap="butt"/><path d="M190.43457,229.79952c-1.06585,4.43248 0.43323,8.5768 -0.91322,12.15513c-1.43945,3.82551 -3.89518,4.77847 -3.89518,4.77847c-1.96467,0.50601 -4.17266,-1.4728 -4.93168,-4.41981c-0.75902,-2.947 8.99181,-24.92995 10.95649,-25.43597c0.72097,-0.18569 4.84415,0.86715 3.5335,4.39539c-0.62326,1.67779 -4.00259,5.41895 -4.74991,8.52679z" fill="#adadad" stroke="none" stroke-width="3.5" stroke-linecap="butt"/><path d="M190.01635,232.72014c1.82943,7.10304 0.49465,13.58693 -2.9813,14.48218c-3.47595,0.89525 -7.77682,-4.13715 -9.60625,-11.24018c-0.97439,-3.78323 2.74417,-16.96075 7.78738,-20.07272c4.42543,-2.73076 10.07488,4.38401 11.69947,3.96559c3.47595,-0.89525 -8.72873,5.7621 -6.89931,12.86514z" fill="none" stroke="#000000" stroke-width="3.5" stroke-linecap="butt"/><path d="M178.67618,228.34293l10.2988,2.59978" fill="none" stroke="#000000" stroke-width="3.5" stroke-linecap="round"/></g><g><path d="M212.35823,231.43519c1.89102,-7.08688 -10.25544,-13.84993 -6.78737,-12.92454c1.62089,0.4325 7.3319,-6.63296 11.73345,-3.86388c5.01601,3.15564 8.62004,16.36493 7.61284,20.13957c-1.89102,7.08689 -6.23539,12.08176 -9.70345,11.15637c-3.46806,-0.92539 -4.7465,-7.42061 -2.85548,-14.50752z" fill="#ffffff" stroke="#000000" stroke-width="0" stroke-linecap="butt"/><path d="M207.01162,219.75796c-1.27998,-3.53949 2.85219,-4.55649 3.57152,-4.36455c0.96178,0.25663 3.75308,5.69976 6.25435,11.52535c2.59654,6.04749 4.88055,12.50714 4.48093,14.00476c-0.78457,2.9403 -3.00965,4.89987 -4.96985,4.37683c0,0 -2.44736,-0.97423 -3.85355,-4.81209c-1.31534,-3.58989 0.21965,-7.72105 -0.80768,-12.16261c-0.72031,-3.11422 -4.06705,-6.88456 -4.6757,-8.5677z" fill="#adadad" stroke="none" stroke-width="3.5" stroke-linecap="butt"/><path d="M205.2928,218.32523c1.62089,0.4325 7.3319,-6.63296 11.73346,-3.86388c5.01601,3.15564 8.62004,16.36493 7.61284,20.13956c-1.89102,7.08688 -6.2354,12.08177 -9.70345,11.15638c-3.46805,-0.92539 -4.74649,-7.42064 -2.85547,-14.50752c1.89102,-7.08688 -10.25543,-13.84993 -6.78738,-12.92454z" fill="none" stroke="#000000" stroke-width="3.5" stroke-linecap="butt"/><path d="M223.45791,226.97119l-10.32099,2.51029" fill="none" stroke="#000000" stroke-width="3.5" stroke-linecap="round"/></g></g></g></g></svg>