<svg version="1.1" xmlns="http://www.w3.org/2000/svg" xmlns:xlink="http://www.w3.org/1999/xlink" width="146.5" height="125.02503" viewBox="0,0,146.5,125.02503"><defs><radialGradient cx="218.88702" cy="166.22596" r="50.69712" gradientUnits="userSpaceOnUse" id="color-1"><stop offset="0" stop-color="#000000" stop-opacity="0"/><stop offset="1" stop-color="#000000"/></radialGradient></defs><g transform="translate(-166.75,-111.22497)"><g data-paper-data="{&quot;isPaintingLayer&quot;:true}" fill-rule="nonzero" stroke-linejoin="miter" stroke-miterlimit="10" stroke-dasharray="" stroke-dashoffset="0" style="mix-blend-mode: normal"><path d="M168.5,234.5v-109h143v109z" fill="#191919" stroke="#000000" stroke-width="3.5" stroke-linecap="butt"/><path d="M168.5,210.5v-87h99v87z" fill="#000000" stroke="#000000" stroke-width="3.5" stroke-linecap="butt"/><path d="M266.5,208.5l43,26" fill="none" stroke="#000000" stroke-width="3.5" stroke-linecap="round"/><path d="M266.5,128.5h42" fill="none" stroke="#000000" stroke-width="3.5" stroke-linecap="round"/><g><path d="M218.90399,128.91541c2.87257,-5.00483 4.23822,-13.91404 10.39501,-15.52859c7.19967,-1.88802 20.5223,-3.18443 24.26352,2.41928c2.42195,3.62767 -3.81662,12.94739 -2.6453,17.41402c2.98067,11.36632 1.03626,18.21751 -10.82423,21.32778c-11.86051,3.11027 -23.89166,-3.58258 -26.87234,-14.94889c-1.43341,-5.46606 3.02217,-6.04707 5.68334,-10.68359z" fill="#3a3a3a" stroke="#000000" stroke-width="0" stroke-linecap="butt"/><path d="M244.90757,128.44059c5.4499,-3.99707 -10.13931,-16.03818 -6.73613,-16.93063c3.82958,-1.00426 13.83046,0.67667 16.05805,4.55128c2.67495,4.65272 -2.77157,11.88256 -2.32285,13.5937c0.20356,0.77625 0.85356,5.41254 1.36709,8.23647c1.56115,8.58489 3.07475,20.94318 -3.26734,22.60631c-8.42824,2.2102 -34.13233,-23.60508 -34.95473,-26.74117c-0.49033,-1.86979 21.80871,0.58602 29.85592,-5.31596z" fill="#202020" stroke="none" stroke-width="0" stroke-linecap="butt"/><path d="M216.35311,135.41874c-0.40225,-1.53393 2.08378,-3.79265 2.36189,-5.09464c0.30233,-1.41537 -1.44554,-1.84674 2.2638,-2.81946c2.52172,-0.66129 23.60186,-2.19997 27.94274,0.00708c3.18972,1.62176 2.90926,5.09642 3.22801,7.43669c0.47252,3.46919 3.29017,5.84295 3.61398,7.07777c0.83953,3.20143 -17.87408,-6.05975 -24.99563,-4.19221c-7.12154,1.86754 -13.57527,0.7862 -14.4148,-2.41523z" fill="#fbff00" stroke="#000000" stroke-width="0" stroke-linecap="butt"/><path d="M225.29451,144.85193c-0.67976,-2.59216 -12.70797,-12.18463 -6.90787,-15.87223c1.9611,-1.24683 5.54745,13.10976 11.36946,13.30607c4.39154,0.14808 12.68038,-0.85066 16.42444,-5.01558c2.14317,-2.38407 0.80763,-8.85415 1.43834,-9.01955c0.9983,-0.26179 1.75779,1.41379 2.39452,1.43964c4.15556,0.16866 1.46498,4.11727 2.4901,8.02642c1.1822,4.50814 -3.95038,9.75997 -11.46393,11.7303c-7.51355,1.97034 -14.56286,-0.08696 -15.74506,-4.59509z" fill="#bcbf00" stroke="none" stroke-width="0" stroke-linecap="butt"/><path d="M215.93973,136.17879c-0.40225,-1.53392 2.08378,-3.79264 2.36189,-5.09464c0.30233,-1.41537 -1.44554,-1.84674 2.2638,-2.81946c2.52172,-0.66129 23.60186,-2.19996 27.94274,0.00708c3.18972,1.62176 2.90926,5.09642 3.22801,7.43669c0.47252,3.46919 3.29017,5.84295 3.61398,7.07777c0.83953,3.20143 -17.87408,-6.05975 -24.99562,-4.19221c-7.12154,1.86754 -13.57527,0.7862 -14.41481,-2.41522z" fill="none" stroke="#000000" stroke-width="3.5" stroke-linecap="butt"/><path d="M218.90177,129.31478c2.87257,-5.00483 4.23822,-13.91404 10.39501,-15.52859c7.19967,-1.88802 20.5223,-3.18443 24.26352,2.41928c2.42195,3.62767 -3.81662,12.94739 -2.6453,17.41402c2.98067,11.36632 1.03626,18.21751 -10.82423,21.32778c-11.86051,3.11027 -23.89166,-3.58258 -26.87234,-14.94889c-1.43341,-5.46606 3.02217,-6.04707 5.68334,-10.68359z" fill="none" stroke="#000000" stroke-width="3.5" stroke-linecap="butt"/><path d="M207.21157,163.67223c-3.25066,-12.39588 -4.25978,-25.26199 8.44336,-28.59323c12.70315,-3.33124 38.7519,2.33097 42.00256,14.72685c3.25066,12.39588 -8.85587,26.94811 -21.55901,30.27935c-12.70315,3.33124 -25.63625,-4.01709 -28.88692,-16.41297z" fill="#3a3a3a" stroke="#000000" stroke-width="0" stroke-linecap="butt"/><path d="M216.52958,164.3832c-1.40928,-5.37406 -10.37163,-8.11813 -9.61051,-15.26202c0.19004,-1.78366 -0.06986,-7.38165 2.07761,-10.46541c2.30188,-3.30549 7.07042,-4.05807 8.85614,-4.52635c1.28209,-0.33621 -11.00129,10.15547 -6.78734,13.72966c8.60622,7.29964 36.37736,10.79321 41.35801,9.68359c2.48174,-0.55289 4.08233,-9.66439 0.67245,-13.28109c-3.15287,-3.3441 -12.79173,-5.38786 -13.02973,-6.78127c-0.25735,-1.50673 13.05886,4.21528 14.68287,4.93551c2.99778,1.32946 2.14336,7.71606 2.65194,9.65546c2.13831,8.1541 -8.54452,19.61422 -18.66854,22.26912c-10.12402,2.6549 -20.0646,-1.80309 -22.20291,-9.95718z" fill="#202020" stroke="none" stroke-width="0" stroke-linecap="butt"/><path d="M224.61845,135.00629c7.73902,-2.02946 15.95036,1.09317 22.60004,4.35072c4.26537,2.08952 8.3994,2.50574 9.66969,7.34979c3.25066,12.39588 -7.7949,29.85768 -20.49804,33.18892c-12.70315,3.33124 -25.63626,-4.0171 -28.88692,-16.41297c-2.45188,-9.34984 -2.77849,-21.97404 4.66719,-27.53288c2.42568,-1.81098 9.3265,-0.125 12.44804,-0.94359z" fill="none" stroke="#000000" stroke-width="3.5" stroke-linecap="butt"/><path d="M210.58765,148.53406c20.87052,-5.47303 41.47993,4.16341 46.03242,21.52359c4.55249,17.36018 -9.10016,34.25227 -29.97067,39.7253c-20.87052,5.47303 -41.05566,-2.54552 -45.60815,-19.90569c-4.55249,-17.36018 8.67588,-35.87016 29.54639,-41.34319z" fill="#ffffff" stroke="#000000" stroke-width="0" stroke-linecap="butt"/><path d="M183.92899,195.30714c-0.70404,-2.68474 -6.85535,-15.9779 0.02478,-27.67095c5.25666,-8.9339 23.62793,-17.18378 25.09055,-17.56733c0.90148,-0.2364 -5.87735,2.23103 -11.45723,7.47864c-4.17264,3.92416 -7.13926,10.10565 -8.6329,14.05508c-1.2581,3.3266 -4.26383,11.80072 -3.39973,14.44925c1.87717,5.75369 10.42576,12.05623 10.87941,13.78618c1.24195,4.73597 -0.76466,1.55534 -4.14161,2.4409c-3.37695,0.88556 -7.1213,-2.2358 -8.36325,-6.97177z" fill="#e2e2e2" stroke="none" stroke-width="0" stroke-linecap="butt"/><path d="M214.96392,170.09461c11.70393,-3.06921 22.79133,0.54208 24.7644,8.06603c1.97306,7.52396 -5.91537,16.11142 -17.6193,19.18063c-11.70393,3.06921 -22.79133,-0.54208 -24.7644,-8.06603c-1.97306,-7.52396 5.91537,-16.11142 17.6193,-19.18063z" fill="#e2e2e2" stroke="none" stroke-width="0" stroke-linecap="butt"/><path d="M210.7308,148.81342c20.87052,-5.47303 41.47993,4.16341 46.03242,21.52359c4.55249,17.36018 -9.10016,34.25227 -29.97067,39.7253c-20.87052,5.47303 -41.05566,-2.54551 -45.60815,-19.90569c-4.55249,-17.36018 8.67588,-35.87016 29.54639,-41.34319z" fill="none" stroke="#000000" stroke-width="3.5" stroke-linecap="butt"/><path d="M220.95521,194.91255c7.08449,-1.85782 28.85704,-19.48048 30.54896,-13.02862c0.8236,3.14067 2.11971,9.32535 -3.51281,15.65716c-5.93835,6.6756 -18.93389,13.4499 -22.56975,14.40336c-3.51733,0.92238 -17.50296,1.51571 -26.0679,-2.29312c-8.68627,-3.86277 -11.93416,-12.15745 -12.78607,-15.40607c-1.69192,-6.45187 27.30308,2.52511 34.38757,0.66729z" fill="#000000" stroke="#000000" stroke-width="3.5" stroke-linecap="butt"/><path d="M198.21773,177.44676c4.90069,-1.28515 10.20422,2.74754 11.84575,9.00724c1.64153,6.25971 -1.00054,12.37602 -5.90124,13.66117c-4.90069,1.28515 -10.20422,-2.74754 -11.84575,-9.00724c-1.64153,-6.25971 1.00054,-12.37602 5.90124,-13.66117z" fill="#000000" stroke="#000000" stroke-width="3.5" stroke-linecap="butt"/><path d="M234.15072,168.77434c4.90069,-1.28515 10.20422,2.74754 11.84575,9.00724c1.64153,6.25971 -1.00054,12.37602 -5.90124,13.66117c-4.90069,1.28515 -10.20422,-2.74753 -11.84575,-9.00724c-1.64153,-6.25971 1.00054,-12.37602 5.90124,-13.66117z" fill="#000000" stroke="#000000" stroke-width="3.5" stroke-linecap="butt"/><path d="M191.91614,195.96081l-10.30533,-3.61932" fill="none" stroke="#000000" stroke-width="3.5" stroke-linecap="round"/><path d="M251.12403,185.49168l5.64779,-9.32005" fill="none" stroke="#000000" stroke-width="3.5" stroke-linecap="round"/></g><path d="M168.1899,209.98558v-87.51923h101.39423v87.51923z" fill="url(#color-1)" stroke="none" stroke-width="0" stroke-linecap="butt"/></g></g></svg>