<svg version="1.1" xmlns="http://www.w3.org/2000/svg" xmlns:xlink="http://www.w3.org/1999/xlink" width="193.41894" height="343.80106" viewBox="0,0,193.41894,343.80106"><g transform="translate(-71.10603,17.06953)"><g data-paper-data="{&quot;isPaintingLayer&quot;:true}" fill-rule="nonzero" stroke-width="3.5" stroke-linejoin="miter" stroke-miterlimit="10" stroke-dasharray="" stroke-dashoffset="0" style="mix-blend-mode: normal"><g fill="none" stroke="#000000" stroke-linecap="round"><path d="M245.1749,200.23131l-3.6534,-205.19952"/><g><g><path d="M72.85603,-11.6661l38.36073,172.92777"/><path d="M77.11833,139.95013l21.92043,60.89007"/></g><path d="M157.49321,-15.31953v56.62775"/></g></g><g stroke-linecap="butt"><path d="M178.5107,218.62945c-5.44848,-0.46744 -9.23374,-8.20781 -8.45467,-17.28858c0.77907,-9.08077 5.82749,-16.06327 11.27596,-15.59582c5.44848,0.46744 9.23376,8.20781 8.45469,17.28858c-0.77907,9.08077 -5.82749,16.06327 -11.27596,15.59582z" fill="none" stroke="#000000"/><path d="M176.88426,239.45945c-5.32848,-1.22947 -7.98692,-9.42547 -5.93779,-18.30626c2.04913,-8.88079 8.02984,-15.08342 13.35832,-13.85395c5.32848,1.22947 7.98692,9.42547 5.93779,18.30626c-2.04913,8.88079 -8.02984,15.08344 -13.35832,13.85397z" fill="none" stroke="#000000"/><path d="M173.46453,258.29229c-5.41431,-0.76775 -8.76617,-8.70545 -7.48659,-17.72931c1.27958,-9.02386 6.70607,-15.71676 12.1204,-14.949c5.41431,0.76775 8.76619,8.70543 7.48661,17.72929c-1.27958,9.02386 -6.70609,15.71676 -12.1204,14.94902z" fill="none" stroke="#000000"/><path d="M169.67556,281.06969c-5.25241,-1.52198 -7.45399,-9.85233 -4.91734,-18.60635c2.53665,-8.75404 8.85092,-14.61675 14.10333,-13.09477c5.25241,1.52198 7.45397,9.85233 4.91734,18.60635c-2.53665,8.75404 -8.85092,14.61675 -14.10333,13.09477z" fill="none" stroke="#000000"/><g><path d="M206.84152,299.34853c0.8739,12.34915 -24.77458,17.60775 -36.74493,18.45485c-11.97035,0.8471 -22.38267,-8.47717 -23.25657,-20.8263c-0.8739,-12.34915 8.12153,-23.04684 20.09188,-23.89392c11.97035,-0.8471 39.03572,13.91623 39.90962,26.26537z" fill="#00ffe6" stroke="#000000"/><path d="M207.30469,301.9305c0.45036,6.36398 -26.52409,13.182 -37.88835,13.9862c-11.36425,0.8042 -20.94187,-3.70287 -21.39223,-10.06685c-0.28198,-3.98457 20.69925,6.77257 30.24336,1.9968c3.21908,-1.6108 23.33529,-0.42794 20.11324,-9.42885c-2.48254,-6.93507 -28.5712,-24.71577 -26.72212,-24.84664c11.36425,-0.8042 35.19574,21.99535 35.6461,28.35933z" fill="#00d6c0" stroke="none"/><path d="M206.37483,300.47979c0.8739,12.34915 -24.55847,16.76526 -36.52882,17.61237c-11.97035,0.8471 -22.38265,-8.47717 -23.25657,-20.8263c-0.8739,-12.34915 8.12153,-23.04682 20.09186,-23.89392c11.97035,-0.8471 38.81961,14.75872 39.69351,27.10785z" fill="none" stroke="#000000"/></g></g><g stroke-linecap="butt"><path d="M138.50591,211.86587c1.2255,-9.03137 6.61177,-15.75667 12.0306,-15.02137c5.41883,0.73531 8.81818,8.65275 7.59268,17.68413c-1.2255,9.03137 -6.61177,15.75667 -12.0306,15.02137c-5.41883,-0.73531 -8.81818,-8.65275 -7.59268,-17.68413z" fill="none" stroke="#000000"/><path d="M143.13072,250.23156c-5.46839,0.03453 -9.948,-7.32582 -10.00554,-16.43977c-0.05754,-9.11396 4.3288,-16.53028 9.79717,-16.5648c5.46837,-0.03453 9.948,7.32582 10.00554,16.43977c0.05754,9.11396 -4.32882,16.53028 -9.79719,16.5648z" fill="none" stroke="#000000"/><path d="M140.45693,269.24616c-5.45894,0.32273 -10.32035,-6.79125 -10.85822,-15.88949c-0.53788,-9.09824 3.45144,-16.73547 8.91038,-17.0582c5.45894,-0.32273 10.32035,6.79123 10.85822,15.88947c0.53788,9.09824 -3.45144,16.73547 -8.91038,17.0582z" fill="none" stroke="#000000"/><path d="M129.38581,278.05352c-1.8128,-8.93203 1.06215,-17.05462 6.42138,-18.14228c5.35923,-1.08767 11.17329,5.27144 12.98607,14.20349c1.8128,8.93203 -1.06215,17.05462 -6.42138,18.14228c-5.35923,1.08767 -11.17329,-5.27144 -12.98607,-14.20349z" fill="none" stroke="#000000"/><g><path d="M139.61447,278.78053c11.74617,-2.4564 23.32267,5.3758 25.85679,17.4937c2.53412,12.11789 -4.93371,23.93269 -16.67988,26.38909c-11.74617,2.4564 -37.85542,4.40717 -40.38954,-7.71072c-2.53414,-12.11789 19.46646,-33.71567 31.21264,-36.17207z" fill="#00ffe6" stroke="#000000"/><path d="M108.66192,317.56283c-1.30593,-6.2448 15.38774,-34.68916 26.53918,-37.02119c1.81445,-0.37944 -18.42201,23.85397 -18.91484,31.20347c-0.63965,9.53881 18.38757,2.9036 21.92433,3.57339c10.48593,1.9858 27.72878,-14.09563 28.54644,-10.18569c1.30593,6.2448 -6.67542,13.1977 -17.82687,15.52972c-11.15144,2.33202 -38.96233,3.1451 -40.26826,-3.09969z" fill="#00d6c0" stroke="none"/><path d="M109.15993,315.91324c-2.53414,-12.11789 19.02834,-34.46703 30.77452,-36.92342c11.74617,-2.4564 23.32267,5.3758 25.85679,17.4937c2.53412,12.11789 -4.93371,23.93269 -16.67988,26.38909c-11.74619,2.4564 -37.41732,5.15853 -39.95144,-6.95936z" fill="none" stroke="#000000"/></g></g><g><path d="M163.95564,159.6796c0,-15.26617 6.03392,-27.64186 13.47714,-27.64186c4.49789,0 16.45742,2.59397 18.90551,9.53934c1.60308,4.548 -5.42838,12.06161 -5.42838,18.10254c0,5.60366 5.78808,12.19307 4.39082,16.54873c-2.4093,7.51055 -13.15687,11.09315 -17.86794,11.09315c-7.44322,0 -13.47714,-12.3757 -13.47714,-27.64188z" fill="#ffffff" stroke="#000000" stroke-linecap="butt"/><path d="M166.01383,130.38281c7.47985,0 12.06491,19.34368 18.44188,31.02249c4.17769,7.65099 11.95041,8.08743 11.95041,11.33418c0,8.20274 -7.56061,19.25304 -19.94065,19.25304c-12.38004,0 -22.41604,-6.64962 -22.41604,-14.85234c0,-8.20272 -0.41562,-46.75737 11.9644,-46.75737z" fill="#cecece" stroke="none" stroke-linecap="butt"/><path d="M163.95096,160.50006c0,-15.26619 6.0339,-27.64186 13.47712,-27.64186c4.49789,0 16.45742,2.59395 18.90551,9.53932c1.60308,4.548 -5.42838,12.06161 -5.42838,18.10254c0,5.60366 5.78808,12.19307 4.39082,16.54873c-2.4093,7.51055 -13.15687,11.09315 -17.86794,11.09315c-7.44322,0 -13.47712,-12.3757 -13.47712,-27.64188z" fill="none" stroke="#000000" stroke-linecap="butt"/><path d="M133.42589,152.11594c0,-13.24814 -6.04095,-31.60688 -1.09724,-40.4918c5.25947,-9.45237 21.75514,-9.016 29.97679,-9.016c9.27277,0 21.65047,-4.61009 26.93448,7.03531c1.44165,3.17728 0.84596,14.52609 -2.39366,21.04939c-2.24247,4.51538 -6.75453,3.71022 -8.60973,8.65701c-2.53805,6.76763 -1.62884,14.43489 -1.62884,18.542c0,10.90919 19.94521,22.91957 16.45805,31.10152c-5.25291,12.325 -21.17429,12.63038 -30.76032,12.63038c-6.15964,0 -19.57007,0.54478 -24.25812,-5.08834c-0.33934,-0.40776 -0.39829,-0.55268 -0.72672,-0.98445c-6.88304,-9.04889 -3.89471,-27.41634 -3.89471,-43.43503z" fill="#00ffe6" stroke="#000000" stroke-linecap="butt"/><path d="M133.14613,185.25398c0,-5.33418 0.63867,-17.72082 0.55983,-37.26619c-0.04022,-9.96976 -5.26458,-21.66719 -4.21361,-30.44254c0.70636,-5.89782 6.81098,-11.07891 9.60244,-11.26344c0.61868,-0.04091 -1.91321,50.5252 4.74515,67.80264c4.40565,11.43194 18.86532,15.98279 19.28591,15.98279c7.17553,0 12.96011,-4.20208 18.35856,-16.44437c3.58467,-8.12911 10.08958,8.4263 12.01356,8.22728c1.8644,-0.19285 -0.39239,0.45987 -0.39239,3.40381c0,10.55718 -13.42238,19.11551 -29.97972,19.11551c-16.55734,0 -29.97972,-8.55831 -29.97972,-19.11551z" fill="#00d6c0" stroke="none" stroke-linecap="butt"/><path d="M133.97128,152.66133c0,-13.24814 -6.04095,-31.60688 -1.09724,-40.4918c5.25947,-9.45237 21.75514,-9.016 29.97679,-9.016c9.27277,0 21.65047,-4.61009 26.93448,7.03531c1.65631,3.65036 1.44623,18.18439 -2.9628,25.3843c-2.04797,3.34431 -8.2374,-1.58046 -9.72382,2.16155c-2.66455,6.7079 -0.49571,15.72852 -0.49571,19.87744c0,10.90919 20.4953,23.74468 17.00815,31.92663c-5.25289,12.325 -21.17427,12.63038 -30.7603,12.63038c-6.15964,0 -19.57007,0.54478 -24.25812,-5.08834c-0.33934,-0.40776 -0.39831,-0.55266 -0.72674,-0.98443c-6.88304,-9.04887 -3.89471,-27.41634 -3.89471,-43.43503z" fill="none" stroke="#000000" stroke-linecap="butt"/><path d="M136.99673,112.78003l4.67574,3.57555l3.02547,7.15113l-1.9253,6.05096l-7.70123,16.77765" fill="none" stroke="#000000" stroke-linecap="round"/><path d="M144.14786,140.28436l-7.15113,-3.30051" fill="none" stroke="#000000" stroke-linecap="round"/><path d="M138.92203,132.03308l7.15113,-0.27504" fill="none" stroke="#000000" stroke-linecap="round"/><path d="M137.27179,117.18071l3.8506,-4.12564" fill="none" stroke="#000000" stroke-linecap="round"/><path d="M147.17334,118.2809l-6.60104,3.57555" fill="none" stroke="#000000" stroke-linecap="round"/><path d="M146.07316,125.98213l-7.42617,1.37521" fill="none" stroke="#000000" stroke-linecap="round"/><path d="M184.57925,134.23342l-9.62653,-0.82513l-2.47538,-1.9253l0.27504,-3.30053l1.65026,-4.4007l1.10017,-2.75043l4.12564,-3.30053l-4.12564,-3.30051l-3.57557,1.9253l-1.9253,4.4007l-1.65026,2.75043h-4.95077l-4.4007,-3.57557l1.9253,-5.22581l3.57555,-1.9253l0.82513,-4.12564" fill="none" stroke="#000000" stroke-linecap="round"/><path d="M163.12585,116.3556l-5.77591,0.5501" fill="none" stroke="#000000" stroke-linecap="round"/><path d="M160.10038,126.25717l4.12564,-6.60104" fill="none" stroke="#000000" stroke-linecap="round"/><path d="M167.25151,120.48125l1.9253,5.22583" fill="none" stroke="#000000" stroke-linecap="round"/><path d="M168.90178,114.70534l4.40068,4.12564" fill="none" stroke="#000000" stroke-linecap="round"/><path d="M181.27872,113.8802l-4.12564,3.57557" fill="none" stroke="#000000" stroke-linecap="round"/><path d="M173.85255,121.85647h4.67574" fill="none" stroke="#000000" stroke-linecap="round"/><path d="M170.82706,128.18247l6.05096,-2.75043" fill="none" stroke="#000000" stroke-linecap="round"/><path d="M175.77785,130.10778l-2.20036,2.75043" fill="none" stroke="#000000" stroke-linecap="round"/><path d="M172.75238,156.78699l-10.45164,2.4754v6.05094l-6.05096,2.47538l-1.65026,4.67574h-4.67574l-5.50087,2.47538l-5.22581,0.27506l-3.02547,3.02547" fill="none" stroke="#000000" stroke-linecap="round"/><path d="M141.94752,171.08924l0.5501,7.70123" fill="none" stroke="#000000" stroke-linecap="round"/><path d="M149.09864,177.41522l-2.47538,-7.97625" fill="none" stroke="#000000" stroke-linecap="round"/><path d="M157.07491,176.59011l-4.4007,-9.90157" fill="none" stroke="#000000" stroke-linecap="round"/><path d="M158.17507,161.18767l5.77591,6.87608" fill="none" stroke="#000000" stroke-linecap="round"/><path d="M164.22604,154.03653l2.47538,7.15113" fill="none" stroke="#000000" stroke-linecap="round"/><path d="M171.37715,154.31159l3.8506,7.70123" fill="none" stroke="#000000" stroke-linecap="round"/></g><path d="M177.32795,23.19234l7.15113,4.95077" fill="none" stroke="#000000" stroke-linecap="round"/><g><g data-paper-data="{&quot;index&quot;:null}" stroke-linecap="butt"><path d="M210.30168,84.87902c-0.40405,5.60584 2.4554,10.65574 -6.78667,9.98959c-9.24205,-0.66614 -27.08587,-6.79606 -26.68181,-12.4019c0.40405,-5.60584 18.78679,-10.77921 28.02885,-10.11307c9.24205,0.66614 5.84368,6.91952 5.43961,12.52537z" fill="#808080" stroke="#000000"/><path d="M210.03725,92.43859c-0.1911,2.65141 -3.90246,1.7869 -9.88707,1.35555c-5.98461,-0.43135 -10.6812,-2.93042 -10.4901,-5.58185c0.0977,-1.35546 9.10305,1.72636 13.51476,-1.72168c4.218,-3.29664 3.78287,-13.16334 6.70801,-12.95252c5.98461,0.43135 0.3455,16.24906 0.15439,18.90048z" fill="#5f5f5f" stroke="none"/><path d="M210.07187,84.30624c-0.40405,5.60584 2.4554,10.65576 -6.78666,9.98961c-9.24205,-0.66614 -27.08587,-6.79606 -26.68182,-12.40192c0.40405,-5.60584 18.78679,-10.77921 28.02885,-10.11307c9.24205,0.66614 5.84368,6.91952 5.43961,12.52537z" fill="none" stroke="#000000"/></g><g stroke-linecap="butt"><path d="M100.56774,87.99531c0.40405,-5.60586 -2.06242,-12.28196 7.17964,-11.61582c9.24205,0.66614 26.69288,8.42228 26.28882,14.02812c-0.40405,5.60586 -18.94249,9.11346 -28.18456,8.44732c-9.24208,-0.66614 -5.68798,-5.2538 -5.28393,-10.85962z" fill="#808080" stroke="#000000"/><path d="M99.74532,95.51467c0.1911,-2.65141 -3.12132,-19.11434 2.86329,-18.68297c2.92512,0.21084 1.07953,9.9132 4.78116,13.78065c3.87162,4.04504 13.22584,2.28652 13.12814,3.642c-0.1911,2.65141 -5.19753,4.45114 -11.18214,4.01978c-5.98461,-0.43135 -9.78159,-0.10802 -9.59049,-2.75943z" fill="#5f5f5f" stroke="none"/><path d="M100.87723,87.46144c0.40405,-5.60586 -2.06242,-12.28196 7.17964,-11.61582c9.24208,0.66614 26.6929,8.42228 26.28884,14.02813c-0.40405,5.60586 -18.94249,9.11346 -28.18456,8.44732c-9.24205,-0.66614 -5.68797,-5.25379 -5.28391,-10.85962z" fill="none" stroke="#000000"/></g><path d="M197.19688,48.37893c8.35593,23.15565 -3.89356,48.79175 -27.36002,57.25984c-23.46645,8.46809 -49.26359,-3.43852 -57.61953,-26.59418c-8.35593,-23.15565 3.89356,-48.79175 27.36002,-57.25984c23.46645,-8.46809 49.2636,3.43854 57.61953,26.59418z" fill="#00ffe6" stroke="#000000" stroke-linecap="butt"/><path d="M150.17464,45.29835c17.08602,-0.31846 31.05746,5.88718 31.20609,13.86066c0.14862,7.97349 -13.58186,14.69544 -30.66792,15.01389c-17.08605,0.31846 -31.05749,-5.8872 -31.20611,-13.86068c-0.14862,-7.97349 13.58189,-14.69542 30.66793,-15.01387z" fill="#00d6c0" stroke="none" stroke-linecap="butt"/><path d="M158.81601,80.81259c17.4385,-8.04431 28.46776,-32.1485 37.71756,-31.48182c4.97502,0.35858 1.26229,15.96061 1.6037,19.2057c0.90253,8.57858 -4.3759,10.93385 -4.91018,18.34664c-0.7364,10.2169 -25.23735,20.3755 -43.36408,19.06899c-18.12673,-1.30651 -32.22438,-10.64807 -31.48798,-20.86496c0.36062,-5.00336 23.70542,3.44551 40.44099,-4.27455z" fill="#00d6c0" stroke="none" stroke-linecap="butt"/><path d="M197.19688,48.37893c8.35593,23.15565 -3.89356,48.79175 -27.36002,57.25984c-23.46645,8.46809 -49.26359,-3.43852 -57.61953,-26.59418c-8.35593,-23.15565 3.89356,-48.79175 27.36002,-57.25984c23.46645,-8.46809 49.2636,3.43854 57.61953,26.59418z" fill="none" stroke="#000000" stroke-linecap="butt"/><path d="M199.1248,63.31415l-15.05867,17.51004l-9.97273,-3.11819l-3.24724,11.76298l-18.62292,-7.94066l-6.56968,7.92442l-20.96691,-8.70946l-4.01063,5.70943" fill="none" stroke="#000000" stroke-linecap="round"/><path d="M133.90355,46.27227c8.1815,0.5897 14.31816,7.94581 13.70663,16.43033c-0.61153,8.48452 -7.7397,14.88454 -15.9212,14.29484c-8.1815,-0.5897 -14.31816,-7.94581 -13.70663,-16.43033c0.61153,-8.48452 7.7397,-14.88454 15.9212,-14.29484z" fill="#ff0000" stroke="#000000" stroke-linecap="butt"/><path d="M170.82901,42.87177c7.42394,0.53509 12.9465,7.84694 12.33496,16.33145c-0.61153,8.48452 -7.12557,14.9288 -14.54954,14.39372c-7.42394,-0.53509 -12.9465,-7.84694 -12.33496,-16.33145c0.61153,-8.48452 7.12557,-14.9288 14.54954,-14.39372z" fill="#ff0000" stroke="#000000" stroke-linecap="butt"/><path d="M125.80217,28.5914l8.65003,17.7204" fill="none" stroke="#000000" stroke-linecap="round"/><path d="M133.14734,33.8087l-7.78264,4.67844" fill="none" stroke="#000000" stroke-linecap="round"/><path d="M135.78932,39.23852l-8.99612,2.38491" fill="none" stroke="#000000" stroke-linecap="round"/><path d="M183.68618,32.76351l-8.82564,11.49719" fill="none" stroke="#000000" stroke-linecap="round"/><path d="M182.485,41.7769l-8.6377,-6.41347" fill="none" stroke="#000000" stroke-linecap="round"/><path d="M140.48736,77.35582l1.54214,9.21111" fill="none" stroke="#000000" stroke-linecap="round"/><path d="M138.19135,82.42973l7.33036,-2.22921" fill="none" stroke="#000000" stroke-linecap="round"/><path d="M167.66847,75.1786l0.01228,11.30692" fill="none" stroke="#000000" stroke-linecap="round"/><path d="M164.0799,79.0563l8.11379,-1.62124" fill="none" stroke="#000000" stroke-linecap="round"/></g><g stroke-linecap="butt"><path d="M121.81302,144.05341c-5.2077,-1.66862 -7.17488,-10.05741 -4.39385,-18.73688c2.78104,-8.67947 9.25717,-14.3629 14.46484,-12.69429c5.20768,1.66862 7.17488,10.05741 4.39385,18.73688c-2.78104,8.67947 -9.25719,14.3629 -14.46486,12.69429z" fill="none" stroke="#000000"/><path d="M115.29656,166.20521c-5.39068,-0.91922 -8.51872,-8.94772 -6.98668,-17.93217c1.53204,-8.98444 7.144,-15.52261 12.53467,-14.60339c5.39066,0.91922 8.51872,8.94774 6.98668,17.93219c-1.53204,8.98445 -7.144,15.52261 -12.53467,14.60339z" fill="none" stroke="#000000"/><path d="M101.10314,164.9258c0.86456,-9.07302 5.97854,-16.00768 11.42235,-15.48893c5.44381,0.51873 9.15601,8.2944 8.29147,17.36744c-0.86456,9.07302 -5.97852,16.00768 -11.42233,15.48893c-5.44381,-0.51873 -9.15603,-8.2944 -8.29149,-17.36744z" fill="none" stroke="#000000"/><path d="M97.10317,189.29752c-0.42076,-9.10443 3.66653,-16.68967 9.12917,-16.94212c5.46266,-0.25243 10.23208,6.92353 10.65283,16.02793c0.42076,9.10441 -3.66653,16.68965 -9.12917,16.9421c-5.46266,0.25245 -10.23208,-6.92351 -10.65284,-16.02791z" fill="none" stroke="#000000"/><path d="M105.73879,193.11117c11.98553,0.59482 21.20425,11.10068 20.59061,23.46548c-0.61364,12.3648 -10.82728,21.90627 -22.81281,21.31145c-11.98553,-0.59482 -21.20425,-11.10068 -20.59061,-23.46548c0.61364,-12.3648 10.82728,-21.90627 22.81281,-21.31145z" fill="#00ffe6" stroke="#000000"/><path d="M101.02346,193.6986c1.85141,0.09188 -4.52264,6.15929 -6.85859,13.14509c-3.0318,9.06675 -2.2793,19.71931 0.97299,21.26197c9.64256,4.57375 30.3926,-6.6229 30.1946,-2.63328c-0.31623,6.37206 -9.79681,11.07985 -21.17549,10.51515c-11.37868,-0.5647 -20.34654,-6.18806 -20.0303,-12.56011c0.31623,-6.37204 5.51811,-30.29352 16.89678,-29.72882z" fill="#00d6c0" stroke="none"/><path d="M105.99544,193.39457c11.98553,0.59482 21.20425,11.1007 20.59061,23.4655c-0.61364,12.3648 -10.82728,21.90627 -22.81281,21.31145c-11.98553,-0.59482 -21.20428,-11.10066 -20.59063,-23.46548c0.61364,-12.36482 10.8273,-21.90629 22.81283,-21.31147z" fill="none" stroke="#000000"/></g><g stroke-linecap="butt"><path d="M200.35581,139.16406c-5.26851,1.46534 -11.51926,-4.46505 -13.96151,-13.24588c-2.44223,-8.78082 -0.1511,-17.08698 5.11741,-18.55232c5.26851,-1.46534 11.51928,4.46505 13.96151,13.24588c2.44223,8.78082 0.1511,17.08698 -5.11741,18.55232z" fill="none" stroke="#000000"/><path d="M206.61165,161.60661c-5.35606,1.10313 -11.18848,-5.23914 -13.02705,-14.16591c-1.83857,-8.92677 1.01292,-17.05761 6.36898,-18.16075c5.35606,-1.10313 11.18846,5.23914 13.02703,14.16591c1.83857,8.92677 -1.0129,17.05761 -6.36896,18.16077z" fill="none" stroke="#000000"/><path d="M234.0103,167.40709c-2.20358,5.00486 -10.752,6.08484 -19.0934,2.4122c-8.3414,-3.67263 -13.31712,-10.70711 -11.11354,-15.71196c2.20358,-5.00486 10.752,-6.08484 19.0934,-2.4122c8.3414,3.67263 13.31714,10.70711 11.11356,15.71196z" fill="none" stroke="#000000"/><path d="M239.87067,192.52075c-4.57273,1.8856 -11.22531,-3.35495 -14.85897,-11.70509c-3.63365,-8.35013 -2.87238,-16.64782 1.70035,-18.53341c4.57273,-1.8856 11.22531,3.35495 14.85897,11.70509c3.63365,8.35013 2.87238,16.64782 -1.70035,18.53341z" fill="none" stroke="#000000"/><path d="M262.7736,200.25307c0.1335,12.37932 -9.48587,22.51964 -21.48545,22.64905c-11.99958,0.12941 -21.83538,-9.8011 -21.96889,-22.18042c-0.1335,-12.3793 9.48585,-22.51962 21.48543,-22.64903c11.99958,-0.12941 21.8354,9.8011 21.96891,22.1804z" fill="#00ffe6" stroke="#000000"/><path d="M261.22446,209.20452c0.0688,6.37953 -9.11048,11.65073 -20.50248,11.77359c-11.392,0.12286 -20.68282,-4.94918 -20.75162,-11.32869c-0.04308,-3.9943 20.25696,7.99887 30.06972,3.80266c3.30969,-1.41533 4.47487,-12.03067 1.79709,-21.20822c-2.06317,-7.07116 -8.19706,-13.38127 -6.34347,-13.40126c11.392,-0.12286 15.66197,23.98242 15.73077,30.36195z" fill="#00d6c0" stroke="none"/><path d="M262.50618,200.52632c0.1335,12.37932 -9.48587,22.51964 -21.48545,22.64905c-11.99958,0.12941 -21.83538,-9.8011 -21.96889,-22.18042c-0.1335,-12.3793 9.48585,-22.51962 21.48543,-22.64903c11.99958,-0.12941 21.8354,9.8011 21.96891,22.1804z" fill="none" stroke="#000000"/></g></g></g></svg>