<svg version="1.1" xmlns="http://www.w3.org/2000/svg" xmlns:xlink="http://www.w3.org/1999/xlink" width="878.05755" height="761.59746" viewBox="0,0,878.05755,761.59746"><g transform="translate(331.71483,39.19353)"><g data-paper-data="{&quot;isPaintingLayer&quot;:true}" fill-rule="nonzero" stroke-width="8" stroke-linejoin="miter" stroke-miterlimit="10" stroke-dasharray="" stroke-dashoffset="0" style="mix-blend-mode: normal"><g data-paper-data="{&quot;index&quot;:null}"><g><g data-paper-data="{&quot;index&quot;:null}" stroke-linecap="butt"><g><g><path d="M-29.11158,384.42516l-121.10528,101.95923l-40.58484,-49.75387l121.10533,-101.95924z" fill="#252525" stroke="#000000"/><path d="M-29.11158,384.42516l-121.10528,101.95923l-40.58484,-49.75387l121.10533,-101.95924z" fill="#252525" stroke="#000000"/><path d="M-181.81224,429.60566c6.14552,-5.17398 75.13143,-65.81205 97.50539,-81.82937c40.24143,-28.80853 20.87778,-2.73329 24.54535,1.76283c4.09026,5.01434 20.11215,19.88616 26.05764,29.61228c2.34958,3.8437 8.38401,1.47934 3.51236,5.58077c-4.07925,3.43436 -116.47498,100.59415 -123.11423,102.14042c-8.06753,1.87896 61.79732,-56.12208 72.13477,-73.17404c17.02361,-28.08106 -18.03145,-22.3422 -20.73991,-25.66263c-2.7859,-3.41531 6.65988,-19.86998 -14.3647,-7.06906c-22.04272,13.42073 -74.33935,56.04987 -65.53665,48.63876z" fill="#141414" stroke="none"/><path d="M-29.11158,384.42516l-121.10528,101.95923l-40.58484,-49.75387l121.10533,-101.95924z" fill="none" stroke="#000000"/><path d="M-29.11158,384.42516l-121.10528,101.95923l-40.58484,-49.75387l121.10533,-101.95924z" fill="none" stroke="#000000"/></g><g><path d="M-74.06809,442.05578l-24.52011,20.64365l-59.29396,-72.68975l24.52012,-20.6436z" fill="#252525" stroke="#000000"/><path d="M-74.06809,442.05578l-24.52011,20.64365l-59.29396,-72.68975l24.52012,-20.6436z" fill="#252525" stroke="#000000"/><path d="M-155.73138,388.99276c1.24431,-1.04762 13.6547,-15.23379 19.90072,-16.3732c11.23395,-2.04926 19.17027,9.94616 24.52855,16.51494c8.33739,10.22103 40.13116,49.60247 36.6489,52.5342c-0.82594,0.69538 -22.04095,22.25723 -25.84602,19.55351c-4.62366,-3.28536 10.02,-14.418 7.03183,-24.09973c-4.92099,-15.94378 -26.48799,-32.52028 -30.44504,-37.37132c-4.07015,-4.98973 -7.33226,-14.66493 -14.57123,-15.72901c-7.5895,-1.11563 -19.02993,6.47104 -17.24762,4.97054z" fill="#141414" stroke="none"/><path d="M-74.06809,442.05578l-24.52011,20.64365l-59.29396,-72.68975l24.52012,-20.6436z" fill="none" stroke="#000000"/><path d="M-74.06809,442.05578l-24.52011,20.64365l-59.29396,-72.68975l24.52012,-20.6436z" fill="none" stroke="#000000"/></g><g><path d="M-31.01376,414.4358l-24.52019,20.64364l-66.99029,-82.12492l24.52011,-20.64365z" fill="#252525" stroke="#000000"/><path d="M-31.01376,414.4358l-24.52019,20.64364l-66.99029,-82.12492l24.52011,-20.64365z" fill="#252525" stroke="#000000"/><path d="M-102.47645,347.76314c-8.06064,-1.69311 -19.62938,5.73613 -17.8471,4.2356c1.24429,-1.04759 13.42008,-15.52143 19.92461,-16.34384c11.699,-1.47919 20.80773,11.95351 26.86148,19.37495c9.41962,11.54773 45.36557,56.01946 41.88334,58.95122c-0.82594,0.69538 -21.80866,22.54201 -25.9845,19.38373c-5.07424,-3.83769 9.64459,-14.87839 5.89069,-25.49872c-6.1819,-17.48948 -29.92917,-36.73877 -34.39989,-42.2195c-4.59846,-5.63738 -8.64028,-16.26845 -16.32863,-17.88344z" fill="#141414" stroke="none"/><path d="M-31.01376,414.4358l-24.52019,20.64364l-66.99029,-82.12492l24.52011,-20.64365z" fill="none" stroke="#000000"/><path d="M-31.01376,414.4358l-24.52019,20.64364l-66.99029,-82.12492l24.52011,-20.64365z" fill="none" stroke="#000000"/></g></g><g><path d="M-115.39362,489.27542l-28.16215,23.70988l-69.18922,-84.82071l28.1621,-23.70987z" fill="#252525" stroke="#000000"/><path d="M-115.39362,489.27542l-28.16215,23.70988l-69.18922,-84.82071l28.1621,-23.70987z" fill="#252525" stroke="#000000"/><path d="M-210.26769,427.00523c1.4291,-1.20313 15.64968,-17.53718 22.85993,-18.80098c12.96832,-2.27301 22.24925,11.70729 28.50169,19.37231c9.72881,11.92673 46.83206,57.87745 42.83257,61.24459c-0.94859,0.79865 -25.28183,25.60346 -29.70453,22.43388c-5.37413,-3.85141 11.45529,-16.62471 7.91492,-27.87716c-5.83018,-18.53048 -30.90894,-37.9471 -35.52635,-43.60769c-4.74938,-5.82244 -8.60627,-17.06985 -16.98403,-18.36988c-8.78342,-1.36295 -21.94121,7.32831 -19.89422,5.6049z" fill="#141414" stroke="none"/><path d="M-115.39362,489.27542l-28.16215,23.70988l-69.18922,-84.82071l28.1621,-23.70987z" fill="none" stroke="#000000"/><path d="M-115.39362,489.27542l-28.16215,23.70988l-69.18922,-84.82071l28.1621,-23.70987z" fill="none" stroke="#000000"/></g></g><g><path d="M72.18614,200.89236c11.68365,7.14558 33.26384,23.55586 35.62817,36.79464c2.32969,13.04461 -14.4122,22.87544 -22.26027,35.70773c-15.81301,25.85566 -199.15613,254.08457 -222.35202,239.89824c-8.83353,-5.40248 31.93039,-49.40168 27.53223,-70.72582c-4.57304,-22.1719 -47.47938,-23.49958 -57.17626,-38.9831c-5.46635,-8.72841 8.23604,-23.81307 11.76572,-29.58441c15.81301,-25.85566 203.66663,-187.29368 226.86249,-173.10737z" fill="#003aff" stroke="#000000" stroke-linecap="butt"/><path d="M-142.02084,423.0337c8.22827,5.03231 32.60844,5.08206 69.76938,-22.24984c72.06477,-53.0039 172.2001,-152.87598 155.69558,-125.88964c-25.01521,40.90206 -198.79477,256.78111 -222.97982,241.98982c-10.42531,-6.37599 31.21779,-41.42312 27.45823,-67.49333c-3.22766,-22.38182 -37.78928,-26.75457 -48.22613,-44.34281c-5.60813,-9.45084 5.32595,-33.76839 10.30041,-41.90207c25.01521,-40.90206 -16.20264,45.09662 7.98235,59.88787z" fill="#0029ae" stroke="none" stroke-linecap="butt"/><path d="M73.41028,198.89073c10.88839,6.65921 36.2271,21.67744 39.05631,33.81659c3.19799,13.72127 -17.29821,24.96698 -25.68845,38.68576c-15.81301,25.85566 -196.96524,255.42449 -220.16113,241.23816c-11.63848,-7.11796 23.19221,-42.86278 19.11767,-73.13122c-2.48166,-18.43547 -38.29547,-20.47001 -49.36353,-33.34396c-6.97754,-8.11599 7.13016,-29.17683 10.17662,-34.15806c15.81301,-25.85566 203.66663,-187.29368 226.86249,-173.10737z" fill="none" stroke="#000000" stroke-linecap="butt"/><path d="M-48.0032,272.75839l35.24369,121.23576" fill="none" stroke="#000000" stroke-linecap="round"/></g></g><g><g stroke-linecap="butt"><path d="M-246.93662,482.54336c14.86627,-32.56213 50.97298,-47.97657 80.64652,-34.42905c29.67355,13.54745 41.67722,50.92675 26.81099,83.48888c-14.86628,32.56216 -50.97301,47.97652 -80.64655,34.429c-29.67358,-13.54745 -41.67722,-50.92675 -26.81096,-83.48884z" fill="#ffffff" stroke="#000000"/><path d="M-252.4663,506.85348c8.39224,-18.38185 21.16572,-73.07677 47.42553,-61.08779c4.40569,2.01137 -15.12543,18.40591 -22.08331,41.1542c-6.59991,21.57799 -0.64774,49.43862 3.19002,55.80747c16.23177,26.93729 72.21164,-4.83076 66.56293,7.54188c-8.39228,18.38184 -36.48328,23.56435 -62.74304,11.57538c-26.25977,-11.98897 -40.74427,-36.60934 -32.35202,-54.99119z" fill="#adadad" stroke="none"/><path d="M-167.80748,451.12953c29.67358,13.54745 41.67722,50.92675 26.81099,83.48884c-14.86628,32.56216 -50.97291,47.97658 -80.64652,34.42905c-29.67358,-13.54745 -41.67722,-50.92675 -26.81095,-83.48887c14.86628,-32.56216 50.97291,-47.97658 80.64652,-34.42905z" fill="none" stroke="#000000"/></g><g data-paper-data="{&quot;index&quot;:null}"><path d="M-182,603.91921c9.73912,25.32717 7.58686,49.72239 -4.80729,54.48835c-12.39415,4.76596 -30.33664,-11.90211 -40.0758,-37.22925c-5.18729,-13.48982 2.88339,-63.49642 20.09602,-77.07441c15.10415,-11.91471 38.88698,11.83357 44.67974,9.60612c12.39415,-4.76596 -29.63184,24.88212 -19.89271,50.20922z" fill="#ffffff" stroke="#000000" stroke-linecap="butt"/><path d="M-180.75311,592.21708c-2.03502,16.74204 5.23377,31.33608 1.80494,45.05826c-3.66575,14.67006 -12.28599,19.21489 -12.28599,19.21489c-7.00537,2.69381 -15.95997,-3.64088 -20.00067,-14.14897c-4.0407,-10.50809 22.45994,-95.43629 29.46539,-98.13008c2.57071,-0.98854 18.17059,1.13 14.852,14.65291c-1.57809,6.43057 -12.40876,21.61429 -13.83559,33.353z" fill="#adadad" stroke="none" stroke-linecap="butt"/><path d="M-181.04998,603.12799c9.73912,25.32713 7.58683,49.72238 -4.80725,54.48832c-12.39411,4.76593 -30.33667,-11.90215 -40.0758,-37.22925c-5.18729,-13.48982 2.88343,-63.49642 20.09605,-77.0744c15.10415,-11.91471 38.88698,11.83357 44.67975,9.60608c12.39411,-4.76593 -29.63181,24.88217 -19.89267,50.20922z" fill="none" stroke="#000000" stroke-linecap="butt"/><path d="M-185.63174,597.03812l-38.95228,-5.18146" fill="none" stroke="#000000" stroke-linecap="round"/></g><g data-paper-data="{&quot;index&quot;:null}"><path d="M-278.72764,557.85746c-5.12699,26.64639 -19.85404,46.2136 -32.89374,43.70462c-13.0397,-2.50898 -19.45421,-26.14395 -14.32719,-52.79029c2.73076,-14.19244 36.02433,-52.36753 57.8135,-54.7897c19.12008,-2.12541 26.74753,30.60721 32.84198,31.77985c13.0397,2.50898 -38.30757,5.44921 -43.43455,32.09553z" fill="#ffffff" stroke="#000000" stroke-linecap="butt"/><path d="M-271.48121,548.58468c-10.58043,13.13362 -12.12847,29.364 -22.29505,39.19744c-10.86883,10.51269 -20.5885,9.81171 -20.5885,9.81171c-7.37026,-1.41812 -11.62067,-11.5299 -9.49353,-22.58528c2.12715,-11.05541 69.52969,-69.12418 76.89999,-67.70609c2.70465,0.5204 14.82469,10.56776 4.8571,20.29036c-4.73989,4.62344 -21.96155,11.78317 -29.38002,20.99189z" fill="#adadad" stroke="none" stroke-linecap="butt"/><path d="M-277.50293,557.68833c-5.12694,26.64636 -19.854,46.21357 -32.89366,43.70463c-13.03967,-2.50894 -19.4542,-26.14399 -14.32722,-52.79034c2.73076,-14.19244 36.02436,-52.36753 57.8135,-54.7897c19.12008,-2.12541 26.7475,30.6072 32.84198,31.77985c13.03967,2.50894 -38.30761,5.44921 -43.43455,32.09556z" fill="none" stroke="#000000" stroke-linecap="butt"/><path d="M-278.17124,550.09673l-30.32063,-24.99579" fill="none" stroke="#000000" stroke-linecap="round"/></g><g data-paper-data="{&quot;index&quot;:null}"><path d="M-238.67319,587.74785c2.29145,27.03819 -6.5772,49.86597 -19.80867,50.9873c-13.23147,1.12133 -25.81522,-19.88835 -28.10667,-46.92654c-1.22046,-14.40111 20.4726,-60.17464 40.78836,-68.41509c17.82713,-7.23098 34.04556,22.20649 40.22971,21.68241c13.23147,-1.12133 -35.39422,15.63376 -33.10276,42.67187z" fill="#ffffff" stroke="#000000" stroke-linecap="butt"/><path d="M-234.21303,576.8574c-6.6222,15.51078 -3.71058,31.55271 -10.82941,43.77472c-7.61055,13.06628 -17.15614,15.02748 -17.15614,15.02748c-7.47864,0.6338 -14.312,-7.94635 -15.26271,-19.16433c-0.95072,-11.21795 48.17811,-85.3897 55.65679,-86.02353c2.74442,-0.23259 17.135,6.15136 10.17766,18.21274c-3.30845,5.73557 -17.94303,17.29749 -22.58619,28.1729z" fill="#adadad" stroke="none" stroke-linecap="butt"/><path d="M-237.54024,587.2529c2.29145,27.03819 -6.5772,49.86597 -19.80863,50.98731c-13.23143,1.12134 -25.81525,-19.88839 -28.10671,-46.92654c-1.22046,-14.40111 20.47264,-60.17463 40.78839,-68.41505c17.82713,-7.23098 34.04556,22.20649 40.22967,21.68241c13.23143,-1.12134 -35.39418,15.63373 -33.10277,42.67191z" fill="none" stroke="#000000" stroke-linecap="butt"/><path d="M-240.24236,580.127l-35.96301,-15.83631" fill="none" stroke="#000000" stroke-linecap="round"/></g><g><path d="M-155.25146,596.3481c11.26961,-24.68416 -28.86484,-56.84656 -16.78527,-51.33164c5.64569,2.57752 30.8362,-19.67203 45.18347,-6.85607c16.35016,14.60506 21.34796,65.01164 15.34551,78.15901c-11.26961,24.6842 -30.19775,40.22395 -42.27728,34.70903c-12.07953,-5.51491 -12.7361,-29.99607 -1.46647,-54.68034z" fill="#ffffff" stroke="#000000" stroke-linecap="butt"/><path d="M-167.55074,550.45503c-2.48552,-13.70054 13.2147,-14.86117 15.72019,-13.71729c3.34996,1.52941 10.17397,23.10613 15.70412,45.89903c5.74077,23.66109 10.08728,48.63282 7.70574,53.84914c-4.67568,10.2413 -14.00089,16.01658 -20.82843,12.89948c0,0 -8.32621,-5.06341 -11.08804,-19.93017c-2.58341,-13.90619 5.56419,-28.02845 4.55673,-44.8636c-0.70636,-11.80404 -10.58836,-27.62159 -11.77022,-34.13661z" fill="#adadad" stroke="none" stroke-linecap="butt"/><path d="M-172.93662,544.16858c5.64569,2.57752 30.8362,-19.67203 45.18351,-6.85606c16.35016,14.60506 21.34796,65.01164 15.34551,78.15897c-11.26961,24.68416 -30.19779,40.22398 -42.27728,34.70907c-12.07949,-5.51491 -12.73604,-29.99617 -1.46643,-54.68034c11.26961,-24.68416 -28.8648,-56.84655 -16.78531,-51.33165z" fill="none" stroke="#000000" stroke-linecap="butt"/><path d="M-151.20584,589.70195l39.19626,-2.78992" fill="none" stroke="#000000" stroke-linecap="round"/></g></g></g><g data-paper-data="{&quot;index&quot;:null}"><g data-paper-data="{&quot;index&quot;:null}" stroke-linecap="butt"><g><g><path d="M346.24284,368.97223l59.85638,146.55852l-59.05687,25.19648l-59.85634,-146.55849z" fill="#252525" stroke="#000000"/><path d="M346.24284,368.97223l59.85638,146.55852l-59.05687,25.19648l-59.85634,-146.55849z" fill="#252525" stroke="#000000"/><path d="M401.40365,505.13304c4.35073,10.65286 -22.14733,-51.39579 -35.42914,-73.52248c-12.6683,-21.10473 -11.95059,-2.1452 -16.0045,-0.41562c-3.94121,1.68154 -32.31478,-19.68974 -30.28977,13.086c1.2297,19.90278 36.1408,103.72659 29.87035,98.31393c-5.16037,-4.45439 -59.53487,-142.71586 -61.55102,-147.65249c-2.40781,-5.8955 1.83681,-0.99779 5.70344,-3.30946c9.78421,-5.84945 30.88193,-11.57286 36.83386,-14.11224c5.3368,-2.27692 0.30765,-34.36396 22.55343,9.84498c12.3685,24.57981 45.27593,110.33023 48.31336,117.76741z" fill="#141414" stroke="none"/><path d="M346.24284,368.97223l59.85638,146.55852l-59.05687,25.19648l-59.85634,-146.55849z" fill="none" stroke="#000000"/><path d="M346.24284,368.97223l59.85638,146.55852l-59.05687,25.19648l-59.85634,-146.55849z" fill="none" stroke="#000000"/></g><g><path d="M386.49489,429.27822l12.1191,29.67361l-86.28137,36.81171l-12.11906,-29.67362z" fill="#252525" stroke="#000000"/><path d="M386.49489,429.27822l12.1191,29.67361l-86.28137,36.81171l-12.11906,-29.67362z" fill="#252525" stroke="#000000"/><path d="M397.18207,457.05185c0.88092,2.15688 -5.72386,-9.87714 -12.96258,-12.41604c-6.90439,-2.42164 -14.28888,4.62965 -20.21155,7.15655c-5.75807,2.45665 -32.55802,7.11281 -44.32432,18.94387c-7.14494,7.18435 0.64846,23.84675 -4.97236,24.60729c-4.62568,0.62589 -13.39148,-28.32495 -13.79969,-29.32448c-1.72108,-4.21415 44.73157,-24.3112 56.86371,-29.48736c7.79706,-3.32654 20.39859,-10.26025 29.39368,-3.22541c5.00119,3.91136 9.39813,22.23983 10.01312,23.74568z" fill="#141414" stroke="none"/><path d="M386.49489,429.27822l12.1191,29.67361l-86.28137,36.81171l-12.11906,-29.67362z" fill="none" stroke="#000000"/><path d="M386.49489,429.27822l12.1191,29.67361l-86.28137,36.81171l-12.11906,-29.67362z" fill="none" stroke="#000000"/></g><g><path d="M372.40544,380.03641l12.11906,29.67362l-97.48066,41.5899l-12.11912,-29.67368z" fill="#252525" stroke="#000000"/><path d="M372.40544,380.03641l12.11906,29.67362l-97.48066,41.5899l-12.11912,-29.67368z" fill="#252525" stroke="#000000"/><path d="M369.18516,395.79729c-7.55829,-2.14266 -16.07736,5.39272 -22.7688,8.2476c-6.50552,2.77554 -36.47804,8.78521 -50.07913,21.39903c-8.25913,7.65964 -0.35647,24.27557 -6.63292,25.3158c-5.16523,0.8561 -13.59301,-28.23898 -14.00123,-29.23851c-1.72108,-4.21415 50.77362,-26.88908 64.48056,-32.7371c8.8091,-3.75839 23.11666,-11.41998 32.78847,-4.6738c5.37745,3.75082 9.43295,22.22499 10.04794,23.7308c0.88087,2.15685 -5.91063,-9.7974 -13.83491,-12.04387z" fill="#141414" stroke="none"/><path d="M372.40544,380.03641l12.11906,29.67362l-97.48066,41.5899l-12.11912,-29.67368z" fill="none" stroke="#000000"/><path d="M372.40544,380.03641l12.11906,29.67362l-97.48066,41.5899l-12.11912,-29.67368z" fill="none" stroke="#000000"/></g></g><g><path d="M415.5443,484.15006l13.91913,34.08109l-100.68047,42.95511l-13.91914,-34.08113z" fill="#252525" stroke="#000000"/><path d="M415.5443,484.15006l13.91913,34.08109l-100.68047,42.95511l-13.91914,-34.08113z" fill="#252525" stroke="#000000"/><path d="M412.79732,501.84575c-8.02239,-2.74191 -16.66412,5.42516 -23.57519,8.37379c-6.719,2.86666 -37.94824,8.40574 -51.72164,22.1048c-8.36378,8.31858 0.60262,27.44944 -5.94575,28.36247c-5.38905,0.75143 -15.40899,-32.51997 -15.87783,-33.66796c-1.97679,-4.84006 52.22997,-28.28677 66.38679,-34.32672c9.09825,-3.88173 23.81275,-11.94821 34.23961,-3.90927c5.79723,4.4696 10.79895,25.54111 11.5053,27.27053c1.01172,2.47722 -6.60043,-11.33293 -15.01129,-14.20762z" fill="#141414" stroke="none"/><path d="M415.5443,484.15006l13.91913,34.08109l-100.68047,42.95511l-13.91914,-34.08113z" fill="none" stroke="#000000"/><path d="M415.5443,484.15006l13.91913,34.08109l-100.68047,42.95511l-13.91914,-34.08113z" fill="none" stroke="#000000"/></g></g><g data-paper-data="{&quot;index&quot;:null}" stroke-linecap="butt"><g><g><path d="M293.60769,410.3817l-108.91809,-136.49953l47.9136,-45.49954l108.9181,136.49957z" fill="#252525" stroke="#000000"/><path d="M293.60769,410.3817l-108.91809,-136.49953l47.9136,-45.49954l108.9181,136.49957z" fill="#252525" stroke="#000000"/><path d="M240.14147,238.51318c5.52709,6.92674 70.14421,84.68923 87.4306,109.89899c31.09113,45.34196 3.84597,23.48845 -0.48386,27.60015c-4.82891,4.5856 -18.94627,22.5615 -28.41706,29.21994c-3.74275,2.63131 -1.04762,9.42489 -5.429,3.93403c-3.66874,-4.59777 -107.30175,-131.28802 -109.20588,-138.7595c-2.31375,-9.07872 59.69703,69.66458 77.39192,81.34037c29.1398,19.22755 21.52598,-20.21434 24.72358,-23.25081c3.28898,-3.12328 20.33625,7.54796 6.35598,-16.13492c-14.65724,-24.82968 -60.28321,-83.76995 -52.36631,-73.84828z" fill="#141414" stroke="none"/><path d="M293.60769,410.3817l-108.91809,-136.49953l47.9136,-45.49954l108.9181,136.49957z" fill="none" stroke="#000000"/><path d="M293.60769,410.3817l-108.91809,-136.49953l47.9136,-45.49954l108.9181,136.49957z" fill="none" stroke="#000000"/></g><g><path d="M233.27789,359.65301l-22.05256,-27.63695l70.00118,-66.47434l22.05257,27.63703z" fill="#252525" stroke="#000000"/><path d="M233.27789,359.65301l-22.05256,-27.63695l70.00118,-66.47434l22.05257,27.63703z" fill="#252525" stroke="#000000"/><path d="M282.36234,267.96364c1.11908,1.40248 16.04037,15.40126 17.5145,22.42924c2.65137,12.64039 -8.99747,21.53116 -15.32326,27.53833c-9.84295,9.34702 -47.78517,44.98975 -50.91699,41.06487c-0.74281,-0.93094 -23.54538,-24.85342 -21.02573,-29.12499c3.06174,-5.1905 15.0288,11.31109 24.61029,7.97857c15.7787,-5.48809 31.31948,-29.69553 35.9911,-34.13177c4.80516,-4.56305 14.3657,-8.20368 15.05577,-16.34199c0.72347,-8.53239 -7.50857,-21.42112 -5.90563,-19.41224z" fill="#141414" stroke="none"/><path d="M233.27789,359.65301l-22.05256,-27.63695l70.00118,-66.47434l22.05257,27.63703z" fill="none" stroke="#000000"/><path d="M233.27789,359.65301l-22.05256,-27.63695l70.00118,-66.47434l22.05257,27.63703z" fill="none" stroke="#000000"/></g><g><path d="M263.32122,408.15501l-22.05261,-27.63702l79.08735,-75.10267l22.05261,27.63702z" fill="#252525" stroke="#000000"/><path d="M263.32122,408.15501l-22.05261,-27.63702l79.08735,-75.10267l22.05261,27.63702z" fill="#252525" stroke="#000000"/><path d="M321.43296,307.8931c1.11908,1.40248 16.31737,15.13824 17.48624,22.45607c2.10235,13.16177 -10.93058,23.3669 -18.07753,30.15377c-11.12061,10.56032 -53.96481,50.85804 -57.09663,46.93316c-0.74281,-0.93094 -23.81968,-24.593 -20.86223,-29.28028c3.59366,-5.69565 15.4722,10.8902 25.95759,6.69922c17.26723,-6.90167 35.38198,-33.55339 40.65996,-38.56547c5.42884,-5.15533 15.90994,-9.67012 17.13054,-18.31222c1.27967,-9.06061 -6.80085,-22.09314 -5.19792,-20.0843z" fill="#141414" stroke="none"/><path d="M263.32122,408.15501l-22.05261,-27.63702l79.08735,-75.10267l22.05261,27.63702z" fill="none" stroke="#000000"/><path d="M263.32122,408.15501l-22.05261,-27.63702l79.08735,-75.10267l22.05261,27.63702z" fill="none" stroke="#000000"/></g></g><g><path d="M183.6108,313.03817l-25.32811,-31.74198l81.68339,-77.56788l25.32811,31.74198z" fill="#252525" stroke="#000000"/><path d="M183.6108,313.03817l-25.32811,-31.74198l81.68339,-77.56788l25.32811,31.74198z" fill="#252525" stroke="#000000"/><path d="M241.26236,206.51792c1.28528,1.61077 18.46203,17.65172 20.11198,25.76452c2.96753,14.59162 -10.6072,24.98881 -17.98873,31.99849c-11.48561,10.9069 -55.75661,52.50196 -59.35363,47.99406c-0.85314,-1.06921 -27.08148,-28.50812 -24.12561,-33.47293c3.5917,-6.03289 17.32381,12.93171 28.45626,8.98275c18.33284,-6.50314 36.54587,-34.65176 41.99707,-39.82833c5.60709,-5.32457 16.71787,-9.62952 17.58544,-19.0479c0.90957,-9.87442 -8.52377,-24.69785 -6.68279,-22.39062z" fill="#141414" stroke="none"/><path d="M183.6108,313.03817l-25.32811,-31.74198l81.68339,-77.56788l25.32811,31.74198z" fill="none" stroke="#000000"/><path d="M183.6108,313.03817l-25.32811,-31.74198l81.68339,-77.56788l25.32811,31.74198z" fill="none" stroke="#000000"/></g></g><g data-paper-data="{&quot;index&quot;:null}"><g stroke-linecap="butt"><path d="M348.25798,699.60663l1.50355,-87.72644l36.86935,-4.52769l-1.5036,87.72641z" fill="#252525" stroke="#000000"/><path d="M348.25798,699.60663l1.50355,-87.72644l36.86935,-4.52769l-1.5036,87.72641z" fill="#252525" stroke="#000000"/><path d="M348.25798,699.60663l1.50355,-87.72644l36.86935,-4.52769l-1.5036,87.72641z" fill="none" stroke="#000000"/><path d="M386.28379,613.70327c-0.07631,4.45178 0.17586,55.182 -1.32366,70.55372c-2.69698,27.64725 -3.87321,9.76433 -7.20506,10.1735c-5.18421,0.63672 -29.43633,17.03092 -29.22281,4.57237c0.05065,-2.95493 0.34841,-85.12301 2.18289,-88.73411c2.22914,-4.38796 1.00703,45.97838 4.49643,55.94079c2.75629,7.86952 14.27267,6.83365 19.84112,-3.8225c6.04057,-11.55961 6.09102,-33.1807 7.37135,-33.33792c2.53083,-0.31084 -2.17073,43.96818 0.2135,30.19039c2.49968,-14.44495 3.75552,-51.91273 3.64623,-45.53623z" fill="#141414" stroke="none"/><path d="M348.25798,699.60663l1.50355,-87.72644l36.86935,-4.52769l-1.5036,87.72641z" fill="none" stroke="#000000"/></g><path d="M382.79606,651.689l-30.44332,2.3397" fill="none" stroke="#000000" stroke-linecap="round"/></g><g stroke-linecap="butt"><path d="M391.46222,648.33962l-46.54449,-81.20492l90.98355,-52.14931l46.54449,81.20492z" fill="#252525" stroke="#000000"/><path d="M383.21017,640.78692c-6.79654,-11.85778 -50.26473,-66.36386 -24.90552,-80.89907c6.45451,-3.69952 21.97601,64.09504 33.63175,64.05978c10.79174,-0.03264 37.9012,-7.12054 53.14026,-28.50277c2.64528,-3.71164 6.01062,-16.51207 1.51339,-33.71677c-4.35662,-16.66682 -16.55233,-37.72442 -15.82268,-42.93804c0.8629,-6.16588 24.09118,33.62351 25.8784,31.67191c2.90206,-3.16896 5.13274,6.23514 6.05846,7.38683c2.72114,3.38536 -1.55405,10.69357 0.64819,12.82992c0.81356,0.78926 12.04247,17.09824 12.60411,18.07812c6.79655,11.85782 -18.533,26.1555 -43.89221,40.69072c-25.35921,14.53522 -42.0576,23.19712 -48.85414,11.33934z" fill="#141414" stroke="none"/><path d="M390.82983,648.16804l-46.54449,-81.20492l90.98352,-52.1493l46.54449,81.20492z" fill="none" stroke="#000000"/></g><g><g stroke-linecap="butt"><path d="M413.42931,717.77016l-29.92077,-82.47992l36.34047,-7.69523l29.92074,82.47992z" fill="#252525" stroke="#000000"/><path d="M413.42931,717.77016l-29.92077,-82.47992l36.34047,-7.69523l29.92074,82.47992z" fill="#252525" stroke="#000000"/><path d="M413.42931,717.77016l-29.92077,-82.47992l36.34047,-7.69523l29.92074,82.47992z" fill="none" stroke="#000000"/><path d="M404.1412,683.06576c6.73078,12.25597 -12.10029,-28.09412 -9.6057,-28.62228c1.26192,-0.2672 8.33343,20.16476 17.80161,29.13507c8.72817,8.26919 19.95646,5.50767 20.00678,-2.83041c0.06377,-10.55564 -17.45403,-57.79316 -13.92032,-54.36734c2.9081,2.81932 29.88276,80.43402 30.89062,83.21223c4.24926,11.71349 -24.01325,4.08694 -29.12318,5.1689c-3.28401,0.69535 1.41294,17.99054 -10.11922,-7.2811c-6.41181,-14.05085 -22.65352,-62.11149 -24.17189,-66.29702c-2.17482,-5.99513 11.18462,29.03249 18.24133,41.8819z" fill="#141414" stroke="none"/><path d="M413.42931,717.77016l-29.92077,-82.47992l36.34047,-7.69523l29.92074,82.47992z" fill="none" stroke="#000000"/></g><path d="M431.09071,668.29933l-29.55226,7.67695" fill="none" stroke="#000000" stroke-linecap="round"/></g><g><g stroke-linecap="butt"><path d="M467.28369,700.16062l-46.6976,-74.28002l33.88895,-15.21135l46.6976,74.28002z" fill="#252525" stroke="#000000"/><path d="M467.28369,700.16062l-46.6976,-74.28002l33.88895,-15.21135l46.6976,74.28002z" fill="#252525" stroke="#000000"/><path d="M467.28369,700.16062l-46.6976,-74.28002l33.88895,-15.21135l46.6976,74.28002z" fill="none" stroke="#000000"/><path d="M450.86175,668.20775c9.17193,10.55401 -17.77158,-24.89713 -15.44527,-25.94126c1.17676,-0.52824 12.41205,17.94454 23.56407,24.708c10.28044,6.23487 20.67001,1.15977 18.95467,-7.00011c-2.17151,-10.33005 -29.28899,-52.7906 -25.11035,-50.19023c3.43885,2.14005 46.22751,72.28849 47.80044,74.79054c6.63182,10.54897 -22.60453,9.07612 -27.36977,11.21495c-3.06252,1.37456 5.18812,17.28402 -11.43084,-4.97475c-9.24003,-12.37573 -35.28458,-55.91081 -37.6543,-59.68022c-3.39427,-5.39912 17.07522,26.00803 26.6913,37.07313z" fill="#141414" stroke="none"/><path d="M467.28369,700.16062l-46.6976,-74.28002l33.88895,-15.21135l46.6976,74.28002z" fill="none" stroke="#000000"/></g><path d="M474.07597,648.07267l-27.25833,13.75697" fill="none" stroke="#000000" stroke-linecap="round"/></g><g data-paper-data="{&quot;index&quot;:null}"><g stroke-linecap="butt"><path d="M515.91597,672.13065l-55.74926,-67.75107l25.12794,-27.35748l55.7493,67.75106z" fill="#252525" stroke="#000000"/><path d="M515.91597,672.13065l-55.74926,-67.75107l25.12794,-27.35748l55.7493,67.75106z" fill="#252525" stroke="#000000"/><path d="M515.91597,672.13065l-55.74926,-67.75107l25.12794,-27.35748l55.7493,67.75106z" fill="none" stroke="#000000"/><path d="M489.14922,582.08128c2.82904,3.4381 35.92135,41.88959 44.74908,54.56275c15.87736,22.79373 3.38426,9.94438 1.11351,12.41666c-3.53323,3.84681 -11.36125,32.05423 -19.27854,22.43244c-1.87785,-2.28212 -54.94014,-65.02019 -55.88569,-68.95864c-1.14896,-4.78569 30.58515,34.3449 39.70219,39.6651c7.2017,4.20258 15.29601,-4.0547 12.62375,-15.77734c-2.89884,-12.71655 -16.88249,-29.20686 -16.00992,-30.15683c1.72486,-1.87795 26.86261,34.87569 19.74206,22.842c-7.46531,-12.61638 -30.80863,-41.95067 -26.75643,-37.02612z" fill="#141414" stroke="none"/><path d="M515.91597,672.13065l-55.74926,-67.75107l25.12794,-27.35748l55.7493,67.75106z" fill="none" stroke="#000000"/></g><path d="M489.47393,634.78192l21.65558,-21.52457" fill="none" stroke="#000000" stroke-linecap="round"/></g></g><g data-paper-data="{&quot;index&quot;:null}"><g stroke-linecap="butt"><path d="M24.61049,489.90314l35.79971,-208.39407l110.42219,31.46452l-35.79974,208.39406z" fill="#252525" stroke="#000000"/><path d="M24.61049,489.90314l35.79971,-208.39407l110.42219,31.46452l-35.79974,208.39406z" fill="#252525" stroke="#000000"/><path d="M24.61049,489.90314l35.79971,-208.39407l110.42219,31.46452l-35.79974,208.39406z" fill="none" stroke="#000000"/><path d="M48.70775,406.51376c0.93244,33.93822 16.12706,13.79641 23.70684,15.95639c7.36915,2.09979 31.68655,51.5511 56.77448,15.97088c15.23437,-21.60551 34.69296,-141.45255 39.475,-129.81663c3.93544,9.57597 -32.98475,204.14094 -34.19061,211.16042c-5.08414,29.59536 -64.94357,14.2839 -80.47015,9.85943c-9.97859,-2.8435 -28.3991,1.67724 -23.90056,-65.25017c2.50115,-37.21116 26.62595,-157.08946 28.44263,-167.66463c2.60214,-15.14736 -10.81525,74.20272 -9.83768,109.7843z" fill="#141414" stroke="none"/><path d="M24.61049,489.90314l35.79971,-208.39407l110.42219,31.46452l-35.79974,208.39406z" fill="none" stroke="#000000"/></g><g stroke-linecap="butt"><path d="M38.82039,419.93932l6.68264,-35.19354l147.29739,27.07678l-6.68264,35.19354z" fill="#252525" stroke="#000000"/><path d="M38.82039,419.93932l6.68264,-35.19354l147.29739,27.07678l-6.68264,35.19354z" fill="#252525" stroke="#000000"/><path d="M38.82039,419.93932l6.68264,-35.19354l147.29739,27.07678l-6.68264,35.19354z" fill="none" stroke="#000000"/><path d="M54.00655,407.69259c7.57062,7.00212 23.24144,5.80541 33.35252,7.66409c9.83008,1.80703 50.25774,16.32356 75.69528,13.88017c15.44674,-1.4837 17.84331,-21.93574 26.15262,-18.69656c6.83821,2.66573 -3.87744,34.86689 -4.10253,36.05235c-0.94903,4.99806 -80.47044,-9.32907 -101.18213,-13.13641c-13.31089,-2.4469 -36.04726,-4.99859 -42.86247,-17.61631c-3.78917,-7.01536 4.57623,-26.59691 4.91533,-28.38285c0.48574,-2.55807 0.09417,12.89432 8.03142,20.23553z" fill="#141414" stroke="none"/><path d="M38.82039,419.93932l6.68264,-35.19354l147.29739,27.07678l-6.68264,35.19354z" fill="none" stroke="#000000"/></g><g stroke-linecap="butt"><path d="M43.052,346.5989l6.68264,-35.19354l147.29739,27.07678l-6.68264,35.19354z" fill="#252525" stroke="#000000"/><path d="M43.052,346.5989l6.68264,-35.19354l147.29739,27.07678l-6.68264,35.19354z" fill="#252525" stroke="#000000"/><path d="M43.052,346.5989l6.68264,-35.19354l147.29739,27.07678l-6.68264,35.19354z" fill="none" stroke="#000000"/><path d="M58.23811,334.3522c7.57062,7.00212 23.24144,5.80541 33.35252,7.66409c9.83009,1.80699 50.25774,16.32356 75.69529,13.88013c15.44673,-1.48367 17.84331,-21.93571 26.15261,-18.69653c6.83821,2.66573 -3.87745,34.86693 -4.10253,36.05235c-0.94903,4.99806 -80.47044,-9.32907 -101.18213,-13.13641c-13.31093,-2.44687 -36.04726,-4.99855 -42.86247,-17.61628c-3.78917,-7.01536 4.57623,-26.59691 4.91533,-28.38285c0.48574,-2.55807 0.09417,12.89432 8.03138,20.23553z" fill="#141414" stroke="none"/><path d="M43.052,346.5989l6.68264,-35.19354l147.29739,27.07678l-6.68264,35.19354z" fill="none" stroke="#000000"/></g><g><path d="M81.00615,211.61058c17.43219,-103.07833 57.63928,-38.40304 81.47825,-34.37149c23.83896,4.03155 73.21588,-74.25907 55.78369,28.81926c-1.56175,9.23481 -12.25848,141.79942 -35.15973,171.06544c-10.18804,13.01954 1.96684,-46.93473 -13.40918,-63.53947c-4.67,-5.04316 -11.51909,15.20834 -22.94081,21.81564c-11.44077,6.6183 -27.45267,-0.40438 -30.257,-1.62127c-11.15069,-4.83866 -4.27719,39.50007 -4.40419,56.54689c-0.18421,24.73244 -7.36318,62.97884 3.84871,84.21606c8.82146,16.7094 22.67711,-15.28487 35.3434,-3.36079c9.57964,9.01832 1.91576,35.40654 10.28375,49.21447c8.32717,13.74066 22.91484,-67.21723 31.93615,-58.57346c8.80156,8.43323 12.15754,106.58508 10.87834,110.60908c-17.39846,54.73082 -102.00302,39.88259 -115.10642,37.66659c-13.06312,-2.20918 -116.9371,-6.45581 -115.41265,-63.61262c1.25753,-47.14912 99.25781,-288.2802 107.13763,-334.87441z" fill="#003aff" stroke="#000000" stroke-linecap="butt"/><path d="M-26.31357,542.89687c1.70459,-10.07943 66.6188,-234.40464 76.82954,-227.32567c1.20031,0.83217 12.89588,-98.59929 50.09647,-118.08764c32.90537,-17.23823 90.44046,11.57813 111.11905,29.94683c5.65433,5.02271 4.54361,13.58201 4.25463,14.99858c-2.79729,13.71219 -93.58485,-33.93968 -120.12578,0.36572c-59.37948,76.75076 -86.69133,257.29171 -83.90073,298.95814c2.29915,34.32825 52.10126,41.75382 64.25764,43.80966c47.7457,8.07456 98.33541,-113.61586 118.49524,-113.3092c6.63453,0.10093 9.8958,102.89766 8.77805,109.50708c-4.5142,26.69291 -59.61708,39.63192 -123.07573,28.90005c-63.45865,-10.73187 -111.24256,-41.07067 -106.72837,-67.76358z" fill="#0029ae" stroke="none" stroke-linecap="butt"/><path d="M81.0061,211.61042c17.43219,-103.07833 57.63932,-38.40304 81.47828,-34.37149c23.83896,4.03155 73.21587,-74.25903 55.78368,28.8193c-1.56175,9.23481 -12.25844,141.79943 -35.15973,171.06544c-10.18807,13.01954 1.9668,-46.93474 -13.40918,-63.53947c-4.67,-5.04316 -11.51905,15.20834 -22.94078,21.81564c-11.44078,6.61834 -27.45271,-0.40435 -30.257,-1.62123c-11.15069,-4.83866 -4.27723,39.50006 -4.40419,56.54689c-0.18422,24.73248 -7.36318,62.97887 3.8487,84.2161c8.82149,16.70944 22.67708,-15.28492 35.3434,-3.36079c9.57965,9.01828 1.9158,35.40651 10.28375,49.21444c8.32721,13.74067 22.91483,-67.21719 31.93614,-58.57342c8.80156,8.43323 12.15754,106.58508 10.87834,110.60908c-17.39846,54.73082 -102.00302,39.88259 -115.10642,37.66659c-13.06312,-2.20918 -116.93711,-6.45577 -115.41265,-63.61262c1.25753,-47.14909 99.2578,-288.28017 107.13763,-334.87437z" fill="none" stroke="#000000" stroke-linecap="butt"/><path d="M-8.31461,573.66745l44.60351,-86.25705l94.95608,52.32801l50.70992,-11.43484l0.45607,63.86127" fill="none" stroke="#000000" stroke-linecap="round"/><path d="M104.79662,410.45918l-75.17318,-38.03904" fill="none" stroke="#000000" stroke-linecap="round"/></g></g><g data-paper-data="{&quot;index&quot;:null}"><path d="M41.16039,89.87482c5.32365,-74.04389 67.73638,-129.89123 139.40268,-124.73854c29.41166,2.11465 13.0107,42.00597 33.5486,60.61012c2.16908,1.96485 22.85137,-8.69768 28.50508,0.95408c11.922,20.35264 12.76588,66.864 23.7016,62.02062c14.92582,-6.61062 16.60445,-84.40961 24.71074,-79.55446c21.45169,12.84816 11.41541,74.92468 9.65799,99.36772c-5.32365,74.04389 -67.73634,129.89124 -139.40265,124.73854c-71.66632,-5.1527 -125.4477,-69.35423 -120.12406,-143.39813z" fill="#003aff" stroke="#000000" stroke-linecap="butt"/><path d="M160.86908,160.79586c51.96657,3.73632 135.50052,-53.2698 133.00964,-18.62542c-2.49088,34.64438 -80.33906,95.10931 -132.30564,91.37298c-51.96657,-3.73632 -125.68434,-83.25848 -123.19346,-117.90286c2.49088,-34.64438 70.52289,41.41896 122.48946,45.15529z" fill="#0029ae" stroke="none" stroke-linecap="butt"/><path d="M41.1604,89.87471c5.32364,-74.04386 67.73637,-129.8912 139.40269,-124.7385c29.4117,2.11466 13.01073,42.00596 33.54863,60.61012c2.16904,1.96484 22.85137,-8.69768 28.50508,0.95408c11.92201,20.35261 12.76588,66.86404 23.7016,62.02062c14.92585,-6.61059 16.60446,-84.40957 24.71074,-79.55443c21.45169,12.84816 11.41541,74.92468 9.65799,99.36772c-5.32364,74.04386 -67.73637,129.8912 -139.40269,124.7385c-71.66635,-5.1527 -125.44771,-69.35419 -120.12406,-143.39809z" fill="none" stroke="#000000" stroke-linecap="butt"/><path d="M57.79497,102.69228c4.98176,-69.28876 58.32716,-121.91336 119.15026,-117.54027c24.96165,1.79471 16.41375,29.72232 33.73756,46.99548c1.82962,1.82427 18.40523,-10.82595 23.14595,-1.83356c9.99677,18.9622 22.36972,68.26482 31.68594,63.66652c12.7154,-6.27611 16.38598,-86.34589 23.23914,-81.8552c18.13559,11.88371 -9.05437,83.53011 -10.69892,106.40339c-4.98176,69.28876 -58.32717,121.91333 -119.15025,117.54023c-60.82308,-4.37309 -106.09146,-64.08784 -101.1097,-133.3766z" fill="#ffffff" stroke="#000000" stroke-linecap="butt"/><path d="M72.49697,43.49876c1.52383,-21.19421 48.71382,-61.77645 92.12121,-58.65552c6.42535,0.46197 23.59666,-3.97128 28.56409,1.9611c9.27492,11.07661 5.24162,36.41653 15.12626,43.22434c9.89878,6.81754 17.52465,-4.01773 25.57181,-2.44721c8.68789,1.69555 17.40521,15.72979 16.94987,22.06292c-0.19199,2.67027 7.71284,38.12652 15.02934,34.53717c8.86623,-4.34958 11.93971,-43.28277 19.32379,-57.25295c7.52038,-14.22809 19.21378,-3.41367 12.84224,1.45533c-7.18052,5.48723 -5.66945,41.58098 -10.49036,67.7507c-1.90992,10.3678 1.49741,18.38097 -6.61526,23.52757c-11.43121,7.25188 -13.5429,-15.07358 -27.1915,-30.16464c-31.16184,-34.45507 -82.53143,-91.5706 -92.22634,-92.26765c-1.4186,-0.102 -12.09877,5.01204 -13.47935,4.81045c-40.86351,-5.96716 -76.9999,61.95998 -75.52587,41.45841z" fill="#c1c1c1" stroke="none" stroke-linecap="butt"/><path d="M173.90917,71.25212c45.44528,3.26745 80.94375,24.58438 79.28804,47.61272c-1.65571,23.02834 -39.83859,39.04768 -85.28387,35.78023c-45.44528,-3.26745 -80.94375,-24.58438 -79.28804,-47.61272c1.65571,-23.02834 39.83859,-39.04768 85.28387,-35.78023z" fill="#c1c1c1" stroke="none" stroke-linecap="butt"/><path d="M110.25166,8.72171c0.69623,-9.68347 -40.69804,78.07567 -30.43645,139.66486c7.2849,43.72349 63.71537,66.26077 76.30099,67.16566c30.31385,2.17952 61.91801,-29.346 60.72752,-12.78803c-1.19049,16.55797 -26.72978,28.21402 -57.04364,26.0345c-16.28948,-1.17119 -77.45186,-15.06538 -86.21082,-71.67921c-3.62657,-23.44028 -12.21713,-55.31054 -2.65187,-84.56721c10.32468,-31.57952 39.02835,-59.85417 39.31425,-63.83061z" fill="#c1c1c1" stroke="none" stroke-linecap="butt"/><path d="M179.37136,-17.64067c24.96165,1.79471 16.41375,29.72236 33.73756,46.99548c1.82962,1.82427 18.40523,-10.82598 23.14594,-1.8336c9.99677,18.9622 22.36972,68.26482 31.68594,63.66652c12.7154,-6.27606 16.38594,-86.34589 23.23914,-81.8552c18.13562,11.88367 -9.05432,83.53012 -10.69889,106.4034c-4.98176,69.28876 -58.32713,121.91332 -119.15025,117.54023c-60.82308,-4.37309 -106.09146,-64.08784 -101.1097,-133.3766c4.98176,-69.28876 58.32713,-121.91332 119.15025,-117.54023z" fill="none" stroke="#000000" stroke-linecap="butt"/><path d="M234.06514,83.65132c17.1184,1.23079 29.62964,21.22711 27.94463,44.663c-0.78826,10.96352 -13.9447,58.63557 -19.47116,65.80776c-6.28708,8.15925 3.53049,15.01566 -5.57978,14.36065c-7.76425,-0.55824 -28.7232,26.64577 -33.69717,19.79675c-5.99252,-8.25153 -4.16387,-91.61591 -3.24312,-104.42222c1.685,-23.43589 16.92819,-41.43671 34.04658,-40.20592z" fill="#000000" stroke="#000000" stroke-linecap="butt"/><path d="M208.86963,198.79658l-22.10122,28.82499" fill="none" stroke="#000000" stroke-linecap="round"/><path d="M120.71592,78.55469c20.99041,1.50918 36.80685,19.41828 35.32697,40.00114c-1.47987,20.58285 -19.69566,36.0451 -40.68607,34.53592c-20.99041,-1.50918 -36.80685,-19.41828 -35.32697,-40.00114c1.47987,-20.58285 19.69566,-36.0451 40.68607,-34.53592z" fill="#ffffff" stroke="#000000" stroke-linecap="butt"/><path d="M120.86262,215.79928l-0.18797,-48.97269" fill="none" stroke="#000000" stroke-linecap="round"/><path d="M148.82443,167.36691l-1.4857,20.66374" fill="none" stroke="#000000" stroke-linecap="round"/><path d="M174.62982,221.14867l7.24501,-49.18007" fill="none" stroke="#000000" stroke-linecap="round"/></g></g></g></svg>