<svg version="1.1" xmlns="http://www.w3.org/2000/svg" xmlns:xlink="http://www.w3.org/1999/xlink" width="469.66005" height="775.35414" viewBox="0,0,469.66005,775.35414"><g transform="translate(106.26293,132.75308)"><g data-paper-data="{&quot;isPaintingLayer&quot;:true}" fill-rule="nonzero" stroke-linejoin="miter" stroke-miterlimit="10" stroke-dasharray="" stroke-dashoffset="0" style="mix-blend-mode: normal"><path d="" fill="none" stroke="#000000" stroke-width="0" stroke-linecap="round"/><path d="" fill="none" stroke="#000000" stroke-width="0" stroke-linecap="round"/><g data-paper-data="{&quot;index&quot;:null}" stroke-width="5.5"><path d="M146.72068,381.16633c4.99671,-14.47957 26.17578,-9.39894 33.41903,-7.91624c18.8092,3.85027 36.50574,73.82452 43.66651,125.41914c3.4104,24.57263 2.6337,45.21407 1.80332,52.11387c-2.57402,21.38712 -12.30661,41.09481 -40.07395,35.41083c-27.76732,-5.68398 -48.19053,-27.62947 -45.61651,-49.01661c1.90257,-15.80819 -7.35675,-114.9825 6.8016,-156.01098z" data-paper-data="{&quot;index&quot;:null}" fill="#ff48b3" stroke="#000000" stroke-linecap="butt"/><path d="M227.71973,553.49874c-2.41396,20.05707 -17.16484,33.69765 -32.94712,30.46698c-14.17153,-2.90089 -45.90897,-15.33903 -49.59349,-32.04625c-0.41876,-1.89889 -1.54308,-1.20889 -1.29671,-3.25584c0.0131,-0.10908 -0.89751,-4.18145 -0.91762,-7.15569c-0.05323,-7.87591 -4.48925,-21.68215 -2.74687,-40.77112c1.63808,-17.94639 -1.41702,-35.3974 0.91332,-52.68944c1.44255,-10.70426 0.82694,-30.3121 3.39443,-44.4662c3.15339,-17.38413 9.4573,-28.46776 10.09633,-28.26462c5.52793,1.75717 0.36023,82.61336 5.93912,127.02436c4.53948,36.1365 30.19042,63.74645 34.11667,66.94776c8.84601,7.21266 17.77291,4.02635 19.0431,-7.3031c1.41934,-12.65928 13.83793,-15.61293 11.17806,-37.40076c-6.42759,-52.65009 -33.29187,-133.19905 -26.33523,-131.77503c15.78228,3.23064 31.57001,140.6319 29.15605,160.68898z" fill="#bb1c79" stroke="none" stroke-linecap="butt"/><g fill="none" stroke="#000000"><path d="M142.74425,536.24389c1.93002,-16.03633 -9.35054,-114.74739 5.25507,-155.05348c4.87343,-13.44887 28.01851,-10.29578 34.96559,-8.87371c27.76734,5.68398 48.04385,156.14589 45.46983,177.53303c-2.57402,21.38712 -12.30661,41.09481 -40.07395,35.41083c-27.76732,-5.68398 -48.19053,-27.62947 -45.61651,-49.01661z" data-paper-data="{&quot;index&quot;:null}" stroke-linecap="butt"/><path d="M141.90393,488.4083l78.1626,-8.16862" stroke-linecap="round"/></g></g><g stroke-width="5.5"><path d="M126.99513,541.50675c2.57402,21.38714 -17.84919,43.33263 -45.61651,49.01661c-27.76734,5.68398 -37.49993,-14.02371 -40.07395,-35.41083c-0.83039,-6.8998 -1.60709,-27.54124 1.8033,-52.11387c7.16077,-51.59462 24.85733,-121.56887 43.66651,-125.41914c7.24325,-1.4827 28.42232,-6.56331 33.41903,7.91624c14.15835,41.02848 4.89904,140.20279 6.8016,156.01098z" data-paper-data="{&quot;index&quot;:null}" fill="#ff48b3" stroke="#000000" stroke-linecap="butt"/><path d="M68.35056,397.13919c6.95664,-1.42402 -19.90764,79.12494 -26.33523,131.77503c-2.6599,21.78783 9.75872,24.74146 11.17806,37.40076c1.27019,11.32948 10.19709,14.51577 19.0431,7.3031c3.92625,-3.20131 29.5772,-30.81126 34.11667,-66.94776c5.57889,-44.41098 0.41119,-125.26718 5.93912,-127.02436c0.63902,-0.20314 6.94294,10.88049 10.09633,28.26462c2.56748,14.15411 1.95188,33.76194 3.39443,44.4662c2.33034,17.29206 -0.72477,34.74308 0.91332,52.68944c1.74238,19.08897 -2.69367,32.89521 -2.74687,40.77112c-0.02011,2.97423 -0.93072,7.04661 -0.91762,7.15569c0.24637,2.04698 -0.87794,1.35695 -1.29671,3.25584c-3.68452,16.70722 -35.42193,29.14533 -49.59349,32.04625c-15.78228,3.23064 -30.53318,-10.40991 -32.94714,-30.46698c-2.41396,-20.05707 13.37377,-157.45833 29.15605,-160.68898z" fill="#bb1c79" stroke="none" stroke-linecap="butt"/><g fill="none" stroke="#000000"><path d="M124.16994,540.57332c2.57402,21.38714 -17.84919,43.33265 -45.61651,49.01661c-27.76734,5.68398 -37.49993,-14.02371 -40.07395,-35.41083c-2.57402,-21.38714 17.70249,-171.84904 45.46983,-177.53303c6.94707,-1.42207 30.09218,-4.57515 34.96559,8.87371c14.6056,40.30612 3.32505,139.01715 5.25507,155.05348z" data-paper-data="{&quot;index&quot;:null}" stroke-linecap="butt"/><path d="M46.84768,484.56912l78.1626,8.16862" stroke-linecap="round"/></g></g><g stroke-width="5.5" stroke-linecap="butt"><g><g><path d="M58.71746,333.89445c2.22667,-25.02714 -6.9838,-112.18834 15.34786,-139.88058c18.11287,-22.46073 96.12886,4.34283 109.85564,5.56411c12.19521,1.08501 25.19578,-5.74693 27.16058,14.49298c2.97345,30.63007 1.09633,93.82641 -1.33185,121.11849c-4.03269,45.32627 -42.91364,81.43175 -73.56443,78.70474c-30.65079,-2.72701 -81.50051,-34.67345 -77.46783,-79.99972z" fill="#ff48b3" stroke="#000000"/><path d="M56.07078,341.62306c0.37861,-4.25543 21.66382,36.65242 57.14397,49.24208c26.8333,9.52144 68.33222,-5.01752 77.77186,-22.76863c4.16443,-7.83116 12.40021,-39.4966 14.34884,-66.11866c2.29851,-31.402 -2.70014,-59.34335 -12.41835,-84.4358c-10.26018,-26.4918 -56.65242,-26.38238 -50.65265,-25.84858c9.0862,0.8084 23.69819,2.67626 39.22852,6.38787c8.71068,2.08178 21.14341,1.23454 24.69981,9.64262c19.31511,45.66513 2.19566,139.22937 1.46994,147.38628c-1.09758,12.33652 -31.22976,63.2458 -73.09071,59.52143c-1.17951,-0.10494 -8.24006,-2.28944 -9.40209,-2.468c-40.07863,-6.15834 -70.16582,-58.55169 -69.09916,-70.54059z" fill="#bb1c79" stroke="none"/><path d="M59.00087,333.67793c2.22667,-25.02714 -6.98382,-112.18834 15.34786,-139.88058c18.11287,-22.46073 96.12888,4.34283 109.85566,5.56411c12.19518,1.08501 25.19578,-5.74693 27.16058,14.49298c2.97345,30.63005 1.09633,93.82641 -1.33185,121.11847c-4.03269,45.32627 -42.91364,81.43175 -73.56443,78.70474c-30.65077,-2.727 -81.50049,-34.67345 -77.4678,-79.99972z" fill="none" stroke="#000000"/><path d="M139.91367,417.77252c-8.31674,-0.73994 -69.89089,-16.24951 -65.32791,-67.53612c3.11944,-35.06164 6.66013,-122.24617 25.95217,-151.86816c8.92749,-13.70774 39.49427,11.98212 42.12535,12.21621c3.92866,0.34953 17.43214,-27.57423 30.5856,-3.10598c14.69163,27.3296 22.5875,110.5876 20.17998,137.64747c-4.56298,51.28661 -45.19844,73.38652 -53.51518,72.64657z" fill="#ff94d2" stroke="#000000"/><path d="M77.19674,350.71895c1.01202,-11.37479 2.63672,-152.36267 28.64988,-152.44769c3.72876,-0.01217 -24.59142,149.00675 -17.88091,169.32427c0.32057,0.97063 4.72281,15.19973 15.68857,22.96828c11.96779,8.47842 30.57874,10.51074 30.78454,10.52905c31.88086,2.83645 59.38029,-53.2704 58.20871,-40.10221c-1.17158,13.16819 -26.48508,56.07893 -58.36593,53.24249c-19.4555,-1.73096 -42.37163,-15.02379 -52.71726,-32.07102c-6.60728,-10.88731 -4.82422,-26.31094 -4.36761,-31.44314z" fill="#ea88c1" stroke="none"/><path d="M193.80162,343.90553c-4.56298,51.28659 -45.19844,73.3865 -53.51518,72.64655c-8.31674,-0.73994 -69.89089,-16.24951 -65.32791,-67.53612c3.11944,-35.06164 6.66013,-122.24617 25.95217,-151.86816c8.92751,-13.70776 39.49429,11.9821 42.12537,12.21619c3.92866,0.34953 17.43214,-27.57421 30.58559,-3.10595c14.69163,27.3296 22.5875,110.58762 20.17998,137.64747z" fill="none" stroke="#000000"/></g><path d="M134.16998,264.86447c4.71281,0.4193 8.2034,4.46736 7.79643,9.04156c-0.40697,4.57423 -4.55737,7.94244 -9.27019,7.52314c-4.71281,-0.4193 -8.2034,-4.46736 -7.79643,-9.04156c0.40697,-4.57423 4.55737,-7.94244 9.27019,-7.52314z" fill="#000000" stroke="#000000"/></g><path d="M138.9807,227.85341c4.15838,0.36997 7.24948,3.81618 6.90417,7.69734c-0.34531,3.88116 -3.99626,6.72752 -8.15464,6.35755c-4.15838,-0.36997 -7.24948,-3.81618 -6.90417,-7.69734c0.34531,-3.88116 3.99626,-6.72752 8.15464,-6.35755z" fill="#000000" stroke="#000000"/></g><g data-paper-data="{&quot;index&quot;:null}" stroke-width="5.5"><path d="M231.95176,197.94802c17.88104,0 67.87969,117.59694 67.87969,132.71612c0,15.11918 -17.98756,43.76196 -35.86864,43.76196c-17.88106,0 -64.38759,-133.98324 -64.38759,-149.10242c0,-7.50371 -6.01951,-16.04492 -0.23669,-20.98998c5.86889,-5.01868 23.60658,-6.38565 32.61319,-6.38565z" fill="#ff48b3" stroke="#000000" stroke-linecap="butt"/><path d="M275.90703,350.8901c18.64354,0 25.02683,-47.32653 25.02683,-23.40897c0,23.91759 -18.02371,45.63011 -36.66725,45.63011c-18.64358,0 -64.02217,-120.03029 -64.02217,-143.94786c0,-15.78033 21.91072,52.78508 44.15442,94.09866c11.47021,21.30376 25.16518,27.62811 31.50812,27.62811z" fill="#bb1c79" stroke="none" stroke-linecap="butt"/><path d="M231.9518,199.42992c17.88104,0 67.87969,117.59694 67.87969,132.71612c0,15.11918 -17.98758,43.76193 -35.86864,43.76193c-17.88106,0 -64.38759,-133.98319 -64.38759,-149.10237c0,-8.02209 -7.6403,-18.1426 -1.13816,-23.14963c5.75243,-4.4297 25.12113,-4.22602 33.51466,-4.22602z" fill="none" stroke="#000000" stroke-linecap="butt"/><path d="M274.72262,262.46677l-49.54848,33.10941" fill="none" stroke="#000000" stroke-linecap="round"/></g><g stroke-width="5.5"><path d="M41.8848,187.07142c9.00661,0 26.7443,1.36698 32.61319,6.38565c5.78282,4.94506 -0.23669,13.48627 -0.23669,20.98998c0,15.11916 -46.50654,149.1024 -64.38759,149.1024c-17.88108,0 -35.86864,-28.6428 -35.86864,-43.76196c0,-15.11916 49.99866,-132.7161 67.87969,-132.7161z" fill="#ff48b3" stroke="#000000" stroke-linecap="butt"/><path d="M-2.07046,340.0135c6.34294,0 20.03792,-6.32435 31.50812,-27.62811c22.2437,-41.3136 44.15442,-109.87899 44.15442,-94.09868c0,23.91759 -45.37859,143.94788 -64.02217,143.94788c-18.64354,0 -36.66725,-21.7125 -36.66725,-45.63009c0,-23.91757 6.38329,23.40897 25.02683,23.40897z" fill="#bb1c79" stroke="none" stroke-linecap="butt"/><path d="M41.88476,188.55334c8.39354,0 27.76223,-0.20368 33.51466,4.22602c6.50214,5.00705 -1.13816,15.12754 -1.13816,23.14963c0,15.11916 -46.50654,149.10237 -64.38759,149.10237c-17.88106,0 -35.86864,-28.64277 -35.86864,-43.76193c0,-15.11916 49.99866,-132.71612 67.87969,-132.71612z" fill="none" stroke="#000000" stroke-linecap="butt"/><path d="M48.66238,284.69956l-49.54848,-33.10941" fill="none" stroke="#000000" stroke-linecap="round"/></g><g stroke-width="5.5"><path d="M-56.82338,359.4977c5.58008,-20.91225 25.55249,-33.74274 44.60962,-28.65765c19.05713,5.08505 29.98245,26.16006 24.40238,47.07231c-5.58008,20.91227 -25.55251,33.74274 -44.60964,28.65765c-19.05715,-5.08505 -29.98245,-26.16006 -24.40238,-47.07231z" fill="#ff48b3" stroke="#000000" stroke-linecap="butt"/><path d="M-57.66902,374.54878c3.15003,-11.8053 5.25085,-45.70198 22.11557,-41.2019c2.82944,0.75499 -7.1619,12.49851 -9.01652,26.76248c-1.75922,13.53011 4.59851,29.54029 7.52869,32.95043c12.39324,14.42327 42.56506,-10.16086 40.44481,-2.21483c-3.15005,11.80528 -19.37521,17.72736 -36.23993,13.22728c-16.86472,-4.50008 -27.98269,-17.71818 -24.83263,-29.52349z" fill="#bb1c79" stroke="none" stroke-linecap="butt"/><path d="M-12.81443,332.79073c19.05715,5.08505 29.98245,26.16006 24.40238,47.07231c-5.58008,20.91227 -25.55247,33.74274 -44.60962,28.65765c-19.05715,-5.08505 -29.98245,-26.16006 -24.40235,-47.07231c5.58008,-20.91227 25.55245,-33.74274 44.60959,-28.65765z" fill="none" stroke="#000000" stroke-linecap="butt"/><g><path d="M-74.48482,407.07203c0.9444,16.38032 -4.78814,30.03382 -12.80406,30.49594c-8.01588,0.46217 -15.27965,-12.44201 -16.22405,-28.82232c-0.50302,-8.72452 13.35509,-36.03829 25.76903,-40.6881c10.89327,-4.08019 20.21664,13.97729 23.96309,13.76128c8.0159,-0.46217 -21.64847,8.87287 -20.70402,25.25313z" fill="#ff48b3" stroke="#000000" stroke-linecap="butt"/><path d="M-77.27265,423.74418c0.39184,6.79608 -7.68191,11.64297 -12.21262,11.90421c-4.53071,0.26124 -8.52123,-5.03632 -8.91307,-11.83241c-0.39184,-6.79608 30.51229,-50.82781 35.04304,-51.08905c1.66261,-0.09588 10.25682,3.99734 5.85495,11.17433c-3.17094,5.1701 -11.97456,9.14931 -15.20467,15.0027c-5.19439,9.41292 -4.21548,20.23932 -4.06257,22.89194z" fill="#bb1c79" stroke="none" stroke-linecap="butt"/><path d="M-73.79194,406.79133c0.94442,16.38028 -4.78814,30.0338 -12.80402,30.49597c-8.01588,0.46217 -15.27965,-12.44206 -16.22405,-28.82232c-0.50302,-8.72452 13.35509,-36.03829 25.76905,-40.6881c10.89327,-4.08019 20.21664,13.97729 23.96307,13.76128c8.01588,-0.46217 -21.64847,8.87287 -20.70402,25.25313z" fill="none" stroke="#000000" stroke-linecap="butt"/><path d="M-96.78851,392.28199l21.47938,10.15817" fill="none" stroke="#000000" stroke-linecap="round"/></g><g><path d="M-42.31027,419.76288c6.57619,15.03199 5.94403,29.82659 -1.41209,33.0447c-7.35605,3.21815 -18.65038,-6.35881 -25.22657,-21.39078c-3.50264,-8.00636 0.00336,-38.43327 10.0287,-47.10614c8.7973,-7.61043 23.81323,6.08333 27.25129,4.57924c7.35608,-3.21815 -17.21759,15.84103 -10.64138,30.87293z" fill="#ff48b3" stroke="#000000" stroke-linecap="butt"/><path d="M-39.13247,436.36515c2.72843,6.23666 -3.1586,13.58652 -7.31635,15.40549c-4.15775,1.81897 -9.74014,-1.7623 -12.46857,-7.99897c-2.72843,-6.23666 10.95394,-58.26214 15.11174,-60.08111c1.52576,-0.66751 11.00668,0.18508 9.37231,8.4443c-1.17732,5.94968 -8.05019,12.73947 -9.04562,19.35045c-1.60074,10.63121 3.07834,20.44319 4.14327,22.87748z" fill="#bb1c79" stroke="none" stroke-linecap="butt"/><path d="M-41.75805,419.25895c6.57621,15.03194 5.94401,29.82657 -1.41204,33.0447c-7.35605,3.21815 -18.6504,-6.35886 -25.22657,-21.39078c-3.50264,-8.00636 0.00336,-38.43327 10.02872,-47.10616c8.7973,-7.61043 23.81323,6.08333 27.25127,4.57924c7.35605,-3.21815 -17.21759,15.84103 -10.64138,30.87293z" fill="none" stroke="#000000" stroke-linecap="butt"/><path d="M-68.36292,413.64249l23.67055,2.06341" fill="none" stroke="#000000" stroke-linecap="round"/></g><g><path d="M-8.94694,425.83101c8.57433,13.98885 9.97579,28.73047 3.13016,32.9264c-6.84557,4.19596 -19.3459,-3.74271 -27.92021,-17.73152c-4.56688,-7.45076 -5.26411,-38.07107 3.47801,-48.0361c7.67124,-8.74433 24.42227,2.76222 27.62174,0.80112c6.84559,-4.19596 -14.88405,18.05129 -6.30972,32.04006z" fill="#ff48b3" stroke="#000000" stroke-linecap="butt"/><path d="M-3.52372,441.84108c3.55745,5.80387 -1.26671,13.89123 -5.13594,16.26285c-3.86924,2.37162 -9.88977,-0.41075 -13.4472,-6.21462c-3.55745,-5.80387 2.86554,-59.21364 6.7348,-61.58528c1.41986,-0.8703 10.92816,-1.32515 10.44119,7.0801c-0.35079,6.05491 -6.22824,13.72253 -6.3082,20.40756c-0.12861,10.75026 5.8511,19.82839 7.23961,22.09375z" fill="#bb1c79" stroke="none" stroke-linecap="butt"/><path d="M-8.46902,425.25615c8.57433,13.98879 9.97577,28.73044 3.1302,32.9264c-6.84557,4.19596 -19.34592,-3.74275 -27.92021,-17.73152c-4.56688,-7.45076 -5.26409,-38.07105 3.47803,-48.03612c7.67124,-8.74433 24.42227,2.76224 27.62172,0.80114c6.84557,-4.19596 -14.88405,18.05127 -6.30972,32.04004z" fill="none" stroke="#000000" stroke-linecap="butt"/><path d="M-35.59257,423.33897l23.72997,-1.20021" fill="none" stroke="#000000" stroke-linecap="round"/></g><g data-paper-data="{&quot;index&quot;:null}"><path d="M19.53848,415.87576c-0.02959,-16.40743 -30.19583,-23.96506 -22.16661,-23.97954c3.75267,-0.00678 11.98766,-18.58587 23.10393,-15.15951c12.66807,3.90469 28.12313,30.34764 28.13891,39.08664c0.02963,16.40747 -6.45529,29.72007 -14.48449,29.73457c-8.02922,0.01453 -14.56214,-13.27458 -14.59177,-29.68208z" fill="#ff48b3" stroke="#000000" stroke-linecap="butt"/><path d="M22.69126,430.43826c-0.00483,-2.65704 0.32969,-13.52244 -5.41432,-22.61042c-3.57189,-5.65134 -12.59618,-9.1009 -16.06843,-14.07365c-4.82013,-6.90302 3.51591,-11.49921 5.18129,-11.5022c4.53826,-0.00818 38.00173,42.11134 38.01401,48.9187c0.0123,6.80736 -3.65673,12.33246 -8.19497,12.34064c-4.53824,0.00818 -12.88543,-4.35089 -12.89773,-11.15825z" fill="#bb1c79" stroke="none" stroke-linecap="butt"/><path d="M18.83012,415.63671c-0.02959,-16.40743 -30.19576,-23.96506 -22.16659,-23.97954c3.75264,-0.00675 11.98764,-18.58585 23.10391,-15.15951c12.6681,3.90469 28.12316,30.34764 28.13894,39.08662c0.02963,16.40745 -6.45532,29.72009 -14.48449,29.73459c-8.02917,0.0145 -14.56214,-13.27465 -14.59175,-29.6821z" fill="none" stroke="#000000" stroke-linecap="butt"/><path d="M20.08635,411.2032l20.83849,-11.41533" fill="none" stroke="#000000" stroke-linecap="round"/></g></g><g data-paper-data="{&quot;index&quot;:null}" stroke-width="5.5"><path d="M313.94429,350.36666c5.58008,20.91225 -5.34523,41.98726 -24.40238,47.07231c-19.05713,5.08509 -39.02956,-7.74538 -44.60964,-28.65765c-5.58008,-20.91225 5.34525,-41.98726 24.40238,-47.07231c19.05713,-5.08509 39.02954,7.7454 44.60962,28.65765z" fill="#ff48b3" stroke="#000000" stroke-linecap="butt"/><path d="M314.78994,365.41772c3.15005,11.8053 -7.96791,25.02341 -24.83263,29.52349c-16.86472,4.50008 -33.08988,-1.422 -36.23993,-13.22728c-2.12025,-7.94603 28.05157,16.6381 40.44481,2.21483c2.93018,-3.41014 9.28791,-19.42032 7.52869,-32.95043c-1.85462,-14.26397 -11.84596,-26.00749 -9.01652,-26.76248c16.86472,-4.50008 18.96554,29.39659 22.11557,41.2019z" fill="#bb1c79" stroke="none" stroke-linecap="butt"/><path d="M314.54489,352.31733c5.5801,20.91225 -5.34521,41.98726 -24.40235,47.07231c-19.05715,5.08509 -39.02954,-7.74538 -44.60962,-28.65765c-5.58008,-20.91225 5.34523,-41.98726 24.40238,-47.07231c19.05715,-5.08509 39.02952,7.74538 44.60959,28.65765z" fill="none" stroke="#000000" stroke-linecap="butt"/><g><path d="M331.60572,397.94092c0.94444,-16.38026 -28.71992,-25.7153 -20.70402,-25.25313c3.74645,0.21602 13.06982,-17.84147 23.96309,-13.76128c12.41394,4.64981 26.27204,31.96358 25.76903,40.6881c-0.9444,16.3803 -8.20817,29.28448 -16.22405,28.82232c-8.01592,-0.46212 -13.74846,-14.11562 -12.80406,-30.49594z" fill="#ff48b3" stroke="#000000" stroke-linecap="butt"/><path d="M333.88848,412.66489c0.15292,-2.65262 1.13182,-13.47902 -4.06257,-22.89194c-3.2301,-5.85339 -12.03373,-9.8326 -15.20467,-15.0027c-4.40186,-7.17699 4.19234,-11.27021 5.85495,-11.17433c4.53075,0.26124 35.43488,44.29296 35.04304,51.08905c-0.39184,6.79608 -4.38236,12.09364 -8.91307,11.83241c-4.53071,-0.26124 -12.60445,-5.10813 -12.21262,-11.90421z" fill="#bb1c79" stroke="none" stroke-linecap="butt"/><path d="M330.91279,397.66024c0.94444,-16.38026 -28.7199,-25.7153 -20.70402,-25.25313c3.74643,0.21602 13.0698,-17.84147 23.96307,-13.76128c12.41396,4.64981 26.27206,31.96358 25.76905,40.6881c-0.9444,16.38026 -8.20817,29.28448 -16.22405,28.82232c-8.01588,-0.46217 -13.74844,-14.11568 -12.80402,-30.49597z" fill="none" stroke="#000000" stroke-linecap="butt"/><path d="M353.90938,383.15095l-21.47938,10.15817" fill="none" stroke="#000000" stroke-linecap="round"/></g><g><path d="M299.43119,410.63179c6.57621,-15.0319 -17.99748,-34.09111 -10.6414,-30.87295c3.43805,1.50409 18.45399,-12.18967 27.25129,-4.57922c10.02537,8.67287 13.53134,39.09978 10.02872,47.10614c-6.57619,15.03197 -17.87054,24.60893 -25.22659,21.39078c-7.35612,-3.21813 -7.98828,-18.01272 -1.41207,-33.0447z" fill="#ff48b3" stroke="#000000" stroke-linecap="butt"/><path d="M296.45656,425.23172c1.06493,-2.43429 5.74403,-12.24628 4.14327,-22.87748c-0.99542,-6.61098 -7.86829,-13.40074 -9.04562,-19.35042c-1.63436,-8.25922 7.84656,-9.11181 9.37231,-8.4443c4.15779,1.81897 17.84017,53.84445 15.11174,60.08113c-2.72843,6.23668 -8.3108,9.81794 -12.46857,7.99897c-4.15775,-1.81897 -10.04478,-9.16881 -7.31635,-15.40549z" fill="#bb1c79" stroke="none" stroke-linecap="butt"/><path d="M298.87892,410.12786c6.57621,-15.0319 -17.99743,-34.09106 -10.64138,-30.87293c3.43802,1.50409 18.45397,-12.18969 27.25127,-4.57924c10.02539,8.67289 13.53136,39.09978 10.02872,47.10616c-6.57617,15.03192 -17.87052,24.60891 -25.22659,21.39078c-7.35605,-3.21813 -7.98824,-18.01276 -1.41204,-33.0447z" fill="none" stroke="#000000" stroke-linecap="butt"/><path d="M325.48379,404.51144l-23.67055,2.06341" fill="none" stroke="#000000" stroke-linecap="round"/></g><g><path d="M266.06788,416.69992c8.57433,-13.98877 -13.15533,-36.23602 -6.30974,-32.04006c3.19947,1.9611 19.95051,-9.54547 27.62174,-0.80114c8.7421,9.96504 8.04487,40.58534 3.47799,48.03612c-8.57433,13.98883 -21.07464,21.92745 -27.92021,17.73152c-6.84564,-4.19594 -5.44418,-18.93757 3.13016,-32.9264z" fill="#ff48b3" stroke="#000000" stroke-linecap="butt"/><path d="M261.12033,430.75439c1.38851,-2.26535 7.36822,-11.34346 7.23961,-22.09375c-0.07996,-6.68503 -5.95741,-14.35266 -6.3082,-20.40759c-0.48697,-8.40525 9.02133,-7.95042 10.44119,-7.08012c3.86926,2.37166 10.29225,55.78142 6.7348,61.5853c-3.55743,5.80389 -9.57796,8.58626 -13.44722,6.21462c-3.86924,-2.37164 -8.69337,-10.45898 -5.13594,-16.26285z" fill="#bb1c79" stroke="none" stroke-linecap="butt"/><path d="M265.58989,416.12506c8.57433,-13.98877 -13.15529,-36.23599 -6.30969,-32.04004c3.19945,1.9611 19.95048,-9.54547 27.62172,-0.80114c8.74212,9.96506 8.04489,40.58534 3.47801,48.03612c-8.57431,13.98879 -21.07464,21.92748 -27.92021,17.73152c-6.84559,-4.19594 -5.44415,-18.93761 3.13018,-32.9264z" fill="none" stroke="#000000" stroke-linecap="butt"/><path d="M268.98347,413.00771l23.72997,1.20021" fill="none" stroke="#000000" stroke-linecap="round"/></g><g data-paper-data="{&quot;index&quot;:null}"><path d="M237.58242,406.74478c-0.02966,16.40751 -6.56258,29.69662 -14.59179,29.6821c-8.02917,-0.01448 -14.5141,-13.3271 -14.48447,-29.73459c0.01578,-8.739 15.47086,-35.18195 28.13891,-39.08664c11.11627,-3.42634 19.35125,15.15276 23.10393,15.15951c8.02922,0.01448 -22.137,7.57211 -22.16661,23.97956z" fill="#ff48b3" stroke="#000000" stroke-linecap="butt"/><path d="M233.80979,423.22206c-0.0123,6.80736 -8.35951,11.16643 -12.89775,11.15825c-4.53822,-0.00818 -8.20726,-5.53328 -8.19497,-12.34064c0.0123,-6.80736 33.47576,-48.92688 38.01403,-48.91872c1.66536,0.00301 10.00142,4.59918 5.18127,11.5022c-3.47227,4.97277 -12.49654,8.42231 -16.06843,14.07365c-5.74401,9.08798 -5.40952,19.95336 -5.41432,22.61042z" fill="#bb1c79" stroke="none" stroke-linecap="butt"/><path d="M238.29073,406.50573c-0.02961,16.40747 -6.56258,29.69658 -14.59175,29.6821c-8.02917,-0.01448 -14.5141,-13.32717 -14.48447,-29.73459c0.01578,-8.739 15.47084,-35.18193 28.13894,-39.08662c11.11627,-3.42634 19.35125,15.15276 23.10389,15.15951c8.02917,0.01448 -22.13698,7.57211 -22.16657,23.97956z" fill="none" stroke="#000000" stroke-linecap="butt"/><path d="M237.0345,402.07215l-20.83847,-11.41531" fill="none" stroke="#000000" stroke-linecap="round"/></g></g><g stroke-width="5.5" stroke-linecap="butt"><g data-paper-data="{&quot;index&quot;:null}"><path d="M-17.027,591.97123c0,-20.95599 31.48769,-37.94422 70.32972,-37.94422c38.84203,0 70.3297,16.98818 70.3297,37.94422c0,10.45288 -0.58369,22.81873 -13.25711,29.68134c-12.73434,6.8956 -37.605,8.26288 -57.0726,8.26288c-20.85923,0 -54.09848,-0.06574 -66.97802,-7.8479c-11.10348,-6.70902 -3.3517,-20.39425 -3.3517,-30.09632z" fill="#ff48b3" stroke="#000000"/><path d="M-18.44313,612.06491c0,-3.64348 13.95718,4.94714 41.07496,6.92008c29.08202,2.11584 71.99413,-2.43611 88.88952,-8.83949c7.57244,-2.86996 5.47894,-15.99037 -2.90639,-26.88113c-9.14515,-11.87763 -24.76676,-21.46951 -18.05913,-21.46951c39.37594,0 33.59391,39.0579 33.59391,50.27003c0,11.21213 -31.9205,20.30136 -71.29644,20.30136c-39.37594,0 -71.29646,-9.08923 -71.29646,-20.30136z" fill="#bb1c79" stroke="none"/><path d="M54.78679,555.02774c38.84203,0 70.32972,16.9882 70.32972,37.94422c0,10.45288 -0.58372,22.81873 -13.25711,29.68134c-12.73434,6.8956 -37.605,8.26288 -57.0726,8.26288c-20.85923,0 -54.09846,-0.06572 -66.97802,-7.84788c-11.10348,-6.70902 -3.3517,-20.39429 -3.3517,-30.09634c0,-20.95602 31.48769,-37.94422 70.32972,-37.94422z" fill="none" stroke="#000000"/></g><path d="M-54.9613,600.90616c0,-20.95602 14.13902,-37.94422 31.58034,-37.94422c17.44134,0 31.58034,16.98818 31.58034,37.94422c0,10.45288 -0.2621,22.81873 -5.95286,29.68134c-5.71814,6.8956 -16.88589,8.26288 -25.62747,8.26288c-9.36647,0 -24.29197,-0.06574 -30.07532,-7.8479c-4.98584,-6.70902 -1.50504,-20.39427 -1.50504,-30.09632z" fill="#ff48b3" stroke="#000000"/><path d="M-55.59716,620.9998c0,-3.64348 6.26724,4.94711 18.44401,6.92006c13.05878,2.11584 32.32771,-2.43609 39.9143,-8.83945c3.40027,-2.86996 2.46022,-15.99037 -1.30506,-26.88113c-4.10647,-11.87763 -11.12108,-21.46951 -8.10914,-21.46951c17.68108,0 15.08476,39.05792 15.08476,50.27005c0,11.21215 -14.33335,20.30136 -32.01443,20.30136c-17.68108,0 -32.01443,-9.08923 -32.01443,-20.30136z" fill="#bb1c79" stroke="none"/><path d="M-54.29491,601.90687c0,-20.95602 14.139,-37.94422 31.58034,-37.94422c17.44134,0 31.58034,16.98822 31.58034,37.94422c0,10.45288 -0.2621,22.81873 -5.95286,29.68134c-5.71814,6.89562 -16.88587,8.26285 -25.62745,8.26285c-9.36647,0 -24.29197,-0.06572 -30.07532,-7.84788c-4.98584,-6.70902 -1.50502,-20.39427 -1.50502,-30.09632z" fill="none" stroke="#000000"/><g><path d="M34.18951,599.62647c0,-20.95602 14.13902,-37.94422 31.58034,-37.94422c17.44134,0 31.58034,16.98818 31.58034,37.94422c0,10.45288 -0.2621,22.81873 -5.95286,29.68134c-5.71814,6.8956 -16.88589,8.26288 -25.62747,8.26288c-9.36647,0 -24.29197,-0.06574 -30.07532,-7.8479c-4.98584,-6.70902 -1.50504,-20.39427 -1.50504,-30.09632z" fill="#ff48b3" stroke="#000000"/><path d="M33.55364,619.72013c0,-3.64348 6.26724,4.94711 18.44401,6.92006c13.05878,2.11584 32.32771,-2.43609 39.9143,-8.83945c3.40027,-2.86996 2.46022,-15.99037 -1.30506,-26.88113c-4.10647,-11.87763 -11.12108,-21.46951 -8.10914,-21.46951c17.68108,0 15.08476,39.05792 15.08476,50.27005c0,11.21215 -14.33335,20.30136 -32.01443,20.30136c-17.68108,0 -32.01443,-9.08923 -32.01443,-20.30136z" fill="#bb1c79" stroke="none"/><path d="M34.85589,600.62717c0,-20.95602 14.139,-37.94422 31.58034,-37.94422c17.44134,0 31.58034,16.98822 31.58034,37.94422c0,10.45288 -0.2621,22.81873 -5.95286,29.68134c-5.71814,6.89562 -16.88587,8.26285 -25.62745,8.26285c-9.36647,0 -24.29197,-0.06572 -30.07532,-7.84788c-4.98584,-6.70902 -1.50502,-20.39427 -1.50502,-30.09632z" fill="none" stroke="#000000"/></g><g><path d="M-15.29133,599.19991c0,-20.95602 14.13902,-37.94422 31.58034,-37.94422c17.44134,0 31.58034,16.98818 31.58034,37.94422c0,10.45288 -0.2621,22.81873 -5.95286,29.68134c-5.71814,6.8956 -16.88589,8.26288 -25.62747,8.26288c-9.36647,0 -24.29197,-0.06574 -30.07532,-7.8479c-4.98584,-6.70902 -1.50504,-20.39427 -1.50504,-30.09632z" fill="#ff48b3" stroke="#000000"/><path d="M-15.92719,619.29357c0,-3.64348 6.26724,4.94711 18.44401,6.92006c13.05878,2.11584 32.32771,-2.43609 39.9143,-8.83945c3.40027,-2.86996 2.46022,-15.99037 -1.30506,-26.88113c-4.10647,-11.87763 -11.12108,-21.46951 -8.10914,-21.46951c17.68108,0 15.08476,39.05792 15.08476,50.27005c0,11.21215 -14.33335,20.30136 -32.01443,20.30136c-17.68108,0 -32.01443,-9.08923 -32.01443,-20.30136z" fill="#bb1c79" stroke="none"/><path d="M-14.62494,600.20062c0,-20.95602 14.139,-37.94422 31.58034,-37.94422c17.44134,0 31.58034,16.98822 31.58034,37.94422c0,10.45288 -0.2621,22.81873 -5.95286,29.68134c-5.71814,6.89562 -16.88587,8.26285 -25.62745,8.26285c-9.36647,0 -24.29197,-0.06572 -30.07532,-7.84788c-4.98584,-6.70902 -1.50502,-20.39427 -1.50502,-30.09632z" fill="none" stroke="#000000"/></g></g><g data-paper-data="{&quot;index&quot;:null}" stroke-width="5.5" stroke-linecap="butt"><g data-paper-data="{&quot;index&quot;:null}"><path d="M283.94123,587.6418c0,9.70204 7.75181,23.38727 -3.3517,30.09632c-12.87957,7.78218 -46.11877,7.8479 -66.97802,7.8479c-19.46758,0 -44.33827,-1.36728 -57.0726,-8.26288c-12.67342,-6.86261 -13.25711,-19.22846 -13.25711,-29.68134c0,-20.95602 31.48769,-37.94419 70.3297,-37.94419c38.84201,0 70.32972,16.9882 70.32972,37.94419z" fill="#ff48b3" stroke="#000000"/><path d="M285.35734,607.73545c0,11.21213 -31.9205,20.30138 -71.29644,20.30138c-39.37594,0 -71.29644,-9.08926 -71.29644,-20.30138c0,-11.21213 -5.78202,-50.27 33.59391,-50.27c6.70763,0 -8.914,9.5919 -18.05913,21.46953c-8.38531,10.89075 -10.47881,24.01117 -2.90637,26.88113c16.8954,6.40338 59.80751,10.95533 88.88952,8.83949c27.11777,-1.97294 41.07496,-10.56358 41.07496,-6.92008z" fill="#bb1c79" stroke="none"/><path d="M282.45714,588.64252c0,9.70204 7.75179,23.3873 -3.3517,30.09632c-12.87957,7.78218 -46.11877,7.84788 -66.97802,7.84788c-19.46758,0 -44.33829,-1.36728 -57.07263,-8.26288c-12.6734,-6.86261 -13.25711,-19.22846 -13.25711,-29.68134c0,-20.95602 31.48771,-37.94422 70.32972,-37.94422c38.84201,0 70.32972,16.9882 70.32972,37.94422z" fill="none" stroke="#000000"/></g><path d="M321.87553,596.57671c0,9.70204 3.4808,23.3873 -1.50504,30.09632c-5.78334,7.78218 -20.70885,7.84792 -30.07532,7.84792c-8.74158,0 -19.90935,-1.36728 -25.62747,-8.26288c-5.69076,-6.86261 -5.95286,-19.22849 -5.95286,-29.68134c0,-20.95602 14.139,-37.94419 31.58034,-37.94419c17.44134,0 31.58034,16.98818 31.58034,37.94419z" fill="#ff48b3" stroke="#000000"/><path d="M322.5114,616.67039c0,11.21213 -14.33335,20.30136 -32.01445,20.30136c-17.6811,0 -32.01443,-9.08923 -32.01443,-20.30136c0,-11.21213 -2.59632,-50.27005 15.08476,-50.27005c3.01197,0 -4.00267,9.5919 -8.10914,21.46953c-3.76529,10.89075 -4.70534,24.01117 -1.30506,26.88113c7.5866,6.40336 26.85554,10.95531 39.9143,8.83945c12.17675,-1.97294 18.44401,-10.56354 18.44401,-6.92006z" fill="#bb1c79" stroke="none"/><path d="M321.2091,597.57743c0,9.70204 3.48082,23.3873 -1.50502,30.09632c-5.78334,7.78218 -20.70885,7.84788 -30.07532,7.84788c-8.74158,0 -19.90931,-1.36726 -25.62745,-8.26288c-5.69076,-6.86261 -5.95286,-19.22846 -5.95286,-29.68134c0,-20.95602 14.139,-37.94422 31.58036,-37.94422c17.44134,0 31.58034,16.9882 31.58034,37.94422z" fill="none" stroke="#000000"/><g><path d="M232.72473,595.29704c0,9.70204 3.4808,23.3873 -1.50504,30.09632c-5.78334,7.78218 -20.70885,7.8479 -30.07532,7.8479c-8.74158,0 -19.90933,-1.36728 -25.62747,-8.26288c-5.69076,-6.86261 -5.95286,-19.22846 -5.95286,-29.68134c0,-20.95602 14.139,-37.94422 31.58034,-37.94422c17.44134,0 31.58034,16.9882 31.58034,37.94422z" fill="#ff48b3" stroke="#000000"/><path d="M233.36059,615.39069c0,11.21213 -14.33335,20.30138 -32.01445,20.30138c-17.6811,0 -32.01445,-9.08923 -32.01445,-20.30138c0,-11.21213 -2.5963,-50.27003 15.08479,-50.27003c3.01197,0 -4.00267,9.5919 -8.10914,21.46953c-3.76529,10.89075 -4.70536,24.01117 -1.30509,26.88113c7.5866,6.40336 26.85554,10.95528 39.9143,8.83945c12.17675,-1.97294 18.44401,-10.56356 18.44401,-6.92006z" fill="#bb1c79" stroke="none"/><path d="M232.0583,596.29776c0,9.70204 3.4808,23.38727 -1.50502,30.09632c-5.78334,7.78218 -20.70885,7.84788 -30.07532,7.84788c-8.74158,0 -19.90933,-1.36724 -25.62745,-8.26285c-5.69076,-6.86261 -5.95286,-19.22849 -5.95286,-29.68134c0,-20.95602 14.139,-37.94422 31.58036,-37.94422c17.44134,0 31.58034,16.9882 31.58034,37.94422z" fill="none" stroke="#000000"/></g><g><path d="M282.20554,594.87048c0,9.70204 3.4808,23.3873 -1.50502,30.09632c-5.78334,7.78218 -20.70885,7.8479 -30.07532,7.8479c-8.74158,0 -19.90933,-1.36728 -25.62747,-8.26288c-5.69076,-6.86261 -5.95286,-19.22849 -5.95286,-29.68136c0,-20.95602 14.139,-37.94419 31.58034,-37.94419c17.44134,0 31.58034,16.98818 31.58034,37.94419z" fill="#ff48b3" stroke="#000000"/><path d="M282.84142,614.96414c0,11.21213 -14.33335,20.30138 -32.01443,20.30138c-17.6811,0 -32.01445,-9.08923 -32.01445,-20.30138c0,-11.21213 -2.5963,-50.27003 15.08479,-50.27003c3.01197,0 -4.00269,9.5919 -8.10916,21.46953c-3.76529,10.89075 -4.70534,24.01117 -1.30506,26.88113c7.58657,6.40336 26.85554,10.95531 39.9143,8.83945c12.17675,-1.97294 18.44399,-10.56356 18.44399,-6.92006z" fill="#bb1c79" stroke="none"/><path d="M281.53913,595.87121c0,9.70204 3.48082,23.38727 -1.50502,30.09632c-5.78334,7.78218 -20.70885,7.84788 -30.07532,7.84788c-8.7416,0 -19.90933,-1.36724 -25.62745,-8.26285c-5.69076,-6.86261 -5.95286,-19.22849 -5.95286,-29.68134c0,-20.95602 14.139,-37.94422 31.58034,-37.94422c17.44134,0 31.58034,16.9882 31.58034,37.94422z" fill="none" stroke="#000000"/></g></g><g><path d="M224.37907,164.29534c0.48464,11.46694 -27.78453,21.97411 -63.14095,23.46841c-35.35643,1.4943 -64.41134,-6.59014 -64.89597,-18.05708c-0.48464,-11.46694 27.78453,-21.97411 63.14095,-23.46841c35.35643,-1.4943 64.41134,6.59014 64.89597,18.05708z" fill="#000000" stroke="#000000" stroke-width="5.5" stroke-linecap="butt"/><path d="M230.85922,167.2628c0.21569,5.10339 -11.2251,12.10451 -17.58481,16.4641c-12.39563,8.49722 -27.56855,12.74403 -54.1862,13.86899c-40.27411,1.70214 -73.43837,-9.11874 -74.07446,-24.16911c-0.21865,-5.17351 -13.58203,-26.78733 -7.05694,-31.19072c7.02772,-4.74257 3.42667,16.50113 17.33964,29.47717c10.74898,10.02509 49.64369,15.64738 61.16331,15.16051c18.84974,-0.79666 46.43224,-3.07056 60.60078,-18.52423c9.75202,-10.63658 8.39372,-36.20965 12.67015,-36.72726c2.78537,-0.33712 0.99504,32.48267 1.12851,35.64055z" fill="#ff48b3" stroke="#000000" stroke-width="5.5" stroke-linecap="butt"/><path d="M101.89943,183.8268c13.69126,6.85287 37.97103,10.52584 57.15462,9.71507c17.88847,-0.75603 38.63164,-4.02986 50.92619,-13.0118c14.55047,-10.63005 19.10298,-26.90218 19.27263,-22.88814c0.1403,3.31962 -2.76768,15.60585 -13.10049,23.19243c-12.71864,9.33832 -35.0234,13.94119 -56.57437,14.85201c-24.56336,1.03814 -49.73279,-1.94144 -63.63984,-9.41641c-8.20718,-4.41131 -11.20158,-13.2669 -11.31774,-16.01537c-0.15927,-3.76849 3.09378,6.4721 17.279,13.57221z" fill="#bb1c79" stroke="none" stroke-width="5.5" stroke-linecap="butt"/><g><g fill="none" stroke="none" stroke-width="1" stroke-linecap="butt" font-family="sans-serif" font-weight="normal" font-size="12" text-anchor="start"/><g stroke-width="5.5" stroke-linecap="butt"><g data-paper-data="{&quot;index&quot;:null}"><path d="M226.93891,-80.57932c8.11034,-2.76554 25.01175,4.91937 31.30529,8.79806c8.05042,4.96144 19.47998,8.73929 19.14826,20.57169c-0.29629,10.56822 -11.50303,28.80702 -18.53302,40.21384c-6.12953,9.94574 -9.31257,21.10859 -17.36497,26.2888c-11.52298,7.41287 -28.23982,6.0115 -37.2112,0.48245c-5.88374,-3.62615 -18.71193,-11.80205 -20.12276,-19.5403c-2.24364,-12.30623 10.35915,-26.40114 19.50751,-41.24523c8.74767,-14.19395 11.74089,-31.63774 23.27089,-35.5693z" data-paper-data="{&quot;index&quot;:null}" fill="#ff48b3" stroke="#000000"/><path d="M184.309,-20.51607c5.50812,-8.93744 35.5259,-67.18727 50.86066,-57.73651c2.69434,1.66053 47.72147,19.28584 43.83508,25.14623c-3.1693,4.77911 -33.5923,-17.70136 -45.2805,-13.41859c-23.28634,8.53253 -33.42199,43.69571 -34.01526,55.09282c-0.82204,15.79235 42.31091,21.60506 40.13217,25.14028c-5.50812,8.93744 -22.40462,8.52131 -37.73939,-0.92944c-15.33477,-9.45075 -23.30086,-24.35734 -17.79273,-33.29478z" data-paper-data="{&quot;index&quot;:null}" fill="#bb1c79" stroke="none"/><path d="M226.38225,-80.47393c8.11034,-2.76549 25.01173,4.91935 31.30529,8.79803c8.05038,4.96142 19.47998,8.73929 19.14824,20.57171c-0.29627,10.56824 -11.50301,28.80699 -18.533,40.21384c-6.12953,9.94574 -9.31257,21.10859 -17.36497,26.28878c-11.52298,7.41287 -28.23982,6.0115 -37.2112,0.48245c-5.88374,-3.62615 -18.71193,-11.80205 -20.12276,-19.5403c-2.24366,-12.30623 10.35911,-26.40112 19.50746,-41.24521c8.74769,-14.19397 11.74093,-31.63772 23.27091,-35.56931z" data-paper-data="{&quot;index&quot;:null}" fill="none" stroke="#000000"/><path d="M240.14183,-64.13994c10.16173,-3.40459 23.45439,11.10351 28.90241,14.46109c9.596,5.91399 -0.34874,18.10945 -11.48093,36.1725c-4.77107,7.74152 -7.3355,17.85657 -13.17616,21.98619c-7.78715,5.50587 -18.87222,3.39096 -24.35552,0.01164c-3.93942,-2.42785 -17.84913,-7.82426 -18.20035,-13.77964c-0.5043,-8.55123 14.41977,-18.98694 20.98188,-29.63459c4.812,-7.80797 9.59177,-26.625 17.32868,-29.21716z" data-paper-data="{&quot;index&quot;:null}" fill="none" stroke="#000000"/><path d="M222.68847,-35.44812c4.81205,-7.80799 9.59181,-26.625 17.32868,-29.21716c10.16173,-3.40459 23.45442,11.10348 28.90244,14.46109c9.59598,5.91399 -0.34876,18.10943 -11.48095,36.17248c-4.77109,7.74154 -7.3355,17.85659 -13.17616,21.98621c-7.78715,5.50587 -18.87222,3.39096 -24.35552,0.01164c-3.9394,-2.42783 -17.84911,-7.82426 -18.20031,-13.77964c-0.5043,-8.55123 14.41973,-18.98693 20.98183,-29.63459z" data-paper-data="{&quot;index&quot;:null}" fill="#ff94d2" stroke="#000000"/><path d="M240.38376,7.94074c-2.95178,4.78955 -18.5064,1.92828 -27.26445,-3.46927c-8.75802,-5.39756 -13.46494,-13.65582 -10.51315,-18.44536c1.36936,-2.22188 12.26649,-9.05364 19.56885,-20.39718c8.43871,-13.10877 13.59801,-30.61718 18.29317,-27.72359c4.88474,3.01044 -17.71005,27.97797 -18.88761,45.86515c-0.93374,14.1835 20.10863,22.05205 18.80318,24.17026z" fill="#ea88c1" stroke="none"/><path d="M222.5183,-35.83077c4.81205,-7.80799 9.59181,-26.62502 17.3287,-29.21718c10.16173,-3.40459 23.45439,11.10351 28.90242,14.46111c9.59598,5.91399 -0.34876,18.1094 -11.48095,36.17246c-4.77109,7.74154 -7.33547,17.85657 -13.17614,21.98619c-7.78715,5.50587 -18.87224,3.39097 -24.35552,0.01164c-3.9394,-2.42783 -17.84911,-7.82424 -18.20031,-13.77962c-0.5043,-8.55123 14.41975,-18.98693 20.98186,-29.63461z" data-paper-data="{&quot;index&quot;:null}" fill="none" stroke="#000000"/></g><g data-paper-data="{&quot;index&quot;:null}"><path d="M268.04256,-30.83082c-12.3036,5.94208 -27.1457,-16.72132 -33.43734,-29.74866c-6.29162,-13.02733 -1.41795,-28.4051 10.88565,-34.34717c5.75967,-2.78166 36.89218,-9.35019 53.35563,-2.52049c18.70508,7.75961 22.75896,29.61712 26.10528,36.54597c6.29162,13.02733 -44.60563,24.12828 -56.90923,30.07039z" fill="#ff48b3" stroke="#000000"/><path d="M270.48893,-31.17837c-12.3036,5.94208 -28.22807,-1.56178 -35.56829,-16.76035c-6.79034,-14.05998 -3.8557,-29.77959 6.36256,-36.76013c0.82747,-0.56528 -6.07064,-3.7835 -5.1489,-4.22865c12.3036,-5.94208 42.37792,-24.01882 49.71814,-8.82025c3.77526,7.81703 -32.53938,3.87884 -35.99515,18.20416c-1.44902,6.00652 -1.8423,16.35161 3.73531,25.46588c6.98369,11.41187 20.2186,21.29486 16.89637,22.89934z" fill="#bb1c79" stroke="none"/><path d="M267.05689,-30.73857c-12.3036,5.94208 -27.1457,-16.72136 -33.43734,-29.74868c-6.29162,-13.02733 -1.41795,-28.4051 10.88565,-34.34717c5.75969,-2.78168 36.89221,-9.35021 53.35563,-2.52049c18.70506,7.75964 22.75894,29.61712 26.10528,36.54597c6.29162,13.02733 -44.60563,24.1283 -56.90923,30.07039z" fill="none" stroke="#000000"/><path d="M264.93753,-39.8706c-10.13236,4.89347 -22.53992,0.17716 -27.71304,-10.53419c-5.17309,-10.71137 -13.33702,-27.17384 -3.20468,-32.06729c1.88964,-0.91262 18.49766,3.30155 28.81453,2.79001c15.82396,-0.78458 28.02207,-5.84259 36.93131,-4.08758c16.42841,3.23619 13.52396,15.51888 16.25257,21.1687c5.17309,10.71137 -40.94834,17.8369 -51.0807,22.73037z" fill="#ff94d2" stroke="#000000"/><path d="M256.80363,-39.43716c-4.77668,2.30693 -13.23927,-5.32761 -18.90174,-17.0522c-5.66247,-11.72461 -6.3805,-23.0994 -1.60382,-25.40634c2.50092,-1.20785 1.21949,27.93751 20.4437,31.89488c17.49355,3.60113 55.61206,-18.30517 58.30985,-12.71919c5.66247,11.72461 -53.47128,20.97591 -58.24797,23.28284z" fill="#ea88c1" stroke="none"/><path d="M265.67006,-40.48702c-10.13236,4.89347 -22.53992,0.17716 -27.71304,-10.53424c-5.17311,-10.71135 -13.33702,-27.17379 -3.20466,-32.06729c1.88964,-0.91262 18.49766,3.30153 28.81453,2.78999c15.82396,-0.78458 28.0221,-5.84258 36.93133,-4.08756c16.42841,3.23619 13.52394,15.51885 16.25255,21.16868c5.17309,10.71137 -40.94834,17.8369 -51.0807,22.73037z" fill="none" stroke="#000000"/></g></g><g stroke-width="5.5" stroke-linecap="butt"><g><path d="M113.78114,-30.22976c6.67119,16.11009 16.87199,32.02987 12.69977,43.82267c-2.62352,7.41539 -16.58872,13.44713 -22.97424,16.09138c-9.73651,4.03189 -26.46348,2.75689 -36.66089,-6.39423c-7.12607,-6.3949 -8.49332,-17.92191 -12.9631,-28.71587c-5.12641,-12.37965 -13.2899,-32.16859 -11.9017,-42.64945c1.55429,-11.73457 13.43918,-13.64665 22.17619,-17.26464c6.83029,-2.82842 24.73876,-7.72756 32.30607,-3.7074c10.75799,5.71521 10.93893,23.41304 17.31793,38.81753z" data-paper-data="{&quot;index&quot;:null}" fill="#ff48b3" stroke="#000000"/><path d="M128.99838,-2.96875c4.01663,9.69967 -6.21874,23.14966 -22.86135,30.04136c-16.64261,6.8917 -33.39023,4.61537 -37.40686,-5.08431c-1.58879,-3.83669 41.91964,-2.71576 43.61959,-18.43785c1.22682,-11.34639 -3.1876,-47.67397 -24.8206,-59.80129c-10.85833,-6.08709 -44.46933,11.26888 -46.83826,6.04656c-2.90491,-6.40391 44.35219,-16.64396 47.27634,-17.85483c16.64261,-6.8917 37.01454,55.39065 41.03117,65.09036z" data-paper-data="{&quot;index&quot;:null}" fill="#bb1c79" stroke="none"/><path d="M114.314,-30.03717c6.67119,16.11009 16.87199,32.02987 12.69975,43.82266c-2.62352,7.41539 -16.58872,13.44713 -22.97424,16.0914c-9.73651,4.03189 -26.46346,2.75687 -36.66089,-6.39425c-7.12607,-6.3949 -8.49332,-17.92191 -12.9631,-28.71585c-5.12641,-12.37967 -13.28992,-32.16859 -11.9017,-42.64945c1.55426,-11.73457 13.43921,-13.64665 22.17619,-17.26464c6.83031,-2.82844 24.73874,-7.72754 32.30605,-3.7074c10.75799,5.71523 10.93895,23.413 17.31795,38.8175z" data-paper-data="{&quot;index&quot;:null}" fill="none" stroke="#000000"/><path d="M93.27543,-23.31565c4.78522,11.55576 17.8597,24.23211 16.00185,32.59429c-1.29388,5.82373 -15.88476,8.9393 -20.16015,10.70976c-5.95094,2.46428 -17.23128,2.78935 -24.04368,-3.88489c-5.10959,-5.00594 -6.03274,-15.40007 -9.51189,-23.80185c-8.11784,-19.60358 -15.99649,-33.22537 -5.58208,-37.53798c5.91266,-2.44843 21.34343,-14.65785 30.8344,-9.68053c7.22617,3.78963 8.95251,23.12731 12.46155,31.60118z" data-paper-data="{&quot;index&quot;:null}" fill="none" stroke="#000000"/><path d="M93.48211,-23.81445c4.78522,11.55578 17.8597,24.23211 16.00185,32.59429c-1.29388,5.82373 -15.88475,8.93932 -20.16013,10.70976c-5.95094,2.46428 -17.23128,2.78933 -24.04368,-3.88489c-5.10959,-5.00594 -6.03271,-15.40005 -9.51189,-23.80185c-8.11784,-19.60358 -15.99651,-33.22537 -5.5821,-37.53798c5.91266,-2.44843 21.34346,-14.65786 30.83442,-9.68053c7.22617,3.78961 8.95251,23.12731 12.46157,31.6012z" data-paper-data="{&quot;index&quot;:null}" fill="#ff94d2" stroke="#000000"/><path d="M91.51944,-4.66425c1.68215,-17.84683 -16.65435,-46.08994 -11.35302,-48.28523c5.09556,-2.11007 7.40475,15.996 13.65131,30.28001c5.4054,12.36052 15.07735,20.83836 16.07591,23.24973c2.15251,5.19803 -3.80784,12.60263 -13.31282,16.53866c-9.50498,3.93602 -25.31667,4.28713 -27.46918,-0.91091c-0.95194,-2.29886 21.07398,-6.72078 22.4078,-20.87226z" fill="#ea88c1" stroke="none"/><path d="M93.71092,-24.16519c4.78522,11.55578 17.85968,24.23211 16.00183,32.59429c-1.29388,5.82373 -15.88476,8.9393 -20.16015,10.70976c-5.95094,2.46428 -17.23128,2.78933 -24.04368,-3.88489c-5.10959,-5.00594 -6.03269,-15.40005 -9.51187,-23.80185c-8.11784,-19.60358 -15.99651,-33.22535 -5.5821,-37.53796c5.91266,-2.44843 21.34343,-14.65785 30.8344,-9.68053c7.22617,3.78961 8.95251,23.12733 12.46157,31.60122z" data-paper-data="{&quot;index&quot;:null}" fill="none" stroke="#000000"/></g><g><path d="M1.66565,-116.92928c6.98348,-3.23077 23.98841,-17.54917 43.36822,-11.67432c17.05733,5.17078 36.94742,30.00553 39.63302,35.81061c5.73689,12.4006 -0.25648,27.37753 -13.38654,33.45186c-13.13004,6.07436 -38.98349,14.16868 -44.72038,1.76807c-5.73689,-12.40062 -38.02438,-53.28188 -24.89433,-59.35622z" fill="#ff48b3" stroke="#000000"/><path d="M24.89,-59.39424c-1.54906,-3.34842 14.9511,-2.58618 27.59068,-6.97288c10.09478,-3.5035 16.3565,-11.74768 19.04883,-17.3091c6.42115,-13.26374 -24.14185,-33.26788 -16.2632,-36.91277c15.31839,-7.08672 27.0869,25.96982 32.82379,38.37043c0.42978,0.92899 -6.94349,-0.96196 -6.66279,0.00004c3.46627,11.87962 -4.24249,25.89009 -18.41334,32.44592c-15.31841,7.08672 -32.38707,2.77897 -38.12396,-9.62165z" fill="#bb1c79" stroke="none"/><path d="M27.26318,-56.8762c-5.73689,-12.4006 -38.02438,-53.28188 -24.89433,-59.35622c6.98348,-3.23074 23.98839,-17.54915 43.36822,-11.67432c17.05733,5.17078 36.94742,30.0055 39.63302,35.81061c5.73689,12.4006 -0.25648,27.37753 -13.38654,33.45186c-13.13007,6.07434 -38.98352,14.16868 -44.7204,1.76808z" fill="none" stroke="#000000"/><path d="M34.69675,-62.5882c-4.72448,-10.21226 -35.84437,-44.99032 -25.04854,-49.98479c5.69437,-2.63438 11.24522,-13.96965 25.99479,-6.04406c7.9988,4.2981 14.21525,15.94855 25.9459,26.59773c7.64811,6.94303 23.1572,14.22685 24.0383,16.13138c4.72448,10.21224 -12.03263,17.75293 -22.82844,22.7474c-10.79582,4.99447 -23.37751,0.76457 -28.102,-9.44769z" fill="#ff94d2" stroke="#000000"/><path d="M10.47073,-112.05158c5.63002,-2.60462 21.18454,38.51672 36.98887,46.83632c17.36789,9.14266 34.87502,-14.19385 36.04116,-11.67321c2.22723,4.81435 -5.54682,13.14896 -17.36387,18.61587c-11.81705,5.46691 -23.20221,5.99591 -25.42947,1.18156c-2.22723,-4.81437 -42.05375,-49.49363 -30.23669,-54.96054z" fill="#ea88c1" stroke="none"/><path d="M34.52188,-63.5295c-4.7245,-10.21226 -35.84437,-44.99032 -25.04854,-49.98479c5.69437,-2.63438 11.2452,-13.96965 25.99477,-6.04406c7.9988,4.2981 14.21527,15.94855 25.94593,26.59773c7.64811,6.94303 23.15718,14.22688 24.03828,16.13141c4.72448,10.21226 -12.0326,17.75292 -22.82842,22.74739c-10.79584,4.99445 -23.37753,0.76457 -28.10202,-9.44769z" fill="none" stroke="#000000"/></g></g><g stroke-width="5.5"><g><g><g><path d="M98.52197,164.66236c0,0 -12.34376,-0.02642 -13.99278,-7.45276c-1.70952,-7.69874 0.45003,-26.37282 0.45003,-26.37282l101.15389,8.1376c0,0 35.17499,-15.09082 35.42754,-9.1152c0.0957,2.26424 5.51067,16.78765 -3.82634,25.07836c-11.0725,9.83173 -37.20484,13.4452 -37.20484,13.4452c0,0 -11.40282,6.31758 -23.87912,7.14719c-14.35206,0.95436 -30.21888,-3.5542 -33.34664,-3.42201c-0.62016,0.02621 -24.78174,-7.44556 -24.78174,-7.44556z" fill="#ffffff" stroke="#000000" stroke-linecap="butt"/><path d="M156.57045,167.07049c38.54045,-1.62887 67.11566,-28.16762 67.48586,-19.40842c0.3702,8.7592 -31.95257,22.44582 -70.49302,24.07469c-38.54045,1.62887 -68.70413,-9.41684 -69.07432,-18.17604c-0.3702,-8.7592 33.54103,15.13863 72.08149,13.50977z" fill="#d6d6d6" stroke="none" stroke-linecap="butt"/><path d="M99.09915,163.9732c0,0 -12.34376,-0.02642 -13.99278,-7.45276c-1.70952,-7.69874 0.45003,-26.37282 0.45003,-26.37282l101.15389,8.1376c0,0 35.17499,-15.09082 35.42754,-9.1152c0.0957,2.26424 5.51067,16.78765 -3.82634,25.07836c-11.0725,9.83173 -37.20484,13.4452 -37.20484,13.4452c0,0 -11.40282,6.31758 -23.87912,7.14719c-14.35206,0.95436 -30.21888,-3.5542 -33.34664,-3.42201c-0.62016,0.02621 -24.78174,-7.44556 -24.78174,-7.44556z" fill="none" stroke="#000000" stroke-linecap="butt"/><path d="M73.69666,76.91128c-1.40447,-33.23112 14.79102,-62.76657 39.61972,-77.96671c10.42322,-6.38108 22.36791,-10.23577 35.17067,-10.77686c43.29967,-1.83001 80.01751,34.9348 82.01159,82.11652c0.84205,19.92369 14.77698,36.6149 4.89853,51.58874c-13.51491,20.48597 -54.67366,36.09757 -79.68892,37.15481c-27.18791,1.14906 -71.24595,-12.09558 -86.27725,-34.40368c-8.90765,-13.21995 5.00764,-30.15657 4.26565,-47.71284z" fill="#ff48b3" stroke="#000000" stroke-linecap="butt"/><path d="M149.90517,46.33199c22.55957,-0.95345 41.36445,10.50055 42.0019,25.58323c0.63745,15.08269 -17.13392,28.08254 -39.69349,29.03599c-22.55957,0.95345 -41.36445,-10.50055 -42.0019,-25.58323c-0.63745,-15.08269 17.13392,-28.08254 39.69349,-29.03599z" fill="#bb1c79" stroke="none" stroke-linecap="butt"/><path d="M113.8251,38.42252c15.59832,-0.65924 29.00735,16.88547 29.94991,39.18721c0.94256,22.30174 -10.93829,40.9153 -26.53661,41.57455c-12.94459,0.54709 -30.09513,-2.78319 -34.15063,-19.62454c-0.8314,-3.45258 4.36108,-15.76851 4.20072,-19.56268c-0.94256,-22.30174 10.93829,-40.9153 26.53661,-41.57455z" fill="#000000" stroke="#000000" stroke-linecap="butt"/><path d="M125.42961,139.52822c34.98874,5.80127 73.66427,0.36661 92.21042,-18.21952c9.76604,-9.78708 3.17578,-57.89936 -12.04105,-91.17063c-9.93548,-21.72372 -32.14652,-34.68548 -26.16384,-34.93834c48.37618,-2.04456 59.9365,110.89736 60.2394,118.0642c0.3029,7.16684 -33.93619,41.15617 -82.31238,43.20073c-48.3762,2.04456 -92.57039,-28.62987 -92.87329,-35.79672c-0.09912,-2.34518 29.11054,13.58269 60.94073,18.86026z" fill="#bb1c79" stroke="none" stroke-linecap="butt"/><path d="M213.37383,72.40689c0.16036,3.79417 6.3735,15.62803 5.83638,19.13845c-2.62002,17.12348 -19.42839,21.88899 -32.37299,22.43608c-15.59834,0.65925 -29.00735,-16.88545 -29.94991,-39.18719c-0.94256,-22.30174 10.93829,-40.9153 26.53661,-41.57455c15.59832,-0.65924 29.00737,16.88547 29.94993,39.18721z" data-paper-data="{&quot;index&quot;:null}" fill="#000000" stroke="#000000" stroke-linecap="butt"/><path d="M148.48705,-11.83234c43.29967,-1.83001 80.01751,34.9348 82.01159,82.11652c0.84205,19.92369 14.77698,36.6149 4.89853,51.58874c-13.51491,20.48599 -54.67366,36.09759 -79.68892,37.15483c-27.18791,1.14906 -71.24594,-12.0956 -86.27725,-34.40368c-8.90767,-13.21994 5.00764,-30.15657 4.26565,-47.71284c-1.99408,-47.18172 31.49073,-86.91356 74.79039,-88.74357z" fill="none" stroke="#000000" stroke-linecap="butt"/><path d="M88.03343,101.95211c21.53096,-12.24719 60.87642,-10.12967 83.52832,-11.08703c37.825,-1.59863 55.98668,8.89669 56.76075,27.21195c0.77407,18.31525 -36.37951,36.92613 -74.20451,38.52476c-37.82498,1.59863 -77.79736,-12.30818 -78.57143,-30.62345c-0.31051,-7.34698 -1.93541,-15.8226 12.48688,-24.02624z" fill="#ff94d2" stroke="#000000" stroke-linecap="butt"/><path d="M78.21002,129.48441c-0.26843,-6.35137 32.78389,17.95957 74.52155,16.19558c12.96661,-0.54802 66.0451,-12.217 69.21565,-27.13292c0.84523,-3.97643 -7.58253,-10.6332 -19.23787,-15.27283c-11.4364,-4.55249 -26.11704,-7.10487 -24.03547,-9.28045c6.10998,-6.38589 33.22511,9.73511 37.45354,7.82044c5.08233,-2.30133 13.15108,19.46125 13.22804,21.28223c0.26843,6.35139 -30.71222,31.05768 -72.4499,32.82167c-41.73766,1.76399 -78.42713,-20.0823 -78.69556,-26.43369z" fill="#ea88c1" stroke="none" stroke-linecap="butt"/><path d="M76.29797,126.66883c-0.31051,-7.34698 -1.93539,-15.82262 12.48688,-24.02626c2.0284,-1.15378 4.21488,-2.18007 6.53062,-3.09347c22.26549,-8.78206 56.4798,-7.1264 76.99769,-7.99356c37.825,-1.59863 55.98668,8.89669 56.76075,27.21195c0.77407,18.31525 -36.37951,36.92613 -74.20451,38.52476c-37.825,1.59863 -77.79736,-12.30818 -78.57143,-30.62345z" fill="none" stroke="#000000" stroke-linecap="butt"/><path d="M149.95396,127.93222c17.40309,-0.73552 31.14486,12.13368 31.45541,19.48166c0.31055,7.34798 -12.9277,6.39219 -30.3308,7.12771c-17.40309,0.73552 -31.56553,0.04339 -31.87609,-7.30459c-0.31055,-7.34796 13.34838,-18.56924 30.75147,-19.30476z" fill="#ff0000" stroke="#000000" stroke-linecap="butt"/><path d="M121.60453,150.56596c-0.18524,-4.383 -4.78649,-17.10128 10.94075,-17.76597c7.07936,-0.2992 -1.65477,12.5073 7.20975,15.41044c10.82856,3.54638 38.70099,-2.4616 38.80285,-0.05152c0.18524,4.38302 -12.41404,8.47497 -28.14128,9.13966c-15.72724,0.66469 -28.62684,-2.34958 -28.81208,-6.73259z" fill="#d00000" stroke="none" stroke-linecap="butt"/><path d="M149.91335,128.79227c17.40309,-0.73552 31.14486,12.13368 31.45541,19.48166c0.31055,7.34798 -12.9277,6.39219 -30.3308,7.12771c-17.40309,0.73552 -31.56553,0.04339 -31.87609,-7.30459c-0.31055,-7.34796 13.34838,-18.56924 30.75147,-19.30476z" fill="none" stroke="#000000" stroke-linecap="butt"/><path d="M117.66675,99.83502c-0.38683,-9.15276 14.66164,-17.22175 33.61166,-18.02265c18.95002,-0.8009 34.62565,5.96961 35.01248,15.12234c0.20511,4.85306 -10.21516,4.52278 -16.96976,7.84455c-5.98442,2.94301 -7.73973,9.80187 -16.64188,10.17811c-6.37107,0.26927 -12.6877,-7.78656 -17.86196,-9.03173c-10.21602,-2.45843 -16.89376,-0.01504 -17.15054,-6.09058z" fill="#222222" stroke="#000000" stroke-linecap="butt"/><path d="M120.32847,98.24263c-0.158,-3.73846 16.89577,0.45506 32.49408,-0.20418c15.59834,-0.65925 33.13162,-7.24988 33.28962,-3.51143c0.158,3.73844 -16.12626,17.75133 -31.72458,18.41058c-6.36825,0.26915 -9.06476,-3.55261 -14.91577,-6.00412c-8.48039,-3.55319 -19.04982,-6.47868 -19.14331,-8.69084z" fill="#151515" stroke="none" stroke-linecap="butt"/><path d="M118.03378,99.27491c-0.38683,-9.15276 14.66164,-17.22175 33.61166,-18.02265c18.95002,-0.8009 34.62565,5.96961 35.01248,15.12234c0.20511,4.85306 -10.21516,4.52278 -16.96976,7.84455c-5.98442,2.94301 -7.73973,9.80187 -16.64188,10.17811c-6.37107,0.26927 -12.6877,-7.78656 -17.86196,-9.03173c-10.21602,-2.45843 -16.89376,-0.01504 -17.15054,-6.09058z" fill="none" stroke="#000000" stroke-linecap="butt"/><path d="M107.59978,154.37159l0.47316,11.19538" fill="none" stroke="#000000" stroke-linecap="round"/><path d="M138.70813,160.66727l0.55765,13.19455" fill="none" stroke="#000000" stroke-linecap="round"/><path d="M175.06501,167.94276l-2.37094,-8.71188" fill="none" stroke="#000000" stroke-linecap="round"/><path d="M201.96648,159.99645l-1.67266,-11.14468" fill="none" stroke="#000000" stroke-linecap="round"/><path d="M113.61639,64.80154c6.97622,-0.29484 12.8663,5.02048 13.15588,11.87212c0.28958,6.85164 -5.13102,12.64499 -12.10723,12.93983c-6.97622,0.29484 -12.8663,-5.02048 -13.15588,-11.87212c-0.28958,-6.85164 5.13102,-12.64499 12.10723,-12.93983z" fill="#652c45" stroke="none" stroke-linecap="butt"/><path d="M114.1625,70.82735c3.53315,-0.14932 6.5184,2.5938 6.66773,6.12697c0.14932,3.53315 -2.5938,6.5184 -6.12697,6.66773c-3.53315,0.14932 -6.5184,-2.5938 -6.66773,-6.12697c-0.14932,-3.53315 2.5938,-6.5184 6.12697,-6.66773z" fill="#ff9cc7" stroke="none" stroke-linecap="butt"/><path d="M184.2468,61.245c6.97622,-0.29484 12.8663,5.02048 13.15588,11.87212c0.28958,6.85164 -5.13102,12.64499 -12.10723,12.93983c-6.97619,0.29484 -12.86628,-5.02048 -13.15586,-11.87212c-0.28958,-6.85162 5.13102,-12.64499 12.10721,-12.93983z" fill="#652c45" stroke="none" stroke-linecap="butt"/><path d="M183.90486,67.01593c3.53317,-0.14933 6.52392,2.7245 6.68006,6.41888c0.15614,3.69436 -2.58149,6.81031 -6.11464,6.95963c-3.53315,0.14932 -6.52392,-2.7245 -6.68006,-6.41888c-0.15614,-3.69438 2.58149,-6.81031 6.11464,-6.95963z" fill="#ff9cc7" stroke="none" stroke-linecap="butt"/></g><path d="M201.28468,42.87478l9.34296,-22.37511" fill="none" stroke="#000000" stroke-linecap="round"/></g><path d="M133.58085,23.28827l-7.20611,17.60815" fill="none" stroke="#000000" stroke-linecap="round"/><path d="M116.95919,39.42376l-6.37143,-17.96964" fill="none" stroke="#000000" stroke-linecap="round"/><path d="M96.85904,28.58164l12.28239,13.97851" fill="none" stroke="#000000" stroke-linecap="round"/></g><path d="M177.76557,39.65983l-8.43606,-22.55903" fill="none" stroke="#000000" stroke-linecap="round"/><path d="M186.41832,34.1498l6.13433,-20.83651" fill="none" stroke="#000000" stroke-linecap="round"/></g><g fill="none" stroke="none" stroke-width="1" stroke-linecap="butt" font-family="sans-serif" font-weight="normal" font-size="12" text-anchor="start"/></g><path d="M230.46323,168.14617c0.21569,5.10339 -11.2251,12.10451 -17.58479,16.4641c-12.39563,8.49722 -27.56855,12.74403 -54.1862,13.86899c-40.27411,1.70214 -73.43837,-9.11874 -74.07446,-24.16911c-0.21865,-5.17349 -13.58201,-26.78733 -7.05694,-31.19072c7.0277,-4.74257 3.42667,16.50113 17.33964,29.47717c10.74898,10.02509 49.64371,15.64738 61.16331,15.16051c18.84974,-0.79666 46.43224,-3.07056 60.60078,-18.52423c9.75204,-10.63658 8.39369,-36.20965 12.67015,-36.72724c2.78537,-0.33712 0.99504,32.48267 1.12851,35.64055z" fill="none" stroke="#000000" stroke-width="5.5" stroke-linecap="butt"/></g></g></g></svg>