<svg version="1.1" xmlns="http://www.w3.org/2000/svg" xmlns:xlink="http://www.w3.org/1999/xlink" width="169" height="140.96387" viewBox="0,0,169,140.96387"><defs><radialGradient cx="240" cy="180" r="79" gradientUnits="userSpaceOnUse" id="color-1"><stop offset="0" stop-color="#d1d1d1"/><stop offset="1" stop-color="#d1d1d1" stop-opacity="0"/></radialGradient></defs><g transform="translate(-161,-107.03614)"><g data-paper-data="{&quot;isPaintingLayer&quot;:true}" fill-rule="nonzero" stroke-linejoin="miter" stroke-miterlimit="10" stroke-dasharray="" stroke-dashoffset="0" style="mix-blend-mode: normal"><g><path d="M240,112c43.6305,0 79,30.44464 79,68c0,37.55536 -35.3695,68 -79,68c-43.6305,0 -79,-30.44464 -79,-68c0,-37.55536 35.3695,-68 79,-68z" fill="url(#color-1)" stroke="none" stroke-width="0" stroke-linecap="butt"/><path d="M240,148c17.67311,0 32,14.32689 32,32c0,17.67311 -14.32689,32 -32,32c-17.67311,0 -32,-14.32689 -32,-32c0,-17.67311 14.32689,-32 32,-32z" fill="#ffffff" stroke="#7d7d7d" stroke-width="5" stroke-linecap="butt"/><path d="M220.91533,194.227l15.33333,-2.33333l38.66667,3" fill="none" stroke="#7d7d7d" stroke-width="5" stroke-linecap="round"/><path d="M210.38776,186.21827c0,0 -10.99462,-9.45477 -14.42372,-14.92815c-3.25513,-5.1957 -5.65618,-17.12248 -5.65618,-17.12248l10.03996,-0.7723c0,0 3.46547,-10.26382 8.2675,-15.6922c6.51137,-7.36069 27.2585,-24.46762 27.2585,-24.46762l-3.08921,11.58457c0,0 21.34981,-1.2143 30.74463,-0.34193c8.54489,0.79346 23.31666,5.3619 23.31666,5.3619l-12.35687,6.56459c0,0 7.92676,6.98093 10.8262,12.53412c4.20107,8.04612 11.95677,31.10108 11.95677,31.10108c0,0 -22.52411,-17.50131 -32.7038,-22.30838c-7.57373,-3.57649 -22.90212,-3.94996 -22.90212,-3.94996l9.26765,9.26765c0,0 -23.17913,2.483 -29.88292,6.61362c-5.94881,3.66543 -10.66305,16.55551 -10.66305,16.55551z" fill="#7b7b7b" stroke="#7d7d7d" stroke-width="4.5" stroke-linecap="round"/><path d="M237.90226,171.27076l15.33333,0.33333v9.66667" fill="none" stroke="#7d7d7d" stroke-width="5" stroke-linecap="round"/><path d="M264.23559,180.93743l-2.33333,-11.33333l7.66667,-2" fill="none" stroke="#7d7d7d" stroke-width="5" stroke-linecap="round"/><g stroke="#505050" stroke-linecap="butt" font-family="Pixel" font-weight="normal" font-size="40" text-anchor="start"><text transform="translate(164.75,232.76875) scale(0.5,0.5)" font-size="40" xml:space="preserve" fill="#7b7b7b" fill-rule="nonzero" stroke="#505050" stroke-width="9" stroke-linecap="butt" stroke-linejoin="miter" stroke-miterlimit="10" stroke-dasharray="" stroke-dashoffset="0" font-family="Pixel" font-weight="normal" text-anchor="start" style="mix-blend-mode: normal"><tspan x="0" dy="0">Lancer_Susie-1</tspan></text><text transform="translate(164.75,232.76875) scale(0.5,0.5)" font-size="40" xml:space="preserve" fill="#ffffff" fill-rule="nonzero" stroke="#505050" stroke-width="0" stroke-linecap="butt" stroke-linejoin="miter" stroke-miterlimit="10" stroke-dasharray="" stroke-dashoffset="0" font-family="Pixel" font-weight="normal" text-anchor="start" style="mix-blend-mode: normal"><tspan x="0" dy="0">Lancer_Susie-1</tspan></text></g></g></g></g></svg>