<svg version="1.1" xmlns="http://www.w3.org/2000/svg" xmlns:xlink="http://www.w3.org/1999/xlink" width="485.96283" height="690.265" viewBox="0,0,485.96283,690.265"><g transform="translate(134.95862,25.66075)"><g data-paper-data="{&quot;isPaintingLayer&quot;:true}" fill-rule="nonzero" stroke-width="4.5" stroke-linejoin="miter" stroke-miterlimit="10" stroke-dasharray="" stroke-dashoffset="0" style="mix-blend-mode: normal"><g><path d="M229.75533,391.08911l-59.85919,-152.73637l42.15575,-18.10155l59.85919,152.73637z" data-paper-data="{&quot;index&quot;:null}" fill="#1b1b1b" stroke="#000000" stroke-linecap="butt"/><g data-paper-data="{&quot;index&quot;:null}"><g stroke-linecap="butt"><path d="M272.18435,354.50029c1.73743,16.34505 -9.99273,48.90697 -24.92549,50.49427c-14.93274,1.5873 -69.16778,-139.13108 -70.9052,-155.47611c-1.11584,-10.49742 -4.42204,-21.37631 2.54789,-27.43072c3.88261,-3.37263 16.00197,-4.47079 21.34434,-5.03866c7.74984,-0.82378 3.19838,57.32786 19.55538,91.2141c15.16039,31.40727 51.54738,38.37492 52.3831,46.23713z" fill="#840000" stroke="#000000"/><path d="M272.43444,348.09391c2.7485,25.85683 -10.07525,48.41796 -25.64471,50.07295c-15.5695,1.65499 -66.9922,-121.56739 -69.74071,-147.42425c-1.81341,-17.05982 24.36379,55.11996 47.68741,97.80875c12.02706,22.01283 24.19071,27.63428 29.48779,27.07121c15.5695,-1.65499 15.46172,-53.3855 18.21022,-27.52863z" fill="#430000" stroke="none"/><path d="M272.04992,353.23491c1.73743,16.34505 -9.99273,48.90697 -24.92549,50.49427c-14.93272,1.5873 -69.16778,-139.13108 -70.9052,-155.47611c-0.941,-8.85256 -15.29779,-21.07653 -10.24642,-27.09828c4.2753,-5.09658 27.29354,-4.64348 34.13862,-5.37109c8.18933,-0.8705 4.33297,59.47426 21.3025,95.32081c13.97326,29.51722 49.85139,34.74926 50.63598,42.13042z" fill="none" stroke="#000000"/></g><path d="M205.50009,320.32727l15.42011,-13.02654" fill="none" stroke="#000000" stroke-linecap="round"/></g></g><g><g stroke-linecap="butt"><path d="M60.63408,200.11356c8.14155,2.35854 23.75895,8.44168 27.53453,15.25883c3.72021,6.71714 -4.32443,14.1272 -6.61149,22.02204c-4.60818,15.90721 -87.48475,144.69527 -103.64841,140.0128c-16.16366,-4.68247 -23.69354,-39.52851 -19.08536,-55.4357c4.60818,-15.90721 85.64708,-126.54046 101.81071,-121.858z" fill="#840000" stroke="#000000"/><path d="M-24.90631,346.72615c5.73373,1.66101 20.04097,-1.4067 36.90267,-20.81716c32.69926,-37.64203 73.40361,-104.04344 68.59392,-87.44063c-7.28985,25.16419 -84.89409,139.56747 -101.747,134.68533c-16.8529,-4.88214 -26.52772,-32.44618 -19.23787,-57.61037c7.28985,-25.16419 -1.36463,26.30068 15.48826,31.18281z" fill="#430000" stroke="none"/><path d="M60.9908,198.8821c7.58737,2.198 25.15787,7.05573 29.00764,13.22268c4.35154,6.97071 -5.63957,15.61794 -8.08463,24.05815c-4.60818,15.90721 -87.48475,144.69527 -103.64841,140.0128c-16.16366,-4.68247 -23.69354,-39.52851 -19.08536,-55.4357c4.60818,-15.90721 85.64708,-126.54046 101.81071,-121.858z" fill="none" stroke="#000000"/></g><path d="M3.11489,254.00416l34.6981,47.81027" fill="none" stroke="#000000" stroke-linecap="round"/></g><g><path d="M-68.24784,360.92531c5.25152,-19.68093 24.04796,-31.75596 41.983,-26.97028c17.93504,4.78565 28.21708,24.61977 22.96556,44.3007c-5.25152,19.68095 -24.04799,31.75596 -41.98302,26.97028c-17.93506,-4.78565 -28.21708,-24.61977 -22.96556,-44.3007z" fill="#840000" stroke="#000000" stroke-linecap="butt"/><path d="M-69.04373,375.09021c2.96455,-11.11021 4.94168,-43.01104 20.81341,-38.77593c2.66285,0.71053 -6.74021,11.76259 -8.48563,25.18669c-1.65563,12.73344 4.32777,27.80096 7.08542,31.01032c11.66354,13.57403 40.05884,-9.56258 38.06341,-2.08442c-2.96458,11.11018 -18.2344,16.68358 -34.10613,12.44847c-15.87173,-4.23511 -26.33506,-16.67494 -23.37048,-27.78515z" fill="#430000" stroke="none" stroke-linecap="butt"/><path d="M-26.8301,335.79078c17.93506,4.78565 28.21708,24.61977 22.96556,44.3007c-5.25152,19.68095 -24.04794,31.75596 -41.983,26.97028c-17.93506,-4.78565 -28.21708,-24.61977 -22.96556,-44.3007c5.25152,-19.68095 24.04794,-31.75596 41.983,-26.97028z" fill="none" stroke="#000000" stroke-linecap="butt"/><g><path d="M-6.00538,416.08011c3.98099,-14.91941 -21.5899,-29.15708 -14.28889,-27.20894c3.41233,0.91051 15.43521,-13.9638 24.70144,-8.1343c10.55977,6.6433 18.14702,34.45168 16.02666,42.3981c-3.98099,14.91943 -13.12683,25.43471 -20.42784,23.48657c-7.30101,-1.94814 -9.9924,-15.62199 -6.01141,-30.54143z" fill="#840000" stroke="#000000" stroke-linecap="butt"/><path d="M-17.26114,391.49697c-2.69463,-7.45136 6.00448,-9.59239 7.51882,-9.18832c4.12666,1.10113 24.25175,47.55639 22.60006,53.74636c-1.65169,6.18997 -6.33597,10.31529 -10.46261,9.21416c-4.12664,-1.10113 -7.32275,-6.41685 -5.67106,-12.60682c1.04557,-3.91847 -8.92257,-27.16571 -13.98522,-41.1654z" fill="#430000" stroke="none" stroke-linecap="butt"/><path d="M-20.87965,388.48084c3.41233,0.91051 15.43521,-13.9638 24.70144,-8.1343c10.55977,6.6433 18.14702,34.45168 16.02666,42.3981c-3.98099,14.91941 -13.12685,25.43471 -20.42784,23.48657c-7.30099,-1.94814 -9.99237,-15.62202 -6.01138,-30.54143c3.98099,-14.91941 -21.58987,-29.15708 -14.28889,-27.20894z" fill="none" stroke="#000000" stroke-linecap="butt"/><path d="M17.36183,406.6824l-21.72788,5.28469" fill="none" stroke="#000000" stroke-linecap="round"/></g><g data-paper-data="{&quot;index&quot;:null}"><path d="M-84.86939,405.69848c0.8888,15.41584 -4.50621,28.26542 -12.05015,28.70034c-7.54392,0.43495 -14.37998,-11.70943 -15.26877,-27.12527c-0.4734,-8.21082 12.56874,-33.91635 24.25175,-38.29238c10.25187,-3.83995 19.02628,13.15432 22.55213,12.95103c7.54392,-0.43495 -20.3738,8.35044 -19.48498,23.76623z" fill="#840000" stroke="#000000" stroke-linecap="butt"/><path d="M-90.88854,421.389c0.36876,6.39593 -3.83418,10.95744 -8.09812,11.20329c-4.26394,0.24585 -8.01951,-4.73978 -8.38827,-11.13571c-0.36876,-6.39593 28.71573,-47.83506 32.9797,-48.08091c1.56471,-0.09022 9.6529,3.76199 5.51022,10.51639c-7.78325,12.69026 -22.23698,33.44809 -22.00356,37.49694z" fill="#430000" stroke="none" stroke-linecap="butt"/><path d="M-84.21733,405.4343c0.88882,15.41581 -4.50621,28.26542 -12.05013,28.70036c-7.5439,0.43495 -14.37998,-11.70946 -15.26877,-27.12527c-0.4734,-8.21082 12.56874,-33.91635 24.25175,-38.29238c10.25187,-3.83995 19.02628,13.15432 22.55213,12.95103c7.5439,-0.43495 -20.3738,8.35044 -19.48498,23.76623z" fill="none" stroke="#000000" stroke-linecap="butt"/><path d="M-105.85982,391.77925l20.21468,9.56006" fill="none" stroke="#000000" stroke-linecap="round"/></g><g data-paper-data="{&quot;index&quot;:null}"><path d="M-53.14752,419.6075c3.98099,14.91943 1.2896,28.59329 -6.01141,30.54143c-7.30101,1.94814 -16.44684,-8.56713 -20.42784,-23.48657c-2.12036,-7.94642 5.46689,-35.7548 16.02666,-42.3981c9.26623,-5.8295 21.28912,9.04481 24.70144,8.1343c7.30101,-1.94814 -18.26988,12.28953 -14.28889,27.20894z" fill="#840000" stroke="#000000" stroke-linecap="butt"/><path d="M-55.87701,436.18983c1.65169,6.18997 -1.54442,11.50569 -5.67106,12.60684c-4.12664,1.10113 -8.81091,-3.02419 -10.46261,-9.21416c-1.65169,-6.18997 18.4734,-52.64524 22.60006,-53.74636c1.51434,-0.40407 10.21345,1.73693 7.51882,9.18829c-5.06265,13.99969 -15.03079,37.24693 -13.98522,41.1654z" fill="#430000" stroke="none" stroke-linecap="butt"/><path d="M-52.56217,419.21712c3.98099,14.91941 1.2896,28.59329 -6.01138,30.54143c-7.30099,1.94814 -16.44684,-8.56716 -20.42784,-23.48657c-2.12036,-7.94642 5.46689,-35.7548 16.02666,-42.3981c9.26623,-5.8295 21.28912,9.04481 24.70144,8.1343c7.30099,-1.94814 -18.26988,12.28953 -14.28889,27.20894z" fill="none" stroke="#000000" stroke-linecap="butt"/><path d="M-76.51477,410.20984l21.72788,5.28469" fill="none" stroke="#000000" stroke-linecap="round"/></g><g data-paper-data="{&quot;index&quot;:null}"><path d="M-26.81095,425.66935c9.29743,12.32865 11.94365,26.01132 5.91048,30.56113c-6.03317,4.54981 -18.46105,-1.75615 -27.75848,-14.0848c-4.95201,-6.5665 -8.37482,-35.18743 -1.08688,-45.31305c6.39521,-8.88524 23.12772,0.37852 25.9475,-1.74796c6.03317,-4.54981 -12.31005,18.25606 -3.01261,30.58468z" fill="#840000" stroke="#000000" stroke-linecap="butt"/><path d="M-23.10668,442.06152c3.85746,5.11506 2.89401,11.24239 -0.51603,13.814c-3.41003,2.57164 -9.30152,0.50978 -13.15895,-4.60529c-3.85746,-5.11506 -2.67167,-55.72835 0.73839,-58.29998c1.25138,-0.9437 10.11725,-2.22985 10.42135,5.68794c0.57136,14.87598 0.07333,40.16532 2.51521,43.40333z" fill="#430000" stroke="none" stroke-linecap="butt"/><path d="M-26.41529,425.08764c9.29743,12.32862 11.94365,26.01132 5.91051,30.5611c-6.03314,4.54981 -18.46105,-1.75618 -27.75848,-14.0848c-4.95201,-6.5665 -8.37482,-35.18743 -1.08688,-45.31305c6.39521,-8.88524 23.12772,0.37852 25.9475,-1.74796c6.03314,-4.54981 -12.31005,18.25606 -3.01261,30.58468z" fill="none" stroke="#000000" stroke-linecap="butt"/><path d="M-51.99702,425.74508l22.12082,-3.27074" fill="none" stroke="#000000" stroke-linecap="round"/></g></g><g data-paper-data="{&quot;index&quot;:null}"><path d="M304.8013,399.29897c5.25152,19.68093 -5.0305,39.51505 -22.96556,44.3007c-17.93504,4.78567 -36.7315,-7.28933 -41.98302,-26.97028c-5.25152,-19.68093 5.03053,-39.51505 22.96556,-44.3007c17.93504,-4.78567 36.73148,7.28936 41.983,26.97028z" fill="#840000" stroke="#000000" stroke-linecap="butt"/><path d="M305.59716,413.4639c2.96458,11.11021 -7.49875,23.55004 -23.37048,27.78515c-15.87173,4.23511 -31.14155,-1.33829 -34.10613,-12.44847c-1.99543,-7.47816 26.39987,15.65845 38.06341,2.08442c2.75765,-3.20936 8.74104,-18.27688 7.08542,-31.01032c-1.74542,-13.4241 -11.14848,-24.47616 -8.48563,-25.18669c15.87173,-4.23511 17.84885,27.66572 20.81341,38.77593z" fill="#430000" stroke="none" stroke-linecap="butt"/><path d="M305.36658,401.13485c5.25152,19.68093 -5.0305,39.51505 -22.96556,44.3007c-17.93506,4.78567 -36.73148,-7.28933 -41.983,-26.97028c-5.25152,-19.68093 5.0305,-39.51505 22.96556,-44.3007c17.93506,-4.78567 36.73148,7.28933 41.983,26.97028z" fill="none" stroke="#000000" stroke-linecap="butt"/><g><path d="M242.55884,454.45379c3.98099,14.91943 1.2896,28.59329 -6.01141,30.54143c-7.30101,1.94814 -16.44684,-8.56713 -20.42784,-23.48657c-2.12036,-7.94642 5.46689,-35.7548 16.02666,-42.3981c9.26623,-5.8295 21.28912,9.04481 24.70144,8.1343c7.30101,-1.94814 -18.26988,12.28953 -14.28889,27.20894z" fill="#840000" stroke="#000000" stroke-linecap="butt"/><path d="M239.82941,471.03612c1.65169,6.18997 -1.54442,11.50569 -5.67106,12.60684c-4.12664,1.10113 -8.81091,-3.02419 -10.46261,-9.21416c-1.65169,-6.18997 18.4734,-52.64524 22.60006,-53.74636c1.51434,-0.40407 10.21342,1.73693 7.5188,9.18829c-5.06265,13.99969 -15.03079,37.24693 -13.98522,41.1654z" fill="#430000" stroke="none" stroke-linecap="butt"/><path d="M243.14424,454.06341c3.98099,14.91941 1.2896,28.59329 -6.01138,30.54143c-7.30099,1.94814 -16.44684,-8.56716 -20.42784,-23.48657c-2.12036,-7.94642 5.46689,-35.7548 16.02666,-42.3981c9.26623,-5.8295 21.28912,9.04481 24.70144,8.1343c7.30099,-1.94814 -18.26988,12.28953 -14.28889,27.20894z" fill="none" stroke="#000000" stroke-linecap="butt"/><path d="M240.91951,450.34082l-21.72788,-5.28469" fill="none" stroke="#000000" stroke-linecap="round"/></g><g data-paper-data="{&quot;index&quot;:null}"><path d="M321.4228,444.07216c0.88882,-15.41581 -27.0289,-24.20118 -19.48498,-23.76623c3.52585,0.20329 12.30026,-16.791 22.55213,-12.95105c11.68301,4.376 24.72512,30.08156 24.25175,38.29235c-0.88882,15.41581 -7.72488,27.56022 -15.26877,27.12527c-7.54392,-0.43495 -12.93895,-13.28453 -12.05015,-28.70034z" fill="#840000" stroke="#000000" stroke-linecap="butt"/><path d="M305.43839,422.2658c-4.14268,-6.75441 3.94551,-10.60661 5.51022,-10.51639c4.26397,0.24585 33.34846,41.68498 32.9797,48.08091c-0.36876,6.39593 -4.12432,11.38156 -8.38827,11.13571c-4.26394,-0.24585 -8.46688,-4.80734 -8.09812,-11.20327c0.23345,-4.04885 -14.22029,-24.80668 -22.00356,-37.49694z" fill="#430000" stroke="none" stroke-linecap="butt"/><path d="M301.28578,420.04173c3.52587,0.20329 12.30026,-16.791 22.55215,-12.95105c11.68301,4.376 24.72512,30.08156 24.25175,38.29238c-0.88882,15.41581 -7.72488,27.56019 -15.2688,27.12524c-7.5439,-0.43495 -12.93892,-13.28455 -12.0501,-28.70034c0.8888,-15.41581 -27.0289,-24.20118 -19.48498,-23.76623z" fill="none" stroke="#000000" stroke-linecap="butt"/><path d="M322.19854,439.71304l20.21471,-9.56006" fill="none" stroke="#000000" stroke-linecap="round"/></g><g data-paper-data="{&quot;index&quot;:null}"><path d="M289.70101,457.98116c3.98099,-14.91941 -21.5899,-29.15708 -14.28889,-27.20894c3.41233,0.91051 15.43521,-13.9638 24.70144,-8.1343c10.55977,6.6433 18.14702,34.45168 16.02666,42.3981c-3.98099,14.91943 -13.12683,25.43471 -20.42784,23.48657c-7.30101,-1.94814 -9.9924,-15.62199 -6.01141,-30.54143z" fill="#840000" stroke="#000000" stroke-linecap="butt"/><path d="M278.4452,433.39814c-2.69463,-7.45136 6.00446,-9.59239 7.5188,-9.18832c4.12666,1.10113 24.25175,47.55639 22.60006,53.74636c-1.65169,6.18997 -6.33597,10.31529 -10.46261,9.21416c-4.12664,-1.10113 -7.32275,-6.41687 -5.67106,-12.60684c1.04557,-3.91847 -8.92255,-27.16571 -13.98519,-41.1654z" fill="#430000" stroke="none" stroke-linecap="butt"/><path d="M274.82677,430.38192c3.41233,0.91051 15.43521,-13.9638 24.70144,-8.1343c10.55977,6.6433 18.14702,34.45168 16.02666,42.3981c-3.98099,14.91941 -13.12685,25.43471 -20.42784,23.48657c-7.30099,-1.94814 -9.99237,-15.62202 -6.01138,-30.54143c3.98099,-14.91941 -21.58987,-29.15708 -14.28889,-27.20894z" fill="none" stroke="#000000" stroke-linecap="butt"/><path d="M313.06817,448.5835l-21.72788,5.28469" fill="none" stroke="#000000" stroke-linecap="round"/></g><g data-paper-data="{&quot;index&quot;:null}"><path d="M263.36443,464.04314c9.29743,-12.32862 -9.04581,-35.13449 -3.01261,-30.58468c2.81978,2.12646 19.55231,-7.13729 25.9475,1.74793c7.28796,10.12562 3.86513,38.74652 -1.08688,45.31303c-9.29743,12.32865 -21.72531,18.63461 -27.7585,14.08482c-6.03319,-4.54981 -3.38695,-18.23248 5.91048,-30.56113z" fill="#840000" stroke="#000000" stroke-linecap="butt"/><path d="M262.17538,437.03189c0.30409,-7.91779 9.16999,-6.63164 10.42137,-5.68794c3.41006,2.57164 4.59583,53.18492 0.73839,58.29998c-3.85743,5.11506 -9.74892,7.17693 -13.15895,4.60529c-3.41003,-2.57164 -4.37348,-8.69893 -0.51603,-13.814c2.4419,-3.23802 1.94388,-28.52733 2.51524,-43.40333z" fill="#430000" stroke="none" stroke-linecap="butt"/><path d="M259.95611,432.87669c2.81978,2.12646 19.55229,-7.13729 25.9475,1.74793c7.28794,10.12562 3.86513,38.74652 -1.08688,45.31303c-9.29743,12.32862 -21.72534,18.63461 -27.7585,14.08482c-6.03314,-4.54981 -3.38693,-18.2325 5.91051,-30.56113c9.29743,-12.32862 -9.04578,-35.13447 -3.01261,-30.58468z" fill="none" stroke="#000000" stroke-linecap="butt"/><path d="M266.42963,460.84805l22.12084,3.27076" fill="none" stroke="#000000" stroke-linecap="round"/></g></g><g stroke-linecap="butt"><path d="M79.59097,391.95587l23.07267,-120.65936l56.25335,10.75685l-23.07267,120.65936z" fill="#1b1b1b" stroke="#000000"/><g><path d="M22.3657,380.07762l7.95072,-41.57857l136.96468,26.19059l-7.95072,41.57857z" fill="#1b1b1b" stroke="#000000"/><g><path d="M29.78767,347.59411c6.37493,-33.33796 26.41055,-111.64108 54.43433,-141.67792c19.90703,-21.33702 46.48044,-1.7902 63.23298,1.41325c21.50331,4.11189 45.52916,-8.43679 49.8431,29.03579c3.7781,32.81813 0.06218,109.48273 -5.02854,136.10486c-10.90345,57.01997 -43.96371,49.05997 -84.29939,41.34691c-28.0287,-5.35969 19.0192,-106.92007 5.70372,-126.99042c-5.84662,-8.81255 -87.21295,78.16508 -83.88616,60.76751z" fill="#840000" stroke="#000000"/><path d="M118.0824,282.30155c1.38388,-7.23701 -7.24355,-9.17142 -22.62986,4.09804c-11.332,9.77292 -48.18104,52.40338 -51.40582,50.30579c-12.21358,-7.94446 35.06078,-90.15766 49.47847,-107.6193c14.44993,-17.50067 32.56398,-12.81308 44.53531,-10.5239c14.19348,2.7141 31.27837,2.62385 38.57733,27.28687c8.82363,29.81481 5.96393,87.09586 0.41878,116.09445c-10.13215,52.98642 -44.33601,54.49458 -75.68784,48.49943c-5.84986,-1.11862 6.07131,-8.08844 4.06452,-8.75344c-8.74847,-2.89901 -1.78228,0.27532 6.45934,-42.8245z" fill="#7d3c3c" stroke="#000000"/><path d="M37.80023,342.04085c1.46895,-7.68196 12.86726,-40.96417 30.8474,-69.96544c10.39685,-16.76971 18.59952,-36.40689 30.16259,-46.62467c9.69578,-8.56776 23.02142,-9.26681 29.68316,-8.19434c0.95456,0.15365 25.30532,-7.3818 26.26706,-7.1979c29.52071,5.645 29.86055,44.43947 26.72789,60.82185c-3.13266,16.38237 -35.27661,-21.66276 -64.79732,-27.30776c-20.57488,-3.93436 -30.61364,15.38693 -37.39278,24.90258c-2.94752,4.13734 -31.66665,53.97168 -30.71735,49.00724z" fill="#5c2c2c" stroke="none"/><path d="M32.5206,355.62477c2.73463,-14.30083 23.8777,-155.09265 67.14687,-146.81865c7.99661,1.52913 -13.60045,25.63096 -28.45331,58.3888c-7.1846,15.84558 -38.33233,68.88823 -29.30179,67.85326c6.474,-0.74197 38.3747,-29.96452 49.6561,-40.27632c12.66037,-11.57227 21.92759,-27.31534 24.53487,-20.9499c6.34634,15.49408 -9.36995,70.38087 -9.28993,101.72216c0.02365,9.26184 6.23057,13.52968 8.79923,17.78316c18.02266,29.844 70.34712,4.84922 69.35449,10.0402c-2.73463,14.30083 -40.02809,19.18653 -83.29726,10.91253c-17.08771,-3.26754 -3.00529,-16.04719 0.12006,-37.13226c4.02198,-27.13416 11.51914,-68.24328 13.34262,-86.11547c0.34756,-3.40655 -3.88818,-6.8059 -3.62328,-8.19117z" fill="#430000" stroke="none"/><path d="M107.23116,378.07907c0.84883,-4.439 7.47586,-8.78812 2.54923,-9.4696c-5.51451,-0.76282 -21.88584,2.58602 -4.66674,5.87868c32.60253,6.23431 68.13929,-7.68151 66.34033,1.72618c-0.86923,4.54568 -6.83266,21.06475 -20.02233,28.61461c-14.10751,8.07524 -26.04411,8.00495 -42.8935,4.78298c-15.48623,-2.9613 -8.58278,-15.75558 -8.88269,-24.05622c-0.05158,-1.42754 9.74186,0.43126 8.39509,-0.88288c-7.30848,-7.13142 -6.0017,1.56727 -5.20421,-2.60325z" fill="#5c2c2c" stroke="none"/><path d="M93.93179,228.63751c14.4499,-17.50068 32.56396,-12.81308 44.53528,-10.5239c14.1935,2.7141 31.27839,2.62385 38.57735,27.28687c8.82361,29.81481 5.9639,87.09588 0.41875,116.09447c-4.33781,22.68473 -13.08772,35.93405 -24.13701,43.19864c-14.75935,9.70386 -33.62146,8.72927 -51.55083,5.30079c-7.48047,-1.43043 -4.93397,-12.07928 -2.76393,-26.55433c4.82463,-32.18246 21.26168,-84.03408 16.91597,-100.89144c-1.17123,-4.54326 -35.75564,19.26302 -56.11553,41.30944c-12.5257,13.56325 -26.30976,26.34981 -25.41857,21.68929c6.26329,-32.75415 36.14542,-88.57781 59.53853,-116.90982z" fill="none" stroke="#000000"/><path d="M85.98907,205.96594c19.90703,-21.33705 46.48042,-1.79023 63.23299,1.41322c21.50331,4.11189 45.52916,-8.43681 49.8431,29.03579c3.7781,32.81813 0.06215,109.48275 -5.02857,136.10488c-4.40248,23.02293 -12.41717,35.45219 -23.06453,41.58143c-1.43117,0.82388 -2.90995,1.53392 -4.43387,2.14058c-15.21751,6.05775 -34.94079,1.80505 -56.80099,-2.37509c-16.6304,-3.18009 13.55829,-106.7154 8.42241,-134.04166c-3.30365,-17.57759 -42.33199,39.40533 -47.76693,32.07844c-6.60869,-8.90927 -42.35416,54.12861 -38.83792,35.74031c6.37493,-33.33794 26.41055,-111.64106 54.43432,-141.6779z" fill="none" stroke="#000000"/></g></g><g><path d="M197.52599,276.76047c-1.40606,7.35303 -9.60623,48.28124 -26.10647,45.12603c-16.5002,-3.1552 -35.05209,-49.199 -33.64604,-56.552c1.40606,-7.35303 34.56507,-37.69777 51.06529,-34.54257c16.5002,3.1552 10.09328,38.61551 8.68722,45.96854z" data-paper-data="{&quot;index&quot;:null}" fill="#410000" stroke="#000000"/><path d="M96.25677,213.50742c16.5002,3.1552 36.12408,43.59316 34.71802,50.94619c-1.40606,7.35303 -35.63705,43.30358 -52.13726,40.14838c-16.5002,-3.1552 -9.02133,-44.22133 -7.61527,-51.57436c1.40606,-7.353 8.53428,-42.67542 25.03452,-39.52021z" fill="#410000" stroke="#000000"/><path d="M197.10729,277.09954c-1.40606,7.35303 -9.60623,48.28124 -26.10647,45.12603c-16.50018,-3.15519 -35.0521,-49.19897 -33.64604,-56.552c1.40606,-7.35303 34.56507,-37.69777 51.06529,-34.54257c16.5002,3.1552 10.09328,38.61551 8.68722,45.96854z" data-paper-data="{&quot;index&quot;:null}" fill="none" stroke="#000000"/><path d="M96.52084,213.97703c16.50018,3.15519 36.12405,43.59316 34.71799,50.94618c-1.40606,7.35303 -35.63705,43.30358 -52.13724,40.14839c-16.5002,-3.1552 -9.02133,-44.22133 -7.61527,-51.57436c1.40606,-7.353 8.5343,-42.67541 25.03452,-39.52021z" fill="none" stroke="#000000"/><path d="M90.76657,213.60304c2.16546,0.41408 -8.4146,19.84987 -11.29848,31.31793c-5.00993,19.92271 -4.52208,37.32672 -1.05783,43.9072c8.08144,15.35104 44.1871,-20.40453 43.06077,-14.51435c-1.88707,9.86853 -26.83449,30.82299 -41.53762,28.01144c-14.70316,-2.81156 -13.59426,-28.32447 -11.70717,-38.19299c1.88708,-9.86855 7.8372,-53.34079 22.54034,-50.52924z" fill="#170000" stroke="none"/><path d="M196.21362,288.18707c-1.88708,9.86855 -10.26944,33.99059 -24.97257,31.17903c-14.70313,-2.81155 -30.15928,-31.49204 -28.2722,-41.36058c1.12633,-5.8902 21.49258,40.66403 34.66766,29.3777c5.64769,-4.83808 12.5224,-20.83421 15.21645,-41.19976c1.55076,-11.72299 -1.11196,-33.69108 1.05345,-33.27701c14.70313,2.81155 4.19429,45.4121 2.30722,55.28062z" data-paper-data="{&quot;index&quot;:null}" fill="#170000" stroke="none"/><g><path d="M140.44851,244.47465c10.61892,2.03056 17.21757,14.18649 14.73847,27.15105c-2.4791,12.96454 -13.09713,21.82828 -23.71608,19.79771c-10.61892,-2.03056 -17.21757,-14.18649 -14.73847,-27.15105c2.4791,-12.96451 13.09716,-21.82827 23.71608,-19.79771z" fill="#410000" stroke="#000000"/><path d="M140.12095,244.83118c10.61892,2.03056 17.21757,14.18649 14.73847,27.15105c-2.4791,12.96454 -13.09716,21.82827 -23.71608,19.79771c-10.61892,-2.03056 -17.21757,-14.18649 -14.73847,-27.15105c2.4791,-12.96454 13.09716,-21.82827 23.71608,-19.79771z" fill="none" stroke="#000000"/><path d="M116.29189,269.32855c1.85008,-9.67506 6.73638,-27.76585 17.19195,-25.76652c3.27717,0.62667 -9.03047,18.25548 -10.03991,27.06527c-0.74448,6.49731 8.0124,12.58664 9.77027,15.79182c3.46304,6.3143 21.78316,-14.25633 20.94064,-9.85033c-1.85008,9.67504 -11.82577,15.8974 -22.28133,13.89807c-10.45557,-1.99933 -17.4317,-11.46327 -15.58162,-21.13828z" fill="#170000" stroke="none"/></g></g></g><g><path d="M145.63177,145.93739c29.64227,12.00728 48.2046,35.23867 41.4601,51.88876c-6.74449,16.65007 -36.24181,20.41379 -65.88408,8.40651c-29.64227,-12.00728 -48.2046,-35.23867 -41.4601,-51.88876c6.74449,-16.65007 36.24181,-20.41379 65.88408,-8.40651z" fill="#000000" stroke="#000000" stroke-linecap="butt"/><path d="M77.07273,150.67258c9.98422,0.37505 36.10285,27.38441 54.99035,35.8681c21.10347,9.47905 35.10531,0.73633 46.54609,5.37067c27.6285,11.19155 3.53995,10.45536 -0.33248,20.0152c-3.87244,9.55983 -29.40898,8.23709 -57.03746,-2.95447c-4.6451,-1.8816 -9.0536,-3.92236 -13.15534,-6.06101c-20.29496,-10.58184 -33.08018,-23.56016 -29.85881,-31.51273c0.83371,-2.05819 -6.95238,-20.94362 -1.15235,-20.72578z" fill="#ffffff" stroke="#000000" stroke-linecap="butt"/><path d="M99.18243,181.01899c15.84823,11.43049 37.47319,20.30608 51.3207,22.72354c18.40733,3.21349 23.52886,-6.33702 33.34371,-2.36128c23.77969,9.6325 -11.96357,14.11026 -14.19022,19.60718c-2.22666,5.49692 -23.30897,2.14435 -47.08867,-7.48818c-11.48799,-4.65348 -26.15768,-14.27042 -35.18918,-25.57377c-9.66337,-12.09421 -13.2662,-25.84097 -12.11523,-28.68235c0.61625,-1.52134 9.79263,11.5863 23.91888,21.77485z" fill="#e2e2e2" stroke="none" stroke-linecap="butt"/><path d="M78.51364,152.59959c9.98422,0.37505 36.10285,27.38441 54.99035,35.8681c21.10347,9.47905 35.10531,0.73633 46.54609,5.37067c27.6285,11.19155 3.53995,10.45536 -0.33248,20.0152c-3.87244,9.55983 -29.40898,8.23709 -57.03746,-2.95447c-4.6451,-1.8816 -9.0536,-3.92236 -13.15534,-6.06101c-20.29496,-10.58184 -33.08018,-23.56016 -29.85881,-31.51273c0.83371,-2.05819 -6.95238,-20.94362 -1.15235,-20.72578z" fill="none" stroke="#000000" stroke-linecap="butt"/><path d="M69.22369,150.85714c3.16527,-7.81405 10.45828,-12.23379 16.28941,-9.87176c1.4613,0.59193 -5.86846,4.10708 -5.47296,8.76993c0.30469,3.59231 -2.8123,6.4665 -2.83799,10.63371c-0.03092,5.00965 3.10526,11.43594 4.73256,17.21449c2.27315,8.07205 19.8675,18.90047 18.84125,21.43397c-0.65782,1.62395 58.93537,16.32741 56.13173,19.30607c-0.24577,0.26109 13.81181,-2.38486 22.41034,-10.01032c5.35431,-4.74835 6.20277,-16.19734 7.46243,-15.50378c2.24322,1.23511 13.96235,-12.46831 18.82374,-12.42514c3.18864,0.02832 1.06845,12.47528 -0.35485,16.16081c-1.4347,3.71501 -21.39332,15.4469 -25.42482,20.74014c-5.552,7.28962 -4.72072,13.77374 -6.88155,13.56544c-19.06487,-1.83796 -81.67338,-18.56517 -83.88453,-21.14597c-7.29137,-8.51028 -11.88734,-39.1782 -15.00775,-40.4422c-5.83114,-2.36204 -7.99223,-10.61138 -4.82697,-18.42545z" fill="#840000" stroke="#000000" stroke-linecap="butt"/><path d="M74.73535,135.89346c0.63833,-1.57584 1.01631,25.05708 9.2941,41.91935c6.78732,13.8261 16.97145,28.98038 22.34304,31.15628c11.92278,4.82961 68.61869,17.40459 67.45695,20.27254c-1.16173,2.86795 -55.48598,-8.70679 -67.40875,-13.53639c-3.19679,-1.29493 -9.76067,-1.4948 -16.18892,-10.32411c-5.21462,-7.16234 -7.94221,-18.47846 -12.00394,-28.52857c-2.16409,-5.35467 -6.4954,-10.35291 -7.82149,-14.1655c-4.55993,-13.1101 0.31342,-27.0898 0.77637,-28.23267z" fill="#430000" stroke="none" stroke-linecap="butt"/><path d="M70.04067,149.90374c1.28855,-3.18104 -2.27731,-20.03814 0.00229,-21.86561c3.32011,-2.66159 12.48504,11.0664 15.94232,12.46685c1.4613,0.59193 -5.86846,4.10708 -5.47296,8.76993c0.31236,3.68228 -4.24822,6.44696 -4.10052,11.7774c0.16961,6.12134 5.11355,14.92285 6.70692,20.58104c2.27316,8.07207 13.56969,12.51132 12.54345,15.0448c-0.3452,0.85221 17.4405,5.82383 34.0176,10.78709c15.01177,4.49459 29.03244,8.98235 27.70009,10.39786c-0.24578,0.26112 13.81181,-2.38486 22.41033,-10.0103c5.3543,-4.74832 6.20275,-16.19731 7.46241,-15.50375c1.97968,1.09003 13.12203,-14.81336 18.52005,-15.18443c4.73037,-0.32516 4.04731,14.58508 2.36911,18.93066c-1.4347,3.71501 -23.81361,15.43634 -27.84513,20.72958c-5.552,7.28962 -4.72072,13.77374 -6.88155,13.56544c-19.06487,-1.83799 -81.67338,-18.56517 -83.88452,-21.146c-7.29134,-8.51029 -11.88732,-39.17819 -15.00775,-40.4422c-5.83114,-2.36204 -7.99223,-10.61138 -4.82697,-18.42545z" fill="none" stroke="#000000" stroke-linecap="butt"/><path d="M87.53184,183.79878l8.83543,-22.31053" fill="none" stroke="#000000" stroke-linecap="round"/><path d="M123.77718,184.55902l-6.96567,17.69465" fill="none" stroke="#000000" stroke-linecap="round"/><path d="M154.37807,194.26798l-6.96216,18.18454" fill="none" stroke="#000000" stroke-linecap="round"/><path d="M170.2459,211.9307l5.06433,-17.48783" fill="none" stroke="#000000" stroke-linecap="round"/><path d="M136.45512,-9.8786c11.9249,4.83046 5.83823,17.21835 9.49168,27.88505c2.67632,7.8139 17.37068,13.30534 14.15749,21.23768c-7.59946,18.76069 -30.50871,27.18483 -51.16923,18.81581c-20.66052,-8.36902 -31.24862,-30.362 -23.64914,-49.12272c7.59947,-18.76071 30.50869,-27.18483 51.16921,-18.81581z" fill="#840000" stroke="#000000" stroke-linecap="butt"/><path d="M100.67639,5.69882c-10.24145,13.84089 -8.16322,34.39757 0.88047,38.06092c18.38953,7.4491 59.26204,-9.76878 53.26642,5.03256c-5.99562,14.80133 -25.76369,20.7615 -44.15323,13.3124c-12.44924,-5.04286 -29.11218,-24.41642 -29.29622,-43.48918c-0.04931,-5.10864 13.24408,-24.54582 26.85031,-30.03407c10.63243,-4.28873 22.16234,5.0117 23.01189,2.9144c3.04707,-7.52226 -19.97599,-0.10036 -30.55963,14.20297z" fill="#430000" stroke="none" stroke-linecap="butt"/><path d="M136.43114,-9.14081c11.73429,4.75324 5.56343,16.92 9.31271,27.37455c2.85206,7.95273 17.61974,13.64276 14.33645,21.74816c-7.59947,18.76071 -30.50871,27.18483 -51.16923,18.81581c-20.66054,-8.36902 -31.24862,-30.36204 -23.64916,-49.12273c7.59947,-18.76071 30.50871,-27.18483 51.16923,-18.81581z" fill="none" stroke="#000000" stroke-linecap="butt"/><path d="M72.47299,144.98743l5.25875,-12.98222c0,0 88.96048,10.70422 110.49569,19.42757c19.64093,7.95601 13.55672,30.82273 13.55672,30.82273l-5.25875,12.98222c0,0 -44.5063,-11.11978 -65.32942,-19.55466c-20.52338,-8.31347 -58.72301,-30.69565 -58.72301,-30.69565z" fill="#ffffff" stroke="#000000" stroke-linecap="butt"/><path d="M151.32995,132.61098c36.23637,14.67839 62.23335,34.91784 58.06588,45.20604c-1.06487,2.62885 -4.1726,2.56751 -6.73411,4.39539c-1.56127,1.11414 -1.35105,5.01281 -4.90478,4.60466c-5.79826,-0.66594 -2.02913,-15.16971 -11.01323,-18.37836c-11.83097,-4.22544 -37.10682,2.25098 -49.2326,-2.66086c-14.20662,-5.75472 -44.73078,-13.53031 -54.82686,-19.29537c-15.65571,-8.93975 -7.04559,-15.56593 -4.51199,-21.82062c4.16747,-10.28819 36.92126,-6.7293 73.15766,7.9491z" fill="#e2e2e2" stroke="none" stroke-linecap="butt"/><path d="M72.47297,144.9874l5.25875,-12.98222c0,0 88.77904,12.9336 111.67264,22.20718c14.60676,5.91679 12.37978,28.04312 12.37978,28.04312l-5.25875,12.98222c0,0 -45.7069,-10.83846 -66.25591,-19.16232c-20.79879,-8.42503 -57.7965,-31.08798 -57.7965,-31.08798z" fill="none" stroke="#000000" stroke-linecap="butt"/><path d="M190.54454,39.13732c41.42603,16.78058 62.24223,61.89972 46.49432,100.77644c-8.00305,19.75704 -12.06417,40.90867 -29.51697,43.43207c-7.93785,1.14768 -8.14521,-18.5175 -19.53166,-22.73556c-12.84113,-4.75696 -37.00719,5.56588 -47.80556,1.19175c-19.1627,-7.7623 -57.65496,-17.34605 -67.95213,-29.64553c-11.96332,-14.28965 6.3261,-32.11727 14.78941,-53.01055c15.74791,-38.87672 62.09655,-56.78919 103.52256,-40.00863z" fill="#840000" stroke="#000000" stroke-linecap="butt"/><path d="M190.68672,97.09594c21.35034,8.64845 10.34424,24.9177 6.4718,34.47754c-3.87244,9.55983 -24.31953,10.29869 -45.66987,1.65024c-21.35034,-8.64845 -78.0154,-20.47349 -74.14296,-30.03332c1.22022,-3.01233 10.85387,-39.48125 33.94458,-58.97722c10.67404,-9.01231 38.74759,-9.83477 44.12785,-10.23821c8.12626,-0.60934 -41.90821,15.63948 -58.36423,39.16514c-9.16137,13.09715 12.1587,34.95896 11.5697,41.81116c-0.72297,8.41043 22.30164,-13.88732 38.9096,-20.66397c5.12772,-2.09229 7.21776,-12.70753 8.20875,-12.3061c0,0 6.96037,13.29224 12.6466,15.75169c5.95008,2.57359 22.29819,-0.63699 22.29819,-0.63699z" fill="#430000" stroke="none" stroke-linecap="butt"/><path d="M190.77826,38.56033c41.42603,16.78058 62.24223,61.89972 46.49432,100.77644c-8.00305,19.75704 -12.06417,40.90867 -29.51697,43.43207c-6.99792,1.01179 -5.41201,-19.34722 -15.30884,-22.7508c-13.98957,-4.8111 -40.09624,6.04039 -52.02836,1.207c-19.1627,-7.7623 -57.65496,-17.34605 -67.95213,-29.64553c-11.96332,-14.28965 6.3261,-32.11727 14.78941,-53.01055c15.74791,-38.87672 62.09655,-56.78919 103.52256,-40.00863z" fill="none" stroke="#000000" stroke-linecap="butt"/><path d="M116.23785,58.91134c4.24348,1.71891 12.54117,27.3637 21.56678,27.93608c9.00924,0.57136 17.58916,-13.11598 22.08752,-9.61415c8.08516,6.29403 -1.53031,22.44152 -3.63715,27.6426c-4.4533,10.99383 -0.92895,26.15439 -17.02136,19.63577c-16.09243,-6.51862 -54.21663,-16.2164 -49.76333,-27.21026c4.4533,-10.99383 10.67512,-44.90867 26.76754,-38.39005z" fill="#000000" stroke="#000000" stroke-linecap="butt"/><path d="M220.22134,152.2801c-4.4533,10.99383 -38.57908,-8.57488 -54.6715,-15.09349c-16.09243,-6.51862 -3.01061,-14.95244 1.44269,-25.94628c3.00801,-7.42585 7.11937,-15.30169 22.20513,-10.98574c7.24844,2.07373 28.69726,3.46225 33.91997,5.57784c16.09243,6.51862 1.55701,35.45382 -2.89629,46.44767z" data-paper-data="{&quot;index&quot;:null}" fill="#000000" stroke="#000000" stroke-linecap="butt"/><path d="M85.84884,104.47468c13.99432,1.26013 41.52935,15.62425 63.34651,24.4618c23.41242,9.48374 52.18996,17.68831 62.71313,26.92171c6.37784,5.59611 -2.14609,19.21605 -3.50999,22.58307c-2.05074,5.06266 -1.56936,-13.9053 -17.47777,-18.77203c-12.12896,-3.71049 -38.54716,8.16777 -54.81382,1.57858c-16.67486,-6.75454 -45.81276,-16.85502 -56.69349,-24.01135c-13.65552,-8.98133 -6.85837,-14.75774 -4.84685,-19.72354c1.51723,-3.74558 1.15728,-13.94996 11.2823,-13.03824z" fill="#7d3c3c" stroke="#000000" stroke-linecap="butt"/><path d="M108.62516,110.84929c6.29815,2.55121 -8.47606,-1.10766 -17.67723,1.22215c-9.06708,2.29588 -12.57255,10.56508 -5.28593,15.12736c19.84596,12.42594 82.69451,19.86 112.53306,30.85968c16.1512,5.954 11.06685,19.39399 10.59208,20.56605c-1.01586,2.50785 -3.58144,-14.31548 -17.21957,-17.94945c-13.22256,-3.52327 -37.23793,6.30096 -56.21869,-1.38763c-38.55805,-15.61883 -68.19361,-32.28445 -66.19285,-37.22372c2.00077,-4.93928 0.91108,-26.83329 39.46914,-11.21445z" fill="#5c2c2c" stroke="none" stroke-linecap="butt"/><path d="M87.47027,103.78815c13.99432,1.26013 41.52935,15.62425 63.34651,24.4618c23.41242,9.48374 52.18996,17.68831 62.71313,26.92171c6.37784,5.59611 -2.14609,19.21605 -3.50999,22.58307c-2.17102,5.35959 -1.49607,-12.75422 -18.94675,-18.33733c-11.60077,-3.71149 -38.32965,7.22615 -53.34485,1.1439c-16.67486,-6.75454 -45.81276,-16.85502 -56.69349,-24.01135c-13.65552,-8.98133 -6.85837,-14.75774 -4.84685,-19.72354c1.51723,-3.74558 1.15728,-13.94996 11.2823,-13.03824z" fill="none" stroke="#000000" stroke-linecap="butt"/><path d="M140.53841,102.04163c1.15397,0.46745 0.68654,1.62143 0.68654,1.62143c-0.77908,1.92331 -2.02559,5.00055 -2.80467,6.92385c0,0 -0.46745,1.15397 -1.62143,0.68654c-1.15397,-0.46745 -0.68654,-1.62143 -0.68654,-1.62143c0.77908,-1.92331 1.55813,-3.84658 2.33723,-5.76989l0.46745,-1.15397c0,0 0.46745,-1.15397 1.62143,-0.68654z" fill="#ffffff" stroke="none" stroke-linecap="butt"/><path d="M181.28546,115.86052c1.15397,0.46745 0.68654,1.62143 0.68654,1.62143l-0.23372,0.57699c-1.32847,3.27959 -3.32562,6.41292 -4.55027,9.57506c0,0 -0.46745,1.15397 -1.62143,0.68654c-1.15397,-0.46745 -0.68654,-1.62143 -0.68654,-1.62143c1.3382,-3.20076 3.19961,-6.24071 4.55027,-9.57506l0.23372,-0.57699c0,0 0.46745,-1.15397 1.62143,-0.68654z" fill="#ffffff" stroke="none" stroke-linecap="butt"/><path d="M154.16879,126.61481c12.02949,4.87282 20.2117,12.69789 18.27545,17.47783c-1.93622,4.77993 -13.25765,4.70462 -25.28713,-0.16821c-12.02949,-4.87282 -20.2117,-12.69789 -18.27545,-17.47783c1.93622,-4.77993 13.25765,-4.70462 25.28713,0.16821z" fill="#000000" stroke="#000000" stroke-linecap="butt"/><path d="M205.55624,37.99456c3.07116,-2.72825 14.50494,-7.1718 22.83801,-17.22126c14.92366,-17.9975 29.61712,-44.49535 37.59718,-43.91581c7.57375,0.55005 5.46672,14.25371 11.83,24.46756c7.77528,12.4803 23.56975,22.18081 27.48274,26.58562c2.45552,2.76415 24.77668,4.91537 23.88652,8.64211c-1.77112,7.41493 -21.09872,13.75379 -35.43309,22.91302c-14.76501,9.43439 -24.63829,21.68581 -32.84146,28.97302c-20.16979,17.9176 -31.55611,3.72807 -43.92971,-10.20084c-12.3736,-13.9289 -31.59996,-22.32587 -11.43016,-40.24346z" fill="#410000" stroke="#000000" stroke-linecap="butt"/><path d="M226.36608,24.81055c6.24086,-5.54401 32.08889,-60.52008 44.78387,-46.22939c7.78337,8.76176 -30.25684,30.52696 -32.06164,55.84621c-1.13889,15.97729 35.66486,39.98946 33.25032,42.13437c-6.24089,5.544 -21.59141,-1.54658 -34.28639,-15.83729c-12.69497,-14.2907 -17.92705,-30.36992 -11.68617,-35.91393z" fill="#170000" stroke="none" stroke-linecap="butt"/><path d="M205.57159,37.73567c3.07114,-2.72825 14.5049,-7.17179 22.83799,-17.22126c14.92366,-17.9975 29.61712,-44.49535 37.59718,-43.91581c7.47174,0.54261 4.45994,14.36217 10.76175,24.39902c7.89127,12.56841 24.59491,22.2008 28.55098,26.65417c2.45552,2.76415 24.77666,4.91536 23.88649,8.64209c-1.77109,7.41494 -21.0987,13.75379 -35.43309,22.91302c-14.76503,9.43441 -24.63829,21.68581 -32.84146,28.97302c-20.16979,17.9176 -31.55611,3.72807 -43.92971,-10.20084c-12.37359,-13.92893 -31.59996,-22.32587 -11.43016,-40.24346z" fill="none" stroke="#000000" stroke-linecap="butt"/><path d="M262.49863,108.61785c-5.2462,4.66039 -8.32155,16.61804 -20.45684,8.43943c-7.23337,-4.87497 -22.6772,-26.46033 -29.94597,-34.64277c-8.29316,-9.33557 -24.78731,-26.31366 -28.74463,-34.92184c-5.33025,-11.59463 3.8585,-13.94897 8.66399,-18.21788c4.35811,-3.87149 12.50709,-9.73536 22.11625,-4.48839c8.85296,4.83407 18.95343,20.18546 28.28656,30.69174c8.49059,9.55783 28.45886,26.49495 32.39142,35.25514c5.08228,11.3213 -7.59023,13.69109 -12.31077,17.88455z" data-paper-data="{&quot;index&quot;:null}" fill="#410000" stroke="#000000" stroke-linecap="butt"/><path d="M217.11762,28.91303c6.30277,3.2673 37.11811,36.13127 49.20268,52.41721c9.82174,13.23643 7.14249,14.08253 9.9438,17.23597c1.2376,1.39316 -3.45696,13.68168 -8.23055,8.20229c-6.34419,-7.28219 -0.12074,-12.81401 -9.15316,-26.02574c-9.89797,-14.47777 -39.46288,-41.41665 -46.99179,-44.78715c-4.78294,-2.14119 -9.36647,-1.74778 -13.04469,-0.32312c-4.76668,1.84627 -8.01299,5.42444 -8.20237,7.46254c-1.00473,10.81224 64.20963,72.44201 61.02135,75.2743c-6.15045,5.46366 -33.95493,-25.68912 -49.14068,-42.78369c-15.18574,-17.09458 -22.51032,-35.38163 -16.35992,-40.84529c3.61992,-3.2157 14.61136,-14.29986 30.9553,-5.82733z" fill="#170000" stroke="none" stroke-linecap="butt"/><path d="M262.46584,109.17268c-5.2462,4.66039 -8.32153,16.61803 -20.45684,8.43943c-7.23339,-4.87494 -22.6772,-26.46033 -29.946,-34.64278c-8.29316,-9.33557 -24.78729,-26.31365 -28.74463,-34.92184c-5.33025,-11.59463 3.8585,-13.94897 8.66399,-18.21788c4.35809,-3.87146 12.5071,-9.73534 22.11625,-4.48839c8.85296,4.83405 18.95343,20.18546 28.28656,30.69174c8.49059,9.55783 28.45886,26.49495 32.39142,35.25517c5.08228,11.3213 -7.59023,13.69109 -12.31077,17.88455z" data-paper-data="{&quot;index&quot;:null}" fill="none" stroke="#000000" stroke-linecap="butt"/><path d="M98.83098,158.93714l4.27378,-10.55065" fill="none" stroke="#000000" stroke-linecap="round"/><path d="M131.33004,174.40454l5.34223,-13.18832" fill="none" stroke="#000000" stroke-linecap="round"/><path d="M175.5821,160.85763l-9.69532,26.77728" fill="none" stroke="#000000" stroke-linecap="round"/><path d="M128.55772,75.27462l11.02131,-8.9688l-16.33085,-19.37677l11.56903,-2.03032l2.4614,-7.73456" fill="none" stroke="#000000" stroke-linecap="round"/><path d="M145.16121,148.17954l-3.28942,9.00016" fill="none" stroke="#000000" stroke-linecap="round"/></g><g stroke-linecap="butt"><path d="M-89.07208,602.91952c0,-24.10606 36.22085,-43.64791 80.90154,-43.64791c44.68069,0 80.90152,19.54181 80.90152,43.64791c0,12.02413 -0.67143,26.2488 -15.2499,34.14298c-14.64854,7.93213 -43.25771,9.50493 -65.65164,9.50493c-23.99475,0 -62.23045,-0.07562 -77.04602,-9.02758c-12.77253,-7.71751 -3.85552,-23.45987 -3.85552,-34.62033z" fill="#840000" stroke="#000000"/><path d="M-90.70109,626.03367c0,-4.19116 16.0552,5.69078 47.24926,7.96029c33.45357,2.43389 82.81614,-2.8023 102.25122,-10.16823c8.71071,-3.30137 6.30252,-18.39401 -3.34327,-30.92184c-10.51983,-13.66305 -28.48965,-24.69676 -20.77374,-24.69676c45.29485,0 38.64368,44.929 38.64368,57.82651c0,12.89751 -36.71873,23.35302 -82.01357,23.35302c-45.29485,0 -82.0136,-10.45551 -82.0136,-23.35302z" fill="#430000" stroke="none"/><path d="M-132.70859,613.19756c0,-24.10608 16.26437,-43.64791 36.32743,-43.64791c20.06309,0 36.32743,19.54181 36.32743,43.64791c0,12.02413 -0.3015,26.2488 -6.84768,34.14298c-6.57768,7.93213 -19.42415,9.50493 -29.47975,9.50493c-10.77442,0 -27.9435,-0.07562 -34.59618,-9.02758c-5.7353,-7.71751 -1.73128,-23.4599 -1.73128,-34.62033z" fill="#840000" stroke="#000000"/><path d="M-6.4634,560.42279c44.68069,0 80.90154,19.54183 80.90154,43.64791c0,12.02413 -0.67146,26.2488 -15.2499,34.14298c-14.64854,7.93213 -43.25771,9.50493 -65.65164,9.50493c-23.99475,0 -62.23043,-0.0756 -77.04602,-9.02755c-12.77253,-7.71751 -3.85552,-23.45992 -3.85552,-34.62036c0,-24.10608 36.22085,-43.64791 80.90154,-43.64791z" fill="none" stroke="#000000"/><path d="M-133.44004,636.31164c0,-4.19116 7.20932,5.69075 21.21648,7.96027c15.02175,2.43389 37.18714,-2.80227 45.91414,-10.16818c3.91139,-3.30137 2.83004,-18.39401 -1.50124,-30.92184c-4.72374,-13.66305 -12.79278,-24.69676 -9.32809,-24.69676c20.33887,0 17.35227,44.92903 17.35227,57.82654c0,12.89754 -16.48791,23.35302 -36.82677,23.35302c-20.33887,0 -36.82677,-10.45551 -36.82677,-23.35302z" fill="#430000" stroke="none"/><path d="M-131.94204,614.34867c0,-24.10608 16.26434,-43.64791 36.32743,-43.64791c20.06309,0 36.32743,19.54186 36.32743,43.64791c0,12.02413 -0.3015,26.2488 -6.84768,34.14298c-6.57768,7.93215 -19.42412,9.50491 -29.47972,9.50491c-10.77442,0 -27.9435,-0.0756 -34.59618,-9.02755c-5.7353,-7.71751 -1.73125,-23.4599 -1.73125,-34.62033z" fill="none" stroke="#000000"/><path d="M-30.15682,611.72551c0,-24.10608 16.26437,-43.64791 36.32743,-43.64791c20.06309,0 36.32743,19.54181 36.32743,43.64791c0,12.02413 -0.3015,26.2488 -6.84768,34.14298c-6.57768,7.93213 -19.42415,9.50493 -29.47975,9.50493c-10.77442,0 -27.9435,-0.07562 -34.59618,-9.02758c-5.7353,-7.71751 -1.73128,-23.4599 -1.73128,-34.62033z" fill="#840000" stroke="#000000"/><path d="M-30.88826,634.83961c0,-4.19116 7.20932,5.69075 21.21648,7.96027c15.02175,2.43389 37.18714,-2.80227 45.91414,-10.16818c3.91139,-3.30137 2.83004,-18.39401 -1.50124,-30.92184c-4.72374,-13.66305 -12.79278,-24.69676 -9.32809,-24.69676c20.33887,0 17.35227,44.92903 17.35227,57.82654c0,12.89754 -16.48791,23.35302 -36.82677,23.35302c-20.33887,0 -36.82677,-10.45551 -36.82677,-23.35302z" fill="#430000" stroke="none"/><path d="M-29.39026,612.87661c0,-24.10608 16.26434,-43.64791 36.32743,-43.64791c20.06309,0 36.32743,19.54186 36.32743,43.64791c0,12.02413 -0.3015,26.2488 -6.84768,34.14298c-6.57768,7.93215 -19.42412,9.50491 -29.47972,9.50491c-10.77442,0 -27.9435,-0.0756 -34.59618,-9.02755c-5.7353,-7.71751 -1.73125,-23.4599 -1.73125,-34.62033z" fill="none" stroke="#000000"/><path d="M-87.07551,611.23483c0,-24.10608 16.26437,-43.64791 36.32743,-43.64791c20.06309,0 36.32743,19.54181 36.32743,43.64791c0,12.02413 -0.3015,26.2488 -6.84768,34.14298c-6.57768,7.93213 -19.42415,9.50493 -29.47975,9.50493c-10.77442,0 -27.9435,-0.07562 -34.59618,-9.02758c-5.7353,-7.71751 -1.73128,-23.4599 -1.73128,-34.62033z" fill="#840000" stroke="#000000"/><path d="M-87.80696,634.34893c0,-4.19116 7.20932,5.69075 21.21648,7.96027c15.02175,2.43389 37.18714,-2.80227 45.91414,-10.16818c3.91139,-3.30137 2.83004,-18.39401 -1.50124,-30.92184c-4.72374,-13.66305 -12.79278,-24.69676 -9.32809,-24.69676c20.33887,0 17.35227,44.92903 17.35227,57.82654c0,12.89754 -16.48791,23.35302 -36.82677,23.35302c-20.33887,0 -36.82677,-10.45551 -36.82677,-23.35302z" fill="#430000" stroke="none"/><path d="M-86.30896,612.38596c0,-24.10608 16.26434,-43.64791 36.32743,-43.64791c20.06309,0 36.32743,19.54186 36.32743,43.64791c0,12.02413 -0.3015,26.2488 -6.84768,34.14298c-6.57768,7.93215 -19.42412,9.50491 -29.47972,9.50491c-10.77442,0 -27.9435,-0.0756 -34.59618,-9.02755c-5.7353,-7.71751 -1.73125,-23.4599 -1.73125,-34.62033z" fill="none" stroke="#000000"/></g><g data-paper-data="{&quot;index&quot;:null}" stroke-linecap="butt"><path d="M262.26771,607.27722c0,11.16046 8.91702,26.90283 -3.85552,34.62033c-14.81557,8.95195 -53.05127,9.02758 -77.04602,9.02758c-22.39393,0 -51.00311,-1.5728 -65.65164,-9.50493c-14.57846,-7.89418 -15.2499,-22.11885 -15.2499,-34.14298c0,-24.10611 36.22083,-43.64791 80.90152,-43.64791c44.68069,0 80.90154,19.54186 80.90154,43.64791z" fill="#840000" stroke="#000000"/><path d="M263.89671,630.39134c0,12.89751 -36.71875,23.35302 -82.0136,23.35302c-45.29485,0 -82.01357,-10.45551 -82.01357,-23.35302c0,-12.89751 -6.65117,-57.82651 38.64368,-57.82651c7.71591,0 -10.25391,11.03371 -20.77374,24.69676c-9.6458,12.52783 -12.05399,27.62048 -3.34327,30.92184c19.43508,7.36593 68.79765,12.60211 102.25122,10.16823c31.19406,-2.26951 47.24926,-12.15145 47.24926,-7.96029z" fill="#430000" stroke="none"/><path d="M305.90421,617.55526c0,11.16044 4.00403,26.90283 -1.73128,34.62033c-6.65268,8.95195 -23.82176,9.02758 -34.59618,9.02758c-10.0556,0 -22.90206,-1.5728 -29.47975,-9.50493c-6.54618,-7.89418 -6.84768,-22.11885 -6.84768,-34.14298c0,-24.10611 16.26434,-43.64791 36.32743,-43.64791c20.06306,0 36.32743,19.54183 36.32743,43.64791z" fill="#840000" stroke="#000000"/><path d="M260.56053,608.4284c0,11.16044 8.91702,26.90285 -3.85552,34.62036c-14.8156,8.95195 -53.05127,9.02755 -77.04602,9.02755c-22.39393,0 -51.00311,-1.5728 -65.65164,-9.50493c-14.57844,-7.89418 -15.2499,-22.11885 -15.2499,-34.14298c0,-24.10608 36.22085,-43.64791 80.90154,-43.64791c44.68069,0 80.90154,19.54183 80.90154,43.64791z" fill="none" stroke="#000000"/><path d="M306.63561,640.66936c0,12.89751 -16.48791,23.35302 -36.82677,23.35302c-20.33887,0 -36.82677,-10.45548 -36.82677,-23.35302c0,-12.89751 -2.98659,-57.82654 17.35227,-57.82654c3.46469,0 -4.60434,11.03371 -9.32809,24.69676c-4.33128,12.52783 -5.41263,27.62048 -1.50124,30.92184c8.727,7.3659 30.89239,12.60206 45.91414,10.16818c14.00716,-2.26951 21.21648,-12.15143 21.21648,-7.96027z" fill="#430000" stroke="none"/><path d="M305.13761,618.70637c0,11.16044 4.00405,26.90283 -1.73125,34.62033c-6.65268,8.95195 -23.82176,9.02755 -34.59618,9.02755c-10.0556,0 -22.90204,-1.57276 -29.47972,-9.50491c-6.54618,-7.89418 -6.84768,-22.11885 -6.84768,-34.14298c0,-24.10606 16.26434,-43.64791 36.32743,-43.64791c20.06309,0 36.32743,19.54183 36.32743,43.64791z" fill="none" stroke="#000000"/><path d="M203.35244,616.08321c0,11.16044 4.00403,26.90283 -1.73128,34.62033c-6.65268,8.95195 -23.82176,9.02758 -34.59618,9.02758c-10.0556,0 -22.90206,-1.5728 -29.47975,-9.50493c-6.54618,-7.89418 -6.84768,-22.11885 -6.84768,-34.14298c0,-24.10611 16.26434,-43.64791 36.32743,-43.64791c20.06306,0 36.32743,19.54183 36.32743,43.64791z" fill="#840000" stroke="#000000"/><path d="M204.08384,639.19733c0,12.89751 -16.48791,23.35302 -36.82677,23.35302c-20.33887,0 -36.82677,-10.45548 -36.82677,-23.35302c0,-12.89751 -2.98659,-57.82654 17.35227,-57.82654c3.46469,0 -4.60434,11.03371 -9.32809,24.69676c-4.33128,12.52783 -5.41263,27.62048 -1.50124,30.92184c8.727,7.3659 30.89239,12.60206 45.91414,10.16818c14.00716,-2.26951 21.21648,-12.15143 21.21648,-7.96027z" fill="#430000" stroke="none"/><path d="M202.58583,617.23431c0,11.16044 4.00405,26.90283 -1.73125,34.62033c-6.65268,8.95195 -23.82176,9.02755 -34.59618,9.02755c-10.0556,0 -22.90204,-1.57276 -29.47972,-9.50491c-6.54618,-7.89418 -6.84768,-22.11885 -6.84768,-34.14298c0,-24.10606 16.26434,-43.64791 36.32743,-43.64791c20.06309,0 36.32743,19.54183 36.32743,43.64791z" fill="none" stroke="#000000"/><path d="M260.27113,615.59253c0,11.16044 4.00403,26.90283 -1.73128,34.62033c-6.65268,8.95195 -23.82176,9.02758 -34.59618,9.02758c-10.0556,0 -22.90206,-1.5728 -29.47975,-9.50493c-6.54618,-7.89418 -6.84768,-22.11885 -6.84768,-34.14298c0,-24.10611 16.26434,-43.64791 36.32743,-43.64791c20.06306,0 36.32743,19.54183 36.32743,43.64791z" fill="#840000" stroke="#000000"/><path d="M261.00253,638.70665c0,12.89751 -16.48791,23.35302 -36.82677,23.35302c-20.33887,0 -36.82677,-10.45548 -36.82677,-23.35302c0,-12.89751 -2.98659,-57.82654 17.35227,-57.82654c3.46469,0 -4.60434,11.03371 -9.32809,24.69676c-4.33128,12.52783 -5.41263,27.62048 -1.50124,30.92184c8.727,7.3659 30.89239,12.60206 45.91414,10.16818c14.00716,-2.26951 21.21648,-12.15143 21.21648,-7.96027z" fill="#430000" stroke="none"/><path d="M259.50453,616.74366c0,11.16044 4.00405,26.90283 -1.73125,34.62033c-6.65268,8.95195 -23.82176,9.02755 -34.59618,9.02755c-10.0556,0 -22.90204,-1.57276 -29.47972,-9.50491c-6.54618,-7.89418 -6.84768,-22.11885 -6.84768,-34.14298c0,-24.10606 16.26434,-43.64791 36.32743,-43.64791c20.06309,0 36.32743,19.54183 36.32743,43.64791z" fill="none" stroke="#000000"/></g></g></g></svg>