<svg version="1.1" xmlns="http://www.w3.org/2000/svg" xmlns:xlink="http://www.w3.org/1999/xlink" width="192.9483" height="345.91169" viewBox="0,0,192.9483,345.91169"><g transform="translate(-71.10603,17.06953)"><g data-paper-data="{&quot;isPaintingLayer&quot;:true}" fill-rule="nonzero" stroke-width="3.5" stroke-linejoin="miter" stroke-miterlimit="10" stroke-dasharray="" stroke-dashoffset="0" style="mix-blend-mode: normal"><g fill="none" stroke="#000000" stroke-linecap="round"><path d="M245.1749,200.23131l-3.6534,-205.19952"/><g><g><path d="M72.85603,-11.6661l38.36073,172.92777"/><path d="M77.11833,139.95013l21.92043,60.89007"/></g><path d="M157.49321,-15.31953v56.62775"/></g></g><g stroke-linecap="butt"><path d="M176.5107,227.62945c-5.44848,-0.46744 -9.23374,-8.20781 -8.45467,-17.28858c0.77907,-9.08077 5.82749,-16.06327 11.27596,-15.59582c5.44848,0.46744 9.23376,8.20781 8.45469,17.28858c-0.77907,9.08077 -5.82749,16.06327 -11.27596,15.59582z" fill="none" stroke="#000000"/><path d="M174.88426,248.45945c-5.32848,-1.22947 -7.98692,-9.42547 -5.93779,-18.30626c2.04913,-8.88079 8.02984,-15.08342 13.35832,-13.85395c5.32848,1.22947 7.98692,9.42547 5.93779,18.30626c-2.04913,8.88079 -8.02984,15.08344 -13.35832,13.85397z" fill="none" stroke="#000000"/><path d="M171.46453,267.29229c-5.41431,-0.76775 -8.76617,-8.70545 -7.48659,-17.72931c1.27958,-9.02386 6.70607,-15.71676 12.1204,-14.949c5.41431,0.76775 8.76619,8.70543 7.48661,17.72929c-1.27958,9.02386 -6.70609,15.71676 -12.1204,14.94902z" fill="none" stroke="#000000"/><path d="M167.67556,290.06969c-5.25241,-1.52198 -7.45399,-9.85233 -4.91734,-18.60635c2.53665,-8.75404 8.85092,-14.61675 14.10333,-13.09477c5.25241,1.52198 7.45397,9.85233 4.91734,18.60635c-2.53665,8.75404 -8.85092,14.61675 -14.10333,13.09477z" fill="none" stroke="#000000"/><g><path d="M204.84152,308.34853c0.8739,12.34915 -24.77458,17.60775 -36.74493,18.45485c-11.97035,0.8471 -22.38267,-8.47717 -23.25657,-20.8263c-0.8739,-12.34915 8.12153,-23.04684 20.09188,-23.89392c11.97035,-0.8471 39.03572,13.91623 39.90962,26.26537z" fill="#00ffe6" stroke="#000000"/><path d="M205.30469,310.9305c0.45036,6.36398 -26.52409,13.182 -37.88835,13.9862c-11.36425,0.8042 -20.94187,-3.70287 -21.39223,-10.06685c-0.28198,-3.98457 20.69925,6.77257 30.24336,1.9968c3.21908,-1.6108 23.33529,-0.42794 20.11324,-9.42885c-2.48254,-6.93507 -28.5712,-24.71577 -26.72212,-24.84664c11.36425,-0.8042 35.19574,21.99535 35.6461,28.35933z" fill="#00d6c0" stroke="none"/><path d="M204.37483,309.47979c0.8739,12.34915 -24.55847,16.76526 -36.52882,17.61237c-11.97035,0.8471 -22.38265,-8.47717 -23.25657,-20.8263c-0.8739,-12.34915 8.12153,-23.04682 20.09186,-23.89392c11.97035,-0.8471 38.81961,14.75872 39.69351,27.10785z" fill="none" stroke="#000000"/></g></g><g stroke-linecap="butt"><path d="M138.50591,208.86587c1.2255,-9.03137 6.61177,-15.75667 12.0306,-15.02137c5.41883,0.73531 8.81818,8.65275 7.59268,17.68413c-1.2255,9.03137 -6.61177,15.75667 -12.0306,15.02137c-5.41883,-0.73531 -8.81818,-8.65275 -7.59268,-17.68413z" fill="none" stroke="#000000"/><path d="M143.13072,247.23156c-5.46839,0.03453 -9.948,-7.32582 -10.00554,-16.43977c-0.05754,-9.11396 4.3288,-16.53028 9.79717,-16.5648c5.46837,-0.03453 9.948,7.32582 10.00554,16.43977c0.05754,9.11396 -4.32882,16.53028 -9.79719,16.5648z" fill="none" stroke="#000000"/><path d="M140.45693,266.24616c-5.45894,0.32273 -10.32035,-6.79125 -10.85822,-15.88949c-0.53788,-9.09824 3.45144,-16.73547 8.91038,-17.0582c5.45894,-0.32273 10.32035,6.79123 10.85822,15.88947c0.53788,9.09824 -3.45144,16.73547 -8.91038,17.0582z" fill="none" stroke="#000000"/><path d="M129.38581,275.05352c-1.8128,-8.93203 1.06215,-17.05462 6.42138,-18.14228c5.35923,-1.08767 11.17329,5.27144 12.98607,14.20349c1.8128,8.93203 -1.06215,17.05462 -6.42138,18.14228c-5.35923,1.08767 -11.17329,-5.27144 -12.98607,-14.20349z" fill="none" stroke="#000000"/><g><path d="M139.61447,275.78053c11.74617,-2.4564 23.32267,5.3758 25.85679,17.4937c2.53412,12.11789 -4.93371,23.93269 -16.67988,26.38909c-11.74617,2.4564 -37.85542,4.40717 -40.38954,-7.71072c-2.53414,-12.11789 19.46646,-33.71567 31.21264,-36.17207z" fill="#00ffe6" stroke="#000000"/><path d="M108.66192,314.56283c-1.30593,-6.2448 15.38774,-34.68916 26.53918,-37.02119c1.81445,-0.37944 -18.42201,23.85397 -18.91484,31.20347c-0.63965,9.53881 18.38757,2.9036 21.92433,3.57339c10.48593,1.9858 27.72878,-14.09563 28.54644,-10.18569c1.30593,6.2448 -6.67542,13.1977 -17.82687,15.52972c-11.15144,2.33202 -38.96233,3.1451 -40.26826,-3.09969z" fill="#00d6c0" stroke="none"/><path d="M109.15993,312.91324c-2.53414,-12.11789 19.02834,-34.46703 30.77452,-36.92342c11.74617,-2.4564 23.32267,5.3758 25.85679,17.4937c2.53412,12.11789 -4.93371,23.93269 -16.67988,26.38909c-11.74619,2.4564 -37.41732,5.15853 -39.95144,-6.95936z" fill="none" stroke="#000000"/></g></g><g><path d="M162.95564,161.6796c0,-15.26617 6.03392,-27.64186 13.47714,-27.64186c4.49789,0 16.45742,2.59397 18.90551,9.53934c1.60308,4.548 -5.42838,12.06161 -5.42838,18.10254c0,5.60366 5.78808,12.19307 4.39082,16.54873c-2.4093,7.51055 -13.15687,11.09315 -17.86794,11.09315c-7.44322,0 -13.47714,-12.3757 -13.47714,-27.64188z" fill="#ffffff" stroke="#000000" stroke-linecap="butt"/><path d="M165.01383,132.38281c7.47985,0 12.06491,19.34368 18.44188,31.02249c4.17769,7.65099 11.95041,8.08743 11.95041,11.33418c0,8.20274 -7.56061,19.25304 -19.94065,19.25304c-12.38004,0 -22.41604,-6.64962 -22.41604,-14.85234c0,-8.20272 -0.41562,-46.75737 11.9644,-46.75737z" fill="#cecece" stroke="none" stroke-linecap="butt"/><path d="M162.95096,162.50006c0,-15.26619 6.0339,-27.64186 13.47712,-27.64186c4.49789,0 16.45742,2.59395 18.90551,9.53932c1.60308,4.548 -5.42838,12.06161 -5.42838,18.10254c0,5.60366 5.78808,12.19307 4.39082,16.54873c-2.4093,7.51055 -13.15687,11.09315 -17.86794,11.09315c-7.44322,0 -13.47712,-12.3757 -13.47712,-27.64188z" fill="none" stroke="#000000" stroke-linecap="butt"/><path d="M132.42589,154.11594c0,-13.24814 -6.04095,-31.60688 -1.09724,-40.4918c5.25947,-9.45237 21.75514,-9.016 29.97679,-9.016c9.27277,0 21.65047,-4.61009 26.93448,7.03531c1.44165,3.17728 0.84596,14.52609 -2.39366,21.04939c-2.24247,4.51538 -6.75453,3.71022 -8.60973,8.65701c-2.53805,6.76763 -1.62884,14.43489 -1.62884,18.542c0,10.90919 19.94521,22.91957 16.45805,31.10152c-5.25291,12.325 -21.17429,12.63038 -30.76032,12.63038c-6.15964,0 -19.57007,0.54478 -24.25812,-5.08834c-0.33934,-0.40776 -0.39829,-0.55268 -0.72672,-0.98445c-6.88304,-9.04889 -3.89471,-27.41634 -3.89471,-43.43503z" fill="#00ffe6" stroke="#000000" stroke-linecap="butt"/><path d="M132.14613,187.25398c0,-5.33418 0.63867,-17.72082 0.55983,-37.26619c-0.04022,-9.96976 -5.26458,-21.66719 -4.21361,-30.44254c0.70636,-5.89782 6.81098,-11.07891 9.60244,-11.26344c0.61868,-0.04091 -1.91321,50.5252 4.74515,67.80264c4.40565,11.43194 18.86532,15.98279 19.28591,15.98279c7.17553,0 12.96011,-4.20208 18.35856,-16.44437c3.58467,-8.12911 10.08958,8.4263 12.01356,8.22728c1.8644,-0.19285 -0.39239,0.45987 -0.39239,3.40381c0,10.55718 -13.42238,19.11551 -29.97972,19.11551c-16.55734,0 -29.97972,-8.55831 -29.97972,-19.11551z" fill="#00d6c0" stroke="none" stroke-linecap="butt"/><path d="M132.97128,154.66133c0,-13.24814 -6.04095,-31.60688 -1.09724,-40.4918c5.25947,-9.45237 21.75514,-9.016 29.97679,-9.016c9.27277,0 21.65047,-4.61009 26.93448,7.03531c1.65631,3.65036 1.44623,18.18439 -2.9628,25.3843c-2.04797,3.34431 -8.2374,-1.58046 -9.72382,2.16155c-2.66455,6.7079 -0.49571,15.72852 -0.49571,19.87744c0,10.90919 20.4953,23.74468 17.00815,31.92663c-5.25289,12.325 -21.17427,12.63038 -30.7603,12.63038c-6.15964,0 -19.57007,0.54478 -24.25812,-5.08834c-0.33934,-0.40776 -0.39831,-0.55266 -0.72674,-0.98443c-6.88304,-9.04887 -3.89471,-27.41634 -3.89471,-43.43503z" fill="none" stroke="#000000" stroke-linecap="butt"/><path d="M135.99673,114.78003l4.67574,3.57555l3.02547,7.15113l-1.9253,6.05096l-7.70123,16.77765" fill="none" stroke="#000000" stroke-linecap="round"/><path d="M135.99673,138.98385l7.15113,3.30051" fill="none" stroke="#000000" stroke-linecap="round"/><path d="M137.92203,134.03308l7.15113,-0.27504" fill="none" stroke="#000000" stroke-linecap="round"/><path d="M136.27179,119.18071l3.8506,-4.12564" fill="none" stroke="#000000" stroke-linecap="round"/><path d="M146.17334,120.2809l-6.60104,3.57555" fill="none" stroke="#000000" stroke-linecap="round"/><path d="M137.64699,129.35734l7.42617,-1.37521" fill="none" stroke="#000000" stroke-linecap="round"/><path d="M183.57925,136.23342l-9.62653,-0.82513l-2.47538,-1.9253l0.27504,-3.30053l1.65026,-4.4007l1.10017,-2.75043l4.12564,-3.30053l-4.12564,-3.30051l-3.57557,1.9253l-1.9253,4.4007l-1.65026,2.75043h-4.95077l-4.4007,-3.57557l1.9253,-5.22581l3.57555,-1.9253l0.82513,-4.12564" fill="none" stroke="#000000" stroke-linecap="round"/><path d="M162.12585,118.3556l-5.77591,0.5501" fill="none" stroke="#000000" stroke-linecap="round"/><path d="M159.10038,128.25717l4.12564,-6.60104" fill="none" stroke="#000000" stroke-linecap="round"/><path d="M166.25151,122.48125l1.9253,5.22583" fill="none" stroke="#000000" stroke-linecap="round"/><path d="M172.30246,120.83098l-4.40068,-4.12564" fill="none" stroke="#000000" stroke-linecap="round"/><path d="M180.27872,115.8802l-4.12564,3.57557" fill="none" stroke="#000000" stroke-linecap="round"/><path d="M172.85255,123.85647h4.67574" fill="none" stroke="#000000" stroke-linecap="round"/><path d="M169.82706,130.18247l6.05096,-2.75043" fill="none" stroke="#000000" stroke-linecap="round"/><path d="M174.77785,132.10778l-2.20036,2.75043" fill="none" stroke="#000000" stroke-linecap="round"/><path d="M171.75238,158.78699l-10.45164,2.4754v6.05094l-6.05096,2.47538l-1.65026,4.67574h-4.67574l-5.50087,2.47538l-5.22581,0.27506l-3.02547,3.02547" fill="none" stroke="#000000" stroke-linecap="round"/><path d="M140.94752,173.08924l0.5501,7.70123" fill="none" stroke="#000000" stroke-linecap="round"/><path d="M148.09864,179.41522l-2.47538,-7.97625" fill="none" stroke="#000000" stroke-linecap="round"/><path d="M156.07491,178.59011l-4.4007,-9.90157" fill="none" stroke="#000000" stroke-linecap="round"/><path d="M162.95098,170.06375l-5.77591,-6.87608" fill="none" stroke="#000000" stroke-linecap="round"/><path d="M163.22604,156.03653l2.47538,7.15113" fill="none" stroke="#000000" stroke-linecap="round"/><path d="M170.37715,156.31159l3.8506,7.70123" fill="none" stroke="#000000" stroke-linecap="round"/></g><path d="M177.32795,23.19234l7.15113,4.95077" fill="none" stroke="#000000" stroke-linecap="round"/><g><g data-paper-data="{&quot;index&quot;:null}" stroke-linecap="butt"><path d="M213.74876,71.73952c0.92244,5.54417 4.88686,9.78225 -4.25354,11.30302c-9.14037,1.52077 -27.92431,-0.25164 -28.84674,-5.7958c-0.92244,-5.54417 15.73346,-14.88599 24.87385,-16.40678c9.14037,-1.52077 7.304,5.35538 8.22641,10.89956z" fill="#808080" stroke="#000000"/><path d="M215.26529,79.15013c0.43629,2.62224 -3.3743,2.65259 -9.29308,3.63736c-5.91877,0.98477 -11.07059,-0.34266 -11.50689,-2.96492c-0.22304,-1.34055 9.254,-0.45753 12.73361,-4.84438c3.32683,-4.19423 0.58897,-13.68345 3.48194,-14.16479c5.91877,-0.98477 4.14812,15.71446 4.58441,18.33671z" fill="#5f5f5f" stroke="none"/><path d="M213.39097,71.23664c0.92244,5.54417 4.88686,9.78227 -4.25353,11.30303c-9.14037,1.52077 -27.92431,-0.25164 -28.84676,-5.79582c-0.92244,-5.54417 15.73346,-14.88599 24.87385,-16.40678c9.14037,-1.52077 7.304,5.35538 8.22641,10.89956z" fill="none" stroke="#000000"/></g><g stroke-linecap="butt"><path d="M107.80878,100.514c-0.92244,-5.54419 -4.88638,-11.45528 4.25401,-12.97606c9.14037,-1.52077 27.92383,1.92467 28.84626,7.46884c0.92244,5.54419 -16.27563,13.30327 -25.41602,14.82404c-9.1404,1.52077 -6.76183,-3.77267 -7.68427,-9.31683z" fill="#808080" stroke="#000000"/><path d="M108.77346,108.01643c-0.43629,-2.62224 -7.5187,-17.84852 -1.59993,-18.83327c2.89295,-0.48132 3.37518,9.38324 7.88085,12.27428c4.71259,3.0238 13.39313,-0.88028 13.61618,0.4603c0.43629,2.62224 -4.00816,5.54632 -9.92693,6.53107c-5.91877,0.98477 -9.53391,2.1899 -9.97021,-0.43234z" fill="#5f5f5f" stroke="none"/><path d="M107.98438,99.92242c-0.92244,-5.54419 -4.88638,-11.45528 4.25401,-12.97606c9.1404,-1.52077 27.92385,1.92466 28.84628,7.46884c0.92244,5.54419 -16.27563,13.30327 -25.41602,14.82404c-9.14037,1.52077 -6.76182,-3.77266 -7.68426,-9.31683z" fill="none" stroke="#000000"/></g><path d="M192.44628,39.33278c13.55535,20.54892 7.66236,48.34338 -13.16238,62.08069c-20.82473,13.7373 -48.69529,8.2154 -62.25066,-12.33352c-13.55535,-20.54892 -7.66236,-48.34338 13.16238,-62.08069c20.82473,-13.7373 48.69531,-8.21539 62.25066,12.33352z" fill="#00ffe6" stroke="#000000" stroke-linecap="butt"/><path d="M146.01375,47.37028c16.53441,-4.31819 31.57182,-1.56367 33.58699,6.15239c2.01517,7.71607 -9.75501,17.47177 -26.28945,21.78996c-16.53444,4.31821 -31.57185,1.56365 -33.58701,-6.15241c-2.01517,-7.71607 9.75504,-17.47176 26.28947,-21.78995z" fill="#00d6c0" stroke="none" stroke-linecap="butt"/><path d="M162.74608,79.86587c15.06445,-11.9111 20.13068,-37.93014 29.27872,-39.4522c4.92028,-0.81864 4.97165,15.21897 6.06488,18.29339c2.89,8.12739 -1.68852,11.65532 -0.46874,18.98655c1.68118,10.1045 -19.75256,25.72784 -37.67986,28.71059c-17.92731,2.98275 -33.82314,-2.79056 -35.50432,-12.89505c-0.82331,-4.94831 23.85214,-2.2123 38.30935,-13.64328z" fill="#00d6c0" stroke="none" stroke-linecap="butt"/><path d="M192.44628,39.33278c13.55535,20.54892 7.66236,48.34338 -13.16238,62.08069c-20.82473,13.7373 -48.69529,8.2154 -62.25066,-12.33352c-13.55535,-20.54892 -7.66236,-48.34338 13.16238,-62.08069c20.82473,-13.7373 48.69531,-8.21539 62.25066,12.33352z" fill="none" stroke="#000000" stroke-linecap="butt"/><path d="M197.8244,53.39882l-10.53025,20.55429l-10.42594,-0.69141l-0.39684,12.19651l-19.96612,-3.34982l-4.52713,9.24458l-22.42506,-3.54723l-2.55917,6.49102" fill="none" stroke="#000000" stroke-linecap="round"/><path d="M130.4253,52.13445c8.0915,-1.34626 15.78272,4.36478 17.17885,12.75596c1.39613,8.39118 -4.03155,16.28494 -12.12304,17.63119c-8.0915,1.34626 -15.78272,-4.36478 -17.17885,-12.75596c-1.39613,-8.39118 4.03155,-16.28494 12.12304,-17.63119z" fill="#ff0000" stroke="#000000" stroke-linecap="butt"/><path d="M165.52232,40.16561c7.34226,-1.22161 14.42615,4.59049 15.82227,12.98166c1.39613,8.39118 -3.42418,16.18388 -10.76647,17.4055c-7.34226,1.22161 -14.42615,-4.59049 -15.82227,-12.98166c-1.39613,-8.39118 3.42418,-16.18388 10.76647,-17.4055z" fill="#ff0000" stroke="#000000" stroke-linecap="butt"/><path d="M118.40186,36.84777l12.56605,15.19638" fill="none" stroke="#000000" stroke-linecap="round"/><path d="M126.76607,40.19618l-6.46779,6.37378" fill="none" stroke="#000000" stroke-linecap="round"/><path d="M130.60822,44.85459l-8.18549,4.42897" fill="none" stroke="#000000" stroke-linecap="round"/><path d="M175.64908,27.32301l-5.88189,13.24691" fill="none" stroke="#000000" stroke-linecap="round"/><path d="M176.59609,36.36663l-9.9013,-4.20793" fill="none" stroke="#000000" stroke-linecap="round"/><path d="M147.77815,89.39796l-3.66016,-8.59221" fill="none" stroke="#000000" stroke-linecap="round"/><path d="M149.67924,82.38992l-6.60275,3.8868" fill="none" stroke="#000000" stroke-linecap="round"/><path d="M170.02964,72.31222l2.6647,10.98844" fill="none" stroke="#000000" stroke-linecap="round"/><path d="M167.451,76.92362l7.50696,-3.4796" fill="none" stroke="#000000" stroke-linecap="round"/></g><g stroke-linecap="butt"><path d="M123.81212,146.87076c-5.08856,-2.00274 -6.50774,-10.50141 -3.16985,-18.98232c3.3379,-8.48091 10.16887,-13.73252 15.25741,-11.7298c5.08854,2.00273 6.50774,10.50141 3.16985,18.98232c-3.3379,8.48091 -10.16889,13.73252 -15.25743,11.7298z" fill="none" stroke="#000000"/><path d="M115.87322,168.55348c-5.31974,-1.26678 -7.9207,-9.48118 -5.8094,-18.34741c2.1113,-8.86621 8.13533,-15.02679 13.45507,-13.76002c5.31972,1.26677 7.9207,9.4812 5.8094,18.34743c-2.1113,8.86622 -8.13533,15.02679 -13.45507,13.76002z" fill="none" stroke="#000000"/><path d="M101.79261,166.35657c1.45096,-8.99788 7.00377,-15.5864 12.4025,-14.71581c5.39873,0.87057 8.599,8.87055 7.14806,17.86846c-1.45096,8.99788 -7.00375,15.5864 -12.40248,14.71581c-5.39873,-0.87057 -8.59902,-8.87056 -7.14808,-17.86846z" fill="none" stroke="#000000"/><path d="M96.22098,190.41769c0.17039,-9.11255 4.74084,-16.41685 10.20836,-16.31461c5.46753,0.10226 9.76169,7.57233 9.59129,16.68486c-0.17038,9.11253 -4.74084,16.41683 -10.20836,16.31459c-5.46753,-0.10224 -9.76169,-7.57231 -9.5913,-16.68484z" fill="none" stroke="#000000"/><path d="M104.59119,194.78318c11.92175,1.37062 20.43996,12.45204 19.02597,24.75105c-1.41399,12.299 -12.22473,21.15823 -24.14648,19.78761c-11.92175,-1.37062 -20.43996,-12.45204 -19.02597,-24.75105c1.41399,-12.299 12.22473,-21.15823 24.14648,-19.78761z" fill="#00ffe6" stroke="#000000"/><path d="M99.84769,195.06367c1.84156,0.21172 -4.91245,5.85312 -7.69639,12.67278c-3.61324,8.85112 -3.55295,19.53005 -0.40752,21.28032c9.32575,5.18928 30.75804,-4.63855 30.3018,-0.67016c-0.72868,6.33815 -10.49453,10.42139 -21.81266,9.12018c-11.31813,-1.30122 -19.90255,-7.49415 -19.17386,-13.83229c0.72868,-6.33813 7.4705,-29.87204 18.78862,-28.57082z" fill="#00d6c0" stroke="none"/><path d="M104.82893,195.08263c11.92175,1.37062 20.43996,12.45206 19.02597,24.75107c-1.41399,12.299 -12.22473,21.15823 -24.14648,19.78761c-11.92175,-1.37062 -20.43999,-12.45203 -19.02599,-24.75105c1.41399,-12.29902 12.22475,-21.15825 24.1465,-19.78763z" fill="none" stroke="#000000"/></g><g stroke-linecap="butt"><path d="M197.24306,143.22573c-5.19948,1.69405 -11.70328,-3.95767 -14.52671,-12.62346c-2.82341,-8.66577 -0.89725,-17.06408 4.30224,-18.75812c5.19948,-1.69405 11.7033,3.95767 14.52671,12.62346c2.82341,8.66577 0.89725,17.06408 -4.30224,18.75812z" fill="none" stroke="#000000"/><path d="M204.47313,165.37364c-5.30277,1.33601 -11.40663,-4.74547 -13.63333,-13.58342c-2.2267,-8.83795 0.26695,-17.08557 5.56971,-18.42159c5.30277,-1.33601 11.40661,4.74547 13.63331,13.58342c2.2267,8.83795 -0.26693,17.08557 -5.56969,18.42161z" fill="none" stroke="#000000"/><path d="M232.09898,169.97192c-1.98289,5.09633 -10.47598,6.54864 -18.96982,3.24382c-8.49385,-3.30481 -13.77206,-10.11525 -11.78917,-15.21157c1.98289,-5.09633 10.47598,-6.54864 18.96982,-3.24382c8.49385,3.30481 13.77208,10.11525 11.78919,15.21157z" fill="none" stroke="#000000"/><path d="M239.05062,194.80566c-4.48601,2.08352 -11.36113,-2.86147 -15.35602,-11.04494c-3.99488,-8.18346 -3.59675,-16.50648 0.88926,-18.58999c4.48601,-2.08352 11.36113,2.86147 15.35602,11.04494c3.99488,8.18346 3.59675,16.50648 -0.88926,18.58999z" fill="none" stroke="#000000"/><path d="M262.26941,201.53029c0.67405,12.36168 -8.49325,22.91246 -20.47573,23.56583c-11.98248,0.65338 -22.24262,-8.83807 -22.91668,-21.19974c-0.67405,-12.36166 8.49323,-22.91243 20.47571,-23.56581c11.98248,-0.65338 22.24264,8.83807 22.9167,21.19972z" fill="#00ffe6" stroke="#000000"/><path d="M261.11271,210.54086c0.34737,6.37044 -8.59293,12.03752 -19.96869,12.65782c-11.37576,0.6203 -20.87924,-4.04112 -21.22661,-10.41153c-0.21749,-3.98861 20.58699,7.1065 30.20711,2.48571c3.24472,-1.55853 3.94515,-12.21463 0.86909,-21.26647c-2.37004,-6.9743 -8.77368,-13.01049 -6.92273,-13.11141c11.37576,-0.6203 16.69448,23.27548 17.04185,29.64592z" fill="#00d6c0" stroke="none"/><path d="M262.01418,201.81496c0.67405,12.36168 -8.49325,22.91246 -20.47573,23.56583c-11.98248,0.65338 -22.24262,-8.83807 -22.91668,-21.19974c-0.67405,-12.36166 8.49323,-22.91243 20.47571,-23.56581c11.98248,-0.65338 22.24264,8.83807 22.9167,21.19972z" fill="none" stroke="#000000"/></g></g></g></svg>