<svg version="1.1" xmlns="http://www.w3.org/2000/svg" xmlns:xlink="http://www.w3.org/1999/xlink" width="178.25019" height="300.01059" viewBox="0,0,178.25019,300.01059"><g transform="translate(-151.28071,-28.66137)"><g data-paper-data="{&quot;isPaintingLayer&quot;:true}" fill-rule="nonzero" stroke-linejoin="miter" stroke-miterlimit="10" stroke-dasharray="" stroke-dashoffset="0" style="mix-blend-mode: normal"><g><g data-paper-data="{&quot;index&quot;:null}" stroke-linecap="butt"><g><g><path d="M293.00927,143.08578l6.7246,42.26096l-17.09572,2.99316l-6.72459,-42.26095z" fill="#252525" stroke="#000000" stroke-width="0"/><path d="M293.00927,143.08578l6.7246,42.26096l-17.09572,2.99316l-6.72459,-42.26095z" fill="#252525" stroke="#000000" stroke-width="0"/><path d="M299.13861,182.32084c0.48878,3.07181 -2.66263,-14.89152 -4.79513,-21.5334c-2.03399,-6.33511 -3.01316,-1.30086 -4.18668,-1.0954c-1.1409,0.19976 -7.292,-7.17308 -8.77829,1.57805c-0.90253,5.31405 3.12161,29.52678 1.80473,27.71589c-1.08375,-1.49029 -6.87672,-41.22979 -7.10322,-42.65329c-0.27051,-1.7 0.54491,-0.14945 1.705,-0.51965c2.93552,-0.93675 8.84092,-1.14332 10.56388,-1.44498c1.54489,-0.27048 2.19808,-9.02543 5.32939,3.98062c1.74099,7.23126 5.11908,31.82762 5.46032,33.97217z" fill="#141414" stroke="none" stroke-width="0"/><path d="M293.00927,143.08578l6.7246,42.26096l-17.09572,2.99316l-6.72459,-42.26095z" fill="none" stroke="#000000" stroke-width="3.5"/><path d="M293.00927,143.08578l6.7246,42.26096l-17.09572,2.99316l-6.72459,-42.26095z" fill="none" stroke="#000000" stroke-width="3.5"/></g><g><path d="M299.88801,161.43781l1.36153,8.55655l-24.97664,4.37296l-1.36152,-8.55655z" fill="#252525" stroke="#000000" stroke-width="0"/><path d="M299.88801,161.43781l1.36153,8.55655l-24.97664,4.37296l-1.36152,-8.55655z" fill="#252525" stroke="#000000" stroke-width="0"/><path d="M300.98972,169.40608c0.09897,0.62195 -0.89797,-2.95224 -2.64674,-4.06643c-1.668,-1.06273 -4.04597,0.33818 -5.76046,0.63836c-1.66684,0.29183 -9.00728,-0.1338 -12.83299,2.25516c-2.32312,1.45069 -1.29849,6.31627 -2.82471,6.17015c-1.25601,-0.12025 -1.7795,-8.27998 -1.82536,-8.5682c-0.19335,-1.21517 13.27085,-3.64272 16.78285,-4.25761c2.25708,-0.39516 6.0009,-1.44371 7.93495,0.96199c1.07531,1.33756 1.10337,6.43239 1.17246,6.86661z" fill="#141414" stroke="none" stroke-width="0"/><path d="M299.88801,161.43781l1.36153,8.55655l-24.97664,4.37296l-1.36152,-8.55655z" fill="none" stroke="#000000" stroke-width="3.5"/><path d="M299.88801,161.43781l1.36153,8.55655l-24.97664,4.37296l-1.36152,-8.55655z" fill="none" stroke="#000000" stroke-width="3.5"/></g><g><path d="M299.21346,147.60964l1.36152,8.55655l-28.2186,4.94058l-1.36153,-8.55657z" fill="#252525" stroke="#000000" stroke-width="0"/><path d="M299.21346,147.60964l1.36152,8.55655l-28.2186,4.94058l-1.36153,-8.55657z" fill="#252525" stroke="#000000" stroke-width="0"/><path d="M297.3949,151.55941c-1.85729,-1.02959 -4.5637,0.42883 -6.50073,0.76797c-1.88321,0.32971 -10.14204,0.06486 -14.49888,2.5468c-2.64565,1.50714 -1.5894,6.36722 -3.30541,6.25432c-1.4122,-0.0929 -1.83784,-8.26977 -1.8837,-8.55799c-0.19335,-1.21517 15.0199,-3.94896 18.98777,-4.64366c2.55005,-0.44647 6.78773,-1.58149 8.91767,0.78993c1.18423,1.31849 1.11345,6.43063 1.18254,6.86484c0.09896,0.62194 -0.95204,-2.94276 -2.89926,-4.02222z" fill="#141414" stroke="none" stroke-width="0"/><path d="M299.21346,147.60964l1.36152,8.55655l-28.2186,4.94058l-1.36153,-8.55657z" fill="none" stroke="#000000" stroke-width="3.5"/><path d="M299.21346,147.60964l1.36152,8.55655l-28.2186,4.94058l-1.36153,-8.55657z" fill="none" stroke="#000000" stroke-width="3.5"/></g></g><g><path d="M304.15307,177.66943l1.56375,9.82747l-29.14488,5.10276l-1.56375,-9.82748z" fill="#252525" stroke="#000000" stroke-width="0"/><path d="M304.15307,177.66943l1.56375,9.82747l-29.14488,5.10276l-1.56375,-9.82748z" fill="#252525" stroke="#000000" stroke-width="0"/><path d="M302.33988,182.15759c-1.94252,-1.2159 -4.72013,0.40122 -6.72074,0.7515c-1.94501,0.34054 -10.50561,-0.12559 -14.97466,2.63136c-2.71379,1.67412 -1.53251,7.26165 -3.31225,7.09852c-1.46466,-0.13424 -2.05205,-9.50838 -2.10472,-9.83941c-0.22209,-1.39566 15.48931,-4.2271 19.58741,-4.9446c2.63375,-0.46112 7.00348,-1.67763 9.2525,1.08055c1.25043,1.53353 1.26867,7.38757 1.34803,7.88626c0.11366,0.71432 -1.03899,-3.3894 -3.07557,-4.66418z" fill="#141414" stroke="none" stroke-width="0"/><path d="M304.15307,177.66943l1.56375,9.82747l-29.14488,5.10276l-1.56375,-9.82748z" fill="none" stroke="#000000" stroke-width="3.5"/><path d="M304.15307,177.66943l1.56375,9.82747l-29.14488,5.10276l-1.56375,-9.82748z" fill="none" stroke="#000000" stroke-width="3.5"/></g></g><g data-paper-data="{&quot;index&quot;:null}" stroke-linecap="butt"><g><g><path d="M276.60485,150.74173l-20.25706,-42.63611l15.41372,-9.02332l20.25706,42.63612z" fill="#252525" stroke="#000000" stroke-width="0"/><path d="M276.60485,150.74173l-20.25706,-42.63611l15.41372,-9.02332l20.25706,42.63612z" fill="#252525" stroke="#000000" stroke-width="0"/><path d="M273.12141,102.21302c1.02795,2.16359 13.24396,26.61116 16.2405,34.3112c5.38955,13.8492 -0.43485,6.41896 -1.82775,7.23438c-1.55345,0.9094 -6.37652,4.7708 -9.27939,5.93978c-1.14718,0.46196 -0.85638,2.41603 -1.67125,0.70094c-0.68233,-1.43613 -20.15272,-41.16489 -20.19357,-43.24865c-0.04964,-2.53201 11.41997,22.01313 15.35783,26.17628c6.48484,6.85583 6.91088,-3.99411 7.93954,-4.59629c1.05806,-0.6194 4.88736,3.23946 2.6669,-3.85503c-2.32798,-7.43803 -10.70524,-25.76169 -9.23282,-22.66262z" fill="#141414" stroke="none" stroke-width="0"/><path d="M276.60485,150.74173l-20.25706,-42.63611l15.41372,-9.02332l20.25706,42.63612z" fill="none" stroke="#000000" stroke-width="3.5"/><path d="M276.60485,150.74173l-20.25706,-42.63611l15.41372,-9.02332l20.25706,42.63612z" fill="none" stroke="#000000" stroke-width="3.5"/></g><g><path d="M263.85173,133.67343l-4.10143,-8.6325l22.51926,-13.18298l4.10143,8.63252z" fill="#252525" stroke="#000000" stroke-width="0"/><path d="M263.85173,133.67343l-4.10143,-8.6325l22.51926,-13.18298l4.10143,8.63252z" fill="#252525" stroke="#000000" stroke-width="0"/><path d="M282.41929,112.56536c0.20813,0.43807 3.27288,5.04174 3.22788,6.98228c-0.08093,3.49022 -3.69458,5.11255 -5.72958,6.30388c-3.16646,1.85367 -15.34851,8.89706 -15.93098,7.67111c-0.13815,-0.29078 -4.66582,-7.99186 -3.7395,-8.96088c1.12561,-1.17748 3.25863,3.90291 5.98573,3.61611c4.49097,-0.47233 10.07259,-5.88614 11.57544,-6.76592c1.54581,-0.90493 4.28638,-1.27411 4.96939,-3.37355c0.71608,-2.2011 -0.65649,-6.1005 -0.35837,-5.47302z" fill="#141414" stroke="none" stroke-width="0"/><path d="M263.85173,133.67343l-4.10143,-8.6325l22.51926,-13.18298l4.10143,8.63252z" fill="none" stroke="#000000" stroke-width="3.5"/><path d="M263.85173,133.67343l-4.10143,-8.6325l22.51926,-13.18298l4.10143,8.63252z" fill="none" stroke="#000000" stroke-width="3.5"/></g><g><path d="M268.77082,148.28978l-4.10144,-8.63252l25.44226,-14.89412l4.10144,8.63252z" fill="#252525" stroke="#000000" stroke-width="0"/><path d="M268.77082,148.28978l-4.10144,-8.63252l25.44226,-14.89412l4.10144,8.63252z" fill="#252525" stroke="#000000" stroke-width="0"/><path d="M290.24245,125.48163c0.20813,0.43807 3.36199,4.98958 3.21879,6.9876c-0.25755,3.59362 -4.31646,5.47661 -6.61562,6.82256c-3.57748,2.09429 -17.33649,10.06084 -17.91896,8.83489c-0.13815,-0.29078 -4.75406,-7.94022 -3.6869,-8.99168c1.29673,-1.27766 3.40126,3.81945 6.41915,3.3624c4.96983,-0.75267 11.37949,-6.65122 13.07741,-7.6452c1.74645,-1.02239 4.78316,-1.56493 5.63684,-3.76428c0.89501,-2.30586 -0.42882,-6.23377 -0.1307,-5.6063z" fill="#141414" stroke="none" stroke-width="0"/><path d="M268.77082,148.28978l-4.10144,-8.63252l25.44226,-14.89412l4.10144,8.63252z" fill="none" stroke="#000000" stroke-width="3.5"/><path d="M268.77082,148.28978l-4.10144,-8.63252l25.44226,-14.89412l4.10144,8.63252z" fill="none" stroke="#000000" stroke-width="3.5"/></g></g><g><path d="M253.65152,118.34478l-4.71063,-9.91472l26.2774,-15.38301l4.71063,9.91472z" fill="#252525" stroke="#000000" stroke-width="0"/><path d="M253.65152,118.34478l-4.71063,-9.91472l26.2774,-15.38301l4.71063,9.91472z" fill="#252525" stroke="#000000" stroke-width="0"/><path d="M275.3876,93.86112c0.23904,0.50313 3.7716,5.78324 3.70604,8.02013c-0.11793,4.02325 -4.33127,5.92341 -6.7059,7.31355c-3.6949,2.16302 -17.90936,10.38312 -18.57835,8.97506c-0.15867,-0.33397 -5.37134,-9.17161 -4.2875,-10.29621c1.31699,-1.36654 3.76282,4.47084 6.9361,4.11735c5.22574,-0.58213 11.75349,-6.8686 13.50713,-7.8952c1.80379,-1.05595 4.9933,-1.50447 5.80189,-3.92988c0.84774,-2.54285 -0.72181,-7.02546 -0.37942,-6.30479z" fill="#141414" stroke="none" stroke-width="0"/><path d="M253.65152,118.34478l-4.71063,-9.91472l26.2774,-15.38301l4.71063,9.91472z" fill="none" stroke="#000000" stroke-width="3.5"/><path d="M253.65152,118.34478l-4.71063,-9.91472l26.2774,-15.38301l4.71063,9.91472z" fill="none" stroke="#000000" stroke-width="3.5"/></g></g><g data-paper-data="{&quot;index&quot;:null}"><g stroke-linecap="butt"><path d="M273.16979,230.23088l5.80041,-22.99643l9.98273,1.0798l-5.80042,22.99642z" fill="#252525" stroke="#000000" stroke-width="0"/><path d="M273.16979,230.23088l5.80041,-22.99643l9.98273,1.0798l-5.80042,22.99642z" fill="#252525" stroke="#000000" stroke-width="0"/><path d="M273.16979,230.23088l5.80041,-22.99643l9.98273,1.0798l-5.80042,22.99642z" fill="none" stroke="#000000" stroke-width="3.5"/><path d="M288.47032,209.96435c-0.29435,1.16698 -3.35339,14.5344 -4.69508,18.48776c-2.41313,7.11043 -1.62097,2.33129 -2.5231,2.23371c-1.40368,-0.15181 -8.79671,2.66891 -7.97296,-0.59695c0.19538,-0.7746 5.33599,-22.38239 6.04129,-23.21979c0.85703,-1.01755 -2.56761,12.16327 -2.26299,15.00029c0.24061,2.24102 3.33547,2.67789 5.45756,0.21632c2.30201,-2.67027 3.64733,-8.3577 3.99399,-8.3202c0.68525,0.07411 -3.28013,11.43842 -1.80379,7.95908c1.54783,-3.64782 4.18669,-13.43174 3.76508,-11.76022z" fill="#141414" stroke="none" stroke-width="0"/><path d="M273.16979,230.23088l5.80041,-22.99643l9.98273,1.0798l-5.80042,22.99642z" fill="none" stroke="#000000" stroke-width="3.5"/></g><path d="M277.05549,218.48732l8.15664,1.25977" fill="none" stroke="#000000" stroke-width="3.5" stroke-linecap="round"/></g><g stroke-linecap="butt"><path d="M287.69936,219.39946l-7.24732,-24.24017l27.15915,-8.12003l7.24732,24.24017z" fill="#252525" stroke="#000000" stroke-width="0"/><path d="M285.99278,216.90324c-1.05827,-3.53962 -9.1408,-20.56329 -1.57092,-22.82653c1.92671,-0.57604 1.83516,18.22333 4.90505,18.93214c2.84233,0.65627 10.41405,0.46095 15.7422,-4.22787c0.92489,-0.81391 2.59924,-3.97557 2.47555,-8.78081c-0.11982,-4.65501 -2.03233,-10.9486 -1.51909,-12.27584c0.60698,-1.56966 4.26916,10.33372 4.85978,9.93018c0.95904,-0.65526 0.96677,1.95727 1.13946,2.31742c0.50762,1.05865 -1.06783,2.71874 -0.61983,3.41669c0.1655,0.25785 2.11611,5.24207 2.20356,5.53457c1.05827,3.53963 -6.48917,5.74218 -14.05905,8.00542c-7.56988,2.26324 -12.49844,3.51424 -13.55671,-0.02538z" fill="#141414" stroke="none" stroke-width="0"/><path d="M287.54349,219.31534l-7.24732,-24.24017l27.15914,-8.12003l7.24732,24.24017z" fill="none" stroke="#000000" stroke-width="3.5"/></g><g><g stroke-linecap="butt"><path d="M289.20346,239.02651l-2.79351,-23.55158l10.03868,0.21354l2.7935,23.55158z" fill="#252525" stroke="#000000" stroke-width="0"/><path d="M289.20346,239.02651l-2.79351,-23.55158l10.03868,0.21354l2.7935,23.55158z" fill="#252525" stroke="#000000" stroke-width="0"/><path d="M289.20346,239.02651l-2.79351,-23.55158l10.03868,0.21354l2.7935,23.55158z" fill="none" stroke="#000000" stroke-width="3.5"/><path d="M288.89697,229.3203c1.01643,3.64037 -1.45389,-8.13968 -0.76479,-8.125c0.34859,0.00742 0.95099,5.82065 2.89031,8.7649c1.78775,2.71413 4.9131,2.67907 5.44004,0.48764c0.6671,-2.77425 -1.03325,-16.28612 -0.31426,-15.16676c0.5917,0.92119 2.90955,23.01077 3.00365,23.80407c0.39673,3.34471 -6.57193,-0.40376 -7.98349,-0.43381c-0.90717,-0.01931 -0.73649,4.82205 -2.21474,-2.53977c-0.8219,-4.09312 -2.13568,-17.74301 -2.27744,-18.93816c-0.20305,-1.71187 1.15508,8.33024 2.22073,12.14688z" fill="#141414" stroke="none" stroke-width="0"/><path d="M289.20346,239.02651l-2.79351,-23.55158l10.03868,0.21354l2.7935,23.55158z" fill="none" stroke="#000000" stroke-width="3.5"/></g><path d="M288.64871,227.29404l8.25094,-0.19986" fill="none" stroke="#000000" stroke-width="3.5" stroke-linecap="round"/></g><g><g stroke-linecap="butt"><path d="M304.4625,237.70967l-7.71425,-22.42701l9.85651,-1.91569l7.71425,22.42701z" fill="#252525" stroke="#000000" stroke-width="0"/><path d="M304.4625,237.70967l-7.71425,-22.42701l9.85651,-1.91569l7.71425,22.42701z" fill="#252525" stroke="#000000" stroke-width="0"/><path d="M304.4625,237.70967l-7.71425,-22.42701l9.85651,-1.91569l7.71425,22.42701z" fill="none" stroke="#000000" stroke-width="3.5"/><path d="M302.10891,228.28814c1.76378,3.34282 -3.1435,-7.64765 -2.4669,-7.77914c0.34226,-0.06653 2.16124,5.48758 4.6797,7.95474c2.32163,2.27434 5.36877,1.57869 5.42002,-0.67462c0.06489,-2.85259 -4.45634,-15.69861 -3.51675,-14.75677c0.77324,0.77511 7.71322,21.87389 7.97306,22.62932c1.09555,3.185 -6.50854,0.99615 -7.89449,1.2655c-0.89072,0.1731 0.30064,4.86868 -2.70204,-2.01356c-1.66947,-3.82648 -5.84211,-16.88921 -6.23358,-18.02729c-0.56072,-1.63013 2.89178,7.89713 4.74097,11.40183z" fill="#141414" stroke="none" stroke-width="0"/><path d="M304.4625,237.70967l-7.71425,-22.42701l9.85651,-1.91569l7.71425,22.42701z" fill="none" stroke="#000000" stroke-width="3.5"/></g><path d="M301.43747,226.36031l8.02177,-1.94141" fill="none" stroke="#000000" stroke-width="3.5" stroke-linecap="round"/></g><g data-paper-data="{&quot;index&quot;:null}"><g stroke-linecap="butt"><path d="M318.9891,233.32851l-10.49883,-21.26629l8.29897,-5.65223l10.49884,21.26629z" fill="#252525" stroke="#000000" stroke-width="0"/><path d="M318.9891,233.32851l-10.49883,-21.26629l8.29897,-5.65223l10.49884,21.26629z" fill="#252525" stroke="#000000" stroke-width="0"/><path d="M318.9891,233.32851l-10.49883,-21.26629l8.29897,-5.65223l10.49884,21.26629z" fill="none" stroke="#000000" stroke-width="3.5"/><path d="M317.49205,207.97901c0.53277,1.07918 6.87353,13.23814 8.41616,17.1175c2.77454,6.97735 0.27806,2.8258 -0.4719,3.33659c-1.16692,0.79478 -4.96502,7.73653 -6.45602,4.71636c-0.35364,-0.71633 -10.45412,-20.49769 -10.46034,-21.59252c-0.00756,-1.33035 5.93389,10.92367 8.00567,12.8856c1.63653,1.54978 4.27562,-0.12481 4.29451,-3.37477c0.02049,-3.52551 -2.64398,-8.72717 -2.3558,-8.92344c0.56967,-0.388 4.92144,10.83403 3.78873,7.22815c-1.18755,-3.78048 -5.52413,-12.93923 -4.76101,-11.39347z" fill="#141414" stroke="none" stroke-width="0"/><path d="M318.9891,233.32851l-10.49883,-21.26629l8.29897,-5.65223l10.49884,21.26629z" fill="none" stroke="#000000" stroke-width="3.5"/></g><path d="M314.33071,221.8695l7.02571,-4.33097" fill="none" stroke="#000000" stroke-width="3.5" stroke-linecap="round"/></g></g><g><g><g data-paper-data="{&quot;index&quot;:null}" stroke-linecap="butt"><g><g><path d="M254.79189,307.95002l-6.40718,-46.76681l17.42142,-3.93666l6.40718,46.76682z" fill="#252525" stroke="#000000" stroke-width="0"/><path d="M254.79189,307.95002l-6.40718,-46.76681l17.42142,-3.93666l6.40718,46.76682z" fill="#252525" stroke="#000000" stroke-width="0"/><path d="M266.15503,260.64198c0.32513,2.3732 4.57146,29.37104 5.09776,37.61682c0.94659,14.83076 -2.35665,5.98651 -3.93098,6.34226c-1.75579,0.39675 -7.52114,2.61784 -10.64164,2.85371c-1.23318,0.09321 -1.54726,2.04368 -1.805,0.16242c-0.21582,-1.57527 -6.75288,-45.33298 -6.16134,-47.33143c0.7188,-2.42835 4.22419,24.43665 6.71783,29.59614c4.10652,8.49659 7.79545,-1.71587 8.95809,-1.97859c1.19588,-0.27023 3.67811,4.56638 3.7083,-2.86741c0.03166,-7.79377 -2.40876,-27.79325 -1.94304,-24.39393z" fill="#141414" stroke="none" stroke-width="0"/><path d="M254.79189,307.95002l-6.40718,-46.76681l17.42142,-3.93666l6.40718,46.76682z" fill="none" stroke="#000000" stroke-width="3.5"/><path d="M254.79189,307.95002l-6.40718,-46.76681l17.42142,-3.93666l6.40718,46.76682z" fill="none" stroke="#000000" stroke-width="3.5"/></g><g><path d="M247.80089,287.82304l-1.29726,-9.46884l25.45249,-5.75142l1.29725,9.46886z" fill="#252525" stroke="#000000" stroke-width="0"/><path d="M247.80089,287.82304l-1.29726,-9.46884l25.45249,-5.75142l1.29725,9.46886z" fill="#252525" stroke="#000000" stroke-width="0"/><path d="M271.88479,273.32234c0.06583,0.48051 1.594,5.79569 0.96396,7.63165c-1.13317,3.30214 -5.06831,3.75505 -7.36838,4.27481c-3.57891,0.80871 -17.32106,3.83605 -17.5053,2.49132c-0.0437,-0.31895 -2.02903,-9.029 -0.85294,-9.67232c1.42912,-0.78172 1.92499,4.70594 4.61104,5.25772c4.42338,0.90864 11.38143,-2.56259 13.08003,-2.94642c1.74716,-0.3948 4.47097,0.08254 5.75719,-1.71184c1.3485,-1.88126 1.2201,-6.01319 1.31439,-5.32492z" fill="#141414" stroke="none" stroke-width="0"/><path d="M247.80089,287.82304l-1.29726,-9.46884l25.45249,-5.75142l1.29725,9.46886z" fill="none" stroke="#000000" stroke-width="3.5"/><path d="M247.80089,287.82304l-1.29726,-9.46884l25.45249,-5.75142l1.29725,9.46886z" fill="none" stroke="#000000" stroke-width="3.5"/></g><g><path d="M248.06695,303.24266l-1.29726,-9.46886l28.75621,-6.49795l1.29726,9.46886z" fill="#252525" stroke="#000000" stroke-width="0"/><path d="M248.06695,303.24266l-1.29726,-9.46886l28.75621,-6.49795l1.29726,9.46886z" fill="#252525" stroke="#000000" stroke-width="0"/><path d="M275.4332,288.00023c0.06583,0.48051 1.6947,5.77294 0.95368,7.63398c-1.33279,3.34725 -5.77119,3.91388 -8.36982,4.50108c-4.04346,0.91369 -19.56798,4.34377 -19.75222,2.99905c-0.0437,-0.31895 -2.12876,-9.00647 -0.79348,-9.68575c1.62253,-0.82542 2.08619,4.66953 5.10091,5.14703c4.96461,0.78632 12.85856,-2.89637 14.77764,-3.33002c1.97393,-0.44605 5.03246,-0.04434 6.51158,-1.88231c1.55074,-1.92698 1.47743,-6.07133 1.57172,-5.38306z" fill="#141414" stroke="none" stroke-width="0"/><path d="M248.06695,303.24266l-1.29726,-9.46886l28.75621,-6.49795l1.29726,9.46886z" fill="none" stroke="#000000" stroke-width="3.5"/><path d="M248.06695,303.24266l-1.29726,-9.46886l28.75621,-6.49795l1.29726,9.46886z" fill="none" stroke="#000000" stroke-width="3.5"/></g></g><g><path d="M242.71676,270.12664l-1.48994,-10.87529l29.70013,-6.71123l1.48994,10.87528z" fill="#252525" stroke="#000000" stroke-width="0"/><path d="M242.71676,270.12664l-1.48994,-10.87529l29.70013,-6.71123l1.48994,10.87528z" fill="#252525" stroke="#000000" stroke-width="0"/><path d="M270.84202,253.36724c0.0756,0.55187 1.84499,6.65333 1.10568,8.76554c-1.32972,3.79899 -5.9205,4.33526 -8.60444,4.94175c-4.17618,0.94367 -20.21151,4.47761 -20.42311,2.93314c-0.05018,-0.36633 -2.34452,-10.36692 -0.97122,-11.11086c1.66873,-0.904 2.2337,5.39979 5.3652,6.02301c5.15693,1.0263 13.2808,-2.99041 15.26286,-3.43829c2.03874,-0.46069 5.21446,0.07686 6.719,-1.99021c1.57739,-2.16716 1.43771,-6.91456 1.546,-6.12407z" fill="#141414" stroke="none" stroke-width="0"/><path d="M242.71676,270.12664l-1.48994,-10.87529l29.70013,-6.71123l1.48994,10.87528z" fill="none" stroke="#000000" stroke-width="3.5"/><path d="M242.71676,270.12664l-1.48994,-10.87529l29.70013,-6.71123l1.48994,10.87528z" fill="none" stroke="#000000" stroke-width="3.5"/></g></g><path d="M281.46305,282.09839c4.46542,34.27387 -20.47767,-26.35422 -28.8585,-25.26231c-0.56648,0.0738 5.5743,24.17544 4.82767,24.2904c-5.01668,0.77247 -12.2569,32.34543 -16.03986,22.12473c-3.98361,-10.76281 -1.86539,-35.41237 -4.00097,-51.80378c-4.46542,-34.27386 -1.29135,-62.94348 7.08948,-64.03539c4.40218,-0.57354 12.87841,-21.84542 20.8404,-0.89568c3.10084,8.159 -0.26235,29.49505 2.35412,46.19958c3.45545,22.06088 12.58126,40.12289 13.78766,49.38245z" data-paper-data="{&quot;index&quot;:null}" fill="#001354" stroke="#000000" stroke-width="0" stroke-linecap="butt"/><path d="M235.94936,213.91902c0,-9.23876 5.60275,57.34104 10.17836,71.44888c2.23412,6.88837 3.17964,-34.21896 5.12474,-34.21896c0.6284,0 15.55547,10.54256 21.58519,19.71732c4.2489,6.46508 0.17017,9.29278 0.61352,4.81885c0.32321,-3.26161 -5.2971,-53.35167 -16.63214,-69.66048c-6.85355,-9.86086 -21.30265,12.62484 -22.10097,8.30123c-4.33415,-23.47334 24.38223,-17.22216 26.90715,-14.89909c3.33959,3.07261 4.82081,23.81254 8.56123,40.35083c5.01233,22.16205 11.90061,41.50452 11.90061,45.86041c0,1.69962 -0.75879,7.93337 -3.40691,4.35565c-6.77912,-9.15889 -21.72645,-35.93136 -25.97373,-34.32491c-3.23957,1.22531 3.30158,10.87765 2.50048,20.75787c-0.02062,0.25425 1.08579,1.63871 1.05691,1.89115c-0.50349,4.40177 -4.17826,7.71779 -5.88639,11.22737c-3.21859,6.613 -5.22401,11.85277 -6.4339,11.85277c-5.92878,0 -7.99416,-73.72916 -7.99416,-87.47889z" fill="#000c33" stroke="none" stroke-width="0" stroke-linecap="butt"/><path d="M281.48795,281.66647c4.46542,34.27387 -20.47767,-26.35422 -28.8585,-25.26231c-0.56648,0.0738 5.57429,24.17544 4.82766,24.2904c-5.01668,0.77247 -12.25689,32.34543 -16.03985,22.12473c-3.98361,-10.76281 -1.86539,-35.41237 -4.00097,-51.80378c-4.46542,-34.27386 -1.29135,-62.94348 7.08948,-64.03539c4.40218,-0.57354 12.87841,-21.84541 20.8404,-0.89567c3.10084,8.159 -0.26235,29.49505 2.35412,46.19958c3.45545,22.06088 12.58127,40.12288 13.78766,49.38245z" data-paper-data="{&quot;index&quot;:null}" fill="none" stroke="#000000" stroke-width="3.5" stroke-linecap="butt"/><path d="M268.2321,234.93257l-32,16" fill="none" stroke="#000000" stroke-width="3.5" stroke-linecap="round"/></g><g stroke-linecap="butt"><path d="M239.89241,312.2553c0,-9.57293 15.00343,-17.33333 33.51109,-17.33333c8.76699,0 17.82869,-4.592 23.80081,-1.74153c6.63539,3.16703 9.71028,14.03659 9.71028,19.07486c0,4.01638 9.93836,10.2443 0.86668,12.63837c-12.55042,3.31213 -46.33616,2.02829 -57.07883,2.02829c-18.50766,0 -10.81003,-5.09374 -10.81003,-14.66667z" fill="#51341e" stroke="#000000" stroke-width="0"/><path d="M298.83513,319.77765c12.51038,-5.73047 -12.16793,-26.98902 -3.45124,-26.98902c10.26399,0 9.47393,10.2209 11.0047,17.89293c1.0217,5.12064 5.71481,7.88586 5.71481,10.20707c0,5.79899 -26.62997,7.7 -43.74458,7.7c-10.71308,0 -21.02126,-0.44198 -26.58682,-3.24224c-3.32567,-1.67327 -4.40193,-5.08871 -4.40193,-7.25776c0,-2.84549 49.41218,7.20993 61.46506,1.68902z" fill="#2f1c0d" stroke="none" stroke-width="0"/><path d="M273.76384,294.92196c8.767,0 17.8287,-4.592 23.80082,-1.74153c6.63538,3.16704 9.71027,14.03658 9.71027,19.07486c0,4.01639 9.93836,10.24431 0.86668,12.63838c-12.55042,3.31213 -46.33617,2.02829 -57.07883,2.02829c-18.50766,0 -10.81003,-5.09373 -10.81003,-14.66667c0,-9.57293 15.00343,-17.33333 33.51109,-17.33333z" fill="none" stroke="#000000" stroke-width="3.5"/></g></g><g stroke-linecap="butt"><g data-paper-data="{&quot;index&quot;:null}"><g><g><path d="M201.41521,256.70519l6.64634,-59.2575l17.40105,5.10458l-6.64634,59.25749z" fill="#252525" stroke="#000000" stroke-width="0"/><path d="M201.41521,256.70519l6.64634,-59.2575l17.40105,5.10458l-6.64634,59.25749z" fill="#252525" stroke="#000000" stroke-width="0"/><path d="M207.69529,201.75072c0.4831,-4.30722 -2.05959,21.03575 -2.06781,30.91824c-0.00784,9.42605 2.49911,3.30945 3.69359,3.65986c1.16129,0.34065 4.79792,13.31372 8.94785,2.5669c2.52,-6.52592 6.16278,-40.56727 6.86914,-37.48353c0.58132,2.53782 -6.17951,57.97901 -6.40338,59.97501c-0.26736,2.38371 -0.57145,-0.09147 -1.80414,-0.21765c-3.11925,-0.31931 -8.87316,-3.173 -10.6269,-3.68745c-1.57249,-0.46129 -4.92092,10.73155 -3.89848,-8.06732c0.56846,-10.45201 4.95285,-44.657 5.29012,-47.66405z" fill="#141414" stroke="none" stroke-width="0"/><path d="M201.41521,256.70519l6.64634,-59.2575l17.40105,5.10458l-6.64634,59.25749z" fill="none" stroke="#000000" stroke-width="3.5"/><path d="M201.41521,256.70519l6.64634,-59.2575l17.40105,5.10458l-6.64634,59.25749z" fill="none" stroke="#000000" stroke-width="3.5"/></g><g><path d="M200.48741,228.87692l1.34567,-11.99784l25.42273,7.45775l-1.34568,11.99782z" fill="#252525" stroke="#000000" stroke-width="0"/><path d="M200.48741,228.87692l1.34567,-11.99784l25.42273,7.45775l-1.34568,11.99782z" fill="#252525" stroke="#000000" stroke-width="0"/><path d="M201.90072,217.79193c0.09781,-0.8721 -0.05172,4.36624 1.28714,6.76038c1.27703,2.28356 4.00325,1.69598 5.74836,2.20791c1.69662,0.4977 8.63682,4.94425 13.06478,3.82081c2.68884,-0.68222 3.21277,-7.63719 4.63788,-6.63673c1.17279,0.82335 -0.85708,11.85457 -0.9024,12.25871c-0.19111,1.70388 -13.9176,-2.22384 -17.49232,-3.27248c-2.29739,-0.67396 -6.23015,-1.27376 -7.34642,-5.46813c-0.62064,-2.33204 0.9347,-9.06164 1.00299,-9.67049z" fill="#141414" stroke="none" stroke-width="0"/><path d="M200.48741,228.87692l1.34567,-11.99784l25.42273,7.45775l-1.34568,11.99782z" fill="none" stroke="#000000" stroke-width="3.5"/><path d="M200.48741,228.87692l1.34567,-11.99784l25.42273,7.45775l-1.34568,11.99782z" fill="none" stroke="#000000" stroke-width="3.5"/></g><g><path d="M196.84259,247.45882l1.34568,-11.99785l28.7226,8.42575l-1.34568,11.99785z" fill="#252525" stroke="#000000" stroke-width="0"/><path d="M196.84259,247.45882l1.34568,-11.99785l28.7226,8.42575l-1.34568,11.99785z" fill="#252525" stroke="#000000" stroke-width="0"/><path d="M198.27727,236.38007c0.09781,-0.87208 0.0033,4.38236 1.54416,6.83577c1.4697,2.34008 4.53024,1.85057 6.50187,2.42895c1.91684,0.56231 9.79184,5.28308 14.76041,4.31824c3.01713,-0.58589 3.50889,-7.55035 5.12717,-6.49321c1.33179,0.86998 -0.79769,11.872 -0.84302,12.27613c-0.19111,1.70388 -15.69788,-2.74607 -19.73662,-3.93084c-2.5956,-0.76142 -7.03103,-1.50868 -8.34669,-5.76155c-0.7315,-2.36455 0.92444,-9.06465 0.99272,-9.67349z" fill="#141414" stroke="none" stroke-width="0"/><path d="M196.84259,247.45882l1.34568,-11.99785l28.7226,8.42575l-1.34568,11.99785z" fill="none" stroke="#000000" stroke-width="3.5"/><path d="M196.84259,247.45882l1.34568,-11.99785l28.7226,8.42575l-1.34568,11.99785z" fill="none" stroke="#000000" stroke-width="3.5"/></g></g><g><path d="M201.41931,205.22673l1.54555,-13.7799l29.66542,8.70231l-1.54555,13.7799z" fill="#252525" stroke="#000000" stroke-width="0"/><path d="M201.41931,205.22673l1.54555,-13.7799l29.66542,8.70231l-1.54555,13.7799z" fill="#252525" stroke="#000000" stroke-width="0"/><path d="M203.04557,192.49616c0.11233,-1.00161 -0.05163,5.01705 1.51465,7.77518c1.49395,2.63075 4.67238,1.96975 6.70873,2.56711c1.97974,0.58076 10.08296,5.72654 15.24507,4.45866c3.13464,-0.76991 3.73186,-8.75929 5.39594,-7.60221c1.36948,0.95222 -0.97599,13.61781 -1.02804,14.08198c-0.2195,1.95698 -16.23655,-2.62798 -20.40784,-3.85161c-2.6808,-0.78642 -7.26878,-1.49617 -8.57904,-6.32181c-0.72849,-2.68301 1.07208,-10.40803 1.15051,-11.1073z" fill="#141414" stroke="none" stroke-width="0"/><path d="M201.41931,205.22673l1.54555,-13.7799l29.66542,8.70231l-1.54555,13.7799z" fill="none" stroke="#000000" stroke-width="3.5"/><path d="M201.41931,205.22673l1.54555,-13.7799l29.66542,8.70231l-1.54555,13.7799z" fill="none" stroke="#000000" stroke-width="3.5"/></g></g><g data-paper-data="{&quot;index&quot;:null}"><g><g><path d="M219.23659,256.95731l-1.12857,47.70256l-17.34053,-0.81077l1.12858,-47.70258z" fill="#252525" stroke="#000000" stroke-width="0"/><path d="M219.23659,256.95731l-1.12857,47.70256l-17.34053,-0.81077l1.12858,-47.70258z" fill="#252525" stroke="#000000" stroke-width="0"/><path d="M200.96109,300.41697c0.05727,-2.42069 0.18303,-30.10585 0.9614,-38.35449c1.39995,-14.8359 3.19479,-5.25266 4.7618,-5.1794c1.74763,0.08171 7.62918,-0.55288 10.66214,0.05374c1.1986,0.23974 1.8038,-1.59357 1.75839,0.32533c-0.03801,1.60679 -0.57341,46.38573 -1.45252,48.19163c-1.06822,2.19439 -0.2517,-25.16107 -1.84282,-30.90392c-2.62025,-9.45727 -7.75215,-0.40766 -8.90938,-0.46178c-1.19032,-0.05565 -2.82076,-5.47798 -4.00703,1.82278c-1.24373,7.65429 -2.01399,27.97344 -1.93196,24.5061z" fill="#141414" stroke="none" stroke-width="0"/><path d="M219.23659,256.95731l-1.12857,47.70256l-17.34053,-0.81077l1.12858,-47.70258z" fill="none" stroke="#000000" stroke-width="3.5"/><path d="M219.23659,256.95731l-1.12857,47.70256l-17.34053,-0.81077l1.12858,-47.70258z" fill="none" stroke="#000000" stroke-width="3.5"/></g><g><path d="M222.81586,278.62458l-0.2285,9.65831l-25.33431,-1.18451l0.22851,-9.65831z" fill="#252525" stroke="#000000" stroke-width="0"/><path d="M222.81586,278.62458l-0.2285,9.65831l-25.33431,-1.18451l0.22851,-9.65831z" fill="#252525" stroke="#000000" stroke-width="0"/><path d="M197.43355,286.4101c0.01159,-0.49013 -0.62823,-6.12662 0.26252,-7.76244c1.60212,-2.94215 5.45106,-2.33005 7.74046,-2.22303c3.56229,0.16656 17.2285,0.88271 17.19606,2.25435c-0.0077,0.32533 0.54261,9.42249 -0.68681,9.73897c-1.49391,0.38456 -1.11572,-5.14411 -3.60891,-6.40839c-4.10578,-2.08197 -11.32714,-0.53877 -13.01785,-0.61781c-1.73904,-0.08131 -4.28009,-1.28254 -5.79444,0.13606c-1.58768,1.4873 -2.10765,5.58428 -2.09104,4.88225z" fill="#141414" stroke="none" stroke-width="0"/><path d="M222.81586,278.62458l-0.2285,9.65831l-25.33431,-1.18451l0.22851,-9.65831z" fill="none" stroke="#000000" stroke-width="3.5"/><path d="M222.81586,278.62458l-0.2285,9.65831l-25.33431,-1.18451l0.22851,-9.65831z" fill="none" stroke="#000000" stroke-width="3.5"/></g><g><path d="M224.9609,263.39259l-0.2285,9.65833l-28.62269,-1.33827l0.2285,-9.65831z" fill="#252525" stroke="#000000" stroke-width="0"/><path d="M224.9609,263.39259l-0.2285,9.65833l-28.62269,-1.33827l0.2285,-9.65831z" fill="#252525" stroke="#000000" stroke-width="0"/><path d="M198.65867,266.15507c-1.78897,1.4779 -2.36378,5.5723 -2.34717,4.87027c0.01159,-0.49012 -0.72849,-6.1313 0.27275,-7.76195c1.80081,-2.93288 6.15069,-2.29735 8.73725,-2.17642c4.02469,0.18817 19.465,0.98729 19.43255,2.35893c-0.0077,0.32533 0.64186,9.42714 -0.74599,9.73621c-1.68642,0.37557 -1.27616,-5.15164 -4.0965,-6.43119c-4.64451,-2.10714 -12.79742,-0.60748 -14.70759,-0.69679c-1.96477,-0.09186 -4.83896,-1.30867 -6.54531,0.10095z" fill="#141414" stroke="none" stroke-width="0"/><path d="M224.9609,263.39259l-0.2285,9.65833l-28.62269,-1.33827l0.2285,-9.65831z" fill="none" stroke="#000000" stroke-width="3.5"/><path d="M224.9609,263.39259l-0.2285,9.65833l-28.62269,-1.33827l0.2285,-9.65831z" fill="none" stroke="#000000" stroke-width="3.5"/></g></g><g><path d="M224.94257,297.38975l-0.26244,11.09289l-29.56224,-1.3822l0.26244,-11.09288z" fill="#252525" stroke="#000000" stroke-width="0"/><path d="M224.94257,297.38975l-0.26244,11.09289l-29.56224,-1.3822l0.26244,-11.09288z" fill="#252525" stroke="#000000" stroke-width="0"/><path d="M195.3282,306.31003c0.01333,-0.5629 -0.73573,-7.03727 0.30296,-8.91533c1.86818,-3.37784 6.35965,-2.67153 9.03111,-2.54663c4.15678,0.19435 20.10374,1.02862 20.06646,2.60399c-0.00884,0.37365 0.63726,10.82269 -0.79718,11.18513c-1.74302,0.44042 -1.30413,-5.90927 -4.2139,-7.36346c-4.79179,-2.39477 -13.21749,-0.6285 -15.19035,-0.72074c-2.02926,-0.09489 -4.99483,-1.47674 -6.76126,0.15131c-1.85197,1.70689 -2.45691,6.41203 -2.43784,5.60573z" fill="#141414" stroke="none" stroke-width="0"/><path d="M224.94257,297.38975l-0.26244,11.09289l-29.56224,-1.3822l0.26244,-11.09288z" fill="none" stroke="#000000" stroke-width="3.5"/><path d="M224.94257,297.38975l-0.26244,11.09289l-29.56224,-1.3822l0.26244,-11.09288z" fill="none" stroke="#000000" stroke-width="3.5"/></g></g><g><g><path d="M177.50126,317.9077l0.2211,-21.45005l45.94583,1.27936l-0.2211,21.45006z" fill="#252525" stroke="#000000" stroke-width="0"/><path d="M177.50126,317.9077l0.2211,-21.45005l45.94583,1.27936l-0.2211,21.45006z" fill="#252525" stroke="#000000" stroke-width="0"/><path d="M177.50126,317.9077l0.2211,-21.45005l45.94583,1.27936l-0.2211,21.45006z" fill="none" stroke="#000000" stroke-width="3.5"/><path d="M178.00391,298.01159c0.01608,-1.55913 0.68817,7.60503 3.46494,11.14751c2.64851,3.37886 7.32805,1.10718 10.48194,1.19501c3.06625,0.08539 16.03916,4.62037 23.60954,0.63711c4.59705,-2.41879 4.27572,-14.73556 6.95517,-13.65257c2.20509,0.89125 0.61081,20.97702 0.60336,21.69953c-0.0314,3.04625 -24.82128,0.4406 -31.28179,0.2607c-4.15201,-0.11562 -11.16078,2.73485 -13.86805,-4.03562c-1.50523,-3.76432 0.02366,-16.16317 0.03488,-17.25167z" fill="#141414" stroke="none" stroke-width="0"/><path d="M177.50126,317.9077l0.2211,-21.45005l45.94583,1.27936l-0.2211,21.45006z" fill="none" stroke="#000000" stroke-width="3.5"/></g><g><path d="M164.18627,323.4722l0.10835,-21.45005l22.51631,1.27936l-0.10835,21.45007z" fill="#252525" stroke="#000000" stroke-width="0"/><path d="M164.18627,323.4722l0.10835,-21.45005l22.51631,1.27936l-0.10835,21.45007z" fill="#6c6c6c" stroke="#000000" stroke-width="0"/><path d="M164.18627,323.4722l0.10835,-21.45005l22.51631,1.27936l-0.10835,21.45007z" fill="none" stroke="#000000" stroke-width="3.5"/><path d="M166.13063,314.72361c1.29793,3.37886 3.5912,1.10718 5.1368,1.195c1.50266,0.08539 7.86018,4.62037 11.57014,0.63711c2.25284,-2.41878 2.09537,-14.73555 3.40847,-13.65257c1.08063,0.89125 0.29934,20.97702 0.29569,21.69953c-0.0154,3.04625 -12.16397,0.44061 -15.33002,0.26071c-2.03475,-0.11562 -5.46948,2.73484 -6.79621,-4.03563c-0.73766,-3.76433 0.01161,-16.16317 0.0171,-17.25167c0.00788,-1.55912 0.33725,7.60503 1.69804,11.14751z" fill="#545454" stroke="none" stroke-width="0"/><path d="M164.18627,323.4722l0.10835,-21.45005l22.51631,1.27936l-0.10835,21.45007z" fill="none" stroke="#000000" stroke-width="3.5"/></g><g><path d="M198.03695,325.44296l0.10835,-21.45005l22.51631,1.27936l-0.10836,21.45007z" fill="#252525" stroke="#000000" stroke-width="0"/><path d="M198.03695,325.44296l0.10835,-21.45005l22.51631,1.27936l-0.10836,21.45007z" fill="#6c6c6c" stroke="#000000" stroke-width="0"/><path d="M198.03695,325.44296l0.10835,-21.45005l22.51631,1.27936l-0.10836,21.45007z" fill="none" stroke="#000000" stroke-width="3.5"/><path d="M198.28328,305.54687c0.00787,-1.55912 0.33724,7.60503 1.69803,11.14751c1.29794,3.37886 3.59121,1.10719 5.13681,1.19501c1.50265,0.08539 7.86017,4.62036 11.57013,0.63711c2.25284,-2.41878 2.09537,-14.73555 3.40847,-13.65257c1.08063,0.89124 0.29934,20.97702 0.29569,21.69953c-0.01539,3.04625 -12.16396,0.4406 -15.33001,0.2607c-2.03475,-0.11562 -5.46949,2.73484 -6.79622,-4.03563c-0.73765,-3.76433 0.01161,-16.16317 0.0171,-17.25167z" fill="#545454" stroke="none" stroke-width="0"/><path d="M198.03695,325.44296l0.10835,-21.45005l22.51631,1.27936l-0.10836,21.45007z" fill="none" stroke="#000000" stroke-width="3.5"/></g><g><path d="M179.48863,325.32703l0.10835,-21.45005l22.51631,1.27936l-0.10835,21.45007z" fill="#252525" stroke="#000000" stroke-width="0"/><path d="M179.48863,325.32703l0.10835,-21.45005l22.51631,1.27936l-0.10835,21.45007z" fill="#6c6c6c" stroke="#000000" stroke-width="0"/><path d="M179.48863,325.32703l0.10835,-21.45005l22.51631,1.27936l-0.10835,21.45007z" fill="none" stroke="#000000" stroke-width="3.5"/><path d="M179.73496,305.43094c0.00787,-1.55912 0.33724,7.60504 1.69803,11.14751c1.29793,3.37886 3.5912,1.10718 5.1368,1.195c1.50265,0.08539 7.86017,4.62037 11.57013,0.63711c2.25284,-2.41878 2.09537,-14.73556 3.40847,-13.65257c1.08062,0.89124 0.29934,20.97702 0.29569,21.69953c-0.01539,3.04625 -12.16396,0.4406 -15.33001,0.2607c-2.03474,-0.11562 -5.46948,2.73484 -6.79621,-4.03563c-0.73765,-3.76433 0.01161,-16.16317 0.0171,-17.25167z" fill="#545454" stroke="none" stroke-width="0"/><path d="M179.48863,325.32703l0.10835,-21.45005l22.51631,1.27936l-0.10835,21.45007z" fill="none" stroke="#000000" stroke-width="3.5"/></g></g></g><g><g data-paper-data="{&quot;index&quot;:null}" stroke-linecap="butt"><g><g><path d="M212.65631,155.67939l-13.54736,40.59159l-16.37578,-5.74948l13.54737,-40.5916z" fill="#252525" stroke="#000000" stroke-width="0"/><path d="M212.65631,155.67939l-13.54736,40.59159l-16.37578,-5.74948l13.54737,-40.5916z" fill="#252525" stroke="#000000" stroke-width="0"/><path d="M183.81541,187.63376c0.68746,-2.05984 8.0437,-25.77224 10.94418,-32.62129c5.21675,-12.3186 4.42894,-3.57474 5.90878,-3.05518c1.6504,0.57945 7.44246,1.74929 10.18519,3.15363c1.0839,0.55499 2.14199,-0.84128 1.59702,0.79157c-0.45632,1.36727 -12.67213,39.62378 -13.98507,40.9167c-1.59538,1.57107 6.33545,-21.65719 6.31439,-27.04729c-0.03469,-8.87638 -7.30903,-2.6091 -8.40189,-2.99281c-1.1241,-0.39467 -1.26654,-5.52128 -4.30947,0.39576c-3.1903,6.20356 -9.23783,23.40937 -8.25313,20.4589z" fill="#141414" stroke="none" stroke-width="0"/><path d="M212.65631,155.67939l-13.54736,40.59159l-16.37578,-5.74948l13.54737,-40.5916z" fill="none" stroke="#000000" stroke-width="3.5"/><path d="M212.65631,155.67939l-13.54736,40.59159l-16.37578,-5.74948l13.54737,-40.5916z" fill="none" stroke="#000000" stroke-width="3.5"/></g><g><path d="M210.41711,175.30935l-2.74292,8.21856l-23.92481,-8.39991l2.74293,-8.21855z" fill="#252525" stroke="#000000" stroke-width="0"/><path d="M210.41711,175.30935l-2.74292,8.21856l-23.92481,-8.39991l2.74293,-8.21855z" fill="#252525" stroke="#000000" stroke-width="0"/><path d="M184.10193,174.59017c0.13919,-0.41707 1.00032,-5.43867 2.27996,-6.58231c2.30154,-2.05691 5.8234,-0.41004 7.98543,0.34903c3.3641,1.18113 16.24981,5.77855 15.86027,6.94572c-0.09239,0.27684 -1.94366,8.24101 -3.20242,8.15417c-1.52956,-0.10552 0.27721,-4.73794 -1.7773,-6.54912c-3.38337,-2.98262 -10.69455,-3.76352 -12.2912,-4.3241c-1.64229,-0.57661 -3.75905,-2.34765 -5.57843,-1.5721c-1.90748,0.8131 -3.47568,4.17606 -3.2763,3.57868z" fill="#141414" stroke="none" stroke-width="0"/><path d="M210.41711,175.30935l-2.74292,8.21856l-23.92481,-8.39991l2.74293,-8.21855z" fill="none" stroke="#000000" stroke-width="3.5"/><path d="M210.41711,175.30935l-2.74292,8.21856l-23.92481,-8.39991l2.74293,-8.21855z" fill="none" stroke="#000000" stroke-width="3.5"/></g><g><path d="M216.45014,162.86812l-2.74294,8.21857l-27.03025,-9.49023l2.74292,-8.21856z" fill="#252525" stroke="#000000" stroke-width="0"/><path d="M216.45014,162.86812l-2.74294,8.21857l-27.03025,-9.49023l2.74292,-8.21856z" fill="#252525" stroke="#000000" stroke-width="0"/><path d="M190.56782,157.57194c-2.09757,0.74638 -3.71756,4.09113 -3.51819,3.49375c0.13919,-0.41706 0.90565,-5.47191 2.28961,-6.57891c2.48918,-1.99104 6.4841,-0.17808 8.92676,0.67953c3.80077,1.33444 18.36187,6.52009 17.97234,7.68726c-0.09239,0.27684 -1.84993,8.27392 -3.2583,8.13455c-1.71136,-0.16934 0.12571,-4.79116 -2.23775,-6.71079c-3.89213,-3.16123 -12.08303,-4.25099 -13.88694,-4.88433c-1.85546,-0.65145 -4.28683,-2.53295 -6.28753,-1.82106z" fill="#141414" stroke="none" stroke-width="0"/><path d="M216.45014,162.86812l-2.74294,8.21857l-27.03025,-9.49023l2.74292,-8.21856z" fill="none" stroke="#000000" stroke-width="3.5"/><path d="M216.45014,162.86812l-2.74294,8.21857l-27.03025,-9.49023l2.74292,-8.21856z" fill="none" stroke="#000000" stroke-width="3.5"/></g></g><g><path d="M207.54693,192.02645l-3.15034,9.43928l-27.91752,-9.80176l3.15033,-9.43927z" fill="#252525" stroke="#000000" stroke-width="0"/><path d="M207.54693,192.02645l-3.15034,9.43928l-27.91752,-9.80176l3.15033,-9.43927z" fill="#252525" stroke="#000000" stroke-width="0"/><path d="M176.88683,191.04724c0.15987,-0.47899 1.13551,-6.25119 2.61996,-7.5595c2.66993,-2.35311 6.78179,-0.43816 9.30462,0.4476c3.92552,1.37823 18.96208,6.74172 18.51467,8.08224c-0.10611,0.31795 -2.21908,9.46972 -3.68597,9.36256c-1.78245,-0.13021 0.29697,-5.44923 -2.1064,-7.54474c-3.95784,-3.45089 -12.47938,-4.39145 -14.34248,-5.04558c-1.91636,-0.67284 -4.39201,-2.72255 -6.50727,-1.8408c-2.21768,0.92445 -4.02612,4.78433 -3.79714,4.09822z" fill="#141414" stroke="none" stroke-width="0"/><path d="M207.54693,192.02645l-3.15034,9.43928l-27.91752,-9.80176l3.15033,-9.43927z" fill="none" stroke="#000000" stroke-width="3.5"/><path d="M207.54693,192.02645l-3.15034,9.43928l-27.91752,-9.80176l3.15033,-9.43927z" fill="none" stroke="#000000" stroke-width="3.5"/></g></g><g><path d="M210.13153,99.07042c3.70201,0 10.99279,0.74071 13.4051,3.46013c2.37694,2.67953 -0.09728,7.30767 -0.09728,11.37363c0,8.19247 -10.09131,86.67943 -17.44102,86.67943c-2.79894,0 0.39592,-15.89526 -3.62569,-20.19233c-4.1815,-4.4679 -14.26296,1.27712 -18.68274,-0.92581c-2.49153,-1.24184 -1.45918,-6.65285 -1.45918,-8.48152c0,-8.19247 20.55111,-71.91356 27.90081,-71.91356z" fill="#003aff" stroke="#000000" stroke-width="0" stroke-linecap="butt"/><path d="M192.06446,180.50639c2.60716,0 8.23625,-3.42692 12.95089,-14.97056c9.14289,-22.38618 18.14893,-59.53903 18.14893,-50.9883c0,12.95998 -9.62768,87.25029 -17.29081,87.25029c-3.3033,0 1.35683,-13.9549 -3.18687,-19.43648c-3.90086,-4.70605 -12.48748,-0.8401 -17.37473,-3.42402c-2.62611,-1.38844 -3.53427,-8.53813 -3.53427,-11.11532c0,-12.95998 2.62375,12.68439 10.28686,12.68439z" fill="#0029ae" stroke="none" stroke-width="3.5" stroke-linecap="butt"/><path d="M210.13152,98.4362c3.45003,0 11.4112,-0.11037 13.77563,2.28991c2.6726,2.71311 -0.46782,8.197 -0.46782,12.54385c0,8.19247 -9.39712,86.67943 -16.74683,86.67943c-3.6877,0 -0.69691,-13.15502 -5.90533,-19.56029c-3.17227,-3.90123 -11.71788,0.68051 -16.08582,-0.72727c-2.75364,-0.88749 -2.47066,-7.73377 -2.47066,-9.31209c0,-8.19247 20.55111,-71.91356 27.90081,-71.91356z" fill="none" stroke="#000000" stroke-width="3.5" stroke-linecap="butt"/><path d="M192.55127,132.59333l25.22537,22.9865" fill="none" stroke="#000000" stroke-width="3.5" stroke-linecap="round"/></g></g><g><g stroke-linecap="butt"><path d="M220.23418,175.66423l0.14844,-57.15562l30.84837,3.40894l-0.14845,57.15562z" fill="#252525" stroke="#000000" stroke-width="0"/><path d="M220.23418,175.66423l0.14844,-57.15562l30.84837,3.40894l-0.14845,57.15562z" fill="#252525" stroke="#000000" stroke-width="0"/><path d="M220.23418,175.66423l0.14844,-57.15562l30.84837,3.40894l-0.14845,57.15562z" fill="none" stroke="#000000" stroke-width="3.5"/><path d="M222.89803,152.35282c1.77823,9.00332 4.9201,2.95017 7.03765,3.18421c2.0587,0.22749 10.76881,12.31138 15.85162,1.6976c3.08649,-6.44505 2.87075,-39.26422 4.66975,-36.37851c1.48051,2.37484 0.41011,55.89518 0.40511,57.82039c-0.02108,8.11703 -16.66519,6.73423 -21.00282,6.25484c-2.7877,-0.30809 -7.49344,1.72707 -9.31112,-16.31345c-1.01062,-10.0304 0.01589,-43.06822 0.02342,-45.96864c0.01079,-4.15442 0.46205,20.26428 2.32638,29.70356z" fill="#141414" stroke="none" stroke-width="0"/><path d="M220.23418,175.66423l0.14844,-57.15562l30.84837,3.40894l-0.14845,57.15562z" fill="none" stroke="#000000" stroke-width="3.5"/></g><g stroke-linecap="butt"><path d="M220.86795,156.37671l0.19479,-9.68113l40.47872,0.57741l-0.19479,9.68113z" fill="#252525" stroke="#000000" stroke-width="0"/><path d="M220.86795,156.37671l0.19479,-9.68113l40.47872,0.57741l-0.19479,9.68113z" fill="#252525" stroke="#000000" stroke-width="0"/><path d="M220.86795,156.37671l0.19479,-9.68113l40.47872,0.57741l-0.19479,9.68113z" fill="none" stroke="#000000" stroke-width="3.5"/><path d="M224.36342,152.42817c2.33336,1.525 6.45607,0.49971 9.23469,0.53935c2.7014,0.03854 14.13065,2.08533 20.80023,0.28755c4.05005,-1.09168 3.76695,-6.65066 6.12758,-6.16187c1.9427,0.40226 0.53814,9.46763 0.53158,9.79373c-0.02766,1.37488 -21.86779,1.14066 -27.55956,1.05946c-3.65796,-0.05219 -9.83276,0.29253 -12.2179,-2.76321c-1.32611,-1.69897 0.02086,-7.29498 0.03074,-7.78626c0.01416,-0.70368 0.60629,3.4324 3.05265,5.03125z" fill="#141414" stroke="none" stroke-width="0"/><path d="M220.86795,156.37671l0.19479,-9.68113l40.47872,0.57741l-0.19479,9.68113z" fill="none" stroke="#000000" stroke-width="3.5"/></g><g stroke-linecap="butt"><path d="M218.69007,136.639l0.19479,-9.68113l40.47872,0.57741l-0.19479,9.68113z" fill="#252525" stroke="#000000" stroke-width="0"/><path d="M218.69007,136.639l0.19479,-9.68113l40.47872,0.57741l-0.19479,9.68113z" fill="#252525" stroke="#000000" stroke-width="0"/><path d="M218.69007,136.639l0.19479,-9.68113l40.47872,0.57741l-0.19479,9.68113z" fill="none" stroke="#000000" stroke-width="3.5"/><path d="M222.18553,132.69047c2.33336,1.525 6.45607,0.49971 9.23469,0.53935c2.7014,0.03853 14.13065,2.08533 20.80023,0.28754c4.05005,-1.09167 3.76695,-6.65065 6.12758,-6.16186c1.9427,0.40226 0.53814,9.46764 0.53158,9.79373c-0.02766,1.37488 -21.86779,1.14066 -27.55956,1.05946c-3.65797,-0.05218 -9.83276,0.29254 -12.2179,-2.7632c-1.32611,-1.69897 0.02086,-7.29498 0.03074,-7.78626c0.01416,-0.70368 0.60629,3.4324 3.05264,5.03125z" fill="#141414" stroke="none" stroke-width="0"/><path d="M218.69007,136.639l0.19479,-9.68113l40.47872,0.57741l-0.19479,9.68113z" fill="none" stroke="#000000" stroke-width="3.5"/></g><g><path d="M222.72137,98.95066c0,-28.25857 13.63129,-12.83333 20.16666,-12.83333c6.53537,0 16.16667,-23.09191 16.16667,5.16666c0,2.53169 3.12421,38.34547 -1.6604,47.1778c-2.12852,3.92923 -1.5913,-12.59788 -6.43781,-16.33039c-1.47198,-1.13363 -2.38462,4.57259 -5.13097,6.84841c-2.75093,2.27961 -7.33502,1.12961 -8.13729,0.93168c-3.19002,-0.78702 0.64043,10.7205 1.37494,15.26961c1.06568,6.60009 0.87621,17.11725 4.82168,22.27212c3.10428,4.05584 5.35505,-5.09592 9.26838,-2.48878c2.95969,1.97181 2.10649,9.35034 4.95913,12.65331c2.83873,3.28688 3.07764,-18.94785 5.87164,-17.0507c2.72594,1.85094 8.04443,27.85949 7.88487,28.98964c-2.1702,15.37128 -25.3886,15.22729 -28.98085,15.22729c-3.58121,0 -31.45752,3.55013 -33.62747,-11.75224c-1.79001,-12.62305 13.4608,-81.30746 13.4608,-94.0811z" fill="#003aff" stroke="#000000" stroke-width="0" stroke-linecap="butt"/><path d="M209.05031,192.08365c0,-2.76324 7.19008,-65.47718 10.23056,-64.0507c0.35742,0.16769 -1.00715,-26.86033 8.02929,-33.7312c10.1787,-7.7394 30.86619,4.65341 30.80485,6.47236c-0.12749,3.78071 -24.50154,-4.52117 -30.02907,5.81833c-12.36663,23.13235 -11.50829,72.48187 -8.88648,83.46119c2.16007,9.04567 15.76822,8.78001 19.10085,8.78001c13.08932,0 21.08768,-34.71366 26.47458,-35.5406c1.77281,-0.27214 7.27542,26.97865 7.27542,28.7906c0,7.31777 -14.10303,13.25 -31.5,13.25c-17.39697,0 -31.5,-5.93223 -31.5,-13.25z" fill="#0029ae" stroke="none" stroke-width="0" stroke-linecap="butt"/><path d="M222.72135,98.95062c0,-28.25857 13.6313,-12.83333 20.16667,-12.83333c6.53537,0 16.16667,-23.0919 16.16667,5.16667c0,2.53169 3.12422,38.34547 -1.6604,47.1778c-2.12853,3.92923 -1.59131,-12.59788 -6.43781,-16.33039c-1.47198,-1.13363 -2.38461,4.57259 -5.13096,6.84841c-2.75093,2.27962 -7.33503,1.12962 -8.13729,0.93169c-3.19002,-0.78702 0.64042,10.7205 1.37494,15.26961c1.06568,6.6001 0.87621,17.11726 4.82168,22.27213c3.10429,4.05585 5.35504,-5.09593 9.26838,-2.48878c2.95969,1.9718 2.1065,9.35033 4.95913,12.6533c2.83874,3.28688 3.07764,-18.94784 5.87164,-17.05069c2.72594,1.85094 8.04443,27.85949 7.88487,28.98964c-2.1702,15.37128 -25.3886,15.22729 -28.98085,15.22729c-3.58121,0 -31.45752,3.55014 -33.62747,-11.75224c-1.79001,-12.62304 13.4608,-81.30745 13.4608,-94.08109z" fill="none" stroke="#000000" stroke-width="3.5" stroke-linecap="butt"/><path d="M215.2344,199.47347l8,-25l27.66667,9.66667l13,-5.33333l3,17" fill="none" stroke="#000000" stroke-width="3.5" stroke-linecap="round"/><path d="M238.02489,150.87625l-21.75,-6.75" fill="none" stroke="#000000" stroke-width="3.5" stroke-linecap="round"/></g></g><g><path d="M207.6075,66.74473c0,-20.06635 15.74466,-36.33334 35.16667,-36.33334c7.97074,0 4.32212,11.07312 10.22003,15.69091c0.6229,0.4877 5.99241,-2.78797 7.70382,-0.29533c3.60885,5.25622 4.73798,17.7799 7.5925,16.26208c3.89604,-2.07164 2.84051,-23.07975 5.12018,-21.92788c6.0327,3.04819 4.53013,19.97934 4.53013,26.60355c0,20.06635 -15.74465,36.33334 -35.16666,36.33334c-19.42201,0 -35.16667,-16.26699 -35.16667,-36.33334z" fill="#003aff" stroke="#000000" stroke-width="0" stroke-linecap="butt"/><path d="M241.25723,83.5454c14.08326,0 35.5,-16.98884 35.5,-7.6c0,9.38884 -19.81674,27.2 -33.9,27.2c-14.08326,0 -35.5,-20.01116 -35.5,-29.4c0,-9.38884 19.81674,9.8 33.9,9.8z" fill="#0029ae" stroke="none" stroke-width="0" stroke-linecap="butt"/><path d="M207.6075,66.7447c0,-20.06634 15.74466,-36.33333 35.16667,-36.33333c7.97075,0 4.32213,11.07312 10.22004,15.69091c0.62289,0.4877 5.99241,-2.78797 7.70382,-0.29533c3.60885,5.25621 4.73798,17.77991 7.5925,16.26208c3.89605,-2.07163 2.84051,-23.07974 5.12018,-21.92787c6.0327,3.04819 4.53013,19.97934 4.53013,26.60355c0,20.06634 -15.74466,36.33333 -35.16667,36.33333c-19.42202,0 -35.16667,-16.26698 -35.16667,-36.33333z" fill="none" stroke="#000000" stroke-width="3.5" stroke-linecap="butt"/><path d="M212.34085,69.87802c0,-18.77768 13.36247,-34.00001 29.8459,-34.00001c6.76476,0 5.00151,7.69533 10.00706,12.01657c0.52865,0.45638 4.75242,-3.27559 6.20489,-0.94303c3.06283,4.91866 7.35445,17.97141 9.77708,16.55106c3.30657,-1.9386 2.74407,-23.59756 4.67882,-22.51966c5.11994,2.85244 -0.82196,22.69627 -0.82196,28.89507c0,18.77768 -13.36247,34 -29.8459,34c-16.48343,0 -29.8459,-15.22232 -29.8459,-34z" fill="#ffffff" stroke="#000000" stroke-width="0" stroke-linecap="butt"/><path d="M215.15724,53.63372c0,-5.74376 11.93633,-17.6 23.7,-17.6c1.74131,0 6.28497,-1.52812 7.73925,-0.02497c2.71535,2.8066 2.11913,9.71674 4.91612,11.3606c2.80099,1.64621 4.64698,-1.42294 6.84704,-1.1555c2.37523,0.28873 4.99758,3.90355 4.99758,5.61987c0,0.72366 2.81855,10.12987 4.72159,9.02031c2.30613,-1.34457 2.38007,-11.90102 4.1001,-15.81069c1.75178,-3.98185 5.1141,-1.29282 3.49064,0.14343c-1.82959,1.61862 -0.72252,11.32065 -1.515,18.46978c-0.31396,2.83231 0.76003,4.92671 -1.32748,6.47156c-2.94142,2.17679 -3.94353,-3.8015 -7.9159,-7.60566c-9.06952,-8.68545 -24.02657,-23.08872 -26.65395,-23.08872c-0.38445,0 -3.16482,1.58584 -3.54095,1.55825c-11.13298,-0.81669 -19.55905,18.1978 -19.55905,12.64175z" fill="#c1c1c1" stroke="none" stroke-width="0" stroke-linecap="butt"/><path d="M243.03722,59.15052c12.31595,0 22.3,5.05918 22.3,11.3c0,6.24082 -9.98405,11.3 -22.3,11.3c-12.31595,0 -22.3,-5.05918 -22.3,-11.3c0,-6.24082 9.98405,-11.3 22.3,-11.3z" fill="#c1c1c1" stroke="none" stroke-width="0" stroke-linecap="butt"/><path d="M224.66223,43.52553c0,-2.62428 -9.45922,21.83909 -5.49868,38.24538c2.81167,11.64718 18.4629,16.62962 21.87368,16.62962c8.21524,0 16.125,-9.11231 16.125,-4.625c0,4.48731 -6.65976,8.125 -14.875,8.125c-4.41455,0 -21.17402,-2.56043 -24.63299,-17.65443c-1.43215,-6.24949 -4.36607,-14.67558 -2.35429,-22.74896c2.1715,-8.71437 9.36227,-16.89398 9.36227,-17.97162z" fill="#c1c1c1" stroke="none" stroke-width="0" stroke-linecap="butt"/><path d="M242.78673,35.07804c6.76476,0 5.00151,7.69534 10.00706,12.01657c0.52865,0.45638 4.75242,-3.2756 6.20489,-0.94304c3.06283,4.91866 7.35445,17.97141 9.77708,16.55106c3.30657,-1.93859 2.74406,-23.59756 4.67882,-22.51966c5.11995,2.85243 -0.82195,22.69627 -0.82195,28.89507c0,18.77768 -13.36246,34 -29.8459,34c-16.48343,0 -29.8459,-15.22232 -29.8459,-34c0,-18.77768 13.36246,-34 29.8459,-34z" fill="none" stroke="#000000" stroke-width="3.5" stroke-linecap="butt"/><path d="M259.49637,61.32739c4.63919,0 8.4,5.14873 8.4,11.5c0,2.97118 -2.62303,16.07919 -3.974,18.12003c-1.53691,2.32171 1.24294,3.97997 -1.226,3.97997c-2.10416,0 -7.22761,7.74082 -8.70142,5.99066c-1.77561,-2.10855 -2.89858,-24.62007 -2.89858,-28.09066c0,-6.35127 3.76081,-11.5 8.4,-11.5z" fill="#000000" stroke="#000000" stroke-width="3.5" stroke-linecap="butt"/><path d="M254.93541,92.86039l-5.4,8.2" fill="none" stroke="#000000" stroke-width="3.5" stroke-linecap="round"/><path d="M228.83722,62.15052c5.68853,0 10.3,4.52192 10.3,10.1c0,5.57808 -4.61147,10.1 -10.3,10.1c-5.68853,0 -10.3,-4.52192 -10.3,-10.1c0,-5.57808 4.61147,-10.1 10.3,-10.1z" fill="#ffffff" stroke="#000000" stroke-width="3.5" stroke-linecap="butt"/><path d="M231.53722,99.15052l-1,-13.2" fill="none" stroke="#000000" stroke-width="3.5" stroke-linecap="round"/><path d="M238.13722,85.55052v5.6" fill="none" stroke="#000000" stroke-width="3.5" stroke-linecap="round"/><path d="M247.13722,86.15052l-1,13.4" fill="none" stroke="#000000" stroke-width="3.5" stroke-linecap="round"/></g><g><g stroke-linecap="butt"><path d="M170.79237,204.23607c2.49453,-9.34866 11.42305,-15.08443 19.94239,-12.81118c8.51934,2.27323 13.40342,11.69466 10.9089,21.04332c-2.49453,9.34867 -11.42306,15.08442 -19.9424,12.81117c-8.51935,-2.27323 -13.40342,-11.69466 -10.90889,-21.04331z" fill="#ffffff" stroke="#000000" stroke-width="0"/><path d="M170.41432,210.96454c1.4082,-5.27747 2.34735,-20.43072 9.8866,-18.41899c1.26488,0.3375 -3.20167,5.58737 -4.03077,11.96395c-0.78644,6.04853 2.05573,13.20577 3.36565,14.73024c5.54031,6.44781 19.02839,-4.54234 18.08055,-0.99013c-1.40821,5.27747 -8.66154,7.92489 -16.20078,5.91316c-7.53924,-2.01173 -12.50943,-7.92078 -11.10123,-13.19825z" fill="#adadad" stroke="none" stroke-width="3.5"/><path d="M190.46625,192.29691c8.51935,2.27323 13.40342,11.69466 10.9089,21.04331c-2.49453,9.34867 -11.42303,15.08443 -19.94239,12.81118c-8.51935,-2.27323 -13.40342,-11.69466 -10.90889,-21.04332c2.49453,-9.34867 11.42303,-15.08443 19.94239,-12.81118z" fill="none" stroke="#000000" stroke-width="3.5"/></g><g data-paper-data="{&quot;index&quot;:null}"><path d="M193.57036,233.65872c3.73729,6.31132 4.26324,12.91024 1.17472,14.73913c-3.08852,1.82889 -8.62191,-1.80482 -12.35921,-8.11613c-1.99057,-3.36155 -2.09351,-17.05328 1.88206,-21.44797c3.48858,-3.85635 10.89769,1.40116 12.3412,0.54639c3.08852,-1.82889 -6.77607,7.96729 -3.03878,14.27859z" fill="#ffffff" stroke="#000000" stroke-width="0" stroke-linecap="butt"/><path d="M193.37523,230.48362c0.21224,4.55388 2.80735,8.11591 2.51199,11.92775c-0.31578,4.07515 -2.40843,5.675 -2.40843,5.675c-1.74568,1.03372 -4.41782,-0.25101 -5.9684,-2.86954c-1.55058,-2.61853 1.68447,-26.4484 3.43017,-27.48212c0.6406,-0.37934 4.89383,-0.51784 4.61887,3.23592c-0.13075,1.78503 -2.333,6.32003 -2.18418,9.51299z" fill="#adadad" stroke="none" stroke-width="3.5" stroke-linecap="butt"/><path d="M193.7879,233.40502c3.73729,6.31131 4.26323,12.91024 1.17473,14.73912c-3.08851,1.82888 -8.62192,-1.80483 -12.35921,-8.11613c-1.99057,-3.36155 -2.0935,-17.05328 1.88207,-21.44797c3.48858,-3.85635 10.89769,1.40116 12.3412,0.54638c3.08851,-1.82888 -6.77606,7.9673 -3.03877,14.27859z" fill="none" stroke="#000000" stroke-width="3.5" stroke-linecap="butt"/><path d="M181.677,232.36317l10.61526,-0.37473" fill="none" stroke="#000000" stroke-width="3.5" stroke-linecap="round"/></g><g data-paper-data="{&quot;index&quot;:null}"><path d="M165.71397,225.74201c-0.16542,7.33299 -3.20857,13.21192 -6.79705,13.13096c-3.58848,-0.08096 -6.36341,-6.09112 -6.19798,-13.4241c0.08811,-3.90571 7.24096,-15.58094 12.93912,-17.20862c5.00016,-1.42828 8.50843,6.95195 10.1856,6.98979c3.58848,0.08096 -9.96427,3.179 -10.12969,10.51197z" fill="#ffffff" stroke="#000000" stroke-width="0" stroke-linecap="butt"/><path d="M167.22736,222.94397c-2.22796,3.97732 -1.90899,8.37288 -4.1754,11.45197c-2.42296,3.29178 -5.04508,3.54305 -5.04508,3.54305c-2.02827,-0.04576 -3.61688,-2.54921 -3.54825,-5.59161c0.06863,-3.04241 15.41566,-21.55719 17.44394,-21.51144c0.74431,0.01679 4.42746,2.14836 2.20909,5.18894c-1.0549,1.4459 -5.32217,4.13038 -6.8843,6.9191z" fill="#adadad" stroke="none" stroke-width="3.5" stroke-linecap="butt"/><path d="M166.03276,225.64173c-0.16541,7.33298 -3.20856,13.21191 -6.79703,13.13096c-3.58847,-0.08095 -6.36341,-6.09113 -6.19799,-13.42411c0.08811,-3.90571 7.24097,-15.58094 12.93912,-17.20862c5.00016,-1.42828 8.50842,6.95195 10.1856,6.98979c3.58847,0.08095 -9.96428,3.179 -10.12969,10.51198z" fill="none" stroke="#000000" stroke-width="3.5" stroke-linecap="butt"/><path d="M156.30464,218.35319l9.20782,5.29532" fill="none" stroke="#000000" stroke-width="3.5" stroke-linecap="round"/></g><g data-paper-data="{&quot;index&quot;:null}"><path d="M177.7367,231.90312c1.82943,7.10304 0.49465,13.58693 -2.98131,14.48218c-3.47596,0.89525 -7.77681,-4.13714 -9.60624,-11.24018c-0.97439,-3.78323 2.74416,-16.96075 7.78737,-20.07273c4.42543,-2.73076 10.07488,4.38401 11.69948,3.96559c3.47596,-0.89525 -8.72874,5.76211 -6.89931,12.86513z" fill="#ffffff" stroke="#000000" stroke-width="0" stroke-linecap="butt"/><path d="M178.43457,228.79952c-1.06585,4.43248 0.43323,8.5768 -0.91322,12.15513c-1.43945,3.82551 -3.89518,4.77847 -3.89518,4.77847c-1.96467,0.50601 -4.17266,-1.4728 -4.93168,-4.41981c-0.75902,-2.947 8.99181,-24.92995 10.95649,-25.43597c0.72097,-0.18569 4.84415,0.86715 3.5335,4.39539c-0.62326,1.67779 -4.00259,5.41895 -4.74991,8.52679z" fill="#adadad" stroke="none" stroke-width="3.5" stroke-linecap="butt"/><path d="M178.01635,231.72014c1.82943,7.10304 0.49465,13.58693 -2.9813,14.48218c-3.47595,0.89525 -7.77682,-4.13715 -9.60625,-11.24018c-0.97439,-3.78323 2.74417,-16.96075 7.78738,-20.07272c4.42543,-2.73076 10.07488,4.38401 11.69947,3.96559c3.47595,-0.89525 -8.72873,5.7621 -6.89931,12.86514z" fill="none" stroke="#000000" stroke-width="3.5" stroke-linecap="butt"/><path d="M176.97498,229.94271l-10.2988,-2.59978" fill="none" stroke="#000000" stroke-width="3.5" stroke-linecap="round"/></g><g><path d="M200.35823,230.43519c1.89102,-7.08688 -10.25544,-13.84993 -6.78737,-12.92454c1.62089,0.4325 7.3319,-6.63296 11.73345,-3.86388c5.01601,3.15564 8.62004,16.36493 7.61284,20.13957c-1.89102,7.08689 -6.23539,12.08176 -9.70345,11.15637c-3.46806,-0.92539 -4.7465,-7.42061 -2.85548,-14.50752z" fill="#ffffff" stroke="#000000" stroke-width="0" stroke-linecap="butt"/><path d="M195.01162,218.75796c-1.27998,-3.53949 2.85219,-4.55649 3.57152,-4.36455c0.96178,0.25663 3.75308,5.69976 6.25435,11.52535c2.59654,6.04749 4.88055,12.50714 4.48093,14.00476c-0.78457,2.9403 -3.00965,4.89987 -4.96985,4.37683c0,0 -2.44736,-0.97423 -3.85355,-4.81209c-1.31534,-3.58989 0.21965,-7.72105 -0.80768,-12.16261c-0.72031,-3.11422 -4.06705,-6.88456 -4.6757,-8.5677z" fill="#adadad" stroke="none" stroke-width="3.5" stroke-linecap="butt"/><path d="M193.2928,217.32523c1.62089,0.4325 7.3319,-6.63296 11.73346,-3.86388c5.01601,3.15564 8.62004,16.36493 7.61284,20.13956c-1.89102,7.08688 -6.2354,12.08177 -9.70345,11.15638c-3.46805,-0.92539 -4.74649,-7.42064 -2.85547,-14.50752c1.89102,-7.08688 -10.25543,-13.84993 -6.78738,-12.92454z" fill="none" stroke="#000000" stroke-width="3.5" stroke-linecap="butt"/><path d="M211.45791,225.97119l-10.32099,2.51029" fill="none" stroke="#000000" stroke-width="3.5" stroke-linecap="round"/></g></g></g></g></svg>