<svg version="1.1" xmlns="http://www.w3.org/2000/svg" xmlns:xlink="http://www.w3.org/1999/xlink" width="392.65676" height="760.24322" viewBox="0,0,392.65676,760.24322"><g transform="translate(105.08518,24.91884)"><g data-paper-data="{&quot;isPaintingLayer&quot;:true}" fill-rule="nonzero" stroke-width="7.5" stroke-linejoin="miter" stroke-miterlimit="10" stroke-dasharray="" stroke-dashoffset="0" style="mix-blend-mode: normal"><g data-paper-data="{&quot;index&quot;:null}" stroke-linecap="butt"><g><path d="M170.10049,692.15622c-0.77331,8.02581 4.8266,19.99131 -5.29181,24.61781c-11.73685,5.36651 -40.43148,2.6566 -58.43544,0.92186c-16.80281,-1.619 -38.16017,-4.81839 -48.60181,-11.58166c-10.39161,-6.73092 -9.90979,-17.00889 -9.07663,-25.65581c1.67032,-17.33544 30.20197,-28.76993 63.7272,-25.53967c33.52521,3.23025 59.34874,19.90203 57.67842,37.23746z" fill="#444444" stroke="#000000"/><path d="M169.72105,708.89601c-0.89367,9.275 -29.16932,14.13923 -63.15538,10.86457c-33.98605,-3.27466 -60.81275,-13.44816 -59.91908,-22.72316c0.89367,-9.275 -0.98374,-42.06568 33.00234,-38.79102c5.78947,0.55783 -8.45835,7.19334 -17.2984,16.25831c-8.10557,8.31177 -10.95831,18.99128 -4.65114,21.99513c14.07236,6.70213 50.74769,14.03638 76.01755,14.70466c23.5631,0.62314 36.29454,-5.3225 36.00413,-2.3085z" fill="#282828" stroke="none"/><path d="M168.73971,692.8606c-0.77331,8.02581 4.82664,19.99132 -5.29174,24.61781c-11.73685,5.36651 -40.43148,2.65657 -58.43544,0.92184c-16.80281,-1.619 -38.16013,-4.81836 -48.60176,-11.58166c-10.39161,-6.73092 -9.90979,-17.00886 -9.07664,-25.65576c1.67032,-17.33541 30.20195,-28.76993 63.72718,-25.53967c33.52525,3.23026 59.34876,19.90203 57.67844,37.23747z" fill="none" stroke="#000000"/></g><g><path d="M196.6697,701.9456c-0.77331,8.02581 1.01531,19.62409 -3.64388,24.77659c-5.40444,5.97666 -17.75648,4.8414 -25.50469,4.09484c-7.2313,-0.69676 -16.36059,-2.71796 -20.54117,-8.87796c-4.16057,-6.13054 -3.39177,-16.38083 -2.55861,-25.02775c1.67032,-17.33544 14.72057,-30.26161 29.14855,-28.87143c14.42798,1.39018 24.7701,16.57027 23.09978,33.90571z" fill="#444444" stroke="#000000"/><path d="M195.59411,718.61835c-0.89367,9.275 -13.4751,15.65141 -28.10139,14.24213c-14.62631,-1.40929 -25.75881,-10.07061 -24.86513,-19.34561c0.89367,-9.275 1.85906,-41.79179 16.48538,-40.38251c2.49157,0.24007 -4.07567,7.61567 -8.41936,17.11388c-3.98282,8.70901 -5.80621,19.48768 -3.22215,22.13282c5.76547,5.90173 21.34245,11.20307 32.31371,10.49364c10.23024,-0.66152 16.09939,-7.26837 15.80898,-4.25437z" fill="#282828" stroke="none"/><path d="M196.03866,702.72029c-0.77331,8.02581 1.01533,19.62411 -3.64385,24.77659c-5.40444,5.97666 -17.7565,4.84135 -25.50471,4.09479c-7.2313,-0.69676 -16.36057,-2.71791 -20.54115,-8.87793c-4.16057,-6.13054 -3.39177,-16.38083 -2.55861,-25.02773c1.67032,-17.33541 14.72057,-30.26158 29.14855,-28.87141c14.42798,1.39018 24.7701,16.57027 23.09979,33.90569z" fill="none" stroke="#000000"/></g><g><path d="M120.30546,697.29868c-0.77331,8.02581 1.01531,19.62411 -3.64388,24.77659c-5.40444,5.97666 -17.75648,4.8414 -25.50469,4.09484c-7.2313,-0.69676 -16.36061,-2.71796 -20.54119,-8.87796c-4.16057,-6.13054 -3.39175,-16.38083 -2.55859,-25.02775c1.67032,-17.33544 14.72057,-30.26158 29.14855,-28.87141c14.42795,1.39018 24.7701,16.57027 23.09979,33.90569z" fill="#444444" stroke="#000000"/><path d="M119.22983,713.97142c-0.89367,9.275 -13.4751,15.65141 -28.10141,14.24212c-14.62631,-1.40929 -25.75881,-10.07061 -24.86513,-19.34561c0.89367,-9.275 1.85908,-41.79177 16.48538,-40.38248c2.49157,0.24007 -4.07566,7.61562 -8.41936,17.11383c-3.98282,8.70901 -5.80624,19.48772 -3.22218,22.13284c5.76547,5.90173 21.34248,11.20307 32.31373,10.49364c10.23022,-0.66152 16.09941,-7.26836 15.809,-4.25436z" fill="#282828" stroke="none"/><path d="M119.6744,698.07339c-0.77331,8.02581 1.01533,19.62409 -3.64383,24.77659c-5.40444,5.97666 -17.7565,4.84138 -25.50471,4.09481c-7.2313,-0.69676 -16.36057,-2.71791 -20.54117,-8.87794c-4.16057,-6.13054 -3.39177,-16.38083 -2.55861,-25.02773c1.67032,-17.33541 14.72057,-30.26161 29.14855,-28.87143c14.42798,1.39018 24.77013,16.57028 23.09981,33.90571z" fill="none" stroke="#000000"/></g><g><path d="M164.56623,697.49684c-0.77331,8.02581 1.01531,19.62409 -3.64388,24.77659c-5.40444,5.97666 -17.75648,4.84138 -25.50471,4.09481c-7.2313,-0.69676 -16.36059,-2.71793 -20.54117,-8.87794c-4.16057,-6.13054 -3.39177,-16.38083 -2.55861,-25.02773c1.67032,-17.33544 14.72057,-30.26161 29.14855,-28.87143c14.42795,1.39018 24.7701,16.57027 23.09978,33.90571z" fill="#444444" stroke="#000000"/><path d="M163.49061,714.16956c-0.89367,9.275 -13.4751,15.65141 -28.10139,14.24213c-14.62631,-1.40929 -25.75878,-10.0706 -24.86511,-19.34561c0.89367,-9.275 1.85906,-41.79179 16.48535,-40.38251c2.49157,0.24007 -4.07566,7.61565 -8.41936,17.11385c-3.98282,8.70901 -5.80626,19.4877 -3.22218,22.13282c5.76547,5.90173 21.34248,11.20307 32.31373,10.49364c10.23022,-0.66152 16.09941,-7.26834 15.809,-4.25436z" fill="#282828" stroke="none"/><path d="M163.93516,698.2715c-0.77331,8.02581 1.01533,19.62411 -3.64383,24.77662c-5.40444,5.97666 -17.75648,4.84135 -25.50469,4.09479c-7.2313,-0.69676 -16.36059,-2.71789 -20.54118,-8.87791c-4.16057,-6.13054 -3.39174,-16.38085 -2.55859,-25.02777c1.67032,-17.33541 14.72057,-30.26158 29.14855,-28.87141c14.42798,1.39018 24.77011,16.57025 23.09979,33.90569z" fill="none" stroke="#000000"/></g></g><g stroke-linecap="butt"><g><path d="M-73.38562,664.01744c1.67032,-17.33544 30.202,-28.76993 63.72718,-25.53967c33.52525,3.23026 59.34876,19.90203 57.67844,37.23747c-0.83316,8.64692 -2.32258,18.82778 -13.8082,23.45076c-11.54087,4.64519 -33.11619,3.70789 -49.91901,2.08889c-18.00396,-1.73473 -46.68809,-4.55341 -57.18439,-12.06218c-9.04888,-6.47332 -1.26741,-17.14946 -0.4941,-25.17529z" fill="#444444" stroke="#000000"/><path d="M-76.20941,680.52169c0.29041,-3.01397 11.65243,5.25315 34.901,9.14042c24.93257,4.16887 62.33354,3.97209 77.42667,0.08015c6.76467,-1.74436 6.0035,-12.77206 -0.36597,-22.47855c-6.94662,-10.58606 -19.66538,-19.8199 -13.87591,-19.26207c33.98605,3.27466 25.88237,35.10363 24.9887,44.37863c-0.89367,9.275 -29.16928,14.13923 -63.15535,10.86457c-33.98605,-3.27466 -60.81277,-13.44816 -59.9191,-22.72316z" fill="#282828" stroke="none"/><path d="M-72.18446,664.96867c1.67032,-17.33544 30.20195,-28.76993 63.7272,-25.53967c33.52525,3.23026 59.34874,19.90205 57.67842,37.23746c-0.83316,8.64692 -2.32261,18.82777 -13.80822,23.45076c-11.54088,4.64521 -33.11615,3.70789 -49.91894,2.0889c-18.00396,-1.73473 -46.68809,-4.55341 -57.18439,-12.06215c-9.04888,-6.47332 -1.26736,-17.14946 -0.49405,-25.17529z" fill="none" stroke="#000000"/></g><g><path d="M-101.33518,668.55375c1.67032,-17.33544 14.72059,-30.26158 29.14855,-28.87141c14.42798,1.39018 24.77011,16.57025 23.09979,33.90569c-0.83316,8.64692 -2.0356,18.85543 -7.29017,24.07879c-5.27982,5.24846 -14.6271,5.48939 -21.85837,4.79264c-7.74821,-0.74656 -20.0898,-1.99059 -24.25367,-8.8892c-3.58969,-5.94731 0.38052,-16.9907 1.15384,-25.01651z" fill="#444444" stroke="#000000"/><path d="M-103.46278,685.12511c0.29041,-3.01397 4.79013,4.59195 14.70584,7.19456c10.63396,2.79116 26.93657,0.56151 33.72282,-4.13082c3.04156,-2.10309 3.30972,-13.03161 1.06302,-22.34086c-2.45026,-10.15283 -7.48846,-18.64662 -4.99688,-18.40655c14.62631,1.40929 9.36541,33.51217 8.47173,42.7872c-0.89367,9.275 -13.4751,15.65141 -28.10141,14.24212c-14.62631,-1.40929 -25.75881,-10.07061 -24.86513,-19.34561z" fill="#282828" stroke="none"/><path d="M-100.86371,669.4347c1.67032,-17.33544 14.72057,-30.26158 29.14855,-28.87141c14.42798,1.39018 24.7701,16.57027 23.09979,33.90569c-0.83316,8.64692 -2.0356,18.85543 -7.29017,24.07879c-5.27983,5.24849 -14.62705,5.48937 -21.85835,4.79262c-7.74821,-0.74656 -20.0898,-1.99056 -24.25367,-8.88916c-3.58969,-5.94731 0.38055,-16.9907 1.15386,-25.01651z" fill="none" stroke="#000000"/></g><g><path d="M-25.48856,678.57282c1.67032,-17.33544 14.72059,-30.26158 29.14855,-28.87141c14.42798,1.39018 24.77011,16.57025 23.09979,33.90569c-0.83316,8.64692 -2.0356,18.85543 -7.29015,24.07879c-5.27982,5.24846 -14.6271,5.48939 -21.8584,4.79263c-7.74821,-0.74656 -20.08977,-1.99058 -24.25364,-8.8892c-3.58969,-5.94731 0.38052,-16.9907 1.15384,-25.01651z" fill="#444444" stroke="#000000"/><path d="M-27.61614,695.14418c0.29041,-3.01397 4.79015,4.59195 14.70587,7.19456c10.63396,2.79116 26.93657,0.56151 33.72282,-4.13082c3.04156,-2.10309 3.3097,-13.03161 1.06299,-22.34088c-2.45026,-10.15283 -7.48843,-18.64662 -4.99686,-18.40655c14.62631,1.40929 9.36541,33.51217 8.47173,42.7872c-0.89367,9.275 -13.4751,15.65141 -28.10141,14.24212c-14.62631,-1.40929 -25.75881,-10.07061 -24.86513,-19.34561z" fill="#282828" stroke="none"/><path d="M-25.01707,679.45375c1.67032,-17.33544 14.72059,-30.26158 29.14857,-28.8714c14.42798,1.39018 24.7701,16.57027 23.09979,33.90569c-0.83316,8.64692 -2.0356,18.85543 -7.29017,24.07879c-5.27983,5.24849 -14.62707,5.48937 -21.85837,4.79261c-7.74821,-0.74656 -20.0898,-1.99056 -24.25367,-8.88916c-3.58969,-5.94731 0.38055,-16.9907 1.15386,-25.01651z" fill="none" stroke="#000000"/></g><g><path d="M-68.9729,670.31648c1.67032,-17.33544 14.72059,-30.2616 29.14855,-28.87143c14.42798,1.39018 24.7701,16.57027 23.09978,33.90571c-0.83316,8.64692 -2.0356,18.85543 -7.29017,24.07879c-5.27982,5.24846 -14.6271,5.48939 -21.85837,4.79264c-7.74821,-0.74656 -20.08977,-1.99058 -24.25364,-8.8892c-3.58969,-5.94731 0.38052,-16.99068 1.15384,-25.01651z" fill="#444444" stroke="#000000"/><path d="M-71.10047,686.88782c0.29041,-3.01397 4.79013,4.59192 14.70584,7.19456c10.63396,2.79116 26.93659,0.56152 33.72284,-4.13082c3.04156,-2.10309 3.30968,-13.03162 1.06299,-22.34086c-2.45026,-10.15283 -7.48843,-18.64662 -4.99686,-18.40655c14.62631,1.40929 9.36541,33.51217 8.47173,42.7872c-0.89367,9.275 -13.47507,15.65142 -28.10139,14.24213c-14.62631,-1.40929 -25.75881,-10.07061 -24.86513,-19.34561z" fill="#282828" stroke="none"/><path d="M-68.5014,671.19738c1.67032,-17.33544 14.72057,-30.26158 29.14855,-28.87141c14.42798,1.39018 24.7701,16.57027 23.09979,33.90569c-0.83316,8.64692 -2.0356,18.85543 -7.29015,24.07879c-5.27983,5.24849 -14.62709,5.48935 -21.85837,4.79259c-7.74821,-0.74656 -20.08977,-1.99056 -24.25365,-8.88915c-3.58969,-5.94731 0.38055,-16.9907 1.15386,-25.01651z" fill="none" stroke="#000000"/></g></g><g><path d="M212.01095,419.29618l-40.474,-105.10145l16.47111,-6.34295l40.474,105.10145z" fill="#1b1b1b" stroke="#000000" stroke-linecap="butt"/><g data-paper-data="{&quot;index&quot;:null}"><path d="M172.85097,213.83209c15.66215,1.50909 48.65637,117.81682 47.26784,132.22772c-0.15399,1.59822 -2.91717,-2.12652 -6.1186,-2.97188c-4.3014,-1.1358 -9.77556,-0.17003 -14.40345,-3.55264c-8.0288,-5.86841 -14.67864,-16.47871 -18.22327,-12.39154c-6.60338,7.61407 10.85125,58.32749 3.30863,57.60073c-15.66217,-1.5091 -44.09272,-133.14075 -42.70419,-147.55165c0.68914,-7.1522 -3.79898,-15.80131 1.7204,-20.02666c5.60153,-4.28826 21.26366,-4.0942 29.15262,-3.33408z" fill="#444444" stroke="#000000" stroke-linecap="butt"/><path d="M178.42693,322.6402c8.66312,0.83472 19.66917,3.5223 28.93029,5.41335c8.19618,1.6736 15.29438,1.83409 14.2631,12.53729c-0.52682,5.46763 -9.34512,6.11329 -18.83893,0.7328c-8.87502,-5.02982 -18.3747,-16.07452 -21.2876,-12.54391c-6.96314,8.43977 12.57091,53.05233 3.81875,52.20903c-16.33005,-1.57345 -45.05405,-119.81061 -42.85747,-142.60774c1.44925,-15.04109 14.34405,52.16149 30.03327,93.417c8.09033,21.27379 -0.47892,-5.13209 5.07692,-4.59677z" fill="#282828" stroke="none" stroke-linecap="butt"/><path d="M172.95851,212.71646c15.66215,1.50909 48.65637,117.81682 47.26784,132.22772c-0.59976,6.22464 -9.42643,-7.44783 -14.77939,-0.09565c-2.85973,3.92779 -21.6921,-24.99023 -24.22178,-17.79009c-3.69771,10.52462 8.8474,57.07946 3.56448,56.57043c-15.66217,-1.5091 -44.09272,-133.14075 -42.70419,-147.55165c0.73674,-7.64628 -5.02601,-17.93749 1.12912,-22.16121c5.4454,-3.73671 22.3919,-1.90792 29.74387,-1.19954z" fill="none" stroke="#000000" stroke-linecap="butt"/><path d="M204.63257,276.40998l-46.44067,27.37667" fill="none" stroke="#000000" stroke-linecap="round"/></g></g><g><path d="M35.40848,200.38278c7.88896,0.76012 23.3,3.56006 27.97971,8.83895c4.61108,5.20145 -1.44587,12.83451 -2.13501,19.98671c-1.38853,14.4109 -54.42891,138.19259 -70.09108,136.68349c-15.66217,-1.5091 -28.7871,-30.32816 -27.39857,-44.73906c1.38853,-14.4109 55.98278,-122.27921 71.64493,-120.77012z" fill="#444444" stroke="#000000" stroke-linecap="butt"/><path d="M-16.89478,339.92238c5.55584,0.53532 18.13221,-4.33696 30.13558,-23.67466c23.27764,-37.50094 48.76641,-101.00515 47.31716,-85.96406c-2.19657,22.79713 -52.96754,133.37472 -69.29759,131.80127c-16.33003,-1.57345 -30.12308,-23.78996 -27.92651,-46.58709c2.19657,-22.79713 3.44132,22.85109 19.77135,24.42454z" fill="#282828" stroke="none" stroke-linecap="butt"/><path d="M35.51595,199.26715c7.35198,0.70838 24.33589,2.14889 28.96765,6.85656c5.23544,5.32123 -2.38623,14.32281 -3.12297,21.9691c-1.38853,14.4109 -54.42891,138.19259 -70.09108,136.68349c-15.66217,-1.5091 -28.7871,-30.32816 -27.39857,-44.73906c1.38853,-14.4109 55.98278,-122.27921 71.64493,-120.77012z" fill="none" stroke="#000000" stroke-linecap="butt"/><path d="M-7.73666,255.74126l40.35918,35.74009" fill="none" stroke="#000000" stroke-linecap="round"/></g><g stroke-linecap="butt"><path d="M99.07769,283.39052c25.91758,2.49724 44.61927,28.48239 41.77136,58.03947c-0.89057,9.24281 15.4068,10.74462 15.28146,18.05582c-0.0443,2.58348 -15.2053,4.89101 -19.17996,8.70941c-4.84881,4.6582 1.11928,10.80628 -1.59415,12.93844c-4.20036,3.30056 -14.88929,-29.7288 -23.94724,-22.86069c-10.12782,7.67935 -16.59764,32.73584 -22.64466,32.15319c-25.91758,-2.49724 -44.61927,-28.48239 -41.77136,-58.03947c2.84791,-29.55709 26.16696,-51.49342 52.08456,-48.99618z" fill="#212121" stroke="#000000"/><path d="M67.47947,400.06506l13.89204,-144.17865l33.14911,3.19401l-13.89204,144.17865z" fill="#1b1b1b" stroke="#000000"/><path d="M99.68424,213.51503c13.76879,1.32666 36.26079,-9.74756 46.1633,20.85824c4.2026,12.98904 17.11777,87.77601 5.25323,121.57166c-5.29953,15.09551 -29.60551,-1.71417 -37.63656,4.97475c-12.0867,10.06683 -18.89901,-55.52021 -31.22201,-64.47054c-10.48872,-7.61807 -27.52371,41.54272 -27.78626,44.26758c-2.31604,24.03701 65.68449,67.48786 36.19046,64.64603c-29.49403,-2.84184 -62.81466,-15.32713 -60.49862,-39.36409c1.50478,-15.61733 4.48001,-103.31551 23.91082,-143.27841c10.47567,-21.54503 35.29443,-10.20066 45.62562,-9.20522z" fill="#444444" stroke="#000000"/><path d="M91.50089,404.22986c-0.88452,0.07792 -59.05614,9.83048 -62.18668,-39.85899c-1.43502,-22.77729 10.38965,-100.51782 22.29733,-132.69551c12.53082,-33.86156 25.17199,-21.65197 23.31267,-23.04728c-3.97092,-2.97991 -34.31837,98.78328 -37.98685,150.16531c-1.88083,26.34357 44.71143,39.61212 42.95015,37.47791c-10.49418,-12.71618 -35.98977,-45.53314 -37.29989,-46.88945c-5.45184,-5.64399 21.41818,-45.98016 20.35993,-50.61688c-1.53393,-6.72084 24.68108,-9.98645 26.51413,-9.53884c7.88773,1.92602 16.11166,54.16141 30.43915,66.86364c8.67044,7.68691 26.52468,-18.19115 28.05385,-23.96394c8.7661,-33.09319 -15.50342,-111.95202 -5.46983,-110.98525c16.76371,1.61523 14.73304,114.83853 13.52869,127.33781c-1.20434,12.49925 -10.51589,16.99166 -27.27963,15.37642c-3.14765,-0.30329 -14.51287,-1.87125 -20.16973,-12.0982c-10.70015,-19.34462 -17.7964,-53.27908 -28.40601,-53.06676c-8.60906,0.1723 -22.69591,24.02793 -26.00336,41.94946c-1.93806,10.50152 4.96909,20.51988 5.17247,18.40908c0.05147,-0.5342 50.07127,43.60488 32.17358,45.18153z" fill="#282828" stroke="none"/><path d="M100.77917,213.65389c13.76879,1.32666 36.26079,-9.74756 46.1633,20.85824c11.30956,34.95465 9.03265,112.75917 7.79782,125.57491c-0.23924,2.483 -19.19712,1.63275 -32.65146,0.26502c-6.62396,-0.67339 -9.03629,2.46975 -12.84964,-1.88268c-15.14724,-17.28849 -10.67391,-57.85203 -27.22889,-61.59043c-3.11872,-0.70427 -17.46819,24.1449 -21.91196,34.38576c-0.92138,2.12339 -1.34449,5.5676 -1.84118,5.51546c-4.26573,-0.44779 -1.81328,3.02532 -3.35172,4.25827c-12.03401,9.64446 52.47107,65.96967 36.83589,64.46317c-29.49403,-2.84184 -62.81466,-15.32713 -60.49862,-39.36409c1.50477,-15.61731 4.48001,-103.31551 23.91082,-143.27841c10.47567,-21.54503 35.29443,-10.20063 45.62561,-9.20519z" fill="none" stroke="#000000"/><path d="M101.0804,224.13806c22.79278,2.19615 37.62892,41.76534 33.13743,88.38025c-2.10348,21.83099 14.13865,57.07427 6.59571,48.78293c-3.39418,-3.73095 -21.14142,5.35026 -29.38292,-6.48109c-12.55102,-18.01801 -16.93602,-58.22213 -24.25104,-58.92695c-17.76129,-1.71135 -32.10037,54.85491 -35.45185,48.12474c-0.94942,-1.90654 -1.04137,-29.16241 -0.04988,-39.45258c4.49148,-46.6149 26.60974,-82.62343 49.40252,-80.42728z" fill="#b7b7b7" stroke="#000000"/><path d="M62.6797,262.89734c0.51635,-5.35896 7.33157,-24.60767 19.62476,-33.64342c5.24776,-3.85722 14.2759,-3.93707 19.68707,-3.41569c18.08716,1.74275 26.92439,35.72359 26.18762,43.3702c-0.73677,7.64661 -6.79135,-32.90195 -24.87852,-34.6447c-2.68358,-0.25857 -29.19399,12.87258 -35.32161,26.05284c-1.38091,2.97026 -18.4833,54.13665 -13.84253,58.11374c2.85815,2.44943 6.03946,-16.38267 15.03018,-25.31497c8.65319,-8.59696 23.09814,-7.35038 27.15712,-3.02284c8.83616,9.42079 15.76595,43.05092 23.20396,53.61949c10.09813,14.34827 19.31602,5.04821 18.60071,10.47606c-0.9773,7.416 -13.76643,12.29066 -29.97753,-7.96178c-7.37647,-9.21542 -15.55388,-49.21302 -23.48671,-51.52467c-14.6824,-4.27853 -33.89121,46.72544 -34.64765,46.30766c-3.52676,-1.94791 -1.46975,-30.06311 3.41728,-52.40009c2.76781,-12.65077 9.11472,-24.65089 9.24585,-26.01179z" fill="#989898" stroke="none"/><path d="M99.48285,223.98413c22.79278,2.19615 37.62892,41.76534 33.13743,88.38025c-2.10348,21.83099 14.13865,57.07427 6.59571,48.78293c-3.39418,-3.73095 -21.14142,5.35026 -29.38292,-6.48109c-12.55102,-18.01801 -16.93602,-58.22213 -24.25104,-58.92695c-17.76129,-1.71135 -32.10037,54.85491 -35.45185,48.12474c-0.94942,-1.90654 -1.04137,-29.16241 -0.04988,-39.45258c4.49148,-46.6149 26.60974,-82.62343 49.40252,-80.42728z" fill="none" stroke="#000000"/></g><g stroke-linecap="butt"><path d="M161.29544,235.77377c-0.3188,3.30863 -0.97759,39.00599 -15.31498,37.62454c-14.33741,-1.38145 -36.9241,-39.31858 -36.6053,-42.62721c0.3188,-3.30863 28.70376,-33.91593 43.04117,-32.53447c14.33741,1.38145 9.19791,34.22852 8.87911,37.53715z" data-paper-data="{&quot;index&quot;:null}" fill="#de3636" stroke="#000000"/><path d="M162.96995,235.12895c-0.3188,3.30863 -0.97759,39.00599 -15.31498,37.62454c-14.33741,-1.38145 -36.9241,-39.31858 -36.6053,-42.62721c0.3188,-3.30863 28.70376,-33.91593 43.04117,-32.53447c14.33741,1.38145 9.19791,34.22852 8.87911,37.53715z" data-paper-data="{&quot;index&quot;:null}" fill="#de3636" stroke="#000000"/><path d="M162.07029,240.2825c-0.74386,7.72012 -1.58349,33.30429 -14.37684,32.07161c-12.79337,-1.23268 -32.69589,-28.81539 -31.95203,-36.53554c0.30094,-3.12334 26.59566,29.36144 32.4262,22.54592c8.5811,-10.03073 -1.48734,-59.47124 6.13018,-58.73727c12.79337,1.23268 8.51634,32.93515 7.77248,40.65528z" data-paper-data="{&quot;index&quot;:null}" fill="#b72c2c" stroke="none"/><path d="M161.73331,235.41289c-0.3188,3.30863 -0.97759,39.00599 -15.31498,37.62454c-14.33741,-1.38145 -36.9241,-39.31858 -36.6053,-42.62721c0.3188,-3.30863 28.70376,-33.91593 43.04117,-32.53447c14.33741,1.38145 9.19791,34.22852 8.87911,37.53715z" data-paper-data="{&quot;index&quot;:null}" fill="none" stroke="#000000"/><path d="M62.21336,191.1577c14.33741,1.38145 36.35622,36.8453 36.03742,40.15393c-0.3188,3.30863 -29.73343,36.23528 -44.07083,34.85383c-14.33741,-1.38145 -8.16824,-36.54787 -7.84945,-39.8565c0.3188,-3.30863 1.54547,-36.53271 15.88286,-35.15126z" data-paper-data="{&quot;index&quot;:null}" fill="#de3636" stroke="#000000"/><path d="M61.62157,193.11616c7.61752,0.73397 -11.70551,47.34253 -5.1975,58.82714c4.42196,7.8034 36.43537,-19.06324 36.13443,-15.9399c-0.74386,7.72012 -25.54669,30.99536 -38.34006,29.76268c-12.79337,-1.23268 -8.73267,-26.50646 -7.98881,-34.22661c0.74386,-7.72012 2.59859,-39.65599 15.39194,-38.42332z" fill="#b72c2c" stroke="none"/><path d="M63.37304,191.67254c14.33741,1.38145 36.35622,36.8453 36.03742,40.15393c-0.3188,3.30863 -29.73343,36.23528 -44.07083,34.85383c-14.33741,-1.38145 -8.16824,-36.54787 -7.84945,-39.8565c0.3188,-3.30863 1.54547,-36.53271 15.88286,-35.15126z" fill="none" stroke="#000000"/><path d="M101.54152,213.89255c8.82301,0.85012 15.27354,8.82419 14.40768,17.81058c-0.86587,8.9864 -8.72027,15.58214 -17.54325,14.73202c-8.82301,-0.85012 -15.27354,-8.82419 -14.40768,-17.81058c0.86587,-8.9864 8.72024,-15.58214 17.54325,-14.73202z" fill="#de3636" stroke="#000000"/><path d="M90.61872,218.48341c4.13283,0.39821 -1.85002,16.89154 3.34474,21.28335c5.61803,4.74968 22.25856,-2.52783 22.08188,-0.69415c-0.32002,3.32128 -6.99008,7.852 -14.91754,7.40112c-0.49626,-0.02821 -0.27655,0.80916 -0.78334,0.76033c-8.60244,-0.82887 -15.79133,-7.63385 -15.45128,-11.16304c0.34005,-3.52922 -2.87688,-18.41645 5.72556,-17.58758z" fill="#b72c2c" stroke="none"/><path d="M101.90245,214.3304c8.82301,0.85012 15.27354,8.82421 14.40767,17.81061c-0.86587,8.98642 -8.72025,15.58216 -17.54325,14.73204c-8.82301,-0.85012 -15.27354,-8.82421 -14.40767,-17.81061c0.86587,-8.98642 8.72025,-15.58216 17.54325,-14.73204z" fill="none" stroke="#000000"/></g><g><path d="M83.88863,207.05055l-1.74122,-57.37118l73.71327,-2.2372l1.74122,57.37118z" fill="#1b1b1b" stroke="#000000" stroke-linecap="butt"/><path d="M77.38776,210.7281l-0.49598,-16.34208l83.10127,-2.52213l0.49598,16.34208z" fill="#7c7c7c" stroke="none" stroke-linecap="butt"/><path d="M98.87602,190.58655c8.48143,-0.25741 -24.71868,10.00374 -9.49472,13.45248c9.07688,2.05619 70.88417,-3.20046 70.94948,-1.04862c0.17485,5.76097 -47.28333,8.04752 -60.82156,8.4584c-13.53824,0.41089 -24.65488,-3.92622 -24.82972,-9.68716c-0.17485,-5.76097 10.65833,-10.76422 24.19654,-11.17511z" fill="#585858" stroke="none" stroke-linecap="butt"/><path d="M71.90957,196.11502l-0.41156,-13.56047l91.44618,-2.7754l0.41156,13.56047z" fill="#e1e1e1" stroke="#000000" stroke-linecap="butt"/><path d="M71.24406,191.77324c-0.01389,-0.45753 -0.20205,-6.41174 3.48908,-8.94895c2.98696,-2.05315 9.7471,-0.82504 11.49892,-0.84452c4.25675,-0.04741 -4.56181,5.14907 0.21691,7.66901c4.14531,2.18593 21.60488,1.74734 28.62246,1.66613c11.98459,-0.13873 24.74605,-3.01496 33.84233,-3.29104c26.21231,-0.79554 17.137,-2.9722 17.25357,0.86846c0.11657,3.84065 -21.03823,7.59898 -47.25055,8.39453c-26.21231,0.79554 -47.55609,-1.67297 -47.67266,-5.51361z" fill="#bfbfbf" stroke="none" stroke-linecap="butt"/><g data-paper-data="{&quot;index&quot;:null}" stroke-linecap="butt"><path d="M247.07426,57.60103c-10.24379,3.42842 -24.0595,17.52973 -31.67936,15.67719c-8.86,-2.15402 -10.80286,-21.1113 -11.80269,-29.07611c-0.99018,-7.88784 0.50278,-24.28517 7.99156,-31.90593c6.57658,-6.69247 18.39684,-4.87742 28.75572,-8.34437c22.15474,-7.41482 41.6223,-1.41593 43.48209,13.39891c1.85976,14.81479 -14.59256,32.83549 -36.74731,40.25033z" fill="#444444" stroke="#000000"/><path d="M233.16729,63.96519c-0.72021,0.93348 -2.41029,1.02692 -3.1479,1.87492c-6.33973,7.28878 -13.70288,10.72061 -16.38776,8.47904c-2.99724,-2.50237 -9.57627,-51.53509 -2.6658,-60.4918c3.63874,-4.71622 -3.95787,25.75144 13.74641,30.99352c15.91853,4.71336 57.40466,-16.03029 58.82368,-14.84555c2.05372,1.7146 -15.09209,14.8709 -31.31555,24.18831c-7.45348,4.28065 -16.87764,6.98198 -19.05308,9.80153z" fill="#282828" stroke="none"/><path d="M269.21553,40.38862c-9.72585,12.60573 -46.18879,27.93313 -48.92155,25.65156c-2.73277,-2.28159 -13.33442,-27.27599 -3.60855,-39.88171c9.72585,-12.60573 62.50054,-12.33943 65.23332,-10.05787c2.73277,2.28159 -2.97735,11.68228 -12.70323,24.28802z" fill="#b7b7b7" stroke="#000000"/><path d="M276.14211,20.51045c-1.79754,2.3298 9.83153,2.54066 4.60465,9.72324c-4.42766,6.0843 -25.19419,19.02079 -32.39089,23.27709c-10.46993,6.19217 -20.40669,10.84014 -26.64238,11.31489c-3.15024,0.23983 -4.90334,-1.67864 -6.22279,-2.78023c-2.85083,-2.38014 -2.92928,-7.25533 -3.92783,-10.70194c-2.86045,-9.87324 0.36352,-22.3419 10.39998,-26.27942c18.25704,-7.16263 48.97562,-10.21488 54.63756,-5.48775c0.70434,0.58806 -19.38769,1.10859 -36.01618,4.75575c-12.03452,2.63956 -21.6419,7.74211 -23.1761,11.73843c-2.93577,7.64713 5.22968,24.20765 7.93889,24.02007c7.22479,-0.50017 24.34027,-6.89552 35.093,-16.6514c12.6285,-11.45772 18.29324,-26.28714 15.70209,-22.92874z" fill="#989898" stroke="none"/><path d="M268.27391,41.59304c-9.72585,12.60573 -46.18879,27.93313 -48.92155,25.65156c-2.73277,-2.28159 -13.33442,-27.27599 -3.60855,-39.88171c9.72585,-12.60573 62.50054,-12.33943 65.23332,-10.05787c2.73277,2.28159 -2.97735,11.68228 -12.70323,24.28802z" fill="none" stroke="#000000"/><path d="M246.43132,57.73805c-10.24379,3.42842 -16.26372,12.1876 -23.88361,10.33508c-8.86,-2.15402 -10.04097,-12.57474 -11.04083,-20.53953c-0.99018,-7.88784 -8.05485,-27.47963 -0.56602,-35.10039c6.57658,-6.69247 18.39684,-4.87742 28.75572,-8.34437c22.15474,-7.41482 41.6223,-1.41593 43.48209,13.39891c1.85976,14.81479 -14.59256,32.83549 -36.74731,40.25033z" fill="none" stroke="#000000"/></g><g data-paper-data="{&quot;index&quot;:null}" stroke-linecap="butt"><path d="M212.9387,71.29206c-9.33733,6.89474 -17.58521,25.14108 -26.54942,26.11316c-10.4231,1.13027 -21.18375,-16.07312 -25.90029,-23.23555c-4.67098,-7.09318 -10.59896,-23.10674 -6.11768,-32.97564c3.93536,-8.66672 17.35558,-11.17412 26.79782,-18.14635c20.19425,-14.91157 35.36764,-8.57245 44.14058,4.74985c8.77294,13.3223 7.82324,28.58291 -12.37099,43.4945z" fill="#444444" stroke="#000000"/><path d="M201.04626,82.26647c-0.33903,1.13847 -2.09605,1.83019 -2.49276,2.8942c-3.40973,9.14514 -9.67776,15.01441 -13.56475,13.85693c-4.33922,-1.29215 -33.82635,-45.23373 -30.57349,-56.15731c0.47009,-1.57867 13.47371,-12.66433 14.8033,-10.08301c1.11756,2.16965 -3.21062,6.76812 -2.86958,11.69058c0.7315,10.55872 6.39645,23.4236 16.91566,22.7441c19.11355,-1.23465 42.55624,-28.34281 44.61064,-27.73104c2.97325,0.88539 1.97325,12.13858 -11.03214,26.72833c-5.97502,6.70289 -14.77284,12.61852 -15.79685,16.05726z" fill="#282828" stroke="none"/><path d="M228.62656,47.13554c-4.57808,15.37391 -36.38213,42.86503 -40.33846,41.6869c-3.95635,-1.17813 -26.70617,-20.98912 -22.1281,-36.36303c4.57808,-15.37391 47.04779,-27.99219 51.00411,-26.81404c3.95635,1.17813 16.04054,6.11629 11.46246,21.4902z" fill="#b7b7b7" stroke="#000000"/><path d="M217.26138,27.81351c-0.84612,2.8414 13.44182,6.33756 11.1685,14.98505c-1.92572,7.32516 -10.28888,17.58611 -16.00163,24.17433c-12.50971,14.42682 -28.86988,24.70705 -34.56121,23.01228c-11.35857,-3.38236 -18.02718,-14.65166 -14.89482,-25.17065c0.87187,-2.92786 2.0738,-10.15016 8.30623,-15.27278c16.15901,-13.28162 40.47327,-23.90053 48.6703,-21.45959c1.0197,0.30367 -13.13849,4.73767 -29.17494,14.11889c-11.60606,6.78942 -19.49803,15.03745 -19.29962,19.35819c0.37963,8.26786 16.66818,20.9865 19.46741,19.84199c7.46476,-3.05215 22.75983,-15.20179 29.73814,-28.2519c8.19561,-15.32663 -2.19863,-29.43165 -3.41833,-25.33574z" fill="#989898" stroke="none"/><path d="M228.176,48.60888c-4.57808,15.37391 -36.38213,42.86503 -40.33846,41.6869c-3.95635,-1.17813 -26.70617,-20.98912 -22.1281,-36.36303c4.57808,-15.37391 50.5738,-28.00555 54.53015,-26.8274c3.95635,1.17813 12.5145,6.12964 7.93642,21.50355z" fill="none" stroke="#000000"/><path d="M212.31684,71.65102c-9.33733,6.89474 -17.58521,25.14108 -26.54942,26.11316c-10.4231,1.13027 -21.18375,-16.07312 -25.90029,-23.23555c-4.67098,-7.09318 -10.59896,-23.10674 -6.11768,-32.97564c3.93536,-8.66672 17.35558,-11.17412 26.79782,-18.14635c20.19425,-14.91157 34.98314,-3.9019 43.75605,9.42043c8.77294,13.3223 8.20776,23.91237 -11.98649,38.82395z" fill="none" stroke="#000000"/></g><g stroke-linecap="butt"><path d="M-22.97401,-10.23098c5.59314,-13.84395 25.94786,-14.65521 45.46358,-1.81202c9.12501,6.00512 21.01574,7.27887 25.65829,15.43285c5.28651,9.285 2.52878,25.51758 -0.44917,32.8885c-3.00697,7.44286 -9.74169,25.26967 -18.85784,25.08196c-7.84019,-0.16145 -17.58218,-17.33158 -26.60576,-23.26997c-19.51572,-12.84322 -30.80223,-34.47741 -25.20914,-48.32136z" fill="#444444" stroke="#000000"/><path d="M14.0475,47.80499c-1.38044,-3.2828 -9.79807,-8.30836 -15.90614,-14.35566c-13.295,-13.16277 -26.49802,-30.27256 -24.07359,-31.40383c1.67519,-0.78166 36.46241,29.89808 53.0572,29.42021c18.45639,-0.53146 18.91886,-31.92845 21.22791,-26.43742c4.38521,10.4282 -14.53601,56.13899 -18.07428,57.78998c-3.16953,1.47893 -9.40775,-3.72474 -13.66858,-12.39445c-0.49574,-1.00869 -2.1055,-1.532 -2.5625,-2.61883z" fill="#282828" stroke="none"/><path d="M-14.75752,15.78c-6.17178,-14.6767 -9.28298,-25.22658 -6.0569,-26.73187c3.22605,-1.50532 54.30771,11.7577 60.47949,26.4344c6.17178,14.6767 -10.47938,36.12092 -13.70547,37.62622c-3.22605,1.50532 -34.54536,-22.65204 -40.71713,-37.32874z" fill="#b7b7b7" stroke="#000000"/><path d="M-16.36036,-5.20931c-1.64429,-3.91015 0.03224,11.87563 9.30389,26.18627c7.89451,12.18503 22.80038,22.75178 29.6559,25.08623c2.57076,0.87539 14.70632,-13.04051 13.82767,-21.18457c-0.45917,-4.25602 -8.43868,-11.6496 -19.39532,-17.28421c-15.13913,-7.78554 -34.42729,-13.43608 -33.5958,-13.82406c6.68403,-3.1188 35.59545,7.70141 51.40819,19.3023c8.69274,6.37736 8.61474,19.25585 3.32034,28.06676c-1.84821,3.07575 -3.17302,7.76816 -6.53852,9.33851c-1.55763,0.72679 -3.74372,2.13212 -6.72739,1.0932c-5.90597,-2.05641 -14.32029,-9.09499 -22.85446,-17.76283c-5.86605,-5.95798 -22.62533,-23.78293 -25.34648,-30.7985c-3.21236,-8.28199 8.08263,-5.50652 6.94198,-8.21908z" fill="#989898" stroke="none"/><path d="M-14.15592,17.18549c-6.17178,-14.6767 -9.28298,-25.22658 -6.0569,-26.73187c3.22605,-1.50532 54.30771,11.7577 60.47949,26.4344c6.17178,14.6767 -10.47938,36.12092 -13.70547,37.62622c-3.22605,1.50532 -34.54536,-22.65204 -40.71713,-37.32874z" fill="none" stroke="#000000"/><path d="M-22.38765,-9.9338c5.59314,-13.84395 25.94786,-14.65521 45.46358,-1.81202c9.12501,6.00512 21.01574,7.27887 25.65829,15.43285c5.28651,9.285 -6.56163,26.41304 -9.53957,33.78397c-3.00697,7.44286 -6.81827,17.21323 -15.93441,17.0255c-7.84019,-0.16145 -11.41517,-10.17056 -20.43876,-16.10894c-19.51572,-12.84322 -30.80223,-34.47741 -25.20914,-48.32136z" fill="none" stroke="#000000"/></g><g stroke-linecap="butt"><path d="M30.9087,14.85747c11.89319,-10.63017 28.1842,-12.87042 43.88431,6.7171c7.34088,9.15854 19.67085,15.02041 21.25454,24.4061c1.80338,10.68757 -8.02931,24.648 -14.36159,30.30782c-6.39408,5.71502 -21.20298,19.58754 -30.98863,15.82465c-8.41602,-3.23619 -11.71407,-22.9866 -18.97339,-32.04338c-15.70006,-19.58752 -12.70841,-34.58211 -0.81522,-45.21225z" fill="#444444" stroke="#000000"/><path d="M29.25202,54.15623c-8.83359,-17.43467 -6.91726,-28.56852 -3.81641,-28.66263c2.14254,-0.06503 17.85801,32.14424 36.01735,38.23441c9.99406,3.35175 18.76582,-7.63246 22.17795,-17.6514c1.59074,-4.67078 -1.41491,-10.22461 0.22118,-12.03556c1.94654,-2.15451 11.6761,11.89254 11.72608,13.53897c0.34576,11.39235 -39.41474,46.31311 -43.94018,46.45046c-4.0538,0.12304 -8.60895,-7.15617 -9.56201,-16.86963c-0.11089,-1.13013 -1.63206,-2.24893 -1.6681,-3.43626c-0.10884,-3.58631 -7.09753,-11.55844 -11.15591,-19.56836z" fill="#282828" stroke="none"/><path d="M22.74827,32.70029c-0.48663,-16.0337 12.45939,-17.71117 16.58553,-17.83641c4.12613,-0.12523 41.94574,22.95226 42.43236,38.98598c0.48662,16.03368 -26.57937,29.35521 -30.7055,29.48044c-4.12613,0.12523 -27.82575,-34.59632 -28.31238,-50.63001z" fill="#b7b7b7" stroke="#000000"/><path d="M38.68433,16.93475c-0.12965,-4.27167 -13.79056,6.6997 -9.79504,23.61446c3.40205,14.40234 15.07404,30.06497 21.50776,34.92768c2.4126,1.82347 21.41593,-6.29773 23.90103,-14.1924c1.29871,-4.1257 -4.21684,-14.12029 -13.69615,-23.65651c-13.09786,-13.17649 -25.64756,-21.0898 -24.58411,-21.12208c8.5488,-0.25946 29.33112,16.23414 41.54819,33.21232c4.71204,6.54838 4.0236,13.83756 4.11628,16.89108c0.33296,10.97042 -9.00022,20.15517 -20.84624,20.5147c-5.93558,0.18014 -19.11607,-13.94831 -27.51224,-31.09857c-3.83423,-7.83187 -9.28952,-19.89295 -9.27432,-27.46703c0.01794,-8.94129 14.72472,-8.66032 14.63478,-11.62365z" fill="#989898" stroke="none"/><path d="M22.80635,34.2399c-0.48663,-16.0337 9.05443,-18.62743 13.18057,-18.75265c4.12613,-0.12523 45.35069,23.86852 45.83732,39.90223c0.48662,16.03368 -26.57937,29.35521 -30.7055,29.48044c-4.12613,0.12523 -27.82575,-34.59632 -28.31238,-50.63001z" fill="none" stroke="#000000"/><path d="M30.59294,19.97697c11.89319,-10.63017 29.00912,-17.48362 44.70917,2.1039c7.34088,9.15854 19.67085,15.02041 21.25454,24.4061c1.80338,10.68757 -8.02931,24.648 -14.36159,30.30782c-6.39408,5.71502 -21.20298,19.58754 -30.98863,15.82465c-8.41602,-3.23619 -11.71407,-22.9866 -18.97339,-32.04338c-15.70006,-19.58752 -13.5333,-29.96891 -1.64008,-40.59906z" fill="none" stroke="#000000"/></g><g><g><path d="M56.46642,167.75489c-22.52874,-30.4522 -16.765,-86.42938 -0.03138,-98.80905c10.3521,-7.65856 52.0865,-26.564 79.04281,-16.55638c16.61713,6.16918 36.74844,9.22193 45.34,20.83513c22.52874,30.4522 14.88773,84.01104 -1.84589,96.3907c-8.27949,6.12521 -36.23254,3.95056 -60.70963,3.7686c-24.99353,-0.18582 -50.41395,9.75604 -61.79592,-5.62904z" fill="#444444" stroke="#000000" stroke-linecap="butt"/><path d="M42.93851,135.89606c-0.06422,-2.11599 -7.21332,-31.13754 1.53999,-50.86953c7.46423,-16.82617 29.57,-24.24313 44.01853,-31.32761c34.33841,-16.83698 86.1659,13.886 89.00277,13.7999c1.89841,-0.05762 -31.45026,-14.80942 -62.98026,-14.61773c-15.39059,0.09357 -30.5271,9.33202 -40.57329,14.7949c-7.83194,4.25883 -21.30662,12.70214 -23.5296,20.3815c-5.79375,20.01472 -0.20564,46.14233 -0.11925,48.98847c0.24913,8.20863 8.35506,13.24992 2.92475,13.41473c-5.43031,0.16482 -10.03443,-6.35602 -10.28357,-14.56462z" fill="#282828" stroke="none" stroke-linecap="butt"/><path d="M74.40549,72.93564c4.42062,-0.13417 26.93844,14.28396 50.62712,17.13353c21.16741,2.54629 43.43601,-6.8979 51.9018,-0.15046c6.44226,5.13462 0.37803,26.49482 2.71735,34.98026c3.33309,12.09006 13.49442,11.54954 13.63803,16.28143c0.52509,17.30128 -58.94865,1.32541 -74.60818,1.80068c-15.65953,0.47527 -28.77978,-13.16492 -29.30488,-30.46617c-0.52509,-17.30128 -30.63076,-39.10393 -14.97123,-39.5792z" fill="#282828" stroke="none" stroke-linecap="butt"/><path d="M56.29901,167.15309c-22.52874,-30.4522 -16.765,-86.42938 -0.03138,-98.80905c10.3521,-7.65856 52.0865,-26.564 79.04281,-16.55638c16.61713,6.16918 36.74844,9.22193 45.34,20.83513c22.52874,30.4522 14.88773,84.01104 -1.84589,96.3907c-8.27949,6.12521 -36.23254,3.95056 -60.70963,3.76858c-24.99353,-0.18582 -50.41395,9.75604 -61.79591,-5.62901z" fill="none" stroke="#000000" stroke-linecap="butt"/><path d="M63.71413,117.60407c-0.20561,-6.77473 -1.99691,-30.15531 5.90426,-37.24524c9.20476,-8.25973 28.74833,0.22995 35.77033,0.01683c13.04948,-0.39605 5.13664,21.12696 5.58179,35.79414c0.44515,14.6672 -9.77269,26.87837 -22.82217,27.27442c-13.04948,0.39605 -23.98905,-11.17298 -24.4342,-25.84018z" fill="#000000" stroke="#000000" stroke-linecap="butt"/><path d="M175.2865,120.09033c0.34164,11.25658 -9.96012,20.70292 -23.00959,21.09898c-13.04948,0.39605 -23.90513,-8.40816 -24.24677,-19.66475c-0.34164,-11.25658 -9.39509,-27.3157 3.65438,-27.71176c7.02197,-0.21312 26.07879,-7.76228 35.71124,-1.92996c8.26827,5.00631 7.73296,23.00812 7.89076,28.2075z" data-paper-data="{&quot;index&quot;:null}" fill="#000000" stroke="#000000" stroke-linecap="butt"/><path d="M59.11713,167.81951c-0.02305,-0.75926 -6.94011,-7.3259 -6.68005,-8.21043c0.93072,-3.16545 -9.76208,-12.17157 -3.74301,-14.89721c13.56142,-6.14105 51.511,-4.68864 69.07023,-5.22156c19.0115,-0.577 59.2062,-2.91464 71.7912,5.40756c5.63934,3.72915 -7.91001,18.06123 -7.81987,21.03115c0.29129,9.5978 -35.48314,4.28113 -63.01365,5.11669c-27.5305,0.83556 -59.31359,6.37159 -59.60489,-3.22621z" fill="#b7b7b7" stroke="#000000" stroke-linecap="butt"/><path d="M58.96702,167.58202c-0.03418,-1.12591 -15.03514,-19.6064 -12.99563,-20.68001c3.77896,-1.9893 17.58888,15.02732 30.56375,17.62446c14.58218,2.91885 33.41496,2.88143 47.64226,2.44963c12.65255,-0.384 30.90322,2.55202 42.99529,-1.93768c11.25521,-4.17896 16.65436,-15.81543 20.787,-15.8881c3.25967,-0.05733 -6.93348,13.19494 -6.88701,14.72575c0.16599,5.46906 -23.07452,7.42414 -56.05439,8.56408c-0.52798,0.01826 -3.37203,-0.80982 -3.90336,-0.79369c-33.71854,1.02336 -61.97925,1.49209 -62.1479,-4.06451z" fill="#989898" stroke="none" stroke-linecap="butt"/><path d="M58.9775,168.13234c-0.02304,-0.75923 -6.94014,-7.32589 -6.68007,-8.21042c0.93072,-3.16545 -9.76208,-12.17157 -3.74303,-14.89721c13.56142,-6.14105 51.51102,-4.68864 69.07026,-5.22156c19.0115,-0.577 59.20618,-2.91464 71.7912,5.40756c5.63934,3.72915 -7.91001,18.06123 -7.81987,21.03115c0.29129,9.5978 -35.48314,4.28113 -63.01365,5.11669c-27.53048,0.83555 -59.31358,6.37159 -59.60486,-3.22618z" fill="none" stroke="#000000" stroke-linecap="butt"/><path d="M119.39846,137.91834c15.65953,-0.47527 28.45664,2.51785 28.58313,6.68531c0.12648,4.16744 -12.46556,7.93114 -28.12509,8.40641c-15.65953,0.47527 -28.45664,-2.51785 -28.58313,-6.68531c-0.12648,-4.16744 12.46556,-7.93114 28.12509,-8.40641z" fill="#000000" stroke="#000000" stroke-linecap="butt"/><path d="M59.0292,144.78308l7.1645,-5.25264l7.31719,-0.22207l-5.22417,8.85574l-0.24913,6.87374" fill="none" stroke="#000000" stroke-linecap="round"/><path d="M70.49008,145.35076l14.50947,-4.56009" fill="none" stroke="#000000" stroke-linecap="round"/><path d="M76.86489,144.24177l0.2776,9.1465" fill="none" stroke="#000000" stroke-linecap="round"/><path d="M81.70789,142.30835l12.48657,4.19851" fill="none" stroke="#000000" stroke-linecap="round"/><path d="M84.68101,145.37781l-0.01317,14.64827" fill="none" stroke="#000000" stroke-linecap="round"/><path d="M170.10284,124.47545l5.558,17.22566l-25.1112,2.13537l-0.16656,-5.48788" fill="none" stroke="#000000" stroke-linecap="round"/><path d="M170.92101,136.35199l-13.88627,-5.07149" fill="none" stroke="#000000" stroke-linecap="round"/><path d="M155.35813,136.36658l-1.38514,14.68991" fill="none" stroke="#000000" stroke-linecap="round"/><path d="M161.05492,158.16548l0.84454,-17.41997" fill="none" stroke="#000000" stroke-linecap="round"/><path d="M170.0071,151.48535l-2.1069,-9.09099" fill="none" stroke="#000000" stroke-linecap="round"/><path d="M172.84747,139.49774l4.51846,13.13747" fill="none" stroke="#000000" stroke-linecap="round"/></g><path d="M167.66143,74.19749l-0.1388,-4.57327l4.9334,-3.35395" fill="none" stroke="#000000" stroke-linecap="round"/><path d="M88.39159,71.56811l-0.37404,2.75782l-2.2172,2.356" fill="none" stroke="#000000" stroke-linecap="round"/></g><path d="M77.36666,210.03271l-0.3588,-11.82193l83.10127,-2.52213l0.3588,11.82193z" fill="none" stroke="#000000" stroke-linecap="butt"/><path d="M72.76154,195.90344l-0.41156,-13.56047l91.44618,-2.7754l0.41156,13.56047z" fill="none" stroke="#000000" stroke-linecap="butt"/><path d="M93.94984,183.07954l-0.0311,10.44169" fill="none" stroke="#000000" stroke-linecap="round"/><path d="M125.59091,182.11924l0.29548,9.73571" fill="none" stroke="#000000" stroke-linecap="round"/><path d="M148.86654,192.20155l-2.7716,-11.05266" fill="none" stroke="#000000" stroke-linecap="round"/></g></g></g></svg>