<svg version="1.1" xmlns="http://www.w3.org/2000/svg" xmlns:xlink="http://www.w3.org/1999/xlink" width="319.713" height="290.13876" viewBox="0,0,319.713,290.13876"><defs><radialGradient cx="297.80781" cy="122.94294" r="153" gradientUnits="userSpaceOnUse" id="color-1"><stop offset="0" stop-color="#000000"/><stop offset="1" stop-color="#1f1f1f"/></radialGradient></defs><g transform="translate(-77.787,-36.96033)"><g data-paper-data="{&quot;isPaintingLayer&quot;:true}" fill-rule="nonzero" stroke-linejoin="miter" stroke-miterlimit="10" stroke-dasharray="" stroke-dashoffset="0" style="mix-blend-mode: normal"><path d="M87,318.5v-277h306v277z" fill="url(#color-1)" stroke="#000000" stroke-width="0" stroke-linecap="butt"/><path d="M245.33529,187v-114h142.16471v114z" fill="#000000" stroke="none" stroke-width="0" stroke-linecap="butt"/><path d="M87,318.5v-277h306v277z" fill="none" stroke="#000000" stroke-width="4" stroke-linecap="butt"/><path d="M249.5,77l-31,-37" fill="none" stroke="#000000" stroke-width="4" stroke-linecap="round"/><path d="M383.5,185l8,13" fill="none" stroke="#000000" stroke-width="4" stroke-linecap="round"/><path d="M383.5,80l12,-12" fill="none" stroke="#000000" stroke-width="4" stroke-linecap="round"/><path d="M104.5,301c0,0 0,-73.85576 0,-77c0,-11.55269 -2,-185 -2,-185l103,2l-7,189z" fill="#000000" stroke="#000000" stroke-width="4" stroke-linecap="butt"/><path d="M115.5,54l-30,-12" fill="none" stroke="#000000" stroke-width="4" stroke-linecap="round"/><path d="M196.5,60l39,-17" fill="none" stroke="#000000" stroke-width="4" stroke-linecap="round"/><path d="M110.5,265l-27,55l171,-136" fill="none" stroke="#000000" stroke-width="4" stroke-linecap="round"/><path d="M196.5,228l45,-25" fill="none" stroke="#000000" stroke-width="4" stroke-linecap="round"/></g></g></svg>