<svg version="1.1" xmlns="http://www.w3.org/2000/svg" xmlns:xlink="http://www.w3.org/1999/xlink" width="575.14383" height="642.82286" viewBox="0,0,575.14383,642.82286"><g transform="translate(224.49704,62.92055)"><g data-paper-data="{&quot;isPaintingLayer&quot;:true}" fill-rule="nonzero" stroke-width="8" stroke-linejoin="miter" stroke-miterlimit="10" stroke-dasharray="" stroke-dashoffset="0" style="mix-blend-mode: normal"><g data-paper-data="{&quot;index&quot;:null}"><g stroke-linecap="butt"><path d="M243.66067,427.59815c-4.86142,18.53344 -32.15281,48.90157 -50.12737,44.18674c-17.97456,-4.71482 -21.64322,-181.21742 -16.78181,-199.75087c3.12219,-11.90289 3.86623,-25.16572 14.49092,-28.74635c5.91851,-1.99459 20.42663,2.03874 26.85725,3.72553c17.97453,4.71481 30.42245,162.05151 25.56104,180.58496z" fill="#840000" stroke="#000000"/><path d="M246.64512,420.73566c-7.69046,29.31875 -32.04275,48.33393 -50.78373,43.41807c-18.74101,-4.91586 -26.50942,-161.16906 -18.81896,-190.48781c5.07401,-19.34392 5.05273,70.4826 14.12876,126.99096c4.68017,29.13904 16.41322,40.50264 22.78932,42.17512c18.74101,4.91586 40.37507,-51.41506 32.68461,-22.09631z" fill="#430000" stroke="none"/><path d="M244.03704,426.16341c-4.86142,18.53344 -32.15281,48.90157 -50.12737,44.18674c-17.97453,-4.71481 -21.64322,-181.21742 -16.78181,-199.75087c2.63297,-10.03781 -8.86474,-29.53128 -0.47738,-33.90399c7.09875,-3.70091 33.58609,6.72194 41.82552,8.88319c17.97453,4.71481 30.42245,162.05151 25.56104,180.58496z" fill="none" stroke="#000000"/></g><path d="M180.74814,361.64977l60.45353,-27.52156" fill="none" stroke="#000000" stroke-linecap="round"/></g><g><g stroke-linecap="butt"><path d="M20.19712,195.9169c10.14576,2.66129 29.68739,9.57812 34.68489,17.4643c4.92422,7.77049 -4.60299,16.46186 -7.01573,25.6601c-4.86142,18.53344 -100.33113,169.03154 -120.47381,163.74801c-20.14268,-5.28353 -31.19552,-45.70954 -26.3341,-64.24299c4.86142,-18.53344 98.99608,-147.91298 119.13873,-142.62945z" fill="#840000" stroke="#000000"/><path d="M-77.6418,367.1577c7.14521,1.87422 24.60588,-1.83171 44.37685,-24.55712c38.34106,-44.07061 85.0696,-121.64554 79.99559,-102.30162c-7.69046,29.31875 -97.40313,163.04628 -118.40474,157.53744c-21.00159,-5.50883 -34.3235,-37.45024 -26.63304,-66.76899c7.69046,-29.31875 -0.33627,30.58145 20.66532,36.09028z" fill="#430000" stroke="none"/><path d="M20.57344,194.48211c9.45517,2.48014 31.33913,7.95356 36.39477,15.08333c5.71458,8.05901 -6.14623,18.20739 -8.72565,28.04106c-4.86142,18.53344 -100.33113,169.03154 -120.47381,163.74801c-20.14268,-5.28353 -31.19552,-45.70954 -26.3341,-64.24299c4.86142,-18.53344 98.99608,-147.91298 119.13873,-142.62945z" fill="none" stroke="#000000"/></g><path d="M-47.87599,259.11617l45.1694,55.22701" fill="none" stroke="#000000" stroke-linecap="round"/></g><g stroke-linecap="butt"><path d="M-27.15117,368.26156c10.65671,-40.62714 41.93698,-135.62777 79.04601,-170.37007c26.36086,-24.6796 57.53554,1.67414 77.95094,7.02921c26.2049,6.87368 56.91652,-6.61141 59.11102,40.01371c1.92192,40.83384 -9.07269,135.17533 -17.58265,167.61827c-18.22682,69.48709 -58.37865,56.89663 -107.53352,44.00305c-49.15484,-12.89357 -109.2186,-18.80707 -90.99177,-88.29419z" fill="#840000" stroke="#000000"/><path d="M-8.76294,373.89047c10.4701,-39.91571 38.95805,-113.59094 70.20747,-146.61539c19.30278,-20.3992 41.2751,-13.09798 55.86389,-9.27126c17.29681,4.53704 38.39778,5.8534 45.34818,36.91296c8.40226,37.54751 0.08462,108.02916 -9.18497,143.36813c-16.93748,64.57164 -59.29247,63.57523 -97.49921,53.5534c-38.20674,-10.02183 -81.67283,-13.37623 -64.73535,-77.94787z" fill="#7d3c3c" stroke="#000000"/><path d="M28.76493,280.6864c5.06614,-19.3139 42.22569,-73.09721 76.84086,-65.09422c1.16569,0.26948 31.85948,-6.99899 33.0315,-6.69157c35.97526,9.4365 33.15279,57.36154 27.91605,77.32584c-5.23674,19.96429 -41.74304,-29.69346 -77.7183,-39.12996c-35.97526,-9.4365 -65.30681,53.55421 -60.07008,33.58992z" fill="#5c2c2c" stroke="none"/><path d="M-31.17498,400.00165c4.57136,-17.42763 49.16792,-211.08267 101.89767,-197.25138c9.74503,2.55617 -18.93344,30.50805 -40.00873,69.71045c-25.70466,47.81358 -45.4151,110.12544 -36.99373,135.43866c22.0347,66.23269 168.75223,31.91128 166.05612,42.18979c-4.57136,17.42763 -51.0231,20.34303 -103.75286,6.51174c-52.72976,-13.83129 -91.76987,-39.17165 -87.19851,-56.59928z" fill="#430000" stroke="none"/><path d="M-8.59678,395.70853c3.00724,-11.46466 32.46651,1.63055 72.19743,12.05217c39.73091,10.42163 84.76843,-3.78939 81.7612,7.67524c-1.45306,5.53958 -10.19615,25.43607 -27.1114,33.65506c-18.09235,8.79093 -45.00653,5.57285 -65.53996,0.18683c-22.11784,-5.80162 -44.81036,-12.68875 -55.39297,-24.51227c-8.42726,-9.4154 -7.24743,-23.97467 -5.91429,-29.05706z" fill="#5c2c2c" stroke="none"/><path d="M61.98396,226.75537c19.30275,-20.39921 41.27507,-13.09798 55.86387,-9.27127c17.29684,4.53705 38.39781,5.8534 45.34821,36.91297c8.40223,37.5475 0.08459,108.02918 -9.18501,143.36815c-16.93747,64.57161 -59.29247,63.57523 -97.49921,53.5534c-38.20674,-10.02183 -81.67279,-13.37626 -64.73532,-77.94786c10.47009,-39.91568 38.95805,-113.59094 70.20747,-146.61539z" fill="none" stroke="#000000"/><path d="M54.07236,198.10062c26.36087,-24.67963 57.53552,1.6741 77.95095,7.02918c26.2049,6.87368 56.91652,-6.61144 59.11102,40.01371c1.92192,40.83384 -9.07273,135.17536 -17.58268,167.6183c-18.22682,69.48709 -58.37865,56.89663 -107.53352,44.00305c-49.15484,-12.89357 -109.2186,-18.80707 -90.99177,-88.29419c10.6567,-40.62711 41.93697,-135.62774 79.04601,-170.37004z" fill="none" stroke="#000000"/></g><g><path d="M102.74695,-21.80524c26.68164,6.99873 43.1595,32.31311 36.80432,56.54127c-6.35516,24.22813 -33.13679,38.19535 -59.81843,31.19662c-26.68161,-6.99872 -43.15947,-32.3131 -36.80429,-56.54126c6.35517,-24.22816 33.13676,-38.19536 59.8184,-31.19662z" fill="#840000" stroke="#000000" stroke-linecap="butt"/><path d="M61.30391,2.97937c-10.37684,18.60866 -4.5704,43.50812 7.10889,46.57166c23.7488,6.22943 71.18342,-21.37523 66.16949,-2.26034c-5.01394,19.11489 -28.33074,29.56063 -52.07954,23.33119c-16.07734,-4.21717 -39.5958,-25.35462 -42.84253,-48.73295c-0.86966,-6.2619 12.36637,-32.22209 28.19566,-41.1127c12.36961,-6.94747 27.99299,2.64052 28.70345,-0.068c2.54816,-9.71448 -24.53188,3.04073 -35.25543,22.27114z" fill="#430000" stroke="none" stroke-linecap="butt"/><path d="M102.83434,-20.89598c26.68164,6.99873 43.15949,32.31314 36.80432,56.54127c-6.35517,24.22816 -33.13679,38.19535 -59.81843,31.19662c-26.68164,-6.99873 -43.15949,-32.31314 -36.80432,-56.54127c6.35517,-24.22816 33.13679,-38.19535 59.81843,-31.19662z" fill="none" stroke="#000000" stroke-linecap="butt"/><path d="M48.25693,163.61482c14.27118,-7.93315 59.14917,6.43254 91.42454,14.89854c28.4438,7.46096 56.49918,6.56366 67.46778,18.95187c5.40876,6.1088 3.0385,25.58812 1.61249,31.02457c-4.31785,16.46118 -42.24675,20.77479 -84.71659,9.63473c-42.46984,-11.14006 -73.39812,-33.51527 -69.08026,-49.97645c1.03645,-3.95133 -11.21564,-22.02753 -6.70795,-24.53328z" fill="#000000" stroke="none" stroke-linecap="butt"/><g stroke-linecap="butt"><path d="M29.74194,167.26477c2.647,-10.09131 12.17582,-16.33533 21.28321,-13.94642c2.28233,0.59867 -7.52852,5.71376 -5.77394,11.51289c2.97681,9.83874 17.69684,23.81245 24.72039,36.77431c5.35593,9.88431 26.64359,19.40196 25.78537,22.67381c-0.55011,2.09721 82.34656,14.92823 79.00647,18.93058c-0.29279,0.35084 19.55731,-4.3317 30.18227,-14.71635c6.61615,-6.4665 4.9638,-20.88282 6.9775,-20.13726c5.93808,2.19857 18.86476,-0.75192 15.96934,11.24709c-1.15606,4.79084 -15.39441,13.05365 -19.94225,20.07342c-6.26307,9.66731 -3.41255,17.70416 -6.61907,17.65394c-28.29081,-0.44317 -123.89649,-15.28369 -127.7755,-18.29927c-12.7911,-9.94395 -27.2426,-47.89096 -32.11626,-49.16935c-9.1074,-2.38892 -14.34457,-12.50614 -11.69757,-22.59745z" fill="#840000" stroke="#000000"/><path d="M36.02377,157.05838c0.53382,-2.0351 5.79475,22.20673 22.13442,42.51091c13.39757,16.64824 32.08843,34.62829 40.4781,36.82895c18.6217,4.88457 104.54908,15.10288 103.57756,18.80665c-0.97152,3.70376 -83.18471,-5.49341 -101.8064,-10.37798c-4.99294,-1.30968 -14.62393,-0.92025 -26.23579,-11.34772c-9.41958,-8.45878 -16.2579,-22.36024 -24.72387,-34.54671c-4.51064,-6.49292 -12.09454,-12.32842 -14.99272,-16.97239c-9.96574,-15.96891 1.18154,-23.42575 1.56868,-24.90167z" fill="#430000" stroke="none"/><path d="M30.3099,166.61735c2.647,-10.09131 12.17582,-16.33533 21.28321,-13.94642c2.28233,0.59867 -7.52852,5.71376 -5.77394,11.51289c2.97681,9.83874 17.69684,23.81245 24.72039,36.77431c5.35595,9.88435 26.64362,19.40199 25.7854,22.67381c-0.5501,2.09718 82.34656,14.9282 79.00648,18.93055c-0.29279,0.35087 19.55731,-4.3317 30.18226,-14.71632c6.61615,-6.46647 4.96379,-20.88279 6.97749,-20.13723c5.93808,2.19857 18.86479,-0.75191 15.96934,11.24709c-1.15606,4.79084 -15.39441,13.05365 -19.94225,20.07342c-6.26307,9.66731 -3.41255,17.70416 -6.61907,17.65394c-28.2908,-0.4432 -123.89649,-15.28369 -127.77549,-18.2993c-12.79106,-9.94398 -27.24257,-47.89095 -32.11623,-49.16934c-9.1074,-2.38892 -14.34457,-12.50614 -11.69757,-22.59745z" fill="none" stroke="#000000"/></g><path d="M48.75204,178.39144l4.39772,-16.76565l160.20505,42.02262l-4.39772,16.76565z" fill="#ffffff" stroke="#000000" stroke-linecap="butt"/><path d="M48.75202,178.3914l4.39772,-16.76565l160.20505,42.02262l-4.39772,16.76565z" fill="none" stroke="#000000" stroke-linecap="butt"/><path d="M176.89283,29.78363c53.49883,14.03302 86.19222,66.10951 73.02278,116.31608c-6.69267,25.51484 -8.32666,52.11688 -29.34633,57.97806c-20.34158,5.6721 -59.74244,-8.87334 -86.0533,-15.77482c-24.74728,-6.49134 -73.50571,-12.15658 -88.09121,-25.62047c-16.94553,-15.64247 2.67692,-40.41859 9.75449,-67.40082c13.16944,-50.20656 67.21476,-79.53104 120.71357,-65.49803z" fill="#840000" stroke="#000000" stroke-linecap="butt"/><path d="M155.58987,106.73084c27.57247,7.2324 47.29913,23.10375 44.06074,35.44961c-3.23838,12.34586 -28.21552,16.49117 -55.78799,9.25877c-27.57247,-7.2324 -98.98885,-12.76998 -95.75046,-25.11585c1.02043,-3.89023 7.06738,-50.17335 32.31807,-77.75746c11.67252,-12.75118 45.99615,-18.20703 52.53531,-19.55431c9.87663,-2.03491 -48.95571,25.83158 -65.42559,57.31039c-9.16909,17.5248 20.45905,40.9784 20.82148,49.48121c0.4448,10.43638 25.17062,-20.57579 44.47979,-31.52306c5.96171,-3.37997 21.46891,2.11501 22.7487,2.4507z" fill="#430000" stroke="none" stroke-linecap="butt"/><path d="M177.08828,29.03849c53.49883,14.03302 86.19222,66.10951 73.02278,116.31608c-6.69267,25.51484 -8.32666,52.11688 -29.34633,57.97806c-20.34158,5.6721 -59.74244,-8.87334 -86.0533,-15.77482c-24.74728,-6.49134 -73.50571,-12.15658 -88.09121,-25.62047c-16.94553,-15.64247 2.67692,-40.41859 9.75449,-67.40082c13.16944,-50.20656 67.21476,-79.53104 120.71357,-65.49803z" fill="none" stroke="#000000" stroke-linecap="butt"/><path d="M87.59632,82.0625c20.78225,5.45129 61.35015,19.63342 57.626,33.8312c-3.72415,14.19777 3.00242,32.24568 -17.77982,26.79439c-20.78225,-5.45129 -69.10703,-11.31478 -65.38288,-25.51256c3.72415,-14.19777 4.75446,-40.56432 25.5367,-35.11303z" fill="#000000" stroke="#000000" stroke-linecap="butt"/><path d="M231.23458,163.94023c-3.72415,14.19777 -48.70517,-4.41333 -69.48742,-9.86462c-20.78225,-5.45129 -6.0631,-17.87388 -2.33895,-32.07165c3.72415,-14.19777 46.0301,-6.64166 66.81234,-1.19037c20.78225,5.45129 8.73818,28.92887 5.01403,43.12665z" data-paper-data="{&quot;index&quot;:null}" fill="#000000" stroke="#000000" stroke-linecap="butt"/><path d="M58.75122,126.55271c17.37443,-0.66997 53.4425,12.59755 81.61784,19.98809c30.23551,7.93093 66.85287,13.44222 81.23011,23.10738c8.71369,5.85779 0.4097,23.92323 -0.73087,28.27151c-3.0225,11.52284 -42.88421,3.0866 -91.44467,-9.65106c-21.53442,-5.64859 -58.89433,-13.42959 -73.38143,-20.48901c-18.18157,-8.8597 -10.7545,-17.02551 -9.07235,-23.43848c1.26881,-4.83715 -0.78919,-17.3037 11.78136,-17.78843z" fill="#7d3c3c" stroke="#000000" stroke-linecap="butt"/><path d="M87.71362,130.76866c8.13362,2.13349 -10.57785,-0.01692 -21.50121,4.29974c-10.76415,4.25378 -13.75657,14.95755 -4.09132,19.40261c40.57359,18.65985 160.38375,39.30201 159.2532,43.61207c-1.67317,6.37872 -43.39638,0.96123 -93.19145,-12.10027c-49.79504,-13.0615 -88.80555,-28.82088 -87.13238,-35.19961c1.67317,-6.37872 -3.13188,-33.07605 46.66316,-20.01455z" fill="#5c2c2c" stroke="none" stroke-linecap="butt"/><path d="M60.6324,125.45334c17.37443,-0.66997 53.4425,12.59755 81.61784,19.98809c30.23551,7.93093 66.85287,13.44222 81.23011,23.10738c8.71369,5.85779 0.4097,23.92323 -0.73087,28.27151c-3.02249,11.52281 -42.88421,3.0866 -91.44467,-9.65106c-21.53442,-5.64859 -58.89433,-13.42959 -73.38143,-20.48901c-18.18157,-8.8597 -10.7545,-17.02551 -9.07235,-23.43848c1.26881,-4.83715 -0.78919,-17.3037 11.78136,-17.78843z" fill="none" stroke="#000000" stroke-linecap="butt"/><path d="M125.48487,114.90464c1.49028,0.39091 1.09937,1.88119 1.09937,1.88119c-0.65152,2.48382 -1.69393,6.45786 -2.34545,8.94168c0,0 -0.39091,1.49028 -1.88119,1.09937c-1.49028,-0.39091 -1.09937,-1.88119 -1.09937,-1.88119c0.65152,-2.48382 1.30302,-4.96758 1.95454,-7.4514l0.39091,-1.49028c0,0 0.39091,-1.49028 1.88119,-1.09937z" fill="#ffffff" stroke="none" stroke-linecap="butt"/><path d="M177.68133,125.41041c1.49028,0.39091 1.09937,1.88119 1.09937,1.88119l-0.19545,0.74514c-1.11095,4.23534 -3.06573,8.39713 -4.06786,12.47192c0,0 -0.39091,1.49028 -1.88119,1.09937c-1.49028,-0.39091 -1.09937,-1.88119 -1.09937,-1.88119c1.13536,-4.14016 2.93835,-8.16582 4.06786,-12.47192l0.19545,-0.74514c0,0 0.39091,-1.49028 1.88119,-1.09937z" fill="#ffffff" stroke="none" stroke-linecap="butt"/><path d="M314.13731,88.01108c-0.66341,-0.17402 -0.2725,-1.6643 -0.2725,-1.6643l0.39091,-1.49028c0.52634,-1.63544 -1.03739,-4.72958 -1.30838,-6.38459c-0.06692,-0.40872 -0.02066,-0.78775 0.06819,-1.10839c0.07998,-0.32301 0.22572,-0.67594 0.48463,-0.99916c0.06774,-0.08459 0.13095,-0.15176 0.18983,-0.20401c-0.24571,0.00292 -0.54089,-0.17781 -0.17475,-1.31012c0.61169,-1.89174 1.36335,-1.71021 2.05848,-2.77709c1.12926,-1.73326 0.99032,-5.54736 3.17128,-8.27015c0,0 0.74552,-0.93073 0.93822,0.2461c0.1927,1.17683 -0.55283,2.10758 -0.55283,2.10758c-2.1868,2.73012 -3.53702,8.5174 -4.5245,11.27546c0.59765,2.46919 1.81497,4.22448 0.97664,7.77246l-0.39091,1.49028c0,0 -0.39091,1.49028 -1.05432,1.31626z" fill="#ffffff" stroke="none" stroke-linecap="butt"/><path d="M123.02559,132.57695l0.39091,-1.49028c1.01112,-3.50265 2.93327,-4.43442 4.66592,-6.29238c0.49343,-2.88768 2.1577,-8.59256 1.59249,-12.04454c0,0 -0.19269,-1.17686 0.55283,-2.10758c0.74553,-0.93076 0.93819,0.24609 0.93819,0.24609c0.56368,3.44276 -1.42945,6.69757 -1.29633,8.76196c0.08193,1.27071 0.82594,1.48154 0.43034,3.42995c-0.23678,1.16624 -0.58266,1.17879 -0.79531,1.05567c0.02566,0.07439 0.04772,0.16396 0.06525,0.27092c0.06692,0.40872 0.02069,0.78776 -0.0682,1.10842c-0.07995,0.32301 -0.22572,0.67594 -0.48464,0.99919c-1.04844,1.30892 -3.92953,3.23715 -4.2737,4.92038l-0.39091,1.49028c0,0 -0.39091,1.49028 -1.05432,1.31626c-0.66341,-0.17402 -0.2725,-1.6643 -0.2725,-1.6643z" data-paper-data="{&quot;index&quot;:null}" fill="#ffffff" stroke="none" stroke-linecap="butt"/><path d="M166.77201,146.8393c-0.66341,-0.17402 -0.2725,-1.6643 -0.2725,-1.6643l0.39091,-1.49028c0.52634,-1.63544 -1.03736,-4.72957 -1.30836,-6.38455c-0.06692,-0.40872 -0.02069,-0.78776 0.0682,-1.10842c0.07995,-0.32301 0.22572,-0.67594 0.48464,-0.99919c0.06777,-0.08458 0.13093,-0.15179 0.18983,-0.20401c-0.24574,0.00292 -0.54089,-0.17778 -0.17475,-1.31012c0.61169,-1.89174 1.36339,-1.71023 2.05849,-2.77712c1.12926,-1.73326 0.99032,-5.54736 3.17128,-8.27015c0,0 0.74553,-0.93076 0.93819,0.24609c0.19269,1.17686 -0.55283,2.10758 -0.55283,2.10758c-2.1868,2.73012 -3.53701,8.51737 -4.5245,11.27546c0.59765,2.46919 1.81498,4.22445 0.97667,7.77246l-0.39091,1.49028c0,0 -0.39091,1.49028 -1.05432,1.31626z" data-paper-data="{&quot;index&quot;:null}" fill="#ffffff" stroke="none" stroke-linecap="butt"/><path d="M175.16704,147.84674l0.39091,-1.49028c1.01112,-3.50265 2.93327,-4.43442 4.66592,-6.29238c0.49343,-2.88768 2.1577,-8.59256 1.59249,-12.04454c0,0 -0.19269,-1.17686 0.55283,-2.10758c0.74553,-0.93076 0.93819,0.24609 0.93819,0.24609c0.56368,3.44276 -1.42945,6.69757 -1.29633,8.76196c0.08193,1.27071 0.82594,1.48154 0.43034,3.42995c-0.23678,1.16624 -0.58266,1.17879 -0.79531,1.05567c0.02566,0.07439 0.04772,0.16396 0.06525,0.27092c0.06692,0.40872 0.02069,0.78776 -0.0682,1.10842c-0.07995,0.32301 -0.22572,0.67594 -0.48464,0.99919c-1.04844,1.30892 -3.92953,3.23715 -4.2737,4.92038l-0.39091,1.49028c0,0 -0.39091,1.49028 -1.05432,1.31626c-0.66341,-0.17402 -0.2725,-1.6643 -0.2725,-1.6643z" data-paper-data="{&quot;index&quot;:null}" fill="#ffffff" stroke="none" stroke-linecap="butt"/><path d="M146.1051,142.90375c15.53524,4.07497 26.81641,12.38254 25.19722,18.55549c-1.6192,6.17295 -15.5256,7.87368 -31.06084,3.79871c-15.53524,-4.07497 -26.81641,-12.38254 -25.19722,-18.55549c1.6192,-6.17295 15.5256,-7.87368 31.06084,-3.79871z" fill="#000000" stroke="#000000" stroke-linecap="butt"/><path d="M81.01913,175.30731l-1.95454,7.4514" fill="none" stroke="#000000" stroke-linecap="round"/><path d="M123.18661,196.72137l2.5409,-9.68682" fill="none" stroke="#000000" stroke-linecap="round"/><path d="M159.92456,194.81l-4.3427,12.00163" fill="none" stroke="#000000" stroke-linecap="round"/><path d="M191.44629,215.82085l5.39936,-14.51189" fill="none" stroke="#000000" stroke-linecap="round"/><g stroke-linecap="butt"><path d="M195.13528,26.00351c3.33705,-3.83473 16.66559,-11.09914 25.30085,-24.75239c15.46485,-24.45153 29.30082,-59.29885 39.18631,-59.85152c20.8462,-1.16547 46.33247,47.72645 56.33355,56.42957c3.4514,3.00344 31.18627,2.10822 30.68406,6.82292c-0.99922,9.38065 -23.71548,20.22137 -39.85695,33.73263c-16.62642,13.91714 -26.80316,30.51677 -35.7165,40.75942c-21.91593,25.18438 -38.13746,9.5734 -55.52938,-5.56136c-17.39191,-15.13476 -42.31786,-22.39492 -20.40194,-47.57931z" fill="#410000" stroke="#000000"/><path d="M218.58643,6.52715c6.78114,-7.79248 29.79627,-79.35708 47.6399,-63.8292c10.94007,9.52028 -32.29833,42.25716 -30.5031,73.61663c1.13286,19.78887 50.10426,43.42913 47.4807,46.44397c-6.78117,7.79247 -26.74351,1.52171 -44.58715,-14.00617c-17.84364,-15.52788 -26.81155,-34.43276 -20.03038,-42.22523z" fill="#170000" stroke="none"/><path d="M195.11311,25.68337c3.33702,-3.83474 16.66555,-11.09912 25.30082,-24.7524c15.46485,-24.45153 29.30082,-59.29885 39.18631,-59.85152c20.84617,-1.16548 46.33247,47.72645 56.33355,56.42957c3.4514,3.00344 31.18624,2.10821 30.68403,6.82291c-0.99919,9.38066 -23.71545,20.22138 -39.85695,33.73263c-16.62643,13.91717 -26.80316,30.51677 -35.7165,40.75942c-21.91593,25.18438 -38.13746,9.5734 -55.52938,-5.56136c-17.39191,-15.13479 -42.31786,-22.39492 -20.40194,-47.57931z" fill="none" stroke="#000000"/><path d="M276.20486,103.65862c-5.70037,6.5505 -7.58075,21.71287 -23.76943,13.59757c-9.64945,-4.83724 -32.02206,-28.88228 -42.2388,-37.77309c-11.65659,-10.14377 -34.5885,-28.36806 -40.80862,-38.30585c-8.3781,-13.38553 2.5261,-17.73032 7.7476,-23.73056c4.73539,-5.44163 13.80767,-13.92888 26.43177,-9.01138c11.63064,4.53054 26.45811,21.7711 39.57645,33.18693c11.9341,10.38528 39.1232,28.00903 45.33702,38.1373c8.03048,13.08935 -7.14679,18.00489 -12.276,23.89908z" data-paper-data="{&quot;index&quot;:null}" fill="#410000" stroke="#000000"/><path d="M207.88584,13.02684c8.25272,3.0116 51.27672,38.46391 68.68725,56.53716c14.15043,14.68907 10.99626,16.15184 14.93369,19.57827c1.73954,1.51376 -2.07565,17.33867 -8.802,11.37005c-8.93945,-7.9324 -2.17774,-15.70716 -15.35554,-30.49093c-14.44058,-16.20047 -54.99153,-44.57913 -64.7654,-47.52317c-6.20909,-1.87028 -11.77204,-0.6615 -16.06056,1.66954c-5.55762,3.02086 -8.97495,7.9264 -8.88457,10.45772c0.47944,13.42871 90.27653,78.73616 86.81224,82.71712c-6.6829,7.67954 -45.74075,-26.14954 -67.08534,-44.72403c-21.34459,-18.57449 -33.23026,-39.85757 -26.54739,-47.53712c3.93329,-4.51988 15.66722,-19.86405 37.06761,-12.0546z" fill="#170000" stroke="none"/><path d="M276.25247,104.34475c-5.70037,6.5505 -7.58072,21.71287 -23.76943,13.59757c-9.64945,-4.83721 -32.02206,-28.88228 -42.23883,-37.7731c-11.65659,-10.14377 -34.58847,-28.36806 -40.80862,-38.30585c-8.3781,-13.38553 2.5261,-17.73032 7.7476,-23.73056c4.73539,-5.4416 13.8077,-13.92888 26.43177,-9.01138c11.63065,4.53051 26.45811,21.7711 39.57645,33.18693c11.9341,10.38528 39.1232,28.00903 45.33702,38.13733c8.03048,13.08935 -7.14679,18.00489 -12.276,23.89908z" data-paper-data="{&quot;index&quot;:null}" fill="none" stroke="#000000"/></g></g><g><path d="M-151.99236,358.4264c12.46504,-21.90843 38.75475,-30.46024 58.71968,-19.10096c19.96494,11.35925 26.04483,38.32809 13.57979,60.23651c-12.46504,21.90846 -38.75478,30.46023 -58.71971,19.10095c-19.96497,-11.35926 -26.04483,-38.32809 -13.57979,-60.23651z" fill="#840000" stroke="#000000" stroke-linecap="butt"/><path d="M-157.3923,375.13128c7.0367,-12.36767 19.41908,-49.93086 37.08718,-39.8784c2.96424,1.68652 -11.76083,11.96311 -18.06476,27.48318c-5.97961,14.72157 -3.54847,34.63535 -1.25531,39.34263c9.69895,19.90951 50.95108,1.1312 46.21473,9.45574c-7.03672,12.36764 -27.06391,14.24452 -44.73201,4.19205c-17.6681,-10.05246 -26.28655,-28.22757 -19.24982,-40.59523z" fill="#430000" stroke="none" stroke-linecap="butt"/><path d="M-94.52566,341.34535c19.96497,11.35926 26.04483,38.32809 13.57979,60.23651c-12.46504,21.90846 -38.75472,30.46025 -58.71968,19.10096c-19.96497,-11.35926 -26.04483,-38.32809 -13.57979,-60.23651c12.46504,-21.90846 38.75472,-30.46025 58.71968,-19.10096z" fill="none" stroke="#000000" stroke-linecap="butt"/><g><path d="M-94.8076,443.98648c9.4493,-16.608 -16.6878,-41.67833 -8.56045,-37.0542c3.79854,2.1612 22.85948,-11.86792 32.12049,-1.98095c10.55381,11.26718 10.90448,46.93479 5.87158,55.78059c-9.44931,16.60803 -23.69795,26.32286 -31.82529,21.69873c-8.12735,-4.62413 -7.05567,-21.83616 2.39364,-38.44419z" fill="#840000" stroke="#000000" stroke-linecap="butt"/><path d="M-100.56199,411.02761c-0.88586,-9.76499 10.19882,-9.59646 11.88455,-8.63735c4.59372,2.61364 14.09713,64.53727 10.17667,71.42782c-3.92046,6.89055 -10.82256,10.35767 -15.41625,7.74404c-4.59369,-2.61364 -6.75033,-9.9798 -2.82987,-16.87036c2.48178,-4.36196 -2.15077,-35.31761 -3.81509,-53.66415z" fill="#430000" stroke="none" stroke-linecap="butt"/><path d="M-103.94617,406.28129c3.79854,2.1612 22.85948,-11.86792 32.12049,-1.98095c10.55381,11.26718 10.90448,46.93479 5.87158,55.78059c-9.4493,16.608 -23.69798,26.32285 -31.82529,21.69873c-8.12732,-4.62412 -7.05563,-21.83618 2.39367,-38.44418c9.4493,-16.608 -16.68777,-41.67832 -8.56045,-37.0542z" fill="none" stroke="#000000" stroke-linecap="butt"/><path d="M-91.55406,439.57809l27.66657,0.49631" fill="none" stroke="#000000" stroke-linecap="round"/></g><g data-paper-data="{&quot;index&quot;:null}"><path d="M-185.94497,406.79932c-3.77623,18.73116 -14.26818,32.4177 -23.43452,30.56973c-9.16631,-1.84794 -13.53583,-18.53055 -9.7596,-37.26171c2.0113,-9.97664 25.69291,-36.65025 41.05091,-38.22007c13.47667,-1.3775 18.64361,21.71881 22.92773,22.58248c9.16631,1.84794 -27.00835,3.5984 -30.78454,22.32951z" fill="#840000" stroke="#000000" stroke-linecap="butt"/><path d="M-198.07593,423.6904c-1.56673,7.77143 -8.02963,11.91178 -13.21058,10.86731c-5.18095,-1.04447 -8.11087,-8.19119 -6.54414,-15.96262c1.56673,-7.77143 49.3902,-48.24072 54.57118,-47.19623c1.90122,0.38328 10.37296,7.53364 3.29369,14.31771c-13.30055,12.74601 -37.11836,33.05424 -38.11017,37.97383z" fill="#430000" stroke="none" stroke-linecap="butt"/><path d="M-185.08151,406.68785c-3.77619,18.73114 -14.26818,32.4177 -23.43449,30.56976c-9.16628,-1.84793 -13.53583,-18.53058 -9.7596,-37.26171c2.0113,-9.97664 25.69291,-36.65025 41.05091,-38.22007c13.47667,-1.3775 18.64361,21.71881 22.92773,22.58248c9.16628,1.84793 -27.00835,3.5984 -30.78454,22.32951z" fill="none" stroke="#000000" stroke-linecap="butt"/><path d="M-206.69944,383.54829l21.19456,17.78976" fill="none" stroke="#000000" stroke-linecap="round"/></g><g data-paper-data="{&quot;index&quot;:null}"><path d="M-152.34227,433.40751c0.08085,19.10784 -7.43378,34.62985 -16.78444,34.66941c-9.35065,0.03956 -16.99637,-15.41828 -17.07722,-34.52612c-0.04305,-10.17725 17.76951,-41.08055 32.49489,-45.71687c12.92157,-4.06837 22.64239,17.51036 27.01267,17.49188c9.35065,-0.03956 -25.72679,8.97388 -25.64593,28.08169z" fill="#840000" stroke="#000000" stroke-linecap="butt"/><path d="M-160.81564,452.39886c0.03355,7.92771 -5.46102,13.28692 -10.74616,13.30932c-5.28513,0.02237 -9.59679,-6.38618 -9.63034,-14.31389c-0.03355,-7.92771 38.64081,-57.21406 43.92597,-57.23642c1.93946,-0.0082 11.67972,5.28573 6.11488,13.35867c-10.45523,15.16752 -29.68557,39.8638 -29.66434,44.88232z" fill="#430000" stroke="none" stroke-linecap="butt"/><path d="M-151.51908,433.12409c0.08086,19.10781 -7.43378,34.62985 -16.78441,34.66941c-9.35062,0.03956 -16.99636,-15.41831 -17.07722,-34.52612c-0.04305,-10.17725 17.76951,-41.08055 32.49489,-45.71687c12.92157,-4.06837 22.64239,17.51036 27.01267,17.49188c9.35062,-0.03956 -25.72679,8.97388 -25.64593,28.08169z" fill="none" stroke="#000000" stroke-linecap="butt"/><path d="M-153.01314,427.96973l-24.34812,-13.14741" fill="none" stroke="#000000" stroke-linecap="round"/></g><g data-paper-data="{&quot;index&quot;:null}"><path d="M-122.72174,448.93217c7.25783,17.67597 6.12932,34.88437 -2.52063,38.43608c-8.64994,3.55171 -21.54571,-7.89822 -28.80354,-25.57419c-3.86568,-9.4146 1.02343,-44.74729 12.9259,-54.57905c10.44448,-8.62737 27.56405,7.71444 31.60686,6.05446c8.64994,-3.55171 -20.46643,17.98677 -13.20859,35.6627z" fill="#840000" stroke="#000000" stroke-linecap="butt"/><path d="M-123.43449,469.71586c3.01125,7.33363 -0.06575,14.36528 -4.95482,16.37276c-4.88908,2.0075 -11.29357,-2.3102 -14.30479,-9.64383c-3.01125,-7.33363 14.29906,-67.54328 19.18817,-69.55078c1.79414,-0.73668 12.81002,0.50746 10.68808,10.08019c-3.9867,17.98531 -12.52286,48.09921 -10.61666,52.74165z" fill="#430000" stroke="none" stroke-linecap="butt"/><path d="M-122.06548,448.36008c7.25784,17.67594 6.12932,34.88437 -2.52059,38.43605c-8.64991,3.55171 -21.54571,-7.89825 -28.80354,-25.57419c-3.86568,-9.4146 1.02343,-44.74729 12.9259,-54.57905c10.44448,-8.62737 27.56405,7.71444 31.60686,6.05446c8.64991,-3.55171 -20.46643,17.98677 -13.20859,35.6627z" fill="none" stroke="#000000" stroke-linecap="butt"/><path d="M-152.89216,441.11513l27.50459,3.0303" fill="none" stroke="#000000" stroke-linecap="round"/></g></g><g data-paper-data="{&quot;index&quot;:null}"><path d="M265.04197,470.80728c0.10666,25.20605 -18.42776,45.71842 -41.39781,45.8156c-22.97003,0.09722 -41.67743,-20.25754 -41.78409,-45.46362c-0.10666,-25.20605 18.42779,-45.71841 41.39781,-45.8156c22.97003,-0.09722 41.67739,20.25757 41.78406,45.46361z" fill="#840000" stroke="#000000" stroke-linecap="butt"/><path d="M261.54727,488.01189c0.06022,14.22923 -16.36965,25.83403 -36.69713,25.92006c-20.32748,0.08603 -36.85493,-11.37933 -36.91516,-25.60853c-0.04054,-9.57754 26.68327,27.03122 44.90585,14.44567c4.30843,-2.97565 16.20102,-19.13224 18.2172,-34.89344c2.12555,-16.61608 -5.65952,-32.7972 -2.24912,-32.81162c20.32748,-0.08603 12.67816,38.71867 12.73835,52.9479z" fill="#430000" stroke="none" stroke-linecap="butt"/><path d="M265.14217,473.18214c0.10666,25.20605 -18.42776,45.71842 -41.39781,45.8156c-22.97006,0.09721 -41.6774,-20.25754 -41.78406,-45.46361c-0.10666,-25.20605 18.42776,-45.71842 41.39781,-45.8156c22.97006,-0.09721 41.6774,20.25754 41.78406,45.46361z" fill="none" stroke="#000000" stroke-linecap="butt"/><g><path d="M173.22354,517.28305c0.08085,19.10784 -7.43378,34.62985 -16.78444,34.66941c-9.35065,0.03956 -16.99637,-15.41828 -17.07722,-34.52612c-0.04305,-10.17725 17.76951,-41.08055 32.49489,-45.71687c12.92157,-4.06837 22.64239,17.51036 27.01267,17.49188c9.35065,-0.03956 -25.72679,8.97388 -25.64593,28.08169z" fill="#840000" stroke="#000000" stroke-linecap="butt"/><path d="M164.75017,536.27441c0.03355,7.92771 -5.46102,13.28692 -10.74616,13.30932c-5.28513,0.02237 -9.59679,-6.38618 -9.63034,-14.31389c-0.03355,-7.92771 38.64081,-57.21406 43.92597,-57.23642c1.93946,-0.0082 11.67969,5.28572 6.11485,13.35866c-10.45523,15.16752 -29.68557,39.8638 -29.66434,44.88232z" fill="#430000" stroke="none" stroke-linecap="butt"/><path d="M174.04673,516.99963c0.08086,19.10781 -7.43378,34.62985 -16.78441,34.66941c-9.35062,0.03956 -16.99636,-15.41831 -17.07722,-34.52612c-0.04305,-10.17725 17.76951,-41.08055 32.49489,-45.71687c12.92157,-4.06837 22.64239,17.51036 27.01267,17.49188c9.35062,-0.03956 -25.72679,8.97388 -25.64593,28.08169z" fill="none" stroke="#000000" stroke-linecap="butt"/><path d="M172.55267,511.84527l-24.34812,-13.14741" fill="none" stroke="#000000" stroke-linecap="round"/></g><g data-paper-data="{&quot;index&quot;:null}"><path d="M270.87988,529.61747c5.90396,-18.17301 -24.75405,-37.454 -15.86086,-34.56484c4.15647,1.35034 19.99473,-16.23623 31.06016,-8.42121c12.61014,8.90598 20.15027,43.76925 17.00574,53.4486c-5.90396,18.17301 -17.89938,30.56305 -26.79255,27.67389c-8.89319,-2.88917 -11.31645,-19.96343 -5.41253,-38.13646z" fill="#840000" stroke="#000000" stroke-linecap="butt"/><path d="M258.59371,498.49754c-2.83794,-9.38541 8.05274,-11.4569 9.89731,-10.85764c5.0266,1.63302 26.82893,60.36551 24.37942,67.90539c-2.44951,7.53988 -8.51009,12.32834 -13.53666,10.69532c-5.02657,-1.63301 -8.62515,-8.41251 -6.17564,-15.95239c1.55064,-4.773 -9.23257,-34.15726 -14.56448,-51.79066z" fill="#430000" stroke="none" stroke-linecap="butt"/><path d="M254.32145,494.53169c4.1565,1.35035 19.99473,-16.23623 31.06019,-8.4212c12.61014,8.90598 20.15027,43.76925 17.00573,53.44863c-5.90396,18.17301 -17.89937,30.56302 -26.79257,27.67385c-8.89316,-2.88916 -11.31642,-19.96346 -5.41247,-38.13644c5.90393,-18.17302 -24.75405,-37.454 -15.86086,-34.56484z" fill="none" stroke="#000000" stroke-linecap="butt"/><path d="M300.37473,519.54709l-27.19771,5.09622" fill="none" stroke="#000000" stroke-linecap="round"/></g><g data-paper-data="{&quot;index&quot;:null}"><path d="M228.54321,536.30637c9.4493,-16.608 -16.6878,-41.67833 -8.56045,-37.0542c3.79854,2.1612 22.85948,-11.86792 32.12049,-1.98095c10.55381,11.26718 10.90448,46.93479 5.87158,55.78059c-9.44931,16.60803 -23.69795,26.32286 -31.82529,21.69873c-8.12735,-4.62413 -7.05567,-21.83616 2.39364,-38.44419z" fill="#840000" stroke="#000000" stroke-linecap="butt"/><path d="M222.78883,503.34749c-0.88586,-9.76499 10.19879,-9.59647 11.88452,-8.63736c4.59372,2.61364 14.09713,64.53727 10.17667,71.42782c-3.92046,6.89055 -10.82256,10.35767 -15.41625,7.74404c-4.59369,-2.61364 -6.75033,-9.97983 -2.82987,-16.87039c2.48178,-4.36196 -2.15074,-35.3176 -3.81506,-53.66414z" fill="#430000" stroke="none" stroke-linecap="butt"/><path d="M219.40463,498.6012c3.79854,2.1612 22.85948,-11.86792 32.12049,-1.98095c10.55381,11.26718 10.90448,46.93479 5.87158,55.78059c-9.4493,16.608 -23.69798,26.32285 -31.82529,21.69873c-8.12732,-4.62412 -7.05563,-21.83618 2.39367,-38.44418c9.4493,-16.608 -16.68777,-41.67832 -8.56045,-37.0542z" fill="none" stroke="#000000" stroke-linecap="butt"/><path d="M231.79675,531.89801l27.66657,0.49631" fill="none" stroke="#000000" stroke-linecap="round"/></g><g data-paper-data="{&quot;index&quot;:null}"><path d="M195.1162,535.29336c14.99943,-11.83774 0.20367,-44.89459 5.99665,-37.55443c2.70752,3.4306 25.64417,-2.40422 30.50926,10.23889c5.54426,14.40813 -7.53878,47.59147 -15.5278,53.89652c-14.99944,11.83777 -31.85495,15.48378 -37.64794,8.14365c-5.79298,-7.34016 1.67038,-22.8869 16.66982,-34.72467z" fill="#840000" stroke="#000000" stroke-linecap="butt"/><path d="M202.1736,502.58871c2.84992,-9.38178 13.05821,-5.05871 14.25977,-3.53624c3.27428,4.14879 -11.19736,65.10304 -17.42052,70.01444c-6.22315,4.9114 -13.92237,5.52963 -17.19662,1.38084c-3.27425,-4.14879 -2.50369,-11.78539 3.7195,-16.69679c3.93949,-3.10909 11.28342,-33.53568 16.6379,-51.16225z" fill="#430000" stroke="none" stroke-linecap="butt"/><path d="M200.82183,496.91836c2.70752,3.4306 25.64414,-2.40423 30.50926,10.23889c5.54423,14.40812 -7.53878,47.59147 -15.5278,53.89652c-14.99943,11.83774 -31.85498,15.48377 -37.64794,8.14365c-5.79292,-7.34014 1.67042,-22.88692 16.66985,-34.72466c14.99943,-11.83774 0.20369,-44.89456 5.99665,-37.55443z" fill="none" stroke="#000000" stroke-linecap="butt"/><path d="M225.23907,543.29156l-25.45079,-10.86021" fill="none" stroke="#000000" stroke-linecap="round"/></g></g></g></g></svg>