<svg version="1.1" xmlns="http://www.w3.org/2000/svg" xmlns:xlink="http://www.w3.org/1999/xlink" width="164.23184" height="330.0444" viewBox="0,0,164.23184,330.0444"><g transform="translate(-158.43076,-13.48764)"><g data-paper-data="{&quot;isPaintingLayer&quot;:true}" fill-rule="nonzero" stroke-linejoin="miter" stroke-miterlimit="10" stroke-dasharray="" stroke-dashoffset="0" style="mix-blend-mode: normal"><g stroke-linecap="butt"><path d="M256.37103,264.03934l-2.64817,-58.40539l9.26254,-0.41997l2.64818,58.40539z" data-paper-data="{&quot;index&quot;:null}" fill="#1b1b1b" stroke="#000000" stroke-width="2.5"/><path d="M252.48064,321.01238l3.91783,-58.33398l9.2512,0.62134l-3.91783,58.33398z" data-paper-data="{&quot;index&quot;:null}" fill="#1b1b1b" stroke="#000000" stroke-width="2.5"/><path d="M273.87427,285.56605c-0.6462,9.36588 -6.86446,16.56555 -13.88887,16.0809c-7.02441,-0.48465 -12.19497,-8.4701 -11.54878,-17.83597c0.18761,-2.71925 0.44377,-22.54635 3.49854,-28.25378c3.171,-5.92461 9.17972,2.17194 11.35846,-5.9909c2.9515,-11.05807 -0.40581,-28.00969 2.46213,-27.81182c7.02441,0.48465 8.76472,54.44567 8.11853,63.81155z" data-paper-data="{&quot;index&quot;:null}" fill="#444444" stroke="#000000" stroke-width="0"/><path d="M273.34863,289.83786c-0.43569,6.31487 -6.25324,11.05708 -12.99383,10.59202c-2.59341,-0.17893 -9.63274,-2.11568 -11.12264,-8.97176c-2.38255,-10.96368 1.62347,-29.21604 1.89153,-33.10129c0.13734,-1.9906 10.41659,39.76132 16.43012,35.94005c3.60088,-2.28816 1.29153,-18.09887 2.66487,-24.02239c3.60896,-15.56622 -6.53333,-48.09822 -3.18983,-47.86754c6.74061,0.46507 6.75549,61.11604 6.31979,67.43091z" data-paper-data="{&quot;index&quot;:null}" fill="#282828" stroke="none" stroke-width="0"/><path d="M273.89199,285.30912c-0.6462,9.36588 -6.86446,16.56554 -13.88887,16.08089c-7.02441,-0.48465 -12.19497,-8.47009 -11.54878,-17.83596c0.18761,-2.71925 0.44377,-22.54638 3.49854,-28.25379c3.171,-5.92461 9.17972,2.17193 11.35845,-5.9909c2.9515,-11.05807 -0.4058,-28.00967 2.46214,-27.8118c7.02441,0.48465 8.76472,54.44568 8.11852,63.81156z" data-paper-data="{&quot;index&quot;:null}" fill="none" stroke="#000000" stroke-width="3"/></g><g stroke-linecap="butt"><path d="M222.84509,261.15056l11.05346,-57.411l9.10483,1.75297l-11.05346,57.411z" data-paper-data="{&quot;index&quot;:null}" fill="#1b1b1b" stroke="#000000" stroke-width="2.5"/><path d="M218.32936,319.12035l4.54595,-58.28839l9.24398,0.72094l-4.54595,58.28839z" data-paper-data="{&quot;index&quot;:null}" fill="#1b1b1b" stroke="#000000" stroke-width="2.5"/><path d="M211.52191,281.6774c0.71289,-9.36104 10.22629,-62.50533 17.24707,-61.97066c2.86645,0.2183 -2.90329,16.50753 -1.57937,27.87589c0.9773,8.39189 8.09209,1.24778 10.37442,7.56814c2.19866,6.08868 -0.41065,25.74502 -0.61763,28.46287c-0.71289,9.36104 -6.98227,16.51623 -14.00306,15.98157c-7.02077,-0.53466 -12.13434,-8.55673 -11.42145,-17.91778z" fill="#444444" stroke="#000000" stroke-width="0"/><path d="M211.42522,285.98034c0.48067,-6.3116 9.25266,-66.32487 15.98978,-65.8118c3.34175,0.25449 -11.39148,30.98117 -10.0679,46.90536c0.50366,6.05975 -4.06437,21.37134 -0.83159,24.15543c5.39877,4.64951 21.59877,-35.18069 21.44725,-33.19113c-0.29573,3.88324 1.03289,22.52276 -2.9077,33.02754c-2.46422,6.5691 -9.70943,7.46917 -12.30151,7.27177c-6.73711,-0.51307 -11.80897,-6.04556 -11.32831,-12.35718z" fill="#282828" stroke="none" stroke-width="0"/><path d="M211.54147,281.42062c0.71289,-9.36104 10.2263,-62.50534 17.24707,-61.97067c2.86646,0.2183 -2.90328,16.50752 -1.57936,27.87588c0.97728,8.39187 8.09208,1.24778 10.37441,7.56814c2.19866,6.08867 -0.41065,25.74502 -0.61763,28.46288c-0.71289,9.36104 -6.98227,16.51622 -14.00306,15.98156c-7.02077,-0.53466 -12.13434,-8.55673 -11.42145,-17.91777z" fill="none" stroke="#000000" stroke-width="3"/></g><g data-paper-data="{&quot;index&quot;:null}" stroke-linecap="butt"><g><path d="M296.86279,323.63141c0,3.46303 2.88695,8.34782 -1.24827,10.74253c-4.79665,2.77775 -17.17574,2.80122 -24.94421,2.80122c-7.25019,0 -16.51263,-0.48803 -21.25521,-2.94933c-4.71986,-2.44953 -4.93725,-6.86339 -4.93725,-10.59442c0,-7.48001 11.72677,-13.54375 26.19246,-13.54375c14.46568,0 26.19245,6.06374 26.19245,13.54375z" fill="#444444" stroke="#000000" stroke-width="0"/><path d="M297.39013,330.8036c0,4.00204 -11.88797,7.24633 -26.5525,7.24633c-14.66453,0 -26.55249,-3.24429 -26.55249,-7.24633c0,-4.00204 -2.15336,-17.9433 12.51118,-17.9433c2.49808,0 -3.31978,3.4237 -6.72565,7.66328c-3.12289,3.88732 -3.90257,8.57051 -1.08241,9.5949c6.29226,2.2856 22.27373,3.91037 33.10457,3.15514c10.09931,-0.70422 15.29731,-3.77053 15.29731,-2.47003z" fill="#282828" stroke="none" stroke-width="0"/><path d="M296.31005,323.9886c0,3.46303 2.88697,8.34782 -1.24824,10.74253c-4.79665,2.77775 -17.17574,2.80121 -24.94421,2.80121c-7.25019,0 -16.51261,-0.48802 -21.25519,-2.94933c-4.71986,-2.44953 -4.93725,-6.86338 -4.93725,-10.5944c0,-7.48 11.72676,-13.54375 26.19245,-13.54375c14.4657,0 26.19246,6.06374 26.19246,13.54375z" fill="none" stroke="#000000" stroke-width="3.5"/></g><g><path d="M308.62485,326.72209c0,3.46303 1.24243,8.34782 -0.53721,10.74253c-2.0643,2.77775 -7.39178,2.80122 -10.73503,2.80122c-3.12021,0 -7.1064,-0.48804 -9.14742,-2.94934c-2.03125,-2.44953 -2.12481,-6.86338 -2.12481,-10.59441c0,-7.48001 5.04675,-13.54375 11.27223,-13.54375c6.22548,0 11.27223,6.06374 11.27223,13.54375z" fill="#444444" stroke="#000000" stroke-width="0"/><path d="M308.85181,333.89429c0,4.00204 -5.11612,7.24633 -11.42717,7.24633c-6.31106,0 -11.42718,-3.24429 -11.42718,-7.24633c0,-4.00204 -0.92673,-17.94331 5.38433,-17.94331c1.07508,0 -1.42871,3.42372 -2.89446,7.6633c-1.34398,3.88732 -1.67951,8.5705 -0.46582,9.5949c2.70795,2.2856 9.58576,3.91036 14.24694,3.15513c4.34636,-0.70422 6.58337,-3.77053 6.58337,-2.47003z" fill="#282828" stroke="none" stroke-width="0"/><path d="M308.38698,327.07928c0,3.46303 1.24244,8.34783 -0.5372,10.74253c-2.0643,2.77775 -7.39179,2.8012 -10.73504,2.8012c-3.12021,0 -7.10639,-0.48802 -9.14741,-2.94933c-2.03125,-2.44953 -2.12481,-6.86338 -2.12481,-10.5944c0,-7.48 5.04675,-13.54374 11.27223,-13.54374c6.22548,0 11.27223,6.06374 11.27223,13.54374z" fill="none" stroke="#000000" stroke-width="3.5"/></g><g><path d="M275.78637,327.88109c0,3.46303 1.24243,8.34783 -0.53721,10.74253c-2.0643,2.77775 -7.39178,2.80122 -10.73503,2.80122c-3.12021,0 -7.10641,-0.48804 -9.14743,-2.94934c-2.03125,-2.44953 -2.1248,-6.86338 -2.1248,-10.59441c0,-7.48001 5.04675,-13.54374 11.27223,-13.54374c6.22547,0 11.27223,6.06374 11.27223,13.54374z" fill="#444444" stroke="#000000" stroke-width="0"/><path d="M276.01331,335.05329c0,4.00204 -5.11612,7.24633 -11.42718,7.24633c-6.31106,0 -11.42718,-3.24429 -11.42718,-7.24633c0,-4.00204 -0.92672,-17.9433 5.38433,-17.9433c1.07508,0 -1.42871,3.4237 -2.89446,7.66328c-1.34398,3.88732 -1.67952,8.57052 -0.46583,9.59491c2.70795,2.2856 9.58577,3.91036 14.24695,3.15513c4.34635,-0.70422 6.58338,-3.77053 6.58338,-2.47003z" fill="#282828" stroke="none" stroke-width="0"/><path d="M275.54849,328.23829c0,3.46303 1.24244,8.34782 -0.53719,10.74253c-2.0643,2.77775 -7.39179,2.80121 -10.73504,2.80121c-3.12021,0 -7.10639,-0.48802 -9.14742,-2.94933c-2.03125,-2.44953 -2.12481,-6.86338 -2.12481,-10.5944c0,-7.48 5.04675,-13.54375 11.27223,-13.54375c6.22548,0 11.27224,6.06374 11.27224,13.54375z" fill="none" stroke="#000000" stroke-width="3.5"/></g><g><path d="M294.71679,326.14259c0,3.46303 1.24243,8.34782 -0.53721,10.74253c-2.0643,2.77775 -7.39178,2.80121 -10.73504,2.80121c-3.12021,0 -7.1064,-0.48803 -9.14742,-2.94933c-2.03125,-2.44953 -2.12481,-6.86338 -2.12481,-10.5944c0,-7.48001 5.04675,-13.54375 11.27223,-13.54375c6.22547,0 11.27223,6.06374 11.27223,13.54375z" fill="#444444" stroke="#000000" stroke-width="0"/><path d="M294.94374,333.31478c0,4.00204 -5.11612,7.24633 -11.42717,7.24633c-6.31106,0 -11.42717,-3.24429 -11.42717,-7.24633c0,-4.00204 -0.92673,-17.94331 5.38432,-17.94331c1.07508,0 -1.42871,3.42371 -2.89446,7.66329c-1.34398,3.88732 -1.67953,8.57051 -0.46583,9.5949c2.70795,2.2856 9.58577,3.91036 14.24695,3.15513c4.34635,-0.70422 6.58338,-3.77052 6.58338,-2.47003z" fill="#282828" stroke="none" stroke-width="0"/><path d="M294.47891,326.49977c0,3.46303 1.24244,8.34783 -0.53719,10.74254c-2.0643,2.77775 -7.39178,2.8012 -10.73503,2.8012c-3.12021,0 -7.1064,-0.48801 -9.14742,-2.94932c-2.03125,-2.44953 -2.1248,-6.86339 -2.1248,-10.59442c0,-7.48 5.04675,-13.54374 11.27223,-13.54374c6.22548,0 11.27223,6.06373 11.27223,13.54374z" fill="none" stroke="#000000" stroke-width="3.5"/></g></g><g stroke-linecap="butt"><g><path d="M184.60907,321.63141c0,-7.48001 11.72678,-13.54375 26.19245,-13.54375c14.4657,0 26.19246,6.06374 26.19246,13.54375c0,3.73103 -0.21738,8.14488 -4.93725,10.59441c-4.74258,2.4613 -14.00502,2.94933 -21.25521,2.94933c-7.76847,0 -20.14755,-0.02346 -24.94421,-2.80122c-4.13521,-2.39471 -1.24827,-7.27949 -1.24827,-10.74253z" fill="#444444" stroke="#000000" stroke-width="0"/><path d="M184.0817,328.80359c0,-1.30049 5.19801,1.76582 15.29731,2.47003c10.83084,0.75523 26.81231,-0.86954 33.10457,-3.15514c2.82016,-1.0244 2.04049,-5.70758 -1.08241,-9.5949c-3.40587,-4.23958 -9.22373,-7.66329 -6.72565,-7.66329c14.66453,0 12.51118,13.94126 12.51118,17.9433c0,4.00204 -11.88795,7.24633 -26.55249,7.24633c-14.66453,0 -26.5525,-3.24429 -26.5525,-7.24633z" fill="#282828" stroke="none" stroke-width="0"/><path d="M185.16177,321.9886c0,-7.48001 11.72676,-13.54375 26.19246,-13.54375c14.4657,0 26.19245,6.06375 26.19245,13.54375c0,3.73103 -0.21739,8.14488 -4.93726,10.59441c-4.74258,2.46131 -14.005,2.94933 -21.25518,2.94933c-7.76847,0 -20.14755,-0.02346 -24.94421,-2.80121c-4.13521,-2.39471 -1.24825,-7.27949 -1.24825,-10.74253z" fill="none" stroke="#000000" stroke-width="3.5"/></g><g><path d="M172.847,324.72208c0,-7.48001 5.04676,-13.54374 11.27223,-13.54374c6.22548,0 11.27223,6.06373 11.27223,13.54374c0,3.73103 -0.09355,8.14488 -2.12481,10.59441c-2.04102,2.4613 -6.02722,2.94934 -9.14742,2.94934c-3.34325,0 -8.67074,-0.02346 -10.73504,-2.80122c-1.77964,-2.39471 -0.53721,-7.2795 -0.53721,-10.74253z" fill="#444444" stroke="#000000" stroke-width="0"/><path d="M172.62003,331.89427c0,-1.30049 2.23702,1.76582 6.58337,2.47003c4.66118,0.75523 11.53899,-0.86953 14.24694,-3.15513c1.21369,-1.0244 0.87816,-5.70758 -0.46582,-9.5949c-1.46575,-4.23958 -3.96955,-7.66329 -2.89447,-7.66329c6.31106,0 5.38433,13.94126 5.38433,17.94331c0,4.00204 -5.11612,7.24633 -11.42718,7.24633c-6.31106,0 -11.42718,-3.24429 -11.42718,-7.24633z" fill="#282828" stroke="none" stroke-width="0"/><path d="M173.08485,325.07928c0,-7.48001 5.04675,-13.54374 11.27223,-13.54374c6.22548,0 11.27223,6.06374 11.27223,13.54374c0,3.73103 -0.09355,8.14488 -2.12481,10.59441c-2.04102,2.46131 -6.0272,2.94933 -9.14741,2.94933c-3.34325,0 -8.67074,-0.02345 -10.73504,-2.8012c-1.77964,-2.39471 -0.5372,-7.2795 -0.5372,-10.74253z" fill="none" stroke="#000000" stroke-width="3.5"/></g><g><path d="M205.68548,325.88109c0,-7.48001 5.04676,-13.54374 11.27223,-13.54374c6.22548,0 11.27223,6.06373 11.27223,13.54374c0,3.73103 -0.09355,8.14488 -2.1248,10.59441c-2.04102,2.4613 -6.02722,2.94934 -9.14743,2.94934c-3.34325,0 -8.67073,-0.02346 -10.73503,-2.80122c-1.77964,-2.39471 -0.53721,-7.2795 -0.53721,-10.74253z" fill="#444444" stroke="#000000" stroke-width="0"/><path d="M205.45852,333.05328c0,-1.30049 2.23703,1.76582 6.58338,2.47003c4.66118,0.75523 11.53899,-0.86953 14.24694,-3.15513c1.21369,-1.0244 0.87815,-5.70758 -0.46583,-9.59491c-1.46575,-4.23958 -3.96954,-7.66329 -2.89446,-7.66329c6.31106,0 5.38433,13.94126 5.38433,17.94331c0,4.00204 -5.11612,7.24633 -11.42718,7.24633c-6.31106,0 -11.42718,-3.24429 -11.42718,-7.24633z" fill="#282828" stroke="none" stroke-width="0"/><path d="M205.92334,326.23828c0,-7.48001 5.04676,-13.54374 11.27224,-13.54374c6.22548,0 11.27223,6.06374 11.27223,13.54374c0,3.73103 -0.09355,8.14488 -2.12481,10.59441c-2.04102,2.46131 -6.02721,2.94933 -9.14742,2.94933c-3.34325,0 -8.67074,-0.02345 -10.73504,-2.8012c-1.77964,-2.39471 -0.5372,-7.2795 -0.5372,-10.74253z" fill="none" stroke="#000000" stroke-width="3.5"/></g><g><path d="M186.75506,324.14259c0,-7.48001 5.04676,-13.54375 11.27223,-13.54375c6.22548,0 11.27223,6.06374 11.27223,13.54375c0,3.73103 -0.09355,8.14488 -2.12481,10.59441c-2.04102,2.4613 -6.02722,2.94934 -9.14742,2.94934c-3.34325,0 -8.67073,-0.02346 -10.73503,-2.80122c-1.77964,-2.39471 -0.53721,-7.27949 -0.53721,-10.74253z" fill="#444444" stroke="#000000" stroke-width="0"/><path d="M186.5281,331.31477c0,-1.30049 2.23702,1.76581 6.58337,2.47003c4.66118,0.75523 11.539,-0.86953 14.24695,-3.15513c1.21369,-1.0244 0.87814,-5.70758 -0.46583,-9.5949c-1.46575,-4.23958 -3.96954,-7.66329 -2.89446,-7.66329c6.31106,0 5.38433,13.94126 5.38433,17.94331c0,4.00204 -5.11611,7.24633 -11.42717,7.24633c-6.31106,0 -11.42718,-3.24429 -11.42718,-7.24633z" fill="#282828" stroke="none" stroke-width="0"/><path d="M186.99292,324.49977c0,-7.48001 5.04675,-13.54374 11.27223,-13.54374c6.22548,0 11.27223,6.06374 11.27223,13.54374c0,3.73103 -0.09355,8.14488 -2.1248,10.59441c-2.04102,2.46131 -6.02722,2.94932 -9.14742,2.94932c-3.34325,0 -8.67073,-0.02345 -10.73503,-2.8012c-1.77964,-2.39471 -0.5372,-7.2795 -0.5372,-10.74253z" fill="none" stroke="#000000" stroke-width="3.5"/></g></g><path d="M220.24029,210.79203v-10h51.66667v10z" fill="#1b1b1b" stroke="#000000" stroke-width="2.5" stroke-linecap="butt"/><g><path d="M303.55761,203.53394l-23.05947,-42.52223l6.66393,-3.6138l23.05947,42.52223z" fill="#1b1b1b" stroke="#000000" stroke-width="2.5" stroke-linecap="butt"/><g data-paper-data="{&quot;index&quot;:null}"><path d="M275.49912,118.19334c6.75427,-0.22472 27.2487,47.48466 27.45547,53.69933c0.02293,0.68923 -1.36024,-0.74414 -2.77058,-0.92688c-1.89493,-0.24552 -4.17294,0.46901 -6.33135,-0.71536c-3.74459,-2.05474 -7.16449,-6.20549 -8.44782,-4.26839c-2.39074,3.60865 7.85219,24.24134 4.59945,24.34956c-6.75428,0.22472 -26.15372,-54.26406 -26.36048,-60.47873c-0.10262,-3.08438 -2.4932,-6.51955 -0.37646,-8.62487c2.14824,-2.13667 8.82967,-2.92148 12.23177,-3.03467z" fill="#444444" stroke="#000000" stroke-width="0" stroke-linecap="butt"/><path d="M283.90041,164.22712c3.73595,-0.1243 8.57241,0.4108 12.62157,0.70328c3.58354,0.25885 6.61563,-0.06593 6.7692,4.5498c0.07845,2.35791 -3.6416,3.12131 -7.98313,1.35552c-4.05855,-1.6507 -8.7163,-5.82863 -9.76139,-4.16356c-2.49824,3.98025 8.29245,21.89935 4.5181,22.02492c-7.0423,0.2343 -25.82485,-48.53335 -26.15194,-58.36457c-0.21581,-6.48644 8.9983,21.42172 17.9655,38.12396c4.62403,8.61266 -0.48822,-2.15929 1.90772,-2.239z" fill="#282828" stroke="none" stroke-width="0" stroke-linecap="butt"/><path d="M275.48312,117.71222c6.75427,-0.22472 27.2487,47.48466 27.45547,53.69933c0.08931,2.68436 -4.42733,-2.65002 -6.30001,0.77783c-1.00044,1.83128 -10.62302,-9.44219 -11.30165,-6.23546c-0.99199,4.68735 6.9296,23.82077 4.65135,23.89657c-6.75428,0.22472 -26.15372,-54.26406 -26.36048,-60.47873c-0.1097,-3.29745 -3.13412,-7.36141 -0.74652,-9.50125c2.1123,-1.8931 9.4313,-2.0528 12.60182,-2.15829z" fill="none" stroke="#000000" stroke-width="3" stroke-linecap="butt"/><path d="M292.50119,143.08573l-18.26334,14.23219" fill="none" stroke="#000000" stroke-width="3" stroke-linecap="round"/></g></g><g><path d="M217.54681,119.23271c3.40056,0.1525 10.07247,1.01447 12.19589,3.17582c2.09228,2.12964 -0.33784,5.53697 -0.4761,8.61995c-0.27858,6.21186 -20.30638,60.47283 -27.05762,60.17007c-6.75124,-0.30276 -13.01493,-12.3755 -12.73636,-18.58736c0.27858,-6.21186 21.32296,-53.68122 28.07419,-53.37847z" fill="#444444" stroke="#000000" stroke-width="0" stroke-linecap="butt"/><path d="M198.18182,180.23656c2.39486,0.1074 7.68211,-2.25916 12.40536,-10.81779c9.1596,-16.59749 18.69561,-44.39731 18.40487,-37.91379c-0.44068,9.82679 -19.78554,58.37413 -26.82466,58.05846c-7.03912,-0.31568 -13.44415,-9.54166 -13.00347,-19.36845c0.44068,-9.82679 1.97878,9.7259 9.0179,10.04158z" fill="#282828" stroke="none" stroke-width="0" stroke-linecap="butt"/><path d="M217.56836,118.75183c3.16909,0.14213 10.48577,0.38639 12.57604,2.30377c2.36271,2.16728 -0.70846,6.19603 -0.85626,9.49199c-0.27858,6.21186 -20.30638,60.47283 -27.05762,60.17007c-6.75124,-0.30276 -13.01493,-12.3755 -12.73636,-18.58736c0.27858,-6.21186 21.32296,-53.68122 28.07419,-53.37847z" fill="none" stroke="#000000" stroke-width="3" stroke-linecap="butt"/><path d="M218.35584,158.36927l-18.09764,-14.4423" fill="none" stroke="#000000" stroke-width="3" stroke-linecap="round"/></g><g stroke-width="2.5" stroke-linecap="butt"><path d="M248.14044,151.58607c11.16257,0.6772 19.58556,11.54595 18.81326,24.27603c-0.24151,3.98083 6.77665,4.37727 6.83418,7.51734c0.02033,1.10958 -6.45205,2.33091 -8.09994,4.0304c-2.01031,2.07327 0.64499,4.62131 -0.48722,5.57781c-1.75265,1.48065 -6.84361,-12.53368 -10.62695,-9.44776c-4.2302,3.45042 -6.62565,14.30388 -9.23007,14.14588c-11.16257,-0.6772 -19.58556,-11.54595 -18.81326,-24.27603c0.7723,-12.73009 10.44742,-22.50087 21.61,-21.82367z" fill="#212121" stroke="#000000"/><path d="M236.35438,202.14718l3.76724,-62.097l14.27715,0.86615l-3.76724,62.097z" fill="#1b1b1b" stroke="#000000"/><path d="M247.33671,121.58435c5.93015,0.35976 15.41569,-4.73611 20.13219,8.24994c2.00168,5.51126 8.6841,37.41521 4.10617,52.10191c-2.04483,6.56011 -12.7336,-0.28493 -16.07889,2.70844c-5.03464,4.50502 -8.95745,-23.543 -14.38313,-27.19707c-4.61806,-3.11016 -11.18131,18.25042 -11.25251,19.424c-0.62806,10.35262 29.22132,27.96738 16.5184,27.19673c-12.70292,-0.77065 -27.19519,-5.62226 -26.56713,-15.97486c0.40807,-6.7263 0.34962,-44.41409 8.08129,-61.86316c4.16835,-9.40725 14.994,-4.91588 19.44359,-4.64593z" fill="#444444" stroke="#000000"/><path d="M246.72845,203.56902c-0.37848,0.04692 -25.19882,5.11884 -27.29922,-16.16157c-0.96281,-9.75479 2.9288,-43.30323 7.5499,-57.29612c4.86292,-14.72514 10.47479,-9.67695 9.65547,-10.24754c-1.74981,-1.21859 -13.22608,42.92312 -14.01823,65.03356c-0.40614,11.33603 19.7946,16.32173 19.00611,15.43249c-4.69804,-5.29833 -16.14119,-18.99601 -16.72419,-19.55823c-2.42603,-2.33953 8.49307,-20.06211 7.96823,-22.03621c-0.76075,-2.86141 10.44172,-4.66231 11.23533,-4.4981c3.41496,0.70658 7.74036,23.00222 14.08354,28.23618c3.83865,3.1674 11.1081,-8.21207 11.67655,-10.7132c3.2587,-14.338 -8.35934,-47.8168 -4.03792,-47.55463c7.22005,0.43802 8.07263,49.0675 7.74603,54.45087c-0.32659,5.38336 -4.25496,7.45343 -11.47501,7.01541c-1.35568,-0.08225 -6.25782,-0.58219 -8.84164,-4.88573c-4.88739,-8.1403 -8.45006,-22.59784 -13.00076,-22.34514c-3.69262,0.20506 -9.3758,10.65907 -10.52254,18.40185c-0.67195,4.53706 2.44535,8.73203 2.50051,7.82292c0.01396,-0.23008 22.156,17.95391 14.49783,18.90321z" fill="#282828" stroke="none"/><path d="M247.80879,121.62728c5.93015,0.35976 15.41569,-4.73611 20.13219,8.24994c5.38668,14.83127 5.5942,48.26179 5.25933,53.78146c-0.06488,1.06941 -8.21507,0.99316 -14.01087,0.61098c-2.85344,-0.18817 -3.84102,1.19769 -5.54409,-0.61242c-6.76489,-7.19003 -5.46253,-24.66914 -12.62531,-26.02166c-1.34937,-0.2548 -7.13014,10.62967 -8.88158,15.093c-0.36315,0.92545 -0.49231,2.41024 -0.70629,2.39543c-1.83779,-0.12724 -0.73224,1.32616 -1.3738,1.87881c-5.01846,4.32293 23.52664,27.51695 16.79265,27.10842c-12.70292,-0.77065 -27.19519,-5.62226 -26.56713,-15.97486c0.40806,-6.72629 0.34962,-44.41409 8.08129,-61.86316c4.16835,-9.40725 14.994,-4.91587 19.44359,-4.64592z" fill="none" stroke="#000000"/><path d="M248.09774,126.12278c9.81673,0.59555 16.78738,17.35381 15.56938,37.43061c-0.57042,9.40249 6.93784,24.28254 3.57395,20.83854c-1.51369,-1.54974 -8.993,2.61843 -12.71065,-2.33441c-5.66163,-7.5427 -8.15603,-24.73263 -11.30657,-24.92377c-7.6497,-0.46408 -12.94301,24.03407 -14.48405,21.19634c-0.43655,-0.80388 -0.89108,-12.50145 -0.62221,-16.93337c1.218,-20.0768 10.16341,-35.86947 19.98015,-35.27392z" fill="#b7b7b7" stroke="#000000"/><path d="M232.20535,143.34411c0.14002,-2.30808 2.77218,-10.67394 7.91115,-14.73953c2.19374,-1.73554 6.06765,-1.9073 8.39822,-1.76591c7.79005,0.4726 12.1007,14.92353 11.9009,18.21689c-0.1998,3.29335 -3.41608,-14.019 -11.20613,-14.4916c-1.1558,-0.07012 -12.33483,5.96984 -14.76427,11.72049c-0.54749,1.29594 -7.10913,23.51841 -5.05662,25.15482c1.2641,1.00784 2.34282,-7.12386 6.06586,-11.09477c3.58327,-3.82183 9.80242,-3.50673 11.61055,-1.71104c3.93618,3.9091 7.42277,18.23855 10.77632,22.66161c4.55289,6.00489 8.36785,1.87268 8.14347,4.21336c-0.30655,3.19804 -5.72177,5.48513 -12.98843,-2.96091c-3.30652,-3.84318 -7.42559,-20.88672 -10.86578,-21.75815c-6.36725,-1.61287 -13.83549,20.57195 -14.16654,20.40415c-1.54344,-0.78239 -1.08867,-12.88154 0.66882,-22.5436c0.99537,-5.47221 3.5369,-10.71964 3.57246,-11.30578z" fill="#989898" stroke="none"/><path d="M247.40969,126.08104c9.81673,0.59555 16.78738,17.35381 15.56938,37.43061c-0.57042,9.40249 6.93784,24.28254 3.57395,20.83854c-1.51369,-1.54974 -8.993,2.61843 -12.71065,-2.33441c-5.66163,-7.5427 -8.15603,-24.73263 -11.30657,-24.92377c-7.6497,-0.46408 -12.94301,24.03407 -14.48405,21.19634c-0.43655,-0.80388 -0.89108,-12.50145 -0.62221,-16.93337c1.218,-20.0768 10.16341,-35.86947 19.98015,-35.27392z" fill="none" stroke="#000000"/></g><g stroke-width="2.5" stroke-linecap="butt"><path d="M272.12012,128.661c0,1.42763 1.18882,16.71602 -4.99757,16.71602c-6.1864,0 -17.40534,-15.28839 -17.40534,-16.71602c0,-1.42763 10.87428,-15.68204 17.06068,-15.68204c6.1864,0 5.34223,14.25441 5.34223,15.68204z" data-paper-data="{&quot;index&quot;:null}" fill="#de3636" stroke="#000000"/><path d="M272.80944,128.31635c0,1.42763 1.18882,16.71602 -4.99757,16.71602c-6.1864,0 -17.40534,-15.28839 -17.40534,-16.71602c0,-1.42763 10.87428,-15.68204 17.06068,-15.68204c6.1864,0 5.34223,14.25441 5.34223,15.68204z" data-paper-data="{&quot;index&quot;:null}" fill="#de3636" stroke="#000000"/><path d="M272.63711,130.55664c0,3.33113 0.69492,14.3034 -4.82524,14.3034c-5.52017,0 -15.16505,-10.97226 -15.16505,-14.3034c0,-1.34768 12.57959,11.45699 14.7915,8.30306c3.25538,-4.64179 -3.08564,-25.36374 0.20122,-25.36374c5.52017,0 4.99757,13.72955 4.99757,17.06068z" data-paper-data="{&quot;index&quot;:null}" fill="#b72c2c" stroke="none"/><path d="M272.29245,128.48868c0,1.42763 1.18882,16.71602 -4.99757,16.71602c-6.1864,0 -17.40534,-15.28839 -17.40534,-16.71602c0,-1.42763 10.87428,-15.68204 17.06068,-15.68204c6.1864,0 5.34223,14.25441 5.34223,15.68204z" data-paper-data="{&quot;index&quot;:null}" fill="none" stroke="#000000"/><path d="M227.92293,113.66829c6.1864,0 17.06068,14.25441 17.06068,15.68204c0,1.42763 -11.21894,16.71602 -17.40534,16.71602c-6.1864,0 -4.99757,-15.28839 -4.99757,-16.71602c0,-1.42763 -0.84416,-15.68204 5.34223,-15.68204z" data-paper-data="{&quot;index&quot;:null}" fill="#de3636" stroke="#000000"/><path d="M227.7506,114.52994c3.28686,0 -3.05415,20.72195 0.20122,25.36374c2.21191,3.15394 14.7915,-9.65074 14.7915,-8.30306c0,3.33113 -9.64488,14.3034 -15.16505,14.3034c-5.52017,0 -4.82524,-10.97226 -4.82524,-14.3034c0,-3.33113 -0.52259,-17.06068 4.99757,-17.06068z" fill="#b72c2c" stroke="none"/><path d="M228.43992,113.84062c6.1864,0 17.06068,14.25441 17.06068,15.68204c0,1.42763 -11.21894,16.71602 -17.40534,16.71602c-6.1864,0 -4.99757,-15.28839 -4.99757,-16.71602c0,-1.42763 -0.84416,-15.68204 5.34223,-15.68204z" fill="none" stroke="#000000"/><path d="M245.67292,121.76781c3.80701,0 6.8932,3.14334 6.8932,7.02085c0,3.87751 -3.0862,7.02085 -6.8932,7.02085c-3.80701,0 -6.8932,-3.14334 -6.8932,-7.02085c0,-3.87751 3.08619,-7.02085 6.8932,-7.02085z" fill="#de3636" stroke="#000000"/><path d="M241.19234,124.18042c1.78326,0 -0.09511,7.29764 2.30665,8.96123c2.59746,1.79915 9.4118,-1.99758 9.4118,-1.20637c0,1.43309 -2.66494,3.64481 -6.07264,3.7786c-0.21332,0.00838 -0.0849,0.35732 -0.30357,0.35732c-3.71184,0 -7.06553,-2.61312 -7.06553,-4.13592c0,-1.52281 -1.98854,-7.75485 1.7233,-7.75485z" fill="#b72c2c" stroke="none"/><path d="M245.84526,121.94013c3.80701,0 6.8932,3.14335 6.8932,7.02086c0,3.87752 -3.08619,7.02086 -6.8932,7.02086c-3.80701,0 -6.8932,-3.14335 -6.8932,-7.02086c0,-3.87752 3.08619,-7.02086 6.8932,-7.02086z" fill="none" stroke="#000000"/></g><g stroke-width="2.5"><path d="M228.66782,115.77375l1.43593,-24.61028l31.62047,1.84495l-1.43593,24.61028z" fill="#1b1b1b" stroke="#000000" stroke-linecap="butt"/><path d="M225.74687,117.09995l0.40901,-7.01019l35.6476,2.07992l-0.40901,7.01019z" fill="#7c7c7c" stroke="none" stroke-linecap="butt"/><path d="M235.70545,109.29998c3.63824,0.21227 -10.95523,3.3401 -4.57333,5.39421c3.80503,1.22471 30.44677,1.32531 30.39292,2.24838c-0.14419,2.47125 -20.53429,1.64545 -26.34173,1.30661c-5.80744,-0.33885 -10.39841,-2.61688 -10.25423,-5.08813c0.14419,-2.47125 4.96895,-4.19991 10.77637,-3.86107z" fill="#585858" stroke="none" stroke-linecap="butt"/><path d="M223.95871,110.64005l0.3394,-5.81698l39.22729,2.28878l-0.3394,5.81698z" fill="#e1e1e1" stroke="#000000" stroke-linecap="butt"/><path d="M223.83905,108.75728c0.01145,-0.19627 0.15729,-2.7507 1.83284,-3.69584c1.3559,-0.76481 4.2013,0.01755 4.95148,0.0758c1.8229,0.14152 -2.14733,2.02943 -0.19872,3.28914c1.69032,1.09274 9.17641,1.5688 12.1817,1.80081c5.13243,0.39622 10.70128,-0.34916 14.60326,-0.1215c11.24419,0.65606 7.4444,-0.62012 7.34828,1.0274c-0.09612,1.6475 -9.28927,2.45121 -20.53346,1.79515c-11.24419,-0.65606 -20.28148,-2.52347 -20.18536,-4.17096z" fill="#bfbfbf" stroke="none" stroke-linecap="butt"/><g data-paper-data="{&quot;index&quot;:null}" stroke-linecap="butt"><path d="M304.16162,58.04059c-4.51274,1.07732 -10.9593,6.58485 -14.14875,5.50267c-3.70852,-1.25831 -3.81909,-9.44231 -3.94407,-12.88777c-0.12377,-3.41215 1.13824,-10.37038 4.63172,-13.34596c3.06794,-2.61312 8.0558,-1.3873 12.61924,-2.47674c9.75993,-2.32999 17.86035,0.97642 18.09284,7.38509c0.23248,6.40864 -7.49105,13.49271 -17.25097,15.82271z" fill="#444444" stroke="#000000"/><path d="M297.97012,60.23462c-0.3436,0.37197 -1.07018,0.3477 -1.41799,0.68246c-2.98927,2.87724 -6.26978,4.06553 -7.33319,3.00449c-1.18714,-1.18448 -2.13784,-22.41136 1.15901,-25.98045c1.73597,-1.87934 -2.67212,10.86631 4.70273,13.78194c6.63097,2.62154 25.16776,-4.67583 25.72981,-4.11504c0.81342,0.81161 -7.02187,5.78827 -14.31663,9.15766c-3.35141,1.54798 -7.48586,2.34541 -8.52371,3.46895z" fill="#282828" stroke="none"/><path d="M314.28821,51.51858c-4.64001,5.02318 -20.82194,10.19436 -21.90432,9.11439c-1.08238,-1.07997 -4.66779,-12.17588 -0.02776,-17.19905c4.64001,-5.02318 27.20754,-2.90313 28.28994,-1.82318c1.08238,1.07997 -1.71783,4.88465 -6.35785,9.90782z" fill="#b7b7b7" stroke="#000000"/><path d="M318.00711,43.27775c-0.85758,0.92839 4.10947,1.46065 1.60032,4.33475c-2.12549,2.43463 -11.50142,7.17962 -14.74204,8.72695c-4.71455,2.25109 -9.1423,3.86184 -11.82805,3.82789c-1.35683,-0.01715 -2.03389,-0.90453 -2.5565,-1.42596c-1.12914,-1.12662 -0.97739,-3.21527 -1.27356,-4.72773c-0.84842,-4.33263 1.0048,-9.54432 5.44819,-10.84732c8.08285,-2.37026 21.34066,-2.50835 23.58321,-0.2708c0.27897,0.27835 -8.33643,-0.26271 -15.58894,0.66549c-5.24885,0.67178 -9.55296,2.48949 -10.36123,4.14086c-1.54664,3.15994 1.31711,10.55512 2.48328,10.57785c3.10987,0.06066 10.67518,-2.02475 15.64619,-5.78969c5.83817,-4.42171 8.82532,-10.55059 7.58913,-9.21231z" fill="#989898" stroke="none"/><path d="M313.83959,51.99805c-4.64001,5.02318 -20.82194,10.19436 -21.90432,9.11439c-1.08238,-1.07997 -4.66779,-12.17588 -0.02776,-17.19905c4.64001,-5.02318 27.20754,-2.90313 28.28994,-1.82318c1.08238,1.07997 -1.71783,4.88465 -6.35785,9.90782z" fill="none" stroke="#000000"/><path d="M303.88135,58.07478c-4.51274,1.07732 -7.4211,4.59578 -10.61057,3.51358c-3.70852,-1.25831 -3.81764,-5.76132 -3.94263,-9.20675c-0.12377,-3.41215 -2.40139,-12.0623 1.09212,-15.03789c3.06794,-2.61312 8.0558,-1.3873 12.61924,-2.47674c9.75993,-2.32999 17.86035,0.97642 18.09284,7.38509c0.23248,6.40864 -7.49105,13.49271 -17.25097,15.82271z" fill="none" stroke="#000000"/></g><g data-paper-data="{&quot;index&quot;:null}" stroke-linecap="butt"><path d="M289.03757,62.6002c-4.25671,2.5947 -8.47885,10.08719 -12.3508,10.1623c-4.50209,0.08734 -8.45168,-7.68153 -10.19722,-10.92499c-1.72867,-3.21211 -3.65601,-10.28824 -1.36372,-14.33992c2.01304,-3.55813 7.84969,-4.12069 12.15423,-6.74457c9.20618,-5.61171 15.45657,-2.32297 18.70333,3.70996c3.24675,6.03293 2.26036,12.5255 -6.94581,18.13722z" fill="#444444" stroke="#000000"/><path d="M283.53268,66.84311c-0.18832,0.47416 -0.96628,0.7033 -1.17644,1.14342c-1.80635,3.78278 -4.71101,6.05547 -6.32991,5.41252c-1.80725,-0.71775 -12.75186,-20.63737 -10.94502,-25.18696c0.26113,-0.65751 6.24562,-4.90578 6.71631,-3.75092c0.39563,0.97068 -1.63082,2.77344 -1.67203,4.89229c-0.08843,4.54495 1.84608,10.26405 6.37216,10.37321c8.22394,0.19837 19.28348,-10.50772 20.13911,-10.1679c1.23834,0.49181 0.38275,5.26804 -5.73571,11.01534c-2.81098,2.64045 -6.79966,4.8368 -7.36847,6.26901z" fill="#282828" stroke="none"/><path d="M296.66728,52.86209c-2.54296,6.40312 -17.19414,16.95518 -18.84192,16.30078c-1.64778,-0.65441 -10.62736,-9.99458 -8.08441,-16.3977c2.54296,-6.40312 21.19168,-10.18697 22.83945,-9.53256c1.64778,0.65441 6.62984,3.22637 4.08687,9.62948z" fill="#b7b7b7" stroke="#000000"/><path d="M292.53961,44.16386c-0.46999,1.18342 5.50967,3.22225 4.20839,6.83533c-1.1023,3.06059 -5.07021,7.13244 -7.76462,9.7338c-5.90021,5.69644 -13.29007,9.47254 -15.66047,8.53116c-4.73076,-1.87878 -7.15529,-6.95343 -5.41537,-11.33451c0.48429,-1.21943 1.27303,-4.26352 4.13407,-6.21813c7.4179,-5.06779 18.22348,-8.68642 21.63748,-7.33057c0.42469,0.16867 -5.8009,1.52741 -13.01809,4.9312c-5.2233,2.46342 -8.91311,5.69202 -8.99247,7.54804c-0.15188,3.55152 6.33309,9.61188 7.57415,9.22866c3.30954,-1.022 10.31479,-5.63834 13.79627,-10.95607c4.0888,-6.24538 0.17818,-12.67479 -0.49932,-10.96887z" fill="#989898" stroke="none"/><path d="M296.41853,53.47526c-2.54296,6.40312 -17.19414,16.95518 -18.84192,16.30078c-1.64778,-0.65441 -10.62736,-9.99458 -8.08441,-16.3977c2.54296,-6.40312 22.70065,-10.05866 24.34845,-9.40424c1.64778,0.65441 5.12085,3.09805 2.57789,9.50117z" fill="none" stroke="#000000"/><path d="M288.75789,62.73012c-4.25671,2.5947 -8.47885,10.08719 -12.3508,10.1623c-4.50209,0.08734 -8.45168,-7.68153 -10.19722,-10.92499c-1.72867,-3.21211 -3.65601,-10.28824 -1.36372,-14.33992c2.01304,-3.55813 7.84969,-4.12069 12.15423,-6.74457c9.20618,-5.61171 15.11453,-0.33948 18.36127,5.69346c3.24675,6.03293 2.60241,10.542 -6.60378,16.15371z" fill="none" stroke="#000000"/></g><g stroke-linecap="butt"><path d="M191.21018,18.75593c2.91906,-5.70999 11.65789,-5.28333 19.51876,0.953c3.67552,2.91594 8.7141,3.91286 10.39027,7.5777c1.90867,4.17319 0.11185,11.01285 -1.44235,14.05303c-1.56934,3.06984 -5.12818,10.44037 -9.02105,10.01353c-3.348,-0.36709 -6.86305,-8.08302 -10.49772,-10.96654c-7.86085,-6.23633 -11.86698,-15.92074 -8.94794,-21.63073z" fill="#444444" stroke="#000000"/><path d="M204.8423,44.99172c-0.46577,-1.45689 -3.87591,-3.92687 -6.25914,-6.74616c-5.1874,-6.13658 -10.18543,-13.95823 -9.10523,-14.35005c0.74637,-0.27073 14.46255,14.17679 21.58018,14.60317c7.91607,0.47422 9.3074,-12.94021 10.08652,-10.50331c1.47964,4.628 -8.35268,23.46438 -9.92915,24.0362c-1.41218,0.51222 -3.88316,-1.95111 -5.37643,-5.82208c-0.17375,-0.45037 -0.84252,-0.73545 -0.99672,-1.21777z" fill="#282828" stroke="none"/><path d="M193.73654,30.19608c-2.08246,-6.51348 -3.01244,-11.14511 -1.57506,-11.66646c1.43737,-0.52136 22.78655,7.09448 24.86902,13.60795c2.08246,6.51348 -5.85627,15.05462 -7.29365,15.57597c-1.43737,0.52136 -13.91785,-11.00398 -16.00031,-17.51746z" fill="#b7b7b7" stroke="#000000"/><path d="M193.84869,21.15566c-0.55482,-1.73532 -0.43763,5.08177 2.9849,11.55647c2.91418,5.513 8.88942,10.6002 11.73356,11.85949c1.06653,0.47222 6.78725,-5.01986 6.72093,-8.53739c-0.03466,-1.83822 -3.16734,-5.30461 -7.64054,-8.13166c-6.18076,-3.90623 -14.21767,-7.0568 -13.84721,-7.19118c2.97807,-1.08018 14.93541,4.64785 21.25931,10.21193c3.47643,3.05875 2.95353,8.56535 0.35359,12.13352c-0.90761,1.24558 -1.65274,3.2027 -3.15225,3.74658c-0.694,0.25172 -1.68266,0.76983 -2.91961,0.21196c-2.44847,-1.10426 -5.78067,-4.4353 -9.10219,-8.46792c-2.28309,-2.77188 -8.77534,-11.03468 -9.6728,-14.13946c-1.05946,-3.66524 3.66716,-2.04851 3.2823,-3.25234z" fill="#989898" stroke="none"/><path d="M193.94048,30.82024c-2.08246,-6.51348 -3.01244,-11.14511 -1.57506,-11.66646c1.43737,-0.52136 22.78655,7.09448 24.86902,13.60795c2.08246,6.51348 -5.85627,15.05462 -7.29365,15.57597c-1.43737,0.52136 -13.91785,-11.00398 -16.00031,-17.51746z" fill="none" stroke="#000000"/><path d="M191.44973,18.90536c2.91906,-5.70999 11.65789,-5.28333 19.51876,0.953c3.67552,2.91594 8.7141,3.91286 10.39027,7.5777c1.90867,4.17319 -3.81117,11.05039 -5.36537,14.09056c-1.56934,3.06984 -3.57127,7.10485 -7.46412,6.678c-3.348,-0.36709 -4.49694,-4.78501 -8.1316,-7.66853c-7.86085,-6.23633 -11.86698,-15.92074 -8.94794,-21.63073z" fill="none" stroke="#000000"/></g><g stroke-linecap="butt"><path d="M213.30817,31.53731c5.49213,-4.09562 12.54679,-4.43476 18.5189,4.54182c2.79237,4.19718 7.84446,7.17366 8.16521,11.24916c0.36524,4.64082 -4.37198,10.2395 -7.29615,12.42012c-2.95271,2.20191 -9.81547,7.5738 -13.85885,5.59201c-3.47745,-1.70439 -4.13764,-10.27923 -6.89898,-14.42978c-5.9721,-8.97657 -4.12225,-15.27773 1.36989,-19.37334z" fill="#444444" stroke="#000000"/><path d="M211.10556,48.28682c-3.11638,-7.79456 -1.87331,-12.4849 -0.54316,-12.40729c0.91908,0.05363 6.41799,14.43053 13.95526,17.72627c4.14817,1.81381 8.31837,-2.55192 10.15899,-6.70843c0.85809,-1.93775 -0.21664,-4.428 0.55213,-5.14055c0.91465,-0.84773 4.5431,5.53161 4.5019,6.23788c-0.28514,4.88692 -18.6226,18.31504 -20.56385,18.20178c-1.73894,-0.10147 -3.41099,-3.38875 -3.44947,-7.58051c-0.00448,-0.48771 -0.61273,-1.02416 -0.58301,-1.53349c0.08976,-1.5384 -2.59704,-5.21464 -4.02878,-8.79564z" fill="#282828" stroke="none"/><path d="M209.13878,38.86048c0.4013,-6.87792 6.00353,-7.10343 7.7735,-7.00017c1.76997,0.10327 17.07241,11.41374 16.67111,18.29165c-0.4013,6.87791 -12.48686,11.54816 -14.25683,11.44488c-1.76997,-0.10327 -10.58909,-15.85846 -10.18779,-22.73637z" fill="#b7b7b7" stroke="#000000"/><path d="M216.55571,32.72157c0.10691,-1.8324 -6.15445,2.34199 -5.08809,9.73021c0.90797,6.29082 5.306,13.43516 7.87358,15.76006c0.96282,0.87181 9.40139,-1.88016 10.76465,-5.16314c0.71243,-1.71565 -1.26726,-6.20112 -4.96013,-10.64117c-5.10254,-6.13495 -10.17065,-9.99741 -9.71446,-9.97079c3.66715,0.21397 11.93111,8.06012 16.51232,15.788c1.76695,2.98059 1.19534,6.07282 1.11891,7.38268c-0.27458,4.70593 -4.61656,8.28051 -9.69809,7.98402c-2.54616,-0.14856 -7.64787,-6.69392 -10.58793,-14.35016c-1.34261,-3.49632 -3.21799,-8.86356 -2.92357,-12.10327c0.34756,-3.82451 6.62862,-3.14525 6.70279,-4.41642z" fill="#989898" stroke="none"/><path d="M209.10511,39.52135c0.4013,-6.87792 4.58168,-7.62485 6.35166,-7.52158c1.76997,0.10327 18.49427,11.93515 18.09296,18.81306c-0.4013,6.87791 -12.48686,11.54816 -14.25683,11.44488c-1.76997,-0.10327 -10.58909,-15.85846 -10.18779,-22.73637z" fill="none" stroke="#000000"/><path d="M212.97848,33.7155c5.49213,-4.09562 13.07505,-6.37699 19.04714,2.59959c2.79237,4.19718 7.84446,7.17366 8.16521,11.24916c0.36524,4.64082 -4.37198,10.2395 -7.29615,12.42012c-2.95271,2.20191 -9.81547,7.5738 -13.85885,5.59201c-3.47745,-1.70439 -4.13764,-10.27923 -6.89898,-14.42978c-5.9721,-8.97657 -4.65051,-13.3355 0.84164,-17.43111z" fill="none" stroke="#000000"/></g><g><g><path d="M218.43,97.9202c-8.4805,-13.8842 -3.88684,-37.61282 3.74258,-42.2729c4.71988,-2.88291 23.29301,-9.38444 34.44482,-4.07837c6.8745,3.27091 15.37088,5.34216 18.605,10.63703c8.4805,13.8842 3.17565,36.50687 -4.45378,41.16695c-3.77491,2.30571 -15.65089,0.31279 -26.11557,-0.69548c-10.68548,-1.02957 -21.93855,2.25738 -26.22307,-4.7572z" fill="#444444" stroke="#000000" stroke-linecap="butt"/><path d="M213.85364,83.77637c0.05297,-0.90769 -1.90232,-13.59522 2.59252,-21.70406c3.8329,-6.9147 13.57195,-9.24747 20.02251,-11.72907c15.33041,-5.89776 36.33498,9.21601 37.55189,9.28702c0.81435,0.04751 -12.89185,-7.53117 -26.38806,-8.6477c-6.58783,-0.54501 -13.4146,2.83193 -17.92014,4.78713c-3.51249,1.52426 -9.59808,4.6242 -10.84101,7.82503c-3.23946,8.3423 -1.84198,19.73244 -1.91321,20.95333c-0.20546,3.52122 3.07073,5.98607 0.74131,5.85017c-2.32941,-0.13592 -4.05125,-3.10061 -3.84579,-6.62183z" fill="#282828" stroke="none" stroke-linecap="butt"/><path d="M229.70891,58.03729c1.8963,0.11065 10.98162,7.13486 21.0076,9.25441c8.95887,1.89397 18.84466,-1.29987 22.20993,1.90857c2.56089,2.44153 -0.84541,11.34918 -0.16718,15.06828c0.96635,5.29898 5.33405,5.45399 5.21561,7.48381c-0.43303,7.42166 -25.26933,-1.67378 -31.98674,-2.06572c-6.7174,-0.39195 -11.8119,-6.72611 -11.37888,-14.14776c0.43303,-7.42166 -11.61776,-17.89349 -4.90036,-17.50157z" fill="#282828" stroke="none" stroke-linecap="butt"/><path d="M218.38125,97.65638c-8.4805,-13.8842 -3.88684,-37.61282 3.74258,-42.2729c4.71988,-2.88291 23.29301,-9.38444 34.44482,-4.07837c6.8745,3.27091 15.37088,5.34216 18.605,10.63703c8.4805,13.8842 3.17565,36.50687 -4.45378,41.16695c-3.77491,2.30571 -15.65089,0.31279 -26.11557,-0.69549c-10.68548,-1.02957 -21.93855,2.25738 -26.22307,-4.75719z" fill="none" stroke="#000000" stroke-linecap="butt"/><path d="M223.43703,76.74058c0.16955,-2.90613 0.29199,-12.97672 3.94171,-15.70953c4.25187,-3.18371 12.29015,1.19118 15.30234,1.36693c5.59779,0.32662 1.39442,9.23363 1.02732,15.52535c-0.36711,6.29173 -5.2026,11.1274 -10.80038,10.80079c-5.59779,-0.32662 -9.83809,-5.69183 -9.47098,-11.98356z" fill="#000000" stroke="#000000" stroke-linecap="butt"/><path d="M271.07454,82.04542c-0.28174,4.82869 -5.04804,8.47835 -10.64582,8.15173c-5.59779,-0.32662 -9.9073,-4.50581 -9.62555,-9.3345c0.28174,-4.82869 -2.98099,-12.04313 2.6168,-11.71651c3.01219,0.17576 11.45189,-2.32947 15.35107,0.53182c3.34696,2.45606 2.43365,10.1371 2.30352,12.36746z" data-paper-data="{&quot;index&quot;:null}" fill="#000000" stroke="#000000" stroke-linecap="butt"/><path d="M219.56156,98.04861c0.019,-0.3257 -2.69058,-3.39791 -2.54571,-3.76645c0.51849,-1.31883 -3.71365,-5.57823 -1.03501,-6.51549c6.03518,-2.11172 22.21526,-0.04777 29.74757,0.39171c8.15528,0.47584 25.43991,1.00368 30.50759,5.04241c2.27083,1.80974 -4.07056,7.42613 -4.14489,8.70012c-0.24022,4.11713 -15.34286,0.48271 -27.15251,-0.20635c-11.80965,-0.68905 -25.61728,0.47116 -25.37707,-3.64597z" fill="#b7b7b7" stroke="#000000" stroke-linecap="butt"/><path d="M219.50636,97.9413c0.02818,-0.48298 -5.68692,-8.95938 -4.77358,-9.34115c1.69231,-0.7074 6.9535,7.09747 12.40559,8.70177c6.12749,1.80303 14.1858,2.50292 20.28882,2.859c5.42751,0.31667 13.12376,2.26651 18.46756,0.80541c4.97397,-1.35996 7.72613,-6.13295 9.49688,-6.00695c1.3967,0.09938 -3.4678,5.38139 -3.50611,6.03806c-0.13688,2.34604 -10.15377,2.29901 -24.3063,1.53303c-0.22656,-0.01226 -1.41181,-0.47463 -1.63973,-0.48793c-14.46411,-0.84393 -26.5722,-1.71768 -26.43312,-4.10127z" fill="#989898" stroke="none" stroke-linecap="butt"/><path d="M219.48992,98.17713c0.01899,-0.32569 -2.69059,-3.39791 -2.54572,-3.76645c0.51849,-1.31883 -3.71365,-5.57823 -1.03502,-6.51549c6.03518,-2.11172 22.21527,-0.04777 29.74758,0.39171c8.15528,0.47584 25.4399,1.00368 30.50759,5.04241c2.27083,1.80974 -4.07056,7.42613 -4.14489,8.70012c-0.24022,4.11713 -15.34286,0.48271 -27.15251,-0.20635c-11.80964,-0.68905 -25.61727,0.47116 -25.37706,-3.64596z" fill="none" stroke="#000000" stroke-linecap="butt"/><path d="M246.48726,87.548c6.7174,0.39195 12.07839,2.15888 11.97408,3.94659c-0.1043,1.78769 -5.6344,2.91918 -12.3518,2.52725c-6.7174,-0.39195 -12.07839,-2.15888 -11.97408,-3.94659c0.1043,-1.78769 5.6344,-2.91918 12.3518,-2.52725z" fill="#000000" stroke="#000000" stroke-linecap="butt"/><path d="M220.39962,88.19l3.26473,-1.9748l3.13883,0.18314l-2.57159,3.59001l-0.36786,2.9312" fill="none" stroke="#000000" stroke-linecap="round"/><path d="M231.66181,87.46921l-6.38067,1.39932" fill="none" stroke="#000000" stroke-linecap="round"/><path d="M228.05052,88.63641l-0.22893,3.92354" fill="none" stroke="#000000" stroke-linecap="round"/><path d="M230.19591,87.99336l5.18231,2.27082" fill="none" stroke="#000000" stroke-linecap="round"/><path d="M230.78871,95.68575l0.56246,-6.26621" fill="none" stroke="#000000" stroke-linecap="round"/><path d="M268.69022,83.72438l1.72297,7.58063l-10.82404,-0.04102l0.13735,-2.35412" fill="none" stroke="#000000" stroke-linecap="round"/><path d="M268.58878,88.83641l-5.74795,-2.6975" fill="none" stroke="#000000" stroke-linecap="round"/><path d="M261.93024,88.25106l-1.15098,6.23186" fill="none" stroke="#000000" stroke-linecap="round"/><path d="M264.56223,90.37307l-1.02348,7.42037" fill="none" stroke="#000000" stroke-linecap="round"/><path d="M267.62254,95.2759l-0.55578,-3.96932" fill="none" stroke="#000000" stroke-linecap="round"/><path d="M270.72702,96.04756l-1.43365,-5.79213" fill="none" stroke="#000000" stroke-linecap="round"/></g><path d="M269.55696,62.12206l0.11446,-1.96178l2.23806,-1.24733" fill="none" stroke="#000000" stroke-linecap="round"/><path d="M235.74431,57.9839l-0.26485,1.16561l-1.0381,0.92364" fill="none" stroke="#000000" stroke-linecap="round"/></g><path d="M225.76427,116.80165l0.29589,-5.07121l35.6476,2.07992l-0.29589,5.07121z" fill="none" stroke="#000000" stroke-linecap="butt"/><path d="M224.33125,110.58193l0.3394,-5.81698l39.22729,2.28878l-0.3394,5.81698z" fill="none" stroke="#000000" stroke-linecap="butt"/><path d="M233.47311,110.36703l0.41023,-4.4659" fill="none" stroke="#000000" stroke-linecap="round"/><path d="M247.45627,106.69307l-0.24367,4.17628" fill="none" stroke="#000000" stroke-linecap="round"/><path d="M257.0306,111.89117l-0.76558,-4.83382" fill="none" stroke="#000000" stroke-linecap="round"/></g><g><path d="M179.60694,183.67941c2.99982,-7.61026 11.05373,-11.5635 17.98888,-8.82979c6.93516,2.7337 10.12539,11.11916 7.12557,18.72943c-2.99983,7.61027 -11.05374,11.5635 -17.98889,8.82979c-6.93517,-2.7337 -10.12539,-11.11916 -7.12557,-18.72943z" fill="#444444" stroke="#000000" stroke-width="0" stroke-linecap="butt"/><path d="M178.63826,189.29389c1.69344,-4.29612 3.94869,-16.93202 10.08601,-14.51281c1.02967,0.40588 -3.22972,4.38282 -4.54317,9.6581c-1.24586,5.00387 0.44854,11.2901 1.40117,12.69723c4.02915,5.95151 16.421,-1.97347 15.28116,0.9182c-1.69345,4.29611 -8.04153,5.81765 -14.17885,3.39843c-6.13732,-2.41921 -9.73978,-7.86307 -8.04633,-12.15919z" fill="#282828" stroke="none" stroke-width="0" stroke-linecap="butt"/><path d="M197.28591,175.55603c6.93517,2.7337 10.12539,11.11916 7.12557,18.72943c-2.99983,7.61027 -11.05372,11.56351 -17.98888,8.82979c-6.93517,-2.7337 -10.12539,-11.11916 -7.12557,-18.72943c2.99983,-7.61027 11.05372,-11.56351 17.98888,-8.82979z" fill="none" stroke="#000000" stroke-width="3.5" stroke-linecap="butt"/><g><path d="M201.90301,208.54462c2.27405,-5.76907 -7.2729,-12.62466 -4.44973,-11.51182c1.31949,0.52011 6.79977,-4.86128 10.22854,-2.10964c3.90741,3.13577 5.65598,14.57866 4.44477,17.6514c-2.27406,5.76908 -6.40616,9.5437 -9.22933,8.43086c-2.82317,-1.11283 -3.26831,-6.69172 -0.99425,-12.46081z" fill="#840000" stroke="#000000" stroke-width="0" stroke-linecap="butt"/><path d="M198.54262,198.2198c-0.73247,-3.09658 2.83644,-3.55084 3.42201,-3.32002c1.59571,0.629 7.48903,20.08741 6.54554,22.48096c-0.94349,2.39356 -3.00192,3.824 -4.59762,3.19501c-1.5957,-0.62899 -2.62642,-2.89661 -1.68293,-5.29017c0.59726,-1.5152 -2.31083,-11.24789 -3.68701,-17.06578z" fill="#430000" stroke="none" stroke-width="0" stroke-linecap="butt"/><path d="M197.23768,196.85016c1.31949,0.52011 6.79977,-4.86128 10.22854,-2.10964c3.90741,3.13577 5.65598,14.57866 4.44477,17.6514c-2.27405,5.76907 -6.40617,9.5437 -9.22933,8.43086c-2.82316,-1.11283 -3.26829,-6.69173 -0.99424,-12.4608c2.27405,-5.76907 -7.27289,-12.62466 -4.44973,-11.51182z" fill="none" stroke="#000000" stroke-width="3.5" stroke-linecap="butt"/><path d="M211.65732,205.86961l-8.91124,1.10949" fill="none" stroke="#000000" stroke-width="3.5" stroke-linecap="round"/></g><g data-paper-data="{&quot;index&quot;:null}"><path d="M182.93355,207.78474c0.90237,6.1351 -0.79996,11.46653 -3.80223,11.90811c-3.00229,0.44158 -6.16761,-4.17391 -7.06997,-10.309c-0.48061,-3.26769 3.82466,-14.01301 8.34285,-16.17791c3.96473,-1.8997 8.07747,4.58707 9.48066,4.3807c3.00229,-0.44158 -7.85369,4.06302 -6.95133,10.1981z" fill="#840000" stroke="#000000" stroke-width="0" stroke-linecap="butt"/><path d="M181.08235,214.27476c0.37439,2.5454 -1.14506,4.51918 -2.842,4.76878c-1.69694,0.24959 -3.37608,-1.61153 -3.75047,-4.15694c-0.37439,-2.5454 9.79004,-20.15351 11.48699,-20.4031c0.62272,-0.09159 3.99479,1.16246 2.57723,4.0113c-2.66331,5.35242 -7.70876,14.16863 -7.47176,15.77997z" fill="#430000" stroke="none" stroke-width="0" stroke-linecap="butt"/><path d="M183.18502,207.65593c0.90236,6.13509 -0.79996,11.46653 -3.80222,11.90811c-3.00228,0.44158 -6.16761,-4.17392 -7.06997,-10.309c-0.48061,-3.26769 3.82466,-14.01301 8.34285,-16.17791c3.96473,-1.8997 8.07747,4.58707 9.48066,4.3807c3.00228,-0.44158 -7.85369,4.06302 -6.95133,10.1981z" fill="none" stroke="#000000" stroke-width="3.5" stroke-linecap="butt"/><path d="M174.04325,202.96136l8.42537,3.10715" fill="none" stroke="#000000" stroke-width="3.5" stroke-linecap="round"/></g><g data-paper-data="{&quot;index&quot;:null}"><path d="M193.16183,211.41382c3.14245,5.3459 3.56915,10.92623 0.95308,12.46402c-2.61608,1.5378 -7.28428,-1.54927 -10.42673,-6.89517c-1.67374,-2.84734 -1.72355,-14.42297 1.64944,-18.12754c2.95982,-3.25077 9.20937,1.21419 10.43207,0.49546c2.61608,-1.5378 -5.75031,6.71733 -2.60787,12.06323z" fill="#840000" stroke="#000000" stroke-width="0" stroke-linecap="butt"/><path d="M193.88609,218.12371c1.30379,2.21798 0.63775,4.61817 -0.8409,5.48735c-1.47865,0.86919 -3.73426,-0.22422 -5.03803,-2.44219c-1.30379,-2.21798 1.49598,-22.35555 2.97464,-23.22475c0.54262,-0.31896 4.13877,-0.42451 3.8961,2.74826c-0.45591,5.96101 -1.81715,16.02726 -0.99182,17.43131z" fill="#430000" stroke="none" stroke-width="0" stroke-linecap="butt"/><path d="M193.34643,211.19992c3.14244,5.34589 3.56915,10.92623 0.95309,12.46401c-2.61606,1.53779 -7.28427,-1.54928 -10.42673,-6.89517c-1.67374,-2.84734 -1.72355,-14.42297 1.64944,-18.12754c2.95982,-3.25077 9.20937,1.21419 10.43207,0.49546c2.61606,-1.53779 -5.75031,6.71733 -2.60787,12.06323z" fill="none" stroke="#000000" stroke-width="3.5" stroke-linecap="butt"/><path d="M183.11041,210.2862l8.97542,-0.28796" fill="none" stroke="#000000" stroke-width="3.5" stroke-linecap="round"/></g><g><path d="M170.91757,200.7775c-0.35409,6.19099 -3.09711,11.0693 -6.12674,10.89601c-3.02963,-0.17327 -5.19858,-5.33251 -4.8445,-11.52349c0.1886,-3.29746 6.57342,-12.95309 11.43551,-14.16182c4.26649,-1.06067 6.9858,6.12254 8.40178,6.20352c3.02963,0.17327 -8.51197,2.39481 -8.86604,8.58577z" fill="#444444" stroke="#000000" stroke-width="0" stroke-linecap="butt"/><path d="M168.26361,206.93676c-0.14691,2.5686 -2.50201,4.01896 -4.21441,3.92103c-1.71239,-0.09794 -2.98149,-2.25958 -2.83458,-4.82819c0.14691,-2.5686 13.65508,-17.76366 15.36749,-17.66573c0.62839,0.03594 3.67807,1.94459 1.71486,4.4488c-3.68849,4.70496 -9.85695,11.77423 -9.94995,13.40024z" fill="#282828" stroke="none" stroke-width="0" stroke-linecap="butt"/><path d="M171.18986,200.70208c-0.35407,6.19097 -3.09711,11.0693 -6.12674,10.89602c-3.02962,-0.17328 -5.19859,-5.33252 -4.8445,-11.52349c0.1886,-3.29746 6.57342,-12.95309 11.43551,-14.16182c4.26649,-1.06067 6.9858,6.12254 8.40178,6.20352c3.02962,0.17328 -8.51197,2.39481 -8.86604,8.58577z" fill="none" stroke="#000000" stroke-width="3.5" stroke-linecap="butt"/><path d="M170.80848,199.00276l-7.62514,-4.74325" fill="none" stroke="#000000" stroke-width="3.5" stroke-linecap="round"/></g><g><path d="M182.05727,207.77649c1.4938,6.01848 0.31721,11.49003 -2.62801,12.22103c-2.94522,0.73102 -6.54375,-3.55532 -8.03755,-9.57381c-0.79563,-3.20557 2.44595,-14.31816 6.73259,-16.91155c3.76154,-2.2757 8.4847,3.78109 9.86123,3.43943c2.94522,-0.73102 -7.42207,4.8064 -5.92826,10.82487z" fill="#444444" stroke="#000000" stroke-width="0" stroke-linecap="butt"/><path d="M181.34482,214.44525c0.61977,2.49703 -1.20067,4.57935 -2.86535,4.99254c-1.66468,0.41318 -3.51661,-1.27611 -4.13638,-3.77314c-0.61977,-2.49703 7.78691,-21.00888 9.4516,-21.42206c0.61088,-0.15162 4.08878,0.76908 2.95454,3.74209c-2.131,5.58574 -5.93127,14.16376 -5.53894,15.74447z" fill="#282828" stroke="none" stroke-width="0" stroke-linecap="butt"/><path d="M182.29505,207.62388c1.49381,6.01848 0.31721,11.49003 -2.62801,12.22105c-2.94521,0.73101 -6.54376,-3.55533 -8.03755,-9.57381c-0.79563,-3.20557 2.44595,-14.31816 6.73259,-16.91155c3.76154,-2.2757 8.4847,3.78109 9.86123,3.43943c2.94521,-0.73101 -7.42207,4.8064 -5.92826,10.82487z" fill="none" stroke="#000000" stroke-width="3.5" stroke-linecap="butt"/><path d="M172.74063,203.83914l8.68725,2.27439" fill="none" stroke="#000000" stroke-width="3.5" stroke-linecap="round"/></g><g><path d="M192.87461,211.42981c3.59406,5.05336 4.50292,10.57568 2.03,12.33448c-2.47292,1.7588 -7.39116,-0.91197 -10.98521,-5.96532c-1.91427,-2.69153 -2.96739,-14.21924 0.07175,-18.20229c2.66686,-3.49512 9.27997,0.41126 10.43575,-0.41076c2.47292,-1.7588 -5.14633,7.19054 -1.55228,12.24388z" fill="#444444" stroke="#000000" stroke-width="0" stroke-linecap="butt"/><path d="M194.65381,217.8962c1.49116,2.09661 0.55973,4.70094 -0.83799,5.69504c-1.39773,0.9941 -3.73964,0.10035 -5.23079,-1.99626c-1.49116,-2.09661 -0.44766,-22.40108 0.95008,-23.39518c0.51292,-0.3648 4.08639,-0.78169 4.11969,2.40016c0.06258,5.97811 -0.33235,15.35192 0.61159,16.67915z" fill="#282828" stroke="none" stroke-width="0" stroke-linecap="butt"/><path d="M193.03999,211.20071c3.59405,5.05334 4.50292,10.57568 2.03001,12.33448c-2.47291,1.7588 -7.39118,-0.91197 -10.98521,-5.96532c-1.91427,-2.69153 -2.96739,-14.21924 0.07175,-18.20229c2.66686,-3.49512 9.27997,0.41126 10.43575,-0.41076c2.47291,-1.7588 -5.14633,7.19054 -1.55228,12.24388z" fill="none" stroke="#000000" stroke-width="3.5" stroke-linecap="butt"/><path d="M191.67997,210.11284l-8.91668,1.06495" fill="none" stroke="#000000" stroke-width="3.5" stroke-linecap="round"/></g><g data-paper-data="{&quot;index&quot;:null}"><path d="M202.35092,209.23155c2.80683,-5.52947 -6.05268,-13.25302 -3.34674,-11.87946c1.26468,0.64197 7.22705,-4.19984 10.38167,-1.13777c3.595,3.48955 4.25906,15.0462 2.76408,17.99135c-2.80684,5.52949 -7.27578,8.89855 -9.98171,7.52499c-2.70594,-1.37355 -2.62412,-6.96957 0.1827,-12.49906z" fill="#444444" stroke="#000000" stroke-width="0" stroke-linecap="butt"/><path d="M201.83989,215.22243c0.73719,-1.45228 -1.0403,-10.6645 -1.8629,-16.58608c-0.43784,-3.15177 3.15798,-3.26818 3.71923,-2.98327c1.52943,0.77637 5.56559,20.70299 4.40106,22.99713c-1.16453,2.29415 -3.34843,3.52456 -4.87786,2.7482c-1.52943,-0.77637 -2.83592,-3.21422 -1.67139,-5.50837z" fill="#282828" stroke="none" stroke-width="0" stroke-linecap="butt"/><path d="M202.15346,209.02946c2.80683,-5.52947 -6.05266,-13.25301 -3.34673,-11.87945c1.26468,0.64197 7.22705,-4.19985 10.38167,-1.13778c3.595,3.48955 4.25906,15.0462 2.76408,17.99135c-2.80683,5.52948 -7.2758,8.89854 -9.98171,7.52499c-2.70592,-1.37356 -2.62412,-6.96959 0.18271,-12.49907z" fill="none" stroke="#000000" stroke-width="3.5" stroke-linecap="butt"/><path d="M203.33755,207.75235l8.97611,-0.26603" fill="none" stroke="#000000" stroke-width="3.5" stroke-linecap="round"/></g></g></g></g></svg>