<svg version="1.1" xmlns="http://www.w3.org/2000/svg" xmlns:xlink="http://www.w3.org/1999/xlink" width="555.99071" height="835.04921" viewBox="0,0,555.99071,835.04921"><g transform="translate(210.18776,122.42368)"><g data-paper-data="{&quot;isPaintingLayer&quot;:true}" fill-rule="nonzero" stroke-width="10" stroke-linejoin="miter" stroke-miterlimit="10" stroke-dasharray="" stroke-dashoffset="0" style="mix-blend-mode: normal"><g data-paper-data="{&quot;index&quot;:null}"><g stroke="#000000"><path d="M121.42296,191.57423c32.60464,2.27694 72.21242,70.91773 91.37317,122.02428c9.12554,24.34021 10.57923,45.09262 10.09144,52.07749c-1.51199,21.6509 -15.46178,42.22068 -63.59482,38.85931c-48.13302,-3.36136 -85.92685,-23.63781 -84.41486,-45.28873c1.51199,-21.65093 -1.58797,-171.03371 46.54506,-167.67235z" data-paper-data="{&quot;index&quot;:null}" fill="#1d00ff" stroke-linecap="butt"/><path d="" fill="none" stroke-linecap="round"/></g><path d="M226.85285,368.22015c-1.41796,20.30447 -24.74518,35.21573 -52.10278,33.30522c-27.35761,-1.91052 -48.38586,-19.91933 -46.9679,-40.2238c0.30281,-4.33618 23.81937,17.03909 44.8304,25.52222c16.06119,6.48466 30.8605,2.54055 31.50226,-8.92081c0.71708,-12.80667 21.50425,-16.81122 14.03388,-38.42352c-18.05216,-52.22597 -74.72247,-130.6939 -62.66357,-129.85177c27.35761,1.91052 72.78569,138.28797 71.36773,158.59241z" fill="#0016ad" stroke="none" stroke-linecap="butt"/><g fill="none" stroke="#000000"><path d="M126.11681,190.40119c48.13302,3.36136 102.9766,152.45084 101.46461,174.10176c-1.51199,21.6509 -15.46178,42.22068 -63.59481,38.85932c-48.13302,-3.36136 -85.92685,-23.63781 -84.41486,-45.28874c1.51199,-21.65093 -1.58797,-171.03371 46.54507,-167.67234z" data-paper-data="{&quot;index&quot;:null}" stroke-linecap="butt"/><path d="M136.3089,317.16396l67.62685,-21.72127" stroke-linecap="round"/></g></g><g><g stroke="#000000"><path d="M74.38049,349.533c-5.18999,21.07399 -47.37705,28.80436 -94.22746,17.26629c-46.8504,-11.53806 -53.83188,-35.39119 -48.6419,-56.46514c1.67437,-6.79878 9.41246,-26.10934 25.55252,-46.48626c33.8889,-42.785 92.6116,-96.00134 124.34738,-88.18562c46.8504,11.53806 -1.84056,152.79674 -7.03054,173.87073z" data-paper-data="{&quot;index&quot;:null}" fill="#2a00ff" stroke-linecap="butt"/><path d="" fill="none" stroke-linecap="round"/></g><path d="M-73.04271,311.54194c4.86723,-19.76341 89.87117,-135.68082 116.49977,-129.12288c11.73756,2.89066 -66.23716,60.23771 -99.41347,104.42782c-13.72909,18.28688 4.83349,28.46399 1.59483,40.87509c-2.89845,11.10736 9.98239,19.39348 27.25771,18.13809c22.59934,-1.64231 51.53132,-14.79028 50.4919,-10.56968c-4.86723,19.76341 -30.39965,30.46857 -57.02824,23.91062c-26.6286,-6.55795 -44.26968,-27.89564 -39.40246,-47.65905z" fill="#1400ad" stroke="none" stroke-linecap="butt"/><g fill="none" stroke="#000000"><path d="M70.27131,346.97906c-5.18999,21.07399 -47.37705,28.80436 -94.22746,17.26629c-46.8504,-11.53806 -53.83188,-35.39119 -48.6419,-56.46514c5.18999,-21.07399 103.04949,-146.20994 149.8999,-134.67188c46.8504,11.53806 -1.84056,152.79674 -7.03054,173.87073z" data-paper-data="{&quot;index&quot;:null}" stroke-linecap="butt"/><path d="M-28.94239,249.2771l57.72784,41.38486" stroke-linecap="round"/></g></g><g stroke-linecap="butt"><path d="M97.15438,157.21768c11.93081,2.93826 46.97258,-42.45243 47.06922,-13.98951c0.06747,19.87298 12.65768,192.50983 6.42124,217.83296c-15.16854,61.592 -88.15962,24.1906 -108.42059,19.20084c-20.26097,-4.98976 -70.41152,-15.56966 -55.24298,-77.16165c15.16853,-61.59196 89.91214,-150.8724 110.17312,-145.88264z" fill="#3600ff" stroke="#000000"/><path d="M-13.88211,337.55226c1.49213,-6.05883 -0.64638,-42.05542 19.36525,-76.19444c17.08643,-29.1487 47.13612,-75.60789 71.65726,-93.75486c17.20529,-12.73284 30.01036,-2.97753 40.92364,-0.28987c8.10778,1.99674 -20.79399,-3.35203 -48.66477,22.29834c-36.33,33.43565 -75.3099,101.59029 -73.16471,124.28611c2.21069,23.38898 26.132,50.67953 57.00654,59.01319c42.84973,11.566 95.92873,-0.53538 94.69058,4.49212c-3.66007,14.86174 -42.85038,17.98871 -87.53402,6.98427c-44.68364,-11.00444 -77.9398,-31.97314 -74.27974,-46.83488z" fill="#0300ad" stroke="none"/><path d="M-12.33432,303.02249c15.16854,-61.592 89.91215,-150.87243 110.17312,-145.88267c11.93078,2.93825 46.97261,-42.45239 47.06922,-13.98947c0.06744,19.87297 12.65765,192.50982 6.4212,217.83295c-15.16854,61.592 -88.15962,24.1906 -108.42059,19.20084c-20.26097,-4.98976 -70.41153,-15.56966 -55.24299,-77.16166z" fill="none" stroke="#000000"/></g><g stroke-linecap="butt"><path d="M-193.02003,541.83997c8.04374,-32.66166 63.64061,-47.05294 124.17907,-32.14386c60.53846,14.90908 103.09384,53.47277 95.0501,86.13443c-4.01222,16.29165 -9.66845,35.3408 -32.05512,41.1722c-22.49428,5.85942 -61.78209,-1.55592 -92.12392,-9.02834c-32.5108,-8.00658 -84.2916,-20.86755 -101.37835,-37.94037c-14.73052,-14.71852 2.60419,-33.07266 6.32822,-48.1941z" fill="#5a3d00" stroke="#000000"/><path d="M-202.93982,572.61402c1.39851,-5.67867 19.85455,13.06781 61.36248,26.55165c44.51453,14.46053 113.14377,23.83729 141.93449,20.34225c12.90388,-1.56647 14.67709,-22.81926 5.78819,-43.01201c-9.69436,-22.0225 -30.36016,-42.96844 -19.90578,-40.39379c61.37059,15.11401 37.3669,73.7696 33.06325,91.24461c-4.30366,17.47505 -57.54317,19.389 -118.91379,4.27498c-61.37062,-15.11402 -107.63252,-41.53268 -103.32887,-59.00769z" fill="#352400" stroke="none"/><path d="M-191.09111,543.96928c8.04374,-32.66166 63.64061,-47.05294 124.17907,-32.14385c60.53849,14.90909 103.09386,53.4728 95.05013,86.13443c-4.01222,16.29165 -9.66848,35.34079 -32.05512,41.1722c-22.49429,5.85945 -61.78207,-1.55591 -92.12392,-9.02834c-32.5108,-8.00658 -84.2916,-20.86751 -101.37835,-37.94032c-14.73052,-14.71852 2.60422,-33.07266 6.32825,-48.1941z" fill="none" stroke="#000000"/></g><g data-paper-data="{&quot;index&quot;:null}" stroke-linecap="butt"><path d="M287.87243,661.01439c-3.72403,15.12144 3.10485,39.42643 -16.77604,45.62104c-23.06094,7.18546 -74.89221,-5.47059 -107.40304,-13.47718c-30.34183,-7.47242 -68.57999,-19.14975 -85.7807,-34.78505c-17.11839,-15.56049 -13.28166,-35.05774 -9.26944,-51.34939c8.04374,-32.66166 63.64058,-47.05294 124.17904,-32.14386c60.53846,14.90908 103.09387,53.4728 95.05014,86.13443z" fill="#5a3d00" stroke="#000000"/><path d="M282.36682,692.87558c-4.30365,17.47501 -57.54317,19.389 -118.91378,4.27498c-61.37062,-15.11402 -107.6325,-41.53267 -103.32884,-59.00768c4.30365,-17.47501 10.28382,-80.56929 71.65444,-65.45527c10.45439,2.57465 -17.57491,11.52822 -36.38745,26.5302c-17.2495,13.75552 -25.54853,33.40116 -14.84786,40.78083c23.87499,16.4653 89.00977,40.03122 135.14863,47.89631c43.02255,7.33387 68.07338,-0.69801 66.67487,4.98066z" fill="#352400" stroke="none"/><path d="M285.17526,662.00445c-3.72403,15.12144 3.10484,39.42646 -16.77604,45.62107c-23.06094,7.18546 -74.8922,-5.47062 -107.40303,-13.47721c-30.34183,-7.47242 -68.58001,-19.14976 -85.78069,-34.78504c-17.11839,-15.56049 -13.28166,-35.05774 -9.26944,-51.34939c8.04374,-32.66166 63.64061,-47.05294 124.17907,-32.14385c60.53846,14.90908 103.09387,53.47277 95.05014,86.13443z" fill="none" stroke="#000000"/></g><g><path d="M-103.30566,335.22409c12.7889,-23.28651 40.35921,-32.71623 61.57997,-21.06182c21.22077,11.65438 28.05617,39.97963 15.26728,63.26613c-12.7889,23.28654 -40.35925,32.71622 -61.58,21.06181c-21.2208,-11.65439 -28.05617,-39.97963 -15.26728,-63.26613z" fill="#ffbea9" stroke="#000000" stroke-linecap="butt"/><path d="M-108.16361,353.85352c7.21952,-13.14562 19.67289,-52.92896 38.45234,-42.61531c3.15069,1.73034 -12.20458,12.79424 -18.60183,29.25046c-6.06813,15.60956 -3.19,36.55757 -0.69861,41.48205c10.53741,20.82819 53.71392,0.38359 48.85452,9.23176c-7.21955,13.14559 -28.29588,15.44139 -47.07533,5.12775c-18.77946,-10.31364 -28.15063,-29.33113 -20.93108,-42.47675z" fill="#ff9d7d" stroke="none" stroke-linecap="butt"/><path d="M-41.70416,314.23634c21.2208,11.65439 28.05617,39.97963 15.26728,63.26613c-12.7889,23.28654 -40.35918,32.71624 -61.57998,21.06182c-21.2208,-11.65439 -28.05617,-39.97963 -15.26728,-63.26613c12.7889,-23.28654 40.35918,-32.71624 61.57998,-21.06182z" fill="none" stroke="#000000" stroke-linecap="butt"/><g><g><g><path d="M-41.69366,421.28708c9.69481,-17.65267 -18.24822,-43.65884 -9.60965,-38.91457c4.03748,2.21736 23.90266,-12.87004 33.81949,-2.59739c11.30118,11.7067 12.23675,49.29025 7.07309,58.69248c-9.69482,17.6527 -24.55691,28.11702 -33.19547,23.37275c-8.63857,-4.74427 -7.7823,-22.90058 1.91251,-40.55328z" fill="#ffbea9" stroke="#000000" stroke-linecap="butt"/><path d="M-41.8831,386.62148c-1.08855,-10.27701 3.63014,-11.19173 5.42191,-10.2077c4.88268,2.68155 15.88073,67.79037 11.85841,75.11435c-4.02232,7.32398 -11.24124,11.08742 -16.12388,8.40588c-4.88265,-2.68154 -5.5801,-10.79263 -1.55778,-18.11662c2.54626,-4.63633 2.44647,-35.8874 0.40134,-55.19591z" fill="#ff9d7d" stroke="none" stroke-linecap="butt"/><path d="M-66.66255,426.27721c5.67155,19.3246 2.60306,37.24021 -6.85368,40.01566c-9.45674,2.77545 -21.7206,-10.64031 -27.39211,-29.9649c-3.02078,-10.29272 5.97569,-46.79566 19.5301,-55.79794c11.89404,-7.89954 28.04964,11.10705 32.46954,9.80987c9.45674,-2.77545 -23.42536,16.61271 -17.75381,35.93731z" fill="#ffbea9" stroke="#000000" stroke-linecap="butt"/><path d="M-70.50091,446.45419c2.3531,8.01765 -0.07244,15.78896 -5.41754,17.35766c-5.34511,1.56873 -11.58569,-3.65916 -13.93879,-11.67681c-2.3531,-8.01765 22.39006,-69.2377 27.73516,-70.8064c1.96148,-0.57567 6.37299,1.33249 3.09975,11.13492c-6.14981,18.41688 -12.96817,48.91523 -11.47859,53.99065z" fill="#ff9d7d" stroke="none" stroke-linecap="butt"/><path d="M-100.56759,410.24635c2.89519,19.93048 -2.66434,37.23588 -12.41758,38.65267c-9.75323,1.41679 -20.00677,-13.59153 -22.90196,-33.52202c-1.54204,-10.61543 12.50262,-45.48877 27.18913,-52.49368c12.88748,-6.14684 26.20716,14.94444 30.76558,14.28224c9.75323,-1.41679 -25.53036,13.1503 -22.63517,33.08078z" fill="#ffbea9" stroke="#000000" stroke-linecap="butt"/><path d="M-107.20761,429.68222c1.20118,8.26903 -2.29397,15.62159 -7.80665,16.42239c-5.51271,0.80079 -10.95536,-5.25342 -12.15657,-13.52245c-1.20118,-8.26903 31.91225,-65.39711 37.42493,-66.19791c2.02296,-0.29388 6.12201,2.21619 1.5017,11.46037c-8.68072,17.36798 -19.72379,46.60303 -18.9634,51.83761z" fill="#ff9d7d" stroke="none" stroke-linecap="butt"/><path d="M-135.20864,384.51554c-3.071,19.90414 -13.45662,34.82138 -23.19698,33.31855c-9.74036,-1.50283 -15.14689,-18.85663 -12.07588,-38.7608c1.63567,-10.60138 25.28107,-39.82975 41.37545,-42.22452c14.12284,-2.1014 20.67883,21.9667 25.23125,22.66908c9.74036,1.50283 -28.26282,5.09349 -31.33383,24.99766z" fill="#ffbea9" stroke="#000000" stroke-linecap="butt"/><path d="M-147.25151,401.15317c-1.27412,8.25811 -6.77004,14.26405 -12.27544,13.41461c-5.5054,-0.84944 -8.93553,-8.23255 -7.66137,-16.49065c1.27412,-8.25811 49.67164,-53.17798 55.17704,-52.32854c2.02029,0.31171 5.20409,3.91255 -1.9218,11.39745c-13.38821,14.06266 -32.51185,38.7795 -33.31841,44.00717z" fill="#ff9d7d" stroke="none" stroke-linecap="butt"/><path d="M-50.60171,382.82007c4.03748,2.21736 23.90266,-12.87003 33.81948,-2.59739c11.30118,11.7067 12.23675,49.29025 7.07309,58.69248c-9.69481,17.65267 -24.55693,28.11701 -33.19547,23.37275c-8.63854,-4.74426 -7.78226,-22.9006 1.91255,-40.55327c9.69481,-17.65267 -18.24818,-43.65884 -9.60964,-38.91458z" fill="none" stroke="#000000" stroke-linecap="butt"/><path d="M-67.44401,426.56344c5.67155,19.3246 2.60306,37.24021 -6.85368,40.01566c-9.45674,2.77545 -21.7206,-10.64032 -27.39211,-29.96491c-3.02078,-10.29272 5.97569,-46.79566 19.5301,-55.79793c11.89404,-7.89954 28.04965,11.10705 32.46954,9.80987c9.45674,-2.77545 -23.42536,16.61272 -17.75381,35.93732z" fill="none" stroke="#000000" stroke-linecap="butt"/><path d="M-98.96527,415.59101l28.50056,6.19025" fill="none" stroke="#000000" stroke-linecap="round"/><path d="M-101.38157,410.41974c2.89519,19.93048 -2.66434,37.23588 -12.41758,38.65267c-9.75323,1.41679 -20.00677,-13.59153 -22.90196,-33.52202c-1.54204,-10.61543 12.50258,-45.48878 27.18913,-52.49368c12.88748,-6.14684 26.20715,14.94444 30.76561,14.28225c9.75323,-1.41679 -25.53035,13.15028 -22.63517,33.08079z" fill="none" stroke="#000000" stroke-linecap="butt"/><path d="M-136.03766,384.44282c-3.071,19.90414 -13.45663,34.82138 -23.19696,33.31856c-9.74036,-1.50283 -15.14689,-18.85663 -12.07589,-38.76077c1.63567,-10.60138 25.28105,-39.82979 41.37542,-42.22453c14.12284,-2.1014 20.67883,21.9667 25.23125,22.66911c9.74036,1.50283 -28.26281,5.09349 -31.33379,24.99764z" fill="none" stroke="#000000" stroke-linecap="butt"/></g><path d="M-103.69913,405.26001l-27.34558,-10.14" fill="none" stroke="#000000" stroke-linecap="round"/><path d="M-136.74186,378.83054l-23.17487,-17.70663" fill="none" stroke="#000000" stroke-linecap="round"/></g><path d="M-7.84868,417.79803l-29.16493,-0.08401" fill="none" stroke="#000000" stroke-linecap="round"/></g></g><g data-paper-data="{&quot;index&quot;:null}"><path d="M244.61109,418.11977c0.51241,26.56228 -18.69502,48.47384 -42.90099,48.94077c-24.20595,0.46697 -44.24419,-20.6875 -44.75659,-47.24981c-0.51241,-26.56228 18.69505,-48.47383 42.90099,-48.94077c24.20595,-0.46697 44.24415,20.68752 44.75656,47.2498z" fill="#ffbea9" stroke="#000000" stroke-linecap="butt"/><path d="M240.26223,436.87454c0.28927,14.99485 -16.84157,27.48556 -38.26278,27.8988c-21.42121,0.41324 -39.021,-11.40751 -39.31028,-26.40233c-0.19471,-10.09286 28.54975,28.06404 47.5543,14.51128c4.49331,-3.20433 16.7702,-20.42004 18.64488,-37.06234c1.97637,-17.54497 -6.48488,-34.47428 -2.89098,-34.5436c21.42121,-0.41324 13.9756,40.60338 14.26485,55.59822z" fill="#ff9d7d" stroke="none" stroke-linecap="butt"/><path d="M244.5576,418.17537c0.51241,26.56228 -18.69502,48.47384 -42.90099,48.94077c-24.20598,0.46696 -44.24416,-20.68749 -44.75656,-47.2498c-0.51241,-26.56228 18.69501,-48.47384 42.90098,-48.94077c24.20598,-0.46696 44.24416,20.68749 44.75656,47.2498z" fill="none" stroke="#000000" stroke-linecap="butt"/><g><g><g><path d="M150.07914,465.72848c0.38843,20.13595 -7.28472,36.61344 -17.13849,36.80351c-9.85377,0.19007 -18.15669,-15.97919 -18.54512,-36.11515c-0.20687,-10.72485 18.07489,-43.57567 33.52,-48.69544c13.55313,-4.49259 24.14008,18.09438 28.74551,18.00555c9.85377,-0.19007 -26.97037,9.86559 -26.58193,30.00151z" fill="#ffbea9" stroke="#000000" stroke-linecap="butt"/><path d="M141.06839,484.18517c0.16116,8.35427 -4.22318,15.21384 -9.79268,15.32129c-5.5695,0.10745 -10.21515,-6.57793 -10.37631,-14.9322c-0.16116,-8.35427 39.81456,-60.90955 45.3841,-61.01699c2.04382,-0.03942 5.79806,2.96197 0.06153,11.55814c-10.77779,16.15056 -25.37865,43.78122 -25.27663,49.06976z" fill="#ff9d7d" stroke="none" stroke-linecap="butt"/><path d="M169.87504,481.74304c13.99694,-14.48075 -6.12102,-46.92148 0.96533,-40.07189c3.31202,3.20135 26.44633,-6.12913 33.31167,6.39036c7.82374,14.26717 -1.16005,50.77323 -8.61513,58.48602c-13.99691,14.48076 -31.08826,20.66707 -38.1746,13.81749c-7.08634,-6.84959 -1.48418,-24.14122 12.51277,-38.62197z" fill="#ffbea9" stroke="#000000" stroke-linecap="butt"/><path d="M163.9046,501.39497c3.67617,-3.80323 11.80053,-33.97995 14.90655,-53.14643c1.6532,-10.20141 6.4463,-9.8427 7.91612,-8.42199c4.00533,3.87147 -2.51088,69.58036 -8.31813,75.58832c-5.80725,6.00796 -13.76188,7.73993 -17.76719,3.86843c-4.00533,-3.87147 -2.54459,-11.8804 3.26267,-17.88836z" fill="#ff9d7d" stroke="none" stroke-linecap="butt"/><path d="M202.66271,443.48165c3.72958,2.70332 25.32039,-9.79039 33.87948,1.63819c9.75391,13.02397 5.99773,50.4311 -0.29759,59.11639c-11.81947,16.30663 -27.86998,24.83694 -35.84984,19.05294c-7.97986,-5.784 -4.86722,-23.69201 6.95225,-39.99864c11.81947,-16.30663 -12.66417,-45.59288 -4.6843,-39.80888z" fill="#ffbea9" stroke="#000000" stroke-linecap="butt"/><path d="M211.47984,448.87166c0.20094,-10.33255 4.99683,-10.65203 6.65196,-9.45233c4.51034,3.26922 7.30737,69.24112 2.40356,76.00665c-4.90384,6.76552 -12.53551,9.59986 -17.04588,6.33064c-4.51034,-3.26922 -4.19136,-11.40399 0.71245,-18.16951c3.10428,-4.28281 6.90044,-35.30258 7.27791,-54.71545z" fill="#ff9d7d" stroke="none" stroke-linecap="butt"/><path d="M249.97528,476.58914c6.52338,-19.05394 -25.46609,-39.88201 -16.1418,-36.6897c4.35796,1.49202 21.341,-16.77902 32.87281,-8.35953c13.14163,9.59486 20.50963,46.46104 17.03513,56.60956c-6.52338,19.05394 -19.3704,31.91235 -28.69469,28.72004c-9.32429,-3.19231 -11.59483,-21.22644 -5.07145,-40.28035z" fill="#ffbea9" stroke="#000000" stroke-linecap="butt"/><path d="M252.91456,496.91657c1.71333,-5.00436 -3.74512,-35.77515 -9.0717,-54.44678c-2.83506,-9.93802 1.65678,-11.64855 3.59077,-10.98642c5.27023,1.80433 27.27268,64.06191 24.56615,71.96726c-2.70649,7.90535 -9.17293,12.85119 -14.44316,11.04686c-5.27023,-1.80433 -7.34855,-9.6756 -4.64203,-17.58095z" fill="#ff9d7d" stroke="none" stroke-linecap="butt"/><path d="M149.24992,465.79905c0.38844,20.13592 -7.28471,36.61343 -17.13845,36.80351c-9.85374,0.19008 -18.15668,-15.97922 -18.54512,-36.11514c-0.20687,-10.72485 18.07489,-43.57568 33.52,-48.69544c13.55313,-4.49259 24.14007,18.09439 28.7455,18.00556c9.85374,-0.19008 -26.97037,9.86559 -26.58193,30.00151z" fill="none" stroke="#000000" stroke-linecap="butt"/><path d="M170.43421,482.35943c13.99694,-14.48075 -6.12102,-46.92149 0.96532,-40.0719c3.31202,3.20135 26.44633,-6.12913 33.31168,6.39037c7.82374,14.26717 -1.16006,50.77323 -8.61514,58.48601c-13.99691,14.48076 -31.08826,20.66708 -38.1746,13.81749c-7.08634,-6.84959 -1.48418,-24.14122 12.51277,-38.62197z" fill="none" stroke="#000000" stroke-linecap="butt"/><path d="M203.44597,487.27985l-28.11572,-7.7529" fill="none" stroke="#000000" stroke-linecap="round"/><path d="M207.98735,483.82208c11.81948,-16.30666 -12.66416,-45.59288 -4.6843,-39.80888c3.72961,2.70333 25.32042,-9.79038 33.87952,1.6382c9.75394,13.02398 5.99774,50.43109 -0.29759,59.11638c-11.81947,16.30663 -27.86998,24.83694 -35.84984,19.05294c-7.97986,-5.784 -4.86722,-23.692 6.95225,-39.99863z" fill="none" stroke="#000000" stroke-linecap="butt"/><path d="M250.74322,476.90975c6.5234,-19.0539 -25.46607,-39.88197 -16.14178,-36.68966c4.35797,1.49199 21.341,-16.77905 32.87282,-8.35956c13.14164,9.59482 20.5096,46.46103 17.0351,56.60955c-6.52337,19.05391 -19.3704,31.91233 -28.69469,28.72002c-9.32426,-3.1923 -11.59479,-21.22644 -5.07142,-40.28034z" fill="none" stroke="#000000" stroke-linecap="butt"/></g><path d="M212.43599,480.32869l28.92702,3.71851" fill="none" stroke="#000000" stroke-linecap="round"/><path d="M282.72028,467.34679l-28.74712,4.91956" fill="none" stroke="#000000" stroke-linecap="round"/></g><path d="M147.59357,460.39071l-25.86847,-13.46932" fill="none" stroke="#000000" stroke-linecap="round"/></g></g><g stroke-linecap="butt"><g><path d="M23.25619,104.78971c-0.59777,-58.22211 51.61604,-105.96153 116.62285,-106.62896c65.00681,-0.66744 118.18981,45.98982 118.78759,104.21194c0.59777,58.22211 -51.61604,105.96153 -116.62285,106.62896c-65.00681,0.66744 -118.18982,-45.98985 -118.78759,-104.21196z" fill="#ffbea9" stroke="#000000"/><path d="M250.60823,78.43281c-30.85749,-43.35224 -43.43386,-87.34977 -28.09008,-98.27125c15.34378,-10.92148 52.79728,15.36887 83.65478,58.72111c30.85749,43.35227 43.43383,87.34977 28.09005,98.27126c-15.34378,10.92148 -52.79729,-15.36887 -83.65479,-58.72111z" fill="#1000ff" stroke="#000000"/><path d="M259.75197,88.62183c-0.10743,-10.46264 -45.56094,-43.7402 -25.53246,-43.94584c20.02849,-0.20563 39.20007,39.47676 39.30748,49.9394c0.0322,3.13627 34.46186,32.38521 45.92693,23.33977c7.86219,-6.20295 8.48694,-38.38281 13.55472,-34.81152c12.19543,8.59425 5.56245,56.45541 -4.3452,56.55713c-20.02849,0.20563 -68.80409,-40.61632 -68.9115,-51.07896z" fill="#0c00b3" stroke="none"/><path d="M221.42448,-20.90985c15.34378,-10.92148 52.79729,15.36887 83.65479,58.72111c30.85749,43.35224 43.43386,87.34978 28.09008,98.27126c-15.34378,10.92148 -52.79729,-15.36887 -83.65479,-58.72111c-30.85749,-43.35224 -43.43386,-87.34978 -28.09008,-98.27126z" fill="none" stroke="#000000"/><path d="M218.38899,-91.21383c52.31321,-0.53711 95.09962,35.86206 95.56614,81.29979c0.46651,45.43777 -41.56355,82.70775 -93.87672,83.24486c-52.31318,0.53711 -95.09959,-35.86209 -95.56611,-81.29982c-0.46652,-45.43773 41.56349,-82.70773 93.8767,-83.24483z" fill="#ff0000" stroke="#000000"/><path d="M200.60063,21.56384c-0.22712,-22.121 -29.56662,-107.96089 -0.57018,-108.25861c16.92135,-0.17373 14.61414,91.81459 42.56093,113.9082c19.94286,15.76605 74.59457,-38.79502 74.68914,-29.58307c0.22712,22.121 -34.76947,63.15036 -63.76591,63.44807c-28.99648,0.29772 -52.68686,-17.39357 -52.91398,-39.51456z" fill="#dc0000" stroke="none"/><path d="M218.38899,-91.2138c52.31321,-0.53711 95.09962,35.86206 95.56614,81.29979c0.46652,45.43773 -41.56351,82.70772 -93.87673,83.24483c-52.31321,0.53711 -95.09963,-35.86206 -95.56614,-81.29979c-0.46652,-45.43773 41.56352,-82.70772 93.87674,-83.24483z" fill="none" stroke="#000000"/><path d="M43.25411,150.41303c-0.07452,-7.25804 42.83158,43.5615 102.15817,42.95238c59.32658,-0.60912 104.06059,-50.04268 104.13511,-42.78463c0.07452,7.25804 -41.82842,54.14528 -101.155,54.7544c-59.32658,0.60912 -105.06375,-47.66407 -105.13827,-54.92212z" fill="#ff9d7d" stroke="none"/><path d="M-16.93307,56.77749c0,0 85.64788,-175.33589 142.1779,-174.19564c56.52995,1.14025 128.07841,101.76106 126.93812,158.29105c-1.14025,56.52995 -42.5758,-56.32447 -99.10578,-57.46476c-4.58394,-0.09247 -170.01027,73.36936 -170.01027,73.36936z" fill="#ffb300" stroke="#000000"/><path d="M34.90436,8.01845c16.97034,2.61061 63.51869,-37.28512 94.87359,-44.09655c42.61502,-9.25756 70.30013,13.7855 79.51288,20.12102c25.86407,17.7864 50.39022,61.4196 46.32474,67.33139c-4.06545,5.9118 -35.183,-28.13653 -61.04706,-45.92293c-3.85236,-2.64922 -10.7762,-19.53903 -28.07585,-20.06781c-21.76867,-0.66535 -56.51729,16.21598 -83.41662,25.86122c-42.80203,15.34741 -79.23247,53.87682 -96.27607,48.31141c-20.88277,-6.81906 65.17114,-105.62786 66.65669,-107.78806c1.55185,-2.25665 -43.26944,52.448 -18.55231,56.25031z" fill="#e4a000" stroke="none"/><path d="M-14.53561,57.11233c0,0 85.64788,-175.33589 142.1779,-174.19564c56.52995,1.14025 128.07841,101.76106 126.93812,158.29105c-1.14025,56.52995 -42.5758,-56.32447 -99.10578,-57.46476c-4.58394,-0.09247 -170.01027,73.36936 -170.01027,73.36936z" fill="none" stroke="#000000"/><path d="M47.61281,36.74805c20.22763,-25.75505 56.55627,-39.99543 93.38094,-40.37351c35.81048,-0.36767 73.89689,12.98833 96.65118,37.14467c19.15312,20.33325 25.9596,49.83311 26.16839,70.16881c0.45684,44.49496 -55.21168,53.13981 -121.16521,53.81697c-65.95352,0.67716 -114.35395,-6.32776 -114.81079,-50.82272c-0.20177,-19.6515 3.77517,-49.56163 19.7755,-69.93423z" fill="#ffbea9" stroke="#000000"/><path d="M144.0704,-3.83585c65.00681,-0.66744 118.18982,45.98985 118.78759,104.21196c0.59777,58.22211 -51.61607,105.96153 -116.62285,106.62896c-65.00681,0.66744 -118.18982,-45.98986 -118.78759,-104.21197c-0.59777,-58.22211 51.61607,-105.96153 116.62285,-106.62896z" fill="none" stroke="#000000"/><path d="M33.1469,128.89803c-0.03397,-3.30907 -8.32881,-12.00897 -8.375,-22.71691c-0.09862,-22.875 10.95516,-56.6783 34.30004,-79.07452c14.43896,-13.85222 56.16958,-26.55634 82.08636,-28.48716c10.76977,-0.80239 11.78115,6.47375 18.14896,6.40837c11.05604,-0.11352 -55.35782,4.17259 -87.26287,32.07306c-35.80385,31.30986 -37.39291,86.96975 -18.54483,93.85273c20.48403,7.4804 61.56614,14.52892 97.7032,10.53336c56.59392,-6.25741 108.65734,-27.22845 108.71921,-21.20315c0.1701,16.56726 -58.12563,36.88351 -116.18995,37.47967c-58.06434,0.59615 -110.41513,-12.29818 -110.58522,-28.86544z" fill="#ff9d7d" stroke="none"/><path d="M27.60157,107.01689c-0.20177,-19.6515 3.77513,-49.56162 19.77546,-69.93423c20.22762,-25.75501 56.55627,-39.99543 93.38094,-40.37351c35.8105,-0.36767 73.89689,12.98833 96.65118,37.14467c19.15309,20.33329 25.95957,49.83313 26.16836,70.16885c0.45683,44.49493 -55.21173,53.13978 -121.16521,53.81694c-65.95348,0.67716 -114.35392,-6.32776 -114.81075,-50.82269z" fill="none" stroke="#000000"/><path d="M19.78223,189.89465c0,0 -30.75995,-192.69685 16.14345,-224.27231c46.90336,-31.57547 163.30113,9.59843 194.87659,56.50183c31.57547,46.90336 -67.22177,-21.59577 -114.12517,9.97969c-3.80335,2.56042 -96.89487,157.7908 -96.89487,157.7908z" fill="#ffb300" stroke="#000000"/><path d="M16.9817,63.50692c-0.02811,-2.73859 -5.23818,67.79085 17.16971,56.68763c15.38482,-7.62327 30.52388,-67.03057 52.25859,-90.6341c29.54006,-32.08004 65.44073,-29.149 76.62108,-29.26379c31.38791,-0.32227 76.54483,21.27036 76.61849,28.44475c0.07366,7.17438 -44.96383,-2.78628 -76.35174,-2.46402c-4.6751,0.048 -20.0523,-9.78801 -34.50936,-0.27225c-18.1918,11.97402 -36.9121,45.76746 -53.37203,69.12713c-26.19096,37.16976 -33.83818,89.64082 -50.98218,94.88886c-21.00583,6.4302 -7.42566,-123.89263 -7.45257,-126.51418z" fill="#e4a000" stroke="none"/><path d="M21.93619,188.78989c0,0 -30.75999,-192.69681 16.14341,-224.27229c46.90336,-31.57547 163.30113,9.5984 194.8766,56.5018c31.57547,46.90336 -67.22177,-21.59577 -114.12517,9.97969c-3.80335,2.56042 -96.89483,157.79083 -96.89483,157.79083z" fill="none" stroke="#000000"/></g><path d="M142.94839,59.69421c28.51817,-0.2928 51.80241,15.6092 52.00682,35.51811c0.20441,19.90891 -22.74843,36.28562 -51.26659,36.57843c-28.51817,0.2928 -51.80241,-15.60919 -52.00682,-35.5181c-0.20441,-19.90891 22.74842,-36.28563 51.26659,-36.57844z" fill="#ff9d7d" stroke="none"/><path d="M100.94539,50.95233c15.80356,-0.16226 28.79701,17.44497 29.02167,39.32682c0.22466,21.88185 -12.40454,39.75215 -28.2081,39.91441c-15.80356,0.16226 -31.33894,-7.73278 -31.5636,-29.61467c-0.22466,-21.88185 14.94646,-49.4643 30.75002,-49.62657z" fill="#000000" stroke="#000000"/><path d="M218.92676,98.2435c0.22098,21.52316 -14.89706,29.60089 -30.44153,29.7605c-15.54447,0.1596 -28.32495,-17.15897 -28.54593,-38.68212c-0.22098,-21.52316 12.20118,-39.10048 27.74568,-39.26008c15.54447,-0.1596 31.0208,26.65859 31.24177,48.18171z" data-paper-data="{&quot;index&quot;:null}" fill="#000000" stroke="#000000"/></g></g></g></svg>