<svg version="1.1" xmlns="http://www.w3.org/2000/svg" xmlns:xlink="http://www.w3.org/1999/xlink" width="121.05541" height="115.86156" viewBox="0,0,121.05541,115.86156"><g transform="translate(-153.08152,-97.46383)"><g data-paper-data="{&quot;isPaintingLayer&quot;:true}" fill-rule="nonzero" stroke-linecap="butt" stroke-linejoin="miter" stroke-miterlimit="10" stroke-dasharray="" stroke-dashoffset="0" style="mix-blend-mode: normal"><path d="M154.7569,130.78922c0,17.30053 14.38819,31.32539 32.13693,31.32539c17.74874,0 32.13693,-14.02486 32.13693,-31.32539c0,-17.30053 -14.38819,-31.32539 -32.13693,-31.32539c-17.74874,0 -32.13693,14.02486 -32.13693,31.32539z" fill="#dedede" stroke="#000000" stroke-width="0"/><path d="M158.9983,142.34461c0,3.96135 2.21029,7.61001 5.92462,10.51818c5.195,4.06748 13.00757,9.28336 22.15462,9.28336c15.68701,0 28.72847,-10.29969 28.72847,-19.80154c0,-6.5294 0.73026,7.05132 1.37748,2.9858c0.29464,-1.85079 7.26294,-24.08581 2.35559,-24.08581c-8.37542,0 -8.74621,24.77628 -20.58683,29.64938c-6.03824,2.48509 -18.98045,5.42891 -28.43013,1.85087c-6.72689,-2.54708 -11.52382,-12.2419 -11.52382,-10.40025z" fill="#aaaaaa" stroke="none" stroke-width="0"/><path d="M207.86307,180c0,17.30053 14.38819,31.32539 32.13693,31.32539c17.74874,0 32.13693,-14.02486 32.13693,-31.32539c0,-17.30053 -14.38819,-31.32539 -32.13693,-31.32539c-17.74874,0 -32.13693,14.02486 -32.13693,31.32539z" fill="#dedede" stroke="#000000" stroke-width="0"/><path d="M210.93677,192.33539c0,2.61843 5.6896,11.48238 13.95985,15.90356c6.4523,3.44933 14.98351,2.92414 20.28708,2.92414c12.10141,0 24.83308,-17.08795 24.83308,-21.74924c0,-4.66128 -16.62706,16.55539 -28.72847,16.55539c-12.10141,0 -30.35154,-18.29513 -30.35154,-13.63385z" fill="#aaaaaa" stroke="none" stroke-width="0"/><path d="M207.86307,180c0,17.30053 14.38819,31.32539 32.13693,31.32539c17.74874,0 32.13693,-14.02486 32.13693,-31.32539c0,-17.30053 -14.38819,-31.32539 -32.13693,-31.32539c-17.74874,0 -32.13693,14.02486 -32.13693,31.32539z" fill="none" stroke="#000000" stroke-width="4"/><path d="M155.08152,130.78922c0,17.30053 14.38819,31.32539 32.13693,31.32539c17.74874,0 32.13693,-14.02486 32.13693,-31.32539c0,-17.30053 -14.38819,-31.32539 -32.13693,-31.32539c-17.74874,0 -32.13693,14.02486 -32.13693,31.32539z" fill="none" stroke="#000000" stroke-width="4"/></g></g></svg>