<svg version="1.1" xmlns="http://www.w3.org/2000/svg" xmlns:xlink="http://www.w3.org/1999/xlink" width="315.3553" height="290.68597" viewBox="0,0,315.3553,290.68597"><defs><linearGradient x1="240" y1="41.5" x2="240" y2="318.5" gradientUnits="userSpaceOnUse" id="color-1"><stop offset="0" stop-color="#4791a8"/><stop offset="1" stop-color="#146a7d"/></linearGradient></defs><g transform="translate(-82.4172,-31.81403)"><g data-paper-data="{&quot;isPaintingLayer&quot;:true}" fill-rule="nonzero" stroke-linejoin="miter" stroke-miterlimit="10" stroke-dasharray="" stroke-dashoffset="0" style="mix-blend-mode: normal"><path d="M87,318.5v-277h306v277z" fill="url(#color-1)" stroke="#000000" stroke-width="4" stroke-linecap="butt"/><path d="M83.09309,99.66967c0,27.78009 20.8396,50.3003 46.54655,50.3003c25.70695,0 46.54655,-22.52021 46.54655,-50.3003c0,-27.78009 -20.8396,-50.3003 -46.54655,-50.3003c-25.70695,0 -46.54655,22.52021 -46.54655,50.3003z" fill="#ffffff" stroke="none" stroke-width="0" stroke-linecap="butt"/><path d="M87.5,243.33413c0,34.79394 62.68014,63 140,63c77.31986,0 163,-19.20606 163,-54c0,-5.56366 2.7677,-86.59336 0.6654,-98.45683c-1.40162,-7.9095 -14.01828,-1.41359 -21.22302,13.71642c-4.01643,8.43454 -1.29666,26.4446 -6.16773,29.56534c-3.79977,2.4344 -15.4399,-19.00597 -17.72974,-20.12033c-12.47351,-6.07029 -37.21601,23.06349 -52.68526,16.42819c-8.35553,-3.58398 -6.66753,-28.34386 -16.14318,-29.97524c-7.14455,-1.23004 -17.84413,25.67037 -25.36156,24.69362c-7.21522,-0.93748 -11.60887,-19.19791 -19.12754,-19.40199c-2.83169,-0.07686 -2.35275,11.55082 -5.22738,11.55082c-8.30445,0 -11.89789,-16.21961 -19.70368,-18.18636c-6.51972,-1.64271 -17.28837,11.19336 -23.78886,8.78351c-7.3003,-2.70635 -15.91408,-9.41668 -22.27481,-8.40589c-5.84047,0.92812 -12.39128,7.16226 -16.72536,13.17156c-3.40318,4.71857 -11.23887,-16.26184 -16.25522,-14.0888c-26.45726,11.46102 -41.25207,63.89509 -41.25207,81.72598z" fill="#00adad" stroke="none" stroke-width="0" stroke-linecap="butt"/><path d="M87.5,318l2.46448,-46.43452l121.53552,-69.56548c0,0 21.07799,10.59139 35.90904,14.35814c30.94406,7.85908 145.26039,21.38484 145.26039,21.38484l-2.16943,82.25702" fill="#8ebbbb" stroke="#000000" stroke-width="4" stroke-linecap="round"/><path d="M395.5,168l-45,-119l-32,136l-46,-148l-63,119l-16,-114l-43,128l-21,-129l-22,49l-22,-49l307,-1.66587z" fill="#00adad" stroke="#000000" stroke-width="4" stroke-linecap="round"/><path d="M88.5,164l24,11l21.19546,71.87379l-46.19546,26.12621" fill="#00adad" stroke="#000000" stroke-width="4" stroke-linecap="round"/><path d="M112.5,177l19,-20l14,20l16,54" fill="none" stroke="#000000" stroke-width="4" stroke-linecap="round"/><path d="M151.5,172l11,-11l21,10l4,46" fill="none" stroke="#000000" stroke-width="4" stroke-linecap="round"/><path d="M184.5,175l23,-14l12,16v29" fill="none" stroke="#000000" stroke-width="4" stroke-linecap="round"/><path d="M220.5,181l17,-13l16,22l-4,24" fill="none" stroke="#000000" stroke-width="4" stroke-linecap="round"/><path d="M253.5,191l25,-30l15,33v27" fill="none" stroke="#000000" stroke-width="4" stroke-linecap="round"/><path d="M296.5,194l27,-12l24,-8l17,25l-1,33" fill="none" stroke="#000000" stroke-width="4" stroke-linecap="round"/><path d="M365.5,197l4,-29l17,-20" fill="none" stroke="#000000" stroke-width="4" stroke-linecap="round"/><path d="M87,318.5v-277h306v277z" fill="none" stroke="#000000" stroke-width="8" stroke-linecap="butt"/></g></g></svg>