<svg version="1.1" xmlns="http://www.w3.org/2000/svg" xmlns:xlink="http://www.w3.org/1999/xlink" width="404.12087" height="735.45241" viewBox="0,0,404.12087,735.45241"><g transform="translate(105.08518,0.12803)"><g data-paper-data="{&quot;isPaintingLayer&quot;:true}" fill-rule="nonzero" stroke-width="7.5" stroke-linejoin="miter" stroke-miterlimit="10" stroke-dasharray="" stroke-dashoffset="0" style="mix-blend-mode: normal"><g data-paper-data="{&quot;index&quot;:null}" stroke-linecap="butt"><g><path d="M170.10049,692.15622c-0.77331,8.02581 4.8266,19.99131 -5.29181,24.61781c-11.73685,5.36651 -40.43148,2.6566 -58.43544,0.92186c-16.80281,-1.619 -38.16017,-4.81839 -48.60181,-11.58166c-10.39161,-6.73092 -9.90979,-17.00889 -9.07663,-25.65581c1.67032,-17.33544 30.20197,-28.76993 63.7272,-25.53967c33.52521,3.23025 59.34874,19.90203 57.67842,37.23746z" fill="#444444" stroke="#000000"/><path d="M169.72105,708.89601c-0.89367,9.275 -29.16932,14.13923 -63.15538,10.86457c-33.98605,-3.27466 -60.81275,-13.44816 -59.91908,-22.72316c0.89367,-9.275 -0.98374,-42.06568 33.00234,-38.79102c5.78947,0.55783 -8.45835,7.19334 -17.2984,16.25831c-8.10557,8.31177 -10.95831,18.99128 -4.65114,21.99513c14.07236,6.70213 50.74769,14.03638 76.01755,14.70466c23.5631,0.62314 36.29454,-5.3225 36.00413,-2.3085z" fill="#282828" stroke="none"/><path d="M168.73971,692.8606c-0.77331,8.02581 4.82664,19.99132 -5.29174,24.61781c-11.73685,5.36651 -40.43148,2.65657 -58.43544,0.92184c-16.80281,-1.619 -38.16013,-4.81836 -48.60176,-11.58166c-10.39161,-6.73092 -9.90979,-17.00886 -9.07664,-25.65576c1.67032,-17.33541 30.20195,-28.76993 63.72718,-25.53967c33.52525,3.23026 59.34876,19.90203 57.67844,37.23747z" fill="none" stroke="#000000"/></g><g><path d="M196.6697,701.9456c-0.77331,8.02581 1.01531,19.62409 -3.64388,24.77659c-5.40444,5.97666 -17.75648,4.8414 -25.50469,4.09484c-7.2313,-0.69676 -16.36059,-2.71796 -20.54117,-8.87796c-4.16057,-6.13054 -3.39177,-16.38083 -2.55861,-25.02775c1.67032,-17.33544 14.72057,-30.26161 29.14855,-28.87143c14.42798,1.39018 24.7701,16.57027 23.09978,33.90571z" fill="#444444" stroke="#000000"/><path d="M195.59411,718.61835c-0.89367,9.275 -13.4751,15.65141 -28.10139,14.24213c-14.62631,-1.40929 -25.75881,-10.07061 -24.86513,-19.34561c0.89367,-9.275 1.85906,-41.79179 16.48538,-40.38251c2.49157,0.24007 -4.07567,7.61567 -8.41936,17.11388c-3.98282,8.70901 -5.80621,19.48768 -3.22215,22.13282c5.76547,5.90173 21.34245,11.20307 32.31371,10.49364c10.23024,-0.66152 16.09939,-7.26837 15.80898,-4.25437z" fill="#282828" stroke="none"/><path d="M196.03866,702.72029c-0.77331,8.02581 1.01533,19.62411 -3.64385,24.77659c-5.40444,5.97666 -17.7565,4.84135 -25.50471,4.09479c-7.2313,-0.69676 -16.36057,-2.71791 -20.54115,-8.87793c-4.16057,-6.13054 -3.39177,-16.38083 -2.55861,-25.02773c1.67032,-17.33541 14.72057,-30.26158 29.14855,-28.87141c14.42798,1.39018 24.7701,16.57027 23.09979,33.90569z" fill="none" stroke="#000000"/></g><g><path d="M120.30546,697.29868c-0.77331,8.02581 1.01531,19.62411 -3.64388,24.77659c-5.40444,5.97666 -17.75648,4.8414 -25.50469,4.09484c-7.2313,-0.69676 -16.36061,-2.71796 -20.54119,-8.87796c-4.16057,-6.13054 -3.39175,-16.38083 -2.55859,-25.02775c1.67032,-17.33544 14.72057,-30.26158 29.14855,-28.87141c14.42795,1.39018 24.7701,16.57027 23.09979,33.90569z" fill="#444444" stroke="#000000"/><path d="M119.22983,713.97142c-0.89367,9.275 -13.4751,15.65141 -28.10141,14.24212c-14.62631,-1.40929 -25.75881,-10.07061 -24.86513,-19.34561c0.89367,-9.275 1.85908,-41.79177 16.48538,-40.38248c2.49157,0.24007 -4.07566,7.61562 -8.41936,17.11383c-3.98282,8.70901 -5.80624,19.48772 -3.22218,22.13284c5.76547,5.90173 21.34248,11.20307 32.31373,10.49364c10.23022,-0.66152 16.09941,-7.26836 15.809,-4.25436z" fill="#282828" stroke="none"/><path d="M119.6744,698.07339c-0.77331,8.02581 1.01533,19.62409 -3.64383,24.77659c-5.40444,5.97666 -17.7565,4.84138 -25.50471,4.09481c-7.2313,-0.69676 -16.36057,-2.71791 -20.54117,-8.87794c-4.16057,-6.13054 -3.39177,-16.38083 -2.55861,-25.02773c1.67032,-17.33541 14.72057,-30.26161 29.14855,-28.87143c14.42798,1.39018 24.77013,16.57028 23.09981,33.90571z" fill="none" stroke="#000000"/></g><g><path d="M164.56623,697.49684c-0.77331,8.02581 1.01531,19.62409 -3.64388,24.77659c-5.40444,5.97666 -17.75648,4.84138 -25.50471,4.09481c-7.2313,-0.69676 -16.36059,-2.71793 -20.54117,-8.87794c-4.16057,-6.13054 -3.39177,-16.38083 -2.55861,-25.02773c1.67032,-17.33544 14.72057,-30.26161 29.14855,-28.87143c14.42795,1.39018 24.7701,16.57027 23.09978,33.90571z" fill="#444444" stroke="#000000"/><path d="M163.49061,714.16956c-0.89367,9.275 -13.4751,15.65141 -28.10139,14.24213c-14.62631,-1.40929 -25.75878,-10.0706 -24.86511,-19.34561c0.89367,-9.275 1.85906,-41.79179 16.48535,-40.38251c2.49157,0.24007 -4.07566,7.61565 -8.41936,17.11385c-3.98282,8.70901 -5.80626,19.4877 -3.22218,22.13282c5.76547,5.90173 21.34248,11.20307 32.31373,10.49364c10.23022,-0.66152 16.09941,-7.26834 15.809,-4.25436z" fill="#282828" stroke="none"/><path d="M163.93516,698.2715c-0.77331,8.02581 1.01533,19.62411 -3.64383,24.77662c-5.40444,5.97666 -17.75648,4.84135 -25.50469,4.09479c-7.2313,-0.69676 -16.36059,-2.71789 -20.54118,-8.87791c-4.16057,-6.13054 -3.39174,-16.38085 -2.55859,-25.02777c1.67032,-17.33541 14.72057,-30.26158 29.14855,-28.87141c14.42798,1.39018 24.77011,16.57025 23.09979,33.90569z" fill="none" stroke="#000000"/></g></g><g stroke-linecap="butt"><g><path d="M-73.38562,664.01744c1.67032,-17.33544 30.202,-28.76993 63.72718,-25.53967c33.52525,3.23026 59.34876,19.90203 57.67844,37.23747c-0.83316,8.64692 -2.32258,18.82778 -13.8082,23.45076c-11.54087,4.64519 -33.11619,3.70789 -49.91901,2.08889c-18.00396,-1.73473 -46.68809,-4.55341 -57.18439,-12.06218c-9.04888,-6.47332 -1.26741,-17.14946 -0.4941,-25.17529z" fill="#444444" stroke="#000000"/><path d="M-76.20941,680.52169c0.29041,-3.01397 11.65243,5.25315 34.901,9.14042c24.93257,4.16887 62.33354,3.97209 77.42667,0.08015c6.76467,-1.74436 6.0035,-12.77206 -0.36597,-22.47855c-6.94662,-10.58606 -19.66538,-19.8199 -13.87591,-19.26207c33.98605,3.27466 25.88237,35.10363 24.9887,44.37863c-0.89367,9.275 -29.16928,14.13923 -63.15535,10.86457c-33.98605,-3.27466 -60.81277,-13.44816 -59.9191,-22.72316z" fill="#282828" stroke="none"/><path d="M-72.18446,664.96867c1.67032,-17.33544 30.20195,-28.76993 63.7272,-25.53967c33.52525,3.23026 59.34874,19.90205 57.67842,37.23746c-0.83316,8.64692 -2.32261,18.82777 -13.80822,23.45076c-11.54088,4.64521 -33.11615,3.70789 -49.91894,2.0889c-18.00396,-1.73473 -46.68809,-4.55341 -57.18439,-12.06215c-9.04888,-6.47332 -1.26736,-17.14946 -0.49405,-25.17529z" fill="none" stroke="#000000"/></g><g><path d="M-101.33518,668.55375c1.67032,-17.33544 14.72059,-30.26158 29.14855,-28.87141c14.42798,1.39018 24.77011,16.57025 23.09979,33.90569c-0.83316,8.64692 -2.0356,18.85543 -7.29017,24.07879c-5.27982,5.24846 -14.6271,5.48939 -21.85837,4.79264c-7.74821,-0.74656 -20.0898,-1.99059 -24.25367,-8.8892c-3.58969,-5.94731 0.38052,-16.9907 1.15384,-25.01651z" fill="#444444" stroke="#000000"/><path d="M-103.46278,685.12511c0.29041,-3.01397 4.79013,4.59195 14.70584,7.19456c10.63396,2.79116 26.93657,0.56151 33.72282,-4.13082c3.04156,-2.10309 3.30972,-13.03161 1.06302,-22.34086c-2.45026,-10.15283 -7.48846,-18.64662 -4.99688,-18.40655c14.62631,1.40929 9.36541,33.51217 8.47173,42.7872c-0.89367,9.275 -13.4751,15.65141 -28.10141,14.24212c-14.62631,-1.40929 -25.75881,-10.07061 -24.86513,-19.34561z" fill="#282828" stroke="none"/><path d="M-100.86371,669.4347c1.67032,-17.33544 14.72057,-30.26158 29.14855,-28.87141c14.42798,1.39018 24.7701,16.57027 23.09979,33.90569c-0.83316,8.64692 -2.0356,18.85543 -7.29017,24.07879c-5.27983,5.24849 -14.62705,5.48937 -21.85835,4.79262c-7.74821,-0.74656 -20.0898,-1.99056 -24.25367,-8.88916c-3.58969,-5.94731 0.38055,-16.9907 1.15386,-25.01651z" fill="none" stroke="#000000"/></g><g><path d="M-25.48856,678.57282c1.67032,-17.33544 14.72059,-30.26158 29.14855,-28.87141c14.42798,1.39018 24.77011,16.57025 23.09979,33.90569c-0.83316,8.64692 -2.0356,18.85543 -7.29015,24.07879c-5.27982,5.24846 -14.6271,5.48939 -21.8584,4.79263c-7.74821,-0.74656 -20.08977,-1.99058 -24.25364,-8.8892c-3.58969,-5.94731 0.38052,-16.9907 1.15384,-25.01651z" fill="#444444" stroke="#000000"/><path d="M-27.61614,695.14418c0.29041,-3.01397 4.79015,4.59195 14.70587,7.19456c10.63396,2.79116 26.93657,0.56151 33.72282,-4.13082c3.04156,-2.10309 3.3097,-13.03161 1.06299,-22.34088c-2.45026,-10.15283 -7.48843,-18.64662 -4.99686,-18.40655c14.62631,1.40929 9.36541,33.51217 8.47173,42.7872c-0.89367,9.275 -13.4751,15.65141 -28.10141,14.24212c-14.62631,-1.40929 -25.75881,-10.07061 -24.86513,-19.34561z" fill="#282828" stroke="none"/><path d="M-25.01707,679.45375c1.67032,-17.33544 14.72059,-30.26158 29.14857,-28.8714c14.42798,1.39018 24.7701,16.57027 23.09979,33.90569c-0.83316,8.64692 -2.0356,18.85543 -7.29017,24.07879c-5.27983,5.24849 -14.62707,5.48937 -21.85837,4.79261c-7.74821,-0.74656 -20.0898,-1.99056 -24.25367,-8.88916c-3.58969,-5.94731 0.38055,-16.9907 1.15386,-25.01651z" fill="none" stroke="#000000"/></g><g><path d="M-68.9729,670.31648c1.67032,-17.33544 14.72059,-30.2616 29.14855,-28.87143c14.42798,1.39018 24.7701,16.57027 23.09978,33.90571c-0.83316,8.64692 -2.0356,18.85543 -7.29017,24.07879c-5.27982,5.24846 -14.6271,5.48939 -21.85837,4.79264c-7.74821,-0.74656 -20.08977,-1.99058 -24.25364,-8.8892c-3.58969,-5.94731 0.38052,-16.99068 1.15384,-25.01651z" fill="#444444" stroke="#000000"/><path d="M-71.10047,686.88782c0.29041,-3.01397 4.79013,4.59192 14.70584,7.19456c10.63396,2.79116 26.93659,0.56152 33.72284,-4.13082c3.04156,-2.10309 3.30968,-13.03162 1.06299,-22.34086c-2.45026,-10.15283 -7.48843,-18.64662 -4.99686,-18.40655c14.62631,1.40929 9.36541,33.51217 8.47173,42.7872c-0.89367,9.275 -13.47507,15.65142 -28.10139,14.24213c-14.62631,-1.40929 -25.75881,-10.07061 -24.86513,-19.34561z" fill="#282828" stroke="none"/><path d="M-68.5014,671.19738c1.67032,-17.33544 14.72057,-30.26158 29.14855,-28.87141c14.42798,1.39018 24.7701,16.57027 23.09979,33.90569c-0.83316,8.64692 -2.0356,18.85543 -7.29015,24.07879c-5.27983,5.24849 -14.62709,5.48935 -21.85837,4.79259c-7.74821,-0.74656 -20.08977,-1.99056 -24.25365,-8.88915c-3.58969,-5.94731 0.38055,-16.9907 1.15386,-25.01651z" fill="none" stroke="#000000"/></g></g><g><path d="M222.01095,430.29618l-40.474,-105.10145l16.47111,-6.34295l40.474,105.10145z" fill="#1b1b1b" stroke="#000000" stroke-linecap="butt"/><g data-paper-data="{&quot;index&quot;:null}"><path d="M182.85097,224.83209c15.66215,1.50909 48.65637,117.81682 47.26784,132.22772c-0.15399,1.59822 -2.91717,-2.12652 -6.1186,-2.97188c-4.3014,-1.1358 -9.77556,-0.17003 -14.40345,-3.55264c-8.0288,-5.86841 -14.67864,-16.47871 -18.22327,-12.39154c-6.60338,7.61407 10.85125,58.32749 3.30863,57.60073c-15.66217,-1.5091 -44.09272,-133.14075 -42.70419,-147.55165c0.68914,-7.1522 -3.79898,-15.80131 1.7204,-20.02666c5.60153,-4.28826 21.26366,-4.0942 29.15262,-3.33408z" fill="#444444" stroke="#000000" stroke-linecap="butt"/><path d="M188.42693,333.6402c8.66312,0.83472 19.66917,3.5223 28.93029,5.41335c8.19618,1.6736 15.29438,1.83409 14.2631,12.53729c-0.52682,5.46763 -9.34512,6.11329 -18.83893,0.7328c-8.87502,-5.02982 -18.3747,-16.07452 -21.2876,-12.54391c-6.96314,8.43977 12.57091,53.05233 3.81875,52.20903c-16.33005,-1.57345 -45.05405,-119.81061 -42.85747,-142.60774c1.44925,-15.04109 14.34405,52.16149 30.03327,93.417c8.09033,21.27379 -0.47892,-5.13209 5.07692,-4.59677z" fill="#282828" stroke="none" stroke-linecap="butt"/><path d="M182.95851,223.71646c15.66215,1.50909 48.65637,117.81682 47.26784,132.22772c-0.59976,6.22464 -9.42643,-7.44783 -14.77939,-0.09565c-2.85973,3.92779 -21.6921,-24.99023 -24.22178,-17.79009c-3.69771,10.52462 8.8474,57.07946 3.56448,56.57043c-15.66217,-1.5091 -44.09272,-133.14075 -42.70419,-147.55165c0.73674,-7.64628 -5.02601,-17.93749 1.12912,-22.16121c5.4454,-3.73671 22.3919,-1.90792 29.74387,-1.19954z" fill="none" stroke="#000000" stroke-linecap="butt"/><path d="M214.63257,287.40998l-46.44067,27.37667" fill="none" stroke="#000000" stroke-linecap="round"/></g></g><g><path d="M47.40848,207.38278c7.88896,0.76012 23.3,3.56006 27.97971,8.83895c4.61108,5.20145 -1.44587,12.83451 -2.13501,19.98671c-1.38853,14.4109 -54.42891,138.19259 -70.09108,136.68349c-15.66217,-1.5091 -28.7871,-30.32816 -27.39857,-44.73906c1.38853,-14.4109 55.98278,-122.27921 71.64493,-120.77012z" fill="#444444" stroke="#000000" stroke-linecap="butt"/><path d="M-4.89478,346.92238c5.55584,0.53532 18.13221,-4.33696 30.13558,-23.67466c23.27764,-37.50094 48.76641,-101.00515 47.31716,-85.96406c-2.19657,22.79713 -52.96754,133.37472 -69.29759,131.80127c-16.33003,-1.57345 -30.12308,-23.78996 -27.92651,-46.58709c2.19657,-22.79713 3.44132,22.85109 19.77135,24.42454z" fill="#282828" stroke="none" stroke-linecap="butt"/><path d="M47.51595,206.26715c7.35198,0.70838 24.33589,2.14889 28.96765,6.85656c5.23544,5.32123 -2.38623,14.32281 -3.12297,21.9691c-1.38853,14.4109 -54.42891,138.19259 -70.09108,136.68349c-15.66217,-1.5091 -28.7871,-30.32816 -27.39857,-44.73906c1.38853,-14.4109 55.98278,-122.27921 71.64493,-120.77012z" fill="none" stroke="#000000" stroke-linecap="butt"/><path d="M44.62252,298.48135l-40.35918,-35.74009" fill="none" stroke="#000000" stroke-linecap="round"/></g><g stroke-linecap="butt"><path d="M111.07769,294.39052c25.91758,2.49724 44.61927,28.48239 41.77136,58.03947c-0.89057,9.24281 15.4068,10.74462 15.28146,18.05582c-0.0443,2.58348 -15.2053,4.89101 -19.17996,8.70941c-4.84881,4.6582 1.11928,10.80628 -1.59415,12.93844c-4.20036,3.30056 -14.88929,-29.7288 -23.94724,-22.86069c-10.12782,7.67935 -16.59764,32.73584 -22.64466,32.15319c-25.91758,-2.49724 -44.61927,-28.48239 -41.77136,-58.03947c2.84791,-29.55709 26.16696,-51.49342 52.08456,-48.99618z" fill="#212121" stroke="#000000"/><path d="M79.47947,411.06506l13.89204,-144.17865l33.14911,3.19401l-13.89204,144.17865z" fill="#1b1b1b" stroke="#000000"/><path d="M111.68424,224.51503c13.76879,1.32666 36.26079,-9.74756 46.1633,20.85824c4.2026,12.98904 17.11777,87.77601 5.25323,121.57166c-5.29953,15.09551 -29.60551,-1.71417 -37.63656,4.97475c-12.0867,10.06683 -18.89901,-55.52021 -31.22201,-64.47054c-10.48872,-7.61807 -27.52371,41.54272 -27.78626,44.26758c-2.31604,24.03701 65.68449,67.48786 36.19046,64.64603c-29.49403,-2.84184 -62.81466,-15.32713 -60.49862,-39.36409c1.50478,-15.61733 4.48001,-103.31551 23.91082,-143.27841c10.47567,-21.54503 35.29443,-10.20066 45.62562,-9.20522z" fill="#444444" stroke="#000000"/><path d="M103.50089,415.22986c-0.88452,0.07792 -59.05614,9.83048 -62.18668,-39.85899c-1.43502,-22.77729 10.38965,-100.51782 22.29733,-132.69551c12.53082,-33.86156 25.17199,-21.65197 23.31267,-23.04728c-3.97092,-2.97991 -34.31837,98.78328 -37.98685,150.16531c-1.88083,26.34357 44.71143,39.61212 42.95015,37.47791c-10.49418,-12.71618 -35.98977,-45.53314 -37.29989,-46.88945c-5.45184,-5.64399 21.41818,-45.98016 20.35993,-50.61688c-1.53393,-6.72084 24.68108,-9.98645 26.51413,-9.53884c7.88773,1.92602 16.11166,54.16141 30.43915,66.86364c8.67044,7.68691 26.52468,-18.19115 28.05385,-23.96394c8.7661,-33.09319 -15.50342,-111.95202 -5.46983,-110.98525c16.76371,1.61523 14.73304,114.83853 13.52869,127.33781c-1.20434,12.49925 -10.51589,16.99166 -27.27963,15.37642c-3.14765,-0.30329 -14.51287,-1.87125 -20.16973,-12.0982c-10.70015,-19.34462 -17.7964,-53.27908 -28.40601,-53.06676c-8.60906,0.1723 -22.69591,24.02793 -26.00336,41.94946c-1.93806,10.50152 4.96909,20.51988 5.17247,18.40908c0.05147,-0.5342 50.07127,43.60488 32.17358,45.18153z" fill="#282828" stroke="none"/><path d="M112.77917,224.65389c13.76879,1.32666 36.26079,-9.74756 46.1633,20.85824c11.30956,34.95465 9.03265,112.75917 7.79782,125.57491c-0.23924,2.483 -19.19712,1.63275 -32.65146,0.26502c-6.62396,-0.67339 -9.03629,2.46975 -12.84964,-1.88268c-15.14724,-17.28849 -10.67391,-57.85203 -27.22889,-61.59043c-3.11872,-0.70427 -17.46819,24.1449 -21.91196,34.38576c-0.92138,2.12339 -1.34449,5.5676 -1.84118,5.51546c-4.26573,-0.44779 -1.81328,3.02532 -3.35172,4.25827c-12.03401,9.64446 52.47107,65.96967 36.83589,64.46317c-29.49403,-2.84184 -62.81466,-15.32713 -60.49862,-39.36409c1.50477,-15.61731 4.48001,-103.31551 23.91082,-143.27841c10.47567,-21.54503 35.29443,-10.20063 45.62561,-9.20519z" fill="none" stroke="#000000"/><path d="M113.0804,235.13806c22.79278,2.19615 37.62892,41.76534 33.13743,88.38025c-2.10348,21.83099 14.13865,57.07427 6.59571,48.78293c-3.39418,-3.73095 -21.14142,5.35026 -29.38292,-6.48109c-12.55102,-18.01801 -16.93602,-58.22213 -24.25104,-58.92695c-17.76129,-1.71135 -32.10037,54.85491 -35.45185,48.12474c-0.94942,-1.90654 -1.04137,-29.16241 -0.04988,-39.45258c4.49148,-46.6149 26.60974,-82.62343 49.40252,-80.42728z" fill="#b7b7b7" stroke="#000000"/><path d="M74.6797,273.89734c0.51635,-5.35896 7.33157,-24.60767 19.62476,-33.64342c5.24776,-3.85722 14.2759,-3.93707 19.68707,-3.41569c18.08716,1.74275 26.92439,35.72359 26.18762,43.3702c-0.73677,7.64661 -6.79135,-32.90195 -24.87852,-34.6447c-2.68358,-0.25857 -29.19399,12.87258 -35.32161,26.05284c-1.38091,2.97026 -18.4833,54.13665 -13.84253,58.11374c2.85815,2.44943 6.03946,-16.38267 15.03018,-25.31497c8.65319,-8.59696 23.09814,-7.35038 27.15712,-3.02284c8.83616,9.42079 15.76595,43.05092 23.20396,53.61949c10.09813,14.34827 19.31602,5.04821 18.60071,10.47606c-0.9773,7.416 -13.76643,12.29066 -29.97753,-7.96178c-7.37647,-9.21542 -15.55388,-49.21302 -23.48671,-51.52467c-14.6824,-4.27853 -33.89121,46.72544 -34.64765,46.30766c-3.52676,-1.94791 -1.46975,-30.06311 3.41728,-52.40009c2.76781,-12.65077 9.11472,-24.65089 9.24585,-26.01179z" fill="#989898" stroke="none"/><path d="M111.48285,234.98413c22.79278,2.19615 37.62892,41.76534 33.13743,88.38025c-2.10348,21.83099 14.13865,57.07427 6.59571,48.78293c-3.39418,-3.73095 -21.14142,5.35026 -29.38292,-6.48109c-12.55102,-18.01801 -16.93602,-58.22213 -24.25104,-58.92695c-17.76129,-1.71135 -32.10037,54.85491 -35.45185,48.12474c-0.94942,-1.90654 -1.04137,-29.16241 -0.04988,-39.45258c4.49148,-46.6149 26.60974,-82.62343 49.40252,-80.42728z" fill="none" stroke="#000000"/></g><g stroke-linecap="butt"><path d="M172.29544,244.14632c-0.3188,3.18806 -0.97759,37.58452 -15.31498,36.25341c-14.33741,-1.33111 -36.9241,-37.88571 -36.6053,-41.07377c0.3188,-3.18806 28.70376,-32.67995 43.04117,-31.34883c14.33741,1.33111 9.19791,32.98115 8.87911,36.1692z" data-paper-data="{&quot;index&quot;:null}" fill="#de3636" stroke="#000000"/><path d="M173.96995,243.525c-0.3188,3.18806 -0.97759,37.58452 -15.31498,36.25341c-14.33741,-1.33111 -36.9241,-37.88571 -36.6053,-41.07377c0.3188,-3.18806 28.70376,-32.67995 43.04117,-31.34883c14.33741,1.33111 9.19791,32.98115 8.87911,36.1692z" data-paper-data="{&quot;index&quot;:null}" fill="#de3636" stroke="#000000"/><path d="M173.07029,248.49074c-0.74386,7.43878 -1.58349,32.0906 -14.37684,30.90284c-12.79337,-1.18776 -32.69589,-27.76529 -31.95203,-35.2041c0.30094,-3.00952 26.59566,28.29144 32.4262,21.72429c8.5811,-9.66519 -1.48734,-57.30396 6.13018,-56.59674c12.79337,1.18776 8.51634,31.73491 7.77248,39.1737z" data-paper-data="{&quot;index&quot;:null}" fill="#b72c2c" stroke="none"/><path d="M172.73331,243.79859c-0.3188,3.18806 -0.97759,37.58452 -15.31498,36.25341c-14.33741,-1.33111 -36.9241,-37.88571 -36.6053,-41.07377c0.3188,-3.18806 28.70376,-32.67995 43.04117,-31.34883c14.33741,1.33111 9.19791,32.98115 8.87911,36.1692z" data-paper-data="{&quot;index&quot;:null}" fill="none" stroke="#000000"/><path d="M73.21336,201.15617c14.33741,1.33111 36.35622,35.50257 36.03742,38.69062c-0.3188,3.18806 -29.73343,34.91478 -44.07083,33.58367c-14.33741,-1.33111 -8.16824,-35.21598 -7.84945,-38.40403c0.3188,-3.18806 1.54547,-35.20137 15.88286,-33.87026z" data-paper-data="{&quot;index&quot;:null}" fill="#de3636" stroke="#000000"/><path d="M72.62157,203.04326c7.61752,0.70722 -11.70551,45.61725 -5.1975,56.68333c4.42196,7.51902 36.43537,-18.36853 36.13443,-15.35901c-0.74386,7.43878 -25.54669,29.86581 -38.34006,28.67805c-12.79337,-1.18776 -8.73267,-25.5405 -7.98881,-32.97931c0.74386,-7.43878 2.59859,-38.21083 15.39194,-37.02308z" fill="#b72c2c" stroke="none"/><path d="M74.37304,201.65225c14.33741,1.33111 36.35622,35.50257 36.03742,38.69062c-0.3188,3.18806 -29.73343,34.91478 -44.07083,33.58367c-14.33741,-1.33111 -8.16824,-35.21598 -7.84945,-38.40403c0.3188,-3.18806 1.54547,-35.20137 15.88286,-33.87026z" fill="none" stroke="#000000"/><path d="M112.54152,223.06251c8.82301,0.81914 15.27354,8.50261 14.40768,17.16152c-0.86587,8.65891 -8.72027,15.01429 -17.54325,14.19515c-8.82301,-0.81914 -15.27354,-8.50261 -14.40768,-17.16152c0.86587,-8.65891 8.72024,-15.01429 17.54325,-14.19515z" fill="#de3636" stroke="#000000"/><path d="M101.61872,227.48606c4.13283,0.3837 -1.85002,16.27597 3.34474,20.50773c5.61803,4.57659 22.25856,-2.43571 22.08188,-0.66885c-0.32002,3.20024 -6.99008,7.56585 -14.91754,7.1314c-0.49626,-0.02718 -0.27655,0.77967 -0.78334,0.73262c-8.60244,-0.79866 -15.79133,-7.35565 -15.45128,-10.75623c0.34005,-3.40061 -2.87688,-17.74531 5.72556,-16.94665z" fill="#b72c2c" stroke="none"/><path d="M112.90245,223.4844c8.82301,0.81914 15.27354,8.50263 14.40767,17.16155c-0.86587,8.65893 -8.72025,15.01431 -17.54325,14.19517c-8.82301,-0.81914 -15.27354,-8.50263 -14.40767,-17.16155c0.86587,-8.65893 8.72025,-15.01431 17.54325,-14.19517z" fill="none" stroke="#000000"/></g><g><path d="M103.43303,227.99803l-4.1309,-57.24875l73.55597,-5.30757l4.1309,57.24875z" fill="#1b1b1b" stroke="#000000" stroke-linecap="butt"/><path d="M97.09109,231.94334l-1.17668,-16.30721l82.92394,-5.98354l1.17668,16.30721z" fill="#7c7c7c" stroke="none" stroke-linecap="butt"/><path d="M117.72119,210.92367c8.46334,-0.61069 -24.28025,11.0253 -8.92578,13.83652c9.1547,1.67608 70.68918,-6.15209 70.84412,-4.00483c0.41481,5.74868 -46.90683,10.01126 -60.41617,10.98604c-13.50935,0.9748 -24.7971,-2.89522 -25.2119,-8.64385c-0.41481,-5.74868 10.20042,-11.1991 23.70975,-12.17389z" fill="#585858" stroke="none" stroke-linecap="butt"/><path d="M91.0086,217.57129l-0.9764,-13.53153l91.25104,-6.5844l0.9764,13.53153z" fill="#e1e1e1" stroke="#000000" stroke-linecap="butt"/><path d="M90.1627,213.26101c-0.03295,-0.45655 -0.46912,-6.39775 3.11307,-9.08659c2.89879,-2.17586 9.70424,-1.23057 11.45373,-1.32305c4.25107,-0.22479 -4.34323,5.33473 0.53636,7.65331c4.23281,2.01125 21.65893,0.84535 28.66703,0.47172c11.9684,-0.63812 24.59889,-4.04374 33.67575,-4.69871c26.15637,-1.88735 16.99823,-3.68387 17.27478,0.14859c0.27654,3.83245 -20.70323,8.46924 -46.85962,10.35661c-26.15637,1.88735 -47.58449,0.31059 -47.86104,-3.52186z" fill="#bfbfbf" stroke="none" stroke-linecap="butt"/><g data-paper-data="{&quot;index&quot;:null}" stroke-linecap="butt"><path d="M260.24791,71.87692c-10.092,3.8524 -23.30797,18.51728 -30.99842,16.98394c-8.94208,-1.78287 -11.67337,-20.6427 -13.00431,-28.55892c-1.31808,-7.83972 -0.50984,-24.28503 6.6548,-32.21129c6.29193,-6.96076 18.17757,-5.63995 28.38295,-9.53564c21.82644,-8.33177 41.52712,-3.14948 44.00276,11.57497c2.47561,14.7244 -13.21132,33.41517 -35.03777,41.74696z" fill="#444444" stroke="#000000"/><path d="M246.61828,78.81518c-0.68068,0.96269 -2.3654,1.12649 -3.06702,2.0045c-6.03043,7.54668 -13.24414,11.28242 -16.02012,9.15471c-3.09893,-2.37527 -11.71589,-51.09118 -5.18473,-60.32813c3.43901,-4.86378 -2.88113,25.89402 15.02625,30.39365c16.10115,4.04579 56.68664,-18.40895 58.15382,-17.28438c2.1234,1.62752 -14.45917,15.487 -30.28018,25.4725c-7.26859,4.58759 -16.57197,7.67936 -18.628,10.58714z" fill="#282828" stroke="none"/><path d="M281.65254,53.75663c-9.192,13.00014 -44.98442,29.83398 -47.8099,27.66828c-2.82549,-2.16571 -14.45967,-26.69652 -5.26766,-39.69665c9.192,-13.00014 61.93193,-14.93368 64.75743,-12.76801c2.82549,2.16571 -2.48785,11.79622 -11.67988,24.79638z" fill="#b7b7b7" stroke="#000000"/><path d="M287.74459,33.60704c-1.69887,2.40269 9.92888,2.12868 5.0059,9.52287c-4.17023,6.26355 -24.37953,20.05434 -31.39257,24.6069c-10.20275,6.62317 -19.93715,11.68125 -26.14763,12.4155c-3.13751,0.37092 -4.96905,-1.47282 -6.33326,-2.51845c-2.94756,-2.25925 -3.22913,-7.12693 -4.37047,-10.52893c-3.26947,-9.74544 -0.56799,-22.33763 9.29563,-26.69005c17.94264,-7.91735 48.50731,-12.24728 54.36136,-7.76023c0.72823,0.55819 -19.32464,1.91569 -35.78666,6.25274c-11.91405,3.13885 -21.30041,8.6374 -22.66671,12.69419c-2.61449,7.76285 6.23409,23.96864 8.93313,23.66831c7.19767,-0.80087 24.03172,-7.90402 34.36849,-18.09959c12.13998,-11.97411 17.18171,-27.02674 14.73279,-23.56327z" fill="#989898" stroke="none"/><path d="M280.76193,54.99925c-9.192,13.00014 -44.98442,29.83398 -47.8099,27.66828c-2.82549,-2.16571 -14.45967,-26.69652 -5.26766,-39.69665c9.192,-13.00014 61.93193,-14.93368 64.75743,-12.76801c2.82549,2.16571 -2.48785,11.79622 -11.67988,24.79638z" fill="none" stroke="#000000"/><path d="M259.61124,72.04062c-10.092,3.8524 -15.74162,12.85487 -23.4321,11.32155c-8.94208,-1.78287 -10.55635,-12.14531 -11.88731,-20.06151c-1.31808,-7.83972 -9.19318,-27.12003 -2.02848,-35.0463c6.29193,-6.96076 18.17757,-5.63995 28.38295,-9.53564c21.82644,-8.33177 41.52712,-3.14948 44.00276,11.57497c2.47561,14.7244 -13.21132,33.41517 -35.03777,41.74696z" fill="none" stroke="#000000"/></g><g data-paper-data="{&quot;index&quot;:null}" stroke-linecap="butt"><path d="M226.71265,86.9788c-9.04185,7.27792 -16.52206,25.85217 -25.43797,27.19703c-10.36693,1.56372 -21.83526,-15.17622 -26.84623,-22.13586c-4.96256,-6.89233 -11.55282,-22.6449 -7.48677,-32.69201c3.57072,-8.82321 16.87477,-11.88777 26.01821,-19.2475c19.55519,-15.7403 34.97961,-10.0391 44.30019,2.90597c9.32058,12.94507 9.00776,28.23201 -10.54742,43.97232z" fill="#444444" stroke="#000000"/><path d="M215.28795,98.43934c-0.29129,1.15161 -2.01795,1.91597 -2.36997,2.99558c-3.0256,9.27931 -9.04356,15.40473 -12.97542,14.41026c-4.3893,-1.11018 -35.68227,-43.78456 -32.88752,-54.83423c0.40388,-1.5969 12.93416,-13.2149 14.37018,-10.69124c1.20702,2.12119 -2.92574,6.89605 -2.37983,11.80002c1.17094,10.51906 7.36717,23.13665 17.84892,22.01931c19.04548,-2.03022 41.33795,-30.0919 43.41607,-29.56628c3.00757,0.7607 2.47746,12.04579 -9.90853,27.16492c-5.69046,6.9461 -14.23408,13.22328 -15.11387,16.70171z" fill="#282828" stroke="none"/><path d="M241.38004,62.1894c-3.93333,15.55136 -34.56393,44.34416 -38.56592,43.33195c-4.00201,-1.01221 -27.55778,-19.85779 -23.62446,-35.40915c3.93333,-15.55136 45.84021,-29.92878 49.8422,-28.91655c4.00201,1.01221 16.28153,5.44242 12.3482,20.99378z" fill="#b7b7b7" stroke="#000000"/><path d="M229.21942,43.35786c-0.72696,2.8742 13.69428,5.77181 11.78336,14.50654c-1.61874,7.39906 -9.54696,17.99966 -14.98016,24.82026c-11.89754,14.93569 -27.81502,25.88886 -33.57204,24.43277c-11.48968,-2.906 -18.62218,-13.88757 -15.93097,-24.52798c0.74908,-2.96166 1.64894,-10.22777 7.66245,-15.6057c15.5914,-13.94357 39.44195,-25.56666 47.73358,-23.46948c1.03147,0.26091 -12.92961,5.28116 -28.56112,15.32261c-11.313,7.26726 -18.85434,15.83705 -18.47601,20.14576c0.7239,8.24486 17.5284,20.27355 20.2775,19.01336c7.33106,-3.36063 22.10645,-16.13719 28.53478,-29.46682c7.54968,-15.65489 -3.42341,-29.31443 -4.47133,-25.17125z" fill="#989898" stroke="none"/><path d="M240.99129,63.68024c-3.93333,15.55136 -34.56393,44.34416 -38.56592,43.33195c-4.00201,-1.01221 -27.55778,-19.85779 -23.62446,-35.40915c3.93333,-15.55136 49.3626,-30.08909 53.36462,-29.07687c4.00201,1.01221 12.7591,5.60272 8.82577,21.15408z" fill="none" stroke="#000000"/><path d="M226.10629,87.36336c-9.04185,7.27792 -16.52206,25.85217 -25.43797,27.19703c-10.36693,1.56372 -21.83526,-15.17622 -26.84623,-22.13586c-4.96256,-6.89233 -11.55282,-22.6449 -7.48677,-32.69201c3.57072,-8.82321 16.87477,-11.88777 26.01821,-19.2475c19.55519,-15.7403 34.79011,-5.35658 44.11067,7.58852c9.32058,12.94507 9.19728,23.5495 -10.35792,39.2898z" fill="none" stroke="#000000"/></g><g stroke-linecap="butt"><path d="M-12.39289,15.35926c5.01128,-14.06504 25.31449,-15.72396 45.34855,-3.70533c9.36737,5.61958 21.30086,6.39663 26.27922,14.35002c5.66891,9.05659 3.59014,25.39001 0.92199,32.87864c-2.69415,7.56172 -8.68,25.65374 -17.79606,25.84614c-7.84011,0.16546 -18.28927,-16.5837 -27.55251,-22.14084c-20.03405,-12.01866 -32.21246,-33.16364 -27.20123,-47.22867z" fill="#444444" stroke="#000000"/><path d="M27.01535,71.80177c-1.51607,-3.22241 -10.13584,-7.89277 -16.49065,-13.68023c-13.83206,-12.59721 -27.73673,-29.14183 -25.36156,-30.37317c1.64115,-0.85081 37.67686,28.35237 54.23731,27.18325c18.4182,-1.30025 17.57166,-32.68923 20.10757,-27.29921c4.81604,10.23637 -12.18355,56.69606 -15.64993,58.49309c-3.10514,1.60975 -9.55482,-3.32939 -14.17329,-11.81399c-0.53735,-0.98715 -2.16753,-1.44291 -2.66942,-2.50975z" fill="#282828" stroke="none"/><path d="M-3.09942,41.00519c-6.77813,-14.40671 -10.32634,-24.81775 -7.1658,-26.45619c3.16051,-1.63847 54.75057,9.48397 61.5287,23.89068c6.77813,14.40671 -8.96478,36.52631 -12.12533,38.16476c-3.16051,1.63847 -35.45946,-21.19253 -42.23759,-35.59924z" fill="#b7b7b7" stroke="#000000"/><path d="M-5.57568,20.10092c-1.80583,-3.83822 0.52718,11.86396 10.38723,25.77574c8.39551,11.84541 23.72884,21.78171 30.67571,23.82839c2.60501,0.76748 14.15002,-13.64213 12.9327,-21.74249c-0.63616,-4.23318 -8.9169,-11.28776 -20.09886,-16.4608c-15.45047,-7.14779 -34.95738,-11.9895 -34.14279,-12.4118c6.54823,-3.39467 35.88551,6.21112 52.16803,17.14287c8.95099,6.00951 9.40982,18.88006 4.48726,27.90398c-1.71841,3.15011 -2.84649,7.89366 -6.14362,9.60292c-1.52599,0.79108 -3.6516,2.28631 -6.67598,1.37265c-5.98655,-1.80846 -14.68692,-8.49022 -23.57495,-16.79484c-6.10928,-5.70831 -23.59692,-22.81926 -26.60812,-29.71531c-3.55475,-8.1409 7.8461,-5.83861 6.59338,-8.50128z" fill="#989898" stroke="none"/><path d="M-2.43977,42.38438c-6.77813,-14.40671 -10.32634,-24.81775 -7.1658,-26.45619c3.16051,-1.63847 54.75057,9.48397 61.5287,23.89068c6.77813,14.40671 -8.96478,36.52631 -12.12533,38.16476c-3.16051,1.63847 -35.45946,-21.19253 -42.23759,-35.59924z" fill="none" stroke="#000000"/><path d="M-11.79465,15.63176c5.01128,-14.06504 25.31449,-15.72396 45.34855,-3.70533c9.36737,5.61958 21.30086,6.39663 26.27922,14.35002c5.66891,9.05659 -5.45506,26.66357 -8.12319,34.15222c-2.69415,7.56172 -6.09491,17.48246 -15.21095,17.67484c-7.84011,0.16546 -11.82915,-9.68594 -21.09241,-15.24307c-20.03405,-12.01866 -32.21246,-33.16364 -27.20123,-47.22867z" fill="none" stroke="#000000"/></g><g stroke-linecap="butt"><path d="M42.48867,38.18012c11.43979,-11.11663 27.62328,-14.03393 44.12614,4.8822c7.71622,8.84462 20.2798,14.18749 22.2533,23.49901c2.24726,10.60312 -6.99502,24.96123 -13.0859,30.88006c-6.15033,5.97656 -20.36816,20.45424 -30.30214,17.10248c-8.54359,-2.8826 -12.66196,-22.47839 -20.29245,-31.22473c-16.50281,-18.91613 -14.13872,-34.02239 -2.69893,-45.13899z" fill="#444444" stroke="#000000"/><path d="M42.47137,77.51379c-9.55258,-17.05134 -8.10196,-28.25539 -5.00774,-28.47866c2.13797,-0.15428 19.18224,31.372 37.57964,36.70001c10.12508,2.9323 18.4314,-8.40797 21.42298,-18.56042c1.39468,-4.73302 -1.83983,-10.15675 -0.28065,-12.03432c1.85505,-2.23377 12.16162,11.39556 12.28018,13.03848c0.82029,11.36804 -37.45019,47.91565 -41.96598,48.24149c-4.04515,0.2919 -8.89974,-6.79114 -10.25682,-16.45643c-0.1579,-1.12452 -1.72437,-2.17896 -1.80987,-3.36375c-0.25822,-3.57865 -7.57311,-11.25257 -11.96181,-19.08638z" fill="#282828" stroke="none"/><path d="M35.07901,56.34756c-1.15448,-15.99948 11.71037,-18.21508 15.82771,-18.51218c4.11732,-0.2971 42.86593,21.18405 44.0204,37.18356c1.15447,15.99947 -25.33277,30.43751 -29.45009,30.73461c-4.11732,0.2971 -29.24352,-33.4065 -30.398,-49.40597z" fill="#b7b7b7" stroke="#000000"/><path d="M50.34412,39.93151c-0.30758,-4.26255 -13.49934,7.26865 -8.80229,24.00219c3.99937,14.24803 16.31403,29.41057 22.94483,34.0009c2.4865,1.72133 21.13484,-7.18486 23.28873,-15.17625c1.12563,-4.17625 -4.8017,-13.93227 -14.67023,-23.06511c-13.63566,-12.61913 -26.50428,-20.0025 -25.4431,-20.07907c8.53056,-0.61554 29.98226,14.99753 42.89635,31.45176c4.98088,6.3463 4.59684,13.65783 4.81671,16.70484c0.78991,10.94701 -8.15235,20.51278 -19.97309,21.36573c-5.92292,0.42737 -19.68081,-13.13945 -28.7845,-29.92486c-4.15732,-7.66525 -10.11057,-19.48848 -10.41107,-27.05662c-0.35474,-8.93426 14.35097,-9.26651 14.1376,-12.22352z" fill="#989898" stroke="none"/><path d="M35.2012,57.88341c-1.15448,-15.99948 8.27018,-18.98863 12.38752,-19.28571c4.11732,-0.2971 46.3061,21.9576 47.46059,37.95709c1.15447,15.99947 -25.33277,30.43751 -29.45009,30.73461c-4.11732,0.2971 -29.24352,-33.4065 -30.398,-49.40597z" fill="none" stroke="#000000"/><path d="M42.38656,43.30834c11.43979,-11.11663 28.25521,-18.67751 44.75801,0.23862c7.71622,8.84462 20.2798,14.18749 22.2533,23.49901c2.24726,10.60312 -6.99502,24.96123 -13.0859,30.88006c-6.15033,5.97656 -20.36816,20.45424 -30.30214,17.10248c-8.54359,-2.8826 -12.66196,-22.47839 -20.29245,-31.22473c-16.50281,-18.91613 -14.77062,-29.37881 -3.33079,-40.49542z" fill="none" stroke="#000000"/></g><g><g><path d="M74.39684,189.87945c-23.77839,-29.48675 -20.35274,-85.65553 -4.14964,-98.72188c10.0239,-8.08338 50.93407,-28.71185 78.28407,-19.83644c16.85982,5.47123 37.10087,7.68227 46.169,18.92728c23.77839,29.48675 18.37631,83.31753 2.17321,96.38387c-8.017,6.46497 -36.0364,5.45728 -60.4998,6.29566c-24.97956,0.85606 -49.96352,11.84878 -61.97684,-3.04854z" fill="#444444" stroke="#000000" stroke-linecap="butt"/><path d="M59.55282,158.61214c-0.15236,-2.11148 -8.50484,-30.80984 -0.58156,-50.88951c6.75644,-17.12265 28.53387,-25.45452 42.67457,-33.13505c33.60682,-18.25355 86.66979,10.2826 89.5006,10.07833c1.89436,-0.13669 -32.04018,-13.48573 -63.53479,-11.98006c-15.37332,0.73496 -30.11162,10.59625 -39.92139,16.47311c-7.64763,4.58156 -20.75869,13.57915 -22.65967,21.34448c-4.95451,20.23881 1.71772,46.11081 1.92266,48.95087c0.59104,8.19111 8.90005,12.89017 3.48132,13.28117c-5.41872,0.39101 -10.29062,-5.93227 -10.88167,-14.12335z" fill="#282828" stroke="none" stroke-linecap="butt"/><path d="M88.36832,94.39491c4.41119,-0.3183 27.51038,13.14878 51.29724,15.00854c21.25514,1.66183 43.11077,-8.70229 51.85043,-2.31356c6.65066,4.86165 1.48199,26.45604 4.17294,34.8366c3.8341,11.94063 13.96407,10.97706 14.30478,15.69886c1.24574,17.26436 -58.84219,3.7812 -74.4683,4.90873c-15.62612,1.12753 -29.30348,-11.95396 -30.54923,-29.21829c-1.24574,-17.26436 -32.23397,-37.79328 -16.60785,-38.92082z" fill="#282828" stroke="none" stroke-linecap="butt"/><path d="M74.20449,189.28516c-23.77839,-29.48675 -20.35274,-85.65553 -4.14964,-98.72188c10.0239,-8.08338 50.93407,-28.71185 78.28407,-19.83644c16.85982,5.47123 37.10087,7.68227 46.169,18.92728c23.77839,29.48675 18.37631,83.31753 2.17321,96.38387c-8.017,6.46497 -36.0364,5.45728 -60.4998,6.29564c-24.97956,0.85606 -49.96352,11.84878 -61.97682,-3.04851z" fill="none" stroke="#000000" stroke-linecap="butt"/><path d="M79.548,139.47014c-0.4878,-6.76027 -3.25203,-30.04587 4.34677,-37.45896c8.85251,-8.6362 28.73293,-0.96845 35.73995,-1.47406c13.02164,-0.9396 6.01273,20.89451 7.06882,35.53039c1.05608,14.6359 -8.64393,27.26233 -21.66556,28.20193c-13.02164,0.9396 -24.43389,-10.16342 -25.48997,-24.79933z" fill="#000000" stroke="#000000" stroke-linecap="butt"/><path d="M191.12704,137.30398c0.81051,11.23256 -9.08858,21.10007 -22.11021,22.03967c-13.02164,0.9396 -24.23481,-7.4045 -25.04532,-18.63707c-0.81051,-11.23256 -10.52542,-26.90038 2.4962,-27.83999c7.00699,-0.50561 25.73261,-8.84248 35.59977,-3.4167c8.46975,4.65735 8.68521,22.66582 9.05957,27.8541z" data-paper-data="{&quot;index&quot;:null}" fill="#000000" stroke="#000000" stroke-linecap="butt"/><path d="M77.04794,189.83354c-0.05468,-0.75763 -7.23941,-7.03027 -7.01645,-7.92488c0.79798,-3.20149 -10.2609,-11.75412 -4.36066,-14.72826c13.29368,-6.70095 51.27082,-6.83151 68.79258,-8.09582c18.97093,-1.36889 59.03327,-5.37978 71.9542,2.41066c5.78987,3.49087 -7.15036,18.37522 -6.93651,21.3388c0.69107,9.57732 -35.27387,5.75633 -62.74564,7.7386c-27.47175,1.98228 -58.99649,8.8382 -59.68756,-0.73912z" fill="#b7b7b7" stroke="#000000" stroke-linecap="butt"/><path d="M76.88806,189.60251c-0.08108,-1.12351 -15.83925,-18.96271 -13.84627,-20.12039c3.69277,-2.14508 18.19992,14.28117 31.27177,16.33527c14.69117,2.30854 33.50602,1.48621 47.70296,0.46181c12.62555,-0.91102 30.98274,1.26178 42.87716,-3.72801c11.07126,-4.64444 15.98072,-16.49583 20.10673,-16.74068c3.25445,-0.19314 -6.3775,13.47245 -6.26726,15c0.39379,5.45739 -22.74503,8.37941 -55.64874,10.89294c-0.52676,0.04025 -3.40285,-0.66858 -3.93304,-0.63031c-33.64659,2.42784 -61.86321,4.07405 -62.2633,-1.47069z" fill="#989898" stroke="none" stroke-linecap="butt"/><path d="M76.92146,190.15191c-0.05466,-0.75761 -7.23944,-7.03026 -7.01647,-7.92486c0.79798,-3.20149 -10.2609,-11.75412 -4.36068,-14.72825c13.29368,-6.70095 51.27084,-6.8315 68.79261,-8.09582c18.97093,-1.36889 59.03325,-5.37978 71.9542,2.41066c5.78987,3.49087 -7.15036,18.37522 -6.93651,21.3388c0.69107,9.57732 -35.27387,5.75633 -62.74564,7.7386c-27.47174,1.98228 -58.99648,8.8382 -59.68753,-0.73909z" fill="none" stroke="#000000" stroke-linecap="butt"/><path d="M136.03063,157.44586c15.62612,-1.12753 28.53686,1.32961 28.83693,5.48818c0.30007,4.15855 -12.12417,8.44381 -27.75027,9.57134c-15.62612,1.12753 -28.53686,-1.32961 -28.83693,-5.48818c-0.30007,-4.15855 12.12417,-8.44381 27.75027,-9.57134z" fill="#000000" stroke="#000000" stroke-linecap="butt"/><path d="M75.99994,166.8208l6.93935,-5.54668l7.30158,-0.52685l-4.85053,9.06578l0.03758,6.87815" fill="none" stroke="#000000" stroke-linecap="round"/><path d="M101.78132,161.74943l-14.3068,5.16087" fill="none" stroke="#000000" stroke-linecap="round"/><path d="M93.79757,165.53658l0.65858,9.12699" fill="none" stroke="#000000" stroke-linecap="round"/><path d="M98.55578,163.40298l12.65071,3.67443" fill="none" stroke="#000000" stroke-linecap="round"/><path d="M101.65425,166.34586l0.59737,14.6361" fill="none" stroke="#000000" stroke-linecap="round"/><path d="M186.13065,141.90134l6.27112,16.97904l-25.00038,3.18013l-0.39515,-5.47617" fill="none" stroke="#000000" stroke-linecap="round"/><path d="M187.44312,153.73346l-14.08558,-4.48831" fill="none" stroke="#000000" stroke-linecap="round"/><path d="M171.12269,169.13156l0.77167,-14.73487" fill="none" stroke="#000000" stroke-linecap="round"/><path d="M178.61253,158.49917l-0.11775,17.44003" fill="none" stroke="#000000" stroke-linecap="round"/><path d="M187.16075,168.89176l-2.48397,-8.99527" fill="none" stroke="#000000" stroke-linecap="round"/><path d="M189.49901,156.79618l5.0621,12.93773" fill="none" stroke="#000000" stroke-linecap="round"/></g><path d="M181.59581,91.76882l-0.32929,-4.56351l4.78932,-3.55666" fill="none" stroke="#000000" stroke-linecap="round"/><path d="M102.28527,92.44564l-0.25877,2.77101l-2.11708,2.44636" fill="none" stroke="#000000" stroke-linecap="round"/></g><path d="M97.04102,231.24943l-0.85121,-11.7967l82.92394,-5.98354l0.85121,11.7967z" fill="none" stroke="#000000" stroke-linecap="butt"/><path d="M91.851,217.32438l-0.9764,-13.53153l91.25104,-6.5844l0.9764,13.53153z" fill="none" stroke="#000000" stroke-linecap="butt"/><path d="M112.48641,203.6285l0.40413,10.43391" fill="none" stroke="#000000" stroke-linecap="round"/><path d="M144.76095,211.0652l-0.701,-9.71494" fill="none" stroke="#000000" stroke-linecap="round"/><path d="M167.73558,210.4537l-3.22986,-10.92754" fill="none" stroke="#000000" stroke-linecap="round"/></g></g></g></svg>