<svg version="1.1" xmlns="http://www.w3.org/2000/svg" xmlns:xlink="http://www.w3.org/1999/xlink" width="483.42278" height="916.95992" viewBox="0,0,483.42278,916.95992"><g transform="translate(28.88464,-58.40549)"><g data-paper-data="{&quot;isPaintingLayer&quot;:true}" fill-rule="nonzero" stroke-width="6.5" stroke-linejoin="miter" stroke-miterlimit="10" stroke-dasharray="" stroke-dashoffset="0" style="mix-blend-mode: normal"><g data-paper-data="{&quot;index&quot;:null}" stroke-linecap="butt"><g><g><path d="M263.71849,753.46586l-26.59567,-94.10472l53.90177,-14.88799l26.59567,94.10472z" fill="#252525" stroke="#000000"/><path d="M263.71849,753.46586l-26.59567,-94.10472l53.90177,-14.88799l26.59567,94.10472z" fill="#252525" stroke="#000000"/><path d="M292.59208,651.35063c1.34962,4.77538 18.41439,58.88836 21.21758,75.71467c5.04181,30.26361 -6.52543,13.27834 -11.39639,14.62373c-5.43241,1.50046 -23.14136,8.32406 -32.86211,10.02157c-3.84152,0.67083 -4.54926,4.82104 -5.61911,1.03557c-0.89583,-3.16978 -27.47479,-91.00926 -25.90648,-95.36618c1.90571,-5.2942 16.63586,48.83181 25.15501,58.52072c14.02925,15.95564 24.12549,-6.56756 27.72269,-7.56113c3.70003,-1.02197 12.13813,8.00452 11.18842,-7.36059c-0.99569,-16.10916 -11.43273,-56.46853 -9.49957,-49.62837z" fill="#141414" stroke="none"/><path d="M263.71849,753.46586l-26.59567,-94.10472l53.90177,-14.88799l26.59567,94.10472z" fill="none" stroke="#000000"/><path d="M263.71849,753.46586l-26.59567,-94.10472l53.90177,-14.88799l26.59567,94.10472z" fill="none" stroke="#000000"/></g><g><path d="M239.0396,714.60823l-5.38479,-19.05332l78.74981,-21.75116l5.38479,19.05334z" fill="#252525" stroke="#000000"/><path d="M239.0396,714.60823l-5.38479,-19.05332l78.74981,-21.75116l5.38479,19.05334z" fill="#252525" stroke="#000000"/><path d="M312.28278,675.31753c0.27326,0.96685 5.79641,11.35188 4.08496,15.38816c-3.07819,7.2596 -15.31477,9.72141 -22.4312,11.687c-11.07313,3.05846 -53.6022,14.64124 -54.36693,11.93537c-0.18137,-0.64179 -7.61038,-17.86106 -4.02454,-19.64591c4.35724,-2.16883 6.67796,8.97277 15.15135,9.07051c13.95393,0.16094 35.21535,-9.70722 40.47078,-11.1588c5.40567,-1.49308 13.98665,-1.56372 17.75502,-5.76865c3.95084,-4.40854 2.96916,-12.89258 3.36054,-11.50766z" fill="#141414" stroke="none"/><path d="M239.0396,714.60823l-5.38479,-19.05332l78.74981,-21.75116l5.38479,19.05334z" fill="none" stroke="#000000"/><path d="M239.0396,714.60823l-5.38479,-19.05332l78.74981,-21.75116l5.38479,19.05334z" fill="none" stroke="#000000"/></g><g><path d="M242.03694,746.35196l-5.38479,-19.05334l88.97153,-24.57446l5.38481,19.05334z" fill="#252525" stroke="#000000"/><path d="M242.03694,746.35196l-5.38479,-19.05334l88.97153,-24.57446l5.38481,19.05334z" fill="#252525" stroke="#000000"/><path d="M325.43566,704.25622c0.27326,0.96685 6.10799,11.26582 4.05315,15.39696c-3.69582,7.43021 -17.48947,10.32207 -25.52961,12.54279c-12.51041,3.45544 -60.5542,16.56144 -61.31893,13.85555c-0.18137,-0.64179 -7.91892,-17.77584 -3.84061,-19.69673c4.95565,-2.33414 7.17668,8.83502 16.66697,8.65189c15.62852,-0.3016 39.78564,-10.96957 45.72325,-12.60959c6.10733,-1.68689 15.72386,-2.04353 20.08905,-6.41329c4.57655,-4.58137 3.76536,-13.11251 4.15674,-11.72758z" fill="#141414" stroke="none"/><path d="M242.03694,746.35196l-5.38479,-19.05334l88.97153,-24.57446l5.38481,19.05334z" fill="none" stroke="#000000"/><path d="M242.03694,746.35196l-5.38479,-19.05334l88.97153,-24.57446l5.38481,19.05334z" fill="none" stroke="#000000"/></g></g><g><path d="M220.66249,680.03096l-6.18462,-21.88338l91.89204,-25.3811l6.18464,21.88338z" fill="#252525" stroke="#000000"/><path d="M220.66249,680.03096l-6.18462,-21.88338l91.89204,-25.3811l6.18464,21.88338z" fill="#252525" stroke="#000000"/><path d="M306.2206,634.5077c0.31384,1.11048 6.70138,13.02585 4.68719,17.67504c-3.62274,8.36204 -17.89696,11.25026 -26.20104,13.5439c-12.92108,3.56888 -62.54689,17.08746 -63.42521,13.97966c-0.20832,-0.7371 -8.7844,-20.50193 -4.59631,-22.57112c5.08904,-2.51437 7.7404,10.28605 17.61616,10.35856c16.26331,0.11945 41.09218,-11.32756 47.2247,-13.02142c6.30781,-1.74226 16.30977,-1.8638 20.72224,-6.71663c4.62616,-5.08778 3.52272,-14.83865 3.97226,-13.24802z" fill="#141414" stroke="none"/><path d="M220.66249,680.03096l-6.18462,-21.88338l91.89204,-25.3811l6.18464,21.88338z" fill="none" stroke="#000000"/><path d="M220.66249,680.03096l-6.18462,-21.88338l91.89204,-25.3811l6.18464,21.88338z" fill="none" stroke="#000000"/></g></g><g stroke-linecap="butt"><g><g><path d="M118.74947,738.0066l26.59564,-94.10472l53.90177,14.88799l-26.59567,94.10472z" fill="#252525" stroke="#000000"/><path d="M118.74947,738.0066l26.59564,-94.10472l53.90177,14.88799l-26.59567,94.10472z" fill="#252525" stroke="#000000"/><path d="M143.7776,650.77933c1.93316,-6.84016 -8.5039,33.51921 -9.49959,49.62837c-0.94971,15.36511 7.48842,6.33861 11.18844,7.36059c3.59722,0.99357 13.69346,23.51677 27.72269,7.56113c8.51914,-9.68892 23.24929,-63.81493 25.15498,-58.52072c1.56833,4.35694 -25.01063,92.19643 -25.90646,95.3662c-1.06985,3.78547 -1.77758,-0.36476 -5.61911,-1.03559c-9.72075,-1.69751 -27.42971,-8.52111 -32.86209,-10.02157c-4.87097,-1.34539 -16.43818,15.63988 -11.39639,-14.62373c2.80319,-16.82631 19.86796,-70.93929 21.21758,-75.71467z" fill="#141414" stroke="none"/><path d="M118.74947,738.0066l26.59564,-94.10472l53.90177,14.88799l-26.59567,94.10472z" fill="none" stroke="#000000"/><path d="M118.74947,738.0066l26.59564,-94.10472l53.90177,14.88799l-26.59567,94.10472z" fill="none" stroke="#000000"/></g><g><path d="M118.5803,692.2858l5.38479,-19.05334l78.74981,21.75116l-5.38481,19.05332z" fill="#252525" stroke="#000000"/><path d="M118.5803,692.2858l5.38479,-19.05334l78.74981,21.75116l-5.38481,19.05332z" fill="#252525" stroke="#000000"/><path d="M124.08695,674.74626c0.39138,-1.38492 -0.59033,7.09912 3.36052,11.50766c3.76837,4.20493 12.34935,4.27557 17.75505,5.76865c5.25547,1.45158 26.5169,11.31977 40.4708,11.15883c8.47339,-0.09771 10.79411,-11.23933 15.15135,-9.07051c3.58584,1.78485 -3.84319,19.00412 -4.02456,19.64591c-0.76473,2.70586 -43.29382,-8.87691 -54.36693,-11.93537c-7.11642,-1.96561 -19.35299,-4.42737 -22.43118,-11.687c-1.71145,-4.03629 3.81168,-14.42133 4.08494,-15.38819z" fill="#141414" stroke="none"/><path d="M118.5803,692.2858l5.38479,-19.05334l78.74981,21.75116l-5.38481,19.05332z" fill="none" stroke="#000000"/><path d="M118.5803,692.2858l5.38479,-19.05334l78.74981,21.75116l-5.38481,19.05332z" fill="none" stroke="#000000"/></g><g><path d="M105.36121,721.20621l5.38481,-19.05334l88.97156,24.57446l-5.38481,19.05334z" fill="#252525" stroke="#000000"/><path d="M105.36121,721.20621l5.38481,-19.05334l88.97156,24.57446l-5.38481,19.05334z" fill="#252525" stroke="#000000"/><path d="M115.09078,715.41251c4.36517,4.36976 13.98169,4.72641 20.08905,6.41329c5.93761,1.64002 30.09473,12.30799 45.72325,12.60959c9.49027,0.18313 11.71129,-10.98602 16.66694,-8.65189c4.07833,1.92089 -3.65921,19.05494 -3.84059,19.69673c-0.76473,2.70589 -48.80852,-10.40011 -61.31893,-13.85555c-8.04015,-2.22072 -21.83379,-5.11258 -25.52961,-12.54279c-2.05484,-4.13114 3.77989,-14.43011 4.05315,-15.39696c0.39138,-1.38492 -0.41978,7.14621 4.15674,11.72758z" fill="#141414" stroke="none"/><path d="M105.36121,721.20621l5.38481,-19.05334l88.97156,24.57446l-5.38481,19.05334z" fill="none" stroke="#000000"/><path d="M105.36121,721.20621l5.38481,-19.05334l88.97156,24.57446l-5.38481,19.05334z" fill="none" stroke="#000000"/></g></g><g><path d="M123.81518,654.07857l6.18464,-21.88338l91.89204,25.3811l-6.18462,21.8834z" fill="#252525" stroke="#000000"/><path d="M123.81518,654.07857l6.18464,-21.88338l91.89204,25.3811l-6.18462,21.8834z" fill="#252525" stroke="#000000"/><path d="M130.14913,633.93639c0.44954,-1.59063 -0.6539,8.16023 3.97226,13.24802c4.41247,4.85282 14.41443,4.97437 20.72224,6.71663c6.13249,1.69386 30.96138,13.14086 47.2247,13.02142c9.87575,-0.07251 12.52709,-12.87293 17.61613,-10.35856c4.18809,2.06919 -4.388,21.83402 -4.59631,22.57112c-0.8783,3.1078 -50.50411,-10.41078 -63.42519,-13.97966c-8.30406,-2.29364 -22.5783,-5.18186 -26.20104,-13.5439c-2.01421,-4.64919 4.37335,-16.56457 4.68719,-17.67504z" fill="#141414" stroke="none"/><path d="M123.81518,654.07857l6.18464,-21.88338l91.89204,25.3811l-6.18462,21.8834z" fill="none" stroke="#000000"/><path d="M123.81518,654.07857l6.18464,-21.88338l91.89204,25.3811l-6.18462,21.8834z" fill="none" stroke="#000000"/></g></g><g stroke-linecap="butt"><g><g><path d="M180.32292,630.99212l1.97253,-97.77084l55.9144,0.79544l-1.97255,97.77084z" fill="#252525" stroke="#000000"/><path d="M180.32292,630.99212l1.97253,-97.77084l55.9144,0.79544l-1.97255,97.77084z" fill="#252525" stroke="#000000"/><path d="M182.51536,540.2717c0.14339,-7.10666 0.23523,34.58031 3.33933,50.4189c2.96075,15.10704 8.84624,4.24239 12.68443,4.297c3.73149,0.05306 19.18769,19.29717 28.73355,0.31618c5.79664,-11.52603 6.38272,-67.61756 9.56346,-62.97609c2.61761,3.81977 -0.92074,95.52415 -0.98719,98.81742c-0.07934,3.93295 -1.81207,0.09591 -5.69849,0.41679c-9.83439,0.81196 -28.69251,-1.31902 -34.32773,-1.39918c-5.05284,-0.07189 -11.95649,19.28371 -14.71959,-11.27233c-1.53625,-16.98888 1.31212,-73.65727 1.41221,-78.61871z" fill="#141414" stroke="none"/><path d="M180.32292,630.99212l1.97253,-97.77084l55.9144,0.79544l-1.97255,97.77084z" fill="none" stroke="#000000"/><path d="M180.32292,630.99212l1.97253,-97.77084l55.9144,0.79544l-1.97255,97.77084z" fill="none" stroke="#000000"/></g><g><path d="M168.61479,586.79551l0.39938,-19.79561l81.69024,1.16212l-0.39938,19.79561z" fill="#252525" stroke="#000000"/><path d="M168.61479,586.79551l0.39938,-19.79561l81.69024,1.16212l-0.39938,19.79561z" fill="#252525" stroke="#000000"/><path d="M175.67161,578.72013c4.70801,3.11717 13.02878,1.01884 18.6363,1.09862c5.45167,0.07756 28.51587,4.25745 41.977,0.5784c8.17417,-2.23409 7.60645,-13.60066 12.37012,-12.6023c3.92034,0.82161 1.0799,19.35873 1.06644,20.02552c-0.05674,2.8113 -44.13239,2.34239 -55.61898,2.17897c-7.38216,-0.105 -19.84383,0.60269 -24.65531,-5.64447c-2.67515,-3.47336 0.04682,-14.91646 0.06709,-15.921c0.02902,-1.43888 1.22135,7.01815 6.15733,10.28626z" fill="#141414" stroke="none"/><path d="M168.61479,586.79551l0.39938,-19.79561l81.69024,1.16212l-0.39938,19.79561z" fill="none" stroke="#000000"/><path d="M168.61479,586.79551l0.39938,-19.79561l81.69024,1.16212l-0.39938,19.79561z" fill="none" stroke="#000000"/></g><g><path d="M163.12642,618.11663l0.39938,-19.79563l92.29364,1.31299l-0.39938,19.79561z" fill="#252525" stroke="#000000"/><path d="M163.12642,618.11663l0.39938,-19.79563l92.29364,1.31299l-0.39938,19.79561z" fill="#252525" stroke="#000000"/><path d="M164.09456,599.75594c0.02902,-1.43888 1.3982,7.02064 6.98324,10.29801c5.32711,3.12597 14.72208,1.0429 21.05748,1.13303c6.15932,0.08764 32.22732,4.31028 47.42559,0.65593c9.22898,-2.21908 8.55785,-13.58713 13.9423,-12.57995c4.43119,0.82888 1.27071,19.36147 1.25725,20.02826c-0.05672,2.8113 -49.853,2.26099 -62.83055,2.07637c-8.34035,-0.11865 -22.41722,0.56608 -27.86942,-5.69018c-3.03136,-3.47843 0.01385,-14.91692 0.03412,-15.92145z" fill="#141414" stroke="none"/><path d="M163.12642,618.11663l0.39938,-19.79563l92.29364,1.31299l-0.39938,19.79561z" fill="none" stroke="#000000"/><path d="M163.12642,618.11663l0.39938,-19.79563l92.29364,1.31299l-0.39938,19.79561z" fill="none" stroke="#000000"/></g></g><g><path d="M164.03276,548.50451l0.4587,-22.73591l95.32319,1.35604l-0.45868,22.73591z" fill="#252525" stroke="#000000"/><path d="M164.03276,548.50451l0.4587,-22.73591l95.32319,1.35604l-0.45868,22.73591z" fill="#252525" stroke="#000000"/><path d="M172.26424,539.23146c5.49482,3.58143 15.20339,1.17355 21.74673,1.26664c6.36149,0.09049 33.27619,4.89734 48.98238,0.67529c9.53743,-2.56377 8.87076,-15.6189 14.42979,-14.47099c4.57485,0.94469 1.26726,22.23452 1.25181,23.00035c-0.06513,3.22887 -51.49636,2.67881 -64.89988,2.48811c-8.61414,-0.12255 -23.15512,0.68701 -28.77187,-6.48932c-3.12286,-3.98999 0.04909,-17.13209 0.07237,-18.28585c0.03334,-1.65259 1.42775,8.06092 7.18867,11.81577z" fill="#141414" stroke="none"/><path d="M164.03276,548.50451l0.4587,-22.73591l95.32319,1.35604l-0.45868,22.73591z" fill="none" stroke="#000000"/><path d="M164.03276,548.50451l0.4587,-22.73591l95.32319,1.35604l-0.45868,22.73591z" fill="none" stroke="#000000"/></g></g><g data-paper-data="{&quot;index&quot;:null}" stroke-linecap="butt"><g><g><path d="M130.94014,883.44637l-14.35077,-145.37571l58.09294,6.8581l14.35077,145.37571z" fill="#252525" stroke="#000000"/><path d="M130.94014,883.44637l-14.35077,-145.37571l58.09294,6.8581l14.35077,145.37571z" fill="#252525" stroke="#000000"/><path d="M129.91595,824.00073c5.60236,22.79404 9.88124,7.2144 13.86896,7.68517c3.87687,0.45767 23.12551,30.67953 29.83756,3.38643c4.07582,-16.5735 -4.72275,-100.0315 -0.64734,-92.79784c3.35391,5.95304 15.06427,142.13725 15.54765,147.03399c0.57728,5.84792 -1.86225,-0.04104 -5.83704,0.04237c-10.05795,0.21106 -29.96315,-4.87545 -35.81795,-5.56664c-5.24971,-0.61976 -9.16008,27.49922 -17.14827,-18.27755c-4.44138,-25.45148 -10.99169,-109.53884 -11.71993,-116.91599c-1.04311,-10.5669 6.04271,51.51221 11.91636,75.41006z" fill="#141414" stroke="none"/><path d="M130.94014,883.44637l-14.35077,-145.37571l58.09294,6.8581l14.35077,145.37571z" fill="none" stroke="#000000"/><path d="M130.94014,883.44637l-14.35077,-145.37571l58.09294,6.8581l14.35077,145.37571z" fill="none" stroke="#000000"/></g><g><path d="M111.39231,816.45182l-2.90561,-29.43414l84.87309,10.01958l2.90559,29.43414z" fill="#252525" stroke="#000000"/><path d="M111.39231,816.45182l-2.90561,-29.43414l84.87309,10.01958l2.90559,29.43414z" fill="#252525" stroke="#000000"/><path d="M117.35305,805.14405c5.40293,5.11904 13.67616,2.83907 19.50217,3.52683c5.66408,0.66869 30.27284,9.23271 43.60938,5.12069c8.09849,-2.497 5.60393,-19.47886 10.70927,-17.50896c4.2015,1.62112 4.36569,28.93376 4.46357,29.92522c0.41263,4.18012 -45.35381,-0.99053 -57.28792,-2.3994c-7.66977,-0.90545 -20.46857,-1.11623 -26.50364,-10.90613c-3.35547,-5.4431 -2.45285,-22.20511 -2.60029,-23.69876c-0.21119,-2.13946 2.44291,10.5736 8.10747,15.94051z" fill="#141414" stroke="none"/><path d="M111.39231,816.45182l-2.90561,-29.43414l84.87309,10.01958l2.90559,29.43414z" fill="none" stroke="#000000"/><path d="M111.39231,816.45182l-2.90561,-29.43414l84.87309,10.01958l2.90559,29.43414z" fill="none" stroke="#000000"/></g><g><path d="M110.95552,862.53046l-2.90559,-29.43416l95.88957,11.32014l2.90559,29.43416z" fill="#252525" stroke="#000000"/><path d="M110.95552,862.53046l-2.90559,-29.43416l95.88957,11.32014l2.90559,29.43416z" fill="#252525" stroke="#000000"/><path d="M117.84571,851.3324c6.04616,5.19496 15.43544,3.04672 22.01766,3.82377c6.39928,0.75548 34.1289,9.68796 49.27024,5.78901c9.19445,-2.36764 6.59243,-19.3622 12.3427,-17.31616c4.73226,1.68378 4.56395,28.95718 4.66183,29.94864c0.41263,4.18012 -51.29732,-1.69221 -64.78048,-3.28394c-8.66532,-1.02298 -23.14226,-1.43184 -29.843,-11.30035c-3.72555,-5.4868 -2.48713,-22.20915 -2.63457,-23.70278c-0.21119,-2.13946 2.62668,10.59528 8.96557,16.04181z" fill="#141414" stroke="none"/><path d="M110.95552,862.53046l-2.90559,-29.43416l95.88957,11.32014l2.90559,29.43416z" fill="none" stroke="#000000"/><path d="M110.95552,862.53046l-2.90559,-29.43416l95.88957,11.32014l2.90559,29.43416z" fill="none" stroke="#000000"/></g></g><g><path d="M100.22158,758.97347l-3.33716,-33.80607l99.03718,11.6917l3.33716,33.80609z" fill="#252525" stroke="#000000"/><path d="M100.22158,758.97347l-3.33716,-33.80607l99.03718,11.6917l3.33716,33.80609z" fill="#252525" stroke="#000000"/><path d="M107.19912,746.00166c6.29641,5.89013 15.95626,3.29009 22.75455,4.09266c6.60936,0.78027 35.31458,10.66848 50.88725,5.9758c9.45636,-2.84956 6.57604,-22.35563 12.53091,-20.08235c4.90061,1.8708 5.04217,33.23466 5.15458,34.37336c0.47392,4.80102 -52.93073,-1.23685 -66.85648,-2.88084c-8.94976,-1.05657 -23.88683,-1.32663 -30.91243,-12.58178c-3.90617,-6.25776 -2.82202,-25.50388 -2.99137,-27.21938c-0.24257,-2.45724 2.83175,12.14721 9.43302,18.32252z" fill="#141414" stroke="none"/><path d="M100.22158,758.97347l-3.33716,-33.80607l99.03718,11.6917l3.33716,33.80609z" fill="none" stroke="#000000"/><path d="M100.22158,758.97347l-3.33716,-33.80607l99.03718,11.6917l3.33716,33.80609z" fill="none" stroke="#000000"/></g></g><g data-paper-data="{&quot;index&quot;:null}" stroke-linecap="butt"><g><g><path d="M238.09537,894.87478l14.35075,-145.37571l58.09294,-6.8581l-14.35075,145.37571z" fill="#252525" stroke="#000000"/><path d="M238.09537,894.87478l14.35075,-145.37571l58.09294,-6.8581l-14.35075,145.37571z" fill="#252525" stroke="#000000"/><path d="M309.12881,753.161c-0.72824,7.37715 -7.27855,91.46453 -11.7199,116.91602c-7.98818,45.77677 -11.89858,17.65777 -17.14829,18.27753c-5.8548,0.69117 -25.76,5.7777 -35.81793,5.56664c-3.97477,-0.08341 -6.41432,5.80555 -5.83704,-0.04237c0.48338,-4.89677 12.19373,-141.08095 15.54765,-147.03399c4.07541,-7.23367 -4.72316,76.22433 -0.64734,92.79784c6.71206,27.2931 25.96066,-2.92876 29.83754,-3.38643c3.98773,-0.47077 8.26658,15.10889 13.86894,-7.68515c5.87365,-23.89785 12.95947,-85.97696 11.91636,-75.41006z" fill="#141414" stroke="none"/><path d="M238.09537,894.87478l14.35075,-145.37571l58.09294,-6.8581l-14.35075,145.37571z" fill="none" stroke="#000000"/><path d="M238.09537,894.87478l14.35075,-145.37571l58.09294,-6.8581l-14.35075,145.37571z" fill="none" stroke="#000000"/></g><g><path d="M230.86307,831.04173l2.90559,-29.43414l84.87307,-10.01958l-2.90561,29.43414z" fill="#252525" stroke="#000000"/><path d="M230.86307,831.04173l2.90559,-29.43414l84.87307,-10.01958l-2.90561,29.43414z" fill="#252525" stroke="#000000"/><path d="M317.88284,793.77386c-0.14744,1.49363 0.75518,18.25561 -2.60029,23.69874c-6.03508,9.7899 -18.83387,10.00071 -26.50364,10.90613c-11.93414,1.40887 -57.70056,6.57952 -57.28792,2.3994c0.09787,-0.99146 0.26206,-28.3041 4.46357,-29.92522c5.10533,-1.96988 2.61078,15.01198 10.70927,17.50896c13.33654,4.11202 37.94528,-4.452 43.60938,-5.12069c5.82601,-0.68777 14.09922,1.59221 19.50215,-3.52683c5.66456,-5.36692 8.31866,-18.07998 8.10747,-15.94051z" fill="#141414" stroke="none"/><path d="M230.86307,831.04173l2.90559,-29.43414l84.87307,-10.01958l-2.90561,29.43414z" fill="none" stroke="#000000"/><path d="M230.86307,831.04173l2.90559,-29.43414l84.87307,-10.01958l-2.90561,29.43414z" fill="none" stroke="#000000"/></g><g><path d="M220.28333,878.42088l2.90561,-29.43414l95.88957,-11.32014l-2.90559,29.43416z" fill="#252525" stroke="#000000"/><path d="M220.28333,878.42088l2.90561,-29.43414l95.88957,-11.32014l-2.90559,29.43416z" fill="#252525" stroke="#000000"/><path d="M318.24829,839.86094c-0.14744,1.49363 1.09101,18.21599 -2.63454,23.70278c-6.70074,9.86851 -21.17768,10.27737 -29.843,11.30035c-13.48316,1.59173 -65.19309,7.46406 -64.78045,3.28394c0.09787,-0.99146 -0.07045,-28.26484 4.66183,-29.94862c5.7503,-2.04605 3.14825,14.94852 12.3427,17.31614c15.14134,3.89895 42.87095,-5.03353 49.27026,-5.78901c6.58224,-0.77705 15.97152,1.37119 22.01766,-3.82377c6.33889,-5.44653 9.17677,-18.18128 8.96557,-16.04181z" fill="#141414" stroke="none"/><path d="M220.28333,878.42088l2.90561,-29.43414l95.88957,-11.32014l-2.90559,29.43416z" fill="none" stroke="#000000"/><path d="M220.28333,878.42088l2.90561,-29.43414l95.88957,-11.32014l-2.90559,29.43416z" fill="none" stroke="#000000"/></g></g><g><path d="M227.86969,775.23551l3.33716,-33.80609l99.03716,-11.6917l-3.33716,33.80609z" fill="#252525" stroke="#000000"/><path d="M227.86969,775.23551l3.33716,-33.80609l99.03716,-11.6917l-3.33716,33.80609z" fill="#252525" stroke="#000000"/><path d="M329.36233,732.24947c-0.16935,1.7155 0.9148,20.96159 -2.99137,27.21936c-7.0256,11.25515 -21.96268,11.52523 -30.91243,12.58178c-13.92575,1.64399 -67.3304,7.68186 -66.85648,2.88084c0.11241,-1.13872 0.25397,-32.50259 5.15458,-34.37336c5.95484,-2.27328 3.07458,17.2328 12.53093,20.08235c15.57267,4.69268 44.27786,-5.19553 50.88722,-5.9758c6.79827,-0.80255 16.45817,1.79749 22.75455,-4.09264c6.60127,-6.17532 9.67557,-20.77976 9.433,-18.32252z" fill="#141414" stroke="none"/><path d="M227.86969,775.23551l3.33716,-33.80609l99.03716,-11.6917l-3.33716,33.80609z" fill="none" stroke="#000000"/><path d="M227.86969,775.23551l3.33716,-33.80609l99.03716,-11.6917l-3.33716,33.80609z" fill="none" stroke="#000000"/></g></g><g stroke-linecap="butt"><path d="M124.37347,652.47952l0.83454,-22.73591l173.42934,1.35604l-0.83457,22.73591z" fill="#252525" stroke="#000000"/><path d="M124.37347,652.47952l0.83454,-22.73591l173.42934,1.35604l-0.83457,22.73591z" fill="#252525" stroke="#000000"/><path d="M124.37347,652.47952l0.83454,-22.73591l173.42934,1.35604l-0.83457,22.73591z" fill="none" stroke="#000000"/><path d="M139.34964,643.20647c9.99719,3.58143 27.66078,1.17355 39.56562,1.26664c11.57402,0.09049 60.54216,4.89734 89.11771,0.67529c17.35224,-2.56377 16.13934,-15.6189 26.25333,-14.47099c8.32342,0.94469 2.30562,22.23452 2.27751,23.00035c-0.11851,3.22887 -93.69159,2.67881 -118.07773,2.48811c-15.67242,-0.12255 -42.12805,0.68701 -52.34705,-6.48932c-5.68167,-3.98999 0.08935,-17.13209 0.13169,-18.28585c0.06065,-1.65259 2.59762,8.06092 13.07891,11.81577z" fill="#141414" stroke="none"/><path d="M124.37347,652.47952l0.83454,-22.73591l173.42934,1.35604l-0.83457,22.73591z" fill="none" stroke="#000000"/></g><g stroke-linecap="butt"><g><path d="M51.36767,943.65423l0.69177,-67.11279l143.75503,4.00286l-0.69177,67.11281z" fill="#252525" stroke="#000000"/><path d="M51.36767,943.65423l0.69177,-67.11279l143.75503,4.00286l-0.69177,67.11281z" fill="#252525" stroke="#000000"/><path d="M51.36767,943.65423l0.69177,-67.11279l143.75503,4.00286l-0.69177,67.11281z" fill="none" stroke="#000000"/><path d="M52.94035,881.40343c0.0503,-4.87819 2.15315,23.79458 10.84107,34.87827c8.28665,10.57177 22.92795,3.46415 32.79582,3.73894c9.59367,0.26718 50.18321,14.45618 73.86938,1.9934c14.38322,-7.5679 13.37786,-46.10453 21.76131,-42.71609c6.89926,2.78854 1.91111,65.63275 1.8878,67.89335c-0.09824,9.53108 -77.66067,1.37855 -97.87426,0.81569c-12.9908,-0.36174 -34.91977,8.55678 -43.39028,-12.62663c-4.70954,-11.77779 0.07404,-50.57123 0.10914,-53.9769z" fill="#141414" stroke="none"/><path d="M51.36767,943.65423l0.69177,-67.11279l143.75503,4.00286l-0.69177,67.11281z" fill="none" stroke="#000000"/></g><g><path d="M9.70781,961.0644l0.339,-67.11279l70.4489,4.00286l-0.339,67.11283z" fill="#252525" stroke="#000000"/><path d="M9.70781,961.0644l0.339,-67.11279l70.4489,4.00286l-0.339,67.11283z" fill="#6c6c6c" stroke="#000000"/><path d="M9.70781,961.0644l0.339,-67.11279l70.4489,4.00286l-0.339,67.11283z" fill="none" stroke="#000000"/><path d="M15.79131,933.69187c4.06097,10.57175 11.23611,3.46415 16.072,3.73892c4.7015,0.26718 24.59288,14.45618 36.20058,1.9934c7.04866,-7.56787 6.55598,-46.10451 10.66439,-42.71607c3.38106,2.78854 0.93657,65.63275 0.92515,67.89335c-0.04817,9.53108 -38.05856,1.37857 -47.96447,0.81571c-6.36631,-0.36176 -17.11287,8.55676 -21.26394,-12.62666c-2.30797,-11.77781 0.03631,-50.57123 0.0535,-53.9769c0.02466,-4.87816 1.05517,23.79458 5.3128,34.87825z" fill="#545454" stroke="none"/><path d="M9.70781,961.0644l0.339,-67.11279l70.4489,4.00286l-0.339,67.11283z" fill="none" stroke="#000000"/></g><g><path d="M115.61961,967.23051l0.339,-67.11279l70.4489,4.00286l-0.33903,67.11283z" fill="#252525" stroke="#000000"/><path d="M115.61961,967.23051l0.339,-67.11279l70.4489,4.00286l-0.33903,67.11283z" fill="#6c6c6c" stroke="#000000"/><path d="M115.61961,967.23051l0.339,-67.11279l70.4489,4.00286l-0.33903,67.11283z" fill="none" stroke="#000000"/><path d="M116.39033,904.97976c0.02463,-4.87816 1.05515,23.79458 5.31278,34.87825c4.06099,10.57177 11.23616,3.46417 16.07202,3.73894c4.70148,0.26716 24.59286,14.45616 36.20056,1.99337c7.04868,-7.56787 6.55598,-46.10451 10.66441,-42.71607c3.38106,2.78852 0.93657,65.63275 0.92515,67.89335c-0.04815,9.53108 -38.05853,1.37855 -47.96445,0.81569c-6.36631,-0.36176 -17.11289,8.55676 -21.26396,-12.62666c-2.30795,-11.77781 0.03631,-50.57123 0.0535,-53.9769z" fill="#545454" stroke="none"/><path d="M115.61961,967.23051l0.339,-67.11279l70.4489,4.00286l-0.33903,67.11283z" fill="none" stroke="#000000"/></g><g><path d="M57.58574,966.86779l0.339,-67.11279l70.4489,4.00286l-0.339,67.11283z" fill="#252525" stroke="#000000"/><path d="M57.58574,966.86779l0.339,-67.11279l70.4489,4.00286l-0.339,67.11283z" fill="#6c6c6c" stroke="#000000"/><path d="M57.58574,966.86779l0.339,-67.11279l70.4489,4.00286l-0.339,67.11283z" fill="none" stroke="#000000"/><path d="M58.35646,904.61703c0.02461,-4.87816 1.05515,23.7946 5.31278,34.87827c4.06097,10.57177 11.23613,3.46415 16.072,3.73892c4.70148,0.26716 24.59286,14.45618 36.20056,1.9934c7.04868,-7.56787 6.55598,-46.10453 10.66441,-42.71609c3.38104,2.78852 0.93657,65.63275 0.92515,67.89335c-0.04815,9.53108 -38.05853,1.37855 -47.96445,0.81569c-6.36629,-0.36176 -17.11287,8.55676 -21.26394,-12.62666c-2.30795,-11.77781 0.03631,-50.57123 0.0535,-53.9769z" fill="#545454" stroke="none"/><path d="M57.58574,966.86779l0.339,-67.11279l70.4489,4.00286l-0.339,67.11283z" fill="none" stroke="#000000"/></g></g><g data-paper-data="{&quot;index&quot;:null}" stroke-linecap="butt"><g><path d="M227.23784,947.65711l-0.69177,-67.11283l143.75503,-4.00283l0.69177,67.11279z" fill="#252525" stroke="#000000"/><path d="M227.23784,947.65711l-0.69177,-67.11283l143.75503,-4.00283l0.69177,67.11279z" fill="#252525" stroke="#000000"/><path d="M227.23784,947.65711l-0.69177,-67.11283l143.75503,-4.00283l0.69177,67.11279z" fill="none" stroke="#000000"/><path d="M369.42022,881.40346c0.0351,3.40567 4.81868,42.19912 0.10916,53.9769c-8.47049,21.18341 -30.39951,12.26489 -43.3903,12.62663c-20.21359,0.56286 -97.776,8.71539 -97.87424,-0.81569c-0.02331,-2.2606 -5.01146,-65.10481 1.8878,-67.89335c8.38345,-3.38844 7.37809,35.14819 21.76131,42.71609c23.68617,12.46279 64.27571,-1.72621 73.86936,-1.9934c9.86789,-0.27479 24.50917,6.83283 32.79582,-3.73894c8.68792,-11.08369 10.79078,-39.75646 10.84107,-34.87827z" fill="#141414" stroke="none"/><path d="M227.23784,947.65711l-0.69177,-67.11283l143.75503,-4.00283l0.69177,67.11279z" fill="none" stroke="#000000"/></g><g><path d="M342.20384,965.06728l-0.339,-67.11283l70.4489,-4.00286l0.339,67.11279z" fill="#252525" stroke="#000000"/><path d="M342.20384,965.06728l-0.339,-67.11283l70.4489,-4.00286l0.339,67.11279z" fill="#6c6c6c" stroke="#000000"/><path d="M342.20384,965.06728l-0.339,-67.11283l70.4489,-4.00286l0.339,67.11279z" fill="none" stroke="#000000"/><path d="M411.88204,898.81363c0.01718,3.40567 2.36147,42.19909 0.0535,53.9769c-4.15107,21.18341 -14.89765,12.26492 -21.26396,12.62666c-9.90592,0.56286 -47.9163,8.71537 -47.96445,-0.81571c-0.01143,-2.2606 -2.45591,-65.10481 0.92515,-67.89335c4.10841,-3.38844 3.61573,35.14819 10.66439,42.71609c11.6077,12.46279 31.4991,-1.72624 36.20058,-1.9934c4.83587,-0.27477 12.01101,6.83285 16.072,-3.73892c4.25763,-11.08367 5.28817,-39.75643 5.3128,-34.87827z" fill="#545454" stroke="none"/><path d="M342.20384,965.06728l-0.339,-67.11283l70.4489,-4.00286l0.339,67.11279z" fill="none" stroke="#000000"/></g><g><path d="M236.29203,971.23339l-0.339,-67.11283l70.44888,-4.00286l0.33903,67.11281z" fill="#252525" stroke="#000000"/><path d="M236.29203,971.23339l-0.339,-67.11283l70.44888,-4.00286l0.33903,67.11281z" fill="#6c6c6c" stroke="#000000"/><path d="M236.29203,971.23339l-0.339,-67.11283l70.44888,-4.00286l0.33903,67.11281z" fill="none" stroke="#000000"/><path d="M305.97024,904.97973c0.01718,3.40567 2.36144,42.19909 0.0535,53.9769c-4.15107,21.18341 -14.89765,12.26489 -21.26396,12.62666c-9.90592,0.56286 -47.9163,8.71539 -47.96445,-0.81569c-0.01143,-2.2606 -2.45591,-65.10483 0.92515,-67.89335c4.10843,-3.38844 3.61573,35.14819 10.66441,42.71607c11.6077,12.46279 31.49908,-1.72621 36.20058,-1.99337c4.83587,-0.27477 12.01101,6.83283 16.072,-3.73894c4.25763,-11.08367 5.28817,-39.75641 5.3128,-34.87825z" fill="#545454" stroke="none"/><path d="M236.29203,971.23339l-0.339,-67.11283l70.44888,-4.00286l0.33903,67.11281z" fill="none" stroke="#000000"/></g><g><path d="M294.3259,970.87066l-0.339,-67.11283l70.4489,-4.00286l0.339,67.11279z" fill="#252525" stroke="#000000"/><path d="M294.3259,970.87066l-0.339,-67.11283l70.4489,-4.00286l0.339,67.11279z" fill="#6c6c6c" stroke="#000000"/><path d="M294.3259,970.87066l-0.339,-67.11283l70.4489,-4.00286l0.339,67.11279z" fill="none" stroke="#000000"/><path d="M364.00411,904.61699c0.01718,3.40567 2.36144,42.19909 0.0535,53.9769c-4.15107,21.18341 -14.89765,12.26489 -21.26396,12.62666c-9.90592,0.56286 -47.9163,8.71539 -47.96445,-0.81569c-0.01143,-2.2606 -2.45589,-65.10483 0.92515,-67.89335c4.10843,-3.38844 3.61573,35.14819 10.66439,42.71607c11.6077,12.46279 31.49908,-1.72621 36.20058,-1.99337c4.83587,-0.27477 12.01101,6.83283 16.072,-3.73894c4.25763,-11.08367 5.28817,-39.75641 5.3128,-34.87825z" fill="#545454" stroke="none"/><path d="M294.3259,970.87066l-0.339,-67.11283l70.4489,-4.00286l0.339,67.11279z" fill="none" stroke="#000000"/></g></g><g fill="none" stroke="#000000" stroke-linecap="round"><path d="M270.37847,261.93863l23.64465,63.46722"/><path d="M257.96443,320.50773l38.99295,-63.05242l9.12602,70.51916"/></g><g fill="none" stroke="#000000" stroke-linecap="round"><g><path d="M149.66629,261.93864l-23.64465,63.46722" data-paper-data="{&quot;index&quot;:null}"/><path d="M124.77719,291.80556l3.73337,-28.62248"/></g><path d="M108.62978,254.13676l16.59272,68.85987"/><path d="M104.48161,248.3293l-0.82966,50.60785"/></g><g stroke-linecap="butt"><path d="M154.38445,318.51789v-62.13981h103.83928v62.13981z" fill="#252525" stroke="#000000"/><path d="M154.38445,318.51789v-62.13981h103.83928v62.13981z" fill="#252525" stroke="#000000"/><path d="M155.05675,260.85586c0,-4.51675 1.73198,21.96961 8.08827,32.00512c6.06271,9.57203 16.58267,2.61562 23.71058,2.61562c6.92983,0 36.34627,12.08764 53.35795,-0.05884c10.33017,-7.37584 9.31734,-43.02082 15.39648,-40.10044c5.00288,2.40334 1.8686,60.70282 1.8686,62.79592c0,8.82485 -56.02204,9.32095 -70.62302,9.32095c-9.38371,0 -25.20149,2.77725 -31.47593,-16.61258c-3.48854,-10.78059 -0.32294,-46.81245 -0.32294,-49.96578z" fill="#141414" stroke="none"/><path d="M154.38445,318.51789v-62.13981h103.83928v62.13981z" fill="none" stroke="#000000"/><path d="M154.38445,318.51789v-62.13981h103.83928v62.13981z" fill="none" stroke="#000000"/></g><path d="M283.57753,264.99969l1.65928,-24.88911" fill="none" stroke="#000000" stroke-linecap="round"/><g stroke-linecap="butt"><g><g><path d="M136.91822,432.21524v-106.51354h136.9211v106.51354z" fill="#252525" stroke="#000000"/><path d="M136.91822,432.21524v-106.51354h136.9211v106.51354z" fill="#252525" stroke="#000000"/><path d="M148.46978,388.23689c7.99421,16.40733 21.86571,4.48338 31.26447,4.48338c9.13756,0 47.92569,20.71941 70.35708,-0.10082c13.62127,-12.64289 12.28572,-73.74168 20.3016,-68.73591c6.59676,4.11954 2.46392,104.05031 2.46392,107.63807c0,4.28464 -4.43134,0.13256 -13.92968,0.54224c-24.03506,1.03668 -70.30611,-0.99201 -84.10545,-0.99201c-12.37325,0 -28.31778,21.18725 -36.5912,-12.04871c-4.59996,-18.47892 -0.42581,-80.24101 -0.42581,-85.64611c0,-7.74213 2.28375,37.65804 10.66506,54.85988z" fill="#141414" stroke="none"/><path d="M136.91822,432.21524v-106.51354h136.9211v106.51354z" fill="none" stroke="#000000"/><path d="M136.91822,432.21524v-106.51354h136.9211v106.51354z" fill="none" stroke="#000000"/></g><g><path d="M106.07309,384.26182v-21.56574h200.04006v21.56574z" fill="#252525" stroke="#000000"/><path d="M106.07309,384.26182v-21.56574h200.04006v21.56574z" fill="#252525" stroke="#000000"/><path d="M122.94977,375.35754c11.67943,3.32197 31.94551,0.90776 45.67701,0.90776c13.34987,0 70.01888,4.19501 102.79085,-0.02043c19.90048,-2.5598 17.94928,-14.93046 29.66038,-13.91692c9.63778,0.83408 3.59976,21.06702 3.59976,21.79343c0,3.06267 -107.92308,3.23486 -136.05098,3.23486c-18.07713,0 -48.5491,0.96385 -60.63643,-5.76541c-6.72046,-3.74141 -0.62211,-16.24634 -0.62211,-17.34071c0,-1.56754 3.33656,7.62458 15.58153,11.10744z" fill="#141414" stroke="none"/><path d="M106.07309,384.26182v-21.56574h200.04006v21.56574z" fill="none" stroke="#000000"/><path d="M106.07309,384.26182v-21.56574h200.04006v21.56574z" fill="none" stroke="#000000"/></g><g><path d="M94.18421,418.45891v-21.56574h226.0053v21.56574z" fill="#252525" stroke="#000000"/><path d="M94.18421,418.45891v-21.56574h226.0053v21.56574z" fill="#252525" stroke="#000000"/><path d="M95.64752,398.44715c0,-1.56754 3.76966,7.62458 17.60402,11.10744c13.19544,3.322 36.09204,0.90776 51.6059,0.90776c15.0827,0 79.10731,4.19503 116.1331,-0.02041c22.48358,-2.5598 20.27909,-14.93046 33.5103,-13.91692c10.88876,0.83408 4.067,21.06702 4.067,21.79343c0,3.06267 -121.93151,3.23486 -153.71043,3.23486c-20.42358,0 -54.85079,0.96385 -68.50707,-5.76541c-7.5928,-3.74143 -0.70287,-16.24637 -0.70287,-17.34074z" fill="#141414" stroke="none"/><path d="M94.18421,418.45891v-21.56574h226.0053v21.56574z" fill="none" stroke="#000000"/><path d="M94.18421,418.45891v-21.56574h226.0053v21.56574z" fill="none" stroke="#000000"/></g></g><g><path d="M92.96487,342.62979v-24.76897h233.42392v24.76897z" fill="#252525" stroke="#000000"/><path d="M92.96487,342.62979v-24.76897h233.42392v24.76897z" fill="#252525" stroke="#000000"/><path d="M94.47619,319.64569c0,-1.80038 3.89336,8.75711 18.18186,12.75726c13.62857,3.81543 37.27679,1.04258 53.29987,1.04258c15.57779,0 81.70402,4.81816 119.94519,-0.02345c23.22159,-2.94002 20.94476,-17.14812 34.61028,-15.98406c11.24619,0.95796 4.20049,24.19615 4.20049,25.03046c0,3.51757 -125.9339,3.71534 -158.75597,3.71534c-21.09399,0 -56.65124,1.10697 -70.75583,-6.6218c-7.84204,-4.29713 -0.72594,-18.65946 -0.72594,-19.91636z" fill="#141414" stroke="none"/><path d="M92.96487,342.62979v-24.76897h233.42392v24.76897z" fill="none" stroke="#000000"/><path d="M92.96487,342.62979v-24.76897h233.42392v24.76897z" fill="none" stroke="#000000"/></g></g><g><g><path d="M90.43698,193.1334c-6.15041,-65.46281 39.89782,-123.32572 102.85161,-129.2404c62.95379,-5.91468 118.97381,42.35864 125.12422,107.82145c6.15041,65.46281 -39.89782,123.32572 -102.85161,129.2404c-51.13979,4.80472 -97.70402,-26.14885 -116.67663,-73.02748c-4.38292,-10.82961 -7.29338,-22.5091 -8.44757,-34.79395z" fill="#2c2c2c" stroke="#000000" stroke-linecap="butt"/><path d="M136.78167,237.27534c15.39745,25.41371 53.60058,29.6976 67.37841,28.40314c40.14443,-3.77168 104.88752,-63.22442 107.18053,-38.81843c2.29301,24.406 -57.8395,70.8475 -97.98393,74.61918c-26.09922,2.45209 -78.99128,-1.69243 -102.42799,-55.78167c-4.74717,-10.95593 -23.45525,-31.24151 -24.09056,-51.58198c-1.0526,-33.70061 18.27098,-69.16772 17.77069,-74.49264c-1.50604,-16.02972 2.70674,69.01816 32.17285,117.65242z" fill="#111111" stroke="none" stroke-linecap="butt"/><path d="M193.28859,63.89305c62.95379,-5.91468 118.9738,42.35861 125.12421,107.82142c6.15041,65.46281 -39.89782,123.32569 -102.85161,129.24037c-62.95379,5.91468 -118.9738,-42.35861 -125.12421,-107.82142c-6.15041,-65.46281 39.89782,-123.32569 102.85161,-129.24037z" fill="none" stroke="#000000" stroke-linecap="butt"/><path d="M194.35872,134.56445c48.72074,-4.57745 89.81153,8.68621 91.7788,29.62517c1.96727,20.93896 -35.9339,41.62413 -84.65467,46.20158c-48.72076,4.57745 -89.81153,-8.68621 -91.7788,-29.62517c-1.96727,-20.93896 35.9339,-41.62413 84.65467,-46.20158z" fill="#111111" stroke="none" stroke-linecap="butt"/><path d="M113.64782,251.30823l-3.48599,-134.66556" fill="none" stroke="#000000" stroke-linecap="round"/><path d="M144.60318,279.23162l-1.87236,-197.31394" fill="none" stroke="#000000" stroke-linecap="round"/><path d="M185.16012,302.91978l-8.97902,-237.47748" fill="none" stroke="#000000" stroke-linecap="round"/><path d="M218.7727,66.44044l18.11496,228.28624" fill="none" stroke="#000000" stroke-linecap="round"/><path d="M271.24158,278.99969l-18.26482,-203.27345" fill="none" stroke="#000000" stroke-linecap="round"/><path d="M278.27768,96.68128l23.80327,146.92263" fill="none" stroke="#000000" stroke-linecap="round"/><path d="M136.48978,96.80626c9.00444,-7.80645 -0.04482,13.68994 5.04013,24.52273c4.90197,10.44293 23.97709,10.11282 30.3794,9.51131c20.30033,-1.90727 -4.09863,14.02563 -0.71269,50.06439c3.38594,36.03877 -10.32587,66.80011 -30.6262,68.70738c-20.30033,1.90727 -39.50182,-25.76178 -42.88776,-61.80054c-1.21036,-12.88267 28.96833,-82.47544 38.80711,-91.00526z" fill="#000000" stroke="#000000" stroke-linecap="butt"/><path d="M137.23816,95.90264c9.00444,-7.80649 -0.04482,13.68994 5.04013,24.52273c4.90198,10.44295 23.97709,10.11282 30.3794,9.51131c20.30031,-1.90727 -4.09865,14.02563 -0.71271,50.06439c3.38594,36.03877 -10.32587,66.80009 -30.62618,68.70736c-20.30031,1.90727 -39.50181,-25.76176 -42.88775,-61.80052c-1.21036,-12.88269 28.96829,-82.47545 38.80711,-91.00526z" fill="none" stroke="#000000" stroke-linecap="butt"/><path d="M316.58575,167.74497c3.38594,36.03877 -10.32585,66.80011 -30.62618,68.70738c-20.30033,1.90727 -39.50184,-25.76178 -42.88777,-61.80054c-3.38594,-36.03877 -30.3256,-47.14825 -10.02528,-49.05552c6.40231,-0.60151 25.20511,-3.83014 28.07617,-15.00337c2.97825,-11.59037 -9.91661,-31.02504 0.3843,-25.03237c11.25538,6.54798 53.86839,69.30178 55.07875,82.18443z" data-paper-data="{&quot;index&quot;:null}" fill="#000000" stroke="#000000" stroke-linecap="butt"/><path d="M315.68215,166.99655c3.38594,36.03877 -10.32587,66.80009 -30.62618,68.70736c-20.30031,1.90727 -39.50181,-25.76176 -42.88775,-61.80052c-3.38594,-36.03877 -30.3256,-47.14825 -10.0253,-49.05552c6.40231,-0.60151 25.20511,-3.83012 28.07617,-15.00337c2.97825,-11.59037 -9.91661,-31.02506 0.3843,-25.03237c11.2554,6.54796 53.86839,69.30175 55.07875,82.18443z" data-paper-data="{&quot;index&quot;:null}" fill="none" stroke="#000000" stroke-linecap="butt"/><path d="M198.49476,61.65549l12.59343,240.47108" fill="none" stroke="#000000" stroke-linecap="round"/><path d="M197.55828,300.83032l-9.49458,-234.09588" fill="none" stroke="#000000" stroke-linecap="round"/><path d="M206.54613,68.3311l17.75457,233.31984" fill="none" stroke="#000000" stroke-linecap="round"/><path d="M229.00331,67.88778l20.36011,225.57544" fill="none" stroke="#000000" stroke-linecap="round"/><path d="M239.81891,67.70491l19.14611,221.52305" fill="none" stroke="#000000" stroke-linecap="round"/><path d="M152.92217,145.03221l0.52717,-74.2124" fill="none" stroke="#000000" stroke-linecap="round"/><path d="M166.18813,135.45295l-0.03838,-62.49318" fill="none" stroke="#000000" stroke-linecap="round"/><path d="M122.29955,102.9116l-9.40801,68.38044" fill="none" stroke="#000000" stroke-linecap="round"/></g><path d="M165.61831,235.01602l0.01072,53.32957" fill="none" stroke="#000000" stroke-linecap="round"/><path d="M277.84702,224.12385l5.01669,44.52635" fill="none" stroke="#000000" stroke-linecap="round"/><path d="M154.85073,236.51296l-0.89291,52.5812" fill="none" stroke="#000000" stroke-linecap="round"/><path d="M174.23137,212.19326l-0.85986,88.40957" fill="none" stroke="#000000" stroke-linecap="round"/><path d="M121.8161,266.28194l-2.71617,-28.90995" fill="none" stroke="#000000" stroke-linecap="round"/><path d="M134.87154,236.7235l-1.74656,43.49519" fill="none" stroke="#000000" stroke-linecap="round"/></g><g><g stroke-linecap="butt"><g><g><path d="M-10.40505,358.28305l86.31254,-62.40578l35.97862,49.14332l-86.31251,62.40575z" fill="#252525" stroke="#000000"/><path d="M-10.40505,358.28305l86.31254,-62.40578l35.97862,49.14332l-86.31251,62.40575z" fill="#252525" stroke="#000000"/><path d="M69.92086,300.69237c6.27377,-4.53607 -29.91586,22.88334 -41.65289,35.97002c-11.19494,12.48221 2.11254,10.47476 4.58226,13.84815c2.40108,3.27961 -4.19646,29.34074 18.56936,25.19328c13.82433,-2.51853 62.98438,-38.79535 61.03431,-32.98546c-1.60484,4.78133 -83.66909,61.84695 -86.57639,63.94898c-3.47204,2.51034 -1.27178,-1.51283 -4.09966,-4.68192c-7.15574,-8.01919 -17.67043,-25.81525 -21.29647,-30.76809c-3.25128,-4.44096 -24.61,2.24978 0.14856,-20.19248c13.76555,-12.47773 64.91092,-47.16568 69.29088,-50.3325z" fill="#141414" stroke="none"/><path d="M-10.40505,358.28305l86.31254,-62.40578l35.97862,49.14332l-86.31251,62.40575z" fill="none" stroke="#000000"/><path d="M-10.40505,358.28305l86.31254,-62.40578l35.97862,49.14332l-86.31251,62.40575z" fill="none" stroke="#000000"/></g><g><path d="M20.34855,319.11652l17.47566,-12.63528l52.56435,71.79779l-17.47566,12.63525z" fill="#252525" stroke="#000000"/><path d="M20.34855,319.11652l17.47566,-12.63528l52.56435,71.79779l-17.47566,12.63525z" fill="#252525" stroke="#000000"/><path d="M36.90527,307.85662c1.27024,-0.91843 -5.3018,5.66477 -4.90649,12.10026c0.37705,6.13828 7.65872,11.99764 11.26693,16.92612c3.50792,4.7915 14.99939,27.58883 27.02681,36.88142c7.30356,5.64283 16.81528,-2.30538 19.0713,2.49175c1.8566,3.94784 -16.12563,13.63508 -16.71425,14.06068c-2.48181,1.7944 -30.98019,-36.84016 -38.37134,-46.93573c-4.75011,-6.48821 -13.53823,-16.86041 -11.2614,-25.14141c1.26589,-4.60416 13.00164,-9.74192 13.88845,-10.38312z" fill="#141414" stroke="none"/><path d="M20.34855,319.11652l17.47566,-12.63528l52.56435,71.79779l-17.47566,12.63525z" fill="none" stroke="#000000"/><path d="M20.34855,319.11652l17.47566,-12.63528l52.56435,71.79779l-17.47566,12.63525z" fill="none" stroke="#000000"/></g><g><path d="M-10.48683,334.8853l17.47566,-12.63525l59.3872,81.11714l-17.47564,12.63528z" fill="#252525" stroke="#000000"/><path d="M-10.48683,334.8853l17.47566,-12.63525l59.3872,81.11714l-17.47564,12.63528z" fill="#252525" stroke="#000000"/><path d="M1.73897,336.51189c0.77539,6.6824 8.7483,13.48589 12.82486,19.05408c3.96325,5.41345 17.38751,30.85082 30.53271,41.67019c7.98231,6.56996 17.4275,-1.46916 20.08295,3.87357c2.18533,4.39683 -16.00285,13.80277 -16.59148,14.22839c-2.48181,1.7944 -34.66117,-41.86798 -43.01169,-53.27399c-5.36666,-7.33036 -15.19413,-19.12218 -13.32956,-27.9663c1.03668,-4.91726 12.98047,-9.77092 13.86726,-10.41211c1.27024,-0.91841 -5.18801,5.82019 -4.37506,12.82618z" fill="#141414" stroke="none"/><path d="M-10.48683,334.8853l17.47566,-12.63525l59.3872,81.11714l-17.47564,12.63528z" fill="none" stroke="#000000"/><path d="M-10.48683,334.8853l17.47566,-12.63525l59.3872,81.11714l-17.47564,12.63528z" fill="none" stroke="#000000"/></g></g><g><path d="M50.64038,290.01974l20.07137,-14.51201l61.33659,83.7798l-20.07135,14.51201z" fill="#252525" stroke="#000000"/><path d="M50.64038,290.01974l20.07137,-14.51201l61.33659,83.7798l-20.07135,14.51201z" fill="#252525" stroke="#000000"/><path d="M69.66251,277.09588c1.45893,-1.05483 -6.07319,6.52814 -5.56013,14.0002c0.48937,7.12694 8.95035,13.99009 13.16071,19.74107c4.09336,5.59114 17.56494,32.14789 31.53689,43.03663c8.48435,6.6121 19.39949,-2.52955 22.04707,3.05725c2.17886,4.59772 -18.5034,15.68403 -19.1795,16.17284c-2.85045,2.06094 -36.10225,-43.02301 -44.72687,-54.8034c-5.54286,-7.57099 -15.78323,-19.68452 -13.22652,-29.27514c1.42154,-5.33229 14.92986,-11.19303 15.94837,-11.92945z" fill="#141414" stroke="none"/><path d="M50.64038,290.01974l20.07137,-14.51201l61.33659,83.7798l-20.07135,14.51201z" fill="none" stroke="#000000"/><path d="M50.64038,290.01974l20.07137,-14.51201l61.33659,83.7798l-20.07135,14.51201z" fill="none" stroke="#000000"/></g></g><path d="M-5.69257,368.48569l-2.48892,86.28224" fill="none" stroke="#000000" stroke-linecap="round"/><path d="M6.75199,412.45645l-3.31854,-31.52621" fill="none" stroke="#000000" stroke-linecap="round"/><path d="M4.26308,489.61267v-19.08166l16.59275,-65.54131" fill="none" stroke="#000000" stroke-linecap="round"/><path d="M-22.28529,458.9161l-3.31856,-54.75603l12.44456,-38.99295" fill="none" stroke="#000000" stroke-linecap="round"/></g><g><g data-paper-data="{&quot;index&quot;:null}" stroke-linecap="butt"><g><g><path d="M403.92386,407.42637l-86.31251,-62.40575l35.97865,-49.14332l86.31251,62.40578z" fill="#252525" stroke="#000000"/><path d="M403.92386,407.42637l-86.31251,-62.40575l35.97865,-49.14332l86.31251,62.40578z" fill="#252525" stroke="#000000"/><path d="M359.5766,300.69234c4.37996,3.16682 55.52531,37.85476 69.29086,50.3325c24.75856,22.44226 3.39986,15.75152 0.14856,20.19248c-3.62604,4.95284 -14.1407,22.7489 -21.29644,30.76809c-2.82787,3.16909 -0.62765,7.19226 -4.09969,4.68192c-2.90732,-2.10204 -84.97154,-59.16766 -86.57639,-63.94898c-1.95007,-5.80989 47.20998,30.46694 61.03434,32.98546c22.76582,4.14747 16.16829,-21.91366 18.56939,-25.19328c2.46969,-3.37339 15.7772,-1.36594 4.58226,-13.84815c-11.73703,-13.08667 -47.92666,-40.50607 -41.65289,-35.97002z" fill="#141414" stroke="none"/><path d="M403.92386,407.42637l-86.31251,-62.40575l35.97865,-49.14332l86.31251,62.40578z" fill="none" stroke="#000000"/><path d="M403.92386,407.42637l-86.31251,-62.40575l35.97865,-49.14332l86.31251,62.40578z" fill="none" stroke="#000000"/></g><g><path d="M356.58451,390.91429l-17.47564,-12.63525l52.56435,-71.79779l17.47564,12.63528z" fill="#252525" stroke="#000000"/><path d="M356.58451,390.91429l-17.47564,-12.63525l52.56435,-71.79779l17.47564,12.63528z" fill="#252525" stroke="#000000"/><path d="M392.59217,307.85659c0.88683,0.64119 12.62256,5.77895 13.88847,10.38312c2.27683,8.281 -6.51132,18.6532 -11.2614,25.14141c-7.39114,10.09557 -35.88953,48.73014 -38.37134,46.93573c-0.58865,-0.4256 -18.57086,-10.11284 -16.71425,-14.06068c2.25602,-4.79713 11.76774,3.15108 19.0713,-2.49175c12.02741,-9.29259 23.51887,-32.08993 27.02681,-36.88142c3.60822,-4.92847 10.88988,-10.78784 11.26693,-16.92612c0.39529,-6.4355 -6.17673,-13.0187 -4.90649,-12.10026z" fill="#141414" stroke="none"/><path d="M356.58451,390.91429l-17.47564,-12.63525l52.56435,-71.79779l17.47564,12.63528z" fill="none" stroke="#000000"/><path d="M356.58451,390.91429l-17.47564,-12.63525l52.56435,-71.79779l17.47564,12.63528z" fill="none" stroke="#000000"/></g><g><path d="M380.59709,416.00243l-17.47566,-12.63528l59.3872,-81.11714l17.47566,12.63525z" fill="#252525" stroke="#000000"/><path d="M380.59709,416.00243l-17.47566,-12.63528l59.3872,-81.11714l17.47566,12.63525z" fill="#252525" stroke="#000000"/><path d="M423.38341,323.68571c0.88683,0.64119 12.83056,5.49485 13.86724,10.41211c1.86457,8.84412 -7.96289,20.63594 -13.32959,27.9663c-8.35051,11.406 -40.52987,55.0684 -43.01169,53.27399c-0.58865,-0.4256 -18.77682,-9.83154 -16.59148,-14.22839c2.65545,-5.34272 12.10066,2.69639 20.08297,-3.87357c13.14518,-10.81937 26.56944,-36.25674 30.53271,-41.67019c4.07656,-5.56819 12.04944,-12.37168 12.82486,-19.05408c0.81293,-7.00599 -5.64527,-13.74459 -4.37504,-12.82618z" fill="#141414" stroke="none"/><path d="M380.59709,416.00243l-17.47566,-12.63528l59.3872,-81.11714l17.47566,12.63525z" fill="none" stroke="#000000"/><path d="M380.59709,416.00243l-17.47566,-12.63528l59.3872,-81.11714l17.47566,12.63525z" fill="none" stroke="#000000"/></g></g><g><path d="M317.52048,373.79954l-20.07137,-14.51201l61.33659,-83.7798l20.07135,14.51201z" fill="#252525" stroke="#000000"/><path d="M317.52048,373.79954l-20.07137,-14.51201l61.33659,-83.7798l20.07135,14.51201z" fill="#252525" stroke="#000000"/><path d="M359.83492,277.09588c1.01852,0.73641 14.52683,6.59715 15.94834,11.92945c2.55671,9.59062 -7.68369,21.70415 -13.22652,29.27514c-8.62462,11.78039 -41.87642,56.86434 -44.72687,54.8034c-0.67609,-0.48883 -21.35837,-11.57513 -19.1795,-16.17284c2.64757,-5.5868 13.56275,3.55483 22.04707,-3.05725c13.97195,-10.88874 27.44352,-37.44549 31.53689,-43.03663c4.21039,-5.75097 12.67134,-12.61412 13.16071,-19.74107c0.51306,-7.47206 -7.01903,-15.05503 -5.56013,-14.0002z" fill="#141414" stroke="none"/><path d="M317.52048,373.79954l-20.07137,-14.51201l61.33659,-83.7798l20.07135,14.51201z" fill="none" stroke="#000000"/><path d="M317.52048,373.79954l-20.07137,-14.51201l61.33659,-83.7798l20.07135,14.51201z" fill="none" stroke="#000000"/></g></g><path d="M434.69539,366.9582l16.59275,109.51207" fill="none" stroke="#000000" stroke-linecap="round"/><path d="M426.399,381.89166l-4.97782,131.91227" fill="none" stroke="#000000" stroke-linecap="round"/><path d="M414.78407,412.58822l-0.82962,-14.93346" fill="none" stroke="#000000" stroke-linecap="round"/><path d="M440.50281,363.63961l-19.08166,99.55643l-11.61492,43.97075" fill="none" stroke="#000000" stroke-linecap="round"/></g></g></g></svg>