<svg version="1.1" xmlns="http://www.w3.org/2000/svg" xmlns:xlink="http://www.w3.org/1999/xlink" width="338.19238" height="619.00625" viewBox="0,0,338.19238,619.00625"><g transform="translate(107.48244,-30.50103)"><g data-paper-data="{&quot;isPaintingLayer&quot;:true}" fill-rule="nonzero" stroke-width="7" stroke-linejoin="miter" stroke-miterlimit="10" stroke-dasharray="" stroke-dashoffset="0" style="mix-blend-mode: normal"><g data-paper-data="{&quot;index&quot;:null}" stroke-linecap="butt"><g data-paper-data="{&quot;index&quot;:null}"><g><g><path d="M166.9878,285.32213l-54.89842,-83.52155l22.01753,-27.6091l54.89838,83.5216z" fill="#252525" stroke="#000000"/><path d="M166.9878,285.32213l-54.89842,-83.52155l22.01753,-27.6091l54.89838,83.5216z" fill="#252525" stroke="#000000"/><path d="M116.18789,207.64021c-3.9904,-6.07092 19.77665,29.06867 29.99045,40.86732c9.74204,11.25369 5.82685,-0.89346 7.33825,-2.78864c1.46934,-1.84252 18.38569,6.5831 11.26176,-14.26601c-4.32597,-12.66041 -36.03179,-60.30114 -32.16274,-57.99226c3.18406,1.90015 54.02504,81.0933 55.87424,83.90661c2.20835,3.35978 -0.64428,0.99743 -1.9605,3.23397c-3.33063,5.65942 -11.81684,13.39883 -14.03582,16.18134c-1.98966,2.49493 6.36656,22.32386 -12.0941,-2.06956c-10.26397,-13.56251 -41.42569,-62.83435 -44.21156,-67.07271z" fill="#141414" stroke="none"/><path d="M166.9878,285.32213l-54.89842,-83.52155l22.01753,-27.6091l54.89838,83.5216z" fill="none" stroke="#000000"/><path d="M166.9878,285.32213l-54.89842,-83.52155l22.01753,-27.6091l54.89838,83.5216z" fill="none" stroke="#000000"/></g><g><path d="M137.31191,253.93958l-11.11526,-16.91056l32.16734,-40.33651l11.11526,16.91056z" fill="#252525" stroke="#000000"/><path d="M137.31191,253.93958l-11.11526,-16.91056l32.16734,-40.33651l11.11526,16.91056z" fill="#252525" stroke="#000000"/><path d="M127.20589,237.9864c-0.80792,-1.22919 4.46634,5.30596 8.23051,5.5679c3.59027,0.24982 5.60487,-5.72978 7.81295,-8.49862c2.14668,-2.69185 13.42151,-10.82926 16.5187,-20.74299c1.88076,-6.02002 -4.80899,-15.32687 -2.40344,-16.8936c1.97968,-1.28934 11.43706,15.79363 11.81144,16.36323c1.57853,2.40159 -15.68721,24.29845 -20.21032,29.97022c-2.90688,3.64515 -7.31015,10.54536 -12.72221,7.70599c-3.00903,-1.57868 -8.47361,-12.61404 -9.03766,-13.47214z" fill="#141414" stroke="none"/><path d="M137.31191,253.93958l-11.11526,-16.91056l32.16734,-40.33651l11.11526,16.91056z" fill="none" stroke="#000000"/><path d="M137.31191,253.93958l-11.11526,-16.91056l32.16734,-40.33651l11.11526,16.91056z" fill="none" stroke="#000000"/></g><g><path d="M153.02575,283.15221l-11.11525,-16.91059l36.34266,-45.57221l11.11526,16.91061z" fill="#252525" stroke="#000000"/><path d="M153.02575,283.15221l-11.11525,-16.91059l36.34266,-45.57221l11.11526,16.91061z" fill="#252525" stroke="#000000"/><path d="M142.94677,267.16508c-0.80794,-1.22919 4.53594,5.21864 8.5557,5.16011c3.83408,-0.05587 6.2716,-6.56588 8.76629,-9.69416c2.42537,-3.04127 14.88299,-12.66185 18.66422,-23.4333c2.29608,-6.54086 -4.43439,-15.7967 -1.78437,-17.66993c2.18085,-1.54158 11.51223,15.69943 11.88663,16.26903c1.57853,2.40157 -17.93983,27.12313 -23.05003,33.53111c-3.2842,4.11825 -8.32345,11.81604 -13.9878,9.29304c-3.14933,-1.4028 -8.48661,-12.59772 -9.05061,-13.45583z" fill="#141414" stroke="none"/><path d="M153.02575,283.15221l-11.11525,-16.91059l36.34266,-45.57221l11.11526,16.91061z" fill="none" stroke="#000000"/><path d="M153.02575,283.15221l-11.11525,-16.91059l36.34266,-45.57221l11.11526,16.91061z" fill="none" stroke="#000000"/></g></g><g><path d="M113.74636,223.93737l-12.76621,-19.42235l37.53559,-47.06815l12.76626,19.42233z" fill="#252525" stroke="#000000"/><path d="M113.74636,223.93737l-12.76621,-19.42235l37.53559,-47.06815l12.76626,19.42233z" fill="#252525" stroke="#000000"/><path d="M111.64208,211.94708c4.15802,0.24371 6.53158,-6.69907 9.1082,-9.92999c2.50498,-3.14112 15.62174,-12.69692 19.27566,-24.20443c2.21882,-6.98785 -5.47034,-17.66988 -2.67292,-19.51263c2.30221,-1.51649 13.14646,18.12622 13.57646,18.78041c1.81301,2.7583 -18.33578,28.30696 -23.61372,34.92529c-3.39203,4.25345 -8.53923,12.29131 -14.79082,9.07496c-3.47583,-1.78827 -9.73405,-14.48524 -10.38186,-15.47085c-0.92796,-1.41173 5.13958,6.08173 9.49896,6.33727z" fill="#141414" stroke="none"/><path d="M113.74636,223.93737l-12.76621,-19.42235l37.53559,-47.06815l12.76626,19.42233z" fill="none" stroke="#000000"/><path d="M113.74636,223.93737l-12.76621,-19.42235l37.53559,-47.06815l12.76626,19.42233z" fill="none" stroke="#000000"/></g></g><g data-paper-data="{&quot;index&quot;:null}"><g><g><path d="M192.6131,277.85464l-9.18049,112.22776l-24.02823,-4.01141l9.1805,-112.22773z" fill="#252525" stroke="#000000"/><path d="M192.6131,277.85464l-9.18049,112.22776l-24.02823,-4.01141l9.1805,-112.22773z" fill="#252525" stroke="#000000"/><path d="M160.22153,378.00999c0.46588,-5.69506 5.0567,-70.89287 7.45664,-90.22837c4.31653,-34.77666 5.2885,-11.98561 7.45986,-11.62313c2.42162,0.40427 10.71656,-0.37765 14.84511,1.41884c1.63155,0.70992 2.76705,-3.53512 2.39777,0.97938c-0.30924,3.78024 -8.19707,109.19322 -9.7098,113.34052c-1.83819,5.03951 3.66236,-59.29802 2.36167,-73.01825c-2.14196,-22.59436 -10.73469,-1.89977 -12.33826,-2.16748c-1.64939,-0.27533 -3.05592,-13.2454 -5.87299,3.80793c-2.95347,17.87916 -7.26732,65.64805 -6.60004,57.49053z" fill="#141414" stroke="none"/><path d="M192.6131,277.85464l-9.18049,112.22776l-24.02823,-4.01141l9.1805,-112.22773z" fill="none" stroke="#000000"/><path d="M192.6131,277.85464l-9.18049,112.22776l-24.02823,-4.01141l9.1805,-112.22773z" fill="none" stroke="#000000"/></g><g><path d="M194.14369,329.32626l-1.85877,22.7227l-35.10491,-5.86063l1.85876,-22.7227z" fill="#252525" stroke="#000000"/><path d="M194.14369,329.32626l-1.85877,22.7227l-35.10491,-5.86063l1.85876,-22.7227z" fill="#252525" stroke="#000000"/><path d="M161.233,333.34209c-2.44906,3.31095 -3.82685,12.89851 -3.69177,11.24685c0.09434,-1.15306 0.10195,-14.50753 1.60379,-18.25279c2.70119,-6.73618 7.96563,-4.82788 11.13798,-4.29824c4.93616,0.82408 23.86068,4.16735 23.59671,7.39434c-0.06261,0.76539 -0.74689,22.26066 -2.51014,22.85713c-2.14253,0.72479 -0.73387,-12.25232 -4.00558,-15.53249c-5.38782,-5.40175 -15.69421,-2.6419 -18.03695,-3.03302c-2.40973,-0.40227 -5.75814,-3.53975 -8.09409,-0.38175z" fill="#141414" stroke="none"/><path d="M194.14369,329.32626l-1.85877,22.7227l-35.10491,-5.86063l1.85876,-22.7227z" fill="none" stroke="#000000"/><path d="M194.14369,329.32626l-1.85877,22.7227l-35.10491,-5.86063l1.85876,-22.7227z" fill="none" stroke="#000000"/></g><g><path d="M199.56139,293.70694l-1.85876,22.72272l-39.66154,-6.62132l1.85877,-22.72273z" fill="#252525" stroke="#000000"/><path d="M199.56139,293.70694l-1.85876,22.72272l-39.66154,-6.62132l1.85877,-22.72273z" fill="#252525" stroke="#000000"/><path d="M158.43176,308.21377c0.09431,-1.15308 -0.03698,-14.53073 1.61794,-18.25043c2.97654,-6.69016 8.93507,-4.666 12.5192,-4.06763c5.57689,0.93106 26.95975,4.68473 26.69577,7.91173c-0.06259,0.76536 -0.60938,22.28365 -2.59214,22.84346c-2.40926,0.68025 -0.95617,-12.28948 -4.68117,-15.64531c-6.13428,-5.52636 -17.73155,-2.982 -20.37838,-3.42387c-2.72251,-0.4545 -6.53253,-3.66909 -9.13453,-0.5555c-2.72797,3.26445 -4.18176,12.83928 -4.04667,11.18762z" fill="#141414" stroke="none"/><path d="M199.56139,293.70694l-1.85876,22.72272l-39.66154,-6.62132l1.85877,-22.72273z" fill="none" stroke="#000000"/><path d="M199.56139,293.70694l-1.85876,22.72272l-39.66154,-6.62132l1.85877,-22.72273z" fill="none" stroke="#000000"/></g></g><g><path d="M194.11355,373.78587l-2.13488,26.09778l-40.96342,-6.83875l2.13486,-26.09778z" fill="#252525" stroke="#000000"/><path d="M194.11355,373.78587l-2.13488,26.09778l-40.96342,-6.83875l2.13486,-26.09778z" fill="#252525" stroke="#000000"/><path d="M155.72455,378.29957c-2.85226,3.79615 -4.44546,14.80594 -4.29029,12.90897c0.10833,-1.32437 0.09743,-16.66566 1.84401,-20.96358c3.14137,-7.73016 9.28584,-5.52207 12.98763,-4.90407c5.75993,0.96161 27.84296,4.85951 27.53977,8.56581c-0.07191,0.87907 -0.83839,25.57035 -2.89454,26.25024c-2.4985,0.82613 -0.8743,-14.07751 -4.69606,-17.85556c-6.29363,-6.22172 -18.31338,-3.08238 -21.04713,-3.53878c-2.81188,-0.4694 -6.72288,-4.08384 -9.44339,-0.46301z" fill="#141414" stroke="none"/><path d="M194.11355,373.78587l-2.13488,26.09778l-40.96342,-6.83875l2.13486,-26.09778z" fill="none" stroke="#000000"/><path d="M194.11355,373.78587l-2.13488,26.09778l-40.96342,-6.83875l2.13486,-26.09778z" fill="none" stroke="#000000"/></g></g></g><g stroke-linecap="butt"><g data-paper-data="{&quot;index&quot;:null}"><g><g><path d="M-66.83303,262.22584l54.89839,-83.52159l22.01754,27.60911l-54.8984,83.52155z" fill="#252525" stroke="#000000"/><path d="M-66.83303,262.22584l54.89839,-83.52159l22.01754,27.60911l-54.8984,83.52155z" fill="#252525" stroke="#000000"/><path d="M5.98444,212.15302c-2.78587,4.23836 -33.94759,53.51021 -44.21153,67.07271c-18.46063,24.39342 -10.10444,4.56449 -12.0941,2.06956c-2.21898,-2.78251 -10.7052,-10.52192 -14.03583,-16.18135c-1.31622,-2.23653 -4.16884,0.12582 -1.96049,-3.23397c1.84918,-2.81331 52.69016,-82.00645 55.87424,-83.9066c3.86903,-2.30887 -27.8368,45.33185 -32.16274,57.99227c-7.12396,20.84911 9.79243,12.42349 11.26176,14.26601c1.5114,1.89518 -2.4038,14.04233 7.33824,2.78865c10.21381,-11.79865 33.98083,-46.93825 29.99046,-40.86732z" fill="#141414" stroke="none"/><path d="M-66.83303,262.22584l54.89839,-83.52159l22.01754,27.60911l-54.8984,83.52155z" fill="none" stroke="#000000"/><path d="M-66.83303,262.22584l54.89839,-83.52159l22.01754,27.60911l-54.8984,83.52155z" fill="none" stroke="#000000"/></g><g><path d="M-47.307,218.11584l11.11526,-16.91056l32.16735,40.33651l-11.11525,16.91056z" fill="#252525" stroke="#000000"/><path d="M-47.307,218.11584l11.11526,-16.91056l32.16735,40.33651l-11.11525,16.91056z" fill="#252525" stroke="#000000"/><path d="M-5.03359,242.49918c-0.56405,0.8581 -6.02864,11.89346 -9.03767,13.47214c-5.41206,2.83937 -9.81533,-4.06084 -12.72221,-7.70599c-4.52311,-5.67177 -21.78885,-27.56863 -20.21032,-29.97021c0.37438,-0.5696 9.83176,-17.65257 11.81147,-16.36323c2.40555,1.56672 -4.28417,10.87358 -2.40341,16.8936c3.09719,9.91373 14.37201,18.05114 16.51869,20.74299c2.20808,2.76883 4.22265,8.74844 7.81294,8.49862c3.76415,-0.26194 9.03844,-6.79709 8.23051,-5.5679z" fill="#141414" stroke="none"/><path d="M-47.307,218.11584l11.11526,-16.91056l32.16735,40.33651l-11.11525,16.91056z" fill="none" stroke="#000000"/><path d="M-47.307,218.11584l11.11526,-16.91056l32.16735,40.33651l-11.11525,16.91056z" fill="none" stroke="#000000"/></g><g><path d="M-67.19613,242.0928l11.11525,-16.91061l36.34269,45.57221l-11.11526,16.91059z" fill="#252525" stroke="#000000"/><path d="M-67.19613,242.0928l11.11525,-16.91061l36.34269,45.57221l-11.11526,16.91059z" fill="#252525" stroke="#000000"/><path d="M-20.77448,271.67792c-0.56401,0.85811 -5.90131,12.05303 -9.05061,13.45583c-5.66434,2.523 -10.7036,-5.1748 -13.98779,-9.29304c-5.11022,-6.40798 -24.62858,-31.12955 -23.05004,-33.53111c0.3744,-0.5696 9.70576,-17.81061 11.88661,-16.26902c2.65001,1.87323 -4.08045,11.12907 -1.78437,17.66993c3.78123,10.77145 16.23884,20.39203 18.66421,23.4333c2.49471,3.12828 4.93221,9.63829 8.76631,9.69416c4.01976,0.05853 9.36365,-6.3893 8.5557,-5.16011z" fill="#141414" stroke="none"/><path d="M-67.19613,242.0928l11.11525,-16.91061l36.34269,45.57221l-11.11526,16.91059z" fill="none" stroke="#000000"/><path d="M-67.19613,242.0928l11.11525,-16.91061l36.34269,45.57221l-11.11526,16.91059z" fill="none" stroke="#000000"/></g></g><g><path d="M-29.10971,181.38197l12.76623,-19.42232l37.53559,47.06815l-12.76623,19.42235z" fill="#252525" stroke="#000000"/><path d="M-29.10971,181.38197l12.76623,-19.42232l37.53559,47.06815l-12.76623,19.42235z" fill="#252525" stroke="#000000"/><path d="M10.53023,216.45988c4.35938,-0.25554 10.42694,-7.749 9.49898,-6.33727c-0.64781,0.98561 -6.90603,13.68258 -10.38188,15.47086c-6.25157,3.21634 -11.39879,-4.82152 -14.7908,-9.07497c-5.27794,-6.61832 -25.42672,-32.16699 -23.61372,-34.92529c0.43,-0.65419 11.27427,-20.2969 13.57646,-18.78041c2.79745,1.84275 -4.89172,12.52478 -2.6729,19.51263c3.65393,11.50751 16.77067,21.0633 19.27564,24.20442c2.57662,3.23092 4.95018,10.17371 9.1082,9.93z" fill="#141414" stroke="none"/><path d="M-29.10971,181.38197l12.76623,-19.42232l37.53559,47.06815l-12.76623,19.42235z" fill="none" stroke="#000000"/><path d="M-29.10971,181.38197l12.76623,-19.42232l37.53559,47.06815l-12.76623,19.42235z" fill="none" stroke="#000000"/></g></g><g data-paper-data="{&quot;index&quot;:null}"><g><g><path d="M-46.41259,278.35603l9.1805,112.22774l-24.02822,4.0114l-9.18047,-112.22776z" fill="#252525" stroke="#000000"/><path d="M-46.41259,278.35603l9.1805,112.22774l-24.02822,4.0114l-9.18047,-112.22776z" fill="#252525" stroke="#000000"/><path d="M-38.04922,382.52274c0.6673,8.15751 -3.64655,-39.61138 -6.60003,-57.49054c-2.81708,-17.05332 -4.22359,-4.08325 -5.87299,-3.80793c-1.60354,0.26772 -10.1963,-20.42687 -12.33824,2.16748c-1.30069,13.72024 4.19986,78.05776 2.36167,73.01825c-1.51273,-4.14731 -9.40056,-109.56028 -9.7098,-113.34052c-0.36928,-4.51451 0.76622,-0.26946 2.39777,-0.97938c4.12855,-1.79649 12.42349,-1.01457 14.84511,-1.41884c2.17137,-0.36249 3.14332,-23.15353 7.45989,11.62313c2.39994,19.3355 6.99076,84.53331 7.45663,90.22837z" fill="#141414" stroke="none"/><path d="M-46.41259,278.35603l9.1805,112.22774l-24.02822,4.0114l-9.18047,-112.22776z" fill="none" stroke="#000000"/><path d="M-46.41259,278.35603l9.1805,112.22774l-24.02822,4.0114l-9.18047,-112.22776z" fill="none" stroke="#000000"/></g><g><path d="M-36.86647,327.97841l1.85874,22.7227l-35.10494,5.86062l-1.85877,-22.7227z" fill="#252525" stroke="#000000"/><path d="M-36.86647,327.97841l1.85874,22.7227l-35.10494,5.86062l-1.85877,-22.7227z" fill="#252525" stroke="#000000"/><path d="M-39.0607,337.85489c-2.33595,-3.158 -5.68436,-0.02051 -8.09409,0.38176c-2.34276,0.39112 -12.64912,-2.36873 -18.03695,3.03301c-3.27169,3.28018 -1.86306,16.25729 -4.00559,15.5325c-1.76323,-0.59647 -2.4475,-22.09175 -2.51011,-22.85714c-0.26398,-3.22699 18.66055,-6.57026 23.59671,-7.39434c3.17235,-0.52964 8.43681,-2.43793 11.138,4.29824c1.50183,3.74527 1.50945,17.09974 1.60379,18.25279c0.13509,1.65166 -1.24271,-7.9359 -3.69177,-11.24685z" fill="#141414" stroke="none"/><path d="M-36.86647,327.97841l1.85874,22.7227l-35.10494,5.86062l-1.85877,-22.7227z" fill="none" stroke="#000000"/><path d="M-36.86647,327.97841l1.85874,22.7227l-35.10494,5.86062l-1.85877,-22.7227z" fill="none" stroke="#000000"/></g><g><path d="M-37.72756,291.59839l1.85877,22.72272l-39.66153,6.62133l-1.85877,-22.72272z" fill="#252525" stroke="#000000"/><path d="M-37.72756,291.59839l1.85877,22.72272l-39.66153,6.62133l-1.85877,-22.72272z" fill="#252525" stroke="#000000"/><path d="M-36.2595,312.72661c0.13509,1.65166 -1.3187,-7.92317 -4.04667,-11.18762c-2.602,-3.11359 -6.412,0.101 -9.13453,0.5555c-2.64686,0.44187 -14.2441,-2.1025 -20.37838,3.42386c-3.725,3.35584 -2.27191,16.32557 -4.68117,15.64532c-1.98274,-0.55981 -2.52953,-22.0781 -2.59212,-22.84346c-0.26398,-3.22699 21.11889,-6.98067 26.69575,-7.91173c3.58411,-0.59837 9.54267,-2.62253 12.5192,4.06763c1.65492,3.7197 1.52363,17.09735 1.61794,18.25043z" fill="#141414" stroke="none"/><path d="M-37.72756,291.59839l1.85877,22.72272l-39.66153,6.62133l-1.85877,-22.72272z" fill="none" stroke="#000000"/><path d="M-37.72756,291.59839l1.85877,22.72272l-39.66153,6.62133l-1.85877,-22.72272z" fill="none" stroke="#000000"/></g></g><g><path d="M-30.97782,371.4599l2.13486,26.09778l-40.96342,6.83875l-2.13488,-26.09778z" fill="#252525" stroke="#000000"/><path d="M-30.97782,371.4599l2.13486,26.09778l-40.96342,6.83875l-2.13488,-26.09778z" fill="#252525" stroke="#000000"/><path d="M-33.55229,382.81237c-2.72051,-3.62083 -6.63152,-0.00639 -9.44341,0.46301c-2.73375,0.4564 -14.7535,-2.68293 -21.04713,3.53879c-3.82174,3.77805 -2.19756,18.68168 -4.69604,17.85555c-2.05616,-0.67989 -2.82263,-25.37118 -2.89454,-26.25025c-0.30319,-3.7063 21.77984,-7.6042 27.53977,-8.56581c3.70179,-0.618 9.84627,-2.82608 12.98763,4.90408c1.74658,4.29792 1.73568,19.63921 1.84399,20.96357c0.15517,1.89697 -1.43801,-9.11283 -4.29027,-12.90897z" fill="#141414" stroke="none"/><path d="M-30.97782,371.4599l2.13486,26.09778l-40.96342,6.83875l-2.13488,-26.09778z" fill="none" stroke="#000000"/><path d="M-30.97782,371.4599l2.13486,26.09778l-40.96342,6.83875l-2.13488,-26.09778z" fill="none" stroke="#000000"/></g></g></g><g data-paper-data="{&quot;index&quot;:null}" stroke-linecap="butt"><g data-paper-data="{&quot;index&quot;:null}"><g><g><path d="M128.09236,464.3351l-4.70113,113.2066l-40.97719,-0.06564l4.70114,-113.20662z" fill="#252525" stroke="#000000"/><path d="M128.09236,464.3351l-4.70113,113.2066l-40.97719,-0.06564l4.70114,-113.20662z" fill="#252525" stroke="#000000"/><path d="M83.01811,569.31895c0.23857,-5.74472 1.71533,-71.38984 3.90755,-91.02771c3.94297,-35.32051 7.77966,-12.79423 11.48266,-12.78832c4.1298,0.00661 18.06712,-2.12739 25.2145,-1.01402c2.82455,0.44 4.33398,-3.97093 4.14487,0.58293c-0.15836,3.8132 -3.33208,110.02544 -5.48815,114.40071c-2.61992,5.3165 0.47646,-59.62099 -3.04203,-73.06488c-5.79422,-22.13929 -18.31706,-0.13647 -21.05171,-0.14087c-2.81284,-0.00447 -6.43793,-12.68439 -9.55458,4.7501c-3.26757,18.27879 -5.95483,66.53071 -5.61312,58.30205z" fill="#141414" stroke="none"/><path d="M128.09236,464.3351l-4.70113,113.2066l-40.97719,-0.06564l4.70114,-113.20662z" fill="none" stroke="#000000"/><path d="M128.09236,464.3351l-4.70113,113.2066l-40.97719,-0.06564l4.70114,-113.20662z" fill="none" stroke="#000000"/></g><g><path d="M135.63463,515.31728l-0.95183,22.92088l-59.86715,-0.0959l0.95181,-22.9209z" fill="#252525" stroke="#000000"/><path d="M135.63463,515.31728l-0.95183,22.92088l-59.86715,-0.0959l0.95181,-22.9209z" fill="#252525" stroke="#000000"/><path d="M80.4253,524.69334c-3.81837,3.69583 -5.22259,13.464 -5.15343,11.79795c0.04831,-1.16314 -1.22486,-14.45679 0.95154,-18.43009c3.91445,-7.14634 12.99144,-6.10731 18.40149,-6.09863c8.418,0.01347 40.70916,0.24823 40.57399,3.50336c-0.03206,0.77205 0.88198,22.27925 -2.03921,23.16114c-3.54959,1.0716 -2.41964,-12.07544 -8.26242,-14.80565c-9.62182,-4.49605 -26.76664,-0.0646 -30.76191,-0.07098c-4.10952,-0.00657 -10.06809,-2.58223 -13.7101,0.9429z" fill="#141414" stroke="none"/><path d="M135.63463,515.31728l-0.95183,22.92088l-59.86715,-0.0959l0.95181,-22.9209z" fill="none" stroke="#000000"/><path d="M135.63463,515.31728l-0.95183,22.92088l-59.86715,-0.0959l0.95181,-22.9209z" fill="none" stroke="#000000"/></g><g><path d="M141.35664,478.97806l-0.95183,22.9209l-67.63789,-0.10833l0.95184,-22.9209z" fill="#252525" stroke="#000000"/><path d="M141.35664,478.97806l-0.95183,22.9209l-67.63789,-0.10833l0.95184,-22.9209z" fill="#252525" stroke="#000000"/><path d="M73.27341,500.13963c0.04829,-1.1631 -1.46178,-14.45712 0.97568,-18.43001c4.384,-7.14555 14.6447,-6.10465 20.75698,-6.09484c9.51067,0.01523 45.9942,0.25671 45.85904,3.51184c-0.03208,0.77204 1.11649,22.27968 -2.17906,23.16096c-4.00448,1.07083 -2.79875,-12.07612 -9.41455,-14.80752c-10.89486,-4.49811 -30.24105,-0.07013 -34.75493,-0.07735c-4.64293,-0.00743 -11.38875,-2.58438 -15.48445,0.94001c-4.29399,3.69511 -5.82787,13.46303 -5.75868,11.797z" fill="#141414" stroke="none"/><path d="M141.35664,478.97806l-0.95183,22.9209l-67.63789,-0.10833l0.95184,-22.9209z" fill="none" stroke="#000000"/><path d="M141.35664,478.97806l-0.95183,22.9209l-67.63789,-0.10833l0.95184,-22.9209z" fill="none" stroke="#000000"/></g></g><g><path d="M139.86517,559.57519l-1.09324,26.3254l-69.85811,-0.11196l1.09322,-26.32541z" fill="#252525" stroke="#000000"/><path d="M139.86517,559.57519l-1.09324,26.3254l-69.85811,-0.11196l1.09322,-26.32541z" fill="#252525" stroke="#000000"/><path d="M75.44927,570.34219c-4.45273,4.24467 -6.0839,15.4637 -6.00443,13.55017c0.05544,-1.33591 -1.4403,-16.60415 1.09629,-21.16753c4.5623,-8.20766 15.15484,-7.01407 21.46777,-7.00396c9.82286,0.01575 47.50311,0.28631 47.34785,4.02494c-0.03682,0.88674 1.04613,25.58854 -2.36185,26.6013c-4.14114,1.23065 -2.83262,-13.86918 -9.65253,-17.00506c-11.23096,-5.16417 -31.23364,-0.07496 -35.89569,-0.08245c-4.79532,-0.00767 -11.75027,-2.96609 -15.99733,1.08254z" fill="#141414" stroke="none"/><path d="M139.86517,559.57519l-1.09324,26.3254l-69.85811,-0.11196l1.09322,-26.32541z" fill="none" stroke="#000000"/><path d="M139.86517,559.57519l-1.09324,26.3254l-69.85811,-0.11196l1.09322,-26.32541z" fill="none" stroke="#000000"/></g></g><g data-paper-data="{&quot;index&quot;:null}"><g><g><path d="M90.56465,481.46532l-24.18967,-110.24784l40.1578,-8.75937l24.18964,110.24787z" fill="#252525" stroke="#000000"/><path d="M90.56465,481.46532l-24.18967,-110.24784l40.1578,-8.75937l24.18964,110.24787z" fill="#252525" stroke="#000000"/><path d="M68.37813,379.10508c-1.75825,-8.01358 9.2221,38.8322 15.58688,56.10096c6.07079,16.47116 7.43118,3.24171 10.18777,2.64045c2.67994,-0.58459 18.76163,18.37985 20.61221,-4.60535c1.12372,-13.95756 -13.14375,-77.11301 -9.65592,-72.44454c2.87033,3.84199 24.3529,107.54073 25.1677,111.25427c0.97305,4.43489 -1.26958,0.42064 -3.96231,1.45234c-6.81384,2.61066 -20.84548,3.47096 -24.89271,4.35375c-3.62892,0.79154 -3.49365,23.74169 -13.46821,-10.13027c-5.54575,-18.83253 -18.34793,-83.02699 -19.57547,-88.6216z" fill="#141414" stroke="none"/><path d="M90.56465,481.46532l-24.18967,-110.24784l40.1578,-8.75937l24.18964,110.24787z" fill="none" stroke="#000000"/><path d="M90.56465,481.46532l-24.18967,-110.24784l40.1578,-8.75937l24.18964,110.24787z" fill="none" stroke="#000000"/></g><g><path d="M70.62761,433.8039l-4.89764,-22.32183l58.67004,-12.79725l4.89767,22.32182z" fill="#252525" stroke="#000000"/><path d="M70.62761,433.8039l-4.89764,-22.32183l58.67004,-12.79725l4.89767,22.32182z" fill="#252525" stroke="#000000"/><path d="M66.46273,413.00766c-0.35599,-1.62252 2.71014,7.67846 7.09248,10.50007c4.17991,2.69128 9.57552,-1.1041 13.60284,-1.98255c3.91535,-0.85402 21.48864,-0.13728 30.14303,-6.59704c5.25533,-3.92264 1.87364,-16.60216 5.53855,-16.30231c3.01609,0.24678 5.84019,21.57533 6.00515,22.3272c0.69553,3.17005 -30.91826,10.25252 -39.16795,12.05195c-5.30188,1.15649 -14.02017,4.10352 -19.09355,-2.08842c-2.82071,-3.44266 -3.87205,-16.77617 -4.12059,-17.9089z" fill="#141414" stroke="none"/><path d="M70.62761,433.8039l-4.89764,-22.32183l58.67004,-12.79725l4.89767,22.32182z" fill="none" stroke="#000000"/><path d="M70.62761,433.8039l-4.89764,-22.32183l58.67004,-12.79725l4.89767,22.32182z" fill="none" stroke="#000000"/></g><g><path d="M74.90699,469.96049l-4.89767,-22.32185l66.28541,-14.45837l4.89765,22.32185z" fill="#252525" stroke="#000000"/><path d="M74.90699,469.96049l-4.89767,-22.32185l66.28541,-14.45837l4.89765,22.32185z" fill="#252525" stroke="#000000"/><path d="M70.79143,449.15351c-0.35599,-1.6225 2.83714,7.65076 7.68561,10.3707c4.62456,2.59431 10.79165,-1.3694 15.34172,-2.3619c4.42363,-0.96485 24.1542,-0.71863 34.0562,-7.45054c6.01287,-4.0879 2.55689,-16.75124 6.66767,-16.54864c3.383,0.16672 5.97724,21.54545 6.14222,22.29733c0.69556,3.17005 -35.0268,11.14868 -44.3473,13.18171c-5.99003,1.30656 -15.86834,4.50663 -21.40188,-1.58489c-3.07656,-3.38686 -3.89574,-16.771 -4.14426,-17.90368z" fill="#141414" stroke="none"/><path d="M74.90699,469.96049l-4.89767,-22.32185l66.28541,-14.45837l4.89765,22.32185z" fill="none" stroke="#000000"/><path d="M74.90699,469.96049l-4.89767,-22.32185l66.28541,-14.45837l4.89765,22.32185z" fill="none" stroke="#000000"/></g></g><g><path d="M57.32826,391.55084l-5.62512,-25.63736l68.46123,-14.93302l5.62515,25.63734z" fill="#252525" stroke="#000000"/><path d="M57.32826,391.55084l-5.62512,-25.63736l68.46123,-14.93302l5.62515,25.63734z" fill="#252525" stroke="#000000"/><path d="M60.78158,379.70555c4.8636,3.07731 11.16972,-1.30563 15.86915,-2.33066c4.56883,-0.99658 25.05734,-0.23986 35.17358,-7.69762c6.14302,-4.52866 2.24851,-19.08922 6.52085,-18.75859c3.51595,0.27212 6.72699,24.77576 6.91648,25.6393c0.79885,3.64093 -36.09157,11.90208 -45.71799,14.00183c-6.1867,1.34945 -16.36393,4.76996 -22.25592,-2.32744c-3.27589,-3.9461 -4.45056,-19.2672 -4.736,-20.56819c-0.4089,-1.86349 3.13067,8.81508 8.22981,12.0414z" fill="#141414" stroke="none"/><path d="M57.32826,391.55084l-5.62512,-25.63736l68.46123,-14.93302l5.62515,25.63734z" fill="none" stroke="#000000"/><path d="M57.32826,391.55084l-5.62512,-25.63736l68.46123,-14.93302l5.62515,25.63734z" fill="none" stroke="#000000"/></g></g><g><path d="M211.15361,602.76865c0,9.95466 7.95359,23.99621 -3.43901,30.8799c-13.21487,7.98479 -47.31951,8.05223 -68.72179,8.05223c-19.97444,0 -45.49265,-1.40286 -58.55851,-8.47799c-13.00335,-7.0413 -13.60224,-19.72911 -13.60224,-30.45412c0,-21.50161 32.30747,-38.93209 72.16075,-38.93209c39.85331,0 72.1608,17.43048 72.1608,38.93209z" fill="#00ffe6" stroke="#000000"/><path d="M212.60656,623.38546c0,11.50403 -32.75155,20.82991 -73.15268,20.82991c-40.40111,0 -73.15269,-9.32585 -73.15269,-20.82991c0,-11.50403 -5.93256,-51.57884 34.46853,-51.57884c6.88227,0 -9.14604,9.84163 -18.5293,22.0285c-8.60365,11.17431 -10.75167,24.6363 -2.98207,27.58097c17.33528,6.57008 61.36462,11.24054 91.20378,9.0696c27.82378,-2.02432 42.14438,-10.83856 42.14438,-7.10022z" fill="#00d6c0" stroke="none"/><path d="M209.63086,603.79542c0,9.95466 7.95363,23.9962 -3.43896,30.8799c-13.21487,7.98479 -47.3195,8.05219 -68.72179,8.05219c-19.97444,0 -45.49265,-1.40284 -58.55853,-8.47799c-13.00333,-7.0413 -13.60224,-19.72911 -13.60224,-30.45412c0,-21.50161 32.30747,-38.93209 72.16079,-38.93209c39.85328,0 72.16078,17.43048 72.16078,38.93209z" fill="none" stroke="#000000"/></g></g><g stroke-linecap="butt"><g data-paper-data="{&quot;index&quot;:null}"><g><g><path d="M22.7564,467.54923l4.70113,113.20663l-40.97721,0.06564l-4.70111,-113.20663z" fill="#252525" stroke="#000000"/><path d="M22.7564,467.54923l4.70113,113.20663l-40.97721,0.06564l-4.70111,-113.20663z" fill="#252525" stroke="#000000"/><path d="M26.85348,572.5987c0.34171,8.22864 -2.34556,-40.02328 -5.61312,-58.30206c-3.11663,-17.43449 -6.74174,-4.75458 -9.55458,-4.75011c-2.73465,0.0044 -15.25749,-21.9984 -21.05173,0.14089c-3.51849,13.44389 -0.42212,78.38139 -3.04203,73.06489c-2.15607,-4.37527 -5.32977,-110.5875 -5.48815,-114.4007c-0.18911,-4.55388 1.32033,-0.14297 4.14487,-0.58294c7.14738,-1.11337 21.08472,1.02063 25.21452,1.01402c3.703,-0.00591 7.5397,-22.53222 11.48267,12.7883c2.19224,19.6379 3.66897,85.283 3.90756,91.02772z" fill="#141414" stroke="none"/><path d="M22.7564,467.54923l4.70113,113.20663l-40.97721,0.06564l-4.70111,-113.20663z" fill="none" stroke="#000000"/><path d="M22.7564,467.54923l4.70113,113.20663l-40.97721,0.06564l-4.70111,-113.20663z" fill="none" stroke="#000000"/></g><g><path d="M34.1041,518.50118l0.95184,22.92088l-59.86714,0.0959l-0.95183,-22.92088z" fill="#252525" stroke="#000000"/><path d="M34.1041,518.50118l0.95184,22.92088l-59.86714,0.0959l-0.95183,-22.92088z" fill="#252525" stroke="#000000"/><path d="M29.44631,527.97313c-3.64199,-3.52511 -9.60058,-0.94949 -13.7101,-0.9429c-3.99527,0.00639 -21.14009,-4.42505 -30.76191,0.07101c-5.84278,2.7302 -4.71281,15.87723 -8.26239,14.80563c-2.92119,-0.88189 -2.00715,-22.38909 -2.03921,-23.16114c-0.13518,-3.25513 32.15598,-3.48988 40.57398,-3.50335c5.41005,-0.00871 14.48704,-1.04771 18.40149,6.09863c2.17642,3.97331 0.90323,17.26696 0.95154,18.43008c0.06918,1.66605 -1.33506,-8.10212 -5.15343,-11.79795z" fill="#141414" stroke="none"/><path d="M34.1041,518.50118l0.95184,22.92088l-59.86714,0.0959l-0.95183,-22.92088z" fill="none" stroke="#000000"/><path d="M34.1041,518.50118l0.95184,22.92088l-59.86714,0.0959l-0.95183,-22.92088z" fill="none" stroke="#000000"/></g><g><path d="M36.15284,482.1495l0.95183,22.9209l-67.63791,0.10833l-0.95183,-22.9209z" fill="#252525" stroke="#000000"/><path d="M36.15284,482.1495l0.95183,22.9209l-67.63791,0.10833l-0.95183,-22.9209z" fill="#252525" stroke="#000000"/><path d="M36.59816,503.41945c0.06918,1.66605 -1.46467,-8.10188 -5.75868,-11.79698c-4.0957,-3.52438 -10.84153,-0.94745 -15.48445,-0.94001c-4.51388,0.00722 -23.86007,-4.42077 -34.75493,0.07734c-6.61579,2.73143 -5.41005,15.87838 -9.41455,14.80752c-3.29554,-0.88128 -2.147,-22.38891 -2.17906,-23.16095c-0.13518,-3.25513 36.34837,-3.49659 45.85904,-3.51184c6.11226,-0.00979 16.37295,-1.0507 20.75695,6.09487c2.43746,3.97289 0.9274,17.26691 0.97568,18.43001z" fill="#141414" stroke="none"/><path d="M36.15284,482.1495l0.95183,22.9209l-67.63791,0.10833l-0.95183,-22.9209z" fill="none" stroke="#000000"/><path d="M36.15284,482.1495l0.95183,22.9209l-67.63791,0.10833l-0.95183,-22.9209z" fill="none" stroke="#000000"/></g></g><g><path d="M39.86457,562.743l1.09322,26.3254l-69.85813,0.11196l-1.09324,-26.32541z" fill="#252525" stroke="#000000"/><path d="M39.86457,562.743l1.09322,26.3254l-69.85813,0.11196l-1.09324,-26.32541z" fill="#252525" stroke="#000000"/><path d="M34.42228,573.62195c-4.24706,-4.04863 -11.20203,-1.09019 -15.99735,-1.08254c-4.66205,0.00749 -24.66473,-5.08175 -35.89567,0.08245c-6.81991,3.13588 -5.51139,18.23569 -9.65253,17.00504c-3.40798,-1.01278 -2.32503,-25.71458 -2.36187,-26.60132c-0.15526,-3.73863 37.52499,-4.00919 47.34783,-4.02494c6.31294,-0.01011 16.90546,-1.2037 21.46779,7.00396c2.53659,4.56339 1.04083,19.83164 1.09629,21.16755c0.07947,1.9135 -1.55169,-9.30552 -6.00445,-13.55019z" fill="#141414" stroke="none"/><path d="M39.86457,562.743l1.09322,26.3254l-69.85813,0.11196l-1.09324,-26.32541z" fill="none" stroke="#000000"/><path d="M39.86457,562.743l1.09322,26.3254l-69.85813,0.11196l-1.09324,-26.32541z" fill="none" stroke="#000000"/></g></g><g data-paper-data="{&quot;index&quot;:null}"><g><g><path d="M-20.85086,475.98575l24.18965,-110.24787l40.15782,8.75937l-24.18967,110.24785z" fill="#252525" stroke="#000000"/><path d="M-20.85086,475.98575l24.18965,-110.24787l40.15782,8.75937l-24.18967,110.24785z" fill="#252525" stroke="#000000"/><path d="M41.49348,382.38483c-1.22752,5.5946 -14.02972,69.78906 -19.57547,88.6216c-9.97456,33.87196 -9.83927,10.92181 -13.46819,10.13027c-4.04721,-0.88279 -18.07887,-1.74308 -24.89271,-4.35374c-2.69275,-1.03169 -4.93535,2.98254 -3.96231,-1.45235c0.8148,-3.71354 22.29735,-107.41227 25.1677,-111.25426c3.48783,-4.66847 -10.77967,58.487 -9.65591,72.44454c1.85058,22.98523 17.93228,4.02077 20.61223,4.60536c2.7566,0.60126 4.11698,13.83068 10.1878,-2.64045c6.36477,-17.26876 17.34514,-64.11454 15.58688,-56.10096z" fill="#141414" stroke="none"/><path d="M-20.85086,475.98575l24.18965,-110.24787l40.15782,8.75937l-24.18967,110.24785z" fill="none" stroke="#000000"/><path d="M-20.85086,475.98575l24.18965,-110.24787l40.15782,8.75937l-24.18967,110.24785z" fill="none" stroke="#000000"/></g><g><path d="M-19.42607,424.28639l4.89765,-22.32183l58.67004,12.79728l-4.89765,22.32183z" fill="#252525" stroke="#000000"/><path d="M-19.42607,424.28639l4.89765,-22.32183l58.67004,12.79728l-4.89765,22.32183z" fill="#252525" stroke="#000000"/><path d="M43.40886,416.28745c-0.24854,1.1327 -1.29988,14.46622 -4.12059,17.90888c-5.07337,6.19194 -13.79167,3.24491 -19.09355,2.08842c-8.24967,-1.79942 -39.86346,-8.88191 -39.16793,-12.05195c0.16496,-0.75187 2.98906,-22.08042 6.00515,-22.3272c3.66494,-0.29983 0.28322,12.37967 5.53858,16.30231c8.65439,6.45977 26.22766,5.74302 30.14303,6.59707c4.02734,0.87845 9.42293,4.67381 13.60284,1.98253c4.38233,-2.82159 7.44847,-12.12258 7.09248,-10.50005z" fill="#141414" stroke="none"/><path d="M-19.42607,424.28639l4.89765,-22.32183l58.67004,12.79728l-4.89765,22.32183z" fill="none" stroke="#000000"/><path d="M-19.42607,424.28639l4.89765,-22.32183l58.67004,12.79728l-4.89765,22.32183z" fill="none" stroke="#000000"/></g><g><path d="M-31.32081,458.78192l4.89765,-22.32185l66.28541,14.45837l-4.89767,22.32185z" fill="#252525" stroke="#000000"/><path d="M-31.32081,458.78192l4.89765,-22.32185l66.28541,14.45837l-4.89767,22.32185z" fill="#252525" stroke="#000000"/><path d="M39.08016,452.43333c-0.24852,1.1327 -1.0677,14.51682 -4.14426,17.90368c-5.53352,6.09154 -15.41182,2.89144 -21.40185,1.58488c-9.32051,-2.03301 -45.04286,-10.01165 -44.3473,-13.18167c0.16499,-0.75187 2.75922,-22.1306 6.1422,-22.29732c4.11076,-0.2026 0.6548,12.46074 6.66767,16.54863c9.902,6.73191 29.6326,6.48569 34.0562,7.45054c4.55009,0.99247 10.71716,4.95618 15.34172,2.36187c4.84848,-2.71994 8.0416,-11.9932 7.68561,-10.37067z" fill="#141414" stroke="none"/><path d="M-31.32081,458.78192l4.89765,-22.32185l66.28541,14.45837l-4.89767,22.32185z" fill="none" stroke="#000000"/><path d="M-31.32081,458.78192l4.89765,-22.32185l66.28541,14.45837l-4.89767,22.32185z" fill="none" stroke="#000000"/></g></g><g><path d="M-15.91792,379.89757l5.62515,-25.63734l68.46123,14.93302l-5.62512,25.63736z" fill="#252525" stroke="#000000"/><path d="M-15.91792,379.89757l5.62515,-25.63734l68.46123,14.93302l-5.62512,25.63736z" fill="#252525" stroke="#000000"/><path d="M49.09008,382.98532c5.09916,-3.22632 8.63869,-13.90487 8.22981,-12.04137c-0.28543,1.30099 -1.46011,16.62208 -4.736,20.56819c-5.89202,7.0974 -16.06924,3.6769 -22.25594,2.32744c-9.62642,-2.09975 -46.51684,-10.3609 -45.71799,-14.00181c0.18947,-0.86354 3.40052,-25.36719 6.91649,-25.6393c4.27234,-0.33065 0.37783,14.22993 6.52085,18.75856c10.11624,7.45779 30.60476,6.70104 35.17358,7.69762c4.69944,1.02503 11.00554,5.40797 15.86914,2.33067z" fill="#141414" stroke="none"/><path d="M-15.91792,379.89757l5.62515,-25.63734l68.46123,14.93302l-5.62512,25.63736z" fill="none" stroke="#000000"/><path d="M-15.91792,379.89757l5.62515,-25.63734l68.46123,14.93302l-5.62512,25.63736z" fill="none" stroke="#000000"/></g></g><g><path d="M-101.28201,606.04847c0,-21.50161 32.3075,-38.93209 72.16078,-38.93209c39.85328,0 72.16075,17.43048 72.16075,38.93209c0,10.72501 -0.59889,23.41282 -13.60224,30.4541c-13.06586,7.07513 -38.58408,8.47799 -58.5585,8.47799c-21.4023,0 -55.50692,-0.06744 -68.72179,-8.05223c-11.39257,-6.88369 -3.43898,-20.92526 -3.43898,-30.87991z" fill="#00ffe6" stroke="#000000"/><path d="M-102.73495,626.66523c0,-3.73834 14.32059,5.07592 42.14437,7.10022c29.83917,2.17094 73.8685,-2.49951 91.20378,-9.06959c7.7696,-2.94467 5.62159,-16.40667 -2.98204,-27.58097c-9.38323,-12.18686 -25.41157,-22.02848 -18.5293,-22.02848c40.40108,0 34.46855,40.07479 34.46855,51.57885c0,11.50405 -32.75157,20.82993 -73.15268,20.82993c-40.40111,0 -73.15268,-9.32587 -73.15268,-20.82993z" fill="#00d6c0" stroke="none"/><path d="M-99.75931,607.07519c0,-21.50161 32.3075,-38.93209 72.16078,-38.93209c39.85331,0 72.16078,17.4305 72.16078,38.93209c0,10.72501 -0.59892,23.41282 -13.60225,30.4541c-13.06586,7.07515 -38.58406,8.47799 -58.5585,8.47799c-21.4023,0 -55.50692,-0.06742 -68.72179,-8.05221c-11.39257,-6.88369 -3.43896,-20.92526 -3.43896,-30.8799z" fill="none" stroke="#000000"/></g></g><g><path d="M-20.45649,314.55277c0,-31.6968 24.58786,-100.60173 46.33573,-128.33873c13.89477,-17.72124 23.0772,-2.56964 35.53318,-2.56964c13.9785,0 30.26984,-8.36725 43.56088,14.93327c17.0895,29.95954 29.57535,95.80406 29.57535,125.02551c0,51.94793 -41.18432,48.16132 -73.13623,48.16132c-31.95188,0 -81.86892,-5.26383 -81.86892,-57.21178z" fill="#00ffe6" stroke="#000000" stroke-linecap="butt"/><path d="M59.5442,167.85595c26.82754,0 49.66714,12.47405 49.66714,32.64627c0,0.89728 15.50515,17.17553 -4.02339,22.56473c-8.45658,2.33372 -22.80492,-9.83466 -38.50294,-9.42878c-19.35209,0.50031 -40.18808,13.72634 -47.72543,19.81656c-32.39143,26.17245 -30.54548,66.77518 -26.60319,72.24731c6.45645,8.9619 4.66958,28.89563 16.63678,35.39524c46.0694,25.02119 130.03095,20.69696 112.77141,20.69696c-14.16666,0 -100.91416,24.10128 -127.60643,-9.20593c-8.18285,-10.21074 -14.87404,-28.44173 -12.96258,-46.6747c3.66092,-34.92079 24.31517,-73.29851 24.31517,-79.55295c0,-20.17221 27.20594,-58.50471 54.03348,-58.50471z" fill="#00d6c0" stroke="none" stroke-linecap="butt"/><path d="M26.19418,185.29416c13.89476,-17.72121 25.16666,-16.72062 37.62261,-16.72062c13.9785,0 28.18041,5.78375 41.47145,29.08427c17.0895,29.95954 29.57535,95.80406 29.57535,125.02552c0,51.94793 -41.18435,48.16134 -73.13623,48.16134c-31.95188,0 -81.8689,-5.26386 -81.8689,-57.21178c0,-31.6968 24.58788,-100.60172 46.33573,-128.33872z" fill="none" stroke="#000000" stroke-linecap="butt"/><path d="M129.40567,280.34012l-23.46909,2.58584l-23.46909,7.11108l-30.01859,1.29291l-30.56439,-2.58585l-16.37379,-9.69691l-19.10273,-1.93937" fill="none" stroke="#000000" stroke-linecap="round"/><g stroke-linecap="butt"><path d="M118.58776,208.77596c0,6.78358 -0.3327,44.6058 -15.5551,44.6058c-15.22238,0 -39.56997,-37.82224 -39.56997,-44.60579c0,-6.78358 24.34759,-39.43411 39.56997,-39.43411c15.22238,0 15.5551,32.65053 15.5551,39.43411z" data-paper-data="{&quot;index&quot;:null}" fill="#ff0000" stroke="#000000"/><path d="M119.36443,219.16913c0,9.1043 -3.35509,31.99981 -16.91956,31.99981c-13.56448,0 -32.20176,-22.89551 -32.20176,-31.99981c0,-5.43403 26.04927,32.53369 35.85445,20.24644c4.20313,-5.26713 7.59933,-20.6739 6.53107,-39.258c-0.61494,-10.69753 -6.72354,-29.79624 -4.72583,-29.79624c13.56448,0 11.46164,39.70353 11.46164,48.8078z" data-paper-data="{&quot;index&quot;:null}" fill="#bf0000" stroke="none"/><path d="M118.27281,209.14898c0,6.78358 -0.3327,44.6058 -15.5551,44.6058c-15.22235,0 -39.56997,-37.82222 -39.56997,-44.6058c0,-6.78358 24.34759,-39.43411 39.56997,-39.43411c15.22238,0 15.5551,32.65053 15.5551,39.43411z" data-paper-data="{&quot;index&quot;:null}" fill="none" stroke="#000000"/><path d="M17.69185,169.71487c15.22238,0 39.56999,32.65053 39.56999,39.43411c0,6.78358 -24.34761,44.6058 -39.56999,44.6058c-15.22238,0 -15.5551,-37.82222 -15.5551,-44.6058c0,-6.78356 0.33271,-39.43411 15.55511,-39.43411z" fill="#ff0000" stroke="#000000"/><path d="M12.82177,170.73435c1.99776,0 -4.11087,19.09871 -4.7258,29.79625c-1.06827,18.5841 2.32791,33.99087 6.53107,39.258c9.80517,12.28725 35.85445,-25.68049 35.85445,-20.24645c0,9.10428 -18.63728,31.99981 -32.20176,31.99981c-13.56449,0 -16.91959,-22.89553 -16.91959,-31.99981c0,-9.1043 -2.10284,-48.8078 11.46164,-48.8078z" fill="#bf0000" stroke="none"/><path d="M18.00679,170.08792c15.22236,0 39.56997,32.65053 39.56997,39.43411c0,6.78358 -24.34761,44.6058 -39.56997,44.6058c-15.22238,0 -15.5551,-37.82221 -15.5551,-44.60579c0,-6.78356 0.33272,-39.43411 15.55511,-39.43411z" fill="none" stroke="#000000"/><path d="M62.29335,189.75515c9.79656,0 17.73825,9.6959 17.73825,21.65645c0,11.96052 -7.94167,21.65644 -17.73825,21.65644c-9.79655,0 -17.73824,-9.6959 -17.73824,-21.65644c0,-11.9605 7.94169,-21.65645 17.73825,-21.65645z" fill="#ff0000" stroke="#000000"/><path d="M45.02353,215.98665c0,-8.92579 1.27001,-25.85842 10.91586,-25.85842c3.02338,0 -4.93034,17.78451 -4.32942,25.79712c0.44317,5.90939 9.27326,9.83864 11.38327,12.39212c4.15678,5.03044 16.96102,-16.39558 16.96102,-12.33079c0,8.92577 -7.81952,16.16151 -17.46537,16.16151c-9.64585,0 -17.46536,-7.23576 -17.46536,-16.16151z" fill="#bf0000" stroke="none"/><path d="M62.0625,190.12818c9.79655,0 17.73825,9.6959 17.73825,21.65644c0,11.96052 -7.94169,21.65645 -17.73825,21.65645c-9.79655,0 -17.73825,-9.6959 -17.73825,-21.65645c0,-11.96052 7.9417,-21.65644 17.73825,-21.65644z" fill="none" stroke="#000000"/></g></g><path d="M-7.43045,140.44089c0,-5.0428 29.44502,30.56831 70.66441,30.56831c41.21939,0 72.64935,-34.02314 72.64935,-28.98034c0,5.0428 -29.44501,37.31717 -70.6644,37.31717c-41.21939,0 -72.64935,-33.86233 -72.64935,-38.90513z" fill="#00d6c0" stroke="none" stroke-linecap="butt"/><g><path d="M-76.69333,423.49934c-1.75763,-21.35919 12.59655,-39.97273 32.06098,-41.57443c19.46443,-1.60172 36.66833,14.41488 38.42599,35.77407c1.75766,21.35921 -12.59658,39.97274 -32.06101,41.57446c-19.46445,1.60174 -36.66832,-14.41488 -38.42598,-35.77407z" fill="#00ffe6" stroke="#000000" stroke-linecap="butt"/><path d="M-72.4717,437.81672c-0.99223,-12.05761 -10.31674,-44.36722 6.90843,-45.78466c2.88992,-0.23782 -2.51829,14.03956 0.50044,27.95875c2.8634,13.20307 14.12181,26.01698 17.98953,28.2217c16.35858,9.32491 36.31161,-23.64468 36.97946,-15.52884c0.9922,12.05759 -12.16718,22.9813 -29.39235,24.39874c-17.22517,1.41744 -31.9933,-7.20812 -32.98549,-19.26574z" fill="#00d6c0" stroke="none" stroke-linecap="butt"/><path d="M-44.54311,383.94395c19.46446,-1.60174 36.66835,14.41488 38.42598,35.77407c1.75766,21.35921 -12.59653,39.97274 -32.06098,41.57443c-19.46445,1.60174 -36.66832,-14.41488 -38.42598,-35.77407c-1.75766,-21.35921 12.59653,-39.97271 32.06098,-41.57443z" fill="none" stroke="#000000" stroke-linecap="butt"/><g><path d="M-77.32679,473.74389c6.33343,14.96107 5.53259,29.60188 -1.78882,32.70121c-7.32136,3.09935 -18.39075,-6.51645 -24.72418,-21.47751c-3.37332,-7.96859 0.45773,-38.05313 10.48651,-46.52169c8.80027,-7.43117 23.5058,6.30475 26.92763,4.85617c7.32137,-3.09935 -17.23462,15.4808 -10.90117,30.4418z" fill="#00ffe6" stroke="#000000" stroke-linecap="butt"/><path d="M-77.7412,491.42054c2.6277,6.20723 0.07649,12.21382 -4.06166,13.96564c-4.13814,1.75182 -9.62297,-1.86003 -12.25067,-8.06729c-2.6277,-6.20723 11.53448,-57.55642 15.67266,-59.30824c1.51855,-0.64285 10.89562,0.31341 9.17977,8.47158c-3.22368,15.32768 -10.20354,41.00889 -8.54013,44.9383z" fill="#00d6c0" stroke="none" stroke-linecap="butt"/><path d="M-76.77408,473.25148c6.33346,14.96102 5.53259,29.60188 -1.7888,32.70121c-7.32134,3.09933 -18.39075,-6.51647 -24.72416,-21.47752c-3.37332,-7.96859 0.45773,-38.05313 10.4865,-46.52169c8.80027,-7.43117 23.5058,6.30476 26.92763,4.85618c7.32135,-3.09933 -17.23462,15.4808 -10.90119,30.4418z" fill="none" stroke="#000000" stroke-linecap="butt"/><path d="M-103.0494,467.37598l23.41207,2.32286" fill="none" stroke="#000000" stroke-linecap="round"/></g><g><path d="M-40.97409,476.30595c9.22188,13.37543 11.39157,27.87672 4.84613,32.38956c-6.54544,4.51284 -19.32734,-2.6717 -28.54921,-16.04714c-4.91177,-7.12407 -7.22971,-37.36286 0.8841,-47.68073c7.1199,-9.05395 24.29446,1.43226 27.35364,-0.67692c6.54544,-4.51284 -13.75656,18.63984 -4.53468,32.01524z" fill="#00ffe6" stroke="#000000" stroke-linecap="butt"/><path d="M-37.81339,493.70267c3.82609,5.54938 2.53932,11.94716 -1.16025,14.49792c-3.69957,2.55073 -9.80034,0.11986 -13.62645,-5.42952c-3.82609,-5.54938 -0.31599,-58.69998 3.38363,-61.25072c1.35762,-0.93601 10.73479,-1.89148 10.70033,6.44513c-0.06471,15.66289 -1.7193,42.22425 0.70275,45.73719z" fill="#00d6c0" stroke="none" stroke-linecap="butt"/><path d="M-40.53213,475.71214c9.22188,13.37541 11.39158,27.87672 4.84616,32.38956c-6.54542,4.51282 -19.32736,-2.67173 -28.54921,-16.04714c-4.91177,-7.12407 -7.22971,-37.36286 0.8841,-47.68073c7.1199,-9.05395 24.29446,1.43226 27.35365,-0.67692c6.54542,-4.51282 -13.75656,18.63984 -4.53469,32.01525z" fill="none" stroke="#000000" stroke-linecap="butt"/><path d="M-44.05331,472.81027l-23.39923,2.44881" fill="none" stroke="#000000" stroke-linecap="round"/></g><g><path d="M-8.3688,468.44441c13.57353,8.92775 21.03533,21.54983 16.66643,28.19218c-4.3689,6.64236 -18.91407,4.7897 -32.4876,-4.13808c-7.22953,-4.75511 -20.74468,-31.90471 -17.10465,-44.51593c3.19416,-11.06636 23.05096,-7.80541 25.0929,-10.9099c4.36891,-6.64236 -5.74058,22.44397 7.83292,31.37173z" fill="#00ffe6" stroke="#000000" stroke-linecap="butt"/><path d="M1.09977,483.377c5.63158,3.70407 6.84419,10.11635 4.37482,13.87071c-2.46937,3.75438 -9.03649,3.79516 -14.66805,0.09109c-5.63158,-3.70407 -22.35897,-54.27579 -19.88958,-58.03019c0.90619,-1.37772 9.23641,-5.7881 12.33831,1.95002c5.82793,14.5384 14.2795,39.77357 17.84448,42.11838z" fill="#00d6c0" stroke="none" stroke-linecap="butt"/><path d="M-8.18249,467.728c13.5735,8.92773 21.03533,21.54983 16.66643,28.19216c-4.36888,6.64236 -18.91408,4.78965 -32.4876,-4.13808c-7.22953,-4.75511 -20.74466,-31.9047 -17.10463,-44.5159c3.19416,-11.06636 23.05096,-7.80541 25.0929,-10.90991c4.36888,-6.64236 -5.74059,22.44397 7.83291,31.37173z" fill="none" stroke="#000000" stroke-linecap="butt"/><path d="M-33.29872,477.42794l20.76247,-11.06528" fill="none" stroke="#000000" stroke-linecap="round"/></g><g><path d="M4.39206,442.56908c0.74721,-16.22918 -28.73096,-25.13169 -20.78902,-24.76604c3.71189,0.17088 12.73597,-17.81501 23.56834,-13.90011c12.34456,4.46144 26.37893,31.34627 25.98097,39.99029c-0.74721,16.2292 -7.79113,29.08912 -15.73309,28.72347c-7.94196,-0.36565 -13.77446,-13.81841 -13.02725,-30.04761z" fill="#00ffe6" stroke="#000000" stroke-linecap="butt"/><path d="M-12.69027,419.82224c-4.44066,-7.05557 4.02167,-11.20688 5.66895,-11.13105c4.48895,0.20666 35.59259,43.44867 35.28258,50.18205c-0.31001,6.73338 -4.20033,12.02433 -8.68925,11.81765c-4.48892,-0.20668 -8.96623,-4.95444 -8.65622,-11.68781c0.19624,-4.26247 -15.26294,-25.9248 -23.60605,-39.18085z" fill="#00d6c0" stroke="none" stroke-linecap="butt"/><path d="M-17.08619,417.53304c3.71189,0.17088 12.73597,-17.81501 23.56834,-13.90011c12.34456,4.46144 26.37893,31.34627 25.98097,39.99029c-0.74721,16.22918 -7.79115,29.08912 -15.73309,28.72347c-7.94194,-0.36565 -13.77443,-13.81843 -13.02723,-30.04763c0.7472,-16.22918 -28.73094,-25.13169 -20.78902,-24.76604z" fill="none" stroke="#000000" stroke-linecap="butt"/><path d="M5.15504,437.9735l21.15056,-10.3041" fill="none" stroke="#000000" stroke-linecap="round"/></g></g><g data-paper-data="{&quot;index&quot;:null}"><path d="M198.86564,418.98659c-1.75766,21.35919 -18.96152,37.37581 -38.42598,35.77407c-19.46443,-1.60172 -33.81867,-20.21524 -32.06101,-41.57445c1.75766,-21.35919 18.96156,-37.37579 38.42598,-35.77407c19.46443,1.6017 33.81861,20.21524 32.06098,41.57443z" fill="#00ffe6" stroke="#000000" stroke-linecap="butt"/><path d="M194.64398,433.3039c-0.9922,12.05761 -15.76032,20.68318 -32.98549,19.26574c-17.22517,-1.41744 -30.38456,-12.34116 -29.39236,-24.39875c0.66784,-8.11584 20.62088,24.85375 36.97946,15.52884c3.86772,-2.20472 15.12612,-15.01863 17.98952,-28.2217c3.01873,-13.9192 -2.38948,-28.19658 0.50044,-27.95875c17.22517,1.41744 7.90066,33.72706 6.90843,45.78467z" fill="#00d6c0" stroke="none" stroke-linecap="butt"/><path d="M198.77637,421.0056c-1.75766,21.35919 -18.96152,37.37581 -38.42598,35.77407c-19.46445,-1.6017 -33.81865,-20.21522 -32.06099,-41.57443c1.75763,-21.35919 18.96153,-37.37581 38.42599,-35.77407c19.46445,1.60172 33.81864,20.21522 32.06098,41.57443z" fill="none" stroke="#000000" stroke-linecap="butt"/><g><path d="M199.49909,469.23109c6.33345,-14.961 -18.22254,-33.54115 -10.90117,-30.4418c3.42183,1.44858 18.12736,-12.28734 26.92764,-4.85618c10.02878,8.46856 13.85984,38.55311 10.48651,46.5217c-6.33343,14.96107 -17.40281,24.57686 -24.72418,21.47751c-7.32141,-3.09933 -8.12225,-17.74014 -1.78882,-32.70121z" fill="#00ffe6" stroke="#000000" stroke-linecap="butt"/><path d="M199.9135,486.90777c1.66341,-3.92941 -5.31645,-29.61061 -8.54013,-44.9383c-1.71585,-8.15817 7.66122,-9.11443 9.17977,-8.47158c4.13819,1.75182 18.30037,53.10101 15.67266,59.30824c-2.6277,6.20725 -8.11253,9.8191 -12.25067,8.06728c-4.13815,-1.75182 -6.68936,-7.75841 -4.06166,-13.96564z" fill="#00d6c0" stroke="none" stroke-linecap="butt"/><path d="M198.94639,468.73868c6.33343,-14.961 -18.22254,-33.54113 -10.9012,-30.4418c3.42183,1.44858 18.12736,-12.28734 26.92763,-4.85618c10.02876,8.46856 13.85982,38.55311 10.4865,46.5217c-6.33341,14.96105 -17.40282,24.57684 -24.72416,21.47751c-7.32139,-3.09933 -8.12225,-17.74019 -1.7888,-32.70121z" fill="none" stroke="#000000" stroke-linecap="butt"/><path d="M225.22168,462.86321l-23.41207,2.32286" fill="none" stroke="#000000" stroke-linecap="round"/></g><g><path d="M163.14639,471.7932c9.22188,-13.37541 -11.08012,-36.52809 -4.53468,-32.01525c3.05919,2.10918 20.23375,-8.37704 27.35364,0.67692c8.11381,10.31787 5.79586,40.55667 0.8841,47.68074c-9.22188,13.37543 -22.00377,20.55997 -28.54921,16.04713c-6.54544,-4.51284 -4.37574,-19.01412 4.84614,-32.38956z" fill="#00ffe6" stroke="#000000" stroke-linecap="butt"/><path d="M160.68842,443.45271c-0.03446,-8.33661 9.3427,-7.38114 10.70033,-6.44512c3.69962,2.55073 7.20972,55.70133 3.38363,61.25071c-3.82611,5.54938 -9.92688,7.98026 -13.62645,5.42953c-3.69957,-2.55075 -4.98634,-8.94854 -1.16026,-14.49792c2.42205,-3.51295 0.76747,-30.07431 0.70275,-45.7372z" fill="#00d6c0" stroke="none" stroke-linecap="butt"/><path d="M162.70441,471.19939c9.22188,-13.37541 -11.08011,-36.52806 -4.53468,-32.01524c3.05919,2.10918 20.23375,-8.37704 27.35365,0.67692c8.11381,10.31787 5.79586,40.55666 0.8841,47.68073c-9.22186,13.37541 -22.00379,20.55995 -28.54921,16.04713c-6.54542,-4.51284 -4.37572,-19.01415 4.84615,-32.38956z" fill="none" stroke="#000000" stroke-linecap="butt"/><path d="M166.2256,468.29749l23.39923,2.44881" fill="none" stroke="#000000" stroke-linecap="round"/></g><g><path d="M130.5411,463.93163c13.5735,-8.92775 3.46401,-38.01408 7.83292,-31.37172c2.04194,3.10449 21.89873,-0.15646 25.0929,10.9099c3.64003,12.61122 -9.87512,39.76081 -17.10466,44.51592c-13.57352,8.92778 -28.1187,10.78044 -32.4876,4.13808c-4.3689,-6.64236 3.0929,-19.26443 16.66642,-28.19218z" fill="#00ffe6" stroke="#000000" stroke-linecap="butt"/><path d="M121.07254,478.86422c3.56498,-2.34481 12.01655,-27.57998 17.84448,-42.11838c3.1019,-7.73812 11.43212,-3.32774 12.33831,-1.95002c2.46939,3.75441 -14.258,54.32613 -19.88958,58.0302c-5.63156,3.70407 -12.19868,3.66329 -14.66805,-0.09109c-2.46937,-3.75436 -1.25676,-10.16665 4.37482,-13.87071z" fill="#00d6c0" stroke="none" stroke-linecap="butt"/><path d="M138.18768,431.8435c2.04194,3.10449 21.89873,-0.15645 25.0929,10.9099c3.64003,12.6112 -9.8751,39.76079 -17.10463,44.5159c-13.57352,8.92773 -28.11872,10.78044 -32.4876,4.13808c-4.3689,-6.64233 3.09293,-19.26443 16.66643,-28.19216c13.5735,-8.92775 3.46402,-38.01408 7.83291,-31.37172z" fill="none" stroke="#000000" stroke-linecap="butt"/><path d="M155.471,472.91517l-20.76246,-11.06528" fill="none" stroke="#000000" stroke-linecap="round"/></g><g><path d="M117.78026,438.05631c0.7472,16.2292 -5.08528,29.68196 -13.02725,30.04761c-7.94196,0.36565 -14.98589,-12.49427 -15.73309,-28.72347c-0.39796,-8.64402 13.63641,-35.52885 25.98097,-39.99029c10.83238,-3.9149 19.85645,14.07099 23.56834,13.90011c7.94194,-0.36565 -21.53622,8.53686 -20.78902,24.76604z" fill="#00ffe6" stroke="#000000" stroke-linecap="butt"/><path d="M134.86255,415.30944c-8.3431,13.25605 -23.80229,34.91838 -23.60605,39.18086c0.31001,6.73338 -4.1673,11.48113 -8.65623,11.68782c-4.48892,0.20668 -8.37925,-5.08427 -8.68926,-11.81765c-0.31001,-6.73338 30.79364,-49.97539 35.28259,-50.18205c1.64728,-0.07583 10.1096,4.07549 5.66894,11.13106z" fill="#00d6c0" stroke="none" stroke-linecap="butt"/><path d="M139.2585,413.02025c7.94192,-0.36565 -21.53622,8.53686 -20.78902,24.76604c0.7472,16.2292 -5.08529,29.68198 -13.02723,30.04763c-7.94194,0.36565 -14.98589,-12.49429 -15.73309,-28.72347c-0.39796,-8.64402 13.63641,-35.52885 25.98097,-39.99029c10.83238,-3.9149 19.85645,14.07099 23.56834,13.90011z" fill="none" stroke="#000000" stroke-linecap="butt"/><path d="M95.86668,423.15662l21.15056,10.3041" fill="none" stroke="#000000" stroke-linecap="round"/></g></g><g stroke-linecap="butt"><path d="M-19.49357,108.60306c0,-40.45202 36.61422,-73.24486 81.78016,-73.24486c45.16594,0 81.78016,32.79282 81.78016,73.24484c0,40.45201 -36.61421,73.24486 -81.78016,73.24486c-45.16594,0 -81.78016,-32.79284 -81.78016,-73.24485z" fill="#00ffe6" stroke="#000000"/><path d="M63.70836,34.00103c45.16595,0 81.78016,32.79284 81.78016,73.24486c0,40.45202 -36.61424,73.24485 -81.78016,73.24485c-45.16594,0 -81.78016,-32.79284 -81.78016,-73.24485c0,-40.45202 36.61424,-73.24485 81.78016,-73.24485z" fill="none" stroke="#000000"/><path d="M-3.59166,61.50725c14.23614,-17.74814 39.57575,-27.382 65.16108,-27.382c24.88068,0 51.24461,9.55027 66.88004,26.49434c13.16092,14.26242 17.67906,34.80495 17.67906,48.93396c0,30.91456 -38.73539,36.52319 -84.5591,36.52319c-45.8237,0 -79.39823,-5.21165 -79.39823,-36.1262c0,-13.65363 2.97617,-34.40426 14.23715,-48.44327z" fill="#00ffe6" stroke="#000000"/><path d="M63.35471,88.54766c29.16033,0 52.79947,11.81956 52.79947,26.39973c0,14.58016 -23.63913,26.39973 -52.79946,26.39973c-29.16033,0 -52.79946,-11.81957 -52.79946,-26.39973c0,-14.58016 23.63913,-26.39973 52.79946,-26.39973z" fill="#00d6c0" stroke="none"/><path d="M-14.29863,125.42201c0,-2.2991 -5.70049,-8.40223 -5.65619,-15.84151c0.09465,-15.8923 8.01498,-39.2971 24.39276,-54.68956c10.12975,-9.52035 39.21125,-18.04844 57.22979,-19.20495c7.48764,-0.48061 8.13836,4.58144 12.56264,4.58144c7.6816,0 -38.48765,2.50391 -60.85156,21.65919c-25.09678,21.49603 -26.59773,60.15244 -13.55279,65.06859c14.1772,5.34286 42.66727,10.53259 67.80072,8.01457c39.36126,-3.94344 75.68006,-18.14097 75.68006,-13.95467c0,3.23065 -13.68196,4.52 -16.33031,9.77952c-4.28296,8.50582 -0.36344,21.32027 -17.4379,24.11302c-9.98515,1.6332 -36.50954,-8.68359 -47.21799,-8.68359c-12.71217,0 -25.77281,12.6118 -36.66981,10.98251c-11.01893,-1.64753 -14.41479,-12.96087 -21.33105,-18.94817c-7.95006,-6.88223 -18.6184,-8.66044 -18.6184,-12.87634z" fill="#00d6c0" stroke="none"/><path d="M-17.99497,110.18131c0,-13.65363 2.97615,-34.40426 14.23713,-48.44328c14.23614,-17.74811 39.57575,-27.382 65.16108,-27.382c24.88071,0 51.24461,9.55027 66.88004,26.49434c13.1609,14.26245 17.67904,34.80498 17.67904,48.93398c0,7.64144 -13.15906,12.03875 -19.14278,21.11029c-5.72838,8.68443 -4.12686,22.15524 -11.24324,24.7673c-15.52361,5.69798 -30.51942,-9.35444 -54.17308,-9.35444c-12.83144,0 -25.45458,13.88182 -35.89689,12.61461c-8.04036,-0.97571 -18.17477,-18.03244 -24.21284,-22.02708c-14.12496,-9.34473 -19.28847,-11.12121 -19.28847,-26.71371z" fill="none" stroke="#000000"/><path d="M31.41842,78.61956c12.40401,0 22.45947,13.53692 22.45947,30.23559c0,16.69867 -10.05546,30.23559 -22.45947,30.23559c-12.40403,0 -28.98616,-7.67032 -28.98616,-24.36898c0,-16.69866 16.58215,-36.10219 28.98616,-36.10219z" fill="#820000" stroke="#000000"/><path d="M127.88739,114.72175c0,16.69866 -16.00031,24.36898 -27.96909,24.36898c-11.96881,0 -21.67143,-13.53695 -21.67143,-30.23559c0,-16.69867 9.70262,-30.23558 21.67143,-30.23558c11.96881,0 27.96909,19.40353 27.96909,36.10219z" data-paper-data="{&quot;index&quot;:null}" fill="#820000" stroke="#000000"/></g></g></g></svg>