<svg version="1.1" xmlns="http://www.w3.org/2000/svg" xmlns:xlink="http://www.w3.org/1999/xlink" width="485.96284" height="699.53366" viewBox="0,0,485.96284,699.53366"><g transform="translate(134.95862,34.92941)"><g data-paper-data="{&quot;isPaintingLayer&quot;:true}" fill-rule="nonzero" stroke-width="4.5" stroke-linejoin="miter" stroke-miterlimit="10" stroke-dasharray="" stroke-dashoffset="0" style="mix-blend-mode: normal"><g><path d="M232.75834,397.09512l-59.85919,-152.73637l42.15575,-18.10155l59.85919,152.73637z" data-paper-data="{&quot;index&quot;:null}" fill="#1b1b1b" stroke="#000000" stroke-linecap="butt"/><g data-paper-data="{&quot;index&quot;:null}"><g stroke-linecap="butt"><path d="M275.18736,360.5063c1.73743,16.34505 -9.99273,48.90697 -24.92549,50.49427c-14.93274,1.5873 -69.16778,-139.13108 -70.9052,-155.47611c-1.11584,-10.49742 -4.42204,-21.37631 2.54789,-27.43072c3.88261,-3.37263 16.00197,-4.47079 21.34434,-5.03866c7.74984,-0.82378 3.19838,57.32786 19.55538,91.2141c15.16039,31.40727 51.54738,38.37492 52.3831,46.23713z" fill="#840000" stroke="#000000"/><path d="M275.43745,354.09992c2.7485,25.85683 -10.07525,48.41796 -25.64471,50.07295c-15.5695,1.65499 -66.9922,-121.56739 -69.74071,-147.42425c-1.81341,-17.05982 24.36379,55.11996 47.68741,97.80875c12.02706,22.01283 24.19071,27.63428 29.48779,27.07121c15.5695,-1.65499 15.46172,-53.3855 18.21022,-27.52863z" fill="#430000" stroke="none"/><path d="M275.05293,359.24092c1.73743,16.34505 -9.99273,48.90697 -24.92549,50.49427c-14.93272,1.5873 -69.16778,-139.13108 -70.9052,-155.47611c-0.941,-8.85256 -15.29779,-21.07653 -10.24642,-27.09828c4.2753,-5.09658 27.29354,-4.64348 34.13862,-5.37109c8.18933,-0.8705 4.33297,59.47426 21.3025,95.32081c13.97326,29.51722 49.85139,34.74926 50.63598,42.13042z" fill="none" stroke="#000000"/></g><path d="M223.92321,313.30674l-15.42011,13.02654" fill="none" stroke="#000000" stroke-linecap="round"/></g></g><g><g stroke-linecap="butt"><path d="M66.64009,204.61807c8.14155,2.35854 23.75895,8.44168 27.53453,15.25883c3.72021,6.71714 -4.32443,14.1272 -6.61149,22.02204c-4.60818,15.90721 -87.48475,144.69527 -103.64841,140.0128c-16.16366,-4.68247 -23.69354,-39.52851 -19.08536,-55.4357c4.60818,-15.90721 85.64708,-126.54046 101.81071,-121.858z" fill="#840000" stroke="#000000"/><path d="M-18.9003,351.23066c5.73373,1.66101 20.04097,-1.4067 36.90267,-20.81716c32.69926,-37.64203 73.40361,-104.04344 68.59392,-87.44063c-7.28985,25.16419 -84.89409,139.56747 -101.747,134.68533c-16.8529,-4.88214 -26.52772,-32.44618 -19.23787,-57.61037c7.28985,-25.16419 -1.36463,26.30068 15.48826,31.18281z" fill="#430000" stroke="none"/><path d="M66.99681,203.38661c7.58737,2.198 25.15787,7.05573 29.00764,13.22268c4.35154,6.97071 -5.63957,15.61794 -8.08463,24.05815c-4.60818,15.90721 -87.48475,144.69527 -103.64841,140.0128c-16.16366,-4.68247 -23.69354,-39.52851 -19.08536,-55.4357c4.60818,-15.90721 85.64708,-126.54046 101.81071,-121.858z" fill="none" stroke="#000000"/></g><path d="M9.1209,258.50867l34.6981,47.81027" fill="none" stroke="#000000" stroke-linecap="round"/></g><g><path d="M-63.74333,371.43583c5.25152,-19.68093 24.04796,-31.75596 41.983,-26.97028c17.93504,4.78565 28.21708,24.61977 22.96556,44.3007c-5.25152,19.68095 -24.04799,31.75596 -41.98302,26.97028c-17.93506,-4.78565 -28.21708,-24.61977 -22.96556,-44.3007z" fill="#840000" stroke="#000000" stroke-linecap="butt"/><path d="M-64.53922,385.60073c2.96455,-11.11021 4.94168,-43.01104 20.81341,-38.77593c2.66285,0.71053 -6.74021,11.76259 -8.48563,25.18669c-1.65563,12.73344 4.32777,27.80096 7.08542,31.01032c11.66354,13.57403 40.05884,-9.56258 38.06341,-2.08442c-2.96458,11.11018 -18.2344,16.68358 -34.10613,12.44847c-15.87173,-4.23511 -26.33506,-16.67494 -23.37048,-27.78515z" fill="#430000" stroke="none" stroke-linecap="butt"/><path d="M-22.32559,346.3013c17.93506,4.78565 28.21708,24.61977 22.96556,44.3007c-5.25152,19.68095 -24.04794,31.75596 -41.983,26.97028c-17.93506,-4.78565 -28.21708,-24.61977 -22.96556,-44.3007c5.25152,-19.68095 24.04794,-31.75596 41.983,-26.97028z" fill="none" stroke="#000000" stroke-linecap="butt"/><g><path d="M-1.50087,426.59063c3.98099,-14.91941 -21.5899,-29.15708 -14.28889,-27.20894c3.41233,0.91051 15.43521,-13.9638 24.70144,-8.1343c10.55977,6.6433 18.14702,34.45168 16.02666,42.3981c-3.98099,14.91943 -13.12683,25.43471 -20.42784,23.48657c-7.30101,-1.94814 -9.9924,-15.62199 -6.01141,-30.54143z" fill="#840000" stroke="#000000" stroke-linecap="butt"/><path d="M-12.75663,402.00749c-2.69463,-7.45136 6.00448,-9.59239 7.51882,-9.18832c4.12666,1.10113 24.25175,47.55639 22.60006,53.74636c-1.65169,6.18997 -6.33597,10.31529 -10.46261,9.21416c-4.12664,-1.10113 -7.32275,-6.41685 -5.67106,-12.60682c1.04557,-3.91847 -8.92257,-27.16571 -13.98522,-41.1654z" fill="#430000" stroke="none" stroke-linecap="butt"/><path d="M-16.37514,398.99136c3.41233,0.91051 15.43521,-13.9638 24.70144,-8.1343c10.55977,6.6433 18.14702,34.45168 16.02666,42.3981c-3.98099,14.91941 -13.12685,25.43471 -20.42784,23.48657c-7.30099,-1.94814 -9.99237,-15.62202 -6.01138,-30.54143c3.98099,-14.91941 -21.58987,-29.15708 -14.28889,-27.20894z" fill="none" stroke="#000000" stroke-linecap="butt"/><path d="M0.13846,422.47761l21.72788,-5.28469" fill="none" stroke="#000000" stroke-linecap="round"/></g><g data-paper-data="{&quot;index&quot;:null}"><path d="M-80.36488,416.209c0.8888,15.41584 -4.50621,28.26542 -12.05015,28.70034c-7.54392,0.43495 -14.37998,-11.70943 -15.26877,-27.12527c-0.4734,-8.21082 12.56874,-33.91635 24.25175,-38.29238c10.25187,-3.83995 19.02628,13.15432 22.55213,12.95103c7.54392,-0.43495 -20.3738,8.35044 -19.48498,23.76623z" fill="#840000" stroke="#000000" stroke-linecap="butt"/><path d="M-86.38403,431.89952c0.36876,6.39593 -3.83418,10.95744 -8.09812,11.20329c-4.26394,0.24585 -8.01951,-4.73978 -8.38827,-11.13571c-0.36876,-6.39593 28.71573,-47.83506 32.9797,-48.08091c1.56471,-0.09022 9.6529,3.76199 5.51022,10.51639c-7.78325,12.69026 -22.23698,33.44809 -22.00356,37.49694z" fill="#430000" stroke="none" stroke-linecap="butt"/><path d="M-79.71282,415.94482c0.88882,15.41581 -4.50621,28.26542 -12.05013,28.70036c-7.5439,0.43495 -14.37998,-11.70946 -15.26877,-27.12527c-0.4734,-8.21082 12.56874,-33.91635 24.25175,-38.29238c10.25187,-3.83995 19.02628,13.15432 22.55213,12.95103c7.5439,-0.43495 -20.3738,8.35044 -19.48498,23.76623z" fill="none" stroke="#000000" stroke-linecap="butt"/><path d="M-81.14063,411.84983l-20.21468,-9.56006" fill="none" stroke="#000000" stroke-linecap="round"/></g><g data-paper-data="{&quot;index&quot;:null}"><path d="M-48.64301,430.11802c3.98099,14.91943 1.2896,28.59329 -6.01141,30.54143c-7.30101,1.94814 -16.44684,-8.56713 -20.42784,-23.48657c-2.12036,-7.94642 5.46689,-35.7548 16.02666,-42.3981c9.26623,-5.8295 21.28912,9.04481 24.70144,8.1343c7.30101,-1.94814 -18.26988,12.28953 -14.28889,27.20894z" fill="#840000" stroke="#000000" stroke-linecap="butt"/><path d="M-51.3725,446.70035c1.65169,6.18997 -1.54442,11.50569 -5.67106,12.60684c-4.12664,1.10113 -8.81091,-3.02419 -10.46261,-9.21416c-1.65169,-6.18997 18.4734,-52.64524 22.60006,-53.74636c1.51434,-0.40407 10.21345,1.73693 7.51882,9.18829c-5.06265,13.99969 -15.03079,37.24693 -13.98522,41.1654z" fill="#430000" stroke="none" stroke-linecap="butt"/><path d="M-48.05766,429.72764c3.98099,14.91941 1.2896,28.59329 -6.01138,30.54143c-7.30099,1.94814 -16.44684,-8.56716 -20.42784,-23.48657c-2.12036,-7.94642 5.46689,-35.7548 16.02666,-42.3981c9.26623,-5.8295 21.28912,9.04481 24.70144,8.1343c7.30099,-1.94814 -18.26988,12.28953 -14.28889,27.20894z" fill="none" stroke="#000000" stroke-linecap="butt"/><path d="M-72.01026,420.72036l21.72788,5.28469" fill="none" stroke="#000000" stroke-linecap="round"/></g><g data-paper-data="{&quot;index&quot;:null}"><path d="M-22.30644,436.17987c9.29743,12.32865 11.94365,26.01132 5.91048,30.56113c-6.03317,4.54981 -18.46105,-1.75615 -27.75848,-14.0848c-4.95201,-6.5665 -8.37482,-35.18743 -1.08688,-45.31305c6.39521,-8.88524 23.12772,0.37852 25.9475,-1.74796c6.03317,-4.54981 -12.31005,18.25606 -3.01261,30.58468z" fill="#840000" stroke="#000000" stroke-linecap="butt"/><path d="M-18.60217,452.57204c3.85746,5.11506 2.89401,11.24239 -0.51603,13.814c-3.41003,2.57164 -9.30152,0.50978 -13.15895,-4.60529c-3.85746,-5.11506 -2.67167,-55.72835 0.73839,-58.29998c1.25138,-0.9437 10.11725,-2.22985 10.42135,5.68794c0.57136,14.87598 0.07333,40.16532 2.51521,43.40333z" fill="#430000" stroke="none" stroke-linecap="butt"/><path d="M-21.91078,435.59816c9.29743,12.32862 11.94365,26.01132 5.91051,30.5611c-6.03314,4.54981 -18.46105,-1.75618 -27.75848,-14.0848c-4.95201,-6.5665 -8.37482,-35.18743 -1.08688,-45.31305c6.39521,-8.88524 23.12772,0.37852 25.9475,-1.74796c6.03314,-4.54981 -12.31005,18.25606 -3.01261,30.58468z" fill="none" stroke="#000000" stroke-linecap="butt"/><path d="M-25.37169,432.98486l-22.12082,3.27074" fill="none" stroke="#000000" stroke-linecap="round"/></g></g><g data-paper-data="{&quot;index&quot;:null}"><path d="M304.8013,400.80048c5.25152,19.68093 -5.0305,39.51505 -22.96556,44.3007c-17.93504,4.78567 -36.7315,-7.28933 -41.98302,-26.97028c-5.25152,-19.68093 5.03053,-39.51505 22.96556,-44.3007c17.93504,-4.78567 36.73148,7.28936 41.983,26.97028z" fill="#840000" stroke="#000000" stroke-linecap="butt"/><path d="M305.59716,414.96541c2.96458,11.11021 -7.49875,23.55004 -23.37048,27.78515c-15.87173,4.23511 -31.14155,-1.33829 -34.10613,-12.44847c-1.99543,-7.47816 26.39987,15.65845 38.06341,2.08442c2.75765,-3.20936 8.74104,-18.27688 7.08542,-31.01032c-1.74542,-13.4241 -11.14848,-24.47616 -8.48563,-25.18669c15.87173,-4.23511 17.84885,27.66572 20.81341,38.77593z" fill="#430000" stroke="none" stroke-linecap="butt"/><path d="M305.36658,402.63636c5.25152,19.68093 -5.0305,39.51505 -22.96556,44.3007c-17.93506,4.78567 -36.73148,-7.28933 -41.983,-26.97028c-5.25152,-19.68093 5.0305,-39.51505 22.96556,-44.3007c17.93506,-4.78567 36.73148,7.28933 41.983,26.97028z" fill="none" stroke="#000000" stroke-linecap="butt"/><g><path d="M242.55884,455.9553c3.98099,14.91943 1.2896,28.59329 -6.01141,30.54143c-7.30101,1.94814 -16.44684,-8.56713 -20.42784,-23.48657c-2.12036,-7.94642 5.46689,-35.7548 16.02666,-42.3981c9.26623,-5.8295 21.28912,9.04481 24.70144,8.1343c7.30101,-1.94814 -18.26988,12.28953 -14.28889,27.20894z" fill="#840000" stroke="#000000" stroke-linecap="butt"/><path d="M239.82941,472.53763c1.65169,6.18997 -1.54442,11.50569 -5.67106,12.60684c-4.12664,1.10113 -8.81091,-3.02419 -10.46261,-9.21416c-1.65169,-6.18997 18.4734,-52.64524 22.60006,-53.74636c1.51434,-0.40407 10.21342,1.73693 7.5188,9.18829c-5.06265,13.99969 -15.03079,37.24693 -13.98522,41.1654z" fill="#430000" stroke="none" stroke-linecap="butt"/><path d="M243.14424,455.56492c3.98099,14.91941 1.2896,28.59329 -6.01138,30.54143c-7.30099,1.94814 -16.44684,-8.56716 -20.42784,-23.48657c-2.12036,-7.94642 5.46689,-35.7548 16.02666,-42.3981c9.26623,-5.8295 21.28912,9.04481 24.70144,8.1343c7.30099,-1.94814 -18.26988,12.28953 -14.28889,27.20894z" fill="none" stroke="#000000" stroke-linecap="butt"/><path d="M240.91951,451.84233l-21.72788,-5.28469" fill="none" stroke="#000000" stroke-linecap="round"/></g><g data-paper-data="{&quot;index&quot;:null}"><path d="M321.4228,445.57367c0.88882,-15.41581 -27.0289,-24.20118 -19.48498,-23.76623c3.52585,0.20329 12.30026,-16.791 22.55213,-12.95105c11.68301,4.376 24.72512,30.08156 24.25175,38.29235c-0.88882,15.41581 -7.72488,27.56022 -15.26877,27.12527c-7.54392,-0.43495 -12.93895,-13.28453 -12.05015,-28.70034z" fill="#840000" stroke="#000000" stroke-linecap="butt"/><path d="M305.43839,423.76731c-4.14268,-6.75441 3.94551,-10.60661 5.51022,-10.51639c4.26397,0.24585 33.34846,41.68498 32.9797,48.08091c-0.36876,6.39593 -4.12432,11.38156 -8.38827,11.13571c-4.26394,-0.24585 -8.46688,-4.80734 -8.09812,-11.20327c0.23345,-4.04885 -14.22029,-24.80668 -22.00356,-37.49694z" fill="#430000" stroke="none" stroke-linecap="butt"/><path d="M301.28578,421.54324c3.52587,0.20329 12.30026,-16.791 22.55215,-12.95105c11.68301,4.376 24.72512,30.08156 24.25175,38.29238c-0.88882,15.41581 -7.72488,27.56019 -15.2688,27.12524c-7.5439,-0.43495 -12.93892,-13.28455 -12.0501,-28.70034c0.8888,-15.41581 -27.0289,-24.20118 -19.48498,-23.76623z" fill="none" stroke="#000000" stroke-linecap="butt"/><path d="M342.41325,431.65449l-20.21471,9.56006" fill="none" stroke="#000000" stroke-linecap="round"/></g><g data-paper-data="{&quot;index&quot;:null}"><path d="M289.70101,459.48267c3.98099,-14.91941 -21.5899,-29.15708 -14.28889,-27.20894c3.41233,0.91051 15.43521,-13.9638 24.70144,-8.1343c10.55977,6.6433 18.14702,34.45168 16.02666,42.3981c-3.98099,14.91943 -13.12683,25.43471 -20.42784,23.48657c-7.30101,-1.94814 -9.9924,-15.62199 -6.01141,-30.54143z" fill="#840000" stroke="#000000" stroke-linecap="butt"/><path d="M278.4452,434.89965c-2.69463,-7.45136 6.00446,-9.59239 7.5188,-9.18832c4.12666,1.10113 24.25175,47.55639 22.60006,53.74636c-1.65169,6.18997 -6.33597,10.31529 -10.46261,9.21416c-4.12664,-1.10113 -7.32275,-6.41687 -5.67106,-12.60684c1.04557,-3.91847 -8.92255,-27.16571 -13.98519,-41.1654z" fill="#430000" stroke="none" stroke-linecap="butt"/><path d="M274.82677,431.88343c3.41233,0.91051 15.43521,-13.9638 24.70144,-8.1343c10.55977,6.6433 18.14702,34.45168 16.02666,42.3981c-3.98099,14.91941 -13.12685,25.43471 -20.42784,23.48657c-7.30099,-1.94814 -9.99237,-15.62202 -6.01138,-30.54143c3.98099,-14.91941 -21.58987,-29.15708 -14.28889,-27.20894z" fill="none" stroke="#000000" stroke-linecap="butt"/><path d="M313.06817,450.08501l-21.72788,5.28469" fill="none" stroke="#000000" stroke-linecap="round"/></g><g data-paper-data="{&quot;index&quot;:null}"><path d="M263.36443,465.54465c9.29743,-12.32862 -9.04581,-35.13449 -3.01261,-30.58468c2.81978,2.12646 19.55231,-7.13729 25.9475,1.74793c7.28796,10.12562 3.86513,38.74652 -1.08688,45.31303c-9.29743,12.32865 -21.72531,18.63461 -27.7585,14.08482c-6.03319,-4.54981 -3.38695,-18.23248 5.91048,-30.56113z" fill="#840000" stroke="#000000" stroke-linecap="butt"/><path d="M262.17538,438.5334c0.30409,-7.91779 9.16999,-6.63164 10.42137,-5.68794c3.41006,2.57164 4.59583,53.18492 0.73839,58.29998c-3.85743,5.11506 -9.74892,7.17693 -13.15895,4.60529c-3.41003,-2.57164 -4.37348,-8.69893 -0.51603,-13.814c2.4419,-3.23802 1.94388,-28.52733 2.51524,-43.40333z" fill="#430000" stroke="none" stroke-linecap="butt"/><path d="M259.95611,434.3782c2.81978,2.12646 19.55229,-7.13729 25.9475,1.74793c7.28794,10.12562 3.86513,38.74652 -1.08688,45.31303c-9.29743,12.32862 -21.72534,18.63461 -27.7585,14.08482c-6.03314,-4.54981 -3.38693,-18.2325 5.91051,-30.56113c9.29743,-12.32862 -9.04578,-35.13447 -3.01261,-30.58468z" fill="none" stroke="#000000" stroke-linecap="butt"/><path d="M266.42963,462.34956l22.12084,3.27076" fill="none" stroke="#000000" stroke-linecap="round"/></g></g><g stroke-linecap="butt"><path d="M93.76092,400.78032l17.8556,-121.54097l56.66437,8.32457l-17.8556,121.54097z" fill="#1b1b1b" stroke="#000000"/><g><path d="M36.07724,391.37724l6.15295,-41.88237l137.96542,20.26852l-6.15295,41.88237z" fill="#1b1b1b" stroke="#000000"/><g><path d="M42.09357,358.60427c4.93346,-33.58155 21.57872,-112.67478 48.2831,-143.89048c18.96978,-22.17444 46.36024,-3.79002 63.23518,-1.31091c21.66043,3.18213 45.12364,-10.38948 51.04717,26.86258c5.18776,32.625 4.77651,109.3785 0.83688,136.19515c-8.43802,57.43659 -41.81038,50.90757 -82.44078,44.93854c-28.23349,-4.14779 14.39752,-107.63988 0.23015,-127.11824c-6.22067,-8.55262 -83.76622,81.84802 -81.19167,64.32333z" fill="#840000" stroke="#000000"/><path d="M127.49486,289.57024c1.07097,-7.28989 -7.63176,-8.851 -22.43241,5.06869c-10.90066,10.25182 -45.87983,54.42948 -49.19194,52.47269c-12.54434,-7.41117 31.14602,-91.58377 44.79843,-109.65005c13.68294,-18.10666 31.98204,-14.20342 44.04084,-12.43186c14.29719,2.1004 31.36234,1.27455 39.71654,25.6004c10.09929,29.4072 9.7088,86.75826 5.41749,115.96874c-7.84113,53.37357 -41.94832,56.35317 -73.52922,51.71361c-5.8926,-0.86568 5.71739,-8.34237 3.68382,-8.92034c-8.86519,-2.51961 -1.76877,0.35181 4.6093,-43.06292z" fill="#7d3c3c" stroke="#000000"/><path d="M49.85957,352.71113c1.1368,-7.73809 11.09138,-41.48025 27.80603,-71.22885c9.66509,-17.20185 17.01457,-37.17403 28.12693,-47.88024c9.31785,-8.97732 22.60103,-10.24953 29.30277,-9.46491c0.96029,0.1124 24.96398,-8.46462 25.93275,-8.3223c29.73641,4.36858 31.74644,43.11244 29.32212,59.61452c-2.42432,16.50207 -36.1767,-20.12364 -65.91311,-24.49222c-20.72521,-3.04474 -29.92267,16.6909 -36.28578,26.48964c-2.76663,4.26042 -29.31323,55.2852 -28.57858,50.28449z" fill="#5c2c2c" stroke="none"/><path d="M45.16977,366.5098c2.11629,-14.40532 17.17717,-155.97698 60.76249,-149.57385c8.05504,1.18337 -12.48415,26.19283 -25.91266,59.55986c-6.49562,16.14026 -35.33041,70.47495 -26.35281,69.05208c6.43605,-1.02006 37.04882,-31.58916 47.87572,-42.37718c12.15032,-12.1067 20.73104,-28.23422 23.61,-21.98695c7.00764,15.20643 -6.33062,70.71906 -4.9011,102.02784c0.42245,9.25223 6.80739,13.24884 9.55682,17.38777c19.29104,29.04025 70.49068,1.81553 69.7225,7.04444c-2.11629,14.40532 -39.16478,20.89237 -82.7501,14.48924c-17.21256,-2.5287 -3.6935,-15.9029 -1.47899,-37.10299c2.84984,-27.28218 8.56986,-68.676 9.62206,-86.61014c0.20055,-3.41836 -4.17764,-6.63216 -3.97264,-8.02755z" fill="#430000" stroke="none"/><path d="M120.77793,385.72619c0.6569,-4.47143 7.0905,-9.10188 2.1391,-9.57059c-5.54224,-0.52465 -21.75418,3.52604 -4.40927,6.07418c32.84074,4.82464 67.74532,-10.6085 66.35313,-1.13208c-0.67268,4.57889 -5.91926,21.33943 -18.7716,29.45024c-13.7467,8.67523 -25.67526,9.119 -42.64776,6.62556c-15.59938,-2.29171 -9.25326,-15.37139 -9.91033,-23.65141c-0.113,-1.42399 9.75139,0.01137 8.34929,-1.24356c-7.60878,-6.8101 -5.92865,1.82425 -5.31148,-2.37674z" fill="#5c2c2c" stroke="none"/><path d="M101.05585,236.99592c13.68291,-18.10667 31.98202,-14.20342 44.04081,-12.43185c14.29721,2.1004 31.36236,1.27455 39.71656,25.6004c10.09927,29.40721 9.70877,86.75829 5.41746,115.96876c-3.35697,22.85048 -11.52824,36.46428 -22.25446,44.19793c-14.32781,10.33041 -33.21439,10.16893 -51.27476,7.51568c-7.53513,-1.10699 -5.44953,-11.85562 -3.90481,-26.41068c3.43436,-32.36036 17.6234,-84.87168 12.55583,-101.52627c-1.36578,-4.48861 -34.893,20.78481 -54.28467,43.68749c-11.93004,14.09003 -25.15072,27.45828 -24.46104,22.76371c4.84707,-32.99347 32.29768,-90.05209 54.4491,-119.36515z" fill="none" stroke="#000000"/><path d="M92.14424,214.6874c18.96978,-22.17447 46.36022,-3.79004 63.23519,-1.31094c21.66043,3.18213 45.12364,-10.3895 51.04717,26.86258c5.18776,32.625 4.77649,109.37852 0.83685,136.19517c-3.40702,23.19115 -10.87906,35.954 -21.25262,42.53603c-1.39437,0.88474 -2.8412,1.6578 -4.33758,2.32952c-14.94254,6.70741 -34.83065,3.30795 -56.85058,0.073c-16.75191,-2.46103 8.95049,-107.20025 2.64268,-134.28001c-4.05749,-17.41903 -40.59591,41.19162 -46.34131,34.10556c-6.9862,-8.61643 -39.98406,55.9022 -37.2629,37.37954c4.93347,-33.58153 21.57872,-112.67476 48.28309,-143.89046z" fill="none" stroke="#000000"/></g></g><g><path d="M206.62616,280.61341c-1.08813,7.40676 -7.5183,48.65011 -24.1391,46.20833c-16.62076,-2.44176 -37.13812,-47.644 -36.05,-55.05073c1.08813,-7.40676 32.90972,-39.1512 49.5305,-36.70943c16.62076,2.44176 11.74673,38.14507 10.6586,45.55183z" data-paper-data="{&quot;index&quot;:null}" fill="#410000" stroke="#000000"/><path d="M102.72716,221.77975c16.62076,2.44176 37.96772,41.9972 36.87959,49.40396c-1.08813,7.40676 -33.73932,44.79797 -50.36009,42.3562c-16.62076,-2.44176 -10.91716,-43.79185 -9.82903,-51.1986c1.08813,-7.40673 6.68873,-43.00333 23.30954,-40.56155z" fill="#410000" stroke="#000000"/><path d="M206.22245,280.9702c-1.08813,7.40676 -7.5183,48.65011 -24.1391,46.20833c-16.62074,-2.44176 -37.13812,-47.64397 -36.05,-55.05073c1.08813,-7.40676 32.90972,-39.1512 49.5305,-36.70943c16.62076,2.44176 11.74673,38.14507 10.6586,45.55183z" data-paper-data="{&quot;index&quot;:null}" fill="none" stroke="#000000"/><path d="M103.01121,222.23755c16.62074,2.44176 37.96769,41.9972 36.87956,49.40395c-1.08813,7.40676 -33.73932,44.79797 -50.36007,42.35621c-16.62076,-2.44176 -10.91716,-43.79185 -9.82903,-51.1986c1.08813,-7.40673 6.68876,-43.00332 23.30954,-40.56155z" fill="none" stroke="#000000"/><path d="M97.24617,222.11169c2.18128,0.32045 -7.55205,20.1938 -9.93943,31.7754c-4.1474,20.11996 -2.91057,37.48682 0.83382,43.91203c8.73497,14.98881 43.26748,-22.28833 42.39583,-16.35511c-1.46037,9.94063 -25.48234,31.94991 -40.2929,29.77409c-14.81059,-2.17583 -14.80132,-27.71282 -13.34092,-37.65345c1.46038,-9.94066 5.53304,-53.62879 20.34361,-51.45297z" fill="#170000" stroke="none"/><path d="M205.80705,292.08593c-1.46038,9.94066 -8.79626,34.40127 -23.60682,32.22544c-14.81056,-2.17582 -31.48737,-30.16415 -30.02699,-40.1048c0.87165,-5.93324 23.22366,39.70083 35.90053,27.85764c5.43412,-5.07679 11.61365,-21.35411 13.42825,-41.81678c1.04452,-11.77889 -2.56169,-33.61195 -0.38046,-33.29151c14.81056,2.17582 6.14587,45.18937 4.6855,55.12999z" data-paper-data="{&quot;index&quot;:null}" fill="#170000" stroke="none"/><g><path d="M148.21138,250.81533c10.69651,1.57142 17.81248,13.43193 15.89394,26.49122c-1.91854,13.05927 -12.14504,22.372 -22.84158,20.80058c-10.69651,-1.57142 -17.81248,-13.43193 -15.89394,-26.49122c1.91854,-13.05924 12.14507,-22.372 22.84158,-20.80058z" fill="#410000" stroke="#000000"/><path d="M147.89948,251.18563c10.69651,1.57142 17.81248,13.43193 15.89394,26.49122c-1.91854,13.05927 -12.14507,22.372 -22.84158,20.80058c-10.69651,-1.57142 -17.81248,-13.43193 -15.89394,-26.49122c1.91854,-13.05927 12.14507,-22.372 22.84158,-20.80058z" fill="none" stroke="#000000"/><path d="M125.14739,276.68638c1.43175,-9.74575 5.53452,-28.03017 16.06648,-26.48292c3.30112,0.48497 -8.236,18.6274 -8.86515,27.47249c-0.46401,6.52334 8.54696,12.22995 10.44121,15.35646c3.73173,6.15932 21.14907,-15.1811 20.49706,-10.74291c-1.43175,9.74573 -11.13025,16.39188 -21.6622,14.84463c-10.53196,-1.54725 -17.90915,-10.70202 -16.47739,-20.44772z" fill="#170000" stroke="none"/></g></g></g><g><path d="M153.21778,153.96031c31.19875,7.03398 53.28744,26.94245 49.33645,44.46682c-3.95099,17.52435 -32.4455,26.02847 -63.64425,18.99449c-31.19875,-7.03398 -53.28744,-26.94245 -49.33645,-44.46682c3.95099,-17.52435 32.4455,-26.02847 63.64425,-18.99449z" fill="#000000" stroke="#000000" stroke-linecap="butt"/><path d="M86.33786,169.76662c9.91259,-1.25137 40.07081,21.15778 60.08533,26.46152c22.36272,5.92601 34.75887,-4.97455 46.80039,-2.25971c29.07924,6.55612 5.19091,9.74168 2.9224,19.80349c-2.26852,10.06181 -27.68087,12.90376 -56.76009,6.34763c-4.88901,-1.10226 -9.5704,-2.39999 -13.96501,-3.84412c-21.74404,-7.14547 -36.46721,-17.87518 -34.5801,-26.24533c0.48839,-2.16626 -10.26133,-19.53653 -4.50292,-20.2635z" fill="#ffffff" stroke="#000000" stroke-linecap="butt"/><path d="M113.08231,196.11957c17.49416,8.705 40.27344,13.95087 54.32972,14.08741c18.68484,0.18148 22.18738,-10.07398 32.5176,-7.74495c25.02833,5.64281 -9.51325,15.86583 -10.81764,21.65139c-1.3044,5.78556 -22.6513,5.90126 -47.67965,0.25842c-12.09121,-2.72606 -28.12795,-9.83297 -38.87522,-19.51956c-11.49919,-10.36433 -17.28666,-23.3435 -16.61241,-26.33408c0.361,-1.60122 11.54425,9.84217 27.13759,17.60136z" fill="#e2e2e2" stroke="none" stroke-linecap="butt"/><path d="M88.07258,171.43405c9.91259,-1.25137 40.07081,21.15778 60.08533,26.46152c22.36272,5.92601 34.75887,-4.97455 46.80039,-2.25971c29.07924,6.55612 5.19091,9.74168 2.9224,19.80349c-2.26852,10.06181 -27.68087,12.90376 -56.76009,6.34763c-4.88901,-1.10226 -9.5704,-2.39999 -13.96501,-3.84412c-21.74404,-7.14547 -36.46721,-17.87518 -34.5801,-26.24533c0.48839,-2.16626 -10.26133,-19.53653 -4.50292,-20.2635z" fill="none" stroke="#000000" stroke-linecap="butt"/><path d="M78.62298,171.22342c1.85425,-8.22436 8.33268,-13.76981 14.46999,-12.38611c1.53803,0.34676 -5.12357,5.0056 -3.97607,9.54232c0.88404,3.49514 -1.72481,6.83737 -1.0734,10.95344c0.78306,4.94817 4.92123,10.77983 7.46537,16.2174c3.55387,7.59573 22.67319,15.42309 22.07201,18.08962c-0.38536,1.70922 60.80457,6.53956 58.52189,9.93399c-0.20011,0.29754 13.24116,-4.59624 20.48717,-13.51687c4.5121,-5.55486 3.48998,-16.98965 4.84555,-16.50987c2.41402,0.85442 11.75215,-14.57028 16.55601,-15.31717c3.15091,-0.48989 3.08025,12.13615 2.27438,16.0039c-0.81234,3.89869 -18.60075,18.71612 -21.71911,24.5938c-4.29446,8.09449 -2.4212,14.35754 -4.58717,14.50292c-19.11027,1.28257 -83.60415,-5.05496 -86.20507,-7.24241c-8.57665,-7.21319 -18.09207,-36.72761 -21.37633,-37.46807c-6.13733,-1.38371 -9.60942,-9.17258 -7.75518,-17.39695z" fill="#840000" stroke="#000000" stroke-linecap="butt"/><path d="M81.63138,155.56329c0.37394,-1.65859 5.07209,24.5594 15.97842,39.85351c8.94258,12.5403 21.45257,25.8395 27.10622,27.11417c12.54883,2.82924 70.53428,6.02987 69.85372,9.04842c-0.68055,3.01854 -56.16339,0.41971 -68.71221,-2.40952c-3.36465,-0.75858 -9.87385,0.11018 -17.65065,-7.55798c-6.30856,-6.22041 -10.83768,-16.94334 -16.47763,-26.20041c-3.00496,-4.93214 -8.09049,-9.16062 -10.01814,-12.70724c-6.62848,-12.19553 -4.09012,-26.78108 -3.81892,-27.98396z" fill="#430000" stroke="none" stroke-linecap="butt"/><path d="M79.27429,170.15c0.75484,-3.34807 -5.50127,-19.4023 -3.54871,-21.57572c2.84379,-3.16544 14.11648,8.89192 17.7553,9.71232c1.53803,0.34676 -5.12357,5.0056 -3.97607,9.54232c0.90622,3.58267 -3.14484,7.05129 -2.13344,12.28698c1.16146,6.01253 7.46914,13.89431 9.96025,19.21862c3.55389,7.59575 15.42139,10.14152 14.82021,12.80802c-0.20222,0.89696 18.15477,2.91418 35.31784,5.11943c15.54241,1.99701 30.10577,4.14824 29.02098,5.76134c-0.20011,0.29757 13.24116,-4.59624 20.48716,-13.51685c4.51209,-5.55482 3.48997,-16.98962 4.84554,-16.50983c2.13042,0.75406 10.54215,-16.74773 15.80825,-17.99051c4.61477,-1.08906 6.3622,13.73418 5.412,18.29461c-0.81234,3.89869 -20.99062,19.09875 -24.109,24.97644c-4.29446,8.09449 -2.4212,14.35754 -4.58717,14.50292c-19.11027,1.28254 -83.60415,-5.05496 -86.20506,-7.24244c-8.57662,-7.2132 -18.09205,-36.7276 -21.37633,-37.46807c-6.13733,-1.38371 -9.60942,-9.17258 -7.75518,-17.39695z" fill="none" stroke="#000000" stroke-linecap="butt"/><path d="M102.03782,200.75451l5.09491,-23.44923" fill="none" stroke="#000000" stroke-linecap="round"/><path d="M137.92546,195.61842l-3.99959,18.59098" fill="none" stroke="#000000" stroke-linecap="round"/><path d="M169.69686,200.22891l-3.91657,19.07379" fill="none" stroke="#000000" stroke-linecap="round"/><path d="M190.37955,197.0021l-2.15708,18.07813" fill="none" stroke="#000000" stroke-linecap="round"/><path d="M118.85844,1.70306c12.55106,2.82973 8.55699,16.04165 13.89421,25.97343c3.90977,7.27554 19.30087,10.30771 17.41855,18.65657c-4.45184,19.74579 -25.68889,31.77856 -47.43427,26.87591c-21.74538,-4.90265 -35.76458,-24.88417 -31.31273,-44.63c4.45185,-19.74582 25.68887,-31.77856 47.43425,-26.87591z" fill="#840000" stroke="#000000" stroke-linecap="butt"/><path d="M86.08445,22.88415c-7.85773,15.32036 -2.46869,35.26665 7.04987,37.41267c19.35514,4.36375 56.88889,-19.26325 53.3766,-3.68471c-3.51229,15.57853 -22.05001,24.66991 -41.40516,20.30616c-13.10294,-2.95416 -32.69094,-19.36448 -35.96995,-38.15416c-0.8783,-5.03281 9.08202,-26.37081 21.61634,-33.99586c9.7948,-5.9585 22.68204,1.34601 23.17971,-0.86142c1.78501,-7.91725 -19.72711,3.14507 -27.84739,18.97731z" fill="#430000" stroke="none" stroke-linecap="butt"/><path d="M118.9546,2.43495c12.35044,2.78449 8.23738,15.79189 13.63471,25.49877c4.10572,7.38398 19.60142,10.60021 17.67803,19.13121c-4.45185,19.74582 -25.68889,31.77856 -47.43427,26.87591c-21.7454,-4.90265 -35.76459,-24.88421 -31.31275,-44.63c4.45185,-19.74582 25.68889,-31.77856 47.43427,-26.87591z" fill="none" stroke="#000000" stroke-linecap="butt"/><path d="M80.87591,164.90394l3.08063,-13.6639c0,0 89.5179,-3.88506 112.1839,1.22517c20.67225,4.66071 18.38236,28.21195 18.38236,28.21195l-3.08063,13.6639c0,0 -45.72133,-3.74434 -67.63785,-8.68558c-21.60104,-4.87011 -62.92844,-20.75155 -62.92844,-20.75155z" fill="#ffffff" stroke="#000000" stroke-linecap="butt"/><path d="M156.67611,139.88542c38.1391,8.59875 67.07786,24.34761 64.63652,35.17603c-0.62381,2.76689 -3.70025,3.21106 -5.9309,5.43066c-1.35961,1.3529 -0.51903,5.16568 -4.09187,5.34007c-5.82944,0.28454 -4.46575,-14.6388 -13.85167,-16.34584c-12.36013,-2.248 -36.24867,8.24724 -49.01116,5.36984c-14.95259,-3.37117 -46.3343,-6.08642 -57.2326,-10.13534c-16.8997,-6.27859 -9.47997,-14.21509 -7.99576,-20.7982c2.44135,-10.82841 35.33829,-12.63598 73.47743,-4.03723z" fill="#e2e2e2" stroke="none" stroke-linecap="butt"/><path d="M80.87589,164.90391l3.08063,-13.6639c0,0 89.70092,-1.65581 113.79663,3.77675c15.37374,3.46611 16.76964,25.66037 16.76964,25.66037l-3.08063,13.6639c0,0 -46.86031,-3.27178 -68.48832,-8.14798c-21.89091,-4.93547 -62.07794,-21.28914 -62.07794,-21.28914z" fill="none" stroke="#000000" stroke-linecap="butt"/><path d="M180.19001,41.28417c43.60127,9.83023 71.46848,50.96987 62.2432,91.88796c-4.68827,20.79446 -5.26045,42.32483 -22.07177,47.64906c-7.64609,2.42155 -11.04432,-16.9489 -22.96463,-19.2618c-13.44319,-2.60841 -35.61202,11.50196 -46.9774,8.93955c-20.16891,-4.54723 -59.70659,-7.75262 -71.8645,-18.21656c-14.12515,-12.15711 1.02628,-32.71827 5.98417,-54.70864c9.22528,-40.91809 52.04966,-66.11979 95.6509,-56.28958z" fill="#840000" stroke="#000000" stroke-linecap="butt"/><path d="M189.74278,98.4503c22.47142,5.06635 14.25355,22.90701 11.98504,32.96883c-2.26852,10.06181 -22.32418,14.11147 -44.7956,9.04512c-22.47142,-5.06635 -80.30464,-7.53201 -78.03612,-17.59381c0.71482,-3.17051 4.29803,-40.7198 23.91607,-63.7069c9.06874,-10.62614 36.63605,-15.99682 41.87937,-17.26866c7.91943,-1.92096 -38.81203,22.23776 -51.22903,48.12357c-6.91278,14.41109 17.67463,32.52031 18.20624,39.3772c0.65248,8.41619 19.75029,-17.32475 35.03725,-26.70857c4.71986,-2.89726 5.05824,-13.711 6.10127,-13.47584c0,0 9.02663,11.98542 15.03679,13.48878c6.28904,1.57313 21.89873,-4.24976 21.89873,-4.24976z" fill="#430000" stroke="none" stroke-linecap="butt"/><path d="M180.32692,40.67689c43.60127,9.83023 71.46848,50.96987 62.2432,91.88796c-4.68827,20.79446 -5.26045,42.32483 -22.07177,47.64906c-6.74071,2.13482 -8.48215,-18.21148 -18.80034,-19.96263c-14.58518,-2.47533 -38.583,12.47183 -51.14167,9.64038c-20.16891,-4.54723 -59.70659,-7.75262 -71.8645,-18.21656c-14.12515,-12.15711 1.02628,-32.71827 5.98417,-54.70864c9.22528,-40.91809 52.04966,-66.11979 95.6509,-56.28958z" fill="none" stroke="#000000" stroke-linecap="butt"/><path d="M110.08104,72.8631c4.4663,1.00695 16.81855,24.96376 25.8173,24.06278c8.98243,-0.89932 15.22563,-15.79834 20.23297,-13.07353c8.99998,4.89745 2.13451,22.39213 0.90029,27.86632c-2.60878,11.5711 3.33085,25.95805 -13.60655,22.13937c-16.93743,-3.81868 -56.13045,-7.19635 -53.52167,-18.76748c2.60878,-11.5711 3.24024,-46.04615 20.17766,-42.22747z" fill="#000000" stroke="#000000" stroke-linecap="butt"/><path d="M227.84723,148.10547c-2.60878,11.5711 -39.4595,-2.19581 -56.39692,-6.01447c-16.93743,-3.81868 -5.39892,-14.26502 -2.79014,-25.83614c1.76212,-7.81577 4.53987,-16.25475 20.12627,-14.44602c7.48899,0.86905 28.87857,-1.24415 34.37552,-0.00481c16.93743,3.81868 7.29404,34.73031 4.68526,46.30144z" data-paper-data="{&quot;index&quot;:null}" fill="#000000" stroke="#000000" stroke-linecap="butt"/><path d="M87.49493,122.75676c14.01319,-1.02928 43.51543,8.67247 66.47818,13.8496c24.64178,5.55567 54.36972,8.97785 66.2527,16.37972c7.20198,4.48606 1.00309,19.30948 0.20409,22.8533c-1.20134,5.32849 -3.80675,-13.46584 -20.29433,-15.68444c-12.57053,-1.69149 -36.709,14.3194 -53.82981,10.45939c-17.55044,-3.95688 -47.94185,-9.19128 -59.84033,-14.48558c-14.93281,-6.64445 -9.16398,-13.44803 -7.98561,-18.67458c0.88881,-3.94226 -1.12356,-13.95272 9.01512,-14.6974z" fill="#7d3c3c" stroke="#000000" stroke-linecap="butt"/><path d="M111.00413,125.34787c6.62886,1.49452 -8.54342,0.28356 -17.24409,4.07671c-8.57386,3.7379 -10.68988,12.46661 -2.75908,15.78498c21.60048,9.038 84.822,6.16677 116.0508,12.17465c16.90372,3.25201 14.06952,17.33928 13.7914,18.57288c-0.5951,2.63953 -5.85873,-13.54382 -19.90597,-14.91471c-13.61921,-1.32916 -35.72032,12.26475 -55.69774,7.7607c-40.58269,-9.14966 -72.53133,-20.78123 -71.35927,-25.97986c1.17207,-5.19864 -3.45874,-26.62504 37.12396,-17.47537z" fill="#5c2c2c" stroke="none" stroke-linecap="butt"/><path d="M88.98334,121.81602c14.01319,-1.02928 43.51543,8.67247 66.47818,13.8496c24.64178,5.55567 54.36972,8.97785 66.2527,16.37972c7.20198,4.48606 1.00309,19.30948 0.20409,22.8533c-1.2718,5.64102 -3.54749,-12.34195 -21.67321,-15.01695c-12.04952,-1.77826 -36.6473,13.35496 -52.45093,9.79192c-17.55044,-3.95688 -47.94185,-9.19128 -59.84033,-14.48558c-14.93281,-6.64445 -9.16398,-13.44803 -7.98561,-18.67458c0.88881,-3.94226 -1.12356,-13.95272 9.01512,-14.6974z" fill="none" stroke="#000000" stroke-linecap="butt"/><path d="M141.06337,111.47442c1.21456,0.27384 0.94075,1.48841 0.94075,1.48841c-0.45639,2.0243 -1.18661,5.26312 -1.64301,7.28741c0,0 -0.27384,1.21456 -1.48841,0.94075c-1.21456,-0.27384 -0.94075,-1.48841 -0.94075,-1.48841c0.45639,-2.0243 0.91276,-4.04856 1.36917,-6.07286l0.27384,-1.21456c0,0 0.27384,-1.21456 1.48841,-0.94075z" fill="#ffffff" stroke="none" stroke-linecap="butt"/><path d="M183.51369,118.49255c1.21456,0.27384 0.94075,1.48841 0.94075,1.48841l-0.13691,0.60729c-0.77823,3.4518 -2.24001,6.86787 -2.93488,10.18691c0,0 -0.27384,1.21456 -1.48841,0.94075c-1.21456,-0.27384 -0.94075,-1.48841 -0.94075,-1.48841c0.80063,-3.37559 2.14364,-6.67748 2.93488,-10.18691l0.13691,-0.60729c0,0 0.27384,-1.21456 1.48841,-0.94075z" fill="#ffffff" stroke="none" stroke-linecap="butt"/><path d="M158.50349,133.50782c12.66114,2.85454 22.00553,9.24695 20.87124,14.27788c-1.13426,5.03092 -12.31762,6.79521 -24.97876,3.94065c-12.66114,-2.85454 -22.00553,-9.24695 -20.87124,-14.27788c1.13426,-5.03092 12.31762,-6.79521 24.97876,-3.94065z" fill="#000000" stroke="#000000" stroke-linecap="butt"/><path d="M194.81684,37.71869c2.58732,-3.19079 13.14769,-9.4322 19.7381,-20.70154c11.80276,-20.18219 21.99791,-48.71449 29.96615,-49.43861c7.56254,-0.68723 7.70895,13.1767 15.64649,22.22156c9.69886,11.05192 26.85902,18.05863 31.43541,21.7695c2.87182,2.32868 25.24603,0.82639 24.97291,4.64822c-0.54342,7.60413 -18.58502,16.99764 -31.24164,28.36318c-13.03686,11.70699 -20.78944,25.39919 -27.70027,33.92186c-16.99222,20.95532 -30.53176,8.80329 -45.00316,-2.93124c-14.47139,-11.73452 -34.80619,-16.89766 -17.81396,-37.85297z" fill="#410000" stroke="#000000" stroke-linecap="butt"/><path d="M213.20935,21.33018c5.25767,-6.48393 21.83445,-64.92791 36.68171,-52.88859c9.10296,7.38143 -24.8976,35.03542 -22.5666,60.31166c1.47094,15.95015 41.6857,33.66663 39.65154,36.17519c-5.2577,6.48392 -21.55595,1.98039 -36.40321,-10.05894c-14.84725,-12.03933 -22.62114,-27.05541 -17.36346,-33.53934z" fill="#170000" stroke="none" stroke-linecap="butt"/><path d="M194.78995,37.46074c2.5873,-3.19079 13.14765,-9.43218 19.73808,-20.70154c11.80276,-20.18219 21.99791,-48.71449 29.96615,-49.43861c7.46067,-0.678 6.73315,13.44722 14.58129,22.32742c9.82762,11.12002 27.87382,17.91187 32.5006,21.66366c2.87182,2.32868 25.246,0.82638 24.97287,4.6482c-0.54339,7.60413 -18.585,16.99764 -31.24164,28.36318c-13.03688,11.70701 -20.78944,25.39919 -27.70027,33.92186c-16.99222,20.95532 -30.53176,8.80329 -45.00316,-2.93124c-14.47139,-11.73455 -34.80619,-16.89766 -17.81396,-37.85297z" fill="none" stroke="#000000" stroke-linecap="butt"/><path d="M262.47254,98.15701c-4.41971,5.45051 -5.51231,17.74886 -18.81471,11.64959c-7.92904,-3.63556 -26.67332,-22.42629 -35.17442,-29.31966c-9.69916,-7.86483 -28.7316,-21.93889 -34.03435,-29.79013c-7.14246,-10.57508 1.54197,-14.39042 5.59039,-19.38307c3.67153,-4.52785 10.76004,-11.63727 21.09374,-8.02048c9.52049,3.33218 21.97994,16.83946 32.89539,25.69057c9.93007,8.05208 32.38385,21.52151 37.68686,29.52676c6.85339,10.34565 -5.26604,14.74199 -9.24289,19.6464z" data-paper-data="{&quot;index&quot;:null}" fill="#410000" stroke="#000000" stroke-linecap="butt"/><path d="M204.74991,26.88014c6.74971,2.20036 42.49308,29.62365 57.06207,43.73086c11.84095,11.46567 9.33468,12.73564 12.61092,15.39229c1.44742,1.17368 -1.18916,14.06147 -6.78924,9.43005c-7.4426,-6.15522 -2.20013,-12.6243 -13.25823,-24.19378c-12.11776,-12.67815 -45.66507,-34.45807 -53.64141,-36.56114c-5.06718,-1.33602 -9.52597,-0.20346 -12.924,1.79963c-4.40357,2.59587 -7.02569,6.65374 -6.88157,8.69554c0.76452,10.83188 75.12183,61.0527 72.43584,64.36517c-5.1815,6.38996 -37.67609,-19.83382 -55.43641,-34.23529c-17.76031,-14.40149 -27.95747,-31.25626 -22.77602,-37.64622c3.04964,-3.76089 12.0951,-16.48291 29.59801,-10.77711z" fill="#170000" stroke="none" stroke-linecap="butt"/><path d="M262.53029,98.7098c-4.41971,5.45051 -5.51229,17.74884 -18.81471,11.64959c-7.92906,-3.63552 -26.67332,-22.42629 -35.17445,-29.31967c-9.69916,-7.86483 -28.73157,-21.93888 -34.03435,-29.79013c-7.14246,-10.57508 1.54197,-14.39042 5.59039,-19.38307c3.67151,-4.52782 10.76005,-11.63726 21.09374,-8.02048c9.52049,3.33216 21.97994,16.83946 32.89539,25.69057c9.93007,8.05208 32.38385,21.52151 37.68686,29.52679c6.85339,10.34565 -5.26604,14.74199 -9.24289,19.6464z" data-paper-data="{&quot;index&quot;:null}" fill="none" stroke="#000000" stroke-linecap="butt"/><path d="M111.65305,163.28328l-2.50362,11.10465" fill="none" stroke="#000000" stroke-linecap="round"/><path d="M146.8585,170.49133l-3.12953,13.88082" fill="none" stroke="#000000" stroke-linecap="round"/><path d="M185.19357,163.81855l-5.21799,27.99633" fill="none" stroke="#000000" stroke-linecap="round"/><path d="M124.89476,87.00841l9.41847,-10.6396l-19.26084,-16.46741l11.08573,-3.88218l1.17263,-8.03162" fill="none" stroke="#000000" stroke-linecap="round"/><path d="M151.33347,165.664l1.78413,-9.41488" fill="none" stroke="#000000" stroke-linecap="round"/></g><g stroke-linecap="butt"><path d="M-89.07208,602.91952c0,-24.10606 36.22085,-43.64791 80.90154,-43.64791c44.68069,0 80.90152,19.54181 80.90152,43.64791c0,12.02413 -0.67143,26.2488 -15.2499,34.14298c-14.64854,7.93213 -43.25771,9.50493 -65.65164,9.50493c-23.99475,0 -62.23045,-0.07562 -77.04602,-9.02758c-12.77253,-7.71751 -3.85552,-23.45987 -3.85552,-34.62033z" fill="#840000" stroke="#000000"/><path d="M-90.70109,626.03367c0,-4.19116 16.0552,5.69078 47.24926,7.96029c33.45357,2.43389 82.81614,-2.8023 102.25122,-10.16823c8.71071,-3.30137 6.30252,-18.39401 -3.34327,-30.92184c-10.51983,-13.66305 -28.48965,-24.69676 -20.77374,-24.69676c45.29485,0 38.64368,44.929 38.64368,57.82651c0,12.89751 -36.71873,23.35302 -82.01357,23.35302c-45.29485,0 -82.0136,-10.45551 -82.0136,-23.35302z" fill="#430000" stroke="none"/><path d="M-132.70859,613.19756c0,-24.10608 16.26437,-43.64791 36.32743,-43.64791c20.06309,0 36.32743,19.54181 36.32743,43.64791c0,12.02413 -0.3015,26.2488 -6.84768,34.14298c-6.57768,7.93213 -19.42415,9.50493 -29.47975,9.50493c-10.77442,0 -27.9435,-0.07562 -34.59618,-9.02758c-5.7353,-7.71751 -1.73128,-23.4599 -1.73128,-34.62033z" fill="#840000" stroke="#000000"/><path d="M-6.4634,560.42279c44.68069,0 80.90154,19.54183 80.90154,43.64791c0,12.02413 -0.67146,26.2488 -15.2499,34.14298c-14.64854,7.93213 -43.25771,9.50493 -65.65164,9.50493c-23.99475,0 -62.23043,-0.0756 -77.04602,-9.02755c-12.77253,-7.71751 -3.85552,-23.45992 -3.85552,-34.62036c0,-24.10608 36.22085,-43.64791 80.90154,-43.64791z" fill="none" stroke="#000000"/><path d="M-133.44004,636.31164c0,-4.19116 7.20932,5.69075 21.21648,7.96027c15.02175,2.43389 37.18714,-2.80227 45.91414,-10.16818c3.91139,-3.30137 2.83004,-18.39401 -1.50124,-30.92184c-4.72374,-13.66305 -12.79278,-24.69676 -9.32809,-24.69676c20.33887,0 17.35227,44.92903 17.35227,57.82654c0,12.89754 -16.48791,23.35302 -36.82677,23.35302c-20.33887,0 -36.82677,-10.45551 -36.82677,-23.35302z" fill="#430000" stroke="none"/><path d="M-131.94204,614.34867c0,-24.10608 16.26434,-43.64791 36.32743,-43.64791c20.06309,0 36.32743,19.54186 36.32743,43.64791c0,12.02413 -0.3015,26.2488 -6.84768,34.14298c-6.57768,7.93215 -19.42412,9.50491 -29.47972,9.50491c-10.77442,0 -27.9435,-0.0756 -34.59618,-9.02755c-5.7353,-7.71751 -1.73125,-23.4599 -1.73125,-34.62033z" fill="none" stroke="#000000"/><path d="M-30.15682,611.72551c0,-24.10608 16.26437,-43.64791 36.32743,-43.64791c20.06309,0 36.32743,19.54181 36.32743,43.64791c0,12.02413 -0.3015,26.2488 -6.84768,34.14298c-6.57768,7.93213 -19.42415,9.50493 -29.47975,9.50493c-10.77442,0 -27.9435,-0.07562 -34.59618,-9.02758c-5.7353,-7.71751 -1.73128,-23.4599 -1.73128,-34.62033z" fill="#840000" stroke="#000000"/><path d="M-30.88826,634.83961c0,-4.19116 7.20932,5.69075 21.21648,7.96027c15.02175,2.43389 37.18714,-2.80227 45.91414,-10.16818c3.91139,-3.30137 2.83004,-18.39401 -1.50124,-30.92184c-4.72374,-13.66305 -12.79278,-24.69676 -9.32809,-24.69676c20.33887,0 17.35227,44.92903 17.35227,57.82654c0,12.89754 -16.48791,23.35302 -36.82677,23.35302c-20.33887,0 -36.82677,-10.45551 -36.82677,-23.35302z" fill="#430000" stroke="none"/><path d="M-29.39026,612.87661c0,-24.10608 16.26434,-43.64791 36.32743,-43.64791c20.06309,0 36.32743,19.54186 36.32743,43.64791c0,12.02413 -0.3015,26.2488 -6.84768,34.14298c-6.57768,7.93215 -19.42412,9.50491 -29.47972,9.50491c-10.77442,0 -27.9435,-0.0756 -34.59618,-9.02755c-5.7353,-7.71751 -1.73125,-23.4599 -1.73125,-34.62033z" fill="none" stroke="#000000"/><path d="M-87.07551,611.23483c0,-24.10608 16.26437,-43.64791 36.32743,-43.64791c20.06309,0 36.32743,19.54181 36.32743,43.64791c0,12.02413 -0.3015,26.2488 -6.84768,34.14298c-6.57768,7.93213 -19.42415,9.50493 -29.47975,9.50493c-10.77442,0 -27.9435,-0.07562 -34.59618,-9.02758c-5.7353,-7.71751 -1.73128,-23.4599 -1.73128,-34.62033z" fill="#840000" stroke="#000000"/><path d="M-87.80696,634.34893c0,-4.19116 7.20932,5.69075 21.21648,7.96027c15.02175,2.43389 37.18714,-2.80227 45.91414,-10.16818c3.91139,-3.30137 2.83004,-18.39401 -1.50124,-30.92184c-4.72374,-13.66305 -12.79278,-24.69676 -9.32809,-24.69676c20.33887,0 17.35227,44.92903 17.35227,57.82654c0,12.89754 -16.48791,23.35302 -36.82677,23.35302c-20.33887,0 -36.82677,-10.45551 -36.82677,-23.35302z" fill="#430000" stroke="none"/><path d="M-86.30896,612.38596c0,-24.10608 16.26434,-43.64791 36.32743,-43.64791c20.06309,0 36.32743,19.54186 36.32743,43.64791c0,12.02413 -0.3015,26.2488 -6.84768,34.14298c-6.57768,7.93215 -19.42412,9.50491 -29.47972,9.50491c-10.77442,0 -27.9435,-0.0756 -34.59618,-9.02755c-5.7353,-7.71751 -1.73125,-23.4599 -1.73125,-34.62033z" fill="none" stroke="#000000"/></g><g data-paper-data="{&quot;index&quot;:null}" stroke-linecap="butt"><path d="M262.26771,607.27722c0,11.16046 8.91702,26.90283 -3.85552,34.62033c-14.81557,8.95195 -53.05127,9.02758 -77.04602,9.02758c-22.39393,0 -51.00311,-1.5728 -65.65164,-9.50493c-14.57846,-7.89418 -15.2499,-22.11885 -15.2499,-34.14298c0,-24.10611 36.22083,-43.64791 80.90152,-43.64791c44.68069,0 80.90154,19.54186 80.90154,43.64791z" fill="#840000" stroke="#000000"/><path d="M263.89671,630.39134c0,12.89751 -36.71875,23.35302 -82.0136,23.35302c-45.29485,0 -82.01357,-10.45551 -82.01357,-23.35302c0,-12.89751 -6.65117,-57.82651 38.64368,-57.82651c7.71591,0 -10.25391,11.03371 -20.77374,24.69676c-9.6458,12.52783 -12.05399,27.62048 -3.34327,30.92184c19.43508,7.36593 68.79765,12.60211 102.25122,10.16823c31.19406,-2.26951 47.24926,-12.15145 47.24926,-7.96029z" fill="#430000" stroke="none"/><path d="M305.90421,617.55526c0,11.16044 4.00403,26.90283 -1.73128,34.62033c-6.65268,8.95195 -23.82176,9.02758 -34.59618,9.02758c-10.0556,0 -22.90206,-1.5728 -29.47975,-9.50493c-6.54618,-7.89418 -6.84768,-22.11885 -6.84768,-34.14298c0,-24.10611 16.26434,-43.64791 36.32743,-43.64791c20.06306,0 36.32743,19.54183 36.32743,43.64791z" fill="#840000" stroke="#000000"/><path d="M260.56053,608.4284c0,11.16044 8.91702,26.90285 -3.85552,34.62036c-14.8156,8.95195 -53.05127,9.02755 -77.04602,9.02755c-22.39393,0 -51.00311,-1.5728 -65.65164,-9.50493c-14.57844,-7.89418 -15.2499,-22.11885 -15.2499,-34.14298c0,-24.10608 36.22085,-43.64791 80.90154,-43.64791c44.68069,0 80.90154,19.54183 80.90154,43.64791z" fill="none" stroke="#000000"/><path d="M306.63561,640.66936c0,12.89751 -16.48791,23.35302 -36.82677,23.35302c-20.33887,0 -36.82677,-10.45548 -36.82677,-23.35302c0,-12.89751 -2.98659,-57.82654 17.35227,-57.82654c3.46469,0 -4.60434,11.03371 -9.32809,24.69676c-4.33128,12.52783 -5.41263,27.62048 -1.50124,30.92184c8.727,7.3659 30.89239,12.60206 45.91414,10.16818c14.00716,-2.26951 21.21648,-12.15143 21.21648,-7.96027z" fill="#430000" stroke="none"/><path d="M305.13761,618.70637c0,11.16044 4.00405,26.90283 -1.73125,34.62033c-6.65268,8.95195 -23.82176,9.02755 -34.59618,9.02755c-10.0556,0 -22.90204,-1.57276 -29.47972,-9.50491c-6.54618,-7.89418 -6.84768,-22.11885 -6.84768,-34.14298c0,-24.10606 16.26434,-43.64791 36.32743,-43.64791c20.06309,0 36.32743,19.54183 36.32743,43.64791z" fill="none" stroke="#000000"/><path d="M203.35244,616.08321c0,11.16044 4.00403,26.90283 -1.73128,34.62033c-6.65268,8.95195 -23.82176,9.02758 -34.59618,9.02758c-10.0556,0 -22.90206,-1.5728 -29.47975,-9.50493c-6.54618,-7.89418 -6.84768,-22.11885 -6.84768,-34.14298c0,-24.10611 16.26434,-43.64791 36.32743,-43.64791c20.06306,0 36.32743,19.54183 36.32743,43.64791z" fill="#840000" stroke="#000000"/><path d="M204.08384,639.19733c0,12.89751 -16.48791,23.35302 -36.82677,23.35302c-20.33887,0 -36.82677,-10.45548 -36.82677,-23.35302c0,-12.89751 -2.98659,-57.82654 17.35227,-57.82654c3.46469,0 -4.60434,11.03371 -9.32809,24.69676c-4.33128,12.52783 -5.41263,27.62048 -1.50124,30.92184c8.727,7.3659 30.89239,12.60206 45.91414,10.16818c14.00716,-2.26951 21.21648,-12.15143 21.21648,-7.96027z" fill="#430000" stroke="none"/><path d="M202.58583,617.23431c0,11.16044 4.00405,26.90283 -1.73125,34.62033c-6.65268,8.95195 -23.82176,9.02755 -34.59618,9.02755c-10.0556,0 -22.90204,-1.57276 -29.47972,-9.50491c-6.54618,-7.89418 -6.84768,-22.11885 -6.84768,-34.14298c0,-24.10606 16.26434,-43.64791 36.32743,-43.64791c20.06309,0 36.32743,19.54183 36.32743,43.64791z" fill="none" stroke="#000000"/><path d="M260.27113,615.59253c0,11.16044 4.00403,26.90283 -1.73128,34.62033c-6.65268,8.95195 -23.82176,9.02758 -34.59618,9.02758c-10.0556,0 -22.90206,-1.5728 -29.47975,-9.50493c-6.54618,-7.89418 -6.84768,-22.11885 -6.84768,-34.14298c0,-24.10611 16.26434,-43.64791 36.32743,-43.64791c20.06306,0 36.32743,19.54183 36.32743,43.64791z" fill="#840000" stroke="#000000"/><path d="M261.00253,638.70665c0,12.89751 -16.48791,23.35302 -36.82677,23.35302c-20.33887,0 -36.82677,-10.45548 -36.82677,-23.35302c0,-12.89751 -2.98659,-57.82654 17.35227,-57.82654c3.46469,0 -4.60434,11.03371 -9.32809,24.69676c-4.33128,12.52783 -5.41263,27.62048 -1.50124,30.92184c8.727,7.3659 30.89239,12.60206 45.91414,10.16818c14.00716,-2.26951 21.21648,-12.15143 21.21648,-7.96027z" fill="#430000" stroke="none"/><path d="M259.50453,616.74366c0,11.16044 4.00405,26.90283 -1.73125,34.62033c-6.65268,8.95195 -23.82176,9.02755 -34.59618,9.02755c-10.0556,0 -22.90204,-1.57276 -29.47972,-9.50491c-6.54618,-7.89418 -6.84768,-22.11885 -6.84768,-34.14298c0,-24.10606 16.26434,-43.64791 36.32743,-43.64791c20.06309,0 36.32743,19.54183 36.32743,43.64791z" fill="none" stroke="#000000"/></g></g></g></svg>