<svg version="1.1" xmlns="http://www.w3.org/2000/svg" xmlns:xlink="http://www.w3.org/1999/xlink" width="359.20698" height="549.33466" viewBox="0,0,359.20698,549.33466"><defs><linearGradient x1="291.77192" y1="203.72892" x2="335.75781" y2="291.90458" gradientUnits="userSpaceOnUse" id="color-1"><stop offset="0" stop-color="#0080b4" stop-opacity="0"/><stop offset="1" stop-color="#0080b4"/></linearGradient></defs><g transform="translate(-226.55793,-8.62306)"><g data-paper-data="{&quot;isPaintingLayer&quot;:true}" fill-rule="nonzero" stroke-width="5" stroke-linejoin="miter" stroke-miterlimit="10" stroke-dasharray="" stroke-dashoffset="0" style="mix-blend-mode: normal"><g data-paper-data="{&quot;index&quot;:null}"><path d="M566.20107,426.40235c16.31048,26.58466 4.53129,54.70342 -10.1298,63.69843c-6.04962,3.71162 -18.73189,7.74059 -32.30178,0.739c-19.31633,-9.96659 -40.76948,-34.78291 -50.34973,-50.39789c-16.31048,-26.58466 -28.19558,-33.16483 -13.53449,-42.15984c14.66109,-8.99501 90.00534,1.53566 106.31582,28.12032z" fill="#ffffff" stroke="#000000" stroke-linecap="butt"/><path d="M570.97856,424.22816c7.85945,12.81022 20.51026,49.594 3.55838,59.99449c-7.76533,4.76426 -34.25025,19.08599 -49.44016,15.37815c-17.97002,-4.38647 -24.55227,-27.88678 -28.81146,-34.82889c-7.36665,-12.00699 29.71577,33.52096 44.45779,22.83659c0.3082,-0.22335 44.84295,-16.04423 25.68511,-38.70377c-3.61951,-4.28108 -15.43758,-15.29875 -18.40568,-17.74169c-18.04027,-14.84843 -81.64728,-34.20619 -81.01979,-34.59118c16.95187,-10.40047 96.11638,14.8461 103.97583,27.65632z" fill="#c7c7c7" stroke="none" stroke-linecap="butt"/><path d="M567.55418,424.8856c8.02853,13.0858 21.36481,32.98062 13.11214,47.47862c-8.51316,14.95563 -38.86447,24.38335 -46.30893,28.95075c-14.66109,8.99501 -45.59686,-34.38005 -61.90734,-60.96471c-16.31048,-26.58466 -28.19558,-33.16483 -13.53449,-42.15984c14.66109,-8.99501 92.32813,0.11055 108.63861,26.69521z" fill="none" stroke="#000000" stroke-linecap="butt"/><path d="M546.61322,412.05894l-21.17006,13.88307l-48.43427,17.08874" fill="none" stroke="#000000" stroke-linecap="round"/></g><g data-paper-data="{&quot;index&quot;:null}"><path d="M429.2738,414.22031c14.66109,-8.99501 15.14272,4.58152 31.4532,31.16618c9.58027,15.615 21.98442,45.98314 22.11832,67.71873c0.09406,15.26941 -9.24339,24.7502 -15.29301,28.46182c-14.66109,8.99501 -45.06511,6.75691 -61.37559,-19.82775c-16.31048,-26.58466 8.436,-98.52397 23.09709,-107.51898z" fill="#ffffff" stroke="#000000" stroke-linecap="butt"/><path d="M424.52464,419.79065c0.62749,-0.38498 -10.93222,65.08982 -5.86813,87.89949c0.83317,3.75279 5.30116,19.27998 7.47788,24.44622c11.52129,27.34479 45.80171,-5.18977 46.14046,-5.36332c16.2038,-8.30178 -7.58374,-61.98657 -0.21709,-49.97958c4.25919,6.94211 22.22734,23.45686 17.99656,41.46415c-3.57624,15.22143 -28.34277,32.34399 -36.1081,37.10825c-16.95189,10.40049 -44.01274,-17.5423 -51.8722,-30.35252c-7.85945,-12.81022 5.49874,-94.82223 22.45061,-105.2227z" fill="#c7c7c7" stroke="none" stroke-linecap="butt"/><path d="M429.63142,413.31432c14.66109,-8.99501 15.14272,4.58152 31.4532,31.16618c16.31048,26.58466 40.96344,73.81441 26.30236,82.80942c-7.44444,4.56738 -29.59969,27.35402 -46.78929,28.1678c-16.66362,0.78888 -28.35764,-20.11351 -36.38616,-33.19931c-16.31048,-26.58466 10.75879,-99.94907 25.41988,-108.94408z" fill="none" stroke="#000000" stroke-linecap="butt"/><path d="M461.40889,449.75906l-37.17735,35.43654l-21.96759,12.58316" fill="none" stroke="#000000" stroke-linecap="round"/></g><g data-paper-data="{&quot;index&quot;:null}"><path d="M560.81458,342.19946c6.6421,31.59391 -38.52329,28.21664 -64.71514,33.72305c-26.19183,5.50641 -52.80901,-15.64168 -59.45112,-47.23558c-6.6421,-31.59391 -19.34621,-41.42983 6.84562,-46.93623c26.19185,-5.50641 110.67854,28.85486 117.32064,60.44877z" fill="#ffffff" stroke="#000000" stroke-linecap="butt"/><path d="M563.58377,336.58431c3.2006,15.224 -18.7551,32.7268 -49.03939,39.09359c-30.28433,6.36679 -57.4292,-0.8134 -60.6298,-16.03741c-2.99992,-14.26944 28.63403,-0.36838 55.97853,-7.59545c0.74933,-0.19805 48.90389,0.07595 37.59691,-13.76013c-16.29527,-19.94016 -94.03508,-56.2332 -92.91406,-56.46888c30.2843,-6.36678 105.80723,39.5443 109.00783,54.76831z" fill="#c7c7c7" stroke="none" stroke-linecap="butt"/><path d="M559.50434,341.85591c6.6421,31.59391 -38.52329,28.21664 -64.71514,33.72305c-26.19183,5.50641 -52.80901,-15.64168 -59.45112,-47.23558c-6.6421,-31.59391 -19.34621,-41.42983 6.84562,-46.93623c26.19185,-5.50641 110.67854,28.85486 117.32064,60.44877z" fill="none" stroke="#000000" stroke-linecap="butt"/><path d="M529.55279,313.0979l-10.67381,14.00514l-70.26438,19.10501" fill="none" stroke="#000000" stroke-linecap="round"/></g><g><path d="M350.38178,332.59089c22.81298,-13.99644 20.34146,1.87905 37.22467,29.39721c16.88321,27.51817 12.07617,61.17242 -10.73681,75.16886c-22.81298,13.99644 -53.30683,47.48444 -70.19004,19.96628c-16.88321,-27.51817 20.8892,-110.53591 43.70218,-124.53235z" fill="#ffffff" stroke="#000000" stroke-linecap="butt"/><path d="M300.80938,454.94638c-8.13543,-13.26005 15.18827,-98.50995 41.56578,-114.69333c0.97638,-0.59904 -30.56677,79.18625 -28.70454,104.87045c1.29215,17.82177 36.09005,-15.46551 36.77055,-15.83651c24.83273,-13.53832 38.2643,-45.37446 45.88963,-32.94583c8.13543,13.26005 -6.65271,37.12868 -33.03021,53.31206c-26.37751,16.18338 -54.35579,18.55323 -62.49123,5.29318z" fill="#c7c7c7" stroke="none" stroke-linecap="butt"/><path d="M351.09766,331.44099c22.81298,-13.99644 20.34146,1.87905 37.22467,29.39721c16.88321,27.51817 12.07617,61.17242 -10.73681,75.16886c-22.81298,13.99644 -53.30683,47.48444 -70.19004,19.96628c-16.88321,-27.51817 20.8892,-110.53591 43.70218,-124.53235z" fill="none" stroke="#000000" stroke-linecap="butt"/><path d="M390.95169,382.94021l-64.17735,34.39989l-17.37822,-2.84104" fill="none" stroke="#000000" stroke-linecap="round"/></g><g><path d="M358.84151,287.11211c18.95857,-15.56511 91.43054,5.98741 121.36345,42.44616c29.93291,36.45876 5.99179,74.0176 -12.96677,89.58272c-18.95854,15.5651 -62.85845,34.96723 -92.79135,-1.49152c-29.93292,-36.45877 -34.56388,-114.97224 -15.60532,-130.53736z" fill="#ffffff" stroke="#000000" stroke-linecap="butt"/><path d="M354.2531,327.8117c5.48034,-4.4994 5.91236,29.44175 18.10552,53.49654c12.8929,25.43521 37.7383,41.24391 50.15083,43.04824c14.90338,2.16641 34.49966,-13.20338 45.82568,-29.89392c15.77861,-23.25207 21.11827,-50.13567 25.15622,-45.21738c11.6335,14.16979 -1.57407,44.24296 -29.49994,67.1703c-27.92587,22.92734 -59.99507,30.02673 -71.62857,15.85695c-11.6335,-14.16979 -66.03561,-81.53336 -38.10974,-104.46071z" fill="#c7c7c7" stroke="none" stroke-linecap="butt"/><path d="M358.84151,287.11211c18.95857,-15.56511 91.43053,5.98739 121.36345,42.44616c29.93292,36.45877 5.99179,74.0176 -12.96677,89.58272c-18.95857,15.56511 -62.85843,34.96725 -92.79135,-1.49152c-29.93292,-36.45877 -34.56388,-114.97224 -15.60532,-130.53736z" fill="none" stroke="#000000" stroke-linecap="butt"/><path d="M472.40656,327.75138l-103.439,78.60921" fill="none" stroke="#000000" stroke-linecap="round"/></g><g><path d="M301.13854,56.21356c13.17547,-14.49353 51.33478,-17.4214 63.30449,-18.88835c21.2525,-2.60459 14.49717,28.9083 17.45448,53.03875c2.95731,24.13048 -11.87387,45.80351 -33.12639,48.4081c-21.2525,2.60459 -40.87845,-14.84557 -43.83575,-38.97602c-1.29172,-10.53985 -14.01473,-32.3424 -3.79683,-43.58249z" fill="#bd0000" stroke="#000000" stroke-linecap="butt"/><path d="M305.29762,98.71275c-1.29172,-10.53985 -14.01473,-32.3424 -3.79683,-43.58249c13.17545,-14.49352 51.33476,-17.42139 63.30447,-18.88835c21.2525,-2.60459 14.49717,28.9083 17.45448,53.03875c2.9573,24.13044 -11.87388,45.80349 -33.1264,48.40808c-21.25252,2.6046 -40.87845,-14.84557 -43.83575,-38.97602z" fill="none" stroke="#000000" stroke-linecap="butt"/><path d="M344.39128,81.85616c11.51405,-1.39217 15.83667,21.27834 17.30915,33.45666c1.4725,12.17831 -0.46276,9.25277 -11.97683,10.64492c-11.51405,1.39217 -15.70722,6.12205 -17.1797,-6.05626c-1.4725,-12.17831 0.33331,-36.65316 11.84737,-38.04532z" fill="#3b3b3b" stroke="#000000" stroke-linecap="butt"/><path d="M318.62394,111.58102c31.93315,-15.92966 68.79659,-6.8393 82.3368,20.30387c13.54021,27.14317 -1.37021,62.06061 -33.30336,77.99027c-31.93315,15.92966 -68.79659,6.8393 -82.3368,-20.30387c-13.54021,-27.14317 1.37019,-62.0606 33.30336,-77.99027z" fill="#f1f1f1" stroke="#000000" stroke-linecap="butt"/><path d="M323.26248,173.352c-6.96922,-13.97075 -51.97386,-10.17732 -33.21314,-19.536c6.04748,-3.01675 21.28317,-15.14894 36.44087,-18.48161c8.06613,-1.77347 35.58229,0.73715 40.94928,-4.65518c1.8828,-1.8917 2.62862,-19.23234 -20.05788,-17.50574c-8.56808,0.65211 -47.20723,23.7417 -51.40857,22.65397c-8.00142,-2.07164 23.03509,-20.02158 22.57042,-21.68468c-1.55342,-5.55993 46.94865,-7.95438 51.96894,-6.93593c8.16075,1.65554 29.88396,30.78421 31.5233,34.07048c6.96922,13.97075 -13.42425,31.06693 -32.18498,40.42561c-18.76073,9.35867 -39.619,5.61984 -46.58822,-8.35092z" fill="#cfcfcf" stroke="none" stroke-linecap="butt"/><path d="M318.62395,111.58098c31.93317,-15.92967 68.79662,-6.8393 82.33684,20.30389c13.54022,27.1432 -1.37023,62.06064 -33.30338,77.9903c-31.93317,15.92967 -68.79662,6.8393 -82.33684,-20.30389c-13.54022,-27.1432 1.37023,-62.06064 33.30338,-77.9903z" fill="none" stroke="#000000" stroke-linecap="butt"/><path d="M233.88478,229.4548c-10.5534,-21.15571 29.2704,-57.92638 69.78558,-78.13713c20.98027,-10.46588 40.64114,-10.25931 60.0259,-10.95556c18.04937,-0.64829 36.38875,-2.94374 41.4772,7.25677c2.68064,5.37372 12.51074,15.12323 25.1205,28.00186c12.22932,12.49011 18.25255,33.33338 18.3399,50.5603c0.17717,34.94041 -46.48802,77.29349 -66.73134,87.39174c-23.59981,11.77262 -92.52885,16.59797 -121.79451,-10.01257c-5.34881,-4.86357 -13.73974,-5.27742 -18.62618,-14.25332c-6.69951,-12.30634 -9.04201,-34.03598 -8.29545,-44.47063c0.84437,-11.80153 4.97269,-15.85998 3.2305,-19.35244z" fill="#ffffff" stroke="none" stroke-linecap="butt"/><path d="M239.68285,284.7721c-6.28394,-12.59699 -17.51159,-41.04411 -7.28471,-56.17928c9.54091,-14.11998 39.62647,-15.01308 59.37378,-24.8639c6.10331,-3.0446 27.41724,-21.23457 42.30508,-28.23458c14.20473,-6.67882 21.81362,-2.07053 35.12356,-9.16852c9.19365,-4.90283 14.58486,-17.86063 20.72585,-18.85255c38.1153,-6.15656 42.89916,32.32471 50.31073,47.18219c12.14637,24.34904 -25.63473,73.26222 -66.5491,93.6721c-32.09306,16.00943 -90.26789,27.64245 -119.0974,16.73709c-7.92427,-2.99752 -12.28897,-15.04282 -14.90778,-20.29257z" fill="url(#color-1)" stroke="none" stroke-linecap="butt"/><path d="M296.02896,326.29444c-2.58857,-5.18913 61.03814,-12.39641 78.4018,-21.05816c6.76402,-3.37419 28.19118,-19.89655 41.83734,-34.54492c21.38431,-22.95484 33.60059,-55.78346 35.18078,-52.61575c1.55623,3.11968 -1.44926,25.11177 -20.83828,51.22939c-12.86171,17.32514 -42.03935,41.51384 -48.96402,44.96818c-17.36366,8.66175 -83.02903,17.2104 -85.6176,12.02128z" fill="#c7c7c7" stroke="none" stroke-linecap="butt"/><path d="M265.13175,208.70351c15.33908,-9.15419 32.77458,-28.35144 53.73252,-38.80616c21.45952,-10.70495 34.49228,-11.2357 45.81769,-15.25583c9.95143,-3.53243 19.32726,-11.56944 21.74868,-6.71539c5.17714,10.37828 -20.75937,13.0635 -61.07499,33.1747c-20.18451,10.06892 -28.94638,19.7176 -44.4989,28.41598c-15.51139,8.67537 -37.83674,16.42067 -40.42188,11.23842c-2.48582,-4.98317 10.52902,-3.59651 24.69688,-12.05171z" fill="#c7c7c7" stroke="none" stroke-linecap="butt"/><path d="M297.88543,153.98215c55.68345,-27.77735 118.49921,-14.86258 140.30294,28.84592c21.80372,43.70851 -5.66122,101.65925 -61.34466,129.4366c-55.68345,27.77735 -118.49921,14.86258 -140.30294,-28.84592c-21.80372,-43.70851 5.66122,-101.65925 61.34466,-129.4366z" fill="none" stroke="#000000" stroke-linecap="butt"/><path d="M446.83907,209.21656l-37.6215,60.28705l-69.38412,34.61185l-76.21599,1.01309" fill="none" stroke="#000000" stroke-linecap="round"/><path d="M391.94826,141.66146l-26.03409,29.23383l-13.72224,-3.986l-59.2656,29.56429l-9.04525,16.24602l-43.71894,13.68549" fill="none" stroke="#000000" stroke-linecap="round"/><path d="M342.60722,227.57468c11.3762,-5.67495 22.11172,-7.24177 23.97847,-3.4996c1.86675,3.74217 -5.84215,11.37624 -17.21835,17.05119c-11.3762,5.67495 -22.11172,7.24177 -23.97847,3.4996c-1.86675,-3.74217 5.84215,-11.37624 17.21835,-17.05119z" fill="#008bb7" stroke="none" stroke-linecap="butt"/><path d="M325.39885,243.35239c-1.07206,-2.14909 -0.19896,-4.76033 1.95013,-5.83239c2.14909,-1.07206 4.76033,-0.19896 5.83239,1.95013c1.07206,2.14909 0.19896,4.76033 -1.95013,5.83239c-2.14909,1.07206 -4.76033,0.19896 -5.83239,-1.95013z" fill="#000000" stroke="none" stroke-linecap="butt"/><path d="M357.5653,228.60226c-1.07206,-2.14909 -0.19896,-4.76033 1.95013,-5.83239c2.14909,-1.07206 4.76033,-0.19896 5.83239,1.95013c1.07206,2.14909 0.19896,4.76033 -1.95013,5.83239c-2.14909,1.07206 -4.76033,0.19896 -5.83239,-1.95013z" fill="#000000" stroke="none" stroke-linecap="butt"/><path d="M299.21242,234.4063c5.42063,-2.70405 8.12468,2.71658 8.12468,2.71658l2.16324,4.33651c1.15032,2.52174 3.13501,4.81162 3.45095,7.56526c0.472,4.11403 -0.62572,7.88318 -2.30651,11.48484c3.25939,1.26215 10.17046,3.89643 12.03953,4.05257c8.0567,0.673 15.40892,-4.21433 22.49311,-7.27261c7.93779,-3.42676 15.81297,-6.82043 23.57147,-10.63873c3.67943,-1.81083 7.84133,-3.21171 10.74687,-6.31097c3.6543,-3.89797 4.32224,-9.39102 4.58647,-14.4175l-0.84986,-1.85159c0,0 -1.275,-4.15743 2.88242,-5.43242c4.15743,-1.275 5.43242,2.88242 5.43242,2.88242l1.21827,4.89203c-0.42319,7.07599 -1.77412,14.37385 -6.85422,19.79908c-4.06416,4.34026 -7.91401,5.5615 -13.31049,8.23652c-7.88054,3.90636 -15.90337,7.34086 -23.97626,10.82594c-8.83651,3.81476 -16.74239,8.65409 -26.78143,7.9441c-3.30182,-0.23351 -12.09372,-3.74956 -15.42547,-5.02368c-0.96051,1.65235 -1.88966,3.29596 -2.67921,4.9503c0,0 -2.61867,5.46239 -8.08106,2.84373c-5.46239,-2.61867 -2.84373,-8.08106 -2.84373,-8.08106c3.60928,-7.49835 10.34204,-13.28218 5.84549,-21.04016l-2.16324,-4.33651c0,0 -2.70405,-5.42063 2.71658,-8.12468z" fill="#000000" stroke="none" stroke-linecap="butt"/><path d="M334.5393,53.35192c12.57368,-6.2723 26.96357,-2.94376 32.14071,7.43453c5.17714,10.37828 -0.81893,23.87625 -13.39262,30.14855c-12.57368,6.2723 -26.96357,2.94376 -32.14071,-7.43453c-5.17714,-10.37828 0.81893,-23.87625 13.39262,-30.14855z" fill="#e60000" stroke="none" stroke-linecap="butt"/><path d="M260.98514,99.1654c-2.6715,-7.45349 -29.00509,-37.00844 -9.16408,-44.11991c9.07721,-3.25349 13.43534,8.49397 29.64829,12.34356c19.22533,4.56485 49.91713,1.97988 51.36643,6.02341c1.64204,4.58126 -19.06647,9.079 -31.97322,23.57797c-8.09183,9.0901 -6.89224,30.03484 -14.53802,32.77526c-19.84098,7.11148 -22.66786,-23.14682 -25.33936,-30.60031z" fill="#e60000" stroke="none" stroke-linecap="butt"/><path d="M406.11962,48.70329c3.03173,7.29765 19.5958,32.57336 4.81795,37.75686c-5.69467,1.99746 -17.56219,-15.0876 -27.28452,-17.83041c-15.50736,-4.37486 -29.18525,3.33013 -31.0487,-1.15537c-1.64473,-3.95899 16.19064,-18.58064 23.67074,-32.59196c6.30804,-11.8159 1.60804,-23.39778 8.36886,-25.76922c14.77783,-5.18348 18.44392,32.29246 21.47567,39.59009z" data-paper-data="{&quot;index&quot;:null}" fill="#e60000" stroke="none" stroke-linecap="butt"/></g></g></g></svg>