<svg version="1.1" xmlns="http://www.w3.org/2000/svg" xmlns:xlink="http://www.w3.org/1999/xlink" width="469.66005" height="751.75175" viewBox="0,0,469.66005,751.75175"><g transform="translate(106.26293,109.15069)"><g data-paper-data="{&quot;isPaintingLayer&quot;:true}" fill-rule="nonzero" stroke-linejoin="miter" stroke-miterlimit="10" stroke-dasharray="" stroke-dashoffset="0" style="mix-blend-mode: normal"><g stroke-width="5.5"><path d="M61.40432,197.58192c9.00661,0 26.7443,1.36698 32.61319,6.38565c5.78282,4.94506 -0.23669,13.48627 -0.23669,20.98998c0,15.11916 -46.50654,149.1024 -64.38759,149.1024c-17.88108,0 -35.86864,-28.6428 -35.86864,-43.76196c0,-15.11916 49.99866,-132.7161 67.87969,-132.7161z" fill="#ff48b3" stroke="#000000" stroke-linecap="butt"/><path d="M17.44906,350.524c6.34294,0 20.03792,-6.32435 31.50812,-27.62811c22.2437,-41.3136 44.15442,-109.87899 44.15442,-94.09868c0,23.91759 -45.37859,143.94788 -64.02217,143.94788c-18.64354,0 -36.66725,-21.7125 -36.66725,-45.63009c0,-23.91757 6.38329,23.40897 25.02683,23.40897z" fill="#bb1c79" stroke="none" stroke-linecap="butt"/><path d="M61.40428,199.06384c8.39354,0 27.76223,-0.20368 33.51466,4.22602c6.50214,5.00705 -1.13816,15.12754 -1.13816,23.14963c0,15.11916 -46.50654,149.10237 -64.38759,149.10237c-17.88106,0 -35.86864,-28.64277 -35.86864,-43.76193c0,-15.11916 49.99866,-132.71612 67.87969,-132.71612z" fill="none" stroke="#000000" stroke-linecap="butt"/><path d="M18.63342,262.10065l49.54848,33.10941" fill="none" stroke="#000000" stroke-linecap="round"/></g><path d="" fill="none" stroke="#000000" stroke-width="0" stroke-linecap="round"/><path d="" fill="none" stroke="#000000" stroke-width="0" stroke-linecap="round"/><g data-paper-data="{&quot;index&quot;:null}" stroke-width="5.5"><path d="M146.72068,381.16633c4.99671,-14.47957 26.17578,-9.39894 33.41903,-7.91624c18.8092,3.85027 36.50574,73.82452 43.66651,125.41914c3.4104,24.57263 2.6337,45.21407 1.80332,52.11387c-2.57402,21.38712 -12.30661,41.09481 -40.07395,35.41083c-27.76732,-5.68398 -48.19053,-27.62947 -45.61651,-49.01661c1.90257,-15.80819 -7.35675,-114.9825 6.8016,-156.01098z" data-paper-data="{&quot;index&quot;:null}" fill="#ff48b3" stroke="#000000" stroke-linecap="butt"/><path d="M227.71973,553.49874c-2.41396,20.05707 -17.16484,33.69765 -32.94712,30.46698c-14.17153,-2.90089 -45.90897,-15.33903 -49.59349,-32.04625c-0.41876,-1.89889 -1.54308,-1.20889 -1.29671,-3.25584c0.0131,-0.10908 -0.89751,-4.18145 -0.91762,-7.15569c-0.05323,-7.87591 -4.48925,-21.68215 -2.74687,-40.77112c1.63808,-17.94639 -1.41702,-35.3974 0.91332,-52.68944c1.44255,-10.70426 0.82694,-30.3121 3.39443,-44.4662c3.15339,-17.38413 9.4573,-28.46776 10.09633,-28.26462c5.52793,1.75717 0.36023,82.61336 5.93912,127.02436c4.53948,36.1365 30.19042,63.74645 34.11667,66.94776c8.84601,7.21266 17.77291,4.02635 19.0431,-7.3031c1.41934,-12.65928 13.83793,-15.61293 11.17806,-37.40076c-6.42759,-52.65009 -33.29187,-133.19905 -26.33523,-131.77503c15.78228,3.23064 31.57001,140.6319 29.15605,160.68898z" fill="#bb1c79" stroke="none" stroke-linecap="butt"/><g fill="none" stroke="#000000"><path d="M142.74425,536.24389c1.93002,-16.03633 -9.35054,-114.74739 5.25507,-155.05348c4.87343,-13.44887 28.01851,-10.29578 34.96559,-8.87371c27.76734,5.68398 48.04385,156.14589 45.46983,177.53303c-2.57402,21.38712 -12.30661,41.09481 -40.07395,35.41083c-27.76732,-5.68398 -48.19053,-27.62947 -45.61651,-49.01661z" data-paper-data="{&quot;index&quot;:null}" stroke-linecap="butt"/><path d="M220.06653,480.23968l-78.1626,8.16862" stroke-linecap="round"/></g></g><g stroke-width="5.5"><path d="M126.99513,541.50675c2.57402,21.38714 -17.84919,43.33263 -45.61651,49.01661c-27.76734,5.68398 -37.49993,-14.02371 -40.07395,-35.41083c-0.83039,-6.8998 -1.60709,-27.54124 1.8033,-52.11387c7.16077,-51.59462 24.85733,-121.56887 43.66651,-125.41914c7.24325,-1.4827 28.42232,-6.56331 33.41903,7.91624c14.15835,41.02848 4.89904,140.20279 6.8016,156.01098z" data-paper-data="{&quot;index&quot;:null}" fill="#ff48b3" stroke="#000000" stroke-linecap="butt"/><path d="M68.35056,397.13919c6.95664,-1.42402 -19.90764,79.12494 -26.33523,131.77503c-2.6599,21.78783 9.75872,24.74146 11.17806,37.40076c1.27019,11.32948 10.19709,14.51577 19.0431,7.3031c3.92625,-3.20131 29.5772,-30.81126 34.11667,-66.94776c5.57889,-44.41098 0.41119,-125.26718 5.93912,-127.02436c0.63902,-0.20314 6.94294,10.88049 10.09633,28.26462c2.56748,14.15411 1.95188,33.76194 3.39443,44.4662c2.33034,17.29206 -0.72477,34.74308 0.91332,52.68944c1.74238,19.08897 -2.69367,32.89521 -2.74687,40.77112c-0.02011,2.97423 -0.93072,7.04661 -0.91762,7.15569c0.24637,2.04698 -0.87794,1.35695 -1.29671,3.25584c-3.68452,16.70722 -35.42193,29.14533 -49.59349,32.04625c-15.78228,3.23064 -30.53318,-10.40991 -32.94714,-30.46698c-2.41396,-20.05707 13.37377,-157.45833 29.15605,-160.68898z" fill="#bb1c79" stroke="none" stroke-linecap="butt"/><g fill="none" stroke="#000000"><path d="M124.16994,540.57332c2.57402,21.38714 -17.84919,43.33265 -45.61651,49.01661c-27.76734,5.68398 -37.49993,-14.02371 -40.07395,-35.41083c-2.57402,-21.38714 17.70249,-171.84904 45.46983,-177.53303c6.94707,-1.42207 30.09218,-4.57515 34.96559,8.87371c14.6056,40.30612 3.32505,139.01715 5.25507,155.05348z" data-paper-data="{&quot;index&quot;:null}" stroke-linecap="butt"/><path d="M46.84768,484.56912l78.1626,8.16862" stroke-linecap="round"/></g></g><g stroke-width="5.5" stroke-linecap="butt"><g><g><path d="M70.72948,339.90045c2.22667,-25.02714 -6.9838,-112.18834 15.34786,-139.88058c18.11287,-22.46073 96.12886,4.34283 109.85564,5.56411c12.19521,1.08501 25.19578,-5.74693 27.16058,14.49298c2.97345,30.63007 1.09633,93.82641 -1.33185,121.11849c-4.03269,45.32627 -42.91364,81.43175 -73.56443,78.70474c-30.65079,-2.72701 -81.50051,-34.67345 -77.46783,-79.99972z" fill="#ff48b3" stroke="#000000"/><path d="M68.0828,347.62906c0.37861,-4.25543 21.66382,36.65242 57.14397,49.24208c26.8333,9.52144 68.33222,-5.01752 77.77186,-22.76863c4.16443,-7.83116 12.40021,-39.4966 14.34884,-66.11866c2.29851,-31.402 -2.70014,-59.34335 -12.41835,-84.4358c-10.26018,-26.4918 -56.65242,-26.38238 -50.65265,-25.84858c9.0862,0.8084 23.69819,2.67626 39.22852,6.38787c8.71068,2.08178 21.14341,1.23454 24.69981,9.64262c19.31511,45.66513 2.19566,139.22937 1.46994,147.38628c-1.09758,12.33652 -31.22976,63.2458 -73.09071,59.52143c-1.17951,-0.10494 -8.24006,-2.28944 -9.40209,-2.468c-40.07863,-6.15834 -70.16582,-58.55169 -69.09916,-70.54059z" fill="#bb1c79" stroke="none"/><path d="M71.01289,339.68393c2.22667,-25.02714 -6.98382,-112.18834 15.34786,-139.88058c18.11287,-22.46073 96.12888,4.34283 109.85566,5.56411c12.19518,1.08501 25.19578,-5.74693 27.16058,14.49298c2.97345,30.63005 1.09633,93.82641 -1.33185,121.11847c-4.03269,45.32627 -42.91364,81.43175 -73.56443,78.70474c-30.65077,-2.727 -81.50049,-34.67345 -77.4678,-79.99972z" fill="none" stroke="#000000"/><path d="M151.92569,423.77852c-8.31674,-0.73994 -69.89089,-16.24951 -65.32791,-67.53612c3.11944,-35.06164 6.66013,-122.24617 25.95217,-151.86816c8.92749,-13.70774 39.49427,11.98212 42.12535,12.21621c3.92866,0.34953 17.43214,-27.57423 30.5856,-3.10598c14.69163,27.3296 22.5875,110.5876 20.17998,137.64747c-4.56298,51.28661 -45.19844,73.38652 -53.51518,72.64657z" fill="#ff94d2" stroke="#000000"/><path d="M89.20876,356.72495c1.01202,-11.37479 2.63672,-152.36267 28.64988,-152.44769c3.72876,-0.01217 -24.59142,149.00675 -17.88091,169.32427c0.32057,0.97063 4.72281,15.19973 15.68857,22.96828c11.96779,8.47842 30.57874,10.51074 30.78454,10.52905c31.88086,2.83645 59.38029,-53.2704 58.20871,-40.10221c-1.17158,13.16819 -26.48508,56.07893 -58.36593,53.24249c-19.4555,-1.73096 -42.37163,-15.02379 -52.71726,-32.07102c-6.60728,-10.88731 -4.82422,-26.31094 -4.36761,-31.44314z" fill="#ea88c1" stroke="none"/><path d="M205.81364,349.91153c-4.56298,51.28659 -45.19844,73.3865 -53.51518,72.64655c-8.31674,-0.73994 -69.89089,-16.24951 -65.32791,-67.53612c3.11944,-35.06164 6.66013,-122.24617 25.95217,-151.86816c8.92751,-13.70776 39.49429,11.9821 42.12537,12.21619c3.92866,0.34953 17.43214,-27.57421 30.58559,-3.10595c14.69163,27.3296 22.5875,110.58762 20.17998,137.64747z" fill="none" stroke="#000000"/></g><path d="M146.182,270.87047c4.71281,0.4193 8.2034,4.46736 7.79643,9.04156c-0.40697,4.57423 -4.55737,7.94244 -9.27019,7.52314c-4.71281,-0.4193 -8.2034,-4.46736 -7.79643,-9.04156c0.40697,-4.57423 4.55737,-7.94244 9.27019,-7.52314z" fill="#000000" stroke="#000000"/></g><path d="M150.99272,233.85941c4.15838,0.36997 7.24948,3.81618 6.90417,7.69734c-0.34531,3.88116 -3.99626,6.72752 -8.15464,6.35755c-4.15838,-0.36997 -7.24948,-3.81618 -6.90417,-7.69734c0.34531,-3.88116 3.99626,-6.72752 8.15464,-6.35755z" fill="#000000" stroke="#000000"/></g><g data-paper-data="{&quot;index&quot;:null}" stroke-width="5.5"><path d="M252.97278,217.46754c17.88104,0 67.87969,117.59694 67.87969,132.71612c0,15.11918 -17.98756,43.76196 -35.86864,43.76196c-17.88106,0 -64.38759,-133.98324 -64.38759,-149.10242c0,-7.50371 -6.01951,-16.04492 -0.23669,-20.98998c5.86889,-5.01868 23.60658,-6.38565 32.61319,-6.38565z" fill="#ff48b3" stroke="#000000" stroke-linecap="butt"/><path d="M296.92805,370.40962c18.64354,0 25.02683,-47.32653 25.02683,-23.40897c0,23.91759 -18.02371,45.63011 -36.66725,45.63011c-18.64358,0 -64.02217,-120.03029 -64.02217,-143.94786c0,-15.78033 21.91072,52.78508 44.15442,94.09866c11.47021,21.30376 25.16518,27.62811 31.50812,27.62811z" fill="#bb1c79" stroke="none" stroke-linecap="butt"/><path d="M252.97282,218.94944c17.88104,0 67.87969,117.59694 67.87969,132.71612c0,15.11918 -17.98758,43.76193 -35.86864,43.76193c-17.88106,0 -64.38759,-133.98319 -64.38759,-149.10237c0,-8.02209 -7.6403,-18.1426 -1.13816,-23.14963c5.75243,-4.4297 25.12113,-4.22602 33.51466,-4.22602z" fill="none" stroke="#000000" stroke-linecap="butt"/><path d="M295.74364,281.98629l-49.54848,33.10941" fill="none" stroke="#000000" stroke-linecap="round"/></g><g stroke-width="5.5"><path d="M-56.82338,359.4977c5.58008,-20.91225 25.55249,-33.74274 44.60962,-28.65765c19.05713,5.08505 29.98245,26.16006 24.40238,47.07231c-5.58008,20.91227 -25.55251,33.74274 -44.60964,28.65765c-19.05715,-5.08505 -29.98245,-26.16006 -24.40238,-47.07231z" fill="#ff48b3" stroke="#000000" stroke-linecap="butt"/><path d="M-57.66902,374.54878c3.15003,-11.8053 5.25085,-45.70198 22.11557,-41.2019c2.82944,0.75499 -7.1619,12.49851 -9.01652,26.76248c-1.75922,13.53011 4.59851,29.54029 7.52869,32.95043c12.39324,14.42327 42.56506,-10.16086 40.44481,-2.21483c-3.15005,11.80528 -19.37521,17.72736 -36.23993,13.22728c-16.86472,-4.50008 -27.98269,-17.71818 -24.83263,-29.52349z" fill="#bb1c79" stroke="none" stroke-linecap="butt"/><path d="M-12.81443,332.79073c19.05715,5.08505 29.98245,26.16006 24.40238,47.07231c-5.58008,20.91227 -25.55247,33.74274 -44.60962,28.65765c-19.05715,-5.08505 -29.98245,-26.16006 -24.40235,-47.07231c5.58008,-20.91227 25.55245,-33.74274 44.60959,-28.65765z" fill="none" stroke="#000000" stroke-linecap="butt"/><g><path d="M-74.48482,407.07203c0.9444,16.38032 -4.78814,30.03382 -12.80406,30.49594c-8.01588,0.46217 -15.27965,-12.44201 -16.22405,-28.82232c-0.50302,-8.72452 13.35509,-36.03829 25.76903,-40.6881c10.89327,-4.08019 20.21664,13.97729 23.96309,13.76128c8.0159,-0.46217 -21.64847,8.87287 -20.70402,25.25313z" fill="#ff48b3" stroke="#000000" stroke-linecap="butt"/><path d="M-77.27265,423.74418c0.39184,6.79608 -7.68191,11.64297 -12.21262,11.90421c-4.53071,0.26124 -8.52123,-5.03632 -8.91307,-11.83241c-0.39184,-6.79608 30.51229,-50.82781 35.04304,-51.08905c1.66261,-0.09588 10.25682,3.99734 5.85495,11.17433c-3.17094,5.1701 -11.97456,9.14931 -15.20467,15.0027c-5.19439,9.41292 -4.21548,20.23932 -4.06257,22.89194z" fill="#bb1c79" stroke="none" stroke-linecap="butt"/><path d="M-73.79194,406.79133c0.94442,16.38028 -4.78814,30.0338 -12.80402,30.49597c-8.01588,0.46217 -15.27965,-12.44206 -16.22405,-28.82232c-0.50302,-8.72452 13.35509,-36.03829 25.76905,-40.6881c10.89327,-4.08019 20.21664,13.97729 23.96307,13.76128c8.01588,-0.46217 -21.64847,8.87287 -20.70402,25.25313z" fill="none" stroke="#000000" stroke-linecap="butt"/><path d="M-96.78851,392.28199l21.47938,10.15817" fill="none" stroke="#000000" stroke-linecap="round"/></g><g><path d="M-42.31027,419.76288c6.57619,15.03199 5.94403,29.82659 -1.41209,33.0447c-7.35605,3.21815 -18.65038,-6.35881 -25.22657,-21.39078c-3.50264,-8.00636 0.00336,-38.43327 10.0287,-47.10614c8.7973,-7.61043 23.81323,6.08333 27.25129,4.57924c7.35608,-3.21815 -17.21759,15.84103 -10.64138,30.87293z" fill="#ff48b3" stroke="#000000" stroke-linecap="butt"/><path d="M-39.13247,436.36515c2.72843,6.23666 -3.1586,13.58652 -7.31635,15.40549c-4.15775,1.81897 -9.74014,-1.7623 -12.46857,-7.99897c-2.72843,-6.23666 10.95394,-58.26214 15.11174,-60.08111c1.52576,-0.66751 11.00668,0.18508 9.37231,8.4443c-1.17732,5.94968 -8.05019,12.73947 -9.04562,19.35045c-1.60074,10.63121 3.07834,20.44319 4.14327,22.87748z" fill="#bb1c79" stroke="none" stroke-linecap="butt"/><path d="M-41.75805,419.25895c6.57621,15.03194 5.94401,29.82657 -1.41204,33.0447c-7.35605,3.21815 -18.6504,-6.35886 -25.22657,-21.39078c-3.50264,-8.00636 0.00336,-38.43327 10.02872,-47.10616c8.7973,-7.61043 23.81323,6.08333 27.25127,4.57924c7.35605,-3.21815 -17.21759,15.84103 -10.64138,30.87293z" fill="none" stroke="#000000" stroke-linecap="butt"/><path d="M-44.69237,415.7059l-23.67055,-2.06341" fill="none" stroke="#000000" stroke-linecap="round"/></g><g><path d="M-8.94694,425.83101c8.57433,13.98885 9.97579,28.73047 3.13016,32.9264c-6.84557,4.19596 -19.3459,-3.74271 -27.92021,-17.73152c-4.56688,-7.45076 -5.26411,-38.07107 3.47801,-48.0361c7.67124,-8.74433 24.42227,2.76222 27.62174,0.80112c6.84559,-4.19596 -14.88405,18.05129 -6.30972,32.04006z" fill="#ff48b3" stroke="#000000" stroke-linecap="butt"/><path d="M-3.52372,441.84108c3.55745,5.80387 -1.26671,13.89123 -5.13594,16.26285c-3.86924,2.37162 -9.88977,-0.41075 -13.4472,-6.21462c-3.55745,-5.80387 2.86554,-59.21364 6.7348,-61.58528c1.41986,-0.8703 10.92816,-1.32515 10.44119,7.0801c-0.35079,6.05491 -6.22824,13.72253 -6.3082,20.40756c-0.12861,10.75026 5.8511,19.82839 7.23961,22.09375z" fill="#bb1c79" stroke="none" stroke-linecap="butt"/><path d="M-8.46902,425.25615c8.57433,13.98879 9.97577,28.73044 3.1302,32.9264c-6.84557,4.19596 -19.34592,-3.74275 -27.92021,-17.73152c-4.56688,-7.45076 -5.26409,-38.07105 3.47803,-48.03612c7.67124,-8.74433 24.42227,2.76224 27.62172,0.80114c6.84557,-4.19596 -14.88405,18.05127 -6.30972,32.04004z" fill="none" stroke="#000000" stroke-linecap="butt"/><path d="M-35.59257,423.33897l23.72997,-1.20021" fill="none" stroke="#000000" stroke-linecap="round"/></g><g data-paper-data="{&quot;index&quot;:null}"><path d="M19.53848,415.87576c-0.02959,-16.40743 -30.19583,-23.96506 -22.16661,-23.97954c3.75267,-0.00678 11.98766,-18.58587 23.10393,-15.15951c12.66807,3.90469 28.12313,30.34764 28.13891,39.08664c0.02963,16.40747 -6.45529,29.72007 -14.48449,29.73457c-8.02922,0.01453 -14.56214,-13.27458 -14.59177,-29.68208z" fill="#ff48b3" stroke="#000000" stroke-linecap="butt"/><path d="M22.69126,430.43826c-0.00483,-2.65704 0.32969,-13.52244 -5.41432,-22.61042c-3.57189,-5.65134 -12.59618,-9.1009 -16.06843,-14.07365c-4.82013,-6.90302 3.51591,-11.49921 5.18129,-11.5022c4.53826,-0.00818 38.00173,42.11134 38.01401,48.9187c0.0123,6.80736 -3.65673,12.33246 -8.19497,12.34064c-4.53824,0.00818 -12.88543,-4.35089 -12.89773,-11.15825z" fill="#bb1c79" stroke="none" stroke-linecap="butt"/><path d="M18.83012,415.63671c-0.02959,-16.40743 -30.19576,-23.96506 -22.16659,-23.97954c3.75264,-0.00675 11.98764,-18.58585 23.10391,-15.15951c12.6681,3.90469 28.12316,30.34764 28.13894,39.08662c0.02963,16.40745 -6.45532,29.72009 -14.48449,29.73459c-8.02917,0.0145 -14.56214,-13.27465 -14.59175,-29.6821z" fill="none" stroke="#000000" stroke-linecap="butt"/><path d="M40.92484,399.78787l-20.83849,11.41533" fill="none" stroke="#000000" stroke-linecap="round"/></g></g><g data-paper-data="{&quot;index&quot;:null}" stroke-width="5.5"><path d="M313.94429,350.36666c5.58008,20.91225 -5.34523,41.98726 -24.40238,47.07231c-19.05713,5.08509 -39.02956,-7.74538 -44.60964,-28.65765c-5.58008,-20.91225 5.34525,-41.98726 24.40238,-47.07231c19.05713,-5.08509 39.02954,7.7454 44.60962,28.65765z" fill="#ff48b3" stroke="#000000" stroke-linecap="butt"/><path d="M314.78994,365.41772c3.15005,11.8053 -7.96791,25.02341 -24.83263,29.52349c-16.86472,4.50008 -33.08988,-1.422 -36.23993,-13.22728c-2.12025,-7.94603 28.05157,16.6381 40.44481,2.21483c2.93018,-3.41014 9.28791,-19.42032 7.52869,-32.95043c-1.85462,-14.26397 -11.84596,-26.00749 -9.01652,-26.76248c16.86472,-4.50008 18.96554,29.39659 22.11557,41.2019z" fill="#bb1c79" stroke="none" stroke-linecap="butt"/><path d="M314.54489,352.31733c5.5801,20.91225 -5.34521,41.98726 -24.40235,47.07231c-19.05715,5.08509 -39.02954,-7.74538 -44.60962,-28.65765c-5.58008,-20.91225 5.34523,-41.98726 24.40238,-47.07231c19.05715,-5.08509 39.02952,7.74538 44.60959,28.65765z" fill="none" stroke="#000000" stroke-linecap="butt"/><g><path d="M331.60572,397.94092c0.94444,-16.38026 -28.71992,-25.7153 -20.70402,-25.25313c3.74645,0.21602 13.06982,-17.84147 23.96309,-13.76128c12.41394,4.64981 26.27204,31.96358 25.76903,40.6881c-0.9444,16.3803 -8.20817,29.28448 -16.22405,28.82232c-8.01592,-0.46212 -13.74846,-14.11562 -12.80406,-30.49594z" fill="#ff48b3" stroke="#000000" stroke-linecap="butt"/><path d="M333.88848,412.66489c0.15292,-2.65262 1.13182,-13.47902 -4.06257,-22.89194c-3.2301,-5.85339 -12.03373,-9.8326 -15.20467,-15.0027c-4.40186,-7.17699 4.19234,-11.27021 5.85495,-11.17433c4.53075,0.26124 35.43488,44.29296 35.04304,51.08905c-0.39184,6.79608 -4.38236,12.09364 -8.91307,11.83241c-4.53071,-0.26124 -12.60445,-5.10813 -12.21262,-11.90421z" fill="#bb1c79" stroke="none" stroke-linecap="butt"/><path d="M330.91279,397.66024c0.94444,-16.38026 -28.7199,-25.7153 -20.70402,-25.25313c3.74643,0.21602 13.0698,-17.84147 23.96307,-13.76128c12.41396,4.64981 26.27206,31.96358 25.76905,40.6881c-0.9444,16.38026 -8.20817,29.28448 -16.22405,28.82232c-8.01588,-0.46217 -13.74844,-14.11568 -12.80402,-30.49597z" fill="none" stroke="#000000" stroke-linecap="butt"/><path d="M353.90938,383.15095l-21.47938,10.15817" fill="none" stroke="#000000" stroke-linecap="round"/></g><g><path d="M299.43119,410.63179c6.57621,-15.0319 -17.99748,-34.09111 -10.6414,-30.87295c3.43805,1.50409 18.45399,-12.18967 27.25129,-4.57922c10.02537,8.67287 13.53134,39.09978 10.02872,47.10614c-6.57619,15.03197 -17.87054,24.60893 -25.22659,21.39078c-7.35612,-3.21813 -7.98828,-18.01272 -1.41207,-33.0447z" fill="#ff48b3" stroke="#000000" stroke-linecap="butt"/><path d="M296.45656,425.23172c1.06493,-2.43429 5.74403,-12.24628 4.14327,-22.87748c-0.99542,-6.61098 -7.86829,-13.40074 -9.04562,-19.35042c-1.63436,-8.25922 7.84656,-9.11181 9.37231,-8.4443c4.15779,1.81897 17.84017,53.84445 15.11174,60.08113c-2.72843,6.23668 -8.3108,9.81794 -12.46857,7.99897c-4.15775,-1.81897 -10.04478,-9.16881 -7.31635,-15.40549z" fill="#bb1c79" stroke="none" stroke-linecap="butt"/><path d="M298.87892,410.12786c6.57621,-15.0319 -17.99743,-34.09106 -10.64138,-30.87293c3.43802,1.50409 18.45397,-12.18969 27.25127,-4.57924c10.02539,8.67289 13.53136,39.09978 10.02872,47.10616c-6.57617,15.03192 -17.87052,24.60891 -25.22659,21.39078c-7.35605,-3.21813 -7.98824,-18.01276 -1.41204,-33.0447z" fill="none" stroke="#000000" stroke-linecap="butt"/><path d="M301.81324,406.57485l23.67055,-2.06341" fill="none" stroke="#000000" stroke-linecap="round"/></g><g><path d="M266.06788,416.69992c8.57433,-13.98877 -13.15533,-36.23602 -6.30974,-32.04006c3.19947,1.9611 19.95051,-9.54547 27.62174,-0.80114c8.7421,9.96504 8.04487,40.58534 3.47799,48.03612c-8.57433,13.98883 -21.07464,21.92745 -27.92021,17.73152c-6.84564,-4.19594 -5.44418,-18.93757 3.13016,-32.9264z" fill="#ff48b3" stroke="#000000" stroke-linecap="butt"/><path d="M261.12033,430.75439c1.38851,-2.26535 7.36822,-11.34346 7.23961,-22.09375c-0.07996,-6.68503 -5.95741,-14.35266 -6.3082,-20.40759c-0.48697,-8.40525 9.02133,-7.95042 10.44119,-7.08012c3.86926,2.37166 10.29225,55.78142 6.7348,61.5853c-3.55743,5.80389 -9.57796,8.58626 -13.44722,6.21462c-3.86924,-2.37164 -8.69337,-10.45898 -5.13594,-16.26285z" fill="#bb1c79" stroke="none" stroke-linecap="butt"/><path d="M265.58989,416.12506c8.57433,-13.98877 -13.15529,-36.23599 -6.30969,-32.04004c3.19945,1.9611 19.95048,-9.54547 27.62172,-0.80114c8.74212,9.96506 8.04489,40.58534 3.47801,48.03612c-8.57431,13.98879 -21.07464,21.92748 -27.92021,17.73152c-6.84559,-4.19594 -5.44415,-18.93761 3.13018,-32.9264z" fill="none" stroke="#000000" stroke-linecap="butt"/><path d="M268.98347,413.00771l23.72997,1.20021" fill="none" stroke="#000000" stroke-linecap="round"/></g><g data-paper-data="{&quot;index&quot;:null}"><path d="M237.58242,406.74478c-0.02966,16.40751 -6.56258,29.69662 -14.59179,29.6821c-8.02917,-0.01448 -14.5141,-13.3271 -14.48447,-29.73459c0.01578,-8.739 15.47086,-35.18195 28.13891,-39.08664c11.11627,-3.42634 19.35125,15.15276 23.10393,15.15951c8.02922,0.01448 -22.137,7.57211 -22.16661,23.97956z" fill="#ff48b3" stroke="#000000" stroke-linecap="butt"/><path d="M233.80979,423.22206c-0.0123,6.80736 -8.35951,11.16643 -12.89775,11.15825c-4.53822,-0.00818 -8.20726,-5.53328 -8.19497,-12.34064c0.0123,-6.80736 33.47576,-48.92688 38.01403,-48.91872c1.66536,0.00301 10.00142,4.59918 5.18127,11.5022c-3.47227,4.97277 -12.49654,8.42231 -16.06843,14.07365c-5.74401,9.08798 -5.40952,19.95336 -5.41432,22.61042z" fill="#bb1c79" stroke="none" stroke-linecap="butt"/><path d="M238.29073,406.50573c-0.02961,16.40747 -6.56258,29.69658 -14.59175,29.6821c-8.02917,-0.01448 -14.5141,-13.32717 -14.48447,-29.73459c0.01578,-8.739 15.47084,-35.18193 28.13894,-39.08662c11.11627,-3.42634 19.35125,15.15276 23.10389,15.15951c8.02917,0.01448 -22.13698,7.57211 -22.16657,23.97956z" fill="none" stroke="#000000" stroke-linecap="butt"/><path d="M216.19603,390.65684l20.83847,11.41531" fill="none" stroke="#000000" stroke-linecap="round"/></g></g><g stroke-width="5.5" stroke-linecap="butt"><g data-paper-data="{&quot;index&quot;:null}"><path d="M-17.027,591.97123c0,-20.95599 31.48769,-37.94422 70.32972,-37.94422c38.84203,0 70.3297,16.98818 70.3297,37.94422c0,10.45288 -0.58369,22.81873 -13.25711,29.68134c-12.73434,6.8956 -37.605,8.26288 -57.0726,8.26288c-20.85923,0 -54.09848,-0.06574 -66.97802,-7.8479c-11.10348,-6.70902 -3.3517,-20.39425 -3.3517,-30.09632z" fill="#ff48b3" stroke="#000000"/><path d="M-18.44313,612.06491c0,-3.64348 13.95718,4.94714 41.07496,6.92008c29.08202,2.11584 71.99413,-2.43611 88.88952,-8.83949c7.57244,-2.86996 5.47894,-15.99037 -2.90639,-26.88113c-9.14515,-11.87763 -24.76676,-21.46951 -18.05913,-21.46951c39.37594,0 33.59391,39.0579 33.59391,50.27003c0,11.21213 -31.9205,20.30136 -71.29644,20.30136c-39.37594,0 -71.29646,-9.08923 -71.29646,-20.30136z" fill="#bb1c79" stroke="none"/><path d="M54.78679,555.02774c38.84203,0 70.32972,16.9882 70.32972,37.94422c0,10.45288 -0.58372,22.81873 -13.25711,29.68134c-12.73434,6.8956 -37.605,8.26288 -57.0726,8.26288c-20.85923,0 -54.09846,-0.06572 -66.97802,-7.84788c-11.10348,-6.70902 -3.3517,-20.39429 -3.3517,-30.09634c0,-20.95602 31.48769,-37.94422 70.32972,-37.94422z" fill="none" stroke="#000000"/></g><path d="M-54.9613,600.90616c0,-20.95602 14.13902,-37.94422 31.58034,-37.94422c17.44134,0 31.58034,16.98818 31.58034,37.94422c0,10.45288 -0.2621,22.81873 -5.95286,29.68134c-5.71814,6.8956 -16.88589,8.26288 -25.62747,8.26288c-9.36647,0 -24.29197,-0.06574 -30.07532,-7.8479c-4.98584,-6.70902 -1.50504,-20.39427 -1.50504,-30.09632z" fill="#ff48b3" stroke="#000000"/><path d="M-55.59716,620.9998c0,-3.64348 6.26724,4.94711 18.44401,6.92006c13.05878,2.11584 32.32771,-2.43609 39.9143,-8.83945c3.40027,-2.86996 2.46022,-15.99037 -1.30506,-26.88113c-4.10647,-11.87763 -11.12108,-21.46951 -8.10914,-21.46951c17.68108,0 15.08476,39.05792 15.08476,50.27005c0,11.21215 -14.33335,20.30136 -32.01443,20.30136c-17.68108,0 -32.01443,-9.08923 -32.01443,-20.30136z" fill="#bb1c79" stroke="none"/><path d="M-54.29491,601.90687c0,-20.95602 14.139,-37.94422 31.58034,-37.94422c17.44134,0 31.58034,16.98822 31.58034,37.94422c0,10.45288 -0.2621,22.81873 -5.95286,29.68134c-5.71814,6.89562 -16.88587,8.26285 -25.62745,8.26285c-9.36647,0 -24.29197,-0.06572 -30.07532,-7.84788c-4.98584,-6.70902 -1.50502,-20.39427 -1.50502,-30.09632z" fill="none" stroke="#000000"/><g><path d="M34.18951,599.62647c0,-20.95602 14.13902,-37.94422 31.58034,-37.94422c17.44134,0 31.58034,16.98818 31.58034,37.94422c0,10.45288 -0.2621,22.81873 -5.95286,29.68134c-5.71814,6.8956 -16.88589,8.26288 -25.62747,8.26288c-9.36647,0 -24.29197,-0.06574 -30.07532,-7.8479c-4.98584,-6.70902 -1.50504,-20.39427 -1.50504,-30.09632z" fill="#ff48b3" stroke="#000000"/><path d="M33.55364,619.72013c0,-3.64348 6.26724,4.94711 18.44401,6.92006c13.05878,2.11584 32.32771,-2.43609 39.9143,-8.83945c3.40027,-2.86996 2.46022,-15.99037 -1.30506,-26.88113c-4.10647,-11.87763 -11.12108,-21.46951 -8.10914,-21.46951c17.68108,0 15.08476,39.05792 15.08476,50.27005c0,11.21215 -14.33335,20.30136 -32.01443,20.30136c-17.68108,0 -32.01443,-9.08923 -32.01443,-20.30136z" fill="#bb1c79" stroke="none"/><path d="M34.85589,600.62717c0,-20.95602 14.139,-37.94422 31.58034,-37.94422c17.44134,0 31.58034,16.98822 31.58034,37.94422c0,10.45288 -0.2621,22.81873 -5.95286,29.68134c-5.71814,6.89562 -16.88587,8.26285 -25.62745,8.26285c-9.36647,0 -24.29197,-0.06572 -30.07532,-7.84788c-4.98584,-6.70902 -1.50502,-20.39427 -1.50502,-30.09632z" fill="none" stroke="#000000"/></g><g><path d="M-15.29133,599.19991c0,-20.95602 14.13902,-37.94422 31.58034,-37.94422c17.44134,0 31.58034,16.98818 31.58034,37.94422c0,10.45288 -0.2621,22.81873 -5.95286,29.68134c-5.71814,6.8956 -16.88589,8.26288 -25.62747,8.26288c-9.36647,0 -24.29197,-0.06574 -30.07532,-7.8479c-4.98584,-6.70902 -1.50504,-20.39427 -1.50504,-30.09632z" fill="#ff48b3" stroke="#000000"/><path d="M-15.92719,619.29357c0,-3.64348 6.26724,4.94711 18.44401,6.92006c13.05878,2.11584 32.32771,-2.43609 39.9143,-8.83945c3.40027,-2.86996 2.46022,-15.99037 -1.30506,-26.88113c-4.10647,-11.87763 -11.12108,-21.46951 -8.10914,-21.46951c17.68108,0 15.08476,39.05792 15.08476,50.27005c0,11.21215 -14.33335,20.30136 -32.01443,20.30136c-17.68108,0 -32.01443,-9.08923 -32.01443,-20.30136z" fill="#bb1c79" stroke="none"/><path d="M-14.62494,600.20062c0,-20.95602 14.139,-37.94422 31.58034,-37.94422c17.44134,0 31.58034,16.98822 31.58034,37.94422c0,10.45288 -0.2621,22.81873 -5.95286,29.68134c-5.71814,6.89562 -16.88587,8.26285 -25.62745,8.26285c-9.36647,0 -24.29197,-0.06572 -30.07532,-7.84788c-4.98584,-6.70902 -1.50502,-20.39427 -1.50502,-30.09632z" fill="none" stroke="#000000"/></g></g><g data-paper-data="{&quot;index&quot;:null}" stroke-width="5.5" stroke-linecap="butt"><g data-paper-data="{&quot;index&quot;:null}"><path d="M283.94123,587.6418c0,9.70204 7.75181,23.38727 -3.3517,30.09632c-12.87957,7.78218 -46.11877,7.8479 -66.97802,7.8479c-19.46758,0 -44.33827,-1.36728 -57.0726,-8.26288c-12.67342,-6.86261 -13.25711,-19.22846 -13.25711,-29.68134c0,-20.95602 31.48769,-37.94419 70.3297,-37.94419c38.84201,0 70.32972,16.9882 70.32972,37.94419z" fill="#ff48b3" stroke="#000000"/><path d="M285.35734,607.73545c0,11.21213 -31.9205,20.30138 -71.29644,20.30138c-39.37594,0 -71.29644,-9.08926 -71.29644,-20.30138c0,-11.21213 -5.78202,-50.27 33.59391,-50.27c6.70763,0 -8.914,9.5919 -18.05913,21.46953c-8.38531,10.89075 -10.47881,24.01117 -2.90637,26.88113c16.8954,6.40338 59.80751,10.95533 88.88952,8.83949c27.11777,-1.97294 41.07496,-10.56358 41.07496,-6.92008z" fill="#bb1c79" stroke="none"/><path d="M282.45714,588.64252c0,9.70204 7.75179,23.3873 -3.3517,30.09632c-12.87957,7.78218 -46.11877,7.84788 -66.97802,7.84788c-19.46758,0 -44.33829,-1.36728 -57.07263,-8.26288c-12.6734,-6.86261 -13.25711,-19.22846 -13.25711,-29.68134c0,-20.95602 31.48771,-37.94422 70.32972,-37.94422c38.84201,0 70.32972,16.9882 70.32972,37.94422z" fill="none" stroke="#000000"/></g><path d="M321.87553,596.57671c0,9.70204 3.4808,23.3873 -1.50504,30.09632c-5.78334,7.78218 -20.70885,7.84792 -30.07532,7.84792c-8.74158,0 -19.90935,-1.36728 -25.62747,-8.26288c-5.69076,-6.86261 -5.95286,-19.22849 -5.95286,-29.68134c0,-20.95602 14.139,-37.94419 31.58034,-37.94419c17.44134,0 31.58034,16.98818 31.58034,37.94419z" fill="#ff48b3" stroke="#000000"/><path d="M322.5114,616.67039c0,11.21213 -14.33335,20.30136 -32.01445,20.30136c-17.6811,0 -32.01443,-9.08923 -32.01443,-20.30136c0,-11.21213 -2.59632,-50.27005 15.08476,-50.27005c3.01197,0 -4.00267,9.5919 -8.10914,21.46953c-3.76529,10.89075 -4.70534,24.01117 -1.30506,26.88113c7.5866,6.40336 26.85554,10.95531 39.9143,8.83945c12.17675,-1.97294 18.44401,-10.56354 18.44401,-6.92006z" fill="#bb1c79" stroke="none"/><path d="M321.2091,597.57743c0,9.70204 3.48082,23.3873 -1.50502,30.09632c-5.78334,7.78218 -20.70885,7.84788 -30.07532,7.84788c-8.74158,0 -19.90931,-1.36726 -25.62745,-8.26288c-5.69076,-6.86261 -5.95286,-19.22846 -5.95286,-29.68134c0,-20.95602 14.139,-37.94422 31.58036,-37.94422c17.44134,0 31.58034,16.9882 31.58034,37.94422z" fill="none" stroke="#000000"/><g><path d="M232.72473,595.29704c0,9.70204 3.4808,23.3873 -1.50504,30.09632c-5.78334,7.78218 -20.70885,7.8479 -30.07532,7.8479c-8.74158,0 -19.90933,-1.36728 -25.62747,-8.26288c-5.69076,-6.86261 -5.95286,-19.22846 -5.95286,-29.68134c0,-20.95602 14.139,-37.94422 31.58034,-37.94422c17.44134,0 31.58034,16.9882 31.58034,37.94422z" fill="#ff48b3" stroke="#000000"/><path d="M233.36059,615.39069c0,11.21213 -14.33335,20.30138 -32.01445,20.30138c-17.6811,0 -32.01445,-9.08923 -32.01445,-20.30138c0,-11.21213 -2.5963,-50.27003 15.08479,-50.27003c3.01197,0 -4.00267,9.5919 -8.10914,21.46953c-3.76529,10.89075 -4.70536,24.01117 -1.30509,26.88113c7.5866,6.40336 26.85554,10.95528 39.9143,8.83945c12.17675,-1.97294 18.44401,-10.56356 18.44401,-6.92006z" fill="#bb1c79" stroke="none"/><path d="M232.0583,596.29776c0,9.70204 3.4808,23.38727 -1.50502,30.09632c-5.78334,7.78218 -20.70885,7.84788 -30.07532,7.84788c-8.74158,0 -19.90933,-1.36724 -25.62745,-8.26285c-5.69076,-6.86261 -5.95286,-19.22849 -5.95286,-29.68134c0,-20.95602 14.139,-37.94422 31.58036,-37.94422c17.44134,0 31.58034,16.9882 31.58034,37.94422z" fill="none" stroke="#000000"/></g><g><path d="M282.20554,594.87048c0,9.70204 3.4808,23.3873 -1.50502,30.09632c-5.78334,7.78218 -20.70885,7.8479 -30.07532,7.8479c-8.74158,0 -19.90933,-1.36728 -25.62747,-8.26288c-5.69076,-6.86261 -5.95286,-19.22849 -5.95286,-29.68136c0,-20.95602 14.139,-37.94419 31.58034,-37.94419c17.44134,0 31.58034,16.98818 31.58034,37.94419z" fill="#ff48b3" stroke="#000000"/><path d="M282.84142,614.96414c0,11.21213 -14.33335,20.30138 -32.01443,20.30138c-17.6811,0 -32.01445,-9.08923 -32.01445,-20.30138c0,-11.21213 -2.5963,-50.27003 15.08479,-50.27003c3.01197,0 -4.00269,9.5919 -8.10916,21.46953c-3.76529,10.89075 -4.70534,24.01117 -1.30506,26.88113c7.58657,6.40336 26.85554,10.95531 39.9143,8.83945c12.17675,-1.97294 18.44399,-10.56356 18.44399,-6.92006z" fill="#bb1c79" stroke="none"/><path d="M281.53913,595.87121c0,9.70204 3.48082,23.38727 -1.50502,30.09632c-5.78334,7.78218 -20.70885,7.84788 -30.07532,7.84788c-8.7416,0 -19.90933,-1.36724 -25.62745,-8.26285c-5.69076,-6.86261 -5.95286,-19.22849 -5.95286,-29.68134c0,-20.95602 14.139,-37.94422 31.58034,-37.94422c17.44134,0 31.58034,16.9882 31.58034,37.94422z" fill="none" stroke="#000000"/></g></g><g><path d="M241.78841,174.93477c1.23662,11.41036 -26.28154,23.75126 -61.46351,27.56415c-35.18198,3.81289 -64.70507,-2.34609 -65.94168,-13.75645c-1.23662,-11.41036 26.28154,-23.75126 61.46351,-27.56415c35.18198,-3.81289 64.70507,2.34609 65.94168,13.75645z" fill="#000000" stroke="#000000" stroke-width="5.5" stroke-linecap="butt"/><path d="M248.44944,177.47028c0.55036,5.07821 -10.40598,12.81552 -16.46567,17.58334c-11.81087,9.29289 -26.67216,14.52692 -53.15848,17.3974c-40.0754,4.34322 -73.87867,-4.27644 -75.50173,-19.25255c-0.55792,-5.14798 -15.31181,-25.83759 -9.08997,-30.65997c6.70111,-5.19384 4.50289,16.24049 19.23795,28.27487c11.38412,9.29758 50.56408,12.35356 62.02686,11.11126c18.75674,-2.03278 46.13037,-6.11309 59.2535,-22.46383c9.03248,-11.25403 5.99775,-36.6827 10.23096,-37.48002c2.75722,-0.5193 3.12599,32.34721 3.46655,35.48951z" fill="#ff48b3" stroke="#000000" stroke-width="5.5" stroke-linecap="butt"/><path d="M120.85576,202.46718c14.11173,5.93899 38.58029,8.0096 57.66923,5.94082c17.80021,-1.92912 38.28362,-6.55806 49.96179,-16.32798c13.821,-11.56262 17.29511,-28.09858 17.72799,-24.10435c0.35799,3.30324 -1.73689,15.75391 -11.54919,24.00266c-12.07795,10.15338 -34.0323,16.21105 -55.47694,18.53513c-24.44217,2.64895 -49.75293,1.32865 -64.12084,-5.21692c-8.47915,-3.86283 -12.04862,-12.50267 -12.34502,-15.23758c-0.4064,-3.7499 3.51212,6.25496 18.13298,12.40822z" fill="#bb1c79" stroke="none" stroke-width="5.5" stroke-linecap="butt"/><g><g fill="none" stroke="none" stroke-width="1" stroke-linecap="butt" font-family="sans-serif" font-weight="normal" font-size="12" text-anchor="start"/><g stroke-width="5.5" stroke-linecap="butt"><g data-paper-data="{&quot;index&quot;:null}"><path d="M228.26206,-69.57943c7.91122,-3.29217 25.28081,3.26626 31.81548,6.72328c8.35886,4.42207 20.01183,7.4412 20.45785,19.26984c0.39835,10.56487 -9.58647,29.50023 -15.85222,41.34408c-5.46317,10.32679 -7.90629,21.67457 -15.60113,27.37239c-11.01131,8.15357 -27.78409,7.853 -37.0992,2.92503c-6.10917,-3.23194 -19.44657,-10.54778 -21.36252,-18.17668c-3.04693,-12.13233 8.60305,-27.02443 16.75687,-42.43724c7.79669,-14.73776 9.63793,-32.34046 20.88486,-37.0207z" data-paper-data="{&quot;index&quot;:null}" fill="#ff48b3" stroke="#000000"/><path d="M189.66846,-6.84636c4.90932,-9.27986 31.0371,-69.37519 46.95938,-60.95185c2.79757,1.48001 48.88494,16.11039 45.39179,22.21335c-2.84862,4.97692 -34.68222,-15.45718 -46.06395,-10.4161c-22.67575,10.0433 -30.4804,45.79618 -30.32395,57.20765c0.2168,15.81224 43.63836,18.77991 41.69648,22.45058c-4.90932,9.27986 -21.79667,9.9742 -37.71896,1.55087c-15.92229,-8.42333 -24.85009,-22.77462 -19.94076,-32.05448z" data-paper-data="{&quot;index&quot;:null}" fill="#bb1c79" stroke="none"/><path d="M227.71353,-69.43771c7.91123,-3.29212 25.28079,3.26624 31.81547,6.72325c8.35881,4.42205 20.01183,7.4412 20.45783,19.26986c0.39837,10.56488 -9.58646,29.5002 -15.8522,41.34408c-5.46317,10.32679 -7.90629,21.67457 -15.60113,27.37237c-11.01131,8.15357 -27.78409,7.853 -37.0992,2.92503c-6.10917,-3.23194 -19.44657,-10.54778 -21.36252,-18.17668c-3.04695,-12.13233 8.60302,-27.0244 16.75682,-42.43722c7.7967,-14.73778 9.63797,-32.34044 20.88488,-37.02071z" data-paper-data="{&quot;index&quot;:null}" fill="none" stroke="#000000"/><path d="M242.51604,-54.04255c9.91622,-4.06455 24.13292,9.53932 29.78967,12.53188c9.96365,5.27107 0.84124,18.09326 -9.08074,36.84836c-4.25239,8.03812 -6.14704,18.29974 -11.70391,22.804c-7.40878,6.00536 -18.6088,4.62296 -24.30218,1.61102c-4.09035,-2.16391 -18.32441,-6.63524 -19.06596,-12.5547c-1.06476,-8.49966 13.14179,-19.89289 18.99052,-30.94848c4.28887,-8.10712 7.82263,-27.19741 15.37262,-30.29205z" data-paper-data="{&quot;index&quot;:null}" fill="none" stroke="#000000"/><path d="M226.98452,-24.26652c4.28892,-8.10714 7.82267,-27.19741 15.37262,-30.29205c9.91622,-4.06455 24.13295,9.53929 29.7897,12.53188c9.96363,5.27107 0.84122,18.09324 -9.08076,36.84834c-4.25241,8.03814 -6.14704,18.29976 -11.70391,22.80402c-7.40878,6.00536 -18.6088,4.62296 -24.30218,1.61102c-4.09033,-2.16389 -18.32439,-6.63524 -19.06592,-12.5547c-1.06476,-8.49966 13.14175,-19.89287 18.99047,-30.94848z" data-paper-data="{&quot;index&quot;:null}" fill="#ff94d2" stroke="#000000"/><path d="M247.49091,17.86665c-2.63088,4.97305 -18.33983,3.13941 -27.43342,-1.67135c-9.09357,-4.81078 -14.33264,-12.74211 -11.70174,-17.71516c1.2205,-2.30701 11.64547,-9.83962 18.18715,-21.63822c7.55966,-13.63464 11.55806,-31.44406 16.4331,-28.86504c5.07189,2.68317 -15.83454,29.08058 -15.83492,47.00648c-0.00031,14.2142 21.51336,20.68394 20.34983,22.8833z" fill="#ea88c1" stroke="none"/><path d="M226.78959,-24.63717c4.28892,-8.10714 7.82267,-27.19743 15.37263,-30.29207c9.91622,-4.06455 24.13292,9.53932 29.78968,12.5319c9.96363,5.27107 0.84122,18.09321 -9.08076,36.84832c-4.25241,8.03814 -6.14701,18.29974 -11.70389,22.804c-7.40878,6.00536 -18.60882,4.62297 -24.30218,1.61102c-4.09033,-2.16389 -18.32439,-6.63522 -19.06592,-12.55468c-1.06476,-8.49966 13.14177,-19.89288 18.9905,-30.9485z" data-paper-data="{&quot;index&quot;:null}" fill="none" stroke="#000000"/></g><g data-paper-data="{&quot;index&quot;:null}"><path d="M272.54392,-22.63754c-11.88683,6.73722 -28.18518,-14.9026 -35.31873,-27.48865c-7.13353,-12.58605 -3.28022,-28.25067 8.60661,-34.98788c5.56457,-3.15389 36.19853,-11.75268 53.07494,-6.01886c19.17427,6.51452 24.65476,28.05863 28.44887,34.75278c7.13353,12.58605 -42.92487,27.0054 -54.8117,33.74265z" fill="#ff48b3" stroke="#000000"/><path d="M274.96219,-23.14499c-11.88683,6.73722 -28.2697,0.2953 -36.59215,-14.38844c-7.69899,-13.58372 -5.80297,-29.46211 3.93483,-37.0986c0.78856,-0.6184 -6.30599,-3.37668 -5.41548,-3.8814c11.88683,-6.73722 40.70916,-26.74989 49.03161,-12.06615c4.28045,7.55224 -32.21442,6.00729 -34.72201,20.52863c-1.05145,6.08871 -0.76453,16.4373 5.39956,25.16562c7.71802,10.92863 21.57337,19.92116 18.36367,21.74034z" fill="#bb1c79" stroke="none"/><path d="M271.56644,-22.48076c-11.88683,6.73722 -28.18518,-14.90264 -35.31873,-27.48867c-7.13353,-12.58605 -3.28022,-28.25067 8.60661,-34.98788c5.56459,-3.15391 36.19856,-11.7527 53.07494,-6.01886c19.17425,6.51455 24.65474,28.05863 28.44887,34.75278c7.13353,12.58605 -42.92487,27.00542 -54.8117,33.74265z" fill="none" stroke="#000000"/><path d="M268.85196,-31.45391c-9.78914,5.54829 -22.47963,1.65695 -28.34499,-8.69157c-5.86533,-10.34854 -15.09271,-26.23936 -5.30359,-31.78762c1.82563,-1.03474 18.67454,2.0797 28.93555,0.89177c15.73828,-1.82203 27.57791,-7.67016 36.58317,-6.504c16.60547,2.15037 14.51388,14.59728 17.60761,20.05572c5.86533,10.34854 -39.68862,20.48743 -49.47776,26.03572z" fill="#ff94d2" stroke="#000000"/><path d="M260.76408,-30.48726c-4.61488,2.61563 -13.56055,-4.4467 -19.98074,-15.77413c-6.42019,-11.32745 -7.88364,-22.63054 -3.26877,-25.24618c2.4162,-1.36948 3.05148,27.79712 22.49407,30.48352c17.69227,2.44457 54.28994,-21.91764 57.34873,-16.52088c6.42019,11.32745 -51.97839,24.44204 -56.59328,27.05767z" fill="#ea88c1" stroke="none"/><path d="M269.54243,-32.1171c-9.78914,5.54829 -22.47963,1.65695 -28.34499,-8.69162c-5.86535,-10.34852 -15.09271,-26.23931 -5.30357,-31.78762c1.82563,-1.03474 18.67454,2.07968 28.93555,0.89175c15.73828,-1.82203 27.57794,-7.67015 36.58319,-6.50398c16.60547,2.15037 14.51385,14.59725 17.60759,20.0557c5.86533,10.34854 -39.68862,20.48743 -49.47776,26.03572z" fill="none" stroke="#000000"/></g></g><g stroke-width="5.5" stroke-linecap="butt"><g><path d="M118.65495,-11.90759c7.71472,15.63723 18.93894,30.85277 15.55015,42.8941c-2.1309,7.57167 -15.66985,14.50747 -21.86795,17.56534c-9.45072,4.66257 -26.22532,4.48877 -37.00166,-3.97295c-7.53063,-5.91313 -9.6519,-17.32548 -14.82086,-27.80261c-5.9283,-12.01628 -15.37369,-31.22642 -14.67675,-41.77582c0.78034,-11.81131 12.51401,-14.49973 20.99457,-18.68366c6.62981,-3.27085 24.1779,-9.33545 31.99288,-5.8209c11.11008,4.99641 12.45283,22.64415 19.82966,37.59649z" data-paper-data="{&quot;index&quot;:null}" fill="#ff48b3" stroke="#000000"/><path d="M135.62955,14.29527c4.64493,9.41497 -4.6851,23.50807 -20.83922,31.4778c-16.15412,7.96973 -33.01507,6.79811 -37.66,-2.61687c-1.83731,-3.72407 41.65081,-5.46272 42.31464,-21.2625c0.47907,-11.40246 -6.31142,-47.36174 -28.69411,-58.04226c-11.23462,-5.3609 -43.63333,14.16481 -46.34009,9.10933c-3.31918,-6.19932 43.16346,-19.5206 46.00178,-20.92088c16.15412,-7.96973 40.57209,52.84038 45.21702,62.25539z" data-paper-data="{&quot;index&quot;:null}" fill="#bb1c79" stroke="none"/><path d="M119.19931,-11.75041c7.71472,15.63723 18.93894,30.85277 15.55013,42.89409c-2.1309,7.57167 -15.66985,14.50747 -21.86794,17.56536c-9.45072,4.66257 -26.2253,4.48875 -37.00166,-3.97297c-7.53063,-5.91313 -9.6519,-17.32548 -14.82086,-27.80259c-5.9283,-12.0163 -15.37371,-31.22642 -14.67675,-41.77582c0.78031,-11.81131 12.51404,-14.49973 20.99457,-18.68366c6.62983,-3.27087 24.17788,-9.33543 31.99286,-5.8209c11.11008,4.99643 12.45285,22.64411 19.82967,37.59646z" data-paper-data="{&quot;index&quot;:null}" fill="none" stroke="#000000"/><path d="M98.64755,-3.66182c5.53375,11.21658 19.41245,23.00698 18.10774,31.47311c-0.90865,5.89613 -15.26344,9.96314 -19.41333,12.01054c-5.77627,2.84975 -17.01091,3.91489 -24.2469,-2.29758c-5.4273,-4.65959 -7.03102,-14.97066 -11.0544,-23.12584c-9.38766,-19.02817 -18.14384,-32.10318 -8.03511,-37.09038c5.73911,-2.83142 20.33479,-16.02781 30.13213,-11.6845c7.45943,3.30691 10.45193,22.48949 14.50987,30.71463z" data-paper-data="{&quot;index&quot;:null}" fill="none" stroke="#000000"/><path d="M98.82102,-4.17312c5.53375,11.2166 19.41245,23.00698 18.10774,31.47311c-0.90865,5.89613 -15.26343,9.96316 -19.41331,12.01054c-5.77627,2.84975 -17.01091,3.91487 -24.2469,-2.29758c-5.4273,-4.65959 -7.03099,-14.97065 -11.0544,-23.12584c-9.38766,-19.02817 -18.14386,-32.10318 -8.03513,-37.09038c5.73911,-2.83142 20.33482,-16.02782 30.13215,-11.6845c7.45943,3.30689 10.45193,22.48949 14.50989,30.71465z" data-paper-data="{&quot;index&quot;:null}" fill="#ff94d2" stroke="#000000"/><path d="M98.12016,15.06463c0.50654,-17.91877 -19.64508,-44.89678 -14.49935,-47.43546c4.94599,-2.44014 8.43921,15.47521 15.6103,29.31818c6.20543,11.97887 16.41324,19.80327 17.56799,22.14386c2.48921,5.04546 -2.97202,12.82548 -12.19801,17.3772c-9.22599,4.55171 -24.98049,5.9404 -27.46971,0.89493c-1.10085,-2.23138 20.58714,-8.09018 20.98877,-22.2987z" fill="#ea88c1" stroke="none"/><path d="M99.02631,-4.53813c5.53375,11.2166 19.41243,23.00698 18.10772,31.47311c-0.90865,5.89613 -15.26344,9.96314 -19.41333,12.01054c-5.77627,2.84975 -17.01091,3.91487 -24.2469,-2.29758c-5.4273,-4.65959 -7.03097,-14.97065 -11.05438,-23.12584c-9.38766,-19.02817 -18.14385,-32.10316 -8.03513,-37.09036c5.73911,-2.83142 20.33479,-16.02781 30.13213,-11.6845c7.45943,3.30689 10.45193,22.48951 14.50989,30.71467z" data-paper-data="{&quot;index&quot;:null}" fill="none" stroke="#000000"/></g><g><path d="M1.088,-91.05746c6.75624,-3.68239 22.78419,-19.08658 42.50797,-14.49707c17.36007,4.03948 38.8381,27.51446 41.89912,33.13065c6.53884,11.9971 1.54193,27.33528 -11.1609,34.25873c-12.7028,6.92348 -37.9689,16.6981 -44.50774,4.70099c-6.53884,-11.99712 -41.44127,-50.66985 -28.73846,-57.59331z" fill="#ff48b3" stroke="#000000"/><path d="M28.04048,-35.17173c-1.7656,-3.23947 14.749,-3.56242 27.07322,-8.76968c9.84292,-4.15885 15.54974,-12.79644 17.87104,-18.52265c5.53627,-13.65678 -26.27441,-31.6107 -18.65212,-35.76511c14.81995,-8.07737 28.73384,24.13499 35.27268,36.1321c0.48986,0.89876 -6.99167,-0.50391 -6.64841,0.43758c4.23891,11.62635 -2.53316,26.11281 -16.2429,33.58507c-14.81997,8.07737 -32.13467,4.8998 -38.67351,-7.09732z" fill="#bb1c79" stroke="none"/><path d="M30.5739,-32.81497c-6.53884,-11.9971 -41.44127,-50.66985 -28.73846,-57.59331c6.75625,-3.68236 22.78418,-19.08656 42.50797,-14.49707c17.36007,4.03948 38.8381,27.51443 41.89912,33.13065c6.53884,11.9971 1.54193,27.33528 -11.1609,34.25873c-12.70283,6.92347 -37.96893,16.6981 -44.50776,4.70101z" fill="none" stroke="#000000"/><path d="M37.61632,-39.0028c-5.38491,-9.87996 -38.72147,-42.53934 -28.27692,-48.23198c5.50908,-3.00264 10.30357,-14.67796 25.54177,-7.73806c8.26379,3.76355 15.23189,14.98062 27.63654,24.83648c8.08754,6.4258 24.04148,12.67543 25.04574,14.51799c5.38491,9.87994 -10.84084,18.50478 -21.28537,24.19742c-10.44454,5.69264 -23.27684,2.2981 -28.66176,-7.58187z" fill="#ff94d2" stroke="#000000"/><path d="M10.19439,-86.76851c5.44682,-2.96872 23.66816,37.04241 39.98472,44.3062c17.93079,7.98239 33.86765,-16.45342 35.1968,-14.0148c2.53858,4.6577 -4.67137,13.48483 -16.1039,19.71595c-11.43254,6.23112 -22.75838,7.50663 -25.29699,2.84894c-2.53858,-4.65772 -45.21317,-46.62517 -33.78062,-52.85629z" fill="#ea88c1" stroke="none"/><path d="M37.38002,-39.93058c-5.38493,-9.87996 -38.72147,-42.53934 -28.27692,-48.23198c5.50908,-3.00264 10.30355,-14.67796 25.54175,-7.73806c8.26379,3.76355 15.23191,14.98062 27.63657,24.83648c8.08754,6.4258 24.04146,12.67546 25.04573,14.51802c5.38491,9.87996 -10.84081,18.50477 -21.28535,24.19741c-10.44456,5.69262 -23.27686,2.2981 -28.66178,-7.58187z" fill="none" stroke="#000000"/></g></g><g stroke-width="5.5"><g><g><g><path d="M116.22708,183.5659c0,0 -12.31885,0.78424 -14.45199,-6.51778c-2.2114,-7.56986 -1.28282,-26.34545 -1.28282,-26.34545l101.46993,1.47736c0,0 34.10807,-17.36815 34.75248,-11.42201c0.24418,2.25307 6.6012,16.38953 -2.17121,25.2755c-10.40296,10.53763 -36.2416,15.85938 -36.2416,15.85938c0,0 -10.96334,7.05275 -23.35823,8.69988c-14.25841,1.89478 -30.38705,-1.56209 -33.49938,-1.22478c-0.6171,0.06688 -25.21719,-5.8021 -25.21719,-5.8021z" fill="#ffffff" stroke="#000000" stroke-linecap="butt"/><path d="M174.3084,182.15685c38.35029,-4.15626 65.12105,-32.51423 66.06566,-23.79825c0.94461,8.71598 -30.40961,24.49566 -68.7599,28.65193c-38.35029,4.15626 -69.17422,-4.88479 -70.11882,-13.60077c-0.94461,-8.71598 34.46277,12.90335 72.81307,8.74709z" fill="#d6d6d6" stroke="none" stroke-linecap="butt"/><path d="M116.75776,182.84032c0,0 -12.31885,0.78424 -14.45199,-6.51778c-2.2114,-7.56986 -1.28282,-26.34545 -1.28282,-26.34545l101.46993,1.47736c0,0 34.10807,-17.36815 34.75248,-11.42201c0.24418,2.25307 6.6012,16.38953 -2.17121,25.2755c-10.40296,10.53763 -36.2416,15.85938 -36.2416,15.85938c0,0 -10.96334,7.05275 -23.35823,8.69988c-14.25841,1.89478 -30.38705,-1.56209 -33.49938,-1.22478c-0.6171,0.06688 -25.21719,-5.8021 -25.21719,-5.8021z" fill="none" stroke="#000000" stroke-linecap="butt"/><path d="M85.69283,97.63448c-3.58369,-33.06716 10.63728,-63.6024 34.41421,-80.4002c9.98168,-7.05179 21.64746,-11.68255 34.38705,-13.06322c43.08603,-4.6695 82.13892,29.60473 87.22707,76.55365c2.1486,19.82539 17.14955,35.56548 8.27573,51.1557c-12.14045,21.32926 -52.18516,39.61001 -77.07699,42.3077c-27.05377,2.93198 -71.88647,-7.39082 -88.35027,-28.66368c-9.75656,-12.60646 3.01648,-30.42032 1.12319,-47.88997z" fill="#ff48b3" stroke="#000000" stroke-linecap="butt"/><path d="M159.72874,62.11667c22.44826,-2.43286 41.96472,7.76152 43.59126,22.76979c1.62654,15.00827 -15.25278,29.14709 -37.70105,31.57994c-22.44826,2.43286 -41.96472,-7.76152 -43.59126,-22.76979c-1.62654,-15.00827 15.25278,-29.14709 37.70105,-31.57994z" fill="#bb1c79" stroke="none" stroke-linecap="butt"/><path d="M123.20714,56.59361c15.52136,-1.68214 30.05359,14.94414 32.45864,37.13584c2.40506,22.1917 -8.22781,41.54529 -23.74917,43.22744c-12.88072,1.39597 -30.21294,-0.80087 -35.36564,-17.33954c-1.05633,-3.39053 3.31616,-16.02086 2.90699,-19.79631c-2.40506,-22.1917 8.22781,-41.54529 23.74917,-43.22744z" fill="#000000" stroke="#000000" stroke-linecap="butt"/><path d="M141.42611,156.71901c35.29418,3.49107 73.52934,-4.47164 90.81492,-24.23555c9.10225,-10.40728 -0.63327,-57.98293 -18.00214,-90.18311c-11.34061,-21.02438 -34.35489,-32.49958 -28.40173,-33.14477c48.13749,-5.21696 67.08964,106.72202 67.86252,113.8535c0.77289,7.13148 -31.16026,43.29589 -79.29776,48.51285c-48.13751,5.21696 -94.25067,-22.48907 -95.02355,-29.62056c-0.25291,-2.33361 29.93966,11.64171 62.04772,14.81764z" fill="#bb1c79" stroke="none" stroke-linecap="butt"/><path d="M224.77271,83.96736c0.40917,3.77545 7.38602,15.17576 7.08058,18.71387c-1.48988,17.25857 -17.94903,23.11758 -30.82976,24.51355c-15.52138,1.68215 -30.05359,-14.94412 -32.45864,-37.13582c-2.40506,-22.1917 8.22781,-41.54529 23.74917,-43.22744c15.52136,-1.68214 30.05361,14.94414 32.45866,37.13584z" data-paper-data="{&quot;index&quot;:null}" fill="#000000" stroke="#000000" stroke-linecap="butt"/><path d="M154.49409,4.17101c43.08603,-4.6695 82.13892,29.60473 87.22707,76.55365c2.1486,19.82539 17.14955,35.56548 8.27573,51.1557c-12.14044,21.32928 -52.18515,39.61003 -77.07699,42.30772c-27.05377,2.93198 -71.88646,-7.39085 -88.35027,-28.66368c-9.75658,-12.60645 3.01648,-30.42032 1.12319,-47.88997c-5.08815,-46.94893 25.71523,-88.79392 68.80126,-93.46342z" fill="none" stroke="#000000" stroke-linecap="butt"/><path d="M101.64306,121.67978c20.68022,-13.63467 60.07981,-14.1055 82.61995,-16.54832c37.63837,-4.07911 56.45007,5.2009 58.42521,23.42579c1.97514,18.22488 -33.87608,39.23543 -71.51446,43.31454c-37.63835,4.07911 -78.4377,-7.17274 -80.41284,-25.39764c-0.79231,-7.31073 -2.97029,-15.66135 10.88215,-24.79438z" fill="#ff94d2" stroke="#000000" stroke-linecap="butt"/><path d="M93.64887,149.79774c-0.68494,-6.32003 33.89251,15.76792 75.42424,11.26687c12.90263,-1.39834 65.10026,-16.52774 67.28446,-31.61967c0.58228,-4.02335 -8.26443,-10.11231 -20.1993,-13.97653c-11.71067,-3.79165 -26.52723,-5.37446 -24.59303,-7.68203c5.67744,-6.77334 33.79269,7.53224 37.88626,5.34402c4.92023,-2.63011 14.40069,18.55562 14.59707,20.36762c0.68494,6.32005 -28.6064,33.00748 -70.13815,37.50853c-41.53173,4.50105 -79.57663,-14.88872 -80.26157,-21.20878z" fill="#ea88c1" stroke="none" stroke-linecap="butt"/><path d="M91.55606,147.1138c-0.79231,-7.31073 -2.97027,-15.66137 10.88215,-24.7944c1.94825,-1.28449 4.06262,-2.45215 6.31338,-3.51565c21.64072,-10.22525 55.8899,-10.81999 76.30656,-13.03266c37.63837,-4.07911 56.45007,5.2009 58.42521,23.42579c1.97514,18.22488 -33.87608,39.23543 -71.51446,43.31454c-37.63837,4.07911 -78.4377,-7.17274 -80.41284,-25.39764z" fill="none" stroke="#000000" stroke-linecap="butt"/><path d="M165.13602,143.53756c17.31722,-1.87677 31.87444,10.06224 32.66685,17.37396c0.79241,7.31173 -12.48003,7.22734 -29.79726,9.10412c-17.31722,1.87677 -31.49455,2.11617 -32.28697,-5.19555c-0.79241,-7.31171 12.10014,-19.40573 29.41737,-21.28251z" fill="#ff0000" stroke="#000000" stroke-linecap="butt"/><path d="M138.33412,167.98412c-0.47267,-4.36137 -5.89918,-16.75004 9.75046,-18.44609c7.04443,-0.76345 -0.82986,12.58897 8.20617,14.90372c11.03807,2.82762 38.4558,-4.99774 38.71571,-2.59955c0.47267,4.36139 -11.8307,9.27189 -27.48034,10.96794c-15.64964,1.69605 -28.71934,-0.46461 -29.19201,-4.826z" fill="#d00000" stroke="none" stroke-linecap="butt"/><path d="M165.15198,144.39842c17.31722,-1.87677 31.87444,10.06224 32.66685,17.37396c0.79241,7.31173 -12.48003,7.22734 -29.79726,9.10412c-17.31722,1.87677 -31.49455,2.11617 -32.28697,-5.19555c-0.79241,-7.31171 12.10014,-19.40573 29.41737,-21.28251z" fill="none" stroke="#000000" stroke-linecap="butt"/><path d="M131.07339,117.62127c-0.98705,-9.1076 13.49906,-18.14739 32.35558,-20.19099c18.85652,-2.0436 34.94293,3.68289 35.92997,12.79047c0.52336,4.82912 -9.8961,5.18384 -16.41799,8.942c-5.77824,3.32965 -7.07935,10.28897 -15.93757,11.24899c-6.33964,0.68707 -13.17165,-6.93656 -18.41651,-7.83926c-10.35541,-1.78225 -16.85828,1.09439 -17.51348,-4.95118z" fill="#222222" stroke="#000000" stroke-linecap="butt"/><path d="M133.6248,115.85753c-0.40316,-3.72001 16.88918,-0.65545 32.41053,-2.33759c15.52138,-1.68215 32.58401,-9.40995 32.98717,-5.68994c0.40316,3.71999 -14.92574,18.77201 -30.4471,20.45416c-6.33683,0.68677 -9.27849,-2.94967 -15.27786,-5.01166c-8.69542,-2.98862 -19.43415,-5.21371 -19.67271,-7.41496z" fill="#151515" stroke="none" stroke-linecap="butt"/><path d="M131.40285,117.03827c-0.98705,-9.1076 13.49906,-18.14739 32.35558,-20.19099c18.85652,-2.0436 34.94293,3.68289 35.92997,12.79047c0.52336,4.82912 -9.8961,5.18384 -16.41799,8.942c-5.77824,3.32965 -7.07935,10.28897 -15.93757,11.24899c-6.33964,0.68707 -13.17165,-6.93656 -18.41651,-7.83926c-10.35541,-1.78225 -16.85828,1.09439 -17.51348,-4.95118z" fill="none" stroke="#000000" stroke-linecap="butt"/><path d="M124.60951,172.70121l1.20733,11.14014" fill="none" stroke="#000000" stroke-linecap="round"/><path d="M157.48706,190.0699l-1.42292,-13.12945" fill="none" stroke="#000000" stroke-linecap="round"/><path d="M189.8824,173.27534l2.93792,8.53738" fill="none" stroke="#000000" stroke-linecap="round"/><path d="M219.1419,172.11697l-2.40091,-11.01078" fill="none" stroke="#000000" stroke-linecap="round"/><path d="M124.73116,82.9294c6.9418,-0.75232 13.16822,4.16473 13.90711,10.98256c0.73889,6.81783 -4.28956,12.95464 -11.23135,13.70697c-6.9418,0.75232 -13.16822,-4.16473 -13.90711,-10.98256c-0.73889,-6.81783 4.28956,-12.95464 11.23135,-13.70697z" fill="#652c45" stroke="none" stroke-linecap="butt"/><path d="M125.6718,88.90634c3.51572,-0.38102 6.67466,2.16014 7.05569,5.67588c0.38102,3.51572 -2.16014,6.67466 -5.67588,7.05569c-3.51572,0.38102 -6.67466,-2.16014 -7.05569,-5.67588c-0.38102,-3.51572 2.16014,-6.67466 5.67588,-7.05569z" fill="#ff9cc7" stroke="none" stroke-linecap="butt"/><path d="M194.97556,74.74231c6.9418,-0.75232 13.16822,4.16473 13.90711,10.98256c0.73889,6.81783 -4.28956,12.95464 -11.23135,13.70697c-6.94177,0.75232 -13.1682,-4.16473 -13.90709,-10.98256c-0.73889,-6.81781 4.28956,-12.95464 11.23133,-13.70697z" fill="#652c45" stroke="none" stroke-linecap="butt"/><path d="M195.01333,80.52324c3.51574,-0.38103 6.68875,2.2902 7.08716,5.96635c0.39841,3.67613 -2.12869,6.96513 -5.64441,7.34615c-3.51572,0.38102 -6.68875,-2.2902 -7.08716,-5.96635c-0.39841,-3.67615 2.12869,-6.96513 5.64441,-7.34615z" fill="#ff9cc7" stroke="none" stroke-linecap="butt"/></g><path d="M218.62375,32.35253l-7.85344,22.94035" fill="none" stroke="#000000" stroke-linecap="round"/></g><path d="M135.89215,58.23805l6.03425,-18.04336" fill="none" stroke="#000000" stroke-linecap="round"/><path d="M126.40021,57.38688l-7.53772,-17.51245" fill="none" stroke="#000000" stroke-linecap="round"/><path d="M118.80529,61.02988l-13.17383,-13.14177" fill="none" stroke="#000000" stroke-linecap="round"/></g><path d="M187.09084,53.62935l-9.89928,-21.95635" fill="none" stroke="#000000" stroke-linecap="round"/><path d="M195.36308,47.56299l4.75278,-21.19437" fill="none" stroke="#000000" stroke-linecap="round"/></g><g fill="none" stroke="none" stroke-width="1" stroke-linecap="butt" font-family="sans-serif" font-weight="normal" font-size="12" text-anchor="start"/></g><path d="M248.11232,178.37774c0.55036,5.07821 -10.40598,12.81552 -16.46565,17.58334c-11.81087,9.29289 -26.67216,14.52692 -53.15848,17.3974c-40.0754,4.34322 -73.87867,-4.27644 -75.50173,-19.25255c-0.55792,-5.14796 -15.31179,-25.83759 -9.08997,-30.65997c6.70109,-5.19383 4.50289,16.24049 19.23795,28.27487c11.38412,9.29758 50.5641,12.35355 62.02686,11.11126c18.75674,-2.03278 46.13037,-6.11309 59.2535,-22.46383c9.0325,-11.25403 5.99772,-36.6827 10.23096,-37.48c2.75722,-0.5193 3.12599,32.34721 3.46655,35.48951z" fill="none" stroke="#000000" stroke-width="5.5" stroke-linecap="butt"/></g></g></g></svg>