<svg version="1.1" xmlns="http://www.w3.org/2000/svg" xmlns:xlink="http://www.w3.org/1999/xlink" width="479.95683" height="708.64975" viewBox="0,0,479.95683,708.64975"><g transform="translate(134.95862,44.0455)"><g data-paper-data="{&quot;isPaintingLayer&quot;:true}" fill-rule="nonzero" stroke-width="4.5" stroke-linejoin="miter" stroke-miterlimit="10" stroke-dasharray="" stroke-dashoffset="0" style="mix-blend-mode: normal"><g><path d="M225.25082,382.0801l-59.85919,-152.73637l42.15575,-18.10155l59.85919,152.73637z" data-paper-data="{&quot;index&quot;:null}" fill="#1b1b1b" stroke="#000000" stroke-linecap="butt"/><g data-paper-data="{&quot;index&quot;:null}"><g stroke-linecap="butt"><path d="M267.67984,345.49128c1.73743,16.34505 -9.99273,48.90697 -24.92549,50.49427c-14.93274,1.5873 -69.16778,-139.13108 -70.9052,-155.47611c-1.11584,-10.49742 -4.42204,-21.37631 2.54789,-27.43072c3.88261,-3.37263 16.00197,-4.47079 21.34434,-5.03866c7.74984,-0.82378 3.19838,57.32786 19.55538,91.2141c15.16039,31.40727 51.54738,38.37492 52.3831,46.23713z" fill="#840000" stroke="#000000"/><path d="M267.92993,339.0849c2.7485,25.85683 -10.07525,48.41796 -25.64471,50.07295c-15.5695,1.65499 -66.9922,-121.56739 -69.74071,-147.42425c-1.81341,-17.05982 24.36379,55.11996 47.68741,97.80875c12.02706,22.01283 24.19071,27.63428 29.48779,27.07121c15.5695,-1.65499 15.46172,-53.3855 18.21022,-27.52863z" fill="#430000" stroke="none"/><path d="M267.54541,344.2259c1.73743,16.34505 -9.99273,48.90697 -24.92549,50.49427c-14.93272,1.5873 -69.16778,-139.13108 -70.9052,-155.47611c-0.941,-8.85256 -15.29779,-21.07653 -10.24642,-27.09828c4.2753,-5.09658 27.29354,-4.64348 34.13862,-5.37109c8.18933,-0.8705 4.33297,59.47426 21.3025,95.32081c13.97326,29.51722 49.85139,34.74926 50.63598,42.13042z" fill="none" stroke="#000000"/></g><path d="M216.41569,298.29172l-15.42011,13.02654" fill="none" stroke="#000000" stroke-linecap="round"/></g></g><g><g stroke-linecap="butt"><path d="M60.63408,195.60905c8.14155,2.35854 23.75895,8.44168 27.53453,15.25883c3.72021,6.71714 -4.32443,14.1272 -6.61149,22.02204c-4.60818,15.90721 -87.48475,144.69527 -103.64841,140.0128c-16.16366,-4.68247 -23.69354,-39.52851 -19.08536,-55.4357c4.60818,-15.90721 85.64708,-126.54046 101.81071,-121.858z" fill="#840000" stroke="#000000"/><path d="M-24.90631,342.22164c5.73373,1.66101 20.04097,-1.4067 36.90267,-20.81716c32.69926,-37.64203 73.40361,-104.04344 68.59392,-87.44063c-7.28985,25.16419 -84.89409,139.56747 -101.747,134.68533c-16.8529,-4.88214 -26.52772,-32.44618 -19.23787,-57.61037c7.28985,-25.16419 -1.36463,26.30068 15.48826,31.18281z" fill="#430000" stroke="none"/><path d="M60.9908,194.37759c7.58737,2.198 25.15787,7.05573 29.00764,13.22268c4.35154,6.97071 -5.63957,15.61794 -8.08463,24.05815c-4.60818,15.90721 -87.48475,144.69527 -103.64841,140.0128c-16.16366,-4.68247 -23.69354,-39.52851 -19.08536,-55.4357c4.60818,-15.90721 85.64708,-126.54046 101.81071,-121.858z" fill="none" stroke="#000000"/></g><path d="M37.81299,297.30992l-34.6981,-47.81027" fill="none" stroke="#000000" stroke-linecap="round"/></g><g><path d="M-68.24784,360.92531c5.25152,-19.68093 24.04796,-31.75596 41.983,-26.97028c17.93504,4.78565 28.21708,24.61977 22.96556,44.3007c-5.25152,19.68095 -24.04799,31.75596 -41.98302,26.97028c-17.93506,-4.78565 -28.21708,-24.61977 -22.96556,-44.3007z" fill="#840000" stroke="#000000" stroke-linecap="butt"/><path d="M-69.04373,375.09021c2.96455,-11.11021 4.94168,-43.01104 20.81341,-38.77593c2.66285,0.71053 -6.74021,11.76259 -8.48563,25.18669c-1.65563,12.73344 4.32777,27.80096 7.08542,31.01032c11.66354,13.57403 40.05884,-9.56258 38.06341,-2.08442c-2.96458,11.11018 -18.2344,16.68358 -34.10613,12.44847c-15.87173,-4.23511 -26.33506,-16.67494 -23.37048,-27.78515z" fill="#430000" stroke="none" stroke-linecap="butt"/><path d="M-26.8301,335.79078c17.93506,4.78565 28.21708,24.61977 22.96556,44.3007c-5.25152,19.68095 -24.04794,31.75596 -41.983,26.97028c-17.93506,-4.78565 -28.21708,-24.61977 -22.96556,-44.3007c5.25152,-19.68095 24.04794,-31.75596 41.983,-26.97028z" fill="none" stroke="#000000" stroke-linecap="butt"/><g><path d="M-6.00538,416.08011c3.98099,-14.91941 -21.5899,-29.15708 -14.28889,-27.20894c3.41233,0.91051 15.43521,-13.9638 24.70144,-8.1343c10.55977,6.6433 18.14702,34.45168 16.02666,42.3981c-3.98099,14.91943 -13.12683,25.43471 -20.42784,23.48657c-7.30101,-1.94814 -9.9924,-15.62199 -6.01141,-30.54143z" fill="#840000" stroke="#000000" stroke-linecap="butt"/><path d="M-17.26114,391.49697c-2.69463,-7.45136 6.00448,-9.59239 7.51882,-9.18832c4.12666,1.10113 24.25175,47.55639 22.60006,53.74636c-1.65169,6.18997 -6.33597,10.31529 -10.46261,9.21416c-4.12664,-1.10113 -7.32275,-6.41685 -5.67106,-12.60682c1.04557,-3.91847 -8.92257,-27.16571 -13.98522,-41.1654z" fill="#430000" stroke="none" stroke-linecap="butt"/><path d="M-20.87965,388.48084c3.41233,0.91051 15.43521,-13.9638 24.70144,-8.1343c10.55977,6.6433 18.14702,34.45168 16.02666,42.3981c-3.98099,14.91941 -13.12685,25.43471 -20.42784,23.48657c-7.30099,-1.94814 -9.99237,-15.62202 -6.01138,-30.54143c3.98099,-14.91941 -21.58987,-29.15708 -14.28889,-27.20894z" fill="none" stroke="#000000" stroke-linecap="butt"/><path d="M-4.36605,411.96709l21.72788,-5.28469" fill="none" stroke="#000000" stroke-linecap="round"/></g><g data-paper-data="{&quot;index&quot;:null}"><path d="M-84.86939,405.69848c0.8888,15.41584 -4.50621,28.26542 -12.05015,28.70034c-7.54392,0.43495 -14.37998,-11.70943 -15.26877,-27.12527c-0.4734,-8.21082 12.56874,-33.91635 24.25175,-38.29238c10.25187,-3.83995 19.02628,13.15432 22.55213,12.95103c7.54392,-0.43495 -20.3738,8.35044 -19.48498,23.76623z" fill="#840000" stroke="#000000" stroke-linecap="butt"/><path d="M-90.88854,421.389c0.36876,6.39593 -3.83418,10.95744 -8.09812,11.20329c-4.26394,0.24585 -8.01951,-4.73978 -8.38827,-11.13571c-0.36876,-6.39593 28.71573,-47.83506 32.9797,-48.08091c1.56471,-0.09022 9.6529,3.76199 5.51022,10.51639c-7.78325,12.69026 -22.23698,33.44809 -22.00356,37.49694z" fill="#430000" stroke="none" stroke-linecap="butt"/><path d="M-84.21733,405.4343c0.88882,15.41581 -4.50621,28.26542 -12.05013,28.70036c-7.5439,0.43495 -14.37998,-11.70946 -15.26877,-27.12527c-0.4734,-8.21082 12.56874,-33.91635 24.25175,-38.29238c10.25187,-3.83995 19.02628,13.15432 22.55213,12.95103c7.5439,-0.43495 -20.3738,8.35044 -19.48498,23.76623z" fill="none" stroke="#000000" stroke-linecap="butt"/><path d="M-105.85982,391.77925l20.21468,9.56006" fill="none" stroke="#000000" stroke-linecap="round"/></g><g data-paper-data="{&quot;index&quot;:null}"><path d="M-53.14752,419.6075c3.98099,14.91943 1.2896,28.59329 -6.01141,30.54143c-7.30101,1.94814 -16.44684,-8.56713 -20.42784,-23.48657c-2.12036,-7.94642 5.46689,-35.7548 16.02666,-42.3981c9.26623,-5.8295 21.28912,9.04481 24.70144,8.1343c7.30101,-1.94814 -18.26988,12.28953 -14.28889,27.20894z" fill="#840000" stroke="#000000" stroke-linecap="butt"/><path d="M-55.87701,436.18983c1.65169,6.18997 -1.54442,11.50569 -5.67106,12.60684c-4.12664,1.10113 -8.81091,-3.02419 -10.46261,-9.21416c-1.65169,-6.18997 18.4734,-52.64524 22.60006,-53.74636c1.51434,-0.40407 10.21345,1.73693 7.51882,9.18829c-5.06265,13.99969 -15.03079,37.24693 -13.98522,41.1654z" fill="#430000" stroke="none" stroke-linecap="butt"/><path d="M-52.56217,419.21712c3.98099,14.91941 1.2896,28.59329 -6.01138,30.54143c-7.30099,1.94814 -16.44684,-8.56716 -20.42784,-23.48657c-2.12036,-7.94642 5.46689,-35.7548 16.02666,-42.3981c9.26623,-5.8295 21.28912,9.04481 24.70144,8.1343c7.30099,-1.94814 -18.26988,12.28953 -14.28889,27.20894z" fill="none" stroke="#000000" stroke-linecap="butt"/><path d="M-76.51477,410.20984l21.72788,5.28469" fill="none" stroke="#000000" stroke-linecap="round"/></g><g data-paper-data="{&quot;index&quot;:null}"><path d="M-26.81095,425.66935c9.29743,12.32865 11.94365,26.01132 5.91048,30.56113c-6.03317,4.54981 -18.46105,-1.75615 -27.75848,-14.0848c-4.95201,-6.5665 -8.37482,-35.18743 -1.08688,-45.31305c6.39521,-8.88524 23.12772,0.37852 25.9475,-1.74796c6.03317,-4.54981 -12.31005,18.25606 -3.01261,30.58468z" fill="#840000" stroke="#000000" stroke-linecap="butt"/><path d="M-23.10668,442.06152c3.85746,5.11506 2.89401,11.24239 -0.51603,13.814c-3.41003,2.57164 -9.30152,0.50978 -13.15895,-4.60529c-3.85746,-5.11506 -2.67167,-55.72835 0.73839,-58.29998c1.25138,-0.9437 10.11725,-2.22985 10.42135,5.68794c0.57136,14.87598 0.07333,40.16532 2.51521,43.40333z" fill="#430000" stroke="none" stroke-linecap="butt"/><path d="M-26.41529,425.08764c9.29743,12.32862 11.94365,26.01132 5.91051,30.5611c-6.03314,4.54981 -18.46105,-1.75618 -27.75848,-14.0848c-4.95201,-6.5665 -8.37482,-35.18743 -1.08688,-45.31305c6.39521,-8.88524 23.12772,0.37852 25.9475,-1.74796c6.03314,-4.54981 -12.31005,18.25606 -3.01261,30.58468z" fill="none" stroke="#000000" stroke-linecap="butt"/><path d="M-29.8762,422.47434l-22.12082,3.27074" fill="none" stroke="#000000" stroke-linecap="round"/></g></g><g data-paper-data="{&quot;index&quot;:null}"><path d="M298.79529,387.28695c5.25152,19.68093 -5.0305,39.51505 -22.96556,44.3007c-17.93504,4.78567 -36.7315,-7.28933 -41.98302,-26.97028c-5.25152,-19.68093 5.03053,-39.51505 22.96556,-44.3007c17.93504,-4.78567 36.73148,7.28936 41.983,26.97028z" fill="#840000" stroke="#000000" stroke-linecap="butt"/><path d="M299.59115,401.45188c2.96458,11.11021 -7.49875,23.55004 -23.37048,27.78515c-15.87173,4.23511 -31.14155,-1.33829 -34.10613,-12.44847c-1.99543,-7.47816 26.39987,15.65845 38.06341,2.08442c2.75765,-3.20936 8.74104,-18.27688 7.08542,-31.01032c-1.74542,-13.4241 -11.14848,-24.47616 -8.48563,-25.18669c15.87173,-4.23511 17.84885,27.66572 20.81341,38.77593z" fill="#430000" stroke="none" stroke-linecap="butt"/><path d="M299.36057,389.12283c5.25152,19.68093 -5.0305,39.51505 -22.96556,44.3007c-17.93506,4.78567 -36.73148,-7.28933 -41.983,-26.97028c-5.25152,-19.68093 5.0305,-39.51505 22.96556,-44.3007c17.93506,-4.78567 36.73148,7.28933 41.983,26.97028z" fill="none" stroke="#000000" stroke-linecap="butt"/><g><path d="M236.55283,442.44177c3.98099,14.91943 1.2896,28.59329 -6.01141,30.54143c-7.30101,1.94814 -16.44684,-8.56713 -20.42784,-23.48657c-2.12036,-7.94642 5.46689,-35.7548 16.02666,-42.3981c9.26623,-5.8295 21.28912,9.04481 24.70144,8.1343c7.30101,-1.94814 -18.26988,12.28953 -14.28889,27.20894z" fill="#840000" stroke="#000000" stroke-linecap="butt"/><path d="M233.8234,459.0241c1.65169,6.18997 -1.54442,11.50569 -5.67106,12.60684c-4.12664,1.10113 -8.81091,-3.02419 -10.46261,-9.21416c-1.65169,-6.18997 18.4734,-52.64524 22.60006,-53.74636c1.51434,-0.40407 10.21342,1.73693 7.5188,9.18829c-5.06265,13.99969 -15.03079,37.24693 -13.98522,41.1654z" fill="#430000" stroke="none" stroke-linecap="butt"/><path d="M237.13823,442.05139c3.98099,14.91941 1.2896,28.59329 -6.01138,30.54143c-7.30099,1.94814 -16.44684,-8.56716 -20.42784,-23.48657c-2.12036,-7.94642 5.46689,-35.7548 16.02666,-42.3981c9.26623,-5.8295 21.28912,9.04481 24.70144,8.1343c7.30099,-1.94814 -18.26988,12.28953 -14.28889,27.20894z" fill="none" stroke="#000000" stroke-linecap="butt"/><path d="M234.9135,438.3288l-21.72788,-5.28469" fill="none" stroke="#000000" stroke-linecap="round"/></g><g data-paper-data="{&quot;index&quot;:null}"><path d="M315.41679,432.06014c0.88882,-15.41581 -27.0289,-24.20118 -19.48498,-23.76623c3.52585,0.20329 12.30026,-16.791 22.55213,-12.95105c11.68301,4.376 24.72512,30.08156 24.25175,38.29235c-0.88882,15.41581 -7.72488,27.56022 -15.26877,27.12527c-7.54392,-0.43495 -12.93895,-13.28453 -12.05015,-28.70034z" fill="#840000" stroke="#000000" stroke-linecap="butt"/><path d="M299.43238,410.25378c-4.14268,-6.75441 3.94551,-10.60661 5.51022,-10.51639c4.26397,0.24585 33.34846,41.68498 32.9797,48.08091c-0.36876,6.39593 -4.12432,11.38156 -8.38827,11.13571c-4.26394,-0.24585 -8.46688,-4.80734 -8.09812,-11.20327c0.23345,-4.04885 -14.22029,-24.80668 -22.00356,-37.49694z" fill="#430000" stroke="none" stroke-linecap="butt"/><path d="M295.27977,408.02971c3.52587,0.20329 12.30026,-16.791 22.55215,-12.95105c11.68301,4.376 24.72512,30.08156 24.25175,38.29238c-0.88882,15.41581 -7.72488,27.56019 -15.2688,27.12524c-7.5439,-0.43495 -12.93892,-13.28455 -12.0501,-28.70034c0.8888,-15.41581 -27.0289,-24.20118 -19.48498,-23.76623z" fill="none" stroke="#000000" stroke-linecap="butt"/><path d="M316.19253,427.70102l20.21471,-9.56006" fill="none" stroke="#000000" stroke-linecap="round"/></g><g data-paper-data="{&quot;index&quot;:null}"><path d="M283.695,445.96914c3.98099,-14.91941 -21.5899,-29.15708 -14.28889,-27.20894c3.41233,0.91051 15.43521,-13.9638 24.70144,-8.1343c10.55977,6.6433 18.14702,34.45168 16.02666,42.3981c-3.98099,14.91943 -13.12683,25.43471 -20.42784,23.48657c-7.30101,-1.94814 -9.9924,-15.62199 -6.01141,-30.54143z" fill="#840000" stroke="#000000" stroke-linecap="butt"/><path d="M272.43919,421.38612c-2.69463,-7.45136 6.00446,-9.59239 7.5188,-9.18832c4.12666,1.10113 24.25175,47.55639 22.60006,53.74636c-1.65169,6.18997 -6.33597,10.31529 -10.46261,9.21416c-4.12664,-1.10113 -7.32275,-6.41687 -5.67106,-12.60684c1.04557,-3.91847 -8.92255,-27.16571 -13.98519,-41.1654z" fill="#430000" stroke="none" stroke-linecap="butt"/><path d="M268.82076,418.3699c3.41233,0.91051 15.43521,-13.9638 24.70144,-8.1343c10.55977,6.6433 18.14702,34.45168 16.02666,42.3981c-3.98099,14.91941 -13.12685,25.43471 -20.42784,23.48657c-7.30099,-1.94814 -9.99237,-15.62202 -6.01138,-30.54143c3.98099,-14.91941 -21.58987,-29.15708 -14.28889,-27.20894z" fill="none" stroke="#000000" stroke-linecap="butt"/><path d="M285.33428,441.85617l21.72788,-5.28469" fill="none" stroke="#000000" stroke-linecap="round"/></g><g data-paper-data="{&quot;index&quot;:null}"><path d="M257.35842,452.03112c9.29743,-12.32862 -9.04581,-35.13449 -3.01261,-30.58468c2.81978,2.12646 19.55231,-7.13729 25.9475,1.74793c7.28796,10.12562 3.86513,38.74652 -1.08688,45.31303c-9.29743,12.32865 -21.72531,18.63461 -27.7585,14.08482c-6.03319,-4.54981 -3.38695,-18.23248 5.91048,-30.56113z" fill="#840000" stroke="#000000" stroke-linecap="butt"/><path d="M256.16937,425.01987c0.30409,-7.91779 9.16999,-6.63164 10.42137,-5.68794c3.41006,2.57164 4.59583,53.18492 0.73839,58.29998c-3.85743,5.11506 -9.74892,7.17693 -13.15895,4.60529c-3.41003,-2.57164 -4.37348,-8.69893 -0.51603,-13.814c2.4419,-3.23802 1.94388,-28.52733 2.51524,-43.40333z" fill="#430000" stroke="none" stroke-linecap="butt"/><path d="M253.9501,420.86467c2.81978,2.12646 19.55229,-7.13729 25.9475,1.74793c7.28794,10.12562 3.86513,38.74652 -1.08688,45.31303c-9.29743,12.32862 -21.72534,18.63461 -27.7585,14.08482c-6.03314,-4.54981 -3.38693,-18.2325 5.91051,-30.56113c9.29743,-12.32862 -9.04578,-35.13447 -3.01261,-30.58468z" fill="none" stroke="#000000" stroke-linecap="butt"/><path d="M260.42362,448.83603l22.12084,3.27076" fill="none" stroke="#000000" stroke-linecap="round"/></g></g><g stroke-linecap="butt"><path d="M73.88944,389.0693l22.63723,-120.74181l56.29179,10.55384l-22.63723,120.74181z" fill="#1b1b1b" stroke="#000000"/><g><path d="M16.62169,377.39757l7.80067,-41.60698l137.05827,25.69631l-7.80067,41.60698z" fill="#1b1b1b" stroke="#000000"/><g><path d="M23.92642,344.8875c6.25462,-33.36074 26.00762,-111.73563 53.92286,-141.87337c19.82993,-21.4087 46.47368,-1.95787 63.23767,1.18512c21.518,4.03429 45.49843,-8.60099 49.94752,28.85579c3.89647,32.80429 0.45715,109.48179 -4.5375,136.12212c-10.69767,57.05893 -43.78644,49.21825 -84.14968,41.65076c-28.04785,-5.25854 18.63335,-106.98799 5.24555,-127.01017c-5.87837,-8.7914 -86.93039,78.4792 -83.66639,61.06974z" fill="#840000" stroke="#000000"/><path d="M111.98503,279.27683c1.35776,-7.24196 -7.27659,-9.14523 -22.61493,4.17965c-11.29667,9.81374 -47.99168,52.57686 -51.224,50.49091c-12.24216,-7.90035 34.7353,-90.28356 49.0899,-107.7971c14.3867,-17.55269 32.51754,-12.93047 44.49705,-10.6845c14.20318,2.66288 31.28763,2.51099 38.67552,27.14752c8.93113,29.78278 6.2781,87.07378 0.8376,116.09218c-9.94093,53.02263 -44.13913,54.65417 -75.51238,48.77217c-5.85386,-1.09751 6.04209,-8.11029 4.03291,-8.76805c-8.75887,-2.86743 -1.78128,0.28175 6.3048,-42.84752z" fill="#7d3c3c" stroke="#000000"/><path d="M31.9189,339.30537c1.44123,-7.68721 12.71939,-41.01032 30.59479,-70.07627c10.33628,-16.80711 18.46806,-36.47375 29.99419,-46.73318c9.66481,-8.60268 22.98784,-9.3498 29.65341,-8.30137c0.95511,0.15021 25.27852,-7.47304 26.24092,-7.29261c29.54088,5.53846 30.02068,44.33146 26.94714,60.72503c-3.07354,16.39356 -35.35453,-21.53536 -64.89541,-27.07382c-20.58894,-3.86011 -30.55793,15.49727 -37.3027,25.03732c-2.93257,4.14795 -31.47174,54.08557 -30.54035,49.11774z" fill="#5c2c2c" stroke="none"/><path d="M26.68831,352.90824c2.68302,-14.3106 23.31803,-155.17778 66.61677,-147.05993c8.00207,1.50027 -13.5079,25.67986 -28.24248,58.49107c-7.12739,15.8714 -38.08356,69.02607 -29.05681,67.95853c6.47128,-0.76532 38.26635,-30.10277 49.51048,-40.4552c12.61854,-11.61787 21.8289,-27.39427 24.45913,-21.03828c6.40219,15.47108 -9.11598,70.41421 -8.9229,101.75501c0.05706,9.26169 6.27934,13.50711 8.86333,17.7513c18.13021,29.77879 70.36416,4.5954 69.39026,9.78993c-2.68302,14.3106 -39.95861,19.33081 -83.25735,11.21296c-17.09939,-3.20587 -3.06316,-16.03624 -0.0139,-37.13245c3.92406,-27.14849 11.27287,-68.28439 13.03186,-86.16304c0.33527,-3.40778 -3.91271,-6.79183 -3.65281,-8.17805z" fill="#430000" stroke="none"/><path d="M101.47939,375.09287c0.83281,-4.44203 7.44411,-8.81503 2.51505,-9.47873c-5.51723,-0.74292 -21.87637,2.66496 -4.6455,5.89548c32.62481,6.11665 68.11113,-7.92728 66.34613,1.48684c-0.85283,4.54879 -6.75662,21.08926 -19.91897,28.68666c-14.07829,8.12608 -26.01506,8.09885 -42.87597,4.93769c-15.49681,-2.90541 -8.63956,-15.72451 -8.96942,-24.02402c-0.05673,-1.42734 9.74335,0.39611 8.39185,-0.91316c-7.33416,-7.10501 -5.99601,1.58891 -5.21357,-2.58446z" fill="#5c2c2c" stroke="none"/><path d="M87.64098,225.70026c14.38667,-17.5527 32.51752,-12.93047 44.49702,-10.6845c14.2032,2.66288 31.28765,2.51099 38.67554,27.14752c8.93111,29.78278 6.27807,87.0738 0.83757,116.0922c-4.25594,22.70023 -12.958,35.98103 -23.98101,43.28544c-14.72425,9.75704 -33.58975,8.85051 -51.53137,5.48673c-7.48558,-1.40343 -4.97751,-12.0614 -2.85971,-26.54419c4.7085,-32.19966 20.95838,-84.11024 16.55188,-100.95181c-1.18761,-4.53901 -35.68591,19.39189 -55.96614,41.51161c-12.47669,13.60835 -26.21453,26.44455 -25.34016,21.78085c6.14509,-32.77653 35.82563,-88.70763 59.11638,-117.12385z" fill="none" stroke="#000000"/><path d="M79.61652,203.0575c19.82993,-21.40873 46.47366,-1.9579 63.23768,1.18509c21.518,4.03429 45.49843,-8.60101 49.94752,28.85579c3.89647,32.80429 0.45712,109.48181 -4.53753,136.12214c-4.31939,23.03866 -12.28919,35.49676 -22.91437,41.66437c-1.42819,0.82904 -2.9044,1.54441 -4.42612,2.15656c-15.19556,6.11261 -34.93405,1.93109 -56.80919,-2.17016c-16.64176,-3.12007 13.17322,-106.76362 7.93879,-134.07117c-3.36704,-17.56556 -42.18956,39.55779 -47.65089,32.25055c-6.64079,-8.88537 -42.15861,54.28105 -38.70873,35.88019c6.25462,-33.36072 26.00762,-111.73561 53.92285,-141.87335z" fill="none" stroke="#000000"/></g></g><g><path d="M191.40811,273.44919c-1.37952,7.35805 -9.43199,48.31558 -25.9435,45.21992c-16.51148,-3.09565 -35.22935,-49.07223 -33.84984,-56.43025c1.37952,-7.35805 34.42885,-37.82222 50.94034,-34.72657c16.51148,3.09565 10.23252,38.57885 8.853,45.9369z" data-paper-data="{&quot;index&quot;:null}" fill="#410000" stroke="#000000"/><path d="M89.91136,210.56188c16.51148,3.09565 36.28111,43.46256 34.90159,50.82061c-1.37952,7.35805 -35.4806,43.43186 -51.99208,40.33621c-16.51148,-3.09565 -9.1808,-44.1885 -7.80128,-51.54655c1.37952,-7.35802 8.38027,-42.70593 24.89178,-39.61027z" fill="#410000" stroke="#000000"/><path d="M190.99064,273.78976c-1.37952,7.35805 -9.43199,48.31558 -25.9435,45.21992c-16.51146,-3.09564 -35.22936,-49.0722 -33.84984,-56.43025c1.37952,-7.35805 34.42885,-37.82222 50.94034,-34.72657c16.51148,3.09565 10.23252,38.57885 8.853,45.9369z" data-paper-data="{&quot;index&quot;:null}" fill="none" stroke="#000000"/><path d="M90.17712,211.03054c16.51146,3.09564 36.28108,43.46256 34.90156,50.8206c-1.37952,7.35805 -35.4806,43.43186 -51.99206,40.33622c-16.51148,-3.09565 -9.1808,-44.1885 -7.80128,-51.54655c1.37952,-7.35802 8.38029,-42.70592 24.89178,-39.61027z" fill="none" stroke="#000000"/><path d="M84.42154,210.67731c2.16694,0.40627 -8.34294,19.8801 -11.18542,31.35849c-4.93802,19.94065 -4.38739,37.34279 -0.89942,43.91073c8.13677,15.32179 44.1132,-20.56381 43.00813,-14.6696c-1.85146,9.87527 -26.72312,30.9196 -41.4363,28.16111c-14.71321,-2.7585 -13.69635,-28.27524 -11.84488,-38.15051c1.85147,-9.87529 7.64472,-53.36872 22.3579,-50.61023z" fill="#170000" stroke="none"/><path d="M190.13698,284.88045c-1.85147,9.87529 -10.14675,34.02742 -24.85993,31.26892c-14.71318,-2.75849 -30.27269,-31.38303 -28.42123,-41.25832c1.10507,-5.89422 21.63914,40.58623 34.77342,29.25244c5.6302,-4.85842 12.44716,-20.87925 15.06772,-41.25439c1.50846,-11.72851 -1.2335,-33.68685 0.93339,-33.28059c14.71318,2.75849 4.35809,45.39667 2.50663,55.27194z" data-paper-data="{&quot;index&quot;:null}" fill="#170000" stroke="none"/><g><path d="M134.21453,241.36949c10.62618,1.99224 17.26864,14.12428 14.83632,27.0977c-2.43231,12.9734 -13.0183,21.87539 -23.6445,19.88314c-10.62618,-1.99224 -17.26864,-14.12428 -14.83632,-27.0977c2.43231,-12.97337 13.01833,-21.87538 23.6445,-19.88314z" fill="#410000" stroke="#000000"/><path d="M133.88826,241.7272c10.62618,1.99224 17.26864,14.12428 14.83632,27.0977c-2.43231,12.9734 -13.01833,21.87538 -23.6445,19.88314c-10.62618,-1.99224 -17.26864,-14.12428 -14.83632,-27.0977c2.43231,-12.9734 13.01833,-21.87538 23.6445,-19.88314z" fill="none" stroke="#000000"/><path d="M110.14773,266.31037c1.81516,-9.68167 6.63617,-27.78997 17.09888,-25.82837c3.27941,0.61484 -8.96455,18.28794 -9.9422,27.10131c-0.72104,6.49995 8.05776,12.55765 9.82718,15.75647c3.4858,6.30177 21.73159,-14.33482 20.90497,-9.92581c-1.81516,9.68165 -11.76834,15.93996 -22.23105,13.97836c-10.46271,-1.9616 -17.47294,-11.40031 -15.65778,-21.08193z" fill="#170000" stroke="none"/></g></g></g><g><path d="M147.02242,145.88959c31.27818,6.67191 53.59613,26.32303 49.84852,43.89201c-3.74761,17.56896 -32.14165,26.40277 -63.41983,19.73086c-31.27818,-6.67191 -53.59613,-26.32303 -49.84852,-43.89201c3.74761,-17.56896 32.14165,-26.40277 63.41983,-19.73086z" fill="#000000" stroke="#000000" stroke-linecap="butt"/><path d="M80.33019,162.47c9.89742,-1.36617 40.31334,20.69193 60.38799,25.76334c22.4299,5.66643 34.69888,-5.37708 46.77105,-2.80198c29.15327,6.21864 5.30347,9.68086 3.15173,19.76829c-2.15175,10.08743 -27.52946,13.22372 -56.68271,7.00507c-4.90146,-1.04552 -9.59758,-2.2889 -14.00863,-3.68201c-21.82539,-6.89297 -36.67194,-17.45131 -34.88197,-25.84277c0.46325,-2.17178 -10.48707,-19.41628 -4.73747,-20.20995z" fill="#ffffff" stroke="#000000" stroke-linecap="butt"/><path d="M107.37828,188.5112c17.59387,8.50165 40.43243,13.48316 54.48935,13.45676c18.68569,-0.03509 22.06913,-10.33046 32.42565,-8.12132c25.09205,5.35235 -9.32872,15.97503 -10.56597,21.77531c-1.23726,5.80029 -22.58138,6.1634 -47.67345,0.81103c-12.122,-2.58573 -28.24003,-9.5063 -39.09885,-19.06767c-11.61854,-10.23035 -17.55606,-23.14158 -16.91652,-26.13977c0.34242,-1.6053 11.65755,9.70771 27.33977,17.28565z" fill="#e2e2e2" stroke="none" stroke-linecap="butt"/><path d="M82.08413,164.11721c9.89742,-1.36617 40.31334,20.69193 60.38799,25.76334c22.4299,5.66643 34.69888,-5.37708 46.77105,-2.80198c29.15327,6.21864 5.30347,9.68086 3.15173,19.76829c-2.15175,10.08743 -27.52946,13.22372 -56.68271,7.00507c-4.90146,-1.04552 -9.59758,-2.2889 -14.00863,-3.68201c-21.82539,-6.89297 -36.67194,-17.45131 -34.88197,-25.84277c0.46325,-2.17178 -10.48707,-19.41628 -4.73747,-20.20995z" fill="none" stroke="#000000" stroke-linecap="butt"/><path d="M72.63272,164.01611c1.7588,-8.2453 8.17252,-13.86546 14.32546,-12.55299c1.54195,0.32891 -5.06521,5.06464 -3.86521,9.58776c0.92449,3.48466 -1.64544,6.85691 -0.94638,10.96514c0.84036,4.93876 5.04584,10.72207 7.65283,16.12979c3.64167,7.55403 22.85043,15.15926 22.28019,17.83258c-0.36552,1.71357 60.87628,5.83438 58.63309,9.25504c-0.19664,0.29984 13.187,-4.7494 20.32913,-13.75342c4.44741,-5.60678 3.29283,-17.02896 4.65387,-16.56492c2.42376,0.82638 11.58248,-14.70551 16.37737,-15.50803c3.14502,-0.52638 3.22071,12.09964 2.45971,15.97647c-0.7671,3.90784 -18.38257,18.93045 -21.4326,24.84388c-4.20036,8.14373 -2.25463,14.38464 -4.41877,14.55511c-19.09412,1.50398 -83.65712,-4.08563 -86.28322,-6.24279c-8.65967,-7.1133 -18.51654,-36.51545 -21.80916,-37.2178c-6.15295,-1.31248 -9.71509,-9.06058 -7.9563,-17.3059z" fill="#840000" stroke="#000000" stroke-linecap="butt"/><path d="M75.45941,148.32217c0.35469,-1.66281 5.3564,24.49896 16.43926,39.66564c9.08732,12.43581 21.75061,25.58913 27.41865,26.79818c12.58078,2.6836 70.59943,5.21196 69.9539,8.23819c-0.64552,3.02623 -56.15475,1.07063 -68.73552,-1.61296c-3.37321,-0.71953 -9.87191,0.22461 -17.73706,-7.35289c-6.38023,-6.14687 -11.03333,-16.81659 -16.78019,-26.00767c-3.06192,-4.89698 -8.19612,-9.06624 -10.16474,-12.59028c-6.76938,-12.11789 -4.40025,-26.73188 -4.14301,-27.93782z" fill="#430000" stroke="none" stroke-linecap="butt"/><path d="M73.27154,162.93521c0.71599,-3.3566 -5.72578,-19.33723 -3.79854,-21.53314c2.80691,-3.19819 14.21859,8.72771 17.86668,9.50588c1.54195,0.32891 -5.06521,5.06464 -3.86521,9.58776c0.94768,3.57193 -3.0629,7.08726 -1.99088,12.31088c1.23107,5.99867 7.62968,13.80681 10.18233,19.10189c3.64169,7.55405 15.5379,9.9621 14.96766,12.6354c-0.19181,0.89924 18.18732,2.70357 35.3748,4.70975c15.56451,1.81674 30.15182,3.79903 29.08581,5.42459c-0.19665,0.29987 13.187,-4.7494 20.32912,-13.75339c4.44741,-5.60675 3.29282,-17.02893 4.65386,-16.56489c2.13902,0.72932 10.34733,-16.86879 15.59867,-18.17253c4.60184,-1.14247 6.52095,13.65952 5.62367,18.23066c-0.7671,3.90784 -20.76785,19.34076 -23.8179,25.25419c-4.20036,8.14373 -2.25463,14.38464 -4.41877,14.55511c-19.09412,1.50395 -83.65712,-4.08563 -86.28322,-6.24282c-8.65964,-7.11331 -18.51652,-36.51544 -21.80916,-37.2178c-6.15295,-1.31248 -9.71509,-9.06058 -7.9563,-17.3059z" fill="none" stroke="#000000" stroke-linecap="butt"/><path d="M96.38825,193.27384l4.82279,-23.50671" fill="none" stroke="#000000" stroke-linecap="round"/><path d="M128.43011,206.35824l3.78385,-18.63609" fill="none" stroke="#000000" stroke-linecap="round"/><path d="M164.03666,191.96409l-3.69524,19.11791" fill="none" stroke="#000000" stroke-linecap="round"/><path d="M182.73316,206.59969l1.9474,-18.10191" fill="none" stroke="#000000" stroke-linecap="round"/><path d="M110.90069,-5.9592c12.58302,2.68407 8.74234,15.94139 14.19431,25.81065c3.99383,7.22973 19.41904,10.08332 17.63361,18.45344c-4.22268,19.79607 -25.31885,32.07417 -47.11959,27.42388c-21.80074,-4.65029 -36.05059,-24.46798 -31.8279,-44.26408c4.22269,-19.79609 25.31882,-32.07417 47.11957,-27.42388z" fill="#840000" stroke="#000000" stroke-linecap="butt"/><path d="M78.37439,15.60033c-7.67964,15.41041 -2.05977,35.29289 7.48302,37.32845c19.40442,4.13913 56.6618,-19.92131 53.3303,-4.30311c-3.3315,15.61819 -21.7626,24.92382 -41.16703,20.78469c-13.1363,-2.80209 -32.91319,-18.98428 -36.40975,-37.73469c-0.93657,-5.0223 8.77577,-26.4743 21.22087,-34.24411c9.72508,-6.07163 22.69611,1.08303 23.16816,-1.13002c1.69312,-7.9374 -19.68933,3.3735 -27.62557,19.29879z" fill="#430000" stroke="none" stroke-linecap="butt"/><path d="M111.00532,-5.22847c12.38189,2.64116 8.41986,15.69535 13.92933,25.33903c4.19103,7.3359 19.72296,10.37231 17.89858,18.92504c-4.22269,19.79609 -25.31885,32.07417 -47.11959,27.42388c-21.80076,-4.65029 -36.0506,-24.46802 -31.82792,-44.26408c4.22269,-19.79609 25.31885,-32.07417 47.11959,-27.42388z" fill="none" stroke="#000000" stroke-linecap="butt"/><path d="M74.81225,157.67095l2.92205,-13.69869c0,0 89.46685,-4.92233 112.19056,-0.07515c20.72488,4.4208 18.70811,27.997 18.70811,27.997l-2.92205,13.69869c0,0 -45.76166,-3.21417 -67.73397,-7.90105c-21.65603,-4.61942 -63.16472,-20.0208 -63.16472,-20.0208z" fill="#ffffff" stroke="#000000" stroke-linecap="butt"/><path d="M150.31739,131.77557c38.2362,8.15613 67.35555,23.56853 65.03987,34.42452c-0.5917,2.77393 -3.66278,3.25373 -5.86756,5.49904c-1.34384,1.36857 -0.45913,5.17134 -4.0297,5.38714c-5.82575,0.35208 -4.63512,-14.58606 -14.0402,-16.1842c-12.38535,-2.10459 -36.15065,8.66682 -48.94563,5.93753c-14.99066,-3.19764 -46.40173,-5.54898 -57.34623,-9.47132c-16.97133,-6.0823 -9.64409,-14.10426 -8.23628,-20.70413c2.31568,-10.85598 35.18947,-13.04471 73.4257,-4.88858z" fill="#e2e2e2" stroke="none" stroke-linecap="butt"/><path d="M74.81223,157.67092l2.92205,-13.69869c0,0 89.6757,-2.69535 113.83276,2.45756c15.41288,3.28769 17.06592,25.46428 17.06592,25.46428l-2.92205,13.69869c0,0 -46.89508,-2.72844 -68.57816,-7.35364c-21.94664,-4.68141 -62.32052,-20.56821 -62.32052,-20.56821z" fill="none" stroke="#000000" stroke-linecap="butt"/><path d="M172.68689,32.90841c43.71227,9.32422 72.05443,50.13811 63.30402,91.16037c-4.44694,20.8474 -4.76954,42.38296 -21.51802,47.90168c-7.61751,2.51001 -11.24002,-16.81975 -23.18634,-18.99435c-13.47252,-2.45243 -35.47632,11.91394 -46.87063,9.48343c-20.22026,-4.31317 -59.79243,-7.06008 -72.07081,-17.38241c-14.2651,-11.99258 0.647,-32.72797 5.34968,-54.77432c8.75041,-41.02227 51.27982,-66.71862 94.99207,-57.39441z" fill="#840000" stroke="#000000" stroke-linecap="butt"/><path d="M182.90159,89.95998c22.52863,4.80556 14.51809,22.74027 12.36635,32.82771c-2.15175,10.08743 -22.15913,14.36926 -44.68776,9.5637c-22.52863,-4.80556 -80.38654,-6.60075 -78.2348,-16.68817c0.67802,-3.17858 3.82579,-40.76689 23.17608,-63.97981c8.94497,-10.73053 36.44818,-16.42037 41.67641,-17.75289c7.89663,-2.01261 -38.55168,22.68611 -50.66782,48.7141c-6.74528,14.49024 18.05036,32.31327 18.66141,39.16354c0.74998,8.40806 19.54816,-17.5525 34.72534,-27.11287c4.68596,-2.95177 4.89899,-13.76871 5.94467,-13.54565c0,0 9.16494,11.88 15.19212,13.31359c6.30685,1.50014 21.84801,-4.50329 21.84801,-4.50329z" fill="#430000" stroke="none" stroke-linecap="butt"/><path d="M172.81676,32.29958c43.71227,9.32422 72.05443,50.13811 63.30402,91.16037c-4.44694,20.8474 -4.76954,42.38296 -21.51802,47.90168c-6.71551,2.2128 -8.69266,-18.11194 -19.03045,-19.74339c-14.61289,-2.30612 -38.43586,12.91818 -51.0265,10.23248c-20.22026,-4.31317 -59.79243,-7.06008 -72.07081,-17.38241c-14.2651,-11.99258 0.647,-32.72797 5.34968,-54.77432c8.75041,-41.02227 51.27982,-66.71862 94.99207,-57.39441z" fill="none" stroke="#000000" stroke-linecap="butt"/><path d="M102.94864,65.29779c4.47767,0.95512 17.10676,24.76715 26.09446,23.76194c8.97141,-1.00337 15.0415,-15.97375 20.08009,-13.30716c9.05614,4.79281 2.39389,22.36589 1.22321,27.85401c-2.4745,11.60056 3.63149,25.9177 -13.34904,22.29559c-16.98055,-3.62211 -56.21009,-6.5453 -53.73559,-18.14589c2.4745,-11.60056 2.70634,-46.08061 19.68688,-42.4585z" fill="#000000" stroke="#000000" stroke-linecap="butt"/><path d="M221.579,139.17018c-2.4745,11.60056 -39.4823,-1.73832 -56.46284,-5.36042c-16.98055,-3.62211 -5.56389,-14.20149 -3.0894,-25.80206c1.67142,-7.83567 4.35117,-16.30627 19.95749,-14.67831c7.49856,0.7822 28.86221,-1.57877 34.37316,-0.40323c16.98055,3.62211 7.69608,34.64344 5.22159,46.24402z" data-paper-data="{&quot;index&quot;:null}" fill="#000000" stroke="#000000" stroke-linecap="butt"/><path d="M80.94233,115.44988c14.00032,-1.19162 43.61302,8.16754 66.63424,13.07817c24.70452,5.26969 54.47012,8.34709 66.43809,15.61073c7.25349,4.40229 1.22682,19.29656 0.46896,22.8494c-1.1395,5.34206 -3.96256,-13.42082 -20.47475,-15.44817c-12.58929,-1.54568 -36.54057,14.7439 -53.70496,11.08258c-17.59512,-3.7532 -48.04516,-8.635 -60.0042,-13.79104c-15.00882,-6.47093 -9.31923,-13.34092 -8.20152,-18.58077c0.84306,-3.95229 -1.2852,-13.93876 8.84417,-14.8009z" fill="#7d3c3c" stroke="#000000" stroke-linecap="butt"/><path d="M104.47998,117.76835c6.64573,1.41759 -8.53956,0.38256 -17.19568,4.2763c-8.52996,3.83702 -10.54467,12.58967 -2.57594,15.8159c21.70378,8.78704 84.88778,5.18325 116.18411,10.82878c16.94028,3.05587 14.26954,17.17505 14.00573,18.41179c-0.56447,2.64625 -6.01531,-13.475 -20.0775,-14.683c-13.6337,-1.17122 -35.57577,12.67794 -55.60405,8.40573c-40.68601,-8.67869 -72.76732,-19.93918 -71.65559,-25.15104c1.11174,-5.21187 -3.7671,-26.58316 36.91892,-17.90447z" fill="#5c2c2c" stroke="none" stroke-linecap="butt"/><path d="M82.41974,114.49196c14.00032,-1.19162 43.61302,8.16754 66.63424,13.07817c24.70452,5.26969 54.47012,8.34709 66.43809,15.61073c7.25349,4.40229 1.22682,19.29656 0.46896,22.8494c-1.20634,5.65538 -3.6903,-12.3 -21.84581,-14.76474c-12.06932,-1.63848 -36.49005,13.77881 -52.33391,10.39918c-17.59512,-3.7532 -48.04516,-8.635 -60.0042,-13.79104c-15.00882,-6.47093 -9.31923,-13.34092 -8.20152,-18.58077c0.84306,-3.95229 -1.2852,-13.93876 8.84417,-14.8009z" fill="none" stroke="#000000" stroke-linecap="butt"/><path d="M134.3764,103.54744c1.21766,0.25974 0.95793,1.47741 0.95793,1.47741c-0.4329,2.02945 -1.12553,5.27652 -1.55843,7.30597c0,0 -0.25974,1.21766 -1.47741,0.95793c-1.21766,-0.25974 -0.95793,-1.47741 -0.95793,-1.47741c0.4329,-2.02945 0.86578,-4.05886 1.2987,-6.08832l0.25974,-1.21766c0,0 0.25974,-1.21766 1.47741,-0.95793z" fill="#ffffff" stroke="none" stroke-linecap="butt"/><path d="M176.90521,110.07308c1.21766,0.25974 0.95793,1.47741 0.95793,1.47741l-0.12987,0.60883c-0.73817,3.46058 -2.16026,6.89337 -2.81661,10.22025c0,0 -0.25974,1.21766 -1.47741,0.95793c-1.21766,-0.25974 -0.95793,-1.47741 -0.95793,-1.47741c0.76145,-3.38465 2.06611,-6.70188 2.81661,-10.22025l0.12987,-0.60883c0,0 0.25974,-1.21766 1.47741,-0.95793z" fill="#ffffff" stroke="none" stroke-linecap="butt"/><path d="M152.07073,125.37722c12.69338,2.70761 22.11122,8.99128 21.03533,14.03502c-1.07587,5.04373 -12.23804,6.93752 -24.93141,4.2299c-12.69338,-2.70761 -22.11122,-8.99128 -21.03533,-14.03502c1.07587,-5.04373 12.23804,-6.93752 24.93141,-4.2299z" fill="#000000" stroke="#000000" stroke-linecap="butt"/><path d="M187.27142,29.17363c2.55017,-3.22056 13.03748,-9.58395 19.49684,-20.92892c11.56805,-20.31763 21.43182,-48.96618 29.39113,-49.7826c7.55406,-0.77483 7.86115,13.08646 15.90299,22.03872c9.82631,10.93876 27.06652,17.74612 31.68561,21.40369c2.89862,2.29524 25.25391,0.53372 25.0251,4.35846c-0.45525,7.60991 -18.38677,17.2119 -30.91081,28.72338c-12.9003,11.8573 -20.49366,25.63844 -27.30525,34.24063c-16.7482,21.15085 -30.42768,9.15657 -45.03411,-2.40945c-14.60643,-11.56601 -34.9997,-16.49312 -18.25149,-37.64396z" fill="#410000" stroke="#000000" stroke-linecap="butt"/><path d="M205.47275,12.57305c5.18216,-6.54443 21.08045,-65.17662 36.06626,-53.31019c9.1879,7.27543 -24.48986,35.32164 -21.86606,60.56916c1.65571,15.93203 42.0731,33.18122 40.06816,35.71318c-5.18219,6.54443 -21.53155,2.2301 -36.51735,-9.63634c-14.9858,-11.86644 -22.9332,-26.79141 -17.75102,-33.33584z" fill="#170000" stroke="none" stroke-linecap="butt"/><path d="M187.24154,28.91602c2.55015,-3.22056 13.03745,-9.58393 19.49682,-20.92892c11.56805,-20.31763 21.43182,-48.96618 29.39113,-49.7826c7.45231,-0.76443 6.88856,13.36828 14.83909,22.15691c9.95585,11.00537 28.07955,17.58761 32.74951,21.28551c2.89862,2.29524 25.25389,0.53372 25.02507,4.35845c-0.45522,7.60992 -18.38674,17.2119 -30.91081,28.72338c-12.90031,11.85732 -20.49366,25.63844 -27.30525,34.24063c-16.7482,21.15085 -30.42768,9.15657 -45.03411,-2.40945c-14.60642,-11.56604 -34.9997,-16.49312 -18.25149,-37.64396z" fill="none" stroke="#000000" stroke-linecap="butt"/><path d="M255.62307,88.82375c-4.35624,5.50137 -5.30623,17.81155 -18.67843,11.86687c-7.97065,-3.54341 -26.93145,-22.11564 -35.51188,-28.91001c-9.78967,-7.75189 -28.98394,-21.60441 -34.37734,-29.39366c-7.26455,-10.49159 1.37507,-14.40732 5.36536,-19.44656c3.6188,-4.5701 10.62444,-11.7612 20.99937,-8.26443c9.55847,3.22161 22.17364,16.58358 33.19094,25.30758c10.02273,7.93645 32.63111,21.14473 38.02655,29.08798c6.97284,10.26552 -5.09482,14.80204 -9.01457,19.75221z" data-paper-data="{&quot;index&quot;:null}" fill="#410000" stroke="#000000" stroke-linecap="butt"/><path d="M197.0782,18.22069c6.77476,2.12198 42.83357,29.12915 57.56509,43.06656c11.97305,11.32766 9.48166,12.6266 12.78847,15.24509c1.46093,1.15682 -1.02611,14.0743 -6.67949,9.5081c-7.51344,-6.06855 -2.3463,-12.59795 -13.53775,-24.03849c-12.26389,-12.53685 -46.06138,-33.92649 -54.06156,-35.93696c-5.08232,-1.2772 -9.52769,-0.09304 -12.90227,1.9493c-4.37319,2.64673 -6.9481,6.73472 -6.78032,8.77471c0.89001,10.82229 75.8244,60.17792 73.17698,63.5213c-5.1071,6.44959 -37.90344,-19.39581 -55.82948,-33.59047c-17.92603,-14.19467 -28.31786,-30.93013 -23.21081,-37.37971c3.00584,-3.79598 11.90324,-16.62199 29.47111,-11.11944z" fill="#170000" stroke="none" stroke-linecap="butt"/><path d="M255.68723,89.37584c-4.35624,5.50137 -5.30621,17.81154 -18.67843,11.86687c-7.97066,-3.54338 -26.93145,-22.11564 -35.51191,-28.91002c-9.78967,-7.75189 -28.98392,-21.6044 -34.37734,-29.39366c-7.26455,-10.49159 1.37507,-14.40732 5.36536,-19.44656c3.61879,-4.57007 10.62445,-11.76119 20.99937,-8.26443c9.55847,3.22159 22.17364,16.58358 33.19094,25.30758c10.02273,7.93645 32.63111,21.14473 38.02655,29.08801c6.97284,10.26552 -5.09482,14.80204 -9.01457,19.75221z" data-paper-data="{&quot;index&quot;:null}" fill="none" stroke="#000000" stroke-linecap="butt"/><path d="M103.19379,166.82661l2.37475,-11.13292" fill="none" stroke="#000000" stroke-linecap="round"/><path d="M140.85517,162.49322l-2.96844,13.91616" fill="none" stroke="#000000" stroke-linecap="round"/><path d="M179.11032,155.37656l-4.89315,28.05493" fill="none" stroke="#000000" stroke-linecap="round"/><path d="M117.92531,79.27046l9.29452,-10.74805l-19.45041,-16.24307l11.03999,-4.0104l1.07946,-8.04467" fill="none" stroke="#000000" stroke-linecap="round"/><path d="M145.27388,157.61433l1.67489,-9.43493" fill="none" stroke="#000000" stroke-linecap="round"/></g><g stroke-linecap="butt"><path d="M-89.07208,602.91952c0,-24.10606 36.22085,-43.64791 80.90154,-43.64791c44.68069,0 80.90152,19.54181 80.90152,43.64791c0,12.02413 -0.67143,26.2488 -15.2499,34.14298c-14.64854,7.93213 -43.25771,9.50493 -65.65164,9.50493c-23.99475,0 -62.23045,-0.07562 -77.04602,-9.02758c-12.77253,-7.71751 -3.85552,-23.45987 -3.85552,-34.62033z" fill="#840000" stroke="#000000"/><path d="M-90.70109,626.03367c0,-4.19116 16.0552,5.69078 47.24926,7.96029c33.45357,2.43389 82.81614,-2.8023 102.25122,-10.16823c8.71071,-3.30137 6.30252,-18.39401 -3.34327,-30.92184c-10.51983,-13.66305 -28.48965,-24.69676 -20.77374,-24.69676c45.29485,0 38.64368,44.929 38.64368,57.82651c0,12.89751 -36.71873,23.35302 -82.01357,23.35302c-45.29485,0 -82.0136,-10.45551 -82.0136,-23.35302z" fill="#430000" stroke="none"/><path d="M-132.70859,613.19756c0,-24.10608 16.26437,-43.64791 36.32743,-43.64791c20.06309,0 36.32743,19.54181 36.32743,43.64791c0,12.02413 -0.3015,26.2488 -6.84768,34.14298c-6.57768,7.93213 -19.42415,9.50493 -29.47975,9.50493c-10.77442,0 -27.9435,-0.07562 -34.59618,-9.02758c-5.7353,-7.71751 -1.73128,-23.4599 -1.73128,-34.62033z" fill="#840000" stroke="#000000"/><path d="M-6.4634,560.42279c44.68069,0 80.90154,19.54183 80.90154,43.64791c0,12.02413 -0.67146,26.2488 -15.2499,34.14298c-14.64854,7.93213 -43.25771,9.50493 -65.65164,9.50493c-23.99475,0 -62.23043,-0.0756 -77.04602,-9.02755c-12.77253,-7.71751 -3.85552,-23.45992 -3.85552,-34.62036c0,-24.10608 36.22085,-43.64791 80.90154,-43.64791z" fill="none" stroke="#000000"/><path d="M-133.44004,636.31164c0,-4.19116 7.20932,5.69075 21.21648,7.96027c15.02175,2.43389 37.18714,-2.80227 45.91414,-10.16818c3.91139,-3.30137 2.83004,-18.39401 -1.50124,-30.92184c-4.72374,-13.66305 -12.79278,-24.69676 -9.32809,-24.69676c20.33887,0 17.35227,44.92903 17.35227,57.82654c0,12.89754 -16.48791,23.35302 -36.82677,23.35302c-20.33887,0 -36.82677,-10.45551 -36.82677,-23.35302z" fill="#430000" stroke="none"/><path d="M-131.94204,614.34867c0,-24.10608 16.26434,-43.64791 36.32743,-43.64791c20.06309,0 36.32743,19.54186 36.32743,43.64791c0,12.02413 -0.3015,26.2488 -6.84768,34.14298c-6.57768,7.93215 -19.42412,9.50491 -29.47972,9.50491c-10.77442,0 -27.9435,-0.0756 -34.59618,-9.02755c-5.7353,-7.71751 -1.73125,-23.4599 -1.73125,-34.62033z" fill="none" stroke="#000000"/><path d="M-30.15682,611.72551c0,-24.10608 16.26437,-43.64791 36.32743,-43.64791c20.06309,0 36.32743,19.54181 36.32743,43.64791c0,12.02413 -0.3015,26.2488 -6.84768,34.14298c-6.57768,7.93213 -19.42415,9.50493 -29.47975,9.50493c-10.77442,0 -27.9435,-0.07562 -34.59618,-9.02758c-5.7353,-7.71751 -1.73128,-23.4599 -1.73128,-34.62033z" fill="#840000" stroke="#000000"/><path d="M-30.88826,634.83961c0,-4.19116 7.20932,5.69075 21.21648,7.96027c15.02175,2.43389 37.18714,-2.80227 45.91414,-10.16818c3.91139,-3.30137 2.83004,-18.39401 -1.50124,-30.92184c-4.72374,-13.66305 -12.79278,-24.69676 -9.32809,-24.69676c20.33887,0 17.35227,44.92903 17.35227,57.82654c0,12.89754 -16.48791,23.35302 -36.82677,23.35302c-20.33887,0 -36.82677,-10.45551 -36.82677,-23.35302z" fill="#430000" stroke="none"/><path d="M-29.39026,612.87661c0,-24.10608 16.26434,-43.64791 36.32743,-43.64791c20.06309,0 36.32743,19.54186 36.32743,43.64791c0,12.02413 -0.3015,26.2488 -6.84768,34.14298c-6.57768,7.93215 -19.42412,9.50491 -29.47972,9.50491c-10.77442,0 -27.9435,-0.0756 -34.59618,-9.02755c-5.7353,-7.71751 -1.73125,-23.4599 -1.73125,-34.62033z" fill="none" stroke="#000000"/><path d="M-87.07551,611.23483c0,-24.10608 16.26437,-43.64791 36.32743,-43.64791c20.06309,0 36.32743,19.54181 36.32743,43.64791c0,12.02413 -0.3015,26.2488 -6.84768,34.14298c-6.57768,7.93213 -19.42415,9.50493 -29.47975,9.50493c-10.77442,0 -27.9435,-0.07562 -34.59618,-9.02758c-5.7353,-7.71751 -1.73128,-23.4599 -1.73128,-34.62033z" fill="#840000" stroke="#000000"/><path d="M-87.80696,634.34893c0,-4.19116 7.20932,5.69075 21.21648,7.96027c15.02175,2.43389 37.18714,-2.80227 45.91414,-10.16818c3.91139,-3.30137 2.83004,-18.39401 -1.50124,-30.92184c-4.72374,-13.66305 -12.79278,-24.69676 -9.32809,-24.69676c20.33887,0 17.35227,44.92903 17.35227,57.82654c0,12.89754 -16.48791,23.35302 -36.82677,23.35302c-20.33887,0 -36.82677,-10.45551 -36.82677,-23.35302z" fill="#430000" stroke="none"/><path d="M-86.30896,612.38596c0,-24.10608 16.26434,-43.64791 36.32743,-43.64791c20.06309,0 36.32743,19.54186 36.32743,43.64791c0,12.02413 -0.3015,26.2488 -6.84768,34.14298c-6.57768,7.93215 -19.42412,9.50491 -29.47972,9.50491c-10.77442,0 -27.9435,-0.0756 -34.59618,-9.02755c-5.7353,-7.71751 -1.73125,-23.4599 -1.73125,-34.62033z" fill="none" stroke="#000000"/></g><g data-paper-data="{&quot;index&quot;:null}" stroke-linecap="butt"><path d="M262.26771,607.27722c0,11.16046 8.91702,26.90283 -3.85552,34.62033c-14.81557,8.95195 -53.05127,9.02758 -77.04602,9.02758c-22.39393,0 -51.00311,-1.5728 -65.65164,-9.50493c-14.57846,-7.89418 -15.2499,-22.11885 -15.2499,-34.14298c0,-24.10611 36.22083,-43.64791 80.90152,-43.64791c44.68069,0 80.90154,19.54186 80.90154,43.64791z" fill="#840000" stroke="#000000"/><path d="M263.89671,630.39134c0,12.89751 -36.71875,23.35302 -82.0136,23.35302c-45.29485,0 -82.01357,-10.45551 -82.01357,-23.35302c0,-12.89751 -6.65117,-57.82651 38.64368,-57.82651c7.71591,0 -10.25391,11.03371 -20.77374,24.69676c-9.6458,12.52783 -12.05399,27.62048 -3.34327,30.92184c19.43508,7.36593 68.79765,12.60211 102.25122,10.16823c31.19406,-2.26951 47.24926,-12.15145 47.24926,-7.96029z" fill="#430000" stroke="none"/><path d="M305.90421,617.55526c0,11.16044 4.00403,26.90283 -1.73128,34.62033c-6.65268,8.95195 -23.82176,9.02758 -34.59618,9.02758c-10.0556,0 -22.90206,-1.5728 -29.47975,-9.50493c-6.54618,-7.89418 -6.84768,-22.11885 -6.84768,-34.14298c0,-24.10611 16.26434,-43.64791 36.32743,-43.64791c20.06306,0 36.32743,19.54183 36.32743,43.64791z" fill="#840000" stroke="#000000"/><path d="M260.56053,608.4284c0,11.16044 8.91702,26.90285 -3.85552,34.62036c-14.8156,8.95195 -53.05127,9.02755 -77.04602,9.02755c-22.39393,0 -51.00311,-1.5728 -65.65164,-9.50493c-14.57844,-7.89418 -15.2499,-22.11885 -15.2499,-34.14298c0,-24.10608 36.22085,-43.64791 80.90154,-43.64791c44.68069,0 80.90154,19.54183 80.90154,43.64791z" fill="none" stroke="#000000"/><path d="M306.63561,640.66936c0,12.89751 -16.48791,23.35302 -36.82677,23.35302c-20.33887,0 -36.82677,-10.45548 -36.82677,-23.35302c0,-12.89751 -2.98659,-57.82654 17.35227,-57.82654c3.46469,0 -4.60434,11.03371 -9.32809,24.69676c-4.33128,12.52783 -5.41263,27.62048 -1.50124,30.92184c8.727,7.3659 30.89239,12.60206 45.91414,10.16818c14.00716,-2.26951 21.21648,-12.15143 21.21648,-7.96027z" fill="#430000" stroke="none"/><path d="M305.13761,618.70637c0,11.16044 4.00405,26.90283 -1.73125,34.62033c-6.65268,8.95195 -23.82176,9.02755 -34.59618,9.02755c-10.0556,0 -22.90204,-1.57276 -29.47972,-9.50491c-6.54618,-7.89418 -6.84768,-22.11885 -6.84768,-34.14298c0,-24.10606 16.26434,-43.64791 36.32743,-43.64791c20.06309,0 36.32743,19.54183 36.32743,43.64791z" fill="none" stroke="#000000"/><path d="M203.35244,616.08321c0,11.16044 4.00403,26.90283 -1.73128,34.62033c-6.65268,8.95195 -23.82176,9.02758 -34.59618,9.02758c-10.0556,0 -22.90206,-1.5728 -29.47975,-9.50493c-6.54618,-7.89418 -6.84768,-22.11885 -6.84768,-34.14298c0,-24.10611 16.26434,-43.64791 36.32743,-43.64791c20.06306,0 36.32743,19.54183 36.32743,43.64791z" fill="#840000" stroke="#000000"/><path d="M204.08384,639.19733c0,12.89751 -16.48791,23.35302 -36.82677,23.35302c-20.33887,0 -36.82677,-10.45548 -36.82677,-23.35302c0,-12.89751 -2.98659,-57.82654 17.35227,-57.82654c3.46469,0 -4.60434,11.03371 -9.32809,24.69676c-4.33128,12.52783 -5.41263,27.62048 -1.50124,30.92184c8.727,7.3659 30.89239,12.60206 45.91414,10.16818c14.00716,-2.26951 21.21648,-12.15143 21.21648,-7.96027z" fill="#430000" stroke="none"/><path d="M202.58583,617.23431c0,11.16044 4.00405,26.90283 -1.73125,34.62033c-6.65268,8.95195 -23.82176,9.02755 -34.59618,9.02755c-10.0556,0 -22.90204,-1.57276 -29.47972,-9.50491c-6.54618,-7.89418 -6.84768,-22.11885 -6.84768,-34.14298c0,-24.10606 16.26434,-43.64791 36.32743,-43.64791c20.06309,0 36.32743,19.54183 36.32743,43.64791z" fill="none" stroke="#000000"/><path d="M260.27113,615.59253c0,11.16044 4.00403,26.90283 -1.73128,34.62033c-6.65268,8.95195 -23.82176,9.02758 -34.59618,9.02758c-10.0556,0 -22.90206,-1.5728 -29.47975,-9.50493c-6.54618,-7.89418 -6.84768,-22.11885 -6.84768,-34.14298c0,-24.10611 16.26434,-43.64791 36.32743,-43.64791c20.06306,0 36.32743,19.54183 36.32743,43.64791z" fill="#840000" stroke="#000000"/><path d="M261.00253,638.70665c0,12.89751 -16.48791,23.35302 -36.82677,23.35302c-20.33887,0 -36.82677,-10.45548 -36.82677,-23.35302c0,-12.89751 -2.98659,-57.82654 17.35227,-57.82654c3.46469,0 -4.60434,11.03371 -9.32809,24.69676c-4.33128,12.52783 -5.41263,27.62048 -1.50124,30.92184c8.727,7.3659 30.89239,12.60206 45.91414,10.16818c14.00716,-2.26951 21.21648,-12.15143 21.21648,-7.96027z" fill="#430000" stroke="none"/><path d="M259.50453,616.74366c0,11.16044 4.00405,26.90283 -1.73125,34.62033c-6.65268,8.95195 -23.82176,9.02755 -34.59618,9.02755c-10.0556,0 -22.90204,-1.57276 -29.47972,-9.50491c-6.54618,-7.89418 -6.84768,-22.11885 -6.84768,-34.14298c0,-24.10606 16.26434,-43.64791 36.32743,-43.64791c20.06309,0 36.32743,19.54183 36.32743,43.64791z" fill="none" stroke="#000000"/></g></g></g></svg>