<svg version="1.1" xmlns="http://www.w3.org/2000/svg" xmlns:xlink="http://www.w3.org/1999/xlink" width="319" height="283" viewBox="0,0,319,283"><g transform="translate(-80.5,-38.5)"><g data-paper-data="{&quot;isPaintingLayer&quot;:true}" fill-rule="nonzero" stroke-linejoin="miter" stroke-miterlimit="10" stroke-dasharray="" stroke-dashoffset="0" style="mix-blend-mode: normal"><path d="M87,318.5v-277h306v277z" fill="#616161" stroke="#000000" stroke-width="0" stroke-linecap="butt"/><path d="M87,318.5v-277c0,0 2.36384,78.36407 28.83965,117.59593c13.31507,19.73026 38.04538,21.71451 56.49299,21.21656c7.48349,-0.202 13.93309,-0.81248 18.16735,-0.81248c19.23433,0 81.88039,-11.03037 112.6067,-32.164c59.42627,-40.87351 89.8933,-105.836 89.8933,-105.836v277z" fill="#4c4c4c" stroke="#000000" stroke-width="0" stroke-linecap="butt"/><path d="M274.5,198.20194l-5,-48h43l1,77" fill="#000000" stroke="#000000" stroke-width="4" stroke-linecap="round"/><path d="M259.42569,180.09079c0,0 -10.54315,-11.9516 -9.3275,-23.1761c0.35346,-3.26367 -2.32088,-1.62626 1.14025,-5.86402c6.09732,-7.46547 19.6668,-20.54352 19.6668,-20.54352c0,0 -0.92881,-63.31225 -0.29009,-79.44446c0.34932,-8.82275 3.81054,-9.4719 3.81054,-9.4719h30.5l-7.5,106c0,0 -17.15898,19.3136 -24.17484,25.31401c-4.57143,3.90977 -13.82516,7.18599 -13.82516,7.18599z" fill="#111515" stroke="none" stroke-width="0" stroke-linecap="butt"/><path d="M88.5,319.07213l-0.75983,-81.20528l178.75983,-41.79472l123,90v33z" fill="#b9b9b9" stroke="none" stroke-width="0" stroke-linecap="butt"/><path d="M84.1899,239.03437c0,4.85277 2.36107,81.04826 2.36107,81.04826c0,0 189.18637,-0.54825 215.13894,-0.54825c29.90397,0 89.63532,-0.18888 89.63532,-0.18888c0,0 -0.13532,-14.27512 -0.13532,-18.31112c0,-10.21727 -40.07051,-18.5 -89.5,-18.5c-26.15287,0 -98.01824,23.96233 -148.12974,11.31302c-44.6003,-11.25815 -69.37026,-59.62439 -69.37026,-54.81303z" fill="#7f7f7f" stroke="none" stroke-width="0" stroke-linecap="butt"/><path d="M87.5,236.20194l179,-43l125,91" fill="none" stroke="#000000" stroke-width="4" stroke-linecap="round"/><path d="M88.5,185.20194c0,0 -3.18247,-8.42536 16.36481,-12.96537c28.59446,-6.6413 138.63519,-23.03463 138.63519,-23.03463l12,1c0,0 2.23185,25.6394 4.55676,33.23904c1.33585,4.36661 8.1551,8.31338 8.1551,8.31338l-152.71187,39.44759" fill="#010101" stroke="#000000" stroke-width="4" stroke-linecap="round"/><path d="M88.5,168.20194l19,-5l4,70l-29,16" fill="#111515" stroke="#000000" stroke-width="4" stroke-linecap="round"/><path d="M373.5,119.20194l-4,50l-45,5l10,-69l42,8z" fill="#ffffff" stroke="#000000" stroke-width="4" stroke-linecap="round"/><path d="M390.5,253.20194l-50,-15c0,0 -4.32882,-20.82991 5.24945,-27.03298c7.28814,-4.71994 47.25055,-6.96702 47.25055,-6.96702" fill="#002323" stroke="#000000" stroke-width="4" stroke-linecap="round"/><path d="M397.5,205.20194l-61,17l-11,-23l71,-17" fill="#636363" stroke="#000000" stroke-width="4" stroke-linecap="round"/><path d="M295.5,149l8.5,-108.5h-32.5l1,92.5l-25.5,16.5l12.5,31.5l14,-10" fill="none" stroke="#000000" stroke-width="4" stroke-linecap="round"/><path d="M334.62744,140.87385c0,10.76955 8.73044,19.5 19.5,19.5c10.76956,0 19.5,-8.73045 19.5,-19.5c0,-10.76955 -8.73044,-19.5 -19.5,-19.5c-10.76956,0 -19.5,8.73045 -19.5,19.5z" fill="#ffffff" stroke="#000000" stroke-width="4" stroke-linecap="butt"/><path d="M332.12744,140.87385l36.5,10" fill="none" stroke="#000000" stroke-width="4" stroke-linecap="round"/><text transform="translate(327.12744,169.17365) scale(0.34976,0.34976)" font-size="40" xml:space="preserve" fill="#000000" fill-rule="nonzero" stroke="none" stroke-width="1" stroke-linecap="butt" stroke-linejoin="miter" stroke-miterlimit="10" stroke-dasharray="" stroke-dashoffset="0" font-family="Sans Serif" font-weight="normal" text-anchor="start" style="mix-blend-mode: normal"><tspan x="0" dy="0">chips</tspan></text><path d="M87,318.5v-277h306v277z" fill="none" stroke="#000000" stroke-width="6" stroke-linecap="butt"/></g></g></svg>