<svg version="1.1" xmlns="http://www.w3.org/2000/svg" xmlns:xlink="http://www.w3.org/1999/xlink" width="425.34297" height="776.71434" viewBox="0,0,425.34297,776.71434"><g transform="translate(105.08518,41.38995)"><g data-paper-data="{&quot;isPaintingLayer&quot;:true}" fill-rule="nonzero" stroke-width="7.5" stroke-linejoin="miter" stroke-miterlimit="10" stroke-dasharray="" stroke-dashoffset="0" style="mix-blend-mode: normal"><g data-paper-data="{&quot;index&quot;:null}" stroke-linecap="butt"><g><path d="M170.10049,692.15622c-0.77331,8.02581 4.8266,19.99131 -5.29181,24.61781c-11.73685,5.36651 -40.43148,2.6566 -58.43544,0.92186c-16.80281,-1.619 -38.16017,-4.81839 -48.60181,-11.58166c-10.39161,-6.73092 -9.90979,-17.00889 -9.07663,-25.65581c1.67032,-17.33544 30.20197,-28.76993 63.7272,-25.53967c33.52521,3.23025 59.34874,19.90203 57.67842,37.23746z" fill="#444444" stroke="#000000"/><path d="M169.72105,708.89601c-0.89367,9.275 -29.16932,14.13923 -63.15538,10.86457c-33.98605,-3.27466 -60.81275,-13.44816 -59.91908,-22.72316c0.89367,-9.275 -0.98374,-42.06568 33.00234,-38.79102c5.78947,0.55783 -8.45835,7.19334 -17.2984,16.25831c-8.10557,8.31177 -10.95831,18.99128 -4.65114,21.99513c14.07236,6.70213 50.74769,14.03638 76.01755,14.70466c23.5631,0.62314 36.29454,-5.3225 36.00413,-2.3085z" fill="#282828" stroke="none"/><path d="M168.73971,692.8606c-0.77331,8.02581 4.82664,19.99132 -5.29174,24.61781c-11.73685,5.36651 -40.43148,2.65657 -58.43544,0.92184c-16.80281,-1.619 -38.16013,-4.81836 -48.60176,-11.58166c-10.39161,-6.73092 -9.90979,-17.00886 -9.07664,-25.65576c1.67032,-17.33541 30.20195,-28.76993 63.72718,-25.53967c33.52525,3.23026 59.34876,19.90203 57.67844,37.23747z" fill="none" stroke="#000000"/></g><g><path d="M196.6697,701.9456c-0.77331,8.02581 1.01531,19.62409 -3.64388,24.77659c-5.40444,5.97666 -17.75648,4.8414 -25.50469,4.09484c-7.2313,-0.69676 -16.36059,-2.71796 -20.54117,-8.87796c-4.16057,-6.13054 -3.39177,-16.38083 -2.55861,-25.02775c1.67032,-17.33544 14.72057,-30.26161 29.14855,-28.87143c14.42798,1.39018 24.7701,16.57027 23.09978,33.90571z" fill="#444444" stroke="#000000"/><path d="M195.59411,718.61835c-0.89367,9.275 -13.4751,15.65141 -28.10139,14.24213c-14.62631,-1.40929 -25.75881,-10.07061 -24.86513,-19.34561c0.89367,-9.275 1.85906,-41.79179 16.48538,-40.38251c2.49157,0.24007 -4.07567,7.61567 -8.41936,17.11388c-3.98282,8.70901 -5.80621,19.48768 -3.22215,22.13282c5.76547,5.90173 21.34245,11.20307 32.31371,10.49364c10.23024,-0.66152 16.09939,-7.26837 15.80898,-4.25437z" fill="#282828" stroke="none"/><path d="M196.03866,702.72029c-0.77331,8.02581 1.01533,19.62411 -3.64385,24.77659c-5.40444,5.97666 -17.7565,4.84135 -25.50471,4.09479c-7.2313,-0.69676 -16.36057,-2.71791 -20.54115,-8.87793c-4.16057,-6.13054 -3.39177,-16.38083 -2.55861,-25.02773c1.67032,-17.33541 14.72057,-30.26158 29.14855,-28.87141c14.42798,1.39018 24.7701,16.57027 23.09979,33.90569z" fill="none" stroke="#000000"/></g><g><path d="M120.30546,697.29868c-0.77331,8.02581 1.01531,19.62411 -3.64388,24.77659c-5.40444,5.97666 -17.75648,4.8414 -25.50469,4.09484c-7.2313,-0.69676 -16.36061,-2.71796 -20.54119,-8.87796c-4.16057,-6.13054 -3.39175,-16.38083 -2.55859,-25.02775c1.67032,-17.33544 14.72057,-30.26158 29.14855,-28.87141c14.42795,1.39018 24.7701,16.57027 23.09979,33.90569z" fill="#444444" stroke="#000000"/><path d="M119.22983,713.97142c-0.89367,9.275 -13.4751,15.65141 -28.10141,14.24212c-14.62631,-1.40929 -25.75881,-10.07061 -24.86513,-19.34561c0.89367,-9.275 1.85908,-41.79177 16.48538,-40.38248c2.49157,0.24007 -4.07566,7.61562 -8.41936,17.11383c-3.98282,8.70901 -5.80624,19.48772 -3.22218,22.13284c5.76547,5.90173 21.34248,11.20307 32.31373,10.49364c10.23022,-0.66152 16.09941,-7.26836 15.809,-4.25436z" fill="#282828" stroke="none"/><path d="M119.6744,698.07339c-0.77331,8.02581 1.01533,19.62409 -3.64383,24.77659c-5.40444,5.97666 -17.7565,4.84138 -25.50471,4.09481c-7.2313,-0.69676 -16.36057,-2.71791 -20.54117,-8.87794c-4.16057,-6.13054 -3.39177,-16.38083 -2.55861,-25.02773c1.67032,-17.33541 14.72057,-30.26161 29.14855,-28.87143c14.42798,1.39018 24.77013,16.57028 23.09981,33.90571z" fill="none" stroke="#000000"/></g><g><path d="M164.56623,697.49684c-0.77331,8.02581 1.01531,19.62409 -3.64388,24.77659c-5.40444,5.97666 -17.75648,4.84138 -25.50471,4.09481c-7.2313,-0.69676 -16.36059,-2.71793 -20.54117,-8.87794c-4.16057,-6.13054 -3.39177,-16.38083 -2.55861,-25.02773c1.67032,-17.33544 14.72057,-30.26161 29.14855,-28.87143c14.42795,1.39018 24.7701,16.57027 23.09978,33.90571z" fill="#444444" stroke="#000000"/><path d="M163.49061,714.16956c-0.89367,9.275 -13.4751,15.65141 -28.10139,14.24213c-14.62631,-1.40929 -25.75878,-10.0706 -24.86511,-19.34561c0.89367,-9.275 1.85906,-41.79179 16.48535,-40.38251c2.49157,0.24007 -4.07566,7.61565 -8.41936,17.11385c-3.98282,8.70901 -5.80626,19.4877 -3.22218,22.13282c5.76547,5.90173 21.34248,11.20307 32.31373,10.49364c10.23022,-0.66152 16.09941,-7.26834 15.809,-4.25436z" fill="#282828" stroke="none"/><path d="M163.93516,698.2715c-0.77331,8.02581 1.01533,19.62411 -3.64383,24.77662c-5.40444,5.97666 -17.75648,4.84135 -25.50469,4.09479c-7.2313,-0.69676 -16.36059,-2.71789 -20.54118,-8.87791c-4.16057,-6.13054 -3.39174,-16.38085 -2.55859,-25.02777c1.67032,-17.33541 14.72057,-30.26158 29.14855,-28.87141c14.42798,1.39018 24.77011,16.57025 23.09979,33.90569z" fill="none" stroke="#000000"/></g></g><g stroke-linecap="butt"><g><path d="M-73.38562,664.01744c1.67032,-17.33544 30.202,-28.76993 63.72718,-25.53967c33.52525,3.23026 59.34876,19.90203 57.67844,37.23747c-0.83316,8.64692 -2.32258,18.82778 -13.8082,23.45076c-11.54087,4.64519 -33.11619,3.70789 -49.91901,2.08889c-18.00396,-1.73473 -46.68809,-4.55341 -57.18439,-12.06218c-9.04888,-6.47332 -1.26741,-17.14946 -0.4941,-25.17529z" fill="#444444" stroke="#000000"/><path d="M-76.20941,680.52169c0.29041,-3.01397 11.65243,5.25315 34.901,9.14042c24.93257,4.16887 62.33354,3.97209 77.42667,0.08015c6.76467,-1.74436 6.0035,-12.77206 -0.36597,-22.47855c-6.94662,-10.58606 -19.66538,-19.8199 -13.87591,-19.26207c33.98605,3.27466 25.88237,35.10363 24.9887,44.37863c-0.89367,9.275 -29.16928,14.13923 -63.15535,10.86457c-33.98605,-3.27466 -60.81277,-13.44816 -59.9191,-22.72316z" fill="#282828" stroke="none"/><path d="M-72.18446,664.96867c1.67032,-17.33544 30.20195,-28.76993 63.7272,-25.53967c33.52525,3.23026 59.34874,19.90205 57.67842,37.23746c-0.83316,8.64692 -2.32261,18.82777 -13.80822,23.45076c-11.54088,4.64521 -33.11615,3.70789 -49.91894,2.0889c-18.00396,-1.73473 -46.68809,-4.55341 -57.18439,-12.06215c-9.04888,-6.47332 -1.26736,-17.14946 -0.49405,-25.17529z" fill="none" stroke="#000000"/></g><g><path d="M-101.33518,668.55375c1.67032,-17.33544 14.72059,-30.26158 29.14855,-28.87141c14.42798,1.39018 24.77011,16.57025 23.09979,33.90569c-0.83316,8.64692 -2.0356,18.85543 -7.29017,24.07879c-5.27982,5.24846 -14.6271,5.48939 -21.85837,4.79264c-7.74821,-0.74656 -20.0898,-1.99059 -24.25367,-8.8892c-3.58969,-5.94731 0.38052,-16.9907 1.15384,-25.01651z" fill="#444444" stroke="#000000"/><path d="M-103.46278,685.12511c0.29041,-3.01397 4.79013,4.59195 14.70584,7.19456c10.63396,2.79116 26.93657,0.56151 33.72282,-4.13082c3.04156,-2.10309 3.30972,-13.03161 1.06302,-22.34086c-2.45026,-10.15283 -7.48846,-18.64662 -4.99688,-18.40655c14.62631,1.40929 9.36541,33.51217 8.47173,42.7872c-0.89367,9.275 -13.4751,15.65141 -28.10141,14.24212c-14.62631,-1.40929 -25.75881,-10.07061 -24.86513,-19.34561z" fill="#282828" stroke="none"/><path d="M-100.86371,669.4347c1.67032,-17.33544 14.72057,-30.26158 29.14855,-28.87141c14.42798,1.39018 24.7701,16.57027 23.09979,33.90569c-0.83316,8.64692 -2.0356,18.85543 -7.29017,24.07879c-5.27983,5.24849 -14.62705,5.48937 -21.85835,4.79262c-7.74821,-0.74656 -20.0898,-1.99056 -24.25367,-8.88916c-3.58969,-5.94731 0.38055,-16.9907 1.15386,-25.01651z" fill="none" stroke="#000000"/></g><g><path d="M-25.48856,678.57282c1.67032,-17.33544 14.72059,-30.26158 29.14855,-28.87141c14.42798,1.39018 24.77011,16.57025 23.09979,33.90569c-0.83316,8.64692 -2.0356,18.85543 -7.29015,24.07879c-5.27982,5.24846 -14.6271,5.48939 -21.8584,4.79263c-7.74821,-0.74656 -20.08977,-1.99058 -24.25364,-8.8892c-3.58969,-5.94731 0.38052,-16.9907 1.15384,-25.01651z" fill="#444444" stroke="#000000"/><path d="M-27.61614,695.14418c0.29041,-3.01397 4.79015,4.59195 14.70587,7.19456c10.63396,2.79116 26.93657,0.56151 33.72282,-4.13082c3.04156,-2.10309 3.3097,-13.03161 1.06299,-22.34088c-2.45026,-10.15283 -7.48843,-18.64662 -4.99686,-18.40655c14.62631,1.40929 9.36541,33.51217 8.47173,42.7872c-0.89367,9.275 -13.4751,15.65141 -28.10141,14.24212c-14.62631,-1.40929 -25.75881,-10.07061 -24.86513,-19.34561z" fill="#282828" stroke="none"/><path d="M-25.01707,679.45375c1.67032,-17.33544 14.72059,-30.26158 29.14857,-28.8714c14.42798,1.39018 24.7701,16.57027 23.09979,33.90569c-0.83316,8.64692 -2.0356,18.85543 -7.29017,24.07879c-5.27983,5.24849 -14.62707,5.48937 -21.85837,4.79261c-7.74821,-0.74656 -20.0898,-1.99056 -24.25367,-8.88916c-3.58969,-5.94731 0.38055,-16.9907 1.15386,-25.01651z" fill="none" stroke="#000000"/></g><g><path d="M-68.9729,670.31648c1.67032,-17.33544 14.72059,-30.2616 29.14855,-28.87143c14.42798,1.39018 24.7701,16.57027 23.09978,33.90571c-0.83316,8.64692 -2.0356,18.85543 -7.29017,24.07879c-5.27982,5.24846 -14.6271,5.48939 -21.85837,4.79264c-7.74821,-0.74656 -20.08977,-1.99058 -24.25364,-8.8892c-3.58969,-5.94731 0.38052,-16.99068 1.15384,-25.01651z" fill="#444444" stroke="#000000"/><path d="M-71.10047,686.88782c0.29041,-3.01397 4.79013,4.59192 14.70584,7.19456c10.63396,2.79116 26.93659,0.56152 33.72284,-4.13082c3.04156,-2.10309 3.30968,-13.03162 1.06299,-22.34086c-2.45026,-10.15283 -7.48843,-18.64662 -4.99686,-18.40655c14.62631,1.40929 9.36541,33.51217 8.47173,42.7872c-0.89367,9.275 -13.47507,15.65142 -28.10139,14.24213c-14.62631,-1.40929 -25.75881,-10.07061 -24.86513,-19.34561z" fill="#282828" stroke="none"/><path d="M-68.5014,671.19738c1.67032,-17.33544 14.72057,-30.26158 29.14855,-28.87141c14.42798,1.39018 24.7701,16.57027 23.09979,33.90569c-0.83316,8.64692 -2.0356,18.85543 -7.29015,24.07879c-5.27983,5.24849 -14.62709,5.48935 -21.85837,4.79259c-7.74821,-0.74656 -20.08977,-1.99056 -24.25365,-8.88915c-3.58969,-5.94731 0.38055,-16.9907 1.15386,-25.01651z" fill="none" stroke="#000000"/></g></g><g><path d="M222.01095,430.29618l-40.474,-105.10145l16.47111,-6.34295l40.474,105.10145z" fill="#1b1b1b" stroke="#000000" stroke-linecap="butt"/><g data-paper-data="{&quot;index&quot;:null}"><path d="M182.85097,224.83209c15.66215,1.50909 48.65637,117.81682 47.26784,132.22772c-0.15399,1.59822 -2.91717,-2.12652 -6.1186,-2.97188c-4.3014,-1.1358 -9.77556,-0.17003 -14.40345,-3.55264c-8.0288,-5.86841 -14.67864,-16.47871 -18.22327,-12.39154c-6.60338,7.61407 10.85125,58.32749 3.30863,57.60073c-15.66217,-1.5091 -44.09272,-133.14075 -42.70419,-147.55165c0.68914,-7.1522 -3.79898,-15.80131 1.7204,-20.02666c5.60153,-4.28826 21.26366,-4.0942 29.15262,-3.33408z" fill="#444444" stroke="#000000" stroke-linecap="butt"/><path d="M188.42693,333.6402c8.66312,0.83472 19.66917,3.5223 28.93029,5.41335c8.19618,1.6736 15.29438,1.83409 14.2631,12.53729c-0.52682,5.46763 -9.34512,6.11329 -18.83893,0.7328c-8.87502,-5.02982 -18.3747,-16.07452 -21.2876,-12.54391c-6.96314,8.43977 12.57091,53.05233 3.81875,52.20903c-16.33005,-1.57345 -45.05405,-119.81061 -42.85747,-142.60774c1.44925,-15.04109 14.34405,52.16149 30.03327,93.417c8.09033,21.27379 -0.47892,-5.13209 5.07692,-4.59677z" fill="#282828" stroke="none" stroke-linecap="butt"/><path d="M182.95851,223.71646c15.66215,1.50909 48.65637,117.81682 47.26784,132.22772c-0.59976,6.22464 -9.42643,-7.44783 -14.77939,-0.09565c-2.85973,3.92779 -21.6921,-24.99023 -24.22178,-17.79009c-3.69771,10.52462 8.8474,57.07946 3.56448,56.57043c-15.66217,-1.5091 -44.09272,-133.14075 -42.70419,-147.55165c0.73674,-7.64628 -5.02601,-17.93749 1.12912,-22.16121c5.4454,-3.73671 22.3919,-1.90792 29.74387,-1.19954z" fill="none" stroke="#000000" stroke-linecap="butt"/><path d="M168.1919,314.78665l46.44067,-27.37667" fill="none" stroke="#000000" stroke-linecap="round"/></g></g><g><path d="M47.40848,215.38278c7.88896,0.76012 23.3,3.56006 27.97971,8.83895c4.61108,5.20145 -1.44587,12.83451 -2.13501,19.98671c-1.38853,14.4109 -54.42891,138.19259 -70.09108,136.68349c-15.66217,-1.5091 -28.7871,-30.32816 -27.39857,-44.73906c1.38853,-14.4109 55.98278,-122.27921 71.64493,-120.77012z" fill="#444444" stroke="#000000" stroke-linecap="butt"/><path d="M-4.89478,354.92238c5.55584,0.53532 18.13221,-4.33696 30.13558,-23.67466c23.27764,-37.50094 48.76641,-101.00515 47.31716,-85.96406c-2.19657,22.79713 -52.96754,133.37472 -69.29759,131.80127c-16.33003,-1.57345 -30.12308,-23.78996 -27.92651,-46.58709c2.19657,-22.79713 3.44132,22.85109 19.77135,24.42454z" fill="#282828" stroke="none" stroke-linecap="butt"/><path d="M47.51595,214.26715c7.35198,0.70838 24.33589,2.14889 28.96765,6.85656c5.23544,5.32123 -2.38623,14.32281 -3.12297,21.9691c-1.38853,14.4109 -54.42891,138.19259 -70.09108,136.68349c-15.66217,-1.5091 -28.7871,-30.32816 -27.39857,-44.73906c1.38853,-14.4109 55.98278,-122.27921 71.64493,-120.77012z" fill="none" stroke="#000000" stroke-linecap="butt"/><path d="M4.26334,270.74126l40.35918,35.74009" fill="none" stroke="#000000" stroke-linecap="round"/></g><g stroke-linecap="butt"><path d="M117.07769,301.39052c25.91758,2.49724 44.61927,28.48239 41.77136,58.03947c-0.89057,9.24281 15.4068,10.74462 15.28146,18.05582c-0.0443,2.58348 -15.2053,4.89101 -19.17996,8.70941c-4.84881,4.6582 1.11928,10.80628 -1.59415,12.93844c-4.20036,3.30056 -14.88929,-29.7288 -23.94724,-22.86069c-10.12782,7.67935 -16.59764,32.73584 -22.64466,32.15319c-25.91758,-2.49724 -44.61927,-28.48239 -41.77136,-58.03947c2.84791,-29.55709 26.16696,-51.49342 52.08456,-48.99618z" fill="#212121" stroke="#000000"/><path d="M85.47947,418.06506l13.89204,-144.17865l33.14911,3.19401l-13.89204,144.17865z" fill="#1b1b1b" stroke="#000000"/><path d="M117.68424,231.51503c13.76879,1.32666 36.26079,-9.74756 46.1633,20.85824c4.2026,12.98904 17.11777,87.77601 5.25323,121.57166c-5.29953,15.09551 -29.60551,-1.71417 -37.63656,4.97475c-12.0867,10.06683 -18.89901,-55.52021 -31.22201,-64.47054c-10.48872,-7.61807 -27.52371,41.54272 -27.78626,44.26758c-2.31604,24.03701 65.68449,67.48786 36.19046,64.64603c-29.49403,-2.84184 -62.81466,-15.32713 -60.49862,-39.36409c1.50478,-15.61733 4.48001,-103.31551 23.91082,-143.27841c10.47567,-21.54503 35.29443,-10.20066 45.62562,-9.20522z" fill="#444444" stroke="#000000"/><path d="M109.50089,422.22986c-0.88452,0.07792 -59.05614,9.83048 -62.18668,-39.85899c-1.43502,-22.77729 10.38965,-100.51782 22.29733,-132.69551c12.53082,-33.86156 25.17199,-21.65197 23.31267,-23.04728c-3.97092,-2.97991 -34.31837,98.78328 -37.98685,150.16531c-1.88083,26.34357 44.71143,39.61212 42.95015,37.47791c-10.49418,-12.71618 -35.98977,-45.53314 -37.29989,-46.88945c-5.45184,-5.64399 21.41818,-45.98016 20.35993,-50.61688c-1.53393,-6.72084 24.68108,-9.98645 26.51413,-9.53884c7.88773,1.92602 16.11166,54.16141 30.43915,66.86364c8.67044,7.68691 26.52468,-18.19115 28.05385,-23.96394c8.7661,-33.09319 -15.50342,-111.95202 -5.46983,-110.98525c16.76371,1.61523 14.73304,114.83853 13.52869,127.33781c-1.20434,12.49925 -10.51589,16.99166 -27.27963,15.37642c-3.14765,-0.30329 -14.51287,-1.87125 -20.16973,-12.0982c-10.70015,-19.34462 -17.7964,-53.27908 -28.40601,-53.06676c-8.60906,0.1723 -22.69591,24.02793 -26.00336,41.94946c-1.93806,10.50152 4.96909,20.51988 5.17247,18.40908c0.05147,-0.5342 50.07127,43.60488 32.17358,45.18153z" fill="#282828" stroke="none"/><path d="M118.77917,231.65389c13.76879,1.32666 36.26079,-9.74756 46.1633,20.85824c11.30956,34.95465 9.03265,112.75917 7.79782,125.57491c-0.23924,2.483 -19.19712,1.63275 -32.65146,0.26502c-6.62396,-0.67339 -9.03629,2.46975 -12.84964,-1.88268c-15.14724,-17.28849 -10.67391,-57.85203 -27.22889,-61.59043c-3.11872,-0.70427 -17.46819,24.1449 -21.91196,34.38576c-0.92138,2.12339 -1.34449,5.5676 -1.84118,5.51546c-4.26573,-0.44779 -1.81328,3.02532 -3.35172,4.25827c-12.03401,9.64446 52.47107,65.96967 36.83589,64.46317c-29.49403,-2.84184 -62.81466,-15.32713 -60.49862,-39.36409c1.50477,-15.61731 4.48001,-103.31551 23.91082,-143.27841c10.47567,-21.54503 35.29443,-10.20063 45.62561,-9.20519z" fill="none" stroke="#000000"/><path d="M119.0804,242.13806c22.79278,2.19615 37.62892,41.76534 33.13743,88.38025c-2.10348,21.83099 14.13865,57.07427 6.59571,48.78293c-3.39418,-3.73095 -21.14142,5.35026 -29.38292,-6.48109c-12.55102,-18.01801 -16.93602,-58.22213 -24.25104,-58.92695c-17.76129,-1.71135 -32.10037,54.85491 -35.45185,48.12474c-0.94942,-1.90654 -1.04137,-29.16241 -0.04988,-39.45258c4.49148,-46.6149 26.60974,-82.62343 49.40252,-80.42728z" fill="#b7b7b7" stroke="#000000"/><path d="M80.6797,280.89734c0.51635,-5.35896 7.33157,-24.60767 19.62476,-33.64342c5.24776,-3.85722 14.2759,-3.93707 19.68707,-3.41569c18.08716,1.74275 26.92439,35.72359 26.18762,43.3702c-0.73677,7.64661 -6.79135,-32.90195 -24.87852,-34.6447c-2.68358,-0.25857 -29.19399,12.87258 -35.32161,26.05284c-1.38091,2.97026 -18.4833,54.13665 -13.84253,58.11374c2.85815,2.44943 6.03946,-16.38267 15.03018,-25.31497c8.65319,-8.59696 23.09814,-7.35038 27.15712,-3.02284c8.83616,9.42079 15.76595,43.05092 23.20396,53.61949c10.09813,14.34827 19.31602,5.04821 18.60071,10.47606c-0.9773,7.416 -13.76643,12.29066 -29.97753,-7.96178c-7.37647,-9.21542 -15.55388,-49.21302 -23.48671,-51.52467c-14.6824,-4.27853 -33.89121,46.72544 -34.64765,46.30766c-3.52676,-1.94791 -1.46975,-30.06311 3.41728,-52.40009c2.76781,-12.65077 9.11472,-24.65089 9.24585,-26.01179z" fill="#989898" stroke="none"/><path d="M117.48285,241.98413c22.79278,2.19615 37.62892,41.76534 33.13743,88.38025c-2.10348,21.83099 14.13865,57.07427 6.59571,48.78293c-3.39418,-3.73095 -21.14142,5.35026 -29.38292,-6.48109c-12.55102,-18.01801 -16.93602,-58.22213 -24.25104,-58.92695c-17.76129,-1.71135 -32.10037,54.85491 -35.45185,48.12474c-0.94942,-1.90654 -1.04137,-29.16241 -0.04988,-39.45258c4.49148,-46.6149 26.60974,-82.62343 49.40252,-80.42728z" fill="none" stroke="#000000"/></g><g stroke-linecap="butt"><path d="M174.29544,248.14632c-0.3188,3.18806 -0.97759,37.58452 -15.31498,36.25341c-14.33741,-1.33111 -36.9241,-37.88571 -36.6053,-41.07377c0.3188,-3.18806 28.70376,-32.67995 43.04117,-31.34883c14.33741,1.33111 9.19791,32.98115 8.87911,36.1692z" data-paper-data="{&quot;index&quot;:null}" fill="#de3636" stroke="#000000"/><path d="M175.96995,247.525c-0.3188,3.18806 -0.97759,37.58452 -15.31498,36.25341c-14.33741,-1.33111 -36.9241,-37.88571 -36.6053,-41.07377c0.3188,-3.18806 28.70376,-32.67995 43.04117,-31.34883c14.33741,1.33111 9.19791,32.98115 8.87911,36.1692z" data-paper-data="{&quot;index&quot;:null}" fill="#de3636" stroke="#000000"/><path d="M175.07029,252.49074c-0.74386,7.43878 -1.58349,32.0906 -14.37684,30.90284c-12.79337,-1.18776 -32.69589,-27.76529 -31.95203,-35.2041c0.30094,-3.00952 26.59566,28.29144 32.4262,21.72429c8.5811,-9.66519 -1.48734,-57.30396 6.13018,-56.59674c12.79337,1.18776 8.51634,31.73491 7.77248,39.1737z" data-paper-data="{&quot;index&quot;:null}" fill="#b72c2c" stroke="none"/><path d="M174.73331,247.79859c-0.3188,3.18806 -0.97759,37.58452 -15.31498,36.25341c-14.33741,-1.33111 -36.9241,-37.88571 -36.6053,-41.07377c0.3188,-3.18806 28.70376,-32.67995 43.04117,-31.34883c14.33741,1.33111 9.19791,32.98115 8.87911,36.1692z" data-paper-data="{&quot;index&quot;:null}" fill="none" stroke="#000000"/><path d="M75.21336,205.15617c14.33741,1.33111 36.35622,35.50257 36.03742,38.69062c-0.3188,3.18806 -29.73343,34.91478 -44.07083,33.58367c-14.33741,-1.33111 -8.16824,-35.21598 -7.84945,-38.40403c0.3188,-3.18806 1.54547,-35.20137 15.88286,-33.87026z" data-paper-data="{&quot;index&quot;:null}" fill="#de3636" stroke="#000000"/><path d="M74.62157,207.04326c7.61752,0.70722 -11.70551,45.61725 -5.1975,56.68333c4.42196,7.51902 36.43537,-18.36853 36.13443,-15.35901c-0.74386,7.43878 -25.54669,29.86581 -38.34006,28.67805c-12.79337,-1.18776 -8.73267,-25.5405 -7.98881,-32.97931c0.74386,-7.43878 2.59859,-38.21083 15.39194,-37.02308z" fill="#b72c2c" stroke="none"/><path d="M76.37304,205.65225c14.33741,1.33111 36.35622,35.50257 36.03742,38.69062c-0.3188,3.18806 -29.73343,34.91478 -44.07083,33.58367c-14.33741,-1.33111 -8.16824,-35.21598 -7.84945,-38.40403c0.3188,-3.18806 1.54547,-35.20137 15.88286,-33.87026z" fill="none" stroke="#000000"/><path d="M114.54152,227.06251c8.82301,0.81914 15.27354,8.50261 14.40768,17.16152c-0.86587,8.65891 -8.72027,15.01429 -17.54325,14.19515c-8.82301,-0.81914 -15.27354,-8.50261 -14.40768,-17.16152c0.86587,-8.65891 8.72024,-15.01429 17.54325,-14.19515z" fill="#de3636" stroke="#000000"/><path d="M103.61872,231.48606c4.13283,0.3837 -1.85002,16.27597 3.34474,20.50773c5.61803,4.57659 22.25856,-2.43571 22.08188,-0.66885c-0.32002,3.20024 -6.99008,7.56585 -14.91754,7.1314c-0.49626,-0.02718 -0.27655,0.77967 -0.78334,0.73262c-8.60244,-0.79866 -15.79133,-7.35565 -15.45128,-10.75623c0.34005,-3.40061 -2.87688,-17.74531 5.72556,-16.94665z" fill="#b72c2c" stroke="none"/><path d="M114.90245,227.4844c8.82301,0.81914 15.27354,8.50263 14.40767,17.16155c-0.86587,8.65893 -8.72025,15.01431 -17.54325,14.19517c-8.82301,-0.81914 -15.27354,-8.50263 -14.40767,-17.16155c0.86587,-8.65893 8.72025,-15.01431 17.54325,-14.19517z" fill="none" stroke="#000000"/></g><g><path d="M67.09711,208.04709l16.22392,-55.05695l70.73984,20.84529l-16.22392,55.05695z" fill="#1b1b1b" stroke="#000000" stroke-linecap="butt"/><path d="M59.77393,209.51567l4.62136,-15.68288l79.74915,23.50011l-4.62136,15.68288z" fill="#7c7c7c" stroke="none" stroke-linecap="butt"/><path d="M86.46883,197.0734c8.13932,2.39845 -26.60523,1.80257 -13.21409,9.82379c7.98413,4.7824 68.3518,19.04836 67.74328,21.11341c-1.62914,5.52859 -47.43666,-7.088 -60.42878,-10.91647c-12.99214,-3.82846 -22.20365,-11.41386 -20.57453,-16.9424c1.62914,-5.52859 13.48202,-6.90678 26.47413,-3.07832z" fill="#585858" stroke="none" stroke-linecap="butt"/><path d="M59.12237,193.9231l3.83474,-13.01347l87.75745,25.85995l-3.83474,13.01347z" fill="#e1e1e1" stroke="#000000" stroke-linecap="butt"/><path d="M59.84302,189.59012c0.12938,-0.43907 1.80608,-6.15543 6.10408,-7.41603c3.47804,-1.02009 9.51884,2.25351 11.1895,2.78092c4.05955,1.28147 -5.93924,3.47109 -2.18377,7.35473c3.25769,3.36886 19.98453,8.39301 26.67797,10.50271c11.43105,3.60291 24.45335,4.84672 33.18271,7.41904c25.15495,7.41256 17.20987,2.51617 16.12379,6.20191c-1.08609,3.68572 -22.35867,0.6645 -47.51365,-6.74805c-25.15495,-7.41256 -44.66666,-16.40945 -43.58058,-20.09517z" fill="#bfbfbf" stroke="none" stroke-linecap="butt"/><g data-paper-data="{&quot;index&quot;:null}" stroke-linecap="butt"><path d="M268.72939,116.89265c-10.80209,0.06546 -28.32419,9.15922 -34.98731,5.02437c-7.74756,-4.80778 -3.68606,-23.42652 -2.15405,-31.30629c1.5172,-7.80363 8.04568,-22.9192 17.53638,-27.82676c8.33465,-4.30977 19.0007,1.09842 29.92415,1.03222c23.36219,-0.14157 39.99093,11.62524 37.1414,26.28192c-2.84955,14.65663 -24.09836,26.65299 -47.46056,26.79457z" fill="#444444" stroke="#000000"/><path d="M253.53168,118.6061c-0.97525,0.66256 -2.61029,0.22467 -3.57543,0.80059c-8.29542,4.95019 -16.36137,5.91658 -18.21403,2.94995c-2.06818,-3.31178 6.96035,-51.9531 16.31787,-58.31031c4.92725,-3.34744 -11.78564,23.23574 3.40346,33.73394c13.65705,9.43931 59.54163,2.65682 60.52081,4.22477c1.41714,2.26922 -18.97475,9.42728 -37.29391,13.22505c-8.4163,1.74479 -18.21298,1.37477 -21.15875,3.376z" fill="#282828" stroke="none"/><path d="M295.13198,107.43717c-13.16984,8.94717 -52.59352,12.14849 -54.4792,9.12892c-1.88568,-3.01959 -4.17047,-30.07313 8.99937,-39.0203c13.16984,-8.94717 63.23359,7.75192 65.11929,10.77147c1.88568,3.01959 -6.46961,10.17273 -19.63948,19.11991z" fill="#b7b7b7" stroke="#000000"/><path d="M307.90823,90.70736c-2.43405,1.65362 8.55022,5.47792 1.34532,10.674c-6.10322,4.40154 -29.86704,10.22243 -38.03175,12.02411c-11.87823,2.62111 -22.76861,3.94105 -28.84174,2.44897c-3.06811,-0.75382 -4.13607,-3.12308 -5.04653,-4.58098c-1.96716,-3.15002 -0.52245,-7.80689 -0.39723,-11.39305c0.35877,-10.27299 7.30777,-21.11608 18.07149,-21.7299c19.57999,-1.11657 49.72008,5.55592 53.62698,11.81209c0.486,0.77826 -18.76774,-4.98835 -35.70474,-6.7047c-12.25781,-1.24217 -22.97688,0.61237 -25.68005,3.93159c-5.17264,6.35147 -2.57451,24.63192 0.05825,25.29795c7.0209,1.77617 25.27707,1.03294 38.53456,-4.88629c15.5702,-6.95178 25.57411,-19.27747 22.06542,-16.89379z" fill="#989898" stroke="none"/><path d="M293.86191,108.28818c-13.16984,8.94717 -52.59352,12.14849 -54.4792,9.12892c-1.88568,-3.01959 -4.17047,-30.07313 8.99937,-39.0203c13.16984,-8.94717 63.23359,7.75192 65.11929,10.77147c1.88568,3.01959 -6.46961,10.17273 -19.63948,19.11991z" fill="none" stroke="#000000"/><path d="M268.07576,116.82249c-10.80209,0.06546 -19.25185,6.51249 -25.91501,2.37765c-7.74756,-4.80778 -5.62234,-15.07761 -4.09036,-22.95738c1.5172,-7.80363 0.90966,-28.62138 10.40042,-33.52893c8.33465,-4.30977 19.0007,1.09842 29.92415,1.03222c23.36219,-0.14157 39.99093,11.62524 37.1414,26.28192c-2.84955,14.65663 -24.09836,26.65299 -47.46056,26.79457z" fill="none" stroke="#000000"/></g><g data-paper-data="{&quot;index&quot;:null}" stroke-linecap="butt"><path d="M232.02713,119.26435c-11.02096,3.64164 -24.54419,18.40913 -33.36495,16.53931c-10.2563,-2.17413 -15.12007,-21.87418 -17.36973,-30.14977c-2.22796,-8.19557 -2.87048,-25.25905 4.46307,-33.24004c6.44019,-7.00879 19.97351,-5.20921 31.11831,-8.8918c23.83551,-7.87596 36.27789,2.87595 40.46238,18.26874c4.18449,15.39279 -1.47354,29.59755 -25.30905,37.47352z" fill="#444444" stroke="#000000"/><path d="M217.30696,125.98627c-0.67693,0.97613 -2.56202,1.08587 -3.27055,1.97327c-6.08981,7.62719 -13.87475,11.25091 -17.20749,8.93977c-3.72047,-2.58003 -18.04587,-53.5225 -11.5509,-62.88846c0.93864,-1.35358 16.74933,-7.83492 17.2083,-4.96781c0.38579,2.40988 -5.15988,5.43057 -6.36979,10.2142c-2.59532,10.2609 -1.22151,24.25052 8.98564,26.88293c18.54653,4.78313 49.26952,-13.66977 51.03098,-12.44825c2.54928,1.76785 -1.90773,12.14905 -18.81207,21.95946c-7.7663,4.50713 -17.9695,7.38655 -20.01412,10.33495z" fill="#282828" stroke="none"/><path d="M254.46164,101.19947c-9.14105,13.1817 -47.92838,29.39286 -51.32056,27.0405c-3.3922,-2.35237 -18.83553,-28.26634 -9.6945,-41.44804c9.14105,-13.1817 53.42815,-11.93691 56.82032,-9.58453c3.3922,2.35237 13.33579,10.8104 4.19474,23.9921z" fill="#b7b7b7" stroke="#000000"/><path d="M249.68368,79.2979c-1.68945,2.43624 10.79751,10.21082 5.9426,17.71928c-4.11255,6.36029 -15.25685,13.5041 -22.73821,17.984c-16.38258,9.81007 -35.13168,14.4801 -40.01147,11.09614c-9.73893,-6.75357 -12.56364,-19.53984 -6.30925,-28.5589c1.74086,-2.51037 5.1336,-8.99847 12.65203,-11.92381c19.49328,-7.58466 45.90595,-10.0978 52.93412,-5.22399c0.87429,0.60632 -13.96064,0.40744 -32.12199,4.32411c-13.1439,2.83457 -23.2132,8.21253 -24.37112,12.37994c-2.21577,7.97447 9.29821,25.13573 12.31471,24.92053c8.04418,-0.57395 26.36378,-7.35221 37.06138,-17.57786c12.5637,-12.00945 7.08256,-28.65123 4.64721,-25.13937z" fill="#989898" stroke="none"/><path d="M253.57439,102.45904c-9.14105,13.1817 -47.92838,29.39286 -51.32056,27.0405c-3.3922,-2.35237 -18.83553,-28.26634 -9.6945,-41.44804c9.14105,-13.1817 56.78274,-10.8508 60.17494,-8.49842c3.3922,2.35237 9.98116,9.72427 0.84012,22.90597z" fill="none" stroke="#000000"/><path d="M231.32438,119.41164c-11.02096,3.64164 -24.54419,18.40913 -33.36495,16.53931c-10.2563,-2.17413 -15.12007,-21.87418 -17.36973,-30.14977c-2.22796,-8.19557 -2.87048,-25.25905 4.46307,-33.24004c6.44019,-7.00879 19.97351,-5.20921 31.11831,-8.8918c23.83551,-7.87596 34.45707,7.19411 38.64153,22.58692c4.18449,15.39279 0.3473,25.2794 -23.48823,33.15536z" fill="none" stroke="#000000"/></g><g stroke-linecap="butt"><path d="M33.26668,-31.71611c9.62879,-11.4116 29.22273,-5.83937 43.76436,12.44592c6.79926,8.5497 17.70095,13.4655 19.57131,22.66019c2.12981,10.47007 -5.54912,25.03495 -10.67576,31.11082c-5.17664,6.13518 -17.13132,20.97557 -25.73503,17.95636c-7.39947,-2.59663 -11.30567,-21.94763 -18.02934,-30.40231c-14.54161,-18.28532 -18.5243,-42.35941 -8.89556,-53.77102z" fill="#444444" stroke="#000000"/><path d="M50.35907,34.96684c-0.28869,-3.54951 -6.72105,-10.94799 -10.64046,-18.5976c-8.53108,-16.65041 -15.74477,-37.02262 -13.08853,-37.34205c1.83536,-0.22071 25.32968,39.77198 41.24704,44.48929c17.70296,5.24652 27.92656,-24.44292 28.40948,-18.50575c0.91713,11.27548 -31.30664,48.81369 -35.18321,49.27985c-3.47258,0.41757 -7.77856,-6.47097 -9.12549,-16.03677c-0.15672,-1.11295 -1.52325,-2.11184 -1.6188,-3.28697z" fill="#282828" stroke="none"/><path d="M32.96828,-4.43987c-1.29079,-15.86916 -0.95943,-26.86324 2.5751,-27.28823c3.53451,-0.42503 47.9394,28.09599 49.23019,43.96515c1.29079,15.86916 -21.21383,31.0566 -24.74837,31.4816c-3.53451,0.42503 -25.76615,-32.28935 -27.05694,-48.15851z" fill="#b7b7b7" stroke="#000000"/><path d="M37.98611,-24.8835c-0.3439,-4.22785 -3.67014,11.29432 0.68023,27.78166c3.7042,14.03842 14.57493,28.72407 20.36161,33.07864c2.16995,1.63292 18.03779,-7.80826 19.74081,-15.82059c0.88999,-4.18718 -4.38814,-13.69923 -13.04328,-22.46764c-11.95908,-12.11563 -28.52591,-23.49551 -27.61492,-23.60506c7.32309,-0.88057 31.42298,18.41043 42.83316,34.36134c6.27252,8.76869 2.18511,20.98158 -5.59137,27.70387c-2.71467,2.34664 -5.43579,6.39254 -9.12307,6.83591c-1.70656,0.2052 -4.22173,0.85931 -6.73307,-1.05767c-4.97105,-3.79447 -10.77296,-13.10469 -16.18103,-24.0004c-3.71728,-7.48932 -14.08726,-29.64932 -14.48668,-37.16353c-0.4715,-8.87064 9.39613,-2.71355 9.15759,-5.6465z" fill="#989898" stroke="none"/><path d="M33.10193,-2.9169c-1.29079,-15.86916 -0.95943,-26.86324 2.5751,-27.28823c3.53451,-0.42503 47.9394,28.09599 49.23019,43.96515c1.29079,15.86916 -21.21383,31.0566 -24.74837,31.4816c-3.53451,0.42503 -25.76615,-32.28935 -27.05694,-48.15851z" fill="none" stroke="#000000"/><path d="M33.73123,-31.25099c9.62879,-11.4116 29.22273,-5.83937 43.76436,12.44592c6.79926,8.5497 17.70095,13.4655 19.57131,22.66019c2.12981,10.47007 -14.46593,23.053 -19.59256,29.12889c-5.17664,6.13518 -11.84287,14.23133 -20.44656,11.2121c-7.39947,-2.59663 -7.67732,-13.22139 -14.40101,-21.67607c-14.54161,-18.28532 -18.5243,-42.35941 -8.89556,-53.77102z" fill="none" stroke="#000000"/></g><g stroke-linecap="butt"><path d="M76.64801,8.91438c14.61361,-6.39459 30.79153,-3.44655 39.60583,20.05818c4.12128,10.9901 14.01056,20.40244 12.59055,29.81427c-1.61697,10.71736 -15.31048,20.91848 -23.09119,24.32315c-7.85665,3.43787 -26.25118,12.00473 -34.37692,5.37974c-6.98846,-5.6977 -3.96751,-25.49239 -8.043,-36.36038c-8.81425,-23.50472 -1.29884,-36.82037 13.31476,-43.21493z" fill="#444444" stroke="#000000"/><path d="M62.82725,45.73997c-2.96059,-19.31929 2.32993,-29.30154 5.30569,-28.42466c2.05612,0.60588 6.95173,36.10864 22.30895,47.5545c8.4519,6.29928 20.20985,-1.40445 26.57425,-9.86117c2.96707,-3.94248 1.84182,-10.15639 3.96077,-11.36732c2.52102,-1.44063 7.38863,14.93894 6.92305,16.51896c-3.22162,10.93281 -51.8845,31.72421 -56.2274,30.44445c-3.89028,-1.14636 -5.95021,-9.48262 -3.82883,-19.00938c0.24681,-1.10841 -0.84995,-2.64554 -0.5142,-3.78498c1.01417,-3.44164 -3.14218,-13.19466 -4.50235,-22.07042z" fill="#282828" stroke="none"/><path d="M63.33362,23.3257c4.53414,-15.38693 17.35825,-12.94654 21.31796,-11.77972c3.95969,1.16682 32.70447,34.88079 28.17031,50.26775c-4.53415,15.38692 -34.40372,19.61058 -38.36341,18.44377c-3.95969,-1.16682 -15.65898,-41.54484 -11.12484,-56.93177z" fill="#b7b7b7" stroke="#000000"/><path d="M83.38911,13.31132c1.20797,-4.09936 -15.19166,2.06856 -16.6662,19.38616c-1.25553,14.74534 4.95435,33.26535 9.55234,39.89084c1.72422,2.4845 22.31206,0.68966 27.1336,-6.03747c2.51973,-3.51555 0.39341,-14.73125 -5.64212,-26.74662c-8.33948,-16.60201 -17.79826,-28.0321 -16.77771,-27.73137c8.20396,2.4175 22.81155,24.56613 29.12939,44.50605c2.43675,7.69071 -0.48892,14.40237 -1.35242,17.33272c-3.10231,10.5279 -14.83296,16.34681 -26.20114,12.99689c-5.69615,-1.67853 -13.81749,-19.21084 -16.45108,-38.12357c-1.20267,-8.63672 -2.62775,-21.79723 -0.25302,-28.98943c2.8034,-8.49045 16.69029,-3.64044 17.52828,-6.48424z" fill="#989898" stroke="none"/><path d="M62.90902,24.80674c4.53414,-15.38693 14.40838,-14.87826 18.36808,-13.71142c3.95969,1.16682 35.65433,36.8125 31.12019,52.19945c-4.53415,15.38692 -34.40372,19.61058 -38.36341,18.44377c-3.95969,-1.16682 -15.65898,-41.54484 -11.12484,-56.93177z" fill="none" stroke="#000000"/><path d="M74.7526,13.68056c14.61361,-6.39459 33.01297,-7.57297 41.82722,15.93174c4.12128,10.9901 14.01056,20.40244 12.59055,29.81427c-1.61697,10.71736 -15.31048,20.91848 -23.09119,24.32315c-7.85665,3.43787 -26.25118,12.00473 -34.37692,5.37974c-6.98846,-5.6977 -3.96751,-25.49239 -8.043,-36.36038c-8.81425,-23.50472 -3.52026,-32.69394 11.09338,-39.08849z" fill="none" stroke="#000000"/></g><g><g><path d="M53.28602,162.16266c-11.91716,-35.95638 11.00361,-87.35001 30.76181,-93.89856c12.22323,-4.0512 57.77089,-9.00964 80.26625,8.89998c13.86718,11.04034 32.04472,20.21455 36.58947,33.92682c11.91716,35.95638 -12.03377,84.46708 -31.79197,91.01563c-9.77599,3.24008 -35.65942,-7.53721 -58.86095,-15.33785c-23.69106,-7.96524 -50.94381,-6.44014 -56.96459,-24.60605z" fill="#444444" stroke="#000000" stroke-linecap="butt"/><path d="M50.35982,127.67459c0.59838,-2.03064 2.84919,-31.8349 17.31565,-47.85654c12.33604,-13.66224 35.65237,-13.8211 51.58915,-16.05024c37.87537,-5.29778 77.54796,40.04621 80.27039,40.84843c1.82183,0.53685 -25.26915,-23.87275 -55.28883,-33.51622c-14.65337,-4.70722 -31.91509,-0.64577 -43.16341,1.41442c-8.76911,1.60611 -24.20398,5.4299 -28.70936,12.03411c-11.74238,17.21259 -14.57462,43.78056 -15.37947,46.51189c-2.32131,7.87751 3.80998,15.1938 -1.40129,13.65816c-5.21127,-1.53562 -7.55404,-9.16652 -5.23275,-17.044z" fill="#282828" stroke="none" stroke-linecap="butt"/><path d="M99.88009,77.65531c4.24231,1.2501 21.14575,21.96745 42.76683,32.05716c19.31987,9.01584 43.42266,6.98144 49.3642,16.03106c4.52137,6.88652 -7.89731,25.2933 -8.31877,34.08519c-0.60048,12.52671 9.2233,15.17965 7.88517,19.72067c-4.89261,16.60338 -56.4263,-17.11061 -71.45416,-21.53895c-15.02786,-4.42834 -23.24412,-21.47794 -18.35153,-38.0813c4.89261,-16.60338 -16.91962,-46.70211 -1.89175,-42.27378z" fill="#282828" stroke="none" stroke-linecap="butt"/><path d="M53.31448,161.53867c-11.91716,-35.95638 11.00361,-87.35001 30.76181,-93.89856c12.22323,-4.0512 57.77089,-9.00964 80.26625,8.89998c13.86718,11.04034 32.04472,20.21455 36.58947,33.92682c11.91716,35.95638 -12.03377,84.46708 -31.79197,91.01563c-9.77599,3.24008 -35.65942,-7.53721 -58.86094,-15.33787c-23.69106,-7.96524 -50.94381,-6.44014 -56.96458,-24.60602z" fill="none" stroke="#000000" stroke-linecap="butt"/><path d="M75.8012,116.76773c1.91582,-6.50145 7.49975,-29.27599 17.21689,-33.55066c11.32037,-4.97997 27.24512,9.17728 33.98388,11.16302c12.5231,3.69025 -1.70289,21.67565 -5.85059,35.75119c-4.14772,14.07556 -17.6621,22.4945 -30.18518,18.80425c-12.5231,-3.69025 -19.3127,-18.09226 -15.16497,-32.16783z" fill="#000000" stroke="#000000" stroke-linecap="butt"/><path d="M181.04296,153.89921c-3.18323,10.80252 -15.91575,16.56817 -28.43884,12.87792c-12.5231,-3.69025 -20.09455,-15.43896 -16.91132,-26.24149c3.18323,-10.80252 -0.41493,-28.88326 12.10816,-25.19303c6.73873,1.98573 27.19913,0.75112 34.5344,9.29475c6.29644,7.33365 0.17794,24.27222 -1.2924,29.26186z" data-paper-data="{&quot;index&quot;:null}" fill="#000000" stroke="#000000" stroke-linecap="butt"/><path d="M55.7846,163.0501c0.2147,-0.72863 -4.31157,-9.12382 -3.78881,-9.88328c1.87082,-2.71778 -5.48297,-14.60761 1.08576,-15.32182c14.79984,-1.60915 50.40709,11.59708 67.25801,16.56264c18.24462,5.37623 57.16627,15.68078 66.53116,27.51041c4.19642,5.30083 -13.14451,14.69688 -13.98436,17.547c-2.71415,9.21065 -35.05035,-6.98957 -61.47035,-14.7749c-26.41998,-7.78531 -58.3456,-12.42944 -55.63145,-21.64009z" fill="#b7b7b7" stroke="#000000" stroke-linecap="butt"/><path d="M55.71597,162.77766c0.31839,-1.0805 -8.17655,-23.31545 -5.90405,-23.70003c4.21071,-0.71262 12.0301,19.7602 23.54954,26.27135c12.94646,7.31772 30.85311,13.15097 44.50651,17.17429c12.14217,3.578 28.5691,12.05524 41.45814,11.55732c11.99704,-0.46343 20.75358,-9.83793 24.70306,-8.61914c3.11522,0.96133 -10.70013,10.37722 -11.13301,11.84629c-1.54659,5.24845 -24.23907,-0.13621 -55.93193,-9.33047c-0.50738,-0.14718 -2.95175,-1.82032 -3.46165,-1.97056c-32.35841,-9.53522 -59.35794,-17.89665 -57.78659,-23.2291z" fill="#989898" stroke="none" stroke-linecap="butt"/><path d="M55.55443,163.30383c0.21471,-0.7286 -4.3116,-9.12382 -3.78884,-9.88327c1.87082,-2.71778 -5.48297,-14.60761 1.08574,-15.32182c14.79984,-1.60915 50.4071,11.59709 67.25804,16.56265c18.24462,5.37623 57.16625,15.68077 66.53116,27.51041c4.19642,5.30083 -13.14451,14.69688 -13.98436,17.547c-2.71415,9.21065 -35.05035,-6.98957 -61.47035,-14.7749c-26.41997,-7.78531 -58.34559,-12.42944 -55.63143,-21.64005z" fill="none" stroke="#000000" stroke-linecap="butt"/><path d="M122.38222,153.4232c15.02786,4.42834 26.255,11.26035 25.07648,15.2597c-1.1785,3.99934 -14.3164,3.6516 -29.34424,-0.77674c-15.02786,-4.42834 -26.255,-11.26035 -25.07648,-15.2597c1.1785,-3.99934 14.3164,-3.6516 29.34424,0.77674z" fill="#000000" stroke="#000000" stroke-linecap="butt"/><path d="M62.87983,141.13339l8.44461,-2.75842l7.02203,2.06923l-7.72372,6.78676l-2.37877,6.45382" fill="none" stroke="#000000" stroke-linecap="round"/><path d="M73.5931,145.24433l15.20801,0.18853" fill="none" stroke="#000000" stroke-linecap="round"/><path d="M79.99607,146.17713l-2.58653,8.77756" fill="none" stroke="#000000" stroke-linecap="round"/><path d="M85.20042,145.84919l10.55642,7.8806" fill="none" stroke="#000000" stroke-linecap="round"/><path d="M82.49164,163.60707l4.57732,-13.91475" fill="none" stroke="#000000" stroke-linecap="round"/><path d="M174.7509,156.45059l-0.08676,18.09992l-24.52621,-5.79631l1.55191,-5.26651" fill="none" stroke="#000000" stroke-linecap="round"/><path d="M171.82727,167.9907l-11.61438,-9.14629" fill="none" stroke="#000000" stroke-linecap="round"/><path d="M151.14086,176.6815l5.89394,-13.52676" fill="none" stroke="#000000" stroke-linecap="round"/><path d="M161.88582,169.35408l-6.23102,16.28935" fill="none" stroke="#000000" stroke-linecap="round"/><path d="M167.07392,172.79083l-0.83102,9.29486" fill="none" stroke="#000000" stroke-linecap="round"/><path d="M172.6775,171.58014l0.19947,13.89136" fill="none" stroke="#000000" stroke-linecap="round"/></g><path d="M188.09906,107.91544l1.29327,-4.38879l5.73292,-1.64956" fill="none" stroke="#000000" stroke-linecap="round"/><path d="M113.59591,80.71434l-1.21483,2.50393l-2.84099,1.54774" fill="none" stroke="#000000" stroke-linecap="round"/></g><path d="M59.97058,208.84832l3.34311,-11.34506l79.74915,23.50011l-3.34311,11.34506z" fill="none" stroke="#000000" stroke-linecap="butt"/><path d="M59.99784,193.98755l3.83474,-13.01347l87.75745,25.85995l-3.83474,13.01347z" fill="none" stroke="#000000" stroke-linecap="butt"/><path d="M84.12735,188.40508l-3.28347,9.91205" fill="none" stroke="#000000" stroke-linecap="round"/><path d="M114.49208,197.35282l-2.75315,9.343" fill="none" stroke="#000000" stroke-linecap="round"/><path d="M133.46676,214.18641l0.81073,-11.366" fill="none" stroke="#000000" stroke-linecap="round"/></g></g></g></svg>