<svg version="1.1" xmlns="http://www.w3.org/2000/svg" xmlns:xlink="http://www.w3.org/1999/xlink" width="246.58989" height="207.37949" viewBox="0,0,246.58989,207.37949"><defs><radialGradient cx="214.39619" cy="74.4046" r="53.39488" gradientUnits="userSpaceOnUse" id="color-1"><stop offset="0" stop-color="#d1d1d1"/><stop offset="1" stop-color="#d1d1d1" stop-opacity="0"/></radialGradient><radialGradient cx="335.20745" cy="67.96985" r="40.85541" gradientUnits="userSpaceOnUse" id="color-2"><stop offset="0" stop-color="#ff0000"/><stop offset="1" stop-color="#ff0000" stop-opacity="0"/></radialGradient><radialGradient cx="217" cy="178.5" r="54.25" gradientUnits="userSpaceOnUse" id="color-3"><stop offset="0" stop-color="#ff0000"/><stop offset="1" stop-color="#ff0000" stop-opacity="0"/></radialGradient></defs><g transform="translate(-129.47297,-25.14658)"><g data-paper-data="{&quot;isPaintingLayer&quot;:true}" fill-rule="nonzero" stroke-linejoin="miter" stroke-miterlimit="10" stroke-dasharray="" stroke-dashoffset="0" style="mix-blend-mode: normal"><path d="M214.39619,28.44445c29.48918,0 53.39488,20.57706 53.39488,45.96015c0,25.38309 -23.9057,45.96015 -53.39488,45.96015c-29.48918,0 -53.39488,-20.57706 -53.39488,-45.96015c0,-25.38309 23.9057,-45.96015 53.39488,-45.96015z" fill="url(#color-1)" stroke="none" stroke-width="3" stroke-linecap="butt"/><path d="M214.39619,52.77629c11.94498,0 21.62831,9.68332 21.62831,21.62831c0,11.94498 -9.68332,21.62831 -21.62831,21.62831c-11.94498,0 -21.62831,-9.68332 -21.62831,-21.62831c0,-11.94498 9.68332,-21.62831 21.62831,-21.62831z" fill="#ffffff" stroke="#7d7d7d" stroke-width="3" stroke-linecap="butt"/><path d="M201.49716,84.02041l10.36356,-1.57706l26.13421,2.02765" fill="none" stroke="#7d7d7d" stroke-width="3" stroke-linecap="round"/><path d="M194.38174,78.60743c0,0 -7.43109,-6.39033 -9.74877,-10.08971c-2.20009,-3.51169 -3.82292,-11.57282 -3.82292,-11.57282l6.78585,-0.52199c0,0 2.34226,-6.93716 5.58788,-10.60612c4.40093,-4.97498 18.4236,-16.53729 18.4236,-16.53729l-2.08795,7.82983c0,0 14.43001,-0.82073 20.77982,-0.23111c5.77536,0.53629 15.75937,3.62403 15.75937,3.62403l-8.35182,4.43691c0,0 5.35757,4.7183 7.31726,8.47162c2.83944,5.43825 8.0814,21.02074 8.0814,21.02074c0,0 -15.2237,-11.82887 -22.10399,-15.07789c-5.11897,-2.41729 -15.47919,-2.66972 -15.47919,-2.66972l6.26386,6.26386c0,0 -15.66642,1.67822 -20.1974,4.47004c-4.02071,2.47741 -7.20699,11.18961 -7.20699,11.18961z" fill="#7b7b7b" stroke="#7d7d7d" stroke-width="3" stroke-linecap="round"/><path d="M212.97836,68.50464l10.36356,0.22529v6.53355" fill="none" stroke="#7d7d7d" stroke-width="3" stroke-linecap="round"/><path d="M230.77665,75.03819l-1.57706,-7.66002l5.18178,-1.35177" fill="none" stroke="#7d7d7d" stroke-width="3" stroke-linecap="round"/><text transform="translate(131.72297,115.19818) scale(0.5,0.5)" font-size="40" xml:space="preserve" fill="#7b7b7b" fill-rule="nonzero" stroke="#505050" stroke-width="9" stroke-linecap="butt" stroke-linejoin="miter" stroke-miterlimit="10" stroke-dasharray="" stroke-dashoffset="0" font-family="Pixel" font-weight="normal" text-anchor="start" style="mix-blend-mode: normal"><tspan x="0" dy="0">Lancer_Susie-1</tspan></text><text transform="translate(131.72297,115.19818) scale(0.5,0.5)" font-size="40" xml:space="preserve" fill="#ffffff" fill-rule="nonzero" stroke="#505050" stroke-width="0" stroke-linecap="butt" stroke-linejoin="miter" stroke-miterlimit="10" stroke-dasharray="" stroke-dashoffset="0" font-family="Pixel" font-weight="normal" text-anchor="start" style="mix-blend-mode: normal"><tspan x="0" dy="0">Lancer_Susie-1</tspan></text><g stroke-linecap="butt"><path d="M335.20745,29.02102c22.56381,0 40.85541,17.43799 40.85541,38.94883c0,21.51085 -18.29159,38.94884 -40.85541,38.94884c-22.56381,0 -40.85541,-17.43799 -40.85541,-38.94884c0,-21.51084 18.29159,-38.94883 40.85541,-38.94883z" fill="url(#color-2)" stroke="none" stroke-width="NaN"/><g fill="#ff0000" font-family="Pixel" font-weight="normal" font-size="40" text-anchor="start"><text transform="translate(324.41639,110.54149) scale(0.36744,0.36744)" font-size="40" xml:space="preserve" fill="#ff0000" fill-rule="nonzero" stroke="#000000" stroke-width="8" stroke-linecap="butt" stroke-linejoin="miter" stroke-miterlimit="10" stroke-dasharray="" stroke-dashoffset="0" font-family="Pixel" font-weight="normal" text-anchor="start" style="mix-blend-mode: normal"><tspan x="0" dy="0">R4</tspan></text><text transform="translate(324.41639,110.5415) scale(0.36744,0.36744)" font-size="40" xml:space="preserve" fill="#ff0000" fill-rule="nonzero" stroke="none" stroke-width="1" stroke-linecap="butt" stroke-linejoin="miter" stroke-miterlimit="10" stroke-dasharray="" stroke-dashoffset="0" font-family="Pixel" font-weight="normal" text-anchor="start" style="mix-blend-mode: normal"><tspan x="0" dy="0">R4</tspan></text></g><g><path d="M335.20745,41.63652c15.49052,0 28.04806,11.78983 28.04806,26.33333c0,14.5435 -12.55754,26.33334 -28.04806,26.33334c-15.49051,0 -28.04805,-11.78983 -28.04805,-26.33334c0,-14.5435 12.55753,-26.33333 28.04805,-26.33333z" fill="#000000" stroke="#ff0000" stroke-width="3.5"/><path d="M319.84025,67.42883c0,-1.01466 0.82254,-1.83721 1.8372,-1.83721c1.01466,0 1.83721,0.82255 1.83721,1.83721c0,1.01466 -0.82255,1.8372 -1.83721,1.8372c-1.01466,0 -1.8372,-0.82255 -1.8372,-1.8372z" fill="#ff0000" stroke="none" stroke-width="0.5"/><path d="M351.19529,67.91875c0,-1.01466 0.82255,-1.83721 1.83721,-1.83721c1.01466,0 1.83721,0.82255 1.83721,1.83721c0,1.01466 -0.82255,1.8372 -1.83721,1.8372c-1.01466,0 -1.83721,-0.82255 -1.83721,-1.8372z" fill="#ff0000" stroke="none" stroke-width="0.5"/><path d="M326.08169,50.16567c1.78235,0.44559 1.33677,2.22795 1.33677,2.22795l-0.44883,1.73857c-0.0413,1.90749 0.31943,4.00982 -2.08221,5.13972c-1.27331,0.59906 -3.879,-0.69663 -5.11921,-1.22593c-3.24189,-1.38358 -6.1072,-3.23204 -9.33097,-4.66407c0,0 -1.67887,-0.74616 -0.9327,-2.42503c0.74615,-1.67887 2.42503,-0.9327 2.42503,-0.9327c3.2107,1.42772 6.06984,3.25984 9.28607,4.64447c0.77869,0.33523 1.38437,1.15822 2.22962,1.22368c0.16686,0.01292 -0.06546,-0.32939 -0.07473,-0.49649c-0.03162,-0.57022 -0.03186,-1.14175 -0.04778,-1.71261l0.53101,-2.18081c0,0 0.44559,-1.78235 2.22794,-1.33677z" fill="#ff0000" stroke="none" stroke-width="0.5"/><path d="M366.76352,50.48943c0.72372,1.68867 -0.96496,2.41237 -0.96496,2.41237l-1.70349,0.73002c-2.12858,0.94349 -4.39697,1.97171 -6.43055,3.09192c-1.46425,0.8066 -2.50876,2.25475 -3.9745,3.05863c-1.14553,0.62826 -2.47243,1.92979 -3.66358,1.39304c-1.10327,-0.49715 -0.73172,-2.31027 -0.99373,-3.49168c-0.31206,-1.40706 -0.4867,-2.84878 -0.90517,-4.22794c0,0 -0.52792,-1.75972 1.23181,-2.28764c1.75973,-0.52792 2.28764,1.23181 2.28764,1.23181c0.25845,0.87021 0.59087,1.7218 0.77535,2.61063c0.05402,0.26026 0.12253,0.52496 0.18412,0.79101c0.43446,-0.30879 0.89674,-0.59025 1.3168,-0.90962c2.58119,-1.96241 5.74383,-3.30982 8.70191,-4.62776l1.72597,-0.73975c0,0 1.68866,-0.72371 2.41238,0.96495z" fill="#ff0000" stroke="none" stroke-width="0.5"/><path d="M360.91052,76.2251c1.10233,1.46977 -0.36744,2.5721 -0.36744,2.5721l-1.26055,0.90837c-3.02407,1.51079 -5.93856,3.24191 -9.10438,4.42908c-8.02531,4.56981 -15.73991,2.63375 -24.39868,2.13106c-2.36295,-0.13719 -4.89229,0.00747 -7.2159,-0.54526c-3.53731,-0.84145 -6.32055,-3.38639 -9.18291,-5.42824c0,0 -1.495,-1.06786 -0.42714,-2.56286c1.06785,-1.495 2.56286,-0.42714 2.56286,-0.42714c2.45671,1.75697 4.91373,4.15257 7.96437,4.86013c2.83436,0.6574 5.93845,0.34605 8.82036,0.6894c7.07763,0.84322 13.8745,1.65077 20.31543,-2.04315c3.13727,-1.17648 6.02648,-2.89021 9.02274,-4.38952l0.69914,-0.5614c0,0 1.46977,-1.10232 2.57209,0.36745z" fill="#ff0000" stroke="none" stroke-width="0.5"/></g></g><g><path d="M162.75,178.5c0,28.58074 24.28855,51.75 54.25,51.75c29.96145,0 54.25,-23.16926 54.25,-51.75c0,-28.58074 -24.28855,-51.75 -54.25,-51.75c-29.96145,0 -54.25,23.16926 -54.25,51.75z" fill="url(#color-3)" stroke="none" stroke-width="0" stroke-linecap="butt"/><path d="M186,178.5c0,17.53504 13.87918,31.75 31,31.75c17.12083,0 31,-14.21496 31,-31.75c0,-17.53504 -13.87917,-31.75 -31,-31.75c-5.01895,0 -35.75932,-4.27842 -39.95314,-2.10972c-6.01629,3.11112 10.79526,3.11816 15.27513,10.89435c1.50395,2.61058 -20.01248,12.50988 -21.93628,16.90104c-1.97762,4.51403 15.61428,3.51946 15.61428,6.06433z" fill="#ff0000" stroke="#ce0000" stroke-width="3.5" stroke-linecap="butt"/><path d="M195.75,201l21.5,-6l-3.5,-17l-6.5,1.5l-19,-7l-3.5,6" fill="none" stroke="#ce0000" stroke-width="3.5" stroke-linecap="round"/><path d="M223.25,175l5,18.5l20,-10l-4,-26z" fill="none" stroke="#ce0000" stroke-width="3.5" stroke-linecap="round"/><path d="M229.75,179l11,8" fill="none" stroke="#ce0000" stroke-width="3.5" stroke-linecap="round"/><path d="M234.75,171l10.5,10" fill="none" stroke="#ce0000" stroke-width="3.5" stroke-linecap="round"/><path d="M197.25,185.5l17,9.5" fill="none" stroke="#ce0000" stroke-width="3.5" stroke-linecap="round"/><path d="M190.75,192.5l8,8.5" fill="none" stroke="#ce0000" stroke-width="3.5" stroke-linecap="round"/><path d="M223.25,200l12.5,-4l-3,6l-15,8l-1.5,-7l11.5,-4v7.5" fill="none" stroke="#ce0000" stroke-width="3.5" stroke-linecap="round"/><text transform="translate(157.43918,226.27607) scale(0.5,0.5)" font-size="40" xml:space="preserve" fill="#ff0000" fill-rule="nonzero" stroke="none" stroke-width="1" stroke-linecap="butt" stroke-linejoin="miter" stroke-miterlimit="10" stroke-dasharray="" stroke-dashoffset="0" font-family="Sans Serif" font-weight="normal" text-anchor="start" style="mix-blend-mode: normal"><tspan x="0" dy="0">RocketzClub</tspan></text></g></g></g></svg>