<svg version="1.1" xmlns="http://www.w3.org/2000/svg" xmlns:xlink="http://www.w3.org/1999/xlink" width="217.13586" height="360.1599" viewBox="0,0,217.13586,360.1599"><g transform="translate(-122.93514,-3.21624)"><g data-paper-data="{&quot;isPaintingLayer&quot;:true}" fill-rule="nonzero" stroke-linejoin="miter" stroke-miterlimit="10" stroke-dasharray="" stroke-dashoffset="0" style="mix-blend-mode: normal"><g data-paper-data="{&quot;index&quot;:null}"><path d="M250.81689,242.12564c2.30825,-6.6889 12.09201,-4.34188 15.43806,-3.65694c8.68899,1.77865 16.86398,34.10355 20.17193,57.9379c1.57545,11.35143 1.21665,20.88683 0.83305,24.07422c-1.18908,9.87987 -5.68509,18.98392 -18.51233,16.35818c-12.82723,-2.62574 -22.26182,-12.76355 -21.07274,-22.64343c0.8789,-7.30266 -3.39848,-53.11665 3.14203,-72.06993z" data-paper-data="{&quot;index&quot;:null}" fill="#ff48b3" stroke="#000000" stroke-width="0" stroke-linecap="butt"/><path d="M288.23474,321.73532c-1.11514,9.26545 -7.92937,15.56677 -15.22006,14.07435c-6.5466,-1.34008 -21.20784,-7.08593 -22.90992,-14.8039c-0.19345,-0.8772 -0.71283,-0.55845 -0.59902,-1.50405c0.00605,-0.05039 -0.41461,-1.93164 -0.4239,-3.3056c-0.02459,-3.63831 -2.07383,-10.01616 -1.26893,-18.83439c0.75672,-8.29041 -0.6546,-16.35198 0.42191,-24.34011c0.66639,-4.94488 0.38201,-14.0028 1.56807,-20.54135c1.45672,-8.03067 4.36884,-13.1508 4.66404,-13.05696c2.55365,0.81173 0.16641,38.16359 2.7436,58.67944c2.09703,16.69341 13.94659,29.44794 15.76034,30.9268c4.08645,3.33192 8.21027,1.85999 8.79704,-3.3737c0.65567,-5.84801 6.39249,-7.21246 5.16375,-17.27744c-2.96925,-24.32193 -15.37932,-61.53186 -12.16567,-60.87403c7.29069,1.49241 14.5839,64.9655 13.46876,74.23095z" fill="#bb1c79" stroke="none" stroke-width="0" stroke-linecap="butt"/><g fill="none" stroke="#000000" stroke-width="3.5"><path d="M248.97996,313.76437c0.89158,-7.40805 -4.31952,-53.00804 2.4276,-71.62761c2.2513,-6.21276 12.94327,-4.75618 16.1525,-4.09925c12.82724,2.62574 22.19406,72.13225 21.00498,82.01213c-1.18908,9.87987 -5.68509,18.98392 -18.51233,16.35818c-12.82723,-2.62574 -22.26182,-12.76355 -21.07274,-22.64343z" data-paper-data="{&quot;index&quot;:null}" stroke-linecap="butt"/><path d="M248.59177,291.66652l36.10754,-3.77353" stroke-linecap="round"/></g></g><g><path d="M241.64957,316.19557c1.30351,9.87988 -9.03904,20.01769 -23.10074,22.64343c-14.06171,2.62574 -18.9904,-6.47831 -20.29392,-16.35818c-0.42052,-3.18739 -0.81385,-12.72279 0.91321,-24.07422c3.6263,-23.83435 12.58804,-56.15925 22.11323,-57.9379c3.66807,-0.68494 14.39339,-3.03195 16.92379,3.65694c7.16995,18.95328 2.48093,64.76727 3.44441,72.06993z" data-paper-data="{&quot;index&quot;:null}" fill="#ff48b3" stroke="#000000" stroke-width="0" stroke-linecap="butt"/><path d="M211.95127,249.50437c3.52292,-0.65783 -10.08146,36.5521 -13.33647,60.87403c-1.347,10.06498 4.94193,11.42942 5.6607,17.27744c0.64324,5.2337 5.16393,6.70562 9.64365,3.3737c1.9883,-1.47886 14.97824,-14.23339 17.27708,-30.9268c2.82521,-20.51584 0.20823,-57.8677 3.00764,-58.67944c0.32361,-0.09384 3.51599,5.02629 5.1129,13.05696c1.3002,6.53855 0.98846,15.59647 1.71898,20.54135c1.18011,7.98814 -0.36703,16.04971 0.46251,24.34011c0.88236,8.81823 -1.3641,15.19608 -1.39105,18.83439c-0.01018,1.37396 -0.47133,3.25521 -0.4647,3.3056c0.12476,0.94561 -0.4446,0.62685 -0.65667,1.50405c-1.86588,7.71797 -17.93808,13.46381 -25.11472,14.8039c-7.99233,1.49241 -15.46236,-4.8089 -16.68482,-14.07435c-1.22246,-9.26545 6.77263,-72.73854 14.76496,-74.23095z" fill="#bb1c79" stroke="none" stroke-width="0" stroke-linecap="butt"/><g fill="none" stroke="#000000" stroke-width="3.5"><path d="M240.21886,315.76437c1.30351,9.87988 -9.03904,20.0177 -23.10074,22.64343c-14.06171,2.62574 -18.9904,-6.47831 -20.29392,-16.35818c-1.30351,-9.87988 8.96475,-79.38639 23.02645,-82.01213c3.51808,-0.65693 15.23903,-2.11351 17.70698,4.09925c7.39645,18.61958 1.68384,64.21956 2.66123,71.62761z" data-paper-data="{&quot;index&quot;:null}" stroke-linecap="butt"/><path d="M240.64441,293.66652l-39.58245,-3.77353" stroke-linecap="round"/></g></g><g stroke-linecap="butt"><g><g><path d="M209.51539,220.55391c0,-11.60706 -7.80632,-51.33606 1.33562,-64.9925c7.41489,-11.07652 44.4102,-1.93707 50.77639,-1.93707c5.65588,0 11.35823,-3.67585 13.0909,5.55684c2.62214,13.97229 4.34557,43.12809 4.34557,55.78558c0,21.02137 -16.41245,39.22655 -30.62764,39.22655c-14.21519,0 -38.92085,-12.61802 -38.92085,-33.63939z" fill="#ff48b3" stroke="#000000" stroke-width="0"/><path d="M208.61395,224.21848c0,-1.97358 11.46881,15.97824 28.30993,20.3187c12.73678,3.28265 31.23675,-5.10616 34.85357,-13.66054c1.59561,-3.77389 4.08886,-18.68148 3.89563,-31.01104c-0.22792,-14.54331 -3.67186,-27.19551 -9.17081,-38.34362c-5.80562,-11.76981 -27.14791,-9.82024 -24.36534,-9.82024c4.21399,0 11.01397,0.26128 18.31199,1.33334c4.09333,0.6013 9.7794,-0.29752 11.76004,3.42575c10.75705,20.22147 6.71014,63.97465 6.71014,67.75765c0,5.72142 -11.78077,30.38021 -31.195,30.38021c-0.54703,0 -3.88528,-0.71612 -4.42728,-0.75071c-18.69376,-1.19292 -34.68288,-24.0693 -34.68288,-29.6295z" fill="#bb1c79" stroke="none" stroke-width="0"/><path d="M209.63693,220.44268c0,-11.60706 -7.80633,-51.33606 1.33562,-64.9925c7.41489,-11.07652 44.41021,-1.93707 50.7764,-1.93707c5.65587,0 11.35823,-3.67585 13.0909,5.55684c2.62214,13.97228 4.34557,43.12809 4.34557,55.78557c0,21.02137 -16.41245,39.22655 -30.62764,39.22655c-14.21518,0 -38.92084,-12.61802 -38.92084,-33.63939z" fill="none" stroke="#000000" stroke-width="3.5"/><path d="M250.31058,255.82524c-3.85713,0 -32.82459,-4.61577 -32.82459,-28.40142c0,-16.26085 -1.94,-56.5226 5.7243,-70.94255c3.54669,-6.67291 18.66329,3.89658 19.88353,3.89658c1.82203,0 6.89232,-13.40156 13.9464,-2.6813c7.87899,11.9739 14.92062,49.96071 14.92062,62.51051c0,23.78565 -17.79313,35.61818 -21.65026,35.61818z" fill="#ff94d2" stroke="#000000" stroke-width="0"/><path d="M218.70715,227.53897c0,-5.27539 -5.02424,-70.21559 6.94189,-71.31965c1.71524,-0.15825 -5.21531,69.5702 -1.29579,78.64432c0.18724,0.4335 2.79539,6.80061 8.15917,9.92628c5.85391,3.41129 14.50069,3.58453 14.59614,3.58453c14.78567,0 25.14224,-26.9426 25.14224,-20.83547c0,6.10713 -9.89097,26.88823 -24.67664,26.88823c-9.02305,0 -20.11179,-5.17837 -25.57008,-12.59889c-3.48596,-4.73916 -3.29693,-11.90913 -3.29693,-14.28934z" fill="#ea88c1" stroke="none" stroke-width="0"/><path d="M272.0824,219.63024c0,23.78564 -17.79313,35.61817 -21.65026,35.61817c-3.85713,0 -32.82459,-4.61577 -32.82459,-28.40142c0,-16.26085 -1.94,-56.5226 5.7243,-70.94255c3.5467,-6.67292 18.6633,3.89657 19.88354,3.89657c1.82203,0 6.89232,-13.40155 13.9464,-2.68129c7.87899,11.9739 14.92062,49.96072 14.92062,62.51051z" fill="none" stroke="#000000" stroke-width="3.5"/></g><path d="M241.40788,185.70178c2.1857,0 3.95757,1.71976 3.95757,3.84118c0,2.12143 -1.77186,3.84118 -3.95757,3.84118c-2.1857,0 -3.95757,-1.71976 -3.95757,-3.84118c0,-2.12143 1.77186,-3.84118 3.95757,-3.84118z" fill="#000000" stroke="#000000" stroke-width="3.5"/></g><path d="M242.10629,168.47469c1.92857,0 3.49198,1.45918 3.49198,3.25918c0,1.8 -1.56341,3.25918 -3.49198,3.25918c-1.92857,0 -3.49198,-1.45918 -3.49198,-3.25918c0,-1.8 1.56341,-3.25918 3.49198,-3.25918z" fill="#000000" stroke="#000000" stroke-width="3.5"/></g><g data-paper-data="{&quot;index&quot;:null}"><path d="M292.21685,155.98112c8.04609,1.8686 18.25536,60.00969 16.67537,66.81301c-1.57998,6.80331 -12.66722,17.81223 -20.71333,15.94363c-8.0461,-1.8686 -14.97159,-67.01825 -13.39161,-73.82157c0.78415,-3.37651 -1.03193,-7.84893 2.08698,-9.46978c3.16534,-1.64499 11.28978,-0.40648 15.34256,0.53472z" fill="#ff48b3" stroke="#000000" stroke-width="0" stroke-linecap="butt"/><path d="M296.01308,229.39525c8.3892,1.94828 16.20725,-18.6806 13.70782,-7.9182c-2.49943,10.76241 -12.87872,18.64908 -21.26792,16.7008c-8.38922,-1.94829 -16.26526,-60.70154 -13.76583,-71.46394c1.64907,-7.10082 4.34323,26.04188 10.03509,46.95663c2.93507,10.7849 8.43662,15.06187 11.29081,15.72472z" fill="#bb1c79" stroke="none" stroke-width="0" stroke-linecap="butt"/><path d="M292.06201,156.64795c8.04609,1.8686 18.25536,60.00969 16.67537,66.81301c-1.57998,6.80331 -12.66723,17.81222 -20.71333,15.94362c-8.0461,-1.8686 -14.97159,-67.01823 -13.39161,-73.82155c0.83832,-3.60977 -1.54204,-8.96221 1.90703,-10.53579c3.05138,-1.39213 11.74561,0.72358 15.52252,1.60072z" fill="none" stroke="#000000" stroke-width="3.5" stroke-linecap="butt"/><path d="M304.72052,189.48283l-25.75577,9.72064" fill="none" stroke="#000000" stroke-width="3.5" stroke-linecap="round"/></g><g><path d="M203.35376,152.39371c4.09394,0.742 12.04397,2.82465 14.29821,5.58938c2.22118,2.72418 -1.21863,6.11067 -1.83682,9.52147c-1.24557,6.8724 -33.42308,63.94295 -41.55089,62.46984c-8.12782,-1.47311 -13.94435,-15.97454 -12.69878,-22.84693c1.24557,-6.8724 33.66046,-56.20688 41.78826,-54.73378z" fill="#ff48b3" stroke="#000000" stroke-width="0" stroke-linecap="butt"/><path d="M170.77403,218.29216c2.88318,0.52255 9.62923,-1.22393 16.59808,-9.96257c13.51441,-16.94653 29.12256,-46.30777 27.82253,-39.13484c-1.97042,10.87171 -32.48573,61.69289 -40.96014,60.15697c-8.4744,-1.53592 -14.8783,-12.89017 -12.90789,-23.76188c1.97041,-10.8717 0.97301,11.1664 9.4474,12.70232z" fill="#bb1c79" stroke="none" stroke-width="0" stroke-linecap="butt"/><path d="M203.23165,153.06731c3.81527,0.69149 12.63607,2.19457 14.8859,4.68199c2.54304,2.81162 -1.76361,6.78244 -2.4245,10.42887c-1.24557,6.8724 -33.42308,63.94294 -41.55089,62.46983c-8.12781,-1.47311 -13.94436,-15.97453 -12.69878,-22.84692c1.24557,-6.8724 33.66046,-56.20689 41.78826,-54.73379z" fill="none" stroke="#000000" stroke-width="3.5" stroke-linecap="butt"/><path d="M198.39154,197.32882l-19.79453,-19.13182" fill="none" stroke="#000000" stroke-width="3.5" stroke-linecap="round"/></g><g><path d="M145.93348,224.6476c2.57774,-9.6605 11.80408,-15.5876 20.6076,-13.23852c8.80352,2.34906 13.85052,12.08475 11.27278,21.74525c-2.57774,9.66051 -11.80409,15.5876 -20.60761,13.23852c-8.80353,-2.34906 -13.85052,-12.08475 -11.27278,-21.74525z" fill="#ff48b3" stroke="#000000" stroke-width="0" stroke-linecap="butt"/><path d="M145.54283,231.60051c1.45517,-5.45351 2.42565,-21.11222 10.21638,-19.03339c1.30707,0.34877 -3.30847,5.77374 -4.16522,12.36304c-0.81268,6.25029 2.1243,13.64626 3.47791,15.22159c5.72511,6.66289 19.66311,-4.69385 18.68365,-1.02315c-1.45518,5.4535 -8.95046,8.18923 -16.74119,6.1104c-7.79073,-2.07883 -12.92672,-8.18499 -11.47154,-13.6385z" fill="#bb1c79" stroke="none" stroke-width="0" stroke-linecap="butt"/><path d="M166.2636,212.3102c8.80353,2.34906 13.85052,12.08475 11.27278,21.74525c-2.57774,9.66051 -11.80407,15.5876 -20.6076,13.23852c-8.80353,-2.34906 -13.85052,-12.08475 -11.27277,-21.74525c2.57774,-9.66051 11.80406,-15.5876 20.60759,-13.23852z" fill="none" stroke="#000000" stroke-width="3.5" stroke-linecap="butt"/><g><path d="M137.7747,246.62476c0.43627,7.56696 -2.2119,13.87425 -5.91489,14.08773c-3.70297,0.2135 -7.0585,-5.74764 -7.49477,-13.31459c-0.23237,-4.03033 6.16944,-16.64804 11.90411,-18.79604c5.03219,-1.88486 9.33916,6.45687 11.06985,6.35708c3.70298,-0.2135 -10.0006,4.09886 -9.56431,11.66579z" fill="#ff48b3" stroke="#000000" stroke-width="0" stroke-linecap="butt"/><path d="M136.48685,254.32653c0.18101,3.13948 -3.54869,5.37852 -5.64167,5.4992c-2.09298,0.12068 -3.93642,-2.32655 -4.11743,-5.46603c-0.18101,-3.13948 14.09528,-23.48012 16.18828,-23.6008c0.76805,-0.04429 4.73818,1.84659 2.70472,5.16203c-1.46483,2.38835 -5.5317,4.22656 -7.02386,6.93056c-2.39957,4.34834 -1.94736,9.34964 -1.87672,10.57503z" fill="#bb1c79" stroke="none" stroke-width="0" stroke-linecap="butt"/><path d="M138.09478,246.49509c0.43628,7.56694 -2.2119,13.87424 -5.91487,14.08774c-3.70297,0.2135 -7.0585,-5.74766 -7.49477,-13.31459c-0.23237,-4.03033 6.16944,-16.64804 11.90412,-18.79604c5.03219,-1.88486 9.33916,6.45687 11.06984,6.35708c3.70297,-0.2135 -10.0006,4.09886 -9.56431,11.66579z" fill="none" stroke="#000000" stroke-width="3.5" stroke-linecap="butt"/><path d="M127.47142,239.79244l9.92249,4.69261" fill="none" stroke="#000000" stroke-width="3.5" stroke-linecap="round"/></g><g><path d="M152.63787,252.48735c3.0379,6.94409 2.74587,13.77852 -0.65232,15.26514c-3.39816,1.48664 -8.61562,-2.93748 -11.65352,-9.88156c-1.61806,-3.69857 0.00155,-17.75441 4.6328,-21.76088c4.06395,-3.51567 11.00062,2.81022 12.58885,2.1154c3.39817,-1.48664 -7.95374,7.31783 -4.91583,14.26188z" fill="#ff48b3" stroke="#000000" stroke-width="0" stroke-linecap="butt"/><path d="M154.10587,260.15684c1.26041,2.88105 -1.45913,6.27635 -3.37982,7.11663c-1.92069,0.84028 -4.4995,-0.8141 -5.75991,-3.69516c-1.26041,-2.88105 5.06022,-26.91444 6.98093,-27.75472c0.70483,-0.30836 5.08458,0.0855 4.32958,3.90088c-0.54387,2.74848 -3.71882,5.88505 -4.17866,8.93902c-0.73947,4.91113 1.42205,9.44382 1.914,10.56835z" fill="#bb1c79" stroke="none" stroke-width="0" stroke-linecap="butt"/><path d="M152.89297,252.25456c3.03791,6.94407 2.74586,13.77851 -0.6523,15.26514c-3.39816,1.48664 -8.61563,-2.9375 -11.65352,-9.88156c-1.61806,-3.69857 0.00155,-17.75441 4.63281,-21.76089c4.06395,-3.51567 11.00062,2.81022 12.58884,2.1154c3.39816,-1.48664 -7.95374,7.31783 -4.91583,14.26188z" fill="none" stroke="#000000" stroke-width="3.5" stroke-linecap="butt"/><path d="M140.60274,249.66001l10.93471,0.9532" fill="none" stroke="#000000" stroke-width="3.5" stroke-linecap="round"/></g><g><path d="M168.0502,255.29055c3.96095,6.46221 4.60836,13.27216 1.44599,15.21049c-3.16234,1.93834 -8.93692,-1.72896 -12.89786,-8.19115c-2.10969,-3.44191 -2.43178,-17.58709 1.60668,-22.19048c3.54376,-4.03948 11.28197,1.27602 12.75998,0.37008c3.16235,-1.93834 -6.87575,8.33887 -2.9148,14.80104z" fill="#ff48b3" stroke="#000000" stroke-width="0" stroke-linecap="butt"/><path d="M170.55548,262.68647c1.64338,2.68112 -0.58516,6.41711 -2.37257,7.51269c-1.78741,1.09558 -4.56862,-0.18975 -6.21199,-2.87087c-1.64338,-2.68112 1.32375,-27.35399 3.11117,-28.44958c0.65591,-0.40204 5.04831,-0.61216 4.82335,3.27068c-0.16205,2.79709 -2.87716,6.33918 -2.9141,9.42736c-0.05941,4.96613 2.70294,9.15981 3.34437,10.2063z" fill="#bb1c79" stroke="none" stroke-width="0" stroke-linecap="butt"/><path d="M168.27098,255.02499c3.96095,6.46218 4.60835,13.27215 1.44601,15.21049c-3.16234,1.93834 -8.93693,-1.72898 -12.89786,-8.19115c-2.10969,-3.44191 -2.43177,-17.58708 1.60669,-22.19049c3.54376,-4.03948 11.28197,1.27603 12.75997,0.37009c3.16234,-1.93834 -6.87575,8.33886 -2.9148,14.80103z" fill="none" stroke="#000000" stroke-width="3.5" stroke-linecap="butt"/><path d="M155.74114,254.13934l10.96216,-0.55444" fill="none" stroke="#000000" stroke-width="3.5" stroke-linecap="round"/></g><g data-paper-data="{&quot;index&quot;:null}"><path d="M181.20916,250.69168c-0.01367,-7.57948 -13.94909,-11.07076 -10.23996,-11.07745c1.73356,-0.00313 5.53775,-8.58582 10.67296,-7.003c5.85207,1.80379 12.9916,14.01922 12.99889,18.05624c0.01369,7.5795 -2.98205,13.72931 -6.69117,13.73601c-3.70913,0.00671 -6.72704,-6.13225 -6.74073,-13.71176z" fill="#ff48b3" stroke="#000000" stroke-width="0" stroke-linecap="butt"/><path d="M182.6656,257.41889c-0.00223,-1.22743 0.1523,-6.24675 -2.50117,-10.44498c-1.65005,-2.61066 -5.81886,-4.2042 -7.42288,-6.50138c-2.22668,-3.18888 1.62419,-5.31211 2.39352,-5.31349c2.09647,-0.00378 17.55506,19.45351 17.56073,22.5982c0.00568,3.14469 -1.68924,5.69703 -3.7857,5.70081c-2.09646,0.00378 -5.95248,-2.00991 -5.95816,-5.1546z" fill="#bb1c79" stroke="none" stroke-width="0" stroke-linecap="butt"/><path d="M180.88193,250.58125c-0.01367,-7.57948 -13.94906,-11.07076 -10.23995,-11.07745c1.73355,-0.00312 5.53774,-8.58581 10.67295,-7.003c5.85208,1.80379 12.99161,14.01922 12.9989,18.05623c0.01369,7.57949 -2.98206,13.72932 -6.69117,13.73602c-3.70911,0.0067 -6.72704,-6.13228 -6.74072,-13.71177z" fill="none" stroke="#000000" stroke-width="3.5" stroke-linecap="butt"/><path d="M191.08868,243.25981l-9.62643,5.27336" fill="none" stroke="#000000" stroke-width="3.5" stroke-linecap="round"/></g></g><g data-paper-data="{&quot;index&quot;:null}"><path d="M317.06654,236.8976c2.57774,9.6605 -2.46925,19.39619 -11.27278,21.74525c-8.80352,2.34908 -18.02987,-3.57801 -20.60761,-13.23852c-2.57774,-9.6605 2.46926,-19.39619 11.27278,-21.74525c8.80352,-2.34908 18.02986,3.57802 20.6076,13.23852z" fill="#ff48b3" stroke="#000000" stroke-width="0" stroke-linecap="butt"/><path d="M317.45719,243.8505c1.45518,5.45351 -3.68081,11.55967 -11.47154,13.6385c-7.79073,2.07883 -15.28601,-0.6569 -16.74119,-6.1104c-0.97946,-3.6707 12.95854,7.68604 18.68365,1.02315c1.35361,-1.57533 4.29059,-8.9713 3.47791,-15.22159c-0.85675,-6.5893 -5.47229,-12.01427 -4.16522,-12.36304c7.79073,-2.07883 8.76121,13.57988 10.21638,19.03339z" fill="#bb1c79" stroke="none" stroke-width="0" stroke-linecap="butt"/><path d="M317.34399,237.79872c2.57775,9.6605 -2.46924,19.39619 -11.27277,21.74525c-8.80353,2.34908 -18.02986,-3.57801 -20.6076,-13.23852c-2.57774,-9.6605 2.46925,-19.39619 11.27278,-21.74525c8.80353,-2.34908 18.02985,3.57801 20.60759,13.23852z" fill="none" stroke="#000000" stroke-width="3.5" stroke-linecap="butt"/><g><path d="M325.22531,258.87473c0.43629,-7.56693 -13.26729,-11.87929 -9.56431,-11.66579c1.73069,0.09979 6.03766,-8.24194 11.06985,-6.35708c5.73467,2.148 12.13648,14.76571 11.90411,18.79604c-0.43627,7.56695 -3.7918,13.52809 -7.49477,13.31459c-3.70299,-0.21348 -6.35116,-6.52077 -5.91489,-14.08773z" fill="#ff48b3" stroke="#000000" stroke-width="0" stroke-linecap="butt"/><path d="M326.27984,265.67653c0.07064,-1.22539 0.52285,-6.22669 -1.87672,-10.57503c-1.49216,-2.704 -5.55903,-4.54221 -7.02386,-6.93056c-2.03346,-3.31544 1.93667,-5.20632 2.70472,-5.16203c2.093,0.12068 16.36929,20.46132 16.18828,23.6008c-0.18101,3.13948 -2.02445,5.58671 -4.11743,5.46603c-2.09298,-0.12068 -5.82268,-2.35972 -5.64167,-5.4992z" fill="#bb1c79" stroke="none" stroke-width="0" stroke-linecap="butt"/><path d="M324.90521,258.74507c0.43629,-7.56693 -13.26728,-11.87929 -9.56431,-11.66579c1.73068,0.09979 6.03765,-8.24194 11.06984,-6.35708c5.73468,2.148 12.13649,14.76571 11.90412,18.79604c-0.43627,7.56693 -3.7918,13.52809 -7.49477,13.31459c-3.70297,-0.2135 -6.35115,-6.5208 -5.91487,-14.08774z" fill="none" stroke="#000000" stroke-width="3.5" stroke-linecap="butt"/><path d="M335.52858,252.04244l-9.92249,4.69261" fill="none" stroke="#000000" stroke-width="3.5" stroke-linecap="round"/></g><g><path d="M310.36215,264.73733c3.03791,-6.94405 -8.31401,-15.74853 -4.91584,-14.26189c1.58822,0.69482 8.5249,-5.63107 12.58885,-2.11539c4.63126,4.00647 6.25086,18.06231 4.63281,21.76088c-3.0379,6.94408 -8.25537,11.3682 -11.65353,9.88156c-3.39819,-1.48663 -3.69022,-8.32105 -0.65231,-15.26514z" fill="#ff48b3" stroke="#000000" stroke-width="0" stroke-linecap="butt"/><path d="M308.98801,271.48183c0.49195,-1.12453 2.65348,-5.65722 1.914,-10.56835c-0.45984,-3.05397 -3.63479,-6.19053 -4.17866,-8.93901c-0.755,-3.81538 3.62475,-4.20924 4.32958,-3.90088c1.92071,0.84028 8.24134,24.87367 6.98093,27.75473c-1.26041,2.88106 -3.83921,4.53544 -5.75991,3.69516c-1.92069,-0.84028 -4.64023,-4.23557 -3.37982,-7.11663z" fill="#bb1c79" stroke="none" stroke-width="0" stroke-linecap="butt"/><path d="M310.10703,264.50454c3.03791,-6.94405 -8.31399,-15.74851 -4.91583,-14.26188c1.58821,0.69482 8.52489,-5.63108 12.58884,-2.1154c4.63127,4.00648 6.25087,18.06231 4.63281,21.76089c-3.03789,6.94406 -8.25536,11.36819 -11.65353,9.88156c-3.39816,-1.48663 -3.6902,-8.32107 -0.6523,-15.26514z" fill="none" stroke="#000000" stroke-width="3.5" stroke-linecap="butt"/><path d="M311.46255,262.86321l10.93471,-0.9532" fill="none" stroke="#000000" stroke-width="3.5" stroke-linecap="round"/></g><g><path d="M294.94983,267.54053c3.96095,-6.46217 -6.07716,-16.73938 -2.91481,-14.80104c1.47801,0.90594 9.21622,-4.40957 12.75998,-0.37009c4.03845,4.60339 3.71636,18.74857 1.60667,22.19049c-3.96095,6.4622 -9.73552,10.12948 -12.89786,8.19115c-3.16237,-1.93833 -2.51496,-8.74829 1.44599,-15.21049z" fill="#ff48b3" stroke="#000000" stroke-width="0" stroke-linecap="butt"/><path d="M292.66429,274.03305c0.64143,-1.04649 3.40378,-5.24016 3.34437,-10.2063c-0.03694,-3.08818 -2.75205,-6.63027 -2.9141,-9.42737c-0.22496,-3.88284 4.16744,-3.67273 4.82335,-3.27069c1.78742,1.0956 4.75455,25.76846 3.11117,28.44959c-1.64337,2.68113 -4.42458,3.96646 -6.212,2.87087c-1.78741,-1.09559 -4.01594,-4.83157 -2.37257,-7.51269z" fill="#bb1c79" stroke="none" stroke-width="0" stroke-linecap="butt"/><path d="M294.72902,267.27497c3.96095,-6.46217 -6.07714,-16.73937 -2.91479,-14.80103c1.478,0.90594 9.21621,-4.40957 12.75997,-0.37009c4.03846,4.6034 3.71637,18.74857 1.60668,22.19049c-3.96094,6.46218 -9.73552,10.12949 -12.89786,8.19115c-3.16235,-1.93833 -2.51495,-8.74831 1.446,-15.21049z" fill="none" stroke="#000000" stroke-width="3.5" stroke-linecap="butt"/><path d="M296.2967,265.8349l10.96216,0.55444" fill="none" stroke="#000000" stroke-width="3.5" stroke-linecap="round"/></g><g data-paper-data="{&quot;index&quot;:null}"><path d="M281.79085,262.94171c-0.0137,7.57952 -3.03161,13.71848 -6.74074,13.71177c-3.70911,-0.00669 -6.70485,-6.15651 -6.69116,-13.73602c0.00729,-4.03702 7.14683,-16.25245 12.99889,-18.05624c5.13521,-1.58281 8.93939,6.99988 10.67296,7.003c3.70913,0.00669 -10.22628,3.49797 -10.23996,11.07746z" fill="#ff48b3" stroke="#000000" stroke-width="0" stroke-linecap="butt"/><path d="M280.04807,270.55346c-0.00568,3.14469 -3.86171,5.15838 -5.95817,5.1546c-2.09645,-0.00378 -3.79138,-2.55612 -3.7857,-5.70081c0.00568,-3.14469 15.46427,-22.60198 17.56074,-22.59821c0.76932,0.00139 4.6202,2.12461 2.39351,5.31349c-1.60403,2.29719 -5.77283,3.89072 -7.42288,6.50138c-2.65347,4.19823 -2.49895,9.21754 -2.50117,10.44498z" fill="#bb1c79" stroke="none" stroke-width="0" stroke-linecap="butt"/><path d="M282.11806,262.83128c-0.01368,7.5795 -3.03161,13.71846 -6.74072,13.71177c-3.70911,-0.00669 -6.70485,-6.15654 -6.69116,-13.73602c0.00729,-4.03702 7.14682,-16.25244 12.9989,-18.05623c5.13521,-1.58281 8.93939,6.99988 10.67294,7.003c3.70911,0.00669 -10.22627,3.49797 -10.23994,11.07746z" fill="none" stroke="#000000" stroke-width="3.5" stroke-linecap="butt"/><path d="M281.53774,260.78317l-9.62642,-5.27335" fill="none" stroke="#000000" stroke-width="3.5" stroke-linecap="round"/></g></g><path d="" fill="none" stroke="#000000" stroke-width="0" stroke-linecap="round"/><path d="" fill="none" stroke="#000000" stroke-width="0" stroke-linecap="round"/><g stroke-linecap="butt"><g data-paper-data="{&quot;index&quot;:null}"><path d="M172.17296,339.50785c0,-9.68071 14.54587,-17.52849 32.48911,-17.52849c17.94324,0 32.4891,7.84776 32.4891,17.52849c0,4.82875 -0.26964,10.54121 -6.12418,13.71142c-5.88268,3.18545 -17.37179,3.81707 -26.36493,3.81707c-9.63601,0 -24.99102,-0.03037 -30.94078,-3.62537c-5.1293,-3.09926 -1.54833,-9.42121 -1.54833,-13.90312z" fill="#ff48b3" stroke="#000000" stroke-width="0"/><path d="M171.51877,348.79021c0,-1.68312 6.44758,2.28535 18.97475,3.19676c13.43456,0.97742 33.25799,-1.12537 41.06289,-4.08344c3.49812,-1.32579 2.53102,-7.38682 -1.34262,-12.41785c-4.22464,-5.48692 -11.44111,-9.91793 -8.34249,-9.91793c18.18988,0 15.51885,18.04296 15.51885,23.22245c0,5.17949 -14.74581,9.3783 -32.93569,9.3783c-18.18988,0 -32.9357,-4.19881 -32.9357,-9.3783z" fill="#bb1c79" stroke="none" stroke-width="0"/><path d="M205.34764,322.44165c17.94324,0 32.48911,7.84777 32.48911,17.52849c0,4.82875 -0.26965,10.54121 -6.12418,13.71142c-5.88268,3.18545 -17.37179,3.81707 -26.36493,3.81707c-9.63601,0 -24.99101,-0.03036 -30.94078,-3.62536c-5.1293,-3.09926 -1.54833,-9.42123 -1.54833,-13.90313c0,-9.68072 14.54587,-17.52849 32.48911,-17.52849z" fill="none" stroke="#000000" stroke-width="3.5"/></g><path d="M154.64905,343.63538c0,-9.68072 6.53158,-17.52849 14.58867,-17.52849c8.0571,0 14.58867,7.84776 14.58867,17.52849c0,4.82875 -0.12108,10.54121 -2.74995,13.71142c-2.64152,3.18545 -7.80051,3.81707 -11.83872,3.81707c-4.32688,0 -11.22178,-0.03037 -13.89342,-3.62537c-2.30323,-3.09926 -0.69526,-9.42122 -0.69526,-13.90312z" fill="#ff48b3" stroke="#000000" stroke-width="0"/><path d="M154.35531,352.91772c0,-1.68312 2.89518,2.28534 8.52029,3.19675c6.03256,0.97742 14.93392,-1.12536 18.43858,-4.08342c1.57077,-1.32579 1.13651,-7.38682 -0.60288,-12.41785c-1.897,-5.48692 -5.13743,-9.91793 -3.74605,-9.91793c8.16785,0 6.96847,18.04297 6.96847,23.22246c0,5.1795 -6.62135,9.3783 -14.7892,9.3783c-8.16785,0 -14.7892,-4.19881 -14.7892,-9.3783z" fill="#bb1c79" stroke="none" stroke-width="0"/><path d="M154.95689,344.09766c0,-9.68072 6.53157,-17.52849 14.58867,-17.52849c8.0571,0 14.58867,7.84778 14.58867,17.52849c0,4.82875 -0.12108,10.54121 -2.74995,13.71142c-2.64152,3.18546 -7.8005,3.81706 -11.83871,3.81706c-4.32688,0 -11.22178,-0.03036 -13.89342,-3.62536c-2.30323,-3.09926 -0.69525,-9.42122 -0.69525,-13.90312z" fill="none" stroke="#000000" stroke-width="3.5"/><g><path d="M195.83264,343.04422c0,-9.68072 6.53158,-17.52849 14.58867,-17.52849c8.0571,0 14.58867,7.84776 14.58867,17.52849c0,4.82875 -0.12108,10.54121 -2.74995,13.71142c-2.64152,3.18545 -7.80051,3.81707 -11.83872,3.81707c-4.32688,0 -11.22178,-0.03037 -13.89342,-3.62537c-2.30323,-3.09926 -0.69526,-9.42122 -0.69526,-13.90312z" fill="#ff48b3" stroke="#000000" stroke-width="0"/><path d="M195.5389,352.32657c0,-1.68312 2.89518,2.28534 8.52029,3.19675c6.03256,0.97742 14.93392,-1.12536 18.43858,-4.08342c1.57077,-1.32579 1.13651,-7.38682 -0.60288,-12.41785c-1.897,-5.48692 -5.13743,-9.91793 -3.74605,-9.91793c8.16785,0 6.96847,18.04297 6.96847,23.22246c0,5.1795 -6.62135,9.3783 -14.7892,9.3783c-8.16785,0 -14.7892,-4.19881 -14.7892,-9.3783z" fill="#bb1c79" stroke="none" stroke-width="0"/><path d="M196.14048,343.5065c0,-9.68072 6.53157,-17.52849 14.58867,-17.52849c8.0571,0 14.58867,7.84778 14.58867,17.52849c0,4.82875 -0.12108,10.54121 -2.74995,13.71142c-2.64152,3.18546 -7.8005,3.81706 -11.83871,3.81706c-4.32688,0 -11.22178,-0.03036 -13.89342,-3.62536c-2.30323,-3.09926 -0.69525,-9.42122 -0.69525,-13.90312z" fill="none" stroke="#000000" stroke-width="3.5"/></g><g><path d="M172.97476,342.84717c0,-9.68072 6.53158,-17.52849 14.58867,-17.52849c8.0571,0 14.58867,7.84776 14.58867,17.52849c0,4.82875 -0.12108,10.54121 -2.74995,13.71142c-2.64152,3.18545 -7.80051,3.81707 -11.83872,3.81707c-4.32688,0 -11.22178,-0.03037 -13.89342,-3.62537c-2.30323,-3.09926 -0.69526,-9.42122 -0.69526,-13.90312z" fill="#ff48b3" stroke="#000000" stroke-width="0"/><path d="M172.68102,352.12952c0,-1.68312 2.89518,2.28534 8.52029,3.19675c6.03256,0.97742 14.93392,-1.12536 18.43858,-4.08342c1.57077,-1.32579 1.13651,-7.38682 -0.60288,-12.41785c-1.897,-5.48692 -5.13743,-9.91793 -3.74605,-9.91793c8.16785,0 6.96847,18.04297 6.96847,23.22246c0,5.1795 -6.62135,9.3783 -14.7892,9.3783c-8.16785,0 -14.7892,-4.19881 -14.7892,-9.3783z" fill="#bb1c79" stroke="none" stroke-width="0"/><path d="M173.2826,343.30945c0,-9.68072 6.53157,-17.52849 14.58867,-17.52849c8.0571,0 14.58867,7.84778 14.58867,17.52849c0,4.82875 -0.12108,10.54121 -2.74995,13.71142c-2.64152,3.18546 -7.8005,3.81706 -11.83871,3.81706c-4.32688,0 -11.22178,-0.03036 -13.89342,-3.62536c-2.30323,-3.09926 -0.69525,-9.42122 -0.69525,-13.90312z" fill="none" stroke="#000000" stroke-width="3.5"/></g></g><g data-paper-data="{&quot;index&quot;:null}" stroke-linecap="butt"><g data-paper-data="{&quot;index&quot;:null}"><path d="M314.2065,337.50785c0,4.4819 3.58098,10.80385 -1.54833,13.90312c-5.94977,3.59501 -21.30476,3.62537 -30.94078,3.62537c-8.99313,0 -20.48225,-0.63162 -26.36493,-3.81707c-5.85454,-3.17021 -6.12418,-8.88267 -6.12418,-13.71142c0,-9.68072 14.54587,-17.52848 32.4891,-17.52848c17.94323,0 32.48911,7.84777 32.48911,17.52848z" fill="#ff48b3" stroke="#000000" stroke-width="0"/><path d="M314.86068,346.7902c0,5.17949 -14.74581,9.37831 -32.93569,9.37831c-18.18988,0 -32.93569,-4.19882 -32.93569,-9.37831c0,-5.17949 -2.67103,-23.22244 15.51885,-23.22244c3.09862,0 -4.11786,4.43102 -8.34249,9.91794c-3.87363,5.03103 -4.84073,11.09206 -1.34261,12.41785c7.8049,2.95807 27.62833,5.06086 41.06289,4.08344c12.52717,-0.91141 18.97475,-4.87989 18.97475,-3.19676z" fill="#bb1c79" stroke="none" stroke-width="0"/><path d="M313.52092,337.97014c0,4.4819 3.58097,10.80386 -1.54833,13.90312c-5.94977,3.59501 -21.30476,3.62536 -30.94078,3.62536c-8.99313,0 -20.48226,-0.63162 -26.36494,-3.81707c-5.85453,-3.17021 -6.12418,-8.88267 -6.12418,-13.71142c0,-9.68072 14.54588,-17.52849 32.48911,-17.52849c17.94323,0 32.48911,7.84777 32.48911,17.52849z" fill="none" stroke="#000000" stroke-width="3.5"/></g><path d="M331.73041,341.63537c0,4.4819 1.60797,10.80386 -0.69526,13.90312c-2.67164,3.59501 -9.56654,3.62538 -13.89342,3.62538c-4.03821,0 -9.19721,-0.63162 -11.83872,-3.81707c-2.62887,-3.17021 -2.74995,-8.88268 -2.74995,-13.71142c0,-9.68072 6.53157,-17.52848 14.58867,-17.52848c8.0571,0 14.58867,7.84776 14.58867,17.52848z" fill="#ff48b3" stroke="#000000" stroke-width="0"/><path d="M332.02415,350.91773c0,5.17949 -6.62135,9.3783 -14.78921,9.3783c-8.16786,0 -14.7892,-4.19881 -14.7892,-9.3783c0,-5.17949 -1.19938,-23.22246 6.96847,-23.22246c1.39139,0 -1.84905,4.43102 -3.74605,9.91794c-1.73939,5.03103 -2.17365,11.09206 -0.60288,12.41785c3.50466,2.95806 12.40603,5.06085 18.43858,4.08342c5.6251,-0.91141 8.52029,-4.87987 8.52029,-3.19675z" fill="#bb1c79" stroke="none" stroke-width="0"/><path d="M331.42255,342.09766c0,4.4819 1.60798,10.80386 -0.69525,13.90312c-2.67164,3.59501 -9.56654,3.62536 -13.89342,3.62536c-4.03821,0 -9.19719,-0.63161 -11.83871,-3.81707c-2.62887,-3.17021 -2.74995,-8.88267 -2.74995,-13.71142c0,-9.68072 6.53157,-17.52849 14.58868,-17.52849c8.0571,0 14.58867,7.84777 14.58867,17.52849z" fill="none" stroke="#000000" stroke-width="3.5"/><g><path d="M290.54682,341.04422c0,4.4819 1.60797,10.80386 -0.69526,13.90312c-2.67164,3.59501 -9.56654,3.62537 -13.89342,3.62537c-4.03821,0 -9.1972,-0.63162 -11.83872,-3.81707c-2.62887,-3.17021 -2.74995,-8.88267 -2.74995,-13.71142c0,-9.68072 6.53157,-17.52849 14.58867,-17.52849c8.0571,0 14.58867,7.84777 14.58867,17.52849z" fill="#ff48b3" stroke="#000000" stroke-width="0"/><path d="M290.84056,350.32657c0,5.17949 -6.62135,9.37831 -14.78921,9.37831c-8.16786,0 -14.78921,-4.19881 -14.78921,-9.37831c0,-5.17949 -1.19937,-23.22245 6.96848,-23.22245c1.39139,0 -1.84905,4.43102 -3.74605,9.91794c-1.73939,5.03103 -2.17366,11.09206 -0.60289,12.41785c3.50466,2.95806 12.40603,5.06084 18.43858,4.08342c5.6251,-0.91141 8.52029,-4.87988 8.52029,-3.19675z" fill="#bb1c79" stroke="none" stroke-width="0"/><path d="M290.23896,341.50651c0,4.4819 1.60797,10.80385 -0.69525,13.90312c-2.67164,3.59501 -9.56654,3.62536 -13.89342,3.62536c-4.03821,0 -9.1972,-0.6316 -11.83871,-3.81706c-2.62887,-3.17021 -2.74995,-8.88268 -2.74995,-13.71142c0,-9.68072 6.53157,-17.52849 14.58868,-17.52849c8.0571,0 14.58867,7.84777 14.58867,17.52849z" fill="none" stroke="#000000" stroke-width="3.5"/></g><g><path d="M313.40469,340.84717c0,4.4819 1.60797,10.80386 -0.69525,13.90312c-2.67164,3.59501 -9.56654,3.62537 -13.89342,3.62537c-4.03821,0 -9.1972,-0.63162 -11.83872,-3.81707c-2.62887,-3.17021 -2.74995,-8.88268 -2.74995,-13.71143c0,-9.68072 6.53157,-17.52848 14.58867,-17.52848c8.0571,0 14.58867,7.84776 14.58867,17.52848z" fill="#ff48b3" stroke="#000000" stroke-width="0"/><path d="M313.69844,350.12952c0,5.17949 -6.62135,9.37831 -14.7892,9.37831c-8.16786,0 -14.78921,-4.19881 -14.78921,-9.37831c0,-5.17949 -1.19937,-23.22245 6.96848,-23.22245c1.39139,0 -1.84906,4.43102 -3.74606,9.91794c-1.73939,5.03103 -2.17365,11.09206 -0.60288,12.41785c3.50465,2.95806 12.40603,5.06085 18.43858,4.08342c5.6251,-0.91141 8.52028,-4.87988 8.52028,-3.19675z" fill="#bb1c79" stroke="none" stroke-width="0"/><path d="M313.09684,341.30946c0,4.4819 1.60798,10.80385 -0.69525,13.90312c-2.67164,3.59501 -9.56654,3.62536 -13.89342,3.62536c-4.03822,0 -9.1972,-0.6316 -11.83871,-3.81706c-2.62887,-3.17021 -2.74995,-8.88268 -2.74995,-13.71142c0,-9.68072 6.53157,-17.52849 14.58867,-17.52849c8.0571,0 14.58867,7.84777 14.58867,17.52849z" fill="none" stroke="#000000" stroke-width="3.5"/></g></g><g><path d="M279.10649,138.52817c0.3479,5.2905 -12.59388,10.44889 -28.90628,11.52158c-16.3124,1.07269 -29.81824,-2.34654 -30.16613,-7.63704c-0.3479,-5.2905 12.59388,-10.44889 28.90628,-11.52158c16.3124,-1.07269 29.81824,2.34654 30.16613,7.63704z" fill="#000000" stroke="#000000" stroke-width="3.5" stroke-linecap="butt"/><path d="M282.13131,139.82851c0.15483,2.35455 -5.05308,5.71166 -7.943,7.79385c-5.6327,4.05838 -12.59402,6.18385 -24.8746,6.99141c-18.58127,1.22188 -34.01453,-3.41664 -34.47114,-10.36043c-0.15696,-2.3869 -6.56241,-12.22416 -3.59659,-14.32837c3.19428,-2.26629 1.76108,7.5836 8.32688,13.42574c5.07265,4.51355 23.09613,6.68921 28.41094,6.33972c8.69671,-0.57189 21.41046,-1.92049 27.78666,-9.21073c4.38866,-5.01779 3.48464,-16.81344 5.45401,-17.09876c1.28271,-0.18583 0.81102,14.99062 0.90683,16.44757z" fill="#ff48b3" stroke="#000000" stroke-width="0" stroke-linecap="butt"/><path d="M222.75337,148.87364c6.39715,3.0167 17.64996,4.45025 26.5007,3.86824c8.2532,-0.54272 17.79755,-2.27912 23.37832,-6.56026c6.60478,-5.0667 8.53118,-12.63087 8.65297,-10.77891c0.10071,1.53157 -1.10933,7.23716 -5.79921,10.85266c-5.77277,4.45031 -16.02392,6.8174 -25.96689,7.47124c-11.3328,0.74523 -22.98898,-0.35847 -29.49252,-3.66013c-3.83803,-1.94846 -5.31675,-6.00581 -5.40014,-7.27387c-0.11433,-1.73866 1.49882,2.95552 8.12678,6.08105z" fill="#bb1c79" stroke="none" stroke-width="0" stroke-linecap="butt"/><g><g fill="none" stroke="none" stroke-width="1" stroke-linecap="butt" font-family="sans-serif" font-weight="normal" font-size="12" text-anchor="start"/><g stroke-linecap="butt"><g data-paper-data="{&quot;index&quot;:null}"><path d="M277.639,25.41063c3.71565,-1.36496 11.60435,2.00126 14.55284,3.72444c3.77159,2.20422 9.09095,3.82526 9.06579,9.29338c-0.02248,4.8839 -5.00071,13.42834 -8.12392,18.7724c-2.72316,4.65954 -4.07239,9.8493 -7.73516,12.32879c-5.24142,3.54815 -12.97687,3.08185 -17.17993,0.62546c-2.75651,-1.61099 -8.76939,-5.24804 -9.50468,-8.80651c-1.16933,-5.65908 4.49846,-12.30487 8.56281,-19.25926c3.88632,-6.64981 5.07993,-14.73822 10.36225,-16.67869z" data-paper-data="{&quot;index&quot;:null}" fill="#ff48b3" stroke="#000000" stroke-width="0"/><path d="M258.60126,53.61077c2.44709,-4.18716 15.67983,-31.41334 22.86411,-27.21465c1.26229,0.73772 22.24777,8.39036 20.51634,11.1389c-1.41196,2.24142 -15.70538,-7.81148 -21.05697,-5.70711c-10.66195,4.19253 -14.96238,20.54153 -15.11305,25.81144c-0.20876,7.30224 19.77412,9.51999 18.80617,11.17622c-2.44709,4.18716 -10.25486,4.17781 -17.43914,-0.02088c-7.18428,-4.19869 -11.02454,-10.99676 -8.57744,-15.18392z" data-paper-data="{&quot;index&quot;:null}" fill="#bb1c79" stroke="none" stroke-width="0"/><path d="M277.38306,25.46533c3.71565,-1.36494 11.60434,2.00125 14.55284,3.72443c3.77157,2.20421 9.09095,3.82526 9.06578,9.29339c-0.02247,4.88391 -5.0007,13.42833 -8.12391,18.77239c-2.72316,4.65954 -4.07239,9.8493 -7.73516,12.32878c-5.24142,3.54815 -12.97687,3.08185 -17.17993,0.62546c-2.75651,-1.61099 -8.76939,-5.24804 -9.50468,-8.80651c-1.16934,-5.65908 4.49845,-12.30485 8.56279,-19.25925c3.88633,-6.64982 5.07995,-14.73821 10.36226,-16.67869z" data-paper-data="{&quot;index&quot;:null}" fill="none" stroke="#000000" stroke-width="3.5"/><path d="M283.91436,32.85993c4.65613,-1.68229 10.95203,4.87411 13.50441,6.36579c4.49569,2.62741 0.0349,8.36721 -4.9108,16.82968c-2.11964,3.62687 -3.19451,8.32603 -5.84721,10.2964c-3.53674,2.62702 -8.67902,1.77025 -11.24793,0.26892c-1.8456,-1.07862 -8.32788,-3.42032 -8.55453,-6.16688c-0.32543,-3.94374 6.45399,-8.92472 9.36934,-13.9131c2.13783,-3.658 4.14165,-12.39995 7.68671,-13.68079z" data-paper-data="{&quot;index&quot;:null}" fill="none" stroke="#000000" stroke-width="3.5"/><path d="M276.16438,46.29945c2.13785,-3.65801 4.14167,-12.39995 7.68671,-13.68079c4.65613,-1.68229 10.95204,4.8741 13.50442,6.36579c4.49568,2.62741 0.03489,8.3672 -4.91081,16.82967c-2.11965,3.62688 -3.19451,8.32604 -5.84721,10.29641c-3.53674,2.62702 -8.67902,1.77025 -11.24793,0.26892c-1.84559,-1.07861 -8.32787,-3.42032 -8.55451,-6.16688c-0.32543,-3.94374 6.45397,-8.92472 9.36932,-13.9131z" data-paper-data="{&quot;index&quot;:null}" fill="#ff94d2" stroke="#000000" stroke-width="0"/><path d="M284.80605,66.14614c-1.31139,2.24389 -8.5259,1.09079 -12.62901,-1.30719c-4.1031,-2.39797 -6.36624,-6.16093 -5.05485,-8.40482c0.60837,-1.04094 5.56704,-4.31395 8.81672,-9.63173c3.75539,-6.1453 5.94864,-14.28699 8.1483,-13.00146c2.28848,1.33745 -7.87625,13.11263 -8.22653,21.38616c-0.27775,6.56043 9.52533,9.96665 8.94536,10.95903z" fill="#ea88c1" stroke="none" stroke-width="0"/><path d="M276.08165,46.12457c2.13785,-3.65801 4.14167,-12.39996 7.68672,-13.6808c4.65613,-1.68229 10.95203,4.87411 13.50441,6.3658c4.49568,2.62741 0.03489,8.36719 -4.91081,16.82966c-2.11965,3.62688 -3.1945,8.32603 -5.8472,10.2964c-3.53674,2.62702 -8.67903,1.77025 -11.24793,0.26892c-1.84559,-1.07861 -8.32787,-3.42031 -8.55451,-6.16687c-0.32543,-3.94374 6.45398,-8.92472 9.36933,-13.91311z" data-paper-data="{&quot;index&quot;:null}" fill="none" stroke="#000000" stroke-width="3.5"/></g><g data-paper-data="{&quot;index&quot;:null}"><path d="M297.16011,47.94109c-5.61784,2.87735 -12.71756,-7.42863 -15.76418,-13.37694c-3.04661,-5.9483 -0.96221,-13.10291 4.65563,-15.98026c2.62987,-1.34697 16.93665,-4.71737 24.61382,-1.74137c8.72248,3.3812 10.83118,13.43174 12.45158,16.59546c3.04661,5.9483 -20.33902,11.62576 -25.95687,14.50312z" fill="#ff48b3" stroke="#000000" stroke-width="0"/><path d="M298.28615,47.75411c-5.61784,2.87735 -13.0534,-0.41583 -16.60777,-7.35552c-3.28811,-6.41981 -2.1029,-13.71131 2.54064,-17.04568c0.37603,-0.27002 -2.84452,-1.68163 -2.42366,-1.89719c5.61784,-2.87735 19.31139,-11.5511 22.86576,-4.61141c1.8281,3.56927 -14.98561,2.14345 -16.42657,8.79667c-0.6042,2.78966 -0.67389,7.57156 2.00062,11.72042c3.34874,5.19475 9.56793,9.61577 8.05099,10.39271z" fill="#bb1c79" stroke="none" stroke-width="0"/><path d="M296.7059,47.99436c-5.61784,2.87735 -12.71756,-7.42865 -15.76418,-13.37695c-3.04661,-5.9483 -0.96221,-13.10291 4.65563,-15.98026c2.62988,-1.34698 16.93666,-4.71738 24.61382,-1.74137c8.72247,3.38121 10.83117,13.43174 12.45158,16.59546c3.04661,5.9483 -20.33902,11.62577 -25.95687,14.50312z" fill="none" stroke="#000000" stroke-width="3.5"/><path d="M295.6283,43.79987c-4.62646,2.36958 -10.40764,0.32571 -12.91263,-4.56511c-2.50498,-4.89083 -6.45344,-12.40531 -1.82699,-14.77488c0.86281,-0.44192 8.57845,1.32459 13.33753,0.97671c7.29945,-0.53357 12.87815,-3.00149 17.01166,-2.28738c7.62211,1.3168 6.41366,7.0207 7.73494,9.60043c2.50498,4.89083 -18.71806,8.68065 -23.34452,11.05024z" fill="#ff94d2" stroke="#000000" stroke-width="0"/><path d="M291.87654,44.08806c-2.18104,1.11709 -6.17191,-2.31718 -8.91386,-7.67065c-2.74195,-5.35348 -3.19664,-10.5989 -1.0156,-11.71599c1.14192,-0.58488 0.86549,12.88912 9.78658,14.50872c8.11797,1.47381 25.4851,-9.05559 26.79146,-6.50502c2.74195,5.35348 -24.46754,10.26584 -26.64858,11.38294z" fill="#ea88c1" stroke="none" stroke-width="0"/><path d="M295.95994,43.50727c-4.62646,2.36958 -10.40764,0.32571 -12.91263,-4.56513c-2.50499,-4.89082 -6.45344,-12.40529 -1.82698,-14.77488c0.86281,-0.44192 8.57845,1.32458 13.33753,0.9767c7.29945,-0.53357 12.87816,-3.00148 17.01167,-2.28737c7.62211,1.3168 6.41365,7.02069 7.73493,9.60042c2.50498,4.89083 -18.71806,8.68065 -23.34452,11.05024z" fill="none" stroke="#000000" stroke-width="3.5"/></g></g><g stroke-linecap="butt"><g><path d="M225.92445,49.88788c3.25526,7.3679 8.13853,14.60971 6.33929,20.10109c-1.13137,3.45302 -7.51562,6.38975 -10.43602,7.68003c-4.45296,1.96739 -12.19173,1.55956 -17.0002,-2.55633c-3.36021,-2.87623 -4.11637,-8.18492 -6.29744,-13.12151c-2.50147,-5.66179 -6.48572,-14.71253 -5.95802,-19.5679c0.59084,-5.43616 6.05892,-6.44782 10.05476,-8.21325c3.12381,-1.38015 11.34142,-3.83649 14.87971,-2.06175c5.03017,2.52303 5.30524,10.69442 8.41792,17.73961z" data-paper-data="{&quot;index&quot;:null}" fill="#ff48b3" stroke="#000000" stroke-width="0"/><path d="M233.24717,62.3131c1.95995,4.43611 -2.62149,10.75844 -10.23293,14.1213c-7.61144,3.36286 -15.37058,2.49281 -17.33053,-1.94331c-0.77526,-1.7547 19.33026,-1.70781 19.94522,-8.9871c0.44381,-5.25335 -1.98798,-21.98266 -12.10992,-27.3493c-5.08054,-2.69369 -20.41522,5.68546 -21.56577,3.29928c-1.41086,-2.92607 20.30296,-8.16655 21.64031,-8.75741c7.61144,-3.36286 17.69369,25.18041 19.65364,29.61653z" data-paper-data="{&quot;index&quot;:null}" fill="#bb1c79" stroke="none" stroke-width="0"/><path d="M226.17262,49.97105c3.25526,7.3679 8.13853,14.60971 6.33928,20.10109c-1.13137,3.45302 -7.51562,6.38975 -10.43602,7.68004c-4.45296,1.96739 -12.19172,1.55955 -17.0002,-2.55634c-3.36021,-2.87623 -4.11637,-8.18492 -6.29744,-13.1215c-2.50147,-5.6618 -6.48573,-14.71253 -5.95802,-19.5679c0.59083,-5.43616 6.05893,-6.44782 10.05476,-8.21325c3.12382,-1.38016 11.34141,-3.83648 14.8797,-2.06175c5.03018,2.52304 5.30525,10.6944 8.41793,17.7396z" data-paper-data="{&quot;index&quot;:null}" fill="none" stroke="#000000" stroke-width="3.5"/><path d="M216.52916,53.30289c2.33499,5.28498 8.51031,10.9978 7.74279,14.87979c-0.53453,2.70356 -7.23929,4.3003 -9.19463,5.1642c-2.72164,1.20247 -7.92769,1.47465 -11.14607,-1.53398c-2.41391,-2.25659 -2.95272,-7.0469 -4.65041,-10.88942c-3.96117,-8.96563 -7.74713,-15.1713 -2.98414,-17.27567c2.70413,-1.19473 9.69838,-7.00035 14.13542,-4.80438c3.37825,1.67196 4.38477,10.58395 6.09703,14.45945z" data-paper-data="{&quot;index&quot;:null}" fill="none" stroke="#000000" stroke-width="3.5"/><path d="M216.61922,53.07029c2.33499,5.28499 8.51031,10.9978 7.74279,14.87979c-0.53453,2.70356 -7.23929,4.30031 -9.19462,5.1642c-2.72164,1.20247 -7.92769,1.47464 -11.14607,-1.53398c-2.41391,-2.25659 -2.95271,-7.04689 -4.65041,-10.88942c-3.96117,-8.96563 -7.74714,-15.1713 -2.98415,-17.27567c2.70413,-1.19473 9.69839,-7.00035 14.13543,-4.80438c3.37825,1.67195 4.38477,10.58395 6.09704,14.45946z" data-paper-data="{&quot;index&quot;:null}" fill="#ff94d2" stroke="#000000" stroke-width="0"/><path d="M215.92002,61.93561c0.58375,-8.26036 -8.19016,-21.10539 -5.76561,-22.1766c2.33044,-1.02963 3.59281,7.30727 6.6322,13.83642c2.63011,5.64994 7.18862,9.46058 7.67587,10.56342c1.05034,2.3773 -1.62219,5.86145 -5.96927,7.78206c-4.34707,1.92061 -11.64555,2.25385 -12.69588,-0.12345c-0.46451,-1.05138 9.65982,-3.33187 10.12269,-9.88185z" fill="#ea88c1" stroke="none" stroke-width="0"/><path d="M216.72109,52.90583c2.33499,5.28499 8.5103,10.9978 7.74278,14.87979c-0.53453,2.70356 -7.23929,4.3003 -9.19463,5.1642c-2.72164,1.20247 -7.92769,1.47464 -11.14607,-1.53398c-2.41391,-2.25659 -2.9527,-7.04689 -4.6504,-10.88942c-3.96117,-8.96563 -7.74714,-15.17129 -2.98415,-17.27566c2.70413,-1.19473 9.69838,-7.00035 14.13542,-4.80438c3.37825,1.67195 4.38477,10.58396 6.09704,14.45947z" data-paper-data="{&quot;index&quot;:null}" fill="none" stroke="#000000" stroke-width="3.5"/></g><g><path d="M173.2083,11.06081c3.1902,-1.56762 10.88862,-8.36426 19.90231,-5.86079c7.93349,2.20344 17.38801,13.45758 18.69111,16.10947c2.78363,5.66486 0.17779,12.64647 -5.8203,15.59384c-5.99809,2.94738 -17.85034,6.96531 -20.63397,1.30044c-2.78363,-5.66487 -18.13724,-24.19559 -12.13916,-27.14296z" fill="#ff48b3" stroke="#000000" stroke-width="0"/><path d="M184.55651,37.38077c-0.75163,-1.52963 6.87684,-1.35615 12.66668,-3.51882c4.62414,-1.72725 7.42676,-5.60239 8.60998,-8.19993c2.82194,-6.19504 -11.50935,-15.10279 -7.91021,-16.87135c6.99777,-3.43859 12.79049,11.70048 15.57412,17.36535c0.20854,0.42438 -3.2171,-0.36913 -3.07706,0.07211c1.72936,5.44883 -1.67915,12.00266 -8.1527,15.18366c-6.99778,3.4386 -14.92717,1.63385 -17.7108,-4.03101z" fill="#bb1c79" stroke="none" stroke-width="0"/><path d="M185.67975,38.518c-2.78363,-5.66486 -18.13724,-24.19559 -12.13916,-27.14296c3.1902,-1.56761 10.88861,-8.36425 19.90231,-5.86079c7.93349,2.20344 17.38801,13.45757 18.69111,16.10947c2.78363,5.66486 0.17779,12.64647 -5.8203,15.59384c-5.9981,2.94737 -17.85035,6.96531 -20.63398,1.30045z" fill="none" stroke="#000000" stroke-width="3.5"/><path d="M189.05097,35.7996c-2.2924,-4.66518 -17.04073,-20.38991 -12.10897,-22.81331c2.60131,-1.27825 5.04219,-6.57325 11.93971,-3.07259c3.74057,1.89843 6.73757,7.21166 12.27033,12.00281c3.60723,3.12373 10.84858,6.31978 11.2761,7.18981c2.2924,4.66517 -5.3649,8.32899 -10.29666,10.75239c-4.93176,2.4234 -10.7881,0.60606 -13.08051,-4.05912z" fill="#ff94d2" stroke="#000000" stroke-width="0"/><path d="M177.32751,13.21819c2.57192,-1.26381 10.20038,17.55885 17.58927,21.23006c8.1199,4.0344 15.95266,-6.93248 16.51849,-5.78099c1.08069,2.1993 -2.41939,6.13257 -7.81768,8.78521c-5.39829,2.65264 -10.65054,3.02014 -11.73124,0.82084c-1.08069,-2.19931 -19.95713,-22.40247 -14.55884,-25.05511z" fill="#ea88c1" stroke="none" stroke-width="0"/><path d="M188.96002,35.36677c-2.29241,-4.66518 -17.04073,-20.38991 -12.10897,-22.81331c2.60131,-1.27825 5.04218,-6.57325 11.9397,-3.07259c3.74057,1.89843 6.73758,7.21166 12.27034,12.00281c3.60723,3.12373 10.84857,6.31979 11.27609,7.18982c2.2924,4.66518 -5.36489,8.32899 -10.29665,10.75239c-4.93177,2.42339 -10.78811,0.60606 -13.08052,-4.05912z" fill="none" stroke="#000000" stroke-width="3.5"/></g></g><g><g><g><g><path d="M220.98619,140.05952c0,0 -5.70097,0.12136 -6.54289,-3.29048c-0.87281,-3.53699 -0.07753,-12.18456 -0.07753,-12.18456l46.8037,2.66362c0,0 16.08148,-7.34997 16.26278,-4.593c0.0687,1.04465 2.72663,7.69337 -1.49575,11.62328c-5.0072,4.66037 -17.03673,6.61194 -17.03673,6.61194c0,0 -5.19778,3.04102 -10.9507,3.55915c-6.61785,0.59605 -13.99437,-1.31444 -15.43742,-1.21955c-0.28612,0.01882 -11.52545,-3.17042 -11.52545,-3.17042z" fill="#ffffff" stroke="#000000" stroke-width="0" stroke-linecap="butt"/><path d="M247.82064,140.54355c17.78142,-1.16929 30.69106,-13.73481 30.95681,-9.69358c0.26575,4.04123 -14.5137,10.71184 -32.29511,11.88113c-17.78142,1.16929 -31.83135,-3.60554 -32.09709,-7.64677c-0.26575,-4.04123 15.65398,6.62851 33.4354,5.45922z" fill="#d6d6d6" stroke="none" stroke-width="0" stroke-linecap="butt"/><path d="M221.2453,139.735c0,0 -5.70097,0.12136 -6.54289,-3.29048c-0.87281,-3.53699 -0.07753,-12.18456 -0.07753,-12.18456l46.8037,2.66362c0,0 16.08148,-7.34997 16.26278,-4.593c0.0687,1.04465 2.72663,7.69337 -1.49575,11.62328c-5.0072,4.66037 -17.03673,6.61194 -17.03673,6.61194c0,0 -5.19778,3.04102 -10.9507,3.55915c-6.61785,0.59605 -13.99437,-1.31444 -15.43742,-1.21955c-0.28612,0.01882 -11.52545,-3.17042 -11.52545,-3.17042z" fill="none" stroke="#000000" stroke-width="3.5" stroke-linecap="butt"/><path d="M208.57166,99.80229c-1.00821,-15.33185 6.15173,-29.14738 17.45383,-36.43587c4.74468,-3.05975 10.21936,-4.96919 16.12617,-5.35762c19.97717,-1.31368 37.3323,15.26802 38.76375,37.03625c0.60447,9.1922 7.22061,16.74987 2.8205,23.77209c-6.01988,9.60722 -24.8592,17.26245 -36.40049,18.0214c-12.54369,0.82486 -33.03422,-4.81515 -40.21747,-14.95499c-4.25684,-6.00895 1.98636,-13.98132 1.45371,-22.08126z" fill="#ff48b3" stroke="#000000" stroke-width="0" stroke-linecap="butt"/><path d="M243.43596,84.85531c10.40831,-0.68444 19.21686,4.40185 19.67446,11.36055c0.4576,6.9587 -7.60905,13.15468 -18.01736,13.83912c-10.40831,0.68444 -19.21686,-4.40185 -19.67446,-11.36055c-0.4576,-6.9587 7.60905,-13.15468 18.01736,-13.83912z" fill="#bb1c79" stroke="none" stroke-width="0" stroke-linecap="butt"/><path d="M226.68761,81.59291c7.1966,-0.47324 13.5791,7.4843 14.25572,17.77365c0.67662,10.28936 -4.60888,19.01417 -11.80547,19.48741c-5.97225,0.39273 -13.92887,-0.95971 -15.98405,-8.69362c-0.42132,-1.5855 1.84344,-7.32952 1.72833,-9.08004c-0.67662,-10.28936 4.60888,-19.01417 11.80547,-19.48741z" fill="#000000" stroke="#000000" stroke-width="3.5" stroke-linecap="butt"/><path d="M233.14091,128.16073c16.22154,2.30059 34.02415,-0.62778 42.38816,-9.41204c4.40432,-4.62562 0.84015,-26.77388 -6.54741,-41.97481c-4.82354,-9.9251 -15.22146,-15.67086 -12.46123,-15.85237c22.31933,-1.46769 28.8803,50.5669 29.09773,53.87346c0.21744,3.30657 -15.22733,19.37426 -37.54666,20.84195c-22.31934,1.46769 -43.06134,-12.22039 -43.27878,-15.52696c-0.07115,-1.08199 13.59102,5.95787 28.34818,8.05077z" fill="#bb1c79" stroke="none" stroke-width="0" stroke-linecap="butt"/><path d="M273.02968,96.21065c0.11511,1.75052 3.11256,7.14849 2.90249,8.77551c-1.02471,7.93644 -8.73571,10.31916 -14.70796,10.71189c-7.19661,0.47324 -13.5791,-7.48429 -14.25572,-17.77364c-0.67662,-10.28936 4.60888,-19.01417 11.80547,-19.48741c7.1966,-0.47324 13.57911,7.4843 14.25573,17.77365z" data-paper-data="{&quot;index&quot;:null}" fill="#000000" stroke="#000000" stroke-width="3.5" stroke-linecap="butt"/><path d="M242.15166,58.00878c19.97717,-1.31368 37.3323,15.26802 38.76375,37.03625c0.60447,9.1922 7.22061,16.74987 2.8205,23.77209c-6.01988,9.60723 -24.8592,17.26246 -36.40049,18.02141c-12.54369,0.82486 -33.03421,-4.81516 -40.21747,-14.95499c-4.25685,-6.00895 1.98636,-13.98132 1.45371,-22.08126c-1.43145,-21.76824 13.60283,-40.47982 33.58,-41.79349z" fill="none" stroke="#000000" stroke-width="3.5" stroke-linecap="butt"/><path d="M215.46374,111.2117c9.81107,-5.88907 28.00479,-5.33688 38.4557,-6.02412c17.45133,-1.14758 25.95245,3.50292 26.50812,11.95304c0.55567,8.45011 -16.40149,17.44715 -33.85282,18.59473c-17.45132,1.14758 -36.06214,-4.84244 -36.61781,-13.29256c-0.2229,-3.38968 -1.06504,-7.28637 5.50681,-11.2311z" fill="#ff94d2" stroke="#000000" stroke-width="0" stroke-linecap="butt"/><path d="M211.22493,124.03317c-0.1927,-2.93033 15.33483,7.93948 34.59134,6.6732c5.98241,-0.3934 30.36924,-6.35679 31.67209,-13.27968c0.34733,-1.84557 -3.61688,-4.82866 -9.04984,-6.84525c-5.33091,-1.97872 -12.13844,-2.99862 -11.20066,-4.02589c2.75266,-3.01529 15.44961,4.13643 17.3817,3.20642c2.32226,-1.11781 6.28412,8.84544 6.33936,9.68558c0.1927,2.93034 -13.84768,14.67561 -33.1042,15.9419c-19.25651,1.26629 -36.4371,-8.42593 -36.6298,-11.35627z" fill="#ea88c1" stroke="none" stroke-width="0" stroke-linecap="butt"/><path d="M210.31143,122.75354c-0.2229,-3.38968 -1.06503,-7.28638 5.5068,-11.23111c0.92429,-0.55479 1.92296,-1.05243 2.98255,-1.49932c10.18779,-4.29672 26.00681,-3.90231 35.47315,-4.52481c17.45133,-1.14758 25.95245,3.50292 26.50812,11.95304c0.55567,8.45011 -16.40149,17.44715 -33.85282,18.59473c-17.45133,1.14758 -36.06214,-4.84244 -36.61781,-13.29256z" fill="none" stroke="#000000" stroke-width="3.5" stroke-linecap="butt"/><path d="M244.34146,122.54001c8.02927,-0.528 14.51484,5.26666 14.73778,8.6568c0.22293,3.39014 -5.9012,3.09197 -13.93047,3.61997c-8.02927,0.528 -14.57736,0.36159 -14.80029,-3.02854c-0.22293,-3.39013 5.96372,-8.72023 13.99298,-9.24822z" fill="#ff0000" stroke="#000000" stroke-width="0" stroke-linecap="butt"/><path d="M231.49383,133.29965c-0.13298,-2.02218 -2.39558,-7.84605 4.8605,-8.3232c3.26621,-0.21478 -0.62888,5.79412 3.49641,7.03896c5.0393,1.52064 17.84655,-1.5556 17.91967,-0.44366c0.13298,2.02219 -5.64144,4.0483 -12.89752,4.52545c-7.25608,0.47715 -13.24608,-0.77534 -13.37906,-2.79753z" fill="#d00000" stroke="none" stroke-width="0" stroke-linecap="butt"/><path d="M244.33201,122.93765c8.02927,-0.528 14.51484,5.26666 14.73778,8.6568c0.22293,3.39014 -5.9012,3.09197 -13.93047,3.61997c-8.02927,0.528 -14.57736,0.36159 -14.80029,-3.02854c-0.22293,-3.39013 5.96372,-8.72023 13.99298,-9.24822z" fill="none" stroke="#000000" stroke-width="3.5" stroke-linecap="butt"/><path d="M229.12631,109.91332c-0.27769,-4.22281 6.5848,-8.11213 15.32777,-8.68706c8.74298,-0.57493 16.05567,2.38226 16.33336,6.60506c0.14724,2.23905 -4.6687,2.19928 -7.75222,3.80645c-2.73192,1.42392 -3.46836,4.61052 -7.57554,4.8806c-2.93942,0.19329 -5.94378,-3.45876 -8.34687,-3.97782c-4.74464,-1.02483 -7.80217,0.17585 -7.98649,-2.62722z" fill="#222222" stroke="#000000" stroke-width="0" stroke-linecap="butt"/><path d="M230.33834,109.14911c-0.11342,-1.72481 7.80785,0.02734 15.00445,-0.4459c7.19661,-0.47324 15.22264,-3.7067 15.33607,-1.98189c0.11342,1.7248 -7.25547,8.37255 -14.45207,8.84579c-2.93812,0.19321 -4.2248,-1.54261 -6.95348,-2.61147c-3.95493,-1.5492 -8.86783,-2.7859 -8.93495,-3.80653z" fill="#151515" stroke="none" stroke-width="0" stroke-linecap="butt"/><path d="M229.28976,109.65067c-0.27769,-4.22281 6.5848,-8.11213 15.32777,-8.68706c8.74298,-0.57493 16.05567,2.38226 16.33336,6.60506c0.14724,2.23905 -4.6687,2.19928 -7.75222,3.80645c-2.73192,1.42392 -3.46836,4.61052 -7.57554,4.8806c-2.93942,0.19329 -5.94378,-3.45876 -8.34687,-3.97782c-4.74464,-1.02483 -7.80217,0.17585 -7.98649,-2.62722z" fill="none" stroke="#000000" stroke-width="3.5" stroke-linecap="butt"/><path d="M225.06722,135.20873l0.33966,5.16521" fill="none" stroke="#000000" stroke-width="3.5" stroke-linecap="round"/><path d="M239.50204,137.77964l0.40031,6.08757" fill="none" stroke="#000000" stroke-width="3.5" stroke-linecap="round"/><path d="M256.37137,140.74626l-1.18923,-3.99773" fill="none" stroke="#000000" stroke-width="3.5" stroke-linecap="round"/><path d="M268.70922,136.78535l-0.89307,-5.12882" fill="none" stroke="#000000" stroke-width="3.5" stroke-linecap="round"/><path d="M226.87666,93.77772c3.21862,-0.21165 5.99634,2.17937 6.20421,5.34052c0.20787,3.16114 -2.23282,5.89533 -5.45144,6.10698c-3.21862,0.21165 -5.99634,-2.17937 -6.20421,-5.34052c-0.20787,-3.16114 2.23282,-5.89533 5.45144,-6.10698z" fill="#652c45" stroke="none" stroke-width="0" stroke-linecap="butt"/><path d="M227.19407,96.5547c1.63009,-0.10719 3.03844,1.12736 3.14564,2.75746c0.10719,1.63009 -1.12736,3.03844 -2.75746,3.14564c-1.63009,0.10719 -3.03844,-1.12736 -3.14564,-2.75746c-0.10719,-1.63009 1.12736,-3.03844 2.75746,-3.14564z" fill="#ff9cc7" stroke="none" stroke-width="0" stroke-linecap="butt"/><path d="M259.45724,91.37095c3.21862,-0.21165 5.99634,2.17937 6.20421,5.34052c0.20787,3.16114 -2.23282,5.89533 -5.45144,6.10698c-3.21861,0.21165 -5.99633,-2.17937 -6.2042,-5.34052c-0.20787,-3.16113 2.23282,-5.89533 5.45143,-6.10698z" fill="#652c45" stroke="none" stroke-width="0" stroke-linecap="butt"/><path d="M259.36177,94.03983c1.6301,-0.10719 3.04241,1.18766 3.15449,2.89213c0.11208,1.70447 -1.11851,3.17312 -2.7486,3.28031c-1.63009,0.10719 -3.04241,-1.18766 -3.15449,-2.89213c-0.11208,-1.70448 1.11851,-3.17312 2.7486,-3.28031z" fill="#ff9cc7" stroke="none" stroke-width="0" stroke-linecap="butt"/></g><path d="M271.19975,72.26818l-4.07272,10.43454" fill="none" stroke="#000000" stroke-width="3.5" stroke-linecap="round"/></g><path d="M235.6476,74.38973l-3.13745,8.2099" fill="none" stroke="#000000" stroke-width="3.5" stroke-linecap="round"/><path d="M228.14586,82.0214l-3.13695,-8.22993" fill="none" stroke="#000000" stroke-width="3.5" stroke-linecap="round"/><path d="M224.56933,83.55446l-5.8236,-6.32276" fill="none" stroke="#000000" stroke-width="3.5" stroke-linecap="round"/></g><path d="M256.23046,81.47246l-4.14011,-10.32709" fill="none" stroke="#000000" stroke-width="3.5" stroke-linecap="round"/><path d="M262.77446,69.1449l-2.60754,9.68925" fill="none" stroke="#000000" stroke-width="3.5" stroke-linecap="round"/></g><g fill="none" stroke="none" stroke-width="1" stroke-linecap="butt" font-family="sans-serif" font-weight="normal" font-size="12" text-anchor="start"/></g><path d="M281.95799,140.24076c0.15483,2.35455 -5.05308,5.71166 -7.94299,7.79385c-5.6327,4.05838 -12.59402,6.18385 -24.8746,6.99141c-18.58127,1.22188 -34.01453,-3.41664 -34.47114,-10.36043c-0.15696,-2.38689 -6.5624,-12.22416 -3.59659,-14.32837c3.19427,-2.26629 1.76108,7.5836 8.32688,13.42574c5.07265,4.51355 23.09614,6.68921 28.41094,6.33972c8.69671,-0.57189 21.41046,-1.92049 27.78666,-9.21073c4.38867,-5.01779 3.48463,-16.81344 5.45401,-17.09875c1.28271,-0.18583 0.81102,14.99062 0.90683,16.44757z" fill="none" stroke="#000000" stroke-width="3.5" stroke-linecap="butt"/></g></g></g></svg>