<svg version="1.1" xmlns="http://www.w3.org/2000/svg" xmlns:xlink="http://www.w3.org/1999/xlink" width="413.94205" height="780.44304" viewBox="0,0,413.94205,780.44304"><g transform="translate(105.08518,45.11865)"><g data-paper-data="{&quot;isPaintingLayer&quot;:true}" fill-rule="nonzero" stroke-width="7.5" stroke-linejoin="miter" stroke-miterlimit="10" stroke-dasharray="" stroke-dashoffset="0" style="mix-blend-mode: normal"><g data-paper-data="{&quot;index&quot;:null}" stroke-linecap="butt"><g><path d="M170.10049,692.15622c-0.77331,8.02581 4.8266,19.99131 -5.29181,24.61781c-11.73685,5.36651 -40.43148,2.6566 -58.43544,0.92186c-16.80281,-1.619 -38.16017,-4.81839 -48.60181,-11.58166c-10.39161,-6.73092 -9.90979,-17.00889 -9.07663,-25.65581c1.67032,-17.33544 30.20197,-28.76993 63.7272,-25.53967c33.52521,3.23025 59.34874,19.90203 57.67842,37.23746z" fill="#444444" stroke="#000000"/><path d="M169.72105,708.89601c-0.89367,9.275 -29.16932,14.13923 -63.15538,10.86457c-33.98605,-3.27466 -60.81275,-13.44816 -59.91908,-22.72316c0.89367,-9.275 -0.98374,-42.06568 33.00234,-38.79102c5.78947,0.55783 -8.45835,7.19334 -17.2984,16.25831c-8.10557,8.31177 -10.95831,18.99128 -4.65114,21.99513c14.07236,6.70213 50.74769,14.03638 76.01755,14.70466c23.5631,0.62314 36.29454,-5.3225 36.00413,-2.3085z" fill="#282828" stroke="none"/><path d="M168.73971,692.8606c-0.77331,8.02581 4.82664,19.99132 -5.29174,24.61781c-11.73685,5.36651 -40.43148,2.65657 -58.43544,0.92184c-16.80281,-1.619 -38.16013,-4.81836 -48.60176,-11.58166c-10.39161,-6.73092 -9.90979,-17.00886 -9.07664,-25.65576c1.67032,-17.33541 30.20195,-28.76993 63.72718,-25.53967c33.52525,3.23026 59.34876,19.90203 57.67844,37.23747z" fill="none" stroke="#000000"/></g><g><path d="M196.6697,701.9456c-0.77331,8.02581 1.01531,19.62409 -3.64388,24.77659c-5.40444,5.97666 -17.75648,4.8414 -25.50469,4.09484c-7.2313,-0.69676 -16.36059,-2.71796 -20.54117,-8.87796c-4.16057,-6.13054 -3.39177,-16.38083 -2.55861,-25.02775c1.67032,-17.33544 14.72057,-30.26161 29.14855,-28.87143c14.42798,1.39018 24.7701,16.57027 23.09978,33.90571z" fill="#444444" stroke="#000000"/><path d="M195.59411,718.61835c-0.89367,9.275 -13.4751,15.65141 -28.10139,14.24213c-14.62631,-1.40929 -25.75881,-10.07061 -24.86513,-19.34561c0.89367,-9.275 1.85906,-41.79179 16.48538,-40.38251c2.49157,0.24007 -4.07567,7.61567 -8.41936,17.11388c-3.98282,8.70901 -5.80621,19.48768 -3.22215,22.13282c5.76547,5.90173 21.34245,11.20307 32.31371,10.49364c10.23024,-0.66152 16.09939,-7.26837 15.80898,-4.25437z" fill="#282828" stroke="none"/><path d="M196.03866,702.72029c-0.77331,8.02581 1.01533,19.62411 -3.64385,24.77659c-5.40444,5.97666 -17.7565,4.84135 -25.50471,4.09479c-7.2313,-0.69676 -16.36057,-2.71791 -20.54115,-8.87793c-4.16057,-6.13054 -3.39177,-16.38083 -2.55861,-25.02773c1.67032,-17.33541 14.72057,-30.26158 29.14855,-28.87141c14.42798,1.39018 24.7701,16.57027 23.09979,33.90569z" fill="none" stroke="#000000"/></g><g><path d="M120.30546,697.29868c-0.77331,8.02581 1.01531,19.62411 -3.64388,24.77659c-5.40444,5.97666 -17.75648,4.8414 -25.50469,4.09484c-7.2313,-0.69676 -16.36061,-2.71796 -20.54119,-8.87796c-4.16057,-6.13054 -3.39175,-16.38083 -2.55859,-25.02775c1.67032,-17.33544 14.72057,-30.26158 29.14855,-28.87141c14.42795,1.39018 24.7701,16.57027 23.09979,33.90569z" fill="#444444" stroke="#000000"/><path d="M119.22983,713.97142c-0.89367,9.275 -13.4751,15.65141 -28.10141,14.24212c-14.62631,-1.40929 -25.75881,-10.07061 -24.86513,-19.34561c0.89367,-9.275 1.85908,-41.79177 16.48538,-40.38248c2.49157,0.24007 -4.07566,7.61562 -8.41936,17.11383c-3.98282,8.70901 -5.80624,19.48772 -3.22218,22.13284c5.76547,5.90173 21.34248,11.20307 32.31373,10.49364c10.23022,-0.66152 16.09941,-7.26836 15.809,-4.25436z" fill="#282828" stroke="none"/><path d="M119.6744,698.07339c-0.77331,8.02581 1.01533,19.62409 -3.64383,24.77659c-5.40444,5.97666 -17.7565,4.84138 -25.50471,4.09481c-7.2313,-0.69676 -16.36057,-2.71791 -20.54117,-8.87794c-4.16057,-6.13054 -3.39177,-16.38083 -2.55861,-25.02773c1.67032,-17.33541 14.72057,-30.26161 29.14855,-28.87143c14.42798,1.39018 24.77013,16.57028 23.09981,33.90571z" fill="none" stroke="#000000"/></g><g><path d="M164.56623,697.49684c-0.77331,8.02581 1.01531,19.62409 -3.64388,24.77659c-5.40444,5.97666 -17.75648,4.84138 -25.50471,4.09481c-7.2313,-0.69676 -16.36059,-2.71793 -20.54117,-8.87794c-4.16057,-6.13054 -3.39177,-16.38083 -2.55861,-25.02773c1.67032,-17.33544 14.72057,-30.26161 29.14855,-28.87143c14.42795,1.39018 24.7701,16.57027 23.09978,33.90571z" fill="#444444" stroke="#000000"/><path d="M163.49061,714.16956c-0.89367,9.275 -13.4751,15.65141 -28.10139,14.24213c-14.62631,-1.40929 -25.75878,-10.0706 -24.86511,-19.34561c0.89367,-9.275 1.85906,-41.79179 16.48535,-40.38251c2.49157,0.24007 -4.07566,7.61565 -8.41936,17.11385c-3.98282,8.70901 -5.80626,19.4877 -3.22218,22.13282c5.76547,5.90173 21.34248,11.20307 32.31373,10.49364c10.23022,-0.66152 16.09941,-7.26834 15.809,-4.25436z" fill="#282828" stroke="none"/><path d="M163.93516,698.2715c-0.77331,8.02581 1.01533,19.62411 -3.64383,24.77662c-5.40444,5.97666 -17.75648,4.84135 -25.50469,4.09479c-7.2313,-0.69676 -16.36059,-2.71789 -20.54118,-8.87791c-4.16057,-6.13054 -3.39174,-16.38085 -2.55859,-25.02777c1.67032,-17.33541 14.72057,-30.26158 29.14855,-28.87141c14.42798,1.39018 24.77011,16.57025 23.09979,33.90569z" fill="none" stroke="#000000"/></g></g><g stroke-linecap="butt"><g><path d="M-73.38562,664.01744c1.67032,-17.33544 30.202,-28.76993 63.72718,-25.53967c33.52525,3.23026 59.34876,19.90203 57.67844,37.23747c-0.83316,8.64692 -2.32258,18.82778 -13.8082,23.45076c-11.54087,4.64519 -33.11619,3.70789 -49.91901,2.08889c-18.00396,-1.73473 -46.68809,-4.55341 -57.18439,-12.06218c-9.04888,-6.47332 -1.26741,-17.14946 -0.4941,-25.17529z" fill="#444444" stroke="#000000"/><path d="M-76.20941,680.52169c0.29041,-3.01397 11.65243,5.25315 34.901,9.14042c24.93257,4.16887 62.33354,3.97209 77.42667,0.08015c6.76467,-1.74436 6.0035,-12.77206 -0.36597,-22.47855c-6.94662,-10.58606 -19.66538,-19.8199 -13.87591,-19.26207c33.98605,3.27466 25.88237,35.10363 24.9887,44.37863c-0.89367,9.275 -29.16928,14.13923 -63.15535,10.86457c-33.98605,-3.27466 -60.81277,-13.44816 -59.9191,-22.72316z" fill="#282828" stroke="none"/><path d="M-72.18446,664.96867c1.67032,-17.33544 30.20195,-28.76993 63.7272,-25.53967c33.52525,3.23026 59.34874,19.90205 57.67842,37.23746c-0.83316,8.64692 -2.32261,18.82777 -13.80822,23.45076c-11.54088,4.64521 -33.11615,3.70789 -49.91894,2.0889c-18.00396,-1.73473 -46.68809,-4.55341 -57.18439,-12.06215c-9.04888,-6.47332 -1.26736,-17.14946 -0.49405,-25.17529z" fill="none" stroke="#000000"/></g><g><path d="M-101.33518,668.55375c1.67032,-17.33544 14.72059,-30.26158 29.14855,-28.87141c14.42798,1.39018 24.77011,16.57025 23.09979,33.90569c-0.83316,8.64692 -2.0356,18.85543 -7.29017,24.07879c-5.27982,5.24846 -14.6271,5.48939 -21.85837,4.79264c-7.74821,-0.74656 -20.0898,-1.99059 -24.25367,-8.8892c-3.58969,-5.94731 0.38052,-16.9907 1.15384,-25.01651z" fill="#444444" stroke="#000000"/><path d="M-103.46278,685.12511c0.29041,-3.01397 4.79013,4.59195 14.70584,7.19456c10.63396,2.79116 26.93657,0.56151 33.72282,-4.13082c3.04156,-2.10309 3.30972,-13.03161 1.06302,-22.34086c-2.45026,-10.15283 -7.48846,-18.64662 -4.99688,-18.40655c14.62631,1.40929 9.36541,33.51217 8.47173,42.7872c-0.89367,9.275 -13.4751,15.65141 -28.10141,14.24212c-14.62631,-1.40929 -25.75881,-10.07061 -24.86513,-19.34561z" fill="#282828" stroke="none"/><path d="M-100.86371,669.4347c1.67032,-17.33544 14.72057,-30.26158 29.14855,-28.87141c14.42798,1.39018 24.7701,16.57027 23.09979,33.90569c-0.83316,8.64692 -2.0356,18.85543 -7.29017,24.07879c-5.27983,5.24849 -14.62705,5.48937 -21.85835,4.79262c-7.74821,-0.74656 -20.0898,-1.99056 -24.25367,-8.88916c-3.58969,-5.94731 0.38055,-16.9907 1.15386,-25.01651z" fill="none" stroke="#000000"/></g><g><path d="M-25.48856,678.57282c1.67032,-17.33544 14.72059,-30.26158 29.14855,-28.87141c14.42798,1.39018 24.77011,16.57025 23.09979,33.90569c-0.83316,8.64692 -2.0356,18.85543 -7.29015,24.07879c-5.27982,5.24846 -14.6271,5.48939 -21.8584,4.79263c-7.74821,-0.74656 -20.08977,-1.99058 -24.25364,-8.8892c-3.58969,-5.94731 0.38052,-16.9907 1.15384,-25.01651z" fill="#444444" stroke="#000000"/><path d="M-27.61614,695.14418c0.29041,-3.01397 4.79015,4.59195 14.70587,7.19456c10.63396,2.79116 26.93657,0.56151 33.72282,-4.13082c3.04156,-2.10309 3.3097,-13.03161 1.06299,-22.34088c-2.45026,-10.15283 -7.48843,-18.64662 -4.99686,-18.40655c14.62631,1.40929 9.36541,33.51217 8.47173,42.7872c-0.89367,9.275 -13.4751,15.65141 -28.10141,14.24212c-14.62631,-1.40929 -25.75881,-10.07061 -24.86513,-19.34561z" fill="#282828" stroke="none"/><path d="M-25.01707,679.45375c1.67032,-17.33544 14.72059,-30.26158 29.14857,-28.8714c14.42798,1.39018 24.7701,16.57027 23.09979,33.90569c-0.83316,8.64692 -2.0356,18.85543 -7.29017,24.07879c-5.27983,5.24849 -14.62707,5.48937 -21.85837,4.79261c-7.74821,-0.74656 -20.0898,-1.99056 -24.25367,-8.88916c-3.58969,-5.94731 0.38055,-16.9907 1.15386,-25.01651z" fill="none" stroke="#000000"/></g><g><path d="M-68.9729,670.31648c1.67032,-17.33544 14.72059,-30.2616 29.14855,-28.87143c14.42798,1.39018 24.7701,16.57027 23.09978,33.90571c-0.83316,8.64692 -2.0356,18.85543 -7.29017,24.07879c-5.27982,5.24846 -14.6271,5.48939 -21.85837,4.79264c-7.74821,-0.74656 -20.08977,-1.99058 -24.25364,-8.8892c-3.58969,-5.94731 0.38052,-16.99068 1.15384,-25.01651z" fill="#444444" stroke="#000000"/><path d="M-71.10047,686.88782c0.29041,-3.01397 4.79013,4.59192 14.70584,7.19456c10.63396,2.79116 26.93659,0.56152 33.72284,-4.13082c3.04156,-2.10309 3.30968,-13.03162 1.06299,-22.34086c-2.45026,-10.15283 -7.48843,-18.64662 -4.99686,-18.40655c14.62631,1.40929 9.36541,33.51217 8.47173,42.7872c-0.89367,9.275 -13.47507,15.65142 -28.10139,14.24213c-14.62631,-1.40929 -25.75881,-10.07061 -24.86513,-19.34561z" fill="#282828" stroke="none"/><path d="M-68.5014,671.19738c1.67032,-17.33544 14.72057,-30.26158 29.14855,-28.87141c14.42798,1.39018 24.7701,16.57027 23.09979,33.90569c-0.83316,8.64692 -2.0356,18.85543 -7.29015,24.07879c-5.27983,5.24849 -14.62709,5.48935 -21.85837,4.79259c-7.74821,-0.74656 -20.08977,-1.99056 -24.25365,-8.88915c-3.58969,-5.94731 0.38055,-16.9907 1.15386,-25.01651z" fill="none" stroke="#000000"/></g></g><g><path d="M216.01095,424.29618l-40.474,-105.10145l16.47111,-6.34295l40.474,105.10145z" fill="#1b1b1b" stroke="#000000" stroke-linecap="butt"/><g data-paper-data="{&quot;index&quot;:null}"><path d="M176.85097,218.83209c15.66215,1.50909 48.65637,117.81682 47.26784,132.22772c-0.15399,1.59822 -2.91717,-2.12652 -6.1186,-2.97188c-4.3014,-1.1358 -9.77556,-0.17003 -14.40345,-3.55264c-8.0288,-5.86841 -14.67864,-16.47871 -18.22327,-12.39154c-6.60338,7.61407 10.85125,58.32749 3.30863,57.60073c-15.66217,-1.5091 -44.09272,-133.14075 -42.70419,-147.55165c0.68914,-7.1522 -3.79898,-15.80131 1.7204,-20.02666c5.60153,-4.28826 21.26366,-4.0942 29.15262,-3.33408z" fill="#444444" stroke="#000000" stroke-linecap="butt"/><path d="M182.42693,327.6402c8.66312,0.83472 19.66917,3.5223 28.93029,5.41335c8.19618,1.6736 15.29438,1.83409 14.2631,12.53729c-0.52682,5.46763 -9.34512,6.11329 -18.83893,0.7328c-8.87502,-5.02982 -18.3747,-16.07452 -21.2876,-12.54391c-6.96314,8.43977 12.57091,53.05233 3.81875,52.20903c-16.33005,-1.57345 -45.05405,-119.81061 -42.85747,-142.60774c1.44925,-15.04109 14.34405,52.16149 30.03327,93.417c8.09033,21.27379 -0.47892,-5.13209 5.07692,-4.59677z" fill="#282828" stroke="none" stroke-linecap="butt"/><path d="M176.95851,217.71646c15.66215,1.50909 48.65637,117.81682 47.26784,132.22772c-0.59976,6.22464 -9.42643,-7.44783 -14.77939,-0.09565c-2.85973,3.92779 -21.6921,-24.99023 -24.22178,-17.79009c-3.69771,10.52462 8.8474,57.07946 3.56448,56.57043c-15.66217,-1.5091 -44.09272,-133.14075 -42.70419,-147.55165c0.73674,-7.64628 -5.02601,-17.93749 1.12912,-22.16121c5.4454,-3.73671 22.3919,-1.90792 29.74387,-1.19954z" fill="none" stroke="#000000" stroke-linecap="butt"/><path d="M208.63257,281.40998l-46.44067,27.37667" fill="none" stroke="#000000" stroke-linecap="round"/></g></g><g><path d="M41.40848,201.38278c7.88896,0.76012 23.3,3.56006 27.97971,8.83895c4.61108,5.20145 -1.44587,12.83451 -2.13501,19.98671c-1.38853,14.4109 -54.42891,138.19259 -70.09108,136.68349c-15.66217,-1.5091 -28.7871,-30.32816 -27.39857,-44.73906c1.38853,-14.4109 55.98278,-122.27921 71.64493,-120.77012z" fill="#444444" stroke="#000000" stroke-linecap="butt"/><path d="M-10.89478,340.92238c5.55584,0.53532 18.13221,-4.33696 30.13558,-23.67466c23.27764,-37.50094 48.76641,-101.00515 47.31716,-85.96406c-2.19657,22.79713 -52.96754,133.37472 -69.29759,131.80127c-16.33003,-1.57345 -30.12308,-23.78996 -27.92651,-46.58709c2.19657,-22.79713 3.44132,22.85109 19.77135,24.42454z" fill="#282828" stroke="none" stroke-linecap="butt"/><path d="M41.51595,200.26715c7.35198,0.70838 24.33589,2.14889 28.96765,6.85656c5.23544,5.32123 -2.38623,14.32281 -3.12297,21.9691c-1.38853,14.4109 -54.42891,138.19259 -70.09108,136.68349c-15.66217,-1.5091 -28.7871,-30.32816 -27.39857,-44.73906c1.38853,-14.4109 55.98278,-122.27921 71.64493,-120.77012z" fill="none" stroke="#000000" stroke-linecap="butt"/><path d="M-1.73666,256.74126l40.35918,35.74009" fill="none" stroke="#000000" stroke-linecap="round"/></g><g stroke-linecap="butt"><path d="M105.07769,288.39052c25.91758,2.49724 44.61927,28.48239 41.77136,58.03947c-0.89057,9.24281 15.4068,10.74462 15.28146,18.05582c-0.0443,2.58348 -15.2053,4.89101 -19.17996,8.70941c-4.84881,4.6582 1.11928,10.80628 -1.59415,12.93844c-4.20036,3.30056 -14.88929,-29.7288 -23.94724,-22.86069c-10.12782,7.67935 -16.59764,32.73584 -22.64466,32.15319c-25.91758,-2.49724 -44.61927,-28.48239 -41.77136,-58.03947c2.84791,-29.55709 26.16696,-51.49342 52.08456,-48.99618z" fill="#212121" stroke="#000000"/><path d="M73.47947,405.06506l13.89204,-144.17865l33.14911,3.19401l-13.89204,144.17865z" fill="#1b1b1b" stroke="#000000"/><path d="M105.68424,218.51503c13.76879,1.32666 36.26079,-9.74756 46.1633,20.85824c4.2026,12.98904 17.11777,87.77601 5.25323,121.57166c-5.29953,15.09551 -29.60551,-1.71417 -37.63656,4.97475c-12.0867,10.06683 -18.89901,-55.52021 -31.22201,-64.47054c-10.48872,-7.61807 -27.52371,41.54272 -27.78626,44.26758c-2.31604,24.03701 65.68449,67.48786 36.19046,64.64603c-29.49403,-2.84184 -62.81466,-15.32713 -60.49862,-39.36409c1.50478,-15.61733 4.48001,-103.31551 23.91082,-143.27841c10.47567,-21.54503 35.29443,-10.20066 45.62562,-9.20522z" fill="#444444" stroke="#000000"/><path d="M97.50089,409.22986c-0.88452,0.07792 -59.05614,9.83048 -62.18668,-39.85899c-1.43502,-22.77729 10.38965,-100.51782 22.29733,-132.69551c12.53082,-33.86156 25.17199,-21.65197 23.31267,-23.04728c-3.97092,-2.97991 -34.31837,98.78328 -37.98685,150.16531c-1.88083,26.34357 44.71143,39.61212 42.95015,37.47791c-10.49418,-12.71618 -35.98977,-45.53314 -37.29989,-46.88945c-5.45184,-5.64399 21.41818,-45.98016 20.35993,-50.61688c-1.53393,-6.72084 24.68108,-9.98645 26.51413,-9.53884c7.88773,1.92602 16.11166,54.16141 30.43915,66.86364c8.67044,7.68691 26.52468,-18.19115 28.05385,-23.96394c8.7661,-33.09319 -15.50342,-111.95202 -5.46983,-110.98525c16.76371,1.61523 14.73304,114.83853 13.52869,127.33781c-1.20434,12.49925 -10.51589,16.99166 -27.27963,15.37642c-3.14765,-0.30329 -14.51287,-1.87125 -20.16973,-12.0982c-10.70015,-19.34462 -17.7964,-53.27908 -28.40601,-53.06676c-8.60906,0.1723 -22.69591,24.02793 -26.00336,41.94946c-1.93806,10.50152 4.96909,20.51988 5.17247,18.40908c0.05147,-0.5342 50.07127,43.60488 32.17358,45.18153z" fill="#282828" stroke="none"/><path d="M106.77917,218.65389c13.76879,1.32666 36.26079,-9.74756 46.1633,20.85824c11.30956,34.95465 9.03265,112.75917 7.79782,125.57491c-0.23924,2.483 -19.19712,1.63275 -32.65146,0.26502c-6.62396,-0.67339 -9.03629,2.46975 -12.84964,-1.88268c-15.14724,-17.28849 -10.67391,-57.85203 -27.22889,-61.59043c-3.11872,-0.70427 -17.46819,24.1449 -21.91196,34.38576c-0.92138,2.12339 -1.34449,5.5676 -1.84118,5.51546c-4.26573,-0.44779 -1.81328,3.02532 -3.35172,4.25827c-12.03401,9.64446 52.47107,65.96967 36.83589,64.46317c-29.49403,-2.84184 -62.81466,-15.32713 -60.49862,-39.36409c1.50477,-15.61731 4.48001,-103.31551 23.91082,-143.27841c10.47567,-21.54503 35.29443,-10.20063 45.62561,-9.20519z" fill="none" stroke="#000000"/><path d="M107.0804,229.13806c22.79278,2.19615 37.62892,41.76534 33.13743,88.38025c-2.10348,21.83099 14.13865,57.07427 6.59571,48.78293c-3.39418,-3.73095 -21.14142,5.35026 -29.38292,-6.48109c-12.55102,-18.01801 -16.93602,-58.22213 -24.25104,-58.92695c-17.76129,-1.71135 -32.10037,54.85491 -35.45185,48.12474c-0.94942,-1.90654 -1.04137,-29.16241 -0.04988,-39.45258c4.49148,-46.6149 26.60974,-82.62343 49.40252,-80.42728z" fill="#b7b7b7" stroke="#000000"/><path d="M68.6797,267.89734c0.51635,-5.35896 7.33157,-24.60767 19.62476,-33.64342c5.24776,-3.85722 14.2759,-3.93707 19.68707,-3.41569c18.08716,1.74275 26.92439,35.72359 26.18762,43.3702c-0.73677,7.64661 -6.79135,-32.90195 -24.87852,-34.6447c-2.68358,-0.25857 -29.19399,12.87258 -35.32161,26.05284c-1.38091,2.97026 -18.4833,54.13665 -13.84253,58.11374c2.85815,2.44943 6.03946,-16.38267 15.03018,-25.31497c8.65319,-8.59696 23.09814,-7.35038 27.15712,-3.02284c8.83616,9.42079 15.76595,43.05092 23.20396,53.61949c10.09813,14.34827 19.31602,5.04821 18.60071,10.47606c-0.9773,7.416 -13.76643,12.29066 -29.97753,-7.96178c-7.37647,-9.21542 -15.55388,-49.21302 -23.48671,-51.52467c-14.6824,-4.27853 -33.89121,46.72544 -34.64765,46.30766c-3.52676,-1.94791 -1.46975,-30.06311 3.41728,-52.40009c2.76781,-12.65077 9.11472,-24.65089 9.24585,-26.01179z" fill="#989898" stroke="none"/><path d="M105.48285,228.98413c22.79278,2.19615 37.62892,41.76534 33.13743,88.38025c-2.10348,21.83099 14.13865,57.07427 6.59571,48.78293c-3.39418,-3.73095 -21.14142,5.35026 -29.38292,-6.48109c-12.55102,-18.01801 -16.93602,-58.22213 -24.25104,-58.92695c-17.76129,-1.71135 -32.10037,54.85491 -35.45185,48.12474c-0.94942,-1.90654 -1.04137,-29.16241 -0.04988,-39.45258c4.49148,-46.6149 26.60974,-82.62343 49.40252,-80.42728z" fill="none" stroke="#000000"/></g><g stroke-linecap="butt"><path d="M166.29544,238.14632c-0.3188,3.18806 -0.97759,37.58452 -15.31498,36.25341c-14.33741,-1.33111 -36.9241,-37.88571 -36.6053,-41.07377c0.3188,-3.18806 28.70376,-32.67995 43.04117,-31.34883c14.33741,1.33111 9.19791,32.98115 8.87911,36.1692z" data-paper-data="{&quot;index&quot;:null}" fill="#de3636" stroke="#000000"/><path d="M167.96995,237.525c-0.3188,3.18806 -0.97759,37.58452 -15.31498,36.25341c-14.33741,-1.33111 -36.9241,-37.88571 -36.6053,-41.07377c0.3188,-3.18806 28.70376,-32.67995 43.04117,-31.34883c14.33741,1.33111 9.19791,32.98115 8.87911,36.1692z" data-paper-data="{&quot;index&quot;:null}" fill="#de3636" stroke="#000000"/><path d="M167.07029,242.49074c-0.74386,7.43878 -1.58349,32.0906 -14.37684,30.90284c-12.79337,-1.18776 -32.69589,-27.76529 -31.95203,-35.2041c0.30094,-3.00952 26.59566,28.29144 32.4262,21.72429c8.5811,-9.66519 -1.48734,-57.30396 6.13018,-56.59674c12.79337,1.18776 8.51634,31.73491 7.77248,39.1737z" data-paper-data="{&quot;index&quot;:null}" fill="#b72c2c" stroke="none"/><path d="M166.73331,237.79859c-0.3188,3.18806 -0.97759,37.58452 -15.31498,36.25341c-14.33741,-1.33111 -36.9241,-37.88571 -36.6053,-41.07377c0.3188,-3.18806 28.70376,-32.67995 43.04117,-31.34883c14.33741,1.33111 9.19791,32.98115 8.87911,36.1692z" data-paper-data="{&quot;index&quot;:null}" fill="none" stroke="#000000"/><path d="M67.21336,195.15617c14.33741,1.33111 36.35622,35.50257 36.03742,38.69062c-0.3188,3.18806 -29.73343,34.91478 -44.07083,33.58367c-14.33741,-1.33111 -8.16824,-35.21598 -7.84945,-38.40403c0.3188,-3.18806 1.54547,-35.20137 15.88286,-33.87026z" data-paper-data="{&quot;index&quot;:null}" fill="#de3636" stroke="#000000"/><path d="M66.62157,197.04326c7.61752,0.70722 -11.70551,45.61725 -5.1975,56.68333c4.42196,7.51902 36.43537,-18.36853 36.13443,-15.35901c-0.74386,7.43878 -25.54669,29.86581 -38.34006,28.67805c-12.79337,-1.18776 -8.73267,-25.5405 -7.98881,-32.97931c0.74386,-7.43878 2.59859,-38.21083 15.39194,-37.02308z" fill="#b72c2c" stroke="none"/><path d="M68.37304,195.65225c14.33741,1.33111 36.35622,35.50257 36.03742,38.69062c-0.3188,3.18806 -29.73343,34.91478 -44.07083,33.58367c-14.33741,-1.33111 -8.16824,-35.21598 -7.84945,-38.40403c0.3188,-3.18806 1.54547,-35.20137 15.88286,-33.87026z" fill="none" stroke="#000000"/><path d="M106.54152,217.06251c8.82301,0.81914 15.27354,8.50261 14.40768,17.16152c-0.86587,8.65891 -8.72027,15.01429 -17.54325,14.19515c-8.82301,-0.81914 -15.27354,-8.50261 -14.40768,-17.16152c0.86587,-8.65891 8.72024,-15.01429 17.54325,-14.19515z" fill="#de3636" stroke="#000000"/><path d="M95.61872,221.48606c4.13283,0.3837 -1.85002,16.27597 3.34474,20.50773c5.61803,4.57659 22.25856,-2.43571 22.08188,-0.66885c-0.32002,3.20024 -6.99008,7.56585 -14.91754,7.1314c-0.49626,-0.02718 -0.27655,0.77967 -0.78334,0.73262c-8.60244,-0.79866 -15.79133,-7.35565 -15.45128,-10.75623c0.34005,-3.40061 -2.87688,-17.74531 5.72556,-16.94665z" fill="#b72c2c" stroke="none"/><path d="M106.90245,217.4844c8.82301,0.81914 15.27354,8.50263 14.40767,17.16155c-0.86587,8.65893 -8.72025,15.01431 -17.54325,14.19517c-8.82301,-0.81914 -15.27354,-8.50263 -14.40767,-17.16155c0.86587,-8.65893 8.72025,-15.01431 17.54325,-14.19517z" fill="none" stroke="#000000"/></g><g><path d="M61.76918,203.07254l13.56795,-55.77091l71.65717,17.43277l-13.56795,55.77091z" fill="#1b1b1b" stroke="#000000" stroke-linecap="butt"/><path d="M54.52475,204.89022l3.86481,-15.88625l80.78331,19.65297l-3.86481,15.88625z" fill="#7c7c7c" stroke="none" stroke-linecap="butt"/><path d="M80.593,191.18351c8.24486,2.00581 -26.48835,3.07495 -12.72834,10.44549c8.20405,4.39446 69.18579,15.7523 68.67689,17.84412c-1.36243,5.60028 -47.72173,-4.80755 -60.88233,-8.00927c-13.16062,-3.20171 -22.72491,-10.33715 -21.36248,-15.93739c1.36243,-5.60028 13.13569,-7.54467 26.29628,-4.34296z" fill="#585858" stroke="none" stroke-linecap="butt"/><path d="M53.12702,189.34677l3.20697,-13.18222l88.89545,21.62649l-3.20697,13.18222z" fill="#e1e1e1" stroke="#000000" stroke-linecap="butt"/><path d="M53.63928,184.98425c0.1082,-0.44477 1.50915,-6.23488 5.74183,-7.69992c3.42518,-1.18553 9.61586,1.79495 11.30987,2.24172c4.11628,1.08554 -5.76615,3.7516 -1.82895,7.45089c3.41533,3.20895 20.36363,7.42607 27.15045,9.21272c11.59051,3.0512 24.65745,3.66979 33.5,5.821c25.48116,6.19907 17.31064,1.68889 16.40236,5.42242c-0.90829,3.73352 -22.30117,1.73476 -47.78235,-4.4643c-25.48116,-6.19907 -45.40143,-14.25098 -44.49315,-17.9845z" fill="#bfbfbf" stroke="none" stroke-linecap="butt"/><g data-paper-data="{&quot;index&quot;:null}" stroke-linecap="butt"><path d="M258.8035,102.36412c-10.78655,0.58282 -27.85293,10.5055 -34.70647,6.69457c-7.96897,-4.43114 -4.80401,-23.22305 -3.65122,-31.16717c1.14164,-7.86735 6.93856,-23.27829 16.18329,-28.63485c8.11864,-4.70407 19.0315,0.18698 29.93924,-0.4024c23.32859,-1.2605 40.5019,9.69624 38.35772,24.4726c-2.14419,14.7763 -22.79396,27.77675 -46.12256,29.03727z" fill="#444444" stroke="#000000"/><path d="M243.70531,104.80361c-0.94239,0.70852 -2.59653,0.34945 -3.53297,0.97094c-8.04878,5.34188 -16.05917,6.69353 -18.05181,3.81905c-2.22445,-3.20891 4.46369,-52.22687 13.50594,-59.02503c4.76124,-3.57962 -10.65907,23.77363 5.01548,33.53218c14.09353,8.77427 59.60055,-0.1984 60.6537,1.32085c1.52421,2.19873 -18.50138,10.32539 -36.61759,14.99633c-8.32306,2.14594 -18.12622,2.24563 -20.97274,4.38567z" fill="#282828" stroke="none"/><path d="M284.72284,91.65475c-12.72613,9.56777 -51.95121,14.65388 -53.97937,11.72811c-2.02816,-2.92579 -5.60625,-29.83884 7.11989,-39.40659c12.72613,-9.56777 63.53233,4.71399 65.56051,7.63975c2.02816,2.92579 -5.97489,10.47096 -18.70105,20.03873z" fill="#b7b7b7" stroke="#000000"/><path d="M296.68303,74.33214c-2.35205,1.76832 8.80281,5.06206 1.85509,10.5973c-5.88537,4.68885 -29.34307,11.64139 -37.41211,13.8321c-11.73903,3.18709 -22.55369,5.0272 -28.69132,3.82773c-3.1007,-0.60598 -4.28092,-2.92136 -5.26017,-4.33398c-2.11579,-3.05217 -0.89582,-7.7729 -0.94252,-11.36094c-0.13375,-10.27838 6.28787,-21.4419 17.00984,-22.57062c19.50403,-2.05321 49.92915,3.16785 54.13124,9.22968c0.52273,0.75409 -18.98514,-4.08361 -35.98493,-4.98667c-12.30324,-0.65357 -22.92117,1.71231 -25.46224,5.15721c-4.86245,6.59196 -1.39163,24.72697 1.27001,25.26612c7.09792,1.43782 25.29753,-0.17907 38.25626,-6.72657c15.21932,-7.68965 24.62132,-20.4804 21.23084,-17.93137z" fill="#989898" stroke="none"/><path d="M283.495,92.56563c-12.72613,9.56777 -51.95121,14.65388 -53.97937,11.72811c-2.02816,-2.92579 -5.60625,-29.83884 7.11989,-39.40659c12.72613,-9.56777 63.53233,4.71399 65.56051,7.63975c2.02816,2.92579 -5.97489,10.47096 -18.70105,20.03873z" fill="none" stroke="#000000"/><path d="M258.14726,102.32535c-10.78655,0.58282 -18.91779,7.42722 -25.77136,3.6163c-7.96897,-4.43114 -6.33813,-14.79098 -5.18537,-22.73509c1.14164,-7.86735 -0.46241,-28.63209 8.78237,-33.98864c8.11864,-4.70407 19.0315,0.18698 29.93924,-0.4024c23.32859,-1.2605 40.5019,9.69624 38.35772,24.4726c-2.14419,14.7763 -22.79396,27.77675 -46.12256,29.03727z" fill="none" stroke="#000000"/></g><g data-paper-data="{&quot;index&quot;:null}" stroke-linecap="butt"><path d="M222.25698,106.49121c-10.83387,4.16539 -23.63418,19.56371 -32.53438,18.11857c-10.34867,-1.68034 -16.15053,-21.12479 -18.79403,-29.28311c-2.61798,-8.07944 -4.07715,-25.09255 2.86568,-33.41567c6.09706,-7.30924 19.70105,-6.16001 30.65665,-10.37223c23.43088,-9.00869 36.37401,1.13486 41.29105,16.30954c4.91703,15.17468 -0.05407,29.63415 -23.48494,38.64286z" fill="#444444" stroke="#000000"/><path d="M207.8757,113.91054c-0.62939,1.00743 -2.50706,1.20735 -3.17227,2.12767c-5.71747,7.91015 -13.31988,11.90262 -16.7595,9.75378c-3.83979,-2.39885 -20.589,-52.59663 -14.55013,-62.26295c0.87272,-1.39698 16.35479,-8.62826 16.95058,-5.78642c0.50078,2.38863 -4.89382,5.67151 -5.8732,10.5076c-2.10082,10.37344 -0.05845,24.28119 10.26308,26.42164c18.75436,3.88923 48.55815,-16.01419 50.3761,-14.87845c2.63104,1.6437 -1.32357,12.22649 -17.73857,22.83539c-7.54148,4.87398 -17.59504,8.23885 -19.49608,11.2818z" fill="#282828" stroke="none"/><path d="M243.80039,87.37242c-8.49912,13.60444 -46.46538,31.65499 -49.96635,29.46782c-3.50099,-2.18718 -20.16793,-27.33162 -11.66882,-40.93607c8.49912,-13.60444 52.79501,-14.48253 56.29597,-12.29534c3.50099,2.18718 13.83832,10.15918 5.3392,23.76362z" fill="#b7b7b7" stroke="#000000"/><path d="M237.97878,65.72486c-1.57081,2.51437 11.27424,9.68187 6.78457,17.41427c-3.80316,6.54999 -14.59246,14.21943 -21.85063,19.05257c-15.89385,10.58356 -34.39772,16.14636 -39.43401,13.00004c-10.05126,-6.27931 -13.48522,-18.91558 -7.67004,-28.22389c1.61861,-2.59088 4.69666,-9.23405 12.06633,-12.51618c19.10758,-8.50972 45.36954,-12.2852 52.62312,-7.75365c0.90233,0.56374 -13.9251,1.07572 -31.87798,5.85786c-12.99303,3.46094 -22.79315,9.31506 -23.75012,13.53316c-1.83123,8.07145 10.49159,24.66147 13.49432,24.30202c8.00745,-0.95862 25.98133,-8.60666 36.17682,-19.333c11.974,-12.59749 5.70198,-28.95761 3.43764,-25.33313z" fill="#989898" stroke="none"/><path d="M242.97449,88.67304c-8.49912,13.60444 -46.46538,31.65499 -49.96635,29.46782c-3.50099,-2.18718 -20.16793,-27.33162 -11.66882,-40.93607c8.49912,-13.60444 56.19778,-13.55836 59.69877,-11.37117c3.50099,2.18718 10.43552,9.23499 1.9364,22.83943z" fill="none" stroke="#000000"/><path d="M221.56209,106.672c-10.83387,4.16539 -23.63418,19.56371 -32.53438,18.11857c-10.34867,-1.68034 -16.15053,-21.12479 -18.79403,-29.28311c-2.61798,-8.07944 -4.07715,-25.09255 2.86568,-33.41567c6.09706,-7.30924 19.70105,-6.16001 30.65665,-10.37223c23.43088,-9.00869 34.76213,5.53528 39.67913,20.70998c4.91703,15.17468 1.55783,25.23375 -21.87305,34.24244z" fill="none" stroke="#000000"/></g><g stroke-linecap="butt"><path d="M16.49241,-34.79487c9.07109,-11.85974 28.90947,-7.2325 44.31031,10.33522c7.20101,8.21418 18.32566,12.60213 20.63432,21.69667c2.6289,10.35603 -4.34352,25.27203 -9.17324,31.5865c-4.87681,6.37611 -16.10688,21.77212 -24.84534,19.16851c-7.51536,-2.2392 -12.34403,-21.38087 -19.46498,-29.50377c-15.40083,-17.56775 -20.53214,-41.42343 -11.4611,-53.28318z" fill="#444444" stroke="#000000"/><path d="M36.75944,30.99277c-0.45839,-3.53161 -7.23777,-10.61347 -11.51911,-18.06655c-9.31888,-16.22264 -17.50016,-36.22592 -14.86227,-36.67221c1.82268,-0.30837 27.20576,38.51297 43.33082,42.4624c17.93396,4.39249 26.72364,-25.7526 27.4904,-19.84538c1.4562,11.2186 -28.93242,50.25731 -32.78221,50.90863c-3.44859,0.58344 -8.0796,-6.09094 -9.88321,-15.58123c-0.20985,-1.10416 -1.62266,-2.03645 -1.77439,-3.20565z" fill="#282828" stroke="none"/><path d="M17.50095,-7.53565c-2.04947,-15.78911 -2.24514,-26.78644 1.26497,-27.38026c3.51009,-0.59386 49.23022,25.76734 51.2797,41.55645c2.04947,15.78911 -19.7018,32.03713 -23.21192,32.63096c-3.51009,0.59386 -27.2833,-31.01803 -29.33277,-46.80714z" fill="#b7b7b7" stroke="#000000"/><path d="M21.53372,-28.19617c-0.54603,-4.20652 -3.1249,11.45716 2.01025,27.71718c4.37242,13.84486 15.93415,27.99292 21.92277,32.0653c2.24568,1.5271 17.64305,-8.66334 18.96031,-16.74805c0.68839,-4.225 -5.03932,-13.4733 -14.10456,-21.81705c-12.52571,-11.52885 -29.61865,-22.10209 -28.71395,-22.25515c7.27251,-1.23035 32.26881,16.88407 44.42997,32.27009c6.68536,8.45816 3.18766,20.85282 -4.25788,27.9399c-2.59914,2.47398 -5.12333,6.64559 -8.78514,7.26508c-1.69477,0.28671 -4.17572,1.06055 -6.776,-0.73393c-5.1471,-3.55199 -11.38833,-12.5736 -17.31212,-23.19774c-4.07176,-7.30266 -15.49136,-28.94047 -16.25026,-36.42692c-0.89588,-8.83787 9.25536,-3.16053 8.8766,-6.07868z" fill="#989898" stroke="none"/><path d="M17.7074,-6.02083c-2.04947,-15.78911 -2.24514,-26.78644 1.26497,-27.38026c3.51009,-0.59386 49.23022,25.76734 51.2797,41.55645c2.04947,15.78911 -19.7018,32.03713 -23.21192,32.63096c-3.51009,0.59386 -27.2833,-31.01803 -29.33277,-46.80714z" fill="none" stroke="#000000"/><path d="M16.97871,-34.35254c9.07109,-11.85974 28.90947,-7.2325 44.31031,10.33522c7.20101,8.21418 18.32566,12.60213 20.63432,21.69667c2.6289,10.35603 -13.34503,23.71948 -18.17473,30.03397c-4.87681,6.37611 -11.14756,14.78229 -19.886,12.17867c-7.51536,-2.2392 -8.30184,-12.83845 -15.42281,-20.96134c-15.40083,-17.56775 -20.53214,-41.42343 -11.4611,-53.28318z" fill="none" stroke="#000000"/></g><g stroke-linecap="butt"><path d="M61.77023,3.71092c14.29052,-7.08727 30.59108,-4.91758 40.52119,18.13795c4.643,10.78007 14.97179,19.70788 14.00426,29.17694c-1.10172,10.78251 -14.29086,21.62787 -21.89956,25.40135c-7.68294,3.81027 -25.64599,13.24844 -34.07976,7.02029c-7.25336,-5.3564 -5.18409,-25.27308 -9.77551,-35.93337c-9.93006,-23.05551 -3.06113,-36.71588 11.22938,-43.80312z" fill="#444444" stroke="#000000"/><path d="M49.72936,41.15628c-3.88263,-19.15529 0.92365,-29.37951 3.938,-28.64618c2.08278,0.50669 8.67343,35.73419 24.5613,46.43126c8.74395,5.88718 20.11937,-2.37093 26.07137,-11.12282c2.77481,-4.08008 1.35319,-10.23296 3.41171,-11.544c2.44911,-1.55974 8.09576,14.56786 7.7064,16.16837c-2.69422,11.07458 -50.30528,34.17316 -54.70449,33.10292c-3.94073,-0.95869 -6.39761,-9.1867 -4.73502,-18.80415c0.19343,-1.11896 -0.97571,-2.60179 -0.69492,-3.756c0.84815,-3.48627 -3.77062,-13.029 -5.55441,-21.82942z" fill="#282828" stroke="none"/><path d="M49.16146,18.74348c3.79187,-15.58647 16.71816,-13.76318 20.72921,-12.78738c4.01104,0.9758 34.33779,33.27413 30.5459,48.86062c-3.79188,15.58645 -33.42484,21.23608 -37.43588,20.26028c-4.01104,-0.9758 -17.63109,-40.74705 -13.83922,-56.33351z" fill="#b7b7b7" stroke="#000000"/><path d="M68.71421,7.7799c1.01022,-4.15252 -15.07513,2.7939 -15.71843,20.16225c-0.54775,14.78855 6.54214,32.98984 11.45223,39.38747c1.84125,2.39906 22.31948,-0.37992 26.81325,-7.33029c2.34843,-3.63221 -0.3127,-14.73318 -6.91686,-26.44564c-9.12518,-16.18347 -19.12063,-27.14735 -18.08684,-26.89585c8.31035,2.02174 23.96214,23.44521 31.22789,43.0596c2.80235,7.56515 0.20154,14.40926 -0.52059,17.37761c-2.59443,10.66442 -14.03288,17.03858 -25.54848,14.23706c-5.77002,-1.40374 -14.72187,-18.5269 -18.25839,-37.29176c-1.61501,-8.5692 -3.66887,-21.64634 -1.64138,-28.94403c2.39347,-8.615 16.49674,-4.43577 17.19755,-7.31644z" fill="#989898" stroke="none"/><path d="M48.80829,20.24316c3.79187,-15.58647 13.67914,-15.55137 17.69018,-14.57555c4.01104,0.9758 37.3768,35.06232 33.58493,50.6488c-3.79188,15.58645 -33.42484,21.23608 -37.43588,20.26028c-4.01104,-0.9758 -17.63109,-40.74705 -13.83922,-56.33351z" fill="none" stroke="#000000"/><path d="M60.1053,8.56242c14.29052,-7.08727 32.61231,-9.14567 42.54236,13.90984c4.643,10.78007 14.97179,19.70788 14.00426,29.17694c-1.10172,10.78251 -14.29086,21.62787 -21.89956,25.40135c-7.68294,3.81027 -25.64599,13.24844 -34.07976,7.02029c-7.25336,-5.3564 -5.18409,-25.27308 -9.77551,-35.93337c-9.93006,-23.05551 -5.08233,-32.48778 9.20822,-39.57502z" fill="none" stroke="#000000"/></g><g><g><path d="M45.77598,157.90237c-13.62587,-35.34425 6.80672,-87.77683 26.22855,-95.26433c12.01514,-4.63207 57.27299,-11.76665 80.60043,5.04483c14.38012,10.3634 32.97625,18.65633 38.17263,32.13516c13.62587,35.34425 -7.9738,84.94656 -27.39563,92.43405c-9.60956,3.70466 -35.97953,-5.8204 -59.5281,-12.50068c-24.04541,-6.82124 -51.19382,-3.99243 -58.07788,-21.84908z" fill="#444444" stroke="#000000" stroke-linecap="butt"/><path d="M41.20109,123.59406c0.50042,-2.05697 1.32096,-31.93483 15.00334,-48.63106c11.66743,-14.23748 34.94938,-15.51306 50.76108,-18.50305c37.57812,-7.10601 79.37723,36.28552 82.13497,36.95642c1.84546,0.44896 -26.3837,-22.63489 -56.83086,-30.82929c-14.86203,-3.99989 -31.90939,0.88378 -43.04611,3.48042c-8.68211,2.02433 -23.91609,6.58309 -28.09995,13.39554c-10.90438,17.75531 -12.46071,44.42846 -13.13379,47.19521c-1.9413,7.97966 4.53342,14.99385 -0.74543,13.70961c-5.27884,-1.28423 -7.98447,-8.79414 -6.04319,-16.77378z" fill="#282828" stroke="none" stroke-linecap="butt"/><path d="M88.26848,71.26007c4.29732,1.04545 22.17376,20.9293 44.25334,29.97174c19.72957,8.08003 43.70724,4.89339 50.07546,13.64801c4.84606,6.66203 -6.67664,25.64256 -6.67647,34.44455c0.00027,12.54109 9.93985,14.72041 8.82078,19.32032c-4.09166,16.81869 -57.18116,-14.38803 -72.40389,-18.09142c-15.22274,-3.70339 -24.24628,-20.33984 -20.15464,-37.1585c4.09166,-16.81869 -19.13733,-45.83801 -3.91459,-42.13463z" fill="#282828" stroke="none" stroke-linecap="butt"/><path d="M45.77452,157.27772c-13.62587,-35.34425 6.80672,-87.77683 26.22855,-95.26433c12.01514,-4.63207 57.27299,-11.76665 80.60043,5.04483c14.38012,10.3634 32.97625,18.65633 38.17263,32.13516c13.62587,35.34425 -7.9738,84.94656 -27.39563,92.43405c-9.60956,3.70466 -35.97953,-5.8204 -59.52809,-12.5007c-24.04541,-6.82124 -51.19382,-3.99243 -58.07787,-21.84904z" fill="none" stroke="#000000" stroke-linecap="butt"/><path d="M66.0908,111.48102c1.60219,-6.58576 6.08876,-29.60164 15.58998,-34.33687c11.06882,-5.51653 27.65346,7.86164 34.4796,9.5223c12.68549,3.08613 -0.66262,21.73234 -4.13132,35.9904c-3.46871,14.25808 -16.56428,23.31473 -29.24977,20.2286c-12.68549,-3.08613 -20.15718,-17.14637 -16.68847,-31.40446z" fill="#000000" stroke="#000000" stroke-linecap="butt"/><path d="M172.99042,143.52856c-2.66211,10.9426 -15.10383,17.31154 -27.78931,14.22542c-12.68549,-3.08613 -20.81104,-14.45867 -18.14892,-25.40128c2.66211,-10.9426 -1.79802,-28.83023 10.88746,-25.74411c6.82611,1.66065 27.20388,-0.55264 34.94,7.62981c6.64051,7.02361 1.34042,24.23583 0.11079,29.29018z" data-paper-data="{&quot;index&quot;:null}" fill="#000000" stroke="#000000" stroke-linecap="butt"/><path d="M48.3142,158.6691c0.17955,-0.73808 -4.74367,-8.90682 -4.2579,-9.69044c1.73848,-2.80428 -6.17642,-14.3282 0.35056,-15.35624c14.70577,-2.31624 50.90474,9.16916 67.97419,13.32182c18.48121,4.49611 57.85179,12.92439 67.7726,24.29184c4.44552,5.09373 -12.4254,15.30966 -13.12777,18.19674c-2.26983,9.33009 -35.34493,-5.30256 -62.10753,-11.81337c-26.76259,-6.5108 -58.87401,-9.62029 -56.60419,-18.95038z" fill="#b7b7b7" stroke="#000000" stroke-linecap="butt"/><path d="M48.2326,158.40026c0.26626,-1.09451 -9.28403,-22.89701 -7.03255,-23.39001c4.17174,-0.9135 12.96285,19.16125 24.78096,25.11311c13.28213,6.68915 31.44765,11.65794 45.2781,15.02262c12.29963,2.99226 29.11377,10.67288 41.96417,9.55812c11.96106,-1.03758 20.25849,-10.82078 24.26183,-9.79258c3.15769,0.811 -10.19075,10.87787 -10.55277,12.36599c-1.2934,5.31651 -24.21777,1.02505 -56.31467,-6.6405c-0.51385,-0.12271 -3.03556,-1.67683 -3.55207,-1.80248c-32.77802,-7.97424 -60.14708,-15.03273 -58.83298,-20.43434z" fill="#989898" stroke="none" stroke-linecap="butt"/><path d="M48.09645,158.93357c0.17956,-0.73805 -4.7437,-8.90682 -4.25792,-9.69043c1.73848,-2.80428 -6.17642,-14.3282 0.35054,-15.35624c14.70577,-2.31624 50.90476,9.16917 67.97422,13.32183c18.48121,4.49611 57.85177,12.92439 67.7726,24.29184c4.44552,5.09373 -12.4254,15.30966 -13.12777,18.19674c-2.26983,9.33009 -35.34493,-5.30256 -62.10753,-11.81337c-26.76257,-6.5108 -58.874,-9.62029 -56.60417,-18.95034z" fill="none" stroke="#000000" stroke-linecap="butt"/><path d="M114.37421,145.86308c15.22274,3.70339 26.76425,9.98975 25.77867,14.04097c-0.98558,4.0512 -14.12504,4.33319 -29.34777,0.6298c-15.22274,-3.70339 -26.76425,-9.98975 -25.77867,-14.04097c0.98558,-4.0512 14.12504,-4.33319 29.34777,-0.6298z" fill="#000000" stroke="#000000" stroke-linecap="butt"/><path d="M54.35143,136.43767l8.30278,-3.15977l7.11309,1.73048l-7.38975,7.14896l-2.06689,6.56036" fill="none" stroke="#000000" stroke-linecap="round"/><path d="M65.24933,140.0307l15.19958,-0.54018" fill="none" stroke="#000000" stroke-linecap="round"/><path d="M69.52653,149.54709l2.16309,-8.89138" fill="none" stroke="#000000" stroke-linecap="round"/><path d="M76.87229,140.07885l10.9218,7.36588" fill="none" stroke="#000000" stroke-linecap="round"/><path d="M78.92278,143.82806l-3.90552,14.11804" fill="none" stroke="#000000" stroke-linecap="round"/><path d="M166.8278,146.37843l0.78037,18.0833l-24.77571,-4.61479l1.29785,-5.33481" fill="none" stroke="#000000" stroke-linecap="round"/><path d="M164.46033,158.04533l-12.03917,-8.57944" fill="none" stroke="#000000" stroke-linecap="round"/><path d="M149.45319,153.92351l-5.23922,13.79357" fill="none" stroke="#000000" stroke-linecap="round"/><path d="M149.15201,176.45249l5.44358,-16.56913" fill="none" stroke="#000000" stroke-linecap="round"/><path d="M159.94236,163.06764l-0.38482,9.324" fill="none" stroke="#000000" stroke-linecap="round"/><path d="M165.48152,161.58992l0.86466,13.86586" fill="none" stroke="#000000" stroke-linecap="round"/></g><path d="M177.8357,97.25959l1.08155,-4.44571l5.64732,-1.92228" fill="none" stroke="#000000" stroke-linecap="round"/><path d="M102.11508,73.65856l-1.09349,2.55925l-2.76359,1.68205" fill="none" stroke="#000000" stroke-linecap="round"/></g><path d="M54.68921,204.21423l2.79582,-11.49218l80.78331,19.65297l-2.79582,11.49218z" fill="none" stroke="#000000" stroke-linecap="butt"/><path d="M54.00458,189.36921l3.20697,-13.18222l88.89545,21.62649l-3.20697,13.18222z" fill="none" stroke="#000000" stroke-linecap="butt"/><path d="M75.03408,192.69524l2.80489,-10.05795" fill="none" stroke="#000000" stroke-linecap="round"/><path d="M108.59746,190.12023l-2.30244,9.46415" fill="none" stroke="#000000" stroke-linecap="round"/><path d="M128.35672,206.02556l0.26534,-11.39178" fill="none" stroke="#000000" stroke-linecap="round"/></g></g></g></svg>