<svg version="1.1" xmlns="http://www.w3.org/2000/svg" xmlns:xlink="http://www.w3.org/1999/xlink" width="370.64352" height="312.51568" viewBox="0,0,370.64352,312.51568"><g transform="translate(44.82176,-134.08234)"><g data-paper-data="{&quot;isPaintingLayer&quot;:true}" fill-rule="nonzero" stroke-width="7" stroke-linejoin="miter" stroke-miterlimit="10" stroke-dasharray="" stroke-dashoffset="0" style="mix-blend-mode: normal"><g><path d="M54.7257,380.95778c4.29292,-12.94242 34.65619,-79.42458 64.6133,-102.61642c14.19302,-10.9878 27.94729,5.24497 39.43881,9.05664c35.74655,11.8569 31.72443,117.42317 25.39762,136.49743c-6.3268,19.07424 -40.43402,24.92506 -76.18057,13.06816c-35.74655,-11.8569 -59.59598,-36.93157 -53.26918,-56.00581z" fill="#737373" stroke="#000000" stroke-linecap="butt"/><path d="M58.91882,387.4085c1.36261,-4.10803 38.06454,-100.84869 57.67331,-105.08142c17.28932,-3.73205 -29.15869,22.81725 -16.3842,46.79423c6.71312,12.60014 55.93347,27.95275 79.86983,35.44051c13.49677,4.22206 6.62635,3.40384 9.86692,4.42431c0.13397,0.04219 3.01293,5.43555 -5.20111,3.72642c-21.62164,-4.49893 -72.54472,-18.86331 -96.49621,-14.87771c-31.31047,5.21017 -26.6339,32.7393 -26.16999,32.89318c10.82802,3.59158 28.25606,20.35062 45.58092,24.4583c36.25266,8.59543 74.99714,4.98741 72.52369,12.44443c-3.65549,11.02069 -33.76453,10.95065 -67.25045,-0.15641c-33.48592,-11.10706 -57.66824,-29.04513 -54.01275,-40.06582z" fill="#484848" stroke="none" stroke-linecap="butt"/><path d="M121.18845,273.27529c13.89253,-11.08745 27.10164,4.96448 38.22978,8.65561c34.61623,11.48198 29.71121,116.7554 23.3844,135.82966c-6.32681,19.07426 -39.5177,25.229 -74.13393,13.74702c-34.61623,-11.48198 -57.54935,-36.25269 -51.22254,-55.32696c4.29292,-12.94242 34.41942,-79.50312 63.74229,-102.90533z" fill="none" stroke="#000000" stroke-linecap="butt"/><path d="M183.34126,378.46654l-106.08566,-36.32384" fill="none" stroke="#000000" stroke-linecap="round"/><path d="M88.81339,312.57675l21.64681,-1.90713l10.41296,9.70139" fill="none" stroke="#000000" stroke-linecap="round"/><path d="M185.60848,397.26683l-21.98372,4.63514l-16.73014,-16.34037" fill="none" stroke="#000000" stroke-linecap="round"/></g><g data-paper-data="{&quot;index&quot;:null}" stroke-linecap="butt"><path d="M321.60301,354.21671c0,21.73363 -18.22197,39.3522 -40.69988,39.3522c-22.47791,0 -40.69988,-17.61857 -40.69988,-39.3522c0,-21.73363 18.22197,-39.3522 40.69988,-39.3522c22.47791,0 40.69988,17.61857 40.69988,39.3522z" fill="#737373" stroke="#000000"/><path d="M321.56204,369.60666c0,13.09971 -18.02083,23.71914 -40.25064,23.71914c-22.22983,0 -40.25066,-10.61942 -40.25066,-23.71914c0,-13.09971 -7.85459,-44.56321 14.37524,-44.56321c8.47092,0 -2.47578,14.68107 -2.02736,28.81478c0.27879,8.78675 10.25329,17.36198 15.93206,22.06652c4.32109,3.5798 17.62858,8.44804 28.9615,5.52531c12.68515,-3.27147 23.25989,-14.48655 23.25989,-11.8434z" fill="#484848" stroke="none"/><path d="M322.32176,354.93546c0,21.73363 -18.22197,39.3522 -40.69988,39.3522c-22.47791,0 -40.69988,-17.61857 -40.69988,-39.3522c0,-21.73363 18.22197,-39.3522 40.69988,-39.3522c22.47791,0 40.69988,17.61857 40.69988,39.3522z" fill="none" stroke="#000000"/></g><path d="M68.71091,237.5595z" fill="#ffffff" stroke="#000000" stroke-linecap="butt"/><g stroke-linecap="butt"><path d="M0.09688,300.92718c22.47791,0 40.69988,17.61857 40.69988,39.3522c0,21.73363 -18.22197,39.3522 -40.69988,39.3522c-22.47791,0 -40.69988,-17.61857 -40.69988,-39.3522c0,-21.73363 18.22197,-39.3522 40.69988,-39.3522z" fill="#737373" stroke="#000000"/><path d="M-40.56201,355.66931c0,-2.64315 10.57475,8.57192 23.25989,11.8434c11.33292,2.92274 24.64039,-1.94551 28.9615,-5.52531c5.67875,-4.70454 15.65325,-13.27974 15.93204,-22.06652c0.44842,-14.13369 -10.49828,-28.81478 -2.02736,-28.81478c22.22983,0 14.37524,31.46352 14.37524,44.56323c0,13.09971 -18.02083,23.71914 -40.25066,23.71914c-22.22983,0 -40.25066,-10.61942 -40.25066,-23.71914z" fill="#484848" stroke="none"/><path d="M-0.62188,301.64593c22.47791,0 40.69988,17.61857 40.69988,39.3522c0,21.73363 -18.22197,39.3522 -40.69988,39.3522c-22.47791,0 -40.69988,-17.61857 -40.69988,-39.3522c0,-21.73363 18.22197,-39.3522 40.69988,-39.3522z" fill="none" stroke="#000000"/></g><g><path d="M211.40212,147.62316c42.99475,22.18201 60.4201,73.94577 38.92061,115.6176c-21.49948,41.67183 -73.78238,57.47146 -116.77713,35.28945c-42.99475,-22.18201 -60.4201,-73.94577 -38.92061,-115.6176c21.49948,-41.67183 73.78238,-57.47146 116.77713,-35.28945z" fill="#737373" stroke="#000000" stroke-linecap="butt"/><path d="M194.85143,290.13484c32.8655,0.32091 42.38387,-48.13806 56.68786,-40.75829c7.09389,3.65991 5.78398,8.22154 4.30129,12.94255c-5.20864,16.58482 -48.35495,37.17345 -52.65837,45.51466c-1.20384,2.33337 -13.41938,-1.8399 -16.7443,-0.93153c-11.94429,3.26322 -26.19003,3.34748 -51.23328,-9.57292c-22.98115,-11.85652 -36.5868,-29.65267 -42.61524,-40.97991c-2.36965,-4.45249 -6.90204,-5.30564 -5.3421,-8.32921c3.05835,-5.92791 66.91153,41.71729 107.60416,42.11465z" fill="#484848" stroke="none" stroke-linecap="butt"/><path d="M211.63402,148.3494c42.99475,22.18201 60.4201,73.94577 38.92061,115.6176c-21.49948,41.67183 -73.78238,57.47146 -116.77713,35.28945c-42.99475,-22.18201 -60.4201,-73.94577 -38.92061,-115.6176c21.49948,-41.67183 73.78238,-57.47146 116.77713,-35.28945z" fill="none" stroke="#000000" stroke-linecap="butt"/><path d="M179.24598,207.40045c21.16664,10.92037 33.01398,30.06845 26.46175,42.76844c-6.55222,12.69999 -29.02281,14.14264 -50.18945,3.22228c-21.16664,-10.92037 -33.01398,-30.06845 -26.46175,-42.76844c6.55222,-12.69999 29.02281,-14.14264 50.18945,-3.22228z" fill="#484848" stroke="none" stroke-linecap="butt"/><path d="M152.49435,187.53278c7.6729,3.95863 8.24943,18.10658 1.28769,31.60031c-6.96173,13.49373 -18.82546,21.22345 -26.49837,17.26483c-7.6729,-3.95863 -8.24943,-18.10658 -1.28769,-31.60031c6.96173,-13.49373 18.82546,-21.22345 26.49837,-17.26483z" fill="#000000" stroke="#000000" stroke-linecap="butt"/><path d="M203.25593,234.34585c9.3927,4.84592 14.07452,14.4582 10.45715,21.46966c-3.61738,7.01145 -14.16412,8.76697 -23.55682,3.92105c-9.3927,-4.84592 -14.07452,-14.4582 -10.45715,-21.46966c3.61738,-7.01145 14.16412,-8.76697 23.55682,-3.92105z" fill="#ffffff" stroke="#000000" stroke-linecap="butt"/><path d="M119.76582,155.46865l19.84326,13.27054l-8.04655,26.17797" fill="none" stroke="#000000" stroke-linecap="round"/><path d="M113.84701,245.00438l-3.33619,9.60176" fill="none" stroke="#000000" stroke-linecap="round"/><path d="M145.55718,254.08536l-2.30685,4.47132" fill="none" stroke="#000000" stroke-linecap="round"/><path d="M185.34745,285.12827l2.30685,-4.47132" fill="none" stroke="#000000" stroke-linecap="round"/></g></g></g></svg>