<svg version="1.1" xmlns="http://www.w3.org/2000/svg" xmlns:xlink="http://www.w3.org/1999/xlink" width="244.37045" height="289.72874" viewBox="0,0,244.37045,289.72874"><g transform="translate(-125.03879,-28.53179)"><g data-paper-data="{&quot;isPaintingLayer&quot;:true}" fill-rule="nonzero" stroke-linejoin="miter" stroke-miterlimit="10" stroke-dasharray="" stroke-dashoffset="0" style="mix-blend-mode: normal"><g stroke-linecap="butt"><g><path d="M128.56019,183.73198l59.17127,-70.83452l12.31172,10.28453l-59.17127,70.83452z" fill="#7c7c7c" stroke="#000000" stroke-width="0"/><path d="M132.2873,178.09512c2.68437,-3.2135 53.79346,-68.88419 57.51926,-65.77187c2.04658,1.70961 -27.89065,34.88318 -40.17758,54.99667c-10.0813,16.5029 -2.63955,20.5976 -3.84939,22.04591c-2.68438,3.2135 -7.88085,3.29551 -11.60664,0.1832c-3.7258,-3.11232 -4.57003,-8.24041 -1.88566,-11.4539z" fill="#4c4c4c" stroke="none" stroke-width="0"/><path d="M128.56019,183.73198l59.17127,-70.83452l12.31172,10.28453l-59.17127,70.83452z" fill="none" stroke="#000000" stroke-width="5"/></g><g><path d="M177.36474,116.91408c5.54907,-6.64285 8.45379,-15.88837 14.76093,-16.55446c3.86319,-0.40798 11.63609,5.67593 14.34272,7.93691c3.12513,2.61056 12.75657,5.47443 12.66767,10.11856c-0.11381,5.9449 -10.94376,14.04049 -15.96732,20.05424c-8.94793,10.71165 -21.97808,14.56987 -29.10365,8.61754c-1.34618,-1.12453 13.84411,-21.60441 13.1044,-23.19853c-1.64043,-3.53524 -27.94403,20.05727 -30.90976,20.24134c-2.7756,0.17227 17.59646,-23.01547 21.10501,-27.2156z" fill="#5d9000" stroke="#000000" stroke-width="0"/><path d="M183.7729,134.62858c0.54122,-0.6479 7.63725,-14.11001 1.42331,-11.04533c-6.07546,2.99638 -25.45927,22.55188 -25.36143,19.30514c0.23397,-7.7638 26.0954,-38.39352 31.1945,-40.3368c1.64828,-0.62816 -16.30719,17.24234 -17.01814,22.0974c-0.66535,4.54363 12.96461,-7.35988 16.10166,-6.51091c5.29545,1.4331 -6.20541,27.34061 -5.5515,27.88685c3.81894,3.19013 16.81491,-4.36138 13.04123,0.15615c-3.77368,4.51753 -14.20672,6.60145 -18.02567,3.41131c-0.79512,-0.6642 -2.87387,-0.57807 -3.04715,-1.53337c-0.65898,-3.63298 4.25521,-9.85347 7.2432,-13.43042z" fill="#517c00" stroke="none" stroke-width="0"/><path d="M177.36473,116.91408c5.54907,-6.64284 8.45379,-15.88837 14.76093,-16.55446c3.86319,-0.40799 11.63609,5.67593 14.34272,7.93691c3.12513,2.61056 12.75657,5.47443 12.66767,10.11856c-0.11382,5.94489 -10.94376,14.04049 -15.96732,20.05424c-8.94793,10.71165 -21.97808,14.56987 -29.10365,8.61754c-1.34618,-1.12453 13.84411,-21.60441 13.1044,-23.19853c-1.64043,-3.53524 -27.94403,20.05727 -30.90976,20.24134c-2.77559,0.17227 17.59647,-23.01548 21.10503,-27.21561z" fill="none" stroke="#000000" stroke-width="5"/></g></g><g data-paper-data="{&quot;index&quot;:null}" stroke-linecap="butt"><g><path d="M356.75681,178.26053l-75.72354,-52.7704l9.172,-13.16148l75.72354,52.7704z" fill="#7c7c7c" stroke="#000000" stroke-width="0"/><path d="M360.84993,160.64142c3.43529,2.39399 3.97005,7.56354 1.1944,11.54648c-2.77564,3.98294 -7.8106,5.27104 -11.24589,2.87705c-1.54828,-1.07897 4.55395,-6.98735 -9.5142,-20.25636c-17.14604,-16.17206 -54.75668,-40.30008 -53.23202,-42.48793c2.77564,-3.98294 69.36243,45.92677 72.79773,48.32076z" fill="#4c4c4c" stroke="none" stroke-width="0"/><path d="M356.75681,178.26052l-75.72355,-52.77039l9.172,-13.16148l75.72355,52.77039z" fill="none" stroke="#000000" stroke-width="5"/></g><g><path d="M301.26353,113.47621c4.49002,3.12902 30.24517,20.13974 27.52203,20.70383c-2.90966,0.60273 -34.49386,-15.23789 -35.14634,-11.39558c-0.29422,1.73259 19.74927,17.4942 18.74638,18.93329c-5.30842,7.61738 -18.89461,7.32345 -30.34559,-0.65653c-6.42882,-4.48012 -19.0072,-9.44104 -20.68115,-15.14654c-1.30768,-4.45711 7.23091,-9.75418 9.55907,-13.09501c2.0164,-2.89347 7.91471,-10.80811 11.74912,-11.43094c6.26016,-1.01685 11.49513,7.13868 18.59645,12.08748z" fill="#5d9000" stroke="#000000" stroke-width="0"/><path d="M299.74198,132.25258c3.82384,2.66477 10.20156,7.37312 10.52165,11.05149c0.08418,0.96723 -1.944,1.43107 -2.53634,2.28107c-2.84504,4.08252 -13.45877,4.81703 -18.28809,1.45156c-4.82932,-3.36547 9.69562,0.50065 12.54065,-3.58189c0.48715,-0.69904 -17.42495,-22.66778 -12.69314,-25.44366c2.80315,-1.64444 19.08478,6.25355 17.24741,2.04505c-1.96329,-4.49693 -23.988,-17.0136 -22.23252,-16.84124c5.43072,0.5332 38.43988,23.27941 40.70831,30.7081c0.94864,3.1066 -22.89741,-10.65988 -29.54717,-11.95218c-6.80134,-1.32178 3.58664,9.79901 4.27926,10.28169z" fill="#517c00" stroke="none" stroke-width="0"/><path d="M301.26352,113.47621c4.49002,3.12902 30.24517,20.13974 27.52204,20.70382c-2.90966,0.60273 -34.49385,-15.23788 -35.14634,-11.39558c-0.29423,1.73259 19.74927,17.4942 18.74638,18.93329c-5.30842,7.61738 -18.89461,7.32345 -30.34559,-0.65653c-6.42882,-4.48012 -19.0072,-9.44104 -20.68115,-15.14654c-1.30768,-4.45711 7.2309,-9.75417 9.55907,-13.09501c2.0164,-2.89347 7.91471,-10.80812 11.74912,-11.43094c6.26016,-1.01685 11.49512,7.13869 18.59645,12.08748z" fill="none" stroke="#000000" stroke-width="5"/></g></g><g stroke-linecap="butt"><path d="M200.73767,139.39795c2.25532,-14.27539 21.72795,-23.06031 38.65849,-20.38552c16.93054,2.6748 32.76059,9.68108 30.50527,23.95647c-0.52774,3.34038 -5.04244,26.1811 -7.90679,28.08405c-2.97238,1.97471 -8.27349,-10.28255 -11.24231,-8.34209c-6.39667,4.18093 -10.66561,9.39675 -19.52339,7.99734c-5.48182,-0.86605 -4.85641,-10.05635 -8.97327,-12.88515c-3.30493,-2.27092 -11.68746,3.63264 -14.76814,1.81542c-4.9339,-2.91039 -7.68871,-14.29783 -6.74984,-20.24051z" fill="#3e5f00" stroke="#000000" stroke-width="5"/><g><path d="M225.56341,174.81804l8.72777,-55.24381l15.55172,2.45696l-8.72777,55.24381z" fill="#707070" stroke="#000000" stroke-width="0"/><path d="M225.55398,169.37965c0.55907,-3.53873 6.3947,-42.49841 10.68864,-41.82002c2.87071,0.45353 -7.60664,27.341 -7.01238,41.06489c0.29462,6.80393 12.43766,4.5615 12.25235,5.73441c-0.55907,3.53872 -4.87212,3.33487 -9.16605,2.65649c-4.29393,-0.67839 -7.32163,-4.09702 -6.76256,-7.63574z" fill="#474747" stroke="none" stroke-width="0"/><path d="M225.60571,174.88935l8.72777,-55.24381l15.55172,2.45696l-8.72777,55.24381z" fill="none" stroke="#000000" stroke-width="3.5"/></g><g><path d="M209.76669,134.08085l1.23449,-7.81389l56.60386,8.94265l-1.23449,7.81389z" fill="#707070" stroke="#000000" stroke-width="0"/><path d="M222.24342,129.12896c10.44858,1.65074 -12.29518,2.09473 -2.78264,5.52545c4.71605,1.70086 46.66966,7.74044 46.64345,7.90633c-0.07908,0.50053 -15.51986,-1.87136 -31.14854,-4.34047c-15.62868,-2.46912 -24.85663,-3.83693 -24.77755,-4.33747c0.07908,-0.50053 -3.56339,-7.22295 12.0653,-4.75384z" fill="#474747" stroke="none" stroke-width="0"/><path d="M209.95546,134.11981l1.23449,-7.81389l56.60386,8.94265l-1.23449,7.81389z" fill="none" stroke="#000000" stroke-width="3.5"/></g><g><path d="M207.51745,154.72293l1.23449,-7.81389l56.60386,8.94265l-1.23449,7.81389z" fill="#707070" stroke="#000000" stroke-width="0"/><path d="M207.92887,154.52487c0.07908,-0.50053 -3.56338,-7.22296 12.0653,-4.75385c10.44857,1.65073 -12.29519,2.09472 -2.78264,5.52545c4.71604,1.70086 46.66966,7.74044 46.64345,7.90633c-0.07908,0.50053 -15.51986,-1.87136 -31.14854,-4.34047c-15.62868,-2.46912 -24.85663,-3.83693 -24.77755,-4.33747z" fill="#474747" stroke="none" stroke-width="0"/><path d="M207.7062,154.76189l1.23449,-7.81389l56.60386,8.94265l-1.23449,7.81389z" fill="none" stroke="#000000" stroke-width="3.5"/></g><path d="M209.95466,101.41913c4.14626,1.06651 11.68562,6.44612 15.99526,4.94095c3.57253,-1.24772 -10.13303,-9.37342 -7.35381,-13.80041c2.46062,-3.9195 21.33184,-4.31206 25.35698,-3.67614c20.04012,3.16607 34.56435,16.62918 32.44077,30.07068c-1.17896,7.46244 -2.61975,31.10498 -13.22748,41.2819c-4.51061,4.32742 0.0078,-5.19101 -6.7727,-5.51844c-0.64906,-0.03135 11.30347,-14.98132 7.28923,-13.71603c-0.47386,0.14936 -4.39609,-0.30554 -8.17211,-4.38394c-4.0351,-4.35821 -7.96241,-12.33627 -9.24705,-11.41314c-2.63905,1.8964 -1.40813,9.50185 -2.61813,14.86956c-2.18675,9.70078 -5.73807,18.34871 -7.65024,17.14756c-6.56829,-4.12592 -10.25114,-21.2265 -12.18346,-20.50484c-6.79525,2.53786 7.65206,26.6223 5.09012,26.21754c-6.74444,-1.06553 -21.89683,-0.2996 -25.86117,-7.11797c-7.81508,-13.44139 -0.6276,-39.40971 0.7813,-48.32753c0.63414,-4.01389 1.60824,-7.23352 6.1325,-6.06976z" fill="#5d9000" stroke="#000000" stroke-width="0"/><path d="M200.43408,150.87962c0.22737,-1.43916 2.14282,-45.19212 5.89157,-48.19653c0.27559,-0.22088 3.54778,-0.12377 6.99348,1.32056c4.4456,1.86345 9.50815,5.04779 12.23304,3.03298c1.26061,-0.93211 -3.78172,-7.14612 -5.09676,-11.23076c-1.18093,-3.66807 1.31462,-5.2649 2.80301,-5.73074c12.96211,-4.05689 29.95469,-2.03252 31.52634,1.37124c0.69427,1.50361 -29.95979,0.83321 -30.99807,3.31436c-1.04964,2.50831 5.91515,8.1719 5.53427,11.37541c-0.53908,4.53418 -22.71928,1.33155 -23.49039,5.53978c-0.67698,3.69456 -3.95646,37.97716 0.25694,42.28608c2.1141,2.16202 10.90974,6.2721 14.23099,2.42313c2.26186,-2.62125 -3.23478,-17.38529 -1.60028,-20.4737c2.07392,-3.91868 6.5432,-1.19574 6.77622,-1.15892c0.308,0.04866 3.4252,0.95555 4.30104,2.9016c2.19715,4.8819 3.32869,13.51746 6.37042,11.09183c1.97829,-1.5776 1.67358,-13.01806 3.38266,-17.42459c3.3413,-8.61487 8.15907,-11.48077 9.211,-9.24212c0.06083,0.12946 5.37257,5.92791 10.49137,10.33613c4.41294,3.80034 8.75614,6.24991 8.60011,6.88276c-0.04542,0.18422 -4.30966,20.79144 -4.65296,20.95562c-0.54525,0.26078 -3.56852,-3.10265 -3.86092,-6.82755c-0.22608,-2.88011 3.60351,-7.5493 3.87678,-10.34275c0.29045,-2.96895 -2.99276,-3.99813 -3.92494,-4.76931c-5.34806,-4.42445 -10.50814,-13.70841 -12.79172,-12.52432c-2.70581,1.40301 -1.10637,6.78219 -2.21334,10.64746c-2.38913,8.34217 -5.19279,17.25202 -5.22066,17.58346c-0.08504,1.01133 -1.55163,2.88116 -3.51055,0.53828c-3.80957,-4.55626 -9.65198,-15.90285 -12.01338,-16.42728c-2.1768,-0.48342 3.07918,16.10412 2.95886,16.8657c-0.03371,0.21339 1.86854,4.85004 1.79708,5.05217c-1.15772,3.27474 -9.10008,0.60541 -15.87903,-0.46557c-7.1974,-1.13709 -12.562,-5.03417 -11.98216,-8.70438z" fill="#517c00" stroke="none" stroke-width="0"/><path d="M203.82217,107.48888c0.63413,-4.01388 1.60823,-7.23351 6.1325,-6.06976c4.14627,1.06652 11.68562,6.44612 15.99526,4.94095c3.57253,-1.24771 -10.13303,-9.37341 -7.35381,-13.80041c2.46062,-3.9195 21.33185,-4.31206 25.35698,-3.67614c20.04012,3.16607 34.56435,16.62918 32.44077,30.07068c-1.17896,7.46244 -2.61975,31.10498 -13.22748,41.2819c-4.51061,4.32742 0.00781,-5.191 -6.7727,-5.51844c-0.64906,-0.03134 11.30348,-14.98132 7.28924,-13.71604c-0.47386,0.14936 -4.39609,-0.30554 -8.17211,-4.38394c-4.0351,-4.35821 -7.96241,-12.33627 -9.24705,-11.41314c-2.63905,1.8964 -1.40813,9.50185 -2.61813,14.86956c-2.18675,9.70078 -5.73808,18.3487 -7.65025,17.14755c-6.56829,-4.12592 -10.25113,-21.2265 -12.18345,-20.50483c-6.79526,2.53785 7.65206,26.6223 5.09012,26.21754c-6.74444,-1.06553 -21.89683,-0.2996 -25.86117,-7.11797c-7.81509,-13.44139 -0.6276,-39.40973 0.78128,-48.32753z" fill="none" stroke="#000000" stroke-width="5"/></g><g><path d="M210.31181,52.55791c1.92827,-7.37423 0.44917,-19.94196 8.56812,-15.35902c6.981,3.94058 6.69588,-6.61408 12.94063,-8.46192c3.41858,-1.01157 11.06722,3.57581 15.35251,4.15545c6.78213,0.91738 10.1695,-1.45245 13.24583,-0.64803c15.40652,4.02861 10.03084,18.28204 5.68482,34.9024c-4.34602,16.62036 -20.3586,26.82798 -35.76511,22.79937c-15.40652,-4.02861 -24.37281,-20.76791 -20.0268,-37.38826z" fill="#3e5f00" stroke="none" stroke-width="0" stroke-linecap="butt"/><path d="M210.58115,52.52882c1.92827,-7.37423 0.44918,-19.94197 8.56813,-15.35903c6.981,3.94058 6.69588,-6.61408 12.94063,-8.46192c3.41857,-1.01157 11.06721,3.5758 15.3525,4.15545c6.78213,0.91739 10.1695,-1.45245 13.24583,-0.64803c15.40652,4.02861 10.03084,18.28204 5.68482,34.9024c-4.34602,16.62036 -20.3586,26.82798 -35.76511,22.79937c-15.40652,-4.02861 -24.37281,-20.76791 -20.0268,-37.38826z" fill="none" stroke="#000000" stroke-width="3" stroke-linecap="butt"/><path d="M212.21462,62.16035l5.79757,-22.17151l55.11203,14.4111l-5.79757,22.17151z" fill="#888888" stroke="#000000" stroke-width="0" stroke-linecap="butt"/><path d="M221.55269,39.96339c3.25066,0.85001 0.40102,6.3907 1.4888,11.42317c0.62361,2.88502 2.8041,6.02791 5.01017,7.96259c5.77302,5.06282 22.4078,2.69372 21.96088,4.40283c-0.91559,3.50148 -9.75704,4.22215 -19.74793,1.60965c-4.03351,-1.05472 -10.74066,-1.67719 -13.54455,-3.24599c-4.14125,-2.31707 -3.43367,-5.73646 -2.88772,-7.82434c0.91559,-3.50148 -2.27054,-16.94042 7.72035,-14.32793z" fill="#474747" stroke="none" stroke-width="0" stroke-linecap="butt"/><path d="M212.21462,62.16035l5.79757,-22.17151l55.11203,14.4111l-5.79757,22.17151z" fill="none" stroke="#000000" stroke-width="5" stroke-linecap="butt"/><g stroke-width="3.5"><path d="M255.92292,102.48249l9.23182,-35.30503l9.21306,2.4091l-9.23182,35.30503z" fill="#707070" stroke="#000000" stroke-linecap="butt"/><path d="M264.4009,74.38521c1.88432,0.49273 -2.6077,13.58091 -2.58161,21.48757c0.01451,4.39833 4.91702,5.35585 4.7355,6.05002c-0.50783,1.94209 -3.2968,2.89481 -6.22932,2.12799c-2.93253,-0.76682 -4.89814,-2.96282 -4.39031,-4.90489c0.50783,-1.94208 5.53322,-25.52751 8.46575,-24.76068z" fill="#494949" stroke="none" stroke-linecap="butt"/><path d="M255.93314,102.6017l9.23182,-35.30503l9.21307,2.4091l-9.23182,35.30503z" fill="none" stroke="#000000" stroke-linecap="butt"/><path d="M266.44322,99.18868l-8.03263,-2.32584" fill="none" stroke="#000000" stroke-linecap="round"/><path d="M268.0593,91.57156l-8.15813,-2.13325" fill="none" stroke="#000000" stroke-linecap="round"/><path d="M261.7705,82.86418l8.03587,2.02615" fill="none" stroke="#000000" stroke-linecap="round"/><path d="M263.52301,77.31144l7.96231,2.30746" fill="none" stroke="#000000" stroke-linecap="round"/></g><g stroke-width="3.5"><path d="M247.19946,101.52015l9.23182,-35.30503l9.21307,2.4091l-9.23182,35.30503z" fill="#707070" stroke="#000000" stroke-linecap="butt"/><path d="M247.2117,98.18358c0.50783,-1.94209 5.53322,-25.52751 8.46575,-24.76068c1.88432,0.49273 -2.6077,13.58091 -2.58161,21.48757c0.01451,4.39832 4.91702,5.35583 4.7355,6.05002c-0.50783,1.94208 -3.29681,2.8948 -6.22933,2.12799c-2.93253,-0.76682 -4.89814,-2.96282 -4.39031,-4.90489z" fill="#494949" stroke="none" stroke-linecap="butt"/><path d="M247.20969,101.63937l9.23183,-35.30504l9.21307,2.4091l-9.23183,35.30504z" fill="none" stroke="#000000" stroke-linecap="butt"/><path d="M249.68713,95.90049l8.03264,2.32585" fill="none" stroke="#000000" stroke-linecap="round"/><path d="M251.17771,88.47596l8.15813,2.13325" fill="none" stroke="#000000" stroke-linecap="round"/><path d="M261.08291,83.92797l-8.03587,-2.02615" fill="none" stroke="#000000" stroke-linecap="round"/><path d="M262.76187,78.65656l-7.96231,-2.30746" fill="none" stroke="#000000" stroke-linecap="round"/></g><g stroke-width="3.5"><path d="M235.44404,105.02494l9.66836,-36.97446l9.21307,2.4091l-9.66836,36.97446z" fill="#707070" stroke="#000000" stroke-linecap="butt"/><path d="M244.27287,75.58597c1.88432,0.49273 -2.77278,14.21218 -2.8381,22.46849c-0.03634,4.59282 4.86991,5.53598 4.67982,6.26298c-0.53184,2.0339 -3.34027,3.06108 -6.2728,2.29426c-2.93253,-0.76682 -4.87867,-3.03725 -4.34684,-5.07116c0.53184,-2.0339 5.84541,-26.72138 8.77793,-25.95455z" fill="#494949" stroke="none" stroke-linecap="butt"/><path d="M235.45293,105.14931l9.66836,-36.97446l9.21307,2.4091l-9.66836,36.97446z" fill="none" stroke="#000000" stroke-linecap="butt"/><path d="M246.0343,101.46359l-8.03003,-2.33582" fill="none" stroke="#000000" stroke-linecap="round"/><path d="M239.5853,91.35737l8.15813,2.13325" fill="none" stroke="#000000" stroke-linecap="round"/><path d="M249.57312,86.49346l-8.03674,-2.02282" fill="none" stroke="#000000" stroke-linecap="round"/><path d="M251.31816,80.9693l-7.95971,-2.31744" fill="none" stroke="#000000" stroke-linecap="round"/></g><g stroke-width="3.5"><path d="M227.80076,99.93167l9.23182,-35.30503l9.21307,2.4091l-9.23182,35.30503z" fill="#707070" stroke="#000000" stroke-linecap="butt"/><path d="M236.27875,71.83439c1.88432,0.49273 -2.6077,13.58091 -2.58161,21.48758c0.01451,4.39832 4.91702,5.35583 4.7355,6.05002c-0.50783,1.94208 -3.2968,2.89481 -6.22932,2.12799c-2.93253,-0.76682 -4.89814,-2.96282 -4.39031,-4.90489c0.50783,-1.94208 5.53322,-25.52751 8.46575,-24.76068z" fill="#494949" stroke="none" stroke-linecap="butt"/><path d="M227.81101,100.05088l9.23182,-35.30503l9.21307,2.4091l-9.23182,35.30503z" fill="none" stroke="#000000" stroke-linecap="butt"/><path d="M238.32107,96.63786l-8.03264,-2.32585" fill="none" stroke="#000000" stroke-linecap="round"/><path d="M231.77904,86.88748l8.15813,2.13325" fill="none" stroke="#000000" stroke-linecap="round"/><path d="M233.64835,80.31336l8.03587,2.02615" fill="none" stroke="#000000" stroke-linecap="round"/><path d="M243.36319,77.06807l-7.96231,-2.30746" fill="none" stroke="#000000" stroke-linecap="round"/></g><g stroke-width="3.5"><path d="M216.6722,101.27079l9.23182,-35.30503l9.21307,2.4091l-9.23182,35.30503z" fill="#707070" stroke="#000000" stroke-linecap="butt"/><path d="M225.15019,73.17352c1.88432,0.49273 -2.6077,13.58091 -2.58161,21.48758c0.01451,4.39832 4.91702,5.35583 4.7355,6.05002c-0.50783,1.94208 -3.2968,2.89481 -6.22932,2.12799c-2.93253,-0.76682 -4.89814,-2.96282 -4.39031,-4.90489c0.50783,-1.94208 5.53322,-25.52751 8.46575,-24.76068z" fill="#494949" stroke="none" stroke-linecap="butt"/><path d="M216.68243,101.39001l9.23182,-35.30503l9.21307,2.4091l-9.23182,35.30503z" fill="none" stroke="#000000" stroke-linecap="butt"/><path d="M227.1925,97.97698l-8.03264,-2.32585" fill="none" stroke="#000000" stroke-linecap="round"/><path d="M220.65046,88.2266l8.15813,2.13325" fill="none" stroke="#000000" stroke-linecap="round"/><path d="M222.51979,81.65247l8.03587,2.02615" fill="none" stroke="#000000" stroke-linecap="round"/><path d="M224.27231,76.09974l7.96231,2.30746" fill="none" stroke="#000000" stroke-linecap="round"/></g><g stroke-width="3.5"><path d="M208.89733,94.09467l9.23182,-35.30503l9.21307,2.4091l-9.23182,35.30503z" fill="#707070" stroke="#000000" stroke-linecap="butt"/><path d="M217.37531,65.9974c1.88432,0.49273 -2.6077,13.58091 -2.58161,21.48758c0.01451,4.39832 4.91702,5.35583 4.7355,6.05002c-0.50783,1.94208 -3.2968,2.89481 -6.22932,2.12799c-2.93253,-0.76682 -4.89814,-2.96282 -4.39031,-4.90489c0.50783,-1.94208 5.53322,-25.52751 8.46575,-24.76068z" fill="#494949" stroke="none" stroke-linecap="butt"/><path d="M208.90756,94.21389l9.23182,-35.30503l9.21307,2.4091l-9.23182,35.30503z" fill="none" stroke="#000000" stroke-linecap="butt"/><path d="M211.38499,88.47501l8.03264,2.32585" fill="none" stroke="#000000" stroke-linecap="round"/><path d="M212.87558,81.05048l8.15813,2.13325" fill="none" stroke="#000000" stroke-linecap="round"/><path d="M214.74492,74.47636l8.03587,2.02615" fill="none" stroke="#000000" stroke-linecap="round"/><path d="M216.49743,68.92362l7.96231,2.30746" fill="none" stroke="#000000" stroke-linecap="round"/></g><g stroke-width="3.5"><path d="M200.17386,93.13234l9.23182,-35.30503l9.21307,2.4091l-9.23182,35.30503z" fill="#707070" stroke="#000000" stroke-linecap="butt"/><path d="M208.65185,65.03507c1.88432,0.49273 -2.6077,13.58091 -2.58161,21.48758c0.01451,4.39832 4.91702,5.35583 4.7355,6.05002c-0.50783,1.94208 -3.2968,2.89481 -6.22932,2.12799c-2.93253,-0.76682 -4.89814,-2.96282 -4.39031,-4.90489c0.50783,-1.94208 5.53322,-25.52751 8.46575,-24.76068z" fill="#494949" stroke="none" stroke-linecap="butt"/><path d="M200.18411,93.25155l9.23182,-35.30503l9.21307,2.4091l-9.23182,35.30503z" fill="none" stroke="#000000" stroke-linecap="butt"/><path d="M202.66152,87.51268l8.03264,2.32585" fill="none" stroke="#000000" stroke-linecap="round"/><path d="M204.15213,80.08815l8.15813,2.13325" fill="none" stroke="#000000" stroke-linecap="round"/><path d="M206.02146,73.51402l8.03587,2.02615" fill="none" stroke="#000000" stroke-linecap="round"/><path d="M215.73629,70.26874l-7.96231,-2.30746" fill="none" stroke="#000000" stroke-linecap="round"/></g><path d="M235.4304,63.49494c9.1795,-2.41597 16.57511,-34.51259 24.80889,-32.35956c19.02614,4.9751 21.49745,18.65201 15.31383,42.29988c-6.18362,23.64787 -22.14513,19.39197 -41.17128,14.41687c-19.02614,-4.9751 -33.91208,-8.78542 -27.72845,-32.43329c1.08188,-4.13739 4.13956,-19.80064 7.9125,-13.98393c1.35178,2.08403 -1.25905,12.95171 0.18797,19.16941c1.99083,8.55444 8.03331,12.80786 9.7139,14.11213c4.74215,3.68033 5.80078,-9.86297 10.96262,-11.22151z" fill="#5d9000" stroke="#000000" stroke-width="0" stroke-linecap="butt"/><path d="M231.01112,70.19199c1.24682,-4.76816 3.90291,-6.16455 8.78938,-9.77215c1.83923,-1.35788 1.75315,-10.08519 5.28645,-9.16128c12.92063,3.37858 22.00369,11.43773 20.28758,18.00058c-1.71611,6.56287 -13.58152,9.14424 -26.50216,5.76566c-12.92063,-3.37858 -9.57737,1.73007 -7.86126,-4.83279z" fill="#517c00" stroke="none" stroke-width="0" stroke-linecap="butt"/><path d="M206.61051,71.72594c0.80244,-3.06874 31.47388,18.09209 48.80669,12.81438c5.00643,-1.52443 17.74636,-13.37588 16.82683,-23.31817c-0.64013,-6.92138 2.94508,-13.07391 -0.62417,-18.46244c-4.39699,-6.63818 -15.84885,-11.73859 -13.46606,-11.11551c8.36836,2.18822 20.28245,5.00184 20.60845,17.78338c0.19906,7.80437 -2.26094,18.99013 -5.66129,27.37781c-2.15394,5.31317 -5.69086,9.71572 -5.96086,10.74829c-1.39433,5.33233 -16.07468,6.11187 -32.78947,1.74117c-16.71479,-4.37071 -29.13447,-12.23656 -27.74013,-17.5689z" fill="#517c00" stroke="none" stroke-width="0" stroke-linecap="butt"/><path d="M235.4304,63.49494c9.17949,-2.41597 16.57511,-34.5126 24.80891,-32.35957c19.02613,4.9751 21.49745,18.65201 15.31383,42.29988c-6.18362,23.64787 -22.14513,19.39197 -41.17127,14.41687c-19.02613,-4.9751 -33.91209,-8.78543 -27.72846,-32.43329c1.08188,-4.13739 4.13956,-19.80064 7.91251,-13.98394c1.35178,2.08403 -1.25905,12.95171 0.18797,19.16941c1.99083,8.55444 8.03332,12.80785 9.7139,14.11213c4.74214,3.68032 5.80077,-9.86296 10.96262,-11.2215z" fill="none" stroke="#000000" stroke-width="5" stroke-linecap="butt"/><path d="M263.86028,48.26198c6.46032,1.6893 9.7411,10.54034 7.32782,19.76936c-2.41327,9.22903 -9.60674,15.34119 -16.06706,13.65189c-6.46032,-1.6893 -9.7411,-10.54034 -7.32782,-19.76936c2.41327,-9.22903 9.60674,-15.34119 16.06706,-13.65189z" fill="#69ff84" stroke="#000000" stroke-width="0" stroke-linecap="butt"/><path d="M263.71581,48.50436c6.46032,1.6893 9.7411,10.54034 7.32782,19.76936c-2.41327,9.22903 -9.60674,15.34119 -16.06706,13.65189c-6.46032,-1.6893 -9.7411,-10.54034 -7.32782,-19.76936c2.41327,-9.22903 9.60674,-15.34119 16.06706,-13.65189z" fill="none" stroke="#000000" stroke-width="5" stroke-linecap="butt"/><path d="M250.00047,57.71664c1.51378,-5.78911 6.67701,-9.45288 11.53239,-8.18326c4.58733,1.19953 12.56482,9.56738 11.56913,15.01729c-0.05818,0.31845 0.56829,2.80704 0.48472,3.12663c-1.51378,5.78911 -14.80831,-2.96906 -19.66368,-4.23867c-4.85539,-1.26962 -5.43635,0.06713 -3.92257,-5.72198z" fill="#5d9000" stroke="#000000" stroke-width="0" stroke-linecap="butt"/><path d="M261.74722,49.3092c3.74592,0.97951 -9.53931,3.45013 -7.43498,8.54656c1.45149,3.51534 19.00109,10.13382 18.81799,10.83402c-0.44853,1.71531 -7.28414,-2.04492 -13.61385,-3.70006c-6.32973,-1.65515 -11.09736,-4.38744 -10.64883,-6.10274c0.44853,-1.71531 6.54996,-11.23291 12.87968,-9.57778z" fill="#517c00" stroke="none" stroke-width="0" stroke-linecap="butt"/><path d="M261.19966,49.21734c4.58733,1.19953 12.56482,9.56738 11.56913,15.01729c-0.05818,0.31845 0.56829,2.80704 0.48472,3.12663c-1.51378,5.78911 -14.8083,-2.96905 -19.66368,-4.23866c-4.85539,-1.26962 -5.43635,0.06712 -3.92257,-5.72199c1.51378,-5.78911 6.67701,-9.45288 11.53239,-8.18326z" fill="none" stroke="#000000" stroke-width="5" stroke-linecap="butt"/><path d="M230.28588,47.66579c4.80869,1.25741 7.42038,7.19684 5.83335,13.26607c-1.58703,6.06924 -6.77179,9.96999 -11.58049,8.71257c-4.80869,-1.25741 -7.42038,-7.19684 -5.83335,-13.26607c1.58703,-6.06924 6.77179,-9.96999 11.58049,-8.71257z" fill="#000000" stroke="#000000" stroke-width="5" stroke-linecap="butt"/></g><g stroke-linecap="butt"><path d="M183.546,284.83446l26.9362,-88.27917l15.34376,4.68177l-26.9362,88.27917z" fill="#7c7c7c" stroke="#000000" stroke-width="0"/><path d="M212.17017,195.21872c2.55061,0.77827 -12.11462,42.9879 -15.60438,66.29762c-2.86332,19.12538 5.58535,20.0008 5.03459,21.8058c-1.22199,4.00489 -5.97679,6.10296 -10.62015,4.68616c-4.64337,-1.4168 -7.41692,-5.81196 -6.19493,-9.81685c1.22199,-4.00489 22.74151,-84.38952 27.38487,-82.97272z" fill="#4c4c4c" stroke="none" stroke-width="0"/><path d="M183.546,284.83446l26.9362,-88.27916l15.34376,4.68176l-26.9362,88.27916z" fill="none" stroke="#000000" stroke-width="5"/></g><g stroke-linecap="butt"><path d="M203.33166,173.01443c2.91991,-2.56221 12.77877,-2.07792 16.29399,-1.79292c4.05872,0.32907 13.57768,-2.88898 16.18463,0.95545c3.33713,4.92121 -0.83735,17.78202 -1.47057,25.59228c-1.1279,13.91161 -9.54428,24.58096 -18.79853,23.83067c-1.74834,-0.14175 -1.15799,-25.63335 -2.68194,-26.50857c-3.3796,-1.94094 -11.2509,32.50508 -13.56699,34.36658c-2.1676,1.74216 1.09261,-28.95089 1.53487,-34.40574c0.69946,-8.62729 -2.26255,-17.85464 2.50454,-22.03775z" fill="#5d9000" stroke="#000000" stroke-width="0"/><path d="M211.07149,195.9807c-3.23334,5.95273 -7.78213,33.10892 -9.57551,30.40066c-4.28846,-6.47614 -0.83862,-46.41476 2.20488,-50.94402c0.98381,-1.46409 -3.37056,23.49175 -1.14997,27.86736c2.07816,4.09495 6.34246,-13.49156 9.3945,-14.60817c5.15198,-1.88488 10.70665,25.91108 11.5559,25.97993c4.95979,0.40212 11.2173,-13.26405 10.74162,-7.39698c-0.47568,5.86707 -7.79457,13.58876 -12.75436,13.18665c-1.03264,-0.08372 -2.68079,1.18601 -3.3735,0.50575c-2.63438,-2.58704 -2.20977,-10.50307 -1.83312,-15.1486c0.06822,-0.84144 -1.90339,-15.931 -5.21043,-9.84258z" fill="#517c00" stroke="none" stroke-width="0"/><path d="M203.33166,173.01443c2.9199,-2.5622 12.77877,-2.07791 16.29399,-1.79291c4.05872,0.32906 13.57768,-2.88899 16.18462,0.95544c3.33712,4.92122 -0.83735,17.78203 -1.47057,25.59229c-1.12789,13.91161 -9.54428,24.58096 -18.79853,23.83066c-1.74834,-0.14175 -1.15799,-25.63335 -2.68194,-26.50857c-3.3796,-1.94094 -11.2509,32.50508 -13.56699,34.36658c-2.16759,1.74216 1.09262,-28.95089 1.53488,-34.40574c0.69947,-8.62729 -2.26255,-17.85464 2.50454,-22.03775z" fill="none" stroke="#000000" stroke-width="5"/></g><g stroke-linecap="butt"><g><path d="M155.94566,305.8622l0.22693,-22.01626l47.15865,1.31313l-0.22693,22.01627z" fill="#252525" stroke="#000000" stroke-width="0"/><path d="M155.94566,305.8622l0.22693,-22.01626l47.15865,1.31313l-0.22693,22.01627z" fill="#252525" stroke="#000000" stroke-width="0"/><path d="M155.94566,305.8622l0.22693,-22.01626l47.15865,1.31313l-0.22693,22.01627z" fill="none" stroke="#000000" stroke-width="3.5"/><path d="M156.46157,285.4409c0.0165,-1.60028 0.70634,7.80578 3.5564,11.44177c2.71842,3.46805 7.52149,1.13641 10.75863,1.22655c3.14719,0.08765 16.46254,4.74233 24.23275,0.65393c4.7184,-2.48264 4.38859,-15.12453 7.13877,-14.01296c2.26329,0.91478 0.62694,21.53074 0.61929,22.27233c-0.03223,3.12666 -25.47648,0.45223 -32.10752,0.26759c-4.26161,-0.11867 -11.45538,2.80704 -14.23413,-4.14215c-1.54496,-3.86369 0.02429,-16.58983 0.0358,-17.70705z" fill="#141414" stroke="none" stroke-width="0"/><path d="M155.94566,305.8622l0.22693,-22.01626l47.15865,1.31313l-0.22693,22.01627z" fill="none" stroke="#000000" stroke-width="3.5"/></g><g><path d="M142.27919,311.57358l0.11121,-22.01626l23.11067,1.31313l-0.11121,22.01628z" fill="#252525" stroke="#000000" stroke-width="0"/><path d="M142.27919,311.57358l0.11121,-22.01626l23.11067,1.31313l-0.11121,22.01628z" fill="#6c6c6c" stroke="#000000" stroke-width="0"/><path d="M142.27919,311.57358l0.11121,-22.01626l23.11067,1.31313l-0.11121,22.01628z" fill="none" stroke="#000000" stroke-width="3.5"/><path d="M144.27488,302.59406c1.33219,3.46805 3.68599,1.13641 5.2724,1.22655c1.54232,0.08765 8.06766,4.74233 11.87555,0.65393c2.3123,-2.48263 2.15068,-15.12452 3.49844,-14.01295c1.10915,0.91478 0.30724,21.53074 0.30349,22.27233c-0.0158,3.12666 -12.48506,0.45224 -15.73468,0.26759c-2.08846,-0.11868 -5.61385,2.80703 -6.97561,-4.14216c-0.75713,-3.8637 0.01191,-16.58983 0.01755,-17.70705c0.00809,-1.60028 0.34615,7.80578 1.74286,11.44176z" fill="#545454" stroke="none" stroke-width="0"/><path d="M142.27919,311.57358l0.11121,-22.01626l23.11067,1.31313l-0.11121,22.01628z" fill="none" stroke="#000000" stroke-width="3.5"/></g><g><path d="M177.02342,313.59636l0.11121,-22.01626l23.11067,1.31313l-0.11122,22.01628z" fill="#252525" stroke="#000000" stroke-width="0"/><path d="M177.02342,313.59636l0.11121,-22.01626l23.11067,1.31313l-0.11122,22.01628z" fill="#6c6c6c" stroke="#000000" stroke-width="0"/><path d="M177.02342,313.59636l0.11121,-22.01626l23.11067,1.31313l-0.11122,22.01628z" fill="none" stroke="#000000" stroke-width="3.5"/><path d="M177.27626,293.17509c0.00808,-1.60028 0.34614,7.80578 1.74285,11.44176c1.3322,3.46805 3.68601,1.13642 5.27241,1.22655c1.54231,0.08764 8.06765,4.74232 11.87555,0.65392c2.31231,-2.48263 2.15068,-15.12452 3.49845,-14.01295c1.10915,0.91477 0.30724,21.53074 0.30349,22.27233c-0.0158,3.12666 -12.48505,0.45223 -15.73468,0.26759c-2.08846,-0.11868 -5.61386,2.80703 -6.97562,-4.14216c-0.75712,-3.8637 0.01191,-16.58983 0.01755,-17.70705z" fill="#545454" stroke="none" stroke-width="0"/><path d="M177.02342,313.59636l0.11121,-22.01626l23.11067,1.31313l-0.11122,22.01628z" fill="none" stroke="#000000" stroke-width="3.5"/></g><g><path d="M157.98549,313.47737l0.11121,-22.01626l23.11067,1.31313l-0.11121,22.01628z" fill="#252525" stroke="#000000" stroke-width="0"/><path d="M157.98549,313.47737l0.11121,-22.01626l23.11067,1.31313l-0.11121,22.01628z" fill="#6c6c6c" stroke="#000000" stroke-width="0"/><path d="M157.98549,313.47737l0.11121,-22.01626l23.11067,1.31313l-0.11121,22.01628z" fill="none" stroke="#000000" stroke-width="3.5"/><path d="M158.23832,293.05609c0.00807,-1.60028 0.34614,7.80579 1.74285,11.44177c1.33219,3.46805 3.686,1.13641 5.2724,1.22655c1.54231,0.08764 8.06765,4.74233 11.87555,0.65393c2.31231,-2.48263 2.15068,-15.12453 3.49845,-14.01296c1.10915,0.91477 0.30724,21.53074 0.30349,22.27233c-0.0158,3.12666 -12.48505,0.45223 -15.73468,0.26759c-2.08845,-0.11868 -5.61385,2.80703 -6.97561,-4.14216c-0.75712,-3.8637 0.01191,-16.58983 0.01755,-17.70705z" fill="#545454" stroke="none" stroke-width="0"/><path d="M157.98549,313.47737l0.11121,-22.01626l23.11067,1.31313l-0.11121,22.01628z" fill="none" stroke="#000000" stroke-width="3.5"/></g></g><g data-paper-data="{&quot;index&quot;:null}" stroke-linecap="butt"><g><path d="M258.27237,289.13333l-6.75708,-92.04951l15.99908,-1.17445l6.75709,92.04951z" fill="#7c7c7c" stroke="#000000" stroke-width="0"/><path d="M274.53114,281.20625c0.30654,4.17594 -3.3699,7.84934 -8.21157,8.20474c-4.84168,0.35541 -9.01512,-2.74174 -9.32166,-6.91768c-0.13816,-1.88208 8.29503,-0.8684 9.72993,-20.15362c1.74883,-23.50453 -3.22383,-67.91169 -0.56428,-68.10692c4.84168,-0.35541 8.06104,82.79754 8.36759,86.97348z" fill="#4c4c4c" stroke="none" stroke-width="0"/><path d="M258.27237,289.13332l-6.75708,-92.0495l15.99908,-1.17445l6.75709,92.0495z" fill="none" stroke="#000000" stroke-width="5"/></g><g><path d="M274.90731,196.55147c0.44226,5.45486 3.70247,36.1479 1.53487,34.40574c-2.31608,-1.8615 -10.18738,-36.30753 -13.56699,-34.36658c-1.52395,0.87522 -0.9336,26.36681 -2.68194,26.50857c-9.25425,0.7503 -17.67063,-9.91905 -18.79853,-23.83067c-0.63323,-7.81026 -4.8077,-20.67107 -1.47057,-25.59228c2.60694,-3.84443 12.12591,-0.62637 16.18463,-0.95545c3.51521,-0.285 13.37408,-0.76929 16.29399,1.79292c4.76709,4.18311 1.80508,13.41045 2.50454,22.03775z" fill="#5d9000" stroke="#000000" stroke-width="0"/><path d="M259.45251,207.32258c0.37664,4.64552 0.80126,12.56155 -1.83312,15.1486c-0.69271,0.68027 -2.34086,-0.58947 -3.3735,-0.50575c-4.95979,0.40212 -12.27868,-7.31958 -12.75436,-13.18665c-0.47568,-5.86707 5.78184,7.79909 10.74162,7.39698c0.84925,-0.06885 6.40392,-27.86481 11.5559,-25.97993c3.05205,1.1166 7.31634,18.70311 9.3945,14.60817c2.22059,-4.37561 -2.13378,-29.33145 -1.14997,-27.86736c3.0435,4.52926 6.49334,44.46787 2.20488,50.94402c-1.79338,2.70826 -6.34217,-24.44792 -9.57551,-30.40066c-3.30705,-6.08842 -5.27865,9.00114 -5.21043,9.84258z" fill="#517c00" stroke="none" stroke-width="0"/><path d="M274.90731,196.55147c0.44226,5.45486 3.70247,36.1479 1.53488,34.40574c-2.31608,-1.8615 -10.18738,-36.30753 -13.56699,-34.36658c-1.52395,0.87522 -0.9336,26.36681 -2.68194,26.50857c-9.25425,0.7503 -17.67064,-9.91905 -18.79853,-23.83066c-0.63323,-7.81026 -4.80769,-20.67107 -1.47057,-25.59229c2.60694,-3.84443 12.12591,-0.62637 16.18462,-0.95544c3.51521,-0.285 13.37409,-0.76929 16.29399,1.79291c4.76709,4.18311 1.80507,13.41045 2.50454,22.03775z" fill="none" stroke="#000000" stroke-width="5"/></g><g><g><path d="M256.63013,308.67463l-0.22693,-22.01627l47.15865,-1.31313l0.22693,22.01626z" fill="#252525" stroke="#000000" stroke-width="0"/><path d="M256.63013,308.67463l-0.22693,-22.01627l47.15865,-1.31313l0.22693,22.01626z" fill="#252525" stroke="#000000" stroke-width="0"/><path d="M256.63013,308.67463l-0.22693,-22.01627l47.15865,-1.31313l0.22693,22.01626z" fill="none" stroke="#000000" stroke-width="3.5"/><path d="M303.27287,286.9402c0.01151,1.11723 1.58076,13.84337 0.0358,17.70705c-2.77874,6.94919 -9.97251,4.02348 -14.23413,4.14215c-6.63104,0.18465 -32.0753,2.85907 -32.10752,-0.26759c-0.00765,-0.74159 -1.644,-21.35755 0.61929,-22.27233c2.75018,-1.11157 2.42037,11.53032 7.13877,14.01296c7.77022,4.0884 21.08556,-0.56628 24.23275,-0.65393c3.23714,-0.09014 8.0402,2.2415 10.75863,-1.22655c2.85006,-3.63599 3.5399,-13.04205 3.5564,-11.44177z" fill="#141414" stroke="none" stroke-width="0"/><path d="M256.63013,308.67463l-0.22693,-22.01627l47.15865,-1.31313l0.22693,22.01626z" fill="none" stroke="#000000" stroke-width="3.5"/></g><g><path d="M294.34457,314.38602l-0.11121,-22.01628l23.11067,-1.31313l0.11121,22.01626z" fill="#252525" stroke="#000000" stroke-width="0"/><path d="M294.34457,314.38602l-0.11121,-22.01628l23.11067,-1.31313l0.11121,22.01626z" fill="#6c6c6c" stroke="#000000" stroke-width="0"/><path d="M294.34457,314.38602l-0.11121,-22.01628l23.11067,-1.31313l0.11121,22.01626z" fill="none" stroke="#000000" stroke-width="3.5"/><path d="M317.20242,292.65159c0.00564,1.11723 0.77468,13.84336 0.01755,17.70705c-1.36175,6.94919 -4.88715,4.02348 -6.97561,4.14216c-3.24962,0.18465 -15.71888,2.85907 -15.73468,-0.26759c-0.00375,-0.74159 -0.80566,-21.35755 0.30349,-22.27233c1.34776,-1.11157 1.18613,11.53032 3.49844,14.01295c3.80789,4.0884 10.33323,-0.56628 11.87555,-0.65393c1.58641,-0.09014 3.9402,2.2415 5.2724,-1.22655c1.39671,-3.63598 1.73477,-13.04204 1.74286,-11.44176z" fill="#545454" stroke="none" stroke-width="0"/><path d="M294.34457,314.38602l-0.11121,-22.01628l23.11067,-1.31313l0.11121,22.01626z" fill="none" stroke="#000000" stroke-width="3.5"/></g><g><path d="M259.60035,316.4088l-0.11122,-22.01628l23.11067,-1.31313l0.11121,22.01626z" fill="#252525" stroke="#000000" stroke-width="0"/><path d="M259.60035,316.4088l-0.11122,-22.01628l23.11067,-1.31313l0.11121,22.01626z" fill="#6c6c6c" stroke="#000000" stroke-width="0"/><path d="M259.60035,316.4088l-0.11122,-22.01628l23.11067,-1.31313l0.11121,22.01626z" fill="none" stroke="#000000" stroke-width="3.5"/><path d="M282.45818,294.67437c0.00564,1.11723 0.77467,13.84336 0.01755,17.70705c-1.36175,6.94919 -4.88716,4.02348 -6.97562,4.14216c-3.24962,0.18465 -15.71888,2.85907 -15.73468,-0.26759c-0.00375,-0.74159 -0.80566,-21.35756 0.30349,-22.27233c1.34777,-1.11157 1.18613,11.53032 3.49845,14.01295c3.80789,4.0884 10.33323,-0.56628 11.87555,-0.65392c1.5864,-0.09014 3.9402,2.2415 5.27241,-1.22655c1.39671,-3.63598 1.73477,-13.04204 1.74285,-11.44176z" fill="#545454" stroke="none" stroke-width="0"/><path d="M259.60035,316.4088l-0.11122,-22.01628l23.11067,-1.31313l0.11121,22.01626z" fill="none" stroke="#000000" stroke-width="3.5"/></g><g><path d="M278.63828,316.28981l-0.11121,-22.01628l23.11067,-1.31313l0.11121,22.01626z" fill="#252525" stroke="#000000" stroke-width="0"/><path d="M278.63828,316.28981l-0.11121,-22.01628l23.11067,-1.31313l0.11121,22.01626z" fill="#6c6c6c" stroke="#000000" stroke-width="0"/><path d="M278.63828,316.28981l-0.11121,-22.01628l23.11067,-1.31313l0.11121,22.01626z" fill="none" stroke="#000000" stroke-width="3.5"/><path d="M301.49611,294.55538c0.00564,1.11723 0.77467,13.84336 0.01755,17.70705c-1.36175,6.94919 -4.88716,4.02348 -6.97561,4.14216c-3.24962,0.18465 -15.71888,2.85907 -15.73468,-0.26759c-0.00375,-0.74159 -0.80565,-21.35756 0.30349,-22.27233c1.34777,-1.11157 1.18613,11.53033 3.49845,14.01296c3.80789,4.0884 10.33323,-0.56629 11.87555,-0.65393c1.5864,-0.09014 3.9402,2.24151 5.2724,-1.22655c1.39671,-3.63598 1.73478,-13.04205 1.74285,-11.44177z" fill="#545454" stroke="none" stroke-width="0"/><path d="M278.63828,316.28981l-0.11121,-22.01628l23.11067,-1.31313l0.11121,22.01626z" fill="none" stroke="#000000" stroke-width="3.5"/></g></g></g></g></g></svg>