<svg version="1.1" xmlns="http://www.w3.org/2000/svg" xmlns:xlink="http://www.w3.org/1999/xlink" width="188.48829" height="300.96528" viewBox="0,0,188.48829,300.96528"><g transform="translate(-145.28071,-28.70668)"><g data-paper-data="{&quot;isPaintingLayer&quot;:true}" fill-rule="nonzero" stroke-linejoin="miter" stroke-miterlimit="10" stroke-dasharray="" stroke-dashoffset="0" style="mix-blend-mode: normal"><g><g data-paper-data="{&quot;index&quot;:null}" stroke-linecap="butt"><g><g><path d="M291.32602,142.79933l9.69082,41.6809l-16.84181,4.1924l-9.69081,-41.68089z" fill="#252525" stroke="#000000" stroke-width="0"/><path d="M291.32602,142.79933l9.69082,41.6809l-16.84181,4.1924l-9.69081,-41.68089z" fill="#252525" stroke="#000000" stroke-width="0"/><path d="M300.20947,181.50389c0.70438,3.02965 -3.70711,-14.66644 -6.3031,-21.14123c-2.47608,-6.17574 -3.09747,-1.08493 -4.25356,-0.79715c-1.12395,0.27979 -7.78012,-6.64048 -8.64501,2.19373c-0.52519,5.3645 5.19797,29.23279 3.75655,27.51937c-1.18624,-1.41008 -9.76977,-40.64156 -10.09618,-42.04552c-0.38983,-1.67667 0.533,-0.18754 1.66407,-0.6387c2.86208,-1.14162 8.73817,-1.7645 10.43554,-2.18703c1.52194,-0.37885 1.55554,-9.15807 5.59707,3.59452c2.24707,7.09034 7.35286,31.3869 7.84463,33.50202z" fill="#141414" stroke="none" stroke-width="0"/><path d="M291.32602,142.79933l9.69082,41.6809l-16.84181,4.1924l-9.69081,-41.68089z" fill="none" stroke="#000000" stroke-width="3.5"/><path d="M291.32602,142.79933l9.69082,41.6809l-16.84181,4.1924l-9.69081,-41.68089z" fill="none" stroke="#000000" stroke-width="3.5"/></g><g><path d="M299.48298,160.62005l1.9621,8.4391l-24.60568,6.12503l-1.96209,-8.43911z" fill="#252525" stroke="#000000" stroke-width="0"/><path d="M299.48298,160.62005l1.9621,8.4391l-24.60568,6.12503l-1.96209,-8.43911z" fill="#252525" stroke="#000000" stroke-width="0"/><path d="M301.14438,168.49068c0.14262,0.61341 -1.10411,-2.88149 -2.92717,-3.86947c-1.73885,-0.94234 -4.01201,0.62292 -5.70103,1.04337c-1.64208,0.40876 -8.99426,0.50231 -12.6418,3.15535c-2.21493,1.61105 -0.84942,6.39217 -2.38214,6.35414c-1.26137,-0.03129 -2.3595,-8.13372 -2.42559,-8.41799c-0.27864,-1.19849 12.98063,-4.57036 16.44047,-5.43161c2.22356,-0.55349 5.88403,-1.86368 7.98306,0.3995c1.16704,1.25832 1.55465,6.33846 1.65422,6.76673z" fill="#141414" stroke="none" stroke-width="0"/><path d="M299.48298,160.62005l1.9621,8.4391l-24.60568,6.12503l-1.96209,-8.43911z" fill="none" stroke="#000000" stroke-width="3.5"/><path d="M299.48298,160.62005l1.9621,8.4391l-24.60568,6.12503l-1.96209,-8.43911z" fill="none" stroke="#000000" stroke-width="3.5"/></g><g><path d="M297.83405,146.87398l1.96209,8.43911l-27.79949,6.92007l-1.9621,-8.43912z" fill="#252525" stroke="#000000" stroke-width="0"/><path d="M297.83405,146.87398l1.96209,8.43911l-27.79949,6.92007l-1.9621,-8.43912z" fill="#252525" stroke="#000000" stroke-width="0"/><path d="M296.29882,150.94227c-1.92533,-0.89593 -4.52205,0.74989 -6.43031,1.22491c-1.85524,0.46181 -10.11217,0.78057 -14.28295,3.56385c-2.53267,1.69012 -1.13601,6.46353 -2.8557,6.47203c-1.41523,0.00701 -2.41698,-8.11942 -2.48307,-8.40368c-0.27864,-1.19849 14.7037,-4.99929 18.61264,-5.97233c2.51218,-0.62535 6.65917,-2.05666 8.95118,0.15851c1.27434,1.23161 1.56458,6.336 1.66415,6.76425c0.14261,0.6134 -1.15738,-2.86822 -3.17594,-3.80754z" fill="#141414" stroke="none" stroke-width="0"/><path d="M297.83405,146.87398l1.96209,8.43911l-27.79949,6.92007l-1.9621,-8.43912z" fill="none" stroke="#000000" stroke-width="3.5"/><path d="M297.83405,146.87398l1.96209,8.43911l-27.79949,6.92007l-1.9621,-8.43912z" fill="none" stroke="#000000" stroke-width="3.5"/></g></g><g><path d="M304.88311,176.51014l2.25352,9.69258l-28.71201,7.14722l-2.25352,-9.69259z" fill="#252525" stroke="#000000" stroke-width="0"/><path d="M304.88311,176.51014l2.25352,9.69258l-28.71201,7.14722l-2.25352,-9.69259z" fill="#252525" stroke="#000000" stroke-width="0"/><path d="M303.39124,181.11509c-2.0235,-1.07575 -4.68004,0.73339 -6.65093,1.22401c-1.91612,0.47698 -10.48827,0.61626 -14.75158,3.68178c-2.58885,1.8615 -1.01612,7.35171 -2.80294,7.31461c-1.47048,-0.03052 -2.71808,-9.33982 -2.79399,-9.66631c-0.32005,-1.3765 15.15231,-5.30987 19.18954,-6.31484c2.59463,-0.64587 6.8676,-2.16779 9.30569,0.42477c1.35556,1.44144 1.78696,7.27959 1.90132,7.77144c0.1638,0.70452 -1.27564,-3.30761 -3.39712,-4.43546z" fill="#141414" stroke="none" stroke-width="0"/><path d="M304.88311,176.51014l2.25352,9.69258l-28.71201,7.14722l-2.25352,-9.69259z" fill="none" stroke="#000000" stroke-width="3.5"/><path d="M304.88311,176.51014l2.25352,9.69258l-28.71201,7.14722l-2.25352,-9.69259z" fill="none" stroke="#000000" stroke-width="3.5"/></g></g><g data-paper-data="{&quot;index&quot;:null}" stroke-linecap="butt"><g><g><path d="M275.50291,151.59409l-23.216,-41.09992l14.73836,-10.08879l23.216,41.09993z" fill="#252525" stroke="#000000" stroke-width="0"/><path d="M275.50291,151.59409l-23.216,-41.09992l14.73836,-10.08879l23.216,41.09993z" fill="#252525" stroke="#000000" stroke-width="0"/><path d="M268.60276,103.4323c1.1781,2.08564 15.08927,25.60996 18.62185,33.07928c6.35365,13.43424 0.01932,6.43364 -1.31255,7.34535c-1.48539,1.01678 -6.02387,5.20899 -8.83699,6.57995c-1.11171,0.54178 -0.68371,2.47045 -1.61761,0.81716c-0.782,-1.38439 -23.00808,-39.63974 -23.19591,-41.71541c-0.22824,-2.52219 12.94528,21.15215 17.16718,25.02696c6.95258,6.381 6.61172,-4.47195 7.59531,-5.14524c1.0117,-0.69254 5.10383,2.88641 2.38814,-4.03366c-2.84719,-7.25516 -12.49693,-24.94181 -10.80943,-21.9544z" fill="#141414" stroke="none" stroke-width="0"/><path d="M275.50291,151.59409l-23.216,-41.09992l14.73836,-10.08879l23.216,41.09993z" fill="none" stroke="#000000" stroke-width="3.5"/><path d="M275.50291,151.59409l-23.216,-41.09992l14.73836,-10.08879l23.216,41.09993z" fill="none" stroke="#000000" stroke-width="3.5"/></g><g><path d="M261.57683,135.46854l-4.70053,-8.32147l21.53257,-14.73962l4.70053,8.32149z" fill="#252525" stroke="#000000" stroke-width="0"/><path d="M261.57683,135.46854l-4.70053,-8.32147l21.53257,-14.73962l4.70053,8.32149z" fill="#252525" stroke="#000000" stroke-width="0"/><path d="M278.60817,113.10253c0.23853,0.42229 3.62059,4.79815 3.71267,6.73702c0.16563,3.48723 -3.3245,5.36058 -5.27033,6.69258c-3.02772,2.07255 -14.68223,9.95824 -15.34978,8.77646c-0.15833,-0.2803 -5.21829,-7.64259 -4.36268,-8.67458c1.03969,-1.25399 3.52599,3.66316 6.22604,3.18459c4.44643,-0.78815 9.63199,-6.58243 11.069,-7.5661c1.47808,-1.01178 4.18576,-1.57349 4.71887,-3.7159c0.55893,-2.24615 -1.08546,-6.03895 -0.74379,-5.43407z" fill="#141414" stroke="none" stroke-width="0"/><path d="M261.57683,135.46854l-4.70053,-8.32147l21.53257,-14.73962l4.70053,8.32149z" fill="none" stroke="#000000" stroke-width="3.5"/><path d="M261.57683,135.46854l-4.70053,-8.32147l21.53257,-14.73962l4.70053,8.32149z" fill="none" stroke="#000000" stroke-width="3.5"/></g><g><path d="M267.51535,149.70122l-4.70054,-8.32149l24.3275,-16.65281l4.70054,8.32149z" fill="#252525" stroke="#000000" stroke-width="0"/><path d="M267.51535,149.70122l-4.70054,-8.32149l24.3275,-16.65281l4.70054,8.32149z" fill="#252525" stroke="#000000" stroke-width="0"/><path d="M287.32351,125.43439c0.23853,0.42229 3.70579,4.73983 3.70398,6.74297c-0.00325,3.60284 -3.91913,5.76763 -6.11755,7.27251c-3.42073,2.34158 -16.5831,11.25944 -17.25066,10.07766c-0.15833,-0.2803 -5.30266,-7.58485 -4.31238,-8.70901c1.20331,-1.366 3.66237,3.56985 6.64047,2.90092c4.90431,-1.10159 10.88163,-7.43785 12.50516,-8.5492c1.66993,-1.14311 4.66077,-1.89865 5.35708,-4.15277c0.73002,-2.36328 -0.86776,-6.18795 -0.52609,-5.58309z" fill="#141414" stroke="none" stroke-width="0"/><path d="M267.51535,149.70122l-4.70054,-8.32149l24.3275,-16.65281l4.70054,8.32149z" fill="none" stroke="#000000" stroke-width="3.5"/><path d="M267.51535,149.70122l-4.70054,-8.32149l24.3275,-16.65281l4.70054,8.32149z" fill="none" stroke="#000000" stroke-width="3.5"/></g></g><g><path d="M250.32009,120.89811l-5.39871,-9.55749l25.12605,-17.19943l5.39871,9.55749z" fill="#252525" stroke="#000000" stroke-width="0"/><path d="M250.32009,120.89811l-5.39871,-9.55749l25.12605,-17.19943l5.39871,9.55749z" fill="#252525" stroke="#000000" stroke-width="0"/><path d="M270.27378,94.94127c0.27396,0.485 4.1704,5.5026 4.2629,7.73854c0.16635,4.02154 -3.90236,6.21436 -6.17295,7.76864c-3.53301,2.41843 -17.1318,11.62135 -17.89851,10.26403c-0.18185,-0.32194 -6.00532,-8.7696 -5.00356,-9.9679c1.21725,-1.45609 4.06901,4.19409 7.20942,3.6175c5.17162,-0.94954 11.23935,-7.68109 12.91616,-8.82891c1.72476,-1.18064 4.87465,-1.85317 5.51003,-4.3296c0.66614,-2.59635 -1.2159,-6.95699 -0.8235,-6.26228z" fill="#141414" stroke="none" stroke-width="0"/><path d="M250.32009,120.89811l-5.39871,-9.55749l25.12605,-17.19943l5.39871,9.55749z" fill="none" stroke="#000000" stroke-width="3.5"/><path d="M250.32009,120.89811l-5.39871,-9.55749l25.12605,-17.19943l5.39871,9.55749z" fill="none" stroke="#000000" stroke-width="3.5"/></g></g><g data-paper-data="{&quot;index&quot;:null}"><g stroke-linecap="butt"><path d="M277.68716,231.12744l4.16274,-23.34849l10.03405,0.37248l-4.16275,23.34848z" fill="#252525" stroke="#000000" stroke-width="0"/><path d="M277.68716,231.12744l4.16274,-23.34849l10.03405,0.37248l-4.16275,23.34848z" fill="#252525" stroke="#000000" stroke-width="0"/><path d="M277.68716,231.12744l4.16274,-23.34849l10.03405,0.37248l-4.16275,23.34848z" fill="none" stroke="#000000" stroke-width="3.5"/><path d="M291.51901,209.83147c-0.21124,1.18485 -2.31912,14.73485 -3.37841,18.77305c-1.90522,7.26303 -1.45237,2.43989 -2.35914,2.40623c-1.41089,-0.05235 -8.58638,3.28317 -7.99521,-0.03269c0.14022,-0.78646 3.74282,-22.7032 4.38725,-23.5883c0.78307,-1.07551 -1.70266,12.31417 -1.19855,15.12261c0.39819,2.21845 3.51617,2.43578 5.45922,-0.16944c2.10779,-2.8261 3.0483,-8.5943 3.39675,-8.58136c0.68877,0.02556 -2.46457,11.64142 -1.2375,8.06655c1.28649,-3.74798 3.22817,-13.69376 2.92559,-11.99665z" fill="#141414" stroke="none" stroke-width="0"/><path d="M277.68716,231.12744l4.16274,-23.34849l10.03405,0.37248l-4.16275,23.34848z" fill="none" stroke="#000000" stroke-width="3.5"/></g><path d="M280.73424,219.1389l8.22522,0.68089" fill="none" stroke="#000000" stroke-width="3.5" stroke-linecap="round"/></g><g stroke-linecap="butt"><path d="M291.41595,219.29747l-8.94024,-23.66816l26.51826,-10.01681l8.94024,23.66816z" fill="#252525" stroke="#000000" stroke-width="0"/><path d="M289.53743,216.92793c-1.30547,-3.45609 -10.56946,-19.8668 -3.17821,-22.65871c1.88124,-0.7106 3.11688,18.04834 6.22914,18.5387c2.88156,0.45401 10.42061,-0.27528 15.40451,-5.32849c0.86513,-0.87716 2.31214,-4.14912 1.84958,-8.93365c-0.44809,-4.63494 -2.80007,-10.77784 -2.38179,-12.138c0.49467,-1.60859 4.98792,10.00661 5.54858,9.56238c0.9104,-0.72132 1.10251,1.88415 1.30019,2.23121c0.58108,1.02018 -0.87326,2.78733 -0.37712,3.45192c0.18329,0.24553 2.48084,5.07963 2.58872,5.36523c1.30548,3.4561 -6.06767,6.1859 -13.45892,8.97781c-7.39125,2.79191 -12.21921,4.38768 -13.52469,0.93158z" fill="#141414" stroke="none" stroke-width="0"/><path d="M291.25453,219.22456l-8.94024,-23.66816l26.51825,-10.0168l8.94024,23.66816z" fill="none" stroke="#000000" stroke-width="3.5"/></g><g><g stroke-linecap="butt"><path d="M294.30167,238.7694l-4.44893,-23.29566l10.02871,-0.49557l4.44892,23.29566z" fill="#252525" stroke="#000000" stroke-width="0"/><path d="M294.30167,238.7694l-4.44893,-23.29566l10.02871,-0.49557l4.44892,23.29566z" fill="#252525" stroke="#000000" stroke-width="0"/><path d="M294.30167,238.7694l-4.44893,-23.29566l10.02871,-0.49557l4.44892,23.29566z" fill="none" stroke="#000000" stroke-width="3.5"/><path d="M293.31083,229.10903c1.27085,3.55955 -2.0248,-8.01675 -1.33639,-8.05075c0.34824,-0.0172 1.35947,5.73901 3.50177,8.53903c1.97487,2.58117 5.08995,2.3256 5.46089,0.10244c0.46962,-2.81442 -2.18023,-16.17257 -1.38402,-15.10675c0.65525,0.87713 4.52651,22.74801 4.67637,23.53268c0.63183,3.30836 -6.58404,0.06113 -7.9942,0.13079c-0.90627,0.04477 -0.39429,4.86201 -2.38849,-2.37711c-1.10876,-4.0249 -3.38274,-17.54801 -3.60851,-18.73017c-0.32338,-1.69327 1.74019,8.22793 3.07258,11.95983z" fill="#141414" stroke="none" stroke-width="0"/><path d="M294.30167,238.7694l-4.44893,-23.29566l10.02871,-0.49557l4.44892,23.29566z" fill="none" stroke="#000000" stroke-width="3.5"/></g><path d="M292.92017,227.10535l8.21625,-0.78175" fill="none" stroke="#000000" stroke-width="3.5" stroke-linecap="round"/></g><g><g stroke-linecap="butt"><path d="M309.4297,236.37878l-9.27802,-21.82656l9.69671,-2.60663l9.27802,21.82656z" fill="#252525" stroke="#000000" stroke-width="0"/><path d="M309.4297,236.37878l-9.27802,-21.82656l9.69671,-2.60663l9.27802,21.82656z" fill="#252525" stroke="#000000" stroke-width="0"/><path d="M309.4297,236.37878l-9.27802,-21.82656l9.69671,-2.60663l9.27802,21.82656z" fill="none" stroke="#000000" stroke-width="3.5"/><path d="M306.41697,227.14688c1.99533,3.20999 -3.67547,-7.40669 -3.00984,-7.58561c0.33671,-0.09052 2.54319,5.32134 5.22951,7.60458c2.47637,2.1048 5.46681,1.1958 5.35888,-1.05551c-0.13662,-2.85006 -5.55331,-15.3449 -4.54958,-14.47173c0.82602,0.7186 9.23795,21.27489 9.55046,22.0101c1.31763,3.09973 -6.42199,1.45307 -7.78547,1.81958c-0.87628,0.23554 0.64355,4.83532 -2.83743,-1.81781c-1.9354,-3.6991 -7.01966,-16.43472 -7.49049,-17.54233c-0.67438,-1.58649 3.44199,7.67332 5.53394,11.03875z" fill="#141414" stroke="none" stroke-width="0"/><path d="M309.4297,236.37878l-9.27802,-21.82656l9.69671,-2.60663l9.27802,21.82656z" fill="none" stroke="#000000" stroke-width="3.5"/></g><path d="M305.61113,225.27125l7.86473,-2.50278" fill="none" stroke="#000000" stroke-width="3.5" stroke-linecap="round"/></g><g data-paper-data="{&quot;index&quot;:null}"><g stroke-linecap="butt"><path d="M323.61083,230.98319l-11.97372,-20.47219l7.87931,-6.22391l11.97373,20.47219z" fill="#252525" stroke="#000000" stroke-width="0"/><path d="M323.61083,230.98319l-11.97372,-20.47219l7.87931,-6.22391l11.97373,20.47219z" fill="#252525" stroke="#000000" stroke-width="0"/><path d="M323.61083,230.98319l-11.97372,-20.47219l7.87931,-6.22391l11.97373,20.47219z" fill="none" stroke="#000000" stroke-width="3.5"/><path d="M320.32822,205.80259c0.60762,1.03888 7.7908,12.71995 9.60341,16.48075c3.26012,6.76411 0.47683,2.79912 -0.23521,3.36158c-1.10791,0.87516 -4.40655,8.06769 -6.10701,5.16029c-0.40332,-0.68958 -11.87487,-19.70866 -11.95836,-20.80032c-0.10144,-1.3265 6.69014,10.47758 8.89523,12.28838c1.74184,1.4304 4.25615,-0.42629 4.04559,-3.66948c-0.22841,-3.51816 -3.25339,-8.51878 -2.97979,-8.7349c0.54086,-0.42724 5.67388,10.45963 4.28948,6.94269c-1.45143,-3.68723 -6.42367,-12.51704 -5.55334,-11.029z" fill="#141414" stroke="none" stroke-width="0"/><path d="M323.61083,230.98319l-11.97372,-20.47219l7.87931,-6.22391l11.97373,20.47219z" fill="none" stroke="#000000" stroke-width="3.5"/></g><path d="M318.15522,219.88157l6.70248,-4.81608" fill="none" stroke="#000000" stroke-width="3.5" stroke-linecap="round"/></g></g><g><g><g data-paper-data="{&quot;index&quot;:null}" stroke-linecap="butt"><g><g><path d="M255.79189,308.95002l-6.40718,-46.76681l17.42142,-3.93666l6.40718,46.76682z" fill="#252525" stroke="#000000" stroke-width="0"/><path d="M255.79189,308.95002l-6.40718,-46.76681l17.42142,-3.93666l6.40718,46.76682z" fill="#252525" stroke="#000000" stroke-width="0"/><path d="M267.15503,261.64198c0.32513,2.3732 4.57146,29.37104 5.09776,37.61682c0.94659,14.83076 -2.35665,5.98651 -3.93098,6.34226c-1.75579,0.39675 -7.52114,2.61784 -10.64164,2.85371c-1.23318,0.09321 -1.54726,2.04368 -1.805,0.16242c-0.21582,-1.57527 -6.75288,-45.33298 -6.16134,-47.33143c0.7188,-2.42835 4.22419,24.43665 6.71783,29.59614c4.10652,8.49659 7.79545,-1.71587 8.95809,-1.97859c1.19588,-0.27023 3.67811,4.56638 3.7083,-2.86741c0.03166,-7.79377 -2.40876,-27.79325 -1.94304,-24.39393z" fill="#141414" stroke="none" stroke-width="0"/><path d="M255.79189,308.95002l-6.40718,-46.76681l17.42142,-3.93666l6.40718,46.76682z" fill="none" stroke="#000000" stroke-width="3.5"/><path d="M255.79189,308.95002l-6.40718,-46.76681l17.42142,-3.93666l6.40718,46.76682z" fill="none" stroke="#000000" stroke-width="3.5"/></g><g><path d="M248.80089,288.82304l-1.29726,-9.46884l25.45249,-5.75142l1.29725,9.46886z" fill="#252525" stroke="#000000" stroke-width="0"/><path d="M248.80089,288.82304l-1.29726,-9.46884l25.45249,-5.75142l1.29725,9.46886z" fill="#252525" stroke="#000000" stroke-width="0"/><path d="M272.88479,274.32234c0.06583,0.48051 1.594,5.79569 0.96396,7.63165c-1.13317,3.30214 -5.06831,3.75505 -7.36838,4.27481c-3.57891,0.80871 -17.32106,3.83605 -17.5053,2.49132c-0.0437,-0.31895 -2.02903,-9.029 -0.85294,-9.67232c1.42912,-0.78172 1.92499,4.70594 4.61104,5.25772c4.42338,0.90864 11.38143,-2.56259 13.08003,-2.94642c1.74716,-0.3948 4.47097,0.08254 5.75719,-1.71184c1.3485,-1.88126 1.2201,-6.01319 1.31439,-5.32492z" fill="#141414" stroke="none" stroke-width="0"/><path d="M248.80089,288.82304l-1.29726,-9.46884l25.45249,-5.75142l1.29725,9.46886z" fill="none" stroke="#000000" stroke-width="3.5"/><path d="M248.80089,288.82304l-1.29726,-9.46884l25.45249,-5.75142l1.29725,9.46886z" fill="none" stroke="#000000" stroke-width="3.5"/></g><g><path d="M249.06695,304.24266l-1.29726,-9.46886l28.75621,-6.49795l1.29726,9.46886z" fill="#252525" stroke="#000000" stroke-width="0"/><path d="M249.06695,304.24266l-1.29726,-9.46886l28.75621,-6.49795l1.29726,9.46886z" fill="#252525" stroke="#000000" stroke-width="0"/><path d="M276.4332,289.00023c0.06583,0.48051 1.6947,5.77294 0.95368,7.63398c-1.33279,3.34725 -5.77119,3.91388 -8.36982,4.50108c-4.04346,0.91369 -19.56798,4.34377 -19.75222,2.99905c-0.0437,-0.31895 -2.12876,-9.00647 -0.79348,-9.68575c1.62253,-0.82542 2.08619,4.66953 5.10091,5.14703c4.96461,0.78632 12.85856,-2.89637 14.77764,-3.33002c1.97393,-0.44605 5.03246,-0.04434 6.51158,-1.88231c1.55074,-1.92698 1.47743,-6.07133 1.57172,-5.38306z" fill="#141414" stroke="none" stroke-width="0"/><path d="M249.06695,304.24266l-1.29726,-9.46886l28.75621,-6.49795l1.29726,9.46886z" fill="none" stroke="#000000" stroke-width="3.5"/><path d="M249.06695,304.24266l-1.29726,-9.46886l28.75621,-6.49795l1.29726,9.46886z" fill="none" stroke="#000000" stroke-width="3.5"/></g></g><g><path d="M243.71676,271.12664l-1.48994,-10.87529l29.70013,-6.71123l1.48994,10.87528z" fill="#252525" stroke="#000000" stroke-width="0"/><path d="M243.71676,271.12664l-1.48994,-10.87529l29.70013,-6.71123l1.48994,10.87528z" fill="#252525" stroke="#000000" stroke-width="0"/><path d="M271.84202,254.36724c0.0756,0.55187 1.84499,6.65333 1.10568,8.76554c-1.32972,3.79899 -5.9205,4.33526 -8.60444,4.94175c-4.17618,0.94367 -20.21151,4.47761 -20.42311,2.93314c-0.05018,-0.36633 -2.34452,-10.36692 -0.97122,-11.11086c1.66873,-0.904 2.2337,5.39979 5.3652,6.02301c5.15693,1.0263 13.2808,-2.99041 15.26286,-3.43829c2.03874,-0.46069 5.21446,0.07686 6.719,-1.99021c1.57739,-2.16716 1.43771,-6.91456 1.546,-6.12407z" fill="#141414" stroke="none" stroke-width="0"/><path d="M243.71676,271.12664l-1.48994,-10.87529l29.70013,-6.71123l1.48994,10.87528z" fill="none" stroke="#000000" stroke-width="3.5"/><path d="M243.71676,271.12664l-1.48994,-10.87529l29.70013,-6.71123l1.48994,10.87528z" fill="none" stroke="#000000" stroke-width="3.5"/></g></g><path d="M282.46305,283.09839c4.46542,34.27387 -20.47767,-26.35422 -28.8585,-25.26231c-0.56648,0.0738 5.5743,24.17544 4.82767,24.2904c-5.01668,0.77247 -12.2569,32.34543 -16.03986,22.12473c-3.98361,-10.76281 -1.86539,-35.41237 -4.00097,-51.80378c-4.46542,-34.27386 -1.29135,-62.94348 7.08948,-64.03539c4.40218,-0.57354 12.87841,-21.84542 20.8404,-0.89568c3.10084,8.159 -0.26235,29.49505 2.35412,46.19958c3.45545,22.06088 12.58126,40.12289 13.78766,49.38245z" data-paper-data="{&quot;index&quot;:null}" fill="#001354" stroke="#000000" stroke-width="0" stroke-linecap="butt"/><path d="M236.94936,214.91902c0,-9.23876 5.60275,57.34104 10.17836,71.44888c2.23412,6.88837 3.17964,-34.21896 5.12474,-34.21896c0.6284,0 15.55547,10.54256 21.58519,19.71732c4.2489,6.46508 0.17017,9.29278 0.61352,4.81885c0.32321,-3.26161 -5.2971,-53.35167 -16.63214,-69.66048c-6.85355,-9.86086 -21.30265,12.62484 -22.10097,8.30123c-4.33415,-23.47334 24.38223,-17.22216 26.90715,-14.89909c3.33959,3.07261 4.82081,23.81254 8.56123,40.35083c5.01233,22.16205 11.90061,41.50452 11.90061,45.86041c0,1.69962 -0.75879,7.93337 -3.40691,4.35565c-6.77912,-9.15889 -21.72645,-35.93136 -25.97373,-34.32491c-3.23957,1.22531 3.30158,10.87765 2.50048,20.75787c-0.02062,0.25425 1.08579,1.63871 1.05691,1.89115c-0.50349,4.40177 -4.17826,7.71779 -5.88639,11.22737c-3.21859,6.613 -5.22401,11.85277 -6.4339,11.85277c-5.92878,0 -7.99416,-73.72916 -7.99416,-87.47889z" fill="#000c33" stroke="none" stroke-width="0" stroke-linecap="butt"/><path d="M282.48795,282.66647c4.46542,34.27387 -20.47767,-26.35422 -28.8585,-25.26231c-0.56648,0.0738 5.57429,24.17544 4.82766,24.2904c-5.01668,0.77247 -12.25689,32.34543 -16.03985,22.12473c-3.98361,-10.76281 -1.86539,-35.41237 -4.00097,-51.80378c-4.46542,-34.27386 -1.29135,-62.94348 7.08948,-64.03539c4.40218,-0.57354 12.87841,-21.84541 20.8404,-0.89567c3.10084,8.159 -0.26235,29.49505 2.35412,46.19958c3.45545,22.06088 12.58127,40.12288 13.78766,49.38245z" data-paper-data="{&quot;index&quot;:null}" fill="none" stroke="#000000" stroke-width="3.5" stroke-linecap="butt"/><path d="M269.2321,235.93257l-32,16" fill="none" stroke="#000000" stroke-width="3.5" stroke-linecap="round"/></g><g stroke-linecap="butt"><path d="M240.89241,313.2553c0,-9.57293 15.00343,-17.33333 33.51109,-17.33333c8.76699,0 17.82869,-4.592 23.80081,-1.74153c6.63539,3.16703 9.71028,14.03659 9.71028,19.07486c0,4.01638 9.93836,10.2443 0.86668,12.63837c-12.55042,3.31213 -46.33616,2.02829 -57.07883,2.02829c-18.50766,0 -10.81003,-5.09374 -10.81003,-14.66667z" fill="#51341e" stroke="#000000" stroke-width="0"/><path d="M299.83513,320.77765c12.51038,-5.73047 -12.16793,-26.98902 -3.45124,-26.98902c10.26399,0 9.47393,10.2209 11.0047,17.89293c1.0217,5.12064 5.71481,7.88586 5.71481,10.20707c0,5.79899 -26.62997,7.7 -43.74458,7.7c-10.71308,0 -21.02126,-0.44198 -26.58682,-3.24224c-3.32567,-1.67327 -4.40193,-5.08871 -4.40193,-7.25776c0,-2.84549 49.41218,7.20993 61.46506,1.68902z" fill="#2f1c0d" stroke="none" stroke-width="0"/><path d="M274.76384,295.92196c8.767,0 17.8287,-4.592 23.80082,-1.74153c6.63538,3.16704 9.71027,14.03658 9.71027,19.07486c0,4.01639 9.93836,10.24431 0.86668,12.63838c-12.55042,3.31213 -46.33617,2.02829 -57.07883,2.02829c-18.50766,0 -10.81003,-5.09373 -10.81003,-14.66667c0,-9.57293 15.00343,-17.33333 33.51109,-17.33333z" fill="none" stroke="#000000" stroke-width="3.5"/></g></g><g stroke-linecap="butt"><g data-paper-data="{&quot;index&quot;:null}"><g><g><path d="M206.41521,256.70519l6.64634,-59.2575l17.40105,5.10458l-6.64634,59.25749z" fill="#252525" stroke="#000000" stroke-width="0"/><path d="M206.41521,256.70519l6.64634,-59.2575l17.40105,5.10458l-6.64634,59.25749z" fill="#252525" stroke="#000000" stroke-width="0"/><path d="M212.69529,201.75072c0.4831,-4.30722 -2.05959,21.03575 -2.06781,30.91824c-0.00784,9.42605 2.49911,3.30945 3.69359,3.65986c1.16129,0.34065 4.79792,13.31372 8.94785,2.5669c2.52,-6.52592 6.16278,-40.56727 6.86914,-37.48353c0.58132,2.53782 -6.17951,57.97901 -6.40338,59.97501c-0.26736,2.38371 -0.57145,-0.09147 -1.80414,-0.21765c-3.11925,-0.31931 -8.87316,-3.173 -10.6269,-3.68745c-1.57249,-0.46129 -4.92092,10.73155 -3.89848,-8.06732c0.56846,-10.45201 4.95285,-44.657 5.29012,-47.66405z" fill="#141414" stroke="none" stroke-width="0"/><path d="M206.41521,256.70519l6.64634,-59.2575l17.40105,5.10458l-6.64634,59.25749z" fill="none" stroke="#000000" stroke-width="3.5"/><path d="M206.41521,256.70519l6.64634,-59.2575l17.40105,5.10458l-6.64634,59.25749z" fill="none" stroke="#000000" stroke-width="3.5"/></g><g><path d="M205.48741,228.87692l1.34567,-11.99784l25.42273,7.45775l-1.34568,11.99782z" fill="#252525" stroke="#000000" stroke-width="0"/><path d="M205.48741,228.87692l1.34567,-11.99784l25.42273,7.45775l-1.34568,11.99782z" fill="#252525" stroke="#000000" stroke-width="0"/><path d="M206.90072,217.79193c0.09781,-0.8721 -0.05172,4.36624 1.28714,6.76038c1.27703,2.28356 4.00325,1.69598 5.74836,2.20791c1.69662,0.4977 8.63682,4.94425 13.06478,3.82081c2.68884,-0.68222 3.21277,-7.63719 4.63788,-6.63673c1.17279,0.82335 -0.85708,11.85457 -0.9024,12.25871c-0.19111,1.70388 -13.9176,-2.22384 -17.49232,-3.27248c-2.29739,-0.67396 -6.23015,-1.27376 -7.34642,-5.46813c-0.62064,-2.33204 0.9347,-9.06164 1.00299,-9.67049z" fill="#141414" stroke="none" stroke-width="0"/><path d="M205.48741,228.87692l1.34567,-11.99784l25.42273,7.45775l-1.34568,11.99782z" fill="none" stroke="#000000" stroke-width="3.5"/><path d="M205.48741,228.87692l1.34567,-11.99784l25.42273,7.45775l-1.34568,11.99782z" fill="none" stroke="#000000" stroke-width="3.5"/></g><g><path d="M201.84259,247.45882l1.34568,-11.99785l28.7226,8.42575l-1.34568,11.99785z" fill="#252525" stroke="#000000" stroke-width="0"/><path d="M201.84259,247.45882l1.34568,-11.99785l28.7226,8.42575l-1.34568,11.99785z" fill="#252525" stroke="#000000" stroke-width="0"/><path d="M203.27727,236.38007c0.09781,-0.87208 0.0033,4.38236 1.54416,6.83577c1.4697,2.34008 4.53024,1.85057 6.50187,2.42895c1.91684,0.56231 9.79184,5.28308 14.76041,4.31824c3.01713,-0.58589 3.50889,-7.55035 5.12717,-6.49321c1.33179,0.86998 -0.79769,11.872 -0.84302,12.27613c-0.19111,1.70388 -15.69788,-2.74607 -19.73662,-3.93084c-2.5956,-0.76142 -7.03103,-1.50868 -8.34669,-5.76155c-0.7315,-2.36455 0.92444,-9.06465 0.99272,-9.67349z" fill="#141414" stroke="none" stroke-width="0"/><path d="M201.84259,247.45882l1.34568,-11.99785l28.7226,8.42575l-1.34568,11.99785z" fill="none" stroke="#000000" stroke-width="3.5"/><path d="M201.84259,247.45882l1.34568,-11.99785l28.7226,8.42575l-1.34568,11.99785z" fill="none" stroke="#000000" stroke-width="3.5"/></g></g><g><path d="M206.41931,205.22673l1.54555,-13.7799l29.66542,8.70231l-1.54555,13.7799z" fill="#252525" stroke="#000000" stroke-width="0"/><path d="M206.41931,205.22673l1.54555,-13.7799l29.66542,8.70231l-1.54555,13.7799z" fill="#252525" stroke="#000000" stroke-width="0"/><path d="M208.04557,192.49616c0.11233,-1.00161 -0.05163,5.01705 1.51465,7.77518c1.49395,2.63075 4.67238,1.96975 6.70873,2.56711c1.97974,0.58076 10.08296,5.72654 15.24507,4.45866c3.13464,-0.76991 3.73186,-8.75929 5.39594,-7.60221c1.36948,0.95222 -0.97599,13.61781 -1.02804,14.08198c-0.2195,1.95698 -16.23655,-2.62798 -20.40784,-3.85161c-2.6808,-0.78642 -7.26878,-1.49617 -8.57904,-6.32181c-0.72849,-2.68301 1.07208,-10.40803 1.15051,-11.1073z" fill="#141414" stroke="none" stroke-width="0"/><path d="M206.41931,205.22673l1.54555,-13.7799l29.66542,8.70231l-1.54555,13.7799z" fill="none" stroke="#000000" stroke-width="3.5"/><path d="M206.41931,205.22673l1.54555,-13.7799l29.66542,8.70231l-1.54555,13.7799z" fill="none" stroke="#000000" stroke-width="3.5"/></g></g><g data-paper-data="{&quot;index&quot;:null}"><g><g><path d="M224.23659,256.95731l-1.12857,47.70256l-17.34053,-0.81077l1.12858,-47.70258z" fill="#252525" stroke="#000000" stroke-width="0"/><path d="M224.23659,256.95731l-1.12857,47.70256l-17.34053,-0.81077l1.12858,-47.70258z" fill="#252525" stroke="#000000" stroke-width="0"/><path d="M205.96109,300.41697c0.05727,-2.42069 0.18303,-30.10585 0.9614,-38.35449c1.39995,-14.8359 3.19479,-5.25266 4.7618,-5.1794c1.74763,0.08171 7.62918,-0.55288 10.66214,0.05374c1.1986,0.23974 1.8038,-1.59357 1.75839,0.32533c-0.03801,1.60679 -0.57341,46.38573 -1.45252,48.19163c-1.06822,2.19439 -0.2517,-25.16107 -1.84282,-30.90392c-2.62025,-9.45727 -7.75215,-0.40766 -8.90938,-0.46178c-1.19032,-0.05565 -2.82076,-5.47798 -4.00703,1.82278c-1.24373,7.65429 -2.01399,27.97344 -1.93196,24.5061z" fill="#141414" stroke="none" stroke-width="0"/><path d="M224.23659,256.95731l-1.12857,47.70256l-17.34053,-0.81077l1.12858,-47.70258z" fill="none" stroke="#000000" stroke-width="3.5"/><path d="M224.23659,256.95731l-1.12857,47.70256l-17.34053,-0.81077l1.12858,-47.70258z" fill="none" stroke="#000000" stroke-width="3.5"/></g><g><path d="M227.81586,278.62458l-0.2285,9.65831l-25.33431,-1.18451l0.22851,-9.65831z" fill="#252525" stroke="#000000" stroke-width="0"/><path d="M227.81586,278.62458l-0.2285,9.65831l-25.33431,-1.18451l0.22851,-9.65831z" fill="#252525" stroke="#000000" stroke-width="0"/><path d="M202.43355,286.4101c0.01159,-0.49013 -0.62823,-6.12662 0.26252,-7.76244c1.60212,-2.94215 5.45106,-2.33005 7.74046,-2.22303c3.56229,0.16656 17.2285,0.88271 17.19606,2.25435c-0.0077,0.32533 0.54261,9.42249 -0.68681,9.73897c-1.49391,0.38456 -1.11572,-5.14411 -3.60891,-6.40839c-4.10578,-2.08197 -11.32714,-0.53877 -13.01785,-0.61781c-1.73904,-0.08131 -4.28009,-1.28254 -5.79444,0.13606c-1.58768,1.4873 -2.10765,5.58428 -2.09104,4.88225z" fill="#141414" stroke="none" stroke-width="0"/><path d="M227.81586,278.62458l-0.2285,9.65831l-25.33431,-1.18451l0.22851,-9.65831z" fill="none" stroke="#000000" stroke-width="3.5"/><path d="M227.81586,278.62458l-0.2285,9.65831l-25.33431,-1.18451l0.22851,-9.65831z" fill="none" stroke="#000000" stroke-width="3.5"/></g><g><path d="M229.9609,263.39259l-0.2285,9.65833l-28.62269,-1.33827l0.2285,-9.65831z" fill="#252525" stroke="#000000" stroke-width="0"/><path d="M229.9609,263.39259l-0.2285,9.65833l-28.62269,-1.33827l0.2285,-9.65831z" fill="#252525" stroke="#000000" stroke-width="0"/><path d="M203.65867,266.15507c-1.78897,1.4779 -2.36378,5.5723 -2.34717,4.87027c0.01159,-0.49012 -0.72849,-6.1313 0.27275,-7.76195c1.80081,-2.93288 6.15069,-2.29735 8.73725,-2.17642c4.02469,0.18817 19.465,0.98729 19.43255,2.35893c-0.0077,0.32533 0.64186,9.42714 -0.74599,9.73621c-1.68642,0.37557 -1.27616,-5.15164 -4.0965,-6.43119c-4.64451,-2.10714 -12.79742,-0.60748 -14.70759,-0.69679c-1.96477,-0.09186 -4.83896,-1.30867 -6.54531,0.10095z" fill="#141414" stroke="none" stroke-width="0"/><path d="M229.9609,263.39259l-0.2285,9.65833l-28.62269,-1.33827l0.2285,-9.65831z" fill="none" stroke="#000000" stroke-width="3.5"/><path d="M229.9609,263.39259l-0.2285,9.65833l-28.62269,-1.33827l0.2285,-9.65831z" fill="none" stroke="#000000" stroke-width="3.5"/></g></g><g><path d="M229.94257,297.38975l-0.26244,11.09289l-29.56224,-1.3822l0.26244,-11.09288z" fill="#252525" stroke="#000000" stroke-width="0"/><path d="M229.94257,297.38975l-0.26244,11.09289l-29.56224,-1.3822l0.26244,-11.09288z" fill="#252525" stroke="#000000" stroke-width="0"/><path d="M200.3282,306.31003c0.01333,-0.5629 -0.73573,-7.03727 0.30296,-8.91533c1.86818,-3.37784 6.35965,-2.67153 9.03111,-2.54663c4.15678,0.19435 20.10374,1.02862 20.06646,2.60399c-0.00884,0.37365 0.63726,10.82269 -0.79718,11.18513c-1.74302,0.44042 -1.30413,-5.90927 -4.2139,-7.36346c-4.79179,-2.39477 -13.21749,-0.6285 -15.19035,-0.72074c-2.02926,-0.09489 -4.99483,-1.47674 -6.76126,0.15131c-1.85197,1.70689 -2.45691,6.41203 -2.43784,5.60573z" fill="#141414" stroke="none" stroke-width="0"/><path d="M229.94257,297.38975l-0.26244,11.09289l-29.56224,-1.3822l0.26244,-11.09288z" fill="none" stroke="#000000" stroke-width="3.5"/><path d="M229.94257,297.38975l-0.26244,11.09289l-29.56224,-1.3822l0.26244,-11.09288z" fill="none" stroke="#000000" stroke-width="3.5"/></g></g><g><g><path d="M182.50126,317.9077l0.2211,-21.45005l45.94583,1.27936l-0.2211,21.45006z" fill="#252525" stroke="#000000" stroke-width="0"/><path d="M182.50126,317.9077l0.2211,-21.45005l45.94583,1.27936l-0.2211,21.45006z" fill="#252525" stroke="#000000" stroke-width="0"/><path d="M182.50126,317.9077l0.2211,-21.45005l45.94583,1.27936l-0.2211,21.45006z" fill="none" stroke="#000000" stroke-width="3.5"/><path d="M183.00391,298.01159c0.01608,-1.55913 0.68817,7.60503 3.46494,11.14751c2.64851,3.37886 7.32805,1.10718 10.48194,1.19501c3.06625,0.08539 16.03916,4.62037 23.60954,0.63711c4.59705,-2.41879 4.27572,-14.73556 6.95517,-13.65257c2.20509,0.89125 0.61081,20.97702 0.60336,21.69953c-0.0314,3.04625 -24.82128,0.4406 -31.28179,0.2607c-4.15201,-0.11562 -11.16078,2.73485 -13.86805,-4.03562c-1.50523,-3.76432 0.02366,-16.16317 0.03488,-17.25167z" fill="#141414" stroke="none" stroke-width="0"/><path d="M182.50126,317.9077l0.2211,-21.45005l45.94583,1.27936l-0.2211,21.45006z" fill="none" stroke="#000000" stroke-width="3.5"/></g><g><path d="M169.18627,323.4722l0.10835,-21.45005l22.51631,1.27936l-0.10835,21.45007z" fill="#252525" stroke="#000000" stroke-width="0"/><path d="M169.18627,323.4722l0.10835,-21.45005l22.51631,1.27936l-0.10835,21.45007z" fill="#6c6c6c" stroke="#000000" stroke-width="0"/><path d="M169.18627,323.4722l0.10835,-21.45005l22.51631,1.27936l-0.10835,21.45007z" fill="none" stroke="#000000" stroke-width="3.5"/><path d="M171.13063,314.72361c1.29793,3.37886 3.5912,1.10718 5.1368,1.195c1.50266,0.08539 7.86018,4.62037 11.57014,0.63711c2.25284,-2.41878 2.09537,-14.73555 3.40847,-13.65257c1.08063,0.89125 0.29934,20.97702 0.29569,21.69953c-0.0154,3.04625 -12.16397,0.44061 -15.33002,0.26071c-2.03475,-0.11562 -5.46948,2.73484 -6.79621,-4.03563c-0.73766,-3.76433 0.01161,-16.16317 0.0171,-17.25167c0.00788,-1.55912 0.33725,7.60503 1.69804,11.14751z" fill="#545454" stroke="none" stroke-width="0"/><path d="M169.18627,323.4722l0.10835,-21.45005l22.51631,1.27936l-0.10835,21.45007z" fill="none" stroke="#000000" stroke-width="3.5"/></g><g><path d="M203.03695,325.44296l0.10835,-21.45005l22.51631,1.27936l-0.10836,21.45007z" fill="#252525" stroke="#000000" stroke-width="0"/><path d="M203.03695,325.44296l0.10835,-21.45005l22.51631,1.27936l-0.10836,21.45007z" fill="#6c6c6c" stroke="#000000" stroke-width="0"/><path d="M203.03695,325.44296l0.10835,-21.45005l22.51631,1.27936l-0.10836,21.45007z" fill="none" stroke="#000000" stroke-width="3.5"/><path d="M203.28328,305.54687c0.00787,-1.55912 0.33724,7.60503 1.69803,11.14751c1.29794,3.37886 3.59121,1.10719 5.13681,1.19501c1.50265,0.08539 7.86017,4.62036 11.57013,0.63711c2.25284,-2.41878 2.09537,-14.73555 3.40847,-13.65257c1.08063,0.89124 0.29934,20.97702 0.29569,21.69953c-0.01539,3.04625 -12.16396,0.4406 -15.33001,0.2607c-2.03475,-0.11562 -5.46949,2.73484 -6.79622,-4.03563c-0.73765,-3.76433 0.01161,-16.16317 0.0171,-17.25167z" fill="#545454" stroke="none" stroke-width="0"/><path d="M203.03695,325.44296l0.10835,-21.45005l22.51631,1.27936l-0.10836,21.45007z" fill="none" stroke="#000000" stroke-width="3.5"/></g><g><path d="M184.48863,325.32703l0.10835,-21.45005l22.51631,1.27936l-0.10835,21.45007z" fill="#252525" stroke="#000000" stroke-width="0"/><path d="M184.48863,325.32703l0.10835,-21.45005l22.51631,1.27936l-0.10835,21.45007z" fill="#6c6c6c" stroke="#000000" stroke-width="0"/><path d="M184.48863,325.32703l0.10835,-21.45005l22.51631,1.27936l-0.10835,21.45007z" fill="none" stroke="#000000" stroke-width="3.5"/><path d="M184.73496,305.43094c0.00787,-1.55912 0.33724,7.60504 1.69803,11.14751c1.29793,3.37886 3.5912,1.10718 5.1368,1.195c1.50265,0.08539 7.86017,4.62037 11.57013,0.63711c2.25284,-2.41878 2.09537,-14.73556 3.40847,-13.65257c1.08062,0.89124 0.29934,20.97702 0.29569,21.69953c-0.01539,3.04625 -12.16396,0.4406 -15.33001,0.2607c-2.03474,-0.11562 -5.46948,2.73484 -6.79621,-4.03563c-0.73765,-3.76433 0.01161,-16.16317 0.0171,-17.25167z" fill="#545454" stroke="none" stroke-width="0"/><path d="M184.48863,325.32703l0.10835,-21.45005l22.51631,1.27936l-0.10835,21.45007z" fill="none" stroke="#000000" stroke-width="3.5"/></g></g></g><g><g data-paper-data="{&quot;index&quot;:null}" stroke-linecap="butt"><g><g><path d="M211.74019,157.32449l-19.20259,38.24224l-15.38743,-8.02805l19.2026,-38.24224z" fill="#252525" stroke="#000000" stroke-width="0"/><path d="M211.74019,157.32449l-19.20259,38.24224l-15.38743,-8.02805l19.2026,-38.24224z" fill="#252525" stroke="#000000" stroke-width="0"/><path d="M178.63351,184.83498c0.97444,-1.94062 11.64001,-24.36021 15.4884,-30.72512c6.92166,-11.44784 4.89384,-2.90596 6.28437,-2.18049c1.55079,0.80909 7.11656,2.7937 9.63076,4.57515c0.99358,0.70402 2.24014,-0.52692 1.46768,1.01142c-0.64681,1.28814 -18.19818,37.40926 -19.68223,38.50154c-1.8033,1.32726 9.36188,-20.53113 10.1104,-25.86904c1.23266,-8.79044 -6.86177,-3.62566 -7.88867,-4.16143c-1.05626,-0.55108 -0.46548,-5.64553 -4.32183,-0.22342c-4.04311,5.68466 -12.48464,21.85108 -11.08888,19.07138z" fill="#141414" stroke="none" stroke-width="0"/><path d="M211.74019,157.32449l-19.20259,38.24224l-15.38743,-8.02805l19.2026,-38.24224z" fill="none" stroke="#000000" stroke-width="3.5"/><path d="M211.74019,157.32449l-19.20259,38.24224l-15.38743,-8.02805l19.2026,-38.24224z" fill="none" stroke="#000000" stroke-width="3.5"/></g><g><path d="M206.72198,176.43383l-3.88793,7.74289l-22.48085,-11.72887l3.88794,-7.74288z" fill="#252525" stroke="#000000" stroke-width="0"/><path d="M206.72198,176.43383l-3.88793,7.74289l-22.48085,-11.72887l3.88794,-7.74288z" fill="#252525" stroke="#000000" stroke-width="0"/><path d="M180.77891,171.96585c0.1973,-0.39293 1.76638,-5.2402 3.19616,-6.18947c2.57157,-1.70733 5.8223,0.42538 7.85384,1.48528c3.16106,1.64922 15.2586,8.03884 14.70645,9.13846c-0.13096,0.26082 -3.10006,7.87919 -4.33354,7.61357c-1.49884,-0.32277 0.95065,-4.64986 -0.8243,-6.73575c-2.92299,-3.43501 -10.04785,-5.2515 -11.54813,-6.03424c-1.54317,-0.80512 -3.38546,-2.86017 -5.29691,-2.35225c-2.00401,0.53251 -4.03617,3.63719 -3.75356,3.07438z" fill="#141414" stroke="none" stroke-width="0"/><path d="M206.72198,176.43383l-3.88793,7.74289l-22.48085,-11.72887l3.88794,-7.74288z" fill="none" stroke="#000000" stroke-width="3.5"/><path d="M206.72198,176.43383l-3.88793,7.74289l-22.48085,-11.72887l3.88794,-7.74288z" fill="none" stroke="#000000" stroke-width="3.5"/></g><g><path d="M214.46907,164.98114l-3.88795,7.7429l-25.39886,-13.25129l3.88793,-7.74289z" fill="#252525" stroke="#000000" stroke-width="0"/><path d="M214.46907,164.98114l-3.88795,7.7429l-25.39886,-13.25129l3.88793,-7.74289z" fill="#252525" stroke="#000000" stroke-width="0"/><path d="M189.60774,156.0448c-2.18263,0.43934 -4.26345,3.5186 -3.98086,2.9558c0.19729,-0.39292 1.67742,-5.28661 3.20522,-6.18473c2.74789,-1.61535 6.44313,0.74927 8.73836,1.94676c3.57138,1.86329 17.24319,9.07426 16.69105,10.17388c-0.13096,0.26082 -3.01199,7.92514 -4.38604,7.58617c-1.66967,-0.41188 0.8083,-4.72416 -1.25695,-6.96149c-3.40105,-3.68441 -11.35253,-5.93217 -13.04757,-6.81651c-1.74347,-0.90962 -3.88139,-3.11891 -5.96322,-2.69988z" fill="#141414" stroke="none" stroke-width="0"/><path d="M214.46907,164.98114l-3.88795,7.7429l-25.39886,-13.25129l3.88793,-7.74289z" fill="none" stroke="#000000" stroke-width="3.5"/><path d="M214.46907,164.98114l-3.88795,7.7429l-25.39886,-13.25129l3.88793,-7.74289z" fill="none" stroke="#000000" stroke-width="3.5"/></g></g><g><path d="M201.49503,192.57008l-4.46542,8.89295l-26.23258,-13.68628l4.46541,-8.89295z" fill="#252525" stroke="#000000" stroke-width="0"/><path d="M201.49503,192.57008l-4.46542,8.89295l-26.23258,-13.68628l4.46541,-8.89295z" fill="#252525" stroke="#000000" stroke-width="0"/><path d="M171.28865,187.22454c0.2266,-0.45127 2.01616,-6.0251 3.67216,-7.10813c2.97847,-1.94792 6.77489,0.53434 9.14546,1.77114c3.6886,1.92444 17.80562,9.37929 17.17145,10.64222c-0.15041,0.29955 -3.54804,9.05601 -4.98462,8.74057c-1.74561,-0.3833 1.07174,-5.35104 -1.00791,-7.76815c-3.42474,-3.98049 -11.72477,-6.12776 -13.47543,-7.04113c-1.8007,-0.93949 -3.95843,-3.32158 -6.17789,-2.75078c-2.32693,0.59844 -4.6678,4.16066 -4.34323,3.51426z" fill="#141414" stroke="none" stroke-width="0"/><path d="M201.49503,192.57008l-4.46542,8.89295l-26.23258,-13.68628l4.46541,-8.89295z" fill="none" stroke="#000000" stroke-width="3.5"/><path d="M201.49503,192.57008l-4.46542,8.89295l-26.23258,-13.68628l4.46541,-8.89295z" fill="none" stroke="#000000" stroke-width="3.5"/></g></g><g><path d="M217.3215,100.93479c3.6641,0.52842 10.7745,2.30221 12.77395,5.33811c1.97013,2.99137 -1.13936,7.21896 -1.71973,11.24328c-1.16937,8.10858 -22.3604,84.35147 -29.63485,83.30239c-2.77028,-0.39951 2.66072,-15.67599 -0.70636,-20.50309c-3.50095,-5.01901 -14.29921,-0.77182 -18.35929,-3.58306c-2.28876,-1.58476 -0.49463,-6.79301 -0.23361,-8.60295c1.16937,-8.10858 30.60545,-68.24379 37.8799,-67.19471z" fill="#003aff" stroke="#000000" stroke-width="0" stroke-linecap="butt"/><path d="M187.81544,178.95804c2.58046,0.37214 8.64107,-2.21621 14.95514,-12.96869c12.24462,-20.85192 26.46156,-56.33885 25.24105,-47.87567c-1.84988,12.82728 -21.983,84.98266 -29.56766,83.88885c-3.26948,-0.47151 3.33483,-13.61834 -0.37992,-19.69235c-3.18919,-5.21466 -12.2397,-2.61393 -16.70809,-5.86899c-2.40104,-1.74907 -2.27937,-8.95518 -1.91151,-11.50598c1.84988,-12.82728 0.78634,12.92902 8.37099,14.02283z" fill="#0029ae" stroke="none" stroke-width="3.5" stroke-linecap="butt"/><path d="M217.41201,100.30706c3.4147,0.49245 11.31011,1.51957 13.30772,4.23276c2.25797,3.06681 -1.63305,8.04629 -2.25351,12.34863c-1.16937,8.10858 -21.67332,84.45056 -28.94777,83.40148c-3.64994,-0.52637 1.18794,-13.1198 -3.05287,-20.20292c-2.58294,-4.31409 -11.69503,-0.99904 -15.8173,-3.01588c-2.59877,-1.27145 -1.34146,-8.00724 -1.11618,-9.5694c1.16937,-8.10858 30.60545,-68.24379 37.8799,-67.19471z" fill="none" stroke="#000000" stroke-width="3.5" stroke-linecap="butt"/><path d="M195.13627,131.60507l21.68604,26.35174" fill="none" stroke="#000000" stroke-width="3.5" stroke-linecap="round"/></g></g><g><g stroke-linecap="butt"><path d="M220.23418,175.66423l0.14844,-57.15562l30.84837,3.40894l-0.14845,57.15562z" fill="#252525" stroke="#000000" stroke-width="0"/><path d="M220.23418,175.66423l0.14844,-57.15562l30.84837,3.40894l-0.14845,57.15562z" fill="#252525" stroke="#000000" stroke-width="0"/><path d="M220.23418,175.66423l0.14844,-57.15562l30.84837,3.40894l-0.14845,57.15562z" fill="none" stroke="#000000" stroke-width="3.5"/><path d="M222.89803,152.35282c1.77823,9.00332 4.9201,2.95017 7.03765,3.18421c2.0587,0.22749 10.76881,12.31138 15.85162,1.6976c3.08649,-6.44505 2.87075,-39.26422 4.66975,-36.37851c1.48051,2.37484 0.41011,55.89518 0.40511,57.82039c-0.02108,8.11703 -16.66519,6.73423 -21.00282,6.25484c-2.7877,-0.30809 -7.49344,1.72707 -9.31112,-16.31345c-1.01062,-10.0304 0.01589,-43.06822 0.02342,-45.96864c0.01079,-4.15442 0.46205,20.26428 2.32638,29.70356z" fill="#141414" stroke="none" stroke-width="0"/><path d="M220.23418,175.66423l0.14844,-57.15562l30.84837,3.40894l-0.14845,57.15562z" fill="none" stroke="#000000" stroke-width="3.5"/></g><g stroke-linecap="butt"><path d="M220.86795,156.37671l0.19479,-9.68113l40.47872,0.57741l-0.19479,9.68113z" fill="#252525" stroke="#000000" stroke-width="0"/><path d="M220.86795,156.37671l0.19479,-9.68113l40.47872,0.57741l-0.19479,9.68113z" fill="#252525" stroke="#000000" stroke-width="0"/><path d="M220.86795,156.37671l0.19479,-9.68113l40.47872,0.57741l-0.19479,9.68113z" fill="none" stroke="#000000" stroke-width="3.5"/><path d="M224.36342,152.42817c2.33336,1.525 6.45607,0.49971 9.23469,0.53935c2.7014,0.03854 14.13065,2.08533 20.80023,0.28755c4.05005,-1.09168 3.76695,-6.65066 6.12758,-6.16187c1.9427,0.40226 0.53814,9.46763 0.53158,9.79373c-0.02766,1.37488 -21.86779,1.14066 -27.55956,1.05946c-3.65796,-0.05219 -9.83276,0.29253 -12.2179,-2.76321c-1.32611,-1.69897 0.02086,-7.29498 0.03074,-7.78626c0.01416,-0.70368 0.60629,3.4324 3.05265,5.03125z" fill="#141414" stroke="none" stroke-width="0"/><path d="M220.86795,156.37671l0.19479,-9.68113l40.47872,0.57741l-0.19479,9.68113z" fill="none" stroke="#000000" stroke-width="3.5"/></g><g stroke-linecap="butt"><path d="M218.69007,136.639l0.19479,-9.68113l40.47872,0.57741l-0.19479,9.68113z" fill="#252525" stroke="#000000" stroke-width="0"/><path d="M218.69007,136.639l0.19479,-9.68113l40.47872,0.57741l-0.19479,9.68113z" fill="#252525" stroke="#000000" stroke-width="0"/><path d="M218.69007,136.639l0.19479,-9.68113l40.47872,0.57741l-0.19479,9.68113z" fill="none" stroke="#000000" stroke-width="3.5"/><path d="M222.18553,132.69047c2.33336,1.525 6.45607,0.49971 9.23469,0.53935c2.7014,0.03853 14.13065,2.08533 20.80023,0.28754c4.05005,-1.09167 3.76695,-6.65065 6.12758,-6.16186c1.9427,0.40226 0.53814,9.46764 0.53158,9.79373c-0.02766,1.37488 -21.86779,1.14066 -27.55956,1.05946c-3.65797,-0.05218 -9.83276,0.29254 -12.2179,-2.7632c-1.32611,-1.69897 0.02086,-7.29498 0.03074,-7.78626c0.01416,-0.70368 0.60629,3.4324 3.05264,5.03125z" fill="#141414" stroke="none" stroke-width="0"/><path d="M218.69007,136.639l0.19479,-9.68113l40.47872,0.57741l-0.19479,9.68113z" fill="none" stroke="#000000" stroke-width="3.5"/></g><g><path d="M222.72137,98.95066c0,-28.25857 13.63129,-12.83333 20.16666,-12.83333c6.53537,0 16.16667,-23.09191 16.16667,5.16666c0,2.53169 3.12421,38.34547 -1.6604,47.1778c-2.12852,3.92923 -1.5913,-12.59788 -6.43781,-16.33039c-1.47198,-1.13363 -2.38462,4.57259 -5.13097,6.84841c-2.75093,2.27961 -7.33502,1.12961 -8.13729,0.93168c-3.19002,-0.78702 0.64043,10.7205 1.37494,15.26961c1.06568,6.60009 0.87621,17.11725 4.82168,22.27212c3.10428,4.05584 5.35505,-5.09592 9.26838,-2.48878c2.95969,1.97181 2.10649,9.35034 4.95913,12.65331c2.83873,3.28688 3.07764,-18.94785 5.87164,-17.0507c2.72594,1.85094 8.04443,27.85949 7.88487,28.98964c-2.1702,15.37128 -25.3886,15.22729 -28.98085,15.22729c-3.58121,0 -31.45752,3.55013 -33.62747,-11.75224c-1.79001,-12.62305 13.4608,-81.30746 13.4608,-94.0811z" fill="#003aff" stroke="#000000" stroke-width="0" stroke-linecap="butt"/><path d="M209.05031,192.08365c0,-2.76324 7.19008,-65.47718 10.23056,-64.0507c0.35742,0.16769 -1.00715,-26.86033 8.02929,-33.7312c10.1787,-7.7394 30.86619,4.65341 30.80485,6.47236c-0.12749,3.78071 -24.50154,-4.52117 -30.02907,5.81833c-12.36663,23.13235 -11.50829,72.48187 -8.88648,83.46119c2.16007,9.04567 15.76822,8.78001 19.10085,8.78001c13.08932,0 21.08768,-34.71366 26.47458,-35.5406c1.77281,-0.27214 7.27542,26.97865 7.27542,28.7906c0,7.31777 -14.10303,13.25 -31.5,13.25c-17.39697,0 -31.5,-5.93223 -31.5,-13.25z" fill="#0029ae" stroke="none" stroke-width="0" stroke-linecap="butt"/><path d="M222.72135,98.95062c0,-28.25857 13.6313,-12.83333 20.16667,-12.83333c6.53537,0 16.16667,-23.0919 16.16667,5.16667c0,2.53169 3.12422,38.34547 -1.6604,47.1778c-2.12853,3.92923 -1.59131,-12.59788 -6.43781,-16.33039c-1.47198,-1.13363 -2.38461,4.57259 -5.13096,6.84841c-2.75093,2.27962 -7.33503,1.12962 -8.13729,0.93169c-3.19002,-0.78702 0.64042,10.7205 1.37494,15.26961c1.06568,6.6001 0.87621,17.11726 4.82168,22.27213c3.10429,4.05585 5.35504,-5.09593 9.26838,-2.48878c2.95969,1.9718 2.1065,9.35033 4.95913,12.6533c2.83874,3.28688 3.07764,-18.94784 5.87164,-17.05069c2.72594,1.85094 8.04443,27.85949 7.88487,28.98964c-2.1702,15.37128 -25.3886,15.22729 -28.98085,15.22729c-3.58121,0 -31.45752,3.55014 -33.62747,-11.75224c-1.79001,-12.62304 13.4608,-81.30745 13.4608,-94.08109z" fill="none" stroke="#000000" stroke-width="3.5" stroke-linecap="butt"/><path d="M215.2344,199.47347l8,-25l27.66667,9.66667l13,-5.33333l3,17" fill="none" stroke="#000000" stroke-width="3.5" stroke-linecap="round"/><path d="M238.02489,150.87625l-21.75,-6.75" fill="none" stroke="#000000" stroke-width="3.5" stroke-linecap="round"/></g></g><g><path d="M208.2545,60.42215c3.61577,-19.7379 22.03388,-32.90158 41.13798,-29.40191c7.84027,1.43625 2.2561,11.67068 7.22539,17.27563c0.52483,0.59196 6.39669,-1.66256 7.63094,1.09766c2.60266,5.82047 1.45665,18.34261 4.53795,17.364c4.20556,-1.3357 6.95277,-22.19014 8.98757,-20.64635c5.3847,4.08533 0.85589,20.4686 -0.33774,26.98438c-3.61577,19.7379 -22.03387,32.90158 -41.13797,29.40192c-19.1041,-3.49967 -31.65989,-22.33744 -28.04412,-42.07533z" fill="#003aff" stroke="#000000" stroke-width="0" stroke-linecap="butt"/><path d="M238.32611,83.01119c13.85274,2.53767 37.98016,-10.31399 36.28837,-1.07883c-1.69178,9.23516 -24.39356,23.18399 -38.2463,20.64631c-13.85274,-2.53767 -31.3131,-26.08038 -29.62132,-35.31554c1.69178,-9.23516 17.7265,13.21038 31.57924,15.74806z" fill="#0029ae" stroke="none" stroke-width="0" stroke-linecap="butt"/><path d="M208.2545,60.42212c3.61577,-19.73789 22.03388,-32.90157 41.13798,-29.4019c7.84028,1.43626 2.25611,11.67068 7.2254,17.27563c0.52482,0.59196 6.39669,-1.66256 7.63094,1.09766c2.60266,5.82046 1.45665,18.34262 4.53795,17.364c4.20557,-1.33569 6.95277,-22.19013 8.98757,-20.64634c5.3847,4.08533 0.85589,20.4686 -0.33774,26.98438c-3.61577,19.73789 -22.03388,32.90157 -41.13798,29.4019c-19.10411,-3.49967 -31.65989,-22.33743 -28.04412,-42.07532z" fill="none" stroke="#000000" stroke-width="3.5" stroke-linecap="butt"/><path d="M212.34578,64.35706c3.38357,-18.47032 19.27024,-31.03569 35.48386,-28.06553c6.65403,1.21895 3.53302,8.4706 7.67799,13.62306c0.43776,0.54417 5.26486,-2.36563 6.27325,0.19047c2.1264,5.39004 3.99579,19.00245 6.6347,18.04189c3.60176,-1.31105 6.95122,-22.71685 8.66007,-21.30797c4.52215,3.72832 -4.89816,22.17666 -6.01513,28.274c-3.38357,18.47032 -19.27024,31.03568 -35.48386,28.06552c-16.21362,-2.97016 -26.61445,-20.35111 -23.23089,-38.82143z" fill="#ffffff" stroke="#000000" stroke-width="0" stroke-linecap="butt"/><path d="M218.04314,48.88614c1.03497,-5.64974 14.91231,-15.1611 26.48343,-13.0414c1.71281,0.31377 6.45745,-0.37061 7.61707,1.36998c2.16518,3.24994 0.33358,9.93954 2.78858,12.06049c2.45851,2.12398 4.82732,-0.56231 6.94318,0.09719c2.28432,0.712 4.21239,4.74017 3.90313,6.4284c-0.1304,0.71181 0.94711,10.47194 3.01893,9.72345c2.51066,-0.90702 4.48557,-11.27735 6.88193,-14.8131c2.4406,-3.60102 5.26335,-0.35014 3.40766,0.77006c-2.0913,1.26245 -2.75057,11.00516 -4.81829,17.89447c-0.81918,2.72938 -0.14016,4.98302 -2.47187,6.12643c-3.28551,1.61114 -3.19399,-4.44986 -6.41586,-8.90754c-7.35603,-10.17753 -19.47292,-27.04016 -22.05729,-27.51359c-0.37816,-0.06927 -3.39877,0.98961 -3.76377,0.8947c-10.80359,-2.80938 -22.51798,14.37557 -21.51683,8.91046z" fill="#c1c1c1" stroke="none" stroke-width="0" stroke-linecap="butt"/><path d="M244.4727,59.33635c12.11436,2.21922 21.02337,8.99462 19.89883,15.13329c-1.12454,6.13867 -11.85678,9.316 -23.97114,7.09678c-12.11436,-2.21922 -21.02337,-8.99462 -19.89883,-15.13329c1.12454,-6.13867 11.85678,-9.316 23.97114,-7.09678z" fill="#c1c1c1" stroke="none" stroke-width="0" stroke-linecap="butt"/><path d="M229.21396,40.65611c0.47287,-2.58132 -13.23959,19.77716 -12.30014,36.62856c0.66693,11.96317 15.16419,19.68427 18.51914,20.29886c8.08077,1.48031 17.50302,-6.05758 16.69444,-1.64372c-0.80857,4.41386 -8.0148,6.79198 -16.09557,5.31167c-4.34229,-0.79546 -20.36607,-6.33388 -21.04862,-21.80409c-0.28261,-6.40526 -1.6502,-15.22209 1.7834,-22.80082c3.70621,-8.18045 12.25317,-14.93046 12.44735,-15.99046z" fill="#c1c1c1" stroke="none" stroke-width="0" stroke-linecap="butt"/><path d="M248.56395,35.61276c6.65403,1.21895 3.53301,8.47061 7.67799,13.62306c0.43776,0.54417 5.26486,-2.36564 6.27325,0.19046c2.1264,5.39004 3.99579,19.00245 6.6347,18.04189c3.60176,-1.31105 6.95121,-22.71685 8.66007,-21.30797c4.52216,3.72831 -4.89815,22.17666 -6.01512,28.274c-3.38357,18.47032 -19.27023,31.03568 -35.48386,28.06552c-16.21362,-2.97016 -26.61445,-20.35111 -23.23089,-38.82143c3.38357,-18.47032 19.27023,-31.03568 35.48386,-28.06552z" fill="none" stroke="#000000" stroke-width="3.5" stroke-linecap="butt"/><path d="M260.27019,64.44338c4.56325,0.83594 7.33475,6.57806 6.19031,12.82537c-0.53538,2.92255 -5.47742,15.34335 -7.17401,17.10736c-1.9301,2.00677 0.50544,4.13879 -1.92309,3.69391c-2.06972,-0.37915 -8.50413,6.31177 -9.63845,4.32469c-1.3666,-2.39399 1.58517,-24.73938 2.21054,-28.15316c1.14444,-6.24731 5.77145,-10.6341 10.3347,-9.79816z" fill="#000000" stroke="#000000" stroke-width="3.5" stroke-linecap="butt"/><path d="M250.10193,94.63839l-6.78918,7.09275" fill="none" stroke="#000000" stroke-width="3.5" stroke-linecap="round"/><path d="M229.96456,59.72854c5.59542,1.02502 9.3166,6.30387 8.31148,11.79065c-1.00512,5.48678 -6.35591,9.10374 -11.95133,8.07871c-5.59542,-1.02502 -9.3166,-6.30387 -8.31148,-11.79065c1.00512,-5.48678 6.35591,-9.10374 11.95133,-8.07871z" fill="#ffffff" stroke="#000000" stroke-width="3.5" stroke-linecap="butt"/><path d="M225.9533,96.60942l1.39489,-13.16413" fill="none" stroke="#000000" stroke-width="3.5" stroke-linecap="round"/><path d="M234.89587,84.42129l-1.00907,5.50834" fill="none" stroke="#000000" stroke-width="3.5" stroke-linecap="round"/><path d="M243.64044,86.63319l-3.39819,13.00047" fill="none" stroke="#000000" stroke-width="3.5" stroke-linecap="round"/></g><g><g stroke-linecap="butt"><path d="M164.79237,201.23607c2.49453,-9.34866 11.42305,-15.08443 19.94239,-12.81118c8.51934,2.27323 13.40342,11.69466 10.9089,21.04332c-2.49453,9.34867 -11.42306,15.08442 -19.9424,12.81117c-8.51935,-2.27323 -13.40342,-11.69466 -10.90889,-21.04331z" fill="#ffffff" stroke="#000000" stroke-width="0"/><path d="M164.41432,207.96454c1.4082,-5.27747 2.34735,-20.43072 9.8866,-18.41899c1.26488,0.3375 -3.20167,5.58737 -4.03077,11.96395c-0.78644,6.04853 2.05573,13.20577 3.36565,14.73024c5.54031,6.44781 19.02839,-4.54234 18.08055,-0.99013c-1.40821,5.27747 -8.66154,7.92489 -16.20078,5.91316c-7.53924,-2.01173 -12.50943,-7.92078 -11.10123,-13.19825z" fill="#adadad" stroke="none" stroke-width="3.5"/><path d="M184.46625,189.29691c8.51935,2.27323 13.40342,11.69466 10.9089,21.04331c-2.49453,9.34867 -11.42303,15.08443 -19.94239,12.81118c-8.51935,-2.27323 -13.40342,-11.69466 -10.90889,-21.04332c2.49453,-9.34867 11.42303,-15.08443 19.94239,-12.81118z" fill="none" stroke="#000000" stroke-width="3.5"/></g><g data-paper-data="{&quot;index&quot;:null}"><path d="M187.57036,230.65872c3.73729,6.31132 4.26324,12.91024 1.17472,14.73913c-3.08852,1.82889 -8.62191,-1.80482 -12.35921,-8.11613c-1.99057,-3.36155 -2.09351,-17.05328 1.88206,-21.44797c3.48858,-3.85635 10.89769,1.40116 12.3412,0.54639c3.08852,-1.82889 -6.77607,7.96729 -3.03878,14.27859z" fill="#ffffff" stroke="#000000" stroke-width="0" stroke-linecap="butt"/><path d="M187.37523,227.48362c0.21224,4.55388 2.80735,8.11591 2.51199,11.92775c-0.31578,4.07515 -2.40843,5.675 -2.40843,5.675c-1.74568,1.03372 -4.41782,-0.25101 -5.9684,-2.86954c-1.55058,-2.61853 1.68447,-26.4484 3.43017,-27.48212c0.6406,-0.37934 4.89383,-0.51784 4.61887,3.23592c-0.13075,1.78503 -2.333,6.32003 -2.18418,9.51299z" fill="#adadad" stroke="none" stroke-width="3.5" stroke-linecap="butt"/><path d="M187.7879,230.40502c3.73729,6.31131 4.26323,12.91024 1.17473,14.73912c-3.08851,1.82888 -8.62192,-1.80483 -12.35921,-8.11613c-1.99057,-3.36155 -2.0935,-17.05328 1.88207,-21.44797c3.48858,-3.85635 10.89769,1.40116 12.3412,0.54638c3.08851,-1.82888 -6.77606,7.9673 -3.03877,14.27859z" fill="none" stroke="#000000" stroke-width="3.5" stroke-linecap="butt"/><path d="M175.677,229.36317l10.61526,-0.37473" fill="none" stroke="#000000" stroke-width="3.5" stroke-linecap="round"/></g><g data-paper-data="{&quot;index&quot;:null}"><path d="M159.71397,222.74201c-0.16542,7.33299 -3.20857,13.21192 -6.79705,13.13096c-3.58848,-0.08096 -6.36341,-6.09112 -6.19798,-13.4241c0.08811,-3.90571 7.24096,-15.58094 12.93912,-17.20862c5.00016,-1.42828 8.50843,6.95195 10.1856,6.98979c3.58848,0.08096 -9.96427,3.179 -10.12969,10.51197z" fill="#ffffff" stroke="#000000" stroke-width="0" stroke-linecap="butt"/><path d="M161.22736,219.94397c-2.22796,3.97732 -1.90899,8.37288 -4.1754,11.45197c-2.42296,3.29178 -5.04508,3.54305 -5.04508,3.54305c-2.02827,-0.04576 -3.61688,-2.54921 -3.54825,-5.59161c0.06863,-3.04241 15.41566,-21.55719 17.44394,-21.51144c0.74431,0.01679 4.42746,2.14836 2.20909,5.18894c-1.0549,1.4459 -5.32217,4.13038 -6.8843,6.9191z" fill="#adadad" stroke="none" stroke-width="3.5" stroke-linecap="butt"/><path d="M160.03276,222.64173c-0.16541,7.33298 -3.20856,13.21191 -6.79703,13.13096c-3.58847,-0.08095 -6.36341,-6.09113 -6.19799,-13.42411c0.08811,-3.90571 7.24097,-15.58094 12.93912,-17.20862c5.00016,-1.42828 8.50842,6.95195 10.1856,6.98979c3.58847,0.08095 -9.96428,3.179 -10.12969,10.51198z" fill="none" stroke="#000000" stroke-width="3.5" stroke-linecap="butt"/><path d="M150.30464,215.35319l9.20782,5.29532" fill="none" stroke="#000000" stroke-width="3.5" stroke-linecap="round"/></g><g data-paper-data="{&quot;index&quot;:null}"><path d="M171.7367,228.90312c1.82943,7.10304 0.49465,13.58693 -2.98131,14.48218c-3.47596,0.89525 -7.77681,-4.13714 -9.60624,-11.24018c-0.97439,-3.78323 2.74416,-16.96075 7.78737,-20.07273c4.42543,-2.73076 10.07488,4.38401 11.69948,3.96559c3.47596,-0.89525 -8.72874,5.76211 -6.89931,12.86513z" fill="#ffffff" stroke="#000000" stroke-width="0" stroke-linecap="butt"/><path d="M172.43457,225.79952c-1.06585,4.43248 0.43323,8.5768 -0.91322,12.15513c-1.43945,3.82551 -3.89518,4.77847 -3.89518,4.77847c-1.96467,0.50601 -4.17266,-1.4728 -4.93168,-4.41981c-0.75902,-2.947 8.99181,-24.92995 10.95649,-25.43597c0.72097,-0.18569 4.84415,0.86715 3.5335,4.39539c-0.62326,1.67779 -4.00259,5.41895 -4.74991,8.52679z" fill="#adadad" stroke="none" stroke-width="3.5" stroke-linecap="butt"/><path d="M172.01635,228.72014c1.82943,7.10304 0.49465,13.58693 -2.9813,14.48218c-3.47595,0.89525 -7.77682,-4.13715 -9.60625,-11.24018c-0.97439,-3.78323 2.74417,-16.96075 7.78738,-20.07272c4.42543,-2.73076 10.07488,4.38401 11.69947,3.96559c3.47595,-0.89525 -8.72873,5.7621 -6.89931,12.86514z" fill="none" stroke="#000000" stroke-width="3.5" stroke-linecap="butt"/><path d="M170.97498,226.94271l-10.2988,-2.59978" fill="none" stroke="#000000" stroke-width="3.5" stroke-linecap="round"/></g><g><path d="M194.35823,227.43519c1.89102,-7.08688 -10.25544,-13.84993 -6.78737,-12.92454c1.62089,0.4325 7.3319,-6.63296 11.73345,-3.86388c5.01601,3.15564 8.62004,16.36493 7.61284,20.13957c-1.89102,7.08689 -6.23539,12.08176 -9.70345,11.15637c-3.46806,-0.92539 -4.7465,-7.42061 -2.85548,-14.50752z" fill="#ffffff" stroke="#000000" stroke-width="0" stroke-linecap="butt"/><path d="M189.01162,215.75796c-1.27998,-3.53949 2.85219,-4.55649 3.57152,-4.36455c0.96178,0.25663 3.75308,5.69976 6.25435,11.52535c2.59654,6.04749 4.88055,12.50714 4.48093,14.00476c-0.78457,2.9403 -3.00965,4.89987 -4.96985,4.37683c0,0 -2.44736,-0.97423 -3.85355,-4.81209c-1.31534,-3.58989 0.21965,-7.72105 -0.80768,-12.16261c-0.72031,-3.11422 -4.06705,-6.88456 -4.6757,-8.5677z" fill="#adadad" stroke="none" stroke-width="3.5" stroke-linecap="butt"/><path d="M187.2928,214.32523c1.62089,0.4325 7.3319,-6.63296 11.73346,-3.86388c5.01601,3.15564 8.62004,16.36493 7.61284,20.13956c-1.89102,7.08688 -6.2354,12.08177 -9.70345,11.15638c-3.46805,-0.92539 -4.74649,-7.42064 -2.85547,-14.50752c1.89102,-7.08688 -10.25543,-13.84993 -6.78738,-12.92454z" fill="none" stroke="#000000" stroke-width="3.5" stroke-linecap="butt"/><path d="M205.45791,222.97119l-10.32099,2.51029" fill="none" stroke="#000000" stroke-width="3.5" stroke-linecap="round"/></g></g></g></g></svg>