<svg version="1.1" xmlns="http://www.w3.org/2000/svg" xmlns:xlink="http://www.w3.org/1999/xlink" width="97.90329" height="158.871" viewBox="0,0,97.90329,158.871"><g transform="translate(-198.85603,-148.68047)"><g data-paper-data="{&quot;isPaintingLayer&quot;:true}" fill-rule="nonzero" stroke-linejoin="miter" stroke-miterlimit="10" stroke-dasharray="" stroke-dashoffset="0" style="mix-blend-mode: normal"><g fill="none" stroke="#000000" stroke-width="2" stroke-linecap="round"><path d="M281.24507,154.67547l1.76294,99.01844"/><g><g><path d="M218.36689,234.88922l-18.51086,-83.4458"/><path d="M201.91279,224.6054l10.57764,29.38233"/></g><path d="M240.69746,149.68047v27.32556"/></g></g><g stroke-linecap="butt"><path d="M252.23381,257.20564c-2.67573,-0.22956 -4.53466,-4.03083 -4.15206,-8.49037c0.3826,-4.45954 2.86186,-7.88862 5.53759,-7.65906c2.67573,0.22956 4.53467,4.03083 4.15207,8.49037c-0.3826,4.45954 -2.86186,7.88862 -5.53759,7.65906z" fill="none" stroke="#000000" stroke-width="3"/><path d="M251.43507,267.43519c-2.6168,-0.60379 -3.92235,-4.62882 -2.91603,-8.99015c1.00632,-4.36133 3.94343,-7.40742 6.56023,-6.80363c2.6168,0.60379 3.92235,4.62882 2.91603,8.99015c-1.00632,4.36133 -3.94343,7.40743 -6.56023,6.80364z" fill="none" stroke="#000000" stroke-width="3"/><path d="M249.75565,276.68394c-2.65895,-0.37704 -4.30504,-4.27522 -3.67664,-8.70681c0.6284,-4.43159 3.29333,-7.71845 5.95229,-7.34141c2.65895,0.37704 4.30505,4.27521 3.67665,8.7068c-0.6284,4.43159 -3.29334,7.71845 -5.95229,7.34142z" fill="none" stroke="#000000" stroke-width="3"/><path d="M247.8949,287.86985c-2.57944,-0.74744 -3.66063,-4.83845 -2.41489,-9.13752c1.24574,-4.29908 4.34666,-7.17824 6.9261,-6.4308c2.57944,0.74744 3.66062,4.83845 2.41489,9.13752c-1.24574,4.29908 -4.34666,7.17824 -6.9261,6.4308z" fill="none" stroke="#000000" stroke-width="3"/><g><path d="M266.14699,296.84653c0.42917,6.06463 -12.16672,8.64711 -18.04532,9.06312c-5.8786,0.41601 -10.99206,-4.16311 -11.42123,-10.22773c-0.42917,-6.06463 3.98846,-11.31823 9.86706,-11.73423c5.8786,-0.41601 19.17032,6.83422 19.59949,12.89884z" fill="#00ffe6" stroke="#000000" stroke-width="0"/><path d="M266.37445,298.11453c0.22117,3.12533 -13.0259,6.47364 -18.60685,6.86858c-5.58095,0.39494 -10.28449,-1.81847 -10.50566,-4.9438c-0.13848,-1.95681 10.16534,3.32599 14.85242,0.98062c1.58088,-0.79106 11.45989,-0.21016 9.87755,-4.63048c-1.21917,-3.40579 -14.03123,-12.13784 -13.12315,-12.20211c5.58095,-0.39494 17.28452,10.80185 17.50569,13.92718z" fill="#00d6c0" stroke="none" stroke-width="0"/><path d="M265.9178,297.40209c0.42917,6.06463 -12.06059,8.23337 -17.93919,8.64938c-5.8786,0.41601 -10.99205,-4.16311 -11.42123,-10.22773c-0.42917,-6.06463 3.98846,-11.31822 9.86705,-11.73423c5.8786,-0.41601 19.06419,7.24796 19.49336,13.31258z" fill="none" stroke="#000000" stroke-width="3"/></g></g><g stroke-linecap="butt"><path d="M236.31632,259.13101c2.66117,0.3611 5.30635,-2.94167 5.90819,-7.37695c0.60184,-4.43528 -1.06757,-8.32351 -3.72874,-8.68462c-2.66117,-0.3611 -5.30635,2.94167 -5.90819,7.37695c-0.60184,4.43528 1.06757,8.32351 3.72874,8.68462z" fill="none" stroke="#000000" stroke-width="3"/><path d="M234.8588,269.28766c2.6855,-0.01695 4.83963,-3.65908 4.81137,-8.13492c-0.02826,-4.47583 -2.22819,-8.09048 -4.91369,-8.07352c-2.6855,0.01695 -4.83962,3.65908 -4.81136,8.13492c0.02826,4.47583 2.22818,8.09048 4.91369,8.07352z" fill="none" stroke="#000000" stroke-width="3"/><path d="M233.54572,278.62566c2.68087,-0.15849 4.64001,-3.90911 4.37586,-8.37723c-0.26415,-4.46812 -2.65157,-7.96176 -5.33244,-7.80327c-2.68087,0.15849 -4.64001,3.90911 -4.37586,8.37723c0.26415,4.46812 2.65157,7.96177 5.33244,7.80328z" fill="none" stroke="#000000" stroke-width="3"/><path d="M234.48615,289.92623c2.6319,-0.53415 4.04378,-4.52313 3.15352,-8.90962c-0.89025,-4.3865 -3.74552,-7.50944 -6.37742,-6.97529c-2.6319,0.53415 -4.04378,4.52313 -3.15352,8.90962c0.89025,4.3865 3.74552,7.50944 6.37742,6.97529z" fill="none" stroke="#000000" stroke-width="3"/><g><path d="M217.80356,301.07196c1.2445,5.95106 14.06667,4.99304 19.83518,3.78671c5.76851,-1.20633 9.43594,-7.00854 8.19144,-12.9596c-1.2445,-5.95106 -6.92968,-9.79743 -12.69819,-8.5911c-5.76851,1.20633 -16.57294,11.81293 -15.32843,17.76399z" fill="#00ffe6" stroke="#000000" stroke-width="0"/><path d="M217.93128,302.35385c0.64134,3.0668 14.29918,2.6675 19.77562,1.52225c5.47644,-1.14525 9.39606,-4.5598 8.75472,-7.6266c-0.40155,-1.92016 -8.86946,5.97738 -14.01907,5.00216c-1.73689,-0.32893 -11.0811,2.9296 -10.76697,-1.75488c0.24203,-3.60932 10.18009,-15.51027 9.28902,-15.32393c-5.47644,1.14525 -13.67465,15.11419 -13.03331,18.18099z" fill="#00d6c0" stroke="none" stroke-width="0"/><path d="M218.17585,301.54373c1.2445,5.95106 13.85151,4.62405 19.62003,3.41772c5.76851,-1.20633 9.43594,-7.00854 8.19144,-12.9596c-1.2445,-5.95106 -6.92968,-9.79743 -12.69819,-8.5911c-5.76851,1.20633 -16.35778,12.18192 -15.11327,18.13298z" fill="none" stroke="#000000" stroke-width="3"/></g></g><g><path d="M244.59478,226.29117c0,7.49717 2.96324,13.57484 6.61858,13.57484c2.31359,0 7.59169,-1.7594 8.77489,-5.44781c0.68619,-2.13905 -2.15632,-5.37509 -2.15632,-8.12703c0,-2.96668 3.45313,-6.65659 2.66586,-8.8901c-1.20225,-3.41085 -7.07554,-4.68474 -9.28444,-4.68474c-3.65534,0 -6.61858,6.07766 -6.61858,13.57483z" fill="#ffffff" stroke="#000000" stroke-width="0" stroke-linecap="butt"/><path d="M239.72986,234.866c0,4.02833 4.92865,7.29394 11.00845,7.29394c6.0798,0 9.79279,-5.42677 9.79279,-9.45511c0,-1.59447 -3.81716,-1.8088 -5.86881,-5.56618c-3.13171,-5.73543 -5.38342,-15.23505 -9.05675,-15.23505c-6.07979,0 -5.87568,18.93407 -5.87568,22.9624z" fill="#cecece" stroke="none" stroke-width="0" stroke-linecap="butt"/><path d="M244.59248,226.69409c0,7.49717 2.96323,13.57484 6.61857,13.57484c2.31359,0 7.59169,-1.7594 8.77489,-5.44781c0.68619,-2.13905 -2.15632,-5.37509 -2.15632,-8.12703c0,-2.96668 3.45313,-6.65659 2.66586,-8.8901c-1.20225,-3.41085 -7.07554,-4.68473 -9.28444,-4.68473c-3.65534,0 -6.61857,6.07765 -6.61857,13.57483z" fill="none" stroke="#000000" stroke-width="3" stroke-linecap="butt"/><path d="M229.60169,222.57666c0,7.86673 -1.46756,16.88693 1.91268,21.33081c0.16129,0.21204 0.19024,0.28321 0.35689,0.48346c2.30229,2.76641 8.88811,2.49887 11.91309,2.49887c4.70767,0 12.52661,-0.14997 15.1063,-6.20274c1.71253,-4.01813 -8.0825,-9.91639 -8.0825,-15.27386c0,-2.01699 -0.44651,-5.78236 0.79992,-9.10592c0.91108,-2.42935 3.12694,-2.03394 4.22821,-4.25143c1.59097,-3.20357 1.88351,-8.77694 1.17552,-10.33729c-2.59496,-5.71902 -8.67361,-3.45502 -13.22744,-3.45502c-4.03763,0 -12.1386,-0.2143 -14.72151,4.42773c-2.42784,4.36336 0.53885,13.37928 0.53885,19.8854z" fill="#00ffe6" stroke="#000000" stroke-width="0" stroke-linecap="butt"/><path d="M229.46431,238.85065c0,5.18461 6.59169,9.38757 14.72295,9.38757c8.13126,0 14.72295,-4.20297 14.72295,-9.38757c0,-1.44576 1.1083,-1.76631 0.1927,-1.6716c-0.94486,0.09774 -4.1394,-8.03257 -5.89982,-4.04039c-2.65116,6.01215 -5.49195,8.07578 -9.01583,8.07578c-0.20655,0 -7.30765,-2.23491 -9.47125,-7.8491c-3.2699,-8.4849 -2.0265,-33.31776 -2.33033,-33.29767c-1.37088,0.09062 -4.36884,2.63504 -4.71573,5.53144c-0.51613,4.30955 2.04954,10.05412 2.06929,14.95024c0.03872,9.59867 -0.27493,15.68171 -0.27493,18.30131z" fill="#00d6c0" stroke="none" stroke-width="0" stroke-linecap="butt"/><path d="M229.86953,222.84451c0,7.86673 -1.46756,16.88694 1.91268,21.33081c0.16129,0.21204 0.19025,0.2832 0.3569,0.48345c2.30229,2.76641 8.88811,2.49887 11.91309,2.49887c4.70767,0 12.52661,-0.14997 15.10629,-6.20274c1.71253,-4.01813 -8.35265,-10.3216 -8.35265,-15.67907c0,-2.03752 -1.06511,-6.46752 0.24344,-9.76175c0.72998,-1.83769 3.76959,0.58085 4.77534,-1.06153c2.16526,-3.53585 2.26843,-10.67347 1.45502,-12.46615c-2.59496,-5.71902 -8.67361,-3.45502 -13.22744,-3.45502c-4.03763,0 -12.1386,-0.2143 -14.72151,4.42773c-2.42784,4.36336 0.53885,13.37928 0.53885,19.8854z" fill="none" stroke="#000000" stroke-width="3" stroke-linecap="butt"/><path d="M231.35533,203.25893l2.29624,1.75594l1.4858,3.5119l-0.94551,2.97161l-3.78205,8.23945" fill="none" stroke="#000000" stroke-width="1.5" stroke-linecap="round"/><path d="M231.35533,215.14535l3.5119,1.62087" fill="none" stroke="#000000" stroke-width="1.5" stroke-linecap="round"/><path d="M232.30084,212.71404l3.5119,-0.13507" fill="none" stroke="#000000" stroke-width="1.5" stroke-linecap="round"/><path d="M233.38143,203.394l-1.89102,2.02609" fill="none" stroke="#000000" stroke-width="1.5" stroke-linecap="round"/><path d="M236.35303,205.96039l-3.24175,1.75594" fill="none" stroke="#000000" stroke-width="1.5" stroke-linecap="round"/><path d="M232.16577,210.4178l3.64697,-0.67536" fill="none" stroke="#000000" stroke-width="1.5" stroke-linecap="round"/><path d="M254.72296,213.79462l-4.72756,-0.40522l-1.21565,-0.94551l0.13507,-1.62088l0.81044,-2.16117l0.54029,-1.35073l2.02609,-1.62088l-2.02609,-1.62087l-1.75595,0.94551l-0.94551,2.16117l-0.81044,1.35073h-2.43131l-2.16117,-1.75595l0.94551,-2.56638l1.75594,-0.94551l0.40522,-2.02609" fill="none" stroke="#000000" stroke-width="1.5" stroke-linecap="round"/><path d="M241.35073,205.28503l2.83653,-0.27015" fill="none" stroke="#000000" stroke-width="1.5" stroke-linecap="round"/><path d="M242.70146,209.87751l2.02609,-3.24175" fill="none" stroke="#000000" stroke-width="1.5" stroke-linecap="round"/><path d="M247.15887,209.60736l-0.94551,-2.56639" fill="none" stroke="#000000" stroke-width="1.5" stroke-linecap="round"/><path d="M247.0238,204.20444l2.16116,2.02609" fill="none" stroke="#000000" stroke-width="1.5" stroke-linecap="round"/><path d="M253.10208,203.79922l-2.02609,1.75595" fill="none" stroke="#000000" stroke-width="1.5" stroke-linecap="round"/><path d="M251.75135,207.71634h-2.29624" fill="none" stroke="#000000" stroke-width="1.5" stroke-linecap="round"/><path d="M250.94091,209.47229l-2.97161,1.35073" fill="none" stroke="#000000" stroke-width="1.5" stroke-linecap="round"/><path d="M250.40062,211.76853l-1.08059,1.35073" fill="none" stroke="#000000" stroke-width="1.5" stroke-linecap="round"/><path d="M230.95012,235.40629l1.4858,-1.4858l2.56638,-0.13508l2.70146,-1.21565h2.29624l0.81044,-2.29624l2.97161,-1.21565v-2.9716l5.13277,-1.21566" fill="none" stroke="#000000" stroke-width="1.5" stroke-linecap="round"/><path d="M233.78665,231.8944l0.27015,3.78205" fill="none" stroke="#000000" stroke-width="1.5" stroke-linecap="round"/><path d="M236.08289,231.08396l1.21565,3.91711" fill="none" stroke="#000000" stroke-width="1.5" stroke-linecap="round"/><path d="M239.05449,229.73323l2.16117,4.86263" fill="none" stroke="#000000" stroke-width="1.5" stroke-linecap="round"/><path d="M241.75595,227.03177l2.83653,3.37682" fill="none" stroke="#000000" stroke-width="1.5" stroke-linecap="round"/><path d="M244.72756,223.51987l1.21565,3.5119" fill="none" stroke="#000000" stroke-width="1.5" stroke-linecap="round"/><path d="M248.23945,223.65495l1.89102,3.78205" fill="none" stroke="#000000" stroke-width="1.5" stroke-linecap="round"/></g><path d="M250.67077,163.68256l3.5119,2.43131" fill="none" stroke="#000000" stroke-width="1.5" stroke-linecap="round"/><g><g data-paper-data="{&quot;index&quot;:null}" stroke-linecap="butt"><path d="M267.97899,188.40551c0,2.76015 1.57892,5.13277 -2.97161,5.13277c-4.55052,0 -13.5073,-2.37262 -13.5073,-5.13277c0,-2.76015 8.8217,-5.94321 13.37222,-5.94321c4.55052,0 3.10668,3.18305 3.10668,5.94321z" fill="#808080" stroke="#000000" stroke-width="0"/><path d="M268.11636,192.11772c0,1.30548 -1.84844,1.01305 -4.79509,1.01305c-2.94665,0 -5.33539,-1.0583 -5.33539,-2.36378c0,-0.66739 4.51986,0.52423 6.5591,-1.32046c1.9497,-1.76369 1.38822,-6.58131 2.82847,-6.58131c2.94665,0 0.74291,7.94702 0.74291,9.2525z" fill="#5f5f5f" stroke="none" stroke-width="0"/><path d="M267.84621,188.13306c0,2.76015 1.57892,5.13278 -2.9716,5.13278c-4.55052,0 -13.5073,-2.37262 -13.5073,-5.13278c0,-2.76015 8.8217,-5.94321 13.37222,-5.94321c4.55052,0 3.10668,3.18305 3.10668,5.94321z" fill="none" stroke="#000000" stroke-width="2.5"/></g><g stroke-linecap="butt"><path d="M214.33844,193.80612c0,2.76015 -1.57892,5.13278 2.97161,5.13278c4.55052,0 13.5073,-2.37262 13.5073,-5.13278c0,-2.76015 -8.8217,-5.94321 -13.37222,-5.94321c-4.55052,0 -3.10668,3.18305 -3.10668,5.94321z" fill="#808080" stroke="#000000" stroke-width="0"/><path d="M214.20107,197.51833c0,1.30548 1.84844,1.01305 4.79509,1.01305c2.94665,0 5.33539,-1.0583 5.33539,-2.36378c0,-0.66739 -4.51986,0.52423 -6.55909,-1.32045c-1.9497,-1.76369 -1.38822,-6.58132 -2.82847,-6.58132c-2.94665,0 -0.74291,7.94702 -0.74291,9.2525z" fill="#5f5f5f" stroke="none" stroke-width="0"/><path d="M214.47121,193.53368c0,2.76015 -1.57892,5.13278 2.9716,5.13278c4.55052,0 13.5073,-2.37262 13.5073,-5.13278c0,-2.76015 -8.8217,-5.94321 -13.37223,-5.94321c-4.55052,0 -3.10668,3.18305 -3.10668,5.94321z" fill="none" stroke="#000000" stroke-width="2.5"/></g><path d="M231.10882,159.99721c-11.19552,4.97638 -16.29056,17.96608 -11.38009,29.01332c4.91046,11.04724 17.96695,15.96864 29.16246,10.99226c11.19552,-4.97638 16.29056,-17.96608 11.38009,-29.01332c-4.91046,-11.04723 -17.96695,-15.96864 -29.16246,-10.99226z" fill="#00ffe6" stroke="#000000" stroke-width="0" stroke-linecap="butt"/><path d="M222.6379,179.57757c0.3543,3.90037 7.41697,6.4468 15.77492,5.68759c8.35795,-0.75921 14.84618,-4.53655 14.49188,-8.43693c-0.3543,-3.90037 -7.41697,-6.44679 -15.77491,-5.68758c-8.35795,0.75921 -14.84619,4.53654 -14.49189,8.43692z" fill="#00d6c0" stroke="none" stroke-width="0" stroke-linecap="butt"/><path d="M222.95825,191.75293c0,5.0305 7.23521,9.10852 16.16028,9.10852c8.92507,0 20.56763,-5.84096 20.56763,-10.87146c0,-3.64984 2.50236,-4.98987 1.75741,-9.16002c-0.2818,-1.57748 0.98596,-9.35084 -1.46359,-9.35084c-4.55433,0 -9.10575,12.19626 -17.36358,16.75224c-7.92497,4.37234 -19.65815,1.05805 -19.65815,3.52156z" fill="#00d6c0" stroke="none" stroke-width="0" stroke-linecap="butt"/><path d="M231.10882,159.99721c-11.19552,4.97638 -16.29056,17.96608 -11.38009,29.01332c4.91046,11.04724 17.96695,15.96864 29.16246,10.99226c11.19552,-4.97638 16.29056,-17.96608 11.38009,-29.01332c-4.91046,-11.04723 -17.96695,-15.96864 -29.16246,-10.99226z" fill="none" stroke="#000000" stroke-width="3" stroke-linecap="butt"/><path d="M224.13355,192.34058l1.76294,-2.93823l10.57763,3.52588l2.93823,-4.11353l9.40234,3.23206l1.17529,-5.87646l4.99499,1.17529l6.75794,-9.10852" fill="none" stroke="#000000" stroke-width="3" stroke-linecap="round"/><path d="M221.90023,179.75624c0,4.17753 3.26561,7.56409 7.29394,7.56409c4.02833,0 7.29394,-3.38656 7.29394,-7.56409c0,-4.17753 -3.26561,-7.56409 -7.29394,-7.56409c-4.02833,0 -7.29394,3.38656 -7.29394,7.56409z" fill="#ff0000" stroke="#000000" stroke-width="3" stroke-linecap="butt"/><path d="M240.5426,176.78693c0,4.17753 2.96324,7.56409 6.61857,7.56409c3.65534,0 6.61857,-3.38656 6.61857,-7.56409c0,-4.17753 -2.96324,-7.56409 -6.61857,-7.56409c-3.65534,0 -6.61857,3.38656 -6.61857,7.56409z" fill="#ff0000" stroke="#000000" stroke-width="3" stroke-linecap="butt"/><path d="M229.46431,172.19215l-4.86263,-8.37453" fill="none" stroke="#000000" stroke-width="1.5" stroke-linecap="round"/><path d="M228.38373,166.11387l-3.64697,2.56639" fill="none" stroke="#000000" stroke-width="1.5" stroke-linecap="round"/><path d="M225.5472,170.16606l4.32234,-1.4858" fill="none" stroke="#000000" stroke-width="1.5" stroke-linecap="round"/><path d="M249.18496,169.76084l3.91712,-5.94321" fill="none" stroke="#000000" stroke-width="1.5" stroke-linecap="round"/><path d="M248.37453,165.4385l4.4574,2.83653" fill="none" stroke="#000000" stroke-width="1.5" stroke-linecap="round"/><path d="M233.5165,187.18525l1.08058,4.4574" fill="none" stroke="#000000" stroke-width="1.5" stroke-linecap="round"/><path d="M236.08289,188.40091l-3.5119,1.35073" fill="none" stroke="#000000" stroke-width="1.5" stroke-linecap="round"/><path d="M246.75365,185.15916l0.40521,5.53799" fill="none" stroke="#000000" stroke-width="1.5" stroke-linecap="round"/><path d="M245.13278,187.18525l3.91711,-1.08058" fill="none" stroke="#000000" stroke-width="1.5" stroke-linecap="round"/></g><g stroke-linecap="butt"><path d="M222.64943,219.32935c2.59495,0.69168 5.63311,-2.25365 6.78591,-6.57857c1.1528,-4.32492 -0.0163,-8.39168 -2.61125,-9.08336c-2.59495,-0.69168 -5.6331,2.25365 -6.7859,6.57857c-1.1528,4.32492 0.01629,8.39168 2.61125,9.08336z" fill="none" stroke="#000000" stroke-width="3"/><path d="M219.99239,230.35329c2.66646,0.31965 5.25994,-3.02388 5.79269,-7.46799c0.53275,-4.44411 -1.19697,-8.3059 -3.86343,-8.62555c-2.66646,-0.31965 -5.25994,3.02389 -5.79269,7.46799c-0.53275,4.44411 1.19696,8.30589 3.86343,8.62554z" fill="none" stroke="#000000" stroke-width="3"/><path d="M217.48915,238.38802c2.68278,0.12193 5.02234,-3.40396 5.22554,-7.87526c0.2032,-4.47131 -1.80689,-8.19486 -4.48967,-8.31678c-2.68278,-0.12193 -5.02235,3.40396 -5.22555,7.87526c-0.2032,4.47131 1.8069,8.19486 4.48968,8.31678z" fill="none" stroke="#000000" stroke-width="3"/><path d="M217.24607,249.72504c2.67325,-0.2568 4.49339,-4.0768 4.06539,-8.53221c-0.428,-4.45541 -2.94205,-7.85907 -5.6153,-7.60228c-2.67325,0.2568 -4.49339,4.0768 -4.06539,8.53222c0.428,4.45541 2.94205,7.85907 5.6153,7.60227z" fill="none" stroke="#000000" stroke-width="3"/><path d="M205.28856,254.79157c0,6.07979 4.77746,11.00844 10.67076,11.00844c5.8933,0 10.67076,-4.92865 10.67076,-11.00844c0,-6.07979 -4.77746,-11.00844 -10.67076,-11.00844c-5.8933,0 -10.67076,4.92865 -10.67076,11.00844z" fill="#00ffe6" stroke="#000000" stroke-width="0"/><path d="M206.09669,259.17913c0,3.13315 4.53556,5.67307 10.13047,5.67307c5.59491,0 10.13047,-2.53992 10.13047,-5.67307c0,-1.9617 -9.9052,4.03528 -14.74615,2.02661c-1.63278,-0.6775 -2.26118,-5.88419 -0.99481,-10.40517c0.97572,-3.48335 3.95445,-6.61453 3.04411,-6.61453c-5.59491,0 -7.56409,11.85995 -7.56409,14.99309z" fill="#00d6c0" stroke="none" stroke-width="0"/><path d="M205.42133,254.92434c0,6.0798 4.77747,11.00844 10.67077,11.00844c5.8933,0 10.67076,-4.92865 10.67076,-11.00844c0,-6.07979 -4.77746,-11.00845 -10.67076,-11.00845c-5.8933,0 -10.67077,4.92865 -10.67077,11.00845z" fill="none" stroke="#000000" stroke-width="3"/></g><g stroke-linecap="butt"><path d="M265.06421,221.49282c-2.59496,0.69168 -5.6331,-2.25365 -6.78591,-6.57857c-1.1528,-4.32492 0.01629,-8.39168 2.61125,-9.08336c2.59496,-0.69168 5.63311,2.25365 6.78591,6.57857c1.1528,4.32492 -0.01629,8.39168 -2.61125,9.08336z" fill="none" stroke="#000000" stroke-width="3"/><path d="M268.0174,232.54678c-2.63603,0.51335 -5.46656,-2.63203 -6.32215,-7.02542c-0.85559,-4.39339 0.58775,-8.37109 3.22378,-8.88444c2.63603,-0.51335 5.46655,2.63203 6.32214,7.02542c0.85559,4.39339 -0.58774,8.37109 -3.22377,8.88445z" fill="none" stroke="#000000" stroke-width="3"/><path d="M281.44129,235.54031c-1.10861,2.44606 -5.31219,2.93113 -9.38894,1.08344c-4.07675,-1.84769 -6.48291,-5.32845 -5.3743,-7.7745c1.10861,-2.44606 5.31219,-2.93113 9.38894,-1.08344c4.07675,1.84769 6.48292,5.32845 5.37431,7.7745z" fill="none" stroke="#000000" stroke-width="3"/><path d="M284.18613,247.90387c-2.25551,0.90174 -5.49463,-1.70696 -7.23478,-5.82669c-1.74015,-4.11973 -1.32237,-8.19043 0.93314,-9.09217c2.25551,-0.90174 5.49463,1.70696 7.23478,5.82669c1.74015,4.11973 1.32237,8.19043 -0.93314,9.09217z" fill="none" stroke="#000000" stroke-width="3"/><path d="M295.39209,251.82226c0,6.0798 -4.77747,11.00845 -10.67077,11.00845c-5.8933,0 -10.67076,-4.92865 -10.67076,-11.00845c0,-6.07979 4.77746,-11.00844 10.67076,-11.00844c5.8933,0 10.67077,4.92865 10.67077,11.00844z" fill="#00ffe6" stroke="#000000" stroke-width="0"/><path d="M294.58395,256.20983c0,3.13315 -4.53557,5.67306 -10.13047,5.67306c-5.5949,0 -10.13047,-2.53992 -10.13047,-5.67306c0,-1.9617 9.90519,4.03527 14.74615,2.02661c1.63278,-0.6775 2.26118,-5.88418 0.99481,-10.40517c-0.97571,-3.48335 -3.95445,-6.61453 -3.04411,-6.61453c5.5949,0 7.56409,11.85995 7.56409,14.9931z" fill="#00d6c0" stroke="none" stroke-width="0"/><path d="M295.25932,251.95503c0,6.0798 -4.77747,11.00845 -10.67077,11.00845c-5.8933,0 -10.67076,-4.92865 -10.67076,-11.00845c0,-6.07979 4.77746,-11.00844 10.67076,-11.00844c5.8933,0 10.67077,4.92865 10.67077,11.00844z" fill="none" stroke="#000000" stroke-width="3"/></g></g></g></svg>