<svg version="1.1" xmlns="http://www.w3.org/2000/svg" xmlns:xlink="http://www.w3.org/1999/xlink" width="90.594" height="61.69123" viewBox="0,0,90.594,61.69123"><defs><linearGradient x1="240" y1="131.68168" x2="240" y2="192.84565" gradientUnits="userSpaceOnUse" id="color-1"><stop offset="0" stop-color="#272727"/><stop offset="1" stop-color="#1d1d1d"/></linearGradient></defs><g transform="translate(-194.703,-131.15442)"><g data-paper-data="{&quot;isPaintingLayer&quot;:true}" fill-rule="nonzero" stroke="none" stroke-linecap="butt" stroke-linejoin="miter" stroke-miterlimit="10" stroke-dasharray="" stroke-dashoffset="0" style="mix-blend-mode: normal"><g><path d="M195.12048,192.84565l-0.41748,-47.71842l78.90445,-13.97281l11.68955,51.673c0,0 -26.96604,5.27275 -28.38891,5.27275c-8.19438,0 -61.78762,4.74548 -61.78762,4.74548z" fill="url(#color-1)" stroke-width="NaN"/><path d="M220.35215,174.65098l13.8504,-26.5962l26.39111,27.23453l-23.25541,1.1456z" fill="#722020" stroke-width="0"/><path d="M237.70384,166.73623c2.76684,0 5.00981,1.52758 5.00981,3.41195c0,1.88437 -2.24297,3.41195 -5.00981,3.41195c-2.76684,0 -5.00981,-1.52758 -5.00981,-3.41195c0,-1.88437 2.24297,-3.41195 5.00981,-3.41195z" fill="#ffffff" stroke-width="0"/><path d="M236.45138,154.55067c1.61399,0 2.92239,2.45505 2.92239,5.48349c0,3.02844 -1.3084,5.48349 -2.92239,5.48349c-1.61398,0 -2.92238,-2.45505 -2.92238,-5.48349c0,-3.02844 1.30839,-5.48349 2.92238,-5.48349z" fill="#ffffff" stroke-width="0"/></g></g></g></svg>