<svg version="1.1" xmlns="http://www.w3.org/2000/svg" xmlns:xlink="http://www.w3.org/1999/xlink" width="322.6448" height="281" viewBox="0,0,322.6448,281"><g transform="translate(-85,-39.5)"><g data-paper-data="{&quot;isPaintingLayer&quot;:true}" fill-rule="nonzero" stroke-linecap="butt" stroke-linejoin="miter" stroke-miterlimit="10" stroke-dasharray="" stroke-dashoffset="0" style="mix-blend-mode: normal"><path d="M87,318.5v-277h306v277z" fill="#313131" stroke="#000000" stroke-width="0"/><path d="M85.5,213.5c0,39.48836 67.38115,71.5 150.5,71.5c83.11885,0 150.5,-32.01164 150.5,-71.5c0,-25.97099 -13.53281,53.01787 -11.5278,30.72232c0.7578,-8.42672 16.34305,-36.9202 17.7603,-73.25226c0.53444,-13.70061 5.05878,-61.97006 -2.7325,-61.97006c-35.48459,0 -86.16824,46.84872 -144.06802,63.50189c-77.72427,22.35509 -160.43198,18.36788 -160.43198,40.99811z" fill="#1e1e1e" stroke="none" stroke-width="0"/><path d="M156.64581,199.84656v-90h172.5v90z" fill="#060606" stroke="#000000" stroke-width="4"/><path d="M364.5,176v-60l30,-1l-1,54z" fill="#000000" stroke="none" stroke-width="0"/><path d="M89.5,314v-93l300,-52l-3,145z" fill="#858585" stroke="none" stroke-width="0"/><path d="M87.5,224.5c0,18.50154 31.92025,-1.5 93.5,-1.5c7.24212,0 35.05619,-3.89405 60.14704,0.1967c33.77488,5.50657 66.67529,19.3916 76.27262,19.04221c29.83081,-1.086 28.30752,-26.86105 17.21875,-38.50009c-5.22868,-5.48814 -21.13841,3.05395 -21.13841,-1.23881c0,-18.50154 140.07975,-32.5 78.5,-32.5c-20.24956,0 -61.99973,9.08205 -106.23594,16.56171c-49.21625,8.32171 -103.68831,19.15419 -143.06227,25.65961c-32.85817,5.42887 -55.20179,6.62996 -55.20179,12.27868z" fill="#595959" stroke="none" stroke-width="0"/><path d="M89.5,314v-93l300,-52l-3,145z" fill="none" stroke="#000000" stroke-width="3.5"/><path d="M87,318.5v-277h306v277z" fill="none" stroke="#000000" stroke-width="4"/><path d="M146.5,165v-22h194v22z" fill="#582b00" stroke="#000000" stroke-width="0"/><path d="M146,205v-22h194v22z" fill="#582b00" stroke="#000000" stroke-width="0"/><path d="M147.5215,145.33389c0,1.06577 -0.99791,6.0337 0.99107,11.9251c0.8652,2.56274 -1.75829,7.73256 3.28062,8.7704c9.56507,1.97008 23.8121,-0.0806 39.31059,-0.31956c28.08358,-0.433 60.27622,-0.62594 76.16772,-0.62594c39.90257,0 75.75,1.75406 75.75,-2.25c0,-4.00406 -35.84743,-4.25 -75.75,-4.25c-14.27213,0 -51.65443,1.31612 -70.66551,-0.02154c-34.14085,-2.40222 -49.08449,-15.80037 -49.08449,-13.22846z" fill="#3e1e00" stroke="none" stroke-width="0"/><path d="M145.0215,183.8339c0,1.06577 -0.99792,6.0337 0.99107,11.9251c0.86521,2.56274 -1.75829,7.73256 3.28063,8.7704c9.56508,1.97008 23.81211,-0.08059 39.31059,-0.31956c28.08359,-0.433 60.27622,-0.62594 76.16771,-0.62594c39.90258,0 75.75,1.75407 75.75,-2.25c0,-4.00406 -35.84742,-4.25 -75.75,-4.25c-14.27213,0 -51.65444,1.31612 -70.66551,-0.02154c-34.14085,-2.40222 -49.08448,-15.80038 -49.08448,-13.22846z" fill="#3e1e00" stroke="none" stroke-width="0"/><path d="M147.5,165v-22h194v22z" fill="none" stroke="#000000" stroke-width="4"/><path d="M146,205v-22h194v22z" fill="none" stroke="#000000" stroke-width="4"/><path d="M147.5,123v-22h194v22z" fill="#582b00" stroke="#000000" stroke-width="0"/><path d="M146.5215,101.3339c0,1.06577 -0.99792,6.03369 0.99107,11.9251c0.86521,2.56274 -1.75829,7.73255 3.28063,8.7704c9.56508,1.97008 23.81211,-0.0806 39.31059,-0.31955c28.08359,-0.433 60.27622,-0.62594 76.16771,-0.62594c39.90258,0 75.75,1.75407 75.75,-2.25c0,-4.00406 -35.84742,-4.25 -75.75,-4.25c-14.27213,0 -51.65444,1.31612 -70.66551,-0.02154c-34.14085,-2.40222 -49.08448,-15.80037 -49.08448,-13.22846z" fill="#3e1e00" stroke="none" stroke-width="0"/><path d="M147.5,123v-22h194v22z" fill="none" stroke="#000000" stroke-width="4"/><path d="M155.4739,215.32874v-10.5h173v10.5z" fill="#060606" stroke="#000000" stroke-width="4"/><path d="M97.96626,282.35123v-55.5l88,19l-5,36.5z" fill="#b7a556" stroke="#000000" stroke-width="0"/><path d="M96.78901,266.81062c0,2.94734 -4.01749,16.07273 6.08108,17.76663c7.40528,1.24213 53.75502,-3.01663 63.91892,-3.01663c24.02439,0 17,-9.64137 17,-14.75c0,-2.88333 -10.03473,4.13828 -29.19465,6.88219c-14.78728,2.1177 -37.84042,-0.13219 -48.30535,-0.13219c-0.82699,0 -2.1486,-47.99509 -2.9642,-47.98541c-9.05433,0.10752 -5.96556,7.31607 -6.17797,14.48119c-0.32429,10.93926 -0.35782,23.77367 -0.35782,26.75421z" fill="#908244" stroke="none" stroke-width="0"/><path d="M97.46626,281.85123v-55.5l88,19l-5,36.5z" fill="none" stroke="#000000" stroke-width="4"/><path d="M243.35896,271.94445l-1.5,-58l89.5,-5v63z" fill="#b7a556" stroke="none" stroke-width="0"/><path d="M243.81994,270.81062c0,10.35534 18.40861,3.25 40.5,3.25c22.09139,0 48,2.60534 48,-7.75c0,-6.80014 -0.81742,-13.89795 0.94849,-25.17979c0.92324,-5.89828 3.63593,-31.57021 -3.94849,-31.57021c-10.15028,0 4.47693,35.24441 -12.96011,47.86426c-20.51347,14.84638 -72.53989,7.78835 -72.53989,13.38574z" fill="#908244" stroke="none" stroke-width="0"/><path d="M243.72244,273.35123l-1,-60.5l90.5,-4v64.5z" fill="none" stroke="#000000" stroke-width="4"/></g></g></svg>