<svg version="1.1" xmlns="http://www.w3.org/2000/svg" xmlns:xlink="http://www.w3.org/1999/xlink" width="330.5" height="309.5" viewBox="0,0,330.5,309.5"><defs><linearGradient x1="240" y1="41.5" x2="240" y2="318.5" gradientUnits="userSpaceOnUse" id="color-1"><stop offset="0" stop-color="#000000"/><stop offset="1" stop-color="#1a061f"/></linearGradient><radialGradient cx="354" cy="73.5" r="62.5" gradientUnits="userSpaceOnUse" id="color-2"><stop offset="0" stop-color="#ffffff"/><stop offset="1" stop-color="#ffffff" stop-opacity="0"/></radialGradient></defs><g transform="translate(-83,-11)"><g data-paper-data="{&quot;isPaintingLayer&quot;:true}" fill-rule="nonzero" stroke-linejoin="miter" stroke-miterlimit="10" stroke-dasharray="" stroke-dashoffset="0" style="mix-blend-mode: normal"><path d="M87,318.5v-277h306v277z" fill="url(#color-1)" stroke="#000000" stroke-width="0" stroke-linecap="butt"/><path d="M84.85036,219.1601c0,-2.52149 -8.01667,-39.69346 9.35672,-45.43297c28.3385,-9.36196 101.32867,-50.96547 148.15715,-53.7461c15.94013,-0.94651 29.03661,4.1955 42.66996,6.9642c32.01289,6.50128 57.95845,15.71488 65.81617,15.71488c27.06195,0 31.5,19.67816 31.5,31c0,11.32184 27.56195,37.5 0.5,37.5c-27.06195,0 -298,19.32184 -298,8z" fill="#312a00" stroke="#000000" stroke-width="0" stroke-linecap="butt"/><path d="M193.89829,168.65882c41.36075,-25.17757 45.86654,-52.48928 50.57393,-52.48928c3.31799,0 0.0986,31.42849 27.36846,46.12425c43.08638,23.21931 122.63154,35.34325 122.63154,49.12575c0,22.5056 -141.43959,-13.75 -150,-13.75c-8.56041,0 -157,42.2556 -157,19.75c0,-10.12972 72.57208,-28.15275 106.42607,-48.76072z" fill="#282200" stroke="none" stroke-width="0" stroke-linecap="butt"/><path d="M389.5,318l-301,-2l1,-98.17387l155,-47l149,42z" fill="#3e3e3e" stroke="#000000" stroke-width="0" stroke-linecap="round"/><path d="M91.63661,219.05559c8.44801,-3.41564 24.54416,-10.07202 42.55678,-14.45993c17.69303,-4.31006 38.71058,-15.19948 50.69501,-15.19948c29.91542,0 8.83333,18.00388 8.83333,31.16667c0,2.34655 -0.33118,-15.95544 -10.82362,-18.88774c-15.66838,-4.3788 -44.15624,5.42687 -48.91784,7.91104c-9.93618,5.1838 22.19329,34.81004 5.5748,34.81004c-10.8801,0 -12.67765,-23.07811 -21.16512,-25.50755c-14.84929,-4.25044 -33.00155,10.04975 -33.00155,1.67421c0,-2.52124 2.28065,0.09688 6.24821,-1.50726z" fill="#00490d" stroke="none" stroke-width="0" stroke-linecap="butt"/><path d="M354,11c32.86094,0 59.5,27.9822 59.5,62.5c0,34.5178 -26.63906,62.5 -59.5,62.5c-32.86094,0 -59.5,-27.9822 -59.5,-62.5c0,-34.5178 26.63906,-62.5 59.5,-62.5z" fill="url(#color-2)" stroke="none" stroke-width="0" stroke-linecap="butt"/><path d="M353,40c19.05382,0 34.5,13.65532 34.5,30.5c0,16.84468 -15.44618,30.5 -34.5,30.5c-19.05382,0 -34.5,-13.65532 -34.5,-30.5c0,-16.84468 15.44618,-30.5 34.5,-30.5z" fill="#ffffff" stroke="none" stroke-width="0" stroke-linecap="butt"/><path d="M87,318.5v-277h306v277z" fill="none" stroke="#000000" stroke-width="4" stroke-linecap="butt"/><path d="M311.31979,188.88826l1.56613,-21.95714l35.43387,2.20952l-5.48149,26.79048z" fill="#000000" stroke="#000000" stroke-width="4" stroke-linecap="butt"/><path d="M89.00337,173.09777l113.66667,-45.66666l44.33333,-9.33334l77.84902,16.66479" fill="none" stroke="#000000" stroke-width="4" stroke-linecap="round"/><path d="M324.30729,133.2529l68.33333,25.33333" fill="none" stroke="#000000" stroke-width="4" stroke-linecap="round"/><path d="M100.5,169l39,-87l43,-18l60,-15" fill="none" stroke="#000000" stroke-width="4" stroke-linecap="round"/><path d="M87.5,122l36,-63l49,-18" fill="none" stroke="#000000" stroke-width="4" stroke-linecap="round"/><path d="M88.5,81l25,-41" fill="none" stroke="#000000" stroke-width="4" stroke-linecap="round"/><path d="M300.5,43l63,26l30,60" fill="none" stroke="#000000" stroke-width="4" stroke-linecap="round"/><path d="M364.5,39l18,28l8,40" fill="none" stroke="#000000" stroke-width="4" stroke-linecap="round"/><path d="M245.5,120l-1,-72l63.38028,15l45.42253,18l41.19718,87" fill="none" stroke="#000000" stroke-width="4" stroke-linecap="round"/><path d="M332.45209,200.90924c0,-13.16279 11.00336,7.5 30.33333,7.5c7.97395,0 15.69061,-1.80814 20.24288,0.51625c6.48307,3.31026 8.09045,11.91751 8.09045,19.65042c0,6.23034 -15.51073,-17.09769 -21.25857,-12.85135c-6.39558,4.72487 -3.56091,36.68469 -13.74143,36.68469c-5.61325,0 0.70449,-31.23287 -2.64104,-36.14335c-8.17523,-11.99936 -21.02562,-6.01623 -21.02562,-15.35665z" fill="#00490d" stroke="none" stroke-width="0" stroke-linecap="butt"/><path d="M88,222.00001l157,-54.45008l144,47.0339l-149,-46.6715l-155,52.22763v-37.03287l1.50337,-7.89187l117.66667,-47.74599l44.33333,-10.37145l77.84902,18.51835l57.22208,15.67917l6.42553,65.14857" fill="none" stroke="#000000" stroke-width="4" stroke-linecap="round"/></g></g></svg>