<svg version="1.1" xmlns="http://www.w3.org/2000/svg" xmlns:xlink="http://www.w3.org/1999/xlink" width="493.47034" height="705.2158" viewBox="0,0,493.47034,705.2158"><g transform="translate(134.95862,40.61154)"><g data-paper-data="{&quot;isPaintingLayer&quot;:true}" fill-rule="nonzero" stroke-width="4.5" stroke-linejoin="miter" stroke-miterlimit="10" stroke-dasharray="" stroke-dashoffset="0" style="mix-blend-mode: normal"><g><path d="M253.49886,404.43564l-76.14598,-145.3042l39.93226,-22.58735l76.14598,145.3042z" data-paper-data="{&quot;index&quot;:null}" fill="#1b1b1b" stroke="#000000" stroke-linecap="butt"/><g data-paper-data="{&quot;index&quot;:null}"><g stroke-linecap="butt"><path d="M291.68825,363.44133c3.50816,16.0584 -4.60398,49.70462 -19.27486,52.90965c-14.67086,3.20502 -83.91661,-130.7656 -87.42476,-146.82398c-2.25307,-10.31332 -6.72502,-20.76717 -0.45633,-27.54502c3.49198,-3.77562 15.41952,-6.18786 20.66819,-7.33449c7.61393,-1.66335 9.42618,56.63798 29.37826,88.54006c18.49247,29.56827 55.42204,32.52945 57.1095,40.25377z" fill="#840000" stroke="#000000"/><path d="M291.23877,357.04585c5.54968,25.40337 -4.73929,49.22752 -20.0357,52.56921c-15.29645,3.3417 -79.84012,-113.54356 -85.38981,-138.94695c-3.66157,-16.76063 30.22497,52.13689 58.06138,92.02998c14.35412,20.5712 27.05789,24.83374 32.26207,23.69681c15.29645,-3.3417 9.55239,-54.75243 15.10207,-29.34902z" fill="#430000" stroke="none"/><path d="M291.41674,362.19813c3.50816,16.0584 -4.60398,49.70462 -19.27486,52.90965c-14.67084,3.20502 -83.91661,-130.7656 -87.42476,-146.82398c-1.90003,-8.69731 -17.50334,-19.28407 -13.13823,-25.8204c3.69448,-5.5321 26.62503,-7.58993 33.35007,-9.05909c8.04571,-1.75768 10.7879,58.64796 31.56248,92.43194c17.10646,27.81883 53.34107,29.11018 54.92529,36.3619z" fill="none" stroke="#000000"/></g><path d="M221.67734,336.73818l13.90883,-14.62926" fill="none" stroke="#000000" stroke-linecap="round"/></g></g><g><g stroke-linecap="butt"><path d="M68.2526,210.4428c8.33513,1.54053 24.47826,6.04686 28.91051,12.45652c4.36724,6.31562 -2.90388,14.48606 -4.39771,22.56861c-3.00992,16.28542 -72.72258,152.64904 -89.27055,149.59059c-16.54797,-3.05845 -27.4923,-36.9873 -24.48237,-53.27271c3.00992,-16.28542 72.69217,-134.40148 89.24011,-131.34304z" fill="#840000" stroke="#000000"/><path d="M-2.34528,364.80714c5.87006,1.08492 19.80309,-3.38483 34.65928,-24.36998c28.81005,-40.69576 62.73722,-110.80238 59.59568,-93.80482c-4.76151,25.7625 -70.65257,147.28985 -87.90618,144.10099c-17.2536,-3.18886 -29.61104,-29.65908 -24.84953,-55.42158c4.76151,-25.7625 1.24714,26.30651 18.50073,29.49537z" fill="#430000" stroke="none"/><path d="M68.48559,209.18206c7.76777,1.43567 25.73302,4.52916 30.17469,10.28447c5.02059,6.50541 -4.06489,16.09973 -5.66193,24.74062c-3.00992,16.28542 -72.72258,152.64904 -89.27055,149.59059c-16.54797,-3.05845 -27.4923,-36.9873 -24.48237,-53.27271c3.00992,-16.28542 72.69217,-134.40148 89.24011,-131.34304z" fill="none" stroke="#000000"/></g><path d="M55.61713,313.90397l-39.26305,-44.13834" fill="none" stroke="#000000" stroke-linecap="round"/></g><g><path d="M-51.73131,383.44785c5.25152,-19.68093 24.04796,-31.75596 41.983,-26.97028c17.93504,4.78565 28.21708,24.61977 22.96556,44.3007c-5.25152,19.68095 -24.04799,31.75596 -41.98302,26.97028c-17.93506,-4.78565 -28.21708,-24.61977 -22.96556,-44.3007z" fill="#840000" stroke="#000000" stroke-linecap="butt"/><path d="M-52.5272,397.61275c2.96455,-11.11021 4.94168,-43.01104 20.81341,-38.77593c2.66285,0.71053 -6.74021,11.76259 -8.48563,25.18669c-1.65563,12.73344 4.32777,27.80096 7.08542,31.01032c11.66354,13.57403 40.05884,-9.56258 38.06341,-2.08442c-2.96458,11.11018 -18.2344,16.68358 -34.10613,12.44847c-15.87173,-4.23511 -26.33506,-16.67494 -23.37048,-27.78515z" fill="#430000" stroke="none" stroke-linecap="butt"/><path d="M-10.31357,358.31332c17.93506,4.78565 28.21708,24.61977 22.96556,44.3007c-5.25152,19.68095 -24.04794,31.75596 -41.983,26.97028c-17.93506,-4.78565 -28.21708,-24.61977 -22.96556,-44.3007c5.25152,-19.68095 24.04794,-31.75596 41.983,-26.97028z" fill="none" stroke="#000000" stroke-linecap="butt"/><g><path d="M10.51115,438.60265c3.98099,-14.91941 -21.5899,-29.15708 -14.28889,-27.20894c3.41233,0.91051 15.43521,-13.9638 24.70144,-8.1343c10.55977,6.6433 18.14702,34.45168 16.02666,42.3981c-3.98099,14.91943 -13.12683,25.43471 -20.42784,23.48657c-7.30101,-1.94814 -9.9924,-15.62199 -6.01141,-30.54143z" fill="#840000" stroke="#000000" stroke-linecap="butt"/><path d="M-0.74461,414.01951c-2.69463,-7.45136 6.00448,-9.59239 7.51882,-9.18832c4.12666,1.10113 24.25175,47.55639 22.60006,53.74636c-1.65169,6.18997 -6.33597,10.31529 -10.46261,9.21416c-4.12664,-1.10113 -7.32275,-6.41685 -5.67106,-12.60682c1.04557,-3.91847 -8.92257,-27.16571 -13.98522,-41.1654z" fill="#430000" stroke="none" stroke-linecap="butt"/><path d="M-4.36312,411.00338c3.41233,0.91051 15.43521,-13.9638 24.70144,-8.1343c10.55977,6.6433 18.14702,34.45168 16.02666,42.3981c-3.98099,14.91941 -13.12685,25.43471 -20.42784,23.48657c-7.30099,-1.94814 -9.99237,-15.62202 -6.01138,-30.54143c3.98099,-14.91941 -21.58987,-29.15708 -14.28889,-27.20894z" fill="none" stroke="#000000" stroke-linecap="butt"/><path d="M12.15048,434.48963l21.72788,-5.28469" fill="none" stroke="#000000" stroke-linecap="round"/></g><g data-paper-data="{&quot;index&quot;:null}"><path d="M-68.35286,428.22102c0.8888,15.41584 -4.50621,28.26542 -12.05015,28.70034c-7.54392,0.43495 -14.37998,-11.70943 -15.26877,-27.12527c-0.4734,-8.21082 12.56874,-33.91635 24.25175,-38.29238c10.25187,-3.83995 19.02628,13.15432 22.55213,12.95103c7.54392,-0.43495 -20.3738,8.35044 -19.48498,23.76623z" fill="#840000" stroke="#000000" stroke-linecap="butt"/><path d="M-74.37201,443.91154c0.36876,6.39593 -3.83418,10.95744 -8.09812,11.20329c-4.26394,0.24585 -8.01951,-4.73978 -8.38827,-11.13571c-0.36876,-6.39593 28.71573,-47.83506 32.9797,-48.08091c1.56471,-0.09022 9.6529,3.76199 5.51022,10.51639c-7.78325,12.69026 -22.23698,33.44809 -22.00356,37.49694z" fill="#430000" stroke="none" stroke-linecap="butt"/><path d="M-67.7008,427.95684c0.88882,15.41581 -4.50621,28.26542 -12.05013,28.70036c-7.5439,0.43495 -14.37998,-11.70946 -15.26877,-27.12527c-0.4734,-8.21082 12.56874,-33.91635 24.25175,-38.29238c10.25187,-3.83995 19.02628,13.15432 22.55213,12.95103c7.5439,-0.43495 -20.3738,8.35044 -19.48498,23.76623z" fill="none" stroke="#000000" stroke-linecap="butt"/><path d="M-89.34329,414.30179l20.21468,9.56006" fill="none" stroke="#000000" stroke-linecap="round"/></g><g data-paper-data="{&quot;index&quot;:null}"><path d="M-36.63099,442.13004c3.98099,14.91943 1.2896,28.59329 -6.01141,30.54143c-7.30101,1.94814 -16.44684,-8.56713 -20.42784,-23.48657c-2.12036,-7.94642 5.46689,-35.7548 16.02666,-42.3981c9.26623,-5.8295 21.28912,9.04481 24.70144,8.1343c7.30101,-1.94814 -18.26988,12.28953 -14.28889,27.20894z" fill="#840000" stroke="#000000" stroke-linecap="butt"/><path d="M-39.36048,458.71237c1.65169,6.18997 -1.54442,11.50569 -5.67106,12.60684c-4.12664,1.10113 -8.81091,-3.02419 -10.46261,-9.21416c-1.65169,-6.18997 18.4734,-52.64524 22.60006,-53.74636c1.51434,-0.40407 10.21345,1.73693 7.51882,9.18829c-5.06265,13.99969 -15.03079,37.24693 -13.98522,41.1654z" fill="#430000" stroke="none" stroke-linecap="butt"/><path d="M-36.04564,441.73966c3.98099,14.91941 1.2896,28.59329 -6.01138,30.54143c-7.30099,1.94814 -16.44684,-8.56716 -20.42784,-23.48657c-2.12036,-7.94642 5.46689,-35.7548 16.02666,-42.3981c9.26623,-5.8295 21.28912,9.04481 24.70144,8.1343c7.30099,-1.94814 -18.26988,12.28953 -14.28889,27.20894z" fill="none" stroke="#000000" stroke-linecap="butt"/><path d="M-59.99824,432.73238l21.72788,5.28469" fill="none" stroke="#000000" stroke-linecap="round"/></g><g data-paper-data="{&quot;index&quot;:null}"><path d="M-10.29442,448.19189c9.29743,12.32865 11.94365,26.01132 5.91048,30.56113c-6.03317,4.54981 -18.46105,-1.75615 -27.75848,-14.0848c-4.95201,-6.5665 -8.37482,-35.18743 -1.08688,-45.31305c6.39521,-8.88524 23.12772,0.37852 25.9475,-1.74796c6.03317,-4.54981 -12.31005,18.25606 -3.01261,30.58468z" fill="#840000" stroke="#000000" stroke-linecap="butt"/><path d="M-6.59015,464.58406c3.85746,5.11506 2.89401,11.24239 -0.51603,13.814c-3.41003,2.57164 -9.30152,0.50978 -13.15895,-4.60529c-3.85746,-5.11506 -2.67167,-55.72835 0.73839,-58.29998c1.25138,-0.9437 10.11725,-2.22985 10.42135,5.68794c0.57136,14.87598 0.07333,40.16532 2.51521,43.40333z" fill="#430000" stroke="none" stroke-linecap="butt"/><path d="M-9.89876,447.61018c9.29743,12.32862 11.94365,26.01132 5.91051,30.5611c-6.03314,4.54981 -18.46105,-1.75618 -27.75848,-14.0848c-4.95201,-6.5665 -8.37482,-35.18743 -1.08688,-45.31305c6.39521,-8.88524 23.12772,0.37852 25.9475,-1.74796c6.03314,-4.54981 -12.31005,18.25606 -3.01261,30.58468z" fill="none" stroke="#000000" stroke-linecap="butt"/><path d="M-13.35967,444.99688l-22.12082,3.27074" fill="none" stroke="#000000" stroke-linecap="round"/></g></g><g data-paper-data="{&quot;index&quot;:null}"><path d="M312.30881,412.8125c5.25152,19.68093 -5.0305,39.51505 -22.96556,44.3007c-17.93504,4.78567 -36.7315,-7.28933 -41.98302,-26.97028c-5.25152,-19.68093 5.03053,-39.51505 22.96556,-44.3007c17.93504,-4.78567 36.73148,7.28936 41.983,26.97028z" fill="#840000" stroke="#000000" stroke-linecap="butt"/><path d="M313.10467,426.97743c2.96458,11.11021 -7.49875,23.55004 -23.37048,27.78515c-15.87173,4.23511 -31.14155,-1.33829 -34.10613,-12.44847c-1.99543,-7.47816 26.39987,15.65845 38.06341,2.08442c2.75765,-3.20936 8.74104,-18.27688 7.08542,-31.01032c-1.74542,-13.4241 -11.14848,-24.47616 -8.48563,-25.18669c15.87173,-4.23511 17.84885,27.66572 20.81341,38.77593z" fill="#430000" stroke="none" stroke-linecap="butt"/><path d="M312.87409,414.64838c5.25152,19.68093 -5.0305,39.51505 -22.96556,44.3007c-17.93506,4.78567 -36.73148,-7.28933 -41.983,-26.97028c-5.25152,-19.68093 5.0305,-39.51505 22.96556,-44.3007c17.93506,-4.78567 36.73148,7.28933 41.983,26.97028z" fill="none" stroke="#000000" stroke-linecap="butt"/><g><path d="M250.06635,467.96732c3.98099,14.91943 1.2896,28.59329 -6.01141,30.54143c-7.30101,1.94814 -16.44684,-8.56713 -20.42784,-23.48657c-2.12036,-7.94642 5.46689,-35.7548 16.02666,-42.3981c9.26623,-5.8295 21.28912,9.04481 24.70144,8.1343c7.30101,-1.94814 -18.26988,12.28953 -14.28889,27.20894z" fill="#840000" stroke="#000000" stroke-linecap="butt"/><path d="M247.33692,484.54965c1.65169,6.18997 -1.54442,11.50569 -5.67106,12.60684c-4.12664,1.10113 -8.81091,-3.02419 -10.46261,-9.21416c-1.65169,-6.18997 18.4734,-52.64524 22.60006,-53.74636c1.51434,-0.40407 10.21342,1.73693 7.5188,9.18829c-5.06265,13.99969 -15.03079,37.24693 -13.98522,41.1654z" fill="#430000" stroke="none" stroke-linecap="butt"/><path d="M250.65175,467.57694c3.98099,14.91941 1.2896,28.59329 -6.01138,30.54143c-7.30099,1.94814 -16.44684,-8.56716 -20.42784,-23.48657c-2.12036,-7.94642 5.46689,-35.7548 16.02666,-42.3981c9.26623,-5.8295 21.28912,9.04481 24.70144,8.1343c7.30099,-1.94814 -18.26988,12.28953 -14.28889,27.20894z" fill="none" stroke="#000000" stroke-linecap="butt"/><path d="M248.42702,463.85435l-21.72788,-5.28469" fill="none" stroke="#000000" stroke-linecap="round"/></g><g data-paper-data="{&quot;index&quot;:null}"><path d="M328.93031,457.58569c0.88882,-15.41581 -27.0289,-24.20118 -19.48498,-23.76623c3.52585,0.20329 12.30026,-16.791 22.55213,-12.95105c11.68301,4.376 24.72512,30.08156 24.25175,38.29235c-0.88882,15.41581 -7.72488,27.56022 -15.26877,27.12527c-7.54392,-0.43495 -12.93895,-13.28453 -12.05015,-28.70034z" fill="#840000" stroke="#000000" stroke-linecap="butt"/><path d="M312.9459,435.77933c-4.14268,-6.75441 3.94551,-10.60661 5.51022,-10.51639c4.26397,0.24585 33.34846,41.68498 32.9797,48.08091c-0.36876,6.39593 -4.12432,11.38156 -8.38827,11.13571c-4.26394,-0.24585 -8.46688,-4.80734 -8.09812,-11.20327c0.23345,-4.04885 -14.22029,-24.80668 -22.00356,-37.49694z" fill="#430000" stroke="none" stroke-linecap="butt"/><path d="M308.79329,433.55526c3.52587,0.20329 12.30026,-16.791 22.55215,-12.95105c11.68301,4.376 24.72512,30.08156 24.25175,38.29238c-0.88882,15.41581 -7.72488,27.56019 -15.2688,27.12524c-7.5439,-0.43495 -12.93892,-13.28455 -12.0501,-28.70034c0.8888,-15.41581 -27.0289,-24.20118 -19.48498,-23.76623z" fill="none" stroke="#000000" stroke-linecap="butt"/><path d="M349.92076,443.66651l-20.21471,9.56006" fill="none" stroke="#000000" stroke-linecap="round"/></g><g data-paper-data="{&quot;index&quot;:null}"><path d="M297.20852,471.49469c3.98099,-14.91941 -21.5899,-29.15708 -14.28889,-27.20894c3.41233,0.91051 15.43521,-13.9638 24.70144,-8.1343c10.55977,6.6433 18.14702,34.45168 16.02666,42.3981c-3.98099,14.91943 -13.12683,25.43471 -20.42784,23.48657c-7.30101,-1.94814 -9.9924,-15.62199 -6.01141,-30.54143z" fill="#840000" stroke="#000000" stroke-linecap="butt"/><path d="M285.95271,446.91167c-2.69463,-7.45136 6.00446,-9.59239 7.5188,-9.18832c4.12666,1.10113 24.25175,47.55639 22.60006,53.74636c-1.65169,6.18997 -6.33597,10.31529 -10.46261,9.21416c-4.12664,-1.10113 -7.32275,-6.41687 -5.67106,-12.60684c1.04557,-3.91847 -8.92255,-27.16571 -13.98519,-41.1654z" fill="#430000" stroke="none" stroke-linecap="butt"/><path d="M282.33428,443.89545c3.41233,0.91051 15.43521,-13.9638 24.70144,-8.1343c10.55977,6.6433 18.14702,34.45168 16.02666,42.3981c-3.98099,14.91941 -13.12685,25.43471 -20.42784,23.48657c-7.30099,-1.94814 -9.99237,-15.62202 -6.01138,-30.54143c3.98099,-14.91941 -21.58987,-29.15708 -14.28889,-27.20894z" fill="none" stroke="#000000" stroke-linecap="butt"/><path d="M320.57568,462.09703l-21.72788,5.28469" fill="none" stroke="#000000" stroke-linecap="round"/></g><g data-paper-data="{&quot;index&quot;:null}"><path d="M270.87194,477.55667c9.29743,-12.32862 -9.04581,-35.13449 -3.01261,-30.58468c2.81978,2.12646 19.55231,-7.13729 25.9475,1.74793c7.28796,10.12562 3.86513,38.74652 -1.08688,45.31303c-9.29743,12.32865 -21.72531,18.63461 -27.7585,14.08482c-6.03319,-4.54981 -3.38695,-18.23248 5.91048,-30.56113z" fill="#840000" stroke="#000000" stroke-linecap="butt"/><path d="M269.68289,450.54542c0.30409,-7.91779 9.16999,-6.63164 10.42137,-5.68794c3.41006,2.57164 4.59583,53.18492 0.73839,58.29998c-3.85743,5.11506 -9.74892,7.17693 -13.15895,4.60529c-3.41003,-2.57164 -4.37348,-8.69893 -0.51603,-13.814c2.4419,-3.23802 1.94388,-28.52733 2.51524,-43.40333z" fill="#430000" stroke="none" stroke-linecap="butt"/><path d="M267.46362,446.39022c2.81978,2.12646 19.55229,-7.13729 25.9475,1.74793c7.28794,10.12562 3.86513,38.74652 -1.08688,45.31303c-9.29743,12.32862 -21.72534,18.63461 -27.7585,14.08482c-6.03314,-4.54981 -3.38693,-18.2325 5.91051,-30.56113c9.29743,-12.32862 -9.04578,-35.13447 -3.01261,-30.58468z" fill="none" stroke="#000000" stroke-linecap="butt"/><path d="M296.05798,477.63234l-22.12084,-3.27076" fill="none" stroke="#000000" stroke-linecap="round"/></g></g><g stroke-linecap="butt"><path d="M98.26543,412.79234l17.8556,-121.54097l56.66437,8.32457l-17.8556,121.54097z" fill="#1b1b1b" stroke="#000000"/><g><path d="M40.58175,403.38926l6.15295,-41.88237l137.96542,20.26852l-6.15295,41.88237z" fill="#1b1b1b" stroke="#000000"/><g><path d="M46.59808,370.61629c4.93346,-33.58155 21.57872,-112.67478 48.2831,-143.89048c18.96978,-22.17444 46.36024,-3.79002 63.23518,-1.31091c21.66043,3.18213 45.12364,-10.38948 51.04717,26.86258c5.18776,32.625 4.77651,109.3785 0.83688,136.19515c-8.43802,57.43659 -41.81038,50.90757 -82.44078,44.93854c-28.23349,-4.14779 14.39752,-107.63988 0.23015,-127.11824c-6.22067,-8.55262 -83.76622,81.84802 -81.19167,64.32333z" fill="#840000" stroke="#000000"/><path d="M131.99937,301.58226c1.07097,-7.28989 -7.63176,-8.851 -22.43241,5.06869c-10.90066,10.25182 -45.87983,54.42948 -49.19194,52.47269c-12.54434,-7.41117 31.14602,-91.58377 44.79843,-109.65005c13.68294,-18.10666 31.98204,-14.20342 44.04084,-12.43186c14.29719,2.1004 31.36234,1.27455 39.71654,25.6004c10.09929,29.4072 9.7088,86.75826 5.41749,115.96874c-7.84113,53.37357 -41.94832,56.35317 -73.52922,51.71361c-5.8926,-0.86568 5.71739,-8.34237 3.68382,-8.92034c-8.86519,-2.51961 -1.76877,0.35181 4.6093,-43.06292z" fill="#7d3c3c" stroke="#000000"/><path d="M54.36408,364.72315c1.1368,-7.73809 11.09138,-41.48025 27.80603,-71.22885c9.66509,-17.20185 17.01457,-37.17403 28.12693,-47.88024c9.31785,-8.97732 22.60103,-10.24953 29.30277,-9.46491c0.96029,0.1124 24.96398,-8.46462 25.93275,-8.3223c29.73641,4.36858 31.74644,43.11244 29.32212,59.61452c-2.42432,16.50207 -36.1767,-20.12364 -65.91311,-24.49222c-20.72521,-3.04474 -29.92267,16.6909 -36.28578,26.48964c-2.76663,4.26042 -29.31323,55.2852 -28.57858,50.28449z" fill="#5c2c2c" stroke="none"/><path d="M49.67428,378.52182c2.11629,-14.40532 17.17717,-155.97698 60.76249,-149.57385c8.05504,1.18337 -12.48415,26.19283 -25.91266,59.55986c-6.49562,16.14026 -35.33041,70.47495 -26.35281,69.05208c6.43605,-1.02006 37.04882,-31.58916 47.87572,-42.37718c12.15032,-12.1067 20.73104,-28.23422 23.61,-21.98695c7.00764,15.20643 -6.33062,70.71906 -4.9011,102.02784c0.42245,9.25223 6.80739,13.24884 9.55682,17.38777c19.29104,29.04025 70.49068,1.81553 69.7225,7.04444c-2.11629,14.40532 -39.16478,20.89237 -82.7501,14.48924c-17.21256,-2.5287 -3.6935,-15.9029 -1.47899,-37.10299c2.84984,-27.28218 8.56986,-68.676 9.62206,-86.61014c0.20055,-3.41836 -4.17764,-6.63216 -3.97264,-8.02755z" fill="#430000" stroke="none"/><path d="M125.28244,397.73821c0.6569,-4.47143 7.0905,-9.10188 2.1391,-9.57059c-5.54224,-0.52465 -21.75418,3.52604 -4.40927,6.07418c32.84074,4.82464 67.74532,-10.6085 66.35313,-1.13208c-0.67268,4.57889 -5.91926,21.33943 -18.7716,29.45024c-13.7467,8.67523 -25.67526,9.119 -42.64776,6.62556c-15.59938,-2.29171 -9.25326,-15.37139 -9.91033,-23.65141c-0.113,-1.42399 9.75139,0.01137 8.34929,-1.24356c-7.60878,-6.8101 -5.92865,1.82425 -5.31148,-2.37674z" fill="#5c2c2c" stroke="none"/><path d="M105.56036,249.00794c13.68291,-18.10667 31.98202,-14.20342 44.04081,-12.43185c14.29721,2.1004 31.36236,1.27455 39.71656,25.6004c10.09927,29.40721 9.70877,86.75829 5.41746,115.96876c-3.35697,22.85048 -11.52824,36.46428 -22.25446,44.19793c-14.32781,10.33041 -33.21439,10.16893 -51.27476,7.51568c-7.53513,-1.10699 -5.44953,-11.85562 -3.90481,-26.41068c3.43436,-32.36036 17.6234,-84.87168 12.55583,-101.52627c-1.36578,-4.48861 -34.893,20.78481 -54.28467,43.68749c-11.93004,14.09003 -25.15072,27.45828 -24.46104,22.76371c4.84707,-32.99347 32.29768,-90.05209 54.4491,-119.36515z" fill="none" stroke="#000000"/><path d="M96.64875,226.69942c18.96978,-22.17447 46.36022,-3.79004 63.23519,-1.31094c21.66043,3.18213 45.12364,-10.3895 51.04717,26.86258c5.18776,32.625 4.77649,109.37852 0.83685,136.19517c-3.40702,23.19115 -10.87906,35.954 -21.25262,42.53603c-1.39437,0.88474 -2.8412,1.6578 -4.33758,2.32952c-14.94254,6.70741 -34.83065,3.30795 -56.85058,0.073c-16.75191,-2.46103 8.95049,-107.20025 2.64268,-134.28001c-4.05749,-17.41903 -40.59591,41.19162 -46.34131,34.10556c-6.9862,-8.61643 -39.98406,55.9022 -37.2629,37.37954c4.93347,-33.58153 21.57872,-112.67476 48.28309,-143.89046z" fill="none" stroke="#000000"/></g></g><g><path d="M211.13067,292.62543c-1.08813,7.40676 -7.5183,48.65011 -24.1391,46.20833c-16.62076,-2.44176 -37.13812,-47.644 -36.05,-55.05073c1.08813,-7.40676 32.90972,-39.1512 49.5305,-36.70943c16.62076,2.44176 11.74673,38.14507 10.6586,45.55183z" data-paper-data="{&quot;index&quot;:null}" fill="#410000" stroke="#000000"/><path d="M107.23167,233.79177c16.62076,2.44176 37.96772,41.9972 36.87959,49.40396c-1.08813,7.40676 -33.73932,44.79797 -50.36009,42.3562c-16.62076,-2.44176 -10.91716,-43.79185 -9.82903,-51.1986c1.08813,-7.40673 6.68873,-43.00333 23.30954,-40.56155z" fill="#410000" stroke="#000000"/><path d="M210.72696,292.98222c-1.08813,7.40676 -7.5183,48.65011 -24.1391,46.20833c-16.62074,-2.44176 -37.13812,-47.64397 -36.05,-55.05073c1.08813,-7.40676 32.90972,-39.1512 49.5305,-36.70943c16.62076,2.44176 11.74673,38.14507 10.6586,45.55183z" data-paper-data="{&quot;index&quot;:null}" fill="none" stroke="#000000"/><path d="M107.51572,234.24957c16.62074,2.44176 37.96769,41.9972 36.87956,49.40395c-1.08813,7.40676 -33.73932,44.79797 -50.36007,42.35621c-16.62076,-2.44176 -10.91716,-43.79185 -9.82903,-51.1986c1.08813,-7.40673 6.68876,-43.00332 23.30954,-40.56155z" fill="none" stroke="#000000"/><path d="M101.75068,234.12371c2.18128,0.32045 -7.55205,20.1938 -9.93943,31.7754c-4.1474,20.11996 -2.91057,37.48682 0.83382,43.91203c8.73497,14.98881 43.26748,-22.28833 42.39583,-16.35511c-1.46037,9.94063 -25.48234,31.94991 -40.2929,29.77409c-14.81059,-2.17583 -14.80132,-27.71282 -13.34092,-37.65345c1.46038,-9.94066 5.53304,-53.62879 20.34361,-51.45297z" fill="#170000" stroke="none"/><path d="M210.31156,304.09795c-1.46038,9.94066 -8.79626,34.40127 -23.60682,32.22544c-14.81056,-2.17582 -31.48737,-30.16415 -30.02699,-40.1048c0.87165,-5.93324 23.22366,39.70083 35.90053,27.85764c5.43412,-5.07679 11.61365,-21.35411 13.42825,-41.81678c1.04452,-11.77889 -2.56169,-33.61195 -0.38046,-33.29151c14.81056,2.17582 6.14587,45.18937 4.6855,55.12999z" data-paper-data="{&quot;index&quot;:null}" fill="#170000" stroke="none"/><g><path d="M152.71589,262.82735c10.69651,1.57142 17.81248,13.43193 15.89394,26.49122c-1.91854,13.05927 -12.14504,22.372 -22.84158,20.80058c-10.69651,-1.57142 -17.81248,-13.43193 -15.89394,-26.49122c1.91854,-13.05924 12.14507,-22.372 22.84158,-20.80058z" fill="#410000" stroke="#000000"/><path d="M152.40399,263.19765c10.69651,1.57142 17.81248,13.43193 15.89394,26.49122c-1.91854,13.05927 -12.14507,22.372 -22.84158,20.80058c-10.69651,-1.57142 -17.81248,-13.43193 -15.89394,-26.49122c1.91854,-13.05927 12.14507,-22.372 22.84158,-20.80058z" fill="none" stroke="#000000"/><path d="M129.6519,288.6984c1.43175,-9.74575 5.53452,-28.03017 16.06648,-26.48292c3.30112,0.48497 -8.236,18.6274 -8.86515,27.47249c-0.46401,6.52334 8.54696,12.22995 10.44121,15.35646c3.73173,6.15932 21.14907,-15.1811 20.49706,-10.74291c-1.43175,9.74573 -11.13025,16.39188 -21.6622,14.84463c-10.53196,-1.54725 -17.90915,-10.70202 -16.47739,-20.44772z" fill="#170000" stroke="none"/></g></g></g><g><path d="M160.40716,158.33937c31.83855,3.02414 56.27179,19.97331 54.57313,37.85706c-1.69865,17.88373 -28.88596,29.9298 -60.72451,26.90568c-31.83855,-3.02414 -56.27179,-19.97331 -54.57313,-37.85706c1.69865,-17.88373 28.88596,-29.9298 60.72451,-26.90568z" fill="#000000" stroke="#000000" stroke-linecap="butt"/><path d="M96.06908,182.49255c9.67413,-2.4973 42.42871,15.90993 62.95395,18.6349c22.93336,3.04469 33.84839,-9.3387 46.13685,-8.17151c29.67558,2.81868 6.38342,9.00542 5.40812,19.27358c-0.97531,10.26816 -25.82274,16.30716 -55.4983,13.48846c-4.98927,-0.4739 -9.79736,-1.16799 -14.33953,-2.04365c-22.47418,-4.33272 -38.43822,-13.1104 -37.6269,-21.65219c0.20997,-2.21068 -12.65407,-18.07887 -7.03419,-19.52961z" fill="#ffffff" stroke="#000000" stroke-linecap="butt"/><path d="M125.93712,205.24434c18.45616,6.41818 41.71653,8.73543 55.67682,7.08981c18.55724,-2.18752 20.73209,-12.80412 31.27415,-11.80279c25.5416,2.42603 -7.42624,16.94336 -7.98703,22.84757c-0.56081,5.90421 -21.72098,8.72381 -47.26261,6.29777c-12.33917,-1.17202 -29.14716,-6.18966 -41.03518,-14.43641c-12.71975,-8.82374 -20.10516,-20.96498 -19.81527,-24.01689c0.15521,-1.63405 12.69829,8.30009 29.14911,14.02092z" fill="#e2e2e2" stroke="none" stroke-linecap="butt"/><path d="M98.0011,183.92673c9.67413,-2.4973 42.42871,15.90993 62.95395,18.6349c22.93336,3.04469 33.84839,-9.3387 46.13685,-8.17151c29.67558,2.81868 6.38342,9.00542 5.40812,19.27358c-0.97531,10.26816 -25.82274,16.30716 -55.4983,13.48846c-4.98927,-0.4739 -9.79736,-1.16799 -14.33953,-2.04365c-22.47418,-4.33272 -38.43822,-13.1104 -37.6269,-21.65219c0.20997,-2.21068 -12.65407,-18.07887 -7.03419,-19.52961z" fill="none" stroke="#000000" stroke-linecap="butt"/><path d="M88.60097,184.91515c0.79721,-8.39302 6.52076,-14.71465 12.78394,-14.11975c1.56957,0.14908 -4.44802,5.61446 -2.73492,9.96921c1.31978,3.35496 -0.84456,7.00081 0.32315,11.00117c1.40372,4.80907 6.24746,10.06938 9.46008,15.14076c4.48767,7.0842 24.44468,12.42589 24.18623,15.1471c-0.16568,1.74427 61.1431,-1.21762 59.30892,2.43869c-0.1608,0.3205 12.55205,-6.23697 18.60934,-16.00383c3.77188,-6.08181 1.30912,-17.29492 2.71455,-16.99077c2.50283,0.54166 9.81125,-15.94194 14.48175,-17.2915c3.06344,-0.88519 4.59318,11.64804 4.28388,15.58673c-0.31179,3.9702 -16.07934,20.92215 -18.42781,27.14758c-3.2342,8.5734 -0.58246,14.5486 -2.71256,14.96726c-18.79373,3.69367 -83.57081,5.57916 -86.42793,3.73889c-9.42149,-6.06831 -22.59995,-34.13917 -25.95157,-34.45751c-6.26319,-0.59491 -10.69421,-7.88105 -9.89702,-16.27408z" fill="#840000" stroke="#000000" stroke-linecap="butt"/><path d="M89.60085,169.00005c0.16076,-1.69261 8.1431,23.71877 20.89942,37.50768c10.45947,11.30612 24.55375,22.91301 30.32334,23.46103c12.80617,1.21639 70.72981,-2.95603 70.43721,0.12442c-0.29259,3.08044 -55.65753,7.53271 -68.46369,6.31634c-3.43365,-0.32613 -9.7803,1.36039 -18.46605,-5.26057c-7.0459,-5.37092 -12.8972,-15.43355 -19.66464,-23.90138c-3.60569,-4.51163 -9.18601,-8.06165 -11.54751,-11.33543c-8.12034,-11.25734 -7.45055,-26.04697 -7.33395,-27.27452z" fill="#430000" stroke="none" stroke-linecap="butt"/><path d="M89.11102,183.76785c0.32452,-3.41673 -7.91537,-18.54886 -6.25393,-20.95216c2.41978,-3.50025 15.12939,7.03157 18.84283,7.38429c1.56957,0.14908 -4.44802,5.61446 -2.73492,9.96921c1.35287,3.43897 -2.22603,7.39294 -0.55938,12.45827c1.91394,5.8169 9.16947,12.83592 12.31514,17.80166c4.48769,7.08422 16.58211,8.10575 16.32364,10.82694c-0.08693,0.91536 18.3777,0.59033 35.68186,0.60309c15.67018,0.01156 30.38874,0.30014 29.51708,2.03769c-0.16079,0.32053 12.55205,-6.23697 18.60933,-16.00381c3.77188,-6.08177 1.30911,-17.29489 2.71454,-16.99073c2.2088,0.47804 8.3351,-17.94852 13.40128,-19.84855c4.43958,-1.66502 8.05116,12.81733 7.68646,17.46141c-0.31179,3.9702 -18.40145,21.60451 -20.74995,27.82995c-3.2342,8.5734 -0.58246,14.5486 -2.71256,14.96726c-18.79374,3.69364 -83.57081,5.57916 -86.42793,3.73886c-9.42146,-6.06833 -22.59993,-34.13916 -25.95157,-34.45751c-6.26319,-0.59491 -10.69421,-7.88105 -9.89702,-16.27408z" fill="none" stroke="#000000" stroke-linecap="butt"/><path d="M117.65156,187.33555l-2.08262,23.9058" fill="none" stroke="#000000" stroke-linecap="round"/><path d="M148.90482,220.54731l1.61171,-18.94792" fill="none" stroke="#000000" stroke-linecap="round"/><path d="M181.14785,221.56332l1.46819,-19.41632" fill="none" stroke="#000000" stroke-linecap="round"/><path d="M202.87413,214.53126l-0.15096,-18.20575" fill="none" stroke="#000000" stroke-linecap="round"/><path d="M107.03244,11.66294c12.80844,1.21659 10.52063,14.82811 17.07328,24.00357c4.80013,6.7215 20.45138,7.77904 19.64211,16.29912c-1.91399,20.15072 -21.45521,34.77743 -43.64653,32.66962c-22.19132,-2.10781 -38.62936,-20.15192 -36.71535,-40.30269c1.914,-20.15075 21.45519,-34.77743 43.64651,-32.66962z" fill="#840000" stroke="#000000" stroke-linecap="butt"/><path d="M77.20643,36.82607c-5.85317,16.19252 2.0198,35.29521 11.73355,36.21784c19.75206,1.87612 53.98954,-26.31631 52.4795,-10.41829c-1.51005,15.898 -18.7464,27.265 -38.49847,25.38888c-13.37164,-1.27009 -34.8811,-15.06618 -40.51449,-33.28893c-1.50892,-4.88096 5.66741,-27.30903 17.13454,-36.46083c8.96086,-7.15156 22.66977,-1.53885 22.88373,-3.79155c0.76744,-8.07961 -19.1696,5.61932 -25.21835,22.35286z" fill="#430000" stroke="none" stroke-linecap="butt"/><path d="M107.22056,12.37675c12.60372,1.19714 10.17196,14.62086 16.75573,23.56561c5.00824,6.80424 20.78657,8.0311 19.95964,16.73705c-1.914,20.15075 -21.45521,34.77743 -43.64653,32.66962c-22.19134,-2.1078 -38.62937,-20.15195 -36.71537,-40.30269c1.914,-20.15075 21.45521,-34.77743 43.64653,-32.66962z" fill="none" stroke="#000000" stroke-linecap="butt"/><path d="M90.03502,178.36114l1.32447,-13.94411c0,0 88.30411,-15.19644 111.43494,-12.99938c21.09618,2.00379 21.8089,25.65536 21.8089,25.65536l-1.32447,13.94411c0,0 -45.82726,2.07913 -68.19323,-0.04527c-22.04402,-2.09381 -65.05064,-12.61071 -65.05064,-12.61071z" fill="#ffffff" stroke="#000000" stroke-linecap="butt"/><path d="M162.0542,143.93972c38.92123,3.69688 69.62227,15.65202 68.57266,26.7025c-0.2682,2.82363 -3.26356,3.65403 -5.19499,6.13839c-1.17722,1.51427 0.13969,5.18981 -3.38226,5.81551c-5.7464,1.02089 -6.28462,-13.95496 -15.81119,-14.45897c-12.54534,-0.66375 -34.91151,12.77379 -47.93573,11.5367c-15.25923,-1.44938 -46.73205,-0.1664 -58.05554,-2.80178c-17.55904,-4.08665 -11.20474,-12.89932 -10.56663,-19.61743c1.04962,-11.05048 33.45238,-17.0118 72.37365,-13.31492z" fill="#e2e2e2" stroke="none" stroke-linecap="butt"/><path d="M90.03499,178.36111l1.32447,-13.94411c0,0 88.76812,-13.00835 113.35797,-10.67272c15.68901,1.49018 19.88586,23.32868 19.88586,23.32868l-1.32447,13.94411c0,0 -46.89717,2.6922 -68.96873,0.59576c-22.33984,-2.12192 -64.27511,-13.25173 -64.27511,-13.25173z" fill="none" stroke="#000000" stroke-linecap="butt"/><path d="M172.88493,43.15378c44.49542,4.22634 77.35077,41.50337 73.38452,83.26059c-2.01564,21.2209 0.14487,42.65024 -15.85632,50.06169c-7.27763,3.37086 -13.10287,-15.41288 -25.22017,-16.19673c-13.66535,-0.88402 -33.86759,15.92161 -45.46604,14.81994c-20.58252,-1.955 -60.20768,-0.12479 -73.59347,-8.96387c-15.55171,-10.26935 -3.12768,-32.5846 -0.99612,-55.02593c3.96625,-41.75722 43.25218,-72.18201 87.74757,-67.95568z" fill="#840000" stroke="#000000" stroke-linecap="butt"/><path d="M189.60416,98.64874c22.93225,2.17819 17.04118,20.91633 16.06588,31.18449c-0.97531,10.26816 -20.3562,16.8264 -43.28845,14.64821c-22.93225,-2.17819 -80.61175,2.704 -79.63643,-7.56415c0.30733,-3.23553 -0.89617,-40.93619 15.65109,-66.2238c7.64922,-11.68958 34.31382,-20.50999 39.35373,-22.43595c7.61219,-2.90894 -35.68148,26.97635 -44.71845,54.22685c-5.03105,15.17085 21.65278,30.01866 23.04893,36.75293c1.71362,8.26568 17.39591,-19.68765 31.37064,-30.93282c4.31471,-3.47195 3.28016,-14.24141 4.34459,-14.1403c0,0 10.47253,10.74506 16.62474,11.47477c6.43768,0.76357 21.18374,-6.99026 21.18374,-6.99026z" fill="#430000" stroke="none" stroke-linecap="butt"/><path d="M172.9438,42.53406c44.49542,4.22634 77.35077,41.50337 73.38452,83.26059c-2.01564,21.2209 0.14487,42.65024 -15.85632,50.06169c-6.41588,2.97172 -10.72134,-16.98993 -21.17825,-17.41957c-14.78127,-0.60731 -36.69173,17.2601 -49.50795,16.04278c-20.58252,-1.955 -60.20768,-0.12479 -73.59347,-8.96387c-15.55171,-10.26935 -3.12768,-32.5846 -0.99612,-55.02593c3.96625,-41.75722 43.25218,-72.18201 87.74757,-67.95568z" fill="none" stroke="#000000" stroke-linecap="butt"/><path d="M107.34237,83.3616c4.55789,0.43292 19.84612,22.63149 28.65818,20.59756c8.79608,-2.03023 13.10112,-17.60023 18.41337,-15.53185c9.54799,3.7176 4.95458,21.94119 4.42394,27.52764c-1.12159,11.80839 6.59312,25.32678 -10.69163,23.68499c-17.28477,-1.64178 -56.58988,-0.02613 -55.46828,-11.83455c1.12159,-11.80839 -2.62032,-46.08558 14.66444,-44.4438z" fill="#000000" stroke="#000000" stroke-linecap="butt"/><path d="M233.69322,143.07551c-1.12159,11.80839 -39.41968,2.82175 -56.70444,1.17999c-17.28477,-1.64178 -7.1629,-13.46596 -6.04131,-25.27436c0.75759,-7.97605 2.44366,-16.69897 18.13362,-16.87976c7.53874,-0.08688 28.48816,-4.89328 34.09784,-4.36045c17.28477,1.64178 11.63589,33.52616 10.51429,45.33458z" data-paper-data="{&quot;index&quot;:null}" fill="#000000" stroke="#000000" stroke-linecap="butt"/><path d="M91.26027,135.71498c13.76983,-2.79658 44.26357,3.08878 67.69723,5.31461c25.14712,2.38856 55.06907,2.01638 67.79416,7.8529c7.71236,3.53735 3.44168,19.02675 3.09816,22.64324c-0.51649,5.43776 -5.48231,-12.87496 -22.11811,-12.98656c-12.68354,-0.08506 -34.59873,18.85534 -52.07065,17.19579c-17.91036,-1.7012 -48.72005,-3.04255 -61.19347,-6.78654c-15.65436,-4.69878 -10.7941,-12.17849 -10.28748,-17.51221c0.38213,-4.02311 -2.88243,-13.69789 7.08017,-15.72123z" fill="#7d3c3c" stroke="#000000" stroke-linecap="butt"/><path d="M114.9083,135.30638c6.7648,0.64254 -8.43863,1.3638 -16.58854,6.22883c-8.03113,4.79415 -9.02409,13.72063 -0.73674,16.00736c22.57157,6.22818 84.91971,-4.63062 116.65806,-2.62812c17.17953,1.08395 16.15316,15.4168 16.03359,16.67569c-0.25585,2.69366 -7.52763,-12.69231 -21.63535,-12.27223c-13.67786,0.40722 -33.87837,16.69197 -54.26547,14.75554c-41.41494,-3.93374 -74.57989,-11.42339 -74.07599,-16.72862c0.50391,-5.30525 -6.80449,-25.97219 34.61046,-22.03844z" fill="#5c2c2c" stroke="none" stroke-linecap="butt"/><path d="M92.61748,134.59322c13.76983,-2.79658 44.26357,3.08878 67.69723,5.31461c25.14712,2.38856 55.06907,2.01638 67.79416,7.8529c7.71236,3.53735 3.44168,19.02675 3.09816,22.64324c-0.54678,5.7567 -5.08273,-11.79298 -23.40131,-12.14973c-12.17772,-0.23715 -34.65973,17.89085 -50.78745,16.35898c-17.91036,-1.7012 -48.72005,-3.04255 -61.19347,-6.78654c-15.65436,-4.69878 -10.7941,-12.17849 -10.28748,-17.51221c0.38213,-4.02311 -2.88243,-13.69789 7.08017,-15.72123z" fill="none" stroke="#000000" stroke-linecap="butt"/><path d="M142.96737,117.73598c1.23947,0.11774 1.12176,1.35722 1.12176,1.35722c-0.19622,2.06582 -0.51016,5.37105 -0.70639,7.43686c0,0 -0.11774,1.23947 -1.35722,1.12176c-1.23947,-0.11774 -1.12176,-1.35722 -1.12176,-1.35722c0.19622,-2.06582 0.39241,-4.13158 0.58865,-6.1974l0.11774,-1.23947c0,0 0.11774,-1.23947 1.35722,-1.12176z" fill="#ffffff" stroke="none" stroke-linecap="butt"/><path d="M185.9648,119.31872c1.23947,0.11774 1.12176,1.35722 1.12176,1.35722l-0.05886,0.61974c-0.33459,3.52259 -1.35173,7.09634 -1.62046,10.47668c0,0 -0.11774,1.23947 -1.35722,1.12176c-1.23947,-0.11774 -1.12176,-1.35722 -1.12176,-1.35722c0.36646,-3.44983 1.28027,-6.89528 1.62046,-10.47668l0.05886,-0.61974c0,0 0.11774,-1.23947 1.35722,-1.12176z" fill="#ffffff" stroke="none" stroke-linecap="butt"/><path d="M163.05876,137.38198c12.92079,1.22726 22.99983,6.38412 22.51215,11.51823c-0.48766,5.13409 -11.35732,8.30119 -24.27811,7.07391c-12.92079,-1.22726 -22.99983,-6.38412 -22.51215,-11.51823c0.48766,-5.13409 11.35732,-8.30119 24.27811,-7.07391z" fill="#000000" stroke="#000000" stroke-linecap="butt"/><path d="M186.9421,37.7637c2.16217,-3.49291 11.84658,-11.02211 16.95595,-23.03567c9.15037,-21.51504 15.64805,-51.10917 23.46032,-52.83711c7.41451,-1.63993 9.31642,12.0937 18.33605,20.05991c11.02106,9.73391 28.93072,14.50981 33.94043,17.6109c3.14373,1.94603 25.14725,-2.37916 25.3606,1.44647c0.42447,7.61169 -16.28148,19.21553 -27.39597,32.09316c-11.44841,13.26451 -17.40358,27.82868 -23.17881,37.15831c-14.20004,22.93948 -29.17022,12.60097 -45.01185,2.79468c-15.84161,-9.80629 -36.66673,-12.35122 -22.46668,-35.29069z" fill="#410000" stroke="#000000" stroke-linecap="butt"/><path d="M203.1098,19.17679c4.39372,-7.09786 13.43154,-67.1712 29.68461,-57.11019c9.96488,6.16851 -20.25763,37.90778 -14.7427,62.68493c3.48011,15.63521 45.61557,28.11334 43.91565,30.85942c-4.39375,7.09785 -21.13127,4.69575 -37.38435,-5.36526c-16.25307,-10.06102 -25.86697,-23.97105 -21.47323,-31.06891z" fill="#170000" stroke="none" stroke-linecap="butt"/><path d="M186.88274,37.51123c2.16215,-3.4929 11.84654,-11.02207 16.95593,-23.03567c9.15037,-21.51504 15.64805,-51.10917 23.46032,-52.83711c7.31463,-1.61787 8.38276,12.48568 17.29285,20.29988c11.15741,9.78515 29.91874,14.23564 34.98362,17.37094c3.14373,1.94603 25.14722,-2.37917 25.36056,1.44646c0.4245,7.61169 -16.28146,19.21552 -27.39597,32.09316c-11.44842,13.26454 -17.40358,27.82868 -23.17881,37.15831c-14.20004,22.93948 -29.17022,12.60097 -45.01185,2.79468c-15.84162,-9.80632 -36.66673,-12.35122 -22.46668,-35.29069z" fill="none" stroke="#000000" stroke-linecap="butt"/><path d="M261.71055,89.14232c-3.69346,5.96659 -3.21894,18.30426 -17.18696,13.93968c-8.32579,-2.60158 -29.29994,-18.8658 -38.60597,-24.62643c-10.61753,-6.57247 -31.27987,-18.12152 -37.5347,-25.23757c-8.42485,-9.58483 -0.29385,-14.46981 3.08933,-19.9352c3.06822,-4.95657 9.19877,-12.90687 19.90746,-10.62859c9.86597,2.099 23.93648,13.91869 35.88547,21.31537c10.8703,6.72896 34.84979,17.24473 41.1244,24.51352c8.10903,9.39388 -3.35565,15.29043 -6.67902,20.6592z" data-paper-data="{&quot;index&quot;:null}" fill="#410000" stroke="#000000" stroke-linecap="butt"/><path d="M195.42177,25.7539c6.97411,1.32738 45.90416,24.00064 62.14323,36.14813c13.19831,9.87291 10.87316,11.45021 14.45962,13.67032c1.58447,0.98082 0.60213,14.09881 -5.53965,10.2143c-8.16254,-5.16257 -3.782,-12.24377 -16.21693,-22.31884c-13.62652,-11.04054 -49.66314,-28.39418 -57.84167,-29.46962c-5.19562,-0.6832 -9.47497,1.0052 -12.5918,3.4227c-4.03916,3.13292 -6.12598,7.49033 -5.7243,9.4974c2.13085,10.6477 82.25225,51.04203 80.00763,54.66813c-4.33007,6.99499 -39.88554,-14.90007 -59.3275,-26.93508c-19.44195,-12.03503 -31.69258,-27.46188 -27.36255,-34.45687c2.54853,-4.11699 9.90909,-17.88261 27.9939,-14.44057z" fill="#170000" stroke="none" stroke-linecap="butt"/><path d="M261.83788,89.68333c-3.69346,5.96659 -3.21893,18.30423 -17.18696,13.93968c-8.3258,-2.60154 -29.29994,-18.8658 -38.606,-24.62644c-10.61753,-6.57247 -31.27984,-18.12151 -37.5347,-25.23757c-8.42485,-9.58483 -0.29385,-14.46981 3.08933,-19.9352c3.0682,-4.95654 9.19878,-12.90686 19.90746,-10.62859c9.86597,2.09898 23.93648,13.91869 35.88547,21.31537c10.8703,6.72896 34.84979,17.24473 41.1244,24.51355c8.10903,9.39388 -3.35565,15.29043 -6.67902,20.6592z" data-paper-data="{&quot;index&quot;:null}" fill="none" stroke="#000000" stroke-linecap="butt"/><path d="M120.35874,172.85381l-1.07639,11.33237" fill="none" stroke="#000000" stroke-linecap="round"/><path d="M156.19375,175.54292l-1.34548,14.16548" fill="none" stroke="#000000" stroke-linecap="round"/><path d="M191.74578,192.49838l1.62856,-28.43185" fill="none" stroke="#000000" stroke-linecap="round"/><path d="M123.82903,95.51587l7.99442,-11.74725l-21.19216,-13.89417l10.50447,-5.25555l0.14551,-8.11547" fill="none" stroke="#000000" stroke-linecap="round"/><path d="M160.02099,170.18749l0.5768,-9.56506" fill="none" stroke="#000000" stroke-linecap="round"/></g><g stroke-linecap="butt"><path d="M-89.07208,602.91952c0,-24.10606 36.22085,-43.64791 80.90154,-43.64791c44.68069,0 80.90152,19.54181 80.90152,43.64791c0,12.02413 -0.67143,26.2488 -15.2499,34.14298c-14.64854,7.93213 -43.25771,9.50493 -65.65164,9.50493c-23.99475,0 -62.23045,-0.07562 -77.04602,-9.02758c-12.77253,-7.71751 -3.85552,-23.45987 -3.85552,-34.62033z" fill="#840000" stroke="#000000"/><path d="M-90.70109,626.03367c0,-4.19116 16.0552,5.69078 47.24926,7.96029c33.45357,2.43389 82.81614,-2.8023 102.25122,-10.16823c8.71071,-3.30137 6.30252,-18.39401 -3.34327,-30.92184c-10.51983,-13.66305 -28.48965,-24.69676 -20.77374,-24.69676c45.29485,0 38.64368,44.929 38.64368,57.82651c0,12.89751 -36.71873,23.35302 -82.01357,23.35302c-45.29485,0 -82.0136,-10.45551 -82.0136,-23.35302z" fill="#430000" stroke="none"/><path d="M-132.70859,613.19756c0,-24.10608 16.26437,-43.64791 36.32743,-43.64791c20.06309,0 36.32743,19.54181 36.32743,43.64791c0,12.02413 -0.3015,26.2488 -6.84768,34.14298c-6.57768,7.93213 -19.42415,9.50493 -29.47975,9.50493c-10.77442,0 -27.9435,-0.07562 -34.59618,-9.02758c-5.7353,-7.71751 -1.73128,-23.4599 -1.73128,-34.62033z" fill="#840000" stroke="#000000"/><path d="M-6.4634,560.42279c44.68069,0 80.90154,19.54183 80.90154,43.64791c0,12.02413 -0.67146,26.2488 -15.2499,34.14298c-14.64854,7.93213 -43.25771,9.50493 -65.65164,9.50493c-23.99475,0 -62.23043,-0.0756 -77.04602,-9.02755c-12.77253,-7.71751 -3.85552,-23.45992 -3.85552,-34.62036c0,-24.10608 36.22085,-43.64791 80.90154,-43.64791z" fill="none" stroke="#000000"/><path d="M-133.44004,636.31164c0,-4.19116 7.20932,5.69075 21.21648,7.96027c15.02175,2.43389 37.18714,-2.80227 45.91414,-10.16818c3.91139,-3.30137 2.83004,-18.39401 -1.50124,-30.92184c-4.72374,-13.66305 -12.79278,-24.69676 -9.32809,-24.69676c20.33887,0 17.35227,44.92903 17.35227,57.82654c0,12.89754 -16.48791,23.35302 -36.82677,23.35302c-20.33887,0 -36.82677,-10.45551 -36.82677,-23.35302z" fill="#430000" stroke="none"/><path d="M-131.94204,614.34867c0,-24.10608 16.26434,-43.64791 36.32743,-43.64791c20.06309,0 36.32743,19.54186 36.32743,43.64791c0,12.02413 -0.3015,26.2488 -6.84768,34.14298c-6.57768,7.93215 -19.42412,9.50491 -29.47972,9.50491c-10.77442,0 -27.9435,-0.0756 -34.59618,-9.02755c-5.7353,-7.71751 -1.73125,-23.4599 -1.73125,-34.62033z" fill="none" stroke="#000000"/><path d="M-30.15682,611.72551c0,-24.10608 16.26437,-43.64791 36.32743,-43.64791c20.06309,0 36.32743,19.54181 36.32743,43.64791c0,12.02413 -0.3015,26.2488 -6.84768,34.14298c-6.57768,7.93213 -19.42415,9.50493 -29.47975,9.50493c-10.77442,0 -27.9435,-0.07562 -34.59618,-9.02758c-5.7353,-7.71751 -1.73128,-23.4599 -1.73128,-34.62033z" fill="#840000" stroke="#000000"/><path d="M-30.88826,634.83961c0,-4.19116 7.20932,5.69075 21.21648,7.96027c15.02175,2.43389 37.18714,-2.80227 45.91414,-10.16818c3.91139,-3.30137 2.83004,-18.39401 -1.50124,-30.92184c-4.72374,-13.66305 -12.79278,-24.69676 -9.32809,-24.69676c20.33887,0 17.35227,44.92903 17.35227,57.82654c0,12.89754 -16.48791,23.35302 -36.82677,23.35302c-20.33887,0 -36.82677,-10.45551 -36.82677,-23.35302z" fill="#430000" stroke="none"/><path d="M-29.39026,612.87661c0,-24.10608 16.26434,-43.64791 36.32743,-43.64791c20.06309,0 36.32743,19.54186 36.32743,43.64791c0,12.02413 -0.3015,26.2488 -6.84768,34.14298c-6.57768,7.93215 -19.42412,9.50491 -29.47972,9.50491c-10.77442,0 -27.9435,-0.0756 -34.59618,-9.02755c-5.7353,-7.71751 -1.73125,-23.4599 -1.73125,-34.62033z" fill="none" stroke="#000000"/><path d="M-87.07551,611.23483c0,-24.10608 16.26437,-43.64791 36.32743,-43.64791c20.06309,0 36.32743,19.54181 36.32743,43.64791c0,12.02413 -0.3015,26.2488 -6.84768,34.14298c-6.57768,7.93213 -19.42415,9.50493 -29.47975,9.50493c-10.77442,0 -27.9435,-0.07562 -34.59618,-9.02758c-5.7353,-7.71751 -1.73128,-23.4599 -1.73128,-34.62033z" fill="#840000" stroke="#000000"/><path d="M-87.80696,634.34893c0,-4.19116 7.20932,5.69075 21.21648,7.96027c15.02175,2.43389 37.18714,-2.80227 45.91414,-10.16818c3.91139,-3.30137 2.83004,-18.39401 -1.50124,-30.92184c-4.72374,-13.66305 -12.79278,-24.69676 -9.32809,-24.69676c20.33887,0 17.35227,44.92903 17.35227,57.82654c0,12.89754 -16.48791,23.35302 -36.82677,23.35302c-20.33887,0 -36.82677,-10.45551 -36.82677,-23.35302z" fill="#430000" stroke="none"/><path d="M-86.30896,612.38596c0,-24.10608 16.26434,-43.64791 36.32743,-43.64791c20.06309,0 36.32743,19.54186 36.32743,43.64791c0,12.02413 -0.3015,26.2488 -6.84768,34.14298c-6.57768,7.93215 -19.42412,9.50491 -29.47972,9.50491c-10.77442,0 -27.9435,-0.0756 -34.59618,-9.02755c-5.7353,-7.71751 -1.73125,-23.4599 -1.73125,-34.62033z" fill="none" stroke="#000000"/></g><g data-paper-data="{&quot;index&quot;:null}" stroke-linecap="butt"><path d="M262.26771,607.27722c0,11.16046 8.91702,26.90283 -3.85552,34.62033c-14.81557,8.95195 -53.05127,9.02758 -77.04602,9.02758c-22.39393,0 -51.00311,-1.5728 -65.65164,-9.50493c-14.57846,-7.89418 -15.2499,-22.11885 -15.2499,-34.14298c0,-24.10611 36.22083,-43.64791 80.90152,-43.64791c44.68069,0 80.90154,19.54186 80.90154,43.64791z" fill="#840000" stroke="#000000"/><path d="M263.89671,630.39134c0,12.89751 -36.71875,23.35302 -82.0136,23.35302c-45.29485,0 -82.01357,-10.45551 -82.01357,-23.35302c0,-12.89751 -6.65117,-57.82651 38.64368,-57.82651c7.71591,0 -10.25391,11.03371 -20.77374,24.69676c-9.6458,12.52783 -12.05399,27.62048 -3.34327,30.92184c19.43508,7.36593 68.79765,12.60211 102.25122,10.16823c31.19406,-2.26951 47.24926,-12.15145 47.24926,-7.96029z" fill="#430000" stroke="none"/><path d="M305.90421,617.55526c0,11.16044 4.00403,26.90283 -1.73128,34.62033c-6.65268,8.95195 -23.82176,9.02758 -34.59618,9.02758c-10.0556,0 -22.90206,-1.5728 -29.47975,-9.50493c-6.54618,-7.89418 -6.84768,-22.11885 -6.84768,-34.14298c0,-24.10611 16.26434,-43.64791 36.32743,-43.64791c20.06306,0 36.32743,19.54183 36.32743,43.64791z" fill="#840000" stroke="#000000"/><path d="M260.56053,608.4284c0,11.16044 8.91702,26.90285 -3.85552,34.62036c-14.8156,8.95195 -53.05127,9.02755 -77.04602,9.02755c-22.39393,0 -51.00311,-1.5728 -65.65164,-9.50493c-14.57844,-7.89418 -15.2499,-22.11885 -15.2499,-34.14298c0,-24.10608 36.22085,-43.64791 80.90154,-43.64791c44.68069,0 80.90154,19.54183 80.90154,43.64791z" fill="none" stroke="#000000"/><path d="M306.63561,640.66936c0,12.89751 -16.48791,23.35302 -36.82677,23.35302c-20.33887,0 -36.82677,-10.45548 -36.82677,-23.35302c0,-12.89751 -2.98659,-57.82654 17.35227,-57.82654c3.46469,0 -4.60434,11.03371 -9.32809,24.69676c-4.33128,12.52783 -5.41263,27.62048 -1.50124,30.92184c8.727,7.3659 30.89239,12.60206 45.91414,10.16818c14.00716,-2.26951 21.21648,-12.15143 21.21648,-7.96027z" fill="#430000" stroke="none"/><path d="M305.13761,618.70637c0,11.16044 4.00405,26.90283 -1.73125,34.62033c-6.65268,8.95195 -23.82176,9.02755 -34.59618,9.02755c-10.0556,0 -22.90204,-1.57276 -29.47972,-9.50491c-6.54618,-7.89418 -6.84768,-22.11885 -6.84768,-34.14298c0,-24.10606 16.26434,-43.64791 36.32743,-43.64791c20.06309,0 36.32743,19.54183 36.32743,43.64791z" fill="none" stroke="#000000"/><path d="M203.35244,616.08321c0,11.16044 4.00403,26.90283 -1.73128,34.62033c-6.65268,8.95195 -23.82176,9.02758 -34.59618,9.02758c-10.0556,0 -22.90206,-1.5728 -29.47975,-9.50493c-6.54618,-7.89418 -6.84768,-22.11885 -6.84768,-34.14298c0,-24.10611 16.26434,-43.64791 36.32743,-43.64791c20.06306,0 36.32743,19.54183 36.32743,43.64791z" fill="#840000" stroke="#000000"/><path d="M204.08384,639.19733c0,12.89751 -16.48791,23.35302 -36.82677,23.35302c-20.33887,0 -36.82677,-10.45548 -36.82677,-23.35302c0,-12.89751 -2.98659,-57.82654 17.35227,-57.82654c3.46469,0 -4.60434,11.03371 -9.32809,24.69676c-4.33128,12.52783 -5.41263,27.62048 -1.50124,30.92184c8.727,7.3659 30.89239,12.60206 45.91414,10.16818c14.00716,-2.26951 21.21648,-12.15143 21.21648,-7.96027z" fill="#430000" stroke="none"/><path d="M202.58583,617.23431c0,11.16044 4.00405,26.90283 -1.73125,34.62033c-6.65268,8.95195 -23.82176,9.02755 -34.59618,9.02755c-10.0556,0 -22.90204,-1.57276 -29.47972,-9.50491c-6.54618,-7.89418 -6.84768,-22.11885 -6.84768,-34.14298c0,-24.10606 16.26434,-43.64791 36.32743,-43.64791c20.06309,0 36.32743,19.54183 36.32743,43.64791z" fill="none" stroke="#000000"/><path d="M260.27113,615.59253c0,11.16044 4.00403,26.90283 -1.73128,34.62033c-6.65268,8.95195 -23.82176,9.02758 -34.59618,9.02758c-10.0556,0 -22.90206,-1.5728 -29.47975,-9.50493c-6.54618,-7.89418 -6.84768,-22.11885 -6.84768,-34.14298c0,-24.10611 16.26434,-43.64791 36.32743,-43.64791c20.06306,0 36.32743,19.54183 36.32743,43.64791z" fill="#840000" stroke="#000000"/><path d="M261.00253,638.70665c0,12.89751 -16.48791,23.35302 -36.82677,23.35302c-20.33887,0 -36.82677,-10.45548 -36.82677,-23.35302c0,-12.89751 -2.98659,-57.82654 17.35227,-57.82654c3.46469,0 -4.60434,11.03371 -9.32809,24.69676c-4.33128,12.52783 -5.41263,27.62048 -1.50124,30.92184c8.727,7.3659 30.89239,12.60206 45.91414,10.16818c14.00716,-2.26951 21.21648,-12.15143 21.21648,-7.96027z" fill="#430000" stroke="none"/><path d="M259.50453,616.74366c0,11.16044 4.00405,26.90283 -1.73125,34.62033c-6.65268,8.95195 -23.82176,9.02755 -34.59618,9.02755c-10.0556,0 -22.90204,-1.57276 -29.47972,-9.50491c-6.54618,-7.89418 -6.84768,-22.11885 -6.84768,-34.14298c0,-24.10606 16.26434,-43.64791 36.32743,-43.64791c20.06309,0 36.32743,19.54183 36.32743,43.64791z" fill="none" stroke="#000000"/></g></g></g></svg>