<svg version="1.1" xmlns="http://www.w3.org/2000/svg" xmlns:xlink="http://www.w3.org/1999/xlink" width="576.47434" height="817.06819" viewBox="0,0,576.47434,817.06819"><g transform="translate(215.30932,104.44267)"><g data-paper-data="{&quot;isPaintingLayer&quot;:true}" fill-rule="nonzero" stroke-width="10" stroke-linejoin="miter" stroke-miterlimit="10" stroke-dasharray="" stroke-dashoffset="0" style="mix-blend-mode: normal"><g data-paper-data="{&quot;index&quot;:null}"><g stroke="#000000"><path d="M97.78907,188.8067c32.05782,-6.36734 88.30479,49.45929 120.21698,93.73825c15.19859,21.08848 22.05231,40.73033 23.41638,47.59806c4.22819,21.28779 -3.82865,44.79949 -51.15445,54.19935c-47.32577,9.39987 -89.11854,-0.2372 -93.34673,-21.52501c-4.2282,-21.28782 -46.45797,-164.61078 0.86782,-174.01065z" data-paper-data="{&quot;index&quot;:null}" fill="#1d00ff" stroke-linecap="butt"/><path d="" fill="none" stroke-linecap="round"/></g><path d="M245.91674,331.55626c3.96525,19.96394 -14.62607,40.479 -41.52485,45.82165c-26.89879,5.34264 -51.91905,-6.51026 -55.8843,-26.4742c-0.84682,-4.26346 27.45865,10.18409 49.96016,12.85032c17.20054,2.03813 30.44417,-5.65485 28.05282,-16.88232c-2.67205,-12.54532 16.3333,-21.86946 3.4483,-40.76059c-31.13656,-45.65027 -106.42823,-106.47711 -94.57157,-108.83209c26.89879,-5.34264 106.55421,114.31326 110.51944,134.27717z" fill="#0016ad" stroke="none" stroke-linecap="butt"/><g fill="none" stroke="#000000"><path d="M102.00997,186.44191c47.32577,-9.39987 139.40516,120.04849 143.63335,141.3363c4.22819,21.28779 -3.82865,44.79949 -51.15444,54.19936c-47.32577,9.39987 -89.11854,-0.2372 -93.34673,-21.52502c-4.2282,-21.28782 -46.45797,-164.61078 0.86783,-174.01064z" data-paper-data="{&quot;index&quot;:null}" stroke-linecap="butt"/><path d="M204.68777,267.35404l-59.54658,38.72221" stroke-linecap="round"/></g></g><g><g stroke="#000000"><path d="M32.18663,357.06069c-12.44425,17.78173 -54.57868,9.7695 -94.10993,-17.89579c-39.53124,-27.66528 -37.43579,-52.43061 -24.99157,-70.21231c4.0147,-5.73665 18.19912,-20.95433 40.60428,-34.13497c47.04361,-27.67512 121.01194,-56.11841 147.78983,-37.37835c39.53124,27.66528 -56.84837,141.83968 -69.29261,159.62141z" data-paper-data="{&quot;index&quot;:null}" fill="#2a00ff" stroke-linecap="butt"/><path d="" fill="none" stroke-linecap="round"/></g><path d="M-91.59774,268.43592c11.67035,-16.67589 132.77318,-94.11373 155.24176,-78.38948c9.90387,6.93106 -83.51002,32.28032 -130.39604,61.52302c-19.40248,12.10131 -5.76243,28.29056 -13.26107,38.69704c-6.71093,9.31331 2.31242,21.68889 18.87698,26.75131c21.66954,6.62257 53.39658,4.79947 50.90431,8.36071c-11.67035,16.67589 -39.34542,17.44736 -61.81399,1.7231c-22.46857,-15.72426 -31.22226,-41.98978 -19.55193,-58.66567z" fill="#1400ad" stroke="none" stroke-linecap="butt"/><g fill="none" stroke="#000000"><path d="M29.27577,353.19613c-12.44425,17.78173 -54.57868,9.7695 -94.10993,-17.89579c-39.53124,-27.66528 -37.43579,-52.43061 -24.99157,-70.21231c12.44425,-17.78173 148.86286,-99.1786 188.39411,-71.51332c39.53124,27.66528 -56.84837,141.83968 -69.29261,159.62141z" data-paper-data="{&quot;index&quot;:null}" stroke-linecap="butt"/><path d="M10.90477,285.70392l-38.90668,-59.42626" stroke-linecap="round"/></g></g><g stroke-linecap="butt"><path d="M103.16039,161.72218c11.93081,2.93826 46.97258,-42.45243 47.06922,-13.98951c0.06747,19.87298 12.65768,192.50983 6.42124,217.83296c-15.16854,61.592 -88.15962,24.1906 -108.42059,19.20084c-20.26097,-4.98976 -70.41152,-15.56966 -55.24298,-77.16165c15.16853,-61.59196 89.91214,-150.8724 110.17312,-145.88264z" fill="#3600ff" stroke="#000000"/><path d="M-7.8761,342.05676c1.49213,-6.05883 -0.64638,-42.05542 19.36525,-76.19444c17.08643,-29.1487 47.13612,-75.60789 71.65726,-93.75486c17.20529,-12.73284 30.01036,-2.97753 40.92364,-0.28987c8.10778,1.99674 -20.79399,-3.35203 -48.66477,22.29834c-36.33,33.43565 -75.3099,101.59029 -73.16471,124.28611c2.21069,23.38898 26.132,50.67953 57.00654,59.01319c42.84973,11.566 95.92873,-0.53538 94.69058,4.49212c-3.66007,14.86174 -42.85038,17.98871 -87.53402,6.98427c-44.68364,-11.00444 -77.9398,-31.97314 -74.27974,-46.83488z" fill="#0300ad" stroke="none"/><path d="M-6.32831,307.52699c15.16854,-61.592 89.91215,-150.87243 110.17312,-145.88267c11.93078,2.93825 46.97261,-42.45239 47.06922,-13.98947c0.06744,19.87297 12.65765,192.50982 6.4212,217.83295c-15.16854,61.592 -88.15962,24.1906 -108.42059,19.20084c-20.26097,-4.98976 -70.41153,-15.56966 -55.24299,-77.16166z" fill="none" stroke="#000000"/></g><g stroke-linecap="butt"><path d="M-193.02003,541.83997c8.04374,-32.66166 63.64061,-47.05294 124.17907,-32.14386c60.53846,14.90908 103.09384,53.47277 95.0501,86.13443c-4.01222,16.29165 -9.66845,35.3408 -32.05512,41.1722c-22.49428,5.85942 -61.78209,-1.55592 -92.12392,-9.02834c-32.5108,-8.00658 -84.2916,-20.86755 -101.37835,-37.94037c-14.73052,-14.71852 2.60419,-33.07266 6.32822,-48.1941z" fill="#5a3d00" stroke="#000000"/><path d="M-202.93982,572.61402c1.39851,-5.67867 19.85455,13.06781 61.36248,26.55165c44.51453,14.46053 113.14377,23.83729 141.93449,20.34225c12.90388,-1.56647 14.67709,-22.81926 5.78819,-43.01201c-9.69436,-22.0225 -30.36016,-42.96844 -19.90578,-40.39379c61.37059,15.11401 37.3669,73.7696 33.06325,91.24461c-4.30366,17.47505 -57.54317,19.389 -118.91379,4.27498c-61.37062,-15.11402 -107.63252,-41.53268 -103.32887,-59.00769z" fill="#352400" stroke="none"/><path d="M-191.09111,543.96928c8.04374,-32.66166 63.64061,-47.05294 124.17907,-32.14385c60.53849,14.90909 103.09386,53.4728 95.05013,86.13443c-4.01222,16.29165 -9.66848,35.34079 -32.05512,41.1722c-22.49429,5.85945 -61.78207,-1.55591 -92.12392,-9.02834c-32.5108,-8.00658 -84.2916,-20.86751 -101.37835,-37.94032c-14.73052,-14.71852 2.60422,-33.07266 6.32825,-48.1941z" fill="none" stroke="#000000"/></g><g data-paper-data="{&quot;index&quot;:null}" stroke-linecap="butt"><path d="M287.87243,661.01439c-3.72403,15.12144 3.10485,39.42643 -16.77604,45.62104c-23.06094,7.18546 -74.89221,-5.47059 -107.40304,-13.47718c-30.34183,-7.47242 -68.57999,-19.14975 -85.7807,-34.78505c-17.11839,-15.56049 -13.28166,-35.05774 -9.26944,-51.34939c8.04374,-32.66166 63.64058,-47.05294 124.17904,-32.14386c60.53846,14.90908 103.09387,53.4728 95.05014,86.13443z" fill="#5a3d00" stroke="#000000"/><path d="M282.36682,692.87558c-4.30365,17.47501 -57.54317,19.389 -118.91378,4.27498c-61.37062,-15.11402 -107.6325,-41.53267 -103.32884,-59.00768c4.30365,-17.47501 10.28382,-80.56929 71.65444,-65.45527c10.45439,2.57465 -17.57491,11.52822 -36.38745,26.5302c-17.2495,13.75552 -25.54853,33.40116 -14.84786,40.78083c23.87499,16.4653 89.00977,40.03122 135.14863,47.89631c43.02255,7.33387 68.07338,-0.69801 66.67487,4.98066z" fill="#352400" stroke="none"/><path d="M285.17526,662.00445c-3.72403,15.12144 3.10484,39.42646 -16.77604,45.62107c-23.06094,7.18546 -74.8922,-5.47062 -107.40303,-13.47721c-30.34183,-7.47242 -68.58001,-19.14976 -85.78069,-34.78504c-17.11839,-15.56049 -13.28166,-35.05774 -9.26944,-51.34939c8.04374,-32.66166 63.64061,-47.05294 124.17907,-32.14385c60.53846,14.90908 103.09387,53.47277 95.05014,86.13443z" fill="none" stroke="#000000"/></g><g><path d="M-128.36701,279.60334c20.32958,-17.10338 49.44507,-15.95002 65.0312,2.57614c15.58615,18.52613 11.74084,47.40962 -8.58873,64.513c-20.32959,17.10341 -49.4451,15.94999 -65.03122,-2.57616c-15.58618,-18.52615 -11.74084,-47.40962 8.58873,-64.513z" fill="#ffbea9" stroke="#000000" stroke-linecap="butt"/><path d="M-139.61954,295.22499c11.47636,-9.65515 37.44537,-42.26514 51.23841,-25.87029c2.31411,2.7506 -15.99882,7.52874 -27.90283,20.56817c-11.29157,12.36855 -16.16574,32.94391 -15.61902,38.43559c2.31239,23.22721 49.95714,19.73869 42.23251,26.23746c-11.47638,9.65511 -31.96129,4.19154 -45.75435,-12.2033c-13.79306,-16.39484 -15.6711,-37.51253 -4.19471,-47.16767z" fill="#ff9d7d" stroke="none" stroke-linecap="butt"/><path d="M-63.34246,282.25633c15.58618,18.52615 11.74084,47.40962 -8.58873,64.513c-20.32959,17.10341 -49.44504,15.95004 -65.03121,-2.57614c-15.58618,-18.52615 -11.74084,-47.40962 8.58873,-64.513c20.32959,-17.10341 49.44504,-15.95004 65.03121,2.57614z" fill="none" stroke="#000000" stroke-linecap="butt"/><g><g><g><path d="M-101.95849,382.09952c15.41113,-12.96546 -1.26606,-47.3021 5.07876,-39.76047c2.96544,3.52479 26.93623,-3.37856 32.47847,9.78026c6.3159,14.99576 -6.37237,50.38511 -14.58068,57.29083c-15.41115,12.96548 -33.04779,17.36238 -39.39261,9.82076c-6.34483,-7.54163 1.00488,-24.16591 16.41603,-37.13139z" fill="#ffbea9" stroke="#000000" stroke-linecap="butt"/><path d="M-89.6272,349.70077c2.69291,-9.97748 7.42378,-9.12799 8.73979,-7.56375c3.58621,4.26267 -9.64903,68.95381 -16.04302,74.3331c-6.39398,5.37928 -14.48453,6.28449 -18.07071,2.02184c-3.58619,-4.26265 -1.31003,-12.079 5.08396,-17.45829c4.04761,-3.40527 15.23048,-32.58716 20.28998,-51.3329z" fill="#ff9d7d" stroke="none" stroke-linecap="butt"/><path d="M-127.04591,377.74427c-1.68317,20.06922 -11.00923,35.6708 -20.83036,34.84713c-9.82113,-0.82368 -16.41821,-17.76072 -14.735,-37.82992c0.89651,-10.68932 22.45786,-41.48719 38.34738,-44.99237c13.94311,-3.07582 22.15249,20.47965 26.74269,20.86463c9.82113,0.82368 -27.8415,7.04133 -29.52467,27.11055z" fill="#ffbea9" stroke="#000000" stroke-linecap="butt"/><path d="M-137.90592,395.17711c-0.69833,8.32659 -5.7645,14.69922 -11.31555,14.23364c-5.55107,-0.46556 -9.48494,-7.59299 -8.78662,-15.91958c0.69833,-8.32659 45.86398,-56.49486 51.41503,-56.02928c2.03706,0.17085 5.4629,3.54222 -1.12674,11.50328c-12.38068,14.95729 -29.74408,40.94097 -30.18614,46.21196z" fill="#ff9d7d" stroke="none" stroke-linecap="butt"/><path d="M-152.88276,350.55977c-4.49111,19.63253 -15.92023,33.76619 -25.52766,31.5684c-9.60742,-2.19779 -13.75497,-19.89475 -9.26385,-39.52729c2.39207,-10.45673 28.07356,-37.91331 44.29823,-39.14719c14.23722,-1.08273 19.04953,23.39374 23.53981,24.42091c9.60742,2.19779 -28.5554,3.05264 -33.04652,22.68516z" fill="#ffbea9" stroke="#000000" stroke-linecap="butt"/><path d="M-166.08829,366.29053c-1.86335,8.1454 -7.77599,13.74156 -13.20626,12.49934c-5.43029,-1.24224 -8.32184,-8.85242 -6.45852,-16.99784c1.86335,-8.1454 53.35897,-49.47721 58.78924,-48.23499c1.99272,0.45584 4.90997,4.27583 -2.73457,11.2302c-14.36263,13.06585 -35.21033,36.34698 -36.38989,41.5033z" fill="#ff9d7d" stroke="none" stroke-linecap="butt"/><path d="M-175.90612,314.06317c-10.0459,17.45525 -25.11431,27.62029 -33.65627,22.7042c-8.54197,-4.91609 -7.32273,-23.05165 2.72319,-40.50692c5.35065,-9.29705 37.94933,-28.02481 53.82361,-24.45112c13.9297,3.13593 11.35985,27.94823 15.35217,30.24589c8.54197,4.91609 -28.19675,-5.44736 -38.24267,12.00792z" fill="#ffbea9" stroke="#000000" stroke-linecap="butt"/><path d="M-193.14089,325.23474c-4.16796,7.24209 -11.46071,10.86042 -16.28875,8.08175c-4.82804,-2.77867 -5.36315,-10.90207 -1.19515,-18.14414c4.16796,-7.24209 65.51314,-31.6733 70.34118,-28.89463c1.77173,1.01967 3.44181,5.52671 -5.90474,9.93626c-17.56039,8.28464 -44.31407,24.43631 -46.95253,29.02081z" fill="#ff9d7d" stroke="none" stroke-linecap="butt"/><path d="M-96.38687,343.00961c2.96544,3.52479 26.93623,-3.37855 32.47846,9.78025c6.3159,14.99576 -6.37237,50.38511 -14.58068,57.29083c-15.41113,12.96546 -33.0478,17.36236 -39.39261,9.82076c-6.3448,-7.54161 1.00493,-24.16591 16.41606,-37.13137c15.41113,-12.96546 -1.26602,-47.30209 5.07878,-39.76048z" fill="none" stroke="#000000" stroke-linecap="butt"/><path d="M-127.878,377.72926c-1.68317,20.06922 -11.00923,35.6708 -20.83036,34.84713c-9.82113,-0.82368 -16.4182,-17.76073 -14.735,-37.82993c0.89651,-10.68932 22.45786,-41.48719 38.34737,-44.99236c13.94311,-3.07582 22.1525,20.47965 26.74269,20.86463c9.82113,0.82368 -27.84151,7.04134 -29.52468,27.11056z" fill="none" stroke="#000000" stroke-linecap="butt"/><path d="M-153.31682,356.12254l24.3471,16.05676" fill="none" stroke="#000000" stroke-linecap="round"/><path d="M-153.70447,350.42778c-4.49111,19.63253 -15.92023,33.76619 -25.52766,31.5684c-9.60742,-2.19779 -13.75497,-19.89475 -9.26385,-39.52729c2.39207,-10.45673 28.07353,-37.91333 44.29823,-39.14719c14.23722,-1.08273 19.04952,23.39374 23.53983,24.42093c9.60742,2.19779 -28.55539,3.05262 -33.04652,22.68517z" fill="none" stroke="#000000" stroke-linecap="butt"/><path d="M-176.65306,313.69622c-10.0459,17.45525 -25.11432,27.62029 -33.65626,22.70422c-8.54197,-4.91609 -7.32273,-23.05165 2.72317,-40.5069c5.35065,-9.29705 37.94933,-28.02485 53.82358,-24.45114c13.9297,3.13593 11.35985,27.94823 15.35216,30.24592c8.54197,4.91609 -28.19674,-5.44735 -38.24263,12.00791z" fill="none" stroke="#000000" stroke-linecap="butt"/></g><path d="M-175.84897,325.4557l21.84479,19.32371" fill="none" stroke="#000000" stroke-linecap="round"/><path d="M-190.50966,283.33217l15.22486,24.87575" fill="none" stroke="#000000" stroke-linecap="round"/></g><path d="M-69.13452,391.05738l-27.16996,-10.60158" fill="none" stroke="#000000" stroke-linecap="round"/></g></g><g data-paper-data="{&quot;index&quot;:null}"><path d="M276.15863,375.03907c7.47158,25.49496 -5.30583,51.68235 -28.53916,58.49111c-23.2333,6.8088 -48.12459,-8.33935 -55.59617,-33.83434c-7.47158,-25.49496 5.30586,-51.68235 28.53916,-58.49111c23.2333,-6.8088 48.12456,8.33938 55.59614,33.83434z" fill="#ffbea9" stroke="#000000" stroke-linecap="butt"/><path d="M276.88883,394.27759c4.21784,14.39233 -9.0305,30.94422 -29.59096,36.9697c-20.56046,6.02548 -40.64722,-0.75722 -44.86506,-15.14951c-2.83898,-9.68731 34.91887,19.57936 49.69615,1.51054c3.49384,-4.27208 10.81755,-24.10806 8.25493,-40.65839c-2.7016,-17.44802 -15.31259,-31.56033 -11.8631,-32.57123c20.56046,-6.02548 24.15022,35.5066 28.36804,49.89892z" fill="#ff9d7d" stroke="none" stroke-linecap="butt"/><path d="M276.12163,375.10677c7.47158,25.49496 -5.30583,51.68235 -28.53916,58.49111c-23.23333,6.80879 -48.12456,-8.33935 -55.59614,-33.83434c-7.47158,-25.49496 5.30582,-51.68235 28.53915,-58.49111c23.23333,-6.80879 48.12456,8.33935 55.59614,33.83434z" fill="none" stroke="#000000" stroke-linecap="butt"/><g><g><g><path d="M197.45163,445.8069c5.66394,19.32685 2.58841,37.24126 -6.86943,40.01296c-9.45783,2.7717 -21.71641,-10.64883 -27.38035,-29.97569c-3.01672,-10.29391 5.99409,-46.79329 19.55203,-55.79027c11.89714,-7.89486 28.04529,11.11808 32.46567,9.82265c9.45783,-2.7717 -23.4319,16.60352 -17.76796,35.93034z" fill="#ffbea9" stroke="#000000" stroke-linecap="butt"/><path d="M193.60534,465.98236c2.34993,8.01858 -0.07863,15.78892 -5.42434,17.35555c-5.3457,1.56663 -11.58428,-3.66371 -13.93422,-11.68229c-2.34993,-8.01858 22.41725,-69.22889 27.76299,-70.79552c1.9617,-0.57489 6.37249,1.33497 3.09537,11.13612c-6.15703,18.41446 -12.98738,48.91011 -11.4998,53.98615z" fill="#ff9d7d" stroke="none" stroke-linecap="butt"/><path d="M220.75897,456.05928c9.70175,-17.64886 -18.23104,-43.66602 -9.59433,-38.91834c4.03662,2.21896 23.90772,-12.86062 33.82051,-2.58408c11.2966,11.7111 12.21739,49.29505 7.05003,58.69525c-9.70172,17.64887 -24.56794,28.10736 -33.20464,23.35969c-8.6367,-4.74769 -7.77328,-22.90365 1.92848,-40.55252z" fill="#ffbea9" stroke="#000000" stroke-linecap="butt"/><path d="M220.1602,476.58941c2.54808,-4.63531 2.46058,-35.88642 0.42303,-55.19574c-1.08448,-10.27744 3.63454,-11.19034 5.42593,-10.2056c4.88161,2.68344 15.8541,67.7966 11.82889,75.11899c-4.02521,7.32239 -11.24557,11.083 -16.12717,8.39953c-4.88161,-2.68344 -5.57589,-10.79483 -1.55067,-18.11723z" fill="#ff9d7d" stroke="none" stroke-linecap="butt"/><path d="M242.34512,410.52903c4.3087,1.62874 21.85961,-16.09756 33.12012,-7.31852c12.83244,10.00456 19.03396,47.08479 15.24108,57.1187c-7.12114,18.83867 -20.36736,31.28546 -29.58631,27.80065c-9.21894,-3.48481 -10.91954,-21.58159 -3.7984,-40.42026c7.12114,-18.83867 -24.19544,-40.66537 -14.97649,-37.18056z" fill="#ffbea9" stroke="#000000" stroke-linecap="butt"/><path d="M252.26844,413.41376c-2.52019,-10.02251 2.02338,-11.59051 3.93552,-10.8677c5.21069,1.96968 25.23847,64.89029 22.28397,72.70634c-2.95453,7.81605 -9.57371,12.55549 -14.78444,10.58582c-5.21069,-1.96968 -7.03969,-9.90259 -4.08519,-17.71863c1.8703,-4.94783 -2.61487,-35.87549 -7.34987,-54.70583z" fill="#ff9d7d" stroke="none" stroke-linecap="butt"/><path d="M296.69272,430.04628c1.28938,-20.09837 -35.04774,-31.79233 -25.21234,-31.16135c4.59684,0.29491 16.18424,-21.79551 29.52267,-16.70075c15.20046,5.806 31.99345,39.44227 31.30669,50.14708c-1.28938,20.09837 -10.30773,35.87981 -20.14313,35.24883c-9.8354,-0.63098 -16.76327,-17.43544 -15.47389,-37.53379z" fill="#ffbea9" stroke="#000000" stroke-linecap="butt"/><path d="M304.86824,448.88785c0.33866,-5.27868 -13.01074,-33.53517 -23.05479,-50.15201c-5.34595,-8.84436 -1.46114,-11.6747 0.57886,-11.54383c5.55911,0.35663 43.14227,54.64862 42.6073,62.98731c-0.53494,8.33867 -5.47518,14.80939 -11.03429,14.45276c-5.55911,-0.35663 -9.63202,-7.40559 -9.09705,-15.74427z" fill="#ff9d7d" stroke="none" stroke-linecap="butt"/><path d="M196.67006,446.09281c5.66394,19.32682 2.58841,37.24125 -6.86939,40.01295c-9.4578,2.77171 -21.7164,-10.64886 -27.38035,-29.97568c-3.01672,-10.29391 5.99408,-46.7933 19.55203,-55.79027c11.89714,-7.89486 28.04529,11.11809 32.46566,9.82266c9.4578,-2.77171 -23.4319,16.60352 -17.76796,35.93034z" fill="none" stroke="#000000" stroke-linecap="butt"/><path d="M221.46042,456.50715c9.70175,-17.64886 -18.23104,-43.66603 -9.59434,-38.91835c4.03662,2.21896 23.90772,-12.86062 33.82052,-2.58407c11.2966,11.7111 12.21738,49.29505 7.05001,58.69524c-9.70172,17.64887 -24.56794,28.10737 -33.20464,23.35969c-8.6367,-4.74769 -7.77328,-22.90365 1.92848,-40.55252z" fill="none" stroke="#000000" stroke-linecap="butt"/><path d="M225.44052,452.48808l29.16491,0.09545" fill="none" stroke="#000000" stroke-linecap="round"/><path d="M258.07908,448.05428c7.12114,-18.8387 -24.19543,-40.66538 -14.97649,-37.18056c4.30873,1.62874 21.85964,-16.09756 33.12016,-7.31852c12.83247,10.00456 19.03396,47.08477 15.24107,57.11869c-7.12114,18.83867 -20.36736,31.28546 -29.58631,27.80065c-9.21894,-3.48481 -10.91953,-21.58158 -3.7984,-40.42025z" fill="none" stroke="#000000" stroke-linecap="butt"/><path d="M297.51791,430.15391c1.28941,-20.09834 -35.04771,-31.7923 -25.21231,-31.16132c4.59684,0.29488 16.18423,-21.79554 29.52268,-16.70078c15.20046,5.80596 31.99342,39.44226 31.30666,50.14707c-1.28938,20.09834 -10.30774,35.8798 -20.14314,35.24881c-9.83537,-0.63098 -16.76323,-17.43545 -15.47385,-37.53378z" fill="none" stroke="#000000" stroke-linecap="butt"/></g><path d="M290.3419,439.50465l-28.888,4.01038" fill="none" stroke="#000000" stroke-linecap="round"/><path d="M325.86018,412.52728l-26.44544,12.29787" fill="none" stroke="#000000" stroke-linecap="round"/></g><path d="M193.65125,441.30945l-28.49812,-6.20143" fill="none" stroke="#000000" stroke-linecap="round"/></g></g><g stroke-linecap="butt"><g><path d="M38.21621,129.32741c-4.65451,-58.03884 44.10477,-109.30156 108.90696,-114.49847c64.80218,-5.19692 121.10794,37.6399 125.76246,95.67875c4.65451,58.03884 -44.10477,109.30156 -108.90696,114.49847c-64.80218,5.19692 -121.10795,-37.63993 -125.76246,-95.67877z" fill="#ffbea9" stroke="#000000"/><path d="M263.17817,87.18773c-33.80418,-41.09597 -49.41667,-84.1099 -34.87146,-96.07431c14.54521,-11.96441 53.74011,11.65142 87.5443,52.74739c33.80418,41.096 49.41664,84.1099 34.87143,96.07432c-14.54521,11.96441 -53.74012,-11.65142 -87.54431,-52.74739z" fill="#1000ff" stroke="#000000"/><path d="M273.00987,96.71463c-0.83644,-10.42971 -48.49891,-40.45813 -28.53347,-42.05929c19.96545,-1.60116 41.85634,36.64842 42.69275,47.07813c0.25073,3.1264 36.63536,29.90439 47.44206,20.08181c7.41071,-6.73587 5.79094,-38.88101 11.09532,-35.67164c12.76481,7.7233 9.48397,55.93039 -0.39249,56.72244c-19.96545,1.60116 -71.46779,-35.72175 -72.3042,-46.15146z" fill="#0c00b3" stroke="none"/><path d="M227.14102,-9.87915c14.54521,-11.96441 53.74012,11.65142 87.54431,52.74739c33.80418,41.09597 49.41667,84.10991 34.87146,96.07432c-14.54521,11.96441 -53.74012,-11.65142 -87.54431,-52.74739c-33.80418,-41.09597 -49.41667,-84.10991 -34.87146,-96.07432z" fill="none" stroke="#000000"/><path d="M219.21259,-79.80056c52.14854,-4.18214 97.36798,29.14621 101.00047,74.44091c3.63248,45.29474 -35.69757,85.40365 -87.84607,89.58579c-52.14851,4.18214 -97.36795,-29.14624 -101.00044,-74.44094c-3.63248,-45.2947 35.69751,-85.40363 87.84605,-89.58576z" fill="#ff0000" stroke="#000000"/><path d="M209.32832,33.9427c-1.76844,-22.05137 -37.0198,-105.63746 -8.11463,-107.95557c16.86809,-1.35276 20.97825,90.57265 50.39704,110.66458c20.99328,14.33765 71.70906,-43.90005 72.44549,-34.7171c1.76844,22.05137 -30.2832,65.42027 -59.18837,67.73837c-28.9052,2.31811 -53.77108,-13.67889 -55.53953,-35.73025z" fill="#dc0000" stroke="none"/><path d="M219.21259,-79.80053c52.14854,-4.18214 97.36798,29.14621 101.00047,74.44091c3.63248,45.2947 -35.69753,85.40362 -87.84608,89.58576c-52.14854,4.18214 -97.36799,-29.14621 -101.00047,-74.44091c-3.63248,-45.2947 35.69754,-85.40362 87.84609,-89.58576z" fill="none" stroke="#000000"/><path d="M61.34553,173.44587c-0.58024,-7.23519 45.76373,40.47011 104.90357,35.72729c59.13983,-4.74282 100.31943,-57.1742 100.89967,-49.93899c0.58024,7.23519 -37.95265,56.92911 -97.09249,61.67193c-59.13983,4.74282 -108.1305,-40.22499 -108.71074,-47.4602z" fill="#ff9d7d" stroke="none"/><path d="M-5.22185,84.23323c0,0 73.21831,-180.87927 129.69032,-183.68205c56.47194,-2.80277 134.85985,92.58624 137.66259,149.05823c2.80277,56.47194 -46.39818,-53.21986 -102.87015,-50.41713c-4.57924,0.22726 -164.48279,85.04097 -164.48279,85.04097z" fill="#ffb300" stroke="#000000"/><path d="M43.0909,31.97961c17.11103,1.42139 60.76536,-41.62182 91.56923,-50.60218c41.8661,-12.2054 71.09003,8.85191 80.72197,14.52988c27.04091,15.94036 54.54873,57.75792 50.9052,63.9387c-3.6435,6.18079 -37.0586,-25.61577 -64.0995,-41.55614c-4.02765,-2.37426 -12.1119,-18.74039 -29.40633,-18.06206c-21.7621,0.85359 -55.24955,20.11591 -81.41116,31.61262c-41.62818,18.29347 -75.28444,59.26844 -92.67451,54.90454c-21.30728,-5.3469 57.65016,-109.91352 58.98153,-112.17201c1.39078,-2.35933 -39.50847,55.3364 -14.58643,57.40663z" fill="#e4a000" stroke="none"/><path d="M-2.80688,84.40015c0,0 73.21831,-180.87927 129.69032,-183.68205c56.47194,-2.80277 134.85985,92.58624 137.66259,149.05823c2.80277,56.47194 -46.39818,-53.21986 -102.87015,-50.41713c-4.57924,0.22726 -164.48279,85.04097 -164.48279,85.04097z" fill="none" stroke="#000000"/><path d="M57.77095,59.75353c18.38326,-27.10232 53.63096,-43.84024 90.33971,-46.78415c35.69776,-2.86284 74.62247,7.80598 99.00517,30.31755c20.5238,18.94879 29.36993,47.90247 30.99565,68.17416c3.55712,44.3549 -51.37345,56.85893 -117.11937,62.13153c-65.74591,5.2726 -114.51688,1.65833 -118.074,-42.69657c-1.57103,-19.58964 0.31144,-49.70423 14.85285,-71.14253z" fill="#ffbea9" stroke="#000000"/><path d="M151.16517,12.54505c64.80218,-5.19692 121.10795,37.63993 125.76246,95.67877c4.65451,58.03884 -44.1048,109.30156 -108.90696,114.49847c-64.80218,5.19692 -121.10795,-37.63994 -125.76246,-95.67878c-4.65451,-58.03884 44.1048,-109.30156 108.90696,-114.49847z" fill="none" stroke="#000000"/><path d="M49.76326,152.68769c-0.26454,-3.29865 -9.1456,-11.39923 -9.93804,-22.07791c-1.69281,-22.81249 6.97793,-57.30405 28.70497,-81.27298c13.43832,-14.82495 54.18194,-30.40688 79.9011,-34.13946c10.68765,-1.55111 12.20373,5.63684 18.5515,5.12777c11.02124,-0.88387 -54.93234,8.02099 -84.81508,38.07745c-33.53441,33.72931 -31.24,89.36459 -11.95801,94.91708c20.95561,6.03443 62.4291,10.2023 98.19977,3.69764c56.02012,-10.1869 106.49519,-34.73586 106.97689,-28.72952c1.32446,16.51511 -55.41341,40.84528 -113.29495,45.48718c-57.88157,4.6419 -111.00379,-4.57212 -112.32824,-21.08723z" fill="#ff9d7d" stroke="none"/><path d="M42.70626,131.24629c-1.57103,-19.58964 0.31141,-49.70421 14.85281,-71.14253c18.38325,-27.10228 53.63096,-43.84024 90.33971,-46.78415c35.69778,-2.86284 74.62247,7.80598 99.00517,30.31755c20.52378,18.94883 29.3699,47.9025 30.99562,68.1742c3.5571,44.35487 -51.3735,56.8589 -117.11937,62.1315c-65.74587,5.2726 -114.51685,1.65832 -118.07396,-42.69655z" fill="none" stroke="#000000"/><path d="M40.68268,214.4675c0,0 -44.11649,-190.08416 0.47196,-224.85208c44.58841,-34.76793 163.57299,-1.80733 198.34091,42.78113c34.76793,44.58841 -68.56355,-16.85776 -113.152,17.91017c-3.61563,2.81929 -85.66088,164.16079 -85.66088,164.16079z" fill="#ffb300" stroke="#000000"/><path d="M29.07949,88.58237c-0.21893,-2.72997 -0.50028,67.99108 21.07919,55.353c14.81605,-8.67708 25.77748,-68.99512 45.81411,-94.05619c27.23217,-34.06102 63.24983,-33.63945 74.39498,-34.53326c31.28911,-2.50929 77.84125,15.8833 78.4148,23.03511c0.57355,7.1518 -45.04868,0.35456 -76.33779,2.86384c-4.66038,0.37375 -20.68577,-8.36652 -34.4444,2.13378c-17.31294,13.2129 -33.63224,48.22899 -48.42392,72.67914c-23.53645,38.90492 -27.50774,91.78139 -44.24424,98.21164c-20.50654,7.87871 -16.04316,-123.07372 -16.25273,-125.68702z" fill="#e4a000" stroke="none"/><path d="M42.7544,213.2153c0,0 -44.11653,-190.08411 0.47193,-224.85206c44.58841,-34.76793 163.57299,-1.80736 198.34092,42.7811c34.76793,44.58841 -68.56355,-16.85776 -113.152,17.91017c-3.61563,2.81929 -85.66084,164.16082 -85.66084,164.16082z" fill="none" stroke="#000000"/></g><path d="M154.47406,75.99881c28.4284,-2.27986 52.76441,11.96051 54.35601,31.80675c1.5916,19.84624 -20.16392,37.78298 -48.59231,40.06285c-28.4284,2.27986 -52.76441,-11.9605 -54.35601,-31.80674c-1.5916,-19.84624 20.16391,-37.78299 48.59231,-40.06286z" fill="#ff9d7d" stroke="none"/><path d="M111.96389,70.20588c15.75381,-1.2634 29.94292,15.39533 31.69224,37.2083c1.74932,21.81297 -9.60357,40.52009 -25.35738,41.78349c-15.75381,1.2634 -31.80171,-5.52959 -33.55103,-27.3426c-1.74932,-21.81297 11.46235,-50.38579 27.21616,-51.64921z" fill="#000000" stroke="#000000"/><path d="M232.9546,109.1585c1.72065,21.45541 -12.79759,30.56725 -28.29313,31.80995c-15.49554,1.24269 -29.45207,-15.14293 -31.17272,-36.59833c-1.72065,-21.45541 9.44612,-39.85583 24.94169,-41.09852c15.49554,-1.24269 32.80351,24.43154 34.52415,45.88691z" data-paper-data="{&quot;index&quot;:null}" fill="#000000" stroke="#000000"/></g></g></g></svg>