<svg version="1.1" xmlns="http://www.w3.org/2000/svg" xmlns:xlink="http://www.w3.org/1999/xlink" width="744.3839" height="717.86318" viewBox="0,0,744.3839,717.86318"><g transform="translate(250.10338,-13.65316)"><g data-paper-data="{&quot;isPaintingLayer&quot;:true}" fill-rule="nonzero" stroke-linejoin="miter" stroke-miterlimit="10" stroke-dasharray="" stroke-dashoffset="0" style="mix-blend-mode: normal"><g stroke-width="7.5" stroke-linecap="butt"><g><path d="M18.91747,657.2709l15.85587,-215.99916l37.54272,2.7559l-15.85587,215.99916z" fill="#7c7c7c" stroke="#000000"/><path d="M37.94307,437.33748c6.24077,0.45814 -5.42785,104.66193 -1.3241,159.8166c3.36708,45.25382 23.15602,42.87513 22.8318,47.29156c-0.71931,9.79906 -10.51253,17.0667 -21.87378,16.2327c-11.36125,-0.834 -19.98822,-9.45379 -19.26892,-19.25287c0.71931,-9.79906 8.27375,-204.92198 19.63498,-204.088z" fill="#4c4c4c" stroke="none"/><path d="M18.91747,657.2709l15.85587,-215.99915l37.54272,2.75589l-15.85587,215.99915z" fill="none" stroke="#000000"/></g><g><path d="M23.30242,391.06567c6.85172,-6.01235 29.98608,-4.87595 38.23472,-4.20718c9.524,0.77219 31.86077,-6.77916 37.97811,2.24201c7.83075,11.54789 -1.96488,41.72647 -3.45078,60.05368c-2.64668,32.64436 -22.39618,57.68057 -44.11177,55.91995c-4.10257,-0.33263 -2.71729,-60.15004 -6.29332,-62.20379c-7.93042,-4.55453 -26.40086,76.27493 -31.83567,80.64305c-5.08639,4.08808 2.56386,-67.93483 3.60165,-80.73494c1.64133,-20.24442 -5.3092,-41.89687 5.87705,-51.71277z" fill="#5d9000" stroke="#000000"/><path d="M41.46435,444.95728c-7.58721,13.96841 -18.26119,77.69187 -22.46946,71.33679c-10.0631,-15.19662 -1.96787,-108.91475 5.17387,-119.5429c2.30857,-3.43556 -7.90921,55.12467 -2.69847,65.39227c4.87651,9.60901 14.88292,-31.65869 22.04471,-34.27886c12.08939,-4.42297 25.12373,60.80175 27.11654,60.96332c11.63841,0.94359 26.32202,-31.12481 25.20581,-17.35741c-1.11621,13.7674 -18.29039,31.88677 -29.92881,30.94318c-2.42316,-0.19645 -6.29062,2.78305 -7.91611,1.18677c-6.18172,-6.07063 -5.18534,-24.64603 -4.30152,-35.547c0.16008,-1.97448 -4.4664,-37.38296 -12.22656,-23.09615z" fill="#517c00" stroke="none"/><path d="M23.30242,391.06567c6.8517,-6.01234 29.98608,-4.87593 38.23472,-4.20717c9.524,0.77217 31.86075,-6.77917 37.97809,2.24199c7.83074,11.54791 -1.96488,41.72649 -3.45078,60.0537c-2.64666,32.64434 -22.39618,57.68055 -44.11177,55.91994c-4.10257,-0.33263 -2.71729,-60.15004 -6.29332,-62.20379c-7.93042,-4.55453 -26.40086,76.27495 -31.83567,80.64305c-5.08637,4.08808 2.56388,-67.93483 3.60167,-80.73494c1.64135,-20.24442 -5.3092,-41.89687 5.87705,-51.71277z" fill="none" stroke="#000000"/></g><g><g><path d="M-50.34655,702.80018l0.53251,-51.66236l110.66034,3.08133l-0.53251,51.66237z" fill="#252525" stroke="#000000"/><path d="M-50.34655,702.80018l0.53251,-51.66236l110.66034,3.08133l-0.53251,51.66237z" fill="#252525" stroke="#000000"/><path d="M-50.34655,702.80018l0.53251,-51.66236l110.66034,3.08133l-0.53251,51.66237z" fill="none" stroke="#000000"/><path d="M-49.13593,654.8805c0.03872,-3.75515 1.65746,18.31669 8.34529,26.84874c6.37893,8.13798 17.64957,2.66665 25.2457,2.87818c7.38506,0.20567 38.63024,11.12814 56.86347,1.53448c11.07197,-5.82565 10.29806,-35.49054 16.75151,-32.88217c5.31094,2.14657 1.47114,50.52305 1.4532,52.26322c-0.07562,7.33687 -59.78195,1.06118 -75.34205,0.6279c-10.00011,-0.27846 -26.88068,6.58687 -33.40115,-9.71978c-3.62533,-9.06635 0.05699,-38.92893 0.08401,-41.55056z" fill="#141414" stroke="none"/><path d="M-50.34655,702.80018l0.53251,-51.66236l110.66034,3.08133l-0.53251,51.66237z" fill="none" stroke="#000000"/></g><g><path d="M-82.41565,716.20225l0.26096,-51.66236l54.23044,3.08133l-0.26096,51.66239z" fill="#252525" stroke="#000000"/><path d="M-82.41565,716.20225l0.26096,-51.66236l54.23044,3.08133l-0.26096,51.66239z" fill="#6c6c6c" stroke="#000000"/><path d="M-82.41565,716.20225l0.26096,-51.66236l54.23044,3.08133l-0.26096,51.66239z" fill="none" stroke="#000000"/><path d="M-77.73267,695.13131c3.12607,8.13796 8.64938,2.66665 12.37197,2.87816c3.61914,0.20567 18.93121,11.12814 27.86663,1.53448c5.42595,-5.82563 5.04669,-35.49052 8.20927,-32.88215c2.60269,2.14657 0.72096,50.52305 0.71217,52.26322c-0.03708,7.33687 -29.29687,1.0612 -36.92229,0.62792c-4.90068,-0.27848 -13.17322,6.58685 -16.36864,-9.7198c-1.77664,-9.06637 0.02795,-38.92893 0.04118,-41.55056c0.01898,-3.75513 0.81226,18.31669 4.08971,26.84872z" fill="#545454" stroke="none"/><path d="M-82.41565,716.20225l0.26096,-51.66236l54.23044,3.08133l-0.26096,51.66239z" fill="none" stroke="#000000"/></g><g><path d="M-0.88642,720.94882l0.26096,-51.66236l54.23044,3.08133l-0.26098,51.66239z" fill="#252525" stroke="#000000"/><path d="M-0.88642,720.94882l0.26096,-51.66236l54.23044,3.08133l-0.26098,51.66239z" fill="#6c6c6c" stroke="#000000"/><path d="M-0.88642,720.94882l0.26096,-51.66236l54.23044,3.08133l-0.26098,51.66239z" fill="none" stroke="#000000"/><path d="M-0.29314,673.02918c0.01896,-3.75513 0.81224,18.31669 4.08969,26.84872c3.12609,8.13798 8.64941,2.66667 12.37199,2.87818c3.61912,0.20565 18.93119,11.12812 27.86661,1.53447c5.42596,-5.82563 5.04669,-35.49052 8.20929,-32.88215c2.60269,2.14656 0.72096,50.52305 0.71217,52.26322c-0.03706,7.33687 -29.29685,1.06118 -36.92227,0.6279c-4.90068,-0.27848 -13.17323,6.58685 -16.36866,-9.7198c-1.77662,-9.06637 0.02795,-38.92893 0.04118,-41.55056z" fill="#545454" stroke="none"/><path d="M-0.88642,720.94882l0.26096,-51.66236l54.23044,3.08133l-0.26098,51.66239z" fill="none" stroke="#000000"/></g><g><path d="M-45.55997,720.6696l0.26096,-51.66236l54.23044,3.08133l-0.26096,51.66239z" fill="#252525" stroke="#000000"/><path d="M-45.55997,720.6696l0.26096,-51.66236l54.23044,3.08133l-0.26096,51.66239z" fill="#6c6c6c" stroke="#000000"/><path d="M-45.55997,720.6696l0.26096,-51.66236l54.23044,3.08133l-0.26096,51.66239z" fill="none" stroke="#000000"/><path d="M-44.96669,672.74996c0.01895,-3.75513 0.81224,18.31671 4.08969,26.84874c3.12607,8.13798 8.6494,2.66665 12.37197,2.87816c3.61912,0.20565 18.93119,11.12814 27.86661,1.53448c5.42596,-5.82563 5.04669,-35.49054 8.20929,-32.88217c2.60267,2.14656 0.72096,50.52305 0.71217,52.26322c-0.03706,7.33687 -29.29685,1.06118 -36.92227,0.6279c-4.90067,-0.27848 -13.17322,6.58685 -16.36864,-9.7198c-1.77662,-9.06637 0.02795,-38.92893 0.04118,-41.55056z" fill="#545454" stroke="none"/><path d="M-45.55997,720.6696l0.26096,-51.66236l54.23044,3.08133l-0.26096,51.66239z" fill="none" stroke="#000000"/></g></g></g><g data-paper-data="{&quot;index&quot;:null}" stroke-width="7.5" stroke-linecap="butt"><g><path d="M142.83755,663.54497l-15.85585,-215.99916l37.5427,-2.7559l15.85587,215.99916z" fill="#7c7c7c" stroke="#000000"/><path d="M180.98965,644.94365c0.71931,9.79908 -7.90764,18.41889 -19.2689,19.25287c-11.36125,0.834 -21.15448,-6.43364 -21.87378,-16.23272c-0.3242,-4.41641 19.46474,-2.03774 22.83182,-47.29156c4.10373,-55.15466 -7.56489,-159.35848 -1.32412,-159.8166c11.36125,-0.834 18.91567,194.28892 19.635,204.08799z" fill="#4c4c4c" stroke="none"/><path d="M142.83755,663.54496l-15.85585,-215.99915l37.54272,-2.7559l15.85587,215.99915z" fill="none" stroke="#000000"/></g><g><path d="M181.87236,446.29661c1.03779,12.80011 8.68804,84.82302 3.60165,80.73494c-5.43481,-4.36812 -23.90524,-85.19758 -31.83567,-80.64305c-3.57602,2.05375 -2.19075,61.87116 -6.29332,62.20379c-21.71559,1.76061 -41.46509,-23.2756 -44.11177,-55.91995c-1.4859,-18.32721 -11.28153,-48.50579 -3.45078,-60.05368c6.11734,-9.02116 28.45411,-1.46982 37.97811,-2.24201c8.24864,-0.66877 31.383,-1.80517 38.23472,4.20718c11.18624,9.8159 4.23572,31.46836 5.87705,51.71277z" fill="#5d9000" stroke="#000000"/><path d="M145.60682,471.5716c0.88382,10.90097 1.8802,29.47637 -4.30152,35.547c-1.62548,1.59628 -5.49295,-1.38322 -7.91611,-1.18677c-11.63841,0.94359 -28.8126,-17.17578 -29.92881,-30.94318c-1.11621,-13.7674 13.56739,18.301 25.20581,17.35741c1.99281,-0.16157 15.02715,-65.38629 27.11654,-60.96332c7.16179,2.62017 17.1682,43.88787 22.04471,34.27886c5.21074,-10.2676 -5.00704,-68.82783 -2.69847,-65.39227c7.14174,10.62816 15.23697,104.34628 5.17387,119.5429c-4.20827,6.35508 -14.88225,-57.36838 -22.46946,-71.33679c-7.76016,-14.2868 -12.38664,21.12167 -12.22656,23.09615z" fill="#517c00" stroke="none"/><path d="M181.87236,446.29661c1.03779,12.80011 8.68804,84.82302 3.60167,80.73494c-5.43481,-4.3681 -23.90524,-85.19758 -31.83567,-80.64305c-3.57602,2.05375 -2.19075,61.87116 -6.29332,62.20379c-21.71559,1.76061 -41.46511,-23.2756 -44.11177,-55.91994c-1.4859,-18.32721 -11.28151,-48.50579 -3.45078,-60.0537c6.11734,-9.02116 28.45409,-1.46982 37.97809,-2.24199c8.24864,-0.66877 31.38302,-1.80517 38.23472,4.20717c11.18624,9.8159 4.2357,31.46836 5.87705,51.71277z" fill="none" stroke="#000000"/></g><g><g><path d="M138.98394,709.3997l-0.53251,-51.66237l110.66034,-3.08133l0.53251,51.66236z" fill="#252525" stroke="#000000"/><path d="M138.98394,709.3997l-0.53251,-51.66237l110.66034,-3.08133l0.53251,51.66236z" fill="#252525" stroke="#000000"/><path d="M138.98394,709.3997l-0.53251,-51.66237l110.66034,-3.08133l0.53251,51.66236z" fill="none" stroke="#000000"/><path d="M248.43368,658.39869c0.02702,2.62163 3.70934,32.48421 0.08401,41.55056c-6.52047,16.30665 -23.40104,9.44132 -33.40115,9.71978c-15.5601,0.43328 -75.26643,6.70897 -75.34205,-0.6279c-0.01794,-1.74017 -3.85774,-50.11665 1.4532,-52.26322c6.45345,-2.60837 5.67954,27.05652 16.75151,32.88217c18.23324,9.59366 49.47842,-1.32881 56.86347,-1.53448c7.59613,-0.21153 18.86677,5.2598 25.2457,-2.87818c6.68783,-8.53205 8.30657,-30.60389 8.34529,-26.84874z" fill="#141414" stroke="none"/><path d="M138.98394,709.3997l-0.53251,-51.66237l110.66034,-3.08133l0.53251,51.66236z" fill="none" stroke="#000000"/></g><g><path d="M227.48294,722.80179l-0.26096,-51.66239l54.23044,-3.08133l0.26096,51.66236z" fill="#252525" stroke="#000000"/><path d="M227.48294,722.80179l-0.26096,-51.66239l54.23044,-3.08133l0.26096,51.66236z" fill="#6c6c6c" stroke="#000000"/><path d="M227.48294,722.80179l-0.26096,-51.66239l54.23044,-3.08133l0.26096,51.66236z" fill="none" stroke="#000000"/><path d="M281.12011,671.80076c0.01323,2.62163 1.81782,32.48419 0.04118,41.55056c-3.19543,16.30665 -11.46796,9.44132 -16.36864,9.7198c-7.62542,0.43328 -36.88521,6.70895 -36.92229,-0.62792c-0.0088,-1.74017 -1.89052,-50.11665 0.71217,-52.26322c3.16259,-2.60837 2.78333,27.05652 8.20927,32.88215c8.93542,9.59366 24.24749,-1.32881 27.86663,-1.53448c3.72259,-0.21151 9.2459,5.2598 12.37197,-2.87816c3.27745,-8.53203 4.07073,-30.60385 4.08971,-26.84872z" fill="#545454" stroke="none"/><path d="M227.48294,722.80179l-0.26096,-51.66239l54.23044,-3.08133l0.26096,51.66236z" fill="none" stroke="#000000"/></g><g><path d="M145.95373,727.54836l-0.26098,-51.66239l54.23044,-3.08133l0.26096,51.66236z" fill="#252525" stroke="#000000"/><path d="M145.95373,727.54836l-0.26098,-51.66239l54.23044,-3.08133l0.26096,51.66236z" fill="#6c6c6c" stroke="#000000"/><path d="M145.95373,727.54836l-0.26098,-51.66239l54.23044,-3.08133l0.26096,51.66236z" fill="none" stroke="#000000"/><path d="M199.59087,676.54733c0.01323,2.62163 1.8178,32.48419 0.04118,41.55056c-3.19543,16.30665 -11.46798,9.44132 -16.36866,9.7198c-7.62542,0.43328 -36.88521,6.70897 -36.92227,-0.6279c-0.0088,-1.74017 -1.89052,-50.11667 0.71217,-52.26322c3.1626,-2.60837 2.78333,27.05652 8.20929,32.88215c8.93542,9.59366 24.24749,-1.32881 27.86661,-1.53447c3.72257,-0.21151 9.2459,5.2598 12.37199,-2.87818c3.27745,-8.53203 4.07073,-30.60385 4.08969,-26.84872z" fill="#545454" stroke="none"/><path d="M145.95373,727.54836l-0.26098,-51.66239l54.23044,-3.08133l0.26096,51.66236z" fill="none" stroke="#000000"/></g><g><path d="M190.62726,727.26914l-0.26096,-51.66239l54.23044,-3.08133l0.26096,51.66236z" fill="#252525" stroke="#000000"/><path d="M190.62726,727.26914l-0.26096,-51.66239l54.23044,-3.08133l0.26096,51.66236z" fill="#6c6c6c" stroke="#000000"/><path d="M190.62726,727.26914l-0.26096,-51.66239l54.23044,-3.08133l0.26096,51.66236z" fill="none" stroke="#000000"/><path d="M244.26442,676.26811c0.01323,2.62163 1.8178,32.48419 0.04118,41.55056c-3.19543,16.30665 -11.46798,9.44132 -16.36864,9.7198c-7.62542,0.43328 -36.88521,6.70897 -36.92227,-0.6279c-0.0088,-1.74017 -1.8905,-50.11667 0.71217,-52.26322c3.1626,-2.60837 2.78333,27.05654 8.20929,32.88217c8.93542,9.59366 24.24749,-1.32883 27.86661,-1.53448c3.72257,-0.21151 9.2459,5.25982 12.37197,-2.87816c3.27745,-8.53203 4.07075,-30.60387 4.08969,-26.84874z" fill="#545454" stroke="none"/><path d="M190.62726,727.26914l-0.26096,-51.66239l54.23044,-3.08133l0.26096,51.66236z" fill="none" stroke="#000000"/></g></g></g><g stroke-width="10" stroke-linecap="butt"><g><path d="M-243.23558,598.95305l176.93548,-291.82659l50.72224,30.75306l-176.93548,291.82659z" fill="#7c7c7c" stroke="#000000"/><path d="M-232.74381,576.27565c8.02689,-13.23908 158.36052,-281.70812 173.71018,-272.40156c8.43161,5.11213 -82.56843,143.01884 -116.3053,223.3739c-27.68075,65.93046 1.79884,76.76284 -1.81887,82.72963c-8.02691,13.23908 -26.97734,16.42703 -42.32701,7.12048c-15.34966,-9.30654 -21.28592,-27.58339 -13.25903,-40.82247z" fill="#4c4c4c" stroke="none"/><path d="M-243.23558,598.95305l176.93545,-291.82659l50.72224,30.75306l-176.93545,291.82659z" fill="none" stroke="#000000"/></g><g><path d="M-101.96393,327.57111c16.59296,-27.36743 22.07283,-62.77945 44.75876,-68.71976c13.89539,-3.63849 45.69103,14.28151 56.84197,21.04239c12.87502,7.80616 49.67505,12.9222 51.93119,29.9485c2.88806,21.7952 -32.20212,57.40826 -47.22368,82.18392c-26.75631,44.13024 -72.24451,65.47615 -101.60074,47.67737c-5.54607,-3.36261 38.60059,-86.6706 35.01052,-92.08691c-7.96155,-12.01159 -91.0036,88.8515 -101.74272,91.1727c-10.05062,2.17237 51.5333,-93.91438 62.02467,-111.21822z" fill="#5d9000" stroke="#000000"/><path d="M-68.69306,388.76599c1.61835,-2.66922 20.0763,-55.8247 -0.93587,-41.16795c-20.54389,14.33011 -80.53396,96.5897 -81.98079,84.66665c-3.45974,-28.51108 74.05481,-154.8534 91.6148,-164.79118c5.67626,-3.21238 -50.02892,72.09379 -49.92946,90.23688c0.09308,16.97933 43.30242,-34.11008 55.24194,-32.75015c20.15436,2.29564 -7.48873,103.39419 -4.79476,105.02756c15.73341,9.53921 59.04398,-25.28874 47.75978,-6.67728c-11.28419,18.61146 -48.26457,32.02787 -63.99796,22.48866c-3.27577,-1.9861 -10.82688,-0.51593 -11.99126,-3.91177c-4.42811,-12.91432 10.07877,-38.38493 19.01354,-53.12143z" fill="#517c00" stroke="none"/><path d="M-101.96396,327.57114c16.59296,-27.3674 22.07283,-62.77945 44.75876,-68.71976c13.89538,-3.63852 45.69103,14.28151 56.84197,21.04239c12.87502,7.80616 49.67505,12.9222 51.93119,29.9485c2.88804,21.7952 -32.20212,57.40826 -47.22368,82.18392c-26.75631,44.13027 -72.24451,65.47615 -101.60074,47.67737c-5.54607,-3.36261 38.60059,-86.6706 35.01052,-92.08691c-7.96155,-12.01159 -91.0036,88.8515 -101.74272,91.1727c-10.05059,2.17237 51.53331,-93.9144 62.0247,-111.21822z" fill="none" stroke="#000000"/></g></g><g data-paper-data="{&quot;index&quot;:null}" stroke-width="10" stroke-linecap="butt"><g><path d="M436.69048,635.91485l-176.93548,-291.82662l50.72224,-30.75306l176.93548,291.82662z" fill="#7c7c7c" stroke="#000000"/><path d="M476.92097,582.48438c8.02691,13.23908 2.09062,31.51594 -13.25903,40.82248c-15.34966,9.30654 -34.3001,6.11859 -42.32697,-7.12048c-3.61771,-5.96681 25.86189,-16.79916 -1.81887,-82.72963c-33.73688,-80.35506 -124.7369,-218.26178 -116.3053,-223.3739c15.34966,-9.30654 165.6833,259.1625 173.71021,272.40156z" fill="#4c4c4c" stroke="none"/><path d="M436.69048,635.91482l-176.93548,-291.82659l50.72224,-30.75306l176.93548,291.82659z" fill="none" stroke="#000000"/></g><g><path d="M346.14107,333.77981c10.49137,17.30383 72.07529,113.39059 62.02467,111.21822c-10.7391,-2.32117 -93.78114,-103.18427 -101.74272,-91.1727c-3.59007,5.41634 40.55658,88.7243 35.01052,92.08688c-29.35621,17.79877 -74.84443,-3.54713 -101.60076,-47.67737c-15.02156,-24.77561 -50.11171,-60.38872 -47.2237,-82.18392c2.25614,-17.0263 39.0562,-22.14234 51.93122,-29.9485c11.15095,-6.76086 42.9466,-24.68088 56.84197,-21.04239c22.68594,5.94031 28.16583,41.35233 44.75876,68.71976z" fill="#5d9000" stroke="#000000"/><path d="M312.87023,394.97473c8.93479,14.73646 23.44168,40.20711 19.01357,53.12143c-1.16438,3.39584 -8.71549,1.92567 -11.99123,3.91177c-15.73341,9.53921 -52.71378,-3.8772 -63.99796,-22.48866c-11.28419,-18.61146 32.02637,16.21653 47.75975,6.67731c2.69397,-1.63339 -24.9491,-102.73194 -4.79476,-105.02759c11.93952,-1.35993 55.14886,49.72949 55.24194,32.75015c0.09946,-18.14307 -55.60572,-93.44928 -49.92944,-90.23688c17.56001,9.93778 95.07454,136.2801 91.6148,164.79118c-1.4468,11.92305 -61.43687,-70.33655 -81.98076,-84.66665c-21.01217,-14.65675 -2.55425,38.49872 -0.9359,41.16795z" fill="#517c00" stroke="none"/><path d="M346.14101,333.77984c10.49137,17.30383 72.07529,113.39059 62.0247,111.21822c-10.73908,-2.32117 -93.78115,-103.18425 -101.74272,-91.1727c-3.59007,5.41631 40.55658,88.7243 35.01052,92.08688c-29.35621,17.79877 -74.84443,-3.5471 -101.60076,-47.67737c-15.02156,-24.77561 -50.11171,-60.38872 -47.22368,-82.18392c2.25614,-17.0263 39.05614,-22.14234 51.93119,-29.9485c11.15095,-6.76086 42.9466,-24.68091 56.84197,-21.04239c22.68594,5.94031 28.16581,41.35236 44.75876,68.71976z" fill="none" stroke="#000000"/></g></g><g stroke-width="10" stroke-linecap="butt"><path d="M-16.76933,452.47078c0,-53.43897 66.05037,-96.7598 129.42872,-96.7598c63.37835,0 125.23667,16.45478 125.23667,69.89372c0,12.50448 -3.30962,98.53009 -12.67298,107.13288c-9.7165,8.92727 -36.15015,-32.78079 -45.87347,-23.98068c-20.94997,18.96082 -33.5317,40.47365 -66.69023,40.47365c-20.52084,0 -23.53955,-33.92633 -40.20769,-41.88242c-13.38087,-6.38702 -40.58971,20.01119 -52.88976,15.15178c-19.6993,-7.78265 -36.33123,-47.78309 -36.33123,-70.02916z" fill="#3e5f00" stroke="#000000"/><g><path d="M94.33883,567.50995v-206.80149h58.21679v206.80149z" fill="#707070" stroke="#000000"/><path d="M91.1664,547.65287c0,-13.24697 -1.16679,-158.90558 14.90724,-158.90558c10.74631,0 -12.00551,104.24588 -1.9163,154.02638c5.00195,24.67979 48.05772,9.48317 48.05772,13.87387c0,13.24694 -15.87005,14.99109 -31.94409,14.99109c-16.07403,0 -29.10461,-10.7388 -29.10461,-23.98574z" fill="#474747" stroke="none"/><path d="M94.53441,567.74597v-206.80149h58.21679v206.80149z" fill="none" stroke="#000000"/></g><g><path d="M13.13912,427.84146v-29.25079h211.89274v29.25079z" fill="#707070" stroke="#000000"/><path d="M55.85025,402.55661c39.11357,0 -43.69669,14.74496 -6.97474,21.78608c18.20573,3.49081 174.91662,1.34134 174.91662,1.96237c0,1.8737 -57.76253,2.1204 -116.26743,2.1204c-58.5049,0 -92.99716,0.32897 -92.99716,-1.54473c0,-1.8737 -17.18218,-24.32412 41.32274,-24.32412z" fill="#474747" stroke="none"/><path d="M13.851,427.87487v-29.25079h211.89274v29.25079z" fill="none" stroke="#000000"/></g><g><path d="M16.83497,504.52981v-29.25079h211.89274v29.25079z" fill="#707070" stroke="#000000"/><path d="M18.22331,503.56908c0,-1.8737 -17.18218,-24.32413 41.32274,-24.32413c39.11356,0 -43.69666,14.74493 -6.97474,21.78608c18.20572,3.49081 174.91662,1.34134 174.91662,1.96237c0,1.8737 -57.76253,2.1204 -116.26743,2.1204c-58.5049,0 -92.99716,0.32897 -92.99716,-1.54473z" fill="#474747" stroke="none"/><path d="M17.54681,504.56319v-29.25079h211.89274v29.25079z" fill="none" stroke="#000000"/></g><path d="M-5.02046,308.4435c15.75865,1.50277 46.39851,16.8003 61.27006,8.81631c12.32789,-6.61838 -42.41714,-28.38744 -34.82112,-46.15964c6.72525,-15.7349 75.42164,-28.05745 90.48945,-28.05745c75.01885,0 135.83363,40.79031 135.83363,91.1077c0,27.93516 8.3798,115.1155 -24.49031,158.40513c-13.977,18.40759 -2.96678,-18.96348 -27.91997,-16.24694c-2.38866,0.26003 32.63899,-61.23811 18.70797,-54.30067c-1.64449,0.81891 -16.232,1.42069 -32.37636,-11.29595c-17.252,-13.58912 -36.19904,-40.46107 -40.35825,-36.34828c-8.5443,8.44891 0.33978,35.51583 -0.98224,55.81838c-2.38918,36.69165 -10.36962,70.32541 -18.04649,67.04184c-26.36992,-11.27904 -49.68786,-71.60999 -56.32879,-67.85929c-23.35376,13.18987 43.30871,92.81658 33.71827,92.81658c-25.24739,0 -80.14606,11.54044 -98.55916,-11.07464c-36.29863,-44.58224 -25.03194,-143.57292 -25.03194,-176.95612c0,-15.02571 1.69993,-27.34674 18.89523,-25.70694z" fill="#5d9000" stroke="#000000"/><path d="M-11.25307,494.58016c0,-5.38741 -18.25009,-166.29036 -6.29222,-179.42635c0.87909,-0.96571 12.88602,-2.49912 26.30402,0.78776c17.31175,4.24068 37.63901,12.94962 46.42848,4.0187c4.06627,-4.1317 -17.93526,-23.91748 -25.09502,-38.07692c-6.42958,-12.7154 1.76343,-19.98741 6.93066,-22.54759c45.0003,-22.2961 108.22993,-24.70746 115.93399,-13.18286c3.40328,5.09098 -108.94056,20.33019 -111.30097,29.99111c-2.38625,9.76667 26.31896,26.43289 26.77639,38.35279c0.64739,16.87108 -82.20872,17.97243 -82.59681,33.78696c-0.34074,13.88414 7.46312,140.98588 25.33787,154.29201c8.96879,6.67643 43.46441,16.61239 53.37364,0.63849c6.74844,-10.87861 -21.84582,-61.62932 -17.65821,-73.85215c5.3134,-15.50877 23.20758,-8.14263 24.07991,-8.14263c1.15296,0 13.06113,1.51358 17.3828,8.1157c10.84147,16.56225 19.95697,47.44881 29.6666,36.83457c6.31499,-6.90334 -1.39918,-48.51118 2.30026,-65.59118c7.2325,-33.39181 23.17464,-46.63875 28.30828,-39.06956c0.29687,0.43771 23.04256,18.55037 44.28137,31.69673c18.3101,11.33356 35.58608,17.77396 35.38137,20.1754c-0.05959,0.69906 -3.74318,78.42271 -4.90227,79.22045c-1.84094,1.26704 -14.82344,-9.27265 -18.04068,-22.7083c-2.48755,-10.38846 8.80498,-29.6514 8.1912,-40.01146c-0.65233,-11.01102 -13.23733,-12.87538 -17.08688,-15.1541c-22.08552,-13.07344 -46.28848,-44.00354 -53.94551,-38.36133c-9.07283,6.68545 -0.12737,25.40877 -1.94006,40.16456c-3.91224,31.84646 -9.01093,66.00541 -8.92148,67.23196c0.27295,3.74271 -4.00455,11.41807 -12.51094,3.99157c-16.54258,-14.44251 -44.42774,-52.51229 -53.3548,-53.06508c-8.2292,-0.50958 20.53823,57.03991 20.53823,59.89083c0,0.79879 9.62293,16.63547 9.47856,17.41498c-2.33874,12.62829 -32.88664,7.46196 -58.26319,7.46196c-26.94301,0 -48.78463,-11.13778 -48.78463,-24.87694z" fill="#517c00" stroke="none"/><path d="M-23.91571,334.15039c0,-15.02566 1.69993,-27.34673 18.89523,-25.70691c15.75868,1.50279 46.39851,16.8003 61.27006,8.81631c12.32789,-6.61837 -42.41714,-28.38741 -34.82112,-46.15964c6.72525,-15.7349 75.42166,-28.05745 90.48945,-28.05745c75.01885,0 135.83363,40.79031 135.83363,91.1077c0,27.93516 8.3798,115.1155 -24.49031,158.40513c-13.977,18.40759 -2.96675,-18.96348 -27.91997,-16.24694c-2.38862,0.26006 32.63902,-61.23807 18.708,-54.30064c-1.64449,0.81891 -16.232,1.42069 -32.37636,-11.29595c-17.252,-13.58912 -36.19904,-40.46104 -40.35825,-36.34828c-8.5443,8.44891 0.33978,35.51583 -0.98224,55.81838c-2.38918,36.69165 -10.36965,70.32541 -18.04652,67.04184c-26.36992,-11.27904 -49.68783,-71.60999 -56.32876,-67.85929c-23.35379,13.18987 43.30871,92.81658 33.71827,92.81658c-25.24739,0 -80.14606,11.54044 -98.55916,-11.07464c-36.29866,-44.58224 -25.03196,-143.57294 -25.03196,-176.95612z" fill="none" stroke="#000000"/></g><g stroke-width="10"><path d="M2.30308,141.99087c0,-28.18353 -17.04726,-71.75841 16.28359,-62.95852c28.65917,7.56651 17.7662,-29.92392 38.37701,-42.37565c11.28303,-6.81647 42.93557,2.43924 58.80754,0.50429c25.11977,-3.06238 35.02064,-14.70856 46.77804,-14.70856c58.88204,0 52.98462,56.01724 52.98462,119.53846c0,63.52124 -47.73334,115.01539 -106.61538,115.01539c-58.88204,0 -106.61538,-51.49416 -106.61538,-115.01539z" fill="#3e5f00" stroke="none" stroke-linecap="butt"/><path d="M3.23938,141.63488c0,-28.18353 -17.04726,-71.75844 16.28359,-62.95854c28.65917,7.56651 17.7662,-29.92392 38.37701,-42.37565c11.283,-6.81647 42.93554,2.43924 58.8075,0.50429c25.11977,-3.06237 35.02061,-14.70856 46.77804,-14.70856c58.88207,0 52.98462,56.01724 52.98462,119.53846c0,63.52124 -47.73331,115.01536 -106.61538,115.01536c-58.88204,0 -106.61538,-51.49416 -106.61538,-115.01539z" fill="none" stroke="#000000" stroke-linecap="butt"/><path d="M18.09232,174.56171v-84.73713h210.63232v84.73713z" fill="#888888" stroke="#000000" stroke-linecap="butt"/><path d="M30.73389,86.42166c12.42368,0 7.41253,22.48631 16.0113,39.47138c4.92951,9.73724 15.66967,18.94065 25.37118,23.79796c25.38765,12.71098 82.67902,-11.32444 82.67902,-4.79239c0,13.3823 -30.95433,24.23079 -69.13845,24.23079c-15.41566,0 -39.9914,4.04718 -51.48919,1.05794c-16.98187,-4.41503 -17.64926,-17.30912 -17.64926,-25.28872c0,-13.3823 -23.96872,-58.47693 14.21538,-58.47693z" fill="#474747" stroke="none" stroke-linecap="butt"/><path d="M18.09232,174.56171v-84.73713h210.63232v84.73713z" fill="none" stroke="#000000" stroke-linecap="butt"/><g><path d="M212.16778,277.92034v-134.93208h35.21133v134.93208z" fill="#707070" stroke="#000000" stroke-linecap="butt"/><path d="M216.21328,169.47768c7.20168,0 3.37531,51.02219 10.86467,79.28223c4.16621,15.72056 22.59956,14.55995 22.59956,17.21301c0,7.42242 -9.08575,13.43945 -20.29357,13.43945c-11.20782,0 -20.29357,-6.01706 -20.29357,-13.43945c0,-7.42239 -4.08493,-96.49526 7.1229,-96.49526z" fill="#494949" stroke="none" stroke-linecap="butt"/><path d="M212.31585,278.33725v-134.93208h35.21137v134.93208z" fill="none" stroke="#000000" stroke-linecap="butt"/><path d="M215.81014,255.49017l30.9107,0.80637" fill="none" stroke="#000000" stroke-linecap="round"/><path d="M245.37691,227.53612h-31.17952" fill="none" stroke="#000000" stroke-linecap="round"/><path d="M214.73497,202.26996l30.64194,-0.26879" fill="none" stroke="#000000" stroke-linecap="round"/><path d="M246.45205,181.57319l-30.64194,-0.80637" fill="none" stroke="#000000" stroke-linecap="round"/></g><g><path d="M180.06117,282.63785v-134.93208h35.21137v134.93208z" fill="#707070" stroke="#000000" stroke-linecap="butt"/><path d="M176.98388,270.6905c0,-7.42242 -4.08493,-96.49526 7.1229,-96.49526c7.20168,0 3.37531,51.02219 10.86467,79.28223c4.16621,15.72053 22.59956,14.5599 22.59956,17.213c0,7.42239 -9.08576,13.43945 -20.2936,13.43945c-11.20782,0 -20.29357,-6.01706 -20.29357,-13.43945z" fill="#494949" stroke="none" stroke-linecap="butt"/><path d="M180.2093,283.05478v-134.93212h35.21137v134.93212z" fill="none" stroke="#000000" stroke-linecap="butt"/><path d="M214.6143,261.01409l-30.91073,-0.80637" fill="none" stroke="#000000" stroke-linecap="round"/><path d="M182.09082,232.25365h31.17952" fill="none" stroke="#000000" stroke-linecap="round"/><path d="M213.27034,206.71867l-30.64194,0.26879" fill="none" stroke="#000000" stroke-linecap="round"/><path d="M183.70355,185.48437l30.64194,0.80637" fill="none" stroke="#000000" stroke-linecap="round"/></g><g><path d="M141.28704,306.17173v-141.31248h35.21137v141.31248z" fill="#707070" stroke="#000000" stroke-linecap="butt"/><path d="M145.33264,192.60127c7.20168,0 3.37531,53.43483 10.86467,83.03118c4.16621,16.46389 22.59956,15.24841 22.59956,18.02692c0,7.77337 -9.08575,14.07493 -20.29357,14.07493c-11.20782,0 -20.29357,-6.30156 -20.29357,-14.07493c0,-7.77337 -4.08493,-101.05812 7.1229,-101.05812z" fill="#494949" stroke="none" stroke-linecap="butt"/><path d="M141.43519,306.60834v-141.31248h35.21137v141.31248z" fill="none" stroke="#000000" stroke-linecap="butt"/><path d="M175.84017,283.52544l-30.91073,-0.8445" fill="none" stroke="#000000" stroke-linecap="round"/><path d="M143.31668,253.40502h31.17952" fill="none" stroke="#000000" stroke-linecap="round"/><path d="M174.49623,226.66262l-30.64194,0.28151" fill="none" stroke="#000000" stroke-linecap="round"/><path d="M144.92941,204.42422l30.64194,0.8445" fill="none" stroke="#000000" stroke-linecap="round"/></g><g><path d="M109.18046,295.10125v-134.93208h35.21137v134.93208z" fill="#707070" stroke="#000000" stroke-linecap="butt"/><path d="M113.22603,186.65858c7.20168,0 3.37531,51.02222 10.86467,79.28226c4.16621,15.72053 22.59956,14.5599 22.59956,17.213c0,7.42239 -9.08575,13.43945 -20.29357,13.43945c-11.20782,0 -20.29357,-6.01706 -20.29357,-13.43945c0,-7.42239 -4.08493,-96.49526 7.1229,-96.49526z" fill="#494949" stroke="none" stroke-linecap="butt"/><path d="M109.32863,295.51815v-134.93208h35.21137v134.93208z" fill="none" stroke="#000000" stroke-linecap="butt"/><path d="M112.82286,272.67107l30.91073,0.80637" fill="none" stroke="#000000" stroke-linecap="round"/><path d="M142.38965,244.71702h-31.17952" fill="none" stroke="#000000" stroke-linecap="round"/><path d="M111.74771,219.45086l30.64194,-0.26879" fill="none" stroke="#000000" stroke-linecap="round"/><path d="M143.46481,198.75409l-30.64194,-0.80637" fill="none" stroke="#000000" stroke-linecap="round"/></g><g><path d="M70.62298,310.30154v-134.93208h35.21137v134.93208z" fill="#707070" stroke="#000000" stroke-linecap="butt"/><path d="M74.66852,201.8589c7.20168,0 3.37531,51.02222 10.86467,79.28226c4.16621,15.72053 22.59956,14.5599 22.59956,17.213c0,7.42239 -9.08575,13.43945 -20.29357,13.43945c-11.20782,0 -20.29357,-6.01706 -20.29357,-13.43945c0,-7.42239 -4.08493,-96.49526 7.1229,-96.49526z" fill="#494949" stroke="none" stroke-linecap="butt"/><path d="M70.7711,310.71843v-134.93208h35.21137v134.93208z" fill="none" stroke="#000000" stroke-linecap="butt"/><path d="M105.17605,288.67774l-30.91073,-0.80637" fill="none" stroke="#000000" stroke-linecap="round"/><path d="M103.83214,259.91732h-31.17952" fill="none" stroke="#000000" stroke-linecap="round"/><path d="M103.83214,234.38235l-30.64194,0.26879" fill="none" stroke="#000000" stroke-linecap="round"/><path d="M74.26535,213.14802l30.64194,0.80637" fill="none" stroke="#000000" stroke-linecap="round"/></g><g><path d="M36.09729,291.90322v-134.93208h35.21137v134.93208z" fill="#707070" stroke="#000000" stroke-linecap="butt"/><path d="M40.14286,183.46056c7.20168,0 3.37531,51.02222 10.86467,79.28226c4.16621,15.72053 22.59956,14.5599 22.59956,17.213c0,7.42239 -9.08575,13.43945 -20.29357,13.43945c-11.20782,0 -20.29357,-6.01706 -20.29357,-13.43945c0,-7.42239 -4.08493,-96.49526 7.1229,-96.49526z" fill="#494949" stroke="none" stroke-linecap="butt"/><path d="M36.24541,292.32009v-134.93208h35.21137v134.93208z" fill="none" stroke="#000000" stroke-linecap="butt"/><path d="M70.65042,270.27941l-30.91073,-0.80637" fill="none" stroke="#000000" stroke-linecap="round"/><path d="M69.30645,241.51897h-31.17952" fill="none" stroke="#000000" stroke-linecap="round"/><path d="M38.66454,216.25281l30.64194,-0.26879" fill="none" stroke="#000000" stroke-linecap="round"/><path d="M39.73969,194.74968l30.64194,0.80637" fill="none" stroke="#000000" stroke-linecap="round"/></g><g><path d="M3.99074,296.62074v-134.93208h35.21137v134.93208z" fill="#707070" stroke="#000000" stroke-linecap="butt"/><path d="M8.03628,188.17809c7.20168,0 3.37531,51.02222 10.86467,79.28226c4.16621,15.72053 22.59956,14.5599 22.59956,17.213c0,7.42239 -9.08575,13.43945 -20.29357,13.43945c-11.20782,0 -20.29357,-6.01706 -20.29357,-13.43945c0,-7.42239 -4.08493,-96.49526 7.1229,-96.49526z" fill="#494949" stroke="none" stroke-linecap="butt"/><path d="M4.13884,297.03762v-134.93208h35.21137v134.93208z" fill="none" stroke="#000000" stroke-linecap="butt"/><path d="M7.63312,274.19055l30.91073,0.80637" fill="none" stroke="#000000" stroke-linecap="round"/><path d="M37.19988,246.2365h-31.17952" fill="none" stroke="#000000" stroke-linecap="round"/><path d="M37.1999,220.70155l-30.64194,0.26879" fill="none" stroke="#000000" stroke-linecap="round"/><path d="M38.27506,200.27359l-30.64194,-0.80637" fill="none" stroke="#000000" stroke-linecap="round"/></g><path d="M102.39035,157.6195c30.57784,-17.22929 27.01035,-138.96632 58.47901,-138.96632c72.71588,0 94.35014,46.61461 94.35014,136.99425c0,90.37964 -61.08008,90.0857 -133.79596,90.0857c-72.71588,0 -129.53149,0.29392 -129.53149,-90.0857c0,-15.81268 -3.71342,-74.70494 15.22452,-57.42614c6.78514,6.19069 7.61127,47.50982 18.6038,68.3988c15.12375,28.7395 40.71822,38.30295 47.95024,41.39669c20.40672,8.72969 11.52513,-40.70884 28.71974,-50.39726z" fill="#5d9000" stroke="#000000" stroke-linecap="butt"/><path d="M92.84581,185.71069c0,-18.22343 8.19545,-25.70322 22.30114,-43.17961c5.30927,-6.57798 -3.16235,-37.71764 10.34158,-37.71764c49.38127,0 89.41271,20.33345 89.41271,45.416c0,25.08257 -40.03143,45.416 -89.41271,45.416c-49.38127,0 -32.64273,15.14781 -32.64273,-9.93473z" fill="#517c00" stroke="none" stroke-linecap="butt"/><path d="M6.99261,214.02284c0,-11.72841 129.51497,35.27953 186.58268,0.18616c16.48346,-10.13642 50.97191,-64.4497 38.3823,-99.15607c-8.76431,-24.16101 -1.69413,-49.5241 -19.50295,-65.46173c-21.9388,-19.63369 -67.67648,-27.16711 -58.56968,-27.16711c31.98301,0 77.23504,-1.07951 90.35737,44.33889c8.01244,27.73231 9.67564,70.04821 5.35761,103.23414c-2.73526,21.02159 -11.2696,40.0793 -11.2696,44.02569c0,20.37957 -51.78672,36.90049 -115.66885,36.90049c-63.88216,0 -115.66885,-16.52092 -115.66885,-36.90049z" fill="#517c00" stroke="none" stroke-linecap="butt"/><path d="M102.39035,157.6195c30.57781,-17.22929 27.01035,-138.96634 58.47904,-138.96634c72.71585,0 94.35011,46.61461 94.35011,136.99425c0,90.37964 -61.08008,90.0857 -133.79593,90.0857c-72.71585,0 -129.53152,0.29392 -129.53152,-90.0857c0,-15.81268 -3.71342,-74.70494 15.22452,-57.42617c6.78514,6.19069 7.61127,47.50982 18.6038,68.3988c15.12375,28.7395 40.71822,38.30291 47.95024,41.39669c20.40669,8.72972 11.52513,-40.70881 28.71974,-50.39725z" fill="none" stroke="#000000" stroke-linecap="butt"/><path d="M189.8432,76.53292c24.69067,0 44.70638,28.5939 44.70638,63.86624c0,35.27235 -20.01575,63.86624 -44.70638,63.86624c-24.69067,0 -44.70638,-28.5939 -44.70638,-63.86624c0,-35.27235 20.01575,-63.86624 44.70638,-63.86624z" fill="#69ff84" stroke="#000000" stroke-linecap="butt"/><path d="M189.55312,77.53511c24.69067,0 44.70638,28.5939 44.70638,63.86624c0,35.27235 -20.01575,63.86624 -44.70638,63.86624c-24.69067,0 -44.70638,-28.5939 -44.70638,-63.86624c0,-35.27235 20.01575,-63.86624 44.70638,-63.86624z" fill="none" stroke="#000000" stroke-linecap="butt"/><path d="M149.10668,123.31971c0,-22.12538 15.04323,-40.06153 33.59999,-40.06153c17.53229,0 53.89753,22.47195 55.43361,42.89928c0.08975,1.19363 4.65867,9.51003 4.65867,10.73149c0,22.12538 -55.75094,3.23075 -74.3077,3.23075c-18.55676,0 -19.38461,5.32539 -19.38461,-16.79998z" fill="#5d9000" stroke="#000000" stroke-linecap="butt"/><path d="M183.26376,82.25571c14.3165,0 -30.89759,21.26536 -18.60251,37.52834c8.48069,11.21767 77.4518,18.47774 77.4518,21.15381c0,6.55571 -27.97036,-0.50158 -52.16186,-0.50158c-24.19153,0 -43.80261,-5.31447 -43.80261,-11.8702c0,-6.55571 12.92366,-46.31039 37.11517,-46.31039z" fill="#517c00" stroke="none" stroke-linecap="butt"/><path d="M181.21904,82.43931c17.53231,0 53.89753,22.47195 55.43361,42.89928c0.08975,1.19363 4.65867,9.51003 4.65867,10.73149c0,22.12538 -55.7509,3.23078 -74.30768,3.23078c-18.55676,0 -19.38461,5.32537 -19.38461,-16.80001c0,-22.12538 15.04323,-40.06153 33.59999,-40.06153z" fill="none" stroke="#000000" stroke-linecap="butt"/><path d="M69.18003,105.80627c18.37831,0 33.27692,18.80404 33.27692,42.00001c0,23.19596 -14.89856,42.00001 -33.27692,42.00001c-18.37831,0 -33.27692,-18.80404 -33.27692,-42.00001c0,-23.19596 14.89856,-42.00001 33.27692,-42.00001z" fill="#000000" stroke="#000000" stroke-linecap="butt"/></g></g></g></svg>