<svg version="1.1" xmlns="http://www.w3.org/2000/svg" xmlns:xlink="http://www.w3.org/1999/xlink" width="473.713" height="683.77043" viewBox="0,0,473.713,683.77043"><g transform="translate(168.6385,63.09399)"><g data-paper-data="{&quot;isPaintingLayer&quot;:true}" fill-rule="nonzero" stroke-linejoin="miter" stroke-miterlimit="10" stroke-dasharray="" stroke-dashoffset="0" style="mix-blend-mode: normal"><g data-paper-data="{&quot;index&quot;:null}" stroke-width="7.5"><path d="M158.08441,495.52696c0.0871,14.01047 -0.11387,21.8362 -3.04882,30.35698c-10.54868,30.62487 -38.47027,33.29715 -54.50182,33.48999c-20.49198,0.24655 -23.50074,-19.03915 -23.90095,-83.40517c-0.40023,-64.36598 -25.42967,-139.86657 -4.9377,-140.1131c7.7837,-0.09362 34.54372,-1.46006 52.34607,14.44132c4.51382,4.03183 10.16817,11.75087 13.86528,17.74059c20.10967,32.57954 19.96827,93.77122 20.17791,127.48937z" fill="#ffffff" stroke="#000000" stroke-linecap="butt"/><path d="M99.14244,518.81997c20.33426,41.71423 57.46572,-15.46549 57.52571,-5.81664c0.06659,10.7106 -6.86472,26.26085 -19.80311,35.68986c-9.71471,7.0797 -24.33169,9.69798 -33.54093,9.80876c-21.47447,0.25833 -24.30531,-25.81047 -24.42193,-44.56307c-0.0602,-9.68677 1.36707,-46.35895 -4.16328,-88.38712c-5.17585,-39.33417 -17.71453,-84.48888 -7.33281,-84.61379c2.75107,-0.03309 56.06606,-3.71311 58.12726,11.20684c1.16194,8.41055 -39.73293,-9.67811 -41.89164,2.17769c-8.52347,46.81144 4.23214,141.3806 15.50077,164.49741z" fill="#e2e2e2" stroke="none" stroke-linecap="butt"/><path d="M157.5762,495.53308c0.0871,14.01047 -0.11387,21.83622 -3.0488,30.357c-10.5487,30.62485 -38.47031,33.29717 -54.5018,33.48999c-20.49198,0.24651 -23.50074,-19.03915 -23.90097,-83.40517c-0.40023,-64.36602 -25.42967,-139.86657 -4.9377,-140.1131c9.23433,-0.11108 44.42156,-3.88742 61.85883,23.2886c21.25787,33.13047 24.31059,101.02206 24.53041,136.38266z" fill="none" stroke="#000000" stroke-linecap="butt"/><path d="M149.98056,425.22943l-39.99021,20.00201l-33.56787,6.21723" fill="none" stroke="#000000" stroke-linecap="round"/></g><g stroke-width="7.5"><path d="M-27.67946,496.19527c0.20966,-33.71817 0.06823,-94.90985 20.17791,-127.48937c3.69711,-5.9897 9.35147,-13.70878 13.86531,-17.74059c17.80235,-15.90138 44.56237,-14.53496 52.34605,-14.44132c20.492,0.24655 -4.53747,75.7471 -4.9377,140.1131c-0.4002,64.36602 -3.40897,83.65175 -23.90097,83.40517c-16.03153,-0.19284 -43.95314,-2.86511 -54.50182,-33.48997c-2.93495,-8.52078 -3.13593,-16.34653 -3.04882,-30.357z" fill="#ffffff" stroke="#000000" stroke-linecap="butt"/><path d="M31.26247,519.48826c11.26863,-23.11679 24.02423,-117.68596 15.50077,-164.49741c-2.15871,-11.85578 -43.05358,6.23285 -41.89166,-2.17769c2.0612,-14.91997 55.3762,-11.23995 58.12726,-11.20684c10.3817,0.12491 -2.15696,45.27962 -7.33281,84.61379c-5.53035,42.02817 -4.10305,78.70033 -4.16328,88.38712c-0.1166,18.75258 -2.94743,44.82139 -24.42191,44.56307c-9.20927,-0.11078 -23.82624,-2.72906 -33.54095,-9.80876c-12.93837,-9.42901 -19.8697,-24.97926 -19.80309,-35.68988c0.05999,-9.64886 37.19145,47.53086 57.52571,5.81664z" fill="#e2e2e2" stroke="none" stroke-linecap="butt"/><path d="M-27.17123,496.20139c0.21985,-35.3606 3.27254,-103.25219 24.53041,-136.38266c17.43725,-27.17602 52.6245,-23.39966 61.85883,-23.2886c20.492,0.24655 -4.53747,75.74707 -4.9377,140.1131c-0.40023,64.36602 -3.40899,83.65168 -23.90097,83.40517c-16.03149,-0.19284 -43.9531,-2.86516 -54.50178,-33.49001c-2.93495,-8.52078 -3.13593,-16.34653 -3.04882,-30.357z" fill="none" stroke="#000000" stroke-linecap="butt"/><path d="M53.98248,452.11698l-33.56787,-6.21723l-39.99021,-20.00201" fill="none" stroke="#000000" stroke-linecap="round"/></g><g data-paper-data="{&quot;index&quot;:null}" stroke-width="7.5"><path d="M165.09173,205.14672c20.66576,0 78.45103,104.1664 78.45103,117.55884c0,13.39241 -20.78889,38.764 -41.45467,38.764c-20.6658,0 -74.41506,-118.68126 -74.41506,-132.07369c0,-6.64673 -6.95698,-14.21247 -0.27356,-18.59274c6.7829,-4.44552 27.28297,-5.65634 37.69222,-5.65634z" fill="#ffffff" stroke="#000000" stroke-linecap="butt"/><path d="M215.89241,340.62157c21.54701,0 28.92443,-41.92146 28.92443,-20.73548c0,21.186 -20.83066,40.41874 -42.37765,40.41874c-21.54706,0 -73.99274,-106.32183 -73.99274,-127.50783c0,-13.97808 25.32303,46.75658 51.03085,83.35185c13.25653,18.87069 29.08429,24.47274 36.41507,24.47274z" fill="#e2e2e2" stroke="none" stroke-linecap="butt"/><path d="M165.09177,206.45941c20.66576,0 78.45103,104.16643 78.45103,117.55884c0,13.39241 -20.78889,38.76398 -41.45469,38.76398c-20.66578,0 -74.41506,-118.68124 -74.41506,-132.07367c0,-7.10591 -8.83016,-16.07055 -1.31541,-20.50574c6.64829,-3.9238 29.03341,-3.74338 38.73412,-3.74338z" fill="none" stroke="#000000" stroke-linecap="butt"/><path d="M157.25858,291.62495l57.26496,-29.32805" fill="none" stroke="#000000" stroke-linecap="round"/></g><g stroke-width="7.5"><path d="M-23.64228,208.39209c10.40927,0 30.90934,1.21085 37.69224,5.65636c6.68342,4.38029 -0.27356,11.94603 -0.27356,18.59276c0,13.39243 -53.74928,132.07367 -74.41506,132.07367c-20.6658,0 -41.45469,-25.37157 -41.45469,-38.76398c0,-13.39243 57.78525,-117.55884 78.45103,-117.55884z" fill="#ffffff" stroke="#000000" stroke-linecap="butt"/><path d="M-74.44297,343.86693c7.33076,0 23.15856,-5.60205 36.41509,-24.47274c25.70785,-36.59525 51.03085,-97.3299 51.03085,-83.35185c0,21.186 -52.44566,127.50785 -73.99272,127.50785c-21.54701,0 -42.37765,-19.23277 -42.37765,-40.41877c0,-21.18598 7.37739,20.73546 28.92441,20.73546z" fill="#e2e2e2" stroke="none" stroke-linecap="butt"/><path d="M-23.64233,209.70475c9.70071,0 32.08582,-0.18042 38.73412,3.74338c7.51477,4.4352 -1.31541,13.39986 -1.31541,20.50574c0,13.39243 -53.74928,132.07367 -74.41506,132.07367c-20.6658,0 -41.45469,-25.37155 -41.45469,-38.76396c0,-13.39243 57.78525,-117.55884 78.45103,-117.55884z" fill="none" stroke="#000000" stroke-linecap="butt"/><path d="M-15.80918,294.87029l-57.26496,-29.32805" fill="none" stroke="#000000" stroke-linecap="round"/></g><g stroke-width="7.5"><path d="M-28.53218,329.07415c0,-33.93122 31.17591,-107.69351 58.75091,-137.38579c17.61771,-18.97048 29.26049,-2.75078 45.05392,-2.75078c17.7239,0 38.38033,-8.95709 55.23259,15.98597c21.66846,32.0715 37.49977,102.55765 37.49977,133.83904c0,55.60994 -52.21926,51.5564 -92.73233,51.5564c-40.51308,0 -103.80485,-5.6349 -103.80485,-61.24486z" fill="#ffffff" stroke="#000000" stroke-linecap="butt"/><path d="M72.90387,172.03612c34.01571,0 62.97495,13.35339 62.97495,34.94762c0,0.96053 19.65959,18.38629 -5.10141,24.1554c-10.72243,2.49824 -28.91525,-10.52795 -48.81942,-10.09347c-24.53727,0.53559 -50.95606,14.69398 -60.51299,21.21351c-41.07039,28.01744 -38.72983,71.48243 -33.73124,77.34029c8.18639,9.59365 5.92073,30.93258 21.09442,37.89038c58.41322,26.78502 164.87141,22.15596 142.98737,22.15596c-17.96247,0 -127.95309,25.80027 -161.79727,-9.85488c-10.37538,-10.93053 -18.8594,-30.44671 -16.43578,-49.96498c4.64182,-37.3825 30.83016,-78.46559 30.83016,-85.16093c0,-21.59423 34.49551,-62.62894 68.51121,-62.62894z" fill="#e2e2e2" stroke="none" stroke-linecap="butt"/><path d="M30.61805,190.70361c17.61771,-18.97046 29.26051,-2.75076 45.05394,-2.75076c17.7239,0 38.38033,-8.95709 55.23259,15.98597c21.66846,32.0715 37.49977,102.55765 37.49977,133.83904c0,55.60994 -52.21926,51.55642 -92.73233,51.55642c-40.51308,0 -103.80485,-5.63492 -103.80485,-61.24486c0,-33.93122 31.17594,-107.69351 58.75091,-137.38579z" fill="none" stroke="#000000" stroke-linecap="butt"/><path d="M161.48403,292.44973l-29.7574,2.76812l-29.7574,7.61235l-38.06178,1.38406l-38.75381,-2.76812l-20.76097,-10.38049l-24.22112,-2.07609" fill="none" stroke="#000000" stroke-linecap="round"/><g stroke-linecap="butt"><path d="M75.79383,242.43597c7.52565,0 13.62637,5.6726 13.62637,12.67013c0,6.99753 -6.10076,12.67015 -13.62637,12.67015c-7.52565,0 -13.62637,-5.67262 -13.62637,-12.67015c0,-6.99751 6.10076,-12.67013 13.62637,-12.67013z" fill="#333333" stroke="#000000"/><path d="M67.79199,246.4519c2.93425,0 2.26389,8.5722 5.82536,10.98143c4.77158,3.22783 13.46621,0.73592 13.46621,2.85273c0,3.69679 -5.56558,6.69365 -12.43108,6.69365c-6.8655,0 -12.43108,-2.99686 -12.43108,-6.69365c0,-3.69679 -1.29492,-13.83416 5.57058,-13.83416z" fill="#141414" stroke="none"/><path d="M80.81294,243.20482c4.63953,0 8.40061,2.53873 8.40061,5.67041c0,3.13168 -3.76109,5.67041 -8.40061,5.67041c-4.63953,0 -8.40061,-2.53873 -8.40061,-5.67041c0,-3.13168 3.76109,-5.67041 8.40061,-5.67041z" fill="#797979" stroke="none"/><path d="M76.06973,242.71185c7.52565,0 13.62637,5.67262 13.62637,12.67015c0,6.99753 -6.10076,12.67015 -13.62637,12.67015c-7.52565,0 -13.62637,-5.67262 -13.62637,-12.67015c0,-6.99753 6.10076,-12.67015 13.62637,-12.67015z" fill="none" stroke="#000000"/></g><g stroke-linecap="butt"><path d="M74.02878,280.14567c7.52563,0 13.62637,5.67262 13.62637,12.67013c0,6.99751 -6.10072,12.67013 -13.62637,12.67013c-7.52563,0 -13.62637,-5.67262 -13.62637,-12.67013c0,-6.99751 6.10072,-12.67013 13.62637,-12.67013z" fill="#333333" stroke="#000000"/><path d="M66.02697,284.1616c2.93425,0 2.26389,8.5722 5.82536,10.98143c4.7716,3.22783 13.46621,0.73592 13.46621,2.85273c0,3.69679 -5.56558,6.69365 -12.43108,6.69365c-6.8655,0 -12.43108,-2.99684 -12.43108,-6.69365c0,-3.69681 -1.29492,-13.83416 5.57058,-13.83416z" fill="#141414" stroke="none"/><path d="M79.04791,280.91453c4.63953,0 8.40059,2.53873 8.40059,5.67041c0,3.13168 -3.76104,5.67041 -8.40059,5.67041c-4.63953,0 -8.40061,-2.53873 -8.40061,-5.67041c0,-3.13168 3.76106,-5.67041 8.40061,-5.67041z" fill="#797979" stroke="none"/><path d="M74.30466,280.42157c7.52563,0 13.62637,5.67262 13.62637,12.67013c0,6.99751 -6.10072,12.67013 -13.62637,12.67013c-7.52563,0 -13.62637,-5.67262 -13.62637,-12.67013c0,-6.99751 6.10072,-12.67013 13.62637,-12.67013z" fill="none" stroke="#000000"/></g><g stroke-linecap="butt"><path d="M147.76757,215.84072c0,7.26179 -0.42187,47.75024 -19.72293,47.75024c-19.30106,0 -50.17234,-40.48847 -50.17234,-47.75024c0,-7.26179 30.8713,-42.21398 50.17234,-42.21398c19.30106,0 19.72293,34.95219 19.72293,42.21398z" data-paper-data="{&quot;index&quot;:null}" fill="#fbff00" stroke="#000000"/><path d="M148.75231,226.96654c0,9.74609 -4.25404,34.2556 -21.45298,34.2556c-17.19894,0 -40.8299,-24.50951 -40.8299,-34.2556c0,-5.81709 33.02891,34.82713 45.46127,21.6737c5.32933,-5.63842 9.63548,-22.13129 8.28098,-42.02544c-0.7797,-11.45164 -8.52505,-31.8967 -5.99204,-31.8967c17.19894,0 14.53266,42.50239 14.53266,52.24845z" data-paper-data="{&quot;index&quot;:null}" fill="#bcbf00" stroke="none"/><path d="M147.36823,216.24006c0,7.26179 -0.42187,47.75024 -19.72293,47.75024c-19.30104,0 -50.17234,-40.48845 -50.17234,-47.75024c0,-7.26179 30.8713,-42.21398 50.17234,-42.21398c19.30106,0 19.72293,34.95219 19.72293,42.21398z" data-paper-data="{&quot;index&quot;:null}" fill="none" stroke="#000000"/><path d="M19.83762,174.02608c19.30106,0 50.17236,34.95219 50.17236,42.21398c0,7.26179 -30.8713,47.75024 -50.17236,47.75024c-19.30106,0 -19.72293,-40.48845 -19.72293,-47.75024c0,-7.26177 0.42187,-42.21398 19.72293,-42.21398z" fill="#fbff00" stroke="#000000"/><path d="M13.66265,175.11742c2.53303,0 -5.21234,20.44506 -5.99204,31.8967c-1.3545,19.89417 2.95165,36.38702 8.28098,42.02544c12.43238,13.15343 45.46127,-27.49079 45.46127,-21.6737c0,9.74607 -23.63096,34.2556 -40.8299,34.2556c-17.19896,0 -21.453,-24.50953 -21.453,-34.2556c0,-9.74609 -2.66626,-52.24845 14.53269,-52.24845z" fill="#bcbf00" stroke="none"/><path d="M20.23695,174.42542c19.30104,0 50.17234,34.95219 50.17234,42.21398c0,7.26179 -30.8713,47.75024 -50.17234,47.75024c-19.30106,0 -19.72293,-40.48845 -19.72293,-47.75024c0,-7.26177 0.42189,-42.21398 19.72293,-42.21398z" fill="none" stroke="#000000"/><path d="M76.38964,195.47908c12.42145,0 22.49103,10.37941 22.49103,23.18308c0,12.80367 -10.06957,23.18308 -22.49103,23.18308c-12.42145,0 -22.49105,-10.37941 -22.49105,-23.18308c0,-12.80365 10.0696,-23.18308 22.49105,-23.18308z" fill="#fbff00" stroke="#000000"/><path d="M54.49255,223.55974c0,-9.555 1.61029,-27.68129 13.84066,-27.68129c3.83345,0 -6.25138,19.03819 -5.48945,27.61566c0.56193,6.32595 11.75795,10.53219 14.43331,13.26568c5.27055,5.38505 21.50555,-17.55138 21.50555,-13.20005c0,9.55498 -9.91467,17.30081 -22.14503,17.30081c-12.23036,0 -22.14503,-7.74583 -22.14503,-17.30081z" fill="#bcbf00" stroke="none"/><path d="M76.09693,195.8784c12.42145,0 22.49105,10.37941 22.49105,23.18308c0,12.80367 -10.0696,23.18308 -22.49105,23.18308c-12.42145,0 -22.49105,-10.37941 -22.49105,-23.18308c0,-12.80367 10.0696,-23.18308 22.49105,-23.18308z" fill="none" stroke="#000000"/></g></g><g stroke-width="7.5"><path d="M115.28812,-24.30697c11.45318,-11.6352 21.58441,-35.03702 39.59243,-35.03702c21.05834,0 58.44887,6.01333 64.66588,24.03399c4.02471,11.66602 -19.73689,32.69412 -19.73689,45.75861c0,33.2454 -10.23816,50.59966 -44.92899,50.59966c-34.69086,0 -62.81336,-26.95072 -62.81336,-60.19612c0,-15.98771 12.61057,-14.38014 23.22091,-25.1591z" fill="#3a3a3a" stroke="#000000" stroke-linecap="butt"/><path d="M186.79306,-6.94451c17.78335,-7.02759 -16.23824,-51.16845 -6.28425,-51.16845c11.20117,0 37.36427,11.77751 40.67986,23.97985c3.98145,14.65286 -16.1127,30.53002 -16.1127,35.53493c0,2.27044 -1.54846,15.42511 -2.16973,23.52191c-1.88868,24.6147 -6.61555,59.52197 -25.16555,59.52197c-24.65182,0 -76.46957,-89.09581 -76.46957,-98.26859c0,-5.46896 59.26347,17.25516 85.52197,6.8784z" fill="#202020" stroke="none" stroke-linecap="butt"/><path d="M103.6399,-8.33995c0,-4.48659 8.42455,-8.8839 10.12006,-12.24748c1.84315,-3.6565 -2.63068,-6.09139 8.21879,-6.09139c7.37579,0 66.1702,10.91761 76.46598,20.07297c7.56545,6.72743 4.30425,16.03527 3.49705,22.66868c-1.19658,9.83326 4.81092,18.35168 4.81092,21.9634c0,9.36387 -44.56722,-29.41139 -65.39708,-29.41139c-20.82984,0 -37.71574,-7.59092 -37.71574,-16.95479z" fill="#fbff00" stroke="#000000" stroke-linecap="butt"/><path d="M121.33999,23.89288c0,-7.58181 -26.03348,-42.46586 -7.51384,-48.39518c6.26177,-2.00478 5.77329,39.85877 21.56554,44.57428c11.91207,3.5569 35.31296,6.77229 48.54839,-1.93889c7.57619,-4.98641 8.56456,-23.6516 10.40933,-23.6516c2.91993,0 3.79593,5.13064 5.51992,5.65833c11.25151,3.44387 1.05438,12.31911 1.05438,23.75303c0,13.18587 -17.81542,23.87511 -39.79185,23.87511c-21.97643,0 -39.79185,-10.68926 -39.79185,-23.87511z" fill="#bcbf00" stroke="none" stroke-linecap="butt"/><path d="M101.96314,-6.55658c0,-4.48657 8.42455,-8.88387 10.12006,-12.24748c1.84315,-3.6565 -2.63068,-6.09139 8.21879,-6.09139c7.37579,0 66.1702,10.91763 76.46598,20.07297c7.56545,6.72743 4.30425,16.03527 3.49705,22.66868c-1.19658,9.83326 4.81092,18.35168 4.81092,21.9634c0,9.36387 -44.56722,-29.41139 -65.39706,-29.41139c-20.82984,0 -37.71576,-7.59092 -37.71576,-16.95479z" fill="none" stroke="#000000" stroke-linecap="butt"/><path d="M114.99545,-23.2156c11.45318,-11.6352 21.58441,-35.03702 39.59243,-35.03702c21.05834,0 58.44887,6.01333 64.66588,24.03399c4.02471,11.66602 -19.73689,32.69412 -19.73689,45.75861c0,33.2454 -10.23816,50.59966 -44.92899,50.59966c-34.69086,0 -62.81336,-26.95072 -62.81336,-60.19612c0,-15.98771 12.61057,-14.38014 23.22091,-25.1591z" fill="none" stroke="#000000" stroke-linecap="butt"/><path d="M58.34559,62.42095c0,-36.25676 6.47194,-72.19175 43.62743,-72.19175c37.15551,0 104.3797,34.19013 104.3797,70.44692c0,36.25676 -43.57568,67.39349 -80.73117,67.39349c-37.15551,0 -67.27596,-29.39189 -67.27596,-65.64867z" fill="#3a3a3a" stroke="#000000" stroke-linecap="butt"/><path d="M83.33602,71.0539c0,-15.71862 -22.55798,-29.66032 -15.34809,-48.6648c1.80015,-4.74496 5.10639,-20.25155 13.1965,-27.14971c8.67182,-7.39416 22.262,-6.03153 27.48508,-6.03153c3.75,0 -37.39555,19.89727 -28.42827,32.703c18.31398,26.15337 91.80823,55.64467 106.23514,56.18242c7.1886,0.26796 18.10794,-23.51886 11.3717,-35.86385c-6.22853,-11.41453 -31.14053,-23.92518 -30.79185,-27.90936c0.37703,-4.30816 32.71308,20.90789 36.64065,24.04445c7.24993,5.78976 0.32818,22.6548 0.32818,28.32736c0,23.84996 -37.46032,47.54623 -67.07212,47.54623c-29.6118,0 -53.61691,-19.33422 -53.61691,-43.18418z" fill="#202020" stroke="none" stroke-linecap="butt"/><path d="M126.55571,-3.53695c22.63589,0 42.86693,14.43874 58.7273,28.12595c10.17349,8.77952 21.1884,12.88545 21.1884,27.05384c0,36.25676 -42.76021,76.11756 -79.9157,76.11756c-37.15551,0 -67.27598,-29.39191 -67.27598,-65.64867c0,-27.3474 8.16614,-62.13053 32.53216,-71.9999c7.93806,-3.21528 25.6136,6.35123 34.74381,6.35123z" fill="none" stroke="#000000" stroke-linecap="butt"/><path d="M78.44909,23.41513c61.04429,0 110.53045,41.16282 110.53045,91.9397c0,50.77688 -49.48618,87.2075 -110.53045,87.2075c-61.04429,0 -110.53045,-36.43063 -110.53045,-87.2075c0,-50.77688 49.48618,-91.9397 110.53045,-91.9397z" fill="#ffffff" stroke="#000000" stroke-linecap="butt"/><path d="M-28.07532,132.28727c0,-7.8526 -7.29427,-48.64666 19.92635,-75.70948c20.7975,-20.67692 76.99493,-30.06996 81.27295,-30.06996c2.63674,0 -17.68571,1.88771 -36.72226,12.24437c-14.23552,7.7447 -26.79054,22.53258 -33.71258,32.26908c-5.83044,8.20104 -20.13785,29.2351 -19.67383,37.10348c1.00803,17.09333 19.87987,40.47659 19.87987,45.53651c0,13.85226 -3.20886,3.70774 -13.08613,3.70774c-9.87725,0 -17.88435,-11.22946 -17.88435,-25.08171z" fill="#e2e2e2" stroke="none" stroke-linecap="butt"/><path d="M74.95237,85.56075c34.23289,0 61.98415,17.84009 61.98415,39.84695c0,22.00686 -27.75126,39.84695 -61.98415,39.84695c-34.23289,0 -61.98415,-17.84009 -61.98415,-39.84695c0,-22.00686 27.75126,-39.84695 61.98415,-39.84695z" fill="#e2e2e2" stroke="none" stroke-linecap="butt"/><path d="M78.64035,24.28241c61.04429,0 110.53045,41.1628 110.53045,91.9397c0,50.77688 -49.48618,87.2075 -110.53045,87.2075c-61.04429,0 -110.53045,-36.4306 -110.53045,-87.2075c0,-50.7769 49.48618,-91.9397 110.53045,-91.9397z" fill="none" stroke="#000000" stroke-linecap="butt"/><path d="M73.53773,157.7799c20.72146,0 92.95374,-32.60261 92.95374,-13.73152c0,9.18615 -0.89147,27.042 -20.85016,40.328c-21.04237,14.0074 -61.46904,23.22019 -72.10359,23.22019c-10.28786,0 -48.98822,-8.41325 -69.69449,-24.98368c-20.99959,-16.80512 -23.93529,-41.83613 -23.93529,-51.33802c0,-18.8711 72.90832,26.50501 93.62978,26.50501z" fill="#000000" stroke="#000000" stroke-linecap="butt"/><path d="M23.84658,93.66324c14.33407,0 25.95414,14.84243 25.95414,33.15148c0,18.30905 -11.62005,33.15148 -25.95414,33.15148c-14.33407,0 -25.95414,-14.84243 -25.95414,-33.15148c0,-18.30905 11.62005,-33.15148 25.95414,-33.15148z" fill="#000000" stroke="#000000" stroke-linecap="butt"/><path d="M128.40851,95.71727c14.33407,0 25.95414,14.84243 25.95414,33.15148c0,18.30907 -11.62005,33.15148 -25.95414,33.15148c-14.33407,0 -25.95414,-14.84241 -25.95414,-33.15148c0,-18.30905 11.62005,-33.15148 25.95414,-33.15148z" fill="#000000" stroke="#000000" stroke-linecap="butt"/><path d="M-6.68596,139.80829l-25.6052,-17.30081" fill="none" stroke="#000000" stroke-linecap="round"/><path d="M162.86199,153.64893l22.14503,-21.453" fill="none" stroke="#000000" stroke-linecap="round"/></g><g stroke-width="6" stroke-linecap="butt"><path d="M-93.14943,578.24795c0,-21.21623 31.8787,-38.41539 71.20303,-38.41539c39.32433,0 71.203,17.19914 71.203,38.41539c0,10.58266 -0.59095,23.10208 -13.42171,30.0499c-6.41513,3.47378 -15.87245,5.56177 -26.18427,6.78301c-10.41182,1.23307 -21.69482,1.58248 -31.59702,1.58248c-21.11824,0 -54.77019,-0.06657 -67.80968,-7.94536c-11.24138,-6.79233 -3.39334,-20.64751 -3.39334,-30.47003z" fill="#ffffff" stroke="#000000"/><path d="M-94.58309,598.59111c0,-3.68874 14.13054,5.00855 41.58501,7.00599c29.44311,2.14211 72.88809,-2.46636 89.9933,-8.94923c7.66647,-2.9056 5.54697,-16.1889 -2.94248,-27.21491c-9.25869,-12.02512 -25.07429,-21.73611 -18.28336,-21.73611c39.86487,0 34.01105,39.5429 34.01105,50.89426c0,11.35136 -32.31686,20.55346 -72.18177,20.55346c-39.86489,0 -72.18177,-9.2021 -72.18177,-20.55346z" fill="#e2e2e2" stroke="none"/><path d="M-91.64695,579.26107c0,-21.21623 31.8787,-38.41539 71.20303,-38.41539c39.32435,0 71.20303,17.19916 71.20303,38.41539c0,10.58266 -0.59097,23.10208 -13.42171,30.0499c-12.89244,6.98124 -38.07195,8.36547 -57.78129,8.36547c-21.11824,0 -54.77019,-0.06655 -67.80968,-7.94533c-11.24138,-6.79233 -3.39332,-20.64751 -3.39332,-30.47003z" fill="none" stroke="#000000"/></g><g data-paper-data="{&quot;index&quot;:null}" stroke-width="6" stroke-linecap="butt"><path d="M216.55107,577.84857c0,9.82252 7.84802,23.6777 -3.39334,30.47003c-13.03949,7.87879 -46.69144,7.94536 -67.80968,7.94536c-9.9022,0 -21.1852,-0.34941 -31.59702,-1.58248c-10.31184,-1.22123 -19.76916,-3.30923 -26.18429,-6.78301c-12.83077,-6.94784 -13.42171,-19.46724 -13.42171,-30.0499c0,-21.21623 31.87868,-38.41537 71.203,-38.41537c39.32435,0 71.20303,17.19914 71.20303,38.41537z" fill="#ffffff" stroke="#000000"/><path d="M217.98475,598.19175c0,11.35136 -32.31686,20.55344 -72.18175,20.55344c-39.86489,0 -72.18175,-9.20208 -72.18175,-20.55344c0,-11.35136 -5.85382,-50.89426 34.01105,-50.89426c6.79093,0 -9.02465,9.71099 -18.28336,21.73611c-8.48943,11.02601 -10.60895,24.30933 -2.94248,27.21491c17.10522,6.48287 60.55014,11.09134 89.9933,8.94923c27.45448,-1.99745 41.58501,-10.69471 41.58501,-7.00599z" fill="#e2e2e2" stroke="none"/><path d="M215.04855,578.86173c0,9.82252 7.84806,23.6777 -3.39332,30.47003c-13.03949,7.87879 -46.69144,7.94533 -67.80968,7.94533c-19.70934,0 -44.88885,-1.38421 -57.78129,-8.36547c-12.83075,-6.94784 -13.42169,-19.46724 -13.42169,-30.0499c0,-21.21623 31.87866,-38.41539 71.20303,-38.41539c39.32435,0 71.20303,17.19914 71.20303,38.41539z" fill="none" stroke="#000000"/></g><g stroke-width="7.5"><path d="M-123.30065,360.97953c5.64979,-21.17343 25.87162,-34.16418 45.16678,-29.01558c19.29513,5.14856 30.35692,26.48678 24.70713,47.66021c-5.64979,21.17345 -25.87165,34.16418 -45.1668,29.01558c-19.29516,-5.14856 -30.35692,-26.48678 -24.70715,-47.66021z" fill="#ffffff" stroke="#000000" stroke-linecap="butt"/><path d="M-124.15687,376.21859c3.18938,-11.95276 7.50468,-42.77155 24.58004,-38.21528c2.86477,0.76442 -9.43959,9.15341 -11.31738,23.59553c-1.78119,13.69908 4.65593,29.90923 7.62273,33.36196c12.54803,14.60341 43.09669,-10.28778 40.94994,-2.24251c-3.1894,11.95273 -19.61721,17.94877 -36.69257,13.39248c-17.07535,-4.55628 -28.33216,-17.93947 -25.14278,-29.89223z" fill="#e2e2e2" stroke="none" stroke-linecap="butt"/><path d="M-78.74202,333.939c19.29516,5.14856 30.35692,26.48676 24.70713,47.66021c-5.64979,21.17345 -25.8716,34.16416 -45.16676,29.01556c-19.29516,-5.14856 -30.3569,-26.48676 -24.70713,-47.66021c5.64979,-21.17345 25.87158,-34.16418 45.16674,-29.01558z" fill="none" stroke="#000000" stroke-linecap="butt"/><g><path d="M-44.63486,418.79696c0.90268,-16.58783 -29.16256,-25.94243 -21.04508,-25.5007c3.79391,0.20645 13.17464,-18.10695 24.21725,-14.0114c12.58413,4.66727 26.70453,32.27672 26.22376,41.11179c-0.90262,16.58789 -8.21489,29.67692 -16.33236,29.23519c-8.11753,-0.44171 -13.96624,-14.24688 -13.0636,-30.83479z" fill="#ffffff" stroke="#000000" stroke-linecap="butt"/><path d="M-42.27547,433.6973c0.14614,-2.68623 1.10188,-13.65102 -4.18814,-23.16447c-3.28958,-5.91592 -12.2161,-9.91599 -15.44353,-15.14025c-4.48027,-7.2522 4.20782,-11.42466 5.89151,-11.33299c4.58815,0.24967 36.02205,44.73007 35.64755,51.61228c-0.37449,6.88223 -4.39752,12.25895 -8.98565,12.00928c-4.58811,-0.24969 -12.7785,-5.13067 -12.40399,-12.0129z" fill="#e2e2e2" stroke="none" stroke-linecap="butt"/><path d="M-45.33736,418.51504c0.90268,-16.58783 -29.16252,-25.94243 -21.04503,-25.5007c3.79389,0.20647 13.17462,-18.10697 24.21723,-14.01142c12.58415,4.66729 26.70453,32.27672 26.22376,41.11181c-0.90264,16.58785 -8.21489,29.6769 -16.33236,29.23519c-8.11747,-0.44171 -13.96622,-14.24694 -13.06358,-30.83481z" fill="none" stroke="#000000" stroke-linecap="butt"/><path d="M-22.10111,403.74942l-21.71432,10.35521" fill="none" stroke="#000000" stroke-linecap="round"/></g><g data-paper-data="{&quot;index&quot;:null}"><path d="M-72.66251,425.22162c8.86903,14.04683 10.48635,28.95236 3.61233,33.29254c-6.87396,4.34015 -19.63619,-3.52862 -28.5052,-17.57545c-4.72382,-7.48164 -5.842,-38.47224 2.87431,-48.67856c7.64862,-8.95607 24.76229,2.46761 27.97502,0.43911c6.87398,-4.34017 -14.82555,18.47555 -5.95654,32.52232z" fill="#ffffff" stroke="#000000" stroke-linecap="butt"/><path d="M-66.95646,441.35719c3.67972,5.82795 -1.09537,14.08052 -4.98063,16.53366c-3.88528,2.45314 -10.01794,-0.28267 -13.69763,-6.11063c-3.67972,-5.82795 2.10372,-59.98647 5.98903,-62.43963c1.42574,-0.90026 11.04583,-1.48876 10.66599,7.02731c-0.2736,6.13469 -6.12071,13.97654 -6.11164,20.74554c0.01454,10.8853 6.19065,19.9955 7.62689,22.27025z" fill="#e2e2e2" stroke="none" stroke-linecap="butt"/><path d="M-72.18637,424.6332c8.86901,14.04681 10.48633,28.95239 3.61237,33.29256c-6.87398,4.34013 -19.63619,-3.52866 -28.5052,-17.57545c-4.72384,-7.48168 -5.84204,-38.47224 2.87431,-48.67861c7.64862,-8.95609 24.76232,2.46764 27.97502,0.43914c6.87398,-4.34017 -14.82553,18.47553 -5.9565,32.5223z" fill="none" stroke="#000000" stroke-linecap="butt"/><path d="M-99.6721,423.05745l24.00805,-1.53461" fill="none" stroke="#000000" stroke-linecap="round"/></g><g data-paper-data="{&quot;index&quot;:null}"><path d="M-136.97517,412.78099c5.27927,15.75126 3.31039,30.61444 -4.39769,33.19792c-7.70804,2.58348 -18.23638,-8.09109 -23.51563,-23.84234c-2.81185,-8.38947 3.46197,-38.75898 14.35283,-46.60325c9.55677,-6.88336 23.46778,8.27782 27.07035,7.07038c7.70806,-2.5835 -18.78917,14.42602 -13.50988,30.17721z" fill="#ffffff" stroke="#000000" stroke-linecap="butt"/><path d="M-135.26442,429.81007c2.19035,6.53511 -4.40804,13.41754 -8.76472,14.87777c-4.35673,1.46023 -9.6642,-2.65375 -11.85453,-9.18886c-2.19035,-6.53511 16.28979,-57.77062 20.64654,-59.23088c1.59876,-0.53589 11.08338,1.17713 8.69192,9.35932c-1.72272,5.8942 -9.2649,12.12307 -10.86366,18.70055c-2.57104,10.57733 1.2648,20.89365 2.1197,23.44439z" fill="#e2e2e2" stroke="none" stroke-linecap="butt"/><path d="M-136.37291,412.32248c5.27927,15.75124 3.31037,30.61447 -4.39767,33.19794c-7.70806,2.58346 -18.23636,-8.09113 -23.51563,-23.84234c-2.81188,-8.38949 3.46192,-38.75898 14.35281,-46.60327c9.55677,-6.88338 23.46781,8.27787 27.07035,7.0704c7.70806,-2.58348 -18.78915,14.42602 -13.50986,30.17721z" fill="none" stroke="#000000" stroke-linecap="butt"/><path d="M-162.69804,404.26421l23.68564,4.21098" fill="none" stroke="#000000" stroke-linecap="round"/></g><g data-paper-data="{&quot;index&quot;:null}"><path d="M-106.40808,422.13966c7.75403,14.69179 8.2116,29.67781 1.02197,33.47233c-7.18957,3.79452 -19.30377,-5.03943 -27.05776,-19.7312c-4.12995,-7.82516 -2.84362,-38.80923 6.6373,-48.30954c8.31955,-8.33654 24.49668,4.37876 27.85691,2.60529c7.18959,-3.79454 -16.21247,17.27133 -8.45846,31.96303z" fill="#ffffff" stroke="#000000" stroke-linecap="butt"/><path d="M-101.96935,438.66884c3.2171,6.09552 -2.18304,13.95332 -6.24668,16.09805c-4.06369,2.14473 -9.96591,-1.05802 -13.18301,-7.15354c-3.2171,-6.09552 6.74514,-59.64316 10.80882,-61.78791c1.49122,-0.78708 11.12798,-0.62845 10.08946,7.83256c-0.7481,6.09505 -7.1852,13.4603 -7.70062,20.20965c-0.82889,10.85371 4.6228,20.41505 5.87846,22.79421z" fill="#e2e2e2" stroke="none" stroke-linecap="butt"/><path d="M-105.88779,421.5899c7.75401,14.69175 8.21158,29.67785 1.02201,33.47235c-7.18959,3.7945 -19.30377,-5.03945 -27.05776,-19.7312c-4.12997,-7.82518 -2.84367,-38.80923 6.63728,-48.30957c8.31953,-8.33656 24.49668,4.3788 27.85689,2.60531c7.18959,-3.79452 -16.21245,17.27131 -8.45842,31.96301z" fill="none" stroke="#000000" stroke-linecap="butt"/><path d="M-133.16879,417.8893l24.05479,0.33013" fill="none" stroke="#000000" stroke-linecap="round"/></g></g><g data-paper-data="{&quot;index&quot;:null}" stroke-width="7.5"><path d="M259.06644,361.96425c5.64976,21.17343 -5.412,42.51165 -24.70715,47.66021c-19.29513,5.14861 -39.51702,-7.84213 -45.1668,-29.01558c-5.64979,-21.17343 5.412,-42.51167 24.70713,-47.66021c19.29513,-5.14861 39.51699,7.84213 45.16678,29.01558z" fill="#ffffff" stroke="#000000" stroke-linecap="butt"/><path d="M259.92263,377.20331c3.1894,11.95276 -8.06741,25.33593 -25.14278,29.89223c-17.07535,4.55628 -33.50317,-1.43976 -36.69257,-13.39248c-2.14675,-8.04527 28.40191,16.84589 40.94994,2.24251c2.96678,-3.45273 9.40392,-19.66288 7.62273,-33.36196c-1.87779,-14.44212 -14.18217,-22.83111 -11.31738,-23.59553c17.07535,-4.55628 21.39066,26.26252 24.58004,38.21528z" fill="#e2e2e2" stroke="none" stroke-linecap="butt"/><path d="M214.50779,334.92372c19.29516,-5.14861 39.51695,7.84213 45.16674,29.01558c5.64979,21.17343 -5.41198,42.51165 -24.70713,47.66021c-19.29516,5.14861 -39.51697,-7.84211 -45.16676,-29.01556c-5.64979,-21.17343 5.41198,-42.51165 24.70713,-47.66021z" fill="none" stroke="#000000" stroke-linecap="butt"/><g><path d="M180.40065,419.78177c0.90264,16.58789 -4.94607,30.39308 -13.0636,30.83479c-8.11747,0.44171 -15.42974,-12.64732 -16.33236,-29.23519c-0.48077,-8.83507 13.63966,-36.44452 26.22376,-41.11179c11.04261,-4.09552 20.42333,14.21786 24.21725,14.0114c8.11749,-0.44173 -21.94776,8.91287 -21.04508,25.5007z" fill="#ffffff" stroke="#000000" stroke-linecap="butt"/><path d="M177.52348,436.65298c0.37452,6.88223 -7.81588,11.7632 -12.40399,12.0129c-4.58815,0.24967 -8.61116,-5.12705 -8.98565,-12.00928c-0.37452,-6.88223 31.0594,-51.36261 35.64755,-51.61228c1.6837,-0.09167 10.37179,4.08078 5.89151,11.33299c-3.22742,5.22426 -12.15395,9.22433 -15.44353,15.14025c-5.29003,9.51345 -4.33428,20.47824 -4.18814,23.16447z" fill="#e2e2e2" stroke="none" stroke-linecap="butt"/><path d="M181.10311,419.49985c0.90264,16.58787 -4.94611,30.3931 -13.06358,30.83481c-8.11747,0.44171 -15.42972,-12.64734 -16.33236,-29.23519c-0.48077,-8.8351 13.63961,-36.44454 26.22376,-41.11181c11.04261,-4.09554 20.42333,14.2179 24.21723,14.01142c8.11749,-0.44171 -21.94771,8.91287 -21.04503,25.5007z" fill="none" stroke="#000000" stroke-linecap="butt"/><path d="M179.5812,415.08935l-21.71432,-10.35521" fill="none" stroke="#000000" stroke-linecap="round"/></g><g data-paper-data="{&quot;index&quot;:null}"><path d="M208.42832,426.20627c8.86903,-14.04676 -12.83051,-36.86249 -5.95652,-32.52232c3.21273,2.02848 20.32638,-9.3952 27.97502,-0.43911c8.71633,10.20632 7.59815,41.19693 2.87433,48.67856c-8.86901,14.04683 -21.63122,21.9156 -28.5052,17.57545c-6.87403,-4.34015 -5.2567,-19.24571 3.61233,-33.29254z" fill="#ffffff" stroke="#000000" stroke-linecap="butt"/><path d="M203.2302,440.3684c1.43621,-2.27475 7.61235,-11.38495 7.62689,-22.27025c0.00907,-6.76901 -5.83804,-14.61087 -6.11162,-20.74554c-0.37984,-8.51605 9.24026,-7.92755 10.66599,-7.02731c3.8853,2.45316 9.66874,56.61167 5.98903,62.43963c-3.67969,5.82795 -9.81235,8.56379 -13.69763,6.11063c-3.88526,-2.45314 -8.66035,-10.70573 -4.98063,-16.53366z" fill="#e2e2e2" stroke="none" stroke-linecap="butt"/><path d="M207.95216,425.61786c8.86903,-14.04676 -12.83049,-36.86245 -5.9565,-32.5223c3.21271,2.0285 20.32641,-9.39522 27.97502,-0.43914c8.71635,10.20637 7.59815,41.19693 2.87431,48.67861c-8.86901,14.04679 -21.63122,21.9156 -28.5052,17.57545c-6.87396,-4.34015 -5.25664,-19.24575 3.61237,-33.29256z" fill="none" stroke="#000000" stroke-linecap="butt"/><path d="M235.43786,424.04217l-24.00805,-1.53461" fill="none" stroke="#000000" stroke-linecap="round"/></g><g data-paper-data="{&quot;index&quot;:null}"><path d="M272.74096,413.76564c5.2793,-15.75119 -21.21794,-32.76071 -13.50988,-30.17721c3.60257,1.20745 17.51358,-13.95373 27.07035,-7.07038c10.89086,7.84427 17.16468,38.21378 14.35283,46.60325c-5.27925,15.75126 -15.80759,26.42582 -23.51563,23.84234c-7.70811,-2.58346 -9.67699,-17.44666 -4.39769,-33.19792z" fill="#ffffff" stroke="#000000" stroke-linecap="butt"/><path d="M271.05494,428.75712c0.8549,-2.55076 4.69073,-12.86706 2.1197,-23.44439c-1.59878,-6.57748 -9.14097,-12.80638 -10.86366,-18.70055c-2.39146,-8.18219 7.09316,-9.89521 8.69192,-9.35932c4.35675,1.46023 22.83689,52.69577 20.64654,59.23088c-2.19033,6.53511 -7.4978,10.64911 -11.85453,9.18886c-4.35668,-1.46023 -10.95507,-8.34268 -8.76472,-14.87777z" fill="#e2e2e2" stroke="none" stroke-linecap="butt"/><path d="M272.13867,413.30714c5.2793,-15.75119 -21.21792,-32.76069 -13.50986,-30.17721c3.60254,1.20747 17.51358,-13.95377 27.07035,-7.0704c10.89089,7.84429 17.16466,38.21378 14.35281,46.60327c-5.27925,15.75122 -15.80757,26.4258 -23.51563,23.84234c-7.70804,-2.58348 -9.67694,-17.44671 -4.39767,-33.19794z" fill="none" stroke="#000000" stroke-linecap="butt"/><path d="M298.46378,405.24893l-23.68564,4.211" fill="none" stroke="#000000" stroke-linecap="round"/></g><g data-paper-data="{&quot;index&quot;:null}"><path d="M242.17389,423.12432c7.75403,-14.6917 -15.64805,-35.75758 -8.45846,-31.96303c3.36023,1.77346 19.53736,-10.94183 27.85691,-2.60529c9.4809,9.50031 10.76725,40.48438 6.6373,48.30954c-7.75399,14.69177 -19.86818,23.5257 -27.05776,19.7312c-7.18964,-3.79452 -6.73204,-18.78056 1.02199,-33.47233z" fill="#ffffff" stroke="#000000" stroke-linecap="butt"/><path d="M238.08869,437.64664c1.25566,-2.37919 6.70735,-11.94051 5.87846,-22.79421c-0.51542,-6.74936 -6.95254,-14.11463 -7.70062,-20.20965c-1.03852,-8.46103 8.59824,-8.61966 10.08946,-7.83256c4.06369,2.14476 14.02592,55.69237 10.80882,61.78791c-3.21708,6.09554 -9.11933,9.2983 -13.18299,7.15354c-4.06365,-2.14473 -9.46378,-10.00253 -6.24668,-16.09807z" fill="#e2e2e2" stroke="none" stroke-linecap="butt"/><path d="M241.65355,422.57456c7.75403,-14.6917 -15.64801,-35.75753 -8.45842,-31.96301c3.36021,1.77349 19.53736,-10.94187 27.85691,-2.60531c9.48092,9.50033 10.76723,40.48438 6.63728,48.30957c-7.75399,14.69175 -19.86816,23.5257 -27.05776,19.7312c-7.18957,-3.79452 -6.732,-18.7806 1.02201,-33.47235z" fill="none" stroke="#000000" stroke-linecap="butt"/><path d="M244.87977,419.20415l24.05479,-0.33013" fill="none" stroke="#000000" stroke-linecap="round"/></g></g></g></g></svg>