<svg version="1.1" xmlns="http://www.w3.org/2000/svg" xmlns:xlink="http://www.w3.org/1999/xlink" width="762.40191" height="668.74269" viewBox="0,0,762.40191,668.74269"><g transform="translate(235.08837,-62.77366)"><g data-paper-data="{&quot;isPaintingLayer&quot;:true}" fill-rule="nonzero" stroke-linejoin="miter" stroke-miterlimit="10" stroke-dasharray="" stroke-dashoffset="0" style="mix-blend-mode: normal"><g stroke-width="7.5" stroke-linecap="butt"><g><path d="M18.91747,657.2709l15.85587,-215.99916l37.54272,2.7559l-15.85587,215.99916z" fill="#7c7c7c" stroke="#000000"/><path d="M37.94307,437.33748c6.24077,0.45814 -5.42785,104.66193 -1.3241,159.8166c3.36708,45.25382 23.15602,42.87513 22.8318,47.29156c-0.71931,9.79906 -10.51253,17.0667 -21.87378,16.2327c-11.36125,-0.834 -19.98822,-9.45379 -19.26892,-19.25287c0.71931,-9.79906 8.27375,-204.92198 19.63498,-204.088z" fill="#4c4c4c" stroke="none"/><path d="M18.91747,657.2709l15.85587,-215.99915l37.54272,2.75589l-15.85587,215.99915z" fill="none" stroke="#000000"/></g><g><path d="M23.30242,391.06567c6.85172,-6.01235 29.98608,-4.87595 38.23472,-4.20718c9.524,0.77219 31.86077,-6.77916 37.97811,2.24201c7.83075,11.54789 -1.96488,41.72647 -3.45078,60.05368c-2.64668,32.64436 -22.39618,57.68057 -44.11177,55.91995c-4.10257,-0.33263 -2.71729,-60.15004 -6.29332,-62.20379c-7.93042,-4.55453 -26.40086,76.27493 -31.83567,80.64305c-5.08639,4.08808 2.56386,-67.93483 3.60165,-80.73494c1.64133,-20.24442 -5.3092,-41.89687 5.87705,-51.71277z" fill="#5d9000" stroke="#000000"/><path d="M41.46435,444.95728c-7.58721,13.96841 -18.26119,77.69187 -22.46946,71.33679c-10.0631,-15.19662 -1.96787,-108.91475 5.17387,-119.5429c2.30857,-3.43556 -7.90921,55.12467 -2.69847,65.39227c4.87651,9.60901 14.88292,-31.65869 22.04471,-34.27886c12.08939,-4.42297 25.12373,60.80175 27.11654,60.96332c11.63841,0.94359 26.32202,-31.12481 25.20581,-17.35741c-1.11621,13.7674 -18.29039,31.88677 -29.92881,30.94318c-2.42316,-0.19645 -6.29062,2.78305 -7.91611,1.18677c-6.18172,-6.07063 -5.18534,-24.64603 -4.30152,-35.547c0.16008,-1.97448 -4.4664,-37.38296 -12.22656,-23.09615z" fill="#517c00" stroke="none"/><path d="M23.30242,391.06567c6.8517,-6.01234 29.98608,-4.87593 38.23472,-4.20717c9.524,0.77217 31.86075,-6.77917 37.97809,2.24199c7.83074,11.54791 -1.96488,41.72649 -3.45078,60.0537c-2.64666,32.64434 -22.39618,57.68055 -44.11177,55.91994c-4.10257,-0.33263 -2.71729,-60.15004 -6.29332,-62.20379c-7.93042,-4.55453 -26.40086,76.27495 -31.83567,80.64305c-5.08637,4.08808 2.56388,-67.93483 3.60167,-80.73494c1.64135,-20.24442 -5.3092,-41.89687 5.87705,-51.71277z" fill="none" stroke="#000000"/></g><g><g><path d="M-50.34655,702.80018l0.53251,-51.66236l110.66034,3.08133l-0.53251,51.66237z" fill="#252525" stroke="#000000"/><path d="M-50.34655,702.80018l0.53251,-51.66236l110.66034,3.08133l-0.53251,51.66237z" fill="#252525" stroke="#000000"/><path d="M-50.34655,702.80018l0.53251,-51.66236l110.66034,3.08133l-0.53251,51.66237z" fill="none" stroke="#000000"/><path d="M-49.13593,654.8805c0.03872,-3.75515 1.65746,18.31669 8.34529,26.84874c6.37893,8.13798 17.64957,2.66665 25.2457,2.87818c7.38506,0.20567 38.63024,11.12814 56.86347,1.53448c11.07197,-5.82565 10.29806,-35.49054 16.75151,-32.88217c5.31094,2.14657 1.47114,50.52305 1.4532,52.26322c-0.07562,7.33687 -59.78195,1.06118 -75.34205,0.6279c-10.00011,-0.27846 -26.88068,6.58687 -33.40115,-9.71978c-3.62533,-9.06635 0.05699,-38.92893 0.08401,-41.55056z" fill="#141414" stroke="none"/><path d="M-50.34655,702.80018l0.53251,-51.66236l110.66034,3.08133l-0.53251,51.66237z" fill="none" stroke="#000000"/></g><g><path d="M-82.41565,716.20225l0.26096,-51.66236l54.23044,3.08133l-0.26096,51.66239z" fill="#252525" stroke="#000000"/><path d="M-82.41565,716.20225l0.26096,-51.66236l54.23044,3.08133l-0.26096,51.66239z" fill="#6c6c6c" stroke="#000000"/><path d="M-82.41565,716.20225l0.26096,-51.66236l54.23044,3.08133l-0.26096,51.66239z" fill="none" stroke="#000000"/><path d="M-77.73267,695.13131c3.12607,8.13796 8.64938,2.66665 12.37197,2.87816c3.61914,0.20567 18.93121,11.12814 27.86663,1.53448c5.42595,-5.82563 5.04669,-35.49052 8.20927,-32.88215c2.60269,2.14657 0.72096,50.52305 0.71217,52.26322c-0.03708,7.33687 -29.29687,1.0612 -36.92229,0.62792c-4.90068,-0.27848 -13.17322,6.58685 -16.36864,-9.7198c-1.77664,-9.06637 0.02795,-38.92893 0.04118,-41.55056c0.01898,-3.75513 0.81226,18.31669 4.08971,26.84872z" fill="#545454" stroke="none"/><path d="M-82.41565,716.20225l0.26096,-51.66236l54.23044,3.08133l-0.26096,51.66239z" fill="none" stroke="#000000"/></g><g><path d="M-0.88642,720.94882l0.26096,-51.66236l54.23044,3.08133l-0.26098,51.66239z" fill="#252525" stroke="#000000"/><path d="M-0.88642,720.94882l0.26096,-51.66236l54.23044,3.08133l-0.26098,51.66239z" fill="#6c6c6c" stroke="#000000"/><path d="M-0.88642,720.94882l0.26096,-51.66236l54.23044,3.08133l-0.26098,51.66239z" fill="none" stroke="#000000"/><path d="M-0.29314,673.02918c0.01896,-3.75513 0.81224,18.31669 4.08969,26.84872c3.12609,8.13798 8.64941,2.66667 12.37199,2.87818c3.61912,0.20565 18.93119,11.12812 27.86661,1.53447c5.42596,-5.82563 5.04669,-35.49052 8.20929,-32.88215c2.60269,2.14656 0.72096,50.52305 0.71217,52.26322c-0.03706,7.33687 -29.29685,1.06118 -36.92227,0.6279c-4.90068,-0.27848 -13.17323,6.58685 -16.36866,-9.7198c-1.77662,-9.06637 0.02795,-38.92893 0.04118,-41.55056z" fill="#545454" stroke="none"/><path d="M-0.88642,720.94882l0.26096,-51.66236l54.23044,3.08133l-0.26098,51.66239z" fill="none" stroke="#000000"/></g><g><path d="M-45.55997,720.6696l0.26096,-51.66236l54.23044,3.08133l-0.26096,51.66239z" fill="#252525" stroke="#000000"/><path d="M-45.55997,720.6696l0.26096,-51.66236l54.23044,3.08133l-0.26096,51.66239z" fill="#6c6c6c" stroke="#000000"/><path d="M-45.55997,720.6696l0.26096,-51.66236l54.23044,3.08133l-0.26096,51.66239z" fill="none" stroke="#000000"/><path d="M-44.96669,672.74996c0.01895,-3.75513 0.81224,18.31671 4.08969,26.84874c3.12607,8.13798 8.6494,2.66665 12.37197,2.87816c3.61912,0.20565 18.93119,11.12814 27.86661,1.53448c5.42596,-5.82563 5.04669,-35.49054 8.20929,-32.88217c2.60267,2.14656 0.72096,50.52305 0.71217,52.26322c-0.03706,7.33687 -29.29685,1.06118 -36.92227,0.6279c-4.90067,-0.27848 -13.17322,6.58685 -16.36864,-9.7198c-1.77662,-9.06637 0.02795,-38.92893 0.04118,-41.55056z" fill="#545454" stroke="none"/><path d="M-45.55997,720.6696l0.26096,-51.66236l54.23044,3.08133l-0.26096,51.66239z" fill="none" stroke="#000000"/></g></g></g><g data-paper-data="{&quot;index&quot;:null}" stroke-width="7.5" stroke-linecap="butt"><g><path d="M142.83755,663.54497l-15.85585,-215.99916l37.5427,-2.7559l15.85587,215.99916z" fill="#7c7c7c" stroke="#000000"/><path d="M180.98965,644.94365c0.71931,9.79908 -7.90764,18.41889 -19.2689,19.25287c-11.36125,0.834 -21.15448,-6.43364 -21.87378,-16.23272c-0.3242,-4.41641 19.46474,-2.03774 22.83182,-47.29156c4.10373,-55.15466 -7.56489,-159.35848 -1.32412,-159.8166c11.36125,-0.834 18.91567,194.28892 19.635,204.08799z" fill="#4c4c4c" stroke="none"/><path d="M142.83755,663.54496l-15.85585,-215.99915l37.54272,-2.7559l15.85587,215.99915z" fill="none" stroke="#000000"/></g><g><path d="M181.87236,446.29661c1.03779,12.80011 8.68804,84.82302 3.60165,80.73494c-5.43481,-4.36812 -23.90524,-85.19758 -31.83567,-80.64305c-3.57602,2.05375 -2.19075,61.87116 -6.29332,62.20379c-21.71559,1.76061 -41.46509,-23.2756 -44.11177,-55.91995c-1.4859,-18.32721 -11.28153,-48.50579 -3.45078,-60.05368c6.11734,-9.02116 28.45411,-1.46982 37.97811,-2.24201c8.24864,-0.66877 31.383,-1.80517 38.23472,4.20718c11.18624,9.8159 4.23572,31.46836 5.87705,51.71277z" fill="#5d9000" stroke="#000000"/><path d="M145.60682,471.5716c0.88382,10.90097 1.8802,29.47637 -4.30152,35.547c-1.62548,1.59628 -5.49295,-1.38322 -7.91611,-1.18677c-11.63841,0.94359 -28.8126,-17.17578 -29.92881,-30.94318c-1.11621,-13.7674 13.56739,18.301 25.20581,17.35741c1.99281,-0.16157 15.02715,-65.38629 27.11654,-60.96332c7.16179,2.62017 17.1682,43.88787 22.04471,34.27886c5.21074,-10.2676 -5.00704,-68.82783 -2.69847,-65.39227c7.14174,10.62816 15.23697,104.34628 5.17387,119.5429c-4.20827,6.35508 -14.88225,-57.36838 -22.46946,-71.33679c-7.76016,-14.2868 -12.38664,21.12167 -12.22656,23.09615z" fill="#517c00" stroke="none"/><path d="M181.87236,446.29661c1.03779,12.80011 8.68804,84.82302 3.60167,80.73494c-5.43481,-4.3681 -23.90524,-85.19758 -31.83567,-80.64305c-3.57602,2.05375 -2.19075,61.87116 -6.29332,62.20379c-21.71559,1.76061 -41.46511,-23.2756 -44.11177,-55.91994c-1.4859,-18.32721 -11.28151,-48.50579 -3.45078,-60.0537c6.11734,-9.02116 28.45409,-1.46982 37.97809,-2.24199c8.24864,-0.66877 31.38302,-1.80517 38.23472,4.20717c11.18624,9.8159 4.2357,31.46836 5.87705,51.71277z" fill="none" stroke="#000000"/></g><g><g><path d="M138.98394,709.3997l-0.53251,-51.66237l110.66034,-3.08133l0.53251,51.66236z" fill="#252525" stroke="#000000"/><path d="M138.98394,709.3997l-0.53251,-51.66237l110.66034,-3.08133l0.53251,51.66236z" fill="#252525" stroke="#000000"/><path d="M138.98394,709.3997l-0.53251,-51.66237l110.66034,-3.08133l0.53251,51.66236z" fill="none" stroke="#000000"/><path d="M248.43368,658.39869c0.02702,2.62163 3.70934,32.48421 0.08401,41.55056c-6.52047,16.30665 -23.40104,9.44132 -33.40115,9.71978c-15.5601,0.43328 -75.26643,6.70897 -75.34205,-0.6279c-0.01794,-1.74017 -3.85774,-50.11665 1.4532,-52.26322c6.45345,-2.60837 5.67954,27.05652 16.75151,32.88217c18.23324,9.59366 49.47842,-1.32881 56.86347,-1.53448c7.59613,-0.21153 18.86677,5.2598 25.2457,-2.87818c6.68783,-8.53205 8.30657,-30.60389 8.34529,-26.84874z" fill="#141414" stroke="none"/><path d="M138.98394,709.3997l-0.53251,-51.66237l110.66034,-3.08133l0.53251,51.66236z" fill="none" stroke="#000000"/></g><g><path d="M227.48294,722.80179l-0.26096,-51.66239l54.23044,-3.08133l0.26096,51.66236z" fill="#252525" stroke="#000000"/><path d="M227.48294,722.80179l-0.26096,-51.66239l54.23044,-3.08133l0.26096,51.66236z" fill="#6c6c6c" stroke="#000000"/><path d="M227.48294,722.80179l-0.26096,-51.66239l54.23044,-3.08133l0.26096,51.66236z" fill="none" stroke="#000000"/><path d="M281.12011,671.80076c0.01323,2.62163 1.81782,32.48419 0.04118,41.55056c-3.19543,16.30665 -11.46796,9.44132 -16.36864,9.7198c-7.62542,0.43328 -36.88521,6.70895 -36.92229,-0.62792c-0.0088,-1.74017 -1.89052,-50.11665 0.71217,-52.26322c3.16259,-2.60837 2.78333,27.05652 8.20927,32.88215c8.93542,9.59366 24.24749,-1.32881 27.86663,-1.53448c3.72259,-0.21151 9.2459,5.2598 12.37197,-2.87816c3.27745,-8.53203 4.07073,-30.60385 4.08971,-26.84872z" fill="#545454" stroke="none"/><path d="M227.48294,722.80179l-0.26096,-51.66239l54.23044,-3.08133l0.26096,51.66236z" fill="none" stroke="#000000"/></g><g><path d="M145.95373,727.54836l-0.26098,-51.66239l54.23044,-3.08133l0.26096,51.66236z" fill="#252525" stroke="#000000"/><path d="M145.95373,727.54836l-0.26098,-51.66239l54.23044,-3.08133l0.26096,51.66236z" fill="#6c6c6c" stroke="#000000"/><path d="M145.95373,727.54836l-0.26098,-51.66239l54.23044,-3.08133l0.26096,51.66236z" fill="none" stroke="#000000"/><path d="M199.59087,676.54733c0.01323,2.62163 1.8178,32.48419 0.04118,41.55056c-3.19543,16.30665 -11.46798,9.44132 -16.36866,9.7198c-7.62542,0.43328 -36.88521,6.70897 -36.92227,-0.6279c-0.0088,-1.74017 -1.89052,-50.11667 0.71217,-52.26322c3.1626,-2.60837 2.78333,27.05652 8.20929,32.88215c8.93542,9.59366 24.24749,-1.32881 27.86661,-1.53447c3.72257,-0.21151 9.2459,5.2598 12.37199,-2.87818c3.27745,-8.53203 4.07073,-30.60385 4.08969,-26.84872z" fill="#545454" stroke="none"/><path d="M145.95373,727.54836l-0.26098,-51.66239l54.23044,-3.08133l0.26096,51.66236z" fill="none" stroke="#000000"/></g><g><path d="M190.62726,727.26914l-0.26096,-51.66239l54.23044,-3.08133l0.26096,51.66236z" fill="#252525" stroke="#000000"/><path d="M190.62726,727.26914l-0.26096,-51.66239l54.23044,-3.08133l0.26096,51.66236z" fill="#6c6c6c" stroke="#000000"/><path d="M190.62726,727.26914l-0.26096,-51.66239l54.23044,-3.08133l0.26096,51.66236z" fill="none" stroke="#000000"/><path d="M244.26442,676.26811c0.01323,2.62163 1.8178,32.48419 0.04118,41.55056c-3.19543,16.30665 -11.46798,9.44132 -16.36864,9.7198c-7.62542,0.43328 -36.88521,6.70897 -36.92227,-0.6279c-0.0088,-1.74017 -1.8905,-50.11667 0.71217,-52.26322c3.1626,-2.60837 2.78333,27.05654 8.20929,32.88217c8.93542,9.59366 24.24749,-1.32883 27.86661,-1.53448c3.72257,-0.21151 9.2459,5.25982 12.37197,-2.87816c3.27745,-8.53203 4.07075,-30.60387 4.08969,-26.84874z" fill="#545454" stroke="none"/><path d="M190.62726,727.26914l-0.26096,-51.66239l54.23044,-3.08133l0.26096,51.66236z" fill="none" stroke="#000000"/></g></g></g><g stroke-width="10" stroke-linecap="butt"><g><path d="M-228.22057,642.4966l176.93548,-291.82659l50.72224,30.75306l-176.93548,291.82659z" fill="#7c7c7c" stroke="#000000"/><path d="M-217.7288,619.8192c8.02689,-13.23908 158.36052,-281.70812 173.71018,-272.40156c8.43161,5.11213 -82.56843,143.01884 -116.3053,223.3739c-27.68075,65.93046 1.79884,76.76284 -1.81887,82.72963c-8.02691,13.23908 -26.97734,16.42703 -42.32701,7.12048c-15.34966,-9.30654 -21.28592,-27.58339 -13.25903,-40.82247z" fill="#4c4c4c" stroke="none"/><path d="M-228.22057,642.4966l176.93545,-291.82659l50.72224,30.75306l-176.93545,291.82659z" fill="none" stroke="#000000"/></g><g><path d="M-86.94892,371.11466c16.59296,-27.36743 22.07283,-62.77945 44.75876,-68.71976c13.89539,-3.63849 45.69103,14.28151 56.84197,21.04239c12.87502,7.80616 49.67505,12.9222 51.93119,29.9485c2.88806,21.7952 -32.20212,57.40826 -47.22368,82.18392c-26.75631,44.13024 -72.24451,65.47615 -101.60074,47.67737c-5.54607,-3.36261 38.60059,-86.6706 35.01052,-92.08691c-7.96155,-12.01159 -91.0036,88.8515 -101.74272,91.1727c-10.05062,2.17237 51.5333,-93.91438 62.02467,-111.21822z" fill="#5d9000" stroke="#000000"/><path d="M-53.67805,432.30954c1.61835,-2.66922 20.0763,-55.8247 -0.93587,-41.16795c-20.54389,14.33011 -80.53396,96.5897 -81.98079,84.66665c-3.45974,-28.51108 74.05481,-154.8534 91.6148,-164.79118c5.67626,-3.21238 -50.02892,72.09379 -49.92946,90.23688c0.09308,16.97933 43.30242,-34.11008 55.24194,-32.75015c20.15436,2.29564 -7.48873,103.39419 -4.79476,105.02756c15.73341,9.53921 59.04398,-25.28874 47.75978,-6.67728c-11.28419,18.61146 -48.26457,32.02787 -63.99796,22.48866c-3.27577,-1.9861 -10.82688,-0.51593 -11.99126,-3.91177c-4.42811,-12.91432 10.07877,-38.38493 19.01354,-53.12143z" fill="#517c00" stroke="none"/><path d="M-86.94895,371.11469c16.59296,-27.3674 22.07283,-62.77945 44.75876,-68.71976c13.89538,-3.63852 45.69103,14.28151 56.84197,21.04239c12.87502,7.80616 49.67505,12.9222 51.93119,29.9485c2.88804,21.7952 -32.20212,57.40826 -47.22368,82.18392c-26.75631,44.13027 -72.24451,65.47615 -101.60074,47.67737c-5.54607,-3.36261 38.60059,-86.6706 35.01052,-92.08691c-7.96155,-12.01159 -91.0036,88.8515 -101.74272,91.1727c-10.05059,2.17237 51.53331,-93.9144 62.0247,-111.21822z" fill="none" stroke="#000000"/></g></g><g data-paper-data="{&quot;index&quot;:null}" stroke-width="10" stroke-linecap="butt"><g><path d="M469.72351,680.9599l-176.93548,-291.82662l50.72224,-30.75306l176.93548,291.82662z" fill="#7c7c7c" stroke="#000000"/><path d="M509.954,627.52943c8.02691,13.23908 2.09062,31.51594 -13.25903,40.82248c-15.34966,9.30654 -34.3001,6.11859 -42.32697,-7.12048c-3.61771,-5.96681 25.86189,-16.79916 -1.81887,-82.72963c-33.73688,-80.35506 -124.7369,-218.26178 -116.3053,-223.3739c15.34966,-9.30654 165.6833,259.1625 173.71021,272.40156z" fill="#4c4c4c" stroke="none"/><path d="M469.72351,680.95987l-176.93548,-291.82659l50.72224,-30.75306l176.93548,291.82659z" fill="none" stroke="#000000"/></g><g><path d="M379.1741,378.82486c10.49137,17.30383 72.07529,113.39059 62.02467,111.21822c-10.7391,-2.32117 -93.78114,-103.18427 -101.74272,-91.1727c-3.59007,5.41634 40.55658,88.7243 35.01052,92.08688c-29.35621,17.79877 -74.84443,-3.54713 -101.60076,-47.67737c-15.02156,-24.77561 -50.11171,-60.38872 -47.2237,-82.18392c2.25614,-17.0263 39.0562,-22.14234 51.93122,-29.9485c11.15095,-6.76086 42.9466,-24.68088 56.84197,-21.04239c22.68594,5.94031 28.16583,41.35233 44.75876,68.71976z" fill="#5d9000" stroke="#000000"/><path d="M345.90326,440.01978c8.93479,14.73646 23.44168,40.20711 19.01357,53.12143c-1.16438,3.39584 -8.71549,1.92567 -11.99123,3.91177c-15.73341,9.53921 -52.71378,-3.8772 -63.99796,-22.48866c-11.28419,-18.61146 32.02637,16.21653 47.75975,6.67731c2.69397,-1.63339 -24.9491,-102.73194 -4.79476,-105.02759c11.93952,-1.35993 55.14886,49.72949 55.24194,32.75015c0.09946,-18.14307 -55.60572,-93.44928 -49.92944,-90.23688c17.56001,9.93778 95.07454,136.2801 91.6148,164.79118c-1.4468,11.92305 -61.43687,-70.33655 -81.98076,-84.66665c-21.01217,-14.65675 -2.55425,38.49872 -0.9359,41.16795z" fill="#517c00" stroke="none"/><path d="M379.17404,378.82489c10.49137,17.30383 72.07529,113.39059 62.0247,111.21822c-10.73908,-2.32117 -93.78115,-103.18425 -101.74272,-91.1727c-3.59007,5.41631 40.55658,88.7243 35.01052,92.08688c-29.35621,17.79877 -74.84443,-3.5471 -101.60076,-47.67737c-15.02156,-24.77561 -50.11171,-60.38872 -47.22368,-82.18392c2.25614,-17.0263 39.05614,-22.14234 51.93119,-29.9485c11.15095,-6.76086 42.9466,-24.68091 56.84197,-21.04239c22.68594,5.94031 28.16581,41.35236 44.75876,68.71976z" fill="none" stroke="#000000"/></g></g><g stroke-width="10" stroke-linecap="butt"><path d="M13.2607,490.00833c0,-53.43897 66.05037,-96.7598 129.42872,-96.7598c63.37835,0 125.23667,16.45478 125.23667,69.89372c0,12.50448 -3.30962,98.53009 -12.67298,107.13288c-9.7165,8.92727 -36.15015,-32.78079 -45.87347,-23.98068c-20.94997,18.96082 -33.5317,40.47365 -66.69023,40.47365c-20.52084,0 -23.53955,-33.92633 -40.20769,-41.88242c-13.38087,-6.38702 -40.58971,20.01119 -52.88976,15.15178c-19.6993,-7.78265 -36.33123,-47.78309 -36.33123,-70.02916z" fill="#3e5f00" stroke="#000000"/><g><path d="M124.36886,605.0475v-206.80149h58.21679v206.80149z" fill="#707070" stroke="#000000"/><path d="M121.19643,585.19042c0,-13.24697 -1.16679,-158.90558 14.90724,-158.90558c10.74631,0 -12.00551,104.24588 -1.9163,154.02638c5.00195,24.67979 48.05772,9.48317 48.05772,13.87387c0,13.24694 -15.87005,14.99109 -31.94409,14.99109c-16.07403,0 -29.10461,-10.7388 -29.10461,-23.98574z" fill="#474747" stroke="none"/><path d="M124.56444,605.28352v-206.80149h58.21679v206.80149z" fill="none" stroke="#000000"/></g><g><path d="M43.16915,465.37901v-29.25079h211.89274v29.25079z" fill="#707070" stroke="#000000"/><path d="M85.88028,440.09416c39.11357,0 -43.69669,14.74496 -6.97474,21.78608c18.20573,3.49081 174.91662,1.34134 174.91662,1.96237c0,1.8737 -57.76253,2.1204 -116.26743,2.1204c-58.5049,0 -92.99716,0.32897 -92.99716,-1.54473c0,-1.8737 -17.18218,-24.32412 41.32274,-24.32412z" fill="#474747" stroke="none"/><path d="M43.88103,465.41242v-29.25079h211.89274v29.25079z" fill="none" stroke="#000000"/></g><g><path d="M46.865,542.06736v-29.25079h211.89274v29.25079z" fill="#707070" stroke="#000000"/><path d="M48.25334,541.10663c0,-1.8737 -17.18218,-24.32413 41.32274,-24.32413c39.11356,0 -43.69666,14.74493 -6.97474,21.78608c18.20572,3.49081 174.91662,1.34134 174.91662,1.96237c0,1.8737 -57.76253,2.1204 -116.26743,2.1204c-58.5049,0 -92.99716,0.32897 -92.99716,-1.54473z" fill="#474747" stroke="none"/><path d="M47.57684,542.10074v-29.25079h211.89274v29.25079z" fill="none" stroke="#000000"/></g><path d="M25.00957,345.98105c15.75865,1.50277 46.39851,16.8003 61.27006,8.81631c12.32789,-6.61838 -42.41714,-28.38744 -34.82112,-46.15964c6.72525,-15.7349 75.42164,-28.05745 90.48945,-28.05745c75.01885,0 135.83363,40.79031 135.83363,91.1077c0,27.93516 8.3798,115.1155 -24.49031,158.40513c-13.977,18.40759 -2.96678,-18.96348 -27.91997,-16.24694c-2.38866,0.26003 32.63899,-61.23811 18.70797,-54.30067c-1.64449,0.81891 -16.232,1.42069 -32.37636,-11.29595c-17.252,-13.58912 -36.19904,-40.46107 -40.35825,-36.34828c-8.5443,8.44891 0.33978,35.51583 -0.98224,55.81838c-2.38918,36.69165 -10.36962,70.32541 -18.04649,67.04184c-26.36992,-11.27904 -49.68786,-71.60999 -56.32879,-67.85929c-23.35376,13.18987 43.30871,92.81658 33.71827,92.81658c-25.24739,0 -80.14606,11.54044 -98.55916,-11.07464c-36.29863,-44.58224 -25.03194,-143.57292 -25.03194,-176.95612c0,-15.02571 1.69993,-27.34674 18.89523,-25.70694z" fill="#5d9000" stroke="#000000"/><path d="M18.77696,532.11771c0,-5.38741 -18.25009,-166.29036 -6.29222,-179.42635c0.87909,-0.96571 12.88602,-2.49912 26.30402,0.78776c17.31175,4.24068 37.63901,12.94962 46.42848,4.0187c4.06627,-4.1317 -17.93526,-23.91748 -25.09502,-38.07692c-6.42958,-12.7154 1.76343,-19.98741 6.93066,-22.54759c45.0003,-22.2961 108.22993,-24.70746 115.93399,-13.18286c3.40328,5.09098 -108.94056,20.33019 -111.30097,29.99111c-2.38625,9.76667 26.31896,26.43289 26.77639,38.35279c0.64739,16.87108 -82.20872,17.97243 -82.59681,33.78696c-0.34074,13.88414 7.46312,140.98588 25.33787,154.29201c8.96879,6.67643 43.46441,16.61239 53.37364,0.63849c6.74844,-10.87861 -21.84582,-61.62932 -17.65821,-73.85215c5.3134,-15.50877 23.20758,-8.14263 24.07991,-8.14263c1.15296,0 13.06113,1.51358 17.3828,8.1157c10.84147,16.56225 19.95697,47.44881 29.6666,36.83457c6.31499,-6.90334 -1.39918,-48.51118 2.30026,-65.59118c7.2325,-33.39181 23.17464,-46.63875 28.30828,-39.06956c0.29687,0.43771 23.04256,18.55037 44.28137,31.69673c18.3101,11.33356 35.58608,17.77396 35.38137,20.1754c-0.05959,0.69906 -3.74318,78.42271 -4.90227,79.22045c-1.84094,1.26704 -14.82344,-9.27265 -18.04068,-22.7083c-2.48755,-10.38846 8.80498,-29.6514 8.1912,-40.01146c-0.65233,-11.01102 -13.23733,-12.87538 -17.08688,-15.1541c-22.08552,-13.07344 -46.28848,-44.00354 -53.94551,-38.36133c-9.07283,6.68545 -0.12737,25.40877 -1.94006,40.16456c-3.91224,31.84646 -9.01093,66.00541 -8.92148,67.23196c0.27295,3.74271 -4.00455,11.41807 -12.51094,3.99157c-16.54258,-14.44251 -44.42774,-52.51229 -53.3548,-53.06508c-8.2292,-0.50958 20.53823,57.03991 20.53823,59.89083c0,0.79879 9.62293,16.63547 9.47856,17.41498c-2.33874,12.62829 -32.88664,7.46196 -58.26319,7.46196c-26.94301,0 -48.78463,-11.13778 -48.78463,-24.87694z" fill="#517c00" stroke="none"/><path d="M6.11432,371.68794c0,-15.02566 1.69993,-27.34673 18.89523,-25.70691c15.75868,1.50279 46.39851,16.8003 61.27006,8.81631c12.32789,-6.61837 -42.41714,-28.38741 -34.82112,-46.15964c6.72525,-15.7349 75.42166,-28.05745 90.48945,-28.05745c75.01885,0 135.83363,40.79031 135.83363,91.1077c0,27.93516 8.3798,115.1155 -24.49031,158.40513c-13.977,18.40759 -2.96675,-18.96348 -27.91997,-16.24694c-2.38862,0.26006 32.63902,-61.23807 18.708,-54.30064c-1.64449,0.81891 -16.232,1.42069 -32.37636,-11.29595c-17.252,-13.58912 -36.19904,-40.46104 -40.35825,-36.34828c-8.5443,8.44891 0.33978,35.51583 -0.98224,55.81838c-2.38918,36.69165 -10.36965,70.32541 -18.04652,67.04184c-26.36992,-11.27904 -49.68783,-71.60999 -56.32876,-67.85929c-23.35379,13.18987 43.30871,92.81658 33.71827,92.81658c-25.24739,0 -80.14606,11.54044 -98.55916,-11.07464c-36.29866,-44.58224 -25.03196,-143.57294 -25.03196,-176.95612z" fill="none" stroke="#000000"/></g><g stroke-width="10"><path d="M51.683,161.84674c4.89977,-27.75435 -4.31231,-73.62936 26.98109,-59.16884c26.90729,12.43374 22.69799,-26.37954 45.1597,-35.05842c12.29626,-4.75109 41.85767,9.86653 57.82433,10.72042c25.26964,1.35138 37.04445,-8.39617 48.62281,-6.35211c57.98537,10.23677 42.43904,64.37568 31.39574,126.92959c-11.0433,62.55393 -67.00211,104.96537 -124.98748,94.7286c-57.98537,-10.23677 -96.03944,-69.24531 -84.99615,-131.79922z" fill="#3e5f00" stroke="none" stroke-linecap="butt"/><path d="M52.66693,161.65896c4.89977,-27.75435 -4.3123,-73.62938 26.98109,-59.16886c26.90729,12.43374 22.69799,-26.37954 45.1597,-35.05842c12.29623,-4.75109 41.85764,9.86652 57.82429,10.72042c25.26964,1.35139 37.04442,-8.39616 48.62281,-6.35211c57.98541,10.23677 42.43904,64.37568 31.39574,126.92959c-11.0433,62.55393 -67.00208,104.96534 -124.98748,94.72857c-57.98537,-10.23677 -96.03944,-69.24531 -84.99615,-131.79922z" fill="none" stroke="#000000" stroke-linecap="butt"/><path d="M61.56929,196.66658l14.73173,-83.44674l207.42476,36.61887l-14.73173,83.44674z" fill="#888888" stroke="#000000" stroke-linecap="butt"/><path d="M89.34168,112.06651c12.23449,2.15988 3.39036,23.43256 8.9053,41.6539c3.16161,10.44596 12.13818,21.37642 20.84749,27.8464c22.79121,16.93111 83.38874,3.22193 82.25313,9.65451c-2.32654,13.17851 -34.69552,18.48032 -72.29817,11.84193c-15.18091,-2.68004 -40.08601,-2.96704 -50.88903,-7.90968c-15.9557,-7.30013 -14.37126,-20.11389 -12.98399,-27.97198c2.32654,-13.17851 -13.43738,-61.75344 24.16524,-55.11505z" fill="#474747" stroke="none" stroke-linecap="butt"/><path d="M61.56929,196.66658l14.73173,-83.44674l207.42476,36.61887l-14.73173,83.44674z" fill="none" stroke="#000000" stroke-linecap="butt"/><g><path d="M234.72021,332.19167l23.45823,-132.87731l34.67513,6.12157l-23.45823,132.87731z" fill="#707070" stroke="#000000" stroke-linecap="butt"/><path d="M257.55709,226.10372c7.09201,1.25202 -5.5464,50.83202 -3.08417,79.96375c1.36971,16.20547 19.72413,18.26721 19.26289,20.87987c-1.29041,7.30939 -11.28386,11.65522 -22.32101,9.70671c-11.03715,-1.94851 -18.93845,-9.45351 -17.64806,-16.76287c1.2904,-7.30936 12.75318,-95.73598 23.79034,-93.78747z" fill="#494949" stroke="none" stroke-linecap="butt"/><path d="M234.79354,332.62797l23.45823,-132.87731l34.67517,6.12157l-23.45823,132.87731z" fill="none" stroke="#000000" stroke-linecap="butt"/><path d="M242.20664,310.7363l30.2998,6.16798" fill="none" stroke="#000000" stroke-linecap="round"/><path d="M276.18303,288.34819l-30.70472,-5.42063" fill="none" stroke="#000000" stroke-linecap="round"/><path d="M280.62233,263.20208l-30.22205,-5.06247" fill="none" stroke="#000000" stroke-linecap="round"/><path d="M255.19741,237.15085l30.03513,6.12125" fill="none" stroke="#000000" stroke-linecap="round"/></g><g><path d="M202.28238,331.25554l23.45823,-132.87731l34.67517,6.12157l-23.45823,132.87731z" fill="#707070" stroke="#000000" stroke-linecap="butt"/><path d="M201.32902,318.95513c1.29041,-7.30939 12.75318,-95.73598 23.79034,-93.78747c7.09201,1.25202 -5.5464,50.83202 -3.08417,79.96375c1.36972,16.20544 19.72413,18.26716 19.26289,20.87986c-1.2904,7.30936 -11.28387,11.65521 -22.32104,9.70671c-11.03715,-1.94851 -18.93845,-9.45351 -17.64806,-16.76287z" fill="#494949" stroke="none" stroke-linecap="butt"/><path d="M202.35577,331.69188l23.45823,-132.87735l34.67517,6.12157l-23.45823,132.87735z" fill="none" stroke="#000000" stroke-linecap="butt"/><path d="M209.76884,309.80022l30.29982,6.16798" fill="none" stroke="#000000" stroke-linecap="round"/><path d="M243.74523,287.41209l-30.70472,-5.42063" fill="none" stroke="#000000" stroke-linecap="round"/><path d="M217.96249,257.20349l30.22205,5.06247" fill="none" stroke="#000000" stroke-linecap="round"/><path d="M252.79475,242.33602l-30.03513,-6.12125" fill="none" stroke="#000000" stroke-linecap="round"/></g><g><path d="M160.00729,347.69007l24.56747,-139.16054l34.67517,6.12157l-24.56747,139.16054z" fill="#707070" stroke="#000000" stroke-linecap="butt"/><path d="M183.73575,236.55243c7.09201,1.25202 -5.96585,53.20792 -3.73592,83.65561c1.24048,16.93748 19.60444,18.94518 19.12139,21.68139c-1.35142,7.655 -11.39435,12.28102 -22.43149,10.33251c-11.03715,-1.94851 -18.88899,-9.73368 -17.53758,-17.38867c1.35142,-7.655 13.54644,-100.22936 24.58359,-98.28086z" fill="#494949" stroke="none" stroke-linecap="butt"/><path d="M160.07728,348.1458l24.56747,-139.16054l34.67517,6.12157l-24.56747,139.16054z" fill="none" stroke="#000000" stroke-linecap="butt"/><path d="M167.67815,325.19024l30.29319,6.20554" fill="none" stroke="#000000" stroke-linecap="round"/><path d="M171.17963,296.07976l30.70472,5.42063" fill="none" stroke="#000000" stroke-linecap="round"/><path d="M206.5336,275.16523l-30.22426,-5.04995" fill="none" stroke="#000000" stroke-linecap="round"/><path d="M181.28322,248.12523l30.0285,6.15881" fill="none" stroke="#000000" stroke-linecap="round"/></g><g><path d="M130.31426,331.20638l23.45823,-132.87731l34.67517,6.12157l-23.45823,132.87731z" fill="#707070" stroke="#000000" stroke-linecap="butt"/><path d="M153.15122,225.11844c7.09201,1.25202 -5.54641,50.83205 -3.08416,79.96378c1.36972,16.20544 19.72413,18.26716 19.26289,20.87986c-1.2904,7.30936 -11.28386,11.65522 -22.32101,9.70671c-11.03715,-1.94851 -18.93845,-9.45351 -17.64806,-16.76287c1.2904,-7.30936 12.75318,-95.73598 23.79034,-93.78747z" fill="#494949" stroke="none" stroke-linecap="butt"/><path d="M130.3877,331.64269l23.45823,-132.87731l34.67517,6.12157l-23.45823,132.87731z" fill="none" stroke="#000000" stroke-linecap="butt"/><path d="M137.80073,309.75101l30.29982,6.16798" fill="none" stroke="#000000" stroke-linecap="round"/><path d="M141.07242,281.94228l30.70472,5.42063" fill="none" stroke="#000000" stroke-linecap="round"/><path d="M176.21645,262.2168l-30.22205,-5.06247" fill="none" stroke="#000000" stroke-linecap="round"/><path d="M150.79155,236.16558l30.03513,6.12125" fill="none" stroke="#000000" stroke-linecap="round"/></g><g><path d="M89.70134,339.4719l23.45823,-132.87731l34.67517,6.12157l-23.45823,132.87731z" fill="#707070" stroke="#000000" stroke-linecap="butt"/><path d="M112.53826,233.38397c7.09201,1.25202 -5.54641,50.83205 -3.08416,79.96378c1.36972,16.20544 19.72413,18.26716 19.26289,20.87986c-1.2904,7.30936 -11.28386,11.65522 -22.32101,9.70671c-11.03715,-1.94851 -18.93845,-9.45351 -17.64806,-16.76287c1.2904,-7.30936 12.75318,-95.73598 23.79034,-93.78747z" fill="#494949" stroke="none" stroke-linecap="butt"/><path d="M89.77473,339.90819l23.45823,-132.87731l34.67517,6.12157l-23.45823,132.87731z" fill="none" stroke="#000000" stroke-linecap="butt"/><path d="M127.48758,324.18452l-30.29982,-6.16798" fill="none" stroke="#000000" stroke-linecap="round"/><path d="M100.45948,290.2078l30.70472,5.42063" fill="none" stroke="#000000" stroke-linecap="round"/><path d="M105.38145,265.41984l30.22205,5.06247" fill="none" stroke="#000000" stroke-linecap="round"/><path d="M140.21372,250.55234l-30.03513,-6.12125" fill="none" stroke="#000000" stroke-linecap="round"/></g><g><path d="M58.90001,315.35139l23.45823,-132.87731l34.67517,6.12157l-23.45823,132.87731z" fill="#707070" stroke="#000000" stroke-linecap="butt"/><path d="M81.73695,209.26345c7.09201,1.25202 -5.54641,50.83205 -3.08416,79.96378c1.36972,16.20544 19.72413,18.26716 19.26289,20.87986c-1.2904,7.30936 -11.28386,11.65522 -22.32101,9.70671c-11.03715,-1.94851 -18.93845,-9.45351 -17.64806,-16.76287c1.2904,-7.30936 12.75318,-95.73598 23.79034,-93.78747z" fill="#494949" stroke="none" stroke-linecap="butt"/><path d="M58.9734,315.78766l23.45823,-132.87731l34.67517,6.12157l-23.45823,132.87731z" fill="none" stroke="#000000" stroke-linecap="butt"/><path d="M66.38648,293.89603l30.29982,6.16798" fill="none" stroke="#000000" stroke-linecap="round"/><path d="M69.65815,266.08726l30.70472,5.42063" fill="none" stroke="#000000" stroke-linecap="round"/><path d="M104.80219,246.36179l-30.22205,-5.06247" fill="none" stroke="#000000" stroke-linecap="round"/><path d="M79.37729,220.31056l30.03513,6.12125" fill="none" stroke="#000000" stroke-linecap="round"/></g><g><path d="M26.46223,314.41528l23.45823,-132.87731l34.67517,6.12157l-23.45823,132.87731z" fill="#707070" stroke="#000000" stroke-linecap="butt"/><path d="M49.29915,208.32734c7.09201,1.25202 -5.54641,50.83205 -3.08416,79.96378c1.36972,16.20544 19.72413,18.26716 19.26289,20.87986c-1.2904,7.30936 -11.28386,11.65522 -22.32101,9.70671c-11.03715,-1.94851 -18.93845,-9.45351 -17.64806,-16.76287c1.2904,-7.30936 12.75318,-95.73598 23.79034,-93.78747z" fill="#494949" stroke="none" stroke-linecap="butt"/><path d="M26.5356,314.85155l23.45823,-132.87731l34.67517,6.12157l-23.45823,132.87731z" fill="none" stroke="#000000" stroke-linecap="butt"/><path d="M64.24851,299.12788l-30.29982,-6.16798" fill="none" stroke="#000000" stroke-linecap="round"/><path d="M37.22035,265.15115l30.70472,5.42063" fill="none" stroke="#000000" stroke-linecap="round"/><path d="M72.36439,245.42568l-30.22205,-5.06247" fill="none" stroke="#000000" stroke-linecap="round"/><path d="M76.97461,225.49573l-30.03513,-6.12125" fill="none" stroke="#000000" stroke-linecap="round"/></g><path d="M147.52905,194.63776c33.10754,-11.65089 50.75862,-132.1543 81.74806,-126.68341c71.60854,12.64181 84.80931,62.30772 69.09662,151.31104c-15.71269,89.00331 -75.81153,78.09495 -147.42007,65.45314c-71.60854,-12.64181 -127.61005,-22.22988 -111.89736,-111.23318c2.74907,-15.57188 9.33074,-74.2129 24.97633,-53.90482c5.60555,7.27603 -0.76432,48.10956 6.42922,70.59152c9.89702,30.93115 33.43911,44.79862 40.02314,49.10254c18.57829,12.1445 18.42694,-38.08525 37.04406,-44.63681z" fill="#5d9000" stroke="#000000" stroke-linecap="butt"/><path d="M133.24614,220.64183c3.16818,-17.94592 12.53921,-23.88701 29.4684,-38.64496c6.37202,-5.55478 3.4431,-37.69305 16.74138,-35.34536c48.62928,8.58504 84.5161,35.5684 80.15545,60.26898c-4.36066,24.70061 -47.31749,37.76484 -95.94678,29.17981c-48.62928,-8.58504 -34.77912,9.24213 -30.41846,-15.45845z" fill="#517c00" stroke="none" stroke-linecap="butt"/><path d="M43.7782,233.59708c2.039,-11.54981 121.40926,57.25874 183.70899,32.62112c17.99469,-7.11638 61.40041,-54.60667 55.03629,-90.97326c-4.4304,-25.31678 6.94154,-49.06447 -7.8253,-67.85549c-18.19135,-23.14881 -61.92283,-38.5191 -52.95471,-36.93587c31.49597,5.56031 76.24656,12.3644 81.27298,59.37251c3.0691,28.70298 -2.64973,70.66363 -12.67145,102.5935c-6.34825,20.22593 -18.06586,37.50972 -18.75194,41.39601c-3.54303,20.06922 -57.41333,27.33533 -120.32265,16.22929c-62.90934,-11.10605 -111.03522,-36.37861 -107.49219,-56.44783z" fill="#517c00" stroke="none" stroke-linecap="butt"/><path d="M147.52905,194.63776c33.10751,-11.6509 50.75862,-132.15432 81.7481,-126.68342c71.60852,12.6418 84.80928,62.30772 69.09658,151.31104c-15.71269,89.00331 -75.81153,78.09495 -147.42004,65.45315c-71.60852,-12.6418 -127.61008,-22.22988 -111.89739,-111.23318c2.74907,-15.57188 9.33074,-74.2129 24.97634,-53.90485c5.60555,7.27603 -0.76432,48.10956 6.42922,70.59152c9.89702,30.93115 33.43911,44.79857 40.02314,49.10254c18.57825,12.14452 18.42693,-38.08522 37.04406,-44.6368z" fill="none" stroke="#000000" stroke-linecap="butt"/><path d="M247.74722,129.98985c24.31468,4.29252 39.05447,35.93077 32.9223,70.66596c-6.13218,34.73522 -30.81422,59.41389 -55.12886,55.12137c-24.31468,-4.29252 -39.05447,-35.93077 -32.9223,-70.66596c6.13218,-34.73522 30.81422,-59.41389 55.12886,-55.12137z" fill="#69ff84" stroke="#000000" stroke-linecap="butt"/><path d="M247.28732,130.92634c24.31468,4.29252 39.05447,35.93077 32.9223,70.66596c-6.13218,34.73522 -30.81422,59.41389 -55.12886,55.12137c-24.31468,-4.29252 -39.05447,-35.93077 -32.9223,-70.66596c6.13218,-34.73522 30.81422,-59.41389 55.12886,-55.12137z" fill="none" stroke="#000000" stroke-linecap="butt"/><path d="M199.49707,168.98203c3.84654,-21.78845 21.77893,-36.83617 40.0531,-33.61003c17.26531,3.04803 49.16997,31.49994 47.13133,51.88325c-0.11913,1.19106 2.93438,10.17513 2.72203,11.37799c-3.84654,21.78845 -55.46362,-6.51087 -73.7378,-9.737c-18.27418,-3.22614 -20.01524,1.87424 -16.1687,-19.9142z" fill="#5d9000" stroke="#000000" stroke-linecap="butt"/><path d="M240.27306,134.48164c14.09849,2.48896 -34.1241,15.56992 -24.84361,33.72276c6.40133,12.52123 73.05995,31.66152 72.59472,34.29683c-1.13972,6.45588 -27.45722,-5.35665 -51.28033,-9.56239c-23.82313,-4.20575 -42.21164,-12.84872 -41.07191,-19.30462c1.13972,-6.45588 20.77801,-43.35836 44.60113,-39.15261z" fill="#517c00" stroke="none" stroke-linecap="butt"/><path d="M238.22755,134.30697c17.26533,3.04803 49.16997,31.49994 47.13133,51.88325c-0.11913,1.19106 2.93438,10.17513 2.72203,11.37799c-3.84654,21.78845 -55.46359,-6.51083 -73.73778,-9.73697c-18.27418,-3.22614 -20.01525,1.87422 -16.1687,-19.91424c3.84654,-21.78845 21.77893,-36.83617 40.0531,-33.61003z" fill="none" stroke="#000000" stroke-linecap="butt"/><path d="M123.83231,137.83987c18.09844,3.1951 29.50105,24.30295 25.46838,47.14569c-4.03266,22.84273 -21.97347,38.77028 -40.07196,35.57517c-18.09844,-3.1951 -29.50105,-24.30295 -25.46838,-47.14569c4.03266,-22.84273 21.97347,-38.77028 40.07196,-35.57517z" fill="#000000" stroke="#000000" stroke-linecap="butt"/></g></g></g></svg>