<svg version="1.1" xmlns="http://www.w3.org/2000/svg" xmlns:xlink="http://www.w3.org/1999/xlink" width="517.22953" height="560.63909" viewBox="0,0,517.22953,560.63909"><g transform="translate(-100.44237,25.27656)"><g data-paper-data="{&quot;isPaintingLayer&quot;:true}" fill-rule="nonzero" stroke-width="5.5" stroke-linejoin="miter" stroke-miterlimit="10" stroke-dasharray="" stroke-dashoffset="0" style="mix-blend-mode: normal"><g data-paper-data="{&quot;index&quot;:null}" stroke-linecap="butt"><path d="M148.10523,372.32541c22.62817,-11.66104 44.94651,-13.40146 49.84946,-3.88733c4.90294,9.51413 -10.5013,124.15547 -33.12947,135.81651c-22.62817,11.66104 -54.67957,5.36733 -59.58251,-4.1468c-4.90294,-9.51413 20.23436,-116.12134 42.86253,-127.78238z" fill="#840000" stroke="#000000"/><path d="M141.21757,495.56422c8.02687,-4.1365 23.30676,-17.04741 30.91354,-37.93355c14.75159,-40.50373 20.24437,-97.9392 25.36172,-88.00903c7.75616,15.05076 -11.49893,118.71416 -35.09202,130.87245c-23.59309,12.15829 -52.68931,11.71128 -60.44547,-3.33947c-7.75616,-15.05076 15.66914,10.56789 39.26223,-1.5904z" fill="#430000" stroke="none"/><path d="M147.72567,371.58888c22.62817,-11.66104 44.9465,-13.40148 49.84944,-3.88735c4.90294,9.51413 -10.50129,124.15547 -33.12945,135.81651c-22.62817,11.66104 -54.67957,5.36733 -59.58251,-4.1468c-4.90294,-9.51413 20.23436,-116.12133 42.86253,-127.78236z" fill="none" stroke="#000000"/></g><g data-paper-data="{&quot;index&quot;:null}" stroke-linecap="butt"><path d="M612.87157,508.39363c-4.90294,9.51413 -36.95435,15.80783 -59.58251,4.1468c-22.62817,-11.66104 -38.03242,-126.30238 -33.12947,-135.81651c4.90294,-9.51413 27.22129,-7.7737 49.84946,3.88733c22.62817,11.66104 47.76547,118.26825 42.86253,127.78238z" fill="#840000" stroke="#000000"/><path d="M616.15893,505.44046c-7.75616,15.05076 -36.85238,15.49776 -60.44547,3.33947c-23.59309,-12.15829 -42.84818,-115.82169 -35.09202,-130.87245c5.11735,-9.93018 10.61013,47.5053 25.36172,88.00903c7.60678,20.88614 22.88667,33.79704 30.91354,37.93355c23.59309,12.15829 47.01839,-13.46036 39.26223,1.5904z" fill="#430000" stroke="none"/><path d="M613.25113,507.65708c-4.90294,9.51413 -36.95435,15.80783 -59.58251,4.1468c-22.62817,-11.66104 -38.0324,-126.30238 -33.12945,-135.81651c4.90294,-9.51413 27.22127,-7.77369 49.84944,3.88735c22.62817,11.66104 47.76547,118.26824 42.86253,127.78236z" fill="none" stroke="#000000"/></g><g stroke-linecap="butt"><path d="M238.69814,465.13373c0,-45.17673 6.6181,-152.55188 35.74509,-198.82492c20.69073,-32.87061 60.31687,-13.95981 83.01847,-13.95981c29.13943,0 57.41169,-22.41116 72.41896,25.49873c13.14322,41.95904 27.45044,143.11242 27.45044,179.18845c0,77.26853 -45.20994,75.12694 -99.86937,75.12694c-54.6594,0 -118.76356,10.23914 -118.76356,-67.02943z" fill="#840000" stroke="#000000"/><path d="M259.3654,465.97186c0,-44.38563 9.53272,-128.8118 33.03218,-171.69849c14.51562,-26.49111 39.36816,-24.89121 55.59066,-24.89121c19.23378,0 41.54647,-4.38897 57.2539,26.02863c18.98852,36.77144 29.56946,112.37048 29.56946,151.66685c0,71.80263 -44.33807,82.32475 -86.82336,82.32475c-42.48529,0 -88.62284,8.37207 -88.62284,-63.43056z" fill="#7d3c3c" stroke="#000000"/><path d="M272.97379,358.76087c0,-21.47675 23.98322,-87.57386 62.18089,-88.6941c1.28633,-0.03775 31.23657,-15.97628 32.53983,-15.97628c40.00391,0 50.14627,50.63149 50.14627,72.83147c0,22.19997 -51.53289,-19.50131 -91.53681,-19.50131c-40.00391,0 -53.33016,73.5402 -53.33016,51.34023z" fill="#5c2c2c" stroke="none"/><path d="M243.17372,499.25423c0,-19.37924 -6.45066,-233.02852 52.18399,-233.02852c10.83632,0 -11.37264,36.90756 -22.60094,83.44526c-13.6947,56.76013 -17.19639,126.96843 -1.52675,151.0061c40.99997,62.89519 184.27854,-12.85239 184.27854,-1.42284c0,19.37924 -47.53279,35.08922 -106.16744,35.08922c-58.63465,0 -106.16744,-15.70998 -106.16744,-35.08922z" fill="#430000" stroke="none"/><path d="M265.49248,488.62603c0,-12.74852 34.22315,-7.16377 78.40329,-7.16377c44.18014,0 87.15897,-27.07599 87.15897,-14.3275c0,6.15992 -3.66652,29.24625 -19.02216,42.4135c-16.42422,14.08353 -45.30397,18.08039 -68.13681,18.08039c-24.59468,0 -50.0835,-0.97253 -64.32032,-10.3857c-11.33721,-7.49596 -14.08297,-22.96542 -14.08297,-28.61696z" fill="#5c2c2c" stroke="none"/><path d="M292.81698,293.58545c14.51559,-26.49111 39.36813,-24.89121 55.59063,-24.89121c19.23381,0 41.5465,-4.38897 57.25393,26.02863c18.98848,36.77144 29.56943,112.37051 29.56943,151.66688c0,71.8026 -44.33807,82.32475 -86.82336,82.32475c-42.48529,0 -88.62281,8.37204 -88.62281,-63.43056c0,-44.3856 9.53272,-128.8118 33.03218,-171.69849z" fill="none" stroke="#000000"/><path d="M276.76579,265.93213c20.69073,-32.87064 60.31684,-13.95984 83.01847,-13.95984c29.13943,0 57.41169,-22.4112 72.41896,25.49873c13.14322,41.95904 27.45041,143.11245 27.45041,179.18848c0,77.26853 -45.20994,75.12694 -99.86937,75.12694c-54.6594,0 -118.76356,10.23914 -118.76356,-67.02943c0,-45.17669 6.6181,-152.55184 35.74509,-198.82489z" fill="none" stroke="#000000"/></g><g><path d="M330.61655,-14.67767c25.68097,14.85835 35.56204,45.80759 22.06998,69.12709c-13.49204,23.31947 -45.24806,30.17861 -70.92903,15.32027c-25.68094,-14.85833 -35.56201,-45.80757 -22.06995,-69.12707c13.49206,-23.31951 45.24803,-30.17863 70.92901,-15.32028z" fill="#840000" stroke="#000000" stroke-linecap="butt"/><path d="M280.57275,-0.77443c-16.06285,16.34552 -17.13204,43.82507 -5.89077,50.32897c22.85812,13.22512 79.9196,-1.89662 69.27499,16.50139c-10.64461,18.398 -37.80395,22.59146 -60.66207,9.36635c-15.47438,-8.95308 -33.84762,-37.57523 -30.55672,-62.74803c0.88145,-6.74255 22.00366,-29.89878 40.954,-34.61179c14.80852,-3.68294 28.28238,10.71148 29.79068,8.10454c5.40975,-9.35014 -26.31058,-3.8331 -42.91012,13.05855z" fill="#430000" stroke="none" stroke-linecap="butt"/><path d="M330.44822,-13.70968c25.68097,14.85835 35.56202,45.80761 22.06998,69.12709c-13.49206,23.31951 -45.24806,30.17861 -70.92903,15.32027c-25.68097,-14.85835 -35.56202,-45.80761 -22.06998,-69.12709c13.49206,-23.31951 45.24806,-30.17861 70.92903,-15.32027z" fill="none" stroke="#000000" stroke-linecap="butt"/><path d="M221.28956,162.12127c17.06156,-4.1637 59.51766,23.51821 90.58258,41.49157c27.37705,15.83965 56.73174,22.89946 64.5801,38.87254c3.87014,7.87655 -4.13625,27.40549 -7.16367,32.63806c-9.16682,15.84382 -49.73537,9.51533 -90.61242,-14.13507c-40.87705,-23.6504 -66.58325,-55.66677 -57.41643,-71.51059c2.20039,-3.80313 -5.35921,-26.04137 0.02984,-27.3565z" fill="#000000" stroke="none" stroke-linecap="butt"/><g stroke-linecap="butt"><path d="M201.04621,160.63374c5.6196,-9.71284 17.28128,-13.47525 26.04712,-8.40356c2.19674,1.27098 -9.43595,3.78213 -9.26775,10.29673c0.28537,11.0526 11.57316,29.73862 15.16633,45.18309c2.74002,11.77747 22.10893,27.71218 20.28692,30.86132c-1.16788,2.01855 81.1584,38.93685 76.55414,42.13681c-0.4036,0.28051 21.51863,1.07729 35.49653,-6.6676c8.70403,-4.82273 11.09613,-20.24599 12.97241,-18.89916c5.53282,3.9716 19.78075,4.593 13.36015,16.21376c-2.56356,4.63982 -19.68497,9.15479 -26.4013,15.14044c-9.24944,8.24317 -8.58186,17.39089 -11.89335,16.42554c-29.2171,-8.51721 -124.1529,-51.13942 -127.31736,-55.37198c-10.43482,-13.95695 -14.61623,-57.43167 -19.3071,-60.14569c-8.76583,-5.07168 -11.31635,-17.0569 -5.69675,-26.76974z" fill="#840000" stroke="#000000"/><path d="M210.46863,151.83677c1.13329,-1.95877 -0.3144,24.68331 10.85031,50.39659c9.15441,21.08339 23.41969,45.05573 31.49472,49.72774c17.92331,10.36996 104.13719,45.44153 102.07466,49.00639c-2.06253,3.56485 -84.71488,-29.38974 -102.63819,-39.7597c-4.80568,-2.78044 -14.90589,-5.11955 -23.97988,-19.24215c-7.36087,-11.45628 -10.4943,-27.82255 -15.80438,-42.87361c-2.8292,-8.01916 -9.03322,-16.23174 -10.71657,-21.87392c-5.78838,-19.40136 7.89742,-23.96076 8.71932,-25.38132z" fill="#430000" stroke="none"/><path d="M201.81969,160.12399c5.6196,-9.71284 17.28128,-13.47525 26.04712,-8.40356c2.19674,1.27098 -9.43595,3.78213 -9.26775,10.29673c0.28537,11.0526 11.57316,29.73862 15.16633,45.18309c2.74003,11.77752 22.10895,27.71222 20.28695,30.86133c-1.16787,2.01853 81.15842,38.93681 76.55415,42.13679c-0.40362,0.28053 21.51863,1.07729 35.49652,-6.66757c8.70401,-4.82269 11.09611,-20.24596 12.97239,-18.89913c5.53282,3.9716 19.78078,4.59302 13.36015,16.21376c-2.56356,4.63982 -19.68497,9.15479 -26.4013,15.14044c-9.24944,8.24317 -8.58186,17.39089 -11.89335,16.42554c-29.21709,-8.51723 -124.1529,-51.13942 -127.31734,-55.37201c-10.43478,-13.95696 -14.6162,-57.43166 -19.30708,-60.14568c-8.76583,-5.07168 -11.31635,-17.0569 -5.69675,-26.76974z" fill="none" stroke="#000000"/></g><path d="M392.82781,59.94807c51.49241,29.79218 70.57013,93.11754 42.61133,141.44116c-14.20858,24.55793 -23.47992,51.68428 -46.95093,51.77688c-22.71384,0.08961 -59.43784,-26.21879 -84.76194,-40.87066c-23.81917,-13.78115 -72.77805,-33.54411 -84.07151,-51.66302c-13.12081,-21.0507 14.28818,-41.15989 29.31392,-67.13017c27.95879,-48.32362 92.36673,-63.34634 143.85911,-33.55418z" fill="#840000" stroke="#000000" stroke-linecap="butt"/><path d="M348.81687,133.69066c26.53838,15.35442 42.47861,37.43462 35.6035,49.31747c-6.8751,11.88284 -33.96211,9.06861 -60.5005,-6.28582c-26.53838,-15.35442 -99.03454,-41.43822 -92.15944,-53.32107c2.16637,-3.74433 21.62025,-50.02711 55.66662,-71.44575c15.73846,-9.9011 52.89293,-5.78417 60.0591,-5.31915c10.82364,0.70236 -58.13417,12.84946 -84.1823,40.80858c-14.50147,15.56532 9.54909,48.32991 7.5033,57.25227c-2.51104,10.95133 31.96727,-14.1724 55.11272,-20.02748c7.14616,-1.80774 21.66525,8.30829 22.89704,9.02097z" fill="#430000" stroke="none" stroke-linecap="butt"/><path d="M393.24276,59.23088c51.49241,29.79218 70.57013,93.11754 42.61133,141.44116c-14.20858,24.55793 -23.47992,51.68428 -46.95093,51.77688c-22.71384,0.08961 -59.43784,-26.21879 -84.76194,-40.87066c-23.81917,-13.78115 -72.77805,-33.54411 -84.07151,-51.66302c-13.12081,-21.0507 14.28818,-41.15989 29.31392,-67.13017c27.95879,-48.32362 92.36673,-63.34634 143.85911,-33.55418z" fill="none" stroke="#000000" stroke-linecap="butt"/><path d="M285.31956,88.73923c20.00283,11.57312 58.04077,37.83708 50.13438,51.50238c-7.90639,13.6653 -6.06981,34.30046 -26.07264,22.72734c-20.00283,-11.57312 -68.45547,-31.4182 -60.54908,-45.08351c7.90639,-13.6653 16.48452,-40.71933 36.48735,-29.14622z" fill="#000000" stroke="#000000" stroke-linecap="butt"/><path d="M410.98194,214.57291c-7.90639,13.6653 -49.2602,-18.44931 -69.26303,-30.02243c-20.00283,-11.57312 -1.19799,-20.26569 6.7084,-33.93099c7.90639,-13.6653 49.63419,6.22114 69.63703,17.79426c20.00283,11.57312 0.82399,32.49386 -7.0824,46.15916z" data-paper-data="{&quot;index&quot;:null}" fill="#000000" stroke="#000000" stroke-linecap="butt"/><path d="M242.72999,126.66923c18.21164,4.25354 51.84281,28.28725 78.96147,43.97741c29.10155,16.83741 65.51153,32.98278 77.67091,47.10231c7.3695,8.55748 -6.38867,24.92995 -8.81012,29.11515c-6.41679,11.09069 -45.35874,-9.01248 -92.09799,-36.0546c-20.72679,-11.99199 -57.2605,-30.70299 -70.27598,-42.15114c-16.33464,-14.36763 -6.30555,-20.72193 -2.73432,-26.89438c2.69369,-4.65573 4.10974,-18.17222 17.28602,-15.09475z" fill="#7d3c3c" stroke="#000000" stroke-linecap="butt"/><path d="M271.56915,139.29084c7.82857,4.52941 -10.96657,-3.03024 -23.52575,-1.66408c-12.37614,1.34628 -18.52844,11.59599 -9.76962,18.95921c36.76852,30.90989 155.15692,86.4433 152.75676,90.59172c-3.55215,6.1395 -45.28465,-11.3628 -93.2122,-39.09244c-47.92752,-27.72963 -83.90091,-55.18595 -80.34876,-61.32544c3.55215,-6.1395 6.17204,-35.19858 54.09955,-7.46896z" fill="#5c2c2c" stroke="none" stroke-linecap="butt"/><path d="M244.99428,126.06474c18.21164,4.25354 51.84281,28.28725 78.96147,43.97741c29.10155,16.83741 65.51153,32.98278 77.67091,47.10231c7.3695,8.55748 -6.38867,24.92995 -8.81012,29.11515c-6.41677,11.09066 -45.35874,-9.01248 -92.09799,-36.0546c-20.72679,-11.99199 -57.2605,-30.70299 -70.27598,-42.15114c-16.33464,-14.36763 -6.30555,-20.72193 -2.73432,-26.89438c2.69369,-4.65573 4.10974,-18.17222 17.28602,-15.09475z" fill="none" stroke="#000000" stroke-linecap="butt"/><path d="M328.67677,168.50796c14.95261,8.65119 24.28739,20.48084 20.84983,26.42227c-3.43756,5.94144 -18.34572,3.74474 -33.29832,-4.90645c-14.95261,-8.65119 -24.28739,-20.48084 -20.84983,-26.42227c3.43756,-5.94144 18.34572,-3.74474 33.29832,4.90645z" fill="#000000" stroke="#000000" stroke-linecap="butt"/><path d="M251.94048,183.57982l-4.1495,7.17194" fill="none" stroke="#000000" stroke-linecap="round"/><path d="M289.57777,217.80033l5.39435,-9.32353" fill="none" stroke="#000000" stroke-linecap="round"/><path d="M320.30441,237.49252l7.92247,-11.21128" fill="none" stroke="#000000" stroke-linecap="round"/><path d="M354.9372,257.05152l9.73339,-13.51398" fill="none" stroke="#000000" stroke-linecap="round"/><g stroke-linecap="butt"><path d="M412.82557,61.22298c4.55337,-3.02696 20.44677,-6.76552 33.2919,-18.46729c23.00427,-20.95665 47.27989,-53.15976 57.69057,-50.9175c21.95369,4.7284 34.46316,62.69805 42.35757,74.57338c2.72438,4.09818 31.74606,11.06885 29.88236,15.81592c-3.7081,9.44506 -30.35705,14.21924 -50.9472,23.63589c-21.20874,9.69952 -36.49186,24.01825 -48.65403,32.10335c-29.90408,19.87942 -42.28292,-0.93241 -56.01133,-21.58365c-13.7284,-20.65123 -37.51391,-35.2807 -7.60983,-55.16013z" fill="#410000" stroke="#000000"/><path d="M442.69628,47.70118c9.2528,-6.15104 53.50659,-73.82312 67.59156,-52.63547c8.63559,12.99033 -45.53526,34.63034 -52.60477,67.66779c-4.46109,20.84773 39.5992,59.3151 36.01937,61.69488c-9.25284,6.15102 -28.17186,-6.03854 -42.25682,-27.22618c-14.08496,-21.18764 -18.00219,-43.35002 -8.74935,-49.50103z" fill="#170000" stroke="none"/><path d="M412.89376,60.88461c4.55335,-3.02698 20.44673,-6.76551 33.29186,-18.46731c23.00427,-20.95665 47.27989,-53.15976 57.69057,-50.9175c21.95366,4.72838 34.46316,62.69805 42.35757,74.57338c2.72438,4.09818 31.74604,11.06884 29.88234,15.8159c-3.70808,9.44507 -30.35702,14.21926 -50.9472,23.63589c-21.20876,9.69954 -36.49186,24.01825 -48.65403,32.10335c-29.90408,19.87942 -42.28292,-0.93241 -56.01133,-21.58365c-13.72838,-20.65126 -37.51391,-35.2807 -7.60983,-55.16013z" fill="none" stroke="#000000"/><path d="M474.79418,164.85669c-7.7781,5.17066 -14.04685,20.36158 -28.52648,7.33364c-8.63074,-7.76547 -24.98738,-39.07705 -33.05202,-51.20848c-9.20119,-13.84108 -27.79576,-39.27466 -31.4169,-51.35372c-4.87745,-16.2697 7.66987,-17.67048 14.79457,-22.40681c6.4614,-4.29538 18.28846,-10.51451 29.98166,-1.81857c10.77299,8.01162 21.24178,30.11663 31.59682,45.69343c9.42025,14.17061 32.60142,40.1938 36.16178,52.46863c4.60124,15.86349 -12.54067,16.63925 -19.53944,21.29186z" data-paper-data="{&quot;index&quot;:null}" fill="#410000" stroke="#000000"/><path d="M429.7464,51.39503c7.70201,5.47411 42.22943,54.49909 55.14023,78.20346c10.49325,19.26576 6.80513,19.8846 9.91316,24.55993c1.37312,2.06551 -7.09113,17.39256 -12.36778,9.28614c-7.01279,-10.77358 2.21482,-16.91177 -7.24265,-35.99873c-10.36374,-20.91602 -44.34076,-61.89984 -53.63975,-67.73712c-5.90741,-3.70828 -12.0216,-4.03892 -17.13357,-2.84258c-6.62476,1.55037 -11.56638,5.66512 -12.19358,8.31635c-3.32738,14.06485 71.21018,107.3772 66.48317,110.5196c-9.11874,6.06189 -39.99477,-40.14988 -56.84323,-65.49459c-16.84846,-25.3447 -23.11464,-50.80476 -13.99592,-56.86666c5.36694,-3.56779 21.90761,-16.14086 41.87994,-1.9458z" fill="#170000" stroke="none"/><path d="M474.64816,165.5819c-7.7781,5.17066 -14.04683,20.36159 -28.52648,7.33364c-8.63075,-7.76545 -24.98738,-39.07705 -33.05205,-51.20849c-9.20119,-13.84108 -27.79574,-39.27464 -31.4169,-51.35372c-4.87745,-16.2697 7.66987,-17.67048 14.79457,-22.40681c6.46139,-4.29535 18.28849,-10.51449 29.98166,-1.81857c10.773,8.0116 21.24178,30.11663 31.59682,45.69343c9.42025,14.17061 32.60142,40.1938 36.16176,52.46867c4.60124,15.86349 -12.54067,16.63925 -19.53944,21.29186z" data-paper-data="{&quot;index&quot;:null}" fill="none" stroke="#000000"/></g></g><g stroke-linecap="butt"><path d="M234.51151,272.13796c25.45611,0 46.09235,8.6766 46.09235,19.37974c0,10.70315 -66.20833,105.55243 -91.66444,105.55243c-25.45611,0 -51.06385,-20.27677 -51.06385,-30.97991c0,-10.70315 71.17983,-93.95226 96.63594,-93.95226z" fill="#840000" stroke="#000000"/><path d="M171.93529,378.5309c9.03002,0 28.52673,-4.47714 44.85607,-19.55847c31.66692,-29.24666 62.85979,-77.78542 62.85979,-66.61422c0,16.93172 -64.60257,100.25861 -91.14419,100.25861c-26.54162,0 -52.20076,-13.72587 -52.20076,-30.65759c0,-16.93172 9.08747,16.57167 35.62909,16.57167z" fill="#430000" stroke="none"/><path d="M234.51151,271.30938c25.45611,0 46.09235,8.6766 46.09235,19.37974c0,10.70315 -66.20833,105.55243 -91.66444,105.55243c-25.45611,0 -51.06385,-20.27677 -51.06385,-30.97991c0,-10.70315 71.17983,-93.95226 96.63594,-93.95226z" fill="none" stroke="#000000"/></g><g data-paper-data="{&quot;index&quot;:null}" stroke-linecap="butt"><path d="M578.15314,372.71889c0,10.70315 -25.60774,30.97991 -51.06385,30.97991c-25.45611,0 -91.66444,-94.84928 -91.66444,-105.55243c0,-10.70315 20.63624,-19.37974 46.09235,-19.37974c25.45611,0 96.63594,83.24911 96.63594,93.95226z" fill="#840000" stroke="#000000"/><path d="M579.72251,368.5879c0,16.93172 -25.65914,30.65759 -52.20076,30.65759c-26.54162,0 -91.14419,-83.32689 -91.14419,-100.25861c0,-11.1712 31.19287,37.36756 62.85979,66.61422c16.32934,15.08133 35.82605,19.55847 44.85607,19.55847c26.54162,0 35.62909,-33.50339 35.62909,-16.57167z" fill="#430000" stroke="none"/><path d="M578.15314,371.8903c0,10.70315 -25.60774,30.97991 -51.06385,30.97991c-25.45611,0 -91.66444,-94.84928 -91.66444,-105.55243c0,-10.70315 20.63624,-19.37974 46.09235,-19.37974c25.45611,0 96.63594,83.24911 96.63594,93.95226z" fill="none" stroke="#000000"/></g></g></g></svg>