<svg version="1.1" xmlns="http://www.w3.org/2000/svg" xmlns:xlink="http://www.w3.org/1999/xlink" width="163.86175" height="279.92777" viewBox="0,0,163.86175,279.92777"><g transform="translate(-157.42994,-76.0618)"><g data-paper-data="{&quot;isPaintingLayer&quot;:true}" fill-rule="nonzero" stroke="#000000" stroke-width="4.5" stroke-linejoin="miter" stroke-miterlimit="10" stroke-dasharray="" stroke-dashoffset="0" style="mix-blend-mode: normal"><g stroke-linecap="butt"><path d="M245.37654,264.47988c0,0 -10.75514,-20.18977 -13.55596,-30.38294c-2.52351,-9.18395 -2.50391,-28.06465 -2.50391,-28.06465l-0.30276,-9.79218c0,0 11.18439,22.98425 17.92975,33.03929c6.71904,10.01582 22.46375,27.17376 22.46375,27.17376z" data-paper-data="{&quot;index&quot;:null}" fill="#cccccc"/><path d="M287.44713,250.22743c1.42717,4.98209 -9.63318,12.52064 -24.70399,16.83784c-15.07081,4.3172 -28.44507,3.77819 -29.87224,-1.20389c-1.42717,-4.98208 9.63318,-12.52065 24.70399,-16.83784c15.07081,-4.31719 28.44507,-3.7782 29.87224,1.20389z" fill="#ffdfb3"/></g><path d="M239.44132,344.74867l2.16072,-83.72813h8.21073l22.47147,85.39161z" fill="#0080b5" stroke-linecap="butt"/><path d="M204.56063,346.25111l22.47147,-85.39161h8.21074l2.16072,83.72813z" data-paper-data="{&quot;index&quot;:null}" fill="#0080b5" stroke-linecap="butt"/><path d="M218.7972,263.36646c0,0 -7.0781,-26.13258 -5.96365,-40.0204c0.84013,-10.46926 12.06305,-35.98751 12.06305,-35.98751l6.56858,-1.87674c0,0 -3.47811,28.00199 0.60186,40.46855c4.34826,13.28635 24.73412,36.94692 24.73412,36.94692z" fill="#cccccc" stroke-linecap="butt"/><path d="M187.83102,149.58919c0,-22.41419 18.17028,-40.58447 40.58447,-40.58447c22.41419,0 40.58447,18.17029 40.58447,40.58447c0,22.41419 -18.17029,40.58447 -40.58447,40.58447c-22.41419,0 -40.58447,-18.17029 -40.58447,-40.58447z" fill="#ffdfb3" stroke-linecap="butt"/><path d="M194.3996,170.93709c0,0 -13.35874,-11.48779 -17.52519,-18.13808c-3.95507,-6.31291 -6.8724,-20.80425 -6.8724,-20.80425l12.1988,-0.93837c0,0 4.21063,-12.4708 10.04522,-19.06642c7.91148,-8.94342 33.11977,-29.72878 33.11977,-29.72878l-3.75347,14.07554c0,0 25.94056,-1.47541 37.35551,-0.41545c10.38226,0.96407 28.33033,6.51485 28.33033,6.51485l-15.01391,7.97614c0,0 9.63121,8.48201 13.15411,15.22927c5.10441,9.77624 14.52778,37.7886 14.52778,37.7886c0,0 -27.36736,-21.26453 -39.73594,-27.10525c-9.20227,-4.34552 -27.82665,-4.7993 -27.82665,-4.7993l11.26043,11.26043c0,0 -28.16323,3.01691 -36.30851,8.03571c-7.22795,4.45359 -12.95588,20.11537 -12.95588,20.11537z" fill="#000000" stroke-linecap="round"/><path d="M248.35583,151.70052l0.93837,21.1133" fill="none" stroke-linecap="round"/><path d="M253.51687,153.57726l1.40755,15.48309" fill="none" stroke-linecap="round"/><path d="M239.44133,178.44405l37.06559,1.87674" fill="none" stroke-linecap="round"/><path d="M198.62226,267.58913c0,0 1.67728,-26.85408 5.10166,-39.29875c2.9004,-10.54048 18.35757,-31.54813 18.35757,-31.54813l-1.40756,10.32206c0,0 -5.37531,14.75155 -4.92756,23.00284c0.60116,11.07853 8.21185,37.52198 8.21185,37.52198z" fill="#cccccc" stroke-linecap="butt"/><path d="M232.87274,267.58913c0,5.18247 -12.7087,9.38369 -28.38567,9.38369c-15.67697,0 -28.38567,-4.20122 -28.38567,-9.38369c0,-5.18247 12.70869,-9.3837 28.38567,-9.3837c15.67697,0 28.38567,4.20123 28.38567,9.3837z" fill="#ffdfb3" stroke-linecap="butt"/><path d="M240.84888,342.64017c0,5.95984 -18.17029,10.79125 -40.58447,10.79125c-22.41418,0 -40.58447,-4.83141 -40.58447,-10.79125c0,-5.95984 18.17029,-10.79125 40.58447,-10.79125c22.41418,0 40.58447,4.83141 40.58447,10.79125z" fill="#383838" stroke-linecap="butt"/><path d="M319.04168,342.94832c0,5.95984 -18.17029,10.79125 -40.58447,10.79125c-22.41419,0 -40.58447,-4.83141 -40.58447,-10.79125c0,-5.95984 18.17028,-10.79125 40.58447,-10.79125c22.41418,0 40.58447,4.83141 40.58447,10.79125z" fill="#383838" stroke-linecap="butt"/></g></g></svg>