<svg version="1.1" xmlns="http://www.w3.org/2000/svg" xmlns:xlink="http://www.w3.org/1999/xlink" width="161.52424" height="328.38579" viewBox="0,0,161.52424,328.38579"><g transform="translate(-159.87749,-15.14624)"><g data-paper-data="{&quot;isPaintingLayer&quot;:true}" fill-rule="nonzero" stroke-linejoin="miter" stroke-miterlimit="10" stroke-dasharray="" stroke-dashoffset="0" style="mix-blend-mode: normal"><g stroke-linecap="butt"><path d="M256.37103,264.03934l-2.64817,-58.40539l9.26254,-0.41997l2.64818,58.40539z" data-paper-data="{&quot;index&quot;:null}" fill="#1b1b1b" stroke="#000000" stroke-width="2.5"/><path d="M252.48064,321.01238l3.91783,-58.33398l9.2512,0.62134l-3.91783,58.33398z" data-paper-data="{&quot;index&quot;:null}" fill="#1b1b1b" stroke="#000000" stroke-width="2.5"/><path d="M273.87427,285.56605c-0.6462,9.36588 -6.86446,16.56555 -13.88887,16.0809c-7.02441,-0.48465 -12.19497,-8.4701 -11.54878,-17.83597c0.18761,-2.71925 0.44377,-22.54635 3.49854,-28.25378c3.171,-5.92461 9.17972,2.17194 11.35846,-5.9909c2.9515,-11.05807 -0.40581,-28.00969 2.46213,-27.81182c7.02441,0.48465 8.76472,54.44567 8.11853,63.81155z" data-paper-data="{&quot;index&quot;:null}" fill="#444444" stroke="#000000" stroke-width="0"/><path d="M273.34863,289.83786c-0.43569,6.31487 -6.25324,11.05708 -12.99383,10.59202c-2.59341,-0.17893 -9.63274,-2.11568 -11.12264,-8.97176c-2.38255,-10.96368 1.62347,-29.21604 1.89153,-33.10129c0.13734,-1.9906 10.41659,39.76132 16.43012,35.94005c3.60088,-2.28816 1.29153,-18.09887 2.66487,-24.02239c3.60896,-15.56622 -6.53333,-48.09822 -3.18983,-47.86754c6.74061,0.46507 6.75549,61.11604 6.31979,67.43091z" data-paper-data="{&quot;index&quot;:null}" fill="#282828" stroke="none" stroke-width="0"/><path d="M273.89199,285.30912c-0.6462,9.36588 -6.86446,16.56554 -13.88887,16.08089c-7.02441,-0.48465 -12.19497,-8.47009 -11.54878,-17.83596c0.18761,-2.71925 0.44377,-22.54638 3.49854,-28.25379c3.171,-5.92461 9.17972,2.17193 11.35845,-5.9909c2.9515,-11.05807 -0.4058,-28.00967 2.46214,-27.8118c7.02441,0.48465 8.76472,54.44568 8.11852,63.81156z" data-paper-data="{&quot;index&quot;:null}" fill="none" stroke="#000000" stroke-width="3"/></g><g stroke-linecap="butt"><path d="M222.83335,261.46332l5.55476,-58.20092l9.2301,0.88093l-5.55476,58.20092z" data-paper-data="{&quot;index&quot;:null}" fill="#1b1b1b" stroke="#000000" stroke-width="2.5"/><path d="M223.83984,319.60002l-1.00665,-58.45673l9.27067,-0.15965l1.00665,58.45673z" data-paper-data="{&quot;index&quot;:null}" fill="#1b1b1b" stroke="#000000" stroke-width="2.5"/><path d="M213.50946,282.97218c-0.17877,-9.38645 4.24783,-63.19375 11.28766,-63.32782c2.87422,-0.05474 -1.32347,16.70856 1.07343,27.89995c1.76935,8.26126 8.17399,0.47413 11.04588,6.54935c2.76661,5.85253 2.03463,25.66778 2.08653,28.393c0.17877,9.38645 -5.38322,17.10436 -12.42306,17.23844c-7.03983,0.13408 -12.89167,-7.36645 -13.07044,-16.7529z" fill="#444444" stroke="#000000" stroke-width="0"/><path d="M213.8216,287.26487c-0.12053,-6.32873 2.91608,-66.90364 9.67149,-67.0323c3.35082,-0.06382 -8.39967,31.92247 -5.57073,47.64916c1.07651,5.98459 -2.01769,21.66061 1.46472,24.12532c5.81568,4.11613 18.16232,-37.0718 18.20031,-35.07683c0.07416,3.89378 3.16583,22.32306 0.24002,33.15442c-1.82963,6.77332 -8.95671,8.35696 -11.55582,8.40646c-6.7554,0.12866 -12.32944,-4.8975 -12.44998,-11.22624z" fill="#282828" stroke="none" stroke-width="0"/><path d="M213.50456,282.71469c-0.17877,-9.38645 4.24783,-63.19376 11.28766,-63.32783c2.87423,-0.05474 -1.32346,16.70855 1.07344,27.89994c1.76933,8.26124 8.17398,0.47413 11.04587,6.54935c2.76661,5.85252 2.03463,25.66778 2.08653,28.39301c0.17877,9.38645 -5.38322,17.10435 -12.42306,17.23843c-7.03983,0.13408 -12.89167,-7.36645 -13.07044,-16.75289z" fill="none" stroke="#000000" stroke-width="3"/></g><g data-paper-data="{&quot;index&quot;:null}" stroke-linecap="butt"><g><path d="M296.86279,323.63141c0,3.46303 2.88695,8.34782 -1.24827,10.74253c-4.79665,2.77775 -17.17574,2.80122 -24.94421,2.80122c-7.25019,0 -16.51263,-0.48803 -21.25521,-2.94933c-4.71986,-2.44953 -4.93725,-6.86339 -4.93725,-10.59442c0,-7.48001 11.72677,-13.54375 26.19246,-13.54375c14.46568,0 26.19245,6.06374 26.19245,13.54375z" fill="#444444" stroke="#000000" stroke-width="0"/><path d="M297.39013,330.8036c0,4.00204 -11.88797,7.24633 -26.5525,7.24633c-14.66453,0 -26.55249,-3.24429 -26.55249,-7.24633c0,-4.00204 -2.15336,-17.9433 12.51118,-17.9433c2.49808,0 -3.31978,3.4237 -6.72565,7.66328c-3.12289,3.88732 -3.90257,8.57051 -1.08241,9.5949c6.29226,2.2856 22.27373,3.91037 33.10457,3.15514c10.09931,-0.70422 15.29731,-3.77053 15.29731,-2.47003z" fill="#282828" stroke="none" stroke-width="0"/><path d="M296.31005,323.9886c0,3.46303 2.88697,8.34782 -1.24824,10.74253c-4.79665,2.77775 -17.17574,2.80121 -24.94421,2.80121c-7.25019,0 -16.51261,-0.48802 -21.25519,-2.94933c-4.71986,-2.44953 -4.93725,-6.86338 -4.93725,-10.5944c0,-7.48 11.72676,-13.54375 26.19245,-13.54375c14.4657,0 26.19246,6.06374 26.19246,13.54375z" fill="none" stroke="#000000" stroke-width="3.5"/></g><g><path d="M308.62485,326.72209c0,3.46303 1.24243,8.34782 -0.53721,10.74253c-2.0643,2.77775 -7.39178,2.80122 -10.73503,2.80122c-3.12021,0 -7.1064,-0.48804 -9.14742,-2.94934c-2.03125,-2.44953 -2.12481,-6.86338 -2.12481,-10.59441c0,-7.48001 5.04675,-13.54375 11.27223,-13.54375c6.22548,0 11.27223,6.06374 11.27223,13.54375z" fill="#444444" stroke="#000000" stroke-width="0"/><path d="M308.85181,333.89429c0,4.00204 -5.11612,7.24633 -11.42717,7.24633c-6.31106,0 -11.42718,-3.24429 -11.42718,-7.24633c0,-4.00204 -0.92673,-17.94331 5.38433,-17.94331c1.07508,0 -1.42871,3.42372 -2.89446,7.6633c-1.34398,3.88732 -1.67951,8.5705 -0.46582,9.5949c2.70795,2.2856 9.58576,3.91036 14.24694,3.15513c4.34636,-0.70422 6.58337,-3.77053 6.58337,-2.47003z" fill="#282828" stroke="none" stroke-width="0"/><path d="M308.38698,327.07928c0,3.46303 1.24244,8.34783 -0.5372,10.74253c-2.0643,2.77775 -7.39179,2.8012 -10.73504,2.8012c-3.12021,0 -7.10639,-0.48802 -9.14741,-2.94933c-2.03125,-2.44953 -2.12481,-6.86338 -2.12481,-10.5944c0,-7.48 5.04675,-13.54374 11.27223,-13.54374c6.22548,0 11.27223,6.06374 11.27223,13.54374z" fill="none" stroke="#000000" stroke-width="3.5"/></g><g><path d="M275.78637,327.88109c0,3.46303 1.24243,8.34783 -0.53721,10.74253c-2.0643,2.77775 -7.39178,2.80122 -10.73503,2.80122c-3.12021,0 -7.10641,-0.48804 -9.14743,-2.94934c-2.03125,-2.44953 -2.1248,-6.86338 -2.1248,-10.59441c0,-7.48001 5.04675,-13.54374 11.27223,-13.54374c6.22547,0 11.27223,6.06374 11.27223,13.54374z" fill="#444444" stroke="#000000" stroke-width="0"/><path d="M276.01331,335.05329c0,4.00204 -5.11612,7.24633 -11.42718,7.24633c-6.31106,0 -11.42718,-3.24429 -11.42718,-7.24633c0,-4.00204 -0.92672,-17.9433 5.38433,-17.9433c1.07508,0 -1.42871,3.4237 -2.89446,7.66328c-1.34398,3.88732 -1.67952,8.57052 -0.46583,9.59491c2.70795,2.2856 9.58577,3.91036 14.24695,3.15513c4.34635,-0.70422 6.58338,-3.77053 6.58338,-2.47003z" fill="#282828" stroke="none" stroke-width="0"/><path d="M275.54849,328.23829c0,3.46303 1.24244,8.34782 -0.53719,10.74253c-2.0643,2.77775 -7.39179,2.80121 -10.73504,2.80121c-3.12021,0 -7.10639,-0.48802 -9.14742,-2.94933c-2.03125,-2.44953 -2.12481,-6.86338 -2.12481,-10.5944c0,-7.48 5.04675,-13.54375 11.27223,-13.54375c6.22548,0 11.27224,6.06374 11.27224,13.54375z" fill="none" stroke="#000000" stroke-width="3.5"/></g><g><path d="M294.71679,326.14259c0,3.46303 1.24243,8.34782 -0.53721,10.74253c-2.0643,2.77775 -7.39178,2.80121 -10.73504,2.80121c-3.12021,0 -7.1064,-0.48803 -9.14742,-2.94933c-2.03125,-2.44953 -2.12481,-6.86338 -2.12481,-10.5944c0,-7.48001 5.04675,-13.54375 11.27223,-13.54375c6.22547,0 11.27223,6.06374 11.27223,13.54375z" fill="#444444" stroke="#000000" stroke-width="0"/><path d="M294.94374,333.31478c0,4.00204 -5.11612,7.24633 -11.42717,7.24633c-6.31106,0 -11.42717,-3.24429 -11.42717,-7.24633c0,-4.00204 -0.92673,-17.94331 5.38432,-17.94331c1.07508,0 -1.42871,3.42371 -2.89446,7.66329c-1.34398,3.88732 -1.67953,8.57051 -0.46583,9.5949c2.70795,2.2856 9.58577,3.91036 14.24695,3.15513c4.34635,-0.70422 6.58338,-3.77052 6.58338,-2.47003z" fill="#282828" stroke="none" stroke-width="0"/><path d="M294.47891,326.49977c0,3.46303 1.24244,8.34783 -0.53719,10.74254c-2.0643,2.77775 -7.39178,2.8012 -10.73503,2.8012c-3.12021,0 -7.1064,-0.48801 -9.14742,-2.94932c-2.03125,-2.44953 -2.1248,-6.86339 -2.1248,-10.59442c0,-7.48 5.04675,-13.54374 11.27223,-13.54374c6.22548,0 11.27223,6.06373 11.27223,13.54374z" fill="none" stroke="#000000" stroke-width="3.5"/></g></g><g stroke-linecap="butt"><g><path d="M191.60907,321.63141c0,-7.48001 11.72678,-13.54375 26.19245,-13.54375c14.4657,0 26.19246,6.06374 26.19246,13.54375c0,3.73103 -0.21738,8.14488 -4.93725,10.59441c-4.74258,2.4613 -14.00502,2.94933 -21.25521,2.94933c-7.76847,0 -20.14755,-0.02346 -24.94421,-2.80122c-4.13521,-2.39471 -1.24827,-7.27949 -1.24827,-10.74253z" fill="#444444" stroke="#000000" stroke-width="0"/><path d="M191.0817,328.80359c0,-1.30049 5.19801,1.76582 15.29731,2.47003c10.83084,0.75523 26.81231,-0.86954 33.10457,-3.15514c2.82016,-1.0244 2.04049,-5.70758 -1.08241,-9.5949c-3.40587,-4.23958 -9.22373,-7.66329 -6.72565,-7.66329c14.66453,0 12.51118,13.94126 12.51118,17.9433c0,4.00204 -11.88795,7.24633 -26.55249,7.24633c-14.66453,0 -26.5525,-3.24429 -26.5525,-7.24633z" fill="#282828" stroke="none" stroke-width="0"/><path d="M192.16177,321.9886c0,-7.48001 11.72676,-13.54375 26.19246,-13.54375c14.4657,0 26.19245,6.06375 26.19245,13.54375c0,3.73103 -0.21739,8.14488 -4.93726,10.59441c-4.74258,2.46131 -14.005,2.94933 -21.25518,2.94933c-7.76847,0 -20.14755,-0.02346 -24.94421,-2.80121c-4.13521,-2.39471 -1.24825,-7.27949 -1.24825,-10.74253z" fill="none" stroke="#000000" stroke-width="3.5"/></g><g><path d="M179.847,324.72208c0,-7.48001 5.04676,-13.54374 11.27223,-13.54374c6.22548,0 11.27223,6.06373 11.27223,13.54374c0,3.73103 -0.09355,8.14488 -2.12481,10.59441c-2.04102,2.4613 -6.02722,2.94934 -9.14742,2.94934c-3.34325,0 -8.67074,-0.02346 -10.73504,-2.80122c-1.77964,-2.39471 -0.53721,-7.2795 -0.53721,-10.74253z" fill="#444444" stroke="#000000" stroke-width="0"/><path d="M179.62003,331.89427c0,-1.30049 2.23702,1.76582 6.58337,2.47003c4.66118,0.75523 11.53899,-0.86953 14.24694,-3.15513c1.21369,-1.0244 0.87816,-5.70758 -0.46582,-9.5949c-1.46575,-4.23958 -3.96955,-7.66329 -2.89447,-7.66329c6.31106,0 5.38433,13.94126 5.38433,17.94331c0,4.00204 -5.11612,7.24633 -11.42718,7.24633c-6.31106,0 -11.42718,-3.24429 -11.42718,-7.24633z" fill="#282828" stroke="none" stroke-width="0"/><path d="M180.08485,325.07928c0,-7.48001 5.04675,-13.54374 11.27223,-13.54374c6.22548,0 11.27223,6.06374 11.27223,13.54374c0,3.73103 -0.09355,8.14488 -2.12481,10.59441c-2.04102,2.46131 -6.0272,2.94933 -9.14741,2.94933c-3.34325,0 -8.67074,-0.02345 -10.73504,-2.8012c-1.77964,-2.39471 -0.5372,-7.2795 -0.5372,-10.74253z" fill="none" stroke="#000000" stroke-width="3.5"/></g><g><path d="M212.68548,325.88109c0,-7.48001 5.04676,-13.54374 11.27223,-13.54374c6.22548,0 11.27223,6.06373 11.27223,13.54374c0,3.73103 -0.09355,8.14488 -2.1248,10.59441c-2.04102,2.4613 -6.02722,2.94934 -9.14743,2.94934c-3.34325,0 -8.67073,-0.02346 -10.73503,-2.80122c-1.77964,-2.39471 -0.53721,-7.2795 -0.53721,-10.74253z" fill="#444444" stroke="#000000" stroke-width="0"/><path d="M212.45852,333.05328c0,-1.30049 2.23703,1.76582 6.58338,2.47003c4.66118,0.75523 11.53899,-0.86953 14.24694,-3.15513c1.21369,-1.0244 0.87815,-5.70758 -0.46583,-9.59491c-1.46575,-4.23958 -3.96954,-7.66329 -2.89446,-7.66329c6.31106,0 5.38433,13.94126 5.38433,17.94331c0,4.00204 -5.11612,7.24633 -11.42718,7.24633c-6.31106,0 -11.42718,-3.24429 -11.42718,-7.24633z" fill="#282828" stroke="none" stroke-width="0"/><path d="M212.92334,326.23828c0,-7.48001 5.04676,-13.54374 11.27224,-13.54374c6.22548,0 11.27223,6.06374 11.27223,13.54374c0,3.73103 -0.09355,8.14488 -2.12481,10.59441c-2.04102,2.46131 -6.02721,2.94933 -9.14742,2.94933c-3.34325,0 -8.67074,-0.02345 -10.73504,-2.8012c-1.77964,-2.39471 -0.5372,-7.2795 -0.5372,-10.74253z" fill="none" stroke="#000000" stroke-width="3.5"/></g><g><path d="M193.75506,324.14259c0,-7.48001 5.04676,-13.54375 11.27223,-13.54375c6.22548,0 11.27223,6.06374 11.27223,13.54375c0,3.73103 -0.09355,8.14488 -2.12481,10.59441c-2.04102,2.4613 -6.02722,2.94934 -9.14742,2.94934c-3.34325,0 -8.67073,-0.02346 -10.73503,-2.80122c-1.77964,-2.39471 -0.53721,-7.27949 -0.53721,-10.74253z" fill="#444444" stroke="#000000" stroke-width="0"/><path d="M193.5281,331.31477c0,-1.30049 2.23702,1.76581 6.58337,2.47003c4.66118,0.75523 11.539,-0.86953 14.24695,-3.15513c1.21369,-1.0244 0.87814,-5.70758 -0.46583,-9.5949c-1.46575,-4.23958 -3.96954,-7.66329 -2.89446,-7.66329c6.31106,0 5.38433,13.94126 5.38433,17.94331c0,4.00204 -5.11611,7.24633 -11.42717,7.24633c-6.31106,0 -11.42718,-3.24429 -11.42718,-7.24633z" fill="#282828" stroke="none" stroke-width="0"/><path d="M193.99292,324.49977c0,-7.48001 5.04675,-13.54374 11.27223,-13.54374c6.22548,0 11.27223,6.06374 11.27223,13.54374c0,3.73103 -0.09355,8.14488 -2.1248,10.59441c-2.04102,2.46131 -6.02722,2.94932 -9.14742,2.94932c-3.34325,0 -8.67073,-0.02345 -10.73503,-2.8012c-1.77964,-2.39471 -0.5372,-7.2795 -0.5372,-10.74253z" fill="none" stroke="#000000" stroke-width="3.5"/></g></g><path d="M220.24029,210.79203v-10h51.66667v10z" fill="#1b1b1b" stroke="#000000" stroke-width="2.5" stroke-linecap="butt"/><g><path d="M299.28744,205.04303l-18.77985,-44.57798l6.9861,-2.94311l18.77985,44.57798z" fill="#1b1b1b" stroke="#000000" stroke-width="2.5" stroke-linecap="butt"/><g data-paper-data="{&quot;index&quot;:null}"><path d="M279.73024,117.36285c6.74377,0.4385 22.46242,49.92719 22.05895,56.1322c-0.04475,0.68816 -1.28074,-0.8739 -2.66637,-1.19402c-1.86173,-0.4301 -4.19882,0.05767 -6.23073,-1.33259c-3.52512,-2.41193 -6.52164,-6.87795 -7.98869,-5.07599c-2.73299,3.3569 5.43793,24.89434 2.19025,24.68317c-6.74378,-0.4385 -20.70811,-56.56659 -20.30464,-62.7716c0.20024,-3.07958 -1.84206,-6.73256 0.47087,-8.62023c2.34736,-1.91578 9.07354,-2.04181 12.47035,-1.82094z" fill="#444444" stroke="#000000" stroke-width="0" stroke-linecap="butt"/><path d="M283.57827,163.9985c3.73014,0.24254 8.49085,1.24919 12.49183,1.93721c3.5409,0.60891 6.59023,0.58293 6.29057,5.19149c-0.15308,2.35424 -3.93005,2.74928 -8.07756,0.56639c-3.87718,-2.04062 -8.10292,-6.65503 -9.30621,-5.10044c-2.8764,3.71617 6.10566,22.60679 2.33718,22.36175c-7.03135,-0.4572 -20.94262,-50.83125 -20.30436,-60.64718c0.42111,-6.47635 6.85494,22.20066 14.14158,39.70152c3.75744,9.02448 -0.27419,-2.19675 2.11803,-2.0412z" fill="#282828" stroke="none" stroke-width="0" stroke-linecap="butt"/><path d="M279.76149,116.88248c6.74377,0.4385 22.46242,49.92719 22.05895,56.1322c-0.17427,2.68019 -4.14622,-3.07128 -6.34592,0.15648c-1.17515,1.72438 -9.64621,-10.43811 -10.63594,-7.31335c-1.44672,4.56753 4.56102,24.38536 2.28631,24.23745c-6.74378,-0.4385 -20.70811,-56.56659 -20.30464,-62.7716c0.21408,-3.29232 -2.39737,-7.6332 0.18851,-9.52867c2.28771,-1.67691 9.58711,-1.11834 12.7527,-0.91251z" fill="none" stroke="#000000" stroke-width="3" stroke-linecap="butt"/><path d="M274.63958,156.17533l19.57058,-12.37324" fill="none" stroke="#000000" stroke-width="3" stroke-linecap="round"/></g></g><g><path d="M214.7501,118.60729c3.40198,-0.11658 10.12113,0.2157 12.40863,2.20258c2.25395,1.95773 0.10056,5.54635 0.20625,8.63062c0.21295,6.21446 -15.46638,61.88783 -22.22044,62.11927c-6.75406,0.23144 -13.95177,-11.30883 -14.16473,-17.52329c-0.21295,-6.21446 17.01623,-55.19774 23.77028,-55.42919z" fill="#444444" stroke="#000000" stroke-width="0" stroke-linecap="butt"/><path d="M200.26411,180.95012c2.39586,-0.0821 7.47967,-2.85888 11.51214,-11.76386c7.82,-17.26913 15.1304,-45.73531 15.35267,-39.24908c0.33688,9.83089 -15.11294,59.75455 -22.155,59.99587c-7.04206,0.24131 -14.15581,-8.44994 -14.49269,-18.28083c-0.33688,-9.83089 2.74082,9.53922 9.78288,9.29791z" fill="#282828" stroke="none" stroke-width="0" stroke-linecap="butt"/><path d="M214.7336,118.1262c3.17042,-0.10864 10.48352,-0.44306 12.71871,1.30323c2.52652,1.97389 -0.21684,6.23263 -0.10384,9.52997c0.21295,6.21446 -15.46638,61.88783 -22.22044,62.11927c-6.75406,0.23144 -13.95177,-11.30883 -14.16473,-17.52329c-0.21295,-6.21446 17.01623,-55.19774 23.77028,-55.42919z" fill="none" stroke="#000000" stroke-width="3" stroke-linecap="butt"/><path d="M218.64788,157.55766l-19.18185,-12.9677" fill="none" stroke="#000000" stroke-width="3" stroke-linecap="round"/></g><g stroke-width="2.5" stroke-linecap="butt"><path d="M247.48239,151.58091c11.18309,0 20.24879,10.33874 20.24879,23.09223c0,3.98815 7.02928,3.95887 7.27686,7.0897c0.08748,1.10631 -6.29906,2.71734 -7.84101,4.5135c-1.88107,2.1912 0.92365,4.57377 -0.14856,5.59708c-1.65977,1.58407 -7.59004,-12.09626 -11.17956,-8.7869c-4.01349,3.70025 -5.74731,14.67885 -8.35652,14.67885c-11.18309,0 -20.24879,-10.33874 -20.24879,-23.09223c0,-12.75349 9.06569,-23.09223 20.24879,-23.09223z" fill="#212121" stroke="#000000"/><path d="M238.77972,202.76295v-62.21117h14.3034v62.21117z" fill="#1b1b1b" stroke="#000000"/><path d="M244.86335,121.68292c5.94105,0 15.1006,-5.66093 20.59483,7.01568c2.33174,5.37993 10.93387,36.82067 7.2537,51.75764c-1.64382,6.6719 -12.72749,0.48669 -15.88537,3.67714c-4.7526,4.80163 -10.36668,-22.95737 -16.00367,-26.27618c-4.79792,-2.8248 -10.05562,18.89402 -10.05562,20.06976c0,10.37165 30.86128,26.14654 18.135,26.14654c-12.72628,0 -27.48574,-3.96512 -27.48574,-14.33675c0,-6.73867 -2.34055,-44.35375 4.32029,-62.239c3.59104,-9.6424 14.6688,-5.81483 19.12657,-5.81483z" fill="#444444" stroke="#000000"/><path d="M249.22086,203.55397c-0.37494,0.06975 -24.8426,6.63538 -28.2278,-14.47879c-1.55175,-9.67858 0.30117,-43.40112 4.06643,-57.64816c3.9623,-14.99259 9.86957,-10.2935 9.0172,-10.81343c-1.82039,-1.11039 -10.60257,43.64526 -10.05435,65.7631c0.28107,11.33982 20.74665,15.0931 19.90576,14.25324c-5.01026,-5.00411 -17.26189,-17.98371 -17.87786,-18.50959c-2.56325,-2.18833 7.26261,-20.5396 6.61919,-22.47829c-0.93263,-2.81009 10.14023,-5.28606 10.94233,-5.17021c3.45148,0.49849 9.11907,22.49128 15.76756,27.33152c4.02341,2.92913 10.59043,-8.86966 11.00638,-11.40062c2.38447,-14.50902 -11.23958,-47.22284 -6.91022,-47.22284c7.23332,0 11.02913,48.48861 11.02913,53.88188c0,5.39326 -3.7958,7.69741 -11.02913,7.69741c-1.35817,0 -6.28159,-0.20217 -9.12127,-4.34135c-5.37136,-7.8294 -9.80298,-22.04467 -14.33003,-21.51686c-3.67343,0.42829 -8.71313,11.20727 -9.38889,19.00528c-0.39597,4.56942 2.96964,8.56792 2.96964,7.65714c0,-0.2305 23.20255,16.57929 15.61592,17.99059z" fill="#282828" stroke="none"/><path d="M245.33717,121.69718c5.94105,0 15.1006,-5.66093 20.59483,7.01568c6.27491,14.47786 8.50646,47.83446 8.50646,53.36428c0,1.07138 -8.13985,1.48881 -13.94816,1.4583c-2.8596,-0.01503 -3.76144,1.42809 -5.571,-0.27557c-7.18787,-6.76718 -6.94636,-24.29308 -14.1779,-25.20937c-1.36232,-0.17262 -6.47337,11.04193 -7.95131,15.60313c-0.30644,0.94574 -0.34545,2.43563 -0.55994,2.4338c-1.84212,-0.01572 -0.65059,1.36807 -1.25751,1.95855c-4.74747,4.61889 25.14977,26.04178 18.4034,26.04178c-12.72628,0 -27.48574,-3.96512 -27.48574,-14.33675c0,-6.73866 -2.34055,-44.35375 4.32029,-62.239c3.59104,-9.6424 14.6688,-5.81482 19.12657,-5.81482z" fill="none" stroke="#000000"/><path d="M245.89782,126.16694c9.83478,0 17.80745,16.30539 17.80745,36.4191c0,9.41978 8.39556,23.81785 4.82928,20.58387c-1.60476,-1.45523 -8.81794,3.1582 -12.82869,-1.56042c-6.10799,-7.18601 -9.63877,-24.19335 -12.7951,-24.19335c-7.66376,0 -11.46386,24.77374 -13.17391,22.03453c-0.48443,-0.77597 -1.64648,-12.42455 -1.64648,-16.86462c0,-20.11371 7.97266,-36.4191 17.80744,-36.4191z" fill="#b7b7b7" stroke="#000000"/><path d="M231.07744,144.31904c0,-2.31232 2.12072,-10.82222 7.00407,-15.19155c2.08462,-1.8652 5.94102,-2.27123 8.27587,-2.27123c7.80437,0 12.9822,14.16338 12.9822,17.46279c0,3.29941 -4.25874,-13.78641 -12.06311,-13.78641c-1.15793,0 -11.95069,6.70583 -14.02743,12.59304c-0.46801,1.32672 -5.67191,23.90575 -3.52407,25.41486c1.32281,0.92944 1.90713,-7.25266 5.38288,-11.44173c3.34526,-4.0318 9.57208,-4.09389 11.48563,-2.41099c4.16568,3.66357 8.5136,17.75559 12.12883,21.96745c4.90817,5.71817 8.46589,1.36252 8.38367,3.71249c-0.11233,3.21073 -5.37911,5.82155 -13.14389,-2.16895c-3.53318,-3.6359 -8.67677,-20.39873 -12.16342,-21.06023c-6.45323,-1.22434 -12.56435,21.37202 -12.90495,21.22457c-1.58799,-0.68749 -1.86672,-12.79197 -0.69755,-22.54273c0.66217,-5.52244 2.88127,-10.91415 2.88127,-11.50136z" fill="#989898" stroke="none"/><path d="M245.2085,126.16694c9.83478,0 17.80745,16.30539 17.80745,36.4191c0,9.41978 8.39556,23.81785 4.82928,20.58387c-1.60476,-1.45523 -8.81794,3.1582 -12.82869,-1.56042c-6.10799,-7.18601 -9.63877,-24.19335 -12.7951,-24.19335c-7.66376,0 -11.46386,24.77374 -13.17391,22.03453c-0.48443,-0.77597 -1.64648,-12.42455 -1.64648,-16.86462c0,-20.11371 7.97266,-36.4191 17.80744,-36.4191z" fill="none" stroke="#000000"/></g><g stroke-width="2.5" stroke-linecap="butt"><path d="M272.12012,128.661c0,1.42763 1.18882,16.71602 -4.99757,16.71602c-6.1864,0 -17.40534,-15.28839 -17.40534,-16.71602c0,-1.42763 10.87428,-15.68204 17.06068,-15.68204c6.1864,0 5.34223,14.25441 5.34223,15.68204z" data-paper-data="{&quot;index&quot;:null}" fill="#de3636" stroke="#000000"/><path d="M272.80944,128.31635c0,1.42763 1.18882,16.71602 -4.99757,16.71602c-6.1864,0 -17.40534,-15.28839 -17.40534,-16.71602c0,-1.42763 10.87428,-15.68204 17.06068,-15.68204c6.1864,0 5.34223,14.25441 5.34223,15.68204z" data-paper-data="{&quot;index&quot;:null}" fill="#de3636" stroke="#000000"/><path d="M272.63711,130.55664c0,3.33113 0.69492,14.3034 -4.82524,14.3034c-5.52017,0 -15.16505,-10.97226 -15.16505,-14.3034c0,-1.34768 12.57959,11.45699 14.7915,8.30306c3.25538,-4.64179 -3.08564,-25.36374 0.20122,-25.36374c5.52017,0 4.99757,13.72955 4.99757,17.06068z" data-paper-data="{&quot;index&quot;:null}" fill="#b72c2c" stroke="none"/><path d="M272.29245,128.48868c0,1.42763 1.18882,16.71602 -4.99757,16.71602c-6.1864,0 -17.40534,-15.28839 -17.40534,-16.71602c0,-1.42763 10.87428,-15.68204 17.06068,-15.68204c6.1864,0 5.34223,14.25441 5.34223,15.68204z" data-paper-data="{&quot;index&quot;:null}" fill="none" stroke="#000000"/><path d="M227.92293,113.66829c6.1864,0 17.06068,14.25441 17.06068,15.68204c0,1.42763 -11.21894,16.71602 -17.40534,16.71602c-6.1864,0 -4.99757,-15.28839 -4.99757,-16.71602c0,-1.42763 -0.84416,-15.68204 5.34223,-15.68204z" data-paper-data="{&quot;index&quot;:null}" fill="#de3636" stroke="#000000"/><path d="M227.7506,114.52994c3.28686,0 -3.05415,20.72195 0.20122,25.36374c2.21191,3.15394 14.7915,-9.65074 14.7915,-8.30306c0,3.33113 -9.64488,14.3034 -15.16505,14.3034c-5.52017,0 -4.82524,-10.97226 -4.82524,-14.3034c0,-3.33113 -0.52259,-17.06068 4.99757,-17.06068z" fill="#b72c2c" stroke="none"/><path d="M228.43992,113.84062c6.1864,0 17.06068,14.25441 17.06068,15.68204c0,1.42763 -11.21894,16.71602 -17.40534,16.71602c-6.1864,0 -4.99757,-15.28839 -4.99757,-16.71602c0,-1.42763 -0.84416,-15.68204 5.34223,-15.68204z" fill="none" stroke="#000000"/><path d="M245.67292,121.76781c3.80701,0 6.8932,3.14334 6.8932,7.02085c0,3.87751 -3.0862,7.02085 -6.8932,7.02085c-3.80701,0 -6.8932,-3.14334 -6.8932,-7.02085c0,-3.87751 3.08619,-7.02085 6.8932,-7.02085z" fill="#de3636" stroke="#000000"/><path d="M241.19234,124.18042c1.78326,0 -0.09511,7.29764 2.30665,8.96123c2.59746,1.79915 9.4118,-1.99758 9.4118,-1.20637c0,1.43309 -2.66494,3.64481 -6.07264,3.7786c-0.21332,0.00838 -0.0849,0.35732 -0.30357,0.35732c-3.71184,0 -7.06553,-2.61312 -7.06553,-4.13592c0,-1.52281 -1.98854,-7.75485 1.7233,-7.75485z" fill="#b72c2c" stroke="none"/><path d="M245.84526,121.94013c3.80701,0 6.8932,3.14335 6.8932,7.02086c0,3.87752 -3.08619,7.02086 -6.8932,7.02086c-3.80701,0 -6.8932,-3.14335 -6.8932,-7.02086c0,-3.87752 3.08619,-7.02086 6.8932,-7.02086z" fill="none" stroke="#000000"/></g><g stroke-width="2.5"><path d="M230.05881,116.31353l0.56708,-24.64561l31.66587,0.72861l-0.56708,24.64561z" fill="#1b1b1b" stroke="#000000" stroke-linecap="butt"/><path d="M227.18645,117.74191l0.16153,-7.02026l35.69878,0.82141l-0.16153,7.02026z" fill="#7c7c7c" stroke="none" stroke-linecap="butt"/><path d="M236.86374,109.59557c3.64347,0.08383 -10.83061,3.72439 -4.38024,5.55215c3.84586,1.08975 30.47457,0.25069 30.4533,1.17509c-0.05694,2.4748 -20.46348,2.36863 -26.27926,2.23481c-5.81578,-0.13382 -10.48423,-2.24853 -10.42729,-4.72332c0.05694,-2.4748 4.81773,-4.37254 10.6335,-4.23873z" fill="#585858" stroke="none" stroke-linecap="butt"/><path d="M225.17158,111.3491l0.13404,-5.82533l39.2836,0.90389l-0.13404,5.82533z" fill="#e1e1e1" stroke="#000000" stroke-linecap="butt"/><path d="M224.98559,109.47172c0.00452,-0.19655 0.06018,-2.75453 1.70136,-3.75818c1.32808,-0.81216 4.1993,-0.13063 4.95107,-0.09887c1.82675,0.07715 -2.07442,2.1039 -0.0826,3.2941c1.72781,1.03245 9.22603,1.24419 12.23763,1.37007c5.14321,0.21496 10.6823,-0.72636 14.58989,-0.63645c11.26033,0.25909 7.4179,-0.88228 7.37994,0.7676c-0.03796,1.64987 -9.19704,2.7773 -20.45737,2.51821c-11.26033,-0.25909 -20.35786,-1.80661 -20.3199,-3.45647z" fill="#bfbfbf" stroke="none" stroke-linecap="butt"/><g data-paper-data="{&quot;index&quot;:null}" stroke-linecap="butt"><path d="M303.46951,55.95377c-4.47194,1.23581 -10.72025,6.96727 -13.94588,5.99825c-3.7506,-1.12673 -4.14973,-9.30175 -4.39614,-12.74065c-0.24403,-3.40566 0.77179,-10.40407 4.15816,-13.50101c2.97387,-2.7197 8.00186,-1.67055 12.52404,-2.92025c9.67168,-2.67275 17.88367,0.34592 18.34204,6.7424c0.45835,6.39646 -7.01053,13.74851 -16.68221,16.42127z" fill="#444444" stroke="#000000"/><path d="M297.35925,58.36479c-0.33027,0.38386 -1.05726,0.38523 -1.39303,0.73204c-2.88594,2.98087 -6.1225,4.28412 -7.22267,3.26125c-1.22817,-1.14187 -2.92692,-22.32202 0.24201,-26.00517c1.66861,-1.93939 -2.28722,10.9538 5.18586,13.60751c6.7193,2.38605 24.9872,-5.56054 25.56867,-5.01992c0.84154,0.78241 -6.81336,6.03231 -13.98476,9.65688c-3.29473,1.66522 -7.39849,2.60796 -8.39607,3.76741z" fill="#282828" stroke="none"/><path d="M313.35978,49.07866c-4.45997,5.1837 -20.44945,10.92237 -21.56925,9.88125c-1.1198,-1.04112 -5.0943,-12.00368 -0.63432,-17.18737c4.45997,-5.1837 27.08823,-3.86088 28.20804,-2.81977c1.1198,1.04112 -1.54449,4.94219 -6.00447,10.12589z" fill="#b7b7b7" stroke="#000000"/><path d="M316.78574,40.7118c-0.8243,0.95805 4.15843,1.31481 1.7522,4.27562c-2.0383,2.50808 -11.24105,7.58078 -14.42509,9.24144c-4.63222,2.41596 -9.00041,4.18186 -11.68569,4.24266c-1.35659,0.03071 -2.06453,-0.83224 -2.6052,-1.33491c-1.16818,-1.0861 -1.09018,-3.1788 -1.43951,-4.67987c-1.0007,-4.30001 0.66757,-9.57382 5.06224,-11.03272c7.99423,-2.65385 21.23892,-3.25943 23.55899,-1.10236c0.28861,0.26834 -8.34051,0.03146 -15.55577,1.21487c-5.22189,0.85647 -9.45922,2.82486 -10.20874,4.5037c-1.43424,3.21252 1.68855,10.5021 2.8548,10.48369c3.11007,-0.04906 10.59713,-2.39998 15.43226,-6.33789c5.67859,-4.62486 8.44773,-10.85527 7.25951,-9.47423z" fill="#989898" stroke="none"/><path d="M312.92835,49.57366c-4.45997,5.1837 -20.44945,10.92237 -21.56925,9.88125c-1.1198,-1.04112 -5.0943,-12.00368 -0.63432,-17.18737c4.45997,-5.1837 27.08823,-3.86088 28.20804,-2.81977c1.1198,1.04112 -1.54449,4.94219 -6.00447,10.12589z" fill="none" stroke="#000000"/><path d="M303.19062,55.99782c-4.47194,1.23581 -7.2544,4.85464 -10.48005,3.88561c-3.7506,-1.12673 -4.01846,-5.62309 -4.26488,-9.06197c-0.24403,-3.40566 -2.82531,-11.97011 0.56108,-15.06705c2.97387,-2.7197 8.00186,-1.67055 12.52404,-2.92025c9.67168,-2.67275 17.88367,0.34592 18.34204,6.7424c0.45835,6.39646 -7.01053,13.74851 -16.68221,16.42127z" fill="none" stroke="#000000"/></g><g data-paper-data="{&quot;index&quot;:null}" stroke-linecap="butt"><path d="M288.51568,61.04393c-4.16255,2.74322 -8.11782,10.37995 -11.98471,10.59157c-4.49621,0.24606 -8.71733,-7.37868 -10.57617,-10.55856c-1.84088,-3.14914 -4.01658,-10.1529 -1.86861,-14.28291c1.8863,-3.62692 7.69948,-4.39497 11.9088,-7.16903c9.00254,-5.9329 15.36503,-2.86665 18.82253,3.04802c3.4575,5.91467 2.7007,12.43799 -6.30183,18.3709z" fill="#444444" stroke="#000000"/><path d="M283.16385,65.47835c-0.17148,0.48051 -0.94088,0.73694 -1.13539,1.1842c-1.67182,3.84414 -4.49451,6.21785 -6.13508,5.6324c-1.83144,-0.65356 -13.47177,-20.1748 -11.8265,-24.78529c0.23777,-0.66631 6.06872,-5.123 6.57985,-3.98546c0.42962,0.95613 -1.53199,2.82923 -1.49845,4.94822c0.07192,4.54525 2.20692,10.19255 6.73403,10.14203c8.22582,-0.0918 18.90089,-11.18127 19.76798,-10.87184c1.25491,0.44783 0.56831,5.25126 -5.34365,11.21077c-2.71611,2.73795 -6.62485,5.0736 -7.14279,6.52498z" fill="#282828" stroke="none"/><path d="M295.7972,51.04279c-2.31556,6.48882 -16.58547,17.55104 -18.2553,16.95515c-1.66984,-0.59589 -10.97324,-9.61355 -8.65769,-16.10238c2.31556,-6.48882 20.81922,-10.92803 22.48905,-10.33213c1.66984,0.59589 6.7395,2.99054 4.42394,9.47936z" fill="#b7b7b7" stroke="#000000"/><path d="M291.36533,42.49555c-0.42796,1.19926 5.61988,3.02593 4.44684,6.68266c-0.99367,3.09756 -4.81551,7.30682 -7.4165,10.00159c-5.69564,5.90098 -12.94772,9.93537 -15.34985,9.07817c-4.79408,-1.71077 -7.39608,-6.69675 -5.81175,-11.13647c0.44098,-1.23575 1.12187,-4.30577 3.9122,-6.36007c7.23455,-5.32625 17.90579,-9.32373 21.36549,-8.08912c0.43038,0.15359 -5.74342,1.73104 -12.83608,5.38726c-5.13317,2.6461 -8.70682,6.00283 -8.72067,7.86049c-0.02653,3.55467 6.66814,9.38255 7.89491,8.95579c3.27144,-1.13808 10.10952,-5.99862 13.40129,-11.43582c3.86599,-6.3857 -0.26895,-12.67319 -0.88586,-10.94444z" fill="#989898" stroke="none"/><path d="M295.57023,51.66436c-2.31556,6.48882 -16.58547,17.55104 -18.2553,16.95515c-1.66984,-0.59589 -10.97324,-9.61355 -8.65769,-16.10238c2.31556,-6.48882 22.33178,-10.85301 24.00163,-10.25711c1.66984,0.59589 5.22693,2.91552 2.91137,9.40434z" fill="none" stroke="#000000"/><path d="M288.24075,61.18364c-4.16255,2.74322 -8.11782,10.37995 -11.98471,10.59157c-4.49621,0.24606 -8.71733,-7.37868 -10.57617,-10.55856c-1.84088,-3.14914 -4.01658,-10.1529 -1.86861,-14.28291c1.8863,-3.62692 7.69948,-4.39497 11.9088,-7.16903c9.00254,-5.9329 15.09316,-0.87232 18.55065,5.04236c3.4575,5.91467 2.97258,10.44366 -6.02996,16.37656z" fill="none" stroke="#000000"/></g><g stroke-linecap="butt"><path d="M189.20285,20.67712c2.71586,-5.80939 11.46431,-5.69119 19.54022,0.26402c3.77607,2.78449 8.84668,3.6031 10.65106,7.20655c2.05467,4.10328 0.50018,11.00206 -0.94583,14.09515c-1.4601,3.12328 -4.75678,10.61473 -8.66228,10.32545c-3.35886,-0.24879 -7.14385,-7.83594 -10.87795,-10.58948c-8.07591,-5.95522 -12.42109,-15.49231 -9.70525,-21.3017z" fill="#444444" stroke="#000000"/><path d="M203.75178,46.4158c-0.51687,-1.43956 -4.01199,-3.78773 -6.49317,-6.52122c-5.4006,-5.94981 -10.67137,-13.59033 -9.60566,-14.01999c0.73636,-0.29688 14.95354,13.65791 22.08177,13.833c7.92787,0.19474 8.84524,-13.26042 9.70981,-10.85251c1.64194,4.57294 -7.51995,23.74437 -9.07527,24.37143c-1.39324,0.56171 -3.94956,-1.81294 -5.57842,-5.62884c-0.18952,-0.44397 -0.86794,-0.70527 -1.03905,-1.18186z" fill="#282828" stroke="none"/><path d="M192.13111,32.02105c-2.31088,-6.43598 -3.40363,-11.03193 -1.98553,-11.60365c1.41809,-0.57173 23.02258,6.28643 25.33347,12.72241c2.31088,6.43598 -5.32168,15.25179 -6.73978,15.82351c-1.41809,0.57173 -14.29728,-10.50628 -16.60816,-16.94227z" fill="#b7b7b7" stroke="#000000"/><path d="M191.92435,22.9823c-0.61567,-1.71467 -0.25814,5.09404 3.39062,11.44401c3.1068,5.40679 9.25773,10.28009 12.14452,11.4383c1.08252,0.43432 6.60599,-5.25611 6.41566,-8.76911c-0.09947,-1.83586 -3.35245,-5.18961 -7.92257,-7.85714c-6.31468,-3.68581 -14.4577,-6.55098 -14.09221,-6.69834c2.93812,-1.18454 15.09004,4.11821 21.60624,9.45581c3.58215,2.93424 3.25377,8.45586 0.78129,12.1135c-0.86311,1.27682 -1.53876,3.259 -3.01815,3.85542c-0.68469,0.27604 -1.65446,0.8287 -2.91032,0.3148c-2.4859,-1.01722 -5.9335,-4.22867 -9.39518,-8.14163c-2.37943,-2.68964 -9.15905,-10.71832 -10.16545,-13.78953c-1.18807,-3.6256 3.59264,-2.17657 3.16555,-3.36607z" fill="#989898" stroke="none"/><path d="M192.35694,32.63762c-2.31088,-6.43598 -3.40363,-11.03193 -1.98553,-11.60365c1.41809,-0.57173 23.02258,6.28643 25.33347,12.72241c2.31088,6.43598 -5.32168,15.25179 -6.73978,15.82351c-1.41809,0.57173 -14.29728,-10.50628 -16.60816,-16.94227z" fill="none" stroke="#000000"/><path d="M189.44752,20.818c2.71586,-5.80939 11.46431,-5.69119 19.54022,0.26402c3.77607,2.78449 8.84668,3.6031 10.65106,7.20655c2.05467,4.10328 -3.41908,11.17793 -4.86509,14.27102c-1.4601,3.12328 -3.31847,7.22638 -7.22396,6.93709c-3.35886,-0.24879 -4.6629,-4.62344 -8.397,-7.37698c-8.07591,-5.95522 -12.42109,-15.49231 -9.70525,-21.3017z" fill="none" stroke="#000000"/></g><g stroke-linecap="butt"><path d="M211.73787,32.67119c5.34427,-4.28677 12.38258,-4.8745 18.66756,3.88587c2.93866,4.09609 8.09258,6.89254 8.55686,10.9542c0.52869,4.62506 -4.00813,10.38732 -6.85358,12.66972c-2.87322,2.30467 -9.54225,7.91526 -13.65301,6.0773c-3.5354,-1.58069 -4.49759,-10.12691 -7.4036,-14.17749c-6.28497,-8.76037 -4.6585,-15.12284 0.68578,-19.4096z" fill="#444444" stroke="#000000"/><path d="M210.12735,49.48796c-3.38934,-7.6798 -2.31247,-12.41107 -0.9804,-12.38042c0.9204,0.02118 6.92293,14.19521 14.57175,17.22307c4.20956,1.66639 8.2232,-2.8437 9.91607,-7.06255c0.78921,-1.96681 -0.37268,-4.4176 0.37049,-5.15682c0.88418,-0.87946 4.73537,5.36795 4.7191,6.07522c-0.11261,4.89394 -17.96508,18.96043 -19.90912,18.9157c-1.74144,-0.04007 -3.52838,-3.26634 -3.71468,-7.45414c-0.02168,-0.48724 -0.64846,-1.00191 -0.63673,-1.51197c0.03545,-1.54061 -2.77933,-5.1198 -4.33648,-8.64809z" fill="#282828" stroke="none"/><path d="M207.82935,40.13686c0.15848,-6.88779 5.74927,-7.31075 7.52178,-7.26997c1.77251,0.04078 17.46433,10.80453 17.30585,17.69231c-0.15848,6.88778 -12.07181,11.98136 -13.84432,11.94057c-1.77251,-0.04078 -11.1418,-15.47514 -10.98332,-22.36292z" fill="#b7b7b7" stroke="#000000"/><path d="M215.02516,33.74018c0.04222,-1.83503 -6.06802,2.55759 -4.74176,9.9036c1.12927,6.25488 5.77653,13.23967 8.42451,15.47257c0.99297,0.83731 9.32923,-2.21056 10.57586,-5.53957c0.65148,-1.73971 -1.48517,-6.15257 -5.33234,-10.45962c-5.31574,-5.95117 -10.51691,-9.63249 -10.06007,-9.62198c3.67241,0.0845 12.20795,7.63432 17.05886,15.19582c1.87097,2.91642 1.40877,6.02689 1.37859,7.33862c-0.10844,4.71269 -4.32165,8.43817 -9.41048,8.32108c-2.54982,-0.05867 -7.87919,-6.42003 -11.08744,-13.96782c-1.46509,-3.44679 -3.52858,-8.74456 -3.34861,-11.99263c0.21246,-3.83439 6.51357,-3.37708 6.54286,-4.65007z" fill="#989898" stroke="none"/><path d="M207.819,40.7985c0.15848,-6.88779 4.30992,-7.7817 6.08243,-7.74091c1.77251,0.04078 18.90369,11.27547 18.74521,18.16326c-0.15848,6.88778 -12.07181,11.98136 -13.84432,11.94057c-1.77251,-0.04078 -11.1418,-15.47514 -10.98332,-22.36292z" fill="none" stroke="#000000"/><path d="M211.4852,34.85965c5.34427,-4.28677 12.84202,-6.83415 19.12698,1.92622c2.93866,4.09609 8.09258,6.89254 8.55686,10.9542c0.52869,4.62506 -4.00813,10.38732 -6.85358,12.66972c-2.87322,2.30467 -9.54225,7.91526 -13.65301,6.0773c-3.5354,-1.58069 -4.49759,-10.12691 -7.4036,-14.17749c-6.28497,-8.76037 -5.11793,-13.16319 0.22636,-17.44995z" fill="none" stroke="#000000"/></g><g><g><path d="M219.1977,98.83215c-8.96489,-13.57647 -5.21095,-37.45234 2.24938,-42.3786c4.61527,-3.04758 22.94755,-10.2001 34.27956,-5.29064c6.98558,3.02643 15.54972,4.79674 18.96857,9.97425c8.96489,13.57647 4.4612,36.37216 -2.99913,41.29841c-3.69124,2.43741 -15.63012,0.86457 -26.12385,0.22599c-10.71514,-0.65208 -21.84529,3.0297 -26.37453,-3.82941z" fill="#444444" stroke="#000000" stroke-linecap="butt"/><path d="M214.12537,84.85852c0.02092,-0.90899 -2.38061,-13.51967 1.82545,-21.78199c3.58665,-7.04558 13.23737,-9.72037 19.5964,-12.42792c15.11287,-6.43477 36.6374,7.92882 37.85606,7.95686c0.81552,0.01876 -13.14944,-7.07181 -26.67663,-7.71167c-6.60296,-0.31233 -13.30638,3.30327 -17.74016,5.41616c-3.45655,1.64719 -9.42902,4.95983 -10.55829,8.2025c-2.94322,8.45136 -1.14491,19.78512 -1.17304,21.00777c-0.08114,3.52628 3.27994,5.87405 0.94717,5.82038c-2.33276,-0.05368 -4.15808,-2.95581 -4.07694,-6.48208z" fill="#282828" stroke="none" stroke-linecap="butt"/><path d="M229.063,58.57627c1.89902,0.0437 11.22642,6.74312 21.32092,8.50776c9.0201,1.57683 18.78709,-1.96368 22.26343,1.12408c2.64541,2.3497 -0.44463,11.37193 0.36435,15.0648c1.15264,5.2616 5.52308,5.26248 5.47631,7.29521c-0.17101,7.43231 -25.31264,-0.78154 -32.03969,-0.93633c-6.72705,-0.15479 -12.04177,-6.30535 -11.87076,-13.73765c0.17101,-7.43231 -12.2416,-17.47263 -5.51455,-17.31785z" fill="#282828" stroke="none" stroke-linecap="butt"/><path d="M219.13968,98.57021c-8.96489,-13.57647 -5.21095,-37.45234 2.24938,-42.3786c4.61527,-3.04758 22.94755,-10.2001 34.27956,-5.29064c6.98558,3.02643 15.54972,4.79674 18.96857,9.97425c8.96489,13.57647 4.4612,36.37216 -2.99913,41.29841c-3.69124,2.43741 -15.63012,0.86457 -26.12385,0.22598c-10.71514,-0.65208 -21.84529,3.0297 -26.37453,-3.8294z" fill="none" stroke="#000000" stroke-linecap="butt"/><path d="M223.45466,77.48911c0.06696,-2.9103 -0.16586,-12.97894 3.38522,-15.83877c4.13695,-3.33169 12.32451,0.75699 15.34103,0.8264c5.60582,0.12899 1.7192,9.17871 1.57423,15.47946c-0.14498,6.30076 -4.80692,11.30397 -10.41274,11.17498c-5.60582,-0.12899 -10.03271,-5.34132 -9.88773,-11.64208z" fill="#000000" stroke="#000000" stroke-linecap="butt"/><path d="M271.24962,81.11057c-0.11126,4.83562 -4.74588,8.65111 -10.3517,8.52212c-5.60582,-0.12899 -10.06004,-4.1536 -9.94877,-8.98922c0.11126,-4.83562 -3.40387,-11.9305 2.20195,-11.80151c3.01651,0.06941 11.36261,-2.73191 15.36027,-0.00991c3.4315,2.33649 2.78965,10.04497 2.73826,12.27853z" data-paper-data="{&quot;index&quot;:null}" fill="#000000" stroke="#000000" stroke-linecap="butt"/><path d="M220.33308,98.92057c0.0075,-0.32616 -2.80875,-3.30091 -2.67696,-3.67432c0.47166,-1.3363 -3.90808,-5.44379 -1.26416,-6.47493c5.95695,-2.32325 22.19976,-0.83123 29.74288,-0.65767c8.16699,0.18792 25.45949,0.10584 30.66645,3.96333c2.33324,1.72853 -3.80612,7.56507 -3.83547,8.84089c-0.09487,4.12304 -15.31629,1.02352 -27.14289,0.75139c-11.8266,-0.27212 -25.58472,1.37434 -25.48986,-2.7487z" fill="#b7b7b7" stroke="#000000" stroke-linecap="butt"/><path d="M220.27414,98.81527c0.01113,-0.48367 -5.99936,-8.75324 -5.10006,-9.16699c1.66631,-0.76664 7.19949,6.84782 12.70476,8.25884c6.18726,1.58581 14.26524,2.00105 20.37703,2.14168c5.4353,0.12506 13.19553,1.80225 18.48448,0.15359c4.92291,-1.53454 7.50502,-6.40162 9.27912,-6.33815c1.39934,0.05006 -3.27585,5.50035 -3.29098,6.15796c-0.05406,2.34941 -10.06637,2.65568 -24.23711,2.38931c-0.22686,-0.00426 -1.42767,-0.42454 -1.65592,-0.4298c-14.48487,-0.33329 -26.61624,-0.77946 -26.56132,-3.16648z" fill="#989898" stroke="none" stroke-linecap="butt"/><path d="M220.26603,99.05154c0.0075,-0.32615 -2.80876,-3.30091 -2.67697,-3.67432c0.47166,-1.3363 -3.90808,-5.44379 -1.26417,-6.47493c5.95695,-2.32325 22.19977,-0.83123 29.74289,-0.65767c8.16699,0.18792 25.45948,0.10584 30.66645,3.96333c2.33324,1.72853 -3.80612,7.56507 -3.83547,8.84089c-0.09487,4.12304 -15.31629,1.02352 -27.14289,0.75139c-11.82659,-0.27212 -25.58471,1.37434 -25.48985,-2.74869z" fill="none" stroke="#000000" stroke-linecap="butt"/><path d="M246.8717,87.47687c6.72705,0.15479 12.14701,1.73156 12.10582,3.52183c-0.04119,1.79026 -5.52794,3.11608 -12.25499,2.9613c-6.72705,-0.15479 -12.14701,-1.73156 -12.10582,-3.52183c0.04119,-1.79026 5.52794,-3.11608 12.25499,-2.9613z" fill="#000000" stroke="#000000" stroke-linecap="butt"/><path d="M220.82293,89.03854l3.19305,-2.08871l3.14333,0.07233l-2.44338,3.67847l-0.26426,2.94235" fill="none" stroke="#000000" stroke-linecap="round"/><path d="M232.0527,87.921l-6.32735,1.62348" fill="none" stroke="#000000" stroke-linecap="round"/><path d="M228.48481,89.21484l-0.09041,3.92917" fill="none" stroke="#000000" stroke-linecap="round"/><path d="M230.60619,88.49652l5.25917,2.08664" fill="none" stroke="#000000" stroke-linecap="round"/><path d="M231.81103,89.88107l-0.34111,6.28215" fill="none" stroke="#000000" stroke-linecap="round"/><path d="M268.92599,82.87258l1.98926,7.51514l-10.81876,0.34075l0.05424,-2.3575" fill="none" stroke="#000000" stroke-linecap="round"/><path d="M269.00491,87.98501l-5.8395,-2.49311" fill="none" stroke="#000000" stroke-linecap="round"/><path d="M262.32986,87.63486l-0.93048,6.26858" fill="none" stroke="#000000" stroke-linecap="round"/><path d="M264.27392,97.11457l0.76115,-7.45185" fill="none" stroke="#000000" stroke-linecap="round"/><path d="M268.26638,94.45457l-0.69542,-3.94725" fill="none" stroke="#000000" stroke-linecap="round"/><path d="M269.7591,89.37829l1.63704,5.73797" fill="none" stroke="#000000" stroke-linecap="round"/></g><path d="M269.03033,61.25313l0.0452,-1.96459l2.19268,-1.32548" fill="none" stroke="#000000" stroke-linecap="round"/><path d="M235.09277,58.31005l-0.22358,1.17423l-1.00488,0.95968" fill="none" stroke="#000000" stroke-linecap="round"/></g><path d="M227.19332,117.44318l0.11685,-5.07849l35.69878,0.82141l-0.11685,5.07849z" fill="none" stroke="#000000" stroke-linecap="butt"/><path d="M225.54183,111.27787l0.13404,-5.82533l39.2836,0.90389l-0.13404,5.82533z" fill="none" stroke="#000000" stroke-linecap="butt"/><path d="M234.92289,106.2631l-0.25247,4.47759" fill="none" stroke="#000000" stroke-linecap="round"/><path d="M248.51531,106.57586l-0.09623,4.18228" fill="none" stroke="#000000" stroke-linecap="round"/><path d="M258.26702,111.43306l-0.93558,-4.80381" fill="none" stroke="#000000" stroke-linecap="round"/></g><g><path d="M176.38042,186.28865c1.03302,-8.11467 7.86514,-13.92979 15.25996,-12.98841c7.39482,0.94137 12.55209,8.28276 11.51908,16.39744c-1.03302,8.11468 -7.86515,13.92979 -15.25997,12.98841c-7.39483,-0.94137 -12.55209,-8.28276 -11.51908,-16.39744z" fill="#444444" stroke="#000000" stroke-width="0" stroke-linecap="butt"/><path d="M176.82442,191.96875c0.58315,-4.58087 -0.34327,-17.38297 6.20083,-16.54989c1.09792,0.13977 -2.05075,5.04328 -2.02444,10.47955c0.02496,5.15658 3.21545,10.83182 4.48531,11.96098c5.37087,4.7758 15.42908,-5.95713 15.03656,-2.8738c-0.58316,4.58086 -6.36093,7.61905 -12.90503,6.78596c-6.5441,-0.83308 -11.3764,-5.22195 -10.79324,-9.80282z" fill="#282828" stroke="none" stroke-width="0" stroke-linecap="butt"/><path d="M191.51401,174.06122c7.39483,0.94137 12.55209,8.28276 11.51908,16.39744c-1.03302,8.11468 -7.86513,13.92979 -15.25996,12.98841c-7.39483,-0.94137 -12.55209,-8.28276 -11.51908,-16.39744c1.03302,-8.11468 7.86513,-13.92979 15.25996,-12.98841z" fill="none" stroke="#000000" stroke-width="3.5" stroke-linecap="butt"/><g><path d="M204.11389,204.89639c0.78309,-6.15144 -10.15828,-10.44445 -7.14799,-10.06123c1.40694,0.1791 5.39298,-6.38629 9.39384,-4.56392c4.55937,2.07678 9.07244,12.7365 8.65535,16.0129c-0.78309,6.15145 -3.85822,10.82752 -6.86851,10.44431c-3.01029,-0.38321 -4.81578,-5.6806 -4.03269,-11.83206z" fill="#840000" stroke="#000000" stroke-width="0" stroke-linecap="butt"/><path d="M198.31404,195.71729c-1.47259,-2.82078 1.8745,-4.14006 2.49888,-4.06058c1.70147,0.2166 12.20581,17.62407 11.88091,20.17626c-0.3249,2.5522 -1.9676,4.44557 -3.66906,4.22897c-1.70146,-0.2166 -3.25894,-2.1605 -2.93404,-4.7127c0.20567,-1.61563 -5.00998,-10.33224 -7.77669,-15.63195z" fill="#430000" stroke="none" stroke-width="0" stroke-linecap="butt"/><path d="M196.71196,194.71125c1.40694,0.1791 5.39298,-6.38629 9.39384,-4.56392c4.55937,2.07678 9.07244,12.7365 8.65535,16.0129c-0.78309,6.15144 -3.85823,10.82752 -6.86851,10.44431c-3.01028,-0.38321 -4.81577,-5.68061 -4.03268,-11.83206c0.78309,-6.15144 -10.15827,-10.44445 -7.14799,-10.06123z" fill="none" stroke="#000000" stroke-width="3.5" stroke-linecap="butt"/><path d="M204.54541,203.17145l8.36346,-3.27013" fill="none" stroke="#000000" stroke-width="3.5" stroke-linecap="round"/></g><g data-paper-data="{&quot;index&quot;:null}"><path d="M185.54165,208.83206c2.38563,5.72385 2.04887,11.31032 -0.75216,12.47775c-2.80104,1.16743 -7.00564,-2.52626 -9.39126,-8.2501c-1.27063,-3.04865 0.25546,-14.52333 4.10126,-17.73436c3.3747,-2.81768 8.95842,2.4563 10.26756,1.91068c2.80104,-1.16743 -6.61104,5.8722 -4.22542,11.59604z" fill="#840000" stroke="#000000" stroke-width="0" stroke-linecap="butt"/><path d="M185.34595,215.57809c0.98978,2.37478 0.00328,4.66199 -1.57991,5.32185c-1.58319,0.65985 -3.66899,-0.73037 -4.65878,-3.10515c-0.98978,-2.37478 4.52468,-21.94393 6.10788,-22.60379c0.58098,-0.24214 4.15804,0.14274 3.48581,3.25296c-1.26297,5.8435 -3.98158,15.63081 -3.35501,17.13413z" fill="#430000" stroke="none" stroke-width="0" stroke-linecap="butt"/><path d="M185.75365,208.64528c2.38562,5.72384 2.04887,11.31032 -0.75215,12.47775c-2.80103,1.16743 -7.00564,-2.52627 -9.39126,-8.2501c-1.27063,-3.04865 0.25546,-14.52333 4.10126,-17.73436c3.3747,-2.81768 8.95842,2.4563 10.26756,1.91068c2.80103,-1.16743 -6.61104,5.8722 -4.22542,11.59604z" fill="none" stroke="#000000" stroke-width="3.5" stroke-linecap="butt"/><path d="M184.66833,207.28321l-8.9311,-0.93628" fill="none" stroke="#000000" stroke-width="3.5" stroke-linecap="round"/></g><g data-paper-data="{&quot;index&quot;:null}"><path d="M196.34867,209.83014c4.36233,4.40724 6.15031,9.71056 3.99358,11.84531c-2.15673,2.13476 -7.44146,0.29256 -11.80379,-4.11468c-2.32347,-2.34739 -5.2228,-13.55415 -2.86615,-17.97536c2.06798,-3.87962 9.22472,-1.09146 10.23273,-2.0892c2.15673,-2.13476 -3.9187,7.92669 0.44362,12.33392z" fill="#840000" stroke="#000000" stroke-width="0" stroke-linecap="butt"/><path d="M198.70325,216.15494c1.80991,1.82853 1.75555,4.31883 0.53653,5.52542c-1.21902,1.2066 -3.67445,0.70243 -5.48434,-1.1261c-1.80991,-1.82853 -4.05623,-22.03533 -2.8372,-23.24194c0.44734,-0.44278 3.90672,-1.4308 4.45297,1.704c1.02632,5.88967 2.18631,15.98109 3.33203,17.13861z" fill="#430000" stroke="none" stroke-width="0" stroke-linecap="butt"/><path d="M196.4749,209.57736c4.36232,4.40723 6.15031,9.71056 3.99359,11.8453c-2.15672,2.13475 -7.44146,0.29255 -11.80379,-4.11468c-2.32347,-2.34739 -5.2228,-13.55415 -2.86615,-17.97536c2.06798,-3.87962 9.22472,-1.09146 10.23273,-2.0892c2.15672,-2.13475 -3.9187,7.92669 0.44362,12.33392z" fill="none" stroke="#000000" stroke-width="3.5" stroke-linecap="butt"/><path d="M194.95716,208.72318l-8.628,2.48972" fill="none" stroke="#000000" stroke-width="3.5" stroke-linecap="round"/></g><g><path d="M172.16996,205.00019c1.18165,6.08748 -0.27536,11.49111 -3.25434,12.06935c-2.97898,0.57826 -6.35182,-3.88784 -7.53347,-9.97531c-0.62937,-3.24233 3.1806,-14.17308 7.5952,-16.5421c3.87382,-2.07882 8.27856,4.21334 9.67087,3.94307c2.97898,-0.57826 -7.65991,4.41752 -6.47826,10.50497z" fill="#444444" stroke="#000000" stroke-width="0" stroke-linecap="butt"/><path d="M171.11477,211.62337c0.49026,2.52565 -1.43507,4.51139 -3.11884,4.83824c-1.68376,0.32684 -3.44617,-1.45564 -3.93643,-3.9813c-0.49026,-2.52565 8.85927,-20.57965 10.54305,-20.9065c0.61788,-0.11994 4.04371,0.97878 2.75776,3.88939c-2.41604,5.46849 -6.65333,13.83926 -6.34298,15.43809z" fill="#282828" stroke="none" stroke-width="0" stroke-linecap="butt"/><path d="M172.41529,204.86003c1.18166,6.08746 -0.27536,11.49111 -3.25433,12.06936c-2.97897,0.57825 -6.35183,-3.88785 -7.53347,-9.97531c-0.62937,-3.24233 3.1806,-14.17308 7.5952,-16.5421c3.87382,-2.07882 8.27856,4.21334 9.67087,3.94307c2.97897,-0.57825 -7.65991,4.41752 -6.47826,10.50497z" fill="none" stroke="#000000" stroke-width="3.5" stroke-linecap="butt"/><path d="M163.06863,200.58792l8.55849,2.71907" fill="none" stroke="#000000" stroke-width="3.5" stroke-linecap="round"/></g><g><path d="M184.69033,209.03989c2.93012,5.46516 3.13741,11.05794 0.46296,12.49183c-2.67444,1.4339 -7.21783,-1.83408 -10.14796,-7.29925c-1.56065,-2.91086 -1.15593,-14.47951 2.35991,-18.0488c3.08516,-3.13205 9.1546,1.57485 10.40457,0.90468c2.67444,-1.4339 -6.00962,6.48638 -3.07949,11.95152z" fill="#444444" stroke="#000000" stroke-width="0" stroke-linecap="butt"/><path d="M185.64233,215.67868c1.21569,2.26746 -0.0358,4.734 -1.54743,5.54447c-1.51163,0.81046 -3.72258,-0.37066 -4.93827,-2.63812c-1.21569,-2.26746 2.37258,-22.27958 3.88423,-23.09005c0.55472,-0.29741 4.15224,-0.26167 3.78519,2.89912c-0.6896,5.93853 -2.26005,15.18829 -1.49048,16.62368z" fill="#282828" stroke="none" stroke-width="0" stroke-linecap="butt"/><path d="M184.8832,208.83341c2.93013,5.46515 3.13741,11.05794 0.46297,12.49184c-2.67443,1.43389 -7.21784,-1.83409 -10.14796,-7.29925c-1.56065,-2.91086 -1.15593,-14.47951 2.35991,-18.0488c3.08516,-3.13205 9.1546,1.57485 10.40457,0.90468c2.67443,-1.43389 -6.00962,6.48638 -3.07949,11.95152z" fill="none" stroke="#000000" stroke-width="3.5" stroke-linecap="butt"/><path d="M174.69094,207.5185l8.97981,0.06467" fill="none" stroke="#000000" stroke-width="3.5" stroke-linecap="round"/></g><g><path d="M196.07424,209.91637c4.72797,4.01248 6.96897,9.14083 5.00542,11.45452c-1.96355,2.31369 -7.38809,0.93655 -12.11605,-3.07592c-2.51822,-2.13713 -6.37815,-13.05034 -4.41365,-17.65922c1.72386,-4.04429 9.09538,-1.88705 10.0131,-2.96841c1.96355,-2.31369 -3.21678,8.23656 1.51118,12.24902z" fill="#444444" stroke="#000000" stroke-width="0" stroke-linecap="butt"/><path d="M199.39129,215.74535c1.96161,1.66475 1.70032,4.41826 0.5905,5.726c-1.10983,1.30773 -3.59972,1.01832 -5.56133,-0.64643c-1.96161,-1.66475 -5.95121,-21.60074 -4.84137,-22.90848c0.40727,-0.47989 3.76798,-1.76408 4.58393,1.31155c1.53305,5.77854 3.45903,14.96085 4.70079,16.0147z" fill="#282828" stroke="none" stroke-width="0" stroke-linecap="butt"/><path d="M196.1781,209.6536c4.72796,4.01246 6.96897,9.14083 5.00543,11.45452c-1.96354,2.31369 -7.3881,0.93656 -12.11605,-3.07592c-2.51822,-2.13713 -6.37815,-13.05034 -4.41365,-17.65922c1.72386,-4.04429 9.09538,-1.88705 10.0131,-2.96841c1.96354,-2.31369 -3.21678,8.23656 1.51118,12.24902z" fill="none" stroke="#000000" stroke-width="3.5" stroke-linecap="butt"/><path d="M194.59203,208.93421l-8.3797,3.2283" fill="none" stroke="#000000" stroke-width="3.5" stroke-linecap="round"/></g><g data-paper-data="{&quot;index&quot;:null}"><path d="M204.7172,205.45184c1.35847,-6.05045 -9.13041,-11.35399 -6.16953,-10.68921c1.38384,0.3107 5.97,-5.85047 9.78162,-3.6597c4.34372,2.49661 7.8337,13.53369 7.11016,16.75632c-1.35847,6.05047 -4.85995,10.41643 -7.82083,9.75165c-2.96088,-0.66477 -4.25987,-6.10855 -2.90142,-12.15902z" fill="#444444" stroke="#000000" stroke-width="0" stroke-linecap="butt"/><path d="M205.69745,211.38403c0.35679,-1.58911 -3.6349,-10.07975 -5.89063,-15.6163c-1.20063,-2.94684 2.25575,-3.9453 2.86988,-3.80741c1.67353,0.37576 10.49324,18.69442 9.92963,21.20471c-0.56361,2.5103 -2.37719,4.2407 -4.05072,3.86495c-1.67353,-0.37576 -3.54021,-2.41672 -2.9766,-4.92702z" fill="#282828" stroke="none" stroke-width="0" stroke-linecap="butt"/><path d="M204.47605,205.30461c1.35847,-6.05045 -9.13039,-11.35398 -6.16952,-10.6892c1.38384,0.3107 5.97,-5.85048 9.78162,-3.65971c4.34372,2.49661 7.8337,13.53369 7.11016,16.75632c-1.35846,6.05046 -4.85997,10.41643 -7.82083,9.75165c-2.96087,-0.66478 -4.25988,-6.10857 -2.90141,-12.15903z" fill="none" stroke="#000000" stroke-width="3.5" stroke-linecap="butt"/><path d="M213.94318,201.30657l-8.63407,2.46863" fill="none" stroke="#000000" stroke-width="3.5" stroke-linecap="round"/></g></g></g></g></svg>