<svg version="1.1" xmlns="http://www.w3.org/2000/svg" xmlns:xlink="http://www.w3.org/1999/xlink" width="753.39291" height="698.12377" viewBox="0,0,753.39291,698.12377"><g transform="translate(232.08537,-33.39258)"><g data-paper-data="{&quot;isPaintingLayer&quot;:true}" fill-rule="nonzero" stroke-linejoin="miter" stroke-miterlimit="10" stroke-dasharray="" stroke-dashoffset="0" style="mix-blend-mode: normal"><g stroke-width="7.5" stroke-linecap="butt"><g><path d="M18.91747,657.2709l15.85587,-215.99916l37.54272,2.7559l-15.85587,215.99916z" fill="#7c7c7c" stroke="#000000"/><path d="M37.94307,437.33748c6.24077,0.45814 -5.42785,104.66193 -1.3241,159.8166c3.36708,45.25382 23.15602,42.87513 22.8318,47.29156c-0.71931,9.79906 -10.51253,17.0667 -21.87378,16.2327c-11.36125,-0.834 -19.98822,-9.45379 -19.26892,-19.25287c0.71931,-9.79906 8.27375,-204.92198 19.63498,-204.088z" fill="#4c4c4c" stroke="none"/><path d="M18.91747,657.2709l15.85587,-215.99915l37.54272,2.75589l-15.85587,215.99915z" fill="none" stroke="#000000"/></g><g><path d="M23.30242,391.06567c6.85172,-6.01235 29.98608,-4.87595 38.23472,-4.20718c9.524,0.77219 31.86077,-6.77916 37.97811,2.24201c7.83075,11.54789 -1.96488,41.72647 -3.45078,60.05368c-2.64668,32.64436 -22.39618,57.68057 -44.11177,55.91995c-4.10257,-0.33263 -2.71729,-60.15004 -6.29332,-62.20379c-7.93042,-4.55453 -26.40086,76.27493 -31.83567,80.64305c-5.08639,4.08808 2.56386,-67.93483 3.60165,-80.73494c1.64133,-20.24442 -5.3092,-41.89687 5.87705,-51.71277z" fill="#5d9000" stroke="#000000"/><path d="M41.46435,444.95728c-7.58721,13.96841 -18.26119,77.69187 -22.46946,71.33679c-10.0631,-15.19662 -1.96787,-108.91475 5.17387,-119.5429c2.30857,-3.43556 -7.90921,55.12467 -2.69847,65.39227c4.87651,9.60901 14.88292,-31.65869 22.04471,-34.27886c12.08939,-4.42297 25.12373,60.80175 27.11654,60.96332c11.63841,0.94359 26.32202,-31.12481 25.20581,-17.35741c-1.11621,13.7674 -18.29039,31.88677 -29.92881,30.94318c-2.42316,-0.19645 -6.29062,2.78305 -7.91611,1.18677c-6.18172,-6.07063 -5.18534,-24.64603 -4.30152,-35.547c0.16008,-1.97448 -4.4664,-37.38296 -12.22656,-23.09615z" fill="#517c00" stroke="none"/><path d="M23.30242,391.06567c6.8517,-6.01234 29.98608,-4.87593 38.23472,-4.20717c9.524,0.77217 31.86075,-6.77917 37.97809,2.24199c7.83074,11.54791 -1.96488,41.72649 -3.45078,60.0537c-2.64666,32.64434 -22.39618,57.68055 -44.11177,55.91994c-4.10257,-0.33263 -2.71729,-60.15004 -6.29332,-62.20379c-7.93042,-4.55453 -26.40086,76.27495 -31.83567,80.64305c-5.08637,4.08808 2.56388,-67.93483 3.60167,-80.73494c1.64135,-20.24442 -5.3092,-41.89687 5.87705,-51.71277z" fill="none" stroke="#000000"/></g><g><g><path d="M-50.34655,702.80018l0.53251,-51.66236l110.66034,3.08133l-0.53251,51.66237z" fill="#252525" stroke="#000000"/><path d="M-50.34655,702.80018l0.53251,-51.66236l110.66034,3.08133l-0.53251,51.66237z" fill="#252525" stroke="#000000"/><path d="M-50.34655,702.80018l0.53251,-51.66236l110.66034,3.08133l-0.53251,51.66237z" fill="none" stroke="#000000"/><path d="M-49.13593,654.8805c0.03872,-3.75515 1.65746,18.31669 8.34529,26.84874c6.37893,8.13798 17.64957,2.66665 25.2457,2.87818c7.38506,0.20567 38.63024,11.12814 56.86347,1.53448c11.07197,-5.82565 10.29806,-35.49054 16.75151,-32.88217c5.31094,2.14657 1.47114,50.52305 1.4532,52.26322c-0.07562,7.33687 -59.78195,1.06118 -75.34205,0.6279c-10.00011,-0.27846 -26.88068,6.58687 -33.40115,-9.71978c-3.62533,-9.06635 0.05699,-38.92893 0.08401,-41.55056z" fill="#141414" stroke="none"/><path d="M-50.34655,702.80018l0.53251,-51.66236l110.66034,3.08133l-0.53251,51.66237z" fill="none" stroke="#000000"/></g><g><path d="M-82.41565,716.20225l0.26096,-51.66236l54.23044,3.08133l-0.26096,51.66239z" fill="#252525" stroke="#000000"/><path d="M-82.41565,716.20225l0.26096,-51.66236l54.23044,3.08133l-0.26096,51.66239z" fill="#6c6c6c" stroke="#000000"/><path d="M-82.41565,716.20225l0.26096,-51.66236l54.23044,3.08133l-0.26096,51.66239z" fill="none" stroke="#000000"/><path d="M-77.73267,695.13131c3.12607,8.13796 8.64938,2.66665 12.37197,2.87816c3.61914,0.20567 18.93121,11.12814 27.86663,1.53448c5.42595,-5.82563 5.04669,-35.49052 8.20927,-32.88215c2.60269,2.14657 0.72096,50.52305 0.71217,52.26322c-0.03708,7.33687 -29.29687,1.0612 -36.92229,0.62792c-4.90068,-0.27848 -13.17322,6.58685 -16.36864,-9.7198c-1.77664,-9.06637 0.02795,-38.92893 0.04118,-41.55056c0.01898,-3.75513 0.81226,18.31669 4.08971,26.84872z" fill="#545454" stroke="none"/><path d="M-82.41565,716.20225l0.26096,-51.66236l54.23044,3.08133l-0.26096,51.66239z" fill="none" stroke="#000000"/></g><g><path d="M-0.88642,720.94882l0.26096,-51.66236l54.23044,3.08133l-0.26098,51.66239z" fill="#252525" stroke="#000000"/><path d="M-0.88642,720.94882l0.26096,-51.66236l54.23044,3.08133l-0.26098,51.66239z" fill="#6c6c6c" stroke="#000000"/><path d="M-0.88642,720.94882l0.26096,-51.66236l54.23044,3.08133l-0.26098,51.66239z" fill="none" stroke="#000000"/><path d="M-0.29314,673.02918c0.01896,-3.75513 0.81224,18.31669 4.08969,26.84872c3.12609,8.13798 8.64941,2.66667 12.37199,2.87818c3.61912,0.20565 18.93119,11.12812 27.86661,1.53447c5.42596,-5.82563 5.04669,-35.49052 8.20929,-32.88215c2.60269,2.14656 0.72096,50.52305 0.71217,52.26322c-0.03706,7.33687 -29.29685,1.06118 -36.92227,0.6279c-4.90068,-0.27848 -13.17323,6.58685 -16.36866,-9.7198c-1.77662,-9.06637 0.02795,-38.92893 0.04118,-41.55056z" fill="#545454" stroke="none"/><path d="M-0.88642,720.94882l0.26096,-51.66236l54.23044,3.08133l-0.26098,51.66239z" fill="none" stroke="#000000"/></g><g><path d="M-45.55997,720.6696l0.26096,-51.66236l54.23044,3.08133l-0.26096,51.66239z" fill="#252525" stroke="#000000"/><path d="M-45.55997,720.6696l0.26096,-51.66236l54.23044,3.08133l-0.26096,51.66239z" fill="#6c6c6c" stroke="#000000"/><path d="M-45.55997,720.6696l0.26096,-51.66236l54.23044,3.08133l-0.26096,51.66239z" fill="none" stroke="#000000"/><path d="M-44.96669,672.74996c0.01895,-3.75513 0.81224,18.31671 4.08969,26.84874c3.12607,8.13798 8.6494,2.66665 12.37197,2.87816c3.61912,0.20565 18.93119,11.12814 27.86661,1.53448c5.42596,-5.82563 5.04669,-35.49054 8.20929,-32.88217c2.60267,2.14656 0.72096,50.52305 0.71217,52.26322c-0.03706,7.33687 -29.29685,1.06118 -36.92227,0.6279c-4.90067,-0.27848 -13.17322,6.58685 -16.36864,-9.7198c-1.77662,-9.06637 0.02795,-38.92893 0.04118,-41.55056z" fill="#545454" stroke="none"/><path d="M-45.55997,720.6696l0.26096,-51.66236l54.23044,3.08133l-0.26096,51.66239z" fill="none" stroke="#000000"/></g></g></g><g data-paper-data="{&quot;index&quot;:null}" stroke-width="7.5" stroke-linecap="butt"><g><path d="M142.83755,663.54497l-15.85585,-215.99916l37.5427,-2.7559l15.85587,215.99916z" fill="#7c7c7c" stroke="#000000"/><path d="M180.98965,644.94365c0.71931,9.79908 -7.90764,18.41889 -19.2689,19.25287c-11.36125,0.834 -21.15448,-6.43364 -21.87378,-16.23272c-0.3242,-4.41641 19.46474,-2.03774 22.83182,-47.29156c4.10373,-55.15466 -7.56489,-159.35848 -1.32412,-159.8166c11.36125,-0.834 18.91567,194.28892 19.635,204.08799z" fill="#4c4c4c" stroke="none"/><path d="M142.83755,663.54496l-15.85585,-215.99915l37.54272,-2.7559l15.85587,215.99915z" fill="none" stroke="#000000"/></g><g><path d="M181.87236,446.29661c1.03779,12.80011 8.68804,84.82302 3.60165,80.73494c-5.43481,-4.36812 -23.90524,-85.19758 -31.83567,-80.64305c-3.57602,2.05375 -2.19075,61.87116 -6.29332,62.20379c-21.71559,1.76061 -41.46509,-23.2756 -44.11177,-55.91995c-1.4859,-18.32721 -11.28153,-48.50579 -3.45078,-60.05368c6.11734,-9.02116 28.45411,-1.46982 37.97811,-2.24201c8.24864,-0.66877 31.383,-1.80517 38.23472,4.20718c11.18624,9.8159 4.23572,31.46836 5.87705,51.71277z" fill="#5d9000" stroke="#000000"/><path d="M145.60682,471.5716c0.88382,10.90097 1.8802,29.47637 -4.30152,35.547c-1.62548,1.59628 -5.49295,-1.38322 -7.91611,-1.18677c-11.63841,0.94359 -28.8126,-17.17578 -29.92881,-30.94318c-1.11621,-13.7674 13.56739,18.301 25.20581,17.35741c1.99281,-0.16157 15.02715,-65.38629 27.11654,-60.96332c7.16179,2.62017 17.1682,43.88787 22.04471,34.27886c5.21074,-10.2676 -5.00704,-68.82783 -2.69847,-65.39227c7.14174,10.62816 15.23697,104.34628 5.17387,119.5429c-4.20827,6.35508 -14.88225,-57.36838 -22.46946,-71.33679c-7.76016,-14.2868 -12.38664,21.12167 -12.22656,23.09615z" fill="#517c00" stroke="none"/><path d="M181.87236,446.29661c1.03779,12.80011 8.68804,84.82302 3.60167,80.73494c-5.43481,-4.3681 -23.90524,-85.19758 -31.83567,-80.64305c-3.57602,2.05375 -2.19075,61.87116 -6.29332,62.20379c-21.71559,1.76061 -41.46511,-23.2756 -44.11177,-55.91994c-1.4859,-18.32721 -11.28151,-48.50579 -3.45078,-60.0537c6.11734,-9.02116 28.45409,-1.46982 37.97809,-2.24199c8.24864,-0.66877 31.38302,-1.80517 38.23472,4.20717c11.18624,9.8159 4.2357,31.46836 5.87705,51.71277z" fill="none" stroke="#000000"/></g><g><g><path d="M138.98394,709.3997l-0.53251,-51.66237l110.66034,-3.08133l0.53251,51.66236z" fill="#252525" stroke="#000000"/><path d="M138.98394,709.3997l-0.53251,-51.66237l110.66034,-3.08133l0.53251,51.66236z" fill="#252525" stroke="#000000"/><path d="M138.98394,709.3997l-0.53251,-51.66237l110.66034,-3.08133l0.53251,51.66236z" fill="none" stroke="#000000"/><path d="M248.43368,658.39869c0.02702,2.62163 3.70934,32.48421 0.08401,41.55056c-6.52047,16.30665 -23.40104,9.44132 -33.40115,9.71978c-15.5601,0.43328 -75.26643,6.70897 -75.34205,-0.6279c-0.01794,-1.74017 -3.85774,-50.11665 1.4532,-52.26322c6.45345,-2.60837 5.67954,27.05652 16.75151,32.88217c18.23324,9.59366 49.47842,-1.32881 56.86347,-1.53448c7.59613,-0.21153 18.86677,5.2598 25.2457,-2.87818c6.68783,-8.53205 8.30657,-30.60389 8.34529,-26.84874z" fill="#141414" stroke="none"/><path d="M138.98394,709.3997l-0.53251,-51.66237l110.66034,-3.08133l0.53251,51.66236z" fill="none" stroke="#000000"/></g><g><path d="M227.48294,722.80179l-0.26096,-51.66239l54.23044,-3.08133l0.26096,51.66236z" fill="#252525" stroke="#000000"/><path d="M227.48294,722.80179l-0.26096,-51.66239l54.23044,-3.08133l0.26096,51.66236z" fill="#6c6c6c" stroke="#000000"/><path d="M227.48294,722.80179l-0.26096,-51.66239l54.23044,-3.08133l0.26096,51.66236z" fill="none" stroke="#000000"/><path d="M281.12011,671.80076c0.01323,2.62163 1.81782,32.48419 0.04118,41.55056c-3.19543,16.30665 -11.46796,9.44132 -16.36864,9.7198c-7.62542,0.43328 -36.88521,6.70895 -36.92229,-0.62792c-0.0088,-1.74017 -1.89052,-50.11665 0.71217,-52.26322c3.16259,-2.60837 2.78333,27.05652 8.20927,32.88215c8.93542,9.59366 24.24749,-1.32881 27.86663,-1.53448c3.72259,-0.21151 9.2459,5.2598 12.37197,-2.87816c3.27745,-8.53203 4.07073,-30.60385 4.08971,-26.84872z" fill="#545454" stroke="none"/><path d="M227.48294,722.80179l-0.26096,-51.66239l54.23044,-3.08133l0.26096,51.66236z" fill="none" stroke="#000000"/></g><g><path d="M145.95373,727.54836l-0.26098,-51.66239l54.23044,-3.08133l0.26096,51.66236z" fill="#252525" stroke="#000000"/><path d="M145.95373,727.54836l-0.26098,-51.66239l54.23044,-3.08133l0.26096,51.66236z" fill="#6c6c6c" stroke="#000000"/><path d="M145.95373,727.54836l-0.26098,-51.66239l54.23044,-3.08133l0.26096,51.66236z" fill="none" stroke="#000000"/><path d="M199.59087,676.54733c0.01323,2.62163 1.8178,32.48419 0.04118,41.55056c-3.19543,16.30665 -11.46798,9.44132 -16.36866,9.7198c-7.62542,0.43328 -36.88521,6.70897 -36.92227,-0.6279c-0.0088,-1.74017 -1.89052,-50.11667 0.71217,-52.26322c3.1626,-2.60837 2.78333,27.05652 8.20929,32.88215c8.93542,9.59366 24.24749,-1.32881 27.86661,-1.53447c3.72257,-0.21151 9.2459,5.2598 12.37199,-2.87818c3.27745,-8.53203 4.07073,-30.60385 4.08969,-26.84872z" fill="#545454" stroke="none"/><path d="M145.95373,727.54836l-0.26098,-51.66239l54.23044,-3.08133l0.26096,51.66236z" fill="none" stroke="#000000"/></g><g><path d="M190.62726,727.26914l-0.26096,-51.66239l54.23044,-3.08133l0.26096,51.66236z" fill="#252525" stroke="#000000"/><path d="M190.62726,727.26914l-0.26096,-51.66239l54.23044,-3.08133l0.26096,51.66236z" fill="#6c6c6c" stroke="#000000"/><path d="M190.62726,727.26914l-0.26096,-51.66239l54.23044,-3.08133l0.26096,51.66236z" fill="none" stroke="#000000"/><path d="M244.26442,676.26811c0.01323,2.62163 1.8178,32.48419 0.04118,41.55056c-3.19543,16.30665 -11.46798,9.44132 -16.36864,9.7198c-7.62542,0.43328 -36.88521,6.70897 -36.92227,-0.6279c-0.0088,-1.74017 -1.8905,-50.11667 0.71217,-52.26322c3.1626,-2.60837 2.78333,27.05654 8.20929,32.88217c8.93542,9.59366 24.24749,-1.32883 27.86661,-1.53448c3.72257,-0.21151 9.2459,5.25982 12.37197,-2.87816c3.27745,-8.53203 4.07075,-30.60387 4.08969,-26.84874z" fill="#545454" stroke="none"/><path d="M190.62726,727.26914l-0.26096,-51.66239l54.23044,-3.08133l0.26096,51.66236z" fill="none" stroke="#000000"/></g></g></g><g stroke-width="10" stroke-linecap="butt"><g><path d="M-225.21757,627.48158l176.93548,-291.82659l50.72224,30.75306l-176.93548,291.82659z" fill="#7c7c7c" stroke="#000000"/><path d="M-214.7258,604.80418c8.02689,-13.23908 158.36052,-281.70812 173.71018,-272.40156c8.43161,5.11213 -82.56843,143.01884 -116.3053,223.3739c-27.68075,65.93046 1.79884,76.76284 -1.81887,82.72963c-8.02691,13.23908 -26.97734,16.42703 -42.32701,7.12048c-15.34966,-9.30654 -21.28592,-27.58339 -13.25903,-40.82247z" fill="#4c4c4c" stroke="none"/><path d="M-225.21757,627.48158l176.93545,-291.82659l50.72224,30.75306l-176.93545,291.82659z" fill="none" stroke="#000000"/></g><g><path d="M-83.94592,356.09964c16.59296,-27.36743 22.07283,-62.77945 44.75876,-68.71976c13.89539,-3.63849 45.69103,14.28151 56.84197,21.04239c12.87502,7.80616 49.67505,12.9222 51.93119,29.9485c2.88806,21.7952 -32.20212,57.40826 -47.22368,82.18392c-26.75631,44.13024 -72.24451,65.47615 -101.60074,47.67737c-5.54607,-3.36261 38.60059,-86.6706 35.01052,-92.08691c-7.96155,-12.01159 -91.0036,88.8515 -101.74272,91.1727c-10.05062,2.17237 51.5333,-93.91438 62.02467,-111.21822z" fill="#5d9000" stroke="#000000"/><path d="M-50.67505,417.29452c1.61835,-2.66922 20.0763,-55.8247 -0.93587,-41.16795c-20.54389,14.33011 -80.53396,96.5897 -81.98079,84.66665c-3.45974,-28.51108 74.05481,-154.8534 91.6148,-164.79118c5.67626,-3.21238 -50.02892,72.09379 -49.92946,90.23688c0.09308,16.97933 43.30242,-34.11008 55.24194,-32.75015c20.15436,2.29564 -7.48873,103.39419 -4.79476,105.02756c15.73341,9.53921 59.04398,-25.28874 47.75978,-6.67728c-11.28419,18.61146 -48.26457,32.02787 -63.99796,22.48866c-3.27577,-1.9861 -10.82688,-0.51593 -11.99126,-3.91177c-4.42811,-12.91432 10.07877,-38.38493 19.01354,-53.12143z" fill="#517c00" stroke="none"/><path d="M-83.94595,356.09967c16.59296,-27.3674 22.07283,-62.77945 44.75876,-68.71976c13.89538,-3.63852 45.69103,14.28151 56.84197,21.04239c12.87502,7.80616 49.67505,12.9222 51.93119,29.9485c2.88804,21.7952 -32.20212,57.40826 -47.22368,82.18392c-26.75631,44.13027 -72.24451,65.47615 -101.60074,47.67737c-5.54607,-3.36261 38.60059,-86.6706 35.01052,-92.08691c-7.96155,-12.01159 -91.0036,88.8515 -101.74272,91.1727c-10.05059,2.17237 51.53331,-93.9144 62.0247,-111.21822z" fill="none" stroke="#000000"/></g></g><g data-paper-data="{&quot;index&quot;:null}" stroke-width="10" stroke-linecap="butt"><g><path d="M463.7175,667.44638l-176.93548,-291.82662l50.72224,-30.75306l176.93548,291.82662z" fill="#7c7c7c" stroke="#000000"/><path d="M503.94799,614.01591c8.02691,13.23908 2.09062,31.51594 -13.25903,40.82248c-15.34966,9.30654 -34.3001,6.11859 -42.32697,-7.12048c-3.61771,-5.96681 25.86189,-16.79916 -1.81887,-82.72963c-33.73688,-80.35506 -124.7369,-218.26178 -116.3053,-223.3739c15.34966,-9.30654 165.6833,259.1625 173.71021,272.40156z" fill="#4c4c4c" stroke="none"/><path d="M463.7175,667.44635l-176.93548,-291.82659l50.72224,-30.75306l176.93548,291.82659z" fill="none" stroke="#000000"/></g><g><path d="M373.16809,365.31134c10.49137,17.30383 72.07529,113.39059 62.02467,111.21822c-10.7391,-2.32117 -93.78114,-103.18427 -101.74272,-91.1727c-3.59007,5.41634 40.55658,88.7243 35.01052,92.08688c-29.35621,17.79877 -74.84443,-3.54713 -101.60076,-47.67737c-15.02156,-24.77561 -50.11171,-60.38872 -47.2237,-82.18392c2.25614,-17.0263 39.0562,-22.14234 51.93122,-29.9485c11.15095,-6.76086 42.9466,-24.68088 56.84197,-21.04239c22.68594,5.94031 28.16583,41.35233 44.75876,68.71976z" fill="#5d9000" stroke="#000000"/><path d="M339.89725,426.50626c8.93479,14.73646 23.44168,40.20711 19.01357,53.12143c-1.16438,3.39584 -8.71549,1.92567 -11.99123,3.91177c-15.73341,9.53921 -52.71378,-3.8772 -63.99796,-22.48866c-11.28419,-18.61146 32.02637,16.21653 47.75975,6.67731c2.69397,-1.63339 -24.9491,-102.73194 -4.79476,-105.02759c11.93952,-1.35993 55.14886,49.72949 55.24194,32.75015c0.09946,-18.14307 -55.60572,-93.44928 -49.92944,-90.23688c17.56001,9.93778 95.07454,136.2801 91.6148,164.79118c-1.4468,11.92305 -61.43687,-70.33655 -81.98076,-84.66665c-21.01217,-14.65675 -2.55425,38.49872 -0.9359,41.16795z" fill="#517c00" stroke="none"/><path d="M373.16803,365.31137c10.49137,17.30383 72.07529,113.39059 62.0247,111.21822c-10.73908,-2.32117 -93.78115,-103.18425 -101.74272,-91.1727c-3.59007,5.41631 40.55658,88.7243 35.01052,92.08688c-29.35621,17.79877 -74.84443,-3.5471 -101.60076,-47.67737c-15.02156,-24.77561 -50.11171,-60.38872 -47.22368,-82.18392c2.25614,-17.0263 39.05614,-22.14234 51.93119,-29.9485c11.15095,-6.76086 42.9466,-24.68091 56.84197,-21.04239c22.68594,5.94031 28.16581,41.35236 44.75876,68.71976z" fill="none" stroke="#000000"/></g></g><g stroke-width="10" stroke-linecap="butt"><path d="M14.7622,479.49782c0,-53.43897 66.05037,-96.7598 129.42872,-96.7598c63.37835,0 125.23667,16.45478 125.23667,69.89372c0,12.50448 -3.30962,98.53009 -12.67298,107.13288c-9.7165,8.92727 -36.15015,-32.78079 -45.87347,-23.98068c-20.94997,18.96082 -33.5317,40.47365 -66.69023,40.47365c-20.52084,0 -23.53955,-33.92633 -40.20769,-41.88242c-13.38087,-6.38702 -40.58971,20.01119 -52.88976,15.15178c-19.6993,-7.78265 -36.33123,-47.78309 -36.33123,-70.02916z" fill="#3e5f00" stroke="#000000"/><g><path d="M125.87036,594.53699v-206.80149h58.21679v206.80149z" fill="#707070" stroke="#000000"/><path d="M122.69793,574.67991c0,-13.24697 -1.16679,-158.90558 14.90724,-158.90558c10.74631,0 -12.00551,104.24588 -1.9163,154.02638c5.00195,24.67979 48.05772,9.48317 48.05772,13.87387c0,13.24694 -15.87005,14.99109 -31.94409,14.99109c-16.07403,0 -29.10461,-10.7388 -29.10461,-23.98574z" fill="#474747" stroke="none"/><path d="M126.06594,594.77301v-206.80149h58.21679v206.80149z" fill="none" stroke="#000000"/></g><g><path d="M44.67065,454.8685v-29.25079h211.89274v29.25079z" fill="#707070" stroke="#000000"/><path d="M87.38178,429.58365c39.11357,0 -43.69669,14.74496 -6.97474,21.78608c18.20573,3.49081 174.91662,1.34134 174.91662,1.96237c0,1.8737 -57.76253,2.1204 -116.26743,2.1204c-58.5049,0 -92.99716,0.32897 -92.99716,-1.54473c0,-1.8737 -17.18218,-24.32412 41.32274,-24.32412z" fill="#474747" stroke="none"/><path d="M45.38253,454.90191v-29.25079h211.89274v29.25079z" fill="none" stroke="#000000"/></g><g><path d="M48.3665,531.55685v-29.25079h211.89274v29.25079z" fill="#707070" stroke="#000000"/><path d="M49.75484,530.59612c0,-1.8737 -17.18218,-24.32413 41.32274,-24.32413c39.11356,0 -43.69666,14.74493 -6.97474,21.78608c18.20572,3.49081 174.91662,1.34134 174.91662,1.96237c0,1.8737 -57.76253,2.1204 -116.26743,2.1204c-58.5049,0 -92.99716,0.32897 -92.99716,-1.54473z" fill="#474747" stroke="none"/><path d="M49.07834,531.59023v-29.25079h211.89274v29.25079z" fill="none" stroke="#000000"/></g><path d="M26.51107,335.47054c15.75865,1.50277 46.39851,16.8003 61.27006,8.81631c12.32789,-6.61838 -42.41714,-28.38744 -34.82112,-46.15964c6.72525,-15.7349 75.42164,-28.05745 90.48945,-28.05745c75.01885,0 135.83363,40.79031 135.83363,91.1077c0,27.93516 8.3798,115.1155 -24.49031,158.40513c-13.977,18.40759 -2.96678,-18.96348 -27.91997,-16.24694c-2.38866,0.26003 32.63899,-61.23811 18.70797,-54.30067c-1.64449,0.81891 -16.232,1.42069 -32.37636,-11.29595c-17.252,-13.58912 -36.19904,-40.46107 -40.35825,-36.34828c-8.5443,8.44891 0.33978,35.51583 -0.98224,55.81838c-2.38918,36.69165 -10.36962,70.32541 -18.04649,67.04184c-26.36992,-11.27904 -49.68786,-71.60999 -56.32879,-67.85929c-23.35376,13.18987 43.30871,92.81658 33.71827,92.81658c-25.24739,0 -80.14606,11.54044 -98.55916,-11.07464c-36.29863,-44.58224 -25.03194,-143.57292 -25.03194,-176.95612c0,-15.02571 1.69993,-27.34674 18.89523,-25.70694z" fill="#5d9000" stroke="#000000"/><path d="M20.27846,521.6072c0,-5.38741 -18.25009,-166.29036 -6.29222,-179.42635c0.87909,-0.96571 12.88602,-2.49912 26.30402,0.78776c17.31175,4.24068 37.63901,12.94962 46.42848,4.0187c4.06627,-4.1317 -17.93526,-23.91748 -25.09502,-38.07692c-6.42958,-12.7154 1.76343,-19.98741 6.93066,-22.54759c45.0003,-22.2961 108.22993,-24.70746 115.93399,-13.18286c3.40328,5.09098 -108.94056,20.33019 -111.30097,29.99111c-2.38625,9.76667 26.31896,26.43289 26.77639,38.35279c0.64739,16.87108 -82.20872,17.97243 -82.59681,33.78696c-0.34074,13.88414 7.46312,140.98588 25.33787,154.29201c8.96879,6.67643 43.46441,16.61239 53.37364,0.63849c6.74844,-10.87861 -21.84582,-61.62932 -17.65821,-73.85215c5.3134,-15.50877 23.20758,-8.14263 24.07991,-8.14263c1.15296,0 13.06113,1.51358 17.3828,8.1157c10.84147,16.56225 19.95697,47.44881 29.6666,36.83457c6.31499,-6.90334 -1.39918,-48.51118 2.30026,-65.59118c7.2325,-33.39181 23.17464,-46.63875 28.30828,-39.06956c0.29687,0.43771 23.04256,18.55037 44.28137,31.69673c18.3101,11.33356 35.58608,17.77396 35.38137,20.1754c-0.05959,0.69906 -3.74318,78.42271 -4.90227,79.22045c-1.84094,1.26704 -14.82344,-9.27265 -18.04068,-22.7083c-2.48755,-10.38846 8.80498,-29.6514 8.1912,-40.01146c-0.65233,-11.01102 -13.23733,-12.87538 -17.08688,-15.1541c-22.08552,-13.07344 -46.28848,-44.00354 -53.94551,-38.36133c-9.07283,6.68545 -0.12737,25.40877 -1.94006,40.16456c-3.91224,31.84646 -9.01093,66.00541 -8.92148,67.23196c0.27295,3.74271 -4.00455,11.41807 -12.51094,3.99157c-16.54258,-14.44251 -44.42774,-52.51229 -53.3548,-53.06508c-8.2292,-0.50958 20.53823,57.03991 20.53823,59.89083c0,0.79879 9.62293,16.63547 9.47856,17.41498c-2.33874,12.62829 -32.88664,7.46196 -58.26319,7.46196c-26.94301,0 -48.78463,-11.13778 -48.78463,-24.87694z" fill="#517c00" stroke="none"/><path d="M7.61582,361.17743c0,-15.02566 1.69993,-27.34673 18.89523,-25.70691c15.75868,1.50279 46.39851,16.8003 61.27006,8.81631c12.32789,-6.61837 -42.41714,-28.38741 -34.82112,-46.15964c6.72525,-15.7349 75.42166,-28.05745 90.48945,-28.05745c75.01885,0 135.83363,40.79031 135.83363,91.1077c0,27.93516 8.3798,115.1155 -24.49031,158.40513c-13.977,18.40759 -2.96675,-18.96348 -27.91997,-16.24694c-2.38862,0.26006 32.63902,-61.23807 18.708,-54.30064c-1.64449,0.81891 -16.232,1.42069 -32.37636,-11.29595c-17.252,-13.58912 -36.19904,-40.46104 -40.35825,-36.34828c-8.5443,8.44891 0.33978,35.51583 -0.98224,55.81838c-2.38918,36.69165 -10.36965,70.32541 -18.04652,67.04184c-26.36992,-11.27904 -49.68783,-71.60999 -56.32876,-67.85929c-23.35379,13.18987 43.30871,92.81658 33.71827,92.81658c-25.24739,0 -80.14606,11.54044 -98.55916,-11.07464c-36.29866,-44.58224 -25.03196,-143.57294 -25.03196,-176.95612z" fill="none" stroke="#000000"/></g><g stroke-width="10"><path d="M26.22588,175.53993c-2.54401,-28.06848 -23.45501,-69.92668 10.5341,-64.17136c29.22517,4.94867 14.99256,-31.40544 34.39527,-45.6668c10.62167,-7.80712 42.98047,-1.44634 58.61299,-4.80609c24.74079,-5.31734 33.54999,-17.80969 45.2594,-18.87098c58.64167,-5.31504 57.82477,51.00585 63.55857,114.26776c5.73381,63.26193 -37.1565,118.85456 -95.79817,124.1696c-58.64167,5.31504 -110.82831,-41.66021 -116.56212,-104.92212z" fill="#3e5f00" stroke="none" stroke-linecap="butt"/><path d="M27.12623,175.10088c-2.54401,-28.06848 -23.45501,-69.92671 10.5341,-64.17138c29.22517,4.94867 14.99256,-31.40544 34.39527,-45.6668c10.62164,-7.80711 42.98044,-1.44634 58.61295,-4.80608c24.7408,-5.31733 33.54996,-17.80968 45.2594,-18.87098c58.6417,-5.31505 57.82477,51.00585 63.55857,114.26776c5.73381,63.26193 -37.15648,118.85452 -95.79817,124.16957c-58.64167,5.31504 -110.82831,-41.66021 -116.56212,-104.92212z" fill="none" stroke="#000000" stroke-linecap="butt"/><path d="M44.89071,206.55257l-7.64888,-84.39121l209.77245,-19.01293l7.64888,84.39121z" fill="#888888" stroke="#000000" stroke-linecap="butt"/><path d="M49.52462,117.63123c12.37296,-1.12144 9.41202,21.72541 19.50886,37.86497c5.78833,9.25252 17.3154,17.44889 27.41575,21.41066c26.43138,10.36745 81.31929,-18.74131 81.90891,-12.23593c1.20797,13.32767 -28.64075,26.92599 -66.66899,30.37272c-15.35273,1.39151 -39.46282,7.64052 -51.1835,5.70134c-17.31107,-2.86412 -19.13963,-15.64533 -19.85992,-23.59236c-1.20797,-13.32767 -29.14935,-56.07465 8.87887,-59.52137z" fill="#474747" stroke="none" stroke-linecap="butt"/><path d="M44.89071,206.55257l-7.64888,-84.39121l209.77245,-19.01293l7.64888,84.39121z" fill="none" stroke="#000000" stroke-linecap="butt"/><g><path d="M247.50366,291.97086l-12.17977,-134.38125l35.06759,-3.17838l12.17977,134.38125z" fill="#707070" stroke="#000000" stroke-linecap="butt"/><path d="M241.74396,183.60572c7.17228,-0.65007 7.9671,50.50923 17.9768,77.97787c5.56823,15.28032 23.82157,12.46054 24.06105,15.10277c0.66999,7.39212 -7.83553,14.20472 -18.9976,15.2164c-11.16207,1.01168 -20.75386,-4.16068 -21.42385,-11.55277c-0.66999,-7.39209 -12.77849,-95.73261 -1.61641,-96.74429z" fill="#494949" stroke="none" stroke-linecap="butt"/><path d="M247.68875,292.3727l-12.17977,-134.38125l35.06763,-3.17839l12.17977,134.38125z" fill="none" stroke="#000000" stroke-linecap="butt"/><path d="M249.10647,269.30347l30.8573,-1.98711" fill="none" stroke="#000000" stroke-linecap="round"/><path d="M276.02924,238.79467l-31.05224,2.81445" fill="none" stroke="#000000" stroke-linecap="round"/><path d="M273.7243,213.36395l-30.49259,3.03362" fill="none" stroke="#000000" stroke-linecap="round"/><path d="M242.36146,194.88517l30.58964,-1.96285" fill="none" stroke="#000000" stroke-linecap="round"/></g><g><path d="M215.95395,299.56724l-12.17977,-134.38125l35.06763,-3.17839l12.17977,134.38125z" fill="#707070" stroke="#000000" stroke-linecap="butt"/><path d="M211.81078,287.94644c-0.66999,-7.39212 -12.77849,-95.73261 -1.61641,-96.74429c7.17228,-0.65007 7.9671,50.50923 17.9768,77.97787c5.56823,15.28029 23.82156,12.46049 24.06105,15.10276c0.66999,7.39209 -7.83554,14.20472 -18.99763,15.21641c-11.16207,1.01168 -20.75386,-4.16068 -21.42385,-11.55277z" fill="#494949" stroke="none" stroke-linecap="butt"/><path d="M216.13911,299.9691l-12.17978,-134.38129l35.06763,-3.17839l12.17978,134.38129z" fill="none" stroke="#000000" stroke-linecap="butt"/><path d="M248.41413,274.91278l-30.85733,1.98711" fill="none" stroke="#000000" stroke-linecap="round"/><path d="M213.42733,249.20552l31.05224,-2.81445" fill="none" stroke="#000000" stroke-linecap="round"/><path d="M211.68204,223.99395l30.49259,-3.03362" fill="none" stroke="#000000" stroke-linecap="round"/><path d="M241.40144,200.51874l-30.58964,1.96285" fill="none" stroke="#000000" stroke-linecap="round"/></g><g><path d="M179.46241,326.50503l-12.75571,-140.7356l35.06763,-3.17839l12.75571,140.7356z" fill="#707070" stroke="#000000" stroke-linecap="butt"/><path d="M173.23995,213.03302c7.17228,-0.65007 8.18488,52.91202 18.31521,81.71151c5.63533,16.02061 23.88371,13.14619 24.13452,15.91336c0.70167,7.74164 -7.77817,14.83761 -18.94024,15.84929c-11.16207,1.01168 -20.77954,-4.44402 -21.48121,-12.18565c-0.70167,-7.74164 -13.19036,-100.27684 -2.02829,-101.28853z" fill="#494949" stroke="none" stroke-linecap="butt"/><path d="M179.64937,326.92649l-12.75571,-140.7356l35.06763,-3.17839l12.75571,140.7356z" fill="none" stroke="#000000" stroke-linecap="butt"/><path d="M180.96952,302.78135l30.86077,-1.94913" fill="none" stroke="#000000" stroke-linecap="round"/><path d="M176.72073,273.77052l31.05224,-2.81445" fill="none" stroke="#000000" stroke-linecap="round"/><path d="M205.35907,244.32284l-30.49144,3.04628" fill="none" stroke="#000000" stroke-linecap="round"/><path d="M173.90558,224.8441l30.59308,-1.92487" fill="none" stroke="#000000" stroke-linecap="round"/></g><g><path d="M146.48761,318.37788l-12.17977,-134.38125l35.06763,-3.17839l12.17977,134.38125z" fill="#707070" stroke="#000000" stroke-linecap="butt"/><path d="M140.72799,210.01273c7.17228,-0.65007 7.9671,50.50926 17.97681,77.9779c5.56823,15.28029 23.82156,12.46049 24.06105,15.10276c0.66999,7.39209 -7.83553,14.20472 -18.9976,15.2164c-11.16207,1.01168 -20.75386,-4.16068 -21.42385,-11.55277c-0.66999,-7.39209 -12.77849,-95.73261 -1.61641,-96.74429z" fill="#494949" stroke="none" stroke-linecap="butt"/><path d="M146.67281,318.7797l-12.17977,-134.38125l35.06763,-3.17839l12.17977,134.38125z" fill="none" stroke="#000000" stroke-linecap="butt"/><path d="M178.94779,293.72337l-30.85733,1.98711" fill="none" stroke="#000000" stroke-linecap="round"/><path d="M175.01325,265.20167l-31.05224,2.81445" fill="none" stroke="#000000" stroke-linecap="round"/><path d="M172.70832,239.77096l-30.49259,3.03362" fill="none" stroke="#000000" stroke-linecap="round"/><path d="M141.3455,221.29218l30.58964,-1.96285" fill="none" stroke="#000000" stroke-linecap="round"/></g><g><path d="M109.4596,336.99654l-12.17977,-134.38125l35.06763,-3.17839l12.17977,134.38125z" fill="#707070" stroke="#000000" stroke-linecap="butt"/><path d="M103.69995,228.63142c7.17228,-0.65007 7.9671,50.50926 17.97681,77.9779c5.56823,15.28029 23.82156,12.46049 24.06105,15.10276c0.66999,7.39209 -7.83553,14.20472 -18.9976,15.2164c-11.16207,1.01168 -20.75386,-4.16068 -21.42385,-11.55277c-0.66999,-7.39209 -12.77849,-95.73261 -1.61641,-96.74429z" fill="#494949" stroke="none" stroke-linecap="butt"/><path d="M109.64475,337.39836l-12.17977,-134.38125l35.06763,-3.17839l12.17977,134.38125z" fill="none" stroke="#000000" stroke-linecap="butt"/><path d="M111.0624,314.32916l30.85733,-1.98711" fill="none" stroke="#000000" stroke-linecap="round"/><path d="M106.93298,286.6348l31.05224,-2.81445" fill="none" stroke="#000000" stroke-linecap="round"/><path d="M105.18769,261.42324l30.49259,-3.03362" fill="none" stroke="#000000" stroke-linecap="round"/><path d="M134.90709,237.948l-30.58964,1.96285" fill="none" stroke="#000000" stroke-linecap="round"/></g><g><path d="M73.41412,321.78982l-12.17977,-134.38125l35.06763,-3.17839l12.17977,134.38125z" fill="#707070" stroke="#000000" stroke-linecap="butt"/><path d="M67.65449,213.42468c7.17228,-0.65007 7.9671,50.50926 17.97681,77.9779c5.56823,15.28029 23.82156,12.46049 24.06105,15.10276c0.66999,7.39209 -7.83553,14.20472 -18.9976,15.2164c-11.16207,1.01168 -20.75386,-4.16068 -21.42385,-11.55277c-0.66999,-7.39209 -12.77849,-95.73261 -1.61641,-96.74429z" fill="#494949" stroke="none" stroke-linecap="butt"/><path d="M73.59926,322.19162l-12.17977,-134.38125l35.06763,-3.17839l12.17977,134.38125z" fill="none" stroke="#000000" stroke-linecap="butt"/><path d="M75.01697,299.12243l30.85733,-1.98711" fill="none" stroke="#000000" stroke-linecap="round"/><path d="M101.93973,268.6136l-31.05224,2.81445" fill="none" stroke="#000000" stroke-linecap="round"/><path d="M69.14223,246.21651l30.49259,-3.03362" fill="none" stroke="#000000" stroke-linecap="round"/><path d="M98.86163,222.74126l-30.58964,1.96285" fill="none" stroke="#000000" stroke-linecap="round"/></g><g><path d="M41.86447,329.38621l-12.17977,-134.38125l35.06763,-3.17839l12.17977,134.38125z" fill="#707070" stroke="#000000" stroke-linecap="butt"/><path d="M36.10481,221.02108c7.17228,-0.65007 7.9671,50.50926 17.97681,77.9779c5.56823,15.28029 23.82156,12.46049 24.06105,15.10276c0.66999,7.39209 -7.83553,14.20472 -18.9976,15.2164c-11.16207,1.01168 -20.75386,-4.16068 -21.42385,-11.55277c-0.66999,-7.39209 -12.77849,-95.73261 -1.61641,-96.74429z" fill="#494949" stroke="none" stroke-linecap="butt"/><path d="M42.04959,329.78802l-12.17977,-134.38125l35.06763,-3.17839l12.17977,134.38125z" fill="none" stroke="#000000" stroke-linecap="butt"/><path d="M74.32463,304.7317l-30.85733,1.98711" fill="none" stroke="#000000" stroke-linecap="round"/><path d="M70.39006,276.21l-31.05224,2.81445" fill="none" stroke="#000000" stroke-linecap="round"/><path d="M68.08514,250.77929l-30.49259,3.03362" fill="none" stroke="#000000" stroke-linecap="round"/><path d="M67.31196,230.33768l-30.58964,1.96285" fill="none" stroke="#000000" stroke-linecap="round"/></g><path d="M127.3153,182.07028c28.89779,-19.91909 14.35616,-140.83713 45.69635,-143.67768c72.41903,-6.56377 98.17269,37.90771 106.33089,127.91839c8.1582,90.01068 -52.69906,95.23139 -125.11809,101.79516c-72.41903,6.56377 -128.97617,11.985 -137.13437,-78.02566c-1.42735,-15.74813 -10.44157,-74.06478 9.97874,-58.56596c7.31625,5.55295 11.86872,46.62883 24.70194,66.44029c17.65621,27.25702 44.00945,34.47112 51.4912,36.89942c21.11141,6.85202 7.80346,-41.58298 24.05334,-52.78394z" fill="#5d9000" stroke="#000000" stroke-linecap="butt"/><path d="M120.3454,210.90834c-1.64496,-18.14904 5.84187,-26.33806 18.31245,-45.01637c4.69383,-7.03037 -6.55406,-37.27821 6.89474,-38.49716c49.17968,-4.45745 90.88312,12.17952 93.14722,37.15967c2.2641,24.98018 -35.76849,48.84407 -84.94818,53.30152c-49.17968,4.45745 -31.14214,18.0325 -33.40624,-6.94765z" fill="#517c00" stroke="none" stroke-linecap="butt"/><path d="M37.3983,246.85454c-1.05868,-11.68053 132.17079,23.44472 185.8378,-16.65666c15.5012,-11.58294 44.94621,-68.78762 29.27519,-102.2159c-10.90945,-23.27126 -6.15755,-49.16901 -25.3323,-63.43404c-23.62149,-17.57321 -69.85247,-20.94732 -60.78285,-21.76936c31.85245,-2.88698 76.8223,-8.0468 93.9908,36.00169c10.48301,26.89585 15.95911,68.88887 14.65427,102.3291c-0.82656,21.18267 -7.6058,40.93295 -7.24957,44.86322c1.83958,20.29637 -48.24445,41.42443 -111.8658,47.19081c-63.62137,5.76638 -116.68793,-6.01252 -118.52751,-26.30889z" fill="#517c00" stroke="none" stroke-linecap="butt"/><path d="M127.3153,182.07028c28.89776,-19.91909 14.35616,-140.83715 45.69638,-143.6777c72.419,-6.56377 98.17266,37.90771 106.33086,127.9184c8.1582,90.01068 -52.69906,95.23139 -125.11806,101.79516c-72.419,6.56377 -128.9762,11.98501 -137.1344,-78.02566c-1.42735,-15.74813 -10.44157,-74.06478 9.97874,-58.56599c7.31625,5.55295 11.86872,46.62883 24.70194,66.44029c17.65621,27.25702 44.00944,34.47108 51.4912,36.89942c21.11138,6.85205 7.80346,-41.58295 24.05334,-52.78393z" fill="none" stroke="#000000" stroke-linecap="butt"/><path d="M207.09179,93.42071c24.58988,-2.22873 47.10493,24.44171 50.28882,59.57005c3.18389,35.12836 -14.16909,65.41226 -38.75893,67.64098c-24.58988,2.22873 -47.10493,-24.44171 -50.28882,-59.57005c-3.18389,-35.12836 14.16909,-65.41226 38.75893,-67.64098z" fill="#69ff84" stroke="#000000" stroke-linecap="butt"/><path d="M206.89335,94.44499c24.58988,-2.22873 47.10493,24.44171 50.28882,59.57005c3.18389,35.12836 -14.16909,65.41226 -38.75893,67.64098c-24.58988,2.22873 -47.10493,-24.44171 -50.28882,-59.57005c-3.18389,-35.12836 14.16909,-65.41226 38.75893,-67.64098z" fill="none" stroke="#000000" stroke-linecap="butt"/><path d="M170.74482,143.69362c-1.99717,-22.03506 11.36563,-41.25588 29.84663,-42.93092c17.46072,-1.58257 55.70596,17.5151 59.07966,37.72038c0.19713,1.18066 5.49808,9.05069 5.60834,10.26716c1.99717,22.03506 -55.23172,8.24997 -73.71273,9.92502c-18.48101,1.67504 -18.82477,7.05342 -20.82194,-14.98163z" fill="#5d9000" stroke="#000000" stroke-linecap="butt"/><path d="M201.05578,99.71404c14.25806,-1.29229 -28.85192,23.96755 -15.13904,39.05431c9.45864,10.40636 78.80353,11.41105 79.04509,14.07619c0.59176,6.52895 -27.90145,2.02524 -51.9942,4.20891c-24.09277,2.18367 -44.10351,-1.33889 -44.69527,-7.86786c-0.59176,-6.52895 8.69065,-47.2879 32.7834,-49.47157z" fill="#517c00" stroke="none" stroke-linecap="butt"/><path d="M199.03598,100.08146c17.46074,-1.58257 55.70596,17.5151 59.07966,37.72038c0.19713,1.18066 5.49808,9.05069 5.60834,10.26716c1.99717,22.03506 -55.23168,8.25 -73.7127,9.92504c-18.48101,1.67504 -18.82478,7.0534 -20.82195,-14.98166c-1.99717,-22.03506 11.36563,-41.25588 29.84663,-42.93092z" fill="none" stroke="#000000" stroke-linecap="butt"/><path d="M89.56359,133.46633c18.30328,-1.65894 34.83844,15.7235 36.93224,38.82478c2.09381,23.10127 -11.04657,43.17339 -29.3499,44.83233c-18.30328,1.65894 -34.83844,-15.7235 -36.93224,-38.82478c-2.09381,-23.10127 11.04657,-43.17339 29.3499,-44.83233z" fill="#000000" stroke="#000000" stroke-linecap="butt"/></g></g></g></svg>