<svg version="1.1" xmlns="http://www.w3.org/2000/svg" xmlns:xlink="http://www.w3.org/1999/xlink" width="247.94565" height="341.60785" viewBox="0,0,247.94565,341.60785"><g transform="translate(-121.15319,-16.2142)"><g data-paper-data="{&quot;isPaintingLayer&quot;:true}" fill-rule="nonzero" stroke-linejoin="miter" stroke-miterlimit="10" stroke-dasharray="" stroke-dashoffset="0" style="mix-blend-mode: normal"><g><path d="M327.53498,183.96855l-73.51128,-16.59982l3.98067,-20.69662l73.51128,16.59982z" data-paper-data="{&quot;index&quot;:null}" fill="#1b1b1b" stroke="#000000" stroke-width="2.5" stroke-linecap="butt"/><g data-paper-data="{&quot;index&quot;:null}"><g stroke-linecap="butt"><path d="M324.55553,158.40342c6.66365,3.55178 16.02349,16.40461 12.77861,22.49247c-3.24488,6.08787 -70.73636,-9.55346 -77.39998,-13.10523c-4.27964,-2.28108 -9.26886,-3.82751 -9.77499,-8.03847c-0.28194,-2.34572 2.42388,-7.23762 3.58478,-9.41562c1.68403,-3.15949 22.62554,13.55841 39.72773,16.07126c15.85107,2.32902 27.87858,-9.71286 31.08388,-8.00441z" fill="#840000" stroke="#000000" stroke-width="0"/><path d="M322.1837,156.65725c10.54145,5.61868 15.81626,16.30995 12.43303,22.65739c-3.38324,6.34746 -63.49636,-5.85424 -74.03782,-11.47292c-6.95505,-3.70709 27.24072,4.94037 49.48587,7.07251c11.47092,1.09944 16.74355,-2.07751 17.89461,-4.23704c3.38324,-6.34746 -16.31715,-19.63862 -5.77569,-14.01994z" fill="#430000" stroke="none" stroke-width="0"/><path d="M324.03968,158.12843c6.66365,3.55178 16.02349,16.40461 12.77861,22.49247c-3.24488,6.08786 -70.73636,-9.55346 -77.39998,-13.10523c-3.60906,-1.92365 -11.9578,0.38569 -12.94594,-3.08724c-0.83633,-2.93935 5.2683,-11.57619 6.75573,-14.36685c1.77954,-3.33868 23.73421,13.6801 41.73974,16.46525c14.82635,2.29336 26.06267,-10.00231 29.07186,-8.3984z" fill="none" stroke="#000000" stroke-width="3"/></g><path d="M293.39405,165.73427l0.97975,9.22135" fill="none" stroke="#000000" stroke-width="3" stroke-linecap="round"/></g></g><path d="M200.55581,322.77922l19.9282,-68.46429l20.13656,5.86124l-19.9282,68.46429z" fill="#1b1b1b" stroke="#000000" stroke-width="2.5" stroke-linecap="butt"/><g data-paper-data="{&quot;index&quot;:null}"><g stroke-linecap="butt"><path d="M270.04538,226.38654c9.05289,1.87604 25.48505,76.70384 24.34319,85.64984c-1.14186,8.946 -18.69738,24.82654 -27.75028,22.9505c-9.05291,-1.87605 -16.19401,-86.85306 -15.05215,-95.79906c0.56671,-4.43994 -1.83583,-10.12532 1.4654,-12.44459c3.35038,-2.35381 12.43392,-1.30164 16.99382,-0.35668z" fill="#840000" stroke="#000000" stroke-width="0"/><path d="M280.94877,319.92453c9.43894,1.95605 16.24499,-25.37733 14.43863,-11.22532c-1.80635,14.15202 -19.50113,30.01898 -28.94006,28.06293c-9.43895,-1.95605 -16.41841,-82.64962 -14.61206,-96.80162c1.19179,-9.33722 7.10652,33.53171 15.24798,60.31071c4.19824,13.80884 10.65415,18.9878 13.86549,19.65329z" fill="#430000" stroke="none" stroke-width="0"/><path d="M270.13376,225.69395c9.05289,1.87604 25.48505,76.70384 24.34319,85.64984c-1.14186,8.946 -18.97066,26.19296 -28.02357,24.31691c-9.05291,-1.87605 -15.92072,-88.21947 -14.77887,-97.16547c0.60587,-4.74666 -2.49797,-11.53655 1.17213,-13.81702c3.2469,-2.01751 13.03758,0.13512 17.2871,1.01576z" fill="none" stroke="#000000" stroke-width="3"/></g><path d="M287.0272,267.48024l-31.95867,16.03198" fill="none" stroke="#000000" stroke-width="3" stroke-linecap="round"/></g><g><g stroke-linecap="butt"><path d="M227.82301,217.94013c4.55991,-0.94495 13.64345,-1.99711 16.99382,0.35668c3.30123,2.31927 0.89869,8.00464 1.46541,12.44459c0.60866,4.76861 -1.13616,31.14032 -4.26952,55.01356c-2.74487,20.91342 -6.55533,39.90948 -10.78264,40.7855c-3.22292,0.66789 1.51989,-29.85954 -0.81402,-48.72951c-0.15895,-1.28515 -3.11228,-3.97798 -3.48856,-5.04044c-2.2994,-6.49251 -5.37054,-7.53414 -7.01242,-9.01511c-5.22581,-4.71362 -15.89679,44.05331 -16.43527,39.83456c-1.14186,-8.946 15.2903,-83.7738 24.34319,-85.64984z" fill="#840000" stroke="#000000" stroke-width="0"/><path d="M233.69743,327.49326c3.21134,-0.66549 -7.11055,-21.85963 -2.91231,-35.66847c8.14146,-26.77899 14.0562,-69.64792 15.248,-60.31071c1.80635,14.15201 -5.17312,94.84558 -14.61206,96.80162c-9.43894,1.95605 3.75269,0.9603 1.94633,-13.19171c-1.80635,-14.15201 -9.1089,14.32529 0.33004,12.36926z" fill="#430000" stroke="none" stroke-width="0"/><path d="M227.73461,217.24757c4.24952,-0.88064 14.0402,-3.03327 17.2871,-1.01575c3.67009,2.28047 0.56627,9.07036 1.17213,13.81703c0.64454,5.04973 -1.26299,34.76009 -4.67502,60.01929c-2.63266,19.48952 -6.16101,36.32909 -10.10384,37.14618c-2.2808,0.47265 0.98236,-49.45796 -2.00534,-50.97439c-3.96987,-2.01495 -7.51957,-19.5704 -12.41339,-12.4089c-6.0418,8.84144 -13.13291,42.7637 -13.60483,39.06638c-1.14186,-8.946 15.2903,-83.7738 24.34319,-85.64984z" fill="none" stroke="#000000" stroke-width="3"/></g><path d="M210.84117,259.03385l31.95867,16.03198" fill="none" stroke="#000000" stroke-width="3" stroke-linecap="round"/></g><g><g stroke-linecap="butt"><path d="M214.6586,132.10717c3.65951,1.32791 10.63299,4.57907 12.16002,7.77922c1.50466,3.15319 -2.40065,6.2393 -3.68289,9.73025c-2.58353,7.03387 -44.3745,62.50987 -51.63982,59.87353c-7.26533,-2.63634 -9.67952,-18.61385 -7.09599,-25.64773c2.58353,-7.03387 42.99336,-54.37165 50.25866,-51.7353z" fill="#840000" stroke="#000000" stroke-width="0"/><path d="M171.11784,195.54557c2.57723,0.93519 9.22237,0.01207 17.5232,-8.20789c16.09748,-15.94071 36.71638,-44.60881 34.0199,-37.26737c-4.08697,11.12716 -43.0354,60.27815 -50.61054,57.52937c-7.57512,-2.74878 -11.18823,-15.50744 -7.10126,-26.63457c4.08697,-11.12716 -1.40644,11.83168 6.16868,14.58043z" fill="#430000" stroke="none" stroke-width="0"/><path d="M214.8586,131.56262c3.41042,1.23752 11.31497,3.99845 12.89534,6.9074c1.78633,3.28807 -3.04741,6.86994 -4.4182,10.60206c-2.58353,7.03387 -44.3745,62.50987 -51.63982,59.87353c-7.26533,-2.63634 -9.67952,-18.61385 -7.09599,-25.64773c2.58353,-7.03387 42.99336,-54.37165 50.25866,-51.7353z" fill="none" stroke="#000000" stroke-width="3"/></g><path d="M186.70863,154.58308l14.47458,22.7088" fill="none" stroke="#000000" stroke-width="3" stroke-linecap="round"/></g><g><path d="M148.69858,194.3277c4.89958,-7.97239 14.76108,-10.81576 22.02624,-6.3508c7.26517,4.46493 9.18285,14.54741 4.28327,22.51981c-4.89958,7.9724 -14.76109,10.81575 -22.02625,6.3508c-7.26518,-4.46494 -9.18285,-14.54741 -4.28327,-22.51981z" fill="#840000" stroke="#000000" stroke-width="0" stroke-linecap="butt"/><path d="M146.48558,200.45802c2.76589,-4.50055 7.83108,-18.28237 14.26044,-14.33108c1.07868,0.66292 -4.51361,4.29122 -7.04715,9.97059c-2.40319,5.38717 -1.75084,12.80626 -0.95903,14.58155c3.34898,7.50862 18.89019,1.05853 17.02849,4.08779c-2.7659,4.50053 -10.22012,4.94581 -16.64947,0.99453c-6.42935,-3.95128 -9.39918,-10.80284 -6.63328,-15.3034z" fill="#430000" stroke="none" stroke-width="0" stroke-linecap="butt"/><path d="M170.23461,188.71061c7.26518,4.46494 9.18285,14.54741 4.28327,22.51981c-4.89958,7.9724 -14.76107,10.81576 -22.02624,6.3508c-7.26518,-4.46494 -9.18285,-14.54741 -4.28327,-22.51981c4.89958,-7.9724 14.76107,-10.81576 22.02624,-6.3508z" fill="none" stroke="#000000" stroke-width="3.5" stroke-linecap="butt"/><g><path d="M168.84308,226.79003c3.7142,-6.04358 -5.66911,-15.67313 -2.71161,-13.85555c1.38228,0.8495 8.63035,-4.11675 11.94249,-0.33227c3.77452,4.31278 3.45743,17.55092 1.47916,20.76989c-3.71421,6.0436 -9.12267,9.46945 -12.08019,7.65186c-2.95751,-1.81759 -2.34408,-8.19033 1.37012,-14.23393z" fill="#840000" stroke="#000000" stroke-width="0" stroke-linecap="butt"/><path d="M167.12128,214.48914c-0.20625,-3.63421 3.90439,-3.43271 4.51781,-3.05571c1.67164,1.02733 4.4213,24.122 2.88029,26.62945c-1.541,2.50745 -4.14535,3.70731 -5.81698,2.67998c-1.67163,-1.02733 -2.37945,-3.78743 -0.83844,-6.29489c0.97551,-1.5873 -0.35519,-13.13085 -0.74267,-19.95883z" fill="#430000" stroke="none" stroke-width="0" stroke-linecap="butt"/><path d="M165.92513,212.6857c1.38228,0.8495 8.63035,-4.11675 11.94249,-0.33227c3.77452,4.31278 3.45743,17.55092 1.47916,20.76989c-3.7142,6.04358 -9.12269,9.46944 -12.08019,7.65186c-2.9575,-1.81758 -2.34407,-8.19034 1.37013,-14.23393c3.7142,-6.04358 -5.6691,-15.67313 -2.71161,-13.85555z" fill="none" stroke="#000000" stroke-width="3.5" stroke-linecap="butt"/><path d="M170.10552,225.19517l10.2589,0.53103" fill="none" stroke="#000000" stroke-width="3.5" stroke-linecap="round"/></g><g data-paper-data="{&quot;index&quot;:null}"><path d="M135.49464,211.84982c-1.63594,6.90247 -5.70037,11.84904 -9.07819,11.04846c-3.37781,-0.80057 -4.78986,-7.04509 -3.15392,-13.94757c0.87134,-3.67642 9.99235,-13.2762 15.71031,-13.6661c5.01752,-0.34213 6.64503,8.29207 8.22373,8.66624c3.37781,0.80057 -10.06602,0.99649 -11.70195,7.89894z" fill="#840000" stroke="#000000" stroke-width="0" stroke-linecap="butt"/><path d="M130.7819,217.96481c-0.67874,2.8638 -3.12858,4.31895 -5.03777,3.86646c-1.90919,-0.45249 -2.90668,-3.14087 -2.22793,-6.00466c0.67874,-2.8638 18.93008,-17.2795 20.83928,-16.82701c0.7006,0.16605 3.75422,2.92526 1.04254,5.3536c-5.09471,4.56239 -14.18645,11.79872 -14.61612,13.6116z" fill="#430000" stroke="none" stroke-width="0" stroke-linecap="butt"/><path d="M135.8164,211.81928c-1.63593,6.90247 -5.70037,11.84904 -9.07818,11.04847c-3.37779,-0.80056 -4.78986,-7.0451 -3.15392,-13.94757c0.87134,-3.67642 9.99235,-13.2762 15.71031,-13.6661c5.01752,-0.34213 6.64503,8.29207 8.22373,8.66624c3.37779,0.80056 -10.06602,0.99649 -11.70195,7.89894z" fill="none" stroke="#000000" stroke-width="3.5" stroke-linecap="butt"/><path d="M135.72641,209.82904l-7.64077,-6.86627" fill="none" stroke="#000000" stroke-width="3.5" stroke-linecap="round"/></g><g data-paper-data="{&quot;index&quot;:null}"><path d="M147.62864,222.14355c-0.20958,7.0906 -3.19234,12.75551 -6.66221,12.65294c-3.46986,-0.10256 -6.11285,-5.93374 -5.90328,-13.02434c0.11162,-3.7766 7.10808,-15.01932 12.62977,-16.55491c4.84529,-1.34747 8.18146,6.78075 9.80319,6.82869c3.46986,0.10256 -9.65792,3.00701 -9.8675,10.0976z" fill="#840000" stroke="#000000" stroke-width="0" stroke-linecap="butt"/><path d="M144.24666,229.08367c-0.08694,2.94184 -2.19279,4.86137 -4.15401,4.80343c-1.96122,-0.05797 -3.48062,-2.48978 -3.39368,-5.43162c0.08694,-2.94184 15.05423,-20.74365 17.01546,-20.68568c0.71971,0.02127 4.26726,2.1076 2.10131,5.03313c-4.06938,5.49652 -11.51404,14.41847 -11.56908,16.28075z" fill="#430000" stroke="none" stroke-width="0" stroke-linecap="butt"/><path d="M147.93764,222.04869c-0.20957,7.09058 -3.19234,12.75551 -6.6622,12.65294c-3.46985,-0.10256 -6.11285,-5.93375 -5.90328,-13.02434c0.11162,-3.7766 7.10808,-15.01932 12.62977,-16.55491c4.84529,-1.34747 8.18146,6.78075 9.80319,6.82869c3.46985,0.10256 -9.65792,3.00701 -9.8675,10.0976z" fill="none" stroke="#000000" stroke-width="3.5" stroke-linecap="butt"/><path d="M147.4479,220.11757l-8.86904,-5.18336" fill="none" stroke="#000000" stroke-width="3.5" stroke-linecap="round"/></g><g data-paper-data="{&quot;index&quot;:null}"><path d="M158.42411,228.27503c2.47125,6.64931 1.83678,13.01999 -1.41714,14.22933c-3.25392,1.20933 -7.89508,-3.20061 -10.36632,-9.84992c-1.31624,-3.54157 0.94075,-16.58975 5.4802,-20.08839c3.98338,-3.07006 10.13036,3.20788 11.65118,2.64267c3.25392,-1.20933 -7.81917,6.41702 -5.34791,13.06632z" fill="#840000" stroke="#000000" stroke-width="0" stroke-linecap="butt"/><path d="M157.89906,235.97749c1.02531,2.75876 -0.2045,5.32912 -2.04367,6.01266c-1.83917,0.68354 -4.16129,-0.99875 -5.18659,-3.7575c-1.02531,-2.75876 6.15222,-24.8813 7.9914,-25.56484c0.67492,-0.25083 4.74654,0.34889 3.83921,3.87406c-1.70468,6.6231 -5.24941,17.68923 -4.60037,19.43561z" fill="#430000" stroke="none" stroke-width="0" stroke-linecap="butt"/><path d="M158.67476,228.071c2.47126,6.64929 1.83678,13.01999 -1.41712,14.22932c-3.25391,1.20934 -7.89507,-3.20063 -10.36632,-9.84992c-1.31624,-3.54157 0.94075,-16.58975 5.4802,-20.08839c3.98338,-3.07006 10.13036,3.20788 11.65118,2.64267c3.25391,-1.20934 -7.81917,6.41702 -5.34791,13.06632z" fill="none" stroke="#000000" stroke-width="3.5" stroke-linecap="butt"/><path d="M157.49501,226.4656l-10.16703,-1.46918" fill="none" stroke="#000000" stroke-width="3.5" stroke-linecap="round"/></g></g><g data-paper-data="{&quot;index&quot;:null}"><path d="M347.45671,178.67756c2.41251,9.04128 -2.31098,18.15294 -10.55022,20.35144c-8.23923,2.19851 -16.8742,-3.34867 -19.28671,-12.38996c-2.41251,-9.04128 2.31099,-18.15294 10.55022,-20.35144c8.23923,-2.19851 16.87419,3.34868 19.2867,12.38996z" fill="#840000" stroke="#000000" stroke-width="0" stroke-linecap="butt"/><path d="M347.82232,185.18483c1.36191,5.10395 -3.44487,10.81873 -10.73624,12.76431c-7.29136,1.94558 -14.30621,-0.6148 -15.66812,-5.71874c-0.91669,-3.43541 12.12792,7.19338 17.48607,0.95757c1.26685,-1.47436 4.01557,-8.39627 3.25499,-14.24593c-0.80183,-6.16694 -5.12154,-11.24418 -3.89824,-11.57059c7.29136,-1.94558 8.19964,12.70944 9.56154,17.8134z" fill="#430000" stroke="none" stroke-width="0" stroke-linecap="butt"/><path d="M347.71639,179.52095c2.41251,9.04128 -2.31098,18.15294 -10.55022,20.35144c-8.23924,2.19851 -16.87419,-3.34867 -19.2867,-12.38996c-2.41251,-9.04128 2.31098,-18.15294 10.55022,-20.35144c8.23924,-2.19851 16.87419,3.34867 19.2867,12.38996z" fill="none" stroke="#000000" stroke-width="3.5" stroke-linecap="butt"/><g><path d="M318.86295,204.0153c1.82884,6.85389 0.59244,13.13556 -2.7616,14.03052c-3.35403,0.89496 -7.55557,-3.93568 -9.38441,-10.78957c-0.97408,-3.65053 2.51145,-16.42551 7.36254,-19.4774c4.25684,-2.67803 9.78007,4.15512 11.34767,3.73684c3.35403,-0.89496 -8.39306,5.64572 -6.56422,12.4996z" fill="#840000" stroke="#000000" stroke-width="0" stroke-linecap="butt"/><path d="M317.60907,211.63311c0.75878,2.84363 -0.70949,5.28563 -2.60524,5.7915c-1.89575,0.50585 -4.04767,-1.38929 -4.80645,-4.23292c-0.75878,-2.84363 8.48655,-24.18486 10.38231,-24.69071c0.69568,-0.18563 4.69198,0.79793 3.45408,4.22104c-2.32575,6.43136 -6.90504,17.11098 -6.42471,18.9111z" fill="#430000" stroke="none" stroke-width="0" stroke-linecap="butt"/><path d="M319.13188,203.83597c1.82884,6.85387 0.59244,13.13556 -2.76159,14.03052c-3.35402,0.89496 -7.55557,-3.93569 -9.38441,-10.78957c-0.97408,-3.65053 2.51145,-16.42551 7.36254,-19.4774c4.25684,-2.67803 9.78007,4.15512 11.34767,3.73684c3.35402,-0.89496 -8.39306,5.64572 -6.56422,12.4996z" fill="none" stroke="#000000" stroke-width="3.5" stroke-linecap="butt"/><path d="M318.10985,202.12583l-9.98164,-2.42775" fill="none" stroke="#000000" stroke-width="3.5" stroke-linecap="round"/></g><g data-paper-data="{&quot;index&quot;:null}"><path d="M355.09251,199.24605c0.40832,-7.08192 -12.41689,-11.11786 -8.95127,-10.91804c1.61975,0.09339 5.65065,-7.71367 10.36029,-5.94962c5.36709,2.0103 11.35855,13.81926 11.14109,17.59124c-0.40832,7.08192 -3.54876,12.66097 -7.01437,12.46116c-3.46563,-0.19981 -5.94406,-6.10282 -5.53576,-13.18474z" fill="#840000" stroke="#000000" stroke-width="0" stroke-linecap="butt"/><path d="M347.74938,189.22836c-1.90312,-3.10293 1.81254,-4.8726 2.53136,-4.83116c1.95884,0.11294 15.32005,19.14979 15.15065,22.08804c-0.16941,2.93825 -1.89469,5.22861 -3.85351,5.11567c-1.95883,-0.11294 -3.88963,-2.20846 -3.72022,-5.1467c0.10724,-1.86001 -6.5327,-11.39602 -10.10828,-17.22583z" fill="#430000" stroke="none" stroke-width="0" stroke-linecap="butt"/><path d="M345.8417,188.20664c1.61976,0.09339 5.65065,-7.71367 10.3603,-5.94962c5.36709,2.0103 11.35855,13.81926 11.14109,17.59126c-0.40832,7.08192 -3.54876,12.66096 -7.01438,12.46115c-3.46561,-0.19981 -5.94405,-6.10283 -5.53573,-13.18474c0.40831,-7.08192 -12.41689,-11.11786 -8.95127,-10.91804z" fill="none" stroke="#000000" stroke-width="3.5" stroke-linecap="butt"/><path d="M364.73538,192.85168l-9.2865,4.39183" fill="none" stroke="#000000" stroke-width="3.5" stroke-linecap="round"/></g><g data-paper-data="{&quot;index&quot;:null}"><path d="M340.51974,205.63575c1.82884,-6.85387 -9.91825,-13.39456 -6.56422,-12.4996c1.5676,0.41828 7.09083,-6.41488 11.34767,-3.73684c4.85109,3.05188 8.33662,15.82686 7.36254,19.4774c-1.82884,6.85389 -6.03037,11.68453 -9.38441,10.78957c-3.35403,-0.89496 -4.59044,-7.17664 -2.7616,-14.03052z" fill="#840000" stroke="#000000" stroke-width="0" stroke-linecap="butt"/><path d="M335.3489,194.34248c-1.23789,-3.4231 2.75841,-4.40668 3.45408,-4.22105c1.89576,0.50585 11.14109,21.84708 10.38231,24.69071c-0.75878,2.84363 -2.9107,4.73877 -4.80645,4.23292c-1.89575,-0.50585 -3.36402,-2.94787 -2.60524,-5.7915c0.48033,-1.80012 -4.09896,-12.47974 -6.4247,-18.9111z" fill="#430000" stroke="none" stroke-width="0" stroke-linecap="butt"/><path d="M333.68661,192.95685c1.5676,0.41828 7.09083,-6.41488 11.34767,-3.73684c4.85109,3.05188 8.33662,15.82686 7.36254,19.4774c-1.82884,6.85387 -6.03039,11.68453 -9.38441,10.78957c-3.35402,-0.89496 -4.59043,-7.17665 -2.76159,-14.03052c1.82884,-6.85387 -9.91824,-13.39456 -6.56422,-12.4996z" fill="none" stroke="#000000" stroke-width="3.5" stroke-linecap="butt"/><path d="M341.27281,203.74628l9.98164,-2.42775" fill="none" stroke="#000000" stroke-width="3.5" stroke-linecap="round"/></g><g data-paper-data="{&quot;index&quot;:null}"><path d="M328.42089,208.42058c4.27118,-5.66368 -4.15558,-16.14054 -1.38397,-14.05039c1.29539,0.97688 8.9822,-3.27882 11.9201,0.80299c3.34804,4.65164 1.77561,17.79989 -0.49931,20.81649c-4.27118,5.6637 -9.98046,8.56061 -12.75207,6.47047c-2.77161,-2.09015 -1.55594,-8.37588 2.71523,-14.03957z" fill="#840000" stroke="#000000" stroke-width="0" stroke-linecap="butt"/><path d="M327.87465,196.0118c0.1397,-3.63738 4.21263,-3.04653 4.78751,-2.613c1.56656,1.18139 2.11129,24.43279 0.33921,26.78261c-1.77208,2.34983 -4.47858,3.29703 -6.04513,2.11564c-1.56655,-1.18139 -2.00915,-3.99623 -0.23706,-6.34606c1.12179,-1.48752 0.89301,-13.10526 1.15548,-19.93919z" fill="#430000" stroke="none" stroke-width="0" stroke-linecap="butt"/><path d="M326.85514,194.10293c1.29539,0.97688 8.98219,-3.27882 11.9201,0.80299c3.34803,4.65164 1.77561,17.79989 -0.49931,20.81649c-4.27118,5.66368 -9.98047,8.56061 -12.75207,6.47047c-2.77159,-2.09015 -1.55593,-8.37589 2.71525,-14.03957c4.27118,-5.66368 -4.15557,-16.14053 -1.38397,-14.05039z" fill="none" stroke="#000000" stroke-width="3.5" stroke-linecap="butt"/><path d="M339.99119,208.45535l-10.16216,-1.50257" fill="none" stroke="#000000" stroke-width="3.5" stroke-linecap="round"/></g></g><g stroke-linecap="butt"><path d="M230.5814,216.34909l5.65658,-56.1502l26.17814,2.6372l-5.65658,56.1502z" fill="#1b1b1b" stroke="#000000" stroke-width="2.5"/><g><path d="M203.91295,213.23824l1.94923,-19.34905l63.73806,6.42097l-1.94923,19.34905z" fill="#1b1b1b" stroke="#000000" stroke-width="2.5"/><g><path d="M205.98968,198.0725c1.5629,-15.5142 7.55031,-52.15909 19.15368,-67.04211c8.24259,-10.57234 21.19644,-2.70728 28.99242,-1.9219c10.0068,1.00809 20.49115,-5.71007 23.98736,11.26191c3.06195,14.8639 4.47578,50.09607 3.22772,62.48499c-2.67312,26.53489 -18.12465,24.23538 -36.8953,22.34443c-13.04346,-1.314 4.35984,-49.69853 -2.54852,-58.3417c-3.03336,-3.79507 -36.73294,39.31054 -35.91732,31.21439z" fill="#840000" stroke="#000000" stroke-width="0"/><path d="M243.74054,164.6084c0.33928,-3.36783 -3.68716,-3.90254 -10.18881,2.79449c-4.78847,4.93235 -19.91866,25.93662 -21.47951,25.10778c-5.91156,-3.13921 12.38127,-42.67979 18.2694,-51.25579c5.9013,-8.59516 14.38059,-7.18598 19.95158,-6.62474c6.6051,0.6654 14.41936,-0.06991 18.76117,10.91923c5.24875,13.28464 6.267,39.61224 4.90752,53.10706c-2.48403,24.65784 -18.07425,26.73735 -32.66417,25.26757c-2.72229,-0.27425 2.44963,-3.94784 1.50432,-4.17062c-4.121,-0.9712 -0.80438,0.19838 1.21616,-19.85861z" fill="#7d3c3c" stroke="#000000" stroke-width="0"/><path d="M209.4306,195.20588c0.36013,-3.57489 4.22396,-19.26763 11.27348,-33.2688c4.07633,-8.09604 7.03213,-17.4151 11.90826,-22.5604c4.0887,-4.31441 10.15803,-5.17559 13.24997,-4.95544c0.44304,0.03154 11.27969,-4.40579 11.72725,-4.36071c13.7378,1.38394 15.46919,19.12225 14.70118,26.74597c-0.76802,7.62371 -17.02232,-8.47977 -30.76011,-9.86371c-9.57475,-0.96456 -13.38356,8.28453 -16.09913,12.91421c-1.1807,2.01295 -12.29807,25.98344 -12.06533,23.67318z" fill="#5c2c2c" stroke="none" stroke-width="0"/><path d="M207.56647,201.63626c0.67043,-6.65505 4.62623,-71.93935 24.76201,-69.91086c3.72132,0.37488 -5.18233,12.28104 -10.64823,27.87416c-2.64396,7.54268 -14.74231,33.07992 -10.65203,32.2395c2.93233,-0.60251 16.34283,-15.27039 21.08625,-20.44727c5.32323,-5.80968 8.92434,-13.39006 10.37599,-10.58318c3.53344,6.8322 -1.42867,32.58645 -0.11894,46.92478c0.38705,4.23721 3.40066,5.93799 4.74886,7.78003c9.45935,12.92432 32.38738,-0.63863 32.14402,1.77706c-0.67043,6.65505 -17.53721,10.40562 -37.67302,8.37715c-7.95196,-0.80108 -2.02705,-7.22101 -1.45342,-16.99635c0.73821,-12.5798 2.49897,-31.69561 2.60737,-39.94789c0.02066,-1.57293 -2.05568,-2.9564 -1.99073,-3.60105z" fill="#430000" stroke="none" stroke-width="0"/><path d="M242.66567,208.87638c0.20811,-2.06574 3.06392,-4.32506 0.78185,-4.43679c-2.55439,-0.12506 -9.90977,2.07238 -1.89666,2.87961c15.17196,1.52842 30.86807,-6.28292 30.42704,-1.90494c-0.2131,2.11538 -2.27091,9.91665 -7.99974,13.9072c-6.12749,4.26824 -11.59244,4.72096 -19.43351,3.93105c-7.20669,-0.726 -4.56744,-6.86101 -5.04186,-10.64715c-0.08159,-0.65114 4.47533,-0.19839 3.80567,-0.74503c-3.634,-2.96641 -2.68268,0.96098 -2.48715,-0.97983z" fill="#5c2c2c" stroke="none" stroke-width="0"/><path d="M230.50947,141.0331c5.90128,-8.59517 14.38058,-7.18598 19.95156,-6.62475c6.60511,0.6654 14.41937,-0.06991 18.76118,10.91924c5.24874,13.28464 6.26698,39.61225 4.90752,53.10708c-1.06348,10.55659 -4.52917,16.97483 -9.29016,20.74791c-6.3596,5.03996 -15.03038,5.3602 -23.37401,4.51966c-3.48112,-0.35069 -2.74842,-5.32698 -2.34342,-12.03881c0.90043,-14.92247 6.31564,-39.31714 3.6423,-46.85444c-0.7205,-2.03139 -15.57907,10.26707 -24.00008,21.1824c-5.18073,6.71527 -10.96882,13.12624 -10.75033,10.95742c1.53553,-15.24252 12.94177,-42.00091 22.49543,-55.91573z" fill="none" stroke="#000000" stroke-width="3"/><path d="M225.95397,130.98138c8.2426,-10.57235 21.19642,-2.70729 28.99243,-1.92191c10.0068,1.00809 20.49115,-5.71008 23.98736,11.26191c3.06195,14.8639 4.47576,50.09608 3.22769,62.485c-1.07933,10.71398 -4.2419,16.7271 -8.8651,19.9643c-0.62142,0.43514 -1.26927,0.82012 -1.94196,1.15962c-6.71737,3.39014 -15.91535,2.24531 -26.08826,1.22049c-7.73914,-0.77964 1.86929,-49.38304 -1.59089,-61.67874c-2.22576,-7.9092 -17.77016,19.75121 -20.55478,16.61925c-3.386,-3.80837 -17.18222,26.48939 -16.32017,17.93218c1.5629,-15.51419 7.55031,-52.15908 19.15368,-67.0421z" fill="none" stroke="#000000" stroke-width="3"/></g></g><g><path d="M279.86832,158.84574c-0.34472,3.42181 -2.43451,22.4834 -10.11307,21.70986c-7.67856,-0.77355 -18.03814,-21.0893 -17.69342,-24.51111c0.34472,-3.42181 14.28544,-18.65433 21.96398,-17.8808c7.67856,0.77355 6.18724,17.26021 5.84251,20.68203z" data-paper-data="{&quot;index&quot;:null}" fill="#410000" stroke="#000000" stroke-width="0"/><path d="M230.95876,134.01523c7.67856,0.77355 18.30096,18.48056 17.95624,21.90236c-0.34472,3.42181 -14.54824,21.26307 -22.22681,20.48952c-7.67856,-0.77355 -5.92441,-19.86894 -5.57972,-23.29075c0.34472,-3.4218 2.17171,-19.87467 9.85028,-19.10114z" fill="#410000" stroke="#000000" stroke-width="0"/><path d="M279.6905,159.01791c-0.34472,3.42181 -2.43451,22.4834 -10.11307,21.70986c-7.67855,-0.77353 -18.03814,-21.08929 -17.69342,-24.51111c0.34472,-3.42181 14.28544,-18.65433 21.96398,-17.8808c7.67856,0.77355 6.18724,17.26021 5.84251,20.68203z" data-paper-data="{&quot;index&quot;:null}" fill="none" stroke="#000000" stroke-width="3.5"/><path d="M231.09867,134.21939c7.67855,0.77353 18.30095,18.48055 17.95623,21.90236c-0.34472,3.42181 -14.54824,21.26307 -22.2268,20.48953c-7.67856,-0.77355 -5.92441,-19.86894 -5.57972,-23.29075c0.34472,-3.4218 2.17172,-19.87467 9.85028,-19.10114z" fill="none" stroke="#000000" stroke-width="3.5"/><path d="M228.45036,134.282c1.00773,0.10152 -3.04415,9.42499 -3.89793,14.78984c-1.48324,9.32002 -0.55303,17.26417 1.29951,20.13462c4.3216,6.69627 19.39087,-11.13192 19.11475,-8.39085c-0.46264,4.59243 -11.02722,15.19446 -17.86949,14.50516c-6.84229,-0.68929 -7.37122,-12.40889 -6.90858,-17.00131c0.46264,-4.59244 1.41949,-24.72677 8.26175,-24.03747z" fill="#170000" stroke="none" stroke-width="0"/><path d="M279.73196,164.12779c-0.46264,4.59244 -3.31849,15.97104 -10.16075,15.28174c-6.84227,-0.6893 -15.07993,-13.18544 -14.61731,-17.77789c0.27614,-2.74107 11.48669,17.73454 17.05706,12.0348c2.38782,-2.44329 4.88386,-10.04228 5.28937,-19.47086c0.23341,-5.42735 -1.8774,-15.37165 -0.86971,-15.27015c6.84227,0.6893 3.76397,20.60992 3.30133,25.20235z" data-paper-data="{&quot;index&quot;:null}" fill="#170000" stroke="none" stroke-width="0"/><g><path d="M252.43855,146.39051c4.94163,0.49782 8.45492,5.79224 7.84714,11.82545c-0.60779,6.03319 -5.10648,10.5205 -10.04812,10.02268c-4.94163,-0.49782 -8.45492,-5.79224 -7.84714,-11.82545c0.60779,-6.03318 5.10649,-10.5205 10.04812,-10.02268z" fill="#410000" stroke="#000000" stroke-width="0"/><path d="M252.30314,146.56697c4.94163,0.49782 8.45492,5.79224 7.84714,11.82545c-0.60779,6.03319 -5.10649,10.5205 -10.04812,10.02268c-4.94163,-0.49782 -8.45492,-5.79224 -7.84714,-11.82545c0.60779,-6.03319 5.10649,-10.5205 10.04812,-10.02268z" fill="none" stroke="#000000" stroke-width="3.5"/><path d="M242.39423,158.74477c0.45356,-4.50241 1.95465,-12.97912 6.82026,-12.48895c1.52507,0.15364 -3.39072,8.72042 -3.49478,12.79272c-0.07674,3.00337 4.17771,5.4341 5.1123,6.82935c1.84117,2.74872 9.38873,-7.40846 9.18217,-5.3581c-0.45357,4.50239 -4.76563,7.75492 -9.63124,7.26477c-4.86562,-0.49016 -8.44228,-4.53742 -7.98871,-9.0398z" fill="#170000" stroke="none" stroke-width="0"/></g></g></g><g><path d="M259.72204,104.59063c14.417,2.83062 24.81536,11.69006 23.22538,19.78808c-1.58997,8.09803 -14.56617,12.36809 -28.98316,9.53746c-14.417,-2.83062 -24.81536,-11.69006 -23.22538,-19.78808c1.58997,-8.09803 14.56617,-12.36809 28.98316,-9.53746z" fill="#000000" stroke="#000000" stroke-width="2.5" stroke-linecap="butt"/><path d="M229.21217,112.70547c4.53598,-0.70156 18.672,9.20288 27.93089,11.38217c10.34517,2.43497 15.89809,-2.72946 21.4625,-1.63694c13.43755,2.63833 2.50847,4.40707 1.59558,9.05663c-0.91289,4.64957 -12.54624,6.28004 -25.98379,3.6417c-2.25922,-0.44358 -4.4256,-0.97957 -6.46216,-1.58646c-10.07667,-3.00288 -16.97516,-7.74161 -16.21573,-11.60947c0.19653,-1.00103 -4.9623,-8.84006 -2.32727,-9.24764z" fill="#ffffff" stroke="#000000" stroke-width="0" stroke-linecap="butt"/><path d="M241.83107,124.46468c8.14503,3.77346 18.67279,5.89077 25.1294,5.77349c8.58268,-0.15592 10.05977,-4.91022 14.8334,-3.97295c11.56563,2.2708 -4.16548,7.40765 -4.6904,10.08115c-0.52492,2.67352 -10.32625,2.99997 -21.89188,0.72919c-5.58737,-1.09703 -13.04266,-4.15527 -18.10201,-8.46591c-5.4133,-4.61221 -8.23718,-10.49834 -7.96586,-11.88028c0.14526,-0.73994 5.42731,4.37186 12.68735,7.73533z" fill="#e2e2e2" stroke="none" stroke-width="0" stroke-linecap="butt"/><path d="M230.03014,113.44897c4.53598,-0.70156 18.672,9.20288 27.93089,11.38217c10.34517,2.43497 15.89809,-2.72946 21.4625,-1.63694c13.43755,2.63833 2.50847,4.40707 1.59558,9.05663c-0.91289,4.64957 -12.54624,6.28004 -25.98379,3.6417c-2.25922,-0.44358 -4.4256,-0.97957 -6.46216,-1.58646c-10.07667,-3.00288 -16.97516,-7.74161 -16.21573,-11.60947c0.19653,-1.00103 -4.9623,-8.84006 -2.32727,-9.24764z" fill="none" stroke="#000000" stroke-width="2" stroke-linecap="butt"/><path d="M225.68806,113.47324c0.74618,-3.80049 3.65016,-6.42999 6.48624,-5.87318c0.71073,0.13955 -2.28873,2.36425 -1.70369,4.43288c0.45071,1.5937 -0.7045,3.16191 -0.35267,5.04371c0.42294,2.26225 2.39794,4.88725 3.63586,7.35169c1.72925,3.44255 10.60934,6.79218 10.36741,8.02439c-0.15507,0.78982 28.00608,2.2245 27.0013,3.8125c-0.08808,0.1392 6.02168,-2.2802 9.23495,-6.46948c2.00089,-2.60865 1.3851,-7.84658 2.01375,-7.6436c1.1195,0.36145 5.21019,-6.84137 7.40663,-7.24584c1.44067,-0.26531 1.56989,5.53366 1.24935,7.32011c-0.32312,1.80073 -8.30209,8.83288 -9.65882,11.57194c-1.86844,3.77209 -0.928,6.6242 -1.9208,6.71868c-8.75929,0.83367 -38.45696,-1.25081 -39.67938,-2.22203c-4.03087,-3.20258 -8.77841,-16.63419 -10.29608,-16.93216c-2.83607,-0.55684 -4.53023,-4.08913 -3.78406,-7.88963z" fill="#840000" stroke="#000000" stroke-width="0" stroke-linecap="butt"/><path d="M226.86904,106.24336c0.15049,-0.76644 2.64365,11.21309 7.84782,18.09674c4.26714,5.64418 10.18218,11.5912 12.79474,12.10415c5.79884,1.13854 32.46758,1.86585 32.19371,3.26073c-0.27387,1.39488 -25.78568,0.91187 -31.5845,-0.22667c-1.55482,-0.30527 -4.53281,0.17703 -8.2022,-3.24472c-2.97664,-2.77573 -5.19376,-7.64184 -7.90225,-11.82062c-1.44308,-2.22642 -3.83257,-4.1031 -4.76319,-5.70708c-3.20006,-5.51551 -2.22116,-12.2459 -2.11202,-12.80175z" fill="#430000" stroke="none" stroke-width="0" stroke-linecap="butt"/><path d="M225.97339,112.97196c0.30378,-1.54716 -2.7747,-8.83937 -1.90589,-9.86245c1.26538,-1.49003 6.59635,3.90255 8.27785,4.2327c0.71073,0.13955 -2.28873,2.36425 -1.70369,4.43288c0.46202,1.63361 -1.35387,3.27831 -0.82239,5.66968c0.61034,2.74617 3.60785,6.28483 4.81998,8.69794c1.72926,3.44257 7.21157,4.45967 6.96966,5.69189c-0.08137,0.41448 8.37425,1.10577 16.28401,1.8987c7.16288,0.71804 13.87813,1.51945 13.40063,2.27409c-0.08807,0.1392 6.02168,-2.2802 9.23493,-6.46946c2.00091,-2.60863 1.3851,-7.84658 2.01375,-7.6436c0.98798,0.31899 4.62666,-7.82578 7.02902,-8.46392c2.10521,-0.55919 3.09747,6.22547 2.71953,8.33187c-0.32312,1.80073 -9.39465,9.03919 -10.7514,11.77825c-1.86844,3.77209 -0.928,6.6242 -1.9208,6.71868c-8.75929,0.83366 -38.45696,-1.25081 -39.67936,-2.22203c-4.03087,-3.20259 -8.77841,-16.63419 -10.29608,-16.93216c-2.83607,-0.55684 -4.53023,-4.08913 -3.78406,-7.88963z" fill="none" stroke="#000000" stroke-width="2.5" stroke-linecap="butt"/><path d="M238.858,115.90104l-2.0394,10.83347" fill="none" stroke="#000000" stroke-width="2" stroke-linecap="round"/><path d="M253.23298,123.91646l-1.59862,8.58846" fill="none" stroke="#000000" stroke-width="2" stroke-linecap="round"/><path d="M266.32758,134.43596l1.55432,-8.80912" fill="none" stroke="#000000" stroke-width="2" stroke-linecap="round"/><path d="M276.5793,132.20958l0.75908,-8.32936" fill="none" stroke="#000000" stroke-width="2" stroke-linecap="round"/><path d="M241.99417,35.11182c5.79988,1.13875 4.13489,7.257 6.71299,11.74948c1.88858,3.29097 8.99522,4.48632 8.23775,8.34434c-1.79152,9.12457 -11.38981,14.92211 -21.43839,12.94918c-10.04856,-1.97293 -16.74223,-10.96924 -14.95071,-20.09381c1.79152,-9.12458 11.3898,-14.92211 21.43838,-12.94917z" fill="#840000" stroke="#000000" stroke-width="0" stroke-linecap="butt"/><path d="M227.21509,45.25813c-3.41223,7.13597 -0.68209,16.22657 3.71645,17.09018c8.94405,1.75606 25.87755,-9.57438 24.46413,-2.37552c-1.41342,7.19888 -9.80982,11.61113 -18.75385,9.85505c-6.05489,-1.18883 -15.2601,-8.47386 -17.00647,-17.06037c-0.46778,-2.2999 3.83294,-12.22615 9.49125,-15.88818c4.42162,-2.86165 10.43315,0.32768 10.63342,-0.69236c0.71831,-3.65857 -9.01871,1.69684 -12.54493,9.07122z" fill="#430000" stroke="none" stroke-width="0" stroke-linecap="butt"/><path d="M242.04769,35.44667c5.70716,1.12055 3.98492,7.1464 6.58775,11.53483c1.97996,3.33826 9.137,4.61678 8.36297,8.55899c-1.79152,9.12458 -11.38981,14.92211 -21.43839,12.94918c-10.04858,-1.97294 -16.74224,-10.96925 -14.95073,-20.09381c1.79152,-9.12458 11.38981,-14.92211 21.43839,-12.94918z" fill="none" stroke="#000000" stroke-width="3" stroke-linecap="butt"/><path d="M226.64171,110.54238l1.23972,-6.31412c0,0 41.05817,-2.93029 51.53218,-0.87383c9.55268,1.87558 8.80269,12.71996 8.80269,12.71996l-1.23972,6.31412c0,0 -21.04385,-1.13402 -31.1715,-3.12249c-9.98187,-1.95984 -29.16337,-8.72366 -29.16337,-8.72366z" fill="#ffffff" stroke="#000000" stroke-width="0" stroke-linecap="butt"/><path d="M261.12993,98.08295c17.62413,3.46031 31.1149,10.32189 30.13244,15.32572c-0.25103,1.27859 -1.6581,1.52194 -2.65401,2.56978c-0.60704,0.63868 -0.1722,2.3788 -1.81067,2.50464c-2.67332,0.20531 -2.23819,-6.66516 -6.5702,-7.32889c-5.70473,-0.87406 -16.54032,4.2514 -22.43787,3.09348c-6.90962,-1.35664 -21.35532,-2.20169 -26.41181,-3.92147c-7.84099,-2.66683 -4.53536,-6.40639 -3.93808,-9.44845c0.98244,-5.00383 16.06607,-6.25512 33.69022,-2.79478z" fill="#e2e2e2" stroke="none" stroke-width="0" stroke-linecap="butt"/><path d="M226.64169,110.54237l1.23972,-6.31412c0,0 41.17077,-1.90893 52.30544,0.27724c7.10422,1.39484 8.02943,11.56891 8.02943,11.56891l-1.23972,6.31412c0,0 -21.56083,-0.90243 -31.55517,-2.86473c-10.11581,-1.98613 -28.77969,-8.98141 -28.77969,-8.98141z" fill="none" stroke="#000000" stroke-width="2" stroke-linecap="butt"/><path d="M270.66533,52.50273c20.1482,3.9559 33.472,22.49102 29.75955,41.39932c-1.88665,9.60914 -1.87373,19.50354 -9.52558,22.16378c-3.48019,1.20992 -5.28872,-7.64176 -10.79233,-8.55125c-6.2067,-1.0257 -16.20629,5.73786 -21.45824,4.70669c-9.32007,-1.8299 -27.51741,-2.79562 -33.23448,-7.44514c-6.64213,-5.40186 0.05235,-15.03786 2.04751,-25.19964c3.71244,-18.90832 23.05535,-31.02965 43.20354,-27.07375z" fill="#840000" stroke="#000000" stroke-width="0" stroke-linecap="butt"/><path d="M275.78407,78.63193c10.38408,2.03881 6.83875,10.33674 5.92584,14.98631c-0.91289,4.64957 -10.0709,6.76604 -20.45499,4.72723c-10.38408,-2.03881 -36.97352,-2.43055 -36.06062,-7.08016c0.28765,-1.46509 1.45233,-18.75418 10.16688,-29.56136c4.02844,-4.99579 16.61898,-7.81508 19.01053,-8.46626c3.61213,-0.98352 -17.53832,10.70886 -22.90892,22.755c-2.98991,6.70629 8.53284,14.70749 8.86477,17.84947c0.40738,3.85649 8.84779,-8.20867 15.74763,-12.71359c2.13032,-1.39089 2.14726,-6.36106 2.62924,-6.26643c0,0 4.29864,5.3883 7.07783,6.00171c2.90817,0.64188 10.0018,-2.23194 10.0018,-2.23194z" fill="#430000" stroke="none" stroke-width="0" stroke-linecap="butt"/><path d="M270.72042,52.22209c20.1482,3.9559 33.472,22.49102 29.75955,41.39932c-1.88665,9.60914 -1.87373,19.50354 -9.52558,22.16378c-3.06809,1.06664 -4.12832,-8.25436 -8.889,-8.9264c-6.72943,-0.94995 -17.55818,6.22127 -23.36156,5.08184c-9.32007,-1.8299 -27.51741,-2.79562 -33.23448,-7.44514c-6.64213,-5.40186 0.05235,-15.03786 2.04751,-25.19964c3.71244,-18.90832 23.05535,-31.02965 43.20354,-27.07375z" fill="none" stroke="#000000" stroke-width="3" stroke-linecap="butt"/><path d="M238.87461,67.90193c2.06388,0.40522 8.04297,11.24837 12.16379,10.71941c4.11335,-0.52801 6.78954,-7.44979 9.12388,-6.26263c4.19562,2.13375 1.26691,10.25546 0.77024,12.7851c-1.04983,5.34703 1.86196,11.87766 -5.96485,10.34094c-7.82681,-1.53671 -25.86807,-2.58596 -24.81823,-7.93299c1.04983,-5.34703 0.89838,-21.18655 8.72519,-19.64983z" fill="#000000" stroke="#000000" stroke-width="3" stroke-linecap="butt"/><path d="M293.91799,100.94642c-1.04983,5.34703 -18.14849,-0.50311 -25.9753,-2.03982c-7.82681,-1.53671 -2.66191,-6.48157 -1.61208,-11.82861c0.70912,-3.61167 1.87664,-7.52255 9.05731,-6.89152c3.45018,0.30319 13.24553,-0.94108 15.78569,-0.44237c7.82681,1.53671 3.79424,15.85528 2.7444,21.20231z" data-paper-data="{&quot;index&quot;:null}" fill="#000000" stroke="#000000" stroke-width="3" stroke-linecap="butt"/><path d="M229.1416,91.10303c6.4219,-0.65208 20.09397,3.42536 30.70509,5.50873c11.387,2.23572 25.08233,3.42659 30.63395,6.67347c3.3647,1.96786 0.70788,8.85435 0.38634,10.49196c-0.48346,2.46231 -1.92055,-6.13497 -9.52028,-6.94266c-5.79423,-0.61579 -16.67396,7.04571 -24.5855,5.49236c-8.11009,-1.59232 -22.13329,-3.60691 -27.66502,-5.88578c-6.94245,-2.86003 -4.38044,-6.05819 -3.90621,-8.4734c0.35768,-1.82172 -0.69461,-6.39291 3.95168,-6.86469z" fill="#7d3c3c" stroke="#000000" stroke-width="0" stroke-linecap="butt"/><path d="M239.97054,91.99189c3.06322,0.60143 -3.91962,0.23959 -7.86653,2.09288c-3.88938,1.82628 -4.74932,5.86172 -1.06488,7.28401c10.03499,3.8738 39.03047,1.74579 53.44811,4.10483c7.80408,1.27692 6.68295,7.7823 6.57103,8.35234c-0.23948,1.21973 -2.86383,-6.14451 -9.33208,-6.59417c-6.27116,-0.43598 -16.24624,6.08952 -25.47784,4.27699c-18.75333,-3.68203 -33.57354,-8.61432 -33.10187,-11.01662c0.47167,-2.40229 -1.92923,-12.18231 16.82411,-8.50029z" fill="#5c2c2c" stroke="none" stroke-width="0" stroke-linecap="butt"/><path d="M229.81305,90.65198c6.4219,-0.65208 20.09397,3.42536 30.70509,5.50873c11.387,2.23572 25.08233,3.42659 30.63395,6.67347c3.3647,1.96786 0.70788,8.85435 0.38634,10.49196c-0.5118,2.60673 -1.78709,-5.62217 -10.14494,-6.61849c-5.55607,-0.66232 -16.65799,6.60204 -23.96085,5.16819c-8.11009,-1.59232 -22.13329,-3.60691 -27.66502,-5.88578c-6.94245,-2.86003 -4.38044,-6.05819 -3.90621,-8.4734c0.35768,-1.82172 -0.69461,-6.39291 3.95168,-6.86469z" fill="none" stroke="#000000" stroke-width="3" stroke-linecap="butt"/><path d="M253.59654,85.23611c0.56125,0.11021 0.45106,0.67145 0.45106,0.67145c-0.18367,0.93543 -0.47751,2.4321 -0.66118,3.36753c0,0 -0.11021,0.56125 -0.67145,0.45106c-0.56125,-0.11021 -0.45106,-0.67145 -0.45106,-0.67145c0.18367,-0.93543 0.36733,-1.87084 0.55098,-2.80629l0.11021,-0.56125c0,0 0.11021,-0.56125 0.67145,-0.45106z" fill="#ffffff" stroke="none" stroke-width="0.5" stroke-linecap="butt"/><path d="M273.18023,87.91539c0.56125,0.11021 0.45106,0.67145 0.45106,0.67145l-0.05508,0.28063c-0.31319,1.59507 -0.94071,3.1825 -1.2173,4.71556c0,0 -0.11021,0.56125 -0.67145,0.45106c-0.56125,-0.11021 -0.45106,-0.67145 -0.45106,-0.67145c0.32443,-1.56038 0.89889,-3.09385 1.2173,-4.71556l0.05508,-0.28063c0,0 0.11021,-0.56125 0.67145,-0.45106z" fill="#ffffff" stroke="none" stroke-width="0.5" stroke-linecap="butt"/><path d="M322.86968,70.88666c-0.24984,-0.04905 -0.13964,-0.61031 -0.13964,-0.61031l0.11021,-0.56125c0.157,-0.61819 -0.4943,-1.72826 -0.63316,-2.33516c-0.03428,-0.14988 -0.02595,-0.29139 -0.0005,-0.41226c0.02212,-0.12154 0.06792,-0.25568 0.15634,-0.38146c0.02313,-0.03291 0.04499,-0.05926 0.0656,-0.08001c-0.09097,0.0068 -0.20453,-0.05331 -0.0952,-0.48137c0.18268,-0.71513 0.46538,-0.66534 0.69814,-1.0768c0.37813,-0.66844 0.23798,-2.0784 0.98277,-3.13792c0,0 0.25458,-0.36218 0.35333,0.06938c0.09874,0.43155 -0.15583,0.79374 -0.15583,0.79374c-0.74677,1.06238 -1.11253,3.23802 -1.41431,4.28289c0.27883,0.90098 0.77067,1.52304 0.54252,2.8571l-0.11021,0.56125c0,0 -0.11021,0.56125 -0.36004,0.5122z" fill="#ffffff" stroke="none" stroke-width="0.5" stroke-linecap="butt"/><path d="M261.88744,95.13085c5.85073,1.14872 10.22365,3.96457 9.7672,6.28938c-0.45645,2.32479 -5.56943,3.27818 -11.42014,2.12944c-5.85073,-1.14872 -10.22365,-3.96457 -9.7672,-6.28938c0.45645,-2.32479 5.56943,-3.27818 11.42014,-2.12944z" fill="#000000" stroke="#000000" stroke-width="3" stroke-linecap="butt"/><path d="M277.33654,50.6781c1.14729,-1.49839 5.91683,-4.49974 8.79896,-9.75919c5.16158,-9.41907 9.47801,-22.65208 13.12786,-23.08662c3.46402,-0.41244 3.70878,5.95222 7.46962,10.00412c4.59536,4.951 12.56529,7.94888 14.71435,9.59436c1.3486,1.03259 11.60393,0.05624 11.52744,1.81476c-0.15218,3.49888 -8.31686,8.04354 -13.98345,13.42482c-5.83682,5.54294 -9.22159,11.92988 -12.28602,15.9321c-7.53476,9.84056 -13.90792,4.43354 -20.70365,-0.76983c-6.79572,-5.20339 -16.19987,-7.31397 -8.66511,-17.15453z" fill="#410000" stroke="#000000" stroke-width="0" stroke-linecap="butt"/><path d="M285.57281,42.91676c2.33137,-3.04482 9.19534,-30.09544 16.16759,-24.7569c4.27472,3.2731 -10.98474,16.40757 -9.59066,27.98495c0.87972,7.30571 19.57376,14.92645 18.67177,16.10446c-2.33137,3.04483 -9.87346,1.18544 -16.84568,-4.15308c-6.97223,-5.33852 -10.73439,-12.13459 -8.40301,-15.17943z" fill="#170000" stroke="none" stroke-width="0" stroke-linecap="butt"/><path d="M277.32088,50.56001c1.14728,-1.49838 5.91682,-4.49975 8.79895,-9.75919c5.16158,-9.41907 9.47801,-22.65208 13.12786,-23.08662c3.41738,-0.40687 3.26414,6.08896 6.98183,10.06637c4.65537,4.98064 13.02943,7.86849 15.20214,9.53212c1.3486,1.03259 11.60391,0.05622 11.52743,1.81476c-0.15217,3.49888 -8.31686,8.04353 -13.98345,13.42482c-5.83683,5.54296 -9.22159,11.92988 -12.28602,15.9321c-7.53476,9.84056 -13.90792,4.43354 -20.70365,-0.76983c-6.79572,-5.20339 -16.19987,-7.31397 -8.66511,-17.15453z" fill="none" stroke="#000000" stroke-width="3" stroke-linecap="butt"/><path d="M309.1789,77.566c-1.9598,2.55955 -2.30408,8.2211 -8.49083,5.59057c-3.68768,-1.56796 -12.53593,-9.95695 -16.52803,-13.01363c-4.55469,-3.48745 -13.47488,-9.70677 -16.0105,-13.24426c-3.41532,-4.76478 0.52382,-6.62803 2.31899,-8.97255c1.62805,-2.12627 4.79216,-5.48176 9.58387,-3.95322c4.41462,1.40828 10.30913,7.45149 15.435,11.37629c4.66314,3.57048 15.14669,9.46834 17.68442,13.07657c3.27966,4.66311 -2.22947,6.83718 -3.99291,9.14026z" data-paper-data="{&quot;index&quot;:null}" fill="#410000" stroke="#000000" stroke-width="0" stroke-linecap="butt"/><path d="M281.75917,45.57371c3.12775,0.92401 19.89276,13.05953 26.76368,19.35123c5.58434,5.11358 4.44969,5.72888 5.9882,6.9069c0.67971,0.52042 -0.36603,6.47244 -2.99697,4.41734c-3.49657,-2.73128 -1.17198,-5.76909 -6.39816,-10.94037c-5.727,-5.66683 -21.41129,-15.23894 -25.10106,-16.10257c-2.34402,-0.54864 -4.37707,0.02855 -5.91185,0.9919c-1.98896,1.24844 -3.1411,3.14545 -3.04877,4.08124c0.48977,4.96437 35.27879,27.07442 34.08777,28.62994c-2.29759,3.00071 -17.55537,-8.62556 -25.89557,-15.01152c-8.3402,-6.38596 -13.23871,-13.99535 -10.94111,-16.99607c1.35228,-1.76611 5.34319,-7.72407 13.45384,-5.32798z" fill="#170000" stroke="none" stroke-width="0" stroke-linecap="butt"/><path d="M309.21249,77.81911c-1.9598,2.55955 -2.30408,8.2211 -8.49083,5.59057c-3.68768,-1.56795 -12.53593,-9.95695 -16.52804,-13.01364c-4.55469,-3.48745 -13.47486,-9.70677 -16.0105,-13.24426c-3.41532,-4.76478 0.52382,-6.62803 2.31899,-8.97255c1.62804,-2.12627 4.79217,-5.48177 9.58387,-3.95322c4.41461,1.40827 10.30913,7.45149 15.435,11.37629c4.66314,3.57048 15.14669,9.46834 17.68442,13.07657c3.27966,4.66311 -2.22947,6.83718 -3.99291,9.14026z" data-paper-data="{&quot;index&quot;:null}" fill="none" stroke="#000000" stroke-width="3" stroke-linecap="butt"/><path d="M239.74676,114.53555l1.00751,-5.13147" fill="none" stroke="#000000" stroke-width="2" stroke-linecap="round"/><path d="M257.01343,112.26334l-1.25938,6.41434" fill="none" stroke="#000000" stroke-width="2" stroke-linecap="round"/><path d="M274.53201,108.70824l-2.0377,12.92315" fill="none" stroke="#000000" stroke-width="2" stroke-linecap="round"/><path d="M245.85841,74.20799l4.18887,-5.00647l-9.05571,-7.31547l5.04102,-1.92469l0.43563,-3.70325" fill="none" stroke="#000000" stroke-width="3" stroke-linecap="round"/><path d="M259.00658,109.98925l0.69875,-4.3463" fill="none" stroke="#000000" stroke-width="3" stroke-linecap="round"/></g><g stroke-linecap="butt"><path d="M157.02247,326.76814c0,-11.07416 16.63961,-20.05155 37.16561,-20.05155c20.526,0 37.1656,8.97737 37.1656,20.05155c0,5.5238 -0.30845,12.05852 -7.0057,15.68505c-6.72944,3.64397 -19.8723,4.3665 -30.15991,4.3665c-11.02302,0 -28.58824,-0.03474 -35.39441,-4.14721c-5.86761,-3.54537 -1.7712,-10.7773 -1.7712,-15.90434z" fill="#840000" stroke="#000000" stroke-width="0"/><path d="M156.27412,337.38662c0,-1.92539 7.37565,2.6143 21.70599,3.6569c15.36834,1.11811 38.04516,-1.28736 46.97351,-4.67121c4.00164,-1.51662 2.89534,-8.45008 -1.53588,-14.20528c-4.83274,-6.27671 -13.08795,-11.34552 -9.54331,-11.34552c20.80814,0 17.75264,20.64007 17.75264,26.5651c0,5.92503 -16.86833,10.72822 -37.67647,10.72822c-20.80814,0 -37.67648,-4.80319 -37.67648,-10.72822z" fill="#430000" stroke="none" stroke-width="0"/><path d="M136.97616,331.4898c0,-11.07417 7.47174,-20.05155 16.68857,-20.05155c9.21684,0 16.68857,8.97737 16.68857,20.05155c0,5.5238 -0.13851,12.05852 -3.14578,15.68505c-3.02174,3.64397 -8.92332,4.3665 -13.54279,4.3665c-4.94969,0 -12.83705,-0.03474 -15.89325,-4.14721c-2.63476,-3.54537 -0.79534,-10.77732 -0.79534,-15.90434z" fill="#840000" stroke="#000000" stroke-width="0"/><path d="M194.97234,307.24543c20.526,0 37.16561,8.97738 37.16561,20.05155c0,5.5238 -0.30846,12.05852 -7.0057,15.68505c-6.72944,3.64397 -19.8723,4.3665 -30.15991,4.3665c-11.02302,0 -28.58823,-0.03473 -35.39441,-4.1472c-5.86761,-3.54537 -1.7712,-10.77733 -1.7712,-15.90435c0,-11.07417 16.63961,-20.05155 37.16561,-20.05155z" fill="none" stroke="#000000" stroke-width="3.5"/><path d="M136.64014,342.10825c0,-1.92539 3.31191,2.61429 9.74671,3.65689c6.90089,1.11811 17.08352,-1.28734 21.09264,-4.67119c1.79687,-1.51662 1.3001,-8.45008 -0.68966,-14.20528c-2.17006,-6.27671 -5.87691,-11.34552 -4.28526,-11.34552c9.34354,0 7.97152,20.64009 7.97152,26.56511c0,5.92504 -7.57443,10.72822 -16.91797,10.72822c-9.34354,0 -16.91797,-4.80319 -16.91797,-10.72822z" fill="#430000" stroke="none" stroke-width="0"/><path d="M137.32831,332.01861c0,-11.07417 7.47173,-20.05155 16.68857,-20.05155c9.21684,0 16.68857,8.97739 16.68857,20.05155c0,5.5238 -0.13851,12.05852 -3.14578,15.68505c-3.02174,3.64398 -8.92331,4.36649 -13.54278,4.36649c-4.94969,0 -12.83705,-0.03473 -15.89325,-4.1472c-2.63476,-3.54537 -0.79532,-10.77732 -0.79532,-15.90434z" fill="none" stroke="#000000" stroke-width="3.5"/><path d="M184.08774,330.81355c0,-11.07417 7.47174,-20.05155 16.68857,-20.05155c9.21684,0 16.68857,8.97737 16.68857,20.05155c0,5.5238 -0.13851,12.05852 -3.14578,15.68505c-3.02174,3.64397 -8.92332,4.3665 -13.54279,4.3665c-4.94969,0 -12.83705,-0.03474 -15.89325,-4.14721c-2.63476,-3.54537 -0.79534,-10.77732 -0.79534,-15.90434z" fill="#840000" stroke="#000000" stroke-width="0"/><path d="M183.75172,341.432c0,-1.92539 3.31191,2.61429 9.74671,3.65689c6.90089,1.11811 17.08352,-1.28734 21.09264,-4.67119c1.79687,-1.51662 1.3001,-8.45008 -0.68966,-14.20528c-2.17006,-6.27671 -5.87691,-11.34552 -4.28526,-11.34552c9.34354,0 7.97152,20.64009 7.97152,26.56511c0,5.92504 -7.57443,10.72822 -16.91797,10.72822c-9.34354,0 -16.91797,-4.80319 -16.91797,-10.72822z" fill="#430000" stroke="none" stroke-width="0"/><path d="M184.43989,331.34236c0,-11.07417 7.47173,-20.05155 16.68857,-20.05155c9.21684,0 16.68857,8.97739 16.68857,20.05155c0,5.5238 -0.13851,12.05852 -3.14578,15.68505c-3.02174,3.64398 -8.92331,4.36649 -13.54278,4.36649c-4.94969,0 -12.83705,-0.03473 -15.89325,-4.1472c-2.63476,-3.54537 -0.79532,-10.77732 -0.79532,-15.90434z" fill="none" stroke="#000000" stroke-width="3.5"/><path d="M157.93969,330.58813c0,-11.07417 7.47174,-20.05155 16.68857,-20.05155c9.21684,0 16.68857,8.97737 16.68857,20.05155c0,5.5238 -0.13851,12.05852 -3.14578,15.68505c-3.02174,3.64397 -8.92332,4.3665 -13.54279,4.3665c-4.94969,0 -12.83705,-0.03474 -15.89325,-4.14721c-2.63476,-3.54537 -0.79534,-10.77732 -0.79534,-15.90434z" fill="#840000" stroke="#000000" stroke-width="0"/><path d="M157.60366,341.20659c0,-1.92539 3.31191,2.61429 9.74671,3.65689c6.90089,1.11811 17.08352,-1.28734 21.09264,-4.67119c1.79687,-1.51662 1.3001,-8.45008 -0.68966,-14.20528c-2.17006,-6.27671 -5.87691,-11.34552 -4.28526,-11.34552c9.34354,0 7.97152,20.64009 7.97152,26.56511c0,5.92504 -7.57443,10.72822 -16.91797,10.72822c-9.34354,0 -16.91797,-4.80319 -16.91797,-10.72822z" fill="#430000" stroke="none" stroke-width="0"/><path d="M158.29184,331.11696c0,-11.07417 7.47173,-20.05155 16.68857,-20.05155c9.21684,0 16.68857,8.97739 16.68857,20.05155c0,5.5238 -0.13851,12.05852 -3.14578,15.68505c-3.02174,3.64398 -8.92331,4.36649 -13.54278,4.36649c-4.94969,0 -12.83705,-0.03473 -15.89325,-4.1472c-2.63476,-3.54537 -0.79532,-10.77732 -0.79532,-15.90434z" fill="none" stroke="#000000" stroke-width="3.5"/></g><g data-paper-data="{&quot;index&quot;:null}" stroke-linecap="butt"><path d="M324.09223,330.77004c0,5.12704 4.09642,12.35897 -1.7712,15.90434c-6.80617,4.11247 -24.37139,4.14721 -35.39441,4.14721c-10.28762,0 -23.43048,-0.72254 -30.15991,-4.3665c-6.69725,-3.62653 -7.0057,-10.16125 -7.0057,-15.68505c0,-11.07418 16.6396,-20.05155 37.1656,-20.05155c20.526,0 37.16561,8.97739 37.16561,20.05155z" fill="#840000" stroke="#000000" stroke-width="0"/><path d="M324.84058,341.3885c0,5.92503 -16.86834,10.72822 -37.67648,10.72822c-20.80814,0 -37.67647,-4.80319 -37.67647,-10.72822c0,-5.92503 -3.0555,-26.5651 17.75264,-26.5651c3.54464,0 -4.71058,5.06881 -9.54331,11.34552c-4.43121,5.7552 -5.53752,12.68866 -1.53588,14.20528c8.92834,3.38386 31.60517,5.78932 46.97351,4.67121c14.33034,-1.0426 21.70599,-5.58229 21.70599,-3.6569z" fill="#430000" stroke="none" stroke-width="0"/><path d="M344.13854,335.4917c0,5.12703 1.83942,12.35897 -0.79534,15.90434c-3.0562,4.11247 -10.94355,4.14721 -15.89325,4.14721c-4.61947,0 -10.52105,-0.72254 -13.54279,-4.3665c-3.00727,-3.62653 -3.14578,-10.16125 -3.14578,-15.68505c0,-11.07418 7.47173,-20.05155 16.68857,-20.05155c9.21683,0 16.68857,8.97738 16.68857,20.05155z" fill="#840000" stroke="#000000" stroke-width="0"/><path d="M323.30797,331.29888c0,5.12703 4.09642,12.35899 -1.7712,15.90435c-6.80618,4.11247 -24.37139,4.1472 -35.39441,4.1472c-10.28762,0 -23.43048,-0.72254 -30.15991,-4.3665c-6.69723,-3.62653 -7.0057,-10.16125 -7.0057,-15.68505c0,-11.07417 16.63961,-20.05155 37.16561,-20.05155c20.526,0 37.16561,8.97738 37.16561,20.05155z" fill="none" stroke="#000000" stroke-width="3.5"/><path d="M344.47454,346.11015c0,5.92503 -7.57443,10.72822 -16.91797,10.72822c-9.34354,0 -16.91797,-4.80318 -16.91797,-10.72822c0,-5.92503 -1.37202,-26.56511 7.97152,-26.56511c1.59166,0 -2.1152,5.06881 -4.28526,11.34552c-1.98976,5.7552 -2.48653,12.68866 -0.68966,14.20528c4.00912,3.38384 14.19175,5.7893 21.09264,4.67119c6.43479,-1.0426 9.74671,-5.58228 9.74671,-3.65689z" fill="#430000" stroke="none" stroke-width="0"/><path d="M343.78637,336.02051c0,5.12703 1.83943,12.35897 -0.79532,15.90434c-3.0562,4.11247 -10.94355,4.1472 -15.89325,4.1472c-4.61947,0 -10.52104,-0.72251 -13.54278,-4.36649c-3.00727,-3.62653 -3.14578,-10.16125 -3.14578,-15.68505c0,-11.07416 7.47173,-20.05155 16.68857,-20.05155c9.21684,0 16.68857,8.97738 16.68857,20.05155z" fill="none" stroke="#000000" stroke-width="3.5"/><path d="M297.02696,334.81544c0,5.12703 1.83942,12.35897 -0.79534,15.90434c-3.0562,4.11247 -10.94355,4.14721 -15.89325,4.14721c-4.61947,0 -10.52105,-0.72254 -13.54279,-4.3665c-3.00727,-3.62653 -3.14578,-10.16125 -3.14578,-15.68505c0,-11.07418 7.47173,-20.05155 16.68857,-20.05155c9.21683,0 16.68857,8.97738 16.68857,20.05155z" fill="#840000" stroke="#000000" stroke-width="0"/><path d="M297.36296,345.43391c0,5.92503 -7.57443,10.72822 -16.91797,10.72822c-9.34354,0 -16.91797,-4.80318 -16.91797,-10.72822c0,-5.92503 -1.37202,-26.56511 7.97152,-26.56511c1.59166,0 -2.1152,5.06881 -4.28526,11.34552c-1.98976,5.7552 -2.48653,12.68866 -0.68966,14.20528c4.00912,3.38384 14.19175,5.7893 21.09264,4.67119c6.43479,-1.0426 9.74671,-5.58228 9.74671,-3.65689z" fill="#430000" stroke="none" stroke-width="0"/><path d="M296.67479,335.34425c0,5.12703 1.83943,12.35897 -0.79532,15.90434c-3.0562,4.11247 -10.94355,4.1472 -15.89325,4.1472c-4.61947,0 -10.52104,-0.72251 -13.54278,-4.36649c-3.00727,-3.62653 -3.14578,-10.16125 -3.14578,-15.68505c0,-11.07416 7.47173,-20.05155 16.68857,-20.05155c9.21684,0 16.68857,8.97738 16.68857,20.05155z" fill="none" stroke="#000000" stroke-width="3.5"/><path d="M323.17502,334.59003c0,5.12703 1.83942,12.35897 -0.79534,15.90434c-3.0562,4.11247 -10.94355,4.14721 -15.89325,4.14721c-4.61947,0 -10.52105,-0.72254 -13.54279,-4.3665c-3.00727,-3.62653 -3.14578,-10.16125 -3.14578,-15.68505c0,-11.07418 7.47173,-20.05155 16.68857,-20.05155c9.21683,0 16.68857,8.97738 16.68857,20.05155z" fill="#840000" stroke="#000000" stroke-width="0"/><path d="M323.51101,345.2085c0,5.92503 -7.57443,10.72822 -16.91797,10.72822c-9.34354,0 -16.91797,-4.80318 -16.91797,-10.72822c0,-5.92503 -1.37202,-26.56511 7.97152,-26.56511c1.59166,0 -2.1152,5.06881 -4.28526,11.34552c-1.98976,5.7552 -2.48653,12.68866 -0.68966,14.20528c4.00912,3.38384 14.19175,5.7893 21.09264,4.67119c6.43479,-1.0426 9.74671,-5.58228 9.74671,-3.65689z" fill="#430000" stroke="none" stroke-width="0"/><path d="M322.82284,335.11885c0,5.12703 1.83943,12.35897 -0.79532,15.90434c-3.0562,4.11247 -10.94355,4.1472 -15.89325,4.1472c-4.61947,0 -10.52104,-0.72251 -13.54278,-4.36649c-3.00727,-3.62653 -3.14578,-10.16125 -3.14578,-15.68505c0,-11.07416 7.47173,-20.05155 16.68857,-20.05155c9.21684,0 16.68857,8.97738 16.68857,20.05155z" fill="none" stroke="#000000" stroke-width="3.5"/></g></g></g></svg>