<svg version="1.1" xmlns="http://www.w3.org/2000/svg" xmlns:xlink="http://www.w3.org/1999/xlink" width="177.63425" height="320.98493" viewBox="0,0,177.63425,320.98493"><g transform="translate(-144.79649,-22.5471)"><g data-paper-data="{&quot;isPaintingLayer&quot;:true}" fill-rule="nonzero" stroke-linejoin="miter" stroke-miterlimit="10" stroke-dasharray="" stroke-dashoffset="0" style="mix-blend-mode: normal"><g stroke-linecap="butt"><path d="M256.51262,264.73765l-11.1465,-57.39301l9.10199,-1.76772l11.14651,57.39301z" data-paper-data="{&quot;index&quot;:null}" fill="#1b1b1b" stroke="#000000" stroke-width="2.5"/><path d="M260.98151,321.66823l-4.64042,-58.28095l9.24279,-0.73592l4.64042,58.28095z" data-paper-data="{&quot;index&quot;:null}" fill="#1b1b1b" stroke="#000000" stroke-width="2.5"/><path d="M276.97105,283.47839c0.72806,9.35987 -4.37248,17.39022 -11.39238,17.93627c-7.0199,0.54605 -13.30088,-6.59899 -14.02895,-15.95885c-0.21139,-2.7175 -2.85256,-22.36957 -0.66376,-28.46182c2.27208,-6.32407 9.39845,0.80851 10.36214,-7.58495c1.30549,-11.37049 -4.49064,-27.65034 -1.62454,-27.87329c7.0199,-0.54605 16.61943,52.58275 17.3475,61.94262z" data-paper-data="{&quot;index&quot;:null}" fill="#444444" stroke="#000000" stroke-width="0"/><path d="M277.07469,287.78117c0.4909,6.31082 -4.572,11.85153 -11.30826,12.37553c-2.59175,0.2016 -9.8384,-0.68671 -12.31327,-7.25182c-3.95763,-10.49838 -2.65922,-29.14003 -2.96125,-33.02278c-0.15474,-1.98932 16.10981,37.81457 21.50103,33.15632c3.22825,-2.78934 -1.36459,-18.09351 -0.87075,-24.15406c1.29775,-15.92632 -13.48527,-46.62907 -10.14392,-46.88899c6.73629,-0.52399 15.60554,59.47499 16.09643,65.78581z" data-paper-data="{&quot;index&quot;:null}" fill="#282828" stroke="none" stroke-width="0"/><path d="M276.95107,283.22162c0.72806,9.35987 -4.37248,17.39021 -11.39239,17.93626c-7.0199,0.54605 -13.30087,-6.59898 -14.02895,-15.95884c-0.21139,-2.7175 -2.85257,-22.3696 -0.66376,-28.46183c2.27208,-6.32407 9.39845,0.8085 10.36213,-7.58495c1.30549,-11.37049 -4.49063,-27.65033 -1.62453,-27.87327c7.0199,-0.54605 16.61943,52.58276 17.34749,61.94263z" data-paper-data="{&quot;index&quot;:null}" fill="none" stroke="#000000" stroke-width="3"/></g><g stroke-linecap="butt"><path d="M222.84509,261.15056l11.05346,-57.411l9.10483,1.75297l-11.05346,57.411z" data-paper-data="{&quot;index&quot;:null}" fill="#1b1b1b" stroke="#000000" stroke-width="2.5"/><path d="M218.32936,319.12035l4.54595,-58.28839l9.24398,0.72094l-4.54595,58.28839z" data-paper-data="{&quot;index&quot;:null}" fill="#1b1b1b" stroke="#000000" stroke-width="2.5"/><path d="M211.52191,281.6774c0.71289,-9.36104 10.22629,-62.50533 17.24707,-61.97066c2.86645,0.2183 -2.90329,16.50753 -1.57937,27.87589c0.9773,8.39189 8.09209,1.24778 10.37442,7.56814c2.19866,6.08868 -0.41065,25.74502 -0.61763,28.46287c-0.71289,9.36104 -6.98227,16.51623 -14.00306,15.98157c-7.02077,-0.53466 -12.13434,-8.55673 -11.42145,-17.91778z" fill="#444444" stroke="#000000" stroke-width="0"/><path d="M211.42522,285.98034c0.48067,-6.3116 9.25266,-66.32487 15.98978,-65.8118c3.34175,0.25449 -11.39148,30.98117 -10.0679,46.90536c0.50366,6.05975 -4.06437,21.37134 -0.83159,24.15543c5.39877,4.64951 21.59877,-35.18069 21.44725,-33.19113c-0.29573,3.88324 1.03289,22.52276 -2.9077,33.02754c-2.46422,6.5691 -9.70943,7.46917 -12.30151,7.27177c-6.73711,-0.51307 -11.80897,-6.04556 -11.32831,-12.35718z" fill="#282828" stroke="none" stroke-width="0"/><path d="M211.54147,281.42062c0.71289,-9.36104 10.2263,-62.50534 17.24707,-61.97067c2.86646,0.2183 -2.90328,16.50752 -1.57936,27.87588c0.97728,8.39187 8.09208,1.24778 10.37441,7.56814c2.19866,6.08867 -0.41065,25.74502 -0.61763,28.46288c-0.71289,9.36104 -6.98227,16.51622 -14.00306,15.98156c-7.02077,-0.53466 -12.13434,-8.55673 -11.42145,-17.91777z" fill="none" stroke="#000000" stroke-width="3"/></g><g data-paper-data="{&quot;index&quot;:null}" stroke-linecap="butt"><g><path d="M303.86279,323.63141c0,3.46303 2.88695,8.34782 -1.24827,10.74253c-4.79665,2.77775 -17.17574,2.80122 -24.94421,2.80122c-7.25019,0 -16.51263,-0.48803 -21.25521,-2.94933c-4.71986,-2.44953 -4.93725,-6.86339 -4.93725,-10.59442c0,-7.48001 11.72677,-13.54375 26.19246,-13.54375c14.46568,0 26.19245,6.06374 26.19245,13.54375z" fill="#444444" stroke="#000000" stroke-width="0"/><path d="M304.39013,330.8036c0,4.00204 -11.88797,7.24633 -26.5525,7.24633c-14.66453,0 -26.55249,-3.24429 -26.55249,-7.24633c0,-4.00204 -2.15336,-17.9433 12.51118,-17.9433c2.49808,0 -3.31978,3.4237 -6.72565,7.66328c-3.12289,3.88732 -3.90257,8.57051 -1.08241,9.5949c6.29226,2.2856 22.27373,3.91037 33.10457,3.15514c10.09931,-0.70422 15.29731,-3.77053 15.29731,-2.47003z" fill="#282828" stroke="none" stroke-width="0"/><path d="M303.31005,323.9886c0,3.46303 2.88697,8.34782 -1.24824,10.74253c-4.79665,2.77775 -17.17574,2.80121 -24.94421,2.80121c-7.25019,0 -16.51261,-0.48802 -21.25519,-2.94933c-4.71986,-2.44953 -4.93725,-6.86338 -4.93725,-10.5944c0,-7.48 11.72676,-13.54375 26.19245,-13.54375c14.4657,0 26.19246,6.06374 26.19246,13.54375z" fill="none" stroke="#000000" stroke-width="3.5"/></g><g><path d="M315.62485,326.72209c0,3.46303 1.24243,8.34782 -0.53721,10.74253c-2.0643,2.77775 -7.39178,2.80122 -10.73503,2.80122c-3.12021,0 -7.1064,-0.48804 -9.14742,-2.94934c-2.03125,-2.44953 -2.12481,-6.86338 -2.12481,-10.59441c0,-7.48001 5.04675,-13.54375 11.27223,-13.54375c6.22548,0 11.27223,6.06374 11.27223,13.54375z" fill="#444444" stroke="#000000" stroke-width="0"/><path d="M315.85181,333.89429c0,4.00204 -5.11612,7.24633 -11.42717,7.24633c-6.31106,0 -11.42718,-3.24429 -11.42718,-7.24633c0,-4.00204 -0.92673,-17.94331 5.38433,-17.94331c1.07508,0 -1.42871,3.42372 -2.89446,7.6633c-1.34398,3.88732 -1.67951,8.5705 -0.46582,9.5949c2.70795,2.2856 9.58576,3.91036 14.24694,3.15513c4.34636,-0.70422 6.58337,-3.77053 6.58337,-2.47003z" fill="#282828" stroke="none" stroke-width="0"/><path d="M315.38698,327.07928c0,3.46303 1.24244,8.34783 -0.5372,10.74253c-2.0643,2.77775 -7.39179,2.8012 -10.73504,2.8012c-3.12021,0 -7.10639,-0.48802 -9.14741,-2.94933c-2.03125,-2.44953 -2.12481,-6.86338 -2.12481,-10.5944c0,-7.48 5.04675,-13.54374 11.27223,-13.54374c6.22548,0 11.27223,6.06374 11.27223,13.54374z" fill="none" stroke="#000000" stroke-width="3.5"/></g><g><path d="M282.78637,327.88109c0,3.46303 1.24243,8.34783 -0.53721,10.74253c-2.0643,2.77775 -7.39178,2.80122 -10.73503,2.80122c-3.12021,0 -7.10641,-0.48804 -9.14743,-2.94934c-2.03125,-2.44953 -2.1248,-6.86338 -2.1248,-10.59441c0,-7.48001 5.04675,-13.54374 11.27223,-13.54374c6.22547,0 11.27223,6.06374 11.27223,13.54374z" fill="#444444" stroke="#000000" stroke-width="0"/><path d="M283.01331,335.05329c0,4.00204 -5.11612,7.24633 -11.42718,7.24633c-6.31106,0 -11.42718,-3.24429 -11.42718,-7.24633c0,-4.00204 -0.92672,-17.9433 5.38433,-17.9433c1.07508,0 -1.42871,3.4237 -2.89446,7.66328c-1.34398,3.88732 -1.67952,8.57052 -0.46583,9.59491c2.70795,2.2856 9.58577,3.91036 14.24695,3.15513c4.34635,-0.70422 6.58338,-3.77053 6.58338,-2.47003z" fill="#282828" stroke="none" stroke-width="0"/><path d="M282.54849,328.23829c0,3.46303 1.24244,8.34782 -0.53719,10.74253c-2.0643,2.77775 -7.39179,2.80121 -10.73504,2.80121c-3.12021,0 -7.10639,-0.48802 -9.14742,-2.94933c-2.03125,-2.44953 -2.12481,-6.86338 -2.12481,-10.5944c0,-7.48 5.04675,-13.54375 11.27223,-13.54375c6.22548,0 11.27224,6.06374 11.27224,13.54375z" fill="none" stroke="#000000" stroke-width="3.5"/></g><g><path d="M301.71679,326.14259c0,3.46303 1.24243,8.34782 -0.53721,10.74253c-2.0643,2.77775 -7.39178,2.80121 -10.73504,2.80121c-3.12021,0 -7.1064,-0.48803 -9.14742,-2.94933c-2.03125,-2.44953 -2.12481,-6.86338 -2.12481,-10.5944c0,-7.48001 5.04675,-13.54375 11.27223,-13.54375c6.22547,0 11.27223,6.06374 11.27223,13.54375z" fill="#444444" stroke="#000000" stroke-width="0"/><path d="M301.94374,333.31478c0,4.00204 -5.11612,7.24633 -11.42717,7.24633c-6.31106,0 -11.42717,-3.24429 -11.42717,-7.24633c0,-4.00204 -0.92673,-17.94331 5.38432,-17.94331c1.07508,0 -1.42871,3.42371 -2.89446,7.66329c-1.34398,3.88732 -1.67953,8.57051 -0.46583,9.5949c2.70795,2.2856 9.58577,3.91036 14.24695,3.15513c4.34635,-0.70422 6.58338,-3.77052 6.58338,-2.47003z" fill="#282828" stroke="none" stroke-width="0"/><path d="M301.47891,326.49977c0,3.46303 1.24244,8.34783 -0.53719,10.74254c-2.0643,2.77775 -7.39178,2.8012 -10.73503,2.8012c-3.12021,0 -7.1064,-0.48801 -9.14742,-2.94932c-2.03125,-2.44953 -2.1248,-6.86339 -2.1248,-10.59442c0,-7.48 5.04675,-13.54374 11.27223,-13.54374c6.22548,0 11.27223,6.06373 11.27223,13.54374z" fill="none" stroke="#000000" stroke-width="3.5"/></g></g><g stroke-linecap="butt"><g><path d="M184.60907,321.63141c0,-7.48001 11.72678,-13.54375 26.19245,-13.54375c14.4657,0 26.19246,6.06374 26.19246,13.54375c0,3.73103 -0.21738,8.14488 -4.93725,10.59441c-4.74258,2.4613 -14.00502,2.94933 -21.25521,2.94933c-7.76847,0 -20.14755,-0.02346 -24.94421,-2.80122c-4.13521,-2.39471 -1.24827,-7.27949 -1.24827,-10.74253z" fill="#444444" stroke="#000000" stroke-width="0"/><path d="M184.0817,328.80359c0,-1.30049 5.19801,1.76582 15.29731,2.47003c10.83084,0.75523 26.81231,-0.86954 33.10457,-3.15514c2.82016,-1.0244 2.04049,-5.70758 -1.08241,-9.5949c-3.40587,-4.23958 -9.22373,-7.66329 -6.72565,-7.66329c14.66453,0 12.51118,13.94126 12.51118,17.9433c0,4.00204 -11.88795,7.24633 -26.55249,7.24633c-14.66453,0 -26.5525,-3.24429 -26.5525,-7.24633z" fill="#282828" stroke="none" stroke-width="0"/><path d="M185.16177,321.9886c0,-7.48001 11.72676,-13.54375 26.19246,-13.54375c14.4657,0 26.19245,6.06375 26.19245,13.54375c0,3.73103 -0.21739,8.14488 -4.93726,10.59441c-4.74258,2.46131 -14.005,2.94933 -21.25518,2.94933c-7.76847,0 -20.14755,-0.02346 -24.94421,-2.80121c-4.13521,-2.39471 -1.24825,-7.27949 -1.24825,-10.74253z" fill="none" stroke="#000000" stroke-width="3.5"/></g><g><path d="M172.847,324.72208c0,-7.48001 5.04676,-13.54374 11.27223,-13.54374c6.22548,0 11.27223,6.06373 11.27223,13.54374c0,3.73103 -0.09355,8.14488 -2.12481,10.59441c-2.04102,2.4613 -6.02722,2.94934 -9.14742,2.94934c-3.34325,0 -8.67074,-0.02346 -10.73504,-2.80122c-1.77964,-2.39471 -0.53721,-7.2795 -0.53721,-10.74253z" fill="#444444" stroke="#000000" stroke-width="0"/><path d="M172.62003,331.89427c0,-1.30049 2.23702,1.76582 6.58337,2.47003c4.66118,0.75523 11.53899,-0.86953 14.24694,-3.15513c1.21369,-1.0244 0.87816,-5.70758 -0.46582,-9.5949c-1.46575,-4.23958 -3.96955,-7.66329 -2.89447,-7.66329c6.31106,0 5.38433,13.94126 5.38433,17.94331c0,4.00204 -5.11612,7.24633 -11.42718,7.24633c-6.31106,0 -11.42718,-3.24429 -11.42718,-7.24633z" fill="#282828" stroke="none" stroke-width="0"/><path d="M173.08485,325.07928c0,-7.48001 5.04675,-13.54374 11.27223,-13.54374c6.22548,0 11.27223,6.06374 11.27223,13.54374c0,3.73103 -0.09355,8.14488 -2.12481,10.59441c-2.04102,2.46131 -6.0272,2.94933 -9.14741,2.94933c-3.34325,0 -8.67074,-0.02345 -10.73504,-2.8012c-1.77964,-2.39471 -0.5372,-7.2795 -0.5372,-10.74253z" fill="none" stroke="#000000" stroke-width="3.5"/></g><g><path d="M205.68548,325.88109c0,-7.48001 5.04676,-13.54374 11.27223,-13.54374c6.22548,0 11.27223,6.06373 11.27223,13.54374c0,3.73103 -0.09355,8.14488 -2.1248,10.59441c-2.04102,2.4613 -6.02722,2.94934 -9.14743,2.94934c-3.34325,0 -8.67073,-0.02346 -10.73503,-2.80122c-1.77964,-2.39471 -0.53721,-7.2795 -0.53721,-10.74253z" fill="#444444" stroke="#000000" stroke-width="0"/><path d="M205.45852,333.05328c0,-1.30049 2.23703,1.76582 6.58338,2.47003c4.66118,0.75523 11.53899,-0.86953 14.24694,-3.15513c1.21369,-1.0244 0.87815,-5.70758 -0.46583,-9.59491c-1.46575,-4.23958 -3.96954,-7.66329 -2.89446,-7.66329c6.31106,0 5.38433,13.94126 5.38433,17.94331c0,4.00204 -5.11612,7.24633 -11.42718,7.24633c-6.31106,0 -11.42718,-3.24429 -11.42718,-7.24633z" fill="#282828" stroke="none" stroke-width="0"/><path d="M205.92334,326.23828c0,-7.48001 5.04676,-13.54374 11.27224,-13.54374c6.22548,0 11.27223,6.06374 11.27223,13.54374c0,3.73103 -0.09355,8.14488 -2.12481,10.59441c-2.04102,2.46131 -6.02721,2.94933 -9.14742,2.94933c-3.34325,0 -8.67074,-0.02345 -10.73504,-2.8012c-1.77964,-2.39471 -0.5372,-7.2795 -0.5372,-10.74253z" fill="none" stroke="#000000" stroke-width="3.5"/></g><g><path d="M186.75506,324.14259c0,-7.48001 5.04676,-13.54375 11.27223,-13.54375c6.22548,0 11.27223,6.06374 11.27223,13.54375c0,3.73103 -0.09355,8.14488 -2.12481,10.59441c-2.04102,2.4613 -6.02722,2.94934 -9.14742,2.94934c-3.34325,0 -8.67073,-0.02346 -10.73503,-2.80122c-1.77964,-2.39471 -0.53721,-7.27949 -0.53721,-10.74253z" fill="#444444" stroke="#000000" stroke-width="0"/><path d="M186.5281,331.31477c0,-1.30049 2.23702,1.76581 6.58337,2.47003c4.66118,0.75523 11.539,-0.86953 14.24695,-3.15513c1.21369,-1.0244 0.87814,-5.70758 -0.46583,-9.5949c-1.46575,-4.23958 -3.96954,-7.66329 -2.89446,-7.66329c6.31106,0 5.38433,13.94126 5.38433,17.94331c0,4.00204 -5.11611,7.24633 -11.42717,7.24633c-6.31106,0 -11.42718,-3.24429 -11.42718,-7.24633z" fill="#282828" stroke="none" stroke-width="0"/><path d="M186.99292,324.49977c0,-7.48001 5.04675,-13.54374 11.27223,-13.54374c6.22548,0 11.27223,6.06374 11.27223,13.54374c0,3.73103 -0.09355,8.14488 -2.1248,10.59441c-2.04102,2.46131 -6.02722,2.94932 -9.14742,2.94932c-3.34325,0 -8.67073,-0.02345 -10.73503,-2.8012c-1.77964,-2.39471 -0.5372,-7.2795 -0.5372,-10.74253z" fill="none" stroke="#000000" stroke-width="3.5"/></g></g><path d="M220.24029,210.79203v-10h51.66667v10z" fill="#1b1b1b" stroke="#000000" stroke-width="2.5" stroke-linecap="butt"/><g><path d="M314.61348,200.53738l-28.99925,-38.71593l6.06742,-4.54466l28.99925,38.71593z" fill="#1b1b1b" stroke="#000000" stroke-width="2.5" stroke-linecap="butt"/><g data-paper-data="{&quot;index&quot;:null}"><path d="M274.44029,120.18558c6.64975,-1.20476 33.86573,43.01624 34.97425,49.13474c0.12294,0.67856 -1.45401,-0.53837 -2.87593,-0.51403c-1.91049,0.03272 -4.06034,1.07099 -6.36807,0.21317c-4.00364,-1.48822 -7.99091,-5.09739 -8.97883,-2.99423c-1.84042,3.91801 11.29467,22.84141 8.09227,23.4216c-6.64976,1.20476 -33.76848,-49.88281 -34.87699,-56.00132c-0.55016,-3.03665 -3.41498,-6.08757 -1.62698,-8.47839c1.81461,-2.42642 8.31083,-4.17472 11.66028,-4.78155z" fill="#444444" stroke="#000000" stroke-width="0" stroke-linecap="butt"/><path d="M289.44802,164.5078c3.67814,-0.66639 8.541,-0.84046 12.58964,-1.14005c3.58308,-0.26514 6.53568,-1.0275 7.35899,3.51681c0.42058,2.32142 -3.14887,3.6178 -7.70106,2.50228c-4.25549,-1.04281 -9.4714,-4.49883 -10.26318,-2.69945c-1.89273,4.3013 11.3896,20.46028 7.67366,21.13351c-6.93333,1.25614 -32.60956,-44.26088 -34.36315,-53.93997c-1.15699,-6.38607 12.01847,19.88507 23.31971,35.10537c5.8276,7.84848 -0.7971,-2.06531 1.56176,-2.49267z" fill="#282828" stroke="none" stroke-width="0" stroke-linecap="butt"/><path d="M274.35448,119.71191c6.64975,-1.20476 33.86573,43.01624 34.97425,49.13474c0.47881,2.64282 -4.7657,-1.97787 -6.11987,1.68592c-0.72343,1.95732 -11.88345,-7.79662 -12.08843,-4.52528c-0.29965,4.78179 10.32072,22.5595 8.07773,22.96588c-6.64976,1.20476 -33.76848,-49.88281 -34.87699,-56.00132c-0.58816,-3.24643 -4.17153,-6.82725 -2.12057,-9.29162c1.81448,-2.18021 9.03241,-3.40279 12.15387,-3.96832z" fill="none" stroke="#000000" stroke-width="3" stroke-linecap="butt"/><path d="M278.88325,159.07753l15.99899,-16.7373" fill="none" stroke="#000000" stroke-width="3" stroke-linecap="round"/></g></g><g><path d="M230.47413,124.68364c3.09202,1.42354 8.94637,4.73775 10.09803,7.54025c1.13477,2.76139 -2.4008,5.00083 -3.6914,7.80409c-2.60041,5.64825 -41.61069,48.35145 -47.74938,45.52526c-6.13869,-2.8262 -7.38755,-16.36965 -4.78715,-22.0179c2.60041,-5.64825 39.99122,-41.67787 46.1299,-38.85169z" fill="#444444" stroke="#000000" stroke-width="0" stroke-linecap="butt"/><path d="M189.53509,173.8819c2.17757,1.00254 7.9669,0.80442 15.5688,-5.34135c14.74208,-11.91831 34.057,-34.07004 31.34289,-28.17477c-4.11368,8.93519 -40.33691,46.60408 -46.73736,43.65737c-6.40045,-2.94672 -8.85368,-13.90686 -4.74001,-22.84205c4.11368,-8.93519 -1.83478,9.75409 4.56567,12.70081z" fill="#282828" stroke="none" stroke-width="0" stroke-linecap="butt"/><path d="M230.67542,124.24639c2.88155,1.32665 9.566,4.31188 10.77895,6.87593c1.37105,2.89823 -2.99259,5.47148 -4.37233,8.4684c-2.60041,5.64825 -41.61069,48.35145 -47.74938,45.52526c-6.13869,-2.8262 -7.38755,-16.36965 -4.78715,-22.0179c2.60041,-5.64825 39.99122,-41.67787 46.1299,-38.85169z" fill="none" stroke="#000000" stroke-width="3" stroke-linecap="butt"/><path d="M216.46566,161.23617l-11.31569,-20.20049" fill="none" stroke="#000000" stroke-width="3" stroke-linecap="round"/></g><g stroke-width="2.5" stroke-linecap="butt"><path d="M248.14044,151.58607c11.16257,0.6772 19.58556,11.54595 18.81326,24.27603c-0.24151,3.98083 6.77665,4.37727 6.83418,7.51734c0.02033,1.10958 -6.45205,2.33091 -8.09994,4.0304c-2.01031,2.07327 0.64499,4.62131 -0.48722,5.57781c-1.75265,1.48065 -6.84361,-12.53368 -10.62695,-9.44776c-4.2302,3.45042 -6.62565,14.30388 -9.23007,14.14588c-11.16257,-0.6772 -19.58556,-11.54595 -18.81326,-24.27603c0.7723,-12.73009 10.44742,-22.50087 21.61,-21.82367z" fill="#212121" stroke="#000000"/><path d="M236.35438,202.14718l3.76724,-62.097l14.27715,0.86615l-3.76724,62.097z" fill="#1b1b1b" stroke="#000000"/><path d="M247.33671,121.58435c5.93015,0.35976 15.41569,-4.73611 20.13219,8.24994c2.00168,5.51126 8.6841,37.41521 4.10617,52.10191c-2.04483,6.56011 -12.7336,-0.28493 -16.07889,2.70844c-5.03464,4.50502 -8.95745,-23.543 -14.38313,-27.19707c-4.61806,-3.11016 -11.18131,18.25042 -11.25251,19.424c-0.62806,10.35262 29.22132,27.96738 16.5184,27.19673c-12.70292,-0.77065 -27.19519,-5.62226 -26.56713,-15.97486c0.40807,-6.7263 0.34962,-44.41409 8.08129,-61.86316c4.16835,-9.40725 14.994,-4.91588 19.44359,-4.64593z" fill="#444444" stroke="#000000"/><path d="M246.72845,203.56902c-0.37848,0.04692 -25.19882,5.11884 -27.29922,-16.16157c-0.96281,-9.75479 2.9288,-43.30323 7.5499,-57.29612c4.86292,-14.72514 10.47479,-9.67695 9.65547,-10.24754c-1.74981,-1.21859 -13.22608,42.92312 -14.01823,65.03356c-0.40614,11.33603 19.7946,16.32173 19.00611,15.43249c-4.69804,-5.29833 -16.14119,-18.99601 -16.72419,-19.55823c-2.42603,-2.33953 8.49307,-20.06211 7.96823,-22.03621c-0.76075,-2.86141 10.44172,-4.66231 11.23533,-4.4981c3.41496,0.70658 7.74036,23.00222 14.08354,28.23618c3.83865,3.1674 11.1081,-8.21207 11.67655,-10.7132c3.2587,-14.338 -8.35934,-47.8168 -4.03792,-47.55463c7.22005,0.43802 8.07263,49.0675 7.74603,54.45087c-0.32659,5.38336 -4.25496,7.45343 -11.47501,7.01541c-1.35568,-0.08225 -6.25782,-0.58219 -8.84164,-4.88573c-4.88739,-8.1403 -8.45006,-22.59784 -13.00076,-22.34514c-3.69262,0.20506 -9.3758,10.65907 -10.52254,18.40185c-0.67195,4.53706 2.44535,8.73203 2.50051,7.82292c0.01396,-0.23008 22.156,17.95391 14.49783,18.90321z" fill="#282828" stroke="none"/><path d="M247.80879,121.62728c5.93015,0.35976 15.41569,-4.73611 20.13219,8.24994c5.38668,14.83127 5.5942,48.26179 5.25933,53.78146c-0.06488,1.06941 -8.21507,0.99316 -14.01087,0.61098c-2.85344,-0.18817 -3.84102,1.19769 -5.54409,-0.61242c-6.76489,-7.19003 -5.46253,-24.66914 -12.62531,-26.02166c-1.34937,-0.2548 -7.13014,10.62967 -8.88158,15.093c-0.36315,0.92545 -0.49231,2.41024 -0.70629,2.39543c-1.83779,-0.12724 -0.73224,1.32616 -1.3738,1.87881c-5.01846,4.32293 23.52664,27.51695 16.79265,27.10842c-12.70292,-0.77065 -27.19519,-5.62226 -26.56713,-15.97486c0.40806,-6.72629 0.34962,-44.41409 8.08129,-61.86316c4.16835,-9.40725 14.994,-4.91587 19.44359,-4.64592z" fill="none" stroke="#000000"/><path d="M248.09774,126.12278c9.81673,0.59555 16.78738,17.35381 15.56938,37.43061c-0.57042,9.40249 6.93784,24.28254 3.57395,20.83854c-1.51369,-1.54974 -8.993,2.61843 -12.71065,-2.33441c-5.66163,-7.5427 -8.15603,-24.73263 -11.30657,-24.92377c-7.6497,-0.46408 -12.94301,24.03407 -14.48405,21.19634c-0.43655,-0.80388 -0.89108,-12.50145 -0.62221,-16.93337c1.218,-20.0768 10.16341,-35.86947 19.98015,-35.27392z" fill="#b7b7b7" stroke="#000000"/><path d="M232.20535,143.34411c0.14002,-2.30808 2.77218,-10.67394 7.91115,-14.73953c2.19374,-1.73554 6.06765,-1.9073 8.39822,-1.76591c7.79005,0.4726 12.1007,14.92353 11.9009,18.21689c-0.1998,3.29335 -3.41608,-14.019 -11.20613,-14.4916c-1.1558,-0.07012 -12.33483,5.96984 -14.76427,11.72049c-0.54749,1.29594 -7.10913,23.51841 -5.05662,25.15482c1.2641,1.00784 2.34282,-7.12386 6.06586,-11.09477c3.58327,-3.82183 9.80242,-3.50673 11.61055,-1.71104c3.93618,3.9091 7.42277,18.23855 10.77632,22.66161c4.55289,6.00489 8.36785,1.87268 8.14347,4.21336c-0.30655,3.19804 -5.72177,5.48513 -12.98843,-2.96091c-3.30652,-3.84318 -7.42559,-20.88672 -10.86578,-21.75815c-6.36725,-1.61287 -13.83549,20.57195 -14.16654,20.40415c-1.54344,-0.78239 -1.08867,-12.88154 0.66882,-22.5436c0.99537,-5.47221 3.5369,-10.71964 3.57246,-11.30578z" fill="#989898" stroke="none"/><path d="M247.40969,126.08104c9.81673,0.59555 16.78738,17.35381 15.56938,37.43061c-0.57042,9.40249 6.93784,24.28254 3.57395,20.83854c-1.51369,-1.54974 -8.993,2.61843 -12.71065,-2.33441c-5.66163,-7.5427 -8.15603,-24.73263 -11.30657,-24.92377c-7.6497,-0.46408 -12.94301,24.03407 -14.48405,21.19634c-0.43655,-0.80388 -0.89108,-12.50145 -0.62221,-16.93337c1.218,-20.0768 10.16341,-35.86947 19.98015,-35.27392z" fill="none" stroke="#000000"/></g><g stroke-width="2.5" stroke-linecap="butt"><path d="M272.12012,128.661c0,1.42763 1.18882,16.71602 -4.99757,16.71602c-6.1864,0 -17.40534,-15.28839 -17.40534,-16.71602c0,-1.42763 10.87428,-15.68204 17.06068,-15.68204c6.1864,0 5.34223,14.25441 5.34223,15.68204z" data-paper-data="{&quot;index&quot;:null}" fill="#de3636" stroke="#000000"/><path d="M272.80944,128.31635c0,1.42763 1.18882,16.71602 -4.99757,16.71602c-6.1864,0 -17.40534,-15.28839 -17.40534,-16.71602c0,-1.42763 10.87428,-15.68204 17.06068,-15.68204c6.1864,0 5.34223,14.25441 5.34223,15.68204z" data-paper-data="{&quot;index&quot;:null}" fill="#de3636" stroke="#000000"/><path d="M272.63711,130.55664c0,3.33113 0.69492,14.3034 -4.82524,14.3034c-5.52017,0 -15.16505,-10.97226 -15.16505,-14.3034c0,-1.34768 12.57959,11.45699 14.7915,8.30306c3.25538,-4.64179 -3.08564,-25.36374 0.20122,-25.36374c5.52017,0 4.99757,13.72955 4.99757,17.06068z" data-paper-data="{&quot;index&quot;:null}" fill="#b72c2c" stroke="none"/><path d="M272.29245,128.48868c0,1.42763 1.18882,16.71602 -4.99757,16.71602c-6.1864,0 -17.40534,-15.28839 -17.40534,-16.71602c0,-1.42763 10.87428,-15.68204 17.06068,-15.68204c6.1864,0 5.34223,14.25441 5.34223,15.68204z" data-paper-data="{&quot;index&quot;:null}" fill="none" stroke="#000000"/><path d="M227.92293,113.66829c6.1864,0 17.06068,14.25441 17.06068,15.68204c0,1.42763 -11.21894,16.71602 -17.40534,16.71602c-6.1864,0 -4.99757,-15.28839 -4.99757,-16.71602c0,-1.42763 -0.84416,-15.68204 5.34223,-15.68204z" data-paper-data="{&quot;index&quot;:null}" fill="#de3636" stroke="#000000"/><path d="M227.7506,114.52994c3.28686,0 -3.05415,20.72195 0.20122,25.36374c2.21191,3.15394 14.7915,-9.65074 14.7915,-8.30306c0,3.33113 -9.64488,14.3034 -15.16505,14.3034c-5.52017,0 -4.82524,-10.97226 -4.82524,-14.3034c0,-3.33113 -0.52259,-17.06068 4.99757,-17.06068z" fill="#b72c2c" stroke="none"/><path d="M228.43992,113.84062c6.1864,0 17.06068,14.25441 17.06068,15.68204c0,1.42763 -11.21894,16.71602 -17.40534,16.71602c-6.1864,0 -4.99757,-15.28839 -4.99757,-16.71602c0,-1.42763 -0.84416,-15.68204 5.34223,-15.68204z" fill="none" stroke="#000000"/><path d="M245.67292,121.76781c3.80701,0 6.8932,3.14334 6.8932,7.02085c0,3.87751 -3.0862,7.02085 -6.8932,7.02085c-3.80701,0 -6.8932,-3.14334 -6.8932,-7.02085c0,-3.87751 3.08619,-7.02085 6.8932,-7.02085z" fill="#de3636" stroke="#000000"/><path d="M241.19234,124.18042c1.78326,0 -0.09511,7.29764 2.30665,8.96123c2.59746,1.79915 9.4118,-1.99758 9.4118,-1.20637c0,1.43309 -2.66494,3.64481 -6.07264,3.7786c-0.21332,0.00838 -0.0849,0.35732 -0.30357,0.35732c-3.71184,0 -7.06553,-2.61312 -7.06553,-4.13592c0,-1.52281 -1.98854,-7.75485 1.7233,-7.75485z" fill="#b72c2c" stroke="none"/><path d="M245.84526,121.94013c3.80701,0 6.8932,3.14335 6.8932,7.02086c0,3.87752 -3.08619,7.02086 -6.8932,7.02086c-3.80701,0 -6.8932,-3.14335 -6.8932,-7.02086c0,-3.87752 3.08619,-7.02086 6.8932,-7.02086z" fill="none" stroke="#000000"/></g><g stroke-width="2.5"><path d="M238.69135,120.04175l-3.38693,-24.41836l31.37389,-4.35169l3.38693,24.41836z" fill="#1b1b1b" stroke="#000000" stroke-linecap="butt"/><path d="M236.08479,121.91168l-0.96477,-6.95552l35.36961,-4.90592l0.96477,6.95552z" fill="#7c7c7c" stroke="none" stroke-linecap="butt"/><path d="M244.33267,112.32078c3.60987,-0.50071 -10.09443,5.41072 -3.43461,6.18194c3.97073,0.45982 30.12143,-4.63267 30.24847,-3.7168c0.3401,2.45198 -19.82009,5.61504 -25.58224,6.41428c-5.76215,0.79923 -10.709,-0.54058 -11.04911,-2.99256c-0.3401,-2.45198 4.05535,-5.08761 9.81748,-5.88685z" fill="#585858" stroke="none" stroke-linecap="butt"/><path d="M233.07219,115.92403l-0.80055,-5.77162l38.92139,-5.39856l0.80055,5.77162z" fill="#e1e1e1" stroke="#000000" stroke-linecap="butt"/><path d="M232.58796,114.10066c-0.02701,-0.19474 -0.3817,-2.72863 1.07757,-3.98213c1.18089,-1.01435 4.12419,-0.80141 4.87134,-0.89045c1.81554,-0.21639 -1.71074,2.40894 0.44598,3.26482c1.87084,0.74243 9.30621,-0.2493 12.2991,-0.60732c5.11126,-0.61143 10.42813,-2.42762 14.29968,-2.96463c11.1565,-1.54746 7.18088,-2.05878 7.40762,-0.42411c0.22674,1.63465 -8.6336,4.21425 -19.79011,5.76171c-11.1565,1.54746 -20.38444,1.47676 -20.61118,-0.15788z" fill="#bfbfbf" stroke="none" stroke-linecap="butt"/><g data-paper-data="{&quot;index&quot;:null}" stroke-linecap="butt"><path d="M301.48879,48.70513c-4.21633,1.93598 -9.46618,8.59407 -12.80536,8.1541c-3.88262,-0.51158 -5.58573,-8.51717 -6.37967,-11.87224c-0.78626,-3.32263 -0.90426,-10.3934 1.94247,-13.99265c2.49997,-3.16083 7.63108,-2.93039 11.89477,-4.88814c9.11886,-4.18706 17.70827,-2.5224 19.18504,3.71813c1.47675,6.24051 -4.7184,14.69373 -13.83725,18.8808z" fill="#444444" stroke="#000000"/><path d="M295.84347,52.06353c-0.26454,0.43179 -0.98192,0.54956 -1.25783,0.94568c-2.37134,3.40455 -5.35743,5.20928 -6.60721,4.37578c-1.39518,-0.93046 -6.46374,-21.56524 -3.92552,-25.70831c1.33651,-2.18157 -0.50359,11.1787 7.29802,12.60145c7.01468,1.27924 23.77428,-9.49017 24.43482,-9.04964c0.95597,0.63756 -5.75943,7.04554 -12.25784,11.77174c-2.98555,2.17134 -6.88537,3.75908 -7.68441,5.06331z" fill="#282828" stroke="none"/><path d="M310.15046,40.33495c-3.5723,5.83101 -18.43646,14.05614 -19.70853,13.20777c-1.27207,-0.84837 -6.9508,-11.03298 -3.37848,-16.86398c3.5723,-5.83101 26.12037,-8.1489 27.39245,-7.30056c1.27207,0.84837 -0.73313,5.12575 -4.30544,10.95675z" fill="#b7b7b7" stroke="#000000"/><path d="M312.19234,31.52745c-0.66024,1.0777 4.31531,0.63192 2.41428,3.93984c-1.61036,2.80212 -9.88201,9.28307 -12.75902,11.43218c-4.18556,3.12658 -8.21459,5.56921 -10.85547,6.05923c-1.33417,0.24756 -2.17115,-0.49089 -2.78535,-0.90049c-1.32702,-0.88501 -1.58515,-2.9632 -2.17035,-4.38896c-1.67638,-4.08427 -0.87418,-9.55717 3.23015,-11.70099c7.46608,-3.89978 20.44287,-6.61852 23.07842,-4.86082c0.32786,0.21866 -8.22783,1.36669 -15.16047,3.69025c-5.01735,1.68165 -8.88478,4.30318 -9.35578,6.08039c-0.90128,3.40074 3.34854,10.09617 4.49679,9.89123c3.06208,-0.54646 10.07604,-4.06601 14.21817,-8.72739c4.86469,-5.47453 6.60037,-12.06799 5.64864,-10.51449z" fill="#989898" stroke="none"/><path d="M309.80386,40.89265c-3.5723,5.83101 -18.43646,14.05614 -19.70853,13.20777c-1.27207,-0.84837 -6.9508,-11.03298 -3.37848,-16.86398c3.5723,-5.83101 26.12037,-8.1489 27.39245,-7.30056c1.27207,0.84837 -0.73313,5.12575 -4.30544,10.95675z" fill="none" stroke="#000000"/><path d="M301.22055,48.79328c-4.21633,1.93598 -6.38337,5.9537 -9.72257,5.51371c-3.88262,-0.51158 -4.86707,-4.90702 -5.66101,-8.26206c-0.78626,-3.32263 -4.70571,-11.36319 -1.85896,-14.96246c2.49997,-3.16083 7.63108,-2.93039 11.89477,-4.88814c9.11886,-4.18706 17.70827,-2.5224 19.18504,3.71813c1.47675,6.24051 -4.7184,14.69373 -13.83725,18.8808z" fill="none" stroke="#000000"/></g><g data-paper-data="{&quot;index&quot;:null}" stroke-linecap="butt"><path d="M287.54306,56.12428c-3.66954,3.37439 -6.35084,11.54596 -10.13394,12.37408c-4.39878,0.9629 -9.78644,-5.88748 -12.13051,-8.72865c-2.32142,-2.81371 -5.59061,-9.37867 -4.13173,-13.79934c1.28115,-3.88217 6.89631,-5.57123 10.60708,-8.98356c7.93628,-7.29798 14.70768,-5.29017 19.06773,-0.00551c4.36004,5.28466 4.65764,11.84499 -3.27862,19.14298z" fill="#444444" stroke="#000000"/><path d="M282.97042,61.3585c-0.09232,0.50177 -0.81072,0.8781 -0.93109,1.35073c-1.03465,4.06224 -3.4408,6.85735 -5.15395,6.54217c-1.91246,-0.35185 -16.52865,-17.7571 -15.64294,-22.57155c0.12801,-0.69579 5.17001,-6.02872 5.85671,-4.98771c0.57718,0.87499 -1.05915,3.03805 -0.68671,5.12432c0.79885,4.47507 3.81066,9.70761 8.27125,8.93276c8.10496,-1.40787 16.86643,-14.06372 17.77188,-13.89714c1.31043,0.24109 1.4019,5.09249 -3.47942,11.92182c-2.24261,3.13756 -5.72687,6.06901 -6.00571,7.5846z" fill="#282828" stroke="none"/><path d="M293.12905,45.08617c-1.24656,6.77589 -13.56084,19.98049 -15.30455,19.65971c-1.74371,-0.3208 -12.37112,-7.73226 -11.12456,-14.50815c1.24656,-6.77589 18.80056,-14.12093 20.54425,-13.80014c1.74371,0.3208 7.13143,1.8727 5.88485,8.64858z" fill="#b7b7b7" stroke="#000000"/><path d="M287.38564,37.35894c-0.23039,1.25232 6.03192,2.08692 5.4596,5.88431c-0.48481,3.21671 -3.58327,7.98367 -5.71915,11.06017c-4.67716,6.73692 -11.1896,11.88056 -13.698,11.4191c-5.00617,-0.92098 -8.37303,-5.42594 -7.52011,-10.06207c0.2374,-1.29042 0.41788,-4.42985 2.84322,-6.90447c6.28826,-6.41604 16.18163,-12.07079 19.79438,-11.40615c0.44942,0.08269 -5.3921,2.62844 -11.80772,7.37327c-4.64318,3.43397 -7.63318,7.31965 -7.34937,9.15556c0.54305,3.51304 8.08459,8.19364 9.22719,7.57594c3.04697,-1.64728 9.01845,-7.54012 11.39703,-13.43429c2.79351,-6.92238 -2.29493,-12.46657 -2.62704,-10.66134z" fill="#989898" stroke="none"/><path d="M293.00455,45.73606c-1.24656,6.77589 -13.56084,19.98049 -15.30455,19.65971c-1.74371,-0.3208 -12.37112,-7.73226 -11.12456,-14.50815c1.24656,-6.77589 20.3056,-14.28911 22.04933,-13.96831c1.74371,0.3208 5.62636,2.04087 4.37979,8.81676z" fill="none" stroke="#000000"/><path d="M287.29406,56.30621c-3.66954,3.37439 -6.35084,11.54596 -10.13394,12.37408c-4.39878,0.9629 -9.78644,-5.88748 -12.13051,-8.72865c-2.32142,-2.81371 -5.59061,-9.37867 -4.13173,-13.79934c1.28115,-3.88217 6.89631,-5.57123 10.60708,-8.98356c7.93628,-7.29798 14.75868,-3.27805 19.11871,2.00662c4.36004,5.28466 4.60665,9.83286 -3.32964,17.13084z" fill="none" stroke="#000000"/></g><g stroke-linecap="butt"><path d="M183.04765,32.18214c1.75051,-6.16933 10.40498,-7.45361 19.33033,-2.86852c4.17324,2.14387 9.3095,2.13991 11.66764,5.4079c2.68524,3.7213 2.25557,10.77997 1.32354,14.06472c-0.9411,3.31679 -2.99557,11.23949 -6.897,11.57936c-3.35536,0.29231 -8.30649,-6.59082 -12.43335,-8.71085c-8.92533,-4.5851 -14.7417,-13.30329 -12.9912,-19.47262z" fill="#444444" stroke="#000000"/><path d="M201.53055,55.25884c-0.74072,-1.33821 -4.56677,-3.09638 -7.45367,-5.39726c-6.28369,-5.00819 -12.70998,-11.70605 -11.72683,-12.30084c0.67931,-0.41097 16.94771,11.08702 24.01199,10.11835c7.85674,-1.07732 6.60759,-14.50574 7.84661,-12.26736c2.35305,4.25099 -3.62053,24.64216 -5.05536,25.5102c-1.28531,0.77757 -4.18891,-1.15708 -6.40782,-4.66288c-0.25817,-0.40788 -0.96967,-0.55719 -1.2149,-1.00022z" fill="#282828" stroke="none"/><path d="M187.75471,42.91075c-3.3117,-5.98287 -5.12634,-10.34451 -3.81809,-11.13595c1.30823,-0.79144 23.73216,2.51852 27.04387,8.50137c3.3117,5.98287 -2.81061,15.90717 -4.11886,16.6986c-1.30823,0.79144 -15.79522,-8.08116 -19.10692,-14.06402z" fill="#b7b7b7" stroke="#000000"/><path d="M186.10317,34.02176c-0.88231,-1.59395 0.56095,5.06964 5.17948,10.75335c3.93254,4.8395 10.78449,8.66491 13.81949,9.34588c1.1381,0.25535 5.67903,-6.24615 4.92859,-9.68333c-0.39217,-1.79623 -4.14024,-4.58578 -9.07855,-6.48703c-6.82343,-2.62703 -15.32018,-4.15121 -14.98301,-4.3552c2.71051,-1.63976 15.55478,1.64859 22.84163,5.8738c4.0058,2.32274 4.56589,7.82568 2.71104,11.83206c-0.64751,1.39855 -0.99701,3.46335 -2.36181,4.28899c-0.63165,0.38212 -1.50041,1.08294 -2.82235,0.77679c-2.61671,-0.60601 -6.53409,-3.22392 -10.57771,-6.53204c-2.77943,-2.27389 -10.75726,-9.11329 -12.24249,-11.98369c-1.75333,-3.38855 3.19772,-2.7238 2.58567,-3.82956z" fill="#989898" stroke="none"/><path d="M188.07636,43.48321c-3.3117,-5.98287 -5.12634,-10.34451 -3.81809,-11.13595c1.30823,-0.79144 23.73216,2.51852 27.04387,8.50137c3.3117,5.98287 -2.81061,15.90717 -4.11886,16.6986c-1.30823,0.79144 -15.79522,-8.08116 -19.10692,-14.06402z" fill="none" stroke="#000000"/><path d="M183.31172,32.28203c1.75051,-6.16933 10.40498,-7.45361 19.33033,-2.86852c4.17324,2.14387 9.3095,2.13991 11.66764,5.4079c2.68524,3.7213 -1.58494,11.5812 -2.51697,14.86593c-0.9411,3.31679 -2.11843,7.66454 -6.01984,8.00439c-3.35536,0.29231 -5.34311,-3.81706 -9.46996,-5.9371c-8.92533,-4.5851 -14.7417,-13.30329 -12.9912,-19.47262z" fill="none" stroke="#000000"/></g><g stroke-linecap="butt"><path d="M207.21255,40.41273c4.58883,-5.08727 11.44219,-6.79451 19.04892,0.84634c3.55667,3.57264 9.0919,5.50766 10.20062,9.44255c1.26251,4.4807 -2.29301,10.89512 -4.73623,13.60372c-2.46707,2.73504 -8.15157,9.34119 -12.50361,8.18524c-3.7429,-0.99414 -6.06125,-9.27598 -9.5784,-12.80893c-7.60673,-7.64085 -7.02012,-14.18168 -2.43128,-19.26893z" fill="#444444" stroke="#000000"/><path d="M208.31581,57.27038c-4.57543,-7.03793 -4.2701,-11.88058 -2.95032,-12.06364c0.91191,-0.12648 9.10678,12.90339 17.14176,14.66731c4.42208,0.97077 7.66169,-4.12385 8.65713,-8.55934c0.46407,-2.06781 -1.07529,-4.30092 -0.46009,-5.1496c0.73194,-1.0097 5.53386,4.54036 5.63107,5.24112c0.67255,4.84881 -14.69696,21.59262 -16.62307,21.85979c-1.72538,0.23931 -4.00591,-2.65916 -4.86042,-6.76308c-0.09942,-0.47749 -0.80054,-0.88514 -0.87064,-1.3905c-0.21172,-1.5264 -3.56334,-4.60865 -5.6654,-7.84204z" fill="#282828" stroke="none"/><path d="M204.55,48.40794c-0.94656,-6.82428 4.50435,-8.13707 6.26051,-8.38067c1.75617,-0.24359 18.96916,7.8684 19.91572,14.69267c0.94656,6.82427 -9.99735,13.75989 -11.75352,14.00347c-1.75617,0.24359 -13.47616,-13.4912 -14.42272,-20.31548z" fill="#b7b7b7" stroke="#000000"/><path d="M210.62859,40.9415c-0.25218,-1.81811 -5.58015,3.4963 -3.09463,10.53513c2.11634,5.99332 7.82215,12.14377 10.79353,13.92381c1.11424,0.66749 8.85484,-3.67599 9.55228,-7.16168c0.36448,-1.82158 -2.45126,-5.83534 -6.9385,-9.47072c-6.20014,-5.02313 -11.92371,-7.82403 -11.47108,-7.88681c3.63855,-0.50468 13.27295,5.58084 19.27213,12.26795c2.31385,2.57917 2.35572,5.72351 2.53599,7.02315c0.64764,4.66923 -2.91461,9.02134 -7.95651,9.72067c-2.5263,0.35041 -8.8056,-5.07542 -13.18113,-12.01204c-1.99814,-3.1677 -4.88338,-8.06664 -5.22587,-11.30162c-0.40431,-3.81893 5.88871,-4.37656 5.71377,-5.63781z" fill="#989898" stroke="none"/><path d="M204.64575,49.06271c-0.94656,-6.82428 3.00815,-8.37145 4.76433,-8.61504c1.75617,-0.24359 20.46536,8.10276 21.41191,14.92704c0.94656,6.82427 -9.99735,13.75989 -11.75352,14.00347c-1.75617,0.24359 -13.47616,-13.4912 -14.42272,-20.31548z" fill="none" stroke="#000000"/><path d="M207.3136,42.61341c4.58883,-5.08727 11.58188,-8.80245 19.18859,-1.16159c3.55667,3.57264 9.0919,5.50766 10.20062,9.44255c1.26251,4.4807 -2.29301,10.89512 -4.73623,13.60372c-2.46707,2.73504 -8.15157,9.34119 -12.50361,8.18524c-3.7429,-0.99414 -6.06125,-9.27598 -9.5784,-12.80893c-7.60673,-7.64085 -7.15981,-12.17374 -2.57096,-17.261z" fill="none" stroke="#000000"/></g><g><g><path d="M225.17098,104.52525c-11.0233,-11.96565 -11.14123,-36.13454 -4.56607,-42.19189c4.06768,-3.74733 21.01798,-13.74323 32.98994,-10.71181c7.38008,1.86871 16.11719,2.24474 20.32103,6.80795c11.0233,11.96565 10.22818,35.18836 3.65301,41.24572c-3.25329,2.99706 -15.28996,3.35639 -25.75052,4.40649c-10.68128,1.07224 -21.0782,6.48886 -26.64739,0.44357z" fill="#444444" stroke="#000000" stroke-linecap="butt"/><path d="M217.92639,91.54423c-0.12491,-0.90061 -4.5149,-12.96397 -1.68623,-21.79321c2.4121,-7.52901 11.50994,-11.71473 17.35332,-15.40566c13.88739,-8.77186 37.43429,1.95946 38.64171,1.79199c0.808,-0.11208 -14.11221,-4.87483 -27.56729,-3.34021c-6.56776,0.74908 -12.60568,5.3915 -16.64389,8.18713c-3.14816,2.17946 -8.51308,6.40576 -9.1085,9.78743c-1.55186,8.81361 2.03821,19.71314 2.20624,20.92451c0.48459,3.49376 4.17826,5.273 1.86701,5.59359c-2.31125,0.32057 -4.57776,-2.25179 -5.06235,-5.74555z" fill="#282828" stroke="none" stroke-linecap="butt"/><path d="M228.46248,63.20908c1.88151,-0.26097 12.16137,4.85833 22.40818,4.98368c9.1562,0.11202 18.23018,-4.94686 22.15612,-2.45564c2.98754,1.89574 1.38219,11.29638 2.77209,14.81204c1.98034,5.00912 6.29453,4.31011 6.57387,6.3241c1.02139,7.36378 -25.11113,3.28205 -31.77615,4.20652c-6.66502,0.92445 -12.89609,-4.29563 -13.91748,-11.6594c-1.02139,-7.36378 -14.88164,-15.28679 -8.21663,-16.21128z" fill="#282828" stroke="none" stroke-linecap="butt"/><path d="M225.07175,104.27599c-11.0233,-11.96565 -11.14123,-36.13454 -4.56607,-42.19189c4.06768,-3.74733 21.01798,-13.74323 32.98994,-10.71181c7.38008,1.86871 16.11719,2.24474 20.32103,6.80795c11.0233,11.96565 10.22818,35.18836 3.65301,41.24572c-3.25329,2.99706 -15.28996,3.35639 -25.75053,4.40648c-10.68128,1.07224 -21.0782,6.48886 -26.64739,0.44358z" fill="none" stroke="#000000" stroke-linecap="butt"/><path d="M225.95517,82.77596c-0.39996,-2.88346 -2.24213,-12.78489 0.80514,-16.17647c3.55002,-3.95117 12.28669,-1.2264 15.27539,-1.64095c5.55414,-0.77038 3.16687,8.78494 4.03276,15.0276c0.86588,6.24267 -2.9347,11.92785 -8.48882,12.69823c-5.55414,0.77038 -10.75858,-3.66577 -11.62446,-9.90844z" fill="#000000" stroke="#000000" stroke-linecap="butt"/><path d="M273.71325,78.69691c0.66454,4.79104 -3.29927,9.29946 -8.8534,10.06983c-5.55414,0.77038 -10.59537,-2.489 -11.25989,-7.28004c-0.66454,-4.79104 -5.27047,-11.23145 0.28367,-12.00182c2.9887,-0.41454 10.77849,-4.51623 15.16046,-2.46954c3.76137,1.75683 4.36223,9.4686 4.66918,11.68157z" data-paper-data="{&quot;index&quot;:null}" fill="#000000" stroke="#000000" stroke-linecap="butt"/><path d="M226.30587,104.43072c-0.04483,-0.32316 -3.3011,-2.80852 -3.23081,-3.19822c0.25158,-1.39458 -4.72939,-4.7477 -2.28472,-6.18893c5.50803,-3.2472 21.78015,-4.37552 29.25372,-5.41214c8.09168,-1.12234 25.14787,-3.97255 30.90537,-0.99867c2.57993,1.33258 -2.54555,8.07694 -2.37022,9.341c0.56661,4.08502 -14.95472,3.46303 -26.67228,5.0883c-11.71755,1.62528 -25.03446,5.45368 -25.60108,1.36866z" fill="#b7b7b7" stroke="#000000" stroke-linecap="butt"/><path d="M226.23082,104.33622c-0.06647,-0.47921 -7.32366,-7.67955 -6.50222,-8.23197c1.52204,-1.02359 8.20317,5.60654 13.86336,6.11774c6.36137,0.57452 14.4016,-0.30917 20.45702,-1.14909c5.38518,-0.74696 13.31385,-0.33411 18.27052,-2.80845c4.61364,-2.30308 6.38303,-7.52084 8.14439,-7.74229c1.38929,-0.17467 -2.35276,5.95395 -2.26239,6.6055c0.32287,2.32774 -9.51119,4.23342 -23.54171,6.23975c-0.22461,0.03212 -1.47723,-0.19044 -1.70337,-0.15907c-14.35131,1.99059 -26.39758,3.49286 -26.72561,1.12786z" fill="#989898" stroke="none" stroke-linecap="butt"/><path d="M226.26064,104.57073c-0.04483,-0.32315 -3.30111,-2.80852 -3.23082,-3.19822c0.25158,-1.39458 -4.72939,-4.7477 -2.28473,-6.18893c5.50803,-3.2472 21.78016,-4.37552 29.25373,-5.41214c8.09168,-1.12234 25.14786,-3.97255 30.90537,-0.99867c2.57993,1.33258 -2.54555,8.07694 -2.37022,9.341c0.56661,4.08502 -14.95472,3.46303 -26.67228,5.0883c-11.71755,1.62528 -25.03445,5.45368 -25.60107,1.36867z" fill="none" stroke="#000000" stroke-linecap="butt"/><path d="M250.66942,88.88487c6.66502,-0.92445 12.26754,-0.23599 12.51357,1.53778c0.24603,1.77375 -4.9576,3.9611 -11.62261,4.88557c-6.66502,0.92445 -12.26754,0.23599 -12.51357,-1.53778c-0.24603,-1.77375 4.9576,-3.9611 11.62261,-4.88557z" fill="#000000" stroke="#000000" stroke-linecap="butt"/><path d="M225.2069,94.59777l2.81736,-2.57308l3.11435,-0.43197l-1.82278,4.02228l0.21034,2.9467" fill="none" stroke="#000000" stroke-linecap="round"/><path d="M236.11278,91.69635l-5.98571,2.61578" fill="none" stroke="#000000" stroke-linecap="round"/><path d="M233.33811,97.43778l-0.53996,-3.89294" fill="none" stroke="#000000" stroke-linecap="round"/><path d="M240.30256,93.7136l-5.52545,-1.21752" fill="none" stroke="#000000" stroke-linecap="round"/><path d="M236.18812,93.66982l0.6693,6.2557" fill="none" stroke="#000000" stroke-linecap="round"/><path d="M271.70178,80.80827l3.16704,7.09961l-10.62457,2.06884l-0.32399,-2.33576" fill="none" stroke="#000000" stroke-linecap="round"/><path d="M266.43498,84.31628l6.16339,1.5258" fill="none" stroke="#000000" stroke-linecap="round"/><path d="M266.03876,92.90206l-0.08536,-6.33668" fill="none" stroke="#000000" stroke-linecap="round"/><path d="M268.94842,88.13387l0.442,7.47757" fill="none" stroke="#000000" stroke-linecap="round"/><path d="M272.90539,92.34642l-1.31855,-3.78495" fill="none" stroke="#000000" stroke-linecap="round"/><path d="M276.10073,92.49838l-2.53477,-5.40176" fill="none" stroke="#000000" stroke-linecap="round"/></g><path d="M268.34268,59.45112l-0.26999,-1.94648l1.95212,-1.65951" fill="none" stroke="#000000" stroke-linecap="round"/><path d="M234.37179,61.98071l-0.03265,1.19487l-0.83823,1.10821" fill="none" stroke="#000000" stroke-linecap="round"/></g><path d="M236.04374,121.61571l-0.69791,-5.03166l35.36961,-4.90592l0.69791,5.03166z" fill="none" stroke="#000000" stroke-linecap="butt"/><path d="M233.42627,115.79443l-0.80055,-5.77162l38.92139,-5.39856l0.80055,5.77162z" fill="none" stroke="#000000" stroke-linecap="butt"/><path d="M241.88321,109.34211l0.46782,4.46024" fill="none" stroke="#000000" stroke-linecap="round"/><path d="M255.92505,111.61789l-0.57475,-4.14371" fill="none" stroke="#000000" stroke-linecap="round"/><path d="M265.75397,110.70708l-1.69278,-4.592" fill="none" stroke="#000000" stroke-linecap="round"/></g><g><path d="M172.74463,170.30553c6.24722,-5.28084 15.21282,-4.94669 20.02518,0.74634c4.81238,5.69303 3.64921,14.58912 -2.59802,19.86997c-6.24723,5.28084 -15.21282,4.94668 -20.02519,-0.74635c-4.81239,-5.69303 -3.64921,-14.58912 2.59802,-19.86997z" fill="#444444" stroke="#000000" stroke-width="0" stroke-linecap="butt"/><path d="M169.23166,174.79104c3.52665,-2.98112 11.49909,-13.04056 15.75784,-8.00248c0.7145,0.84525 -4.92066,2.32965 -8.57656,6.35311c-3.46779,3.81645 -4.95375,10.15519 -4.78145,11.8457c0.72873,7.15007 15.39619,6.04161 13.02244,8.04817c-3.52666,2.98111 -9.83797,1.31362 -14.09672,-3.72448c-4.25875,-5.03809 -4.85221,-11.53894 -1.32555,-14.52006z" fill="#282828" stroke="none" stroke-width="0" stroke-linecap="butt"/><path d="M192.16223,171.52716c4.81239,5.69303 3.64921,14.58912 -2.59802,19.86997c-6.24723,5.28084 -15.21281,4.9467 -20.02518,-0.74634c-4.81239,-5.69303 -3.64921,-14.58912 2.59802,-19.86997c6.24723,-5.28084 15.21281,-4.9467 20.02518,0.74634z" fill="none" stroke="#000000" stroke-width="3.5" stroke-linecap="butt"/><g><path d="M180.59974,202.76613c4.73579,-4.00322 -0.42391,-14.56356 1.53512,-12.24604c0.91561,1.08315 8.29132,-1.05968 10.00728,2.98797c1.95549,4.6127 -1.92576,15.51834 -4.44815,17.65055c-4.7358,4.00322 -10.16301,5.36975 -12.12204,3.05223c-1.95903,-2.31752 0.29199,-7.44149 5.0278,-11.44472z" fill="#840000" stroke="#000000" stroke-width="0" stroke-linecap="butt"/><path d="M182.53184,192.08151c0.82197,-3.07403 4.18016,-1.78329 4.58649,-1.3026c1.10728,1.30991 -2.92128,21.23807 -4.88613,22.89898c-1.96485,1.66092 -4.4553,1.94545 -5.56258,0.63555c-1.10727,-1.3099 -0.94068,-3.7952 1.02417,-5.45612c1.24382,-1.05141 3.29372,-11.00029 4.83804,-16.77582z" fill="#430000" stroke="none" stroke-width="0" stroke-linecap="butt"/><path d="M182.03152,190.25711c0.91561,1.08315 8.29132,-1.05968 10.00728,2.98797c1.95549,4.6127 -1.92576,15.51834 -4.44815,17.65055c-4.73579,4.00322 -10.16302,5.36975 -12.12204,3.05223c-1.95902,-2.31751 0.29201,-7.44148 5.0278,-11.4447c4.73579,-4.00322 -0.4239,-14.56356 1.53512,-12.24604z" fill="none" stroke="#000000" stroke-width="3.5" stroke-linecap="butt"/><path d="M190.45723,205.03154l-8.37336,-3.24468" fill="none" stroke="#000000" stroke-width="3.5" stroke-linecap="round"/></g><g data-paper-data="{&quot;index&quot;:null}"><path d="M164.25417,193.11003c-2.11187,5.83042 -6.13683,9.71908 -8.99,8.68562c-2.85319,-1.03347 -3.45412,-6.59772 -1.34225,-12.42813c1.12484,-3.1054 10.00696,-10.52868 15.01157,-10.29469c4.39156,0.20533 4.94032,7.86638 6.27381,8.34941c2.85319,1.03347 -8.84128,-0.14261 -10.95315,5.68778z" fill="#840000" stroke="#000000" stroke-width="0" stroke-linecap="butt"/><path d="M159.54921,197.94849c-0.87619,2.41899 -3.14939,3.43736 -4.76206,2.85324c-1.61267,-0.58413 -2.20969,-3.01864 -1.3335,-5.43764c0.87619,-2.41899 18.16951,-13.11021 19.78219,-12.52607c0.59179,0.21436 2.96731,2.91629 0.36927,4.75355c-4.8812,3.45188 -13.50125,8.82561 -14.05591,10.35693z" fill="#430000" stroke="none" stroke-width="0" stroke-linecap="butt"/><path d="M164.53666,193.11573c-2.11187,5.8304 -6.13683,9.71908 -8.98999,8.68562c-2.85318,-1.03347 -3.45412,-6.59773 -1.34225,-12.42813c1.12484,-3.1054 10.00696,-10.52868 15.01157,-10.29469c4.39156,0.20533 4.94032,7.86638 6.27381,8.34941c2.85318,1.03347 -8.84128,-0.14261 -10.95315,5.68778z" fill="none" stroke="#000000" stroke-width="3.5" stroke-linecap="butt"/><path d="M158.70999,184.65046l5.94782,6.7279" fill="none" stroke="#000000" stroke-width="3.5" stroke-linecap="round"/></g><g data-paper-data="{&quot;index&quot;:null}"><path d="M171.54247,201.15172c0.23476,6.19665 -2.03318,11.31316 -5.06558,11.42804c-3.03241,0.11489 -5.68097,-4.81535 -5.91573,-11.012c-0.12504,-3.30047 5.31512,-13.51822 10.04063,-15.18269c4.14666,-1.46058 7.53506,5.43228 8.95234,5.37859c3.03241,-0.11489 -8.24642,3.19141 -8.01167,9.38806z" fill="#840000" stroke="#000000" stroke-width="0" stroke-linecap="butt"/><path d="M169.00144,207.40395c0.09741,2.57096 -1.62625,4.36916 -3.34021,4.43408c-1.71397,0.06494 -3.18237,-1.96659 -3.27977,-4.53753c-0.09741,-2.57096 11.90853,-18.97882 13.62251,-19.04376c0.62897,-0.02382 3.84595,1.58692 2.12912,4.26607c-3.22557,5.03361 -9.1933,13.25361 -9.13165,14.8811z" fill="#430000" stroke="none" stroke-width="0" stroke-linecap="butt"/><path d="M171.80637,201.0508c0.23476,6.19664 -2.03318,11.31316 -5.06556,11.42804c-3.03239,0.11489 -5.68095,-4.81535 -5.91573,-11.012c-0.12504,-3.30047 5.31512,-13.51822 10.04063,-15.18269c4.14666,-1.46058 7.53506,5.43228 8.95234,5.37859c3.03239,-0.11489 -8.24642,3.19141 -8.01167,9.38806z" fill="none" stroke="#000000" stroke-width="3.5" stroke-linecap="butt"/><path d="M163.22484,195.39675l8.04068,3.99857" fill="none" stroke="#000000" stroke-width="3.5" stroke-linecap="round"/></g><g><path d="M156.99196,181.24642c-3.24485,5.28438 -7.97164,8.28097 -10.55761,6.69305c-2.58597,-1.5879 -2.05185,-7.15897 1.19299,-12.44334c1.72829,-2.81458 11.92553,-8.29301 16.78,-7.05404c4.25981,1.08719 3.25149,8.70142 4.46012,9.44356c2.58597,1.5879 -8.63067,-1.9236 -11.87549,3.36076z" fill="#444444" stroke="#000000" stroke-width="0" stroke-linecap="butt"/><path d="M151.73674,185.41328c-1.34627,2.19245 -4.10742,2.35398 -5.56906,1.45647c-1.46163,-0.89751 -1.55518,-3.40241 -0.2089,-5.59487c1.34627,-2.19245 20.44108,-9.17449 21.90273,-8.27698c0.53637,0.32935 2.31785,3.45502 -0.59745,4.73029c-5.4773,2.396 -14.2587,5.69925 -15.11093,7.08715z" fill="#282828" stroke="none" stroke-width="0" stroke-linecap="butt"/><path d="M157.26748,181.309c-3.24483,5.28437 -7.97164,8.28097 -10.55761,6.69306c-2.58596,-1.5879 -2.05185,-7.15898 1.19299,-12.44334c1.72829,-2.81458 11.92553,-8.29301 16.78,-7.05404c4.25981,1.08719 3.25149,8.70142 4.46012,9.44356c2.58596,1.5879 -8.63067,-1.9236 -11.87549,3.36076z" fill="none" stroke="#000000" stroke-width="3.5" stroke-linecap="butt"/><path d="M157.73668,179.6318l-4.46798,-7.78963" fill="none" stroke="#000000" stroke-width="3.5" stroke-linecap="round"/></g><g><path d="M163.48638,192.68763c-1.53577,6.00791 -5.16412,10.26904 -8.10417,9.51748c-2.94005,-0.75154 -4.07844,-6.23116 -2.54266,-12.23907c0.81798,-3.19994 8.93736,-11.45059 13.94105,-11.70365c4.39075,-0.22205 5.68078,7.34952 7.0549,7.70078c2.94005,0.75154 -8.81335,0.71653 -10.34911,6.72443z" fill="#444444" stroke="#000000" stroke-width="0" stroke-linecap="butt"/><path d="M159.69959,198.22298c-0.63718,2.49264 -3.22687,3.46401 -4.88864,3.03923c-1.66176,-0.42478 -2.49236,-2.78983 -1.85518,-5.28247c0.63718,-2.49264 16.81068,-14.81249 18.47245,-14.3877c0.60981,0.15588 3.23645,2.61438 0.82909,4.69523c-4.52296,3.90954 -11.93358,9.66342 -12.33695,11.24135z" fill="#282828" stroke="none" stroke-width="0" stroke-linecap="butt"/><path d="M163.76808,192.66588c-1.53576,6.00791 -5.16412,10.26904 -8.10418,9.5175c-2.94004,-0.75154 -4.07844,-6.23117 -2.54266,-12.23907c0.81798,-3.19994 8.93736,-11.45059 13.94105,-11.70365c4.39075,-0.22205 5.68078,7.34952 7.0549,7.70078c2.94004,0.75154 -8.81335,0.71653 -10.34911,6.72443z" fill="none" stroke="#000000" stroke-width="3.5" stroke-linecap="butt"/><path d="M157.14697,184.80636l6.57297,6.1186" fill="none" stroke="#000000" stroke-width="3.5" stroke-linecap="round"/></g><g><path d="M171.28195,201.02973c0.77107,6.15298 -1.04478,11.44682 -4.05581,11.82416c-3.01103,0.37734 -6.07702,-4.30474 -6.84808,-10.45771c-0.41068,-3.27721 4.12321,-13.92808 8.68664,-15.99596c4.00442,-1.81456 7.97762,4.75863 9.3849,4.58227c3.01103,-0.37734 -7.93871,3.89428 -7.16764,10.04724z" fill="#444444" stroke="#000000" stroke-width="0" stroke-linecap="butt"/><path d="M169.78532,207.5673c0.31992,2.55284 -1.73417,4.40509 -3.43604,4.61837c-1.70188,0.21328 -3.34088,-1.68331 -3.66078,-4.23614c-0.31992,-2.55284 10.21842,-19.93972 11.92031,-20.153c0.62453,-0.07826 3.96903,1.24755 2.49094,4.06545c-2.77706,5.29431 -7.56576,13.36231 -7.36326,14.97834z" fill="#282828" stroke="none" stroke-width="0" stroke-linecap="butt"/><path d="M171.53613,200.90632c0.77107,6.15296 -1.04478,11.44682 -4.0558,11.82416c-3.01103,0.37734 -6.07703,-4.30475 -6.84808,-10.45771c-0.41068,-3.27721 4.12321,-13.92808 8.68664,-15.99596c4.00442,-1.81456 7.97762,4.75863 9.3849,4.58227c3.01103,-0.37734 -7.93871,3.89428 -7.16764,10.04724z" fill="none" stroke="#000000" stroke-width="3.5" stroke-linecap="butt"/><path d="M162.49675,196.01748l8.35705,3.28648" fill="none" stroke="#000000" stroke-width="3.5" stroke-linecap="round"/></g><g data-paper-data="{&quot;index&quot;:null}"><path d="M180.66876,203.58328c5.09147,-3.53981 0.94838,-14.53885 2.68065,-12.04726c0.80961,1.16451 8.35425,-0.27475 9.6817,3.9164c1.51276,4.77625 -3.37747,15.26828 -6.08932,17.15369c-5.09149,3.53982 -10.6232,4.38961 -12.35546,1.89803c-1.73227,-2.49158 0.99093,-7.38099 6.08241,-10.92081z" fill="#444444" stroke="#000000" stroke-width="0" stroke-linecap="butt"/><path d="M177.3805,208.61708c1.33724,-0.92971 4.13623,-9.8846 6.21719,-15.48919c1.10759,-2.98305 4.32942,-1.38203 4.68871,-0.86522c0.97909,1.40829 -4.90681,20.86894 -7.01922,22.33759c-2.11242,1.46865 -4.6186,1.51758 -5.59769,0.1093c-0.97909,-1.40829 -0.97471,-4.17416 1.13771,-5.64281z" fill="#282828" stroke="none" stroke-width="0" stroke-linecap="butt"/><path d="M180.5906,203.31176c5.09147,-3.53981 0.94839,-14.53883 2.68065,-12.04724c0.80961,1.16451 8.35425,-0.27476 9.68171,3.91639c1.51276,4.77625 -3.37747,15.26828 -6.08932,17.15369c-5.09148,3.53981 -10.62322,4.38959 -12.35546,1.89803c-1.73225,-2.49158 0.99094,-7.381 6.08242,-10.92082z" fill="none" stroke="#000000" stroke-width="3.5" stroke-linecap="butt"/><path d="M190.26932,206.76625l-8.0309,-4.01821" fill="none" stroke="#000000" stroke-width="3.5" stroke-linecap="round"/></g></g></g></g></svg>