<svg version="1.1" xmlns="http://www.w3.org/2000/svg" xmlns:xlink="http://www.w3.org/1999/xlink" width="453" height="187.75" viewBox="0,0,453,187.75"><g transform="translate(-18.95312,-61)"><g data-paper-data="{&quot;isPaintingLayer&quot;:true}" fill-rule="nonzero" stroke-linecap="butt" stroke-linejoin="miter" stroke-miterlimit="10" stroke-dasharray="" stroke-dashoffset="0" style="mix-blend-mode: normal"><path d="M22.95313,208v-144h444v144z" fill="#8a8a8a" stroke="none" stroke-width="0"/><path d="M215.95313,208v-117h88v117z" fill="#000000" stroke="none" stroke-width="0"/><path d="M20.95313,220l1,-143c0,0 10.74279,52.12862 41.39405,86.43485c23.2183,25.98693 63.40071,35.78056 87.23009,39.14659c46.03427,6.5026 172.81956,3.16608 246.56112,-16.0277c58.13639,-15.132 70.81473,-46.55373 70.81473,-46.55373c0,0 12.68621,58.04692 -18.25515,70.80625c-33.51885,13.82221 -175.74485,9.19375 -175.74485,9.19375z" fill="#4e4e4e" stroke="none" stroke-width="0"/><path d="M24.95313,208v-144h444v144z" fill="none" stroke="#000000" stroke-width="6"/><path d="M21.95313,246v-57h446v57z" fill="#5f5f5f" stroke="none" stroke-width="0"/><path d="M18.95313,240v-38c0,0 5.1643,-13 35,-13c30.73685,0 88.33825,29.58778 168.01319,31.42953c110.01665,2.54312 238.98681,-31.42953 238.98681,-31.42953c0,0 7,33.63609 7,42c0,3.33605 -2,11 -2,11c0,0 -344.2586,5 -410,5c-21.58175,0 -37,-7 -37,-7z" fill="#3d3d3d" stroke="none" stroke-width="0"/><path d="M21.95313,246v-57h446v57z" fill="none" stroke="#000000" stroke-width="5.5"/></g></g></svg>