<svg version="1.1" xmlns="http://www.w3.org/2000/svg" xmlns:xlink="http://www.w3.org/1999/xlink" width="161.71213" height="327.08164" viewBox="0,0,161.71213,327.08164"><g transform="translate(-159.00984,-16.45039)"><g data-paper-data="{&quot;isPaintingLayer&quot;:true}" fill-rule="nonzero" stroke-linejoin="miter" stroke-miterlimit="10" stroke-dasharray="" stroke-dashoffset="0" style="mix-blend-mode: normal"><g stroke-linecap="butt"><path d="M256.42666,264.46021l-6.66202,-58.08459l9.21166,-1.05653l6.66203,58.08459z" data-paper-data="{&quot;index&quot;:null}" fill="#1b1b1b" stroke="#000000" stroke-width="2.5"/><path d="M256.46703,321.56591l-0.10667,-58.4653l9.27203,-0.01691l0.10667,58.4653z" data-paper-data="{&quot;index&quot;:null}" fill="#1b1b1b" stroke="#000000" stroke-width="2.5"/><path d="M275.3701,284.7311c0,9.38815 -5.70795,16.99875 -12.74906,16.99875c-7.04111,0 -12.74906,-7.61061 -12.74906,-16.99875c0,-2.72571 -1.10918,-22.52342 1.54549,-28.42758c2.75568,-6.12882 9.30745,1.53494 10.91916,-6.75851c2.18336,-11.235 -2.33279,-27.91533 0.54196,-27.91533c7.04111,0 12.49151,53.71325 12.49151,63.1014z" data-paper-data="{&quot;index&quot;:null}" fill="#444444" stroke="#000000" stroke-width="0"/><path d="M275.13974,289.02895c0,6.32988 -5.47733,11.46128 -12.23395,11.46128c-2.59958,0 -9.75552,-1.44763 -11.7138,-8.18489c-3.13154,-10.77368 -0.39136,-29.25849 -0.39136,-33.15298c0,-1.99533 13.12871,38.95003 18.86496,34.7239c3.43484,-2.53059 0.0427,-18.14484 1.00505,-24.14884c2.52896,-15.77771 -9.8285,-47.53445 -6.47706,-47.53445c6.75663,0 10.94617,60.5061 10.94617,66.83598z" data-paper-data="{&quot;index&quot;:null}" fill="#282828" stroke="none" stroke-width="0"/><path d="M275.3701,284.47355c0,9.38815 -5.70795,16.99874 -12.74906,16.99874c-7.04111,0 -12.74906,-7.6106 -12.74906,-16.99874c0,-2.72571 -1.10918,-22.52345 1.54549,-28.42759c2.75568,-6.12882 9.30745,1.53493 10.91915,-6.75851c2.18336,-11.235 -2.33278,-27.91531 0.54197,-27.91531c7.04111,0 12.49151,53.71326 12.49151,63.10141z" data-paper-data="{&quot;index&quot;:null}" fill="none" stroke="#000000" stroke-width="3"/></g><g stroke-linecap="butt"><path d="M222.83352,261.40367l6.66202,-58.08459l9.21165,1.05653l-6.66202,58.08459z" data-paper-data="{&quot;index&quot;:null}" fill="#1b1b1b" stroke="#000000" stroke-width="2.5"/><path d="M222.73279,319.549l0.10667,-58.4653l9.27203,0.01691l-0.10667,58.4653z" data-paper-data="{&quot;index&quot;:null}" fill="#1b1b1b" stroke="#000000" stroke-width="2.5"/><path d="M213.10175,282.73109c0,-9.38815 5.4504,-63.1014 12.49151,-63.1014c2.87474,0 -1.6414,16.68033 0.54196,27.91533c1.61172,8.29345 8.16348,0.62969 10.91916,6.7585c2.65466,5.90415 1.54549,25.70187 1.54549,28.42758c0,9.38815 -5.70795,16.99875 -12.74906,16.99875c-7.04111,0 -12.74906,-7.6106 -12.74906,-16.99875z" fill="#444444" stroke="#000000" stroke-width="0"/><path d="M213.33209,287.02894c0,-6.32988 4.18954,-66.83598 10.94617,-66.83598c3.35143,0 -9.00602,31.75673 -6.47706,47.53444c0.96236,6.004 -2.42979,21.61826 1.00506,24.14884c5.73625,4.22613 18.86495,-36.71923 18.86495,-34.7239c0,3.89449 2.74018,22.3793 -0.39135,33.15298c-1.95828,6.73725 -9.11422,8.18489 -11.7138,8.18489c-6.75663,0 -12.23395,-5.13139 -12.23395,-11.46128z" fill="#282828" stroke="none" stroke-width="0"/><path d="M213.10175,282.47355c0,-9.38815 5.4504,-63.10141 12.49151,-63.10141c2.87475,0 -1.64139,16.68032 0.54197,27.91532c1.6117,8.29343 8.16347,0.62969 10.91915,6.7585c2.65466,5.90414 1.54549,25.70187 1.54549,28.42759c0,9.38815 -5.70795,16.99874 -12.74906,16.99874c-7.04111,0 -12.74906,-7.6106 -12.74906,-16.99874z" fill="none" stroke="#000000" stroke-width="3"/></g><g data-paper-data="{&quot;index&quot;:null}" stroke-linecap="butt"><g><path d="M296.86279,323.63141c0,3.46303 2.88695,8.34782 -1.24827,10.74253c-4.79665,2.77775 -17.17574,2.80122 -24.94421,2.80122c-7.25019,0 -16.51263,-0.48803 -21.25521,-2.94933c-4.71986,-2.44953 -4.93725,-6.86339 -4.93725,-10.59442c0,-7.48001 11.72677,-13.54375 26.19246,-13.54375c14.46568,0 26.19245,6.06374 26.19245,13.54375z" fill="#444444" stroke="#000000" stroke-width="0"/><path d="M297.39013,330.8036c0,4.00204 -11.88797,7.24633 -26.5525,7.24633c-14.66453,0 -26.55249,-3.24429 -26.55249,-7.24633c0,-4.00204 -2.15336,-17.9433 12.51118,-17.9433c2.49808,0 -3.31978,3.4237 -6.72565,7.66328c-3.12289,3.88732 -3.90257,8.57051 -1.08241,9.5949c6.29226,2.2856 22.27373,3.91037 33.10457,3.15514c10.09931,-0.70422 15.29731,-3.77053 15.29731,-2.47003z" fill="#282828" stroke="none" stroke-width="0"/><path d="M296.31005,323.9886c0,3.46303 2.88697,8.34782 -1.24824,10.74253c-4.79665,2.77775 -17.17574,2.80121 -24.94421,2.80121c-7.25019,0 -16.51261,-0.48802 -21.25519,-2.94933c-4.71986,-2.44953 -4.93725,-6.86338 -4.93725,-10.5944c0,-7.48 11.72676,-13.54375 26.19245,-13.54375c14.4657,0 26.19246,6.06374 26.19246,13.54375z" fill="none" stroke="#000000" stroke-width="3.5"/></g><g><path d="M308.62485,326.72209c0,3.46303 1.24243,8.34782 -0.53721,10.74253c-2.0643,2.77775 -7.39178,2.80122 -10.73503,2.80122c-3.12021,0 -7.1064,-0.48804 -9.14742,-2.94934c-2.03125,-2.44953 -2.12481,-6.86338 -2.12481,-10.59441c0,-7.48001 5.04675,-13.54375 11.27223,-13.54375c6.22548,0 11.27223,6.06374 11.27223,13.54375z" fill="#444444" stroke="#000000" stroke-width="0"/><path d="M308.85181,333.89429c0,4.00204 -5.11612,7.24633 -11.42717,7.24633c-6.31106,0 -11.42718,-3.24429 -11.42718,-7.24633c0,-4.00204 -0.92673,-17.94331 5.38433,-17.94331c1.07508,0 -1.42871,3.42372 -2.89446,7.6633c-1.34398,3.88732 -1.67951,8.5705 -0.46582,9.5949c2.70795,2.2856 9.58576,3.91036 14.24694,3.15513c4.34636,-0.70422 6.58337,-3.77053 6.58337,-2.47003z" fill="#282828" stroke="none" stroke-width="0"/><path d="M308.38698,327.07928c0,3.46303 1.24244,8.34783 -0.5372,10.74253c-2.0643,2.77775 -7.39179,2.8012 -10.73504,2.8012c-3.12021,0 -7.10639,-0.48802 -9.14741,-2.94933c-2.03125,-2.44953 -2.12481,-6.86338 -2.12481,-10.5944c0,-7.48 5.04675,-13.54374 11.27223,-13.54374c6.22548,0 11.27223,6.06374 11.27223,13.54374z" fill="none" stroke="#000000" stroke-width="3.5"/></g><g><path d="M275.78637,327.88109c0,3.46303 1.24243,8.34783 -0.53721,10.74253c-2.0643,2.77775 -7.39178,2.80122 -10.73503,2.80122c-3.12021,0 -7.10641,-0.48804 -9.14743,-2.94934c-2.03125,-2.44953 -2.1248,-6.86338 -2.1248,-10.59441c0,-7.48001 5.04675,-13.54374 11.27223,-13.54374c6.22547,0 11.27223,6.06374 11.27223,13.54374z" fill="#444444" stroke="#000000" stroke-width="0"/><path d="M276.01331,335.05329c0,4.00204 -5.11612,7.24633 -11.42718,7.24633c-6.31106,0 -11.42718,-3.24429 -11.42718,-7.24633c0,-4.00204 -0.92672,-17.9433 5.38433,-17.9433c1.07508,0 -1.42871,3.4237 -2.89446,7.66328c-1.34398,3.88732 -1.67952,8.57052 -0.46583,9.59491c2.70795,2.2856 9.58577,3.91036 14.24695,3.15513c4.34635,-0.70422 6.58338,-3.77053 6.58338,-2.47003z" fill="#282828" stroke="none" stroke-width="0"/><path d="M275.54849,328.23829c0,3.46303 1.24244,8.34782 -0.53719,10.74253c-2.0643,2.77775 -7.39179,2.80121 -10.73504,2.80121c-3.12021,0 -7.10639,-0.48802 -9.14742,-2.94933c-2.03125,-2.44953 -2.12481,-6.86338 -2.12481,-10.5944c0,-7.48 5.04675,-13.54375 11.27223,-13.54375c6.22548,0 11.27224,6.06374 11.27224,13.54375z" fill="none" stroke="#000000" stroke-width="3.5"/></g><g><path d="M294.71679,326.14259c0,3.46303 1.24243,8.34782 -0.53721,10.74253c-2.0643,2.77775 -7.39178,2.80121 -10.73504,2.80121c-3.12021,0 -7.1064,-0.48803 -9.14742,-2.94933c-2.03125,-2.44953 -2.12481,-6.86338 -2.12481,-10.5944c0,-7.48001 5.04675,-13.54375 11.27223,-13.54375c6.22547,0 11.27223,6.06374 11.27223,13.54375z" fill="#444444" stroke="#000000" stroke-width="0"/><path d="M294.94374,333.31478c0,4.00204 -5.11612,7.24633 -11.42717,7.24633c-6.31106,0 -11.42717,-3.24429 -11.42717,-7.24633c0,-4.00204 -0.92673,-17.94331 5.38432,-17.94331c1.07508,0 -1.42871,3.42371 -2.89446,7.66329c-1.34398,3.88732 -1.67953,8.57051 -0.46583,9.5949c2.70795,2.2856 9.58577,3.91036 14.24695,3.15513c4.34635,-0.70422 6.58338,-3.77052 6.58338,-2.47003z" fill="#282828" stroke="none" stroke-width="0"/><path d="M294.47891,326.49977c0,3.46303 1.24244,8.34783 -0.53719,10.74254c-2.0643,2.77775 -7.39178,2.8012 -10.73503,2.8012c-3.12021,0 -7.1064,-0.48801 -9.14742,-2.94932c-2.03125,-2.44953 -2.1248,-6.86339 -2.1248,-10.59442c0,-7.48 5.04675,-13.54374 11.27223,-13.54374c6.22548,0 11.27223,6.06373 11.27223,13.54374z" fill="none" stroke="#000000" stroke-width="3.5"/></g></g><g stroke-linecap="butt"><g><path d="M191.60907,321.63141c0,-7.48001 11.72678,-13.54375 26.19245,-13.54375c14.4657,0 26.19246,6.06374 26.19246,13.54375c0,3.73103 -0.21738,8.14488 -4.93725,10.59441c-4.74258,2.4613 -14.00502,2.94933 -21.25521,2.94933c-7.76847,0 -20.14755,-0.02346 -24.94421,-2.80122c-4.13521,-2.39471 -1.24827,-7.27949 -1.24827,-10.74253z" fill="#444444" stroke="#000000" stroke-width="0"/><path d="M191.0817,328.80359c0,-1.30049 5.19801,1.76582 15.29731,2.47003c10.83084,0.75523 26.81231,-0.86954 33.10457,-3.15514c2.82016,-1.0244 2.04049,-5.70758 -1.08241,-9.5949c-3.40587,-4.23958 -9.22373,-7.66329 -6.72565,-7.66329c14.66453,0 12.51118,13.94126 12.51118,17.9433c0,4.00204 -11.88795,7.24633 -26.55249,7.24633c-14.66453,0 -26.5525,-3.24429 -26.5525,-7.24633z" fill="#282828" stroke="none" stroke-width="0"/><path d="M192.16177,321.9886c0,-7.48001 11.72676,-13.54375 26.19246,-13.54375c14.4657,0 26.19245,6.06375 26.19245,13.54375c0,3.73103 -0.21739,8.14488 -4.93726,10.59441c-4.74258,2.46131 -14.005,2.94933 -21.25518,2.94933c-7.76847,0 -20.14755,-0.02346 -24.94421,-2.80121c-4.13521,-2.39471 -1.24825,-7.27949 -1.24825,-10.74253z" fill="none" stroke="#000000" stroke-width="3.5"/></g><g><path d="M179.847,324.72208c0,-7.48001 5.04676,-13.54374 11.27223,-13.54374c6.22548,0 11.27223,6.06373 11.27223,13.54374c0,3.73103 -0.09355,8.14488 -2.12481,10.59441c-2.04102,2.4613 -6.02722,2.94934 -9.14742,2.94934c-3.34325,0 -8.67074,-0.02346 -10.73504,-2.80122c-1.77964,-2.39471 -0.53721,-7.2795 -0.53721,-10.74253z" fill="#444444" stroke="#000000" stroke-width="0"/><path d="M179.62003,331.89427c0,-1.30049 2.23702,1.76582 6.58337,2.47003c4.66118,0.75523 11.53899,-0.86953 14.24694,-3.15513c1.21369,-1.0244 0.87816,-5.70758 -0.46582,-9.5949c-1.46575,-4.23958 -3.96955,-7.66329 -2.89447,-7.66329c6.31106,0 5.38433,13.94126 5.38433,17.94331c0,4.00204 -5.11612,7.24633 -11.42718,7.24633c-6.31106,0 -11.42718,-3.24429 -11.42718,-7.24633z" fill="#282828" stroke="none" stroke-width="0"/><path d="M180.08485,325.07928c0,-7.48001 5.04675,-13.54374 11.27223,-13.54374c6.22548,0 11.27223,6.06374 11.27223,13.54374c0,3.73103 -0.09355,8.14488 -2.12481,10.59441c-2.04102,2.46131 -6.0272,2.94933 -9.14741,2.94933c-3.34325,0 -8.67074,-0.02345 -10.73504,-2.8012c-1.77964,-2.39471 -0.5372,-7.2795 -0.5372,-10.74253z" fill="none" stroke="#000000" stroke-width="3.5"/></g><g><path d="M212.68548,325.88109c0,-7.48001 5.04676,-13.54374 11.27223,-13.54374c6.22548,0 11.27223,6.06373 11.27223,13.54374c0,3.73103 -0.09355,8.14488 -2.1248,10.59441c-2.04102,2.4613 -6.02722,2.94934 -9.14743,2.94934c-3.34325,0 -8.67073,-0.02346 -10.73503,-2.80122c-1.77964,-2.39471 -0.53721,-7.2795 -0.53721,-10.74253z" fill="#444444" stroke="#000000" stroke-width="0"/><path d="M212.45852,333.05328c0,-1.30049 2.23703,1.76582 6.58338,2.47003c4.66118,0.75523 11.53899,-0.86953 14.24694,-3.15513c1.21369,-1.0244 0.87815,-5.70758 -0.46583,-9.59491c-1.46575,-4.23958 -3.96954,-7.66329 -2.89446,-7.66329c6.31106,0 5.38433,13.94126 5.38433,17.94331c0,4.00204 -5.11612,7.24633 -11.42718,7.24633c-6.31106,0 -11.42718,-3.24429 -11.42718,-7.24633z" fill="#282828" stroke="none" stroke-width="0"/><path d="M212.92334,326.23828c0,-7.48001 5.04676,-13.54374 11.27224,-13.54374c6.22548,0 11.27223,6.06374 11.27223,13.54374c0,3.73103 -0.09355,8.14488 -2.12481,10.59441c-2.04102,2.46131 -6.02721,2.94933 -9.14742,2.94933c-3.34325,0 -8.67074,-0.02345 -10.73504,-2.8012c-1.77964,-2.39471 -0.5372,-7.2795 -0.5372,-10.74253z" fill="none" stroke="#000000" stroke-width="3.5"/></g><g><path d="M193.75506,324.14259c0,-7.48001 5.04676,-13.54375 11.27223,-13.54375c6.22548,0 11.27223,6.06374 11.27223,13.54375c0,3.73103 -0.09355,8.14488 -2.12481,10.59441c-2.04102,2.4613 -6.02722,2.94934 -9.14742,2.94934c-3.34325,0 -8.67073,-0.02346 -10.73503,-2.80122c-1.77964,-2.39471 -0.53721,-7.27949 -0.53721,-10.74253z" fill="#444444" stroke="#000000" stroke-width="0"/><path d="M193.5281,331.31477c0,-1.30049 2.23702,1.76581 6.58337,2.47003c4.66118,0.75523 11.539,-0.86953 14.24695,-3.15513c1.21369,-1.0244 0.87814,-5.70758 -0.46583,-9.5949c-1.46575,-4.23958 -3.96954,-7.66329 -2.89446,-7.66329c6.31106,0 5.38433,13.94126 5.38433,17.94331c0,4.00204 -5.11611,7.24633 -11.42717,7.24633c-6.31106,0 -11.42718,-3.24429 -11.42718,-7.24633z" fill="#282828" stroke="none" stroke-width="0"/><path d="M193.99292,324.49977c0,-7.48001 5.04675,-13.54374 11.27223,-13.54374c6.22548,0 11.27223,6.06374 11.27223,13.54374c0,3.73103 -0.09355,8.14488 -2.1248,10.59441c-2.04102,2.46131 -6.02722,2.94932 -9.14742,2.94932c-3.34325,0 -8.67073,-0.02345 -10.73503,-2.8012c-1.77964,-2.39471 -0.5372,-7.2795 -0.5372,-10.74253z" fill="none" stroke="#000000" stroke-width="3.5"/></g></g><path d="M220.24029,210.79203v-10h51.66667v10z" fill="#1b1b1b" stroke="#000000" stroke-width="2.5" stroke-linecap="butt"/><g><path d="M302.13431,204.09355l-21.63275,-43.2655l6.78041,-3.39021l21.63275,43.2655z" fill="#1b1b1b" stroke="#000000" stroke-width="2.5" stroke-linecap="butt"/><g data-paper-data="{&quot;index&quot;:null}"><path d="M276.92913,117.86712c6.75801,0 25.65464,48.36449 25.65464,54.5826c0,0.68961 -1.33474,-0.78896 -2.73823,-1.01849c-1.88571,-0.30839 -4.18623,0.32999 -6.30407,-0.9255c-3.67419,-2.17812 -6.95418,-6.44029 -8.30121,-4.54694c-2.50942,3.52716 7.04176,24.48904 3.78722,24.48904c-6.75802,0 -24.33483,-55.10373 -24.33483,-61.32184c0,-3.08608 -2.27503,-6.59885 -0.08945,-8.63262c2.21811,-2.06405 8.92194,-2.62625 12.32592,-2.62625z" fill="#444444" stroke="#000000" stroke-width="0" stroke-linecap="butt"/><path d="M283.79504,164.15482c3.73802,0 8.55401,0.69562 12.5912,1.12259c3.57295,0.37787 6.61417,0.15409 6.61417,4.77238c0,2.35921 -3.74338,2.99849 -8.02379,1.08931c-4.00142,-1.78475 -8.51766,-6.11524 -9.61754,-4.48585c-2.62921,3.89498 7.55965,22.16298 3.78321,22.16298c-7.0462,0 -24.19671,-49.36526 -24.19671,-59.20192c0,-6.49003 8.281,21.70909 16.68784,38.70027c4.33508,8.76166 -0.41615,-2.17433 1.98112,-2.17433z" fill="#282828" stroke="none" stroke-width="0" stroke-linecap="butt"/><path d="M276.92915,117.38574c6.75801,0 25.65464,48.36449 25.65464,54.5826c0,2.68585 -4.33676,-2.79578 -6.32239,0.56791c-1.06079,1.797 -10.30317,-9.79021 -11.08806,-6.60782c-1.1473,4.65178 6.13367,24.03803 3.85416,24.03803c-6.75802,0 -24.33483,-55.10373 -24.33483,-61.32184c0,-3.29927 -2.8876,-7.46156 -0.43016,-9.52082c2.17408,-1.82182 9.49434,-1.73805 12.66662,-1.73805z" fill="none" stroke="#000000" stroke-width="3" stroke-linecap="butt"/><path d="M274.36758,156.92813l18.72649,-13.61702" fill="none" stroke="#000000" stroke-width="3" stroke-linecap="round"/></g></g><g><path d="M215.98834,118.79872c3.40398,0 10.10781,0.5622 12.32592,2.62625c2.18558,2.03377 -0.08945,5.54654 -0.08945,8.63262c0,6.21811 -17.57681,61.32184 -24.33483,61.32184c-6.75802,0 -13.55629,-11.78001 -13.55629,-17.99812c0,-6.21811 18.89663,-54.5826 25.65464,-54.5826z" fill="#444444" stroke="#000000" stroke-width="0" stroke-linecap="butt"/><path d="M199.37577,180.60887c2.39727,0 7.57319,-2.60104 11.90827,-11.3627c8.40684,-16.99118 16.68784,-45.1903 16.68784,-38.70027c0,9.83666 -17.15051,59.20192 -24.19671,59.20192c-7.04619,0 -13.85812,-8.92978 -13.85812,-18.76644c0,-9.83666 2.41252,9.62749 9.45871,9.62749z" fill="#282828" stroke="none" stroke-width="0" stroke-linecap="butt"/><path d="M215.98833,118.31734c3.17228,0 10.49254,-0.08377 12.66662,1.73805c2.45744,2.05926 -0.43016,6.22155 -0.43016,9.52082c0,6.21811 -17.57681,61.32184 -24.33483,61.32184c-6.75802,0 -13.55629,-11.78001 -13.55629,-17.99812c0,-6.21811 18.89663,-54.5826 25.65464,-54.5826z" fill="none" stroke="#000000" stroke-width="3" stroke-linecap="butt"/><path d="M218.54988,157.85973l-18.72649,-13.61702" fill="none" stroke="#000000" stroke-width="3" stroke-linecap="round"/></g><g stroke-width="2.5" stroke-linecap="butt"><path d="M247.48239,151.58091c11.18309,0 20.24879,10.33874 20.24879,23.09223c0,3.98815 7.02928,3.95887 7.27686,7.0897c0.08748,1.10631 -6.29906,2.71734 -7.84101,4.5135c-1.88107,2.1912 0.92365,4.57377 -0.14856,5.59708c-1.65977,1.58407 -7.59004,-12.09626 -11.17956,-8.7869c-4.01349,3.70025 -5.74731,14.67885 -8.35652,14.67885c-11.18309,0 -20.24879,-10.33874 -20.24879,-23.09223c0,-12.75349 9.06569,-23.09223 20.24879,-23.09223z" fill="#212121" stroke="#000000"/><path d="M238.77972,202.76295v-62.21117h14.3034v62.21117z" fill="#1b1b1b" stroke="#000000"/><path d="M244.86335,121.68292c5.94105,0 15.1006,-5.66093 20.59483,7.01568c2.33174,5.37993 10.93387,36.82067 7.2537,51.75764c-1.64382,6.6719 -12.72749,0.48669 -15.88537,3.67714c-4.7526,4.80163 -10.36668,-22.95737 -16.00367,-26.27618c-4.79792,-2.8248 -10.05562,18.89402 -10.05562,20.06976c0,10.37165 30.86128,26.14654 18.135,26.14654c-12.72628,0 -27.48574,-3.96512 -27.48574,-14.33675c0,-6.73867 -2.34055,-44.35375 4.32029,-62.239c3.59104,-9.6424 14.6688,-5.81483 19.12657,-5.81483z" fill="#444444" stroke="#000000"/><path d="M249.22086,203.55397c-0.37494,0.06975 -24.8426,6.63538 -28.2278,-14.47879c-1.55175,-9.67858 0.30117,-43.40112 4.06643,-57.64816c3.9623,-14.99259 9.86957,-10.2935 9.0172,-10.81343c-1.82039,-1.11039 -10.60257,43.64526 -10.05435,65.7631c0.28107,11.33982 20.74665,15.0931 19.90576,14.25324c-5.01026,-5.00411 -17.26189,-17.98371 -17.87786,-18.50959c-2.56325,-2.18833 7.26261,-20.5396 6.61919,-22.47829c-0.93263,-2.81009 10.14023,-5.28606 10.94233,-5.17021c3.45148,0.49849 9.11907,22.49128 15.76756,27.33152c4.02341,2.92913 10.59043,-8.86966 11.00638,-11.40062c2.38447,-14.50902 -11.23958,-47.22284 -6.91022,-47.22284c7.23332,0 11.02913,48.48861 11.02913,53.88188c0,5.39326 -3.7958,7.69741 -11.02913,7.69741c-1.35817,0 -6.28159,-0.20217 -9.12127,-4.34135c-5.37136,-7.8294 -9.80298,-22.04467 -14.33003,-21.51686c-3.67343,0.42829 -8.71313,11.20727 -9.38889,19.00528c-0.39597,4.56942 2.96964,8.56792 2.96964,7.65714c0,-0.2305 23.20255,16.57929 15.61592,17.99059z" fill="#282828" stroke="none"/><path d="M245.33717,121.69718c5.94105,0 15.1006,-5.66093 20.59483,7.01568c6.27491,14.47786 8.50646,47.83446 8.50646,53.36428c0,1.07138 -8.13985,1.48881 -13.94816,1.4583c-2.8596,-0.01503 -3.76144,1.42809 -5.571,-0.27557c-7.18787,-6.76718 -6.94636,-24.29308 -14.1779,-25.20937c-1.36232,-0.17262 -6.47337,11.04193 -7.95131,15.60313c-0.30644,0.94574 -0.34545,2.43563 -0.55994,2.4338c-1.84212,-0.01572 -0.65059,1.36807 -1.25751,1.95855c-4.74747,4.61889 25.14977,26.04178 18.4034,26.04178c-12.72628,0 -27.48574,-3.96512 -27.48574,-14.33675c0,-6.73866 -2.34055,-44.35375 4.32029,-62.239c3.59104,-9.6424 14.6688,-5.81482 19.12657,-5.81482z" fill="none" stroke="#000000"/><path d="M245.89782,126.16694c9.83478,0 17.80745,16.30539 17.80745,36.4191c0,9.41978 8.39556,23.81785 4.82928,20.58387c-1.60476,-1.45523 -8.81794,3.1582 -12.82869,-1.56042c-6.10799,-7.18601 -9.63877,-24.19335 -12.7951,-24.19335c-7.66376,0 -11.46386,24.77374 -13.17391,22.03453c-0.48443,-0.77597 -1.64648,-12.42455 -1.64648,-16.86462c0,-20.11371 7.97266,-36.4191 17.80744,-36.4191z" fill="#b7b7b7" stroke="#000000"/><path d="M231.07744,144.31904c0,-2.31232 2.12072,-10.82222 7.00407,-15.19155c2.08462,-1.8652 5.94102,-2.27123 8.27587,-2.27123c7.80437,0 12.9822,14.16338 12.9822,17.46279c0,3.29941 -4.25874,-13.78641 -12.06311,-13.78641c-1.15793,0 -11.95069,6.70583 -14.02743,12.59304c-0.46801,1.32672 -5.67191,23.90575 -3.52407,25.41486c1.32281,0.92944 1.90713,-7.25266 5.38288,-11.44173c3.34526,-4.0318 9.57208,-4.09389 11.48563,-2.41099c4.16568,3.66357 8.5136,17.75559 12.12883,21.96745c4.90817,5.71817 8.46589,1.36252 8.38367,3.71249c-0.11233,3.21073 -5.37911,5.82155 -13.14389,-2.16895c-3.53318,-3.6359 -8.67677,-20.39873 -12.16342,-21.06023c-6.45323,-1.22434 -12.56435,21.37202 -12.90495,21.22457c-1.58799,-0.68749 -1.86672,-12.79197 -0.69755,-22.54273c0.66217,-5.52244 2.88127,-10.91415 2.88127,-11.50136z" fill="#989898" stroke="none"/><path d="M245.2085,126.16694c9.83478,0 17.80745,16.30539 17.80745,36.4191c0,9.41978 8.39556,23.81785 4.82928,20.58387c-1.60476,-1.45523 -8.81794,3.1582 -12.82869,-1.56042c-6.10799,-7.18601 -9.63877,-24.19335 -12.7951,-24.19335c-7.66376,0 -11.46386,24.77374 -13.17391,22.03453c-0.48443,-0.77597 -1.64648,-12.42455 -1.64648,-16.86462c0,-20.11371 7.97266,-36.4191 17.80744,-36.4191z" fill="none" stroke="#000000"/></g><g stroke-width="2.5" stroke-linecap="butt"><path d="M272.12012,128.661c0,1.42763 1.18882,16.71602 -4.99757,16.71602c-6.1864,0 -17.40534,-15.28839 -17.40534,-16.71602c0,-1.42763 10.87428,-15.68204 17.06068,-15.68204c6.1864,0 5.34223,14.25441 5.34223,15.68204z" data-paper-data="{&quot;index&quot;:null}" fill="#de3636" stroke="#000000"/><path d="M272.80944,128.31635c0,1.42763 1.18882,16.71602 -4.99757,16.71602c-6.1864,0 -17.40534,-15.28839 -17.40534,-16.71602c0,-1.42763 10.87428,-15.68204 17.06068,-15.68204c6.1864,0 5.34223,14.25441 5.34223,15.68204z" data-paper-data="{&quot;index&quot;:null}" fill="#de3636" stroke="#000000"/><path d="M272.63711,130.55664c0,3.33113 0.69492,14.3034 -4.82524,14.3034c-5.52017,0 -15.16505,-10.97226 -15.16505,-14.3034c0,-1.34768 12.57959,11.45699 14.7915,8.30306c3.25538,-4.64179 -3.08564,-25.36374 0.20122,-25.36374c5.52017,0 4.99757,13.72955 4.99757,17.06068z" data-paper-data="{&quot;index&quot;:null}" fill="#b72c2c" stroke="none"/><path d="M272.29245,128.48868c0,1.42763 1.18882,16.71602 -4.99757,16.71602c-6.1864,0 -17.40534,-15.28839 -17.40534,-16.71602c0,-1.42763 10.87428,-15.68204 17.06068,-15.68204c6.1864,0 5.34223,14.25441 5.34223,15.68204z" data-paper-data="{&quot;index&quot;:null}" fill="none" stroke="#000000"/><path d="M227.92293,113.66829c6.1864,0 17.06068,14.25441 17.06068,15.68204c0,1.42763 -11.21894,16.71602 -17.40534,16.71602c-6.1864,0 -4.99757,-15.28839 -4.99757,-16.71602c0,-1.42763 -0.84416,-15.68204 5.34223,-15.68204z" data-paper-data="{&quot;index&quot;:null}" fill="#de3636" stroke="#000000"/><path d="M227.7506,114.52994c3.28686,0 -3.05415,20.72195 0.20122,25.36374c2.21191,3.15394 14.7915,-9.65074 14.7915,-8.30306c0,3.33113 -9.64488,14.3034 -15.16505,14.3034c-5.52017,0 -4.82524,-10.97226 -4.82524,-14.3034c0,-3.33113 -0.52259,-17.06068 4.99757,-17.06068z" fill="#b72c2c" stroke="none"/><path d="M228.43992,113.84062c6.1864,0 17.06068,14.25441 17.06068,15.68204c0,1.42763 -11.21894,16.71602 -17.40534,16.71602c-6.1864,0 -4.99757,-15.28839 -4.99757,-16.71602c0,-1.42763 -0.84416,-15.68204 5.34223,-15.68204z" fill="none" stroke="#000000"/><path d="M245.67292,121.76781c3.80701,0 6.8932,3.14334 6.8932,7.02085c0,3.87751 -3.0862,7.02085 -6.8932,7.02085c-3.80701,0 -6.8932,-3.14334 -6.8932,-7.02085c0,-3.87751 3.08619,-7.02085 6.8932,-7.02085z" fill="#de3636" stroke="#000000"/><path d="M241.19234,124.18042c1.78326,0 -0.09511,7.29764 2.30665,8.96123c2.59746,1.79915 9.4118,-1.99758 9.4118,-1.20637c0,1.43309 -2.66494,3.64481 -6.07264,3.7786c-0.21332,0.00838 -0.0849,0.35732 -0.30357,0.35732c-3.71184,0 -7.06553,-2.61312 -7.06553,-4.13592c0,-1.52281 -1.98854,-7.75485 1.7233,-7.75485z" fill="#b72c2c" stroke="none"/><path d="M245.84526,121.94013c3.80701,0 6.8932,3.14335 6.8932,7.02086c0,3.87752 -3.08619,7.02086 -6.8932,7.02086c-3.80701,0 -6.8932,-3.14335 -6.8932,-7.02086c0,-3.87752 3.08619,-7.02086 6.8932,-7.02086z" fill="none" stroke="#000000"/></g><g stroke-width="2.5"><path d="M231.16911,116.82935v-24.65213h31.67425v24.65213z" fill="#1b1b1b" stroke="#000000" stroke-linecap="butt"/><path d="M228.33037,118.32342v-7.02212h35.70823v7.02212z" fill="#7c7c7c" stroke="none" stroke-linecap="butt"/><path d="M237.81771,109.95663c3.64443,0 -10.74207,3.97254 -4.25136,5.65144c3.86991,1.00099 30.47227,-0.45039 30.47227,0.47425c0,2.47546 -20.40358,2.83873 -26.2209,2.83873c-5.81732,0 -10.53318,-2.00676 -10.53318,-4.48221c0,-2.47546 4.71587,-4.48221 10.53318,-4.48221z" fill="#585858" stroke="none" stroke-linecap="butt"/><path d="M226.16898,111.97865v-5.82687h39.294v5.82687z" fill="#e1e1e1" stroke="#000000" stroke-linecap="butt"/><path d="M225.93985,110.10605c0,-0.1966 -0.0032,-2.75519 1.61446,-3.79632c1.30905,-0.8425 4.19518,-0.22719 4.94749,-0.21273c1.82804,0.03511 -2.02547,2.15106 -0.0068,3.29513c1.7511,0.99243 9.25221,1.03163 12.26591,1.0882c5.14679,0.09659 10.66276,-0.9719 14.57139,-0.9719c11.26331,0 7.39564,-1.05268 7.39564,0.59763c0,1.65031 -9.13072,2.98813 -20.39403,2.98813c-11.26331,0 -20.39403,-1.33783 -20.39403,-2.98813z" fill="#bfbfbf" stroke="none" stroke-linecap="butt"/><g data-paper-data="{&quot;index&quot;:null}" stroke-linecap="butt"><path d="M303.17191,54.79687c-4.44233,1.33835 -10.55714,7.21203 -13.80421,6.31746c-3.77553,-1.04016 -4.3626,-9.20383 -4.68805,-12.63615c-0.32231,-3.39915 0.53226,-10.41907 3.84649,-13.59309c2.91052,-2.78739 7.96131,-1.85418 12.45355,-3.20757c9.60764,-2.89452 17.8869,-0.06555 18.49228,6.31869c0.60537,6.38422 -6.69241,13.90614 -16.30005,16.80067z" fill="#444444" stroke="#000000"/><path d="M297.11873,57.34781c-0.32135,0.39136 -1.04812,0.40945 -1.37582,0.76389c-2.81661,3.04647 -6.02233,4.42382 -7.14574,3.42653c-1.25411,-1.11332 -3.43963,-22.24878 -0.35626,-26.00386c1.62356,-1.97726 -2.03464,11.00352 5.49751,13.48462c6.77241,2.23085 24.85268,-6.13386 25.44643,-5.60676c0.85932,0.76284 -6.67279,6.18744 -13.75892,9.97602c-3.25555,1.74057 -7.33654,2.77746 -8.30719,3.95955z" fill="#282828" stroke="none"/><path d="M312.90142,47.69607c-4.33955,5.28492 -20.19279,11.38988 -21.33624,10.3748c-1.14345,-1.01509 -5.36908,-11.88332 -1.02952,-17.16823c4.33955,-5.28492 26.99225,-4.48298 28.13571,-3.4679c1.14345,1.01509 -1.43039,4.97641 -5.76995,10.26133z" fill="#b7b7b7" stroke="#000000"/><path d="M316.134,39.25262c-0.80204,0.97676 4.18757,1.2188 1.85009,4.23418c-1.98007,2.5543 -11.06369,7.83736 -14.20869,9.57082c-4.57542,2.52188 -8.90183,4.38779 -11.585,4.51035c-1.35552,0.06191 -2.08313,-0.78453 -2.63522,-1.27463c-1.19285,-1.05894 -1.16301,-3.15288 -1.54678,-4.64552c-1.09935,-4.27585 0.44716,-9.58664 4.80711,-11.14625c7.93107,-2.83704 21.15832,-3.74713 23.5274,-1.644c0.29471,0.26163 -8.33758,0.22331 -15.52371,1.57238c-5.20081,0.97636 -9.39174,3.04171 -10.10244,4.73734c-1.35996,3.24466 1.92969,10.46048 3.0952,10.41525c3.10812,-0.12059 10.53912,-2.64311 15.28238,-6.69121c5.5707,-4.75426 8.19579,-11.04672 7.03965,-9.63872z" fill="#989898" stroke="none"/><path d="M312.48149,48.20086c-4.33955,5.28492 -20.19279,11.38988 -21.33624,10.3748c-1.14345,-1.01509 -5.36908,-11.88332 -1.02952,-17.16823c4.33955,-5.28492 26.99225,-4.48298 28.13571,-3.4679c1.14345,1.01509 -1.43039,4.97641 -5.76995,10.26133z" fill="none" stroke="#000000"/><path d="M302.89411,54.84732c-4.44233,1.33835 -7.14081,5.02023 -10.38789,4.12566c-3.77553,-1.04016 -4.14675,-5.52916 -4.47221,-8.96147c-0.32231,-3.39915 -3.09991,-11.90195 0.21434,-15.07597c2.91052,-2.78739 7.96131,-1.85418 12.45355,-3.20757c9.60764,-2.89452 17.8869,-0.06555 18.49228,6.31869c0.60537,6.38422 -6.69241,13.90614 -16.30005,16.80067z" fill="none" stroke="#000000"/></g><g data-paper-data="{&quot;index&quot;:null}" stroke-linecap="butt"><path d="M288.33913,60.22967c-4.09835,2.83825 -7.8769,10.56394 -11.7379,10.86446c-4.48936,0.34942 -8.88476,-7.1762 -10.81625,-10.31248c-1.91283,-3.10596 -4.24907,-10.05782 -2.19667,-14.23615c1.80237,-3.66935 7.59634,-4.57092 11.74074,-7.44107c8.86368,-6.13842 15.29502,-3.21934 18.88766,2.61423c3.59264,5.83357 2.9861,12.37257 -5.87757,18.511z" fill="#444444" stroke="#000000"/><path d="M283.09072,64.78603c-0.16038,0.48433 -0.92368,0.75839 -1.10785,1.21c-1.58295,3.88158 -4.35029,6.31959 -6.00389,5.77204c-1.84599,-0.61126 -13.93229,-19.85957 -12.39351,-24.50668c0.22238,-0.6716 5.94927,-5.26124 6.48643,-4.13576c0.4515,0.94599 -1.4665,2.86372 -1.38423,4.98138c0.17646,4.54239 2.4408,10.13909 6.96555,9.98444c8.22153,-0.281 18.63868,-11.61309 19.51266,-11.32369c1.26488,0.41884 0.68896,5.2368 -5.08435,11.33073c-2.65241,2.7997 -6.50639,5.22465 -6.9908,6.68756z" fill="#282828" stroke="none"/><path d="M295.38867,50.06368c-2.16568,6.54037 -16.17735,17.92792 -17.86045,17.3706c-1.68311,-0.55732 -11.19148,-9.35859 -9.02581,-15.89896c2.16568,-6.54037 20.56233,-11.40405 22.24543,-10.84672c1.68311,0.55732 6.80651,2.83472 4.64083,9.37509z" fill="#b7b7b7" stroke="#000000"/><path d="M290.76135,41.62065c-0.40026,1.20879 5.688,2.89585 4.59939,6.5786c-0.92215,3.1196 -4.64615,7.41566 -7.18447,10.16955c-5.55839,6.03044 -12.71575,10.23058 -15.13696,9.42886c-4.83216,-1.60004 -7.54817,-6.52484 -6.06639,-10.99983c0.41244,-1.24557 1.02253,-4.33044 3.76486,-6.44838c7.11011,-5.49126 17.68658,-9.73316 21.17376,-8.57846c0.4338,0.14365 -5.70208,1.8627 -12.70876,5.68111c-5.07094,2.76348 -8.56643,6.20153 -8.53755,8.05901c0.05525,3.55434 6.88221,9.22668 8.09883,8.77181c3.24439,-1.21303 9.96886,-6.22958 13.13468,-11.74107c3.71807,-6.47294 -0.5604,-12.66365 -1.13738,-10.92117z" fill="#989898" stroke="none"/><path d="M295.17605,50.69031c-2.16568,6.54037 -16.17735,17.92792 -17.86045,17.3706c-1.68311,-0.55732 -11.19148,-9.35859 -9.02581,-15.89896c2.16568,-6.54037 22.07622,-11.36384 23.75933,-10.80651c1.68311,0.55732 5.29261,2.79451 3.12693,9.33488z" fill="none" stroke="#000000"/><path d="M288.06749,60.37567c-4.09835,2.83825 -7.8769,10.56394 -11.7379,10.86446c-4.48936,0.34942 -8.88476,-7.1762 -10.81625,-10.31248c-1.91283,-3.10596 -4.24907,-10.05782 -2.19667,-14.23615c1.80237,-3.66935 7.59634,-4.57092 11.74074,-7.44107c8.86368,-6.13842 15.0691,-1.21928 18.66173,4.6143c3.59264,5.83357 3.21203,10.37252 -5.65165,16.51094z" fill="none" stroke="#000000"/></g><g stroke-linecap="butt"><path d="M188.12401,22.15806c2.58151,-5.87033 11.33036,-5.9534 19.54112,-0.18554c3.83912,2.69689 8.92722,3.39864 10.81402,6.95963c2.14852,4.05493 0.75313,10.98764 -0.62134,14.11318c-1.38787,3.15604 -4.51135,10.72134 -8.42247,10.52198c-3.36369,-0.17146 -7.32221,-7.66953 -11.11866,-10.33645c-8.21076,-5.76787 -12.77418,-15.20248 -10.19269,-21.07281z" fill="#444444" stroke="#000000"/><path d="M203.26117,47.55526c-0.54985,-1.42729 -4.09806,-3.69444 -6.64146,-6.37013c-5.53604,-5.824 -10.98117,-13.34126 -9.92562,-13.79532c0.72934,-0.31374 15.26376,13.31032 22.39413,13.32139c7.93025,0.01232 8.53787,-13.46038 9.4576,-11.073c1.7467,4.53396 -6.97176,23.91107 -8.51225,24.57374c-1.37995,0.59361 -3.99022,-1.72161 -5.70643,-5.49903c-0.19968,-0.43949 -0.88393,-0.68512 -1.06596,-1.15765z" fill="#282828" stroke="none"/><path d="M191.31244,33.43163c-2.45832,-6.38112 -3.6565,-10.95072 -2.25193,-11.55491c1.40456,-0.6042 23.1611,5.75517 25.61942,12.13629c2.45832,6.38112 -4.96943,15.37017 -6.374,15.97436c-1.40456,0.6042 -14.53518,-10.17462 -16.99349,-16.55574z" fill="#b7b7b7" stroke="#000000"/><path d="M190.89782,24.40003c-0.65495,-1.70005 -0.14089,5.09863 3.65297,11.36299c3.23035,5.33389 9.49176,10.06441 12.40442,11.15591c1.09222,0.4093 6.48333,-5.40668 6.21224,-8.91437c-0.14167,-1.83309 -3.47094,-5.11112 -8.10121,-7.67282c-6.39779,-3.53958 -14.60457,-6.21667 -14.24256,-6.3724c2.91009,-1.25181 15.18078,3.77 21.81804,8.95629c3.6487,2.85106 3.44742,8.37878 1.05973,12.09232c-0.83351,1.29634 -1.46339,3.29353 -2.92866,3.92383c-0.67816,0.29172 -1.63496,0.86654 -2.90231,0.38166c-2.50864,-0.95977 -6.0292,-4.09106 -9.57998,-7.92336c-2.44067,-2.63419 -9.40318,-10.5048 -10.47996,-13.55204c-1.27116,-3.59731 3.54162,-2.25864 3.08728,-3.438z" fill="#989898" stroke="none"/><path d="M191.5524,34.04284c-2.45832,-6.38112 -3.6565,-10.95072 -2.25193,-11.55491c1.40456,-0.6042 23.1611,5.75517 25.61942,12.13629c2.45832,6.38112 -4.96943,15.37017 -6.374,15.97436c-1.40456,0.6042 -14.53518,-10.17462 -16.99349,-16.55574z" fill="none" stroke="#000000"/><path d="M188.37186,22.29328c2.58151,-5.87033 11.33036,-5.9534 19.54112,-0.18554c3.83912,2.69689 8.92722,3.39864 10.81402,6.95963c2.14852,4.05493 -3.16105,11.25362 -4.53552,14.37916c-1.38787,3.15604 -3.15136,7.3008 -7.06247,7.10143c-3.36369,-0.17146 -4.76802,-4.51495 -8.56447,-7.18187c-8.21076,-5.76787 -12.77418,-15.20248 -10.19269,-21.07281z" fill="none" stroke="#000000"/></g><g stroke-linecap="butt"><path d="M210.92897,33.63058c5.24425,-4.40857 12.26717,-5.15805 18.75201,3.45543c3.03211,4.02741 8.24899,6.70456 8.80658,10.75447c0.63494,4.61167 -3.76813,10.47677 -6.56032,12.82402c-2.81944,2.37015 -9.35765,8.13267 -13.5096,6.38976c-3.57083,-1.49895 -4.72935,-10.02077 -7.72777,-14.00343c-6.48482,-8.61348 -5.00514,-15.01168 0.23911,-19.42024z" fill="#444444" stroke="#000000"/><path d="M209.70572,50.47995c-3.5651,-7.5998 -2.59735,-12.35459 -1.26493,-12.35459c0.92064,0 7.24763,14.0322 14.96408,16.88331c4.24678,1.56912 8.15561,-3.03211 9.75098,-7.28878c0.74376,-1.98444 -0.4742,-4.40786 0.25177,-5.16398c0.86372,-0.89957 4.8576,5.2576 4.8576,5.96506c0,4.89524 -17.52417,19.36867 -19.46873,19.36867c-1.7419,0 -3.60258,-3.18431 -3.88517,-7.36672c-0.03288,-0.48661 -0.67134,-0.98673 -0.67134,-1.49692c0,-1.54102 -2.89637,-5.05451 -4.53427,-8.54605z" fill="#282828" stroke="none"/><path d="M207.19322,41.18418c0,-6.88961 5.57958,-7.44107 7.35256,-7.44107c1.77298,0 17.70825,10.39993 17.70825,17.28954c0,6.8896 -11.793,12.25588 -13.56598,12.25588c-1.77298,0 -11.49483,-15.21475 -11.49483,-22.10435z" fill="#b7b7b7" stroke="#000000"/><path d="M214.23998,34.62367c0,-1.83552 -6.00758,2.6965 -4.51269,10.01006c1.27285,6.22725 6.07956,13.10329 8.7782,15.27468c1.01197,0.81425 9.27591,-2.42458 10.44563,-5.78138c0.61129,-1.75424 -1.62631,-6.11678 -5.57153,-10.33419c-5.45123,-5.82732 -10.73571,-9.38802 -10.27875,-9.38802c3.67338,0 12.38033,7.35148 17.4039,14.79939c1.93756,2.87261 1.54704,5.99289 1.54704,7.30497c0,4.71394 -4.1264,8.53535 -9.21658,8.53535c-2.55049,0 -8.02479,-6.23708 -11.40581,-13.70908c-1.54399,-3.41218 -3.7288,-8.66108 -3.62359,-11.91243c0.1242,-3.83826 6.43416,-3.52602 6.43416,-4.79935z" fill="#989898" stroke="none"/><path d="M207.19809,41.84589c0,-6.88961 4.12977,-7.87878 5.90275,-7.87878c1.77298,0 19.15806,10.83764 19.15806,17.72725c0,6.8896 -11.793,12.25588 -13.56598,12.25588c-1.77298,0 -11.49483,-15.21475 -11.49483,-22.10435z" fill="none" stroke="#000000"/><path d="M210.72671,35.82427c5.24425,-4.40857 12.68141,-7.12775 19.16623,1.48573c3.03211,4.02741 8.24899,6.70456 8.80658,10.75447c0.63494,4.61167 -3.76813,10.47677 -6.56032,12.82402c-2.81944,2.37015 -9.35765,8.13267 -13.5096,6.38976c-3.57083,-1.49895 -4.72935,-10.02077 -7.72777,-14.00343c-6.48482,-8.61348 -5.41937,-13.04198 -0.17511,-17.45054z" fill="none" stroke="#000000"/></g><g><g><path d="M219.90875,99.60243c-9.27482,-13.36666 -6.0711,-37.32256 1.27394,-42.41913c4.54394,-3.15294 22.70684,-10.72527 34.14879,-6.07778c7.05335,2.86494 15.65595,4.43778 19.19299,9.53527c9.27482,13.36666 5.2967,36.25991 -2.04834,41.35647c-3.63419,2.52168 -15.6061,1.22389 -26.11174,0.82686c-10.7273,-0.40542 -21.76982,3.53141 -26.45564,-3.2217z" fill="#444444" stroke="#000000" stroke-linecap="butt"/><path d="M214.51632,85.74918c0,-0.90923 -2.69098,-13.46133 1.32391,-21.81822c3.42363,-7.12622 13.01027,-10.0223 19.30533,-12.87541c14.96085,-6.78071 36.81009,7.08394 38.02908,7.08394c0.81574,0 -13.30864,-6.76746 -26.84696,-7.09598c-6.6084,-0.16036 -13.22687,3.60849 -17.61088,5.82281c-3.41774,1.72627 -9.31243,5.17542 -10.36681,8.4432c-2.74803,8.51683 -0.68948,19.80622 -0.68948,21.02919c0,3.52721 3.41419,5.79705 1.08081,5.79705c-2.33338,0 -4.22497,-2.85938 -4.22497,-6.38658z" fill="#282828" stroke="none" stroke-linecap="butt"/><path d="M228.84542,59.13027c1.89952,0 11.37856,6.48309 21.51098,8.01506c9.05399,1.36892 18.73695,-2.39533 22.2834,0.61165c2.69876,2.28823 -0.18292,11.37915 0.71079,15.05243c1.27337,5.23369 5.64267,5.13404 5.64267,7.16731c0,7.43428 -25.32392,-0.19906 -32.05275,-0.19906c-6.72883,0 -12.18363,-6.02668 -12.18363,-13.46095c0,-7.43428 -12.64029,-17.18641 -5.91146,-17.18641z" fill="#282828" stroke="none" stroke-linecap="butt"/><path d="M219.84472,99.3419c-9.27482,-13.36666 -6.0711,-37.32256 1.27394,-42.41913c4.54394,-3.15294 22.70684,-10.72527 34.14879,-6.07778c7.05335,2.86494 15.65595,4.43778 19.19299,9.53527c9.27482,13.36666 5.2967,36.25991 -2.04834,41.35647c-3.63419,2.52168 -15.6061,1.22389 -26.11174,0.82685c-10.7273,-0.40542 -21.76982,3.53141 -26.45564,-3.22169z" fill="none" stroke="#000000" stroke-linecap="butt"/><path d="M223.67362,78.16712c0,-2.91107 -0.46437,-12.97169 3.01998,-15.91245c4.05922,-3.42597 12.33866,0.47329 15.35598,0.47329c5.6073,0 1.92989,9.13673 1.92989,15.43915c0,6.30243 -4.54562,11.41155 -10.15292,11.41155c-5.6073,0 -10.15292,-5.10912 -10.15292,-11.41155z" fill="#000000" stroke="#000000" stroke-linecap="butt"/><path d="M271.53924,80.68818c0,4.8369 -4.54562,8.75799 -10.15292,8.75799c-5.6073,0 -10.15292,-3.92109 -10.15292,-8.75799c0,-4.8369 -3.67741,-11.84904 1.92989,-11.84904c3.01731,0 11.29676,-2.99256 15.35598,-0.36324c3.48434,2.25694 3.01998,9.97814 3.01998,12.21229z" data-paper-data="{&quot;index&quot;:null}" fill="#000000" stroke="#000000" stroke-linecap="butt"/><path d="M221.04586,99.66471c0,-0.32625 -2.88394,-3.23543 -2.76077,-3.61177c0.4408,-1.3468 -4.03227,-5.35245 -1.41277,-6.44414c5.90193,-2.45966 22.17476,-1.34168 29.71988,-1.34168c8.16915,0 25.45519,-0.47984 30.7495,3.25685c2.37238,1.6744 -3.63109,7.65062 -3.63109,8.92678c0,4.12413 -15.28869,1.37557 -27.11842,1.37557c-11.82973,0 -25.54634,1.96251 -25.54634,-2.16162z" fill="#b7b7b7" stroke="#000000" stroke-linecap="butt"/><path d="M220.98451,99.5608c0,-0.4838 -6.19913,-8.61292 -5.30958,-9.04725c1.64823,-0.80477 7.35511,6.6804 12.89138,7.9644c6.2221,1.44306 14.3075,1.67237 20.4209,1.67237c5.43674,0 13.2335,1.49823 18.48312,-0.27165c4.88631,-1.64738 7.35578,-6.57257 9.13087,-6.54992c1.40012,0.01786 -3.14846,5.57425 -3.14846,6.23203c0,2.35003 -10.00262,2.88654 -24.17573,2.94621c-0.2269,0.00096 -1.43706,-0.39159 -1.66537,-0.39159c-14.4887,0 -26.62713,-0.16699 -26.62713,-2.55464z" fill="#989898" stroke="none" stroke-linecap="butt"/><path d="M220.98184,99.79719c0,-0.32624 -2.88395,-3.23543 -2.76078,-3.61177c0.4408,-1.3468 -4.03227,-5.35245 -1.41278,-6.44414c5.90193,-2.45966 22.17477,-1.34168 29.71989,-1.34168c8.16915,0 25.45518,-0.47984 30.7495,3.25685c2.37238,1.6744 -3.63109,7.65062 -3.63109,8.92678c0,4.12413 -15.28869,1.37557 -27.11842,1.37557c-11.82972,0 -25.54633,1.96251 -25.54633,-2.16161z" fill="none" stroke="#000000" stroke-linecap="butt"/><path d="M247.31422,87.61356c6.72883,0 12.18363,1.45168 12.18363,3.24242c0,1.79073 -5.4548,3.24242 -12.18363,3.24242c-6.72883,0 -12.18363,-1.45168 -12.18363,-3.24242c0,-1.79073 5.4548,-3.24242 12.18363,-3.24242z" fill="#000000" stroke="#000000" stroke-linecap="butt"/><path d="M221.30826,89.77403l3.14416,-2.16161h3.14416l-2.35812,3.7337l-0.19651,2.94765" fill="none" stroke="#000000" stroke-linecap="round"/><path d="M232.50935,88.39846l-6.28833,1.7686" fill="none" stroke="#000000" stroke-linecap="round"/><path d="M228.97217,89.77403v3.93021" fill="none" stroke="#000000" stroke-linecap="round"/><path d="M231.07646,89.00711l5.30578,1.96511" fill="none" stroke="#000000" stroke-linecap="round"/><path d="M232.31283,90.36357l-0.19651,6.28833" fill="none" stroke="#000000" stroke-linecap="round"/><path d="M269.25676,82.50317l2.16161,7.46739l-10.80806,0.58953v-2.35812" fill="none" stroke="#000000" stroke-linecap="round"/><path d="M269.45326,87.61243l-5.8953,-2.35812" fill="none" stroke="#000000" stroke-linecap="round"/><path d="M262.77192,87.41592l-0.78604,6.28833" fill="none" stroke="#000000" stroke-linecap="round"/><path d="M264.93353,96.84841l0.58953,-7.46739" fill="none" stroke="#000000" stroke-linecap="round"/><path d="M268.86374,94.09727l-0.78604,-3.93021" fill="none" stroke="#000000" stroke-linecap="round"/><path d="M270.2393,88.988l1.7686,5.69879" fill="none" stroke="#000000" stroke-linecap="round"/></g><path d="M268.86375,60.88704v-1.96511l2.16161,-1.37557" fill="none" stroke="#000000" stroke-linecap="round"/><path d="M234.86747,58.72542l-0.19651,1.17906l-0.98254,0.98254" fill="none" stroke="#000000" stroke-linecap="round"/></g><path d="M228.33037,118.02461v-5.07983h35.70823v5.07983z" fill="none" stroke="#000000" stroke-linecap="butt"/><path d="M226.53749,111.89892v-5.82687h39.294v5.82687z" fill="none" stroke="#000000" stroke-linecap="butt"/><path d="M235.80071,106.66969l-0.1494,4.48221" fill="none" stroke="#000000" stroke-linecap="round"/><path d="M249.39673,106.66969v4.18339" fill="none" stroke="#000000" stroke-linecap="round"/><path d="M259.25759,111.30129l-1.04584,-4.78102" fill="none" stroke="#000000" stroke-linecap="round"/></g><g><path d="M178.14393,184.92787c2.10895,-7.90363 9.65738,-12.75282 16.85988,-10.83095c7.2025,1.92186 11.33165,9.88701 9.2227,17.79064c-2.10895,7.90364 -9.65739,12.75282 -16.85989,10.83095c-7.20251,-1.92186 -11.33165,-9.88701 -9.2227,-17.79064z" fill="#444444" stroke="#000000" stroke-width="0" stroke-linecap="butt"/><path d="M177.82432,190.61632c1.19053,-4.46173 1.98452,-17.27273 8.35842,-15.57196c1.06937,0.28534 -2.70679,4.72372 -3.40773,10.11468c-0.66488,5.1136 1.73798,11.16454 2.84542,12.45338c4.68394,5.45117 16.08716,-3.84022 15.28582,-0.83708c-1.19054,4.46172 -7.32272,6.69993 -13.69662,4.99916c-6.3739,-1.70077 -10.57585,-6.69646 -9.38531,-11.15819z" fill="#282828" stroke="none" stroke-width="0" stroke-linecap="butt"/><path d="M194.77681,174.83416c7.20251,1.92186 11.33165,9.88701 9.2227,17.79064c-2.10895,7.90364 -9.65737,12.75282 -16.85988,10.83095c-7.20251,-1.92186 -11.33165,-9.88701 -9.2227,-17.79064c2.10895,-7.90364 9.65737,-12.75282 16.85988,-10.83095z" fill="none" stroke="#000000" stroke-width="3.5" stroke-linecap="butt"/><g><path d="M203.13978,207.07738c1.59872,-5.99146 -8.67025,-11.70914 -5.73825,-10.92679c1.37035,0.36565 6.1986,-5.6077 9.91981,-3.26664c4.24068,2.66787 7.28763,13.83539 6.43612,17.02658c-1.59872,5.99147 -5.27158,10.21428 -8.20358,9.43193c-2.932,-0.78235 -4.01283,-6.27361 -2.41411,-12.26508z" fill="#840000" stroke="#000000" stroke-width="0" stroke-linecap="butt"/><path d="M198.61959,197.2051c-1.08213,-2.99238 2.41133,-3.85219 3.01947,-3.68992c1.65722,0.4422 9.73922,19.09809 9.07592,21.58391c-0.6633,2.48582 -2.54445,4.1425 -4.20166,3.7003c-1.65721,-0.4422 -2.94073,-2.57693 -2.27743,-5.06275c0.41989,-1.57361 -3.5832,-10.90943 -5.6163,-16.53154z" fill="#430000" stroke="none" stroke-width="0" stroke-linecap="butt"/><path d="M197.16645,195.99384c1.37035,0.36565 6.1986,-5.6077 9.91981,-3.26664c4.24068,2.66787 7.28763,13.83539 6.43612,17.02658c-1.59872,5.99146 -5.27159,10.21428 -8.20358,9.43193c-2.93199,-0.78235 -4.01282,-6.27362 -2.4141,-12.26508c1.59872,-5.99146 -8.67024,-11.70914 -5.73825,-10.92679z" fill="none" stroke="#000000" stroke-width="3.5" stroke-linecap="butt"/><path d="M203.79811,205.42565l8.72566,-2.12227" fill="none" stroke="#000000" stroke-width="3.5" stroke-linecap="round"/></g><g data-paper-data="{&quot;index&quot;:null}"><path d="M184.20804,208.49395c1.59872,5.99147 0.51789,11.48273 -2.41411,12.26508c-2.932,0.78235 -6.60486,-3.44046 -8.20358,-9.43193c-0.85151,-3.19119 2.19544,-14.35871 6.43612,-17.02658c3.72121,-2.34106 8.54946,3.63229 9.91981,3.26664c2.932,-0.78235 -7.33697,4.93533 -5.73825,10.92679z" fill="#840000" stroke="#000000" stroke-width="0" stroke-linecap="butt"/><path d="M183.11192,215.15321c0.6633,2.48582 -0.62022,4.62055 -2.27743,5.06276c-1.65721,0.4422 -3.53836,-1.21448 -4.20166,-3.7003c-0.6633,-2.48582 7.4187,-21.14171 9.07592,-21.58391c0.60814,-0.16227 4.1016,0.69753 3.01947,3.68991c-2.0331,5.62211 -6.03619,14.95793 -5.6163,16.53154z" fill="#430000" stroke="none" stroke-width="0" stroke-linecap="butt"/><path d="M184.44311,208.3372c1.59872,5.99146 0.51789,11.48273 -2.4141,12.26508c-2.93199,0.78235 -6.60486,-3.44047 -8.20358,-9.43193c-0.85151,-3.19119 2.19544,-14.35871 6.43612,-17.02658c3.72121,-2.34106 8.54946,3.63229 9.91981,3.26664c2.93199,-0.78235 -7.33697,4.93533 -5.73825,10.92679z" fill="none" stroke="#000000" stroke-width="3.5" stroke-linecap="butt"/><path d="M183.5497,206.84222l-8.72566,-2.12227" fill="none" stroke="#000000" stroke-width="3.5" stroke-linecap="round"/></g><g data-paper-data="{&quot;index&quot;:null}"><path d="M194.7845,210.92833c3.73374,4.95104 4.79643,10.44584 2.37358,12.27299c-2.42285,1.82715 -7.41374,-0.70525 -11.14748,-5.65629c-1.98867,-2.63703 -3.36323,-14.13086 -0.43648,-18.19719c2.56824,-3.56821 9.28782,0.15201 10.42021,-0.70196c2.42285,-1.82715 -4.94357,7.33142 -1.20983,12.28245z" fill="#840000" stroke="#000000" stroke-width="0" stroke-linecap="butt"/><path d="M196.27209,217.51121c1.54911,2.05415 1.1622,4.51481 -0.20723,5.54754c-1.36943,1.03274 -3.73538,0.20472 -5.28448,-1.84943c-1.54911,-2.05415 -1.07291,-22.37985 0.29653,-23.41259c0.50254,-0.37898 4.06297,-0.89548 4.18509,2.28421c0.22945,5.97402 0.02945,16.12992 1.01008,17.43027z" fill="#430000" stroke="none" stroke-width="0" stroke-linecap="butt"/><path d="M194.9434,210.69471c3.73374,4.95103 4.79643,10.44584 2.37359,12.27298c-2.42284,1.82715 -7.41374,-0.70526 -11.14748,-5.65629c-1.98867,-2.63703 -3.36323,-14.13086 -0.43648,-18.19719c2.56824,-3.56821 9.28782,0.15201 10.42021,-0.70196c2.42284,-1.82715 -4.94357,7.33142 -1.20983,12.28245z" fill="none" stroke="#000000" stroke-width="3.5" stroke-linecap="butt"/><path d="M193.55353,209.64523l-8.88346,1.31349" fill="none" stroke="#000000" stroke-width="3.5" stroke-linecap="round"/></g><g><path d="M171.46892,202.90824c0.35693,6.19082 -1.80964,11.35106 -4.8392,11.52572c-3.02955,0.17467 -5.77483,-4.70237 -6.13176,-10.89319c-0.19011,-3.29737 5.04746,-13.62041 9.73922,-15.37777c4.11703,-1.54208 7.64073,5.28262 9.05667,5.20098c3.02955,-0.17467 -8.18188,3.35344 -7.82494,9.54424z" fill="#444444" stroke="#000000" stroke-width="0" stroke-linecap="butt"/><path d="M169.53746,209.33081c0.14809,2.56853 -2.02551,4.27895 -3.73786,4.37768c-1.71235,0.09873 -3.22054,-1.90344 -3.36863,-4.47197c-0.14809,-2.56853 11.5319,-19.21 13.24426,-19.30873c0.62837,-0.03623 3.87649,1.51077 2.21284,4.22326c-3.12566,5.09626 -8.44435,12.82517 -8.35061,14.45114z" fill="#282828" stroke="none" stroke-width="0" stroke-linecap="butt"/><path d="M171.73079,202.80215c0.35694,6.19081 -1.80964,11.35106 -4.83919,11.52573c-3.02954,0.17467 -5.77483,-4.70238 -6.13176,-10.89319c-0.19011,-3.29737 5.04746,-13.62041 9.73922,-15.37777c4.11703,-1.54208 7.64073,5.28262 9.05667,5.20098c3.02954,-0.17467 -8.18188,3.35344 -7.82494,9.54424z" fill="none" stroke="#000000" stroke-width="3.5" stroke-linecap="butt"/><path d="M163.03941,197.31845l8.11798,3.83921" fill="none" stroke="#000000" stroke-width="3.5" stroke-linecap="round"/></g><g><path d="M183.33657,208.58606c2.17292,5.80793 1.6304,11.37819 -1.21179,12.44153c-2.84218,1.06335 -6.90771,-2.78288 -9.08064,-8.59081c-1.15735,-3.09343 0.79086,-14.50403 4.75246,-17.57107c3.47631,-2.69132 8.86175,2.78499 10.19012,2.288c2.84218,-1.06335 -6.82309,5.62442 -4.65016,11.43233z" fill="#444444" stroke="#000000" stroke-width="0" stroke-linecap="butt"/><path d="M183.39218,215.29253c0.90153,2.40967 -0.66858,4.68669 -2.27502,5.28772c-1.60644,0.60102 -3.63957,-0.86517 -4.5411,-3.27484c-0.90153,-2.40967 5.33082,-21.76215 6.93727,-22.36318c0.58951,-0.22055 4.14994,0.29598 3.36348,3.37929c-1.47759,5.79296 -4.27095,14.74961 -3.70025,16.27502z" fill="#282828" stroke="none" stroke-width="0" stroke-linecap="butt"/><path d="M183.55532,208.40723c2.17293,5.80792 1.6304,11.37819 -1.21178,12.44154c-2.84217,1.06335 -6.90772,-2.78289 -9.08064,-8.59081c-1.15735,-3.09343 0.79086,-14.50403 4.75246,-17.57107c3.47631,-2.69132 8.86175,2.78499 10.19012,2.288c2.84217,-1.06335 -6.82309,5.62442 -4.65016,11.43233z" fill="none" stroke="#000000" stroke-width="3.5" stroke-linecap="butt"/><path d="M173.63047,205.74107l8.8905,1.265" fill="none" stroke="#000000" stroke-width="3.5" stroke-linecap="round"/></g><g><path d="M194.50101,210.97709c4.14889,4.60873 5.68393,9.99071 3.42859,12.02102c-2.25533,2.03031 -7.44697,-0.0599 -11.59586,-4.66862c-2.20979,-2.45471 -4.57558,-13.78609 -2.01236,-18.09085c2.24924,-3.77742 9.26604,-0.65373 10.32013,-1.60265c2.25533,-2.03031 -4.2894,7.73238 -0.14051,12.34109z" fill="#444444" stroke="#000000" stroke-width="0" stroke-linecap="butt"/><path d="M197.00872,217.19731c1.72135,1.91213 1.09417,4.60596 -0.18057,5.75353c-1.27475,1.14756 -3.70357,0.52777 -5.42492,-1.38436c-1.72135,-1.91213 -3.00899,-22.20259 -1.73423,-23.35016c0.46779,-0.42111 3.97005,-1.24432 4.36735,1.9128c0.74649,5.93165 1.42718,15.28905 2.51685,16.4995z" fill="#282828" stroke="none" stroke-width="0" stroke-linecap="butt"/><path d="M194.63907,210.73057c4.14889,4.60871 5.68393,9.99071 3.4286,12.02102c-2.25532,2.03031 -7.44698,-0.0599 -11.59586,-4.66862c-2.20979,-2.45471 -4.57558,-13.78609 -2.01236,-18.09085c2.24924,-3.77742 9.26604,-0.65373 10.32013,-1.60265c2.25532,-2.03031 -4.2894,7.73238 -0.14051,12.34109z" fill="none" stroke="#000000" stroke-width="3.5" stroke-linecap="butt"/><path d="M193.16346,209.80553l-8.73616,2.07865" fill="none" stroke="#000000" stroke-width="3.5" stroke-linecap="round"/></g><g data-paper-data="{&quot;index&quot;:null}"><path d="M203.66339,207.70853c2.15542,-5.81443 -7.52997,-12.47305 -4.68459,-11.41827c1.32986,0.49298 6.69878,-4.99952 10.18318,-2.31869c3.97082,3.05509 5.95341,14.45976 4.80539,17.55667c-2.15542,5.81445 -6.20933,9.67292 -9.05471,8.61814c-2.84538,-1.05477 -3.40468,-6.62337 -1.24928,-12.43782z" fill="#444444" stroke="#000000" stroke-width="0" stroke-linecap="butt"/><path d="M203.8415,213.71852c0.5661,-1.52712 -2.25424,-10.47532 -3.74928,-16.2638c-0.79575,-3.08093 2.76311,-3.60819 3.35328,-3.38941c1.60825,0.59619 7.89889,19.9298 7.00463,22.34217c-0.89426,2.41238 -2.92296,3.88469 -4.53121,3.28851c-1.60825,-0.59619 -3.18521,-2.86846 -2.29095,-5.28084z" fill="#282828" stroke="none" stroke-width="0" stroke-linecap="butt"/><path d="M203.44409,207.53037c2.15542,-5.81443 -7.52995,-12.47304 -4.68459,-11.41826c1.32986,0.49298 6.69878,-4.99953 10.18318,-2.3187c3.97082,3.05509 5.95341,14.45976 4.80539,17.55667c-2.15541,5.81444 -6.20935,9.67292 -9.05471,8.61814c-2.84537,-1.05478 -3.40469,-6.62339 -1.24927,-12.43783z" fill="none" stroke="#000000" stroke-width="3.5" stroke-linecap="butt"/><path d="M213.36086,204.83432l-8.88665,1.29178" fill="none" stroke="#000000" stroke-width="3.5" stroke-linecap="round"/></g></g></g></g></svg>