<svg version="1.1" xmlns="http://www.w3.org/2000/svg" xmlns:xlink="http://www.w3.org/1999/xlink" width="90.594" height="97.69123" viewBox="0,0,90.594,97.69123"><defs><linearGradient x1="240" y1="131.98935" x2="240" y2="228.84563" gradientUnits="userSpaceOnUse" id="color-1"><stop offset="0" stop-color="#272727"/><stop offset="1" stop-color="#1d1d1d"/></linearGradient></defs><g transform="translate(-194.703,-131.15439)"><g data-paper-data="{&quot;isPaintingLayer&quot;:true}" fill-rule="nonzero" stroke="none" stroke-linecap="butt" stroke-linejoin="miter" stroke-miterlimit="10" stroke-dasharray="" stroke-dashoffset="0" style="mix-blend-mode: normal"><path d="M195.12048,228.84563l-0.41748,-75.56458l78.90445,-22.12665l11.68955,81.82685c0,0 -26.96604,8.34967 -28.38891,8.34967c-8.19438,0 -61.78762,7.51471 -61.78762,7.51471z" fill="url(#color-1)" stroke-width="NaN"/><path d="M220.35215,205.66523l13.8504,-45.56003l26.39111,46.65353l-23.25541,1.96244z" fill="#722020" stroke-width="0"/><path d="M237.70384,192.10705c2.76684,0 5.00981,2.61679 5.00981,5.84477c0,3.22798 -2.24297,5.84477 -5.00981,5.84477c-2.76684,0 -5.00981,-2.61679 -5.00981,-5.84477c0,-3.22798 2.24297,-5.84477 5.00981,-5.84477z" fill="#ffffff" stroke-width="0"/><path d="M236.45138,171.23284c1.61399,0 2.92239,4.20557 2.92239,9.39339c0,5.18782 -1.3084,9.39339 -2.92239,9.39339c-1.61398,0 -2.92238,-4.20557 -2.92238,-9.39339c0,-5.18783 1.30839,-9.39339 2.92238,-9.39339z" fill="#ffffff" stroke-width="0"/></g></g></svg>