<svg version="1.1" xmlns="http://www.w3.org/2000/svg" xmlns:xlink="http://www.w3.org/1999/xlink" width="673.90812" height="548.10468" viewBox="0,0,673.90812,548.10468"><g transform="translate(213.41057,1.18159)"><g data-paper-data="{&quot;isPaintingLayer&quot;:true}" fill-rule="nonzero" stroke-linejoin="miter" stroke-miterlimit="10" stroke-dasharray="" stroke-dashoffset="0" style="mix-blend-mode: normal"><g data-paper-data="{&quot;index&quot;:null}" stroke-width="8"><g stroke="#000000"><path d="M233.85732,231.29981c32.2567,-7.11393 90.27432,48.10087 123.45857,92.16402c15.80446,20.98566 23.14636,40.68674 24.67039,47.59712c4.72396,21.41987 -2.91793,45.34749 -50.53736,55.84953c-47.61943,10.50202 -90.05212,1.65136 -94.77608,-19.76854c-4.72396,-21.4199 -50.43494,-165.34009 -2.81552,-175.84212z" data-paper-data="{&quot;index&quot;:null}" fill="#00ff15" stroke-linecap="butt"/><path d="" fill="none" stroke-linecap="round"/></g><path d="M386.5574,372.39353c4.43019,20.08781 -13.91953,41.21112 -40.98522,47.18021c-13.25563,2.92341 -40.46566,13.17154 -64.00123,10.13435c-24.51998,-3.16423 -45.16057,-19.8802 -47.42104,-30.12985c-0.9461,-4.28987 82.35478,4.13882 105.14732,6.35542c17.42301,1.69439 30.64138,-6.35978 27.98687,-17.65347c-2.96609,-12.61931 16.03943,-22.44391 2.61932,-41.25845c-32.42965,-45.46523 -109.7965,-105.3282 -97.86627,-107.9593c27.06569,-5.96909 110.09009,113.24327 114.52028,133.33109z" fill="#00ad0e" stroke="none" stroke-linecap="butt"/><g fill="none" stroke="#000000"><path d="M238.07198,228.8208c47.61943,-10.50202 143.40499,118.34123 148.12895,139.76113c4.72396,21.41987 -2.91793,45.34749 -50.53736,55.84953c-47.61943,10.50202 -90.05212,1.65136 -94.77608,-19.76854c-4.72396,-21.4199 -50.43494,-165.34009 -2.81552,-175.84212z" data-paper-data="{&quot;index&quot;:null}" stroke-linecap="butt"/><path d="M284.19117,348.7865l59.34538,-40.38923" stroke-linecap="round"/></g></g><g data-paper-data="{&quot;index&quot;:null}" stroke-width="7.5"><path d="M389.11904,410.74171c12.34689,23.84269 4.74232,52.29229 -16.98532,63.54387c-21.72761,11.25161 -49.35052,1.04453 -61.69741,-22.79821c-12.34689,-23.84269 -4.74229,-52.29229 16.98532,-63.54387c21.72761,-11.25161 49.35049,-1.04449 61.69738,22.79821z" fill="#ffffff" stroke="#000000" stroke-linecap="butt"/><path d="M393.56778,429.68356c6.97003,13.4596 -2.96703,32.44264 -22.19502,42.39983c-19.22799,9.95719 -40.46567,7.1179 -47.43569,-6.34167c-4.69146,-9.0595 38.42738,12.66127 49.58739,-8.12245c2.63859,-4.91396 6.06308,-26.00764 0.31713,-41.92825c-6.05759,-16.78415 -21.29881,-28.34113 -18.07286,-30.01168c19.22799,-9.95719 30.82906,30.54465 37.79907,44.00425z" fill="#d0d0d0" stroke="none" stroke-linecap="butt"/><path d="M389.09544,410.81602c12.34689,23.84269 4.74232,52.29228 -16.98533,63.54388c-21.72764,11.25162 -49.35049,1.04453 -61.69738,-22.79821c-12.34689,-23.84269 -4.74232,-52.29229 16.98533,-63.54388c21.72764,-11.25162 49.35048,-1.04451 61.69738,22.79821z" fill="none" stroke="#000000" stroke-linecap="butt"/><g><path d="M324.74756,496.1753c9.35975,18.07433 9.77713,36.4395 0.93223,41.0198c-8.8449,4.5803 -23.60263,-6.35873 -32.96237,-24.43306c-4.9852,-9.6268 -3.11312,-47.57594 8.59362,-59.12501c10.2727,-10.13433 29.97125,5.59897 34.10516,3.45825c8.8449,-4.5803 -20.02841,21.00572 -10.66867,39.08002z" fill="#ffffff" stroke="#000000" stroke-linecap="butt"/><path d="M324.83813,516.9325c3.8833,7.49891 2.97861,15.67668 -2.02065,18.26555c-4.99927,2.58887 -12.20003,-1.39151 -16.08333,-8.89042c-3.8833,-7.49891 8.8341,-73.00981 13.8334,-75.59869c1.83456,-0.95002 6.57948,0.09053 5.22625,10.44697c-2.54243,19.45775 -3.41392,51.02952 -0.95566,55.7766z" fill="#d0d0d0" stroke="none" stroke-linecap="butt"/><path d="M324.02763,496.6102c9.35973,18.0743 9.77713,36.43951 0.93227,41.0198c-8.84487,4.58028 -23.60263,-6.35877 -32.96237,-24.43306c-4.9852,-9.6268 -3.11312,-47.57594 8.59362,-59.125c10.2727,-10.13433 29.97126,5.59897 34.10516,3.45825c8.84487,-4.58028 -20.02842,21.00572 -10.66867,39.08001z" fill="none" stroke="#000000" stroke-linecap="butt"/><path d="M320.10719,492.44988l-29.46859,-0.63434" fill="none" stroke="#000000" stroke-linecap="round"/></g><g data-paper-data="{&quot;index&quot;:null}"><path d="M349.85152,501.8328c6.20674,-19.38458 -26.53726,-39.78412 -17.05118,-36.74677c4.43361,1.41958 21.22499,-17.38514 33.04722,-9.1106c13.47258,9.42963 21.66191,46.5319 18.35606,56.85658c-6.20671,19.38457 -18.92824,32.63663 -28.41433,29.59927c-9.4861,-3.03736 -12.14449,-21.2139 -5.93775,-40.59848z" fill="#ffffff" stroke="#000000" stroke-linecap="butt"/><path d="M353.23205,522.3131c1.63015,-5.09118 -4.50662,-36.07306 -10.26586,-54.83205c-3.06535,-9.98452 1.43883,-11.80362 3.40641,-11.17363c5.36169,1.71674 28.851,64.18005 26.27585,72.22258c-2.57514,8.04253 -9.0092,13.17058 -14.37089,11.45382c-5.36169,-1.71674 -7.62066,-9.62822 -5.04551,-17.67076z" fill="#d0d0d0" stroke="none" stroke-linecap="butt"/><path d="M350.63401,502.14125c6.20674,-19.38458 -26.53726,-39.78412 -17.05117,-36.74677c4.43361,1.41958 21.22499,-17.38514 33.04722,-9.1106c13.47258,9.42963 21.66191,46.5319 18.35606,56.85657c-6.20671,19.38457 -18.92824,32.63663 -28.41433,29.59927c-9.4861,-3.03736 -12.1445,-21.2139 -5.93775,-40.59848z" fill="none" stroke="#000000" stroke-linecap="butt"/><path d="M382.75185,491.83268l-28.94794,5.55143" fill="none" stroke="#000000" stroke-linecap="round"/></g><g data-paper-data="{&quot;index&quot;:null}"><path d="M362.44909,452.4912c4.58923,0.78146 18.56677,-20.19946 31.43593,-13.67124c14.66564,7.43953 27.99555,43.01984 26.17578,53.70702c-3.41662,20.06519 -14.1463,34.97586 -23.96546,33.3039c-9.81915,-1.67196 -15.00942,-19.29341 -11.59279,-39.3586c3.41662,-20.06519 -31.87262,-35.65303 -22.05345,-33.98107z" fill="#ffffff" stroke="#000000" stroke-linecap="butt"/><path d="M372.85077,453.43155c-4.44013,-9.4537 -0.23679,-11.88865 1.79984,-11.54184c5.54994,0.94503 37.59699,59.48046 36.17947,67.80538c-1.41755,8.32493 -7.06578,14.30753 -12.61575,13.36251c-5.54994,-0.94503 -8.89992,-8.45982 -7.4824,-16.78473c0.89733,-5.26995 -9.53897,-35.07965 -17.88116,-52.8413z" fill="#d0d0d0" stroke="none" stroke-linecap="butt"/><path d="M385.32063,486.66753c3.41662,-20.06522 -31.87262,-35.65303 -22.05346,-33.98108c4.58927,0.78145 18.5668,-20.19946 31.43597,-13.67125c14.66567,7.43951 27.99555,43.01984 26.17578,53.70702c-3.41662,20.06519 -14.14631,34.97585 -23.96546,33.3039c-9.81915,-1.67196 -15.00942,-19.29341 -11.59279,-39.3586z" fill="none" stroke="#000000" stroke-linecap="butt"/><path d="M387.78944,481.5116l27.87841,-9.5705" fill="none" stroke="#000000" stroke-linecap="round"/></g><g data-paper-data="{&quot;index&quot;:null}"><path d="M420.13634,461.32959c-2.61192,-20.18573 -40.91955,-24.7507 -31.0414,-26.02886c4.61683,-0.59738 11.83413,-24.75269 26.0512,-22.28129c16.20175,2.81643 39.37089,32.93016 40.76204,43.68151c2.61192,20.18573 -3.27846,37.58567 -13.15661,38.86383c-9.87815,1.27817 -20.0033,-14.04945 -22.61522,-34.23515z" fill="#ffffff" stroke="#000000" stroke-linecap="butt"/><path d="M431.89344,478.43633c-0.68598,-5.30162 -19.39784,-30.74566 -32.57772,-45.2839c-7.015,-7.73802 -3.70948,-11.29759 -1.66061,-11.5627c5.58328,-0.72246 53.37353,45.85543 54.45719,54.23037c1.08368,8.37493 -2.56399,15.74979 -8.14727,16.47225c-5.58328,0.72246 -10.98792,-5.48111 -12.07157,-13.85604z" fill="#d0d0d0" stroke="none" stroke-linecap="butt"/><path d="M420.97571,461.27662c-2.61188,-20.18571 -40.91951,-24.75067 -31.04136,-26.02885c4.61682,-0.59741 11.83412,-24.75272 26.05119,-22.28132c16.20174,2.81639 39.37086,32.93016 40.76201,43.68151c2.61192,20.1857 -3.27847,37.58563 -13.15662,38.86381c-9.87811,1.27816 -20.00326,-14.04946 -22.61519,-34.23516z" fill="none" stroke="#000000" stroke-linecap="butt"/><path d="M445.67679,438.30543l-23.85117,17.31823" fill="none" stroke="#000000" stroke-linecap="round"/></g></g><g stroke-width="8"><g stroke="#000000"><path d="M27.29644,360.08033c-17.94336,12.61602 -55.22602,-9.49439 -83.2732,-49.38496c-28.04718,-39.89058 -17.53525,-62.70349 0.40807,-75.3195c5.78879,-4.07012 24.50363,-13.65088 50.32957,-18.46749c54.22616,-10.11336 134.3025,-11.69312 153.30126,15.32818c28.04718,39.89058 -102.82232,115.22775 -120.76567,127.84377z" data-paper-data="{&quot;index&quot;:null}" fill="#00ff15" stroke-linecap="butt"/><path d="" fill="none" stroke-linecap="round"/></g><path d="M-59.84096,233.2737c16.82747,-11.83144 158.55142,-43.75261 174.49272,-21.07981c7.02674,9.9939 -90.46373,1.94312 -145.07946,13.60032c-22.60122,4.82404 -15.20942,24.90123 -25.9156,32.21029c-9.58152,6.54127 -5.26474,21.40602 8.73439,31.91583c18.3135,13.74879 85.46571,63.75535 81.87211,66.28204c-8.58609,6.03691 -35.09842,4.43889 -55.32612,-9.77665c-19.41561,-13.64483 -32.5752,-39.57235 -40.38258,-50.67652c-15.94131,-22.67281 -15.22293,-50.64404 1.60453,-62.47548z" fill="#00ad0e" stroke="none" stroke-linecap="butt"/><g fill="none" stroke="#000000"><path d="M25.85993,355.40643c-17.94336,12.61602 -55.22602,-9.49439 -83.2732,-49.38496c-28.04718,-39.89058 -17.53525,-62.70349 0.40807,-75.3195c17.94336,-12.61602 175.58364,-43.02989 203.63081,-3.13931c28.04718,39.89058 -102.82232,115.22775 -120.76567,127.84377z" data-paper-data="{&quot;index&quot;:null}" stroke-linecap="butt"/><path d="M31.6235,284.94961l-16.52613,-69.85736" stroke-linecap="round"/></g></g><g stroke-width="7.5"><path d="M-112.25148,249.14011c25.2032,-9.25842 52.47411,1.85493 60.9112,24.82239c8.43711,22.96743 -5.15451,49.09169 -30.35771,58.3501c-25.20324,9.25844 -52.47413,-1.85497 -60.91123,-24.82242c-8.43714,-22.96745 5.15451,-49.09169 30.35771,-58.3501z" fill="#ffffff" stroke="#000000" stroke-linecap="butt"/><path d="M-128.3192,260.11348c14.22762,-5.22655 50.12495,-27.28023 57.59141,-6.95503c1.25268,3.41001 -17.79359,1.64989 -33.59196,9.9453c-14.98557,7.8686 -26.69644,25.74388 -28.06635,31.15059c-5.79404,22.86783 40.68183,35.94523 31.10537,39.46313c-14.22761,5.2265 -31.81416,-7.01334 -39.28062,-27.33853c-7.46646,-20.32518 -1.98547,-41.03895 12.24216,-46.26547z" fill="#d0d0d0" stroke="none" stroke-linecap="butt"/><path d="M-51.37304,274.03323c8.43714,22.96745 -5.15451,49.09169 -30.35771,58.3501c-25.20324,9.25844 -52.4741,-1.85491 -60.9112,-24.82239c-8.43714,-22.96745 5.15451,-49.09169 30.35771,-58.3501c25.20324,-9.25844 52.4741,1.85491 60.9112,24.82239z" fill="none" stroke="#000000" stroke-linecap="butt"/><g><path d="M-122.4205,355.62569c19.10565,-7.01847 15.07144,-45.38561 18.50604,-36.03602c1.60526,4.36978 26.75924,6.05699 27.49853,20.46833c0.84247,16.42312 -23.39078,45.68729 -33.56689,49.4255c-19.10568,7.01849 -37.37812,5.12878 -40.8127,-4.22082c-3.4346,-9.3496 9.26932,-22.61852 28.375,-29.637z" fill="#ffffff" stroke="#000000" stroke-linecap="butt"/><path d="M-99.5554,329.08061c5.99181,-8.55484 10.19517,-6.11993 10.90756,-4.18068c1.94129,5.28457 -32.89318,62.2053 -40.81999,65.11722c-7.92682,2.91192 -15.9265,0.98851 -17.86777,-4.29602c-1.94127,-5.28454 2.91096,-11.9291 10.83778,-14.84102c5.01794,-1.84335 25.68494,-25.72664 36.94243,-41.7995z" fill="#d0d0d0" stroke="none" stroke-linecap="butt"/><path d="M-103.67682,320.39645c1.60526,4.36978 26.75924,6.05699 27.49853,20.46833c0.84247,16.42312 -23.39078,45.68729 -33.56689,49.4255c-19.10565,7.01847 -37.37813,5.12874 -40.8127,-4.22082c-3.43457,-9.34956 9.26937,-22.61851 28.37503,-29.63699c19.10565,-7.01847 15.07146,-45.38559 18.50604,-36.03602z" fill="none" stroke="#000000" stroke-linecap="butt"/><path d="M-94.31068,375.43139l-22.17142,-19.4224" fill="none" stroke="#000000" stroke-linecap="round"/></g><g data-paper-data="{&quot;index&quot;:null}"><path d="M-144.762,342.85555c-8.5044,18.49218 -22.73453,30.1093 -31.78391,25.94755c-9.04939,-4.16173 -9.49114,-22.52635 -0.98672,-41.0185c4.52964,-9.84935 35.61504,-31.6975 51.92044,-29.56151c14.30804,1.87434 14.00484,27.083 18.23432,29.02812c9.04939,4.16173 -28.87971,-2.88782 -37.3841,15.60436z" fill="#ffffff" stroke="#000000" stroke-linecap="butt"/><path d="M-161.07985,355.68509c-3.52841,7.67229 -10.53521,11.98501 -15.65004,9.63271c-5.11486,-2.35228 -6.40091,-10.47879 -2.87249,-18.15107c3.52841,-7.67229 63.02078,-37.90592 68.13562,-35.55361c1.87699,0.86321 3.97253,5.24563 -5.02848,10.54363c-16.91119,9.9539 -42.35103,28.67158 -44.58463,33.52837z" fill="#d0d0d0" stroke="none" stroke-linecap="butt"/><path d="M-145.54755,342.55499c-8.5044,18.49218 -22.73453,30.1093 -31.78391,25.94755c-9.04939,-4.16173 -9.49114,-22.52635 -0.98672,-41.0185c4.52964,-9.84935 35.61504,-31.6975 51.92044,-29.56151c14.30804,1.87434 14.00484,27.083 18.23432,29.02812c9.04939,4.16173 -28.87971,-2.88782 -37.3841,15.60436z" fill="none" stroke="#000000" stroke-linecap="butt"/><path d="M-144.6755,336.90539l-17.61203,-23.63511" fill="none" stroke="#000000" stroke-linecap="round"/></g><g data-paper-data="{&quot;index&quot;:null}"><path d="M-159.96114,308.13348c-11.02247,17.1111 -26.74605,26.60973 -35.11957,21.21574c-8.37353,-5.394 -6.22611,-23.63797 4.79636,-40.74908c5.87083,-9.11377 39.72189,-26.36922 55.56432,-21.95956c13.9018,3.86951 10.05355,28.78459 13.96715,31.30558c8.37353,5.394 -28.18577,-6.9238 -39.20826,10.18732z" fill="#ffffff" stroke="#000000" stroke-linecap="butt"/><path d="M-177.92228,318.53858c-4.57316,7.09928 -12.11719,10.38288 -16.85005,7.33413c-4.73288,-3.04878 -4.86231,-11.2754 -0.28916,-18.37471c4.57316,-7.09928 67.72861,-28.65851 72.46146,-25.60975c1.73681,1.11877 3.1947,5.75251 -6.4624,9.73093c-18.14384,7.47461 -45.96488,22.42533 -48.85985,26.91941z" fill="#d0d0d0" stroke="none" stroke-linecap="butt"/><path d="M-160.69658,307.72533c-11.02247,17.1111 -26.74605,26.60973 -35.11957,21.21574c-8.37353,-5.394 -6.22611,-23.63797 4.79636,-40.74908c5.87083,-9.11377 39.72188,-26.36925 55.56432,-21.95956c13.9018,3.86951 10.05355,28.78459 13.96716,31.30562c8.37353,5.394 -28.18575,-6.9238 -39.20826,10.18732z" fill="none" stroke="#000000" stroke-linecap="butt"/><path d="M-159.03805,302.25471l-14.11013,-25.87865" fill="none" stroke="#000000" stroke-linecap="round"/></g><g data-paper-data="{&quot;index&quot;:null}"><path d="M-169.28282,265.53034c-15.55195,13.13094 -33.36843,17.60616 -39.79424,9.99561c-6.42582,-7.61055 0.97243,-24.42484 16.52441,-37.5558c8.2833,-6.99383 45.70441,-13.5746 59.55978,-4.71698c12.15812,7.77259 1.17924,30.46693 4.18252,34.02392c6.42582,7.61055 -24.92049,-14.87774 -40.47245,-1.74677z" fill="#ffffff" stroke="#000000" stroke-linecap="butt"/><path d="M-189.50424,270.21669c-6.4524,5.44796 -14.62741,6.37726 -18.25937,2.07565c-3.63196,-4.30161 -1.34555,-12.20518 5.10687,-17.65312c6.4524,-5.44796 73.15289,-7.55819 76.78485,-3.25658c1.33281,1.57854 1.36916,6.43607 -9.02976,7.41063c-19.53758,1.83093 -50.51801,7.97473 -54.6026,11.42349z" fill="#d0d0d0" stroke="none" stroke-linecap="butt"/><path d="M-169.86636,264.92465c-15.55195,13.13094 -33.36843,17.60616 -39.79421,9.99564c-6.42582,-7.61055 0.97243,-24.42484 16.52438,-37.55578c8.2833,-6.99383 45.70441,-13.57465 59.55976,-4.71701c12.15812,7.77259 1.17924,30.46693 4.1825,34.02395c6.42582,7.61055 -24.92049,-14.87774 -40.47241,-1.74676z" fill="none" stroke="#000000" stroke-linecap="butt"/><path d="M-172.58703,231.30301l5.90917,28.877" fill="none" stroke="#000000" stroke-linecap="round"/></g></g><g stroke-width="8" stroke-linecap="butt"><path d="M172.51364,201.16205c16.07837,4.22935 64.45298,-56.4322 63.97721,-17.92316c-0.33219,26.88723 13.02217,260.71282 4.04539,294.83914c-21.83371,83.00348 -119.78504,30.84845 -147.08943,23.66615c-27.30438,-7.1823 -94.92672,-22.56431 -73.09301,-105.56779c21.8337,-83.00344 124.85546,-202.19664 152.15984,-195.01434z" fill="#00ff15" stroke="#000000"/><path d="M18.45163,442.76741c2.14779,-8.16509 0.02167,-56.90981 27.82251,-102.66944c23.73705,-39.07066 65.38073,-101.28414 98.94163,-125.31234c23.54805,-16.8594 40.66392,-3.38877 55.37104,0.47988c10.92632,2.87412 -28.06038,-4.978 -66.31284,29.13003c-49.86268,44.46034 -104.05019,135.83492 -101.63163,166.5854c2.49241,31.68963 34.27359,69.12028 75.86563,81.05263c57.72417,16.56052 129.79166,1.31983 128.00947,8.09506c-5.26833,20.02819 -58.35483,23.42352 -118.57204,7.58364c-60.21721,-15.83988 -104.76205,-44.91671 -99.49372,-64.9449z" fill="#00ad0e" stroke="none"/><path d="M21.28139,396.08568c21.83371,-83.00348 124.85547,-202.19668 152.15985,-195.01438c16.07833,4.22933 64.45301,-56.43214 63.9772,-17.92312c-0.33223,26.88722 13.02213,260.71281 4.04535,294.83913c-21.83371,83.00348 -119.78504,30.84845 -147.08943,23.66615c-27.30438,-7.1823 -94.92672,-22.56431 -73.09301,-105.56779z" fill="none" stroke="#000000"/></g><g stroke-width="8" stroke-linecap="butt"><path d="M75.25282,112.65522c5.25922,-65.09035 68.43771,-113.09625 141.11312,-107.22416c72.67542,5.87209 127.32701,63.39848 122.0678,128.48883c-5.25922,65.09035 -68.43771,113.09625 -141.11312,107.22416c-72.67542,-5.87209 -127.32702,-63.39851 -122.06779,-128.48886z" fill="#ffffff" stroke="#000000"/><path d="M90.52409,165.45305c0.65562,-8.11425 43.40503,53.01491 109.73014,58.3739c66.3251,5.35899 121.32168,-45.30056 120.66607,-37.18631c-0.65562,8.11425 -52.23092,56.21796 -118.55603,50.85897c-66.3251,-5.35899 -112.49581,-63.93228 -111.84019,-72.04652z" fill="#d0d0d0" stroke="none"/><path d="M218.83013,3.43211c72.67542,5.87209 127.32702,63.39851 122.06779,128.48886c-5.25922,65.09035 -68.43774,113.09625 -141.11312,107.22416c-72.67542,-5.87209 -127.32702,-63.39851 -122.06779,-128.48886c5.25922,-65.09035 68.43774,-113.09625 141.11312,-107.22416z" fill="none" stroke="#000000"/><path d="M106.96326,38.94195c25.21448,-26.70723 67.24034,-38.91442 108.40907,-35.58803c40.0349,3.23477 81.21481,22.0295 104.17048,51.32656c19.32264,24.66038 23.92191,58.30228 22.08498,81.03691c-4.01925,49.74387 -67.07662,53.73253 -140.81041,47.77493c-73.7338,-5.9576 -127.08018,-18.70859 -123.06094,-68.45246c1.77512,-21.96971 9.26184,-54.97213 29.20683,-76.0979z" fill="#ffffff" stroke="#000000"/><path d="M81.42531,140.3936c0.29891,-3.69943 -8.08014,-14.26094 -7.04167,-26.22555c2.21848,-25.55961 18.00578,-62.18998 46.36007,-84.82831c17.5373,-14.00198 65.44037,-23.94339 94.58391,-23.46169c12.11066,0.20014 12.4996,8.42996 19.61859,9.00516c12.36027,0.9987 -62.25506,-0.97484 -100.73071,26.93989c-43.17734,31.32589 -50.61826,93.33182 -30.26711,102.93826c22.11755,10.44025 67.2855,22.49496 108.05449,21.71091c63.84793,-1.22788 124.13347,-19.35092 123.5892,-12.61486c-1.49652,18.52165 -68.6764,35.2789 -133.59033,30.03393c-64.91397,-5.24497 -122.07304,-24.97613 -120.57652,-43.49776z" fill="#d0d0d0" stroke="none"/><path d="M77.45906,115.3896c1.77512,-21.96971 9.2618,-54.97213 29.20679,-76.0979c25.21447,-26.70719 67.24034,-38.91442 108.40907,-35.58803c40.03494,3.23478 81.21481,22.0295 104.17048,51.32656c19.3226,24.66041 23.92187,58.30231 22.08495,81.03693c-4.01924,49.74382 -67.07665,53.7325 -140.81042,47.77489c-73.73376,-5.95759 -127.08014,-18.70859 -123.0609,-68.45242z" fill="none" stroke="#000000"/></g></g></g></svg>