<svg version="1.1" xmlns="http://www.w3.org/2000/svg" xmlns:xlink="http://www.w3.org/1999/xlink" width="527.57077" height="570.2599" viewBox="0,0,527.57077,570.2599"><g transform="translate(-90.10113,34.89737)"><g data-paper-data="{&quot;isPaintingLayer&quot;:true}" fill-rule="nonzero" stroke-width="5.5" stroke-linejoin="miter" stroke-miterlimit="10" stroke-dasharray="" stroke-dashoffset="0" style="mix-blend-mode: normal"><g data-paper-data="{&quot;index&quot;:null}" stroke-linecap="butt"><path d="M136.09321,382.83592c22.62817,-11.66104 44.94651,-13.40146 49.84946,-3.88733c4.90294,9.51413 -10.5013,124.15547 -33.12947,135.81651c-22.62817,11.66104 -54.67957,5.36733 -59.58251,-4.1468c-4.90294,-9.51413 20.23436,-116.12134 42.86253,-127.78238z" fill="#840000" stroke="#000000"/><path d="M141.21757,495.56422c8.02687,-4.1365 23.30676,-17.04741 30.91354,-37.93355c14.75159,-40.50373 20.24437,-97.9392 25.36172,-88.00903c7.75616,15.05076 -11.49893,118.71416 -35.09202,130.87245c-23.59309,12.15829 -52.68931,11.71128 -60.44547,-3.33947c-7.75616,-15.05076 15.66914,10.56789 39.26223,-1.5904z" fill="#430000" stroke="none"/><path d="M135.71365,382.09939c22.62817,-11.66104 44.9465,-13.40148 49.84944,-3.88735c4.90294,9.51413 -10.50129,124.15547 -33.12945,135.81651c-22.62817,11.66104 -54.67957,5.36733 -59.58251,-4.1468c-4.90294,-9.51413 20.23436,-116.12133 42.86253,-127.78236z" fill="none" stroke="#000000"/></g><g data-paper-data="{&quot;index&quot;:null}" stroke-linecap="butt"><path d="M612.87157,508.39363c-4.90294,9.51413 -36.95435,15.80783 -59.58251,4.1468c-22.62817,-11.66104 -38.03242,-126.30238 -33.12947,-135.81651c4.90294,-9.51413 27.22129,-7.7737 49.84946,3.88733c22.62817,11.66104 47.76547,118.26825 42.86253,127.78238z" fill="#840000" stroke="#000000"/><path d="M616.15893,505.44046c-7.75616,15.05076 -36.85238,15.49776 -60.44547,3.33947c-23.59309,-12.15829 -42.84818,-115.82169 -35.09202,-130.87245c5.11735,-9.93018 10.61013,47.5053 25.36172,88.00903c7.60678,20.88614 22.88667,33.79704 30.91354,37.93355c23.59309,12.15829 47.01839,-13.46036 39.26223,1.5904z" fill="#430000" stroke="none"/><path d="M613.25113,507.65708c-4.90294,9.51413 -36.95435,15.80783 -59.58251,4.1468c-22.62817,-11.66104 -38.0324,-126.30238 -33.12945,-135.81651c4.90294,-9.51413 27.22127,-7.77369 49.84944,3.88735c22.62817,11.66104 47.76547,118.26824 42.86253,127.78236z" fill="none" stroke="#000000"/></g><g stroke-linecap="butt"><path d="M238.69814,465.13373c0,-45.17673 6.6181,-152.55188 35.74509,-198.82492c20.69073,-32.87061 60.31687,-13.95981 83.01847,-13.95981c29.13943,0 57.41169,-22.41116 72.41896,25.49873c13.14322,41.95904 27.45044,143.11242 27.45044,179.18845c0,77.26853 -45.20994,75.12694 -99.86937,75.12694c-54.6594,0 -118.76356,10.23914 -118.76356,-67.02943z" fill="#840000" stroke="#000000"/><path d="M259.3654,465.97186c0,-44.38563 9.53272,-128.8118 33.03218,-171.69849c14.51562,-26.49111 39.36816,-24.89121 55.59066,-24.89121c19.23378,0 41.54647,-4.38897 57.2539,26.02863c18.98852,36.77144 29.56946,112.37048 29.56946,151.66685c0,71.80263 -44.33807,82.32475 -86.82336,82.32475c-42.48529,0 -88.62284,8.37207 -88.62284,-63.43056z" fill="#7d3c3c" stroke="#000000"/><path d="M272.97379,358.76087c0,-21.47675 23.98322,-87.57386 62.18089,-88.6941c1.28633,-0.03775 31.23657,-15.97628 32.53983,-15.97628c40.00391,0 50.14627,50.63149 50.14627,72.83147c0,22.19997 -51.53289,-19.50131 -91.53681,-19.50131c-40.00391,0 -53.33016,73.5402 -53.33016,51.34023z" fill="#5c2c2c" stroke="none"/><path d="M243.17372,499.25423c0,-19.37924 -6.45066,-233.02852 52.18399,-233.02852c10.83632,0 -11.37264,36.90756 -22.60094,83.44526c-13.6947,56.76013 -17.19639,126.96843 -1.52675,151.0061c40.99997,62.89519 184.27854,-12.85239 184.27854,-1.42284c0,19.37924 -47.53279,35.08922 -106.16744,35.08922c-58.63465,0 -106.16744,-15.70998 -106.16744,-35.08922z" fill="#430000" stroke="none"/><path d="M265.49248,488.62603c0,-12.74852 34.22315,-7.16377 78.40329,-7.16377c44.18014,0 87.15897,-27.07599 87.15897,-14.3275c0,6.15992 -3.66652,29.24625 -19.02216,42.4135c-16.42422,14.08353 -45.30397,18.08039 -68.13681,18.08039c-24.59468,0 -50.0835,-0.97253 -64.32032,-10.3857c-11.33721,-7.49596 -14.08297,-22.96542 -14.08297,-28.61696z" fill="#5c2c2c" stroke="none"/><path d="M292.81698,293.58545c14.51559,-26.49111 39.36813,-24.89121 55.59063,-24.89121c19.23381,0 41.5465,-4.38897 57.25393,26.02863c18.98848,36.77144 29.56943,112.37051 29.56943,151.66688c0,71.8026 -44.33807,82.32475 -86.82336,82.32475c-42.48529,0 -88.62281,8.37204 -88.62281,-63.43056c0,-44.3856 9.53272,-128.8118 33.03218,-171.69849z" fill="none" stroke="#000000"/><path d="M276.76579,265.93213c20.69073,-32.87064 60.31684,-13.95984 83.01847,-13.95984c29.13943,0 57.41169,-22.4112 72.41896,25.49873c13.14322,41.95904 27.45041,143.11245 27.45041,179.18848c0,77.26853 -45.20994,75.12694 -99.86937,75.12694c-54.6594,0 -118.76356,10.23914 -118.76356,-67.02943c0,-45.17669 6.6181,-152.55184 35.74509,-198.82489z" fill="none" stroke="#000000"/></g><path d="M294.22476,9.79288c28.09858,-9.52642 57.88952,3.43472 66.53994,28.94952c8.65041,25.51477 -7.11542,53.92129 -35.214,63.44771c-28.09854,9.5264 -57.88949,-3.43473 -66.53991,-28.94952c-8.65043,-25.51481 7.11539,-53.92129 35.21398,-63.4477z" fill="#840000" stroke="#000000" stroke-linecap="butt"/><path d="M271.70694,56.59704c1.71063,22.85312 21.67613,41.76469 33.97565,37.59472c25.00998,-8.47927 51.23546,-61.36503 58.06024,-41.23504c6.82478,20.12999 -7.91724,43.32239 -32.92723,51.80167c-16.93114,5.74026 -50.56746,0.70032 -67.33387,-18.36241c-4.49091,-5.10594 -7.99072,-36.25254 0.95128,-53.61251c6.98761,-13.56575 26.69349,-14.21571 25.72643,-17.06807c-3.46846,-10.23036 -20.2203,17.26496 -18.45252,40.88165z" fill="#430000" stroke="none" stroke-linecap="butt"/><path d="M294.84195,10.55733c28.09858,-9.52642 57.88952,3.43475 66.53994,28.94952c8.65043,25.51481 -7.11542,53.92129 -35.214,63.44771c-28.09858,9.52642 -57.88952,-3.43475 -66.53994,-28.94952c-8.65043,-25.51481 7.11542,-53.92129 35.214,-63.44771z" fill="none" stroke="#000000" stroke-linecap="butt"/><path d="M263.71249,192.12279c15.91244,-7.43152 62.97605,11.37873 96.96448,22.90511c29.95349,10.15803 60.12287,11.31883 70.95374,25.44074c5.34085,6.96371 1.32331,27.68426 -0.61819,33.40926c-5.87872,17.33487 -46.90028,19.09221 -91.62425,3.92512c-44.72398,-15.16709 -76.21426,-41.51512 -70.33554,-58.85c1.41113,-4.16104 -10.36631,-24.48292 -5.34023,-26.83023z" fill="#000000" stroke="none" stroke-linecap="butt"/><g stroke-linecap="butt"><path d="M246.57395,193.13602c3.60387,-10.62691 14.30024,-16.60507 23.89102,-13.35258c2.40347,0.81508 -8.51005,5.56063 -7.06646,11.9155c2.4492,10.7816 17.18509,26.88859 23.73977,41.32738c4.99838,11.01058 27.11817,22.83363 25.94971,26.27913c-0.74897,2.20851 87.22218,22.24984 83.33557,26.29127c-0.34069,0.35427 21.3115,-3.1673 33.49736,-13.5051c7.58813,-6.43733 6.90644,-22.03009 9.01058,-21.07775c6.20474,2.80837 20.29749,0.62113 16.28268,13.27607c-1.60299,5.05274 -17.50518,12.84045 -22.91601,20.02794c-7.45157,9.89829 -5.00148,18.73704 -8.43803,18.44044c-30.32052,-2.61686 -131.77546,-25.77617 -135.70913,-29.30529c-12.97129,-11.63734 -25.6045,-53.44569 -30.73683,-55.1862c-9.59078,-3.25249 -14.44412,-14.50396 -10.84026,-25.13088z" fill="#840000" stroke="#000000"/><path d="M254.08644,182.66075c0.72678,-2.14311 4.53651,24.26489 20.53101,47.28661c13.11454,18.87647 31.80759,39.58255 40.64257,42.57873c19.61007,6.6503 111.03072,24.11777 109.70801,28.0181c-1.32271,3.90034 -88.83559,-12.19038 -108.44565,-18.84068c-5.25795,-1.78311 -15.62081,-2.09426 -27.29025,-14.16113c-9.46631,-9.78866 -15.75113,-25.22155 -23.91211,-38.93759c-4.34815,-7.30787 -12.04344,-14.14298 -14.80148,-19.345c-9.48385,-17.88784 3.04083,-25.04477 3.56792,-26.59902z" fill="#430000" stroke="none"/><path d="M247.23233,192.48436c3.60387,-10.62691 14.30024,-16.60507 23.89102,-13.35258c2.40347,0.81508 -8.51005,5.56063 -7.06646,11.9155c2.4492,10.7816 17.18509,26.88859 23.73977,41.32738c4.9984,11.01061 27.11819,22.83366 25.94974,26.27914c-0.74895,2.20849 87.22219,22.2498 83.33557,26.29124c-0.34071,0.3543 21.3115,-3.1673 33.49736,-13.50507c7.58811,-6.4373 6.90644,-22.03006 9.01057,-21.07771c6.20474,2.80837 20.29752,0.62114 16.28268,13.27607c-1.60299,5.05274 -17.50518,12.84045 -22.91601,20.02794c-7.45157,9.89829 -5.00148,18.73704 -8.43803,18.44044c-30.32051,-2.61689 -131.77546,-25.77617 -135.70911,-29.30532c-12.97125,-11.63736 -25.60448,-53.44567 -30.7368,-55.18618c-9.59078,-3.25249 -14.44412,-14.50396 -10.84026,-25.13088z" fill="none" stroke="#000000"/></g><path d="M266.12827,206.51305l5.98745,-17.6555l168.70812,57.21341l-5.98745,17.6555z" fill="#ffffff" stroke="#000000" stroke-linecap="butt"/><path d="M266.12825,206.513l5.98745,-17.6555l168.70812,57.21341l-5.98745,17.6555z" fill="none" stroke="#000000" stroke-linecap="butt"/><path d="M414.86267,56.76633c56.33835,19.10584 87.47436,77.45487 69.54428,130.3262c-9.11202,26.86907 -12.87871,55.28752 -35.87499,59.98516c-22.25442,4.54609 -63.42784,-14.04244 -91.13519,-23.43874c-26.06078,-8.8379 -77.94637,-18.60688 -92.57649,-34.15669c-16.99738,-18.0659 5.93147,-43.16372 15.56752,-71.57806c17.93008,-52.87133 78.13654,-80.24371 134.47485,-61.13789z" fill="#840000" stroke="#000000" stroke-linecap="butt"/><path d="M386.18187,137.71288c29.0359,9.84685 48.99993,28.36883 44.59089,41.36997c-4.40903,13.00113 -31.52152,15.55822 -60.55743,5.71138c-29.0359,-9.84685 -105.24156,-21.19387 -100.83253,-34.195c1.38931,-4.0967 11.38047,-53.29757 40.56057,-80.98214c13.48896,-12.79762 50.72876,-16.05338 57.84682,-17.00397c10.75095,-1.43575 -54.48129,24.00999 -74.53497,56.53793c-11.16426,18.10887 18.84944,45.51553 18.59471,54.66588c-0.31269,11.23117 28.56372,-20.17119 50.10973,-30.45533c6.65233,-3.17521 22.87455,3.89426 24.22228,4.3513z" fill="#430000" stroke="none" stroke-linecap="butt"/><path d="M413.62728,61.98765c56.33835,19.10584 87.47436,77.45487 69.54428,130.3262c-9.11202,26.86907 -12.87871,55.28752 -35.87499,59.98516c-22.25442,4.54609 -63.42784,-14.04244 -91.13519,-23.43874c-26.06078,-8.8379 -77.94637,-18.60688 -92.57649,-34.15669c-16.99738,-18.0659 5.93147,-43.16372 15.56752,-71.57806c17.93008,-52.87133 78.13654,-80.24371 134.47485,-61.13789z" fill="none" stroke="#000000" stroke-linecap="butt"/><path d="M328.61022,86.57945c21.88529,7.42189 50.82485,45.22847 45.75446,60.17981c-5.07039,14.95134 0.78069,34.82463 -21.1046,27.40274c-21.88529,-7.42189 -73.2906,-17.37075 -68.2202,-32.32209c5.07039,-14.95134 8.17156,-43.16283 30.05685,-35.74094z" fill="#000000" stroke="#000000" stroke-linecap="butt"/><path d="M463.01314,204.82018c-5.07039,14.95134 -51.9232,-8.42173 -73.80849,-15.84362c-21.88529,-7.42189 -5.1524,-19.63635 -0.082,-34.58768c5.07039,-14.95134 49.8898,-3.64198 71.77509,3.77991c21.88529,7.42189 7.1858,31.70006 2.1154,46.65141z" data-paper-data="{&quot;index&quot;:null}" fill="#000000" stroke="#000000" stroke-linecap="butt"/><path d="M280.78042,151.65056c18.69226,0.59626 56.38655,17.56141 86.05734,27.62357c31.84029,10.79789 70.71101,19.48272 85.40522,30.94099c8.9058,6.94454 -1.3712,25.69897 -2.92407,30.27804c-4.11511,12.13444 -46.24539,0.06575 -97.38325,-17.27646c-22.67738,-7.6905 -62.17301,-18.86677 -77.18234,-27.53759c-18.83695,-10.88201 -10.25015,-19.08121 -7.95992,-25.83455c1.72747,-5.09389 0.46299,-18.62539 13.987,-18.194z" fill="#7d3c3c" stroke="#000000" stroke-linecap="butt"/><path d="M311.53595,158.36616c8.56532,2.90473 -11.34802,-0.81881 -23.39475,2.98588c-11.87115,3.74925 -15.89199,15.00716 -5.8583,20.50798c42.12024,23.09178 169.10578,54.30792 167.56654,58.84675c-2.27801,6.71728 -46.63406,-2.25338 -99.07205,-20.0365c-52.43797,-17.78312 -93.10068,-37.64458 -90.82268,-44.36185c2.27801,-6.71728 -0.85673,-35.72534 51.58123,-17.94224z" fill="#5c2c2c" stroke="none" stroke-linecap="butt"/><path d="M282.88201,150.6134c18.69226,0.59626 56.38655,17.56141 86.05734,27.62357c31.84029,10.79789 70.71101,19.48272 85.40522,30.94099c8.9058,6.94454 -1.3712,25.69897 -2.92407,30.27804c-4.1151,12.1344 -46.24539,0.06575 -97.38325,-17.27646c-22.67738,-7.6905 -62.17301,-18.86677 -77.18234,-27.53759c-18.83695,-10.88201 -10.25015,-19.08121 -7.95992,-25.83455c1.72747,-5.09389 0.46299,-18.62539 13.987,-18.194z" fill="none" stroke="#000000" stroke-linecap="butt"/><path d="M353.26262,144.20413c1.56938,0.53222 1.03716,2.1016 1.03716,2.1016c-0.88704,2.61565 -2.30627,6.80062 -3.1933,9.41627c0,0 -0.53222,1.56938 -2.1016,1.03716c-1.56938,-0.53222 -1.03716,-2.1016 -1.03716,-2.1016c0.88704,-2.61565 1.77405,-5.23124 2.6611,-7.84689l0.53222,-1.56938c0,0 0.53222,-1.56938 2.1016,-1.03716z" fill="#ffffff" stroke="none" stroke-linecap="butt"/><path d="M408.47059,159.42688c1.56938,0.53222 1.03716,2.1016 1.03716,2.1016l-0.26611,0.78469c-1.51256,4.46015 -3.9249,8.77748 -5.30853,13.0736c0,0 -0.53222,1.56938 -2.1016,1.03716c-1.56938,-0.53222 -1.03716,-2.1016 -1.03716,-2.1016c1.53154,-4.35617 3.77071,-8.53894 5.30853,-13.0736l0.26611,-0.78469c0,0 0.53222,-1.56938 2.1016,-1.03716z" fill="#ffffff" stroke="none" stroke-linecap="butt"/><path d="M342.7094,162.06112c-0.69862,-0.23692 -0.1664,-1.8063 -0.1664,-1.8063l0.53222,-1.56938c0.68852,-1.71489 -0.75505,-5.15303 -0.92054,-6.94925c-0.04086,-0.44359 0.03746,-0.84676 0.15705,-1.18407c0.11026,-0.3405 0.29335,-0.70815 0.5956,-1.03534c0.07908,-0.08562 0.15198,-0.15291 0.21911,-0.20452c-0.26386,-0.01546 -0.56687,-0.23172 -0.08833,-1.41889c0.79948,-1.9834 1.59223,-1.73175 2.41881,-2.82381c1.34282,-1.77419 1.48243,-5.87696 4.02855,-8.63326c0,0 0.87033,-0.94217 0.98802,0.33506c0.11768,1.27723 -0.75268,2.21945 -0.75268,2.21945c-2.55294,2.76371 -4.43967,8.87085 -5.70792,11.75532c0.45434,2.6945 1.62758,4.66995 0.45957,8.41323l-0.53222,1.56938c0,0 -0.53222,1.56938 -1.23084,1.33246z" fill="#ffffff" stroke="none" stroke-linecap="butt"/><path d="M349.28636,162.97913l0.53222,-1.56938c1.34998,-3.68157 3.48284,-4.5358 5.48249,-6.39813c0.74799,-3.06094 2.96544,-9.0559 2.62029,-12.80242c0,0 -0.11767,-1.27727 0.75268,-2.21945c0.87035,-0.94221 0.98798,0.33505 0.98798,0.33505c0.3442,3.73651 -2.04065,7.07782 -2.05407,9.30285c-0.00828,1.36958 0.77404,1.6521 0.20211,3.71267c-0.34232,1.23337 -0.71437,1.22066 -0.93321,1.07247c0.0219,0.08176 0.03879,0.17953 0.0495,0.29561c0.04086,0.44359 -0.03743,0.84677 -0.15707,1.18411c-0.11023,0.34052 -0.29335,0.70815 -0.59561,1.03538c-1.22397,1.32502 -4.46114,3.1758 -4.95781,4.95575l-0.53222,1.56938c0,0 -0.53222,1.56938 -1.23084,1.33246c-0.69862,-0.23692 -0.1664,-1.8063 -0.1664,-1.8063z" data-paper-data="{&quot;index&quot;:null}" fill="#ffffff" stroke="none" stroke-linecap="butt"/><path d="M395.14369,181.59284c-0.69862,-0.23692 -0.1664,-1.8063 -0.1664,-1.8063l0.53222,-1.56938c0.68852,-1.71489 -0.75503,-5.15302 -0.92053,-6.94922c-0.04086,-0.44359 0.03743,-0.84677 0.15707,-1.18411c0.11023,-0.34052 0.29335,-0.70815 0.59561,-1.03538c0.07911,-0.08562 0.15196,-0.15296 0.21911,-0.20452c-0.26389,-0.01547 -0.56688,-0.23168 -0.08833,-1.41889c0.79948,-1.9834 1.59227,-1.73177 2.41882,-2.82384c1.34282,-1.77419 1.48243,-5.87696 4.02855,-8.63326c0,0 0.87035,-0.94221 0.98798,0.33505c0.11767,1.27727 -0.75268,2.21945 -0.75268,2.21945c-2.55294,2.76371 -4.43966,8.87082 -5.70792,11.75532c0.45434,2.6945 1.62759,4.66992 0.45959,8.41324l-0.53222,1.56938c0,0 -0.53222,1.56938 -1.23084,1.33246z" data-paper-data="{&quot;index&quot;:null}" fill="#ffffff" stroke="none" stroke-linecap="butt"/><path d="M404.07471,183.30919l0.53222,-1.56938c1.34998,-3.68157 3.48284,-4.5358 5.48249,-6.39813c0.74799,-3.06094 2.96544,-9.0559 2.62029,-12.80242c0,0 -0.11767,-1.27727 0.75268,-2.21945c0.87035,-0.94221 0.98798,0.33505 0.98798,0.33505c0.3442,3.73651 -2.04065,7.07782 -2.05407,9.30285c-0.00828,1.36958 0.77404,1.6521 0.20211,3.71267c-0.34232,1.23337 -0.71437,1.22066 -0.93321,1.07247c0.0219,0.08176 0.03879,0.17953 0.0495,0.29561c0.04086,0.44359 -0.03743,0.84677 -0.15707,1.18411c-0.11023,0.34052 -0.29335,0.70815 -0.59561,1.03538c-1.22397,1.32502 -4.46114,3.1758 -4.95781,4.95575l-0.53222,1.56938c0,0 -0.53222,1.56938 -1.23084,1.33246c-0.69862,-0.23692 -0.1664,-1.8063 -0.1664,-1.8063z" data-paper-data="{&quot;index&quot;:null}" fill="#ffffff" stroke="none" stroke-linecap="butt"/><path d="M373.26741,175.80598c16.35979,5.54804 27.8349,15.31537 25.63037,21.81594c-2.20452,6.50059 -17.25385,7.27276 -33.61364,1.72471c-16.35979,-5.54804 -27.8349,-15.31537 -25.63037,-21.81594c2.20452,-6.50059 17.25385,-7.27276 33.61364,-1.72471z" fill="#000000" stroke="#000000" stroke-linecap="butt"/><path d="M298.32095,213.49322l2.6611,-7.84689" fill="none" stroke="#000000" stroke-linecap="round"/><path d="M348.06339,221.61284l-3.45942,10.20096" fill="none" stroke="#000000" stroke-linecap="round"/><path d="M378.59806,245.09198l5.56784,-12.54821" fill="none" stroke="#000000" stroke-linecap="round"/><path d="M423.28775,242.3113l-6.89156,15.16156" fill="none" stroke="#000000" stroke-linecap="round"/><g stroke-linecap="butt"><path d="M434.72168,54.0913c3.87068,-3.86181 18.72111,-10.64717 29.01959,-24.64254c18.44346,-25.06424 35.92613,-61.40572 46.57439,-61.25046c22.45473,0.32739 46.09905,54.71411 56.17077,64.80893c3.47577,3.48373 33.30112,4.62248 32.40541,9.64302c-1.78211,9.98915 -26.97563,19.90107 -45.31698,33.17596c-18.89239,13.67365 -31.06777,30.7136 -41.40644,41.02861c-25.4205,25.36225 -41.64346,7.38493 -59.15821,-10.17001c-17.51474,-17.55495 -43.70902,-27.23127 -18.28854,-52.59352z" fill="#410000" stroke="#000000"/><path d="M461.35731,34.96957c7.86551,-7.84751 37.97593,-82.8893 55.94559,-64.87836c11.01733,11.04267 -37.85234,42.89429 -38.29981,76.67669c-0.28237,21.31781 50.47118,50.38886 47.42809,53.425c-7.86554,7.84749 -28.8091,-0.39155 -46.77876,-18.40249c-17.96966,-18.01093 -26.16067,-38.97335 -18.29514,-46.82085z" fill="#170000" stroke="none"/><path d="M434.72212,53.74614c3.87065,-3.86182 18.72108,-10.64715 29.01955,-24.64255c18.44346,-25.06424 35.92613,-61.40572 46.57439,-61.25046c22.4547,0.32738 46.09905,54.71411 56.17077,64.80893c3.47577,3.48373 33.30109,4.62248 32.40539,9.643c-1.78208,9.98916 -26.97559,19.90108 -45.31698,33.17596c-18.8924,13.67368 -31.06777,30.7136 -41.40644,41.02861c-25.4205,25.36225 -41.64346,7.38493 -59.15821,-10.17001c-17.51473,-17.55498 -43.70902,-27.23127 -18.28854,-52.59352z" fill="none" stroke="#000000"/><path d="M515.82592,143.54609c-6.61191,6.59676 -9.77708,22.7226 -26.53215,12.79012c-9.98705,-5.92039 -32.1713,-33.41246 -42.46021,-43.72499c-11.73892,-11.76586 -34.96384,-33.055 -40.8854,-44.18835c-7.97596,-14.9959 4.05234,-18.83219 10.10883,-24.87481c5.49263,-5.48006 15.86895,-13.8996 29.04152,-7.66794c12.13594,5.74128 26.73983,25.36151 39.95082,38.60285c12.01839,12.04598 39.85643,33.01301 45.75682,44.35026c7.6254,14.6518 -9.03081,18.77705 -14.98023,24.71286z" data-paper-data="{&quot;index&quot;:null}" fill="#410000" stroke="#000000"/><path d="M449.38435,41.13334c8.62664,3.85589 52.10498,45.15028 69.41729,65.85945c14.07059,16.83141 10.57566,18.16211 14.54091,22.13647c1.75182,1.75583 -3.53942,18.44608 -10.30455,11.53304c-8.991,-9.18755 -1.14766,-17.01753 -14.16753,-33.87691c-14.26751,-18.47499 -55.62784,-51.99267 -65.89169,-55.89121c-6.52036,-2.47664 -12.58051,-1.60078 -17.35823,0.57566c-6.19159,2.82051 -10.22945,7.82515 -10.32407,10.54792c-0.50204,14.44436 90.90081,91.31153 86.88254,95.32061c-7.75156,7.73378 -47.09735,-31.5188 -68.59268,-53.06352c-21.49534,-21.54473 -32.63688,-45.27962 -24.88536,-53.01342c4.56226,-4.55181 18.31337,-20.12688 40.68338,-10.12806z" fill="#170000" stroke="none"/><path d="M515.82507,144.28584c-6.61191,6.59676 -9.77706,22.72261 -26.53215,12.79012c-9.98706,-5.92036 -32.1713,-33.41246 -42.46023,-43.72501c-11.73892,-11.76586 -34.96381,-33.05498 -40.8854,-44.18835c-7.97596,-14.9959 4.05234,-18.83219 10.10883,-24.87481c5.49262,-5.48003 15.86899,-13.8996 29.04152,-7.66794c12.13595,5.74126 26.73983,25.36151 39.95082,38.60285c12.01839,12.04598 39.85643,33.01301 45.7568,44.35029c7.6254,14.6518 -9.03081,18.77705 -14.98023,24.71286z" data-paper-data="{&quot;index&quot;:null}" fill="none" stroke="#000000"/></g><g stroke-linecap="butt"><path d="M222.49949,282.64847c25.45611,0 46.09235,8.6766 46.09235,19.37974c0,10.70315 -66.20833,105.55243 -91.66444,105.55243c-25.45611,0 -51.06385,-20.27677 -51.06385,-30.97991c0,-10.70315 71.17983,-93.95226 96.63594,-93.95226z" fill="#840000" stroke="#000000"/><path d="M159.92327,389.04141c9.03002,0 28.52673,-4.47714 44.85607,-19.55847c31.66692,-29.24666 62.85979,-77.78542 62.85979,-66.61422c0,16.93172 -64.60257,100.25861 -91.14419,100.25861c-26.54162,0 -52.20076,-13.72587 -52.20076,-30.65759c0,-16.93172 9.08747,16.57167 35.62909,16.57167z" fill="#430000" stroke="none"/><path d="M222.49949,281.81989c25.45611,0 46.09235,8.6766 46.09235,19.37974c0,10.70315 -66.20833,105.55243 -91.66444,105.55243c-25.45611,0 -51.06385,-20.27677 -51.06385,-30.97991c0,-10.70315 71.17983,-93.95226 96.63594,-93.95226z" fill="none" stroke="#000000"/></g><g data-paper-data="{&quot;index&quot;:null}" stroke-linecap="butt"><path d="M578.15314,372.71889c0,10.70315 -25.60774,30.97991 -51.06385,30.97991c-25.45611,0 -91.66444,-94.84928 -91.66444,-105.55243c0,-10.70315 20.63624,-19.37974 46.09235,-19.37974c25.45611,0 96.63594,83.24911 96.63594,93.95226z" fill="#840000" stroke="#000000"/><path d="M579.72251,368.5879c0,16.93172 -25.65914,30.65759 -52.20076,30.65759c-26.54162,0 -91.14419,-83.32689 -91.14419,-100.25861c0,-11.1712 31.19287,37.36756 62.85979,66.61422c16.32934,15.08133 35.82605,19.55847 44.85607,19.55847c26.54162,0 35.62909,-33.50339 35.62909,-16.57167z" fill="#430000" stroke="none"/><path d="M578.15314,371.8903c0,10.70315 -25.60774,30.97991 -51.06385,30.97991c-25.45611,0 -91.66444,-94.84928 -91.66444,-105.55243c0,-10.70315 20.63624,-19.37974 46.09235,-19.37974c25.45611,0 96.63594,83.24911 96.63594,93.95226z" fill="none" stroke="#000000"/></g></g></g></svg>