<svg version="1.1" xmlns="http://www.w3.org/2000/svg" xmlns:xlink="http://www.w3.org/1999/xlink" width="191.41894" height="343.80106" viewBox="0,0,191.41894,343.80106"><g transform="translate(-71.10603,17.06953)"><g data-paper-data="{&quot;isPaintingLayer&quot;:true}" fill-rule="nonzero" stroke-width="3.5" stroke-linejoin="miter" stroke-miterlimit="10" stroke-dasharray="" stroke-dashoffset="0" style="mix-blend-mode: normal"><g fill="none" stroke="#000000" stroke-linecap="round"><path d="M241.5215,-4.96821l3.6534,205.19952"/><g><g><path d="M72.85603,-11.6661l38.36073,172.92777"/><path d="M77.11833,139.95013l21.92043,60.89007"/></g><path d="M157.49321,-15.31953v56.62775"/></g></g><g stroke-linecap="butt"><path d="M178.5107,221.62945c-5.44848,-0.46744 -9.23374,-8.20781 -8.45467,-17.28858c0.77907,-9.08077 5.82749,-16.06327 11.27596,-15.59582c5.44848,0.46744 9.23376,8.20781 8.45469,17.28858c-0.77907,9.08077 -5.82749,16.06327 -11.27596,15.59582z" fill="none" stroke="#000000"/><path d="M176.88426,242.45945c-5.32848,-1.22947 -7.98692,-9.42547 -5.93779,-18.30626c2.04913,-8.88079 8.02984,-15.08342 13.35832,-13.85395c5.32848,1.22947 7.98692,9.42547 5.93779,18.30626c-2.04913,8.88079 -8.02984,15.08344 -13.35832,13.85397z" fill="none" stroke="#000000"/><path d="M173.46453,261.29229c-5.41431,-0.76775 -8.76617,-8.70545 -7.48659,-17.72931c1.27958,-9.02386 6.70607,-15.71676 12.1204,-14.949c5.41431,0.76775 8.76619,8.70543 7.48661,17.72929c-1.27958,9.02386 -6.70609,15.71676 -12.1204,14.94902z" fill="none" stroke="#000000"/><path d="M169.67556,284.06969c-5.25241,-1.52198 -7.45399,-9.85233 -4.91734,-18.60635c2.53665,-8.75404 8.85092,-14.61675 14.10333,-13.09477c5.25241,1.52198 7.45397,9.85233 4.91734,18.60635c-2.53665,8.75404 -8.85092,14.61675 -14.10333,13.09477z" fill="none" stroke="#000000"/><g><path d="M206.84152,302.34853c0.8739,12.34915 -24.77458,17.60775 -36.74493,18.45485c-11.97035,0.8471 -22.38267,-8.47717 -23.25657,-20.8263c-0.8739,-12.34915 8.12153,-23.04684 20.09188,-23.89392c11.97035,-0.8471 39.03572,13.91623 39.90962,26.26537z" fill="#00ffe6" stroke="#000000"/><path d="M207.30469,304.9305c0.45036,6.36398 -26.52409,13.182 -37.88835,13.9862c-11.36425,0.8042 -20.94187,-3.70287 -21.39223,-10.06685c-0.28198,-3.98457 20.69925,6.77257 30.24336,1.9968c3.21908,-1.6108 23.33529,-0.42794 20.11324,-9.42885c-2.48254,-6.93507 -28.5712,-24.71577 -26.72212,-24.84664c11.36425,-0.8042 35.19574,21.99535 35.6461,28.35933z" fill="#00d6c0" stroke="none"/><path d="M206.37483,303.47979c0.8739,12.34915 -24.55847,16.76526 -36.52882,17.61237c-11.97035,0.8471 -22.38265,-8.47717 -23.25657,-20.8263c-0.8739,-12.34915 8.12153,-23.04682 20.09186,-23.89392c11.97035,-0.8471 38.81961,14.75872 39.69351,27.10785z" fill="none" stroke="#000000"/></g></g><g stroke-linecap="butt"><path d="M138.50591,211.86587c1.2255,-9.03137 6.61177,-15.75667 12.0306,-15.02137c5.41883,0.73531 8.81818,8.65275 7.59268,17.68413c-1.2255,9.03137 -6.61177,15.75667 -12.0306,15.02137c-5.41883,-0.73531 -8.81818,-8.65275 -7.59268,-17.68413z" fill="none" stroke="#000000"/><path d="M143.13072,250.23156c-5.46839,0.03453 -9.948,-7.32582 -10.00554,-16.43977c-0.05754,-9.11396 4.3288,-16.53028 9.79717,-16.5648c5.46837,-0.03453 9.948,7.32582 10.00554,16.43977c0.05754,9.11396 -4.32882,16.53028 -9.79719,16.5648z" fill="none" stroke="#000000"/><path d="M140.45693,269.24616c-5.45894,0.32273 -10.32035,-6.79125 -10.85822,-15.88949c-0.53788,-9.09824 3.45144,-16.73547 8.91038,-17.0582c5.45894,-0.32273 10.32035,6.79123 10.85822,15.88947c0.53788,9.09824 -3.45144,16.73547 -8.91038,17.0582z" fill="none" stroke="#000000"/><path d="M129.38581,278.05352c-1.8128,-8.93203 1.06215,-17.05462 6.42138,-18.14228c5.35923,-1.08767 11.17329,5.27144 12.98607,14.20349c1.8128,8.93203 -1.06215,17.05462 -6.42138,18.14228c-5.35923,1.08767 -11.17329,-5.27144 -12.98607,-14.20349z" fill="none" stroke="#000000"/><g><path d="M139.61447,278.78053c11.74617,-2.4564 23.32267,5.3758 25.85679,17.4937c2.53412,12.11789 -4.93371,23.93269 -16.67988,26.38909c-11.74617,2.4564 -37.85542,4.40717 -40.38954,-7.71072c-2.53414,-12.11789 19.46646,-33.71567 31.21264,-36.17207z" fill="#00ffe6" stroke="#000000"/><path d="M108.66192,317.56283c-1.30593,-6.2448 15.38774,-34.68916 26.53918,-37.02119c1.81445,-0.37944 -18.42201,23.85397 -18.91484,31.20347c-0.63965,9.53881 18.38757,2.9036 21.92433,3.57339c10.48593,1.9858 27.72878,-14.09563 28.54644,-10.18569c1.30593,6.2448 -6.67542,13.1977 -17.82687,15.52972c-11.15144,2.33202 -38.96233,3.1451 -40.26826,-3.09969z" fill="#00d6c0" stroke="none"/><path d="M109.15993,315.91324c-2.53414,-12.11789 19.02834,-34.46703 30.77452,-36.92342c11.74617,-2.4564 23.32267,5.3758 25.85679,17.4937c2.53412,12.11789 -4.93371,23.93269 -16.67988,26.38909c-11.74619,2.4564 -37.41732,5.15853 -39.95144,-6.95936z" fill="none" stroke="#000000"/></g></g><g><path d="M163.95564,161.6796c0,-15.26617 6.03392,-27.64186 13.47714,-27.64186c4.49789,0 16.45742,2.59397 18.90551,9.53934c1.60308,4.548 -5.42838,12.06161 -5.42838,18.10254c0,5.60366 5.78808,12.19307 4.39082,16.54873c-2.4093,7.51055 -13.15687,11.09315 -17.86794,11.09315c-7.44322,0 -13.47714,-12.3757 -13.47714,-27.64188z" fill="#ffffff" stroke="#000000" stroke-linecap="butt"/><path d="M166.01383,132.38281c7.47985,0 12.06491,19.34368 18.44188,31.02249c4.17769,7.65099 11.95041,8.08743 11.95041,11.33418c0,8.20274 -7.56061,19.25304 -19.94065,19.25304c-12.38004,0 -22.41604,-6.64962 -22.41604,-14.85234c0,-8.20272 -0.41562,-46.75737 11.9644,-46.75737z" fill="#cecece" stroke="none" stroke-linecap="butt"/><path d="M163.95096,162.50006c0,-15.26619 6.0339,-27.64186 13.47712,-27.64186c4.49789,0 16.45742,2.59395 18.90551,9.53932c1.60308,4.548 -5.42838,12.06161 -5.42838,18.10254c0,5.60366 5.78808,12.19307 4.39082,16.54873c-2.4093,7.51055 -13.15687,11.09315 -17.86794,11.09315c-7.44322,0 -13.47712,-12.3757 -13.47712,-27.64188z" fill="none" stroke="#000000" stroke-linecap="butt"/><path d="M133.42589,154.11594c0,-13.24814 -6.04095,-31.60688 -1.09724,-40.4918c5.25947,-9.45237 21.75514,-9.016 29.97679,-9.016c9.27277,0 21.65047,-4.61009 26.93448,7.03531c1.44165,3.17728 0.84596,14.52609 -2.39366,21.04939c-2.24247,4.51538 -6.75453,3.71022 -8.60973,8.65701c-2.53805,6.76763 -1.62884,14.43489 -1.62884,18.542c0,10.90919 19.94521,22.91957 16.45805,31.10152c-5.25291,12.325 -21.17429,12.63038 -30.76032,12.63038c-6.15964,0 -19.57007,0.54478 -24.25812,-5.08834c-0.33934,-0.40776 -0.39829,-0.55268 -0.72672,-0.98445c-6.88304,-9.04889 -3.89471,-27.41634 -3.89471,-43.43503z" fill="#00ffe6" stroke="#000000" stroke-linecap="butt"/><path d="M133.14613,187.25398c0,-5.33418 0.63867,-17.72082 0.55983,-37.26619c-0.04022,-9.96976 -5.26458,-21.66719 -4.21361,-30.44254c0.70636,-5.89782 6.81098,-11.07891 9.60244,-11.26344c0.61868,-0.04091 -1.91321,50.5252 4.74515,67.80264c4.40565,11.43194 18.86532,15.98279 19.28591,15.98279c7.17553,0 12.96011,-4.20208 18.35856,-16.44437c3.58467,-8.12911 10.08958,8.4263 12.01356,8.22728c1.8644,-0.19285 -0.39239,0.45987 -0.39239,3.40381c0,10.55718 -13.42238,19.11551 -29.97972,19.11551c-16.55734,0 -29.97972,-8.55831 -29.97972,-19.11551z" fill="#00d6c0" stroke="none" stroke-linecap="butt"/><path d="M133.97128,154.66133c0,-13.24814 -6.04095,-31.60688 -1.09724,-40.4918c5.25947,-9.45237 21.75514,-9.016 29.97679,-9.016c9.27277,0 21.65047,-4.61009 26.93448,7.03531c1.65631,3.65036 1.44623,18.18439 -2.9628,25.3843c-2.04797,3.34431 -8.2374,-1.58046 -9.72382,2.16155c-2.66455,6.7079 -0.49571,15.72852 -0.49571,19.87744c0,10.90919 20.4953,23.74468 17.00815,31.92663c-5.25289,12.325 -21.17427,12.63038 -30.7603,12.63038c-6.15964,0 -19.57007,0.54478 -24.25812,-5.08834c-0.33934,-0.40776 -0.39831,-0.55266 -0.72674,-0.98443c-6.88304,-9.04887 -3.89471,-27.41634 -3.89471,-43.43503z" fill="none" stroke="#000000" stroke-linecap="butt"/><path d="M136.99673,114.78003l4.67574,3.57555l3.02547,7.15113l-1.9253,6.05096l-7.70123,16.77765" fill="none" stroke="#000000" stroke-linecap="round"/><path d="M144.14786,142.28436l-7.15113,-3.30051" fill="none" stroke="#000000" stroke-linecap="round"/><path d="M138.92203,134.03308l7.15113,-0.27504" fill="none" stroke="#000000" stroke-linecap="round"/><path d="M137.27179,119.18071l3.8506,-4.12564" fill="none" stroke="#000000" stroke-linecap="round"/><path d="M147.17334,120.2809l-6.60104,3.57555" fill="none" stroke="#000000" stroke-linecap="round"/><path d="M138.64699,129.35734l7.42617,-1.37521" fill="none" stroke="#000000" stroke-linecap="round"/><path d="M184.57925,136.23342l-9.62653,-0.82513l-2.47538,-1.9253l0.27504,-3.30053l1.65026,-4.4007l1.10017,-2.75043l4.12564,-3.30053l-4.12564,-3.30051l-3.57557,1.9253l-1.9253,4.4007l-1.65026,2.75043h-4.95077l-4.4007,-3.57557l1.9253,-5.22581l3.57555,-1.9253l0.82513,-4.12564" fill="none" stroke="#000000" stroke-linecap="round"/><path d="M163.12585,118.3556l-5.77591,0.5501" fill="none" stroke="#000000" stroke-linecap="round"/><path d="M160.10038,128.25717l4.12564,-6.60104" fill="none" stroke="#000000" stroke-linecap="round"/><path d="M167.25151,122.48125l1.9253,5.22583" fill="none" stroke="#000000" stroke-linecap="round"/><path d="M173.30246,120.83098l-4.40068,-4.12564" fill="none" stroke="#000000" stroke-linecap="round"/><path d="M181.27872,115.8802l-4.12564,3.57557" fill="none" stroke="#000000" stroke-linecap="round"/><path d="M173.85255,123.85647h4.67574" fill="none" stroke="#000000" stroke-linecap="round"/><path d="M170.82706,130.18247l6.05096,-2.75043" fill="none" stroke="#000000" stroke-linecap="round"/><path d="M173.57749,134.85821l2.20036,-2.75043" fill="none" stroke="#000000" stroke-linecap="round"/><path d="M172.75238,158.78699l-10.45164,2.4754v6.05094l-6.05096,2.47538l-1.65026,4.67574h-4.67574l-5.50087,2.47538l-5.22581,0.27506l-3.02547,3.02547" fill="none" stroke="#000000" stroke-linecap="round"/><path d="M141.94752,173.08924l0.5501,7.70123" fill="none" stroke="#000000" stroke-linecap="round"/><path d="M149.09864,179.41522l-2.47538,-7.97625" fill="none" stroke="#000000" stroke-linecap="round"/><path d="M157.07491,178.59011l-4.4007,-9.90157" fill="none" stroke="#000000" stroke-linecap="round"/><path d="M163.95098,170.06375l-5.77591,-6.87608" fill="none" stroke="#000000" stroke-linecap="round"/><path d="M164.22604,156.03653l2.47538,7.15113" fill="none" stroke="#000000" stroke-linecap="round"/><path d="M171.37715,156.31159l3.8506,7.70123" fill="none" stroke="#000000" stroke-linecap="round"/></g><path d="M177.32795,23.19234l7.15113,4.95077" fill="none" stroke="#000000" stroke-linecap="round"/><g><g data-paper-data="{&quot;index&quot;:null}" stroke-linecap="butt"><path d="M212.06474,79.61195c0.12984,5.61888 3.45568,10.37459 -5.8079,10.58863c-9.26355,0.21405 -27.60862,-4.1946 -27.73845,-9.81348c-0.12984,-5.61888 17.6789,-12.51364 26.94246,-12.7277c9.26355,-0.21405 6.47405,6.33365 6.60386,11.95254z" fill="#808080" stroke="#000000"/><path d="M212.519,87.16249c0.06141,2.65758 -3.71524,2.14922 -9.71378,2.28783c-5.99853,0.13861 -10.91111,-1.90341 -10.97253,-4.56101c-0.03139,-1.35861 9.22581,0.85458 13.29034,-2.99662c3.88607,-3.6821 2.51643,-13.46296 5.44838,-13.53072c5.99853,-0.13861 1.88617,16.14291 1.94758,18.8005z" fill="#5f5f5f" stroke="none"/><path d="M211.7816,79.06356c0.12984,5.61888 3.45568,10.37461 -5.80789,10.58865c-9.26355,0.21405 -27.60862,-4.1946 -27.73846,-9.8135c-0.12984,-5.61888 17.6789,-12.51364 26.94246,-12.7277c9.26355,-0.21405 6.47405,6.33365 6.60386,11.95254z" fill="none" stroke="#000000"/></g><g stroke-linecap="butt"><path d="M103.12195,93.12926c-0.12984,-5.6189 -3.21882,-12.03077 6.04475,-12.24482c9.26355,-0.21405 27.37176,5.85078 27.50158,11.46966c0.12984,5.6189 -17.992,10.87019 -27.25557,11.08424c-9.26358,0.21405 -6.16095,-4.69022 -6.29079,-10.30909z" fill="#808080" stroke="#000000"/><path d="M103.01692,100.69273c-0.06141,-2.65758 -4.92141,-18.7318 1.07712,-18.87039c2.93193,-0.06774 2.01554,9.76599 6.06753,13.26465c4.23807,3.65932 13.38315,1.0209 13.41455,2.37954c0.06141,2.65758 -4.7516,4.92436 -10.75013,5.06295c-5.99853,0.13861 -9.74768,0.82086 -9.8091,-1.83672z" fill="#5f5f5f" stroke="none"/><path d="M103.37937,92.56843c-0.12984,-5.6189 -3.21882,-12.03077 6.04475,-12.24482c9.26358,-0.21405 27.37178,5.85078 27.5016,11.46967c0.12984,5.6189 -17.992,10.87019 -27.25557,11.08424c-9.26355,0.21405 -6.16094,-4.69021 -6.29077,-10.30909z" fill="none" stroke="#000000"/></g><path d="M195.55479,44.52044c10.51596,22.25804 0.75495,48.94103 -21.80185,59.59815c-22.55679,10.65711 -49.36755,1.25272 -59.88353,-21.00533c-10.51596,-22.25804 -0.75495,-48.94103 21.80185,-59.59815c22.55679,-10.65711 49.36757,-1.2527 59.88353,21.00533z" fill="#00ffe6" stroke="#000000" stroke-linecap="butt"/><path d="M148.45244,45.91675c16.97866,-1.93869 31.47602,2.91287 32.38076,10.83625c0.90473,7.92339 -12.12577,15.91818 -29.10447,17.85687c-16.97869,1.9387 -31.47605,-2.91289 -32.38078,-10.83627c-0.90473,-7.92339 12.1258,-15.91817 29.10448,-17.85685z" fill="#00d6c0" stroke="none" stroke-linecap="butt"/><path d="M160.42554,80.45049c16.59627,-9.66312 25.28796,-34.70531 34.55928,-34.91956c4.98659,-0.11523 2.77145,15.76875 3.41932,18.96679c1.71267,8.45419 -3.31839,11.29982 -3.14669,18.72985c0.23663,10.24067 -23.18954,22.67885 -41.35844,23.09869c-18.1689,0.41984 -33.08954,-7.54151 -33.32617,-17.78217c-0.11589,-5.015 23.92543,1.18002 39.85272,-8.0936z" fill="#00d6c0" stroke="none" stroke-linecap="butt"/><path d="M195.55479,44.52044c10.51596,22.25804 0.75495,48.94103 -21.80185,59.59815c-22.55679,10.65711 -49.36755,1.25272 -59.88353,-21.00533c-10.51596,-22.25804 -0.75495,-48.94103 21.80185,-59.59815c22.55679,-10.65711 49.36757,-1.2527 59.88353,21.00533z" fill="none" stroke="#000000" stroke-linecap="butt"/><path d="M198.89154,59.20525l-13.32877,18.86025l-10.22366,-2.15758l-2.11613,12.01808l-19.29252,-6.13727l-5.7879,8.51219l-21.69889,-6.68013l-3.45063,6.06431" fill="none" stroke="#000000" stroke-linecap="round"/><path d="M132.34724,48.4306c8.20054,-0.18949 15.00768,6.55097 15.20419,15.05523c0.19652,8.50426 -6.29204,15.55194 -14.49257,15.74142c-8.20054,0.18949 -15.00768,-6.55097 -15.20419,-15.05523c-0.19652,-8.50426 6.29204,-15.55194 14.49257,-15.74142z" fill="#ff0000" stroke="#000000" stroke-linecap="butt"/><path d="M168.78326,41.54077c7.44121,-0.17195 13.63283,6.58274 13.82933,15.08699c0.19652,8.50426 -5.67648,15.53771 -13.11772,15.70967c-7.44121,0.17195 -13.63283,-6.58274 -13.82933,-15.08699c-0.19652,-8.50426 5.67648,-15.53771 13.11772,-15.70967z" fill="#ff0000" stroke="#000000" stroke-linecap="butt"/><path d="M122.6043,31.59846l10.29286,16.81941" fill="none" stroke="#000000" stroke-linecap="round"/><path d="M130.4115,36.09507l-7.30347,5.39599" fill="none" stroke="#000000" stroke-linecap="round"/><path d="M133.55691,41.24962l-8.72915,3.22799" fill="none" stroke="#000000" stroke-linecap="round"/><path d="M180.62299,30.25784l-7.69457,12.28295" fill="none" stroke="#000000" stroke-linecap="round"/><path d="M171.07529,33.77985l9.20742,5.56469" fill="none" stroke="#000000" stroke-linecap="round"/><path d="M144.26096,87.7721l-2.40943,-9.02316" fill="none" stroke="#000000" stroke-linecap="round"/><path d="M140.04747,84.01787l7.08569,-2.91489" fill="none" stroke="#000000" stroke-linecap="round"/><path d="M168.7033,74.00173l1.08539,11.25471" fill="none" stroke="#000000" stroke-linecap="round"/><path d="M165.49897,78.20252l7.92329,-2.38402" fill="none" stroke="#000000" stroke-linecap="round"/></g><g stroke-linecap="butt"><path d="M121.81302,146.05341c-5.2077,-1.66862 -7.17488,-10.05741 -4.39385,-18.73688c2.78104,-8.67947 9.25717,-14.3629 14.46484,-12.69429c5.20768,1.66862 7.17488,10.05741 4.39385,18.73688c-2.78104,8.67947 -9.25719,14.3629 -14.46486,12.69429z" fill="none" stroke="#000000"/><path d="M115.29656,168.20521c-5.39068,-0.91922 -8.51872,-8.94772 -6.98668,-17.93217c1.53204,-8.98444 7.144,-15.52261 12.53467,-14.60339c5.39066,0.91922 8.51872,8.94774 6.98668,17.93219c-1.53204,8.98445 -7.144,15.52261 -12.53467,14.60339z" fill="none" stroke="#000000"/><path d="M101.10314,166.9258c0.86456,-9.07302 5.97854,-16.00768 11.42235,-15.48893c5.44381,0.51873 9.15601,8.2944 8.29147,17.36744c-0.86456,9.07302 -5.97852,16.00768 -11.42233,15.48893c-5.44381,-0.51873 -9.15603,-8.2944 -8.29149,-17.36744z" fill="none" stroke="#000000"/><path d="M97.10317,191.29752c-0.42076,-9.10443 3.66653,-16.68967 9.12917,-16.94212c5.46266,-0.25243 10.23208,6.92353 10.65283,16.02793c0.42076,9.10441 -3.66653,16.68965 -9.12917,16.9421c-5.46266,0.25245 -10.23208,-6.92351 -10.65284,-16.02791z" fill="none" stroke="#000000"/><path d="M105.73879,195.11117c11.98553,0.59482 21.20425,11.10068 20.59061,23.46548c-0.61364,12.3648 -10.82728,21.90627 -22.81281,21.31145c-11.98553,-0.59482 -21.20425,-11.10068 -20.59061,-23.46548c0.61364,-12.3648 10.82728,-21.90627 22.81281,-21.31145z" fill="#00ffe6" stroke="#000000"/><path d="M101.02346,195.6986c1.85141,0.09188 -4.52264,6.15929 -6.85859,13.14509c-3.0318,9.06675 -2.2793,19.71931 0.97299,21.26197c9.64256,4.57375 30.3926,-6.6229 30.1946,-2.63328c-0.31623,6.37206 -9.79681,11.07985 -21.17549,10.51515c-11.37868,-0.5647 -20.34654,-6.18806 -20.0303,-12.56011c0.31623,-6.37204 5.51811,-30.29352 16.89678,-29.72882z" fill="#00d6c0" stroke="none"/><path d="M105.99544,195.39457c11.98553,0.59482 21.20425,11.1007 20.59061,23.4655c-0.61364,12.3648 -10.82728,21.90627 -22.81281,21.31145c-11.98553,-0.59482 -21.20428,-11.10066 -20.59063,-23.46548c0.61364,-12.36482 10.8273,-21.90629 22.81283,-21.31147z" fill="none" stroke="#000000"/></g><g stroke-linecap="butt"><path d="M198.35581,142.16406c-5.26851,1.46534 -11.51926,-4.46505 -13.96151,-13.24588c-2.44223,-8.78082 -0.1511,-17.08698 5.11741,-18.55232c5.26851,-1.46534 11.51928,4.46505 13.96151,13.24588c2.44223,8.78082 0.1511,17.08698 -5.11741,18.55232z" fill="none" stroke="#000000"/><path d="M204.61165,164.60661c-5.35606,1.10313 -11.18848,-5.23914 -13.02705,-14.16591c-1.83857,-8.92677 1.01292,-17.05761 6.36898,-18.16075c5.35606,-1.10313 11.18846,5.23914 13.02703,14.16591c1.83857,8.92677 -1.0129,17.05761 -6.36896,18.16077z" fill="none" stroke="#000000"/><path d="M232.0103,170.40709c-2.20358,5.00486 -10.752,6.08484 -19.0934,2.4122c-8.3414,-3.67263 -13.31712,-10.70711 -11.11354,-15.71196c2.20358,-5.00486 10.752,-6.08484 19.0934,-2.4122c8.3414,3.67263 13.31714,10.70711 11.11356,15.71196z" fill="none" stroke="#000000"/><path d="M237.87067,195.52075c-4.57273,1.8856 -11.22531,-3.35495 -14.85897,-11.70509c-3.63365,-8.35013 -2.87238,-16.64782 1.70035,-18.53341c4.57273,-1.8856 11.22531,3.35495 14.85897,11.70509c3.63365,8.35013 2.87238,16.64782 -1.70035,18.53341z" fill="none" stroke="#000000"/><path d="M260.7736,203.25307c0.1335,12.37932 -9.48587,22.51964 -21.48545,22.64905c-11.99958,0.12941 -21.83538,-9.8011 -21.96889,-22.18042c-0.1335,-12.3793 9.48585,-22.51962 21.48543,-22.64903c11.99958,-0.12941 21.8354,9.8011 21.96891,22.1804z" fill="#00ffe6" stroke="#000000"/><path d="M259.22446,212.20452c0.0688,6.37953 -9.11048,11.65073 -20.50248,11.77359c-11.392,0.12286 -20.68282,-4.94918 -20.75162,-11.32869c-0.04308,-3.9943 20.25696,7.99887 30.06972,3.80266c3.30969,-1.41533 4.47487,-12.03067 1.79709,-21.20822c-2.06317,-7.07116 -8.19706,-13.38127 -6.34347,-13.40126c11.392,-0.12286 15.66197,23.98242 15.73077,30.36195z" fill="#00d6c0" stroke="none"/><path d="M260.50618,203.52632c0.1335,12.37932 -9.48587,22.51964 -21.48545,22.64905c-11.99958,0.12941 -21.83538,-9.8011 -21.96889,-22.18042c-0.1335,-12.3793 9.48585,-22.51962 21.48543,-22.64903c11.99958,-0.12941 21.8354,9.8011 21.96891,22.1804z" fill="none" stroke="#000000"/></g></g></g></svg>