<svg version="1.1" xmlns="http://www.w3.org/2000/svg" xmlns:xlink="http://www.w3.org/1999/xlink" width="382.33146" height="313.31768" viewBox="0,0,382.33146,313.31768"><g transform="translate(50.78856,-133.28035)"><g data-paper-data="{&quot;isPaintingLayer&quot;:true}" fill-rule="nonzero" stroke-width="7" stroke-linejoin="miter" stroke-miterlimit="10" stroke-dasharray="" stroke-dashoffset="0" style="mix-blend-mode: normal"><g><path d="M54.7257,380.95778c4.29292,-12.94242 34.65619,-79.42458 64.6133,-102.61642c14.19302,-10.9878 27.94729,5.24497 39.43881,9.05664c35.74655,11.8569 31.72443,117.42317 25.39762,136.49743c-6.3268,19.07424 -40.43402,24.92506 -76.18057,13.06816c-35.74655,-11.8569 -59.59598,-36.93157 -53.26918,-56.00581z" fill="#737373" stroke="#000000" stroke-linecap="butt"/><path d="M58.91882,387.4085c1.36261,-4.10803 38.06454,-100.84869 57.67331,-105.08142c17.28932,-3.73205 -29.15869,22.81725 -16.3842,46.79423c6.71312,12.60014 55.93347,27.95275 79.86983,35.44051c13.49677,4.22206 6.62635,3.40384 9.86692,4.42431c0.13397,0.04219 3.01293,5.43555 -5.20111,3.72642c-21.62164,-4.49893 -72.54472,-18.86331 -96.49621,-14.87771c-31.31047,5.21017 -26.6339,32.7393 -26.16999,32.89318c10.82802,3.59158 28.25606,20.35062 45.58092,24.4583c36.25266,8.59543 74.99714,4.98741 72.52369,12.44443c-3.65549,11.02069 -33.76453,10.95065 -67.25045,-0.15641c-33.48592,-11.10706 -57.66824,-29.04513 -54.01275,-40.06582z" fill="#484848" stroke="none" stroke-linecap="butt"/><path d="M121.18845,273.27529c13.89253,-11.08745 27.10164,4.96448 38.22978,8.65561c34.61623,11.48198 29.71121,116.7554 23.3844,135.82966c-6.32681,19.07426 -39.5177,25.229 -74.13393,13.74702c-34.61623,-11.48198 -57.54935,-36.25269 -51.22254,-55.32696c4.29292,-12.94242 34.41942,-79.50312 63.74229,-102.90533z" fill="none" stroke="#000000" stroke-linecap="butt"/><path d="M183.34126,378.46654l-106.08566,-36.32384" fill="none" stroke="#000000" stroke-linecap="round"/><path d="M88.81339,312.57675l21.64681,-1.90713l10.41296,9.70139" fill="none" stroke="#000000" stroke-linecap="round"/><path d="M185.60848,397.26683l-21.98372,4.63514l-16.73014,-16.34037" fill="none" stroke="#000000" stroke-linecap="round"/></g><g data-paper-data="{&quot;index&quot;:null}" stroke-linecap="butt"><path d="M269.60973,355.72054c-19.28094,-10.02976 -26.50203,-34.32605 -16.1288,-54.26728c10.37323,-19.94123 34.41269,-27.97608 53.69363,-17.94632c19.28094,10.02976 26.50203,34.32605 16.1288,54.26728c-10.37323,19.94123 -34.41269,27.97608 -53.69363,17.94632z" fill="#737373" stroke="#000000"/><path d="M255.97548,348.58196c-11.62138,-6.04533 -12.72602,-26.93318 -2.46729,-46.6543c10.25875,-19.72114 27.9961,-30.80757 39.61749,-24.76223c11.62138,6.04533 43.15893,13.59711 32.90018,33.31825c-3.90921,7.51496 -11.88174,-8.97149 -24.62736,-15.09618c-7.9238,-3.80763 -20.13438,1.08388 -26.92868,3.9507c-5.16993,2.18142 -15.63,11.7405 -18.26708,23.14327c-2.95174,12.76334 2.11761,27.32029 -0.22726,26.10051z" fill="#484848" stroke="none"/><path d="M268.64039,356.02648c-19.28094,-10.02976 -26.50203,-34.32605 -16.1288,-54.26728c10.37323,-19.94123 34.41269,-27.97608 53.69363,-17.94632c19.28094,10.02976 26.50203,34.32605 16.1288,54.26728c-10.37323,19.94123 -34.41269,27.97608 -53.69363,17.94632z" fill="none" stroke="#000000"/></g><path d="M68.71091,237.5595z" fill="#ffffff" stroke="#000000" stroke-linecap="butt"/><g stroke-linecap="butt"><path d="M6.2878,314.88174c21.39153,6.90355 33.32168,29.26704 26.64672,49.95026c-6.67497,20.68322 -29.42737,31.85382 -50.8189,24.95026c-21.39153,-6.90355 -33.32168,-29.26704 -26.64672,-49.95026c6.67497,-20.68322 29.42737,-31.85382 50.8189,-24.95026z" fill="#737373" stroke="#000000"/><path d="M-49.21874,354.49071c0.81178,-2.5154 7.431,11.40541 18.49829,18.41471c9.88754,6.26212 24.04701,5.71623 29.25872,3.63657c6.84918,-2.73307 18.97527,-7.83039 21.93923,-16.10687c4.76757,-13.31287 -1.14111,-30.64642 6.9204,-28.04478c21.15544,6.82736 4.0172,34.35786 -0.00607,46.82445c-4.02326,12.46659 -24.43463,17.0381 -45.59007,10.21074c-21.15544,-6.82736 -35.0438,-22.4682 -31.02053,-34.9348z" fill="#484848" stroke="none"/><path d="M5.38303,315.34501c21.39153,6.90355 33.32168,29.26704 26.64672,49.95026c-6.67497,20.68322 -29.42737,31.85382 -50.8189,24.95026c-21.39153,-6.90355 -33.32168,-29.26704 -26.64672,-49.95026c6.67497,-20.68322 29.42737,-31.85382 50.8189,-24.95026z" fill="none" stroke="#000000"/></g><g><path d="M159.32513,137.77947c47.85103,-7.13222 92.24586,24.68334 99.15861,71.06204c6.91277,46.37869 -26.27426,89.75785 -74.12529,96.89007c-47.85103,7.13222 -92.24586,-24.68334 -99.15861,-71.06204c-6.91277,-46.37869 26.27426,-89.75785 74.12529,-96.89007z" fill="#737373" stroke="#000000" stroke-linecap="butt"/><path d="M229.19441,263.08624c26.85439,-18.94958 6.25314,-63.8323 22.17278,-66.20513c7.89516,-1.17677 9.49859,3.29014 11.05497,7.98737c5.46761,16.50125 -17.50687,58.42582 -16.12317,67.70917c0.38707,2.59692 -11.9638,6.35078 -14.13068,9.03123c-7.78415,9.62922 -19.29377,18.02426 -47.16568,22.17857c-25.57689,3.81225 -47.01829,-2.67488 -58.53051,-8.34208c-4.52521,-2.22765 -8.70142,-0.2707 -9.20298,-3.63579c-0.98336,-6.59747 78.67534,-5.26085 111.92528,-28.72336z" fill="#484848" stroke="none" stroke-linecap="butt"/><path d="M159.93778,138.23319c47.85103,-7.13222 92.24586,24.68334 99.15861,71.06204c6.91277,46.37869 -26.27426,89.75785 -74.12529,96.89007c-47.85103,7.13222 -92.24586,-24.68334 -99.15861,-71.06204c-6.91277,-46.37869 26.27426,-89.75785 74.12529,-96.89007z" fill="none" stroke="#000000" stroke-linecap="butt"/><path d="M168.17384,205.07763c23.55742,-3.51125 44.36236,5.10057 46.4691,19.23503c2.10675,14.13445 -15.28248,28.43913 -38.8399,31.95037c-23.55742,3.51125 -44.36236,-5.10057 -46.4691,-19.23503c-2.10675,-14.13445 15.28248,-28.43913 38.8399,-31.95037z" fill="#484848" stroke="none" stroke-linecap="butt"/><path d="M134.85509,204.59355c8.53955,-1.27282 17.27686,9.86973 19.51527,24.88758c2.23842,15.01785 -2.86968,28.22406 -11.40924,29.49691c-8.53955,1.27282 -17.27686,-9.86973 -19.51527,-24.88758c-2.23842,-15.01785 2.86968,-28.22406 11.40924,-29.49691z" fill="#000000" stroke="#000000" stroke-linecap="butt"/><path d="M203.40498,212.90705c10.45361,-1.55811 19.87081,3.50469 21.03392,11.30809c1.1631,7.80341 -6.36835,15.39241 -16.82196,16.95052c-10.45361,1.55811 -19.87081,-3.50469 -21.03392,-11.30809c-1.1631,-7.80341 6.36835,-15.39241 16.82196,-16.95052z" fill="#ffffff" stroke="#000000" stroke-linecap="butt"/><path d="M89.55786,197.70685l23.85733,-0.83082l8.77217,25.94382" fill="none" stroke="#000000" stroke-linecap="round"/><path d="M139.99451,283.5558l-2.90528,-9.7408" fill="none" stroke="#000000" stroke-linecap="round"/><path d="M168.86819,267.62493l-0.74174,-4.97635" fill="none" stroke="#000000" stroke-linecap="round"/><path d="M217.81488,259.6027l0.74174,4.97635" fill="none" stroke="#000000" stroke-linecap="round"/></g></g></g></svg>