<svg version="1.1" xmlns="http://www.w3.org/2000/svg" xmlns:xlink="http://www.w3.org/1999/xlink" width="159.09731" height="323.74207" viewBox="0,0,159.09731,323.74207"><g transform="translate(-159.87749,-19.78996)"><g data-paper-data="{&quot;isPaintingLayer&quot;:true}" fill-rule="nonzero" stroke-linejoin="miter" stroke-miterlimit="10" stroke-dasharray="" stroke-dashoffset="0" style="mix-blend-mode: normal"><g stroke-linecap="butt"><path d="M256.37103,264.03934l-2.64817,-58.40539l9.26254,-0.41997l2.64818,58.40539z" data-paper-data="{&quot;index&quot;:null}" fill="#1b1b1b" stroke="#000000" stroke-width="2.5"/><path d="M252.48064,321.01238l3.91783,-58.33398l9.2512,0.62134l-3.91783,58.33398z" data-paper-data="{&quot;index&quot;:null}" fill="#1b1b1b" stroke="#000000" stroke-width="2.5"/><path d="M273.87427,285.56605c-0.6462,9.36588 -6.86446,16.56555 -13.88887,16.0809c-7.02441,-0.48465 -12.19497,-8.4701 -11.54878,-17.83597c0.18761,-2.71925 0.44377,-22.54635 3.49854,-28.25378c3.171,-5.92461 9.17972,2.17194 11.35846,-5.9909c2.9515,-11.05807 -0.40581,-28.00969 2.46213,-27.81182c7.02441,0.48465 8.76472,54.44567 8.11853,63.81155z" data-paper-data="{&quot;index&quot;:null}" fill="#444444" stroke="#000000" stroke-width="0"/><path d="M273.34863,289.83786c-0.43569,6.31487 -6.25324,11.05708 -12.99383,10.59202c-2.59341,-0.17893 -9.63274,-2.11568 -11.12264,-8.97176c-2.38255,-10.96368 1.62347,-29.21604 1.89153,-33.10129c0.13734,-1.9906 10.41659,39.76132 16.43012,35.94005c3.60088,-2.28816 1.29153,-18.09887 2.66487,-24.02239c3.60896,-15.56622 -6.53333,-48.09822 -3.18983,-47.86754c6.74061,0.46507 6.75549,61.11604 6.31979,67.43091z" data-paper-data="{&quot;index&quot;:null}" fill="#282828" stroke="none" stroke-width="0"/><path d="M273.89199,285.30912c-0.6462,9.36588 -6.86446,16.56554 -13.88887,16.08089c-7.02441,-0.48465 -12.19497,-8.47009 -11.54878,-17.83596c0.18761,-2.71925 0.44377,-22.54638 3.49854,-28.25379c3.171,-5.92461 9.17972,2.17193 11.35845,-5.9909c2.9515,-11.05807 -0.4058,-28.00967 2.46214,-27.8118c7.02441,0.48465 8.76472,54.44568 8.11852,63.81156z" data-paper-data="{&quot;index&quot;:null}" fill="none" stroke="#000000" stroke-width="3"/></g><g stroke-linecap="butt"><path d="M222.8332,261.42848l6.14077,-58.14201l9.22076,0.97386l-6.14077,58.14201z" data-paper-data="{&quot;index&quot;:null}" fill="#1b1b1b" stroke="#000000" stroke-width="2.5"/><path d="M223.254,319.57237l-0.41773,-58.4639l9.27181,-0.06625l0.41773,58.4639z" data-paper-data="{&quot;index&quot;:null}" fill="#1b1b1b" stroke="#000000" stroke-width="2.5"/><path d="M213.29311,282.84232c-0.08421,-9.38777 4.8842,-63.14775 11.92502,-63.2109c2.87463,-0.02578 -1.49172,16.69438 0.79232,27.90935c1.68604,8.27866 8.1688,0.55645 10.97934,6.66029c2.70751,5.8801 1.77596,25.68697 1.80041,28.41258c0.08421,9.38777 -5.55525,17.04926 -12.59608,17.11242c-7.04082,0.06316 -12.81681,-7.49594 -12.90102,-16.88372z" fill="#444444" stroke="#000000" stroke-width="0"/><path d="M213.56199,287.13794c-0.05677,-6.32962 3.58989,-66.87087 10.34625,-66.93147c3.35129,-0.03006 -8.72082,31.83624 -6.05044,47.59063c1.01617,5.99513 -2.23579,21.63919 1.22162,24.13885c5.77392,4.17451 18.53484,-36.88696 18.55273,-34.89171c0.03493,3.89433 2.9408,22.35382 -0.09397,33.15516c-1.89777,6.75455 -9.04044,8.26631 -11.63992,8.28963c-6.75635,0.0606 -12.27948,-5.02145 -12.33626,-11.35109z" fill="#282828" stroke="none" stroke-width="0"/><path d="M213.29081,282.5848c-0.08421,-9.38777 4.8842,-63.14776 11.92502,-63.21091c2.87464,-0.02578 -1.49171,16.69437 0.79233,27.90934c1.68602,8.27864 8.16879,0.55645 10.97933,6.66029c2.70751,5.88009 1.77596,25.68697 1.80041,28.41259c0.08421,9.38777 -5.55525,17.04925 -12.59608,17.11241c-7.04082,0.06316 -12.81681,-7.49594 -12.90102,-16.88371z" fill="none" stroke="#000000" stroke-width="3"/></g><g data-paper-data="{&quot;index&quot;:null}" stroke-linecap="butt"><g><path d="M296.86279,323.63141c0,3.46303 2.88695,8.34782 -1.24827,10.74253c-4.79665,2.77775 -17.17574,2.80122 -24.94421,2.80122c-7.25019,0 -16.51263,-0.48803 -21.25521,-2.94933c-4.71986,-2.44953 -4.93725,-6.86339 -4.93725,-10.59442c0,-7.48001 11.72677,-13.54375 26.19246,-13.54375c14.46568,0 26.19245,6.06374 26.19245,13.54375z" fill="#444444" stroke="#000000" stroke-width="0"/><path d="M297.39013,330.8036c0,4.00204 -11.88797,7.24633 -26.5525,7.24633c-14.66453,0 -26.55249,-3.24429 -26.55249,-7.24633c0,-4.00204 -2.15336,-17.9433 12.51118,-17.9433c2.49808,0 -3.31978,3.4237 -6.72565,7.66328c-3.12289,3.88732 -3.90257,8.57051 -1.08241,9.5949c6.29226,2.2856 22.27373,3.91037 33.10457,3.15514c10.09931,-0.70422 15.29731,-3.77053 15.29731,-2.47003z" fill="#282828" stroke="none" stroke-width="0"/><path d="M296.31005,323.9886c0,3.46303 2.88697,8.34782 -1.24824,10.74253c-4.79665,2.77775 -17.17574,2.80121 -24.94421,2.80121c-7.25019,0 -16.51261,-0.48802 -21.25519,-2.94933c-4.71986,-2.44953 -4.93725,-6.86338 -4.93725,-10.5944c0,-7.48 11.72676,-13.54375 26.19245,-13.54375c14.4657,0 26.19246,6.06374 26.19246,13.54375z" fill="none" stroke="#000000" stroke-width="3.5"/></g><g><path d="M308.62485,326.72209c0,3.46303 1.24243,8.34782 -0.53721,10.74253c-2.0643,2.77775 -7.39178,2.80122 -10.73503,2.80122c-3.12021,0 -7.1064,-0.48804 -9.14742,-2.94934c-2.03125,-2.44953 -2.12481,-6.86338 -2.12481,-10.59441c0,-7.48001 5.04675,-13.54375 11.27223,-13.54375c6.22548,0 11.27223,6.06374 11.27223,13.54375z" fill="#444444" stroke="#000000" stroke-width="0"/><path d="M308.85181,333.89429c0,4.00204 -5.11612,7.24633 -11.42717,7.24633c-6.31106,0 -11.42718,-3.24429 -11.42718,-7.24633c0,-4.00204 -0.92673,-17.94331 5.38433,-17.94331c1.07508,0 -1.42871,3.42372 -2.89446,7.6633c-1.34398,3.88732 -1.67951,8.5705 -0.46582,9.5949c2.70795,2.2856 9.58576,3.91036 14.24694,3.15513c4.34636,-0.70422 6.58337,-3.77053 6.58337,-2.47003z" fill="#282828" stroke="none" stroke-width="0"/><path d="M308.38698,327.07928c0,3.46303 1.24244,8.34783 -0.5372,10.74253c-2.0643,2.77775 -7.39179,2.8012 -10.73504,2.8012c-3.12021,0 -7.10639,-0.48802 -9.14741,-2.94933c-2.03125,-2.44953 -2.12481,-6.86338 -2.12481,-10.5944c0,-7.48 5.04675,-13.54374 11.27223,-13.54374c6.22548,0 11.27223,6.06374 11.27223,13.54374z" fill="none" stroke="#000000" stroke-width="3.5"/></g><g><path d="M275.78637,327.88109c0,3.46303 1.24243,8.34783 -0.53721,10.74253c-2.0643,2.77775 -7.39178,2.80122 -10.73503,2.80122c-3.12021,0 -7.10641,-0.48804 -9.14743,-2.94934c-2.03125,-2.44953 -2.1248,-6.86338 -2.1248,-10.59441c0,-7.48001 5.04675,-13.54374 11.27223,-13.54374c6.22547,0 11.27223,6.06374 11.27223,13.54374z" fill="#444444" stroke="#000000" stroke-width="0"/><path d="M276.01331,335.05329c0,4.00204 -5.11612,7.24633 -11.42718,7.24633c-6.31106,0 -11.42718,-3.24429 -11.42718,-7.24633c0,-4.00204 -0.92672,-17.9433 5.38433,-17.9433c1.07508,0 -1.42871,3.4237 -2.89446,7.66328c-1.34398,3.88732 -1.67952,8.57052 -0.46583,9.59491c2.70795,2.2856 9.58577,3.91036 14.24695,3.15513c4.34635,-0.70422 6.58338,-3.77053 6.58338,-2.47003z" fill="#282828" stroke="none" stroke-width="0"/><path d="M275.54849,328.23829c0,3.46303 1.24244,8.34782 -0.53719,10.74253c-2.0643,2.77775 -7.39179,2.80121 -10.73504,2.80121c-3.12021,0 -7.10639,-0.48802 -9.14742,-2.94933c-2.03125,-2.44953 -2.12481,-6.86338 -2.12481,-10.5944c0,-7.48 5.04675,-13.54375 11.27223,-13.54375c6.22548,0 11.27224,6.06374 11.27224,13.54375z" fill="none" stroke="#000000" stroke-width="3.5"/></g><g><path d="M294.71679,326.14259c0,3.46303 1.24243,8.34782 -0.53721,10.74253c-2.0643,2.77775 -7.39178,2.80121 -10.73504,2.80121c-3.12021,0 -7.1064,-0.48803 -9.14742,-2.94933c-2.03125,-2.44953 -2.12481,-6.86338 -2.12481,-10.5944c0,-7.48001 5.04675,-13.54375 11.27223,-13.54375c6.22547,0 11.27223,6.06374 11.27223,13.54375z" fill="#444444" stroke="#000000" stroke-width="0"/><path d="M294.94374,333.31478c0,4.00204 -5.11612,7.24633 -11.42717,7.24633c-6.31106,0 -11.42717,-3.24429 -11.42717,-7.24633c0,-4.00204 -0.92673,-17.94331 5.38432,-17.94331c1.07508,0 -1.42871,3.42371 -2.89446,7.66329c-1.34398,3.88732 -1.67953,8.57051 -0.46583,9.5949c2.70795,2.2856 9.58577,3.91036 14.24695,3.15513c4.34635,-0.70422 6.58338,-3.77052 6.58338,-2.47003z" fill="#282828" stroke="none" stroke-width="0"/><path d="M294.47891,326.49977c0,3.46303 1.24244,8.34783 -0.53719,10.74254c-2.0643,2.77775 -7.39178,2.8012 -10.73503,2.8012c-3.12021,0 -7.1064,-0.48801 -9.14742,-2.94932c-2.03125,-2.44953 -2.1248,-6.86339 -2.1248,-10.59442c0,-7.48 5.04675,-13.54374 11.27223,-13.54374c6.22548,0 11.27223,6.06373 11.27223,13.54374z" fill="none" stroke="#000000" stroke-width="3.5"/></g></g><g stroke-linecap="butt"><g><path d="M191.60907,321.63141c0,-7.48001 11.72678,-13.54375 26.19245,-13.54375c14.4657,0 26.19246,6.06374 26.19246,13.54375c0,3.73103 -0.21738,8.14488 -4.93725,10.59441c-4.74258,2.4613 -14.00502,2.94933 -21.25521,2.94933c-7.76847,0 -20.14755,-0.02346 -24.94421,-2.80122c-4.13521,-2.39471 -1.24827,-7.27949 -1.24827,-10.74253z" fill="#444444" stroke="#000000" stroke-width="0"/><path d="M191.0817,328.80359c0,-1.30049 5.19801,1.76582 15.29731,2.47003c10.83084,0.75523 26.81231,-0.86954 33.10457,-3.15514c2.82016,-1.0244 2.04049,-5.70758 -1.08241,-9.5949c-3.40587,-4.23958 -9.22373,-7.66329 -6.72565,-7.66329c14.66453,0 12.51118,13.94126 12.51118,17.9433c0,4.00204 -11.88795,7.24633 -26.55249,7.24633c-14.66453,0 -26.5525,-3.24429 -26.5525,-7.24633z" fill="#282828" stroke="none" stroke-width="0"/><path d="M192.16177,321.9886c0,-7.48001 11.72676,-13.54375 26.19246,-13.54375c14.4657,0 26.19245,6.06375 26.19245,13.54375c0,3.73103 -0.21739,8.14488 -4.93726,10.59441c-4.74258,2.46131 -14.005,2.94933 -21.25518,2.94933c-7.76847,0 -20.14755,-0.02346 -24.94421,-2.80121c-4.13521,-2.39471 -1.24825,-7.27949 -1.24825,-10.74253z" fill="none" stroke="#000000" stroke-width="3.5"/></g><g><path d="M179.847,324.72208c0,-7.48001 5.04676,-13.54374 11.27223,-13.54374c6.22548,0 11.27223,6.06373 11.27223,13.54374c0,3.73103 -0.09355,8.14488 -2.12481,10.59441c-2.04102,2.4613 -6.02722,2.94934 -9.14742,2.94934c-3.34325,0 -8.67074,-0.02346 -10.73504,-2.80122c-1.77964,-2.39471 -0.53721,-7.2795 -0.53721,-10.74253z" fill="#444444" stroke="#000000" stroke-width="0"/><path d="M179.62003,331.89427c0,-1.30049 2.23702,1.76582 6.58337,2.47003c4.66118,0.75523 11.53899,-0.86953 14.24694,-3.15513c1.21369,-1.0244 0.87816,-5.70758 -0.46582,-9.5949c-1.46575,-4.23958 -3.96955,-7.66329 -2.89447,-7.66329c6.31106,0 5.38433,13.94126 5.38433,17.94331c0,4.00204 -5.11612,7.24633 -11.42718,7.24633c-6.31106,0 -11.42718,-3.24429 -11.42718,-7.24633z" fill="#282828" stroke="none" stroke-width="0"/><path d="M180.08485,325.07928c0,-7.48001 5.04675,-13.54374 11.27223,-13.54374c6.22548,0 11.27223,6.06374 11.27223,13.54374c0,3.73103 -0.09355,8.14488 -2.12481,10.59441c-2.04102,2.46131 -6.0272,2.94933 -9.14741,2.94933c-3.34325,0 -8.67074,-0.02345 -10.73504,-2.8012c-1.77964,-2.39471 -0.5372,-7.2795 -0.5372,-10.74253z" fill="none" stroke="#000000" stroke-width="3.5"/></g><g><path d="M212.68548,325.88109c0,-7.48001 5.04676,-13.54374 11.27223,-13.54374c6.22548,0 11.27223,6.06373 11.27223,13.54374c0,3.73103 -0.09355,8.14488 -2.1248,10.59441c-2.04102,2.4613 -6.02722,2.94934 -9.14743,2.94934c-3.34325,0 -8.67073,-0.02346 -10.73503,-2.80122c-1.77964,-2.39471 -0.53721,-7.2795 -0.53721,-10.74253z" fill="#444444" stroke="#000000" stroke-width="0"/><path d="M212.45852,333.05328c0,-1.30049 2.23703,1.76582 6.58338,2.47003c4.66118,0.75523 11.53899,-0.86953 14.24694,-3.15513c1.21369,-1.0244 0.87815,-5.70758 -0.46583,-9.59491c-1.46575,-4.23958 -3.96954,-7.66329 -2.89446,-7.66329c6.31106,0 5.38433,13.94126 5.38433,17.94331c0,4.00204 -5.11612,7.24633 -11.42718,7.24633c-6.31106,0 -11.42718,-3.24429 -11.42718,-7.24633z" fill="#282828" stroke="none" stroke-width="0"/><path d="M212.92334,326.23828c0,-7.48001 5.04676,-13.54374 11.27224,-13.54374c6.22548,0 11.27223,6.06374 11.27223,13.54374c0,3.73103 -0.09355,8.14488 -2.12481,10.59441c-2.04102,2.46131 -6.02721,2.94933 -9.14742,2.94933c-3.34325,0 -8.67074,-0.02345 -10.73504,-2.8012c-1.77964,-2.39471 -0.5372,-7.2795 -0.5372,-10.74253z" fill="none" stroke="#000000" stroke-width="3.5"/></g><g><path d="M193.75506,324.14259c0,-7.48001 5.04676,-13.54375 11.27223,-13.54375c6.22548,0 11.27223,6.06374 11.27223,13.54375c0,3.73103 -0.09355,8.14488 -2.12481,10.59441c-2.04102,2.4613 -6.02722,2.94934 -9.14742,2.94934c-3.34325,0 -8.67073,-0.02346 -10.73503,-2.80122c-1.77964,-2.39471 -0.53721,-7.27949 -0.53721,-10.74253z" fill="#444444" stroke="#000000" stroke-width="0"/><path d="M193.5281,331.31477c0,-1.30049 2.23702,1.76581 6.58337,2.47003c4.66118,0.75523 11.539,-0.86953 14.24695,-3.15513c1.21369,-1.0244 0.87814,-5.70758 -0.46583,-9.5949c-1.46575,-4.23958 -3.96954,-7.66329 -2.89446,-7.66329c6.31106,0 5.38433,13.94126 5.38433,17.94331c0,4.00204 -5.11611,7.24633 -11.42717,7.24633c-6.31106,0 -11.42718,-3.24429 -11.42718,-7.24633z" fill="#282828" stroke="none" stroke-width="0"/><path d="M193.99292,324.49977c0,-7.48001 5.04675,-13.54374 11.27223,-13.54374c6.22548,0 11.27223,6.06374 11.27223,13.54374c0,3.73103 -0.09355,8.14488 -2.1248,10.59441c-2.04102,2.46131 -6.02722,2.94932 -9.14742,2.94932c-3.34325,0 -8.67073,-0.02345 -10.73503,-2.8012c-1.77964,-2.39471 -0.5372,-7.2795 -0.5372,-10.74253z" fill="none" stroke="#000000" stroke-width="3.5"/></g></g><path d="M220.24029,210.79203v-10h51.66667v10z" fill="#1b1b1b" stroke="#000000" stroke-width="2.5" stroke-linecap="butt"/><g><path d="M299.28744,205.04303l-18.77985,-44.57798l6.9861,-2.94311l18.77985,44.57798z" fill="#1b1b1b" stroke="#000000" stroke-width="2.5" stroke-linecap="butt"/><g data-paper-data="{&quot;index&quot;:null}"><path d="M279.73024,117.36285c6.74377,0.4385 22.46242,49.92719 22.05895,56.1322c-0.04475,0.68816 -1.28074,-0.8739 -2.66637,-1.19402c-1.86173,-0.4301 -4.19882,0.05767 -6.23073,-1.33259c-3.52512,-2.41193 -6.52164,-6.87795 -7.98869,-5.07599c-2.73299,3.3569 5.43793,24.89434 2.19025,24.68317c-6.74378,-0.4385 -20.70811,-56.56659 -20.30464,-62.7716c0.20024,-3.07958 -1.84206,-6.73256 0.47087,-8.62023c2.34736,-1.91578 9.07354,-2.04181 12.47035,-1.82094z" fill="#444444" stroke="#000000" stroke-width="0" stroke-linecap="butt"/><path d="M283.57827,163.9985c3.73014,0.24254 8.49085,1.24919 12.49183,1.93721c3.5409,0.60891 6.59023,0.58293 6.29057,5.19149c-0.15308,2.35424 -3.93005,2.74928 -8.07756,0.56639c-3.87718,-2.04062 -8.10292,-6.65503 -9.30621,-5.10044c-2.8764,3.71617 6.10566,22.60679 2.33718,22.36175c-7.03135,-0.4572 -20.94262,-50.83125 -20.30436,-60.64718c0.42111,-6.47635 6.85494,22.20066 14.14158,39.70152c3.75744,9.02448 -0.27419,-2.19675 2.11803,-2.0412z" fill="#282828" stroke="none" stroke-width="0" stroke-linecap="butt"/><path d="M279.76149,116.88248c6.74377,0.4385 22.46242,49.92719 22.05895,56.1322c-0.17427,2.68019 -4.14622,-3.07128 -6.34592,0.15648c-1.17515,1.72438 -9.64621,-10.43811 -10.63594,-7.31335c-1.44672,4.56753 4.56102,24.38536 2.28631,24.23745c-6.74378,-0.4385 -20.70811,-56.56659 -20.30464,-62.7716c0.21408,-3.29232 -2.39737,-7.6332 0.18851,-9.52867c2.28771,-1.67691 9.58711,-1.11834 12.7527,-0.91251z" fill="none" stroke="#000000" stroke-width="3" stroke-linecap="butt"/><path d="M274.63958,156.17533l19.57058,-12.37324" fill="none" stroke="#000000" stroke-width="3" stroke-linecap="round"/></g></g><g><path d="M212.04744,118.31659c3.38392,-0.36896 10.10919,-0.53671 12.53796,1.27476c2.39315,1.78489 0.51228,5.52356 0.84678,8.59146c0.67398,6.18147 -10.8265,62.86572 -17.54471,63.59823c-6.71821,0.73251 -14.75327,-10.24122 -15.42726,-16.42269c-0.67398,-6.18147 12.86902,-56.30924 19.58722,-57.04176z" fill="#444444" stroke="#000000" stroke-width="0" stroke-linecap="butt"/><path d="M202.23242,181.56323c2.38314,-0.25984 7.24664,-3.40659 10.60649,-12.5865c6.51561,-17.8023 11.69129,-46.73287 12.39476,-40.28107c1.06621,9.77871 -10.6325,60.71208 -17.63718,61.47583c-7.00468,0.76374 -14.74438,-7.37507 -15.81059,-17.15378c-1.06621,-9.77871 3.44184,9.30927 10.44652,8.54553z" fill="#282828" stroke="none" stroke-width="0" stroke-linecap="butt"/><path d="M211.99525,117.83806c3.15359,-0.34384 10.42165,-1.22057 12.78038,0.35486c2.66616,1.78076 0.24673,6.23152 0.60435,9.51135c0.67398,6.18147 -10.8265,62.86572 -17.54471,63.59823c-6.71821,0.73251 -14.75327,-10.24122 -15.42726,-16.42269c-0.67398,-6.18147 12.86902,-56.30924 19.58722,-57.04176z" fill="none" stroke="#000000" stroke-width="3" stroke-linecap="butt"/><path d="M218.82776,156.86982l-20.09212,-11.50701" fill="none" stroke="#000000" stroke-width="3" stroke-linecap="round"/></g><g stroke-width="2.5" stroke-linecap="butt"><path d="M248.14044,151.58607c11.16257,0.6772 19.58556,11.54595 18.81326,24.27603c-0.24151,3.98083 6.77665,4.37727 6.83418,7.51734c0.02033,1.10958 -6.45205,2.33091 -8.09994,4.0304c-2.01031,2.07327 0.64499,4.62131 -0.48722,5.57781c-1.75265,1.48065 -6.84361,-12.53368 -10.62695,-9.44776c-4.2302,3.45042 -6.62565,14.30388 -9.23007,14.14588c-11.16257,-0.6772 -19.58556,-11.54595 -18.81326,-24.27603c0.7723,-12.73009 10.44742,-22.50087 21.61,-21.82367z" fill="#212121" stroke="#000000"/><path d="M236.35438,202.14718l3.76724,-62.097l14.27715,0.86615l-3.76724,62.097z" fill="#1b1b1b" stroke="#000000"/><path d="M247.33671,121.58435c5.93015,0.35976 15.41569,-4.73611 20.13219,8.24994c2.00168,5.51126 8.6841,37.41521 4.10617,52.10191c-2.04483,6.56011 -12.7336,-0.28493 -16.07889,2.70844c-5.03464,4.50502 -8.95745,-23.543 -14.38313,-27.19707c-4.61806,-3.11016 -11.18131,18.25042 -11.25251,19.424c-0.62806,10.35262 29.22132,27.96738 16.5184,27.19673c-12.70292,-0.77065 -27.19519,-5.62226 -26.56713,-15.97486c0.40807,-6.7263 0.34962,-44.41409 8.08129,-61.86316c4.16835,-9.40725 14.994,-4.91588 19.44359,-4.64593z" fill="#444444" stroke="#000000"/><path d="M246.72845,203.56902c-0.37848,0.04692 -25.19882,5.11884 -27.29922,-16.16157c-0.96281,-9.75479 2.9288,-43.30323 7.5499,-57.29612c4.86292,-14.72514 10.47479,-9.67695 9.65547,-10.24754c-1.74981,-1.21859 -13.22608,42.92312 -14.01823,65.03356c-0.40614,11.33603 19.7946,16.32173 19.00611,15.43249c-4.69804,-5.29833 -16.14119,-18.99601 -16.72419,-19.55823c-2.42603,-2.33953 8.49307,-20.06211 7.96823,-22.03621c-0.76075,-2.86141 10.44172,-4.66231 11.23533,-4.4981c3.41496,0.70658 7.74036,23.00222 14.08354,28.23618c3.83865,3.1674 11.1081,-8.21207 11.67655,-10.7132c3.2587,-14.338 -8.35934,-47.8168 -4.03792,-47.55463c7.22005,0.43802 8.07263,49.0675 7.74603,54.45087c-0.32659,5.38336 -4.25496,7.45343 -11.47501,7.01541c-1.35568,-0.08225 -6.25782,-0.58219 -8.84164,-4.88573c-4.88739,-8.1403 -8.45006,-22.59784 -13.00076,-22.34514c-3.69262,0.20506 -9.3758,10.65907 -10.52254,18.40185c-0.67195,4.53706 2.44535,8.73203 2.50051,7.82292c0.01396,-0.23008 22.156,17.95391 14.49783,18.90321z" fill="#282828" stroke="none"/><path d="M247.80879,121.62728c5.93015,0.35976 15.41569,-4.73611 20.13219,8.24994c5.38668,14.83127 5.5942,48.26179 5.25933,53.78146c-0.06488,1.06941 -8.21507,0.99316 -14.01087,0.61098c-2.85344,-0.18817 -3.84102,1.19769 -5.54409,-0.61242c-6.76489,-7.19003 -5.46253,-24.66914 -12.62531,-26.02166c-1.34937,-0.2548 -7.13014,10.62967 -8.88158,15.093c-0.36315,0.92545 -0.49231,2.41024 -0.70629,2.39543c-1.83779,-0.12724 -0.73224,1.32616 -1.3738,1.87881c-5.01846,4.32293 23.52664,27.51695 16.79265,27.10842c-12.70292,-0.77065 -27.19519,-5.62226 -26.56713,-15.97486c0.40806,-6.72629 0.34962,-44.41409 8.08129,-61.86316c4.16835,-9.40725 14.994,-4.91587 19.44359,-4.64592z" fill="none" stroke="#000000"/><path d="M248.09774,126.12278c9.81673,0.59555 16.78738,17.35381 15.56938,37.43061c-0.57042,9.40249 6.93784,24.28254 3.57395,20.83854c-1.51369,-1.54974 -8.993,2.61843 -12.71065,-2.33441c-5.66163,-7.5427 -8.15603,-24.73263 -11.30657,-24.92377c-7.6497,-0.46408 -12.94301,24.03407 -14.48405,21.19634c-0.43655,-0.80388 -0.89108,-12.50145 -0.62221,-16.93337c1.218,-20.0768 10.16341,-35.86947 19.98015,-35.27392z" fill="#b7b7b7" stroke="#000000"/><path d="M232.20535,143.34411c0.14002,-2.30808 2.77218,-10.67394 7.91115,-14.73953c2.19374,-1.73554 6.06765,-1.9073 8.39822,-1.76591c7.79005,0.4726 12.1007,14.92353 11.9009,18.21689c-0.1998,3.29335 -3.41608,-14.019 -11.20613,-14.4916c-1.1558,-0.07012 -12.33483,5.96984 -14.76427,11.72049c-0.54749,1.29594 -7.10913,23.51841 -5.05662,25.15482c1.2641,1.00784 2.34282,-7.12386 6.06586,-11.09477c3.58327,-3.82183 9.80242,-3.50673 11.61055,-1.71104c3.93618,3.9091 7.42277,18.23855 10.77632,22.66161c4.55289,6.00489 8.36785,1.87268 8.14347,4.21336c-0.30655,3.19804 -5.72177,5.48513 -12.98843,-2.96091c-3.30652,-3.84318 -7.42559,-20.88672 -10.86578,-21.75815c-6.36725,-1.61287 -13.83549,20.57195 -14.16654,20.40415c-1.54344,-0.78239 -1.08867,-12.88154 0.66882,-22.5436c0.99537,-5.47221 3.5369,-10.71964 3.57246,-11.30578z" fill="#989898" stroke="none"/><path d="M247.40969,126.08104c9.81673,0.59555 16.78738,17.35381 15.56938,37.43061c-0.57042,9.40249 6.93784,24.28254 3.57395,20.83854c-1.51369,-1.54974 -8.993,2.61843 -12.71065,-2.33441c-5.66163,-7.5427 -8.15603,-24.73263 -11.30657,-24.92377c-7.6497,-0.46408 -12.94301,24.03407 -14.48405,21.19634c-0.43655,-0.80388 -0.89108,-12.50145 -0.62221,-16.93337c1.218,-20.0768 10.16341,-35.86947 19.98015,-35.27392z" fill="none" stroke="#000000"/></g><g stroke-width="2.5" stroke-linecap="butt"><path d="M272.12012,128.661c0,1.42763 1.18882,16.71602 -4.99757,16.71602c-6.1864,0 -17.40534,-15.28839 -17.40534,-16.71602c0,-1.42763 10.87428,-15.68204 17.06068,-15.68204c6.1864,0 5.34223,14.25441 5.34223,15.68204z" data-paper-data="{&quot;index&quot;:null}" fill="#de3636" stroke="#000000"/><path d="M272.80944,128.31635c0,1.42763 1.18882,16.71602 -4.99757,16.71602c-6.1864,0 -17.40534,-15.28839 -17.40534,-16.71602c0,-1.42763 10.87428,-15.68204 17.06068,-15.68204c6.1864,0 5.34223,14.25441 5.34223,15.68204z" data-paper-data="{&quot;index&quot;:null}" fill="#de3636" stroke="#000000"/><path d="M272.63711,130.55664c0,3.33113 0.69492,14.3034 -4.82524,14.3034c-5.52017,0 -15.16505,-10.97226 -15.16505,-14.3034c0,-1.34768 12.57959,11.45699 14.7915,8.30306c3.25538,-4.64179 -3.08564,-25.36374 0.20122,-25.36374c5.52017,0 4.99757,13.72955 4.99757,17.06068z" data-paper-data="{&quot;index&quot;:null}" fill="#b72c2c" stroke="none"/><path d="M272.29245,128.48868c0,1.42763 1.18882,16.71602 -4.99757,16.71602c-6.1864,0 -17.40534,-15.28839 -17.40534,-16.71602c0,-1.42763 10.87428,-15.68204 17.06068,-15.68204c6.1864,0 5.34223,14.25441 5.34223,15.68204z" data-paper-data="{&quot;index&quot;:null}" fill="none" stroke="#000000"/><path d="M227.92293,113.66829c6.1864,0 17.06068,14.25441 17.06068,15.68204c0,1.42763 -11.21894,16.71602 -17.40534,16.71602c-6.1864,0 -4.99757,-15.28839 -4.99757,-16.71602c0,-1.42763 -0.84416,-15.68204 5.34223,-15.68204z" data-paper-data="{&quot;index&quot;:null}" fill="#de3636" stroke="#000000"/><path d="M227.7506,114.52994c3.28686,0 -3.05415,20.72195 0.20122,25.36374c2.21191,3.15394 14.7915,-9.65074 14.7915,-8.30306c0,3.33113 -9.64488,14.3034 -15.16505,14.3034c-5.52017,0 -4.82524,-10.97226 -4.82524,-14.3034c0,-3.33113 -0.52259,-17.06068 4.99757,-17.06068z" fill="#b72c2c" stroke="none"/><path d="M228.43992,113.84062c6.1864,0 17.06068,14.25441 17.06068,15.68204c0,1.42763 -11.21894,16.71602 -17.40534,16.71602c-6.1864,0 -4.99757,-15.28839 -4.99757,-16.71602c0,-1.42763 -0.84416,-15.68204 5.34223,-15.68204z" fill="none" stroke="#000000"/><path d="M245.67292,121.76781c3.80701,0 6.8932,3.14334 6.8932,7.02085c0,3.87751 -3.0862,7.02085 -6.8932,7.02085c-3.80701,0 -6.8932,-3.14334 -6.8932,-7.02085c0,-3.87751 3.08619,-7.02085 6.8932,-7.02085z" fill="#de3636" stroke="#000000"/><path d="M241.19234,124.18042c1.78326,0 -0.09511,7.29764 2.30665,8.96123c2.59746,1.79915 9.4118,-1.99758 9.4118,-1.20637c0,1.43309 -2.66494,3.64481 -6.07264,3.7786c-0.21332,0.00838 -0.0849,0.35732 -0.30357,0.35732c-3.71184,0 -7.06553,-2.61312 -7.06553,-4.13592c0,-1.52281 -1.98854,-7.75485 1.7233,-7.75485z" fill="#b72c2c" stroke="none"/><path d="M245.84526,121.94013c3.80701,0 6.8932,3.14335 6.8932,7.02086c0,3.87752 -3.08619,7.02086 -6.8932,7.02086c-3.80701,0 -6.8932,-3.14335 -6.8932,-7.02086c0,-3.87752 3.08619,-7.02086 6.8932,-7.02086z" fill="none" stroke="#000000"/></g><g stroke-width="2.5"><path d="M234.00397,118.04583l-1.389,-24.61297l31.62393,-1.78465l1.389,24.61297z" fill="#1b1b1b" stroke="#000000" stroke-linecap="butt"/><path d="M231.25392,119.69748l-0.39566,-7.01096l35.6515,-2.01194l0.39566,7.01096z" fill="#7c7c7c" stroke="none" stroke-linecap="butt"/><path d="M240.25477,110.80943c3.63864,-0.20535 -10.50118,4.57148 -3.92619,5.882c3.92016,0.78136 30.39849,-2.1666 30.45059,-1.24343c0.13948,2.47152 -20.21122,3.98384 -26.0193,4.31161c-5.80808,0.32777 -10.62952,-1.41009 -10.769,-3.88161c-0.13948,-2.47152 4.45584,-4.7408 10.2639,-5.06857z" fill="#585858" stroke="none" stroke-linecap="butt"/><path d="M228.73847,113.48457l-0.32831,-5.81762l39.23158,-2.21398l0.32831,5.81762z" fill="#e1e1e1" stroke="#000000" stroke-linecap="butt"/><path d="M228.4042,111.62785c-0.01108,-0.19629 -0.15843,-2.75063 1.39799,-3.88126c1.2595,-0.91491 4.17572,-0.46321 4.92764,-0.49116c1.82712,-0.06795 -1.90106,2.26177 0.17887,3.29028c1.80424,0.89219 9.29564,0.50869 12.30774,0.39536c5.14406,-0.19355 10.59107,-1.57113 14.49348,-1.79136c11.24542,-0.63462 7.32458,-1.46771 7.41757,0.17999c0.09299,1.64768 -8.94785,3.49784 -20.19327,4.13246c-11.24542,0.63462 -20.43701,-0.18663 -20.53,-1.8343z" fill="#bfbfbf" stroke="none" stroke-linecap="butt"/><g data-paper-data="{&quot;index&quot;:null}" stroke-linecap="butt"><path d="M302.39724,52.05498c-4.35986,1.58652 -10.13402,7.7954 -13.42633,7.08521c-3.82813,-0.82578 -4.87425,-8.9434 -5.39258,-12.35194c-0.51332,-3.37559 -0.05564,-10.43251 3.07449,-13.78822c2.74885,-2.94695 7.8442,-2.2998 12.25304,-3.90416c9.42929,-3.43126 17.85479,-1.07327 18.81893,5.26672c0.96412,6.33997 -5.89826,14.26112 -15.32754,17.69239z" fill="#444444" stroke="#000000"/><path d="M296.4974,54.94293c-0.29879,0.40884 -1.02338,0.46785 -1.3306,0.8402c-2.64048,3.20033 -5.76351,4.75612 -6.94132,3.82371c-1.31485,-1.04089 -4.68774,-22.01964 -1.82085,-25.94247c1.50957,-2.0656 -1.41143,11.10067 6.24855,13.15345c6.88735,1.84572 24.46759,-7.52441 25.0901,-7.0316c0.90093,0.71322 -6.31357,6.55359 -13.17497,10.7354c-3.15231,1.92123 -7.16839,3.18642 -8.07089,4.42132z" fill="#282828" stroke="none"/><path d="M311.7112,44.41727c-4.03488,5.52103 -19.51896,12.50953 -20.71779,11.56048c-1.19883,-0.94905 -6.0301,-11.56193 -1.99521,-17.08295c4.03488,-5.52103 26.69678,-5.9967 27.89562,-5.04767c1.19883,0.94905 -1.14773,5.0491 -5.18262,10.57013z" fill="#b7b7b7" stroke="#000000"/><path d="M314.46291,35.80509c-0.74574,1.0204 4.24959,0.98092 2.08572,4.12321c-1.833,2.66181 -10.60453,8.44828 -13.64686,10.35619c-4.42606,2.77567 -8.64047,4.88239 -11.31247,5.15593c-1.34988,0.13819 -2.12402,-0.66591 -2.70285,-1.12413c-1.25062,-0.99005 -1.33881,-3.08234 -1.80607,-4.55099c-1.33852,-4.20712 -0.0937,-9.59661 4.17145,-11.39939c7.75862,-3.2794 20.91358,-4.93332 23.39739,-2.96702c0.30898,0.24461 -8.31175,0.69273 -15.41045,2.44455c-5.13753,1.26785 -9.20543,3.56604 -9.81947,5.29903c-1.17498,3.31613 2.516,10.33514 3.67712,10.2243c3.09639,-0.29552 10.37345,-3.23273 14.8811,-7.54165c5.29398,-5.06058 7.56035,-11.49096 6.48538,-10.02005z" fill="#989898" stroke="none"/><path d="M311.32038,44.94492c-4.03488,5.52103 -19.51896,12.50953 -20.71779,11.56048c-1.19883,-0.94905 -6.0301,-11.56193 -1.99521,-17.08295c4.03488,-5.52103 26.69678,-5.9967 27.89562,-5.04767c1.19883,0.94905 -1.14773,5.0491 -5.18262,10.57013z" fill="none" stroke="#000000"/><path d="M302.12272,52.12101c-4.35986,1.58652 -6.8466,5.4146 -10.13894,4.7044c-3.82813,-0.82578 -4.45169,-5.28674 -4.97003,-8.69525c-0.51332,-3.37559 -3.76559,-11.70838 -0.63544,-15.0641c2.74885,-2.94695 7.8442,-2.2998 12.25304,-3.90416c9.42929,-3.43126 17.85479,-1.07327 18.81893,5.26672c0.96412,6.33997 -5.89826,14.26112 -15.32754,17.69239z" fill="none" stroke="#000000"/></g><g data-paper-data="{&quot;index&quot;:null}" stroke-linecap="butt"><path d="M287.89412,58.31489c-3.93192,3.06465 -7.26917,10.99097 -11.10711,11.50855c-4.46254,0.60182 -9.27498,-6.6642 -11.38012,-9.68667c-2.0848,-2.99325 -4.80901,-9.80243 -2.9953,-14.08976c1.59276,-3.76507 7.32673,-4.99167 11.30283,-8.09077c8.50374,-6.62808 15.08933,-4.076 19.00496,1.54588c3.91562,5.62188 3.67848,12.18467 -4.82525,18.81276z" fill="#444444" stroke="#000000"/><path d="M282.91078,63.15972c-0.13284,0.49259 -0.87948,0.80923 -1.03791,1.2705c-1.36173,3.9646 -3.98731,6.55467 -5.66914,6.10115c-1.8775,-0.50628 -15.02912,-19.04302 -13.75463,-23.76945c0.18419,-0.68307 5.64338,-5.58809 6.2431,-4.49466c0.50408,0.91905 -1.30282,2.9418 -1.10136,5.05146c0.43211,4.52523 3.0082,9.98546 7.51705,9.57611c8.19264,-0.74378 17.95475,-12.64482 18.84364,-12.40512c1.28647,0.34691 0.98292,5.18966 -4.43786,11.5992c-2.49045,2.9447 -6.20167,5.58295 -6.6029,7.07083z" fill="#282828" stroke="none"/><path d="M294.35967,47.76785c-1.79373,6.652 -15.14152,18.81093 -16.85335,18.34933c-1.71183,-0.4616 -11.701,-8.71315 -9.90728,-15.36516c1.79373,-6.652 19.88712,-12.54449 21.59894,-12.08288c1.71183,0.4616 6.95542,2.44671 5.16168,9.09871z" fill="#b7b7b7" stroke="#000000"/><path d="M289.26399,39.59895c-0.33152,1.22942 5.84213,2.57077 4.96274,6.309c-0.74492,3.1666 -4.22095,7.66566 -6.60006,10.55819c-5.20978,6.33404 -12.11912,10.93078 -14.58166,10.26676c-4.91464,-1.32523 -7.90381,-6.08919 -6.67652,-10.64056c0.3416,-1.26683 0.77691,-4.38117 3.39555,-6.65026c6.78942,-5.88315 17.11008,-10.71422 20.65678,-9.75784c0.4412,0.11898 -5.58807,2.18102 -12.36847,6.38814c-4.90718,3.04481 -8.2034,6.67434 -8.06991,8.52725c0.25542,3.54558 7.39114,8.82425 8.58021,8.30156c3.17089,-1.39391 9.60202,-6.78137 12.45228,-12.46248c3.34746,-6.67215 -1.27303,-12.61196 -1.75092,-10.83973z" fill="#989898" stroke="none"/><path d="M294.1827,48.40546c-1.79373,6.652 -15.14152,18.81093 -16.85335,18.34933c-1.71183,-0.4616 -11.701,-8.71315 -9.90728,-15.36516c1.79373,-6.652 21.40086,-12.58965 23.11271,-12.12804c1.71183,0.4616 5.44166,2.49187 3.64793,9.14387z" fill="none" stroke="#000000"/><path d="M287.63114,58.47596c-3.93192,3.06465 -7.26917,10.99097 -11.10711,11.50855c-4.46254,0.60182 -9.27498,-6.6642 -11.38012,-9.68667c-2.0848,-2.99325 -4.80901,-9.80243 -2.9953,-14.08976c1.59276,-3.76507 7.32673,-4.99167 11.30283,-8.09077c8.50374,-6.62808 14.97646,-2.0664 18.89207,3.55549c3.91562,5.62188 3.79136,10.17506 -4.71238,16.80314z" fill="none" stroke="#000000"/></g><g stroke-linecap="butt"><path d="M185.6931,25.95027c2.24665,-6.00645 10.97692,-6.58234 19.49963,-1.28627c3.98498,2.4763 9.10453,2.89025 11.18897,6.33927c2.37357,3.92743 1.37102,10.92775 0.17483,14.12577c-1.20784,3.22922 -3.9001,10.9585 -7.81624,10.97982c-3.36801,0.01834 -7.74271,-7.24479 -11.6834,-9.69356c-8.5227,-5.29608 -13.61045,-14.45859 -11.36382,-20.46504z" fill="#444444" stroke="#000000"/><path d="M202.23718,50.45424c-0.62939,-1.39404 -4.29971,-3.45767 -6.98983,-5.9858c-5.85539,-5.50283 -11.71542,-12.70134 -10.68714,-13.21416c0.7105,-0.35434 15.98947,12.42915 23.10914,12.03845c7.91835,-0.43452 7.76589,-13.92005 8.81868,-11.58828c1.99938,4.42834 -5.61344,24.2659 -7.11414,25.01432c-1.34431,0.67042 -4.08088,-1.49405 -6.0072,-5.16877c-0.22413,-0.42754 -0.92113,-0.63423 -1.12949,-1.09575z" fill="#282828" stroke="none"/><path d="M189.51166,37.02628c-2.81395,-6.23247 -4.2677,-10.7273 -2.8994,-11.40967c1.36829,-0.68238 23.44857,4.44104 26.26253,10.67351c2.81395,6.23247 -4.09552,15.62575 -5.46382,16.30812c-1.36829,0.68238 -15.08536,-9.33948 -17.89931,-15.57196z" fill="#b7b7b7" stroke="#000000"/><path d="M188.58882,28.03239c-0.7497,-1.66045 0.14661,5.09847 4.2874,11.13911c3.52575,5.14341 10.04375,9.51362 13.01329,10.43927c1.11355,0.34711 6.1684,-5.76339 5.7001,-9.25023c-0.24473,-1.82219 -3.75341,-4.90743 -8.52066,-7.20417c-6.58706,-3.17348 -14.93164,-5.38392 -14.57899,-5.5598c2.83494,-1.41379 15.36908,2.90867 22.28801,7.71275c3.80354,2.64095 3.91404,8.17122 1.73938,12.0134c-0.75915,1.34124 -1.27549,3.37075 -2.70293,4.08261c-0.66065,0.32946 -1.58354,0.95728 -2.87619,0.54458c-2.55873,-0.8169 -6.25013,-3.74485 -10.01119,-7.371c-2.58521,-2.49249 -9.98013,-9.9583 -11.22689,-12.94003c-1.47182,-3.51997 3.40873,-2.4546 2.88867,-3.60649z" fill="#989898" stroke="none"/><path d="M189.78567,37.62301c-2.81395,-6.23247 -4.2677,-10.7273 -2.8994,-11.40967c1.36829,-0.68238 23.44857,4.44104 26.26253,10.67351c2.81395,6.23247 -4.09552,15.62575 -5.46382,16.30812c-1.36829,0.68238 -15.08536,-9.33948 -17.89931,-15.57196z" fill="none" stroke="#000000"/><path d="M185.94817,26.07131c2.24665,-6.00645 10.97692,-6.58234 19.49963,-1.28627c3.98498,2.4763 9.10453,2.89025 11.18897,6.33927c2.37357,3.92743 -2.52195,11.41385 -3.71814,14.61186c-1.20784,3.22922 -2.735,7.46677 -6.65113,7.48808c-3.36801,0.01834 -5.01484,-4.23913 -8.95552,-6.6879c-8.5227,-5.29608 -13.61045,-14.45859 -11.36382,-20.46504z" fill="none" stroke="#000000"/></g><g stroke-linecap="butt"><path d="M209.10824,36.11964c4.98752,-4.69705 11.95706,-5.84104 18.91691,2.39338c3.25421,3.85017 8.61365,6.22913 9.39854,10.24118c0.89377,4.56857 -3.17184,10.67244 -5.82734,13.17328c-2.68142,2.52525 -8.88456,8.647 -13.12811,7.14079c-3.64961,-1.29537 -5.28645,-9.73838 -8.5045,-13.54577c-6.95984,-8.23441 -5.84301,-14.70582 -0.85548,-19.40286z" fill="#444444" stroke="#000000"/><path d="M208.83629,53.01117c-3.98764,-7.38686 -3.28933,-12.18862 -1.95903,-12.26369c0.91918,-0.05187 8.02675,13.60155 15.89158,16.01336c4.32844,1.32734 7.97181,-3.48681 9.32482,-7.82661c0.63077,-2.0232 -0.7218,-4.37414 -0.03959,-5.16996c0.81166,-0.9468 5.14611,4.97555 5.18598,5.68189c0.27581,4.88746 -16.40503,20.32528 -18.34649,20.43485c-1.73913,0.09814 -3.77628,-2.97627 -4.29406,-7.13611c-0.06025,-0.48399 -0.72587,-0.94734 -0.75462,-1.45672c-0.08683,-1.53857 -3.17656,-4.88329 -5.00858,-8.27699z" fill="#282828" stroke="none"/><path d="M205.80402,43.87173c-0.38819,-6.87867 5.15146,-7.74362 6.92162,-7.84352c1.77016,-0.0999 18.26609,9.38566 18.65428,16.26432c0.38819,6.87866 -11.08373,12.90088 -12.85389,13.00077c-1.77016,0.0999 -12.33383,-14.54291 -12.72202,-21.42157z" fill="#b7b7b7" stroke="#000000"/><path d="M212.46994,36.9246c-0.10342,-1.8326 -5.84611,3.0307 -3.94152,10.24842c1.6217,6.14564 6.80819,12.73993 9.62489,14.75582c1.05624,0.75594 9.12457,-2.94337 10.10329,-6.36075c0.51148,-1.78589 -1.96837,-6.01543 -6.14495,-10.00385c-5.7709,-5.51092 -11.24761,-8.76821 -10.79137,-8.79396c3.66755,-0.20697 12.77488,6.64224 18.21011,13.79528c2.09634,2.75888 1.88224,5.8962 1.95617,7.2062c0.2656,4.70645 -3.63893,8.75429 -8.72102,9.04109c-2.54644,0.1437 -8.36346,-5.77503 -12.16012,-13.04465c-1.73379,-3.31976 -4.21088,-8.43722 -4.28903,-11.68934c-0.09226,-3.83916 6.22527,-3.88294 6.15353,-5.15425z" fill="#989898" stroke="none"/><path d="M205.84617,44.53211c-0.38819,-6.87867 3.67929,-8.09895 5.44946,-8.19885c1.77016,-0.0999 19.73826,9.74098 20.12645,16.61965c0.38819,6.87866 -11.08373,12.90088 -12.85389,13.00077c-1.77016,0.0999 -12.33383,-14.54291 -12.72202,-21.42157z" fill="none" stroke="#000000"/><path d="M209.0299,38.32125c4.98752,-4.69705 12.25966,-7.83095 19.21949,0.40347c3.25421,3.85017 8.61365,6.22913 9.39854,10.24118c0.89377,4.56857 -3.17184,10.67244 -5.82734,13.17328c-2.68142,2.52525 -8.88456,8.647 -13.12811,7.14079c-3.64961,-1.29537 -5.28645,-9.73838 -8.5045,-13.54577c-6.95984,-8.23441 -6.1456,-12.71591 -1.15806,-17.41295z" fill="none" stroke="#000000"/></g><g><g><path d="M221.79086,101.48074c-10.01322,-12.82284 -8.16435,-36.9212 -1.11815,-42.42352c4.35908,-3.40395 22.06647,-11.98762 33.75209,-7.9922c7.20357,2.46297 15.88112,3.54861 19.69976,8.43872c10.01322,12.82284 7.33131,35.90387 0.2851,41.40619c-3.48634,2.72243 -15.51235,2.10125 -26.02367,2.29679c-10.73311,0.19964 -21.53626,4.7524 -26.59514,-1.72596z" fill="#444444" stroke="#000000" stroke-linecap="butt"/><path d="M215.62645,87.95332c-0.05122,-0.90779 -3.44517,-13.28833 0.09248,-21.85815c3.01667,-7.3078 12.4249,-10.73943 18.54921,-13.9427c14.55503,-7.61289 37.15076,4.99866 38.3678,4.92998c0.81444,-0.04597 -13.6688,-6.00685 -27.20413,-5.57204c-6.60693,0.21224 -13.00254,4.34801 -17.25482,6.80582c-3.31505,1.91609 -9.00604,5.69189 -9.87462,9.0139c-2.2638,8.65813 0.42757,19.81361 0.49648,21.03464c0.19873,3.52161 3.7354,5.59547 1.40572,5.72695c-2.32967,0.13147 -4.37937,-2.61678 -4.5781,-6.13838z" fill="#282828" stroke="none" stroke-linecap="butt"/><path d="M228.43298,60.56934c1.89651,-0.10702 11.72577,5.83168 21.92841,6.79031c9.11673,0.85661 18.57222,-3.44723 22.28246,-0.64485c2.8234,2.13253 0.45852,11.37138 1.55778,14.98847c1.56623,5.15363 5.92298,4.80795 6.03754,6.83799c0.41888,7.42247 -25.29491,1.22811 -32.01305,1.60723c-6.71814,0.37912 -12.50384,-5.33063 -12.92272,-12.75309c-0.41888,-7.42247 -13.58856,-16.4469 -6.87042,-16.82604z" fill="#282828" stroke="none" stroke-linecap="butt"/><path d="M221.71225,101.22423c-10.01322,-12.82284 -8.16435,-36.9212 -1.11815,-42.42352c4.35908,-3.40395 22.06647,-11.98762 33.75209,-7.9922c7.20357,2.46297 15.88112,3.54861 19.69976,8.43872c10.01322,12.82284 7.33131,35.90387 0.2851,41.40619c-3.48634,2.72243 -15.51235,2.10125 -26.02367,2.29678c-10.73311,0.19964 -21.53626,4.7524 -26.59514,-1.72595z" fill="none" stroke="#000000" stroke-linecap="butt"/><path d="M224.342,79.86735c-0.16403,-2.90645 -1.19451,-12.92492 2.11861,-16.05733c3.85973,-3.64924 12.34573,-0.22267 15.35825,-0.39268c5.5984,-0.31593 2.44162,9.01348 2.79673,15.30589c0.3551,6.29242 -3.89543,11.64954 -9.49382,11.96548c-5.5984,0.31593 -10.42466,-4.52895 -10.77976,-10.82137z" fill="#000000" stroke="#000000" stroke-linecap="butt"/><path d="M272.27363,79.68747c0.27253,4.82922 -4.04494,9.0002 -9.64334,9.31613c-5.5984,0.31593 -10.35773,-3.3428 -10.63025,-8.17202c-0.27253,-4.82922 -4.33919,-11.62302 1.25921,-11.93895c3.01252,-0.17 11.1102,-3.62431 15.31112,-1.22788c3.60597,2.05703 3.57739,9.79213 3.70327,12.02273z" data-paper-data="{&quot;index&quot;:null}" fill="#000000" stroke="#000000" stroke-linecap="butt"/><path d="M222.92968,101.47885c-0.01839,-0.32573 -3.06165,-3.06779 -2.95989,-3.45048c0.36421,-1.36949 -4.32744,-5.11675 -1.77361,-6.3543c5.75397,-2.7883 22.06394,-2.58896 29.59707,-3.01408c8.15617,-0.46028 25.38771,-1.91332 30.88416,1.51913c2.46296,1.53807 -3.19426,7.84306 -3.12235,9.11719c0.23237,4.11758 -15.1869,2.23481 -26.99784,2.90134c-11.81094,0.66654 -25.39518,3.39877 -25.62756,-0.71881z" fill="#b7b7b7" stroke="#000000" stroke-linecap="butt"/><path d="M222.86257,101.37856c-0.02726,-0.48303 -6.67456,-8.24995 -5.8109,-8.73371c1.60027,-0.89636 7.71982,6.25537 13.31965,7.2254c6.29353,1.09019 14.379,0.86358 20.48269,0.51912c5.4281,-0.30633 13.29689,0.75023 18.43845,-1.31263c4.78573,-1.92007 6.97377,-6.97658 8.74731,-7.05399c1.3989,-0.06106 -2.82938,5.74279 -2.79232,6.39953c0.13241,2.3463 -9.82409,3.44554 -23.97133,4.30369c-0.22648,0.01374 -1.45684,-0.31 -1.68479,-0.29714c-14.46569,0.81635 -26.59424,1.33355 -26.72877,-1.05031z" fill="#989898" stroke="none" stroke-linecap="butt"/><path d="M222.87322,101.61472c-0.01839,-0.32572 -3.06166,-3.06779 -2.9599,-3.45048c0.36421,-1.36949 -4.32744,-5.11675 -1.77362,-6.3543c5.75397,-2.7883 22.06395,-2.58896 29.59708,-3.01408c8.15617,-0.46028 25.3877,-1.91332 30.88416,1.51913c2.46296,1.53807 -3.19426,7.84306 -3.12235,9.11719c0.23237,4.11758 -15.1869,2.23481 -26.99784,2.90134c-11.81093,0.66654 -25.39517,3.39877 -25.62755,-0.7188z" fill="none" stroke="#000000" stroke-linecap="butt"/><path d="M248.47729,87.96679c6.71814,-0.37912 12.24607,0.7629 12.34697,2.5508c0.1009,1.78789 -5.26344,3.54461 -11.98158,3.92374c-6.71814,0.37912 -12.24607,-0.7629 -12.34697,-2.5508c-0.1009,-1.78789 5.26344,-3.54461 11.98158,-3.92374z" fill="#000000" stroke="#000000" stroke-linecap="butt"/><path d="M222.63438,91.58909l3.01737,-2.33533l3.13917,-0.17715l-2.144,3.86064l-0.03011,2.95404" fill="none" stroke="#000000" stroke-linecap="round"/><path d="M233.74017,89.5846l-6.17869,2.1201" fill="none" stroke="#000000" stroke-linecap="round"/><path d="M230.50756,95.08125l-0.22144,-3.92397" fill="none" stroke="#000000" stroke-linecap="round"/><path d="M232.34386,90.27301l5.40807,1.66304" fill="none" stroke="#000000" stroke-linecap="round"/><path d="M233.65469,91.55766l0.15811,6.28942" fill="none" stroke="#000000" stroke-linecap="round"/><path d="M270.09704,81.62818l2.57891,7.33374l-10.75767,1.19756l-0.13287,-2.35438" fill="none" stroke="#000000" stroke-linecap="round"/><path d="M270.5811,86.71826l-6.01881,-2.02221" fill="none" stroke="#000000" stroke-linecap="round"/><path d="M263.89931,86.89851l-0.43048,6.32262" fill="none" stroke="#000000" stroke-linecap="round"/><path d="M266.58894,96.19422l0.16785,-7.48874" fill="none" stroke="#000000" stroke-linecap="round"/><path d="M270.35791,93.22601l-1.00623,-3.87968" fill="none" stroke="#000000" stroke-linecap="round"/><path d="M271.4434,88.04735l2.08688,5.59009" fill="none" stroke="#000000" stroke-linecap="round"/></g><path d="M268.48672,60.06854l-0.11073,-1.96199l2.08067,-1.49518" fill="none" stroke="#000000" stroke-linecap="round"/><path d="M234.42265,59.82583l-0.12976,1.18826l-0.92562,1.03634" fill="none" stroke="#000000" stroke-linecap="round"/></g><path d="M231.23708,119.39915l-0.28622,-5.07176l35.6515,-2.01194l0.28622,5.07176z" fill="none" stroke="#000000" stroke-linecap="butt"/><path d="M229.10191,113.38421l-0.32831,-5.81762l39.23158,-2.21398l0.32831,5.81762z" fill="none" stroke="#000000" stroke-linecap="butt"/><path d="M238.15916,112.12486l-0.10338,-4.48351" fill="none" stroke="#000000" stroke-linecap="round"/><path d="M251.6302,106.8753l0.23571,4.17674" fill="none" stroke="#000000" stroke-linecap="round"/><path d="M261.73635,110.94394l-1.31356,-4.7145" fill="none" stroke="#000000" stroke-linecap="round"/></g><g><path d="M176.38042,186.28865c1.03302,-8.11467 7.86514,-13.92979 15.25996,-12.98841c7.39482,0.94137 12.55209,8.28276 11.51908,16.39744c-1.03302,8.11468 -7.86515,13.92979 -15.25997,12.98841c-7.39483,-0.94137 -12.55209,-8.28276 -11.51908,-16.39744z" fill="#444444" stroke="#000000" stroke-width="0" stroke-linecap="butt"/><path d="M176.82442,191.96875c0.58315,-4.58087 -0.34327,-17.38297 6.20083,-16.54989c1.09792,0.13977 -2.05075,5.04328 -2.02444,10.47955c0.02496,5.15658 3.21545,10.83182 4.48531,11.96098c5.37087,4.7758 15.42908,-5.95713 15.03656,-2.8738c-0.58316,4.58086 -6.36093,7.61905 -12.90503,6.78596c-6.5441,-0.83308 -11.3764,-5.22195 -10.79324,-9.80282z" fill="#282828" stroke="none" stroke-width="0" stroke-linecap="butt"/><path d="M191.51401,174.06122c7.39483,0.94137 12.55209,8.28276 11.51908,16.39744c-1.03302,8.11468 -7.86513,13.92979 -15.25996,12.98841c-7.39483,-0.94137 -12.55209,-8.28276 -11.51908,-16.39744c1.03302,-8.11468 7.86513,-13.92979 15.25996,-12.98841z" fill="none" stroke="#000000" stroke-width="3.5" stroke-linecap="butt"/><g><path d="M204.11389,204.89639c0.78309,-6.15144 -10.15828,-10.44445 -7.14799,-10.06123c1.40694,0.1791 5.39298,-6.38629 9.39384,-4.56392c4.55937,2.07678 9.07244,12.7365 8.65535,16.0129c-0.78309,6.15145 -3.85822,10.82752 -6.86851,10.44431c-3.01029,-0.38321 -4.81578,-5.6806 -4.03269,-11.83206z" fill="#840000" stroke="#000000" stroke-width="0" stroke-linecap="butt"/><path d="M198.31404,195.71729c-1.47259,-2.82078 1.8745,-4.14006 2.49888,-4.06058c1.70147,0.2166 12.20581,17.62407 11.88091,20.17626c-0.3249,2.5522 -1.9676,4.44557 -3.66906,4.22897c-1.70146,-0.2166 -3.25894,-2.1605 -2.93404,-4.7127c0.20567,-1.61563 -5.00998,-10.33224 -7.77669,-15.63195z" fill="#430000" stroke="none" stroke-width="0" stroke-linecap="butt"/><path d="M196.71196,194.71125c1.40694,0.1791 5.39298,-6.38629 9.39384,-4.56392c4.55937,2.07678 9.07244,12.7365 8.65535,16.0129c-0.78309,6.15144 -3.85823,10.82752 -6.86851,10.44431c-3.01028,-0.38321 -4.81577,-5.68061 -4.03268,-11.83206c0.78309,-6.15144 -10.15827,-10.44445 -7.14799,-10.06123z" fill="none" stroke="#000000" stroke-width="3.5" stroke-linecap="butt"/><path d="M212.90887,199.90132l-8.36346,3.27013" fill="none" stroke="#000000" stroke-width="3.5" stroke-linecap="round"/></g><g data-paper-data="{&quot;index&quot;:null}"><path d="M185.54165,208.83206c2.38563,5.72385 2.04887,11.31032 -0.75216,12.47775c-2.80104,1.16743 -7.00564,-2.52626 -9.39126,-8.2501c-1.27063,-3.04865 0.25546,-14.52333 4.10126,-17.73436c3.3747,-2.81768 8.95842,2.4563 10.26756,1.91068c2.80104,-1.16743 -6.61104,5.8722 -4.22542,11.59604z" fill="#840000" stroke="#000000" stroke-width="0" stroke-linecap="butt"/><path d="M185.34595,215.57809c0.98978,2.37478 0.00328,4.66199 -1.57991,5.32185c-1.58319,0.65985 -3.66899,-0.73037 -4.65878,-3.10515c-0.98978,-2.37478 4.52468,-21.94393 6.10788,-22.60379c0.58098,-0.24214 4.15804,0.14274 3.48581,3.25296c-1.26297,5.8435 -3.98158,15.63081 -3.35501,17.13413z" fill="#430000" stroke="none" stroke-width="0" stroke-linecap="butt"/><path d="M185.75365,208.64528c2.38562,5.72384 2.04887,11.31032 -0.75215,12.47775c-2.80103,1.16743 -7.00564,-2.52627 -9.39126,-8.2501c-1.27063,-3.04865 0.25546,-14.52333 4.10126,-17.73436c3.3747,-2.81768 8.95842,2.4563 10.26756,1.91068c2.80103,-1.16743 -6.61104,5.8722 -4.22542,11.59604z" fill="none" stroke="#000000" stroke-width="3.5" stroke-linecap="butt"/><path d="M184.66833,207.28321l-8.9311,-0.93628" fill="none" stroke="#000000" stroke-width="3.5" stroke-linecap="round"/></g><g data-paper-data="{&quot;index&quot;:null}"><path d="M196.34867,209.83014c4.36233,4.40724 6.15031,9.71056 3.99358,11.84531c-2.15673,2.13476 -7.44146,0.29256 -11.80379,-4.11468c-2.32347,-2.34739 -5.2228,-13.55415 -2.86615,-17.97536c2.06798,-3.87962 9.22472,-1.09146 10.23273,-2.0892c2.15673,-2.13476 -3.9187,7.92669 0.44362,12.33392z" fill="#840000" stroke="#000000" stroke-width="0" stroke-linecap="butt"/><path d="M198.70325,216.15494c1.80991,1.82853 1.75555,4.31883 0.53653,5.52542c-1.21902,1.2066 -3.67445,0.70243 -5.48434,-1.1261c-1.80991,-1.82853 -4.05623,-22.03533 -2.8372,-23.24194c0.44734,-0.44278 3.90672,-1.4308 4.45297,1.704c1.02632,5.88967 2.18631,15.98109 3.33203,17.13861z" fill="#430000" stroke="none" stroke-width="0" stroke-linecap="butt"/><path d="M196.4749,209.57736c4.36232,4.40723 6.15031,9.71056 3.99359,11.8453c-2.15672,2.13475 -7.44146,0.29255 -11.80379,-4.11468c-2.32347,-2.34739 -5.2228,-13.55415 -2.86615,-17.97536c2.06798,-3.87962 9.22472,-1.09146 10.23273,-2.0892c2.15672,-2.13475 -3.9187,7.92669 0.44362,12.33392z" fill="none" stroke="#000000" stroke-width="3.5" stroke-linecap="butt"/><path d="M186.32916,211.2129l8.628,-2.48972" fill="none" stroke="#000000" stroke-width="3.5" stroke-linecap="round"/></g><g><path d="M172.16996,205.00019c1.18165,6.08748 -0.27536,11.49111 -3.25434,12.06935c-2.97898,0.57826 -6.35182,-3.88784 -7.53347,-9.97531c-0.62937,-3.24233 3.1806,-14.17308 7.5952,-16.5421c3.87382,-2.07882 8.27856,4.21334 9.67087,3.94307c2.97898,-0.57826 -7.65991,4.41752 -6.47826,10.50497z" fill="#444444" stroke="#000000" stroke-width="0" stroke-linecap="butt"/><path d="M171.11477,211.62337c0.49026,2.52565 -1.43507,4.51139 -3.11884,4.83824c-1.68376,0.32684 -3.44617,-1.45564 -3.93643,-3.9813c-0.49026,-2.52565 8.85927,-20.57965 10.54305,-20.9065c0.61788,-0.11994 4.04371,0.97878 2.75776,3.88939c-2.41604,5.46849 -6.65333,13.83926 -6.34298,15.43809z" fill="#282828" stroke="none" stroke-width="0" stroke-linecap="butt"/><path d="M172.41529,204.86003c1.18166,6.08746 -0.27536,11.49111 -3.25433,12.06936c-2.97897,0.57825 -6.35183,-3.88785 -7.53347,-9.97531c-0.62937,-3.24233 3.1806,-14.17308 7.5952,-16.5421c3.87382,-2.07882 8.27856,4.21334 9.67087,3.94307c2.97897,-0.57825 -7.65991,4.41752 -6.47826,10.50497z" fill="none" stroke="#000000" stroke-width="3.5" stroke-linecap="butt"/><path d="M171.62712,203.30699l-8.55849,-2.71907" fill="none" stroke="#000000" stroke-width="3.5" stroke-linecap="round"/></g><g><path d="M184.69033,209.03989c2.93012,5.46516 3.13741,11.05794 0.46296,12.49183c-2.67444,1.4339 -7.21783,-1.83408 -10.14796,-7.29925c-1.56065,-2.91086 -1.15593,-14.47951 2.35991,-18.0488c3.08516,-3.13205 9.1546,1.57485 10.40457,0.90468c2.67444,-1.4339 -6.00962,6.48638 -3.07949,11.95152z" fill="#444444" stroke="#000000" stroke-width="0" stroke-linecap="butt"/><path d="M185.64233,215.67868c1.21569,2.26746 -0.0358,4.734 -1.54743,5.54447c-1.51163,0.81046 -3.72258,-0.37066 -4.93827,-2.63812c-1.21569,-2.26746 2.37258,-22.27958 3.88423,-23.09005c0.55472,-0.29741 4.15224,-0.26167 3.78519,2.89912c-0.6896,5.93853 -2.26005,15.18829 -1.49048,16.62368z" fill="#282828" stroke="none" stroke-width="0" stroke-linecap="butt"/><path d="M184.8832,208.83341c2.93013,5.46515 3.13741,11.05794 0.46297,12.49184c-2.67443,1.43389 -7.21784,-1.83409 -10.14796,-7.29925c-1.56065,-2.91086 -1.15593,-14.47951 2.35991,-18.0488c3.08516,-3.13205 9.1546,1.57485 10.40457,0.90468c2.67443,-1.43389 -6.00962,6.48638 -3.07949,11.95152z" fill="none" stroke="#000000" stroke-width="3.5" stroke-linecap="butt"/><path d="M174.69094,207.5185l8.97981,0.06467" fill="none" stroke="#000000" stroke-width="3.5" stroke-linecap="round"/></g><g><path d="M196.07424,209.91637c4.72797,4.01248 6.96897,9.14083 5.00542,11.45452c-1.96355,2.31369 -7.38809,0.93655 -12.11605,-3.07592c-2.51822,-2.13713 -6.37815,-13.05034 -4.41365,-17.65922c1.72386,-4.04429 9.09538,-1.88705 10.0131,-2.96841c1.96355,-2.31369 -3.21678,8.23656 1.51118,12.24902z" fill="#444444" stroke="#000000" stroke-width="0" stroke-linecap="butt"/><path d="M199.39129,215.74535c1.96161,1.66475 1.70032,4.41826 0.5905,5.726c-1.10983,1.30773 -3.59972,1.01832 -5.56133,-0.64643c-1.96161,-1.66475 -5.95121,-21.60074 -4.84137,-22.90848c0.40727,-0.47989 3.76798,-1.76408 4.58393,1.31155c1.53305,5.77854 3.45903,14.96085 4.70079,16.0147z" fill="#282828" stroke="none" stroke-width="0" stroke-linecap="butt"/><path d="M196.1781,209.6536c4.72796,4.01246 6.96897,9.14083 5.00543,11.45452c-1.96354,2.31369 -7.3881,0.93656 -12.11605,-3.07592c-2.51822,-2.13713 -6.37815,-13.05034 -4.41365,-17.65922c1.72386,-4.04429 9.09538,-1.88705 10.0131,-2.96841c1.96354,-2.31369 -3.21678,8.23656 1.51118,12.24902z" fill="none" stroke="#000000" stroke-width="3.5" stroke-linecap="butt"/><path d="M194.59203,208.93421l-8.3797,3.2283" fill="none" stroke="#000000" stroke-width="3.5" stroke-linecap="round"/></g><g data-paper-data="{&quot;index&quot;:null}"><path d="M204.7172,205.45184c1.35847,-6.05045 -9.13041,-11.35399 -6.16953,-10.68921c1.38384,0.3107 5.97,-5.85047 9.78162,-3.6597c4.34372,2.49661 7.8337,13.53369 7.11016,16.75632c-1.35847,6.05047 -4.85995,10.41643 -7.82083,9.75165c-2.96088,-0.66477 -4.25987,-6.10855 -2.90142,-12.15902z" fill="#444444" stroke="#000000" stroke-width="0" stroke-linecap="butt"/><path d="M205.69745,211.38403c0.35679,-1.58911 -3.6349,-10.07975 -5.89063,-15.6163c-1.20063,-2.94684 2.25575,-3.9453 2.86988,-3.80741c1.67353,0.37576 10.49324,18.69442 9.92963,21.20471c-0.56361,2.5103 -2.37719,4.2407 -4.05072,3.86495c-1.67353,-0.37576 -3.54021,-2.41672 -2.9766,-4.92702z" fill="#282828" stroke="none" stroke-width="0" stroke-linecap="butt"/><path d="M204.47605,205.30461c1.35847,-6.05045 -9.13039,-11.35398 -6.16952,-10.6892c1.38384,0.3107 5.97,-5.85048 9.78162,-3.65971c4.34372,2.49661 7.8337,13.53369 7.11016,16.75632c-1.35846,6.05046 -4.85997,10.41643 -7.82083,9.75165c-2.96087,-0.66478 -4.25988,-6.10857 -2.90141,-12.15903z" fill="none" stroke="#000000" stroke-width="3.5" stroke-linecap="butt"/><path d="M213.94318,201.30657l-8.63407,2.46863" fill="none" stroke="#000000" stroke-width="3.5" stroke-linecap="round"/></g></g></g></g></svg>