<svg version="1.1" xmlns="http://www.w3.org/2000/svg" xmlns:xlink="http://www.w3.org/1999/xlink" width="493.47035" height="709.10537" viewBox="0,0,493.47035,709.10537"><g transform="translate(134.95862,44.50112)"><g data-paper-data="{&quot;isPaintingLayer&quot;:true}" fill-rule="nonzero" stroke-width="4.5" stroke-linejoin="miter" stroke-miterlimit="10" stroke-dasharray="" stroke-dashoffset="0" style="mix-blend-mode: normal"><g><path d="M264.00937,405.93714l-76.14598,-145.3042l39.93226,-22.58735l76.14598,145.3042z" data-paper-data="{&quot;index&quot;:null}" fill="#1b1b1b" stroke="#000000" stroke-linecap="butt"/><g data-paper-data="{&quot;index&quot;:null}"><g stroke-linecap="butt"><path d="M302.19876,364.94283c3.50816,16.0584 -4.60398,49.70462 -19.27486,52.90965c-14.67086,3.20502 -83.91661,-130.7656 -87.42476,-146.82398c-2.25307,-10.31332 -6.72502,-20.76717 -0.45633,-27.54502c3.49198,-3.77562 15.41952,-6.18786 20.66819,-7.33449c7.61393,-1.66335 9.42618,56.63798 29.37826,88.54006c18.49247,29.56827 55.42204,32.52945 57.1095,40.25377z" fill="#840000" stroke="#000000"/><path d="M301.74928,358.54735c5.54968,25.40337 -4.73929,49.22752 -20.0357,52.56921c-15.29645,3.3417 -79.84012,-113.54356 -85.38981,-138.94695c-3.66157,-16.76063 30.22497,52.13689 58.06138,92.02998c14.35412,20.5712 27.05789,24.83374 32.26207,23.69681c15.29645,-3.3417 9.55239,-54.75243 15.10207,-29.34902z" fill="#430000" stroke="none"/><path d="M301.92725,363.69963c3.50816,16.0584 -4.60398,49.70462 -19.27486,52.90965c-14.67084,3.20502 -83.91661,-130.7656 -87.42476,-146.82398c-1.90003,-8.69731 -17.50334,-19.28407 -13.13823,-25.8204c3.69448,-5.5321 26.62503,-7.58993 33.35007,-9.05909c8.04571,-1.75768 10.7879,58.64796 31.56248,92.43194c17.10646,27.81883 53.34107,29.11018 54.92529,36.3619z" fill="none" stroke="#000000"/></g><path d="M232.18785,338.23968l13.90883,-14.62926" fill="none" stroke="#000000" stroke-linecap="round"/></g></g><g><g stroke-linecap="butt"><path d="M68.2526,214.9473c8.33513,1.54053 24.47826,6.04686 28.91051,12.45652c4.36724,6.31562 -2.90388,14.48606 -4.39771,22.56861c-3.00992,16.28542 -72.72258,152.64904 -89.27055,149.59059c-16.54797,-3.05845 -27.4923,-36.9873 -24.48237,-53.27271c3.00992,-16.28542 72.69217,-134.40148 89.24011,-131.34304z" fill="#840000" stroke="#000000"/><path d="M-2.34528,369.31164c5.87006,1.08492 19.80309,-3.38483 34.65928,-24.36998c28.81005,-40.69576 62.73722,-110.80238 59.59568,-93.80482c-4.76151,25.7625 -70.65257,147.28985 -87.90618,144.10099c-17.2536,-3.18886 -29.61104,-29.65908 -24.84953,-55.42158c4.76151,-25.7625 1.24714,26.30651 18.50073,29.49537z" fill="#430000" stroke="none"/><path d="M68.48559,213.68656c7.76777,1.43567 25.73302,4.52916 30.17469,10.28447c5.02059,6.50541 -4.06489,16.09973 -5.66193,24.74062c-3.00992,16.28542 -72.72258,152.64904 -89.27055,149.59059c-16.54797,-3.05845 -27.4923,-36.9873 -24.48237,-53.27271c3.00992,-16.28542 72.69217,-134.40148 89.24011,-131.34304z" fill="none" stroke="#000000"/></g><path d="M55.61713,318.40847l-39.26305,-44.13834" fill="none" stroke="#000000" stroke-linecap="round"/></g><g><path d="M-47.2268,386.45085c5.25152,-19.68093 24.04796,-31.75596 41.983,-26.97028c17.93504,4.78565 28.21708,24.61977 22.96556,44.3007c-5.25152,19.68095 -24.04799,31.75596 -41.98302,26.97028c-17.93506,-4.78565 -28.21708,-24.61977 -22.96556,-44.3007z" fill="#840000" stroke="#000000" stroke-linecap="butt"/><path d="M-48.02269,400.61575c2.96455,-11.11021 4.94168,-43.01104 20.81341,-38.77593c2.66285,0.71053 -6.74021,11.76259 -8.48563,25.18669c-1.65563,12.73344 4.32777,27.80096 7.08542,31.01032c11.66354,13.57403 40.05884,-9.56258 38.06341,-2.08442c-2.96458,11.11018 -18.2344,16.68358 -34.10613,12.44847c-15.87173,-4.23511 -26.33506,-16.67494 -23.37048,-27.78515z" fill="#430000" stroke="none" stroke-linecap="butt"/><path d="M-5.80906,361.31632c17.93506,4.78565 28.21708,24.61977 22.96556,44.3007c-5.25152,19.68095 -24.04794,31.75596 -41.983,26.97028c-17.93506,-4.78565 -28.21708,-24.61977 -22.96556,-44.3007c5.25152,-19.68095 24.04794,-31.75596 41.983,-26.97028z" fill="none" stroke="#000000" stroke-linecap="butt"/><g><path d="M15.01566,441.60565c3.98099,-14.91941 -21.5899,-29.15708 -14.28889,-27.20894c3.41233,0.91051 15.43521,-13.9638 24.70144,-8.1343c10.55977,6.6433 18.14702,34.45168 16.02666,42.3981c-3.98099,14.91943 -13.12683,25.43471 -20.42784,23.48657c-7.30101,-1.94814 -9.9924,-15.62199 -6.01141,-30.54143z" fill="#840000" stroke="#000000" stroke-linecap="butt"/><path d="M3.7599,417.02251c-2.69463,-7.45136 6.00448,-9.59239 7.51882,-9.18832c4.12666,1.10113 24.25175,47.55639 22.60006,53.74636c-1.65169,6.18997 -6.33597,10.31529 -10.46261,9.21416c-4.12664,-1.10113 -7.32275,-6.41685 -5.67106,-12.60682c1.04557,-3.91847 -8.92257,-27.16571 -13.98522,-41.1654z" fill="#430000" stroke="none" stroke-linecap="butt"/><path d="M0.14139,414.00638c3.41233,0.91051 15.43521,-13.9638 24.70144,-8.1343c10.55977,6.6433 18.14702,34.45168 16.02666,42.3981c-3.98099,14.91941 -13.12685,25.43471 -20.42784,23.48657c-7.30099,-1.94814 -9.99237,-15.62202 -6.01138,-30.54143c3.98099,-14.91941 -21.58987,-29.15708 -14.28889,-27.20894z" fill="none" stroke="#000000" stroke-linecap="butt"/><path d="M38.38287,432.20794l-21.72788,5.28469" fill="none" stroke="#000000" stroke-linecap="round"/></g><g data-paper-data="{&quot;index&quot;:null}"><path d="M-63.84835,431.22402c0.8888,15.41584 -4.50621,28.26542 -12.05015,28.70034c-7.54392,0.43495 -14.37998,-11.70943 -15.26877,-27.12527c-0.4734,-8.21082 12.56874,-33.91635 24.25175,-38.29238c10.25187,-3.83995 19.02628,13.15432 22.55213,12.95103c7.54392,-0.43495 -20.3738,8.35044 -19.48498,23.76623z" fill="#840000" stroke="#000000" stroke-linecap="butt"/><path d="M-69.8675,446.91454c0.36876,6.39593 -3.83418,10.95744 -8.09812,11.20329c-4.26394,0.24585 -8.01951,-4.73978 -8.38827,-11.13571c-0.36876,-6.39593 28.71573,-47.83506 32.9797,-48.08091c1.56471,-0.09022 9.6529,3.76199 5.51022,10.51639c-7.78325,12.69026 -22.23698,33.44809 -22.00356,37.49694z" fill="#430000" stroke="none" stroke-linecap="butt"/><path d="M-63.19629,430.95984c0.88882,15.41581 -4.50621,28.26542 -12.05013,28.70036c-7.5439,0.43495 -14.37998,-11.70946 -15.26877,-27.12527c-0.4734,-8.21082 12.56874,-33.91635 24.25175,-38.29238c10.25187,-3.83995 19.02628,13.15432 22.55213,12.95103c7.5439,-0.43495 -20.3738,8.35044 -19.48498,23.76623z" fill="none" stroke="#000000" stroke-linecap="butt"/><path d="M-64.6241,426.86485l-20.21468,-9.56006" fill="none" stroke="#000000" stroke-linecap="round"/></g><g data-paper-data="{&quot;index&quot;:null}"><path d="M-32.12648,445.13304c3.98099,14.91943 1.2896,28.59329 -6.01141,30.54143c-7.30101,1.94814 -16.44684,-8.56713 -20.42784,-23.48657c-2.12036,-7.94642 5.46689,-35.7548 16.02666,-42.3981c9.26623,-5.8295 21.28912,9.04481 24.70144,8.1343c7.30101,-1.94814 -18.26988,12.28953 -14.28889,27.20894z" fill="#840000" stroke="#000000" stroke-linecap="butt"/><path d="M-34.85597,461.71537c1.65169,6.18997 -1.54442,11.50569 -5.67106,12.60684c-4.12664,1.10113 -8.81091,-3.02419 -10.46261,-9.21416c-1.65169,-6.18997 18.4734,-52.64524 22.60006,-53.74636c1.51434,-0.40407 10.21345,1.73693 7.51882,9.18829c-5.06265,13.99969 -15.03079,37.24693 -13.98522,41.1654z" fill="#430000" stroke="none" stroke-linecap="butt"/><path d="M-31.54113,444.74266c3.98099,14.91941 1.2896,28.59329 -6.01138,30.54143c-7.30099,1.94814 -16.44684,-8.56716 -20.42784,-23.48657c-2.12036,-7.94642 5.46689,-35.7548 16.02666,-42.3981c9.26623,-5.8295 21.28912,9.04481 24.70144,8.1343c7.30099,-1.94814 -18.26988,12.28953 -14.28889,27.20894z" fill="none" stroke="#000000" stroke-linecap="butt"/><path d="M-55.49373,435.73538l21.72788,5.28469" fill="none" stroke="#000000" stroke-linecap="round"/></g><g data-paper-data="{&quot;index&quot;:null}"><path d="M-5.78991,451.19489c9.29743,12.32865 11.94365,26.01132 5.91048,30.56113c-6.03317,4.54981 -18.46105,-1.75615 -27.75848,-14.0848c-4.95201,-6.5665 -8.37482,-35.18743 -1.08688,-45.31305c6.39521,-8.88524 23.12772,0.37852 25.9475,-1.74796c6.03317,-4.54981 -12.31005,18.25606 -3.01261,30.58468z" fill="#840000" stroke="#000000" stroke-linecap="butt"/><path d="M-2.08564,467.58706c3.85746,5.11506 2.89401,11.24239 -0.51603,13.814c-3.41003,2.57164 -9.30152,0.50978 -13.15895,-4.60529c-3.85746,-5.11506 -2.67167,-55.72835 0.73839,-58.29998c1.25138,-0.9437 10.11725,-2.22985 10.42135,5.68794c0.57136,14.87598 0.07333,40.16532 2.51521,43.40333z" fill="#430000" stroke="none" stroke-linecap="butt"/><path d="M-5.39425,450.61318c9.29743,12.32862 11.94365,26.01132 5.91051,30.5611c-6.03314,4.54981 -18.46105,-1.75618 -27.75848,-14.0848c-4.95201,-6.5665 -8.37482,-35.18743 -1.08688,-45.31305c6.39521,-8.88524 23.12772,0.37852 25.9475,-1.74796c6.03314,-4.54981 -12.31005,18.25606 -3.01261,30.58468z" fill="none" stroke="#000000" stroke-linecap="butt"/><path d="M-8.85516,447.99988l-22.12082,3.27074" fill="none" stroke="#000000" stroke-linecap="round"/></g></g><g data-paper-data="{&quot;index&quot;:null}"><path d="M312.30881,412.8125c5.25152,19.68093 -5.0305,39.51505 -22.96556,44.3007c-17.93504,4.78567 -36.7315,-7.28933 -41.98302,-26.97028c-5.25152,-19.68093 5.03053,-39.51505 22.96556,-44.3007c17.93504,-4.78567 36.73148,7.28936 41.983,26.97028z" fill="#840000" stroke="#000000" stroke-linecap="butt"/><path d="M313.10467,426.97743c2.96458,11.11021 -7.49875,23.55004 -23.37048,27.78515c-15.87173,4.23511 -31.14155,-1.33829 -34.10613,-12.44847c-1.99543,-7.47816 26.39987,15.65845 38.06341,2.08442c2.75765,-3.20936 8.74104,-18.27688 7.08542,-31.01032c-1.74542,-13.4241 -11.14848,-24.47616 -8.48563,-25.18669c15.87173,-4.23511 17.84885,27.66572 20.81341,38.77593z" fill="#430000" stroke="none" stroke-linecap="butt"/><path d="M312.87409,414.64838c5.25152,19.68093 -5.0305,39.51505 -22.96556,44.3007c-17.93506,4.78567 -36.73148,-7.28933 -41.983,-26.97028c-5.25152,-19.68093 5.0305,-39.51505 22.96556,-44.3007c17.93506,-4.78567 36.73148,7.28933 41.983,26.97028z" fill="none" stroke="#000000" stroke-linecap="butt"/><g><path d="M250.06635,467.96732c3.98099,14.91943 1.2896,28.59329 -6.01141,30.54143c-7.30101,1.94814 -16.44684,-8.56713 -20.42784,-23.48657c-2.12036,-7.94642 5.46689,-35.7548 16.02666,-42.3981c9.26623,-5.8295 21.28912,9.04481 24.70144,8.1343c7.30101,-1.94814 -18.26988,12.28953 -14.28889,27.20894z" fill="#840000" stroke="#000000" stroke-linecap="butt"/><path d="M247.33692,484.54965c1.65169,6.18997 -1.54442,11.50569 -5.67106,12.60684c-4.12664,1.10113 -8.81091,-3.02419 -10.46261,-9.21416c-1.65169,-6.18997 18.4734,-52.64524 22.60006,-53.74636c1.51434,-0.40407 10.21342,1.73693 7.5188,9.18829c-5.06265,13.99969 -15.03079,37.24693 -13.98522,41.1654z" fill="#430000" stroke="none" stroke-linecap="butt"/><path d="M250.65175,467.57694c3.98099,14.91941 1.2896,28.59329 -6.01138,30.54143c-7.30099,1.94814 -16.44684,-8.56716 -20.42784,-23.48657c-2.12036,-7.94642 5.46689,-35.7548 16.02666,-42.3981c9.26623,-5.8295 21.28912,9.04481 24.70144,8.1343c7.30099,-1.94814 -18.26988,12.28953 -14.28889,27.20894z" fill="none" stroke="#000000" stroke-linecap="butt"/><path d="M248.42702,463.85435l-21.72788,-5.28469" fill="none" stroke="#000000" stroke-linecap="round"/></g><g data-paper-data="{&quot;index&quot;:null}"><path d="M328.93031,457.58569c0.88882,-15.41581 -27.0289,-24.20118 -19.48498,-23.76623c3.52585,0.20329 12.30026,-16.791 22.55213,-12.95105c11.68301,4.376 24.72512,30.08156 24.25175,38.29235c-0.88882,15.41581 -7.72488,27.56022 -15.26877,27.12527c-7.54392,-0.43495 -12.93895,-13.28453 -12.05015,-28.70034z" fill="#840000" stroke="#000000" stroke-linecap="butt"/><path d="M312.9459,435.77933c-4.14268,-6.75441 3.94551,-10.60661 5.51022,-10.51639c4.26397,0.24585 33.34846,41.68498 32.9797,48.08091c-0.36876,6.39593 -4.12432,11.38156 -8.38827,11.13571c-4.26394,-0.24585 -8.46688,-4.80734 -8.09812,-11.20327c0.23345,-4.04885 -14.22029,-24.80668 -22.00356,-37.49694z" fill="#430000" stroke="none" stroke-linecap="butt"/><path d="M308.79329,433.55526c3.52587,0.20329 12.30026,-16.791 22.55215,-12.95105c11.68301,4.376 24.72512,30.08156 24.25175,38.29238c-0.88882,15.41581 -7.72488,27.56019 -15.2688,27.12524c-7.5439,-0.43495 -12.93892,-13.28455 -12.0501,-28.70034c0.8888,-15.41581 -27.0289,-24.20118 -19.48498,-23.76623z" fill="none" stroke="#000000" stroke-linecap="butt"/><path d="M329.70605,453.22657l20.21471,-9.56006" fill="none" stroke="#000000" stroke-linecap="round"/></g><g data-paper-data="{&quot;index&quot;:null}"><path d="M297.20852,471.49469c3.98099,-14.91941 -21.5899,-29.15708 -14.28889,-27.20894c3.41233,0.91051 15.43521,-13.9638 24.70144,-8.1343c10.55977,6.6433 18.14702,34.45168 16.02666,42.3981c-3.98099,14.91943 -13.12683,25.43471 -20.42784,23.48657c-7.30101,-1.94814 -9.9924,-15.62199 -6.01141,-30.54143z" fill="#840000" stroke="#000000" stroke-linecap="butt"/><path d="M285.95271,446.91167c-2.69463,-7.45136 6.00446,-9.59239 7.5188,-9.18832c4.12666,1.10113 24.25175,47.55639 22.60006,53.74636c-1.65169,6.18997 -6.33597,10.31529 -10.46261,9.21416c-4.12664,-1.10113 -7.32275,-6.41687 -5.67106,-12.60684c1.04557,-3.91847 -8.92255,-27.16571 -13.98519,-41.1654z" fill="#430000" stroke="none" stroke-linecap="butt"/><path d="M282.33428,443.89545c3.41233,0.91051 15.43521,-13.9638 24.70144,-8.1343c10.55977,6.6433 18.14702,34.45168 16.02666,42.3981c-3.98099,14.91941 -13.12685,25.43471 -20.42784,23.48657c-7.30099,-1.94814 -9.99237,-15.62202 -6.01138,-30.54143c3.98099,-14.91941 -21.58987,-29.15708 -14.28889,-27.20894z" fill="none" stroke="#000000" stroke-linecap="butt"/><path d="M320.57568,462.09703l-21.72788,5.28469" fill="none" stroke="#000000" stroke-linecap="round"/></g><g data-paper-data="{&quot;index&quot;:null}"><path d="M270.87194,477.55667c9.29743,-12.32862 -9.04581,-35.13449 -3.01261,-30.58468c2.81978,2.12646 19.55231,-7.13729 25.9475,1.74793c7.28796,10.12562 3.86513,38.74652 -1.08688,45.31303c-9.29743,12.32865 -21.72531,18.63461 -27.7585,14.08482c-6.03319,-4.54981 -3.38695,-18.23248 5.91048,-30.56113z" fill="#840000" stroke="#000000" stroke-linecap="butt"/><path d="M269.68289,450.54542c0.30409,-7.91779 9.16999,-6.63164 10.42137,-5.68794c3.41006,2.57164 4.59583,53.18492 0.73839,58.29998c-3.85743,5.11506 -9.74892,7.17693 -13.15895,4.60529c-3.41003,-2.57164 -4.37348,-8.69893 -0.51603,-13.814c2.4419,-3.23802 1.94388,-28.52733 2.51524,-43.40333z" fill="#430000" stroke="none" stroke-linecap="butt"/><path d="M267.46362,446.39022c2.81978,2.12646 19.55229,-7.13729 25.9475,1.74793c7.28794,10.12562 3.86513,38.74652 -1.08688,45.31303c-9.29743,12.32862 -21.72534,18.63461 -27.7585,14.08482c-6.03314,-4.54981 -3.38693,-18.2325 5.91051,-30.56113c9.29743,-12.32862 -9.04578,-35.13447 -3.01261,-30.58468z" fill="none" stroke="#000000" stroke-linecap="butt"/><path d="M296.05798,477.63234l-22.12084,-3.27076" fill="none" stroke="#000000" stroke-linecap="round"/></g></g><g stroke-linecap="butt"><path d="M102.76994,415.79534l17.8556,-121.54097l56.66437,8.32457l-17.8556,121.54097z" fill="#1b1b1b" stroke="#000000"/><g><path d="M45.08626,406.39226l6.15295,-41.88237l137.96542,20.26852l-6.15295,41.88237z" fill="#1b1b1b" stroke="#000000"/><g><path d="M51.10259,373.61929c4.93346,-33.58155 21.57872,-112.67478 48.2831,-143.89048c18.96978,-22.17444 46.36024,-3.79002 63.23518,-1.31091c21.66043,3.18213 45.12364,-10.38948 51.04717,26.86258c5.18776,32.625 4.77651,109.3785 0.83688,136.19515c-8.43802,57.43659 -41.81038,50.90757 -82.44078,44.93854c-28.23349,-4.14779 14.39752,-107.63988 0.23015,-127.11824c-6.22067,-8.55262 -83.76622,81.84802 -81.19167,64.32333z" fill="#840000" stroke="#000000"/><path d="M136.50388,304.58526c1.07097,-7.28989 -7.63176,-8.851 -22.43241,5.06869c-10.90066,10.25182 -45.87983,54.42948 -49.19194,52.47269c-12.54434,-7.41117 31.14602,-91.58377 44.79843,-109.65005c13.68294,-18.10666 31.98204,-14.20342 44.04084,-12.43186c14.29719,2.1004 31.36234,1.27455 39.71654,25.6004c10.09929,29.4072 9.7088,86.75826 5.41749,115.96874c-7.84113,53.37357 -41.94832,56.35317 -73.52922,51.71361c-5.8926,-0.86568 5.71739,-8.34237 3.68382,-8.92034c-8.86519,-2.51961 -1.76877,0.35181 4.6093,-43.06292z" fill="#7d3c3c" stroke="#000000"/><path d="M58.86859,367.72615c1.1368,-7.73809 11.09138,-41.48025 27.80603,-71.22885c9.66509,-17.20185 17.01457,-37.17403 28.12693,-47.88024c9.31785,-8.97732 22.60103,-10.24953 29.30277,-9.46491c0.96029,0.1124 24.96398,-8.46462 25.93275,-8.3223c29.73641,4.36858 31.74644,43.11244 29.32212,59.61452c-2.42432,16.50207 -36.1767,-20.12364 -65.91311,-24.49222c-20.72521,-3.04474 -29.92267,16.6909 -36.28578,26.48964c-2.76663,4.26042 -29.31323,55.2852 -28.57858,50.28449z" fill="#5c2c2c" stroke="none"/><path d="M54.17879,381.52482c2.11629,-14.40532 17.17717,-155.97698 60.76249,-149.57385c8.05504,1.18337 -12.48415,26.19283 -25.91266,59.55986c-6.49562,16.14026 -35.33041,70.47495 -26.35281,69.05208c6.43605,-1.02006 37.04882,-31.58916 47.87572,-42.37718c12.15032,-12.1067 20.73104,-28.23422 23.61,-21.98695c7.00764,15.20643 -6.33062,70.71906 -4.9011,102.02784c0.42245,9.25223 6.80739,13.24884 9.55682,17.38777c19.29104,29.04025 70.49068,1.81553 69.7225,7.04444c-2.11629,14.40532 -39.16478,20.89237 -82.7501,14.48924c-17.21256,-2.5287 -3.6935,-15.9029 -1.47899,-37.10299c2.84984,-27.28218 8.56986,-68.676 9.62206,-86.61014c0.20055,-3.41836 -4.17764,-6.63216 -3.97264,-8.02755z" fill="#430000" stroke="none"/><path d="M129.78695,400.74121c0.6569,-4.47143 7.0905,-9.10188 2.1391,-9.57059c-5.54224,-0.52465 -21.75418,3.52604 -4.40927,6.07418c32.84074,4.82464 67.74532,-10.6085 66.35313,-1.13208c-0.67268,4.57889 -5.91926,21.33943 -18.7716,29.45024c-13.7467,8.67523 -25.67526,9.119 -42.64776,6.62556c-15.59938,-2.29171 -9.25326,-15.37139 -9.91033,-23.65141c-0.113,-1.42399 9.75139,0.01137 8.34929,-1.24356c-7.60878,-6.8101 -5.92865,1.82425 -5.31148,-2.37674z" fill="#5c2c2c" stroke="none"/><path d="M110.06487,252.01094c13.68291,-18.10667 31.98202,-14.20342 44.04081,-12.43185c14.29721,2.1004 31.36236,1.27455 39.71656,25.6004c10.09927,29.40721 9.70877,86.75829 5.41746,115.96876c-3.35697,22.85048 -11.52824,36.46428 -22.25446,44.19793c-14.32781,10.33041 -33.21439,10.16893 -51.27476,7.51568c-7.53513,-1.10699 -5.44953,-11.85562 -3.90481,-26.41068c3.43436,-32.36036 17.6234,-84.87168 12.55583,-101.52627c-1.36578,-4.48861 -34.893,20.78481 -54.28467,43.68749c-11.93004,14.09003 -25.15072,27.45828 -24.46104,22.76371c4.84707,-32.99347 32.29768,-90.05209 54.4491,-119.36515z" fill="none" stroke="#000000"/><path d="M101.15326,229.70242c18.96978,-22.17447 46.36022,-3.79004 63.23519,-1.31094c21.66043,3.18213 45.12364,-10.3895 51.04717,26.86258c5.18776,32.625 4.77649,109.37852 0.83685,136.19517c-3.40702,23.19115 -10.87906,35.954 -21.25262,42.53603c-1.39437,0.88474 -2.8412,1.6578 -4.33758,2.32952c-14.94254,6.70741 -34.83065,3.30795 -56.85058,0.073c-16.75191,-2.46103 8.95049,-107.20025 2.64268,-134.28001c-4.05749,-17.41903 -40.59591,41.19162 -46.34131,34.10556c-6.9862,-8.61643 -39.98406,55.9022 -37.2629,37.37954c4.93347,-33.58153 21.57872,-112.67476 48.28309,-143.89046z" fill="none" stroke="#000000"/></g></g><g><path d="M215.63518,295.62843c-1.08813,7.40676 -7.5183,48.65011 -24.1391,46.20833c-16.62076,-2.44176 -37.13812,-47.644 -36.05,-55.05073c1.08813,-7.40676 32.90972,-39.1512 49.5305,-36.70943c16.62076,2.44176 11.74673,38.14507 10.6586,45.55183z" data-paper-data="{&quot;index&quot;:null}" fill="#410000" stroke="#000000"/><path d="M111.73618,236.79477c16.62076,2.44176 37.96772,41.9972 36.87959,49.40396c-1.08813,7.40676 -33.73932,44.79797 -50.36009,42.3562c-16.62076,-2.44176 -10.91716,-43.79185 -9.82903,-51.1986c1.08813,-7.40673 6.68873,-43.00333 23.30954,-40.56155z" fill="#410000" stroke="#000000"/><path d="M215.23147,295.98522c-1.08813,7.40676 -7.5183,48.65011 -24.1391,46.20833c-16.62074,-2.44176 -37.13812,-47.64397 -36.05,-55.05073c1.08813,-7.40676 32.90972,-39.1512 49.5305,-36.70943c16.62076,2.44176 11.74673,38.14507 10.6586,45.55183z" data-paper-data="{&quot;index&quot;:null}" fill="none" stroke="#000000"/><path d="M112.02023,237.25257c16.62074,2.44176 37.96769,41.9972 36.87956,49.40395c-1.08813,7.40676 -33.73932,44.79797 -50.36007,42.35621c-16.62076,-2.44176 -10.91716,-43.79185 -9.82903,-51.1986c1.08813,-7.40673 6.68876,-43.00332 23.30954,-40.56155z" fill="none" stroke="#000000"/><path d="M106.25519,237.12671c2.18128,0.32045 -7.55205,20.1938 -9.93943,31.7754c-4.1474,20.11996 -2.91057,37.48682 0.83382,43.91203c8.73497,14.98881 43.26748,-22.28833 42.39583,-16.35511c-1.46037,9.94063 -25.48234,31.94991 -40.2929,29.77409c-14.81059,-2.17583 -14.80132,-27.71282 -13.34092,-37.65345c1.46038,-9.94066 5.53304,-53.62879 20.34361,-51.45297z" fill="#170000" stroke="none"/><path d="M214.81607,307.10095c-1.46038,9.94066 -8.79626,34.40127 -23.60682,32.22544c-14.81056,-2.17582 -31.48737,-30.16415 -30.02699,-40.1048c0.87165,-5.93324 23.22366,39.70083 35.90053,27.85764c5.43412,-5.07679 11.61365,-21.35411 13.42825,-41.81678c1.04452,-11.77889 -2.56169,-33.61195 -0.38046,-33.29151c14.81056,2.17582 6.14587,45.18937 4.6855,55.12999z" data-paper-data="{&quot;index&quot;:null}" fill="#170000" stroke="none"/><g><path d="M157.2204,265.83035c10.69651,1.57142 17.81248,13.43193 15.89394,26.49122c-1.91854,13.05927 -12.14504,22.372 -22.84158,20.80058c-10.69651,-1.57142 -17.81248,-13.43193 -15.89394,-26.49122c1.91854,-13.05924 12.14507,-22.372 22.84158,-20.80058z" fill="#410000" stroke="#000000"/><path d="M156.9085,266.20065c10.69651,1.57142 17.81248,13.43193 15.89394,26.49122c-1.91854,13.05927 -12.14507,22.372 -22.84158,20.80058c-10.69651,-1.57142 -17.81248,-13.43193 -15.89394,-26.49122c1.91854,-13.05927 12.14507,-22.372 22.84158,-20.80058z" fill="none" stroke="#000000"/><path d="M134.15641,291.7014c1.43175,-9.74575 5.53452,-28.03017 16.06648,-26.48292c3.30112,0.48497 -8.236,18.6274 -8.86515,27.47249c-0.46401,6.52334 8.54696,12.22995 10.44121,15.35646c3.73173,6.15932 21.14907,-15.1811 20.49706,-10.74291c-1.43175,9.74573 -11.13025,16.39188 -21.6622,14.84463c-10.53196,-1.54725 -17.90915,-10.70202 -16.47739,-20.44772z" fill="#170000" stroke="none"/></g></g></g><g><path d="M172.24411,162.89129c31.89413,-2.36711 58.82732,10.23688 60.15693,28.15185c1.32962,17.91495 -23.44785,34.3568 -55.34197,36.72394c-31.89413,2.36711 -58.82732,-10.23688 -60.15693,-28.15185c-1.32962,-17.91495 23.44785,-34.3568 55.34197,-36.72394z" fill="#000000" stroke="#000000" stroke-linecap="butt"/><path d="M112.87754,197.50885c9.11716,-4.08689 44.49838,8.55662 65.1897,7.79502c23.11893,-0.85095 31.79868,-14.8919 44.10859,-15.80552c29.72738,-2.20632 7.80545,7.80516 8.56887,18.09124c0.76341,10.28609 -22.71651,20.41318 -52.44387,22.61947c-4.99798,0.37094 -9.85434,0.49438 -14.47906,0.39416c-22.88264,-0.49591 -40.09432,-6.4672 -40.72939,-15.0239c-0.16437,-2.21454 -15.51117,-15.69633 -10.21484,-18.07049z" fill="#ffffff" stroke="#000000" stroke-linecap="butt"/><path d="M146.14304,214.92007c19.27204,3.22669 42.59113,1.6037 56.07662,-2.3636c17.92608,-5.2737 18.28664,-16.10478 28.8471,-16.88855c25.58619,-1.89895 -4.47455,17.95007 -4.03557,23.86458c0.43896,5.91452 -19.94689,12.24856 -45.53311,14.14751c-12.36071,0.91738 -29.77273,-1.20553 -42.87712,-7.33813c-14.02123,-6.56168 -23.34119,-17.28978 -23.56809,-20.34702c-0.12149,-1.6369 13.91211,6.04907 31.09016,8.92518z" fill="#e2e2e2" stroke="none" stroke-linecap="butt"/><path d="M115.02302,198.59811c9.11716,-4.08689 44.49838,8.55662 65.1897,7.79502c23.11893,-0.85095 31.79868,-14.8919 44.10859,-15.80552c29.72738,-2.20632 7.80545,7.80516 8.56887,18.09124c0.76341,10.28609 -22.71651,20.41318 -52.44387,22.61947c-4.99798,0.37094 -9.85434,0.49438 -14.47906,0.39416c-22.88264,-0.49591 -40.09432,-6.4672 -40.72939,-15.0239c-0.16437,-2.21454 -15.51117,-15.69633 -10.21484,-18.07049z" fill="none" stroke="#000000" stroke-linecap="butt"/><path d="M105.9225,201.15153c-0.62399,-8.40767 3.95632,-15.60092 10.23043,-16.06657c1.57231,-0.1167 -3.44169,6.28186 -1.02142,10.28696c1.8646,3.08559 0.34345,7.0432 2.16655,10.79056c2.19161,4.50494 7.85015,8.87684 11.86902,13.3365c5.61391,6.22969 26.18464,8.14307 26.38698,10.86903c0.12968,1.74732 60.06973,-11.47121 58.87581,-7.55875c-0.10468,0.34296 11.32599,-8.25685 15.65656,-18.90244c2.69665,-6.62899 -1.61471,-17.26907 -0.17815,-17.20533c2.55825,0.11353 6.99389,-17.36351 11.37132,-19.47845c2.87121,-1.38721 6.48456,10.71096 6.84129,14.64563c0.35956,3.96616 -12.33633,23.32588 -13.60567,29.85735c-1.74807,8.99486 1.86971,14.43971 -0.1598,15.21024c-17.90621,6.79818 -81.44609,19.53821 -84.57174,18.20404c-10.30697,-4.39945 -28.01355,-29.85769 -31.37102,-29.6085c-6.27412,0.46564 -11.86612,-5.97263 -12.49013,-14.38031z" fill="#840000" stroke="#000000" stroke-linecap="butt"/><path d="M104.23474,185.29462c-0.12585,-1.69556 12.0117,22.01384 26.90303,33.46399c12.21006,9.38847 28.0538,18.46285 33.83347,18.0339c12.82853,-0.95209 69.22819,-14.79531 69.45721,-11.70948c0.22902,3.08582 -53.60129,16.7751 -66.42981,17.72721c-3.43964,0.25529 -9.4128,2.98397 -19.08733,-2.08387c-7.84799,-4.11102 -15.30648,-13.04775 -23.40019,-20.25845c-4.31232,-3.84183 -10.40968,-6.40402 -13.28756,-9.23459c-9.89597,-9.73331 -11.72008,-24.42529 -11.81135,-25.65499z" fill="#430000" stroke="none" stroke-linecap="butt"/><path d="M106.23258,199.93485c-0.25404,-3.42269 -10.91876,-16.95565 -9.68463,-19.60389c1.79742,-3.85699 16.09558,4.3902 19.8155,4.11412c1.57231,-0.1167 -3.44169,6.28186 -1.02142,10.28696c1.91133,3.16285 -0.95252,7.66182 1.54132,12.37521c2.86387,5.41274 11.19537,11.11322 15.13049,15.47999c5.61394,6.22971 17.7081,5.20508 17.91041,7.93103c0.06807,0.91696 18.21572,-2.50517 35.27614,-5.39936c15.44945,-2.6209 30.00734,-4.80886 29.43994,-2.94958c-0.10466,0.34299 11.32599,-8.25685 15.65655,-18.90242c2.69666,-6.62895 -1.61471,-17.26904 -0.17816,-17.20529c2.25772,0.10021 5.20164,-19.09362 9.87667,-21.81767c4.0968,-2.38713 10.08983,11.28275 10.51043,15.92211c0.35956,3.96616 -14.51082,24.38861 -15.78019,30.92009c-1.74807,8.99486 1.86971,14.43971 -0.1598,15.21024c-17.90622,6.79815 -81.44609,19.53821 -84.57175,18.20401c-10.30695,-4.39947 -28.01353,-29.85768 -31.37102,-29.6085c-6.27412,0.46564 -11.86612,-5.97263 -12.49013,-14.38031z" fill="none" stroke="#000000" stroke-linecap="butt"/><path d="M136.92957,222.57352l-1.9627,-23.91594" fill="none" stroke="#000000" stroke-linecap="round"/><path d="M169.7609,207.19803l1.59409,18.94941" fill="none" stroke="#000000" stroke-linecap="round"/><path d="M203.31052,221.73279l-1.81425,-19.38705" fill="none" stroke="#000000" stroke-linecap="round"/><path d="M220.33978,193.22935l3.20704,17.92169" fill="none" stroke="#000000" stroke-linecap="round"/><path d="M94.98894,27.26506c12.8308,-0.95228 12.86198,12.85014 20.86282,20.79449c5.86101,5.81966 21.4675,4.23305 22.10095,12.76801c1.49815,20.1859 -15.30838,37.88732 -37.53844,39.53719c-22.23006,1.64987 -41.46559,-13.37656 -42.96373,-33.5625c-1.49815,-20.18593 15.30836,-37.88732 37.53842,-39.53719z" fill="#840000" stroke="#000000" stroke-linecap="butt"/><path d="M69.81368,57.08084c-3.04996,16.94565 7.92003,34.45438 17.65074,33.73217c19.78654,-1.46852 48.80171,-35.01159 49.9837,-19.08582c1.18197,15.92575 -13.90001,30.02661 -33.68656,31.49513c-13.39498,0.99414 -36.91628,-8.99272 -45.5307,-26.01022c-2.30739,-4.55813 0.99947,-27.87299 10.76632,-38.82101c7.6322,-8.55519 22.08914,-5.32508 21.92165,-7.58171c-0.60069,-8.09372 -17.95326,8.7596 -21.10514,26.27144z" fill="#430000" stroke="none" stroke-linecap="butt"/><path d="M95.29429,27.93712c12.62572,-0.93706 12.48345,12.7044 20.47622,20.4161c6.08006,5.86626 21.84027,4.42522 22.48753,13.14637c1.49815,20.18593 -15.30838,37.88732 -37.53844,39.53719c-22.23008,1.64988 -41.4656,-13.37658 -42.96375,-33.5625c-1.49815,-20.18593 15.30838,-37.88732 37.53844,-39.53719z" fill="none" stroke="#000000" stroke-linecap="butt"/><path d="M106.23523,194.44976l-1.0367,-13.96845c0,0 84.49661,-29.81394 107.66782,-31.53365c21.13301,-1.56845 25.80862,21.62731 25.80862,21.62731l1.0367,13.96845c0,0 -44.82681,9.74771 -67.23182,11.41056c-22.0825,1.63893 -66.24465,-1.50422 -66.24465,-1.50422z" fill="#ffffff" stroke="#000000" stroke-linecap="butt"/><path d="M171.44887,148.41958c38.98917,-2.89369 71.2622,3.73437 72.08378,14.80414c0.20993,2.82856 -2.60338,4.15032 -4.09004,6.92383c-0.90612,1.6905 1.0095,5.0926 -2.3573,6.30103c-5.49325,1.97167 -8.53949,-12.70096 -18.01535,-11.59753c-12.47857,1.45306 -32.26967,18.45676 -45.31662,19.42507c-15.28587,1.13448 -46.09595,7.68607 -57.70123,6.99028c-17.99601,-1.07899 -13.21237,-10.83384 -13.71184,-17.56367c-0.82157,-11.06977 30.11936,-22.38944 69.10858,-25.28314z" fill="#e2e2e2" stroke="none" stroke-linecap="butt"/><path d="M106.23519,194.44973l-1.0367,-13.96845c0,0 85.32158,-27.73489 109.95436,-29.56308c15.71639,-1.16646 23.52207,19.65673 23.52207,19.65673l1.0367,13.96845c0,0 -45.77853,10.53179 -67.88862,12.17275c-22.37884,1.66091 -65.58782,-2.26641 -65.58782,-2.26641z" fill="none" stroke="#000000" stroke-linecap="butt"/><path d="M165.19555,47.24643c44.57309,-3.30811 83.22342,27.92013 86.32796,69.75025c1.57772,21.25794 7.30725,42.01985 -7.22158,52.01389c-6.60797,4.54547 -15.50576,-12.99283 -27.58254,-11.73006c-13.61967,1.42406 -30.71181,21.38449 -42.3305,22.2468c-20.61845,1.53026 -59.3731,9.99075 -74.05348,3.52583c-17.05578,-7.51103 -8.55684,-31.59619 -10.22529,-54.07669c-3.10454,-41.83011 30.51235,-78.42187 75.08541,-81.72999z" fill="#840000" stroke="#000000" stroke-linecap="butt"/><path d="M190.99932,99.1443c22.97228,-1.70495 20.31258,17.75651 21.076,28.0426c0.76341,10.28609 -17.24042,20.00676 -40.2127,21.71171c-22.97228,1.70495 -79.01205,16.20684 -79.77545,5.92077c-0.24055,-3.24118 -7.75995,-40.20395 4.30433,-67.91186c5.5769,-12.8084 30.38093,-25.98263 35.0257,-28.72783c7.01537,-4.14631 -30.64293,32.58684 -34.97391,60.96816c-2.41114,15.8004 26.38767,25.95484 28.89521,32.35889c3.07775,7.86037 13.84156,-22.33008 25.72873,-35.76295c3.67018,-4.1474 0.84126,-14.59005 1.90755,-14.66918c0,0 12.12869,8.83319 18.31605,8.51907c6.47447,-0.32869 19.70849,-10.4494 19.70849,-10.4494z" fill="#430000" stroke="none" stroke-linecap="butt"/><path d="M165.14948,46.62563c44.57309,-3.30811 83.22342,27.92013 86.32796,69.75025c1.57772,21.25794 7.30725,42.01985 -7.22158,52.01389c-5.82552,4.00724 -13.42298,-14.94752 -23.80347,-13.61449c-14.67325,1.8843 -33.27097,23.17836 -46.10956,24.13122c-20.61845,1.53026 -59.3731,9.99075 -74.05348,3.52583c-17.05578,-7.51103 -8.55684,-31.59619 -10.22529,-54.07669c-3.10454,-41.83011 30.51235,-78.42187 75.08541,-81.72999z" fill="none" stroke="#000000" stroke-linecap="butt"/><path d="M107.3385,97.89283c4.56585,-0.33887 23.36578,18.97612 31.71096,15.49083c8.33005,-3.47896 9.95845,-19.55088 15.54266,-18.40425c10.0368,2.06089 8.56989,20.79713 8.98521,26.39334c0.87794,11.829 10.75386,23.85937 -6.56107,25.14442c-17.31494,1.28507 -55.79014,9.48028 -56.66807,-2.34875c-0.87794,-11.829 -10.3246,-44.99055 6.99033,-46.27561z" fill="#000000" stroke="#000000" stroke-linecap="butt"/><path d="M241.92474,135.53364c0.87794,11.829 -38.38553,9.40342 -55.70046,10.68851c-17.31494,1.28507 -9.32315,-12.07138 -10.20108,-23.90039c-0.593,-7.98997 -0.39618,-16.87217 15.04046,-19.68601c7.41702,-1.35201 27.26137,-9.60923 32.88084,-10.02629c17.31494,-1.28507 17.10231,31.09515 17.98025,42.92418z" data-paper-data="{&quot;index&quot;:null}" fill="#000000" stroke="#000000" stroke-linecap="butt"/><path d="M100.27931,152.20377c13.10439,-5.06991 44.15345,-4.39056 67.62802,-6.13278c25.19102,-1.86963 54.62526,-7.26285 68.14996,-3.64684c8.19698,2.19155 6.58891,18.17825 6.85778,21.80105c0.40429,5.44725 -7.56716,-11.77108 -23.98531,-9.08659c-12.5176,2.04675 -30.93974,24.39935 -48.44216,25.69834c-17.94163,1.33158 -48.53884,5.18474 -61.46393,3.58925c-16.22122,-2.00237 -12.68648,-10.19223 -13.08302,-15.53526c-0.29911,-4.03013 -5.14246,-13.01905 4.33869,-16.68717z" fill="#7d3c3c" stroke="#000000" stroke-linecap="butt"/><path d="M123.52267,147.82855c6.77661,-0.50295 -8.08963,2.76195 -15.30649,8.92688c-7.11168,6.07511 -6.59105,15.04154 1.96267,15.90366c23.29705,2.34808 82.93516,-18.82974 114.5589,-22.18715c17.1175,-1.81729 18.51336,12.4843 18.60696,13.74539c0.20027,2.69836 -9.55273,-11.24745 -23.38942,-8.46351c-13.41509,2.69906 -30.59303,22.14571 -51.01571,23.66145c-41.48724,3.07909 -75.43904,1.26696 -75.83348,-4.04753c-0.39443,-5.31451 -11.07064,-24.4601 30.41661,-27.53919z" fill="#5c2c2c" stroke="none" stroke-linecap="butt"/><path d="M101.4288,150.86997c13.10439,-5.06991 44.15345,-4.39056 67.62802,-6.13278c25.19102,-1.86963 54.62526,-7.26285 68.14996,-3.64684c8.19698,2.19155 6.58891,18.17825 6.85778,21.80105c0.42801,5.76675 -6.99151,-10.7716 -25.10971,-8.0461c-12.04451,1.81185 -31.16189,23.45881 -47.31777,24.65786c-17.94163,1.33158 -48.53884,5.18474 -61.46393,3.58925c-16.22122,-2.00237 -12.68648,-10.19223 -13.08302,-15.53526c-0.29911,-4.03013 -5.14246,-13.01905 4.33869,-16.68717z" fill="none" stroke="#000000" stroke-linecap="butt"/><path d="M148.23152,125.79442c1.24164,-0.09214 1.33381,1.1495 1.33381,1.1495c0.15359,2.06943 0.39933,5.38043 0.5529,7.44984c0,0 0.09214,1.24164 -1.1495,1.33381c-1.24164,0.09214 -1.33381,-1.1495 -1.33381,-1.1495c-0.15359,-2.06943 -0.30719,-4.13879 -0.46076,-6.20822l-0.09214,-1.24164c0,0 -0.09214,-1.24164 1.1495,-1.33381z" fill="#ffffff" stroke="none" stroke-linecap="butt"/><path d="M190.88384,120.13191c1.24164,-0.09214 1.33381,1.1495 1.33381,1.1495l0.04608,0.62082c0.26189,3.52874 -0.14047,7.22257 0.16245,10.60002c0,0 0.09214,1.24164 -1.1495,1.33381c-1.24164,0.09214 -1.33381,-1.1495 -1.33381,-1.1495c-0.21825,-3.46237 0.1038,-7.01236 -0.16245,-10.60002l-0.04608,-0.62082c0,0 -0.09214,-1.24164 1.1495,-1.33381z" fill="#ffffff" stroke="none" stroke-linecap="butt"/><path d="M171.33758,141.78628c12.94334,-0.96063 23.74542,2.42986 24.1271,7.57294c0.3817,5.14305 -9.80149,10.09105 -22.74484,11.05166c-12.94334,0.96063 -23.74542,-2.42986 -24.1271,-7.57294c-0.3817,-5.14305 9.80149,-10.09105 22.74484,-11.05166z" fill="#000000" stroke="#000000" stroke-linecap="butt"/><path d="M178.14753,39.5716c1.5447,-3.80648 9.82673,-12.85549 12.84545,-25.55662c5.40622,-22.74641 6.84031,-53.0115 14.25131,-56.0272c7.03367,-2.86213 11.21555,10.35687 21.44519,16.69475c12.49957,7.74426 30.957,9.44381 36.41644,11.6593c3.42595,1.39029 24.39026,-6.56962 25.24321,-2.83419c1.69706,7.43223 -12.82227,21.67746 -21.61563,36.23913c-9.05754,14.99914 -12.48158,30.35672 -16.60754,40.5239c-10.14486,24.99886 -26.63899,17.32196 -43.90279,10.31612c-17.26378,-7.00585 -38.22048,-6.01639 -28.07561,-31.01523z" fill="#410000" stroke="#000000" stroke-linecap="butt"/><path d="M190.96324,18.53294c3.13898,-7.73506 1.95718,-68.47296 19.66935,-61.28512c10.85948,4.40694 -13.60197,40.77202 -4.00331,64.27069c6.05708,14.82844 49.6899,20.05129 48.47542,23.04391c-3.13901,7.73506 -20.0422,8.17868 -37.75439,0.99085c-17.71218,-7.18784 -29.52609,-19.28526 -26.38709,-27.02033z" fill="#170000" stroke="none" stroke-linecap="butt"/><path d="M178.04661,39.33269c1.54468,-3.80647 9.8267,-12.85545 12.84543,-25.55662c5.40622,-22.74641 6.84031,-53.0115 14.25131,-56.0272c6.93892,-2.8236 10.361,10.90011 20.45712,17.10655c12.64259,7.77187 31.88492,9.00757 37.4045,11.24751c3.42595,1.39029 24.39023,-6.56962 25.24317,-2.83419c1.69709,7.43222 -12.82226,21.67745 -21.61563,36.23913c-9.05755,14.99917 -12.48158,30.35672 -16.60754,40.5239c-10.14486,24.99886 -26.63899,17.32196 -43.90279,10.31612c-17.26379,-7.00588 -38.22048,-6.01639 -28.07561,-31.01523z" fill="none" stroke="#000000" stroke-linecap="butt"/><path d="M260.48419,77.66044c-2.6387,6.50224 -0.09843,18.58488 -14.60113,16.62869c-8.6445,-1.16604 -32.05269,-13.67588 -42.19417,-17.79141c-11.57071,-4.69553 -33.87947,-12.60958 -41.24078,-18.57382c-9.91521,-8.03341 -2.72033,-14.21484 -0.30331,-20.17087c2.19201,-5.40154 6.89994,-14.26869 17.83917,-13.82164c10.07837,0.41188 25.93443,9.70003 38.95613,14.98439c11.84617,4.80734 37.25137,11.14557 44.65784,17.25706c9.5718,7.89823 -0.73946,15.63684 -3.11375,21.48759z" data-paper-data="{&quot;index&quot;:null}" fill="#410000" stroke="#000000" stroke-linecap="butt"/><path d="M184.48929,26.30803c7.09798,0.137 49.28353,15.94856 67.3324,25.19557c14.66923,7.51555 12.64208,9.46102 16.55051,11.04712c1.72671,0.70072 2.96191,13.79732 -3.74512,10.99971c-8.91377,-3.71806 -5.78498,-11.43448 -19.73564,-19.27755c-15.28749,-8.59466 -53.72713,-19.64823 -61.9701,-19.33454c-5.23656,0.19928 -9.17148,2.58253 -11.83792,5.48925c-3.45549,3.76691 -4.7807,8.41294 -4.04757,10.32402c3.88919,10.13846 89.65757,36.49989 88.05396,40.45152c-3.09351,7.62296 -41.82171,-7.98832 -63.00906,-16.58643c-21.18734,-8.59813 -35.85532,-21.74789 -32.76184,-29.37085c1.82074,-4.48659 6.76434,-19.29304 25.17037,-18.93782z" fill="#170000" stroke="none" stroke-linecap="butt"/><path d="M260.70059,78.17238c-2.6387,6.50224 -0.09842,18.58485 -14.60113,16.62869c-8.6445,-1.16599 -32.05269,-13.67588 -42.1942,-17.79142c-11.57071,-4.69553 -33.87943,-12.60958 -41.24078,-18.57382c-9.91521,-8.03341 -2.72033,-14.21484 -0.30331,-20.17087c2.192,-5.40151 6.89996,-14.26868 17.83917,-13.82164c10.07837,0.41186 25.93443,9.70003 38.95613,14.98439c11.84617,4.80734 37.25137,11.14557 44.65785,17.25709c9.5718,7.89823 -0.73946,15.63684 -3.11375,21.48759z" data-paper-data="{&quot;index&quot;:null}" fill="none" stroke="#000000" stroke-linecap="butt"/><path d="M135.20292,183.92687l0.84253,11.35215" fill="none" stroke="#000000" stroke-linecap="round"/><path d="M170.98044,180.55815l1.05317,14.19021" fill="none" stroke="#000000" stroke-linecap="round"/><path d="M208.87549,191.3006l-3.1706,-28.30141" fill="none" stroke="#000000" stroke-linecap="round"/><path d="M125.63257,107.10494l5.9075,-12.92324l-23.22498,-10.13685l9.47237,-6.94542l-1.2198,-8.02459" fill="none" stroke="#000000" stroke-linecap="round"/><path d="M172.81554,165.10988l1.03815,9.52603" fill="none" stroke="#000000" stroke-linecap="round"/></g><g stroke-linecap="butt"><path d="M-89.07208,602.91952c0,-24.10606 36.22085,-43.64791 80.90154,-43.64791c44.68069,0 80.90152,19.54181 80.90152,43.64791c0,12.02413 -0.67143,26.2488 -15.2499,34.14298c-14.64854,7.93213 -43.25771,9.50493 -65.65164,9.50493c-23.99475,0 -62.23045,-0.07562 -77.04602,-9.02758c-12.77253,-7.71751 -3.85552,-23.45987 -3.85552,-34.62033z" fill="#840000" stroke="#000000"/><path d="M-90.70109,626.03367c0,-4.19116 16.0552,5.69078 47.24926,7.96029c33.45357,2.43389 82.81614,-2.8023 102.25122,-10.16823c8.71071,-3.30137 6.30252,-18.39401 -3.34327,-30.92184c-10.51983,-13.66305 -28.48965,-24.69676 -20.77374,-24.69676c45.29485,0 38.64368,44.929 38.64368,57.82651c0,12.89751 -36.71873,23.35302 -82.01357,23.35302c-45.29485,0 -82.0136,-10.45551 -82.0136,-23.35302z" fill="#430000" stroke="none"/><path d="M-132.70859,613.19756c0,-24.10608 16.26437,-43.64791 36.32743,-43.64791c20.06309,0 36.32743,19.54181 36.32743,43.64791c0,12.02413 -0.3015,26.2488 -6.84768,34.14298c-6.57768,7.93213 -19.42415,9.50493 -29.47975,9.50493c-10.77442,0 -27.9435,-0.07562 -34.59618,-9.02758c-5.7353,-7.71751 -1.73128,-23.4599 -1.73128,-34.62033z" fill="#840000" stroke="#000000"/><path d="M-6.4634,560.42279c44.68069,0 80.90154,19.54183 80.90154,43.64791c0,12.02413 -0.67146,26.2488 -15.2499,34.14298c-14.64854,7.93213 -43.25771,9.50493 -65.65164,9.50493c-23.99475,0 -62.23043,-0.0756 -77.04602,-9.02755c-12.77253,-7.71751 -3.85552,-23.45992 -3.85552,-34.62036c0,-24.10608 36.22085,-43.64791 80.90154,-43.64791z" fill="none" stroke="#000000"/><path d="M-133.44004,636.31164c0,-4.19116 7.20932,5.69075 21.21648,7.96027c15.02175,2.43389 37.18714,-2.80227 45.91414,-10.16818c3.91139,-3.30137 2.83004,-18.39401 -1.50124,-30.92184c-4.72374,-13.66305 -12.79278,-24.69676 -9.32809,-24.69676c20.33887,0 17.35227,44.92903 17.35227,57.82654c0,12.89754 -16.48791,23.35302 -36.82677,23.35302c-20.33887,0 -36.82677,-10.45551 -36.82677,-23.35302z" fill="#430000" stroke="none"/><path d="M-131.94204,614.34867c0,-24.10608 16.26434,-43.64791 36.32743,-43.64791c20.06309,0 36.32743,19.54186 36.32743,43.64791c0,12.02413 -0.3015,26.2488 -6.84768,34.14298c-6.57768,7.93215 -19.42412,9.50491 -29.47972,9.50491c-10.77442,0 -27.9435,-0.0756 -34.59618,-9.02755c-5.7353,-7.71751 -1.73125,-23.4599 -1.73125,-34.62033z" fill="none" stroke="#000000"/><path d="M-30.15682,611.72551c0,-24.10608 16.26437,-43.64791 36.32743,-43.64791c20.06309,0 36.32743,19.54181 36.32743,43.64791c0,12.02413 -0.3015,26.2488 -6.84768,34.14298c-6.57768,7.93213 -19.42415,9.50493 -29.47975,9.50493c-10.77442,0 -27.9435,-0.07562 -34.59618,-9.02758c-5.7353,-7.71751 -1.73128,-23.4599 -1.73128,-34.62033z" fill="#840000" stroke="#000000"/><path d="M-30.88826,634.83961c0,-4.19116 7.20932,5.69075 21.21648,7.96027c15.02175,2.43389 37.18714,-2.80227 45.91414,-10.16818c3.91139,-3.30137 2.83004,-18.39401 -1.50124,-30.92184c-4.72374,-13.66305 -12.79278,-24.69676 -9.32809,-24.69676c20.33887,0 17.35227,44.92903 17.35227,57.82654c0,12.89754 -16.48791,23.35302 -36.82677,23.35302c-20.33887,0 -36.82677,-10.45551 -36.82677,-23.35302z" fill="#430000" stroke="none"/><path d="M-29.39026,612.87661c0,-24.10608 16.26434,-43.64791 36.32743,-43.64791c20.06309,0 36.32743,19.54186 36.32743,43.64791c0,12.02413 -0.3015,26.2488 -6.84768,34.14298c-6.57768,7.93215 -19.42412,9.50491 -29.47972,9.50491c-10.77442,0 -27.9435,-0.0756 -34.59618,-9.02755c-5.7353,-7.71751 -1.73125,-23.4599 -1.73125,-34.62033z" fill="none" stroke="#000000"/><path d="M-87.07551,611.23483c0,-24.10608 16.26437,-43.64791 36.32743,-43.64791c20.06309,0 36.32743,19.54181 36.32743,43.64791c0,12.02413 -0.3015,26.2488 -6.84768,34.14298c-6.57768,7.93213 -19.42415,9.50493 -29.47975,9.50493c-10.77442,0 -27.9435,-0.07562 -34.59618,-9.02758c-5.7353,-7.71751 -1.73128,-23.4599 -1.73128,-34.62033z" fill="#840000" stroke="#000000"/><path d="M-87.80696,634.34893c0,-4.19116 7.20932,5.69075 21.21648,7.96027c15.02175,2.43389 37.18714,-2.80227 45.91414,-10.16818c3.91139,-3.30137 2.83004,-18.39401 -1.50124,-30.92184c-4.72374,-13.66305 -12.79278,-24.69676 -9.32809,-24.69676c20.33887,0 17.35227,44.92903 17.35227,57.82654c0,12.89754 -16.48791,23.35302 -36.82677,23.35302c-20.33887,0 -36.82677,-10.45551 -36.82677,-23.35302z" fill="#430000" stroke="none"/><path d="M-86.30896,612.38596c0,-24.10608 16.26434,-43.64791 36.32743,-43.64791c20.06309,0 36.32743,19.54186 36.32743,43.64791c0,12.02413 -0.3015,26.2488 -6.84768,34.14298c-6.57768,7.93215 -19.42412,9.50491 -29.47972,9.50491c-10.77442,0 -27.9435,-0.0756 -34.59618,-9.02755c-5.7353,-7.71751 -1.73125,-23.4599 -1.73125,-34.62033z" fill="none" stroke="#000000"/></g><g data-paper-data="{&quot;index&quot;:null}" stroke-linecap="butt"><path d="M262.26771,607.27722c0,11.16046 8.91702,26.90283 -3.85552,34.62033c-14.81557,8.95195 -53.05127,9.02758 -77.04602,9.02758c-22.39393,0 -51.00311,-1.5728 -65.65164,-9.50493c-14.57846,-7.89418 -15.2499,-22.11885 -15.2499,-34.14298c0,-24.10611 36.22083,-43.64791 80.90152,-43.64791c44.68069,0 80.90154,19.54186 80.90154,43.64791z" fill="#840000" stroke="#000000"/><path d="M263.89671,630.39134c0,12.89751 -36.71875,23.35302 -82.0136,23.35302c-45.29485,0 -82.01357,-10.45551 -82.01357,-23.35302c0,-12.89751 -6.65117,-57.82651 38.64368,-57.82651c7.71591,0 -10.25391,11.03371 -20.77374,24.69676c-9.6458,12.52783 -12.05399,27.62048 -3.34327,30.92184c19.43508,7.36593 68.79765,12.60211 102.25122,10.16823c31.19406,-2.26951 47.24926,-12.15145 47.24926,-7.96029z" fill="#430000" stroke="none"/><path d="M305.90421,617.55526c0,11.16044 4.00403,26.90283 -1.73128,34.62033c-6.65268,8.95195 -23.82176,9.02758 -34.59618,9.02758c-10.0556,0 -22.90206,-1.5728 -29.47975,-9.50493c-6.54618,-7.89418 -6.84768,-22.11885 -6.84768,-34.14298c0,-24.10611 16.26434,-43.64791 36.32743,-43.64791c20.06306,0 36.32743,19.54183 36.32743,43.64791z" fill="#840000" stroke="#000000"/><path d="M260.56053,608.4284c0,11.16044 8.91702,26.90285 -3.85552,34.62036c-14.8156,8.95195 -53.05127,9.02755 -77.04602,9.02755c-22.39393,0 -51.00311,-1.5728 -65.65164,-9.50493c-14.57844,-7.89418 -15.2499,-22.11885 -15.2499,-34.14298c0,-24.10608 36.22085,-43.64791 80.90154,-43.64791c44.68069,0 80.90154,19.54183 80.90154,43.64791z" fill="none" stroke="#000000"/><path d="M306.63561,640.66936c0,12.89751 -16.48791,23.35302 -36.82677,23.35302c-20.33887,0 -36.82677,-10.45548 -36.82677,-23.35302c0,-12.89751 -2.98659,-57.82654 17.35227,-57.82654c3.46469,0 -4.60434,11.03371 -9.32809,24.69676c-4.33128,12.52783 -5.41263,27.62048 -1.50124,30.92184c8.727,7.3659 30.89239,12.60206 45.91414,10.16818c14.00716,-2.26951 21.21648,-12.15143 21.21648,-7.96027z" fill="#430000" stroke="none"/><path d="M305.13761,618.70637c0,11.16044 4.00405,26.90283 -1.73125,34.62033c-6.65268,8.95195 -23.82176,9.02755 -34.59618,9.02755c-10.0556,0 -22.90204,-1.57276 -29.47972,-9.50491c-6.54618,-7.89418 -6.84768,-22.11885 -6.84768,-34.14298c0,-24.10606 16.26434,-43.64791 36.32743,-43.64791c20.06309,0 36.32743,19.54183 36.32743,43.64791z" fill="none" stroke="#000000"/><path d="M203.35244,616.08321c0,11.16044 4.00403,26.90283 -1.73128,34.62033c-6.65268,8.95195 -23.82176,9.02758 -34.59618,9.02758c-10.0556,0 -22.90206,-1.5728 -29.47975,-9.50493c-6.54618,-7.89418 -6.84768,-22.11885 -6.84768,-34.14298c0,-24.10611 16.26434,-43.64791 36.32743,-43.64791c20.06306,0 36.32743,19.54183 36.32743,43.64791z" fill="#840000" stroke="#000000"/><path d="M204.08384,639.19733c0,12.89751 -16.48791,23.35302 -36.82677,23.35302c-20.33887,0 -36.82677,-10.45548 -36.82677,-23.35302c0,-12.89751 -2.98659,-57.82654 17.35227,-57.82654c3.46469,0 -4.60434,11.03371 -9.32809,24.69676c-4.33128,12.52783 -5.41263,27.62048 -1.50124,30.92184c8.727,7.3659 30.89239,12.60206 45.91414,10.16818c14.00716,-2.26951 21.21648,-12.15143 21.21648,-7.96027z" fill="#430000" stroke="none"/><path d="M202.58583,617.23431c0,11.16044 4.00405,26.90283 -1.73125,34.62033c-6.65268,8.95195 -23.82176,9.02755 -34.59618,9.02755c-10.0556,0 -22.90204,-1.57276 -29.47972,-9.50491c-6.54618,-7.89418 -6.84768,-22.11885 -6.84768,-34.14298c0,-24.10606 16.26434,-43.64791 36.32743,-43.64791c20.06309,0 36.32743,19.54183 36.32743,43.64791z" fill="none" stroke="#000000"/><path d="M260.27113,615.59253c0,11.16044 4.00403,26.90283 -1.73128,34.62033c-6.65268,8.95195 -23.82176,9.02758 -34.59618,9.02758c-10.0556,0 -22.90206,-1.5728 -29.47975,-9.50493c-6.54618,-7.89418 -6.84768,-22.11885 -6.84768,-34.14298c0,-24.10611 16.26434,-43.64791 36.32743,-43.64791c20.06306,0 36.32743,19.54183 36.32743,43.64791z" fill="#840000" stroke="#000000"/><path d="M261.00253,638.70665c0,12.89751 -16.48791,23.35302 -36.82677,23.35302c-20.33887,0 -36.82677,-10.45548 -36.82677,-23.35302c0,-12.89751 -2.98659,-57.82654 17.35227,-57.82654c3.46469,0 -4.60434,11.03371 -9.32809,24.69676c-4.33128,12.52783 -5.41263,27.62048 -1.50124,30.92184c8.727,7.3659 30.89239,12.60206 45.91414,10.16818c14.00716,-2.26951 21.21648,-12.15143 21.21648,-7.96027z" fill="#430000" stroke="none"/><path d="M259.50453,616.74366c0,11.16044 4.00405,26.90283 -1.73125,34.62033c-6.65268,8.95195 -23.82176,9.02755 -34.59618,9.02755c-10.0556,0 -22.90204,-1.57276 -29.47972,-9.50491c-6.54618,-7.89418 -6.84768,-22.11885 -6.84768,-34.14298c0,-24.10606 16.26434,-43.64791 36.32743,-43.64791c20.06309,0 36.32743,19.54183 36.32743,43.64791z" fill="none" stroke="#000000"/></g></g></g></svg>