<svg version="1.1" xmlns="http://www.w3.org/2000/svg" xmlns:xlink="http://www.w3.org/1999/xlink" width="90.594" height="74.69123" viewBox="0,0,90.594,74.69123"><defs><linearGradient x1="240" y1="131.79279" x2="240" y2="205.84565" gradientUnits="userSpaceOnUse" id="color-1"><stop offset="0" stop-color="#272727"/><stop offset="1" stop-color="#1d1d1d"/></linearGradient></defs><g transform="translate(-194.703,-131.15442)"><g data-paper-data="{&quot;isPaintingLayer&quot;:true}" fill-rule="nonzero" stroke="none" stroke-linecap="butt" stroke-linejoin="miter" stroke-miterlimit="10" stroke-dasharray="" stroke-dashoffset="0" style="mix-blend-mode: normal"><g><path d="M195.12048,205.84565l-0.41748,-57.77397l78.90445,-16.91726l11.68955,62.56189c0,0 -26.96604,6.38386 -28.38891,6.38386c-8.19438,0 -61.78762,5.74548 -61.78762,5.74548z" fill="url(#color-1)" stroke-width="NaN"/><path d="M220.35215,183.81688l13.8504,-32.20073l26.39111,32.97358l-23.25541,1.38701z" fill="#722020" stroke-width="0"/><path d="M237.70384,174.23428c2.76684,0 5.00981,1.84948 5.00981,4.13094c0,2.28146 -2.24297,4.13094 -5.00981,4.13094c-2.76684,0 -5.00981,-1.84948 -5.00981,-4.13094c0,-2.28146 2.24297,-4.13094 5.00981,-4.13094z" fill="#ffffff" stroke-width="0"/><path d="M236.45138,159.48089c1.61399,0 2.92239,2.9724 2.92239,6.63901c0,3.66661 -1.3084,6.63901 -2.92239,6.63901c-1.61398,0 -2.92238,-2.9724 -2.92238,-6.63901c0,-3.66661 1.30839,-6.63901 2.92238,-6.63901z" fill="#ffffff" stroke-width="0"/></g></g></g></svg>