<svg version="1.1" xmlns="http://www.w3.org/2000/svg" xmlns:xlink="http://www.w3.org/1999/xlink" width="470.70999" height="683.18206" viewBox="0,0,470.70999,683.18206"><g transform="translate(162.63248,62.50563)"><g data-paper-data="{&quot;isPaintingLayer&quot;:true}" fill-rule="nonzero" stroke-linejoin="miter" stroke-miterlimit="10" stroke-dasharray="" stroke-dashoffset="0" style="mix-blend-mode: normal"><g data-paper-data="{&quot;index&quot;:null}" stroke-width="7.5"><path d="M172.59924,212.65422c20.66576,0 78.45103,104.1664 78.45103,117.55884c0,13.39241 -20.78889,38.764 -41.45467,38.764c-20.6658,0 -74.41506,-118.68126 -74.41506,-132.07369c0,-6.64673 -6.95698,-14.21247 -0.27356,-18.59274c6.7829,-4.44552 27.28297,-5.65634 37.69222,-5.65634z" fill="#ffffff" stroke="#000000" stroke-linecap="butt"/><path d="M223.39992,348.12907c21.54701,0 28.92443,-41.92146 28.92443,-20.73548c0,21.186 -20.83066,40.41874 -42.37765,40.41874c-21.54706,0 -73.99274,-106.32183 -73.99274,-127.50783c0,-13.97808 25.32303,46.75658 51.03085,83.35185c13.25653,18.87069 29.08429,24.47274 36.41507,24.47274z" fill="#e2e2e2" stroke="none" stroke-linecap="butt"/><path d="M172.59928,213.96691c20.66576,0 78.45103,104.16643 78.45103,117.55884c0,13.39241 -20.78889,38.76398 -41.45469,38.76398c-20.66578,0 -74.41506,-118.68124 -74.41506,-132.07367c0,-7.10591 -8.83016,-16.07055 -1.31541,-20.50574c6.64829,-3.9238 29.03341,-3.74338 38.73412,-3.74338z" fill="none" stroke="#000000" stroke-linecap="butt"/><path d="M164.76609,299.13245l57.26496,-29.32805" fill="none" stroke="#000000" stroke-linecap="round"/></g><g stroke-width="7.5"><path d="M-17.63627,211.39509c10.40927,0 30.90934,1.21085 37.69224,5.65636c6.68342,4.38029 -0.27356,11.94603 -0.27356,18.59276c0,13.39243 -53.74928,132.07367 -74.41506,132.07367c-20.6658,0 -41.45469,-25.37157 -41.45469,-38.76398c0,-13.39243 57.78525,-117.55884 78.45103,-117.55884z" fill="#ffffff" stroke="#000000" stroke-linecap="butt"/><path d="M-68.43696,346.86993c7.33076,0 23.15856,-5.60205 36.41509,-24.47274c25.70785,-36.59525 51.03085,-97.3299 51.03085,-83.35185c0,21.186 -52.44566,127.50785 -73.99272,127.50785c-21.54701,0 -42.37765,-19.23277 -42.37765,-40.41877c0,-21.18598 7.37739,20.73546 28.92441,20.73546z" fill="#e2e2e2" stroke="none" stroke-linecap="butt"/><path d="M-17.63632,212.70775c9.70071,0 32.08582,-0.18042 38.73412,3.74338c7.51477,4.4352 -1.31541,13.39986 -1.31541,20.50574c0,13.39243 -53.74928,132.07367 -74.41506,132.07367c-20.6658,0 -41.45469,-25.37155 -41.45469,-38.76396c0,-13.39243 57.78525,-117.55884 78.45103,-117.55884z" fill="none" stroke="#000000" stroke-linecap="butt"/><path d="M-9.80317,297.87329l-57.26496,-29.32805" fill="none" stroke="#000000" stroke-linecap="round"/></g><g stroke-width="7.5"><path d="M-22.52617,335.08015c0,-33.93122 31.17591,-107.69351 58.75091,-137.38579c17.61771,-18.97048 29.26049,-2.75078 45.05392,-2.75078c17.7239,0 38.38033,-8.95709 55.23259,15.98597c21.66846,32.0715 37.49977,102.55765 37.49977,133.83904c0,55.60994 -52.21926,51.5564 -92.73233,51.5564c-40.51308,0 -103.80485,-5.6349 -103.80485,-61.24486z" fill="#ffffff" stroke="#000000" stroke-linecap="butt"/><path d="M78.90988,178.04212c34.01571,0 62.97495,13.35339 62.97495,34.94762c0,0.96053 19.65959,18.38629 -5.10141,24.1554c-10.72243,2.49824 -28.91525,-10.52795 -48.81942,-10.09347c-24.53727,0.53559 -50.95606,14.69398 -60.51299,21.21351c-41.07039,28.01744 -38.72983,71.48243 -33.73124,77.34029c8.18639,9.59365 5.92073,30.93258 21.09442,37.89038c58.41322,26.78502 164.87141,22.15596 142.98737,22.15596c-17.96247,0 -127.95309,25.80027 -161.79727,-9.85488c-10.37538,-10.93053 -18.8594,-30.44671 -16.43578,-49.96498c4.64182,-37.3825 30.83016,-78.46559 30.83016,-85.16093c0,-21.59423 34.49551,-62.62894 68.51121,-62.62894z" fill="#e2e2e2" stroke="none" stroke-linecap="butt"/><path d="M36.62406,196.70961c17.61771,-18.97046 29.26051,-2.75076 45.05394,-2.75076c17.7239,0 38.38033,-8.95709 55.23259,15.98597c21.66846,32.0715 37.49977,102.55765 37.49977,133.83904c0,55.60994 -52.21926,51.55642 -92.73233,51.55642c-40.51308,0 -103.80485,-5.63492 -103.80485,-61.24486c0,-33.93122 31.17594,-107.69351 58.75091,-137.38579z" fill="none" stroke="#000000" stroke-linecap="butt"/><path d="M167.49004,298.45573l-29.7574,2.76812l-29.7574,7.61235l-38.06178,1.38406l-38.75381,-2.76812l-20.76097,-10.38049l-24.22112,-2.07609" fill="none" stroke="#000000" stroke-linecap="round"/><g stroke-linecap="butt"><path d="M81.79984,248.44197c7.52565,0 13.62637,5.6726 13.62637,12.67013c0,6.99753 -6.10076,12.67015 -13.62637,12.67015c-7.52565,0 -13.62637,-5.67262 -13.62637,-12.67015c0,-6.99751 6.10076,-12.67013 13.62637,-12.67013z" fill="#333333" stroke="#000000"/><path d="M73.798,252.4579c2.93425,0 2.26389,8.5722 5.82536,10.98143c4.77158,3.22783 13.46621,0.73592 13.46621,2.85273c0,3.69679 -5.56558,6.69365 -12.43108,6.69365c-6.8655,0 -12.43108,-2.99686 -12.43108,-6.69365c0,-3.69679 -1.29492,-13.83416 5.57058,-13.83416z" fill="#141414" stroke="none"/><path d="M86.81895,249.21082c4.63953,0 8.40061,2.53873 8.40061,5.67041c0,3.13168 -3.76109,5.67041 -8.40061,5.67041c-4.63953,0 -8.40061,-2.53873 -8.40061,-5.67041c0,-3.13168 3.76109,-5.67041 8.40061,-5.67041z" fill="#797979" stroke="none"/><path d="M82.07574,248.71785c7.52565,0 13.62637,5.67262 13.62637,12.67015c0,6.99753 -6.10076,12.67015 -13.62637,12.67015c-7.52565,0 -13.62637,-5.67262 -13.62637,-12.67015c0,-6.99753 6.10076,-12.67015 13.62637,-12.67015z" fill="none" stroke="#000000"/></g><g stroke-linecap="butt"><path d="M80.03479,286.15167c7.52563,0 13.62637,5.67262 13.62637,12.67013c0,6.99751 -6.10072,12.67013 -13.62637,12.67013c-7.52563,0 -13.62637,-5.67262 -13.62637,-12.67013c0,-6.99751 6.10072,-12.67013 13.62637,-12.67013z" fill="#333333" stroke="#000000"/><path d="M72.03298,290.1676c2.93425,0 2.26389,8.5722 5.82536,10.98143c4.7716,3.22783 13.46621,0.73592 13.46621,2.85273c0,3.69679 -5.56558,6.69365 -12.43108,6.69365c-6.8655,0 -12.43108,-2.99684 -12.43108,-6.69365c0,-3.69681 -1.29492,-13.83416 5.57058,-13.83416z" fill="#141414" stroke="none"/><path d="M85.05392,286.92053c4.63953,0 8.40059,2.53873 8.40059,5.67041c0,3.13168 -3.76104,5.67041 -8.40059,5.67041c-4.63953,0 -8.40061,-2.53873 -8.40061,-5.67041c0,-3.13168 3.76106,-5.67041 8.40061,-5.67041z" fill="#797979" stroke="none"/><path d="M80.31067,286.42757c7.52563,0 13.62637,5.67262 13.62637,12.67013c0,6.99751 -6.10072,12.67013 -13.62637,12.67013c-7.52563,0 -13.62637,-5.67262 -13.62637,-12.67013c0,-6.99751 6.10072,-12.67013 13.62637,-12.67013z" fill="none" stroke="#000000"/></g><g stroke-linecap="butt"><path d="M153.77358,221.84672c0,7.26179 -0.42187,47.75024 -19.72293,47.75024c-19.30106,0 -50.17234,-40.48847 -50.17234,-47.75024c0,-7.26179 30.8713,-42.21398 50.17234,-42.21398c19.30106,0 19.72293,34.95219 19.72293,42.21398z" data-paper-data="{&quot;index&quot;:null}" fill="#fbff00" stroke="#000000"/><path d="M154.75832,232.97254c0,9.74609 -4.25404,34.2556 -21.45298,34.2556c-17.19894,0 -40.8299,-24.50951 -40.8299,-34.2556c0,-5.81709 33.02891,34.82713 45.46127,21.6737c5.32933,-5.63842 9.63548,-22.13129 8.28098,-42.02544c-0.7797,-11.45164 -8.52505,-31.8967 -5.99204,-31.8967c17.19894,0 14.53266,42.50239 14.53266,52.24845z" data-paper-data="{&quot;index&quot;:null}" fill="#bcbf00" stroke="none"/><path d="M153.37424,222.24606c0,7.26179 -0.42187,47.75024 -19.72293,47.75024c-19.30104,0 -50.17234,-40.48845 -50.17234,-47.75024c0,-7.26179 30.8713,-42.21398 50.17234,-42.21398c19.30106,0 19.72293,34.95219 19.72293,42.21398z" data-paper-data="{&quot;index&quot;:null}" fill="none" stroke="#000000"/><path d="M25.84363,180.03208c19.30106,0 50.17236,34.95219 50.17236,42.21398c0,7.26179 -30.8713,47.75024 -50.17236,47.75024c-19.30106,0 -19.72293,-40.48845 -19.72293,-47.75024c0,-7.26177 0.42187,-42.21398 19.72293,-42.21398z" fill="#fbff00" stroke="#000000"/><path d="M19.66866,181.12342c2.53303,0 -5.21234,20.44506 -5.99204,31.8967c-1.3545,19.89417 2.95165,36.38702 8.28098,42.02544c12.43238,13.15343 45.46127,-27.49079 45.46127,-21.6737c0,9.74607 -23.63096,34.2556 -40.8299,34.2556c-17.19896,0 -21.453,-24.50953 -21.453,-34.2556c0,-9.74609 -2.66626,-52.24845 14.53269,-52.24845z" fill="#bcbf00" stroke="none"/><path d="M26.24296,180.43142c19.30104,0 50.17234,34.95219 50.17234,42.21398c0,7.26179 -30.8713,47.75024 -50.17234,47.75024c-19.30106,0 -19.72293,-40.48845 -19.72293,-47.75024c0,-7.26177 0.42189,-42.21398 19.72293,-42.21398z" fill="none" stroke="#000000"/><path d="M82.39565,201.48508c12.42145,0 22.49103,10.37941 22.49103,23.18308c0,12.80367 -10.06957,23.18308 -22.49103,23.18308c-12.42145,0 -22.49105,-10.37941 -22.49105,-23.18308c0,-12.80365 10.0696,-23.18308 22.49105,-23.18308z" fill="#fbff00" stroke="#000000"/><path d="M60.49856,229.56574c0,-9.555 1.61029,-27.68129 13.84066,-27.68129c3.83345,0 -6.25138,19.03819 -5.48945,27.61566c0.56193,6.32595 11.75795,10.53219 14.43331,13.26568c5.27055,5.38505 21.50555,-17.55138 21.50555,-13.20005c0,9.55498 -9.91467,17.30081 -22.14503,17.30081c-12.23036,0 -22.14503,-7.74583 -22.14503,-17.30081z" fill="#bcbf00" stroke="none"/><path d="M82.10294,201.8844c12.42145,0 22.49105,10.37941 22.49105,23.18308c0,12.80367 -10.0696,23.18308 -22.49105,23.18308c-12.42145,0 -22.49105,-10.37941 -22.49105,-23.18308c0,-12.80367 10.0696,-23.18308 22.49105,-23.18308z" fill="none" stroke="#000000"/></g></g><g stroke-width="7.5"><path d="M111.28816,-21.00998c10.60288,-12.415 19.05612,-36.47388 37.01918,-37.74565c21.00576,-1.48719 58.72761,1.87052 66.20175,19.40712c4.83854,11.35266 -17.37867,34.00635 -16.45603,47.03822c2.34787,33.16239 -6.63913,51.19636 -41.24334,53.64631c-34.60424,2.44995 -64.55985,-22.4474 -66.90771,-55.60979c-1.12909,-15.94779 11.56352,-15.23482 21.38614,-26.7362z" fill="#3a3a3a" stroke="#000000" stroke-linecap="butt"/><path d="M183.84074,-8.74072c17.24264,-8.26595 -19.81133,-49.89391 -9.8822,-50.59688c11.1732,-0.79105 38.10273,9.10935 42.2718,21.04707c5.00633,14.33509 -13.91637,31.59171 -13.56291,36.58412c0.16034,2.26477 -0.45524,15.49595 -0.50314,23.61641c-0.14562,24.68662 -2.39545,59.84056 -20.89913,61.1506c-24.59027,1.74097 -82.57079,-83.47289 -83.21859,-92.62276c-0.38623,-5.4553 60.3341,13.02675 85.7942,0.82146z" fill="#202020" stroke="none" stroke-linecap="butt"/><path d="M100.79665,-4.2602c-0.31685,-4.47539 7.77611,-9.45668 9.22985,-12.9316c1.58032,-3.77754 -3.0543,-5.8904 7.76808,-6.65661c7.35737,-0.5209 66.77601,6.21725 77.69265,14.62264c8.02167,6.17634 5.42595,15.69126 5.08923,22.36511c-0.49914,9.89321 6.09495,17.9661 6.35001,21.5688c0.6613,9.34049 -46.53304,-26.19051 -67.31089,-24.71946c-20.77783,1.47105 -38.15766,-4.90839 -38.81896,-14.24888z" fill="#fbff00" stroke="#000000" stroke-linecap="butt"/><path d="M120.7289,26.64212c-0.53545,-7.56288 -28.96752,-40.52128 -10.91286,-47.7437c6.10455,-2.442 8.5738,39.35152 24.65963,42.93997c12.13352,2.70676 35.70306,4.2615 48.29024,-5.36265c7.20512,-5.50901 6.87284,-24.19739 8.71301,-24.32768c2.91264,-0.20621 4.14879,4.84975 5.90574,5.25437c11.46663,2.64066 1.92175,12.21389 2.72924,23.61926c0.93122,13.15295 -16.08482,25.07366 -38.00638,26.62569c-21.92156,1.55203 -40.4474,-7.85238 -41.37861,-21.0053z" fill="#bcbf00" stroke="none" stroke-linecap="butt"/><path d="M99.25002,-2.36287c-0.31685,-4.47537 7.77612,-9.45665 9.22985,-12.9316c1.58032,-3.77754 -3.0543,-5.8904 7.76808,-6.65661c7.35737,-0.5209 66.77601,6.21727 77.69265,14.62264c8.02167,6.17634 5.42595,15.69126 5.08923,22.36511c-0.49914,9.89321 6.09495,17.9661 6.35001,21.5688c0.6613,9.34049 -46.53304,-26.19051 -67.31087,-24.71946c-20.77783,1.47105 -38.15768,-4.90839 -38.81898,-14.24888z" fill="none" stroke="#000000" stroke-linecap="butt"/><path d="M111.07329,-19.90067c10.60288,-12.415 19.05612,-36.47388 37.01918,-37.74565c21.00576,-1.48719 58.72761,1.87052 66.20175,19.40712c4.83854,11.35266 -17.37867,34.00635 -16.45603,47.03822c2.34787,33.16239 -6.63913,51.19636 -41.24334,53.64631c-34.60424,2.44995 -64.55985,-22.4474 -66.90771,-55.60979c-1.12909,-15.94779 11.56352,-15.23482 21.38614,-26.7362z" fill="none" stroke="#000000" stroke-linecap="butt"/><path d="M60.61274,69.52281c-2.56054,-36.16623 1.35743,-72.46856 38.42015,-75.09257c37.06274,-2.62401 106.53366,26.73322 109.0942,62.89948c2.56054,36.16623 -38.70739,70.30263 -75.77011,72.92664c-37.06274,2.62401 -69.1837,-24.56732 -71.74424,-60.73357z" fill="#3a3a3a" stroke="#000000" stroke-linecap="butt"/><path d="M86.15045,76.36932c-1.11009,-15.67937 -24.59634,-27.99316 -18.74659,-47.45937c1.46055,-4.86024 3.66343,-20.56161 11.24617,-28.01389c8.12797,-7.98812 21.78045,-7.58866 26.99049,-7.95753c3.74064,-0.26483 -35.89699,22.48855 -26.04773,34.62902c20.11526,24.79469 95.50875,49.02202 109.93762,48.53956c7.18957,-0.24038 16.40177,-24.73896 8.81052,-36.5774c-7.0191,-10.94616 -32.75243,-21.66622 -32.68599,-25.66508c0.07184,-4.32403 34.10796,18.54541 38.24724,21.39676c7.64071,5.2633 1.9273,22.57506 2.32791,28.23345c1.68434,23.79041 -34.00896,50.07305 -63.54682,52.1643c-29.53786,2.09126 -54.84846,-15.49939 -56.5328,-39.2898z" fill="#202020" stroke="none" stroke-linecap="butt"/><path d="M123.99444,-1.08756c22.57937,-1.5986 43.77959,11.37532 60.56699,23.90826c10.76812,8.03912 22.0455,11.3569 23.0461,25.48992c2.56054,36.16623 -37.27784,78.94733 -74.34056,81.57134c-37.06274,2.62401 -69.18373,-24.56733 -71.74426,-60.73357c-1.93134,-27.27912 3.75795,-62.55211 27.36613,-74.11762c7.69117,-3.76786 25.99818,4.52648 35.1056,3.88168z" fill="none" stroke="#000000" stroke-linecap="butt"/><path d="M77.91136,29.19462c60.89187,-4.31109 113.16148,33.25412 116.74747,83.90422c3.58598,50.6501 -43.20382,90.48458 -104.09567,94.79567c-60.89187,4.31109 -112.82729,-28.53375 -116.41327,-79.18383c-3.58598,-50.6501 42.86962,-95.20497 103.76147,-99.51606z" fill="#ffffff" stroke="#000000" stroke-linecap="butt"/><path d="M-20.65827,145.31793c-0.55457,-7.83299 -10.7116,-48.01006 14.52981,-76.92769c19.28532,-22.09406 74.67907,-35.43244 78.94641,-35.73457c2.63016,-0.18621 -17.50824,3.132 -35.76584,14.80721c-13.65303,8.73071 -25.13234,24.36833 -31.34949,34.56937c-5.23671,8.59232 -18.02292,30.58429 -17.00437,38.40025c2.21268,16.97946 22.68878,38.97156 23.04613,44.01885c0.97828,13.81767 -2.939,3.9251 -12.79161,4.62266c-9.85259,0.69755 -18.63275,-9.93839 -19.61102,-23.75605z" fill="#e2e2e2" stroke="none" stroke-linecap="butt"/><path d="M78.81224,91.43202c34.14741,-2.41761 63.08929,13.41808 64.64347,35.36999c1.55418,21.95191 -24.86788,41.70732 -59.0153,44.12492c-34.14741,2.41761 -63.08929,-13.41808 -64.64347,-35.36999c-1.55418,-21.95191 24.86788,-41.70732 59.0153,-44.12492z" fill="#e2e2e2" stroke="none" stroke-linecap="butt"/><path d="M78.16339,30.04623c60.89187,-4.31109 113.16148,33.2541 116.74747,83.90422c3.58598,50.6501 -43.20382,90.48458 -104.09567,94.79567c-60.89187,4.31109 -112.82728,-28.53372 -116.41327,-79.18383c-3.58598,-50.65012 42.86962,-95.20497 103.76147,-99.51606z" fill="none" stroke="#000000" stroke-linecap="butt"/><path d="M82.50142,163.57075c20.66972,-1.4634 90.41917,-39.08582 91.75189,-20.26185c0.64875,9.16321 1.02053,27.03744 -17.95004,41.69979c-20.00059,15.45849 -59.67569,27.5033 -70.28369,28.25434c-10.26217,0.72655 -49.46007,-4.93258 -71.28488,-19.99931c-22.13397,-15.28012 -26.83009,-40.0413 -27.50114,-49.51947c-1.33272,-18.82398 74.59812,21.28987 95.26784,19.82647z" fill="#000000" stroke="#000000" stroke-linecap="butt"/><path d="M28.40627,103.12349c14.29828,-1.01231 26.93754,12.97243 28.23057,31.23576c1.29303,18.26333 -9.2498,33.88934 -23.5481,34.90165c-14.29828,1.01231 -26.93754,-12.97243 -28.23057,-31.23576c-1.29303,-18.26333 9.2498,-33.88934 23.5481,-34.90165z" fill="#000000" stroke="#000000" stroke-linecap="butt"/><path d="M132.85218,97.78798c14.29828,-1.01231 26.93754,12.97243 28.23057,31.23576c1.29303,18.26335 -9.2498,33.88934 -23.5481,34.90165c-14.29828,1.01231 -26.93754,-12.97241 -28.23057,-31.23576c-1.29303,-18.26333 9.2498,-33.88934 23.5481,-34.90165z" fill="#000000" stroke="#000000" stroke-linecap="butt"/><path d="M1.20884,151.3096l-26.76309,-15.44931" fill="none" stroke="#000000" stroke-linecap="round"/><path d="M191.88558,130.17844l-20.57468,22.96337" fill="none" stroke="#000000" stroke-linecap="round"/></g><g stroke-width="6" stroke-linecap="butt"><path d="M-93.14943,578.24795c0,-21.21623 31.8787,-38.41539 71.20303,-38.41539c39.32433,0 71.203,17.19914 71.203,38.41539c0,10.58266 -0.59095,23.10208 -13.42171,30.0499c-6.41513,3.47378 -15.87245,5.56177 -26.18427,6.78301c-10.41182,1.23307 -21.69482,1.58248 -31.59702,1.58248c-21.11824,0 -54.77019,-0.06657 -67.80968,-7.94536c-11.24138,-6.79233 -3.39334,-20.64751 -3.39334,-30.47003z" fill="#ffffff" stroke="#000000"/><path d="M-94.58309,598.59111c0,-3.68874 14.13054,5.00855 41.58501,7.00599c29.44311,2.14211 72.88809,-2.46636 89.9933,-8.94923c7.66647,-2.9056 5.54697,-16.1889 -2.94248,-27.21491c-9.25869,-12.02512 -25.07429,-21.73611 -18.28336,-21.73611c39.86487,0 34.01105,39.5429 34.01105,50.89426c0,11.35136 -32.31686,20.55346 -72.18177,20.55346c-39.86489,0 -72.18177,-9.2021 -72.18177,-20.55346z" fill="#e2e2e2" stroke="none"/><path d="M-91.64695,579.26107c0,-21.21623 31.8787,-38.41539 71.20303,-38.41539c39.32435,0 71.20303,17.19916 71.20303,38.41539c0,10.58266 -0.59097,23.10208 -13.42171,30.0499c-12.89244,6.98124 -38.07195,8.36547 -57.78129,8.36547c-21.11824,0 -54.77019,-0.06655 -67.80968,-7.94533c-11.24138,-6.79233 -3.39332,-20.64751 -3.39332,-30.47003z" fill="none" stroke="#000000"/></g><g data-paper-data="{&quot;index&quot;:null}" stroke-width="6" stroke-linecap="butt"><path d="M216.55107,577.84857c0,9.82252 7.84802,23.6777 -3.39334,30.47003c-13.03949,7.87879 -46.69144,7.94536 -67.80968,7.94536c-9.9022,0 -21.1852,-0.34941 -31.59702,-1.58248c-10.31184,-1.22123 -19.76916,-3.30923 -26.18429,-6.78301c-12.83077,-6.94784 -13.42171,-19.46724 -13.42171,-30.0499c0,-21.21623 31.87868,-38.41537 71.203,-38.41537c39.32435,0 71.20303,17.19914 71.20303,38.41537z" fill="#ffffff" stroke="#000000"/><path d="M217.98475,598.19175c0,11.35136 -32.31686,20.55344 -72.18175,20.55344c-39.86489,0 -72.18175,-9.20208 -72.18175,-20.55344c0,-11.35136 -5.85382,-50.89426 34.01105,-50.89426c6.79093,0 -9.02465,9.71099 -18.28336,21.73611c-8.48943,11.02601 -10.60895,24.30933 -2.94248,27.21491c17.10522,6.48287 60.55014,11.09134 89.9933,8.94923c27.45448,-1.99745 41.58501,-10.69471 41.58501,-7.00599z" fill="#e2e2e2" stroke="none"/><path d="M215.04855,578.86173c0,9.82252 7.84806,23.6777 -3.39332,30.47003c-13.03949,7.87879 -46.69144,7.94533 -67.80968,7.94533c-19.70934,0 -44.88885,-1.38421 -57.78129,-8.36547c-12.83075,-6.94784 -13.42169,-19.46724 -13.42169,-30.0499c0,-21.21623 31.87866,-38.41539 71.20303,-38.41539c39.32435,0 71.20303,17.19914 71.20303,38.41539z" fill="none" stroke="#000000"/></g><g stroke-width="7.5"><path d="M-117.29464,363.98253c5.64979,-21.17343 25.87162,-34.16418 45.16678,-29.01558c19.29513,5.14856 30.35692,26.48678 24.70713,47.66021c-5.64979,21.17345 -25.87165,34.16418 -45.1668,29.01558c-19.29516,-5.14856 -30.35692,-26.48678 -24.70715,-47.66021z" fill="#ffffff" stroke="#000000" stroke-linecap="butt"/><path d="M-118.15086,379.22159c3.18938,-11.95276 7.50468,-42.77155 24.58004,-38.21528c2.86477,0.76442 -9.43959,9.15341 -11.31738,23.59553c-1.78119,13.69908 4.65593,29.90923 7.62273,33.36196c12.54803,14.60341 43.09669,-10.28778 40.94994,-2.24251c-3.1894,11.95273 -19.61721,17.94877 -36.69257,13.39248c-17.07535,-4.55628 -28.33216,-17.93947 -25.14278,-29.89223z" fill="#e2e2e2" stroke="none" stroke-linecap="butt"/><path d="M-72.73601,336.942c19.29516,5.14856 30.35692,26.48676 24.70713,47.66021c-5.64979,21.17345 -25.8716,34.16416 -45.16676,29.01556c-19.29516,-5.14856 -30.3569,-26.48676 -24.70713,-47.66021c5.64979,-21.17345 25.87158,-34.16418 45.16674,-29.01558z" fill="none" stroke="#000000" stroke-linecap="butt"/><g><path d="M-38.62885,421.79996c0.90268,-16.58783 -29.16256,-25.94243 -21.04508,-25.5007c3.79391,0.20645 13.17464,-18.10695 24.21725,-14.0114c12.58413,4.66727 26.70453,32.27672 26.22376,41.11179c-0.90262,16.58789 -8.21489,29.67692 -16.33236,29.23519c-8.11753,-0.44171 -13.96624,-14.24688 -13.0636,-30.83479z" fill="#ffffff" stroke="#000000" stroke-linecap="butt"/><path d="M-36.26946,436.7003c0.14614,-2.68623 1.10188,-13.65102 -4.18814,-23.16447c-3.28958,-5.91592 -12.2161,-9.91599 -15.44353,-15.14025c-4.48027,-7.2522 4.20782,-11.42466 5.89151,-11.33299c4.58815,0.24967 36.02205,44.73007 35.64755,51.61228c-0.37449,6.88223 -4.39752,12.25895 -8.98565,12.00928c-4.58811,-0.24969 -12.7785,-5.13067 -12.40399,-12.0129z" fill="#e2e2e2" stroke="none" stroke-linecap="butt"/><path d="M-39.33135,421.51804c0.90268,-16.58783 -29.16252,-25.94243 -21.04503,-25.5007c3.79389,0.20647 13.17462,-18.10697 24.21723,-14.01142c12.58415,4.66729 26.70453,32.27672 26.22376,41.11181c-0.90264,16.58785 -8.21489,29.6769 -16.33236,29.23519c-8.11747,-0.44171 -13.96622,-14.24694 -13.06358,-30.83481z" fill="none" stroke="#000000" stroke-linecap="butt"/><path d="M-16.0951,406.75242l-21.71432,10.35521" fill="none" stroke="#000000" stroke-linecap="round"/></g><g data-paper-data="{&quot;index&quot;:null}"><path d="M-66.6565,428.22462c8.86903,14.04683 10.48635,28.95236 3.61233,33.29254c-6.87396,4.34015 -19.63619,-3.52862 -28.5052,-17.57545c-4.72382,-7.48164 -5.842,-38.47224 2.87431,-48.67856c7.64862,-8.95607 24.76229,2.46761 27.97502,0.43911c6.87398,-4.34017 -14.82555,18.47555 -5.95654,32.52232z" fill="#ffffff" stroke="#000000" stroke-linecap="butt"/><path d="M-60.95045,444.36019c3.67972,5.82795 -1.09537,14.08052 -4.98063,16.53366c-3.88528,2.45314 -10.01794,-0.28267 -13.69763,-6.11063c-3.67972,-5.82795 2.10372,-59.98647 5.98903,-62.43963c1.42574,-0.90026 11.04583,-1.48876 10.66599,7.02731c-0.2736,6.13469 -6.12071,13.97654 -6.11164,20.74554c0.01454,10.8853 6.19065,19.9955 7.62689,22.27025z" fill="#e2e2e2" stroke="none" stroke-linecap="butt"/><path d="M-66.18036,427.6362c8.86901,14.04681 10.48633,28.95239 3.61237,33.29256c-6.87398,4.34013 -19.63619,-3.52866 -28.5052,-17.57545c-4.72384,-7.48168 -5.84204,-38.47224 2.87431,-48.67861c7.64862,-8.95609 24.76232,2.46764 27.97502,0.43914c6.87398,-4.34017 -14.82553,18.47553 -5.9565,32.5223z" fill="none" stroke="#000000" stroke-linecap="butt"/><path d="M-93.66609,426.06045l24.00805,-1.53461" fill="none" stroke="#000000" stroke-linecap="round"/></g><g data-paper-data="{&quot;index&quot;:null}"><path d="M-130.96916,415.78399c5.27927,15.75126 3.31039,30.61444 -4.39769,33.19792c-7.70804,2.58348 -18.23638,-8.09109 -23.51563,-23.84234c-2.81185,-8.38947 3.46197,-38.75898 14.35283,-46.60325c9.55677,-6.88336 23.46778,8.27782 27.07035,7.07038c7.70806,-2.5835 -18.78917,14.42602 -13.50988,30.17721z" fill="#ffffff" stroke="#000000" stroke-linecap="butt"/><path d="M-129.25841,432.81307c2.19035,6.53511 -4.40804,13.41754 -8.76472,14.87777c-4.35673,1.46023 -9.6642,-2.65375 -11.85453,-9.18886c-2.19035,-6.53511 16.28979,-57.77062 20.64654,-59.23088c1.59876,-0.53589 11.08338,1.17713 8.69192,9.35932c-1.72272,5.8942 -9.2649,12.12307 -10.86366,18.70055c-2.57104,10.57733 1.2648,20.89365 2.1197,23.44439z" fill="#e2e2e2" stroke="none" stroke-linecap="butt"/><path d="M-130.3669,415.32548c5.27927,15.75124 3.31037,30.61447 -4.39767,33.19794c-7.70806,2.58346 -18.23636,-8.09113 -23.51563,-23.84234c-2.81188,-8.38949 3.46192,-38.75898 14.35281,-46.60327c9.55677,-6.88338 23.46781,8.27787 27.07035,7.0704c7.70806,-2.58348 -18.78915,14.42602 -13.50986,30.17721z" fill="none" stroke="#000000" stroke-linecap="butt"/><path d="M-156.69203,407.26721l23.68564,4.21098" fill="none" stroke="#000000" stroke-linecap="round"/></g><g data-paper-data="{&quot;index&quot;:null}"><path d="M-100.40207,425.14266c7.75403,14.69179 8.2116,29.67781 1.02197,33.47233c-7.18957,3.79452 -19.30377,-5.03943 -27.05776,-19.7312c-4.12995,-7.82516 -2.84362,-38.80923 6.6373,-48.30954c8.31955,-8.33654 24.49668,4.37876 27.85691,2.60529c7.18959,-3.79454 -16.21247,17.27133 -8.45846,31.96303z" fill="#ffffff" stroke="#000000" stroke-linecap="butt"/><path d="M-95.96334,441.67184c3.2171,6.09552 -2.18304,13.95332 -6.24668,16.09805c-4.06369,2.14473 -9.96591,-1.05802 -13.18301,-7.15354c-3.2171,-6.09552 6.74514,-59.64316 10.80882,-61.78791c1.49122,-0.78708 11.12798,-0.62845 10.08946,7.83256c-0.7481,6.09505 -7.1852,13.4603 -7.70062,20.20965c-0.82889,10.85371 4.6228,20.41505 5.87846,22.79421z" fill="#e2e2e2" stroke="none" stroke-linecap="butt"/><path d="M-99.88178,424.5929c7.75401,14.69175 8.21158,29.67785 1.02201,33.47235c-7.18959,3.7945 -19.30377,-5.03945 -27.05776,-19.7312c-4.12997,-7.82518 -2.84367,-38.80923 6.63728,-48.30957c8.31953,-8.33656 24.49668,4.3788 27.85689,2.60531c7.18959,-3.79452 -16.21245,17.27131 -8.45842,31.96301z" fill="none" stroke="#000000" stroke-linecap="butt"/><path d="M-103.10799,421.22243l-24.05479,-0.33013" fill="none" stroke="#000000" stroke-linecap="round"/></g></g><g data-paper-data="{&quot;index&quot;:null}" stroke-width="7.5"><path d="M262.06945,367.97025c5.64976,21.17343 -5.412,42.51165 -24.70715,47.66021c-19.29513,5.14861 -39.51702,-7.84213 -45.1668,-29.01558c-5.64979,-21.17343 5.412,-42.51167 24.70713,-47.66021c19.29513,-5.14861 39.51699,7.84213 45.16678,29.01558z" fill="#ffffff" stroke="#000000" stroke-linecap="butt"/><path d="M262.92564,383.20931c3.1894,11.95276 -8.06741,25.33593 -25.14278,29.89223c-17.07535,4.55628 -33.50317,-1.43976 -36.69257,-13.39248c-2.14675,-8.04527 28.40191,16.84589 40.94994,2.24251c2.96678,-3.45273 9.40392,-19.66288 7.62273,-33.36196c-1.87779,-14.44212 -14.18217,-22.83111 -11.31738,-23.59553c17.07535,-4.55628 21.39066,26.26252 24.58004,38.21528z" fill="#e2e2e2" stroke="none" stroke-linecap="butt"/><path d="M217.5108,340.92972c19.29516,-5.14861 39.51695,7.84213 45.16674,29.01558c5.64979,21.17343 -5.41198,42.51165 -24.70713,47.66021c-19.29516,5.14861 -39.51697,-7.84211 -45.16676,-29.01556c-5.64979,-21.17343 5.41198,-42.51165 24.70713,-47.66021z" fill="none" stroke="#000000" stroke-linecap="butt"/><g><path d="M183.40366,425.78777c0.90264,16.58789 -4.94607,30.39308 -13.0636,30.83479c-8.11747,0.44171 -15.42974,-12.64732 -16.33236,-29.23519c-0.48077,-8.83507 13.63966,-36.44452 26.22376,-41.11179c11.04261,-4.09552 20.42333,14.21786 24.21725,14.0114c8.11749,-0.44173 -21.94776,8.91287 -21.04508,25.5007z" fill="#ffffff" stroke="#000000" stroke-linecap="butt"/><path d="M180.52649,442.65898c0.37452,6.88223 -7.81588,11.7632 -12.40399,12.0129c-4.58815,0.24967 -8.61116,-5.12705 -8.98565,-12.00928c-0.37452,-6.88223 31.0594,-51.36261 35.64755,-51.61228c1.6837,-0.09167 10.37179,4.08078 5.89151,11.33299c-3.22742,5.22426 -12.15395,9.22433 -15.44353,15.14025c-5.29003,9.51345 -4.33428,20.47824 -4.18814,23.16447z" fill="#e2e2e2" stroke="none" stroke-linecap="butt"/><path d="M184.10612,425.50585c0.90264,16.58787 -4.94611,30.3931 -13.06358,30.83481c-8.11747,0.44171 -15.42972,-12.64734 -16.33236,-29.23519c-0.48077,-8.8351 13.63961,-36.44454 26.22376,-41.11181c11.04261,-4.09554 20.42333,14.2179 24.21723,14.01142c8.11749,-0.44171 -21.94771,8.91287 -21.04503,25.5007z" fill="none" stroke="#000000" stroke-linecap="butt"/><path d="M182.58421,421.09535l-21.71432,-10.35521" fill="none" stroke="#000000" stroke-linecap="round"/></g><g data-paper-data="{&quot;index&quot;:null}"><path d="M211.43133,432.21227c8.86903,-14.04676 -12.83051,-36.86249 -5.95652,-32.52232c3.21273,2.02848 20.32638,-9.3952 27.97502,-0.43911c8.71633,10.20632 7.59815,41.19693 2.87433,48.67856c-8.86901,14.04683 -21.63122,21.9156 -28.5052,17.57545c-6.87403,-4.34015 -5.2567,-19.24571 3.61233,-33.29254z" fill="#ffffff" stroke="#000000" stroke-linecap="butt"/><path d="M206.23321,446.3744c1.43621,-2.27475 7.61235,-11.38495 7.62689,-22.27025c0.00907,-6.76901 -5.83804,-14.61087 -6.11162,-20.74554c-0.37984,-8.51605 9.24026,-7.92755 10.66599,-7.02731c3.8853,2.45316 9.66874,56.61167 5.98903,62.43963c-3.67969,5.82795 -9.81235,8.56379 -13.69763,6.11063c-3.88526,-2.45314 -8.66035,-10.70573 -4.98063,-16.53366z" fill="#e2e2e2" stroke="none" stroke-linecap="butt"/><path d="M210.95517,431.62386c8.86903,-14.04676 -12.83049,-36.86245 -5.9565,-32.5223c3.21271,2.0285 20.32641,-9.39522 27.97502,-0.43914c8.71635,10.20637 7.59815,41.19693 2.87431,48.67861c-8.86901,14.04679 -21.63122,21.9156 -28.5052,17.57545c-6.87396,-4.34015 -5.25664,-19.24575 3.61237,-33.29256z" fill="none" stroke="#000000" stroke-linecap="butt"/><path d="M238.44087,430.04817l-24.00805,-1.53461" fill="none" stroke="#000000" stroke-linecap="round"/></g><g data-paper-data="{&quot;index&quot;:null}"><path d="M275.74397,419.77164c5.2793,-15.75119 -21.21794,-32.76071 -13.50988,-30.17721c3.60257,1.20745 17.51358,-13.95373 27.07035,-7.07038c10.89086,7.84427 17.16468,38.21378 14.35283,46.60325c-5.27925,15.75126 -15.80759,26.42582 -23.51563,23.84234c-7.70811,-2.58346 -9.67699,-17.44666 -4.39769,-33.19792z" fill="#ffffff" stroke="#000000" stroke-linecap="butt"/><path d="M274.05795,434.76312c0.8549,-2.55076 4.69073,-12.86706 2.1197,-23.44439c-1.59878,-6.57748 -9.14097,-12.80638 -10.86366,-18.70055c-2.39146,-8.18219 7.09316,-9.89521 8.69192,-9.35932c4.35675,1.46023 22.83689,52.69577 20.64654,59.23088c-2.19033,6.53511 -7.4978,10.64911 -11.85453,9.18886c-4.35668,-1.46023 -10.95507,-8.34268 -8.76472,-14.87777z" fill="#e2e2e2" stroke="none" stroke-linecap="butt"/><path d="M275.14168,419.31314c5.2793,-15.75119 -21.21792,-32.76069 -13.50986,-30.17721c3.60254,1.20747 17.51358,-13.95377 27.07035,-7.0704c10.89089,7.84429 17.16466,38.21378 14.35281,46.60327c-5.27925,15.75122 -15.80757,26.4258 -23.51563,23.84234c-7.70804,-2.58348 -9.67694,-17.44671 -4.39767,-33.19794z" fill="none" stroke="#000000" stroke-linecap="butt"/><path d="M301.46679,411.25493l-23.68564,4.211" fill="none" stroke="#000000" stroke-linecap="round"/></g><g data-paper-data="{&quot;index&quot;:null}"><path d="M245.1769,429.13032c7.75403,-14.6917 -15.64805,-35.75758 -8.45846,-31.96303c3.36023,1.77346 19.53736,-10.94183 27.85691,-2.60529c9.4809,9.50031 10.76725,40.48438 6.6373,48.30954c-7.75399,14.69177 -19.86818,23.5257 -27.05776,19.7312c-7.18964,-3.79452 -6.73204,-18.78056 1.02199,-33.47233z" fill="#ffffff" stroke="#000000" stroke-linecap="butt"/><path d="M241.0917,443.65264c1.25566,-2.37919 6.70735,-11.94051 5.87846,-22.79421c-0.51542,-6.74936 -6.95254,-14.11463 -7.70062,-20.20965c-1.03852,-8.46103 8.59824,-8.61966 10.08946,-7.83256c4.06369,2.14476 14.02592,55.69237 10.80882,61.78791c-3.21708,6.09554 -9.11933,9.2983 -13.18299,7.15354c-4.06365,-2.14473 -9.46378,-10.00253 -6.24668,-16.09807z" fill="#e2e2e2" stroke="none" stroke-linecap="butt"/><path d="M244.65656,428.58056c7.75403,-14.6917 -15.64801,-35.75753 -8.45842,-31.96301c3.36021,1.77349 19.53736,-10.94187 27.85691,-2.60531c9.48092,9.50033 10.76723,40.48438 6.63728,48.30957c-7.75399,14.69175 -19.86816,23.5257 -27.05776,19.7312c-7.18957,-3.79452 -6.732,-18.7806 1.02201,-33.47235z" fill="none" stroke="#000000" stroke-linecap="butt"/><path d="M247.88278,425.21015l24.05479,-0.33013" fill="none" stroke="#000000" stroke-linecap="round"/></g></g></g></g></svg>