<svg version="1.1" xmlns="http://www.w3.org/2000/svg" xmlns:xlink="http://www.w3.org/1999/xlink" width="472.90868" height="684.39817" viewBox="0,0,472.90868,684.39817"><g transform="translate(110.55617,54.41304)"><g data-paper-data="{&quot;isPaintingLayer&quot;:true}" fill-rule="nonzero" stroke-width="7" stroke-linejoin="miter" stroke-miterlimit="10" stroke-dasharray="" stroke-dashoffset="0" style="mix-blend-mode: normal"><g data-paper-data="{&quot;index&quot;:null}"><path d="M221.46891,522.8668c0.07852,12.62539 -0.10257,19.67748 -2.74741,27.3559c-9.50582,27.59727 -34.6671,30.00536 -49.11375,30.17915c-18.46614,0.22215 -21.17746,-17.15696 -21.53812,-75.15972c-0.36066,-58.00278 -22.9157,-126.03933 -4.44956,-126.26149c7.01417,-0.08438 31.12872,-1.31572 47.1711,13.0136c4.06758,3.63323 8.53164,11.2205 11.86327,16.61809c18.12162,29.35874 18.62551,83.86967 18.81445,114.25445z" fill="#a70000" stroke="#000000" stroke-linecap="butt"/><path d="M220.19264,538.6154c0.10507,16.8987 -28.71893,40.76782 -48.07044,41.00063c-19.3515,0.23279 -21.90248,-23.25886 -22.00756,-40.15755c-0.05427,-8.72913 1.23193,-41.77587 -3.75169,-79.64914c-4.66416,-35.44556 -15.96327,-76.1363 -6.60788,-76.24885c2.47912,-0.02983 50.52335,-3.34604 52.38078,10.09893c1.04705,7.57908 -35.80494,-8.72133 -37.75024,1.9624c-7.68086,42.18366 3.81375,127.40372 13.96836,148.23516c18.32399,37.59036 51.78463,-13.93656 51.83871,-5.2416z" fill="#760000" stroke="none" stroke-linecap="butt"/><path d="M221.01089,522.87229c0.07852,12.62539 -0.10259,19.67748 -2.74743,27.3559c-9.5058,27.59727 -34.6671,30.00538 -49.11373,30.17918c-18.46614,0.22215 -21.17746,-17.15696 -21.53812,-75.15972c-0.36066,-58.00278 -22.9157,-126.03933 -4.44956,-126.26149c8.32143,-0.10014 40.03007,-3.50312 55.74348,20.98627c19.15631,29.85518 21.90723,91.03498 22.10534,122.89984z" fill="none" stroke="#000000" stroke-linecap="butt"/><path d="M214.1662,459.51894l-36.03675,18.02461l-26.07462,5.60259" fill="none" stroke="#000000" stroke-linecap="round"/></g><g><path d="M41.85218,524.76071c0.18892,-30.38477 0.0615,-85.52703 18.18312,-114.88575c3.33163,-5.39757 8.42699,-12.35351 12.49457,-15.98675c16.0424,-14.32937 40.15693,-13.09802 47.17113,-13.01364c18.46614,0.22217 -4.0889,68.25873 -4.44956,126.26149c-0.36064,58.00278 -3.07196,75.38191 -21.5381,75.15972c-14.44665,-0.17378 -39.60793,-2.58186 -49.11375,-30.17915c-2.64479,-7.67843 -2.8259,-14.73051 -2.74741,-27.3559z" fill="#a00000" stroke="#000000" stroke-linecap="butt"/><path d="M94.96712,545.75096c10.15462,-20.83146 21.6492,-106.0515 13.96836,-148.23516c-1.9453,-10.68373 -38.79729,5.61668 -37.75024,-1.9624c1.85744,-13.44497 49.90168,-10.12876 52.38078,-10.09893c9.35537,0.11256 -1.94372,40.80327 -6.6079,76.24885c-4.98362,37.87325 -3.69742,70.92001 -3.75169,79.64914c-0.10507,16.8987 -2.65606,40.39035 -22.00756,40.15755c-19.3515,-0.23279 -48.17552,-24.10194 -48.07044,-41.00063c0.05406,-8.69496 33.5147,42.83196 51.83871,5.2416z" fill="#650000" stroke="none" stroke-linecap="butt"/><path d="M42.31018,524.76623c0.19811,-31.86484 2.94903,-93.04466 22.10534,-122.89984c15.71341,-24.48939 47.42203,-21.08637 55.74346,-20.98627c18.46614,0.22217 -4.0889,68.25871 -4.44956,126.26149c-0.36066,58.00278 -3.07198,75.38187 -21.53812,75.15972c-14.44661,-0.17378 -39.60789,-2.58191 -49.11373,-30.17918c-2.64479,-7.67843 -2.8259,-14.73051 -2.74741,-27.3559z" fill="none" stroke="#000000" stroke-linecap="butt"/><path d="M111.26629,485.04003l-26.07462,-5.60259l-36.03677,-18.02461" fill="none" stroke="#000000" stroke-linecap="round"/></g><g data-paper-data="{&quot;index&quot;:null}"><path d="M304.79707,331.57858c0.1092,12.62539 -0.14271,19.67748 -3.82159,27.3559c-13.22244,27.59727 -48.22138,30.00536 -68.31644,30.17915c-25.6861,0.22217 -29.45751,-17.15696 -29.95917,-75.15972c-0.50164,-58.00276 -31.87539,-126.03933 -6.18924,-126.26149c25.6861,-0.22217 107.78479,85.88338 108.28643,143.88614z" fill="#66abff" stroke="#000000" stroke-linecap="butt"/><path d="M303.02181,347.32718c0.14613,16.8987 -39.94758,40.76782 -66.86519,41.00063c-26.91764,0.23279 -30.466,-23.25886 -30.61218,-40.15755c-0.0755,-8.72913 1.71359,-41.77589 -5.21855,-79.64914c-6.48779,-35.44556 -22.20464,-76.1363 -9.19145,-76.24885c13.06757,-0.11303 15.7322,124.82987 39.78058,160.29652c25.48837,37.59036 72.03162,-13.93656 72.10682,-5.2416z" fill="#4e83c3" stroke="none" stroke-linecap="butt"/><path d="M304.15997,331.58407c0.1092,12.62539 -0.14271,19.67748 -3.82159,27.3559c-13.22244,27.59727 -48.22138,30.00538 -68.3164,30.17918c-25.6861,0.22215 -29.45751,-17.15696 -29.95917,-75.15972c-0.50166,-58.00278 -31.87539,-126.03933 -6.18929,-126.26149c25.6861,-0.22217 107.78481,85.88335 108.28645,143.88614z" fill="none" stroke="#000000" stroke-linecap="butt"/><path d="M276.19799,266.33676l-31.68546,19.91855l-36.26938,5.60259" fill="none" stroke="#000000" stroke-linecap="round"/></g><g><path d="M-44.00128,334.10384c0.50166,-58.00278 82.60035,-144.10828 108.28645,-143.88614c25.6861,0.22215 -5.68758,68.25869 -6.18924,126.26147c-0.50166,58.00278 -4.27307,75.38187 -29.95917,75.15972c-20.09504,-0.17378 -55.09396,-2.58186 -68.3164,-30.17915c-3.67888,-7.67843 -3.9308,-14.73051 -3.82159,-27.3559z" fill="#66abff" stroke="#000000" stroke-linecap="butt"/><path d="M-42.226,349.85242c0.0752,-8.69496 46.61845,42.83201 72.10682,5.2416c24.04835,-35.46662 26.71301,-160.40953 39.78058,-160.2965c13.01317,0.11256 -2.70366,40.80327 -9.19145,76.24885c-6.9321,37.87325 -5.14305,70.92003 -5.21855,79.64914c-0.14615,16.8987 -3.69456,40.39037 -30.61218,40.15758c-26.91764,-0.23279 -67.01139,-24.10194 -66.86522,-41.00063z" fill="#4e83c3" stroke="none" stroke-linecap="butt"/><path d="M-43.36416,334.10936c0.50166,-58.00278 82.60035,-144.10828 108.28645,-143.88614c25.6861,0.22215 -5.68758,68.25871 -6.18924,126.26147c-0.50166,58.00276 -4.27307,75.38187 -29.95917,75.15972c-20.09504,-0.17382 -55.09396,-2.58191 -68.3164,-30.17918c-3.67893,-7.67843 -3.93082,-14.73051 -3.82161,-27.3559z" fill="none" stroke="#000000" stroke-linecap="butt"/><path d="M52.55263,294.38316l-36.26935,-5.60259l-31.68546,-19.91855" fill="none" stroke="#000000" stroke-linecap="round"/></g><g stroke-linecap="butt"><path d="M54.80619,311.4866c0,-28.64242 -16.91245,-93.41651 12.97868,-121.30266c23.05138,-21.50519 91.11003,-10.32638 109.7897,-10.32638c42.90195,0 32.59338,80.89822 32.59338,131.62902c0,20.58714 8.39631,49.06211 -1.27721,64.37906c-14.16403,22.42711 -50.91179,27.47716 -76.40367,27.47716c-19.0414,0 -55.4954,1.99978 -69.00593,-11.44695c-16.92994,-16.84999 -8.67495,-52.19458 -8.67495,-80.40928z" fill="#66abff" stroke="#000000"/><path d="M84.79467,385.7591c20.30446,3.04042 64.98774,-19.66386 83.47401,-19.66386c24.18635,0 26.58956,-108.3216 30.63132,-150.88292c3.56181,-37.50757 10.08846,-10.68822 10.08846,-0.31685c0,8.19677 0.22939,56.27918 0.93964,98.82714c0.41081,24.60971 6.44393,43.58692 -1.44235,61.70525c-15.30759,35.16844 -69.91607,27.91489 -88.82828,27.91489c-45.50081,0 -67.23497,-16.05427 -67.23497,-38.19451c0,-13.14502 2.7006,16.16777 32.37215,20.61081z" fill="#4e83c3" stroke="none"/><path d="M52.42252,225.62785c0,-8.84101 4.80721,-23.33705 14.0456,-30.01293c14.26139,-10.30562 38.20937,-10.70685 64.55301,-10.70685c25.39425,0 53.2591,-1.38723 68.34546,6.67966c10.70219,5.72261 12.77843,19.02541 12.77843,28.35828c0,3.40016 -8.5035,-22.01938 -34.49533,-27.31376c-33.79045,-6.88292 -87.98889,5.87062 -97.56245,12.58537c-31.76869,22.28209 30.0048,126.78663 1.6914,126.78663c-43.40881,0 -29.35611,-83.88755 -29.35611,-106.37646z" fill="#4e83c3" stroke="none"/><path d="M55.43751,313.38053c0,-28.64242 -16.91245,-93.41651 12.97868,-121.30266c23.05138,-21.50519 91.11003,-10.32638 109.7897,-10.32638c42.90195,0 32.59338,80.89822 32.59338,131.62902c0,20.58714 8.39631,49.06211 -1.27721,64.37906c-14.16403,22.42711 -50.91179,27.47716 -76.40367,27.47716c-19.0414,0 -55.4954,1.99978 -69.00593,-11.44695c-16.92994,-16.84999 -8.67495,-52.19458 -8.67495,-80.40928z" fill="none" stroke="#000000"/><path d="M156.58939,334.52955v-136.36387h25.25256v136.36387z" data-paper-data="{&quot;index&quot;:null}" fill="#a50000" stroke="#000000"/><path d="M181.84195,292.54715c0,10.63429 -5.22901,19.25508 -11.67931,19.25508c-6.45031,0 -11.67931,-8.62081 -11.67931,-19.25508c0,-3.99065 13.44256,6.3351 15.59215,-9.1805c3.57864,-25.83035 -2.89204,-80.78179 1.13767,-80.78179c6.45031,0 6.62881,79.32799 6.62881,89.96229z" data-paper-data="{&quot;index&quot;:null}" fill="#780000" stroke="none"/><path d="M156.58939,337.05479v-136.36387h25.25256v136.36387z" data-paper-data="{&quot;index&quot;:null}" fill="none" stroke="#000000"/><path d="M71.99327,337.68612v-136.36387h25.25256v136.36387z" fill="#a50000" stroke="#000000"/><path d="M78.62206,205.74142c4.02973,0 -2.44097,54.95144 1.13767,80.78179c2.14961,15.51558 15.59215,5.18986 15.59215,9.1805c0,10.63429 -5.22901,19.25508 -11.67931,19.25508c-6.45031,0 -11.67931,-8.62081 -11.67931,-19.25508c0,-10.63429 0.17848,-89.96229 6.62881,-89.96229z" fill="#780000" stroke="none"/><path d="M71.99327,340.21136v-136.36387h25.25256v136.36387z" fill="none" stroke="#000000"/><path d="M55.57913,325.37548c0,-35.38954 32.09924,-16.09851 74.81073,-16.09851c42.71149,0 79.86126,-19.29103 79.86126,16.09851c0,16.14314 6.94703,40.48924 -4.65757,55.32887c-13.83538,17.6923 -48.18738,24.53239 -71.41579,24.53239c-18.82482,0 -51.86152,0.74019 -65.27241,-8.52315c-17.01703,-11.7542 -13.32624,-51.54626 -13.32624,-71.33811z" fill="#a50000" stroke="#000000"/><path d="M58.10433,379.6685c0,-13.42361 -16.72856,-77.336 24.93691,-77.336c8.04027,0 -7.78423,6.37085 -12.66549,20.26512c-7.08063,20.15463 -5.07638,51.26022 9.92548,61.01934c28.24968,18.37721 128.68722,-11.02417 128.68722,-3.94844c0,13.42361 -33.77655,24.30561 -75.44206,24.30561c-41.66549,0 -75.44206,-10.88199 -75.44206,-24.30561z" fill="#780000" stroke="none"/><path d="M56.84174,324.74417c0,-35.38954 32.09924,-16.09851 74.81073,-16.09851c42.71149,0 79.86126,-19.29103 79.86126,16.09851c0,16.14314 6.94703,40.48924 -4.65757,55.32887c-13.83538,17.6923 -48.18738,24.53239 -71.41579,24.53239c-18.82482,0 -51.86152,0.74019 -65.27241,-8.52315c-17.01703,-11.7542 -13.32624,-51.54626 -13.32624,-71.33811z" fill="none" stroke="#000000"/><path d="M83.98824,282.13042c12.55194,0 22.72732,10.45802 22.72732,23.35863c0,12.90061 -10.17538,23.35863 -22.72732,23.35863c-12.55194,0 -22.72732,-10.45802 -22.72732,-23.35863c0,-12.90061 10.17538,-23.35863 22.72732,-23.35863z" fill="#ffe07b" stroke="#000000"/><path d="M90.48176,285.28701c7.17253,0 12.98704,5.49146 12.98704,12.26552c0,6.77406 -5.81451,12.26552 -12.98704,12.26552c-7.17253,0 -12.98704,-5.49146 -12.98704,-12.26552c0,-6.77406 5.81451,-12.26552 12.98704,-12.26552z" fill="#ffecac" stroke="none"/><path d="M72.08345,288.17302c2.90327,0 -1.82126,5.91013 -2.91834,12.67951c-0.9953,6.14145 1.56945,13.05397 4.75647,15.70569c2.44882,2.03748 7.66333,5.98292 13.01693,5.45261c7.93207,-0.78571 16.16953,-6.65372 16.16953,-4.61697c0,7.17253 -8.56025,12.98704 -19.11981,12.98704c-10.55958,0 -19.11981,-5.81451 -19.11981,-12.98704c0,-7.17253 -3.34454,-29.22084 7.21502,-29.22084z" fill="#d6ac23" stroke="none"/><path d="M84.70974,282.49119c12.55194,0 22.72732,10.45802 22.72732,23.35863c0,12.90061 -10.17538,23.35863 -22.72732,23.35863c-12.55194,0 -22.72732,-10.45802 -22.72732,-23.35863c0,-12.90061 10.17538,-23.35863 22.72732,-23.35863z" fill="none" stroke="#000000"/><g data-paper-data="{&quot;index&quot;:null}"><path d="M195.09955,305.84982c0,12.90061 -10.17538,23.35863 -22.72732,23.35863c-12.55194,0 -22.72732,-10.45802 -22.72732,-23.35863c0,-12.90061 10.17538,-23.35863 22.72732,-23.35863c12.55194,0 22.72732,10.45802 22.72732,23.35863z" fill="#ffe07b" stroke="#000000"/><path d="M178.86577,297.91328c0,6.77408 -5.81451,12.26552 -12.98704,12.26552c-7.17253,0 -12.98704,-5.49148 -12.98704,-12.26552c0,-6.77408 5.81451,-12.26552 12.98704,-12.26552c7.17253,0 12.98704,5.49148 12.98704,12.26552z" fill="#ffecac" stroke="none"/><path d="M191.49204,317.75461c0,7.17253 -8.56021,12.98704 -19.11981,12.98704c-10.55956,0 -19.11981,-5.81451 -19.11981,-12.98704c0,-2.03675 8.23746,3.83128 16.16953,4.61697c5.35363,0.53031 10.56812,-3.41513 13.01693,-5.45261c3.18702,-2.65172 5.75177,-9.56424 4.75647,-15.70569c-1.09706,-6.76938 -5.82161,-12.67951 -2.91834,-12.67951c10.55956,0 7.21502,22.04829 7.21502,29.22084z" fill="#d6ac23" stroke="none"/><path d="M194.37805,306.21057c0,12.90061 -10.17538,23.35863 -22.72732,23.35863c-12.55194,0 -22.72732,-10.45802 -22.72732,-23.35863c0,-12.90061 10.17538,-23.35863 22.72732,-23.35863c12.55194,0 22.72732,10.45802 22.72732,23.35863z" fill="none" stroke="#000000"/></g></g><g stroke-linecap="butt"><path d="M83.98824,56.75124c0,0 14.04034,-27.71614 16.83752,-42.00165c2.57925,-13.17219 -0.65506,-40.64275 -0.65506,-40.64275c0,0 48.35817,-26.94959 56.10301,-24.90965c1.86811,0.49208 -1.67094,74.89618 -1.67094,74.89618l8.82681,32.65787z" fill="#4a0000" stroke="#000000"/><path d="M98.69963,7.76446c0,-4.22408 34.19095,1.06131 43.32054,-10.48117c11.9528,-15.11187 0.38288,-47.16995 8.90479,-47.16995c15.03098,0 2.2067,47.89675 2.2067,57.65114c0,9.75439 -12.18502,17.66189 -27.21602,17.66189c-15.03098,0 -27.21604,-7.90752 -27.21604,-17.66189z" fill="#2e0000" stroke="none"/><path d="M84.72379,56.75124c0,0 14.04034,-27.71614 16.83757,-42.00165c2.57925,-13.17219 -0.65506,-40.64275 -0.65506,-40.64275c0,0 48.35817,-26.94959 56.10301,-24.90965c1.86808,0.49204 -1.67096,74.89618 -1.67096,74.89618l8.82681,32.65787z" fill="none" stroke="#000000"/><path d="M25.16686,100.94325c0,-27.32588 3.19867,-63.99982 20.92839,-82.58017c6.38877,-6.69531 14.48439,-11.31944 23.57284,-14.51125c18.78958,-6.59875 41.82272,-7.07543 62.79062,-7.07543c41.25244,0 81.92835,8.71434 99.88311,41.86033c7.8357,14.4654 7.40872,44.8277 7.40872,62.30652c0,28.36136 0.82552,58.93657 -18.11232,77.72069c-19.47673,19.31863 -59.13609,26.44615 -89.17953,26.44615c-26.4778,0 -61.82658,-1.6729 -80.53933,-17.1075c-23.16526,-19.10711 -26.75254,-55.23615 -26.75254,-87.05934z" fill="#66abff" stroke="none"/><path d="M133.86206,67.48357c31.37986,0 56.81828,13.00186 56.81828,29.04046c0,16.0386 -25.43842,29.04046 -56.81828,29.04046c-31.37986,0 -56.81828,-13.00186 -56.81828,-29.04046c0,-16.0386 25.43842,-29.04046 56.81828,-29.04046z" fill="#4e83c3" stroke="none"/><path d="M39.79627,171.33477c0,-11.26276 30.10361,16.98355 73.94319,19.99133c19.48544,1.33689 46.4993,2.33188 66.92254,-4.2683c13.9971,-4.52342 22.59338,-13.5134 30.85173,-13.5134c18.27581,0 25.7906,-97.90321 10.16458,-132.73425c-5.85905,-13.06013 -27.99247,-27.28356 -58.90721,-32.52641c-31.37325,-5.32059 -71.46953,-1.61859 -68.55858,-9.27933c6.4193,-16.8937 112.88199,10.02467 112.88199,16.39575c0,3.06037 21.04351,3.20333 27.12986,21.57672c10.32007,31.15408 7.2311,88.67926 0.67798,112.47608c-14.4594,52.5075 -81.68639,57.55109 -109.24739,57.55109c-47.41846,0 -85.85874,-15.96968 -85.85874,-35.66925z" fill="#4e83c3" stroke="none"/><path d="M25.16686,100.9433c0,-27.32588 3.19867,-63.99982 20.92839,-82.58017c19.59706,-20.53728 55.25345,-21.5867 86.36346,-21.5867c41.25244,0 81.92835,8.71434 99.88311,41.86033c7.8357,14.4654 7.40872,44.8277 7.40872,62.30652c0,28.36136 0.82552,58.93657 -18.11232,77.72069c-19.47673,19.31863 -59.13609,26.44615 -89.17953,26.44615c-26.4778,0 -61.82658,-1.6729 -80.53933,-17.1075c-23.16526,-19.10711 -26.75254,-55.23615 -26.75254,-87.05934z" fill="none" stroke="#000000"/><path d="M134.80904,149.55447c45.15214,0 88.06833,-31.72759 88.06833,-11.67931c0,20.04827 -43.54749,65.34103 -88.69966,65.34103c-45.15214,0 -89.96229,-45.92408 -89.96229,-65.97234c0,-20.04827 45.44145,12.31062 90.59359,12.31062z" fill="#00f3ff" stroke="#000000"/><path d="M89.67007,62.43307c13.94659,0 26.5152,31.35741 26.5152,43.56069c0,12.20328 -14.46256,11.99497 -28.40913,11.99497c-13.94659,0 -29.67176,-2.31695 -29.67176,-14.52023c0,-12.20328 17.61913,-41.03542 31.56572,-41.03542z" fill="#00f3ff" stroke="#000000"/><path d="M211.51371,104.09984c0,12.20328 -15.72515,14.52023 -29.67176,14.52023c-13.94659,0 -28.40913,0.20831 -28.40913,-11.99497c0,-12.20328 12.5686,-43.56069 26.5152,-43.56069c13.94661,0 31.56572,28.83215 31.56572,41.03542z" data-paper-data="{&quot;index&quot;:null}" fill="#00f3ff" stroke="#000000"/><path d="M132.91509,113.56955c9.93696,0 18.62378,14.96279 18.62378,18.62378c0,3.66099 -8.05549,6.62881 -17.99245,6.62881c-9.93696,0 -17.99245,-2.9678 -17.99245,-6.62881c0,-3.66099 7.42418,-18.62378 17.36114,-18.62378z" fill="#00f3ff" stroke="#000000"/></g><g stroke-linecap="butt"><path d="M201.26769,536.83849c36.30853,0 65.74239,20.06808 65.74239,44.82332c0,10.25022 11.30747,21.59081 2.81622,29.1419c-12.01592,10.68555 -47.28407,15.68142 -68.5586,15.68142c-16.25781,0 -49.45354,1.02695 -60.9294,-5.63939c-14.15313,-8.22155 -4.81298,-25.51331 -4.81298,-39.18393c0,-24.75524 29.43386,-44.82332 65.74239,-44.82332z" fill="#66abff" stroke="#000000"/><path d="M128.32961,604.38913c0,-2.2932 12.30446,-52.82026 22.25925,-51.96286c12.6509,1.08964 -11.60432,39.03618 5.12498,52.4528c17.48027,14.01887 75.92422,3.40027 87.73771,-1.87356c19.38532,-8.65408 -13.52052,-56.69732 0.99026,-56.69732c11.92489,0 16.72625,16.93261 20.38264,23.27042c8.14115,14.11143 2.8398,25.66754 2.8398,34.81049c0,13.2493 -31.19112,23.98993 -69.66732,23.98993c-38.47621,0 -69.66732,-10.74065 -69.66732,-23.98993z" fill="#4e83c3" stroke="none"/><path d="M201.26769,536.83849c36.30853,0 65.74239,20.0681 65.74239,44.82332c0,10.2502 11.30747,21.59074 2.81622,29.14188c-12.01592,10.68555 -47.28407,15.68144 -68.5586,15.68144c-16.25777,0 -49.45352,1.02695 -60.92938,-5.63939c-14.15315,-8.22155 -4.81301,-25.51331 -4.81301,-39.18393c0,-24.75522 29.43386,-44.82332 65.74239,-44.82332z" fill="none" stroke="#000000"/></g><g data-paper-data="{&quot;index&quot;:null}" stroke-linecap="butt"><path d="M116.80094,572.82339c0,13.67063 9.34015,30.96238 -4.81301,39.18393c-11.47586,6.66631 -44.67159,5.63939 -60.92938,5.63939c-21.27451,0 -56.54268,-4.99587 -68.5586,-15.68142c-8.49125,-7.55109 2.81622,-18.89168 2.81622,-29.1419c0,-24.75524 29.43386,-44.82332 65.74239,-44.82332c36.30853,0 65.74239,20.06808 65.74239,44.82332z" fill="#66abff" stroke="#000000"/><path d="M123.99661,595.55071c0,13.2493 -31.19112,23.98993 -69.6673,23.98993c-38.47618,0 -69.66732,-10.74065 -69.66732,-23.98993c0,-9.14295 -5.30135,-20.69906 2.8398,-34.81047c3.65639,-6.33781 8.45776,-23.27044 20.38264,-23.27044c14.51078,0 -18.39509,48.04324 0.99024,56.6973c11.81349,5.27385 70.25744,15.89243 87.73773,1.87356c16.7293,-13.41662 -7.52592,-51.36315 5.12496,-52.4528c9.95479,-0.85743 22.25925,49.66966 22.25925,51.96286z" fill="#4e83c3" stroke="none"/><path d="M116.80094,572.82339c0,13.67063 9.34015,30.96238 -4.81301,39.18393c-11.47584,6.66631 -44.67159,5.63939 -60.92938,5.63939c-21.27453,0 -56.54268,-4.99587 -68.5586,-15.68142c-8.49125,-7.55109 2.81622,-18.89168 2.81622,-29.1419c0,-24.75524 29.43386,-44.82332 65.74239,-44.82332c36.30853,0 65.74239,20.06808 65.74239,44.82332z" fill="none" stroke="#000000"/></g><g><g><path d="M322.67871,437.44251c3.90856,-20.28616 -31.55869,-36.88056 -21.63137,-34.96787c4.63978,0.89395 19.28527,-20.08909 32.20077,-13.18135c14.71845,7.87207 27.46226,44.27081 25.3805,55.07572c-3.90851,20.28622 -15.12468,35.18091 -25.05197,33.2682c-9.92736,-1.91267 -14.80648,-19.90839 -10.89797,-40.19463z" fill="#66abff" stroke="#000000" stroke-linecap="butt"/><path d="M323.07393,456.19935c0.63291,-3.28516 3.65893,-16.63402 -1.2553,-29.24759c-3.0559,-7.84371 -13.38016,-14.27713 -16.47609,-21.25818c-4.29772,-9.69091 7.11052,-13.36725 9.1696,-12.97051c5.61112,1.08109 36.84329,61.18565 35.22166,69.6023c-1.62163,8.41664 -7.48489,14.36328 -13.09599,13.28217c-5.61105,-1.08111 -14.87982,-8.47579 -13.2582,-16.89246z" fill="#4e83c3" stroke="none" stroke-linecap="butt"/><path d="M321.86067,436.97673c3.90856,-20.28616 -31.55862,-36.88052 -21.63133,-34.96783c4.63976,0.89395 19.28525,-20.08912 32.20073,-13.18137c14.71849,7.87209 27.46228,44.27083 25.3805,55.07574c-3.90849,20.28618 -15.12466,35.18086 -25.05197,33.2682c-9.92729,-1.91267 -14.80644,-19.90845 -10.89792,-40.19465z" fill="none" stroke="#000000" stroke-linecap="butt"/><path d="M324.47938,431.7991l28.50048,-9.09839" fill="none" stroke="#000000" stroke-linecap="round"/></g><path d="M306.52567,372.75588c7.02608,26.33141 -6.73038,52.86775 -30.72596,59.27055c-23.99556,6.40284 -49.1436,-9.75251 -56.1697,-36.08394c-7.02608,-26.33141 6.7304,-52.86775 30.72596,-59.27055c23.99556,-6.40284 49.14358,9.75253 56.16968,36.08394z" fill="#66abff" stroke="#000000" stroke-linecap="butt"/><path d="M307.59047,391.70724c3.96635,14.86451 -10.03269,31.50792 -31.26771,37.17414c-21.23502,5.66622 -41.66474,-1.79051 -45.6311,-16.65498c-2.66968,-10.00515 35.32079,20.94967 50.9256,2.78878c3.68951,-4.29383 11.69477,-24.45287 9.47967,-41.48915c-2.33523,-17.96031 -17.63702,-28.3929 -14.07438,-29.34354c21.23502,-5.66622 26.60156,32.66024 30.56789,47.52475z" fill="#4e83c3" stroke="none" stroke-linecap="butt"/><g data-paper-data="{&quot;index&quot;:null}"><path d="M208.69643,444.65806c1.12253,20.62884 -6.15097,37.79705 -16.24597,38.34635c-10.09494,0.54934 -19.18852,-15.72825 -20.31105,-36.35707c-0.59788,-10.98737 16.96236,-45.32263 32.61204,-51.12687c13.73266,-5.09323 25.39859,17.68142 30.11674,17.42467c10.09496,-0.54934 -27.29436,11.0841 -26.17179,31.71283z" fill="#66abff" stroke="#000000" stroke-linecap="butt"/><path d="M205.11836,465.63922c0.46574,8.55878 -9.71988,14.62877 -15.42568,14.93929c-5.70584,0.31052 -10.7089,-6.37602 -11.17462,-14.9348c-0.46574,-8.55878 38.62567,-63.87486 44.33154,-64.18536c2.09384,-0.11397 12.89843,5.0749 7.32672,14.09379c-4.01365,6.49694 -15.11473,11.47145 -19.20567,18.82852c-6.57871,11.83098 -5.39015,25.46684 -5.20839,28.80747z" fill="#4e83c3" stroke="none" stroke-linecap="butt"/><path d="M209.57004,444.30747c1.12253,20.62877 -6.15101,37.79705 -16.24595,38.34637c-10.09494,0.5493 -19.18852,-15.72831 -20.31103,-36.35704c-0.59788,-10.98739 16.96231,-45.32267 32.61204,-51.12692c13.73266,-5.09323 25.39859,17.68146 30.1167,17.42472c10.09494,-0.54932 -27.29432,11.0841 -26.17175,31.71283z" fill="none" stroke="#000000" stroke-linecap="butt"/><path d="M180.6733,425.94478l27.00405,12.87782" fill="none" stroke="#000000" stroke-linecap="round"/></g><path d="M307.28192,375.21205c7.02612,26.33141 -6.73036,52.86775 -30.72593,59.27055c-23.99558,6.40284 -49.14358,-9.75251 -56.16968,-36.08394c-7.02608,-26.33141 6.73038,-52.86775 30.72596,-59.27055c23.99558,-6.40284 49.14356,9.75251 56.16964,36.08394z" fill="none" stroke="#000000" stroke-linecap="butt"/><g><path d="M288.25168,448.63802c8.28037,-18.92724 -22.66131,-42.9254 -13.399,-38.87331c4.32899,1.89385 23.23613,-15.34849 34.31315,-5.76586c12.62332,10.92035 17.03784,49.23204 12.62755,59.31314c-8.28033,18.92733 -22.50148,30.98606 -31.76377,26.93396c-9.26238,-4.05208 -10.05835,-22.68049 -1.77798,-41.60784z" fill="#66abff" stroke="#000000" stroke-linecap="butt"/><path d="M284.50621,467.02134c1.34089,-3.06511 7.23253,-15.41976 5.21695,-28.80591c-1.25337,-8.32414 -9.90726,-16.87338 -11.38968,-24.36486c-2.05788,-10.39949 9.87989,-11.47303 11.80105,-10.63254c5.23523,2.29033 22.46325,67.79761 19.02776,75.65044c-3.43546,7.85285 -10.46445,12.36215 -15.69966,10.07182c-5.23519,-2.29033 -12.64776,-11.54479 -9.2123,-19.39764z" fill="#4e83c3" stroke="none" stroke-linecap="butt"/><path d="M287.55631,448.0035c8.28037,-18.92724 -22.66125,-42.92536 -13.39896,-38.87328c4.32894,1.89385 23.2361,-15.34851 34.31311,-5.76591c12.62334,10.92037 17.03786,49.23204 12.62755,59.31316c-8.28031,18.92726 -22.50146,30.98601 -31.76377,26.93396c-9.26229,-4.05208 -10.05829,-22.68056 -1.77796,-41.60784z" fill="none" stroke="#000000" stroke-linecap="butt"/><path d="M321.0555,440.93164l-29.80449,2.59811" fill="none" stroke="#000000" stroke-linecap="round"/></g><g><path d="M242.91588,458.57786c9.95935,-18.10018 -18.68346,-44.80016 -9.82588,-39.92643c4.13981,2.27786 24.52985,-13.18257 34.69415,-2.63677c11.5832,12.01797 12.5123,50.57195 7.20775,60.21254c-9.95933,18.10026 -25.21343,28.82244 -34.07099,23.94871c-8.85762,-4.87371 -7.96444,-23.49772 1.99491,-41.59801z" fill="#66abff" stroke="#000000" stroke-linecap="butt"/><path d="M237.52205,476.54679c1.6128,-2.93117 8.59838,-14.70194 7.80255,-28.21557c-0.49486,-8.40341 -8.33954,-17.70079 -9.13786,-25.29567c-1.10827,-10.54305 10.87769,-10.53181 12.71488,-9.52089c5.00648,2.75472 16.23521,69.55237 12.10312,77.06206c-4.13207,7.50969 -11.5403,11.36435 -16.54676,8.60962c-5.00641,-2.75472 -11.55104,-12.64207 -7.41897,-20.15177z" fill="#4e83c3" stroke="none" stroke-linecap="butt"/><path d="M242.28077,457.88303c9.95935,-18.10018 -18.68339,-44.8001 -9.82583,-39.92639c4.13979,2.27786 24.52983,-13.18261 34.69413,-2.63682c11.58322,12.018 12.51232,50.57197 7.20773,60.21259c-9.95928,18.1002 -25.21341,28.82242 -34.07099,23.94871c-8.85756,-4.87371 -7.96438,-23.49779 1.99495,-41.59801z" fill="none" stroke="#000000" stroke-linecap="butt"/><path d="M246.36522,453.76203l29.9173,0.10993" fill="none" stroke="#000000" stroke-linecap="round"/></g></g><g data-paper-data="{&quot;index&quot;:null}"><g><path d="M-71.10623,429.71516c3.90851,20.28624 -0.97061,38.28199 -10.89797,40.19463c-9.92729,1.91269 -21.14346,-12.98197 -25.05197,-33.2682c-2.08176,-10.80489 10.66205,-47.20363 25.3805,-55.0757c12.91549,-6.90775 27.56098,14.0753 32.20077,13.18135c9.92732,-1.91269 -25.53993,14.68171 -21.63137,34.96787z" fill="#66abff" stroke="#000000" stroke-linecap="butt"/><path d="M-71.80718,450.9877c1.62163,8.41664 -7.64714,15.81132 -13.2582,16.89246c-5.6111,1.08109 -11.47436,-4.86552 -13.09599,-13.28217c-1.62163,-8.41664 29.61054,-68.52121 35.22164,-69.6023c2.05908,-0.39674 13.46732,3.2796 9.1696,12.97051c-3.09593,6.98103 -13.42021,13.41444 -16.47609,21.25815c-4.91423,12.61357 -1.88823,25.96245 -1.2553,29.24759z" fill="#4e83c3" stroke="none" stroke-linecap="butt"/><path d="M-70.28824,429.2494c3.90851,20.2862 -0.97065,38.28196 -10.89792,40.19463c-9.92732,1.91267 -21.14346,-12.98202 -25.05197,-33.2682c-2.08176,-10.80491 10.66203,-47.20365 25.3805,-55.07574c12.91549,-6.90775 27.56096,14.07532 32.20073,13.18137c9.92727,-1.91269 -25.53988,14.68169 -21.63133,34.96783z" fill="none" stroke="#000000" stroke-linecap="butt"/><path d="M-72.90694,424.07171l-28.50048,-9.09839" fill="none" stroke="#000000" stroke-linecap="round"/></g><path d="M-54.95322,365.02846c7.0261,-26.33141 32.17412,-42.48678 56.16968,-36.08394c23.99556,6.40277 37.75206,32.93914 30.72596,59.27055c-7.0261,26.33143 -32.17415,42.48678 -56.1697,36.08394c-23.99558,-6.40279 -37.75206,-32.93914 -30.72598,-59.27055z" fill="#66abff" stroke="#000000" stroke-linecap="butt"/><path d="M-56.01801,383.97986c3.96633,-14.86451 9.33288,-53.19098 30.56789,-47.52475c3.56265,0.95064 -11.73914,11.38323 -14.07438,29.34354c-2.21511,17.03628 5.79016,37.19531 9.47967,41.48915c15.60481,18.16088 53.5953,-12.79393 50.9256,-2.78878c-3.96635,14.86449 -24.39608,22.3212 -45.6311,16.65498c-21.23502,-5.66622 -35.23406,-22.30963 -31.26771,-37.17414z" fill="#4e83c3" stroke="none" stroke-linecap="butt"/><g data-paper-data="{&quot;index&quot;:null}"><path d="M42.87603,436.93058c1.12257,-20.62873 -36.26675,-32.26218 -26.17179,-31.71283c4.71813,0.25674 16.38406,-22.5179 30.11672,-17.42467c15.64969,5.80425 33.20993,40.13953 32.61204,51.12687c-1.12251,20.6288 -10.21609,36.90639 -20.31103,36.35707c-10.095,-0.5493 -17.3685,-17.71751 -16.24597,-38.34633z" fill="#66abff" stroke="#000000" stroke-linecap="butt"/><path d="M45.8102,455.46072c0.18175,-3.34061 1.37032,-16.97649 -5.20839,-28.80747c-4.09093,-7.35709 -15.19201,-12.3316 -19.20567,-18.82852c-5.57171,-9.01889 5.23288,-14.20776 7.32672,-14.09377c5.70586,0.3105 44.79725,55.62658 44.33151,64.18536c-0.46572,8.55878 -5.46877,15.24532 -11.17462,14.93482c-5.7058,-0.31052 -15.89142,-6.38053 -15.42568,-14.93931z" fill="#4e83c3" stroke="none" stroke-linecap="butt"/><path d="M42.0024,436.57999c1.12257,-20.62873 -36.2667,-32.26216 -26.17175,-31.71283c4.71811,0.25676 16.38404,-22.51794 30.1167,-17.42469c15.64973,5.80427 33.20993,40.13953 32.61204,51.12692c-1.12253,20.62875 -10.21609,36.90637 -20.31103,36.35707c-10.09494,-0.54932 -17.36848,-17.7176 -16.24595,-38.34637z" fill="none" stroke="#000000" stroke-linecap="butt"/><path d="M70.89914,418.21736l-27.00405,12.8778" fill="none" stroke="#000000" stroke-linecap="round"/></g><path d="M0.46016,331.40069c23.99558,6.40277 37.75206,32.93912 30.72596,59.27053c-7.0261,26.33143 -32.17408,42.48676 -56.16966,36.08392c-23.99558,-6.40277 -37.75204,-32.93912 -30.72593,-59.27053c7.0261,-26.33143 32.17406,-42.48678 56.16964,-36.08394z" fill="none" stroke="#000000" stroke-linecap="butt"/><g><path d="M-36.6792,440.91064c8.28037,18.92735 7.48438,37.55576 -1.778,41.60786c-9.26229,4.0521 -23.48342,-8.00661 -31.76377,-26.93393c-4.41028,-10.08112 0.00423,-48.39279 12.62755,-59.31314c11.077,-9.5826 29.98417,7.65972 34.31313,5.76586c9.26231,-4.0521 -21.67935,19.94607 -13.399,38.87331z" fill="#66abff" stroke="#000000" stroke-linecap="butt"/><path d="M-32.6779,461.81523c3.43546,7.85285 -3.97713,17.10729 -9.2123,19.39762c-5.23521,2.29033 -12.2642,-2.21895 -15.69966,-10.0718c-3.43546,-7.85285 13.79251,-73.36011 19.02776,-75.65044c1.92114,-0.84049 13.85895,0.23305 11.80105,10.63254c-1.48242,7.49145 -10.13631,16.04072 -11.38968,24.36486c-2.01558,13.38615 3.87606,25.74082 5.21695,28.80591z" fill="#4e83c3" stroke="none" stroke-linecap="butt"/><path d="M-35.98385,440.27617c8.28033,18.92728 7.48433,37.55576 -1.77796,41.60786c-9.26231,4.05208 -23.48346,-8.00667 -31.76377,-26.93393c-4.4103,-10.08114 0.00419,-48.39279 12.62755,-59.31316c11.077,-9.5826 29.98417,7.65974 34.31311,5.76589c9.26229,-4.05208 -21.67933,19.94604 -13.39896,38.87328z" fill="none" stroke="#000000" stroke-linecap="butt"/><path d="M-69.48307,433.20423l29.80449,2.59811" fill="none" stroke="#000000" stroke-linecap="round"/></g><g><path d="M8.65662,450.85051c9.95935,18.10028 10.85255,36.72429 1.99491,41.59801c-8.85756,4.87373 -24.11166,-5.84847 -34.07099,-23.94873c-5.30455,-9.64059 -4.37547,-48.19457 7.20775,-60.21254c10.1643,-10.54579 30.55434,4.91466 34.69415,2.6368c8.85758,-4.87373 -19.7852,21.82623 -9.82585,39.92643z" fill="#66abff" stroke="#000000" stroke-linecap="butt"/><path d="M14.5334,471.30718c4.13207,7.50969 -2.41255,17.39702 -7.41897,20.15175c-5.00643,2.75474 -12.41469,-1.09993 -16.54676,-8.60962c-4.13207,-7.50969 7.09666,-74.30732 12.10314,-77.06204c1.83719,-1.01091 13.82315,-1.02216 12.71488,9.52089c-0.79833,7.59488 -8.64298,16.89224 -9.13786,25.29565c-0.79585,13.51363 6.18976,25.2844 7.80253,28.21557z" fill="#4e83c3" stroke="none" stroke-linecap="butt"/><path d="M9.29169,450.1557c9.95933,18.10022 10.85251,36.72429 1.99495,41.59801c-8.85758,4.87371 -24.11171,-5.84851 -34.07099,-23.94873c-5.30457,-9.64062 -4.37549,-48.19459 7.20773,-60.21259c10.1643,-10.54579 30.55436,4.9147 34.69415,2.63684c8.85756,-4.87371 -19.78518,21.82621 -9.82583,39.92639z" fill="none" stroke="#000000" stroke-linecap="butt"/><path d="M-24.71008,446.14455l29.9173,-0.10993" fill="none" stroke="#000000" stroke-linecap="round"/></g></g></g></g></svg>