<svg version="1.1" xmlns="http://www.w3.org/2000/svg" xmlns:xlink="http://www.w3.org/1999/xlink" width="345.56886" height="518.78005" viewBox="0,0,345.56886,518.78005"><defs><linearGradient x1="321.87783" y1="238.55146" x2="369.94266" y2="324.57167" gradientUnits="userSpaceOnUse" id="color-1"><stop offset="0" stop-color="#0080b4" stop-opacity="0"/><stop offset="1" stop-color="#0080b4"/></linearGradient></defs><g transform="translate(-258.86535,-39.17767)"><g data-paper-data="{&quot;isPaintingLayer&quot;:true}" fill-rule="nonzero" stroke-width="5" stroke-linejoin="miter" stroke-miterlimit="10" stroke-dasharray="" stroke-dashoffset="0" style="mix-blend-mode: normal"><g data-paper-data="{&quot;index&quot;:null}"><path d="M579.71459,436.91286c16.31048,26.58466 4.53129,54.70342 -10.1298,63.69843c-6.04962,3.71162 -18.73189,7.74059 -32.30178,0.739c-19.31633,-9.96659 -40.76948,-34.78291 -50.34973,-50.39789c-16.31048,-26.58466 -28.19558,-33.16483 -13.53449,-42.15984c14.66109,-8.99501 90.00534,1.53566 106.31582,28.12032z" fill="#ffffff" stroke="#000000" stroke-linecap="butt"/><path d="M584.49208,434.73867c7.85945,12.81022 20.51026,49.594 3.55838,59.99449c-7.76533,4.76426 -34.25025,19.08599 -49.44016,15.37815c-17.97002,-4.38647 -24.55227,-27.88678 -28.81146,-34.82889c-7.36665,-12.00699 29.71577,33.52096 44.45779,22.83659c0.3082,-0.22335 44.84295,-16.04423 25.68511,-38.70377c-3.61951,-4.28108 -15.43758,-15.29875 -18.40568,-17.74169c-18.04027,-14.84843 -81.64728,-34.20619 -81.01979,-34.59118c16.95187,-10.40047 96.11638,14.8461 103.97583,27.65632z" fill="#c7c7c7" stroke="none" stroke-linecap="butt"/><path d="M581.0677,435.39611c8.02853,13.0858 21.36481,32.98062 13.11214,47.47862c-8.51316,14.95563 -38.86447,24.38335 -46.30893,28.95075c-14.66109,8.99501 -45.59686,-34.38005 -61.90734,-60.96471c-16.31048,-26.58466 -28.19558,-33.16483 -13.53449,-42.15984c14.66109,-8.99501 92.32813,0.11055 108.63861,26.69521z" fill="none" stroke="#000000" stroke-linecap="butt"/><path d="M560.12674,422.56945l-21.17006,13.88307l-48.43427,17.08874" fill="none" stroke="#000000" stroke-linecap="round"/></g><g data-paper-data="{&quot;index&quot;:null}"><path d="M429.2738,414.22031c14.66109,-8.99501 15.14272,4.58152 31.4532,31.16618c9.58027,15.615 21.98442,45.98314 22.11832,67.71873c0.09406,15.26941 -9.24339,24.7502 -15.29301,28.46182c-14.66109,8.99501 -45.06511,6.75691 -61.37559,-19.82775c-16.31048,-26.58466 8.436,-98.52397 23.09709,-107.51898z" fill="#ffffff" stroke="#000000" stroke-linecap="butt"/><path d="M424.52464,419.79065c0.62749,-0.38498 -10.93222,65.08982 -5.86813,87.89949c0.83317,3.75279 5.30116,19.27998 7.47788,24.44622c11.52129,27.34479 45.80171,-5.18977 46.14046,-5.36332c16.2038,-8.30178 -7.58374,-61.98657 -0.21709,-49.97958c4.25919,6.94211 22.22734,23.45686 17.99656,41.46415c-3.57624,15.22143 -28.34277,32.34399 -36.1081,37.10825c-16.95189,10.40049 -44.01274,-17.5423 -51.8722,-30.35252c-7.85945,-12.81022 5.49874,-94.82223 22.45061,-105.2227z" fill="#c7c7c7" stroke="none" stroke-linecap="butt"/><path d="M429.63142,413.31432c14.66109,-8.99501 15.14272,4.58152 31.4532,31.16618c16.31048,26.58466 40.96344,73.81441 26.30236,82.80942c-7.44444,4.56738 -29.59969,27.35402 -46.78929,28.1678c-16.66362,0.78888 -28.35764,-20.11351 -36.38616,-33.19931c-16.31048,-26.58466 10.75879,-99.94907 25.41988,-108.94408z" fill="none" stroke="#000000" stroke-linecap="butt"/><path d="M461.40889,449.75906l-37.17735,35.43654l-21.96759,12.58316" fill="none" stroke="#000000" stroke-linecap="round"/></g><g data-paper-data="{&quot;index&quot;:null}"><path d="M600.88454,370.72799c7.65725,31.59391 -44.41103,28.21664 -74.60594,33.72305c-30.19488,5.50641 -60.88012,-15.64168 -68.53738,-47.23558c-7.65725,-31.59391 -22.30301,-41.42983 7.89188,-46.93623c30.1949,-5.50641 127.59419,28.85486 135.25144,60.44877z" fill="#ffffff" stroke="#000000" stroke-linecap="butt"/><path d="M604.07696,365.11284c3.68977,15.224 -21.62155,32.7268 -56.53437,39.09359c-34.91286,6.36679 -66.20644,-0.8134 -69.89621,-16.03741c-3.45842,-14.26944 33.01034,-0.36838 64.53406,-7.59545c0.86385,-0.19805 56.37816,0.07595 43.34307,-13.76013c-18.78577,-19.94016 -108.40702,-56.2332 -107.11466,-56.46888c34.91283,-6.36678 121.97837,39.5443 125.66814,54.76831z" fill="#c7c7c7" stroke="none" stroke-linecap="butt"/><path d="M599.37404,370.38444c7.65725,31.59391 -44.41103,28.21664 -74.60594,33.72305c-30.19488,5.50641 -60.88012,-15.64168 -68.53738,-47.23558c-7.65725,-31.59391 -22.30301,-41.42983 7.89188,-46.93623c30.1949,-5.50641 127.59419,28.85486 135.25144,60.44877z" fill="none" stroke="#000000" stroke-linecap="butt"/><path d="M564.84482,341.62643l-12.30515,14.00514l-81.0033,19.10501" fill="none" stroke="#000000" stroke-linecap="round"/></g><g><path d="M359.3908,365.62393c22.81298,-13.99644 20.34146,1.87905 37.22467,29.39721c16.88321,27.51817 12.07617,61.17242 -10.73681,75.16886c-22.81298,13.99644 -53.30683,47.48444 -70.19004,19.96628c-16.88321,-27.51817 20.8892,-110.53591 43.70218,-124.53235z" fill="#ffffff" stroke="#000000" stroke-linecap="butt"/><path d="M309.8184,487.97942c-8.13543,-13.26005 15.18827,-98.50995 41.56578,-114.69333c0.97638,-0.59904 -30.56677,79.18625 -28.70454,104.87045c1.29215,17.82177 36.09005,-15.46551 36.77055,-15.83651c24.83273,-13.53832 38.2643,-45.37446 45.88963,-32.94583c8.13543,13.26005 -6.65271,37.12868 -33.03021,53.31206c-26.37751,16.18338 -54.35579,18.55323 -62.49123,5.29318z" fill="#c7c7c7" stroke="none" stroke-linecap="butt"/><path d="M360.10668,364.47403c22.81298,-13.99644 20.34146,1.87905 37.22467,29.39721c16.88321,27.51817 12.07617,61.17242 -10.73681,75.16886c-22.81298,13.99644 -53.30683,47.48444 -70.19004,19.96628c-16.88321,-27.51817 20.8892,-110.53591 43.70218,-124.53235z" fill="none" stroke="#000000" stroke-linecap="butt"/><path d="M399.96071,415.97325l-64.17735,34.39989l-17.37822,-2.84104" fill="none" stroke="#000000" stroke-linecap="round"/></g><g><path d="M385.86854,314.13914c18.95857,-15.56511 91.43054,5.98741 121.36345,42.44616c29.93291,36.45876 5.99179,74.0176 -12.96677,89.58272c-18.95854,15.5651 -62.85845,34.96723 -92.79135,-1.49152c-29.93292,-36.45877 -34.56388,-114.97224 -15.60532,-130.53736z" fill="#ffffff" stroke="#000000" stroke-linecap="butt"/><path d="M381.28013,354.83873c5.48034,-4.4994 5.91236,29.44175 18.10552,53.49654c12.8929,25.43521 37.7383,41.24391 50.15083,43.04824c14.90338,2.16641 34.49966,-13.20338 45.82568,-29.89392c15.77861,-23.25207 21.11827,-50.13567 25.15622,-45.21738c11.6335,14.16979 -1.57407,44.24296 -29.49994,67.1703c-27.92587,22.92734 -59.99507,30.02673 -71.62857,15.85695c-11.6335,-14.16979 -66.03561,-81.53336 -38.10974,-104.46071z" fill="#c7c7c7" stroke="none" stroke-linecap="butt"/><path d="M385.86854,314.13914c18.95857,-15.56511 91.43053,5.98739 121.36345,42.44616c29.93292,36.45877 5.99179,74.0176 -12.96677,89.58272c-18.95857,15.56511 -62.85843,34.96725 -92.79135,-1.49152c-29.93292,-36.45877 -34.56388,-114.97224 -15.60532,-130.53736z" fill="none" stroke="#000000" stroke-linecap="butt"/><path d="M499.43359,354.77841l-103.439,78.60921" fill="none" stroke="#000000" stroke-linecap="round"/></g><g><path d="M324.32958,90.75936c12.48264,-15.09434 50.46309,-19.80508 62.35102,-21.83068c21.1073,-3.59648 15.83437,28.19806 19.91789,52.16364c4.08352,23.96561 -9.71697,46.30908 -30.82429,49.90556c-21.1073,3.59648 -41.52851,-12.91594 -45.61202,-36.88152c-1.78363,-10.46784 -15.51319,-31.65098 -5.83259,-43.35701z" fill="#bd0000" stroke="#000000" stroke-linecap="butt"/><path d="M330.47332,133.01731c-1.78363,-10.46784 -15.51319,-31.65098 -5.83259,-43.35701c12.48263,-15.09432 50.46307,-19.80507 62.351,-21.83068c21.1073,-3.59648 15.83437,28.19806 19.91789,52.16364c4.08351,23.96558 -9.71699,46.30906 -30.8243,49.90554c-21.10732,3.59649 -41.52851,-12.91594 -45.61202,-36.88152z" fill="none" stroke="#000000" stroke-linecap="butt"/><path d="M368.73513,114.34937c11.43627,-1.92957 16.81527,20.51377 18.85615,32.60982c2.04091,12.09604 -0.02917,9.26429 -11.46545,11.19384c-11.43627,1.92957 -15.40346,6.85053 -17.44434,-5.24551c-2.04091,-12.09604 -1.38264,-36.62859 10.05363,-38.55815z" fill="#3b3b3b" stroke="#000000" stroke-linecap="butt"/><path d="M344.38734,145.24772c31.15254,-17.40687 68.40107,-10.0519 83.1969,16.42776c14.79584,26.47966 1.5361,62.05672 -29.61644,79.46359c-31.15254,17.40687 -68.40107,10.0519 -83.1969,-16.42776c-14.79584,-26.47966 -1.53612,-62.05671 29.61644,-79.46359z" fill="#f1f1f1" stroke="#000000" stroke-linecap="butt"/><path d="M351.91206,206.73389c-7.6155,-13.62924 -52.39325,-7.73347 -34.09114,-17.96002c5.89965,-3.2965 20.55078,-16.12852 35.53588,-20.16701c7.97428,-2.14907 35.5778,-0.92913 40.68651,-6.56675c1.7922,-1.97775 1.72555,-19.3343 -20.85527,-16.54773c-8.52817,1.05243 -46.04424,25.92526 -50.29188,25.03537c-8.08961,-1.69486 22.07272,-21.07781 21.5307,-22.71734c-1.81196,-5.48112 46.52488,-10.14315 51.58733,-9.36079c8.22929,1.27175 31.29209,29.35172 33.08346,32.55766c7.6155,13.62924 -11.95542,31.66122 -30.25754,41.88776c-18.30212,10.22653 -39.31254,7.46809 -46.92803,-6.16116z" fill="#cfcfcf" stroke="none" stroke-linecap="butt"/><path d="M344.38735,145.24768c31.15257,-17.40687 68.4011,-10.0519 83.19694,16.42777c14.79584,26.47969 1.53608,62.05676 -29.61646,79.46362c-31.15257,17.40687 -68.4011,10.0519 -83.19694,-16.42777c-14.79584,-26.47969 -1.53608,-62.05676 29.61646,-79.46362z" fill="none" stroke="#000000" stroke-linecap="butt"/><path d="M265.25826,266.95861c-11.53205,-20.63856 26.52702,-59.23292 66.0518,-81.31787c20.46741,-11.43642 40.1164,-12.15031 59.44732,-13.75313c17.99924,-1.4924 36.21108,-4.64373 41.7714,5.30744c2.92922,5.24236 13.20489,14.52108 26.40362,26.79538c12.80053,11.90402 19.79275,32.44251 20.68632,49.64647c1.81239,34.89383 -42.81927,79.38469 -62.56774,90.41939c-23.02292,12.86433 -91.65056,20.91069 -122.12967,-4.30088c-5.57059,-4.60788 -13.9717,-4.62853 -19.27291,-13.36588c-7.26818,-11.97928 -10.62519,-33.57545 -10.36785,-44.03361c0.29106,-11.82812 4.2249,-16.07535 2.32115,-19.48243z" fill="#ffffff" stroke="none" stroke-linecap="butt"/><path d="M273.63916,321.94391c-6.86667,-12.28905 -19.41351,-40.17948 -9.90625,-55.77674c8.86955,-14.55108 38.88034,-16.85139 58.14492,-27.6157c5.95412,-3.32694 26.39328,-22.49459 40.93716,-30.18377c13.87655,-7.33637 21.6928,-3.08927 34.65592,-10.80246c8.95409,-5.32777 13.73289,-18.52371 19.82072,-19.80198c37.78536,-7.93384 44.36514,30.28135 52.464,44.77563c13.27274,23.75383 -22.17752,74.38178 -62.09175,96.68433c-31.30855,17.49404 -88.87512,31.83724 -118.18347,22.29322c-8.05589,-2.62333 -12.9796,-14.45114 -15.84126,-19.57255z" fill="url(#color-1)" stroke="none" stroke-linecap="butt"/><path d="M331.86701,360.78339c-2.82862,-5.06228 60.39102,-15.23978 77.33022,-24.70476c6.59867,-3.68709 27.229,-21.19427 40.17457,-36.4653c20.28645,-23.9306 30.95276,-57.29503 32.67949,-54.20475c1.70054,3.04342 -0.27229,25.15208 -18.41759,52.1486c-12.03669,17.90816 -40.05018,43.43603 -46.80558,47.2107c-16.9392,9.46498 -82.13248,21.0778 -84.96109,16.01552z" fill="#c7c7c7" stroke="none" stroke-linecap="butt"/><path d="M295.4997,244.76752c14.89379,-9.86212 31.41164,-29.85442 51.85726,-41.27864c20.93494,-11.69765 33.92858,-12.83783 45.05341,-17.38365c9.77518,-3.99435 18.76456,-12.4614 21.41053,-7.726c5.65724,10.12458 -20.12517,14.02084 -59.45527,35.99702c-19.6911,11.00264 -27.99175,21.05086 -43.12009,30.46765c-15.08833,9.39189 -37.02668,18.17366 -39.85155,13.11809c-2.71634,-4.86136 10.34914,-4.08539 24.10572,-13.19447z" fill="#c7c7c7" stroke="none" stroke-linecap="butt"/><path d="M325.65619,188.57306c54.32227,-30.35323 117.67368,-20.39277 141.49933,22.24728c23.82565,42.64006 -0.89675,101.81281 -55.21901,132.16604c-54.32227,30.35323 -117.67368,20.39277 -141.49933,-22.24728c-23.82565,-42.64006 0.89675,-101.81281 55.21901,-132.16604z" fill="none" stroke="#000000" stroke-linecap="butt"/><path d="M477.03188,236.77501l-34.75846,61.98189l-67.68803,37.82151l-76.08504,4.57934" fill="none" stroke="#000000" stroke-linecap="round"/><path d="M419.03925,171.86318l-24.63724,30.42035l-13.89377,-3.33935l-57.81685,32.30587l-8.27493,16.65158l-43.03046,15.71681" fill="none" stroke="#000000" stroke-linecap="round"/><path d="M373.77355,259.99168c11.09811,-6.2012 21.74852,-8.26879 23.78839,-4.6181c2.03986,3.65069 -5.30327,11.63722 -16.40138,17.83842c-11.09811,6.2012 -21.74852,8.26879 -23.78839,4.6181c-2.03986,-3.65069 5.30327,-11.63722 16.40138,-17.83842z" fill="#008bb7" stroke="none" stroke-linecap="butt"/><path d="M357.32253,276.55756c-1.17147,-2.09655 -0.42156,-4.74581 1.67501,-5.91728c2.09655,-1.17147 4.74581,-0.42156 5.91728,1.67501c1.17147,2.09655 0.42156,4.74581 -1.67501,5.91728c-2.09655,1.17147 -4.74581,0.42156 -5.91728,-1.67501z" fill="#000000" stroke="none" stroke-linecap="butt"/><path d="M388.76332,260.31802c-1.17147,-2.09655 -0.42156,-4.74581 1.67501,-5.91728c2.09655,-1.17147 4.74581,-0.42156 5.91728,1.67501c1.17147,2.09655 0.42156,4.74581 -1.67501,5.91728c-2.09655,1.17147 -4.74581,0.42156 -5.91728,-1.67501z" fill="#000000" stroke="none" stroke-linecap="butt"/><path d="M330.74607,268.84696c5.28812,-2.9548 8.24293,2.33332 8.24293,2.33332l2.36384,4.23051c1.26709,2.46514 3.35678,4.65961 3.80127,7.39544c0.66404,4.08743 -0.25606,7.90383 -1.76642,11.58022c3.31489,1.10821 10.34169,3.41612 12.21602,3.48461c8.07937,0.29517 15.19478,-4.93094 22.12806,-8.31745c7.7687,-3.79455 15.4764,-7.5531 23.04768,-11.73036c3.59064,-1.98106 7.6824,-3.57521 10.4397,-6.80707c3.46784,-4.06474 3.87794,-9.58303 3.90661,-14.61638l-0.93559,-1.80978c0,0 -1.46819,-4.0932 2.62499,-5.56138c4.0932,-1.46819 5.56138,2.62499 5.56138,2.62499l1.44591,4.82965c-0.09152,7.08804 -1.09939,14.44114 -5.91999,20.0982c-3.85656,4.52573 -7.64502,5.92583 -12.91038,8.8505c-7.68906,4.27093 -15.54234,8.07719 -23.44327,11.93631c-8.64828,4.22419 -16.31898,9.42825 -26.38025,9.18892c-3.30913,-0.07871 -12.25596,-3.17939 -15.6437,-4.29617c-0.88212,1.69549 -1.73332,3.38079 -2.44457,5.07028c0,0 -2.36012,5.57897 -7.9391,3.21886c-5.57897,-2.36012 -3.21886,-7.9391 -3.21886,-7.9391c3.25435,-7.65907 9.70902,-13.75169 4.85428,-21.29071l-2.36384,-4.23051c0,0 -2.9548,-5.28812 2.33332,-8.24293z" fill="#000000" stroke="none" stroke-linecap="butt"/><path d="M357.55979,86.33751c12.26632,-6.85395 26.79624,-4.20259 32.45347,5.922c5.65724,10.12458 0.29952,23.88841 -11.96681,30.74236c-12.26632,6.85395 -26.79624,4.20259 -32.45347,-5.922c-5.65724,-10.12458 -0.29952,-23.88841 11.96681,-30.74236z" fill="#e60000" stroke="none" stroke-linecap="butt"/><path d="M286.23059,135.54355c-3.01744,-7.32027 -30.70552,-35.61027 -11.21911,-43.64262c8.91497,-3.67479 13.81818,7.85581 30.19355,10.94231c19.41792,3.65999 49.95509,-0.35871 51.59206,3.61255c1.85467,4.49938 -18.62062,9.96148 -30.83459,25.04867c-7.65749,9.45889 -5.47887,30.32452 -12.98801,33.41981c-19.48637,8.03237 -23.72643,-22.06046 -26.74386,-29.38074z" fill="#e60000" stroke="none" stroke-linecap="butt"/><path d="M428.84407,78.34357c3.36998,7.14775 21.09895,31.62046 6.57992,37.48997c-5.59493,2.26181 -18.24913,-14.24905 -28.08919,-16.53379c-15.69513,-3.64422 -28.99739,4.69252 -31.06875,0.29916c-1.82823,-3.87767 15.30321,-19.31809 22.1193,-33.66417c5.74807,-12.0982 0.51112,-23.4474 7.15353,-26.13269c14.51901,-5.86949 19.93519,31.39378 23.30519,38.54151z" data-paper-data="{&quot;index&quot;:null}" fill="#e60000" stroke="none" stroke-linecap="butt"/></g></g></g></svg>