<svg version="1.1" xmlns="http://www.w3.org/2000/svg" xmlns:xlink="http://www.w3.org/1999/xlink" width="338.19236" height="618.07248" viewBox="0,0,338.19236,618.07248"><g transform="translate(107.48242,-31.43481)"><g data-paper-data="{&quot;isPaintingLayer&quot;:true}" fill-rule="nonzero" stroke-width="7" stroke-linejoin="miter" stroke-miterlimit="10" stroke-dasharray="" stroke-dashoffset="0" style="mix-blend-mode: normal"><g data-paper-data="{&quot;index&quot;:null}" stroke-linecap="butt"><g data-paper-data="{&quot;index&quot;:null}"><g><g><path d="M175.74338,283.87616l-66.22893,-74.85596l17.86304,-30.4622l66.2289,74.85602z" fill="#252525" stroke="#000000"/><path d="M175.74338,283.87616l-66.22893,-74.85596l17.86304,-30.4622l66.2289,74.85602z" fill="#252525" stroke="#000000"/><path d="M114.40251,214.21692c-4.81398,-5.44104 23.71327,25.95735 35.50264,36.18187c11.24483,9.75227 5.64032,-1.71383 6.86654,-3.80487c1.19209,-2.03292 19.13558,3.89879 9.11625,-15.72388c-6.08417,-11.91566 -44.24893,-54.55777 -40.0906,-52.82317c3.42213,1.42754 65.01877,72.57677 67.24962,75.09819c2.66414,3.0112 -0.49573,1.07899 -1.48017,3.48012c-2.49107,6.07591 -9.78912,14.94455 -11.5894,18.0146c-1.61423,2.75276 9.47961,21.19021 -12.26554,-0.32684c-12.09011,-11.96327 -49.94851,-56.29734 -53.30935,-60.09595z" fill="#141414" stroke="none"/><path d="M175.74338,283.87616l-66.22893,-74.85596l17.86304,-30.4622l66.2289,74.85602z" fill="none" stroke="#000000"/><path d="M175.74338,283.87616l-66.22893,-74.85596l17.86304,-30.4622l66.2289,74.85602z" fill="none" stroke="#000000"/></g><g><path d="M141.90229,257.03769l-13.40934,-15.15604l26.09769,-44.50486l13.40934,15.15604z" fill="#252525" stroke="#000000"/><path d="M141.90229,257.03769l-13.40934,-15.15604l26.09769,-44.50486l13.40934,15.15604z" fill="#252525" stroke="#000000"/><path d="M129.6282,242.68561c-0.97467,-1.10166 5.17618,4.61612 8.9393,4.33955c3.58927,-0.26381 4.73213,-6.4693 6.52357,-9.52427c1.74162,-2.97002 11.74324,-12.62957 13.39763,-22.88324c1.00463,-6.22644 -6.94185,-14.4862 -4.78383,-16.37941c1.77598,-1.55802 13.56886,14.00468 14.02052,14.51518c1.90433,2.15242 -12.06848,26.28412 -15.73812,32.54201c-2.35838,4.02183 -5.73453,11.47859 -11.49567,9.43856c-3.20312,-1.13426 -10.18297,-11.27933 -10.86343,-12.04839z" fill="#141414" stroke="none"/><path d="M141.90229,257.03769l-13.40934,-15.15604l26.09769,-44.50486l13.40934,15.15604z" fill="none" stroke="#000000"/><path d="M141.90229,257.03769l-13.40934,-15.15604l26.09769,-44.50486l13.40934,15.15604z" fill="none" stroke="#000000"/></g><g><path d="M161.61462,283.71589l-13.40934,-15.15607l29.48517,-50.28161l13.40935,15.15609z" fill="#252525" stroke="#000000"/><path d="M161.61462,283.71589l-13.40934,-15.15607l29.48517,-50.28161l13.40935,15.15609z" fill="#252525" stroke="#000000"/><path d="M149.36246,269.32636c-0.97469,-1.10166 5.23264,4.51978 9.20313,3.88962c3.78708,-0.6011 5.27305,-7.3918 7.29701,-10.84335c1.96773,-3.35556 12.92896,-14.65155 15.13832,-25.85157c1.34158,-6.8011 -6.63795,-15.00457 -4.28158,-17.23597c1.93919,-1.83633 13.62986,13.90074 14.08153,14.41124c1.90433,2.1524 -13.89605,29.40071 -18.04201,36.47088c-2.66451,4.54383 -6.55663,12.88058 -12.52245,11.18961c-3.31695,-0.94019 -10.19351,-11.26132 -10.87392,-12.03041z" fill="#141414" stroke="none"/><path d="M161.61462,283.71589l-13.40934,-15.15607l29.48517,-50.28161l13.40935,15.15609z" fill="none" stroke="#000000"/><path d="M161.61462,283.71589l-13.40934,-15.15607l29.48517,-50.28161l13.40935,15.15609z" fill="none" stroke="#000000"/></g></g><g><path d="M114.30581,230.69567l-15.40104,-17.40723l30.453,-51.93213l15.40109,17.40721z" fill="#252525" stroke="#000000"/><path d="M114.30581,230.69567l-15.40104,-17.40723l30.453,-51.93213l15.40109,17.40721z" fill="#252525" stroke="#000000"/><path d="M110.5161,219.12704c4.15037,-0.35068 5.51142,-7.56064 7.60187,-11.12545c2.03232,-3.46572 13.65519,-14.79143 15.63376,-26.70189c1.20148,-7.23254 -7.93,-16.7112 -5.42339,-18.93341c2.06289,-1.82877 15.59291,16.07017 16.11166,16.65649c2.1872,2.47212 -14.11945,30.62884 -18.40149,37.93111c-2.75199,4.693 -6.70255,13.38172 -13.34833,11.08807c-3.695,-1.27526 -11.69694,-12.95204 -12.47846,-13.8354c-1.11947,-1.26525 5.95299,5.28815 10.30435,4.92052z" fill="#141414" stroke="none"/><path d="M114.30581,230.69567l-15.40104,-17.40723l30.453,-51.93213l15.40109,17.40721z" fill="none" stroke="#000000"/><path d="M114.30581,230.69567l-15.40104,-17.40723l30.453,-51.93213l15.40109,17.40721z" fill="none" stroke="#000000"/></g></g><g data-paper-data="{&quot;index&quot;:null}"><g><g><path d="M200.04468,272.83687l6.88904,112.39169l-24.35456,-0.55005l-6.88903,-112.39166z" fill="#252525" stroke="#000000"/><path d="M200.04468,272.83687l6.88904,112.39169l-24.35456,-0.55005l-6.88903,-112.39166z" fill="#252525" stroke="#000000"/><path d="M182.24048,376.58328c-0.34958,-5.70338 -5.08666,-70.89073 -5.46364,-90.37095c-0.67802,-35.03696 3.52845,-12.61638 5.72929,-12.5667c2.45451,0.05543 10.55366,-1.89935 14.8959,-0.70887c1.71599,0.47043 2.23563,-3.89302 2.51277,0.62807c0.23204,3.78576 7.43047,109.24806 6.52353,113.56847c-1.10208,5.24986 -4.81623,-59.21547 -8.0568,-72.61081c-5.33654,-22.05934 -10.89581,-0.3523 -12.52115,-0.38901c-1.67179,-0.03773 -4.91033,-12.67549 -5.27111,4.60519c-0.37823,18.11751 2.15193,66.01401 1.65116,57.84458z" fill="#141414" stroke="none"/><path d="M200.04468,272.83687l6.88904,112.39169l-24.35456,-0.55005l-6.88903,-112.39166z" fill="none" stroke="#000000"/><path d="M200.04468,272.83687l6.88904,112.39169l-24.35456,-0.55005l-6.88903,-112.39166z" fill="none" stroke="#000000"/></g><g><path d="M208.88686,323.56641l1.39482,22.75589l-35.58168,-0.80363l-1.39483,-22.75589z" fill="#252525" stroke="#000000"/><path d="M208.88686,323.56641l1.39482,22.75589l-35.58168,-0.80363l-1.39483,-22.75589z" fill="#252525" stroke="#000000"/><path d="M176.88301,332.2263c-1.95279,3.62586 -1.95173,13.31192 -2.05314,11.65785c-0.07076,-1.15475 -1.96429,-14.3743 -1.0109,-18.29521c1.71476,-7.0521 7.19724,-5.91265 10.41268,-5.84c5.0032,0.11301 24.21092,0.72825 24.40901,3.95996c0.04698,0.76651 2.4296,22.14028 0.76922,22.98168c-2.01753,1.02241 -2.47056,-12.02307 -6.17589,-14.8041c-6.10191,-4.57976 -15.91046,-0.38087 -18.28502,-0.4345c-2.44245,-0.05514 -6.20339,-2.68401 -8.066,0.77436z" fill="#141414" stroke="none"/><path d="M208.88686,323.56641l1.39482,22.75589l-35.58168,-0.80363l-1.39483,-22.75589z" fill="none" stroke="#000000"/><path d="M208.88686,323.56641l1.39482,22.75589l-35.58168,-0.80363l-1.39483,-22.75589z" fill="none" stroke="#000000"/></g><g><path d="M209.17884,287.53861l1.39483,22.75591l-40.20019,-0.90792l-1.39482,-22.75592z" fill="#252525" stroke="#000000"/><path d="M209.17884,287.53861l1.39483,22.75591l-40.20019,-0.90792l-1.39482,-22.75592z" fill="#252525" stroke="#000000"/><path d="M170.53318,307.75266c-0.0708,-1.15476 -2.10511,-14.37748 -0.99655,-18.29488c1.99386,-7.04575 8.17985,-5.89042 11.81266,-5.80836c5.65263,0.12769 27.35208,0.7992 27.55016,4.03091c0.047,0.76648 2.56899,22.14346 0.68611,22.97982c-2.28789,1.01629 -2.69589,-12.02821 -6.86066,-14.81959c-6.85851,-4.59684 -17.97547,-0.42748 -20.65824,-0.48806c-2.75948,-0.06231 -6.98831,-2.70179 -9.12058,0.75049c-2.23548,3.61954 -2.31145,13.30381 -2.41286,11.64974z" fill="#141414" stroke="none"/><path d="M209.17884,287.53861l1.39483,22.75591l-40.20019,-0.90792l-1.39482,-22.75592z" fill="none" stroke="#000000"/><path d="M209.17884,287.53861l1.39483,22.75591l-40.20019,-0.90792l-1.39482,-22.75592z" fill="none" stroke="#000000"/></g></g><g><path d="M215.18602,367.57753l1.60198,26.1359l-41.51976,-0.93781l-1.602,-26.1359z" fill="#252525" stroke="#000000"/><path d="M215.18602,367.57753l1.60198,26.1359l-41.51976,-0.93781l-1.602,-26.1359z" fill="#252525" stroke="#000000"/><path d="M177.83052,377.51007c-2.28282,4.16352 -2.29251,15.28798 -2.40896,13.38824c-0.0813,-1.3263 -2.27598,-16.5098 -1.15901,-21.01259c2.00896,-8.09862 8.40518,-6.78771 12.15725,-6.70296c5.83816,0.13187 28.25117,0.84647 28.47868,4.55819c0.05396,0.88035 2.81018,25.42929 0.87176,26.39495c-2.35545,1.17339 -2.86938,-13.80968 -7.19004,-17.00521c-7.11522,-5.26244 -18.56566,-0.44401 -21.33654,-0.5066c-2.85006,-0.06434 -7.23576,-3.08522 -9.41313,0.88601z" fill="#141414" stroke="none"/><path d="M215.18602,367.57753l1.60198,26.1359l-41.51976,-0.93781l-1.602,-26.1359z" fill="none" stroke="#000000"/><path d="M215.18602,367.57753l1.60198,26.1359l-41.51976,-0.93781l-1.602,-26.1359z" fill="none" stroke="#000000"/></g></g></g><g stroke-linecap="butt"><g data-paper-data="{&quot;index&quot;:null}"><g><g><path d="M-65.24359,259.53956l60.66721,-79.43034l20.01003,29.09697l-60.66721,79.4303z" fill="#252525" stroke="#000000"/><path d="M-65.24359,259.53956l60.66721,-79.43034l20.01003,29.09697l-60.66721,79.4303z" fill="#252525" stroke="#000000"/><path d="M10.9325,214.7414c-3.07861,4.03075 -37.64659,50.97564 -48.84391,63.77837c-20.1394,23.0269 -10.40192,3.83852 -12.21017,1.20914c-2.01666,-2.93246 -9.93434,-11.2526 -12.85642,-17.13339c-1.15477,-2.32401 -4.1673,-0.1693 -1.72689,-3.36451c2.04349,-2.6755 58.35736,-78.07515 61.66784,-79.74538c4.02262,-2.02949 -30.97277,43.24988 -36.18316,55.57269c-8.58048,20.29314 8.88938,13.08486 10.22474,15.02667c1.3736,1.99731 -3.39079,13.83719 7.12267,3.30059c11.02258,-11.04684 37.21501,-44.41778 32.80532,-38.64423z" fill="#141414" stroke="none"/><path d="M-65.24359,259.53956l60.66721,-79.43034l20.01003,29.09697l-60.66721,79.4303z" fill="none" stroke="#000000"/><path d="M-65.24359,259.53956l60.66721,-79.43034l20.01003,29.09697l-60.66721,79.4303z" fill="none" stroke="#000000"/></g><g><path d="M-42.64719,216.92077l12.28327,-16.08221l29.23441,42.51025l-12.28326,16.08221z" fill="#252525" stroke="#000000"/><path d="M-42.64719,216.92077l12.28327,-16.08221l29.23441,42.51025l-12.28326,16.08221z" fill="#252525" stroke="#000000"/><path d="M-2.20389,244.23245c-0.62332,0.81606 -6.8546,11.43737 -9.96773,12.79931c-5.5993,2.44955 -9.50359,-4.74477 -12.14543,-8.58635c-4.11071,-5.97742 -19.78478,-29.04042 -18.04037,-31.32436c0.41372,-0.5417 11.05545,-16.91312 12.93903,-15.48701c2.28874,1.73291 -5.04237,10.5434 -3.59203,16.68135c2.38838,10.10793 13.05954,19.02227 15.01049,21.85918c2.00675,2.91804 3.59343,9.02514 7.1924,9.02984c3.77325,0.0049 9.49647,-6.14092 8.60364,-4.97194z" fill="#141414" stroke="none"/><path d="M-42.64719,216.92077l12.28327,-16.08221l29.23441,42.51025l-12.28326,16.08221z" fill="none" stroke="#000000"/><path d="M-42.64719,216.92077l12.28327,-16.08221l29.23441,42.51025l-12.28326,16.08221z" fill="none" stroke="#000000"/></g><g><path d="M-64.18207,239.43124l12.28326,-16.08226l33.02906,48.02811l-12.28327,16.08224z" fill="#252525" stroke="#000000"/><path d="M-64.18207,239.43124l12.28326,-16.08226l33.02906,48.02811l-12.28327,16.08224z" fill="#252525" stroke="#000000"/><path d="M-19.96875,272.22502c-0.62328,0.81608 -6.73887,11.60554 -9.97948,12.78213c-5.82857,2.11613 -10.31087,-5.91875 -13.29561,-10.25893c-4.64428,-6.75331 -22.36559,-32.79324 -20.62117,-35.07716c0.41374,-0.5417 10.94094,-17.07968 13.00732,-15.38773c2.51091,2.05594 -4.85723,10.81266 -3.02944,17.49951c3.01006,11.01187 14.75616,21.48931 16.96039,24.69448c2.26725,3.29686 4.23829,9.96294 8.05884,10.2898c4.00556,0.34264 9.79203,-5.71115 8.89918,-4.54217z" fill="#141414" stroke="none"/><path d="M-64.18207,239.43124l12.28326,-16.08226l33.02906,48.02811l-12.28327,16.08224z" fill="none" stroke="#000000"/><path d="M-64.18207,239.43124l12.28326,-16.08226l33.02906,48.02811l-12.28327,16.08224z" fill="none" stroke="#000000"/></g></g><g><path d="M-21.89781,181.56569l14.10773,-18.47093l34.11318,49.60466l-14.10773,18.47096z" fill="#252525" stroke="#000000"/><path d="M-21.89781,181.56569l14.10773,-18.47093l34.11318,49.60466l-14.10773,18.47096z" fill="#252525" stroke="#000000"/><path d="M15.16234,219.35893c4.36654,0.05337 10.94881,-6.99226 9.92334,-5.64968c-0.71589,0.93733 -7.85631,13.15996 -11.44992,14.69797c-6.46336,2.76621 -11.0293,-5.61552 -14.11203,-10.09819c-4.79671,-6.97498 -23.08837,-33.88452 -21.08485,-36.50771c0.47518,-0.62214 12.68135,-19.44882 14.87053,-17.77333c2.66014,2.03596 -5.76517,12.14751 -4.04605,19.27477c2.83103,11.73709 15.23919,22.19651 17.51576,25.50691c2.34169,3.40504 4.21835,10.49829 8.3832,10.54923z" fill="#141414" stroke="none"/><path d="M-21.89781,181.56569l14.10773,-18.47093l34.11318,49.60466l-14.10773,18.47096z" fill="none" stroke="#000000"/><path d="M-21.89781,181.56569l14.10773,-18.47093l34.11318,49.60466l-14.10773,18.47096z" fill="none" stroke="#000000"/></g></g><g data-paper-data="{&quot;index&quot;:null}"><g><g><path d="M-46.01492,277.0734l1.2213,112.59598l-24.25173,2.3022l-1.22127,-112.596z" fill="#252525" stroke="#000000"/><path d="M-46.01492,277.0734l1.2213,112.59598l-24.25173,2.3022l-1.22127,-112.596z" fill="#252525" stroke="#000000"/><path d="M-45.03867,381.57075c0.08877,8.18428 -0.83629,-39.77008 -2.51805,-57.81334c-1.6041,-17.20984 -3.92427,-4.3717 -5.58901,-4.21371c-1.61846,0.15365 -8.72628,-21.09677 -12.46063,1.28955c-2.26766,13.59391 -1.33053,78.15934 -2.80775,73.00246c-1.21566,-4.2439 -1.62944,-109.95076 -1.67059,-113.74341c-0.04911,-4.52932 0.78336,-0.2146 2.46102,-0.80737c4.24525,-1.50004 12.46413,-0.1335 14.90828,-0.36551c2.19157,-0.20803 4.77276,-22.87329 6.61928,12.12156c1.02662,19.45681 0.99546,84.81604 1.05744,90.52978z" fill="#141414" stroke="none"/><path d="M-46.01492,277.0734l1.2213,112.59598l-24.25173,2.3022l-1.22127,-112.596z" fill="none" stroke="#000000"/><path d="M-46.01492,277.0734l1.2213,112.59598l-24.25173,2.3022l-1.22127,-112.596z" fill="none" stroke="#000000"/></g><g><path d="M-40.00176,327.24661l0.24724,22.79726l-35.43149,3.36349l-0.24727,-22.79726z" fill="#252525" stroke="#000000"/><path d="M-40.00176,327.24661l0.24724,22.79726l-35.43149,3.36349l-0.24727,-22.79726z" fill="#252525" stroke="#000000"/><path d="M-42.88892,336.9432c-2.10678,-3.31528 -5.66868,-0.42243 -8.10082,-0.19157c-2.36455,0.22447 -12.44995,-3.25729 -18.20628,1.74993c-3.49546,3.04061 -3.00803,16.08484 -5.09395,15.21036c-1.71664,-0.71966 -0.87915,-22.20952 -0.88748,-22.97742c-0.03512,-3.23758 19.07845,-5.23423 24.06053,-5.70718c3.20186,-0.30398 8.58809,-1.83522 10.80617,5.07511c1.23322,3.8421 0.29646,17.16367 0.30902,18.32051c0.01795,1.65708 -0.67841,-8.00391 -2.8872,-11.47976z" fill="#141414" stroke="none"/><path d="M-40.00176,327.24661l0.24724,22.79726l-35.43149,3.36349l-0.24727,-22.79726z" fill="none" stroke="#000000"/><path d="M-40.00176,327.24661l0.24724,22.79726l-35.43149,3.36349l-0.24727,-22.79726z" fill="none" stroke="#000000"/></g><g><path d="M-38.28807,290.89678l0.24727,22.79728l-40.03047,3.80008l-0.24727,-22.79728z" fill="#252525" stroke="#000000"/><path d="M-38.28807,290.89678l0.24727,22.79728l-40.03047,3.80008l-0.24727,-22.79728z" fill="#252525" stroke="#000000"/><path d="M-38.31778,312.07592c0.01795,1.65708 -0.75511,-7.99659 -3.2454,-11.44577c-2.37531,-3.2898 -6.40309,-0.35268 -9.15094,-0.09184c-2.67148,0.25359 -14.05976,-3.10451 -20.56948,1.97423c-3.95298,3.08402 -3.42069,16.12404 -5.77581,15.27512c-1.93819,-0.69862 -0.96194,-22.2017 -0.97025,-22.96957c-0.03512,-3.23758 21.55966,-5.46977 27.1884,-6.00413c3.61745,-0.34342 9.70423,-1.94115 12.20022,4.94275c1.38774,3.82742 0.31077,17.16229 0.32331,18.31915z" fill="#141414" stroke="none"/><path d="M-38.28807,290.89678l0.24727,22.79728l-40.03047,3.80008l-0.24727,-22.79728z" fill="none" stroke="#000000"/><path d="M-38.28807,290.89678l0.24727,22.79728l-40.03047,3.80008l-0.24727,-22.79728z" fill="none" stroke="#000000"/></g></g><g><path d="M-37.20266,371.03567l0.284,26.18341l-41.34447,3.92489l-0.28402,-26.18341z" fill="#252525" stroke="#000000"/><path d="M-37.20266,371.03567l0.284,26.18341l-41.34447,3.92489l-0.28402,-26.18341z" fill="#252525" stroke="#000000"/><path d="M-40.57348,382.17766c-2.45765,-3.80415 -6.61447,-0.47532 -9.45251,-0.20594c-2.75918,0.26194 -14.52684,-3.71951 -21.24469,2.04158c-4.07934,3.49834 -3.51314,18.47951 -5.94694,17.47877c-2.00293,-0.82359 -1.02143,-25.50727 -1.031,-26.38922c-0.04034,-3.71846 22.26305,-6.045 28.07656,-6.59688c3.73622,-0.35468 10.02147,-2.12272 12.60832,5.81023c1.43828,4.41067 0.34254,19.71278 0.35693,21.04149c0.02064,1.90319 -0.78999,-9.19171 -3.36667,-13.18004z" fill="#141414" stroke="none"/><path d="M-37.20266,371.03567l0.284,26.18341l-41.34447,3.92489l-0.28402,-26.18341z" fill="none" stroke="#000000"/><path d="M-37.20266,371.03567l0.284,26.18341l-41.34447,3.92489l-0.28402,-26.18341z" fill="none" stroke="#000000"/></g></g></g><g data-paper-data="{&quot;index&quot;:null}" stroke-linecap="butt"><g data-paper-data="{&quot;index&quot;:null}"><g><g><path d="M128.09236,464.3351l-4.70113,113.2066l-40.97719,-0.06564l4.70114,-113.20662z" fill="#252525" stroke="#000000"/><path d="M128.09236,464.3351l-4.70113,113.2066l-40.97719,-0.06564l4.70114,-113.20662z" fill="#252525" stroke="#000000"/><path d="M83.01811,569.31895c0.23857,-5.74472 1.71533,-71.38984 3.90755,-91.02771c3.94297,-35.32051 7.77966,-12.79423 11.48266,-12.78832c4.1298,0.00661 18.06712,-2.12739 25.2145,-1.01402c2.82455,0.44 4.33398,-3.97093 4.14487,0.58293c-0.15836,3.8132 -3.33208,110.02544 -5.48815,114.40071c-2.61992,5.3165 0.47646,-59.62099 -3.04203,-73.06488c-5.79422,-22.13929 -18.31706,-0.13647 -21.05171,-0.14087c-2.81284,-0.00447 -6.43793,-12.68439 -9.55458,4.7501c-3.26757,18.27879 -5.95483,66.53071 -5.61312,58.30205z" fill="#141414" stroke="none"/><path d="M128.09236,464.3351l-4.70113,113.2066l-40.97719,-0.06564l4.70114,-113.20662z" fill="none" stroke="#000000"/><path d="M128.09236,464.3351l-4.70113,113.2066l-40.97719,-0.06564l4.70114,-113.20662z" fill="none" stroke="#000000"/></g><g><path d="M135.63463,515.31728l-0.95183,22.92088l-59.86715,-0.0959l0.95181,-22.9209z" fill="#252525" stroke="#000000"/><path d="M135.63463,515.31728l-0.95183,22.92088l-59.86715,-0.0959l0.95181,-22.9209z" fill="#252525" stroke="#000000"/><path d="M80.4253,524.69334c-3.81837,3.69583 -5.22259,13.464 -5.15343,11.79795c0.04831,-1.16314 -1.22486,-14.45679 0.95154,-18.43009c3.91445,-7.14634 12.99144,-6.10731 18.40149,-6.09863c8.418,0.01347 40.70916,0.24823 40.57399,3.50336c-0.03206,0.77205 0.88198,22.27925 -2.03921,23.16114c-3.54959,1.0716 -2.41964,-12.07544 -8.26242,-14.80565c-9.62182,-4.49605 -26.76664,-0.0646 -30.76191,-0.07098c-4.10952,-0.00657 -10.06809,-2.58223 -13.7101,0.9429z" fill="#141414" stroke="none"/><path d="M135.63463,515.31728l-0.95183,22.92088l-59.86715,-0.0959l0.95181,-22.9209z" fill="none" stroke="#000000"/><path d="M135.63463,515.31728l-0.95183,22.92088l-59.86715,-0.0959l0.95181,-22.9209z" fill="none" stroke="#000000"/></g><g><path d="M141.35664,478.97806l-0.95183,22.9209l-67.63789,-0.10833l0.95184,-22.9209z" fill="#252525" stroke="#000000"/><path d="M141.35664,478.97806l-0.95183,22.9209l-67.63789,-0.10833l0.95184,-22.9209z" fill="#252525" stroke="#000000"/><path d="M73.27341,500.13963c0.04829,-1.1631 -1.46178,-14.45712 0.97568,-18.43001c4.384,-7.14555 14.6447,-6.10465 20.75698,-6.09484c9.51067,0.01523 45.9942,0.25671 45.85904,3.51184c-0.03208,0.77204 1.11649,22.27968 -2.17906,23.16096c-4.00448,1.07083 -2.79875,-12.07612 -9.41455,-14.80752c-10.89486,-4.49811 -30.24105,-0.07013 -34.75493,-0.07735c-4.64293,-0.00743 -11.38875,-2.58438 -15.48445,0.94001c-4.29399,3.69511 -5.82787,13.46303 -5.75868,11.797z" fill="#141414" stroke="none"/><path d="M141.35664,478.97806l-0.95183,22.9209l-67.63789,-0.10833l0.95184,-22.9209z" fill="none" stroke="#000000"/><path d="M141.35664,478.97806l-0.95183,22.9209l-67.63789,-0.10833l0.95184,-22.9209z" fill="none" stroke="#000000"/></g></g><g><path d="M139.86517,559.57519l-1.09324,26.3254l-69.85811,-0.11196l1.09322,-26.32541z" fill="#252525" stroke="#000000"/><path d="M139.86517,559.57519l-1.09324,26.3254l-69.85811,-0.11196l1.09322,-26.32541z" fill="#252525" stroke="#000000"/><path d="M75.44927,570.34219c-4.45273,4.24467 -6.0839,15.4637 -6.00443,13.55017c0.05544,-1.33591 -1.4403,-16.60415 1.09629,-21.16753c4.5623,-8.20766 15.15484,-7.01407 21.46777,-7.00396c9.82286,0.01575 47.50311,0.28631 47.34785,4.02494c-0.03682,0.88674 1.04613,25.58854 -2.36185,26.6013c-4.14114,1.23065 -2.83262,-13.86918 -9.65253,-17.00506c-11.23096,-5.16417 -31.23364,-0.07496 -35.89569,-0.08245c-4.79532,-0.00767 -11.75027,-2.96609 -15.99733,1.08254z" fill="#141414" stroke="none"/><path d="M139.86517,559.57519l-1.09324,26.3254l-69.85811,-0.11196l1.09322,-26.32541z" fill="none" stroke="#000000"/><path d="M139.86517,559.57519l-1.09324,26.3254l-69.85811,-0.11196l1.09322,-26.32541z" fill="none" stroke="#000000"/></g></g><g data-paper-data="{&quot;index&quot;:null}"><g><g><path d="M90.56465,481.46532l-24.18967,-110.24784l40.1578,-8.75937l24.18964,110.24787z" fill="#252525" stroke="#000000"/><path d="M90.56465,481.46532l-24.18967,-110.24784l40.1578,-8.75937l24.18964,110.24787z" fill="#252525" stroke="#000000"/><path d="M68.37813,379.10508c-1.75825,-8.01358 9.2221,38.8322 15.58688,56.10096c6.07079,16.47116 7.43118,3.24171 10.18777,2.64045c2.67994,-0.58459 18.76163,18.37985 20.61221,-4.60535c1.12372,-13.95756 -13.14375,-77.11301 -9.65592,-72.44454c2.87033,3.84199 24.3529,107.54073 25.1677,111.25427c0.97305,4.43489 -1.26958,0.42064 -3.96231,1.45234c-6.81384,2.61066 -20.84548,3.47096 -24.89271,4.35375c-3.62892,0.79154 -3.49365,23.74169 -13.46821,-10.13027c-5.54575,-18.83253 -18.34793,-83.02699 -19.57547,-88.6216z" fill="#141414" stroke="none"/><path d="M90.56465,481.46532l-24.18967,-110.24784l40.1578,-8.75937l24.18964,110.24787z" fill="none" stroke="#000000"/><path d="M90.56465,481.46532l-24.18967,-110.24784l40.1578,-8.75937l24.18964,110.24787z" fill="none" stroke="#000000"/></g><g><path d="M70.62761,433.8039l-4.89764,-22.32183l58.67004,-12.79725l4.89767,22.32182z" fill="#252525" stroke="#000000"/><path d="M70.62761,433.8039l-4.89764,-22.32183l58.67004,-12.79725l4.89767,22.32182z" fill="#252525" stroke="#000000"/><path d="M66.46273,413.00766c-0.35599,-1.62252 2.71014,7.67846 7.09248,10.50007c4.17991,2.69128 9.57552,-1.1041 13.60284,-1.98255c3.91535,-0.85402 21.48864,-0.13728 30.14303,-6.59704c5.25533,-3.92264 1.87364,-16.60216 5.53855,-16.30231c3.01609,0.24678 5.84019,21.57533 6.00515,22.3272c0.69553,3.17005 -30.91826,10.25252 -39.16795,12.05195c-5.30188,1.15649 -14.02017,4.10352 -19.09355,-2.08842c-2.82071,-3.44266 -3.87205,-16.77617 -4.12059,-17.9089z" fill="#141414" stroke="none"/><path d="M70.62761,433.8039l-4.89764,-22.32183l58.67004,-12.79725l4.89767,22.32182z" fill="none" stroke="#000000"/><path d="M70.62761,433.8039l-4.89764,-22.32183l58.67004,-12.79725l4.89767,22.32182z" fill="none" stroke="#000000"/></g><g><path d="M74.90699,469.96049l-4.89767,-22.32185l66.28541,-14.45837l4.89765,22.32185z" fill="#252525" stroke="#000000"/><path d="M74.90699,469.96049l-4.89767,-22.32185l66.28541,-14.45837l4.89765,22.32185z" fill="#252525" stroke="#000000"/><path d="M70.79143,449.15351c-0.35599,-1.6225 2.83714,7.65076 7.68561,10.3707c4.62456,2.59431 10.79165,-1.3694 15.34172,-2.3619c4.42363,-0.96485 24.1542,-0.71863 34.0562,-7.45054c6.01287,-4.0879 2.55689,-16.75124 6.66767,-16.54864c3.383,0.16672 5.97724,21.54545 6.14222,22.29733c0.69556,3.17005 -35.0268,11.14868 -44.3473,13.18171c-5.99003,1.30656 -15.86834,4.50663 -21.40188,-1.58489c-3.07656,-3.38686 -3.89574,-16.771 -4.14426,-17.90368z" fill="#141414" stroke="none"/><path d="M74.90699,469.96049l-4.89767,-22.32185l66.28541,-14.45837l4.89765,22.32185z" fill="none" stroke="#000000"/><path d="M74.90699,469.96049l-4.89767,-22.32185l66.28541,-14.45837l4.89765,22.32185z" fill="none" stroke="#000000"/></g></g><g><path d="M57.32826,391.55084l-5.62512,-25.63736l68.46123,-14.93302l5.62515,25.63734z" fill="#252525" stroke="#000000"/><path d="M57.32826,391.55084l-5.62512,-25.63736l68.46123,-14.93302l5.62515,25.63734z" fill="#252525" stroke="#000000"/><path d="M60.78158,379.70555c4.8636,3.07731 11.16972,-1.30563 15.86915,-2.33066c4.56883,-0.99658 25.05734,-0.23986 35.17358,-7.69762c6.14302,-4.52866 2.24851,-19.08922 6.52085,-18.75859c3.51595,0.27212 6.72699,24.77576 6.91648,25.6393c0.79885,3.64093 -36.09157,11.90208 -45.71799,14.00183c-6.1867,1.34945 -16.36393,4.76996 -22.25592,-2.32744c-3.27589,-3.9461 -4.45056,-19.2672 -4.736,-20.56819c-0.4089,-1.86349 3.13067,8.81508 8.22981,12.0414z" fill="#141414" stroke="none"/><path d="M57.32826,391.55084l-5.62512,-25.63736l68.46123,-14.93302l5.62515,25.63734z" fill="none" stroke="#000000"/><path d="M57.32826,391.55084l-5.62512,-25.63736l68.46123,-14.93302l5.62515,25.63734z" fill="none" stroke="#000000"/></g></g><g><path d="M211.15361,602.76865c0,9.95466 7.95359,23.99621 -3.43901,30.8799c-13.21487,7.98479 -47.31951,8.05223 -68.72179,8.05223c-19.97444,0 -45.49265,-1.40286 -58.55851,-8.47799c-13.00335,-7.0413 -13.60224,-19.72911 -13.60224,-30.45412c0,-21.50161 32.30747,-38.93209 72.16075,-38.93209c39.85331,0 72.1608,17.43048 72.1608,38.93209z" fill="#00ffe6" stroke="#000000"/><path d="M212.60656,623.38546c0,11.50403 -32.75155,20.82991 -73.15268,20.82991c-40.40111,0 -73.15269,-9.32585 -73.15269,-20.82991c0,-11.50403 -5.93256,-51.57884 34.46853,-51.57884c6.88227,0 -9.14604,9.84163 -18.5293,22.0285c-8.60365,11.17431 -10.75167,24.6363 -2.98207,27.58097c17.33528,6.57008 61.36462,11.24054 91.20378,9.0696c27.82378,-2.02432 42.14438,-10.83856 42.14438,-7.10022z" fill="#00d6c0" stroke="none"/><path d="M209.63086,603.79542c0,9.95466 7.95363,23.9962 -3.43896,30.8799c-13.21487,7.98479 -47.3195,8.05219 -68.72179,8.05219c-19.97444,0 -45.49265,-1.40284 -58.55853,-8.47799c-13.00333,-7.0413 -13.60224,-19.72911 -13.60224,-30.45412c0,-21.50161 32.30747,-38.93209 72.16079,-38.93209c39.85328,0 72.16078,17.43048 72.16078,38.93209z" fill="none" stroke="#000000"/></g></g><g stroke-linecap="butt"><g data-paper-data="{&quot;index&quot;:null}"><g><g><path d="M22.7564,467.54923l4.70113,113.20663l-40.97721,0.06564l-4.70111,-113.20663z" fill="#252525" stroke="#000000"/><path d="M22.7564,467.54923l4.70113,113.20663l-40.97721,0.06564l-4.70111,-113.20663z" fill="#252525" stroke="#000000"/><path d="M26.85348,572.5987c0.34171,8.22864 -2.34556,-40.02328 -5.61312,-58.30206c-3.11663,-17.43449 -6.74174,-4.75458 -9.55458,-4.75011c-2.73465,0.0044 -15.25749,-21.9984 -21.05173,0.14089c-3.51849,13.44389 -0.42212,78.38139 -3.04203,73.06489c-2.15607,-4.37527 -5.32977,-110.5875 -5.48815,-114.4007c-0.18911,-4.55388 1.32033,-0.14297 4.14487,-0.58294c7.14738,-1.11337 21.08472,1.02063 25.21452,1.01402c3.703,-0.00591 7.5397,-22.53222 11.48267,12.7883c2.19224,19.6379 3.66897,85.283 3.90756,91.02772z" fill="#141414" stroke="none"/><path d="M22.7564,467.54923l4.70113,113.20663l-40.97721,0.06564l-4.70111,-113.20663z" fill="none" stroke="#000000"/><path d="M22.7564,467.54923l4.70113,113.20663l-40.97721,0.06564l-4.70111,-113.20663z" fill="none" stroke="#000000"/></g><g><path d="M34.1041,518.50118l0.95184,22.92088l-59.86714,0.0959l-0.95183,-22.92088z" fill="#252525" stroke="#000000"/><path d="M34.1041,518.50118l0.95184,22.92088l-59.86714,0.0959l-0.95183,-22.92088z" fill="#252525" stroke="#000000"/><path d="M29.44631,527.97313c-3.64199,-3.52511 -9.60058,-0.94949 -13.7101,-0.9429c-3.99527,0.00639 -21.14009,-4.42505 -30.76191,0.07101c-5.84278,2.7302 -4.71281,15.87723 -8.26239,14.80563c-2.92119,-0.88189 -2.00715,-22.38909 -2.03921,-23.16114c-0.13518,-3.25513 32.15598,-3.48988 40.57398,-3.50335c5.41005,-0.00871 14.48704,-1.04771 18.40149,6.09863c2.17642,3.97331 0.90323,17.26696 0.95154,18.43008c0.06918,1.66605 -1.33506,-8.10212 -5.15343,-11.79795z" fill="#141414" stroke="none"/><path d="M34.1041,518.50118l0.95184,22.92088l-59.86714,0.0959l-0.95183,-22.92088z" fill="none" stroke="#000000"/><path d="M34.1041,518.50118l0.95184,22.92088l-59.86714,0.0959l-0.95183,-22.92088z" fill="none" stroke="#000000"/></g><g><path d="M36.15284,482.1495l0.95183,22.9209l-67.63791,0.10833l-0.95183,-22.9209z" fill="#252525" stroke="#000000"/><path d="M36.15284,482.1495l0.95183,22.9209l-67.63791,0.10833l-0.95183,-22.9209z" fill="#252525" stroke="#000000"/><path d="M36.59816,503.41945c0.06918,1.66605 -1.46467,-8.10188 -5.75868,-11.79698c-4.0957,-3.52438 -10.84153,-0.94745 -15.48445,-0.94001c-4.51388,0.00722 -23.86007,-4.42077 -34.75493,0.07734c-6.61579,2.73143 -5.41005,15.87838 -9.41455,14.80752c-3.29554,-0.88128 -2.147,-22.38891 -2.17906,-23.16095c-0.13518,-3.25513 36.34837,-3.49659 45.85904,-3.51184c6.11226,-0.00979 16.37295,-1.0507 20.75695,6.09487c2.43746,3.97289 0.9274,17.26691 0.97568,18.43001z" fill="#141414" stroke="none"/><path d="M36.15284,482.1495l0.95183,22.9209l-67.63791,0.10833l-0.95183,-22.9209z" fill="none" stroke="#000000"/><path d="M36.15284,482.1495l0.95183,22.9209l-67.63791,0.10833l-0.95183,-22.9209z" fill="none" stroke="#000000"/></g></g><g><path d="M39.86457,562.743l1.09322,26.3254l-69.85813,0.11196l-1.09324,-26.32541z" fill="#252525" stroke="#000000"/><path d="M39.86457,562.743l1.09322,26.3254l-69.85813,0.11196l-1.09324,-26.32541z" fill="#252525" stroke="#000000"/><path d="M34.42228,573.62195c-4.24706,-4.04863 -11.20203,-1.09019 -15.99735,-1.08254c-4.66205,0.00749 -24.66473,-5.08175 -35.89567,0.08245c-6.81991,3.13588 -5.51139,18.23569 -9.65253,17.00504c-3.40798,-1.01278 -2.32503,-25.71458 -2.36187,-26.60132c-0.15526,-3.73863 37.52499,-4.00919 47.34783,-4.02494c6.31294,-0.01011 16.90546,-1.2037 21.46779,7.00396c2.53659,4.56339 1.04083,19.83164 1.09629,21.16755c0.07947,1.9135 -1.55169,-9.30552 -6.00445,-13.55019z" fill="#141414" stroke="none"/><path d="M39.86457,562.743l1.09322,26.3254l-69.85813,0.11196l-1.09324,-26.32541z" fill="none" stroke="#000000"/><path d="M39.86457,562.743l1.09322,26.3254l-69.85813,0.11196l-1.09324,-26.32541z" fill="none" stroke="#000000"/></g></g><g data-paper-data="{&quot;index&quot;:null}"><g><g><path d="M-20.85086,475.98575l24.18965,-110.24787l40.15782,8.75937l-24.18967,110.24785z" fill="#252525" stroke="#000000"/><path d="M-20.85086,475.98575l24.18965,-110.24787l40.15782,8.75937l-24.18967,110.24785z" fill="#252525" stroke="#000000"/><path d="M41.49348,382.38483c-1.22752,5.5946 -14.02972,69.78906 -19.57547,88.6216c-9.97456,33.87196 -9.83927,10.92181 -13.46819,10.13027c-4.04721,-0.88279 -18.07887,-1.74308 -24.89271,-4.35374c-2.69275,-1.03169 -4.93535,2.98254 -3.96231,-1.45235c0.8148,-3.71354 22.29735,-107.41227 25.1677,-111.25426c3.48783,-4.66847 -10.77967,58.487 -9.65591,72.44454c1.85058,22.98523 17.93228,4.02077 20.61223,4.60536c2.7566,0.60126 4.11698,13.83068 10.1878,-2.64045c6.36477,-17.26876 17.34514,-64.11454 15.58688,-56.10096z" fill="#141414" stroke="none"/><path d="M-20.85086,475.98575l24.18965,-110.24787l40.15782,8.75937l-24.18967,110.24785z" fill="none" stroke="#000000"/><path d="M-20.85086,475.98575l24.18965,-110.24787l40.15782,8.75937l-24.18967,110.24785z" fill="none" stroke="#000000"/></g><g><path d="M-19.42607,424.28639l4.89765,-22.32183l58.67004,12.79728l-4.89765,22.32183z" fill="#252525" stroke="#000000"/><path d="M-19.42607,424.28639l4.89765,-22.32183l58.67004,12.79728l-4.89765,22.32183z" fill="#252525" stroke="#000000"/><path d="M43.40886,416.28745c-0.24854,1.1327 -1.29988,14.46622 -4.12059,17.90888c-5.07337,6.19194 -13.79167,3.24491 -19.09355,2.08842c-8.24967,-1.79942 -39.86346,-8.88191 -39.16793,-12.05195c0.16496,-0.75187 2.98906,-22.08042 6.00515,-22.3272c3.66494,-0.29983 0.28322,12.37967 5.53858,16.30231c8.65439,6.45977 26.22766,5.74302 30.14303,6.59707c4.02734,0.87845 9.42293,4.67381 13.60284,1.98253c4.38233,-2.82159 7.44847,-12.12258 7.09248,-10.50005z" fill="#141414" stroke="none"/><path d="M-19.42607,424.28639l4.89765,-22.32183l58.67004,12.79728l-4.89765,22.32183z" fill="none" stroke="#000000"/><path d="M-19.42607,424.28639l4.89765,-22.32183l58.67004,12.79728l-4.89765,22.32183z" fill="none" stroke="#000000"/></g><g><path d="M-31.32081,458.78192l4.89765,-22.32185l66.28541,14.45837l-4.89767,22.32185z" fill="#252525" stroke="#000000"/><path d="M-31.32081,458.78192l4.89765,-22.32185l66.28541,14.45837l-4.89767,22.32185z" fill="#252525" stroke="#000000"/><path d="M39.08016,452.43333c-0.24852,1.1327 -1.0677,14.51682 -4.14426,17.90368c-5.53352,6.09154 -15.41182,2.89144 -21.40185,1.58488c-9.32051,-2.03301 -45.04286,-10.01165 -44.3473,-13.18167c0.16499,-0.75187 2.75922,-22.1306 6.1422,-22.29732c4.11076,-0.2026 0.6548,12.46074 6.66767,16.54863c9.902,6.73191 29.6326,6.48569 34.0562,7.45054c4.55009,0.99247 10.71716,4.95618 15.34172,2.36187c4.84848,-2.71994 8.0416,-11.9932 7.68561,-10.37067z" fill="#141414" stroke="none"/><path d="M-31.32081,458.78192l4.89765,-22.32185l66.28541,14.45837l-4.89767,22.32185z" fill="none" stroke="#000000"/><path d="M-31.32081,458.78192l4.89765,-22.32185l66.28541,14.45837l-4.89767,22.32185z" fill="none" stroke="#000000"/></g></g><g><path d="M-15.91792,379.89757l5.62515,-25.63734l68.46123,14.93302l-5.62512,25.63736z" fill="#252525" stroke="#000000"/><path d="M-15.91792,379.89757l5.62515,-25.63734l68.46123,14.93302l-5.62512,25.63736z" fill="#252525" stroke="#000000"/><path d="M49.09008,382.98532c5.09916,-3.22632 8.63869,-13.90487 8.22981,-12.04137c-0.28543,1.30099 -1.46011,16.62208 -4.736,20.56819c-5.89202,7.0974 -16.06924,3.6769 -22.25594,2.32744c-9.62642,-2.09975 -46.51684,-10.3609 -45.71799,-14.00181c0.18947,-0.86354 3.40052,-25.36719 6.91649,-25.6393c4.27234,-0.33065 0.37783,14.22993 6.52085,18.75856c10.11624,7.45779 30.60476,6.70104 35.17358,7.69762c4.69944,1.02503 11.00554,5.40797 15.86914,2.33067z" fill="#141414" stroke="none"/><path d="M-15.91792,379.89757l5.62515,-25.63734l68.46123,14.93302l-5.62512,25.63736z" fill="none" stroke="#000000"/><path d="M-15.91792,379.89757l5.62515,-25.63734l68.46123,14.93302l-5.62512,25.63736z" fill="none" stroke="#000000"/></g></g><g><path d="M-101.28201,606.04847c0,-21.50161 32.3075,-38.93209 72.16078,-38.93209c39.85328,0 72.16075,17.43048 72.16075,38.93209c0,10.72501 -0.59889,23.41282 -13.60224,30.4541c-13.06586,7.07513 -38.58408,8.47799 -58.5585,8.47799c-21.4023,0 -55.50692,-0.06744 -68.72179,-8.05223c-11.39257,-6.88369 -3.43898,-20.92526 -3.43898,-30.87991z" fill="#00ffe6" stroke="#000000"/><path d="M-102.73495,626.66523c0,-3.73834 14.32059,5.07592 42.14437,7.10022c29.83917,2.17094 73.8685,-2.49951 91.20378,-9.06959c7.7696,-2.94467 5.62159,-16.40667 -2.98204,-27.58097c-9.38323,-12.18686 -25.41157,-22.02848 -18.5293,-22.02848c40.40108,0 34.46855,40.07479 34.46855,51.57885c0,11.50405 -32.75157,20.82993 -73.15268,20.82993c-40.40111,0 -73.15268,-9.32587 -73.15268,-20.82993z" fill="#00d6c0" stroke="none"/><path d="M-99.75931,607.07519c0,-21.50161 32.3075,-38.93209 72.16078,-38.93209c39.85331,0 72.16078,17.4305 72.16078,38.93209c0,10.72501 -0.59892,23.41282 -13.60225,30.4541c-13.06586,7.07515 -38.58406,8.47799 -58.5585,8.47799c-21.4023,0 -55.50692,-0.06742 -68.72179,-8.05221c-11.39257,-6.88369 -3.43896,-20.92526 -3.43896,-30.8799z" fill="none" stroke="#000000"/></g></g><g><path d="M-22.01529,309.70558c2.72701,-31.57927 33.15187,-98.11332 57.20543,-123.87642c15.36788,-16.46011 23.21271,-0.57469 35.62251,0.49695c13.92667,1.20263 30.87747,-5.73199 42.11459,18.62562c14.44859,31.31874 21.22327,97.99333 18.70923,127.10643c-4.46929,51.75532 -45.17513,44.43949 -77.00857,41.69054c-31.83341,-2.74895 -81.1125,-12.28783 -76.6432,-64.04317z" fill="#00ffe6" stroke="#000000" stroke-linecap="butt"/><path d="M70.3097,170.43547c26.72807,2.30808 48.40979,16.70087 46.67429,36.79829c-0.0772,0.89395 13.96998,18.44582 -5.94981,22.13492c-8.626,1.59751 -21.87425,-11.7602 -37.54898,-12.70639c-19.32338,-1.16648 -41.22,10.2179 -49.25337,15.63707c-34.52305,23.28864 -36.17717,63.89964 -32.72028,69.69065c5.66148,9.48415 2.16626,29.19023 13.5299,36.69533c43.74591,28.89196 127.76818,31.80731 110.57263,30.32241c-14.11413,-1.21882 -102.61352,15.32986 -126.34127,-20.1503c-7.27404,-10.87688 -12.37193,-29.61595 -8.8989,-47.61686c6.65172,-34.47635 30.53119,-70.9348 31.06928,-77.16605c1.7355,-20.09742 32.13847,-55.94715 58.86653,-53.63906z" fill="#00d6c0" stroke="none" stroke-linecap="butt"/><path d="M35.58306,184.93978c15.36787,-16.46008 26.51189,-14.49343 38.92166,-13.4218c13.92667,1.20263 27.57832,8.18678 38.81544,32.54439c14.44859,31.31874 21.22327,97.99333 18.70923,127.10644c-4.46929,51.75532 -45.17516,44.43951 -77.00857,41.69056c-31.83341,-2.74895 -81.11247,-12.28786 -76.64318,-64.04317c2.72701,-31.57927 33.15189,-98.11331 57.20543,-123.87641z" fill="none" stroke="#000000" stroke-linecap="butt"/><path d="M130.23467,288.51304l-23.60454,0.55711l-23.99387,5.06557l-30.01852,-1.29451l-30.22859,-5.20584l-15.47881,-11.06966l-18.86505,-3.57567" fill="none" stroke="#000000" stroke-linecap="round"/><g stroke-linecap="butt"><path d="M125.61383,216.28351c-0.58362,6.75843 -4.16909,44.41179 -19.33504,43.10214c-15.16594,-1.30964 -36.16925,-41.08637 -35.58563,-47.84477c0.58362,-6.75843 27.64999,-37.19317 42.81593,-35.88353c15.16594,1.30964 12.68837,33.86774 12.10475,40.62616z" data-paper-data="{&quot;index&quot;:null}" fill="#ff0000" stroke="#000000"/><path d="M125.49345,226.70497c-0.78328,9.07054 -6.09572,31.59251 -19.6099,30.4255c-13.51419,-1.16701 -30.11257,-25.58107 -29.32929,-34.65161c0.46751,-5.41388 23.15368,34.65419 33.97962,23.25608c4.6407,-4.88599 9.34981,-19.94344 9.88438,-38.55054c0.30769,-10.71077 -4.13512,-30.26421 -2.14481,-30.09234c13.51419,1.16701 8.00329,40.54241 7.22001,49.61292z" data-paper-data="{&quot;index&quot;:null}" fill="#bf0000" stroke="none"/><path d="M125.26795,216.62805c-0.58362,6.75843 -4.16909,44.41179 -19.33504,43.10214c-15.16591,-1.30964 -36.16925,-41.08635 -35.58563,-47.84478c0.58362,-6.75843 27.64999,-37.19317 42.81593,-35.88353c15.16594,1.30964 12.68837,33.86774 12.10475,40.62616z" data-paper-data="{&quot;index&quot;:null}" fill="none" stroke="#000000"/><path d="M28.4526,168.68676c15.16594,1.30964 36.61421,35.93384 36.03059,42.69226c-0.58362,6.75843 -28.09495,42.34569 -43.26089,41.03604c-15.16594,-1.30964 -12.24342,-39.02025 -11.6598,-45.77868c0.58362,-6.75841 3.72415,-39.25927 18.89011,-37.94963z" fill="#ff0000" stroke="#000000"/><path d="M23.51287,169.28347c1.99035,0.17188 -5.73877,18.67422 -7.27177,29.27919c-2.66318,18.42329 -0.6051,34.06512 3.12933,39.67433c8.71169,13.08527 37.93091,-22.50057 37.46339,-17.08667c-0.78328,9.07052 -21.32125,30.27772 -34.83544,29.11071c-13.5142,-1.16701 -14.88706,-24.2663 -14.10378,-33.33682c0.78328,-9.07054 2.10409,-48.80775 15.61828,-47.64074z" fill="#bf0000" stroke="none"/><path d="M28.73428,169.08553c15.16592,1.30964 36.61419,35.93383 36.03057,42.69226c-0.58362,6.75843 -28.09495,42.34569 -43.26087,41.03604c-15.16594,-1.30964 -12.24343,-39.02024 -11.65981,-45.77867c0.58362,-6.75841 3.72416,-39.25927 18.89011,-37.94963z" fill="none" stroke="#000000"/><path d="M71.16458,192.48999c9.76024,0.84284 16.8383,11.18604 15.80929,23.10225c-1.02901,11.91617 -9.77542,20.89289 -19.53567,20.05005c-9.76023,-0.84284 -16.83829,-11.18604 -15.80928,-23.10224c1.02901,-11.91615 9.77544,-20.8929 19.53567,-20.05006z" fill="#ff0000" stroke="#000000"/><path d="M51.70199,217.13843c0.76792,-8.89269 3.49001,-25.65328 13.10009,-24.82341c3.01217,0.26011 -6.44213,17.29439 -6.5328,25.32899c-0.06688,5.92561 8.39242,10.59998 10.27492,13.32552c3.70858,5.36941 18.30871,-14.87556 17.959,-10.82584c-0.76792,8.89267 -9.18097,15.42884 -18.79105,14.59897c-9.61009,-0.82987 -16.77808,-8.71155 -16.01016,-17.6042z" fill="#bf0000" stroke="none"/><path d="M70.9025,192.84178c9.76023,0.84284 16.8383,11.18604 15.80929,23.10224c-1.02901,11.91617 -9.77544,20.8929 -19.53567,20.05006c-9.76023,-0.84284 -16.8383,-11.18604 -15.80929,-23.10225c1.02901,-11.91617 9.77545,-20.89289 19.53567,-20.05005z" fill="none" stroke="#000000"/></g></g><path d="M-7.43045,140.44089c0,-5.0428 29.44502,30.56831 70.66441,30.56831c41.21939,0 72.64935,-34.02314 72.64935,-28.98034c0,5.0428 -29.44501,37.31717 -70.6644,37.31717c-41.21939,0 -72.64935,-33.86233 -72.64935,-38.90513z" fill="#00d6c0" stroke="none" stroke-linecap="butt"/><g><path d="M-76.69333,423.49934c-1.75763,-21.35919 12.59655,-39.97273 32.06098,-41.57443c19.46443,-1.60172 36.66833,14.41488 38.42599,35.77407c1.75766,21.35921 -12.59658,39.97274 -32.06101,41.57446c-19.46445,1.60174 -36.66832,-14.41488 -38.42598,-35.77407z" fill="#00ffe6" stroke="#000000" stroke-linecap="butt"/><path d="M-72.4717,437.81672c-0.99223,-12.05761 -10.31674,-44.36722 6.90843,-45.78466c2.88992,-0.23782 -2.51829,14.03956 0.50044,27.95875c2.8634,13.20307 14.12181,26.01698 17.98953,28.2217c16.35858,9.32491 36.31161,-23.64468 36.97946,-15.52884c0.9922,12.05759 -12.16718,22.9813 -29.39235,24.39874c-17.22517,1.41744 -31.9933,-7.20812 -32.98549,-19.26574z" fill="#00d6c0" stroke="none" stroke-linecap="butt"/><path d="M-44.54311,383.94395c19.46446,-1.60174 36.66835,14.41488 38.42598,35.77407c1.75766,21.35921 -12.59653,39.97274 -32.06098,41.57443c-19.46445,1.60174 -36.66832,-14.41488 -38.42598,-35.77407c-1.75766,-21.35921 12.59653,-39.97271 32.06098,-41.57443z" fill="none" stroke="#000000" stroke-linecap="butt"/><g><path d="M-77.32679,473.74389c6.33343,14.96107 5.53259,29.60188 -1.78882,32.70121c-7.32136,3.09935 -18.39075,-6.51645 -24.72418,-21.47751c-3.37332,-7.96859 0.45773,-38.05313 10.48651,-46.52169c8.80027,-7.43117 23.5058,6.30475 26.92763,4.85617c7.32137,-3.09935 -17.23462,15.4808 -10.90117,30.4418z" fill="#00ffe6" stroke="#000000" stroke-linecap="butt"/><path d="M-77.7412,491.42054c2.6277,6.20723 0.07649,12.21382 -4.06166,13.96564c-4.13814,1.75182 -9.62297,-1.86003 -12.25067,-8.06729c-2.6277,-6.20723 11.53448,-57.55642 15.67266,-59.30824c1.51855,-0.64285 10.89562,0.31341 9.17977,8.47158c-3.22368,15.32768 -10.20354,41.00889 -8.54013,44.9383z" fill="#00d6c0" stroke="none" stroke-linecap="butt"/><path d="M-76.77408,473.25148c6.33346,14.96102 5.53259,29.60188 -1.7888,32.70121c-7.32134,3.09933 -18.39075,-6.51647 -24.72416,-21.47752c-3.37332,-7.96859 0.45773,-38.05313 10.4865,-46.52169c8.80027,-7.43117 23.5058,6.30476 26.92763,4.85618c7.32135,-3.09933 -17.23462,15.4808 -10.90119,30.4418z" fill="none" stroke="#000000" stroke-linecap="butt"/><path d="M-103.0494,467.37598l23.41207,2.32286" fill="none" stroke="#000000" stroke-linecap="round"/></g><g><path d="M-40.97409,476.30595c9.22188,13.37543 11.39157,27.87672 4.84613,32.38956c-6.54544,4.51284 -19.32734,-2.6717 -28.54921,-16.04714c-4.91177,-7.12407 -7.22971,-37.36286 0.8841,-47.68073c7.1199,-9.05395 24.29446,1.43226 27.35364,-0.67692c6.54544,-4.51284 -13.75656,18.63984 -4.53468,32.01524z" fill="#00ffe6" stroke="#000000" stroke-linecap="butt"/><path d="M-37.81339,493.70267c3.82609,5.54938 2.53932,11.94716 -1.16025,14.49792c-3.69957,2.55073 -9.80034,0.11986 -13.62645,-5.42952c-3.82609,-5.54938 -0.31599,-58.69998 3.38363,-61.25072c1.35762,-0.93601 10.73479,-1.89148 10.70033,6.44513c-0.06471,15.66289 -1.7193,42.22425 0.70275,45.73719z" fill="#00d6c0" stroke="none" stroke-linecap="butt"/><path d="M-40.53213,475.71214c9.22188,13.37541 11.39158,27.87672 4.84616,32.38956c-6.54542,4.51282 -19.32736,-2.67173 -28.54921,-16.04714c-4.91177,-7.12407 -7.22971,-37.36286 0.8841,-47.68073c7.1199,-9.05395 24.29446,1.43226 27.35365,-0.67692c6.54542,-4.51282 -13.75656,18.63984 -4.53469,32.01525z" fill="none" stroke="#000000" stroke-linecap="butt"/><path d="M-44.05331,472.81027l-23.39923,2.44881" fill="none" stroke="#000000" stroke-linecap="round"/></g><g><path d="M-8.3688,468.44441c13.57353,8.92775 21.03533,21.54983 16.66643,28.19218c-4.3689,6.64236 -18.91407,4.7897 -32.4876,-4.13808c-7.22953,-4.75511 -20.74468,-31.90471 -17.10465,-44.51593c3.19416,-11.06636 23.05096,-7.80541 25.0929,-10.9099c4.36891,-6.64236 -5.74058,22.44397 7.83292,31.37173z" fill="#00ffe6" stroke="#000000" stroke-linecap="butt"/><path d="M1.09977,483.377c5.63158,3.70407 6.84419,10.11635 4.37482,13.87071c-2.46937,3.75438 -9.03649,3.79516 -14.66805,0.09109c-5.63158,-3.70407 -22.35897,-54.27579 -19.88958,-58.03019c0.90619,-1.37772 9.23641,-5.7881 12.33831,1.95002c5.82793,14.5384 14.2795,39.77357 17.84448,42.11838z" fill="#00d6c0" stroke="none" stroke-linecap="butt"/><path d="M-8.18249,467.728c13.5735,8.92773 21.03533,21.54983 16.66643,28.19216c-4.36888,6.64236 -18.91408,4.78965 -32.4876,-4.13808c-7.22953,-4.75511 -20.74466,-31.9047 -17.10463,-44.5159c3.19416,-11.06636 23.05096,-7.80541 25.0929,-10.90991c4.36888,-6.64236 -5.74059,22.44397 7.83291,31.37173z" fill="none" stroke="#000000" stroke-linecap="butt"/><path d="M-33.29872,477.42794l20.76247,-11.06528" fill="none" stroke="#000000" stroke-linecap="round"/></g><g><path d="M4.39206,442.56908c0.74721,-16.22918 -28.73096,-25.13169 -20.78902,-24.76604c3.71189,0.17088 12.73597,-17.81501 23.56834,-13.90011c12.34456,4.46144 26.37893,31.34627 25.98097,39.99029c-0.74721,16.2292 -7.79113,29.08912 -15.73309,28.72347c-7.94196,-0.36565 -13.77446,-13.81841 -13.02725,-30.04761z" fill="#00ffe6" stroke="#000000" stroke-linecap="butt"/><path d="M-12.69027,419.82224c-4.44066,-7.05557 4.02167,-11.20688 5.66895,-11.13105c4.48895,0.20666 35.59259,43.44867 35.28258,50.18205c-0.31001,6.73338 -4.20033,12.02433 -8.68925,11.81765c-4.48892,-0.20668 -8.96623,-4.95444 -8.65622,-11.68781c0.19624,-4.26247 -15.26294,-25.9248 -23.60605,-39.18085z" fill="#00d6c0" stroke="none" stroke-linecap="butt"/><path d="M-17.08619,417.53304c3.71189,0.17088 12.73597,-17.81501 23.56834,-13.90011c12.34456,4.46144 26.37893,31.34627 25.98097,39.99029c-0.74721,16.22918 -7.79115,29.08912 -15.73309,28.72347c-7.94194,-0.36565 -13.77443,-13.81843 -13.02723,-30.04763c0.7472,-16.22918 -28.73094,-25.13169 -20.78902,-24.76604z" fill="none" stroke="#000000" stroke-linecap="butt"/><path d="M5.15504,437.9735l21.15056,-10.3041" fill="none" stroke="#000000" stroke-linecap="round"/></g></g><g data-paper-data="{&quot;index&quot;:null}"><path d="M198.86564,418.98659c-1.75766,21.35919 -18.96152,37.37581 -38.42598,35.77407c-19.46443,-1.60172 -33.81867,-20.21524 -32.06101,-41.57445c1.75766,-21.35919 18.96156,-37.37579 38.42598,-35.77407c19.46443,1.6017 33.81861,20.21524 32.06098,41.57443z" fill="#00ffe6" stroke="#000000" stroke-linecap="butt"/><path d="M194.64398,433.3039c-0.9922,12.05761 -15.76032,20.68318 -32.98549,19.26574c-17.22517,-1.41744 -30.38456,-12.34116 -29.39236,-24.39875c0.66784,-8.11584 20.62088,24.85375 36.97946,15.52884c3.86772,-2.20472 15.12612,-15.01863 17.98952,-28.2217c3.01873,-13.9192 -2.38948,-28.19658 0.50044,-27.95875c17.22517,1.41744 7.90066,33.72706 6.90843,45.78467z" fill="#00d6c0" stroke="none" stroke-linecap="butt"/><path d="M198.77637,421.0056c-1.75766,21.35919 -18.96152,37.37581 -38.42598,35.77407c-19.46445,-1.6017 -33.81865,-20.21522 -32.06099,-41.57443c1.75763,-21.35919 18.96153,-37.37581 38.42599,-35.77407c19.46445,1.60172 33.81864,20.21522 32.06098,41.57443z" fill="none" stroke="#000000" stroke-linecap="butt"/><g><path d="M199.49909,469.23109c6.33345,-14.961 -18.22254,-33.54115 -10.90117,-30.4418c3.42183,1.44858 18.12736,-12.28734 26.92764,-4.85618c10.02878,8.46856 13.85984,38.55311 10.48651,46.5217c-6.33343,14.96107 -17.40281,24.57686 -24.72418,21.47751c-7.32141,-3.09933 -8.12225,-17.74014 -1.78882,-32.70121z" fill="#00ffe6" stroke="#000000" stroke-linecap="butt"/><path d="M199.9135,486.90777c1.66341,-3.92941 -5.31645,-29.61061 -8.54013,-44.9383c-1.71585,-8.15817 7.66122,-9.11443 9.17977,-8.47158c4.13819,1.75182 18.30037,53.10101 15.67266,59.30824c-2.6277,6.20725 -8.11253,9.8191 -12.25067,8.06728c-4.13815,-1.75182 -6.68936,-7.75841 -4.06166,-13.96564z" fill="#00d6c0" stroke="none" stroke-linecap="butt"/><path d="M198.94639,468.73868c6.33343,-14.961 -18.22254,-33.54113 -10.9012,-30.4418c3.42183,1.44858 18.12736,-12.28734 26.92763,-4.85618c10.02876,8.46856 13.85982,38.55311 10.4865,46.5217c-6.33341,14.96105 -17.40282,24.57684 -24.72416,21.47751c-7.32139,-3.09933 -8.12225,-17.74019 -1.7888,-32.70121z" fill="none" stroke="#000000" stroke-linecap="butt"/><path d="M225.22168,462.86321l-23.41207,2.32286" fill="none" stroke="#000000" stroke-linecap="round"/></g><g><path d="M163.14639,471.7932c9.22188,-13.37541 -11.08012,-36.52809 -4.53468,-32.01525c3.05919,2.10918 20.23375,-8.37704 27.35364,0.67692c8.11381,10.31787 5.79586,40.55667 0.8841,47.68074c-9.22188,13.37543 -22.00377,20.55997 -28.54921,16.04713c-6.54544,-4.51284 -4.37574,-19.01412 4.84614,-32.38956z" fill="#00ffe6" stroke="#000000" stroke-linecap="butt"/><path d="M160.68842,443.45271c-0.03446,-8.33661 9.3427,-7.38114 10.70033,-6.44512c3.69962,2.55073 7.20972,55.70133 3.38363,61.25071c-3.82611,5.54938 -9.92688,7.98026 -13.62645,5.42953c-3.69957,-2.55075 -4.98634,-8.94854 -1.16026,-14.49792c2.42205,-3.51295 0.76747,-30.07431 0.70275,-45.7372z" fill="#00d6c0" stroke="none" stroke-linecap="butt"/><path d="M162.70441,471.19939c9.22188,-13.37541 -11.08011,-36.52806 -4.53468,-32.01524c3.05919,2.10918 20.23375,-8.37704 27.35365,0.67692c8.11381,10.31787 5.79586,40.55666 0.8841,47.68073c-9.22186,13.37541 -22.00379,20.55995 -28.54921,16.04713c-6.54542,-4.51284 -4.37572,-19.01415 4.84615,-32.38956z" fill="none" stroke="#000000" stroke-linecap="butt"/><path d="M166.2256,468.29749l23.39923,2.44881" fill="none" stroke="#000000" stroke-linecap="round"/></g><g><path d="M130.5411,463.93163c13.5735,-8.92775 3.46401,-38.01408 7.83292,-31.37172c2.04194,3.10449 21.89873,-0.15646 25.0929,10.9099c3.64003,12.61122 -9.87512,39.76081 -17.10466,44.51592c-13.57352,8.92778 -28.1187,10.78044 -32.4876,4.13808c-4.3689,-6.64236 3.0929,-19.26443 16.66642,-28.19218z" fill="#00ffe6" stroke="#000000" stroke-linecap="butt"/><path d="M121.07254,478.86422c3.56498,-2.34481 12.01655,-27.57998 17.84448,-42.11838c3.1019,-7.73812 11.43212,-3.32774 12.33831,-1.95002c2.46939,3.75441 -14.258,54.32613 -19.88958,58.0302c-5.63156,3.70407 -12.19868,3.66329 -14.66805,-0.09109c-2.46937,-3.75436 -1.25676,-10.16665 4.37482,-13.87071z" fill="#00d6c0" stroke="none" stroke-linecap="butt"/><path d="M138.18768,431.8435c2.04194,3.10449 21.89873,-0.15645 25.0929,10.9099c3.64003,12.6112 -9.8751,39.76079 -17.10463,44.5159c-13.57352,8.92773 -28.11872,10.78044 -32.4876,4.13808c-4.3689,-6.64233 3.09293,-19.26443 16.66643,-28.19216c13.5735,-8.92775 3.46402,-38.01408 7.83291,-31.37172z" fill="none" stroke="#000000" stroke-linecap="butt"/><path d="M155.471,472.91517l-20.76246,-11.06528" fill="none" stroke="#000000" stroke-linecap="round"/></g><g><path d="M117.78026,438.05631c0.7472,16.2292 -5.08528,29.68196 -13.02725,30.04761c-7.94196,0.36565 -14.98589,-12.49427 -15.73309,-28.72347c-0.39796,-8.64402 13.63641,-35.52885 25.98097,-39.99029c10.83238,-3.9149 19.85645,14.07099 23.56834,13.90011c7.94194,-0.36565 -21.53622,8.53686 -20.78902,24.76604z" fill="#00ffe6" stroke="#000000" stroke-linecap="butt"/><path d="M134.86255,415.30944c-8.3431,13.25605 -23.80229,34.91838 -23.60605,39.18086c0.31001,6.73338 -4.1673,11.48113 -8.65623,11.68782c-4.48892,0.20668 -8.37925,-5.08427 -8.68926,-11.81765c-0.31001,-6.73338 30.79364,-49.97539 35.28259,-50.18205c1.64728,-0.07583 10.1096,4.07549 5.66894,11.13106z" fill="#00d6c0" stroke="none" stroke-linecap="butt"/><path d="M139.2585,413.02025c7.94192,-0.36565 -21.53622,8.53686 -20.78902,24.76604c0.7472,16.2292 -5.08529,29.68198 -13.02723,30.04763c-7.94194,0.36565 -14.98589,-12.49429 -15.73309,-28.72347c-0.39796,-8.64402 13.63641,-35.52885 25.98097,-39.99029c10.83238,-3.9149 19.85645,14.07099 23.56834,13.90011z" fill="none" stroke="#000000" stroke-linecap="butt"/><path d="M117.01724,433.46072l-21.15056,-10.3041" fill="none" stroke="#000000" stroke-linecap="round"/></g></g><g stroke-linecap="butt"><path d="M-10.32069,114.30806c-2.30529,-40.38628 32.38062,-75.21241 77.47316,-77.78633c45.09254,-2.57393 83.51606,28.07902 85.82135,68.4653c2.30529,40.38627 -32.38061,75.21241 -77.47316,77.78633c-45.09254,2.57393 -83.51606,-28.07904 -85.82135,-68.46531z" fill="#00ffe6" stroke="#000000"/><path d="M68.49459,35.08574c45.09255,-2.57393 83.51606,28.07904 85.82135,68.46532c2.30529,40.38628 -32.38064,75.2124 -77.47316,77.78632c-45.09254,2.57393 -83.51606,-28.07904 -85.82135,-68.46531c-2.30529,-40.38628 32.38064,-75.2124 77.47316,-77.78632z" fill="none" stroke="#000000"/><path d="M2.87147,66.38257c13.20157,-18.53059 37.95098,-29.59285 63.49473,-31.05091c24.84025,-1.41791 51.70558,6.61441 68.28122,22.63991c13.95232,13.48922 19.6338,33.74089 20.43899,47.84694c1.76177,30.86432 -36.59105,38.6713 -82.34029,41.28271c-45.74923,2.61141 -79.5662,-0.67842 -81.32796,-31.54272c-0.7781,-13.63144 1.0107,-34.51795 11.45332,-49.17589z" fill="#00ffe6" stroke="#000000"/><path d="M71.25003,89.56388c29.11294,-1.6618 53.38724,8.7914 54.21814,23.34788c0.8309,14.55647 -22.09624,27.70398 -51.20918,29.36577c-29.11294,1.6618 -53.38723,-8.79141 -54.21813,-23.34788c-0.8309,-14.55647 22.09624,-27.70398 51.20918,-29.36577z" fill="#00d6c0" stroke="none"/><path d="M-4.17571,130.80363c-0.13102,-2.29536 -6.17005,-8.06371 -6.54978,-15.49343c-0.81118,-15.87187 5.76248,-39.69 21.23646,-55.99078c9.57074,-10.08215 38.11898,-20.25369 56.04233,-22.43516c7.44808,-0.90654 8.38622,4.1102 12.80331,3.85807c7.66912,-0.43776 -38.28241,4.69318 -59.51835,25.09181c-23.83097,22.89132 -23.12652,61.57044 -9.82262,65.73519c14.45864,4.52624 43.19816,8.08394 68.14727,4.1377c39.07256,-6.18016 74.52325,-22.42436 74.76182,-18.24486c0.18411,3.2254 -13.40214,5.29236 -15.74645,10.69426c-3.79127,8.73608 0.85216,21.30633 -16.0354,25.06759c-9.87585,2.19958 -36.94507,-6.58886 -47.63612,-5.97861c-12.69151,0.72444 -25.0122,14.06005 -35.98434,13.05441c-11.09491,-1.0169 -15.12998,-12.11833 -22.37621,-17.70176c-8.32935,-6.41799 -19.08169,-7.58534 -19.32194,-11.79438z" fill="#00d6c0" stroke="none"/><path d="M-8.73459,115.79834c-0.7781,-13.63144 1.01068,-34.51795 11.4533,-49.1759c13.20157,-18.53056 37.95098,-29.59285 63.49473,-31.05091c24.84028,-1.41791 51.70558,6.61441 68.28122,22.63991c13.9523,13.48925 19.63378,33.74092 20.43897,47.84696c0.43547,7.62902 -12.45161,12.7691 -17.90863,22.1669c-5.22416,8.99677 -2.85757,22.35442 -9.81352,25.36778c-15.17366,6.57338 -31.00291,-7.59999 -54.61813,-6.25201c-12.81059,0.73124 -24.62211,15.30987 -35.11967,14.63981c-8.0829,-0.51592 -19.17287,-16.96739 -25.42877,-20.61144c-14.63454,-8.52459 -19.8909,-10.00392 -20.77949,-25.57108z" fill="none" stroke="#000000"/><path d="M38.79985,81.47191c12.38385,-0.70688 23.19442,12.235 24.14604,28.90653c0.95163,16.67153 -8.31605,30.7595 -20.6999,31.46638c-12.38387,0.70688 -29.37617,-6.00598 -30.3278,-22.67751c-0.95163,-16.67152 14.4978,-36.98851 26.88165,-37.69539z" fill="#820000" stroke="#000000"/><path d="M137.16945,112.01783c0.95163,16.67152 -14.58556,25.24121 -26.53489,25.92329c-11.94936,0.68208 -22.40766,-12.27993 -23.35928,-28.95144c-0.95163,-16.67153 7.96378,-30.73938 19.91314,-31.42146c11.94936,-0.68208 29.02941,17.77809 29.98104,34.44961z" data-paper-data="{&quot;index&quot;:null}" fill="#820000" stroke="#000000"/></g></g></g></svg>