<svg version="1.1" xmlns="http://www.w3.org/2000/svg" xmlns:xlink="http://www.w3.org/1999/xlink" width="349.44875" height="314.04315" viewBox="0,0,349.44875,314.04315"><g transform="translate(38.78857,-132.55486)"><g data-paper-data="{&quot;isPaintingLayer&quot;:true}" fill-rule="nonzero" stroke-width="7" stroke-linejoin="miter" stroke-miterlimit="10" stroke-dasharray="" stroke-dashoffset="0" style="mix-blend-mode: normal"><g><path d="M54.7257,380.95778c4.29292,-12.94242 34.65619,-79.42458 64.6133,-102.61642c14.19302,-10.9878 27.94729,5.24497 39.43881,9.05664c35.74655,11.8569 31.72443,117.42317 25.39762,136.49743c-6.3268,19.07424 -40.43402,24.92506 -76.18057,13.06816c-35.74655,-11.8569 -59.59598,-36.93157 -53.26918,-56.00581z" fill="#737373" stroke="#000000" stroke-linecap="butt"/><path d="M58.91882,387.4085c1.36261,-4.10803 38.06454,-100.84869 57.67331,-105.08142c17.28932,-3.73205 -29.15869,22.81725 -16.3842,46.79423c6.71312,12.60014 55.93347,27.95275 79.86983,35.44051c13.49677,4.22206 6.62635,3.40384 9.86692,4.42431c0.13397,0.04219 3.01293,5.43555 -5.20111,3.72642c-21.62164,-4.49893 -72.54472,-18.86331 -96.49621,-14.87771c-31.31047,5.21017 -26.6339,32.7393 -26.16999,32.89318c10.82802,3.59158 28.25606,20.35062 45.58092,24.4583c36.25266,8.59543 74.99714,4.98741 72.52369,12.44443c-3.65549,11.02069 -33.76453,10.95065 -67.25045,-0.15641c-33.48592,-11.10706 -57.66824,-29.04513 -54.01275,-40.06582z" fill="#484848" stroke="none" stroke-linecap="butt"/><path d="M121.18845,273.27529c13.89253,-11.08745 27.10164,4.96448 38.22978,8.65561c34.61623,11.48198 29.71121,116.7554 23.3844,135.82966c-6.32681,19.07426 -39.5177,25.229 -74.13393,13.74702c-34.61623,-11.48198 -57.54935,-36.25269 -51.22254,-55.32696c4.29292,-12.94242 34.41942,-79.50312 63.74229,-102.90533z" fill="none" stroke="#000000" stroke-linecap="butt"/><path d="M77.2556,342.1427l106.08566,36.32384" fill="none" stroke="#000000" stroke-linecap="round"/><path d="M88.81339,312.57675l21.64681,-1.90713l10.41296,9.70139" fill="none" stroke="#000000" stroke-linecap="round"/><path d="M185.60848,397.26683l-21.98372,4.63514l-16.73014,-16.34037" fill="none" stroke="#000000" stroke-linecap="round"/></g><g data-paper-data="{&quot;index&quot;:null}" stroke-linecap="butt"><path d="M275.10524,414.53918c-21.43247,3.60553 -41.82986,-11.44108 -45.55887,-33.60752c-3.72901,-22.16644 10.62247,-43.05877 32.05494,-46.6643c21.43247,-3.60553 41.82986,11.44108 45.55887,33.60752c3.72901,22.16644 -10.62247,43.05877 -32.05494,46.6643z" fill="#737373" stroke="#000000"/><path d="M259.92175,417.05192c-12.91819,2.1732 -26.38006,-13.8362 -30.06791,-35.75797c-3.68785,-21.9218 3.79483,-41.45464 16.71303,-43.62784c12.91819,-2.1732 42.64266,-15.13863 46.33051,6.78317c1.4053,8.35354 -14.88836,-0.00594 -28.75183,2.781c-8.61874,1.73262 -15.42041,12.9915 -19.11768,19.37205c-2.81334,4.85509 -5.40646,18.7858 -0.64414,29.47681c5.33056,11.96665 18.14455,20.53431 15.53802,20.9728z" fill="#484848" stroke="none"/><path d="M274.51568,415.36721c-21.43247,3.60553 -41.82986,-11.44108 -45.55887,-33.60752c-3.72901,-22.16644 10.62247,-43.05877 32.05494,-46.6643c21.43247,-3.60553 41.82986,11.44108 45.55887,33.60752c3.72901,22.16644 -10.62247,43.05877 -32.05494,46.6643z" fill="none" stroke="#000000"/></g><path d="M68.71091,237.5595z" fill="#ffffff" stroke="#000000" stroke-linecap="butt"/><g stroke-linecap="butt"><path d="M18.2878,251.88174c21.39153,6.90355 33.32168,29.26704 26.64672,49.95026c-6.67497,20.68322 -29.42737,31.85382 -50.8189,24.95026c-21.39153,-6.90355 -33.32168,-29.26704 -26.64672,-49.95026c6.67497,-20.68322 29.42737,-31.85382 50.8189,-24.95026z" fill="#737373" stroke="#000000"/><path d="M-37.21874,291.49071c0.81178,-2.5154 7.431,11.40541 18.49829,18.41471c9.88754,6.26212 24.04701,5.71623 29.25872,3.63657c6.84918,-2.73307 18.97527,-7.83039 21.93923,-16.10687c4.76757,-13.31287 -1.14111,-30.64642 6.9204,-28.04478c21.15544,6.82736 4.0172,34.35786 -0.00607,46.82445c-4.02326,12.46659 -24.43463,17.0381 -45.59007,10.21074c-21.15544,-6.82736 -35.0438,-22.4682 -31.02053,-34.9348z" fill="#484848" stroke="none"/><path d="M17.38303,252.34501c21.39153,6.90355 33.32168,29.26704 26.64672,49.95026c-6.67497,20.68322 -29.42737,31.85382 -50.8189,24.95026c-21.39153,-6.90355 -33.32168,-29.26704 -26.64672,-49.95026c6.67497,-20.68322 29.42737,-31.85382 50.8189,-24.95026z" fill="none" stroke="#000000"/></g><g><path d="M221.39721,152.11893c39.73492,27.59938 50.26114,81.1935 23.51096,119.7058c-26.75017,38.51231 -80.64698,47.35898 -120.3819,19.7596c-39.73492,-27.59938 -50.26114,-81.1935 -23.51096,-119.7058c26.75017,-38.51231 80.64698,-47.35898 120.3819,-19.7596z" fill="#737373" stroke="#000000" stroke-linecap="butt"/><path d="M186.4034,291.25533c32.54301,4.60405 48.29945,-42.19985 61.51893,-33.01777c6.55604,4.55375 4.66245,8.9056 2.57676,13.39294c-7.32693,15.76395 -52.78969,30.55021 -58.14411,38.259c-1.49785,2.15645 -13.06485,-3.57416 -16.47983,-3.10715c-12.26784,1.67774 -26.40292,-0.09645 -49.54741,-16.17233c-21.23874,-14.75216 -32.40747,-34.17061 -36.90728,-46.18727c-1.76878,-4.72349 -6.15121,-6.16041 -4.2103,-8.95473c3.80527,-5.47846 60.89994,50.08675 101.19326,55.78731z" fill="#484848" stroke="none" stroke-linecap="butt"/><path d="M221.53242,152.86921c39.73492,27.59938 50.26114,81.1935 23.51096,119.7058c-26.75017,38.51231 -80.64698,47.35898 -120.3819,19.7596c-39.73492,-27.59938 -50.26114,-81.1935 -23.51096,-119.7058c26.75017,-38.51231 80.64698,-47.35898 120.3819,-19.7596z" fill="none" stroke="#000000" stroke-linecap="butt"/><path d="M181.72031,207.19239c19.5618,13.58738 28.81094,34.11693 20.6585,45.85401c-8.15243,11.73708 -30.61927,10.23711 -50.18107,-3.35027c-19.5618,-13.58738 -28.81094,-34.11693 -20.6585,-45.85401c8.15243,-11.73708 30.61927,-10.23711 50.18107,3.35027z" fill="#484848" stroke="none" stroke-linecap="butt"/><path d="M157.788,184.0058c7.09114,4.92542 5.81777,19.02774 -2.84419,31.49838c-8.66195,12.47065 -21.43238,18.58725 -28.52354,13.66184c-7.09114,-4.92542 -5.81777,-19.02774 2.84419,-31.49838c8.66195,-12.47065 21.43238,-18.58725 28.52354,-13.66184z" fill="#000000" stroke="#000000" stroke-linecap="butt"/><path d="M202.01138,237.03875c8.68055,6.02941 12.06889,16.17015 7.56807,22.65001c-4.50083,6.47985 -15.18644,6.84501 -23.86699,0.8156c-8.68055,-6.02941 -12.06889,-16.17015 -7.56807,-22.65001c4.50083,-6.47985 15.18644,-6.84501 23.86699,-0.8156z" fill="#ffffff" stroke="#000000" stroke-linecap="butt"/><path d="M129.52033,147.94745l17.94325,15.74491l-11.39161,24.9051" fill="none" stroke="#000000" stroke-linecap="round"/><path d="M107.41619,245.03146l4.55984,-9.0847" fill="none" stroke="#000000" stroke-linecap="round"/><path d="M139.36094,253.21771l2.87024,-4.13231" fill="none" stroke="#000000" stroke-linecap="round"/><path d="M180.50371,280.91983l-2.87024,4.13231" fill="none" stroke="#000000" stroke-linecap="round"/></g></g></g></svg>