<svg version="1.1" xmlns="http://www.w3.org/2000/svg" xmlns:xlink="http://www.w3.org/1999/xlink" width="480.17056" height="786.79424" viewBox="0,0,480.17056,786.79424"><g transform="translate(116.77345,144.19318)"><g data-paper-data="{&quot;isPaintingLayer&quot;:true}" fill-rule="nonzero" stroke-linejoin="miter" stroke-miterlimit="10" stroke-dasharray="" stroke-dashoffset="0" style="mix-blend-mode: normal"><path d="" fill="none" stroke="#000000" stroke-width="0" stroke-linecap="round"/><path d="" fill="none" stroke="#000000" stroke-width="0" stroke-linecap="round"/><g data-paper-data="{&quot;index&quot;:null}" stroke-width="5.5"><path d="M146.72068,381.16633c4.99671,-14.47957 26.17578,-9.39894 33.41903,-7.91624c18.8092,3.85027 36.50574,73.82452 43.66651,125.41914c3.4104,24.57263 2.6337,45.21407 1.80332,52.11387c-2.57402,21.38712 -12.30661,41.09481 -40.07395,35.41083c-27.76732,-5.68398 -48.19053,-27.62947 -45.61651,-49.01661c1.90257,-15.80819 -7.35675,-114.9825 6.8016,-156.01098z" data-paper-data="{&quot;index&quot;:null}" fill="#ff48b3" stroke="#000000" stroke-linecap="butt"/><path d="M227.71973,553.49874c-2.41396,20.05707 -17.16484,33.69765 -32.94712,30.46698c-14.17153,-2.90089 -45.90897,-15.33903 -49.59349,-32.04625c-0.41876,-1.89889 -1.54308,-1.20889 -1.29671,-3.25584c0.0131,-0.10908 -0.89751,-4.18145 -0.91762,-7.15569c-0.05323,-7.87591 -4.48925,-21.68215 -2.74687,-40.77112c1.63808,-17.94639 -1.41702,-35.3974 0.91332,-52.68944c1.44255,-10.70426 0.82694,-30.3121 3.39443,-44.4662c3.15339,-17.38413 9.4573,-28.46776 10.09633,-28.26462c5.52793,1.75717 0.36023,82.61336 5.93912,127.02436c4.53948,36.1365 30.19042,63.74645 34.11667,66.94776c8.84601,7.21266 17.77291,4.02635 19.0431,-7.3031c1.41934,-12.65928 13.83793,-15.61293 11.17806,-37.40076c-6.42759,-52.65009 -33.29187,-133.19905 -26.33523,-131.77503c15.78228,3.23064 31.57001,140.6319 29.15605,160.68898z" fill="#bb1c79" stroke="none" stroke-linecap="butt"/><g fill="none" stroke="#000000"><path d="M142.74425,536.24389c1.93002,-16.03633 -9.35054,-114.74739 5.25507,-155.05348c4.87343,-13.44887 28.01851,-10.29578 34.96559,-8.87371c27.76734,5.68398 48.04385,156.14589 45.46983,177.53303c-2.57402,21.38712 -12.30661,41.09481 -40.07395,35.41083c-27.76732,-5.68398 -48.19053,-27.62947 -45.61651,-49.01661z" data-paper-data="{&quot;index&quot;:null}" stroke-linecap="butt"/><path d="M141.90393,488.4083l78.1626,-8.16862" stroke-linecap="round"/></g></g><g stroke-width="5.5"><path d="M126.99513,541.50675c2.57402,21.38714 -17.84919,43.33263 -45.61651,49.01661c-27.76734,5.68398 -37.49993,-14.02371 -40.07395,-35.41083c-0.83039,-6.8998 -1.60709,-27.54124 1.8033,-52.11387c7.16077,-51.59462 24.85733,-121.56887 43.66651,-125.41914c7.24325,-1.4827 28.42232,-6.56331 33.41903,7.91624c14.15835,41.02848 4.89904,140.20279 6.8016,156.01098z" data-paper-data="{&quot;index&quot;:null}" fill="#ff48b3" stroke="#000000" stroke-linecap="butt"/><path d="M68.35056,397.13919c6.95664,-1.42402 -19.90764,79.12494 -26.33523,131.77503c-2.6599,21.78783 9.75872,24.74146 11.17806,37.40076c1.27019,11.32948 10.19709,14.51577 19.0431,7.3031c3.92625,-3.20131 29.5772,-30.81126 34.11667,-66.94776c5.57889,-44.41098 0.41119,-125.26718 5.93912,-127.02436c0.63902,-0.20314 6.94294,10.88049 10.09633,28.26462c2.56748,14.15411 1.95188,33.76194 3.39443,44.4662c2.33034,17.29206 -0.72477,34.74308 0.91332,52.68944c1.74238,19.08897 -2.69367,32.89521 -2.74687,40.77112c-0.02011,2.97423 -0.93072,7.04661 -0.91762,7.15569c0.24637,2.04698 -0.87794,1.35695 -1.29671,3.25584c-3.68452,16.70722 -35.42193,29.14533 -49.59349,32.04625c-15.78228,3.23064 -30.53318,-10.40991 -32.94714,-30.46698c-2.41396,-20.05707 13.37377,-157.45833 29.15605,-160.68898z" fill="#bb1c79" stroke="none" stroke-linecap="butt"/><g fill="none" stroke="#000000"><path d="M124.16994,540.57332c2.57402,21.38714 -17.84919,43.33265 -45.61651,49.01661c-27.76734,5.68398 -37.49993,-14.02371 -40.07395,-35.41083c-2.57402,-21.38714 17.70249,-171.84904 45.46983,-177.53303c6.94707,-1.42207 30.09218,-4.57515 34.96559,8.87371c14.6056,40.30612 3.32505,139.01715 5.25507,155.05348z" data-paper-data="{&quot;index&quot;:null}" stroke-linecap="butt"/><path d="M125.01028,492.73774l-78.1626,-8.16862" stroke-linecap="round"/></g></g><g stroke-width="5.5" stroke-linecap="butt"><g><g><path d="M54.21296,327.88844c2.22667,-25.02714 -6.9838,-112.18834 15.34786,-139.88058c18.11287,-22.46073 96.12886,4.34283 109.85564,5.56411c12.19521,1.08501 25.19578,-5.74693 27.16058,14.49298c2.97345,30.63007 1.09633,93.82641 -1.33185,121.11849c-4.03269,45.32627 -42.91364,81.43175 -73.56443,78.70474c-30.65079,-2.72701 -81.50051,-34.67345 -77.46783,-79.99972z" fill="#ff48b3" stroke="#000000"/><path d="M51.56628,335.61705c0.37861,-4.25543 21.66382,36.65242 57.14397,49.24208c26.8333,9.52144 68.33222,-5.01752 77.77186,-22.76863c4.16443,-7.83116 12.40021,-39.4966 14.34884,-66.11866c2.29851,-31.402 -2.70014,-59.34335 -12.41835,-84.4358c-10.26018,-26.4918 -56.65242,-26.38238 -50.65265,-25.84858c9.0862,0.8084 23.69819,2.67626 39.22852,6.38787c8.71068,2.08178 21.14341,1.23454 24.69981,9.64262c19.31511,45.66513 2.19566,139.22937 1.46994,147.38628c-1.09758,12.33652 -31.22976,63.2458 -73.09071,59.52143c-1.17951,-0.10494 -8.24006,-2.28944 -9.40209,-2.468c-40.07863,-6.15834 -70.16582,-58.55169 -69.09916,-70.54059z" fill="#bb1c79" stroke="none"/><path d="M54.49637,327.67192c2.22667,-25.02714 -6.98382,-112.18834 15.34786,-139.88058c18.11287,-22.46073 96.12888,4.34283 109.85566,5.56411c12.19518,1.08501 25.19578,-5.74693 27.16058,14.49298c2.97345,30.63005 1.09633,93.82641 -1.33185,121.11847c-4.03269,45.32627 -42.91364,81.43175 -73.56443,78.70474c-30.65077,-2.727 -81.50049,-34.67345 -77.4678,-79.99972z" fill="none" stroke="#000000"/><path d="M135.40917,411.76651c-8.31674,-0.73994 -69.89089,-16.24951 -65.32791,-67.53612c3.11944,-35.06164 6.66013,-122.24617 25.95217,-151.86816c8.92749,-13.70774 39.49427,11.98212 42.12535,12.21621c3.92866,0.34953 17.43214,-27.57423 30.5856,-3.10598c14.69163,27.3296 22.5875,110.5876 20.17998,137.64747c-4.56298,51.28661 -45.19844,73.38652 -53.51518,72.64657z" fill="#ff94d2" stroke="#000000"/><path d="M72.69224,344.71294c1.01202,-11.37479 2.63672,-152.36267 28.64988,-152.44769c3.72876,-0.01217 -24.59142,149.00675 -17.88091,169.32427c0.32057,0.97063 4.72281,15.19973 15.68857,22.96828c11.96779,8.47842 30.57874,10.51074 30.78454,10.52905c31.88086,2.83645 59.38029,-53.2704 58.20871,-40.10221c-1.17158,13.16819 -26.48508,56.07893 -58.36593,53.24249c-19.4555,-1.73096 -42.37163,-15.02379 -52.71726,-32.07102c-6.60728,-10.88731 -4.82422,-26.31094 -4.36761,-31.44314z" fill="#ea88c1" stroke="none"/><path d="M189.29712,337.89952c-4.56298,51.28659 -45.19844,73.3865 -53.51518,72.64655c-8.31674,-0.73994 -69.89089,-16.24951 -65.32791,-67.53612c3.11944,-35.06164 6.66013,-122.24617 25.95217,-151.86816c8.92751,-13.70776 39.49429,11.9821 42.12537,12.21619c3.92866,0.34953 17.43214,-27.57421 30.58559,-3.10595c14.69163,27.3296 22.5875,110.58762 20.17998,137.64747z" fill="none" stroke="#000000"/></g><path d="M129.66548,258.85846c4.71281,0.4193 8.2034,4.46736 7.79643,9.04156c-0.40697,4.57423 -4.55737,7.94244 -9.27019,7.52314c-4.71281,-0.4193 -8.2034,-4.46736 -7.79643,-9.04156c0.40697,-4.57423 4.55737,-7.94244 9.27019,-7.52314z" fill="#000000" stroke="#000000"/></g><path d="M134.4762,221.8474c4.15838,0.36997 7.24948,3.81618 6.90417,7.69734c-0.34531,3.88116 -3.99626,6.72752 -8.15464,6.35755c-4.15838,-0.36997 -7.24948,-3.81618 -6.90417,-7.69734c0.34531,-3.88116 3.99626,-6.72752 8.15464,-6.35755z" fill="#000000" stroke="#000000"/></g><g data-paper-data="{&quot;index&quot;:null}" stroke-width="5.5"><path d="M224.44425,187.4375c17.88104,0 67.87969,117.59694 67.87969,132.71612c0,15.11918 -17.98756,43.76196 -35.86864,43.76196c-17.88106,0 -64.38759,-133.98324 -64.38759,-149.10242c0,-7.50371 -6.01951,-16.04492 -0.23669,-20.98998c5.86889,-5.01868 23.60658,-6.38565 32.61319,-6.38565z" fill="#ff48b3" stroke="#000000" stroke-linecap="butt"/><path d="M268.39952,340.37958c18.64354,0 25.02683,-47.32653 25.02683,-23.40897c0,23.91759 -18.02371,45.63011 -36.66725,45.63011c-18.64358,0 -64.02217,-120.03029 -64.02217,-143.94786c0,-15.78033 21.91072,52.78508 44.15442,94.09866c11.47021,21.30376 25.16518,27.62811 31.50812,27.62811z" fill="#bb1c79" stroke="none" stroke-linecap="butt"/><path d="M224.44429,188.9194c17.88104,0 67.87969,117.59694 67.87969,132.71612c0,15.11918 -17.98758,43.76193 -35.86864,43.76193c-17.88106,0 -64.38759,-133.98319 -64.38759,-149.10237c0,-8.02209 -7.6403,-18.1426 -1.13816,-23.14963c5.75243,-4.4297 25.12113,-4.22602 33.51466,-4.22602z" fill="none" stroke="#000000" stroke-linecap="butt"/><path d="M267.21511,251.95625l-49.54848,33.10941" fill="none" stroke="#000000" stroke-linecap="round"/></g><g stroke-width="5.5"><path d="M28.37129,182.56691c9.00661,0 26.7443,1.36698 32.61319,6.38565c5.78282,4.94506 -0.23669,13.48627 -0.23669,20.98998c0,15.11916 -46.50654,149.1024 -64.38759,149.1024c-17.88108,0 -35.86864,-28.6428 -35.86864,-43.76196c0,-15.11916 49.99866,-132.7161 67.87969,-132.7161z" fill="#ff48b3" stroke="#000000" stroke-linecap="butt"/><path d="M-15.58397,335.50899c6.34294,0 20.03792,-6.32435 31.50812,-27.62811c22.2437,-41.3136 44.15442,-109.87899 44.15442,-94.09868c0,23.91759 -45.37859,143.94788 -64.02217,143.94788c-18.64354,0 -36.66725,-21.7125 -36.66725,-45.63009c0,-23.91757 6.38329,23.40897 25.02683,23.40897z" fill="#bb1c79" stroke="none" stroke-linecap="butt"/><path d="M28.37125,184.04883c8.39354,0 27.76223,-0.20368 33.51466,4.22602c6.50214,5.00705 -1.13816,15.12754 -1.13816,23.14963c0,15.11916 -46.50654,149.10237 -64.38759,149.10237c-17.88106,0 -35.86864,-28.64277 -35.86864,-43.76193c0,-15.11916 49.99866,-132.71612 67.87969,-132.71612z" fill="none" stroke="#000000" stroke-linecap="butt"/><path d="M35.14887,280.19505l-49.54848,-33.10941" fill="none" stroke="#000000" stroke-linecap="round"/></g><g stroke-width="5.5"><path d="M-67.33389,351.99019c5.58008,-20.91225 25.55249,-33.74274 44.60962,-28.65765c19.05713,5.08505 29.98245,26.16006 24.40238,47.07231c-5.58008,20.91227 -25.55251,33.74274 -44.60964,28.65765c-19.05715,-5.08505 -29.98245,-26.16006 -24.40238,-47.07231z" fill="#ff48b3" stroke="#000000" stroke-linecap="butt"/><path d="M-68.17953,367.04127c3.15003,-11.8053 5.25085,-45.70198 22.11557,-41.2019c2.82944,0.75499 -7.1619,12.49851 -9.01652,26.76248c-1.75922,13.53011 4.59851,29.54029 7.52869,32.95043c12.39324,14.42327 42.56506,-10.16086 40.44481,-2.21483c-3.15005,11.80528 -19.37521,17.72736 -36.23993,13.22728c-16.86472,-4.50008 -27.98269,-17.71818 -24.83263,-29.52349z" fill="#bb1c79" stroke="none" stroke-linecap="butt"/><path d="M-23.32494,325.28322c19.05715,5.08505 29.98245,26.16006 24.40238,47.07231c-5.58008,20.91227 -25.55247,33.74274 -44.60962,28.65765c-19.05715,-5.08505 -29.98245,-26.16006 -24.40235,-47.07231c5.58008,-20.91227 25.55245,-33.74274 44.60959,-28.65765z" fill="none" stroke="#000000" stroke-linecap="butt"/><g><path d="M-84.99533,399.56452c0.9444,16.38032 -4.78814,30.03382 -12.80406,30.49594c-8.01588,0.46217 -15.27965,-12.44201 -16.22405,-28.82232c-0.50302,-8.72452 13.35509,-36.03829 25.76903,-40.6881c10.89327,-4.08019 20.21664,13.97729 23.96309,13.76128c8.0159,-0.46217 -21.64847,8.87287 -20.70402,25.25313z" fill="#ff48b3" stroke="#000000" stroke-linecap="butt"/><path d="M-87.78316,416.23667c0.39184,6.79608 -7.68191,11.64297 -12.21262,11.90421c-4.53071,0.26124 -8.52123,-5.03632 -8.91307,-11.83241c-0.39184,-6.79608 30.51229,-50.82781 35.04304,-51.08905c1.66261,-0.09588 10.25682,3.99734 5.85495,11.17433c-3.17094,5.1701 -11.97456,9.14931 -15.20467,15.0027c-5.19439,9.41292 -4.21548,20.23932 -4.06257,22.89194z" fill="#bb1c79" stroke="none" stroke-linecap="butt"/><path d="M-84.30245,399.28382c0.94442,16.38028 -4.78814,30.0338 -12.80402,30.49597c-8.01588,0.46217 -15.27965,-12.44206 -16.22405,-28.82232c-0.50302,-8.72452 13.35509,-36.03829 25.76905,-40.6881c10.89327,-4.08019 20.21664,13.97729 23.96307,13.76128c8.01588,-0.46217 -21.64847,8.87287 -20.70402,25.25313z" fill="none" stroke="#000000" stroke-linecap="butt"/><path d="M-107.29902,384.77448l21.47938,10.15817" fill="none" stroke="#000000" stroke-linecap="round"/></g><g><path d="M-52.82078,412.25537c6.57619,15.03199 5.94403,29.82659 -1.41209,33.0447c-7.35605,3.21815 -18.65038,-6.35881 -25.22657,-21.39078c-3.50264,-8.00636 0.00336,-38.43327 10.0287,-47.10614c8.7973,-7.61043 23.81323,6.08333 27.25129,4.57924c7.35608,-3.21815 -17.21759,15.84103 -10.64138,30.87293z" fill="#ff48b3" stroke="#000000" stroke-linecap="butt"/><path d="M-49.64298,428.85764c2.72843,6.23666 -3.1586,13.58652 -7.31635,15.40549c-4.15775,1.81897 -9.74014,-1.7623 -12.46857,-7.99897c-2.72843,-6.23666 10.95394,-58.26214 15.11174,-60.08111c1.52576,-0.66751 11.00668,0.18508 9.37231,8.4443c-1.17732,5.94968 -8.05019,12.73947 -9.04562,19.35045c-1.60074,10.63121 3.07834,20.44319 4.14327,22.87748z" fill="#bb1c79" stroke="none" stroke-linecap="butt"/><path d="M-52.26856,411.75144c6.57621,15.03194 5.94401,29.82657 -1.41204,33.0447c-7.35605,3.21815 -18.6504,-6.35886 -25.22657,-21.39078c-3.50264,-8.00636 0.00336,-38.43327 10.02872,-47.10616c8.7973,-7.61043 23.81323,6.08333 27.25127,4.57924c7.35605,-3.21815 -17.21759,15.84103 -10.64138,30.87293z" fill="none" stroke="#000000" stroke-linecap="butt"/><path d="M-78.87343,406.13498l23.67055,2.06341" fill="none" stroke="#000000" stroke-linecap="round"/></g><g><path d="M-19.45745,418.3235c8.57433,13.98885 9.97579,28.73047 3.13016,32.9264c-6.84557,4.19596 -19.3459,-3.74271 -27.92021,-17.73152c-4.56688,-7.45076 -5.26411,-38.07107 3.47801,-48.0361c7.67124,-8.74433 24.42227,2.76222 27.62174,0.80112c6.84559,-4.19596 -14.88405,18.05129 -6.30972,32.04006z" fill="#ff48b3" stroke="#000000" stroke-linecap="butt"/><path d="M-14.03423,434.33357c3.55745,5.80387 -1.26671,13.89123 -5.13594,16.26285c-3.86924,2.37162 -9.88977,-0.41075 -13.4472,-6.21462c-3.55745,-5.80387 2.86554,-59.21364 6.7348,-61.58528c1.41986,-0.8703 10.92816,-1.32515 10.44119,7.0801c-0.35079,6.05491 -6.22824,13.72253 -6.3082,20.40756c-0.12861,10.75026 5.8511,19.82839 7.23961,22.09375z" fill="#bb1c79" stroke="none" stroke-linecap="butt"/><path d="M-18.97953,417.74864c8.57433,13.98879 9.97577,28.73044 3.1302,32.9264c-6.84557,4.19596 -19.34592,-3.74275 -27.92021,-17.73152c-4.56688,-7.45076 -5.26409,-38.07105 3.47803,-48.03612c7.67124,-8.74433 24.42227,2.76224 27.62172,0.80114c6.84557,-4.19596 -14.88405,18.05127 -6.30972,32.04004z" fill="none" stroke="#000000" stroke-linecap="butt"/><path d="M-46.10308,415.83146l23.72997,-1.20021" fill="none" stroke="#000000" stroke-linecap="round"/></g><g data-paper-data="{&quot;index&quot;:null}"><path d="M9.02797,408.36825c-0.02959,-16.40743 -30.19583,-23.96506 -22.16661,-23.97954c3.75267,-0.00678 11.98766,-18.58587 23.10393,-15.15951c12.66807,3.90469 28.12313,30.34764 28.13891,39.08664c0.02963,16.40747 -6.45529,29.72007 -14.48449,29.73457c-8.02922,0.01453 -14.56214,-13.27458 -14.59177,-29.68208z" fill="#ff48b3" stroke="#000000" stroke-linecap="butt"/><path d="M12.18075,422.93075c-0.00483,-2.65704 0.32969,-13.52244 -5.41432,-22.61042c-3.57189,-5.65134 -12.59618,-9.1009 -16.06843,-14.07365c-4.82013,-6.90302 3.51591,-11.49921 5.18129,-11.5022c4.53826,-0.00818 38.00173,42.11134 38.01401,48.9187c0.0123,6.80736 -3.65673,12.33246 -8.19497,12.34064c-4.53824,0.00818 -12.88543,-4.35089 -12.89773,-11.15825z" fill="#bb1c79" stroke="none" stroke-linecap="butt"/><path d="M8.31961,408.1292c-0.02959,-16.40743 -30.19576,-23.96506 -22.16659,-23.97954c3.75264,-0.00675 11.98764,-18.58585 23.10391,-15.15951c12.6681,3.90469 28.12316,30.34764 28.13894,39.08662c0.02963,16.40745 -6.45532,29.72009 -14.48449,29.73459c-8.02917,0.0145 -14.56214,-13.27465 -14.59175,-29.6821z" fill="none" stroke="#000000" stroke-linecap="butt"/><path d="M30.41433,392.28036l-20.83849,11.41533" fill="none" stroke="#000000" stroke-linecap="round"/></g></g><g data-paper-data="{&quot;index&quot;:null}" stroke-width="5.5"><path d="M313.94429,350.36666c5.58008,20.91225 -5.34523,41.98726 -24.40238,47.07231c-19.05713,5.08509 -39.02956,-7.74538 -44.60964,-28.65765c-5.58008,-20.91225 5.34525,-41.98726 24.40238,-47.07231c19.05713,-5.08509 39.02954,7.7454 44.60962,28.65765z" fill="#ff48b3" stroke="#000000" stroke-linecap="butt"/><path d="M314.78994,365.41772c3.15005,11.8053 -7.96791,25.02341 -24.83263,29.52349c-16.86472,4.50008 -33.08988,-1.422 -36.23993,-13.22728c-2.12025,-7.94603 28.05157,16.6381 40.44481,2.21483c2.93018,-3.41014 9.28791,-19.42032 7.52869,-32.95043c-1.85462,-14.26397 -11.84596,-26.00749 -9.01652,-26.76248c16.86472,-4.50008 18.96554,29.39659 22.11557,41.2019z" fill="#bb1c79" stroke="none" stroke-linecap="butt"/><path d="M314.54489,352.31733c5.5801,20.91225 -5.34521,41.98726 -24.40235,47.07231c-19.05715,5.08509 -39.02954,-7.74538 -44.60962,-28.65765c-5.58008,-20.91225 5.34523,-41.98726 24.40238,-47.07231c19.05715,-5.08509 39.02952,7.74538 44.60959,28.65765z" fill="none" stroke="#000000" stroke-linecap="butt"/><g><path d="M331.60572,397.94092c0.94444,-16.38026 -28.71992,-25.7153 -20.70402,-25.25313c3.74645,0.21602 13.06982,-17.84147 23.96309,-13.76128c12.41394,4.64981 26.27204,31.96358 25.76903,40.6881c-0.9444,16.3803 -8.20817,29.28448 -16.22405,28.82232c-8.01592,-0.46212 -13.74846,-14.11562 -12.80406,-30.49594z" fill="#ff48b3" stroke="#000000" stroke-linecap="butt"/><path d="M333.88848,412.66489c0.15292,-2.65262 1.13182,-13.47902 -4.06257,-22.89194c-3.2301,-5.85339 -12.03373,-9.8326 -15.20467,-15.0027c-4.40186,-7.17699 4.19234,-11.27021 5.85495,-11.17433c4.53075,0.26124 35.43488,44.29296 35.04304,51.08905c-0.39184,6.79608 -4.38236,12.09364 -8.91307,11.83241c-4.53071,-0.26124 -12.60445,-5.10813 -12.21262,-11.90421z" fill="#bb1c79" stroke="none" stroke-linecap="butt"/><path d="M330.91279,397.66024c0.94444,-16.38026 -28.7199,-25.7153 -20.70402,-25.25313c3.74643,0.21602 13.0698,-17.84147 23.96307,-13.76128c12.41396,4.64981 26.27206,31.96358 25.76905,40.6881c-0.9444,16.38026 -8.20817,29.28448 -16.22405,28.82232c-8.01588,-0.46217 -13.74844,-14.11568 -12.80402,-30.49597z" fill="none" stroke="#000000" stroke-linecap="butt"/><path d="M353.90938,383.15095l-21.47938,10.15817" fill="none" stroke="#000000" stroke-linecap="round"/></g><g><path d="M299.43119,410.63179c6.57621,-15.0319 -17.99748,-34.09111 -10.6414,-30.87295c3.43805,1.50409 18.45399,-12.18967 27.25129,-4.57922c10.02537,8.67287 13.53134,39.09978 10.02872,47.10614c-6.57619,15.03197 -17.87054,24.60893 -25.22659,21.39078c-7.35612,-3.21813 -7.98828,-18.01272 -1.41207,-33.0447z" fill="#ff48b3" stroke="#000000" stroke-linecap="butt"/><path d="M296.45656,425.23172c1.06493,-2.43429 5.74403,-12.24628 4.14327,-22.87748c-0.99542,-6.61098 -7.86829,-13.40074 -9.04562,-19.35042c-1.63436,-8.25922 7.84656,-9.11181 9.37231,-8.4443c4.15779,1.81897 17.84017,53.84445 15.11174,60.08113c-2.72843,6.23668 -8.3108,9.81794 -12.46857,7.99897c-4.15775,-1.81897 -10.04478,-9.16881 -7.31635,-15.40549z" fill="#bb1c79" stroke="none" stroke-linecap="butt"/><path d="M298.87892,410.12786c6.57621,-15.0319 -17.99743,-34.09106 -10.64138,-30.87293c3.43802,1.50409 18.45397,-12.18969 27.25127,-4.57924c10.02539,8.67289 13.53136,39.09978 10.02872,47.10616c-6.57617,15.03192 -17.87052,24.60891 -25.22659,21.39078c-7.35605,-3.21813 -7.98824,-18.01276 -1.41204,-33.0447z" fill="none" stroke="#000000" stroke-linecap="butt"/><path d="M301.81324,406.57485l23.67055,-2.06341" fill="none" stroke="#000000" stroke-linecap="round"/></g><g><path d="M266.06788,416.69992c8.57433,-13.98877 -13.15533,-36.23602 -6.30974,-32.04006c3.19947,1.9611 19.95051,-9.54547 27.62174,-0.80114c8.7421,9.96504 8.04487,40.58534 3.47799,48.03612c-8.57433,13.98883 -21.07464,21.92745 -27.92021,17.73152c-6.84564,-4.19594 -5.44418,-18.93757 3.13016,-32.9264z" fill="#ff48b3" stroke="#000000" stroke-linecap="butt"/><path d="M261.12033,430.75439c1.38851,-2.26535 7.36822,-11.34346 7.23961,-22.09375c-0.07996,-6.68503 -5.95741,-14.35266 -6.3082,-20.40759c-0.48697,-8.40525 9.02133,-7.95042 10.44119,-7.08012c3.86926,2.37166 10.29225,55.78142 6.7348,61.5853c-3.55743,5.80389 -9.57796,8.58626 -13.44722,6.21462c-3.86924,-2.37164 -8.69337,-10.45898 -5.13594,-16.26285z" fill="#bb1c79" stroke="none" stroke-linecap="butt"/><path d="M265.58989,416.12506c8.57433,-13.98877 -13.15529,-36.23599 -6.30969,-32.04004c3.19945,1.9611 19.95048,-9.54547 27.62172,-0.80114c8.74212,9.96506 8.04489,40.58534 3.47801,48.03612c-8.57431,13.98879 -21.07464,21.92748 -27.92021,17.73152c-6.84559,-4.19594 -5.44415,-18.93761 3.13018,-32.9264z" fill="none" stroke="#000000" stroke-linecap="butt"/><path d="M268.98347,413.00771l23.72997,1.20021" fill="none" stroke="#000000" stroke-linecap="round"/></g><g data-paper-data="{&quot;index&quot;:null}"><path d="M237.58242,406.74478c-0.02966,16.40751 -6.56258,29.69662 -14.59179,29.6821c-8.02917,-0.01448 -14.5141,-13.3271 -14.48447,-29.73459c0.01578,-8.739 15.47086,-35.18195 28.13891,-39.08664c11.11627,-3.42634 19.35125,15.15276 23.10393,15.15951c8.02922,0.01448 -22.137,7.57211 -22.16661,23.97956z" fill="#ff48b3" stroke="#000000" stroke-linecap="butt"/><path d="M233.80979,423.22206c-0.0123,6.80736 -8.35951,11.16643 -12.89775,11.15825c-4.53822,-0.00818 -8.20726,-5.53328 -8.19497,-12.34064c0.0123,-6.80736 33.47576,-48.92688 38.01403,-48.91872c1.66536,0.00301 10.00142,4.59918 5.18127,11.5022c-3.47227,4.97277 -12.49654,8.42231 -16.06843,14.07365c-5.74401,9.08798 -5.40952,19.95336 -5.41432,22.61042z" fill="#bb1c79" stroke="none" stroke-linecap="butt"/><path d="M238.29073,406.50573c-0.02961,16.40747 -6.56258,29.69658 -14.59175,29.6821c-8.02917,-0.01448 -14.5141,-13.32717 -14.48447,-29.73459c0.01578,-8.739 15.47084,-35.18193 28.13894,-39.08662c11.11627,-3.42634 19.35125,15.15276 23.10389,15.15951c8.02917,0.01448 -22.13698,7.57211 -22.16657,23.97956z" fill="none" stroke="#000000" stroke-linecap="butt"/><path d="M237.0345,402.07215l-20.83847,-11.41531" fill="none" stroke="#000000" stroke-linecap="round"/></g></g><g stroke-width="5.5" stroke-linecap="butt"><g data-paper-data="{&quot;index&quot;:null}"><path d="M-17.027,591.97123c0,-20.95599 31.48769,-37.94422 70.32972,-37.94422c38.84203,0 70.3297,16.98818 70.3297,37.94422c0,10.45288 -0.58369,22.81873 -13.25711,29.68134c-12.73434,6.8956 -37.605,8.26288 -57.0726,8.26288c-20.85923,0 -54.09848,-0.06574 -66.97802,-7.8479c-11.10348,-6.70902 -3.3517,-20.39425 -3.3517,-30.09632z" fill="#ff48b3" stroke="#000000"/><path d="M-18.44313,612.06491c0,-3.64348 13.95718,4.94714 41.07496,6.92008c29.08202,2.11584 71.99413,-2.43611 88.88952,-8.83949c7.57244,-2.86996 5.47894,-15.99037 -2.90639,-26.88113c-9.14515,-11.87763 -24.76676,-21.46951 -18.05913,-21.46951c39.37594,0 33.59391,39.0579 33.59391,50.27003c0,11.21213 -31.9205,20.30136 -71.29644,20.30136c-39.37594,0 -71.29646,-9.08923 -71.29646,-20.30136z" fill="#bb1c79" stroke="none"/><path d="M54.78679,555.02774c38.84203,0 70.32972,16.9882 70.32972,37.94422c0,10.45288 -0.58372,22.81873 -13.25711,29.68134c-12.73434,6.8956 -37.605,8.26288 -57.0726,8.26288c-20.85923,0 -54.09846,-0.06572 -66.97802,-7.84788c-11.10348,-6.70902 -3.3517,-20.39429 -3.3517,-30.09634c0,-20.95602 31.48769,-37.94422 70.32972,-37.94422z" fill="none" stroke="#000000"/></g><path d="M-54.9613,600.90616c0,-20.95602 14.13902,-37.94422 31.58034,-37.94422c17.44134,0 31.58034,16.98818 31.58034,37.94422c0,10.45288 -0.2621,22.81873 -5.95286,29.68134c-5.71814,6.8956 -16.88589,8.26288 -25.62747,8.26288c-9.36647,0 -24.29197,-0.06574 -30.07532,-7.8479c-4.98584,-6.70902 -1.50504,-20.39427 -1.50504,-30.09632z" fill="#ff48b3" stroke="#000000"/><path d="M-55.59716,620.9998c0,-3.64348 6.26724,4.94711 18.44401,6.92006c13.05878,2.11584 32.32771,-2.43609 39.9143,-8.83945c3.40027,-2.86996 2.46022,-15.99037 -1.30506,-26.88113c-4.10647,-11.87763 -11.12108,-21.46951 -8.10914,-21.46951c17.68108,0 15.08476,39.05792 15.08476,50.27005c0,11.21215 -14.33335,20.30136 -32.01443,20.30136c-17.68108,0 -32.01443,-9.08923 -32.01443,-20.30136z" fill="#bb1c79" stroke="none"/><path d="M-54.29491,601.90687c0,-20.95602 14.139,-37.94422 31.58034,-37.94422c17.44134,0 31.58034,16.98822 31.58034,37.94422c0,10.45288 -0.2621,22.81873 -5.95286,29.68134c-5.71814,6.89562 -16.88587,8.26285 -25.62745,8.26285c-9.36647,0 -24.29197,-0.06572 -30.07532,-7.84788c-4.98584,-6.70902 -1.50502,-20.39427 -1.50502,-30.09632z" fill="none" stroke="#000000"/><g><path d="M34.18951,599.62647c0,-20.95602 14.13902,-37.94422 31.58034,-37.94422c17.44134,0 31.58034,16.98818 31.58034,37.94422c0,10.45288 -0.2621,22.81873 -5.95286,29.68134c-5.71814,6.8956 -16.88589,8.26288 -25.62747,8.26288c-9.36647,0 -24.29197,-0.06574 -30.07532,-7.8479c-4.98584,-6.70902 -1.50504,-20.39427 -1.50504,-30.09632z" fill="#ff48b3" stroke="#000000"/><path d="M33.55364,619.72013c0,-3.64348 6.26724,4.94711 18.44401,6.92006c13.05878,2.11584 32.32771,-2.43609 39.9143,-8.83945c3.40027,-2.86996 2.46022,-15.99037 -1.30506,-26.88113c-4.10647,-11.87763 -11.12108,-21.46951 -8.10914,-21.46951c17.68108,0 15.08476,39.05792 15.08476,50.27005c0,11.21215 -14.33335,20.30136 -32.01443,20.30136c-17.68108,0 -32.01443,-9.08923 -32.01443,-20.30136z" fill="#bb1c79" stroke="none"/><path d="M34.85589,600.62717c0,-20.95602 14.139,-37.94422 31.58034,-37.94422c17.44134,0 31.58034,16.98822 31.58034,37.94422c0,10.45288 -0.2621,22.81873 -5.95286,29.68134c-5.71814,6.89562 -16.88587,8.26285 -25.62745,8.26285c-9.36647,0 -24.29197,-0.06572 -30.07532,-7.84788c-4.98584,-6.70902 -1.50502,-20.39427 -1.50502,-30.09632z" fill="none" stroke="#000000"/></g><g><path d="M-15.29133,599.19991c0,-20.95602 14.13902,-37.94422 31.58034,-37.94422c17.44134,0 31.58034,16.98818 31.58034,37.94422c0,10.45288 -0.2621,22.81873 -5.95286,29.68134c-5.71814,6.8956 -16.88589,8.26288 -25.62747,8.26288c-9.36647,0 -24.29197,-0.06574 -30.07532,-7.8479c-4.98584,-6.70902 -1.50504,-20.39427 -1.50504,-30.09632z" fill="#ff48b3" stroke="#000000"/><path d="M-15.92719,619.29357c0,-3.64348 6.26724,4.94711 18.44401,6.92006c13.05878,2.11584 32.32771,-2.43609 39.9143,-8.83945c3.40027,-2.86996 2.46022,-15.99037 -1.30506,-26.88113c-4.10647,-11.87763 -11.12108,-21.46951 -8.10914,-21.46951c17.68108,0 15.08476,39.05792 15.08476,50.27005c0,11.21215 -14.33335,20.30136 -32.01443,20.30136c-17.68108,0 -32.01443,-9.08923 -32.01443,-20.30136z" fill="#bb1c79" stroke="none"/><path d="M-14.62494,600.20062c0,-20.95602 14.139,-37.94422 31.58034,-37.94422c17.44134,0 31.58034,16.98822 31.58034,37.94422c0,10.45288 -0.2621,22.81873 -5.95286,29.68134c-5.71814,6.89562 -16.88587,8.26285 -25.62745,8.26285c-9.36647,0 -24.29197,-0.06572 -30.07532,-7.84788c-4.98584,-6.70902 -1.50502,-20.39427 -1.50502,-30.09632z" fill="none" stroke="#000000"/></g></g><g data-paper-data="{&quot;index&quot;:null}" stroke-width="5.5" stroke-linecap="butt"><g data-paper-data="{&quot;index&quot;:null}"><path d="M283.94123,587.6418c0,9.70204 7.75181,23.38727 -3.3517,30.09632c-12.87957,7.78218 -46.11877,7.8479 -66.97802,7.8479c-19.46758,0 -44.33827,-1.36728 -57.0726,-8.26288c-12.67342,-6.86261 -13.25711,-19.22846 -13.25711,-29.68134c0,-20.95602 31.48769,-37.94419 70.3297,-37.94419c38.84201,0 70.32972,16.9882 70.32972,37.94419z" fill="#ff48b3" stroke="#000000"/><path d="M285.35734,607.73545c0,11.21213 -31.9205,20.30138 -71.29644,20.30138c-39.37594,0 -71.29644,-9.08926 -71.29644,-20.30138c0,-11.21213 -5.78202,-50.27 33.59391,-50.27c6.70763,0 -8.914,9.5919 -18.05913,21.46953c-8.38531,10.89075 -10.47881,24.01117 -2.90637,26.88113c16.8954,6.40338 59.80751,10.95533 88.88952,8.83949c27.11777,-1.97294 41.07496,-10.56358 41.07496,-6.92008z" fill="#bb1c79" stroke="none"/><path d="M282.45714,588.64252c0,9.70204 7.75179,23.3873 -3.3517,30.09632c-12.87957,7.78218 -46.11877,7.84788 -66.97802,7.84788c-19.46758,0 -44.33829,-1.36728 -57.07263,-8.26288c-12.6734,-6.86261 -13.25711,-19.22846 -13.25711,-29.68134c0,-20.95602 31.48771,-37.94422 70.32972,-37.94422c38.84201,0 70.32972,16.9882 70.32972,37.94422z" fill="none" stroke="#000000"/></g><path d="M321.87553,596.57671c0,9.70204 3.4808,23.3873 -1.50504,30.09632c-5.78334,7.78218 -20.70885,7.84792 -30.07532,7.84792c-8.74158,0 -19.90935,-1.36728 -25.62747,-8.26288c-5.69076,-6.86261 -5.95286,-19.22849 -5.95286,-29.68134c0,-20.95602 14.139,-37.94419 31.58034,-37.94419c17.44134,0 31.58034,16.98818 31.58034,37.94419z" fill="#ff48b3" stroke="#000000"/><path d="M322.5114,616.67039c0,11.21213 -14.33335,20.30136 -32.01445,20.30136c-17.6811,0 -32.01443,-9.08923 -32.01443,-20.30136c0,-11.21213 -2.59632,-50.27005 15.08476,-50.27005c3.01197,0 -4.00267,9.5919 -8.10914,21.46953c-3.76529,10.89075 -4.70534,24.01117 -1.30506,26.88113c7.5866,6.40336 26.85554,10.95531 39.9143,8.83945c12.17675,-1.97294 18.44401,-10.56354 18.44401,-6.92006z" fill="#bb1c79" stroke="none"/><path d="M321.2091,597.57743c0,9.70204 3.48082,23.3873 -1.50502,30.09632c-5.78334,7.78218 -20.70885,7.84788 -30.07532,7.84788c-8.74158,0 -19.90931,-1.36726 -25.62745,-8.26288c-5.69076,-6.86261 -5.95286,-19.22846 -5.95286,-29.68134c0,-20.95602 14.139,-37.94422 31.58036,-37.94422c17.44134,0 31.58034,16.9882 31.58034,37.94422z" fill="none" stroke="#000000"/><g><path d="M232.72473,595.29704c0,9.70204 3.4808,23.3873 -1.50504,30.09632c-5.78334,7.78218 -20.70885,7.8479 -30.07532,7.8479c-8.74158,0 -19.90933,-1.36728 -25.62747,-8.26288c-5.69076,-6.86261 -5.95286,-19.22846 -5.95286,-29.68134c0,-20.95602 14.139,-37.94422 31.58034,-37.94422c17.44134,0 31.58034,16.9882 31.58034,37.94422z" fill="#ff48b3" stroke="#000000"/><path d="M233.36059,615.39069c0,11.21213 -14.33335,20.30138 -32.01445,20.30138c-17.6811,0 -32.01445,-9.08923 -32.01445,-20.30138c0,-11.21213 -2.5963,-50.27003 15.08479,-50.27003c3.01197,0 -4.00267,9.5919 -8.10914,21.46953c-3.76529,10.89075 -4.70536,24.01117 -1.30509,26.88113c7.5866,6.40336 26.85554,10.95528 39.9143,8.83945c12.17675,-1.97294 18.44401,-10.56356 18.44401,-6.92006z" fill="#bb1c79" stroke="none"/><path d="M232.0583,596.29776c0,9.70204 3.4808,23.38727 -1.50502,30.09632c-5.78334,7.78218 -20.70885,7.84788 -30.07532,7.84788c-8.74158,0 -19.90933,-1.36724 -25.62745,-8.26285c-5.69076,-6.86261 -5.95286,-19.22849 -5.95286,-29.68134c0,-20.95602 14.139,-37.94422 31.58036,-37.94422c17.44134,0 31.58034,16.9882 31.58034,37.94422z" fill="none" stroke="#000000"/></g><g><path d="M282.20554,594.87048c0,9.70204 3.4808,23.3873 -1.50502,30.09632c-5.78334,7.78218 -20.70885,7.8479 -30.07532,7.8479c-8.74158,0 -19.90933,-1.36728 -25.62747,-8.26288c-5.69076,-6.86261 -5.95286,-19.22849 -5.95286,-29.68136c0,-20.95602 14.139,-37.94419 31.58034,-37.94419c17.44134,0 31.58034,16.98818 31.58034,37.94419z" fill="#ff48b3" stroke="#000000"/><path d="M282.84142,614.96414c0,11.21213 -14.33335,20.30138 -32.01443,20.30138c-17.6811,0 -32.01445,-9.08923 -32.01445,-20.30138c0,-11.21213 -2.5963,-50.27003 15.08479,-50.27003c3.01197,0 -4.00269,9.5919 -8.10916,21.46953c-3.76529,10.89075 -4.70534,24.01117 -1.30506,26.88113c7.58657,6.40336 26.85554,10.95531 39.9143,8.83945c12.17675,-1.97294 18.44399,-10.56356 18.44399,-6.92006z" fill="#bb1c79" stroke="none"/><path d="M281.53913,595.87121c0,9.70204 3.48082,23.38727 -1.50502,30.09632c-5.78334,7.78218 -20.70885,7.84788 -30.07532,7.84788c-8.7416,0 -19.90933,-1.36724 -25.62745,-8.26285c-5.69076,-6.86261 -5.95286,-19.22849 -5.95286,-29.68134c0,-20.95602 14.139,-37.94422 31.58034,-37.94422c17.44134,0 31.58034,16.9882 31.58034,37.94422z" fill="none" stroke="#000000"/></g></g><g><path d="M199.19127,160.59653c0,11.47718 -28.68763,20.78128 -64.07561,20.78128c-35.38799,0 -64.07561,-9.3041 -64.07561,-20.78128c0,-11.47718 28.68763,-20.78128 64.07561,-20.78128c35.38799,0 64.07561,9.3041 64.07561,20.78128z" fill="#000000" stroke="#000000" stroke-width="5.5" stroke-linecap="butt"/><path d="M205.54034,163.83497c0,5.10795 -11.72621,11.61972 -18.26434,15.70688c-12.74338,7.96622 -28.08209,11.56855 -54.7235,11.56855c-40.31006,0 -72.98782,-12.21162 -72.98782,-27.27543c0,-5.17813 -12.43879,-27.33695 -5.73358,-31.46089c7.22171,-4.44159 2.72683,16.63111 16.07947,30.18306c10.31607,10.47004 48.93868,17.72968 60.46859,17.72968c18.86657,0 46.52048,-1.10717 61.32894,-15.94877c10.19246,-10.2153 9.91523,-35.82292 14.2097,-36.15949c2.79712,-0.2192 -0.37746,32.49571 -0.37746,35.65641z" fill="#ff48b3" stroke="#000000" stroke-width="5.5" stroke-linecap="butt"/><path d="M75.99614,174.93873c13.38968,7.42489 37.4927,12.11982 56.69341,12.11982c17.90444,0 38.76735,-2.395 51.43021,-10.84978c14.98636,-10.00616 20.22192,-26.07154 20.22192,-22.05392c0,3.32258 -3.42419,15.47506 -14.06813,22.61856c-13.10162,8.79293 -35.58084,12.44985 -57.15105,12.44985c-24.58529,0 -49.60645,-4.03973 -63.18546,-12.09527c-8.01359,-4.75393 -10.63138,-13.72807 -10.63138,-16.47899c0,-3.77185 2.81773,6.59697 16.69049,14.28973z" fill="#bb1c79" stroke="none" stroke-width="5.5" stroke-linecap="butt"/><g><g fill="none" stroke="none" stroke-width="1" stroke-linecap="butt" font-family="sans-serif" font-weight="normal" font-size="12" text-anchor="start"/><g stroke-width="5.5" stroke-linecap="butt"><g data-paper-data="{&quot;index&quot;:null}"><path d="M212.08894,-83.95163c8.21988,-2.42061 24.78172,5.97113 30.90586,10.11211c7.83374,5.29695 19.09358,9.55406 18.26252,21.3619c-0.74228,10.54628 -12.70918,28.2956 -20.21456,39.3954c-6.54403,9.67804 -10.1956,20.69653 -18.45956,25.5321c-11.82572,6.91969 -28.46847,4.81368 -37.19838,-1.08926c-5.72537,-3.87136 -18.19689,-12.58166 -19.2797,-20.37258c-1.72199,-12.38999 11.46473,-25.94017 21.23174,-40.38472c9.33922,-13.81191 13.06636,-31.11375 24.75209,-34.55494z" data-paper-data="{&quot;index&quot;:null}" fill="#ff48b3" stroke="#000000"/><path d="M166.96081,-25.74205c5.8806,-8.69688 38.33127,-65.62722 53.25329,-55.53737c2.62182,1.77282 46.86454,21.28373 42.73415,26.97479c-3.36828,4.64102 -32.81488,-19.10404 -44.6735,-15.31864c-23.62587,7.54163 -35.23728,42.24546 -36.31128,53.60735c-1.48816,15.74355 41.36087,23.37242 39.0348,26.81248c-5.8806,8.69688 -22.74446,7.56765 -37.66648,-2.5222c-14.92202,-10.08985 -22.25156,-25.31952 -16.37095,-34.0164z" data-paper-data="{&quot;index&quot;:null}" fill="#bb1c79" stroke="none"/><path d="M211.52832,-83.86984c8.21988,-2.42056 24.7817,5.97111 30.90586,10.11208c7.8337,5.29693 19.09358,9.55406 18.2625,21.36192c-0.74226,10.5463 -12.70916,28.29557 -20.21454,39.3954c-6.54403,9.67804 -10.1956,20.69653 -18.45956,25.53208c-11.82572,6.91969 -28.46847,4.81368 -37.19838,-1.08926c-5.72537,-3.87136 -18.19689,-12.58166 -19.2797,-20.37258c-1.72201,-12.38999 11.46469,-25.94015 21.23169,-40.3847c9.33924,-13.81193 13.0664,-31.11373 24.75211,-34.55494z" data-paper-data="{&quot;index&quot;:null}" fill="none" stroke="#000000"/><path d="M224.58591,-66.9694c10.29643,-2.97246 22.96461,12.08399 28.266,15.66863c9.33772,6.31392 -1.11312,18.07857 -12.99811,35.65544c-5.09371,7.53315 -8.08297,17.53089 -14.0928,21.4102c-8.0127,5.17214 -18.99857,2.59104 -24.33429,-1.01681c-3.83339,-2.59203 -17.50282,-8.57098 -17.60226,-14.53588c-0.14276,-8.5649 15.20865,-18.36111 22.21452,-28.72218c5.13741,-7.59781 10.70749,-26.19623 18.54695,-28.45938z" data-paper-data="{&quot;index&quot;:null}" fill="none" stroke="#000000"/><path d="M205.93657,-39.04016c5.13746,-7.59783 10.70753,-26.19623 18.54695,-28.45938c10.29643,-2.97246 22.96464,12.08397 28.26603,15.66863c9.3377,6.31392 -1.11314,18.07855 -12.99813,35.65542c-5.09373,7.53317 -8.08297,17.53091 -14.0928,21.41022c-8.0127,5.17214 -18.99857,2.59104 -24.33429,-1.01681c-3.83337,-2.59201 -17.5028,-8.57098 -17.60222,-14.53588c-0.14276,-8.5649 15.20861,-18.36111 22.21447,-28.72218z" data-paper-data="{&quot;index&quot;:null}" fill="#ff94d2" stroke="#000000"/><path d="M221.78394,5.0572c-3.15139,4.66064 -18.57132,1.14511 -27.09364,-4.61745c-8.52229,-5.76256 -12.8763,-14.21221 -9.7249,-18.87284c1.46196,-2.16208 12.63785,-8.5276 20.41269,-19.55267c8.98472,-12.74074 14.87873,-30.01568 19.44751,-26.92641c4.75326,3.21402 -18.87566,27.20519 -20.80747,45.02669c-1.53182,14.13142 19.15952,22.88149 17.76579,24.94269z" fill="#ea88c1" stroke="none"/><path d="M205.78271,-39.42966c5.13746,-7.59783 10.70753,-26.19625 18.54697,-28.4594c10.29643,-2.97246 22.96461,12.08399 28.266,15.66865c9.3377,6.31392 -1.11314,18.07852 -12.99813,35.6554c-5.09373,7.53317 -8.08294,17.53089 -14.09278,21.4102c-8.0127,5.17214 -18.99859,2.59104 -24.33429,-1.01681c-3.83337,-2.59201 -17.5028,-8.57096 -17.60222,-14.53586c-0.14276,-8.5649 15.20863,-18.36111 22.2145,-28.7222z" data-paper-data="{&quot;index&quot;:null}" fill="none" stroke="#000000"/></g><g data-paper-data="{&quot;index&quot;:null}"><path d="M251.05524,-32.51185c-12.54354,5.41725 -26.41541,-17.85266 -32.15135,-31.13406c-5.73591,-13.28138 -0.21725,-28.43964 12.32629,-33.85688c5.87199,-2.53597 37.2541,-7.78404 53.41447,-0.26524c18.36074,8.54253 21.48804,30.55173 24.5388,37.6157c5.73591,13.28138 -45.58469,22.22324 -58.12823,27.64051z" fill="#ff48b3" stroke="#000000"/><path d="M253.5141,-32.75579c-12.54354,5.41725 -28.13694,-2.75235 -34.82884,-18.24731c-6.19059,-14.33417 -2.59478,-29.91584 7.90912,-36.45868c0.8506,-0.52984 -5.90546,-4.03646 -4.96575,-4.4423c12.54354,-5.41725 43.35434,-22.20794 50.04624,-6.71298c3.44181,7.96947 -32.67415,2.50137 -36.73174,16.66799c-1.70136,5.93998 -2.53112,16.25923 2.65665,25.60089c6.49558,11.69659 19.30137,22.12962 15.91435,23.59238z" fill="#bb1c79" stroke="none"/><path d="M250.06655,-32.46131c-12.54354,5.41725 -26.41541,-17.8527 -32.15135,-31.13408c-5.73591,-13.28138 -0.21725,-28.43964 12.32629,-33.85688c5.87201,-2.53599 37.25413,-7.78406 53.41447,-0.26524c18.36072,8.54256 21.48802,30.55173 24.5388,37.6157c5.73591,13.28138 -45.58469,22.22326 -58.12823,27.64051z" fill="none" stroke="#000000"/><path d="M248.33469,-41.67469c-10.32996,4.46126 -22.5273,-0.77477 -27.2435,-11.69501c-4.71618,-10.92026 -12.17768,-27.71277 -1.84774,-32.17401c1.92649,-0.83201 18.34175,4.07969 28.67102,4.00425c15.84298,-0.1157 28.24379,-4.65412 37.07097,-2.52447c16.27711,3.92701 12.8566,16.0761 15.3442,21.8361c4.71618,10.92026 -41.665,16.0919 -51.99496,20.55316z" fill="#ff94d2" stroke="#000000"/><path d="M240.18975,-41.58509c-4.86983,2.10317 -13.0025,-5.8819 -18.16483,-17.83514c-5.16233,-11.95326 -5.39941,-23.34822 -0.52958,-25.4514c2.54969,-1.10117 0.03871,27.96409 19.07867,32.72969c17.32589,4.3366 56.33541,-15.94056 58.79492,-10.24565c5.16233,11.95326 -54.30932,18.69932 -59.17916,20.80249z" fill="#ea88c1" stroke="none"/><path d="M249.0926,-42.25962c-10.32996,4.46126 -22.5273,-0.77477 -27.2435,-11.69506c-4.7162,-10.92024 -12.17768,-27.71272 -1.84772,-32.17401c1.92649,-0.83201 18.34175,4.07967 28.67102,4.00423c15.84298,-0.1157 28.24382,-4.6541 37.07099,-2.52445c16.27711,3.92701 12.85658,16.07607 15.34418,21.83608c4.71618,10.92026 -41.665,16.0919 -51.99496,20.55316z" fill="none" stroke="#000000"/></g></g><g stroke-width="5.5" stroke-linecap="butt"><g><path d="M96.90603,-38.42519c5.98497,16.37742 15.50444,32.71374 10.83798,44.31985c-2.9343,7.298 -17.14174,12.73466 -23.63323,15.10691c-9.89808,3.61716 -26.55629,1.63698 -36.35819,-7.93657c-6.84968,-6.6901 -7.72897,-18.26456 -11.73898,-29.23764c-4.59909,-12.58508 -11.91969,-32.70108 -10.09016,-43.11397c2.04841,-11.65847 14.00344,-13.06699 22.88543,-16.31283c6.94363,-2.53748 25.043,-6.67605 32.4338,-2.33993c10.50706,6.16438 9.94053,23.85407 15.66337,39.51418z" data-paper-data="{&quot;index&quot;:null}" fill="#ff48b3" stroke="#000000"/><path d="M110.95857,-10.54593c3.60347,9.86063 -7.19071,22.86642 -24.10949,29.04922c-16.91878,6.1828 -33.55534,3.20131 -37.15881,-6.65932c-1.42536,-3.90036 41.99693,-0.94323 44.35924,-16.57952c1.70484,-11.28447 -1.17167,-47.76605 -22.27329,-60.79603c-10.59161,-6.54017 -44.90551,9.38106 -47.05181,4.06337c-2.63191,-6.52086 45.01544,-14.75629 47.98811,-15.84261c16.91878,-6.1828 34.64259,56.90423 38.24606,66.76489z" data-paper-data="{&quot;index&quot;:null}" fill="#bb1c79" stroke="none"/><path d="M97.43028,-38.21027c5.98497,16.37742 15.50444,32.71374 10.83796,44.31983c-2.9343,7.298 -17.14174,12.73466 -23.63323,15.10693c-9.89808,3.61716 -26.55627,1.63696 -36.35819,-7.93659c-6.84968,-6.6901 -7.72897,-18.26456 -11.73898,-29.23762c-4.59909,-12.5851 -11.91971,-32.70108 -10.09016,-43.11397c2.04838,-11.65847 14.00347,-13.06699 22.88543,-16.31283c6.94365,-2.5375 25.04298,-6.67603 32.43378,-2.33993c10.50706,6.1644 9.94055,23.85403 15.66339,39.51415z" data-paper-data="{&quot;index&quot;:null}" fill="none" stroke="#000000"/><path d="M76.12665,-32.38312c4.293,11.74751 16.82054,24.96464 14.61125,33.24091c-1.53864,5.7639 -16.24806,8.26058 -20.5944,9.84892c-6.04969,2.2108 -17.33369,2.05925 -23.85819,-4.8967c-4.89365,-5.21723 -5.37707,-15.64107 -8.49835,-24.18227c-7.28282,-19.92888 -14.57924,-33.87121 -3.99202,-37.74021c6.01077,-2.19658 21.94334,-13.74353 31.21567,-8.36988c7.0597,4.09138 7.96795,23.48471 11.11604,32.0992z" data-paper-data="{&quot;index&quot;:null}" fill="none" stroke="#000000"/><path d="M76.35421,-32.87275c4.293,11.74753 16.82054,24.96464 14.61125,33.24091c-1.53864,5.7639 -16.24806,8.2606 -20.59438,9.84892c-6.04969,2.2108 -17.33369,2.05923 -23.85819,-4.8967c-4.89365,-5.21723 -5.37705,-15.64105 -8.49835,-24.18227c-7.28282,-19.92888 -14.57926,-33.87121 -3.99204,-37.74021c6.01077,-2.19658 21.94337,-13.74353 31.21569,-8.36988c7.0597,4.09136 7.96795,23.48471 11.11606,32.09922z" data-paper-data="{&quot;index&quot;:null}" fill="#ff94d2" stroke="#000000"/><path d="M73.58465,-13.82251c2.43425,-17.75988 -14.6933,-46.75208 -9.304,-48.72156c5.18012,-1.89302 6.7227,16.29441 12.36053,30.82944c4.87864,12.57774 14.18398,21.45643 15.07983,23.90782c1.9311,5.28429 -4.3366,12.4306 -13.99931,15.96176c-9.66271,3.53115 -25.47512,3.21428 -27.40622,-2.07001c-0.85402,-2.33701 21.33898,-5.82491 23.26917,-19.90745z" fill="#ea88c1" stroke="none"/><path d="M76.59763,-33.21352c4.293,11.74753 16.82052,24.96464 14.61123,33.24091c-1.53864,5.7639 -16.24806,8.26058 -20.5944,9.84892c-6.04969,2.2108 -17.33369,2.05923 -23.85819,-4.8967c-4.89365,-5.21723 -5.37703,-15.64105 -8.49833,-24.18227c-7.28282,-19.92888 -14.57926,-33.87119 -3.99204,-37.74019c6.01077,-2.19658 21.94334,-13.74353 31.21567,-8.36988c7.0597,4.09136 7.96795,23.48473 11.11606,32.09924z" data-paper-data="{&quot;index&quot;:null}" fill="none" stroke="#000000"/></g><g><path d="M-11.44848,-129.78158c7.11367,-2.933 24.70805,-16.52058 43.8225,-9.83264c16.82377,5.88643 35.64745,31.53891 38.08553,37.45222c5.20814,12.63179 -1.4123,27.34228 -14.78714,32.85676c-13.37483,5.51451 -39.54701,12.50992 -44.75515,-0.12187c-5.20814,-12.63181 -35.74058,-54.83998 -22.36574,-60.35447z" fill="#ff48b3" stroke="#000000"/><path d="M9.32568,-71.31719c-1.40629,-3.41084 15.04697,-1.95255 27.86051,-5.80161c10.23372,-3.07411 16.83797,-11.04653 19.76274,-16.4893c6.9755,-12.98077 -22.71554,-34.25762 -14.69001,-37.56658c15.60397,-6.43356 25.96614,27.09043 31.17428,39.72223c0.39017,0.94631 -6.89668,-1.2543 -6.65685,-0.2813c2.96155,12.01539 -5.33194,25.68785 -19.76698,31.63946c-15.60399,6.43356 -32.47553,1.40891 -37.68367,-11.22289z" fill="#bb1c79" stroke="none"/><path d="M11.59041,-68.70118c-5.20814,-12.63179 -35.74058,-54.83998 -22.36574,-60.35447c7.11367,-2.93297 24.70803,-16.52056 43.8225,-9.83264c16.82377,5.88643 35.64745,31.53888 38.08553,37.45222c5.20814,12.63179 -1.4123,27.34228 -14.78714,32.85676c-13.37485,5.51449 -39.54704,12.50992 -44.75517,-0.12187z" fill="none" stroke="#000000"/><path d="M19.25855,-74.0942c-4.28904,-10.40265 -33.91263,-46.46376 -22.91554,-50.99791c5.80053,-2.39158 11.82507,-13.48235 26.22682,-4.94101c7.81017,4.63202 13.52913,16.53458 24.79964,27.6696c7.34811,7.25979 22.5358,15.192 23.33569,17.13204c4.28904,10.40263 -12.77153,17.229 -23.76861,21.76315c-10.99709,4.53415 -23.38894,-0.22325 -27.678,-10.6259z" fill="#ff94d2" stroke="#000000"/><path d="M-2.85722,-124.53643c5.73498,-2.36456 19.53923,39.37691 34.97816,48.35644c16.96634,9.86788 35.44327,-12.70855 36.50193,-10.14092c2.02195,4.9041 -6.0971,12.90301 -18.13446,17.86606c-12.03736,4.96305 -23.4347,5.01082 -25.45668,0.10672c-2.02195,-4.90412 -39.92632,-51.22525 -27.88895,-56.1883z" fill="#ea88c1" stroke="none"/><path d="M19.12358,-75.04204c-4.28906,-10.40265 -33.91263,-46.46376 -22.91554,-50.99791c5.80053,-2.39158 11.82505,-13.48235 26.2268,-4.94101c7.81017,4.63202 13.52915,16.53458 24.79967,27.6696c7.34811,7.25979 22.53578,15.19203 23.33567,17.13207c4.28904,10.40265 -12.7715,17.229 -23.76859,21.76315c-10.99711,4.53413 -23.38896,-0.22325 -27.67802,-10.6259z" fill="none" stroke="#000000"/></g></g><g stroke-width="5.5"><g><g><g><path d="M73.43093,155.64877c0,0 -12.33163,-0.54763 -13.6656,-8.03697c-1.38291,-7.76406 1.56325,-26.33029 1.56325,-26.33029l100.72005,12.40168c0,0 35.78084,-13.59206 35.78084,-7.6111c0,2.26626 4.79688,17.00537 -4.88189,24.89442c-11.47778,9.35541 -37.73939,11.86219 -37.73939,11.86219c0,0 -11.65942,5.83045 -24.15962,6.13249c-14.37956,0.34748 -30.04185,-4.82706 -33.1724,-4.82706c-0.62071,0 -24.44524,-8.48536 -24.44524,-8.48536z" fill="#ffffff" stroke="#000000" stroke-linecap="butt"/><path d="M131.32595,160.50591c38.57486,0 68.24521,-25.30846 68.24521,-16.54144c0,8.76702 -32.87187,21.07657 -71.44673,21.07657c-38.57486,0 -68.24521,-12.30955 -68.24521,-21.07657c0,-8.76702 32.87187,16.54144 71.44673,16.54144z" fill="#d6d6d6" stroke="none" stroke-linecap="butt"/><path d="M74.0367,154.98459c0,0 -12.33163,-0.54763 -13.6656,-8.03697c-1.38291,-7.76406 1.56325,-26.33029 1.56325,-26.33029l100.72005,12.40168c0,0 35.78084,-13.59206 35.78084,-7.6111c0,2.26626 4.79688,17.00537 -4.88189,24.89442c-11.47778,9.35541 -37.73939,11.86219 -37.73939,11.86219c0,0 -11.65942,5.83045 -24.15962,6.13249c-14.37956,0.34748 -30.04185,-4.82706 -33.1724,-4.82706c-0.62071,0 -24.44524,-8.48536 -24.44524,-8.48536z" fill="none" stroke="#000000" stroke-linecap="butt"/><path d="M52.33315,66.92768c0,-33.26079 17.42822,-62.08602 42.87661,-76.22418c10.68337,-5.93526 22.78018,-9.28213 35.59437,-9.28213c43.33832,0 78.47098,38.28247 78.47098,85.50631c0,19.94148 13.2177,37.20622 2.71577,51.74957c-14.3679,19.89702 -56.14916,33.75672 -81.18675,33.75672c-27.21218,0 -70.67166,-15.09323 -84.74756,-38.01615c-8.34148,-13.58429 6.27657,-29.91822 6.27657,-47.49016z" fill="#ff48b3" stroke="#000000" stroke-linecap="butt"/><path d="M129.76493,39.59365c22.57971,0 40.88416,12.23784 40.88416,27.33399c0,15.09615 -18.30445,27.33399 -40.88416,27.33399c-22.57971,0 -40.88416,-12.23784 -40.88416,-27.33399c0,-15.09615 18.30445,-27.33399 40.88416,-27.33399z" fill="#bb1c79" stroke="none" stroke-linecap="butt"/><path d="M94.05103,30.16771c15.61224,0 28.26847,18.09528 28.26847,40.41693c0,22.32165 -12.65623,40.41693 -28.26847,40.41693c-12.95615,0 -29.95076,-4.05151 -33.2915,-21.04908c-0.68487,-3.48461 5.02303,-15.57029 5.02303,-19.36785c0,-22.32165 12.65623,-40.41693 28.26847,-40.41693z" fill="#000000" stroke="#000000" stroke-linecap="butt"/><path d="M101.37589,131.67325c34.71257,7.27353 73.58309,3.47684 92.89752,-14.30958c10.1706,-9.36597 5.61781,-57.71362 -8.18053,-91.59776c-9.00931,-22.12388 -30.65321,-36.01197 -24.66519,-36.01197c48.41937,0 55.20028,113.32933 55.20028,120.50257c0,7.17324 -35.64379,39.68647 -84.06316,39.68647c-48.41939,0 -91.2789,-32.51322 -91.2789,-39.68647c0,-2.34727 28.51103,14.7998 60.08998,21.41673z" fill="#bb1c79" stroke="none" stroke-linecap="butt"/><path d="M192.07594,68.32533c0,3.79756 5.7079,15.88322 5.02303,19.36783c-3.34074,16.99757 -20.33535,21.04908 -33.2915,21.04908c-15.61226,0 -28.26847,-18.09526 -28.26847,-40.41691c0,-22.32165 12.65623,-40.41693 28.26847,-40.41693c15.61224,0 28.26849,18.09528 28.26849,40.41693z" data-paper-data="{&quot;index&quot;:null}" fill="#000000" stroke="#000000" stroke-linecap="butt"/><path d="M130.80413,-18.57868c43.33832,0 78.47098,38.28247 78.47098,85.50631c0,19.94148 13.2177,37.20622 2.71577,51.74957c-14.3679,19.89704 -56.14916,33.75674 -81.18675,33.75674c-27.21218,0 -70.67164,-15.09325 -84.74756,-38.01615c-8.3415,-13.58429 6.27657,-29.91822 6.27657,-47.49016c0,-47.22384 35.13266,-85.50631 78.47098,-85.50631z" fill="none" stroke="#000000" stroke-linecap="butt"/><path d="M65.59976,92.55156c22.02891,-11.3271 61.24986,-7.55006 83.92198,-7.55006c37.85877,0 55.56107,11.25285 55.56107,29.58447c0,18.3316 -37.90631,35.35703 -75.76508,35.35703c-37.85875,0 -77.20824,-15.58228 -77.20824,-33.9139c0,-7.35354 -1.26556,-15.89021 13.49028,-23.47754z" fill="#ff94d2" stroke="#000000" stroke-linecap="butt"/><path d="M54.62253,119.6445c0,-6.35704 31.99629,19.32789 73.77121,19.32789c12.97819,0 66.50207,-9.41728 70.29963,-24.18601c1.01239,-3.93719 -7.12677,-10.9439 -18.5758,-16.07155c-11.23397,-5.03134 -25.79373,-8.20135 -23.62215,-10.2871c6.37418,-6.12219 32.7844,11.12939 37.08991,9.39498c5.17497,-2.08467 12.31758,19.99921 12.31758,21.82182c0,6.35706 -31.99627,29.73312 -73.77121,29.73312c-41.77492,0 -77.50918,-23.37606 -77.50918,-29.73312z" fill="#ea88c1" stroke="none" stroke-linecap="butt"/><path d="M52.83107,116.75069c0,-7.35354 -1.26554,-15.89023 13.49028,-23.47756c2.07531,-1.0671 4.30318,-2.00015 6.65542,-2.81495c22.61646,-7.83404 56.73034,-4.73512 77.26655,-4.73512c37.85877,0 55.56107,11.25285 55.56107,29.58447c0,18.3316 -37.90631,35.35703 -75.76508,35.35703c-37.85877,0 -77.20824,-15.58228 -77.20824,-33.9139z" fill="none" stroke="#000000" stroke-linecap="butt"/><path d="M126.36802,121.12316c17.41863,0 30.60472,13.43798 30.60472,20.79252c0,7.35454 -13.18609,5.8406 -30.60472,5.8406c-17.41863,0 -31.53921,-1.28954 -31.53921,-8.64408c0,-7.35452 14.12058,-17.98903 31.53921,-17.98903z" fill="#ff0000" stroke="#000000" stroke-linecap="butt"/><path d="M97.08814,142.53963c0,-4.38691 -4.0601,-17.28814 11.68118,-17.28814c7.08568,0 -2.18143,12.42627 6.5526,15.70114c10.66915,4.00046 38.77042,-0.82521 38.77042,1.58702c0,4.38693 -12.76083,7.94321 -28.50211,7.94321c-15.74128,0 -28.50209,-3.55628 -28.50209,-7.94321z" fill="#d00000" stroke="none" stroke-linecap="butt"/><path d="M126.29113,121.98073c17.41863,0 30.60472,13.43798 30.60472,20.79252c0,7.35454 -13.18609,5.8406 -30.60472,5.8406c-17.41863,0 -31.53921,-1.28954 -31.53921,-8.64408c0,-7.35452 14.12058,-17.98903 31.53921,-17.98903z" fill="none" stroke="#000000" stroke-linecap="butt"/><path d="M95.29604,91.68766c0,-9.16093 15.37577,-16.58729 34.34271,-16.58729c18.96694,0 34.34269,7.42639 34.34269,16.58729c0,4.85739 -10.39703,4.0874 -17.28587,7.12099c-6.10335,2.68769 -8.14672,9.46631 -17.05682,9.46631c-6.37676,0 -12.34759,-8.31537 -17.46465,-9.77792c-10.1031,-2.88762 -16.87806,-0.72838 -16.87806,-6.80935z" fill="#222222" stroke="#000000" stroke-linecap="butt"/><path d="M98.02263,90.20908c0,-3.7418 16.86148,1.1681 32.47372,1.1681c15.61226,0 33.4082,-5.84439 33.4082,-2.10261c0,3.74178 -16.86145,17.05455 -32.47369,17.05455c-6.37394,0 -8.90666,-3.93221 -14.64894,-6.6286c-8.32279,-3.90811 -18.75926,-7.2773 -18.75926,-9.49144z" fill="#151515" stroke="none" stroke-linecap="butt"/><path d="M95.6864,91.14354c0,-9.16093 15.37577,-16.58729 34.34271,-16.58729c18.96694,0 34.34269,7.42639 34.34269,16.58729c0,4.85739 -10.39703,4.0874 -17.28587,7.12099c-6.10335,2.68769 -8.14672,9.46631 -17.05682,9.46631c-6.37676,0 -12.34759,-8.31537 -17.46465,-9.77792c-10.1031,-2.88762 -16.87806,-0.72838 -16.87806,-6.80935z" fill="none" stroke="#000000" stroke-linecap="butt"/><path d="M82.93518,145.75049v11.20537" fill="none" stroke="#000000" stroke-linecap="round"/><path d="M113.74995,153.35414v13.20633" fill="none" stroke="#000000" stroke-linecap="round"/><path d="M149.76718,162.15835l-2.00096,-8.80423" fill="none" stroke="#000000" stroke-linecap="round"/><path d="M176.9802,155.35508l-1.20057,-11.20537" fill="none" stroke="#000000" stroke-linecap="round"/><path d="M92.72862,56.51439c6.98245,0 12.64283,5.5593 12.64283,12.41705c0,6.85776 -5.66039,12.41705 -12.64283,12.41705c-6.98245,0 -12.64283,-5.5593 -12.64283,-12.41705c0,-6.85776 5.66039,-12.41705 12.64283,-12.41705z" fill="#652c45" stroke="none" stroke-linecap="butt"/><path d="M93.0198,62.55789c3.5363,0 6.40306,2.86673 6.40306,6.40306c0,3.5363 -2.86673,6.40306 -6.40306,6.40306c-3.5363,0 -6.40306,-2.86673 -6.40306,-6.40306c0,-3.5363 2.86673,-6.40306 6.40306,-6.40306z" fill="#ff9cc7" stroke="none" stroke-linecap="butt"/><path d="M163.44621,55.94347c6.98245,0 12.64283,5.5593 12.64283,12.41705c0,6.85776 -5.66039,12.41705 -12.64283,12.41705c-6.98242,0 -12.64281,-5.5593 -12.64281,-12.41705c0,-6.85774 5.66039,-12.41705 12.64281,-12.41705z" fill="#652c45" stroke="none" stroke-linecap="butt"/><path d="M162.8609,61.69482c3.53632,0 6.40306,2.99755 6.40306,6.69523c0,3.69766 -2.86676,6.69523 -6.40306,6.69523c-3.5363,0 -6.40306,-2.99755 -6.40306,-6.69523c0,-3.69768 2.86676,-6.69523 6.40306,-6.69523z" fill="#ff9cc7" stroke="none" stroke-linecap="butt"/></g><path d="M191.52404,16.34844l-10.27944,21.96064" fill="none" stroke="#000000" stroke-linecap="round"/></g><path d="M114.42822,15.88117l-7.94321,17.28816" fill="none" stroke="#000000" stroke-linecap="round"/><path d="M97.14005,31.3004l-5.60696,-18.22265" fill="none" stroke="#000000" stroke-linecap="round"/><path d="M89.19682,34.10388l-11.68118,-14.48468" fill="none" stroke="#000000" stroke-linecap="round"/></g><path d="M157.88222,34.10388l-7.47596,-22.89513" fill="none" stroke="#000000" stroke-linecap="round"/><path d="M173.76862,8.40523l-7.0087,20.5589" fill="none" stroke="#000000" stroke-linecap="round"/></g><g fill="none" stroke="none" stroke-width="1" stroke-linecap="butt" font-family="sans-serif" font-weight="normal" font-size="12" text-anchor="start"/></g><path d="M205.1074,164.70083c0,5.10795 -11.72621,11.61972 -18.26432,15.70688c-12.74338,7.96622 -28.08209,11.56855 -54.7235,11.56855c-40.31006,0 -72.98782,-12.21162 -72.98782,-27.27543c0,-5.17811 -12.43877,-27.33695 -5.73358,-31.46089c7.22169,-4.44159 2.72683,16.63111 16.07947,30.18306c10.31607,10.47004 48.9387,17.72968 60.46859,17.72968c18.86657,0 46.52048,-1.10717 61.32894,-15.94877c10.19248,-10.2153 9.9152,-35.82292 14.2097,-36.15947c2.79712,-0.2192 -0.37746,32.49571 -0.37746,35.65641z" fill="none" stroke="#000000" stroke-width="5.5" stroke-linecap="butt"/></g></g></g></svg>