<svg version="1.1" xmlns="http://www.w3.org/2000/svg" xmlns:xlink="http://www.w3.org/1999/xlink" width="535.41087" height="850.95504" viewBox="0,0,535.41087,850.95504"><g transform="translate(210.18775,138.32952)"><g data-paper-data="{&quot;isPaintingLayer&quot;:true}" fill-rule="nonzero" stroke-width="10" stroke-linejoin="miter" stroke-miterlimit="10" stroke-dasharray="" stroke-dashoffset="0" style="mix-blend-mode: normal"><g data-paper-data="{&quot;index&quot;:null}"><g stroke="#000000"><path d="M122.10841,179.40149c31.73581,7.81572 59.02983,82.21579 69.17434,135.8451c4.83143,25.5417 2.71705,46.23724 1.04269,53.03598c-5.18998,21.07396 -22.45001,38.95702 -69.30042,27.41895c-46.8504,-11.53806 -80.62285,-37.97533 -75.43286,-59.04931c5.18999,-21.07399 27.66584,-168.78878 74.51625,-157.25072z" data-paper-data="{&quot;index&quot;:null}" fill="#1d00ff" stroke-linecap="butt"/><path d="" fill="none" stroke-linecap="round"/></g><path d="M195.79757,371.46698c-4.86723,19.76341 -30.39965,30.46856 -57.02824,23.91061c-26.6286,-6.55795 -44.26968,-27.89563 -39.40246,-47.65904c1.03943,-4.22063 20.55687,20.85924 39.80897,32.80845c14.71663,9.13419 29.97228,7.77737 32.56339,-3.40568c2.89525,-12.4957 24.06099,-12.88871 20.39416,-35.45976c-8.86091,-54.5428 -51.28693,-141.54149 -39.54937,-138.65083c26.6286,6.55795 48.08079,148.69283 43.21357,168.45621z" fill="#0016ad" stroke="none" stroke-linecap="butt"/><g fill="none" stroke="#000000"><path d="M126.93368,179.04791c46.8504,11.53806 75.40702,167.80709 70.21703,188.88107c-5.18998,21.07396 -22.45001,38.95702 -69.30041,27.41896c-46.8504,-11.53806 -80.62285,-37.97533 -75.43286,-59.04932c5.18999,-21.07399 27.66584,-168.78878 74.51625,-157.25071z" data-paper-data="{&quot;index&quot;:null}" stroke-linecap="butt"/><path d="M115.31148,305.68757l70.34416,-9.84396" stroke-linecap="round"/></g></g><g><g stroke="#000000"><path d="M63.86997,337.52098c-5.18999,21.07399 -47.37705,28.80436 -94.22746,17.26629c-46.8504,-11.53806 -53.83188,-35.39119 -48.6419,-56.46514c1.67437,-6.79878 9.41246,-26.10934 25.55252,-46.48626c33.8889,-42.785 92.6116,-96.00134 124.34738,-88.18562c46.8504,11.53806 -1.84056,152.79674 -7.03054,173.87073z" data-paper-data="{&quot;index&quot;:null}" fill="#2a00ff" stroke-linecap="butt"/><path d="" fill="none" stroke-linecap="round"/></g><path d="M-83.55323,299.52992c4.86723,-19.76341 89.87117,-135.68082 116.49977,-129.12288c11.73756,2.89066 -66.23716,60.23771 -99.41347,104.42782c-13.72909,18.28688 4.83349,28.46399 1.59483,40.87509c-2.89845,11.10736 9.98239,19.39348 27.25771,18.13809c22.59934,-1.64231 51.53132,-14.79028 50.4919,-10.56968c-4.86723,19.76341 -30.39965,30.46857 -57.02824,23.91062c-26.6286,-6.55795 -44.26968,-27.89564 -39.40246,-47.65905z" fill="#1400ad" stroke="none" stroke-linecap="butt"/><g fill="none" stroke="#000000"><path d="M59.76079,334.96704c-5.18999,21.07399 -47.37705,28.80436 -94.22746,17.26629c-46.8504,-11.53806 -53.83188,-35.39119 -48.6419,-56.46514c5.18999,-21.07399 103.04949,-146.20994 149.8999,-134.67188c46.8504,11.53806 -1.84056,152.79674 -7.03054,173.87073z" data-paper-data="{&quot;index&quot;:null}" stroke-linecap="butt"/><path d="M-39.45291,237.26508l57.72784,41.38486" stroke-linecap="round"/></g></g><g stroke-linecap="butt"><path d="M88.14537,148.20867c11.93081,2.93826 46.97258,-42.45243 47.06922,-13.98951c0.06747,19.87298 12.65768,192.50983 6.42124,217.83296c-15.16854,61.592 -88.15962,24.1906 -108.42059,19.20084c-20.26097,-4.98976 -70.41152,-15.56966 -55.24298,-77.16165c15.16853,-61.59196 89.91214,-150.8724 110.17312,-145.88264z" fill="#3600ff" stroke="#000000"/><path d="M-22.89112,328.54325c1.49213,-6.05883 -0.64638,-42.05542 19.36525,-76.19444c17.08643,-29.1487 47.13612,-75.60789 71.65726,-93.75486c17.20529,-12.73284 30.01036,-2.97753 40.92364,-0.28987c8.10778,1.99674 -20.79399,-3.35203 -48.66477,22.29834c-36.33,33.43565 -75.3099,101.59029 -73.16471,124.28611c2.21069,23.38898 26.132,50.67953 57.00654,59.01319c42.84973,11.566 95.92873,-0.53538 94.69058,4.49212c-3.66007,14.86174 -42.85038,17.98871 -87.53402,6.98427c-44.68364,-11.00444 -77.9398,-31.97314 -74.27974,-46.83488z" fill="#0300ad" stroke="none"/><path d="M-21.34333,294.01348c15.16854,-61.592 89.91215,-150.87243 110.17312,-145.88267c11.93078,2.93825 46.97261,-42.45239 47.06922,-13.98947c0.06744,19.87297 12.65765,192.50982 6.4212,217.83295c-15.16854,61.592 -88.15962,24.1906 -108.42059,19.20084c-20.26097,-4.98976 -70.41153,-15.56966 -55.24299,-77.16166z" fill="none" stroke="#000000"/></g><g stroke-linecap="butt"><path d="M-193.02003,541.83997c8.04374,-32.66166 63.64061,-47.05294 124.17907,-32.14386c60.53846,14.90908 103.09384,53.47277 95.0501,86.13443c-4.01222,16.29165 -9.66845,35.3408 -32.05512,41.1722c-22.49428,5.85942 -61.78209,-1.55592 -92.12392,-9.02834c-32.5108,-8.00658 -84.2916,-20.86755 -101.37835,-37.94037c-14.73052,-14.71852 2.60419,-33.07266 6.32822,-48.1941z" fill="#5a3d00" stroke="#000000"/><path d="M-202.93982,572.61402c1.39851,-5.67867 19.85455,13.06781 61.36248,26.55165c44.51453,14.46053 113.14377,23.83729 141.93449,20.34225c12.90388,-1.56647 14.67709,-22.81926 5.78819,-43.01201c-9.69436,-22.0225 -30.36016,-42.96844 -19.90578,-40.39379c61.37059,15.11401 37.3669,73.7696 33.06325,91.24461c-4.30366,17.47505 -57.54317,19.389 -118.91379,4.27498c-61.37062,-15.11402 -107.63252,-41.53268 -103.32887,-59.00769z" fill="#352400" stroke="none"/><path d="M-191.09111,543.96928c8.04374,-32.66166 63.64061,-47.05294 124.17907,-32.14385c60.53849,14.90909 103.09386,53.4728 95.05013,86.13443c-4.01222,16.29165 -9.66848,35.34079 -32.05512,41.1722c-22.49429,5.85945 -61.78207,-1.55591 -92.12392,-9.02834c-32.5108,-8.00658 -84.2916,-20.86751 -101.37835,-37.94032c-14.73052,-14.71852 2.60422,-33.07266 6.32825,-48.1941z" fill="none" stroke="#000000"/></g><g data-paper-data="{&quot;index&quot;:null}" stroke-linecap="butt"><path d="M287.87243,661.01439c-3.72403,15.12144 3.10485,39.42643 -16.77604,45.62104c-23.06094,7.18546 -74.89221,-5.47059 -107.40304,-13.47718c-30.34183,-7.47242 -68.57999,-19.14975 -85.7807,-34.78505c-17.11839,-15.56049 -13.28166,-35.05774 -9.26944,-51.34939c8.04374,-32.66166 63.64058,-47.05294 124.17904,-32.14386c60.53846,14.90908 103.09387,53.4728 95.05014,86.13443z" fill="#5a3d00" stroke="#000000"/><path d="M282.36682,692.87558c-4.30365,17.47501 -57.54317,19.389 -118.91378,4.27498c-61.37062,-15.11402 -107.6325,-41.53267 -103.32884,-59.00768c4.30365,-17.47501 10.28382,-80.56929 71.65444,-65.45527c10.45439,2.57465 -17.57491,11.52822 -36.38745,26.5302c-17.2495,13.75552 -25.54853,33.40116 -14.84786,40.78083c23.87499,16.4653 89.00977,40.03122 135.14863,47.89631c43.02255,7.33387 68.07338,-0.69801 66.67487,4.98066z" fill="#352400" stroke="none"/><path d="M285.17526,662.00445c-3.72403,15.12144 3.10484,39.42646 -16.77604,45.62107c-23.06094,7.18546 -74.8922,-5.47062 -107.40303,-13.47721c-30.34183,-7.47242 -68.58001,-19.14976 -85.78069,-34.78504c-17.11839,-15.56049 -13.28166,-35.05774 -9.26944,-51.34939c8.04374,-32.66166 63.64061,-47.05294 124.17907,-32.14385c60.53846,14.90908 103.09387,53.47277 95.05014,86.13443z" fill="none" stroke="#000000"/></g><g><path d="M-116.81918,323.21207c12.7889,-23.28651 40.35921,-32.71623 61.57997,-21.06182c21.22077,11.65438 28.05617,39.97963 15.26728,63.26613c-12.7889,23.28654 -40.35925,32.71622 -61.58,21.06181c-21.2208,-11.65439 -28.05617,-39.97963 -15.26728,-63.26613z" fill="#ffbea9" stroke="#000000" stroke-linecap="butt"/><path d="M-121.67713,341.8415c7.21952,-13.14562 19.67289,-52.92896 38.45234,-42.61531c3.15069,1.73034 -12.20458,12.79424 -18.60183,29.25046c-6.06813,15.60956 -3.19,36.55757 -0.69861,41.48205c10.53741,20.82819 53.71392,0.38359 48.85452,9.23176c-7.21955,13.14559 -28.29588,15.44139 -47.07533,5.12775c-18.77946,-10.31364 -28.15063,-29.33113 -20.93108,-42.47675z" fill="#ff9d7d" stroke="none" stroke-linecap="butt"/><path d="M-55.21768,302.22432c21.2208,11.65439 28.05617,39.97963 15.26728,63.26613c-12.7889,23.28654 -40.35918,32.71624 -61.57998,21.06182c-21.2208,-11.65439 -28.05617,-39.97963 -15.26728,-63.26613c12.7889,-23.28654 40.35918,-32.71624 61.57998,-21.06182z" fill="none" stroke="#000000" stroke-linecap="butt"/><g><g><g><path d="M-55.20718,409.27506c9.69481,-17.65267 -18.24822,-43.65884 -9.60965,-38.91457c4.03748,2.21736 23.90266,-12.87004 33.81949,-2.59739c11.30118,11.7067 12.23675,49.29025 7.07309,58.69248c-9.69482,17.6527 -24.55691,28.11702 -33.19547,23.37275c-8.63857,-4.74427 -7.7823,-22.90058 1.91251,-40.55328z" fill="#ffbea9" stroke="#000000" stroke-linecap="butt"/><path d="M-55.39662,374.60946c-1.08855,-10.27701 3.63014,-11.19173 5.42191,-10.2077c4.88268,2.68155 15.88073,67.79037 11.85841,75.11435c-4.02232,7.32398 -11.24124,11.08742 -16.12388,8.40588c-4.88265,-2.68154 -5.5801,-10.79263 -1.55778,-18.11662c2.54626,-4.63633 2.44647,-35.8874 0.40134,-55.19591z" fill="#ff9d7d" stroke="none" stroke-linecap="butt"/><path d="M-80.17607,414.26519c5.67155,19.3246 2.60306,37.24021 -6.85368,40.01566c-9.45674,2.77545 -21.7206,-10.64031 -27.39211,-29.9649c-3.02078,-10.29272 5.97569,-46.79566 19.5301,-55.79794c11.89404,-7.89954 28.04964,11.10705 32.46954,9.80987c9.45674,-2.77545 -23.42536,16.61271 -17.75381,35.93731z" fill="#ffbea9" stroke="#000000" stroke-linecap="butt"/><path d="M-84.01443,434.44217c2.3531,8.01765 -0.07244,15.78896 -5.41754,17.35766c-5.34511,1.56873 -11.58569,-3.65916 -13.93879,-11.67681c-2.3531,-8.01765 22.39006,-69.2377 27.73516,-70.8064c1.96148,-0.57567 6.37299,1.33249 3.09975,11.13492c-6.14981,18.41688 -12.96817,48.91523 -11.47859,53.99065z" fill="#ff9d7d" stroke="none" stroke-linecap="butt"/><path d="M-114.08111,398.23433c2.89519,19.93048 -2.66434,37.23588 -12.41758,38.65267c-9.75323,1.41679 -20.00677,-13.59153 -22.90196,-33.52202c-1.54204,-10.61543 12.50262,-45.48877 27.18913,-52.49368c12.88748,-6.14684 26.20716,14.94444 30.76558,14.28224c9.75323,-1.41679 -25.53036,13.1503 -22.63517,33.08078z" fill="#ffbea9" stroke="#000000" stroke-linecap="butt"/><path d="M-120.72113,417.6702c1.20118,8.26903 -2.29397,15.62159 -7.80665,16.42239c-5.51271,0.80079 -10.95536,-5.25342 -12.15657,-13.52245c-1.20118,-8.26903 31.91225,-65.39711 37.42493,-66.19791c2.02296,-0.29388 6.12201,2.21619 1.5017,11.46037c-8.68072,17.36798 -19.72379,46.60303 -18.9634,51.83761z" fill="#ff9d7d" stroke="none" stroke-linecap="butt"/><path d="M-148.72216,372.50352c-3.071,19.90414 -13.45662,34.82138 -23.19698,33.31855c-9.74036,-1.50283 -15.14689,-18.85663 -12.07588,-38.7608c1.63567,-10.60138 25.28107,-39.82975 41.37545,-42.22452c14.12284,-2.1014 20.67883,21.9667 25.23125,22.66908c9.74036,1.50283 -28.26282,5.09349 -31.33383,24.99766z" fill="#ffbea9" stroke="#000000" stroke-linecap="butt"/><path d="M-160.76503,389.14115c-1.27412,8.25811 -6.77004,14.26405 -12.27544,13.41461c-5.5054,-0.84944 -8.93553,-8.23255 -7.66137,-16.49065c1.27412,-8.25811 49.67164,-53.17798 55.17704,-52.32854c2.02029,0.31171 5.20409,3.91255 -1.9218,11.39745c-13.38821,14.06266 -32.51185,38.7795 -33.31841,44.00717z" fill="#ff9d7d" stroke="none" stroke-linecap="butt"/><path d="M-64.11523,370.80805c4.03748,2.21736 23.90266,-12.87003 33.81948,-2.59739c11.30118,11.7067 12.23675,49.29025 7.07309,58.69248c-9.69481,17.65267 -24.55693,28.11701 -33.19547,23.37275c-8.63854,-4.74426 -7.78226,-22.9006 1.91255,-40.55327c9.69481,-17.65267 -18.24818,-43.65884 -9.60964,-38.91458z" fill="none" stroke="#000000" stroke-linecap="butt"/><path d="M-80.95753,414.55142c5.67155,19.3246 2.60306,37.24021 -6.85368,40.01566c-9.45674,2.77545 -21.7206,-10.64032 -27.39211,-29.96491c-3.02078,-10.29272 5.97569,-46.79566 19.5301,-55.79793c11.89404,-7.89954 28.04965,11.10705 32.46954,9.80987c9.45674,-2.77545 -23.42536,16.61272 -17.75381,35.93732z" fill="none" stroke="#000000" stroke-linecap="butt"/><path d="M-112.47879,403.57899l28.50056,6.19025" fill="none" stroke="#000000" stroke-linecap="round"/><path d="M-114.89509,398.40772c2.89519,19.93048 -2.66434,37.23588 -12.41758,38.65267c-9.75323,1.41679 -20.00677,-13.59153 -22.90196,-33.52202c-1.54204,-10.61543 12.50258,-45.48878 27.18913,-52.49368c12.88748,-6.14684 26.20715,14.94444 30.76561,14.28225c9.75323,-1.41679 -25.53035,13.15028 -22.63517,33.08079z" fill="none" stroke="#000000" stroke-linecap="butt"/><path d="M-149.55118,372.4308c-3.071,19.90414 -13.45663,34.82138 -23.19696,33.31856c-9.74036,-1.50283 -15.14689,-18.85663 -12.07589,-38.76077c1.63567,-10.60138 25.28105,-39.82979 41.37542,-42.22453c14.12284,-2.1014 20.67883,21.9667 25.23125,22.66911c9.74036,1.50283 -28.26281,5.09349 -31.33379,24.99764z" fill="none" stroke="#000000" stroke-linecap="butt"/></g><path d="M-117.21265,393.24799l-27.34558,-10.14" fill="none" stroke="#000000" stroke-linecap="round"/><path d="M-150.25538,366.81852l-23.17487,-17.70663" fill="none" stroke="#000000" stroke-linecap="round"/></g><path d="M-21.3622,405.78601l-29.16493,-0.08401" fill="none" stroke="#000000" stroke-linecap="round"/></g></g><g data-paper-data="{&quot;index&quot;:null}"><path d="M219.08556,407.60926c0.51241,26.56228 -18.69502,48.47384 -42.90099,48.94077c-24.20595,0.46697 -44.24419,-20.6875 -44.75659,-47.24981c-0.51241,-26.56228 18.69505,-48.47383 42.90099,-48.94077c24.20595,-0.46697 44.24415,20.68752 44.75656,47.2498z" fill="#ffbea9" stroke="#000000" stroke-linecap="butt"/><path d="M214.7367,426.36403c0.28927,14.99485 -16.84157,27.48556 -38.26278,27.8988c-21.42121,0.41324 -39.021,-11.40751 -39.31028,-26.40233c-0.19471,-10.09286 28.54975,28.06404 47.5543,14.51128c4.49331,-3.20433 16.7702,-20.42004 18.64488,-37.06234c1.97637,-17.54497 -6.48488,-34.47428 -2.89098,-34.5436c21.42121,-0.41324 13.9756,40.60338 14.26485,55.59822z" fill="#ff9d7d" stroke="none" stroke-linecap="butt"/><path d="M219.03207,407.66486c0.51241,26.56228 -18.69502,48.47384 -42.90099,48.94077c-24.20598,0.46696 -44.24416,-20.68749 -44.75656,-47.2498c-0.51241,-26.56228 18.69501,-48.47384 42.90098,-48.94077c24.20598,-0.46696 44.24416,20.68749 44.75656,47.2498z" fill="none" stroke="#000000" stroke-linecap="butt"/><g><g><g><path d="M124.55361,455.21797c0.38843,20.13595 -7.28472,36.61344 -17.13849,36.80351c-9.85377,0.19007 -18.15669,-15.97919 -18.54512,-36.11515c-0.20687,-10.72485 18.07489,-43.57567 33.52,-48.69544c13.55313,-4.49259 24.14008,18.09438 28.74551,18.00555c9.85377,-0.19007 -26.97037,9.86559 -26.58193,30.00151z" fill="#ffbea9" stroke="#000000" stroke-linecap="butt"/><path d="M115.54286,473.67466c0.16116,8.35427 -4.22318,15.21384 -9.79268,15.32129c-5.5695,0.10745 -10.21515,-6.57793 -10.37631,-14.9322c-0.16116,-8.35427 39.81456,-60.90955 45.3841,-61.01699c2.04382,-0.03942 5.79806,2.96197 0.06153,11.55814c-10.77779,16.15056 -25.37865,43.78122 -25.27663,49.06976z" fill="#ff9d7d" stroke="none" stroke-linecap="butt"/><path d="M144.34951,471.23253c13.99694,-14.48075 -6.12102,-46.92148 0.96533,-40.07189c3.31202,3.20135 26.44633,-6.12913 33.31167,6.39036c7.82374,14.26717 -1.16005,50.77323 -8.61513,58.48602c-13.99691,14.48076 -31.08826,20.66707 -38.1746,13.81749c-7.08634,-6.84959 -1.48418,-24.14122 12.51277,-38.62197z" fill="#ffbea9" stroke="#000000" stroke-linecap="butt"/><path d="M138.37907,490.88446c3.67617,-3.80323 11.80053,-33.97995 14.90655,-53.14643c1.6532,-10.20141 6.4463,-9.8427 7.91612,-8.42199c4.00533,3.87147 -2.51088,69.58036 -8.31813,75.58832c-5.80725,6.00796 -13.76188,7.73993 -17.76719,3.86843c-4.00533,-3.87147 -2.54459,-11.8804 3.26267,-17.88836z" fill="#ff9d7d" stroke="none" stroke-linecap="butt"/><path d="M177.13718,432.97114c3.72958,2.70332 25.32039,-9.79039 33.87948,1.63819c9.75391,13.02397 5.99773,50.4311 -0.29759,59.11639c-11.81947,16.30663 -27.86998,24.83694 -35.84984,19.05294c-7.97986,-5.784 -4.86722,-23.69201 6.95225,-39.99864c11.81947,-16.30663 -12.66417,-45.59288 -4.6843,-39.80888z" fill="#ffbea9" stroke="#000000" stroke-linecap="butt"/><path d="M185.95431,438.36115c0.20094,-10.33255 4.99683,-10.65203 6.65196,-9.45233c4.51034,3.26922 7.30737,69.24112 2.40356,76.00665c-4.90384,6.76552 -12.53551,9.59986 -17.04588,6.33064c-4.51034,-3.26922 -4.19136,-11.40399 0.71245,-18.16951c3.10428,-4.28281 6.90044,-35.30258 7.27791,-54.71545z" fill="#ff9d7d" stroke="none" stroke-linecap="butt"/><path d="M224.44975,466.07863c6.52338,-19.05394 -25.46609,-39.88201 -16.1418,-36.6897c4.35796,1.49202 21.341,-16.77902 32.87281,-8.35953c13.14163,9.59486 20.50963,46.46104 17.03513,56.60956c-6.52338,19.05394 -19.3704,31.91235 -28.69469,28.72004c-9.32429,-3.19231 -11.59483,-21.22644 -5.07145,-40.28035z" fill="#ffbea9" stroke="#000000" stroke-linecap="butt"/><path d="M227.38903,486.40606c1.71333,-5.00436 -3.74512,-35.77515 -9.0717,-54.44678c-2.83506,-9.93802 1.65678,-11.64855 3.59077,-10.98642c5.27023,1.80433 27.27268,64.06191 24.56615,71.96726c-2.70649,7.90535 -9.17293,12.85119 -14.44316,11.04686c-5.27023,-1.80433 -7.34855,-9.6756 -4.64203,-17.58095z" fill="#ff9d7d" stroke="none" stroke-linecap="butt"/><path d="M123.72439,455.28854c0.38844,20.13592 -7.28471,36.61343 -17.13845,36.80351c-9.85374,0.19008 -18.15668,-15.97922 -18.54512,-36.11514c-0.20687,-10.72485 18.07489,-43.57568 33.52,-48.69544c13.55313,-4.49259 24.14007,18.09439 28.7455,18.00556c9.85374,-0.19008 -26.97037,9.86559 -26.58193,30.00151z" fill="none" stroke="#000000" stroke-linecap="butt"/><path d="M144.90868,471.84892c13.99694,-14.48075 -6.12102,-46.92149 0.96532,-40.0719c3.31202,3.20135 26.44633,-6.12913 33.31168,6.39037c7.82374,14.26717 -1.16006,50.77323 -8.61514,58.48601c-13.99691,14.48076 -31.08826,20.66708 -38.1746,13.81749c-7.08634,-6.84959 -1.48418,-24.14122 12.51277,-38.62197z" fill="none" stroke="#000000" stroke-linecap="butt"/><path d="M177.92044,476.76934l-28.11572,-7.7529" fill="none" stroke="#000000" stroke-linecap="round"/><path d="M182.46182,473.31157c11.81948,-16.30666 -12.66416,-45.59288 -4.6843,-39.80888c3.72961,2.70333 25.32042,-9.79038 33.87952,1.6382c9.75394,13.02398 5.99774,50.43109 -0.29759,59.11638c-11.81947,16.30663 -27.86998,24.83694 -35.84984,19.05294c-7.97986,-5.784 -4.86722,-23.692 6.95225,-39.99863z" fill="none" stroke="#000000" stroke-linecap="butt"/><path d="M225.21769,466.39924c6.5234,-19.0539 -25.46607,-39.88197 -16.14178,-36.68966c4.35797,1.49199 21.341,-16.77905 32.87282,-8.35956c13.14164,9.59482 20.5096,46.46103 17.0351,56.60955c-6.52337,19.05391 -19.3704,31.91233 -28.69469,28.72002c-9.32426,-3.1923 -11.59479,-21.22644 -5.07142,-40.28034z" fill="none" stroke="#000000" stroke-linecap="butt"/></g><path d="M186.91046,469.81818l28.92702,3.71851" fill="none" stroke="#000000" stroke-linecap="round"/><path d="M228.44763,461.75584l28.74712,-4.91956" fill="none" stroke="#000000" stroke-linecap="round"/></g><path d="M122.06804,449.8802l-25.86847,-13.46932" fill="none" stroke="#000000" stroke-linecap="round"/></g></g><g stroke-linecap="butt"><g><path d="M4.99722,79.44412c4.41027,-58.05791 60.53528,-101.1313 125.35876,-96.2071c64.82348,4.9242 113.79804,55.98126 109.38777,114.03918c-4.41027,58.05791 -60.53528,101.1313 -125.35876,96.2071c-64.82348,-4.9242 -113.79804,-55.98129 -109.38777,-114.0392z" fill="#ffbea9" stroke="#000000"/><path d="M233.7735,72.73213c-27.01588,-45.84478 -35.76285,-90.76068 -19.53688,-100.32249c16.22597,-9.56181 51.28039,19.85137 78.29627,65.69615c27.01588,45.84481 35.76282,90.76068 19.53685,100.32249c-16.22597,9.56181 -51.2804,-19.85137 -78.29628,-65.69615z" fill="#1000ff" stroke="#000000"/><path d="M242.00734,83.66958c0.79253,-10.43313 -41.63153,-47.49548 -21.65953,-45.97834c19.972,1.51714 35.66077,42.70093 34.86823,53.13406c-0.23757,3.12742 31.54983,35.22826 43.75015,27.20206c8.36639,-5.504 11.7556,-37.51099 16.49756,-33.5172c11.41135,9.61097 0.68792,56.72461 -9.19179,55.97411c-19.972,-1.51714 -65.05719,-46.38157 -64.26465,-56.8147z" fill="#0c00b3" stroke="none"/><path d="M213.23911,-28.75183c16.22597,-9.56181 51.2804,19.85137 78.29628,65.69615c27.01588,45.84478 35.76285,90.76069 19.53688,100.3225c-16.22597,9.56181 -51.2804,-19.85137 -78.29628,-65.69615c-27.01588,-45.84478 -35.76285,-90.76069 -19.53688,-100.3225z" fill="none" stroke="#000000"/><path d="M216.25947,-99.05646c52.16568,3.96267 91.66411,43.90575 88.22225,89.21534c-3.44187,45.30962 -48.5207,78.82793 -100.68634,74.86526c-52.16565,-3.96267 -91.66408,-43.90578 -88.22222,-89.21537c3.44186,-45.30959 48.52064,-78.82791 100.68631,-74.86523z" fill="#ff0000" stroke="#000000"/><path d="M188.84056,11.77418c1.67564,-22.05861 -20.17486,-110.1032 8.73981,-107.90675c16.87363,1.28178 6.66597,92.7311 32.60971,117.14571c18.51348,17.42232 77.65387,-32.23786 76.95607,-23.05189c-1.67564,22.05861 -40.07027,59.9271 -68.98494,57.73065c-28.9147,-2.19645 -50.99629,-21.85908 -49.32065,-43.91769z" fill="#dc0000" stroke="none"/><path d="M216.25947,-99.05643c52.16568,3.96267 91.66411,43.90575 88.22225,89.21534c-3.44186,45.30959 -48.52066,78.8279 -100.68634,74.86523c-52.16568,-3.96267 -91.66412,-43.90575 -88.22225,-89.21534c3.44186,-45.30959 48.52067,-78.8279 100.68635,-74.86523z" fill="none" stroke="#000000"/><path d="M20.99848,126.61788c0.54979,-7.23757 38.92764,47.08277 98.08691,51.5767c59.15927,4.49393 107.97783,-40.91043 107.42804,-33.67285c-0.54979,7.23757 -46.32884,50.34845 -105.48811,45.85452c-59.15927,-4.49393 -100.57663,-56.52076 -100.02684,-63.75834z" fill="#ff9d7d" stroke="none"/><path d="M-30.91522,28.15429c0,0 100.40579,-167.32278 156.62844,-161.3264c56.22258,5.99637 118.85491,112.39619 112.8585,168.61881c-5.99637,56.22258 -37.57547,-59.77649 -93.79808,-65.7729c-4.55902,-0.48625 -175.68889,58.4805 -175.68889,58.4805z" fill="#ffb300" stroke="#000000"/><path d="M24.92247,-15.96731c16.68304,4.06002 66.48919,-31.68583 98.31362,-35.7762c43.25317,-5.55932 68.85456,19.77873 77.48848,26.88288c24.23905,19.94428 44.92288,65.52462 40.36417,71.06498c-4.55868,5.54037 -32.63359,-31.05731 -56.87263,-51.00159c-3.61032,-2.97063 -9.05637,-20.3932 -26.24649,-22.40741c-21.63086,-2.53452 -57.70223,11.29668 -85.33123,18.59345c-43.96308,11.61054 -83.5713,46.86505 -100.07329,39.85487c-20.21915,-8.58927 74.0115,-99.63343 75.67728,-101.6579c1.74013,-2.11487 -47.6186,48.53356 -23.31991,54.44692z" fill="#e4a000" stroke="none"/><path d="M-28.55543,28.69402c0,0 100.40579,-167.32278 156.62844,-161.3264c56.22258,5.99637 118.85491,112.39619 112.8585,168.61881c-5.99637,56.22258 -37.57547,-59.77649 -93.79808,-65.7729c-4.55902,-0.48625 -175.68889,58.4805 -175.68889,58.4805z" fill="none" stroke="#000000"/><path d="M35.11374,13.74855c22.3671,-23.92055 59.78558,-34.98472 96.50639,-32.19529c35.70949,2.71261 72.50654,19.29375 93.09965,45.31702c17.33398,21.90471 21.57891,51.88054 20.0385,72.15889c-3.37045,44.36947 -59.5761,48.19604 -125.34362,43.20012c-65.76752,-4.99591 -113.38645,-16.13627 -110.016,-60.50575c1.48858,-19.59608 8.02241,-49.05352 25.71509,-67.975z" fill="#ffbea9" stroke="#000000"/><path d="M134.70348,-18.39182c64.82348,4.9242 113.79804,55.98129 109.38777,114.0392c-4.41027,58.05791 -60.53531,101.1313 -125.35876,96.2071c-64.82348,-4.9242 -113.79804,-55.9813 -109.38777,-114.03921c4.41027,-58.05791 60.53531,-101.1313 125.35876,-96.2071z" fill="none" stroke="#000000"/><path d="M12.77851,104.31355c0.25066,-3.29974 -7.26546,-12.6806 -6.39083,-23.35286c1.8685,-22.79877 15.78769,-55.52652 40.97171,-75.83265c15.57648,-12.55949 58.24485,-21.62865 84.23167,-21.32404c10.79888,0.12655 11.18092,7.4627 17.53078,7.94505c11.02486,0.83748 -55.51158,-0.60242 -89.69732,24.45159c-38.36323,28.11557 -44.73194,83.43273 -26.54544,91.91075c19.76503,9.21388 60.08899,19.76846 96.43577,18.8947c56.92235,-1.3684 110.59604,-17.78546 110.13963,-11.77716c-1.25495,16.52054 -61.08157,31.7494 -118.98213,27.35109c-57.90059,-4.39832 -108.94889,-21.74593 -107.69393,-38.26647z" fill="#ff9d7d" stroke="none"/><path d="M9.13502,82.03666c1.48858,-19.59608 8.02237,-49.05352 25.71505,-67.97501c22.36709,-23.92051 59.78558,-34.98472 96.50639,-32.19529c35.70951,2.71261 72.50654,19.29375 93.09965,45.31702c17.33395,21.90474 21.57888,51.88056 20.03847,72.15892c-3.37045,44.36944 -59.57614,48.196 -125.34362,43.20009c-65.76748,-4.99591 -113.38642,-16.13627 -110.01597,-60.50571z" fill="none" stroke="#000000"/><path d="M-5.78105,163.93523c0,0 -14.07833,-194.62798 35.36619,-222.05385c49.44448,-27.42588 161.87117,23.60322 189.29704,73.04774c27.42588,49.44448 -65.11608,-27.29541 -114.5606,0.13046c-4.00941,2.22393 -110.10263,148.87566 -110.10263,148.87566z" fill="#ffb300" stroke="#000000"/><path d="M2.29538,37.77473c0.20745,-2.73087 -11.04732,67.08945 12.23223,57.95394c15.98328,-6.27228 36.17402,-64.15797 59.85763,-85.80539c32.18886,-29.42145 67.70458,-23.41459 78.8534,-22.56769c31.29939,2.3776 74.4326,27.77278 73.88915,34.92694c-0.54345,7.15415 -44.55777,-6.64187 -75.85716,-9.01948c-4.66192,-0.35413 -19.13649,-11.47583 -34.35817,-3.23829c-19.15394,10.36558 -40.71042,42.42435 -59.11782,64.28232c-29.28976,34.78027 -41.42003,86.39954 -58.95176,90.15413c-21.4809,4.60035 3.2539,-124.0723 3.45248,-126.68646z" fill="#e4a000" stroke="none"/><path d="M-3.54008,163.01976c0,0 -14.07837,-194.62795 35.36615,-222.05383c49.44448,-27.42588 161.87118,23.60319 189.29705,73.04771c27.42588,49.44448 -65.11608,-27.29541 -114.5606,0.13046c-4.00941,2.22393 -110.1026,148.87569 -110.1026,148.87569z" fill="none" stroke="#000000"/></g><path d="M128.12343,44.80652c28.43774,2.16022 50.26854,20.00528 48.76046,39.85804c-1.50808,19.85276 -25.78396,34.19539 -54.2217,32.03517c-28.43774,-2.16022 -50.26854,-20.00527 -48.76046,-39.85803c1.50808,-19.85276 25.78396,-34.1954 54.2217,-32.03518z" fill="#ff9d7d" stroke="none"/><path d="M87.02757,32.48567c15.75899,1.1971 27.19049,19.85629 25.53296,41.67642c-1.65753,21.82014 -15.77642,38.53843 -31.53541,37.34133c-15.75899,-1.1971 -30.55804,-10.39861 -28.90051,-32.21879c1.65753,-21.82014 19.14396,-47.99607 34.90295,-46.79897z" fill="#000000" stroke="#000000"/><path d="M200.50605,89.74554c-1.63036,21.46246 -17.38693,28.21046 -32.88756,27.03299c-15.50063,-1.17748 -26.74477,-19.53076 -25.11441,-40.99321c1.63036,-21.46246 15.51779,-37.90666 31.01845,-36.72918c15.50063,1.17748 28.61387,29.22698 26.98351,50.6894z" data-paper-data="{&quot;index&quot;:null}" fill="#000000" stroke="#000000"/></g></g></g></svg>