<svg version="1.1" xmlns="http://www.w3.org/2000/svg" xmlns:xlink="http://www.w3.org/1999/xlink" width="224.13586" height="353.55881" viewBox="0,0,224.13586,353.55881"><g transform="translate(-139.93514,-9.81733)"><g data-paper-data="{&quot;isPaintingLayer&quot;:true}" fill-rule="nonzero" stroke-linejoin="miter" stroke-miterlimit="10" stroke-dasharray="" stroke-dashoffset="0" style="mix-blend-mode: normal"><g data-paper-data="{&quot;index&quot;:null}"><path d="M250.81689,242.12564c2.30825,-6.6889 12.09201,-4.34188 15.43806,-3.65694c8.68899,1.77865 16.86398,34.10355 20.17193,57.9379c1.57545,11.35143 1.21665,20.88683 0.83305,24.07422c-1.18908,9.87987 -5.68509,18.98392 -18.51233,16.35818c-12.82723,-2.62574 -22.26182,-12.76355 -21.07274,-22.64343c0.8789,-7.30266 -3.39848,-53.11665 3.14203,-72.06993z" data-paper-data="{&quot;index&quot;:null}" fill="#ff48b3" stroke="#000000" stroke-width="0" stroke-linecap="butt"/><path d="M288.23474,321.73532c-1.11514,9.26545 -7.92937,15.56677 -15.22006,14.07435c-6.5466,-1.34008 -21.20784,-7.08593 -22.90992,-14.8039c-0.19345,-0.8772 -0.71283,-0.55845 -0.59902,-1.50405c0.00605,-0.05039 -0.41461,-1.93164 -0.4239,-3.3056c-0.02459,-3.63831 -2.07383,-10.01616 -1.26893,-18.83439c0.75672,-8.29041 -0.6546,-16.35198 0.42191,-24.34011c0.66639,-4.94488 0.38201,-14.0028 1.56807,-20.54135c1.45672,-8.03067 4.36884,-13.1508 4.66404,-13.05696c2.55365,0.81173 0.16641,38.16359 2.7436,58.67944c2.09703,16.69341 13.94659,29.44794 15.76034,30.9268c4.08645,3.33192 8.21027,1.85999 8.79704,-3.3737c0.65567,-5.84801 6.39249,-7.21246 5.16375,-17.27744c-2.96925,-24.32193 -15.37932,-61.53186 -12.16567,-60.87403c7.29069,1.49241 14.5839,64.9655 13.46876,74.23095z" fill="#bb1c79" stroke="none" stroke-width="0" stroke-linecap="butt"/><g fill="none" stroke="#000000" stroke-width="3.5"><path d="M248.97996,313.76437c0.89158,-7.40805 -4.31952,-53.00804 2.4276,-71.62761c2.2513,-6.21276 12.94327,-4.75618 16.1525,-4.09925c12.82724,2.62574 22.19406,72.13225 21.00498,82.01213c-1.18908,9.87987 -5.68509,18.98392 -18.51233,16.35818c-12.82723,-2.62574 -22.26182,-12.76355 -21.07274,-22.64343z" data-paper-data="{&quot;index&quot;:null}" stroke-linecap="butt"/><path d="M248.59177,291.66652l36.10754,-3.77353" stroke-linecap="round"/></g></g><g><path d="M241.64957,316.19557c1.30351,9.87988 -9.03904,20.01769 -23.10074,22.64343c-14.06171,2.62574 -18.9904,-6.47831 -20.29392,-16.35818c-0.42052,-3.18739 -0.81385,-12.72279 0.91321,-24.07422c3.6263,-23.83435 12.58804,-56.15925 22.11323,-57.9379c3.66807,-0.68494 14.39339,-3.03195 16.92379,3.65694c7.16995,18.95328 2.48093,64.76727 3.44441,72.06993z" data-paper-data="{&quot;index&quot;:null}" fill="#ff48b3" stroke="#000000" stroke-width="0" stroke-linecap="butt"/><path d="M211.95127,249.50437c3.52292,-0.65783 -10.08146,36.5521 -13.33647,60.87403c-1.347,10.06498 4.94193,11.42942 5.6607,17.27744c0.64324,5.2337 5.16393,6.70562 9.64365,3.3737c1.9883,-1.47886 14.97824,-14.23339 17.27708,-30.9268c2.82521,-20.51584 0.20823,-57.8677 3.00764,-58.67944c0.32361,-0.09384 3.51599,5.02629 5.1129,13.05696c1.3002,6.53855 0.98846,15.59647 1.71898,20.54135c1.18011,7.98814 -0.36703,16.04971 0.46251,24.34011c0.88236,8.81823 -1.3641,15.19608 -1.39105,18.83439c-0.01018,1.37396 -0.47133,3.25521 -0.4647,3.3056c0.12476,0.94561 -0.4446,0.62685 -0.65667,1.50405c-1.86588,7.71797 -17.93808,13.46381 -25.11472,14.8039c-7.99233,1.49241 -15.46236,-4.8089 -16.68482,-14.07435c-1.22246,-9.26545 6.77263,-72.73854 14.76496,-74.23095z" fill="#bb1c79" stroke="none" stroke-width="0" stroke-linecap="butt"/><g fill="none" stroke="#000000" stroke-width="3.5"><path d="M240.21886,315.76437c1.30351,9.87988 -9.03904,20.0177 -23.10074,22.64343c-14.06171,2.62574 -18.9904,-6.47831 -20.29392,-16.35818c-1.30351,-9.87988 8.96475,-79.38639 23.02645,-82.01213c3.51808,-0.65693 15.23903,-2.11351 17.70698,4.09925c7.39645,18.61958 1.68384,64.21956 2.66123,71.62761z" data-paper-data="{&quot;index&quot;:null}" stroke-linecap="butt"/><path d="M201.06196,289.89299l39.58245,3.77353" stroke-linecap="round"/></g></g><g stroke-linecap="butt"><g><g><path d="M208.27181,218.20397c0.84101,-11.57656 -4.06617,-51.76675 6.04123,-64.7249c8.19797,-10.51015 44.43382,1.28582 50.78328,1.7471c5.64102,0.40981 11.59471,-2.84321 12.65386,6.49075c1.60286,14.12555 1.20924,43.3296 0.29212,55.95382c-1.52313,20.96612 -19.21152,37.93426 -33.38935,36.90428c-14.17783,-1.02999 -37.90429,-15.40492 -36.38116,-36.37103z" fill="#ff48b3" stroke="#000000" stroke-width="0"/><path d="M207.10722,221.79359c0.143,-1.9684 10.28094,16.76723 26.7633,22.31653c12.46546,4.19688 31.52463,-2.82944 35.75175,-11.09927c1.86486,-3.64836 5.43171,-18.33611 6.13234,-30.64727c0.82644,-14.52159 -1.69172,-27.39007 -6.36847,-38.90732c-4.93756,-12.15953 -26.36501,-11.76147 -23.58976,-11.55985c4.20291,0.30533 10.96609,1.05862 18.16725,2.65665c4.03901,0.89631 9.77525,0.41184 11.48092,4.26884c9.2636,20.94774 2.05713,64.29269 1.78303,68.06575c-0.41455,5.70638 -13.95104,29.44677 -33.31425,28.04008c-0.54559,-0.03964 -3.82318,-0.99575 -4.36125,-1.06952c-18.55819,-2.54427 -32.84774,-26.51903 -32.44487,-32.06462z" fill="#bb1c79" stroke="none" stroke-width="0"/><path d="M208.40109,218.10184c0.84101,-11.57656 -4.06619,-51.76674 6.04123,-64.7249c8.19797,-10.51015 44.43383,1.28582 50.78329,1.7471c5.64101,0.40981 11.59471,-2.84321 12.65386,6.49075c1.60286,14.12554 1.20924,43.3296 0.29213,55.95381c-1.52313,20.96612 -19.21152,37.93426 -33.38935,36.90428c-14.17782,-1.02998 -37.90428,-15.40492 -36.38115,-36.37103z" fill="none" stroke="#000000" stroke-width="3.5"/><path d="M246.40414,256.33847c-3.84699,-0.27948 -32.40387,-6.98199 -30.68045,-30.70512c1.17821,-16.21811 2.16053,-56.5146 10.84949,-70.34133c4.02086,-6.39839 18.33191,5.23862 19.54893,5.32702c1.81724,0.13202 7.84523,-12.86694 14.10402,-1.66375c6.99069,12.51331 11.26143,50.91049 10.35211,63.4273c-1.72343,23.72313 -20.32712,34.23534 -24.17412,33.95586z" fill="#ff94d2" stroke="#000000" stroke-width="0"/><path d="M216.9333,225.83667c0.38224,-5.26152 0.07653,-70.39507 12.09121,-70.62921c1.7222,-0.03355 -10.24241,69.00946 -6.99066,78.34372c0.15534,0.44593 2.29529,6.98528 7.4185,10.49137c5.59135,3.82648 14.20286,4.62578 14.29806,4.63269c14.74681,1.07132 27.02831,-25.05007 26.58581,-18.95899c-0.4425,6.09108 -11.81319,26.1009 -26.56,25.02958c-8.99934,-0.65378 -19.68372,-6.62199 -24.59,-14.4185c-3.13341,-4.97928 -2.42538,-12.11672 -2.25291,-14.49067z" fill="#ea88c1" stroke="none" stroke-width="0"/><path d="M270.7413,221.81611c-1.72342,23.72312 -20.32712,34.23533 -24.17412,33.95585c-3.84699,-0.27948 -32.40387,-6.98199 -30.68045,-30.70512c1.17821,-16.21811 2.16053,-56.5146 10.84949,-70.34133c4.02087,-6.3984 18.33191,5.23861 19.54894,5.32702c1.81724,0.13202 7.84523,-12.86693 14.10402,-1.66374c6.99069,12.51331 11.26143,50.9105 10.35211,63.4273z" fill="none" stroke="#000000" stroke-width="3.5"/></g><path d="M242.60573,185.75426c2.17995,0.15837 3.82256,2.00199 3.66885,4.11784c-0.15371,2.11586 -2.04552,3.7027 -4.22548,3.54434c-2.17995,-0.15837 -3.82256,-2.00199 -3.66885,-4.11784c0.15371,-2.11586 2.04552,-3.7027 4.22548,-3.54434z" fill="#000000" stroke="#000000" stroke-width="3.5"/></g><path d="M244.55051,168.62306c1.9235,0.13974 3.37707,1.70836 3.24666,3.50363c-0.13043,1.79527 -1.79545,3.13733 -3.71895,2.99759c-1.9235,-0.13974 -3.37707,-1.70836 -3.24666,-3.50363c0.13043,-1.79527 1.79545,-3.13733 3.71895,-2.99759z" fill="#000000" stroke="#000000" stroke-width="3.5"/></g><g data-paper-data="{&quot;index&quot;:null}"><path d="M289.70138,164.26179c8.21324,-0.87977 36.96487,50.67563 37.70874,57.62028c0.74388,6.94464 -6.10902,20.98604 -14.32228,21.86581c-8.21325,0.87977 -36.16707,-58.37411 -36.91096,-65.31876c-0.36919,-3.44665 -3.55435,-7.0737 -1.14145,-9.62961c2.44881,-2.59397 10.52895,-4.09457 14.66592,-4.53771z" fill="#ff48b3" stroke="#000000" stroke-width="0" stroke-linecap="butt"/><path d="M317.41614,232.34952c8.56347,-0.91729 9.16696,-22.96969 10.34373,-11.98371c1.17677,10.98598 -6.03372,21.84591 -14.59719,22.7632c-8.56349,0.91728 -35.31272,-51.98314 -36.48949,-62.96912c-0.77641,-7.24833 12.66126,23.16755 24.91107,41.04957c6.31674,9.22104 12.91837,11.45216 15.83186,11.14009z" fill="#bb1c79" stroke="none" stroke-width="0" stroke-linecap="butt"/><path d="M289.77432,164.94247c8.21324,-0.87977 36.96487,50.67563 37.70874,57.62028c0.74388,6.94464 -6.10903,20.98603 -14.32228,21.8658c-8.21325,0.87977 -36.16707,-58.37409 -36.91095,-65.31874c-0.3947,-3.68476 -4.40203,-7.95746 -1.66178,-10.57725c2.42429,-2.3177 11.33088,-3.17712 15.18625,-3.59008z" fill="none" stroke="#000000" stroke-width="3.5" stroke-linecap="butt"/><path d="M291.39166,209.43847l21.12992,-17.64588" fill="none" stroke="#000000" stroke-width="3.5" stroke-linecap="round"/></g><g><path d="M201.58302,157.48114c4.16025,-0.05729 12.36216,0.46131 15.10498,2.74216c2.7026,2.24739 -0.02354,6.23095 0.02418,9.697c0.09617,6.9837 -20.53345,69.16777 -28.79289,69.2815c-8.25945,0.11373 -16.75029,-13.00226 -16.84645,-19.98595c-0.09617,-6.9837 22.25072,-61.62097 30.51016,-61.73472z" fill="#ff48b3" stroke="#000000" stroke-width="0" stroke-linecap="butt"/><path d="M182.25245,228.40627c2.92987,-0.04035 9.21549,-3.04874 14.37819,-12.96212c10.01181,-19.22467 19.69647,-51.03511 19.79685,-43.74602c0.15213,11.04779 -20.04523,66.77967 -28.65688,66.89826c-8.61164,0.11859 -17.07509,-9.796 -17.22723,-20.84377c-0.15214,-11.04777 3.09742,10.77224 11.70905,10.65365z" fill="#bb1c79" stroke="none" stroke-width="0" stroke-linecap="butt"/><path d="M201.59242,158.16565c3.87706,-0.05339 12.82237,-0.27067 15.50765,1.73887c3.03525,2.27145 -0.42951,6.99481 -0.37849,10.70029c0.09617,6.9837 -20.53345,69.16776 -28.79289,69.28149c-8.25944,0.11373 -16.7503,-13.00225 -16.84645,-19.98594c-0.09617,-6.9837 22.25072,-61.62098 30.51015,-61.73473z" fill="none" stroke="#000000" stroke-width="3.5" stroke-linecap="butt"/><path d="M205.33464,202.53348l-23.09756,-14.97841" fill="none" stroke="#000000" stroke-width="3.5" stroke-linecap="round"/></g><g><path d="M162.93348,239.6476c2.57774,-9.6605 11.80408,-15.5876 20.6076,-13.23852c8.80352,2.34906 13.85052,12.08475 11.27278,21.74525c-2.57774,9.66051 -11.80409,15.5876 -20.60761,13.23852c-8.80353,-2.34906 -13.85052,-12.08475 -11.27278,-21.74525z" fill="#ff48b3" stroke="#000000" stroke-width="0" stroke-linecap="butt"/><path d="M162.54283,246.60051c1.45517,-5.45351 2.42565,-21.11222 10.21638,-19.03339c1.30707,0.34877 -3.30847,5.77374 -4.16522,12.36304c-0.81268,6.25029 2.1243,13.64626 3.47791,15.22159c5.72511,6.66289 19.66311,-4.69385 18.68365,-1.02315c-1.45518,5.4535 -8.95046,8.18923 -16.74119,6.1104c-7.79073,-2.07883 -12.92672,-8.18499 -11.47154,-13.6385z" fill="#bb1c79" stroke="none" stroke-width="0" stroke-linecap="butt"/><path d="M183.2636,227.3102c8.80353,2.34906 13.85052,12.08475 11.27278,21.74525c-2.57774,9.66051 -11.80407,15.5876 -20.6076,13.23852c-8.80353,-2.34906 -13.85052,-12.08475 -11.27277,-21.74525c2.57774,-9.66051 11.80406,-15.5876 20.60759,-13.23852z" fill="none" stroke="#000000" stroke-width="3.5" stroke-linecap="butt"/><g><path d="M154.7747,261.62476c0.43627,7.56696 -2.2119,13.87425 -5.91489,14.08773c-3.70297,0.2135 -7.0585,-5.74764 -7.49477,-13.31459c-0.23237,-4.03033 6.16944,-16.64804 11.90411,-18.79604c5.03219,-1.88486 9.33916,6.45687 11.06985,6.35708c3.70298,-0.2135 -10.0006,4.09886 -9.56431,11.66579z" fill="#ff48b3" stroke="#000000" stroke-width="0" stroke-linecap="butt"/><path d="M153.48685,269.32653c0.18101,3.13948 -3.54869,5.37852 -5.64167,5.4992c-2.09298,0.12068 -3.93642,-2.32655 -4.11743,-5.46603c-0.18101,-3.13948 14.09528,-23.48012 16.18828,-23.6008c0.76805,-0.04429 4.73818,1.84659 2.70472,5.16203c-1.46483,2.38835 -5.5317,4.22656 -7.02386,6.93056c-2.39957,4.34834 -1.94736,9.34964 -1.87672,10.57503z" fill="#bb1c79" stroke="none" stroke-width="0" stroke-linecap="butt"/><path d="M155.09478,261.49509c0.43628,7.56694 -2.2119,13.87424 -5.91487,14.08774c-3.70297,0.2135 -7.0585,-5.74766 -7.49477,-13.31459c-0.23237,-4.03033 6.16944,-16.64804 11.90412,-18.79604c5.03219,-1.88486 9.33916,6.45687 11.06984,6.35708c3.70297,-0.2135 -10.0006,4.09886 -9.56431,11.66579z" fill="none" stroke="#000000" stroke-width="3.5" stroke-linecap="butt"/><path d="M144.47142,254.79244l9.92249,4.69261" fill="none" stroke="#000000" stroke-width="3.5" stroke-linecap="round"/></g><g><path d="M169.63787,267.48735c3.0379,6.94409 2.74587,13.77852 -0.65232,15.26514c-3.39816,1.48664 -8.61562,-2.93748 -11.65352,-9.88156c-1.61806,-3.69857 0.00155,-17.75441 4.6328,-21.76088c4.06395,-3.51567 11.00062,2.81022 12.58885,2.1154c3.39817,-1.48664 -7.95374,7.31783 -4.91583,14.26188z" fill="#ff48b3" stroke="#000000" stroke-width="0" stroke-linecap="butt"/><path d="M171.10587,275.15684c1.26041,2.88105 -1.45913,6.27635 -3.37982,7.11663c-1.92069,0.84028 -4.4995,-0.8141 -5.75991,-3.69516c-1.26041,-2.88105 5.06022,-26.91444 6.98093,-27.75472c0.70483,-0.30836 5.08458,0.0855 4.32958,3.90088c-0.54387,2.74848 -3.71882,5.88505 -4.17866,8.93902c-0.73947,4.91113 1.42205,9.44382 1.914,10.56835z" fill="#bb1c79" stroke="none" stroke-width="0" stroke-linecap="butt"/><path d="M169.89297,267.25456c3.03791,6.94407 2.74586,13.77851 -0.6523,15.26514c-3.39816,1.48664 -8.61563,-2.9375 -11.65352,-9.88156c-1.61806,-3.69857 0.00155,-17.75441 4.63281,-21.76089c4.06395,-3.51567 11.00062,2.81022 12.58884,2.1154c3.39816,-1.48664 -7.95374,7.31783 -4.91583,14.26188z" fill="none" stroke="#000000" stroke-width="3.5" stroke-linecap="butt"/><path d="M157.60274,264.66001l10.93471,0.9532" fill="none" stroke="#000000" stroke-width="3.5" stroke-linecap="round"/></g><g><path d="M185.0502,270.29055c3.96095,6.46221 4.60836,13.27216 1.44599,15.21049c-3.16234,1.93834 -8.93692,-1.72896 -12.89786,-8.19115c-2.10969,-3.44191 -2.43178,-17.58709 1.60668,-22.19048c3.54376,-4.03948 11.28197,1.27602 12.75998,0.37008c3.16235,-1.93834 -6.87575,8.33887 -2.9148,14.80104z" fill="#ff48b3" stroke="#000000" stroke-width="0" stroke-linecap="butt"/><path d="M187.55548,277.68647c1.64338,2.68112 -0.58516,6.41711 -2.37257,7.51269c-1.78741,1.09558 -4.56862,-0.18975 -6.21199,-2.87087c-1.64338,-2.68112 1.32375,-27.35399 3.11117,-28.44958c0.65591,-0.40204 5.04831,-0.61216 4.82335,3.27068c-0.16205,2.79709 -2.87716,6.33918 -2.9141,9.42736c-0.05941,4.96613 2.70294,9.15981 3.34437,10.2063z" fill="#bb1c79" stroke="none" stroke-width="0" stroke-linecap="butt"/><path d="M185.27098,270.02499c3.96095,6.46218 4.60835,13.27215 1.44601,15.21049c-3.16234,1.93834 -8.93693,-1.72898 -12.89786,-8.19115c-2.10969,-3.44191 -2.43177,-17.58708 1.60669,-22.19049c3.54376,-4.03948 11.28197,1.27603 12.75997,0.37009c3.16234,-1.93834 -6.87575,8.33886 -2.9148,14.80103z" fill="none" stroke="#000000" stroke-width="3.5" stroke-linecap="butt"/><path d="M172.74114,269.13934l10.96216,-0.55444" fill="none" stroke="#000000" stroke-width="3.5" stroke-linecap="round"/></g><g data-paper-data="{&quot;index&quot;:null}"><path d="M198.20916,265.69168c-0.01367,-7.57948 -13.94909,-11.07076 -10.23996,-11.07745c1.73356,-0.00313 5.53775,-8.58582 10.67296,-7.003c5.85207,1.80379 12.9916,14.01922 12.99889,18.05624c0.01369,7.5795 -2.98205,13.72931 -6.69117,13.73601c-3.70913,0.00671 -6.72704,-6.13225 -6.74073,-13.71176z" fill="#ff48b3" stroke="#000000" stroke-width="0" stroke-linecap="butt"/><path d="M199.6656,272.41889c-0.00223,-1.22743 0.1523,-6.24675 -2.50117,-10.44498c-1.65005,-2.61066 -5.81886,-4.2042 -7.42288,-6.50138c-2.22668,-3.18888 1.62419,-5.31211 2.39352,-5.31349c2.09647,-0.00378 17.55506,19.45351 17.56073,22.5982c0.00568,3.14469 -1.68924,5.69703 -3.7857,5.70081c-2.09646,0.00378 -5.95248,-2.00991 -5.95816,-5.1546z" fill="#bb1c79" stroke="none" stroke-width="0" stroke-linecap="butt"/><path d="M197.88193,265.58125c-0.01367,-7.57948 -13.94906,-11.07076 -10.23995,-11.07745c1.73355,-0.00312 5.53774,-8.58581 10.67295,-7.003c5.85208,1.80379 12.99161,14.01922 12.9989,18.05623c0.01369,7.57949 -2.98206,13.72932 -6.69117,13.73602c-3.70911,0.0067 -6.72704,-6.13228 -6.74072,-13.71177z" fill="none" stroke="#000000" stroke-width="3.5" stroke-linecap="butt"/><path d="M208.08868,258.25981l-9.62643,5.27336" fill="none" stroke="#000000" stroke-width="3.5" stroke-linecap="round"/></g></g><g data-paper-data="{&quot;index&quot;:null}"><path d="M341.06654,243.8976c2.57774,9.6605 -2.46925,19.39619 -11.27278,21.74525c-8.80352,2.34908 -18.02987,-3.57801 -20.60761,-13.23852c-2.57774,-9.6605 2.46926,-19.39619 11.27278,-21.74525c8.80352,-2.34908 18.02986,3.57802 20.6076,13.23852z" fill="#ff48b3" stroke="#000000" stroke-width="0" stroke-linecap="butt"/><path d="M341.45719,250.8505c1.45518,5.45351 -3.68081,11.55967 -11.47154,13.6385c-7.79073,2.07883 -15.28601,-0.6569 -16.74119,-6.1104c-0.97946,-3.6707 12.95854,7.68604 18.68365,1.02315c1.35361,-1.57533 4.29059,-8.9713 3.47791,-15.22159c-0.85675,-6.5893 -5.47229,-12.01427 -4.16522,-12.36304c7.79073,-2.07883 8.76121,13.57988 10.21638,19.03339z" fill="#bb1c79" stroke="none" stroke-width="0" stroke-linecap="butt"/><path d="M341.34399,244.79872c2.57775,9.6605 -2.46924,19.39619 -11.27277,21.74525c-8.80353,2.34908 -18.02986,-3.57801 -20.6076,-13.23852c-2.57774,-9.6605 2.46925,-19.39619 11.27278,-21.74525c8.80353,-2.34908 18.02985,3.57801 20.60759,13.23852z" fill="none" stroke="#000000" stroke-width="3.5" stroke-linecap="butt"/><g><path d="M349.22531,265.87473c0.43629,-7.56693 -13.26729,-11.87929 -9.56431,-11.66579c1.73069,0.09979 6.03766,-8.24194 11.06985,-6.35708c5.73467,2.148 12.13648,14.76571 11.90411,18.79604c-0.43627,7.56695 -3.7918,13.52809 -7.49477,13.31459c-3.70299,-0.21348 -6.35116,-6.52077 -5.91489,-14.08773z" fill="#ff48b3" stroke="#000000" stroke-width="0" stroke-linecap="butt"/><path d="M350.27984,272.67653c0.07064,-1.22539 0.52285,-6.22669 -1.87672,-10.57503c-1.49216,-2.704 -5.55903,-4.54221 -7.02386,-6.93056c-2.03346,-3.31544 1.93667,-5.20632 2.70472,-5.16203c2.093,0.12068 16.36929,20.46132 16.18828,23.6008c-0.18101,3.13948 -2.02445,5.58671 -4.11743,5.46603c-2.09298,-0.12068 -5.82268,-2.35972 -5.64167,-5.4992z" fill="#bb1c79" stroke="none" stroke-width="0" stroke-linecap="butt"/><path d="M348.90521,265.74507c0.43629,-7.56693 -13.26728,-11.87929 -9.56431,-11.66579c1.73068,0.09979 6.03765,-8.24194 11.06984,-6.35708c5.73468,2.148 12.13649,14.76571 11.90412,18.79604c-0.43627,7.56693 -3.7918,13.52809 -7.49477,13.31459c-3.70297,-0.2135 -6.35115,-6.5208 -5.91487,-14.08774z" fill="none" stroke="#000000" stroke-width="3.5" stroke-linecap="butt"/><path d="M349.60609,263.73505l9.92249,-4.69261" fill="none" stroke="#000000" stroke-width="3.5" stroke-linecap="round"/></g><g><path d="M334.36215,271.73733c3.03791,-6.94405 -8.31401,-15.74853 -4.91584,-14.26189c1.58822,0.69482 8.5249,-5.63107 12.58885,-2.11539c4.63126,4.00647 6.25086,18.06231 4.63281,21.76088c-3.0379,6.94408 -8.25537,11.3682 -11.65353,9.88156c-3.39819,-1.48663 -3.69022,-8.32105 -0.65231,-15.26514z" fill="#ff48b3" stroke="#000000" stroke-width="0" stroke-linecap="butt"/><path d="M332.98801,278.48183c0.49195,-1.12453 2.65348,-5.65722 1.914,-10.56835c-0.45984,-3.05397 -3.63479,-6.19053 -4.17866,-8.93901c-0.755,-3.81538 3.62475,-4.20924 4.32958,-3.90088c1.92071,0.84028 8.24134,24.87367 6.98093,27.75473c-1.26041,2.88106 -3.83921,4.53544 -5.75991,3.69516c-1.92069,-0.84028 -4.64023,-4.23557 -3.37982,-7.11663z" fill="#bb1c79" stroke="none" stroke-width="0" stroke-linecap="butt"/><path d="M334.10703,271.50454c3.03791,-6.94405 -8.31399,-15.74851 -4.91583,-14.26188c1.58821,0.69482 8.52489,-5.63108 12.58884,-2.1154c4.63127,4.00648 6.25087,18.06231 4.63281,21.76089c-3.03789,6.94406 -8.25536,11.36819 -11.65353,9.88156c-3.39816,-1.48663 -3.6902,-8.32107 -0.6523,-15.26514z" fill="none" stroke="#000000" stroke-width="3.5" stroke-linecap="butt"/><path d="M346.39726,268.91001l-10.93471,0.9532" fill="none" stroke="#000000" stroke-width="3.5" stroke-linecap="round"/></g><g><path d="M318.94983,274.54053c3.96095,-6.46217 -6.07716,-16.73938 -2.91481,-14.80104c1.47801,0.90594 9.21622,-4.40957 12.75998,-0.37009c4.03845,4.60339 3.71636,18.74857 1.60667,22.19049c-3.96095,6.4622 -9.73552,10.12948 -12.89786,8.19115c-3.16237,-1.93833 -2.51496,-8.74829 1.44599,-15.21049z" fill="#ff48b3" stroke="#000000" stroke-width="0" stroke-linecap="butt"/><path d="M316.66429,281.03305c0.64143,-1.04649 3.40378,-5.24016 3.34437,-10.2063c-0.03694,-3.08818 -2.75205,-6.63027 -2.9141,-9.42737c-0.22496,-3.88284 4.16744,-3.67273 4.82335,-3.27069c1.78742,1.0956 4.75455,25.76846 3.11117,28.44959c-1.64337,2.68113 -4.42458,3.96646 -6.212,2.87087c-1.78741,-1.09559 -4.01594,-4.83157 -2.37257,-7.51269z" fill="#bb1c79" stroke="none" stroke-width="0" stroke-linecap="butt"/><path d="M318.72902,274.27497c3.96095,-6.46217 -6.07714,-16.73937 -2.91479,-14.80103c1.478,0.90594 9.21621,-4.40957 12.75997,-0.37009c4.03846,4.6034 3.71637,18.74857 1.60668,22.19049c-3.96094,6.46218 -9.73552,10.12949 -12.89786,8.19115c-3.16235,-1.93833 -2.51495,-8.74831 1.446,-15.21049z" fill="none" stroke="#000000" stroke-width="3.5" stroke-linecap="butt"/><path d="M331.25886,273.38934l-10.96216,-0.55444" fill="none" stroke="#000000" stroke-width="3.5" stroke-linecap="round"/></g><g data-paper-data="{&quot;index&quot;:null}"><path d="M305.79085,269.94171c-0.0137,7.57952 -3.03161,13.71848 -6.74074,13.71177c-3.70911,-0.00669 -6.70485,-6.15651 -6.69116,-13.73602c0.00729,-4.03702 7.14683,-16.25245 12.99889,-18.05624c5.13521,-1.58281 8.93939,6.99988 10.67296,7.003c3.70913,0.00669 -10.22628,3.49797 -10.23996,11.07746z" fill="#ff48b3" stroke="#000000" stroke-width="0" stroke-linecap="butt"/><path d="M304.04807,277.55346c-0.00568,3.14469 -3.86171,5.15838 -5.95817,5.1546c-2.09645,-0.00378 -3.79138,-2.55612 -3.7857,-5.70081c0.00568,-3.14469 15.46427,-22.60198 17.56074,-22.59821c0.76932,0.00139 4.6202,2.12461 2.39351,5.31349c-1.60403,2.29719 -5.77283,3.89072 -7.42288,6.50138c-2.65347,4.19823 -2.49895,9.21754 -2.50117,10.44498z" fill="#bb1c79" stroke="none" stroke-width="0" stroke-linecap="butt"/><path d="M306.11806,269.83128c-0.01368,7.5795 -3.03161,13.71846 -6.74072,13.71177c-3.70911,-0.00669 -6.70485,-6.15654 -6.69116,-13.73602c0.00729,-4.03702 7.14682,-16.25244 12.9989,-18.05623c5.13521,-1.58281 8.93939,6.99988 10.67294,7.003c3.70911,0.00669 -10.22627,3.49797 -10.23994,11.07746z" fill="none" stroke="#000000" stroke-width="3.5" stroke-linecap="butt"/><path d="M295.91132,262.50982l9.62642,5.27335" fill="none" stroke="#000000" stroke-width="3.5" stroke-linecap="round"/></g></g><path d="" fill="none" stroke="#000000" stroke-width="0" stroke-linecap="round"/><path d="" fill="none" stroke="#000000" stroke-width="0" stroke-linecap="round"/><g stroke-linecap="butt"><g data-paper-data="{&quot;index&quot;:null}"><path d="M172.17296,339.50785c0,-9.68071 14.54587,-17.52849 32.48911,-17.52849c17.94324,0 32.4891,7.84776 32.4891,17.52849c0,4.82875 -0.26964,10.54121 -6.12418,13.71142c-5.88268,3.18545 -17.37179,3.81707 -26.36493,3.81707c-9.63601,0 -24.99102,-0.03037 -30.94078,-3.62537c-5.1293,-3.09926 -1.54833,-9.42121 -1.54833,-13.90312z" fill="#ff48b3" stroke="#000000" stroke-width="0"/><path d="M171.51877,348.79021c0,-1.68312 6.44758,2.28535 18.97475,3.19676c13.43456,0.97742 33.25799,-1.12537 41.06289,-4.08344c3.49812,-1.32579 2.53102,-7.38682 -1.34262,-12.41785c-4.22464,-5.48692 -11.44111,-9.91793 -8.34249,-9.91793c18.18988,0 15.51885,18.04296 15.51885,23.22245c0,5.17949 -14.74581,9.3783 -32.93569,9.3783c-18.18988,0 -32.9357,-4.19881 -32.9357,-9.3783z" fill="#bb1c79" stroke="none" stroke-width="0"/><path d="M205.34764,322.44165c17.94324,0 32.48911,7.84777 32.48911,17.52849c0,4.82875 -0.26965,10.54121 -6.12418,13.71142c-5.88268,3.18545 -17.37179,3.81707 -26.36493,3.81707c-9.63601,0 -24.99101,-0.03036 -30.94078,-3.62536c-5.1293,-3.09926 -1.54833,-9.42123 -1.54833,-13.90313c0,-9.68072 14.54587,-17.52849 32.48911,-17.52849z" fill="none" stroke="#000000" stroke-width="3.5"/></g><path d="M154.64905,343.63538c0,-9.68072 6.53158,-17.52849 14.58867,-17.52849c8.0571,0 14.58867,7.84776 14.58867,17.52849c0,4.82875 -0.12108,10.54121 -2.74995,13.71142c-2.64152,3.18545 -7.80051,3.81707 -11.83872,3.81707c-4.32688,0 -11.22178,-0.03037 -13.89342,-3.62537c-2.30323,-3.09926 -0.69526,-9.42122 -0.69526,-13.90312z" fill="#ff48b3" stroke="#000000" stroke-width="0"/><path d="M154.35531,352.91772c0,-1.68312 2.89518,2.28534 8.52029,3.19675c6.03256,0.97742 14.93392,-1.12536 18.43858,-4.08342c1.57077,-1.32579 1.13651,-7.38682 -0.60288,-12.41785c-1.897,-5.48692 -5.13743,-9.91793 -3.74605,-9.91793c8.16785,0 6.96847,18.04297 6.96847,23.22246c0,5.1795 -6.62135,9.3783 -14.7892,9.3783c-8.16785,0 -14.7892,-4.19881 -14.7892,-9.3783z" fill="#bb1c79" stroke="none" stroke-width="0"/><path d="M154.95689,344.09766c0,-9.68072 6.53157,-17.52849 14.58867,-17.52849c8.0571,0 14.58867,7.84778 14.58867,17.52849c0,4.82875 -0.12108,10.54121 -2.74995,13.71142c-2.64152,3.18546 -7.8005,3.81706 -11.83871,3.81706c-4.32688,0 -11.22178,-0.03036 -13.89342,-3.62536c-2.30323,-3.09926 -0.69525,-9.42122 -0.69525,-13.90312z" fill="none" stroke="#000000" stroke-width="3.5"/><g><path d="M195.83264,343.04422c0,-9.68072 6.53158,-17.52849 14.58867,-17.52849c8.0571,0 14.58867,7.84776 14.58867,17.52849c0,4.82875 -0.12108,10.54121 -2.74995,13.71142c-2.64152,3.18545 -7.80051,3.81707 -11.83872,3.81707c-4.32688,0 -11.22178,-0.03037 -13.89342,-3.62537c-2.30323,-3.09926 -0.69526,-9.42122 -0.69526,-13.90312z" fill="#ff48b3" stroke="#000000" stroke-width="0"/><path d="M195.5389,352.32657c0,-1.68312 2.89518,2.28534 8.52029,3.19675c6.03256,0.97742 14.93392,-1.12536 18.43858,-4.08342c1.57077,-1.32579 1.13651,-7.38682 -0.60288,-12.41785c-1.897,-5.48692 -5.13743,-9.91793 -3.74605,-9.91793c8.16785,0 6.96847,18.04297 6.96847,23.22246c0,5.1795 -6.62135,9.3783 -14.7892,9.3783c-8.16785,0 -14.7892,-4.19881 -14.7892,-9.3783z" fill="#bb1c79" stroke="none" stroke-width="0"/><path d="M196.14048,343.5065c0,-9.68072 6.53157,-17.52849 14.58867,-17.52849c8.0571,0 14.58867,7.84778 14.58867,17.52849c0,4.82875 -0.12108,10.54121 -2.74995,13.71142c-2.64152,3.18546 -7.8005,3.81706 -11.83871,3.81706c-4.32688,0 -11.22178,-0.03036 -13.89342,-3.62536c-2.30323,-3.09926 -0.69525,-9.42122 -0.69525,-13.90312z" fill="none" stroke="#000000" stroke-width="3.5"/></g><g><path d="M172.97476,342.84717c0,-9.68072 6.53158,-17.52849 14.58867,-17.52849c8.0571,0 14.58867,7.84776 14.58867,17.52849c0,4.82875 -0.12108,10.54121 -2.74995,13.71142c-2.64152,3.18545 -7.80051,3.81707 -11.83872,3.81707c-4.32688,0 -11.22178,-0.03037 -13.89342,-3.62537c-2.30323,-3.09926 -0.69526,-9.42122 -0.69526,-13.90312z" fill="#ff48b3" stroke="#000000" stroke-width="0"/><path d="M172.68102,352.12952c0,-1.68312 2.89518,2.28534 8.52029,3.19675c6.03256,0.97742 14.93392,-1.12536 18.43858,-4.08342c1.57077,-1.32579 1.13651,-7.38682 -0.60288,-12.41785c-1.897,-5.48692 -5.13743,-9.91793 -3.74605,-9.91793c8.16785,0 6.96847,18.04297 6.96847,23.22246c0,5.1795 -6.62135,9.3783 -14.7892,9.3783c-8.16785,0 -14.7892,-4.19881 -14.7892,-9.3783z" fill="#bb1c79" stroke="none" stroke-width="0"/><path d="M173.2826,343.30945c0,-9.68072 6.53157,-17.52849 14.58867,-17.52849c8.0571,0 14.58867,7.84778 14.58867,17.52849c0,4.82875 -0.12108,10.54121 -2.74995,13.71142c-2.64152,3.18546 -7.8005,3.81706 -11.83871,3.81706c-4.32688,0 -11.22178,-0.03036 -13.89342,-3.62536c-2.30323,-3.09926 -0.69525,-9.42122 -0.69525,-13.90312z" fill="none" stroke="#000000" stroke-width="3.5"/></g></g><g data-paper-data="{&quot;index&quot;:null}" stroke-linecap="butt"><g data-paper-data="{&quot;index&quot;:null}"><path d="M314.2065,337.50785c0,4.4819 3.58098,10.80385 -1.54833,13.90312c-5.94977,3.59501 -21.30476,3.62537 -30.94078,3.62537c-8.99313,0 -20.48225,-0.63162 -26.36493,-3.81707c-5.85454,-3.17021 -6.12418,-8.88267 -6.12418,-13.71142c0,-9.68072 14.54587,-17.52848 32.4891,-17.52848c17.94323,0 32.48911,7.84777 32.48911,17.52848z" fill="#ff48b3" stroke="#000000" stroke-width="0"/><path d="M314.86068,346.7902c0,5.17949 -14.74581,9.37831 -32.93569,9.37831c-18.18988,0 -32.93569,-4.19882 -32.93569,-9.37831c0,-5.17949 -2.67103,-23.22244 15.51885,-23.22244c3.09862,0 -4.11786,4.43102 -8.34249,9.91794c-3.87363,5.03103 -4.84073,11.09206 -1.34261,12.41785c7.8049,2.95807 27.62833,5.06086 41.06289,4.08344c12.52717,-0.91141 18.97475,-4.87989 18.97475,-3.19676z" fill="#bb1c79" stroke="none" stroke-width="0"/><path d="M313.52092,337.97014c0,4.4819 3.58097,10.80386 -1.54833,13.90312c-5.94977,3.59501 -21.30476,3.62536 -30.94078,3.62536c-8.99313,0 -20.48226,-0.63162 -26.36494,-3.81707c-5.85453,-3.17021 -6.12418,-8.88267 -6.12418,-13.71142c0,-9.68072 14.54588,-17.52849 32.48911,-17.52849c17.94323,0 32.48911,7.84777 32.48911,17.52849z" fill="none" stroke="#000000" stroke-width="3.5"/></g><path d="M331.73041,341.63537c0,4.4819 1.60797,10.80386 -0.69526,13.90312c-2.67164,3.59501 -9.56654,3.62538 -13.89342,3.62538c-4.03821,0 -9.19721,-0.63162 -11.83872,-3.81707c-2.62887,-3.17021 -2.74995,-8.88268 -2.74995,-13.71142c0,-9.68072 6.53157,-17.52848 14.58867,-17.52848c8.0571,0 14.58867,7.84776 14.58867,17.52848z" fill="#ff48b3" stroke="#000000" stroke-width="0"/><path d="M332.02415,350.91773c0,5.17949 -6.62135,9.3783 -14.78921,9.3783c-8.16786,0 -14.7892,-4.19881 -14.7892,-9.3783c0,-5.17949 -1.19938,-23.22246 6.96847,-23.22246c1.39139,0 -1.84905,4.43102 -3.74605,9.91794c-1.73939,5.03103 -2.17365,11.09206 -0.60288,12.41785c3.50466,2.95806 12.40603,5.06085 18.43858,4.08342c5.6251,-0.91141 8.52029,-4.87987 8.52029,-3.19675z" fill="#bb1c79" stroke="none" stroke-width="0"/><path d="M331.42255,342.09766c0,4.4819 1.60798,10.80386 -0.69525,13.90312c-2.67164,3.59501 -9.56654,3.62536 -13.89342,3.62536c-4.03821,0 -9.19719,-0.63161 -11.83871,-3.81707c-2.62887,-3.17021 -2.74995,-8.88267 -2.74995,-13.71142c0,-9.68072 6.53157,-17.52849 14.58868,-17.52849c8.0571,0 14.58867,7.84777 14.58867,17.52849z" fill="none" stroke="#000000" stroke-width="3.5"/><g><path d="M290.54682,341.04422c0,4.4819 1.60797,10.80386 -0.69526,13.90312c-2.67164,3.59501 -9.56654,3.62537 -13.89342,3.62537c-4.03821,0 -9.1972,-0.63162 -11.83872,-3.81707c-2.62887,-3.17021 -2.74995,-8.88267 -2.74995,-13.71142c0,-9.68072 6.53157,-17.52849 14.58867,-17.52849c8.0571,0 14.58867,7.84777 14.58867,17.52849z" fill="#ff48b3" stroke="#000000" stroke-width="0"/><path d="M290.84056,350.32657c0,5.17949 -6.62135,9.37831 -14.78921,9.37831c-8.16786,0 -14.78921,-4.19881 -14.78921,-9.37831c0,-5.17949 -1.19937,-23.22245 6.96848,-23.22245c1.39139,0 -1.84905,4.43102 -3.74605,9.91794c-1.73939,5.03103 -2.17366,11.09206 -0.60289,12.41785c3.50466,2.95806 12.40603,5.06084 18.43858,4.08342c5.6251,-0.91141 8.52029,-4.87988 8.52029,-3.19675z" fill="#bb1c79" stroke="none" stroke-width="0"/><path d="M290.23896,341.50651c0,4.4819 1.60797,10.80385 -0.69525,13.90312c-2.67164,3.59501 -9.56654,3.62536 -13.89342,3.62536c-4.03821,0 -9.1972,-0.6316 -11.83871,-3.81706c-2.62887,-3.17021 -2.74995,-8.88268 -2.74995,-13.71142c0,-9.68072 6.53157,-17.52849 14.58868,-17.52849c8.0571,0 14.58867,7.84777 14.58867,17.52849z" fill="none" stroke="#000000" stroke-width="3.5"/></g><g><path d="M313.40469,340.84717c0,4.4819 1.60797,10.80386 -0.69525,13.90312c-2.67164,3.59501 -9.56654,3.62537 -13.89342,3.62537c-4.03821,0 -9.1972,-0.63162 -11.83872,-3.81707c-2.62887,-3.17021 -2.74995,-8.88268 -2.74995,-13.71143c0,-9.68072 6.53157,-17.52848 14.58867,-17.52848c8.0571,0 14.58867,7.84776 14.58867,17.52848z" fill="#ff48b3" stroke="#000000" stroke-width="0"/><path d="M313.69844,350.12952c0,5.17949 -6.62135,9.37831 -14.7892,9.37831c-8.16786,0 -14.78921,-4.19881 -14.78921,-9.37831c0,-5.17949 -1.19937,-23.22245 6.96848,-23.22245c1.39139,0 -1.84906,4.43102 -3.74606,9.91794c-1.73939,5.03103 -2.17365,11.09206 -0.60288,12.41785c3.50465,2.95806 12.40603,5.06085 18.43858,4.08342c5.6251,-0.91141 8.52028,-4.87988 8.52028,-3.19675z" fill="#bb1c79" stroke="none" stroke-width="0"/><path d="M313.09684,341.30946c0,4.4819 1.60798,10.80385 -0.69525,13.90312c-2.67164,3.59501 -9.56654,3.62536 -13.89342,3.62536c-4.03822,0 -9.1972,-0.6316 -11.83871,-3.81706c-2.62887,-3.17021 -2.74995,-8.88268 -2.74995,-13.71142c0,-9.68072 6.53157,-17.52849 14.58867,-17.52849c8.0571,0 14.58867,7.84777 14.58867,17.52849z" fill="none" stroke="#000000" stroke-width="3.5"/></g></g><g><path d="M284.70936,138.68181c0.71086,5.25406 -11.84558,11.29015 -28.0456,13.48198c-16.20003,2.19184 -29.90902,-0.29061 -30.61987,-5.54467c-0.71086,-5.25406 11.84558,-11.29015 28.0456,-13.48198c16.20003,-2.19184 29.90902,0.29061 30.61987,5.54467z" fill="#000000" stroke="#000000" stroke-width="3.5" stroke-linecap="butt"/><path d="M287.81644,139.77108c0.31637,2.33833 -4.64837,6.0456 -7.38828,8.32159c-5.34031,4.43609 -12.13899,7.03521 -24.33497,8.6853c-18.45327,2.49668 -34.16895,-1.06963 -35.10195,-7.96558c-0.32072,-2.37046 -7.38744,-11.74398 -4.57333,-14.04714c3.03088,-2.48058 2.27838,7.44456 9.23036,12.82139c5.37101,4.15405 23.50143,5.08523 28.77963,4.3711c8.6368,-1.16855 21.22773,-3.38818 27.08753,-11.09961c4.03323,-5.30769 2.32026,-17.01326 4.26534,-17.43332c1.26689,-0.2736 1.83989,14.89937 2.03566,16.34629z" fill="#ff48b3" stroke="#000000" stroke-width="0" stroke-linecap="butt"/><path d="M229.20101,152.87777c6.58945,2.56967 17.91419,3.22606 26.70397,2.03683c8.19634,-1.10894 17.5987,-3.49753 22.87189,-8.15228c6.24075,-5.50887 7.64245,-13.1876 7.89131,-11.3484c0.20579,1.52102 -0.60906,7.29631 -5.03923,11.22574c-5.45309,4.83673 -15.51721,7.90311 -25.39168,9.23911c-11.25473,1.52274 -22.95922,1.22316 -29.67439,-1.62349c-3.96293,-1.67994 -5.71714,-5.626 -5.88753,-6.88533c-0.23362,-1.72668 1.6985,2.84546 8.52569,5.50784z" fill="#bb1c79" stroke="none" stroke-width="0" stroke-linecap="butt"/><g><g fill="none" stroke="none" stroke-width="1" stroke-linecap="butt" font-family="sans-serif" font-weight="normal" font-size="12" text-anchor="start"/><g stroke-linecap="butt"><g data-paper-data="{&quot;index&quot;:null}"><path d="M275.46711,25.93292c3.613,-1.61723 11.7145,1.19858 14.77449,2.71493c3.91423,1.93966 9.33247,3.19109 9.68337,8.64799c0.3134,4.87388 -4.06551,13.74041 -6.81385,19.28659c-2.39632,4.83576 -3.38548,10.10602 -6.86909,12.8315c-4.98503,3.90016 -12.73424,3.96688 -17.09626,1.80532c-2.86076,-1.41763 -9.1095,-4.63261 -10.08774,-8.1321c-1.55569,-5.56528 3.6417,-12.58507 7.21822,-19.80248c3.41987,-6.9013 4.05447,-15.05264 9.19086,-17.35175z" data-paper-data="{&quot;index&quot;:null}" fill="#ff48b3" stroke="#000000" stroke-width="0"/><path d="M258.41353,55.3754c2.15338,-4.34551 13.48266,-32.41717 20.93864,-28.72243c1.31003,0.64918 22.77205,6.84069 21.23372,9.70178c-1.2545,2.3332 -16.20535,-6.71305 -21.39956,-4.24567c-10.34843,4.91574 -13.51447,21.52176 -13.30242,26.78956c0.29385,7.29931 20.38193,8.13774 19.53016,9.8566c-2.15338,4.34551 -9.94331,4.87307 -17.3993,1.17833c-7.45599,-3.69474 -11.75461,-10.21265 -9.60122,-14.55818z" data-paper-data="{&quot;index&quot;:null}" fill="#bb1c79" stroke="none" stroke-width="0"/><path d="M275.21553,26.00509c3.61299,-1.61721 11.71449,1.19857 14.7745,2.71492c3.91421,1.93966 9.33247,3.19109 9.68336,8.648c0.31342,4.8739 -4.0655,13.74041 -6.81384,19.28657c-2.39632,4.83576 -3.38548,10.10602 -6.86909,12.83149c-4.98503,3.90016 -12.73424,3.96688 -17.09626,1.80532c-2.86076,-1.41763 -9.1095,-4.63261 -10.08774,-8.1321c-1.5557,-5.56528 3.64169,-12.58505 7.21821,-19.80246c3.41987,-6.90131 4.05449,-15.05264 9.19087,-17.35175z" data-paper-data="{&quot;index&quot;:null}" fill="none" stroke="#000000" stroke-width="3.5"/><path d="M282.23984,32.93308c4.52943,-1.99847 11.26127,4.10948 13.91017,5.42213c4.66571,2.31206 0.61017,8.34501 -3.74193,17.12753c-1.86523,3.76404 -2.61443,8.52599 -5.12536,10.6741c-3.34773,2.864 -8.53676,2.36285 -11.20282,1.04172c-1.9154,-0.94916 -8.54336,-2.83958 -8.95833,-5.56405c-0.59584,-3.91202 5.82503,-9.34739 8.39046,-14.52443c1.88123,-3.79635 3.27919,-12.65539 6.72779,-14.17696z" data-paper-data="{&quot;index&quot;:null}" fill="none" stroke="#000000" stroke-width="3.5"/><path d="M275.43234,46.87369c1.88126,-3.79636 3.27921,-12.65539 6.72779,-14.17696c4.52943,-1.99847 11.26127,4.10947 13.91018,5.42212c4.6657,2.31206 0.61015,8.345 -3.74193,17.12751c-1.86524,3.76404 -2.61443,8.526 -5.12536,10.67411c-3.34773,2.864 -8.53676,2.36285 -11.20282,1.04172c-1.91539,-0.94915 -8.54335,-2.83958 -8.95832,-5.56406c-0.59584,-3.91202 5.82501,-9.34739 8.39045,-14.52443z" data-paper-data="{&quot;index&quot;:null}" fill="#ff94d2" stroke="#000000" stroke-width="0"/><path d="M285.41826,66.07919c-1.15399,2.32875 -8.43072,1.67447 -12.689,-0.43569c-4.25828,-2.11016 -6.77482,-5.70859 -5.62082,-8.03734c0.53535,-1.08031 5.25722,-4.68655 8.13355,-10.21519c3.32394,-6.38899 4.95215,-14.66222 7.235,-13.53098c2.37503,1.17692 -6.95595,13.62318 -6.73649,21.90122c0.17402,6.564 10.18811,9.28807 9.67776,10.31799z" fill="#ea88c1" stroke="none" stroke-width="0"/><path d="M275.33778,46.70492c1.88126,-3.79636 3.27922,-12.65541 6.7278,-14.17698c4.52943,-1.99847 11.26127,4.10948 13.91017,5.42214c4.6657,2.31206 0.61016,8.34499 -3.74194,17.1275c-1.86524,3.76404 -2.61442,8.52598 -5.12535,10.6741c-3.34773,2.864 -8.53677,2.36285 -11.20282,1.04172c-1.91539,-0.94915 -8.54335,-2.83957 -8.95831,-5.56405c-0.59584,-3.91202 5.82502,-9.34739 8.39045,-14.52444z" data-paper-data="{&quot;index&quot;:null}" fill="none" stroke="#000000" stroke-width="3.5"/></g><g data-paper-data="{&quot;index&quot;:null}"><path d="M296.49126,47.06773c-5.40669,3.25683 -13.19827,-6.53655 -16.6467,-12.26129c-3.44842,-5.72473 -1.86092,-13.00573 3.54577,-16.26256c2.53102,-1.52462 16.57218,-5.87081 24.43582,-3.42976c8.93434,2.77342 11.72914,12.65517 13.56325,15.69997c3.44842,5.72473 -19.49146,12.9968 -24.89816,16.25365z" fill="#ff48b3" stroke="#000000" stroke-width="0"/><path d="M297.60177,46.80376c-5.40669,3.25683 -13.0511,0.48274 -17.07424,-6.19612c-3.72177,-6.17852 -3.04075,-13.53426 1.36253,-17.18003c0.35657,-0.29524 -2.95342,-1.48205 -2.54838,-1.72604c5.40669,-3.25683 18.4714,-12.85166 22.49454,-6.1728c2.0692,3.43511 -14.80275,3.16882 -15.78281,9.90538c-0.41094,2.8246 -0.15165,7.59998 2.80181,11.55511c3.69802,4.95219 10.20649,8.9351 8.74656,9.81451z" fill="#bb1c79" stroke="none" stroke-width="0"/><path d="M296.04179,47.15211c-5.40669,3.25683 -13.19827,-6.53657 -16.6467,-12.26131c-3.44842,-5.72473 -1.86092,-13.00573 3.54577,-16.26256c2.53103,-1.52463 16.57219,-5.87082 24.43582,-3.42976c8.93432,2.77343 11.72913,12.65517 13.56325,15.69997c3.44842,5.72473 -19.49146,12.99681 -24.89816,16.25365z" fill="none" stroke="#000000" stroke-width="3.5"/><path d="M294.67831,43.04164c-4.45257,2.6821 -10.36061,1.0406 -13.19598,-3.6664c-2.83536,-4.70701 -7.29118,-11.93219 -2.83862,-14.61428c0.83037,-0.5002 8.64923,0.73158 13.37313,0.05728c7.24548,-1.03424 12.64128,-3.87992 16.81411,-3.45173c7.69461,0.78957 6.88124,6.56307 8.37678,9.04583c2.83536,4.70701 -18.07685,9.9472 -22.52942,12.62931z" fill="#ff94d2" stroke="#000000" stroke-width="0"/><path d="M290.95525,43.58714c-2.09906,1.26442 -6.31663,-1.8873 -9.42022,-7.03956c-3.10358,-5.15226 -3.91788,-10.35401 -1.81882,-11.61843c1.099,-0.66202 1.74973,12.79909 10.76108,13.80143c8.2001,0.91211 24.80209,-10.78657 26.28074,-8.33187c3.10358,5.15226 -23.70373,11.92399 -25.80279,13.18842z" fill="#ea88c1" stroke="none" stroke-width="0"/><path d="M294.98904,42.72694c-4.45257,2.6821 -10.36061,1.0406 -13.19597,-3.66642c-2.83536,-4.70699 -7.29119,-11.93217 -2.83861,-14.61428c0.83037,-0.5002 8.64923,0.73157 13.37312,0.05727c7.24548,-1.03424 12.64129,-3.87991 16.81412,-3.45172c7.69461,0.78957 6.88123,6.56306 8.37677,9.04583c2.83536,4.70701 -18.07685,9.9472 -22.52942,12.62931z" fill="none" stroke="#000000" stroke-width="3.5"/></g></g><g stroke-linecap="butt"><g><path d="M225.55807,53.90826c3.75419,7.12662 9.12386,14.01551 7.70648,19.61761c-0.89125,3.52264 -7.05846,6.89142 -9.88322,8.37946c-4.30714,2.26893 -12.05563,2.3942 -17.13575,-1.38131c-3.55003,-2.63837 -4.66944,-7.8825 -7.18481,-12.65742c-2.88487,-5.47638 -7.48203,-14.23173 -7.28946,-19.11189c0.21563,-5.46392 5.60121,-6.84919 9.4662,-8.88521c3.02151,-1.59168 11.05077,-4.60727 14.70272,-3.08003c5.19175,2.17117 6.02806,10.30431 9.61782,17.11879z" data-paper-data="{&quot;index&quot;:null}" fill="#ff48b3" stroke="#000000" stroke-width="0"/><path d="M233.71785,65.80054c2.26035,4.29084 -1.87551,10.91323 -9.23769,14.79151c-7.36218,3.87828 -15.16279,3.54383 -17.42314,-0.74702c-0.89408,-1.69724 19.16708,-3.03297 19.28003,-10.33731c0.08153,-5.27143 -3.49486,-21.79393 -13.96187,-26.45185c-5.25374,-2.33796 -19.97595,7.07581 -21.28785,4.77438c-1.60872,-2.82213 19.69336,-9.5433 20.9869,-10.22472c7.36218,-3.87828 19.38328,23.90414 21.64363,28.195z" data-paper-data="{&quot;index&quot;:null}" fill="#bb1c79" stroke="none" stroke-width="0"/><path d="M225.81138,53.97416c3.75419,7.12662 9.12386,14.01551 7.70647,19.61761c-0.89125,3.52264 -7.05846,6.89142 -9.88322,8.37947c-4.30714,2.26893 -12.05562,2.39419 -17.13574,-1.38132c-3.55003,-2.63837 -4.66944,-7.8825 -7.1848,-12.65741c-2.88487,-5.47639 -7.48204,-14.23173 -7.28946,-19.11189c0.21562,-5.46392 5.60122,-6.84919 9.4662,-8.88521c3.02152,-1.59169 11.05076,-4.60726 14.70271,-3.08004c5.19176,2.17118 6.02806,10.30428 9.61783,17.11877z" data-paper-data="{&quot;index&quot;:null}" fill="none" stroke="#000000" stroke-width="3.5"/><path d="M216.41985,57.96123c2.69287,5.11191 9.2464,10.38657 8.74763,14.31216c-0.34736,2.73391 -6.92646,4.78791 -8.81776,5.78422c-2.63251,1.38677 -7.80752,2.01629 -11.22516,-0.76392c-2.56336,-2.08526 -3.43029,-6.82718 -5.38819,-10.54387c-4.56829,-8.67203 -8.77201,-14.60268 -4.165,-17.02958c2.61558,-1.37784 9.19406,-7.65067 13.7716,-5.765c3.48522,1.43571 5.10217,10.25739 7.07686,14.00597z" data-paper-data="{&quot;index&quot;:null}" fill="none" stroke="#000000" stroke-width="3.5"/><path d="M216.4937,57.72298c2.69287,5.11192 9.2464,10.38657 8.74763,14.31216c-0.34736,2.73391 -6.92646,4.78792 -8.81775,5.78422c-2.63251,1.38677 -7.80753,2.01628 -11.22516,-0.76392c-2.56336,-2.08526 -3.43029,-6.82718 -5.38819,-10.54387c-4.56829,-8.67203 -8.77202,-14.60268 -4.16501,-17.02958c2.61558,-1.37784 9.19407,-7.65067 13.77161,-5.765c3.48522,1.4357 5.10217,10.25739 7.07688,14.00599z" data-paper-data="{&quot;index&quot;:null}" fill="#ff94d2" stroke="#000000" stroke-width="0"/><path d="M216.40576,66.61539c0.01436,-8.28095 -9.62203,-20.49226 -7.27688,-21.72765c2.25413,-1.18744 4.08678,7.04293 7.56793,13.34762c3.01239,5.45571 7.82214,8.94388 8.38407,10.0106c1.21132,2.29945 -1.21531,5.95912 -5.42002,8.1741c-4.20472,2.21498 -11.46301,3.04929 -12.67431,0.74984c-0.53571,-1.01695 9.40785,-3.98821 9.41923,-10.55452z" fill="#ea88c1" stroke="none" stroke-width="0"/><path d="M216.58402,57.55191c2.69287,5.11192 9.24639,10.38658 8.74762,14.31216c-0.34736,2.73391 -6.92646,4.78791 -8.81776,5.78422c-2.63251,1.38677 -7.80753,2.01628 -11.22516,-0.76392c-2.56336,-2.08526 -3.43028,-6.82718 -5.38818,-10.54387c-4.56829,-8.67203 -8.77201,-14.60267 -4.16501,-17.02957c2.61558,-1.37784 9.19406,-7.65067 13.7716,-5.765c3.48522,1.4357 5.10217,10.2574 7.07688,14.006z" data-paper-data="{&quot;index&quot;:null}" fill="none" stroke="#000000" stroke-width="3.5"/></g><g><path d="M170.29685,18.79798c3.07486,-1.78328 10.28769,-9.09319 19.4522,-7.21545c8.06623,1.6527 18.27223,12.23009 19.75459,14.78609c3.16657,5.46004 1.04697,12.60431 -4.73425,15.95715c-5.78122,3.35285 -17.32914,8.17626 -20.49571,2.7162c-3.16658,-5.46005 -19.75805,-22.89116 -13.97685,-26.24399z" fill="#ff48b3" stroke="#000000" stroke-width="0"/><path d="M183.42803,44.27532c-0.85503,-1.47432 6.76731,-1.82581 12.39473,-4.38149c4.49442,-2.04113 7.02395,-6.09981 8.02575,-8.77256c2.38927,-6.37442 -12.52061,-14.27563 -9.0516,-16.28749c6.74476,-3.91164 13.56477,10.79328 16.73134,16.25333c0.23722,0.40903 -3.23487,-0.14704 -3.06482,0.28352c2.09994,5.31702 -0.84984,12.08972 -7.08934,15.70832c-6.74477,3.91165 -14.77949,2.65641 -17.94606,-2.80363z" fill="#bb1c79" stroke="none" stroke-width="0"/><path d="M184.62681,45.33262c-3.16657,-5.46004 -19.75805,-22.89116 -13.97685,-26.24399c3.07486,-1.78327 10.28769,-9.09318 19.4522,-7.21545c8.06623,1.6527 18.27223,12.23008 19.75459,14.78609c3.16657,5.46004 1.04697,12.60431 -4.73425,15.95715c-5.78124,3.35284 -17.32915,8.17626 -20.49572,2.71621z" fill="none" stroke="#000000" stroke-width="3.5"/><path d="M187.80313,42.38883c-2.60776,-4.49651 -18.40246,-19.16988 -13.64901,-21.92667c2.50725,-1.45409 4.57826,-6.90441 11.70017,-3.88632c3.86226,1.63673 7.21751,6.7313 13.06663,11.13066c3.81349,2.8683 11.25746,5.55884 11.7438,6.39742c2.60776,4.4965 -4.77948,8.67818 -9.53293,11.43496c-4.75345,2.75679 -10.7209,1.34644 -13.32867,-3.15006z" fill="#ff94d2" stroke="#000000" stroke-width="0"/><path d="M174.55466,20.66701c2.47893,-1.43767 11.38363,16.81589 19.00747,19.97033c8.3781,3.46651 15.43821,-8.01302 16.08188,-6.90316c1.22936,2.11978 -1.99197,6.28442 -7.19508,9.30198c-5.20311,3.01756 -10.41766,3.74535 -11.64703,1.62557c-1.22936,-2.11979 -21.45035,-20.97714 -16.24723,-23.9947z" fill="#ea88c1" stroke="none" stroke-width="0"/><path d="M187.68263,41.96329c-2.60777,-4.49651 -18.40246,-19.16988 -13.64901,-21.92667c2.50725,-1.45409 4.57825,-6.9044 11.70016,-3.88632c3.86226,1.63673 7.21752,6.7313 13.06664,11.13066c3.81349,2.8683 11.25746,5.55886 11.74379,6.39743c2.60776,4.49651 -4.77946,8.67818 -9.53292,11.43496c-4.75346,2.75677 -10.72091,1.34644 -13.32868,-3.15006z" fill="none" stroke="#000000" stroke-width="3.5"/></g></g><g><g><g><g><path d="M226.83193,144.20603c0,0 -5.67913,0.51308 -6.75366,-2.83279c-1.11396,-3.4686 -0.91519,-12.15039 -0.91519,-12.15039l46.87608,-0.56102c0,0 15.53802,-8.43838 15.90846,-5.7004c0.14037,1.03745 3.24919,7.48767 -0.69296,11.69862c-4.67489,4.99365 -16.54175,7.76778 -16.54175,7.76778c0,0 -4.97637,3.39124 -10.68004,4.30372c-6.5612,1.0497 -14.05164,-0.34904 -15.48474,-0.15515c-0.28415,0.03845 -11.71618,-2.3704 -11.71618,-2.3704z" fill="#ffffff" stroke="#000000" stroke-width="0" stroke-linecap="butt"/><path d="M253.63615,142.84372c17.65893,-2.38922 29.67397,-15.81269 30.21698,-11.7993c0.54301,4.01339 -13.74278,11.68449 -31.40169,14.0737c-17.65893,2.38922 -32.00393,-1.4082 -32.54693,-5.42159c-0.54301,-4.01339 16.07272,5.53642 33.73165,3.1472z" fill="#d6d6d6" stroke="none" stroke-width="0" stroke-linecap="butt"/><path d="M227.06812,143.86447c0,0 -5.67913,0.51308 -6.75366,-2.83279c-1.11396,-3.4686 -0.91519,-12.15039 -0.91519,-12.15039l46.87608,-0.56102c0,0 15.53802,-8.43838 15.90846,-5.7004c0.14037,1.03745 3.24919,7.48767 -0.69296,11.69862c-4.67489,4.99365 -16.54175,7.76778 -16.54175,7.76778c0,0 -4.97637,3.39124 -10.68004,4.30372c-6.5612,1.0497 -14.05164,-0.34904 -15.48474,-0.15515c-0.28415,0.03845 -11.71618,-2.3704 -11.71618,-2.3704z" fill="none" stroke="#000000" stroke-width="3.5" stroke-linecap="butt"/><path d="M211.6786,104.89774c-2.06008,-15.22623 4.13292,-29.50139 14.9071,-37.5498c4.52306,-3.37877 9.85348,-5.66014 15.71959,-6.45381c19.83955,-2.68425 38.29381,12.66481 41.2187,34.2831c1.23512,9.12888 8.35528,16.21372 4.44845,23.52188c-5.34502,9.99842 -23.61335,18.93097 -35.07513,20.48173c-12.45728,1.68544 -33.28714,-2.53223 -41.15062,-12.15414c-4.65996,-5.70202 1.02027,-14.08481 -0.06809,-22.12896z" fill="#ff48b3" stroke="#000000" stroke-width="0" stroke-linecap="butt"/><path d="M245.43259,87.58879c10.33662,-1.39852 19.47405,3.07003 20.40907,9.98079c0.93502,6.91077 -6.68649,13.64676 -17.0231,15.04528c-10.33662,1.39852 -19.47405,-3.07003 -20.40907,-9.98079c-0.93502,-6.91077 6.68649,-13.64676 17.0231,-15.04528z" fill="#bb1c79" stroke="none" stroke-width="0" stroke-linecap="butt"/><path d="M228.49955,85.48577c7.14702,-0.96698 14.0616,6.53285 15.44413,16.75132c1.38254,10.21848 -3.29051,19.28608 -10.43752,20.25305c-5.9311,0.80247 -13.9619,0.00035 -16.54401,-7.57394c-0.52934,-1.55278 1.33508,-7.43893 1.09987,-9.17739c-1.38254,-10.21848 3.29051,-19.28608 10.43752,-20.25305z" fill="#000000" stroke="#000000" stroke-width="3.5" stroke-linecap="butt"/><path d="M238.13968,131.49962c16.34134,1.17971 33.90045,-2.96588 41.64063,-12.30448c4.07583,-4.91753 -1.00287,-26.76828 -9.4182,-41.42525c-5.49459,-9.56993 -16.263,-14.5871 -13.52178,-14.95799c22.16558,-2.99895 32.28905,48.46133 32.73333,51.74511c0.4443,3.28379 -13.85907,20.37547 -36.02464,23.37442c-22.16559,2.99895 -43.79972,-9.23046 -44.24402,-12.51425c-0.14539,-1.07453 13.96853,5.00921 28.83467,6.08242z" fill="#bb1c79" stroke="none" stroke-width="0" stroke-linecap="butt"/><path d="M275.73708,96.88231c0.23521,1.73846 3.59674,6.91754 3.49905,8.55515c-0.47655,7.98811 -8.00547,10.89542 -13.93657,11.69789c-7.14703,0.96698 -14.0616,-6.53284 -15.44414,-16.75131c-1.38254,-10.21848 3.29051,-19.28608 10.43752,-20.25305c7.14702,-0.96698 14.06161,6.53285 15.44414,16.75132z" data-paper-data="{&quot;index&quot;:null}" fill="#000000" stroke="#000000" stroke-width="3.5" stroke-linecap="butt"/><path d="M242.30529,60.89412c19.83955,-2.68425 38.29381,12.66481 41.2187,34.2831c1.23512,9.12888 8.35528,16.21372 4.44845,23.52188c-5.34502,9.99843 -23.61335,18.93098 -35.07513,20.48174c-12.45728,1.68544 -33.28712,-2.53225 -41.15062,-12.15414c-4.65997,-5.70202 1.02027,-14.08481 -0.06809,-22.12896c-2.9249,-21.61829 10.78714,-41.31938 30.62669,-44.00361z" fill="none" stroke="#000000" stroke-width="3.5" stroke-linecap="butt"/><path d="M219.33891,115.80623c9.3829,-6.54977 27.57152,-7.24993 37.95045,-8.65417c17.33111,-2.34486 26.1319,1.71008 27.2673,10.10198c1.13541,8.3919 -15.16296,18.53367 -32.49408,20.87852c-17.3311,2.34486 -36.30976,-2.35125 -37.44517,-10.74317c-0.45545,-3.36633 -1.56355,-7.19589 4.72149,-11.58318z" fill="#ff94d2" stroke="#000000" stroke-width="0" stroke-linecap="butt"/><path d="M215.99176,128.88882c-0.39374,-2.91014 15.84447,6.86623 34.96833,4.27882c5.9412,-0.80383 29.86025,-8.43001 30.68398,-15.4261c0.2196,-1.86508 -3.94035,-4.56852 -9.49912,-6.20676c-5.45435,-1.60747 -12.3159,-2.15685 -11.45098,-3.24617c2.53881,-3.19743 15.69747,3.06428 17.56104,2.00362c2.2399,-1.27485 6.87748,8.3924 6.99036,9.22674c0.39374,2.91015 -12.80577,15.59307 -31.92964,18.1805c-19.12385,2.58742 -36.93024,-5.90048 -37.32399,-8.81064z" fill="#ea88c1" stroke="none" stroke-width="0" stroke-linecap="butt"/><path d="M214.99243,127.67503c-0.45545,-3.36633 -1.56354,-7.1959 4.72148,-11.58319c0.88395,-0.61703 1.84604,-1.18217 2.87239,-1.70086c9.86822,-4.98709 25.67692,-5.68137 35.07805,-6.95332c17.33111,-2.34486 26.1319,1.71008 27.2673,10.10198c1.13541,8.3919 -15.16296,18.53367 -32.49408,20.87852c-17.33111,2.34486 -36.30976,-2.35125 -37.44517,-10.74317z" fill="none" stroke="#000000" stroke-width="3.5" stroke-linecap="butt"/><path d="M248.92724,125.12202c7.97396,-1.07886 14.84263,4.25612 15.29816,7.6229c0.45551,3.36679 -5.67462,3.49043 -13.64858,4.56929c-7.97396,1.07886 -14.51799,1.36311 -14.97351,-2.00366c-0.45552,-3.36678 5.34998,-9.10967 13.32393,-10.18853z" fill="#ff0000" stroke="#000000" stroke-width="0" stroke-linecap="butt"/><path d="M236.84988,136.73964c-0.27171,-2.00825 -2.92943,-7.66276 4.27667,-8.63772c3.24371,-0.43887 -0.22897,5.82365 3.97215,6.78188c5.13193,1.17053 17.69734,-2.77909 17.84674,-1.67481c0.27172,2.00826 -5.34972,4.42664 -12.55581,5.40161c-7.2061,0.97497 -13.26804,0.13733 -13.53976,-1.87093z" fill="#d00000" stroke="none" stroke-width="0" stroke-linecap="butt"/><path d="M248.94515,125.51937c7.97396,-1.07886 14.84263,4.25612 15.29816,7.6229c0.45551,3.36679 -5.67462,3.49043 -13.64858,4.56929c-7.97396,1.07886 -14.51799,1.36311 -14.97351,-2.00366c-0.45552,-3.36678 5.34998,-9.10967 13.32393,-10.18853z" fill="none" stroke="#000000" stroke-width="3.5" stroke-linecap="butt"/><path d="M232.87986,113.57145c-0.5674,-4.19372 6.0114,-8.54572 14.69415,-9.72047c8.68275,-1.17476 16.18148,1.2726 16.74888,5.46631c0.30085,2.22362 -4.50642,2.5151 -7.47213,4.3305c-2.62754,1.6084 -3.14311,4.8381 -7.22201,5.38996c-2.91917,0.39496 -6.16755,-3.04187 -8.60064,-3.39445c-4.80388,-0.69616 -7.77161,0.71193 -8.14824,-2.07183z" fill="#222222" stroke="#000000" stroke-width="0" stroke-linecap="butt"/><path d="M234.03647,112.72571c-0.23175,-1.71292 7.79125,-0.50961 14.93827,-1.47659c7.14703,-0.96698 14.93173,-4.74467 15.16349,-3.03175c0.23175,1.71292 -6.66258,8.85164 -13.80961,9.81862c-2.91788,0.39479 -4.32087,-1.24845 -7.11659,-2.12715c-4.05209,-1.27358 -9.0384,-2.16953 -9.17555,-3.18313z" fill="#151515" stroke="none" stroke-width="0" stroke-linecap="butt"/><path d="M233.02486,113.29819c-0.5674,-4.19372 6.0114,-8.54572 14.69415,-9.72047c8.68275,-1.17476 16.18148,1.2726 16.74888,5.46631c0.30085,2.22362 -4.50642,2.5151 -7.47213,4.3305c-2.62754,1.6084 -3.14311,4.8381 -7.22201,5.38996c-2.91917,0.39496 -6.16755,-3.04187 -8.60064,-3.39445c-4.80388,-0.69616 -7.77161,0.71193 -8.14824,-2.07183z" fill="none" stroke="#000000" stroke-width="3.5" stroke-linecap="butt"/><path d="M230.56975,139.08611l0.69403,5.12963" fill="none" stroke="#000000" stroke-width="3.5" stroke-linecap="round"/><path d="M245.14718,140.65835l0.81796,6.04563" fill="none" stroke="#000000" stroke-width="3.5" stroke-linecap="round"/><path d="M262.18058,142.45797l-1.46131,-3.90649" fill="none" stroke="#000000" stroke-width="3.5" stroke-linecap="round"/><path d="M272.97323,132.60279l1.24362,5.05527" fill="none" stroke="#000000" stroke-width="3.5" stroke-linecap="round"/><path d="M229.526,97.62874c3.19645,-0.43247 6.13201,1.76189 6.55675,4.90127c0.42475,3.13936 -1.82216,6.03491 -5.01861,6.46738c-3.19645,0.43247 -6.13201,-1.76189 -6.55675,-4.90127c-0.42475,-3.13936 1.82216,-6.03491 5.01861,-6.46738z" fill="#652c45" stroke="none" stroke-width="0" stroke-linecap="butt"/><path d="M230.03362,100.37732c1.61886,-0.21902 3.10877,0.91576 3.3278,2.53463c0.21902,1.61886 -0.91576,3.10877 -2.53463,3.3278c-1.61886,0.21902 -3.10877,-0.91576 -3.3278,-2.53463c-0.21902,-1.61886 0.91576,-3.10877 2.53463,-3.3278z" fill="#ff9cc7" stroke="none" stroke-width="0" stroke-linecap="butt"/><path d="M261.86397,92.98734c3.19645,-0.43247 6.13201,1.76189 6.55675,4.90127c0.42475,3.13936 -1.82216,6.03491 -5.01861,6.46738c-3.19644,0.43247 -6.132,-1.76189 -6.55674,-4.90126c-0.42475,-3.13935 1.82216,-6.03491 5.0186,-6.46738z" fill="#652c45" stroke="none" stroke-width="0" stroke-linecap="butt"/><path d="M261.95225,95.65647c1.61887,-0.21902 3.11688,0.97565 3.3459,2.66838c0.22902,1.69273 -0.89767,3.24252 -2.51653,3.46155c-1.61886,0.21902 -3.11688,-0.97565 -3.3459,-2.66838c-0.22902,-1.69274 0.89767,-3.24252 2.51653,-3.46155z" fill="#ff9cc7" stroke="none" stroke-width="0" stroke-linecap="butt"/></g><path d="M272.26513,73.12234l-3.34557,10.68989" fill="none" stroke="#000000" stroke-width="3.5" stroke-linecap="round"/></g><path d="M236.94302,77.68353l-2.56549,8.40621" fill="none" stroke="#000000" stroke-width="3.5" stroke-linecap="round"/><path d="M229.98381,85.81297l-3.69543,-7.99475" fill="none" stroke="#000000" stroke-width="3.5" stroke-linecap="round"/><path d="M226.52116,87.58833l-6.24459,-5.90734" fill="none" stroke="#000000" stroke-width="3.5" stroke-linecap="round"/></g><path d="M257.96419,83.33416l-4.84043,-10.01796" fill="none" stroke="#000000" stroke-width="3.5" stroke-linecap="round"/><path d="M261.70992,80.43141l1.93511,-9.84562" fill="none" stroke="#000000" stroke-width="3.5" stroke-linecap="round"/></g><g fill="none" stroke="none" stroke-width="1" stroke-linecap="butt" font-family="sans-serif" font-weight="normal" font-size="12" text-anchor="start"/></g><path d="M287.67187,140.19428c0.31637,2.33833 -4.64837,6.0456 -7.38827,8.32158c-5.34031,4.43609 -12.13899,7.03521 -24.33497,8.6853c-18.45327,2.49668 -34.16895,-1.06963 -35.10195,-7.96558c-0.32072,-2.37045 -7.38743,-11.74398 -4.57333,-14.04714c3.03087,-2.48057 2.27838,7.44456 9.23036,12.82139c5.37101,4.15405 23.50144,5.08523 28.77963,4.3711c8.6368,-1.16855 21.22773,-3.38818 27.08753,-11.09961c4.03324,-5.30769 2.32025,-17.01325 4.26535,-17.43331c1.26689,-0.2736 1.83989,14.89937 2.03566,16.34629z" fill="none" stroke="#000000" stroke-width="3.5" stroke-linecap="butt"/></g></g></g></svg>