<svg version="1.1" xmlns="http://www.w3.org/2000/svg" xmlns:xlink="http://www.w3.org/1999/xlink" width="147.37019" height="134.30463" viewBox="0,0,147.37019,134.30463"><defs><radialGradient cx="217.12981" cy="167.19712" r="49.5" gradientUnits="userSpaceOnUse" id="color-1"><stop offset="0" stop-color="#000000" stop-opacity="0"/><stop offset="1" stop-color="#000000"/></radialGradient></defs><g transform="translate(-165.87981,-101.94537)"><g data-paper-data="{&quot;isPaintingLayer&quot;:true}" fill-rule="nonzero" stroke-linejoin="miter" stroke-miterlimit="10" stroke-dasharray="" stroke-dashoffset="0" style="mix-blend-mode: normal"><path d="M168.5,234.5v-109h143v109z" fill="#191919" stroke="#000000" stroke-width="3.5" stroke-linecap="butt"/><path d="M168.5,210.5v-87h99v87z" fill="#000000" stroke="#000000" stroke-width="3.5" stroke-linecap="butt"/><path d="M266.5,208.5l43,26" fill="none" stroke="#000000" stroke-width="3.5" stroke-linecap="round"/><path d="M266.5,128.5h42" fill="none" stroke="#000000" stroke-width="3.5" stroke-linecap="round"/><g><path d="M194.02648,128.01152c8.95189,0 16.20883,6.58963 16.20883,14.71836c0,8.12872 -7.25694,14.71836 -16.20883,14.71836c-8.95188,0 -16.20882,-6.58963 -16.20882,-14.71836c0,-8.12873 7.25693,-14.71836 16.20882,-14.71836z" fill="#840000" stroke="#000000" stroke-width="0" stroke-linecap="butt"/><path d="M183.05789,139.20406c-1.72515,6.69586 2.14777,14.03393 6.06626,14.03393c7.9679,0 20.5851,-12.57113 20.5851,-6.15794c0,6.41319 -6.45926,11.61211 -14.42716,11.61211c-5.39407,0 -14.51719,-4.69873 -17.46134,-11.77007c-0.7886,-1.89406 1.22875,-11.13306 5.46566,-15.22729c3.31088,-3.19939 9.00468,-1.47606 9.00468,-2.38479c0,-3.25928 -7.45041,2.97447 -9.2332,9.89405z" fill="#430000" stroke="none" stroke-width="0" stroke-linecap="butt"/><path d="M194.12878,128.28975c8.95189,0 16.20883,6.58964 16.20883,14.71836c0,8.12873 -7.25694,14.71836 -16.20883,14.71836c-8.95189,0 -16.20883,-6.58964 -16.20883,-14.71836c0,-8.12873 7.25694,-14.71836 16.20883,-14.71836z" fill="none" stroke="#000000" stroke-width="3" stroke-linecap="butt"/><path d="M192.18905,190.70331c3.82664,-3.66538 19.09713,-2.85111 29.92576,-2.85111c9.54311,0 18.27607,-2.59175 22.73926,0.39387c2.20086,1.47225 3.06074,7.78216 3.06074,9.60613c0,5.52285 -11.55105,10 -25.8,10c-14.24895,0 -25.8,-4.47715 -25.8,-10c0,-1.3257 -5.33444,-5.99115 -4.12576,-7.14889z" fill="#000000" stroke="none" stroke-width="NaN" stroke-linecap="butt"/><g stroke-linecap="butt"><path d="M186.67756,193.37359c0,-3.38571 2.47705,-6.13037 5.53265,-6.13037c0.76574,0 -1.8928,2.4135 -0.86452,4.08943c1.74457,2.84336 7.51592,6.01779 10.78796,9.50832c2.49515,2.66177 9.96123,3.89662 9.96123,4.99435c0,0.70363 27.07854,-2.09431 26.35961,-0.56291c-0.06302,0.13424 5.78255,-2.97011 8.26275,-7.10481c1.54442,-2.57467 -0.16131,-6.96403 0.5322,-6.8958c2.04505,0.20121 5.85991,-1.78936 5.93901,2.21565c0.03158,1.59908 -3.75761,5.36524 -4.60721,7.94328c-1.17003,3.55036 0.38653,5.83849 -0.62416,6.08675c-8.91724,2.19035 -40.15072,5.40395 -41.61668,4.77673c-4.83403,-2.06828 -12.49505,-12.79026 -14.1302,-12.79026c-3.0556,0 -5.53265,-2.74466 -5.53265,-6.13037z" fill="#840000" stroke="#000000" stroke-width="0"/><path d="M187.80909,189.65246c0,-0.68279 3.64753,6.49376 10.44855,11.52202c5.57644,4.12288 12.92415,8.22798 15.73895,8.22798c6.24772,0 34.0625,-3.86764 34.0625,-2.625c0,1.24264 -26.56478,5.125 -32.8125,5.125c-1.67517,0 -4.66636,0.91526 -9.17003,-1.4019c-3.65339,-1.87968 -6.94465,-5.68041 -10.60563,-8.80877c-1.95056,-1.66678 -4.81171,-2.87414 -6.10386,-4.09329c-4.44322,-4.19221 -1.55798,-7.45085 -1.55798,-7.94603z" fill="#430000" stroke="none" stroke-width="0"/><path d="M186.80254,193.12359c0,-3.38571 2.47705,-6.13037 5.53265,-6.13037c0.76574,0 -1.8928,2.4135 -0.86452,4.08943c1.74457,2.84336 7.51592,6.01779 10.78796,9.50832c2.49516,2.66178 9.96124,3.89663 9.96124,4.99435c0,0.70362 27.07854,-2.09432 26.35961,-0.56292c-0.06302,0.13425 5.78255,-2.97011 8.26275,-7.1048c1.54442,-2.57466 -0.16131,-6.96402 0.5322,-6.89579c2.04505,0.20121 5.85992,-1.78936 5.93901,2.21565c0.03158,1.59908 -3.75761,5.36524 -4.60721,7.94328c-1.17003,3.55036 0.38653,5.83849 -0.62416,6.08675c-8.91724,2.19034 -40.15072,5.40395 -41.61668,4.77672c-4.83402,-2.06829 -12.49504,-12.79026 -14.13019,-12.79026c-3.0556,0 -5.53265,-2.74466 -5.53265,-6.13037z" fill="none" stroke="#000000" stroke-width="2.5"/></g><path d="M193.56118,195.30106v-5.625h53.75v5.625z" fill="#ffffff" stroke="#000000" stroke-width="0" stroke-linecap="butt"/><path d="M193.56117,195.30105v-5.625h53.75v5.625z" fill="none" stroke="#000000" stroke-width="2" stroke-linecap="butt"/><path d="M221.54939,138.10057c17.94926,0 32.5,13.65532 32.5,30.5c0,8.56042 1.67749,17.04559 -4.43817,20.61623c-5.91837,3.45545 -19.48434,2.13377 -28.31183,2.13377c-8.3029,0 -24.0751,2.2364 -29.76224,-0.78907c-6.60736,-3.51502 -2.48776,-12.90819 -2.48776,-21.96093c0,-16.84468 14.55075,-30.5 32.5,-30.5z" fill="#840000" stroke="#000000" stroke-width="0" stroke-linecap="butt"/><path d="M221.19803,164.0091c9.25077,0 16.75,3.35787 16.75,7.5c0,4.14213 -7.49923,7.5 -16.75,7.5c-9.25077,0 -32.125,4.14213 -32.125,0c0,-1.3052 -1.91276,-16.33181 3.74239,-27.06986c2.61418,-4.96383 12.93945,-9.50268 14.88122,-10.46404c2.93281,-1.45202 -13.24068,12.13979 -15.81876,23.37741c-1.43527,6.25618 9.79645,11.1789 10.61034,13.81817c0.99896,3.23945 6.20708,-8.53148 11.36701,-13.55785c1.59313,-1.55189 6.91344,-1.10383 7.34282,-1.10383z" fill="#430000" stroke="none" stroke-width="0" stroke-linecap="butt"/><path d="M221.54939,137.85057c17.94926,0 32.5,13.65532 32.5,30.5c0,8.56042 1.67749,17.04559 -4.43817,20.61623c-5.91837,3.45545 -19.48434,2.13377 -28.31183,2.13377c-8.3029,0 -24.0751,2.2364 -29.76224,-0.78907c-6.60736,-3.51502 -2.48776,-12.90819 -2.48776,-21.96093c0,-16.84468 14.55075,-30.5 32.5,-30.5z" fill="none" stroke="#000000" stroke-width="3" stroke-linecap="butt"/><path d="M197.82303,161.86407c6.9726,0 20.875,1.11154 20.875,5.875c0,4.76346 3.5976,9.875 -3.375,9.875c-6.9726,0 -22.625,2.13846 -22.625,-2.625c0,-4.76346 -1.8476,-13.125 5.125,-13.125z" fill="#000000" stroke="#000000" stroke-width="3" stroke-linecap="butt"/><path d="M249.65423,175.73907c0,4.76346 -15.6524,2.625 -22.625,2.625c-6.9726,0 -3.375,-5.11154 -3.375,-9.875c0,-4.76346 13.9024,-5.875 20.875,-5.875c6.9726,0 5.125,8.36154 5.125,13.125z" data-paper-data="{&quot;index&quot;:null}" fill="#000000" stroke="#000000" stroke-width="3" stroke-linecap="butt"/><path d="M192.43161,178.20507c5.39883,-1.64092 17.81338,-0.44597 27.26642,-0.44597c10.14424,0 22.09257,-1.28503 27.40155,0.56513c3.21764,1.12133 2.09845,7.47599 2.09845,8.93487c0,3.866 -13.2076,4.5 -29.5,4.5c-7.22496,0 -19.59327,0.63369 -24.72218,-0.38946c-6.43687,-1.28407 -4.77782,-4.45894 -4.77782,-6.61054c0,-1.6229 -1.67252,-5.36681 2.23358,-6.55403z" fill="#7d3c3c" stroke="#000000" stroke-width="0" stroke-linecap="butt"/><path d="M201.87032,177.14373c2.72889,0 -3.32188,0.86567 -6.39539,3.12014c-3.02871,2.22162 -3.08671,5.82803 0.31331,6.42754c14.27288,2.51667 53.58208,-0.86874 53.58208,0.57732c0,2.14011 -13.54338,3.875 -30.25,3.875c-16.70661,0 -30.25,-1.73489 -30.25,-3.875c0,-2.14011 -3.70661,-10.125 13,-10.125z" fill="#5c2c2c" stroke="none" stroke-width="0" stroke-linecap="butt"/><path d="M192.93161,177.70507c5.39883,-1.64092 17.81338,-0.44597 27.26642,-0.44597c10.14424,0 22.09257,-1.28503 27.40155,0.56513c3.21764,1.12133 2.09845,7.47599 2.09845,8.93487c0,3.86599 -13.2076,4.5 -29.5,4.5c-7.22496,0 -19.59327,0.63369 -24.72218,-0.38946c-6.43687,-1.28407 -4.77782,-4.45894 -4.77782,-6.61054c0,-1.6229 -1.67252,-5.36681 2.23358,-6.55403z" fill="none" stroke="#000000" stroke-width="3" stroke-linecap="butt"/><path d="M212.42082,169.05378c0.5,0 0.5,0.5 0.5,0.5c0,0.83334 0,2.16666 0,3c0,0 0,0.5 -0.5,0.5c-0.5,0 -0.5,-0.5 -0.5,-0.5c0,-0.83334 0,-1.66666 0,-2.5v-0.5c0,0 0,-0.5 0.5,-0.5z" fill="#ffffff" stroke="none" stroke-width="0.5" stroke-linecap="butt"/><path d="M229.67082,168.05378c0.5,0 0.5,0.5 0.5,0.5v0.25c0,1.42099 -0.27094,2.88837 -0.25,4.25c0,0 0,0.5 -0.5,0.5c-0.5,0 -0.5,-0.5 -0.5,-0.5c0.0155,-1.39312 0.25,-2.80527 0.25,-4.25v-0.25c0,0 0,-0.5 0.5,-0.5z" fill="#ffffff" stroke="none" stroke-width="0.5" stroke-linecap="butt"/><path d="M213.10397,174.80378v-0.5c0.02899,-1.18277 0.55565,-1.63353 0.94656,-2.35943c-0.08288,-0.9471 -0.03019,-2.87495 -0.49185,-3.91202c0,0 -0.15739,-0.35356 0,-0.70711c0.15739,-0.35356 0.31477,0 0.31477,0c0.46042,1.0343 0.10276,2.22013 0.31453,2.8572c0.13035,0.39214 0.38126,0.39706 0.41751,1.04126c0.0217,0.38559 -0.08584,0.41801 -0.16273,0.39687c0.01418,0.02124 0.02848,0.04754 0.04279,0.07967c0.05466,0.12279 0.07136,0.24558 0.06986,0.35356c0.0015,0.10798 -0.0152,0.23077 -0.06986,0.35356c-0.22134,0.49721 -0.96697,1.33973 -0.93641,1.89645v0.5c0,0 0,0.5 -0.22258,0.5c-0.22258,0 -0.22258,-0.5 -0.22258,-0.5z" data-paper-data="{&quot;index&quot;:null}" fill="#ffffff" stroke="none" stroke-width="0.5" stroke-linecap="butt"/><path d="M228.01074,175.67878c-0.22258,0 -0.22258,-0.5 -0.22258,-0.5v-0.5c0.03056,-0.55672 -0.71507,-1.39924 -0.93641,-1.89644c-0.05466,-0.12279 -0.07136,-0.24558 -0.06986,-0.35356c-0.0015,-0.10798 0.0152,-0.23077 0.06986,-0.35356c0.01431,-0.03213 0.0286,-0.05843 0.04279,-0.07967c-0.0769,0.02115 -0.18443,-0.01127 -0.16273,-0.39687c0.03625,-0.6442 0.28716,-0.64912 0.41751,-1.04126c0.21177,-0.63707 -0.1459,-1.82291 0.31453,-2.8572c0,0 0.15739,-0.35356 0.31477,0c0.15739,0.35356 0,0.70711 0,0.70711c-0.46166,1.03707 -0.40898,2.96492 -0.49186,3.91202c0.39092,0.72589 0.91758,1.17665 0.94657,2.35943v0.5c0,0 0,0.5 -0.22258,0.5z" data-paper-data="{&quot;index&quot;:null}" fill="#ffffff" stroke="none" stroke-width="0.5" stroke-linecap="butt"/><path d="M230.72897,175.30378v-0.5c0.02899,-1.18277 0.55565,-1.63353 0.94656,-2.35943c-0.08288,-0.9471 -0.03019,-2.87495 -0.49185,-3.91202c0,0 -0.15739,-0.35356 0,-0.70711c0.15739,-0.35356 0.31477,0 0.31477,0c0.46042,1.0343 0.10276,2.22013 0.31453,2.8572c0.13035,0.39214 0.38126,0.39706 0.41751,1.04126c0.0217,0.38559 -0.08584,0.41801 -0.16273,0.39687c0.01418,0.02124 0.02848,0.04754 0.04279,0.07967c0.05466,0.12279 0.07136,0.24558 0.06986,0.35356c0.0015,0.10798 -0.0152,0.23077 -0.06986,0.35356c-0.22134,0.49721 -0.96697,1.33973 -0.93641,1.89645v0.5c0,0 0,0.5 -0.22258,0.5c-0.22258,0 -0.22258,-0.5 -0.22258,-0.5z" data-paper-data="{&quot;index&quot;:null}" fill="#ffffff" stroke="none" stroke-width="0.5" stroke-linecap="butt"/><path d="M221.19915,176.14509c5.21219,0 9.4375,1.67893 9.4375,3.75c0,2.07107 -4.22531,3.75 -9.4375,3.75c-5.21219,0 -9.4375,-1.67893 -9.4375,-3.75c0,-2.07107 4.22531,-3.75 9.4375,-3.75z" fill="#000000" stroke="#000000" stroke-width="3" stroke-linecap="butt"/><path d="M203.43617,194.17605v-2.5" fill="none" stroke="#000000" stroke-width="0.5" stroke-linecap="round"/><path d="M218.43617,194.92605v-3.25" fill="none" stroke="#000000" stroke-width="0.5" stroke-linecap="round"/><path d="M229.81117,191.30105l-0.375,4.125" fill="none" stroke="#000000" stroke-width="0.5" stroke-linecap="round"/><path d="M241.43617,195.30105l0.5,-5" fill="none" stroke="#000000" stroke-width="0.5" stroke-linecap="round"/><g stroke-linecap="butt"><path d="M226.96461,135.41187c0.73178,-1.47853 4.31758,-4.85637 5.90406,-9.85328c2.84122,-8.94894 4.31513,-21.02709 7.37277,-22.01455c6.44785,-2.08233 18.47399,11.16676 22.33004,13.07526c1.33073,0.65862 9.96325,-1.90609 10.19381,-0.38475c0.45874,3.02695 -5.77948,8.30041 -9.73392,13.87081c-4.07325,5.73774 -5.90101,11.78647 -7.85561,15.73566c-4.80593,9.71017 -11.18343,6.14542 -17.88911,2.82653c-6.70568,-3.31889 -15.12797,-3.54552 -10.32204,-13.25569z" fill="#410000" stroke="#000000" stroke-width="0"/><path d="M232.72246,127.36709c1.48703,-3.00449 2.81906,-27.36435 9.69891,-23.95925c4.21809,2.0877 -6.65929,15.92436 -3.51361,25.62057c1.98503,6.11863 19.30415,9.50722 18.72883,10.66963c-1.48704,3.00449 -8.26974,2.67974 -15.14959,-0.72536c-6.87985,-3.4051 -11.25159,-8.6011 -9.76455,-11.60559z" fill="#170000" stroke="none" stroke-width="0"/><path d="M226.93129,135.3132c0.73177,-1.47853 4.31757,-4.85636 5.90405,-9.85328c2.84122,-8.94894 4.31513,-21.02709 7.37277,-22.01455c6.44784,-2.08233 18.47399,11.16676 22.33004,13.07526c1.33073,0.65862 9.96324,-1.90609 10.1938,-0.38475c0.45875,3.02695 -5.77947,8.30041 -9.73392,13.87081c-4.07325,5.73775 -5.90101,11.78647 -7.85561,15.73566c-4.80593,9.71017 -11.18343,6.14542 -17.88911,2.82653c-6.70568,-3.3189 -15.12797,-3.54552 -10.32204,-13.25569z" fill="none" stroke="#000000" stroke-width="3"/><path d="M258.80723,153.11326c-1.25003,2.52563 -0.59183,7.44007 -6.34182,6.22558c-3.42735,-0.72392 -12.43019,-6.42972 -16.36939,-8.37938c-4.49435,-2.22442 -13.19348,-6.05698 -15.96431,-8.66438c-3.73213,-3.51199 -0.66695,-5.77371 0.47807,-8.08718c1.03842,-2.09809 3.18745,-5.50933 7.55518,-5.00515c4.02401,0.46451 10.09808,4.65559 15.15603,7.15896c4.60135,2.27738 14.5874,5.57089 17.37194,8.2386c3.59862,3.44764 -0.76092,6.24037 -1.8857,8.51295z" data-paper-data="{&quot;index&quot;:null}" fill="#410000" stroke="#000000" stroke-width="0"/><path d="M229.89863,130.28849c2.83858,0.26584 19.26336,7.85205 26.21684,12.09183c5.65145,3.44589 4.78177,4.16478 6.2999,4.91616c0.6707,0.33195 0.7761,5.61368 -1.82682,4.29392c-3.45933,-1.75398 -1.97694,-4.75131 -7.33087,-8.30701c-5.86698,-3.89644 -20.933,-9.4658 -24.24352,-9.58518c-2.10309,-0.07584 -3.74982,0.76166 -4.90409,1.84651c-1.49585,1.40589 -2.16466,3.22717 -1.92786,4.01433c1.25622,4.17592 34.82178,17.28264 34.0621,18.81755c-1.46549,2.96095 -16.5116,-4.44229 -24.74129,-8.51548c-8.22969,-4.07319 -13.71316,-9.77548 -12.24768,-12.73643c0.86253,-1.7427 3.28248,-7.52555 10.64329,-6.8362z" fill="#170000" stroke="none" stroke-width="0"/><path d="M258.87867,153.32472c-1.25003,2.52563 -0.59182,7.44007 -6.34182,6.22558c-3.42735,-0.72391 -12.43019,-6.42972 -16.3694,-8.37938c-4.49435,-2.22442 -13.19347,-6.05698 -15.96431,-8.66438c-3.73213,-3.51199 -0.66695,-5.77371 0.47807,-8.08718c1.03842,-2.09808 3.18746,-5.50933 7.55518,-5.00515c4.02401,0.4645 10.09808,4.65559 15.15603,7.15896c4.60135,2.27738 14.5874,5.57089 17.37194,8.23861c3.59862,3.44764 -0.76092,6.24037 -1.8857,8.51295z" data-paper-data="{&quot;index&quot;:null}" fill="none" stroke="#000000" stroke-width="3"/></g></g><path d="M167.62981,210.69712v-87h99v87z" fill="url(#color-1)" stroke="#000000" stroke-width="3.5" stroke-linecap="butt"/></g></g></svg>