<svg version="1.1" xmlns="http://www.w3.org/2000/svg" xmlns:xlink="http://www.w3.org/1999/xlink" width="339.13799" height="305.38621" viewBox="0,0,339.13799,305.38621"><g transform="translate(-82.75,-60.37902)"><g data-paper-data="{&quot;isPaintingLayer&quot;:true}" fill-rule="nonzero" stroke-linejoin="miter" stroke-miterlimit="10" stroke-dasharray="" stroke-dashoffset="0" style="mix-blend-mode: normal"><path d="M290.72372,64.31692l1.5015,94.59459l-126.12613,-3.003l-1.5015,-90.09009z" fill="none" stroke="#ffffff" stroke-width="3.5" stroke-linecap="round"/><path d="M249.98159,157.56917v42l35,-1l1,34l-17,1h-91l1,-35l32,1v-43" fill="none" stroke="#ffffff" stroke-width="3.5" stroke-linecap="round"/><path d="M163.29249,93.22039h-20v34l-42,-2v-59l65,2" fill="none" stroke="#ffffff" stroke-width="3.5" stroke-linecap="round"/><path d="M126.5,126.67397l-1,59l23,-1v51l-64,-1v-49l27,2v-62" fill="none" stroke="#ffffff" stroke-width="3.5" stroke-linecap="round"/><path d="M163.5,138.67397h-35" fill="none" stroke="#ffffff" stroke-width="3.5" stroke-linecap="round"/><path d="M128.5,149.67397h35" fill="none" stroke="#ffffff" stroke-width="3.5" stroke-linecap="round"/><path d="M290.5,125.49282h16l-1,-12l40,-1l5,72l-47,-1l-1,-29h-11" fill="none" stroke="#ffffff" stroke-width="3.5" stroke-linecap="round"/><path d="M337.5,65.46235l57,-3v28l-55,2v-28l-47,-1" fill="none" stroke="#ffffff" stroke-width="3.5" stroke-linecap="round"/><path d="M337.5,78.46235h-23v25l-19,3l-6,-2" fill="none" stroke="#ffffff" stroke-width="3.5" stroke-linecap="round"/><path d="M256.3421,85.12902v-19.66667h34.15789v19.66667z" fill="#434343" stroke="#ffffff" stroke-width="3.5" stroke-linecap="butt"/><text transform="translate(261.5,82.12902) scale(0.5,0.5)" font-size="40" xml:space="preserve" fill="#ffffff" fill-rule="nonzero" stroke="none" stroke-width="1" stroke-linecap="butt" stroke-linejoin="miter" stroke-miterlimit="10" stroke-dasharray="" stroke-dashoffset="0" font-family="Sans Serif" font-weight="normal" text-anchor="start" style="mix-blend-mode: normal"><tspan x="0" dy="0">2</tspan></text><path d="M372.83333,77.17952v-13.05051h22.66667v13.05051z" fill="#434343" stroke="#ffffff" stroke-width="3.5" stroke-linecap="butt"/><text transform="translate(376.16458,76.12314) scale(0.34832,0.34832)" font-size="40" xml:space="preserve" fill="#ffffff" fill-rule="nonzero" stroke="none" stroke-width="1" stroke-linecap="butt" stroke-linejoin="miter" stroke-miterlimit="10" stroke-dasharray="" stroke-dashoffset="0" font-family="Sans Serif" font-weight="normal" text-anchor="start" style="mix-blend-mode: normal"><tspan x="0" dy="0">3</tspan></text><path d="M103.00877,86.12902v-19.66667h34.15789v19.66667z" fill="#434343" stroke="#ffffff" stroke-width="3.5" stroke-linecap="butt"/><text transform="translate(108.27136,81.13799) scale(0.39899,0.39899)" font-size="40" xml:space="preserve" fill="#ffffff" fill-rule="nonzero" stroke="none" stroke-width="1" stroke-linecap="butt" stroke-linejoin="miter" stroke-miterlimit="10" stroke-dasharray="" stroke-dashoffset="0" font-family="Sans Serif" font-weight="normal" text-anchor="start" style="mix-blend-mode: normal"><tspan x="0" dy="0">1</tspan></text><path d="M99.71638,216.85936v-18.33333h30.33333v18.33333z" fill="#434343" stroke="#ffffff" stroke-width="3.5" stroke-linecap="butt"/><text transform="translate(106.7175,212.5888) scale(0.33388,0.33388)" font-size="40" xml:space="preserve" fill="#ffffff" fill-rule="nonzero" stroke="none" stroke-width="1" stroke-linecap="butt" stroke-linejoin="miter" stroke-miterlimit="10" stroke-dasharray="" stroke-dashoffset="0" font-family="Sans Serif" font-weight="normal" text-anchor="start" style="mix-blend-mode: normal"><tspan x="0" dy="0">6</tspan></text><path d="M255.71639,219.35938v-18.33333h30.33333v18.33333z" fill="#434343" stroke="#ffffff" stroke-width="3.5" stroke-linecap="butt"/><text transform="translate(260.90713,213.97534) scale(0.2883,0.2883)" font-size="40" xml:space="preserve" fill="#ffffff" fill-rule="nonzero" stroke="none" stroke-width="1" stroke-linecap="butt" stroke-linejoin="miter" stroke-miterlimit="10" stroke-dasharray="" stroke-dashoffset="0" font-family="Sans Serif" font-weight="normal" text-anchor="start" style="mix-blend-mode: normal"><tspan x="0" dy="0">7</tspan></text><path d="M119.93966,161.46258v-16.1h21v16.1z" fill="#434343" stroke="#ffffff" stroke-width="3.5" stroke-linecap="butt"/><text transform="translate(122.04691,157.05674) scale(0.28892,0.28892)" font-size="40" xml:space="preserve" fill="#ffffff" fill-rule="nonzero" stroke="none" stroke-width="1" stroke-linecap="butt" stroke-linejoin="miter" stroke-miterlimit="10" stroke-dasharray="" stroke-dashoffset="0" font-family="Sans Serif" font-weight="normal" text-anchor="start" style="mix-blend-mode: normal"><tspan x="0" dy="0">4</tspan></text><path d="M318.7615,140.10125v-20.5h34v20.5z" fill="#434343" stroke="#ffffff" stroke-width="3.5" stroke-linecap="butt"/><text transform="translate(321.70833,135.87902) scale(0.39583,0.39583)" font-size="40" xml:space="preserve" fill="#ffffff" fill-rule="nonzero" stroke="none" stroke-width="1" stroke-linecap="butt" stroke-linejoin="miter" stroke-miterlimit="10" stroke-dasharray="" stroke-dashoffset="0" font-family="Sans Serif" font-weight="normal" text-anchor="start" style="mix-blend-mode: normal"><tspan x="0" dy="0">5</tspan></text><path d="M265.1982,272.01815l-1.98949,-0.00601l-1.01351,-36.03604l3.003,54.05405l-66.06607,-1.5015v-51.05105l-1.5015,51.05105c0,0 18.97074,-0.17943 22.38857,1.88762c2.79827,1.69235 -3.36605,9.61688 -3.36605,9.61688l-50.55405,-2.4955v-16.51652l12.01201,3.003v-48.04805" fill="none" stroke="#ffffff" stroke-width="3.5" stroke-linecap="round"/><path d="M284.71771,214.95507l13.51351,73.57357h-33.03303" fill="none" stroke="#ffffff" stroke-width="3.5" stroke-linecap="round"/><path d="M157.21638,265.35936v-18.33333h30.33333v18.33333z" fill="#434343" stroke="#ffffff" stroke-width="3.5" stroke-linecap="butt"/><path d="M285.71639,286.85938v-18.33333h30.33333v18.33333z" fill="#434343" stroke="#ffffff" stroke-width="3.5" stroke-linecap="butt"/><text transform="translate(161.7191,260.52759) scale(0.39821,0.39821)" font-size="40" xml:space="preserve" fill="#ffffff" fill-rule="nonzero" stroke="none" stroke-width="1" stroke-linecap="butt" stroke-linejoin="miter" stroke-miterlimit="10" stroke-dasharray="" stroke-dashoffset="0" font-family="Sans Serif" font-weight="normal" text-anchor="start" style="mix-blend-mode: normal"><tspan x="0" dy="0">8</tspan></text><text transform="translate(211.7191,269.05084) scale(0.5,0.5)" font-size="40" xml:space="preserve" fill="#ffffff" fill-rule="nonzero" stroke="none" stroke-width="1" stroke-linecap="butt" stroke-linejoin="miter" stroke-miterlimit="10" stroke-dasharray="" stroke-dashoffset="0" font-family="Sans Serif" font-weight="normal" text-anchor="start" style="mix-blend-mode: normal"><tspan x="0" dy="0">YOU</tspan></text><text transform="translate(290.2191,283.02759) scale(0.39821,0.39821)" font-size="40" xml:space="preserve" fill="#ffffff" fill-rule="nonzero" stroke="none" stroke-width="1" stroke-linecap="butt" stroke-linejoin="miter" stroke-miterlimit="10" stroke-dasharray="" stroke-dashoffset="0" font-family="Sans Serif" font-weight="normal" text-anchor="start" style="mix-blend-mode: normal"><tspan x="0" dy="0">9</tspan></text><path d="M203.43942,298.85317v14.5l-106,-5.00239l11,-72.5" fill="none" stroke="#ffffff" stroke-width="3.5" stroke-linecap="round"/><path d="M200.43942,300.85317l-87.5,-2.5l9.5,-64" fill="none" stroke="#ffffff" stroke-width="3.5" stroke-linecap="round"/><path d="M322.4327,186.1862l32,92l-37,22l-113,4v-6" fill="none" stroke="#ffffff" stroke-width="3.5" stroke-linecap="round"/><path d="M337.4327,185.1862l33,88v18l-59,23l-126,-1v-15" fill="none" stroke="#ffffff" stroke-width="3.5" stroke-linecap="round"/><g><path d="M353.96208,126.45526l15.99251,-0.55147v-6.06612l38.05115,-4.96319l5.51466,45.2202l-42.46287,1.6544l-1.6544,-12.13225l-22.05864,1.6544" fill="none" stroke="#ffffff" stroke-width="3.5" stroke-linecap="round"/><path d="M390.9103,139.13897v-21.50717h29.22769v21.50717z" fill="#434343" stroke="#ffffff" stroke-width="3.5" stroke-linecap="butt"/><text transform="translate(392.17851,135.8371) scale(0.37498,0.37498)" font-size="40" xml:space="preserve" fill="#ffffff" fill-rule="nonzero" stroke="none" stroke-width="1" stroke-linecap="butt" stroke-linejoin="miter" stroke-miterlimit="10" stroke-dasharray="" stroke-dashoffset="0" font-family="Sans Serif" font-weight="normal" text-anchor="start" style="mix-blend-mode: normal"><tspan x="0" dy="0">10</tspan></text></g><g fill="none" stroke="#ffffff" stroke-width="3.5" stroke-linecap="round"><path d="M381.66667,90.33334l0.33333,26"/><path d="M392.33334,91.33334l0.66667,25.66666"/></g><g><g fill="none" stroke="#ffffff" stroke-width="3.5" stroke-linecap="round"><path d="M278.78535,315.66667v13.66667"/><path d="M293.45201,316.33333l0.33334,14"/><g><path d="M279.45201,289v38"/><path d="M293.45201,289l-0.33333,26.51163"/></g></g><path d="M293.20202,330l14,-3l3,36.5l-59.5,0.5l1.08333,-35l26,-0.66667" fill="none" stroke="#ffffff" stroke-width="3.5" stroke-linecap="round"/><path d="M288.71639,348.35938v-18.33333h30.33333v18.33333z" fill="#434343" stroke="#ffffff" stroke-width="3.5" stroke-linecap="butt"/><text transform="translate(293.2191,344.52759) scale(0.39821,0.39821)" font-size="40" xml:space="preserve" fill="#ffffff" fill-rule="nonzero" stroke="none" stroke-width="1" stroke-linecap="butt" stroke-linejoin="miter" stroke-miterlimit="10" stroke-dasharray="" stroke-dashoffset="0" font-family="Sans Serif" font-weight="normal" text-anchor="start" style="mix-blend-mode: normal"><tspan x="0" dy="0">11</tspan></text></g><path d="M310.5,352.5l96,-3l-3,-187" fill="none" stroke="#ffffff" stroke-width="3.5" stroke-linecap="round"/><path d="M389.5,162.5l-3,173l-66,2" fill="none" stroke="#ffffff" stroke-width="3.5" stroke-linecap="round"/></g></g></svg>