<svg version="1.1" xmlns="http://www.w3.org/2000/svg" xmlns:xlink="http://www.w3.org/1999/xlink" width="178.43762" height="275.54413" viewBox="0,0,178.43762,275.54413"><g transform="translate(-150.78372,-42.17614)"><g data-paper-data="{&quot;isPaintingLayer&quot;:true}" fill-rule="nonzero" stroke-linejoin="miter" stroke-miterlimit="10" stroke-dasharray="" stroke-dashoffset="0" style="mix-blend-mode: normal"><g data-paper-data="{&quot;index&quot;:null}"><g stroke-linecap="butt"><path d="M259.89486,210.72233c7.91378,1.63998 22.2783,67.05229 21.28012,74.87263c-0.99818,7.82034 -16.34471,21.70265 -24.2585,20.06267c-7.91379,-1.63999 -14.15634,-75.92445 -13.15816,-83.74479c0.4954,-3.88127 -1.60483,-8.85126 1.28101,-10.8787c2.92881,-2.05763 10.86938,-1.13786 14.85551,-0.3118z" fill="#840000" stroke="#000000" stroke-width="0"/><path d="M269.42629,292.49058c8.25125,1.70992 14.2009,-22.18413 12.62184,-9.81285c-1.57906,12.37129 -17.04733,26.24173 -25.29857,24.53181c-8.25126,-1.70992 -14.3525,-72.24992 -12.77344,-84.6212c1.04183,-8.16233 6.21232,29.31246 13.32935,52.72189c3.66998,12.07129 9.31355,16.59859 12.12081,17.18034z" fill="#430000" stroke="none" stroke-width="0"/><path d="M259.97214,210.11692c7.91378,1.63998 22.2783,67.05229 21.28012,74.87263c-0.99818,7.82034 -16.58361,22.89713 -24.4974,21.25714c-7.91379,-1.63999 -13.91744,-77.11893 -12.91926,-84.93926c0.52963,-4.14939 -2.18365,-10.08492 1.02464,-12.07844c2.83835,-1.76365 11.39708,0.11812 15.11189,0.88795z" fill="none" stroke="#000000" stroke-width="3"/></g><path d="M274.73988,246.64529l-27.93735,14.0147" fill="none" stroke="#000000" stroke-width="3" stroke-linecap="round"/></g><g><g stroke-linecap="butt"><path d="M225.3164,205.96124c3.98614,-0.82605 11.92671,-1.74582 14.85551,0.3118c2.88584,2.02744 0.78561,6.99743 1.28102,10.8787c0.99818,7.82034 -5.24437,82.1048 -13.15816,83.74478c-7.91379,1.63999 -23.26032,-12.24232 -24.2585,-20.06266c-0.99818,-7.82034 13.36634,-73.23265 21.28012,-74.87263z" fill="#840000" stroke="#000000" stroke-width="0"/><path d="M215.78498,287.72948c2.80726,-0.58175 8.45083,-5.10906 12.12081,-17.18035c7.11703,-23.40942 12.28753,-60.88421 13.32936,-52.72189c1.57906,12.37128 -4.52219,82.91128 -12.77344,84.6212c-8.25125,1.70992 -23.71951,-12.16053 -25.29857,-24.53181c-1.57906,-12.37128 4.37059,11.52276 12.62184,9.81285z" fill="#430000" stroke="none" stroke-width="0"/><path d="M225.23912,205.35582c3.71481,-0.76983 12.27354,-2.6516 15.11189,-0.88794c3.20829,1.99352 0.49502,7.92905 1.02464,12.07845c0.99818,7.82034 -5.00547,83.29927 -12.91926,84.93926c-7.91379,1.63999 -23.49921,-13.4368 -24.49739,-21.25714c-0.99818,-7.82034 13.36634,-73.23265 21.28012,-74.87263z" fill="none" stroke="#000000" stroke-width="3"/></g><path d="M210.47136,241.88419l27.93735,14.0147" fill="none" stroke="#000000" stroke-width="3" stroke-linecap="round"/></g><g data-paper-data="{&quot;index&quot;:null}"><g stroke-linecap="butt"><path d="M299.81258,197.71135c0,6.21811 -6.06651,17.99812 -12.09711,17.99812c-6.0306,0 -21.71546,-55.10373 -21.71546,-61.32184c0,-3.99351 -0.8585,-8.2181 2.18186,-10.21693c1.69364,-1.11345 6.57998,-1.04195 8.7375,-1.04195c6.03059,0 22.89322,48.36449 22.89322,54.5826z" fill="#840000" stroke="#000000" stroke-width="0"/><path d="M300.18437,195.31141c0,9.83666 -6.0787,17.81087 -12.36644,17.81087c-6.28775,0 -21.59222,-48.40968 -21.59222,-58.24634c0,-6.49003 7.38964,21.7091 14.89159,38.70028c3.86846,8.76165 8.48725,11.36269 10.62648,11.36269c6.28775,0 8.44059,-19.46415 8.44059,-9.62749z" fill="#430000" stroke="none" stroke-width="0"/><path d="M299.81259,197.22998c0,6.21811 -6.06651,17.99812 -12.09711,17.99812c-6.03059,0 -21.71546,-55.10373 -21.71546,-61.32184c0,-3.36776 -5.21433,-8.54022 -2.94151,-10.60347c1.92363,-1.74626 11.09647,-0.6554 13.86086,-0.6554c6.03059,0 22.89322,48.36449 22.89322,54.5826z" fill="none" stroke="#000000" stroke-width="3"/></g><path d="M274.63356,182.18976l16.7108,-13.61702" fill="none" stroke="#000000" stroke-width="3" stroke-linecap="round"/></g><g><g stroke-linecap="butt"><path d="M210.58865,143.38445c3.40398,0 10.10781,0.5622 12.32592,2.62625c2.18558,2.03377 -0.08945,5.54654 -0.08945,8.63262c0,6.21811 -17.57681,61.32184 -24.33483,61.32184c-6.75802,0 -13.55629,-11.78001 -13.55629,-17.99812c0,-6.21811 18.89663,-54.5826 25.65464,-54.5826z" fill="#840000" stroke="#000000" stroke-width="0"/><path d="M193.97608,205.19459c2.39727,0 7.57319,-2.60104 11.90827,-11.3627c8.40684,-16.99118 16.68784,-45.1903 16.68784,-38.70027c0,9.83666 -17.15051,59.20192 -24.19671,59.20192c-7.04619,0 -13.85812,-8.92978 -13.85812,-18.76644c0,-9.83666 2.41252,9.62749 9.45871,9.62749z" fill="#430000" stroke="none" stroke-width="0"/><path d="M210.58864,142.90307c3.17228,0 10.49254,-0.08377 12.66662,1.73805c2.45744,2.05926 -0.43016,6.22155 -0.43016,9.52082c0,6.21811 -17.57681,61.32184 -24.33483,61.32184c-6.75802,0 -13.55629,-11.78001 -13.55629,-17.99812c0,-6.21811 18.89663,-54.5826 25.65464,-54.5826z" fill="none" stroke="#000000" stroke-width="3"/></g><path d="M213.15019,182.44545l-18.72649,-13.61702" fill="none" stroke="#000000" stroke-width="3" stroke-linecap="round"/></g><g stroke-linecap="butt"><path d="M209.91645,201.3837c0,-13.63071 1.99681,-46.02791 10.785,-59.9894c6.2428,-9.91771 18.19879,-4.21195 25.04831,-4.21195c8.79194,0 17.32224,-6.76189 21.85023,7.69347c3.96557,12.65987 8.28234,43.17984 8.28234,54.06469c0,23.31344 -13.64073,22.66728 -30.13256,22.66728c-16.49182,0 -35.83331,3.08935 -35.83331,-20.2241z" fill="#840000" stroke="#000000" stroke-width="0"/><path d="M216.15217,201.63658c0,-13.39202 2.87621,-38.86506 9.96646,-51.80482c4.37965,-7.99289 11.87815,-7.51017 16.7728,-7.51017c5.80321,0 12.53539,-1.32424 17.27463,7.85335c5.72921,11.09467 8.92169,33.90439 8.92169,45.76088c0,21.66427 -13.37767,24.839 -26.19632,24.839c-12.81865,0 -26.73926,2.52602 -26.73926,-19.13825z" fill="#7d3c3c" stroke="#000000" stroke-width="0"/><path d="M220.25809,169.28891c0,-6.47996 7.23621,-26.42276 18.7612,-26.76076c0.38811,-0.01139 9.42469,-4.82036 9.81791,-4.82036c12.06997,0 15.13012,15.27652 15.13012,21.97469c0,6.69817 -15.54849,-5.88393 -27.61846,-5.88393c-12.06997,0 -16.09076,22.18853 -16.09076,15.49036z" fill="#5c2c2c" stroke="none" stroke-width="0"/><path d="M211.26682,211.67853c0,-5.8471 -1.94629,-70.3093 15.74494,-70.3093c3.26953,0 -3.43135,11.13574 -6.81915,25.17708c-4.13196,17.12565 -5.18849,38.30888 -0.46065,45.56152c12.3705,18.97672 55.60047,-3.87782 55.60047,-0.4293c0,5.8471 -14.34158,10.58711 -32.03281,10.58711c-17.69123,0 -32.03281,-4.74001 -32.03281,-10.58711z" fill="#430000" stroke="none" stroke-width="0"/><path d="M218.00083,208.47179c0,-3.84648 10.3258,-2.16145 23.65582,-2.16145c13.33002,0 26.29758,-8.16936 26.29758,-4.32289c0,1.85857 -1.10626,8.82417 -5.73936,12.79699c-4.95551,4.24928 -13.6691,5.45521 -20.55822,5.45521c-7.4207,0 -15.11118,-0.29343 -19.40671,-3.13357c-3.42066,-2.26168 -4.24911,-6.92912 -4.24911,-8.6343z" fill="#5c2c2c" stroke="none" stroke-width="0"/><path d="M226.24517,149.6242c4.37964,-7.99289 11.87814,-7.51017 16.77279,-7.51017c5.80322,0 12.5354,-1.32424 17.27464,7.85335c5.7292,11.09467 8.92168,33.9044 8.92168,45.76089c0,21.66426 -13.37767,24.839 -26.19632,24.839c-12.81865,0 -26.73925,2.52601 -26.73925,-19.13825c0,-13.39201 2.87621,-38.86506 9.96646,-51.80482z" fill="none" stroke="#000000" stroke-width="3"/><path d="M221.40221,141.28065c6.2428,-9.91772 18.19878,-4.21196 25.04831,-4.21196c8.79194,0 17.32224,-6.7619 21.85023,7.69347c3.96557,12.65987 8.28233,43.17985 8.28233,54.0647c0,23.31344 -13.64073,22.66728 -30.13256,22.66728c-16.49182,0 -35.83331,3.08935 -35.83331,-20.2241c0,-13.6307 1.99681,-46.0279 10.785,-59.98939z" fill="none" stroke="#000000" stroke-width="3"/></g><g><path d="M218.57456,68.24229c8.95189,0 16.20883,6.58963 16.20883,14.71836c0,8.12872 -7.25694,14.71836 -16.20883,14.71836c-8.95188,0 -16.20882,-6.58963 -16.20882,-14.71836c0,-8.12873 7.25693,-14.71836 16.20882,-14.71836z" fill="#840000" stroke="#000000" stroke-width="0" stroke-linecap="butt"/><path d="M207.60597,79.43483c-1.72515,6.69586 2.14777,14.03393 6.06626,14.03393c7.9679,0 20.5851,-12.57113 20.5851,-6.15794c0,6.41319 -6.45926,11.61211 -14.42716,11.61211c-5.39407,0 -14.51719,-4.69873 -17.46134,-11.77007c-0.7886,-1.89406 1.22875,-11.13306 5.46566,-15.22729c3.31088,-3.19939 9.00468,-1.47606 9.00468,-2.38479c0,-3.25928 -7.45041,2.97447 -9.2332,9.89405z" fill="#430000" stroke="none" stroke-width="0" stroke-linecap="butt"/><path d="M218.67686,68.52052c8.95189,0 16.20883,6.58964 16.20883,14.71836c0,8.12873 -7.25694,14.71836 -16.20883,14.71836c-8.95189,0 -16.20883,-6.58964 -16.20883,-14.71836c0,-8.12873 7.25694,-14.71836 16.20883,-14.71836z" fill="none" stroke="#000000" stroke-width="3" stroke-linecap="butt"/><path d="M216.73713,130.93408c3.82664,-3.66538 19.09713,-2.85111 29.92576,-2.85111c9.54311,0 18.27607,-2.59175 22.73926,0.39387c2.20086,1.47225 3.06074,7.78216 3.06074,9.60613c0,5.52285 -11.55105,10 -25.8,10c-14.24895,0 -25.8,-4.47715 -25.8,-10c0,-1.3257 -5.33444,-5.99115 -4.12576,-7.14889z" fill="#000000" stroke="none" stroke-width="NaN" stroke-linecap="butt"/><g stroke-linecap="butt"><path d="M211.22564,133.60436c0,-3.38571 2.47705,-6.13037 5.53265,-6.13037c0.76574,0 -1.8928,2.4135 -0.86452,4.08943c1.74457,2.84336 7.51592,6.01779 10.78796,9.50832c2.49515,2.66177 9.96123,3.89662 9.96123,4.99435c0,0.70363 27.07854,-2.09431 26.35961,-0.56291c-0.06302,0.13424 5.78255,-2.97011 8.26275,-7.10481c1.54442,-2.57467 -0.16131,-6.96403 0.5322,-6.8958c2.04505,0.20121 5.85991,-1.78936 5.93901,2.21565c0.03158,1.59908 -3.75761,5.36524 -4.60721,7.94328c-1.17003,3.55036 0.38653,5.83849 -0.62416,6.08675c-8.91724,2.19035 -40.15072,5.40395 -41.61668,4.77673c-4.83403,-2.06828 -12.49505,-12.79026 -14.1302,-12.79026c-3.0556,0 -5.53265,-2.74466 -5.53265,-6.13037z" fill="#840000" stroke="#000000" stroke-width="0"/><path d="M212.35717,129.88323c0,-0.68279 3.64753,6.49376 10.44855,11.52202c5.57644,4.12288 12.92415,8.22798 15.73895,8.22798c6.24772,0 34.0625,-3.86764 34.0625,-2.625c0,1.24264 -26.56478,5.125 -32.8125,5.125c-1.67517,0 -4.66636,0.91526 -9.17003,-1.4019c-3.65339,-1.87968 -6.94465,-5.68041 -10.60563,-8.80877c-1.95056,-1.66678 -4.81171,-2.87414 -6.10386,-4.09329c-4.44322,-4.19221 -1.55798,-7.45085 -1.55798,-7.94603z" fill="#430000" stroke="none" stroke-width="0"/><path d="M211.35062,133.35436c0,-3.38571 2.47705,-6.13037 5.53265,-6.13037c0.76574,0 -1.8928,2.4135 -0.86452,4.08943c1.74457,2.84336 7.51592,6.01779 10.78796,9.50832c2.49516,2.66178 9.96124,3.89663 9.96124,4.99435c0,0.70362 27.07854,-2.09432 26.35961,-0.56292c-0.06302,0.13425 5.78255,-2.97011 8.26275,-7.1048c1.54442,-2.57466 -0.16131,-6.96402 0.5322,-6.89579c2.04505,0.20121 5.85992,-1.78936 5.93901,2.21565c0.03158,1.59908 -3.75761,5.36524 -4.60721,7.94328c-1.17003,3.55036 0.38653,5.83849 -0.62416,6.08675c-8.91724,2.19034 -40.15072,5.40395 -41.61668,4.77672c-4.83402,-2.06829 -12.49504,-12.79026 -14.13019,-12.79026c-3.0556,0 -5.53265,-2.74466 -5.53265,-6.13037z" fill="none" stroke="#000000" stroke-width="2.5"/></g><path d="M218.10926,135.53183v-5.625h53.75v5.625z" fill="#ffffff" stroke="#000000" stroke-width="0" stroke-linecap="butt"/><path d="M218.10925,135.53182v-5.625h53.75v5.625z" fill="none" stroke="#000000" stroke-width="2" stroke-linecap="butt"/><path d="M246.09747,78.33134c17.94926,0 32.5,13.65532 32.5,30.5c0,8.56042 1.67749,17.04559 -4.43817,20.61623c-5.91837,3.45545 -19.48434,2.13377 -28.31183,2.13377c-8.3029,0 -24.0751,2.2364 -29.76224,-0.78907c-6.60736,-3.51502 -2.48776,-12.90819 -2.48776,-21.96093c0,-16.84468 14.55075,-30.5 32.5,-30.5z" fill="#840000" stroke="#000000" stroke-width="0" stroke-linecap="butt"/><path d="M245.74611,104.23987c9.25077,0 16.75,3.35787 16.75,7.5c0,4.14213 -7.49923,7.5 -16.75,7.5c-9.25077,0 -32.125,4.14213 -32.125,0c0,-1.3052 -1.91276,-16.33181 3.74239,-27.06986c2.61418,-4.96383 12.93945,-9.50268 14.88122,-10.46404c2.93281,-1.45202 -13.24068,12.13979 -15.81876,23.37741c-1.43527,6.25618 9.79645,11.1789 10.61034,13.81817c0.99896,3.23945 6.20708,-8.53148 11.36701,-13.55785c1.59313,-1.55189 6.91344,-1.10383 7.34282,-1.10383z" fill="#430000" stroke="none" stroke-width="0" stroke-linecap="butt"/><path d="M246.09747,78.08134c17.94926,0 32.5,13.65532 32.5,30.5c0,8.56042 1.67749,17.04559 -4.43817,20.61623c-5.91837,3.45545 -19.48434,2.13377 -28.31183,2.13377c-8.3029,0 -24.0751,2.2364 -29.76224,-0.78907c-6.60736,-3.51502 -2.48776,-12.90819 -2.48776,-21.96093c0,-16.84468 14.55075,-30.5 32.5,-30.5z" fill="none" stroke="#000000" stroke-width="3" stroke-linecap="butt"/><path d="M222.37111,102.09484c6.9726,0 20.875,1.11154 20.875,5.875c0,4.76346 3.5976,9.875 -3.375,9.875c-6.9726,0 -22.625,2.13846 -22.625,-2.625c0,-4.76346 -1.8476,-13.125 5.125,-13.125z" fill="#000000" stroke="#000000" stroke-width="3" stroke-linecap="butt"/><path d="M274.20231,115.96984c0,4.76346 -15.6524,2.625 -22.625,2.625c-6.9726,0 -3.375,-5.11154 -3.375,-9.875c0,-4.76346 13.9024,-5.875 20.875,-5.875c6.9726,0 5.125,8.36154 5.125,13.125z" data-paper-data="{&quot;index&quot;:null}" fill="#000000" stroke="#000000" stroke-width="3" stroke-linecap="butt"/><path d="M216.97969,118.43584c5.39883,-1.64092 17.81338,-0.44597 27.26642,-0.44597c10.14424,0 22.09257,-1.28503 27.40155,0.56513c3.21764,1.12133 2.09845,7.47599 2.09845,8.93487c0,3.866 -13.2076,4.5 -29.5,4.5c-7.22496,0 -19.59327,0.63369 -24.72218,-0.38946c-6.43687,-1.28407 -4.77782,-4.45894 -4.77782,-6.61054c0,-1.6229 -1.67252,-5.36681 2.23358,-6.55403z" fill="#7d3c3c" stroke="#000000" stroke-width="0" stroke-linecap="butt"/><path d="M226.4184,117.3745c2.72889,0 -3.32188,0.86567 -6.39539,3.12014c-3.02871,2.22162 -3.08671,5.82803 0.31331,6.42754c14.27288,2.51667 53.58208,-0.86874 53.58208,0.57732c0,2.14011 -13.54338,3.875 -30.25,3.875c-16.70661,0 -30.25,-1.73489 -30.25,-3.875c0,-2.14011 -3.70661,-10.125 13,-10.125z" fill="#5c2c2c" stroke="none" stroke-width="0" stroke-linecap="butt"/><path d="M217.47969,117.93584c5.39883,-1.64092 17.81338,-0.44597 27.26642,-0.44597c10.14424,0 22.09257,-1.28503 27.40155,0.56513c3.21764,1.12133 2.09845,7.47599 2.09845,8.93487c0,3.86599 -13.2076,4.5 -29.5,4.5c-7.22496,0 -19.59327,0.63369 -24.72218,-0.38946c-6.43687,-1.28407 -4.77782,-4.45894 -4.77782,-6.61054c0,-1.6229 -1.67252,-5.36681 2.23358,-6.55403z" fill="none" stroke="#000000" stroke-width="3" stroke-linecap="butt"/><path d="M236.9689,109.28455c0.5,0 0.5,0.5 0.5,0.5c0,0.83334 0,2.16666 0,3c0,0 0,0.5 -0.5,0.5c-0.5,0 -0.5,-0.5 -0.5,-0.5c0,-0.83334 0,-1.66666 0,-2.5v-0.5c0,0 0,-0.5 0.5,-0.5z" fill="#ffffff" stroke="none" stroke-width="0.5" stroke-linecap="butt"/><path d="M254.2189,108.28455c0.5,0 0.5,0.5 0.5,0.5v0.25c0,1.42099 -0.27094,2.88837 -0.25,4.25c0,0 0,0.5 -0.5,0.5c-0.5,0 -0.5,-0.5 -0.5,-0.5c0.0155,-1.39312 0.25,-2.80527 0.25,-4.25v-0.25c0,0 0,-0.5 0.5,-0.5z" fill="#ffffff" stroke="none" stroke-width="0.5" stroke-linecap="butt"/><path d="M293.97424,85.30876c-0.22258,0 -0.22258,-0.5 -0.22258,-0.5v-0.5c0.03056,-0.55672 -0.71508,-1.39924 -0.93642,-1.89645c-0.05466,-0.12279 -0.07135,-0.24558 -0.06986,-0.35355c-0.00149,-0.10798 0.0152,-0.23077 0.06986,-0.35355c0.0143,-0.03213 0.02861,-0.05842 0.04279,-0.07967c-0.07689,0.02115 -0.18443,-0.01128 -0.16273,-0.39687c0.03625,-0.6442 0.28715,-0.64911 0.41751,-1.04125c0.21177,-0.63707 -0.1459,-1.82291 0.31453,-2.8572c0,0 0.15739,-0.35355 0.31478,0c0.15739,0.35355 0,0.70711 0,0.70711c-0.46166,1.03707 -0.40898,2.96493 -0.49186,3.91202c0.39092,0.72589 0.91758,1.17666 0.94656,2.35943v0.5c0,0 0,0.5 -0.22258,0.5z" fill="#ffffff" stroke="none" stroke-width="0.5" stroke-linecap="butt"/><path d="M237.65205,115.03455v-0.5c0.02899,-1.18277 0.55565,-1.63353 0.94656,-2.35943c-0.08288,-0.9471 -0.03019,-2.87495 -0.49185,-3.91202c0,0 -0.15739,-0.35356 0,-0.70711c0.15739,-0.35356 0.31477,0 0.31477,0c0.46042,1.0343 0.10276,2.22013 0.31453,2.8572c0.13035,0.39214 0.38126,0.39706 0.41751,1.04126c0.0217,0.38559 -0.08584,0.41801 -0.16273,0.39687c0.01418,0.02124 0.02848,0.04754 0.04279,0.07967c0.05466,0.12279 0.07136,0.24558 0.06986,0.35356c0.0015,0.10798 -0.0152,0.23077 -0.06986,0.35356c-0.22134,0.49721 -0.96697,1.33973 -0.93641,1.89645v0.5c0,0 0,0.5 -0.22258,0.5c-0.22258,0 -0.22258,-0.5 -0.22258,-0.5z" data-paper-data="{&quot;index&quot;:null}" fill="#ffffff" stroke="none" stroke-width="0.5" stroke-linecap="butt"/><path d="M252.55882,115.90955c-0.22258,0 -0.22258,-0.5 -0.22258,-0.5v-0.5c0.03056,-0.55672 -0.71507,-1.39924 -0.93641,-1.89644c-0.05466,-0.12279 -0.07136,-0.24558 -0.06986,-0.35356c-0.0015,-0.10798 0.0152,-0.23077 0.06986,-0.35356c0.01431,-0.03213 0.0286,-0.05843 0.04279,-0.07967c-0.0769,0.02115 -0.18443,-0.01127 -0.16273,-0.39687c0.03625,-0.6442 0.28716,-0.64912 0.41751,-1.04126c0.21177,-0.63707 -0.1459,-1.82291 0.31453,-2.8572c0,0 0.15739,-0.35356 0.31477,0c0.15739,0.35356 0,0.70711 0,0.70711c-0.46166,1.03707 -0.40898,2.96492 -0.49186,3.91202c0.39092,0.72589 0.91758,1.17665 0.94657,2.35943v0.5c0,0 0,0.5 -0.22258,0.5z" data-paper-data="{&quot;index&quot;:null}" fill="#ffffff" stroke="none" stroke-width="0.5" stroke-linecap="butt"/><path d="M255.27705,115.53455v-0.5c0.02899,-1.18277 0.55565,-1.63353 0.94656,-2.35943c-0.08288,-0.9471 -0.03019,-2.87495 -0.49185,-3.91202c0,0 -0.15739,-0.35356 0,-0.70711c0.15739,-0.35356 0.31477,0 0.31477,0c0.46042,1.0343 0.10276,2.22013 0.31453,2.8572c0.13035,0.39214 0.38126,0.39706 0.41751,1.04126c0.0217,0.38559 -0.08584,0.41801 -0.16273,0.39687c0.01418,0.02124 0.02848,0.04754 0.04279,0.07967c0.05466,0.12279 0.07136,0.24558 0.06986,0.35356c0.0015,0.10798 -0.0152,0.23077 -0.06986,0.35356c-0.22134,0.49721 -0.96697,1.33973 -0.93641,1.89645v0.5c0,0 0,0.5 -0.22258,0.5c-0.22258,0 -0.22258,-0.5 -0.22258,-0.5z" data-paper-data="{&quot;index&quot;:null}" fill="#ffffff" stroke="none" stroke-width="0.5" stroke-linecap="butt"/><path d="M245.74723,116.37586c5.21219,0 9.4375,1.67893 9.4375,3.75c0,2.07107 -4.22531,3.75 -9.4375,3.75c-5.21219,0 -9.4375,-1.67893 -9.4375,-3.75c0,-2.07107 4.22531,-3.75 9.4375,-3.75z" fill="#000000" stroke="#000000" stroke-width="3" stroke-linecap="butt"/><path d="M227.98425,131.90682v2.5" fill="none" stroke="#000000" stroke-width="0.5" stroke-linecap="round"/><path d="M242.98425,135.15682v-3.25" fill="none" stroke="#000000" stroke-width="0.5" stroke-linecap="round"/><path d="M254.35925,131.53182l-0.375,4.125" fill="none" stroke="#000000" stroke-width="0.5" stroke-linecap="round"/><path d="M265.98425,135.53182l0.5,-5" fill="none" stroke="#000000" stroke-width="0.5" stroke-linecap="round"/><g stroke-linecap="butt"><path d="M251.51269,75.64264c0.73178,-1.47853 4.31758,-4.85637 5.90406,-9.85328c2.84122,-8.94894 4.31513,-21.02709 7.37277,-22.01455c6.44785,-2.08233 18.47399,11.16676 22.33004,13.07526c1.33073,0.65862 9.96325,-1.90609 10.19381,-0.38475c0.45874,3.02695 -5.77948,8.30041 -9.73392,13.87081c-4.07325,5.73774 -5.90101,11.78647 -7.85561,15.73566c-4.80593,9.71017 -11.18343,6.14542 -17.88911,2.82653c-6.70568,-3.31889 -15.12797,-3.54552 -10.32204,-13.25569z" fill="#410000" stroke="#000000" stroke-width="0"/><path d="M257.27054,67.59786c1.48703,-3.00449 2.81906,-27.36435 9.69891,-23.95925c4.21809,2.0877 -6.65929,15.92436 -3.51361,25.62057c1.98503,6.11863 19.30415,9.50722 18.72883,10.66963c-1.48704,3.00449 -8.26974,2.67974 -15.14959,-0.72536c-6.87985,-3.4051 -11.25159,-8.6011 -9.76455,-11.60559z" fill="#170000" stroke="none" stroke-width="0"/><path d="M251.47937,75.54397c0.73177,-1.47853 4.31757,-4.85636 5.90405,-9.85328c2.84122,-8.94894 4.31513,-21.02709 7.37277,-22.01455c6.44784,-2.08233 18.47399,11.16676 22.33004,13.07526c1.33073,0.65862 9.96324,-1.90609 10.1938,-0.38475c0.45875,3.02695 -5.77947,8.30041 -9.73392,13.87081c-4.07325,5.73775 -5.90101,11.78647 -7.85561,15.73566c-4.80593,9.71017 -11.18343,6.14542 -17.88911,2.82653c-6.70568,-3.3189 -15.12797,-3.54552 -10.32204,-13.25569z" fill="none" stroke="#000000" stroke-width="3"/><path d="M283.35531,93.34403c-1.25003,2.52563 -0.59183,7.44007 -6.34182,6.22558c-3.42735,-0.72392 -12.43019,-6.42972 -16.36939,-8.37938c-4.49435,-2.22442 -13.19348,-6.05698 -15.96431,-8.66438c-3.73213,-3.51199 -0.66695,-5.77371 0.47807,-8.08718c1.03842,-2.09809 3.18745,-5.50933 7.55518,-5.00515c4.02401,0.46451 10.09808,4.65559 15.15603,7.15896c4.60135,2.27738 14.5874,5.57089 17.37194,8.2386c3.59862,3.44764 -0.76092,6.24037 -1.8857,8.51295z" data-paper-data="{&quot;index&quot;:null}" fill="#410000" stroke="#000000" stroke-width="0"/><path d="M254.44671,70.51926c2.83858,0.26584 19.26336,7.85205 26.21684,12.09183c5.65145,3.44589 4.78177,4.16478 6.2999,4.91616c0.6707,0.33195 0.7761,5.61368 -1.82682,4.29392c-3.45933,-1.75398 -1.97694,-4.75131 -7.33087,-8.30701c-5.86698,-3.89644 -20.933,-9.4658 -24.24352,-9.58518c-2.10309,-0.07584 -3.74982,0.76166 -4.90409,1.84651c-1.49585,1.40589 -2.16466,3.22717 -1.92786,4.01433c1.25622,4.17592 34.82178,17.28264 34.0621,18.81755c-1.46549,2.96095 -16.5116,-4.44229 -24.74129,-8.51548c-8.22969,-4.07319 -13.71316,-9.77548 -12.24768,-12.73643c0.86253,-1.7427 3.28248,-7.52555 10.64329,-6.8362z" fill="#170000" stroke="none" stroke-width="0"/><path d="M283.42675,93.55549c-1.25003,2.52563 -0.59182,7.44007 -6.34182,6.22558c-3.42735,-0.72391 -12.43019,-6.42972 -16.3694,-8.37938c-4.49435,-2.22442 -13.19347,-6.05698 -15.96431,-8.66438c-3.73213,-3.51199 -0.66695,-5.77371 0.47807,-8.08718c1.03842,-2.09808 3.18746,-5.50933 7.55518,-5.00515c4.02401,0.4645 10.09808,4.65559 15.15603,7.15896c4.60135,2.27738 14.5874,5.57089 17.37194,8.23861c3.59862,3.44764 -0.76092,6.24037 -1.8857,8.51295z" data-paper-data="{&quot;index&quot;:null}" fill="none" stroke="#000000" stroke-width="3"/></g></g><g stroke-linecap="butt"><path d="M163.52488,296.72242c0,-10.35715 15.56225,-18.75327 34.75925,-18.75327c19.197,0 34.75924,8.39612 34.75924,18.75327c0,5.16615 -0.28848,11.27776 -6.55209,14.66949c-6.29372,3.40803 -18.58563,4.08378 -28.20715,4.08378c-10.30931,0 -26.73722,-0.03249 -33.10272,-3.87869c-5.48771,-3.31582 -1.65653,-10.07952 -1.65653,-14.87459z" fill="#5a3d00" stroke="#000000" stroke-width="0"/><path d="M162.82501,306.65336c0,-1.80073 6.89811,2.44503 20.30059,3.42012c14.37328,1.04572 35.58185,-1.204 43.93211,-4.36875c3.74255,-1.41843 2.70787,-7.90296 -1.43643,-13.28553c-4.51983,-5.87031 -12.24054,-10.61094 -8.92541,-10.61094c19.46087,0 16.60321,19.3037 16.60321,24.8451c0,5.54141 -15.77616,10.0336 -35.23704,10.0336c-19.46088,0 -35.23704,-4.4922 -35.23704,-10.0336z" fill="#352400" stroke="none" stroke-width="0"/><path d="M164.25835,297.217c0,-10.35715 15.56225,-18.75327 34.75925,-18.75327c19.19701,0 34.75925,8.39613 34.75925,18.75327c0,5.16615 -0.28849,11.27776 -6.55209,14.66949c-6.29372,3.40804 -18.58562,4.08378 -28.20715,4.08378c-10.30931,0 -26.73722,-0.03248 -33.10272,-3.87868c-5.48771,-3.31582 -1.65652,-10.07952 -1.65652,-14.87459z" fill="none" stroke="#000000" stroke-width="3.5"/></g><g data-paper-data="{&quot;index&quot;:null}" stroke-linecap="butt"><path d="M317.26706,295.27224c0,4.79507 3.83118,11.55877 -1.65653,14.87459c-6.3655,3.8462 -22.79341,3.87869 -33.10272,3.87869c-9.62152,0 -21.91343,-0.67575 -28.20715,-4.08378c-6.26361,-3.39173 -6.55209,-9.50334 -6.55209,-14.66949c0,-10.35715 15.56224,-18.75327 34.75924,-18.75327c19.197,0 34.75925,8.39612 34.75925,18.75327z" fill="#5a3d00" stroke="#000000" stroke-width="0"/><path d="M317.96694,305.20319c0,5.5414 -15.77616,10.0336 -35.23704,10.0336c-19.46088,0 -35.23704,-4.49219 -35.23704,-10.0336c0,-5.5414 -2.85766,-24.8451 16.60321,-24.8451c3.31513,0 -4.40558,4.74063 -8.92541,10.61094c-4.1443,5.38257 -5.17898,11.8671 -1.43643,13.28553c8.35026,3.16475 29.55883,5.41447 43.93211,4.36875c13.40248,-0.97509 20.30059,-5.22085 20.30059,-3.42012z" fill="#352400" stroke="none" stroke-width="0"/><path d="M316.53357,295.76683c0,4.79507 3.83119,11.55877 -1.65652,14.87459c-6.3655,3.8462 -22.79341,3.87868 -33.10272,3.87868c-9.62153,0 -21.91343,-0.67574 -28.20715,-4.08378c-6.2636,-3.39173 -6.55209,-9.50334 -6.55209,-14.66949c0,-10.35714 15.56224,-18.75327 34.75925,-18.75327c19.197,0 34.75925,8.39612 34.75925,18.75327z" fill="none" stroke="#000000" stroke-width="3.5"/></g><g><path d="M169.91781,208.57578c2.10895,-7.90363 9.65738,-12.75282 16.85988,-10.83095c7.2025,1.92186 11.33165,9.88701 9.2227,17.79064c-2.10895,7.90364 -9.65739,12.75282 -16.85989,10.83095c-7.20251,-1.92186 -11.33165,-9.88701 -9.2227,-17.79064z" fill="#840000" stroke="#000000" stroke-width="0" stroke-linecap="butt"/><path d="M169.5982,214.26423c1.19053,-4.46173 1.98452,-17.27273 8.35842,-15.57196c1.06937,0.28534 -2.70679,4.72372 -3.40773,10.11468c-0.66488,5.1136 1.73798,11.16454 2.84542,12.45338c4.68394,5.45117 16.08716,-3.84022 15.28582,-0.83708c-1.19054,4.46172 -7.32272,6.69993 -13.69662,4.99916c-6.3739,-1.70077 -10.57585,-6.69646 -9.38531,-11.15819z" fill="#430000" stroke="none" stroke-width="0" stroke-linecap="butt"/><path d="M186.55069,198.48207c7.20251,1.92186 11.33165,9.88701 9.2227,17.79064c-2.10895,7.90364 -9.65737,12.75282 -16.85988,10.83095c-7.20251,-1.92186 -11.33165,-9.88701 -9.2227,-17.79064c2.10895,-7.90364 9.65737,-12.75282 16.85988,-10.83095z" fill="none" stroke="#000000" stroke-width="3.5" stroke-linecap="butt"/><g><path d="M194.91366,230.72529c1.59872,-5.99146 -8.67025,-11.70914 -5.73825,-10.92679c1.37035,0.36565 6.1986,-5.6077 9.91981,-3.26664c4.24068,2.66787 7.28763,13.83539 6.43612,17.02658c-1.59872,5.99147 -5.27158,10.21428 -8.20358,9.43193c-2.932,-0.78235 -4.01283,-6.27361 -2.41411,-12.26508z" fill="#840000" stroke="#000000" stroke-width="0" stroke-linecap="butt"/><path d="M190.39347,220.85301c-1.08213,-2.99238 2.41133,-3.85219 3.01947,-3.68992c1.65722,0.4422 9.73922,19.09809 9.07592,21.58391c-0.6633,2.48582 -2.54445,4.1425 -4.20166,3.7003c-1.65721,-0.4422 -2.94073,-2.57693 -2.27743,-5.06275c0.41989,-1.57361 -3.5832,-10.90943 -5.6163,-16.53154z" fill="#430000" stroke="none" stroke-width="0" stroke-linecap="butt"/><path d="M188.94033,219.64175c1.37035,0.36565 6.1986,-5.6077 9.91981,-3.26664c4.24068,2.66787 7.28763,13.83539 6.43612,17.02658c-1.59872,5.99146 -5.27159,10.21428 -8.20358,9.43193c-2.93199,-0.78235 -4.01282,-6.27362 -2.4141,-12.26508c1.59872,-5.99146 -8.67024,-11.70914 -5.73825,-10.92679z" fill="none" stroke="#000000" stroke-width="3.5" stroke-linecap="butt"/><path d="M195.57199,229.07356l8.72566,-2.12227" fill="none" stroke="#000000" stroke-width="3.5" stroke-linecap="round"/></g><g data-paper-data="{&quot;index&quot;:null}"><path d="M163.2428,226.55615c0.35693,6.19082 -1.80964,11.35106 -4.8392,11.52572c-3.02955,0.17467 -5.77483,-4.70237 -6.13176,-10.89319c-0.19011,-3.29737 5.04746,-13.62041 9.73922,-15.37777c4.11703,-1.54208 7.64073,5.28262 9.05667,5.20098c3.02955,-0.17467 -8.18188,3.35344 -7.82494,9.54424z" fill="#840000" stroke="#000000" stroke-width="0" stroke-linecap="butt"/><path d="M160.82559,232.85728c0.14809,2.56853 -1.53976,4.40038 -3.25211,4.49911c-1.71235,0.09873 -3.22054,-1.90344 -3.36863,-4.47197c-0.14809,-2.56853 11.5319,-19.21 13.24426,-19.30873c0.62837,-0.03623 3.87649,1.51077 2.21284,4.22326c-3.12566,5.09626 -8.93011,13.43236 -8.83637,15.05833z" fill="#430000" stroke="none" stroke-width="0" stroke-linecap="butt"/><path d="M163.50467,226.45006c0.35694,6.19081 -1.80964,11.35106 -4.83919,11.52573c-3.02954,0.17467 -5.77483,-4.70238 -6.13176,-10.89319c-0.19011,-3.29737 5.04746,-13.62041 9.73922,-15.37777c4.11703,-1.54208 7.64073,5.28262 9.05667,5.20098c3.02954,-0.17467 -8.18188,3.35344 -7.82494,9.54424z" fill="none" stroke="#000000" stroke-width="3.5" stroke-linecap="butt"/><path d="M154.81329,220.96636l8.11798,3.83921" fill="none" stroke="#000000" stroke-width="3.5" stroke-linecap="round"/></g><g data-paper-data="{&quot;index&quot;:null}"><path d="M175.98192,232.14186c1.59872,5.99147 0.51789,11.48273 -2.41411,12.26508c-2.932,0.78235 -6.60486,-3.44046 -8.20358,-9.43193c-0.85151,-3.19119 2.19544,-14.35871 6.43612,-17.02658c3.72121,-2.34106 8.54946,3.63229 9.91981,3.26664c2.932,-0.78235 -7.33697,4.93533 -5.73825,10.92679z" fill="#840000" stroke="#000000" stroke-width="0" stroke-linecap="butt"/><path d="M174.8858,238.80112c0.6633,2.48582 -0.62022,4.62055 -2.27743,5.06276c-1.65721,0.4422 -3.53836,-1.21448 -4.20166,-3.7003c-0.6633,-2.48582 7.4187,-21.14171 9.07592,-21.58391c0.60814,-0.16227 4.1016,0.69753 3.01947,3.68991c-2.0331,5.62211 -6.03619,14.95793 -5.6163,16.53154z" fill="#430000" stroke="none" stroke-width="0" stroke-linecap="butt"/><path d="M176.21699,231.98511c1.59872,5.99146 0.51789,11.48273 -2.4141,12.26508c-2.93199,0.78235 -6.60486,-3.44047 -8.20358,-9.43193c-0.85151,-3.19119 2.19544,-14.35871 6.43612,-17.02658c3.72121,-2.34106 8.54946,3.63229 9.91981,3.26664c2.93199,-0.78235 -7.33697,4.93533 -5.73825,10.92679z" fill="none" stroke="#000000" stroke-width="3.5" stroke-linecap="butt"/><path d="M166.59792,228.36786l8.72566,2.12227" fill="none" stroke="#000000" stroke-width="3.5" stroke-linecap="round"/></g><g data-paper-data="{&quot;index&quot;:null}"><path d="M186.55838,234.57624c3.73374,4.95104 4.79643,10.44584 2.37358,12.27299c-2.42285,1.82715 -7.41374,-0.70525 -11.14748,-5.65629c-1.98867,-2.63703 -3.36323,-14.13086 -0.43648,-18.19719c2.56824,-3.56821 9.28782,0.15201 10.42021,-0.70196c2.42285,-1.82715 -4.94357,7.33142 -1.20983,12.28245z" fill="#840000" stroke="#000000" stroke-width="0" stroke-linecap="butt"/><path d="M188.04597,241.15912c1.54911,2.05415 1.1622,4.51481 -0.20723,5.54754c-1.36943,1.03274 -3.73538,0.20472 -5.28448,-1.84943c-1.54911,-2.05415 -1.07291,-22.37985 0.29653,-23.41259c0.50254,-0.37898 4.06297,-0.89548 4.18509,2.28421c0.22945,5.97402 0.02945,16.12992 1.01008,17.43027z" fill="#430000" stroke="none" stroke-width="0" stroke-linecap="butt"/><path d="M186.71728,234.34262c3.73374,4.95103 4.79643,10.44584 2.37359,12.27298c-2.42284,1.82715 -7.41374,-0.70526 -11.14748,-5.65629c-1.98867,-2.63703 -3.36323,-14.13086 -0.43648,-18.19719c2.56824,-3.56821 9.28782,0.15201 10.42021,-0.70196c2.42284,-1.82715 -4.94357,7.33142 -1.20983,12.28245z" fill="none" stroke="#000000" stroke-width="3.5" stroke-linecap="butt"/><path d="M176.44395,234.60663l8.88346,-1.31349" fill="none" stroke="#000000" stroke-width="3.5" stroke-linecap="round"/></g></g><g data-paper-data="{&quot;index&quot;:null}"><path d="M310.08221,209.51456c2.10895,7.90363 -2.02019,15.86878 -9.2227,17.79064c-7.2025,1.92187 -14.75094,-2.92731 -16.85989,-10.83095c-2.10895,-7.90363 2.0202,-15.86878 9.2227,-17.79064c7.2025,-1.92187 14.75093,2.92732 16.85988,10.83095z" fill="#840000" stroke="#000000" stroke-width="0" stroke-linecap="butt"/><path d="M310.40182,215.203c1.19054,4.46173 -3.01141,9.45742 -9.38531,11.15819c-6.3739,1.70077 -12.50608,-0.53744 -13.69662,-4.99916c-0.80134,-3.00314 10.60188,6.28825 15.28582,0.83708c1.10744,-1.28884 3.5103,-7.33978 2.84542,-12.45338c-0.70094,-5.39096 -4.4771,-9.82934 -3.40773,-10.11468c6.3739,-1.70077 7.16789,11.11023 8.35842,15.57196z" fill="#430000" stroke="none" stroke-width="0" stroke-linecap="butt"/><path d="M310.30921,210.2518c2.10895,7.90363 -2.02019,15.86878 -9.2227,17.79064c-7.20251,1.92187 -14.75093,-2.92731 -16.85988,-10.83095c-2.10895,-7.90363 2.02019,-15.86878 9.2227,-17.79064c7.20251,-1.92187 14.75093,2.92731 16.85988,10.83095z" fill="none" stroke="#000000" stroke-width="3.5" stroke-linecap="butt"/><g><path d="M285.08637,231.66407c1.59872,5.99147 0.51789,11.48273 -2.41411,12.26508c-2.932,0.78235 -6.60486,-3.44046 -8.20358,-9.43193c-0.85151,-3.19119 2.19544,-14.35871 6.43612,-17.02658c3.72121,-2.34106 8.54946,3.63229 9.91981,3.26664c2.932,-0.78235 -7.33697,4.93533 -5.73825,10.92679z" fill="#840000" stroke="#000000" stroke-width="0" stroke-linecap="butt"/><path d="M283.99025,238.32333c0.6633,2.48582 -0.62022,4.62055 -2.27743,5.06276c-1.65721,0.4422 -3.53836,-1.21448 -4.20166,-3.7003c-0.6633,-2.48582 7.4187,-21.14171 9.07592,-21.58391c0.60814,-0.16227 4.10159,0.69753 3.01946,3.68991c-2.0331,5.62211 -6.03619,14.95793 -5.6163,16.53154z" fill="#430000" stroke="none" stroke-width="0" stroke-linecap="butt"/><path d="M285.32144,231.50732c1.59872,5.99146 0.51789,11.48273 -2.4141,12.26508c-2.93199,0.78235 -6.60486,-3.44047 -8.20358,-9.43193c-0.85151,-3.19119 2.19544,-14.35871 6.43612,-17.02658c3.72121,-2.34106 8.54946,3.63229 9.91981,3.26664c2.93199,-0.78235 -7.33697,4.93533 -5.73825,10.92679z" fill="none" stroke="#000000" stroke-width="3.5" stroke-linecap="butt"/><path d="M284.42803,230.01234l-8.72566,-2.12227" fill="none" stroke="#000000" stroke-width="3.5" stroke-linecap="round"/></g><g data-paper-data="{&quot;index&quot;:null}"><path d="M316.75722,227.49493c0.35694,-6.19081 -10.85449,-9.71891 -7.82494,-9.54424c1.41594,0.08164 4.93964,-6.74307 9.05667,-5.20099c4.69176,1.75735 9.92932,12.0804 9.73922,15.37776c-0.35694,6.19081 -3.10222,11.06786 -6.13176,10.89319c-3.02955,-0.17467 -5.19613,-5.33491 -4.8392,-11.52572z" fill="#840000" stroke="#000000" stroke-width="0" stroke-linecap="butt"/><path d="M310.33806,218.73774c-1.66365,-2.71249 1.58447,-4.25949 2.21284,-4.22326c1.71236,0.09873 13.39235,16.7402 13.24426,19.30873c-0.14809,2.56853 -1.65628,4.5707 -3.36863,4.47197c-1.71235,-0.09873 -3.4002,-1.93057 -3.25211,-4.4991c0.09375,-1.62597 -5.7107,-9.96207 -8.83637,-15.05833z" fill="#430000" stroke="none" stroke-width="0" stroke-linecap="butt"/><path d="M308.67041,217.8446c1.41595,0.08164 4.93964,-6.74307 9.05668,-5.20099c4.69176,1.75735 9.92932,12.0804 9.73922,15.37777c-0.35694,6.19081 -3.10222,11.06785 -6.13177,10.89318c-3.02954,-0.17467 -5.19612,-5.33492 -4.83918,-11.52572c0.35693,-6.19081 -10.85449,-9.71891 -7.82494,-9.54424z" fill="none" stroke="#000000" stroke-width="3.5" stroke-linecap="butt"/><path d="M317.06874,225.74435l8.11799,-3.83921" fill="none" stroke="#000000" stroke-width="3.5" stroke-linecap="round"/></g><g data-paper-data="{&quot;index&quot;:null}"><path d="M304.01811,233.08064c1.59872,-5.99146 -8.67025,-11.70914 -5.73825,-10.92679c1.37035,0.36565 6.1986,-5.6077 9.91981,-3.26664c4.24068,2.66787 7.28763,13.83539 6.43612,17.02658c-1.59872,5.99147 -5.27158,10.21428 -8.20358,9.43193c-2.932,-0.78235 -4.01283,-6.27361 -2.41411,-12.26508z" fill="#840000" stroke="#000000" stroke-width="0" stroke-linecap="butt"/><path d="M299.49792,223.20836c-1.08213,-2.99238 2.41132,-3.85219 3.01946,-3.68992c1.65722,0.4422 9.73922,19.09809 9.07592,21.58391c-0.6633,2.48582 -2.54445,4.1425 -4.20166,3.7003c-1.65721,-0.4422 -2.94073,-2.57694 -2.27743,-5.06276c0.41989,-1.57361 -3.58319,-10.90943 -5.61629,-16.53154z" fill="#430000" stroke="none" stroke-width="0" stroke-linecap="butt"/><path d="M298.04478,221.99711c1.37035,0.36565 6.1986,-5.6077 9.91981,-3.26664c4.24068,2.66787 7.28763,13.83539 6.43612,17.02658c-1.59872,5.99146 -5.27159,10.21428 -8.20358,9.43193c-2.93199,-0.78235 -4.01282,-6.27362 -2.4141,-12.26508c1.59872,-5.99146 -8.67024,-11.70914 -5.73825,-10.92679z" fill="none" stroke="#000000" stroke-width="3.5" stroke-linecap="butt"/><path d="M313.4021,229.30665l-8.72566,2.12227" fill="none" stroke="#000000" stroke-width="3.5" stroke-linecap="round"/></g><g data-paper-data="{&quot;index&quot;:null}"><path d="M293.44165,235.51503c3.73374,-4.95103 -3.63269,-14.1096 -1.20983,-12.28245c1.13239,0.85396 7.85198,-2.86625 10.42021,0.70195c2.92676,4.06633 1.55219,15.56015 -0.43648,18.19718c-3.73374,4.95104 -8.72463,7.48344 -11.14749,5.6563c-2.42286,-1.82715 -1.36016,-7.32195 2.37358,-12.27299z" fill="#840000" stroke="#000000" stroke-width="0" stroke-linecap="butt"/><path d="M292.96413,224.66763c0.12212,-3.17969 3.68256,-2.66319 4.1851,-2.28421c1.36944,1.03274 1.84563,21.35844 0.29653,23.41259c-1.5491,2.05415 -3.91505,2.88217 -5.28448,1.84943c-1.36943,-1.03274 -1.75634,-3.49339 -0.20723,-5.54754c0.98064,-1.30035 0.78064,-11.45624 1.01009,-17.43027z" fill="#430000" stroke="none" stroke-width="0" stroke-linecap="butt"/><path d="M292.0729,222.99896c1.13239,0.85396 7.85197,-2.86625 10.42021,0.70195c2.92675,4.06633 1.55219,15.56015 -0.43648,18.19718c-3.73374,4.95103 -8.72464,7.48344 -11.14749,5.6563c-2.42284,-1.82715 -1.36015,-7.32196 2.37359,-12.27299c3.73374,-4.95103 -3.63268,-14.10959 -1.20983,-12.28245z" fill="none" stroke="#000000" stroke-width="3.5" stroke-linecap="butt"/><path d="M303.55607,235.54542l-8.88347,-1.3135" fill="none" stroke="#000000" stroke-width="3.5" stroke-linecap="round"/></g></g></g></g></svg>