<svg version="1.1" xmlns="http://www.w3.org/2000/svg" xmlns:xlink="http://www.w3.org/1999/xlink" width="648.07811" height="575.64704" viewBox="0,0,648.07811,575.64704"><g transform="translate(231.65228,14.89076)"><g data-paper-data="{&quot;isPaintingLayer&quot;:true}" fill-rule="nonzero" stroke-linejoin="miter" stroke-miterlimit="10" stroke-dasharray="" stroke-dashoffset="0" style="mix-blend-mode: normal"><g data-paper-data="{&quot;index&quot;:null}" stroke-width="8"><g stroke="#000000"><path d="M197.47189,219.18627c32.91364,-2.79196 83.13176,59.60081 110.20663,107.66022c12.89478,22.88894 17.57076,43.38702 18.16889,50.43813c1.85398,21.85611 -8.88075,44.56503 -57.46999,48.6867c-48.58924,4.12166 -89.48155,-10.25495 -91.33553,-32.11109c-1.85398,-21.85614 -28.15923,-170.5523 20.43,-174.67396z" data-paper-data="{&quot;index&quot;:null}" fill="#00ff15" stroke-linecap="butt"/><path d="" fill="none" stroke-linecap="round"/></g><path d="M330.20252,379.20918c1.73869,20.49692 -19.23977,39.01206 -46.85668,41.35471c-13.52559,1.14733 -41.85065,7.71249 -64.77902,1.5939c-23.88739,-6.37451 -42.13979,-25.66978 -43.02694,-36.12818c-0.37131,-4.37724 81.08699,14.97795 103.38721,20.18501c17.04667,3.98035 31.21288,-2.25773 30.073,-13.80306c-1.27367,-12.90048 18.8628,-20.12926 8.04477,-40.55123c-26.14172,-49.34956 -94.92581,-118.90497 -82.75261,-119.93758c27.61691,-2.34265 94.1716,126.78949 95.91029,147.28642z" fill="#00ad0e" stroke="none" stroke-linecap="butt"/><g fill="none" stroke="#000000"><path d="M201.977,217.28554c48.58924,-4.12166 126.52153,136.24221 128.37551,158.09835c1.85398,21.85611 -8.88075,44.56503 -57.46999,48.6867c-48.58924,4.12166 -89.48155,-10.25495 -91.33553,-32.11109c-1.85398,-21.85614 -28.15923,-170.5523 20.43,-174.67396z" data-paper-data="{&quot;index&quot;:null}" stroke-linecap="butt"/><path d="M231.8502,342.2909l64.15926,-32.19865" stroke-linecap="round"/></g></g><g data-paper-data="{&quot;index&quot;:null}" stroke-width="7.5"><path d="M351.70168,429.57181c9.09021,25.26436 -2.20468,52.46058 -25.22787,60.74438c-23.02316,8.28383 -49.05626,-5.48161 -58.14647,-30.74601c-9.09021,-25.26436 2.20471,-52.46058 25.22787,-60.74438c23.02316,-8.28383 49.05623,5.48165 58.14644,30.74601z" fill="#ffffff" stroke="#000000" stroke-linecap="butt"/><path d="M353.61009,448.93525c5.13158,14.26215 -7.22526,31.76671 -27.59976,39.09754c-20.3745,7.33083 -41.05124,1.71186 -46.18282,-12.55026c-3.45402,-9.59969 36.41886,17.62492 50.22573,-1.50305c3.2644,-4.52249 9.44442,-24.97921 5.8512,-41.51918c-3.78811,-17.4371 -17.36969,-30.90555 -13.95139,-32.13546c20.3745,-7.33083 26.52549,34.34829 31.65705,48.61044z" fill="#d0d0d0" stroke="none" stroke-linecap="butt"/><path d="M351.66847,429.64235c9.09021,25.26436 -2.20468,52.46057 -25.22788,60.74438c-23.02319,8.28384 -49.05623,-5.48161 -58.14644,-30.74601c-9.09021,-25.26436 2.20468,-52.46058 25.22788,-60.74438c23.02319,-8.28384 49.05622,5.48162 58.14644,30.74601z" fill="none" stroke="#000000" stroke-linecap="butt"/><g><path d="M276.61199,505.75662c6.89097,19.15204 4.87948,37.4115 -4.49281,40.78367c-9.37229,3.37217 -22.55622,-9.41989 -29.44718,-28.57194c-3.67027,-10.20081 3.19679,-47.57039 16.32612,-57.47238c11.52103,-8.68901 28.9694,9.5078 33.3498,7.93173c9.37229,-3.37217 -22.62692,18.1769 -15.73596,37.32892z" fill="#ffffff" stroke="#000000" stroke-linecap="butt"/><path d="M273.96067,526.34399c2.85902,7.94605 0.88234,15.93273 -4.41501,17.83875c-5.29736,1.90602 -11.90943,-2.9904 -14.76845,-10.93645c-2.85902,-7.94605 18.39806,-71.20383 23.69545,-73.10985c1.94395,-0.69944 6.5099,0.95859 3.8009,11.04563c-5.08966,18.95161 -10.12273,50.1318 -8.31288,55.16193z" fill="#d0d0d0" stroke="none" stroke-linecap="butt"/><path d="M275.84094,506.09264c6.89096,19.15201 4.87948,37.41151 -4.49277,40.78367c-9.37226,3.37216 -22.55622,-9.41993 -29.44719,-28.57194c-3.67027,-10.20081 3.19679,-47.57039 16.32612,-57.47237c11.52103,-8.68901 28.96941,9.5078 33.3498,7.93173c9.37226,-3.37216 -22.62693,18.1769 -15.73596,37.32891z" fill="none" stroke="#000000" stroke-linecap="butt"/><path d="M272.50422,501.45104l-29.12675,-4.52027" fill="none" stroke="#000000" stroke-linecap="round"/></g><g data-paper-data="{&quot;index&quot;:null}"><path d="M300.749,514.67968c8.71222,-18.39518 -21.05116,-42.94009 -12.04925,-38.67665c4.20732,1.99263 23.33491,-14.43002 33.96091,-4.66676c12.10936,11.12617 15.32742,48.98496 10.6871,58.78266c-8.71219,18.39518 -23.07231,29.85124 -32.07422,25.58779c-9.00192,-4.26345 -9.23673,-22.63186 -0.52451,-41.02704z" fill="#ffffff" stroke="#000000" stroke-linecap="butt"/><path d="M301.39539,535.42704c2.28819,-4.83132 0.29648,-36.35227 -2.9351,-55.70751c-1.72,-10.30187 2.98496,-11.51024 4.85211,-10.62594c5.08803,2.40974 20.12303,67.42791 16.50837,75.05994c-3.61465,7.63204 -10.66954,11.86553 -15.75757,9.45576c-5.08803,-2.40974 -6.28246,-10.55025 -2.66781,-18.18229z" fill="#d0d0d0" stroke="none" stroke-linecap="butt"/><path d="M301.4839,515.08876c8.71222,-18.39518 -21.05116,-42.94009 -12.04924,-38.67665c4.20732,1.99263 23.33491,-14.43002 33.96091,-4.66676c12.10936,11.12617 15.32742,48.98496 10.6871,58.78265c-8.71219,18.39518 -23.07231,29.85124 -32.07422,25.58779c-9.00192,-4.26345 -9.23674,-22.63186 -0.52451,-41.02704z" fill="none" stroke="#000000" stroke-linecap="butt"/><path d="M334.68177,509.1118l-29.42752,1.68009" fill="none" stroke="#000000" stroke-linecap="round"/></g><g data-paper-data="{&quot;index&quot;:null}"><path d="M319.75206,467.43377c4.44584,1.38065 21.07161,-17.57072 32.96598,-9.40024c13.55478,9.31105 22.06938,46.34004 18.85425,56.69332c-6.03641,19.43828 -18.64116,32.80146 -28.15353,29.84747c-9.51237,-2.95399 -12.33018,-21.10652 -6.29376,-40.5448c6.03641,-19.43828 -26.88532,-39.54974 -17.37294,-36.59575z" fill="#ffffff" stroke="#000000" stroke-linecap="butt"/><path d="M329.93846,469.73948c-3.15283,-9.95725 1.33524,-11.8158 3.30824,-11.20308c5.37654,1.66965 29.41303,63.92443 26.90857,71.98925c-2.50449,8.06483 -8.89328,13.24916 -14.26985,11.57951c-5.37654,-1.66965 -7.70482,-9.56101 -5.20036,-17.62583c1.5854,-5.1053 -4.82298,-36.03211 -10.7466,-54.73984z" fill="#d0d0d0" stroke="none" stroke-linecap="butt"/><path d="M337.91014,504.3311c6.03641,-19.43831 -26.88532,-39.54974 -17.37295,-36.59576c4.44588,1.38064 21.07164,-17.57072 32.96602,-9.40024c13.55481,9.31104 22.06938,46.34004 18.85425,56.69332c-6.03641,19.43828 -18.64116,32.80145 -28.15353,29.84747c-9.51237,-2.95399 -12.33018,-21.10652 -6.29376,-40.5448z" fill="none" stroke="#000000" stroke-linecap="butt"/><path d="M341.03819,499.54634l28.8981,-5.8052" fill="none" stroke="#000000" stroke-linecap="round"/></g><g data-paper-data="{&quot;index&quot;:null}"><path d="M375.76695,483.81266c0.07658,-20.35387 -37.29273,-29.93758 -27.3323,-29.90009c4.65528,0.01753 14.99921,-22.97316 28.76541,-18.64596c15.68794,4.93129 34.6775,37.8409 34.63669,48.6818c-0.07658,20.35387 -8.21313,36.82357 -18.17356,36.78608c-9.96043,-0.03748 -17.97282,-16.56795 -17.89624,-36.92179z" fill="#ffffff" stroke="#000000" stroke-linecap="butt"/><path d="M385.16205,502.32217c0.02013,-5.34578 -15.16784,-33.03799 -26.31244,-49.18938c-5.93172,-8.59662 -2.18509,-11.68851 -0.11915,-11.68073c5.62979,0.02117 46.85066,52.5021 46.81887,60.94679c-0.03176,8.44469 -4.62138,15.27327 -10.25116,15.2521c-5.62979,-0.02117 -10.16788,-6.88412 -10.13609,-15.32881z" fill="#d0d0d0" stroke="none" stroke-linecap="butt"/><path d="M376.60596,483.87099c0.07662,-20.35384 -37.2927,-29.93755 -27.33227,-29.90007c4.65528,0.0175 14.99921,-22.97319 28.76541,-18.64599c15.68793,4.93125 34.67747,37.8409 34.63666,48.6818c-0.07658,20.35384 -8.21314,36.82353 -18.17357,36.78605c-9.96039,-0.03749 -17.97278,-16.56795 -17.8962,-36.92179z" fill="none" stroke="#000000" stroke-linecap="butt"/><path d="M378.19493,478.37977l25.92925,-14.01689" fill="none" stroke="#000000" stroke-linecap="round"/></g></g><g stroke-width="8"><g stroke="#000000"><path d="M29.77304,356.16203c-12.36823,18.11505 -55.04177,10.51002 -95.31404,-16.98628c-40.27227,-27.4963 -38.44378,-52.54797 -26.07557,-70.66299c3.99017,-5.84418 18.14692,-21.38839 40.63512,-34.96999c47.21797,-28.51701 121.6364,-58.12467 148.91625,-39.49908c40.27227,27.4963 -55.79352,144.00329 -68.16175,162.11833z" data-paper-data="{&quot;index&quot;:null}" fill="#00ff15" stroke-linecap="butt"/><path d="" fill="none" stroke-linecap="round"/></g><path d="M-96.355,268.04529c11.59906,-16.98848 133.07841,-96.65909 155.96816,-81.03088c10.08952,6.88872 -84.01622,33.59667 -131.05663,63.69598c-19.46637,12.45579 -5.49307,28.657 -12.94951,39.26106c-6.67316,9.49014 2.5901,21.89124 19.38892,26.8138c21.976,6.4396 102.41475,29.67073 99.9377,33.29873c-5.91833,8.66825 -31.30246,16.48511 -55.23464,10.2809c-22.97137,-5.95513 -44.39995,-25.60778 -55.61038,-33.26181c-22.88975,-15.62821 -32.04266,-42.06928 -20.44361,-59.05776z" fill="#00ad0e" stroke="none" stroke-linecap="butt"/><g fill="none" stroke="#000000"><path d="M26.78627,352.29059c-12.36823,18.11505 -55.04177,10.51002 -95.31404,-16.98628c-40.27227,-27.4963 -38.44378,-52.54797 -26.07557,-70.66299c12.36823,-18.11505 149.2791,-101.96536 189.55137,-74.46906c40.27227,27.4963 -55.79352,144.00329 -68.16175,162.11833z" data-paper-data="{&quot;index&quot;:null}" stroke-linecap="butt"/><path d="M-32.57888,224.69873l40.01191,59.60043" stroke-linecap="round"/></g></g><g stroke-width="7.5"><path d="M-139.85216,301.31093c20.34487,-17.52159 49.78171,-16.69596 65.74895,1.84414c15.96726,18.54007 12.41851,47.77388 -7.92636,65.29547c-20.34489,17.52162 -49.78173,16.69594 -65.74898,-1.84416c-15.96729,-18.54008 -12.41851,-47.77388 7.92636,-65.29547z" fill="#ffffff" stroke="#000000" stroke-linecap="butt"/><path d="M-151.0413,317.22915c11.485,-9.89124 37.34788,-43.14925 51.4782,-26.74207c2.3707,2.75267 -16.0801,7.79514 -27.95776,21.11143c-11.26657,12.63117 -15.95206,33.48102 -15.33544,39.0244c2.60802,23.44583 50.71587,19.36417 42.98543,26.02183c-11.48501,9.8912 -32.25034,4.60902 -46.38066,-11.79816c-14.13032,-16.40717 -16.27478,-37.72624 -4.78976,-47.61746z" fill="#d0d0d0" stroke="none" stroke-linecap="butt"/><path d="M-74.10903,303.23281c15.96729,18.54008 12.41851,47.77388 -7.92636,65.29547c-20.34489,17.52162 -49.78168,16.69598 -65.74895,-1.84414c-15.96729,-18.54008 -12.41851,-47.77388 7.92636,-65.29547c20.34489,-17.52162 49.78168,-16.69598 65.74895,1.84414z" fill="none" stroke="#000000" stroke-linecap="butt"/><g><path d="M-111.96773,404.58265c15.42272,-13.28249 -1.8317,-47.78752 4.66827,-40.24022c3.03794,3.52743 27.18162,-3.72877 32.93609,9.50449c6.55777,15.08059 -5.8515,50.99232 -14.06599,58.06689c-15.42274,13.28252 -33.19454,17.93182 -39.69451,10.38452c-6.49997,-7.5473 0.73337,-24.43317 16.15611,-37.71569z" fill="#ffffff" stroke="#000000" stroke-linecap="butt"/><path d="M-99.88429,371.69733c2.6049,-10.11442 7.39571,-9.3112 8.7439,-7.74578c3.6739,4.26588 -8.94603,69.79563 -15.34482,75.30645c-6.3988,5.51082 -14.56432,6.52005 -18.23819,2.2542c-3.67387,-4.26586 -1.4649,-12.19144 4.93389,-17.70226c4.05065,-3.48854 15.01108,-33.10957 19.90522,-52.11261z" fill="#d0d0d0" stroke="none" stroke-linecap="butt"/><path d="M-106.79357,365.01432c3.03794,3.52743 27.18162,-3.72877 32.93609,9.50449c6.55777,15.08059 -5.8515,50.99232 -14.06599,58.06689c-15.42272,13.28249 -33.19457,17.9318 -39.69451,10.38452c-6.49994,-7.54728 0.73342,-24.43318 16.15614,-37.71568c15.42272,-13.28249 -1.83168,-47.7875 4.66827,-40.24022z" fill="none" stroke="#000000" stroke-linecap="butt"/><path d="M-106.27312,402.85553l27.58105,10.39647" fill="none" stroke="#000000" stroke-linecap="round"/></g><g data-paper-data="{&quot;index&quot;:null}"><path d="M-137.37128,400.47425c-1.46666,20.30109 -10.70918,36.17654 -20.64378,35.45881c-9.9346,-0.71772 -16.79918,-17.75685 -15.33249,-38.05792c0.78119,-10.81282 22.21097,-42.1881 38.22759,-45.91586c14.05464,-3.27112 22.62586,20.43758 27.26908,20.77305c9.9346,0.71772 -28.05371,7.44085 -29.52037,27.74194z" fill="#ffffff" stroke="#000000" stroke-linecap="butt"/><path d="M-148.1426,418.21821c-0.6085,8.42279 -5.65384,14.92197 -11.26902,14.51627c-5.6152,-0.40567 -9.6739,-7.56255 -9.0654,-15.98534c0.6085,-8.42279 45.68939,-57.62774 51.30458,-57.22204c2.06059,0.14887 5.56202,3.5159 -1.00435,11.63808c-12.33697,15.26 -29.58062,41.72117 -29.96582,47.05306z" fill="#d0d0d0" stroke="none" stroke-linecap="butt"/><path d="M-138.21235,400.46878c-1.46666,20.30109 -10.70918,36.17654 -20.64378,35.45881c-9.9346,-0.71772 -16.79918,-17.75685 -15.33249,-38.05792c0.78119,-10.81282 22.21097,-42.1881 38.22759,-45.91586c14.05464,-3.27112 22.62586,20.43758 27.26908,20.77305c9.9346,0.71772 -28.05371,7.44085 -29.52037,27.74194z" fill="none" stroke="#000000" stroke-linecap="butt"/><path d="M-139.38041,394.87289l-24.79203,-15.94231" fill="none" stroke="#000000" stroke-linecap="round"/></g><g data-paper-data="{&quot;index&quot;:null}"><path d="M-163.79873,373.30393c-4.30939,19.89256 -15.69436,34.30912 -25.42903,32.20026c-9.73468,-2.10887 -14.1327,-19.94455 -9.8233,-39.83711c2.29529,-10.59524 27.92778,-38.64199 44.30962,-40.07834c14.37513,-1.2604 19.52409,23.41871 24.07385,24.40432c9.73468,2.10887 -28.82173,3.41831 -33.13113,23.31088z" fill="#ffffff" stroke="#000000" stroke-linecap="butt"/><path d="M-176.96024,389.3552c-1.78795,8.25329 -7.69779,13.97765 -13.19998,12.7857c-5.50222,-1.19197 -8.51319,-8.84887 -6.72526,-17.10218c1.78795,-8.25329 53.34556,-50.62337 58.84775,-49.43142c2.01912,0.43739 5.01181,4.26372 -2.63237,11.38087c-14.36197,13.3717 -35.15831,37.14242 -36.29014,42.36703z" fill="#d0d0d0" stroke="none" stroke-linecap="butt"/><path d="M-164.63067,373.18013c-4.30939,19.89256 -15.69436,34.30912 -25.42903,32.20026c-9.73468,-2.10887 -14.1327,-19.94455 -9.8233,-39.83711c2.29529,-10.59524 27.92776,-38.64201 44.30962,-40.07834c14.37513,-1.2604 19.52409,23.41871 24.07387,24.40434c9.73468,2.10887 -28.82171,3.41829 -33.13113,23.31088z" fill="none" stroke="#000000" stroke-linecap="butt"/><path d="M-164.99951,367.47554l-22.30139,-19.273" fill="none" stroke="#000000" stroke-linecap="round"/></g><g data-paper-data="{&quot;index&quot;:null}"><path d="M-187.49165,336.69019c-9.94834,17.75712 -25.05742,28.20558 -33.74711,23.33723c-8.68969,-4.86835 -7.6693,-23.20992 2.27906,-40.96706c5.29869,-9.45783 38.02344,-28.76422 54.1073,-25.33807c14.11361,3.00646 11.80627,28.11114 15.86764,30.38649c8.68969,4.86835 -28.55852,-5.17576 -38.50687,12.58139z" fill="#ffffff" stroke="#000000" stroke-linecap="butt"/><path d="M-204.77825,348.18112c-4.12749,7.36733 -11.4551,11.10906 -16.36664,8.35738c-4.91154,-2.75168 -5.54714,-10.95474 -1.41963,-18.32205c4.12749,-7.36733 65.83612,-32.7731 70.74767,-30.02142c1.80237,1.00977 3.54272,5.54498 -5.85118,10.11027c-17.64936,8.57726 -44.49737,25.21209 -47.11021,29.87587z" fill="#d0d0d0" stroke="none" stroke-linecap="butt"/><path d="M-188.25077,336.32808c-9.94834,17.75712 -25.05742,28.20558 -33.74708,23.33725c-8.68969,-4.86835 -7.6693,-23.20992 2.27904,-40.96703c5.29869,-9.45783 38.02343,-28.76426 54.10727,-25.33809c14.11361,3.00646 11.80627,28.11114 15.86762,30.38652c8.68969,4.86835 -28.55852,-5.17576 -38.50683,12.58138z" fill="none" stroke="#000000" stroke-linecap="butt"/><path d="M-202.60841,305.80472l15.67628,24.96105" fill="none" stroke="#000000" stroke-linecap="round"/></g></g><g stroke-width="8" stroke-linecap="butt"><path d="M148.48961,189.15004c16.07837,4.22935 64.45298,-56.4322 63.97721,-17.92316c-0.33219,26.88723 13.02217,260.71282 4.04539,294.83914c-21.83371,83.00348 -119.78504,30.84845 -147.08943,23.66615c-27.30438,-7.1823 -94.92672,-22.56431 -73.09301,-105.56779c21.8337,-83.00344 124.85546,-202.19664 152.15984,-195.01434z" fill="#00ff15" stroke="#000000"/><path d="M-5.5724,430.7554c2.14779,-8.16509 0.02167,-56.90981 27.82251,-102.66944c23.73705,-39.07066 65.38073,-101.28414 98.94163,-125.31234c23.54805,-16.8594 40.66392,-3.38877 55.37104,0.47988c10.92632,2.87412 -28.06038,-4.978 -66.31284,29.13003c-49.86268,44.46034 -104.05019,135.83492 -101.63163,166.5854c2.49241,31.68963 34.27359,69.12028 75.86563,81.05263c57.72417,16.56052 129.79166,1.31983 128.00947,8.09506c-5.26833,20.02819 -58.35483,23.42352 -118.57204,7.58364c-60.21721,-15.83988 -104.76205,-44.91671 -99.49372,-64.9449z" fill="#00ad0e" stroke="none"/><path d="M-2.74264,384.07367c21.83371,-83.00348 124.85547,-202.19668 152.15985,-195.01438c16.07833,4.22933 64.45301,-56.43214 63.9772,-17.92312c-0.33223,26.88722 13.02213,260.71281 4.04535,294.83913c-21.83371,83.00348 -119.78504,30.84845 -147.08943,23.66615c-27.30438,-7.1823 -94.92672,-22.56431 -73.09301,-105.56779z" fill="none" stroke="#000000"/></g><g stroke-width="8" stroke-linecap="butt"><path d="M54.73623,78.03458c16.31001,-63.23287 86.76569,-99.73062 157.36718,-81.51997c70.60149,18.21064 114.6134,84.23363 98.30339,147.4665c-16.31001,63.23287 -86.76569,99.73062 -157.36718,81.51997c-70.60149,-18.21064 -114.61339,-84.23366 -98.30338,-147.46653z" fill="#ffffff" stroke="#000000"/><path d="M60.75603,132.66592c2.03322,-7.88269 33.70224,59.65515 98.13464,76.27457c64.4324,16.61942 127.28031,-23.89173 125.24709,-16.00904c-2.03322,7.88269 -61.07326,46.46056 -125.50567,29.84115c-64.4324,-16.61942 -99.9093,-82.22394 -97.87606,-90.10663z" fill="#d0d0d0" stroke="none"/><path d="M214.87306,-5.03362c70.60149,18.21064 114.61339,84.23366 98.30338,147.46653c-16.31001,63.23287 -86.76572,99.73061 -157.36718,81.51997c-70.60149,-18.21064 -114.61339,-84.23366 -98.30338,-147.46653c16.31001,-63.23287 86.76572,-99.73061 157.36718,-81.51997z" fill="none" stroke="#000000"/><path d="M98.58225,10.82799c29.40927,-22.0032 72.90339,-26.84568 112.89729,-16.52982c38.89243,10.03175 76.25278,35.59011 93.86168,68.38047c14.82207,27.60082 13.60201,61.53373 7.90528,83.61958c-12.46457,48.32433 -75.27547,41.47362 -146.90514,22.99777c-71.62967,-18.47585 -122.01064,-40.15952 -109.54607,-88.48385c5.50506,-21.34277 18.52383,-52.57931 41.78696,-69.98414z" fill="#ffffff" stroke="#000000"/><path d="M56.07551,106.41985c0.92698,-3.59386 -5.52304,-15.4324 -2.45433,-27.04332c6.55564,-24.804 28.37304,-58.19598 60.18025,-75.65339c19.67296,-10.79755 68.57038,-12.4028 97.2025,-6.94565c11.89814,2.2677 10.87433,10.44284 17.79017,12.22669c12.00755,3.09718 -61.17182,-11.60398 -103.85344,9.32174c-47.8973,23.48282 -65.82956,83.30369 -47.42041,96.24805c20.00699,14.06788 62.44898,33.66729 102.75177,39.86489c63.11782,9.70601 125.6142,2.15656 123.9263,8.7004c-4.64106,17.99309 -73.69677,23.01817 -136.75825,6.75236c-63.06153,-16.26582 -116.00569,-45.47873 -111.36463,-63.47181z" fill="#d0d0d0" stroke="none"/><path d="M56.4425,81.10588c5.50506,-21.34277 18.5238,-52.57932 41.78692,-69.98415c29.40926,-22.00316 72.90339,-26.84568 112.89729,-16.52982c38.89247,10.03175 76.25278,35.59011 93.86168,68.38047c14.82203,27.60084 13.60197,61.53375 7.90524,83.6196c-12.46456,48.32429 -75.2755,41.47358 -146.90513,22.99773c-71.62963,-18.47584 -122.0106,-40.15951 -109.54604,-88.48381z" fill="none" stroke="#000000"/></g></g></g></svg>