<svg version="1.1" xmlns="http://www.w3.org/2000/svg" xmlns:xlink="http://www.w3.org/1999/xlink" width="311.84127" height="281" viewBox="0,0,311.84127,281"><g transform="translate(-83.15873,-39.5)"><g data-paper-data="{&quot;isPaintingLayer&quot;:true}" fill-rule="nonzero" stroke-linejoin="miter" stroke-miterlimit="10" stroke-dasharray="" stroke-dashoffset="0" style="mix-blend-mode: normal"><path d="M87,318.5v-277h306v277z" fill="#7d7d7d" stroke="#000000" stroke-width="4" stroke-linecap="butt"/><path d="M85.5,286.60092c0,51.91477 133.34161,-58 153.5,-58c20.15839,0 155.5,6.91477 155.5,-45c0,-24.37009 -43.82385,-44.37177 -77.55666,-72.53109c-38.12705,-31.82752 -67.2478,-70.46891 -77.94334,-70.46891c-11.86346,0 -47.92758,69.22081 -87.94333,135.12362c-27.979,46.07922 -65.55667,89.51409 -65.55667,110.87638z" fill="#606060" stroke="none" stroke-width="0" stroke-linecap="butt"/><path d="M230.5,178c0,0 -46.07274,34.53535 -69.26292,51.91831c-23.39708,17.53805 -70.50435,52.84887 -70.50435,52.84887l-5.25174,34.99529l307.01901,0.23753l-2,-146l-159,4" fill="#909090" stroke="#000000" stroke-width="4" stroke-linecap="round"/><path d="M88.5,284l149,-106l99,-4l55,-1" fill="none" stroke="#000000" stroke-width="4" stroke-linecap="round"/><path d="M389.5,67l-7,92l-118,-8l-15,-61l86,-19z" fill="#000000" stroke="#000000" stroke-width="4" stroke-linecap="round"/><path d="M110.5,268l-20,-45l55,-35l12,44" fill="#000000" stroke="#000000" stroke-width="4" stroke-linecap="round"/><path d="M200.5,206l-19,-87l54,-14l4,72" fill="#000000" stroke="#000000" stroke-width="4" stroke-linecap="round"/></g></g></svg>