<svg version="1.1" xmlns="http://www.w3.org/2000/svg" xmlns:xlink="http://www.w3.org/1999/xlink" width="90.594" height="83.69123" viewBox="0,0,90.594,83.69123"><defs><linearGradient x1="240" y1="131.86972" x2="240" y2="214.84565" gradientUnits="userSpaceOnUse" id="color-1"><stop offset="0" stop-color="#272727"/><stop offset="1" stop-color="#1d1d1d"/></linearGradient></defs><g transform="translate(-194.703,-131.15442)"><g data-paper-data="{&quot;isPaintingLayer&quot;:true}" fill-rule="nonzero" stroke="none" stroke-linecap="butt" stroke-linejoin="miter" stroke-miterlimit="10" stroke-dasharray="" stroke-dashoffset="0" style="mix-blend-mode: normal"><g><path d="M195.12048,214.84565l-0.41748,-64.73551l78.90445,-18.95572l11.68955,70.10035c0,0 -26.96604,7.15309 -28.38891,7.15309c-8.19438,0 -61.78762,6.43779 -61.78762,6.43779z" fill="url(#color-1)" stroke-width="NaN"/><path d="M220.35215,190.1625l13.8504,-36.08079l26.39111,36.94677l-23.25541,1.55414z" fill="#722020" stroke-width="0"/><path d="M237.70384,179.42524c2.76684,0 5.00981,2.07234 5.00981,4.6287c0,2.55637 -2.24297,4.6287 -5.00981,4.6287c-2.76684,0 -5.00981,-2.07234 -5.00981,-4.6287c0,-2.55637 2.24297,-4.6287 5.00981,-4.6287z" fill="#ffffff" stroke-width="0"/><path d="M236.45138,162.89412c1.61399,0 2.92239,3.33056 2.92239,7.43898c0,4.10842 -1.3084,7.43898 -2.92239,7.43898c-1.61398,0 -2.92238,-3.33056 -2.92238,-7.43898c0,-4.10842 1.30839,-7.43898 2.92238,-7.43898z" fill="#ffffff" stroke-width="0"/></g></g></g></svg>