<svg version="1.1" xmlns="http://www.w3.org/2000/svg" xmlns:xlink="http://www.w3.org/1999/xlink" width="146.5" height="114.5" viewBox="0,0,146.5,114.5"><defs><radialGradient cx="218.38702" cy="166.72596" r="50.69712" gradientUnits="userSpaceOnUse" id="color-1"><stop offset="0" stop-color="#000000" stop-opacity="0"/><stop offset="1" stop-color="#000000"/></radialGradient></defs><g transform="translate(-166.75,-121.75)"><g data-paper-data="{&quot;isPaintingLayer&quot;:true}" fill-rule="nonzero" stroke-linejoin="miter" stroke-miterlimit="10" stroke-dasharray="" stroke-dashoffset="0" style="mix-blend-mode: normal"><path d="M168.5,234.5v-109h143v109z" fill="#191919" stroke="#000000" stroke-width="3.5" stroke-linecap="butt"/><path d="M168.5,210.5v-87h99v87z" fill="#000000" stroke="#000000" stroke-width="3.5" stroke-linecap="butt"/><path d="M266.5,208.5l43,26" fill="none" stroke="#000000" stroke-width="3.5" stroke-linecap="round"/><path d="M266.5,128.5h42" fill="none" stroke="#000000" stroke-width="3.5" stroke-linecap="round"/><g stroke-linecap="butt"><path d="M181.85984,174.77517c0,-17.92778 16.22692,-32.46112 36.24385,-32.46112c20.01693,0 36.24385,14.53333 36.24385,32.46111c0,17.92778 -16.22692,32.46112 -36.24385,32.46112c-20.01693,0 -36.24385,-14.53334 -36.24385,-32.46112z" fill="#ffffff" stroke="#000000" stroke-width="0"/><path d="M187.20607,188.88526c0,-2.2349 13.04963,13.54746 31.3175,13.54746c18.26787,0 32.1972,-15.07859 32.1972,-12.84369c0,2.2349 -13.04963,16.53846 -31.3175,16.53846c-18.26787,0 -32.1972,-15.00732 -32.1972,-17.24222z" fill="#d0d0d0" stroke="none" stroke-width="0"/><path d="M218.7338,141.71257c20.01693,0 36.24385,14.53334 36.24385,32.46112c0,17.92778 -16.22693,32.46112 -36.24385,32.46112c-20.01693,0 -36.24385,-14.53334 -36.24385,-32.46112c0,-17.92778 16.22693,-32.46112 36.24385,-32.46112z" fill="none" stroke="#000000" stroke-width="3.5"/><path d="M188.90737,153.90295c6.30926,-7.86573 17.53943,-12.13533 28.8785,-12.13533c11.02678,0 22.71091,4.23255 29.64032,11.74193c5.83274,6.32091 7.83512,15.42508 7.83512,21.68686c0,13.70091 -17.167,16.18658 -37.47544,16.18658c-20.30844,0 -35.18821,-2.30973 -35.18821,-16.01064c0,-6.0511 1.319,-15.2475 6.30971,-21.4694z" fill="#ffffff" stroke="#000000" stroke-width="0"/><path d="M184.16219,182.2291c0,-1.01893 -2.52638,-3.72375 -2.50675,-7.02074c0.04195,-7.04325 3.55213,-17.41594 10.81054,-24.23767c4.48937,-4.21929 17.37789,-7.99882 25.36346,-8.51137c3.31842,-0.213 3.60681,2.03043 5.56759,2.03043c3.40438,0 -17.0572,1.1097 -26.96858,9.59906c-11.12255,9.52675 -11.78775,26.65874 -6.00641,28.83751c6.28314,2.36788 18.90955,4.6679 30.04835,3.55195c17.44437,-1.74768 33.54037,-8.03983 33.54037,-6.18452c0,5.1014 -18.01278,11.17225 -35.89197,11.17225c-17.8792,0 -33.95662,-4.1355 -33.95662,-9.2369z" fill="#d0d0d0" stroke="none" stroke-width="0"/><path d="M182.52402,175.47463c0,-6.0511 1.31899,-15.2475 6.3097,-21.4694c6.30926,-7.86572 17.53943,-12.13533 28.8785,-12.13533c11.02679,0 22.71091,4.23255 29.64032,11.74193c5.83273,6.32092 7.83511,15.42509 7.83511,21.68687c0,13.7009 -17.16701,16.18657 -37.47544,16.18657c-20.30843,0 -35.1882,-2.30973 -35.1882,-16.01063z" fill="none" stroke="#000000" stroke-width="3.5"/></g><path d="M167.6899,210.48558v-87.51923h101.39423v87.51923z" fill="url(#color-1)" stroke="none" stroke-width="0" stroke-linecap="butt"/></g></g></svg>