<svg version="1.1" xmlns="http://www.w3.org/2000/svg" xmlns:xlink="http://www.w3.org/1999/xlink" width="90.594" height="36.69123" viewBox="0,0,90.594,36.69123"><defs><linearGradient x1="240" y1="131.468" x2="240" y2="167.84564" gradientUnits="userSpaceOnUse" id="color-1"><stop offset="0" stop-color="#272727"/><stop offset="1" stop-color="#1d1d1d"/></linearGradient></defs><g transform="translate(-194.703,-131.15441)"><g data-paper-data="{&quot;isPaintingLayer&quot;:true}" fill-rule="nonzero" stroke="none" stroke-linecap="butt" stroke-linejoin="miter" stroke-miterlimit="10" stroke-dasharray="" stroke-dashoffset="0" style="mix-blend-mode: normal"><path d="M195.12048,167.84564l-0.41748,-28.38082l78.90445,-8.31041l11.68955,30.73283c0,0 -26.96604,3.136 -28.38891,3.136c-8.19438,0 -61.78762,2.8224 -61.78762,2.8224z" fill="url(#color-1)" stroke-width="NaN"/><path d="M220.35215,159.13946l13.8504,-17.1116l26.39111,17.5223l-23.25541,0.73706z" fill="#722020" stroke-width="0"/><path d="M237.70384,154.04722c2.76684,0 5.00981,0.98282 5.00981,2.1952c0,1.21238 -2.24297,2.1952 -5.00981,2.1952c-2.76684,0 -5.00981,-0.98282 -5.00981,-2.1952c0,-1.21238 2.24297,-2.1952 5.00981,-2.1952z" fill="#ffffff" stroke-width="0"/><path d="M236.45138,146.20721c1.61399,0 2.92239,1.57954 2.92239,3.528c0,1.94846 -1.3084,3.528 -2.92239,3.528c-1.61398,0 -2.92238,-1.57954 -2.92238,-3.528c0,-1.94846 1.30839,-3.528 2.92238,-3.528z" fill="#ffffff" stroke-width="0"/></g></g></svg>