<svg version="1.1" xmlns="http://www.w3.org/2000/svg" xmlns:xlink="http://www.w3.org/1999/xlink" width="190.03606" height="335.80106" viewBox="0,0,190.03606,335.80106"><g transform="translate(-71.10603,17.06953)"><g data-paper-data="{&quot;isPaintingLayer&quot;:true}" fill-rule="nonzero" stroke-width="3.5" stroke-linejoin="miter" stroke-miterlimit="10" stroke-dasharray="" stroke-dashoffset="0" style="mix-blend-mode: normal"><g fill="none" stroke="#000000" stroke-linecap="round"><path d="M241.5215,-4.96821l3.6534,205.19952"/><g><g><path d="M72.85603,-11.6661l38.36073,172.92777"/><path d="M77.11833,139.95013l21.92043,60.89007"/></g><path d="M157.49321,-15.31953v56.62775"/></g></g><g stroke-linecap="butt"><path d="M180.5107,213.62945c-5.44848,-0.46744 -9.23374,-8.20781 -8.45467,-17.28858c0.77907,-9.08077 5.82749,-16.06327 11.27596,-15.59582c5.44848,0.46744 9.23376,8.20781 8.45469,17.28858c-0.77907,9.08077 -5.82749,16.06327 -11.27596,15.59582z" fill="none" stroke="#000000"/><path d="M178.88426,234.45945c-5.32848,-1.22947 -7.98692,-9.42547 -5.93779,-18.30626c2.04913,-8.88079 8.02984,-15.08342 13.35832,-13.85395c5.32848,1.22947 7.98692,9.42547 5.93779,18.30626c-2.04913,8.88079 -8.02984,15.08344 -13.35832,13.85397z" fill="none" stroke="#000000"/><path d="M175.46453,253.29229c-5.41431,-0.76775 -8.76617,-8.70545 -7.48659,-17.72931c1.27958,-9.02386 6.70607,-15.71676 12.1204,-14.949c5.41431,0.76775 8.76619,8.70543 7.48661,17.72929c-1.27958,9.02386 -6.70609,15.71676 -12.1204,14.94902z" fill="none" stroke="#000000"/><path d="M171.67556,276.06969c-5.25241,-1.52198 -7.45399,-9.85233 -4.91734,-18.60635c2.53665,-8.75404 8.85092,-14.61675 14.10333,-13.09477c5.25241,1.52198 7.45397,9.85233 4.91734,18.60635c-2.53665,8.75404 -8.85092,14.61675 -14.10333,13.09477z" fill="none" stroke="#000000"/><g><path d="M208.84152,294.34853c0.8739,12.34915 -24.77458,17.60775 -36.74493,18.45485c-11.97035,0.8471 -22.38267,-8.47717 -23.25657,-20.8263c-0.8739,-12.34915 8.12153,-23.04684 20.09188,-23.89392c11.97035,-0.8471 39.03572,13.91623 39.90962,26.26537z" fill="#00ffe6" stroke="#000000"/><path d="M209.30469,296.9305c0.45036,6.36398 -26.52409,13.182 -37.88835,13.9862c-11.36425,0.8042 -20.94187,-3.70287 -21.39223,-10.06685c-0.28198,-3.98457 20.69925,6.77257 30.24336,1.9968c3.21908,-1.6108 23.33529,-0.42794 20.11324,-9.42885c-2.48254,-6.93507 -28.5712,-24.71577 -26.72212,-24.84664c11.36425,-0.8042 35.19574,21.99535 35.6461,28.35933z" fill="#00d6c0" stroke="none"/><path d="M208.37483,295.47979c0.8739,12.34915 -24.55847,16.76526 -36.52882,17.61237c-11.97035,0.8471 -22.38265,-8.47717 -23.25657,-20.8263c-0.8739,-12.34915 8.12153,-23.04682 20.09186,-23.89392c11.97035,-0.8471 38.81961,14.75872 39.69351,27.10785z" fill="none" stroke="#000000"/></g></g><g stroke-linecap="butt"><path d="M140.50591,203.86587c1.2255,-9.03137 6.61177,-15.75667 12.0306,-15.02137c5.41883,0.73531 8.81818,8.65275 7.59268,17.68413c-1.2255,9.03137 -6.61177,15.75667 -12.0306,15.02137c-5.41883,-0.73531 -8.81818,-8.65275 -7.59268,-17.68413z" fill="none" stroke="#000000"/><path d="M145.13072,242.23156c-5.46839,0.03453 -9.948,-7.32582 -10.00554,-16.43977c-0.05754,-9.11396 4.3288,-16.53028 9.79717,-16.5648c5.46837,-0.03453 9.948,7.32582 10.00554,16.43977c0.05754,9.11396 -4.32882,16.53028 -9.79719,16.5648z" fill="none" stroke="#000000"/><path d="M142.45693,261.24616c-5.45894,0.32273 -10.32035,-6.79125 -10.85822,-15.88949c-0.53788,-9.09824 3.45144,-16.73547 8.91038,-17.0582c5.45894,-0.32273 10.32035,6.79123 10.85822,15.88947c0.53788,9.09824 -3.45144,16.73547 -8.91038,17.0582z" fill="none" stroke="#000000"/><path d="M131.38581,270.05352c-1.8128,-8.93203 1.06215,-17.05462 6.42138,-18.14228c5.35923,-1.08767 11.17329,5.27144 12.98607,14.20349c1.8128,8.93203 -1.06215,17.05462 -6.42138,18.14228c-5.35923,1.08767 -11.17329,-5.27144 -12.98607,-14.20349z" fill="none" stroke="#000000"/><g><path d="M141.61447,270.78053c11.74617,-2.4564 23.32267,5.3758 25.85679,17.4937c2.53412,12.11789 -4.93371,23.93269 -16.67988,26.38909c-11.74617,2.4564 -37.85542,4.40717 -40.38954,-7.71072c-2.53414,-12.11789 19.46646,-33.71567 31.21264,-36.17207z" fill="#00ffe6" stroke="#000000"/><path d="M110.66192,309.56283c-1.30593,-6.2448 15.38774,-34.68916 26.53918,-37.02119c1.81445,-0.37944 -18.42201,23.85397 -18.91484,31.20347c-0.63965,9.53881 18.38757,2.9036 21.92433,3.57339c10.48593,1.9858 27.72878,-14.09563 28.54644,-10.18569c1.30593,6.2448 -6.67542,13.1977 -17.82687,15.52972c-11.15144,2.33202 -38.96233,3.1451 -40.26826,-3.09969z" fill="#00d6c0" stroke="none"/><path d="M111.15993,307.91324c-2.53414,-12.11789 19.02834,-34.46703 30.77452,-36.92342c11.74617,-2.4564 23.32267,5.3758 25.85679,17.4937c2.53412,12.11789 -4.93371,23.93269 -16.67988,26.38909c-11.74619,2.4564 -37.41732,5.15853 -39.95144,-6.95936z" fill="none" stroke="#000000"/></g></g><g><path d="M163.95564,149.6796c0,-15.26617 6.03392,-27.64186 13.47714,-27.64186c4.49789,0 16.45742,2.59397 18.90551,9.53934c1.60308,4.548 -5.42838,12.06161 -5.42838,18.10254c0,5.60366 5.78808,12.19307 4.39082,16.54873c-2.4093,7.51055 -13.15687,11.09315 -17.86794,11.09315c-7.44322,0 -13.47714,-12.3757 -13.47714,-27.64188z" fill="#ffffff" stroke="#000000" stroke-linecap="butt"/><path d="M166.01383,120.38281c7.47985,0 12.06491,19.34368 18.44188,31.02249c4.17769,7.65099 11.95041,8.08743 11.95041,11.33418c0,8.20274 -7.56061,19.25304 -19.94065,19.25304c-12.38004,0 -22.41604,-6.64962 -22.41604,-14.85234c0,-8.20272 -0.41562,-46.75737 11.9644,-46.75737z" fill="#cecece" stroke="none" stroke-linecap="butt"/><path d="M163.95096,150.50006c0,-15.26619 6.0339,-27.64186 13.47712,-27.64186c4.49789,0 16.45742,2.59395 18.90551,9.53932c1.60308,4.548 -5.42838,12.06161 -5.42838,18.10254c0,5.60366 5.78808,12.19307 4.39082,16.54873c-2.4093,7.51055 -13.15687,11.09315 -17.86794,11.09315c-7.44322,0 -13.47712,-12.3757 -13.47712,-27.64188z" fill="none" stroke="#000000" stroke-linecap="butt"/><path d="M133.42589,142.11594c0,-13.24814 -6.04095,-31.60688 -1.09724,-40.4918c5.25947,-9.45237 21.75514,-9.016 29.97679,-9.016c9.27277,0 21.65047,-4.61009 26.93448,7.03531c1.44165,3.17728 0.84596,14.52609 -2.39366,21.04939c-2.24247,4.51538 -6.75453,3.71022 -8.60973,8.65701c-2.53805,6.76763 -1.62884,14.43489 -1.62884,18.542c0,10.90919 19.94521,22.91957 16.45805,31.10152c-5.25291,12.325 -21.17429,12.63038 -30.76032,12.63038c-6.15964,0 -19.57007,0.54478 -24.25812,-5.08834c-0.33934,-0.40776 -0.39829,-0.55268 -0.72672,-0.98445c-6.88304,-9.04889 -3.89471,-27.41634 -3.89471,-43.43503z" fill="#00ffe6" stroke="#000000" stroke-linecap="butt"/><path d="M133.14613,175.25398c0,-5.33418 0.63867,-17.72082 0.55983,-37.26619c-0.04022,-9.96976 -5.26458,-21.66719 -4.21361,-30.44254c0.70636,-5.89782 6.81098,-11.07891 9.60244,-11.26344c0.61868,-0.04091 -1.91321,50.5252 4.74515,67.80264c4.40565,11.43194 18.86532,15.98279 19.28591,15.98279c7.17553,0 12.96011,-4.20208 18.35856,-16.44437c3.58467,-8.12911 10.08958,8.4263 12.01356,8.22728c1.8644,-0.19285 -0.39239,0.45987 -0.39239,3.40381c0,10.55718 -13.42238,19.11551 -29.97972,19.11551c-16.55734,0 -29.97972,-8.55831 -29.97972,-19.11551z" fill="#00d6c0" stroke="none" stroke-linecap="butt"/><path d="M133.97128,142.66133c0,-13.24814 -6.04095,-31.60688 -1.09724,-40.4918c5.25947,-9.45237 21.75514,-9.016 29.97679,-9.016c9.27277,0 21.65047,-4.61009 26.93448,7.03531c1.65631,3.65036 1.44623,18.18439 -2.9628,25.3843c-2.04797,3.34431 -8.2374,-1.58046 -9.72382,2.16155c-2.66455,6.7079 -0.49571,15.72852 -0.49571,19.87744c0,10.90919 20.4953,23.74468 17.00815,31.92663c-5.25289,12.325 -21.17427,12.63038 -30.7603,12.63038c-6.15964,0 -19.57007,0.54478 -24.25812,-5.08834c-0.33934,-0.40776 -0.39831,-0.55266 -0.72674,-0.98443c-6.88304,-9.04887 -3.89471,-27.41634 -3.89471,-43.43503z" fill="none" stroke="#000000" stroke-linecap="butt"/><path d="M136.99673,102.78003l4.67574,3.57555l3.02547,7.15113l-1.9253,6.05096l-7.70123,16.77765" fill="none" stroke="#000000" stroke-linecap="round"/><path d="M136.99673,126.98385l7.15113,3.30051" fill="none" stroke="#000000" stroke-linecap="round"/><path d="M138.92203,122.03308l7.15113,-0.27504" fill="none" stroke="#000000" stroke-linecap="round"/><path d="M137.27179,107.18071l3.8506,-4.12564" fill="none" stroke="#000000" stroke-linecap="round"/><path d="M147.17334,108.2809l-6.60104,3.57555" fill="none" stroke="#000000" stroke-linecap="round"/><path d="M146.07316,115.98213l-7.42617,1.37521" fill="none" stroke="#000000" stroke-linecap="round"/><path d="M184.57925,124.23342l-9.62653,-0.82513l-2.47538,-1.9253l0.27504,-3.30053l1.65026,-4.4007l1.10017,-2.75043l4.12564,-3.30053l-4.12564,-3.30051l-3.57557,1.9253l-1.9253,4.4007l-1.65026,2.75043h-4.95077l-4.4007,-3.57557l1.9253,-5.22581l3.57555,-1.9253l0.82513,-4.12564" fill="none" stroke="#000000" stroke-linecap="round"/><path d="M163.12585,106.3556l-5.77591,0.5501" fill="none" stroke="#000000" stroke-linecap="round"/><path d="M160.10038,116.25717l4.12564,-6.60104" fill="none" stroke="#000000" stroke-linecap="round"/><path d="M167.25151,110.48125l1.9253,5.22583" fill="none" stroke="#000000" stroke-linecap="round"/><path d="M168.90178,104.70534l4.40068,4.12564" fill="none" stroke="#000000" stroke-linecap="round"/><path d="M181.27872,103.8802l-4.12564,3.57557" fill="none" stroke="#000000" stroke-linecap="round"/><path d="M173.85255,111.85647h4.67574" fill="none" stroke="#000000" stroke-linecap="round"/><path d="M170.82706,118.18247l6.05096,-2.75043" fill="none" stroke="#000000" stroke-linecap="round"/><path d="M173.57749,122.85821l2.20036,-2.75043" fill="none" stroke="#000000" stroke-linecap="round"/><path d="M172.75238,146.78699l-10.45164,2.4754v6.05094l-6.05096,2.47538l-1.65026,4.67574h-4.67574l-5.50087,2.47538l-5.22581,0.27506l-3.02547,3.02547" fill="none" stroke="#000000" stroke-linecap="round"/><path d="M141.94752,161.08924l0.5501,7.70123" fill="none" stroke="#000000" stroke-linecap="round"/><path d="M149.09864,167.41522l-2.47538,-7.97625" fill="none" stroke="#000000" stroke-linecap="round"/><path d="M152.67421,156.68854l4.4007,9.90157" fill="none" stroke="#000000" stroke-linecap="round"/><path d="M158.17507,151.18767l5.77591,6.87608" fill="none" stroke="#000000" stroke-linecap="round"/><path d="M164.22604,144.03653l2.47538,7.15113" fill="none" stroke="#000000" stroke-linecap="round"/><path d="M175.22775,152.01282l-3.8506,-7.70123" fill="none" stroke="#000000" stroke-linecap="round"/></g><path d="M177.32795,23.19234l7.15113,4.95077" fill="none" stroke="#000000" stroke-linecap="round"/><g><g data-paper-data="{&quot;index&quot;:null}" stroke-linecap="butt"><path d="M212.37845,70.70901c0.28847,5.61297 3.74729,10.27285 -5.50654,10.74844c-9.25382,0.47559 -27.71607,-3.41321 -28.00454,-9.02618c-0.28847,-5.61297 17.31844,-13.00794 26.57226,-13.48353c9.25382,-0.47559 6.65033,6.14828 6.9388,11.76127z" fill="#808080" stroke="#000000"/><path d="M213.04578,78.24371c0.13644,2.65479 -3.65306,2.2533 -9.64529,2.56126c-5.99223,0.30796 -10.96052,-1.59451 -11.09696,-4.24931c-0.06975,-1.35719 9.24626,0.59368 13.20041,-3.37077c3.78053,-3.79037 2.13521,-13.52866 5.06407,-13.67919c5.99223,-0.30796 2.34133,16.08321 2.47777,18.738z" fill="#5f5f5f" stroke="none"/><path d="M212.07995,70.16884c0.28847,5.61297 3.74729,10.27287 -5.50652,10.74845c-9.25382,0.47559 -27.71607,-3.41321 -28.00454,-9.0262c-0.28847,-5.61297 17.31844,-13.00794 26.57226,-13.48353c9.25382,-0.47559 6.65033,6.14828 6.9388,11.76127z" fill="none" stroke="#000000"/></g><g stroke-linecap="butt"><path d="M103.86087,87.29768c-0.28847,-5.61299 -3.5573,-11.93506 5.69652,-12.41065c9.25382,-0.47559 27.52607,5.07542 27.81454,10.68839c0.28847,5.61299 -17.67783,11.37398 -26.93166,11.84957c-9.25384,0.47559 -6.29096,-4.51435 -6.57943,-10.12731z" fill="#808080" stroke="#000000"/><path d="M103.96949,94.8611c-0.13644,-2.65479 -5.44847,-18.58533 0.54376,-18.89329c2.92885,-0.15052 2.29055,9.70517 6.43973,13.08799c4.33972,3.53816 13.40665,0.64254 13.4764,1.99973c0.13644,2.65479 -4.61063,5.05658 -10.60286,5.36454c-5.99223,0.30796 -9.72061,1.09582 -9.85705,-1.55896z" fill="#5f5f5f" stroke="none"/><path d="M104.10236,86.72979c-0.28847,-5.61299 -3.5573,-11.93506 5.69652,-12.41065c9.25384,-0.47559 27.52609,5.07541 27.81456,10.68839c0.28847,5.61299 -17.67783,11.37398 -26.93166,11.84957c-9.25382,0.47559 -6.29094,-4.51435 -6.57941,-10.12731z" fill="none" stroke="#000000"/></g><path d="M194.88405,36.09776c11.14038,21.95217 2.13684,48.90019 -20.10999,60.1901c-22.24681,11.28991 -49.31249,2.64645 -60.45286,-19.30572c-11.14038,-21.95217 -2.13684,-48.90019 20.10999,-60.1901c22.24681,-11.28991 49.3125,-2.64643 60.45286,19.30572z" fill="#00ffe6" stroke="#000000" stroke-linecap="butt"/><path d="M147.83992,38.82378c16.91714,-2.41743 31.54574,2.02277 32.67388,9.91743c1.12814,7.89468 -11.67138,16.25429 -28.58855,18.67172c-16.91716,2.41743 -31.54576,-2.02279 -32.6739,-9.91745c-1.12814,-7.89468 11.6714,-16.25427 28.58857,-18.6717z" fill="#00d6c0" stroke="none" stroke-linecap="butt"/><path d="M160.78354,73.00561c16.31675,-10.12797 24.29773,-35.40565 33.5593,-35.88164c4.98135,-0.25601 3.21568,15.68419 3.95361,18.86266c1.95075,8.40245 -2.99794,11.38903 -2.61648,18.81125c0.52575,10.2299 -22.5398,23.32472 -40.68959,24.25751c-18.14979,0.93279 -33.28933,-6.604 -33.81509,-16.83389c-0.25747,-5.00973 23.94921,0.50386 39.60825,-9.21588z" fill="#00d6c0" stroke="none" stroke-linecap="butt"/><path d="M194.88405,36.09776c11.14038,21.95217 2.13684,48.90019 -20.10999,60.1901c-22.24681,11.28991 -49.31249,2.64645 -60.45286,-19.30572c-11.14038,-21.95217 -2.13684,-48.90019 20.10999,-60.1901c22.24681,-11.28991 49.3125,-2.64643 60.45286,19.30572z" fill="none" stroke="#000000" stroke-linecap="butt"/><path d="M198.63419,50.68249l-12.79081,19.22915l-10.28052,-1.86799l-1.77587,12.07305l-19.45815,-5.58997l-5.54519,8.67225l-21.87889,-6.06464l-3.27799,6.15935" fill="none" stroke="#000000" stroke-linecap="round"/><path d="M131.81214,41.79147c8.19191,-0.42101 15.1867,6.12451 15.62331,14.61983c0.43661,8.49532 -5.85031,15.72344 -14.04222,16.14445c-8.19191,0.42101 -15.1867,-6.12451 -15.62331,-14.61983c-0.43661,-8.49532 5.85031,-15.72344 14.04222,-16.14445z" fill="#ff0000" stroke="#000000" stroke-linecap="butt"/><path d="M168.03904,33.87537c7.43338,-0.38203 13.8133,6.19509 14.2499,14.69041c0.43661,8.49532 -5.2354,15.69183 -12.66881,16.07387c-7.43338,0.38203 -13.8133,-6.19509 -14.2499,-14.69041c-0.43661,-8.49532 5.2354,-15.69183 12.66881,-16.07387z" fill="#ff0000" stroke="#000000" stroke-linecap="butt"/><path d="M121.59772,25.2412l10.76377,16.52202" fill="none" stroke="#000000" stroke-linecap="round"/><path d="M129.5288,29.51553l-7.14816,5.6001" fill="none" stroke="#000000" stroke-linecap="round"/><path d="M132.81852,34.57919l-8.63451,3.47322" fill="none" stroke="#000000" stroke-linecap="round"/><path d="M172.21079,34.75791l7.34461,-12.49535" fill="none" stroke="#000000" stroke-linecap="round"/><path d="M179.47189,31.35526l-9.36091,-5.30244" fill="none" stroke="#000000" stroke-linecap="round"/><path d="M142.16889,71.8293l2.6633,8.95152" fill="none" stroke="#000000" stroke-linecap="round"/><path d="M140.51435,77.14707l7.00054,-3.11384" fill="none" stroke="#000000" stroke-linecap="round"/><path d="M170.27868,77.54521l-1.40281,-11.21957" fill="none" stroke="#000000" stroke-linecap="round"/><path d="M165.79146,70.61525l7.8528,-2.60683" fill="none" stroke="#000000" stroke-linecap="round"/></g><g stroke-linecap="butt"><path d="M120.26929,134.50355c-5.28401,-1.40844 -7.66458,-9.68941 -5.31718,-18.49606c2.3474,-8.80665 8.53386,-14.8041 13.81784,-13.39567c5.28399,1.40844 7.66458,9.68941 5.31718,18.49606c-2.3474,8.80665 -8.53388,14.8041 -13.81786,13.39567z" fill="none" stroke="#000000"/><path d="M114.85885,156.95112c-5.42962,-0.65089 -8.95176,-8.51447 -7.86694,-17.56382c1.08482,-9.04933 6.36581,-15.85764 11.79541,-15.20675c5.4296,0.65089 8.95176,8.51449 7.86694,17.56384c-1.08482,9.04935 -6.36581,15.85764 -11.79541,15.20675z" fill="none" stroke="#000000"/><path d="M100.61946,156.37681c0.41377,-9.10472 5.17774,-16.28434 10.64057,-16.03606c5.46283,0.24826 9.55589,7.83037 9.14213,16.93511c-0.41377,9.10472 -5.17772,16.28434 -10.64055,16.03606c-5.46283,-0.24826 -9.55591,-7.83037 -9.14215,-16.93511z" fill="none" stroke="#000000"/><path d="M97.83244,180.91684c-0.87152,-9.07238 2.83476,-16.85089 8.27818,-17.3738c5.44343,-0.52289 10.56268,6.40784 11.4342,15.4802c0.87152,9.07236 -2.83476,16.85087 -8.27818,17.37378c-5.44343,0.52291 -10.56268,-6.40782 -11.4342,-15.48018z" fill="none" stroke="#000000"/><path d="M106.64648,184.29776c12.00028,0 21.72842,10.036 21.72842,22.41602c0,12.38002 -9.72814,22.41602 -21.72842,22.41602c-12.00028,0 -21.72842,-10.036 -21.72842,-22.41602c0,-12.38002 9.72814,-22.41602 21.72842,-22.41602z" fill="#00ffe6" stroke="#000000"/><path d="M101.96606,185.11819c1.85369,0 -4.21178,6.37589 -6.19859,13.46889c-2.57866,9.20588 -1.29907,19.80805 2.02569,21.18761c9.85742,4.09017 30.02696,-8.12123 30.02696,-4.1267c0,6.3799 -9.23557,11.55183 -20.62825,11.55183c-11.39268,0 -20.62825,-5.17193 -20.62825,-11.55183c0,-6.37988 4.00976,-30.5298 15.40244,-30.5298z" fill="#00d6c0" stroke="none"/><path d="M106.91686,184.56809c12.00028,0 21.72842,10.03602 21.72842,22.41604c0,12.38002 -9.72814,22.41602 -21.72842,22.41602c-12.00028,0 -21.72844,-10.03598 -21.72844,-22.41602c0,-12.38004 9.72816,-22.41604 21.72844,-22.41604z" fill="none" stroke="#000000"/></g><g stroke-linecap="butt"><path d="M197.6367,129.90894c-5.28401,1.40844 -11.47044,-4.58901 -13.81786,-13.39567c-2.3474,-8.80665 0.03317,-17.08762 5.31718,-18.49606c5.28401,-1.40844 11.47046,4.58901 13.81786,13.39567c2.3474,8.80665 -0.03317,17.08762 -5.31718,18.49606z" fill="none" stroke="#000000"/><path d="M203.65016,152.41765c-5.36764,1.04531 -11.13133,-5.35949 -12.87353,-14.30557c-1.7422,-8.94608 1.19681,-17.0457 6.56445,-18.09101c5.36764,-1.04531 11.13131,5.35949 12.87351,14.30557c1.7422,8.94608 -1.19679,17.0457 -6.56443,18.09103z" fill="none" stroke="#000000"/><path d="M230.98466,158.51325c-2.25742,4.98081 -10.81699,5.96854 -19.1183,2.20616c-8.30131,-3.76237 -13.20088,-10.8501 -10.94346,-15.83089c2.25742,-4.98081 10.81699,-5.96854 19.1183,-2.20616c8.30131,3.76237 13.2009,10.8501 10.94348,15.83089z" fill="none" stroke="#000000"/><path d="M236.57387,183.68865c-4.5928,1.83618 -11.18848,-3.47581 -14.73188,-11.86464c-3.54339,-8.38883 -2.69269,-16.67783 1.90011,-18.514c4.5928,-1.83618 11.18848,3.47581 14.73188,11.86464c3.54339,8.38883 2.69269,16.67783 -1.90011,18.514z" fill="none" stroke="#000000"/><path d="M259.39209,191.6675c0,12.38004 -9.72816,22.41604 -21.72844,22.41604c-12.00028,0 -21.72842,-10.036 -21.72842,-22.41604c0,-12.38002 9.72814,-22.41602 21.72842,-22.41602c12.00028,0 21.72844,10.036 21.72844,22.41602z" fill="#00ffe6" stroke="#000000"/><path d="M257.74651,200.60172c0,6.3799 -9.23559,11.55181 -20.62825,11.55181c-11.39266,0 -20.62825,-5.17193 -20.62825,-11.55181c0,-3.99453 20.16952,8.21685 30.02696,4.1267c3.32476,-1.37956 4.60435,-11.98171 2.02569,-21.18761c-1.9868,-7.093 -8.05228,-13.46889 -6.19859,-13.46889c11.39266,0 15.40244,24.14992 15.40244,30.52982z" fill="#00d6c0" stroke="none"/><path d="M259.12174,191.93785c0,12.38004 -9.72816,22.41604 -21.72844,22.41604c-12.00028,0 -21.72842,-10.036 -21.72842,-22.41604c0,-12.38002 9.72814,-22.41602 21.72842,-22.41602c12.00028,0 21.72844,10.036 21.72844,22.41602z" fill="none" stroke="#000000"/></g></g></g></svg>