<svg version="1.1" xmlns="http://www.w3.org/2000/svg" xmlns:xlink="http://www.w3.org/1999/xlink" width="395.11765" height="778.61191" viewBox="0,0,395.11765,778.61191"><g transform="translate(105.08518,43.28753)"><g data-paper-data="{&quot;isPaintingLayer&quot;:true}" fill-rule="nonzero" stroke-width="7.5" stroke-linejoin="miter" stroke-miterlimit="10" stroke-dasharray="" stroke-dashoffset="0" style="mix-blend-mode: normal"><g data-paper-data="{&quot;index&quot;:null}" stroke-linecap="butt"><g><path d="M170.10049,692.15622c-0.77331,8.02581 4.8266,19.99131 -5.29181,24.61781c-11.73685,5.36651 -40.43148,2.6566 -58.43544,0.92186c-16.80281,-1.619 -38.16017,-4.81839 -48.60181,-11.58166c-10.39161,-6.73092 -9.90979,-17.00889 -9.07663,-25.65581c1.67032,-17.33544 30.20197,-28.76993 63.7272,-25.53967c33.52521,3.23025 59.34874,19.90203 57.67842,37.23746z" fill="#444444" stroke="#000000"/><path d="M169.72105,708.89601c-0.89367,9.275 -29.16932,14.13923 -63.15538,10.86457c-33.98605,-3.27466 -60.81275,-13.44816 -59.91908,-22.72316c0.89367,-9.275 -0.98374,-42.06568 33.00234,-38.79102c5.78947,0.55783 -8.45835,7.19334 -17.2984,16.25831c-8.10557,8.31177 -10.95831,18.99128 -4.65114,21.99513c14.07236,6.70213 50.74769,14.03638 76.01755,14.70466c23.5631,0.62314 36.29454,-5.3225 36.00413,-2.3085z" fill="#282828" stroke="none"/><path d="M168.73971,692.8606c-0.77331,8.02581 4.82664,19.99132 -5.29174,24.61781c-11.73685,5.36651 -40.43148,2.65657 -58.43544,0.92184c-16.80281,-1.619 -38.16013,-4.81836 -48.60176,-11.58166c-10.39161,-6.73092 -9.90979,-17.00886 -9.07664,-25.65576c1.67032,-17.33541 30.20195,-28.76993 63.72718,-25.53967c33.52525,3.23026 59.34876,19.90203 57.67844,37.23747z" fill="none" stroke="#000000"/></g><g><path d="M196.6697,701.9456c-0.77331,8.02581 1.01531,19.62409 -3.64388,24.77659c-5.40444,5.97666 -17.75648,4.8414 -25.50469,4.09484c-7.2313,-0.69676 -16.36059,-2.71796 -20.54117,-8.87796c-4.16057,-6.13054 -3.39177,-16.38083 -2.55861,-25.02775c1.67032,-17.33544 14.72057,-30.26161 29.14855,-28.87143c14.42798,1.39018 24.7701,16.57027 23.09978,33.90571z" fill="#444444" stroke="#000000"/><path d="M195.59411,718.61835c-0.89367,9.275 -13.4751,15.65141 -28.10139,14.24213c-14.62631,-1.40929 -25.75881,-10.07061 -24.86513,-19.34561c0.89367,-9.275 1.85906,-41.79179 16.48538,-40.38251c2.49157,0.24007 -4.07567,7.61567 -8.41936,17.11388c-3.98282,8.70901 -5.80621,19.48768 -3.22215,22.13282c5.76547,5.90173 21.34245,11.20307 32.31371,10.49364c10.23024,-0.66152 16.09939,-7.26837 15.80898,-4.25437z" fill="#282828" stroke="none"/><path d="M196.03866,702.72029c-0.77331,8.02581 1.01533,19.62411 -3.64385,24.77659c-5.40444,5.97666 -17.7565,4.84135 -25.50471,4.09479c-7.2313,-0.69676 -16.36057,-2.71791 -20.54115,-8.87793c-4.16057,-6.13054 -3.39177,-16.38083 -2.55861,-25.02773c1.67032,-17.33541 14.72057,-30.26158 29.14855,-28.87141c14.42798,1.39018 24.7701,16.57027 23.09979,33.90569z" fill="none" stroke="#000000"/></g><g><path d="M120.30546,697.29868c-0.77331,8.02581 1.01531,19.62411 -3.64388,24.77659c-5.40444,5.97666 -17.75648,4.8414 -25.50469,4.09484c-7.2313,-0.69676 -16.36061,-2.71796 -20.54119,-8.87796c-4.16057,-6.13054 -3.39175,-16.38083 -2.55859,-25.02775c1.67032,-17.33544 14.72057,-30.26158 29.14855,-28.87141c14.42795,1.39018 24.7701,16.57027 23.09979,33.90569z" fill="#444444" stroke="#000000"/><path d="M119.22983,713.97142c-0.89367,9.275 -13.4751,15.65141 -28.10141,14.24212c-14.62631,-1.40929 -25.75881,-10.07061 -24.86513,-19.34561c0.89367,-9.275 1.85908,-41.79177 16.48538,-40.38248c2.49157,0.24007 -4.07566,7.61562 -8.41936,17.11383c-3.98282,8.70901 -5.80624,19.48772 -3.22218,22.13284c5.76547,5.90173 21.34248,11.20307 32.31373,10.49364c10.23022,-0.66152 16.09941,-7.26836 15.809,-4.25436z" fill="#282828" stroke="none"/><path d="M119.6744,698.07339c-0.77331,8.02581 1.01533,19.62409 -3.64383,24.77659c-5.40444,5.97666 -17.7565,4.84138 -25.50471,4.09481c-7.2313,-0.69676 -16.36057,-2.71791 -20.54117,-8.87794c-4.16057,-6.13054 -3.39177,-16.38083 -2.55861,-25.02773c1.67032,-17.33541 14.72057,-30.26161 29.14855,-28.87143c14.42798,1.39018 24.77013,16.57028 23.09981,33.90571z" fill="none" stroke="#000000"/></g><g><path d="M164.56623,697.49684c-0.77331,8.02581 1.01531,19.62409 -3.64388,24.77659c-5.40444,5.97666 -17.75648,4.84138 -25.50471,4.09481c-7.2313,-0.69676 -16.36059,-2.71793 -20.54117,-8.87794c-4.16057,-6.13054 -3.39177,-16.38083 -2.55861,-25.02773c1.67032,-17.33544 14.72057,-30.26161 29.14855,-28.87143c14.42795,1.39018 24.7701,16.57027 23.09978,33.90571z" fill="#444444" stroke="#000000"/><path d="M163.49061,714.16956c-0.89367,9.275 -13.4751,15.65141 -28.10139,14.24213c-14.62631,-1.40929 -25.75878,-10.0706 -24.86511,-19.34561c0.89367,-9.275 1.85906,-41.79179 16.48535,-40.38251c2.49157,0.24007 -4.07566,7.61565 -8.41936,17.11385c-3.98282,8.70901 -5.80626,19.4877 -3.22218,22.13282c5.76547,5.90173 21.34248,11.20307 32.31373,10.49364c10.23022,-0.66152 16.09941,-7.26834 15.809,-4.25436z" fill="#282828" stroke="none"/><path d="M163.93516,698.2715c-0.77331,8.02581 1.01533,19.62411 -3.64383,24.77662c-5.40444,5.97666 -17.75648,4.84135 -25.50469,4.09479c-7.2313,-0.69676 -16.36059,-2.71789 -20.54118,-8.87791c-4.16057,-6.13054 -3.39174,-16.38085 -2.55859,-25.02777c1.67032,-17.33541 14.72057,-30.26158 29.14855,-28.87141c14.42798,1.39018 24.77011,16.57025 23.09979,33.90569z" fill="none" stroke="#000000"/></g></g><g stroke-linecap="butt"><g><path d="M-73.38562,664.01744c1.67032,-17.33544 30.202,-28.76993 63.72718,-25.53967c33.52525,3.23026 59.34876,19.90203 57.67844,37.23747c-0.83316,8.64692 -2.32258,18.82778 -13.8082,23.45076c-11.54087,4.64519 -33.11619,3.70789 -49.91901,2.08889c-18.00396,-1.73473 -46.68809,-4.55341 -57.18439,-12.06218c-9.04888,-6.47332 -1.26741,-17.14946 -0.4941,-25.17529z" fill="#444444" stroke="#000000"/><path d="M-76.20941,680.52169c0.29041,-3.01397 11.65243,5.25315 34.901,9.14042c24.93257,4.16887 62.33354,3.97209 77.42667,0.08015c6.76467,-1.74436 6.0035,-12.77206 -0.36597,-22.47855c-6.94662,-10.58606 -19.66538,-19.8199 -13.87591,-19.26207c33.98605,3.27466 25.88237,35.10363 24.9887,44.37863c-0.89367,9.275 -29.16928,14.13923 -63.15535,10.86457c-33.98605,-3.27466 -60.81277,-13.44816 -59.9191,-22.72316z" fill="#282828" stroke="none"/><path d="M-72.18446,664.96867c1.67032,-17.33544 30.20195,-28.76993 63.7272,-25.53967c33.52525,3.23026 59.34874,19.90205 57.67842,37.23746c-0.83316,8.64692 -2.32261,18.82777 -13.80822,23.45076c-11.54088,4.64521 -33.11615,3.70789 -49.91894,2.0889c-18.00396,-1.73473 -46.68809,-4.55341 -57.18439,-12.06215c-9.04888,-6.47332 -1.26736,-17.14946 -0.49405,-25.17529z" fill="none" stroke="#000000"/></g><g><path d="M-101.33518,668.55375c1.67032,-17.33544 14.72059,-30.26158 29.14855,-28.87141c14.42798,1.39018 24.77011,16.57025 23.09979,33.90569c-0.83316,8.64692 -2.0356,18.85543 -7.29017,24.07879c-5.27982,5.24846 -14.6271,5.48939 -21.85837,4.79264c-7.74821,-0.74656 -20.0898,-1.99059 -24.25367,-8.8892c-3.58969,-5.94731 0.38052,-16.9907 1.15384,-25.01651z" fill="#444444" stroke="#000000"/><path d="M-103.46278,685.12511c0.29041,-3.01397 4.79013,4.59195 14.70584,7.19456c10.63396,2.79116 26.93657,0.56151 33.72282,-4.13082c3.04156,-2.10309 3.30972,-13.03161 1.06302,-22.34086c-2.45026,-10.15283 -7.48846,-18.64662 -4.99688,-18.40655c14.62631,1.40929 9.36541,33.51217 8.47173,42.7872c-0.89367,9.275 -13.4751,15.65141 -28.10141,14.24212c-14.62631,-1.40929 -25.75881,-10.07061 -24.86513,-19.34561z" fill="#282828" stroke="none"/><path d="M-100.86371,669.4347c1.67032,-17.33544 14.72057,-30.26158 29.14855,-28.87141c14.42798,1.39018 24.7701,16.57027 23.09979,33.90569c-0.83316,8.64692 -2.0356,18.85543 -7.29017,24.07879c-5.27983,5.24849 -14.62705,5.48937 -21.85835,4.79262c-7.74821,-0.74656 -20.0898,-1.99056 -24.25367,-8.88916c-3.58969,-5.94731 0.38055,-16.9907 1.15386,-25.01651z" fill="none" stroke="#000000"/></g><g><path d="M-25.48856,678.57282c1.67032,-17.33544 14.72059,-30.26158 29.14855,-28.87141c14.42798,1.39018 24.77011,16.57025 23.09979,33.90569c-0.83316,8.64692 -2.0356,18.85543 -7.29015,24.07879c-5.27982,5.24846 -14.6271,5.48939 -21.8584,4.79263c-7.74821,-0.74656 -20.08977,-1.99058 -24.25364,-8.8892c-3.58969,-5.94731 0.38052,-16.9907 1.15384,-25.01651z" fill="#444444" stroke="#000000"/><path d="M-27.61614,695.14418c0.29041,-3.01397 4.79015,4.59195 14.70587,7.19456c10.63396,2.79116 26.93657,0.56151 33.72282,-4.13082c3.04156,-2.10309 3.3097,-13.03161 1.06299,-22.34088c-2.45026,-10.15283 -7.48843,-18.64662 -4.99686,-18.40655c14.62631,1.40929 9.36541,33.51217 8.47173,42.7872c-0.89367,9.275 -13.4751,15.65141 -28.10141,14.24212c-14.62631,-1.40929 -25.75881,-10.07061 -24.86513,-19.34561z" fill="#282828" stroke="none"/><path d="M-25.01707,679.45375c1.67032,-17.33544 14.72059,-30.26158 29.14857,-28.8714c14.42798,1.39018 24.7701,16.57027 23.09979,33.90569c-0.83316,8.64692 -2.0356,18.85543 -7.29017,24.07879c-5.27983,5.24849 -14.62707,5.48937 -21.85837,4.79261c-7.74821,-0.74656 -20.0898,-1.99056 -24.25367,-8.88916c-3.58969,-5.94731 0.38055,-16.9907 1.15386,-25.01651z" fill="none" stroke="#000000"/></g><g><path d="M-68.9729,670.31648c1.67032,-17.33544 14.72059,-30.2616 29.14855,-28.87143c14.42798,1.39018 24.7701,16.57027 23.09978,33.90571c-0.83316,8.64692 -2.0356,18.85543 -7.29017,24.07879c-5.27982,5.24846 -14.6271,5.48939 -21.85837,4.79264c-7.74821,-0.74656 -20.08977,-1.99058 -24.25364,-8.8892c-3.58969,-5.94731 0.38052,-16.99068 1.15384,-25.01651z" fill="#444444" stroke="#000000"/><path d="M-71.10047,686.88782c0.29041,-3.01397 4.79013,4.59192 14.70584,7.19456c10.63396,2.79116 26.93659,0.56152 33.72284,-4.13082c3.04156,-2.10309 3.30968,-13.03162 1.06299,-22.34086c-2.45026,-10.15283 -7.48843,-18.64662 -4.99686,-18.40655c14.62631,1.40929 9.36541,33.51217 8.47173,42.7872c-0.89367,9.275 -13.47507,15.65142 -28.10139,14.24213c-14.62631,-1.40929 -25.75881,-10.07061 -24.86513,-19.34561z" fill="#282828" stroke="none"/><path d="M-68.5014,671.19738c1.67032,-17.33544 14.72057,-30.26158 29.14855,-28.87141c14.42798,1.39018 24.7701,16.57027 23.09979,33.90569c-0.83316,8.64692 -2.0356,18.85543 -7.29015,24.07879c-5.27983,5.24849 -14.62709,5.48935 -21.85837,4.79259c-7.74821,-0.74656 -20.08977,-1.99056 -24.25365,-8.88915c-3.58969,-5.94731 0.38055,-16.9907 1.15386,-25.01651z" fill="none" stroke="#000000"/></g></g><g><path d="M209.01095,416.29618l-40.474,-105.10145l16.47111,-6.34295l40.474,105.10145z" fill="#1b1b1b" stroke="#000000" stroke-linecap="butt"/><g data-paper-data="{&quot;index&quot;:null}"><path d="M169.85097,210.83209c15.66215,1.50909 48.65637,117.81682 47.26784,132.22772c-0.15399,1.59822 -2.91717,-2.12652 -6.1186,-2.97188c-4.3014,-1.1358 -9.77556,-0.17003 -14.40345,-3.55264c-8.0288,-5.86841 -14.67864,-16.47871 -18.22327,-12.39154c-6.60338,7.61407 10.85125,58.32749 3.30863,57.60073c-15.66217,-1.5091 -44.09272,-133.14075 -42.70419,-147.55165c0.68914,-7.1522 -3.79898,-15.80131 1.7204,-20.02666c5.60153,-4.28826 21.26366,-4.0942 29.15262,-3.33408z" fill="#444444" stroke="#000000" stroke-linecap="butt"/><path d="M175.42693,319.6402c8.66312,0.83472 19.66917,3.5223 28.93029,5.41335c8.19618,1.6736 15.29438,1.83409 14.2631,12.53729c-0.52682,5.46763 -9.34512,6.11329 -18.83893,0.7328c-8.87502,-5.02982 -18.3747,-16.07452 -21.2876,-12.54391c-6.96314,8.43977 12.57091,53.05233 3.81875,52.20903c-16.33005,-1.57345 -45.05405,-119.81061 -42.85747,-142.60774c1.44925,-15.04109 14.34405,52.16149 30.03327,93.417c8.09033,21.27379 -0.47892,-5.13209 5.07692,-4.59677z" fill="#282828" stroke="none" stroke-linecap="butt"/><path d="M169.95851,209.71646c15.66215,1.50909 48.65637,117.81682 47.26784,132.22772c-0.59976,6.22464 -9.42643,-7.44783 -14.77939,-0.09565c-2.85973,3.92779 -21.6921,-24.99023 -24.22178,-17.79009c-3.69771,10.52462 8.8474,57.07946 3.56448,56.57043c-15.66217,-1.5091 -44.09272,-133.14075 -42.70419,-147.55165c0.73674,-7.64628 -5.02601,-17.93749 1.12912,-22.16121c5.4454,-3.73671 22.3919,-1.90792 29.74387,-1.19954z" fill="none" stroke="#000000" stroke-linecap="butt"/><path d="M155.1919,300.78665l46.44067,-27.37667" fill="none" stroke="#000000" stroke-linecap="round"/></g></g><g><path d="M28.40848,199.38278c7.88896,0.76012 23.3,3.56006 27.97971,8.83895c4.61108,5.20145 -1.44587,12.83451 -2.13501,19.98671c-1.38853,14.4109 -54.42891,138.19259 -70.09108,136.68349c-15.66217,-1.5091 -28.7871,-30.32816 -27.39857,-44.73906c1.38853,-14.4109 55.98278,-122.27921 71.64493,-120.77012z" fill="#444444" stroke="#000000" stroke-linecap="butt"/><path d="M-23.89478,338.92238c5.55584,0.53532 18.13221,-4.33696 30.13558,-23.67466c23.27764,-37.50094 48.76641,-101.00515 47.31716,-85.96406c-2.19657,22.79713 -52.96754,133.37472 -69.29759,131.80127c-16.33003,-1.57345 -30.12308,-23.78996 -27.92651,-46.58709c2.19657,-22.79713 3.44132,22.85109 19.77135,24.42454z" fill="#282828" stroke="none" stroke-linecap="butt"/><path d="M28.51595,198.26715c7.35198,0.70838 24.33589,2.14889 28.96765,6.85656c5.23544,5.32123 -2.38623,14.32281 -3.12297,21.9691c-1.38853,14.4109 -54.42891,138.19259 -70.09108,136.68349c-15.66217,-1.5091 -28.7871,-30.32816 -27.39857,-44.73906c1.38853,-14.4109 55.98278,-122.27921 71.64493,-120.77012z" fill="none" stroke="#000000" stroke-linecap="butt"/><path d="M-14.73666,254.74126l40.35918,35.74009" fill="none" stroke="#000000" stroke-linecap="round"/></g><g stroke-linecap="butt"><path d="M94.07769,282.39052c25.91758,2.49724 44.61927,28.48239 41.77136,58.03947c-0.89057,9.24281 15.4068,10.74462 15.28146,18.05582c-0.0443,2.58348 -15.2053,4.89101 -19.17996,8.70941c-4.84881,4.6582 1.11928,10.80628 -1.59415,12.93844c-4.20036,3.30056 -14.88929,-29.7288 -23.94724,-22.86069c-10.12782,7.67935 -16.59764,32.73584 -22.64466,32.15319c-25.91758,-2.49724 -44.61927,-28.48239 -41.77136,-58.03947c2.84791,-29.55709 26.16696,-51.49342 52.08456,-48.99618z" fill="#212121" stroke="#000000"/><path d="M62.47947,399.06506l13.89204,-144.17865l33.14911,3.19401l-13.89204,144.17865z" fill="#1b1b1b" stroke="#000000"/><path d="M94.68424,212.51503c13.76879,1.32666 36.26079,-9.74756 46.1633,20.85824c4.2026,12.98904 17.11777,87.77601 5.25323,121.57166c-5.29953,15.09551 -29.60551,-1.71417 -37.63656,4.97475c-12.0867,10.06683 -18.89901,-55.52021 -31.22201,-64.47054c-10.48872,-7.61807 -27.52371,41.54272 -27.78626,44.26758c-2.31604,24.03701 65.68449,67.48786 36.19046,64.64603c-29.49403,-2.84184 -62.81466,-15.32713 -60.49862,-39.36409c1.50478,-15.61733 4.48001,-103.31551 23.91082,-143.27841c10.47567,-21.54503 35.29443,-10.20066 45.62562,-9.20522z" fill="#444444" stroke="#000000"/><path d="M86.50089,403.22986c-0.88452,0.07792 -59.05614,9.83048 -62.18668,-39.85899c-1.43502,-22.77729 10.38965,-100.51782 22.29733,-132.69551c12.53082,-33.86156 25.17199,-21.65197 23.31267,-23.04728c-3.97092,-2.97991 -34.31837,98.78328 -37.98685,150.16531c-1.88083,26.34357 44.71143,39.61212 42.95015,37.47791c-10.49418,-12.71618 -35.98977,-45.53314 -37.29989,-46.88945c-5.45184,-5.64399 21.41818,-45.98016 20.35993,-50.61688c-1.53393,-6.72084 24.68108,-9.98645 26.51413,-9.53884c7.88773,1.92602 16.11166,54.16141 30.43915,66.86364c8.67044,7.68691 26.52468,-18.19115 28.05385,-23.96394c8.7661,-33.09319 -15.50342,-111.95202 -5.46983,-110.98525c16.76371,1.61523 14.73304,114.83853 13.52869,127.33781c-1.20434,12.49925 -10.51589,16.99166 -27.27963,15.37642c-3.14765,-0.30329 -14.51287,-1.87125 -20.16973,-12.0982c-10.70015,-19.34462 -17.7964,-53.27908 -28.40601,-53.06676c-8.60906,0.1723 -22.69591,24.02793 -26.00336,41.94946c-1.93806,10.50152 4.96909,20.51988 5.17247,18.40908c0.05147,-0.5342 50.07127,43.60488 32.17358,45.18153z" fill="#282828" stroke="none"/><path d="M95.77917,212.65389c13.76879,1.32666 36.26079,-9.74756 46.1633,20.85824c11.30956,34.95465 9.03265,112.75917 7.79782,125.57491c-0.23924,2.483 -19.19712,1.63275 -32.65146,0.26502c-6.62396,-0.67339 -9.03629,2.46975 -12.84964,-1.88268c-15.14724,-17.28849 -10.67391,-57.85203 -27.22889,-61.59043c-3.11872,-0.70427 -17.46819,24.1449 -21.91196,34.38576c-0.92138,2.12339 -1.34449,5.5676 -1.84118,5.51546c-4.26573,-0.44779 -1.81328,3.02532 -3.35172,4.25827c-12.03401,9.64446 52.47107,65.96967 36.83589,64.46317c-29.49403,-2.84184 -62.81466,-15.32713 -60.49862,-39.36409c1.50477,-15.61731 4.48001,-103.31551 23.91082,-143.27841c10.47567,-21.54503 35.29443,-10.20063 45.62561,-9.20519z" fill="none" stroke="#000000"/><path d="M96.0804,223.13806c22.79278,2.19615 37.62892,41.76534 33.13743,88.38025c-2.10348,21.83099 14.13865,57.07427 6.59571,48.78293c-3.39418,-3.73095 -21.14142,5.35026 -29.38292,-6.48109c-12.55102,-18.01801 -16.93602,-58.22213 -24.25104,-58.92695c-17.76129,-1.71135 -32.10037,54.85491 -35.45185,48.12474c-0.94942,-1.90654 -1.04137,-29.16241 -0.04988,-39.45258c4.49148,-46.6149 26.60974,-82.62343 49.40252,-80.42728z" fill="#b7b7b7" stroke="#000000"/><path d="M57.6797,261.89734c0.51635,-5.35896 7.33157,-24.60767 19.62476,-33.64342c5.24776,-3.85722 14.2759,-3.93707 19.68707,-3.41569c18.08716,1.74275 26.92439,35.72359 26.18762,43.3702c-0.73677,7.64661 -6.79135,-32.90195 -24.87852,-34.6447c-2.68358,-0.25857 -29.19399,12.87258 -35.32161,26.05284c-1.38091,2.97026 -18.4833,54.13665 -13.84253,58.11374c2.85815,2.44943 6.03946,-16.38267 15.03018,-25.31497c8.65319,-8.59696 23.09814,-7.35038 27.15712,-3.02284c8.83616,9.42079 15.76595,43.05092 23.20396,53.61949c10.09813,14.34827 19.31602,5.04821 18.60071,10.47606c-0.9773,7.416 -13.76643,12.29066 -29.97753,-7.96178c-7.37647,-9.21542 -15.55388,-49.21302 -23.48671,-51.52467c-14.6824,-4.27853 -33.89121,46.72544 -34.64765,46.30766c-3.52676,-1.94791 -1.46975,-30.06311 3.41728,-52.40009c2.76781,-12.65077 9.11472,-24.65089 9.24585,-26.01179z" fill="#989898" stroke="none"/><path d="M94.48285,222.98413c22.79278,2.19615 37.62892,41.76534 33.13743,88.38025c-2.10348,21.83099 14.13865,57.07427 6.59571,48.78293c-3.39418,-3.73095 -21.14142,5.35026 -29.38292,-6.48109c-12.55102,-18.01801 -16.93602,-58.22213 -24.25104,-58.92695c-17.76129,-1.71135 -32.10037,54.85491 -35.45185,48.12474c-0.94942,-1.90654 -1.04137,-29.16241 -0.04988,-39.45258c4.49148,-46.6149 26.60974,-82.62343 49.40252,-80.42728z" fill="none" stroke="#000000"/></g><g stroke-linecap="butt"><path d="M156.29544,234.77377c-0.3188,3.30863 -0.97759,39.00599 -15.31498,37.62454c-14.33741,-1.38145 -36.9241,-39.31858 -36.6053,-42.62721c0.3188,-3.30863 28.70376,-33.91593 43.04117,-32.53447c14.33741,1.38145 9.19791,34.22852 8.87911,37.53715z" data-paper-data="{&quot;index&quot;:null}" fill="#de3636" stroke="#000000"/><path d="M157.96995,234.12895c-0.3188,3.30863 -0.97759,39.00599 -15.31498,37.62454c-14.33741,-1.38145 -36.9241,-39.31858 -36.6053,-42.62721c0.3188,-3.30863 28.70376,-33.91593 43.04117,-32.53447c14.33741,1.38145 9.19791,34.22852 8.87911,37.53715z" data-paper-data="{&quot;index&quot;:null}" fill="#de3636" stroke="#000000"/><path d="M157.07029,239.2825c-0.74386,7.72012 -1.58349,33.30429 -14.37684,32.07161c-12.79337,-1.23268 -32.69589,-28.81539 -31.95203,-36.53554c0.30094,-3.12334 26.59566,29.36144 32.4262,22.54592c8.5811,-10.03073 -1.48734,-59.47124 6.13018,-58.73727c12.79337,1.23268 8.51634,32.93515 7.77248,40.65528z" data-paper-data="{&quot;index&quot;:null}" fill="#b72c2c" stroke="none"/><path d="M156.73331,234.41289c-0.3188,3.30863 -0.97759,39.00599 -15.31498,37.62454c-14.33741,-1.38145 -36.9241,-39.31858 -36.6053,-42.62721c0.3188,-3.30863 28.70376,-33.91593 43.04117,-32.53447c14.33741,1.38145 9.19791,34.22852 8.87911,37.53715z" data-paper-data="{&quot;index&quot;:null}" fill="none" stroke="#000000"/><path d="M57.21336,190.1577c14.33741,1.38145 36.35622,36.8453 36.03742,40.15393c-0.3188,3.30863 -29.73343,36.23528 -44.07083,34.85383c-14.33741,-1.38145 -8.16824,-36.54787 -7.84945,-39.8565c0.3188,-3.30863 1.54547,-36.53271 15.88286,-35.15126z" data-paper-data="{&quot;index&quot;:null}" fill="#de3636" stroke="#000000"/><path d="M56.62157,192.11616c7.61752,0.73397 -11.70551,47.34253 -5.1975,58.82714c4.42196,7.8034 36.43537,-19.06324 36.13443,-15.9399c-0.74386,7.72012 -25.54669,30.99536 -38.34006,29.76268c-12.79337,-1.23268 -8.73267,-26.50646 -7.98881,-34.22661c0.74386,-7.72012 2.59859,-39.65599 15.39194,-38.42332z" fill="#b72c2c" stroke="none"/><path d="M58.37304,190.67254c14.33741,1.38145 36.35622,36.8453 36.03742,40.15393c-0.3188,3.30863 -29.73343,36.23528 -44.07083,34.85383c-14.33741,-1.38145 -8.16824,-36.54787 -7.84945,-39.8565c0.3188,-3.30863 1.54547,-36.53271 15.88286,-35.15126z" fill="none" stroke="#000000"/><path d="M96.54152,212.89255c8.82301,0.85012 15.27354,8.82419 14.40768,17.81058c-0.86587,8.9864 -8.72027,15.58214 -17.54325,14.73202c-8.82301,-0.85012 -15.27354,-8.82419 -14.40768,-17.81058c0.86587,-8.9864 8.72024,-15.58214 17.54325,-14.73202z" fill="#de3636" stroke="#000000"/><path d="M85.61872,217.48341c4.13283,0.39821 -1.85002,16.89154 3.34474,21.28335c5.61803,4.74968 22.25856,-2.52783 22.08188,-0.69415c-0.32002,3.32128 -6.99008,7.852 -14.91754,7.40112c-0.49626,-0.02821 -0.27655,0.80916 -0.78334,0.76033c-8.60244,-0.82887 -15.79133,-7.63385 -15.45128,-11.16304c0.34005,-3.52922 -2.87688,-18.41645 5.72556,-17.58758z" fill="#b72c2c" stroke="none"/><path d="M96.90245,213.3304c8.82301,0.85012 15.27354,8.82421 14.40767,17.81061c-0.86587,8.98642 -8.72025,15.58216 -17.54325,14.73204c-8.82301,-0.85012 -15.27354,-8.82421 -14.40767,-17.81061c0.86587,-8.98642 8.72025,-15.58216 17.54325,-14.73204z" fill="none" stroke="#000000"/></g><g><path d="M64.03073,198.20856l5.50493,-57.133l73.40725,7.07301l-5.50493,57.133z" fill="#1b1b1b" stroke="#000000" stroke-linecap="butt"/><path d="M57.11812,201.03727l1.56807,-16.27424l82.75627,7.97381l-1.56807,16.27424z" fill="#7c7c7c" stroke="none" stroke-linecap="butt"/><path d="M80.97402,183.76523c8.44622,0.81382 -25.78257,6.80788 -11.11481,12.14825c8.74526,3.18403 70.72215,5.76079 70.51567,7.9037c-0.55278,5.73705 -47.9206,2.02274 -61.40263,0.7237c-13.48204,-1.29903 -23.96325,-7.00291 -23.41047,-12.73994c0.55278,-5.73705 11.93025,-9.33475 25.41226,-8.03572z" fill="#585858" stroke="none" stroke-linecap="butt"/><path d="M53.52577,185.85018l1.30117,-13.50417l91.06654,8.77453l-1.30117,13.50417z" fill="#e1e1e1" stroke="#000000" stroke-linecap="butt"/><path d="M53.4129,181.45914c0.0439,-0.45563 0.60783,-6.38606 4.58936,-8.43772c3.22195,-1.66023 9.77335,0.41027 11.51365,0.61178c4.22877,0.48958 -5.17451,4.53293 -0.75158,7.63517c3.83668,2.69105 21.21226,4.45693 28.18409,5.26101c11.90647,1.37316 24.92871,0.1286 33.98722,1.00141c26.10349,2.51515 17.37497,-0.78818 17.00645,3.03653c-0.36852,3.82471 -21.82833,4.88626 -47.93183,2.37112c-26.10349,-2.51515 -46.96582,-7.65459 -46.5973,-11.47928z" fill="#bfbfbf" stroke="none" stroke-linecap="butt"/><g data-paper-data="{&quot;index&quot;:null}" stroke-linecap="butt"><path d="M244.75429,70.5226c-10.59426,2.10973 -26.07738,14.35692 -33.40292,11.5586c-8.51778,-3.25374 -8.05537,-22.3047 -8.04317,-30.33201c0.01207,-7.94974 3.56018,-24.02805 11.9499,-30.64398c7.36777,-5.81003 18.86493,-2.51939 29.57822,-4.65283c22.91272,-4.56282 41.46875,3.84231 41.44613,18.77341c-0.02264,14.93105 -18.61542,30.73399 -41.52815,35.29683z" fill="#444444" stroke="#000000"/><path d="M230.15599,75.08287c-0.83214,0.83524 -2.52052,0.71488 -3.35914,1.46314c-7.20798,6.43144 -14.94502,8.90769 -17.3259,6.34554c-2.65788,-2.86024 -3.00332,-52.33116 4.98112,-60.34528c4.20424,-4.21989 -7.17255,25.04707 9.72968,32.47915c15.19737,6.68246 58.96751,-8.66592 60.22586,-7.31175c1.82119,1.95982 -16.84633,12.84975 -34.11493,20.04768c-7.93364,3.30691 -17.62315,4.79867 -20.13667,7.32149z" fill="#282828" stroke="none"/><path d="M268.88874,56.23865c-11.23735,11.27912 -49.34159,21.88769 -51.76494,19.27983c-2.42335,-2.60788 -9.78961,-28.73935 1.44776,-40.01845c11.23735,-11.27912 63.55746,-4.36212 65.98083,-1.75426c2.42335,2.60788 -4.42628,11.21376 -15.66366,22.49288z" fill="#b7b7b7" stroke="#000000"/><path d="M278.26592,37.39223c-2.0769,2.08461 9.43282,3.75976 3.3422,10.22614c-5.15933,5.47761 -27.39098,15.69305 -35.06682,19.00817c-11.167,4.82292 -21.61041,8.18118 -27.85621,7.86606c-3.15534,-0.15921 -4.65261,-2.28337 -5.82267,-3.5425c-2.52805,-2.72053 -1.9913,-7.56672 -2.5474,-11.11171c-1.593,-10.15507 3.17706,-22.11784 13.62982,-24.75875c19.01432,-4.80399 49.87261,-3.95948 54.89348,1.44369c0.62459,0.67216 -19.37278,-1.34428 -36.32838,0.17758c-12.27126,1.10142 -22.44523,4.95215 -24.47097,8.72319c-3.87635,7.21604 2.13632,24.67379 4.84757,24.82923c7.23021,0.41458 25.01535,-3.77215 36.91214,-12.09471c13.97213,-9.77436 21.46109,-23.77137 18.46724,-20.76641z" fill="#989898" stroke="none"/><path d="M267.8028,57.31476c-11.23735,11.27912 -49.34159,21.88769 -51.76494,19.27983c-2.42335,-2.60788 -9.78961,-28.73935 1.44776,-40.01845c11.23735,-11.27912 63.55746,-4.36212 65.98083,-1.75426c2.42335,2.60788 -4.42628,11.21376 -15.66366,22.49288z" fill="none" stroke="#000000"/><path d="M244.0992,70.57748c-10.59426,2.10973 -17.67036,10.04015 -24.99593,7.24184c-8.51778,-3.25374 -8.37569,-13.7402 -8.36352,-21.76749c0.01207,-7.94974 -4.52649,-28.27581 3.86328,-34.89173c7.36777,-5.81003 18.86493,-2.51939 29.57822,-4.65283c22.91272,-4.56282 41.46875,3.84231 41.44613,18.77341c-0.02264,14.93105 -18.61542,30.73399 -41.52815,35.29683z" fill="none" stroke="#000000"/></g><g data-paper-data="{&quot;index&quot;:null}" stroke-linecap="butt"><path d="M209.16514,79.80125c-10.132,5.66266 -20.61423,22.72371 -29.62947,22.558c-10.48243,-0.19269 -18.98856,-18.61534 -22.76458,-26.3152c-3.73954,-7.62542 -7.60155,-24.25852 -1.91194,-33.48378c4.9965,-8.10149 18.62575,-8.89712 28.87159,-14.62343c21.91292,-12.24691 36.16615,-4.04559 43.18968,10.27636c7.02353,14.32195 4.15764,29.34109 -17.75526,41.58802z" fill="#444444" stroke="#000000"/><path d="M195.98413,89.18894c-0.47984,1.08665 -2.31004,1.55136 -2.83772,2.55687c-4.53537,8.64235 -11.49329,13.67464 -15.20335,12.0364c-4.14171,-1.82885 -27.8543,-49.13706 -23.25035,-59.56344c0.66535,-1.50682 14.9627,-10.86479 15.95628,-8.13646c0.83514,2.29322 -4.0382,6.30939 -4.32041,11.23558c-0.60538,10.5667 3.39262,24.04308 13.91357,24.69506c19.11671,1.18467 45.78967,-22.75203 47.75056,-21.88616c2.83792,1.25314 0.42731,12.29049 -14.31353,25.12438c-6.77233,5.8962 -16.24569,10.65558 -17.69502,13.9378z" fill="#282828" stroke="none"/><path d="M227.77304,57.81507c-6.47961,14.67415 -41.4955,37.93671 -45.27175,36.26924c-3.77627,-1.66747 -23.84721,-24.18828 -17.36762,-38.86243c6.47961,-14.67415 50.20119,-21.838 53.97743,-20.17051c3.77627,1.66747 15.14155,8.08958 8.66194,22.76373z" fill="#b7b7b7" stroke="#000000"/><path d="M218.93428,37.21447c-1.19756,2.71207 12.53567,7.98149 9.19037,16.27342c-2.83377,7.02397 -12.42372,16.14879 -18.92141,21.9643c-14.22857,12.73474 -31.75416,20.87059 -37.18645,18.47188c-10.84157,-4.78725 -16.03637,-16.8073 -11.60296,-26.84751c1.234,-2.79459 3.33679,-9.80776 10.16527,-14.10385c17.70439,-11.13865 43.16332,-18.60777 50.98725,-15.15297c0.97328,0.42979 -13.63091,3.04363 -30.72204,10.32844c-12.36935,5.27219 -21.23812,12.45955 -21.58597,16.77083c-0.66565,8.24976 13.88963,22.92029 16.81081,22.13778c7.78997,-2.08679 24.49461,-12.21139 33.06236,-24.2777c10.06232,-14.17122 1.52909,-29.47402 -0.19721,-25.56454z" fill="#989898" stroke="none"/><path d="M227.14035,59.21985c-6.47961,14.67415 -41.4955,37.93671 -45.27175,36.26924c-3.77627,-1.66747 -23.84721,-24.18828 -17.36762,-38.86243c6.47961,-14.67415 53.70075,-21.40676 57.47702,-19.73926c3.77627,1.66747 11.64196,7.65833 5.16235,22.33248z" fill="none" stroke="#000000"/><path d="M208.50299,80.07896c-10.132,5.66266 -20.61423,22.72371 -29.62947,22.558c-10.48243,-0.19269 -18.98856,-18.61534 -22.76458,-26.3152c-3.73954,-7.62542 -7.60155,-24.25852 -1.91194,-33.48378c4.9965,-8.10149 18.62575,-8.89712 28.87159,-14.62343c21.91292,-12.24691 35.19594,0.53923 42.21944,14.86121c7.02353,14.32195 5.12787,24.75629 -16.78505,37.0032z" fill="none" stroke="#000000"/></g><g stroke-linecap="butt"><path d="M-14.58871,-30.81081c7.2937,-13.02843 27.58831,-11.26729 45.32932,3.93362c8.2952,7.10752 19.93051,9.87007 23.50812,18.54424c4.07386,9.87735 -0.70816,25.63279 -4.59154,32.56951c-3.92124,7.00442 -12.84949,23.84004 -21.86926,22.50463c-7.75729,-1.1485 -15.25708,-19.40974 -23.46008,-26.43828c-17.74101,-15.20093 -26.21025,-38.08532 -18.9166,-51.11376z" fill="#444444" stroke="#000000"/><path d="M14.82139,31.42914c-0.95559,-3.43063 -8.67255,-9.47723 -13.96956,-16.24628c-11.52963,-14.73374 -22.47045,-33.37143 -19.92275,-34.18804c1.76036,-0.56425 32.40255,34.25605 48.9252,35.87395c18.37615,1.79941 22.79286,-29.28881 24.39129,-23.55051c3.03564,10.89781 -21.49698,53.85872 -25.21515,55.0505c-3.33068,1.06758 -8.86316,-4.88098 -11.99708,-14.01865c-0.36463,-1.06314 -1.89558,-1.7852 -2.21193,-2.92097z" fill="#282828" stroke="none"/><path d="M-9.71674,-3.97155c-4.27239,-15.33764 -6.02884,-26.19556 -2.63874,-27.28216c3.39008,-1.08663 52.39228,18.50998 56.66467,33.84762c4.27239,15.33764 -14.94922,34.51173 -18.33933,35.59833c-3.39008,1.08663 -31.41424,-26.82615 -35.68661,-42.16379z" fill="#b7b7b7" stroke="#000000"/><path d="M-8.66086,-24.99548c-1.13826,-4.08624 -1.46507,11.78496 5.9286,27.15023c6.29548,13.08301 19.75038,25.44451 26.25693,28.62455c2.4399,1.19248 16.2329,-11.08259 16.38791,-19.27244c0.08101,-4.27995 -6.9028,-12.62045 -17.06173,-19.59132c-14.03691,-9.63188 -32.45888,-17.66883 -31.58512,-17.9489c7.02387,-2.25132 34.34064,12.12717 48.56482,25.62888c7.81946,7.4223 6.11861,20.18822 -0.24427,28.26142c-2.2212,2.81823 -4.12697,7.3062 -7.66358,8.43976c-1.63682,0.52464 -3.98263,1.64317 -6.81153,0.23642c-5.59962,-2.78452 -13.05953,-10.82766 -20.43294,-20.50218c-5.06819,-6.64993 -19.44674,-26.44537 -21.26179,-33.748c-2.1427,-8.62087 8.71231,-4.44369 7.9227,-7.2784z" fill="#989898" stroke="none"/><path d="M-9.29711,-2.50144c-4.27239,-15.33764 -6.02884,-26.19556 -2.63874,-27.28216c3.39008,-1.08663 52.39228,18.50998 56.66467,33.84762c4.27239,15.33764 -14.94922,34.51173 -18.33933,35.59833c-3.39008,1.08663 -31.41424,-26.82615 -35.68661,-42.16379z" fill="none" stroke="#000000"/><path d="M-14.04449,-30.44208c7.2937,-13.02843 27.58831,-11.26729 45.32932,3.93362c8.2952,7.10752 19.93051,9.87007 23.50812,18.54424c4.07386,9.87735 -9.83894,25.37516 -13.72231,32.31189c-3.92124,7.00442 -8.93379,16.21639 -17.95354,14.88097c-7.75729,-1.1485 -10.042,-11.52843 -18.245,-18.55696c-17.74101,-15.20093 -26.21025,-38.08532 -18.9166,-51.11376z" fill="none" stroke="#000000"/></g><g stroke-linecap="butt"><path d="M35.70148,0.87c13.13836,-9.0461 29.58182,-9.21482 42.68746,12.19561c6.12778,10.01088 17.62044,17.38031 18.00833,26.89077c0.44171,10.82965 -11.07241,23.43919 -18.06765,28.2556c-7.06351,4.86339 -23.50306,16.75841 -32.73629,11.79195c-7.94092,-4.2713 -8.72291,-24.27991 -14.78261,-34.17956c-13.10559,-21.41042 -8.24758,-35.90827 4.89078,-44.95434z" fill="#444444" stroke="#000000"/><path d="M29.10398,39.64641c-6.56529,-18.40916 -3.2607,-29.21261 -0.17273,-28.91507c2.13365,0.20558 13.66342,34.13901 30.91016,42.46978c9.49181,4.58487 19.57827,-5.20594 24.22618,-14.71481c2.16685,-4.43299 -0.1147,-10.32141 1.73663,-11.91166c2.20261,-1.89194 10.08377,13.26957 9.9258,14.90916c-1.09313,11.34505 -44.93858,40.97499 -49.44523,40.54076c-4.03697,-0.38897 -7.63816,-8.18433 -7.35913,-17.94045c0.03246,-1.13509 -1.33554,-2.43673 -1.22161,-3.61913c0.34412,-3.57142 -5.58384,-12.36095 -8.60011,-20.81858z" fill="#282828" stroke="none"/><path d="M25.35687,17.54177c1.53848,-15.96714 14.59268,-15.99924 18.70169,-15.60333c4.109,0.39591 38.71773,28.05688 37.17925,44.02403c-1.53848,15.96712 -30.06788,25.77041 -34.17688,25.3745c-4.109,-0.39591 -23.24253,-37.82807 -21.70405,-53.79519z" fill="#b7b7b7" stroke="#000000"/><path d="M43.15321,3.91091c0.40988,-4.25394 -14.52512,4.9078 -12.69376,22.1913c1.55934,14.71631 11.16377,31.72537 16.93317,37.36033c2.16348,2.11306 22.03898,-3.54778 25.49947,-11.06619c1.80844,-3.92907 -2.40318,-14.53922 -10.60473,-25.19434c-11.33233,-14.7225 -22.78436,-24.15471 -21.72532,-24.05267c8.51331,0.82028 27.05064,19.80214 37.02996,38.18497c3.84896,7.09014 2.24713,14.23439 1.95414,17.27523c-1.05264,10.92488 -11.4692,18.85981 -23.26604,17.72315c-5.91094,-0.56954 -17.20523,-16.24683 -23.37245,-34.3187c-2.81635,-8.25274 -6.70769,-20.9053 -5.73782,-28.41704c1.14494,-8.8677 15.69898,-6.73502 15.98332,-9.68605z" fill="#989898" stroke="none"/><path d="M25.2204,19.07642c1.53848,-15.96714 11.33039,-17.33742 15.4394,-16.9415c4.109,0.39591 41.98002,29.39506 40.44154,45.3622c-1.53848,15.96712 -30.06788,25.77041 -34.17688,25.3745c-4.109,-0.39591 -23.24253,-37.82807 -21.70405,-53.79519z" fill="none" stroke="#000000"/><path d="M34.74287,5.90886c13.13836,-9.0461 30.9817,-13.68723 44.08728,7.72319c6.12778,10.01088 17.62044,17.38031 18.00833,26.89077c0.44171,10.82965 -11.07241,23.43919 -18.06765,28.2556c-7.06351,4.86339 -23.50306,16.75841 -32.73629,11.79195c-7.94092,-4.2713 -8.72291,-24.27991 -14.78261,-34.17956c-13.10559,-21.41042 -9.64743,-31.43585 3.49096,-40.48193z" fill="none" stroke="#000000"/></g><g><g><path d="M41.78092,155.76951c-18.51019,-33.04926 -5.73589,-87.8533 12.42483,-98.02476c11.23496,-6.29247 55.01966,-19.78601 80.49936,-6.46009c15.70687,8.21474 35.29276,13.7809 42.3518,26.38452c18.51019,33.04926 4.17846,85.2176 -13.98226,95.38905c-8.98559,5.03263 -36.44151,-0.64846 -60.70039,-3.91457c-24.77072,-3.33504 -51.24163,3.32298 -60.59334,-13.37418z" fill="#444444" stroke="#000000" stroke-linecap="butt"/><path d="M32.37709,122.4595c0.20304,-2.1072 -3.23055,-31.79846 7.94036,-50.26959c9.52581,-15.75099 32.39022,-20.32211 47.61656,-25.52868c36.18696,-12.37393 83.72803,24.63738 86.55312,24.90958c1.89053,0.18216 -29.33248,-18.65593 -60.63511,-22.44047c-15.27961,-1.84733 -31.45997,5.4093 -42.11468,9.56217c-8.30633,3.23755 -22.73789,9.91488 -25.9112,17.25274c-8.2706,19.12469 -6.02074,45.74831 -6.29383,48.58263c-0.78764,8.17455 6.61811,14.19747 1.21034,13.67641c-5.40777,-0.52105 -9.15314,-7.57026 -8.3655,-15.74479z" fill="#282828" stroke="none" stroke-linecap="butt"/><path d="M71.52989,63.9681c4.40227,0.42417 24.92289,17.56589 48.06337,23.37895c20.67756,5.19436 43.95905,-1.36729 51.50672,6.39353c5.74359,5.90578 -2.96495,26.33111 -1.71397,35.04376c1.78242,12.41378 11.93082,13.15852 11.47678,17.87077c-1.66011,17.22945 -58.64547,-6.11628 -74.23999,-7.61886c-15.59452,-1.50258 -26.89061,-16.6879 -25.23051,-33.91733c1.66011,-17.22945 -25.45693,-42.65332 -9.86241,-41.15074z" fill="#282828" stroke="none" stroke-linecap="butt"/><path d="M41.69071,155.15141c-18.51019,-33.04926 -5.73589,-87.8533 12.42483,-98.02476c11.23496,-6.29247 55.01966,-19.78601 80.49936,-6.46009c15.70687,8.21474 35.29276,13.7809 42.3518,26.38452c18.51019,33.04926 4.17846,85.2176 -13.98226,95.38905c-8.98559,5.03263 -36.44151,-0.64846 -60.70039,-3.91459c-24.77072,-3.33504 -51.24163,3.32298 -60.59334,-13.37415z" fill="none" stroke="#000000" stroke-linecap="butt"/><path d="M55.29287,106.93242c0.65006,-6.7466 1.82043,-30.16648 10.55233,-36.20382c10.17256,-7.03348 28.49,3.85216 35.48285,4.52594c12.9953,1.25214 2.43238,21.60595 1.02502,36.21224c-1.40736,14.60631 -13.08304,25.43199 -26.07834,24.17986c-12.9953,-1.25214 -22.3892,-14.10793 -20.98184,-28.71424z" fill="#000000" stroke="#000000" stroke-linecap="butt"/><path d="M165.66176,123.46376c-1.0801,11.20985 -12.49049,19.28218 -25.48579,18.03005c-12.9953,-1.25214 -22.65449,-11.35459 -21.57439,-22.56444c1.0801,-11.20985 -5.8767,-28.28214 7.1186,-27.03001c6.99282,0.67378 26.84927,-4.41284 35.66965,2.58723c7.57121,6.00868 4.77085,23.7994 4.27195,28.97719z" data-paper-data="{&quot;index&quot;:null}" fill="#000000" stroke="#000000" stroke-linecap="butt"/><path d="M44.40234,156.16777c0.07285,-0.75611 -5.96124,-8.14233 -5.59175,-8.98702c1.32233,-3.02287 -8.14984,-13.30509 -1.83519,-15.25021c14.22738,-4.3825 51.69113,1.84229 69.17746,3.52715c18.93257,1.82421 59.1013,4.5722 70.5368,14.41448c5.12425,4.4103 -10.12372,16.92 -10.40869,19.87759c-0.92094,9.55795 -35.73976,-0.22606 -63.15597,-2.86769c-27.41621,-2.64163 -59.64363,-1.15636 -58.72269,-10.71432z" fill="#b7b7b7" stroke="#000000" stroke-linecap="butt"/><path d="M44.28337,155.91325c0.10803,-1.12124 -12.4436,-21.34533 -10.28502,-22.15328c3.99959,-1.49705 15.55421,17.12471 28.09817,21.33675c14.0979,4.73381 32.78516,7.07076 46.95339,8.43591c12.60002,1.21405 30.33498,6.42735 42.89656,3.4978c11.69223,-2.72678 18.51521,-13.5898 22.62404,-13.14092c3.24089,0.35404 -8.54153,12.21564 -8.68841,13.74009c-0.52477,5.44636 -23.82634,4.45612 -56.68681,1.42949c-0.52607,-0.04844 -3.24304,-1.22844 -3.77217,-1.27942c-33.57856,-3.23539 -61.67291,-6.33297 -61.13974,-11.86651z" fill="#989898" stroke="none" stroke-linecap="butt"/><path d="M44.22439,156.4605c0.07285,-0.75608 -5.96127,-8.14233 -5.59177,-8.98702c1.32233,-3.02287 -8.14984,-13.30509 -1.83521,-15.25022c14.22738,-4.3825 51.69115,1.84229 69.17749,3.52715c18.93257,1.82421 59.10128,4.5722 70.5368,14.41448c5.12425,4.4103 -10.12372,16.92 -10.40869,19.87759c-0.92094,9.55795 -35.73976,-0.22606 -63.15597,-2.86769c-27.41619,-2.64163 -59.64361,-1.15636 -58.72267,-10.71429z" fill="none" stroke="#000000" stroke-linecap="butt"/><path d="M107.97215,134.10425c15.59452,1.50258 27.91223,6.08503 27.51235,10.23519c-0.39988,4.15014 -13.36592,6.29645 -28.96044,4.79387c-15.59452,-1.50258 -27.91223,-6.08503 -27.51235,-10.23519c0.39988,-4.15014 13.36592,-6.29645 28.96044,-4.79387z" fill="#000000" stroke="#000000" stroke-linecap="butt"/><path d="M47.21911,133.30403l7.7695,-4.30757l7.28681,0.70211l-6.29886,8.12653l-1.11365,6.7875" fill="none" stroke="#000000" stroke-linecap="round"/><path d="M73.48557,132.61731l-14.96857,2.69464" fill="none" stroke="#000000" stroke-linecap="round"/><path d="M64.98075,135.01542l-0.87763,9.10853" fill="none" stroke="#000000" stroke-linecap="round"/><path d="M70.02884,133.70793l11.85769,5.73908" fill="none" stroke="#000000" stroke-linecap="round"/><path d="M72.59131,137.1277l-1.85964,14.52975" fill="none" stroke="#000000" stroke-linecap="round"/><path d="M159.96666,127.16044l3.34218,17.78889l-25.18006,-1.04721l0.52658,-5.4651" fill="none" stroke="#000000" stroke-linecap="round"/><path d="M146.14496,132.26383l13.13618,6.78155" fill="none" stroke="#000000" stroke-linecap="round"/><path d="M143.84056,137.09798l-3.22591,14.39811" fill="none" stroke="#000000" stroke-linecap="round"/><path d="M146.74392,159.44112l3.03378,-17.17454" fill="none" stroke="#000000" stroke-linecap="round"/><path d="M156.46679,153.9428l-0.94407,-9.28406" fill="none" stroke="#000000" stroke-linecap="round"/><path d="M163.62196,156.01115l-2.82629,-13.60227" fill="none" stroke="#000000" stroke-linecap="round"/></g><path d="M163.88281,76.97581l0.43882,-4.55428l5.31685,-2.70528" fill="none" stroke="#000000" stroke-linecap="round"/><path d="M85.5768,64.37458l-0.71871,2.68867l-2.49651,2.0577" fill="none" stroke="#000000" stroke-linecap="round"/></g><path d="M57.18485,200.34476l1.13435,-11.77285l82.75627,7.97381l-1.13435,11.77285z" fill="none" stroke="#000000" stroke-linecap="butt"/><path d="M54.39762,185.74769l1.30117,-13.50417l91.06654,8.77453l-1.30117,13.50417z" fill="none" stroke="#000000" stroke-linecap="butt"/><path d="M75.68634,186.05158l1.34714,-10.35447" fill="none" stroke="#000000" stroke-linecap="round"/><path d="M108.54319,178.73317l-0.93417,9.69529" fill="none" stroke="#000000" stroke-linecap="round"/><path d="M130.36215,191.66919l-1.35618,-11.31388" fill="none" stroke="#000000" stroke-linecap="round"/></g></g></g></svg>