<svg version="1.1" xmlns="http://www.w3.org/2000/svg" xmlns:xlink="http://www.w3.org/1999/xlink" width="226.52053" height="344.91401" viewBox="0,0,226.52053,344.91401"><g transform="translate(-136.57831,-10.90804)"><g data-paper-data="{&quot;isPaintingLayer&quot;:true}" fill-rule="nonzero" stroke-linejoin="miter" stroke-miterlimit="10" stroke-dasharray="" stroke-dashoffset="0" style="mix-blend-mode: normal"><g><path d="M315.23632,199.38337l-56.65082,-49.70058l13.38415,-16.28067l56.65082,49.70058z" data-paper-data="{&quot;index&quot;:null}" fill="#1b1b1b" stroke="#000000" stroke-width="2.5" stroke-linecap="butt"/><g data-paper-data="{&quot;index&quot;:null}"><g stroke-linecap="butt"><path d="M324.83165,175.50069c4.15738,6.30361 6.24017,22.06635 0.48123,25.8645c-5.75894,3.79816 -57.57916,-42.18462 -61.73652,-48.48821c-2.67003,-4.04841 -6.31438,-7.79039 -4.74739,-11.73157c0.8729,-2.19544 5.58693,-5.20044 7.64726,-6.55927c2.98878,-1.97118 13.39984,22.71981 27.22395,33.09735c12.8128,9.61836 29.13173,4.78509 31.13149,7.81721z" fill="#840000" stroke="#000000" stroke-width="0"/><path d="M323.58213,172.83359c6.5767,9.9719 6.10333,21.88419 0.09885,25.8443c-6.0045,3.96012 -52.98587,-35.47615 -59.56259,-45.44805c-4.33919,-6.57926 21.5713,17.35347 40.09546,29.85341c9.55216,6.44569 15.70192,6.17351 17.74478,4.8262c6.0045,-3.96012 -4.95322,-25.04776 1.62349,-15.07586z" fill="#430000" stroke="none" stroke-width="0"/><path d="M324.50983,175.01267c4.15738,6.30361 6.24017,22.06635 0.48123,25.8645c-5.75893,3.79815 -57.57916,-42.18462 -61.73652,-48.48821c-2.25166,-3.41405 -10.68936,-5.37357 -9.89839,-8.89665c0.66944,-2.98179 10.15839,-7.65312 12.79826,-9.39419c3.15829,-2.08297 14.31569,23.35635 28.80332,34.40464c11.92961,9.09751 27.6747,3.66332 29.55211,6.50992z" fill="none" stroke="#000000" stroke-width="3"/></g><path d="M290.40931,175.62381l3.54445,-8.56914" fill="none" stroke="#000000" stroke-width="3" stroke-linecap="round"/></g></g><path d="M198.22247,322.77922l19.9282,-68.46429l20.13656,5.86124l-19.9282,68.46429z" fill="#1b1b1b" stroke="#000000" stroke-width="2.5" stroke-linecap="butt"/><g data-paper-data="{&quot;index&quot;:null}"><g stroke-linecap="butt"><path d="M269.95014,225.7719c9.07847,1.74806 26.56526,76.33645 25.5498,85.29768c-1.01546,8.96123 -18.34506,25.088 -27.42355,23.33994c-9.07849,-1.74807 -17.41842,-86.61581 -16.40295,-95.57704c0.50398,-4.4475 -1.97858,-10.0984 1.28959,-12.46404c3.31682,-2.40087 12.41431,-1.47703 16.98709,-0.59653z" fill="#840000" stroke="#000000" stroke-width="0"/><path d="M282.17283,319.14666c9.46561,1.82261 15.88514,-25.60412 14.27873,-11.42802c-1.6064,14.17611 -19.07544,30.29127 -28.54104,28.46865c-9.46562,-1.82261 -17.58346,-82.40962 -15.97706,-96.58571c1.05987,-9.35311 7.57915,33.42805 16.09781,60.08946c4.39275,13.7482 10.92112,18.83551 14.14153,19.45561z" fill="#430000" stroke="none" stroke-width="0"/><path d="M270.02873,225.07813c9.07847,1.74806 26.56526,76.33645 25.5498,85.29768c-1.01546,8.96123 -18.59903,26.45814 -27.67752,24.71007c-9.07849,-1.74807 -17.16444,-87.98594 -16.14899,-96.94717c0.53881,-4.75474 -2.66057,-11.50014 0.97697,-13.83219c3.2181,-2.06314 13.03819,-0.04893 17.29972,0.77163z" fill="none" stroke="#000000" stroke-width="3"/></g><path d="M255.78117,283.1033l31.72918,-16.48151" fill="none" stroke="#000000" stroke-width="3" stroke-linecap="round"/></g><g><g stroke-linecap="butt"><path d="M227.823,216.94013c4.55991,-0.94495 13.64345,-1.99711 16.99382,0.35668c3.30123,2.31927 0.89869,8.00464 1.46541,12.44459c0.60866,4.76861 -1.13616,31.14032 -4.26952,55.01356c-2.74487,20.91342 -6.55533,39.90948 -10.78264,40.7855c-3.22292,0.66789 1.51989,-29.85954 -0.81402,-48.72951c-0.15895,-1.28515 -3.11228,-3.97798 -3.48856,-5.04044c-2.2994,-6.49251 -5.37054,-7.53414 -7.01242,-9.01511c-5.22581,-4.71362 -15.89679,44.05331 -16.43527,39.83456c-1.14186,-8.946 15.2903,-83.7738 24.34319,-85.64984z" fill="#840000" stroke="#000000" stroke-width="0"/><path d="M233.69742,326.49326c3.21134,-0.66549 -7.11055,-21.85963 -2.91231,-35.66847c8.14146,-26.77899 14.0562,-69.64792 15.248,-60.31071c1.80635,14.15201 -5.17312,94.84558 -14.61206,96.80162c-9.43894,1.95605 3.75269,0.9603 1.94633,-13.19171c-1.80635,-14.15201 -9.1089,14.32529 0.33004,12.36926z" fill="#430000" stroke="none" stroke-width="0"/><path d="M227.7346,216.24757c4.24952,-0.88064 14.0402,-3.03327 17.2871,-1.01575c3.67009,2.28047 0.56627,9.07036 1.17213,13.81703c0.64454,5.04973 -1.26299,34.76009 -4.67502,60.01929c-2.63266,19.48952 -6.16101,36.32909 -10.10384,37.14618c-2.2808,0.47265 0.98236,-49.45796 -2.00534,-50.97439c-3.96987,-2.01495 -7.51957,-19.5704 -12.41339,-12.4089c-6.0418,8.84144 -13.13291,42.7637 -13.60483,39.06638c-1.14186,-8.946 15.2903,-83.7738 24.34319,-85.64984z" fill="none" stroke="#000000" stroke-width="3"/></g><path d="M210.84116,258.03385l31.95867,16.03198" fill="none" stroke="#000000" stroke-width="3" stroke-linecap="round"/></g><g><g stroke-linecap="butt"><path d="M199.93916,138.08928c3.8403,-0.64419 11.51722,-1.23445 14.43742,0.83646c2.87739,2.04051 1.02178,6.70984 1.64643,10.43377c1.25862,7.50329 -7.41754,77.32228 -15.04178,78.6012c-7.62425,1.27892 -17.67833,-11.6493 -18.93695,-19.15259c-1.25862,-7.50329 10.27063,-69.43995 17.89487,-70.71885z" fill="#840000" stroke="#000000" stroke-width="0"/><path d="M193.7083,215.81832c2.70455,-0.45367 8.01743,-4.5718 11.13471,-15.96473c6.0452,-22.0939 9.67982,-57.6884 10.99349,-49.85701c1.99106,11.86974 -7.36567,74.68355 -15.31506,76.01699c-7.94937,1.33343 -17.44193,-8.15286 -19.43298,-20.02257c-1.99106,-11.86974 4.67048,11.16078 12.61983,9.82732z" fill="#430000" stroke="none" stroke-width="0"/><path d="M199.84171,137.5084c3.5789,-0.60034 11.82049,-2.08672 14.64201,-0.2998c3.18925,2.01981 0.77401,7.58882 1.44183,11.57001c1.25862,7.50329 -7.41754,77.32228 -15.04178,78.6012c-7.62425,1.27892 -17.67833,-11.6493 -18.93695,-19.15259c-1.25862,-7.50329 10.27063,-69.43995 17.89487,-70.71885z" fill="none" stroke="#000000" stroke-width="3"/></g><path d="M210.73543,184.73875l-23.88308,-12.88758" fill="none" stroke="#000000" stroke-width="3" stroke-linecap="round"/></g><g><path d="M176.69858,215.3277c4.89958,-7.97239 14.76108,-10.81576 22.02624,-6.3508c7.26517,4.46493 9.18285,14.54741 4.28327,22.51981c-4.89958,7.9724 -14.76109,10.81575 -22.02625,6.3508c-7.26518,-4.46494 -9.18285,-14.54741 -4.28327,-22.51981z" fill="#840000" stroke="#000000" stroke-width="0" stroke-linecap="butt"/><path d="M174.48558,221.45802c2.76589,-4.50055 7.83108,-18.28237 14.26044,-14.33108c1.07868,0.66292 -4.51361,4.29122 -7.04715,9.97059c-2.40319,5.38717 -1.75084,12.80626 -0.95903,14.58155c3.34898,7.50862 18.89019,1.05853 17.02849,4.08779c-2.7659,4.50053 -10.22012,4.94581 -16.64947,0.99453c-6.42935,-3.95128 -9.39918,-10.80284 -6.63328,-15.3034z" fill="#430000" stroke="none" stroke-width="0" stroke-linecap="butt"/><path d="M198.23461,209.71061c7.26518,4.46494 9.18285,14.54741 4.28327,22.51981c-4.89958,7.9724 -14.76107,10.81576 -22.02624,6.3508c-7.26518,-4.46494 -9.18285,-14.54741 -4.28327,-22.51981c4.89958,-7.9724 14.76107,-10.81576 22.02624,-6.3508z" fill="none" stroke="#000000" stroke-width="3.5" stroke-linecap="butt"/><g><path d="M196.84308,247.79003c3.7142,-6.04358 -5.66911,-15.67313 -2.71161,-13.85555c1.38228,0.8495 8.63035,-4.11675 11.94249,-0.33227c3.77452,4.31278 3.45743,17.55092 1.47916,20.76989c-3.71421,6.0436 -9.12267,9.46945 -12.08019,7.65186c-2.95751,-1.81759 -2.34408,-8.19033 1.37012,-14.23393z" fill="#840000" stroke="#000000" stroke-width="0" stroke-linecap="butt"/><path d="M195.12128,235.48914c-0.20625,-3.63421 3.90439,-3.43271 4.51781,-3.05571c1.67164,1.02733 4.4213,24.122 2.88029,26.62945c-1.541,2.50745 -4.14535,3.70731 -5.81698,2.67998c-1.67163,-1.02733 -2.37945,-3.78743 -0.83844,-6.29489c0.97551,-1.5873 -0.35519,-13.13085 -0.74267,-19.95883z" fill="#430000" stroke="none" stroke-width="0" stroke-linecap="butt"/><path d="M193.92513,233.6857c1.38228,0.8495 8.63035,-4.11675 11.94249,-0.33227c3.77452,4.31278 3.45743,17.55092 1.47916,20.76989c-3.7142,6.04358 -9.12269,9.46944 -12.08019,7.65186c-2.9575,-1.81758 -2.34407,-8.19034 1.37013,-14.23393c3.7142,-6.04358 -5.6691,-15.67313 -2.71161,-13.85555z" fill="none" stroke="#000000" stroke-width="3.5" stroke-linecap="butt"/><path d="M198.10552,246.19517l10.2589,0.53103" fill="none" stroke="#000000" stroke-width="3.5" stroke-linecap="round"/></g><g data-paper-data="{&quot;index&quot;:null}"><path d="M163.49464,232.84982c-1.63594,6.90247 -5.70037,11.84904 -9.07819,11.04846c-3.37781,-0.80057 -4.78986,-7.04509 -3.15392,-13.94757c0.87134,-3.67642 9.99235,-13.2762 15.71031,-13.6661c5.01752,-0.34213 6.64503,8.29207 8.22373,8.66624c3.37781,0.80057 -10.06602,0.99649 -11.70195,7.89894z" fill="#840000" stroke="#000000" stroke-width="0" stroke-linecap="butt"/><path d="M158.7819,238.96481c-0.67874,2.8638 -3.12858,4.31895 -5.03777,3.86646c-1.90919,-0.45249 -2.90668,-3.14087 -2.22793,-6.00466c0.67874,-2.8638 18.93008,-17.2795 20.83928,-16.82701c0.7006,0.16605 3.75422,2.92526 1.04254,5.3536c-5.09471,4.56239 -14.18645,11.79872 -14.61612,13.6116z" fill="#430000" stroke="none" stroke-width="0" stroke-linecap="butt"/><path d="M163.8164,232.81928c-1.63593,6.90247 -5.70037,11.84904 -9.07818,11.04847c-3.37779,-0.80056 -4.78986,-7.0451 -3.15392,-13.94757c0.87134,-3.67642 9.99235,-13.2762 15.71031,-13.6661c5.01752,-0.34213 6.64503,8.29207 8.22373,8.66624c3.37779,0.80056 -10.06602,0.99649 -11.70195,7.89894z" fill="none" stroke="#000000" stroke-width="3.5" stroke-linecap="butt"/><path d="M163.72641,230.82904l-7.64077,-6.86627" fill="none" stroke="#000000" stroke-width="3.5" stroke-linecap="round"/></g><g data-paper-data="{&quot;index&quot;:null}"><path d="M175.62864,243.14355c-0.20958,7.0906 -3.19234,12.75551 -6.66221,12.65294c-3.46986,-0.10256 -6.11285,-5.93374 -5.90328,-13.02434c0.11162,-3.7766 7.10808,-15.01932 12.62977,-16.55491c4.84529,-1.34747 8.18146,6.78075 9.80319,6.82869c3.46986,0.10256 -9.65792,3.00701 -9.8675,10.0976z" fill="#840000" stroke="#000000" stroke-width="0" stroke-linecap="butt"/><path d="M172.24666,250.08367c-0.08694,2.94184 -2.19279,4.86137 -4.15401,4.80343c-1.96122,-0.05797 -3.48062,-2.48978 -3.39368,-5.43162c0.08694,-2.94184 15.05423,-20.74365 17.01546,-20.68568c0.71971,0.02127 4.26726,2.1076 2.10131,5.03313c-4.06938,5.49652 -11.51404,14.41847 -11.56908,16.28075z" fill="#430000" stroke="none" stroke-width="0" stroke-linecap="butt"/><path d="M175.93764,243.04869c-0.20957,7.09058 -3.19234,12.75551 -6.6622,12.65294c-3.46985,-0.10256 -6.11285,-5.93375 -5.90328,-13.02434c0.11162,-3.7766 7.10808,-15.01932 12.62977,-16.55491c4.84529,-1.34747 8.18146,6.78075 9.80319,6.82869c3.46985,0.10256 -9.65792,3.00701 -9.8675,10.0976z" fill="none" stroke="#000000" stroke-width="3.5" stroke-linecap="butt"/><path d="M166.57886,235.93421l8.86904,5.18336" fill="none" stroke="#000000" stroke-width="3.5" stroke-linecap="round"/></g><g data-paper-data="{&quot;index&quot;:null}"><path d="M186.42411,249.27503c2.47125,6.64931 1.83678,13.01999 -1.41714,14.22933c-3.25392,1.20933 -7.89508,-3.20061 -10.36632,-9.84992c-1.31624,-3.54157 0.94075,-16.58975 5.4802,-20.08839c3.98338,-3.07006 10.13036,3.20788 11.65118,2.64267c3.25392,-1.20933 -7.81917,6.41702 -5.34791,13.06632z" fill="#840000" stroke="#000000" stroke-width="0" stroke-linecap="butt"/><path d="M185.89906,256.97749c1.02531,2.75876 -0.2045,5.32912 -2.04367,6.01266c-1.83917,0.68354 -4.16129,-0.99875 -5.18659,-3.7575c-1.02531,-2.75876 6.15222,-24.8813 7.9914,-25.56484c0.67492,-0.25083 4.74654,0.34889 3.83921,3.87406c-1.70468,6.6231 -5.24941,17.68923 -4.60037,19.43561z" fill="#430000" stroke="none" stroke-width="0" stroke-linecap="butt"/><path d="M186.67476,249.071c2.47126,6.64929 1.83678,13.01999 -1.41712,14.22932c-3.25391,1.20934 -7.89507,-3.20063 -10.36632,-9.84992c-1.31624,-3.54157 0.94075,-16.58975 5.4802,-20.08839c3.98338,-3.07006 10.13036,3.20788 11.65118,2.64267c3.25391,-1.20934 -7.81917,6.41702 -5.34791,13.06632z" fill="none" stroke="#000000" stroke-width="3.5" stroke-linecap="butt"/><path d="M175.32798,245.99642l10.16703,1.46918" fill="none" stroke="#000000" stroke-width="3.5" stroke-linecap="round"/></g></g><g data-paper-data="{&quot;index&quot;:null}"><path d="M341.45671,199.34423c2.41251,9.04128 -2.31098,18.15294 -10.55022,20.35144c-8.23923,2.19851 -16.8742,-3.34867 -19.28671,-12.38996c-2.41251,-9.04128 2.31099,-18.15294 10.55022,-20.35144c8.23923,-2.19851 16.87419,3.34868 19.2867,12.38996z" fill="#840000" stroke="#000000" stroke-width="0" stroke-linecap="butt"/><path d="M341.82232,205.8515c1.36191,5.10395 -3.44487,10.81873 -10.73624,12.76431c-7.29136,1.94558 -14.30621,-0.6148 -15.66812,-5.71874c-0.91669,-3.43541 12.12792,7.19338 17.48607,0.95757c1.26685,-1.47436 4.01557,-8.39627 3.25499,-14.24593c-0.80183,-6.16694 -5.12154,-11.24418 -3.89824,-11.57059c7.29136,-1.94558 8.19964,12.70944 9.56154,17.8134z" fill="#430000" stroke="none" stroke-width="0" stroke-linecap="butt"/><path d="M341.71639,200.18762c2.41251,9.04128 -2.31098,18.15294 -10.55022,20.35144c-8.23924,2.19851 -16.87419,-3.34867 -19.2867,-12.38996c-2.41251,-9.04128 2.31098,-18.15294 10.55022,-20.35144c8.23924,-2.19851 16.87419,3.34867 19.2867,12.38996z" fill="none" stroke="#000000" stroke-width="3.5" stroke-linecap="butt"/><g><path d="M312.86295,224.68197c1.82884,6.85389 0.59244,13.13556 -2.7616,14.03052c-3.35403,0.89496 -7.55557,-3.93568 -9.38441,-10.78957c-0.97408,-3.65053 2.51145,-16.42551 7.36254,-19.4774c4.25684,-2.67803 9.78007,4.15512 11.34767,3.73684c3.35403,-0.89496 -8.39306,5.64572 -6.56422,12.4996z" fill="#840000" stroke="#000000" stroke-width="0" stroke-linecap="butt"/><path d="M311.60907,232.29978c0.75878,2.84363 -0.70949,5.28563 -2.60524,5.7915c-1.89575,0.50585 -4.04767,-1.38929 -4.80645,-4.23292c-0.75878,-2.84363 8.48655,-24.18486 10.38231,-24.69071c0.69568,-0.18563 4.69198,0.79793 3.45408,4.22104c-2.32575,6.43136 -6.90504,17.11098 -6.42471,18.9111z" fill="#430000" stroke="none" stroke-width="0" stroke-linecap="butt"/><path d="M313.13188,224.50264c1.82884,6.85387 0.59244,13.13556 -2.76159,14.03052c-3.35402,0.89496 -7.55557,-3.93569 -9.38441,-10.78957c-0.97408,-3.65053 2.51145,-16.42551 7.36254,-19.4774c4.25684,-2.67803 9.78007,4.15512 11.34767,3.73684c3.35402,-0.89496 -8.39306,5.64572 -6.56422,12.4996z" fill="none" stroke="#000000" stroke-width="3.5" stroke-linecap="butt"/><path d="M302.12821,220.36475l9.98164,2.42775" fill="none" stroke="#000000" stroke-width="3.5" stroke-linecap="round"/></g><g data-paper-data="{&quot;index&quot;:null}"><path d="M349.09251,219.91272c0.40832,-7.08192 -12.41689,-11.11786 -8.95127,-10.91804c1.61975,0.09339 5.65065,-7.71367 10.36029,-5.94962c5.36709,2.0103 11.35855,13.81926 11.14109,17.59124c-0.40832,7.08192 -3.54876,12.66097 -7.01437,12.46116c-3.46563,-0.19981 -5.94406,-6.10282 -5.53576,-13.18474z" fill="#840000" stroke="#000000" stroke-width="0" stroke-linecap="butt"/><path d="M341.74938,209.89503c-1.90312,-3.10293 1.81254,-4.8726 2.53136,-4.83116c1.95884,0.11294 15.32005,19.14979 15.15065,22.08804c-0.16941,2.93825 -1.89469,5.22861 -3.85351,5.11567c-1.95883,-0.11294 -3.88963,-2.20846 -3.72022,-5.1467c0.10724,-1.86001 -6.5327,-11.39602 -10.10828,-17.22583z" fill="#430000" stroke="none" stroke-width="0" stroke-linecap="butt"/><path d="M339.8417,208.87331c1.61976,0.09339 5.65065,-7.71367 10.3603,-5.94962c5.36709,2.0103 11.35855,13.81926 11.14109,17.59126c-0.40832,7.08192 -3.54876,12.66096 -7.01438,12.46115c-3.46561,-0.19981 -5.94405,-6.10283 -5.53573,-13.18474c0.40831,-7.08192 -12.41689,-11.11786 -8.95127,-10.91804z" fill="none" stroke="#000000" stroke-width="3.5" stroke-linecap="butt"/><path d="M349.44888,217.91018l9.2865,-4.39183" fill="none" stroke="#000000" stroke-width="3.5" stroke-linecap="round"/></g><g data-paper-data="{&quot;index&quot;:null}"><path d="M334.51974,226.30242c1.82884,-6.85387 -9.91825,-13.39456 -6.56422,-12.4996c1.5676,0.41828 7.09083,-6.41488 11.34767,-3.73684c4.85109,3.05188 8.33662,15.82686 7.36254,19.4774c-1.82884,6.85389 -6.03037,11.68453 -9.38441,10.78957c-3.35403,-0.89496 -4.59044,-7.17664 -2.7616,-14.03052z" fill="#840000" stroke="#000000" stroke-width="0" stroke-linecap="butt"/><path d="M329.3489,215.00915c-1.23789,-3.4231 2.75841,-4.40668 3.45408,-4.22105c1.89576,0.50585 11.14109,21.84708 10.38231,24.69071c-0.75878,2.84363 -2.9107,4.73877 -4.80645,4.23292c-1.89575,-0.50585 -3.36402,-2.94787 -2.60524,-5.7915c0.48033,-1.80012 -4.09896,-12.47974 -6.4247,-18.9111z" fill="#430000" stroke="none" stroke-width="0" stroke-linecap="butt"/><path d="M327.68661,213.62352c1.5676,0.41828 7.09083,-6.41488 11.34767,-3.73684c4.85109,3.05188 8.33662,15.82686 7.36254,19.4774c-1.82884,6.85387 -6.03039,11.68453 -9.38441,10.78957c-3.35402,-0.89496 -4.59043,-7.17665 -2.76159,-14.03052c1.82884,-6.85387 -9.91824,-13.39456 -6.56422,-12.4996z" fill="none" stroke="#000000" stroke-width="3.5" stroke-linecap="butt"/><path d="M335.27281,224.41295l9.98164,-2.42775" fill="none" stroke="#000000" stroke-width="3.5" stroke-linecap="round"/></g><g data-paper-data="{&quot;index&quot;:null}"><path d="M322.42089,229.08725c4.27118,-5.66368 -4.15558,-16.14054 -1.38397,-14.05039c1.29539,0.97688 8.9822,-3.27882 11.9201,0.80299c3.34804,4.65164 1.77561,17.79989 -0.49931,20.81649c-4.27118,5.6637 -9.98046,8.56061 -12.75207,6.47047c-2.77161,-2.09015 -1.55594,-8.37588 2.71523,-14.03957z" fill="#840000" stroke="#000000" stroke-width="0" stroke-linecap="butt"/><path d="M321.87465,216.67847c0.1397,-3.63738 4.21263,-3.04653 4.78751,-2.613c1.56656,1.18139 2.11129,24.43279 0.33921,26.78261c-1.77208,2.34983 -4.47858,3.29703 -6.04513,2.11564c-1.56655,-1.18139 -2.00915,-3.99623 -0.23706,-6.34606c1.12179,-1.48752 0.89301,-13.10526 1.15548,-19.93919z" fill="#430000" stroke="none" stroke-width="0" stroke-linecap="butt"/><path d="M320.85514,214.7696c1.29539,0.97688 8.98219,-3.27882 11.9201,0.80299c3.34803,4.65164 1.77561,17.79989 -0.49931,20.81649c-4.27118,5.66368 -9.98047,8.56061 -12.75207,6.47047c-2.77159,-2.09015 -1.55593,-8.37589 2.71525,-14.03957c4.27118,-5.66368 -4.15557,-16.14053 -1.38397,-14.05039z" fill="none" stroke="#000000" stroke-width="3.5" stroke-linecap="butt"/><path d="M323.82903,227.61945l10.16216,1.50257" fill="none" stroke="#000000" stroke-width="3.5" stroke-linecap="round"/></g></g><g stroke-linecap="butt"><path d="M237.25834,218.56441l-3.38705,-56.33267l26.26321,-1.57909l3.38705,56.33267z" fill="#1b1b1b" stroke="#000000" stroke-width="2.5"/><g><path d="M210.43545,219.75427l-1.16716,-19.41193l63.94519,-3.84477l1.16716,19.41193z" fill="#1b1b1b" stroke="#000000" stroke-width="2.5"/><g><path d="M210.06251,204.45155c-0.93584,-15.56462 -0.88,-52.69538 8.1965,-69.24107c6.4476,-11.75343 20.49163,-6.059 28.31295,-6.52926c10.03932,-0.60362 19.31565,-8.91054 25.47852,7.28485c5.39739,14.18377 12.42201,48.73749 13.16932,61.16667c1.60063,26.62112 -14.01981,26.8198 -32.85146,27.95208c-13.08585,0.7868 -3.63637,-49.7567 -11.83689,-57.18511c-3.60072,-3.26169 -29.98055,44.67431 -30.46891,36.55185z" fill="#840000" stroke="#000000" stroke-width="0"/><path d="M241.98197,165.38595c-0.20315,-3.37877 -4.2633,-3.26332 -9.61146,4.38643c-3.93893,5.63403 -15.51897,28.78581 -17.19219,28.21699c-6.33717,-2.15441 5.40339,-44.10968 9.84572,-53.51625c4.45227,-9.42759 13.04778,-9.39122 18.63688,-9.72726c6.62656,-0.39843 14.22297,-2.37276 20.26471,7.78155c7.30378,12.27542 12.51524,38.10215 13.32926,51.64082c1.4874,24.73797 -13.57032,29.28158 -28.20765,30.16167c-2.73114,0.16421 1.78743,-4.2885 0.81867,-4.35739c-4.22323,-0.30032 -0.76235,0.32435 -1.97222,-19.79782z" fill="#7d3c3c" stroke="#000000" stroke-width="0"/><path d="M213.00124,201.072c-0.21565,-3.58651 1.09136,-19.69498 5.8134,-34.64259c2.73048,-8.64331 4.15944,-18.3149 8.15088,-24.17316c3.34688,-4.91223 9.20066,-6.73203 12.28805,-7.0087c0.44239,-0.03965 10.4309,-6.15132 10.87991,-6.17833c13.78244,-0.82869 18.3256,16.40515 18.78547,24.05364c0.45987,7.64849 -18.15845,-5.65123 -31.94089,-4.82254c-9.60587,0.57756 -11.88805,10.31637 -13.82906,15.32044c-0.84393,2.17573 -7.98879,27.61451 -8.12814,25.29674z" fill="#5c2c2c" stroke="none" stroke-width="0"/><path d="M212.18842,207.71761c-0.40144,-6.67668 -6.92676,-71.75439 13.27446,-72.969c3.73341,-0.22448 -3.15365,12.95125 -6.05807,29.21735c-1.40492,7.86821 -9.26785,35.01034 -5.36438,33.52722c2.7984,-1.06326 13.69319,-17.68529 17.54858,-23.55351c4.32665,-6.58553 6.67041,-14.64388 8.55186,-12.10498c4.57961,6.17991 3.79593,32.39612 7.37964,46.34102c1.05905,4.12094 4.30567,5.3184 5.93085,6.92138c11.40273,11.24701 31.86932,-5.80487 32.01504,-3.38133c0.40144,6.67668 -15.64946,13.07383 -35.8507,14.28846c-7.9778,0.47967 -3.15469,-6.8044 -4.15021,-16.54582c-1.28111,-12.53615 -2.59706,-31.68772 -3.80849,-39.85132c-0.23091,-1.55603 -2.50161,-2.58999 -2.54049,-3.23674z" fill="#430000" stroke="none" stroke-width="0"/><path d="M247.99349,209.25702c-0.1246,-2.07245 2.33356,-4.75902 0.06295,-4.50471c-2.54156,0.28466 -9.45138,3.62902 -1.41223,3.14565c15.22126,-0.9152 29.46775,-11.13392 29.73185,-6.74172c0.12761,2.12225 -0.65738,10.15208 -5.67506,15.00665c-5.36685,5.19239 -10.68928,6.51241 -18.55583,6.9854c-7.23011,0.43472 -5.60494,-6.04315 -6.67816,-9.70486c-0.18457,-0.62974 4.38615,-0.91085 3.63775,-1.34348c-4.06126,-2.34771 -2.49469,1.37724 -2.61175,-0.56988z" fill="#5c2c2c" stroke="none" stroke-width="0"/><path d="M225.1543,144.22737c4.45225,-9.42759 13.04777,-9.39122 18.63686,-9.72726c6.62657,-0.39843 14.22298,-2.37276 20.26472,7.78155c7.30377,12.27542 12.51523,38.10216 13.32926,51.64084c0.63678,10.5909 -1.75897,17.4804 -5.85599,21.96566c-5.47269,5.99128 -13.98092,7.69271 -22.35167,8.19601c-3.49243,0.20998 -3.56419,-4.81945 -4.23673,-11.50977c-1.49526,-14.87465 -0.04708,-39.82113 -3.8903,-46.8345c-1.03579,-1.89018 -13.73861,12.62421 -20.30753,24.74474c-4.0413,7.45672 -8.73078,14.71009 -8.8616,12.53422c-0.91945,-15.29205 6.06515,-43.52907 13.27296,-58.79151z" fill="none" stroke="#000000" stroke-width="3"/><path d="M219.05138,135.03259c6.4476,-11.75344 20.49161,-6.05901 28.31295,-6.52927c10.03932,-0.60362 19.31565,-8.91055 25.47852,7.28485c5.39739,14.18377 12.42199,48.7375 13.1693,61.16668c0.64628,10.7488 -1.51497,17.18995 -5.56158,21.12421c-0.54392,0.52883 -1.12194,1.01237 -1.73174,1.45499c-6.08945,4.41981 -15.35219,4.75922 -25.55815,5.37287c-7.76429,0.46684 -6.04452,-49.04735 -11.42471,-60.63228c-3.4608,-7.452 -14.3863,22.33659 -17.63553,19.68975c-3.95096,-3.21848 -12.72937,28.89428 -13.24555,20.30927c-0.93584,-15.56461 -0.88,-52.69537 8.1965,-69.24106z" fill="none" stroke="#000000" stroke-width="3"/></g></g><g><path d="M276.725,153.92527c0.2064,3.43293 1.18888,22.58355 -6.51464,23.04673c-7.70351,0.46317 -21.17582,-17.93649 -21.38222,-21.36942c-0.2064,-3.43293 11.12158,-20.69706 18.82508,-21.16024c7.70351,-0.46317 8.86538,16.04998 9.07178,19.48292z" data-paper-data="{&quot;index&quot;:null}" fill="#410000" stroke="#000000" stroke-width="0"/><path d="M224.47659,137.22787c7.70351,-0.46317 21.01847,15.31927 21.22487,18.7522c0.2064,3.43293 -10.96422,23.31427 -18.66774,23.77745c-7.70351,0.46317 -9.02272,-18.66719 -9.22915,-22.10012c-0.2064,-3.43292 -1.03151,-19.96634 6.67201,-20.42953z" fill="#410000" stroke="#000000" stroke-width="0"/><path d="M276.57697,154.12363c0.2064,3.43293 1.18888,22.58355 -6.51464,23.04673c-7.7035,0.46319 -21.17582,-17.93648 -21.38222,-21.36942c-0.2064,-3.43293 11.12158,-20.69706 18.82508,-21.16024c7.70351,-0.46317 8.86538,16.04998 9.07178,19.48292z" data-paper-data="{&quot;index&quot;:null}" fill="none" stroke="#000000" stroke-width="3.5"/><path d="M224.64732,137.40705c7.7035,-0.46319 21.01846,15.31927 21.22486,18.7522c0.2064,3.43293 -10.96422,23.31427 -18.66773,23.77745c-7.70351,0.46317 -9.02272,-18.66719 -9.22915,-22.10012c-0.2064,-3.43292 -1.0315,-19.96634 6.67201,-20.42953z" fill="none" stroke="#000000" stroke-width="3.5"/><path d="M222.04303,137.89197c1.011,-0.06079 -1.49924,9.79028 -1.48493,15.22262c0.02485,9.43727 2.21233,17.13076 4.49967,19.66837c5.33593,5.9198 17.36327,-14.08696 17.52863,-11.33698c0.27702,4.60735 -8.45799,16.76107 -15.3225,17.1738c-6.86452,0.41274 -9.25907,-11.07181 -9.53609,-15.67916c-0.27702,-4.60736 -2.54928,-24.63593 4.31522,-25.04866z" fill="#170000" stroke="none" stroke-width="0"/><path d="M277.43429,159.16125c0.27702,4.60736 -0.72421,16.29607 -7.58871,16.7088c-6.86451,0.41273 -16.99283,-10.60679 -17.26987,-15.21416c-0.16534,-2.74998 14.17254,15.67154 18.76073,9.15505c1.96679,-2.7934 3.2167,-10.69357 2.11062,-20.06582c-0.6367,-5.39493 -4.30917,-14.87425 -3.29821,-14.93505c6.86451,-0.41273 7.00841,19.74382 7.28544,24.35117z" data-paper-data="{&quot;index&quot;:null}" fill="#170000" stroke="none" stroke-width="0"/><g><path d="M247.65763,146.01241c4.95769,-0.29809 9.27173,4.36702 9.63566,10.41983c0.36392,6.0528 -3.36005,11.20121 -8.31775,11.4993c-4.95769,0.29809 -9.27173,-4.36702 -9.63566,-10.41983c-0.36392,-6.05279 3.36006,-11.20121 8.31775,-11.4993z" fill="#410000" stroke="#000000" stroke-width="0"/><path d="M247.55215,146.20824c4.95769,-0.29809 9.27173,4.36702 9.63566,10.41983c0.36392,6.0528 -3.36006,11.20121 -8.31775,11.4993c-4.95769,0.29809 -9.27173,-4.36702 -9.63566,-10.41983c-0.36392,-6.0528 3.36006,-11.20121 8.31775,-11.4993z" fill="none" stroke="#000000" stroke-width="3.5"/><path d="M239.71614,159.81273c-0.2716,-4.51704 -0.1441,-13.12469 4.73732,-13.41818c1.53003,-0.09199 -1.95393,9.15013 -1.40603,13.18675c0.40409,2.97705 4.99224,4.69683 6.13774,5.92485c2.25667,2.41925 8.0845,-8.81331 8.20817,-6.75628c0.27159,4.51702 -3.46543,8.4167 -8.34685,8.71021c-4.88143,0.2935 -9.05877,-3.13033 -9.33036,-7.64734z" fill="#170000" stroke="none" stroke-width="0"/></g></g></g><g><path d="M240.72327,102.78317c14.62697,1.38351 25.85448,9.16544 25.07735,17.3814c-0.77713,8.21597 -13.2646,13.75476 -27.89156,12.37124c-14.62697,-1.38351 -25.85448,-9.16544 -25.07735,-17.3814c0.77713,-8.21597 13.2646,-13.75476 27.89156,-12.37124z" fill="#000000" stroke="#000000" stroke-width="2.5" stroke-linecap="butt"/><path d="M211.17115,113.89059c4.44378,-1.14898 19.49432,7.30124 28.92398,8.54938c10.53598,1.39457 15.54803,-4.29626 21.19348,-3.76227c13.63326,1.28953 2.93412,4.13589 2.48794,8.85317c-0.44619,4.71729 -11.85985,7.49607 -25.4931,6.20653c-2.29212,-0.21681 -4.50105,-0.5348 -6.58785,-0.93624c-10.32526,-1.98635 -17.66063,-6.01588 -17.28944,-9.94008c0.09605,-1.01561 -5.81645,-8.30301 -3.23499,-8.9705z" fill="#ffffff" stroke="#000000" stroke-width="0" stroke-linecap="butt"/><path d="M224.89645,124.3372c8.47978,2.94513 19.16587,4.00546 25.57884,3.24695c8.52467,-1.00829 9.52186,-5.88587 14.36501,-5.42776c11.73407,1.10989 -3.40851,7.78502 -3.66507,10.49746c-0.25656,2.71246 -9.9769,4.01157 -21.71097,2.9017c-5.66874,-0.53619 -13.39111,-2.83821 -18.85389,-6.62458c-5.84496,-4.05127 -9.23995,-9.62754 -9.10734,-11.02961c0.07099,-0.75071 5.83501,3.81072 13.39343,6.43586z" fill="#e2e2e2" stroke="none" stroke-width="0" stroke-linecap="butt"/><path d="M212.05897,114.5491c4.44378,-1.14898 19.49432,7.30124 28.92398,8.54938c10.53598,1.39457 15.54803,-4.29626 21.19348,-3.76227c13.63326,1.28953 2.93412,4.13589 2.48794,8.85317c-0.44619,4.71729 -11.85985,7.49607 -25.4931,6.20653c-2.29212,-0.21681 -4.50105,-0.5348 -6.58785,-0.93624c-10.32526,-1.98635 -17.66063,-6.01588 -17.28944,-9.94008c0.09605,-1.01561 -5.81645,-8.30301 -3.23499,-8.9705z" fill="none" stroke="#000000" stroke-width="2" stroke-linecap="butt"/><path d="M207.74081,115.00487c0.3647,-3.85584 2.99292,-6.76098 5.8703,-6.48884c0.72108,0.06821 -2.04238,2.58005 -1.25461,4.58028c0.6069,1.541 -0.38671,3.21628 0.15044,5.05379c0.64572,2.209 2.87187,4.62468 4.34863,6.95386c2.06289,3.25361 11.23196,5.70394 11.11371,6.95409c-0.07579,0.80132 28.0885,-0.57041 27.24654,1.1096c-0.07381,0.14727 5.7652,-2.86748 8.54612,-7.35542c1.73167,-2.79462 0.59827,-7.9454 1.24398,-7.80592c1.14988,0.24838 4.50433,-7.3254 6.64969,-7.9462c1.40716,-0.4072 2.11218,5.3502 1.9708,7.15967c-0.14252,1.82393 -7.38296,9.61439 -8.4607,12.47474c-1.48423,3.93914 -0.26494,6.68364 -1.24343,6.87634c-8.63304,1.70024 -38.39083,2.57813 -39.70373,1.73323c-4.32925,-2.78604 -10.38842,-15.6792 -11.9282,-15.82484c-2.87738,-0.27217 -4.91427,-3.61856 -4.54957,-7.47441z" fill="#840000" stroke="#000000" stroke-width="0" stroke-linecap="butt"/><path d="M208.19727,107.6934c0.07356,-0.7776 3.74517,10.89477 9.60782,17.22701c4.80706,5.19206 11.28395,10.52165 13.93456,10.77236c5.88329,0.55648 32.49225,-1.37077 32.35839,0.04442c-0.13386,1.4152 -25.56733,3.47053 -31.4506,2.91405c-1.57746,-0.1492 -4.49276,0.62673 -8.48411,-2.41333c-3.23781,-2.4661 -5.92766,-7.08772 -9.03812,-10.97657c-1.65725,-2.07195 -4.22145,-3.70181 -5.3069,-5.20534c-3.73247,-5.1701 -3.42744,-11.96446 -3.37409,-12.5284z" fill="#430000" stroke="none" stroke-width="0" stroke-linecap="butt"/><path d="M207.9749,114.47771c0.14848,-1.56969 -3.63962,-8.51978 -2.87681,-9.62415c1.111,-1.60843 6.95161,3.22752 8.6576,3.38889c0.72108,0.06821 -2.04238,2.58005 -1.25461,4.58028c0.62212,1.57959 -1.02129,3.39665 -0.25473,5.72335c0.8803,2.6719 4.21471,5.89507 5.66071,8.17574c2.0629,3.25363 7.61916,3.72073 7.50093,4.97089c-0.03977,0.42052 8.44269,0.26787 16.3921,0.27061c7.19878,0.00247 13.96043,0.13239 13.56031,0.93076c-0.0738,0.14727 5.7652,-2.86748 8.54611,-7.3554c1.73169,-2.79461 0.59827,-7.9454 1.24398,-7.80592c1.0148,0.2192 3.82584,-8.24693 6.15287,-9.12071c2.0392,-0.76569 3.70096,5.88674 3.53427,8.02027c-0.14252,1.82393 -8.4496,9.92828 -9.52736,12.78864c-1.48423,3.93914 -0.26494,6.68364 -1.24343,6.87634c-8.63304,1.70023 -38.39083,2.57813 -39.70371,1.73323c-4.32925,-2.78605 -10.38842,-15.6792 -11.9282,-15.82484c-2.87738,-0.27217 -4.91427,-3.61856 -4.54957,-7.47441z" fill="none" stroke="#000000" stroke-width="2.5" stroke-linecap="butt"/><path d="M220.13444,127.09405l0.95242,-10.98254" fill="none" stroke="#000000" stroke-width="2" stroke-linecap="round"/><path d="M236.1874,122.65831l-0.73698,8.70483" fill="none" stroke="#000000" stroke-width="2" stroke-linecap="round"/><path d="M250.26282,131.82407l0.67097,-8.92" fill="none" stroke="#000000" stroke-width="2" stroke-linecap="round"/><path d="M260.24245,128.58966l-0.07264,-8.36356" fill="none" stroke="#000000" stroke-width="2" stroke-linecap="round"/><path d="M216.17679,35.41067c5.88435,0.55658 4.83578,6.81004 7.84768,11.02399c2.20636,3.08694 9.39662,3.56995 9.0264,7.48415c-0.87564,9.25746 -9.85009,15.98039 -20.04502,15.01609c-10.19491,-0.9643 -17.74969,-9.25068 -16.87405,-18.50814c0.87563,-9.25747 9.85008,-15.98039 20.04501,-15.01608z" fill="#840000" stroke="#000000" stroke-width="0" stroke-linecap="butt"/><path d="M202.47948,46.97582c-2.68599,7.43981 0.93426,16.21401 5.39686,16.63611c9.07431,0.8583 24.79766,-12.09927 24.10683,-4.79557c-0.69083,7.30372 -8.60705,12.52875 -17.68134,11.67043c-6.14308,-0.58107 -16.02685,-6.91499 -18.6181,-15.28538c-0.69408,-2.24201 2.59864,-12.5466 7.86491,-16.75295c4.11526,-3.287 10.41405,-0.71103 10.51193,-1.74593c0.35108,-3.71185 -8.80537,2.58492 -11.58109,10.2733z" fill="#430000" stroke="none" stroke-width="0" stroke-linecap="butt"/><path d="M216.26333,35.73855c5.79028,0.54769 4.67556,6.71489 7.70172,10.82286c2.30199,3.12491 9.55067,3.68567 9.17234,7.68529c-0.87563,9.25747 -9.85009,15.98039 -20.04502,15.01609c-10.19493,-0.96431 -17.7497,-9.25069 -16.87407,-18.50814c0.87563,-9.25747 9.85009,-15.98039 20.04502,-15.01609z" fill="none" stroke="#000000" stroke-width="3" stroke-linecap="butt"/><path d="M208.3984,111.99373l0.60594,-6.40608c0,0 40.56354,-6.99709 51.19009,-5.99196c9.69181,0.91672 10.0235,11.78195 10.0235,11.78195l-0.60594,6.40608c0,0 -21.05235,0.96342 -31.3275,-0.00848c-10.12725,-0.9579 -29.88609,-5.78152 -29.88609,-5.78152z" fill="#ffffff" stroke="#000000" stroke-width="0" stroke-linecap="butt"/><path d="M241.4773,96.16777c17.88081,1.69128 31.98682,7.17785 31.50663,12.25456c-0.12269,1.29721 -1.4986,1.67922 -2.38542,2.82087c-0.54055,0.69586 0.06511,2.38414 -1.55273,2.67222c-2.63967,0.47003 -2.88964,-6.40967 -7.26617,-6.63949c-5.76336,-0.30266 -16.0358,5.8745 -22.01924,5.30855c-7.01025,-0.66308 -21.46841,-0.068 -26.67081,-1.27663c-8.06725,-1.8742 -5.14971,-5.92383 -4.85778,-9.0102c0.48018,-5.07671 15.36472,-7.82116 33.24555,-6.12985z" fill="#e2e2e2" stroke="none" stroke-width="0" stroke-linecap="butt"/><path d="M208.39838,111.99372l0.60594,-6.40608c0,0 40.77711,-5.99198 52.07394,-4.92346c7.20769,0.68175 9.13965,10.71346 9.13965,10.71346l-0.60594,6.40608c0,0 -21.54375,1.24525 -31.68365,0.28614c-10.26314,-0.97075 -29.52993,-6.07614 -29.52993,-6.07614z" fill="none" stroke="#000000" stroke-width="2" stroke-linecap="butt"/><path d="M246.43466,49.86545c20.44164,1.93351 35.5419,19.0524 33.72738,38.23609c-0.92213,9.74909 0.07426,19.5932 -7.27525,23.00088c-3.34268,1.54987 -6.02214,-7.0782 -11.5889,-7.43611c-6.27792,-0.40365 -15.55566,7.3204 -20.8841,6.8164c-9.45581,-0.89439 -27.65902,-0.04646 -33.80995,-4.10465c-7.1462,-4.71486 -1.44272,-14.96858 -0.46755,-25.27836c1.81451,-19.1837 19.85672,-33.16774 40.29835,-31.23423z" fill="#840000" stroke="#000000" stroke-width="0" stroke-linecap="butt"/><path d="M254.12537,75.35642c10.53531,0.9965 7.83238,9.60575 7.38618,14.32304c-0.44619,4.71729 -9.34846,7.73361 -19.88378,6.73711c-10.53531,-0.9965 -37.032,1.25677 -36.58581,-3.46055c0.14059,-1.48643 -0.41909,-18.80566 7.17803,-30.42557c3.51189,-5.37149 15.75983,-9.42835 18.0748,-10.31404c3.49647,-1.33771 -16.38696,12.39919 -20.53354,24.91952c-2.30848,6.97028 9.95255,13.78646 10.59516,16.87988c0.78871,3.79689 7.988,-9.04751 14.40586,-14.21599c1.98151,-1.59576 1.50432,-6.543 1.99331,-6.49675c0,0 4.81296,4.93432 7.63936,5.26843c2.95757,0.34962 9.7304,-3.2151 9.7304,-3.2151z" fill="#430000" stroke="none" stroke-width="0" stroke-linecap="butt"/><path d="M246.46158,49.58072c20.44164,1.93351 35.5419,19.0524 33.72738,38.23609c-0.92213,9.74909 0.07426,19.5932 -7.27525,23.00088c-2.94687,1.36634 -4.92838,-7.80311 -9.73229,-7.99859c-6.79053,-0.27632 -16.8528,7.9358 -22.74071,7.37888c-9.45581,-0.89439 -27.65902,-0.04646 -33.80995,-4.10465c-7.1462,-4.71486 -1.44272,-14.96858 -0.46755,-25.27836c1.81451,-19.1837 19.85672,-33.16774 40.29835,-31.23423z" fill="none" stroke="#000000" stroke-width="3" stroke-linecap="butt"/><path d="M216.33212,68.34848c2.09394,0.19806 9.12126,10.39316 13.16909,9.4572c4.04049,-0.93427 6.01538,-8.08779 8.45617,-7.13856c4.38694,1.70612 2.28006,10.07873 2.0373,12.64521c-0.51312,5.4249 3.03342,11.63375 -4.90739,10.88265c-7.9408,-0.75109 -25.997,-0.00178 -25.48388,-5.42669c0.51312,-5.4249 -1.21208,-21.17092 6.72872,-20.41982z" fill="#000000" stroke="#000000" stroke-width="3" stroke-linecap="butt"/><path d="M274.38761,95.75782c-0.51312,5.4249 -18.10862,1.3034 -26.04942,0.55231c-7.9408,-0.75109 -3.29302,-6.18487 -2.7799,-11.60978c0.3466,-3.66427 1.11958,-7.67184 8.32741,-7.75771c3.46323,-0.04127 13.08638,-2.25307 15.66353,-2.00933c7.9408,0.75109 5.35151,15.39959 4.83838,20.8245z" data-paper-data="{&quot;index&quot;:null}" fill="#000000" stroke="#000000" stroke-width="3" stroke-linecap="butt"/><path d="M208.95358,92.40216c6.32527,-1.28721 20.33494,1.41099 31.1006,2.42926c11.55284,1.09274 25.29872,0.91636 31.14559,3.59531c3.54365,1.62365 1.58452,8.74013 1.42736,10.40159c-0.2363,2.49817 -2.52087,-5.91368 -10.16325,-5.96193c-5.82674,-0.03678 -15.89101,8.66826 -23.91778,7.90903c-8.2282,-0.77827 -22.38221,-1.38893 -28.11307,-3.10664c-7.19236,-2.15576 -4.96095,-5.59276 -4.72915,-8.04314c0.17482,-1.84825 -1.32665,-6.2922 3.24974,-7.2235z" fill="#7d3c3c" stroke="#000000" stroke-width="0" stroke-linecap="butt"/><path d="M219.81724,92.21019c3.10783,0.29396 -3.87639,0.62803 -7.61953,2.86447c-3.68858,2.20385 -4.14312,6.30479 -0.33555,7.35379c10.37036,2.8571 39.0107,-2.14261 53.59143,-1.22841c7.89236,0.49485 7.42344,7.07945 7.36873,7.65779c-0.11705,1.23749 -3.46043,-5.8294 -9.94134,-5.63387c-6.28344,0.18955 -15.56046,7.67429 -24.92651,6.78839c-19.02645,-1.79965 -34.26355,-5.23434 -34.03301,-7.67163c0.23054,-2.43728 -3.13063,-11.9302 15.89583,-10.13056z" fill="#5c2c2c" stroke="none" stroke-width="0" stroke-linecap="butt"/><path d="M209.57687,91.8866c6.32527,-1.28721 20.33494,1.41099 31.1006,2.42926c11.55284,1.09274 25.29872,0.91636 31.14559,3.59531c3.54365,1.62365 1.58452,8.74013 1.42736,10.40159c-0.25015,2.64469 -2.3371,-5.41668 -10.75259,-5.57727c-5.59439,-0.10675 -15.91922,8.2252 -23.32844,7.52438c-8.2282,-0.77827 -22.38221,-1.38893 -28.11307,-3.10664c-7.19236,-2.15576 -4.96095,-5.59276 -4.72915,-8.04314c0.17482,-1.84825 -1.32665,-6.2922 3.24974,-7.2235z" fill="none" stroke="#000000" stroke-width="3" stroke-linecap="butt"/><path d="M232.70421,84.1334c0.56943,0.05387 0.51557,0.62329 0.51557,0.62329c-0.08978,0.94905 -0.23339,2.46752 -0.32316,3.41657c0,0 -0.05387,0.56943 -0.62329,0.51557c-0.56943,-0.05387 -0.51557,-0.62329 -0.51557,-0.62329c0.08978,-0.94905 0.17954,-1.89809 0.2693,-2.84716l0.05387,-0.56943c0,0 0.05387,-0.56943 0.62329,-0.51557z" fill="#ffffff" stroke="none" stroke-width="0.5" stroke-linecap="butt"/><path d="M252.45723,84.85273c0.56943,0.05387 0.51557,0.62329 0.51557,0.62329l-0.02691,0.28472c-0.15308,1.6183 -0.6197,3.26025 -0.74253,4.81321c0,0 -0.05387,0.56943 -0.62329,0.51557c-0.56943,-0.05387 -0.51557,-0.62329 -0.51557,-0.62329c0.16772,-1.5849 0.5869,-3.16788 0.74253,-4.81321l0.02691,-0.28472c0,0 0.05387,-0.56943 0.62329,-0.51557z" fill="#ffffff" stroke="none" stroke-width="0.5" stroke-linecap="butt"/><path d="M300.20787,62.96905c-0.25348,-0.02397 -0.19962,-0.59341 -0.19962,-0.59341l0.05387,-0.56943c0.09477,-0.63073 -0.66365,-1.67056 -0.86215,-2.26066c-0.04901,-0.14573 -0.05479,-0.28737 -0.04148,-0.41017c0.00993,-0.12314 0.04217,-0.26117 0.11765,-0.39511c0.01974,-0.03505 0.03888,-0.06344 0.05732,-0.08613c-0.08984,0.01581 -0.20882,-0.03271 -0.14258,-0.46952c0.11069,-0.72975 0.39694,-0.70831 0.58765,-1.14086c0.30981,-0.70272 0.0302,-2.09176 0.66598,-3.22007c0,0 0.21732,-0.38569 0.35848,0.03391c0.14115,0.4196 -0.07616,0.8053 -0.07616,0.8053c-0.63747,1.13135 -0.78515,3.33257 -0.98157,4.40226c0.36701,0.8688 0.91825,1.43889 0.82384,2.78902l-0.05387,0.56943c0,0 -0.05387,0.56943 -0.30734,0.54545z" fill="#ffffff" stroke="none" stroke-width="0.5" stroke-linecap="butt"/><path d="M241.93761,93.15499c5.93594,0.56145 10.56711,2.92867 10.34401,5.28734c-0.2231,2.35865 -5.21598,3.81556 -11.15191,3.25409c-5.93594,-0.56145 -10.56711,-2.92867 -10.34401,-5.28734c0.2231,-2.35865 5.21598,-3.81556 11.15191,-3.25409z" fill="#000000" stroke="#000000" stroke-width="3" stroke-linecap="butt"/><path d="M252.89145,47.38672c0.99266,-1.60501 5.44024,-5.06561 7.78529,-10.5855c4.19973,-9.8855 7.17938,-23.48203 10.76796,-24.27723c3.40587,-0.75473 4.28208,5.55408 8.42707,9.21207c5.06475,4.46969 13.2932,6.66048 15.59518,8.08419c1.44456,0.89342 11.55205,-1.09751 11.65074,0.65991c0.19637,3.49668 -7.47612,8.83042 -12.57972,14.74833c-5.25693,6.09569 -7.99005,12.78745 -10.64147,17.07446c-6.51926,10.5408 -13.39833,5.79407 -20.67763,1.29199c-7.2793,-4.5021 -16.84667,-5.66743 -10.32741,-16.20823z" fill="#410000" stroke="#000000" stroke-width="0" stroke-linecap="butt"/><path d="M260.31543,38.8451c2.01716,-3.26149 6.15822,-30.86043 13.6266,-26.24139c4.57891,2.83197 -9.29937,17.41823 -6.76137,28.79969c1.60157,7.18208 20.96055,12.90683 20.18013,14.16867c-2.01716,3.2615 -9.70672,2.16102 -17.17508,-2.458c-7.46836,-4.61902 -11.88744,-11.00746 -9.87027,-14.26896z" fill="#170000" stroke="none" stroke-width="0" stroke-linecap="butt"/><path d="M252.86413,47.27077c0.99265,-1.605 5.44023,-5.06561 7.78528,-10.5855c4.19973,-9.8855 7.17938,-23.48203 10.76796,-24.27723c3.36001,-0.74455 3.85324,5.73434 7.94788,9.3225c5.1274,4.49321 13.74705,6.53435 16.07437,7.97377c1.44456,0.89342 11.55203,-1.09752 11.65073,0.65991c0.19638,3.49668 -7.47612,8.83041 -12.57972,14.74833c-5.25693,6.09571 -7.99005,12.78745 -10.64147,17.07446c-6.51926,10.5408 -13.39833,5.79407 -20.67763,1.29199c-7.2793,-4.5021 -16.84667,-5.66743 -10.32741,-16.20823z" fill="none" stroke="#000000" stroke-width="3" stroke-linecap="butt"/><path d="M287.24885,70.97621c-1.69567,2.74168 -1.47546,8.40942 -7.89306,6.4069c-3.82528,-1.19363 -13.46359,-8.66152 -17.73977,-11.30624c-4.8788,-3.01743 -14.37303,-8.31925 -17.24773,-11.58717c-3.87204,-4.40169 -0.13762,-6.64727 1.4156,-9.15863c1.40863,-2.27757 4.22352,-5.93097 9.14344,-4.88631c4.53274,0.96248 10.99877,6.38982 16.48939,9.78566c4.99496,3.08927 16.01286,7.91582 18.89669,11.25392c3.72694,4.31401 -1.53879,7.02493 -3.06456,9.4919z" data-paper-data="{&quot;index&quot;:null}" fill="#410000" stroke="#000000" stroke-width="0" stroke-linecap="butt"/><path d="M256.78479,41.86798c3.20411,0.60853 21.0924,11.01745 28.5547,16.59499c6.06499,4.53315 4.99712,5.25819 6.64511,6.27745c0.72808,0.45028 0.27916,6.47677 -2.54303,4.69337c-3.75075,-2.37018 -1.73964,-5.62402 -7.45398,-10.25019c-6.26194,-5.06948 -22.82004,-13.03512 -26.57739,-13.52769c-2.38695,-0.31292 -4.35255,0.4635 -5.78397,1.57464c-1.85501,1.43997 -2.81287,3.44211 -2.62798,4.36408c0.98082,4.8911 37.79535,23.4335 36.76485,25.09971c-1.98793,3.21424 -18.32583,-6.83778 -27.25951,-12.36307c-8.93368,-5.52529 -14.56432,-12.61007 -12.57638,-15.82431c1.17003,-1.89178 4.54893,-8.21694 12.85759,-6.63895z" fill="#170000" stroke="none" stroke-width="0" stroke-linecap="butt"/><path d="M287.30743,71.22473c-1.69567,2.74168 -1.47546,8.40942 -7.89306,6.4069c-3.82528,-1.19362 -13.46359,-8.66152 -17.73978,-11.30625c-4.8788,-3.01743 -14.37301,-8.31925 -17.24773,-11.58717c-3.87204,-4.40169 -0.13762,-6.64727 1.4156,-9.15863c1.40862,-2.27757 4.22353,-5.93098 9.14344,-4.88631c4.53273,0.96247 10.99877,6.38982 16.48939,9.78566c4.99496,3.08927 16.01286,7.91582 18.89669,11.25392c3.72694,4.31401 -1.53879,7.02493 -3.06456,9.4919z" data-paper-data="{&quot;index&quot;:null}" fill="none" stroke="#000000" stroke-width="3" stroke-linecap="butt"/><path d="M222.32792,109.45823l-0.49244,5.20621" fill="none" stroke="#000000" stroke-width="2" stroke-linecap="round"/><path d="M238.79077,110.68712l-0.61554,6.50776" fill="none" stroke="#000000" stroke-width="2" stroke-linecap="round"/><path d="M255.12619,118.46992l0.74301,-13.0617" fill="none" stroke="#000000" stroke-width="2" stroke-linecap="round"/><path d="M223.90817,73.92909l3.67046,-5.39806l-9.73804,-6.37907l4.82473,-2.41625l0.06536,-3.72821" fill="none" stroke="#000000" stroke-width="3" stroke-linecap="round"/><path d="M240.81125,103.83194l-0.26325,4.39423" fill="none" stroke="#000000" stroke-width="3" stroke-linecap="round"/></g><g stroke-linecap="butt"><path d="M158.02247,326.10147c0,-11.07416 16.63961,-20.05155 37.16561,-20.05155c20.526,0 37.1656,8.97737 37.1656,20.05155c0,5.5238 -0.30845,12.05852 -7.0057,15.68505c-6.72944,3.64397 -19.8723,4.3665 -30.15991,4.3665c-11.02302,0 -28.58824,-0.03474 -35.39441,-4.14721c-5.86761,-3.54537 -1.7712,-10.7773 -1.7712,-15.90434z" fill="#840000" stroke="#000000" stroke-width="0"/><path d="M157.27412,336.71995c0,-1.92539 7.37565,2.6143 21.70599,3.6569c15.36834,1.11811 38.04516,-1.28736 46.97351,-4.67121c4.00164,-1.51662 2.89534,-8.45008 -1.53588,-14.20528c-4.83274,-6.27671 -13.08795,-11.34552 -9.54331,-11.34552c20.80814,0 17.75264,20.64007 17.75264,26.5651c0,5.92503 -16.86833,10.72822 -37.67647,10.72822c-20.80814,0 -37.67648,-4.80319 -37.67648,-10.72822z" fill="#430000" stroke="none" stroke-width="0"/><path d="M137.97616,330.82313c0,-11.07417 7.47174,-20.05155 16.68857,-20.05155c9.21684,0 16.68857,8.97737 16.68857,20.05155c0,5.5238 -0.13851,12.05852 -3.14578,15.68505c-3.02174,3.64397 -8.92332,4.3665 -13.54279,4.3665c-4.94969,0 -12.83705,-0.03474 -15.89325,-4.14721c-2.63476,-3.54537 -0.79534,-10.77732 -0.79534,-15.90434z" fill="#840000" stroke="#000000" stroke-width="0"/><path d="M195.97234,306.57876c20.526,0 37.16561,8.97738 37.16561,20.05155c0,5.5238 -0.30846,12.05852 -7.0057,15.68505c-6.72944,3.64397 -19.8723,4.3665 -30.15991,4.3665c-11.02302,0 -28.58823,-0.03473 -35.39441,-4.1472c-5.86761,-3.54537 -1.7712,-10.77733 -1.7712,-15.90435c0,-11.07417 16.63961,-20.05155 37.16561,-20.05155z" fill="none" stroke="#000000" stroke-width="3.5"/><path d="M137.64014,341.44158c0,-1.92539 3.31191,2.61429 9.74671,3.65689c6.90089,1.11811 17.08352,-1.28734 21.09264,-4.67119c1.79687,-1.51662 1.3001,-8.45008 -0.68966,-14.20528c-2.17006,-6.27671 -5.87691,-11.34552 -4.28526,-11.34552c9.34354,0 7.97152,20.64009 7.97152,26.56511c0,5.92504 -7.57443,10.72822 -16.91797,10.72822c-9.34354,0 -16.91797,-4.80319 -16.91797,-10.72822z" fill="#430000" stroke="none" stroke-width="0"/><path d="M138.32831,331.35194c0,-11.07417 7.47173,-20.05155 16.68857,-20.05155c9.21684,0 16.68857,8.97739 16.68857,20.05155c0,5.5238 -0.13851,12.05852 -3.14578,15.68505c-3.02174,3.64398 -8.92331,4.36649 -13.54278,4.36649c-4.94969,0 -12.83705,-0.03473 -15.89325,-4.1472c-2.63476,-3.54537 -0.79532,-10.77732 -0.79532,-15.90434z" fill="none" stroke="#000000" stroke-width="3.5"/><path d="M185.08774,330.14688c0,-11.07417 7.47174,-20.05155 16.68857,-20.05155c9.21684,0 16.68857,8.97737 16.68857,20.05155c0,5.5238 -0.13851,12.05852 -3.14578,15.68505c-3.02174,3.64397 -8.92332,4.3665 -13.54279,4.3665c-4.94969,0 -12.83705,-0.03474 -15.89325,-4.14721c-2.63476,-3.54537 -0.79534,-10.77732 -0.79534,-15.90434z" fill="#840000" stroke="#000000" stroke-width="0"/><path d="M184.75172,340.76533c0,-1.92539 3.31191,2.61429 9.74671,3.65689c6.90089,1.11811 17.08352,-1.28734 21.09264,-4.67119c1.79687,-1.51662 1.3001,-8.45008 -0.68966,-14.20528c-2.17006,-6.27671 -5.87691,-11.34552 -4.28526,-11.34552c9.34354,0 7.97152,20.64009 7.97152,26.56511c0,5.92504 -7.57443,10.72822 -16.91797,10.72822c-9.34354,0 -16.91797,-4.80319 -16.91797,-10.72822z" fill="#430000" stroke="none" stroke-width="0"/><path d="M185.43989,330.67569c0,-11.07417 7.47173,-20.05155 16.68857,-20.05155c9.21684,0 16.68857,8.97739 16.68857,20.05155c0,5.5238 -0.13851,12.05852 -3.14578,15.68505c-3.02174,3.64398 -8.92331,4.36649 -13.54278,4.36649c-4.94969,0 -12.83705,-0.03473 -15.89325,-4.1472c-2.63476,-3.54537 -0.79532,-10.77732 -0.79532,-15.90434z" fill="none" stroke="#000000" stroke-width="3.5"/><path d="M158.93969,329.92146c0,-11.07417 7.47174,-20.05155 16.68857,-20.05155c9.21684,0 16.68857,8.97737 16.68857,20.05155c0,5.5238 -0.13851,12.05852 -3.14578,15.68505c-3.02174,3.64397 -8.92332,4.3665 -13.54279,4.3665c-4.94969,0 -12.83705,-0.03474 -15.89325,-4.14721c-2.63476,-3.54537 -0.79534,-10.77732 -0.79534,-15.90434z" fill="#840000" stroke="#000000" stroke-width="0"/><path d="M158.60366,340.53992c0,-1.92539 3.31191,2.61429 9.74671,3.65689c6.90089,1.11811 17.08352,-1.28734 21.09264,-4.67119c1.79687,-1.51662 1.3001,-8.45008 -0.68966,-14.20528c-2.17006,-6.27671 -5.87691,-11.34552 -4.28526,-11.34552c9.34354,0 7.97152,20.64009 7.97152,26.56511c0,5.92504 -7.57443,10.72822 -16.91797,10.72822c-9.34354,0 -16.91797,-4.80319 -16.91797,-10.72822z" fill="#430000" stroke="none" stroke-width="0"/><path d="M159.29184,330.45029c0,-11.07417 7.47173,-20.05155 16.68857,-20.05155c9.21684,0 16.68857,8.97739 16.68857,20.05155c0,5.5238 -0.13851,12.05852 -3.14578,15.68505c-3.02174,3.64398 -8.92331,4.36649 -13.54278,4.36649c-4.94969,0 -12.83705,-0.03473 -15.89325,-4.1472c-2.63476,-3.54537 -0.79532,-10.77732 -0.79532,-15.90434z" fill="none" stroke="#000000" stroke-width="3.5"/></g><g data-paper-data="{&quot;index&quot;:null}" stroke-linecap="butt"><path d="M325.09222,328.77004c0,5.12704 4.09642,12.35897 -1.7712,15.90434c-6.80617,4.11247 -24.37139,4.14721 -35.39441,4.14721c-10.28762,0 -23.43048,-0.72254 -30.15991,-4.3665c-6.69725,-3.62653 -7.0057,-10.16125 -7.0057,-15.68505c0,-11.07418 16.6396,-20.05155 37.1656,-20.05155c20.526,0 37.16561,8.97739 37.16561,20.05155z" fill="#840000" stroke="#000000" stroke-width="0"/><path d="M325.84057,339.3885c0,5.92503 -16.86834,10.72822 -37.67648,10.72822c-20.80814,0 -37.67647,-4.80319 -37.67647,-10.72822c0,-5.92503 -3.0555,-26.5651 17.75264,-26.5651c3.54464,0 -4.71058,5.06881 -9.54331,11.34552c-4.43121,5.7552 -5.53752,12.68866 -1.53588,14.20528c8.92834,3.38386 31.60517,5.78932 46.97351,4.67121c14.33034,-1.0426 21.70599,-5.58229 21.70599,-3.6569z" fill="#430000" stroke="none" stroke-width="0"/><path d="M345.13853,333.4917c0,5.12703 1.83942,12.35897 -0.79534,15.90434c-3.0562,4.11247 -10.94355,4.14721 -15.89325,4.14721c-4.61947,0 -10.52105,-0.72254 -13.54279,-4.3665c-3.00727,-3.62653 -3.14578,-10.16125 -3.14578,-15.68505c0,-11.07418 7.47173,-20.05155 16.68857,-20.05155c9.21683,0 16.68857,8.97738 16.68857,20.05155z" fill="#840000" stroke="#000000" stroke-width="0"/><path d="M324.30796,329.29888c0,5.12703 4.09642,12.35899 -1.7712,15.90435c-6.80618,4.11247 -24.37139,4.1472 -35.39441,4.1472c-10.28762,0 -23.43048,-0.72254 -30.15991,-4.3665c-6.69723,-3.62653 -7.0057,-10.16125 -7.0057,-15.68505c0,-11.07417 16.63961,-20.05155 37.16561,-20.05155c20.526,0 37.16561,8.97738 37.16561,20.05155z" fill="none" stroke="#000000" stroke-width="3.5"/><path d="M345.47453,344.11015c0,5.92503 -7.57443,10.72822 -16.91797,10.72822c-9.34354,0 -16.91797,-4.80318 -16.91797,-10.72822c0,-5.92503 -1.37202,-26.56511 7.97152,-26.56511c1.59166,0 -2.1152,5.06881 -4.28526,11.34552c-1.98976,5.7552 -2.48653,12.68866 -0.68966,14.20528c4.00912,3.38384 14.19175,5.7893 21.09264,4.67119c6.43479,-1.0426 9.74671,-5.58228 9.74671,-3.65689z" fill="#430000" stroke="none" stroke-width="0"/><path d="M344.78636,334.02051c0,5.12703 1.83943,12.35897 -0.79532,15.90434c-3.0562,4.11247 -10.94355,4.1472 -15.89325,4.1472c-4.61947,0 -10.52104,-0.72251 -13.54278,-4.36649c-3.00727,-3.62653 -3.14578,-10.16125 -3.14578,-15.68505c0,-11.07416 7.47173,-20.05155 16.68857,-20.05155c9.21684,0 16.68857,8.97738 16.68857,20.05155z" fill="none" stroke="#000000" stroke-width="3.5"/><path d="M298.02695,332.81544c0,5.12703 1.83942,12.35897 -0.79534,15.90434c-3.0562,4.11247 -10.94355,4.14721 -15.89325,4.14721c-4.61947,0 -10.52105,-0.72254 -13.54279,-4.3665c-3.00727,-3.62653 -3.14578,-10.16125 -3.14578,-15.68505c0,-11.07418 7.47173,-20.05155 16.68857,-20.05155c9.21683,0 16.68857,8.97738 16.68857,20.05155z" fill="#840000" stroke="#000000" stroke-width="0"/><path d="M298.36295,343.43391c0,5.92503 -7.57443,10.72822 -16.91797,10.72822c-9.34354,0 -16.91797,-4.80318 -16.91797,-10.72822c0,-5.92503 -1.37202,-26.56511 7.97152,-26.56511c1.59166,0 -2.1152,5.06881 -4.28526,11.34552c-1.98976,5.7552 -2.48653,12.68866 -0.68966,14.20528c4.00912,3.38384 14.19175,5.7893 21.09264,4.67119c6.43479,-1.0426 9.74671,-5.58228 9.74671,-3.65689z" fill="#430000" stroke="none" stroke-width="0"/><path d="M297.67478,333.34425c0,5.12703 1.83943,12.35897 -0.79532,15.90434c-3.0562,4.11247 -10.94355,4.1472 -15.89325,4.1472c-4.61947,0 -10.52104,-0.72251 -13.54278,-4.36649c-3.00727,-3.62653 -3.14578,-10.16125 -3.14578,-15.68505c0,-11.07416 7.47173,-20.05155 16.68857,-20.05155c9.21684,0 16.68857,8.97738 16.68857,20.05155z" fill="none" stroke="#000000" stroke-width="3.5"/><path d="M324.17501,332.59003c0,5.12703 1.83942,12.35897 -0.79534,15.90434c-3.0562,4.11247 -10.94355,4.14721 -15.89325,4.14721c-4.61947,0 -10.52105,-0.72254 -13.54279,-4.3665c-3.00727,-3.62653 -3.14578,-10.16125 -3.14578,-15.68505c0,-11.07418 7.47173,-20.05155 16.68857,-20.05155c9.21683,0 16.68857,8.97738 16.68857,20.05155z" fill="#840000" stroke="#000000" stroke-width="0"/><path d="M324.511,343.2085c0,5.92503 -7.57443,10.72822 -16.91797,10.72822c-9.34354,0 -16.91797,-4.80318 -16.91797,-10.72822c0,-5.92503 -1.37202,-26.56511 7.97152,-26.56511c1.59166,0 -2.1152,5.06881 -4.28526,11.34552c-1.98976,5.7552 -2.48653,12.68866 -0.68966,14.20528c4.00912,3.38384 14.19175,5.7893 21.09264,4.67119c6.43479,-1.0426 9.74671,-5.58228 9.74671,-3.65689z" fill="#430000" stroke="none" stroke-width="0"/><path d="M323.82283,333.11885c0,5.12703 1.83943,12.35897 -0.79532,15.90434c-3.0562,4.11247 -10.94355,4.1472 -15.89325,4.1472c-4.61947,0 -10.52104,-0.72251 -13.54278,-4.36649c-3.00727,-3.62653 -3.14578,-10.16125 -3.14578,-15.68505c0,-11.07416 7.47173,-20.05155 16.68857,-20.05155c9.21684,0 16.68857,8.97738 16.68857,20.05155z" fill="none" stroke="#000000" stroke-width="3.5"/></g></g></g></svg>